<?xml version="1.0" encoding="utf-8" standalone="no"?>
<!DOCTYPE svg PUBLIC "-//W3C//DTD SVG 1.1//EN" "http://www.w3.org/Graphics/SVG/1.1/DTD/svg11.dtd">
<svg width="3000px" height="3000px" version="1.1" xmlns="http://www.w3.org/2000/svg" xmlns:xlink="http://www.w3.org/1999/xlink">
<g id="bg">
<rect x="0" y="0" width="3000px" height="3000px" style="fill:rgb(255,255,255);"/>
</g>
<g id="ideograms">
<path d="M1500.000,950.000 A550.000,550.000 40.000 0,1 1633.071,2033.659 L1681.460,2227.717 A750.000,750.000 0.000 0,0 1500.000,750.000 Z" style="stroke-width:2.0;stroke:rgb(0,0,0);stroke-linecap:round;fill:rgb(179,177,178);" />
<text x="2467.7" y="1381.2" font-size="46.8px" font-family="CMUBright-Roman" style="text-anchor:middle;fill:rgb(0,0,0);" transform="rotate(443.0,2467.7,1381.2)" >HistomissWU24<tspan baseline-shift="-40%" font-size="90%">C</tspan>P069111</text>
<line x1='1594.5' y1='756.0' x2='1596.0' y2='744.1' style="stroke-width:8.0;stroke:rgb(150,150,150);stroke-linecap:round;fill:none;" />
<line x1='1690.3' y1='774.5' x2='1693.4' y2='762.9' style="stroke-width:8.0;stroke:rgb(150,150,150);stroke-linecap:round;fill:none;" />
<text x="1709.9" y="755.0" font-size="41.6px" font-family="CMUBright-Roman" style="text-anchor:start;fill:rgb(150,150,150);" transform="rotate(284.7,1709.9,755.0)" >2000 kb</text>
<line x1='1782.9' y1='805.4' x2='1787.4' y2='794.3' style="stroke-width:8.0;stroke:rgb(150,150,150);stroke-linecap:round;fill:none;" />
<line x1='1870.6' y1='848.0' x2='1876.6' y2='837.6' style="stroke-width:8.0;stroke:rgb(150,150,150);stroke-linecap:round;fill:none;" />
<line x1='1952.2' y1='901.6' x2='1959.4' y2='892.0' style="stroke-width:8.0;stroke:rgb(150,150,150);stroke-linecap:round;fill:none;" />
<line x1='2026.0' y1='965.4' x2='2034.4' y2='956.8' style="stroke-width:8.0;stroke:rgb(150,150,150);stroke-linecap:round;fill:none;" />
<line x1='2091.0' y1='1038.2' x2='2100.4' y2='1030.8' style="stroke-width:8.0;stroke:rgb(150,150,150);stroke-linecap:round;fill:none;" />
<text x="2118.4" y="1034.5" font-size="41.6px" font-family="CMUBright-Roman" style="text-anchor:start;fill:rgb(150,150,150);" transform="rotate(322.0,2118.4,1034.5)" >2050 kb</text>
<line x1='2145.9' y1='1118.8' x2='2156.2' y2='1112.7' style="stroke-width:8.0;stroke:rgb(150,150,150);stroke-linecap:round;fill:none;" />
<line x1='2189.9' y1='1205.9' x2='2201.0' y2='1201.2' style="stroke-width:8.0;stroke:rgb(150,150,150);stroke-linecap:round;fill:none;" />
<line x1='2222.3' y1='1297.9' x2='2233.8' y2='1294.7' style="stroke-width:8.0;stroke:rgb(150,150,150);stroke-linecap:round;fill:none;" />
<line x1='2242.4' y1='1393.4' x2='2254.3' y2='1391.7' style="stroke-width:8.0;stroke:rgb(150,150,150);stroke-linecap:round;fill:none;" />
<line x1='2249.9' y1='1490.7' x2='2261.9' y2='1490.5' style="stroke-width:8.0;stroke:rgb(150,150,150);stroke-linecap:round;fill:none;" />
<text x="2274.0" y="1504.4" font-size="41.6px" font-family="CMUBright-Roman" style="text-anchor:start;fill:rgb(150,150,150);" transform="rotate(359.3,2274.0,1504.4)" >2100 kb</text>
<line x1='2244.8' y1='1588.1' x2='2256.7' y2='1589.5' style="stroke-width:8.0;stroke:rgb(150,150,150);stroke-linecap:round;fill:none;" />
<line x1='2227.1' y1='1684.0' x2='2238.7' y2='1687.0' style="stroke-width:8.0;stroke:rgb(150,150,150);stroke-linecap:round;fill:none;" />
<line x1='2197.0' y1='1776.9' x2='2208.2' y2='1781.3' style="stroke-width:8.0;stroke:rgb(150,150,150);stroke-linecap:round;fill:none;" />
<line x1='2155.2' y1='1865.0' x2='2165.7' y2='1870.8' style="stroke-width:8.0;stroke:rgb(150,150,150);stroke-linecap:round;fill:none;" />
<line x1='2102.3' y1='1947.0' x2='2111.9' y2='1954.1' style="stroke-width:8.0;stroke:rgb(150,150,150);stroke-linecap:round;fill:none;" />
<text x="2113.1" y="1972.4" font-size="41.6px" font-family="CMUBright-Roman" style="text-anchor:start;fill:rgb(150,150,150);" transform="rotate(36.6,2113.1,1972.4)" >2150 kb</text>
<line x1='2039.2' y1='2021.4' x2='2047.8' y2='2029.7' style="stroke-width:8.0;stroke:rgb(150,150,150);stroke-linecap:round;fill:none;" />
<line x1='1966.9' y1='2086.9' x2='1974.4' y2='2096.3' style="stroke-width:8.0;stroke:rgb(150,150,150);stroke-linecap:round;fill:none;" />
<line x1='1886.8' y1='2142.6' x2='1893.0' y2='2152.9' style="stroke-width:8.0;stroke:rgb(150,150,150);stroke-linecap:round;fill:none;" />
<line x1='1800.1' y1='2187.3' x2='1804.9' y2='2198.3' style="stroke-width:8.0;stroke:rgb(150,150,150);stroke-linecap:round;fill:none;" />
<line x1='1708.3' y1='2220.5' x2='1711.7' y2='2232.0' style="stroke-width:8.0;stroke:rgb(150,150,150);stroke-linecap:round;fill:none;" />
<text x="1701.5" y="2247.3" font-size="41.6px" font-family="CMUBright-Roman" style="text-anchor:start;fill:rgb(150,150,150);" transform="rotate(73.9,1701.5,2247.3)" >2200 kb</text>
<g id="highlighttrack_0">
<path d="M2030.219,1353.824 A550.000,550.000 40.000 0,1 2049.833,1513.549 L2249.772,1518.475 A750.000,750.000 0.000 0,0 2223.026,1300.669 Z" style="stroke-width:14.0;stroke:rgb(0,0,0);stroke-linecap:round;fill:rgb(255,38,78);" />
</g>
<path d="M1500.000,950.000 A550.000,550.000 40.000 0,1 1633.071,2033.659 L1681.460,2227.717 A750.000,750.000 0.000 0,0 1500.000,750.000 Z" style="stroke-width:2.0;stroke:rgb(0,0,0);stroke-linecap:round;fill:none;" />
<path d="M1419.895,2044.135 A550.000,550.000 40.000 0,1 1290.623,991.412 L1214.487,806.471 A750.000,750.000 0.000 0,0 1390.766,2242.003 Z" style="stroke-width:2.0;stroke:rgb(0,0,0);stroke-linecap:round;fill:rgb(179,177,178);" />
<text x="487.6" y="1624.3" font-size="46.8px" font-family="CMUBright-Roman" style="text-anchor:middle;fill:rgb(0,0,0);" transform="rotate(83.0,487.6,1624.3)" >HistocapCB186<tspan baseline-shift="-40%" font-size="90%">3</tspan></text>
<line x1='1357.2' y1='2236.3' x2='1354.9' y2='2248.1' style="stroke-width:8.0;stroke:rgb(150,150,150);stroke-linecap:round;fill:none;" />
<line x1='1262.8' y1='2211.5' x2='1259.0' y2='2222.9' style="stroke-width:8.0;stroke:rgb(150,150,150);stroke-linecap:round;fill:none;" />
<line x1='1172.4' y1='2174.7' x2='1167.2' y2='2185.5' style="stroke-width:8.0;stroke:rgb(150,150,150);stroke-linecap:round;fill:none;" />
<text x="1174.6" y="2202.3" font-size="41.6px" font-family="CMUBright-Roman" style="text-anchor:end;fill:rgb(150,150,150);" transform="rotate(-64.1,1174.6,2202.3)" >1750 kb</text>
<line x1='1087.6' y1='2126.5' x2='1081.0' y2='2136.5' style="stroke-width:8.0;stroke:rgb(150,150,150);stroke-linecap:round;fill:none;" />
<line x1='1009.8' y1='2067.6' x2='1002.0' y2='2076.7' style="stroke-width:8.0;stroke:rgb(150,150,150);stroke-linecap:round;fill:none;" />
<line x1='940.3' y1='1999.2' x2='931.3' y2='2007.2' style="stroke-width:8.0;stroke:rgb(150,150,150);stroke-linecap:round;fill:none;" />
<line x1='880.2' y1='1922.3' x2='870.3' y2='1929.1' style="stroke-width:8.0;stroke:rgb(150,150,150);stroke-linecap:round;fill:none;" />
<line x1='830.6' y1='1838.3' x2='819.9' y2='1843.7' style="stroke-width:8.0;stroke:rgb(150,150,150);stroke-linecap:round;fill:none;" />
<text x="815.6" y="1861.5" font-size="41.6px" font-family="CMUBright-Roman" style="text-anchor:end;fill:rgb(150,150,150);" transform="rotate(-26.8,815.6,1861.5)" >1800 kb</text>
<line x1='792.4' y1='1748.5' x2='781.0' y2='1752.5' style="stroke-width:8.0;stroke:rgb(150,150,150);stroke-linecap:round;fill:none;" />
<line x1='766.1' y1='1654.6' x2='754.4' y2='1657.0' style="stroke-width:8.0;stroke:rgb(150,150,150);stroke-linecap:round;fill:none;" />
<line x1='752.2' y1='1558.0' x2='740.3' y2='1558.9' style="stroke-width:8.0;stroke:rgb(150,150,150);stroke-linecap:round;fill:none;" />
<line x1='751.0' y1='1460.4' x2='739.1' y2='1459.8' style="stroke-width:8.0;stroke:rgb(150,150,150);stroke-linecap:round;fill:none;" />
<line x1='762.5' y1='1363.5' x2='750.7' y2='1361.4' style="stroke-width:8.0;stroke:rgb(150,150,150);stroke-linecap:round;fill:none;" />
<text x="736.5" y="1373.0" font-size="41.6px" font-family="CMUBright-Roman" style="text-anchor:end;fill:rgb(150,150,150);" transform="rotate(10.5,736.5,1373.0)" >1850 kb</text>
<line x1='786.5' y1='1269.0' x2='775.1' y2='1265.3' style="stroke-width:8.0;stroke:rgb(150,150,150);stroke-linecap:round;fill:none;" />
<line x1='822.5' y1='1178.3' x2='811.7' y2='1173.1' style="stroke-width:8.0;stroke:rgb(150,150,150);stroke-linecap:round;fill:none;" />
<line x1='870.0' y1='1093.1' x2='859.9' y2='1086.6' style="stroke-width:8.0;stroke:rgb(150,150,150);stroke-linecap:round;fill:none;" />
<line x1='928.2' y1='1014.7' x2='919.0' y2='1007.0' style="stroke-width:8.0;stroke:rgb(150,150,150);stroke-linecap:round;fill:none;" />
<line x1='996.0' y1='944.6' x2='987.9' y2='935.7' style="stroke-width:8.0;stroke:rgb(150,150,150);stroke-linecap:round;fill:none;" />
<text x="969.6" y="936.3" font-size="41.6px" font-family="CMUBright-Roman" style="text-anchor:end;fill:rgb(150,150,150);" transform="rotate(47.8,969.6,936.3)" >1900 kb</text>
<line x1='1072.3' y1='883.9' x2='1065.5' y2='874.0' style="stroke-width:8.0;stroke:rgb(150,150,150);stroke-linecap:round;fill:none;" />
<line x1='1155.9' y1='833.6' x2='1150.4' y2='822.9' style="stroke-width:8.0;stroke:rgb(150,150,150);stroke-linecap:round;fill:none;" />
<path d="M1419.895,2044.135 A550.000,550.000 40.000 0,1 1290.623,991.412 L1214.487,806.471 A750.000,750.000 0.000 0,0 1390.766,2242.003 Z" style="stroke-width:2.0;stroke:rgb(0,0,0);stroke-linecap:round;fill:none;" />
</g>
<g id="track_0">
<path d="M 1779.158,1941.675 A 522.500,522.500 0.00 0,1 1687.3,1987.8 L 1687.3,1987.8 1679.8,1968.8 1672.1,1950.0 1664.1,1931.5 1655.9,1913.5 1647.5,1896.1 1638.8,1879.4 1630.1,1863.4 1621.1,1848.4 1612.1,1834.4 1602.9,1821.4 1593.7,1809.6 1584.4,1798.9 1575.1,1789.5 1565.7,1781.5 1556.3,1774.8 1546.9,1769.5 1537.6,1765.6 1528.3,1763.2 1519.0,1762.2 1509.8,1762.7 1500.7,1764.7 1491.8,1768.1 1482.9,1773.0 1474.2,1779.3 1465.6,1787.0 1457.1,1796.0 1448.9,1806.4 1440.8,1818.0 1432.9,1830.7 1425.2,1844.6 1417.8,1859.6 1410.6,1875.5 1403.6,1892.3 1396.9,1909.9 1390.4,1928.1 1384.2,1946.9 1378.3,1966.1 1372.6,1985.7 1367.3,2005.4  A 522.500,522.500 0.00 0,1 1270.9,1969.6 L 1270.9,1969.6 1280.3,1950.9 1290.2,1932.3 1300.4,1914.1 1311.1,1896.3 1322.1,1879.1 1333.4,1862.5 1345.2,1846.7 1357.2,1831.7 1369.6,1817.6 1382.2,1804.5 1395.1,1792.4 1408.3,1781.4 1421.7,1771.6 1435.3,1762.9 1449.2,1755.6 1463.1,1749.4 1477.3,1744.6 1491.5,1741.2 1505.9,1739.0 1520.3,1738.2 1534.9,1738.8 1549.4,1740.7 1564.0,1743.9 1578.6,1748.4 1593.1,1754.3 1607.6,1761.3 1622.0,1769.6 1636.3,1779.1 1650.4,1789.7 1664.4,1801.4 1678.3,1814.0 1691.9,1827.6 1705.3,1842.1 1718.4,1857.3 1731.3,1873.2 1743.8,1889.7 1756.0,1906.7 1767.8,1924.1 1779.2,1941.7  Z" style="stroke-width: 0.5;  stroke: rgb(0,0,0); fill: rgb(179,177,178);" />
<path d="M 1933.046,1792.365 A 522.500,522.500 0.00 0,1 1885.9,1852.3 L 1885.9,1852.3 1869.3,1837.5 1852.3,1823.1 1834.8,1809.0 1816.9,1795.5 1798.6,1782.4 1779.9,1770.0 1760.9,1758.3 1741.6,1747.4 1722.1,1737.2 1702.3,1727.8 1682.2,1719.4 1662.0,1711.9 1641.6,1705.3 1621.1,1699.7 1600.5,1695.2 1579.8,1691.7 1559.0,1689.2 1538.3,1687.8 1517.5,1687.5 1496.7,1688.3 1476.0,1690.2 1455.4,1693.1 1434.9,1697.1 1414.5,1702.2 1394.3,1708.3 1374.3,1715.4 1354.4,1723.5 1334.8,1732.5 1315.5,1742.4 1296.5,1753.3 1277.7,1764.9 1259.3,1777.3 1241.3,1790.4 1223.6,1804.2 1206.3,1818.5 1189.5,1833.4 1173.1,1848.7 1157.2,1864.4 1141.8,1880.4  A 522.500,522.500 0.00 0,1 1090.3,1824.2 L 1090.3,1824.2 1108.4,1810.2 1127.0,1796.4 1146.1,1783.0 1165.7,1770.1 1185.6,1757.6 1205.9,1745.6 1226.6,1734.2 1247.6,1723.5 1268.9,1713.4 1290.6,1704.1 1312.4,1695.4 1334.6,1687.6 1356.9,1680.6 1379.5,1674.3 1402.2,1669.0 1425.1,1664.5 1448.1,1660.9 1471.1,1658.2 1494.3,1656.4 1517.5,1655.6 1540.7,1655.6 1563.9,1656.5 1587.1,1658.4 1610.3,1661.1 1633.3,1664.8 1656.3,1669.2 1679.1,1674.6 1701.8,1680.7 1724.3,1687.7 1746.5,1695.4 1768.6,1703.8 1790.3,1712.9 1811.8,1722.7 1833.0,1733.1 1853.8,1744.1 1874.2,1755.5 1894.3,1767.4 1913.9,1779.7 1933.0,1792.4  Z" style="stroke-width: 0.5;  stroke: rgb(0,0,0); fill: rgb(179,177,178);" />
<path d="M 1834.611,1901.300 A 522.500,522.500 0.00 0,1 1779.8,1941.2 L 1779.8,1941.2 1768.4,1923.6 1756.6,1906.3 1744.4,1889.3 1731.8,1872.8 1718.9,1857.0 1705.8,1841.7 1692.3,1827.3 1678.7,1813.7 1664.8,1801.1 1650.7,1789.4 1636.5,1778.8 1622.2,1769.3 1607.7,1761.0 1593.2,1754.0 1578.6,1748.1 1564.0,1743.6 1549.4,1740.4 1534.8,1738.5 1520.2,1737.9 1505.7,1738.7 1491.3,1740.9 1477.0,1744.3 1462.8,1749.1 1448.8,1755.2 1434.9,1762.6 1421.2,1771.2 1407.8,1781.0 1394.5,1792.0 1381.6,1804.0 1368.8,1817.2 1356.4,1831.2 1344.3,1846.2 1332.5,1862.0 1321.1,1878.6 1310.0,1895.8 1299.3,1913.6 1289.0,1931.7 1279.2,1950.3 1269.7,1969.0  A 522.500,522.500 0.00 0,1 1210.9,1935.2 L 1210.9,1935.2 1223.0,1917.5 1235.6,1900.0 1248.6,1882.8 1262.1,1866.1 1276.0,1849.9 1290.4,1834.3 1305.1,1819.5 1320.1,1805.4 1335.5,1792.2 1351.2,1779.8 1367.2,1768.5 1383.5,1758.2 1400.0,1748.9 1416.7,1740.8 1433.7,1733.7 1450.8,1727.9 1468.1,1723.3 1485.5,1719.8 1503.0,1717.7 1520.6,1716.7 1538.3,1717.0 1555.9,1718.5 1573.6,1721.2 1591.3,1725.2 1608.9,1730.3 1626.4,1736.6 1643.8,1744.0 1661.1,1752.5 1678.3,1762.0 1695.2,1772.6 1712.0,1784.1 1728.5,1796.4 1744.7,1809.6 1760.6,1823.5 1776.2,1838.1 1791.4,1853.3 1806.2,1868.9 1820.7,1885.0 1834.6,1901.3  Z" style="stroke-width: 0.5;  stroke: rgb(0,0,0); fill: rgb(179,177,178);" />
<path d="M 1996.151,1663.831 A 522.500,522.500 0.00 0,1 1970.9,1726.3 L 1970.9,1726.3 1949.4,1716.2 1927.4,1706.4 1905.1,1696.9 1882.5,1687.9 1859.5,1679.3 1836.2,1671.1 1812.6,1663.5 1788.8,1656.4 1764.8,1649.9 1740.5,1643.9 1716.1,1638.6 1691.5,1633.9 1666.8,1629.9 1641.9,1626.5 1616.9,1623.8 1591.9,1621.8 1566.8,1620.5 1541.7,1619.9 1516.6,1620.0 1491.5,1620.9 1466.4,1622.4 1441.4,1624.7 1416.5,1627.7 1391.6,1631.3 1366.9,1635.7 1342.3,1640.7 1317.9,1646.4 1293.7,1652.8 1269.7,1659.7 1245.9,1667.3 1222.3,1675.4 1199.0,1684.1 1176.0,1693.3 1153.3,1703.0 1131.0,1713.1 1109.0,1723.6 1087.3,1734.6 1066.1,1745.8 1045.3,1757.4  A 522.500,522.500 0.00 0,1 1015.9,1696.7 L 1015.9,1696.7 1038.8,1687.6 1062.0,1678.8 1085.5,1670.2 1109.2,1661.9 1133.3,1654.0 1157.6,1646.4 1182.2,1639.3 1206.9,1632.5 1231.9,1626.1 1257.1,1620.2 1282.5,1614.7 1308.0,1609.7 1333.7,1605.2 1359.5,1601.2 1385.4,1597.7 1411.4,1594.7 1437.5,1592.3 1463.7,1590.3 1489.9,1588.9 1516.1,1588.0 1542.3,1587.7 1568.5,1587.9 1594.7,1588.6 1620.9,1589.8 1647.0,1591.6 1673.0,1593.9 1698.9,1596.6 1724.7,1599.9 1750.4,1603.6 1775.9,1607.9 1801.3,1612.5 1826.5,1617.6 1851.4,1623.2 1876.2,1629.1 1900.7,1635.4 1925.0,1642.0 1949.0,1649.0 1972.7,1656.3 1996.2,1663.8  Z" style="stroke-width: 0.5;  stroke: rgb(0,0,0); fill: rgb(179,177,178);" />
<path d="M 1885.819,1852.349 A 522.500,522.500 0.00 0,1 1840.1,1896.7 L 1840.1,1896.7 1825.8,1880.4 1811.1,1864.5 1795.9,1848.9 1780.4,1833.9 1764.4,1819.4 1748.1,1805.5 1731.5,1792.4 1714.6,1780.1 1697.4,1768.6 1680.0,1758.1 1662.4,1748.6 1644.6,1740.0 1626.7,1732.5 1608.7,1726.2 1590.5,1720.9 1572.3,1716.8 1554.0,1713.9 1535.7,1712.2 1517.4,1711.8 1499.2,1712.5 1481.0,1714.4 1462.9,1717.5 1444.9,1721.8 1427.1,1727.3 1409.4,1734.0 1391.9,1741.7 1374.6,1750.6 1357.5,1760.5 1340.7,1771.4 1324.2,1783.3 1308.0,1796.0 1292.1,1809.6 1276.5,1824.0 1261.4,1839.1 1246.6,1854.8 1232.3,1871.0 1218.4,1887.7 1205.0,1904.8 1192.0,1922.1  A 522.500,522.500 0.00 0,1 1142.9,1881.5 L 1142.9,1881.5 1158.3,1865.4 1174.1,1849.7 1190.5,1834.4 1207.3,1819.4 1224.5,1805.0 1242.1,1791.2 1260.1,1778.1 1278.4,1765.6 1297.1,1753.9 1316.1,1743.1 1335.4,1733.1 1355.0,1724.0 1374.8,1715.9 1394.8,1708.8 1415.0,1702.7 1435.3,1697.6 1455.8,1693.5 1476.4,1690.5 1497.0,1688.6 1517.7,1687.8 1538.5,1688.1 1559.2,1689.5 1580.0,1691.9 1600.6,1695.4 1621.2,1699.9 1641.7,1705.5 1662.1,1712.0 1682.3,1719.5 1702.3,1728.0 1722.1,1737.3 1741.7,1747.5 1760.9,1758.4 1779.9,1770.1 1798.6,1782.5 1816.8,1795.5 1834.7,1809.1 1852.2,1823.1 1869.3,1837.6 1885.8,1852.3  Z" style="stroke-width: 0.5;  stroke: rgb(0,0,0); fill: rgb(179,177,178);" />
<path d="M 1958.136,1751.233 A 522.500,522.500 0.00 0,1 1934.0,1791.0 L 1934.0,1791.0 1914.7,1778.4 1895.1,1766.2 1875.0,1754.3 1854.5,1742.9 1833.6,1732.0 1812.4,1721.7 1790.9,1711.9 1769.1,1702.8 1747.0,1694.4 1724.7,1686.8 1702.2,1679.9 1679.4,1673.7 1656.6,1668.4 1633.6,1664.0 1610.5,1660.4 1587.3,1657.7 1564.1,1655.8 1540.8,1654.9 1517.5,1654.9 1494.3,1655.7 1471.1,1657.5 1447.9,1660.2 1424.9,1663.8 1402.0,1668.3 1379.2,1673.6 1356.6,1679.8 1334.2,1686.8 1312.1,1694.7 1290.1,1703.2 1268.4,1712.6 1247.1,1722.6 1226.0,1733.3 1205.3,1744.7 1184.9,1756.6 1164.9,1769.0 1145.4,1782.0 1126.2,1795.3 1107.5,1809.0 1089.3,1823.0  A 522.500,522.500 0.00 0,1 1062.2,1785.2 L 1062.2,1785.2 1082.0,1772.6 1102.2,1760.3 1122.9,1748.3 1144.0,1736.7 1165.4,1725.6 1187.2,1714.9 1209.3,1704.8 1231.8,1695.2 1254.5,1686.2 1277.5,1677.9 1300.7,1670.2 1324.2,1663.2 1347.9,1656.9 1371.7,1651.3 1395.7,1646.5 1419.9,1642.4 1444.1,1639.1 1468.5,1636.6 1492.9,1634.9 1517.3,1634.0 1541.8,1633.8 1566.2,1634.5 1590.7,1635.9 1615.1,1638.2 1639.4,1641.2 1663.6,1644.9 1687.6,1649.4 1711.6,1654.6 1735.3,1660.5 1758.9,1667.1 1782.3,1674.3 1805.4,1682.2 1828.2,1690.6 1850.7,1699.6 1872.9,1709.1 1894.8,1719.0 1916.3,1729.4 1937.4,1740.1 1958.1,1751.2  Z" style="stroke-width: 0.5;  stroke: rgb(0,0,0); fill: rgb(179,177,178);" />
<path d="M 2011.655,1605.904 A 522.500,522.500 0.00 0,1 2002.6,1642.7 L 2002.6,1642.7 1978.7,1636.0 1954.4,1629.6 1929.9,1623.5 1905.2,1617.7 1880.2,1612.2 1855.1,1607.0 1829.7,1602.2 1804.1,1597.8 1778.4,1593.7 1752.5,1590.1 1726.5,1586.8 1700.4,1584.0 1674.2,1581.6 1647.9,1579.7 1621.6,1578.2 1595.1,1577.2 1568.7,1576.6 1542.2,1576.5 1515.7,1576.9 1489.2,1577.7 1462.7,1579.0 1436.3,1580.8 1409.9,1583.0 1383.6,1585.7 1357.4,1588.9 1331.3,1592.5 1305.3,1596.5 1279.4,1601.0 1253.6,1605.8 1228.1,1611.1 1202.7,1616.8 1177.4,1622.8 1152.4,1629.2 1127.6,1636.0 1103.0,1643.1 1078.7,1650.4 1054.7,1658.1 1030.9,1666.0 1007.4,1674.1  A 522.500,522.500 0.00 0,1 996.1,1638.0 L 996.1,1638.0 1020.5,1631.4 1045.2,1625.1 1070.1,1618.9 1095.2,1613.0 1120.5,1607.3 1146.0,1601.8 1171.6,1596.7 1197.4,1591.8 1223.4,1587.2 1249.5,1582.9 1275.7,1578.9 1302.0,1575.3 1328.4,1572.0 1355.0,1569.0 1381.6,1566.4 1408.2,1564.1 1434.9,1562.2 1461.7,1560.6 1488.5,1559.4 1515.3,1558.6 1542.1,1558.1 1568.9,1558.0 1595.7,1558.2 1622.4,1558.8 1649.1,1559.7 1675.8,1561.0 1702.3,1562.6 1728.9,1564.6 1755.3,1566.9 1781.6,1569.5 1807.8,1572.5 1833.8,1575.7 1859.8,1579.3 1885.5,1583.1 1911.1,1587.2 1936.6,1591.5 1961.8,1596.1 1986.8,1600.9 2011.7,1605.9  Z" style="stroke-width: 0.5;  stroke: rgb(0,0,0); fill: rgb(179,177,178);" />
<path d="M 1971.319,1725.533 A 522.500,522.500 0.00 0,1 1958.1,1751.3 L 1958.1,1751.3 1937.4,1740.2 1916.3,1729.4 1894.8,1719.0 1872.9,1709.0 1850.6,1699.5 1828.1,1690.5 1805.2,1682.1 1782.1,1674.2 1758.8,1667.0 1735.2,1660.3 1711.4,1654.4 1687.4,1649.2 1663.3,1644.6 1639.1,1640.8 1614.8,1637.8 1590.4,1635.5 1565.9,1634.0 1541.4,1633.3 1516.9,1633.4 1492.4,1634.2 1468.0,1635.9 1443.6,1638.3 1419.3,1641.5 1395.1,1645.5 1371.1,1650.2 1347.2,1655.7 1323.5,1661.9 1299.9,1668.8 1276.6,1676.4 1253.6,1684.7 1230.8,1693.5 1208.3,1703.0 1186.1,1713.0 1164.2,1723.6 1142.7,1734.6 1121.5,1746.1 1100.8,1758.0 1080.5,1770.2 1060.6,1782.7  A 522.500,522.500 0.00 0,1 1045.6,1758.0 L 1045.6,1758.0 1066.4,1746.4 1087.7,1735.1 1109.3,1724.2 1131.3,1713.6 1153.6,1703.4 1176.3,1693.7 1199.3,1684.5 1222.5,1675.8 1246.1,1667.6 1269.9,1660.0 1293.9,1653.0 1318.1,1646.6 1342.5,1640.9 1367.1,1635.9 1391.8,1631.5 1416.6,1627.7 1441.6,1624.7 1466.6,1622.4 1491.7,1620.8 1516.8,1620.0 1541.9,1619.8 1567.0,1620.3 1592.1,1621.6 1617.1,1623.6 1642.1,1626.2 1667.0,1629.6 1691.7,1633.6 1716.3,1638.2 1740.8,1643.5 1765.0,1649.4 1789.1,1655.9 1812.9,1663.0 1836.5,1670.6 1859.8,1678.7 1882.8,1687.3 1905.4,1696.3 1927.8,1705.7 1949.7,1715.4 1971.3,1725.5  Z" style="stroke-width: 0.5;  stroke: rgb(0,0,0); fill: rgb(179,177,178);" />
<path d="M 1965.868,1263.413 A 522.500,522.500 0.00 0,1 1976.7,1286.1 L 1976.7,1286.1 1953.2,1296.5 1929.5,1306.8 1905.6,1317.1 1881.5,1327.1 1857.3,1337.1 1832.8,1346.8 1808.2,1356.4 1783.5,1365.8 1758.5,1375.0 1733.5,1384.1 1708.3,1392.9 1682.9,1401.5 1657.5,1409.8 1631.9,1418.0 1606.2,1425.9 1580.4,1433.6 1554.5,1441.0 1528.5,1448.2 1502.5,1455.1 1476.3,1461.8 1450.1,1468.2 1423.9,1474.3 1397.6,1480.2 1371.3,1485.8 1345.0,1491.2 1318.6,1496.3 1292.2,1501.2 1265.9,1505.8 1239.5,1510.1 1213.2,1514.2 1186.9,1518.1 1160.7,1521.7 1134.5,1525.0 1108.4,1528.2 1082.3,1531.1 1056.3,1533.8 1030.5,1536.3 1004.7,1538.6 979.1,1540.7  A 522.500,522.500 0.00 0,1 977.7,1515.6 L 977.7,1515.6 1003.1,1514.7 1028.7,1513.6 1054.4,1512.3 1080.2,1510.6 1106.1,1508.8 1132.2,1506.6 1158.3,1504.1 1184.5,1501.4 1210.7,1498.3 1237.0,1494.9 1263.3,1491.2 1289.6,1487.2 1316.0,1482.9 1342.3,1478.2 1368.6,1473.3 1394.9,1467.9 1421.1,1462.3 1447.3,1456.3 1473.4,1450.0 1499.4,1443.3 1525.3,1436.4 1551.2,1429.1 1576.9,1421.5 1602.5,1413.6 1628.0,1405.3 1653.3,1396.8 1678.5,1388.0 1703.6,1378.9 1728.4,1369.5 1753.1,1359.9 1777.6,1350.0 1801.9,1339.9 1826.0,1329.5 1849.9,1318.9 1873.5,1308.2 1897.0,1297.2 1920.2,1286.1 1943.2,1274.8 1965.9,1263.4  Z" style="stroke-width: 0.5;  stroke: rgb(0,0,0); fill: rgb(179,177,178);" />
<path d="M 2021.411,1533.724 A 522.500,522.500 0.00 0,1 2019.3,1557.7 L 2019.3,1557.7 1993.7,1554.9 1967.9,1552.3 1941.9,1549.8 1915.9,1547.6 1889.7,1545.5 1863.4,1543.6 1837.0,1541.9 1810.5,1540.4 1784.0,1539.2 1757.3,1538.1 1730.6,1537.3 1703.8,1536.7 1677.0,1536.3 1650.1,1536.2 1623.2,1536.3 1596.3,1536.6 1569.3,1537.2 1542.4,1538.1 1515.4,1539.2 1488.5,1540.5 1461.6,1542.1 1434.7,1543.9 1407.8,1545.9 1381.0,1548.2 1354.2,1550.8 1327.4,1553.6 1300.8,1556.6 1274.2,1559.8 1247.7,1563.3 1221.3,1566.9 1195.0,1570.8 1168.8,1574.9 1142.7,1579.2 1116.7,1583.7 1090.8,1588.3 1065.1,1593.2 1039.6,1598.1 1014.2,1603.3 988.9,1608.6  A 522.500,522.500 0.00 0,1 984.5,1584.9 L 984.5,1584.9 1010.2,1580.8 1036.1,1576.7 1062.0,1572.7 1088.1,1568.9 1114.3,1565.2 1140.6,1561.6 1166.9,1558.1 1193.4,1554.8 1219.9,1551.7 1246.4,1548.6 1273.1,1545.8 1299.8,1543.1 1326.6,1540.6 1353.4,1538.2 1380.2,1536.0 1407.1,1534.0 1434.0,1532.1 1461.0,1530.4 1487.9,1528.9 1514.9,1527.6 1541.9,1526.4 1568.8,1525.5 1595.8,1524.6 1622.7,1524.0 1649.7,1523.6 1676.6,1523.3 1703.5,1523.2 1730.3,1523.2 1757.1,1523.4 1783.9,1523.8 1810.6,1524.3 1837.2,1525.0 1863.8,1525.8 1890.3,1526.8 1916.7,1527.9 1943.0,1529.2 1969.2,1530.6 1995.4,1532.1 2021.4,1533.7  Z" style="stroke-width: 0.5;  stroke: rgb(0,0,0); fill: rgb(179,177,178);" />
<path d="M 2002.588,1642.870 A 522.500,522.500 0.00 0,1 1995.9,1664.6 L 1995.9,1664.6 1972.5,1657.1 1948.8,1649.7 1924.8,1642.7 1900.5,1636.0 1876.0,1629.7 1851.3,1623.7 1826.3,1618.2 1801.1,1613.0 1775.7,1608.3 1750.2,1604.1 1724.5,1600.3 1698.7,1597.0 1672.8,1594.2 1646.8,1591.8 1620.7,1590.0 1594.6,1588.8 1568.4,1588.0 1542.2,1587.8 1515.9,1588.1 1489.7,1588.9 1463.5,1590.3 1437.4,1592.2 1411.3,1594.6 1385.3,1597.6 1359.4,1601.1 1333.6,1605.0 1307.9,1609.5 1282.3,1614.5 1257.0,1619.9 1231.8,1625.8 1206.8,1632.1 1182.0,1638.8 1157.4,1646.0 1133.1,1653.5 1109.0,1661.4 1085.2,1669.7 1061.7,1678.2 1038.5,1687.0 1015.7,1696.1  A 522.500,522.500 0.00 0,1 1007.6,1674.8 L 1007.6,1674.8 1031.1,1666.6 1054.9,1658.7 1078.9,1651.0 1103.2,1643.6 1127.8,1636.5 1152.6,1629.7 1177.6,1623.3 1202.8,1617.2 1228.2,1611.5 1253.8,1606.2 1279.5,1601.3 1305.4,1596.8 1331.4,1592.8 1357.5,1589.2 1383.7,1586.0 1410.0,1583.3 1436.4,1581.1 1462.8,1579.3 1489.2,1578.0 1515.7,1577.1 1542.2,1576.7 1568.7,1576.8 1595.2,1577.4 1621.6,1578.4 1647.9,1579.9 1674.2,1581.8 1700.4,1584.2 1726.6,1587.0 1752.5,1590.2 1778.4,1593.9 1804.1,1597.9 1829.7,1602.4 1855.0,1607.2 1880.2,1612.4 1905.2,1617.9 1929.9,1623.7 1954.4,1629.8 1978.6,1636.2 2002.6,1642.9  Z" style="stroke-width: 0.5;  stroke: rgb(0,0,0); fill: rgb(179,177,178);" />
<path d="M 1997.540,1340.438 A 522.500,522.500 0.00 0,1 2003.7,1361.1 L 2003.7,1361.1 1978.3,1368.1 1952.8,1375.0 1927.3,1381.8 1901.6,1388.6 1875.9,1395.3 1850.1,1401.9 1824.2,1408.5 1798.3,1414.9 1772.3,1421.3 1746.3,1427.6 1720.2,1433.7 1694.0,1439.8 1667.8,1445.8 1641.5,1451.7 1615.2,1457.5 1588.9,1463.1 1562.5,1468.7 1536.1,1474.2 1509.7,1479.5 1483.2,1484.7 1456.8,1489.8 1430.3,1494.9 1403.8,1499.8 1377.2,1504.5 1350.7,1509.2 1324.2,1513.8 1297.7,1518.2 1271.2,1522.5 1244.7,1526.8 1218.2,1530.9 1191.8,1534.9 1165.3,1538.8 1138.9,1542.6 1112.6,1546.3 1086.2,1549.9 1059.9,1553.4 1033.7,1556.8 1007.5,1560.1 981.4,1563.3  A 522.500,522.500 0.00 0,1 979.2,1541.9 L 979.2,1541.9 1005.2,1539.7 1031.2,1537.4 1057.4,1535.0 1083.6,1532.5 1109.9,1529.7 1136.3,1526.9 1162.7,1523.9 1189.1,1520.7 1215.6,1517.4 1242.2,1513.9 1268.7,1510.2 1295.3,1506.4 1321.8,1502.3 1348.4,1498.2 1375.0,1493.8 1401.6,1489.3 1428.2,1484.5 1454.7,1479.7 1481.2,1474.6 1507.7,1469.3 1534.1,1463.9 1560.6,1458.4 1586.9,1452.6 1613.2,1446.7 1639.5,1440.6 1665.6,1434.3 1691.7,1427.9 1717.8,1421.4 1743.7,1414.7 1769.6,1407.8 1795.3,1400.8 1821.0,1393.7 1846.6,1386.4 1872.0,1379.0 1897.4,1371.5 1922.6,1363.9 1947.7,1356.2 1972.7,1348.3 1997.5,1340.4  Z" style="stroke-width: 0.5;  stroke: rgb(0,0,0); fill: rgb(179,177,178);" />
<path d="M 2022.341,1512.871 A 522.500,522.500 0.00 0,1 2021.5,1532.4 L 2021.5,1532.4 1995.4,1530.8 1969.3,1529.4 1943.0,1528.1 1916.7,1526.9 1890.3,1525.8 1863.8,1524.9 1837.2,1524.1 1810.5,1523.4 1783.8,1522.9 1757.1,1522.6 1730.3,1522.4 1703.4,1522.4 1676.5,1522.5 1649.6,1522.8 1622.7,1523.3 1595.7,1523.9 1568.8,1524.8 1541.8,1525.7 1514.8,1526.9 1487.9,1528.2 1460.9,1529.7 1434.0,1531.4 1407.1,1533.2 1380.2,1535.2 1353.3,1537.4 1326.5,1539.7 1299.7,1542.2 1273.0,1544.9 1246.4,1547.7 1219.8,1550.6 1193.3,1553.8 1166.8,1557.0 1140.4,1560.4 1114.2,1563.9 1088.0,1567.6 1061.9,1571.4 1035.9,1575.3 1010.0,1579.3 984.2,1583.4  A 522.500,522.500 0.00 0,1 981.4,1564.0 L 981.4,1564.0 1007.6,1560.8 1033.8,1557.7 1060.1,1554.7 1086.4,1551.7 1112.9,1548.8 1139.3,1546.0 1165.9,1543.3 1192.5,1540.7 1219.1,1538.2 1245.8,1535.8 1272.5,1533.5 1299.3,1531.3 1326.1,1529.2 1352.9,1527.2 1379.8,1525.3 1406.7,1523.5 1433.6,1521.9 1460.5,1520.3 1487.4,1518.9 1514.4,1517.6 1541.3,1516.3 1568.2,1515.2 1595.2,1514.3 1622.1,1513.4 1649.0,1512.6 1675.9,1512.0 1702.8,1511.5 1729.6,1511.0 1756.5,1510.7 1783.3,1510.5 1810.0,1510.4 1836.8,1510.4 1863.4,1510.5 1890.1,1510.6 1916.6,1510.9 1943.2,1511.3 1969.6,1511.7 1996.0,1512.3 2022.3,1512.9  Z" style="stroke-width: 0.5;  stroke: rgb(0,0,0); fill: rgb(179,177,178);" />
<path d="M 2016.967,1575.840 A 522.500,522.500 0.00 0,1 2014.0,1593.8 L 2014.0,1593.8 1988.9,1589.3 1963.7,1585.1 1938.2,1581.0 1912.6,1577.2 1886.8,1573.5 1860.9,1570.2 1834.8,1567.1 1808.6,1564.2 1782.3,1561.7 1755.9,1559.4 1729.4,1557.4 1702.8,1555.7 1676.1,1554.4 1649.4,1553.3 1622.6,1552.6 1595.8,1552.1 1568.9,1552.0 1542.0,1552.3 1515.2,1552.8 1488.3,1553.7 1461.4,1554.9 1434.6,1556.4 1407.8,1558.2 1381.1,1560.4 1354.4,1562.9 1327.8,1565.7 1301.3,1568.8 1274.8,1572.2 1248.5,1575.9 1222.3,1579.9 1196.2,1584.1 1170.2,1588.7 1144.4,1593.5 1118.8,1598.5 1093.3,1603.8 1067.9,1609.3 1042.8,1615.0 1017.9,1620.9 993.2,1626.9  A 522.500,522.500 0.00 0,1 989.0,1609.2 L 989.0,1609.2 1014.2,1604.0 1039.5,1598.8 1065.0,1593.9 1090.6,1589.1 1116.4,1584.5 1142.3,1580.1 1168.4,1576.0 1194.5,1572.0 1220.8,1568.3 1247.2,1564.8 1273.7,1561.6 1300.3,1558.6 1326.9,1555.8 1353.7,1553.3 1380.4,1551.1 1407.3,1549.1 1434.1,1547.4 1461.0,1546.0 1488.0,1544.9 1514.9,1544.0 1541.9,1543.4 1568.8,1543.1 1595.7,1543.0 1622.6,1543.2 1649.5,1543.7 1676.3,1544.5 1703.1,1545.5 1729.8,1546.7 1756.5,1548.3 1783.0,1550.0 1809.5,1552.0 1835.9,1554.3 1862.1,1556.8 1888.3,1559.4 1914.3,1562.3 1940.2,1565.4 1966.0,1568.7 1991.5,1572.2 2017.0,1575.8  Z" style="stroke-width: 0.5;  stroke: rgb(0,0,0); fill: rgb(179,177,178);" />
<path d="M 1682.112,1989.736 A 522.500,522.500 0.00 0,1 1668.9,1994.5 L 1668.9,1994.5 1662.2,1975.3 1655.2,1956.2 1648.0,1937.6 1640.6,1919.3 1633.1,1901.7 1625.3,1884.7 1617.4,1868.6 1609.4,1853.3 1601.3,1839.1 1593.1,1825.9 1584.8,1813.9 1576.4,1803.0 1568.1,1793.5 1559.7,1785.3 1551.3,1778.4 1542.9,1773.0 1534.5,1769.0 1526.2,1766.5 1517.9,1765.4 1509.7,1765.8 1501.6,1767.7 1493.5,1771.1 1485.6,1776.0 1477.8,1782.2 1470.2,1789.9 1462.7,1799.0 1455.3,1809.3 1448.1,1820.9 1441.1,1833.8 1434.3,1847.7 1427.7,1862.8 1421.3,1878.8 1415.2,1895.6 1409.2,1913.3 1403.5,1931.6 1398.0,1950.5 1392.8,1969.8 1387.9,1989.5 1383.2,2009.3  A 522.500,522.500 0.00 0,1 1369.5,2005.9 L 1369.5,2005.9 1374.8,1986.2 1380.3,1966.7 1386.1,1947.4 1392.2,1928.6 1398.5,1910.4 1405.1,1892.8 1412.0,1876.0 1419.1,1860.1 1426.4,1845.2 1433.9,1831.3 1441.6,1818.5 1449.5,1806.9 1457.6,1796.6 1465.9,1787.6 1474.3,1779.9 1482.8,1773.6 1491.5,1768.8 1500.3,1765.4 1509.2,1763.5 1518.1,1763.0 1527.2,1764.0 1536.3,1766.5 1545.4,1770.4 1554.6,1775.8 1563.7,1782.5 1572.8,1790.6 1582.0,1800.1 1591.0,1810.8 1600.0,1822.7 1608.9,1835.7 1617.8,1849.8 1626.4,1864.9 1635.0,1880.9 1643.4,1897.7 1651.6,1915.2 1659.6,1933.3 1667.3,1951.8 1674.9,1970.7 1682.1,1989.7  Z" style="stroke-width: 0.5;  stroke: rgb(0,0,0); fill: rgb(179,177,178);" />
<path d="M 1660.543,1997.224 A 522.500,522.500 0.00 0,1 1648.7,2000.9 L 1648.7,2000.9 1642.8,1981.5 1636.7,1962.3 1630.4,1943.4 1623.9,1924.9 1617.2,1907.1 1610.4,1889.9 1603.4,1873.5 1596.4,1858.0 1589.2,1843.6 1582.0,1830.2 1574.7,1817.9 1567.3,1806.9 1559.9,1797.2 1552.5,1788.8 1545.1,1781.8 1537.7,1776.2 1530.3,1772.0 1523.0,1769.4 1515.7,1768.2 1508.4,1768.5 1501.3,1770.3 1494.2,1773.7 1487.2,1778.4 1480.3,1784.7 1473.6,1792.3 1466.9,1801.3 1460.5,1811.7 1454.1,1823.3 1447.9,1836.2 1441.9,1850.2 1436.1,1865.2 1430.5,1881.3 1425.0,1898.2 1419.8,1915.9 1414.7,1934.3 1409.9,1953.3 1405.3,1972.7 1401.0,1992.4 1396.8,2012.2  A 522.500,522.500 0.00 0,1 1384.7,2009.6 L 1384.7,2009.6 1389.3,1989.8 1394.2,1970.2 1399.3,1950.9 1404.7,1932.0 1410.3,1913.7 1416.1,1896.0 1422.1,1879.2 1428.4,1863.2 1434.8,1848.2 1441.5,1834.2 1448.3,1821.4 1455.3,1809.8 1462.4,1799.5 1469.7,1790.5 1477.2,1782.9 1484.7,1776.6 1492.4,1771.9 1500.2,1768.5 1508.0,1766.7 1515.9,1766.3 1523.9,1767.5 1532.0,1770.1 1540.0,1774.2 1548.1,1779.7 1556.2,1786.6 1564.3,1794.9 1572.3,1804.6 1580.3,1815.5 1588.2,1827.6 1596.1,1840.9 1603.9,1855.3 1611.5,1870.6 1619.1,1886.9 1626.5,1904.0 1633.7,1921.7 1640.7,1940.0 1647.6,1958.8 1654.2,1977.9 1660.5,1997.2  Z" style="stroke-width: 0.5;  stroke: rgb(0,0,0); fill: rgb(179,177,178);" />
<path d="M 2013.982,1593.960 A 522.500,522.500 0.00 0,1 2012.1,1603.8 L 2012.1,1603.8 1987.2,1598.9 1962.2,1594.2 1936.9,1589.7 1911.4,1585.5 1885.8,1581.5 1860.0,1577.7 1834.1,1574.3 1808.0,1571.1 1781.8,1568.3 1755.4,1565.7 1729.0,1563.5 1702.5,1561.6 1675.9,1560.0 1649.2,1558.8 1622.5,1557.9 1595.7,1557.4 1568.9,1557.2 1542.1,1557.3 1515.3,1557.9 1488.5,1558.8 1461.7,1560.0 1435.0,1561.6 1408.2,1563.5 1381.6,1565.8 1355.0,1568.5 1328.5,1571.5 1302.0,1574.8 1275.7,1578.4 1249.5,1582.4 1223.4,1586.7 1197.4,1591.3 1171.6,1596.1 1145.9,1601.3 1120.4,1606.7 1095.1,1612.4 1070.0,1618.3 1045.1,1624.5 1020.4,1630.8 995.9,1637.4  A 522.500,522.500 0.00 0,1 993.3,1627.6 L 993.3,1627.6 1018.0,1621.5 1043.0,1615.6 1068.1,1609.8 1093.4,1604.3 1118.9,1599.0 1144.5,1593.9 1170.3,1589.1 1196.3,1584.6 1222.4,1580.3 1248.6,1576.3 1274.9,1572.6 1301.3,1569.1 1327.9,1566.0 1354.5,1563.2 1381.1,1560.7 1407.9,1558.5 1434.7,1556.6 1461.5,1555.1 1488.3,1553.9 1515.2,1553.0 1542.1,1552.4 1568.9,1552.2 1595.8,1552.3 1622.6,1552.7 1649.4,1553.5 1676.1,1554.5 1702.8,1555.9 1729.4,1557.6 1755.9,1559.5 1782.3,1561.8 1808.6,1564.4 1834.8,1567.2 1860.9,1570.3 1886.8,1573.7 1912.6,1577.3 1938.2,1581.1 1963.7,1585.2 1988.9,1589.5 2014.0,1594.0  Z" style="stroke-width: 0.5;  stroke: rgb(0,0,0); fill: rgb(179,177,178);" />
<path d="M 1956.100,1245.090 A 522.500,522.500 0.00 0,1 1959.9,1251.9 L 1959.9,1251.9 1938.2,1263.4 1916.2,1274.6 1893.9,1285.6 1871.2,1296.3 1848.3,1306.7 1825.0,1316.7 1801.4,1326.3 1777.5,1335.6 1753.4,1344.4 1729.0,1352.8 1704.5,1360.7 1679.7,1368.1 1654.7,1375.1 1629.5,1381.5 1604.1,1387.5 1578.7,1392.9 1553.0,1397.7 1527.3,1402.0 1501.5,1405.8 1475.6,1409.0 1449.6,1411.6 1423.6,1413.7 1397.6,1415.3 1371.6,1416.2 1345.6,1416.7 1319.6,1416.5 1293.6,1415.9 1267.8,1414.7 1242.0,1413.0 1216.3,1410.8 1190.8,1408.1 1165.4,1405.0 1140.2,1401.4 1115.1,1397.4 1090.3,1392.9 1065.7,1388.1 1041.4,1382.9 1017.3,1377.3 993.6,1371.5  A 522.500,522.500 0.00 0,1 995.5,1363.9 L 995.5,1363.9 1019.1,1370.1 1043.0,1375.9 1067.2,1381.5 1091.6,1386.6 1116.3,1391.3 1141.2,1395.6 1166.3,1399.5 1191.6,1402.9 1217.0,1405.8 1242.5,1408.2 1268.2,1410.1 1294.0,1411.5 1319.8,1412.3 1345.7,1412.6 1371.6,1412.2 1397.5,1411.4 1423.4,1409.9 1449.3,1407.9 1475.2,1405.3 1501.0,1402.1 1526.7,1398.3 1552.3,1394.0 1577.8,1389.1 1603.2,1383.6 1628.4,1377.6 1653.4,1371.0 1678.3,1364.0 1702.9,1356.4 1727.3,1348.3 1751.5,1339.7 1775.5,1330.7 1799.1,1321.2 1822.5,1311.4 1845.6,1301.1 1868.4,1290.5 1890.9,1279.6 1913.0,1268.3 1934.7,1256.8 1956.1,1245.1  Z" style="stroke-width: 0.5;  stroke: rgb(0,0,0); fill: rgb(179,177,178);" />
</g>
<g id="plot0">
<g id="plot0-axis">
</g>
<line x1='2243.7' y1='1597.1' x2='2243.7' y2='1597.1' style="stroke-width:14.0;stroke:rgb(0,0,0);stroke-linecap:round;fill:none;" />
<line x1='2243.7' y1='1597.1' x2='2283.3' y2='1602.3' style="stroke-width:14.0;stroke:rgb(0,0,0);stroke-linecap:round;fill:none;" />
<line x1='2283.3' y1='1602.3' x2='2283.3' y2='1602.3' style="stroke-width:14.0;stroke:rgb(0,0,0);stroke-linecap:round;fill:none;" />
<text x="2300.0" y="1626.7" font-size="46.8px" font-family="CMUBright-Roman" style="text-anchor:start;fill:rgb(255,38,78);" transform="rotate(7.4,2300.0,1626.7)" >HistomissWU24<tspan baseline-shift="-40%" font-size="90%">s</tspan>02734</text>
</g>
<defs>
<pattern id="vline-sparse" width="10" height="10" patternTransform="rotate(0 0 0)" patternUnits="userSpaceOnUse"><line x1="0" y1="0" x2="0" y2="10" style="stroke:black;stroke-width:2" /></pattern>
<pattern id="hline" width="10" height="10" patternTransform="rotate(0 0 0)" patternUnits="userSpaceOnUse"><line x1="0" y1="0" x2="10" y2="0" style="stroke:black;stroke-width:5" /></pattern>
<pattern id="vline" width="10" height="10" patternTransform="rotate(0 0 0)" patternUnits="userSpaceOnUse"><line x1="0" y1="0" x2="0" y2="10" style="stroke:black;stroke-width:5" /></pattern>
<pattern id="checker" width="10" height="10" patternTransform="rotate(45 0 0)" patternUnits="userSpaceOnUse"><line x1="0" y1="0" x2="10" y2="0" style="stroke:black;stroke-width:2" /><line x1="0" y1="0" x2="0" y2="10" style="stroke:black;stroke-width:2" /></pattern>
<pattern id="checker" width="10" height="10" patternTransform="rotate(45 0 0)" patternUnits="userSpaceOnUse"><line x1="0" y1="0" x2="10" y2="0" style="stroke:black;stroke-width:5" /><line x1="0" y1="0" x2="0" y2="10" style="stroke:black;stroke-width:4" /></pattern>
<pattern id="hline-sparse" width="10" height="10" patternTransform="rotate(0 0 0)" patternUnits="userSpaceOnUse"><line x1="0" y1="0" x2="10" y2="0" style="stroke:black;stroke-width:2" /></pattern>
</defs>
</svg>
