<?xml version="1.0" encoding="utf-8" standalone="no"?>
<!DOCTYPE svg PUBLIC "-//W3C//DTD SVG 1.1//EN" "http://www.w3.org/Graphics/SVG/1.1/DTD/svg11.dtd">
<svg width="3000px" height="3000px" version="1.1" xmlns="http://www.w3.org/2000/svg" xmlns:xlink="http://www.w3.org/1999/xlink">
<g id="bg">
<rect x="0" y="0" width="3000px" height="3000px" style="fill:rgb(255,255,255);"/>
</g>
<g id="ideograms">
<path d="M1500.000,950.000 A550.000,550.000 40.000 0,1 1677.816,2020.463 L1742.477,2209.722 A750.000,750.000 0.000 0,0 1500.000,750.000 Z" style="stroke-width:2.0;stroke:rgb(0,0,0);stroke-linecap:round;fill:rgb(179,177,178);" />
<text x="2461.8" y="1340.2" font-size="46.8px" font-family="CMUBright-Roman" style="text-anchor:middle;fill:rgb(0,0,0);" transform="rotate(440.6,2461.8,1340.2)" >Histocap343p18<tspan baseline-shift="-40%" font-size="90%">3</tspan></text>
<line x1='1515.2' y1='750.2' x2='1515.5' y2='738.2' style="stroke-width:8.0;stroke:rgb(150,150,150);stroke-linecap:round;fill:none;" />
<line x1='1614.9' y1='758.9' x2='1616.7' y2='747.0' style="stroke-width:8.0;stroke:rgb(150,150,150);stroke-linecap:round;fill:none;" />
<text x="1632.4" y="737.4" font-size="41.6px" font-family="CMUBright-Roman" style="text-anchor:start;fill:rgb(150,150,150);" transform="rotate(278.8,1632.4,737.4)" >1800 kb</text>
<line x1='1712.5' y1='780.7' x2='1715.9' y2='769.2' style="stroke-width:8.0;stroke:rgb(150,150,150);stroke-linecap:round;fill:none;" />
<line x1='1806.3' y1='815.4' x2='1811.2' y2='804.5' style="stroke-width:8.0;stroke:rgb(150,150,150);stroke-linecap:round;fill:none;" />
<line x1='1894.7' y1='862.3' x2='1901.1' y2='852.1' style="stroke-width:8.0;stroke:rgb(150,150,150);stroke-linecap:round;fill:none;" />
<line x1='1976.1' y1='920.5' x2='1983.7' y2='911.2' style="stroke-width:8.0;stroke:rgb(150,150,150);stroke-linecap:round;fill:none;" />
<line x1='2049.0' y1='989.0' x2='2057.8' y2='980.8' style="stroke-width:8.0;stroke:rgb(150,150,150);stroke-linecap:round;fill:none;" />
<text x="2076.0" y="983.0" font-size="41.6px" font-family="CMUBright-Roman" style="text-anchor:start;fill:rgb(150,150,150);" transform="rotate(317.1,2076.0,983.0)" >1850 kb</text>
<line x1='2112.1' y1='1066.6' x2='2121.9' y2='1059.7' style="stroke-width:8.0;stroke:rgb(150,150,150);stroke-linecap:round;fill:none;" />
<line x1='2164.4' y1='1152.0' x2='2175.0' y2='1146.4' style="stroke-width:8.0;stroke:rgb(150,150,150);stroke-linecap:round;fill:none;" />
<line x1='2204.8' y1='1243.5' x2='2216.0' y2='1239.4' style="stroke-width:8.0;stroke:rgb(150,150,150);stroke-linecap:round;fill:none;" />
<line x1='2232.6' y1='1339.5' x2='2244.4' y2='1337.0' style="stroke-width:8.0;stroke:rgb(150,150,150);stroke-linecap:round;fill:none;" />
<line x1='2247.5' y1='1438.5' x2='2259.4' y2='1437.5' style="stroke-width:8.0;stroke:rgb(150,150,150);stroke-linecap:round;fill:none;" />
<text x="2272.4" y="1450.5" font-size="41.6px" font-family="CMUBright-Roman" style="text-anchor:start;fill:rgb(150,150,150);" transform="rotate(355.3,2272.4,1450.5)" >1900 kb</text>
<line x1='2249.0' y1='1538.5' x2='2261.0' y2='1539.1' style="stroke-width:8.0;stroke:rgb(150,150,150);stroke-linecap:round;fill:none;" />
<line x1='2237.2' y1='1637.9' x2='2249.0' y2='1640.1' style="stroke-width:8.0;stroke:rgb(150,150,150);stroke-linecap:round;fill:none;" />
<line x1='2212.3' y1='1734.8' x2='2223.7' y2='1738.5' style="stroke-width:8.0;stroke:rgb(150,150,150);stroke-linecap:round;fill:none;" />
<line x1='2174.7' y1='1827.5' x2='2185.5' y2='1832.7' style="stroke-width:8.0;stroke:rgb(150,150,150);stroke-linecap:round;fill:none;" />
<line x1='2125.1' y1='1914.4' x2='2135.1' y2='1921.0' style="stroke-width:8.0;stroke:rgb(150,150,150);stroke-linecap:round;fill:none;" />
<text x="2137.3" y="1939.2" font-size="41.6px" font-family="CMUBright-Roman" style="text-anchor:start;fill:rgb(150,150,150);" transform="rotate(33.5,2137.3,1939.2)" >1950 kb</text>
<line x1='2064.4' y1='1993.9' x2='2073.5' y2='2001.8' style="stroke-width:8.0;stroke:rgb(150,150,150);stroke-linecap:round;fill:none;" />
<line x1='1993.7' y1='2064.6' x2='2001.6' y2='2073.6' style="stroke-width:8.0;stroke:rgb(150,150,150);stroke-linecap:round;fill:none;" />
<line x1='1914.1' y1='2125.3' x2='1920.8' y2='2135.3' style="stroke-width:8.0;stroke:rgb(150,150,150);stroke-linecap:round;fill:none;" />
<line x1='1827.2' y1='2174.8' x2='1832.5' y2='2185.6' style="stroke-width:8.0;stroke:rgb(150,150,150);stroke-linecap:round;fill:none;" />
<g id="highlighttrack_0">
<path d="M2034.767,1371.452 A550.000,550.000 40.000 0,1 2047.607,1448.753 L2246.737,1430.117 A750.000,750.000 0.000 0,0 2229.227,1324.708 Z" style="stroke-width:14.0;stroke:rgb(0,0,0);stroke-linecap:round;fill:rgb(255,38,78);" />
</g>
<path d="M1500.000,950.000 A550.000,550.000 40.000 0,1 1677.816,2020.463 L1742.477,2209.722 A750.000,750.000 0.000 0,0 1500.000,750.000 Z" style="stroke-width:2.0;stroke:rgb(0,0,0);stroke-linecap:round;fill:none;" />
<path d="M1460.846,2048.605 A550.000,550.000 40.000 0,1 1285.583,993.517 L1207.613,809.341 A750.000,750.000 0.000 0,0 1446.608,2248.097 Z" style="stroke-width:2.0;stroke:rgb(0,0,0);stroke-linecap:round;fill:rgb(179,177,178);" />
<text x="493.8" y="1667.1" font-size="46.8px" font-family="CMUBright-Roman" style="text-anchor:middle;fill:rgb(0,0,0);" transform="rotate(80.6,493.8,1667.1)" >HistocapG186AR<tspan baseline-shift="-40%" font-size="90%">C</tspan>P069119</text>
<line x1='1195.1' y1='814.8' x2='1190.3' y2='803.8' style="stroke-width:8.0;stroke:rgb(150,150,150);stroke-linecap:round;fill:none;" />
<line x1='1106.6' y1='861.4' x2='1100.4' y2='851.2' style="stroke-width:8.0;stroke:rgb(150,150,150);stroke-linecap:round;fill:none;" />
<line x1='1025.2' y1='919.5' x2='1017.6' y2='910.2' style="stroke-width:8.0;stroke:rgb(150,150,150);stroke-linecap:round;fill:none;" />
<line x1='952.1' y1='987.8' x2='943.3' y2='979.6' style="stroke-width:8.0;stroke:rgb(150,150,150);stroke-linecap:round;fill:none;" />
<line x1='888.8' y1='1065.3' x2='879.0' y2='1058.3' style="stroke-width:8.0;stroke:rgb(150,150,150);stroke-linecap:round;fill:none;" />
<text x="861.3" y="1062.9" font-size="41.6px" font-family="CMUBright-Roman" style="text-anchor:end;fill:rgb(150,150,150);" transform="rotate(35.4,861.3,1062.9)" >2150 kb</text>
<line x1='836.4' y1='1150.5' x2='825.8' y2='1144.9' style="stroke-width:8.0;stroke:rgb(150,150,150);stroke-linecap:round;fill:none;" />
<line x1='795.8' y1='1241.9' x2='784.5' y2='1237.8' style="stroke-width:8.0;stroke:rgb(150,150,150);stroke-linecap:round;fill:none;" />
<line x1='767.7' y1='1338.0' x2='756.0' y2='1335.4' style="stroke-width:8.0;stroke:rgb(150,150,150);stroke-linecap:round;fill:none;" />
<line x1='752.7' y1='1436.9' x2='740.7' y2='1435.9' style="stroke-width:8.0;stroke:rgb(150,150,150);stroke-linecap:round;fill:none;" />
<line x1='750.9' y1='1536.9' x2='738.9' y2='1537.5' style="stroke-width:8.0;stroke:rgb(150,150,150);stroke-linecap:round;fill:none;" />
<text x="727.8" y="1552.1" font-size="41.6px" font-family="CMUBright-Roman" style="text-anchor:end;fill:rgb(150,150,150);" transform="rotate(-2.8,727.8,1552.1)" >2200 kb</text>
<line x1='762.5' y1='1636.3' x2='750.7' y2='1638.4' style="stroke-width:8.0;stroke:rgb(150,150,150);stroke-linecap:round;fill:none;" />
<line x1='787.2' y1='1733.2' x2='775.8' y2='1736.9' style="stroke-width:8.0;stroke:rgb(150,150,150);stroke-linecap:round;fill:none;" />
<line x1='824.6' y1='1826.0' x2='813.8' y2='1831.2' style="stroke-width:8.0;stroke:rgb(150,150,150);stroke-linecap:round;fill:none;" />
<line x1='874.0' y1='1913.0' x2='863.9' y2='1919.6' style="stroke-width:8.0;stroke:rgb(150,150,150);stroke-linecap:round;fill:none;" />
<line x1='934.5' y1='1992.7' x2='925.4' y2='2000.5' style="stroke-width:8.0;stroke:rgb(150,150,150);stroke-linecap:round;fill:none;" />
<text x="925.7" y="2018.9" font-size="41.6px" font-family="CMUBright-Roman" style="text-anchor:end;fill:rgb(150,150,150);" transform="rotate(-41.1,925.7,2018.9)" >2250 kb</text>
<line x1='1005.1' y1='2063.5' x2='997.2' y2='2072.6' style="stroke-width:8.0;stroke:rgb(150,150,150);stroke-linecap:round;fill:none;" />
<line x1='1084.5' y1='2124.4' x2='1077.9' y2='2134.4' style="stroke-width:8.0;stroke:rgb(150,150,150);stroke-linecap:round;fill:none;" />
<line x1='1171.3' y1='2174.1' x2='1166.0' y2='2184.9' style="stroke-width:8.0;stroke:rgb(150,150,150);stroke-linecap:round;fill:none;" />
<line x1='1263.9' y1='2211.9' x2='1260.2' y2='2223.3' style="stroke-width:8.0;stroke:rgb(150,150,150);stroke-linecap:round;fill:none;" />
<line x1='1360.8' y1='2237.0' x2='1358.6' y2='2248.8' style="stroke-width:8.0;stroke:rgb(150,150,150);stroke-linecap:round;fill:none;" />
<text x="1370.1" y="2263.0" font-size="41.6px" font-family="CMUBright-Roman" style="text-anchor:end;fill:rgb(150,150,150);" transform="rotate(-79.3,1370.1,2263.0)" >2300 kb</text>
<path d="M1460.846,2048.605 A550.000,550.000 40.000 0,1 1285.583,993.517 L1207.613,809.341 A750.000,750.000 0.000 0,0 1446.608,2248.097 Z" style="stroke-width:2.0;stroke:rgb(0,0,0);stroke-linecap:round;fill:none;" />
</g>
<g id="track_0">
<path d="M 1949.471,1766.425 A 522.500,522.500 0.00 0,1 1808.9,1921.4 L 1808.9,1921.4 1796.2,1904.6 1783.1,1888.0 1769.7,1871.8 1755.9,1856.1 1741.8,1840.9 1727.4,1826.5 1712.8,1812.9 1698.0,1800.1 1682.9,1788.2 1667.8,1777.4 1652.5,1767.6 1637.0,1758.9 1621.6,1751.3 1606.0,1745.0 1590.5,1739.9 1575.0,1736.0 1559.5,1733.5 1544.0,1732.2 1528.7,1732.3 1513.4,1733.6 1498.3,1736.3 1483.4,1740.3 1468.6,1745.6 1454.0,1752.2 1439.6,1760.0 1425.5,1769.0 1411.6,1779.2 1398.0,1790.6 1384.7,1803.0 1371.7,1816.4 1359.1,1830.7 1346.8,1846.0 1334.8,1862.0 1323.3,1878.8 1312.1,1896.2 1301.4,1914.1 1291.1,1932.5 1281.2,1951.1 1271.7,1970.0  A 522.500,522.500 0.00 0,1 1104.8,1841.8 L 1104.8,1841.8 1122.4,1827.0 1140.4,1812.4 1158.9,1798.1 1177.9,1784.3 1197.3,1770.9 1217.1,1758.0 1237.3,1745.7 1257.9,1734.0 1278.8,1722.9 1300.0,1712.5 1321.6,1702.8 1343.4,1693.9 1365.5,1685.8 1387.8,1678.5 1410.3,1672.0 1433.0,1666.4 1455.9,1661.7 1479.0,1657.8 1502.1,1654.8 1525.3,1652.7 1548.7,1651.6 1572.0,1651.3 1595.4,1651.9 1618.7,1653.4 1642.0,1655.8 1665.3,1659.0 1688.5,1663.1 1711.5,1668.0 1734.4,1673.7 1757.2,1680.2 1779.7,1687.4 1802.1,1695.3 1824.1,1703.8 1845.9,1713.0 1867.4,1722.8 1888.5,1733.0 1909.2,1743.8 1929.6,1754.9 1949.5,1766.4  Z" style="stroke-width: 0.5;  stroke: rgb(0,0,0); fill: rgb(179,177,178);" />
<path d="M 1913.126,1180.104 A 522.500,522.500 0.00 0,1 1970.2,1272.2 L 1970.2,1272.2 1947.5,1283.0 1924.6,1293.7 1901.4,1304.1 1877.9,1314.4 1854.1,1324.4 1830.1,1334.1 1805.9,1343.6 1781.5,1352.8 1756.8,1361.7 1731.9,1370.3 1706.9,1378.6 1681.6,1386.5 1656.2,1394.0 1630.6,1401.2 1604.9,1408.0 1579.1,1414.5 1553.1,1420.5 1527.1,1426.2 1500.9,1431.4 1474.6,1436.3 1448.3,1440.7 1422.0,1444.8 1395.5,1448.4 1369.1,1451.6 1342.7,1454.5 1316.2,1456.9 1289.8,1458.9 1263.4,1460.6 1237.0,1461.8 1210.7,1462.7 1184.5,1463.2 1158.4,1463.4 1132.4,1463.2 1106.5,1462.7 1080.7,1461.8 1055.1,1460.6 1029.7,1459.2 1004.4,1457.4 979.4,1455.4  A 522.500,522.500 0.00 0,1 999.9,1348.5 L 999.9,1348.5 1022.8,1355.2 1046.0,1361.5 1069.6,1367.5 1093.4,1373.0 1117.4,1378.0 1141.7,1382.5 1166.2,1386.5 1190.9,1389.9 1215.6,1392.7 1240.6,1394.9 1265.6,1396.5 1290.6,1397.4 1315.7,1397.7 1340.9,1397.3 1366.0,1396.2 1391.1,1394.5 1416.1,1392.0 1441.1,1388.8 1466.0,1385.0 1490.7,1380.4 1515.4,1375.1 1539.8,1369.2 1564.1,1362.6 1588.2,1355.3 1612.0,1347.3 1635.6,1338.7 1659.0,1329.5 1682.1,1319.7 1704.9,1309.3 1727.4,1298.3 1749.5,1286.8 1771.3,1274.9 1792.8,1262.4 1813.9,1249.6 1834.6,1236.3 1854.8,1222.7 1874.7,1208.7 1894.1,1194.5 1913.1,1180.1  Z" style="stroke-width: 0.5;  stroke: rgb(0,0,0); fill: rgb(179,177,178);" />
<path d="M 2014.098,1593.327 A 522.500,522.500 0.00 0,1 1995.2,1666.7 L 1995.2,1666.7 1972.4,1659.2 1949.2,1652.1 1925.7,1645.3 1901.9,1639.0 1877.9,1633.1 1853.6,1627.6 1829.1,1622.7 1804.4,1618.3 1779.5,1614.4 1754.5,1611.1 1729.3,1608.4 1704.0,1606.3 1678.7,1604.9 1653.3,1604.0 1627.9,1603.8 1602.5,1604.3 1577.0,1605.4 1551.6,1607.2 1526.3,1609.6 1501.0,1612.7 1475.8,1616.5 1450.7,1620.9 1425.8,1625.9 1401.0,1631.6 1376.4,1638.0 1351.9,1644.9 1327.7,1652.5 1303.7,1660.6 1279.9,1669.3 1256.5,1678.6 1233.2,1688.3 1210.3,1698.6 1187.7,1709.3 1165.5,1720.4 1143.6,1732.0 1122.0,1743.9 1100.9,1756.1 1080.1,1768.6 1059.7,1781.4  A 522.500,522.500 0.00 0,1 1023.6,1714.7 L 1023.6,1714.7 1046.4,1704.6 1069.5,1694.7 1092.9,1685.0 1116.5,1675.6 1140.4,1666.5 1164.6,1657.6 1189.0,1649.1 1213.6,1640.9 1238.5,1633.0 1263.6,1625.6 1288.8,1618.5 1314.2,1611.8 1339.8,1605.5 1365.6,1599.6 1391.5,1594.1 1417.5,1589.1 1443.6,1584.5 1469.8,1580.4 1496.0,1576.7 1522.4,1573.5 1548.8,1570.7 1575.2,1568.4 1601.6,1566.5 1628.1,1565.1 1654.5,1564.2 1680.9,1563.7 1707.2,1563.6 1733.5,1564.0 1759.8,1564.8 1785.9,1566.0 1811.9,1567.6 1837.8,1569.6 1863.5,1572.0 1889.1,1574.7 1914.5,1577.8 1939.8,1581.3 1964.8,1585.0 1989.6,1589.0 2014.1,1593.3  Z" style="stroke-width: 0.5;  stroke: rgb(0,0,0); fill: rgb(179,177,178);" />
<path d="M 2020.748,1457.242 A 522.500,522.500 0.00 0,1 2021.6,1530.2 L 2021.6,1530.2 1996.0,1528.9 1970.3,1527.7 1944.4,1526.7 1918.4,1525.9 1892.2,1525.3 1866.0,1525.0 1839.6,1524.9 1813.2,1525.1 1786.7,1525.5 1760.1,1526.1 1733.4,1527.1 1706.7,1528.3 1680.0,1529.8 1653.2,1531.5 1626.5,1533.6 1599.7,1535.9 1572.9,1538.5 1546.1,1541.4 1519.4,1544.6 1492.7,1548.1 1466.0,1551.8 1439.4,1555.9 1412.8,1560.2 1386.3,1564.8 1359.9,1569.7 1333.6,1574.8 1307.4,1580.2 1281.2,1585.9 1255.2,1591.8 1229.4,1597.9 1203.6,1604.3 1178.0,1610.9 1152.6,1617.7 1127.3,1624.7 1102.1,1632.0 1077.2,1639.4 1052.4,1647.0 1027.8,1654.7 1003.4,1662.6  A 522.500,522.500 0.00 0,1 985.6,1591.8 L 985.6,1591.8 1011.7,1587.2 1037.9,1582.6 1064.1,1578.1 1090.3,1573.6 1116.6,1569.1 1142.9,1564.7 1169.3,1560.4 1195.7,1556.1 1222.2,1551.9 1248.6,1547.7 1275.2,1543.6 1301.7,1539.6 1328.3,1535.6 1354.9,1531.7 1381.5,1527.9 1408.1,1524.2 1434.8,1520.5 1461.5,1516.9 1488.2,1513.3 1514.9,1509.8 1541.6,1506.4 1568.3,1503.1 1595.0,1499.9 1621.7,1496.7 1648.4,1493.6 1675.1,1490.5 1701.8,1487.6 1728.5,1484.7 1755.2,1481.9 1781.9,1479.1 1808.5,1476.4 1835.1,1473.8 1861.8,1471.3 1888.3,1468.8 1914.9,1466.4 1941.4,1464.0 1967.9,1461.7 1994.3,1459.4 2020.7,1457.2  Z" style="stroke-width: 0.5;  stroke: rgb(0,0,0); fill: rgb(179,177,178);" />
<path d="M 1630.247,993.994 A 522.500,522.500 0.00 0,1 1698.7,1016.8 L 1698.7,1016.8 1690.5,1036.2 1681.8,1055.5 1672.6,1074.4 1663.0,1093.0 1652.9,1111.0 1642.4,1128.5 1631.5,1145.2 1620.2,1161.2 1608.4,1176.3 1596.3,1190.5 1583.8,1203.7 1570.9,1215.9 1557.7,1226.9 1544.1,1236.8 1530.2,1245.5 1516.1,1253.0 1501.6,1259.2 1486.9,1264.1 1472.0,1267.7 1456.9,1270.1 1441.5,1271.1 1426.0,1270.8 1410.4,1269.2 1394.6,1266.4 1378.8,1262.2 1362.9,1256.9 1347.0,1250.3 1331.0,1242.6 1315.1,1233.8 1299.3,1223.9 1283.5,1213.0 1267.9,1201.2 1252.4,1188.5 1237.2,1175.0 1222.2,1160.8 1207.4,1146.0 1193.0,1130.7 1178.9,1114.9 1165.2,1098.9  A 522.500,522.500 0.00 0,1 1223.9,1056.4 L 1223.9,1056.4 1235.0,1073.8 1246.4,1091.0 1258.1,1107.8 1270.0,1124.1 1282.1,1139.7 1294.4,1154.7 1306.8,1168.9 1319.4,1182.1 1332.0,1194.4 1344.6,1205.7 1357.3,1215.8 1369.9,1224.7 1382.5,1232.5 1395.0,1238.9 1407.5,1244.0 1419.8,1247.8 1432.0,1250.2 1444.0,1251.2 1455.8,1250.9 1467.4,1249.1 1478.8,1245.9 1489.9,1241.3 1500.8,1235.4 1511.5,1228.1 1521.8,1219.4 1531.8,1209.5 1541.5,1198.4 1550.9,1186.1 1559.9,1172.6 1568.6,1158.1 1576.9,1142.6 1584.9,1126.2 1592.5,1108.9 1599.8,1091.0 1606.6,1072.4 1613.1,1053.3 1619.2,1033.7 1624.9,1013.9 1630.2,994.0  Z" style="stroke-width: 0.5;  stroke: rgb(0,0,0); fill: rgb(179,177,178);" />
<path d="M 1500.000,977.500 A 522.500,522.500 0.00 0,1 1556.0,980.5 L 1556.0,980.5 1553.7,1000.7 1551.1,1020.7 1548.2,1040.5 1545.1,1059.9 1541.7,1078.7 1538.0,1096.8 1534.0,1114.3 1529.7,1130.8 1525.0,1146.4 1520.1,1161.0 1514.9,1174.5 1509.4,1186.7 1503.7,1197.8 1497.6,1207.5 1491.2,1215.9 1484.6,1222.8 1477.7,1228.4 1470.5,1232.5 1463.1,1235.2 1455.5,1236.3 1447.7,1236.0 1439.6,1234.3 1431.3,1231.0 1422.9,1226.4 1414.3,1220.3 1405.6,1212.8 1396.8,1204.1 1387.9,1194.0 1378.8,1182.8 1369.8,1170.3 1360.7,1156.8 1351.6,1142.3 1342.5,1126.9 1333.5,1110.7 1324.6,1093.8 1315.8,1076.3 1307.2,1058.3 1298.7,1039.9 1290.4,1021.4  A 522.500,522.500 0.00 0,1 1296.3,1018.8 L 1296.3,1018.8 1304.3,1037.4 1312.4,1055.8 1320.7,1073.8 1329.0,1091.4 1337.3,1108.4 1345.7,1124.6 1354.1,1140.1 1362.4,1154.6 1370.6,1168.2 1378.7,1180.7 1386.7,1192.0 1394.5,1202.1 1402.1,1210.9 1409.6,1218.4 1416.8,1224.5 1423.7,1229.1 1430.5,1232.4 1436.9,1234.1 1443.1,1234.4 1448.9,1233.2 1454.5,1230.6 1459.7,1226.4 1464.6,1220.8 1469.2,1213.8 1473.5,1205.4 1477.4,1195.6 1481.0,1184.5 1484.3,1172.2 1487.2,1158.6 1489.8,1144.0 1492.1,1128.3 1494.1,1111.7 1495.7,1094.2 1497.1,1075.9 1498.2,1057.0 1499.0,1037.6 1499.6,1017.8 1499.9,997.7 1500.0,977.5  Z" style="stroke-width: 0.5;  stroke: rgb(0,0,0); fill: rgb(179,177,178);" />
<path d="M 1765.481,1950.029 A 522.500,522.500 0.00 0,1 1707.2,1979.7 L 1707.2,1979.7 1698.9,1961.0 1690.4,1942.5 1681.6,1924.3 1672.6,1906.7 1663.4,1889.6 1654.1,1873.2 1644.6,1857.7 1634.9,1843.0 1625.2,1829.3 1615.4,1816.7 1605.5,1805.2 1595.7,1794.9 1585.8,1785.9 1575.9,1778.2 1566.0,1771.8 1556.2,1766.9 1546.5,1763.3 1536.8,1761.2 1527.3,1760.6 1517.8,1761.4 1508.5,1763.7 1499.4,1767.4 1490.4,1772.5 1481.6,1779.1 1472.9,1787.1 1464.5,1796.3 1456.3,1806.9 1448.3,1818.7 1440.6,1831.8 1433.1,1845.9 1425.9,1861.0 1418.9,1877.1 1412.2,1894.1 1405.8,1911.8 1399.6,1930.2 1393.8,1949.2 1388.3,1968.6 1383.0,1988.2 1378.1,2008.1  A 522.500,522.500 0.00 0,1 1315.6,1988.9 L 1315.6,1988.9 1323.1,1969.5 1331.1,1950.3 1339.4,1931.5 1348.1,1913.0 1357.1,1895.1 1366.6,1877.9 1376.3,1861.4 1386.4,1845.7 1396.8,1830.9 1407.5,1817.2 1418.5,1804.5 1429.8,1792.9 1441.3,1782.5 1453.1,1773.3 1465.1,1765.4 1477.2,1758.9 1489.6,1753.6 1502.2,1749.7 1514.9,1747.2 1527.7,1746.1 1540.7,1746.4 1553.7,1748.1 1566.8,1751.1 1579.9,1755.5 1593.1,1761.2 1606.3,1768.2 1619.4,1776.5 1632.5,1786.0 1645.5,1796.6 1658.4,1808.3 1671.2,1821.1 1683.8,1834.8 1696.3,1849.4 1708.5,1864.8 1720.5,1880.9 1732.2,1897.5 1743.6,1914.7 1754.7,1932.2 1765.5,1950.0  Z" style="stroke-width: 0.5;  stroke: rgb(0,0,0); fill: rgb(179,177,178);" />
<path d="M 1989.532,1682.661 A 522.500,522.500 0.00 0,1 1964.2,1739.9 L 1964.2,1739.9 1943.4,1729.5 1922.3,1719.4 1900.8,1709.8 1878.9,1700.6 1856.7,1691.9 1834.2,1683.8 1811.5,1676.3 1788.5,1669.4 1765.3,1663.2 1741.9,1657.7 1718.4,1652.9 1694.8,1648.9 1671.0,1645.7 1647.2,1643.3 1623.3,1641.7 1599.5,1641.0 1575.6,1641.1 1551.8,1642.0 1528.0,1643.8 1504.3,1646.4 1480.7,1649.9 1457.2,1654.2 1433.9,1659.4 1410.8,1665.4 1387.9,1672.2 1365.2,1679.8 1342.7,1688.1 1320.5,1697.2 1298.6,1707.0 1277.0,1717.5 1255.8,1728.6 1234.9,1740.4 1214.3,1752.7 1194.2,1765.6 1174.4,1778.9 1155.1,1792.7 1136.2,1806.8 1117.8,1821.3 1099.9,1836.1  A 522.500,522.500 0.00 0,1 1062.5,1785.6 L 1062.5,1785.6 1082.6,1772.7 1103.1,1760.1 1124.1,1747.7 1145.4,1735.8 1167.2,1724.1 1189.2,1712.9 1211.7,1702.2 1234.4,1691.9 1257.4,1682.2 1280.8,1673.0 1304.4,1664.3 1328.2,1656.3 1352.3,1648.8 1376.5,1642.0 1401.0,1635.8 1425.6,1630.3 1450.4,1625.5 1475.3,1621.3 1500.4,1617.8 1525.5,1615.0 1550.7,1612.9 1575.9,1611.5 1601.1,1610.8 1626.4,1610.8 1651.6,1611.5 1676.8,1612.8 1701.9,1614.8 1726.9,1617.4 1751.8,1620.7 1776.6,1624.5 1801.2,1629.0 1825.7,1634.0 1849.9,1639.6 1873.9,1645.7 1897.6,1652.2 1921.1,1659.3 1944.2,1666.7 1967.1,1674.5 1989.5,1682.7  Z" style="stroke-width: 0.5;  stroke: rgb(0,0,0); fill: rgb(179,177,178);" />
<path d="M 1822.354,1088.790 A 522.500,522.500 0.00 0,1 1867.9,1129.0 L 1867.9,1129.0 1851.6,1145.1 1834.7,1161.0 1817.4,1176.6 1799.5,1191.8 1781.2,1206.6 1762.5,1221.0 1743.3,1234.7 1723.7,1247.9 1703.8,1260.5 1683.4,1272.4 1662.7,1283.6 1641.7,1294.1 1620.3,1303.8 1598.6,1312.7 1576.7,1320.8 1554.5,1328.0 1532.1,1334.3 1509.5,1339.8 1486.7,1344.4 1463.8,1348.1 1440.7,1350.9 1417.5,1352.8 1394.2,1353.8 1370.9,1353.9 1347.5,1353.1 1324.2,1351.5 1300.9,1349.0 1277.6,1345.7 1254.4,1341.5 1231.4,1336.6 1208.4,1330.9 1185.7,1324.5 1163.2,1317.5 1140.9,1309.8 1118.9,1301.4 1097.2,1292.6 1075.8,1283.2 1054.8,1273.4 1034.2,1263.3  A 522.500,522.500 0.00 0,1 1065.0,1210.5 L 1065.0,1210.5 1083.8,1222.6 1103.0,1234.4 1122.5,1245.8 1142.5,1256.6 1162.7,1266.8 1183.3,1276.4 1204.0,1285.2 1225.0,1293.3 1246.2,1300.7 1267.5,1307.1 1288.9,1312.7 1310.5,1317.4 1332.0,1321.1 1353.6,1323.9 1375.1,1325.6 1396.7,1326.4 1418.1,1326.1 1439.4,1324.8 1460.7,1322.5 1481.7,1319.1 1502.6,1314.7 1523.3,1309.2 1543.8,1302.8 1563.9,1295.3 1583.9,1286.9 1603.5,1277.5 1622.8,1267.2 1641.8,1256.0 1660.4,1244.0 1678.6,1231.2 1696.4,1217.6 1713.8,1203.3 1730.7,1188.4 1747.2,1172.9 1763.3,1156.8 1778.8,1140.3 1793.8,1123.4 1808.4,1106.2 1822.4,1088.8  Z" style="stroke-width: 0.5;  stroke: rgb(0,0,0); fill: rgb(179,177,178);" />
<path d="M 1773.438,1054.761 A 522.500,522.500 0.00 0,1 1820.9,1087.6 L 1820.9,1087.6 1807.0,1105.1 1792.5,1122.4 1777.5,1139.3 1762.1,1155.8 1746.1,1171.9 1729.7,1187.5 1712.8,1202.5 1695.4,1216.8 1677.7,1230.4 1659.5,1243.3 1641.0,1255.4 1622.1,1266.6 1602.8,1276.9 1583.3,1286.3 1563.4,1294.8 1543.2,1302.3 1522.8,1308.8 1502.2,1314.3 1481.3,1318.7 1460.3,1322.1 1439.1,1324.5 1417.8,1325.9 1396.4,1326.2 1374.9,1325.4 1353.4,1323.7 1331.8,1321.0 1310.3,1317.3 1288.8,1312.6 1267.4,1307.0 1246.1,1300.6 1225.0,1293.3 1204.0,1285.1 1183.2,1276.3 1162.7,1266.7 1142.5,1256.5 1122.5,1245.7 1103.0,1234.4 1083.8,1222.6 1065.1,1210.4  A 522.500,522.500 0.00 0,1 1099.6,1164.3 L 1099.6,1164.3 1116.5,1178.1 1133.8,1191.6 1151.5,1204.6 1169.5,1217.1 1187.9,1228.9 1206.5,1240.1 1225.4,1250.5 1244.4,1260.1 1263.7,1268.9 1283.0,1276.7 1302.5,1283.6 1322.0,1289.5 1341.6,1294.3 1361.1,1298.0 1380.6,1300.7 1400.1,1302.2 1419.4,1302.6 1438.7,1301.8 1457.8,1299.9 1476.7,1296.8 1495.4,1292.6 1513.9,1287.2 1532.1,1280.7 1550.1,1273.1 1567.7,1264.4 1585.1,1254.7 1602.1,1243.9 1618.8,1232.2 1635.0,1219.5 1650.9,1205.9 1666.4,1191.5 1681.4,1176.4 1696.0,1160.5 1710.1,1144.0 1723.8,1126.9 1737.0,1109.4 1749.6,1091.4 1761.8,1073.2 1773.4,1054.8  Z" style="stroke-width: 0.5;  stroke: rgb(0,0,0); fill: rgb(179,177,178);" />
<path d="M 1979.656,1292.788 A 522.500,522.500 0.00 0,1 1996.8,1338.0 L 1996.8,1338.0 1971.9,1346.0 1947.0,1354.0 1921.9,1361.8 1896.7,1369.6 1871.4,1377.2 1846.0,1384.7 1820.5,1392.1 1794.8,1399.4 1769.1,1406.5 1743.3,1413.5 1717.4,1420.3 1691.4,1427.0 1665.3,1433.6 1639.2,1440.0 1612.9,1446.2 1586.7,1452.2 1560.4,1458.1 1534.0,1463.8 1507.6,1469.4 1481.1,1474.8 1454.6,1480.0 1428.1,1485.0 1401.6,1489.9 1375.0,1494.5 1348.4,1499.0 1321.9,1503.4 1295.3,1507.5 1268.8,1511.5 1242.3,1515.3 1215.7,1519.0 1189.3,1522.5 1162.8,1525.8 1136.4,1528.9 1110.1,1531.9 1083.8,1534.8 1057.6,1537.5 1031.5,1540.1 1005.4,1542.5 979.4,1544.8  A 522.500,522.500 0.00 0,1 977.5,1496.3 L 977.5,1496.3 1003.0,1496.3 1028.7,1496.2 1054.5,1495.8 1080.4,1495.2 1106.4,1494.3 1132.6,1493.2 1158.8,1491.8 1185.1,1490.1 1211.5,1488.2 1238.0,1485.9 1264.5,1483.4 1291.0,1480.5 1317.5,1477.4 1344.1,1473.9 1370.6,1470.1 1397.1,1466.0 1423.6,1461.6 1450.1,1456.9 1476.5,1451.8 1502.9,1446.5 1529.1,1440.8 1555.4,1434.9 1581.5,1428.6 1607.5,1422.0 1633.4,1415.1 1659.2,1408.0 1684.9,1400.5 1710.4,1392.8 1735.8,1384.8 1761.0,1376.6 1786.1,1368.1 1811.0,1359.4 1835.7,1350.5 1860.2,1341.3 1884.5,1331.9 1908.6,1322.4 1932.5,1312.7 1956.2,1302.8 1979.7,1292.8  Z" style="stroke-width: 0.5;  stroke: rgb(0,0,0); fill: rgb(179,177,178);" />
<path d="M 1805.720,1923.723 A 522.500,522.500 0.00 0,1 1766.8,1949.2 L 1766.8,1949.2 1756.0,1931.5 1744.9,1914.0 1733.4,1896.8 1721.6,1880.2 1709.6,1864.1 1697.3,1848.8 1684.8,1834.2 1672.1,1820.5 1659.3,1807.8 1646.3,1796.1 1633.2,1785.5 1620.1,1776.1 1606.9,1767.8 1593.7,1760.8 1580.5,1755.1 1567.3,1750.8 1554.1,1747.8 1541.0,1746.1 1528.1,1745.9 1515.2,1747.0 1502.4,1749.5 1489.8,1753.4 1477.4,1758.7 1465.2,1765.3 1453.2,1773.2 1441.4,1782.3 1429.8,1792.7 1418.5,1804.3 1407.5,1817.0 1396.8,1830.8 1386.3,1845.6 1376.2,1861.3 1366.5,1877.8 1357.0,1895.1 1347.9,1913.0 1339.2,1931.4 1330.9,1950.3 1323.0,1969.5 1315.4,1988.8  A 522.500,522.500 0.00 0,1 1272.4,1970.3 L 1272.4,1970.3 1281.8,1951.4 1291.6,1932.8 1301.9,1914.4 1312.6,1896.5 1323.7,1879.1 1335.2,1862.4 1347.1,1846.3 1359.4,1831.1 1372.0,1816.8 1384.9,1803.4 1398.1,1791.0 1411.6,1779.7 1425.4,1769.5 1439.5,1760.5 1453.8,1752.7 1468.3,1746.2 1483.0,1741.0 1497.8,1737.0 1512.9,1734.4 1528.0,1733.0 1543.2,1733.0 1558.6,1734.4 1573.9,1737.0 1589.4,1740.9 1604.8,1746.1 1620.2,1752.5 1635.5,1760.1 1650.8,1768.9 1666.0,1778.8 1681.0,1789.7 1695.9,1801.7 1710.6,1814.6 1725.1,1828.3 1739.3,1842.8 1753.3,1858.0 1767.0,1873.8 1780.3,1890.1 1793.2,1906.8 1805.7,1923.7  Z" style="stroke-width: 0.5;  stroke: rgb(0,0,0); fill: rgb(179,177,178);" />
<path d="M 1733.513,1032.584 A 522.500,522.500 0.00 0,1 1770.5,1052.9 L 1770.5,1052.9 1759.0,1071.4 1747.0,1089.6 1734.5,1107.6 1721.5,1125.1 1708.0,1142.2 1694.1,1158.7 1679.7,1174.5 1664.9,1189.7 1649.6,1204.0 1634.0,1217.5 1617.9,1230.1 1601.5,1241.8 1584.7,1252.4 1567.7,1262.0 1550.3,1270.6 1532.6,1278.0 1514.6,1284.3 1496.4,1289.5 1478.0,1293.5 1459.4,1296.4 1440.6,1298.0 1421.7,1298.5 1402.7,1297.8 1383.6,1296.0 1364.5,1293.0 1345.3,1289.0 1326.1,1283.8 1307.0,1277.6 1287.9,1270.3 1268.9,1262.1 1250.1,1253.0 1231.4,1242.9 1212.9,1232.1 1194.7,1220.5 1176.8,1208.3 1159.1,1195.4 1141.9,1182.0 1125.0,1168.1 1108.5,1153.9  A 522.500,522.500 0.00 0,1 1137.7,1123.5 L 1137.7,1123.5 1152.7,1138.8 1168.1,1153.7 1183.9,1168.1 1200.0,1182.1 1216.5,1195.4 1233.2,1208.1 1250.1,1219.9 1267.2,1230.9 1284.4,1241.0 1301.8,1250.2 1319.2,1258.3 1336.7,1265.3 1354.2,1271.3 1371.7,1276.0 1389.2,1279.6 1406.6,1282.0 1423.9,1283.2 1441.1,1283.1 1458.1,1281.8 1474.9,1279.2 1491.5,1275.4 1508.0,1270.4 1524.1,1264.1 1540.0,1256.6 1555.6,1248.0 1570.9,1238.2 1585.8,1227.3 1600.4,1215.4 1614.7,1202.4 1628.5,1188.5 1642.0,1173.7 1655.0,1158.1 1667.6,1141.7 1679.8,1124.7 1691.5,1107.1 1702.7,1088.9 1713.5,1070.4 1723.7,1051.6 1733.5,1032.6  Z" style="stroke-width: 0.5;  stroke: rgb(0,0,0); fill: rgb(179,177,178);" />
<path d="M 1996.966,1338.659 A 522.500,522.500 0.00 0,1 2008.0,1377.9 L 2008.0,1377.9 1982.2,1384.1 1956.3,1390.3 1930.4,1396.4 1904.4,1402.5 1878.4,1408.5 1852.4,1414.6 1826.3,1420.5 1800.2,1426.5 1774.1,1432.4 1747.9,1438.2 1721.7,1444.1 1695.5,1449.8 1669.3,1455.5 1643.0,1461.2 1616.7,1466.8 1590.4,1472.4 1564.1,1477.9 1537.8,1483.3 1511.4,1488.7 1485.1,1494.1 1458.7,1499.4 1432.3,1504.6 1405.9,1509.8 1379.6,1514.9 1353.2,1520.0 1326.8,1525.0 1300.4,1530.0 1274.0,1534.9 1247.6,1539.8 1221.2,1544.6 1194.9,1549.3 1168.5,1554.1 1142.2,1558.7 1115.9,1563.3 1089.6,1567.9 1063.3,1572.4 1037.0,1576.8 1010.8,1581.3 984.6,1585.6  A 522.500,522.500 0.00 0,1 979.4,1544.7 L 979.4,1544.7 1005.4,1542.4 1031.5,1540.0 1057.6,1537.4 1083.8,1534.7 1110.1,1531.9 1136.5,1528.9 1162.9,1525.7 1189.3,1522.4 1215.8,1518.9 1242.3,1515.3 1268.8,1511.5 1295.4,1507.5 1321.9,1503.4 1348.5,1499.1 1375.0,1494.6 1401.6,1489.9 1428.1,1485.1 1454.7,1480.1 1481.1,1474.9 1507.6,1469.5 1534.0,1464.0 1560.4,1458.3 1586.7,1452.4 1613.0,1446.4 1639.2,1440.2 1665.4,1433.9 1691.5,1427.3 1717.5,1420.7 1743.4,1413.9 1769.2,1406.9 1795.0,1399.8 1820.6,1392.6 1846.1,1385.2 1871.6,1377.7 1896.9,1370.1 1922.1,1362.4 1947.2,1354.6 1972.1,1346.7 1997.0,1338.7  Z" style="stroke-width: 0.5;  stroke: rgb(0,0,0); fill: rgb(179,177,178);" />
<path d="M 1703.307,1981.324 A 522.500,522.500 0.00 0,1 1668.9,1994.4 L 1668.9,1994.4 1662.3,1975.3 1655.4,1956.3 1648.3,1937.7 1641.1,1919.6 1633.7,1902.0 1626.2,1885.1 1618.6,1869.0 1611.0,1853.9 1603.3,1839.7 1595.5,1826.6 1587.8,1814.7 1580.1,1804.0 1572.3,1794.6 1564.6,1786.5 1557.0,1779.8 1549.5,1774.5 1542.0,1770.7 1534.6,1768.3 1527.3,1767.5 1520.2,1768.1 1513.2,1770.2 1506.4,1773.9 1499.7,1778.9 1493.2,1785.5 1486.8,1793.4 1480.7,1802.7 1474.8,1813.3 1469.0,1825.2 1463.5,1838.3 1458.2,1852.6 1453.1,1867.9 1448.2,1884.2 1443.6,1901.3 1439.2,1919.2 1435.1,1937.8 1431.1,1957.0 1427.5,1976.6 1424.0,1996.4 1420.8,2016.5  A 522.500,522.500 0.00 0,1 1381.4,2008.9 L 1381.4,2008.9 1386.2,1989.0 1391.3,1969.3 1396.7,1949.9 1402.3,1931.0 1408.3,1912.5 1414.6,1894.8 1421.1,1877.8 1427.9,1861.7 1435.0,1846.5 1442.3,1832.4 1449.8,1819.4 1457.6,1807.5 1465.6,1797.0 1473.9,1787.7 1482.3,1779.7 1490.9,1773.2 1499.7,1768.0 1508.7,1764.3 1517.8,1762.1 1527.0,1761.3 1536.4,1762.0 1545.8,1764.1 1555.3,1767.7 1564.9,1772.7 1574.6,1779.1 1584.3,1786.8 1594.0,1795.9 1603.7,1806.2 1613.3,1817.8 1622.9,1830.4 1632.5,1844.2 1641.9,1858.9 1651.2,1874.5 1660.4,1891.0 1669.4,1908.1 1678.2,1925.8 1686.9,1944.0 1695.2,1962.6 1703.3,1981.3  Z" style="stroke-width: 0.5;  stroke: rgb(0,0,0); fill: rgb(179,177,178);" />
<path d="M 1558.112,980.742 A 522.500,522.500 0.00 0,1 1596.5,986.5 L 1596.5,986.5 1592.5,1006.6 1588.2,1026.5 1583.6,1046.2 1578.7,1065.5 1573.4,1084.2 1567.8,1102.3 1561.8,1119.7 1555.5,1136.2 1548.8,1151.8 1541.9,1166.4 1534.5,1179.9 1526.9,1192.2 1519.0,1203.3 1510.8,1213.2 1502.2,1221.7 1493.4,1228.9 1484.3,1234.7 1475.0,1239.0 1465.4,1242.0 1455.5,1243.5 1445.5,1243.6 1435.3,1242.2 1424.9,1239.4 1414.3,1235.2 1403.6,1229.6 1392.8,1222.7 1381.9,1214.5 1370.9,1205.0 1359.9,1194.3 1348.8,1182.5 1337.8,1169.6 1326.8,1155.8 1315.9,1141.0 1305.1,1125.4 1294.4,1109.2 1283.9,1092.3 1273.6,1074.9 1263.6,1057.1 1253.8,1039.2  A 522.500,522.500 0.00 0,1 1288.7,1022.1 L 1288.7,1022.1 1297.1,1040.6 1305.6,1059.0 1314.4,1076.9 1323.2,1094.4 1332.3,1111.3 1341.3,1127.5 1350.5,1142.9 1359.7,1157.4 1368.8,1170.8 1378.0,1183.2 1387.1,1194.5 1396.1,1204.5 1405.1,1213.3 1413.9,1220.7 1422.6,1226.7 1431.1,1231.4 1439.5,1234.6 1447.6,1236.3 1455.6,1236.6 1463.3,1235.4 1470.8,1232.8 1478.1,1228.6 1485.1,1223.1 1491.8,1216.1 1498.3,1207.7 1504.5,1198.0 1510.4,1187.0 1516.0,1174.7 1521.3,1161.2 1526.3,1146.6 1531.0,1131.0 1535.4,1114.5 1539.6,1097.1 1543.4,1078.9 1546.9,1060.1 1550.1,1040.7 1553.1,1021.0 1555.7,1000.9 1558.1,980.7  Z" style="stroke-width: 0.5;  stroke: rgb(0,0,0); fill: rgb(179,177,178);" />
<path d="M 1698.714,1016.762 A 522.500,522.500 0.00 0,1 1731.7,1031.7 L 1731.7,1031.7 1722.0,1050.8 1711.8,1069.6 1701.2,1088.2 1690.0,1106.3 1678.4,1124.0 1666.3,1141.1 1653.7,1157.5 1640.8,1173.1 1627.4,1187.9 1613.6,1201.9 1599.5,1214.9 1584.9,1226.8 1570.0,1237.8 1554.8,1247.6 1539.3,1256.2 1523.5,1263.7 1507.4,1270.1 1491.0,1275.1 1474.4,1279.0 1457.6,1281.6 1440.7,1282.9 1423.5,1283.0 1406.3,1281.9 1388.9,1279.5 1371.5,1275.9 1354.0,1271.2 1336.5,1265.3 1319.0,1258.2 1301.6,1250.1 1284.3,1241.0 1267.0,1230.9 1250.0,1219.9 1233.1,1208.0 1216.4,1195.4 1200.0,1182.1 1183.8,1168.2 1168.0,1153.7 1152.6,1138.8 1137.6,1123.6  A 522.500,522.500 0.00 0,1 1164.9,1099.1 L 1164.9,1099.1 1178.6,1115.2 1192.7,1130.9 1207.1,1146.2 1221.9,1161.0 1236.9,1175.2 1252.2,1188.7 1267.7,1201.4 1283.3,1213.2 1299.1,1224.1 1314.9,1233.9 1330.9,1242.8 1346.8,1250.5 1362.7,1257.0 1378.7,1262.4 1394.5,1266.5 1410.3,1269.3 1425.9,1270.9 1441.4,1271.2 1456.8,1270.1 1471.9,1267.8 1486.9,1264.2 1501.6,1259.2 1516.0,1253.0 1530.2,1245.5 1544.1,1236.8 1557.6,1226.9 1570.9,1215.9 1583.7,1203.7 1596.2,1190.5 1608.4,1176.3 1620.1,1161.2 1631.5,1145.2 1642.4,1128.5 1652.9,1111.0 1663.0,1093.0 1672.6,1074.4 1681.8,1055.4 1690.5,1036.2 1698.7,1016.8  Z" style="stroke-width: 0.5;  stroke: rgb(0,0,0); fill: rgb(179,177,178);" />
<path d="M 1889.730,1151.981 A 522.500,522.500 0.00 0,1 1910.9,1177.3 L 1910.9,1177.3 1892.0,1191.8 1872.7,1206.1 1853.0,1220.2 1832.8,1233.9 1812.2,1247.3 1791.2,1260.3 1769.9,1272.8 1748.2,1284.9 1726.1,1296.5 1703.7,1307.6 1681.0,1318.1 1658.0,1328.0 1634.7,1337.3 1611.2,1346.0 1587.4,1354.1 1563.4,1361.4 1539.1,1368.2 1514.7,1374.2 1490.2,1379.5 1465.5,1384.2 1440.7,1388.1 1415.7,1391.3 1390.7,1393.8 1365.7,1395.7 1340.6,1396.8 1315.5,1397.2 1290.4,1397.0 1265.4,1396.1 1240.4,1394.5 1215.5,1392.3 1190.7,1389.5 1166.1,1386.1 1141.7,1382.2 1117.4,1377.7 1093.4,1372.7 1069.6,1367.2 1046.1,1361.3 1022.9,1354.9 1000.0,1348.2  A 522.500,522.500 0.00 0,1 1010.6,1316.9 L 1010.6,1316.9 1032.7,1324.9 1055.1,1332.5 1077.8,1339.7 1100.9,1346.4 1124.2,1352.6 1147.8,1358.2 1171.6,1363.3 1195.5,1367.7 1219.6,1371.5 1243.9,1374.6 1268.2,1377.0 1292.6,1378.7 1317.0,1379.6 1341.5,1379.8 1365.9,1379.2 1390.3,1377.9 1414.6,1375.7 1438.9,1372.8 1463.0,1369.1 1487.0,1364.6 1510.9,1359.3 1534.5,1353.2 1558.0,1346.4 1581.2,1338.8 1604.2,1330.5 1626.9,1321.5 1649.3,1311.7 1671.5,1301.3 1693.3,1290.3 1714.7,1278.6 1735.8,1266.3 1756.5,1253.5 1776.9,1240.2 1796.8,1226.4 1816.3,1212.2 1835.4,1197.6 1854.0,1182.6 1872.1,1167.4 1889.7,1152.0  Z" style="stroke-width: 0.5;  stroke: rgb(0,0,0); fill: rgb(179,177,178);" />
<path d="M 2019.460,1556.280 A 522.500,522.500 0.00 0,1 2015.3,1586.6 L 2015.3,1586.6 1990.6,1582.6 1965.8,1578.8 1940.7,1575.4 1915.4,1572.3 1889.9,1569.5 1864.2,1567.0 1838.4,1564.9 1812.5,1563.2 1786.4,1561.9 1760.2,1560.9 1734.0,1560.4 1707.7,1560.3 1681.3,1560.6 1654.8,1561.3 1628.4,1562.5 1601.9,1564.1 1575.5,1566.1 1549.0,1568.6 1522.6,1571.6 1496.3,1575.0 1470.0,1578.8 1443.8,1583.1 1417.6,1587.8 1391.6,1592.9 1365.7,1598.5 1340.0,1604.5 1314.4,1610.9 1288.9,1617.7 1263.7,1624.8 1238.6,1632.4 1213.7,1640.3 1189.0,1648.5 1164.6,1657.1 1140.4,1666.0 1116.5,1675.1 1092.8,1684.6 1069.4,1694.2 1046.3,1704.1 1023.4,1714.2  A 522.500,522.500 0.00 0,1 1011.6,1685.8 L 1011.6,1685.8 1035.3,1676.9 1059.3,1668.2 1083.5,1659.6 1107.9,1651.3 1132.5,1643.2 1157.4,1635.3 1182.4,1627.7 1207.6,1620.4 1233.0,1613.3 1258.6,1606.6 1284.3,1600.1 1310.2,1594.0 1336.1,1588.1 1362.3,1582.6 1388.5,1577.5 1414.8,1572.6 1441.2,1568.2 1467.7,1564.0 1494.2,1560.2 1520.8,1556.8 1547.5,1553.8 1574.1,1551.1 1600.8,1548.7 1627.5,1546.8 1654.2,1545.1 1680.8,1543.8 1707.4,1542.9 1734.0,1542.3 1760.5,1542.1 1787.0,1542.2 1813.3,1542.6 1839.6,1543.3 1865.7,1544.3 1891.7,1545.7 1917.6,1547.3 1943.3,1549.2 1968.9,1551.3 1994.3,1553.7 2019.5,1556.3  Z" style="stroke-width: 0.5;  stroke: rgb(0,0,0); fill: rgb(179,177,178);" />
<path d="M 2021.578,1531.032 A 522.500,522.500 0.00 0,1 2019.7,1554.5 L 2019.7,1554.5 1994.4,1552.0 1969.0,1549.7 1943.5,1547.6 1917.7,1545.8 1891.8,1544.3 1865.8,1543.0 1839.6,1542.1 1813.3,1541.4 1787.0,1541.1 1760.5,1541.0 1734.0,1541.3 1707.4,1542.0 1680.8,1542.9 1654.1,1544.3 1627.5,1545.9 1600.8,1547.9 1574.1,1550.3 1547.4,1553.0 1520.8,1556.1 1494.2,1559.6 1467.6,1563.4 1441.1,1567.5 1414.7,1572.0 1388.4,1576.8 1362.2,1582.0 1336.1,1587.5 1310.1,1593.3 1284.2,1599.5 1258.5,1605.9 1232.9,1612.7 1207.5,1619.7 1182.2,1627.0 1157.2,1634.6 1132.3,1642.4 1107.7,1650.5 1083.2,1658.8 1059.0,1667.3 1035.0,1675.9 1011.3,1684.8  A 522.500,522.500 0.00 0,1 1003.4,1662.6 L 1003.4,1662.6 1027.8,1654.7 1052.4,1647.0 1077.2,1639.4 1102.1,1632.0 1127.3,1624.8 1152.5,1617.8 1178.0,1611.0 1203.6,1604.3 1229.4,1598.0 1255.2,1591.8 1281.2,1585.9 1307.4,1580.3 1333.6,1574.9 1359.9,1569.8 1386.3,1564.9 1412.8,1560.3 1439.4,1556.0 1466.0,1552.0 1492.7,1548.3 1519.4,1544.8 1546.1,1541.7 1572.9,1538.8 1599.7,1536.2 1626.5,1533.9 1653.2,1531.9 1680.0,1530.1 1706.7,1528.7 1733.4,1527.5 1760.1,1526.6 1786.7,1525.9 1813.2,1525.6 1839.6,1525.4 1866.0,1525.6 1892.2,1525.9 1918.4,1526.5 1944.4,1527.3 1970.3,1528.4 1996.0,1529.6 2021.6,1531.0  Z" style="stroke-width: 0.5;  stroke: rgb(0,0,0); fill: rgb(179,177,178);" />
<path d="M 1871.278,1132.360 A 522.500,522.500 0.00 0,1 1882.2,1143.8 L 1882.2,1143.8 1865.1,1159.4 1847.5,1174.7 1829.4,1189.8 1810.9,1204.5 1791.9,1218.8 1772.4,1232.6 1752.6,1245.9 1732.3,1258.7 1711.7,1270.8 1690.7,1282.3 1669.4,1293.2 1647.7,1303.3 1625.8,1312.7 1603.6,1321.3 1581.1,1329.1 1558.3,1336.2 1535.4,1342.4 1512.2,1347.7 1488.9,1352.2 1465.5,1355.9 1441.9,1358.7 1418.2,1360.7 1394.5,1361.8 1370.7,1362.0 1346.9,1361.4 1323.1,1360.0 1299.3,1357.7 1275.6,1354.7 1252.0,1350.9 1228.5,1346.3 1205.1,1341.1 1181.9,1335.1 1159.0,1328.5 1136.2,1321.3 1113.8,1313.4 1091.6,1305.1 1069.8,1296.3 1048.4,1287.0 1027.3,1277.4  A 522.500,522.500 0.00 0,1 1034.0,1263.6 L 1034.0,1263.6 1054.7,1273.8 1075.7,1283.6 1097.1,1292.9 1118.8,1301.8 1140.9,1310.1 1163.2,1317.8 1185.8,1324.9 1208.5,1331.3 1231.5,1337.0 1254.6,1342.0 1277.8,1346.1 1301.2,1349.5 1324.5,1352.1 1348.0,1353.8 1371.4,1354.6 1394.8,1354.5 1418.1,1353.6 1441.4,1351.8 1464.5,1349.1 1487.6,1345.5 1510.5,1341.0 1533.2,1335.6 1555.7,1329.3 1578.0,1322.2 1600.0,1314.2 1621.8,1305.5 1643.2,1295.9 1664.4,1285.5 1685.3,1274.5 1705.7,1262.7 1725.9,1250.2 1745.6,1237.2 1764.9,1223.5 1783.8,1209.3 1802.2,1194.7 1820.2,1179.6 1837.7,1164.1 1854.8,1148.4 1871.3,1132.4  Z" style="stroke-width: 0.5;  stroke: rgb(0,0,0); fill: rgb(179,177,178);" />
<path d="M 1611.364,989.506 A 522.500,522.500 0.00 0,1 1622.6,992.1 L 1622.6,992.1 1617.6,1012.1 1612.2,1031.9 1606.5,1051.5 1600.3,1070.7 1593.8,1089.3 1586.9,1107.3 1579.6,1124.6 1572.0,1141.1 1564.0,1156.6 1555.7,1171.2 1547.0,1184.7 1538.0,1197.0 1528.6,1208.2 1519.0,1218.1 1509.0,1226.8 1498.7,1234.1 1488.2,1240.0 1477.4,1244.6 1466.3,1247.8 1455.0,1249.5 1443.5,1249.9 1431.9,1248.8 1420.0,1246.4 1408.0,1242.6 1395.9,1237.4 1383.6,1230.9 1371.3,1223.1 1358.9,1214.1 1346.5,1203.9 1334.2,1192.6 1321.8,1180.2 1309.5,1166.9 1297.3,1152.6 1285.3,1137.6 1273.4,1121.8 1261.7,1105.5 1250.2,1088.6 1239.0,1071.3 1228.1,1053.8  A 522.500,522.500 0.00 0,1 1238.1,1047.9 L 1238.1,1047.9 1248.5,1065.6 1259.3,1083.0 1270.3,1100.1 1281.5,1116.7 1292.9,1132.7 1304.5,1147.9 1316.2,1162.4 1328.0,1175.9 1339.8,1188.5 1351.6,1200.0 1363.5,1210.4 1375.3,1219.6 1387.0,1227.5 1398.7,1234.2 1410.3,1239.5 1421.7,1243.5 1433.0,1246.1 1444.1,1247.3 1455.0,1247.0 1465.6,1245.3 1476.1,1242.2 1486.3,1237.7 1496.2,1231.8 1505.9,1224.6 1515.3,1216.0 1524.4,1206.1 1533.1,1194.9 1541.6,1182.5 1549.7,1169.0 1557.4,1154.5 1564.9,1138.9 1571.9,1122.4 1578.6,1105.0 1585.0,1087.0 1591.0,1068.3 1596.6,1049.1 1601.9,1029.5 1606.8,1009.6 1611.4,989.5  Z" style="stroke-width: 0.5;  stroke: rgb(0,0,0); fill: rgb(179,177,178);" />
<path d="M 1974.562,1281.375 A 522.500,522.500 0.00 0,1 1978.9,1291.0 L 1978.9,1291.0 1955.5,1301.1 1931.9,1311.1 1908.0,1320.8 1884.0,1330.4 1859.7,1339.9 1835.2,1349.1 1810.6,1358.1 1785.7,1366.8 1760.7,1375.3 1735.5,1383.6 1710.1,1391.6 1684.6,1399.3 1659.0,1406.8 1633.2,1414.0 1607.3,1420.8 1581.3,1427.4 1555.2,1433.6 1529.0,1439.6 1502.7,1445.2 1476.3,1450.5 1449.9,1455.5 1423.4,1460.2 1397.0,1464.5 1370.4,1468.5 1343.9,1472.2 1317.4,1475.6 1290.8,1478.7 1264.3,1481.4 1237.8,1483.9 1211.4,1486.0 1185.0,1487.8 1158.7,1489.4 1132.5,1490.6 1106.3,1491.6 1080.3,1492.3 1054.4,1492.8 1028.6,1493.0 1003.0,1493.0 977.6,1492.7  A 522.500,522.500 0.00 0,1 977.8,1482.1 L 977.8,1482.1 1003.1,1482.8 1028.6,1483.3 1054.3,1483.6 1080.1,1483.6 1106.0,1483.3 1132.1,1482.7 1158.3,1481.8 1184.5,1480.7 1210.8,1479.2 1237.2,1477.3 1263.7,1475.2 1290.1,1472.7 1316.6,1469.8 1343.1,1466.6 1369.6,1463.1 1396.1,1459.2 1422.6,1455.0 1449.0,1450.4 1475.3,1445.5 1501.6,1440.2 1527.9,1434.5 1554.0,1428.5 1580.0,1422.2 1605.9,1415.5 1631.7,1408.5 1657.4,1401.2 1682.9,1393.6 1708.3,1385.6 1733.5,1377.4 1758.6,1368.9 1783.4,1360.1 1808.1,1351.0 1832.5,1341.7 1856.8,1332.1 1880.8,1322.4 1904.6,1312.4 1928.2,1302.2 1951.5,1291.9 1974.6,1281.4  Z" style="stroke-width: 0.5;  stroke: rgb(0,0,0); fill: rgb(179,177,178);" />
</g>
<g id="plot0">
<g id="plot0-axis">
</g>
<line x1='2243.3' y1='1599.8' x2='2243.3' y2='1599.8' style="stroke-width:14.0;stroke:rgb(0,0,0);stroke-linecap:round;fill:none;" />
<line x1='2243.3' y1='1599.8' x2='2283.0' y2='1605.1' style="stroke-width:14.0;stroke:rgb(0,0,0);stroke-linecap:round;fill:none;" />
<line x1='2283.0' y1='1605.1' x2='2283.0' y2='1605.1' style="stroke-width:14.0;stroke:rgb(0,0,0);stroke-linecap:round;fill:none;" />
<text x="2299.6" y="1629.5" font-size="46.8px" font-family="CMUBright-Roman" style="text-anchor:start;fill:rgb(255,38,78);" transform="rotate(7.6,2299.6,1629.5)" >Histocap343p18<tspan baseline-shift="-40%" font-size="90%">s</tspan>02064</text>
</g>
<defs>
<pattern id="checker" width="10" height="10" patternTransform="rotate(45 0 0)" patternUnits="userSpaceOnUse"><line x1="0" y1="0" x2="10" y2="0" style="stroke:black;stroke-width:2" /><line x1="0" y1="0" x2="0" y2="10" style="stroke:black;stroke-width:2" /></pattern>
<pattern id="hline-sparse" width="10" height="10" patternTransform="rotate(0 0 0)" patternUnits="userSpaceOnUse"><line x1="0" y1="0" x2="10" y2="0" style="stroke:black;stroke-width:2" /></pattern>
<pattern id="vline" width="10" height="10" patternTransform="rotate(0 0 0)" patternUnits="userSpaceOnUse"><line x1="0" y1="0" x2="0" y2="10" style="stroke:black;stroke-width:5" /></pattern>
<pattern id="vline-sparse" width="10" height="10" patternTransform="rotate(0 0 0)" patternUnits="userSpaceOnUse"><line x1="0" y1="0" x2="0" y2="10" style="stroke:black;stroke-width:2" /></pattern>
<pattern id="hline" width="10" height="10" patternTransform="rotate(0 0 0)" patternUnits="userSpaceOnUse"><line x1="0" y1="0" x2="10" y2="0" style="stroke:black;stroke-width:5" /></pattern>
<pattern id="checker" width="10" height="10" patternTransform="rotate(45 0 0)" patternUnits="userSpaceOnUse"><line x1="0" y1="0" x2="10" y2="0" style="stroke:black;stroke-width:5" /><line x1="0" y1="0" x2="0" y2="10" style="stroke:black;stroke-width:4" /></pattern>
</defs>
</svg>
