<?xml version="1.0" encoding="utf-8" standalone="no"?>
<!DOCTYPE svg PUBLIC "-//W3C//DTD SVG 1.1//EN" "http://www.w3.org/Graphics/SVG/1.1/DTD/svg11.dtd">
<svg width="3000px" height="3000px" version="1.1" xmlns="http://www.w3.org/2000/svg" xmlns:xlink="http://www.w3.org/1999/xlink">
<g id="bg">
<rect x="0" y="0" width="3000px" height="3000px" style="fill:rgb(255,255,255);"/>
</g>
<g id="ideograms">
<path d="M1500.000,950.000 A550.000,550.000 40.000 0,1 1693.816,2014.719 L1764.294,2201.889 A750.000,750.000 0.000 0,0 1500.000,750.000 Z" style="stroke-width:2.0;stroke:rgb(0,0,0);stroke-linecap:round;fill:rgb(179,177,178);" />
<text x="2459.2" y="1325.4" font-size="46.8px" font-family="CMUBright-Roman" style="text-anchor:middle;fill:rgb(0,0,0);" transform="rotate(439.7,2459.2,1325.4)" >Histocap122p10B<tspan baseline-shift="-40%" font-size="90%">5</tspan></text>
<line x1='1552.7' y1='751.9' x2='1553.5' y2='739.9' style="stroke-width:8.0;stroke:rgb(150,150,150);stroke-linecap:round;fill:none;" />
<line x1='1652.6' y1='765.7' x2='1655.1' y2='753.9' style="stroke-width:8.0;stroke:rgb(150,150,150);stroke-linecap:round;fill:none;" />
<line x1='1749.8' y1='792.8' x2='1753.8' y2='781.5' style="stroke-width:8.0;stroke:rgb(150,150,150);stroke-linecap:round;fill:none;" />
<line x1='1842.5' y1='832.8' x2='1847.9' y2='822.1' style="stroke-width:8.0;stroke:rgb(150,150,150);stroke-linecap:round;fill:none;" />
<text x="1865.8" y="817.9" font-size="41.6px" font-family="CMUBright-Roman" style="text-anchor:start;fill:rgb(150,150,150);" transform="rotate(297.2,1865.8,817.9)" >2700 kb</text>
<line x1='1928.9' y1='884.8' x2='1935.8' y2='874.9' style="stroke-width:8.0;stroke:rgb(150,150,150);stroke-linecap:round;fill:none;" />
<line x1='2007.6' y1='947.9' x2='2015.7' y2='939.1' style="stroke-width:8.0;stroke:rgb(150,150,150);stroke-linecap:round;fill:none;" />
<line x1='2077.1' y1='1021.0' x2='2086.4' y2='1013.4' style="stroke-width:8.0;stroke:rgb(150,150,150);stroke-linecap:round;fill:none;" />
<line x1='2136.2' y1='1102.8' x2='2146.4' y2='1096.5' style="stroke-width:8.0;stroke:rgb(150,150,150);stroke-linecap:round;fill:none;" />
<line x1='2183.8' y1='1191.8' x2='2194.7' y2='1186.9' style="stroke-width:8.0;stroke:rgb(150,150,150);stroke-linecap:round;fill:none;" />
<text x="2211.3" y="1194.8" font-size="41.6px" font-family="CMUBright-Roman" style="text-anchor:start;fill:rgb(150,150,150);" transform="rotate(335.7,2211.3,1194.8)" >2750 kb</text>
<line x1='2218.9' y1='1286.4' x2='2230.4' y2='1283.0' style="stroke-width:8.0;stroke:rgb(150,150,150);stroke-linecap:round;fill:none;" />
<line x1='2241.1' y1='1384.8' x2='2253.0' y2='1383.0' style="stroke-width:8.0;stroke:rgb(150,150,150);stroke-linecap:round;fill:none;" />
<line x1='2249.9' y1='1485.3' x2='2261.9' y2='1485.1' style="stroke-width:8.0;stroke:rgb(150,150,150);stroke-linecap:round;fill:none;" />
<line x1='2245.0' y1='1586.1' x2='2257.0' y2='1587.5' style="stroke-width:8.0;stroke:rgb(150,150,150);stroke-linecap:round;fill:none;" />
<line x1='2226.7' y1='1685.3' x2='2238.4' y2='1688.3' style="stroke-width:8.0;stroke:rgb(150,150,150);stroke-linecap:round;fill:none;" />
<text x="2246.4" y="1704.8" font-size="41.6px" font-family="CMUBright-Roman" style="text-anchor:start;fill:rgb(150,150,150);" transform="rotate(14.3,2246.4,1704.8)" >2800 kb</text>
<line x1='2195.3' y1='1781.2' x2='2206.4' y2='1785.7' style="stroke-width:8.0;stroke:rgb(150,150,150);stroke-linecap:round;fill:none;" />
<line x1='2151.3' y1='1872.0' x2='2161.7' y2='1877.9' style="stroke-width:8.0;stroke:rgb(150,150,150);stroke-linecap:round;fill:none;" />
<line x1='2095.4' y1='1956.0' x2='2105.0' y2='1963.3' style="stroke-width:8.0;stroke:rgb(150,150,150);stroke-linecap:round;fill:none;" />
<line x1='2028.8' y1='2031.8' x2='2037.3' y2='2040.3' style="stroke-width:8.0;stroke:rgb(150,150,150);stroke-linecap:round;fill:none;" />
<line x1='1952.7' y1='2098.0' x2='1959.9' y2='2107.6' style="stroke-width:8.0;stroke:rgb(150,150,150);stroke-linecap:round;fill:none;" />
<text x="1955.9" y="2125.5" font-size="41.6px" font-family="CMUBright-Roman" style="text-anchor:start;fill:rgb(150,150,150);" transform="rotate(52.9,1955.9,2125.5)" >2850 kb</text>
<line x1='1868.3' y1='2153.3' x2='1874.2' y2='2163.8' style="stroke-width:8.0;stroke:rgb(150,150,150);stroke-linecap:round;fill:none;" />
<line x1='1777.3' y1='2196.9' x2='1781.7' y2='2208.0' style="stroke-width:8.0;stroke:rgb(150,150,150);stroke-linecap:round;fill:none;" />
<g id="highlighttrack_0">
<path d="M2036.198,1377.557 A550.000,550.000 40.000 0,1 2044.950,1425.636 L2243.113,1398.595 A750.000,750.000 0.000 0,0 2231.178,1333.033 Z" style="stroke-width:14.0;stroke:rgb(0,0,0);stroke-linecap:round;fill:rgb(255,38,78);" />
</g>
<path d="M1500.000,950.000 A550.000,550.000 40.000 0,1 1693.816,2014.719 L1764.294,2201.889 A750.000,750.000 0.000 0,0 1500.000,750.000 Z" style="stroke-width:2.0;stroke:rgb(0,0,0);stroke-linecap:round;fill:none;" />
<path d="M1475.939,2049.473 A550.000,550.000 40.000 0,1 1283.852,994.253 L1205.253,810.345 A750.000,750.000 0.000 0,0 1467.190,2249.282 Z" style="stroke-width:2.0;stroke:rgb(0,0,0);stroke-linecap:round;fill:rgb(179,177,178);" />
<text x="497.5" y="1682.5" font-size="46.8px" font-family="CMUBright-Roman" style="text-anchor:middle;fill:rgb(0,0,0);" transform="rotate(79.7,497.5,1682.5)" >Histocap316p10<tspan baseline-shift="-40%" font-size="90%">5</tspan></text>
<line x1='1194.2' y1='815.2' x2='1189.3' y2='804.2' style="stroke-width:8.0;stroke:rgb(150,150,150);stroke-linecap:round;fill:none;" />
<line x1='1105.1' y1='862.4' x2='1098.8' y2='852.2' style="stroke-width:8.0;stroke:rgb(150,150,150);stroke-linecap:round;fill:none;" />
<line x1='1023.1' y1='921.2' x2='1015.4' y2='911.9' style="stroke-width:8.0;stroke:rgb(150,150,150);stroke-linecap:round;fill:none;" />
<text x="997.1" y="911.7" font-size="41.6px" font-family="CMUBright-Roman" style="text-anchor:end;fill:rgb(150,150,150);" transform="rotate(50.5,997.1,911.7)" >2700 kb</text>
<line x1='949.7' y1='990.4' x2='940.9' y2='982.3' style="stroke-width:8.0;stroke:rgb(150,150,150);stroke-linecap:round;fill:none;" />
<line x1='886.3' y1='1068.9' x2='876.5' y2='1062.0' style="stroke-width:8.0;stroke:rgb(150,150,150);stroke-linecap:round;fill:none;" />
<line x1='834.0' y1='1155.2' x2='823.3' y2='1149.7' style="stroke-width:8.0;stroke:rgb(150,150,150);stroke-linecap:round;fill:none;" />
<line x1='793.7' y1='1247.7' x2='782.4' y2='1243.7' style="stroke-width:8.0;stroke:rgb(150,150,150);stroke-linecap:round;fill:none;" />
<line x1='766.2' y1='1344.8' x2='754.5' y2='1342.3' style="stroke-width:8.0;stroke:rgb(150,150,150);stroke-linecap:round;fill:none;" />
<text x="740.0" y="1353.5" font-size="41.6px" font-family="CMUBright-Roman" style="text-anchor:end;fill:rgb(150,150,150);" transform="rotate(11.9,740.0,1353.5)" >2750 kb</text>
<line x1='752.0' y1='1444.7' x2='740.1' y2='1443.8' style="stroke-width:8.0;stroke:rgb(150,150,150);stroke-linecap:round;fill:none;" />
<line x1='751.4' y1='1545.6' x2='739.4' y2='1546.3' style="stroke-width:8.0;stroke:rgb(150,150,150);stroke-linecap:round;fill:none;" />
<line x1='764.3' y1='1645.6' x2='752.5' y2='1648.0' style="stroke-width:8.0;stroke:rgb(150,150,150);stroke-linecap:round;fill:none;" />
<line x1='790.5' y1='1743.1' x2='779.1' y2='1747.0' style="stroke-width:8.0;stroke:rgb(150,150,150);stroke-linecap:round;fill:none;" />
<line x1='829.5' y1='1836.1' x2='818.8' y2='1841.5' style="stroke-width:8.0;stroke:rgb(150,150,150);stroke-linecap:round;fill:none;" />
<text x="814.5" y="1859.3" font-size="41.6px" font-family="CMUBright-Roman" style="text-anchor:end;fill:rgb(150,150,150);" transform="rotate(-26.6,814.5,1859.3)" >2800 kb</text>
<line x1='880.7' y1='1923.1' x2='870.8' y2='1929.8' style="stroke-width:8.0;stroke:rgb(150,150,150);stroke-linecap:round;fill:none;" />
<line x1='943.1' y1='2002.3' x2='934.2' y2='2010.4' style="stroke-width:8.0;stroke:rgb(150,150,150);stroke-linecap:round;fill:none;" />
<line x1='1015.6' y1='2072.6' x2='1007.8' y2='2081.7' style="stroke-width:8.0;stroke:rgb(150,150,150);stroke-linecap:round;fill:none;" />
<line x1='1096.8' y1='2132.4' x2='1090.3' y2='2142.5' style="stroke-width:8.0;stroke:rgb(150,150,150);stroke-linecap:round;fill:none;" />
<line x1='1185.3' y1='2180.8' x2='1180.3' y2='2191.7' style="stroke-width:8.0;stroke:rgb(150,150,150);stroke-linecap:round;fill:none;" />
<text x="1188.0" y="2208.3" font-size="41.6px" font-family="CMUBright-Roman" style="text-anchor:end;fill:rgb(150,150,150);" transform="rotate(-65.2,1188.0,2208.3)" >2850 kb</text>
<line x1='1279.5' y1='2216.9' x2='1276.0' y2='2228.3' style="stroke-width:8.0;stroke:rgb(150,150,150);stroke-linecap:round;fill:none;" />
<line x1='1377.8' y1='2240.0' x2='1375.8' y2='2251.8' style="stroke-width:8.0;stroke:rgb(150,150,150);stroke-linecap:round;fill:none;" />
<path d="M1475.939,2049.473 A550.000,550.000 40.000 0,1 1283.852,994.253 L1205.253,810.345 A750.000,750.000 0.000 0,0 1467.190,2249.282 Z" style="stroke-width:2.0;stroke:rgb(0,0,0);stroke-linecap:round;fill:none;" />
</g>
<g id="track_0">
<path d="M 1865.519,1126.634 A 522.500,522.500 0.00 0,1 1981.2,1296.5 L 1981.2,1296.5 1957.7,1306.4 1933.9,1316.1 1909.8,1325.7 1885.6,1335.1 1861.2,1344.3 1836.6,1353.4 1811.8,1362.2 1786.9,1370.8 1761.7,1379.2 1736.4,1387.4 1711.0,1395.3 1685.4,1403.0 1659.7,1410.4 1633.9,1417.5 1608.0,1424.4 1581.9,1431.0 1555.8,1437.2 1529.6,1443.3 1503.3,1449.0 1476.9,1454.4 1450.5,1459.5 1424.0,1464.3 1397.5,1468.8 1371.0,1473.1 1344.4,1477.0 1317.9,1480.6 1291.3,1483.9 1264.8,1487.0 1238.3,1489.7 1211.8,1492.2 1185.4,1494.4 1159.1,1496.3 1132.8,1498.0 1106.7,1499.3 1080.6,1500.5 1054.6,1501.4 1028.8,1502.1 1003.1,1502.5 977.5,1502.7  A 522.500,522.500 0.00 0,1 1016.9,1301.0 L 1016.9,1301.0 1038.4,1309.6 1060.3,1317.8 1082.5,1325.5 1105.1,1332.8 1127.9,1339.5 1151.0,1345.6 1174.2,1351.1 1197.7,1355.9 1221.3,1360.1 1245.0,1363.5 1268.8,1366.1 1292.7,1368.0 1316.5,1369.1 1340.4,1369.3 1364.2,1368.8 1388.0,1367.4 1411.7,1365.2 1435.3,1362.1 1458.7,1358.1 1482.0,1353.4 1505.1,1347.7 1528.0,1341.3 1550.6,1334.0 1573.0,1325.9 1595.2,1317.0 1617.0,1307.3 1638.5,1296.9 1659.7,1285.8 1680.5,1274.0 1700.9,1261.5 1721.0,1248.4 1740.6,1234.7 1759.9,1220.5 1778.7,1205.8 1797.0,1190.6 1814.9,1175.1 1832.2,1159.2 1849.1,1143.0 1865.5,1126.6  Z" style="stroke-width: 0.5;  stroke: rgb(0,0,0); fill: rgb(179,177,178);" />
<path d="M 1882.568,1855.877 A 522.500,522.500 0.00 0,1 1716.1,1975.7 L 1716.1,1975.7 1707.4,1957.1 1698.4,1938.6 1689.1,1920.5 1679.5,1902.9 1669.6,1885.8 1659.5,1869.5 1649.2,1853.9 1638.7,1839.2 1628.1,1825.5 1617.3,1812.8 1606.4,1801.2 1595.3,1790.9 1584.2,1781.7 1573.1,1773.9 1561.9,1767.3 1550.6,1762.2 1539.4,1758.4 1528.2,1756.0 1517.0,1755.1 1505.9,1755.6 1494.8,1757.5 1483.9,1760.9 1473.0,1765.7 1462.3,1771.8 1451.7,1779.3 1441.3,1788.1 1431.1,1798.2 1421.0,1809.6 1411.2,1822.0 1401.5,1835.6 1392.2,1850.3 1383.0,1865.8 1374.2,1882.3 1365.6,1899.5 1357.3,1917.3 1349.3,1935.7 1341.7,1954.6 1334.3,1973.8 1327.4,1993.2  A 522.500,522.500 0.00 0,1 1150.8,1888.7 L 1150.8,1888.7 1165.8,1872.4 1181.3,1856.4 1197.2,1840.8 1213.6,1825.6 1230.5,1810.9 1247.7,1796.9 1265.4,1783.4 1283.4,1770.8 1301.7,1758.8 1320.4,1747.7 1339.3,1737.5 1358.5,1728.2 1378.0,1719.9 1397.6,1712.6 1417.5,1706.3 1437.5,1701.0 1457.7,1696.8 1478.0,1693.7 1498.4,1691.7 1518.8,1690.8 1539.3,1691.0 1559.7,1692.2 1580.2,1694.6 1600.6,1698.1 1621.0,1702.6 1641.2,1708.1 1661.3,1714.7 1681.3,1722.2 1701.1,1730.7 1720.7,1740.1 1740.0,1750.3 1759.1,1761.3 1777.8,1773.1 1796.3,1785.6 1814.4,1798.7 1832.1,1812.3 1849.4,1826.5 1866.2,1841.0 1882.6,1855.9  Z" style="stroke-width: 0.5;  stroke: rgb(0,0,0); fill: rgb(179,177,178);" />
<path d="M 1736.045,1033.857 A 522.500,522.500 0.00 0,1 1865.0,1126.1 L 1865.0,1126.1 1848.7,1142.5 1831.8,1158.7 1814.4,1174.6 1796.6,1190.2 1778.3,1205.4 1759.5,1220.1 1740.3,1234.3 1720.7,1248.0 1700.7,1261.1 1680.2,1273.6 1659.4,1285.5 1638.3,1296.6 1616.8,1307.0 1595.0,1316.7 1572.9,1325.6 1550.5,1333.7 1527.9,1341.0 1505.0,1347.4 1481.9,1353.0 1458.7,1357.8 1435.2,1361.8 1411.7,1364.8 1388.0,1367.1 1364.2,1368.4 1340.4,1369.0 1316.6,1368.7 1292.7,1367.6 1268.9,1365.7 1245.1,1363.0 1221.4,1359.6 1197.8,1355.5 1174.4,1350.6 1151.1,1345.1 1128.1,1339.0 1105.3,1332.2 1082.7,1325.0 1060.5,1317.2 1038.6,1309.0 1017.1,1300.4  A 522.500,522.500 0.00 0,1 1099.3,1164.7 L 1099.3,1164.7 1116.0,1178.4 1133.2,1191.7 1150.7,1204.5 1168.6,1216.8 1186.7,1228.5 1205.0,1239.5 1223.6,1249.7 1242.3,1259.1 1261.1,1267.6 1280.1,1275.1 1299.0,1281.7 1318.0,1287.2 1336.9,1291.6 1355.8,1294.9 1374.6,1297.1 1393.3,1298.2 1411.9,1298.1 1430.2,1296.7 1448.4,1294.2 1466.3,1290.6 1484.0,1285.7 1501.4,1279.7 1518.4,1272.5 1535.2,1264.1 1551.6,1254.7 1567.7,1244.2 1583.3,1232.7 1598.6,1220.1 1613.4,1206.6 1627.9,1192.2 1641.8,1177.0 1655.3,1161.0 1668.3,1144.3 1680.9,1127.0 1692.9,1109.1 1704.5,1090.7 1715.5,1072.0 1726.0,1053.0 1736.0,1033.9  Z" style="stroke-width: 0.5;  stroke: rgb(0,0,0); fill: rgb(179,177,178);" />
<path d="M 1992.885,1673.409 A 522.500,522.500 0.00 0,1 1924.0,1805.4 L 1924.0,1805.4 1905.4,1792.3 1886.3,1779.5 1866.8,1767.2 1846.9,1755.3 1826.6,1744.0 1806.0,1733.2 1785.0,1723.0 1763.8,1713.6 1742.3,1704.8 1720.6,1696.8 1698.6,1689.6 1676.5,1683.3 1654.2,1677.8 1631.8,1673.2 1609.3,1669.5 1586.7,1666.7 1564.1,1664.9 1541.5,1664.0 1518.8,1664.1 1496.2,1665.1 1473.7,1667.1 1451.2,1670.1 1428.8,1673.9 1406.6,1678.8 1384.5,1684.5 1362.6,1691.1 1341.0,1698.6 1319.5,1707.0 1298.3,1716.1 1277.4,1726.1 1256.8,1736.7 1236.5,1748.1 1216.6,1760.1 1197.0,1772.7 1177.9,1785.9 1159.1,1799.5 1140.8,1813.6 1123.0,1828.1 1105.7,1842.8  A 522.500,522.500 0.00 0,1 1025.0,1717.6 L 1025.0,1717.6 1047.2,1707.6 1069.9,1697.9 1092.8,1688.5 1116.1,1679.3 1139.6,1670.6 1163.5,1662.2 1187.6,1654.2 1212.0,1646.6 1236.6,1639.5 1261.4,1632.9 1286.4,1626.8 1311.6,1621.1 1336.9,1616.0 1362.4,1611.4 1388.0,1607.4 1413.8,1603.9 1439.6,1601.0 1465.5,1598.7 1491.4,1596.9 1517.4,1595.7 1543.4,1595.1 1569.4,1595.1 1595.4,1595.6 1621.3,1596.7 1647.2,1598.4 1673.0,1600.6 1698.7,1603.4 1724.3,1606.7 1749.8,1610.6 1775.1,1614.9 1800.2,1619.7 1825.2,1625.1 1849.9,1630.8 1874.4,1637.0 1898.7,1643.6 1922.7,1650.5 1946.4,1657.8 1969.8,1665.5 1992.9,1673.4  Z" style="stroke-width: 0.5;  stroke: rgb(0,0,0); fill: rgb(179,177,178);" />
<path d="M 1500.000,977.500 A 522.500,522.500 0.00 0,1 1528.3,978.3 L 1528.3,978.3 1527.1,998.5 1525.6,1018.6 1523.8,1038.5 1521.8,1058.0 1519.4,1076.9 1516.7,1095.2 1513.8,1112.8 1510.4,1129.5 1506.8,1145.2 1502.8,1160.0 1498.5,1173.6 1493.9,1186.0 1488.9,1197.3 1483.5,1207.2 1477.9,1215.8 1471.9,1223.0 1465.6,1228.8 1458.9,1233.1 1452.0,1236.0 1444.8,1237.4 1437.3,1237.3 1429.5,1235.8 1421.4,1232.9 1413.2,1228.5 1404.7,1222.6 1396.0,1215.5 1387.1,1207.0 1378.1,1197.2 1369.0,1186.2 1359.7,1174.1 1350.4,1160.8 1341.0,1146.6 1331.7,1131.5 1322.3,1115.6 1312.9,1098.9 1303.7,1081.7 1294.6,1063.9 1285.6,1045.9 1276.8,1027.6  A 522.500,522.500 0.00 0,1 1294.7,1019.5 L 1294.7,1019.5 1302.7,1038.1 1310.9,1056.4 1319.2,1074.4 1327.6,1092.0 1336.0,1108.9 1344.5,1125.2 1352.9,1140.6 1361.3,1155.1 1369.5,1168.6 1377.7,1181.1 1385.8,1192.4 1393.6,1202.4 1401.3,1211.2 1408.8,1218.7 1416.1,1224.7 1423.1,1229.4 1429.9,1232.6 1436.4,1234.4 1442.6,1234.6 1448.5,1233.4 1454.1,1230.7 1459.4,1226.6 1464.3,1221.0 1469.0,1213.9 1473.3,1205.5 1477.2,1195.7 1480.9,1184.6 1484.1,1172.2 1487.1,1158.7 1489.7,1144.0 1492.0,1128.3 1494.0,1111.7 1495.7,1094.2 1497.1,1075.9 1498.2,1057.1 1499.0,1037.6 1499.6,1017.8 1499.9,997.7 1500.0,977.5  Z" style="stroke-width: 0.5;  stroke: rgb(0,0,0); fill: rgb(179,177,178);" />
<path d="M 2016.393,1579.650 A 522.500,522.500 0.00 0,1 1996.5,1662.7 L 1996.5,1662.7 1973.2,1655.2 1949.6,1648.1 1925.7,1641.2 1901.5,1634.7 1877.0,1628.6 1852.3,1622.9 1827.4,1617.6 1802.3,1612.7 1777.0,1608.3 1751.5,1604.3 1725.9,1600.9 1700.2,1598.0 1674.4,1595.6 1648.5,1593.7 1622.5,1592.4 1596.4,1591.6 1570.4,1591.3 1544.3,1591.7 1518.2,1592.6 1492.2,1594.0 1466.1,1596.0 1440.2,1598.6 1414.3,1601.7 1388.5,1605.4 1362.8,1609.6 1337.3,1614.3 1311.9,1619.5 1286.6,1625.3 1261.6,1631.6 1236.7,1638.3 1212.1,1645.5 1187.6,1653.1 1163.5,1661.1 1139.5,1669.5 1115.9,1678.3 1092.6,1687.5 1069.6,1696.9 1046.9,1706.7 1024.5,1716.6  A 522.500,522.500 0.00 0,1 995.6,1636.3 L 995.6,1636.3 1020.2,1629.8 1045.1,1623.4 1070.1,1617.2 1095.3,1611.2 1120.8,1605.4 1146.3,1599.9 1172.1,1594.6 1197.9,1589.5 1224.0,1584.8 1250.1,1580.2 1276.4,1576.0 1302.7,1572.0 1329.2,1568.4 1355.8,1565.0 1382.4,1561.9 1409.1,1559.2 1435.8,1556.7 1462.6,1554.6 1489.5,1552.8 1516.3,1551.3 1543.2,1550.1 1570.0,1549.3 1596.9,1548.8 1623.7,1548.5 1650.5,1548.6 1677.3,1549.0 1704.0,1549.8 1730.7,1550.8 1757.2,1552.1 1783.7,1553.7 1810.1,1555.6 1836.4,1557.7 1862.6,1560.2 1888.6,1562.8 1914.5,1565.8 1940.2,1568.9 1965.8,1572.3 1991.2,1575.9 2016.4,1579.6  Z" style="stroke-width: 0.5;  stroke: rgb(0,0,0); fill: rgb(179,177,178);" />
<path d="M 1571.386,982.399 A 522.500,522.500 0.00 0,1 1621.3,991.8 L 1621.3,991.8 1616.3,1011.9 1610.9,1031.9 1605.1,1051.6 1598.8,1070.9 1592.1,1089.8 1585.0,1108.0 1577.5,1125.5 1569.6,1142.3 1561.3,1158.1 1552.5,1173.0 1543.4,1186.9 1533.8,1199.7 1523.9,1211.3 1513.6,1221.7 1502.9,1230.9 1491.8,1238.8 1480.5,1245.3 1468.8,1250.5 1456.8,1254.4 1444.5,1256.9 1431.9,1258.0 1419.1,1257.7 1406.1,1256.1 1392.9,1253.1 1379.5,1248.8 1365.9,1243.2 1352.3,1236.3 1338.5,1228.3 1324.7,1219.1 1310.8,1208.7 1297.0,1197.3 1283.2,1185.0 1269.5,1171.8 1255.9,1157.7 1242.4,1142.9 1229.1,1127.5 1216.1,1111.6 1203.4,1095.3 1190.9,1078.7  A 522.500,522.500 0.00 0,1 1233.3,1050.7 L 1233.3,1050.7 1243.9,1068.2 1254.8,1085.5 1265.8,1102.4 1277.1,1118.8 1288.5,1134.6 1299.9,1149.6 1311.5,1163.9 1323.1,1177.2 1334.6,1189.6 1346.2,1200.9 1357.6,1211.1 1369.0,1220.0 1380.2,1227.8 1391.3,1234.2 1402.2,1239.3 1412.9,1243.0 1423.4,1245.3 1433.6,1246.2 1443.6,1245.7 1453.3,1243.7 1462.7,1240.3 1471.8,1235.5 1480.5,1229.3 1488.9,1221.7 1497.0,1212.8 1504.7,1202.6 1512.1,1191.1 1519.1,1178.5 1525.7,1164.6 1531.9,1149.8 1537.8,1133.9 1543.3,1117.1 1548.4,1099.4 1553.1,1081.1 1557.5,1062.1 1561.5,1042.7 1565.1,1022.8 1568.4,1002.7 1571.4,982.4  Z" style="stroke-width: 0.5;  stroke: rgb(0,0,0); fill: rgb(179,177,178);" />
<path d="M 1626.987,993.166 A 522.500,522.500 0.00 0,1 1672.5,1006.8 L 1672.5,1006.8 1665.4,1026.6 1657.7,1046.3 1649.6,1065.6 1641.0,1084.6 1632.0,1103.1 1622.5,1121.1 1612.6,1138.3 1602.2,1154.8 1591.3,1170.4 1580.1,1185.2 1568.4,1198.9 1556.3,1211.6 1543.9,1223.2 1531.0,1233.7 1517.8,1243.0 1504.2,1251.0 1490.3,1257.8 1476.1,1263.3 1461.6,1267.6 1446.8,1270.5 1431.8,1272.1 1416.6,1272.4 1401.1,1271.5 1385.5,1269.2 1369.7,1265.7 1353.9,1260.9 1337.9,1254.9 1321.9,1247.8 1305.9,1239.5 1289.8,1230.2 1273.9,1219.9 1258.0,1208.6 1242.2,1196.5 1226.6,1183.5 1211.2,1169.9 1196.0,1155.6 1181.1,1140.8 1166.6,1125.5 1152.4,1109.9  A 522.500,522.500 0.00 0,1 1189.3,1079.9 L 1189.3,1079.9 1201.8,1096.5 1214.6,1112.8 1227.7,1128.7 1241.1,1144.0 1254.7,1158.8 1268.4,1172.8 1282.2,1186.0 1296.1,1198.3 1310.1,1209.6 1324.1,1220.0 1338.1,1229.2 1352.0,1237.2 1365.8,1244.0 1379.5,1249.6 1393.1,1253.9 1406.5,1256.9 1419.7,1258.5 1432.7,1258.7 1445.5,1257.6 1458.0,1255.2 1470.2,1251.3 1482.1,1246.1 1493.7,1239.6 1504.9,1231.7 1515.8,1222.6 1526.4,1212.2 1536.6,1200.6 1546.3,1187.9 1555.7,1174.0 1564.7,1159.2 1573.3,1143.3 1581.5,1126.7 1589.3,1109.2 1596.6,1091.0 1603.5,1072.2 1610.0,1052.9 1616.1,1033.2 1621.7,1013.3 1627.0,993.2  Z" style="stroke-width: 0.5;  stroke: rgb(0,0,0); fill: rgb(179,177,178);" />
<path d="M 2017.702,1429.354 A 522.500,522.500 0.00 0,1 2021.7,1471.8 L 2021.7,1471.8 1995.6,1473.3 1969.4,1474.9 1943.2,1476.6 1916.8,1478.4 1890.4,1480.4 1864.0,1482.5 1837.5,1484.7 1810.9,1487.1 1784.3,1489.6 1757.7,1492.3 1731.0,1495.1 1704.3,1498.1 1677.6,1501.2 1650.9,1504.5 1624.2,1508.0 1597.5,1511.6 1570.8,1515.4 1544.1,1519.3 1517.4,1523.4 1490.7,1527.7 1464.1,1532.1 1437.5,1536.6 1411.0,1541.4 1384.4,1546.2 1358.0,1551.3 1331.6,1556.4 1305.2,1561.8 1278.9,1567.2 1252.7,1572.8 1226.6,1578.6 1200.5,1584.5 1174.5,1590.5 1148.6,1596.6 1122.8,1602.8 1097.1,1609.2 1071.5,1615.6 1046.0,1622.2 1020.7,1628.8 995.4,1635.5  A 522.500,522.500 0.00 0,1 986.0,1593.9 L 986.0,1593.9 1012.2,1589.1 1038.5,1584.4 1064.8,1579.6 1091.1,1574.9 1117.4,1570.2 1143.7,1565.6 1170.1,1560.9 1196.5,1556.3 1222.9,1551.7 1249.3,1547.2 1275.7,1542.7 1302.1,1538.2 1328.6,1533.7 1355.1,1529.3 1381.6,1524.9 1408.1,1520.5 1434.6,1516.2 1461.1,1511.9 1487.6,1507.6 1514.1,1503.4 1540.7,1499.2 1567.2,1495.0 1593.7,1490.9 1620.3,1486.8 1646.8,1482.7 1673.4,1478.7 1699.9,1474.7 1726.4,1470.8 1753.0,1466.8 1779.5,1462.9 1806.0,1459.1 1832.5,1455.3 1859.0,1451.5 1885.5,1447.7 1912.0,1444.0 1938.4,1440.3 1964.9,1436.6 1991.3,1433.0 2017.7,1429.4  Z" style="stroke-width: 0.5;  stroke: rgb(0,0,0); fill: rgb(179,177,178);" />
<path d="M 1998.313,1342.869 A 522.500,522.500 0.00 0,1 2009.4,1383.7 L 2009.4,1383.7 1983.4,1389.6 1957.4,1395.5 1931.3,1401.4 1905.3,1407.2 1879.2,1413.1 1853.1,1418.9 1826.9,1424.7 1800.8,1430.5 1774.6,1436.2 1748.4,1441.9 1722.2,1447.6 1696.0,1453.2 1669.8,1458.8 1643.5,1464.4 1617.2,1470.0 1590.9,1475.5 1564.7,1481.0 1538.4,1486.5 1512.0,1491.9 1485.7,1497.3 1459.4,1502.6 1433.1,1507.9 1406.7,1513.2 1380.4,1518.5 1354.1,1523.7 1327.7,1528.9 1301.4,1534.0 1275.1,1539.1 1248.7,1544.2 1222.4,1549.2 1196.1,1554.3 1169.8,1559.2 1143.5,1564.2 1117.2,1569.1 1090.9,1574.0 1064.6,1578.8 1038.4,1583.7 1012.1,1588.5 985.9,1593.2  A 522.500,522.500 0.00 0,1 980.0,1551.3 L 980.0,1551.3 1006.0,1548.7 1032.1,1546.0 1058.3,1543.1 1084.5,1540.1 1110.8,1537.0 1137.2,1533.7 1163.6,1530.3 1190.0,1526.8 1216.5,1523.1 1242.9,1519.2 1269.5,1515.2 1296.0,1511.0 1322.5,1506.7 1349.1,1502.3 1375.6,1497.6 1402.1,1492.9 1428.7,1487.9 1455.2,1482.8 1481.6,1477.6 1508.1,1472.1 1534.5,1466.6 1560.9,1460.8 1587.2,1455.0 1613.5,1448.9 1639.7,1442.8 1665.8,1436.4 1691.9,1430.0 1718.0,1423.4 1743.9,1416.6 1769.8,1409.8 1795.6,1402.8 1821.3,1395.6 1846.9,1388.4 1872.4,1381.1 1897.8,1373.6 1923.1,1366.1 1948.3,1358.4 1973.4,1350.7 1998.3,1342.9  Z" style="stroke-width: 0.5;  stroke: rgb(0,0,0); fill: rgb(179,177,178);" />
<path d="M 1528.988,978.305 A 522.500,522.500 0.00 0,1 1570.7,982.3 L 1570.7,982.3 1567.8,1002.6 1564.5,1022.7 1560.9,1042.5 1557.0,1062.0 1552.6,1080.9 1548.0,1099.2 1542.9,1116.8 1537.5,1133.6 1531.8,1149.5 1525.6,1164.3 1519.1,1178.1 1512.3,1190.7 1505.0,1202.1 1497.4,1212.3 1489.5,1221.1 1481.2,1228.6 1472.6,1234.7 1463.7,1239.5 1454.5,1242.8 1445.0,1244.6 1435.2,1245.1 1425.2,1244.1 1414.9,1241.6 1404.4,1237.8 1393.7,1232.6 1382.9,1226.1 1371.9,1218.2 1360.7,1209.1 1349.5,1198.8 1338.2,1187.4 1326.9,1174.9 1315.6,1161.4 1304.2,1147.0 1293.0,1131.8 1281.9,1115.9 1270.9,1099.4 1260.0,1082.4 1249.4,1065.0 1239.1,1047.3  A 522.500,522.500 0.00 0,1 1276.2,1027.9 L 1276.2,1027.9 1285.0,1046.2 1294.0,1064.2 1303.1,1081.9 1312.4,1099.2 1321.8,1115.8 1331.2,1131.7 1340.6,1146.8 1350.0,1161.1 1359.4,1174.3 1368.7,1186.4 1377.8,1197.4 1386.9,1207.1 1395.8,1215.6 1404.5,1222.8 1413.0,1228.6 1421.3,1233.0 1429.4,1235.9 1437.2,1237.5 1444.8,1237.5 1452.0,1236.1 1459.0,1233.2 1465.7,1228.8 1472.0,1223.0 1478.1,1215.8 1483.8,1207.3 1489.1,1197.3 1494.2,1186.1 1498.9,1173.6 1503.2,1160.0 1507.2,1145.3 1510.9,1129.5 1514.2,1112.8 1517.3,1095.2 1520.0,1076.9 1522.3,1058.0 1524.4,1038.5 1526.2,1018.7 1527.7,998.6 1529.0,978.3  Z" style="stroke-width: 0.5;  stroke: rgb(0,0,0); fill: rgb(179,177,178);" />
<path d="M 1984.002,1303.153 A 522.500,522.500 0.00 0,1 1998.1,1342.2 L 1998.1,1342.2 1973.2,1350.0 1948.1,1357.8 1922.9,1365.5 1897.7,1373.0 1872.3,1380.5 1846.8,1387.9 1821.2,1395.2 1795.5,1402.3 1769.7,1409.3 1743.8,1416.2 1717.9,1422.9 1691.9,1429.6 1665.8,1436.0 1639.6,1442.4 1613.4,1448.5 1587.1,1454.6 1560.8,1460.4 1534.4,1466.2 1508.0,1471.7 1481.5,1477.1 1455.1,1482.4 1428.6,1487.5 1402.0,1492.4 1375.5,1497.1 1349.0,1501.7 1322.4,1506.2 1295.9,1510.5 1269.3,1514.6 1242.8,1518.6 1216.3,1522.4 1189.9,1526.1 1163.4,1529.6 1137.1,1532.9 1110.7,1536.2 1084.4,1539.2 1058.2,1542.2 1032.0,1545.0 1005.9,1547.7 979.9,1550.3  A 522.500,522.500 0.00 0,1 977.6,1509.0 L 977.6,1509.0 1003.2,1508.4 1029.0,1507.7 1054.9,1506.8 1080.9,1505.6 1107.0,1504.2 1133.2,1502.6 1159.5,1500.7 1185.9,1498.6 1212.3,1496.2 1238.8,1493.6 1265.3,1490.7 1291.9,1487.5 1318.4,1484.1 1345.0,1480.4 1371.6,1476.4 1398.1,1472.1 1424.6,1467.5 1451.1,1462.7 1477.6,1457.6 1504.0,1452.2 1530.3,1446.5 1556.6,1440.5 1582.8,1434.3 1608.8,1427.8 1634.8,1421.1 1660.7,1414.1 1686.5,1406.8 1712.2,1399.3 1737.7,1391.6 1763.1,1383.6 1788.3,1375.4 1813.4,1367.0 1838.3,1358.4 1863.1,1349.6 1887.6,1340.6 1912.0,1331.5 1936.2,1322.2 1960.2,1312.7 1984.0,1303.2  Z" style="stroke-width: 0.5;  stroke: rgb(0,0,0); fill: rgb(179,177,178);" />
<path d="M 1703.793,1018.882 A 522.500,522.500 0.00 0,1 1735.3,1033.5 L 1735.3,1033.5 1725.3,1052.6 1714.8,1071.7 1703.8,1090.4 1692.3,1108.7 1680.3,1126.6 1667.8,1144.0 1654.8,1160.7 1641.3,1176.7 1627.4,1191.9 1613.0,1206.3 1598.2,1219.8 1583.0,1232.4 1567.4,1243.9 1551.3,1254.4 1535.0,1263.9 1518.2,1272.2 1501.2,1279.4 1483.8,1285.4 1466.2,1290.3 1448.3,1294.0 1430.2,1296.5 1411.9,1297.8 1393.4,1297.9 1374.7,1296.8 1355.9,1294.6 1337.1,1291.3 1318.2,1286.8 1299.2,1281.3 1280.3,1274.7 1261.4,1267.2 1242.6,1258.7 1223.9,1249.3 1205.4,1239.0 1187.0,1228.0 1168.9,1216.3 1151.1,1204.0 1133.6,1191.2 1116.5,1177.8 1099.8,1164.1  A 522.500,522.500 0.00 0,1 1122.9,1138.3 L 1122.9,1138.3 1138.5,1152.9 1154.5,1167.1 1170.8,1180.9 1187.4,1194.2 1204.3,1206.8 1221.4,1218.7 1238.6,1229.9 1256.1,1240.1 1273.6,1249.5 1291.2,1257.9 1308.8,1265.2 1326.4,1271.5 1343.9,1276.6 1361.4,1280.6 1378.8,1283.4 1396.0,1285.0 1413.1,1285.3 1430.0,1284.4 1446.7,1282.3 1463.1,1278.9 1479.3,1274.3 1495.1,1268.5 1510.7,1261.4 1525.9,1253.1 1540.8,1243.7 1555.3,1233.1 1569.4,1221.5 1583.1,1208.8 1596.4,1195.1 1609.2,1180.5 1621.6,1165.0 1633.6,1148.7 1645.1,1131.6 1656.1,1113.9 1666.6,1095.7 1676.6,1076.9 1686.2,1057.8 1695.2,1038.4 1703.8,1018.9  Z" style="stroke-width: 0.5;  stroke: rgb(0,0,0); fill: rgb(179,177,178);" />
<path d="M 1673.189,1007.038 A 522.500,522.500 0.00 0,1 1698.3,1016.6 L 1698.3,1016.6 1690.0,1036.2 1681.2,1055.6 1672.0,1074.7 1662.2,1093.5 1651.9,1111.8 1641.2,1129.5 1630.0,1146.5 1618.4,1162.8 1606.3,1178.3 1593.8,1192.9 1580.8,1206.6 1567.5,1219.2 1553.7,1230.8 1539.6,1241.2 1525.1,1250.6 1510.2,1258.7 1495.1,1265.6 1479.6,1271.3 1463.8,1275.8 1447.8,1278.9 1431.5,1280.9 1415.0,1281.5 1398.3,1280.9 1381.5,1279.1 1364.5,1276.0 1347.5,1271.7 1330.3,1266.3 1313.2,1259.7 1296.0,1252.1 1278.8,1243.4 1261.7,1233.7 1244.7,1223.1 1227.9,1211.6 1211.2,1199.3 1194.8,1186.3 1178.6,1172.7 1162.7,1158.6 1147.2,1144.0 1132.0,1129.1  A 522.500,522.500 0.00 0,1 1151.6,1110.6 L 1151.6,1110.6 1165.8,1126.2 1180.4,1141.4 1195.3,1156.2 1210.5,1170.5 1226.0,1184.1 1241.6,1197.0 1257.4,1209.1 1273.4,1220.4 1289.4,1230.7 1305.5,1240.0 1321.5,1248.2 1337.6,1255.3 1353.6,1261.3 1369.5,1266.0 1385.3,1269.5 1400.9,1271.8 1416.4,1272.7 1431.7,1272.4 1446.8,1270.8 1461.6,1267.8 1476.1,1263.6 1490.4,1258.1 1504.3,1251.2 1517.9,1243.2 1531.2,1233.9 1544.1,1223.4 1556.6,1211.8 1568.7,1199.1 1580.4,1185.4 1591.7,1170.7 1602.6,1155.0 1613.0,1138.5 1623.0,1121.3 1632.5,1103.4 1641.6,1084.9 1650.2,1065.9 1658.3,1046.5 1666.0,1026.8 1673.2,1007.0  Z" style="stroke-width: 0.5;  stroke: rgb(0,0,0); fill: rgb(179,177,178);" />
<path d="M 1693.315,1985.423 A 522.500,522.500 0.00 0,1 1684.1,1989.0 L 1684.1,1989.0 1676.8,1969.9 1669.2,1951.1 1661.3,1932.6 1653.3,1914.6 1645.0,1897.1 1636.6,1880.4 1627.9,1864.4 1619.2,1849.3 1610.3,1835.3 1601.4,1822.2 1592.3,1810.4 1583.2,1799.7 1574.1,1790.3 1564.9,1782.2 1555.7,1775.5 1546.5,1770.2 1537.4,1766.3 1528.3,1763.9 1519.3,1762.9 1510.3,1763.4 1501.4,1765.4 1492.7,1768.9 1484.0,1773.7 1475.5,1780.0 1467.1,1787.7 1458.9,1796.8 1450.9,1807.1 1443.0,1818.8 1435.4,1831.6 1427.9,1845.5 1420.7,1860.5 1413.7,1876.4 1406.9,1893.3 1400.4,1910.9 1394.1,1929.1 1388.1,1947.9 1382.4,1967.2 1376.9,1986.8 1371.8,2006.5  A 522.500,522.500 0.00 0,1 1348.8,2000.1 L 1348.8,2000.1 1354.9,1980.6 1361.3,1961.2 1368.0,1942.2 1375.0,1923.6 1382.2,1905.5 1389.8,1888.1 1397.6,1871.5 1405.6,1855.8 1413.9,1841.0 1422.3,1827.3 1431.0,1814.6 1439.9,1803.2 1449.0,1793.0 1458.2,1784.1 1467.5,1776.6 1477.0,1770.4 1486.7,1765.7 1496.4,1762.3 1506.2,1760.5 1516.1,1760.0 1526.0,1761.1 1536.0,1763.6 1545.9,1767.5 1555.9,1772.8 1565.9,1779.5 1575.8,1787.6 1585.7,1797.0 1595.6,1807.6 1605.3,1819.4 1614.9,1832.4 1624.4,1846.4 1633.8,1861.4 1642.9,1877.3 1651.9,1894.0 1660.7,1911.3 1669.3,1929.3 1677.6,1947.7 1685.6,1966.5 1693.3,1985.4  Z" style="stroke-width: 0.5;  stroke: rgb(0,0,0); fill: rgb(179,177,178);" />
<path d="M 1922.418,1807.521 A 522.500,522.500 0.00 0,1 1908.4,1825.9 L 1908.4,1825.9 1890.6,1812.1 1872.4,1798.6 1853.8,1785.5 1834.7,1772.9 1815.2,1760.8 1795.4,1749.3 1775.3,1738.5 1754.9,1728.4 1734.2,1719.0 1713.3,1710.5 1692.1,1702.7 1670.8,1695.9 1649.3,1689.9 1627.7,1684.9 1606.0,1680.9 1584.2,1677.8 1562.3,1675.7 1540.5,1674.7 1518.6,1674.6 1496.8,1675.6 1475.0,1677.5 1453.3,1680.5 1431.7,1684.5 1410.3,1689.5 1389.0,1695.4 1367.9,1702.3 1347.0,1710.1 1326.4,1718.8 1306.0,1728.3 1285.9,1738.7 1266.1,1749.8 1246.6,1761.7 1227.5,1774.2 1208.8,1787.4 1190.5,1801.1 1172.6,1815.4 1155.2,1830.1 1138.2,1845.1 1121.7,1860.4  A 522.500,522.500 0.00 0,1 1106.1,1843.3 L 1106.1,1843.3 1123.4,1828.6 1141.2,1814.1 1159.5,1800.0 1178.2,1786.4 1197.3,1773.2 1216.8,1760.6 1236.7,1748.6 1257.0,1737.2 1277.6,1726.5 1298.4,1716.6 1319.6,1707.5 1341.0,1699.1 1362.7,1691.7 1384.5,1685.0 1406.5,1679.3 1428.7,1674.5 1451.0,1670.7 1473.5,1667.8 1496.0,1665.8 1518.5,1664.8 1541.1,1664.8 1563.7,1665.8 1586.3,1667.6 1608.8,1670.5 1631.3,1674.2 1653.6,1678.9 1675.8,1684.5 1697.9,1690.9 1719.8,1698.1 1741.4,1706.2 1762.9,1715.0 1784.0,1724.6 1804.9,1734.8 1825.4,1745.7 1845.6,1757.1 1865.5,1769.1 1884.9,1781.5 1903.9,1794.4 1922.4,1807.5  Z" style="stroke-width: 0.5;  stroke: rgb(0,0,0); fill: rgb(179,177,178);" />
<path d="M 1907.939,1826.484 A 522.500,522.500 0.00 0,1 1894.3,1842.8 L 1894.3,1842.8 1877.3,1828.4 1859.8,1814.3 1841.9,1800.6 1823.6,1787.4 1804.9,1774.8 1785.8,1762.7 1766.5,1751.4 1746.8,1740.7 1726.8,1730.9 1706.6,1721.8 1686.2,1713.7 1665.6,1706.4 1644.9,1700.1 1624.0,1694.8 1603.0,1690.5 1582.0,1687.2 1560.9,1685.0 1539.7,1683.8 1518.6,1683.6 1497.5,1684.6 1476.5,1686.5 1455.6,1689.6 1434.8,1693.7 1414.1,1698.8 1393.5,1704.9 1373.2,1712.1 1353.1,1720.1 1333.2,1729.2 1313.6,1739.1 1294.3,1749.8 1275.2,1761.4 1256.6,1773.7 1238.3,1786.7 1220.3,1800.4 1202.8,1814.7 1185.7,1829.4 1169.1,1844.6 1152.9,1860.2 1137.2,1876.1  A 522.500,522.500 0.00 0,1 1122.2,1860.9 L 1122.2,1860.9 1138.7,1845.6 1155.6,1830.5 1173.0,1815.8 1190.9,1801.6 1209.2,1787.8 1227.9,1774.6 1246.9,1762.1 1266.4,1750.2 1286.1,1739.0 1306.2,1728.7 1326.6,1719.1 1347.2,1710.4 1368.1,1702.6 1389.2,1695.7 1410.4,1689.8 1431.8,1684.8 1453.4,1680.8 1475.0,1677.8 1496.8,1675.9 1518.6,1674.9 1540.4,1675.0 1562.3,1676.0 1584.1,1678.1 1605.9,1681.2 1627.6,1685.3 1649.2,1690.3 1670.6,1696.2 1691.9,1703.1 1713.0,1710.8 1734.0,1719.4 1754.6,1728.8 1775.0,1738.9 1795.1,1749.8 1814.9,1761.3 1834.3,1773.4 1853.4,1786.0 1872.0,1799.1 1890.2,1812.6 1907.9,1826.5  Z" style="stroke-width: 0.5;  stroke: rgb(0,0,0); fill: rgb(179,177,178);" />
<path d="M 1710.551,1978.199 A 522.500,522.500 0.00 0,1 1694.0,1985.1 L 1694.0,1985.1 1686.3,1966.2 1678.2,1947.4 1669.9,1929.0 1661.3,1911.1 1652.4,1893.7 1643.4,1877.0 1634.2,1861.1 1624.7,1846.1 1615.2,1832.1 1605.5,1819.2 1595.7,1807.3 1585.8,1796.7 1575.8,1787.3 1565.7,1779.2 1555.7,1772.5 1545.6,1767.1 1535.5,1763.2 1525.4,1760.7 1515.3,1759.6 1505.3,1760.0 1495.4,1761.9 1485.5,1765.2 1475.8,1769.9 1466.1,1776.0 1456.6,1783.5 1447.3,1792.4 1438.0,1802.5 1429.0,1813.9 1420.2,1826.5 1411.5,1840.2 1403.1,1854.9 1394.9,1870.6 1387.0,1887.2 1379.3,1904.5 1371.8,1922.6 1364.7,1941.1 1357.8,1960.1 1351.3,1979.5 1345.0,1999.0  A 522.500,522.500 0.00 0,1 1328.0,1993.4 L 1328.0,1993.4 1335.0,1974.0 1342.3,1954.8 1349.9,1936.0 1357.8,1917.6 1366.0,1899.7 1374.5,1882.5 1383.3,1866.1 1392.4,1850.6 1401.7,1836.0 1411.2,1822.4 1420.9,1809.9 1430.9,1798.7 1441.0,1788.6 1451.3,1779.8 1461.7,1772.3 1472.3,1766.2 1483.0,1761.5 1493.8,1758.2 1504.7,1756.4 1515.6,1755.9 1526.6,1756.9 1537.7,1759.4 1548.7,1763.2 1559.7,1768.5 1570.7,1775.1 1581.7,1783.0 1592.6,1792.2 1603.4,1802.7 1614.1,1814.3 1624.7,1827.1 1635.1,1840.9 1645.3,1855.7 1655.4,1871.4 1665.3,1887.8 1674.9,1905.0 1684.2,1922.7 1693.3,1940.9 1702.1,1959.4 1710.6,1978.2  Z" style="stroke-width: 0.5;  stroke: rgb(0,0,0); fill: rgb(179,177,178);" />
<path d="M 1893.819,1843.385 A 522.500,522.500 0.00 0,1 1882.1,1856.4 L 1882.1,1856.4 1865.7,1841.5 1848.9,1827.0 1831.6,1812.8 1814.0,1799.1 1795.9,1786.0 1777.5,1773.5 1758.7,1761.7 1739.7,1750.6 1720.4,1740.4 1700.8,1731.0 1681.0,1722.5 1661.1,1714.9 1641.0,1708.4 1620.7,1702.8 1600.4,1698.3 1580.0,1694.8 1559.5,1692.4 1539.1,1691.1 1518.6,1690.9 1498.2,1691.8 1477.8,1693.8 1457.5,1696.9 1437.4,1701.0 1417.3,1706.3 1397.5,1712.6 1377.8,1719.9 1358.4,1728.2 1339.1,1737.5 1320.2,1747.7 1301.5,1758.7 1283.2,1770.7 1265.2,1783.3 1247.5,1796.7 1230.3,1810.8 1213.4,1825.5 1197.0,1840.6 1181.1,1856.2 1165.6,1872.2 1150.6,1888.5  A 522.500,522.500 0.00 0,1 1137.8,1876.5 L 1137.8,1876.5 1153.4,1860.7 1169.5,1845.1 1186.1,1829.9 1203.2,1815.1 1220.7,1800.8 1238.6,1787.1 1256.9,1774.1 1275.6,1761.8 1294.5,1750.2 1313.8,1739.4 1333.4,1729.5 1353.3,1720.5 1373.4,1712.4 1393.7,1705.2 1414.2,1699.1 1434.9,1694.0 1455.7,1689.9 1476.6,1686.8 1497.6,1684.8 1518.6,1683.9 1539.7,1684.1 1560.8,1685.3 1581.9,1687.5 1602.9,1690.8 1623.9,1695.1 1644.7,1700.5 1665.4,1706.8 1686.0,1714.0 1706.4,1722.2 1726.6,1731.2 1746.5,1741.1 1766.2,1751.8 1785.5,1763.2 1804.6,1775.2 1823.2,1787.9 1841.5,1801.1 1859.4,1814.8 1876.9,1828.9 1893.8,1843.4  Z" style="stroke-width: 0.5;  stroke: rgb(0,0,0); fill: rgb(179,177,178);" />
<path d="M 2018.584,1563.848 A 522.500,522.500 0.00 0,1 2016.3,1580.2 L 2016.3,1580.2 1992.0,1576.7 1967.5,1573.4 1942.7,1570.5 1917.7,1567.9 1892.5,1565.8 1867.2,1564.1 1841.7,1562.8 1816.0,1561.9 1790.3,1561.6 1764.5,1561.7 1738.6,1562.3 1712.6,1563.4 1686.7,1565.1 1660.7,1567.2 1634.8,1569.9 1608.8,1573.1 1583.0,1576.9 1557.2,1581.2 1531.4,1586.1 1505.8,1591.4 1480.3,1597.3 1455.0,1603.8 1429.8,1610.7 1404.7,1618.2 1379.9,1626.2 1355.2,1634.6 1330.8,1643.6 1306.6,1653.0 1282.7,1662.8 1259.0,1673.1 1235.6,1683.8 1212.4,1694.9 1189.6,1706.3 1167.1,1718.1 1144.9,1730.2 1123.0,1742.5 1101.5,1755.2 1080.3,1768.0 1059.6,1781.1  A 522.500,522.500 0.00 0,0 1068.8,1795.1 L 1068.8,1795.1 1089.2,1781.4 1109.9,1767.9 1131.0,1754.6 1152.5,1741.5 1174.3,1728.7 1196.4,1716.2 1218.8,1704.0 1241.6,1692.2 1264.7,1680.8 1288.0,1669.8 1311.6,1659.2 1335.5,1649.0 1359.7,1639.3 1384.0,1630.0 1408.6,1621.3 1433.4,1613.0 1458.3,1605.2 1483.5,1598.0 1508.8,1591.3 1534.2,1585.1 1559.7,1579.4 1585.4,1574.3 1611.1,1569.7 1636.9,1565.7 1662.8,1562.1 1688.7,1559.1 1714.6,1556.7 1740.5,1554.7 1766.3,1553.3 1792.1,1552.3 1817.9,1551.9 1843.5,1551.9 1869.0,1552.4 1894.4,1553.3 1919.7,1554.7 1944.7,1556.4 1969.6,1558.5 1994.2,1561.0 2018.6,1563.8  Z" style="stroke-width: 0.5;  stroke: rgb(0,0,0); fill: rgb(179,177,178);" />
</g>
<g id="plot0">
<g id="plot0-axis">
</g>
<line x1='2243.2' y1='1600.4' x2='2243.2' y2='1600.4' style="stroke-width:14.0;stroke:rgb(0,0,0);stroke-linecap:round;fill:none;" />
<line x1='2243.2' y1='1600.4' x2='2282.9' y2='1605.8' style="stroke-width:14.0;stroke:rgb(0,0,0);stroke-linecap:round;fill:none;" />
<line x1='2282.9' y1='1605.8' x2='2282.9' y2='1605.8' style="stroke-width:14.0;stroke:rgb(0,0,0);stroke-linecap:round;fill:none;" />
<text x="2299.5" y="1630.2" font-size="46.8px" font-family="CMUBright-Roman" style="text-anchor:start;fill:rgb(255,38,78);" transform="rotate(7.7,2299.5,1630.2)" >Histocap122p10B<tspan baseline-shift="-40%" font-size="90%">s</tspan>01749</text>
</g>
<defs>
<pattern id="checker" width="10" height="10" patternTransform="rotate(45 0 0)" patternUnits="userSpaceOnUse"><line x1="0" y1="0" x2="10" y2="0" style="stroke:black;stroke-width:2" /><line x1="0" y1="0" x2="0" y2="10" style="stroke:black;stroke-width:2" /></pattern>
<pattern id="hline" width="10" height="10" patternTransform="rotate(0 0 0)" patternUnits="userSpaceOnUse"><line x1="0" y1="0" x2="10" y2="0" style="stroke:black;stroke-width:5" /></pattern>
<pattern id="vline" width="10" height="10" patternTransform="rotate(0 0 0)" patternUnits="userSpaceOnUse"><line x1="0" y1="0" x2="0" y2="10" style="stroke:black;stroke-width:5" /></pattern>
<pattern id="hline-sparse" width="10" height="10" patternTransform="rotate(0 0 0)" patternUnits="userSpaceOnUse"><line x1="0" y1="0" x2="10" y2="0" style="stroke:black;stroke-width:2" /></pattern>
<pattern id="checker" width="10" height="10" patternTransform="rotate(45 0 0)" patternUnits="userSpaceOnUse"><line x1="0" y1="0" x2="10" y2="0" style="stroke:black;stroke-width:5" /><line x1="0" y1="0" x2="0" y2="10" style="stroke:black;stroke-width:4" /></pattern>
<pattern id="vline-sparse" width="10" height="10" patternTransform="rotate(0 0 0)" patternUnits="userSpaceOnUse"><line x1="0" y1="0" x2="0" y2="10" style="stroke:black;stroke-width:2" /></pattern>
</defs>
</svg>
