<?xml version="1.0" encoding="utf-8" standalone="no"?>
<!DOCTYPE svg PUBLIC "-//W3C//DTD SVG 1.1//EN" "http://www.w3.org/Graphics/SVG/1.1/DTD/svg11.dtd">
<svg width="3000px" height="3000px" version="1.1" xmlns="http://www.w3.org/2000/svg" xmlns:xlink="http://www.w3.org/1999/xlink">
<g id="bg">
<rect x="0" y="0" width="3000px" height="3000px" style="fill:rgb(255,255,255);"/>
</g>
<g id="ideograms">
<path d="M1500.000,950.000 A550.000,550.000 40.000 0,1 1707.918,2009.186 L1783.524,2194.344 A750.000,750.000 0.000 0,0 1500.000,750.000 Z" style="stroke-width:2.0;stroke:rgb(0,0,0);stroke-linecap:round;fill:rgb(179,177,178);" />
<text x="2456.7" y="1312.2" font-size="46.8px" font-family="CMUBright-Roman" style="text-anchor:middle;fill:rgb(0,0,0);" transform="rotate(438.9,2456.7,1312.2)" >Histocap144p08<tspan baseline-shift="-40%" font-size="90%">5</tspan></text>
<line x1='1519.4' y1='750.3' x2='1519.7' y2='738.3' style="stroke-width:8.0;stroke:rgb(150,150,150);stroke-linecap:round;fill:none;" />
<text x="1534.0" y="726.7" font-size="41.6px" font-family="CMUBright-Roman" style="text-anchor:start;fill:rgb(150,150,150);" transform="rotate(271.5,1534.0,726.7)" >2200 kb</text>
<line x1='1620.5' y1='759.7' x2='1622.4' y2='747.9' style="stroke-width:8.0;stroke:rgb(150,150,150);stroke-linecap:round;fill:none;" />
<line x1='1719.3' y1='782.8' x2='1722.8' y2='771.3' style="stroke-width:8.0;stroke:rgb(150,150,150);stroke-linecap:round;fill:none;" />
<line x1='1814.1' y1='819.0' x2='1819.1' y2='808.1' style="stroke-width:8.0;stroke:rgb(150,150,150);stroke-linecap:round;fill:none;" />
<line x1='1903.2' y1='867.6' x2='1909.6' y2='857.5' style="stroke-width:8.0;stroke:rgb(150,150,150);stroke-linecap:round;fill:none;" />
<line x1='1984.9' y1='927.8' x2='1992.6' y2='918.7' style="stroke-width:8.0;stroke:rgb(150,150,150);stroke-linecap:round;fill:none;" />
<text x="2011.0" y="918.7" font-size="41.6px" font-family="CMUBright-Roman" style="text-anchor:start;fill:rgb(150,150,150);" transform="rotate(310.3,2011.0,918.7)" >2250 kb</text>
<line x1='2057.7' y1='998.5' x2='2066.6' y2='990.5' style="stroke-width:8.0;stroke:rgb(150,150,150);stroke-linecap:round;fill:none;" />
<line x1='2120.3' y1='1078.4' x2='2130.2' y2='1071.7' style="stroke-width:8.0;stroke:rgb(150,150,150);stroke-linecap:round;fill:none;" />
<line x1='2171.5' y1='1166.0' x2='2182.3' y2='1160.7' style="stroke-width:8.0;stroke:rgb(150,150,150);stroke-linecap:round;fill:none;" />
<line x1='2210.5' y1='1259.7' x2='2221.8' y2='1255.9' style="stroke-width:8.0;stroke:rgb(150,150,150);stroke-linecap:round;fill:none;" />
<line x1='2236.4' y1='1357.8' x2='2248.2' y2='1355.6' style="stroke-width:8.0;stroke:rgb(150,150,150);stroke-linecap:round;fill:none;" />
<text x="2262.5" y="1367.1" font-size="41.6px" font-family="CMUBright-Roman" style="text-anchor:start;fill:rgb(150,150,150);" transform="rotate(349.1,2262.5,1367.1)" >2300 kb</text>
<line x1='2248.9' y1='1458.6' x2='2260.8' y2='1457.9' style="stroke-width:8.0;stroke:rgb(150,150,150);stroke-linecap:round;fill:none;" />
<line x1='2247.6' y1='1560.0' x2='2259.6' y2='1561.0' style="stroke-width:8.0;stroke:rgb(150,150,150);stroke-linecap:round;fill:none;" />
<line x1='2232.6' y1='1660.4' x2='2244.4' y2='1663.0' style="stroke-width:8.0;stroke:rgb(150,150,150);stroke-linecap:round;fill:none;" />
<line x1='2204.3' y1='1757.9' x2='2215.5' y2='1762.0' style="stroke-width:8.0;stroke:rgb(150,150,150);stroke-linecap:round;fill:none;" />
<line x1='2163.0' y1='1850.6' x2='2173.6' y2='1856.2' style="stroke-width:8.0;stroke:rgb(150,150,150);stroke-linecap:round;fill:none;" />
<text x="2177.6" y="1874.1" font-size="41.6px" font-family="CMUBright-Roman" style="text-anchor:start;fill:rgb(150,150,150);" transform="rotate(27.9,2177.6,1874.1)" >2350 kb</text>
<line x1='2109.6' y1='1936.9' x2='2119.4' y2='1943.9' style="stroke-width:8.0;stroke:rgb(150,150,150);stroke-linecap:round;fill:none;" />
<line x1='2045.0' y1='2015.2' x2='2053.8' y2='2023.4' style="stroke-width:8.0;stroke:rgb(150,150,150);stroke-linecap:round;fill:none;" />
<line x1='1970.5' y1='2084.1' x2='1978.0' y2='2093.4' style="stroke-width:8.0;stroke:rgb(150,150,150);stroke-linecap:round;fill:none;" />
<line x1='1887.3' y1='2142.2' x2='1893.5' y2='2152.5' style="stroke-width:8.0;stroke:rgb(150,150,150);stroke-linecap:round;fill:none;" />
<line x1='1797.1' y1='2188.7' x2='1801.8' y2='2199.7' style="stroke-width:8.0;stroke:rgb(150,150,150);stroke-linecap:round;fill:none;" />
<text x="1793.7" y="2216.1" font-size="41.6px" font-family="CMUBright-Roman" style="text-anchor:start;fill:rgb(150,150,150);" transform="rotate(66.7,1793.7,2216.1)" >2400 kb</text>
<g id="highlighttrack_0">
<path d="M2037.150,1381.807 A550.000,550.000 40.000 0,1 2041.970,1406.362 L2239.051,1372.312 A750.000,750.000 0.000 0,0 2232.478,1338.828 Z" style="stroke-width:14.0;stroke:rgb(0,0,0);stroke-linecap:round;fill:rgb(255,38,78);" />
</g>
<path d="M1500.000,950.000 A550.000,550.000 40.000 0,1 1707.918,2009.186 L1783.524,2194.344 A750.000,750.000 0.000 0,0 1500.000,750.000 Z" style="stroke-width:2.0;stroke:rgb(0,0,0);stroke-linecap:round;fill:none;" />
<path d="M1489.774,2049.905 A550.000,550.000 40.000 0,1 1282.651,994.768 L1203.615,811.047 A750.000,750.000 0.000 0,0 1486.056,2249.870 Z" style="stroke-width:2.0;stroke:rgb(0,0,0);stroke-linecap:round;fill:rgb(179,177,178);" />
<text x="500.1" y="1696.3" font-size="46.8px" font-family="CMUBright-Roman" style="text-anchor:middle;fill:rgb(0,0,0);" transform="rotate(78.9,500.1,1696.3)" >HistocapSA15<tspan baseline-shift="-40%" font-size="90%">5</tspan></text>
<line x1='1192.8' y1='815.8' x2='1187.8' y2='804.9' style="stroke-width:8.0;stroke:rgb(150,150,150);stroke-linecap:round;fill:none;" />
<text x="1170.2" y="799.8" font-size="41.6px" font-family="CMUBright-Roman" style="text-anchor:end;fill:rgb(150,150,150);" transform="rotate(65.8,1170.2,799.8)" >1900 kb</text>
<line x1='1103.2' y1='863.6' x2='1096.9' y2='853.4' style="stroke-width:8.0;stroke:rgb(150,150,150);stroke-linecap:round;fill:none;" />
<line x1='1020.9' y1='923.0' x2='1013.2' y2='913.7' style="stroke-width:8.0;stroke:rgb(150,150,150);stroke-linecap:round;fill:none;" />
<line x1='947.4' y1='992.9' x2='938.5' y2='984.8' style="stroke-width:8.0;stroke:rgb(150,150,150);stroke-linecap:round;fill:none;" />
<line x1='884.0' y1='1072.2' x2='874.1' y2='1065.3' style="stroke-width:8.0;stroke:rgb(150,150,150);stroke-linecap:round;fill:none;" />
<line x1='831.9' y1='1159.3' x2='821.2' y2='1153.8' style="stroke-width:8.0;stroke:rgb(150,150,150);stroke-linecap:round;fill:none;" />
<text x="804.2" y="1160.9" font-size="41.6px" font-family="CMUBright-Roman" style="text-anchor:end;fill:rgb(150,150,150);" transform="rotate(27.0,804.2,1160.9)" >1950 kb</text>
<line x1='792.0' y1='1252.6' x2='780.7' y2='1248.6' style="stroke-width:8.0;stroke:rgb(150,150,150);stroke-linecap:round;fill:none;" />
<line x1='765.1' y1='1350.4' x2='753.3' y2='1348.0' style="stroke-width:8.0;stroke:rgb(150,150,150);stroke-linecap:round;fill:none;" />
<line x1='751.6' y1='1451.0' x2='739.6' y2='1450.2' style="stroke-width:8.0;stroke:rgb(150,150,150);stroke-linecap:round;fill:none;" />
<line x1='751.8' y1='1552.5' x2='739.9' y2='1553.4' style="stroke-width:8.0;stroke:rgb(150,150,150);stroke-linecap:round;fill:none;" />
<line x1='765.8' y1='1653.0' x2='754.0' y2='1655.5' style="stroke-width:8.0;stroke:rgb(150,150,150);stroke-linecap:round;fill:none;" />
<text x="745.3" y="1671.6" font-size="41.6px" font-family="CMUBright-Roman" style="text-anchor:end;fill:rgb(150,150,150);" transform="rotate(-11.8,745.3,1671.6)" >2000 kb</text>
<line x1='793.2' y1='1750.8' x2='781.9' y2='1754.8' style="stroke-width:8.0;stroke:rgb(150,150,150);stroke-linecap:round;fill:none;" />
<line x1='833.5' y1='1843.9' x2='822.8' y2='1849.4' style="stroke-width:8.0;stroke:rgb(150,150,150);stroke-linecap:round;fill:none;" />
<line x1='886.0' y1='1930.7' x2='876.2' y2='1937.6' style="stroke-width:8.0;stroke:rgb(150,150,150);stroke-linecap:round;fill:none;" />
<line x1='949.8' y1='2009.7' x2='941.0' y2='2017.8' style="stroke-width:8.0;stroke:rgb(150,150,150);stroke-linecap:round;fill:none;" />
<line x1='1023.6' y1='2079.3' x2='1016.0' y2='2088.6' style="stroke-width:8.0;stroke:rgb(150,150,150);stroke-linecap:round;fill:none;" />
<text x="1019.3" y="2106.6" font-size="41.6px" font-family="CMUBright-Roman" style="text-anchor:end;fill:rgb(150,150,150);" transform="rotate(-50.6,1019.3,2106.6)" >2050 kb</text>
<line x1='1106.2' y1='2138.3' x2='1099.9' y2='2148.5' style="stroke-width:8.0;stroke:rgb(150,150,150);stroke-linecap:round;fill:none;" />
<line x1='1196.0' y1='2185.6' x2='1191.1' y2='2196.6' style="stroke-width:8.0;stroke:rgb(150,150,150);stroke-linecap:round;fill:none;" />
<line x1='1291.3' y1='2220.4' x2='1288.0' y2='2231.9' style="stroke-width:8.0;stroke:rgb(150,150,150);stroke-linecap:round;fill:none;" />
<line x1='1390.5' y1='2242.0' x2='1388.8' y2='2253.8' style="stroke-width:8.0;stroke:rgb(150,150,150);stroke-linecap:round;fill:none;" />
<path d="M1489.774,2049.905 A550.000,550.000 40.000 0,1 1282.651,994.768 L1203.615,811.047 A750.000,750.000 0.000 0,0 1486.056,2249.870 Z" style="stroke-width:2.0;stroke:rgb(0,0,0);stroke-linecap:round;fill:none;" />
</g>
<g id="track_0">
<path d="M 2020.424,1546.529 A 522.500,522.500 0.00 0,1 1999.7,1652.6 L 1999.7,1652.6 1977.0,1645.9 1953.9,1639.5 1930.5,1633.6 1906.8,1628.2 1882.9,1623.2 1858.7,1618.8 1834.4,1614.9 1809.9,1611.6 1785.3,1609.0 1760.5,1606.9 1735.7,1605.5 1710.8,1604.8 1685.9,1604.8 1661.0,1605.5 1636.1,1606.8 1611.3,1608.9 1586.5,1611.8 1561.8,1615.3 1537.2,1619.6 1512.8,1624.6 1488.5,1630.3 1464.4,1636.8 1440.5,1643.9 1416.9,1651.8 1393.4,1660.3 1370.3,1669.5 1347.4,1679.3 1324.8,1689.7 1302.5,1700.8 1280.6,1712.4 1259.0,1724.5 1237.7,1737.2 1216.9,1750.3 1196.4,1763.9 1176.4,1777.9 1156.8,1792.2 1137.6,1806.8 1118.8,1821.7 1100.6,1836.8  A 522.500,522.500 0.00 0,1 1039.4,1746.7 L 1039.4,1746.7 1061.5,1735.0 1083.9,1723.5 1106.6,1712.2 1129.6,1701.2 1152.8,1690.3 1176.4,1679.8 1200.2,1669.5 1224.2,1659.5 1248.5,1649.9 1273.0,1640.6 1297.7,1631.6 1322.6,1623.0 1347.7,1614.8 1373.0,1607.0 1398.4,1599.6 1424.0,1592.6 1449.7,1586.0 1475.6,1579.8 1501.5,1574.1 1527.6,1568.7 1553.7,1563.9 1579.9,1559.4 1606.2,1555.4 1632.5,1551.8 1658.8,1548.7 1685.1,1546.0 1711.4,1543.7 1737.7,1541.9 1764.0,1540.4 1790.1,1539.4 1816.3,1538.8 1842.3,1538.5 1868.2,1538.6 1894.0,1539.1 1919.6,1540.0 1945.1,1541.2 1970.4,1542.7 1995.5,1544.4 2020.4,1546.5  Z" style="stroke-width: 0.5;  stroke: rgb(0,0,0); fill: rgb(179,177,178);" />
<path d="M 2014.660,1409.824 A 522.500,522.500 0.00 0,1 2022.5,1496.5 L 2022.5,1496.5 1996.8,1496.8 1971.0,1497.2 1945.0,1497.9 1919.0,1498.7 1892.8,1499.8 1866.5,1501.1 1840.2,1502.7 1813.8,1504.4 1787.3,1506.5 1760.8,1508.7 1734.2,1511.3 1707.6,1514.0 1681.0,1517.1 1654.3,1520.4 1627.7,1524.0 1601.1,1527.9 1574.5,1532.0 1547.9,1536.4 1521.3,1541.0 1494.8,1546.0 1468.4,1551.2 1442.0,1556.6 1415.7,1562.4 1389.5,1568.3 1363.3,1574.6 1337.3,1581.1 1311.4,1587.8 1285.5,1594.8 1259.8,1602.0 1234.3,1609.4 1208.8,1617.0 1183.5,1624.9 1158.4,1632.9 1133.4,1641.1 1108.6,1649.6 1084.0,1658.1 1059.6,1666.9 1035.3,1675.7 1011.2,1684.7  A 522.500,522.500 0.00 0,1 987.4,1601.2 L 987.4,1601.2 1013.6,1596.0 1039.9,1590.9 1066.1,1585.7 1092.4,1580.6 1118.6,1575.4 1144.9,1570.3 1171.2,1565.2 1197.5,1560.1 1223.8,1555.0 1250.1,1550.0 1276.5,1544.9 1302.8,1539.9 1329.1,1534.9 1355.5,1529.9 1381.8,1524.9 1408.2,1519.9 1434.6,1514.9 1460.9,1510.0 1487.3,1505.0 1513.7,1500.1 1540.0,1495.2 1566.4,1490.4 1592.8,1485.5 1619.2,1480.6 1645.6,1475.8 1672.0,1471.0 1698.3,1466.2 1724.7,1461.4 1751.1,1456.6 1777.5,1451.9 1803.9,1447.2 1830.2,1442.4 1856.6,1437.7 1883.0,1433.1 1909.3,1428.4 1935.7,1423.7 1962.0,1419.1 1988.3,1414.4 2014.7,1409.8  Z" style="stroke-width: 0.5;  stroke: rgb(0,0,0); fill: rgb(179,177,178);" />
<path d="M 1997.235,1660.511 A 522.500,522.500 0.00 0,1 1977.7,1711.8 L 1977.7,1711.8 1956.5,1702.7 1935.0,1693.9 1913.0,1685.7 1890.8,1677.9 1868.3,1670.8 1845.6,1664.2 1822.6,1658.2 1799.5,1652.9 1776.2,1648.4 1752.8,1644.6 1729.3,1641.5 1705.7,1639.3 1682.1,1637.9 1658.6,1637.3 1635.0,1637.5 1611.5,1638.7 1588.1,1640.7 1564.9,1643.6 1541.7,1647.3 1518.7,1652.0 1496.0,1657.5 1473.4,1663.9 1451.0,1671.1 1429.0,1679.2 1407.2,1688.1 1385.7,1697.7 1364.5,1708.2 1343.7,1719.4 1323.2,1731.3 1303.1,1743.9 1283.4,1757.2 1264.1,1771.0 1245.3,1785.4 1226.8,1800.3 1208.9,1815.7 1191.4,1831.5 1174.4,1847.6 1158.0,1864.0 1142.0,1880.6  A 522.500,522.500 0.00 0,1 1104.0,1840.9 L 1104.0,1840.9 1122.1,1825.7 1140.6,1810.6 1159.6,1795.9 1179.0,1781.4 1198.9,1767.3 1219.2,1753.7 1239.9,1740.4 1260.9,1727.7 1282.4,1715.5 1304.1,1703.8 1326.3,1692.7 1348.7,1682.2 1371.4,1672.4 1394.5,1663.2 1417.8,1654.7 1441.3,1646.9 1465.0,1639.8 1489.0,1633.4 1513.2,1627.7 1537.5,1622.8 1561.9,1618.7 1586.5,1615.2 1611.1,1612.6 1635.8,1610.6 1660.6,1609.4 1685.4,1609.0 1710.2,1609.2 1734.9,1610.2 1759.6,1611.8 1784.2,1614.1 1808.7,1617.0 1833.1,1620.6 1857.3,1624.8 1881.2,1629.5 1905.0,1634.8 1928.5,1640.6 1951.8,1646.8 1974.7,1653.5 1997.2,1660.5  Z" style="stroke-width: 0.5;  stroke: rgb(0,0,0); fill: rgb(179,177,178);" />
<path d="M 1875.326,1863.506 A 522.500,522.500 0.00 0,1 1835.9,1900.2 L 1835.9,1900.2 1822.3,1884.3 1808.3,1868.8 1794.1,1853.6 1779.5,1839.0 1764.8,1825.0 1749.9,1811.7 1734.8,1799.3 1719.7,1787.7 1704.5,1777.1 1689.3,1767.5 1674.1,1759.0 1658.9,1751.6 1643.9,1745.4 1628.9,1740.4 1614.1,1736.7 1599.5,1734.3 1585.0,1733.2 1570.8,1733.5 1556.8,1735.0 1543.1,1737.9 1529.7,1742.1 1516.6,1747.7 1503.9,1754.5 1491.5,1762.7 1479.4,1772.0 1467.8,1782.6 1456.5,1794.4 1445.6,1807.3 1435.2,1821.2 1425.1,1836.1 1415.5,1852.0 1406.4,1868.7 1397.6,1886.2 1389.4,1904.4 1381.6,1923.1 1374.2,1942.4 1367.3,1962.0 1360.8,1981.9 1354.8,2001.9  A 522.500,522.500 0.00 0,1 1304.2,1984.4 L 1304.2,1984.4 1312.4,1964.8 1321.1,1945.3 1330.3,1926.0 1340.0,1907.2 1350.1,1888.8 1360.8,1871.0 1372.0,1853.9 1383.6,1837.4 1395.6,1821.8 1408.1,1807.1 1421.1,1793.3 1434.5,1780.5 1448.3,1768.8 1462.5,1758.1 1477.0,1748.6 1491.9,1740.3 1507.2,1733.2 1522.8,1727.2 1538.7,1722.6 1554.8,1719.2 1571.2,1717.0 1587.9,1716.1 1604.7,1716.4 1621.8,1718.0 1638.9,1720.8 1656.2,1724.8 1673.6,1729.9 1691.0,1736.2 1708.4,1743.5 1725.8,1751.9 1743.2,1761.3 1760.4,1771.6 1777.6,1782.8 1794.6,1794.8 1811.3,1807.4 1827.8,1820.7 1844.0,1834.6 1859.9,1848.9 1875.3,1863.5  Z" style="stroke-width: 0.5;  stroke: rgb(0,0,0); fill: rgb(179,177,178);" />
<path d="M 1970.546,1727.141 A 522.500,522.500 0.00 0,1 1951.2,1763.4 L 1951.2,1763.4 1931.7,1752.3 1911.8,1741.6 1891.5,1731.4 1870.9,1721.8 1850.0,1712.7 1828.8,1704.2 1807.4,1696.5 1785.9,1689.5 1764.1,1683.4 1742.3,1678.0 1720.4,1673.6 1698.5,1670.0 1676.5,1667.4 1654.6,1665.7 1632.7,1665.0 1610.9,1665.3 1589.2,1666.6 1567.6,1668.9 1546.2,1672.2 1525.1,1676.6 1504.1,1681.9 1483.4,1688.2 1462.9,1695.5 1442.7,1703.8 1422.9,1713.1 1403.4,1723.2 1384.2,1734.2 1365.4,1746.1 1347.0,1758.8 1329.0,1772.3 1311.5,1786.5 1294.4,1801.4 1277.7,1816.9 1261.6,1833.0 1245.9,1849.5 1230.7,1866.5 1216.1,1883.9 1201.9,1901.5 1188.3,1919.4  A 522.500,522.500 0.00 0,1 1156.2,1893.4 L 1156.2,1893.4 1171.4,1876.4 1187.1,1859.6 1203.4,1843.0 1220.2,1826.8 1237.4,1811.1 1255.2,1795.8 1273.3,1781.0 1292.0,1766.8 1311.0,1753.2 1330.5,1740.3 1350.3,1728.1 1370.6,1716.6 1391.1,1705.9 1412.0,1696.0 1433.3,1687.0 1454.8,1678.8 1476.6,1671.5 1498.6,1665.1 1520.9,1659.6 1543.4,1655.0 1566.0,1651.4 1588.8,1648.6 1611.7,1646.8 1634.7,1645.9 1657.8,1645.9 1680.9,1646.7 1704.0,1648.5 1727.1,1651.1 1750.1,1654.6 1773.1,1658.8 1796.0,1663.9 1818.7,1669.6 1841.2,1676.1 1863.5,1683.2 1885.6,1691.0 1907.3,1699.3 1928.8,1708.1 1949.9,1717.4 1970.5,1727.1  Z" style="stroke-width: 0.5;  stroke: rgb(0,0,0); fill: rgb(179,177,178);" />
<path d="M 1930.553,1796.025 A 522.500,522.500 0.00 0,1 1907.0,1827.7 L 1907.0,1827.7 1889.9,1814.3 1872.4,1801.2 1854.6,1788.7 1836.4,1776.6 1817.9,1765.2 1799.2,1754.5 1780.3,1744.6 1761.3,1735.5 1742.1,1727.2 1722.8,1719.9 1703.5,1713.6 1684.2,1708.3 1664.9,1704.1 1645.6,1700.9 1626.4,1698.9 1607.4,1698.0 1588.5,1698.3 1569.7,1699.7 1551.2,1702.3 1532.9,1706.1 1514.8,1711.0 1497.0,1717.1 1479.5,1724.3 1462.4,1732.7 1445.6,1742.1 1429.1,1752.6 1413.0,1764.1 1397.4,1776.6 1382.1,1790.1 1367.3,1804.4 1352.9,1819.5 1339.0,1835.4 1325.6,1852.0 1312.6,1869.2 1300.2,1887.0 1288.2,1905.2 1276.8,1923.8 1265.9,1942.7 1255.5,1961.8  A 522.500,522.500 0.00 0,1 1221.8,1942.3 L 1221.8,1942.3 1233.7,1923.7 1246.2,1905.4 1259.3,1887.4 1272.8,1869.7 1286.9,1852.4 1301.5,1835.7 1316.5,1819.6 1332.0,1804.1 1348.0,1789.4 1364.4,1775.4 1381.3,1762.3 1398.6,1750.1 1416.2,1738.7 1434.3,1728.4 1452.6,1719.0 1471.3,1710.6 1490.4,1703.3 1509.7,1697.0 1529.3,1691.9 1549.1,1687.8 1569.1,1684.8 1589.3,1682.9 1609.7,1682.1 1630.2,1682.3 1650.8,1683.7 1671.4,1686.1 1692.1,1689.5 1712.8,1693.9 1733.5,1699.3 1754.1,1705.6 1774.6,1712.8 1795.0,1720.9 1815.2,1729.7 1835.2,1739.3 1854.9,1749.6 1874.4,1760.4 1893.5,1771.9 1912.2,1783.7 1930.6,1796.0  Z" style="stroke-width: 0.5;  stroke: rgb(0,0,0); fill: rgb(179,177,178);" />
<path d="M 1950.493,1764.692 A 522.500,522.500 0.00 0,1 1930.8,1795.6 L 1930.8,1795.6 1912.5,1783.3 1893.7,1771.5 1874.6,1760.1 1855.1,1749.2 1835.4,1739.0 1815.4,1729.4 1795.2,1720.6 1774.8,1712.5 1754.2,1705.3 1733.6,1699.0 1712.9,1693.6 1692.2,1689.2 1671.4,1685.8 1650.8,1683.4 1630.1,1682.1 1609.6,1681.8 1589.2,1682.6 1569.0,1684.5 1548.9,1687.5 1529.1,1691.6 1509.5,1696.8 1490.2,1703.0 1471.1,1710.3 1452.4,1718.7 1433.9,1728.1 1415.9,1738.4 1398.2,1749.7 1380.9,1762.0 1364.0,1775.1 1347.5,1789.0 1331.5,1803.8 1316.0,1819.2 1300.9,1835.3 1286.3,1852.0 1272.2,1869.2 1258.6,1886.9 1245.5,1904.9 1233.0,1923.2 1221.0,1941.7  A 522.500,522.500 0.00 0,1 1190.5,1921.0 L 1190.5,1921.0 1204.0,1903.1 1218.0,1885.4 1232.5,1868.0 1247.6,1850.9 1263.2,1834.3 1279.3,1818.2 1295.8,1802.6 1312.8,1787.7 1330.3,1773.4 1348.2,1759.9 1366.5,1747.2 1385.2,1735.2 1404.2,1724.2 1423.7,1714.0 1443.4,1704.7 1463.5,1696.4 1483.9,1689.1 1504.6,1682.7 1525.5,1677.3 1546.6,1673.0 1567.9,1669.7 1589.4,1667.4 1611.0,1666.1 1632.7,1665.8 1654.6,1666.5 1676.4,1668.2 1698.3,1670.8 1720.2,1674.4 1742.1,1678.9 1763.8,1684.3 1785.5,1690.5 1807.0,1697.5 1828.4,1705.3 1849.5,1713.7 1870.4,1722.9 1890.9,1732.6 1911.2,1742.8 1931.0,1753.6 1950.5,1764.7  Z" style="stroke-width: 0.5;  stroke: rgb(0,0,0); fill: rgb(179,177,178);" />
<path d="M 1836.059,1099.912 A 522.500,522.500 0.00 0,1 1860.7,1122.0 L 1860.7,1122.0 1843.7,1139.6 1826.3,1157.0 1808.5,1174.3 1790.2,1191.5 1771.6,1208.4 1752.5,1225.0 1733.1,1241.4 1713.2,1257.5 1693.0,1273.3 1672.4,1288.7 1651.5,1303.8 1630.2,1318.4 1608.5,1332.6 1586.6,1346.4 1564.3,1359.8 1541.7,1372.7 1518.8,1385.1 1495.6,1397.0 1472.2,1408.4 1448.5,1419.2 1424.6,1429.6 1400.5,1439.4 1376.2,1448.7 1351.7,1457.5 1327.1,1465.7 1302.3,1473.4 1277.4,1480.6 1252.4,1487.2 1227.4,1493.3 1202.3,1498.9 1177.1,1504.0 1152.0,1508.5 1126.9,1512.6 1101.8,1516.2 1076.8,1519.4 1052.0,1522.1 1027.2,1524.3 1002.6,1526.2 978.2,1527.7  A 522.500,522.500 0.00 0,1 977.5,1493.2 L 977.5,1493.2 1001.6,1493.3 1025.9,1493.0 1050.3,1492.2 1074.9,1491.0 1099.7,1489.2 1124.5,1487.0 1149.3,1484.2 1174.2,1480.8 1199.1,1476.9 1224.0,1472.4 1248.8,1467.3 1273.6,1461.6 1298.2,1455.3 1322.6,1448.4 1347.0,1440.8 1371.1,1432.6 1395.0,1423.8 1418.7,1414.4 1442.2,1404.4 1465.4,1393.8 1488.3,1382.6 1510.9,1370.8 1533.2,1358.4 1555.1,1345.4 1576.7,1332.0 1598.0,1318.0 1618.8,1303.4 1639.3,1288.4 1659.3,1273.0 1679.0,1257.1 1698.2,1240.8 1717.0,1224.1 1735.4,1207.1 1753.3,1189.8 1770.8,1172.2 1787.8,1154.4 1804.3,1136.4 1820.4,1118.2 1836.1,1099.9  Z" style="stroke-width: 0.5;  stroke: rgb(0,0,0); fill: rgb(179,177,178);" />
<path d="M 1999.552,1346.853 A 522.500,522.500 0.00 0,1 2007.9,1377.6 L 2007.9,1377.6 1982.1,1383.8 1956.2,1390.0 1930.3,1396.1 1904.3,1402.3 1878.3,1408.4 1852.2,1414.4 1826.2,1420.5 1800.1,1426.5 1774.0,1432.4 1747.8,1438.3 1721.7,1444.2 1695.5,1450.1 1669.2,1455.9 1643.0,1461.6 1616.8,1467.3 1590.5,1473.0 1564.2,1478.6 1537.9,1484.2 1511.6,1489.7 1485.3,1495.2 1458.9,1500.6 1432.6,1506.0 1406.3,1511.3 1379.9,1516.6 1353.6,1521.9 1327.2,1527.1 1300.9,1532.2 1274.5,1537.3 1248.2,1542.4 1221.8,1547.4 1195.5,1552.3 1169.2,1557.2 1142.9,1562.1 1116.6,1566.9 1090.3,1571.7 1064.0,1576.4 1037.8,1581.1 1011.6,1585.8 985.4,1590.4  A 522.500,522.500 0.00 0,1 980.8,1558.7 L 980.8,1558.7 1006.9,1555.7 1033.0,1552.6 1059.2,1549.4 1085.4,1546.1 1111.7,1542.6 1138.0,1539.0 1164.4,1535.3 1190.8,1531.5 1217.2,1527.5 1243.7,1523.4 1270.2,1519.2 1296.7,1514.8 1323.2,1510.3 1349.7,1505.7 1376.2,1500.9 1402.7,1496.0 1429.2,1490.9 1455.7,1485.7 1482.1,1480.3 1508.5,1474.8 1534.9,1469.2 1561.3,1463.4 1587.6,1457.5 1613.9,1451.5 1640.1,1445.3 1666.3,1439.0 1692.4,1432.6 1718.4,1426.0 1744.4,1419.3 1770.3,1412.5 1796.1,1405.6 1821.9,1398.6 1847.5,1391.5 1873.1,1384.3 1898.6,1377.0 1924.0,1369.5 1949.3,1362.1 1974.5,1354.5 1999.6,1346.9  Z" style="stroke-width: 0.5;  stroke: rgb(0,0,0); fill: rgb(179,177,178);" />
<path d="M 1556.165,980.527 A 522.500,522.500 0.00 0,1 1585.9,984.6 L 1585.9,984.6 1582.3,1005.0 1578.3,1025.2 1573.9,1045.2 1569.0,1064.9 1563.8,1084.1 1558.0,1102.6 1551.9,1120.5 1545.3,1137.7 1538.2,1153.9 1530.7,1169.2 1522.7,1183.5 1514.3,1196.8 1505.4,1208.8 1496.1,1219.7 1486.4,1229.3 1476.2,1237.7 1465.7,1244.8 1454.7,1250.5 1443.4,1254.8 1431.7,1257.8 1419.7,1259.4 1407.4,1259.7 1394.7,1258.6 1381.8,1256.1 1368.6,1252.4 1355.2,1247.3 1341.7,1241.0 1327.9,1233.4 1314.1,1224.7 1300.1,1214.9 1286.1,1204.1 1272.1,1192.2 1258.0,1179.5 1244.1,1166.0 1230.3,1151.7 1216.6,1136.8 1203.1,1121.4 1189.8,1105.5 1176.9,1089.4  A 522.500,522.500 0.00 0,1 1201.0,1071.5 L 1201.0,1071.5 1212.9,1088.2 1225.1,1104.7 1237.5,1120.7 1250.0,1136.3 1262.6,1151.2 1275.3,1165.5 1288.1,1178.9 1300.9,1191.4 1313.6,1202.9 1326.2,1213.3 1338.7,1222.6 1351.0,1230.8 1363.2,1237.7 1375.2,1243.3 1386.9,1247.6 1398.3,1250.6 1409.5,1252.2 1420.3,1252.4 1430.9,1251.2 1441.0,1248.6 1450.8,1244.6 1460.3,1239.2 1469.3,1232.4 1477.9,1224.3 1486.1,1214.9 1493.9,1204.2 1501.2,1192.3 1508.1,1179.2 1514.6,1165.1 1520.7,1149.8 1526.3,1133.6 1531.4,1116.5 1536.2,1098.7 1540.5,1080.1 1544.4,1060.9 1547.9,1041.2 1551.0,1021.2 1553.8,1000.9 1556.2,980.5  Z" style="stroke-width: 0.5;  stroke: rgb(0,0,0); fill: rgb(179,177,178);" />
<path d="M 1681.891,1010.182 A 522.500,522.500 0.00 0,1 1709.3,1021.2 L 1709.3,1021.2 1700.3,1041.3 1690.7,1061.2 1680.5,1080.8 1669.8,1100.2 1658.5,1119.2 1646.7,1137.8 1634.3,1155.8 1621.3,1173.2 1607.8,1189.9 1593.7,1205.9 1579.1,1221.2 1564.0,1235.6 1548.4,1249.1 1532.3,1261.7 1515.7,1273.3 1498.6,1284.0 1481.1,1293.6 1463.1,1302.2 1444.7,1309.8 1426.0,1316.2 1406.9,1321.6 1387.5,1326.0 1367.7,1329.2 1347.7,1331.4 1327.5,1332.5 1307.0,1332.5 1286.3,1331.5 1265.6,1329.5 1244.7,1326.6 1223.7,1322.7 1202.8,1317.8 1181.8,1312.1 1161.0,1305.6 1140.2,1298.4 1119.6,1290.4 1099.2,1281.8 1079.0,1272.5 1059.2,1262.8 1039.8,1252.7  A 522.500,522.500 0.00 0,1 1054.6,1226.9 L 1054.6,1226.9 1073.2,1238.0 1092.2,1248.7 1111.5,1258.9 1131.0,1268.5 1150.8,1277.5 1170.7,1285.7 1190.7,1293.1 1210.7,1299.8 1230.8,1305.5 1250.8,1310.2 1270.7,1314.0 1290.6,1316.8 1310.2,1318.5 1329.7,1319.2 1348.9,1318.7 1367.9,1317.2 1386.6,1314.5 1405.0,1310.6 1423.0,1305.7 1440.6,1299.6 1457.9,1292.4 1474.7,1284.0 1491.1,1274.6 1507.0,1264.1 1522.4,1252.6 1537.3,1240.1 1551.7,1226.6 1565.6,1212.2 1578.9,1196.9 1591.7,1180.8 1604.0,1163.9 1615.7,1146.3 1626.8,1128.1 1637.4,1109.4 1647.4,1090.1 1656.9,1070.5 1665.8,1050.6 1674.1,1030.4 1681.9,1010.2  Z" style="stroke-width: 0.5;  stroke: rgb(0,0,0); fill: rgb(179,177,178);" />
<path d="M 1500.000,977.500 A 522.500,522.500 0.00 0,1 1526.4,978.2 L 1526.4,978.2 1525.2,998.5 1523.7,1018.8 1521.9,1038.8 1519.7,1058.4 1517.2,1077.6 1514.2,1096.1 1510.9,1113.9 1507.2,1130.9 1503.0,1147.0 1498.5,1162.1 1493.5,1176.2 1488.1,1189.1 1482.2,1200.8 1476.0,1211.3 1469.3,1220.4 1462.2,1228.3 1454.8,1234.7 1446.9,1239.8 1438.6,1243.5 1429.9,1245.7 1420.9,1246.5 1411.6,1245.9 1401.9,1243.8 1391.9,1240.4 1381.6,1235.6 1371.1,1229.4 1360.4,1222.0 1349.4,1213.2 1338.2,1203.3 1327.0,1192.3 1315.6,1180.2 1304.1,1167.1 1292.6,1153.1 1281.1,1138.3 1269.6,1122.8 1258.2,1106.7 1246.9,1090.0 1235.8,1073.0 1225.0,1055.7  A 522.500,522.500 0.00 0,1 1249.9,1041.2 L 1249.9,1041.2 1259.7,1059.0 1269.7,1076.5 1279.9,1093.7 1290.1,1110.4 1300.4,1126.5 1310.7,1141.8 1321.0,1156.4 1331.2,1170.0 1341.3,1182.7 1351.2,1194.3 1361.0,1204.7 1370.6,1214.0 1380.0,1222.0 1389.1,1228.6 1397.9,1233.9 1406.5,1237.9 1414.7,1240.4 1422.6,1241.4 1430.2,1241.0 1437.4,1239.2 1444.2,1235.9 1450.6,1231.2 1456.6,1225.1 1462.3,1217.5 1467.5,1208.6 1472.3,1198.4 1476.7,1186.9 1480.7,1174.2 1484.3,1160.4 1487.5,1145.4 1490.3,1129.5 1492.7,1112.6 1494.8,1094.9 1496.4,1076.5 1497.8,1057.5 1498.8,1037.9 1499.5,1018.0 1499.9,997.8 1500.0,977.5  Z" style="stroke-width: 0.5;  stroke: rgb(0,0,0); fill: rgb(179,177,178);" />
<path d="M 1756.447,1044.762 A 522.500,522.500 0.00 0,1 1779.0,1058.2 L 1779.0,1058.2 1766.4,1077.8 1753.2,1097.2 1739.6,1116.4 1725.3,1135.5 1710.5,1154.3 1695.2,1172.7 1679.4,1190.8 1663.0,1208.4 1646.2,1225.6 1628.8,1242.3 1610.9,1258.4 1592.5,1273.9 1573.6,1288.8 1554.3,1303.1 1534.5,1316.7 1514.3,1329.6 1493.6,1341.8 1472.6,1353.3 1451.1,1364.0 1429.3,1373.9 1407.2,1383.1 1384.8,1391.4 1362.0,1399.0 1339.0,1405.8 1315.8,1411.9 1292.3,1417.1 1268.7,1421.6 1244.9,1425.3 1221.0,1428.2 1197.0,1430.4 1172.9,1431.9 1148.9,1432.7 1124.9,1432.8 1100.9,1432.2 1077.0,1431.1 1053.3,1429.4 1029.8,1427.1 1006.5,1424.3 983.5,1421.0  A 522.500,522.500 0.00 0,1 988.2,1394.9 L 988.2,1394.9 1010.7,1399.3 1033.6,1403.2 1056.6,1406.6 1079.9,1409.3 1103.3,1411.5 1126.9,1413.1 1150.5,1413.9 1174.1,1414.1 1197.7,1413.5 1221.2,1412.1 1244.7,1410.0 1268.0,1407.0 1291.1,1403.3 1314.1,1398.7 1336.8,1393.2 1359.3,1387.0 1381.4,1379.8 1403.3,1371.9 1424.8,1363.1 1446.0,1353.4 1466.7,1343.0 1487.1,1331.7 1507.0,1319.6 1526.5,1306.8 1545.5,1293.2 1564.0,1278.9 1582.0,1263.9 1599.5,1248.2 1616.5,1231.9 1633.0,1215.1 1648.9,1197.6 1664.3,1179.7 1679.2,1161.4 1693.4,1142.6 1707.2,1123.5 1720.3,1104.1 1732.9,1084.4 1745.0,1064.6 1756.4,1044.8  Z" style="stroke-width: 0.5;  stroke: rgb(0,0,0); fill: rgb(179,177,178);" />
<path d="M 1637.260,995.851 A 522.500,522.500 0.00 0,1 1662.2,1003.3 L 1662.2,1003.3 1655.4,1023.3 1648.1,1043.3 1640.3,1062.9 1632.0,1082.2 1623.3,1101.1 1614.0,1119.3 1604.3,1137.0 1594.0,1153.9 1583.3,1170.0 1572.1,1185.2 1560.5,1199.5 1548.4,1212.8 1535.8,1225.0 1522.8,1236.1 1509.4,1246.0 1495.5,1254.8 1481.3,1262.4 1466.7,1268.7 1451.8,1273.7 1436.5,1277.5 1421.0,1280.1 1405.1,1281.3 1389.0,1281.3 1372.7,1280.0 1356.2,1277.5 1339.5,1273.8 1322.7,1268.9 1305.7,1262.9 1288.7,1255.7 1271.7,1247.5 1254.7,1238.3 1237.7,1228.2 1220.9,1217.2 1204.1,1205.4 1187.6,1192.8 1171.2,1179.6 1155.1,1165.9 1139.4,1151.7 1124.0,1137.2  A 522.500,522.500 0.00 0,1 1142.7,1118.8 L 1142.7,1118.8 1157.2,1133.9 1172.1,1148.7 1187.2,1163.1 1202.6,1177.0 1218.2,1190.2 1234.0,1202.7 1249.9,1214.3 1265.8,1225.1 1281.8,1235.0 1297.8,1243.8 1313.7,1251.5 1329.5,1258.2 1345.2,1263.6 1360.8,1267.8 1376.2,1270.8 1391.4,1272.5 1406.3,1273.0 1421.0,1272.1 1435.4,1269.9 1449.4,1266.4 1463.1,1261.6 1476.5,1255.5 1489.5,1248.2 1502.1,1239.5 1514.3,1229.7 1526.1,1218.7 1537.4,1206.5 1548.3,1193.2 1558.8,1178.9 1568.7,1163.7 1578.3,1147.5 1587.3,1130.5 1595.9,1112.7 1603.9,1094.3 1611.5,1075.4 1618.7,1055.9 1625.3,1036.1 1631.5,1016.0 1637.3,995.9  Z" style="stroke-width: 0.5;  stroke: rgb(0,0,0); fill: rgb(179,177,178);" />
<path d="M 1815.277,1083.339 A 522.500,522.500 0.00 0,1 1833.0,1097.3 L 1833.0,1097.3 1817.5,1115.7 1801.6,1133.9 1785.2,1152.0 1768.4,1169.9 1751.0,1187.6 1733.3,1204.9 1715.0,1222.0 1696.4,1238.7 1677.3,1255.0 1657.7,1271.0 1637.8,1286.4 1617.4,1301.4 1596.7,1316.0 1575.5,1330.0 1554.0,1343.4 1532.1,1356.3 1509.9,1368.7 1487.4,1380.4 1464.6,1391.5 1441.4,1402.1 1418.0,1412.0 1394.4,1421.3 1370.5,1430.0 1346.4,1438.0 1322.1,1445.4 1297.7,1452.1 1273.1,1458.3 1248.4,1463.8 1223.7,1468.7 1198.8,1473.0 1174.0,1476.7 1149.1,1479.8 1124.3,1482.4 1099.5,1484.4 1074.8,1485.8 1050.3,1486.8 1025.9,1487.3 1001.6,1487.3 977.7,1487.0  A 522.500,522.500 0.00 0,1 978.7,1464.3 L 978.7,1464.3 1002.4,1465.7 1026.3,1466.6 1050.5,1467.1 1074.8,1467.1 1099.2,1466.5 1123.8,1465.4 1148.4,1463.7 1173.0,1461.4 1197.7,1458.4 1222.2,1454.8 1246.8,1450.6 1271.2,1445.7 1295.5,1440.1 1319.7,1433.9 1343.6,1426.9 1367.4,1419.3 1390.9,1411.0 1414.2,1402.0 1437.3,1392.3 1460.0,1382.0 1482.4,1371.0 1504.5,1359.3 1526.2,1347.0 1547.5,1334.1 1568.5,1320.6 1589.1,1306.4 1609.2,1291.8 1629.0,1276.5 1648.3,1260.8 1667.1,1244.6 1685.5,1228.0 1703.4,1210.9 1720.9,1193.5 1737.8,1175.7 1754.3,1157.7 1770.3,1139.3 1785.8,1120.8 1800.8,1102.1 1815.3,1083.3  Z" style="stroke-width: 0.5;  stroke: rgb(0,0,0); fill: rgb(179,177,178);" />
<path d="M 1889.615,1848.147 A 522.500,522.500 0.00 0,1 1875.4,1863.5 L 1875.4,1863.5 1859.9,1848.8 1844.0,1834.5 1827.8,1820.7 1811.3,1807.4 1794.5,1794.7 1777.6,1782.7 1760.4,1771.6 1743.1,1761.3 1725.7,1751.9 1708.3,1743.5 1690.8,1736.1 1673.4,1729.8 1656.0,1724.6 1638.7,1720.7 1621.5,1717.8 1604.4,1716.3 1587.6,1715.9 1570.9,1716.8 1554.4,1718.9 1538.2,1722.3 1522.3,1727.0 1506.6,1732.9 1491.3,1740.0 1476.3,1748.3 1461.7,1757.8 1447.5,1768.4 1433.6,1780.1 1420.2,1792.9 1407.2,1806.7 1394.6,1821.4 1382.4,1837.0 1370.8,1853.4 1359.5,1870.5 1348.8,1888.3 1338.6,1906.6 1328.8,1925.4 1319.5,1944.6 1310.7,1964.1 1302.5,1983.7  A 522.500,522.500 0.00 0,1 1283.4,1975.5 L 1283.4,1975.5 1292.5,1956.0 1302.1,1936.8 1312.3,1917.8 1322.9,1899.2 1334.1,1881.0 1345.7,1863.5 1357.9,1846.5 1370.5,1830.3 1383.5,1814.8 1397.0,1800.2 1411.0,1786.6 1425.3,1773.9 1440.1,1762.2 1455.3,1751.6 1470.8,1742.1 1486.7,1733.7 1503.0,1726.5 1519.5,1720.5 1536.4,1715.7 1553.5,1712.1 1570.8,1709.7 1588.4,1708.6 1606.2,1708.7 1624.1,1709.9 1642.1,1712.4 1660.3,1716.0 1678.5,1720.7 1696.8,1726.6 1715.1,1733.5 1733.3,1741.4 1751.5,1750.3 1769.5,1760.0 1787.4,1770.7 1805.2,1782.1 1822.7,1794.2 1839.9,1807.0 1856.9,1820.3 1873.4,1834.0 1889.6,1848.1  Z" style="stroke-width: 0.5;  stroke: rgb(0,0,0); fill: rgb(179,177,178);" />
<path d="M 1663.891,1003.869 A 522.500,522.500 0.00 0,1 1681.3,1010.0 L 1681.3,1010.0 1673.5,1030.2 1665.2,1050.3 1656.3,1070.3 1646.9,1089.9 1636.9,1109.1 1626.4,1127.9 1615.3,1146.1 1603.6,1163.7 1591.4,1180.6 1578.6,1196.7 1565.3,1212.0 1551.4,1226.4 1537.1,1239.9 1522.2,1252.4 1506.8,1263.9 1490.9,1274.4 1474.6,1283.8 1457.8,1292.1 1440.6,1299.3 1423.0,1305.4 1405.0,1310.3 1386.7,1314.1 1368.0,1316.8 1349.0,1318.3 1329.8,1318.8 1310.4,1318.1 1290.7,1316.4 1270.9,1313.6 1251.0,1309.7 1231.0,1304.9 1211.0,1299.2 1191.0,1292.5 1171.0,1285.1 1151.1,1276.8 1131.4,1267.8 1111.9,1258.2 1092.6,1248.0 1073.7,1237.2 1055.1,1226.1  A 522.500,522.500 0.00 0,1 1064.9,1210.7 L 1064.9,1210.7 1083.0,1222.4 1101.4,1233.7 1120.1,1244.5 1139.1,1254.7 1158.3,1264.3 1177.6,1273.1 1197.0,1281.2 1216.4,1288.3 1235.9,1294.6 1255.2,1299.9 1274.5,1304.3 1293.7,1307.5 1312.7,1309.8 1331.5,1310.9 1350.1,1310.8 1368.3,1309.7 1386.3,1307.3 1403.9,1303.8 1421.2,1299.2 1438.1,1293.3 1454.6,1286.3 1470.6,1278.2 1486.2,1269.0 1501.3,1258.6 1515.9,1247.2 1530.0,1234.7 1543.6,1221.3 1556.7,1206.9 1569.2,1191.6 1581.2,1175.4 1592.6,1158.5 1603.4,1140.8 1613.7,1122.5 1623.5,1103.7 1632.7,1084.3 1641.3,1064.6 1649.4,1044.5 1656.9,1024.2 1663.9,1003.9  Z" style="stroke-width: 0.5;  stroke: rgb(0,0,0); fill: rgb(179,177,178);" />
<path d="M 1795.024,1068.761 A 522.500,522.500 0.00 0,1 1809.3,1078.9 L 1809.3,1078.9 1795.2,1097.8 1780.5,1116.6 1765.3,1135.3 1749.6,1153.7 1733.4,1171.9 1716.7,1189.8 1699.6,1207.3 1681.9,1224.4 1663.7,1241.1 1645.1,1257.4 1626.1,1273.2 1606.6,1288.4 1586.6,1303.1 1566.2,1317.2 1545.4,1330.7 1524.3,1343.6 1502.7,1355.8 1480.8,1367.4 1458.5,1378.3 1435.9,1388.5 1413.1,1398.0 1389.9,1406.9 1366.5,1415.0 1342.8,1422.4 1319.0,1429.1 1294.9,1435.1 1270.7,1440.4 1246.4,1445.0 1222.0,1448.9 1197.5,1452.2 1172.9,1454.8 1148.4,1456.7 1123.9,1458.1 1099.4,1458.8 1075.1,1459.0 1050.9,1458.6 1026.9,1457.7 1003.0,1456.3 979.5,1454.5  A 522.500,522.500 0.00 0,1 981.2,1437.6 L 981.2,1437.6 1004.5,1440.2 1028.1,1442.3 1051.9,1443.9 1075.9,1445.0 1100.0,1445.5 1124.2,1445.4 1148.5,1444.6 1172.8,1443.3 1197.1,1441.2 1221.4,1438.5 1245.6,1435.1 1269.6,1431.0 1293.6,1426.1 1317.4,1420.5 1340.9,1414.1 1364.3,1407.0 1387.4,1399.2 1410.2,1390.6 1432.8,1381.2 1455.0,1371.2 1476.9,1360.4 1498.4,1348.9 1519.5,1336.7 1540.3,1323.8 1560.6,1310.2 1580.5,1296.1 1599.9,1281.3 1618.9,1265.9 1637.4,1249.9 1655.5,1233.5 1673.0,1216.6 1690.1,1199.2 1706.6,1181.4 1722.6,1163.2 1738.2,1144.8 1753.2,1126.0 1767.6,1107.1 1781.6,1088.0 1795.0,1068.8  Z" style="stroke-width: 0.5;  stroke: rgb(0,0,0); fill: rgb(179,177,178);" />
<path d="M 1739.061,1035.397 A 522.500,522.500 0.00 0,1 1753.3,1043.0 L 1753.3,1043.0 1742.0,1062.9 1730.1,1082.8 1717.6,1102.5 1704.6,1121.9 1691.0,1141.1 1676.9,1159.9 1662.2,1178.3 1647.0,1196.2 1631.2,1213.7 1614.8,1230.6 1598.0,1246.9 1580.6,1262.6 1562.7,1277.6 1544.3,1291.9 1525.4,1305.5 1506.0,1318.3 1486.2,1330.4 1465.9,1341.6 1445.3,1352.1 1424.2,1361.7 1402.8,1370.4 1381.0,1378.3 1358.9,1385.4 1336.5,1391.6 1313.9,1397.0 1291.0,1401.5 1267.9,1405.2 1244.7,1408.0 1221.3,1410.0 1197.8,1411.3 1174.3,1411.8 1150.7,1411.5 1127.2,1410.5 1103.7,1408.9 1080.4,1406.5 1057.1,1403.6 1034.1,1400.1 1011.4,1396.1 988.9,1391.6  A 522.500,522.500 0.00 0,1 992.5,1375.7 L 992.5,1375.7 1014.7,1380.9 1037.1,1385.6 1059.8,1389.7 1082.8,1393.3 1105.8,1396.2 1129.0,1398.5 1152.3,1400.1 1175.5,1400.9 1198.7,1401.0 1221.9,1400.2 1245.0,1398.7 1267.9,1396.3 1290.6,1393.1 1313.2,1388.9 1335.4,1384.0 1357.4,1378.1 1379.1,1371.3 1400.5,1363.7 1421.5,1355.2 1442.2,1345.8 1462.4,1335.5 1482.2,1324.4 1501.5,1312.4 1520.4,1299.7 1538.7,1286.1 1556.6,1271.8 1574.0,1256.8 1590.8,1241.0 1607.1,1224.6 1622.8,1207.6 1638.0,1190.1 1652.6,1172.0 1666.7,1153.4 1680.2,1134.4 1693.1,1115.1 1705.4,1095.4 1717.2,1075.5 1728.4,1055.5 1739.1,1035.4  Z" style="stroke-width: 0.5;  stroke: rgb(0,0,0); fill: rgb(179,177,178);" />
<path d="M 1834.985,1900.988 A 522.500,522.500 0.00 0,1 1823.9,1910.0 L 1823.9,1910.0 1810.8,1893.8 1797.4,1877.9 1783.7,1862.4 1769.8,1847.4 1755.6,1833.1 1741.3,1819.5 1726.9,1806.6 1712.4,1794.7 1697.8,1783.8 1683.2,1773.8 1668.7,1765.0 1654.2,1757.3 1639.8,1750.8 1625.6,1745.6 1611.5,1741.6 1597.5,1739.0 1583.8,1737.7 1570.3,1737.7 1557.0,1739.1 1544.1,1741.8 1531.4,1745.9 1519.0,1751.3 1507.0,1758.0 1495.3,1766.1 1484.0,1775.4 1473.0,1785.9 1462.5,1797.6 1452.3,1810.5 1442.6,1824.4 1433.2,1839.4 1424.3,1855.3 1415.9,1872.0 1407.8,1889.6 1400.2,1907.8 1393.0,1926.7 1386.3,1946.0 1380.0,1965.7 1374.1,1985.6 1368.7,2005.7  A 522.500,522.500 0.00 0,1 1354.8,2001.9 L 1354.8,2001.9 1360.8,1981.9 1367.3,1962.0 1374.2,1942.4 1381.6,1923.1 1389.4,1904.4 1397.6,1886.2 1406.3,1868.7 1415.5,1852.0 1425.1,1836.2 1435.1,1821.3 1445.5,1807.3 1456.4,1794.5 1467.7,1782.7 1479.3,1772.2 1491.3,1762.8 1503.7,1754.7 1516.5,1747.9 1529.5,1742.3 1542.9,1738.1 1556.6,1735.3 1570.5,1733.7 1584.7,1733.5 1599.1,1734.6 1613.7,1737.1 1628.5,1740.8 1643.4,1745.8 1658.5,1752.0 1673.6,1759.4 1688.7,1767.9 1703.9,1777.6 1719.1,1788.2 1734.2,1799.8 1749.2,1812.3 1764.1,1825.6 1778.8,1839.7 1793.3,1854.3 1807.5,1869.5 1821.4,1885.1 1835.0,1901.0  Z" style="stroke-width: 0.5;  stroke: rgb(0,0,0); fill: rgb(179,177,178);" />
<path d="M 1975.939,1715.611 A 522.500,522.500 0.00 0,1 1970.6,1727.1 L 1970.6,1727.1 1949.9,1717.3 1928.8,1708.0 1907.3,1699.2 1885.5,1690.9 1863.4,1683.1 1841.1,1675.9 1818.5,1669.4 1795.8,1663.6 1772.9,1658.6 1749.9,1654.3 1726.8,1650.8 1703.7,1648.2 1680.5,1646.4 1657.3,1645.4 1634.2,1645.4 1611.1,1646.2 1588.2,1648.0 1565.3,1650.7 1542.6,1654.3 1520.0,1658.8 1497.7,1664.2 1475.6,1670.5 1453.7,1677.7 1432.1,1685.8 1410.7,1694.7 1389.7,1704.5 1369.0,1715.1 1348.7,1726.5 1328.7,1738.6 1309.1,1751.4 1289.9,1764.8 1271.2,1778.9 1252.8,1793.6 1235.0,1808.8 1217.6,1824.5 1200.7,1840.5 1184.2,1857.0 1168.3,1873.7 1153.0,1890.6  A 522.500,522.500 0.00 0,1 1143.5,1882.0 L 1143.5,1882.0 1159.4,1865.3 1175.8,1848.9 1192.7,1832.8 1210.1,1817.0 1227.9,1801.6 1246.2,1786.6 1265.0,1772.2 1284.2,1758.3 1303.8,1745.1 1323.9,1732.5 1344.3,1720.6 1365.0,1709.4 1386.1,1698.9 1407.5,1689.2 1429.3,1680.4 1451.3,1672.3 1473.5,1665.1 1496.0,1658.8 1518.7,1653.3 1541.6,1648.8 1564.7,1645.1 1587.9,1642.3 1611.2,1640.4 1634.6,1639.3 1658.1,1639.2 1681.6,1639.9 1705.1,1641.4 1728.5,1643.8 1752.0,1646.9 1775.3,1650.9 1798.5,1655.6 1821.6,1661.0 1844.4,1667.1 1867.1,1673.8 1889.5,1681.2 1911.6,1689.1 1933.4,1697.5 1954.9,1706.3 1975.9,1715.6  Z" style="stroke-width: 0.5;  stroke: rgb(0,0,0); fill: rgb(179,177,178);" />
<path d="M 2022.487,1503.704 A 522.500,522.500 0.00 0,1 2022.3,1515.6 L 2022.3,1515.6 1996.8,1514.9 1971.2,1514.5 1945.4,1514.3 1919.5,1514.3 1893.5,1514.7 1867.4,1515.2 1841.1,1516.1 1814.8,1517.2 1788.4,1518.7 1761.9,1520.4 1735.4,1522.4 1708.9,1524.8 1682.3,1527.4 1655.7,1530.4 1629.1,1533.7 1602.6,1537.3 1576.0,1541.3 1549.5,1545.5 1523.0,1550.1 1496.6,1555.0 1470.2,1560.3 1443.9,1565.8 1417.7,1571.7 1391.6,1577.9 1365.6,1584.4 1339.8,1591.2 1314.0,1598.3 1288.4,1605.6 1262.9,1613.3 1237.6,1621.2 1212.5,1629.3 1187.5,1637.8 1162.7,1646.4 1138.1,1655.3 1113.7,1664.4 1089.5,1673.6 1065.6,1683.1 1041.8,1692.7 1018.3,1702.5  A 522.500,522.500 0.00 0,1 1013.9,1691.5 L 1013.9,1691.5 1037.7,1682.2 1061.8,1673.0 1086.0,1664.0 1110.5,1655.2 1135.2,1646.5 1160.0,1638.1 1185.0,1629.8 1210.2,1621.7 1235.5,1613.9 1261.0,1606.3 1286.6,1598.9 1312.3,1591.8 1338.2,1584.9 1364.2,1578.3 1390.3,1572.0 1416.5,1565.9 1442.7,1560.1 1469.1,1554.6 1495.5,1549.4 1522.0,1544.5 1548.5,1539.8 1575.1,1535.5 1601.7,1531.4 1628.3,1527.7 1654.9,1524.2 1681.5,1521.0 1708.1,1518.1 1734.7,1515.5 1761.3,1513.1 1787.8,1511.1 1814.2,1509.3 1840.6,1507.7 1866.9,1506.4 1893.1,1505.4 1919.3,1504.6 1945.3,1504.1 1971.1,1503.7 1996.9,1503.6 2022.5,1503.7  Z" style="stroke-width: 0.5;  stroke: rgb(0,0,0); fill: rgb(179,177,178);" />
<path d="M 2008.453,1379.660 A 522.500,522.500 0.00 0,1 2010.3,1387.6 L 2010.3,1387.6 1984.2,1393.3 1958.1,1399.1 1932.0,1404.8 1905.8,1410.5 1879.7,1416.2 1853.5,1421.8 1827.3,1427.5 1801.2,1433.1 1775.0,1438.8 1748.8,1444.4 1722.5,1450.0 1696.3,1455.5 1670.1,1461.1 1643.8,1466.6 1617.6,1472.1 1591.3,1477.6 1565.0,1483.1 1538.7,1488.6 1512.5,1494.0 1486.2,1499.4 1459.9,1504.8 1433.6,1510.2 1407.3,1515.5 1381.0,1520.9 1354.7,1526.2 1328.4,1531.5 1302.1,1536.7 1275.8,1542.0 1249.5,1547.2 1223.2,1552.4 1196.9,1557.6 1170.6,1562.8 1144.4,1567.9 1118.1,1573.0 1091.8,1578.1 1065.6,1583.2 1039.3,1588.3 1013.1,1593.4 986.8,1598.4  A 522.500,522.500 0.00 0,1 985.4,1590.4 L 985.4,1590.4 1011.6,1585.8 1037.8,1581.1 1064.1,1576.4 1090.3,1571.7 1116.6,1566.9 1142.9,1562.1 1169.2,1557.3 1195.6,1552.4 1221.9,1547.5 1248.2,1542.5 1274.6,1537.4 1300.9,1532.4 1327.3,1527.3 1353.6,1522.1 1380.0,1516.9 1406.4,1511.7 1432.7,1506.4 1459.0,1501.0 1485.4,1495.7 1511.7,1490.2 1538.0,1484.8 1564.3,1479.3 1590.6,1473.7 1616.9,1468.1 1643.2,1462.5 1669.4,1456.8 1695.7,1451.1 1721.9,1445.3 1748.0,1439.5 1774.2,1433.7 1800.4,1427.8 1826.5,1421.9 1852.6,1415.9 1878.6,1410.0 1904.6,1404.0 1930.6,1397.9 1956.6,1391.9 1982.6,1385.8 2008.5,1379.7  Z" style="stroke-width: 0.5;  stroke: rgb(0,0,0); fill: rgb(179,177,178);" />
<path d="M 1786.760,1063.222 A 522.500,522.500 0.00 0,1 1793.2,1067.5 L 1793.2,1067.5 1779.8,1086.7 1766.0,1105.9 1751.6,1124.9 1736.7,1143.7 1721.2,1162.2 1705.3,1180.4 1688.8,1198.2 1671.8,1215.6 1654.4,1232.6 1636.4,1249.1 1618.0,1265.0 1599.0,1280.4 1579.7,1295.2 1559.8,1309.4 1539.6,1323.0 1518.9,1335.9 1497.8,1348.1 1476.4,1359.6 1454.5,1370.4 1432.4,1380.5 1409.9,1389.8 1387.1,1398.4 1364.0,1406.2 1340.7,1413.3 1317.1,1419.6 1293.4,1425.2 1269.5,1430.0 1245.4,1434.1 1221.3,1437.5 1197.1,1440.2 1172.8,1442.2 1148.5,1443.5 1124.2,1444.2 1100.0,1444.2 1076.0,1443.6 1052.0,1442.5 1028.2,1440.8 1004.7,1438.7 981.4,1436.0  A 522.500,522.500 0.00 0,1 982.4,1428.4 L 982.4,1428.4 1005.6,1431.4 1029.0,1433.8 1052.6,1435.8 1076.5,1437.3 1100.5,1438.1 1124.5,1438.4 1148.7,1438.0 1172.9,1437.0 1197.0,1435.3 1221.2,1432.8 1245.2,1429.7 1269.1,1425.8 1292.9,1421.1 1316.5,1415.8 1339.9,1409.6 1363.1,1402.7 1386.0,1395.0 1408.7,1386.5 1431.0,1377.3 1453.0,1367.3 1474.7,1356.5 1495.9,1345.1 1516.8,1332.9 1537.3,1320.0 1557.3,1306.4 1576.9,1292.2 1596.1,1277.3 1614.8,1261.9 1633.0,1245.9 1650.7,1229.3 1667.9,1212.2 1684.6,1194.7 1700.8,1176.8 1716.4,1158.5 1731.5,1139.9 1746.1,1121.0 1760.2,1101.9 1773.8,1082.6 1786.8,1063.2  Z" style="stroke-width: 0.5;  stroke: rgb(0,0,0); fill: rgb(179,177,178);" />
</g>
<g id="plot0">
<g id="plot0-axis">
</g>
<line x1='2243.3' y1='1599.7' x2='2243.3' y2='1599.7' style="stroke-width:14.0;stroke:rgb(0,0,0);stroke-linecap:round;fill:none;" />
<line x1='2243.3' y1='1599.7' x2='2283.0' y2='1605.0' style="stroke-width:14.0;stroke:rgb(0,0,0);stroke-linecap:round;fill:none;" />
<line x1='2283.0' y1='1605.0' x2='2283.0' y2='1605.0' style="stroke-width:14.0;stroke:rgb(0,0,0);stroke-linecap:round;fill:none;" />
<text x="2299.6" y="1629.4" font-size="46.8px" font-family="CMUBright-Roman" style="text-anchor:start;fill:rgb(255,38,78);" transform="rotate(7.6,2299.6,1629.4)" >Histocap144p08<tspan baseline-shift="-40%" font-size="90%">s</tspan>01862</text>
</g>
<defs>
<pattern id="checker" width="10" height="10" patternTransform="rotate(45 0 0)" patternUnits="userSpaceOnUse"><line x1="0" y1="0" x2="10" y2="0" style="stroke:black;stroke-width:2" /><line x1="0" y1="0" x2="0" y2="10" style="stroke:black;stroke-width:2" /></pattern>
<pattern id="vline" width="10" height="10" patternTransform="rotate(0 0 0)" patternUnits="userSpaceOnUse"><line x1="0" y1="0" x2="0" y2="10" style="stroke:black;stroke-width:5" /></pattern>
<pattern id="hline" width="10" height="10" patternTransform="rotate(0 0 0)" patternUnits="userSpaceOnUse"><line x1="0" y1="0" x2="10" y2="0" style="stroke:black;stroke-width:5" /></pattern>
<pattern id="hline-sparse" width="10" height="10" patternTransform="rotate(0 0 0)" patternUnits="userSpaceOnUse"><line x1="0" y1="0" x2="10" y2="0" style="stroke:black;stroke-width:2" /></pattern>
<pattern id="checker" width="10" height="10" patternTransform="rotate(45 0 0)" patternUnits="userSpaceOnUse"><line x1="0" y1="0" x2="10" y2="0" style="stroke:black;stroke-width:5" /><line x1="0" y1="0" x2="0" y2="10" style="stroke:black;stroke-width:4" /></pattern>
<pattern id="vline-sparse" width="10" height="10" patternTransform="rotate(0 0 0)" patternUnits="userSpaceOnUse"><line x1="0" y1="0" x2="0" y2="10" style="stroke:black;stroke-width:2" /></pattern>
</defs>
</svg>
