<?xml version="1.0" encoding="utf-8" standalone="no"?>
<!DOCTYPE svg PUBLIC "-//W3C//DTD SVG 1.1//EN" "http://www.w3.org/Graphics/SVG/1.1/DTD/svg11.dtd">
<svg width="3000px" height="3000px" version="1.1" xmlns="http://www.w3.org/2000/svg" xmlns:xlink="http://www.w3.org/1999/xlink">
<g id="bg">
<rect x="0" y="0" width="3000px" height="3000px" style="fill:rgb(255,255,255);"/>
</g>
<g id="ideograms">
<path d="M1500.000,950.000 A550.000,550.000 40.000 0,1 1676.815,2020.804 L1741.112,2210.187 A750.000,750.000 0.000 0,0 1500.000,750.000 Z" style="stroke-width:2.0;stroke:rgb(0,0,0);stroke-linecap:round;fill:rgb(179,177,178);" />
<text x="2462.0" y="1341.2" font-size="46.8px" font-family="CMUBright-Roman" style="text-anchor:middle;fill:rgb(0,0,0);" transform="rotate(440.6,2462.0,1341.2)" >HistocapCB062<tspan baseline-shift="-40%" font-size="90%">2</tspan></text>
<line x1='1593.4' y1='755.8' x2='1594.9' y2='743.9' style="stroke-width:8.0;stroke:rgb(150,150,150);stroke-linecap:round;fill:none;" />
<line x1='1691.3' y1='774.8' x2='1694.3' y2='763.2' style="stroke-width:8.0;stroke:rgb(150,150,150);stroke-linecap:round;fill:none;" />
<line x1='1785.7' y1='806.6' x2='1790.3' y2='795.5' style="stroke-width:8.0;stroke:rgb(150,150,150);stroke-linecap:round;fill:none;" />
<line x1='1875.1' y1='850.6' x2='1881.1' y2='840.2' style="stroke-width:8.0;stroke:rgb(150,150,150);stroke-linecap:round;fill:none;" />
<text x="1899.2" y="836.9" font-size="41.6px" font-family="CMUBright-Roman" style="text-anchor:start;fill:rgb(150,150,150);" transform="rotate(300.0,1899.2,836.9)" >600 kb</text>
<line x1='1957.9' y1='906.0' x2='1965.3' y2='896.5' style="stroke-width:8.0;stroke:rgb(150,150,150);stroke-linecap:round;fill:none;" />
<line x1='2032.7' y1='972.0' x2='2041.2' y2='963.6' style="stroke-width:8.0;stroke:rgb(150,150,150);stroke-linecap:round;fill:none;" />
<line x1='2098.0' y1='1047.3' x2='2107.5' y2='1040.1' style="stroke-width:8.0;stroke:rgb(150,150,150);stroke-linecap:round;fill:none;" />
<line x1='2152.7' y1='1130.6' x2='2163.2' y2='1124.7' style="stroke-width:8.0;stroke:rgb(150,150,150);stroke-linecap:round;fill:none;" />
<line x1='2195.9' y1='1220.4' x2='2207.1' y2='1215.9' style="stroke-width:8.0;stroke:rgb(150,150,150);stroke-linecap:round;fill:none;" />
<text x="2223.3" y="1224.5" font-size="41.6px" font-family="CMUBright-Roman" style="text-anchor:start;fill:rgb(150,150,150);" transform="rotate(338.1,2223.3,1224.5)" >650 kb</text>
<line x1='2226.9' y1='1315.1' x2='2238.5' y2='1312.2' style="stroke-width:8.0;stroke:rgb(150,150,150);stroke-linecap:round;fill:none;" />
<line x1='2245.0' y1='1413.1' x2='2256.9' y2='1411.8' style="stroke-width:8.0;stroke:rgb(150,150,150);stroke-linecap:round;fill:none;" />
<line x1='2249.9' y1='1512.7' x2='2261.9' y2='1512.9' style="stroke-width:8.0;stroke:rgb(150,150,150);stroke-linecap:round;fill:none;" />
<line x1='2241.6' y1='1612.0' x2='2253.5' y2='1613.8' style="stroke-width:8.0;stroke:rgb(150,150,150);stroke-linecap:round;fill:none;" />
<line x1='2220.2' y1='1709.4' x2='2231.7' y2='1712.7' style="stroke-width:8.0;stroke:rgb(150,150,150);stroke-linecap:round;fill:none;" />
<text x="2239.2" y="1729.5" font-size="41.6px" font-family="CMUBright-Roman" style="text-anchor:start;fill:rgb(150,150,150);" transform="rotate(16.2,2239.2,1729.5)" >700 kb</text>
<line x1='2186.1' y1='1803.0' x2='2197.0' y2='1807.8' style="stroke-width:8.0;stroke:rgb(150,150,150);stroke-linecap:round;fill:none;" />
<line x1='2139.8' y1='1891.3' x2='2150.1' y2='1897.6' style="stroke-width:8.0;stroke:rgb(150,150,150);stroke-linecap:round;fill:none;" />
<line x1='2082.3' y1='1972.7' x2='2091.6' y2='1980.2' style="stroke-width:8.0;stroke:rgb(150,150,150);stroke-linecap:round;fill:none;" />
<line x1='2014.5' y1='2045.7' x2='2022.7' y2='2054.4' style="stroke-width:8.0;stroke:rgb(150,150,150);stroke-linecap:round;fill:none;" />
<line x1='1937.6' y1='2109.1' x2='1944.6' y2='2118.9' style="stroke-width:8.0;stroke:rgb(150,150,150);stroke-linecap:round;fill:none;" />
<text x="1940.1" y="2136.7" font-size="41.6px" font-family="CMUBright-Roman" style="text-anchor:start;fill:rgb(150,150,150);" transform="rotate(54.3,1940.1,2136.7)" >750 kb</text>
<line x1='1853.0' y1='2161.8' x2='1858.6' y2='2172.3' style="stroke-width:8.0;stroke:rgb(150,150,150);stroke-linecap:round;fill:none;" />
<line x1='1762.1' y1='2202.7' x2='1766.3' y2='2214.0' style="stroke-width:8.0;stroke:rgb(150,150,150);stroke-linecap:round;fill:none;" />
<g id="highlighttrack_0">
<path d="M2034.115,1368.769 A550.000,550.000 40.000 0,1 2047.950,1452.556 L2247.204,1435.304 A750.000,750.000 0.000 0,0 2228.338,1321.049 Z" style="stroke-width:14.0;stroke:rgb(0,0,0);stroke-linecap:round;fill:rgb(255,38,78);" />
</g>
<path d="M1500.000,950.000 A550.000,550.000 40.000 0,1 1676.815,2020.804 L1741.112,2210.187 A750.000,750.000 0.000 0,0 1500.000,750.000 Z" style="stroke-width:2.0;stroke:rgb(0,0,0);stroke-linecap:round;fill:none;" />
<path d="M1460.617,2048.588 A550.000,550.000 40.000 0,1 1286.346,993.194 L1208.654,808.901 A750.000,750.000 0.000 0,0 1446.296,2248.075 Z" style="stroke-width:2.0;stroke:rgb(0,0,0);stroke-linecap:round;fill:rgb(179,177,178);" />
<text x="493.6" y="1666.2" font-size="46.8px" font-family="CMUBright-Roman" style="text-anchor:middle;fill:rgb(0,0,0);" transform="rotate(80.6,493.6,1666.2)" >HistoohiSECH98<tspan baseline-shift="-40%" font-size="90%">2</tspan></text>
<line x1='1153.7' y1='834.7' x2='1148.1' y2='824.1' style="stroke-width:8.0;stroke:rgb(150,150,150);stroke-linecap:round;fill:none;" />
<text x="1130.2" y="820.0" font-size="41.6px" font-family="CMUBright-Roman" style="text-anchor:end;fill:rgb(150,150,150);" transform="rotate(62.5,1130.2,820.0)" >450 kb</text>
<line x1='1068.5' y1='886.5' x2='1061.6' y2='876.7' style="stroke-width:8.0;stroke:rgb(150,150,150);stroke-linecap:round;fill:none;" />
<line x1='991.0' y1='949.2' x2='982.9' y2='940.4' style="stroke-width:8.0;stroke:rgb(150,150,150);stroke-linecap:round;fill:none;" />
<line x1='922.5' y1='1021.5' x2='913.2' y2='1013.9' style="stroke-width:8.0;stroke:rgb(150,150,150);stroke-linecap:round;fill:none;" />
<line x1='864.1' y1='1102.3' x2='853.9' y2='1096.0' style="stroke-width:8.0;stroke:rgb(150,150,150);stroke-linecap:round;fill:none;" />
<line x1='817.0' y1='1190.2' x2='806.1' y2='1185.2' style="stroke-width:8.0;stroke:rgb(150,150,150);stroke-linecap:round;fill:none;" />
<text x="789.5" y="1193.0" font-size="41.6px" font-family="CMUBright-Roman" style="text-anchor:end;fill:rgb(150,150,150);" transform="rotate(24.4,789.5,1193.0)" >500 kb</text>
<line x1='781.9' y1='1283.5' x2='770.5' y2='1280.0' style="stroke-width:8.0;stroke:rgb(150,150,150);stroke-linecap:round;fill:none;" />
<line x1='759.6' y1='1380.6' x2='747.7' y2='1378.7' style="stroke-width:8.0;stroke:rgb(150,150,150);stroke-linecap:round;fill:none;" />
<line x1='750.3' y1='1479.8' x2='738.3' y2='1479.5' style="stroke-width:8.0;stroke:rgb(150,150,150);stroke-linecap:round;fill:none;" />
<line x1='754.2' y1='1579.4' x2='742.3' y2='1580.7' style="stroke-width:8.0;stroke:rgb(150,150,150);stroke-linecap:round;fill:none;" />
<line x1='771.3' y1='1677.6' x2='759.7' y2='1680.4' style="stroke-width:8.0;stroke:rgb(150,150,150);stroke-linecap:round;fill:none;" />
<text x="751.4" y="1696.8" font-size="41.6px" font-family="CMUBright-Roman" style="text-anchor:end;fill:rgb(150,150,150);" transform="rotate(-13.7,751.4,1696.8)" >550 kb</text>
<line x1='801.3' y1='1772.6' x2='790.1' y2='1777.0' style="stroke-width:8.0;stroke:rgb(150,150,150);stroke-linecap:round;fill:none;" />
<line x1='843.6' y1='1862.9' x2='833.1' y2='1868.7' style="stroke-width:8.0;stroke:rgb(150,150,150);stroke-linecap:round;fill:none;" />
<line x1='897.5' y1='1946.7' x2='887.9' y2='1953.8' style="stroke-width:8.0;stroke:rgb(150,150,150);stroke-linecap:round;fill:none;" />
<line x1='962.1' y1='2022.6' x2='953.5' y2='2031.0' style="stroke-width:8.0;stroke:rgb(150,150,150);stroke-linecap:round;fill:none;" />
<line x1='1036.1' y1='2089.3' x2='1028.7' y2='2098.8' style="stroke-width:8.0;stroke:rgb(150,150,150);stroke-linecap:round;fill:none;" />
<text x="1032.4" y="2116.8" font-size="41.6px" font-family="CMUBright-Roman" style="text-anchor:end;fill:rgb(150,150,150);" transform="rotate(-51.8,1032.4,2116.8)" >600 kb</text>
<line x1='1118.4' y1='2145.7' x2='1112.3' y2='2156.0' style="stroke-width:8.0;stroke:rgb(150,150,150);stroke-linecap:round;fill:none;" />
<line x1='1207.4' y1='2190.6' x2='1202.7' y2='2201.6' style="stroke-width:8.0;stroke:rgb(150,150,150);stroke-linecap:round;fill:none;" />
<line x1='1301.5' y1='2223.3' x2='1298.3' y2='2234.8' style="stroke-width:8.0;stroke:rgb(150,150,150);stroke-linecap:round;fill:none;" />
<line x1='1399.2' y1='2243.2' x2='1397.5' y2='2255.1' style="stroke-width:8.0;stroke:rgb(150,150,150);stroke-linecap:round;fill:none;" />
<path d="M1460.617,2048.588 A550.000,550.000 40.000 0,1 1286.346,993.194 L1208.654,808.901 A750.000,750.000 0.000 0,0 1446.296,2248.075 Z" style="stroke-width:2.0;stroke:rgb(0,0,0);stroke-linecap:round;fill:none;" />
</g>
<g id="track_0">
<path d="M 1571.416,982.404 A 522.500,522.500 0.00 0,1 1689.1,1012.9 L 1689.1,1012.9 1680.9,1033.4 1672.0,1053.8 1662.7,1074.1 1652.7,1094.0 1642.1,1113.7 1631.0,1132.9 1619.3,1151.7 1606.9,1169.9 1594.0,1187.5 1580.5,1204.4 1566.4,1220.6 1551.8,1236.0 1536.5,1250.6 1520.8,1264.3 1504.4,1277.2 1487.6,1289.1 1470.3,1300.0 1452.4,1310.0 1434.1,1319.0 1415.4,1327.0 1396.2,1333.9 1376.6,1339.8 1356.7,1344.7 1336.5,1348.6 1315.9,1351.4 1295.0,1353.2 1274.0,1354.1 1252.7,1353.9 1231.3,1352.8 1209.7,1350.8 1188.1,1347.9 1166.4,1344.2 1144.8,1339.6 1123.2,1334.3 1101.7,1328.3 1080.4,1321.6 1059.3,1314.3 1038.5,1306.5 1018.0,1298.2  A 522.500,522.500 0.00 0,1 1077.8,1192.1 L 1077.8,1192.1 1095.0,1204.4 1112.5,1216.2 1130.2,1227.6 1148.1,1238.3 1166.1,1248.5 1184.1,1257.8 1202.2,1266.4 1220.1,1274.1 1238.0,1280.8 1255.7,1286.5 1273.3,1291.2 1290.5,1294.8 1307.5,1297.3 1324.1,1298.6 1340.4,1298.8 1356.3,1297.7 1371.8,1295.4 1386.8,1291.9 1401.3,1287.2 1415.3,1281.3 1428.8,1274.1 1441.7,1265.7 1454.1,1256.2 1465.9,1245.5 1477.1,1233.6 1487.7,1220.7 1497.7,1206.8 1507.1,1191.9 1515.9,1176.0 1524.0,1159.3 1531.6,1141.7 1538.6,1123.4 1544.9,1104.5 1550.7,1085.0 1555.9,1065.0 1560.6,1044.7 1564.7,1024.1 1568.3,1003.3 1571.4,982.4  Z" style="stroke-width: 0.5;  stroke: rgb(0,0,0); fill: rgb(179,177,178);" />
<path d="M 1691.938,1985.969 A 522.500,522.500 0.00 0,1 1668.0,1994.8 L 1668.0,1994.8 1661.2,1975.4 1654.2,1956.3 1646.8,1937.4 1639.2,1919.1 1631.3,1901.2 1623.1,1884.1 1614.8,1867.8 1606.2,1852.3 1597.4,1837.8 1588.4,1824.3 1579.2,1812.0 1569.9,1800.8 1560.4,1790.9 1550.8,1782.3 1541.1,1775.1 1531.3,1769.2 1521.4,1764.7 1511.5,1761.7 1501.5,1760.1 1491.5,1759.9 1481.5,1761.3 1471.5,1764.0 1461.5,1768.2 1451.5,1773.9 1441.7,1780.9 1431.8,1789.2 1422.1,1798.8 1412.5,1809.7 1403.0,1821.8 1393.6,1835.0 1384.4,1849.3 1375.4,1864.6 1366.6,1880.7 1358.0,1897.6 1349.6,1915.2 1341.5,1933.3 1333.7,1952.0 1326.1,1970.9 1318.8,1990.1  A 522.500,522.500 0.00 0,1 1220.9,1941.7 L 1220.9,1941.7 1232.2,1924.2 1243.9,1906.9 1255.9,1890.1 1268.3,1873.7 1280.9,1857.9 1293.7,1842.8 1306.8,1828.5 1320.1,1815.1 1333.5,1802.7 1347.0,1791.2 1360.7,1780.9 1374.4,1771.7 1388.2,1763.7 1402.0,1756.9 1415.8,1751.4 1429.5,1747.2 1443.2,1744.4 1456.9,1742.9 1470.4,1742.8 1483.8,1744.1 1497.1,1746.7 1510.2,1750.7 1523.2,1756.0 1535.9,1762.7 1548.5,1770.7 1560.7,1779.9 1572.8,1790.3 1584.6,1801.9 1596.0,1814.6 1607.2,1828.4 1618.1,1843.1 1628.6,1858.8 1638.8,1875.3 1648.6,1892.5 1658.1,1910.3 1667.1,1928.7 1675.8,1947.5 1684.1,1966.7 1691.9,1986.0  Z" style="stroke-width: 0.5;  stroke: rgb(0,0,0); fill: rgb(179,177,178);" />
<path d="M 1885.587,1852.603 A 522.500,522.500 0.00 0,1 1835.8,1900.3 L 1835.8,1900.3 1821.3,1883.4 1806.3,1866.8 1790.8,1850.5 1774.8,1834.6 1758.3,1819.2 1741.4,1804.3 1724.0,1790.1 1706.3,1776.6 1688.1,1763.8 1669.6,1751.7 1650.8,1740.5 1631.6,1730.2 1612.2,1720.8 1592.4,1712.4 1572.4,1704.9 1552.2,1698.5 1531.8,1693.1 1511.2,1688.7 1490.4,1685.3 1469.5,1683.1 1448.5,1681.9 1427.5,1681.7 1406.3,1682.6 1385.2,1684.6 1364.1,1687.6 1343.0,1691.6 1322.0,1696.6 1301.0,1702.5 1280.2,1709.4 1259.6,1717.2 1239.1,1725.8 1218.9,1735.2 1198.9,1745.3 1179.1,1756.2 1159.7,1767.7 1140.7,1779.8 1122.0,1792.4 1103.8,1805.4 1086.0,1818.7  A 522.500,522.500 0.00 0,1 1047.7,1761.6 L 1047.7,1761.6 1067.7,1750.3 1088.1,1739.4 1108.9,1728.9 1130.1,1718.9 1151.6,1709.5 1173.5,1700.6 1195.6,1692.3 1217.9,1684.7 1240.5,1677.8 1263.2,1671.7 1286.1,1666.3 1309.1,1661.8 1332.3,1658.1 1355.5,1655.2 1378.7,1653.2 1402.0,1652.1 1425.2,1651.9 1448.4,1652.6 1471.6,1654.2 1494.7,1656.7 1517.6,1660.1 1540.4,1664.4 1563.1,1669.6 1585.6,1675.7 1607.9,1682.6 1629.9,1690.4 1651.7,1699.0 1673.2,1708.4 1694.4,1718.5 1715.3,1729.4 1735.9,1741.0 1756.1,1753.2 1775.9,1766.0 1795.3,1779.4 1814.3,1793.2 1832.8,1807.6 1850.9,1822.3 1868.5,1837.3 1885.6,1852.6  Z" style="stroke-width: 0.5;  stroke: rgb(0,0,0); fill: rgb(179,177,178);" />
<path d="M 1778.337,1057.807 A 522.500,522.500 0.00 0,1 1829.2,1094.2 L 1829.2,1094.2 1814.0,1112.6 1798.4,1130.8 1782.2,1148.8 1765.6,1166.7 1748.5,1184.3 1730.9,1201.5 1712.9,1218.5 1694.4,1235.0 1675.4,1251.2 1656.1,1266.9 1636.2,1282.1 1616.0,1296.8 1595.4,1311.0 1574.3,1324.6 1552.9,1337.6 1531.1,1350.1 1509.0,1361.9 1486.5,1373.1 1463.8,1383.6 1440.7,1393.5 1417.4,1402.7 1393.8,1411.3 1370.0,1419.1 1345.9,1426.3 1321.7,1432.9 1297.4,1438.7 1272.9,1443.9 1248.3,1448.4 1223.6,1452.2 1198.8,1455.4 1174.1,1458.0 1149.3,1460.0 1124.6,1461.4 1100.0,1462.2 1075.5,1462.4 1051.1,1462.2 1026.9,1461.4 1002.9,1460.2 979.2,1458.5  A 522.500,522.500 0.00 0,1 987.6,1397.9 L 987.6,1397.9 1010.3,1402.1 1033.3,1405.9 1056.6,1409.2 1080.0,1412.0 1103.7,1414.1 1127.4,1415.6 1151.2,1416.5 1175.1,1416.6 1198.9,1416.1 1222.8,1414.8 1246.5,1412.7 1270.2,1409.9 1293.7,1406.2 1317.0,1401.8 1340.1,1396.5 1363.0,1390.5 1385.7,1383.6 1408.0,1375.9 1430.1,1367.3 1451.8,1358.0 1473.2,1347.9 1494.1,1336.9 1514.7,1325.3 1534.9,1312.8 1554.6,1299.6 1573.9,1285.7 1592.7,1271.2 1611.0,1256.0 1628.8,1240.2 1646.2,1223.8 1663.0,1206.8 1679.3,1189.4 1695.1,1171.5 1710.3,1153.2 1725.0,1134.6 1739.1,1115.7 1752.7,1096.6 1765.8,1077.2 1778.3,1057.8  Z" style="stroke-width: 0.5;  stroke: rgb(0,0,0); fill: rgb(179,177,178);" />
<path d="M 1991.960,1323.985 A 522.500,522.500 0.00 0,1 2007.8,1376.8 L 2007.8,1376.8 1982.0,1383.0 1956.1,1389.2 1930.2,1395.4 1904.3,1401.5 1878.3,1407.6 1852.3,1413.7 1826.2,1419.7 1800.1,1425.6 1774.0,1431.5 1747.8,1437.4 1721.7,1443.2 1695.4,1449.0 1669.2,1454.7 1642.9,1460.3 1616.6,1465.9 1590.3,1471.4 1564.0,1476.9 1537.6,1482.3 1511.2,1487.7 1484.9,1493.0 1458.5,1498.2 1432.1,1503.4 1405.7,1508.5 1379.3,1513.5 1352.8,1518.5 1326.4,1523.5 1300.0,1528.3 1273.6,1533.1 1247.2,1537.9 1220.8,1542.6 1194.4,1547.2 1168.0,1551.8 1141.7,1556.3 1115.3,1560.7 1089.0,1565.1 1062.7,1569.5 1036.5,1573.8 1010.2,1578.0 984.0,1582.2  A 522.500,522.500 0.00 0,1 978.2,1527.7 L 978.2,1527.7 1004.1,1526.3 1030.0,1524.7 1056.1,1522.9 1082.3,1520.9 1108.5,1518.8 1134.8,1516.5 1161.2,1513.9 1187.6,1511.2 1214.1,1508.3 1240.6,1505.2 1267.1,1501.8 1293.7,1498.3 1320.3,1494.5 1346.9,1490.5 1373.5,1486.3 1400.0,1481.8 1426.6,1477.2 1453.1,1472.3 1479.6,1467.2 1506.1,1461.9 1532.5,1456.4 1558.9,1450.6 1585.2,1444.6 1611.4,1438.5 1637.6,1432.1 1663.6,1425.5 1689.6,1418.7 1715.5,1411.7 1741.3,1404.5 1766.9,1397.2 1792.5,1389.6 1817.9,1381.9 1843.2,1374.1 1868.4,1366.1 1893.4,1357.9 1918.3,1349.6 1943.0,1341.2 1967.6,1332.6 1992.0,1324.0  Z" style="stroke-width: 0.5;  stroke: rgb(0,0,0); fill: rgb(179,177,178);" />
<path d="M 1916.136,1815.970 A 522.500,522.500 0.00 0,1 1885.6,1852.6 L 1885.6,1852.6 1868.5,1837.3 1850.9,1822.3 1832.8,1807.5 1814.3,1793.2 1795.3,1779.3 1775.9,1766.0 1756.0,1753.2 1735.9,1740.9 1715.3,1729.4 1694.4,1718.5 1673.2,1708.3 1651.7,1699.0 1629.9,1690.3 1607.8,1682.6 1585.6,1675.6 1563.1,1669.5 1540.4,1664.3 1517.6,1660.0 1494.6,1656.6 1471.5,1654.0 1448.4,1652.4 1425.1,1651.7 1401.9,1651.9 1378.6,1653.0 1355.4,1655.0 1332.2,1657.9 1309.0,1661.6 1286.0,1666.1 1263.1,1671.5 1240.3,1677.6 1217.8,1684.5 1195.4,1692.0 1173.3,1700.3 1151.5,1709.1 1129.9,1718.6 1108.7,1728.6 1087.9,1739.1 1067.5,1749.9 1047.5,1761.2  A 522.500,522.500 0.00 0,1 1025.8,1719.3 L 1025.8,1719.3 1047.1,1709.7 1068.9,1700.4 1091.1,1691.5 1113.6,1683.1 1136.4,1675.2 1159.5,1667.7 1182.8,1660.9 1206.4,1654.7 1230.2,1649.1 1254.1,1644.1 1278.2,1639.9 1302.4,1636.4 1326.8,1633.6 1351.1,1631.5 1375.6,1630.2 1400.0,1629.7 1424.5,1630.0 1448.9,1631.0 1473.3,1632.9 1497.6,1635.5 1521.8,1638.9 1545.9,1643.1 1569.8,1648.1 1593.6,1653.9 1617.2,1660.4 1640.5,1667.6 1663.7,1675.6 1686.6,1684.2 1709.2,1693.6 1731.5,1703.5 1753.6,1714.1 1775.2,1725.2 1796.6,1736.9 1817.5,1749.1 1838.1,1761.7 1858.3,1774.8 1878.0,1788.2 1897.3,1802.0 1916.1,1816.0  Z" style="stroke-width: 0.5;  stroke: rgb(0,0,0); fill: rgb(179,177,178);" />
<path d="M 1714.760,1023.676 A 522.500,522.500 0.00 0,1 1752.8,1042.7 L 1752.8,1042.7 1741.6,1062.6 1729.8,1082.3 1717.4,1101.9 1704.5,1121.2 1690.9,1140.2 1676.9,1158.8 1662.3,1177.0 1647.1,1194.7 1631.4,1211.9 1615.1,1228.6 1598.3,1244.6 1581.0,1259.9 1563.1,1274.6 1544.8,1288.5 1526.0,1301.6 1506.8,1314.0 1487.0,1325.5 1466.9,1336.2 1446.3,1346.0 1425.4,1355.0 1404.1,1363.1 1382.5,1370.4 1360.5,1376.7 1338.3,1382.1 1315.8,1386.7 1293.1,1390.4 1270.2,1393.2 1247.2,1395.2 1224.0,1396.4 1200.7,1396.7 1177.4,1396.2 1154.1,1395.0 1130.8,1393.1 1107.7,1390.4 1084.6,1387.1 1061.7,1383.2 1039.0,1378.7 1016.5,1373.7 994.4,1368.2  A 522.500,522.500 0.00 0,1 1006.7,1327.8 L 1006.7,1327.8 1027.9,1334.9 1049.4,1341.6 1071.2,1347.7 1093.3,1353.2 1115.5,1358.1 1137.8,1362.3 1160.1,1365.7 1182.5,1368.4 1204.9,1370.2 1227.2,1371.2 1249.4,1371.3 1271.5,1370.5 1293.4,1368.8 1315.1,1366.2 1336.5,1362.6 1357.6,1358.0 1378.4,1352.4 1398.9,1345.9 1418.9,1338.4 1438.6,1330.0 1457.9,1320.6 1476.7,1310.2 1495.1,1298.9 1512.9,1286.8 1530.3,1273.7 1547.1,1259.8 1563.4,1245.2 1579.2,1229.7 1594.4,1213.5 1609.0,1196.6 1623.1,1179.1 1636.6,1161.1 1649.5,1142.5 1661.8,1123.4 1673.6,1104.0 1684.7,1084.2 1695.3,1064.2 1705.3,1044.0 1714.8,1023.7  Z" style="stroke-width: 0.5;  stroke: rgb(0,0,0); fill: rgb(179,177,178);" />
<path d="M 1942.657,1777.599 A 522.500,522.500 0.00 0,1 1920.1,1810.7 L 1920.1,1810.7 1901.0,1796.9 1881.5,1783.3 1861.5,1770.1 1841.1,1757.2 1820.3,1744.7 1799.2,1732.7 1777.6,1721.1 1755.7,1710.1 1733.5,1699.7 1711.0,1689.8 1688.2,1680.6 1665.1,1672.0 1641.8,1664.1 1618.2,1656.9 1594.4,1650.4 1570.5,1644.6 1546.4,1639.6 1522.1,1635.4 1497.7,1631.9 1473.3,1629.2 1448.7,1627.2 1424.1,1626.0 1399.5,1625.6 1374.9,1626.0 1350.2,1627.1 1325.7,1629.0 1301.2,1631.5 1276.8,1634.8 1252.5,1638.8 1228.3,1643.5 1204.4,1648.8 1180.6,1654.8 1157.0,1661.3 1133.7,1668.4 1110.7,1676.0 1088.0,1684.1 1065.6,1692.6 1043.6,1701.6 1021.9,1710.9  A 522.500,522.500 0.00 0,1 1007.1,1673.5 L 1007.1,1673.5 1029.9,1665.7 1052.9,1658.3 1076.3,1651.2 1100.0,1644.6 1123.9,1638.3 1148.1,1632.6 1172.6,1627.3 1197.2,1622.6 1222.0,1618.4 1247.0,1614.8 1272.1,1611.8 1297.3,1609.4 1322.6,1607.6 1347.9,1606.4 1373.3,1605.9 1398.7,1606.1 1424.2,1606.9 1449.5,1608.4 1474.9,1610.5 1500.2,1613.3 1525.4,1616.8 1550.5,1621.0 1575.5,1625.8 1600.3,1631.2 1625.0,1637.3 1649.4,1644.0 1673.7,1651.3 1697.8,1659.2 1721.6,1667.6 1745.2,1676.6 1768.4,1686.2 1791.4,1696.2 1814.1,1706.7 1836.5,1717.6 1858.5,1729.0 1880.1,1740.7 1901.3,1752.7 1922.2,1765.0 1942.7,1777.6  Z" style="stroke-width: 0.5;  stroke: rgb(0,0,0); fill: rgb(179,177,178);" />
<path d="M 1969.125,1269.940 A 522.500,522.500 0.00 0,1 1985.0,1305.7 L 1985.0,1305.7 1961.2,1315.2 1937.1,1324.5 1912.9,1333.7 1888.5,1342.7 1863.8,1351.6 1839.0,1360.3 1814.1,1368.7 1788.9,1377.0 1763.7,1385.1 1738.2,1393.0 1712.7,1400.6 1687.0,1408.0 1661.2,1415.2 1635.2,1422.1 1609.2,1428.7 1583.1,1435.1 1556.9,1441.2 1530.6,1447.1 1504.2,1452.7 1477.8,1458.0 1451.3,1463.0 1424.8,1467.8 1398.3,1472.2 1371.7,1476.4 1345.1,1480.4 1318.6,1484.0 1292.0,1487.4 1265.4,1490.5 1238.9,1493.3 1212.4,1495.9 1186.0,1498.2 1159.6,1500.3 1133.3,1502.1 1107.1,1503.7 1080.9,1505.0 1054.9,1506.2 1029.0,1507.1 1003.2,1507.8 977.6,1508.3  A 522.500,522.500 0.00 0,1 978.4,1469.0 L 978.4,1469.0 1003.6,1470.3 1028.9,1471.4 1054.4,1472.3 1080.1,1472.8 1105.9,1473.1 1131.9,1473.0 1157.9,1472.6 1184.1,1471.8 1210.4,1470.8 1236.7,1469.3 1263.0,1467.5 1289.4,1465.3 1315.9,1462.8 1342.3,1459.8 1368.7,1456.5 1395.2,1452.8 1421.6,1448.7 1447.9,1444.2 1474.2,1439.3 1500.4,1434.0 1526.5,1428.4 1552.5,1422.4 1578.5,1416.0 1604.3,1409.2 1629.9,1402.0 1655.5,1394.5 1680.8,1386.7 1706.0,1378.5 1731.0,1370.0 1755.9,1361.2 1780.5,1352.0 1804.9,1342.6 1829.1,1332.9 1853.1,1323.0 1876.8,1312.8 1900.3,1302.3 1923.5,1291.7 1946.5,1280.9 1969.1,1269.9  Z" style="stroke-width: 0.5;  stroke: rgb(0,0,0); fill: rgb(179,177,178);" />
<path d="M 1762.518,1951.764 A 522.500,522.500 0.00 0,1 1728.8,1969.8 L 1728.8,1969.8 1719.3,1950.9 1709.4,1932.2 1699.0,1913.9 1688.3,1896.0 1677.1,1878.6 1665.5,1861.8 1653.5,1845.8 1641.2,1830.5 1628.5,1816.2 1615.5,1802.7 1602.2,1790.3 1588.5,1779.0 1574.6,1768.8 1560.4,1759.8 1546.0,1751.9 1531.4,1745.4 1516.6,1740.1 1501.5,1736.0 1486.4,1733.3 1471.1,1731.9 1455.7,1731.8 1440.2,1733.1 1424.7,1735.6 1409.1,1739.4 1393.5,1744.5 1377.9,1750.8 1362.4,1758.3 1346.9,1767.0 1331.6,1776.8 1316.3,1787.6 1301.2,1799.5 1286.3,1812.2 1271.7,1825.8 1257.2,1840.2 1243.1,1855.3 1229.2,1870.9 1215.7,1887.1 1202.6,1903.7 1189.9,1920.5  A 522.500,522.500 0.00 0,1 1160.0,1896.8 L 1160.0,1896.8 1174.1,1880.7 1188.7,1864.9 1203.6,1849.5 1218.9,1834.7 1234.6,1820.4 1250.5,1806.8 1266.7,1794.0 1283.2,1782.0 1299.9,1770.9 1316.7,1760.7 1333.7,1751.6 1350.8,1743.5 1368.0,1736.6 1385.2,1730.8 1402.5,1726.1 1419.8,1722.7 1437.0,1720.5 1454.2,1719.6 1471.3,1719.9 1488.4,1721.4 1505.3,1724.2 1522.0,1728.3 1538.6,1733.6 1554.9,1740.1 1571.1,1747.7 1587.0,1756.6 1602.6,1766.5 1618.0,1777.6 1633.0,1789.6 1647.8,1802.6 1662.1,1816.6 1676.2,1831.4 1689.8,1846.9 1703.0,1863.2 1715.8,1880.0 1728.2,1897.4 1740.1,1915.2 1751.6,1933.4 1762.5,1951.8  Z" style="stroke-width: 0.5;  stroke: rgb(0,0,0); fill: rgb(179,177,178);" />
<path d="M 1835.163,1900.839 A 522.500,522.500 0.00 0,1 1806.7,1923.0 L 1806.7,1923.0 1793.6,1905.4 1780.0,1888.1 1765.9,1871.1 1751.4,1854.5 1736.3,1838.4 1720.9,1822.8 1704.9,1808.0 1688.6,1793.8 1671.9,1780.4 1654.8,1767.9 1637.4,1756.2 1619.7,1745.5 1601.6,1735.8 1583.3,1727.0 1564.7,1719.3 1545.9,1712.7 1526.8,1707.2 1507.6,1702.8 1488.2,1699.6 1468.7,1697.5 1449.0,1696.5 1429.3,1696.6 1409.5,1697.9 1389.7,1700.3 1369.9,1703.8 1350.1,1708.4 1330.4,1714.1 1310.8,1720.7 1291.2,1728.4 1271.9,1737.0 1252.7,1746.4 1233.7,1756.8 1215.0,1767.9 1196.5,1779.7 1178.4,1792.2 1160.6,1805.3 1143.2,1818.9 1126.2,1832.9 1109.6,1847.3  A 522.500,522.500 0.00 0,1 1086.4,1819.2 L 1086.4,1819.2 1104.1,1805.8 1122.4,1792.8 1141.0,1780.2 1160.0,1768.1 1179.4,1756.6 1199.1,1745.7 1219.1,1735.5 1239.3,1726.1 1259.7,1717.5 1280.4,1709.7 1301.2,1702.8 1322.1,1696.9 1343.1,1691.9 1364.1,1687.9 1385.2,1684.9 1406.4,1682.9 1427.5,1682.0 1448.5,1682.1 1469.5,1683.4 1490.3,1685.6 1511.1,1689.0 1531.6,1693.4 1552.0,1698.8 1572.2,1705.3 1592.2,1712.7 1611.9,1721.2 1631.3,1730.6 1650.5,1740.9 1669.3,1752.1 1687.8,1764.1 1705.9,1777.0 1723.6,1790.5 1740.9,1804.8 1757.8,1819.7 1774.2,1835.1 1790.2,1851.0 1805.7,1867.3 1820.7,1883.9 1835.2,1900.8  Z" style="stroke-width: 0.5;  stroke: rgb(0,0,0); fill: rgb(179,177,178);" />
<path d="M 2021.821,1526.626 A 522.500,522.500 0.00 0,1 2019.0,1560.5 L 2019.0,1560.5 1993.8,1557.6 1968.4,1555.0 1942.8,1552.7 1917.0,1550.5 1891.1,1548.7 1865.1,1547.1 1838.9,1545.8 1812.6,1544.7 1786.2,1544.0 1759.7,1543.6 1733.2,1543.5 1706.6,1543.8 1679.9,1544.3 1653.2,1545.2 1626.5,1546.4 1599.8,1548.0 1573.0,1549.9 1546.3,1552.2 1519.6,1554.8 1492.9,1557.8 1466.3,1561.1 1439.7,1564.7 1413.2,1568.7 1386.7,1573.0 1360.4,1577.7 1334.1,1582.6 1308.0,1587.9 1282.0,1593.5 1256.1,1599.4 1230.4,1605.6 1204.8,1612.1 1179.3,1618.8 1154.1,1625.8 1129.0,1633.1 1104.2,1640.6 1079.5,1648.3 1055.0,1656.2 1030.8,1664.3 1006.8,1672.6  A 522.500,522.500 0.00 0,1 996.5,1639.8 L 996.5,1639.8 1021.4,1633.0 1046.5,1626.3 1071.7,1619.7 1097.0,1613.3 1122.5,1607.1 1148.2,1601.1 1174.0,1595.2 1199.9,1589.5 1225.9,1584.0 1252.0,1578.7 1278.3,1573.7 1304.6,1568.8 1331.0,1564.2 1357.5,1559.8 1384.1,1555.6 1410.8,1551.7 1437.5,1548.0 1464.2,1544.5 1491.0,1541.3 1517.8,1538.4 1544.6,1535.7 1571.5,1533.2 1598.4,1531.0 1625.2,1529.0 1652.1,1527.3 1678.9,1525.8 1705.7,1524.6 1732.4,1523.5 1759.2,1522.8 1785.8,1522.2 1812.4,1521.9 1838.9,1521.8 1865.4,1521.9 1891.7,1522.2 1918.0,1522.7 1944.1,1523.4 1970.2,1524.3 1996.1,1525.4 2021.8,1526.6  Z" style="stroke-width: 0.5;  stroke: rgb(0,0,0); fill: rgb(179,177,178);" />
<path d="M 2022.467,1494.083 A 522.500,522.500 0.00 0,1 2021.8,1526.6 L 2021.8,1526.6 1996.1,1525.3 1970.2,1524.3 1944.1,1523.4 1918.0,1522.7 1891.7,1522.2 1865.4,1521.8 1838.9,1521.7 1812.4,1521.8 1785.8,1522.2 1759.1,1522.7 1732.4,1523.5 1705.7,1524.5 1678.9,1525.7 1652.0,1527.2 1625.2,1528.9 1598.3,1530.9 1571.5,1533.1 1544.6,1535.5 1517.8,1538.2 1491.0,1541.2 1464.2,1544.4 1437.4,1547.8 1410.7,1551.5 1384.1,1555.4 1357.5,1559.6 1331.0,1563.9 1304.6,1568.5 1278.2,1573.4 1252.0,1578.4 1225.8,1583.7 1199.8,1589.1 1173.9,1594.8 1148.1,1600.7 1122.4,1606.7 1096.9,1612.9 1071.5,1619.3 1046.3,1625.8 1021.3,1632.4 996.4,1639.2  A 522.500,522.500 0.00 0,1 988.8,1608.0 L 988.8,1608.0 1014.4,1602.6 1040.1,1597.3 1066.0,1592.1 1091.9,1587.1 1117.9,1582.1 1144.0,1577.2 1170.2,1572.5 1196.5,1567.8 1222.8,1563.3 1249.3,1558.9 1275.7,1554.7 1302.3,1550.6 1328.9,1546.6 1355.5,1542.7 1382.2,1539.0 1408.9,1535.5 1435.7,1532.1 1462.4,1528.8 1489.3,1525.7 1516.1,1522.8 1542.9,1520.0 1569.8,1517.3 1596.6,1514.8 1623.5,1512.5 1650.3,1510.3 1677.2,1508.2 1704.0,1506.3 1730.8,1504.5 1757.6,1502.9 1784.3,1501.5 1811.0,1500.1 1837.6,1498.9 1864.2,1497.9 1890.8,1496.9 1917.3,1496.1 1943.7,1495.5 1970.0,1494.9 1996.3,1494.4 2022.5,1494.1  Z" style="stroke-width: 0.5;  stroke: rgb(0,0,0); fill: rgb(179,177,178);" />
<path d="M 1540.400,979.064 A 522.500,522.500 0.00 0,1 1569.6,982.2 L 1569.6,982.2 1566.6,1003.0 1563.1,1023.8 1559.0,1044.5 1554.4,1064.8 1549.3,1084.8 1543.6,1104.3 1537.3,1123.2 1530.4,1141.5 1523.0,1159.0 1514.9,1175.7 1506.2,1191.6 1496.9,1206.5 1487.0,1220.5 1476.4,1233.4 1465.3,1245.2 1453.6,1255.9 1441.3,1265.4 1428.4,1273.7 1415.0,1280.9 1401.1,1286.8 1386.6,1291.5 1371.7,1295.0 1356.3,1297.2 1340.5,1298.3 1324.2,1298.1 1307.7,1296.7 1290.7,1294.2 1273.5,1290.6 1256.1,1285.8 1238.4,1280.1 1220.6,1273.3 1202.7,1265.6 1184.7,1257.0 1166.7,1247.6 1148.7,1237.4 1130.9,1226.6 1113.2,1215.2 1095.8,1203.3 1078.6,1191.0  A 522.500,522.500 0.00 0,1 1097.1,1167.3 L 1097.1,1167.3 1113.3,1180.5 1129.8,1193.2 1146.6,1205.5 1163.4,1217.2 1180.4,1228.3 1197.4,1238.6 1214.4,1248.2 1231.2,1256.8 1248.0,1264.5 1264.5,1271.1 1280.9,1276.7 1296.9,1281.2 1312.7,1284.5 1328.1,1286.7 1343.1,1287.6 1357.7,1287.3 1371.8,1285.7 1385.4,1282.9 1398.6,1278.8 1411.2,1273.4 1423.3,1266.8 1434.8,1258.9 1445.8,1249.9 1456.1,1239.6 1465.9,1228.1 1475.0,1215.6 1483.6,1201.9 1491.5,1187.3 1498.8,1171.6 1505.5,1155.1 1511.6,1137.7 1517.1,1119.6 1522.0,1100.8 1526.4,1081.4 1530.2,1061.5 1533.5,1041.2 1536.3,1020.6 1538.6,999.9 1540.4,979.1  Z" style="stroke-width: 0.5;  stroke: rgb(0,0,0); fill: rgb(179,177,178);" />
<path d="M 1752.925,1042.797 A 522.500,522.500 0.00 0,1 1775.4,1056.0 L 1775.4,1056.0 1763.0,1075.4 1750.1,1094.8 1736.6,1114.0 1722.6,1133.0 1708.0,1151.6 1692.9,1170.0 1677.3,1187.9 1661.1,1205.4 1644.4,1222.3 1627.2,1238.8 1609.5,1254.6 1591.3,1269.8 1572.6,1284.4 1553.5,1298.3 1533.8,1311.5 1513.8,1323.9 1493.3,1335.6 1472.4,1346.5 1451.1,1356.6 1429.5,1365.9 1407.6,1374.4 1385.3,1382.0 1362.7,1388.9 1339.9,1394.9 1316.8,1400.1 1293.6,1404.4 1270.1,1408.0 1246.5,1410.7 1222.9,1412.7 1199.1,1413.8 1175.3,1414.3 1151.5,1414.0 1127.7,1413.0 1104.0,1411.4 1080.5,1409.1 1057.1,1406.2 1033.9,1402.8 1010.9,1398.9 988.3,1394.4  A 522.500,522.500 0.00 0,1 994.2,1369.0 L 994.2,1369.0 1016.3,1374.4 1038.8,1379.4 1061.5,1383.9 1084.4,1387.8 1107.5,1391.1 1130.7,1393.7 1154.0,1395.6 1177.3,1396.8 1200.6,1397.2 1223.9,1396.8 1247.1,1395.7 1270.1,1393.7 1293.0,1390.8 1315.7,1387.1 1338.2,1382.5 1360.5,1377.0 1382.4,1370.6 1404.1,1363.4 1425.4,1355.3 1446.3,1346.3 1466.9,1336.4 1487.0,1325.7 1506.7,1314.1 1526.0,1301.7 1544.8,1288.6 1563.2,1274.7 1581.0,1260.0 1598.3,1244.7 1615.1,1228.7 1631.4,1212.0 1647.1,1194.8 1662.3,1177.1 1676.9,1158.9 1691.0,1140.2 1704.5,1121.2 1717.5,1101.9 1729.8,1082.4 1741.7,1062.6 1752.9,1042.8  Z" style="stroke-width: 0.5;  stroke: rgb(0,0,0); fill: rgb(179,177,178);" />
<path d="M 2020.552,1454.929 A 522.500,522.500 0.00 0,1 2021.9,1474.7 L 2021.9,1474.7 1995.6,1476.1 1969.3,1477.5 1942.9,1479.0 1916.4,1480.5 1889.9,1482.2 1863.4,1484.0 1836.8,1485.9 1810.1,1487.9 1783.5,1490.1 1756.8,1492.3 1730.1,1494.7 1703.3,1497.1 1676.6,1499.7 1649.8,1502.4 1623.0,1505.2 1596.2,1508.2 1569.4,1511.3 1542.7,1514.5 1515.9,1517.8 1489.1,1521.2 1462.4,1524.8 1435.7,1528.5 1409.0,1532.3 1382.3,1536.2 1355.7,1540.2 1329.1,1544.4 1302.6,1548.6 1276.1,1553.0 1249.6,1557.5 1223.2,1562.1 1196.9,1566.8 1170.6,1571.5 1144.4,1576.4 1118.2,1581.4 1092.2,1586.5 1066.2,1591.6 1040.3,1596.8 1014.4,1602.2 988.7,1607.5  A 522.500,522.500 0.00 0,1 985.0,1588.0 L 985.0,1588.0 1011.1,1583.6 1037.3,1579.2 1063.6,1574.8 1089.9,1570.5 1116.2,1566.2 1142.6,1561.9 1169.0,1557.7 1195.4,1553.6 1221.9,1549.5 1248.4,1545.5 1274.9,1541.5 1301.5,1537.6 1328.1,1533.7 1354.7,1529.9 1381.3,1526.2 1407.9,1522.5 1434.6,1518.9 1461.3,1515.3 1488.0,1511.8 1514.6,1508.4 1541.3,1505.0 1568.0,1501.7 1594.8,1498.5 1621.5,1495.3 1648.2,1492.2 1674.9,1489.2 1701.6,1486.2 1728.2,1483.3 1754.9,1480.4 1781.6,1477.6 1808.2,1474.9 1834.9,1472.2 1861.5,1469.5 1888.0,1467.0 1914.6,1464.5 1941.1,1462.0 1967.6,1459.6 1994.1,1457.2 2020.6,1454.9  Z" style="stroke-width: 0.5;  stroke: rgb(0,0,0); fill: rgb(179,177,178);" />
<path d="M 1500.000,977.500 A 522.500,522.500 0.00 0,1 1513.4,977.7 L 1513.4,977.7 1512.6,998.4 1511.5,1019.1 1509.9,1039.6 1507.8,1059.8 1505.1,1079.6 1502.0,1098.9 1498.2,1117.6 1494.0,1135.6 1489.1,1152.9 1483.6,1169.3 1477.5,1184.8 1470.8,1199.2 1463.5,1212.7 1455.6,1225.0 1447.0,1236.2 1437.8,1246.2 1428.1,1255.0 1417.7,1262.5 1406.7,1268.8 1395.2,1273.7 1383.2,1277.4 1370.6,1279.8 1357.5,1281.0 1343.9,1280.8 1329.9,1279.4 1315.5,1276.7 1300.7,1272.9 1285.5,1267.9 1270.1,1261.7 1254.4,1254.5 1238.5,1246.2 1222.4,1237.0 1206.2,1226.9 1190.0,1216.0 1173.7,1204.4 1157.5,1192.1 1141.5,1179.2 1125.6,1165.9 1110.0,1152.3  A 522.500,522.500 0.00 0,1 1123.3,1137.9 L 1123.3,1137.9 1138.4,1152.1 1153.6,1165.9 1169.0,1179.3 1184.6,1192.1 1200.2,1204.4 1215.8,1215.8 1231.3,1226.5 1246.7,1236.3 1261.9,1245.1 1276.9,1252.9 1291.6,1259.6 1306.0,1265.2 1320.1,1269.5 1333.8,1272.7 1347.1,1274.6 1359.9,1275.3 1372.3,1274.6 1384.1,1272.6 1395.4,1269.4 1406.2,1264.8 1416.4,1258.9 1426.0,1251.7 1435.1,1243.3 1443.5,1233.6 1451.3,1222.7 1458.5,1210.6 1465.1,1197.4 1471.1,1183.2 1476.5,1167.9 1481.3,1151.7 1485.5,1134.6 1489.1,1116.7 1492.1,1098.2 1494.7,1079.0 1496.7,1059.3 1498.2,1039.2 1499.2,1018.7 1499.8,998.1 1500.0,977.5  Z" style="stroke-width: 0.5;  stroke: rgb(0,0,0); fill: rgb(179,177,178);" />
<path d="M 1513.416,977.672 A 522.500,522.500 0.00 0,1 1531.4,978.4 L 1531.4,978.4 1529.9,999.2 1528.0,1020.0 1525.6,1040.6 1522.7,1060.9 1519.3,1080.8 1515.3,1100.2 1510.7,1119.0 1505.6,1137.1 1499.8,1154.5 1493.5,1171.1 1486.5,1186.7 1479.0,1201.4 1470.8,1215.1 1462.0,1227.6 1452.5,1239.1 1442.5,1249.4 1431.9,1258.4 1420.7,1266.3 1408.9,1272.9 1396.5,1278.3 1383.6,1282.4 1370.2,1285.2 1356.3,1286.8 1341.9,1287.1 1327.1,1286.1 1311.9,1284.0 1296.4,1280.6 1280.5,1276.1 1264.3,1270.5 1247.9,1263.8 1231.3,1256.1 1214.5,1247.5 1197.6,1237.9 1180.7,1227.6 1163.9,1216.5 1147.1,1204.7 1130.4,1192.4 1113.9,1179.7 1097.8,1166.5  A 522.500,522.500 0.00 0,1 1109.5,1152.9 L 1109.5,1152.9 1125.1,1166.5 1141.0,1179.8 1157.1,1192.6 1173.3,1204.9 1189.5,1216.5 1205.8,1227.4 1222.0,1237.5 1238.1,1246.7 1254.0,1254.9 1269.8,1262.1 1285.2,1268.2 1300.4,1273.2 1315.2,1277.0 1329.7,1279.7 1343.7,1281.1 1357.3,1281.2 1370.4,1280.1 1383.0,1277.6 1395.1,1273.9 1406.6,1268.9 1417.6,1262.6 1428.0,1255.1 1437.8,1246.3 1446.9,1236.3 1455.5,1225.1 1463.5,1212.7 1470.8,1199.3 1477.5,1184.8 1483.6,1169.3 1489.1,1152.9 1494.0,1135.7 1498.3,1117.6 1502.0,1098.9 1505.1,1079.6 1507.8,1059.8 1509.9,1039.6 1511.5,1019.1 1512.7,998.4 1513.4,977.7  Z" style="stroke-width: 0.5;  stroke: rgb(0,0,0); fill: rgb(179,177,178);" />
<path d="M 1702.920,1981.487 A 522.500,522.500 0.00 0,1 1692.8,1985.6 L 1692.8,1985.6 1684.9,1966.3 1676.6,1947.2 1667.8,1928.4 1658.7,1910.0 1649.2,1892.2 1639.4,1875.0 1629.2,1858.5 1618.6,1842.9 1607.7,1828.2 1596.5,1814.4 1585.0,1801.7 1573.2,1790.1 1561.1,1779.7 1548.8,1770.5 1536.2,1762.5 1523.4,1755.9 1510.4,1750.5 1497.3,1746.5 1484.0,1743.9 1470.5,1742.6 1456.9,1742.8 1443.3,1744.2 1429.5,1747.1 1415.7,1751.2 1401.9,1756.7 1388.1,1763.5 1374.3,1771.5 1360.5,1780.7 1346.9,1791.0 1333.3,1802.5 1319.9,1814.9 1306.6,1828.4 1293.5,1842.6 1280.6,1857.7 1268.0,1873.5 1255.6,1889.9 1243.6,1906.7 1231.8,1924.0 1220.5,1941.5  A 522.500,522.500 0.00 0,1 1211.3,1935.5 L 1211.3,1935.5 1223.1,1918.2 1235.2,1901.2 1247.7,1884.5 1260.5,1868.3 1273.6,1852.8 1286.9,1837.9 1300.5,1823.8 1314.2,1810.6 1328.2,1798.3 1342.2,1787.0 1356.4,1776.8 1370.7,1767.8 1385.0,1759.9 1399.3,1753.3 1413.6,1747.9 1428.0,1743.9 1442.2,1741.1 1456.4,1739.7 1470.5,1739.7 1484.5,1741.0 1498.4,1743.7 1512.1,1747.7 1525.6,1753.0 1538.9,1759.7 1552.0,1767.6 1564.9,1776.8 1577.5,1787.1 1589.8,1798.7 1601.8,1811.3 1613.6,1825.0 1625.0,1839.6 1636.0,1855.2 1646.8,1871.5 1657.1,1888.6 1667.1,1906.3 1676.7,1924.6 1685.8,1943.3 1694.6,1962.3 1702.9,1981.5  Z" style="stroke-width: 0.5;  stroke: rgb(0,0,0); fill: rgb(179,177,178);" />
<path d="M 1964.831,1261.382 A 522.500,522.500 0.00 0,1 1968.4,1268.5 L 1968.4,1268.5 1945.8,1279.5 1922.9,1290.4 1899.7,1301.1 1876.3,1311.6 1852.6,1321.8 1828.7,1331.8 1804.5,1341.6 1780.1,1351.0 1755.5,1360.2 1730.7,1369.1 1705.7,1377.7 1680.5,1385.9 1655.2,1393.8 1629.7,1401.3 1604.0,1408.5 1578.2,1415.3 1552.3,1421.7 1526.3,1427.8 1500.2,1433.5 1474.0,1438.7 1447.7,1443.6 1421.4,1448.1 1395.0,1452.2 1368.6,1456.0 1342.2,1459.3 1315.8,1462.2 1289.4,1464.8 1263.0,1466.9 1236.6,1468.7 1210.3,1470.2 1184.1,1471.2 1157.9,1472.0 1131.8,1472.3 1105.9,1472.4 1080.1,1472.1 1054.4,1471.5 1028.9,1470.7 1003.6,1469.5 978.5,1468.1  A 522.500,522.500 0.00 0,1 979.0,1460.0 L 979.0,1460.0 1004.0,1461.8 1029.3,1463.3 1054.7,1464.5 1080.2,1465.4 1106.0,1466.0 1131.8,1466.3 1157.8,1466.2 1183.9,1465.7 1210.1,1464.9 1236.3,1463.7 1262.6,1462.2 1289.0,1460.2 1315.4,1457.8 1341.7,1455.0 1368.1,1451.8 1394.5,1448.2 1420.8,1444.2 1447.1,1439.8 1473.3,1434.9 1499.4,1429.6 1525.5,1424.0 1551.4,1417.9 1577.2,1411.4 1602.9,1404.5 1628.5,1397.3 1653.9,1389.6 1679.1,1381.6 1704.2,1373.2 1729.1,1364.5 1753.7,1355.4 1778.2,1346.0 1802.4,1336.3 1826.4,1326.3 1850.1,1316.1 1873.6,1305.6 1896.9,1294.8 1919.8,1283.9 1942.5,1272.7 1964.8,1261.4  Z" style="stroke-width: 0.5;  stroke: rgb(0,0,0); fill: rgb(179,177,178);" />
</g>
<g id="plot0">
<g id="plot0-axis">
</g>
<line x1='2243.7' y1='1597.4' x2='2243.7' y2='1597.4' style="stroke-width:14.0;stroke:rgb(0,0,0);stroke-linecap:round;fill:none;" />
<line x1='2243.7' y1='1597.4' x2='2283.3' y2='1602.5' style="stroke-width:14.0;stroke:rgb(0,0,0);stroke-linecap:round;fill:none;" />
<line x1='2283.3' y1='1602.5' x2='2283.3' y2='1602.5' style="stroke-width:14.0;stroke:rgb(0,0,0);stroke-linecap:round;fill:none;" />
<text x="2299.9" y="1627.4" font-size="46.8px" font-family="CMUBright-Roman" style="text-anchor:start;fill:rgb(255,38,78);" transform="rotate(7.5,2299.9,1627.4)" >HistocapCB062<tspan baseline-shift="-40%" font-size="90%">s</tspan>00026</text>
</g>
<defs>
<pattern id="checker" width="10" height="10" patternTransform="rotate(45 0 0)" patternUnits="userSpaceOnUse"><line x1="0" y1="0" x2="10" y2="0" style="stroke:black;stroke-width:5" /><line x1="0" y1="0" x2="0" y2="10" style="stroke:black;stroke-width:4" /></pattern>
<pattern id="vline-sparse" width="10" height="10" patternTransform="rotate(0 0 0)" patternUnits="userSpaceOnUse"><line x1="0" y1="0" x2="0" y2="10" style="stroke:black;stroke-width:2" /></pattern>
<pattern id="hline" width="10" height="10" patternTransform="rotate(0 0 0)" patternUnits="userSpaceOnUse"><line x1="0" y1="0" x2="10" y2="0" style="stroke:black;stroke-width:5" /></pattern>
<pattern id="vline" width="10" height="10" patternTransform="rotate(0 0 0)" patternUnits="userSpaceOnUse"><line x1="0" y1="0" x2="0" y2="10" style="stroke:black;stroke-width:5" /></pattern>
<pattern id="checker" width="10" height="10" patternTransform="rotate(45 0 0)" patternUnits="userSpaceOnUse"><line x1="0" y1="0" x2="10" y2="0" style="stroke:black;stroke-width:2" /><line x1="0" y1="0" x2="0" y2="10" style="stroke:black;stroke-width:2" /></pattern>
<pattern id="hline-sparse" width="10" height="10" patternTransform="rotate(0 0 0)" patternUnits="userSpaceOnUse"><line x1="0" y1="0" x2="10" y2="0" style="stroke:black;stroke-width:2" /></pattern>
</defs>
</svg>
