<?xml version="1.0" encoding="utf-8" standalone="no"?>
<!DOCTYPE svg PUBLIC "-//W3C//DTD SVG 1.1//EN" "http://www.w3.org/Graphics/SVG/1.1/DTD/svg11.dtd">
<svg width="3000px" height="3000px" version="1.1" xmlns="http://www.w3.org/2000/svg" xmlns:xlink="http://www.w3.org/1999/xlink">
<g id="bg">
<rect x="0" y="0" width="3000px" height="3000px" style="fill:rgb(255,255,255);"/>
</g>
<g id="ideograms">
<path d="M1500.000,950.000 A550.000,550.000 40.000 0,1 1659.852,2026.258 L1717.980,2217.624 A750.000,750.000 0.000 0,0 1500.000,750.000 Z" style="stroke-width:2.0;stroke:rgb(0,0,0);stroke-linecap:round;fill:rgb(179,177,178);" />
<text x="2464.4" y="1356.8" font-size="46.8px" font-family="CMUBright-Roman" style="text-anchor:middle;fill:rgb(0,0,0);" transform="rotate(441.6,2464.4,1356.8)" >HistocapWGSS11<tspan baseline-shift="-40%" font-size="90%">6</tspan></text>
<line x1='1539.6' y1='751.0' x2='1540.2' y2='739.1' style="stroke-width:8.0;stroke:rgb(150,150,150);stroke-linecap:round;fill:none;" />
<line x1='1637.9' y1='762.8' x2='1640.1' y2='751.0' style="stroke-width:8.0;stroke:rgb(150,150,150);stroke-linecap:round;fill:none;" />
<line x1='1733.9' y1='787.4' x2='1737.6' y2='776.0' style="stroke-width:8.0;stroke:rgb(150,150,150);stroke-linecap:round;fill:none;" />
<line x1='1825.8' y1='824.4' x2='1831.0' y2='813.6' style="stroke-width:8.0;stroke:rgb(150,150,150);stroke-linecap:round;fill:none;" />
<line x1='1911.9' y1='873.3' x2='1918.5' y2='863.2' style="stroke-width:8.0;stroke:rgb(150,150,150);stroke-linecap:round;fill:none;" />
<text x="1936.8" y="861.0" font-size="41.6px" font-family="CMUBright-Roman" style="text-anchor:start;fill:rgb(150,150,150);" transform="rotate(303.3,1936.8,861.0)" >2200 kb</text>
<line x1='1990.9' y1='933.0' x2='1998.8' y2='923.9' style="stroke-width:8.0;stroke:rgb(150,150,150);stroke-linecap:round;fill:none;" />
<line x1='2061.4' y1='1002.7' x2='2070.4' y2='994.7' style="stroke-width:8.0;stroke:rgb(150,150,150);stroke-linecap:round;fill:none;" />
<line x1='2122.0' y1='1081.0' x2='2132.0' y2='1074.3' style="stroke-width:8.0;stroke:rgb(150,150,150);stroke-linecap:round;fill:none;" />
<line x1='2171.8' y1='1166.6' x2='2182.6' y2='1161.3' style="stroke-width:8.0;stroke:rgb(150,150,150);stroke-linecap:round;fill:none;" />
<line x1='2209.9' y1='1258.1' x2='2221.3' y2='1254.2' style="stroke-width:8.0;stroke:rgb(150,150,150);stroke-linecap:round;fill:none;" />
<text x="2237.0" y="1263.6" font-size="41.6px" font-family="CMUBright-Roman" style="text-anchor:start;fill:rgb(150,150,150);" transform="rotate(341.2,2237.0,1263.6)" >2250 kb</text>
<line x1='2235.6' y1='1353.7' x2='2247.4' y2='1351.4' style="stroke-width:8.0;stroke:rgb(150,150,150);stroke-linecap:round;fill:none;" />
<line x1='2248.5' y1='1451.9' x2='2260.4' y2='1451.2' style="stroke-width:8.0;stroke:rgb(150,150,150);stroke-linecap:round;fill:none;" />
<line x1='2248.3' y1='1551.0' x2='2260.2' y2='1551.8' style="stroke-width:8.0;stroke:rgb(150,150,150);stroke-linecap:round;fill:none;" />
<line x1='2235.0' y1='1649.2' x2='2246.8' y2='1651.5' style="stroke-width:8.0;stroke:rgb(150,150,150);stroke-linecap:round;fill:none;" />
<line x1='2209.0' y1='1744.7' x2='2220.3' y2='1748.6' style="stroke-width:8.0;stroke:rgb(150,150,150);stroke-linecap:round;fill:none;" />
<text x="2227.0" y="1765.7" font-size="41.6px" font-family="CMUBright-Roman" style="text-anchor:start;fill:rgb(150,150,150);" transform="rotate(19.0,2227.0,1765.7)" >2300 kb</text>
<line x1='2170.5' y1='1836.0' x2='2181.2' y2='1841.4' style="stroke-width:8.0;stroke:rgb(150,150,150);stroke-linecap:round;fill:none;" />
<line x1='2120.4' y1='1921.4' x2='2130.3' y2='1928.2' style="stroke-width:8.0;stroke:rgb(150,150,150);stroke-linecap:round;fill:none;" />
<line x1='2059.4' y1='1999.5' x2='2068.4' y2='2007.5' style="stroke-width:8.0;stroke:rgb(150,150,150);stroke-linecap:round;fill:none;" />
<line x1='1988.7' y1='2068.9' x2='1996.6' y2='2078.0' style="stroke-width:8.0;stroke:rgb(150,150,150);stroke-linecap:round;fill:none;" />
<line x1='1909.5' y1='2128.3' x2='1916.0' y2='2138.4' style="stroke-width:8.0;stroke:rgb(150,150,150);stroke-linecap:round;fill:none;" />
<text x="1910.8" y="2156.0" font-size="41.6px" font-family="CMUBright-Roman" style="text-anchor:start;fill:rgb(150,150,150);" transform="rotate(56.9,1910.8,2156.0)" >2350 kb</text>
<line x1='1823.1' y1='2176.8' x2='1828.3' y2='2187.7' style="stroke-width:8.0;stroke:rgb(150,150,150);stroke-linecap:round;fill:none;" />
<line x1='1731.1' y1='2213.5' x2='1734.8' y2='2224.9' style="stroke-width:8.0;stroke:rgb(150,150,150);stroke-linecap:round;fill:none;" />
<g id="highlighttrack_0">
<path d="M2033.023,1364.404 A550.000,550.000 40.000 0,1 2049.424,1474.824 L2249.214,1465.670 A750.000,750.000 0.000 0,0 2226.850,1315.097 Z" style="stroke-width:14.0;stroke:rgb(0,0,0);stroke-linecap:round;fill:rgb(255,38,78);" />
</g>
<path d="M1500.000,950.000 A550.000,550.000 40.000 0,1 1659.852,2026.258 L1717.980,2217.624 A750.000,750.000 0.000 0,0 1500.000,750.000 Z" style="stroke-width:2.0;stroke:rgb(0,0,0);stroke-linecap:round;fill:none;" />
<path d="M1444.210,2047.163 A550.000,550.000 40.000 0,1 1287.591,992.671 L1210.351,808.188 A750.000,750.000 0.000 0,0 1423.922,2246.131 Z" style="stroke-width:2.0;stroke:rgb(0,0,0);stroke-linecap:round;fill:rgb(179,177,178);" />
<text x="491.1" y="1649.9" font-size="46.8px" font-family="CMUBright-Roman" style="text-anchor:middle;fill:rgb(0,0,0);" transform="rotate(81.6,491.1,1649.9)" >HistoohiSECH99<tspan baseline-shift="-40%" font-size="90%">6</tspan></text>
<line x1='1146.0' y1='838.8' x2='1140.4' y2='828.2' style="stroke-width:8.0;stroke:rgb(150,150,150);stroke-linecap:round;fill:none;" />
<line x1='1062.0' y1='891.2' x2='1055.0' y2='881.5' style="stroke-width:8.0;stroke:rgb(150,150,150);stroke-linecap:round;fill:none;" />
<line x1='985.6' y1='954.2' x2='977.3' y2='945.5' style="stroke-width:8.0;stroke:rgb(150,150,150);stroke-linecap:round;fill:none;" />
<line x1='918.1' y1='1026.8' x2='908.8' y2='1019.2' style="stroke-width:8.0;stroke:rgb(150,150,150);stroke-linecap:round;fill:none;" />
<text x="890.8" y="1022.6" font-size="41.6px" font-family="CMUBright-Roman" style="text-anchor:end;fill:rgb(150,150,150);" transform="rotate(39.1,890.8,1022.6)" >2200 kb</text>
<line x1='860.8' y1='1107.6' x2='850.6' y2='1101.3' style="stroke-width:8.0;stroke:rgb(150,150,150);stroke-linecap:round;fill:none;" />
<line x1='814.7' y1='1195.3' x2='803.7' y2='1190.4' style="stroke-width:8.0;stroke:rgb(150,150,150);stroke-linecap:round;fill:none;" />
<line x1='780.5' y1='1288.2' x2='769.0' y2='1284.8' style="stroke-width:8.0;stroke:rgb(150,150,150);stroke-linecap:round;fill:none;" />
<line x1='758.9' y1='1384.9' x2='747.0' y2='1383.0' style="stroke-width:8.0;stroke:rgb(150,150,150);stroke-linecap:round;fill:none;" />
<line x1='750.2' y1='1483.6' x2='738.2' y2='1483.3' style="stroke-width:8.0;stroke:rgb(150,150,150);stroke-linecap:round;fill:none;" />
<text x="726.0" y="1497.0" font-size="41.6px" font-family="CMUBright-Roman" style="text-anchor:end;fill:rgb(150,150,150);" transform="rotate(1.3,726.0,1497.0)" >2250 kb</text>
<line x1='754.6' y1='1582.5' x2='742.6' y2='1583.8' style="stroke-width:8.0;stroke:rgb(150,150,150);stroke-linecap:round;fill:none;" />
<line x1='771.9' y1='1680.0' x2='760.3' y2='1682.9' style="stroke-width:8.0;stroke:rgb(150,150,150);stroke-linecap:round;fill:none;" />
<line x1='802.0' y1='1774.4' x2='790.8' y2='1778.8' style="stroke-width:8.0;stroke:rgb(150,150,150);stroke-linecap:round;fill:none;" />
<line x1='844.3' y1='1864.0' x2='833.8' y2='1869.8' style="stroke-width:8.0;stroke:rgb(150,150,150);stroke-linecap:round;fill:none;" />
<line x1='897.9' y1='1947.2' x2='888.3' y2='1954.4' style="stroke-width:8.0;stroke:rgb(150,150,150);stroke-linecap:round;fill:none;" />
<text x="887.1" y="1972.7" font-size="41.6px" font-family="CMUBright-Roman" style="text-anchor:end;fill:rgb(150,150,150);" transform="rotate(-36.6,887.1,1972.7)" >2300 kb</text>
<line x1='962.1' y1='2022.7' x2='953.5' y2='2031.1' style="stroke-width:8.0;stroke:rgb(150,150,150);stroke-linecap:round;fill:none;" />
<line x1='1035.7' y1='2089.0' x2='1028.3' y2='2098.4' style="stroke-width:8.0;stroke:rgb(150,150,150);stroke-linecap:round;fill:none;" />
<line x1='1117.4' y1='2145.1' x2='1111.3' y2='2155.4' style="stroke-width:8.0;stroke:rgb(150,150,150);stroke-linecap:round;fill:none;" />
<line x1='1205.7' y1='2189.9' x2='1201.0' y2='2200.9' style="stroke-width:8.0;stroke:rgb(150,150,150);stroke-linecap:round;fill:none;" />
<line x1='1299.2' y1='2222.6' x2='1296.0' y2='2234.2' style="stroke-width:8.0;stroke:rgb(150,150,150);stroke-linecap:round;fill:none;" />
<text x="1306.3" y="2249.4" font-size="41.6px" font-family="CMUBright-Roman" style="text-anchor:end;fill:rgb(150,150,150);" transform="rotate(-74.5,1306.3,2249.4)" >2350 kb</text>
<line x1='1396.2' y1='2242.8' x2='1394.5' y2='2254.7' style="stroke-width:8.0;stroke:rgb(150,150,150);stroke-linecap:round;fill:none;" />
<path d="M1444.210,2047.163 A550.000,550.000 40.000 0,1 1287.591,992.671 L1210.351,808.188 A750.000,750.000 0.000 0,0 1423.922,2246.131 Z" style="stroke-width:2.0;stroke:rgb(0,0,0);stroke-linecap:round;fill:none;" />
</g>
<g id="track_0">
<path d="M 1768.685,1948.124 A 522.500,522.500 0.00 0,1 1651.9,1999.9 L 1651.9,1999.9 1645.9,1980.6 1639.7,1961.5 1633.4,1942.7 1627.0,1924.4 1620.5,1906.6 1613.9,1889.6 1607.3,1873.3 1600.6,1858.0 1593.8,1843.6 1587.1,1830.4 1580.4,1818.3 1573.7,1807.4 1567.1,1797.9 1560.5,1789.6 1554.0,1782.8 1547.7,1777.4 1541.4,1773.5 1535.2,1771.1 1529.2,1770.1 1523.3,1770.7 1517.5,1772.8 1511.9,1776.4 1506.5,1781.4 1501.3,1787.9 1496.2,1795.9 1491.4,1805.2 1486.7,1815.9 1482.2,1827.8 1478.0,1841.0 1473.9,1855.2 1470.1,1870.6 1466.5,1887.0 1463.0,1904.2 1459.8,1922.2 1456.8,1940.9 1454.1,1960.1 1451.5,1979.8 1449.2,1999.7 1447.0,2019.8  A 522.500,522.500 0.00 0,1 1377.0,2007.8 L 1377.0,2007.8 1382.0,1987.8 1387.4,1968.0 1393.2,1948.4 1399.4,1929.3 1405.9,1910.7 1412.8,1892.7 1420.0,1875.4 1427.6,1859.0 1435.6,1843.5 1443.9,1828.9 1452.5,1815.5 1461.5,1803.1 1470.8,1792.0 1480.5,1782.1 1490.4,1773.5 1500.6,1766.3 1511.1,1760.4 1521.8,1755.8 1532.8,1752.7 1544.0,1751.0 1555.4,1750.7 1567.0,1751.8 1578.8,1754.4 1590.7,1758.2 1602.7,1763.5 1614.8,1770.1 1627.0,1777.9 1639.3,1787.0 1651.5,1797.3 1663.8,1808.7 1676.0,1821.1 1688.2,1834.5 1700.3,1848.9 1712.2,1864.0 1724.0,1879.8 1735.5,1896.3 1746.9,1913.2 1757.9,1930.5 1768.7,1948.1  Z" style="stroke-width: 0.5;  stroke: rgb(0,0,0); fill: rgb(179,177,178);" />
<path d="M 2022.427,1508.718 A 522.500,522.500 0.00 0,1 2010.1,1613.1 L 2010.1,1613.1 1985.8,1607.9 1961.3,1603.0 1936.5,1598.3 1911.5,1594.0 1886.3,1590.0 1860.9,1586.3 1835.3,1583.0 1809.6,1580.2 1783.7,1577.7 1757.7,1575.6 1731.6,1574.0 1705.4,1572.8 1679.1,1572.0 1652.7,1571.8 1626.4,1571.9 1600.0,1572.6 1573.6,1573.7 1547.2,1575.3 1520.8,1577.4 1494.4,1579.9 1468.2,1582.9 1441.9,1586.4 1415.8,1590.4 1389.8,1594.8 1363.9,1599.7 1338.1,1605.1 1312.4,1610.8 1286.9,1617.0 1261.6,1623.6 1236.5,1630.6 1211.6,1638.0 1186.9,1645.8 1162.4,1653.9 1138.1,1662.4 1114.2,1671.2 1090.4,1680.2 1067.0,1689.5 1043.9,1699.1 1021.1,1708.9  A 522.500,522.500 0.00 0,1 989.0,1608.8 L 989.0,1608.8 1014.5,1603.5 1040.1,1598.2 1065.9,1593.0 1091.8,1588.0 1117.7,1583.0 1143.8,1578.2 1170.0,1573.5 1196.2,1569.0 1222.6,1564.6 1249.0,1560.3 1275.5,1556.2 1302.0,1552.3 1328.7,1548.5 1355.3,1544.9 1382.0,1541.4 1408.8,1538.1 1435.6,1535.0 1462.4,1532.1 1489.3,1529.3 1516.1,1526.7 1543.0,1524.3 1569.9,1522.0 1596.8,1519.9 1623.7,1518.0 1650.6,1516.3 1677.5,1514.7 1704.3,1513.3 1731.1,1512.1 1757.9,1511.0 1784.7,1510.1 1811.3,1509.4 1838.0,1508.8 1864.6,1508.4 1891.1,1508.1 1917.5,1508.0 1943.9,1508.0 1970.2,1508.1 1996.3,1508.3 2022.4,1508.7  Z" style="stroke-width: 0.5;  stroke: rgb(0,0,0); fill: rgb(179,177,178);" />
<path d="M 1938.201,1215.420 A 522.500,522.500 0.00 0,1 1975.5,1283.5 L 1975.5,1283.5 1952.2,1293.9 1928.7,1304.3 1905.0,1314.5 1881.1,1324.6 1856.9,1334.4 1832.6,1344.1 1808.0,1353.6 1783.3,1362.9 1758.4,1371.9 1733.4,1380.7 1708.2,1389.3 1682.8,1397.6 1657.3,1405.6 1631.7,1413.4 1605.9,1420.9 1580.0,1428.1 1554.1,1435.0 1528.0,1441.6 1501.8,1448.0 1475.6,1454.0 1449.3,1459.7 1423.0,1465.1 1396.6,1470.3 1370.2,1475.1 1343.7,1479.6 1317.3,1483.8 1290.8,1487.7 1264.4,1491.3 1238.0,1494.6 1211.6,1497.7 1185.2,1500.4 1159.0,1502.9 1132.8,1505.1 1106.6,1507.0 1080.6,1508.7 1054.7,1510.1 1028.9,1511.3 1003.2,1512.2 977.7,1513.0  A 522.500,522.500 0.00 0,1 981.5,1435.7 L 981.5,1435.7 1005.9,1438.5 1030.6,1441.1 1055.5,1443.3 1080.7,1445.1 1106.0,1446.5 1131.4,1447.5 1157.0,1448.1 1182.7,1448.2 1208.5,1447.9 1234.4,1447.1 1260.3,1445.8 1286.3,1444.1 1312.3,1441.8 1338.3,1439.0 1364.2,1435.7 1390.2,1431.9 1416.0,1427.6 1441.8,1422.7 1467.5,1417.4 1493.1,1411.5 1518.5,1405.1 1543.9,1398.2 1569.0,1390.8 1594.0,1382.8 1618.8,1374.5 1643.4,1365.6 1667.7,1356.3 1691.8,1346.5 1715.7,1336.3 1739.4,1325.7 1762.7,1314.7 1785.8,1303.3 1808.5,1291.6 1831.0,1279.6 1853.1,1267.2 1874.9,1254.6 1896.4,1241.8 1917.5,1228.7 1938.2,1215.4  Z" style="stroke-width: 0.5;  stroke: rgb(0,0,0); fill: rgb(179,177,178);" />
<path d="M 1877.701,1138.962 A 522.500,522.500 0.00 0,1 1925.8,1197.2 L 1925.8,1197.2 1905.8,1211.2 1885.5,1225.0 1864.7,1238.6 1843.5,1251.9 1822.0,1265.0 1800.2,1277.7 1778.0,1290.1 1755.5,1302.0 1732.6,1313.6 1709.5,1324.8 1686.1,1335.5 1662.4,1345.8 1638.4,1355.6 1614.3,1364.9 1589.9,1373.6 1565.2,1381.9 1540.4,1389.6 1515.4,1396.8 1490.3,1403.4 1465.0,1409.4 1439.5,1414.9 1414.0,1419.8 1388.4,1424.2 1362.7,1427.9 1337.0,1431.2 1311.2,1433.8 1285.4,1435.9 1259.7,1437.5 1233.9,1438.5 1208.2,1439.0 1182.6,1439.0 1157.1,1438.5 1131.7,1437.5 1106.5,1436.1 1081.4,1434.2 1056.5,1431.8 1031.9,1429.1 1007.4,1426.0 983.3,1422.6  A 522.500,522.500 0.00 0,1 999.9,1348.5 L 999.9,1348.5 1022.5,1355.1 1045.5,1361.3 1068.7,1367.1 1092.2,1372.4 1116.0,1377.1 1140.0,1381.3 1164.1,1384.9 1188.4,1387.9 1212.8,1390.3 1237.4,1392.0 1261.9,1393.0 1286.5,1393.3 1311.1,1392.9 1335.7,1391.7 1360.2,1389.8 1384.7,1387.1 1409.1,1383.7 1433.3,1379.5 1457.4,1374.6 1481.3,1368.9 1505.1,1362.4 1528.6,1355.2 1551.9,1347.2 1574.9,1338.5 1597.6,1329.2 1620.1,1319.1 1642.3,1308.4 1664.1,1297.0 1685.5,1285.0 1706.6,1272.4 1727.4,1259.3 1747.7,1245.6 1767.6,1231.5 1787.1,1216.9 1806.1,1201.9 1824.7,1186.6 1842.9,1171.0 1860.5,1155.1 1877.7,1139.0  Z" style="stroke-width: 0.5;  stroke: rgb(0,0,0); fill: rgb(179,177,178);" />
<path d="M 1918.774,1812.465 A 522.500,522.500 0.00 0,1 1875.9,1862.9 L 1875.9,1862.9 1860.2,1848.2 1844.1,1833.7 1827.6,1819.7 1810.7,1806.2 1793.5,1793.3 1776.1,1781.1 1758.4,1769.7 1740.6,1759.1 1722.5,1749.4 1704.3,1740.6 1686.1,1732.8 1667.7,1726.1 1649.4,1720.5 1631.0,1716.0 1612.6,1712.6 1594.3,1710.4 1576.1,1709.4 1558.0,1709.6 1540.1,1711.0 1522.3,1713.6 1504.7,1717.4 1487.3,1722.4 1470.1,1728.6 1453.2,1736.0 1436.6,1744.5 1420.3,1754.1 1404.4,1764.8 1388.7,1776.5 1373.5,1789.2 1358.6,1802.8 1344.1,1817.3 1330.0,1832.6 1316.4,1848.6 1303.2,1865.3 1290.5,1882.6 1278.2,1900.4 1266.4,1918.5 1255.1,1937.0 1244.4,1955.7  A 522.500,522.500 0.00 0,1 1188.4,1919.4 L 1188.4,1919.4 1201.8,1901.8 1215.7,1884.4 1230.2,1867.3 1245.2,1850.6 1260.6,1834.4 1276.5,1818.7 1292.9,1803.7 1309.7,1789.3 1326.9,1775.7 1344.5,1762.8 1362.5,1750.8 1380.8,1739.7 1399.5,1729.5 1418.5,1720.2 1437.7,1712.0 1457.3,1704.7 1477.1,1698.5 1497.1,1693.4 1517.3,1689.3 1537.7,1686.4 1558.2,1684.5 1578.9,1683.6 1599.6,1683.9 1620.4,1685.2 1641.2,1687.6 1662.1,1691.0 1682.9,1695.4 1703.7,1700.9 1724.3,1707.2 1744.9,1714.5 1765.3,1722.6 1785.5,1731.6 1805.5,1741.3 1825.2,1751.8 1844.7,1762.9 1863.8,1774.6 1882.5,1786.8 1900.9,1799.4 1918.8,1812.5  Z" style="stroke-width: 0.5;  stroke: rgb(0,0,0); fill: rgb(179,177,178);" />
<path d="M 1576.448,983.123 A 522.500,522.500 0.00 0,1 1635.9,995.5 L 1635.9,995.5 1630.2,1015.6 1624.1,1035.7 1617.5,1055.5 1610.4,1074.9 1602.9,1093.9 1594.9,1112.2 1586.5,1129.9 1577.6,1146.9 1568.2,1163.0 1558.3,1178.2 1548.0,1192.5 1537.3,1205.6 1526.1,1217.7 1514.5,1228.7 1502.5,1238.4 1490.0,1246.9 1477.2,1254.2 1464.0,1260.1 1450.5,1264.8 1436.7,1268.1 1422.5,1270.2 1408.0,1270.9 1393.3,1270.3 1378.4,1268.4 1363.2,1265.2 1347.9,1260.8 1332.5,1255.1 1316.9,1248.3 1301.2,1240.3 1285.5,1231.3 1269.8,1221.3 1254.1,1210.2 1238.5,1198.3 1223.0,1185.6 1207.7,1172.2 1192.5,1158.1 1177.6,1143.5 1163.1,1128.5 1148.8,1113.1  A 522.500,522.500 0.00 0,1 1196.6,1074.6 L 1196.6,1074.6 1208.7,1091.3 1221.1,1107.7 1233.7,1123.6 1246.5,1139.1 1259.5,1154.0 1272.5,1168.1 1285.6,1181.4 1298.8,1193.8 1311.9,1205.2 1324.9,1215.6 1337.9,1224.8 1350.7,1232.9 1363.4,1239.7 1375.9,1245.3 1388.2,1249.6 1400.3,1252.5 1412.1,1254.0 1423.6,1254.2 1434.8,1253.0 1445.6,1250.4 1456.1,1246.4 1466.3,1241.0 1476.1,1234.2 1485.5,1226.1 1494.5,1216.8 1503.1,1206.1 1511.3,1194.2 1519.0,1181.2 1526.4,1167.1 1533.3,1151.9 1539.7,1135.7 1545.8,1118.7 1551.4,1100.9 1556.6,1082.4 1561.4,1063.3 1565.7,1043.7 1569.7,1023.7 1573.3,1003.5 1576.4,983.1  Z" style="stroke-width: 0.5;  stroke: rgb(0,0,0); fill: rgb(179,177,178);" />
<path d="M 1989.352,1683.143 A 522.500,522.500 0.00 0,1 1964.9,1738.5 L 1964.9,1738.5 1944.4,1728.3 1923.5,1718.4 1902.3,1709.1 1880.7,1700.2 1858.8,1691.9 1836.6,1684.2 1814.2,1677.1 1791.6,1670.7 1768.8,1665.1 1745.9,1660.2 1722.9,1656.2 1699.8,1652.9 1676.7,1650.5 1653.5,1649.0 1630.3,1648.4 1607.2,1648.6 1584.2,1649.8 1561.2,1651.9 1538.4,1654.9 1515.7,1658.8 1493.2,1663.6 1470.9,1669.3 1448.8,1675.9 1426.9,1683.5 1405.3,1691.8 1384.0,1701.0 1363.0,1711.0 1342.3,1721.8 1322.0,1733.4 1302.0,1745.6 1282.5,1758.6 1263.3,1772.2 1244.5,1786.3 1226.2,1801.0 1208.4,1816.2 1191.0,1831.8 1174.1,1847.7 1157.8,1864.0 1141.9,1880.5  A 522.500,522.500 0.00 0,1 1100.2,1836.4 L 1100.2,1836.4 1118.4,1821.4 1137.0,1806.7 1156.1,1792.2 1175.6,1778.1 1195.6,1764.4 1215.9,1751.0 1236.7,1738.2 1257.8,1725.9 1279.4,1714.1 1301.2,1702.8 1323.4,1692.2 1345.9,1682.3 1368.7,1673.0 1391.7,1664.3 1415.0,1656.4 1438.5,1649.2 1462.3,1642.8 1486.2,1637.1 1510.3,1632.1 1534.5,1628.0 1558.9,1624.6 1583.3,1621.9 1607.9,1620.1 1632.5,1619.0 1657.1,1618.6 1681.7,1619.0 1706.2,1620.2 1730.8,1622.0 1755.2,1624.6 1779.6,1627.8 1803.8,1631.8 1827.8,1636.3 1851.7,1641.5 1875.4,1647.2 1898.8,1653.4 1921.9,1660.2 1944.7,1667.5 1967.2,1675.1 1989.4,1683.1  Z" style="stroke-width: 0.5;  stroke: rgb(0,0,0); fill: rgb(179,177,178);" />
<path d="M 1963.412,1741.362 A 522.500,522.500 0.00 0,1 1932.8,1792.7 L 1932.8,1792.7 1914.2,1780.4 1895.2,1768.6 1875.8,1757.1 1856.0,1746.3 1836.0,1736.0 1815.6,1726.3 1795.0,1717.4 1774.2,1709.2 1753.2,1701.9 1732.1,1695.4 1710.9,1689.8 1689.6,1685.1 1668.3,1681.4 1647.0,1678.7 1625.7,1677.0 1604.4,1676.3 1583.3,1676.7 1562.2,1678.1 1541.3,1680.6 1520.6,1684.1 1500.0,1688.6 1479.7,1694.3 1459.6,1700.9 1439.7,1708.6 1420.2,1717.2 1401.0,1726.8 1382.1,1737.3 1363.5,1748.7 1345.3,1761.0 1327.6,1774.1 1310.2,1788.0 1293.2,1802.6 1276.7,1817.8 1260.7,1833.6 1245.1,1849.9 1230.1,1866.7 1215.5,1883.9 1201.5,1901.4 1188.0,1919.1  A 522.500,522.500 0.00 0,1 1142.2,1880.7 L 1142.2,1880.7 1158.0,1864.2 1174.4,1848.0 1191.2,1832.0 1208.6,1816.5 1226.4,1801.3 1244.7,1786.6 1263.4,1772.5 1282.5,1758.9 1302.1,1746.0 1322.0,1733.8 1342.3,1722.2 1363.0,1711.5 1383.9,1701.5 1405.2,1692.3 1426.8,1684.0 1448.6,1676.6 1470.7,1670.0 1493.0,1664.3 1515.4,1659.6 1538.1,1655.7 1560.9,1652.8 1583.8,1650.8 1606.8,1649.7 1629.8,1649.6 1652.9,1650.3 1676.0,1651.9 1699.1,1654.4 1722.2,1657.8 1745.1,1662.0 1768.0,1666.9 1790.7,1672.7 1813.2,1679.2 1835.6,1686.3 1857.7,1694.2 1879.5,1702.6 1901.0,1711.6 1922.2,1721.1 1943.0,1731.0 1963.4,1741.4  Z" style="stroke-width: 0.5;  stroke: rgb(0,0,0); fill: rgb(179,177,178);" />
<path d="M 1676.981,1008.386 A 522.500,522.500 0.00 0,1 1731.5,1031.6 L 1731.5,1031.6 1721.6,1050.9 1711.2,1070.1 1700.3,1089.1 1688.8,1107.6 1676.9,1125.8 1664.4,1143.4 1651.4,1160.4 1637.9,1176.7 1623.9,1192.3 1609.5,1207.1 1594.6,1221.0 1579.2,1234.0 1563.4,1246.0 1547.2,1257.0 1530.6,1267.0 1513.7,1275.9 1496.3,1283.7 1478.6,1290.4 1460.7,1296.0 1442.4,1300.4 1423.8,1303.6 1405.1,1305.7 1386.1,1306.6 1366.9,1306.4 1347.6,1305.0 1328.1,1302.6 1308.6,1299.0 1289.0,1294.4 1269.4,1288.8 1249.8,1282.2 1230.3,1274.6 1210.9,1266.2 1191.6,1257.0 1172.4,1247.0 1153.5,1236.2 1134.9,1224.9 1116.6,1213.0 1098.6,1200.6 1081.0,1187.8  A 522.500,522.500 0.00 0,1 1119.1,1142.4 L 1119.1,1142.4 1134.7,1156.7 1150.8,1170.7 1167.1,1184.3 1183.8,1197.3 1200.6,1209.7 1217.7,1221.3 1234.9,1232.2 1252.2,1242.2 1269.6,1251.3 1287.0,1259.3 1304.4,1266.3 1321.7,1272.3 1339.0,1277.1 1356.1,1280.7 1373.1,1283.1 1389.9,1284.4 1406.5,1284.3 1422.8,1283.1 1438.9,1280.5 1454.7,1276.7 1470.2,1271.7 1485.4,1265.4 1500.2,1257.9 1514.6,1249.2 1528.6,1239.3 1542.2,1228.3 1555.4,1216.2 1568.2,1203.0 1580.5,1188.8 1592.3,1173.8 1603.7,1157.8 1614.6,1141.0 1625.0,1123.5 1634.9,1105.4 1644.3,1086.7 1653.2,1067.6 1661.6,1048.1 1669.6,1028.3 1677.0,1008.4  Z" style="stroke-width: 0.5;  stroke: rgb(0,0,0); fill: rgb(179,177,178);" />
<path d="M 1805.282,1924.039 A 522.500,522.500 0.00 0,1 1768.7,1948.1 L 1768.7,1948.1 1758.0,1930.5 1746.9,1913.2 1735.5,1896.3 1724.0,1879.8 1712.2,1864.0 1700.3,1848.8 1688.2,1834.5 1676.0,1821.1 1663.8,1808.6 1651.5,1797.3 1639.2,1787.0 1627.0,1777.9 1614.8,1770.0 1602.6,1763.5 1590.6,1758.2 1578.6,1754.3 1566.9,1751.8 1555.2,1750.7 1543.8,1751.0 1532.6,1752.7 1521.6,1755.8 1510.8,1760.3 1500.3,1766.2 1490.1,1773.4 1480.1,1782.0 1470.5,1791.9 1461.1,1803.0 1452.1,1815.4 1443.4,1828.8 1435.1,1843.3 1427.1,1858.8 1419.5,1875.3 1412.2,1892.5 1405.3,1910.5 1398.7,1929.1 1392.6,1948.3 1386.7,1967.8 1381.3,1987.7 1376.2,2007.6  A 522.500,522.500 0.00 0,1 1333.7,1995.3 L 1333.7,1995.3 1340.6,1975.6 1347.8,1956.1 1355.5,1936.8 1363.6,1918.0 1372.2,1899.6 1381.1,1881.9 1390.4,1864.9 1400.2,1848.7 1410.3,1833.4 1420.8,1819.0 1431.6,1805.7 1442.8,1793.4 1454.3,1782.3 1466.2,1772.4 1478.4,1763.8 1490.8,1756.4 1503.5,1750.4 1516.5,1745.6 1529.7,1742.2 1543.2,1740.2 1556.8,1739.5 1570.6,1740.2 1584.6,1742.2 1598.6,1745.6 1612.8,1750.3 1627.1,1756.2 1641.4,1763.4 1655.7,1771.8 1670.0,1781.3 1684.3,1791.9 1698.4,1803.6 1712.5,1816.2 1726.5,1829.7 1740.3,1844.0 1753.8,1859.0 1767.1,1874.6 1780.2,1890.7 1792.9,1907.2 1805.3,1924.0  Z" style="stroke-width: 0.5;  stroke: rgb(0,0,0); fill: rgb(179,177,178);" />
<path d="M 1807.073,1077.256 A 522.500,522.500 0.00 0,1 1840.2,1103.4 L 1840.2,1103.4 1825.0,1120.7 1809.3,1137.7 1793.1,1154.6 1776.4,1171.0 1759.3,1187.1 1741.6,1202.8 1723.4,1218.0 1704.9,1232.6 1685.8,1246.6 1666.4,1260.0 1646.5,1272.7 1626.3,1284.7 1605.7,1295.9 1584.7,1306.4 1563.4,1316.1 1541.8,1325.0 1519.9,1333.0 1497.7,1340.2 1475.3,1346.4 1452.6,1351.9 1429.8,1356.4 1406.7,1360.0 1383.6,1362.8 1360.3,1364.7 1336.9,1365.7 1313.5,1365.8 1290.0,1365.1 1266.5,1363.6 1243.0,1361.2 1219.6,1358.1 1196.3,1354.2 1173.1,1349.5 1150.1,1344.2 1127.3,1338.3 1104.7,1331.7 1082.3,1324.5 1060.3,1316.9 1038.6,1308.7 1017.2,1300.2  A 522.500,522.500 0.00 0,1 1035.2,1261.3 L 1035.2,1261.3 1055.4,1271.4 1075.9,1281.0 1096.9,1290.2 1118.1,1298.8 1139.6,1306.9 1161.4,1314.2 1183.3,1320.9 1205.4,1326.9 1227.6,1332.0 1249.9,1336.3 1272.3,1339.8 1294.7,1342.4 1317.0,1344.0 1339.3,1344.8 1361.6,1344.6 1383.7,1343.4 1405.7,1341.2 1427.5,1338.1 1449.1,1334.0 1470.5,1328.9 1491.7,1322.8 1512.5,1315.7 1533.1,1307.7 1553.4,1298.8 1573.3,1289.0 1592.9,1278.3 1612.1,1266.7 1630.9,1254.3 1649.3,1241.1 1667.3,1227.2 1684.8,1212.6 1701.8,1197.3 1718.4,1181.4 1734.4,1165.0 1750.0,1148.1 1765.1,1130.9 1779.6,1113.2 1793.6,1095.3 1807.1,1077.3  Z" style="stroke-width: 0.5;  stroke: rgb(0,0,0); fill: rgb(179,177,178);" />
<path d="M 1850.732,1887.290 A 522.500,522.500 0.00 0,1 1819.5,1913.5 L 1819.5,1913.5 1806.4,1897.0 1793.1,1880.8 1779.3,1865.1 1765.3,1849.8 1751.0,1835.2 1736.5,1821.2 1721.8,1808.1 1706.9,1795.8 1691.9,1784.5 1676.9,1774.2 1661.7,1765.0 1646.6,1756.9 1631.4,1750.0 1616.3,1744.3 1601.3,1739.8 1586.3,1736.6 1571.4,1734.8 1556.7,1734.3 1542.2,1735.0 1527.8,1737.2 1513.6,1740.6 1499.7,1745.4 1486.0,1751.5 1472.6,1758.9 1459.5,1767.5 1446.7,1777.3 1434.2,1788.3 1422.0,1800.5 1410.2,1813.7 1398.8,1827.9 1387.7,1843.1 1377.1,1859.2 1366.8,1876.0 1356.9,1893.5 1347.5,1911.7 1338.5,1930.4 1329.9,1949.4 1321.8,1968.8 1314.1,1988.3  A 522.500,522.500 0.00 0,1 1277.1,1972.6 L 1277.1,1972.6 1286.4,1953.4 1296.2,1934.5 1306.4,1915.8 1317.2,1897.6 1328.4,1879.8 1340.0,1862.7 1352.0,1846.2 1364.5,1830.5 1377.4,1815.6 1390.7,1801.7 1404.4,1788.7 1418.4,1776.7 1432.8,1765.8 1447.5,1756.1 1462.5,1747.5 1477.8,1740.1 1493.3,1733.9 1509.2,1728.9 1525.2,1725.2 1541.4,1722.8 1557.8,1721.7 1574.4,1721.8 1591.1,1723.2 1607.9,1725.9 1624.8,1729.7 1641.7,1734.8 1658.6,1741.0 1675.5,1748.4 1692.3,1756.8 1709.1,1766.3 1725.8,1776.8 1742.3,1788.2 1758.6,1800.5 1774.7,1813.5 1790.6,1827.2 1806.2,1841.5 1821.4,1856.4 1836.3,1871.7 1850.7,1887.3  Z" style="stroke-width: 0.5;  stroke: rgb(0,0,0); fill: rgb(179,177,178);" />
<path d="M 1636.000,995.510 A 522.500,522.500 0.00 0,1 1672.8,1006.9 L 1672.8,1006.9 1665.6,1026.9 1657.8,1046.7 1649.6,1066.2 1640.8,1085.4 1631.6,1104.1 1621.9,1122.3 1611.7,1139.9 1601.0,1156.7 1589.8,1172.7 1578.1,1187.8 1566.0,1202.0 1553.4,1215.2 1540.4,1227.3 1526.9,1238.4 1513.1,1248.3 1498.8,1257.0 1484.2,1264.5 1469.2,1270.8 1453.9,1275.9 1438.2,1279.7 1422.3,1282.2 1406.1,1283.5 1389.6,1283.5 1372.9,1282.3 1356.1,1279.9 1339.1,1276.2 1321.9,1271.4 1304.7,1265.4 1287.4,1258.4 1270.1,1250.3 1252.8,1241.2 1235.6,1231.2 1218.5,1220.3 1201.5,1208.6 1184.7,1196.2 1168.1,1183.1 1151.9,1169.5 1135.9,1155.5 1120.3,1141.1  A 522.500,522.500 0.00 0,1 1148.0,1113.9 L 1148.0,1113.9 1162.3,1129.2 1176.9,1144.2 1191.8,1158.8 1207.0,1172.8 1222.4,1186.2 1237.9,1198.9 1253.6,1210.8 1269.3,1221.8 1285.0,1231.8 1300.8,1240.8 1316.4,1248.7 1332.1,1255.5 1347.6,1261.1 1362.9,1265.5 1378.1,1268.7 1393.1,1270.6 1407.8,1271.1 1422.3,1270.4 1436.5,1268.4 1450.4,1265.0 1463.9,1260.3 1477.1,1254.3 1489.9,1247.1 1502.4,1238.5 1514.4,1228.8 1526.1,1217.8 1537.3,1205.7 1548.1,1192.6 1558.4,1178.3 1568.2,1163.1 1577.6,1147.0 1586.6,1130.0 1595.0,1112.3 1603.0,1093.9 1610.6,1074.9 1617.6,1055.5 1624.2,1035.7 1630.3,1015.7 1636.0,995.5  Z" style="stroke-width: 0.5;  stroke: rgb(0,0,0); fill: rgb(179,177,178);" />
<path d="M 1849.522,1111.618 A 522.500,522.500 0.00 0,1 1875.8,1137.0 L 1875.8,1137.0 1858.8,1153.2 1841.2,1169.2 1823.1,1184.9 1804.6,1200.3 1785.7,1215.4 1766.3,1230.0 1746.4,1244.2 1726.2,1258.0 1705.5,1271.2 1684.5,1283.8 1663.1,1295.9 1641.4,1307.4 1619.3,1318.2 1596.9,1328.3 1574.2,1337.8 1551.2,1346.5 1528.0,1354.5 1504.5,1361.8 1480.8,1368.3 1457.0,1374.1 1432.9,1379.1 1408.7,1383.3 1384.4,1386.8 1359.9,1389.5 1335.4,1391.4 1310.9,1392.6 1286.3,1393.1 1261.7,1392.8 1237.2,1391.9 1212.7,1390.2 1188.3,1387.9 1164.0,1384.9 1139.9,1381.3 1115.9,1377.1 1092.2,1372.3 1068.7,1367.1 1045.4,1361.3 1022.5,1355.1 999.9,1348.5  A 522.500,522.500 0.00 0,1 1011.8,1313.7 L 1011.8,1313.7 1033.5,1321.7 1055.6,1329.3 1078.0,1336.5 1100.7,1343.1 1123.6,1349.2 1146.8,1354.6 1170.1,1359.5 1193.6,1363.6 1217.3,1367.1 1241.0,1369.8 1264.8,1371.7 1288.6,1372.9 1312.4,1373.2 1336.2,1372.8 1359.9,1371.5 1383.5,1369.4 1407.0,1366.4 1430.3,1362.5 1453.5,1357.8 1476.5,1352.3 1499.3,1345.9 1521.8,1338.7 1544.1,1330.6 1566.1,1321.7 1587.8,1312.1 1609.2,1301.6 1630.2,1290.5 1650.8,1278.6 1671.1,1266.0 1691.0,1252.8 1710.5,1238.9 1729.5,1224.5 1748.1,1209.6 1766.2,1194.1 1783.9,1178.3 1801.0,1162.0 1817.7,1145.5 1833.9,1128.6 1849.5,1111.6  Z" style="stroke-width: 0.5;  stroke: rgb(0,0,0); fill: rgb(179,177,178);" />
<path d="M 1500.000,977.500 A 522.500,522.500 0.00 0,1 1518.9,977.8 L 1518.9,977.8 1517.9,998.4 1516.6,1018.9 1514.9,1039.2 1512.7,1059.2 1510.0,1078.7 1506.9,1097.7 1503.3,1116.1 1499.1,1133.7 1494.5,1150.5 1489.3,1166.4 1483.5,1181.2 1477.2,1195.1 1470.3,1207.8 1462.9,1219.4 1455.0,1229.8 1446.5,1238.9 1437.4,1246.7 1427.9,1253.3 1417.8,1258.5 1407.2,1262.3 1396.1,1264.9 1384.6,1266.0 1372.7,1265.9 1360.3,1264.4 1347.5,1261.6 1334.4,1257.5 1320.9,1252.2 1307.2,1245.6 1293.2,1238.0 1279.0,1229.2 1264.6,1219.4 1250.1,1208.6 1235.5,1196.9 1220.8,1184.4 1206.2,1171.1 1191.7,1157.3 1177.3,1142.9 1163.0,1128.0 1149.1,1112.9  A 522.500,522.500 0.00 0,1 1175.5,1090.5 L 1175.5,1090.5 1188.3,1106.4 1201.4,1122.1 1214.6,1137.3 1228.0,1152.1 1241.4,1166.2 1254.8,1179.6 1268.1,1192.2 1281.3,1203.9 1294.4,1214.6 1307.4,1224.2 1320.1,1232.7 1332.5,1240.1 1344.7,1246.3 1356.5,1251.1 1367.9,1254.7 1379.0,1256.9 1389.7,1257.8 1399.9,1257.4 1409.7,1255.5 1419.0,1252.3 1427.8,1247.6 1436.1,1241.7 1443.9,1234.4 1451.2,1225.7 1457.9,1215.8 1464.2,1204.6 1469.9,1192.3 1475.0,1178.8 1479.7,1164.2 1483.8,1148.6 1487.5,1132.1 1490.6,1114.7 1493.2,1096.6 1495.4,1077.8 1497.1,1058.4 1498.4,1038.5 1499.3,1018.4 1499.8,998.0 1500.0,977.5  Z" style="stroke-width: 0.5;  stroke: rgb(0,0,0); fill: rgb(179,177,178);" />
<path d="M 2005.837,1630.903 A 522.500,522.500 0.00 0,1 1996.6,1662.6 L 1996.6,1662.6 1973.5,1655.2 1950.1,1648.2 1926.4,1641.5 1902.4,1635.2 1878.1,1629.4 1853.7,1623.9 1828.9,1619.0 1804.0,1614.5 1778.9,1610.5 1753.7,1607.1 1728.3,1604.2 1702.9,1601.9 1677.3,1600.2 1651.7,1599.0 1626.0,1598.5 1600.3,1598.6 1574.5,1599.3 1548.8,1600.6 1523.1,1602.5 1497.5,1605.1 1472.0,1608.2 1446.5,1612.0 1421.2,1616.4 1395.9,1621.4 1370.9,1627.0 1346.0,1633.2 1321.2,1639.9 1296.7,1647.2 1272.4,1655.0 1248.3,1663.4 1224.5,1672.2 1201.0,1681.5 1177.7,1691.2 1154.8,1701.4 1132.2,1711.9 1109.9,1722.8 1088.0,1734.1 1066.4,1745.6 1045.3,1757.3  A 522.500,522.500 0.00 0,1 1030.0,1728.3 L 1030.0,1728.3 1052.2,1717.7 1074.8,1707.4 1097.6,1697.3 1120.8,1687.5 1144.3,1678.0 1168.0,1668.8 1192.1,1660.0 1216.3,1651.6 1240.9,1643.6 1265.6,1636.0 1290.6,1628.9 1315.7,1622.2 1341.0,1616.0 1366.5,1610.3 1392.1,1605.1 1417.9,1600.4 1443.8,1596.2 1469.7,1592.6 1495.7,1589.4 1521.9,1586.8 1548.0,1584.8 1574.2,1583.2 1600.3,1582.2 1626.5,1581.7 1652.7,1581.8 1678.8,1582.3 1704.8,1583.4 1730.8,1585.0 1756.7,1587.0 1782.4,1589.5 1808.0,1592.5 1833.5,1596.0 1858.8,1599.8 1883.9,1604.1 1908.8,1608.8 1933.4,1613.8 1957.8,1619.2 1982.0,1624.9 2005.8,1630.9  Z" style="stroke-width: 0.5;  stroke: rgb(0,0,0); fill: rgb(179,177,178);" />
<path d="M 1769.732,1052.506 A 522.500,522.500 0.00 0,1 1795.5,1069.1 L 1795.5,1069.1 1782.6,1087.4 1769.2,1105.6 1755.2,1123.4 1740.7,1141.0 1725.7,1158.1 1710.2,1174.7 1694.2,1190.8 1677.6,1206.3 1660.7,1221.1 1643.2,1235.2 1625.4,1248.5 1607.1,1261.0 1588.4,1272.7 1569.3,1283.5 1549.9,1293.4 1530.1,1302.3 1510.0,1310.3 1489.5,1317.3 1468.8,1323.3 1447.9,1328.4 1426.7,1332.4 1405.3,1335.3 1383.8,1337.3 1362.1,1338.3 1340.3,1338.3 1318.4,1337.3 1296.4,1335.3 1274.4,1332.4 1252.5,1328.6 1230.5,1323.9 1208.7,1318.4 1187.0,1312.0 1165.4,1304.9 1144.1,1297.1 1122.9,1288.7 1102.1,1279.6 1081.5,1270.0 1061.3,1259.9 1041.5,1249.3  A 522.500,522.500 0.00 0,1 1057.0,1223.0 L 1057.0,1223.0 1075.9,1234.5 1095.2,1245.6 1114.8,1256.2 1134.8,1266.2 1155.0,1275.7 1175.5,1284.4 1196.2,1292.5 1217.0,1299.7 1237.9,1306.1 1258.9,1311.6 1279.9,1316.2 1301.0,1319.8 1322.0,1322.4 1342.9,1324.0 1363.8,1324.6 1384.5,1324.1 1405.0,1322.6 1425.4,1320.0 1445.5,1316.3 1465.4,1311.5 1485.1,1305.7 1504.4,1298.8 1523.4,1290.9 1542.1,1281.9 1560.5,1272.0 1578.4,1261.1 1595.9,1249.2 1613.1,1236.5 1629.7,1222.9 1646.0,1208.5 1661.8,1193.3 1677.0,1177.5 1691.8,1160.9 1706.1,1143.9 1719.9,1126.3 1733.2,1108.3 1745.9,1089.9 1758.1,1071.3 1769.7,1052.5  Z" style="stroke-width: 0.5;  stroke: rgb(0,0,0); fill: rgb(179,177,178);" />
<path d="M 2021.957,1476.180 A 522.500,522.500 0.00 0,1 2022.5,1506.0 L 2022.5,1506.0 1996.3,1505.8 1970.1,1505.6 1943.8,1505.6 1917.4,1505.7 1891.0,1506.0 1864.5,1506.4 1837.9,1506.9 1811.2,1507.6 1784.5,1508.4 1757.8,1509.4 1731.0,1510.5 1704.2,1511.8 1677.3,1513.3 1650.5,1514.9 1623.6,1516.6 1596.7,1518.6 1569.8,1520.7 1542.9,1523.0 1516.0,1525.4 1489.1,1528.0 1462.3,1530.8 1435.5,1533.7 1408.7,1536.8 1381.9,1540.0 1355.2,1543.5 1328.5,1547.0 1301.9,1550.8 1275.3,1554.7 1248.8,1558.7 1222.4,1562.9 1196.0,1567.2 1169.7,1571.6 1143.5,1576.2 1117.4,1580.9 1091.4,1585.8 1065.5,1590.7 1039.7,1595.8 1014.0,1600.9 988.4,1606.2  A 522.500,522.500 0.00 0,1 983.2,1576.7 L 983.2,1576.7 1009.4,1572.9 1035.6,1569.1 1061.9,1565.3 1088.3,1561.6 1114.7,1557.9 1141.1,1554.3 1167.6,1550.8 1194.1,1547.3 1220.7,1543.9 1247.3,1540.6 1273.9,1537.3 1300.6,1534.1 1327.3,1531.0 1354.0,1527.9 1380.7,1524.9 1407.5,1522.0 1434.2,1519.2 1461.0,1516.5 1487.8,1513.8 1514.6,1511.2 1541.4,1508.7 1568.2,1506.2 1595.1,1503.9 1621.9,1501.6 1648.7,1499.4 1675.5,1497.3 1702.3,1495.2 1729.0,1493.3 1755.8,1491.4 1782.6,1489.5 1809.3,1487.8 1836.0,1486.1 1862.7,1484.5 1889.3,1482.9 1915.9,1481.5 1942.5,1480.1 1969.0,1478.7 1995.5,1477.4 2022.0,1476.2  Z" style="stroke-width: 0.5;  stroke: rgb(0,0,0); fill: rgb(179,177,178);" />
<path d="M 1997.255,1339.550 A 522.500,522.500 0.00 0,1 2003.8,1361.6 L 2003.8,1361.6 1978.4,1368.6 1952.9,1375.5 1927.3,1382.3 1901.7,1389.0 1875.9,1395.7 1850.1,1402.4 1824.3,1408.9 1798.3,1415.4 1772.3,1421.7 1746.3,1428.0 1720.2,1434.2 1694.0,1440.3 1667.8,1446.4 1641.6,1452.3 1615.3,1458.1 1589.0,1463.8 1562.6,1469.4 1536.2,1474.9 1509.8,1480.3 1483.4,1485.6 1456.9,1490.8 1430.4,1495.9 1404.0,1500.9 1377.5,1505.8 1351.0,1510.5 1324.5,1515.2 1298.0,1519.7 1271.5,1524.2 1245.0,1528.5 1218.5,1532.7 1192.1,1536.9 1165.7,1540.9 1139.3,1544.8 1112.9,1548.7 1086.6,1552.4 1060.3,1556.1 1034.1,1559.6 1007.9,1563.1 981.7,1566.5  A 522.500,522.500 0.00 0,1 979.3,1543.4 L 979.3,1543.4 1005.3,1541.2 1031.4,1538.8 1057.5,1536.3 1083.7,1533.7 1110.0,1530.9 1136.4,1528.0 1162.8,1524.9 1189.2,1521.6 1215.7,1518.2 1242.2,1514.6 1268.8,1510.9 1295.3,1507.0 1321.9,1502.9 1348.5,1498.7 1375.0,1494.2 1401.6,1489.6 1428.1,1484.9 1454.7,1479.9 1481.2,1474.8 1507.7,1469.5 1534.1,1464.0 1560.5,1458.4 1586.8,1452.5 1613.1,1446.6 1639.3,1440.4 1665.5,1434.1 1691.6,1427.6 1717.6,1421.0 1743.5,1414.3 1769.4,1407.4 1795.1,1400.3 1820.8,1393.1 1846.4,1385.8 1871.8,1378.4 1897.1,1370.8 1922.4,1363.1 1947.4,1355.4 1972.4,1347.5 1997.3,1339.6  Z" style="stroke-width: 0.5;  stroke: rgb(0,0,0); fill: rgb(179,177,178);" />
<path d="M 1986.733,1310.007 A 522.500,522.500 0.00 0,1 1994.2,1330.3 L 1994.2,1330.3 1969.6,1338.7 1944.8,1346.9 1920.0,1355.1 1894.9,1363.2 1869.8,1371.1 1844.5,1378.9 1819.1,1386.5 1793.6,1394.0 1767.9,1401.4 1742.2,1408.6 1716.4,1415.6 1690.4,1422.5 1664.4,1429.2 1638.3,1435.7 1612.1,1442.0 1585.9,1448.1 1559.6,1454.1 1533.2,1459.8 1506.8,1465.4 1480.3,1470.7 1453.8,1475.9 1427.3,1480.8 1400.7,1485.6 1374.2,1490.1 1347.6,1494.5 1321.0,1498.7 1294.4,1502.6 1267.9,1506.4 1241.3,1510.0 1214.8,1513.3 1188.3,1516.5 1161.9,1519.5 1135.5,1522.4 1109.2,1525.0 1082.9,1527.5 1056.7,1529.8 1030.6,1532.0 1004.6,1533.9 978.7,1535.8  A 522.500,522.500 0.00 0,1 977.7,1514.1 L 977.7,1514.1 1003.4,1513.3 1029.2,1512.4 1055.2,1511.2 1081.2,1509.8 1107.4,1508.2 1133.7,1506.4 1160.0,1504.4 1186.4,1502.1 1212.8,1499.6 1239.3,1496.8 1265.9,1493.8 1292.4,1490.6 1319.0,1487.1 1345.6,1483.3 1372.1,1479.2 1398.7,1474.9 1425.3,1470.4 1451.8,1465.6 1478.3,1460.5 1504.7,1455.1 1531.0,1449.5 1557.4,1443.7 1583.6,1437.5 1609.7,1431.2 1635.8,1424.6 1661.8,1417.7 1687.6,1410.6 1713.3,1403.3 1739.0,1395.8 1764.4,1388.0 1789.8,1380.0 1815.0,1371.9 1840.0,1363.5 1864.9,1355.0 1889.6,1346.3 1914.2,1337.4 1938.6,1328.4 1962.7,1319.3 1986.7,1310.0  Z" style="stroke-width: 0.5;  stroke: rgb(0,0,0); fill: rgb(179,177,178);" />
<path d="M 1540.132,979.043 A 522.500,522.500 0.00 0,1 1560.5,981.0 L 1560.5,981.0 1558.0,1001.4 1555.1,1021.6 1551.8,1041.6 1548.2,1061.2 1544.2,1080.3 1539.7,1098.8 1534.9,1116.6 1529.7,1133.5 1524.0,1149.6 1518.0,1164.7 1511.5,1178.8 1504.6,1191.7 1497.3,1203.5 1489.6,1214.0 1481.4,1223.2 1472.9,1231.1 1464.1,1237.7 1454.8,1242.9 1445.2,1246.6 1435.2,1249.0 1424.9,1249.9 1414.3,1249.5 1403.5,1247.6 1392.3,1244.4 1380.9,1239.8 1369.3,1233.8 1357.5,1226.6 1345.5,1218.2 1333.4,1208.5 1321.2,1197.7 1308.9,1185.9 1296.6,1173.1 1284.3,1159.3 1272.1,1144.8 1259.9,1129.5 1247.9,1113.7 1236.0,1097.3 1224.3,1080.5 1212.9,1063.5  A 522.500,522.500 0.00 0,1 1230.7,1052.2 L 1230.7,1052.2 1241.4,1069.7 1252.2,1086.8 1263.3,1103.6 1274.5,1119.9 1285.8,1135.6 1297.2,1150.6 1308.6,1164.7 1320.0,1177.9 1331.3,1190.2 1342.5,1201.4 1353.7,1211.4 1364.6,1220.3 1375.4,1227.9 1386.0,1234.2 1396.3,1239.1 1406.4,1242.7 1416.3,1244.9 1425.8,1245.7 1435.0,1245.0 1443.9,1242.9 1452.4,1239.4 1460.6,1234.4 1468.4,1228.1 1475.8,1220.3 1482.8,1211.3 1489.5,1200.9 1495.7,1189.3 1501.5,1176.4 1507.0,1162.5 1512.0,1147.4 1516.6,1131.4 1520.9,1114.5 1524.7,1096.7 1528.2,1078.3 1531.3,1059.2 1534.0,1039.6 1536.4,1019.6 1538.4,999.4 1540.1,979.0  Z" style="stroke-width: 0.5;  stroke: rgb(0,0,0); fill: rgb(179,177,178);" />
<path d="M 1865.251,1873.628 A 522.500,522.500 0.00 0,1 1851.0,1887.0 L 1851.0,1887.0 1836.5,1871.4 1821.6,1856.2 1806.4,1841.3 1790.8,1827.0 1774.9,1813.3 1758.8,1800.2 1742.4,1788.0 1725.9,1776.6 1709.2,1766.1 1692.4,1756.6 1675.5,1748.2 1658.6,1740.8 1641.6,1734.6 1624.7,1729.5 1607.8,1725.6 1591.0,1723.0 1574.2,1721.6 1557.6,1721.5 1541.2,1722.6 1524.9,1725.0 1508.8,1728.7 1493.0,1733.6 1477.4,1739.8 1462.0,1747.2 1447.0,1755.8 1432.2,1765.5 1417.8,1776.4 1403.7,1788.3 1390.0,1801.3 1376.6,1815.2 1363.7,1830.1 1351.2,1845.8 1339.0,1862.2 1327.3,1879.3 1316.1,1897.1 1305.3,1915.3 1295.0,1933.9 1285.2,1952.8 1275.8,1972.0  A 522.500,522.500 0.00 0,1 1258.2,1963.2 L 1258.2,1963.2 1268.3,1944.3 1278.9,1925.6 1290.1,1907.2 1301.7,1889.2 1313.8,1871.7 1326.3,1854.8 1339.3,1838.6 1352.7,1823.1 1366.5,1808.5 1380.7,1794.7 1395.3,1781.9 1410.3,1770.1 1425.6,1759.3 1441.2,1749.6 1457.1,1741.0 1473.3,1733.7 1489.8,1727.5 1506.6,1722.5 1523.5,1718.7 1540.6,1716.2 1557.9,1714.9 1575.4,1714.8 1593.0,1716.0 1610.6,1718.4 1628.4,1722.0 1646.1,1726.8 1663.9,1732.7 1681.6,1739.7 1699.3,1747.7 1716.9,1756.8 1734.3,1766.9 1751.6,1777.8 1768.7,1789.6 1785.6,1802.2 1802.2,1815.4 1818.5,1829.3 1834.5,1843.7 1850.1,1858.5 1865.3,1873.6  Z" style="stroke-width: 0.5;  stroke: rgb(0,0,0); fill: rgb(179,177,178);" />
<path d="M 2010.094,1613.183 A 522.500,522.500 0.00 0,1 2005.9,1630.7 L 2005.9,1630.7 1982.0,1624.7 1957.9,1619.0 1933.5,1613.6 1908.8,1608.6 1883.9,1603.9 1858.8,1599.7 1833.5,1595.8 1808.0,1592.3 1782.4,1589.3 1756.6,1586.8 1730.7,1584.7 1704.8,1583.2 1678.7,1582.1 1652.6,1581.5 1626.4,1581.4 1600.2,1581.9 1574.0,1582.9 1547.9,1584.4 1521.7,1586.5 1495.6,1589.0 1469.5,1592.1 1443.6,1595.8 1417.7,1599.9 1391.9,1604.6 1366.3,1609.7 1340.8,1615.4 1315.4,1621.5 1290.2,1628.2 1265.3,1635.2 1240.5,1642.7 1216.0,1650.7 1191.6,1659.0 1167.6,1667.8 1143.8,1676.9 1120.3,1686.3 1097.1,1696.1 1074.2,1706.1 1051.6,1716.4 1029.4,1727.0  A 522.500,522.500 0.00 0,1 1021.8,1710.5 L 1021.8,1710.5 1044.6,1700.6 1067.6,1691.0 1091.0,1681.6 1114.7,1672.5 1138.6,1663.6 1162.9,1655.1 1187.3,1646.9 1212.0,1639.1 1236.9,1631.6 1262.0,1624.6 1287.3,1617.9 1312.7,1611.6 1338.4,1605.8 1364.1,1600.4 1390.0,1595.5 1416.0,1591.0 1442.1,1587.0 1468.4,1583.4 1494.6,1580.4 1520.9,1577.8 1547.3,1575.7 1573.7,1574.0 1600.1,1572.9 1626.5,1572.2 1652.9,1572.0 1679.2,1572.2 1705.4,1573.0 1731.6,1574.1 1757.7,1575.7 1783.7,1577.8 1809.6,1580.3 1835.4,1583.1 1860.9,1586.4 1886.3,1590.0 1911.5,1594.0 1936.5,1598.4 1961.3,1603.0 1985.8,1608.0 2010.1,1613.2  Z" style="stroke-width: 0.5;  stroke: rgb(0,0,0); fill: rgb(179,177,178);" />
<path d="M 1996.434,1662.971 A 522.500,522.500 0.00 0,1 1990.5,1680.0 L 1990.5,1680.0 1967.9,1671.9 1945.0,1664.2 1921.7,1656.8 1898.1,1649.9 1874.3,1643.3 1850.2,1637.3 1825.8,1631.7 1801.3,1626.7 1776.5,1622.2 1751.6,1618.3 1726.6,1615.0 1701.4,1612.3 1676.2,1610.2 1650.9,1608.8 1625.5,1608.0 1600.1,1607.8 1574.7,1608.4 1549.3,1609.6 1524.0,1611.4 1498.7,1614.0 1473.5,1617.2 1448.4,1621.1 1423.4,1625.6 1398.5,1630.8 1373.8,1636.6 1349.3,1643.1 1325.0,1650.2 1300.9,1657.8 1277.0,1666.1 1253.4,1674.9 1230.0,1684.2 1207.0,1694.0 1184.2,1704.3 1161.8,1715.0 1139.7,1726.2 1118.0,1737.7 1096.7,1749.6 1075.7,1761.7 1055.2,1774.1  A 522.500,522.500 0.00 0,1 1045.9,1758.5 L 1045.9,1758.5 1067.1,1746.7 1088.6,1735.2 1110.5,1723.9 1132.7,1713.0 1155.3,1702.4 1178.2,1692.2 1201.4,1682.4 1224.9,1673.0 1248.7,1664.2 1272.8,1655.8 1297.0,1647.9 1321.5,1640.6 1346.2,1633.8 1371.1,1627.6 1396.2,1622.0 1421.4,1616.9 1446.7,1612.5 1472.1,1608.7 1497.7,1605.5 1523.3,1602.9 1548.9,1601.0 1574.6,1599.6 1600.3,1598.9 1626.0,1598.9 1651.7,1599.4 1677.3,1600.5 1702.9,1602.2 1728.4,1604.5 1753.7,1607.4 1778.9,1610.8 1804.0,1614.8 1828.9,1619.3 1853.6,1624.3 1878.1,1629.7 1902.3,1635.6 1926.3,1641.9 1950.0,1648.6 1973.4,1655.6 1996.4,1663.0  Z" style="stroke-width: 0.5;  stroke: rgb(0,0,0); fill: rgb(179,177,178);" />
<path d="M 1753.945,1043.362 A 522.500,522.500 0.00 0,1 1768.5,1051.8 L 1768.5,1051.8 1757.0,1070.6 1744.8,1089.3 1732.2,1107.6 1719.0,1125.7 1705.2,1143.3 1691.0,1160.4 1676.2,1176.9 1661.0,1192.8 1645.3,1207.9 1629.1,1222.4 1612.5,1236.0 1595.4,1248.8 1577.9,1260.6 1560.0,1271.5 1541.7,1281.5 1523.1,1290.4 1504.1,1298.4 1484.8,1305.3 1465.3,1311.1 1445.4,1315.8 1425.3,1319.5 1405.0,1322.1 1384.5,1323.6 1363.8,1324.1 1343.0,1323.5 1322.1,1321.9 1301.1,1319.2 1280.1,1315.6 1259.1,1311.0 1238.2,1305.4 1217.3,1299.0 1196.5,1291.8 1175.9,1283.7 1155.4,1274.9 1135.2,1265.5 1115.3,1255.4 1095.7,1244.7 1076.4,1233.6 1057.6,1222.1  A 522.500,522.500 0.00 0,1 1066.8,1207.9 L 1066.8,1207.9 1085.1,1220.0 1103.9,1231.6 1123.0,1242.8 1142.4,1253.4 1162.1,1263.4 1182.0,1272.7 1202.1,1281.2 1222.4,1289.0 1242.7,1295.9 1263.1,1301.8 1283.6,1306.9 1304.0,1310.9 1324.4,1313.9 1344.8,1315.9 1365.0,1316.8 1385.1,1316.6 1405.0,1315.3 1424.7,1312.9 1444.2,1309.4 1463.4,1304.8 1482.4,1299.1 1501.1,1292.3 1519.4,1284.4 1537.4,1275.5 1555.0,1265.5 1572.2,1254.6 1589.1,1242.6 1605.5,1229.8 1621.4,1216.0 1636.9,1201.5 1652.0,1186.1 1666.5,1170.0 1680.6,1153.3 1694.1,1136.0 1707.1,1118.2 1719.6,1099.9 1731.6,1081.3 1743.0,1062.4 1753.9,1043.4  Z" style="stroke-width: 0.5;  stroke: rgb(0,0,0); fill: rgb(179,177,178);" />
<path d="M 1731.462,1031.565 A 522.500,522.500 0.00 0,1 1744.5,1038.2 L 1744.5,1038.2 1734.0,1057.4 1723.0,1076.5 1711.5,1095.2 1699.4,1113.7 1686.8,1131.6 1673.7,1149.1 1660.1,1166.0 1645.9,1182.2 1631.3,1197.7 1616.2,1212.4 1600.7,1226.3 1584.7,1239.2 1568.3,1251.3 1551.5,1262.3 1534.2,1272.3 1516.6,1281.3 1498.6,1289.3 1480.4,1296.1 1461.7,1301.8 1442.9,1306.4 1423.7,1309.9 1404.3,1312.2 1384.7,1313.5 1364.9,1313.6 1345.0,1312.6 1325.0,1310.5 1304.9,1307.4 1284.7,1303.2 1264.5,1298.0 1244.4,1291.9 1224.3,1284.9 1204.3,1277.0 1184.4,1268.2 1164.8,1258.8 1145.3,1248.6 1126.1,1237.8 1107.2,1226.4 1088.7,1214.6 1070.6,1202.3  A 522.500,522.500 0.00 0,1 1079.2,1190.2 L 1079.2,1190.2 1096.9,1202.9 1114.9,1215.2 1133.4,1227.0 1152.1,1238.3 1171.1,1248.9 1190.3,1258.8 1209.6,1268.0 1229.1,1276.3 1248.7,1283.7 1268.4,1290.2 1288.1,1295.8 1307.7,1300.3 1327.3,1303.7 1346.8,1306.1 1366.2,1307.4 1385.4,1307.5 1404.5,1306.5 1423.3,1304.4 1441.9,1301.1 1460.2,1296.6 1478.3,1291.0 1496.0,1284.3 1513.3,1276.4 1530.4,1267.4 1547.0,1257.4 1563.2,1246.3 1579.1,1234.3 1594.4,1221.2 1609.4,1207.3 1623.8,1192.5 1637.8,1176.9 1651.3,1160.5 1664.3,1143.5 1676.8,1125.8 1688.8,1107.7 1700.3,1089.1 1711.2,1070.1 1721.6,1050.9 1731.5,1031.6  Z" style="stroke-width: 0.5;  stroke: rgb(0,0,0); fill: rgb(179,177,178);" />
<path d="M 1840.164,1103.396 A 522.500,522.500 0.00 0,1 1849.8,1111.9 L 1849.8,1111.9 1834.1,1128.9 1818.0,1145.7 1801.3,1162.2 1784.1,1178.5 1766.4,1194.3 1748.3,1209.7 1729.7,1224.6 1710.6,1239.0 1691.2,1252.9 1671.3,1266.1 1651.0,1278.6 1630.3,1290.5 1609.3,1301.7 1588.0,1312.1 1566.3,1321.7 1544.3,1330.6 1522.0,1338.6 1499.4,1345.8 1476.7,1352.2 1453.7,1357.7 1430.5,1362.4 1407.1,1366.2 1383.6,1369.2 1360.0,1371.3 1336.3,1372.5 1312.5,1373.0 1288.7,1372.6 1264.9,1371.4 1241.2,1369.4 1217.4,1366.7 1193.8,1363.2 1170.3,1359.0 1147.0,1354.2 1123.8,1348.7 1100.9,1342.6 1078.2,1335.9 1055.8,1328.8 1033.8,1321.1 1012.1,1313.1  A 522.500,522.500 0.00 0,1 1016.8,1301.2 L 1016.8,1301.2 1038.2,1309.7 1059.9,1317.8 1082.0,1325.4 1104.3,1332.5 1127.0,1339.1 1149.8,1345.0 1172.9,1350.3 1196.1,1354.8 1219.4,1358.7 1242.8,1361.8 1266.3,1364.1 1289.8,1365.6 1313.3,1366.3 1336.7,1366.1 1360.1,1365.1 1383.4,1363.2 1406.6,1360.4 1429.6,1356.7 1452.5,1352.1 1475.2,1346.7 1497.6,1340.4 1519.8,1333.2 1541.7,1325.2 1563.3,1316.3 1584.6,1306.6 1605.6,1296.1 1626.2,1284.8 1646.5,1272.8 1666.4,1260.1 1685.8,1246.7 1704.8,1232.6 1723.4,1218.0 1741.6,1202.8 1759.2,1187.2 1776.4,1171.1 1793.1,1154.6 1809.3,1137.8 1825.0,1120.7 1840.2,1103.4  Z" style="stroke-width: 0.5;  stroke: rgb(0,0,0); fill: rgb(179,177,178);" />
<path d="M 1819.359,1913.541 A 522.500,522.500 0.00 0,1 1810.8,1920.0 L 1810.8,1920.0 1798.2,1903.3 1785.2,1886.9 1771.9,1870.9 1758.3,1855.5 1744.5,1840.6 1730.5,1826.5 1716.2,1813.1 1701.8,1800.7 1687.4,1789.1 1672.8,1778.7 1658.2,1769.2 1643.6,1761.0 1629.0,1753.9 1614.4,1748.1 1599.9,1743.5 1585.5,1740.2 1571.3,1738.3 1557.1,1737.7 1543.2,1738.4 1529.4,1740.5 1515.9,1743.9 1502.6,1748.7 1489.5,1754.8 1476.8,1762.2 1464.3,1770.8 1452.1,1780.7 1440.2,1791.8 1428.7,1804.0 1417.6,1817.4 1406.8,1831.7 1396.4,1847.0 1386.3,1863.2 1376.7,1880.1 1367.5,1897.8 1358.6,1916.1 1350.3,1934.9 1342.3,1954.1 1334.7,1973.6 1327.6,1993.3  A 522.500,522.500 0.00 0,1 1317.6,1989.6 L 1317.6,1989.6 1325.1,1970.0 1333.1,1950.6 1341.5,1931.5 1350.4,1912.8 1359.6,1894.6 1369.4,1877.0 1379.5,1860.1 1390.0,1844.0 1400.9,1828.8 1412.2,1814.5 1423.9,1801.3 1435.9,1789.1 1448.3,1778.0 1461.0,1768.1 1474.0,1759.5 1487.3,1752.0 1500.8,1745.9 1514.7,1741.1 1528.7,1737.6 1543.0,1735.4 1557.5,1734.6 1572.1,1735.1 1586.9,1736.9 1601.8,1740.1 1616.7,1744.5 1631.8,1750.2 1646.9,1757.1 1662.0,1765.2 1677.1,1774.4 1692.1,1784.7 1707.0,1796.0 1721.8,1808.2 1736.5,1821.4 1751.0,1835.3 1765.3,1849.9 1779.3,1865.2 1793.0,1880.9 1806.4,1897.1 1819.4,1913.5  Z" style="stroke-width: 0.5;  stroke: rgb(0,0,0); fill: rgb(179,177,178);" />
<path d="M 1872.809,1866.087 A 522.500,522.500 0.00 0,1 1865.6,1873.3 L 1865.6,1873.3 1850.4,1858.2 1834.8,1843.4 1818.8,1829.0 1802.4,1815.1 1785.8,1801.9 1768.9,1789.3 1751.7,1777.5 1734.4,1766.6 1716.9,1756.5 1699.3,1747.4 1681.6,1739.3 1663.8,1732.3 1646.0,1726.4 1628.1,1721.6 1610.4,1718.0 1592.6,1715.6 1575.0,1714.4 1557.5,1714.5 1540.1,1715.7 1522.9,1718.2 1505.8,1721.9 1489.0,1726.9 1472.5,1733.1 1456.2,1740.4 1440.1,1748.9 1424.4,1758.6 1409.0,1769.3 1393.9,1781.1 1379.2,1793.9 1364.9,1807.6 1351.0,1822.2 1337.5,1837.6 1324.4,1853.8 1311.8,1870.6 1299.6,1888.1 1287.9,1906.0 1276.6,1924.3 1265.9,1943.0 1255.6,1961.8  A 522.500,522.500 0.00 0,1 1246.5,1956.9 L 1246.5,1956.9 1257.1,1938.2 1268.3,1919.7 1280.0,1901.5 1292.1,1883.7 1304.8,1866.4 1317.8,1849.7 1331.4,1833.6 1345.3,1818.3 1359.7,1803.8 1374.5,1790.2 1389.6,1777.5 1405.1,1765.8 1421.0,1755.1 1437.1,1745.5 1453.6,1737.0 1470.4,1729.7 1487.4,1723.5 1504.6,1718.5 1522.1,1714.8 1539.8,1712.2 1557.6,1710.9 1575.5,1710.7 1593.6,1711.8 1611.8,1714.1 1630.0,1717.6 1648.2,1722.2 1666.4,1727.9 1684.6,1734.7 1702.8,1742.6 1720.8,1751.5 1738.7,1761.3 1756.4,1772.0 1773.9,1783.6 1791.2,1795.9 1808.2,1808.9 1824.9,1822.5 1841.3,1836.6 1857.3,1851.2 1872.8,1866.1  Z" style="stroke-width: 0.5;  stroke: rgb(0,0,0); fill: rgb(179,177,178);" />
<path d="M 2003.977,1362.110 A 522.500,522.500 0.00 0,1 2006.4,1371.2 L 2006.4,1371.2 1980.7,1377.7 1955.0,1384.2 1929.2,1390.6 1903.4,1397.0 1877.5,1403.3 1851.5,1409.5 1825.5,1415.7 1799.5,1421.9 1773.4,1428.0 1747.3,1434.0 1721.1,1440.0 1694.9,1445.8 1668.7,1451.7 1642.4,1457.4 1616.2,1463.1 1589.8,1468.7 1563.5,1474.2 1537.1,1479.7 1510.7,1485.1 1484.3,1490.4 1457.9,1495.6 1431.5,1500.8 1405.1,1505.8 1378.6,1510.8 1352.2,1515.7 1325.7,1520.6 1299.3,1525.3 1272.8,1530.0 1246.4,1534.6 1220.0,1539.2 1193.6,1543.6 1167.2,1548.0 1140.8,1552.3 1114.5,1556.6 1088.1,1560.7 1061.8,1564.8 1035.6,1568.9 1009.4,1572.9 983.2,1576.8  A 522.500,522.500 0.00 0,1 981.9,1567.4 L 981.9,1567.4 1008.0,1564.0 1034.2,1560.5 1060.4,1556.9 1086.7,1553.2 1113.1,1549.4 1139.4,1545.5 1165.8,1541.5 1192.2,1537.5 1218.7,1533.3 1245.1,1529.0 1271.6,1524.7 1298.1,1520.2 1324.6,1515.6 1351.1,1510.9 1377.5,1506.2 1404.0,1501.3 1430.5,1496.3 1457.0,1491.2 1483.4,1486.0 1509.9,1480.7 1536.3,1475.3 1562.7,1469.7 1589.0,1464.1 1615.3,1458.4 1641.6,1452.6 1667.9,1446.7 1694.1,1440.7 1720.2,1434.6 1746.3,1428.4 1772.4,1422.1 1798.4,1415.7 1824.3,1409.3 1850.2,1402.7 1876.0,1396.1 1901.7,1389.5 1927.4,1382.7 1953.0,1375.9 1978.5,1369.0 2004.0,1362.1  Z" style="stroke-width: 0.5;  stroke: rgb(0,0,0); fill: rgb(179,177,178);" />
<path d="M 1562.603,981.264 A 522.500,522.500 0.00 0,1 1571.1,982.4 L 1571.1,982.4 1568.1,1002.7 1564.8,1022.9 1561.0,1042.9 1556.9,1062.5 1552.4,1081.6 1547.5,1100.1 1542.1,1117.9 1536.4,1134.9 1530.2,1151.0 1523.6,1166.2 1516.5,1180.3 1509.1,1193.3 1501.2,1205.1 1492.9,1215.7 1484.2,1225.0 1475.2,1233.0 1465.7,1239.7 1455.8,1245.0 1445.6,1248.9 1435.1,1251.4 1424.2,1252.6 1413.1,1252.3 1401.6,1250.6 1389.9,1247.5 1377.9,1243.2 1365.7,1237.4 1353.4,1230.4 1340.9,1222.2 1328.2,1212.8 1315.5,1202.3 1302.7,1190.7 1289.9,1178.1 1277.1,1164.7 1264.3,1150.4 1251.6,1135.4 1239.1,1119.7 1226.8,1103.6 1214.7,1087.1 1202.8,1070.2  A 522.500,522.500 0.00 0,1 1209.9,1065.4 L 1209.9,1065.4 1221.4,1082.4 1233.2,1099.1 1245.3,1115.4 1257.4,1131.2 1269.8,1146.4 1282.2,1160.9 1294.6,1174.5 1307.0,1187.3 1319.5,1199.0 1331.8,1209.7 1344.1,1219.3 1356.2,1227.7 1368.1,1234.9 1379.9,1240.7 1391.4,1245.3 1402.7,1248.4 1413.8,1250.3 1424.5,1250.7 1434.9,1249.7 1445.0,1247.2 1454.8,1243.4 1464.2,1238.2 1473.2,1231.6 1481.8,1223.7 1490.1,1214.4 1497.9,1203.9 1505.4,1192.1 1512.4,1179.1 1519.0,1165.1 1525.2,1149.9 1531.0,1133.8 1536.3,1116.8 1541.2,1099.1 1545.8,1080.5 1549.9,1061.4 1553.6,1041.8 1557.0,1021.8 1560.0,1001.6 1562.6,981.3  Z" style="stroke-width: 0.5;  stroke: rgb(0,0,0); fill: rgb(179,177,178);" />
<path d="M 1929.562,1202.539 A 522.500,522.500 0.00 0,1 1934.2,1209.4 L 1934.2,1209.4 1913.7,1222.9 1892.8,1236.2 1871.6,1249.3 1850.0,1262.2 1828.0,1274.8 1805.8,1287.1 1783.2,1299.1 1760.3,1310.7 1737.1,1321.9 1713.6,1332.8 1689.9,1343.2 1665.9,1353.2 1641.7,1362.7 1617.2,1371.8 1592.5,1380.4 1567.7,1388.4 1542.6,1396.0 1517.4,1403.1 1492.1,1409.7 1466.6,1415.7 1441.0,1421.2 1415.3,1426.2 1389.5,1430.7 1363.6,1434.6 1337.7,1438.0 1311.8,1440.8 1285.9,1443.2 1259.9,1445.0 1234.0,1446.4 1208.2,1447.2 1182.4,1447.6 1156.8,1447.5 1131.2,1446.9 1105.8,1445.9 1080.5,1444.5 1055.5,1442.7 1030.6,1440.5 1005.9,1437.9 981.6,1435.0  A 522.500,522.500 0.00 0,1 982.6,1426.8 L 982.6,1426.8 1006.9,1430.1 1031.4,1433.0 1056.2,1435.5 1081.1,1437.7 1106.3,1439.4 1131.6,1440.7 1157.0,1441.6 1182.6,1442.0 1208.3,1441.9 1234.0,1441.3 1259.8,1440.2 1285.7,1438.5 1311.5,1436.4 1337.3,1433.6 1363.1,1430.4 1388.9,1426.6 1414.6,1422.2 1440.2,1417.3 1465.7,1411.9 1491.1,1405.8 1516.3,1399.3 1541.4,1392.2 1566.4,1384.5 1591.1,1376.4 1615.6,1367.7 1639.9,1358.6 1664.0,1348.9 1687.8,1338.8 1711.4,1328.2 1734.7,1317.2 1757.6,1305.8 1780.3,1294.0 1802.7,1281.8 1824.7,1269.2 1846.4,1256.4 1867.8,1243.3 1888.7,1229.9 1909.3,1216.3 1929.6,1202.5  Z" style="stroke-width: 0.5;  stroke: rgb(0,0,0); fill: rgb(179,177,178);" />
</g>
<g id="plot0">
<g id="plot0-axis">
</g>
<line x1='2243.5' y1='1598.8' x2='2243.5' y2='1598.8' style="stroke-width:14.0;stroke:rgb(0,0,0);stroke-linecap:round;fill:none;" />
<line x1='2243.5' y1='1598.8' x2='2283.1' y2='1604.1' style="stroke-width:14.0;stroke:rgb(0,0,0);stroke-linecap:round;fill:none;" />
<line x1='2283.1' y1='1604.1' x2='2283.1' y2='1604.1' style="stroke-width:14.0;stroke:rgb(0,0,0);stroke-linecap:round;fill:none;" />
<text x="2299.7" y="1629.0" font-size="46.8px" font-family="CMUBright-Roman" style="text-anchor:start;fill:rgb(255,38,78);" transform="rotate(7.6,2299.7,1629.0)" >HistocapWGSS11<tspan baseline-shift="-40%" font-size="90%">s</tspan>01457</text>
</g>
<defs>
<pattern id="checker" width="10" height="10" patternTransform="rotate(45 0 0)" patternUnits="userSpaceOnUse"><line x1="0" y1="0" x2="10" y2="0" style="stroke:black;stroke-width:2" /><line x1="0" y1="0" x2="0" y2="10" style="stroke:black;stroke-width:2" /></pattern>
<pattern id="hline" width="10" height="10" patternTransform="rotate(0 0 0)" patternUnits="userSpaceOnUse"><line x1="0" y1="0" x2="10" y2="0" style="stroke:black;stroke-width:5" /></pattern>
<pattern id="vline-sparse" width="10" height="10" patternTransform="rotate(0 0 0)" patternUnits="userSpaceOnUse"><line x1="0" y1="0" x2="0" y2="10" style="stroke:black;stroke-width:2" /></pattern>
<pattern id="vline" width="10" height="10" patternTransform="rotate(0 0 0)" patternUnits="userSpaceOnUse"><line x1="0" y1="0" x2="0" y2="10" style="stroke:black;stroke-width:5" /></pattern>
<pattern id="hline-sparse" width="10" height="10" patternTransform="rotate(0 0 0)" patternUnits="userSpaceOnUse"><line x1="0" y1="0" x2="10" y2="0" style="stroke:black;stroke-width:2" /></pattern>
<pattern id="checker" width="10" height="10" patternTransform="rotate(45 0 0)" patternUnits="userSpaceOnUse"><line x1="0" y1="0" x2="10" y2="0" style="stroke:black;stroke-width:5" /><line x1="0" y1="0" x2="0" y2="10" style="stroke:black;stroke-width:4" /></pattern>
</defs>
</svg>
