<?xml version="1.0" encoding="utf-8" standalone="no"?>
<!DOCTYPE svg PUBLIC "-//W3C//DTD SVG 1.1//EN" "http://www.w3.org/Graphics/SVG/1.1/DTD/svg11.dtd">
<svg width="3000px" height="3000px" version="1.1" xmlns="http://www.w3.org/2000/svg" xmlns:xlink="http://www.w3.org/1999/xlink">
<g id="bg">
<rect x="0" y="0" width="3000px" height="3000px" style="fill:rgb(255,255,255);"/>
</g>
<g id="ideograms">
<path d="M1500.000,950.000 A550.000,550.000 40.000 0,1 1711.892,2007.545 L1788.944,2192.107 A750.000,750.000 0.000 0,0 1500.000,750.000 Z" style="stroke-width:2.0;stroke:rgb(0,0,0);stroke-linecap:round;fill:rgb(179,177,178);" />
<text x="2456.0" y="1308.5" font-size="46.8px" font-family="CMUBright-Roman" style="text-anchor:middle;fill:rgb(0,0,0);" transform="rotate(438.7,2456.0,1308.5)" >HistosurSECH105<tspan baseline-shift="-40%" font-size="90%">4</tspan></text>
<line x1='1559.4' y1='752.4' x2='1560.3' y2='740.4' style="stroke-width:8.0;stroke:rgb(150,150,150);stroke-linecap:round;fill:none;" />
<line x1='1659.8' y1='767.2' x2='1662.3' y2='755.5' style="stroke-width:8.0;stroke:rgb(150,150,150);stroke-linecap:round;fill:none;" />
<line x1='1757.2' y1='795.5' x2='1761.3' y2='784.2' style="stroke-width:8.0;stroke:rgb(150,150,150);stroke-linecap:round;fill:none;" />
<line x1='1850.0' y1='836.7' x2='1855.6' y2='826.1' style="stroke-width:8.0;stroke:rgb(150,150,150);stroke-linecap:round;fill:none;" />
<line x1='1936.3' y1='890.0' x2='1943.3' y2='880.2' style="stroke-width:8.0;stroke:rgb(150,150,150);stroke-linecap:round;fill:none;" />
<text x="1961.6" y="878.7" font-size="41.6px" font-family="CMUBright-Roman" style="text-anchor:start;fill:rgb(150,150,150);" transform="rotate(305.6,1961.6,878.7)" >100 kb</text>
<line x1='2014.7' y1='954.5' x2='2022.9' y2='945.8' style="stroke-width:8.0;stroke:rgb(150,150,150);stroke-linecap:round;fill:none;" />
<line x1='2083.6' y1='1029.0' x2='2093.0' y2='1021.4' style="stroke-width:8.0;stroke:rgb(150,150,150);stroke-linecap:round;fill:none;" />
<line x1='2141.9' y1='1112.1' x2='2152.2' y2='1105.9' style="stroke-width:8.0;stroke:rgb(150,150,150);stroke-linecap:round;fill:none;" />
<line x1='2188.4' y1='1202.3' x2='2199.4' y2='1197.5' style="stroke-width:8.0;stroke:rgb(150,150,150);stroke-linecap:round;fill:none;" />
<line x1='2222.3' y1='1297.9' x2='2233.8' y2='1294.7' style="stroke-width:8.0;stroke:rgb(150,150,150);stroke-linecap:round;fill:none;" />
<text x="2249.0" y="1305.0" font-size="41.6px" font-family="CMUBright-Roman" style="text-anchor:start;fill:rgb(150,150,150);" transform="rotate(344.4,2249.0,1305.0)" >150 kb</text>
<line x1='2242.9' y1='1397.3' x2='2254.8' y2='1395.7' style="stroke-width:8.0;stroke:rgb(150,150,150);stroke-linecap:round;fill:none;" />
<line x1='2250.0' y1='1498.5' x2='2262.0' y2='1498.5' style="stroke-width:8.0;stroke:rgb(150,150,150);stroke-linecap:round;fill:none;" />
<line x1='2243.3' y1='1599.8' x2='2255.2' y2='1601.4' style="stroke-width:8.0;stroke:rgb(150,150,150);stroke-linecap:round;fill:none;" />
<line x1='2223.0' y1='1699.3' x2='2234.6' y2='1702.4' style="stroke-width:8.0;stroke:rgb(150,150,150);stroke-linecap:round;fill:none;" />
<line x1='2189.5' y1='1795.0' x2='2200.6' y2='1799.8' style="stroke-width:8.0;stroke:rgb(150,150,150);stroke-linecap:round;fill:none;" />
<text x="2206.0" y="1817.3" font-size="41.6px" font-family="CMUBright-Roman" style="text-anchor:start;fill:rgb(150,150,150);" transform="rotate(23.2,2206.0,1817.3)" >200 kb</text>
<line x1='2143.4' y1='1885.4' x2='2153.7' y2='1891.6' style="stroke-width:8.0;stroke:rgb(150,150,150);stroke-linecap:round;fill:none;" />
<line x1='2085.5' y1='1968.8' x2='2094.8' y2='1976.3' style="stroke-width:8.0;stroke:rgb(150,150,150);stroke-linecap:round;fill:none;" />
<line x1='2016.8' y1='2043.5' x2='2025.1' y2='2052.2' style="stroke-width:8.0;stroke:rgb(150,150,150);stroke-linecap:round;fill:none;" />
<line x1='1938.7' y1='2108.3' x2='1945.7' y2='2118.0' style="stroke-width:8.0;stroke:rgb(150,150,150);stroke-linecap:round;fill:none;" />
<line x1='1852.6' y1='2162.0' x2='1858.2' y2='2172.6' style="stroke-width:8.0;stroke:rgb(150,150,150);stroke-linecap:round;fill:none;" />
<text x="1851.4" y="2189.6" font-size="41.6px" font-family="CMUBright-Roman" style="text-anchor:start;fill:rgb(150,150,150);" transform="rotate(62.0,1851.4,2189.6)" >250 kb</text>
<g id="highlighttrack_0">
<path d="M2037.149,1381.802 A550.000,550.000 40.000 0,1 2041.223,1402.133 L2238.031,1366.544 A750.000,750.000 0.000 0,0 2232.476,1338.821 Z" style="stroke-width:14.0;stroke:rgb(0,0,0);stroke-linecap:round;fill:rgb(255,38,78);" />
</g>
<path d="M1500.000,950.000 A550.000,550.000 40.000 0,1 1711.892,2007.545 L1788.944,2192.107 A750.000,750.000 0.000 0,0 1500.000,750.000 Z" style="stroke-width:2.0;stroke:rgb(0,0,0);stroke-linecap:round;fill:none;" />
<path d="M1494.075,2049.968 A550.000,550.000 40.000 0,1 1282.653,994.767 L1203.617,811.046 A750.000,750.000 0.000 0,0 1491.921,2249.956 Z" style="stroke-width:2.0;stroke:rgb(0,0,0);stroke-linecap:round;fill:rgb(179,177,178);" />
<text x="500.9" y="1700.2" font-size="46.8px" font-family="CMUBright-Roman" style="text-anchor:middle;fill:rgb(0,0,0);" transform="rotate(78.7,500.9,1700.2)" >Histocap388p11<tspan baseline-shift="-40%" font-size="90%">4</tspan></text>
<line x1='1189.3' y1='817.4' x2='1184.3' y2='806.5' style="stroke-width:8.0;stroke:rgb(150,150,150);stroke-linecap:round;fill:none;" />
<line x1='1100.0' y1='865.6' x2='1093.6' y2='855.4' style="stroke-width:8.0;stroke:rgb(150,150,150);stroke-linecap:round;fill:none;" />
<line x1='1018.0' y1='925.4' x2='1010.3' y2='916.2' style="stroke-width:8.0;stroke:rgb(150,150,150);stroke-linecap:round;fill:none;" />
<line x1='944.8' y1='995.8' x2='935.9' y2='987.7' style="stroke-width:8.0;stroke:rgb(150,150,150);stroke-linecap:round;fill:none;" />
<text x="917.7" y="990.1" font-size="41.6px" font-family="CMUBright-Roman" style="text-anchor:end;fill:rgb(150,150,150);" transform="rotate(42.2,917.7,990.1)" >50 kb</text>
<line x1='881.8' y1='1075.3' x2='871.9' y2='1068.5' style="stroke-width:8.0;stroke:rgb(150,150,150);stroke-linecap:round;fill:none;" />
<line x1='830.1' y1='1162.7' x2='819.4' y2='1157.3' style="stroke-width:8.0;stroke:rgb(150,150,150);stroke-linecap:round;fill:none;" />
<line x1='790.7' y1='1256.2' x2='779.4' y2='1252.3' style="stroke-width:8.0;stroke:rgb(150,150,150);stroke-linecap:round;fill:none;" />
<line x1='764.3' y1='1354.2' x2='752.5' y2='1351.8' style="stroke-width:8.0;stroke:rgb(150,150,150);stroke-linecap:round;fill:none;" />
<line x1='751.4' y1='1454.8' x2='739.4' y2='1454.1' style="stroke-width:8.0;stroke:rgb(150,150,150);stroke-linecap:round;fill:none;" />
<text x="726.7" y="1467.4" font-size="41.6px" font-family="CMUBright-Roman" style="text-anchor:end;fill:rgb(150,150,150);" transform="rotate(3.5,726.7,1467.4)" >100 kb</text>
<line x1='752.1' y1='1556.3' x2='740.2' y2='1557.2' style="stroke-width:8.0;stroke:rgb(150,150,150);stroke-linecap:round;fill:none;" />
<line x1='766.6' y1='1656.8' x2='754.8' y2='1659.3' style="stroke-width:8.0;stroke:rgb(150,150,150);stroke-linecap:round;fill:none;" />
<line x1='794.4' y1='1754.4' x2='783.2' y2='1758.4' style="stroke-width:8.0;stroke:rgb(150,150,150);stroke-linecap:round;fill:none;" />
<line x1='835.2' y1='1847.3' x2='824.6' y2='1852.8' style="stroke-width:8.0;stroke:rgb(150,150,150);stroke-linecap:round;fill:none;" />
<line x1='888.2' y1='1933.9' x2='878.4' y2='1940.8' style="stroke-width:8.0;stroke:rgb(150,150,150);stroke-linecap:round;fill:none;" />
<text x="876.8" y="1959.1" font-size="41.6px" font-family="CMUBright-Roman" style="text-anchor:end;fill:rgb(150,150,150);" transform="rotate(-35.3,876.8,1959.1)" >150 kb</text>
<line x1='952.4' y1='2012.5' x2='943.6' y2='2020.7' style="stroke-width:8.0;stroke:rgb(150,150,150);stroke-linecap:round;fill:none;" />
<line x1='1026.6' y1='2081.7' x2='1019.0' y2='2091.0' style="stroke-width:8.0;stroke:rgb(150,150,150);stroke-linecap:round;fill:none;" />
<line x1='1109.5' y1='2140.3' x2='1103.2' y2='2150.5' style="stroke-width:8.0;stroke:rgb(150,150,150);stroke-linecap:round;fill:none;" />
<line x1='1199.5' y1='2187.2' x2='1194.7' y2='2198.2' style="stroke-width:8.0;stroke:rgb(150,150,150);stroke-linecap:round;fill:none;" />
<line x1='1295.0' y1='2221.4' x2='1291.7' y2='2233.0' style="stroke-width:8.0;stroke:rgb(150,150,150);stroke-linecap:round;fill:none;" />
<text x="1301.9" y="2248.2" font-size="41.6px" font-family="CMUBright-Roman" style="text-anchor:end;fill:rgb(150,150,150);" transform="rotate(-74.1,1301.9,2248.2)" >200 kb</text>
<line x1='1394.3' y1='2242.5' x2='1392.6' y2='2254.4' style="stroke-width:8.0;stroke:rgb(150,150,150);stroke-linecap:round;fill:none;" />
<path d="M1494.075,2049.968 A550.000,550.000 40.000 0,1 1282.653,994.767 L1203.617,811.046 A750.000,750.000 0.000 0,0 1491.921,2249.956 Z" style="stroke-width:2.0;stroke:rgb(0,0,0);stroke-linecap:round;fill:none;" />
</g>
<g id="track_0">
<path d="M 1950.735,1235.720 A 522.500,522.500 0.00 0,1 1995.1,1332.9 L 1995.1,1332.9 1970.4,1341.1 1945.6,1349.3 1920.6,1357.4 1895.5,1365.3 1870.3,1373.2 1845.0,1380.9 1819.5,1388.5 1794.0,1395.9 1768.3,1403.2 1742.5,1410.4 1716.7,1417.4 1690.7,1424.2 1664.7,1430.9 1638.6,1437.4 1612.4,1443.7 1586.1,1449.9 1559.8,1455.9 1533.5,1461.7 1507.1,1467.3 1480.6,1472.7 1454.1,1477.9 1427.6,1483.0 1401.1,1487.8 1374.5,1492.5 1348.0,1497.0 1321.4,1501.3 1294.9,1505.4 1268.3,1509.3 1241.8,1513.1 1215.3,1516.6 1188.8,1520.0 1162.4,1523.2 1136.0,1526.3 1109.7,1529.2 1083.4,1531.9 1057.2,1534.4 1031.1,1536.8 1005.1,1539.1 979.1,1541.2  A 522.500,522.500 0.00 0,1 981.4,1436.2 L 981.4,1436.2 1006.0,1439.1 1030.8,1441.6 1055.9,1443.9 1081.1,1445.7 1106.5,1447.2 1132.1,1448.4 1157.9,1449.1 1183.7,1449.4 1209.6,1449.3 1235.7,1448.7 1261.7,1447.7 1287.9,1446.2 1314.0,1444.3 1340.2,1441.8 1366.3,1438.9 1392.4,1435.5 1418.5,1431.7 1444.5,1427.3 1470.5,1422.4 1496.3,1417.1 1522.1,1411.3 1547.7,1404.9 1573.2,1398.2 1598.5,1390.9 1623.7,1383.2 1648.6,1375.1 1673.4,1366.5 1698.0,1357.5 1722.3,1348.1 1746.4,1338.3 1770.3,1328.1 1793.9,1317.6 1817.2,1306.7 1840.2,1295.5 1863.0,1284.0 1885.4,1272.3 1907.5,1260.3 1929.3,1248.1 1950.7,1235.7  Z" style="stroke-width: 0.5;  stroke: rgb(0,0,0); fill: rgb(179,177,178);" />
<path d="M 1891.409,1153.871 A 522.500,522.500 0.00 0,1 1948.5,1232.0 L 1948.5,1232.0 1927.2,1244.6 1905.6,1256.9 1883.6,1269.1 1861.3,1280.9 1838.7,1292.6 1815.7,1303.9 1792.5,1314.9 1769.0,1325.6 1745.2,1335.9 1721.2,1345.8 1696.9,1355.4 1672.4,1364.5 1647.7,1373.2 1622.8,1381.5 1597.7,1389.3 1572.5,1396.6 1547.1,1403.5 1521.5,1409.9 1495.8,1415.8 1470.0,1421.2 1444.1,1426.1 1418.1,1430.5 1392.1,1434.5 1366.0,1437.9 1339.9,1440.8 1313.8,1443.3 1287.6,1445.3 1261.5,1446.7 1235.5,1447.8 1209.5,1448.3 1183.6,1448.4 1157.8,1448.1 1132.1,1447.4 1106.5,1446.2 1081.1,1444.7 1055.9,1442.7 1030.9,1440.5 1006.1,1437.9 981.6,1434.9  A 522.500,522.500 0.00 0,1 1002.5,1340.5 L 1002.5,1340.5 1025.0,1347.5 1047.9,1354.1 1071.1,1360.2 1094.6,1365.9 1118.3,1371.1 1142.3,1375.8 1166.5,1379.9 1190.8,1383.3 1215.3,1386.2 1239.8,1388.4 1264.5,1389.9 1289.2,1390.7 1313.9,1390.9 1338.6,1390.3 1363.3,1388.9 1388.0,1386.9 1412.5,1384.0 1437.0,1380.4 1461.4,1376.1 1485.6,1371.0 1509.6,1365.2 1533.4,1358.6 1557.1,1351.4 1580.5,1343.4 1603.6,1334.6 1626.5,1325.3 1649.1,1315.2 1671.4,1304.5 1693.3,1293.2 1714.9,1281.3 1736.2,1268.9 1757.1,1255.9 1777.6,1242.4 1797.6,1228.5 1817.3,1214.2 1836.5,1199.6 1855.3,1184.6 1873.6,1169.3 1891.4,1153.9  Z" style="stroke-width: 0.5;  stroke: rgb(0,0,0); fill: rgb(179,177,178);" />
<path d="M 2022.013,1522.549 A 522.500,522.500 0.00 0,1 2009.1,1617.6 L 2009.1,1617.6 1985.5,1612.3 1961.5,1607.4 1937.3,1602.9 1912.9,1598.8 1888.2,1595.1 1863.3,1591.9 1838.3,1589.2 1813.1,1586.9 1787.8,1585.3 1762.3,1584.1 1736.8,1583.5 1711.2,1583.5 1685.6,1584.1 1660.0,1585.3 1634.4,1587.1 1608.8,1589.5 1583.3,1592.5 1557.8,1596.1 1532.4,1600.3 1507.1,1605.2 1482.0,1610.7 1457.0,1616.8 1432.2,1623.4 1407.5,1630.7 1383.1,1638.6 1358.8,1647.0 1334.8,1655.9 1311.1,1665.4 1287.6,1675.4 1264.4,1685.9 1241.5,1696.9 1218.9,1708.3 1196.7,1720.2 1174.8,1732.4 1153.2,1744.9 1132.1,1757.8 1111.3,1771.0 1090.9,1784.5 1070.9,1798.1  A 522.500,522.500 0.00 0,1 1023.9,1715.2 L 1023.9,1715.2 1047.0,1704.9 1070.4,1694.7 1094.0,1684.7 1117.9,1674.9 1142.0,1665.3 1166.3,1655.9 1190.8,1646.8 1215.6,1637.9 1240.5,1629.3 1265.6,1621.0 1290.9,1612.9 1316.3,1605.2 1341.9,1597.7 1367.6,1590.6 1393.4,1583.8 1419.4,1577.4 1445.5,1571.2 1471.7,1565.5 1497.9,1560.0 1524.3,1554.9 1550.7,1550.2 1577.1,1545.8 1603.6,1541.8 1630.1,1538.2 1656.6,1534.8 1683.1,1531.9 1709.7,1529.3 1736.1,1527.0 1762.6,1525.0 1789.0,1523.4 1815.3,1522.2 1841.6,1521.2 1867.8,1520.6 1893.8,1520.2 1919.7,1520.1 1945.6,1520.4 1971.2,1520.8 1996.7,1521.6 2022.0,1522.5  Z" style="stroke-width: 0.5;  stroke: rgb(0,0,0); fill: rgb(179,177,178);" />
<path d="M 1740.939,1036.368 A 522.500,522.500 0.00 0,1 1798.3,1071.0 L 1798.3,1071.0 1785.4,1089.1 1772.0,1106.9 1758.1,1124.5 1743.6,1141.7 1728.7,1158.4 1713.2,1174.6 1697.3,1190.2 1681.0,1205.2 1664.2,1219.4 1646.9,1232.9 1629.3,1245.5 1611.2,1257.3 1592.8,1268.2 1574.1,1278.1 1555.0,1287.1 1535.6,1295.0 1516.0,1302.0 1496.0,1307.8 1475.9,1312.7 1455.5,1316.5 1435.0,1319.1 1414.2,1320.8 1393.4,1321.3 1372.4,1320.8 1351.4,1319.3 1330.4,1316.7 1309.3,1313.2 1288.2,1308.6 1267.2,1303.1 1246.3,1296.7 1225.5,1289.4 1204.9,1281.3 1184.5,1272.4 1164.2,1262.8 1144.3,1252.5 1124.7,1241.7 1105.4,1230.3 1086.4,1218.4 1068.0,1206.1  A 522.500,522.500 0.00 0,1 1108.9,1153.5 L 1108.9,1153.5 1125.2,1167.6 1142.0,1181.4 1159.1,1194.7 1176.5,1207.5 1194.3,1219.6 1212.2,1231.1 1230.4,1241.8 1248.8,1251.6 1267.3,1260.6 1285.9,1268.6 1304.5,1275.6 1323.2,1281.6 1341.9,1286.5 1360.6,1290.3 1379.1,1292.9 1397.6,1294.4 1416.0,1294.7 1434.2,1293.8 1452.2,1291.7 1470.0,1288.4 1487.5,1283.9 1504.9,1278.2 1521.9,1271.3 1538.6,1263.4 1555.0,1254.2 1571.1,1244.0 1586.7,1232.8 1602.0,1220.5 1617.0,1207.2 1631.4,1193.1 1645.5,1178.1 1659.1,1162.3 1672.3,1145.8 1684.9,1128.7 1697.1,1111.0 1708.9,1092.8 1720.1,1074.2 1730.8,1055.4 1740.9,1036.4  Z" style="stroke-width: 0.5;  stroke: rgb(0,0,0); fill: rgb(179,177,178);" />
<path d="M 1868.323,1870.600 A 522.500,522.500 0.00 0,1 1821.1,1912.2 L 1821.1,1912.2 1808.1,1895.9 1794.7,1879.9 1781.1,1864.2 1767.2,1849.1 1753.0,1834.7 1738.7,1820.9 1724.3,1807.9 1709.7,1795.9 1695.1,1784.8 1680.4,1774.7 1665.7,1765.7 1651.1,1757.8 1636.5,1751.2 1622.0,1745.8 1607.7,1741.6 1593.4,1738.8 1579.4,1737.3 1565.6,1737.1 1551.9,1738.3 1538.5,1740.8 1525.4,1744.7 1512.6,1749.9 1500.1,1756.4 1487.9,1764.3 1476.0,1773.4 1464.5,1783.7 1453.3,1795.2 1442.6,1807.8 1432.2,1821.5 1422.2,1836.3 1412.6,1852.0 1403.5,1868.5 1394.7,1885.8 1386.4,1903.9 1378.5,1922.5 1371.1,1941.7 1364.1,1961.2 1357.5,1981.0 1351.4,2000.9  A 522.500,522.500 0.00 0,1 1292.3,1979.4 L 1292.3,1979.4 1301.0,1960.0 1310.2,1940.7 1319.9,1921.7 1330.0,1903.1 1340.7,1885.0 1351.8,1867.4 1363.4,1850.5 1375.4,1834.4 1387.9,1819.0 1400.8,1804.6 1414.1,1791.1 1427.8,1778.6 1441.9,1767.2 1456.4,1756.8 1471.2,1747.6 1486.4,1739.6 1501.9,1732.8 1517.6,1727.3 1533.7,1722.9 1550.0,1719.8 1566.5,1718.0 1583.2,1717.5 1600.1,1718.1 1617.2,1720.1 1634.3,1723.2 1651.6,1727.5 1668.9,1733.0 1686.2,1739.7 1703.5,1747.4 1720.8,1756.1 1738.0,1765.8 1755.1,1776.5 1772.1,1788.0 1788.8,1800.3 1805.3,1813.3 1821.6,1826.9 1837.5,1841.1 1853.1,1855.7 1868.3,1870.6  Z" style="stroke-width: 0.5;  stroke: rgb(0,0,0); fill: rgb(179,177,178);" />
<path d="M 1683.991,1010.967 A 522.500,522.500 0.00 0,1 1739.8,1035.8 L 1739.8,1035.8 1729.7,1054.8 1719.0,1073.7 1707.9,1092.3 1696.2,1110.5 1684.1,1128.2 1671.4,1145.4 1658.3,1161.9 1644.8,1177.7 1630.8,1192.7 1616.3,1206.9 1601.5,1220.1 1586.2,1232.4 1570.5,1243.7 1554.5,1253.9 1538.2,1263.1 1521.5,1271.1 1504.5,1278.0 1487.2,1283.6 1469.7,1288.2 1451.9,1291.5 1434.0,1293.6 1415.8,1294.5 1397.5,1294.2 1379.0,1292.7 1360.5,1290.1 1341.8,1286.3 1323.2,1281.5 1304.5,1275.5 1285.9,1268.5 1267.3,1260.5 1248.8,1251.5 1230.5,1241.7 1212.3,1231.0 1194.3,1219.5 1176.6,1207.4 1159.2,1194.6 1142.1,1181.3 1125.3,1167.5 1109.0,1153.4  A 522.500,522.500 0.00 0,1 1152.2,1110.1 L 1152.2,1110.1 1166.4,1125.7 1181.0,1141.0 1195.9,1155.8 1211.2,1170.1 1226.7,1183.8 1242.4,1196.8 1258.3,1209.0 1274.3,1220.3 1290.4,1230.7 1306.6,1240.1 1322.8,1248.4 1339.0,1255.6 1355.1,1261.6 1371.2,1266.4 1387.2,1270.0 1403.1,1272.4 1418.8,1273.5 1434.3,1273.3 1449.6,1271.7 1464.7,1268.9 1479.6,1264.8 1494.1,1259.4 1508.4,1252.8 1522.4,1244.8 1536.0,1235.7 1549.2,1225.4 1562.1,1213.9 1574.7,1201.4 1586.8,1187.8 1598.5,1173.2 1609.8,1157.8 1620.7,1141.4 1631.1,1124.3 1641.0,1106.6 1650.6,1088.2 1659.6,1069.4 1668.2,1050.2 1676.3,1030.6 1684.0,1011.0  Z" style="stroke-width: 0.5;  stroke: rgb(0,0,0); fill: rgb(179,177,178);" />
<path d="M 1626.709,993.097 A 522.500,522.500 0.00 0,1 1683.9,1010.9 L 1683.9,1010.9 1676.2,1030.6 1668.1,1050.1 1659.5,1069.3 1650.5,1088.2 1641.0,1106.5 1631.0,1124.3 1620.6,1141.3 1609.8,1157.6 1598.5,1173.1 1586.8,1187.7 1574.7,1201.2 1562.2,1213.8 1549.4,1225.2 1536.1,1235.5 1522.6,1244.6 1508.6,1252.5 1494.4,1259.1 1479.9,1264.5 1465.1,1268.5 1450.1,1271.3 1434.8,1272.8 1419.3,1272.9 1403.7,1271.8 1387.8,1269.4 1371.9,1265.8 1355.9,1260.9 1339.8,1254.8 1323.6,1247.5 1307.5,1239.2 1291.4,1229.7 1275.4,1219.3 1259.4,1207.9 1243.6,1195.7 1228.0,1182.6 1212.6,1168.9 1197.4,1154.5 1182.5,1139.6 1168.0,1124.3 1153.8,1108.6  A 522.500,522.500 0.00 0,1 1200.3,1072.0 L 1200.3,1072.0 1212.4,1088.8 1224.8,1105.4 1237.4,1121.6 1250.3,1137.3 1263.4,1152.3 1276.7,1166.6 1290.0,1180.2 1303.5,1192.8 1317.0,1204.5 1330.6,1215.1 1344.1,1224.6 1357.6,1232.9 1371.0,1240.1 1384.3,1245.9 1397.5,1250.5 1410.5,1253.7 1423.4,1255.6 1436.0,1256.1 1448.4,1255.2 1460.6,1253.0 1472.5,1249.4 1484.1,1244.4 1495.5,1238.0 1506.5,1230.3 1517.2,1221.3 1527.5,1211.1 1537.5,1199.7 1547.1,1187.0 1556.3,1173.3 1565.1,1158.6 1573.6,1142.8 1581.7,1126.2 1589.3,1108.8 1596.6,1090.7 1603.4,1071.9 1609.8,1052.7 1615.9,1033.1 1621.5,1013.2 1626.7,993.1  Z" style="stroke-width: 0.5;  stroke: rgb(0,0,0); fill: rgb(179,177,178);" />
<path d="M 1995.053,1332.880 A 522.500,522.500 0.00 0,1 2010.3,1387.7 L 2010.3,1387.7 1984.2,1393.4 1958.1,1399.2 1932.0,1404.9 1905.8,1410.6 1879.7,1416.3 1853.5,1421.9 1827.4,1427.6 1801.2,1433.2 1775.0,1438.8 1748.8,1444.4 1722.5,1450.0 1696.3,1455.6 1670.1,1461.2 1643.8,1466.7 1617.6,1472.2 1591.3,1477.7 1565.0,1483.2 1538.8,1488.6 1512.5,1494.1 1486.2,1499.5 1459.9,1504.9 1433.6,1510.2 1407.3,1515.6 1381.0,1520.9 1354.7,1526.2 1328.4,1531.5 1302.1,1536.8 1275.8,1542.0 1249.5,1547.3 1223.2,1552.5 1197.0,1557.7 1170.7,1562.8 1144.4,1568.0 1118.1,1573.1 1091.9,1578.2 1065.6,1583.3 1039.3,1588.4 1013.1,1593.5 986.9,1598.5  A 522.500,522.500 0.00 0,1 979.2,1542.3 L 979.2,1542.3 1005.2,1540.1 1031.2,1537.8 1057.3,1535.3 1083.5,1532.7 1109.8,1530.0 1136.1,1527.1 1162.5,1524.0 1188.9,1520.7 1215.4,1517.3 1241.9,1513.7 1268.4,1509.9 1294.9,1505.9 1321.5,1501.8 1348.0,1497.4 1374.6,1492.9 1401.1,1488.2 1427.7,1483.3 1454.2,1478.2 1480.6,1473.0 1507.1,1467.5 1533.5,1461.9 1559.8,1456.1 1586.1,1450.1 1612.4,1443.9 1638.6,1437.5 1664.7,1431.0 1690.7,1424.3 1716.6,1417.5 1742.5,1410.5 1768.3,1403.3 1793.9,1396.0 1819.5,1388.5 1844.9,1380.9 1870.3,1373.2 1895.5,1365.4 1920.6,1357.4 1945.5,1349.3 1970.4,1341.1 1995.1,1332.9  Z" style="stroke-width: 0.5;  stroke: rgb(0,0,0); fill: rgb(179,177,178);" />
<path d="M 1957.790,1751.863 A 522.500,522.500 0.00 0,1 1928.5,1798.9 L 1928.5,1798.9 1910.3,1786.5 1891.7,1774.5 1872.6,1763.0 1853.2,1752.0 1833.6,1741.6 1813.7,1731.9 1793.5,1722.9 1773.2,1714.7 1752.7,1707.3 1732.2,1700.9 1711.5,1695.4 1690.9,1690.8 1670.2,1687.2 1649.5,1684.7 1629.0,1683.2 1608.5,1682.8 1588.1,1683.5 1567.9,1685.3 1547.9,1688.1 1528.0,1692.1 1508.4,1697.1 1489.1,1703.3 1470.0,1710.5 1451.2,1718.7 1432.8,1728.0 1414.7,1738.2 1397.0,1749.4 1379.7,1761.6 1362.7,1774.6 1346.2,1788.5 1330.1,1803.1 1314.5,1818.5 1299.4,1834.5 1284.7,1851.1 1270.5,1868.2 1256.9,1885.8 1243.7,1903.8 1231.1,1922.1 1219.0,1940.5  A 522.500,522.500 0.00 0,1 1174.4,1908.6 L 1174.4,1908.6 1188.6,1891.1 1203.5,1873.8 1218.8,1856.8 1234.6,1840.2 1251.0,1824.0 1267.8,1808.2 1285.1,1793.1 1302.8,1778.5 1321.0,1764.6 1339.6,1751.4 1358.6,1738.9 1378.0,1727.3 1397.8,1716.4 1417.9,1706.5 1438.3,1697.4 1459.0,1689.2 1480.0,1682.0 1501.3,1675.7 1522.8,1670.4 1544.5,1666.1 1566.4,1662.7 1588.4,1660.3 1610.6,1658.9 1632.9,1658.5 1655.2,1659.0 1677.6,1660.5 1700.0,1662.9 1722.4,1666.2 1744.8,1670.3 1767.0,1675.4 1789.1,1681.2 1811.1,1687.8 1832.9,1695.2 1854.5,1703.2 1875.8,1711.9 1896.9,1721.2 1917.6,1730.9 1937.9,1741.2 1957.8,1751.9  Z" style="stroke-width: 0.5;  stroke: rgb(0,0,0); fill: rgb(179,177,178);" />
<path d="M 2004.047,1637.633 A 522.500,522.500 0.00 0,1 1987.8,1687.3 L 1987.8,1687.3 1966.0,1679.2 1943.9,1671.5 1921.5,1664.3 1898.7,1657.5 1875.7,1651.4 1852.4,1645.8 1829.0,1640.8 1805.4,1636.5 1781.6,1632.9 1757.8,1630.0 1733.9,1627.9 1709.9,1626.5 1685.9,1625.9 1662.0,1626.1 1638.1,1627.1 1614.3,1629.0 1590.5,1631.7 1566.9,1635.2 1543.5,1639.6 1520.2,1644.8 1497.1,1650.9 1474.3,1657.7 1451.6,1665.4 1429.3,1673.9 1407.2,1683.1 1385.5,1693.2 1364.0,1703.9 1343.0,1715.4 1322.2,1727.5 1301.9,1740.3 1282.0,1753.7 1262.4,1767.6 1243.4,1782.1 1224.7,1797.1 1206.5,1812.5 1188.8,1828.3 1171.6,1844.4 1154.8,1860.8 1138.6,1877.4  A 522.500,522.500 0.00 0,1 1102.7,1839.3 L 1102.7,1839.3 1120.9,1824.0 1139.6,1809.0 1158.7,1794.1 1178.3,1779.6 1198.3,1765.5 1218.7,1751.7 1239.5,1738.3 1260.7,1725.4 1282.3,1713.0 1304.2,1701.1 1326.4,1689.8 1349.0,1679.0 1371.8,1668.8 1395.0,1659.3 1418.4,1650.4 1442.1,1642.2 1466.0,1634.6 1490.1,1627.8 1514.4,1621.6 1538.8,1616.1 1563.4,1611.3 1588.2,1607.3 1613.0,1603.9 1637.9,1601.3 1662.9,1599.4 1687.9,1598.1 1712.9,1597.6 1737.9,1597.7 1762.9,1598.5 1787.8,1599.9 1812.5,1601.9 1837.2,1604.6 1861.7,1607.8 1886.1,1611.6 1910.2,1615.9 1934.1,1620.7 1957.7,1625.9 1981.0,1631.6 2004.0,1637.6  Z" style="stroke-width: 0.5;  stroke: rgb(0,0,0); fill: rgb(179,177,178);" />
<path d="M 2014.162,1407.026 A 522.500,522.500 0.00 0,1 2020.6,1455.6 L 2020.6,1455.6 1994.6,1457.9 1968.5,1460.3 1942.3,1462.8 1916.0,1465.4 1889.7,1468.2 1863.3,1471.2 1836.9,1474.3 1810.5,1477.5 1784.0,1480.9 1757.4,1484.4 1730.9,1488.1 1704.3,1492.0 1677.7,1496.0 1651.1,1500.1 1624.5,1504.5 1598.0,1509.0 1571.4,1513.6 1544.8,1518.5 1518.3,1523.5 1491.8,1528.6 1465.3,1533.9 1438.9,1539.4 1412.5,1545.0 1386.2,1550.8 1359.9,1556.8 1333.7,1562.9 1307.6,1569.1 1281.5,1575.5 1255.5,1582.0 1229.6,1588.7 1203.7,1595.5 1178.0,1602.4 1152.3,1609.4 1126.8,1616.6 1101.3,1623.9 1076.0,1631.2 1050.8,1638.7 1025.7,1646.3 1000.7,1653.9  A 522.500,522.500 0.00 0,1 988.5,1606.8 L 988.5,1606.8 1014.7,1601.3 1040.8,1595.9 1067.0,1590.5 1093.2,1585.0 1119.4,1579.6 1145.6,1574.3 1171.9,1568.9 1198.1,1563.5 1224.4,1558.2 1250.7,1552.9 1276.9,1547.6 1303.2,1542.3 1329.5,1537.0 1355.8,1531.8 1382.1,1526.5 1408.5,1521.3 1434.8,1516.1 1461.1,1511.0 1487.5,1505.8 1513.8,1500.7 1540.1,1495.6 1566.5,1490.5 1592.8,1485.4 1619.2,1480.4 1645.6,1475.3 1671.9,1470.3 1698.3,1465.3 1724.6,1460.4 1751.0,1455.4 1777.3,1450.5 1803.7,1445.6 1830.0,1440.7 1856.3,1435.8 1882.6,1431.0 1909.0,1426.2 1935.3,1421.4 1961.6,1416.6 1987.9,1411.8 2014.2,1407.0  Z" style="stroke-width: 0.5;  stroke: rgb(0,0,0); fill: rgb(179,177,178);" />
<path d="M 1857.886,1119.311 A 522.500,522.500 0.00 0,1 1890.4,1152.8 L 1890.4,1152.8 1872.6,1168.3 1854.4,1183.6 1835.7,1198.6 1816.5,1213.3 1796.9,1227.7 1776.9,1241.6 1756.4,1255.1 1735.6,1268.1 1714.4,1280.6 1692.8,1292.5 1670.9,1303.9 1648.7,1314.6 1626.1,1324.7 1603.3,1334.1 1580.1,1342.8 1556.8,1350.9 1533.2,1358.2 1509.3,1364.8 1485.3,1370.6 1461.2,1375.7 1436.8,1380.0 1412.4,1383.6 1387.9,1386.5 1363.2,1388.5 1338.6,1389.9 1313.8,1390.5 1289.1,1390.4 1264.5,1389.5 1239.8,1388.0 1215.3,1385.8 1190.8,1382.9 1166.5,1379.5 1142.4,1375.4 1118.4,1370.7 1094.7,1365.5 1071.2,1359.8 1048.0,1353.6 1025.1,1346.9 1002.6,1339.9  A 522.500,522.500 0.00 0,1 1018.8,1296.3 L 1018.8,1296.3 1040.2,1305.1 1061.9,1313.5 1084.0,1321.4 1106.4,1328.8 1129.1,1335.6 1152.0,1341.9 1175.1,1347.5 1198.4,1352.4 1221.8,1356.7 1245.4,1360.2 1269.0,1362.9 1292.7,1364.8 1316.4,1366.0 1340.1,1366.3 1363.7,1365.7 1387.3,1364.3 1410.8,1362.1 1434.1,1358.9 1457.4,1354.9 1480.4,1350.1 1503.3,1344.3 1525.9,1337.8 1548.3,1330.3 1570.4,1322.1 1592.3,1313.0 1613.8,1303.2 1635.0,1292.6 1655.9,1281.3 1676.4,1269.2 1696.6,1256.5 1716.3,1243.2 1735.6,1229.2 1754.5,1214.8 1772.9,1199.8 1790.9,1184.4 1808.4,1168.6 1825.4,1152.4 1841.9,1136.0 1857.9,1119.3  Z" style="stroke-width: 0.5;  stroke: rgb(0,0,0); fill: rgb(179,177,178);" />
<path d="M 1783.239,1939.069 A 522.500,522.500 0.00 0,1 1746.1,1960.9 L 1746.1,1960.9 1736.3,1943.0 1726.3,1925.3 1716.1,1908.0 1705.8,1891.1 1695.3,1874.9 1684.7,1859.4 1674.1,1844.7 1663.4,1830.9 1652.8,1818.1 1642.2,1806.3 1631.6,1795.7 1621.1,1786.3 1610.8,1778.2 1600.6,1771.4 1590.6,1765.9 1580.7,1761.8 1571.1,1759.1 1561.7,1757.9 1552.5,1758.1 1543.6,1759.7 1535.0,1762.8 1526.6,1767.4 1518.6,1773.3 1510.9,1780.7 1503.5,1789.4 1496.4,1799.4 1489.7,1810.7 1483.3,1823.2 1477.2,1836.9 1471.5,1851.7 1466.2,1867.5 1461.2,1884.2 1456.5,1901.7 1452.2,1920.0 1448.3,1938.9 1444.6,1958.4 1441.3,1978.2 1438.4,1998.3 1435.7,2018.5  A 522.500,522.500 0.00 0,1 1393.3,2011.5 L 1393.3,2011.5 1397.7,1991.4 1402.5,1971.4 1407.6,1951.6 1413.2,1932.3 1419.1,1913.5 1425.4,1895.3 1432.1,1877.8 1439.2,1861.1 1446.6,1845.3 1454.5,1830.5 1462.7,1816.8 1471.3,1804.2 1480.2,1792.8 1489.5,1782.6 1499.2,1773.7 1509.2,1766.1 1519.5,1759.8 1530.1,1755.0 1540.9,1751.5 1552.1,1749.4 1563.5,1748.7 1575.1,1749.5 1587.0,1751.6 1599.0,1755.1 1611.2,1760.0 1623.6,1766.1 1636.0,1773.6 1648.6,1782.3 1661.2,1792.1 1673.8,1803.1 1686.5,1815.2 1699.1,1828.2 1711.6,1842.1 1724.0,1856.8 1736.3,1872.3 1748.4,1888.3 1760.3,1904.9 1771.9,1921.9 1783.2,1939.1  Z" style="stroke-width: 0.5;  stroke: rgb(0,0,0); fill: rgb(179,177,178);" />
<path d="M 1897.935,1838.606 A 522.500,522.500 0.00 0,1 1869.0,1869.9 L 1869.0,1869.9 1853.8,1855.0 1838.2,1840.4 1822.2,1826.3 1805.9,1812.7 1789.3,1799.7 1772.5,1787.4 1755.6,1776.0 1738.4,1765.3 1721.2,1755.6 1703.9,1746.9 1686.5,1739.2 1669.1,1732.6 1651.8,1727.1 1634.5,1722.8 1617.3,1719.7 1600.2,1717.8 1583.2,1717.1 1566.5,1717.7 1549.9,1719.5 1533.6,1722.6 1517.5,1726.9 1501.6,1732.5 1486.1,1739.3 1470.9,1747.3 1456.0,1756.5 1441.5,1766.8 1427.3,1778.3 1413.6,1790.8 1400.2,1804.2 1387.3,1818.7 1374.7,1834.0 1362.7,1850.1 1351.0,1867.0 1339.9,1884.6 1329.2,1902.7 1319.0,1921.3 1309.2,1940.3 1300.0,1959.6 1291.3,1979.0  A 522.500,522.500 0.00 0,1 1252.8,1960.3 L 1252.8,1960.3 1263.3,1941.4 1274.3,1922.6 1285.8,1904.1 1297.8,1886.0 1310.3,1868.4 1323.3,1851.3 1336.8,1834.9 1350.7,1819.1 1365.1,1804.2 1379.9,1790.1 1395.2,1776.8 1410.8,1764.6 1426.8,1753.3 1443.2,1743.1 1460.0,1733.9 1477.0,1725.8 1494.4,1718.9 1512.0,1713.1 1530.0,1708.5 1548.1,1705.1 1566.5,1702.9 1585.0,1701.8 1603.7,1701.9 1622.5,1703.2 1641.5,1705.6 1660.5,1709.2 1679.5,1713.9 1698.5,1719.6 1717.5,1726.4 1736.5,1734.1 1755.3,1742.8 1774.0,1752.4 1792.6,1762.8 1810.9,1773.9 1829.0,1785.8 1846.7,1798.3 1864.2,1811.3 1881.3,1824.8 1897.9,1838.6  Z" style="stroke-width: 0.5;  stroke: rgb(0,0,0); fill: rgb(179,177,178);" />
<path d="M 2007.418,1624.633 A 522.500,522.500 0.00 0,1 1997.7,1659.2 L 1997.7,1659.2 1975.0,1652.1 1952.0,1645.5 1928.6,1639.3 1905.0,1633.5 1881.1,1628.2 1857.0,1623.4 1832.7,1619.2 1808.2,1615.5 1783.6,1612.5 1758.8,1610.1 1734.0,1608.3 1709.1,1607.2 1684.1,1606.8 1659.2,1607.1 1634.2,1608.1 1609.3,1609.8 1584.4,1612.2 1559.6,1615.3 1534.9,1619.2 1510.4,1623.8 1486.0,1629.1 1461.7,1635.1 1437.6,1641.8 1413.8,1649.2 1390.1,1657.3 1366.8,1666.0 1343.6,1675.4 1320.8,1685.4 1298.3,1696.0 1276.1,1707.2 1254.2,1718.9 1232.7,1731.1 1211.5,1743.8 1190.7,1757.0 1170.4,1770.5 1150.4,1784.4 1130.9,1798.7 1111.8,1813.2 1093.2,1827.9  A 522.500,522.500 0.00 0,1 1071.5,1798.9 L 1071.5,1798.9 1091.4,1785.3 1111.7,1771.8 1132.5,1758.7 1153.6,1745.8 1175.1,1733.2 1196.9,1721.0 1219.2,1709.2 1241.7,1697.8 1264.5,1686.9 1287.7,1676.5 1311.1,1666.5 1334.8,1657.1 1358.8,1648.2 1383.0,1639.9 1407.4,1632.1 1432.0,1625.0 1456.8,1618.4 1481.8,1612.5 1506.9,1607.2 1532.1,1602.5 1557.5,1598.4 1582.9,1594.9 1608.4,1592.1 1633.9,1589.9 1659.5,1588.4 1685.1,1587.4 1710.6,1587.1 1736.1,1587.4 1761.6,1588.2 1787.0,1589.6 1812.2,1591.6 1837.3,1594.1 1862.3,1597.1 1887.1,1600.6 1911.7,1604.6 1936.0,1609.0 1960.1,1613.8 1983.9,1619.1 2007.4,1624.6  Z" style="stroke-width: 0.5;  stroke: rgb(0,0,0); fill: rgb(179,177,178);" />
<path d="M 1812.158,1080.997 A 522.500,522.500 0.00 0,1 1839.9,1103.2 L 1839.9,1103.2 1825.0,1120.2 1809.5,1137.0 1793.5,1153.6 1777.1,1169.7 1760.1,1185.4 1742.7,1200.6 1724.8,1215.3 1706.5,1229.4 1687.7,1242.8 1668.6,1255.5 1649.0,1267.4 1629.2,1278.6 1608.9,1288.9 1588.4,1298.4 1567.5,1307.0 1546.4,1314.7 1525.0,1321.5 1503.3,1327.3 1481.5,1332.2 1459.5,1336.1 1437.3,1339.0 1415.0,1341.0 1392.6,1342.0 1370.1,1342.1 1347.5,1341.2 1325.0,1339.4 1302.4,1336.7 1279.9,1333.1 1257.5,1328.6 1235.1,1323.3 1212.9,1317.1 1190.8,1310.3 1169.0,1302.7 1147.4,1294.4 1126.0,1285.5 1105.0,1276.0 1084.3,1266.0 1064.0,1255.6 1044.1,1244.7  A 522.500,522.500 0.00 0,1 1062.7,1214.1 L 1062.7,1214.1 1081.5,1226.1 1100.7,1237.7 1120.3,1248.8 1140.3,1259.4 1160.6,1269.4 1181.2,1278.8 1202.0,1287.5 1222.9,1295.3 1244.1,1302.4 1265.4,1308.7 1286.8,1314.0 1308.2,1318.4 1329.7,1321.9 1351.2,1324.3 1372.6,1325.8 1394.0,1326.3 1415.3,1325.7 1436.5,1324.1 1457.5,1321.4 1478.4,1317.7 1499.1,1313.0 1519.5,1307.2 1539.7,1300.4 1559.6,1292.6 1579.2,1283.8 1598.6,1274.1 1617.5,1263.5 1636.1,1251.9 1654.4,1239.6 1672.2,1226.4 1689.6,1212.5 1706.6,1197.8 1723.2,1182.5 1739.3,1166.7 1754.9,1150.3 1770.0,1133.5 1784.5,1116.2 1798.6,1098.7 1812.2,1081.0  Z" style="stroke-width: 0.5;  stroke: rgb(0,0,0); fill: rgb(179,177,178);" />
<path d="M 1522.550,977.987 A 522.500,522.500 0.00 0,1 1557.6,980.7 L 1557.6,980.7 1555.2,1000.9 1552.5,1021.0 1549.5,1040.8 1546.2,1060.3 1542.6,1079.2 1538.6,1097.4 1534.4,1115.0 1529.7,1131.7 1524.8,1147.4 1519.4,1162.1 1513.8,1175.8 1507.8,1188.2 1501.5,1199.5 1494.9,1209.4 1487.9,1218.1 1480.6,1225.3 1473.0,1231.2 1465.2,1235.6 1457.0,1238.6 1448.6,1240.1 1439.9,1240.2 1430.9,1238.8 1421.8,1236.0 1412.4,1231.7 1402.9,1226.1 1393.2,1219.1 1383.3,1210.8 1373.3,1201.2 1363.3,1190.4 1353.1,1178.5 1342.9,1165.5 1332.8,1151.5 1322.6,1136.6 1312.5,1120.9 1302.4,1104.4 1292.5,1087.4 1282.8,1069.9 1273.2,1052.0 1263.9,1033.9  A 522.500,522.500 0.00 0,1 1293.5,1020.0 L 1293.5,1020.0 1301.6,1038.6 1309.9,1056.9 1318.3,1074.9 1326.9,1092.5 1335.5,1109.4 1344.1,1125.7 1352.8,1141.1 1361.4,1155.6 1370.0,1169.1 1378.5,1181.5 1386.9,1192.8 1395.2,1202.9 1403.3,1211.7 1411.3,1219.1 1419.1,1225.2 1426.7,1229.8 1434.0,1233.0 1441.1,1234.8 1448.0,1235.1 1454.5,1233.8 1460.9,1231.2 1466.9,1227.0 1472.6,1221.4 1478.0,1214.3 1483.1,1205.9 1488.0,1196.1 1492.4,1185.0 1496.6,1172.7 1500.5,1159.2 1504.0,1144.5 1507.2,1128.8 1510.1,1112.2 1512.8,1094.7 1515.1,1076.5 1517.1,1057.6 1518.8,1038.1 1520.3,1018.3 1521.6,998.2 1522.6,978.0  Z" style="stroke-width: 0.5;  stroke: rgb(0,0,0); fill: rgb(179,177,178);" />
<path d="M 1730.009,1969.150 A 522.500,522.500 0.00 0,1 1701.3,1982.2 L 1701.3,1982.2 1693.4,1963.5 1685.4,1945.1 1677.2,1927.1 1668.9,1909.4 1660.6,1892.4 1652.3,1876.1 1644.0,1860.6 1635.7,1846.0 1627.5,1832.4 1619.4,1819.9 1611.4,1808.6 1603.6,1798.4 1595.9,1789.6 1588.4,1782.1 1581.1,1775.9 1574.1,1771.2 1567.2,1767.9 1560.7,1766.1 1554.4,1765.8 1548.4,1767.0 1542.7,1769.6 1537.3,1773.7 1532.1,1779.3 1527.4,1786.3 1522.9,1794.7 1518.7,1804.5 1514.9,1815.5 1511.4,1827.9 1508.2,1841.4 1505.3,1856.0 1502.8,1871.7 1500.5,1888.3 1498.5,1905.8 1496.9,1924.0 1495.5,1942.9 1494.4,1962.3 1493.5,1982.1 1492.9,2002.2 1492.5,2022.4  A 522.500,522.500 0.00 0,1 1458.7,2020.9 L 1458.7,2020.9 1460.4,2000.6 1462.4,1980.5 1464.7,1960.6 1467.4,1941.2 1470.3,1922.2 1473.5,1903.9 1477.1,1886.4 1481.0,1869.7 1485.3,1853.9 1489.8,1839.2 1494.8,1825.5 1500.0,1813.0 1505.6,1801.8 1511.6,1791.8 1517.8,1783.2 1524.4,1776.0 1531.3,1770.1 1538.5,1765.7 1546.0,1762.8 1553.8,1761.3 1561.9,1761.3 1570.2,1762.7 1578.8,1765.6 1587.6,1769.9 1596.6,1775.6 1605.8,1782.7 1615.1,1791.1 1624.6,1800.8 1634.2,1811.7 1643.9,1823.7 1653.6,1836.8 1663.4,1850.9 1673.2,1865.9 1682.9,1881.7 1692.6,1898.2 1702.2,1915.4 1711.7,1933.0 1720.9,1951.0 1730.0,1969.2  Z" style="stroke-width: 0.5;  stroke: rgb(0,0,0); fill: rgb(179,177,178);" />
<path d="M 1587.746,984.920 A 522.500,522.500 0.00 0,1 1615.5,990.4 L 1615.5,990.4 1610.8,1010.5 1605.6,1030.5 1600.1,1050.2 1594.2,1069.5 1587.8,1088.3 1581.1,1106.4 1574.0,1123.9 1566.5,1140.6 1558.6,1156.3 1550.3,1171.1 1541.6,1184.8 1532.6,1197.4 1523.2,1208.9 1513.4,1219.1 1503.3,1228.0 1492.9,1235.6 1482.2,1241.9 1471.1,1246.9 1459.8,1250.4 1448.2,1252.5 1436.4,1253.3 1424.3,1252.6 1412.0,1250.6 1399.5,1247.2 1386.9,1242.5 1374.1,1236.5 1361.3,1229.1 1348.3,1220.6 1335.3,1210.9 1322.3,1200.0 1309.3,1188.2 1296.3,1175.3 1283.4,1161.6 1270.6,1147.0 1258.0,1131.7 1245.5,1115.8 1233.3,1099.4 1221.4,1082.6 1209.7,1065.5  A 522.500,522.500 0.00 0,1 1233.8,1050.4 L 1233.8,1050.4 1244.4,1068.0 1255.3,1085.3 1266.4,1102.2 1277.7,1118.6 1289.1,1134.5 1300.7,1149.6 1312.4,1163.9 1324.1,1177.3 1335.8,1189.7 1347.5,1201.0 1359.2,1211.2 1370.8,1220.3 1382.3,1228.0 1393.7,1234.5 1404.9,1239.7 1416.0,1243.4 1426.8,1245.8 1437.4,1246.8 1447.8,1246.4 1458.0,1244.5 1467.8,1241.2 1477.4,1236.5 1486.7,1230.4 1495.7,1222.9 1504.3,1214.1 1512.6,1203.9 1520.6,1192.6 1528.2,1180.0 1535.4,1166.3 1542.3,1151.5 1548.8,1135.7 1555.0,1119.0 1560.7,1101.5 1566.1,1083.2 1571.2,1064.3 1575.9,1045.0 1580.2,1025.2 1584.1,1005.1 1587.7,984.9  Z" style="stroke-width: 0.5;  stroke: rgb(0,0,0); fill: rgb(179,177,178);" />
<path d="M 1560.299,980.991 A 522.500,522.500 0.00 0,1 1587.5,984.9 L 1587.5,984.9 1583.9,1005.1 1579.9,1025.1 1575.6,1044.9 1571.0,1064.3 1566.0,1083.2 1560.6,1101.4 1554.8,1118.9 1548.7,1135.6 1542.2,1151.4 1535.3,1166.2 1528.1,1179.9 1520.6,1192.4 1512.6,1203.8 1504.4,1213.9 1495.8,1222.7 1486.8,1230.2 1477.6,1236.3 1468.1,1241.0 1458.2,1244.3 1448.1,1246.1 1437.8,1246.5 1427.2,1245.5 1416.4,1243.1 1405.4,1239.3 1394.3,1234.1 1382.9,1227.6 1371.5,1219.8 1360.0,1210.8 1348.3,1200.5 1336.7,1189.1 1325.0,1176.7 1313.4,1163.3 1301.7,1148.9 1290.2,1133.8 1278.8,1117.9 1267.6,1101.5 1256.5,1084.5 1245.7,1067.2 1235.2,1049.6  A 522.500,522.500 0.00 0,1 1259.0,1036.4 L 1259.0,1036.4 1268.5,1054.4 1278.3,1072.2 1288.3,1089.6 1298.4,1106.6 1308.7,1122.9 1319.0,1138.5 1329.4,1153.3 1339.8,1167.2 1350.2,1180.2 1360.6,1192.0 1370.9,1202.7 1381.1,1212.2 1391.2,1220.4 1401.1,1227.3 1410.9,1232.9 1420.5,1237.0 1429.8,1239.8 1439.0,1241.1 1447.9,1241.0 1456.5,1239.4 1464.9,1236.3 1473.0,1231.8 1480.8,1225.9 1488.3,1218.6 1495.4,1210.0 1502.3,1200.0 1508.8,1188.7 1514.9,1176.2 1520.7,1162.5 1526.2,1147.8 1531.3,1132.0 1536.1,1115.3 1540.6,1097.8 1544.7,1079.5 1548.4,1060.6 1551.9,1041.2 1555.0,1021.3 1557.8,1001.2 1560.3,981.0  Z" style="stroke-width: 0.5;  stroke: rgb(0,0,0); fill: rgb(179,177,178);" />
<path d="M 2020.608,1455.574 A 522.500,522.500 0.00 0,1 2022.2,1482.8 L 2022.2,1482.8 1996.4,1483.8 1970.5,1484.9 1944.5,1486.2 1918.4,1487.7 1892.2,1489.3 1865.9,1491.2 1839.5,1493.3 1813.1,1495.6 1786.6,1498.2 1760.1,1500.9 1733.5,1503.9 1707.0,1507.1 1680.3,1510.6 1653.7,1514.3 1627.1,1518.3 1600.5,1522.4 1573.9,1526.9 1547.4,1531.5 1520.8,1536.5 1494.4,1541.6 1467.9,1547.0 1441.6,1552.7 1415.3,1558.5 1389.0,1564.6 1362.9,1571.0 1336.8,1577.5 1310.9,1584.3 1285.0,1591.3 1259.3,1598.5 1233.6,1605.9 1208.2,1613.5 1182.8,1621.3 1157.6,1629.2 1132.5,1637.4 1107.6,1645.6 1082.8,1654.1 1058.2,1662.6 1033.8,1671.3 1009.5,1680.2  A 522.500,522.500 0.00 0,1 1000.9,1654.8 L 1000.9,1654.8 1025.9,1647.1 1051.0,1639.5 1076.2,1632.0 1101.5,1624.6 1127.0,1617.2 1152.5,1610.1 1178.1,1603.0 1203.9,1596.0 1229.7,1589.2 1255.6,1582.5 1281.6,1575.9 1307.7,1569.5 1333.8,1563.2 1360.0,1557.1 1386.3,1551.2 1412.6,1545.3 1439.0,1539.7 1465.4,1534.2 1491.9,1528.8 1518.4,1523.7 1544.9,1518.7 1571.5,1513.8 1598.0,1509.1 1624.6,1504.6 1651.2,1500.2 1677.8,1496.1 1704.3,1492.0 1730.9,1488.2 1757.5,1484.5 1784.0,1480.9 1810.5,1477.5 1836.9,1474.3 1863.4,1471.2 1889.7,1468.2 1916.0,1465.4 1942.3,1462.8 1968.5,1460.3 1994.6,1457.9 2020.6,1455.6  Z" style="stroke-width: 0.5;  stroke: rgb(0,0,0); fill: rgb(179,177,178);" />
<path d="M 2022.371,1488.381 A 522.500,522.500 0.00 0,1 2022.3,1513.1 L 2022.3,1513.1 1996.9,1512.5 1971.3,1512.2 1945.5,1512.2 1919.6,1512.4 1893.6,1512.8 1867.5,1513.5 1841.3,1514.5 1815.0,1515.8 1788.6,1517.4 1762.1,1519.3 1735.7,1521.4 1709.1,1523.9 1682.6,1526.8 1656.0,1529.9 1629.5,1533.4 1602.9,1537.2 1576.4,1541.3 1549.9,1545.7 1523.5,1550.5 1497.1,1555.6 1470.8,1561.0 1444.5,1566.8 1418.4,1572.9 1392.3,1579.2 1366.4,1585.9 1340.6,1592.9 1314.9,1600.2 1289.3,1607.8 1263.9,1615.6 1238.7,1623.7 1213.6,1632.1 1188.8,1640.7 1164.0,1649.6 1139.5,1658.7 1115.2,1668.0 1091.1,1677.4 1067.3,1687.1 1043.6,1696.9 1020.2,1706.9  A 522.500,522.500 0.00 0,1 1011.2,1684.7 L 1011.2,1684.7 1035.3,1675.7 1059.6,1666.8 1084.1,1658.0 1108.8,1649.4 1133.6,1641.0 1158.6,1632.7 1183.7,1624.6 1209.0,1616.7 1234.4,1608.9 1260.0,1601.4 1285.7,1594.1 1311.5,1587.0 1337.4,1580.2 1363.4,1573.6 1389.6,1567.2 1415.8,1561.0 1442.0,1555.1 1468.4,1549.5 1494.8,1544.1 1521.3,1538.9 1547.8,1534.1 1574.4,1529.4 1601.0,1525.1 1627.6,1521.0 1654.2,1517.1 1680.8,1513.5 1707.4,1510.2 1734.0,1507.1 1760.5,1504.2 1787.0,1501.6 1813.5,1499.3 1839.9,1497.2 1866.3,1495.3 1892.5,1493.6 1918.7,1492.2 1944.8,1490.9 1970.8,1489.9 1996.6,1489.0 2022.4,1488.4  Z" style="stroke-width: 0.5;  stroke: rgb(0,0,0); fill: rgb(179,177,178);" />
<path d="M 1926.001,1802.538 A 522.500,522.500 0.00 0,1 1911.6,1821.9 L 1911.6,1821.9 1894.2,1808.7 1876.5,1795.8 1858.4,1783.5 1839.9,1771.6 1821.2,1760.4 1802.2,1749.9 1783.0,1740.1 1763.6,1731.1 1744.2,1723.1 1724.6,1715.9 1704.9,1709.7 1685.2,1704.5 1665.6,1700.4 1646.0,1697.3 1626.4,1695.4 1607.0,1694.6 1587.7,1694.9 1568.5,1696.3 1549.6,1698.9 1530.8,1702.7 1512.3,1707.5 1494.1,1713.6 1476.1,1720.7 1458.5,1729.0 1441.2,1738.3 1424.3,1748.7 1407.7,1760.1 1391.6,1772.4 1375.8,1785.7 1360.5,1799.8 1345.6,1814.8 1331.2,1830.5 1317.2,1846.9 1303.8,1864.0 1290.8,1881.5 1278.3,1899.5 1266.4,1917.9 1254.9,1936.6 1244.0,1955.5  A 522.500,522.500 0.00 0,1 1223.1,1943.1 L 1223.1,1943.1 1235.0,1924.6 1247.4,1906.2 1260.3,1888.2 1273.8,1870.5 1287.8,1853.3 1302.3,1836.6 1317.2,1820.5 1332.7,1805.1 1348.5,1790.4 1364.9,1776.5 1381.6,1763.4 1398.8,1751.2 1416.3,1740.0 1434.2,1729.7 1452.5,1720.4 1471.0,1712.2 1489.9,1705.0 1509.1,1698.8 1528.5,1693.8 1548.2,1689.9 1568.1,1687.1 1588.1,1685.3 1608.3,1684.7 1628.6,1685.2 1649.1,1686.7 1669.5,1689.3 1690.1,1693.0 1710.6,1697.6 1731.1,1703.3 1751.5,1709.8 1771.8,1717.3 1792.0,1725.6 1812.0,1734.7 1831.7,1744.5 1851.3,1755.1 1870.5,1766.2 1889.4,1777.9 1907.9,1790.0 1926.0,1802.5  Z" style="stroke-width: 0.5;  stroke: rgb(0,0,0); fill: rgb(179,177,178);" />
<path d="M 1839.877,1103.150 A 522.500,522.500 0.00 0,1 1857.2,1118.6 L 1857.2,1118.6 1841.3,1135.2 1825.0,1151.5 1808.1,1167.5 1790.8,1183.2 1772.9,1198.4 1754.6,1213.2 1735.9,1227.4 1716.8,1241.1 1697.2,1254.1 1677.2,1266.5 1656.9,1278.2 1636.2,1289.1 1615.2,1299.2 1593.9,1308.5 1572.3,1317.0 1550.4,1324.7 1528.3,1331.5 1506.0,1337.4 1483.4,1342.3 1460.7,1346.4 1437.8,1349.6 1414.8,1351.9 1391.7,1353.2 1368.5,1353.7 1345.3,1353.2 1322.1,1351.9 1298.8,1349.7 1275.7,1346.7 1252.6,1342.8 1229.5,1338.2 1206.7,1332.8 1184.0,1326.6 1161.4,1319.8 1139.2,1312.3 1117.1,1304.2 1095.4,1295.6 1074.0,1286.4 1053.0,1276.8 1032.4,1266.8  A 522.500,522.500 0.00 0,1 1043.2,1246.3 L 1043.2,1246.3 1063.2,1257.0 1083.5,1267.4 1104.3,1277.4 1125.4,1286.8 1146.7,1295.6 1168.4,1303.8 1190.3,1311.4 1212.3,1318.2 1234.6,1324.2 1257.0,1329.5 1279.5,1333.9 1302.0,1337.5 1324.6,1340.1 1347.2,1341.9 1369.8,1342.7 1392.3,1342.6 1414.7,1341.5 1437.1,1339.5 1459.3,1336.5 1481.3,1332.6 1503.2,1327.6 1524.8,1321.8 1546.2,1315.0 1567.4,1307.2 1588.2,1298.6 1608.8,1289.1 1629.0,1278.7 1648.9,1267.5 1668.5,1255.6 1687.6,1242.8 1706.4,1229.4 1724.7,1215.4 1742.6,1200.7 1760.0,1185.4 1777.0,1169.7 1793.5,1153.5 1809.5,1137.0 1824.9,1120.2 1839.9,1103.2  Z" style="stroke-width: 0.5;  stroke: rgb(0,0,0); fill: rgb(179,177,178);" />
<path d="M 1745.133,1961.428 A 522.500,522.500 0.00 0,1 1731.5,1968.4 L 1731.5,1968.4 1722.3,1950.2 1713.0,1932.3 1703.5,1914.7 1693.8,1897.6 1684.0,1881.1 1674.1,1865.3 1664.2,1850.3 1654.3,1836.2 1644.4,1823.1 1634.6,1811.1 1624.8,1800.2 1615.1,1790.6 1605.6,1782.2 1596.2,1775.2 1587.0,1769.5 1578.0,1765.2 1569.2,1762.3 1560.6,1760.8 1552.3,1760.9 1544.3,1762.4 1536.5,1765.3 1529.0,1769.7 1521.8,1775.5 1514.9,1782.8 1508.4,1791.4 1502.1,1801.3 1496.2,1812.5 1490.6,1825.0 1485.4,1838.6 1480.5,1853.4 1475.9,1869.1 1471.7,1885.8 1467.8,1903.4 1464.2,1921.6 1461.0,1940.6 1458.0,1960.0 1455.4,1979.8 1453.1,2000.0 1451.0,2020.2  A 522.500,522.500 0.00 0,1 1435.7,2018.5 L 1435.7,2018.5 1438.4,1998.3 1441.3,1978.2 1444.6,1958.4 1448.3,1938.9 1452.2,1920.0 1456.5,1901.7 1461.1,1884.2 1466.1,1867.5 1471.5,1851.7 1477.2,1837.0 1483.2,1823.3 1489.6,1810.8 1496.3,1799.5 1503.3,1789.5 1510.7,1780.8 1518.4,1773.4 1526.4,1767.5 1534.8,1763.0 1543.4,1759.9 1552.2,1758.2 1561.4,1758.1 1570.8,1759.3 1580.4,1762.0 1590.2,1766.1 1600.2,1771.6 1610.4,1778.4 1620.7,1786.6 1631.1,1796.0 1641.6,1806.6 1652.2,1818.4 1662.8,1831.2 1673.4,1845.0 1684.0,1859.8 1694.6,1875.3 1705.0,1891.6 1715.3,1908.4 1725.5,1925.8 1735.4,1943.5 1745.1,1961.4  Z" style="stroke-width: 0.5;  stroke: rgb(0,0,0); fill: rgb(179,177,178);" />
<path d="M 1982.336,1700.894 A 522.500,522.500 0.00 0,1 1978.1,1710.9 L 1978.1,1710.9 1957.0,1701.8 1935.5,1693.2 1913.7,1685.1 1891.6,1677.5 1869.2,1670.4 1846.5,1664.0 1823.7,1658.2 1800.7,1653.1 1777.6,1648.7 1754.3,1645.2 1731.0,1642.4 1707.7,1640.4 1684.3,1639.2 1661.0,1639.0 1637.8,1639.6 1614.6,1641.1 1591.5,1643.4 1568.6,1646.7 1545.8,1650.9 1523.2,1656.0 1500.9,1662.0 1478.7,1668.8 1456.9,1676.5 1435.3,1685.1 1414.0,1694.5 1393.0,1704.8 1372.4,1715.8 1352.2,1727.6 1332.3,1740.1 1312.9,1753.3 1293.8,1767.1 1275.2,1781.6 1257.1,1796.6 1239.4,1812.1 1222.1,1828.1 1205.4,1844.4 1189.2,1861.1 1173.5,1878.1 1158.3,1895.3  A 522.500,522.500 0.00 0,1 1150.2,1888.1 L 1150.2,1888.1 1165.8,1871.2 1181.9,1854.4 1198.5,1837.9 1215.7,1821.8 1233.3,1806.1 1251.4,1790.8 1269.9,1776.0 1288.9,1761.7 1308.3,1748.0 1328.2,1735.0 1348.4,1722.6 1369.0,1711.0 1389.9,1700.0 1411.2,1689.9 1432.8,1680.5 1454.7,1672.0 1476.9,1664.2 1499.4,1657.4 1522.0,1651.4 1544.9,1646.2 1568.0,1641.9 1591.2,1638.5 1614.5,1636.0 1638.0,1634.4 1661.5,1633.6 1685.1,1633.6 1708.7,1634.5 1732.3,1636.3 1755.9,1638.8 1779.4,1642.1 1802.8,1646.1 1826.1,1650.8 1849.2,1656.3 1872.1,1662.4 1894.7,1669.0 1917.1,1676.3 1939.2,1684.0 1961.0,1692.3 1982.3,1700.9  Z" style="stroke-width: 0.5;  stroke: rgb(0,0,0); fill: rgb(179,177,178);" />
<path d="M 1811.366,1919.592 A 522.500,522.500 0.00 0,1 1803.5,1925.3 L 1803.5,1925.3 1791.3,1908.6 1778.8,1892.1 1765.9,1876.0 1752.9,1860.4 1739.6,1845.5 1726.2,1831.3 1712.7,1817.9 1699.0,1805.3 1685.4,1793.8 1671.7,1783.3 1658.0,1773.9 1644.4,1765.6 1630.8,1758.6 1617.3,1752.8 1604.0,1748.4 1590.9,1745.2 1577.9,1743.4 1565.1,1743.0 1552.6,1743.9 1540.3,1746.3 1528.3,1750.0 1516.6,1755.0 1505.1,1761.5 1494.0,1769.2 1483.3,1778.2 1472.9,1788.5 1462.8,1800.0 1453.2,1812.7 1443.9,1826.4 1435.0,1841.2 1426.5,1857.0 1418.4,1873.6 1410.7,1891.1 1403.4,1909.2 1396.5,1928.0 1390.1,1947.2 1384.0,1966.9 1378.4,1986.8 1373.2,2006.9  A 522.500,522.500 0.00 0,1 1363.7,2004.4 L 1363.7,2004.4 1369.4,1984.4 1375.4,1964.5 1381.9,1944.9 1388.8,1925.7 1396.1,1907.0 1403.8,1888.9 1411.9,1871.5 1420.5,1854.9 1429.5,1839.2 1438.8,1824.4 1448.6,1810.6 1458.8,1798.0 1469.3,1786.5 1480.2,1776.2 1491.4,1767.1 1503.0,1759.3 1514.9,1752.9 1527.1,1747.7 1539.6,1743.9 1552.4,1741.5 1565.4,1740.5 1578.6,1740.8 1592.1,1742.4 1605.7,1745.4 1619.5,1749.8 1633.4,1755.4 1647.4,1762.2 1661.5,1770.3 1675.6,1779.5 1689.7,1789.8 1703.8,1801.2 1717.9,1813.5 1731.8,1826.7 1745.6,1840.8 1759.3,1855.5 1772.7,1870.9 1785.9,1886.7 1798.8,1903.0 1811.4,1919.6  Z" style="stroke-width: 0.5;  stroke: rgb(0,0,0); fill: rgb(179,177,178);" />
<path d="M 1820.406,1912.731 A 522.500,522.500 0.00 0,1 1812.9,1918.4 L 1812.9,1918.4 1800.3,1901.9 1787.3,1885.6 1774.1,1869.8 1760.6,1854.5 1746.8,1839.8 1732.9,1825.8 1718.9,1812.6 1704.8,1800.3 1690.6,1789.0 1676.4,1778.7 1662.2,1769.6 1648.0,1761.5 1633.9,1754.7 1619.9,1749.1 1606.0,1744.8 1592.3,1741.9 1578.7,1740.2 1565.4,1739.9 1552.3,1741.0 1539.4,1743.4 1526.8,1747.2 1514.5,1752.4 1502.5,1758.9 1490.8,1766.6 1479.4,1775.7 1468.4,1786.0 1457.8,1797.5 1447.5,1810.2 1437.7,1823.9 1428.2,1838.7 1419.1,1854.4 1410.5,1871.0 1402.2,1888.4 1394.4,1906.5 1387.0,1925.2 1380.0,1944.4 1373.4,1964.0 1367.3,1983.8 1361.6,2003.8  A 522.500,522.500 0.00 0,1 1352.7,2001.3 L 1352.7,2001.3 1358.8,1981.4 1365.4,1961.6 1372.3,1942.0 1379.7,1922.9 1387.5,1904.2 1395.8,1886.2 1404.4,1868.8 1413.5,1852.3 1423.0,1836.6 1433.0,1821.9 1443.3,1808.1 1454.0,1795.5 1465.1,1784.0 1476.5,1773.6 1488.3,1764.5 1500.5,1756.7 1512.9,1750.2 1525.7,1745.0 1538.8,1741.1 1552.1,1738.6 1565.7,1737.4 1579.5,1737.6 1593.5,1739.1 1607.6,1741.9 1621.9,1746.1 1636.4,1751.5 1650.9,1758.2 1665.5,1766.0 1680.1,1775.0 1694.7,1785.1 1709.3,1796.2 1723.9,1808.3 1738.3,1821.3 1752.6,1835.1 1766.6,1849.6 1780.5,1864.7 1794.1,1880.3 1807.4,1896.4 1820.4,1912.7  Z" style="stroke-width: 0.5;  stroke: rgb(0,0,0); fill: rgb(179,177,178);" />
</g>
<g id="plot0">
<g id="plot0-axis">
</g>
<line x1='2243.5' y1='1598.3' x2='2243.5' y2='1598.3' style="stroke-width:14.0;stroke:rgb(0,0,0);stroke-linecap:round;fill:none;" />
<line x1='2243.5' y1='1598.3' x2='2283.2' y2='1603.5' style="stroke-width:14.0;stroke:rgb(0,0,0);stroke-linecap:round;fill:none;" />
<line x1='2283.2' y1='1603.5' x2='2283.2' y2='1603.5' style="stroke-width:14.0;stroke:rgb(0,0,0);stroke-linecap:round;fill:none;" />
<text x="2299.8" y="1628.4" font-size="46.8px" font-family="CMUBright-Roman" style="text-anchor:start;fill:rgb(255,38,78);" transform="rotate(7.5,2299.8,1628.4)" >HistosurSECH105<tspan baseline-shift="-40%" font-size="90%">s</tspan>02872</text>
</g>
<defs>
<pattern id="vline" width="10" height="10" patternTransform="rotate(0 0 0)" patternUnits="userSpaceOnUse"><line x1="0" y1="0" x2="0" y2="10" style="stroke:black;stroke-width:5" /></pattern>
<pattern id="checker" width="10" height="10" patternTransform="rotate(45 0 0)" patternUnits="userSpaceOnUse"><line x1="0" y1="0" x2="10" y2="0" style="stroke:black;stroke-width:5" /><line x1="0" y1="0" x2="0" y2="10" style="stroke:black;stroke-width:4" /></pattern>
<pattern id="vline-sparse" width="10" height="10" patternTransform="rotate(0 0 0)" patternUnits="userSpaceOnUse"><line x1="0" y1="0" x2="0" y2="10" style="stroke:black;stroke-width:2" /></pattern>
<pattern id="checker" width="10" height="10" patternTransform="rotate(45 0 0)" patternUnits="userSpaceOnUse"><line x1="0" y1="0" x2="10" y2="0" style="stroke:black;stroke-width:2" /><line x1="0" y1="0" x2="0" y2="10" style="stroke:black;stroke-width:2" /></pattern>
<pattern id="hline" width="10" height="10" patternTransform="rotate(0 0 0)" patternUnits="userSpaceOnUse"><line x1="0" y1="0" x2="10" y2="0" style="stroke:black;stroke-width:5" /></pattern>
<pattern id="hline-sparse" width="10" height="10" patternTransform="rotate(0 0 0)" patternUnits="userSpaceOnUse"><line x1="0" y1="0" x2="10" y2="0" style="stroke:black;stroke-width:2" /></pattern>
</defs>
</svg>
