<?xml version="1.0" encoding="utf-8" standalone="no"?>
<!DOCTYPE svg PUBLIC "-//W3C//DTD SVG 1.1//EN" "http://www.w3.org/Graphics/SVG/1.1/DTD/svg11.dtd">
<svg width="3000px" height="3000px" version="1.1" xmlns="http://www.w3.org/2000/svg" xmlns:xlink="http://www.w3.org/1999/xlink">
<g id="bg">
<rect x="0" y="0" width="3000px" height="3000px" style="fill:rgb(255,255,255);"/>
</g>
<g id="ideograms">
<path d="M1500.000,950.000 A550.000,550.000 40.000 0,1 1710.154,2008.267 L1786.574,2193.091 A750.000,750.000 0.000 0,0 1500.000,750.000 Z" style="stroke-width:2.0;stroke:rgb(0,0,0);stroke-linecap:round;fill:rgb(179,177,178);" />
<text x="2456.3" y="1310.1" font-size="46.8px" font-family="CMUBright-Roman" style="text-anchor:middle;fill:rgb(0,0,0);" transform="rotate(438.8,2456.3,1310.1)" >HistocapCB192<tspan baseline-shift="-40%" font-size="90%">5</tspan></text>
<line x1='1501.2' y1='750.0' x2='1501.2' y2='738.0' style="stroke-width:8.0;stroke:rgb(150,150,150);stroke-linecap:round;fill:none;" />
<text x="1515.3" y="726.2" font-size="41.6px" font-family="CMUBright-Roman" style="text-anchor:start;fill:rgb(150,150,150);" transform="rotate(270.1,1515.3,726.2)" >1800 kb</text>
<line x1='1602.7' y1='757.1' x2='1604.3' y2='745.2' style="stroke-width:8.0;stroke:rgb(150,150,150);stroke-linecap:round;fill:none;" />
<line x1='1702.2' y1='777.8' x2='1705.5' y2='766.2' style="stroke-width:8.0;stroke:rgb(150,150,150);stroke-linecap:round;fill:none;" />
<line x1='1798.1' y1='811.8' x2='1802.9' y2='800.8' style="stroke-width:8.0;stroke:rgb(150,150,150);stroke-linecap:round;fill:none;" />
<line x1='1888.5' y1='858.4' x2='1894.7' y2='848.2' style="stroke-width:8.0;stroke:rgb(150,150,150);stroke-linecap:round;fill:none;" />
<line x1='1971.7' y1='916.9' x2='1979.2' y2='907.6' style="stroke-width:8.0;stroke:rgb(150,150,150);stroke-linecap:round;fill:none;" />
<text x="1997.6" y="907.1" font-size="41.6px" font-family="CMUBright-Roman" style="text-anchor:start;fill:rgb(150,150,150);" transform="rotate(309.0,1997.6,907.1)" >1850 kb</text>
<line x1='2046.2' y1='986.1' x2='2055.0' y2='977.8' style="stroke-width:8.0;stroke:rgb(150,150,150);stroke-linecap:round;fill:none;" />
<line x1='2110.7' y1='1064.7' x2='2120.5' y2='1057.7' style="stroke-width:8.0;stroke:rgb(150,150,150);stroke-linecap:round;fill:none;" />
<line x1='2164.0' y1='1151.3' x2='2174.6' y2='1145.7' style="stroke-width:8.0;stroke:rgb(150,150,150);stroke-linecap:round;fill:none;" />
<line x1='2205.1' y1='1244.4' x2='2216.4' y2='1240.3' style="stroke-width:8.0;stroke:rgb(150,150,150);stroke-linecap:round;fill:none;" />
<line x1='2233.2' y1='1342.1' x2='2244.9' y2='1339.6' style="stroke-width:8.0;stroke:rgb(150,150,150);stroke-linecap:round;fill:none;" />
<text x="2259.5" y="1350.8" font-size="41.6px" font-family="CMUBright-Roman" style="text-anchor:start;fill:rgb(150,150,150);" transform="rotate(347.8,2259.5,1350.8)" >1900 kb</text>
<line x1='2247.8' y1='1442.7' x2='2259.8' y2='1441.8' style="stroke-width:8.0;stroke:rgb(150,150,150);stroke-linecap:round;fill:none;" />
<line x1='2248.7' y1='1544.4' x2='2260.7' y2='1545.2' style="stroke-width:8.0;stroke:rgb(150,150,150);stroke-linecap:round;fill:none;" />
<line x1='2235.8' y1='1645.3' x2='2247.6' y2='1647.7' style="stroke-width:8.0;stroke:rgb(150,150,150);stroke-linecap:round;fill:none;" />
<line x1='2209.4' y1='1743.5' x2='2220.7' y2='1747.4' style="stroke-width:8.0;stroke:rgb(150,150,150);stroke-linecap:round;fill:none;" />
<line x1='2169.9' y1='1837.3' x2='2180.6' y2='1842.7' style="stroke-width:8.0;stroke:rgb(150,150,150);stroke-linecap:round;fill:none;" />
<text x="2184.9" y="1860.5" font-size="41.6px" font-family="CMUBright-Roman" style="text-anchor:start;fill:rgb(150,150,150);" transform="rotate(26.7,2184.9,1860.5)" >1950 kb</text>
<line x1='2118.1' y1='1924.8' x2='2128.0' y2='1931.6' style="stroke-width:8.0;stroke:rgb(150,150,150);stroke-linecap:round;fill:none;" />
<line x1='2055.0' y1='2004.5' x2='2063.8' y2='2012.6' style="stroke-width:8.0;stroke:rgb(150,150,150);stroke-linecap:round;fill:none;" />
<line x1='1981.6' y1='2074.9' x2='1989.3' y2='2084.1' style="stroke-width:8.0;stroke:rgb(150,150,150);stroke-linecap:round;fill:none;" />
<line x1='1899.4' y1='2134.8' x2='1905.8' y2='2145.0' style="stroke-width:8.0;stroke:rgb(150,150,150);stroke-linecap:round;fill:none;" />
<line x1='1809.8' y1='2183.0' x2='1814.8' y2='2193.9' style="stroke-width:8.0;stroke:rgb(150,150,150);stroke-linecap:round;fill:none;" />
<text x="1806.9" y="2210.5" font-size="41.6px" font-family="CMUBright-Roman" style="text-anchor:start;fill:rgb(150,150,150);" transform="rotate(65.6,1806.9,2210.5)" >2000 kb</text>
<g id="highlighttrack_0">
<path d="M2037.484,1383.335 A550.000,550.000 40.000 0,1 2041.278,1402.441 L2238.107,1366.965 A750.000,750.000 0.000 0,0 2232.933,1340.911 Z" style="stroke-width:14.0;stroke:rgb(0,0,0);stroke-linecap:round;fill:rgb(255,38,78);" />
</g>
<path d="M1500.000,950.000 A550.000,550.000 40.000 0,1 1710.154,2008.267 L1786.574,2193.091 A750.000,750.000 0.000 0,0 1500.000,750.000 Z" style="stroke-width:2.0;stroke:rgb(0,0,0);stroke-linecap:round;fill:none;" />
<path d="M1491.723,2049.938 A550.000,550.000 40.000 0,1 1282.220,994.953 L1203.028,811.300 A750.000,750.000 0.000 0,0 1488.713,2249.915 Z" style="stroke-width:2.0;stroke:rgb(0,0,0);stroke-linecap:round;fill:rgb(179,177,178);" />
<text x="499.5" y="1698.7" font-size="46.8px" font-family="CMUBright-Roman" style="text-anchor:middle;fill:rgb(0,0,0);" transform="rotate(78.8,499.5,1698.7)" >HistomissSECH86<tspan baseline-shift="-40%" font-size="90%">5</tspan></text>
<line x1='1121.8' y1='852.4' x2='1115.7' y2='842.0' style="stroke-width:8.0;stroke:rgb(150,150,150);stroke-linecap:round;fill:none;" />
<line x1='1037.6' y1='909.5' x2='1030.2' y2='900.0' style="stroke-width:8.0;stroke:rgb(150,150,150);stroke-linecap:round;fill:none;" />
<line x1='962.0' y1='977.5' x2='953.4' y2='969.1' style="stroke-width:8.0;stroke:rgb(150,150,150);stroke-linecap:round;fill:none;" />
<line x1='896.2' y1='1055.1' x2='886.6' y2='1047.9' style="stroke-width:8.0;stroke:rgb(150,150,150);stroke-linecap:round;fill:none;" />
<line x1='841.6' y1='1140.8' x2='831.1' y2='1135.1' style="stroke-width:8.0;stroke:rgb(150,150,150);stroke-linecap:round;fill:none;" />
<text x="813.9" y="1141.7" font-size="41.6px" font-family="CMUBright-Roman" style="text-anchor:end;fill:rgb(150,150,150);" transform="rotate(28.6,813.9,1141.7)" >1550 kb</text>
<line x1='799.1' y1='1233.2' x2='787.8' y2='1228.9' style="stroke-width:8.0;stroke:rgb(150,150,150);stroke-linecap:round;fill:none;" />
<line x1='769.4' y1='1330.5' x2='757.7' y2='1327.8' style="stroke-width:8.0;stroke:rgb(150,150,150);stroke-linecap:round;fill:none;" />
<line x1='753.2' y1='1430.9' x2='741.2' y2='1429.8' style="stroke-width:8.0;stroke:rgb(150,150,150);stroke-linecap:round;fill:none;" />
<line x1='750.7' y1='1532.6' x2='738.7' y2='1533.1' style="stroke-width:8.0;stroke:rgb(150,150,150);stroke-linecap:round;fill:none;" />
<line x1='762.0' y1='1633.6' x2='750.2' y2='1635.8' style="stroke-width:8.0;stroke:rgb(150,150,150);stroke-linecap:round;fill:none;" />
<text x="741.0" y="1651.7" font-size="41.6px" font-family="CMUBright-Roman" style="text-anchor:end;fill:rgb(150,150,150);" transform="rotate(-10.3,741.0,1651.7)" >1600 kb</text>
<line x1='786.9' y1='1732.2' x2='775.5' y2='1736.0' style="stroke-width:8.0;stroke:rgb(150,150,150);stroke-linecap:round;fill:none;" />
<line x1='824.8' y1='1826.6' x2='814.0' y2='1831.8' style="stroke-width:8.0;stroke:rgb(150,150,150);stroke-linecap:round;fill:none;" />
<line x1='875.2' y1='1914.9' x2='865.2' y2='1921.6' style="stroke-width:8.0;stroke:rgb(150,150,150);stroke-linecap:round;fill:none;" />
<line x1='937.1' y1='1995.6' x2='928.1' y2='2003.6' style="stroke-width:8.0;stroke:rgb(150,150,150);stroke-linecap:round;fill:none;" />
<line x1='1009.3' y1='2067.2' x2='1001.5' y2='2076.3' style="stroke-width:8.0;stroke:rgb(150,150,150);stroke-linecap:round;fill:none;" />
<text x="1004.3" y="2094.4" font-size="41.6px" font-family="CMUBright-Roman" style="text-anchor:end;fill:rgb(150,150,150);" transform="rotate(-49.1,1004.3,2094.4)" >1650 kb</text>
<line x1='1090.6' y1='2128.4' x2='1084.0' y2='2138.5' style="stroke-width:8.0;stroke:rgb(150,150,150);stroke-linecap:round;fill:none;" />
<line x1='1179.4' y1='2178.0' x2='1174.2' y2='2188.9' style="stroke-width:8.0;stroke:rgb(150,150,150);stroke-linecap:round;fill:none;" />
<line x1='1274.0' y1='2215.2' x2='1270.4' y2='2226.6' style="stroke-width:8.0;stroke:rgb(150,150,150);stroke-linecap:round;fill:none;" />
<line x1='1372.9' y1='2239.1' x2='1370.8' y2='2251.0' style="stroke-width:8.0;stroke:rgb(150,150,150);stroke-linecap:round;fill:none;" />
<line x1='1474.0' y1='2249.6' x2='1473.6' y2='2261.5' style="stroke-width:8.0;stroke:rgb(150,150,150);stroke-linecap:round;fill:none;" />
<text x="1487.2" y="2273.9" font-size="41.6px" font-family="CMUBright-Roman" style="text-anchor:end;fill:rgb(150,150,150);" transform="rotate(-88.0,1487.2,2273.9)" >1700 kb</text>
<path d="M1491.723,2049.938 A550.000,550.000 40.000 0,1 1282.220,994.953 L1203.028,811.300 A750.000,750.000 0.000 0,0 1488.713,2249.915 Z" style="stroke-width:2.0;stroke:rgb(0,0,0);stroke-linecap:round;fill:none;" />
</g>
<g id="track_0">
<path d="M 1901.936,1833.847 A 522.500,522.500 0.00 0,1 1800.4,1927.5 L 1800.4,1927.5 1788.3,1910.8 1776.0,1894.3 1763.4,1878.1 1750.6,1862.6 1737.7,1847.6 1724.6,1833.3 1711.4,1819.9 1698.1,1807.3 1684.9,1795.8 1671.7,1785.3 1658.5,1775.9 1645.4,1767.6 1632.4,1760.6 1619.6,1754.9 1606.9,1750.5 1594.5,1747.4 1582.2,1745.7 1570.2,1745.3 1558.5,1746.4 1547.0,1748.8 1535.9,1752.7 1525.1,1757.9 1514.6,1764.4 1504.5,1772.3 1494.7,1781.5 1485.3,1792.0 1476.3,1803.7 1467.7,1816.5 1459.5,1830.5 1451.7,1845.5 1444.3,1861.4 1437.4,1878.3 1430.8,1895.9 1424.6,1914.3 1418.9,1933.2 1413.6,1952.7 1408.7,1972.5 1404.1,1992.6 1400.0,2012.8  A 522.500,522.500 0.00 0,1 1269.0,1968.7 L 1269.0,1968.7 1278.8,1949.4 1289.1,1930.3 1299.9,1911.5 1311.3,1893.1 1323.1,1875.1 1335.5,1857.6 1348.3,1840.8 1361.6,1824.7 1375.4,1809.3 1389.6,1794.8 1404.2,1781.2 1419.3,1768.6 1434.8,1756.9 1450.7,1746.3 1467.0,1736.7 1483.6,1728.3 1500.6,1721.0 1517.8,1714.8 1535.4,1709.8 1553.2,1706.0 1571.3,1703.4 1589.5,1702.0 1608.0,1701.8 1626.6,1702.7 1645.4,1704.8 1664.2,1708.0 1683.1,1712.4 1702.1,1717.8 1721.0,1724.2 1739.9,1731.7 1758.7,1740.1 1777.4,1749.4 1796.0,1759.5 1814.4,1770.4 1832.5,1782.0 1850.4,1794.2 1868.0,1807.0 1885.2,1820.2 1901.9,1833.8  Z" style="stroke-width: 0.5;  stroke: rgb(0,0,0); fill: rgb(179,177,178);" />
<path d="M 1795.450,1930.947 A 522.500,522.500 0.00 0,1 1699.6,1982.9 L 1699.6,1982.9 1691.8,1964.2 1683.8,1945.8 1675.7,1927.7 1667.5,1910.0 1659.3,1893.0 1651.0,1876.6 1642.8,1861.1 1634.6,1846.5 1626.4,1832.9 1618.4,1820.3 1610.5,1808.9 1602.7,1798.8 1595.1,1789.9 1587.6,1782.4 1580.4,1776.2 1573.4,1771.5 1566.6,1768.2 1560.1,1766.3 1553.8,1766.0 1547.9,1767.1 1542.2,1769.8 1536.8,1773.9 1531.7,1779.4 1526.9,1786.4 1522.5,1794.8 1518.4,1804.5 1514.5,1815.6 1511.0,1827.9 1507.9,1841.4 1505.0,1856.0 1502.4,1871.7 1500.2,1888.3 1498.2,1905.8 1496.6,1924.0 1495.2,1942.9 1494.0,1962.3 1493.2,1982.1 1492.5,2002.2 1492.1,2022.4  A 522.500,522.500 0.00 0,1 1468.6,2021.6 L 1468.6,2021.6 1470.0,2001.1 1471.8,1980.8 1473.9,1960.8 1476.3,1941.1 1479.2,1921.8 1482.5,1903.2 1486.2,1885.3 1490.3,1868.1 1494.9,1851.9 1499.9,1836.6 1505.3,1822.4 1511.2,1809.3 1517.6,1797.3 1524.4,1786.6 1531.7,1777.2 1539.4,1769.0 1547.5,1762.3 1556.1,1756.9 1565.1,1752.9 1574.4,1750.3 1584.2,1749.1 1594.3,1749.3 1604.8,1750.9 1615.6,1753.9 1626.6,1758.3 1638.0,1763.9 1649.6,1770.9 1661.4,1779.1 1673.4,1788.5 1685.6,1799.0 1697.9,1810.6 1710.3,1823.1 1722.7,1836.6 1735.1,1850.9 1747.4,1865.9 1759.7,1881.5 1771.8,1897.6 1783.7,1914.2 1795.5,1930.9  Z" style="stroke-width: 0.5;  stroke: rgb(0,0,0); fill: rgb(179,177,178);" />
<path d="M 1936.082,1212.183 A 522.500,522.500 0.00 0,1 1992.5,1325.6 L 1992.5,1325.6 1967.9,1334.2 1943.2,1342.8 1918.3,1351.3 1893.3,1359.7 1868.2,1368.0 1842.9,1376.2 1817.6,1384.2 1792.2,1392.1 1766.6,1400.0 1741.0,1407.6 1715.3,1415.2 1689.5,1422.6 1663.6,1429.8 1637.6,1436.9 1611.6,1443.8 1585.5,1450.6 1559.3,1457.2 1533.1,1463.7 1506.9,1470.0 1480.6,1476.1 1454.2,1482.0 1427.9,1487.8 1401.5,1493.5 1375.1,1498.9 1348.7,1504.2 1322.2,1509.3 1295.8,1514.2 1269.4,1519.0 1243.0,1523.6 1216.6,1528.0 1190.3,1532.3 1163.9,1536.4 1137.6,1540.4 1111.4,1544.2 1085.2,1547.9 1059.1,1551.4 1033.0,1554.8 1007.0,1558.0 981.1,1561.1  A 522.500,522.500 0.00 0,1 981.6,1434.5 L 981.6,1434.5 1006.0,1437.4 1030.7,1440.0 1055.6,1442.2 1080.7,1444.0 1105.9,1445.5 1131.4,1446.5 1156.9,1447.2 1182.6,1447.3 1208.4,1447.0 1234.3,1446.2 1260.2,1445.0 1286.1,1443.2 1312.1,1440.9 1338.0,1438.1 1363.9,1434.8 1389.8,1430.9 1415.6,1426.6 1441.4,1421.7 1467.0,1416.3 1492.6,1410.3 1518.0,1403.8 1543.2,1396.9 1568.3,1389.4 1593.2,1381.4 1618.0,1372.9 1642.5,1363.9 1666.8,1354.5 1690.8,1344.7 1714.6,1334.4 1738.2,1323.6 1761.4,1312.5 1784.4,1301.0 1807.1,1289.2 1829.4,1277.0 1851.5,1264.5 1873.2,1251.8 1894.5,1238.8 1915.5,1225.6 1936.1,1212.2  Z" style="stroke-width: 0.5;  stroke: rgb(0,0,0); fill: rgb(179,177,178);" />
<path d="M 1500.000,977.500 A 522.500,522.500 0.00 0,1 1544.1,979.4 L 1544.1,979.4 1542.0,1001.0 1539.3,1022.6 1536.1,1044.2 1532.2,1065.6 1527.7,1086.9 1522.6,1107.8 1516.7,1128.3 1510.2,1148.4 1502.9,1168.0 1494.8,1186.9 1486.1,1205.3 1476.6,1222.9 1466.3,1239.8 1455.3,1255.9 1443.5,1271.1 1431.0,1285.5 1417.7,1299.0 1403.7,1311.6 1389.0,1323.2 1373.7,1333.8 1357.6,1343.5 1340.9,1352.1 1323.7,1359.8 1305.8,1366.4 1287.3,1372.0 1268.4,1376.7 1249.0,1380.4 1229.1,1383.0 1208.9,1384.8 1188.3,1385.6 1167.4,1385.5 1146.3,1384.6 1125.0,1382.8 1103.6,1380.3 1082.2,1377.0 1060.7,1373.1 1039.4,1368.5 1018.2,1363.3 997.3,1357.7  A 522.500,522.500 0.00 0,1 1038.3,1255.3 L 1038.3,1255.3 1057.1,1265.0 1076.1,1274.2 1095.2,1282.9 1114.5,1291.1 1133.8,1298.5 1153.0,1305.2 1172.1,1311.1 1191.0,1316.2 1209.7,1320.3 1228.1,1323.5 1246.1,1325.6 1263.8,1326.7 1281.0,1326.8 1297.7,1325.7 1313.9,1323.6 1329.5,1320.2 1344.6,1315.8 1359.0,1310.2 1372.8,1303.4 1385.9,1295.6 1398.3,1286.5 1410.0,1276.4 1421.0,1265.2 1431.2,1252.9 1440.8,1239.6 1449.5,1225.4 1457.5,1210.1 1464.8,1194.0 1471.4,1177.1 1477.2,1159.3 1482.3,1140.9 1486.7,1121.8 1490.4,1102.2 1493.5,1082.1 1495.9,1061.5 1497.8,1040.7 1499.0,1019.7 1499.8,998.6 1500.0,977.5  Z" style="stroke-width: 0.5;  stroke: rgb(0,0,0); fill: rgb(179,177,178);" />
<path d="M 2022.064,1478.653 A 522.500,522.500 0.00 0,1 2016.0,1582.4 L 2016.0,1582.4 1991.6,1578.7 1967.0,1575.3 1942.2,1572.3 1917.1,1569.6 1891.9,1567.2 1866.4,1565.3 1840.9,1563.8 1815.2,1562.8 1789.4,1562.2 1763.5,1562.0 1737.5,1562.4 1711.4,1563.2 1685.4,1564.5 1659.3,1566.3 1633.2,1568.7 1607.2,1571.5 1581.1,1574.9 1555.2,1578.8 1529.3,1583.2 1503.5,1588.2 1477.8,1593.6 1452.2,1599.6 1426.8,1606.0 1401.5,1613.0 1376.4,1620.4 1351.5,1628.4 1326.8,1636.8 1302.3,1645.6 1278.0,1654.9 1254.0,1664.6 1230.2,1674.6 1206.7,1685.1 1183.5,1695.9 1160.6,1707.1 1138.0,1718.6 1115.7,1730.3 1093.8,1742.4 1072.1,1754.6 1050.9,1767.0  A 522.500,522.500 0.00 0,1 1006.9,1672.8 L 1006.9,1672.8 1031.3,1664.3 1056.0,1656.0 1080.7,1647.7 1105.6,1639.6 1130.7,1631.6 1155.9,1623.8 1181.3,1616.1 1206.7,1608.6 1232.3,1601.3 1258.1,1594.1 1283.9,1587.1 1309.8,1580.4 1335.9,1573.8 1362.0,1567.4 1388.2,1561.3 1414.5,1555.3 1440.8,1549.6 1467.2,1544.1 1493.7,1538.8 1520.2,1533.7 1546.7,1528.8 1573.3,1524.2 1599.9,1519.8 1626.5,1515.7 1653.2,1511.7 1679.8,1508.0 1706.4,1504.5 1733.0,1501.2 1759.6,1498.2 1786.1,1495.3 1812.6,1492.7 1839.1,1490.3 1865.5,1488.1 1891.8,1486.0 1918.0,1484.2 1944.2,1482.6 1970.3,1481.1 1996.2,1479.8 2022.1,1478.7  Z" style="stroke-width: 0.5;  stroke: rgb(0,0,0); fill: rgb(179,177,178);" />
<path d="M 2014.214,1407.319 A 522.500,522.500 0.00 0,1 2022.0,1477.4 L 2022.0,1477.4 1996.2,1478.6 1970.2,1480.0 1944.1,1481.5 1917.9,1483.2 1891.7,1485.1 1865.4,1487.2 1839.0,1489.4 1812.5,1491.9 1786.0,1494.5 1759.5,1497.4 1732.9,1500.5 1706.3,1503.8 1679.7,1507.3 1653.0,1511.0 1626.4,1515.0 1599.8,1519.2 1573.2,1523.6 1546.6,1528.2 1520.0,1533.0 1493.5,1538.1 1467.1,1543.3 1440.6,1548.8 1414.3,1554.5 1388.0,1560.5 1361.8,1566.6 1335.7,1572.9 1309.6,1579.5 1283.7,1586.2 1257.8,1593.1 1232.1,1600.2 1206.5,1607.5 1180.9,1614.9 1155.6,1622.6 1130.3,1630.3 1105.2,1638.2 1080.3,1646.3 1055.5,1654.5 1030.8,1662.8 1006.3,1671.2  A 522.500,522.500 0.00 0,1 987.8,1603.1 L 987.8,1603.1 1014.0,1597.9 1040.2,1592.6 1066.4,1587.3 1092.7,1582.1 1118.9,1576.9 1145.2,1571.7 1171.5,1566.4 1197.7,1561.2 1224.0,1556.1 1250.3,1550.9 1276.6,1545.7 1302.9,1540.6 1329.3,1535.5 1355.6,1530.3 1381.9,1525.2 1408.3,1520.1 1434.6,1515.1 1460.9,1510.0 1487.3,1505.0 1513.6,1499.9 1540.0,1494.9 1566.4,1489.9 1592.7,1485.0 1619.1,1480.0 1645.4,1475.0 1671.8,1470.1 1698.2,1465.2 1724.5,1460.3 1750.9,1455.4 1777.2,1450.5 1803.6,1445.7 1829.9,1440.8 1856.3,1436.0 1882.6,1431.2 1908.9,1426.4 1935.3,1421.6 1961.6,1416.8 1987.9,1412.1 2014.2,1407.3  Z" style="stroke-width: 0.5;  stroke: rgb(0,0,0); fill: rgb(179,177,178);" />
<path d="M 2015.725,1583.868 A 522.500,522.500 0.00 0,1 2001.3,1647.3 L 2001.3,1647.3 1978.4,1640.8 1955.1,1634.7 1931.5,1628.9 1907.7,1623.6 1883.6,1618.8 1859.3,1614.5 1834.8,1610.8 1810.1,1607.6 1785.3,1605.0 1760.3,1603.0 1735.3,1601.6 1710.3,1600.9 1685.1,1600.8 1660.0,1601.4 1634.9,1602.7 1609.8,1604.7 1584.8,1607.4 1559.9,1610.8 1535.1,1614.9 1510.3,1619.6 1485.8,1625.1 1461.4,1631.3 1437.2,1638.1 1413.2,1645.6 1389.4,1653.8 1365.8,1662.6 1342.6,1672.0 1319.6,1682.1 1296.9,1692.7 1274.5,1703.8 1252.5,1715.5 1230.8,1727.7 1209.4,1740.3 1188.5,1753.4 1167.9,1766.8 1147.8,1780.7 1128.0,1794.8 1108.7,1809.2 1089.9,1823.8  A 522.500,522.500 0.00 0,1 1052.8,1770.3 L 1052.8,1770.3 1074.0,1757.7 1095.5,1745.3 1117.3,1733.2 1139.5,1721.3 1162.0,1709.7 1184.8,1698.4 1208.0,1687.4 1231.4,1676.8 1255.1,1666.6 1279.0,1656.8 1303.2,1647.5 1327.6,1638.5 1352.3,1630.0 1377.1,1622.0 1402.2,1614.5 1427.4,1607.4 1452.8,1600.9 1478.3,1594.9 1503.9,1589.4 1529.7,1584.4 1555.5,1579.9 1581.5,1576.0 1607.4,1572.6 1633.5,1569.7 1659.5,1567.4 1685.6,1565.5 1711.6,1564.2 1737.6,1563.4 1763.6,1563.0 1789.4,1563.2 1815.2,1563.8 1840.9,1564.9 1866.4,1566.4 1891.8,1568.4 1917.0,1570.8 1942.1,1573.5 1966.9,1576.6 1991.4,1580.1 2015.7,1583.9  Z" style="stroke-width: 0.5;  stroke: rgb(0,0,0); fill: rgb(179,177,178);" />
<path d="M 1957.088,1753.134 A 522.500,522.500 0.00 0,1 1931.2,1795.1 L 1931.2,1795.1 1912.9,1782.9 1894.2,1771.1 1875.1,1759.7 1855.7,1748.9 1836.0,1738.7 1816.0,1729.3 1795.9,1720.5 1775.6,1712.6 1755.2,1705.5 1734.6,1699.3 1714.1,1694.0 1693.5,1689.7 1672.9,1686.4 1652.4,1684.2 1632.0,1683.0 1611.7,1682.9 1591.5,1683.9 1571.5,1686.0 1551.7,1689.2 1532.2,1693.5 1512.8,1698.8 1493.8,1705.3 1475.1,1712.9 1456.7,1721.4 1438.6,1731.1 1420.9,1741.7 1403.6,1753.3 1386.7,1765.8 1370.2,1779.1 1354.2,1793.3 1338.6,1808.3 1323.5,1824.1 1308.9,1840.4 1294.7,1857.4 1281.1,1874.9 1268.0,1892.8 1255.4,1911.1 1243.3,1929.7 1231.8,1948.4  A 522.500,522.500 0.00 0,1 1190.7,1921.1 L 1190.7,1921.1 1204.2,1903.2 1218.3,1885.4 1232.9,1867.9 1248.0,1850.8 1263.6,1834.1 1279.7,1817.9 1296.3,1802.2 1313.3,1787.1 1330.9,1772.8 1348.8,1759.1 1367.2,1746.2 1386.0,1734.0 1405.1,1722.8 1424.7,1712.4 1444.6,1702.9 1464.8,1694.3 1485.3,1686.7 1506.0,1680.1 1527.1,1674.4 1548.4,1669.7 1569.8,1666.1 1591.5,1663.4 1613.3,1661.8 1635.2,1661.1 1657.3,1661.4 1679.3,1662.7 1701.5,1664.9 1723.6,1668.0 1745.7,1672.1 1767.7,1677.0 1789.7,1682.7 1811.4,1689.3 1833.1,1696.6 1854.5,1704.6 1875.7,1713.2 1896.5,1722.4 1917.1,1732.2 1937.3,1742.5 1957.1,1753.1  Z" style="stroke-width: 0.5;  stroke: rgb(0,0,0); fill: rgb(179,177,178);" />
<path d="M 1545.535,979.488 A 522.500,522.500 0.00 0,1 1587.3,984.8 L 1587.3,984.8 1583.3,1006.6 1578.8,1028.3 1573.7,1050.0 1567.9,1071.6 1561.6,1093.0 1554.5,1114.1 1546.8,1134.8 1538.4,1155.1 1529.2,1174.9 1519.4,1194.2 1508.9,1212.9 1497.6,1230.9 1485.6,1248.3 1472.9,1264.9 1459.6,1280.8 1445.5,1295.8 1430.7,1310.0 1415.2,1323.4 1399.1,1335.8 1382.3,1347.4 1365.0,1358.1 1347.0,1367.8 1328.4,1376.6 1309.4,1384.4 1289.8,1391.3 1269.8,1397.3 1249.3,1402.3 1228.4,1406.4 1207.2,1409.7 1185.7,1412.0 1163.9,1413.5 1141.9,1414.2 1119.8,1414.0 1097.6,1413.1 1075.4,1411.5 1053.2,1409.3 1031.1,1406.3 1009.1,1402.8 987.4,1398.8  A 522.500,522.500 0.00 0,1 997.2,1357.9 L 997.2,1357.9 1018.2,1363.6 1039.4,1368.7 1060.7,1373.3 1082.2,1377.2 1103.6,1380.5 1125.0,1383.0 1146.3,1384.8 1167.4,1385.7 1188.3,1385.8 1208.9,1384.9 1229.2,1383.2 1249.1,1380.5 1268.5,1376.8 1287.5,1372.2 1306.0,1366.5 1323.9,1359.9 1341.2,1352.2 1357.9,1343.6 1374.0,1333.9 1389.4,1323.3 1404.2,1311.7 1418.2,1299.1 1431.5,1285.6 1444.1,1271.3 1455.9,1256.0 1467.0,1239.9 1477.3,1223.0 1486.9,1205.4 1495.7,1187.1 1503.8,1168.1 1511.1,1148.5 1517.8,1128.4 1523.7,1107.9 1528.9,1087.0 1533.5,1065.8 1537.4,1044.3 1540.7,1022.7 1543.4,1001.1 1545.5,979.5  Z" style="stroke-width: 0.5;  stroke: rgb(0,0,0); fill: rgb(179,177,178);" />
<path d="M 1991.712,1676.706 A 522.500,522.500 0.00 0,1 1976.0,1715.4 L 1976.0,1715.4 1955.1,1706.2 1933.8,1697.4 1912.1,1689.1 1890.1,1681.3 1867.9,1674.1 1845.4,1667.5 1822.7,1661.6 1799.8,1656.4 1776.8,1651.9 1753.7,1648.2 1730.6,1645.3 1707.4,1643.2 1684.2,1642.0 1661.0,1641.6 1637.9,1642.2 1614.9,1643.6 1592.0,1646.0 1569.3,1649.3 1546.7,1653.4 1524.3,1658.5 1502.1,1664.5 1480.2,1671.4 1458.5,1679.2 1437.1,1687.9 1416.1,1697.4 1395.4,1707.7 1375.0,1718.8 1355.0,1730.7 1335.3,1743.4 1316.1,1756.7 1297.3,1770.7 1279.0,1785.3 1261.1,1800.4 1243.6,1816.1 1226.7,1832.2 1210.3,1848.8 1194.3,1865.6 1178.9,1882.8 1164.0,1900.1  A 522.500,522.500 0.00 0,1 1133.1,1872.0 L 1133.1,1872.0 1149.6,1855.6 1166.7,1839.4 1184.2,1823.4 1202.2,1807.8 1220.7,1792.5 1239.6,1777.7 1259.0,1763.3 1278.8,1749.5 1299.0,1736.2 1319.6,1723.5 1340.5,1711.4 1361.9,1700.0 1383.5,1689.3 1405.5,1679.3 1427.8,1670.0 1450.4,1661.5 1473.2,1653.7 1496.3,1646.8 1519.6,1640.6 1543.1,1635.3 1566.8,1630.7 1590.6,1627.0 1614.6,1624.1 1638.6,1622.0 1662.7,1620.8 1686.9,1620.3 1711.0,1620.6 1735.2,1621.6 1759.3,1623.4 1783.4,1626.0 1807.4,1629.2 1831.2,1633.2 1854.9,1637.7 1878.4,1642.9 1901.6,1648.7 1924.6,1655.0 1947.3,1661.8 1969.7,1669.0 1991.7,1676.7  Z" style="stroke-width: 0.5;  stroke: rgb(0,0,0); fill: rgb(179,177,178);" />
<path d="M 2004.730,1364.892 A 522.500,522.500 0.00 0,1 2010.6,1389.2 L 2010.6,1389.2 1984.5,1394.8 1958.4,1400.5 1932.2,1406.1 1906.0,1411.8 1879.9,1417.4 1853.7,1423.0 1827.5,1428.6 1801.3,1434.2 1775.1,1439.8 1748.9,1445.4 1722.7,1450.9 1696.4,1456.5 1670.2,1462.0 1643.9,1467.5 1617.7,1473.0 1591.4,1478.5 1565.2,1484.0 1538.9,1489.4 1512.6,1494.8 1486.4,1500.3 1460.1,1505.7 1433.8,1511.1 1407.5,1516.4 1381.2,1521.8 1355.0,1527.2 1328.7,1532.5 1302.4,1537.8 1276.1,1543.1 1249.8,1548.4 1223.6,1553.6 1197.3,1558.9 1171.0,1564.1 1144.7,1569.4 1118.5,1574.6 1092.2,1579.8 1066.0,1584.9 1039.7,1590.1 1013.5,1595.3 987.2,1600.4  A 522.500,522.500 0.00 0,1 983.0,1575.8 L 983.0,1575.8 1009.2,1571.9 1035.4,1568.0 1061.6,1564.0 1087.9,1559.9 1114.2,1555.7 1140.5,1551.5 1166.9,1547.2 1193.2,1542.8 1219.6,1538.3 1246.1,1533.7 1272.5,1529.1 1298.9,1524.4 1325.3,1519.5 1351.8,1514.6 1378.2,1509.6 1404.7,1504.5 1431.1,1499.3 1457.5,1494.1 1483.9,1488.7 1510.3,1483.3 1536.7,1477.7 1563.0,1472.1 1589.3,1466.4 1615.6,1460.6 1641.9,1454.7 1668.1,1448.8 1694.3,1442.7 1720.4,1436.6 1746.6,1430.4 1772.6,1424.2 1798.6,1417.8 1824.6,1411.4 1850.5,1405.0 1876.4,1398.4 1902.2,1391.8 1927.9,1385.2 1953.6,1378.5 1979.2,1371.7 2004.7,1364.9  Z" style="stroke-width: 0.5;  stroke: rgb(0,0,0); fill: rgb(179,177,178);" />
<path d="M 1998.677,1655.972 A 522.500,522.500 0.00 0,1 1991.7,1676.6 L 1991.7,1676.6 1969.5,1668.9 1946.9,1661.5 1924.0,1654.6 1900.8,1648.1 1877.3,1642.2 1853.5,1636.7 1829.6,1631.9 1805.5,1627.7 1781.2,1624.1 1756.8,1621.1 1732.3,1618.9 1707.8,1617.3 1683.2,1616.5 1658.5,1616.4 1633.9,1617.1 1609.4,1618.5 1584.9,1620.7 1560.4,1623.6 1536.1,1627.3 1511.9,1631.8 1487.9,1637.1 1464.0,1643.1 1440.4,1649.8 1416.9,1657.3 1393.7,1665.5 1370.8,1674.4 1348.1,1684.0 1325.7,1694.2 1303.7,1705.1 1281.9,1716.6 1260.6,1728.7 1239.6,1741.3 1218.9,1754.4 1198.7,1767.9 1178.9,1781.9 1159.6,1796.3 1140.6,1810.9 1122.2,1825.9 1104.2,1841.1  A 522.500,522.500 0.00 0,1 1090.3,1824.3 L 1090.3,1824.3 1109.1,1809.7 1128.4,1795.4 1148.0,1781.3 1168.1,1767.5 1188.6,1754.1 1209.6,1741.0 1230.8,1728.5 1252.5,1716.3 1274.5,1704.7 1296.8,1693.7 1319.5,1683.2 1342.4,1673.2 1365.7,1663.9 1389.1,1655.3 1412.9,1647.2 1436.8,1639.9 1461.0,1633.2 1485.3,1627.2 1509.9,1622.0 1534.5,1617.4 1559.3,1613.5 1584.1,1610.4 1609.1,1608.0 1634.1,1606.2 1659.1,1605.2 1684.2,1604.9 1709.2,1605.3 1734.2,1606.3 1759.1,1608.0 1783.9,1610.3 1808.6,1613.3 1833.2,1616.8 1857.5,1620.9 1881.7,1625.6 1905.7,1630.8 1929.4,1636.5 1952.8,1642.6 1975.9,1649.1 1998.7,1656.0  Z" style="stroke-width: 0.5;  stroke: rgb(0,0,0); fill: rgb(179,177,178);" />
<path d="M 1924.809,1804.210 A 522.500,522.500 0.00 0,1 1911.8,1821.6 L 1911.8,1821.6 1894.5,1808.4 1876.8,1795.6 1858.7,1783.2 1840.3,1771.4 1821.6,1760.3 1802.6,1749.8 1783.5,1740.0 1764.2,1731.1 1744.7,1723.1 1725.2,1716.0 1705.6,1709.9 1686.1,1704.8 1666.5,1700.7 1647.0,1697.8 1627.6,1695.9 1608.2,1695.2 1589.1,1695.6 1570.1,1697.1 1551.3,1699.8 1532.7,1703.7 1514.4,1708.7 1496.4,1714.9 1478.6,1722.1 1461.2,1730.5 1444.2,1740.0 1427.4,1750.5 1411.1,1762.0 1395.2,1774.5 1379.7,1788.0 1364.6,1802.3 1350.0,1817.4 1335.9,1833.2 1322.2,1849.8 1309.0,1867.0 1296.3,1884.7 1284.1,1902.8 1272.5,1921.4 1261.3,1940.2 1250.7,1959.2  A 522.500,522.500 0.00 0,1 1232.4,1948.8 L 1232.4,1948.8 1243.9,1930.0 1255.9,1911.5 1268.4,1893.3 1281.5,1875.4 1295.0,1858.0 1309.1,1841.1 1323.6,1824.8 1338.7,1809.1 1354.2,1794.2 1370.1,1780.1 1386.5,1766.8 1403.3,1754.5 1420.5,1743.0 1438.0,1732.6 1455.9,1723.1 1474.2,1714.7 1492.8,1707.4 1511.7,1701.1 1530.8,1696.0 1550.2,1691.9 1569.8,1689.0 1589.6,1687.2 1609.6,1686.5 1629.7,1686.9 1649.9,1688.3 1670.1,1690.9 1690.5,1694.5 1710.8,1699.1 1731.1,1704.7 1751.4,1711.3 1771.5,1718.8 1791.6,1727.1 1811.4,1736.2 1831.1,1746.0 1850.5,1756.6 1869.6,1767.8 1888.4,1779.5 1906.8,1791.6 1924.8,1804.2  Z" style="stroke-width: 0.5;  stroke: rgb(0,0,0); fill: rgb(179,177,178);" />
<path d="M 1975.026,1717.617 A 522.500,522.500 0.00 0,1 1966.6,1735.1 L 1966.6,1735.1 1946.3,1725.1 1925.5,1715.6 1904.4,1706.5 1883.0,1697.9 1861.3,1690.0 1839.3,1682.6 1817.2,1676.0 1794.8,1670.1 1772.4,1665.0 1749.8,1660.6 1727.2,1657.1 1704.5,1654.5 1681.9,1652.8 1659.2,1651.9 1636.7,1652.0 1614.2,1653.1 1591.8,1655.1 1569.6,1658.0 1547.6,1661.9 1525.8,1666.8 1504.1,1672.6 1482.8,1679.4 1461.7,1687.1 1440.9,1695.7 1420.4,1705.2 1400.3,1715.6 1380.5,1726.8 1361.1,1738.8 1342.2,1751.6 1323.6,1765.1 1305.4,1779.3 1287.7,1794.1 1270.5,1809.5 1253.7,1825.5 1237.5,1841.9 1221.7,1858.8 1206.4,1876.0 1191.7,1893.5 1177.5,1911.1  A 522.500,522.500 0.00 0,1 1162.5,1898.9 L 1162.5,1898.9 1177.5,1881.6 1193.0,1864.5 1209.0,1847.7 1225.5,1831.3 1242.5,1815.2 1260.0,1799.6 1277.9,1784.5 1296.3,1770.0 1315.2,1756.1 1334.4,1742.8 1354.1,1730.3 1374.2,1718.4 1394.6,1707.4 1415.3,1697.1 1436.4,1687.7 1457.8,1679.2 1479.5,1671.5 1501.5,1664.7 1523.7,1658.8 1546.1,1653.8 1568.7,1649.7 1591.4,1646.5 1614.3,1644.2 1637.3,1642.9 1660.4,1642.5 1683.6,1642.9 1706.8,1644.2 1729.9,1646.4 1753.1,1649.4 1776.1,1653.2 1799.1,1657.8 1821.9,1663.1 1844.6,1669.1 1867.1,1675.8 1889.3,1683.1 1911.2,1691.0 1932.9,1699.4 1954.1,1708.3 1975.0,1717.6  Z" style="stroke-width: 0.5;  stroke: rgb(0,0,0); fill: rgb(179,177,178);" />
<path d="M 1587.984,984.961 A 522.500,522.500 0.00 0,1 1602.5,987.7 L 1602.5,987.7 1597.9,1009.4 1592.7,1031.2 1586.9,1052.9 1580.5,1074.5 1573.5,1095.8 1565.7,1116.9 1557.4,1137.7 1548.3,1158.0 1538.5,1177.9 1528.1,1197.3 1516.9,1216.1 1505.1,1234.2 1492.5,1251.7 1479.3,1268.5 1465.3,1284.5 1450.7,1299.7 1435.4,1314.2 1419.4,1327.8 1402.8,1340.5 1385.6,1352.4 1367.8,1363.3 1349.4,1373.4 1330.5,1382.6 1311.0,1390.8 1291.1,1398.1 1270.7,1404.5 1249.8,1410.0 1228.7,1414.7 1207.1,1418.4 1185.3,1421.3 1163.3,1423.3 1141.0,1424.5 1118.7,1425.0 1096.2,1424.6 1073.7,1423.6 1051.3,1421.9 1028.9,1419.6 1006.7,1416.7 984.7,1413.3  A 522.500,522.500 0.00 0,1 987.4,1398.7 L 987.4,1398.7 1009.1,1402.7 1031.1,1406.2 1053.2,1409.2 1075.4,1411.4 1097.7,1413.1 1119.9,1414.0 1142.0,1414.1 1164.0,1413.4 1185.7,1411.9 1207.3,1409.6 1228.5,1406.4 1249.4,1402.3 1269.8,1397.2 1289.9,1391.3 1309.5,1384.4 1328.6,1376.5 1347.1,1367.8 1365.1,1358.1 1382.5,1347.4 1399.3,1335.9 1415.4,1323.4 1430.9,1310.1 1445.7,1295.8 1459.8,1280.8 1473.3,1265.0 1486.0,1248.3 1498.0,1231.0 1509.3,1212.9 1519.8,1194.3 1529.7,1175.0 1538.8,1155.2 1547.3,1134.9 1555.0,1114.2 1562.1,1093.1 1568.5,1071.7 1574.3,1050.2 1579.5,1028.4 1584.0,1006.7 1588.0,985.0  Z" style="stroke-width: 0.5;  stroke: rgb(0,0,0); fill: rgb(179,177,178);" />
<path d="M 1997.927,1341.648 A 522.500,522.500 0.00 0,1 2001.8,1354.4 L 2001.8,1354.4 1976.5,1361.7 1951.1,1369.0 1925.6,1376.2 1900.0,1383.3 1874.4,1390.4 1848.7,1397.4 1822.9,1404.3 1797.1,1411.1 1771.2,1417.9 1745.2,1424.6 1719.2,1431.2 1693.1,1437.7 1667.0,1444.1 1640.9,1450.4 1614.7,1456.6 1588.5,1462.7 1562.2,1468.7 1535.9,1474.6 1509.6,1480.4 1483.2,1486.2 1456.8,1491.8 1430.4,1497.2 1404.0,1502.6 1377.6,1507.9 1351.2,1513.1 1324.8,1518.2 1298.4,1523.1 1272.0,1528.0 1245.6,1532.8 1219.2,1537.4 1192.8,1542.0 1166.4,1546.4 1140.1,1550.8 1113.8,1555.1 1087.5,1559.2 1061.3,1563.3 1035.1,1567.3 1009.0,1571.2 982.9,1575.0  A 522.500,522.500 0.00 0,1 981.2,1561.8 L 981.2,1561.8 1007.2,1558.7 1033.3,1555.4 1059.4,1552.0 1085.6,1548.6 1111.9,1544.9 1138.2,1541.2 1164.5,1537.3 1190.9,1533.3 1217.3,1529.2 1243.8,1524.9 1270.2,1520.5 1296.7,1515.9 1323.2,1511.2 1349.6,1506.3 1376.1,1501.3 1402.6,1496.2 1429.0,1490.9 1455.4,1485.5 1481.8,1479.9 1508.2,1474.2 1534.6,1468.4 1560.9,1462.4 1587.1,1456.2 1613.4,1450.0 1639.5,1443.6 1665.6,1437.0 1691.7,1430.3 1717.7,1423.6 1743.6,1416.6 1769.4,1409.6 1795.2,1402.4 1820.8,1395.2 1846.4,1387.8 1871.9,1380.3 1897.3,1372.8 1922.6,1365.1 1947.8,1357.4 1972.9,1349.5 1997.9,1341.6  Z" style="stroke-width: 0.5;  stroke: rgb(0,0,0); fill: rgb(179,177,178);" />
<path d="M 1965.768,1736.783 A 522.500,522.500 0.00 0,1 1959.6,1748.6 L 1959.6,1748.6 1939.7,1738.1 1919.3,1728.0 1898.7,1718.4 1877.6,1709.4 1856.4,1700.9 1834.8,1693.1 1813.1,1686.0 1791.2,1679.7 1769.1,1674.1 1747.0,1669.4 1724.8,1665.5 1702.6,1662.5 1680.4,1660.4 1658.2,1659.3 1636.1,1659.1 1614.0,1660.0 1592.2,1661.8 1570.4,1664.5 1548.9,1668.3 1527.5,1673.1 1506.4,1678.9 1485.5,1685.6 1465.0,1693.3 1444.7,1701.9 1424.8,1711.5 1405.2,1722.0 1386.0,1733.3 1367.1,1745.5 1348.7,1758.5 1330.7,1772.2 1313.1,1786.6 1296.0,1801.7 1279.4,1817.4 1263.2,1833.6 1247.6,1850.3 1232.4,1867.5 1217.8,1885.0 1203.7,1902.7 1190.1,1920.7  A 522.500,522.500 0.00 0,1 1179.5,1912.7 L 1179.5,1912.7 1193.6,1895.0 1208.3,1877.4 1223.4,1860.2 1239.1,1843.3 1255.2,1826.8 1271.9,1810.8 1289.1,1795.3 1306.7,1780.4 1324.7,1766.2 1343.2,1752.6 1362.1,1739.8 1381.4,1727.8 1401.1,1716.5 1421.2,1706.2 1441.6,1696.6 1462.3,1688.0 1483.3,1680.3 1504.6,1673.5 1526.1,1667.7 1547.9,1662.8 1569.8,1658.9 1592.0,1656.0 1614.3,1654.0 1636.7,1653.0 1659.2,1652.9 1681.7,1653.8 1704.3,1655.5 1726.9,1658.2 1749.5,1661.7 1772.0,1666.1 1794.4,1671.3 1816.7,1677.3 1838.8,1684.0 1860.7,1691.4 1882.3,1699.4 1903.7,1708.0 1924.8,1717.1 1945.5,1726.8 1965.8,1736.8  Z" style="stroke-width: 0.5;  stroke: rgb(0,0,0); fill: rgb(179,177,178);" />
</g>
<g id="plot0">
<g id="plot0-axis">
</g>
<line x1='2243.2' y1='1600.5' x2='2243.2' y2='1600.5' style="stroke-width:14.0;stroke:rgb(0,0,0);stroke-linecap:round;fill:none;" />
<line x1='2243.2' y1='1600.5' x2='2282.9' y2='1605.8' style="stroke-width:14.0;stroke:rgb(0,0,0);stroke-linecap:round;fill:none;" />
<line x1='2282.9' y1='1605.8' x2='2282.9' y2='1605.8' style="stroke-width:14.0;stroke:rgb(0,0,0);stroke-linecap:round;fill:none;" />
<text x="2299.4" y="1630.8" font-size="46.8px" font-family="CMUBright-Roman" style="text-anchor:start;fill:rgb(255,38,78);" transform="rotate(7.7,2299.4,1630.8)" >HistocapCB192<tspan baseline-shift="-40%" font-size="90%">s</tspan>00611</text>
</g>
<defs>
<pattern id="hline" width="10" height="10" patternTransform="rotate(0 0 0)" patternUnits="userSpaceOnUse"><line x1="0" y1="0" x2="10" y2="0" style="stroke:black;stroke-width:5" /></pattern>
<pattern id="vline" width="10" height="10" patternTransform="rotate(0 0 0)" patternUnits="userSpaceOnUse"><line x1="0" y1="0" x2="0" y2="10" style="stroke:black;stroke-width:5" /></pattern>
<pattern id="checker" width="10" height="10" patternTransform="rotate(45 0 0)" patternUnits="userSpaceOnUse"><line x1="0" y1="0" x2="10" y2="0" style="stroke:black;stroke-width:2" /><line x1="0" y1="0" x2="0" y2="10" style="stroke:black;stroke-width:2" /></pattern>
<pattern id="vline-sparse" width="10" height="10" patternTransform="rotate(0 0 0)" patternUnits="userSpaceOnUse"><line x1="0" y1="0" x2="0" y2="10" style="stroke:black;stroke-width:2" /></pattern>
<pattern id="checker" width="10" height="10" patternTransform="rotate(45 0 0)" patternUnits="userSpaceOnUse"><line x1="0" y1="0" x2="10" y2="0" style="stroke:black;stroke-width:5" /><line x1="0" y1="0" x2="0" y2="10" style="stroke:black;stroke-width:4" /></pattern>
<pattern id="hline-sparse" width="10" height="10" patternTransform="rotate(0 0 0)" patternUnits="userSpaceOnUse"><line x1="0" y1="0" x2="10" y2="0" style="stroke:black;stroke-width:2" /></pattern>
</defs>
</svg>
