<?xml version="1.0" encoding="utf-8" standalone="no"?>
<!DOCTYPE svg PUBLIC "-//W3C//DTD SVG 1.1//EN" "http://www.w3.org/Graphics/SVG/1.1/DTD/svg11.dtd">
<svg width="3000px" height="3000px" version="1.1" xmlns="http://www.w3.org/2000/svg" xmlns:xlink="http://www.w3.org/1999/xlink">
<g id="bg">
<rect x="0" y="0" width="3000px" height="3000px" style="fill:rgb(255,255,255);"/>
</g>
<g id="ideograms">
<path d="M1500.000,950.000 A550.000,550.000 40.000 0,1 1689.997,2016.141 L1759.086,2203.828 A750.000,750.000 0.000 0,0 1500.000,750.000 Z" style="stroke-width:2.0;stroke:rgb(0,0,0);stroke-linecap:round;fill:rgb(179,177,178);" />
<text x="2459.9" y="1328.9" font-size="46.8px" font-family="CMUBright-Roman" style="text-anchor:middle;fill:rgb(0,0,0);" transform="rotate(439.9,2459.9,1328.9)" >HistocapCB180<tspan baseline-shift="-40%" font-size="90%">3</tspan></text>
<line x1='1590.1' y1='755.4' x2='1591.6' y2='743.5' style="stroke-width:8.0;stroke:rgb(150,150,150);stroke-linecap:round;fill:none;" />
<line x1='1688.7' y1='774.1' x2='1691.7' y2='762.5' style="stroke-width:8.0;stroke:rgb(150,150,150);stroke-linecap:round;fill:none;" />
<line x1='1783.8' y1='805.8' x2='1788.4' y2='794.7' style="stroke-width:8.0;stroke:rgb(150,150,150);stroke-linecap:round;fill:none;" />
<text x="1805.8" y="789.0" font-size="41.6px" font-family="CMUBright-Roman" style="text-anchor:start;fill:rgb(150,150,150);" transform="rotate(292.2,1805.8,789.0)" >1700 kb</text>
<line x1='1873.9' y1='849.9' x2='1879.9' y2='839.5' style="stroke-width:8.0;stroke:rgb(150,150,150);stroke-linecap:round;fill:none;" />
<line x1='1957.4' y1='905.6' x2='1964.7' y2='896.1' style="stroke-width:8.0;stroke:rgb(150,150,150);stroke-linecap:round;fill:none;" />
<line x1='2032.6' y1='971.9' x2='2041.1' y2='963.5' style="stroke-width:8.0;stroke:rgb(150,150,150);stroke-linecap:round;fill:none;" />
<line x1='2098.3' y1='1047.7' x2='2107.9' y2='1040.5' style="stroke-width:8.0;stroke:rgb(150,150,150);stroke-linecap:round;fill:none;" />
<line x1='2153.3' y1='1131.6' x2='2163.7' y2='1125.7' style="stroke-width:8.0;stroke:rgb(150,150,150);stroke-linecap:round;fill:none;" />
<text x="2181.0" y="1132.1" font-size="41.6px" font-family="CMUBright-Roman" style="text-anchor:start;fill:rgb(150,150,150);" transform="rotate(330.6,2181.0,1132.1)" >1750 kb</text>
<line x1='2196.6' y1='1222.1' x2='2207.8' y2='1217.6' style="stroke-width:8.0;stroke:rgb(150,150,150);stroke-linecap:round;fill:none;" />
<line x1='2227.5' y1='1317.5' x2='2239.1' y2='1314.6' style="stroke-width:8.0;stroke:rgb(150,150,150);stroke-linecap:round;fill:none;" />
<line x1='2245.3' y1='1416.2' x2='2257.2' y2='1414.9' style="stroke-width:8.0;stroke:rgb(150,150,150);stroke-linecap:round;fill:none;" />
<line x1='2249.8' y1='1516.4' x2='2261.8' y2='1516.7' style="stroke-width:8.0;stroke:rgb(150,150,150);stroke-linecap:round;fill:none;" />
<line x1='2240.9' y1='1616.4' x2='2252.8' y2='1618.2' style="stroke-width:8.0;stroke:rgb(150,150,150);stroke-linecap:round;fill:none;" />
<text x="2262.3" y="1633.9" font-size="41.6px" font-family="CMUBright-Roman" style="text-anchor:start;fill:rgb(150,150,150);" transform="rotate(8.9,2262.3,1633.9)" >1800 kb</text>
<line x1='2218.8' y1='1714.2' x2='2230.3' y2='1717.6' style="stroke-width:8.0;stroke:rgb(150,150,150);stroke-linecap:round;fill:none;" />
<line x1='2183.8' y1='1808.2' x2='2194.7' y2='1813.1' style="stroke-width:8.0;stroke:rgb(150,150,150);stroke-linecap:round;fill:none;" />
<line x1='2136.5' y1='1896.7' x2='2146.7' y2='1903.0' style="stroke-width:8.0;stroke:rgb(150,150,150);stroke-linecap:round;fill:none;" />
<line x1='2077.9' y1='1978.1' x2='2087.1' y2='1985.7' style="stroke-width:8.0;stroke:rgb(150,150,150);stroke-linecap:round;fill:none;" />
<line x1='2008.9' y1='2050.9' x2='2017.1' y2='2059.7' style="stroke-width:8.0;stroke:rgb(150,150,150);stroke-linecap:round;fill:none;" />
<text x="2014.8" y="2077.9" font-size="41.6px" font-family="CMUBright-Roman" style="text-anchor:start;fill:rgb(150,150,150);" transform="rotate(47.3,2014.8,2077.9)" >1850 kb</text>
<line x1='1930.9' y1='2113.9' x2='1937.8' y2='2123.7' style="stroke-width:8.0;stroke:rgb(150,150,150);stroke-linecap:round;fill:none;" />
<line x1='1845.1' y1='2165.9' x2='1850.6' y2='2176.5' style="stroke-width:8.0;stroke:rgb(150,150,150);stroke-linecap:round;fill:none;" />
<g id="highlighttrack_0">
<path d="M2035.218,1373.346 A550.000,550.000 40.000 0,1 2046.022,1433.966 L2244.575,1409.954 A750.000,750.000 0.000 0,0 2229.843,1327.290 Z" style="stroke-width:14.0;stroke:rgb(0,0,0);stroke-linecap:round;fill:rgb(255,38,78);" />
</g>
<path d="M1500.000,950.000 A550.000,550.000 40.000 0,1 1689.997,2016.141 L1759.086,2203.828 A750.000,750.000 0.000 0,0 1500.000,750.000 Z" style="stroke-width:2.0;stroke:rgb(0,0,0);stroke-linecap:round;fill:none;" />
<path d="M1473.164,2049.345 A550.000,550.000 40.000 0,1 1285.045,993.745 L1206.880,809.652 A750.000,750.000 0.000 0,0 1463.405,2249.107 Z" style="stroke-width:2.0;stroke:rgb(0,0,0);stroke-linecap:round;fill:rgb(179,177,178);" />
<text x="495.8" y="1679.0" font-size="46.8px" font-family="CMUBright-Roman" style="text-anchor:middle;fill:rgb(0,0,0);" transform="rotate(79.9,495.8,1679.0)" >HistoohiSECH96<tspan baseline-shift="-40%" font-size="90%">3</tspan></text>
<line x1='1201.7' y1='811.9' x2='1196.9' y2='800.9' style="stroke-width:8.0;stroke:rgb(150,150,150);stroke-linecap:round;fill:none;" />
<line x1='1112.5' y1='857.8' x2='1106.3' y2='847.6' style="stroke-width:8.0;stroke:rgb(150,150,150);stroke-linecap:round;fill:none;" />
<line x1='1030.3' y1='915.3' x2='1022.8' y2='905.9' style="stroke-width:8.0;stroke:rgb(150,150,150);stroke-linecap:round;fill:none;" />
<line x1='956.5' y1='983.2' x2='947.8' y2='974.9' style="stroke-width:8.0;stroke:rgb(150,150,150);stroke-linecap:round;fill:none;" />
<text x="929.5" y="976.9" font-size="41.6px" font-family="CMUBright-Roman" style="text-anchor:end;fill:rgb(150,150,150);" transform="rotate(43.6,929.5,976.9)" >1250 kb</text>
<line x1='892.4' y1='1060.4' x2='882.7' y2='1053.3' style="stroke-width:8.0;stroke:rgb(150,150,150);stroke-linecap:round;fill:none;" />
<line x1='839.1' y1='1145.4' x2='828.6' y2='1139.7' style="stroke-width:8.0;stroke:rgb(150,150,150);stroke-linecap:round;fill:none;" />
<line x1='797.7' y1='1236.7' x2='786.5' y2='1232.5' style="stroke-width:8.0;stroke:rgb(150,150,150);stroke-linecap:round;fill:none;" />
<line x1='768.9' y1='1332.8' x2='757.2' y2='1330.1' style="stroke-width:8.0;stroke:rgb(150,150,150);stroke-linecap:round;fill:none;" />
<line x1='753.1' y1='1431.9' x2='741.2' y2='1430.8' style="stroke-width:8.0;stroke:rgb(150,150,150);stroke-linecap:round;fill:none;" />
<text x="728.1" y="1443.6" font-size="41.6px" font-family="CMUBright-Roman" style="text-anchor:end;fill:rgb(150,150,150);" transform="rotate(5.2,728.1,1443.6)" >1300 kb</text>
<line x1='750.7' y1='1532.1' x2='738.7' y2='1532.6' style="stroke-width:8.0;stroke:rgb(150,150,150);stroke-linecap:round;fill:none;" />
<line x1='761.7' y1='1631.8' x2='749.9' y2='1633.9' style="stroke-width:8.0;stroke:rgb(150,150,150);stroke-linecap:round;fill:none;" />
<line x1='785.9' y1='1729.2' x2='774.4' y2='1732.8' style="stroke-width:8.0;stroke:rgb(150,150,150);stroke-linecap:round;fill:none;" />
<line x1='822.8' y1='1822.4' x2='812.0' y2='1827.6' style="stroke-width:8.0;stroke:rgb(150,150,150);stroke-linecap:round;fill:none;" />
<line x1='871.9' y1='1909.9' x2='861.9' y2='1916.5' style="stroke-width:8.0;stroke:rgb(150,150,150);stroke-linecap:round;fill:none;" />
<text x="859.6" y="1934.7" font-size="41.6px" font-family="CMUBright-Roman" style="text-anchor:end;fill:rgb(150,150,150);" transform="rotate(-33.1,859.6,1934.7)" >1350 kb</text>
<line x1='932.2' y1='1990.1' x2='923.2' y2='1997.9' style="stroke-width:8.0;stroke:rgb(150,150,150);stroke-linecap:round;fill:none;" />
<line x1='1002.7' y1='2061.4' x2='994.8' y2='2070.4' style="stroke-width:8.0;stroke:rgb(150,150,150);stroke-linecap:round;fill:none;" />
<line x1='1082.1' y1='2122.8' x2='1075.4' y2='2132.7' style="stroke-width:8.0;stroke:rgb(150,150,150);stroke-linecap:round;fill:none;" />
<line x1='1168.9' y1='2173.0' x2='1163.6' y2='2183.7' style="stroke-width:8.0;stroke:rgb(150,150,150);stroke-linecap:round;fill:none;" />
<line x1='1261.7' y1='2211.1' x2='1257.9' y2='2222.5' style="stroke-width:8.0;stroke:rgb(150,150,150);stroke-linecap:round;fill:none;" />
<text x="1267.4" y="2238.2" font-size="41.6px" font-family="CMUBright-Roman" style="text-anchor:end;fill:rgb(150,150,150);" transform="rotate(-71.5,1267.4,2238.2)" >1400 kb</text>
<line x1='1358.7' y1='2236.6' x2='1356.5' y2='2248.4' style="stroke-width:8.0;stroke:rgb(150,150,150);stroke-linecap:round;fill:none;" />
<line x1='1458.3' y1='2248.8' x2='1457.6' y2='2260.8' style="stroke-width:8.0;stroke:rgb(150,150,150);stroke-linecap:round;fill:none;" />
<path d="M1473.164,2049.345 A550.000,550.000 40.000 0,1 1285.045,993.745 L1206.880,809.652 A750.000,750.000 0.000 0,0 1463.405,2249.107 Z" style="stroke-width:2.0;stroke:rgb(0,0,0);stroke-linecap:round;fill:none;" />
</g>
<g id="track_0">
<path d="M 2018.767,1437.650 A 522.500,522.500 0.00 0,1 1999.4,1653.5 L 1999.4,1653.5 1976.4,1646.6 1953.1,1640.1 1929.5,1634.0 1905.5,1628.3 1881.3,1623.1 1856.9,1618.3 1832.3,1614.0 1807.5,1610.3 1782.5,1607.1 1757.5,1604.5 1732.3,1602.5 1707.0,1601.1 1681.6,1600.4 1656.3,1600.2 1630.9,1600.8 1605.5,1601.9 1580.1,1603.8 1554.8,1606.3 1529.6,1609.5 1504.4,1613.3 1479.4,1617.8 1454.4,1622.9 1429.7,1628.7 1405.1,1635.2 1380.7,1642.3 1356.5,1649.9 1332.6,1658.2 1308.8,1667.1 1285.4,1676.5 1262.2,1686.5 1239.3,1696.9 1216.8,1707.9 1194.5,1719.3 1172.7,1731.1 1151.1,1743.3 1130.0,1755.9 1109.2,1768.8 1088.9,1781.9 1069.0,1795.3  A 522.500,522.500 0.00 0,1 986.4,1596.0 L 986.4,1596.0 1012.5,1591.1 1038.7,1586.3 1064.9,1581.4 1091.2,1576.7 1117.5,1571.9 1143.8,1567.2 1170.1,1562.6 1196.5,1557.9 1222.9,1553.4 1249.3,1548.8 1275.7,1544.3 1302.2,1539.8 1328.7,1535.4 1355.2,1531.1 1381.7,1526.8 1408.2,1522.5 1434.8,1518.3 1461.4,1514.1 1487.9,1510.0 1514.5,1505.9 1541.1,1501.9 1567.7,1497.9 1594.3,1494.0 1620.9,1490.1 1647.5,1486.3 1674.1,1482.5 1700.6,1478.7 1727.2,1475.1 1753.8,1471.4 1780.4,1467.9 1806.9,1464.3 1833.5,1460.8 1860.0,1457.4 1886.5,1454.0 1913.0,1450.6 1939.5,1447.3 1965.9,1444.1 1992.4,1440.8 2018.8,1437.6  Z" style="stroke-width: 0.5;  stroke: rgb(0,0,0); fill: rgb(179,177,178);" />
<path d="M 1971.028,1726.139 A 522.500,522.500 0.00 0,1 1880.8,1857.7 L 1880.8,1857.7 1865.3,1843.4 1849.4,1829.5 1833.1,1816.0 1816.7,1803.1 1800.0,1790.8 1783.2,1779.3 1766.3,1768.5 1749.3,1758.6 1732.3,1749.7 1715.3,1741.8 1698.4,1734.9 1681.5,1729.2 1664.8,1724.5 1648.3,1721.1 1632.0,1718.9 1615.9,1717.9 1600.0,1718.2 1584.5,1719.8 1569.2,1722.6 1554.3,1726.7 1539.8,1732.1 1525.7,1738.7 1511.9,1746.5 1498.6,1755.6 1485.7,1765.9 1473.2,1777.3 1461.2,1789.8 1449.7,1803.3 1438.7,1817.9 1428.1,1833.4 1418.1,1849.8 1408.5,1866.9 1399.5,1884.8 1390.9,1903.4 1382.9,1922.4 1375.4,1942.0 1368.3,1961.8 1361.8,1982.0 1355.7,2002.2  A 522.500,522.500 0.00 0,1 1210.5,1934.9 L 1210.5,1934.9 1223.2,1916.4 1236.4,1897.9 1250.2,1879.8 1264.5,1861.9 1279.3,1844.5 1294.7,1827.5 1310.6,1811.0 1327.0,1795.1 1343.8,1779.9 1361.2,1765.3 1378.9,1751.5 1397.2,1738.4 1415.8,1726.2 1434.9,1714.8 1454.4,1704.3 1474.2,1694.7 1494.4,1686.0 1514.9,1678.3 1535.7,1671.5 1556.8,1665.7 1578.2,1660.9 1599.8,1657.1 1621.6,1654.2 1643.5,1652.4 1665.6,1651.5 1687.8,1651.5 1710.1,1652.5 1732.5,1654.4 1754.9,1657.2 1777.2,1660.9 1799.5,1665.4 1821.7,1670.7 1843.7,1676.8 1865.6,1683.5 1887.3,1690.9 1908.7,1699.0 1929.8,1707.6 1950.6,1716.6 1971.0,1726.1  Z" style="stroke-width: 0.5;  stroke: rgb(0,0,0); fill: rgb(179,177,178);" />
<path d="M 1800.184,1072.337 A 522.500,522.500 0.00 0,1 1877.6,1138.9 L 1877.6,1138.9 1860.2,1155.2 1842.3,1171.5 1823.9,1187.5 1805.1,1203.2 1785.9,1218.7 1766.2,1233.8 1746.1,1248.5 1725.7,1262.9 1704.8,1276.7 1683.6,1290.2 1661.9,1303.1 1640.0,1315.5 1617.7,1327.3 1595.1,1338.6 1572.1,1349.3 1548.9,1359.4 1525.4,1368.8 1501.7,1377.6 1477.7,1385.8 1453.6,1393.3 1429.2,1400.2 1404.6,1406.4 1379.9,1411.9 1355.1,1416.8 1330.2,1421.0 1305.1,1424.5 1280.1,1427.4 1254.9,1429.6 1229.8,1431.3 1204.7,1432.3 1179.6,1432.6 1154.7,1432.5 1129.8,1431.7 1105.0,1430.4 1080.4,1428.6 1056.0,1426.3 1031.8,1423.5 1007.8,1420.3 984.2,1416.7  A 522.500,522.500 0.00 0,1 1010.3,1317.7 L 1010.3,1317.7 1031.8,1325.4 1053.6,1332.7 1075.8,1339.5 1098.2,1345.7 1120.8,1351.3 1143.7,1356.3 1166.6,1360.7 1189.7,1364.2 1212.9,1367.1 1236.1,1369.1 1259.3,1370.3 1282.4,1370.7 1305.5,1370.3 1328.6,1368.9 1351.4,1366.7 1374.1,1363.5 1396.7,1359.5 1419.0,1354.5 1441.0,1348.7 1462.8,1341.9 1484.3,1334.2 1505.5,1325.7 1526.4,1316.2 1546.9,1306.0 1567.0,1294.8 1586.7,1282.9 1606.0,1270.2 1624.9,1256.8 1643.3,1242.6 1661.3,1227.8 1678.7,1212.3 1695.7,1196.3 1712.2,1179.7 1728.2,1162.7 1743.7,1145.2 1758.6,1127.4 1773.0,1109.2 1786.9,1090.9 1800.2,1072.3  Z" style="stroke-width: 0.5;  stroke: rgb(0,0,0); fill: rgb(179,177,178);" />
<path d="M 1998.296,1657.184 A 522.500,522.500 0.00 0,1 1971.9,1724.3 L 1971.9,1724.3 1950.9,1714.5 1929.4,1705.2 1907.6,1696.3 1885.5,1687.8 1863.0,1679.9 1840.3,1672.6 1817.3,1665.8 1794.1,1659.7 1770.7,1654.3 1747.2,1649.6 1723.5,1645.7 1699.8,1642.5 1676.0,1640.1 1652.1,1638.5 1628.2,1637.8 1604.4,1637.8 1580.5,1638.8 1556.8,1640.5 1533.1,1643.1 1509.5,1646.6 1486.1,1650.9 1462.9,1656.1 1439.8,1662.1 1416.9,1668.9 1394.3,1676.5 1371.9,1684.9 1349.8,1694.0 1327.9,1703.9 1306.4,1714.5 1285.2,1725.8 1264.4,1737.7 1244.0,1750.2 1223.9,1763.3 1204.3,1776.9 1185.0,1790.9 1166.3,1805.4 1147.9,1820.2 1130.1,1835.4 1112.7,1850.8  A 522.500,522.500 0.00 0,1 1069.0,1795.3 L 1069.0,1795.3 1088.9,1782.0 1109.2,1768.8 1129.9,1755.9 1151.1,1743.4 1172.6,1731.2 1194.5,1719.4 1216.7,1708.0 1239.2,1697.1 1262.1,1686.7 1285.2,1676.8 1308.7,1667.4 1332.4,1658.6 1356.3,1650.4 1380.5,1642.8 1404.9,1635.8 1429.5,1629.4 1454.2,1623.7 1479.1,1618.6 1504.1,1614.2 1529.3,1610.5 1554.5,1607.4 1579.8,1605.0 1605.1,1603.3 1630.5,1602.2 1655.8,1601.8 1681.2,1602.1 1706.5,1603.0 1731.7,1604.5 1756.9,1606.7 1781.9,1609.4 1806.8,1612.7 1831.6,1616.6 1856.2,1621.0 1880.5,1625.9 1904.6,1631.4 1928.5,1637.2 1952.1,1643.5 1975.4,1650.2 1998.3,1657.2  Z" style="stroke-width: 0.5;  stroke: rgb(0,0,0); fill: rgb(179,177,178);" />
<path d="M 1539.342,978.983 A 522.500,522.500 0.00 0,1 1603.2,987.8 L 1603.2,987.8 1599.0,1007.8 1594.6,1027.6 1589.8,1047.1 1584.7,1066.2 1579.3,1084.8 1573.6,1102.7 1567.7,1119.9 1561.4,1136.2 1554.9,1151.5 1548.1,1165.8 1541.0,1179.0 1533.7,1191.0 1526.1,1201.8 1518.3,1211.2 1510.2,1219.4 1501.9,1226.1 1493.4,1231.5 1484.8,1235.4 1475.9,1237.8 1466.9,1238.8 1457.7,1238.3 1448.4,1236.4 1438.9,1233.0 1429.4,1228.2 1419.8,1222.0 1410.1,1214.5 1400.3,1205.6 1390.6,1195.4 1380.8,1184.1 1371.1,1171.6 1361.4,1158.0 1351.8,1143.5 1342.2,1128.0 1332.8,1111.8 1323.6,1094.8 1314.5,1077.2 1305.6,1059.2 1296.9,1040.8 1288.5,1022.2  A 522.500,522.500 0.00 0,1 1295.8,1019.1 L 1295.8,1019.1 1303.8,1037.7 1312.1,1056.1 1320.4,1074.1 1329.0,1091.7 1337.6,1108.7 1346.2,1125.0 1354.9,1140.5 1363.6,1155.1 1372.3,1168.6 1381.0,1181.1 1389.5,1192.5 1398.0,1202.6 1406.3,1211.4 1414.5,1218.9 1422.6,1225.0 1430.4,1229.7 1438.1,1233.0 1445.6,1234.8 1452.8,1235.1 1459.8,1234.0 1466.6,1231.3 1473.1,1227.2 1479.3,1221.7 1485.2,1214.7 1490.9,1206.3 1496.3,1196.6 1501.3,1185.6 1506.1,1173.3 1510.6,1159.8 1514.8,1145.2 1518.6,1129.6 1522.2,1113.0 1525.5,1095.5 1528.5,1077.3 1531.2,1058.4 1533.6,1039.1 1535.8,1019.3 1537.7,999.2 1539.3,979.0  Z" style="stroke-width: 0.5;  stroke: rgb(0,0,0); fill: rgb(179,177,178);" />
<path d="M 1877.795,1139.061 A 522.500,522.500 0.00 0,1 1904.4,1169.1 L 1904.4,1169.1 1885.4,1184.4 1866.0,1199.6 1846.2,1214.5 1826.0,1229.3 1805.4,1243.7 1784.4,1257.9 1763.1,1271.7 1741.5,1285.2 1719.5,1298.3 1697.2,1311.1 1674.5,1323.4 1651.6,1335.2 1628.4,1346.6 1604.9,1357.5 1581.1,1367.9 1557.1,1377.8 1532.8,1387.2 1508.4,1396.0 1483.7,1404.3 1458.9,1412.1 1433.9,1419.3 1408.8,1425.9 1383.5,1432.0 1358.1,1437.5 1332.7,1442.5 1307.1,1446.9 1281.6,1450.8 1256.0,1454.1 1230.4,1456.9 1204.8,1459.1 1179.2,1460.9 1153.7,1462.1 1128.3,1462.8 1103.0,1463.1 1077.9,1462.9 1052.9,1462.3 1028.1,1461.3 1003.5,1459.9 979.2,1458.1  A 522.500,522.500 0.00 0,1 984.0,1417.9 L 984.0,1417.9 1007.7,1421.5 1031.6,1424.6 1055.8,1427.4 1080.3,1429.6 1104.9,1431.4 1129.7,1432.6 1154.6,1433.3 1179.6,1433.5 1204.6,1433.0 1229.7,1432.0 1254.9,1430.3 1280.0,1428.0 1305.1,1425.1 1330.1,1421.5 1355.1,1417.3 1379.9,1412.4 1404.6,1406.8 1429.2,1400.6 1453.6,1393.7 1477.8,1386.2 1501.7,1378.0 1525.5,1369.1 1549.0,1359.6 1572.2,1349.6 1595.1,1338.9 1617.7,1327.6 1640.0,1315.7 1662.0,1303.3 1683.6,1290.4 1704.9,1277.0 1725.8,1263.1 1746.2,1248.7 1766.3,1234.0 1786.0,1218.9 1805.2,1203.4 1824.1,1187.7 1842.4,1171.7 1860.3,1155.4 1877.8,1139.1  Z" style="stroke-width: 0.5;  stroke: rgb(0,0,0); fill: rgb(179,177,178);" />
<path d="M 1998.111,1342.229 A 522.500,522.500 0.00 0,1 2008.2,1378.7 L 2008.2,1378.7 1982.3,1384.8 1956.4,1390.9 1930.5,1397.0 1904.5,1403.1 1878.5,1409.1 1852.5,1415.1 1826.4,1421.1 1800.3,1427.0 1774.1,1432.9 1748.0,1438.8 1721.8,1444.5 1695.6,1450.3 1669.3,1456.0 1643.1,1461.7 1616.8,1467.3 1590.5,1472.9 1564.2,1478.4 1537.9,1483.8 1511.5,1489.3 1485.2,1494.6 1458.8,1500.0 1432.5,1505.2 1406.1,1510.4 1379.7,1515.6 1353.3,1520.7 1326.9,1525.8 1300.6,1530.8 1274.2,1535.8 1247.8,1540.7 1221.5,1545.5 1195.1,1550.3 1168.8,1555.1 1142.4,1559.8 1116.1,1564.5 1089.8,1569.1 1063.5,1573.7 1037.3,1578.2 1011.0,1582.7 984.8,1587.2  A 522.500,522.500 0.00 0,1 979.9,1549.8 L 979.9,1549.8 1005.9,1547.3 1032.0,1544.6 1058.1,1541.8 1084.4,1538.9 1110.7,1535.8 1137.0,1532.6 1163.4,1529.3 1189.8,1525.8 1216.3,1522.1 1242.8,1518.3 1269.3,1514.4 1295.9,1510.3 1322.4,1506.0 1348.9,1501.6 1375.5,1497.0 1402.0,1492.2 1428.6,1487.3 1455.1,1482.3 1481.5,1477.0 1508.0,1471.6 1534.4,1466.1 1560.8,1460.4 1587.1,1454.5 1613.4,1448.5 1639.6,1442.3 1665.8,1436.0 1691.9,1429.5 1717.9,1422.9 1743.8,1416.2 1769.7,1409.3 1795.5,1402.3 1821.2,1395.2 1846.8,1387.9 1872.3,1380.5 1897.7,1373.1 1923.0,1365.5 1948.1,1357.8 1973.2,1350.1 1998.1,1342.2  Z" style="stroke-width: 0.5;  stroke: rgb(0,0,0); fill: rgb(179,177,178);" />
<path d="M 1723.886,1027.897 A 522.500,522.500 0.00 0,1 1753.9,1043.4 L 1753.9,1043.4 1742.9,1062.7 1731.3,1081.9 1719.1,1100.9 1706.4,1119.5 1693.1,1137.8 1679.3,1155.6 1664.9,1172.9 1650.0,1189.6 1634.6,1205.7 1618.7,1221.0 1602.3,1235.7 1585.4,1249.5 1568.1,1262.4 1550.2,1274.6 1532.0,1285.7 1513.3,1296.0 1494.2,1305.3 1474.8,1313.6 1455.0,1320.9 1434.9,1327.2 1414.4,1332.5 1393.7,1336.8 1372.7,1340.0 1351.6,1342.2 1330.2,1343.4 1308.6,1343.7 1287.0,1342.9 1265.2,1341.2 1243.4,1338.5 1221.6,1335.0 1199.8,1330.6 1178.0,1325.3 1156.3,1319.3 1134.8,1312.6 1113.5,1305.1 1092.4,1297.0 1071.6,1288.4 1051.1,1279.3 1031.0,1269.7  A 522.500,522.500 0.00 0,1 1046.8,1239.9 L 1046.8,1239.9 1066.0,1250.6 1085.6,1260.9 1105.4,1270.7 1125.6,1279.9 1146.0,1288.4 1166.5,1296.3 1187.2,1303.4 1208.0,1309.7 1228.9,1315.1 1249.7,1319.6 1270.5,1323.1 1291.3,1325.7 1311.9,1327.3 1332.4,1327.8 1352.7,1327.3 1372.8,1325.7 1392.6,1323.0 1412.2,1319.3 1431.5,1314.4 1450.4,1308.5 1469.0,1301.5 1487.3,1293.4 1505.1,1284.3 1522.5,1274.1 1539.5,1263.0 1556.0,1250.8 1572.0,1237.8 1587.6,1223.8 1602.7,1209.1 1617.2,1193.5 1631.2,1177.1 1644.7,1160.1 1657.7,1142.5 1670.1,1124.3 1682.0,1105.6 1693.3,1086.6 1704.0,1067.2 1714.2,1047.6 1723.9,1027.9  Z" style="stroke-width: 0.5;  stroke: rgb(0,0,0); fill: rgb(179,177,178);" />
<path d="M 1613.594,989.997 A 522.500,522.500 0.00 0,1 1646.3,998.4 L 1646.3,998.4 1640.3,1018.1 1634.0,1037.7 1627.3,1057.0 1620.3,1075.8 1612.9,1094.2 1605.2,1111.8 1597.1,1128.8 1588.7,1144.8 1580.0,1160.0 1571.0,1174.1 1561.7,1187.2 1552.1,1199.1 1542.3,1209.9 1532.1,1219.3 1521.8,1227.5 1511.2,1234.3 1500.4,1239.8 1489.4,1243.8 1478.2,1246.5 1466.8,1247.7 1455.3,1247.5 1443.7,1245.9 1432.0,1242.9 1420.1,1238.5 1408.3,1232.8 1396.3,1225.7 1384.4,1217.4 1372.5,1207.8 1360.6,1197.0 1348.7,1185.2 1337.0,1172.2 1325.3,1158.3 1313.8,1143.5 1302.5,1127.9 1291.3,1111.6 1280.4,1094.7 1269.7,1077.3 1259.3,1059.6 1249.3,1041.6  A 522.500,522.500 0.00 0,1 1278.8,1026.6 L 1278.8,1026.6 1287.6,1045.1 1296.7,1063.3 1306.0,1081.2 1315.6,1098.6 1325.3,1115.4 1335.2,1131.6 1345.2,1146.9 1355.3,1161.3 1365.5,1174.7 1375.8,1187.0 1386.1,1198.2 1396.3,1208.2 1406.6,1217.0 1416.9,1224.4 1427.0,1230.5 1437.1,1235.2 1447.1,1238.5 1457.0,1240.4 1466.8,1240.8 1476.4,1239.7 1485.8,1237.2 1495.1,1233.3 1504.1,1227.9 1513.0,1221.1 1521.6,1213.0 1530.0,1203.5 1538.1,1192.7 1546.0,1180.7 1553.6,1167.6 1560.9,1153.3 1568.0,1138.0 1574.8,1121.7 1581.2,1104.6 1587.4,1086.8 1593.3,1068.2 1598.8,1049.2 1604.1,1029.7 1609.0,1009.9 1613.6,990.0  Z" style="stroke-width: 0.5;  stroke: rgb(0,0,0); fill: rgb(179,177,178);" />
<path d="M 1979.629,1292.727 A 522.500,522.500 0.00 0,1 1990.6,1320.3 L 1990.6,1320.3 1966.3,1329.2 1941.8,1337.9 1917.1,1346.5 1892.3,1355.0 1867.3,1363.4 1842.2,1371.6 1816.9,1379.7 1791.6,1387.7 1766.1,1395.4 1740.5,1403.0 1714.8,1410.4 1688.9,1417.7 1663.0,1424.7 1637.0,1431.6 1610.9,1438.3 1584.8,1444.7 1558.5,1451.0 1532.2,1457.0 1505.9,1462.9 1479.5,1468.5 1453.0,1473.9 1426.6,1479.1 1400.1,1484.1 1373.5,1488.9 1347.0,1493.4 1320.5,1497.8 1293.9,1501.9 1267.4,1505.8 1240.9,1509.6 1214.4,1513.1 1188.0,1516.4 1161.6,1519.5 1135.2,1522.4 1108.9,1525.1 1082.7,1527.7 1056.6,1530.0 1030.5,1532.2 1004.6,1534.2 978.7,1536.1  A 522.500,522.500 0.00 0,1 977.5,1506.4 L 977.5,1506.4 1003.1,1506.0 1028.8,1505.4 1054.6,1504.6 1080.6,1503.5 1106.7,1502.1 1132.8,1500.6 1159.1,1498.7 1185.4,1496.6 1211.8,1494.2 1238.2,1491.6 1264.7,1488.6 1291.2,1485.4 1317.7,1481.9 1344.2,1478.1 1370.7,1473.9 1397.2,1469.5 1423.7,1464.8 1450.1,1459.8 1476.5,1454.5 1502.9,1448.9 1529.1,1442.9 1555.3,1436.7 1581.4,1430.2 1607.4,1423.5 1633.3,1416.4 1659.0,1409.1 1684.7,1401.5 1710.2,1393.6 1735.6,1385.5 1760.8,1377.1 1785.8,1368.6 1810.7,1359.7 1835.5,1350.7 1860.0,1341.5 1884.3,1332.0 1908.5,1322.4 1932.4,1312.7 1956.1,1302.8 1979.6,1292.7  Z" style="stroke-width: 0.5;  stroke: rgb(0,0,0); fill: rgb(179,177,178);" />
<path d="M 1767.076,1050.916 A 522.500,522.500 0.00 0,1 1791.2,1066.2 L 1791.2,1066.2 1778.3,1084.9 1764.9,1103.4 1750.9,1121.8 1736.4,1139.8 1721.4,1157.5 1705.8,1174.7 1689.7,1191.5 1673.1,1207.7 1656.0,1223.3 1638.5,1238.3 1620.4,1252.6 1601.9,1266.1 1583.0,1278.9 1563.6,1291.0 1543.8,1302.2 1523.6,1312.5 1503.1,1322.0 1482.2,1330.5 1461.0,1338.2 1439.5,1345.0 1417.7,1350.8 1395.7,1355.7 1373.4,1359.6 1351.0,1362.7 1328.3,1364.8 1305.6,1366.0 1282.7,1366.3 1259.8,1365.8 1236.8,1364.4 1213.8,1362.1 1190.9,1359.1 1168.0,1355.2 1145.2,1350.7 1122.6,1345.4 1100.1,1339.5 1077.9,1333.0 1056.0,1326.0 1034.4,1318.4 1013.1,1310.4  A 522.500,522.500 0.00 0,1 1024.1,1284.3 L 1024.1,1284.3 1044.6,1293.3 1065.5,1301.9 1086.8,1310.0 1108.3,1317.5 1130.0,1324.4 1152.0,1330.6 1174.0,1336.1 1196.2,1340.8 1218.4,1344.7 1240.7,1347.8 1263.0,1350.0 1285.2,1351.3 1307.3,1351.7 1329.3,1351.1 1351.1,1349.5 1372.8,1347.0 1394.2,1343.5 1415.4,1339.0 1436.3,1333.5 1457.0,1327.0 1477.3,1319.5 1497.3,1311.1 1516.9,1301.7 1536.1,1291.4 1554.9,1280.2 1573.3,1268.1 1591.2,1255.1 1608.7,1241.4 1625.7,1226.9 1642.2,1211.6 1658.2,1195.7 1673.7,1179.1 1688.7,1162.0 1703.1,1144.4 1717.0,1126.3 1730.3,1107.8 1743.1,1089.1 1755.4,1070.1 1767.1,1050.9  Z" style="stroke-width: 0.5;  stroke: rgb(0,0,0); fill: rgb(179,177,178);" />
<path d="M 1907.211,1172.608 A 522.500,522.500 0.00 0,1 1922.6,1192.7 L 1922.6,1192.7 1902.5,1207.1 1882.0,1221.4 1861.2,1235.5 1840.1,1249.3 1818.6,1263.0 1796.7,1276.3 1774.6,1289.4 1752.2,1302.2 1729.4,1314.6 1706.4,1326.7 1683.1,1338.4 1659.5,1349.7 1635.7,1360.7 1611.6,1371.2 1587.3,1381.3 1562.8,1390.9 1538.1,1400.1 1513.3,1408.8 1488.2,1417.0 1463.0,1424.8 1437.7,1432.1 1412.2,1438.9 1386.6,1445.2 1360.9,1451.1 1335.2,1456.4 1309.4,1461.3 1283.6,1465.7 1257.7,1469.6 1231.9,1473.0 1206.0,1476.0 1180.2,1478.6 1154.5,1480.6 1128.8,1482.3 1103.3,1483.6 1077.8,1484.4 1052.5,1484.9 1027.4,1484.9 1002.5,1484.7 977.7,1484.1  A 522.500,522.500 0.00 0,1 979.1,1458.8 L 979.1,1458.8 1003.5,1460.5 1028.1,1461.9 1052.9,1462.9 1078.0,1463.5 1103.1,1463.7 1128.5,1463.4 1153.9,1462.6 1179.4,1461.4 1205.0,1459.7 1230.6,1457.5 1256.3,1454.7 1281.9,1451.4 1307.5,1447.6 1333.1,1443.2 1358.6,1438.3 1384.0,1432.8 1409.3,1426.8 1434.5,1420.2 1459.6,1413.1 1484.5,1405.4 1509.2,1397.2 1533.7,1388.5 1558.0,1379.2 1582.1,1369.4 1606.0,1359.1 1629.6,1348.3 1652.9,1337.0 1675.9,1325.3 1698.7,1313.1 1721.1,1300.6 1743.2,1287.6 1765.0,1274.2 1786.4,1260.5 1807.5,1246.5 1828.2,1232.2 1848.5,1217.6 1868.5,1202.8 1888.1,1187.8 1907.2,1172.6  Z" style="stroke-width: 0.5;  stroke: rgb(0,0,0); fill: rgb(179,177,178);" />
<path d="M 1857.822,1880.749 A 522.500,522.500 0.00 0,1 1839.1,1897.5 L 1839.1,1897.5 1825.5,1881.9 1811.6,1866.5 1797.4,1851.6 1783.0,1837.2 1768.5,1823.5 1753.9,1810.5 1739.2,1798.3 1724.6,1787.0 1709.9,1776.6 1695.3,1767.3 1680.8,1759.1 1666.5,1752.1 1652.4,1746.3 1638.4,1741.7 1624.7,1738.3 1611.3,1736.3 1598.1,1735.7 1585.3,1736.3 1572.8,1738.4 1560.7,1741.7 1549.0,1746.4 1537.7,1752.5 1526.8,1759.8 1516.3,1768.5 1506.3,1778.4 1496.7,1789.6 1487.6,1801.9 1478.9,1815.3 1470.8,1829.8 1463.1,1845.3 1455.9,1861.7 1449.1,1879.0 1442.9,1897.0 1437.1,1915.7 1431.8,1934.9 1426.9,1954.7 1422.5,1974.8 1418.5,1995.1 1414.9,2015.5  A 522.500,522.500 0.00 0,1 1390.2,2010.8 L 1390.2,2010.8 1394.8,1990.5 1399.9,1970.2 1405.4,1950.2 1411.4,1930.5 1417.8,1911.2 1424.8,1892.6 1432.2,1874.6 1440.1,1857.3 1448.5,1840.9 1457.4,1825.3 1466.8,1810.8 1476.7,1797.3 1487.0,1784.8 1497.8,1773.6 1509.1,1763.5 1520.8,1754.6 1532.9,1747.0 1545.4,1740.7 1558.4,1735.7 1571.7,1732.0 1585.4,1729.6 1599.4,1728.5 1613.7,1728.8 1628.3,1730.3 1643.1,1733.1 1658.2,1737.2 1673.5,1742.5 1688.9,1749.0 1704.5,1756.6 1720.1,1765.3 1735.8,1775.1 1751.5,1785.7 1767.2,1797.3 1782.7,1809.7 1798.2,1822.9 1813.5,1836.6 1828.6,1850.9 1843.4,1865.7 1857.8,1880.7  Z" style="stroke-width: 0.5;  stroke: rgb(0,0,0); fill: rgb(179,177,178);" />
<path d="M 1666.016,1004.576 A 522.500,522.500 0.00 0,1 1686.1,1011.8 L 1686.1,1011.8 1678.5,1031.2 1670.4,1050.5 1661.9,1069.5 1653.0,1088.0 1643.7,1106.1 1633.9,1123.5 1623.8,1140.2 1613.4,1156.0 1602.5,1171.0 1591.3,1185.0 1579.8,1198.0 1568.0,1209.9 1555.8,1220.7 1543.4,1230.2 1530.7,1238.5 1517.7,1245.5 1504.5,1251.3 1491.1,1255.6 1477.5,1258.7 1463.7,1260.4 1449.7,1260.7 1435.6,1259.7 1421.5,1257.3 1407.2,1253.6 1392.8,1248.6 1378.5,1242.4 1364.1,1234.9 1349.7,1226.2 1335.4,1216.4 1321.2,1205.4 1307.1,1193.5 1293.1,1180.6 1279.2,1166.9 1265.6,1152.3 1252.2,1137.1 1239.1,1121.2 1226.3,1104.8 1213.8,1088.1 1201.7,1071.1  A 522.500,522.500 0.00 0,1 1219.5,1059.2 L 1219.5,1059.2 1230.9,1076.6 1242.5,1093.7 1254.5,1110.5 1266.8,1126.8 1279.3,1142.4 1292.0,1157.4 1304.9,1171.5 1318.0,1184.8 1331.2,1197.1 1344.5,1208.4 1357.8,1218.6 1371.2,1227.6 1384.6,1235.4 1397.9,1242.0 1411.2,1247.2 1424.5,1251.1 1437.6,1253.7 1450.7,1254.9 1463.6,1254.8 1476.3,1253.2 1488.9,1250.3 1501.2,1245.9 1513.4,1240.3 1525.3,1233.3 1536.9,1225.0 1548.3,1215.4 1559.4,1204.6 1570.2,1192.6 1580.7,1179.5 1590.9,1165.4 1600.7,1150.3 1610.2,1134.2 1619.3,1117.4 1628.1,1099.8 1636.4,1081.6 1644.4,1062.8 1652.0,1043.7 1659.2,1024.2 1666.0,1004.6  Z" style="stroke-width: 0.5;  stroke: rgb(0,0,0); fill: rgb(179,177,178);" />
<path d="M 1684.762,1988.742 A 522.500,522.500 0.00 0,1 1680.5,1990.3 L 1680.5,1990.3 1673.4,1971.4 1666.1,1952.6 1658.7,1934.2 1651.1,1916.2 1643.5,1898.9 1635.7,1882.2 1628.0,1866.3 1620.2,1851.4 1612.4,1837.4 1604.6,1824.6 1596.9,1812.9 1589.2,1802.4 1581.7,1793.2 1574.2,1785.3 1566.9,1778.9 1559.7,1773.8 1552.6,1770.2 1545.7,1768.1 1539.1,1767.5 1532.6,1768.4 1526.3,1770.7 1520.2,1774.6 1514.3,1779.9 1508.7,1786.6 1503.3,1794.8 1498.2,1804.3 1493.3,1815.2 1488.7,1827.3 1484.3,1840.6 1480.2,1855.1 1476.3,1870.6 1472.7,1887.1 1469.4,1904.4 1466.3,1922.5 1463.5,1941.3 1460.9,1960.6 1458.6,1980.3 1456.5,2000.4 1454.6,2020.5  A 522.500,522.500 0.00 0,1 1434.2,2018.3 L 1434.2,2018.3 1436.9,1998.2 1439.8,1978.3 1443.0,1958.6 1446.4,1939.3 1450.1,1920.6 1454.1,1902.6 1458.3,1885.3 1462.7,1868.9 1467.5,1853.5 1472.4,1839.1 1477.7,1825.8 1483.2,1813.7 1488.9,1802.9 1494.8,1793.5 1501.0,1785.3 1507.4,1778.6 1514.1,1773.3 1520.9,1769.5 1527.9,1767.2 1535.1,1766.3 1542.5,1767.0 1550.0,1769.1 1557.7,1772.7 1565.5,1777.7 1573.4,1784.2 1581.4,1792.0 1589.5,1801.2 1597.6,1811.6 1605.8,1823.3 1614.0,1836.2 1622.2,1850.1 1630.4,1865.0 1638.5,1880.8 1646.5,1897.4 1654.5,1914.8 1662.3,1932.7 1670.0,1951.1 1677.5,1969.8 1684.8,1988.7  Z" style="stroke-width: 0.5;  stroke: rgb(0,0,0); fill: rgb(179,177,178);" />
<path d="M 1686.867,1012.058 A 522.500,522.500 0.00 0,1 1705.4,1019.6 L 1705.4,1019.6 1696.9,1038.8 1688.0,1057.9 1678.6,1076.7 1668.8,1095.0 1658.6,1112.8 1648.0,1130.0 1636.9,1146.5 1625.5,1162.2 1613.7,1177.0 1601.6,1190.9 1589.1,1203.8 1576.2,1215.6 1563.1,1226.2 1549.7,1235.7 1536.0,1244.0 1522.0,1251.0 1507.8,1256.7 1493.4,1261.2 1478.8,1264.3 1464.0,1266.1 1449.1,1266.6 1434.1,1265.7 1418.9,1263.5 1403.7,1260.1 1388.4,1255.3 1373.1,1249.3 1357.8,1242.1 1342.5,1233.8 1327.3,1224.3 1312.2,1213.7 1297.2,1202.2 1282.3,1189.7 1267.7,1176.3 1253.2,1162.1 1239.0,1147.3 1225.1,1131.8 1211.5,1115.9 1198.2,1099.5 1185.4,1082.8  A 522.500,522.500 0.00 0,1 1201.6,1071.1 L 1201.6,1071.1 1213.8,1088.1 1226.3,1104.9 1239.1,1121.2 1252.2,1137.1 1265.6,1152.3 1279.2,1166.9 1293.1,1180.7 1307.1,1193.5 1321.2,1205.5 1335.5,1216.4 1349.8,1226.2 1364.2,1234.9 1378.6,1242.4 1392.9,1248.7 1407.3,1253.7 1421.6,1257.4 1435.8,1259.7 1449.9,1260.8 1463.9,1260.5 1477.7,1258.8 1491.3,1255.7 1504.8,1251.4 1518.0,1245.7 1531.0,1238.6 1543.7,1230.4 1556.2,1220.8 1568.4,1210.1 1580.2,1198.2 1591.8,1185.2 1603.0,1171.2 1613.9,1156.2 1624.4,1140.4 1634.5,1123.7 1644.2,1106.3 1653.6,1088.3 1662.5,1069.7 1671.1,1050.8 1679.2,1031.5 1686.9,1012.1  Z" style="stroke-width: 0.5;  stroke: rgb(0,0,0); fill: rgb(179,177,178);" />
<path d="M 1837.907,1898.529 A 522.500,522.500 0.00 0,1 1823.5,1910.3 L 1823.5,1910.3 1810.6,1894.2 1797.4,1878.4 1783.9,1863.1 1770.3,1848.2 1756.6,1834.0 1742.8,1820.5 1728.9,1807.8 1715.1,1796.0 1701.3,1785.2 1687.5,1775.5 1674.0,1766.8 1660.5,1759.3 1647.3,1753.1 1634.2,1748.1 1621.5,1744.4 1609.0,1742.0 1596.8,1741.0 1584.9,1741.3 1573.4,1743.0 1562.3,1746.1 1551.6,1750.6 1541.2,1756.4 1531.3,1763.6 1521.8,1772.0 1512.8,1781.8 1504.2,1792.8 1496.1,1805.0 1488.4,1818.3 1481.2,1832.7 1474.5,1848.1 1468.2,1864.5 1462.4,1881.7 1457.1,1899.8 1452.2,1918.4 1447.8,1937.7 1443.7,1957.5 1440.2,1977.6 1437.0,1997.9 1434.2,2018.3  A 522.500,522.500 0.00 0,1 1415.7,2015.7 L 1415.7,2015.7 1419.2,1995.2 1423.2,1974.9 1427.6,1954.8 1432.4,1935.1 1437.7,1915.8 1443.5,1897.1 1449.7,1879.1 1456.4,1861.8 1463.5,1845.4 1471.2,1830.0 1479.3,1815.5 1487.9,1802.1 1497.0,1789.8 1506.5,1778.6 1516.5,1768.7 1526.9,1760.1 1537.7,1752.8 1549.0,1746.7 1560.7,1742.0 1572.7,1738.7 1585.1,1736.7 1597.9,1736.1 1611.0,1736.8 1624.4,1738.8 1638.0,1742.2 1651.9,1746.8 1666.0,1752.6 1680.3,1759.7 1694.7,1768.0 1709.2,1777.3 1723.8,1787.7 1738.4,1799.0 1753.0,1811.3 1767.6,1824.3 1782.1,1838.1 1796.4,1852.5 1810.5,1867.5 1824.3,1882.8 1837.9,1898.5  Z" style="stroke-width: 0.5;  stroke: rgb(0,0,0); fill: rgb(179,177,178);" />
<path d="M 1871.925,1866.985 A 522.500,522.500 0.00 0,1 1859.3,1879.4 L 1859.3,1879.4 1844.7,1864.4 1829.8,1849.7 1814.7,1835.4 1799.3,1821.7 1783.8,1808.6 1768.1,1796.2 1752.3,1784.7 1736.5,1774.0 1720.7,1764.4 1705.0,1755.7 1689.3,1748.1 1673.7,1741.6 1658.3,1736.4 1643.1,1732.3 1628.1,1729.5 1613.3,1728.0 1598.9,1727.8 1584.7,1728.8 1570.9,1731.2 1557.4,1734.9 1544.3,1740.0 1531.5,1746.3 1519.2,1753.9 1507.3,1762.7 1495.9,1772.8 1484.9,1784.1 1474.3,1796.5 1464.2,1810.0 1454.7,1824.5 1445.5,1840.0 1436.9,1856.5 1428.8,1873.7 1421.2,1891.7 1414.0,1910.3 1407.3,1929.5 1401.1,1949.2 1395.4,1969.2 1390.2,1989.4 1385.3,2009.8  A 522.500,522.500 0.00 0,1 1368.1,2005.6 L 1368.1,2005.6 1373.7,1985.3 1379.7,1965.1 1386.2,1945.2 1393.1,1925.6 1400.6,1906.5 1408.5,1887.9 1417.0,1869.9 1426.0,1852.7 1435.4,1836.3 1445.4,1820.8 1455.8,1806.3 1466.7,1792.7 1478.1,1780.3 1489.9,1768.9 1502.2,1758.7 1515.0,1749.7 1528.1,1742.0 1541.7,1735.5 1555.6,1730.3 1570.0,1726.3 1584.6,1723.7 1599.6,1722.3 1614.9,1722.2 1630.4,1723.5 1646.2,1725.9 1662.2,1729.6 1678.3,1734.5 1694.6,1740.6 1711.1,1747.7 1727.5,1756.0 1744.0,1765.2 1760.5,1775.4 1777.0,1786.5 1793.3,1798.4 1809.5,1811.0 1825.5,1824.3 1841.3,1838.1 1856.8,1852.4 1871.9,1867.0  Z" style="stroke-width: 0.5;  stroke: rgb(0,0,0); fill: rgb(179,177,178);" />
<path d="M 1706.901,1020.210 A 522.500,522.500 0.00 0,1 1722.4,1027.2 L 1722.4,1027.2 1713.2,1046.3 1703.5,1065.2 1693.3,1083.8 1682.7,1101.9 1671.6,1119.6 1660.1,1136.6 1648.1,1153.0 1635.8,1168.6 1623.1,1183.3 1610.0,1197.1 1596.6,1209.9 1582.8,1221.7 1568.7,1232.4 1554.2,1241.9 1539.5,1250.3 1524.6,1257.4 1509.3,1263.3 1493.9,1267.9 1478.2,1271.3 1462.4,1273.3 1446.4,1274.1 1430.3,1273.6 1414.1,1271.8 1397.8,1268.7 1381.4,1264.4 1365.0,1258.9 1348.7,1252.2 1332.3,1244.4 1316.0,1235.4 1299.8,1225.4 1283.8,1214.5 1267.9,1202.6 1252.1,1189.8 1236.7,1176.3 1221.4,1162.0 1206.5,1147.2 1191.9,1131.9 1177.6,1116.1 1163.8,1100.0  A 522.500,522.500 0.00 0,1 1177.4,1089.0 L 1177.4,1089.0 1190.6,1105.4 1204.2,1121.5 1218.2,1137.3 1232.4,1152.5 1247.0,1167.1 1261.8,1181.0 1276.8,1194.1 1292.0,1206.4 1307.3,1217.7 1322.8,1228.1 1338.3,1237.3 1353.9,1245.5 1369.6,1252.5 1385.2,1258.2 1400.8,1262.8 1416.3,1266.1 1431.7,1268.0 1447.1,1268.7 1462.2,1268.1 1477.3,1266.1 1492.1,1262.9 1506.8,1258.3 1521.2,1252.4 1535.4,1245.3 1549.3,1236.9 1562.9,1227.4 1576.2,1216.6 1589.2,1204.8 1601.9,1191.8 1614.2,1177.9 1626.1,1163.0 1637.7,1147.3 1648.9,1130.8 1659.6,1113.5 1669.9,1095.7 1679.9,1077.3 1689.3,1058.6 1698.3,1039.5 1706.9,1020.2  Z" style="stroke-width: 0.5;  stroke: rgb(0,0,0); fill: rgb(179,177,178);" />
<path d="M 1647.075,998.627 A 522.500,522.500 0.00 0,1 1661.2,1003.0 L 1661.2,1003.0 1654.6,1022.7 1647.7,1042.2 1640.3,1061.4 1632.5,1080.1 1624.4,1098.4 1615.8,1116.0 1606.9,1132.9 1597.7,1149.0 1588.1,1164.1 1578.2,1178.3 1567.9,1191.4 1557.4,1203.4 1546.5,1214.2 1535.4,1223.8 1524.0,1232.1 1512.4,1239.1 1500.5,1244.7 1488.4,1249.0 1476.1,1251.9 1463.6,1253.5 1451.0,1253.6 1438.2,1252.3 1425.3,1249.7 1412.3,1245.7 1399.2,1240.4 1386.1,1233.8 1373.0,1225.9 1359.9,1216.8 1346.8,1206.5 1333.8,1195.1 1320.8,1182.7 1308.0,1169.4 1295.3,1155.1 1282.8,1140.1 1270.5,1124.3 1258.4,1107.9 1246.6,1091.1 1235.2,1073.8 1224.0,1056.3  A 522.500,522.500 0.00 0,1 1237.0,1048.5 L 1237.0,1048.5 1247.6,1066.3 1258.5,1083.8 1269.7,1100.9 1281.1,1117.5 1292.8,1133.6 1304.6,1148.9 1316.7,1163.4 1328.8,1177.0 1341.1,1189.7 1353.4,1201.3 1365.8,1211.8 1378.2,1221.1 1390.6,1229.2 1403.0,1236.0 1415.3,1241.5 1427.6,1245.7 1439.7,1248.5 1451.7,1249.9 1463.6,1249.9 1475.3,1248.4 1486.9,1245.6 1498.2,1241.4 1509.4,1235.8 1520.2,1228.8 1530.9,1220.5 1541.3,1210.9 1551.4,1200.1 1561.2,1188.0 1570.7,1174.9 1579.9,1160.6 1588.8,1145.4 1597.3,1129.3 1605.5,1112.3 1613.3,1094.6 1620.8,1076.2 1627.9,1057.3 1634.7,1038.0 1641.1,1018.4 1647.1,998.6  Z" style="stroke-width: 0.5;  stroke: rgb(0,0,0); fill: rgb(179,177,178);" />
<path d="M 1968.589,1268.850 A 522.500,522.500 0.00 0,1 1974.5,1281.2 L 1974.5,1281.2 1951.3,1291.7 1927.9,1302.2 1904.3,1312.4 1880.4,1322.5 1856.4,1332.4 1832.1,1342.1 1807.6,1351.6 1782.9,1360.9 1758.1,1369.9 1733.1,1378.6 1707.9,1387.1 1682.5,1395.4 1657.0,1403.3 1631.4,1411.0 1605.6,1418.3 1579.8,1425.4 1553.8,1432.1 1527.7,1438.6 1501.5,1444.7 1475.3,1450.5 1449.0,1456.0 1422.6,1461.1 1396.2,1466.0 1369.8,1470.5 1343.3,1474.7 1316.8,1478.5 1290.4,1482.1 1263.9,1485.3 1237.5,1488.2 1211.1,1490.8 1184.8,1493.1 1158.5,1495.1 1132.3,1496.8 1106.2,1498.3 1080.2,1499.4 1054.3,1500.4 1028.6,1501.0 1003.0,1501.4 977.5,1501.6  A 522.500,522.500 0.00 0,1 977.6,1487.6 L 977.6,1487.6 1002.9,1488.0 1028.4,1488.3 1054.0,1488.2 1079.8,1487.9 1105.7,1487.3 1131.7,1486.4 1157.8,1485.2 1184.0,1483.7 1210.3,1481.8 1236.6,1479.6 1263.0,1477.1 1289.4,1474.2 1315.8,1471.0 1342.2,1467.4 1368.6,1463.4 1395.0,1459.1 1421.4,1454.4 1447.7,1449.3 1473.9,1443.9 1500.1,1438.2 1526.2,1432.0 1552.1,1425.5 1578.0,1418.7 1603.8,1411.5 1629.4,1404.0 1654.9,1396.1 1680.2,1388.0 1705.4,1379.5 1730.4,1370.7 1755.2,1361.6 1779.8,1352.2 1804.2,1342.6 1828.4,1332.7 1852.4,1322.5 1876.1,1312.2 1899.6,1301.6 1922.9,1290.9 1945.9,1279.9 1968.6,1268.8  Z" style="stroke-width: 0.5;  stroke: rgb(0,0,0); fill: rgb(179,177,178);" />
<path d="M 1991.028,1321.401 A 522.500,522.500 0.00 0,1 1995.5,1334.2 L 1995.5,1334.2 1970.8,1342.4 1945.9,1350.6 1920.9,1358.6 1895.7,1366.6 1870.5,1374.4 1845.1,1382.1 1819.6,1389.7 1794.1,1397.2 1768.4,1404.5 1742.6,1411.7 1716.7,1418.7 1690.8,1425.6 1664.8,1432.4 1638.7,1439.0 1612.5,1445.4 1586.3,1451.7 1560.0,1457.8 1533.7,1463.7 1507.3,1469.5 1480.9,1475.0 1454.5,1480.5 1428.0,1485.7 1401.5,1490.8 1375.0,1495.7 1348.5,1500.4 1321.9,1504.9 1295.4,1509.3 1268.9,1513.5 1242.4,1517.6 1215.9,1521.4 1189.5,1525.1 1163.1,1528.7 1136.7,1532.1 1110.4,1535.3 1084.1,1538.4 1058.0,1541.3 1031.8,1544.1 1005.8,1546.7 979.8,1549.2  A 522.500,522.500 0.00 0,1 978.7,1535.6 L 978.7,1535.6 1004.6,1533.8 1030.5,1531.8 1056.6,1529.6 1082.7,1527.3 1108.9,1524.8 1135.2,1522.1 1161.6,1519.2 1188.0,1516.1 1214.4,1512.8 1240.9,1509.4 1267.4,1505.7 1294.0,1501.8 1320.5,1497.7 1347.0,1493.4 1373.6,1488.9 1400.1,1484.1 1426.6,1479.2 1453.1,1474.0 1479.6,1468.6 1506.0,1463.0 1532.3,1457.2 1558.6,1451.2 1584.9,1445.0 1611.1,1438.6 1637.2,1432.0 1663.2,1425.2 1689.1,1418.2 1714.9,1411.0 1740.7,1403.6 1766.3,1396.1 1791.8,1388.3 1817.2,1380.5 1842.4,1372.4 1867.6,1364.2 1892.6,1355.9 1917.4,1347.5 1942.1,1338.9 1966.6,1330.2 1991.0,1321.4  Z" style="stroke-width: 0.5;  stroke: rgb(0,0,0); fill: rgb(179,177,178);" />
<path d="M 1880.274,1858.326 A 522.500,522.500 0.00 0,1 1873.1,1865.8 L 1873.1,1865.8 1857.9,1851.3 1842.4,1837.0 1826.5,1823.3 1810.5,1810.0 1794.2,1797.5 1777.8,1785.6 1761.3,1774.6 1744.8,1764.4 1728.2,1755.2 1711.7,1747.0 1695.3,1739.9 1678.9,1733.9 1662.7,1729.0 1646.7,1725.4 1630.8,1723.0 1615.3,1721.8 1599.9,1721.9 1584.9,1723.3 1570.2,1726.0 1555.9,1729.9 1541.9,1735.2 1528.3,1741.7 1515.1,1749.5 1502.4,1758.5 1490.0,1768.7 1478.1,1780.1 1466.7,1792.6 1455.8,1806.1 1445.3,1820.7 1435.4,1836.2 1425.9,1852.6 1416.9,1869.8 1408.5,1887.8 1400.5,1906.4 1393.0,1925.5 1386.0,1945.1 1379.5,1965.1 1373.5,1985.2 1368.0,2005.5  A 522.500,522.500 0.00 0,1 1357.5,2002.7 L 1357.5,2002.7 1363.5,1982.4 1369.9,1962.3 1376.9,1942.4 1384.4,1922.9 1392.3,1903.8 1400.8,1885.2 1409.7,1867.3 1419.2,1850.1 1429.2,1833.8 1439.7,1818.3 1450.6,1803.7 1462.1,1790.1 1474.0,1777.6 1486.4,1766.2 1499.2,1755.9 1512.5,1746.9 1526.1,1739.0 1540.2,1732.4 1554.7,1727.0 1569.5,1722.9 1584.7,1720.1 1600.2,1718.5 1616.0,1718.3 1632.0,1719.3 1648.3,1721.5 1664.8,1724.9 1681.4,1729.5 1698.2,1735.3 1715.1,1742.2 1732.0,1750.1 1749.0,1759.1 1766.0,1769.0 1782.8,1779.7 1799.6,1791.3 1816.3,1803.6 1832.7,1816.6 1848.9,1830.1 1864.7,1844.0 1880.3,1858.3  Z" style="stroke-width: 0.5;  stroke: rgb(0,0,0); fill: rgb(179,177,178);" />
<path d="M 1757.320,1045.255 A 522.500,522.500 0.00 0,1 1764.0,1049.1 L 1764.0,1049.1 1752.4,1068.3 1740.3,1087.3 1727.7,1106.1 1714.5,1124.7 1700.7,1142.8 1686.4,1160.5 1671.6,1177.6 1656.3,1194.2 1640.4,1210.2 1624.0,1225.5 1607.2,1240.1 1589.8,1253.8 1572.0,1266.8 1553.8,1278.9 1535.1,1290.1 1516.0,1300.4 1496.5,1309.8 1476.7,1318.2 1456.4,1325.7 1435.9,1332.1 1415.1,1337.6 1394.0,1342.0 1372.7,1345.5 1351.1,1348.0 1329.4,1349.5 1307.5,1350.0 1285.4,1349.6 1263.3,1348.2 1241.2,1345.9 1219.0,1342.7 1196.9,1338.7 1174.8,1333.9 1152.8,1328.3 1131.0,1322.0 1109.3,1315.0 1087.9,1307.4 1066.7,1299.2 1045.9,1290.5 1025.5,1281.3  A 522.500,522.500 0.00 0,1 1028.7,1274.4 L 1028.7,1274.4 1049.0,1283.8 1069.6,1292.7 1090.5,1301.2 1111.8,1309.1 1133.2,1316.3 1154.9,1322.9 1176.6,1328.8 1198.5,1333.8 1220.5,1338.1 1242.4,1341.5 1264.4,1344.0 1286.3,1345.5 1308.1,1346.2 1329.7,1345.8 1351.3,1344.5 1372.6,1342.1 1393.7,1338.8 1414.5,1334.5 1435.1,1329.1 1455.4,1322.7 1475.3,1315.3 1494.9,1307.0 1514.1,1297.6 1533.0,1287.3 1551.4,1276.1 1569.3,1264.0 1586.9,1251.0 1603.9,1237.2 1620.5,1222.6 1636.6,1207.2 1652.1,1191.2 1667.2,1174.5 1681.7,1157.3 1695.7,1139.5 1709.1,1121.2 1722.0,1102.6 1734.3,1083.7 1746.1,1064.6 1757.3,1045.3  Z" style="stroke-width: 0.5;  stroke: rgb(0,0,0); fill: rgb(179,177,178);" />
</g>
<g id="plot0">
<g id="plot0-axis">
</g>
<line x1='2243.6' y1='1597.4' x2='2243.6' y2='1597.4' style="stroke-width:14.0;stroke:rgb(0,0,0);stroke-linecap:round;fill:none;" />
<line x1='2243.6' y1='1597.4' x2='2283.3' y2='1602.6' style="stroke-width:14.0;stroke:rgb(0,0,0);stroke-linecap:round;fill:none;" />
<line x1='2283.3' y1='1602.6' x2='2283.3' y2='1602.6' style="stroke-width:14.0;stroke:rgb(0,0,0);stroke-linecap:round;fill:none;" />
<text x="2299.9" y="1627.5" font-size="46.8px" font-family="CMUBright-Roman" style="text-anchor:start;fill:rgb(255,38,78);" transform="rotate(7.5,2299.9,1627.5)" >HistocapCB180<tspan baseline-shift="-40%" font-size="90%">s</tspan>00476</text>
</g>
<defs>
<pattern id="checker" width="10" height="10" patternTransform="rotate(45 0 0)" patternUnits="userSpaceOnUse"><line x1="0" y1="0" x2="10" y2="0" style="stroke:black;stroke-width:5" /><line x1="0" y1="0" x2="0" y2="10" style="stroke:black;stroke-width:4" /></pattern>
<pattern id="vline-sparse" width="10" height="10" patternTransform="rotate(0 0 0)" patternUnits="userSpaceOnUse"><line x1="0" y1="0" x2="0" y2="10" style="stroke:black;stroke-width:2" /></pattern>
<pattern id="hline-sparse" width="10" height="10" patternTransform="rotate(0 0 0)" patternUnits="userSpaceOnUse"><line x1="0" y1="0" x2="10" y2="0" style="stroke:black;stroke-width:2" /></pattern>
<pattern id="checker" width="10" height="10" patternTransform="rotate(45 0 0)" patternUnits="userSpaceOnUse"><line x1="0" y1="0" x2="10" y2="0" style="stroke:black;stroke-width:2" /><line x1="0" y1="0" x2="0" y2="10" style="stroke:black;stroke-width:2" /></pattern>
<pattern id="hline" width="10" height="10" patternTransform="rotate(0 0 0)" patternUnits="userSpaceOnUse"><line x1="0" y1="0" x2="10" y2="0" style="stroke:black;stroke-width:5" /></pattern>
<pattern id="vline" width="10" height="10" patternTransform="rotate(0 0 0)" patternUnits="userSpaceOnUse"><line x1="0" y1="0" x2="0" y2="10" style="stroke:black;stroke-width:5" /></pattern>
</defs>
</svg>
