<?xml version="1.0" encoding="utf-8" standalone="no"?>
<!DOCTYPE svg PUBLIC "-//W3C//DTD SVG 1.1//EN" "http://www.w3.org/Graphics/SVG/1.1/DTD/svg11.dtd">
<svg width="3000px" height="3000px" version="1.1" xmlns="http://www.w3.org/2000/svg" xmlns:xlink="http://www.w3.org/1999/xlink">
<g id="bg">
<rect x="0" y="0" width="3000px" height="3000px" style="fill:rgb(255,255,255);"/>
</g>
<g id="ideograms">
<path d="M1500.000,950.000 A550.000,550.000 40.000 0,1 1678.769,2020.136 L1743.776,2209.277 A750.000,750.000 0.000 0,0 1500.000,750.000 Z" style="stroke-width:2.0;stroke:rgb(0,0,0);stroke-linecap:round;fill:rgb(179,177,178);" />
<text x="2461.7" y="1339.4" font-size="46.8px" font-family="CMUBright-Roman" style="text-anchor:middle;fill:rgb(0,0,0);" transform="rotate(440.5,2461.7,1339.4)" >HistomissSECH90<tspan baseline-shift="-40%" font-size="90%">3</tspan></text>
<line x1='1569.4' y1='753.2' x2='1570.5' y2='741.3' style="stroke-width:8.0;stroke:rgb(150,150,150);stroke-linecap:round;fill:none;" />
<text x="1585.6" y="730.7" font-size="41.6px" font-family="CMUBright-Roman" style="text-anchor:start;fill:rgb(150,150,150);" transform="rotate(275.3,1585.6,730.7)" >1550 kb</text>
<line x1='1668.2' y1='769.1' x2='1670.9' y2='757.4' style="stroke-width:8.0;stroke:rgb(150,150,150);stroke-linecap:round;fill:none;" />
<line x1='1764.0' y1='798.0' x2='1768.2' y2='786.8' style="stroke-width:8.0;stroke:rgb(150,150,150);stroke-linecap:round;fill:none;" />
<line x1='1855.1' y1='839.4' x2='1860.8' y2='828.8' style="stroke-width:8.0;stroke:rgb(150,150,150);stroke-linecap:round;fill:none;" />
<line x1='1939.9' y1='892.5' x2='1946.9' y2='882.8' style="stroke-width:8.0;stroke:rgb(150,150,150);stroke-linecap:round;fill:none;" />
<line x1='2016.8' y1='956.5' x2='2025.1' y2='947.8' style="stroke-width:8.0;stroke:rgb(150,150,150);stroke-linecap:round;fill:none;" />
<text x="2043.4" y="948.8" font-size="41.6px" font-family="CMUBright-Roman" style="text-anchor:start;fill:rgb(150,150,150);" transform="rotate(313.6,2043.4,948.8)" >1600 kb</text>
<line x1='2084.6' y1='1030.1' x2='2093.9' y2='1022.6' style="stroke-width:8.0;stroke:rgb(150,150,150);stroke-linecap:round;fill:none;" />
<line x1='2141.9' y1='1112.1' x2='2152.2' y2='1105.9' style="stroke-width:8.0;stroke:rgb(150,150,150);stroke-linecap:round;fill:none;" />
<line x1='2187.8' y1='1201.0' x2='2198.8' y2='1196.2' style="stroke-width:8.0;stroke:rgb(150,150,150);stroke-linecap:round;fill:none;" />
<line x1='2221.5' y1='1295.2' x2='2233.1' y2='1292.0' style="stroke-width:8.0;stroke:rgb(150,150,150);stroke-linecap:round;fill:none;" />
<line x1='2242.3' y1='1393.1' x2='2254.2' y2='1391.4' style="stroke-width:8.0;stroke:rgb(150,150,150);stroke-linecap:round;fill:none;" />
<text x="2268.0" y="1403.6" font-size="41.6px" font-family="CMUBright-Roman" style="text-anchor:start;fill:rgb(150,150,150);" transform="rotate(351.8,2268.0,1403.6)" >1650 kb</text>
<line x1='2250.0' y1='1492.9' x2='2262.0' y2='1492.8' style="stroke-width:8.0;stroke:rgb(150,150,150);stroke-linecap:round;fill:none;" />
<line x1='2244.2' y1='1592.8' x2='2256.1' y2='1594.3' style="stroke-width:8.0;stroke:rgb(150,150,150);stroke-linecap:round;fill:none;" />
<line x1='2225.3' y1='1691.0' x2='2236.9' y2='1694.1' style="stroke-width:8.0;stroke:rgb(150,150,150);stroke-linecap:round;fill:none;" />
<line x1='2193.4' y1='1785.9' x2='2204.5' y2='1790.4' style="stroke-width:8.0;stroke:rgb(150,150,150);stroke-linecap:round;fill:none;" />
<line x1='2149.2' y1='1875.6' x2='2159.5' y2='1881.6' style="stroke-width:8.0;stroke:rgb(150,150,150);stroke-linecap:round;fill:none;" />
<text x="2162.8" y="1899.7" font-size="41.6px" font-family="CMUBright-Roman" style="text-anchor:start;fill:rgb(150,150,150);" transform="rotate(30.1,2162.8,1899.7)" >1700 kb</text>
<line x1='2093.4' y1='1958.7' x2='2102.9' y2='1966.0' style="stroke-width:8.0;stroke:rgb(150,150,150);stroke-linecap:round;fill:none;" />
<line x1='2027.0' y1='2033.6' x2='2035.5' y2='2042.1' style="stroke-width:8.0;stroke:rgb(150,150,150);stroke-linecap:round;fill:none;" />
<line x1='1951.3' y1='2099.0' x2='1958.5' y2='2108.6' style="stroke-width:8.0;stroke:rgb(150,150,150);stroke-linecap:round;fill:none;" />
<line x1='1867.6' y1='2153.8' x2='1873.5' y2='2164.2' style="stroke-width:8.0;stroke:rgb(150,150,150);stroke-linecap:round;fill:none;" />
<line x1='1777.3' y1='2196.9' x2='1781.7' y2='2208.0' style="stroke-width:8.0;stroke:rgb(150,150,150);stroke-linecap:round;fill:none;" />
<text x="1773.1" y="2224.2" font-size="41.6px" font-family="CMUBright-Roman" style="text-anchor:start;fill:rgb(150,150,150);" transform="rotate(68.3,1773.1,2224.2)" >1750 kb</text>
<g id="highlighttrack_0">
<path d="M2034.795,1371.571 A550.000,550.000 40.000 0,1 2047.501,1447.629 L2246.592,1428.586 A750.000,750.000 0.000 0,0 2229.266,1324.869 Z" style="stroke-width:14.0;stroke:rgb(0,0,0);stroke-linecap:round;fill:rgb(255,38,78);" />
</g>
<path d="M1500.000,950.000 A550.000,550.000 40.000 0,1 1678.769,2020.136 L1743.776,2209.277 A750.000,750.000 0.000 0,0 1500.000,750.000 Z" style="stroke-width:2.0;stroke:rgb(0,0,0);stroke-linecap:round;fill:none;" />
<path d="M1461.813,2048.673 A550.000,550.000 40.000 0,1 1285.550,993.531 L1207.568,809.360 A750.000,750.000 0.000 0,0 1447.927,2248.190 Z" style="stroke-width:2.0;stroke:rgb(0,0,0);stroke-linecap:round;fill:rgb(179,177,178);" />
<text x="493.9" y="1668.1" font-size="46.8px" font-family="CMUBright-Roman" style="text-anchor:middle;fill:rgb(0,0,0);" transform="rotate(80.5,493.9,1668.1)" >HistomissSECH87<tspan baseline-shift="-40%" font-size="90%">3</tspan></text>
<line x1='1206.0' y1='810.0' x2='1201.3' y2='799.0' style="stroke-width:8.0;stroke:rgb(150,150,150);stroke-linecap:round;fill:none;" />
<line x1='1116.8' y1='855.3' x2='1110.7' y2='845.0' style="stroke-width:8.0;stroke:rgb(150,150,150);stroke-linecap:round;fill:none;" />
<line x1='1034.4' y1='912.0' x2='1026.9' y2='902.6' style="stroke-width:8.0;stroke:rgb(150,150,150);stroke-linecap:round;fill:none;" />
<line x1='960.3' y1='979.2' x2='951.6' y2='970.9' style="stroke-width:8.0;stroke:rgb(150,150,150);stroke-linecap:round;fill:none;" />
<line x1='895.7' y1='1055.7' x2='886.1' y2='1048.6' style="stroke-width:8.0;stroke:rgb(150,150,150);stroke-linecap:round;fill:none;" />
<text x="868.2" y="1052.9" font-size="41.6px" font-family="CMUBright-Roman" style="text-anchor:end;fill:rgb(150,150,150);" transform="rotate(36.3,868.2,1052.9)" >1750 kb</text>
<line x1='842.0' y1='1140.1' x2='831.5' y2='1134.4' style="stroke-width:8.0;stroke:rgb(150,150,150);stroke-linecap:round;fill:none;" />
<line x1='799.9' y1='1230.9' x2='788.7' y2='1226.6' style="stroke-width:8.0;stroke:rgb(150,150,150);stroke-linecap:round;fill:none;" />
<line x1='770.3' y1='1326.5' x2='758.7' y2='1323.7' style="stroke-width:8.0;stroke:rgb(150,150,150);stroke-linecap:round;fill:none;" />
<line x1='753.7' y1='1425.2' x2='741.8' y2='1424.0' style="stroke-width:8.0;stroke:rgb(150,150,150);stroke-linecap:round;fill:none;" />
<line x1='750.4' y1='1525.2' x2='738.4' y2='1525.6' style="stroke-width:8.0;stroke:rgb(150,150,150);stroke-linecap:round;fill:none;" />
<text x="727.0" y="1540.0" font-size="41.6px" font-family="CMUBright-Roman" style="text-anchor:end;fill:rgb(150,150,150);" transform="rotate(-1.9,727.0,1540.0)" >1800 kb</text>
<line x1='760.4' y1='1624.7' x2='748.6' y2='1626.7' style="stroke-width:8.0;stroke:rgb(150,150,150);stroke-linecap:round;fill:none;" />
<line x1='783.6' y1='1722.1' x2='772.2' y2='1725.6' style="stroke-width:8.0;stroke:rgb(150,150,150);stroke-linecap:round;fill:none;" />
<line x1='819.6' y1='1815.4' x2='808.7' y2='1820.5' style="stroke-width:8.0;stroke:rgb(150,150,150);stroke-linecap:round;fill:none;" />
<line x1='867.6' y1='1903.2' x2='857.5' y2='1909.7' style="stroke-width:8.0;stroke:rgb(150,150,150);stroke-linecap:round;fill:none;" />
<line x1='926.9' y1='1983.8' x2='917.7' y2='1991.5' style="stroke-width:8.0;stroke:rgb(150,150,150);stroke-linecap:round;fill:none;" />
<text x="917.7" y="2009.9" font-size="41.6px" font-family="CMUBright-Roman" style="text-anchor:end;fill:rgb(150,150,150);" transform="rotate(-40.2,917.7,2009.9)" >1850 kb</text>
<line x1='996.4' y1='2055.8' x2='988.4' y2='2064.7' style="stroke-width:8.0;stroke:rgb(150,150,150);stroke-linecap:round;fill:none;" />
<line x1='1074.9' y1='2117.9' x2='1068.1' y2='2127.8' style="stroke-width:8.0;stroke:rgb(150,150,150);stroke-linecap:round;fill:none;" />
<line x1='1160.9' y1='2169.0' x2='1155.5' y2='2179.7' style="stroke-width:8.0;stroke:rgb(150,150,150);stroke-linecap:round;fill:none;" />
<line x1='1253.0' y1='2208.2' x2='1249.0' y2='2219.5' style="stroke-width:8.0;stroke:rgb(150,150,150);stroke-linecap:round;fill:none;" />
<line x1='1349.4' y1='2234.7' x2='1347.0' y2='2246.5' style="stroke-width:8.0;stroke:rgb(150,150,150);stroke-linecap:round;fill:none;" />
<text x="1358.4" y="2260.9" font-size="41.6px" font-family="CMUBright-Roman" style="text-anchor:end;fill:rgb(150,150,150);" transform="rotate(-78.4,1358.4,2260.9)" >1900 kb</text>
<path d="M1461.813,2048.673 A550.000,550.000 40.000 0,1 1285.550,993.531 L1207.568,809.360 A750.000,750.000 0.000 0,0 1447.927,2248.190 Z" style="stroke-width:2.0;stroke:rgb(0,0,0);stroke-linecap:round;fill:none;" />
</g>
<g id="track_0">
<path d="M 1695.502,1015.454 A 522.500,522.500 0.00 0,1 1880.1,1141.5 L 1880.1,1141.5 1862.7,1157.6 1844.8,1173.6 1826.4,1189.3 1807.6,1204.7 1788.3,1219.8 1768.6,1234.6 1748.5,1248.9 1728.0,1262.8 1707.1,1276.2 1685.8,1289.1 1664.2,1301.4 1642.2,1313.2 1619.9,1324.4 1597.2,1335.0 1574.3,1344.9 1551.1,1354.2 1527.6,1362.8 1503.9,1370.7 1479.9,1378.0 1455.8,1384.5 1431.5,1390.3 1407.0,1395.5 1382.4,1399.9 1357.6,1403.6 1332.8,1406.6 1307.9,1408.9 1283.0,1410.5 1258.1,1411.4 1233.1,1411.6 1208.3,1411.2 1183.5,1410.2 1158.7,1408.6 1134.1,1406.3 1109.7,1403.6 1085.5,1400.2 1061.4,1396.4 1037.6,1392.1 1014.1,1387.4 990.9,1382.2  A 522.500,522.500 0.00 0,1 1086.8,1180.2 L 1086.8,1180.2 1104.0,1193.1 1121.6,1205.7 1139.4,1217.8 1157.6,1229.4 1176.0,1240.3 1194.6,1250.5 1213.3,1259.9 1232.2,1268.4 1251.1,1276.1 1270.0,1282.7 1288.9,1288.4 1307.7,1293.0 1326.4,1296.6 1345.0,1299.0 1363.5,1300.3 1381.7,1300.4 1399.7,1299.3 1417.5,1297.1 1434.9,1293.6 1452.1,1289.0 1468.9,1283.1 1485.4,1276.1 1501.5,1268.0 1517.2,1258.7 1532.5,1248.3 1547.3,1236.8 1561.7,1224.3 1575.6,1210.8 1589.1,1196.4 1602.0,1181.1 1614.5,1165.0 1626.4,1148.1 1637.9,1130.5 1648.8,1112.3 1659.2,1093.6 1669.1,1074.5 1678.4,1055.0 1687.2,1035.3 1695.5,1015.5  Z" style="stroke-width: 0.5;  stroke: rgb(0,0,0); fill: rgb(179,177,178);" />
<path d="M 1500.000,977.500 A 522.500,522.500 0.00 0,1 1514.1,977.7 L 1514.1,977.7 1513.4,998.1 1512.4,1018.4 1511.0,1038.5 1509.3,1058.2 1507.1,1077.4 1504.6,1096.0 1501.6,1113.9 1498.2,1131.1 1494.4,1147.3 1490.1,1162.6 1485.4,1176.8 1480.2,1189.9 1474.5,1201.8 1468.4,1212.5 1461.8,1222.0 1454.8,1230.0 1447.3,1236.8 1439.3,1242.1 1431.0,1246.1 1422.2,1248.7 1413.0,1249.8 1403.5,1249.5 1393.5,1247.8 1383.2,1244.8 1372.6,1240.4 1361.7,1234.6 1350.6,1227.6 1339.1,1219.3 1327.5,1209.8 1315.7,1199.2 1303.8,1187.6 1291.7,1174.9 1279.6,1161.4 1267.5,1147.0 1255.4,1131.9 1243.4,1116.2 1231.4,1100.0 1219.7,1083.4 1208.2,1066.6  A 522.500,522.500 0.00 0,1 1296.3,1018.9 L 1296.3,1018.9 1304.2,1037.4 1312.4,1055.8 1320.6,1073.8 1329.0,1091.4 1337.3,1108.4 1345.7,1124.6 1354.0,1140.1 1362.4,1154.6 1370.6,1168.2 1378.7,1180.7 1386.7,1192.0 1394.5,1202.1 1402.1,1210.9 1409.5,1218.4 1416.8,1224.5 1423.7,1229.1 1430.4,1232.4 1436.9,1234.1 1443.0,1234.4 1448.9,1233.3 1454.5,1230.6 1459.7,1226.4 1464.6,1220.8 1469.2,1213.8 1473.5,1205.4 1477.4,1195.6 1481.0,1184.5 1484.3,1172.2 1487.2,1158.6 1489.8,1144.0 1492.1,1128.3 1494.1,1111.7 1495.7,1094.2 1497.1,1075.9 1498.2,1057.0 1499.0,1037.6 1499.6,1017.8 1499.9,997.7 1500.0,977.5  Z" style="stroke-width: 0.5;  stroke: rgb(0,0,0); fill: rgb(179,177,178);" />
<path d="M 2020.126,1450.248 A 522.500,522.500 0.00 0,1 2017.7,1570.8 L 2017.7,1570.8 1992.8,1567.5 1967.6,1564.5 1942.3,1561.8 1916.8,1559.3 1891.1,1557.1 1865.2,1555.3 1839.3,1553.7 1813.1,1552.6 1786.9,1551.7 1760.6,1551.3 1734.2,1551.2 1707.8,1551.4 1681.3,1552.1 1654.7,1553.2 1628.1,1554.6 1601.6,1556.5 1575.0,1558.7 1548.4,1561.4 1521.9,1564.5 1495.4,1567.9 1469.0,1571.8 1442.7,1576.1 1416.4,1580.8 1390.3,1585.8 1364.2,1591.3 1338.3,1597.1 1312.5,1603.3 1286.9,1609.8 1261.4,1616.7 1236.1,1624.0 1211.0,1631.5 1186.1,1639.4 1161.4,1647.6 1136.9,1656.0 1112.6,1664.8 1088.6,1673.7 1064.8,1682.9 1041.3,1692.3 1018.1,1701.9  A 522.500,522.500 0.00 0,1 984.7,1586.4 L 984.7,1586.4 1010.9,1582.1 1037.2,1577.7 1063.5,1573.4 1089.8,1569.1 1116.1,1564.9 1142.5,1560.7 1168.9,1556.5 1195.4,1552.4 1221.9,1548.4 1248.4,1544.3 1274.9,1540.4 1301.5,1536.4 1328.0,1532.6 1354.6,1528.7 1381.2,1525.0 1407.9,1521.2 1434.5,1517.6 1461.1,1514.0 1487.8,1510.4 1514.5,1506.9 1541.1,1503.4 1567.8,1500.0 1594.5,1496.7 1621.2,1493.4 1647.9,1490.2 1674.5,1487.0 1701.2,1483.9 1727.9,1480.8 1754.5,1477.8 1781.2,1474.8 1807.8,1471.9 1834.4,1469.0 1861.0,1466.2 1887.6,1463.4 1914.1,1460.7 1940.7,1458.0 1967.2,1455.4 1993.7,1452.8 2020.1,1450.2  Z" style="stroke-width: 0.5;  stroke: rgb(0,0,0); fill: rgb(179,177,178);" />
<path d="M 1869.193,1869.734 A 522.500,522.500 0.00 0,1 1782.9,1939.3 L 1782.9,1939.3 1771.3,1921.7 1759.3,1904.4 1746.9,1887.5 1734.1,1871.0 1721.0,1855.1 1707.7,1839.9 1694.0,1825.5 1680.1,1811.9 1665.9,1799.2 1651.5,1787.5 1637.0,1776.9 1622.3,1767.4 1607.5,1759.1 1592.7,1751.9 1577.7,1746.0 1562.7,1741.4 1547.6,1738.1 1532.6,1736.0 1517.5,1735.3 1502.6,1736.0 1487.7,1737.9 1472.8,1741.2 1458.1,1745.8 1443.6,1751.7 1429.1,1758.9 1414.9,1767.3 1400.9,1776.9 1387.1,1787.6 1373.5,1799.4 1360.2,1812.3 1347.2,1826.1 1334.5,1840.8 1322.1,1856.4 1310.0,1872.7 1298.3,1889.6 1287.0,1907.1 1276.1,1925.0 1265.6,1943.3 1255.5,1961.8  A 522.500,522.500 0.00 0,1 1163.7,1899.9 L 1163.7,1899.9 1178.0,1883.2 1192.8,1866.9 1208.1,1850.9 1223.9,1835.4 1240.1,1820.3 1256.7,1805.9 1273.6,1792.2 1291.0,1779.2 1308.7,1767.0 1326.6,1755.6 1344.9,1745.2 1363.5,1735.7 1382.2,1727.2 1401.2,1719.7 1420.4,1713.3 1439.8,1708.0 1459.3,1703.8 1478.9,1700.6 1498.6,1698.7 1518.3,1697.8 1538.1,1698.1 1557.9,1699.5 1577.7,1702.1 1597.5,1705.8 1617.1,1710.5 1636.7,1716.4 1656.1,1723.2 1675.4,1731.1 1694.5,1739.9 1713.4,1749.7 1732.1,1760.4 1750.4,1771.8 1768.5,1784.1 1786.3,1797.0 1803.7,1810.6 1820.7,1824.7 1837.3,1839.4 1853.5,1854.4 1869.2,1869.7  Z" style="stroke-width: 0.5;  stroke: rgb(0,0,0); fill: rgb(179,177,178);" />
<path d="M 1782.594,1939.484 A 522.500,522.500 0.00 0,1 1688.3,1987.4 L 1688.3,1987.4 1680.8,1968.4 1673.0,1949.6 1664.9,1931.1 1656.6,1913.1 1648.0,1895.6 1639.3,1878.9 1630.3,1862.9 1621.2,1847.9 1612.0,1833.8 1602.6,1820.8 1593.2,1808.9 1583.6,1798.2 1574.0,1788.8 1564.3,1780.7 1554.6,1773.9 1544.9,1768.6 1535.2,1764.6 1525.5,1762.1 1515.9,1761.0 1506.3,1761.4 1496.7,1763.3 1487.3,1766.6 1477.9,1771.4 1468.7,1777.6 1459.6,1785.1 1450.7,1794.0 1441.9,1804.2 1433.3,1815.7 1424.8,1828.3 1416.6,1842.1 1408.6,1856.9 1400.8,1872.7 1393.2,1889.3 1385.9,1906.7 1378.9,1924.8 1372.1,1943.5 1365.6,1962.6 1359.4,1982.0 1353.5,2001.6  A 522.500,522.500 0.00 0,1 1255.5,1961.8 L 1255.5,1961.8 1265.6,1943.3 1276.1,1925.0 1287.0,1907.1 1298.3,1889.6 1310.0,1872.7 1322.0,1856.4 1334.4,1840.8 1347.2,1826.1 1360.2,1812.3 1373.5,1799.4 1387.0,1787.6 1400.8,1776.9 1414.9,1767.3 1429.1,1758.9 1443.5,1751.8 1458.1,1745.9 1472.8,1741.3 1487.6,1738.0 1502.5,1736.0 1517.5,1735.4 1532.5,1736.1 1547.5,1738.1 1562.5,1741.5 1577.6,1746.1 1592.5,1752.0 1607.4,1759.2 1622.2,1767.5 1636.9,1777.0 1651.4,1787.7 1665.7,1799.4 1679.9,1812.0 1693.8,1825.6 1707.4,1840.1 1720.8,1855.3 1733.9,1871.2 1746.6,1887.6 1759.0,1904.6 1771.0,1921.9 1782.6,1939.5  Z" style="stroke-width: 0.5;  stroke: rgb(0,0,0); fill: rgb(179,177,178);" />
<path d="M 1514.836,977.711 A 522.500,522.500 0.00 0,1 1592.7,985.8 L 1592.7,985.8 1588.8,1006.3 1584.5,1026.7 1579.6,1046.9 1574.3,1066.7 1568.5,1086.1 1562.3,1104.9 1555.5,1123.1 1548.2,1140.6 1540.4,1157.2 1532.1,1173.0 1523.3,1187.8 1513.9,1201.5 1504.1,1214.2 1493.8,1225.7 1483.0,1236.1 1471.7,1245.2 1460.0,1253.1 1447.8,1259.7 1435.2,1265.0 1422.1,1268.9 1408.7,1271.6 1394.9,1273.0 1380.8,1273.0 1366.3,1271.8 1351.6,1269.3 1336.6,1265.5 1321.3,1260.5 1305.9,1254.3 1290.3,1247.0 1274.6,1238.6 1258.8,1229.2 1243.0,1218.8 1227.2,1207.5 1211.5,1195.4 1195.8,1182.6 1180.3,1169.1 1165.0,1155.1 1150.0,1140.7 1135.3,1125.9  A 522.500,522.500 0.00 0,1 1195.7,1075.3 L 1195.7,1075.3 1207.7,1091.8 1220.0,1108.0 1232.4,1123.9 1245.0,1139.3 1257.6,1154.0 1270.3,1168.0 1282.9,1181.2 1295.5,1193.5 1307.9,1204.8 1320.2,1215.1 1332.4,1224.2 1344.3,1232.2 1355.9,1238.9 1367.3,1244.3 1378.3,1248.4 1389.0,1251.2 1399.4,1252.6 1409.4,1252.6 1419.0,1251.2 1428.1,1248.4 1436.8,1244.2 1445.1,1238.6 1452.9,1231.7 1460.2,1223.4 1467.1,1213.8 1473.5,1203.0 1479.4,1190.9 1484.8,1177.6 1489.8,1163.3 1494.2,1147.9 1498.2,1131.6 1501.8,1114.3 1504.9,1096.3 1507.5,1077.6 1509.7,1058.4 1511.6,1038.6 1513.0,1018.5 1514.1,998.1 1514.8,977.7  Z" style="stroke-width: 0.5;  stroke: rgb(0,0,0); fill: rgb(179,177,178);" />
<path d="M 1880.583,1142.002 A 522.500,522.500 0.00 0,1 1922.1,1192.0 L 1922.1,1192.0 1902.2,1206.3 1881.9,1220.4 1861.2,1234.4 1840.2,1248.1 1818.8,1261.5 1797.1,1274.6 1775.0,1287.4 1752.6,1299.8 1729.9,1311.9 1706.9,1323.5 1683.6,1334.8 1660.0,1345.6 1636.2,1355.9 1612.1,1365.8 1587.8,1375.2 1563.3,1384.1 1538.6,1392.5 1513.7,1400.4 1488.6,1407.7 1463.4,1414.6 1438.0,1420.8 1412.5,1426.6 1386.9,1431.8 1361.3,1436.4 1335.5,1440.6 1309.8,1444.1 1284.0,1447.2 1258.2,1449.7 1232.4,1451.7 1206.6,1453.2 1180.9,1454.3 1155.3,1454.8 1129.8,1454.9 1104.4,1454.5 1079.2,1453.7 1054.2,1452.4 1029.3,1450.8 1004.6,1448.8 980.2,1446.5  A 522.500,522.500 0.00 0,1 991.0,1382.2 L 991.0,1382.2 1014.1,1387.3 1037.7,1392.1 1061.4,1396.4 1085.5,1400.2 1109.7,1403.6 1134.2,1406.3 1158.8,1408.6 1183.5,1410.2 1208.3,1411.3 1233.2,1411.7 1258.1,1411.4 1283.1,1410.5 1308.0,1408.9 1332.9,1406.6 1357.7,1403.6 1382.4,1400.0 1407.1,1395.6 1431.6,1390.5 1455.9,1384.6 1480.1,1378.1 1504.0,1370.9 1527.7,1363.0 1551.2,1354.4 1574.5,1345.1 1597.4,1335.2 1620.1,1324.7 1642.4,1313.5 1664.4,1301.7 1686.1,1289.4 1707.4,1276.5 1728.3,1263.1 1748.9,1249.3 1769.0,1235.0 1788.7,1220.2 1808.0,1205.2 1826.8,1189.7 1845.2,1174.0 1863.1,1158.1 1880.6,1142.0  Z" style="stroke-width: 0.5;  stroke: rgb(0,0,0); fill: rgb(179,177,178);" />
<path d="M 1908.400,1825.908 A 522.500,522.500 0.00 0,1 1870.8,1868.1 L 1870.8,1868.1 1855.0,1852.7 1838.6,1837.7 1821.8,1823.0 1804.6,1808.8 1787.0,1795.2 1769.0,1782.1 1750.7,1769.8 1732.0,1758.2 1713.1,1747.4 1693.9,1737.4 1674.4,1728.4 1654.8,1720.3 1634.9,1713.2 1615.0,1707.0 1594.9,1702.0 1574.7,1698.0 1554.4,1695.0 1534.1,1693.2 1513.7,1692.4 1493.4,1692.8 1473.1,1694.3 1452.8,1696.9 1432.7,1700.6 1412.6,1705.3 1392.7,1711.1 1373.0,1718.0 1353.5,1725.8 1334.1,1734.7 1315.0,1744.4 1296.2,1755.1 1277.7,1766.6 1259.5,1778.8 1241.6,1791.9 1224.1,1805.5 1207.0,1819.8 1190.3,1834.7 1174.1,1849.9 1158.3,1865.6 1143.0,1881.5  A 522.500,522.500 0.00 0,1 1103.8,1840.6 L 1103.8,1840.6 1121.1,1826.1 1138.9,1811.8 1157.2,1797.9 1175.9,1784.5 1195.1,1771.6 1214.6,1759.2 1234.4,1747.5 1254.6,1736.4 1275.2,1726.1 1296.0,1716.5 1317.0,1707.7 1338.4,1699.7 1359.9,1692.7 1381.6,1686.5 1403.4,1681.3 1425.4,1676.9 1447.5,1673.6 1469.7,1671.2 1492.0,1669.8 1514.2,1669.4 1536.5,1670.0 1558.8,1671.6 1581.0,1674.1 1603.1,1677.6 1625.2,1682.0 1647.1,1687.4 1668.8,1693.7 1690.4,1700.9 1711.8,1708.9 1732.9,1717.7 1753.8,1727.3 1774.4,1737.6 1794.7,1748.6 1814.7,1760.2 1834.3,1772.5 1853.5,1785.2 1872.2,1798.4 1890.6,1812.0 1908.4,1825.9  Z" style="stroke-width: 0.5;  stroke: rgb(0,0,0); fill: rgb(179,177,178);" />
<path d="M 2017.694,1570.702 A 522.500,522.500 0.00 0,1 2008.9,1618.6 L 2008.9,1618.6 1984.9,1613.2 1960.7,1608.1 1936.2,1603.3 1911.5,1598.9 1886.5,1594.9 1861.4,1591.3 1836.0,1588.1 1810.5,1585.4 1784.9,1583.1 1759.1,1581.3 1733.2,1579.9 1707.3,1579.1 1681.3,1578.8 1655.2,1579.0 1629.1,1579.8 1603.0,1581.0 1577.0,1582.9 1550.9,1585.2 1524.9,1588.1 1498.9,1591.6 1473.1,1595.5 1447.3,1600.1 1421.7,1605.1 1396.1,1610.7 1370.8,1616.8 1345.5,1623.3 1320.5,1630.4 1295.7,1638.0 1271.0,1646.0 1246.6,1654.5 1222.5,1663.4 1198.6,1672.7 1175.0,1682.4 1151.6,1692.4 1128.6,1702.8 1105.8,1713.5 1083.4,1724.5 1061.4,1735.7 1039.7,1747.2  A 522.500,522.500 0.00 0,1 1018.6,1703.2 L 1018.6,1703.2 1041.8,1693.6 1065.3,1684.1 1089.0,1674.9 1113.0,1665.8 1137.3,1657.1 1161.7,1648.6 1186.4,1640.3 1211.3,1632.4 1236.4,1624.8 1261.7,1617.5 1287.2,1610.5 1312.8,1603.9 1338.5,1597.7 1364.4,1591.8 1390.5,1586.3 1416.6,1581.2 1442.9,1576.5 1469.2,1572.2 1495.6,1568.3 1522.1,1564.8 1548.6,1561.7 1575.1,1559.0 1601.7,1556.7 1628.2,1554.8 1654.8,1553.3 1681.3,1552.2 1707.8,1551.5 1734.3,1551.2 1760.7,1551.3 1787.0,1551.7 1813.2,1552.5 1839.3,1553.7 1865.3,1555.2 1891.1,1557.1 1916.8,1559.2 1942.3,1561.7 1967.7,1564.4 1992.8,1567.4 2017.7,1570.7  Z" style="stroke-width: 0.5;  stroke: rgb(0,0,0); fill: rgb(179,177,178);" />
<path d="M 1995.562,1334.396 A 522.500,522.500 0.00 0,1 2008.1,1378.0 L 2008.1,1378.0 1982.2,1384.2 1956.3,1390.3 1930.4,1396.5 1904.4,1402.6 1878.4,1408.6 1852.4,1414.6 1826.3,1420.6 1800.2,1426.5 1774.1,1432.4 1747.9,1438.3 1721.7,1444.1 1695.5,1449.9 1669.3,1455.6 1643.0,1461.2 1616.7,1466.8 1590.4,1472.4 1564.1,1477.9 1537.8,1483.4 1511.4,1488.8 1485.1,1494.1 1458.7,1499.4 1432.3,1504.7 1406.0,1509.9 1379.6,1515.0 1353.2,1520.1 1326.8,1525.1 1300.4,1530.1 1274.0,1535.0 1247.6,1539.9 1221.3,1544.7 1194.9,1549.4 1168.5,1554.1 1142.2,1558.8 1115.9,1563.4 1089.6,1568.0 1063.3,1572.5 1037.0,1576.9 1010.8,1581.4 984.6,1585.7  A 522.500,522.500 0.00 0,1 979.1,1540.7 L 979.1,1540.7 1005.0,1538.6 1031.1,1536.3 1057.2,1534.0 1083.4,1531.4 1109.7,1528.8 1136.0,1525.9 1162.4,1522.9 1188.8,1519.7 1215.3,1516.4 1241.8,1512.9 1268.3,1509.2 1294.9,1505.3 1321.5,1501.2 1348.0,1497.0 1374.6,1492.5 1401.2,1487.9 1427.7,1483.1 1454.2,1478.1 1480.7,1472.9 1507.2,1467.5 1533.6,1462.0 1560.0,1456.2 1586.3,1450.3 1612.6,1444.2 1638.8,1438.0 1664.9,1431.5 1690.9,1424.9 1716.9,1418.1 1742.8,1411.2 1768.6,1404.1 1794.3,1396.9 1819.8,1389.5 1845.3,1382.0 1870.7,1374.3 1895.9,1366.6 1921.0,1358.7 1946.0,1350.7 1970.9,1342.6 1995.6,1334.4  Z" style="stroke-width: 0.5;  stroke: rgb(0,0,0); fill: rgb(179,177,178);" />
<path d="M 1968.673,1269.021 A 522.500,522.500 0.00 0,1 1984.6,1304.6 L 1984.6,1304.6 1960.8,1314.1 1936.8,1323.5 1912.6,1332.7 1888.2,1341.8 1863.6,1350.7 1838.8,1359.4 1813.9,1367.9 1788.8,1376.2 1763.5,1384.3 1738.1,1392.1 1712.5,1399.8 1686.9,1407.1 1661.0,1414.3 1635.1,1421.2 1609.1,1427.8 1583.0,1434.1 1556.8,1440.2 1530.5,1446.0 1504.1,1451.6 1477.7,1456.8 1451.2,1461.8 1424.7,1466.5 1398.1,1470.9 1371.6,1475.0 1345.0,1478.8 1318.4,1482.4 1291.8,1485.6 1265.3,1488.6 1238.8,1491.4 1212.3,1493.8 1185.8,1496.0 1159.5,1497.9 1133.2,1499.6 1106.9,1501.0 1080.8,1502.2 1054.8,1503.2 1028.9,1503.9 1003.1,1504.5 977.5,1504.8  A 522.500,522.500 0.00 0,1 978.6,1465.8 L 978.6,1465.8 1003.7,1467.4 1029.0,1468.6 1054.5,1469.6 1080.2,1470.3 1106.0,1470.6 1131.9,1470.7 1158.0,1470.4 1184.1,1469.8 1210.4,1468.8 1236.7,1467.5 1263.0,1465.8 1289.4,1463.7 1315.8,1461.3 1342.3,1458.4 1368.7,1455.2 1395.1,1451.5 1421.5,1447.5 1447.8,1443.1 1474.1,1438.3 1500.3,1433.1 1526.4,1427.5 1552.5,1421.5 1578.4,1415.1 1604.2,1408.4 1629.8,1401.2 1655.3,1393.8 1680.7,1385.9 1705.9,1377.8 1730.9,1369.2 1755.7,1360.4 1780.3,1351.3 1804.7,1341.8 1828.9,1332.1 1852.8,1322.2 1876.5,1312.0 1900.0,1301.5 1923.1,1290.9 1946.0,1280.0 1968.7,1269.0  Z" style="stroke-width: 0.5;  stroke: rgb(0,0,0); fill: rgb(179,177,178);" />
<path d="M 1953.379,1759.718 A 522.500,522.500 0.00 0,1 1933.7,1791.4 L 1933.7,1791.4 1914.4,1778.7 1894.7,1766.4 1874.5,1754.5 1853.9,1742.9 1833.0,1731.9 1811.7,1721.4 1790.0,1711.5 1768.1,1702.3 1745.9,1693.7 1723.5,1685.8 1700.8,1678.6 1678.0,1672.2 1654.9,1666.7 1631.7,1661.9 1608.4,1658.0 1585.0,1654.9 1561.6,1652.7 1538.1,1651.3 1514.5,1650.9 1491.0,1651.3 1467.5,1652.6 1444.0,1654.8 1420.7,1657.9 1397.4,1661.8 1374.3,1666.6 1351.3,1672.2 1328.4,1678.6 1305.8,1685.8 1283.4,1693.8 1261.3,1702.5 1239.4,1711.9 1217.9,1722.0 1196.6,1732.6 1175.7,1743.9 1155.2,1755.7 1135.0,1767.9 1115.3,1780.6 1096.0,1793.7 1077.2,1807.0  A 522.500,522.500 0.00 0,1 1056.4,1776.0 L 1056.4,1776.0 1076.4,1763.8 1096.9,1751.9 1117.8,1740.4 1139.1,1729.2 1160.8,1718.5 1182.8,1708.3 1205.2,1698.6 1227.8,1689.5 1250.7,1681.0 1273.9,1673.1 1297.3,1665.9 1320.9,1659.4 1344.7,1653.6 1368.7,1648.5 1392.8,1644.1 1417.0,1640.5 1441.4,1637.7 1465.8,1635.7 1490.2,1634.5 1514.7,1634.0 1539.2,1634.4 1563.6,1635.5 1588.0,1637.4 1612.4,1640.1 1636.6,1643.6 1660.8,1647.8 1684.8,1652.8 1708.6,1658.4 1732.3,1664.8 1755.7,1671.8 1778.9,1679.5 1801.9,1687.8 1824.6,1696.6 1846.9,1706.0 1869.0,1715.9 1890.7,1726.3 1912.0,1737.1 1932.9,1748.2 1953.4,1759.7  Z" style="stroke-width: 0.5;  stroke: rgb(0,0,0); fill: rgb(179,177,178);" />
<path d="M 1624.891,992.645 A 522.500,522.500 0.00 0,1 1657.3,1001.8 L 1657.3,1001.8 1650.7,1022.0 1643.5,1042.2 1635.8,1062.2 1627.5,1081.8 1618.8,1101.0 1609.5,1119.7 1599.6,1137.8 1589.2,1155.2 1578.3,1171.9 1566.9,1187.7 1554.9,1202.6 1542.4,1216.6 1529.4,1229.6 1515.9,1241.6 1502.0,1252.5 1487.5,1262.2 1472.6,1270.8 1457.3,1278.2 1441.6,1284.5 1425.5,1289.5 1409.0,1293.3 1392.2,1295.9 1375.0,1297.3 1357.6,1297.5 1340.0,1296.5 1322.1,1294.3 1304.0,1291.0 1285.8,1286.6 1267.4,1281.1 1249.0,1274.6 1230.5,1267.1 1212.1,1258.7 1193.7,1249.4 1175.4,1239.3 1157.3,1228.5 1139.4,1217.0 1121.7,1205.0 1104.3,1192.5 1087.3,1179.6  A 522.500,522.500 0.00 0,1 1108.8,1153.7 L 1108.8,1153.7 1124.7,1167.5 1141.0,1180.9 1157.6,1193.9 1174.4,1206.3 1191.4,1218.1 1208.5,1229.2 1225.7,1239.4 1243.0,1248.7 1260.2,1257.2 1277.3,1264.6 1294.4,1270.9 1311.3,1276.1 1328.1,1280.2 1344.6,1283.2 1360.9,1284.9 1376.9,1285.3 1392.7,1284.6 1408.1,1282.5 1423.1,1279.2 1437.7,1274.6 1452.0,1268.8 1465.8,1261.7 1479.2,1253.4 1492.1,1243.9 1504.5,1233.3 1516.5,1221.5 1527.9,1208.6 1538.9,1194.6 1549.3,1179.7 1559.2,1163.9 1568.6,1147.2 1577.4,1129.7 1585.8,1111.5 1593.6,1092.7 1600.8,1073.3 1607.6,1053.5 1613.9,1033.4 1619.6,1013.1 1624.9,992.6  Z" style="stroke-width: 0.5;  stroke: rgb(0,0,0); fill: rgb(179,177,178);" />
<path d="M 1593.447,985.924 A 522.500,522.500 0.00 0,1 1625.3,992.7 L 1625.3,992.7 1620.0,1013.2 1614.2,1033.5 1607.9,1053.6 1601.1,1073.4 1593.9,1092.7 1586.0,1111.5 1577.7,1129.7 1568.8,1147.2 1559.4,1163.9 1549.5,1179.7 1539.1,1194.6 1528.2,1208.6 1516.7,1221.4 1504.7,1233.2 1492.3,1243.9 1479.4,1253.4 1466.0,1261.7 1452.2,1268.7 1437.9,1274.5 1423.3,1279.1 1408.3,1282.4 1392.9,1284.4 1377.2,1285.1 1361.2,1284.7 1344.9,1282.9 1328.3,1280.0 1311.6,1275.9 1294.7,1270.6 1277.6,1264.2 1260.5,1256.8 1243.3,1248.4 1226.1,1239.0 1208.9,1228.8 1191.8,1217.7 1174.8,1205.9 1158.0,1193.4 1141.5,1180.4 1125.2,1167.0 1109.2,1153.1  A 522.500,522.500 0.00 0,1 1131.6,1129.5 L 1131.6,1129.5 1146.5,1144.1 1161.7,1158.5 1177.1,1172.3 1192.8,1185.7 1208.6,1198.3 1224.5,1210.3 1240.5,1221.4 1256.5,1231.7 1272.4,1240.9 1288.2,1249.2 1304.0,1256.4 1319.6,1262.4 1334.9,1267.3 1350.1,1270.9 1365.0,1273.3 1379.6,1274.5 1393.8,1274.3 1407.8,1272.8 1421.3,1270.1 1434.5,1266.0 1447.2,1260.6 1459.5,1253.9 1471.4,1245.9 1482.7,1236.7 1493.6,1226.3 1504.1,1214.7 1514.0,1202.0 1523.4,1188.2 1532.3,1173.4 1540.6,1157.6 1548.5,1140.9 1555.9,1123.4 1562.7,1105.2 1569.0,1086.3 1574.9,1066.9 1580.2,1047.0 1585.1,1026.8 1589.5,1006.4 1593.4,985.9  Z" style="stroke-width: 0.5;  stroke: rgb(0,0,0); fill: rgb(179,177,178);" />
<path d="M 2008.794,1618.889 A 522.500,522.500 0.00 0,1 2001.4,1647.1 L 2001.4,1647.1 1978.1,1640.4 1954.5,1634.2 1930.6,1628.2 1906.5,1622.7 1882.0,1617.6 1857.4,1612.9 1832.6,1608.8 1807.5,1605.1 1782.4,1601.9 1757.0,1599.3 1731.6,1597.3 1706.1,1595.8 1680.5,1594.9 1654.8,1594.6 1629.2,1594.9 1603.5,1595.8 1577.8,1597.3 1552.2,1599.5 1526.6,1602.3 1501.1,1605.7 1475.7,1609.7 1450.4,1614.3 1425.2,1619.6 1400.2,1625.4 1375.4,1631.9 1350.7,1638.9 1326.2,1646.5 1302.0,1654.6 1278.0,1663.2 1254.3,1672.4 1230.8,1682.0 1207.6,1692.2 1184.7,1702.7 1162.2,1713.7 1139.9,1725.0 1118.1,1736.7 1096.6,1748.6 1075.5,1760.9 1054.7,1773.4  A 522.500,522.500 0.00 0,1 1040.2,1748.1 L 1040.2,1748.1 1061.9,1736.6 1083.9,1725.4 1106.3,1714.3 1129.0,1703.6 1152.0,1693.2 1175.3,1683.1 1198.9,1673.4 1222.8,1664.0 1246.9,1655.1 1271.3,1646.6 1295.9,1638.5 1320.7,1630.9 1345.7,1623.8 1370.9,1617.2 1396.3,1611.1 1421.8,1605.5 1447.5,1600.4 1473.2,1595.9 1499.1,1591.9 1525.0,1588.4 1551.0,1585.5 1577.0,1583.1 1603.1,1581.3 1629.2,1580.0 1655.3,1579.3 1681.3,1579.0 1707.3,1579.3 1733.3,1580.2 1759.1,1581.5 1784.9,1583.3 1810.5,1585.6 1836.0,1588.3 1861.3,1591.5 1886.5,1595.2 1911.4,1599.2 1936.2,1603.6 1960.6,1608.4 1984.9,1613.5 2008.8,1618.9  Z" style="stroke-width: 0.5;  stroke: rgb(0,0,0); fill: rgb(179,177,178);" />
<path d="M 1932.869,1792.627 A 522.500,522.500 0.00 0,1 1918.1,1813.4 L 1918.1,1813.4 1899.7,1799.9 1880.8,1786.8 1861.5,1774.0 1841.8,1761.7 1821.7,1749.9 1801.2,1738.7 1780.4,1728.1 1759.3,1718.2 1738.0,1708.9 1716.3,1700.4 1694.4,1692.8 1672.4,1685.9 1650.1,1679.8 1627.7,1674.7 1605.2,1670.4 1582.6,1667.1 1559.9,1664.7 1537.1,1663.2 1514.3,1662.6 1491.6,1663.1 1468.8,1664.4 1446.2,1666.7 1423.6,1670.0 1401.1,1674.1 1378.7,1679.2 1356.5,1685.2 1334.5,1692.0 1312.7,1699.7 1291.1,1708.2 1269.8,1717.4 1248.7,1727.4 1228.0,1738.1 1207.6,1749.5 1187.6,1761.4 1167.9,1774.0 1148.7,1787.0 1129.8,1800.4 1111.5,1814.2 1093.6,1828.4  A 522.500,522.500 0.00 0,1 1078.1,1808.2 L 1078.1,1808.2 1096.9,1794.8 1116.1,1781.7 1135.8,1769.0 1155.9,1756.7 1176.3,1744.9 1197.2,1733.6 1218.4,1722.9 1239.9,1712.8 1261.7,1703.3 1283.8,1694.6 1306.2,1686.6 1328.8,1679.4 1351.5,1672.9 1374.5,1667.3 1397.6,1662.5 1420.8,1658.5 1444.1,1655.5 1467.6,1653.3 1491.0,1651.9 1514.5,1651.5 1538.0,1652.0 1561.5,1653.3 1584.9,1655.5 1608.3,1658.6 1631.5,1662.6 1654.7,1667.4 1677.7,1673.0 1700.5,1679.4 1723.1,1686.6 1745.5,1694.5 1767.7,1703.1 1789.5,1712.4 1811.1,1722.4 1832.4,1732.9 1853.3,1744.0 1873.8,1755.5 1893.9,1767.5 1913.6,1779.9 1932.9,1792.6  Z" style="stroke-width: 0.5;  stroke: rgb(0,0,0); fill: rgb(179,177,178);" />
<path d="M 1989.046,1316.043 A 522.500,522.500 0.00 0,1 1995.1,1332.9 L 1995.1,1332.9 1970.4,1341.2 1945.6,1349.3 1920.7,1357.4 1895.6,1365.3 1870.4,1373.1 1845.1,1380.8 1819.7,1388.3 1794.1,1395.7 1768.4,1402.9 1742.7,1410.0 1716.8,1416.9 1690.8,1423.6 1664.8,1430.2 1638.6,1436.6 1612.4,1442.8 1586.1,1448.8 1559.8,1454.6 1533.4,1460.3 1507.0,1465.7 1480.5,1471.0 1454.0,1476.0 1427.4,1480.9 1400.8,1485.5 1374.3,1490.0 1347.7,1494.3 1321.1,1498.3 1294.5,1502.2 1267.9,1505.9 1241.4,1509.4 1214.8,1512.6 1188.3,1515.8 1161.9,1518.7 1135.5,1521.4 1109.2,1524.0 1082.9,1526.4 1056.7,1528.6 1030.6,1530.7 1004.6,1532.6 978.6,1534.4  A 522.500,522.500 0.00 0,1 977.8,1516.5 L 977.8,1516.5 1003.5,1515.6 1029.4,1514.5 1055.4,1513.3 1081.5,1511.8 1107.7,1510.1 1134.0,1508.3 1160.3,1506.2 1186.7,1503.8 1213.2,1501.3 1239.7,1498.5 1266.2,1495.5 1292.8,1492.2 1319.4,1488.7 1346.0,1485.0 1372.6,1481.0 1399.2,1476.7 1425.8,1472.2 1452.3,1467.5 1478.8,1462.5 1505.3,1457.2 1531.7,1451.8 1558.0,1446.0 1584.3,1440.0 1610.5,1433.8 1636.6,1427.4 1662.6,1420.7 1688.5,1413.8 1714.4,1406.7 1740.0,1399.3 1765.6,1391.8 1791.1,1384.0 1816.4,1376.1 1841.5,1368.0 1866.5,1359.7 1891.4,1351.3 1916.1,1342.7 1940.6,1333.9 1964.9,1325.0 1989.0,1316.0  Z" style="stroke-width: 0.5;  stroke: rgb(0,0,0); fill: rgb(179,177,178);" />
<path d="M 1960.220,1252.605 A 522.500,522.500 0.00 0,1 1968.0,1267.7 L 1968.0,1267.7 1945.4,1278.7 1922.6,1289.6 1899.4,1300.3 1876.0,1310.8 1852.4,1321.1 1828.5,1331.1 1804.3,1340.9 1779.9,1350.4 1755.4,1359.5 1730.6,1368.4 1705.6,1376.9 1680.4,1385.2 1655.1,1393.0 1629.6,1400.5 1604.0,1407.7 1578.2,1414.4 1552.3,1420.8 1526.3,1426.8 1500.2,1432.4 1474.0,1437.7 1447.7,1442.5 1421.4,1446.9 1395.0,1450.9 1368.6,1454.6 1342.2,1457.8 1315.8,1460.6 1289.3,1463.1 1262.9,1465.1 1236.6,1466.8 1210.3,1468.1 1184.1,1469.1 1157.9,1469.6 1131.9,1469.9 1106.0,1469.8 1080.2,1469.4 1054.6,1468.6 1029.1,1467.6 1003.8,1466.3 978.7,1464.8  A 522.500,522.500 0.00 0,1 980.1,1447.9 L 980.1,1447.9 1004.9,1450.2 1030.0,1452.3 1055.2,1454.0 1080.7,1455.4 1106.3,1456.5 1132.0,1457.3 1157.9,1457.6 1183.9,1457.6 1210.0,1457.2 1236.2,1456.4 1262.4,1455.1 1288.7,1453.5 1315.0,1451.4 1341.3,1448.9 1367.6,1445.9 1393.9,1442.5 1420.1,1438.6 1446.3,1434.3 1472.4,1429.6 1498.5,1424.4 1524.4,1418.8 1550.3,1412.7 1576.0,1406.2 1601.6,1399.3 1627.0,1391.9 1652.3,1384.2 1677.4,1376.0 1702.3,1367.5 1727.0,1358.6 1751.4,1349.3 1775.7,1339.7 1799.7,1329.8 1823.5,1319.5 1847.0,1309.0 1870.2,1298.1 1893.2,1287.1 1915.8,1275.8 1938.2,1264.3 1960.2,1252.6  Z" style="stroke-width: 0.5;  stroke: rgb(0,0,0); fill: rgb(179,177,178);" />
<path d="M 1676.018,1991.959 A 522.500,522.500 0.00 0,1 1669.8,1994.1 L 1669.8,1994.1 1663.1,1974.9 1656.1,1955.9 1648.8,1937.2 1641.4,1919.0 1633.8,1901.4 1626.0,1884.4 1618.0,1868.3 1609.9,1853.1 1601.7,1838.8 1593.4,1825.6 1585.0,1813.6 1576.6,1802.8 1568.1,1793.2 1559.6,1785.0 1551.1,1778.1 1542.6,1772.7 1534.1,1768.7 1525.7,1766.1 1517.3,1765.1 1508.9,1765.5 1500.7,1767.4 1492.5,1770.7 1484.5,1775.6 1476.6,1781.8 1468.8,1789.5 1461.1,1798.5 1453.6,1808.8 1446.3,1820.4 1439.1,1833.2 1432.2,1847.2 1425.4,1862.2 1418.9,1878.1 1412.6,1895.0 1406.5,1912.6 1400.6,1930.9 1395.0,1949.8 1389.6,1969.1 1384.5,1988.7 1379.7,2008.5  A 522.500,522.500 0.00 0,1 1365.5,2004.9 L 1365.5,2004.9 1370.9,1985.2 1376.6,1965.7 1382.5,1946.5 1388.7,1927.8 1395.2,1909.6 1402.0,1892.1 1408.9,1875.4 1416.1,1859.5 1423.5,1844.6 1431.1,1830.8 1438.9,1818.1 1446.9,1806.6 1455.0,1796.4 1463.3,1787.4 1471.7,1779.8 1480.3,1773.7 1488.9,1768.9 1497.7,1765.6 1506.5,1763.7 1515.4,1763.4 1524.4,1764.5 1533.4,1767.0 1542.4,1771.1 1551.5,1776.5 1560.5,1783.4 1569.5,1791.6 1578.4,1801.1 1587.3,1811.9 1596.2,1823.9 1604.9,1837.1 1613.5,1851.3 1622.0,1866.5 1630.3,1882.6 1638.5,1899.5 1646.4,1917.1 1654.2,1935.2 1661.7,1953.8 1669.0,1972.8 1676.0,1992.0  Z" style="stroke-width: 0.5;  stroke: rgb(0,0,0); fill: rgb(179,177,178);" />
<path d="M 1917.694,1813.907 A 522.500,522.500 0.00 0,1 1909.1,1825.0 L 1909.1,1825.0 1891.2,1811.1 1872.9,1797.6 1854.1,1784.4 1834.8,1771.7 1815.2,1759.5 1795.2,1747.9 1774.9,1736.9 1754.2,1726.6 1733.3,1717.0 1712.1,1708.2 1690.7,1700.2 1669.1,1693.1 1647.3,1686.8 1625.3,1681.5 1603.3,1677.0 1581.1,1673.5 1558.8,1671.0 1536.5,1669.5 1514.2,1668.9 1491.9,1669.3 1469.6,1670.7 1447.4,1673.0 1425.2,1676.4 1403.2,1680.6 1381.3,1685.9 1359.5,1692.0 1338.0,1699.1 1316.6,1707.0 1295.5,1715.7 1274.7,1725.3 1254.1,1735.6 1233.8,1746.7 1213.9,1758.4 1194.4,1770.7 1175.2,1783.6 1156.4,1797.0 1138.1,1810.8 1120.2,1825.0 1102.9,1839.5  A 522.500,522.500 0.00 0,1 1094.3,1829.2 L 1094.3,1829.2 1112.1,1815.1 1130.4,1801.2 1149.2,1787.7 1168.5,1774.7 1188.1,1762.1 1208.1,1750.2 1228.5,1738.8 1249.2,1728.0 1270.2,1718.0 1291.5,1708.7 1313.0,1700.2 1334.8,1692.5 1356.8,1685.6 1378.9,1679.7 1401.3,1674.6 1423.7,1670.4 1446.3,1667.1 1469.0,1664.8 1491.7,1663.4 1514.4,1663.0 1537.1,1663.5 1559.9,1665.0 1582.5,1667.4 1605.1,1670.8 1627.6,1675.0 1650.0,1680.2 1672.3,1686.2 1694.3,1693.1 1716.2,1700.8 1737.8,1709.3 1759.1,1718.6 1780.2,1728.5 1801.0,1739.1 1821.4,1750.4 1841.5,1762.2 1861.2,1774.5 1880.5,1787.3 1899.3,1800.4 1917.7,1813.9  Z" style="stroke-width: 0.5;  stroke: rgb(0,0,0); fill: rgb(179,177,178);" />
<path d="M 1687.639,1987.645 A 522.500,522.500 0.00 0,1 1676.7,1991.7 L 1676.7,1991.7 1669.6,1972.6 1662.3,1953.6 1654.8,1935.0 1647.0,1916.9 1639.0,1899.3 1630.8,1882.4 1622.4,1866.3 1613.9,1851.1 1605.3,1836.9 1596.5,1823.8 1587.7,1811.8 1578.8,1801.0 1569.8,1791.5 1560.8,1783.3 1551.7,1776.4 1542.7,1771.0 1533.6,1767.0 1524.6,1764.4 1515.6,1763.3 1506.7,1763.7 1497.8,1765.5 1489.0,1768.8 1480.4,1773.6 1471.8,1779.8 1463.4,1787.4 1455.1,1796.3 1446.9,1806.6 1438.9,1818.1 1431.1,1830.8 1423.5,1844.6 1416.1,1859.5 1408.9,1875.4 1402.0,1892.1 1395.2,1909.6 1388.8,1927.8 1382.5,1946.5 1376.6,1965.7 1370.9,1985.2 1365.5,2004.9  A 522.500,522.500 0.00 0,1 1354.3,2001.8 L 1354.3,2001.8 1360.1,1982.2 1366.3,1962.8 1372.7,1943.7 1379.5,1925.0 1386.5,1906.9 1393.8,1889.5 1401.3,1872.8 1409.0,1857.0 1417.0,1842.2 1425.2,1828.5 1433.6,1815.8 1442.2,1804.4 1450.9,1794.2 1459.8,1785.3 1468.9,1777.7 1478.1,1771.5 1487.4,1766.8 1496.8,1763.4 1506.3,1761.6 1515.9,1761.2 1525.5,1762.2 1535.1,1764.7 1544.8,1768.7 1554.5,1774.1 1564.1,1780.8 1573.8,1789.0 1583.3,1798.4 1592.9,1809.1 1602.3,1821.0 1611.6,1834.0 1620.8,1848.1 1629.9,1863.1 1638.8,1879.1 1647.5,1895.8 1656.0,1913.3 1664.3,1931.3 1672.4,1949.8 1680.1,1968.6 1687.6,1987.6  Z" style="stroke-width: 0.5;  stroke: rgb(0,0,0); fill: rgb(179,177,178);" />
<path d="M 1985.329,1306.449 A 522.500,522.500 0.00 0,1 1989.1,1316.1 L 1989.1,1316.1 1964.9,1325.1 1940.6,1333.9 1916.1,1342.7 1891.4,1351.3 1866.5,1359.7 1841.5,1368.0 1816.4,1376.1 1791.1,1384.0 1765.6,1391.8 1740.1,1399.3 1714.4,1406.6 1688.6,1413.8 1662.6,1420.7 1636.6,1427.3 1610.5,1433.8 1584.3,1440.0 1558.0,1446.0 1531.7,1451.7 1505.3,1457.2 1478.8,1462.4 1452.3,1467.4 1425.8,1472.1 1399.2,1476.6 1372.6,1480.9 1346.0,1484.8 1319.4,1488.6 1292.8,1492.1 1266.2,1495.3 1239.7,1498.3 1213.2,1501.1 1186.7,1503.6 1160.3,1505.9 1133.9,1508.0 1107.7,1509.9 1081.5,1511.5 1055.4,1513.0 1029.4,1514.2 1003.5,1515.3 977.8,1516.2  A 522.500,522.500 0.00 0,1 977.5,1505.9 L 977.5,1505.9 1003.2,1505.5 1029.0,1504.9 1054.9,1504.1 1080.9,1503.1 1107.0,1501.9 1133.2,1500.4 1159.6,1498.7 1185.9,1496.7 1212.4,1494.5 1238.9,1492.1 1265.4,1489.3 1292.0,1486.3 1318.5,1483.0 1345.1,1479.5 1371.7,1475.6 1398.3,1471.5 1424.9,1467.1 1451.4,1462.5 1477.9,1457.5 1504.3,1452.3 1530.7,1446.8 1557.0,1441.0 1583.2,1434.9 1609.3,1428.6 1635.4,1422.0 1661.3,1415.2 1687.1,1408.1 1712.8,1400.8 1738.4,1393.2 1763.9,1385.4 1789.2,1377.4 1814.3,1369.1 1839.3,1360.7 1864.1,1352.1 1888.7,1343.3 1913.2,1334.3 1937.4,1325.1 1961.5,1315.9 1985.3,1306.4  Z" style="stroke-width: 0.5;  stroke: rgb(0,0,0); fill: rgb(179,177,178);" />
</g>
<g id="plot0">
<g id="plot0-axis">
</g>
<line x1='2243.4' y1='1599.6' x2='2243.4' y2='1599.6' style="stroke-width:14.0;stroke:rgb(0,0,0);stroke-linecap:round;fill:none;" />
<line x1='2243.4' y1='1599.6' x2='2283.0' y2='1604.9' style="stroke-width:14.0;stroke:rgb(0,0,0);stroke-linecap:round;fill:none;" />
<line x1='2283.0' y1='1604.9' x2='2283.0' y2='1604.9' style="stroke-width:14.0;stroke:rgb(0,0,0);stroke-linecap:round;fill:none;" />
<text x="2299.5" y="1629.8" font-size="46.8px" font-family="CMUBright-Roman" style="text-anchor:start;fill:rgb(255,38,78);" transform="rotate(7.6,2299.5,1629.8)" >HistomissSECH90<tspan baseline-shift="-40%" font-size="90%">s</tspan>02636</text>
</g>
<defs>
<pattern id="hline-sparse" width="10" height="10" patternTransform="rotate(0 0 0)" patternUnits="userSpaceOnUse"><line x1="0" y1="0" x2="10" y2="0" style="stroke:black;stroke-width:2" /></pattern>
<pattern id="checker" width="10" height="10" patternTransform="rotate(45 0 0)" patternUnits="userSpaceOnUse"><line x1="0" y1="0" x2="10" y2="0" style="stroke:black;stroke-width:2" /><line x1="0" y1="0" x2="0" y2="10" style="stroke:black;stroke-width:2" /></pattern>
<pattern id="vline" width="10" height="10" patternTransform="rotate(0 0 0)" patternUnits="userSpaceOnUse"><line x1="0" y1="0" x2="0" y2="10" style="stroke:black;stroke-width:5" /></pattern>
<pattern id="checker" width="10" height="10" patternTransform="rotate(45 0 0)" patternUnits="userSpaceOnUse"><line x1="0" y1="0" x2="10" y2="0" style="stroke:black;stroke-width:5" /><line x1="0" y1="0" x2="0" y2="10" style="stroke:black;stroke-width:4" /></pattern>
<pattern id="vline-sparse" width="10" height="10" patternTransform="rotate(0 0 0)" patternUnits="userSpaceOnUse"><line x1="0" y1="0" x2="0" y2="10" style="stroke:black;stroke-width:2" /></pattern>
<pattern id="hline" width="10" height="10" patternTransform="rotate(0 0 0)" patternUnits="userSpaceOnUse"><line x1="0" y1="0" x2="10" y2="0" style="stroke:black;stroke-width:5" /></pattern>
</defs>
</svg>
