<?xml version="1.0" encoding="utf-8" standalone="no"?>
<!DOCTYPE svg PUBLIC "-//W3C//DTD SVG 1.1//EN" "http://www.w3.org/Graphics/SVG/1.1/DTD/svg11.dtd">
<svg width="3000px" height="3000px" version="1.1" xmlns="http://www.w3.org/2000/svg" xmlns:xlink="http://www.w3.org/1999/xlink">
<g id="bg">
<rect x="0" y="0" width="3000px" height="3000px" style="fill:rgb(255,255,255);"/>
</g>
<g id="ideograms">
<path d="M1500.000,950.000 A550.000,550.000 40.000 0,1 1573.178,2045.110 L1599.788,2243.332 A750.000,750.000 0.000 0,0 1500.000,750.000 Z" style="stroke-width:2.0;stroke:rgb(0,0,0);stroke-linecap:round;fill:rgb(179,177,178);" />
<text x="2472.8" y="1435.0" font-size="46.8px" font-family="CMUBright-Roman" style="text-anchor:middle;fill:rgb(0,0,0);" transform="rotate(446.2,2472.8,1435.0)" >HistocapWGSS16<tspan baseline-shift="-40%" font-size="90%">2</tspan></text>
<line x1='1624.0' y1='760.3' x2='1626.0' y2='748.5' style="stroke-width:8.0;stroke:rgb(150,150,150);stroke-linecap:round;fill:none;" />
<line x1='1744.6' y1='791.0' x2='1748.5' y2='779.7' style="stroke-width:8.0;stroke:rgb(150,150,150);stroke-linecap:round;fill:none;" />
<line x1='1858.4' y1='841.2' x2='1864.2' y2='830.7' style="stroke-width:8.0;stroke:rgb(150,150,150);stroke-linecap:round;fill:none;" />
<line x1='1962.4' y1='909.5' x2='1969.8' y2='900.1' style="stroke-width:8.0;stroke:rgb(150,150,150);stroke-linecap:round;fill:none;" />
<line x1='2053.7' y1='994.1' x2='2062.6' y2='986.0' style="stroke-width:8.0;stroke:rgb(150,150,150);stroke-linecap:round;fill:none;" />
<text x="2080.8" y="988.3" font-size="41.6px" font-family="CMUBright-Roman" style="text-anchor:start;fill:rgb(150,150,150);" transform="rotate(317.6,2080.8,988.3)" >50 kb</text>
<line x1='2129.7' y1='1092.6' x2='2139.8' y2='1086.1' style="stroke-width:8.0;stroke:rgb(150,150,150);stroke-linecap:round;fill:none;" />
<line x1='2188.4' y1='1202.4' x2='2199.4' y2='1197.6' style="stroke-width:8.0;stroke:rgb(150,150,150);stroke-linecap:round;fill:none;" />
<line x1='2228.1' y1='1320.3' x2='2239.8' y2='1317.4' style="stroke-width:8.0;stroke:rgb(150,150,150);stroke-linecap:round;fill:none;" />
<line x1='2247.8' y1='1443.1' x2='2259.8' y2='1442.2' style="stroke-width:8.0;stroke:rgb(150,150,150);stroke-linecap:round;fill:none;" />
<line x1='2247.0' y1='1567.6' x2='2258.9' y2='1568.6' style="stroke-width:8.0;stroke:rgb(150,150,150);stroke-linecap:round;fill:none;" />
<text x="2269.5" y="1583.7" font-size="41.6px" font-family="CMUBright-Roman" style="text-anchor:start;fill:rgb(150,150,150);" transform="rotate(5.2,2269.5,1583.7)" >100 kb</text>
<line x1='2225.5' y1='1690.1' x2='2237.1' y2='1693.2' style="stroke-width:8.0;stroke:rgb(150,150,150);stroke-linecap:round;fill:none;" />
<line x1='2184.1' y1='1807.5' x2='2195.0' y2='1812.4' style="stroke-width:8.0;stroke:rgb(150,150,150);stroke-linecap:round;fill:none;" />
<line x1='2123.8' y1='1916.3' x2='2133.8' y2='1923.0' style="stroke-width:8.0;stroke:rgb(150,150,150);stroke-linecap:round;fill:none;" />
<line x1='2046.4' y1='2013.8' x2='2055.1' y2='2022.0' style="stroke-width:8.0;stroke:rgb(150,150,150);stroke-linecap:round;fill:none;" />
<line x1='1953.9' y1='2097.0' x2='1961.2' y2='2106.6' style="stroke-width:8.0;stroke:rgb(150,150,150);stroke-linecap:round;fill:none;" />
<text x="1957.2" y="2124.5" font-size="41.6px" font-family="CMUBright-Roman" style="text-anchor:start;fill:rgb(150,150,150);" transform="rotate(52.8,1957.2,2124.5)" >150 kb</text>
<line x1='1849.0' y1='2163.9' x2='1854.6' y2='2174.5' style="stroke-width:8.0;stroke:rgb(150,150,150);stroke-linecap:round;fill:none;" />
<line x1='1734.4' y1='2212.4' x2='1738.2' y2='2223.8' style="stroke-width:8.0;stroke:rgb(150,150,150);stroke-linecap:round;fill:none;" />
<line x1='1613.4' y1='2241.4' x2='1615.2' y2='2253.2' style="stroke-width:8.0;stroke:rgb(150,150,150);stroke-linecap:round;fill:none;" />
<g id="highlighttrack_0">
<path d="M1828.959,1059.222 A550.000,550.000 40.000 0,1 2036.299,1378.003 L2231.317,1333.640 A750.000,750.000 0.000 0,0 1948.581,898.938 Z" style="stroke-width:14.0;stroke:rgb(0,0,0);stroke-linecap:round;fill:rgb(255,38,78);" />
</g>
<path d="M1500.000,950.000 A550.000,550.000 40.000 0,1 1573.178,2045.110 L1599.788,2243.332 A750.000,750.000 0.000 0,0 1500.000,750.000 Z" style="stroke-width:2.0;stroke:rgb(0,0,0);stroke-linecap:round;fill:none;" />
<path d="M1303.750,2013.795 A550.000,550.000 40.000 0,1 1237.134,1016.884 L1141.546,841.205 A750.000,750.000 0.000 0,0 1232.386,2200.630 Z" style="stroke-width:2.0;stroke:rgb(0,0,0);stroke-linecap:round;fill:rgb(179,177,178);" />
<text x="482.3" y="1568.0" font-size="46.8px" font-family="CMUBright-Roman" style="text-anchor:middle;fill:rgb(0,0,0);" transform="rotate(86.2,482.3,1568.0)" >HistosurSECH103<tspan baseline-shift="-40%" font-size="90%">2</tspan></text>
<line x1='1037.6' y1='909.5' x2='1030.2' y2='900.1' style="stroke-width:8.0;stroke:rgb(150,150,150);stroke-linecap:round;fill:none;" />
<line x1='946.3' y1='994.1' x2='937.4' y2='986.0' style="stroke-width:8.0;stroke:rgb(150,150,150);stroke-linecap:round;fill:none;" />
<line x1='870.3' y1='1092.6' x2='860.2' y2='1086.1' style="stroke-width:8.0;stroke:rgb(150,150,150);stroke-linecap:round;fill:none;" />
<line x1='811.6' y1='1202.4' x2='800.6' y2='1197.6' style="stroke-width:8.0;stroke:rgb(150,150,150);stroke-linecap:round;fill:none;" />
<line x1='771.9' y1='1320.3' x2='760.2' y2='1317.4' style="stroke-width:8.0;stroke:rgb(150,150,150);stroke-linecap:round;fill:none;" />
<text x="745.3" y="1328.1" font-size="41.6px" font-family="CMUBright-Roman" style="text-anchor:end;fill:rgb(150,150,150);" transform="rotate(13.9,745.3,1328.1)" >50 kb</text>
<line x1='752.2' y1='1443.1' x2='740.2' y2='1442.2' style="stroke-width:8.0;stroke:rgb(150,150,150);stroke-linecap:round;fill:none;" />
<line x1='753.0' y1='1567.6' x2='741.1' y2='1568.6' style="stroke-width:8.0;stroke:rgb(150,150,150);stroke-linecap:round;fill:none;" />
<line x1='774.5' y1='1690.1' x2='762.9' y2='1693.2' style="stroke-width:8.0;stroke:rgb(150,150,150);stroke-linecap:round;fill:none;" />
<line x1='815.9' y1='1807.5' x2='805.0' y2='1812.4' style="stroke-width:8.0;stroke:rgb(150,150,150);stroke-linecap:round;fill:none;" />
<line x1='876.2' y1='1916.3' x2='866.2' y2='1923.0' style="stroke-width:8.0;stroke:rgb(150,150,150);stroke-linecap:round;fill:none;" />
<text x="864.1" y="1941.2" font-size="41.6px" font-family="CMUBright-Roman" style="text-anchor:end;fill:rgb(150,150,150);" transform="rotate(-33.7,864.1,1941.2)" >100 kb</text>
<line x1='953.6' y1='2013.8' x2='944.9' y2='2022.0' style="stroke-width:8.0;stroke:rgb(150,150,150);stroke-linecap:round;fill:none;" />
<line x1='1046.1' y1='2097.0' x2='1038.8' y2='2106.6' style="stroke-width:8.0;stroke:rgb(150,150,150);stroke-linecap:round;fill:none;" />
<line x1='1151.0' y1='2163.9' x2='1145.4' y2='2174.5' style="stroke-width:8.0;stroke:rgb(150,150,150);stroke-linecap:round;fill:none;" />
<path d="M1303.750,2013.795 A550.000,550.000 40.000 0,1 1237.134,1016.884 L1141.546,841.205 A750.000,750.000 0.000 0,0 1232.386,2200.630 Z" style="stroke-width:2.0;stroke:rgb(0,0,0);stroke-linecap:round;fill:none;" />
</g>
<g id="track_0">
<path d="M 1756.412,1955.257 A 522.500,522.500 0.00 0,1 1678.3,1991.1 L 1678.3,1991.1 1671.0,1971.7 1663.3,1952.4 1655.3,1933.5 1646.8,1914.9 1638.0,1896.9 1628.8,1879.6 1619.3,1863.0 1609.4,1847.2 1599.2,1832.3 1588.7,1818.4 1577.9,1805.6 1566.9,1793.9 1555.5,1783.4 1543.9,1774.1 1532.1,1766.2 1520.0,1759.5 1507.8,1754.1 1495.4,1750.1 1482.8,1747.5 1470.0,1746.3 1457.2,1746.5 1444.2,1748.0 1431.2,1751.0 1418.1,1755.2 1404.9,1760.9 1391.8,1767.8 1378.7,1775.9 1365.6,1785.3 1352.5,1795.9 1339.6,1807.5 1326.8,1820.2 1314.1,1833.8 1301.6,1848.3 1289.3,1863.6 1277.2,1879.6 1265.4,1896.2 1253.9,1913.3 1242.7,1930.7 1231.9,1948.5  A 522.500,522.500 0.00 0,1 1161.5,1898.0 L 1161.5,1898.0 1175.5,1881.9 1190.0,1866.1 1204.8,1850.7 1220.0,1835.8 1235.6,1821.5 1251.4,1807.9 1267.5,1795.1 1283.9,1783.1 1300.4,1771.9 1317.1,1761.8 1334.0,1752.7 1350.9,1744.6 1367.9,1737.7 1385.0,1731.9 1402.1,1727.3 1419.2,1723.9 1436.3,1721.8 1453.3,1720.8 1470.2,1721.2 1487.0,1722.8 1503.7,1725.7 1520.3,1729.8 1536.6,1735.2 1552.7,1741.8 1568.7,1749.6 1584.3,1758.5 1599.7,1768.6 1614.8,1779.7 1629.6,1791.9 1644.1,1805.0 1658.2,1819.1 1671.9,1834.0 1685.3,1849.7 1698.3,1866.0 1710.8,1883.0 1722.9,1900.6 1734.5,1918.5 1745.7,1936.8 1756.4,1955.3  Z" style="stroke-width: 0.5;  stroke: rgb(0,0,0); fill: rgb(179,177,178);" />
<path d="M 2012.932,1400.467 A 522.500,522.500 0.00 0,1 2022.1,1480.5 L 2022.1,1480.5 1996.3,1481.4 1970.4,1482.1 1944.3,1482.7 1918.1,1483.1 1891.8,1483.2 1865.5,1483.2 1839.0,1483.0 1812.5,1482.6 1785.8,1482.0 1759.2,1481.2 1732.5,1480.1 1705.7,1478.9 1678.9,1477.3 1652.1,1475.6 1625.2,1473.6 1598.4,1471.4 1571.5,1469.0 1544.7,1466.3 1517.9,1463.4 1491.1,1460.3 1464.3,1456.9 1437.6,1453.3 1410.9,1449.4 1384.3,1445.3 1357.7,1441.0 1331.2,1436.5 1304.8,1431.8 1278.5,1426.8 1252.2,1421.6 1226.1,1416.3 1200.1,1410.7 1174.2,1404.9 1148.4,1399.0 1122.7,1392.9 1097.2,1386.6 1071.8,1380.2 1046.6,1373.6 1021.5,1366.9 996.6,1360.0  A 522.500,522.500 0.00 0,1 1024.1,1284.3 L 1024.1,1284.3 1046.8,1294.4 1069.8,1304.4 1093.1,1314.0 1116.7,1323.5 1140.6,1332.6 1164.8,1341.4 1189.1,1350.0 1213.7,1358.1 1238.6,1366.0 1263.6,1373.4 1288.8,1380.5 1314.2,1387.1 1339.8,1393.4 1365.5,1399.2 1391.4,1404.5 1417.4,1409.5 1443.4,1413.9 1469.6,1418.0 1495.9,1421.5 1522.2,1424.6 1548.6,1427.2 1575.0,1429.4 1601.4,1431.1 1627.8,1432.3 1654.2,1433.1 1680.5,1433.4 1706.9,1433.2 1733.1,1432.7 1759.3,1431.6 1785.4,1430.2 1811.3,1428.4 1837.2,1426.1 1862.9,1423.5 1888.4,1420.4 1913.7,1417.1 1938.9,1413.4 1963.8,1409.4 1988.5,1405.1 2012.9,1400.5  Z" style="stroke-width: 0.5;  stroke: rgb(0,0,0); fill: rgb(179,177,178);" />
<path d="M 1994.297,1669.343 A 522.500,522.500 0.00 0,1 1965.5,1737.3 L 1965.5,1737.3 1943.5,1726.3 1921.2,1715.5 1898.5,1705.0 1875.6,1694.7 1852.3,1684.8 1828.7,1675.2 1804.9,1666.0 1780.7,1657.1 1756.4,1648.7 1731.8,1640.6 1707.0,1633.1 1682.0,1625.9 1656.8,1619.3 1631.4,1613.1 1605.9,1607.5 1580.3,1602.3 1554.5,1597.7 1528.6,1593.6 1502.6,1590.0 1476.6,1586.9 1450.5,1584.4 1424.4,1582.4 1398.2,1581.0 1372.1,1580.0 1345.9,1579.6 1319.8,1579.8 1293.8,1580.4 1267.8,1581.5 1241.9,1583.2 1216.2,1585.3 1190.5,1587.8 1165.0,1590.9 1139.7,1594.3 1114.5,1598.2 1089.6,1602.5 1064.8,1607.1 1040.4,1612.1 1016.1,1617.5 992.2,1623.1  A 522.500,522.500 0.00 0,1 979.8,1549.0 L 979.8,1549.0 1005.2,1546.7 1030.7,1544.6 1056.4,1542.8 1082.3,1541.2 1108.3,1539.8 1134.4,1538.7 1160.7,1537.9 1187.0,1537.3 1213.5,1537.0 1240.0,1537.0 1266.6,1537.3 1293.2,1537.9 1319.9,1538.8 1346.7,1540.1 1373.4,1541.6 1400.2,1543.5 1426.9,1545.7 1453.7,1548.2 1480.4,1551.1 1507.1,1554.2 1533.8,1557.7 1560.4,1561.5 1586.9,1565.7 1613.3,1570.1 1639.7,1574.8 1666.0,1579.9 1692.2,1585.2 1718.2,1590.9 1744.1,1596.8 1769.9,1603.0 1795.6,1609.5 1821.1,1616.2 1846.4,1623.2 1871.5,1630.4 1896.5,1637.8 1921.3,1645.4 1945.8,1653.2 1970.2,1661.2 1994.3,1669.3  Z" style="stroke-width: 0.5;  stroke: rgb(0,0,0); fill: rgb(179,177,178);" />
<path d="M 2010.245,1612.501 A 522.500,522.500 0.00 0,1 1994.9,1667.6 L 1994.9,1667.6 1970.7,1659.5 1946.3,1651.6 1921.7,1643.9 1896.9,1636.3 1871.9,1629.0 1846.8,1621.9 1821.4,1615.0 1795.9,1608.3 1770.2,1601.9 1744.4,1595.8 1718.5,1589.9 1692.4,1584.4 1666.2,1579.1 1639.9,1574.1 1613.5,1569.4 1587.1,1565.0 1560.5,1560.9 1533.9,1557.1 1507.2,1553.7 1480.5,1550.6 1453.8,1547.8 1427.0,1545.3 1400.3,1543.1 1373.5,1541.2 1346.7,1539.7 1320.0,1538.5 1293.3,1537.6 1266.7,1537.0 1240.1,1536.7 1213.5,1536.7 1187.1,1537.0 1160.7,1537.6 1134.5,1538.4 1108.3,1539.5 1082.3,1540.9 1056.4,1542.5 1030.7,1544.3 1005.1,1546.4 979.8,1548.6  A 522.500,522.500 0.00 0,1 977.6,1491.1 L 977.6,1491.1 1003.7,1491.6 1030.0,1492.2 1056.3,1492.9 1082.7,1493.8 1109.2,1494.7 1135.7,1495.8 1162.3,1497.1 1189.0,1498.4 1215.6,1499.9 1242.4,1501.6 1269.1,1503.3 1295.9,1505.3 1322.7,1507.4 1349.5,1509.6 1376.4,1512.0 1403.2,1514.5 1430.0,1517.2 1456.9,1520.1 1483.7,1523.0 1510.5,1526.2 1537.3,1529.5 1564.1,1533.0 1590.8,1536.6 1617.5,1540.3 1644.1,1544.2 1670.8,1548.3 1697.3,1552.5 1723.8,1556.8 1750.2,1561.3 1776.6,1565.9 1802.9,1570.6 1829.2,1575.4 1855.3,1580.4 1881.4,1585.5 1907.3,1590.7 1933.2,1596.0 1959.0,1601.4 1984.7,1606.9 2010.2,1612.5  Z" style="stroke-width: 0.5;  stroke: rgb(0,0,0); fill: rgb(179,177,178);" />
<path d="M 1591.547,985.582 A 522.500,522.500 0.00 0,1 1644.4,997.9 L 1644.4,997.9 1638.4,1018.0 1631.9,1038.0 1625.0,1057.7 1617.5,1077.1 1609.6,1095.9 1601.3,1114.3 1592.4,1131.9 1583.1,1148.8 1573.3,1164.9 1563.1,1180.1 1552.4,1194.3 1541.3,1207.4 1529.7,1219.5 1517.7,1230.4 1505.3,1240.1 1492.5,1248.7 1479.3,1255.9 1465.8,1261.9 1451.9,1266.6 1437.7,1270.0 1423.1,1272.1 1408.4,1272.8 1393.3,1272.3 1378.1,1270.5 1362.6,1267.4 1347.0,1263.0 1331.2,1257.5 1315.3,1250.8 1299.4,1242.9 1283.4,1234.0 1267.4,1224.1 1251.5,1213.2 1235.6,1201.4 1219.9,1188.9 1204.3,1175.6 1188.9,1161.6 1173.8,1147.2 1159.0,1132.2 1144.6,1117.0  A 522.500,522.500 0.00 0,1 1186.5,1082.0 L 1186.5,1082.0 1199.0,1098.4 1211.9,1114.6 1225.0,1130.3 1238.3,1145.5 1251.8,1160.1 1265.3,1173.9 1279.0,1187.0 1292.7,1199.1 1306.4,1210.3 1320.0,1220.4 1333.6,1229.4 1347.1,1237.2 1360.4,1243.8 1373.5,1249.2 1386.5,1253.2 1399.2,1256.0 1411.7,1257.3 1423.9,1257.3 1435.8,1256.0 1447.4,1253.2 1458.6,1249.1 1469.5,1243.6 1480.0,1236.7 1490.1,1228.6 1499.9,1219.1 1509.2,1208.4 1518.1,1196.5 1526.6,1183.4 1534.6,1169.3 1542.3,1154.1 1549.5,1138.0 1556.2,1121.0 1562.5,1103.2 1568.4,1084.7 1573.9,1065.6 1578.9,1046.0 1583.5,1026.1 1587.7,1005.9 1591.5,985.6  Z" style="stroke-width: 0.5;  stroke: rgb(0,0,0); fill: rgb(179,177,178);" />
<path d="M 1504.062,977.516 A 522.500,522.500 0.00 0,1 1556.1,980.5 L 1556.1,980.5 1553.7,1000.9 1551.0,1021.2 1547.9,1041.2 1544.3,1060.9 1540.4,1080.1 1536.1,1098.7 1531.3,1116.6 1526.2,1133.7 1520.5,1149.9 1514.5,1165.1 1508.0,1179.4 1501.0,1192.5 1493.7,1204.4 1485.8,1215.1 1477.6,1224.5 1469.0,1232.7 1459.9,1239.5 1450.4,1244.9 1440.6,1248.9 1430.4,1251.6 1419.8,1252.8 1408.9,1252.6 1397.7,1251.1 1386.1,1248.2 1374.4,1243.9 1362.3,1238.3 1350.1,1231.5 1337.7,1223.4 1325.1,1214.1 1312.4,1203.7 1299.7,1192.2 1286.8,1179.8 1274.0,1166.4 1261.2,1152.2 1248.5,1137.4 1235.9,1121.9 1223.5,1105.8 1211.2,1089.4 1199.3,1072.7  A 522.500,522.500 0.00 0,1 1243.7,1044.7 L 1243.7,1044.7 1253.7,1062.3 1264.0,1079.7 1274.4,1096.8 1284.9,1113.3 1295.5,1129.3 1306.1,1144.5 1316.7,1158.9 1327.1,1172.5 1337.5,1185.0 1347.8,1196.4 1357.9,1206.7 1367.8,1215.9 1377.5,1223.7 1386.9,1230.2 1396.0,1235.4 1404.9,1239.2 1413.4,1241.6 1421.6,1242.6 1429.5,1242.1 1436.9,1240.2 1444.1,1236.8 1450.8,1232.0 1457.1,1225.8 1463.0,1218.1 1468.5,1209.2 1473.6,1198.9 1478.2,1187.4 1482.5,1174.6 1486.3,1160.7 1489.8,1145.7 1492.8,1129.7 1495.5,1112.8 1497.7,1095.1 1499.6,1076.6 1501.1,1057.6 1502.3,1038.0 1503.2,1018.0 1503.8,997.8 1504.1,977.5  Z" style="stroke-width: 0.5;  stroke: rgb(0,0,0); fill: rgb(179,177,178);" />
<path d="M 2022.182,1481.761 A 522.500,522.500 0.00 0,1 2021.6,1530.1 L 2021.6,1530.1 1995.3,1528.5 1968.8,1526.9 1942.3,1525.2 1915.8,1523.5 1889.3,1521.6 1862.7,1519.7 1836.0,1517.7 1809.4,1515.6 1782.7,1513.5 1756.0,1511.2 1729.3,1508.9 1702.5,1506.5 1675.7,1504.0 1649.0,1501.4 1622.2,1498.7 1595.4,1495.9 1568.6,1493.0 1541.9,1490.1 1515.1,1487.0 1488.3,1483.9 1461.6,1480.6 1434.8,1477.3 1408.1,1473.9 1381.4,1470.4 1354.8,1466.8 1328.1,1463.1 1301.5,1459.3 1274.9,1455.5 1248.4,1451.5 1221.9,1447.5 1195.4,1443.4 1169.0,1439.3 1142.7,1435.0 1116.3,1430.7 1090.1,1426.4 1063.9,1421.9 1037.7,1417.4 1011.6,1412.9 985.6,1408.3  A 522.500,522.500 0.00 0,1 996.2,1361.5 L 996.2,1361.5 1021.1,1368.3 1046.2,1374.9 1071.5,1381.5 1096.9,1387.8 1122.5,1394.0 1148.1,1400.1 1174.0,1406.0 1199.9,1411.7 1225.9,1417.2 1252.1,1422.5 1278.3,1427.7 1304.7,1432.6 1331.1,1437.3 1357.6,1441.8 1384.2,1446.1 1410.8,1450.1 1437.5,1454.0 1464.2,1457.6 1491.0,1460.9 1517.8,1464.1 1544.6,1467.0 1571.5,1469.7 1598.3,1472.1 1625.2,1474.3 1652.0,1476.3 1678.8,1478.0 1705.6,1479.6 1732.4,1480.9 1759.1,1482.0 1785.8,1482.8 1812.4,1483.5 1839.0,1483.9 1865.4,1484.2 1891.8,1484.2 1918.1,1484.1 1944.3,1483.7 1970.4,1483.3 1996.3,1482.6 2022.2,1481.8  Z" style="stroke-width: 0.5;  stroke: rgb(0,0,0); fill: rgb(179,177,178);" />
<path d="M 1641.189,2003.062 A 522.500,522.500 0.00 0,1 1594.6,2013.9 L 1594.6,2013.9 1590.8,1993.9 1586.7,1974.1 1582.4,1954.5 1577.7,1935.4 1572.8,1916.9 1567.7,1899.0 1562.2,1881.9 1556.6,1865.6 1550.7,1850.3 1544.5,1836.1 1538.1,1823.0 1531.5,1811.1 1524.6,1800.4 1517.5,1791.1 1510.3,1783.1 1502.8,1776.5 1495.2,1771.3 1487.4,1767.6 1479.4,1765.4 1471.3,1764.6 1463.0,1765.4 1454.7,1767.6 1446.2,1771.2 1437.7,1776.3 1429.1,1782.8 1420.4,1790.7 1411.7,1799.9 1403.0,1810.4 1394.3,1822.1 1385.6,1835.0 1376.9,1848.9 1368.4,1863.8 1359.9,1879.6 1351.5,1896.3 1343.3,1913.6 1335.2,1931.5 1327.3,1949.9 1319.6,1968.6 1312.2,1987.6  A 522.500,522.500 0.00 0,1 1268.8,1968.6 L 1268.8,1968.6 1278.1,1950.2 1287.6,1932.1 1297.5,1914.3 1307.6,1897.1 1317.9,1880.4 1328.4,1864.4 1339.0,1849.2 1349.8,1834.9 1360.7,1821.6 1371.7,1809.3 1382.8,1798.2 1393.9,1788.3 1405.0,1779.6 1416.1,1772.2 1427.2,1766.1 1438.3,1761.4 1449.3,1758.1 1460.2,1756.2 1470.9,1755.8 1481.6,1756.8 1492.1,1759.2 1502.5,1763.0 1512.7,1768.3 1522.7,1774.9 1532.5,1782.9 1542.0,1792.3 1551.4,1802.8 1560.5,1814.7 1569.3,1827.6 1577.8,1841.7 1586.1,1856.8 1594.1,1872.8 1601.8,1889.7 1609.2,1907.4 1616.3,1925.7 1623.0,1944.5 1629.4,1963.8 1635.5,1983.3 1641.2,2003.1  Z" style="stroke-width: 0.5;  stroke: rgb(0,0,0); fill: rgb(179,177,178);" />
<path d="M 1786.588,1063.109 A 522.500,522.500 0.00 0,1 1823.5,1089.7 L 1823.5,1089.7 1809.3,1107.4 1794.5,1124.8 1779.2,1142.0 1763.4,1158.8 1747.1,1175.2 1730.3,1191.1 1713.0,1206.5 1695.2,1221.3 1677.1,1235.5 1658.4,1249.0 1639.4,1261.7 1620.0,1273.7 1600.2,1284.9 1580.0,1295.2 1559.5,1304.7 1538.7,1313.3 1517.5,1321.0 1496.1,1327.7 1474.5,1333.5 1452.6,1338.4 1430.6,1342.3 1408.3,1345.2 1386.0,1347.2 1363.5,1348.2 1340.9,1348.3 1318.2,1347.5 1295.5,1345.7 1272.9,1343.1 1250.2,1339.6 1227.6,1335.3 1205.1,1330.1 1182.8,1324.2 1160.6,1317.6 1138.7,1310.3 1116.9,1302.3 1095.5,1293.8 1074.4,1284.7 1053.6,1275.1 1033.2,1265.2  A 522.500,522.500 0.00 0,1 1055.7,1225.0 L 1055.7,1225.0 1074.7,1236.5 1094.2,1247.6 1114.0,1258.1 1134.1,1268.2 1154.5,1277.6 1175.2,1286.4 1196.1,1294.4 1217.1,1301.7 1238.3,1308.1 1259.5,1313.7 1280.8,1318.3 1302.2,1322.1 1323.5,1324.8 1344.8,1326.5 1366.0,1327.3 1387.0,1327.0 1408.0,1325.6 1428.8,1323.2 1449.4,1319.8 1469.8,1315.2 1489.9,1309.7 1509.7,1303.1 1529.3,1295.5 1548.5,1286.8 1567.5,1277.2 1586.0,1266.6 1604.2,1255.1 1621.9,1242.8 1639.3,1229.6 1656.2,1215.5 1672.7,1200.8 1688.7,1185.3 1704.2,1169.2 1719.2,1152.5 1733.7,1135.4 1747.7,1117.7 1761.2,1099.8 1774.2,1081.5 1786.6,1063.1  Z" style="stroke-width: 0.5;  stroke: rgb(0,0,0); fill: rgb(179,177,178);" />
<path d="M 1678.305,1991.135 A 522.500,522.500 0.00 0,1 1643.2,2002.5 L 1643.2,2002.5 1637.3,1982.8 1631.2,1963.2 1624.7,1944.0 1617.9,1925.2 1610.8,1906.9 1603.3,1889.3 1595.5,1872.4 1587.5,1856.4 1579.1,1841.4 1570.5,1827.3 1561.6,1814.4 1552.4,1802.6 1543.0,1792.0 1533.4,1782.7 1523.5,1774.7 1513.5,1768.1 1503.2,1762.9 1492.8,1759.0 1482.2,1756.6 1471.5,1755.7 1460.7,1756.1 1449.8,1758.0 1438.8,1761.4 1427.7,1766.1 1416.6,1772.2 1405.4,1779.6 1394.3,1788.3 1383.2,1798.3 1372.1,1809.4 1361.1,1821.7 1350.2,1835.0 1339.4,1849.3 1328.7,1864.5 1318.2,1880.5 1307.9,1897.2 1297.8,1914.5 1288.0,1932.3 1278.5,1950.4 1269.2,1968.8  A 522.500,522.500 0.00 0,1 1236.5,1951.2 L 1236.5,1951.2 1247.2,1933.4 1258.1,1915.8 1269.5,1898.6 1281.1,1881.9 1293.0,1865.8 1305.1,1850.4 1317.4,1835.8 1329.9,1822.0 1342.5,1809.3 1355.2,1797.5 1368.1,1786.9 1381.0,1777.4 1394.0,1769.1 1406.9,1762.1 1419.9,1756.4 1432.9,1752.0 1445.8,1749.0 1458.6,1747.4 1471.3,1747.1 1483.9,1748.3 1496.4,1750.8 1508.7,1754.7 1520.8,1760.0 1532.8,1766.6 1544.5,1774.6 1556.0,1783.8 1567.3,1794.2 1578.3,1805.9 1589.1,1818.7 1599.5,1832.5 1609.6,1847.3 1619.5,1863.1 1628.9,1879.7 1638.1,1897.0 1646.9,1915.0 1655.3,1933.5 1663.4,1952.4 1671.0,1971.7 1678.3,1991.1  Z" style="stroke-width: 0.5;  stroke: rgb(0,0,0); fill: rgb(179,177,178);" />
<path d="M 2019.508,1555.837 A 522.500,522.500 0.00 0,1 2015.7,1584.2 L 2015.7,1584.2 1989.5,1579.9 1963.3,1575.7 1937.0,1571.6 1910.7,1567.4 1884.4,1563.4 1858.0,1559.4 1831.5,1555.4 1805.1,1551.5 1778.5,1547.7 1752.0,1543.9 1725.4,1540.2 1698.8,1536.5 1672.2,1532.9 1645.6,1529.4 1618.9,1525.9 1592.2,1522.6 1565.5,1519.2 1538.8,1516.0 1512.1,1512.8 1485.3,1509.7 1458.6,1506.6 1431.8,1503.7 1405.1,1500.8 1378.3,1497.9 1351.6,1495.2 1324.8,1492.5 1298.1,1489.9 1271.4,1487.3 1244.6,1484.8 1217.9,1482.4 1191.3,1480.1 1164.6,1477.8 1138.0,1475.5 1111.4,1473.4 1084.8,1471.3 1058.2,1469.2 1031.7,1467.3 1005.2,1465.3 978.8,1463.4  A 522.500,522.500 0.00 0,1 981.7,1434.3 L 981.7,1434.3 1008.2,1437.6 1034.7,1441.0 1061.3,1444.3 1087.8,1447.7 1114.4,1451.0 1140.9,1454.3 1167.5,1457.6 1194.1,1460.9 1220.7,1464.1 1247.3,1467.4 1273.9,1470.6 1300.5,1473.9 1327.1,1477.1 1353.8,1480.3 1380.4,1483.5 1407.0,1486.7 1433.7,1489.8 1460.3,1493.0 1487.0,1496.1 1513.6,1499.2 1540.2,1502.3 1566.9,1505.4 1593.5,1508.5 1620.2,1511.6 1646.8,1514.6 1673.5,1517.7 1700.1,1520.7 1726.8,1523.7 1753.4,1526.7 1780.0,1529.6 1806.7,1532.6 1833.3,1535.6 1859.9,1538.5 1886.5,1541.4 1913.1,1544.3 1939.7,1547.2 1966.3,1550.1 1992.9,1553.0 2019.5,1555.8  Z" style="stroke-width: 0.5;  stroke: rgb(0,0,0); fill: rgb(179,177,178);" />
<path d="M 1916.560,1815.411 A 522.500,522.500 0.00 0,1 1898.8,1837.6 L 1898.8,1837.6 1880.9,1822.8 1862.5,1808.2 1843.7,1793.9 1824.4,1780.1 1804.7,1766.6 1784.6,1753.6 1764.0,1741.2 1743.1,1729.3 1721.9,1718.0 1700.3,1707.3 1678.4,1697.3 1656.2,1688.1 1633.7,1679.5 1611.0,1671.7 1588.1,1664.7 1564.9,1658.5 1541.6,1653.1 1518.1,1648.6 1494.4,1644.8 1470.7,1641.9 1446.8,1639.9 1422.9,1638.7 1399.0,1638.3 1375.0,1638.8 1351.0,1640.1 1327.1,1642.2 1303.3,1645.1 1279.5,1648.8 1255.8,1653.2 1232.3,1658.4 1209.0,1664.2 1185.8,1670.8 1162.9,1678.0 1140.3,1685.7 1117.9,1694.1 1095.8,1702.9 1074.1,1712.2 1052.8,1722.0 1031.9,1732.1  A 522.500,522.500 0.00 0,1 1019.9,1706.2 L 1019.9,1706.2 1041.6,1697.1 1063.7,1688.4 1086.2,1680.0 1109.0,1672.2 1132.1,1664.8 1155.5,1657.9 1179.1,1651.6 1202.9,1645.9 1226.9,1640.9 1251.1,1636.4 1275.4,1632.7 1299.8,1629.6 1324.4,1627.3 1348.9,1625.7 1373.5,1624.8 1398.2,1624.7 1422.8,1625.4 1447.4,1626.8 1471.9,1629.0 1496.3,1632.0 1520.6,1635.8 1544.8,1640.3 1568.9,1645.5 1592.8,1651.6 1616.5,1658.3 1639.9,1665.8 1663.2,1673.9 1686.2,1682.7 1708.9,1692.2 1731.3,1702.3 1753.4,1713.0 1775.1,1724.3 1796.5,1736.0 1817.6,1748.3 1838.2,1761.0 1858.5,1774.1 1878.3,1787.6 1897.6,1801.4 1916.6,1815.4  Z" style="stroke-width: 0.5;  stroke: rgb(0,0,0); fill: rgb(179,177,178);" />
<path d="M 1837.368,1898.985 A 522.500,522.500 0.00 0,1 1815.4,1916.6 L 1815.4,1916.6 1802.0,1899.2 1788.0,1882.2 1773.6,1865.4 1758.6,1849.1 1743.2,1833.3 1727.4,1818.1 1711.2,1803.5 1694.6,1789.7 1677.6,1776.6 1660.2,1764.4 1642.5,1753.1 1624.5,1742.7 1606.2,1733.2 1587.7,1724.9 1568.9,1717.5 1549.8,1711.2 1530.6,1706.1 1511.3,1702.0 1491.8,1699.1 1472.1,1697.3 1452.4,1696.7 1432.6,1697.1 1412.8,1698.7 1393.0,1701.5 1373.1,1705.3 1353.4,1710.2 1333.7,1716.2 1314.1,1723.1 1294.6,1731.1 1275.4,1739.9 1256.3,1749.7 1237.4,1760.3 1218.8,1771.7 1200.5,1783.8 1182.5,1796.6 1164.9,1809.9 1147.6,1823.8 1130.8,1838.1 1114.5,1852.7  A 522.500,522.500 0.00 0,1 1096.0,1831.3 L 1096.0,1831.3 1113.3,1817.5 1131.1,1804.0 1149.3,1790.9 1167.9,1778.3 1186.9,1766.2 1206.2,1754.9 1225.7,1744.2 1245.6,1734.2 1265.7,1725.1 1285.9,1716.8 1306.4,1709.4 1327.0,1703.0 1347.7,1697.5 1368.5,1693.0 1389.3,1689.6 1410.1,1687.2 1431.0,1685.8 1451.8,1685.6 1472.6,1686.4 1493.2,1688.3 1513.8,1691.2 1534.2,1695.3 1554.5,1700.4 1574.6,1706.5 1594.4,1713.7 1614.1,1721.8 1633.4,1731.0 1652.5,1741.0 1671.3,1752.0 1689.7,1763.8 1707.8,1776.4 1725.5,1789.8 1742.9,1803.8 1759.8,1818.5 1776.2,1833.8 1792.3,1849.5 1807.8,1865.7 1822.8,1882.2 1837.4,1899.0  Z" style="stroke-width: 0.5;  stroke: rgb(0,0,0); fill: rgb(179,177,178);" />
<path d="M 1736.201,1033.936 A 522.500,522.500 0.00 0,1 1760.1,1046.8 L 1760.1,1046.8 1749.0,1065.6 1737.4,1084.2 1725.3,1102.5 1712.7,1120.4 1699.5,1137.8 1685.9,1154.7 1671.8,1171.0 1657.2,1186.6 1642.2,1201.4 1626.8,1215.4 1610.9,1228.6 1594.6,1240.8 1578.0,1252.0 1560.9,1262.2 1543.6,1271.4 1525.9,1279.5 1507.9,1286.5 1489.6,1292.3 1471.1,1297.0 1452.3,1300.6 1433.3,1303.0 1414.2,1304.3 1394.9,1304.4 1375.4,1303.4 1355.9,1301.3 1336.3,1298.0 1316.7,1293.7 1297.1,1288.3 1277.5,1282.0 1258.0,1274.6 1238.5,1266.4 1219.3,1257.2 1200.2,1247.3 1181.3,1236.6 1162.6,1225.2 1144.3,1213.2 1126.3,1200.6 1108.7,1187.6 1091.5,1174.2  A 522.500,522.500 0.00 0,1 1108.9,1153.5 L 1108.9,1153.5 1125.2,1167.6 1141.9,1181.4 1159.0,1194.7 1176.4,1207.4 1194.1,1219.6 1212.1,1231.0 1230.2,1241.7 1248.6,1251.5 1267.0,1260.4 1285.5,1268.4 1304.1,1275.4 1322.7,1281.3 1341.4,1286.2 1359.9,1289.9 1378.4,1292.5 1396.8,1293.9 1415.0,1294.1 1433.1,1293.2 1451.0,1291.0 1468.7,1287.6 1486.1,1283.1 1503.3,1277.3 1520.2,1270.4 1536.7,1262.3 1553.0,1253.1 1568.8,1242.8 1584.4,1231.4 1599.5,1219.1 1614.2,1205.7 1628.5,1191.5 1642.4,1176.4 1655.8,1160.5 1668.7,1143.9 1681.2,1126.7 1693.2,1108.9 1704.7,1090.6 1715.7,1072.0 1726.2,1053.1 1736.2,1033.9  Z" style="stroke-width: 0.5;  stroke: rgb(0,0,0); fill: rgb(179,177,178);" />
<path d="M 1780.903,1940.567 A 522.500,522.500 0.00 0,1 1757.9,1954.4 L 1757.9,1954.4 1747.2,1935.9 1735.9,1917.7 1724.2,1899.8 1712.0,1882.3 1699.4,1865.4 1686.4,1849.0 1673.0,1833.4 1659.2,1818.5 1645.0,1804.5 1630.5,1791.3 1615.6,1779.2 1600.5,1768.1 1585.0,1758.1 1569.3,1749.2 1553.3,1741.4 1537.2,1734.9 1520.8,1729.5 1504.2,1725.4 1487.5,1722.6 1470.6,1721.0 1453.6,1720.6 1436.6,1721.6 1419.5,1723.7 1402.4,1727.1 1385.2,1731.8 1368.1,1737.6 1351.1,1744.5 1334.1,1752.6 1317.2,1761.7 1300.5,1771.9 1284.0,1783.0 1267.6,1795.0 1251.5,1807.9 1235.6,1821.5 1220.1,1835.8 1204.8,1850.7 1190.0,1866.1 1175.5,1881.9 1161.5,1898.0  A 522.500,522.500 0.00 0,1 1141.3,1879.9 L 1141.3,1879.9 1156.3,1864.4 1171.8,1849.2 1187.6,1834.5 1203.9,1820.2 1220.4,1806.5 1237.3,1793.5 1254.5,1781.2 1271.9,1769.8 1289.5,1759.2 1307.3,1749.6 1325.3,1740.9 1343.4,1733.3 1361.5,1726.8 1379.8,1721.4 1398.0,1717.1 1416.3,1714.0 1434.5,1712.1 1452.7,1711.3 1470.8,1711.8 1488.8,1713.5 1506.7,1716.5 1524.5,1720.6 1542.0,1725.9 1559.4,1732.4 1576.5,1740.0 1593.4,1748.8 1610.0,1758.6 1626.3,1769.5 1642.3,1781.3 1658.0,1794.1 1673.3,1807.8 1688.3,1822.3 1702.8,1837.6 1717.0,1853.6 1730.7,1870.1 1744.0,1887.2 1756.8,1904.7 1769.1,1922.5 1780.9,1940.6  Z" style="stroke-width: 0.5;  stroke: rgb(0,0,0); fill: rgb(179,177,178);" />
<path d="M 1765.943,1050.244 A 522.500,522.500 0.00 0,1 1786.5,1063.1 L 1786.5,1063.1 1774.1,1081.5 1761.2,1099.7 1747.7,1117.7 1733.7,1135.3 1719.2,1152.5 1704.1,1169.1 1688.6,1185.2 1672.6,1200.7 1656.2,1215.4 1639.3,1229.4 1621.9,1242.6 1604.2,1255.0 1586.0,1266.5 1567.5,1277.0 1548.6,1286.6 1529.4,1295.2 1509.8,1302.8 1490.0,1309.4 1469.9,1315.0 1449.5,1319.5 1429.0,1322.9 1408.2,1325.3 1387.3,1326.6 1366.2,1326.8 1345.0,1326.1 1323.8,1324.3 1302.5,1321.5 1281.2,1317.8 1259.9,1313.1 1238.6,1307.5 1217.5,1301.0 1196.5,1293.7 1175.7,1285.6 1155.0,1276.8 1134.6,1267.3 1114.5,1257.2 1094.8,1246.6 1075.3,1235.5 1056.3,1224.0  A 522.500,522.500 0.00 0,1 1069.7,1203.6 L 1069.7,1203.6 1088.0,1215.8 1106.6,1227.7 1125.7,1239.1 1145.0,1249.9 1164.7,1260.2 1184.6,1269.7 1204.6,1278.5 1224.9,1286.5 1245.2,1293.6 1265.7,1299.8 1286.2,1305.1 1306.7,1309.4 1327.2,1312.7 1347.6,1315.0 1368.0,1316.2 1388.2,1316.3 1408.3,1315.3 1428.2,1313.3 1448.0,1310.1 1467.4,1305.8 1486.7,1300.4 1505.6,1293.9 1524.3,1286.4 1542.6,1277.8 1560.5,1268.1 1578.1,1257.5 1595.3,1245.9 1612.1,1233.3 1628.5,1219.9 1644.5,1205.7 1660.0,1190.6 1675.0,1174.9 1689.5,1158.5 1703.5,1141.5 1717.1,1123.9 1730.1,1106.0 1742.6,1087.6 1754.5,1069.0 1765.9,1050.2  Z" style="stroke-width: 0.5;  stroke: rgb(0,0,0); fill: rgb(179,177,178);" />
<path d="M 1861.888,1876.886 A 522.500,522.500 0.00 0,1 1845.5,1891.9 L 1845.5,1891.9 1830.6,1875.4 1815.2,1859.2 1799.3,1843.3 1782.9,1827.8 1766.1,1812.8 1748.8,1798.4 1731.2,1784.6 1713.1,1771.6 1694.7,1759.2 1675.9,1747.7 1656.8,1737.0 1637.4,1727.2 1617.8,1718.3 1597.9,1710.4 1577.7,1703.5 1557.4,1697.6 1536.9,1692.7 1516.2,1688.9 1495.5,1686.2 1474.6,1684.5 1453.6,1683.9 1432.6,1684.3 1411.6,1685.8 1390.6,1688.4 1369.6,1692.0 1348.6,1696.6 1327.8,1702.2 1307.1,1708.7 1286.6,1716.2 1266.2,1724.6 1246.0,1733.8 1226.1,1743.8 1206.4,1754.5 1187.1,1766.0 1168.1,1778.1 1149.4,1790.7 1131.1,1803.8 1113.3,1817.4 1096.0,1831.3  A 522.500,522.500 0.00 0,1 1082.2,1813.7 L 1082.2,1813.7 1100.3,1800.5 1118.9,1787.5 1137.9,1775.0 1157.3,1763.0 1177.0,1751.5 1197.1,1740.7 1217.5,1730.5 1238.2,1721.1 1259.1,1712.4 1280.2,1704.5 1301.5,1697.5 1322.9,1691.4 1344.5,1686.1 1366.1,1681.9 1387.9,1678.6 1409.6,1676.3 1431.4,1675.0 1453.2,1674.7 1474.9,1675.4 1496.5,1677.2 1518.1,1679.9 1539.5,1683.7 1560.8,1688.5 1581.9,1694.3 1602.8,1701.1 1623.5,1708.7 1644.0,1717.4 1664.2,1726.9 1684.0,1737.2 1703.6,1748.4 1722.8,1760.3 1741.7,1773.0 1760.2,1786.3 1778.3,1800.2 1795.9,1814.7 1813.2,1829.7 1829.9,1845.1 1846.1,1860.9 1861.9,1876.9  Z" style="stroke-width: 0.5;  stroke: rgb(0,0,0); fill: rgb(179,177,178);" />
<path d="M 1648.036,998.910 A 522.500,522.500 0.00 0,1 1668.9,1005.6 L 1668.9,1005.6 1661.8,1025.5 1654.3,1045.4 1646.2,1065.0 1637.6,1084.2 1628.6,1103.0 1619.0,1121.2 1609.0,1138.7 1598.5,1155.6 1587.5,1171.6 1576.0,1186.7 1564.1,1201.0 1551.7,1214.2 1538.8,1226.3 1525.6,1237.4 1511.9,1247.3 1497.8,1256.0 1483.4,1263.5 1468.5,1269.8 1453.4,1274.8 1437.9,1278.6 1422.1,1281.1 1406.1,1282.3 1389.8,1282.3 1373.3,1281.0 1356.6,1278.5 1339.7,1274.8 1322.7,1269.9 1305.6,1263.9 1288.5,1256.7 1271.4,1248.6 1254.2,1239.4 1237.1,1229.3 1220.1,1218.3 1203.3,1206.5 1186.6,1194.0 1170.2,1180.9 1154.0,1167.2 1138.2,1153.0 1122.7,1138.5  A 522.500,522.500 0.00 0,1 1137.9,1123.3 L 1137.9,1123.3 1152.6,1138.3 1167.7,1153.0 1183.1,1167.3 1198.8,1180.9 1214.7,1194.0 1230.7,1206.3 1246.9,1217.9 1263.2,1228.5 1279.5,1238.2 1295.8,1246.9 1312.0,1254.5 1328.2,1261.0 1344.3,1266.3 1360.2,1270.5 1376.0,1273.3 1391.5,1275.0 1406.9,1275.3 1422.0,1274.4 1436.8,1272.2 1451.2,1268.6 1465.4,1263.8 1479.2,1257.7 1492.7,1250.3 1505.7,1241.7 1518.4,1231.9 1530.7,1220.9 1542.5,1208.7 1553.9,1195.5 1564.8,1181.3 1575.2,1166.1 1585.2,1150.0 1594.8,1133.0 1603.8,1115.3 1612.4,1097.0 1620.5,1078.1 1628.1,1058.7 1635.2,1039.0 1641.9,1019.0 1648.0,998.9  Z" style="stroke-width: 0.5;  stroke: rgb(0,0,0); fill: rgb(179,177,178);" />
<path d="M 2021.325,1535.028 A 522.500,522.500 0.00 0,1 2019.5,1555.9 L 2019.5,1555.9 1992.9,1553.0 1966.3,1550.1 1939.7,1547.3 1913.1,1544.4 1886.5,1541.4 1859.9,1538.5 1833.3,1535.6 1806.7,1532.6 1780.0,1529.6 1753.4,1526.7 1726.8,1523.7 1700.1,1520.6 1673.5,1517.6 1646.8,1514.6 1620.2,1511.5 1593.5,1508.4 1566.9,1505.3 1540.3,1502.2 1513.6,1499.1 1487.0,1496.0 1460.3,1492.8 1433.7,1489.6 1407.1,1486.5 1380.4,1483.3 1353.8,1480.1 1327.2,1476.8 1300.6,1473.6 1273.9,1470.3 1247.3,1467.0 1220.7,1463.8 1194.1,1460.5 1167.6,1457.2 1141.0,1453.8 1114.4,1450.5 1087.9,1447.1 1061.3,1443.8 1034.8,1440.4 1008.2,1437.0 981.7,1433.6  A 522.500,522.500 0.00 0,1 984.8,1412.8 L 984.8,1412.8 1010.9,1417.2 1037.1,1421.5 1063.3,1425.8 1089.6,1430.1 1115.9,1434.3 1142.3,1438.4 1168.7,1442.5 1195.2,1446.5 1221.6,1450.4 1248.2,1454.3 1274.7,1458.1 1301.3,1461.9 1327.9,1465.6 1354.6,1469.2 1381.2,1472.7 1407.9,1476.2 1434.6,1479.6 1461.3,1482.9 1488.1,1486.1 1514.8,1489.3 1541.6,1492.3 1568.3,1495.3 1595.1,1498.3 1621.9,1501.1 1648.6,1503.9 1675.4,1506.6 1702.1,1509.2 1728.8,1511.7 1755.5,1514.2 1782.2,1516.6 1808.9,1518.9 1835.6,1521.1 1862.2,1523.3 1888.8,1525.4 1915.4,1527.5 1941.9,1529.4 1968.4,1531.4 1994.9,1533.2 2021.3,1535.0  Z" style="stroke-width: 0.5;  stroke: rgb(0,0,0); fill: rgb(179,177,178);" />
<path d="M 1799.826,1927.915 A 522.500,522.500 0.00 0,1 1782.5,1939.6 L 1782.5,1939.6 1770.6,1921.5 1758.2,1903.7 1745.3,1886.3 1732.0,1869.2 1718.2,1852.7 1704.0,1836.8 1689.4,1821.6 1674.4,1807.1 1659.0,1793.5 1643.3,1780.7 1627.2,1768.9 1610.8,1758.0 1594.1,1748.2 1577.2,1739.5 1560.0,1731.9 1542.6,1725.5 1525.0,1720.2 1507.2,1716.1 1489.3,1713.2 1471.2,1711.6 1453.1,1711.1 1434.8,1711.8 1416.6,1713.8 1398.3,1716.9 1380.0,1721.2 1361.7,1726.7 1343.5,1733.2 1325.4,1740.8 1307.5,1749.5 1289.6,1759.1 1272.0,1769.7 1254.6,1781.2 1237.4,1793.5 1220.5,1806.5 1203.9,1820.2 1187.7,1834.5 1171.8,1849.2 1156.4,1864.5 1141.4,1880.0  A 522.500,522.500 0.00 0,1 1126.4,1865.3 L 1126.4,1865.3 1142.2,1850.3 1158.4,1835.6 1175.0,1821.3 1192.0,1807.5 1209.3,1794.3 1227.0,1781.8 1245.0,1770.0 1263.2,1759.0 1281.6,1748.9 1300.2,1739.6 1319.0,1731.4 1337.9,1724.1 1357.0,1717.9 1376.0,1712.8 1395.2,1708.7 1414.3,1705.8 1433.4,1704.1 1452.5,1703.5 1471.5,1704.1 1490.4,1705.8 1509.2,1708.8 1527.8,1712.9 1546.3,1718.1 1564.6,1724.5 1582.6,1732.0 1600.4,1740.5 1618.0,1750.1 1635.2,1760.8 1652.2,1772.4 1668.8,1784.9 1685.0,1798.2 1700.9,1812.4 1716.4,1827.3 1731.4,1842.9 1746.0,1859.0 1760.2,1875.7 1773.9,1892.8 1787.1,1910.2 1799.8,1927.9  Z" style="stroke-width: 0.5;  stroke: rgb(0,0,0); fill: rgb(179,177,178);" />
<path d="M 1673.745,1007.233 A 522.500,522.500 0.00 0,1 1692.1,1014.1 L 1692.1,1014.1 1684.0,1033.9 1675.4,1053.5 1666.3,1072.9 1656.7,1091.9 1646.6,1110.4 1636.0,1128.4 1624.8,1145.8 1613.2,1162.4 1601.2,1178.3 1588.6,1193.3 1575.6,1207.4 1562.1,1220.5 1548.2,1232.6 1533.9,1243.6 1519.2,1253.5 1504.1,1262.2 1488.6,1269.8 1472.7,1276.2 1456.6,1281.3 1440.1,1285.3 1423.4,1287.9 1406.4,1289.4 1389.1,1289.6 1371.7,1288.6 1354.1,1286.5 1336.3,1283.1 1318.5,1278.6 1300.5,1273.0 1282.6,1266.2 1264.6,1258.5 1246.7,1249.8 1228.8,1240.2 1211.1,1229.7 1193.5,1218.4 1176.1,1206.4 1158.9,1193.8 1142.1,1180.6 1125.5,1167.0 1109.4,1153.0  A 522.500,522.500 0.00 0,1 1122.7,1138.5 L 1122.7,1138.5 1138.2,1153.0 1154.1,1167.2 1170.3,1180.9 1186.7,1194.0 1203.4,1206.6 1220.3,1218.3 1237.3,1229.4 1254.5,1239.5 1271.7,1248.7 1288.9,1256.9 1306.1,1264.0 1323.2,1270.1 1340.3,1275.0 1357.2,1278.8 1374.0,1281.3 1390.6,1282.6 1407.0,1282.7 1423.2,1281.5 1439.1,1279.1 1454.7,1275.3 1470.0,1270.4 1485.0,1264.1 1499.6,1256.7 1513.8,1248.0 1527.7,1238.2 1541.1,1227.2 1554.1,1215.1 1566.7,1201.9 1578.8,1187.8 1590.5,1172.7 1601.7,1156.8 1612.4,1140.0 1622.6,1122.5 1632.4,1104.3 1641.7,1085.6 1650.4,1066.5 1658.7,1046.9 1666.5,1027.2 1673.7,1007.2  Z" style="stroke-width: 0.5;  stroke: rgb(0,0,0); fill: rgb(179,177,178);" />
<path d="M 1883.547,1854.821 A 522.500,522.500 0.00 0,1 1870.5,1868.4 L 1870.5,1868.4 1854.3,1852.6 1837.6,1837.1 1820.4,1822.0 1802.7,1807.3 1784.6,1793.0 1766.0,1779.3 1747.1,1766.1 1727.7,1753.7 1708.0,1741.9 1688.0,1730.9 1667.6,1720.6 1647.0,1711.2 1626.0,1702.6 1604.9,1694.9 1583.5,1688.2 1561.9,1682.3 1540.1,1677.5 1518.2,1673.6 1496.2,1670.6 1474.0,1668.7 1451.8,1667.7 1429.5,1667.7 1407.2,1668.7 1385.0,1670.7 1362.7,1673.6 1340.5,1677.5 1318.4,1682.3 1296.4,1688.0 1274.6,1694.5 1253.0,1701.9 1231.5,1710.0 1210.3,1718.9 1189.3,1728.6 1168.7,1738.8 1148.3,1749.7 1128.3,1761.1 1108.7,1773.0 1089.6,1785.4 1070.9,1798.1  A 522.500,522.500 0.00 0,1 1060.2,1782.1 L 1060.2,1782.1 1079.5,1770.0 1099.3,1758.3 1119.5,1747.0 1140.1,1736.1 1161.0,1725.8 1182.3,1716.1 1203.8,1707.0 1225.6,1698.6 1247.6,1690.9 1269.8,1684.0 1292.2,1677.9 1314.8,1672.6 1337.5,1668.2 1360.2,1664.6 1383.0,1661.9 1405.9,1660.2 1428.7,1659.4 1451.6,1659.5 1474.4,1660.6 1497.1,1662.6 1519.7,1665.5 1542.2,1669.4 1564.6,1674.2 1586.8,1679.9 1608.8,1686.5 1630.6,1694.0 1652.1,1702.4 1673.4,1711.5 1694.4,1721.5 1715.0,1732.2 1735.4,1743.6 1755.4,1755.7 1775.0,1768.4 1794.2,1781.7 1813.0,1795.5 1831.3,1809.8 1849.2,1824.5 1866.6,1839.5 1883.5,1854.8  Z" style="stroke-width: 0.5;  stroke: rgb(0,0,0); fill: rgb(179,177,178);" />
<path d="M 2014.100,1593.315 A 522.500,522.500 0.00 0,1 2010.4,1611.6 L 2010.4,1611.6 1984.9,1606.1 1959.2,1600.6 1933.4,1595.3 1907.5,1590.0 1881.5,1584.8 1855.4,1579.8 1829.3,1574.8 1803.0,1570.0 1776.7,1565.3 1750.3,1560.8 1723.9,1556.3 1697.4,1552.0 1670.8,1547.9 1644.2,1543.9 1617.5,1540.0 1590.8,1536.2 1564.1,1532.7 1537.3,1529.2 1510.6,1525.9 1483.7,1522.8 1456.9,1519.8 1430.1,1517.0 1403.2,1514.3 1376.4,1511.8 1349.6,1509.4 1322.7,1507.2 1295.9,1505.2 1269.2,1503.2 1242.4,1501.4 1215.7,1499.8 1189.0,1498.3 1162.4,1497.0 1135.8,1495.7 1109.2,1494.6 1082.8,1493.7 1056.3,1492.8 1030.0,1492.1 1003.8,1491.5 977.6,1491.0  A 522.500,522.500 0.00 0,1 978.2,1472.3 L 978.2,1472.3 1004.6,1473.7 1031.0,1475.2 1057.5,1476.8 1084.0,1478.5 1110.5,1480.2 1137.1,1482.0 1163.8,1483.9 1190.4,1485.9 1217.1,1488.0 1243.8,1490.2 1270.6,1492.4 1297.3,1494.8 1324.1,1497.2 1350.9,1499.8 1377.7,1502.4 1404.4,1505.2 1431.2,1508.0 1458.0,1510.9 1484.8,1514.0 1511.6,1517.1 1538.3,1520.3 1565.1,1523.6 1591.8,1527.0 1618.5,1530.6 1645.2,1534.2 1671.8,1537.9 1698.4,1541.6 1725.0,1545.5 1751.5,1549.5 1778.0,1553.5 1804.5,1557.7 1830.9,1561.9 1857.2,1566.1 1883.5,1570.5 1909.8,1574.9 1935.9,1579.4 1962.1,1584.0 1988.1,1588.6 2014.1,1593.3  Z" style="stroke-width: 0.5;  stroke: rgb(0,0,0); fill: rgb(179,177,178);" />
<path d="M 1928.779,1798.588 A 522.500,522.500 0.00 0,1 1917.9,1813.7 L 1917.9,1813.7 1898.9,1799.7 1879.5,1786.0 1859.6,1772.6 1839.3,1759.6 1818.6,1746.9 1797.5,1734.7 1776.0,1723.0 1754.2,1711.8 1732.0,1701.2 1709.6,1691.2 1686.8,1681.8 1663.8,1673.0 1640.5,1664.9 1617.0,1657.5 1593.3,1650.8 1569.3,1644.9 1545.3,1639.7 1521.0,1635.2 1496.7,1631.5 1472.2,1628.6 1447.6,1626.4 1423.0,1625.0 1398.4,1624.4 1373.7,1624.5 1349.1,1625.4 1324.5,1627.1 1300.0,1629.4 1275.5,1632.5 1251.2,1636.3 1227.0,1640.7 1203.0,1645.8 1179.1,1651.5 1155.5,1657.8 1132.1,1664.7 1109.0,1672.1 1086.2,1679.9 1063.7,1688.3 1041.6,1697.0 1019.9,1706.1  A 522.500,522.500 0.00 0,1 1013.0,1689.3 L 1013.0,1689.3 1035.2,1680.9 1057.8,1672.8 1080.8,1665.2 1104.0,1657.9 1127.6,1651.2 1151.4,1644.9 1175.4,1639.2 1199.6,1634.0 1224.1,1629.4 1248.6,1625.4 1273.4,1622.1 1298.2,1619.4 1323.1,1617.4 1348.1,1616.1 1373.1,1615.5 1398.1,1615.6 1423.1,1616.4 1448.1,1617.9 1473.1,1620.1 1497.9,1623.1 1522.7,1626.8 1547.3,1631.2 1571.8,1636.3 1596.2,1642.1 1620.3,1648.6 1644.3,1655.7 1668.0,1663.6 1691.5,1672.0 1714.8,1681.1 1737.7,1690.7 1760.4,1700.9 1782.8,1711.6 1804.8,1722.9 1826.4,1734.6 1847.7,1746.7 1868.6,1759.2 1889.1,1772.0 1909.2,1785.2 1928.8,1798.6  Z" style="stroke-width: 0.5;  stroke: rgb(0,0,0); fill: rgb(179,177,178);" />
<path d="M 1939.280,1782.913 A 522.500,522.500 0.00 0,1 1929.3,1797.8 L 1929.3,1797.8 1909.7,1784.4 1889.6,1771.3 1869.1,1758.5 1848.1,1746.0 1826.8,1733.9 1805.1,1722.3 1783.1,1711.1 1760.7,1700.4 1738.1,1690.2 1715.1,1680.6 1691.8,1671.6 1668.3,1663.2 1644.5,1655.4 1620.6,1648.2 1596.4,1641.8 1572.0,1636.0 1547.5,1630.9 1522.8,1626.5 1498.1,1622.9 1473.2,1619.9 1448.2,1617.7 1423.2,1616.2 1398.2,1615.4 1373.2,1615.3 1348.1,1616.0 1323.2,1617.3 1298.2,1619.3 1273.4,1622.0 1248.7,1625.3 1224.1,1629.3 1199.6,1633.9 1175.4,1639.1 1151.4,1644.8 1127.6,1651.1 1104.0,1657.9 1080.8,1665.1 1057.8,1672.8 1035.2,1680.8 1013.0,1689.2  A 522.500,522.500 0.00 0,1 1006.7,1672.2 L 1006.7,1672.2 1029.4,1664.5 1052.5,1657.1 1075.8,1650.1 1099.5,1643.6 1123.5,1637.4 1147.6,1631.8 1172.1,1626.6 1196.7,1622.0 1221.5,1617.9 1246.4,1614.4 1271.5,1611.5 1296.7,1609.3 1321.9,1607.6 1347.2,1606.6 1372.6,1606.3 1398.0,1606.6 1423.3,1607.5 1448.7,1609.2 1474.0,1611.5 1499.2,1614.5 1524.3,1618.2 1549.4,1622.5 1574.2,1627.5 1599.0,1633.1 1623.6,1639.4 1647.9,1646.3 1672.1,1653.8 1696.0,1661.9 1719.7,1670.6 1743.2,1679.9 1766.3,1689.6 1789.2,1699.9 1811.7,1710.6 1833.9,1721.8 1855.8,1733.3 1877.2,1745.3 1898.3,1757.5 1919.0,1770.1 1939.3,1782.9  Z" style="stroke-width: 0.5;  stroke: rgb(0,0,0); fill: rgb(179,177,178);" />
<path d="M 1894.876,1842.168 A 522.500,522.500 0.00 0,1 1883.6,1854.8 L 1883.6,1854.8 1866.7,1839.4 1849.2,1824.4 1831.3,1809.7 1813.0,1795.4 1794.2,1781.6 1774.9,1768.3 1755.3,1755.5 1735.3,1743.4 1714.9,1731.9 1694.2,1721.2 1673.2,1711.2 1651.9,1702.0 1630.4,1693.6 1608.5,1686.1 1586.5,1679.4 1564.3,1673.7 1541.9,1668.8 1519.3,1664.8 1496.7,1661.8 1473.9,1659.7 1451.1,1658.6 1428.2,1658.4 1405.3,1659.1 1382.4,1660.8 1359.5,1663.3 1336.7,1666.8 1313.9,1671.1 1291.3,1676.3 1268.8,1682.3 1246.5,1689.1 1224.4,1696.7 1202.6,1704.9 1181.0,1713.9 1159.6,1723.5 1138.6,1733.7 1118.0,1744.4 1097.7,1755.6 1077.8,1767.3 1058.4,1779.2  A 522.500,522.500 0.00 0,1 1049.6,1764.9 L 1049.6,1764.9 1069.6,1753.5 1090.0,1742.4 1110.8,1731.7 1131.9,1721.5 1153.4,1711.8 1175.2,1702.7 1197.3,1694.2 1219.7,1686.4 1242.3,1679.3 1265.0,1672.9 1288.0,1667.2 1311.1,1662.4 1334.3,1658.4 1357.6,1655.2 1380.9,1652.9 1404.3,1651.4 1427.7,1650.8 1451.0,1651.2 1474.3,1652.4 1497.6,1654.5 1520.8,1657.5 1543.8,1661.5 1566.7,1666.3 1589.4,1671.9 1612.0,1678.4 1634.3,1685.8 1656.4,1693.9 1678.2,1702.9 1699.7,1712.6 1721.0,1723.0 1741.9,1734.1 1762.4,1745.9 1782.6,1758.2 1802.4,1771.1 1821.8,1784.6 1840.8,1798.4 1859.3,1812.7 1877.3,1827.3 1894.9,1842.2  Z" style="stroke-width: 0.5;  stroke: rgb(0,0,0); fill: rgb(179,177,178);" />
<path d="M 1812.915,1918.438 A 522.500,522.500 0.00 0,1 1800.4,1927.5 L 1800.4,1927.5 1787.6,1909.9 1774.4,1892.4 1760.7,1875.3 1746.5,1858.7 1731.8,1842.5 1716.7,1826.9 1701.2,1812.0 1685.3,1797.9 1669.0,1784.5 1652.4,1772.0 1635.4,1760.4 1618.1,1749.8 1600.5,1740.2 1582.7,1731.6 1564.6,1724.1 1546.3,1717.7 1527.8,1712.4 1509.1,1708.3 1490.3,1705.4 1471.3,1703.6 1452.2,1703.0 1433.1,1703.5 1413.9,1705.3 1394.8,1708.1 1375.6,1712.1 1356.5,1717.2 1337.4,1723.4 1318.4,1730.6 1299.6,1738.8 1280.9,1748.0 1262.4,1758.1 1244.2,1769.1 1226.1,1780.8 1208.4,1793.3 1191.0,1806.5 1173.9,1820.2 1157.3,1834.4 1141.0,1849.1 1125.2,1864.1  A 522.500,522.500 0.00 0,1 1114.5,1852.7 L 1114.5,1852.7 1130.8,1838.1 1147.7,1823.8 1164.9,1810.0 1182.5,1796.7 1200.5,1783.9 1218.7,1771.8 1237.3,1760.4 1256.2,1749.9 1275.2,1740.1 1294.5,1731.2 1313.9,1723.3 1333.4,1716.4 1353.1,1710.5 1372.8,1705.6 1392.6,1701.8 1412.4,1699.1 1432.1,1697.6 1451.9,1697.1 1471.5,1697.8 1491.1,1699.7 1510.5,1702.6 1529.8,1706.8 1549.0,1712.0 1567.9,1718.3 1586.6,1725.7 1605.1,1734.2 1623.3,1743.7 1641.2,1754.1 1658.8,1765.5 1676.0,1777.8 1692.9,1791.0 1709.5,1804.9 1725.6,1819.5 1741.3,1834.8 1756.6,1850.7 1771.4,1867.1 1785.7,1883.9 1799.6,1901.0 1812.9,1918.4  Z" style="stroke-width: 0.5;  stroke: rgb(0,0,0); fill: rgb(179,177,178);" />
<path d="M 1573.860,982.747 A 522.500,522.500 0.00 0,1 1589.2,985.2 L 1589.2,985.2 1585.4,1005.5 1581.3,1025.7 1576.8,1045.6 1571.9,1065.2 1566.5,1084.3 1560.7,1102.8 1554.5,1120.6 1547.9,1137.7 1540.8,1153.8 1533.2,1169.0 1525.3,1183.2 1516.9,1196.2 1508.1,1208.2 1498.8,1218.9 1489.2,1228.4 1479.1,1236.5 1468.7,1243.4 1457.9,1248.9 1446.7,1253.0 1435.2,1255.8 1423.4,1257.2 1411.2,1257.2 1398.8,1255.8 1386.2,1253.1 1373.3,1249.1 1360.2,1243.7 1346.9,1237.1 1333.5,1229.3 1319.9,1220.3 1306.3,1210.2 1292.7,1199.0 1279.0,1186.9 1265.4,1173.8 1251.8,1160.0 1238.4,1145.4 1225.1,1130.2 1212.0,1114.5 1199.1,1098.4 1186.6,1081.9  A 522.500,522.500 0.00 0,1 1199.0,1072.9 L 1199.0,1072.9 1211.0,1089.6 1223.3,1106.1 1235.8,1122.1 1248.5,1137.7 1261.3,1152.6 1274.2,1166.8 1287.2,1180.1 1300.2,1192.6 1313.2,1204.1 1326.2,1214.5 1339.0,1223.8 1351.7,1231.9 1364.2,1238.8 1376.6,1244.5 1388.8,1248.8 1400.7,1251.7 1412.3,1253.3 1423.7,1253.5 1434.8,1252.4 1445.5,1249.8 1455.9,1245.8 1465.9,1240.5 1475.5,1233.7 1484.8,1225.7 1493.7,1216.3 1502.1,1205.7 1510.2,1193.8 1517.8,1180.8 1525.0,1166.7 1531.7,1151.5 1538.1,1135.4 1544.0,1118.4 1549.5,1100.5 1554.6,1082.0 1559.2,1062.9 1563.5,1043.3 1567.3,1023.3 1570.8,1003.1 1573.9,982.7  Z" style="stroke-width: 0.5;  stroke: rgb(0,0,0); fill: rgb(179,177,178);" />
<path d="M 2009.484,1384.103 A 522.500,522.500 0.00 0,1 2012.6,1399.0 L 2012.6,1399.0 1988.2,1403.7 1963.6,1408.1 1938.7,1412.1 1913.5,1415.9 1888.2,1419.3 1862.7,1422.4 1837.0,1425.1 1811.2,1427.4 1785.2,1429.3 1759.2,1430.8 1733.0,1431.9 1706.8,1432.5 1680.4,1432.7 1654.1,1432.5 1627.7,1431.7 1601.3,1430.6 1574.9,1428.9 1548.5,1426.8 1522.1,1424.2 1495.8,1421.2 1469.6,1417.6 1443.4,1413.7 1417.3,1409.2 1391.3,1404.3 1365.5,1399.0 1339.8,1393.2 1314.2,1387.0 1288.8,1380.3 1263.6,1373.3 1238.5,1365.9 1213.7,1358.1 1189.1,1349.9 1164.7,1341.4 1140.6,1332.5 1116.7,1323.4 1093.1,1314.0 1069.8,1304.3 1046.8,1294.4 1024.1,1284.3  A 522.500,522.500 0.00 0,1 1030.7,1270.3 L 1030.7,1270.3 1052.9,1281.0 1075.5,1291.5 1098.4,1301.7 1121.6,1311.7 1145.1,1321.3 1168.8,1330.7 1192.9,1339.6 1217.2,1348.2 1241.7,1356.5 1266.5,1364.3 1291.4,1371.6 1316.6,1378.6 1341.9,1385.1 1367.4,1391.1 1393.0,1396.6 1418.8,1401.7 1444.7,1406.2 1470.7,1410.3 1496.8,1413.8 1522.9,1416.9 1549.1,1419.4 1575.3,1421.4 1601.6,1422.9 1627.8,1423.9 1654.0,1424.4 1680.2,1424.4 1706.4,1423.9 1732.5,1422.9 1758.4,1421.4 1784.3,1419.5 1810.1,1417.2 1835.7,1414.4 1861.2,1411.1 1886.4,1407.5 1911.5,1403.5 1936.4,1399.1 1961.0,1394.4 1985.4,1389.4 2009.5,1384.1  Z" style="stroke-width: 0.5;  stroke: rgb(0,0,0); fill: rgb(179,177,178);" />
</g>
<g id="plot0">
<g id="plot0-axis">
</g>
<line x1='2207.6' y1='1251.4' x2='2207.6' y2='1251.4' style="stroke-width:14.0;stroke:rgb(0,0,0);stroke-linecap:round;fill:none;" />
<line x1='2207.6' y1='1251.4' x2='2245.3' y2='1238.1' style="stroke-width:14.0;stroke:rgb(0,0,0);stroke-linecap:round;fill:none;" />
<line x1='2245.3' y1='1238.1' x2='2245.3' y2='1238.1' style="stroke-width:14.0;stroke:rgb(0,0,0);stroke-linecap:round;fill:none;" />
<text x="2271.4" y="1252.8" font-size="46.8px" font-family="CMUBright-Roman" style="text-anchor:start;fill:rgb(255,38,78);" transform="rotate(340.6,2271.4,1252.8)" >HistocapWGSS16<tspan baseline-shift="-40%" font-size="90%">s</tspan>01548</text>
</g>
<defs>
<pattern id="checker" width="10" height="10" patternTransform="rotate(45 0 0)" patternUnits="userSpaceOnUse"><line x1="0" y1="0" x2="10" y2="0" style="stroke:black;stroke-width:2" /><line x1="0" y1="0" x2="0" y2="10" style="stroke:black;stroke-width:2" /></pattern>
<pattern id="checker" width="10" height="10" patternTransform="rotate(45 0 0)" patternUnits="userSpaceOnUse"><line x1="0" y1="0" x2="10" y2="0" style="stroke:black;stroke-width:5" /><line x1="0" y1="0" x2="0" y2="10" style="stroke:black;stroke-width:4" /></pattern>
<pattern id="hline-sparse" width="10" height="10" patternTransform="rotate(0 0 0)" patternUnits="userSpaceOnUse"><line x1="0" y1="0" x2="10" y2="0" style="stroke:black;stroke-width:2" /></pattern>
<pattern id="hline" width="10" height="10" patternTransform="rotate(0 0 0)" patternUnits="userSpaceOnUse"><line x1="0" y1="0" x2="10" y2="0" style="stroke:black;stroke-width:5" /></pattern>
<pattern id="vline-sparse" width="10" height="10" patternTransform="rotate(0 0 0)" patternUnits="userSpaceOnUse"><line x1="0" y1="0" x2="0" y2="10" style="stroke:black;stroke-width:2" /></pattern>
<pattern id="vline" width="10" height="10" patternTransform="rotate(0 0 0)" patternUnits="userSpaceOnUse"><line x1="0" y1="0" x2="0" y2="10" style="stroke:black;stroke-width:5" /></pattern>
</defs>
</svg>
