<?xml version="1.0" encoding="utf-8" standalone="no"?>
<!DOCTYPE svg PUBLIC "-//W3C//DTD SVG 1.1//EN" "http://www.w3.org/Graphics/SVG/1.1/DTD/svg11.dtd">
<svg width="3000px" height="3000px" version="1.1" xmlns="http://www.w3.org/2000/svg" xmlns:xlink="http://www.w3.org/1999/xlink">
<g id="bg">
<rect x="0" y="0" width="3000px" height="3000px" style="fill:rgb(255,255,255);"/>
</g>
<g id="ideograms">
<path d="M1500.000,950.000 A550.000,550.000 40.000 0,1 1659.843,2026.261 L1717.967,2217.628 A750.000,750.000 0.000 0,0 1500.000,750.000 Z" style="stroke-width:2.0;stroke:rgb(0,0,0);stroke-linecap:round;fill:rgb(179,177,178);" />
<text x="2464.4" y="1356.8" font-size="46.8px" font-family="CMUBright-Roman" style="text-anchor:middle;fill:rgb(0,0,0);" transform="rotate(441.6,2464.4,1356.8)" >HistocapHCH143<tspan baseline-shift="-40%" font-size="90%">2</tspan></text>
<line x1='1560.3' y1='752.4' x2='1561.3' y2='740.5' style="stroke-width:8.0;stroke:rgb(150,150,150);stroke-linecap:round;fill:none;" />
<line x1='1658.0' y1='766.8' x2='1660.5' y2='755.1' style="stroke-width:8.0;stroke:rgb(150,150,150);stroke-linecap:round;fill:none;" />
<line x1='1753.0' y1='793.9' x2='1757.0' y2='782.7' style="stroke-width:8.0;stroke:rgb(150,150,150);stroke-linecap:round;fill:none;" />
<text x="1774.2" y="776.2" font-size="41.6px" font-family="CMUBright-Roman" style="text-anchor:start;fill:rgb(150,150,150);" transform="rotate(289.7,1774.2,776.2)" >500 kb</text>
<line x1='1843.5' y1='833.3' x2='1849.0' y2='822.6' style="stroke-width:8.0;stroke:rgb(150,150,150);stroke-linecap:round;fill:none;" />
<line x1='1928.1' y1='884.2' x2='1935.0' y2='874.4' style="stroke-width:8.0;stroke:rgb(150,150,150);stroke-linecap:round;fill:none;" />
<line x1='2005.3' y1='945.8' x2='2013.4' y2='936.9' style="stroke-width:8.0;stroke:rgb(150,150,150);stroke-linecap:round;fill:none;" />
<line x1='2073.7' y1='1017.0' x2='2082.9' y2='1009.2' style="stroke-width:8.0;stroke:rgb(150,150,150);stroke-linecap:round;fill:none;" />
<line x1='2132.2' y1='1096.5' x2='2142.3' y2='1090.1' style="stroke-width:8.0;stroke:rgb(150,150,150);stroke-linecap:round;fill:none;" />
<text x="2159.9" y="1095.5" font-size="41.6px" font-family="CMUBright-Roman" style="text-anchor:start;fill:rgb(150,150,150);" transform="rotate(327.5,2159.9,1095.5)" >550 kb</text>
<line x1='2179.7' y1='1183.1' x2='2190.6' y2='1178.0' style="stroke-width:8.0;stroke:rgb(150,150,150);stroke-linecap:round;fill:none;" />
<line x1='2215.5' y1='1275.1' x2='2226.9' y2='1271.5' style="stroke-width:8.0;stroke:rgb(150,150,150);stroke-linecap:round;fill:none;" />
<line x1='2238.8' y1='1371.1' x2='2250.7' y2='1369.0' style="stroke-width:8.0;stroke:rgb(150,150,150);stroke-linecap:round;fill:none;" />
<line x1='2249.4' y1='1469.2' x2='2261.4' y2='1468.7' style="stroke-width:8.0;stroke:rgb(150,150,150);stroke-linecap:round;fill:none;" />
<line x1='2246.9' y1='1567.9' x2='2258.9' y2='1569.0' style="stroke-width:8.0;stroke:rgb(150,150,150);stroke-linecap:round;fill:none;" />
<text x="2269.4" y="1584.0" font-size="41.6px" font-family="CMUBright-Roman" style="text-anchor:start;fill:rgb(150,150,150);" transform="rotate(5.2,2269.4,1584.0)" >600 kb</text>
<line x1='2231.5' y1='1665.5' x2='2243.2' y2='1668.1' style="stroke-width:8.0;stroke:rgb(150,150,150);stroke-linecap:round;fill:none;" />
<line x1='2203.4' y1='1760.1' x2='2214.7' y2='1764.3' style="stroke-width:8.0;stroke:rgb(150,150,150);stroke-linecap:round;fill:none;" />
<line x1='2163.2' y1='1850.3' x2='2173.8' y2='1855.9' style="stroke-width:8.0;stroke:rgb(150,150,150);stroke-linecap:round;fill:none;" />
<line x1='2111.4' y1='1934.4' x2='2121.2' y2='1941.3' style="stroke-width:8.0;stroke:rgb(150,150,150);stroke-linecap:round;fill:none;" />
<line x1='2049.0' y1='2010.9' x2='2057.8' y2='2019.1' style="stroke-width:8.0;stroke:rgb(150,150,150);stroke-linecap:round;fill:none;" />
<text x="2057.0" y="2037.4" font-size="41.6px" font-family="CMUBright-Roman" style="text-anchor:start;fill:rgb(150,150,150);" transform="rotate(42.9,2057.0,2037.4)" >650 kb</text>
<line x1='1977.2' y1='2078.6' x2='1984.8' y2='2087.9' style="stroke-width:8.0;stroke:rgb(150,150,150);stroke-linecap:round;fill:none;" />
<line x1='1897.0' y1='2136.3' x2='1903.4' y2='2146.5' style="stroke-width:8.0;stroke:rgb(150,150,150);stroke-linecap:round;fill:none;" />
<line x1='1810.0' y1='2182.9' x2='1815.0' y2='2193.9' style="stroke-width:8.0;stroke:rgb(150,150,150);stroke-linecap:round;fill:none;" />
<g id="highlighttrack_0">
<path d="M2032.447,1362.160 A550.000,550.000 40.000 0,1 2049.525,1477.149 L2249.352,1468.839 A750.000,750.000 0.000 0,0 2226.065,1312.037 Z" style="stroke-width:14.0;stroke:rgb(0,0,0);stroke-linecap:round;fill:rgb(255,38,78);" />
</g>
<path d="M1500.000,950.000 A550.000,550.000 40.000 0,1 1659.843,2026.261 L1717.967,2217.628 A750.000,750.000 0.000 0,0 1500.000,750.000 Z" style="stroke-width:2.0;stroke:rgb(0,0,0);stroke-linecap:round;fill:none;" />
<path d="M1444.892,2047.232 A550.000,550.000 40.000 0,1 1288.232,992.403 L1211.225,807.823 A750.000,750.000 0.000 0,0 1424.852,2246.226 Z" style="stroke-width:2.0;stroke:rgb(0,0,0);stroke-linecap:round;fill:rgb(179,177,178);" />
<text x="491.1" y="1649.8" font-size="46.8px" font-family="CMUBright-Roman" style="text-anchor:middle;fill:rgb(0,0,0);" transform="rotate(81.6,491.1,1649.8)" >HistoohiSECH98<tspan baseline-shift="-40%" font-size="90%">2</tspan></text>
<line x1='1156.7' y1='833.2' x2='1151.2' y2='822.5' style="stroke-width:8.0;stroke:rgb(150,150,150);stroke-linecap:round;fill:none;" />
<text x="1133.3" y="818.4" font-size="41.6px" font-family="CMUBright-Roman" style="text-anchor:end;fill:rgb(150,150,150);" transform="rotate(62.8,1133.3,818.4)" >450 kb</text>
<line x1='1072.0' y1='884.1' x2='1065.2' y2='874.2' style="stroke-width:8.0;stroke:rgb(150,150,150);stroke-linecap:round;fill:none;" />
<line x1='994.8' y1='945.6' x2='986.8' y2='936.8' style="stroke-width:8.0;stroke:rgb(150,150,150);stroke-linecap:round;fill:none;" />
<line x1='926.4' y1='1016.8' x2='917.2' y2='1009.1' style="stroke-width:8.0;stroke:rgb(150,150,150);stroke-linecap:round;fill:none;" />
<line x1='867.9' y1='1096.3' x2='857.8' y2='1089.9' style="stroke-width:8.0;stroke:rgb(150,150,150);stroke-linecap:round;fill:none;" />
<line x1='820.3' y1='1182.9' x2='809.5' y2='1177.8' style="stroke-width:8.0;stroke:rgb(150,150,150);stroke-linecap:round;fill:none;" />
<text x="792.8" y="1185.5" font-size="41.6px" font-family="CMUBright-Roman" style="text-anchor:end;fill:rgb(150,150,150);" transform="rotate(25.0,792.8,1185.5)" >500 kb</text>
<line x1='784.6' y1='1274.9' x2='773.1' y2='1271.3' style="stroke-width:8.0;stroke:rgb(150,150,150);stroke-linecap:round;fill:none;" />
<line x1='761.2' y1='1370.9' x2='749.4' y2='1368.8' style="stroke-width:8.0;stroke:rgb(150,150,150);stroke-linecap:round;fill:none;" />
<line x1='750.6' y1='1469.0' x2='738.7' y2='1468.5' style="stroke-width:8.0;stroke:rgb(150,150,150);stroke-linecap:round;fill:none;" />
<line x1='753.1' y1='1567.7' x2='741.1' y2='1568.8' style="stroke-width:8.0;stroke:rgb(150,150,150);stroke-linecap:round;fill:none;" />
<line x1='768.4' y1='1665.3' x2='756.7' y2='1667.9' style="stroke-width:8.0;stroke:rgb(150,150,150);stroke-linecap:round;fill:none;" />
<text x="748.2" y="1684.2" font-size="41.6px" font-family="CMUBright-Roman" style="text-anchor:end;fill:rgb(150,150,150);" transform="rotate(-12.7,748.2,1684.2)" >550 kb</text>
<line x1='796.5' y1='1759.9' x2='785.2' y2='1764.1' style="stroke-width:8.0;stroke:rgb(150,150,150);stroke-linecap:round;fill:none;" />
<line x1='836.7' y1='1850.1' x2='826.1' y2='1855.7' style="stroke-width:8.0;stroke:rgb(150,150,150);stroke-linecap:round;fill:none;" />
<line x1='888.5' y1='1934.2' x2='878.7' y2='1941.2' style="stroke-width:8.0;stroke:rgb(150,150,150);stroke-linecap:round;fill:none;" />
<line x1='950.8' y1='2010.8' x2='942.0' y2='2018.9' style="stroke-width:8.0;stroke:rgb(150,150,150);stroke-linecap:round;fill:none;" />
<line x1='1022.7' y1='2078.5' x2='1015.0' y2='2087.8' style="stroke-width:8.0;stroke:rgb(150,150,150);stroke-linecap:round;fill:none;" />
<text x="1018.3" y="2105.8" font-size="41.6px" font-family="CMUBright-Roman" style="text-anchor:end;fill:rgb(150,150,150);" transform="rotate(-50.5,1018.3,2105.8)" >600 kb</text>
<line x1='1102.8' y1='2136.2' x2='1096.4' y2='2146.4' style="stroke-width:8.0;stroke:rgb(150,150,150);stroke-linecap:round;fill:none;" />
<line x1='1189.8' y1='2182.9' x2='1184.9' y2='2193.8' style="stroke-width:8.0;stroke:rgb(150,150,150);stroke-linecap:round;fill:none;" />
<line x1='1282.2' y1='2217.7' x2='1278.7' y2='2229.2' style="stroke-width:8.0;stroke:rgb(150,150,150);stroke-linecap:round;fill:none;" />
<line x1='1378.4' y1='2240.1' x2='1376.4' y2='2251.9' style="stroke-width:8.0;stroke:rgb(150,150,150);stroke-linecap:round;fill:none;" />
<path d="M1444.892,2047.232 A550.000,550.000 40.000 0,1 1288.232,992.403 L1211.225,807.823 A750.000,750.000 0.000 0,0 1424.852,2246.226 Z" style="stroke-width:2.0;stroke:rgb(0,0,0);stroke-linecap:round;fill:none;" />
</g>
<g id="track_0">
<path d="M 1945.861,1772.423 A 522.500,522.500 0.00 0,1 1870.9,1868.0 L 1870.9,1868.0 1854.7,1852.3 1838.1,1836.9 1820.9,1821.8 1803.2,1807.2 1785.2,1793.0 1766.7,1779.4 1747.8,1766.4 1728.5,1754.1 1708.9,1742.4 1688.9,1731.6 1668.6,1721.5 1648.1,1712.3 1627.3,1703.9 1606.2,1696.5 1585.0,1690.0 1563.5,1684.4 1541.9,1679.8 1520.2,1676.2 1498.3,1673.6 1476.4,1672.0 1454.4,1671.4 1432.3,1671.8 1410.3,1673.2 1388.3,1675.6 1366.3,1678.9 1344.4,1683.2 1322.6,1688.5 1300.9,1694.6 1279.4,1701.6 1258.1,1709.5 1237.0,1718.1 1216.1,1727.5 1195.5,1737.6 1175.2,1748.4 1155.3,1759.8 1135.7,1771.7 1116.5,1784.1 1097.8,1796.9 1079.5,1810.1  A 522.500,522.500 0.00 0,1 1019.2,1704.5 L 1019.2,1704.5 1041.2,1695.4 1063.6,1686.6 1086.4,1678.2 1109.5,1670.1 1132.9,1662.5 1156.5,1655.4 1180.4,1648.8 1204.6,1642.8 1228.9,1637.3 1253.5,1632.4 1278.2,1628.1 1303.0,1624.5 1327.9,1621.5 1353.0,1619.1 1378.1,1617.5 1403.2,1616.5 1428.4,1616.2 1453.6,1616.6 1478.7,1617.8 1503.9,1619.6 1528.9,1622.2 1553.9,1625.4 1578.8,1629.3 1603.5,1634.0 1628.1,1639.3 1652.5,1645.2 1676.8,1651.8 1700.8,1659.1 1724.6,1666.9 1748.2,1675.3 1771.5,1684.3 1794.5,1693.8 1817.2,1703.8 1839.5,1714.3 1861.6,1725.2 1883.2,1736.5 1904.5,1748.2 1925.4,1760.2 1945.9,1772.4  Z" style="stroke-width: 0.5;  stroke: rgb(0,0,0); fill: rgb(179,177,178);" />
<path d="M 1574.626,982.857 A 522.500,522.500 0.00 0,1 1688.4,1012.7 L 1688.4,1012.7 1680.2,1033.2 1671.5,1053.6 1662.1,1073.8 1652.2,1093.8 1641.7,1113.4 1630.5,1132.7 1618.8,1151.4 1606.5,1169.6 1593.7,1187.2 1580.2,1204.1 1566.1,1220.3 1551.5,1235.7 1536.3,1250.2 1520.6,1264.0 1504.3,1276.8 1487.5,1288.7 1470.2,1299.6 1452.4,1309.5 1434.1,1318.5 1415.4,1326.4 1396.3,1333.3 1376.7,1339.2 1356.9,1344.0 1336.6,1347.8 1316.1,1350.6 1295.3,1352.4 1274.2,1353.1 1253.0,1352.9 1231.6,1351.8 1210.1,1349.7 1188.5,1346.7 1166.9,1342.9 1145.3,1338.3 1123.7,1332.9 1102.3,1326.8 1081.0,1320.0 1060.0,1312.7 1039.2,1304.8 1018.8,1296.4  A 522.500,522.500 0.00 0,1 1076.8,1193.5 L 1076.8,1193.5 1094.0,1205.7 1111.6,1217.5 1129.3,1228.8 1147.3,1239.6 1165.4,1249.6 1183.5,1258.9 1201.6,1267.4 1219.6,1275.1 1237.6,1281.7 1255.4,1287.4 1273.0,1292.1 1290.3,1295.7 1307.4,1298.1 1324.2,1299.4 1340.5,1299.5 1356.5,1298.4 1372.1,1296.1 1387.2,1292.5 1401.9,1287.8 1416.0,1281.8 1429.6,1274.6 1442.6,1266.2 1455.1,1256.7 1467.1,1245.9 1478.4,1234.1 1489.1,1221.2 1499.3,1207.2 1508.8,1192.3 1517.7,1176.4 1526.0,1159.7 1533.7,1142.1 1540.8,1123.9 1547.3,1104.9 1553.2,1085.5 1558.6,1065.5 1563.4,1045.1 1567.6,1024.5 1571.4,1003.7 1574.6,982.9  Z" style="stroke-width: 0.5;  stroke: rgb(0,0,0); fill: rgb(179,177,178);" />
<path d="M 2020.451,1453.777 A 522.500,522.500 0.00 0,1 2020.9,1540.3 L 2020.9,1540.3 1995.5,1538.5 1969.8,1536.8 1944.0,1535.3 1918.0,1534.1 1892.0,1533.1 1865.8,1532.3 1839.4,1531.8 1813.0,1531.5 1786.5,1531.5 1760.0,1531.8 1733.4,1532.4 1706.7,1533.2 1679.9,1534.4 1653.2,1535.8 1626.4,1537.5 1599.6,1539.6 1572.8,1541.9 1546.1,1544.5 1519.3,1547.5 1492.6,1550.7 1465.9,1554.3 1439.3,1558.1 1412.7,1562.2 1386.2,1566.7 1359.8,1571.4 1333.5,1576.4 1307.3,1581.7 1281.1,1587.2 1255.2,1593.0 1229.3,1599.1 1203.6,1605.4 1178.0,1612.0 1152.6,1618.8 1127.3,1625.8 1102.2,1633.0 1077.3,1640.4 1052.6,1648.0 1028.1,1655.7 1003.8,1663.6  A 522.500,522.500 0.00 0,1 983.6,1579.6 L 983.6,1579.6 1009.9,1575.6 1036.2,1571.6 1062.6,1567.6 1089.0,1563.6 1115.4,1559.7 1141.8,1555.9 1168.3,1552.0 1194.8,1548.3 1221.3,1544.5 1247.9,1540.8 1274.5,1537.1 1301.0,1533.5 1327.7,1529.9 1354.3,1526.4 1380.9,1522.9 1407.6,1519.5 1434.2,1516.1 1460.9,1512.8 1487.6,1509.5 1514.3,1506.2 1541.0,1503.1 1567.7,1499.9 1594.4,1496.8 1621.1,1493.8 1647.8,1490.8 1674.5,1487.8 1701.2,1485.0 1727.9,1482.1 1754.6,1479.3 1781.2,1476.6 1807.9,1473.9 1834.5,1471.2 1861.1,1468.6 1887.8,1466.0 1914.3,1463.5 1940.9,1461.0 1967.4,1458.6 1994.0,1456.1 2020.5,1453.8  Z" style="stroke-width: 0.5;  stroke: rgb(0,0,0); fill: rgb(179,177,178);" />
<path d="M 1709.800,1021.471 A 522.500,522.500 0.00 0,1 1778.1,1057.6 L 1778.1,1057.6 1765.6,1077.0 1752.6,1096.3 1739.0,1115.4 1724.9,1134.3 1710.2,1152.8 1695.0,1171.0 1679.3,1188.8 1663.0,1206.2 1646.2,1223.0 1628.9,1239.3 1611.1,1255.0 1592.8,1270.0 1574.0,1284.4 1554.8,1298.1 1535.1,1311.1 1515.0,1323.4 1494.4,1334.9 1473.5,1345.6 1452.2,1355.5 1430.5,1364.5 1408.5,1372.8 1386.2,1380.2 1363.6,1386.8 1340.8,1392.5 1317.7,1397.5 1294.4,1401.6 1271.0,1404.8 1247.4,1407.3 1223.7,1409.0 1200.0,1409.9 1176.2,1410.1 1152.5,1409.5 1128.7,1408.2 1105.1,1406.3 1081.6,1403.8 1058.2,1400.6 1035.1,1396.9 1012.2,1392.6 989.7,1387.9  A 522.500,522.500 0.00 0,1 1011.7,1314.0 L 1011.7,1314.0 1032.7,1321.6 1053.9,1328.8 1075.4,1335.5 1097.2,1341.6 1119.1,1347.1 1141.1,1351.8 1163.2,1355.8 1185.3,1359.0 1207.5,1361.4 1229.5,1362.9 1251.5,1363.5 1273.3,1363.2 1294.9,1361.9 1316.3,1359.7 1337.5,1356.5 1358.4,1352.4 1378.9,1347.2 1399.1,1341.0 1419.0,1333.9 1438.4,1325.7 1457.4,1316.6 1476.0,1306.5 1494.1,1295.5 1511.7,1283.5 1528.8,1270.7 1545.4,1257.0 1561.5,1242.4 1577.0,1227.1 1591.9,1211.0 1606.3,1194.2 1620.2,1176.8 1633.4,1158.8 1646.1,1140.2 1658.1,1121.2 1669.6,1101.8 1680.5,1082.0 1690.9,1062.0 1700.6,1041.8 1709.8,1021.5  Z" style="stroke-width: 0.5;  stroke: rgb(0,0,0); fill: rgb(179,177,178);" />
<path d="M 1990.135,1318.965 A 522.500,522.500 0.00 0,1 2006.5,1371.6 L 2006.5,1371.6 1980.8,1378.1 1955.1,1384.5 1929.3,1390.9 1903.5,1397.2 1877.6,1403.5 1851.6,1409.7 1825.6,1415.9 1799.6,1422.0 1773.5,1428.0 1747.4,1434.0 1721.2,1439.9 1695.0,1445.8 1668.8,1451.5 1642.5,1457.2 1616.2,1462.8 1589.8,1468.4 1563.5,1473.8 1537.1,1479.2 1510.7,1484.5 1484.2,1489.7 1457.8,1494.9 1431.4,1499.9 1404.9,1504.9 1378.4,1509.8 1352.0,1514.6 1325.5,1519.4 1299.0,1524.0 1272.6,1528.6 1246.1,1533.1 1219.7,1537.5 1193.2,1541.8 1166.8,1546.1 1140.5,1550.3 1114.1,1554.4 1087.8,1558.4 1061.5,1562.4 1035.2,1566.3 1008.9,1570.1 982.8,1573.9  A 522.500,522.500 0.00 0,1 977.9,1519.4 L 977.9,1519.4 1003.6,1518.4 1029.6,1517.2 1055.6,1515.8 1081.7,1514.2 1107.9,1512.4 1134.2,1510.4 1160.5,1508.2 1187.0,1505.8 1213.4,1503.1 1240.0,1500.3 1266.5,1497.2 1293.1,1493.9 1319.7,1490.3 1346.3,1486.5 1372.9,1482.5 1399.5,1478.2 1426.0,1473.7 1452.6,1468.9 1479.1,1463.9 1505.6,1458.7 1532.0,1453.2 1558.3,1447.5 1584.6,1441.5 1610.8,1435.4 1637.0,1428.9 1663.0,1422.3 1689.0,1415.5 1714.8,1408.4 1740.5,1401.2 1766.1,1393.7 1791.6,1386.0 1817.0,1378.2 1842.2,1370.2 1867.2,1362.0 1892.2,1353.7 1916.9,1345.2 1941.5,1336.6 1965.9,1327.8 1990.1,1319.0  Z" style="stroke-width: 0.5;  stroke: rgb(0,0,0); fill: rgb(179,177,178);" />
<path d="M 1835.994,1900.143 A 522.500,522.500 0.00 0,1 1795.0,1931.3 L 1795.0,1931.3 1782.7,1913.8 1769.9,1896.5 1756.7,1879.6 1743.1,1863.2 1729.1,1847.3 1714.8,1832.1 1700.0,1817.6 1685.0,1803.9 1669.6,1791.0 1654.0,1779.1 1638.1,1768.2 1622.0,1758.4 1605.7,1749.6 1589.2,1742.0 1572.6,1735.5 1555.8,1730.3 1538.9,1726.2 1522.0,1723.4 1504.9,1721.9 1487.9,1721.6 1470.8,1722.6 1453.8,1724.9 1436.7,1728.3 1419.8,1733.0 1403.0,1739.0 1386.2,1746.1 1369.6,1754.3 1353.2,1763.6 1337.0,1774.0 1321.0,1785.4 1305.2,1797.7 1289.8,1810.9 1274.6,1824.9 1259.7,1839.7 1245.2,1855.1 1231.1,1871.1 1217.3,1887.5 1204.0,1904.4 1191.2,1921.5  A 522.500,522.500 0.00 0,1 1151.2,1889.1 L 1151.2,1889.1 1166.0,1873.0 1181.2,1857.2 1196.9,1841.8 1213.0,1826.9 1229.5,1812.6 1246.4,1798.9 1263.6,1785.8 1281.2,1773.6 1299.0,1762.2 1317.1,1751.6 1335.4,1742.1 1353.9,1733.5 1372.6,1725.9 1391.5,1719.4 1410.4,1713.9 1429.5,1709.6 1448.7,1706.5 1467.9,1704.4 1487.1,1703.6 1506.3,1703.9 1525.5,1705.4 1544.6,1708.0 1563.7,1711.8 1582.6,1716.7 1601.4,1722.8 1620.0,1729.9 1638.5,1738.1 1656.7,1747.3 1674.7,1757.4 1692.4,1768.5 1709.9,1780.5 1727.0,1793.3 1743.8,1806.9 1760.2,1821.2 1776.2,1836.0 1791.9,1851.5 1807.0,1867.3 1821.8,1883.6 1836.0,1900.1  Z" style="stroke-width: 0.5;  stroke: rgb(0,0,0); fill: rgb(179,177,178);" />
<path d="M 1963.241,1258.310 A 522.500,522.500 0.00 0,1 1983.3,1301.4 L 1983.3,1301.4 1959.6,1311.0 1935.7,1320.5 1911.6,1329.9 1887.2,1339.1 1862.7,1348.1 1838.0,1356.9 1813.1,1365.5 1788.1,1373.9 1762.9,1382.1 1737.5,1390.0 1712.0,1397.7 1686.4,1405.2 1660.6,1412.4 1634.7,1419.3 1608.7,1425.9 1582.6,1432.3 1556.4,1438.4 1530.1,1444.2 1503.8,1449.7 1477.4,1455.0 1450.9,1459.9 1424.4,1464.6 1397.8,1468.9 1371.3,1472.9 1344.7,1476.7 1318.1,1480.2 1291.6,1483.3 1265.0,1486.2 1238.5,1488.8 1212.0,1491.1 1185.6,1493.2 1159.2,1495.0 1132.9,1496.5 1106.8,1497.8 1080.7,1498.8 1054.7,1499.6 1028.8,1500.1 1003.1,1500.4 977.5,1500.6  A 522.500,522.500 0.00 0,1 979.7,1452.5 L 979.7,1452.5 1004.6,1454.7 1029.7,1456.5 1055.0,1458.1 1080.5,1459.3 1106.2,1460.2 1132.0,1460.8 1158.0,1461.0 1184.0,1460.8 1210.1,1460.3 1236.3,1459.4 1262.6,1458.0 1288.9,1456.3 1315.3,1454.1 1341.6,1451.5 1368.0,1448.5 1394.3,1445.1 1420.6,1441.2 1446.9,1436.9 1473.0,1432.2 1499.2,1427.1 1525.2,1421.5 1551.1,1415.5 1576.9,1409.0 1602.5,1402.2 1628.1,1395.0 1653.4,1387.3 1678.6,1379.3 1703.6,1370.9 1728.4,1362.2 1753.0,1353.1 1777.4,1343.7 1801.5,1333.9 1825.5,1323.9 1849.1,1313.5 1872.5,1302.9 1895.6,1292.1 1918.5,1281.0 1941.0,1269.8 1963.2,1258.3  Z" style="stroke-width: 0.5;  stroke: rgb(0,0,0); fill: rgb(179,177,178);" />
<path d="M 1966.062,1736.205 A 522.500,522.500 0.00 0,1 1946.0,1772.2 L 1946.0,1772.2 1925.5,1759.9 1904.6,1748.0 1883.3,1736.3 1861.7,1725.0 1839.6,1714.1 1817.2,1703.6 1794.5,1693.6 1771.5,1684.1 1748.2,1675.1 1724.6,1666.7 1700.8,1658.8 1676.8,1651.6 1652.5,1645.0 1628.1,1639.0 1603.5,1633.7 1578.7,1629.1 1553.9,1625.1 1528.9,1621.9 1503.8,1619.3 1478.7,1617.4 1453.5,1616.3 1428.3,1615.8 1403.1,1616.1 1377.9,1617.0 1352.8,1618.6 1327.8,1620.9 1302.8,1623.9 1278.0,1627.5 1253.3,1631.8 1228.7,1636.6 1204.3,1642.1 1180.2,1648.1 1156.2,1654.7 1132.5,1661.7 1109.1,1669.3 1086.0,1677.3 1063.3,1685.7 1040.8,1694.4 1018.8,1703.5  A 522.500,522.500 0.00 0,1 1004.1,1664.7 L 1004.1,1664.7 1027.3,1657.2 1050.8,1650.0 1074.6,1643.2 1098.6,1636.7 1122.9,1630.6 1147.5,1624.9 1172.3,1619.7 1197.3,1614.9 1222.5,1610.6 1247.8,1606.9 1273.3,1603.6 1298.9,1600.9 1324.6,1598.7 1350.3,1597.2 1376.2,1596.1 1402.0,1595.7 1427.9,1595.8 1453.8,1596.6 1479.7,1597.9 1505.6,1599.8 1531.4,1602.3 1557.1,1605.4 1582.7,1609.1 1608.3,1613.4 1633.7,1618.2 1658.9,1623.6 1684.0,1629.5 1708.9,1636.0 1733.6,1643.0 1758.1,1650.5 1782.4,1658.4 1806.4,1666.8 1830.1,1675.6 1853.6,1684.9 1876.8,1694.5 1899.6,1704.5 1922.1,1714.8 1944.3,1725.4 1966.1,1736.2  Z" style="stroke-width: 0.5;  stroke: rgb(0,0,0); fill: rgb(179,177,178);" />
<path d="M 1696.201,1984.264 A 522.500,522.500 0.00 0,1 1657.7,1998.1 L 1657.7,1998.1 1651.4,1978.6 1644.7,1959.3 1637.7,1940.4 1630.5,1921.8 1622.9,1903.8 1615.1,1886.5 1607.1,1870.0 1598.8,1854.3 1590.2,1839.6 1581.5,1826.0 1572.5,1813.4 1563.4,1802.1 1554.1,1792.0 1544.6,1783.2 1535.0,1775.7 1525.3,1769.6 1515.5,1764.9 1505.5,1761.6 1495.5,1759.8 1485.5,1759.4 1475.3,1760.5 1465.2,1763.0 1455.0,1767.0 1444.9,1772.4 1434.8,1779.1 1424.7,1787.2 1414.7,1796.6 1404.7,1807.3 1394.9,1819.1 1385.2,1832.1 1375.6,1846.2 1366.1,1861.2 1356.9,1877.1 1347.8,1893.8 1339.0,1911.1 1330.4,1929.1 1322.1,1947.5 1314.0,1966.3 1306.3,1985.3  A 522.500,522.500 0.00 0,1 1269.1,1968.7 L 1269.1,1968.7 1278.4,1950.2 1288.1,1932.0 1298.1,1914.1 1308.5,1896.7 1319.1,1879.8 1329.9,1863.6 1341.1,1848.3 1352.4,1833.7 1363.9,1820.2 1375.6,1807.7 1387.4,1796.2 1399.4,1786.0 1411.4,1776.9 1423.6,1769.2 1435.8,1762.7 1448.0,1757.6 1460.3,1753.8 1472.5,1751.5 1484.8,1750.5 1497.0,1750.9 1509.1,1752.8 1521.2,1756.0 1533.1,1760.7 1545.0,1766.7 1556.7,1774.0 1568.2,1782.6 1579.6,1792.5 1590.8,1803.6 1601.7,1815.9 1612.5,1829.2 1623.0,1843.6 1633.2,1858.9 1643.2,1875.0 1652.8,1891.9 1662.2,1909.5 1671.2,1927.7 1679.9,1946.2 1688.2,1965.2 1696.2,1984.3  Z" style="stroke-width: 0.5;  stroke: rgb(0,0,0); fill: rgb(179,177,178);" />
<path d="M 1780.818,1059.378 A 522.500,522.500 0.00 0,1 1813.7,1082.1 L 1813.7,1082.1 1799.4,1100.8 1784.6,1119.4 1769.2,1137.8 1753.4,1155.9 1737.0,1173.8 1720.2,1191.3 1702.9,1208.5 1685.0,1225.3 1666.7,1241.6 1648.0,1257.5 1628.8,1272.8 1609.1,1287.5 1589.0,1301.7 1568.5,1315.3 1547.6,1328.2 1526.3,1340.5 1504.6,1352.1 1482.6,1363.0 1460.2,1373.2 1437.6,1382.7 1414.6,1391.5 1391.4,1399.5 1367.9,1406.8 1344.2,1413.4 1320.3,1419.2 1296.2,1424.3 1272.0,1428.7 1247.7,1432.3 1223.3,1435.3 1198.9,1437.6 1174.4,1439.2 1150.0,1440.1 1125.6,1440.4 1101.2,1440.1 1077.0,1439.2 1053.0,1437.7 1029.1,1435.8 1005.5,1433.3 982.2,1430.4  A 522.500,522.500 0.00 0,1 989.0,1391.0 L 989.0,1391.0 1011.6,1395.6 1034.6,1399.7 1057.8,1403.3 1081.2,1406.3 1104.7,1408.7 1128.4,1410.6 1152.2,1411.7 1176.0,1412.2 1199.9,1411.9 1223.7,1410.9 1247.4,1409.1 1271.0,1406.6 1294.5,1403.2 1317.9,1399.0 1341.0,1394.0 1363.9,1388.2 1386.6,1381.6 1409.0,1374.1 1431.0,1365.8 1452.8,1356.7 1474.2,1346.8 1495.2,1336.1 1515.8,1324.6 1536.1,1312.4 1555.8,1299.4 1575.2,1285.7 1594.1,1271.3 1612.5,1256.2 1630.4,1240.6 1647.8,1224.3 1664.7,1207.5 1681.1,1190.2 1697.0,1172.5 1712.3,1154.3 1727.1,1135.8 1741.3,1117.0 1755.0,1097.9 1768.2,1078.7 1780.8,1059.4  Z" style="stroke-width: 0.5;  stroke: rgb(0,0,0); fill: rgb(179,177,178);" />
<path d="M 1542.872,979.262 A 522.500,522.500 0.00 0,1 1573.9,982.8 L 1573.9,982.8 1570.7,1003.6 1567.0,1024.4 1562.8,1045.0 1558.0,1065.3 1552.7,1085.2 1546.9,1104.7 1540.4,1123.6 1533.4,1141.8 1525.8,1159.3 1517.5,1176.0 1508.7,1191.8 1499.2,1206.6 1489.2,1220.5 1478.5,1233.3 1467.3,1245.1 1455.5,1255.7 1443.1,1265.1 1430.1,1273.4 1416.7,1280.5 1402.6,1286.3 1388.1,1290.9 1373.1,1294.3 1357.7,1296.5 1341.8,1297.4 1325.6,1297.1 1309.0,1295.7 1292.1,1293.0 1274.9,1289.3 1257.4,1284.5 1239.8,1278.6 1222.0,1271.7 1204.1,1263.9 1186.1,1255.2 1168.1,1245.7 1150.3,1235.4 1132.5,1224.5 1114.9,1213.0 1097.5,1201.0 1080.4,1188.6  A 522.500,522.500 0.00 0,1 1099.8,1164.0 L 1099.8,1164.0 1116.0,1177.3 1132.4,1190.2 1149.0,1202.6 1165.8,1214.5 1182.6,1225.7 1199.5,1236.1 1216.4,1245.8 1233.2,1254.6 1249.8,1262.4 1266.3,1269.2 1282.6,1274.9 1298.6,1279.5 1314.2,1283.0 1329.6,1285.2 1344.5,1286.3 1359.1,1286.1 1373.2,1284.6 1386.8,1281.9 1400.0,1277.9 1412.6,1272.6 1424.7,1266.1 1436.2,1258.3 1447.2,1249.3 1457.5,1239.1 1467.3,1227.8 1476.5,1215.3 1485.1,1201.7 1493.1,1187.1 1500.4,1171.5 1507.2,1155.0 1513.4,1137.7 1519.0,1119.6 1524.0,1100.8 1528.4,1081.5 1532.3,1061.6 1535.7,1041.3 1538.6,1020.8 1540.9,1000.0 1542.9,979.3  Z" style="stroke-width: 0.5;  stroke: rgb(0,0,0); fill: rgb(179,177,178);" />
<path d="M 1724.892,1971.625 A 522.500,522.500 0.00 0,1 1697.6,1983.7 L 1697.6,1983.7 1689.6,1964.6 1681.2,1945.7 1672.4,1927.1 1663.3,1909.0 1653.8,1891.4 1644.1,1874.5 1634.0,1858.3 1623.7,1843.0 1613.0,1828.6 1602.2,1815.3 1591.0,1803.0 1579.7,1791.9 1568.2,1781.9 1556.5,1773.3 1544.6,1765.9 1532.6,1759.8 1520.4,1755.1 1508.2,1751.8 1495.8,1749.9 1483.4,1749.4 1471.0,1750.3 1458.5,1752.6 1446.0,1756.2 1433.5,1761.3 1421.1,1767.6 1408.7,1775.3 1396.4,1784.3 1384.2,1794.4 1372.1,1805.7 1360.1,1818.1 1348.3,1831.6 1336.8,1846.0 1325.4,1861.2 1314.2,1877.3 1303.4,1894.0 1292.8,1911.3 1282.5,1929.1 1272.6,1947.3 1263.0,1965.6  A 522.500,522.500 0.00 0,1 1236.6,1951.3 L 1236.6,1951.3 1247.3,1933.3 1258.5,1915.6 1270.0,1898.3 1281.8,1881.4 1293.9,1865.2 1306.4,1849.6 1319.1,1834.8 1332.0,1820.8 1345.1,1807.8 1358.5,1795.8 1372.0,1784.8 1385.6,1775.0 1399.4,1766.4 1413.2,1759.0 1427.1,1752.9 1441.1,1748.1 1455.0,1744.6 1469.0,1742.5 1483.0,1741.7 1496.9,1742.3 1510.7,1744.2 1524.4,1747.5 1538.1,1752.1 1551.6,1758.1 1564.9,1765.4 1578.1,1773.9 1591.1,1783.6 1603.9,1794.5 1616.4,1806.5 1628.7,1819.6 1640.7,1833.7 1652.4,1848.7 1663.9,1864.5 1674.9,1881.1 1685.7,1898.3 1696.1,1916.1 1706.1,1934.3 1715.7,1952.8 1724.9,1971.6  Z" style="stroke-width: 0.5;  stroke: rgb(0,0,0); fill: rgb(179,177,178);" />
<path d="M 1500.000,977.500 A 522.500,522.500 0.00 0,1 1524.9,978.1 L 1524.9,978.1 1523.7,998.8 1522.1,1019.5 1520.0,1040.0 1517.4,1060.2 1514.3,1080.0 1510.7,1099.2 1506.6,1117.9 1501.8,1135.9 1496.5,1153.1 1490.6,1169.4 1484.1,1184.8 1477.0,1199.3 1469.3,1212.6 1461.0,1224.9 1452.1,1236.0 1442.6,1245.9 1432.5,1254.6 1421.9,1262.0 1410.7,1268.2 1398.9,1273.1 1386.6,1276.7 1373.8,1279.0 1360.5,1280.0 1346.8,1279.7 1332.7,1278.2 1318.1,1275.4 1303.2,1271.4 1288.0,1266.3 1272.5,1260.0 1256.8,1252.6 1240.8,1244.3 1224.7,1234.9 1208.6,1224.7 1192.4,1213.6 1176.2,1201.9 1160.0,1189.4 1144.1,1176.5 1128.3,1163.0 1112.7,1149.2  A 522.500,522.500 0.00 0,1 1131.4,1129.7 L 1131.4,1129.7 1146.0,1144.2 1161.0,1158.3 1176.0,1172.1 1191.3,1185.3 1206.5,1197.8 1221.7,1209.6 1236.9,1220.6 1252.0,1230.7 1266.9,1239.8 1281.6,1248.0 1296.0,1255.0 1310.1,1260.8 1323.9,1265.5 1337.3,1269.0 1350.3,1271.2 1362.8,1272.1 1374.9,1271.7 1386.5,1270.0 1397.6,1267.0 1408.2,1262.6 1418.1,1257.0 1427.6,1250.0 1436.4,1241.7 1444.7,1232.2 1452.3,1221.5 1459.4,1209.6 1465.8,1196.5 1471.7,1182.4 1477.0,1167.3 1481.7,1151.2 1485.8,1134.2 1489.3,1116.4 1492.3,1097.9 1494.8,1078.8 1496.7,1059.1 1498.2,1039.0 1499.2,1018.7 1499.8,998.1 1500.0,977.5  Z" style="stroke-width: 0.5;  stroke: rgb(0,0,0); fill: rgb(179,177,178);" />
<path d="M 1855.648,1882.781 A 522.500,522.500 0.00 0,1 1838.1,1898.4 L 1838.1,1898.4 1823.8,1881.9 1808.9,1865.7 1793.7,1849.8 1777.9,1834.5 1761.8,1819.6 1745.2,1805.4 1728.3,1791.9 1711.1,1779.1 1693.5,1767.2 1675.6,1756.1 1657.5,1745.9 1639.2,1736.8 1620.6,1728.6 1601.8,1721.5 1582.9,1715.4 1563.8,1710.5 1544.6,1706.7 1525.4,1704.0 1506.0,1702.5 1486.7,1702.2 1467.3,1703.0 1448.0,1705.0 1428.7,1708.1 1409.4,1712.3 1390.3,1717.7 1371.3,1724.1 1352.4,1731.6 1333.7,1740.1 1315.3,1749.6 1297.0,1760.0 1279.0,1771.3 1261.3,1783.5 1244.0,1796.4 1226.9,1810.0 1210.2,1824.3 1194.0,1839.0 1178.1,1854.3 1162.7,1870.0 1147.8,1885.9  A 522.500,522.500 0.00 0,1 1131.4,1870.3 L 1131.4,1870.3 1147.2,1854.9 1163.4,1839.8 1180.1,1825.0 1197.2,1810.7 1214.7,1797.0 1232.6,1783.9 1250.8,1771.5 1269.4,1759.8 1288.2,1748.9 1307.3,1738.9 1326.6,1729.8 1346.2,1721.6 1365.9,1714.4 1385.8,1708.2 1405.8,1703.1 1425.9,1699.1 1446.1,1696.1 1466.3,1694.2 1486.6,1693.4 1506.8,1693.8 1527.0,1695.3 1547.2,1697.8 1567.2,1701.5 1587.2,1706.2 1607.0,1712.0 1626.7,1718.9 1646.1,1726.8 1665.4,1735.6 1684.4,1745.4 1703.1,1756.0 1721.6,1767.6 1739.7,1779.9 1757.5,1792.9 1774.9,1806.6 1792.0,1820.9 1808.6,1835.8 1824.7,1851.1 1840.4,1866.8 1855.6,1882.8  Z" style="stroke-width: 0.5;  stroke: rgb(0,0,0); fill: rgb(179,177,178);" />
<path d="M 1747.702,1960.054 A 522.500,522.500 0.00 0,1 1729.5,1969.4 L 1729.5,1969.4 1720.1,1950.7 1710.3,1932.1 1700.1,1914.0 1689.4,1896.2 1678.5,1879.1 1667.1,1862.5 1655.4,1846.7 1643.4,1831.8 1631.1,1817.8 1618.5,1804.7 1605.7,1792.7 1592.6,1781.8 1579.3,1772.0 1565.8,1763.5 1552.1,1756.2 1538.3,1750.2 1524.3,1745.5 1510.2,1742.2 1496.0,1740.2 1481.7,1739.5 1467.4,1740.2 1453.1,1742.2 1438.7,1745.6 1424.4,1750.3 1410.1,1756.3 1395.8,1763.5 1381.7,1772.0 1367.6,1781.6 1353.7,1792.4 1340.0,1804.2 1326.5,1817.1 1313.1,1830.9 1300.0,1845.5 1287.2,1860.9 1274.7,1877.0 1262.4,1893.6 1250.6,1910.8 1239.1,1928.3 1228.0,1946.1  A 522.500,522.500 0.00 0,1 1210.7,1935.1 L 1210.7,1935.1 1222.5,1917.6 1234.8,1900.5 1247.5,1883.7 1260.6,1867.4 1274.0,1851.6 1287.7,1836.6 1301.6,1822.3 1315.8,1808.9 1330.3,1796.4 1344.9,1784.8 1359.8,1774.3 1374.7,1765.0 1389.8,1756.7 1405.0,1749.7 1420.3,1743.9 1435.6,1739.4 1450.9,1736.1 1466.2,1734.2 1481.5,1733.6 1496.7,1734.3 1511.9,1736.3 1527.0,1739.7 1541.9,1744.3 1556.8,1750.3 1571.4,1757.4 1585.9,1765.8 1600.1,1775.4 1614.2,1786.2 1628.0,1798.0 1641.5,1810.8 1654.7,1824.6 1667.6,1839.3 1680.2,1854.9 1692.4,1871.1 1704.3,1888.0 1715.8,1905.5 1726.8,1923.4 1737.5,1941.6 1747.7,1960.1  Z" style="stroke-width: 0.5;  stroke: rgb(0,0,0); fill: rgb(179,177,178);" />
<path d="M 1816.447,1084.227 A 522.500,522.500 0.00 0,1 1830.6,1095.4 L 1830.6,1095.4 1815.4,1113.7 1799.7,1131.8 1783.5,1149.8 1766.8,1167.5 1749.7,1185.0 1732.1,1202.2 1714.0,1219.0 1695.4,1235.5 1676.4,1251.5 1657.0,1267.0 1637.1,1282.1 1616.8,1296.7 1596.1,1310.7 1575.0,1324.2 1553.6,1337.0 1531.8,1349.3 1509.6,1360.9 1487.1,1371.9 1464.3,1382.2 1441.2,1391.9 1417.8,1400.9 1394.2,1409.2 1370.4,1416.8 1346.3,1423.7 1322.1,1430.0 1297.7,1435.6 1273.2,1440.5 1248.6,1444.7 1223.9,1448.3 1199.2,1451.2 1174.4,1453.5 1149.7,1455.1 1125.0,1456.2 1100.4,1456.7 1075.9,1456.6 1051.6,1456.1 1027.4,1455.0 1003.4,1453.4 979.8,1451.4  A 522.500,522.500 0.00 0,1 981.7,1433.6 L 981.7,1433.6 1005.1,1436.3 1028.8,1438.7 1052.7,1440.5 1076.8,1441.8 1101.1,1442.6 1125.4,1442.8 1149.9,1442.4 1174.4,1441.3 1198.9,1439.6 1223.4,1437.3 1247.9,1434.2 1272.2,1430.5 1296.5,1426.0 1320.6,1420.9 1344.5,1415.0 1368.3,1408.3 1391.8,1401.0 1415.1,1392.9 1438.1,1384.1 1460.9,1374.6 1483.3,1364.4 1505.4,1353.4 1527.2,1341.8 1548.6,1329.6 1569.6,1316.7 1590.2,1303.1 1610.4,1289.0 1630.1,1274.2 1649.5,1259.0 1668.3,1243.2 1686.7,1226.9 1704.7,1210.2 1722.1,1193.0 1739.1,1175.6 1755.6,1157.7 1771.6,1139.6 1787.0,1121.3 1802.0,1102.8 1816.4,1084.2  Z" style="stroke-width: 0.5;  stroke: rgb(0,0,0); fill: rgb(179,177,178);" />
<path d="M 1764.661,1950.511 A 522.500,522.500 0.00 0,1 1749.0,1959.3 L 1749.0,1959.3 1738.7,1940.9 1728.0,1922.7 1716.9,1904.8 1705.4,1887.4 1693.4,1870.5 1681.2,1854.3 1668.5,1838.8 1655.5,1824.1 1642.3,1810.3 1628.7,1797.5 1614.8,1785.7 1600.8,1775.0 1586.4,1765.4 1571.9,1757.1 1557.2,1749.9 1542.3,1744.0 1527.3,1739.4 1512.2,1736.0 1497.0,1734.0 1481.7,1733.3 1466.4,1733.9 1451.0,1735.9 1435.6,1739.1 1420.3,1743.6 1405.0,1749.4 1389.7,1756.5 1374.6,1764.7 1359.6,1774.1 1344.8,1784.6 1330.1,1796.1 1315.6,1808.6 1301.3,1822.0 1287.3,1836.3 1273.6,1851.4 1260.2,1867.1 1247.1,1883.4 1234.4,1900.2 1222.1,1917.3 1210.2,1934.8  A 522.500,522.500 0.00 0,1 1195.4,1924.6 L 1195.4,1924.6 1208.0,1907.5 1221.0,1890.6 1234.4,1874.2 1248.2,1858.2 1262.4,1842.8 1276.8,1828.1 1291.6,1814.1 1306.6,1801.0 1321.8,1788.8 1337.3,1777.5 1352.9,1767.3 1368.7,1758.2 1384.7,1750.2 1400.7,1743.4 1416.8,1737.7 1433.0,1733.3 1449.2,1730.2 1465.4,1728.4 1481.5,1727.8 1497.7,1728.5 1513.7,1730.6 1529.7,1733.9 1545.5,1738.5 1561.2,1744.3 1576.7,1751.4 1592.1,1759.6 1607.2,1769.1 1622.1,1779.6 1636.8,1791.2 1651.1,1803.8 1665.2,1817.4 1679.0,1831.8 1692.4,1847.0 1705.5,1863.0 1718.1,1879.6 1730.4,1896.8 1742.3,1914.4 1753.7,1932.3 1764.7,1950.5  Z" style="stroke-width: 0.5;  stroke: rgb(0,0,0); fill: rgb(179,177,178);" />
<path d="M 1524.958,978.096 A 522.500,522.500 0.00 0,1 1542.8,979.3 L 1542.8,979.3 1540.9,1000.0 1538.5,1020.8 1535.7,1041.3 1532.3,1061.6 1528.4,1081.4 1524.0,1100.8 1518.9,1119.6 1513.4,1137.6 1507.2,1155.0 1500.4,1171.5 1493.1,1187.0 1485.1,1201.6 1476.6,1215.2 1467.4,1227.7 1457.6,1239.0 1447.3,1249.2 1436.3,1258.2 1424.8,1265.9 1412.7,1272.4 1400.1,1277.7 1387.0,1281.6 1373.4,1284.3 1359.3,1285.8 1344.8,1285.9 1329.9,1284.9 1314.5,1282.6 1298.9,1279.1 1282.9,1274.4 1266.7,1268.7 1250.2,1261.9 1233.6,1254.0 1216.8,1245.2 1200.0,1235.5 1183.1,1225.0 1166.3,1213.8 1149.6,1201.9 1133.0,1189.4 1116.6,1176.5 1100.5,1163.2  A 522.500,522.500 0.00 0,1 1112.2,1149.8 L 1112.2,1149.8 1127.7,1163.6 1143.6,1177.0 1159.6,1190.0 1175.7,1202.4 1191.9,1214.1 1208.2,1225.2 1224.4,1235.4 1240.5,1244.7 1256.4,1253.0 1272.2,1260.4 1287.7,1266.6 1302.9,1271.7 1317.9,1275.7 1332.4,1278.4 1346.6,1280.0 1360.3,1280.2 1373.6,1279.2 1386.4,1276.9 1398.8,1273.3 1410.5,1268.4 1421.8,1262.2 1432.4,1254.7 1442.5,1246.0 1452.0,1236.1 1461.0,1225.0 1469.3,1212.7 1477.0,1199.3 1484.1,1184.9 1490.6,1169.5 1496.5,1153.1 1501.8,1135.9 1506.6,1117.9 1510.7,1099.3 1514.4,1080.0 1517.5,1060.2 1520.0,1040.0 1522.1,1019.5 1523.8,998.8 1525.0,978.1  Z" style="stroke-width: 0.5;  stroke: rgb(0,0,0); fill: rgb(179,177,178);" />
<path d="M 1984.037,1303.241 A 522.500,522.500 0.00 0,1 1990.1,1319.0 L 1990.1,1319.0 1965.9,1327.8 1941.5,1336.6 1916.9,1345.2 1892.2,1353.7 1867.2,1362.0 1842.2,1370.2 1817.0,1378.2 1791.6,1386.0 1766.1,1393.7 1740.5,1401.1 1714.8,1408.4 1689.0,1415.4 1663.0,1422.2 1637.0,1428.9 1610.8,1435.3 1584.6,1441.4 1558.3,1447.4 1532.0,1453.1 1505.6,1458.5 1479.1,1463.7 1452.6,1468.7 1426.0,1473.5 1399.5,1478.0 1372.9,1482.2 1346.3,1486.2 1319.7,1490.0 1293.1,1493.6 1266.5,1496.9 1239.9,1499.9 1213.4,1502.8 1186.9,1505.4 1160.5,1507.8 1134.1,1509.9 1107.9,1511.9 1081.7,1513.6 1055.5,1515.2 1029.5,1516.6 1003.6,1517.7 977.8,1518.8  A 522.500,522.500 0.00 0,1 977.5,1501.3 L 977.5,1501.3 1003.1,1501.1 1028.8,1500.8 1054.7,1500.2 1080.7,1499.4 1106.8,1498.3 1133.0,1497.1 1159.3,1495.5 1185.7,1493.7 1212.1,1491.7 1238.6,1489.3 1265.1,1486.7 1291.7,1483.9 1318.3,1480.7 1344.8,1477.2 1371.4,1473.5 1398.0,1469.4 1424.5,1465.1 1451.1,1460.5 1477.5,1455.6 1504.0,1450.4 1530.3,1444.9 1556.6,1439.1 1582.8,1433.1 1608.9,1426.7 1635.0,1420.1 1660.9,1413.3 1686.7,1406.1 1712.3,1398.7 1737.9,1391.1 1763.3,1383.2 1788.5,1375.1 1813.6,1366.8 1838.5,1358.2 1863.2,1349.5 1887.8,1340.6 1912.2,1331.5 1936.3,1322.2 1960.3,1312.8 1984.0,1303.2  Z" style="stroke-width: 0.5;  stroke: rgb(0,0,0); fill: rgb(179,177,178);" />
<path d="M 1870.291,1868.634 A 522.500,522.500 0.00 0,1 1860.1,1878.6 L 1860.1,1878.6 1844.5,1862.5 1828.4,1846.8 1811.8,1831.3 1794.7,1816.3 1777.1,1801.8 1759.2,1787.9 1740.8,1774.6 1722.1,1761.9 1703.0,1750.0 1683.6,1738.9 1663.8,1728.6 1643.8,1719.1 1623.5,1710.6 1603.0,1703.0 1582.2,1696.4 1561.3,1690.7 1540.2,1686.1 1518.9,1682.4 1497.6,1679.8 1476.1,1678.2 1454.6,1677.7 1433.1,1678.2 1411.5,1679.7 1390.0,1682.3 1368.5,1685.8 1347.1,1690.3 1325.8,1695.8 1304.6,1702.2 1283.5,1709.5 1262.7,1717.7 1242.1,1726.7 1221.7,1736.5 1201.6,1747.0 1181.8,1758.1 1162.3,1769.9 1143.2,1782.3 1124.5,1795.1 1106.3,1808.4 1088.5,1821.9  A 522.500,522.500 0.00 0,1 1079.8,1810.6 L 1079.8,1810.6 1098.1,1797.4 1116.8,1784.5 1136.0,1772.1 1155.6,1760.2 1175.5,1748.8 1195.7,1738.0 1216.3,1727.9 1237.2,1718.5 1258.2,1709.8 1279.5,1702.0 1301.0,1694.9 1322.7,1688.8 1344.5,1683.6 1366.3,1679.3 1388.3,1675.9 1410.3,1673.5 1432.3,1672.1 1454.3,1671.7 1476.3,1672.3 1498.2,1673.9 1520.1,1676.6 1541.8,1680.2 1563.4,1684.8 1584.8,1690.3 1606.0,1696.9 1627.0,1704.3 1647.8,1712.7 1668.3,1721.9 1688.6,1732.0 1708.5,1742.9 1728.1,1754.5 1747.3,1766.9 1766.2,1779.9 1784.7,1793.5 1802.7,1807.7 1820.3,1822.4 1837.5,1837.5 1854.1,1852.9 1870.3,1868.6  Z" style="stroke-width: 0.5;  stroke: rgb(0,0,0); fill: rgb(179,177,178);" />
<path d="M 1657.709,1998.131 A 522.500,522.500 0.00 0,1 1651.9,1999.9 L 1651.9,1999.9 1645.8,1980.4 1639.4,1961.1 1632.7,1942.1 1625.7,1923.5 1618.5,1905.5 1611.0,1888.2 1603.3,1871.6 1595.4,1855.9 1587.2,1841.2 1578.9,1827.6 1570.4,1815.1 1561.7,1803.7 1552.8,1793.6 1543.8,1784.8 1534.7,1777.4 1525.5,1771.4 1516.2,1766.7 1506.8,1763.5 1497.3,1761.8 1487.8,1761.5 1478.2,1762.7 1468.7,1765.4 1459.1,1769.5 1449.5,1775.0 1440.0,1781.9 1430.6,1790.1 1421.1,1799.7 1411.8,1810.5 1402.6,1822.6 1393.5,1835.7 1384.5,1849.9 1375.7,1865.1 1367.1,1881.2 1358.6,1898.1 1350.4,1915.7 1342.4,1933.8 1334.6,1952.4 1327.2,1971.4 1320.0,1990.5  A 522.500,522.500 0.00 0,1 1306.9,1985.5 L 1306.9,1985.5 1314.7,1966.5 1322.7,1947.8 1331.0,1929.3 1339.6,1911.4 1348.4,1894.0 1357.4,1877.3 1366.6,1861.4 1376.0,1846.4 1385.6,1832.3 1395.3,1819.3 1405.1,1807.5 1415.0,1796.8 1425.0,1787.4 1435.1,1779.3 1445.2,1772.5 1455.3,1767.1 1465.4,1763.1 1475.5,1760.6 1485.6,1759.5 1495.7,1759.9 1505.7,1761.7 1515.6,1764.9 1525.4,1769.6 1535.1,1775.7 1544.7,1783.2 1554.2,1792.0 1563.5,1802.1 1572.6,1813.5 1581.5,1826.0 1590.3,1839.7 1598.8,1854.4 1607.1,1870.0 1615.1,1886.5 1622.9,1903.8 1630.5,1921.8 1637.7,1940.4 1644.7,1959.3 1651.4,1978.6 1657.7,1998.1  Z" style="stroke-width: 0.5;  stroke: rgb(0,0,0); fill: rgb(179,177,178);" />
<path d="M 1695.397,1015.411 A 522.500,522.500 0.00 0,1 1707.1,1020.3 L 1707.1,1020.3 1698.0,1040.6 1688.4,1060.9 1678.2,1080.9 1667.4,1100.7 1656.0,1120.2 1644.1,1139.3 1631.5,1157.9 1618.4,1176.0 1604.7,1193.4 1590.4,1210.2 1575.6,1226.4 1560.1,1241.7 1544.2,1256.3 1527.7,1270.1 1510.7,1283.0 1493.1,1294.9 1475.1,1306.0 1456.6,1316.1 1437.7,1325.3 1418.3,1333.4 1398.6,1340.6 1378.4,1346.8 1357.9,1352.0 1337.1,1356.2 1316.0,1359.4 1294.6,1361.6 1273.1,1362.8 1251.3,1363.2 1229.4,1362.5 1207.4,1361.0 1185.3,1358.7 1163.2,1355.5 1141.1,1351.5 1119.1,1346.7 1097.2,1341.3 1075.5,1335.2 1054.0,1328.5 1032.8,1321.2 1011.9,1313.6  A 522.500,522.500 0.00 0,1 1016.6,1301.7 L 1016.6,1301.7 1037.2,1309.9 1058.1,1317.6 1079.3,1324.7 1100.7,1331.3 1122.3,1337.2 1144.0,1342.4 1165.7,1346.8 1187.5,1350.5 1209.3,1353.2 1231.0,1355.2 1252.5,1356.1 1274.0,1356.2 1295.2,1355.3 1316.2,1353.4 1336.9,1350.5 1357.4,1346.6 1377.5,1341.6 1397.2,1335.7 1416.6,1328.7 1435.5,1320.7 1454.0,1311.7 1472.1,1301.7 1489.7,1290.8 1506.7,1278.9 1523.3,1266.0 1539.3,1252.3 1554.8,1237.8 1569.7,1222.4 1584.0,1206.2 1597.8,1189.4 1611.0,1171.8 1623.6,1153.7 1635.6,1135.0 1647.0,1115.8 1657.9,1096.3 1668.1,1076.4 1677.8,1056.2 1686.9,1035.8 1695.4,1015.4  Z" style="stroke-width: 0.5;  stroke: rgb(0,0,0); fill: rgb(179,177,178);" />
</g>
<g id="plot0">
<g id="plot0-axis">
</g>
<line x1='2243.8' y1='1596.5' x2='2243.8' y2='1596.5' style="stroke-width:14.0;stroke:rgb(0,0,0);stroke-linecap:round;fill:none;" />
<line x1='2243.8' y1='1596.5' x2='2283.4' y2='1601.6' style="stroke-width:14.0;stroke:rgb(0,0,0);stroke-linecap:round;fill:none;" />
<line x1='2283.4' y1='1601.6' x2='2283.4' y2='1601.6' style="stroke-width:14.0;stroke:rgb(0,0,0);stroke-linecap:round;fill:none;" />
<text x="2300.1" y="1626.5" font-size="46.8px" font-family="CMUBright-Roman" style="text-anchor:start;fill:rgb(255,38,78);" transform="rotate(7.4,2300.1,1626.5)" >HistocapHCH143<tspan baseline-shift="-40%" font-size="90%">s</tspan>00856</text>
</g>
<defs>
<pattern id="checker" width="10" height="10" patternTransform="rotate(45 0 0)" patternUnits="userSpaceOnUse"><line x1="0" y1="0" x2="10" y2="0" style="stroke:black;stroke-width:5" /><line x1="0" y1="0" x2="0" y2="10" style="stroke:black;stroke-width:4" /></pattern>
<pattern id="checker" width="10" height="10" patternTransform="rotate(45 0 0)" patternUnits="userSpaceOnUse"><line x1="0" y1="0" x2="10" y2="0" style="stroke:black;stroke-width:2" /><line x1="0" y1="0" x2="0" y2="10" style="stroke:black;stroke-width:2" /></pattern>
<pattern id="vline" width="10" height="10" patternTransform="rotate(0 0 0)" patternUnits="userSpaceOnUse"><line x1="0" y1="0" x2="0" y2="10" style="stroke:black;stroke-width:5" /></pattern>
<pattern id="hline" width="10" height="10" patternTransform="rotate(0 0 0)" patternUnits="userSpaceOnUse"><line x1="0" y1="0" x2="10" y2="0" style="stroke:black;stroke-width:5" /></pattern>
<pattern id="hline-sparse" width="10" height="10" patternTransform="rotate(0 0 0)" patternUnits="userSpaceOnUse"><line x1="0" y1="0" x2="10" y2="0" style="stroke:black;stroke-width:2" /></pattern>
<pattern id="vline-sparse" width="10" height="10" patternTransform="rotate(0 0 0)" patternUnits="userSpaceOnUse"><line x1="0" y1="0" x2="0" y2="10" style="stroke:black;stroke-width:2" /></pattern>
</defs>
</svg>
