<?xml version="1.0" encoding="utf-8" standalone="no"?>
<!DOCTYPE svg PUBLIC "-//W3C//DTD SVG 1.1//EN" "http://www.w3.org/Graphics/SVG/1.1/DTD/svg11.dtd">
<svg width="3000px" height="3000px" version="1.1" xmlns="http://www.w3.org/2000/svg" xmlns:xlink="http://www.w3.org/1999/xlink">
<g id="bg">
<rect x="0" y="0" width="3000px" height="3000px" style="fill:rgb(255,255,255);"/>
</g>
<g id="ideograms">
<path d="M1500.000,950.000 A550.000,550.000 40.000 0,1 1679.955,2019.727 L1745.393,2208.719 A750.000,750.000 0.000 0,0 1500.000,750.000 Z" style="stroke-width:2.0;stroke:rgb(0,0,0);stroke-linecap:round;fill:rgb(179,177,178);" />
<text x="2461.5" y="1338.3" font-size="46.8px" font-family="CMUBright-Roman" style="text-anchor:middle;fill:rgb(0,0,0);" transform="rotate(440.5,2461.5,1338.3)" >HistocapCB192<tspan baseline-shift="-40%" font-size="90%">6</tspan></text>
<line x1='1588.5' y1='755.2' x2='1589.9' y2='743.3' style="stroke-width:8.0;stroke:rgb(150,150,150);stroke-linecap:round;fill:none;" />
<line x1='1686.9' y1='773.7' x2='1689.9' y2='762.0' style="stroke-width:8.0;stroke:rgb(150,150,150);stroke-linecap:round;fill:none;" />
<line x1='1782.0' y1='805.0' x2='1786.5' y2='793.9' style="stroke-width:8.0;stroke:rgb(150,150,150);stroke-linecap:round;fill:none;" />
<line x1='1872.0' y1='848.8' x2='1878.0' y2='838.4' style="stroke-width:8.0;stroke:rgb(150,150,150);stroke-linecap:round;fill:none;" />
<text x="1896.0" y="835.0" font-size="41.6px" font-family="CMUBright-Roman" style="text-anchor:start;fill:rgb(150,150,150);" transform="rotate(299.7,1896.0,835.0)" >4800 kb</text>
<line x1='1955.5' y1='904.1' x2='1962.7' y2='894.6' style="stroke-width:8.0;stroke:rgb(150,150,150);stroke-linecap:round;fill:none;" />
<line x1='2030.8' y1='970.1' x2='2039.3' y2='961.6' style="stroke-width:8.0;stroke:rgb(150,150,150);stroke-linecap:round;fill:none;" />
<line x1='2096.6' y1='1045.5' x2='2106.2' y2='1038.3' style="stroke-width:8.0;stroke:rgb(150,150,150);stroke-linecap:round;fill:none;" />
<line x1='2151.8' y1='1129.0' x2='2162.3' y2='1123.1' style="stroke-width:8.0;stroke:rgb(150,150,150);stroke-linecap:round;fill:none;" />
<line x1='2195.4' y1='1219.2' x2='2206.6' y2='1214.7' style="stroke-width:8.0;stroke:rgb(150,150,150);stroke-linecap:round;fill:none;" />
<text x="2222.8" y="1223.2" font-size="41.6px" font-family="CMUBright-Roman" style="text-anchor:start;fill:rgb(150,150,150);" transform="rotate(338.0,2222.8,1223.2)" >4850 kb</text>
<line x1='2226.7' y1='1314.3' x2='2238.3' y2='1311.3' style="stroke-width:8.0;stroke:rgb(150,150,150);stroke-linecap:round;fill:none;" />
<line x1='2244.9' y1='1412.8' x2='2256.8' y2='1411.4' style="stroke-width:8.0;stroke:rgb(150,150,150);stroke-linecap:round;fill:none;" />
<line x1='2249.9' y1='1512.8' x2='2261.9' y2='1513.0' style="stroke-width:8.0;stroke:rgb(150,150,150);stroke-linecap:round;fill:none;" />
<line x1='2241.5' y1='1612.5' x2='2253.4' y2='1614.3' style="stroke-width:8.0;stroke:rgb(150,150,150);stroke-linecap:round;fill:none;" />
<line x1='2219.9' y1='1710.3' x2='2231.4' y2='1713.7' style="stroke-width:8.0;stroke:rgb(150,150,150);stroke-linecap:round;fill:none;" />
<text x="2238.9" y="1730.4" font-size="41.6px" font-family="CMUBright-Roman" style="text-anchor:start;fill:rgb(150,150,150);" transform="rotate(16.3,2238.9,1730.4)" >4900 kb</text>
<line x1='2185.5' y1='1804.3' x2='2196.5' y2='1809.2' style="stroke-width:8.0;stroke:rgb(150,150,150);stroke-linecap:round;fill:none;" />
<line x1='2138.8' y1='1892.9' x2='2149.1' y2='1899.2' style="stroke-width:8.0;stroke:rgb(150,150,150);stroke-linecap:round;fill:none;" />
<line x1='2080.8' y1='1974.5' x2='2090.1' y2='1982.1' style="stroke-width:8.0;stroke:rgb(150,150,150);stroke-linecap:round;fill:none;" />
<line x1='2012.4' y1='2047.6' x2='2020.6' y2='2056.4' style="stroke-width:8.0;stroke:rgb(150,150,150);stroke-linecap:round;fill:none;" />
<line x1='1934.9' y1='2111.0' x2='1941.9' y2='2120.8' style="stroke-width:8.0;stroke:rgb(150,150,150);stroke-linecap:round;fill:none;" />
<text x="1937.4" y="2138.6" font-size="41.6px" font-family="CMUBright-Roman" style="text-anchor:start;fill:rgb(150,150,150);" transform="rotate(54.6,1937.4,2138.6)" >4950 kb</text>
<line x1='1849.7' y1='2163.5' x2='1855.2' y2='2174.1' style="stroke-width:8.0;stroke:rgb(150,150,150);stroke-linecap:round;fill:none;" />
<line x1='1758.2' y1='2204.2' x2='1762.3' y2='2215.4' style="stroke-width:8.0;stroke:rgb(150,150,150);stroke-linecap:round;fill:none;" />
<g id="highlighttrack_0">
<path d="M2034.908,1372.040 A550.000,550.000 40.000 0,1 2047.333,1445.900 L2246.363,1426.228 A750.000,750.000 0.000 0,0 2229.419,1325.509 Z" style="stroke-width:14.0;stroke:rgb(0,0,0);stroke-linecap:round;fill:rgb(255,38,78);" />
</g>
<path d="M1500.000,950.000 A550.000,550.000 40.000 0,1 1679.955,2019.727 L1745.393,2208.719 A750.000,750.000 0.000 0,0 1500.000,750.000 Z" style="stroke-width:2.0;stroke:rgb(0,0,0);stroke-linecap:round;fill:none;" />
<path d="M1462.921,2048.749 A550.000,550.000 40.000 0,1 1285.416,993.587 L1207.386,809.437 A750.000,750.000 0.000 0,0 1449.438,2248.294 Z" style="stroke-width:2.0;stroke:rgb(0,0,0);stroke-linecap:round;fill:rgb(179,177,178);" />
<text x="494.1" y="1669.2" font-size="46.8px" font-family="CMUBright-Roman" style="text-anchor:middle;fill:rgb(0,0,0);" transform="rotate(80.5,494.1,1669.2)" >HistomissSECH81<tspan baseline-shift="-40%" font-size="90%">6</tspan></text>
<line x1='1165.5' y1='828.7' x2='1160.2' y2='818.0' style="stroke-width:8.0;stroke:rgb(150,150,150);stroke-linecap:round;fill:none;" />
<line x1='1079.1' y1='879.3' x2='1072.3' y2='869.3' style="stroke-width:8.0;stroke:rgb(150,150,150);stroke-linecap:round;fill:none;" />
<line x1='1000.1' y1='940.9' x2='992.1' y2='931.9' style="stroke-width:8.0;stroke:rgb(150,150,150);stroke-linecap:round;fill:none;" />
<text x="973.8" y="932.4" font-size="41.6px" font-family="CMUBright-Roman" style="text-anchor:end;fill:rgb(150,150,150);" transform="rotate(48.2,973.8,932.4)" >4200 kb</text>
<line x1='930.1' y1='1012.4' x2='921.0' y2='1004.6' style="stroke-width:8.0;stroke:rgb(150,150,150);stroke-linecap:round;fill:none;" />
<line x1='870.2' y1='1092.7' x2='860.2' y2='1086.2' style="stroke-width:8.0;stroke:rgb(150,150,150);stroke-linecap:round;fill:none;" />
<line x1='821.6' y1='1180.2' x2='810.7' y2='1175.1' style="stroke-width:8.0;stroke:rgb(150,150,150);stroke-linecap:round;fill:none;" />
<line x1='785.0' y1='1273.4' x2='773.6' y2='1269.8' style="stroke-width:8.0;stroke:rgb(150,150,150);stroke-linecap:round;fill:none;" />
<line x1='761.2' y1='1370.7' x2='749.4' y2='1368.6' style="stroke-width:8.0;stroke:rgb(150,150,150);stroke-linecap:round;fill:none;" />
<text x="735.3" y="1380.3" font-size="41.6px" font-family="CMUBright-Roman" style="text-anchor:end;fill:rgb(150,150,150);" transform="rotate(9.9,735.3,1380.3)" >4250 kb</text>
<line x1='750.6' y1='1470.2' x2='738.6' y2='1469.7' style="stroke-width:8.0;stroke:rgb(150,150,150);stroke-linecap:round;fill:none;" />
<line x1='753.3' y1='1570.3' x2='741.4' y2='1571.4' style="stroke-width:8.0;stroke:rgb(150,150,150);stroke-linecap:round;fill:none;" />
<line x1='769.3' y1='1669.1' x2='757.6' y2='1671.8' style="stroke-width:8.0;stroke:rgb(150,150,150);stroke-linecap:round;fill:none;" />
<line x1='798.4' y1='1765.0' x2='787.1' y2='1769.2' style="stroke-width:8.0;stroke:rgb(150,150,150);stroke-linecap:round;fill:none;" />
<line x1='839.9' y1='1856.1' x2='829.3' y2='1861.8' style="stroke-width:8.0;stroke:rgb(150,150,150);stroke-linecap:round;fill:none;" />
<text x="825.5" y="1879.7" font-size="41.6px" font-family="CMUBright-Roman" style="text-anchor:end;fill:rgb(150,150,150);" transform="rotate(-28.3,825.5,1879.7)" >4300 kb</text>
<line x1='893.2' y1='1940.8' x2='883.5' y2='1947.9' style="stroke-width:8.0;stroke:rgb(150,150,150);stroke-linecap:round;fill:none;" />
<line x1='957.3' y1='2017.7' x2='948.7' y2='2026.0' style="stroke-width:8.0;stroke:rgb(150,150,150);stroke-linecap:round;fill:none;" />
<line x1='1031.1' y1='2085.4' x2='1023.6' y2='2094.7' style="stroke-width:8.0;stroke:rgb(150,150,150);stroke-linecap:round;fill:none;" />
<line x1='1113.3' y1='2142.6' x2='1107.1' y2='2152.9' style="stroke-width:8.0;stroke:rgb(150,150,150);stroke-linecap:round;fill:none;" />
<line x1='1202.3' y1='2188.4' x2='1197.6' y2='2199.4' style="stroke-width:8.0;stroke:rgb(150,150,150);stroke-linecap:round;fill:none;" />
<text x="1205.7" y="2215.9" font-size="41.6px" font-family="CMUBright-Roman" style="text-anchor:end;fill:rgb(150,150,150);" transform="rotate(-66.6,1205.7,2215.9)" >4350 kb</text>
<line x1='1296.7' y1='2221.9' x2='1293.4' y2='2233.5' style="stroke-width:8.0;stroke:rgb(150,150,150);stroke-linecap:round;fill:none;" />
<line x1='1394.6' y1='2242.6' x2='1393.0' y2='2254.4' style="stroke-width:8.0;stroke:rgb(150,150,150);stroke-linecap:round;fill:none;" />
<path d="M1462.921,2048.749 A550.000,550.000 40.000 0,1 1285.416,993.587 L1207.386,809.437 A750.000,750.000 0.000 0,0 1449.438,2248.294 Z" style="stroke-width:2.0;stroke:rgb(0,0,0);stroke-linecap:round;fill:none;" />
</g>
<g id="track_0">
<path d="M 1796.134,1930.478 A 522.500,522.500 0.00 0,1 1671.0,1993.7 L 1671.0,1993.7 1664.2,1974.7 1657.4,1955.8 1650.3,1937.3 1643.2,1919.2 1636.0,1901.7 1628.7,1884.9 1621.4,1868.9 1614.1,1853.8 1606.8,1839.7 1599.6,1826.8 1592.4,1814.9 1585.3,1804.3 1578.2,1795.0 1571.3,1787.1 1564.5,1780.5 1557.9,1775.4 1551.4,1771.7 1545.1,1769.5 1539.0,1768.8 1533.0,1769.6 1527.3,1771.9 1521.8,1775.6 1516.5,1780.9 1511.4,1787.6 1506.6,1795.7 1502.0,1805.2 1497.7,1816.0 1493.6,1828.1 1489.8,1841.4 1486.2,1855.9 1482.8,1871.4 1479.7,1887.8 1476.9,1905.2 1474.3,1923.3 1471.9,1942.1 1469.8,1961.4 1467.9,1981.1 1466.2,2001.1 1464.8,2021.3  A 522.500,522.500 0.00 0,1 1323.1,1991.6 L 1323.1,1991.6 1330.3,1972.1 1338.0,1952.7 1346.1,1933.6 1354.7,1914.9 1363.6,1896.8 1372.9,1879.3 1382.6,1862.4 1392.7,1846.5 1403.1,1831.4 1413.9,1817.2 1425.0,1804.1 1436.5,1792.1 1448.3,1781.3 1460.3,1771.6 1472.7,1763.3 1485.3,1756.2 1498.2,1750.4 1511.2,1745.9 1524.5,1742.8 1538.0,1741.1 1551.7,1740.7 1565.4,1741.7 1579.4,1744.0 1593.4,1747.7 1607.4,1752.6 1621.6,1758.9 1635.7,1766.4 1649.8,1775.1 1663.9,1784.9 1678.0,1795.8 1691.9,1807.8 1705.7,1820.7 1719.4,1834.5 1732.8,1849.0 1746.1,1864.3 1759.1,1880.2 1771.8,1896.6 1784.1,1913.4 1796.1,1930.5  Z" style="stroke-width: 0.5;  stroke: rgb(0,0,0); fill: rgb(179,177,178);" />
<path d="M 2019.966,1448.605 A 522.500,522.500 0.00 0,1 2009.0,1618.1 L 2009.0,1618.1 1985.0,1612.7 1960.8,1607.7 1936.3,1602.9 1911.6,1598.5 1886.6,1594.5 1861.4,1591.0 1836.1,1587.8 1810.6,1585.1 1785.0,1582.8 1759.2,1581.0 1733.3,1579.7 1707.4,1578.9 1681.4,1578.6 1655.3,1578.9 1629.2,1579.6 1603.1,1580.9 1577.0,1582.8 1551.0,1585.2 1525.0,1588.1 1499.0,1591.6 1473.2,1595.6 1447.4,1600.1 1421.8,1605.2 1396.2,1610.8 1370.9,1616.9 1345.7,1623.5 1320.6,1630.6 1295.8,1638.2 1271.2,1646.2 1246.8,1654.7 1222.6,1663.6 1198.7,1673.0 1175.1,1682.7 1151.8,1692.7 1128.8,1703.2 1106.0,1713.9 1083.6,1724.9 1061.6,1736.1 1039.9,1747.6  A 522.500,522.500 0.00 0,1 984.8,1587.0 L 984.8,1587.0 1011.0,1582.6 1037.3,1578.2 1063.6,1573.9 1089.9,1569.6 1116.2,1565.3 1142.6,1561.1 1169.0,1556.9 1195.5,1552.7 1222.0,1548.6 1248.5,1544.6 1275.0,1540.5 1301.5,1536.6 1328.1,1532.7 1354.7,1528.8 1381.3,1525.0 1407.9,1521.2 1434.5,1517.5 1461.1,1513.8 1487.8,1510.2 1514.5,1506.6 1541.1,1503.1 1567.8,1499.6 1594.5,1496.2 1621.1,1492.9 1647.8,1489.6 1674.5,1486.3 1701.1,1483.1 1727.8,1480.0 1754.4,1476.9 1781.1,1473.9 1807.7,1470.9 1834.3,1467.9 1860.9,1465.0 1887.4,1462.2 1914.0,1459.4 1940.5,1456.6 1967.0,1453.9 1993.5,1451.2 2020.0,1448.6  Z" style="stroke-width: 0.5;  stroke: rgb(0,0,0); fill: rgb(179,177,178);" />
<path d="M 1518.243,977.819 A 522.500,522.500 0.00 0,1 1649.8,999.4 L 1649.8,999.4 1643.6,1019.5 1636.9,1039.4 1629.7,1059.0 1622.1,1078.3 1614.0,1097.1 1605.5,1115.3 1596.4,1132.8 1587.0,1149.6 1577.1,1165.6 1566.7,1180.6 1555.9,1194.6 1544.6,1207.6 1533.0,1219.5 1520.9,1230.3 1508.5,1239.8 1495.6,1248.1 1482.4,1255.2 1468.9,1261.0 1455.0,1265.5 1440.8,1268.6 1426.4,1270.5 1411.7,1271.0 1396.7,1270.3 1381.5,1268.2 1366.2,1264.9 1350.7,1260.3 1335.1,1254.5 1319.4,1247.5 1303.6,1239.4 1287.8,1230.2 1272.1,1220.0 1256.4,1208.9 1240.7,1196.8 1225.3,1184.0 1209.9,1170.4 1194.8,1156.2 1180.0,1141.5 1165.5,1126.4 1151.3,1110.9  A 522.500,522.500 0.00 0,1 1261.1,1035.3 L 1261.1,1035.3 1270.5,1053.3 1280.1,1071.1 1289.8,1088.5 1299.7,1105.4 1309.6,1121.8 1319.6,1137.4 1329.5,1152.2 1339.5,1166.1 1349.3,1179.0 1359.0,1190.8 1368.7,1201.5 1378.1,1211.0 1387.4,1219.2 1396.4,1226.1 1405.3,1231.6 1413.8,1235.7 1422.2,1238.4 1430.2,1239.7 1437.9,1239.5 1445.3,1237.8 1452.3,1234.7 1459.0,1230.2 1465.4,1224.2 1471.4,1216.8 1477.0,1208.1 1482.3,1198.0 1487.2,1186.6 1491.7,1174.0 1495.9,1160.2 1499.6,1145.4 1503.1,1129.5 1506.1,1112.7 1508.8,1095.1 1511.2,1076.7 1513.2,1057.7 1514.9,1038.2 1516.3,1018.3 1517.4,998.1 1518.2,977.8  Z" style="stroke-width: 0.5;  stroke: rgb(0,0,0); fill: rgb(179,177,178);" />
<path d="M 1725.729,1028.775 A 522.500,522.500 0.00 0,1 1829.5,1094.5 L 1829.5,1094.5 1814.9,1112.0 1799.9,1129.2 1784.3,1146.2 1768.2,1162.9 1751.5,1179.2 1734.5,1195.0 1716.9,1210.2 1698.9,1224.9 1680.4,1238.9 1661.5,1252.3 1642.2,1265.0 1622.5,1276.9 1602.5,1288.0 1582.1,1298.3 1561.3,1307.7 1540.2,1316.2 1518.9,1323.9 1497.3,1330.7 1475.4,1336.5 1453.3,1341.4 1431.0,1345.3 1408.6,1348.3 1386.0,1350.4 1363.3,1351.5 1340.5,1351.7 1317.6,1351.0 1294.8,1349.4 1271.9,1346.9 1249.1,1343.6 1226.3,1339.4 1203.6,1334.5 1181.1,1328.8 1158.7,1322.4 1136.6,1315.2 1114.7,1307.5 1093.0,1299.2 1071.7,1290.4 1050.8,1281.0 1030.2,1271.3  A 522.500,522.500 0.00 0,1 1096.5,1168.0 L 1096.5,1168.0 1113.4,1181.5 1130.6,1194.7 1148.2,1207.4 1166.1,1219.5 1184.3,1231.0 1202.7,1241.8 1221.3,1251.8 1240.0,1261.0 1258.8,1269.3 1277.7,1276.6 1296.7,1283.0 1315.6,1288.3 1334.5,1292.5 1353.3,1295.6 1372.0,1297.6 1390.5,1298.4 1408.9,1298.1 1427.1,1296.5 1445.1,1293.8 1462.8,1289.9 1480.2,1284.8 1497.4,1278.5 1514.2,1271.1 1530.7,1262.5 1546.8,1252.8 1562.5,1242.0 1577.9,1230.3 1592.8,1217.5 1607.3,1203.7 1621.3,1189.1 1634.9,1173.6 1648.0,1157.4 1660.6,1140.5 1672.7,1122.9 1684.4,1104.8 1695.5,1086.3 1706.1,1067.3 1716.2,1048.1 1725.7,1028.8  Z" style="stroke-width: 0.5;  stroke: rgb(0,0,0); fill: rgb(179,177,178);" />
<path d="M 1917.006,1185.179 A 522.500,522.500 0.00 0,1 1971.5,1274.9 L 1971.5,1274.9 1948.6,1285.7 1925.4,1296.4 1902.0,1306.9 1878.3,1317.2 1854.4,1327.4 1830.3,1337.3 1805.9,1347.0 1781.4,1356.4 1756.6,1365.6 1731.7,1374.5 1706.6,1383.2 1681.4,1391.5 1656.0,1399.6 1630.4,1407.3 1604.7,1414.8 1578.9,1421.9 1553.0,1428.7 1526.9,1435.1 1500.8,1441.2 1474.6,1447.0 1448.3,1452.4 1422.0,1457.5 1395.6,1462.3 1369.2,1466.7 1342.7,1470.7 1316.3,1474.4 1289.8,1477.8 1263.4,1480.8 1237.0,1483.5 1210.6,1485.9 1184.3,1487.9 1158.1,1489.7 1132.0,1491.1 1105.9,1492.3 1079.9,1493.1 1054.1,1493.7 1028.4,1494.0 1002.9,1494.0 977.5,1493.9  A 522.500,522.500 0.00 0,1 989.3,1389.5 L 989.3,1389.5 1012.9,1394.4 1036.9,1399.0 1061.0,1403.1 1085.5,1406.8 1110.1,1410.1 1135.0,1412.9 1160.0,1415.2 1185.1,1416.9 1210.4,1418.2 1235.8,1418.8 1261.2,1418.9 1286.7,1418.4 1312.2,1417.3 1337.6,1415.5 1363.1,1413.2 1388.5,1410.2 1413.9,1406.6 1439.1,1402.3 1464.3,1397.5 1489.3,1391.9 1514.2,1385.8 1538.9,1379.0 1563.4,1371.7 1587.7,1363.7 1611.8,1355.1 1635.7,1346.0 1659.3,1336.3 1682.6,1326.1 1705.7,1315.3 1728.4,1304.1 1750.8,1292.4 1772.9,1280.2 1794.6,1267.6 1816.0,1254.6 1837.0,1241.3 1857.6,1227.7 1877.8,1213.7 1897.6,1199.6 1917.0,1185.2  Z" style="stroke-width: 0.5;  stroke: rgb(0,0,0); fill: rgb(179,177,178);" />
<path d="M 1849.970,1112.022 A 522.500,522.500 0.00 0,1 1917.4,1185.7 L 1917.4,1185.7 1898.0,1200.0 1878.2,1214.2 1857.9,1228.1 1837.3,1241.7 1816.3,1255.0 1794.9,1268.0 1773.2,1280.5 1751.1,1292.7 1728.6,1304.4 1705.9,1315.6 1682.8,1326.4 1659.5,1336.6 1635.9,1346.2 1612.0,1355.4 1587.9,1363.9 1563.6,1371.9 1539.0,1379.2 1514.3,1386.0 1489.4,1392.1 1464.4,1397.6 1439.2,1402.5 1413.9,1406.7 1388.6,1410.3 1363.2,1413.3 1337.7,1415.6 1312.2,1417.4 1286.7,1418.5 1261.2,1419.0 1235.8,1418.9 1210.4,1418.2 1185.2,1417.0 1160.0,1415.3 1135.0,1413.0 1110.1,1410.2 1085.5,1406.9 1061.0,1403.2 1036.8,1399.0 1012.9,1394.5 989.3,1389.6  A 522.500,522.500 0.00 0,1 1019.6,1294.5 L 1019.6,1294.5 1040.9,1303.3 1062.5,1311.7 1084.5,1319.7 1106.8,1327.1 1129.4,1334.0 1152.2,1340.3 1175.2,1345.9 1198.4,1350.8 1221.7,1355.1 1245.1,1358.5 1268.6,1361.2 1292.2,1363.1 1315.7,1364.2 1339.2,1364.4 1362.7,1363.8 1386.1,1362.3 1409.4,1359.9 1432.6,1356.6 1455.6,1352.5 1478.5,1347.5 1501.1,1341.6 1523.5,1334.8 1545.6,1327.2 1567.5,1318.8 1589.1,1309.5 1610.4,1299.4 1631.3,1288.6 1651.9,1277.0 1672.1,1264.7 1691.9,1251.7 1711.3,1238.1 1730.3,1223.9 1748.8,1209.2 1766.9,1193.9 1784.5,1178.2 1801.6,1162.1 1818.2,1145.7 1834.4,1128.9 1850.0,1112.0  Z" style="stroke-width: 0.5;  stroke: rgb(0,0,0); fill: rgb(179,177,178);" />
<path d="M 1500.000,977.500 A 522.500,522.500 0.00 0,1 1516.0,977.7 L 1516.0,977.7 1515.2,998.0 1514.2,1018.2 1512.9,1038.1 1511.3,1057.6 1509.4,1076.6 1507.2,1094.9 1504.6,1112.6 1501.7,1129.3 1498.4,1145.2 1494.8,1160.0 1490.8,1173.7 1486.4,1186.3 1481.7,1197.7 1476.6,1207.7 1471.1,1216.4 1465.2,1223.8 1459.1,1229.7 1452.5,1234.2 1445.6,1237.3 1438.4,1238.9 1430.9,1239.0 1423.1,1237.7 1414.9,1234.9 1406.6,1230.7 1397.9,1225.1 1389.0,1218.2 1380.0,1209.9 1370.7,1200.3 1361.3,1189.6 1351.7,1177.7 1342.1,1164.7 1332.3,1150.7 1322.6,1135.8 1312.8,1120.1 1303.0,1103.7 1293.4,1086.7 1283.8,1069.2 1274.4,1051.3 1265.1,1033.3  A 522.500,522.500 0.00 0,1 1296.1,1018.9 L 1296.1,1018.9 1304.1,1037.5 1312.3,1055.8 1320.5,1073.9 1328.8,1091.4 1337.2,1108.4 1345.6,1124.7 1354.0,1140.1 1362.3,1154.7 1370.5,1168.2 1378.6,1180.7 1386.6,1192.0 1394.4,1202.1 1402.0,1210.9 1409.5,1218.4 1416.7,1224.5 1423.7,1229.2 1430.4,1232.4 1436.8,1234.2 1443.0,1234.5 1448.9,1233.3 1454.4,1230.6 1459.7,1226.4 1464.6,1220.8 1469.2,1213.8 1473.5,1205.4 1477.4,1195.6 1481.0,1184.5 1484.3,1172.2 1487.2,1158.6 1489.8,1144.0 1492.1,1128.3 1494.1,1111.7 1495.7,1094.2 1497.1,1075.9 1498.2,1057.0 1499.0,1037.6 1499.6,1017.8 1499.9,997.7 1500.0,977.5  Z" style="stroke-width: 0.5;  stroke: rgb(0,0,0); fill: rgb(179,177,178);" />
<path d="M 2008.817,1618.791 A 522.500,522.500 0.00 0,1 1980.2,1705.9 L 1980.2,1705.9 1958.6,1696.8 1936.5,1688.1 1914.1,1679.9 1891.3,1672.1 1868.3,1664.8 1845.0,1658.0 1821.4,1651.8 1797.7,1646.2 1773.7,1641.2 1749.6,1637.0 1725.4,1633.3 1701.1,1630.5 1676.6,1628.3 1652.2,1626.9 1627.7,1626.2 1603.2,1626.3 1578.7,1627.2 1554.3,1628.9 1529.9,1631.3 1505.6,1634.6 1481.5,1638.6 1457.5,1643.4 1433.6,1649.0 1409.9,1655.3 1386.5,1662.4 1363.2,1670.2 1340.3,1678.7 1317.5,1687.9 1295.1,1697.7 1273.0,1708.2 1251.2,1719.2 1229.7,1730.9 1208.6,1743.1 1187.9,1755.7 1167.6,1768.8 1147.7,1782.3 1128.2,1796.2 1109.2,1810.3 1090.7,1824.7  A 522.500,522.500 0.00 0,1 1040.2,1748.2 L 1040.2,1748.2 1061.9,1736.7 1083.9,1725.5 1106.3,1714.4 1129.0,1703.7 1152.0,1693.3 1175.3,1683.2 1198.9,1673.4 1222.8,1664.1 1247.0,1655.1 1271.3,1646.6 1295.9,1638.6 1320.8,1631.0 1345.8,1623.9 1371.0,1617.2 1396.3,1611.1 1421.8,1605.5 1447.5,1600.4 1473.2,1595.9 1499.1,1591.9 1525.0,1588.4 1551.0,1585.5 1577.1,1583.1 1603.1,1581.3 1629.2,1580.0 1655.3,1579.2 1681.3,1579.0 1707.3,1579.3 1733.3,1580.1 1759.1,1581.4 1784.9,1583.2 1810.5,1585.5 1836.0,1588.3 1861.4,1591.5 1886.5,1595.1 1911.5,1599.1 1936.2,1603.5 1960.7,1608.3 1984.9,1613.4 2008.8,1618.8  Z" style="stroke-width: 0.5;  stroke: rgb(0,0,0); fill: rgb(179,177,178);" />
<path d="M 1652.813,1000.346 A 522.500,522.500 0.00 0,1 1725.1,1028.5 L 1725.1,1028.5 1715.6,1047.8 1705.5,1067.0 1694.9,1086.0 1683.8,1104.5 1672.3,1122.6 1660.2,1140.2 1647.6,1157.1 1634.5,1173.4 1621.0,1188.9 1606.9,1203.5 1592.5,1217.2 1577.6,1230.0 1562.3,1241.8 1546.6,1252.6 1530.5,1262.2 1514.1,1270.8 1497.3,1278.2 1480.2,1284.5 1462.8,1289.6 1445.1,1293.5 1427.1,1296.2 1409.0,1297.8 1390.6,1298.1 1372.1,1297.3 1353.4,1295.3 1334.6,1292.2 1315.8,1287.9 1296.9,1282.6 1278.0,1276.2 1259.1,1268.9 1240.3,1260.5 1221.6,1251.3 1203.1,1241.3 1184.7,1230.5 1166.6,1218.9 1148.7,1206.8 1131.1,1194.1 1113.9,1180.9 1097.1,1167.3  A 522.500,522.500 0.00 0,1 1150.8,1111.4 L 1150.8,1111.4 1165.0,1126.8 1179.5,1142.0 1194.4,1156.7 1209.5,1170.9 1224.9,1184.4 1240.4,1197.2 1256.1,1209.3 1271.9,1220.4 1287.7,1230.6 1303.5,1239.8 1319.4,1247.9 1335.1,1254.8 1350.8,1260.6 1366.4,1265.2 1381.8,1268.6 1397.0,1270.6 1412.1,1271.4 1426.9,1270.9 1441.4,1269.1 1455.7,1265.9 1469.7,1261.4 1483.3,1255.7 1496.6,1248.6 1509.6,1240.3 1522.2,1230.8 1534.4,1220.1 1546.1,1208.2 1557.5,1195.2 1568.4,1181.2 1578.9,1166.2 1589.0,1150.3 1598.6,1133.5 1607.7,1116.0 1616.4,1097.8 1624.6,1079.1 1632.3,1059.8 1639.6,1040.2 1646.5,1020.4 1652.8,1000.3  Z" style="stroke-width: 0.5;  stroke: rgb(0,0,0); fill: rgb(179,177,178);" />
<path d="M 1976.317,1285.225 A 522.500,522.500 0.00 0,1 1994.9,1332.4 L 1994.9,1332.4 1970.2,1340.7 1945.4,1348.9 1920.4,1357.0 1895.3,1365.0 1870.1,1372.8 1844.8,1380.6 1819.3,1388.2 1793.8,1395.7 1768.1,1403.1 1742.4,1410.3 1716.5,1417.4 1690.6,1424.3 1664.6,1431.0 1638.5,1437.6 1612.3,1444.0 1586.1,1450.2 1559.8,1456.3 1533.5,1462.1 1507.1,1467.8 1480.6,1473.4 1454.2,1478.7 1427.7,1483.8 1401.2,1488.8 1374.6,1493.6 1348.1,1498.2 1321.6,1502.6 1295.0,1506.8 1268.5,1510.9 1242.0,1514.7 1215.5,1518.4 1189.0,1521.9 1162.6,1525.3 1136.2,1528.5 1109.9,1531.5 1083.7,1534.3 1057.5,1537.0 1031.4,1539.6 1005.3,1542.0 979.4,1544.3  A 522.500,522.500 0.00 0,1 977.5,1494.6 L 977.5,1494.6 1003.0,1494.7 1028.6,1494.6 1054.3,1494.3 1080.2,1493.8 1106.2,1492.9 1132.3,1491.8 1158.5,1490.4 1184.8,1488.8 1211.2,1486.8 1237.6,1484.5 1264.0,1481.9 1290.5,1479.0 1317.0,1475.8 1343.5,1472.3 1370.0,1468.4 1396.5,1464.2 1422.9,1459.7 1449.4,1454.8 1475.7,1449.6 1502.0,1444.1 1528.2,1438.3 1554.4,1432.1 1580.4,1425.6 1606.4,1418.9 1632.2,1411.8 1657.9,1404.4 1683.5,1396.7 1708.9,1388.7 1734.1,1380.4 1759.2,1371.9 1784.2,1363.1 1808.9,1354.1 1833.5,1344.9 1857.8,1335.4 1882.0,1325.7 1905.9,1315.8 1929.6,1305.8 1953.1,1295.6 1976.3,1285.2  Z" style="stroke-width: 0.5;  stroke: rgb(0,0,0); fill: rgb(179,177,178);" />
<path d="M 1996.816,1338.197 A 522.500,522.500 0.00 0,1 2008.2,1378.4 L 2008.2,1378.4 1982.3,1384.6 1956.4,1390.7 1930.5,1396.8 1904.5,1402.9 1878.5,1408.9 1852.5,1415.0 1826.4,1420.9 1800.3,1426.8 1774.1,1432.7 1748.0,1438.6 1721.8,1444.4 1695.6,1450.1 1669.3,1455.8 1643.1,1461.5 1616.8,1467.1 1590.5,1472.6 1564.2,1478.1 1537.8,1483.6 1511.5,1489.0 1485.1,1494.4 1458.8,1499.7 1432.4,1504.9 1406.0,1510.1 1379.6,1515.3 1353.2,1520.3 1326.9,1525.4 1300.5,1530.4 1274.1,1535.3 1247.7,1540.2 1221.3,1545.0 1195.0,1549.8 1168.6,1554.5 1142.3,1559.2 1116.0,1563.8 1089.7,1568.4 1063.4,1573.0 1037.1,1577.5 1010.9,1581.9 984.7,1586.3  A 522.500,522.500 0.00 0,1 979.5,1545.4 L 979.5,1545.4 1005.5,1543.0 1031.5,1540.6 1057.7,1538.0 1083.9,1535.3 1110.2,1532.4 1136.5,1529.3 1162.9,1526.2 1189.3,1522.8 1215.8,1519.3 1242.3,1515.7 1268.8,1511.8 1295.4,1507.8 1321.9,1503.6 1348.5,1499.3 1375.0,1494.8 1401.6,1490.1 1428.1,1485.2 1454.6,1480.2 1481.1,1475.0 1507.6,1469.6 1534.0,1464.0 1560.4,1458.3 1586.7,1452.4 1613.0,1446.3 1639.2,1440.1 1665.3,1433.7 1691.4,1427.2 1717.4,1420.5 1743.3,1413.6 1769.1,1406.6 1794.9,1399.5 1820.5,1392.3 1846.0,1384.9 1871.5,1377.4 1896.8,1369.7 1922.0,1362.0 1947.0,1354.2 1972.0,1346.2 1996.8,1338.2  Z" style="stroke-width: 0.5;  stroke: rgb(0,0,0); fill: rgb(179,177,178);" />
<path d="M 1979.149,1708.380 A 522.500,522.500 0.00 0,1 1962.9,1742.4 L 1962.9,1742.4 1942.3,1732.0 1921.4,1721.9 1900.0,1712.2 1878.4,1703.0 1856.4,1694.3 1834.1,1686.3 1811.5,1678.8 1788.8,1672.0 1765.8,1665.9 1742.7,1660.6 1719.4,1656.0 1696.0,1652.2 1672.6,1649.2 1649.1,1647.1 1625.5,1645.8 1602.0,1645.3 1578.5,1645.8 1555.0,1647.1 1531.7,1649.3 1508.4,1652.4 1485.3,1656.4 1462.3,1661.2 1439.5,1666.9 1416.9,1673.5 1394.5,1680.9 1372.4,1689.1 1350.5,1698.1 1328.9,1707.9 1307.7,1718.4 1286.7,1729.6 1266.1,1741.4 1245.9,1753.9 1226.1,1767.0 1206.7,1780.6 1187.7,1794.7 1169.2,1809.2 1151.1,1824.1 1133.5,1839.4 1116.5,1854.8  A 522.500,522.500 0.00 0,1 1091.8,1826.2 L 1091.8,1826.2 1110.3,1811.7 1129.3,1797.5 1148.6,1783.6 1168.5,1770.1 1188.7,1756.9 1209.4,1744.2 1230.4,1732.0 1251.8,1720.4 1273.6,1709.3 1295.6,1698.8 1318.0,1688.9 1340.7,1679.7 1363.6,1671.2 1386.8,1663.4 1410.2,1656.3 1433.8,1650.0 1457.6,1644.4 1481.6,1639.6 1505.7,1635.6 1529.9,1632.4 1554.2,1630.0 1578.6,1628.3 1603.0,1627.5 1627.5,1627.4 1651.9,1628.2 1676.3,1629.6 1700.7,1631.9 1725.0,1634.8 1749.2,1638.5 1773.2,1642.9 1797.1,1647.9 1820.8,1653.6 1844.3,1659.9 1867.5,1666.8 1890.5,1674.2 1913.2,1682.1 1935.6,1690.5 1957.5,1699.2 1979.1,1708.4  Z" style="stroke-width: 0.5;  stroke: rgb(0,0,0); fill: rgb(179,177,178);" />
<path d="M 1912.334,1820.915 A 522.500,522.500 0.00 0,1 1889.1,1848.8 L 1889.1,1848.8 1872.6,1834.4 1855.7,1820.3 1838.4,1806.7 1820.7,1793.6 1802.7,1781.1 1784.4,1769.3 1765.8,1758.1 1747.0,1747.8 1727.9,1738.4 1708.7,1729.8 1689.4,1722.2 1669.9,1715.6 1650.4,1710.0 1630.8,1705.5 1611.2,1702.1 1591.6,1699.8 1572.1,1698.6 1552.6,1698.5 1533.2,1699.7 1514.0,1701.9 1494.9,1705.3 1476.0,1709.9 1457.2,1715.6 1438.7,1722.4 1420.5,1730.2 1402.5,1739.2 1384.8,1749.1 1367.4,1760.1 1350.3,1772.0 1333.6,1784.8 1317.3,1798.4 1301.4,1812.8 1285.9,1827.9 1270.8,1843.7 1256.2,1860.0 1242.0,1876.9 1228.3,1894.1 1215.1,1911.7 1202.5,1929.5  A 522.500,522.500 0.00 0,1 1173.4,1907.8 L 1173.4,1907.8 1187.5,1890.7 1202.1,1873.8 1217.2,1857.2 1232.8,1841.0 1248.8,1825.3 1265.3,1810.2 1282.3,1795.7 1299.6,1781.9 1317.4,1768.8 1335.5,1756.5 1353.9,1745.0 1372.7,1734.5 1391.9,1724.8 1411.2,1716.2 1430.9,1708.5 1450.8,1701.8 1470.9,1696.2 1491.2,1691.6 1511.7,1688.1 1532.3,1685.7 1553.0,1684.4 1573.8,1684.1 1594.7,1684.9 1615.6,1686.8 1636.5,1689.7 1657.4,1693.6 1678.2,1698.5 1698.9,1704.5 1719.6,1711.3 1740.0,1719.1 1760.3,1727.7 1780.4,1737.1 1800.3,1747.3 1819.8,1758.2 1839.1,1769.7 1858.0,1781.8 1876.5,1794.4 1894.7,1807.5 1912.3,1820.9  Z" style="stroke-width: 0.5;  stroke: rgb(0,0,0); fill: rgb(179,177,178);" />
<path d="M 1839.342,1897.307 A 522.500,522.500 0.00 0,1 1814.5,1917.3 L 1814.5,1917.3 1801.6,1900.6 1788.2,1884.1 1774.6,1868.1 1760.5,1852.5 1746.2,1837.6 1731.6,1823.4 1716.8,1809.9 1701.7,1797.3 1686.5,1785.6 1671.1,1774.9 1655.6,1765.2 1640.0,1756.7 1624.3,1749.3 1608.6,1743.1 1592.9,1738.2 1577.2,1734.5 1561.6,1732.1 1546.0,1731.0 1530.5,1731.2 1515.1,1732.7 1499.9,1735.5 1484.8,1739.6 1470.0,1745.0 1455.3,1751.7 1440.8,1759.6 1426.6,1768.8 1412.7,1779.1 1399.1,1790.5 1385.7,1802.9 1372.7,1816.4 1360.1,1830.9 1347.8,1846.2 1335.8,1862.3 1324.3,1879.1 1313.1,1896.5 1302.4,1914.5 1292.1,1932.9 1282.3,1951.6 1272.9,1970.5  A 522.500,522.500 0.00 0,1 1244.6,1955.8 L 1244.6,1955.8 1255.2,1937.3 1266.4,1919.0 1278.0,1901.0 1290.0,1883.5 1302.5,1866.5 1315.4,1850.1 1328.8,1834.3 1342.5,1819.4 1356.6,1805.3 1371.0,1792.1 1385.8,1779.9 1400.9,1768.8 1416.2,1758.7 1431.9,1749.7 1447.8,1741.9 1463.9,1735.3 1480.2,1729.9 1496.7,1725.7 1513.4,1722.8 1530.2,1721.1 1547.2,1720.8 1564.2,1721.6 1581.2,1723.7 1598.4,1727.1 1615.5,1731.7 1632.6,1737.4 1649.6,1744.3 1666.6,1752.3 1683.4,1761.4 1700.2,1771.5 1716.7,1782.6 1733.1,1794.6 1749.2,1807.4 1765.1,1821.0 1780.7,1835.2 1795.9,1850.1 1810.8,1865.5 1825.3,1881.2 1839.3,1897.3  Z" style="stroke-width: 0.5;  stroke: rgb(0,0,0); fill: rgb(179,177,178);" />
<path d="M 1948.633,1767.833 A 522.500,522.500 0.00 0,1 1931.6,1794.4 L 1931.6,1794.4 1912.9,1782.0 1893.7,1769.9 1874.1,1758.2 1854.2,1747.1 1833.9,1736.5 1813.3,1726.5 1792.4,1717.2 1771.3,1708.7 1750.0,1700.9 1728.4,1693.9 1706.8,1687.8 1685.0,1682.6 1663.1,1678.3 1641.2,1674.9 1619.3,1672.5 1597.3,1671.1 1575.4,1670.7 1553.5,1671.2 1531.7,1672.8 1510.0,1675.4 1488.5,1679.0 1467.1,1683.6 1445.9,1689.2 1424.9,1695.8 1404.1,1703.3 1383.6,1711.8 1363.4,1721.1 1343.4,1731.3 1323.8,1742.4 1304.6,1754.3 1285.7,1766.9 1267.2,1780.2 1249.1,1794.1 1231.4,1808.7 1214.2,1823.8 1197.4,1839.3 1181.2,1855.3 1165.4,1871.5 1150.1,1888.1  A 522.500,522.500 0.00 0,1 1127.3,1866.2 L 1127.3,1866.2 1143.8,1850.4 1160.7,1834.9 1178.2,1819.6 1196.1,1804.8 1214.5,1790.4 1233.3,1776.5 1252.5,1763.2 1272.1,1750.5 1292.1,1738.5 1312.5,1727.2 1333.1,1716.6 1354.1,1706.8 1375.4,1697.8 1397.0,1689.6 1418.8,1682.3 1440.8,1675.9 1463.0,1670.4 1485.4,1665.8 1507.9,1662.2 1530.6,1659.5 1553.4,1657.7 1576.2,1656.9 1599.1,1657.0 1622.0,1658.0 1644.9,1659.9 1667.8,1662.7 1690.6,1666.5 1713.3,1671.0 1735.9,1676.4 1758.3,1682.6 1780.6,1689.6 1802.7,1697.3 1824.5,1705.7 1846.0,1714.8 1867.3,1724.4 1888.2,1734.6 1908.8,1745.3 1928.9,1756.4 1948.6,1767.8  Z" style="stroke-width: 0.5;  stroke: rgb(0,0,0); fill: rgb(179,177,178);" />
<path d="M 1930.693,1795.820 A 522.500,522.500 0.00 0,1 1917.1,1814.7 L 1917.1,1814.7 1899.2,1801.5 1880.8,1788.7 1862.0,1776.3 1842.9,1764.4 1823.4,1753.1 1803.6,1742.4 1783.5,1732.5 1763.1,1723.3 1742.6,1714.9 1721.9,1707.3 1701.0,1700.6 1680.0,1694.9 1659.0,1690.1 1637.9,1686.4 1616.7,1683.6 1595.6,1681.9 1574.5,1681.2 1553.5,1681.5 1532.5,1683.0 1511.7,1685.5 1491.0,1689.0 1470.4,1693.7 1450.1,1699.3 1430.0,1706.0 1410.1,1713.7 1390.4,1722.3 1371.1,1731.9 1352.1,1742.5 1333.4,1753.9 1315.0,1766.1 1297.1,1779.1 1279.5,1792.9 1262.3,1807.3 1245.6,1822.3 1229.3,1837.9 1213.5,1854.0 1198.2,1870.5 1183.4,1887.3 1169.1,1904.3  A 522.500,522.500 0.00 0,1 1151.4,1889.2 L 1151.4,1889.2 1166.6,1872.6 1182.3,1856.3 1198.5,1840.3 1215.2,1824.8 1232.4,1809.6 1250.0,1795.0 1268.0,1781.1 1286.4,1767.7 1305.3,1755.1 1324.5,1743.2 1344.0,1732.1 1363.9,1721.9 1384.1,1712.5 1404.5,1704.0 1425.2,1696.5 1446.2,1689.9 1467.3,1684.3 1488.6,1679.7 1510.1,1676.1 1531.8,1673.5 1553.5,1671.9 1575.3,1671.4 1597.2,1671.8 1619.1,1673.3 1641.0,1675.7 1662.9,1679.1 1684.7,1683.4 1706.4,1688.7 1728.0,1694.8 1749.5,1701.8 1770.8,1709.7 1791.8,1718.3 1812.7,1727.6 1833.2,1737.6 1853.5,1748.3 1873.4,1759.5 1892.9,1771.2 1912.0,1783.3 1930.7,1795.8  Z" style="stroke-width: 0.5;  stroke: rgb(0,0,0); fill: rgb(179,177,178);" />
<path d="M 1857.634,1880.925 A 522.500,522.500 0.00 0,1 1841.0,1895.9 L 1841.0,1895.9 1826.8,1879.9 1812.3,1864.2 1797.3,1848.8 1782.0,1834.0 1766.3,1819.8 1750.4,1806.3 1734.2,1793.5 1717.8,1781.6 1701.1,1770.6 1684.3,1760.5 1667.4,1751.5 1650.4,1743.5 1633.2,1736.7 1616.1,1731.0 1598.9,1726.4 1581.7,1723.1 1564.6,1721.0 1547.5,1720.2 1530.5,1720.6 1513.7,1722.3 1496.9,1725.3 1480.3,1729.4 1464.0,1734.9 1447.8,1741.5 1431.8,1749.3 1416.1,1758.3 1400.7,1768.4 1385.6,1779.6 1370.8,1791.8 1356.3,1805.0 1342.2,1819.1 1328.4,1834.0 1315.0,1849.7 1302.1,1866.1 1289.5,1883.2 1277.4,1900.7 1265.8,1918.7 1254.6,1937.0 1243.9,1955.5  A 522.500,522.500 0.00 0,1 1224.7,1944.1 L 1224.7,1944.1 1236.3,1925.9 1248.3,1908.0 1260.9,1890.3 1273.9,1873.1 1287.4,1856.4 1301.3,1840.4 1315.6,1825.0 1330.3,1810.3 1345.4,1796.5 1360.8,1783.6 1376.6,1771.6 1392.7,1760.6 1409.1,1750.6 1425.8,1741.8 1442.7,1734.1 1459.8,1727.5 1477.2,1722.1 1494.7,1717.9 1512.4,1714.9 1530.3,1713.1 1548.2,1712.5 1566.2,1713.2 1584.3,1715.0 1602.4,1718.1 1620.6,1722.3 1638.7,1727.7 1656.7,1734.2 1674.6,1741.8 1692.5,1750.5 1710.2,1760.1 1727.7,1770.7 1745.0,1782.1 1762.1,1794.4 1778.9,1807.4 1795.4,1821.1 1811.5,1835.4 1827.3,1850.2 1842.7,1865.4 1857.6,1880.9  Z" style="stroke-width: 0.5;  stroke: rgb(0,0,0); fill: rgb(179,177,178);" />
<path d="M 1813.491,1918.007 A 522.500,522.500 0.00 0,1 1797.2,1929.8 L 1797.2,1929.8 1785.1,1912.7 1772.7,1895.9 1760.0,1879.6 1746.9,1863.7 1733.6,1848.4 1720.1,1833.9 1706.4,1820.1 1692.5,1807.2 1678.5,1795.3 1664.4,1784.4 1650.3,1774.6 1636.1,1765.9 1621.9,1758.4 1607.7,1752.2 1593.5,1747.2 1579.4,1743.6 1565.5,1741.3 1551.6,1740.3 1537.9,1740.7 1524.3,1742.4 1511.0,1745.5 1497.8,1750.0 1484.9,1755.8 1472.2,1762.9 1459.8,1771.2 1447.6,1780.9 1435.8,1791.7 1424.2,1803.7 1413.0,1816.8 1402.1,1830.9 1391.6,1846.0 1381.5,1862.0 1371.7,1878.8 1362.3,1896.3 1353.3,1914.4 1344.7,1933.1 1336.5,1952.1 1328.7,1971.5 1321.4,1991.0  A 522.500,522.500 0.00 0,1 1302.7,1983.8 L 1302.7,1983.8 1310.8,1964.4 1319.4,1945.3 1328.4,1926.4 1337.9,1907.9 1347.8,1890.0 1358.1,1872.6 1368.7,1856.0 1379.8,1840.2 1391.3,1825.3 1403.1,1811.3 1415.3,1798.3 1427.8,1786.4 1440.6,1775.6 1453.7,1766.0 1467.1,1757.7 1480.8,1750.5 1494.7,1744.7 1508.8,1740.2 1523.1,1737.0 1537.7,1735.1 1552.3,1734.6 1567.2,1735.4 1582.1,1737.5 1597.1,1740.9 1612.2,1745.6 1627.3,1751.6 1642.4,1758.7 1657.6,1767.1 1672.6,1776.5 1687.6,1787.1 1702.5,1798.6 1717.2,1811.1 1731.7,1824.5 1746.1,1838.7 1760.2,1853.5 1774.0,1869.0 1787.5,1885.0 1800.7,1901.3 1813.5,1918.0  Z" style="stroke-width: 0.5;  stroke: rgb(0,0,0); fill: rgb(179,177,178);" />
<path d="M 1837.310,1100.966 A 522.500,522.500 0.00 0,1 1849.4,1111.6 L 1849.4,1111.6 1833.9,1128.5 1817.8,1145.2 1801.2,1161.7 1784.1,1177.8 1766.5,1193.5 1748.5,1208.8 1730.0,1223.5 1711.0,1237.7 1691.6,1251.3 1671.8,1264.3 1651.7,1276.6 1631.1,1288.2 1610.2,1299.0 1589.0,1309.1 1567.4,1318.4 1545.6,1326.8 1523.4,1334.4 1501.1,1341.1 1478.5,1347.0 1455.7,1352.0 1432.7,1356.1 1409.5,1359.3 1386.2,1361.7 1362.9,1363.1 1339.4,1363.7 1315.9,1363.5 1292.4,1362.3 1268.9,1360.4 1245.4,1357.7 1222.0,1354.1 1198.7,1349.9 1175.6,1344.9 1152.6,1339.2 1129.8,1332.9 1107.3,1325.9 1085.0,1318.4 1063.1,1310.4 1041.5,1301.9 1020.2,1293.0  A 522.500,522.500 0.00 0,1 1026.8,1278.3 L 1026.8,1278.3 1047.6,1287.8 1068.8,1296.9 1090.3,1305.4 1112.2,1313.5 1134.3,1321.0 1156.7,1327.8 1179.3,1334.0 1202.0,1339.5 1224.9,1344.3 1247.9,1348.2 1271.0,1351.4 1294.1,1353.7 1317.2,1355.2 1340.3,1355.7 1363.3,1355.4 1386.3,1354.2 1409.1,1352.1 1431.8,1349.0 1454.4,1345.1 1476.7,1340.2 1498.9,1334.4 1520.8,1327.6 1542.4,1320.0 1563.8,1311.6 1584.9,1302.2 1605.6,1292.0 1626.0,1281.1 1646.0,1269.3 1665.6,1256.8 1684.9,1243.6 1703.7,1229.7 1722.1,1215.2 1740.0,1200.2 1757.5,1184.6 1774.4,1168.5 1790.9,1152.1 1806.9,1135.3 1822.4,1118.2 1837.3,1101.0  Z" style="stroke-width: 0.5;  stroke: rgb(0,0,0); fill: rgb(179,177,178);" />
<path d="M 1870.465,1868.459 A 522.500,522.500 0.00 0,1 1861.1,1877.6 L 1861.1,1877.6 1846.0,1862.2 1830.5,1847.1 1814.5,1832.5 1798.2,1818.3 1781.6,1804.7 1764.6,1791.8 1747.4,1779.7 1729.9,1768.4 1712.2,1757.9 1694.4,1748.4 1676.4,1739.9 1658.3,1732.4 1640.1,1726.0 1621.9,1720.7 1603.6,1716.6 1585.4,1713.6 1567.1,1711.8 1549.0,1711.3 1530.9,1711.9 1512.9,1713.8 1495.1,1716.8 1477.5,1721.1 1460.0,1726.5 1442.7,1733.2 1425.7,1740.9 1408.9,1749.8 1392.4,1759.8 1376.2,1770.8 1360.3,1782.8 1344.8,1795.8 1329.6,1809.6 1314.9,1824.2 1300.5,1839.6 1286.5,1855.7 1272.9,1872.4 1259.9,1889.6 1247.2,1907.2 1235.1,1925.2 1223.5,1943.3  A 522.500,522.500 0.00 0,1 1212.5,1936.3 L 1212.5,1936.3 1224.6,1918.3 1237.3,1900.6 1250.4,1883.2 1264.0,1866.2 1278.1,1849.7 1292.6,1833.9 1307.6,1818.6 1322.9,1804.2 1338.6,1790.5 1354.7,1777.7 1371.1,1765.9 1387.9,1755.0 1404.9,1745.1 1422.2,1736.3 1439.8,1728.6 1457.6,1722.0 1475.6,1716.5 1493.8,1712.3 1512.2,1709.2 1530.7,1707.3 1549.3,1706.6 1568.0,1707.0 1586.8,1708.7 1605.6,1711.5 1624.3,1715.5 1643.1,1720.6 1661.8,1726.7 1680.4,1734.0 1698.9,1742.3 1717.3,1751.5 1735.4,1761.7 1753.4,1772.7 1771.1,1784.5 1788.6,1797.1 1805.7,1810.4 1822.5,1824.2 1838.9,1838.6 1854.9,1853.4 1870.5,1868.5  Z" style="stroke-width: 0.5;  stroke: rgb(0,0,0); fill: rgb(179,177,178);" />
<path d="M 1961.257,1745.456 A 522.500,522.500 0.00 0,1 1955.2,1756.5 L 1955.2,1756.5 1935.1,1745.5 1914.7,1734.8 1893.8,1724.6 1872.5,1714.9 1851.0,1705.7 1829.1,1697.2 1807.0,1689.2 1784.7,1682.0 1762.1,1675.5 1739.4,1669.7 1716.5,1664.7 1693.6,1660.5 1670.5,1657.2 1647.4,1654.8 1624.3,1653.2 1601.2,1652.6 1578.1,1652.8 1555.1,1654.0 1532.1,1656.0 1509.3,1659.0 1486.6,1663.0 1464.0,1667.8 1441.7,1673.5 1419.5,1680.1 1397.6,1687.6 1375.9,1696.0 1354.5,1705.1 1333.4,1715.1 1312.6,1725.8 1292.1,1737.2 1272.0,1749.4 1252.3,1762.1 1233.0,1775.5 1214.1,1789.5 1195.7,1803.9 1177.6,1818.8 1160.1,1834.0 1143.1,1849.6 1126.5,1865.4  A 522.500,522.500 0.00 0,1 1117.8,1856.3 L 1117.8,1856.3 1134.9,1840.8 1152.4,1825.5 1170.3,1810.6 1188.8,1796.0 1207.7,1781.9 1227.0,1768.2 1246.8,1755.1 1266.9,1742.6 1287.4,1730.7 1308.3,1719.5 1329.5,1709.0 1351.0,1699.2 1372.8,1690.2 1394.8,1682.0 1417.1,1674.6 1439.7,1668.0 1462.4,1662.4 1485.3,1657.5 1508.4,1653.6 1531.6,1650.6 1554.9,1648.4 1578.3,1647.1 1601.7,1646.7 1625.2,1647.2 1648.6,1648.6 1672.1,1650.8 1695.4,1653.9 1718.7,1657.8 1741.9,1662.5 1765.0,1667.9 1787.9,1674.1 1810.6,1681.0 1833.0,1688.6 1855.2,1696.8 1877.1,1705.5 1898.7,1714.9 1920.0,1724.6 1940.8,1734.9 1961.3,1745.5  Z" style="stroke-width: 0.5;  stroke: rgb(0,0,0); fill: rgb(179,177,178);" />
<path d="M 1830.010,1094.908 A 522.500,522.500 0.00 0,1 1836.8,1100.5 L 1836.8,1100.5 1821.9,1117.8 1806.4,1134.9 1790.5,1151.7 1774.0,1168.2 1757.0,1184.2 1739.6,1199.8 1721.7,1214.9 1703.3,1229.4 1684.5,1243.3 1665.3,1256.5 1645.7,1269.1 1625.7,1280.8 1605.3,1291.8 1584.6,1302.0 1563.6,1311.4 1542.2,1319.9 1520.6,1327.5 1498.7,1334.2 1476.6,1340.1 1454.2,1345.0 1431.7,1349.0 1409.0,1352.0 1386.2,1354.2 1363.2,1355.4 1340.2,1355.7 1317.1,1355.2 1294.0,1353.7 1270.9,1351.4 1247.8,1348.3 1224.9,1344.3 1202.0,1339.6 1179.2,1334.1 1156.6,1327.9 1134.3,1321.0 1112.1,1313.6 1090.3,1305.5 1068.8,1296.9 1047.6,1287.9 1026.8,1278.5  A 522.500,522.500 0.00 0,1 1030.6,1270.5 L 1030.6,1270.5 1051.1,1280.3 1072.1,1289.6 1093.4,1298.5 1115.0,1306.9 1136.9,1314.6 1159.0,1321.8 1181.4,1328.2 1203.9,1334.0 1226.6,1339.0 1249.3,1343.2 1272.1,1346.5 1295.0,1349.0 1317.9,1350.7 1340.7,1351.4 1363.5,1351.3 1386.2,1350.2 1408.8,1348.1 1431.3,1345.2 1453.5,1341.3 1475.6,1336.4 1497.5,1330.6 1519.1,1323.9 1540.5,1316.3 1561.6,1307.8 1582.3,1298.4 1602.8,1288.1 1622.8,1277.0 1642.5,1265.2 1661.9,1252.5 1680.8,1239.2 1699.2,1225.2 1717.3,1210.5 1734.9,1195.3 1752.0,1179.5 1768.6,1163.3 1784.7,1146.6 1800.4,1129.6 1815.4,1112.4 1830.0,1094.9  Z" style="stroke-width: 0.5;  stroke: rgb(0,0,0); fill: rgb(179,177,178);" />
</g>
<g id="plot0">
<g id="plot0-axis">
</g>
<line x1='2243.4' y1='1599.6' x2='2243.4' y2='1599.6' style="stroke-width:14.0;stroke:rgb(0,0,0);stroke-linecap:round;fill:none;" />
<line x1='2243.4' y1='1599.6' x2='2283.0' y2='1605.0' style="stroke-width:14.0;stroke:rgb(0,0,0);stroke-linecap:round;fill:none;" />
<line x1='2283.0' y1='1605.0' x2='2283.0' y2='1605.0' style="stroke-width:14.0;stroke:rgb(0,0,0);stroke-linecap:round;fill:none;" />
<text x="2299.5" y="1629.9" font-size="46.8px" font-family="CMUBright-Roman" style="text-anchor:start;fill:rgb(255,38,78);" transform="rotate(7.6,2299.5,1629.9)" >HistocapCB192<tspan baseline-shift="-40%" font-size="90%">s</tspan>00618</text>
</g>
<defs>
<pattern id="hline-sparse" width="10" height="10" patternTransform="rotate(0 0 0)" patternUnits="userSpaceOnUse"><line x1="0" y1="0" x2="10" y2="0" style="stroke:black;stroke-width:2" /></pattern>
<pattern id="vline-sparse" width="10" height="10" patternTransform="rotate(0 0 0)" patternUnits="userSpaceOnUse"><line x1="0" y1="0" x2="0" y2="10" style="stroke:black;stroke-width:2" /></pattern>
<pattern id="hline" width="10" height="10" patternTransform="rotate(0 0 0)" patternUnits="userSpaceOnUse"><line x1="0" y1="0" x2="10" y2="0" style="stroke:black;stroke-width:5" /></pattern>
<pattern id="checker" width="10" height="10" patternTransform="rotate(45 0 0)" patternUnits="userSpaceOnUse"><line x1="0" y1="0" x2="10" y2="0" style="stroke:black;stroke-width:5" /><line x1="0" y1="0" x2="0" y2="10" style="stroke:black;stroke-width:4" /></pattern>
<pattern id="vline" width="10" height="10" patternTransform="rotate(0 0 0)" patternUnits="userSpaceOnUse"><line x1="0" y1="0" x2="0" y2="10" style="stroke:black;stroke-width:5" /></pattern>
<pattern id="checker" width="10" height="10" patternTransform="rotate(45 0 0)" patternUnits="userSpaceOnUse"><line x1="0" y1="0" x2="10" y2="0" style="stroke:black;stroke-width:2" /><line x1="0" y1="0" x2="0" y2="10" style="stroke:black;stroke-width:2" /></pattern>
</defs>
</svg>
