<?xml version="1.0" encoding="utf-8" standalone="no"?>
<!DOCTYPE svg PUBLIC "-//W3C//DTD SVG 1.1//EN" "http://www.w3.org/Graphics/SVG/1.1/DTD/svg11.dtd">
<svg width="3000px" height="3000px" version="1.1" xmlns="http://www.w3.org/2000/svg" xmlns:xlink="http://www.w3.org/1999/xlink">
<g id="bg">
<rect x="0" y="0" width="3000px" height="3000px" style="fill:rgb(255,255,255);"/>
</g>
<g id="ideograms">
<path d="M1500.000,950.000 A550.000,550.000 40.000 1,1 1186.576,1951.958 L1072.604,2116.306 A750.000,750.000 0.000 1,0 1500.000,750.000 Z" style="stroke-width:2.0;stroke:rgb(0,0,0);stroke-linecap:round;fill:rgb(179,177,178);" />
<text x="2472.5" y="1804.2" font-size="46.8px" font-family="CMUBright-Roman" style="text-anchor:middle;fill:rgb(0,0,0);" transform="rotate(-72.6,2472.5,1804.2)" >Histocap327P12<tspan baseline-shift="-40%" font-size="90%">2</tspan></text>
<line x1='1533.9' y1='750.8' x2='1534.5' y2='738.8' style="stroke-width:8.0;stroke:rgb(150,150,150);stroke-linecap:round;fill:none;" />
<line x1='1666.0' y1='768.6' x2='1668.7' y2='756.9' style="stroke-width:8.0;stroke:rgb(150,150,150);stroke-linecap:round;fill:none;" />
<line x1='1792.9' y1='809.6' x2='1797.6' y2='798.5' style="stroke-width:8.0;stroke:rgb(150,150,150);stroke-linecap:round;fill:none;" />
<text x="1815.1" y="793.0" font-size="41.6px" font-family="CMUBright-Roman" style="text-anchor:start;fill:rgb(150,150,150);" transform="rotate(293.0,1815.1,793.0)" >3350 kb</text>
<line x1='1910.5' y1='872.3' x2='1917.1' y2='862.3' style="stroke-width:8.0;stroke:rgb(150,150,150);stroke-linecap:round;fill:none;" />
<line x1='2015.2' y1='954.9' x2='2023.4' y2='946.2' style="stroke-width:8.0;stroke:rgb(150,150,150);stroke-linecap:round;fill:none;" />
<line x1='2103.5' y1='1054.7' x2='2113.2' y2='1047.6' style="stroke-width:8.0;stroke:rgb(150,150,150);stroke-linecap:round;fill:none;" />
<line x1='2172.8' y1='1168.6' x2='2183.6' y2='1163.3' style="stroke-width:8.0;stroke:rgb(150,150,150);stroke-linecap:round;fill:none;" />
<line x1='2220.9' y1='1293.0' x2='2232.4' y2='1289.7' style="stroke-width:8.0;stroke:rgb(150,150,150);stroke-linecap:round;fill:none;" />
<text x="2247.7" y="1299.9" font-size="41.6px" font-family="CMUBright-Roman" style="text-anchor:start;fill:rgb(150,150,150);" transform="rotate(344.0,2247.7,1299.9)" >3400 kb</text>
<line x1='2246.1' y1='1423.9' x2='2258.1' y2='1422.7' style="stroke-width:8.0;stroke:rgb(150,150,150);stroke-linecap:round;fill:none;" />
<line x1='2247.8' y1='1557.2' x2='2259.8' y2='1558.1' style="stroke-width:8.0;stroke:rgb(150,150,150);stroke-linecap:round;fill:none;" />
<line x1='2225.9' y1='1688.7' x2='2237.5' y2='1691.7' style="stroke-width:8.0;stroke:rgb(150,150,150);stroke-linecap:round;fill:none;" />
<line x1='2181.0' y1='1814.2' x2='2191.9' y2='1819.3' style="stroke-width:8.0;stroke:rgb(150,150,150);stroke-linecap:round;fill:none;" />
<line x1='2114.6' y1='1929.8' x2='2124.4' y2='1936.7' style="stroke-width:8.0;stroke:rgb(150,150,150);stroke-linecap:round;fill:none;" />
<text x="2126.1" y="1955.0" font-size="41.6px" font-family="CMUBright-Roman" style="text-anchor:start;fill:rgb(150,150,150);" transform="rotate(35.0,2126.1,1955.0)" >3450 kb</text>
<line x1='2028.8' y1='2031.9' x2='2037.3' y2='2040.4' style="stroke-width:8.0;stroke:rgb(150,150,150);stroke-linecap:round;fill:none;" />
<line x1='1926.3' y1='2117.1' x2='1933.1' y2='2127.0' style="stroke-width:8.0;stroke:rgb(150,150,150);stroke-linecap:round;fill:none;" />
<line x1='1810.3' y1='2182.8' x2='1815.3' y2='2193.7' style="stroke-width:8.0;stroke:rgb(150,150,150);stroke-linecap:round;fill:none;" />
<line x1='1684.5' y1='2227.0' x2='1687.4' y2='2238.6' style="stroke-width:8.0;stroke:rgb(150,150,150);stroke-linecap:round;fill:none;" />
<line x1='1552.9' y1='2248.1' x2='1553.7' y2='2260.1' style="stroke-width:8.0;stroke:rgb(150,150,150);stroke-linecap:round;fill:none;" />
<text x="1540.6" y="2272.9" font-size="41.6px" font-family="CMUBright-Roman" style="text-anchor:start;fill:rgb(150,150,150);" transform="rotate(86.0,1540.6,2272.9)" >3500 kb</text>
<line x1='1419.6' y1='2245.7' x2='1418.3' y2='2257.6' style="stroke-width:8.0;stroke:rgb(150,150,150);stroke-linecap:round;fill:none;" />
<line x1='1288.8' y1='2219.7' x2='1285.4' y2='2231.2' style="stroke-width:8.0;stroke:rgb(150,150,150);stroke-linecap:round;fill:none;" />
<line x1='1164.7' y1='2170.9' x2='1159.4' y2='2181.6' style="stroke-width:8.0;stroke:rgb(150,150,150);stroke-linecap:round;fill:none;" />
<g id="highlighttrack_0">
<path d="M2038.021,1614.165 A550.000,550.000 40.000 0,1 2007.172,1712.783 L2191.598,1790.159 A750.000,750.000 0.000 0,0 2233.665,1655.679 Z" style="stroke-width:14.0;stroke:rgb(0,0,0);stroke-linecap:round;fill:rgb(255,38,78);" />
</g>
<path d="M1500.000,950.000 A550.000,550.000 40.000 1,1 1186.576,1951.958 L1072.604,2116.306 A750.000,750.000 0.000 1,0 1500.000,750.000 Z" style="stroke-width:2.0;stroke:rgb(0,0,0);stroke-linecap:round;fill:none;" />
<path d="M1000.182,1729.525 A550.000,550.000 40.000 0,1 1220.077,1026.563 L1118.286,854.404 A750.000,750.000 0.000 0,0 818.430,1812.989 Z" style="stroke-width:2.0;stroke:rgb(0,0,0);stroke-linecap:round;fill:rgb(179,177,178);" />
<text x="569.5" y="1208.9" font-size="46.8px" font-family="CMUBright-Roman" style="text-anchor:middle;fill:rgb(0,0,0);" transform="rotate(-72.6,569.5,1208.9)" >HistocapHISSPB05821<tspan baseline-shift="-40%" font-size="90%">4</tspan>0</text>
<line x1='1010.0' y1='932.2' x2='1002.2' y2='923.1' style="stroke-width:8.0;stroke:rgb(150,150,150);stroke-linecap:round;fill:none;" />
<line x1='917.2' y1='1027.9' x2='907.9' y2='1020.3' style="stroke-width:8.0;stroke:rgb(150,150,150);stroke-linecap:round;fill:none;" />
<line x1='842.9' y1='1138.5' x2='832.3' y2='1132.8' style="stroke-width:8.0;stroke:rgb(150,150,150);stroke-linecap:round;fill:none;" />
<line x1='789.2' y1='1260.6' x2='777.9' y2='1256.8' style="stroke-width:8.0;stroke:rgb(150,150,150);stroke-linecap:round;fill:none;" />
<line x1='758.1' y1='1390.2' x2='746.2' y2='1388.5' style="stroke-width:8.0;stroke:rgb(150,150,150);stroke-linecap:round;fill:none;" />
<text x="732.4" y="1400.6" font-size="41.6px" font-family="CMUBright-Roman" style="text-anchor:end;fill:rgb(150,150,150);" transform="rotate(8.4,732.4,1400.6)" >50 kb</text>
<line x1='750.4' y1='1523.3' x2='738.4' y2='1523.7' style="stroke-width:8.0;stroke:rgb(150,150,150);stroke-linecap:round;fill:none;" />
<line x1='766.3' y1='1655.7' x2='754.6' y2='1658.2' style="stroke-width:8.0;stroke:rgb(150,150,150);stroke-linecap:round;fill:none;" />
<line x1='805.5' y1='1783.1' x2='794.4' y2='1787.6' style="stroke-width:8.0;stroke:rgb(150,150,150);stroke-linecap:round;fill:none;" />
<path d="M1000.182,1729.525 A550.000,550.000 40.000 0,1 1220.077,1026.563 L1118.286,854.404 A750.000,750.000 0.000 0,0 818.430,1812.989 Z" style="stroke-width:2.0;stroke:rgb(0,0,0);stroke-linecap:round;fill:none;" />
</g>
<g id="track_0">
<path d="M 1917.807,1813.757 A 522.500,522.500 0.00 0,1 1853.8,1884.5 L 1853.8,1884.5 1838.1,1867.7 1821.8,1851.2 1805.1,1835.0 1787.8,1819.1 1770.1,1803.6 1751.9,1788.6 1733.2,1774.1 1714.1,1760.2 1694.6,1746.8 1674.7,1734.1 1654.5,1722.2 1633.8,1710.9 1612.8,1700.4 1591.5,1690.7 1569.9,1681.8 1548.0,1673.7 1525.8,1666.5 1503.4,1660.1 1480.8,1654.7 1458.0,1650.1 1435.0,1646.4 1411.9,1643.6 1388.7,1641.7 1365.3,1640.7 1342.0,1640.5 1318.5,1641.3 1295.1,1642.8 1271.7,1645.3 1248.4,1648.5 1225.1,1652.5 1202.0,1657.3 1179.0,1662.7 1156.2,1668.9 1133.6,1675.7 1111.3,1683.2 1089.2,1691.1 1067.5,1699.6 1046.1,1708.6 1025.1,1717.9  A 522.500,522.500 0.00 0,1 993.3,1627.4 L 993.3,1627.4 1016.6,1621.7 1040.3,1616.4 1064.2,1611.5 1088.5,1607.0 1112.9,1603.0 1137.6,1599.5 1162.4,1596.5 1187.4,1594.0 1212.5,1592.1 1237.7,1590.8 1263.0,1590.0 1288.4,1589.9 1313.7,1590.4 1339.1,1591.5 1364.5,1593.3 1389.9,1595.7 1415.1,1598.8 1440.3,1602.5 1465.5,1606.9 1490.4,1611.9 1515.3,1617.6 1540.0,1623.9 1564.5,1630.9 1588.7,1638.5 1612.8,1646.7 1636.7,1655.5 1660.3,1664.9 1683.6,1674.8 1706.6,1685.3 1729.4,1696.3 1751.8,1707.8 1773.8,1719.8 1795.6,1732.2 1816.9,1745.0 1837.9,1758.1 1858.5,1771.6 1878.7,1785.4 1898.5,1799.5 1917.8,1813.8  Z" style="stroke-width: 0.5;  stroke: rgb(0,0,0); fill: rgb(179,177,178);" />
<path d="M 2021.030,1539.167 A 522.500,522.500 0.00 0,1 2011.3,1607.5 L 2011.3,1607.5 1985.6,1602.1 1959.8,1596.8 1933.9,1591.6 1907.9,1586.5 1881.8,1581.4 1855.7,1576.5 1829.5,1571.6 1803.2,1566.9 1776.8,1562.2 1750.4,1557.7 1724.0,1553.2 1697.5,1548.9 1670.9,1544.7 1644.3,1540.6 1617.7,1536.6 1591.0,1532.7 1564.3,1529.0 1537.6,1525.4 1510.8,1521.9 1484.1,1518.5 1457.3,1515.3 1430.5,1512.2 1403.7,1509.2 1376.9,1506.4 1350.1,1503.6 1323.3,1501.0 1296.6,1498.6 1269.8,1496.2 1243.1,1494.0 1216.4,1491.8 1189.7,1489.9 1163.1,1488.0 1136.5,1486.2 1109.9,1484.5 1083.4,1483.0 1056.9,1481.5 1030.6,1480.2 1004.2,1478.9 978.0,1477.8  A 522.500,522.500 0.00 0,1 985.8,1407.1 L 985.8,1407.1 1011.9,1411.8 1038.0,1416.4 1064.2,1421.0 1090.4,1425.5 1116.7,1430.0 1143.0,1434.4 1169.3,1438.8 1195.7,1443.1 1222.2,1447.3 1248.7,1451.4 1275.2,1455.5 1301.7,1459.6 1328.3,1463.5 1354.9,1467.4 1381.5,1471.2 1408.2,1474.9 1434.9,1478.5 1461.6,1482.1 1488.3,1485.6 1515.0,1489.0 1541.7,1492.3 1568.4,1495.6 1595.2,1498.8 1621.9,1501.8 1648.6,1504.9 1675.4,1507.8 1702.1,1510.6 1728.8,1513.4 1755.5,1516.1 1782.2,1518.7 1808.8,1521.3 1835.5,1523.8 1862.1,1526.2 1888.6,1528.5 1915.2,1530.8 1941.7,1533.0 1968.2,1535.1 1994.6,1537.2 2021.0,1539.2  Z" style="stroke-width: 0.5;  stroke: rgb(0,0,0); fill: rgb(179,177,178);" />
<path d="M 1954.654,1242.520 A 522.500,522.500 0.00 0,1 1983.7,1302.3 L 1983.7,1302.3 1961.8,1311.0 1939.6,1319.3 1917.0,1327.2 1894.2,1334.6 1871.0,1341.6 1847.6,1348.0 1823.9,1353.8 1800.0,1359.0 1776.0,1363.5 1751.8,1367.5 1727.5,1370.7 1703.1,1373.2 1678.6,1375.0 1654.1,1376.0 1629.6,1376.3 1605.0,1375.8 1580.5,1374.5 1556.1,1372.5 1531.8,1369.7 1507.5,1366.1 1483.4,1361.7 1459.4,1356.5 1435.6,1350.6 1412.0,1344.0 1388.6,1336.6 1365.5,1328.4 1342.6,1319.6 1320.0,1310.1 1297.6,1300.0 1275.6,1289.2 1253.9,1277.8 1232.6,1265.9 1211.7,1253.5 1191.1,1240.5 1170.9,1227.2 1151.2,1213.4 1131.9,1199.3 1113.1,1184.9 1094.7,1170.3  A 522.500,522.500 0.00 0,1 1140.0,1121.3 L 1140.0,1121.3 1155.9,1137.6 1172.3,1153.7 1189.2,1169.5 1206.6,1184.9 1224.4,1199.9 1242.7,1214.3 1261.5,1228.3 1280.6,1241.6 1300.2,1254.2 1320.1,1266.2 1340.3,1277.4 1361.0,1287.8 1381.9,1297.5 1403.1,1306.2 1424.6,1314.2 1446.3,1321.2 1468.3,1327.4 1490.4,1332.6 1512.8,1336.9 1535.3,1340.2 1557.9,1342.6 1580.6,1344.1 1603.4,1344.6 1626.3,1344.2 1649.1,1342.9 1672.0,1340.6 1694.8,1337.5 1717.6,1333.5 1740.2,1328.7 1762.8,1323.1 1785.1,1316.6 1807.3,1309.5 1829.3,1301.6 1851.0,1293.1 1872.5,1284.0 1893.6,1274.3 1914.3,1264.1 1934.7,1253.5 1954.7,1242.5  Z" style="stroke-width: 0.5;  stroke: rgb(0,0,0); fill: rgb(179,177,178);" />
<path d="M 1924.060,1194.747 A 522.500,522.500 0.00 0,1 1953.5,1240.5 L 1953.5,1240.5 1933.6,1251.6 1913.3,1262.3 1892.6,1272.5 1871.6,1282.3 1850.2,1291.5 1828.5,1300.1 1806.6,1308.0 1784.5,1315.3 1762.1,1321.7 1739.7,1327.4 1717.1,1332.3 1694.4,1336.4 1671.6,1339.6 1648.8,1341.9 1626.0,1343.2 1603.2,1343.7 1580.4,1343.2 1557.7,1341.8 1535.2,1339.4 1512.7,1336.1 1490.4,1331.9 1468.3,1326.7 1446.4,1320.6 1424.7,1313.5 1403.3,1305.6 1382.1,1296.8 1361.2,1287.2 1340.6,1276.8 1320.4,1265.6 1300.5,1253.6 1281.1,1240.9 1261.9,1227.6 1243.3,1213.7 1225.0,1199.2 1207.2,1184.2 1189.9,1168.8 1173.0,1153.0 1156.7,1136.9 1140.8,1120.5  A 522.500,522.500 0.00 0,1 1182.2,1085.3 L 1182.2,1085.3 1195.9,1102.8 1210.1,1120.0 1224.9,1137.0 1240.2,1153.5 1255.9,1169.6 1272.2,1185.1 1288.8,1200.0 1305.9,1214.3 1323.4,1227.9 1341.4,1240.6 1359.6,1252.6 1378.3,1263.6 1397.3,1273.8 1416.5,1283.0 1436.1,1291.2 1456.0,1298.4 1476.1,1304.7 1496.4,1309.8 1516.9,1313.9 1537.6,1317.0 1558.4,1319.0 1579.3,1319.9 1600.4,1319.7 1621.4,1318.6 1642.6,1316.3 1663.7,1313.1 1684.8,1308.8 1705.8,1303.6 1726.8,1297.5 1747.6,1290.4 1768.3,1282.5 1788.8,1273.8 1809.1,1264.3 1829.1,1254.1 1848.8,1243.3 1868.2,1231.9 1887.2,1219.9 1905.9,1207.5 1924.1,1194.7  Z" style="stroke-width: 0.5;  stroke: rgb(0,0,0); fill: rgb(179,177,178);" />
<path d="M 1998.498,1343.455 A 522.500,522.500 0.00 0,1 2011.2,1391.9 L 2011.2,1391.9 1987.1,1396.8 1962.8,1401.4 1938.2,1405.7 1913.3,1409.6 1888.3,1413.1 1863.0,1416.2 1837.6,1418.9 1812.0,1421.2 1786.3,1423.0 1760.5,1424.3 1734.6,1425.2 1708.6,1425.5 1682.6,1425.3 1656.5,1424.6 1630.4,1423.4 1604.3,1421.7 1578.3,1419.4 1552.2,1416.6 1526.2,1413.3 1500.3,1409.4 1474.5,1405.0 1448.8,1400.0 1423.2,1394.6 1397.7,1388.6 1372.4,1382.1 1347.3,1375.1 1322.4,1367.6 1297.6,1359.7 1273.1,1351.3 1248.8,1342.5 1224.7,1333.2 1200.9,1323.6 1177.4,1313.5 1154.2,1303.2 1131.3,1292.5 1108.7,1281.4 1086.4,1270.1 1064.5,1258.6 1042.9,1246.9  A 522.500,522.500 0.00 0,1 1069.8,1203.5 L 1069.8,1203.5 1089.6,1217.0 1109.9,1230.2 1130.6,1243.1 1151.7,1255.7 1173.2,1267.9 1195.0,1279.8 1217.2,1291.2 1239.7,1302.2 1262.6,1312.7 1285.7,1322.6 1309.1,1332.0 1332.8,1340.9 1356.7,1349.2 1380.9,1356.8 1405.2,1363.9 1429.8,1370.3 1454.5,1376.1 1479.4,1381.2 1504.4,1385.6 1529.5,1389.4 1554.7,1392.5 1580.0,1395.0 1605.3,1396.7 1630.7,1397.9 1656.0,1398.3 1681.4,1398.1 1706.7,1397.2 1731.9,1395.7 1757.1,1393.6 1782.1,1390.9 1807.0,1387.6 1831.8,1383.8 1856.3,1379.4 1880.7,1374.5 1904.8,1369.2 1928.7,1363.3 1952.3,1357.1 1975.6,1350.4 1998.5,1343.5  Z" style="stroke-width: 0.5;  stroke: rgb(0,0,0); fill: rgb(179,177,178);" />
<path d="M 2018.664,1436.799 A 522.500,522.500 0.00 0,1 2022.3,1484.6 L 2022.3,1484.6 1996.4,1485.3 1970.4,1485.8 1944.3,1486.2 1918.1,1486.4 1891.8,1486.4 1865.4,1486.2 1838.9,1485.8 1812.4,1485.3 1785.8,1484.5 1759.1,1483.5 1732.4,1482.3 1705.6,1480.9 1678.8,1479.3 1652.0,1477.4 1625.2,1475.4 1598.3,1473.1 1571.5,1470.5 1544.6,1467.8 1517.8,1464.8 1491.0,1461.6 1464.2,1458.2 1437.5,1454.5 1410.8,1450.6 1384.2,1446.5 1357.6,1442.2 1331.1,1437.6 1304.7,1432.9 1278.4,1427.9 1252.1,1422.7 1226.0,1417.4 1199.9,1411.8 1174.0,1406.1 1148.2,1400.2 1122.5,1394.1 1096.9,1387.9 1071.5,1381.5 1046.3,1375.0 1021.1,1368.3 996.2,1361.6  A 522.500,522.500 0.00 0,1 1011.2,1315.5 L 1011.2,1315.5 1034.9,1324.3 1058.8,1332.9 1083.0,1341.4 1107.4,1349.6 1132.1,1357.6 1156.9,1365.4 1182.0,1372.9 1207.2,1380.1 1232.6,1387.0 1258.2,1393.7 1283.9,1400.0 1309.8,1406.0 1335.8,1411.7 1361.9,1417.0 1388.1,1422.0 1414.5,1426.7 1440.9,1430.9 1467.4,1434.9 1493.9,1438.4 1520.5,1441.6 1547.2,1444.5 1573.8,1447.0 1600.5,1449.1 1627.2,1450.8 1653.9,1452.2 1680.5,1453.2 1707.1,1453.8 1733.7,1454.1 1760.2,1454.1 1786.6,1453.7 1812.9,1453.0 1839.1,1452.0 1865.2,1450.7 1891.2,1449.0 1917.1,1447.1 1942.7,1444.9 1968.2,1442.4 1993.5,1439.7 2018.7,1436.8  Z" style="stroke-width: 0.5;  stroke: rgb(0,0,0); fill: rgb(179,177,178);" />
<path d="M 2022.311,1485.936 A 522.500,522.500 0.00 0,1 2021.5,1531.6 L 2021.5,1531.6 1995.2,1530.0 1968.7,1528.3 1942.3,1526.5 1915.8,1524.7 1889.2,1522.8 1862.6,1520.8 1836.0,1518.7 1809.3,1516.5 1782.7,1514.3 1756.0,1512.0 1729.2,1509.6 1702.5,1507.1 1675.7,1504.5 1649.0,1501.8 1622.2,1499.0 1595.4,1496.1 1568.7,1493.2 1541.9,1490.1 1515.1,1487.0 1488.4,1483.8 1461.6,1480.5 1434.9,1477.0 1408.2,1473.5 1381.5,1469.9 1354.9,1466.3 1328.2,1462.5 1301.6,1458.6 1275.1,1454.7 1248.6,1450.7 1222.1,1446.6 1195.6,1442.4 1169.2,1438.2 1142.9,1433.9 1116.6,1429.5 1090.3,1425.0 1064.1,1420.5 1038.0,1415.9 1011.9,1411.3 985.9,1406.6  A 522.500,522.500 0.00 0,1 996.0,1362.0 L 996.0,1362.0 1021.0,1368.8 1046.2,1375.4 1071.4,1381.9 1096.9,1388.3 1122.4,1394.5 1148.1,1400.6 1174.0,1406.5 1199.9,1412.2 1226.0,1417.7 1252.1,1423.1 1278.4,1428.2 1304.7,1433.2 1331.1,1438.0 1357.6,1442.5 1384.2,1446.9 1410.8,1451.0 1437.5,1454.9 1464.2,1458.6 1491.0,1462.0 1517.8,1465.3 1544.6,1468.3 1571.4,1471.1 1598.3,1473.6 1625.1,1475.9 1652.0,1478.1 1678.8,1479.9 1705.6,1481.6 1732.3,1483.1 1759.1,1484.3 1785.7,1485.3 1812.4,1486.1 1838.9,1486.8 1865.4,1487.2 1891.8,1487.4 1918.1,1487.5 1944.3,1487.3 1970.4,1487.0 1996.4,1486.6 2022.3,1485.9  Z" style="stroke-width: 0.5;  stroke: rgb(0,0,0); fill: rgb(179,177,178);" />
<path d="M 1984.025,1303.211 A 522.500,522.500 0.00 0,1 1998.2,1342.5 L 1998.2,1342.5 1975.3,1349.5 1952.0,1356.2 1928.4,1362.5 1904.6,1368.3 1880.5,1373.8 1856.1,1378.7 1831.6,1383.1 1806.8,1387.0 1781.9,1390.3 1756.9,1393.1 1731.8,1395.2 1706.5,1396.7 1681.3,1397.6 1655.9,1397.9 1630.6,1397.4 1605.2,1396.4 1579.9,1394.6 1554.6,1392.2 1529.4,1389.1 1504.3,1385.4 1479.3,1380.9 1454.5,1375.8 1429.7,1370.1 1405.2,1363.7 1380.8,1356.7 1356.7,1349.0 1332.8,1340.7 1309.1,1331.9 1285.7,1322.5 1262.6,1312.5 1239.7,1302.1 1217.2,1291.1 1195.0,1279.7 1173.2,1267.8 1151.7,1255.6 1130.6,1243.0 1110.0,1230.1 1089.7,1216.9 1069.8,1203.4  A 522.500,522.500 0.00 0,1 1094.7,1170.3 L 1094.7,1170.3 1113.1,1184.9 1131.9,1199.3 1151.2,1213.4 1171.0,1227.2 1191.1,1240.6 1211.7,1253.5 1232.6,1266.0 1254.0,1277.9 1275.6,1289.3 1297.7,1300.0 1320.0,1310.2 1342.6,1319.7 1365.5,1328.6 1388.7,1336.7 1412.1,1344.1 1435.7,1350.8 1459.5,1356.7 1483.5,1361.9 1507.6,1366.3 1531.8,1369.9 1556.2,1372.8 1580.6,1374.8 1605.1,1376.1 1629.7,1376.6 1654.2,1376.4 1678.7,1375.4 1703.2,1373.6 1727.6,1371.1 1752.0,1368.0 1776.2,1364.1 1800.2,1359.5 1824.1,1354.4 1847.8,1348.6 1871.2,1342.2 1894.4,1335.4 1917.3,1328.0 1939.9,1320.1 1962.2,1311.8 1984.0,1303.2  Z" style="stroke-width: 0.5;  stroke: rgb(0,0,0); fill: rgb(179,177,178);" />
<path d="M 1981.802,1702.170 A 522.500,522.500 0.00 0,1 1965.6,1737.2 L 1965.6,1737.2 1943.1,1725.9 1920.3,1714.7 1897.3,1703.8 1874.0,1693.0 1850.4,1682.5 1826.6,1672.2 1802.6,1662.2 1778.3,1652.4 1753.8,1643.0 1729.1,1633.8 1704.2,1625.0 1679.2,1616.4 1653.9,1608.3 1628.5,1600.5 1602.9,1593.0 1577.2,1585.9 1551.4,1579.2 1525.5,1572.8 1499.4,1566.9 1473.3,1561.3 1447.1,1556.2 1420.8,1551.4 1394.5,1547.0 1368.1,1543.0 1341.7,1539.4 1315.3,1536.2 1288.9,1533.4 1262.6,1531.0 1236.2,1528.9 1210.0,1527.2 1183.7,1525.9 1157.6,1524.9 1131.6,1524.3 1105.6,1524.0 1079.8,1524.0 1054.2,1524.3 1028.7,1525.0 1003.3,1525.9 978.2,1527.0  A 522.500,522.500 0.00 0,1 977.6,1488.3 L 977.6,1488.3 1003.2,1489.0 1029.0,1489.9 1054.9,1491.0 1080.9,1492.3 1107.0,1493.8 1133.2,1495.6 1159.4,1497.6 1185.8,1499.9 1212.2,1502.4 1238.6,1505.2 1265.1,1508.3 1291.6,1511.7 1318.2,1515.3 1344.7,1519.2 1371.2,1523.4 1397.7,1527.9 1424.2,1532.6 1450.7,1537.7 1477.1,1543.0 1503.4,1548.6 1529.7,1554.5 1555.9,1560.7 1582.0,1567.1 1608.1,1573.8 1634.0,1580.8 1659.8,1588.0 1685.5,1595.5 1711.1,1603.3 1736.5,1611.3 1761.8,1619.5 1787.0,1627.9 1812.0,1636.6 1836.8,1645.4 1861.4,1654.5 1885.9,1663.7 1910.2,1673.1 1934.3,1682.6 1958.1,1692.3 1981.8,1702.2  Z" style="stroke-width: 0.5;  stroke: rgb(0,0,0); fill: rgb(179,177,178);" />
<path d="M 1894.796,1157.739 A 522.500,522.500 0.00 0,1 1915.5,1183.2 L 1915.5,1183.2 1897.7,1196.4 1879.5,1209.2 1860.9,1221.6 1841.9,1233.5 1822.6,1244.8 1803.0,1255.4 1783.2,1265.4 1763.1,1274.5 1742.8,1282.8 1722.4,1290.3 1701.8,1296.8 1681.1,1302.4 1660.4,1307.0 1639.6,1310.6 1618.9,1313.2 1598.1,1314.7 1577.5,1315.1 1556.9,1314.5 1536.4,1312.7 1516.0,1309.9 1495.8,1306.0 1475.9,1301.0 1456.1,1295.0 1436.5,1287.9 1417.3,1279.8 1398.3,1270.6 1379.6,1260.6 1361.2,1249.5 1343.2,1237.6 1325.6,1224.9 1308.3,1211.4 1291.5,1197.1 1275.1,1182.1 1259.1,1166.5 1243.6,1150.4 1228.6,1133.8 1214.1,1116.8 1200.1,1099.5 1186.6,1081.9  A 522.500,522.500 0.00 0,1 1213.7,1062.9 L 1213.7,1062.9 1225.9,1081.0 1238.6,1098.9 1251.8,1116.5 1265.5,1133.7 1279.7,1150.4 1294.3,1166.5 1309.4,1182.0 1324.9,1196.8 1340.8,1210.8 1357.2,1223.9 1373.9,1236.2 1390.9,1247.5 1408.3,1257.9 1426.0,1267.2 1444.0,1275.5 1462.3,1282.7 1480.8,1288.8 1499.5,1293.7 1518.5,1297.5 1537.6,1300.2 1556.8,1301.7 1576.2,1302.0 1595.7,1301.3 1615.2,1299.3 1634.8,1296.3 1654.3,1292.2 1673.9,1286.9 1693.4,1280.7 1712.8,1273.5 1732.1,1265.3 1751.2,1256.1 1770.2,1246.2 1788.9,1235.4 1807.4,1223.9 1825.6,1211.7 1843.5,1198.9 1861.0,1185.6 1878.1,1171.8 1894.8,1157.7  Z" style="stroke-width: 0.5;  stroke: rgb(0,0,0); fill: rgb(179,177,178);" />
<path d="M 1932.945,1792.515 A 522.500,522.500 0.00 0,1 1919.0,1812.2 L 1919.0,1812.2 1899.6,1798.0 1879.7,1784.0 1859.5,1770.3 1838.8,1756.9 1817.8,1743.8 1796.4,1731.0 1774.6,1718.7 1752.5,1706.8 1730.0,1695.4 1707.2,1684.4 1684.2,1674.0 1660.8,1664.1 1637.2,1654.8 1613.3,1646.0 1589.2,1637.9 1564.8,1630.3 1540.3,1623.4 1515.6,1617.2 1490.7,1611.5 1465.7,1606.5 1440.6,1602.2 1415.4,1598.5 1390.1,1595.5 1364.7,1593.1 1339.3,1591.3 1313.9,1590.2 1288.5,1589.8 1263.1,1589.9 1237.8,1590.7 1212.6,1592.1 1187.5,1594.0 1162.5,1596.5 1137.6,1599.5 1113.0,1603.0 1088.5,1607.1 1064.3,1611.5 1040.3,1616.5 1016.6,1621.8 993.3,1627.4  A 522.500,522.500 0.00 0,1 987.9,1603.9 L 987.9,1603.9 1011.8,1599.2 1036.0,1594.9 1060.4,1591.0 1085.0,1587.5 1109.9,1584.3 1135.0,1581.7 1160.2,1579.5 1185.6,1577.8 1211.1,1576.6 1236.7,1575.9 1262.3,1575.8 1288.0,1576.2 1313.8,1577.2 1339.5,1578.7 1365.3,1580.8 1391.0,1583.6 1416.7,1586.9 1442.3,1590.8 1467.8,1595.2 1493.2,1600.3 1518.5,1606.0 1543.6,1612.2 1568.6,1619.0 1593.4,1626.4 1617.9,1634.3 1642.3,1642.7 1666.5,1651.7 1690.4,1661.2 1714.0,1671.2 1737.4,1681.6 1760.5,1692.5 1783.2,1703.8 1805.7,1715.5 1827.8,1727.6 1849.6,1740.1 1871.0,1752.8 1892.0,1765.8 1912.7,1779.1 1932.9,1792.5  Z" style="stroke-width: 0.5;  stroke: rgb(0,0,0); fill: rgb(179,177,178);" />
<path d="M 2015.058,1412.131 A 522.500,522.500 0.00 0,1 2018.5,1435.7 L 2018.5,1435.7 1993.6,1438.6 1968.5,1441.3 1943.1,1443.7 1917.6,1445.9 1891.9,1447.7 1866.1,1449.2 1840.1,1450.4 1814.0,1451.2 1787.8,1451.6 1761.5,1451.7 1735.1,1451.4 1708.7,1450.7 1682.2,1449.6 1655.7,1448.2 1629.2,1446.3 1602.7,1444.0 1576.2,1441.3 1549.7,1438.2 1523.2,1434.6 1496.8,1430.7 1470.5,1426.4 1444.3,1421.6 1418.1,1416.5 1392.1,1410.9 1366.2,1405.0 1340.4,1398.7 1314.8,1392.0 1289.3,1384.9 1264.0,1377.5 1238.9,1369.8 1213.9,1361.7 1189.2,1353.3 1164.7,1344.6 1140.4,1335.7 1116.3,1326.4 1092.6,1316.9 1069.0,1307.2 1045.8,1297.3 1022.8,1287.2  A 522.500,522.500 0.00 0,1 1033.1,1265.5 L 1033.1,1265.5 1055.3,1276.5 1077.9,1287.3 1100.8,1297.8 1123.9,1308.2 1147.4,1318.2 1171.1,1327.9 1195.1,1337.3 1219.4,1346.4 1243.9,1355.1 1268.6,1363.5 1293.5,1371.4 1318.6,1378.9 1343.9,1386.0 1369.4,1392.7 1395.0,1398.9 1420.7,1404.7 1446.6,1410.1 1472.6,1414.9 1498.7,1419.3 1524.8,1423.2 1551.1,1426.6 1577.3,1429.6 1603.6,1432.0 1630.0,1434.0 1656.3,1435.6 1682.6,1436.6 1708.8,1437.2 1735.1,1437.3 1761.2,1437.0 1787.3,1436.3 1813.2,1435.1 1839.1,1433.5 1864.8,1431.5 1890.3,1429.1 1915.7,1426.4 1940.9,1423.3 1965.8,1419.9 1990.6,1416.1 2015.1,1412.1  Z" style="stroke-width: 0.5;  stroke: rgb(0,0,0); fill: rgb(179,177,178);" />
<path d="M 1956.977,1753.334 A 522.500,522.500 0.00 0,1 1946.4,1771.5 L 1946.4,1771.5 1925.3,1758.8 1903.8,1746.3 1882.0,1734.1 1859.8,1722.1 1837.3,1710.4 1814.5,1699.0 1791.4,1687.9 1768.0,1677.2 1744.3,1666.9 1720.4,1656.9 1696.2,1647.4 1671.8,1638.3 1647.1,1629.6 1622.3,1621.4 1597.3,1613.7 1572.1,1606.4 1546.7,1599.6 1521.2,1593.4 1495.6,1587.6 1469.8,1582.4 1444.0,1577.7 1418.0,1573.4 1392.1,1569.7 1366.0,1566.6 1340.0,1563.9 1313.9,1561.7 1287.8,1560.1 1261.8,1558.9 1235.8,1558.2 1209.9,1558.1 1184.1,1558.3 1158.3,1559.0 1132.7,1560.2 1107.3,1561.8 1082.0,1563.8 1056.9,1566.1 1032.0,1568.8 1007.4,1571.9 983.0,1575.3  A 522.500,522.500 0.00 0,1 980.4,1554.7 L 980.4,1554.7 1005.1,1552.3 1030.1,1550.1 1055.3,1548.2 1080.7,1546.7 1106.3,1545.6 1132.0,1544.7 1157.8,1544.3 1183.8,1544.3 1209.8,1544.7 1235.9,1545.5 1262.1,1546.7 1288.3,1548.3 1314.6,1550.4 1340.8,1553.0 1367.1,1556.0 1393.3,1559.4 1419.5,1563.3 1445.7,1567.7 1471.7,1572.5 1497.7,1577.8 1523.6,1583.5 1549.4,1589.7 1575.0,1596.4 1600.5,1603.4 1625.8,1610.9 1651.0,1618.8 1676.0,1627.2 1700.8,1635.9 1725.3,1645.0 1749.7,1654.5 1773.8,1664.3 1797.7,1674.5 1821.3,1684.9 1844.7,1695.7 1867.7,1706.8 1890.5,1718.1 1913.0,1729.6 1935.1,1741.4 1957.0,1753.3  Z" style="stroke-width: 0.5;  stroke: rgb(0,0,0); fill: rgb(179,177,178);" />
<path d="M 2011.339,1392.581 A 522.500,522.500 0.00 0,1 2014.7,1409.9 L 2014.7,1409.9 1990.2,1414.0 1965.5,1417.8 1940.6,1421.3 1915.4,1424.5 1890.1,1427.4 1864.6,1429.8 1838.9,1431.9 1813.1,1433.6 1787.2,1434.8 1761.1,1435.7 1735.0,1436.0 1708.8,1436.0 1682.5,1435.4 1656.3,1434.4 1630.0,1433.0 1603.7,1431.0 1577.4,1428.6 1551.1,1425.6 1524.9,1422.2 1498.8,1418.4 1472.7,1414.0 1446.7,1409.1 1420.9,1403.8 1395.2,1398.0 1369.6,1391.8 1344.1,1385.1 1318.9,1378.0 1293.8,1370.4 1268.9,1362.5 1244.2,1354.1 1219.8,1345.4 1195.6,1336.3 1171.6,1326.8 1147.9,1317.0 1124.5,1306.9 1101.3,1296.6 1078.5,1286.0 1056.0,1275.1 1033.8,1264.1  A 522.500,522.500 0.00 0,1 1042.2,1248.1 L 1042.2,1248.1 1063.8,1259.8 1085.8,1271.3 1108.1,1282.5 1130.8,1293.5 1153.7,1304.2 1177.0,1314.5 1200.5,1324.5 1224.3,1334.1 1248.4,1343.3 1272.7,1352.1 1297.3,1360.4 1322.1,1368.3 1347.0,1375.8 1372.2,1382.7 1397.5,1389.2 1423.0,1395.1 1448.6,1400.6 1474.3,1405.5 1500.2,1409.9 1526.1,1413.7 1552.1,1417.1 1578.2,1419.9 1604.2,1422.1 1630.4,1423.9 1656.5,1425.1 1682.6,1425.8 1708.6,1426.0 1734.6,1425.6 1760.5,1424.8 1786.4,1423.5 1812.1,1421.7 1837.7,1419.5 1863.1,1416.8 1888.3,1413.7 1913.4,1410.2 1938.3,1406.3 1962.9,1402.0 1987.3,1397.5 2011.3,1392.6  Z" style="stroke-width: 0.5;  stroke: rgb(0,0,0); fill: rgb(179,177,178);" />
</g>
<g id="plot0">
<g id="plot0-axis">
</g>
<line x1='2073.1' y1='1983.8' x2='2073.1' y2='1983.8' style="stroke-width:14.0;stroke:rgb(0,0,0);stroke-linecap:round;fill:none;" />
<line x1='2073.1' y1='1983.8' x2='2103.7' y2='2009.6' style="stroke-width:14.0;stroke:rgb(0,0,0);stroke-linecap:round;fill:none;" />
<line x1='2103.7' y1='2009.6' x2='2103.7' y2='2009.6' style="stroke-width:14.0;stroke:rgb(0,0,0);stroke-linecap:round;fill:none;" />
<text x="2104.5" y="2039.1" font-size="46.8px" font-family="CMUBright-Roman" style="text-anchor:start;fill:rgb(255,38,78);" transform="rotate(40.2,2104.5,2039.1)" >Histocap327P12<tspan baseline-shift="-40%" font-size="90%">s</tspan>02012</text>
</g>
<defs>
<pattern id="vline" width="10" height="10" patternTransform="rotate(0 0 0)" patternUnits="userSpaceOnUse"><line x1="0" y1="0" x2="0" y2="10" style="stroke:black;stroke-width:5" /></pattern>
<pattern id="hline" width="10" height="10" patternTransform="rotate(0 0 0)" patternUnits="userSpaceOnUse"><line x1="0" y1="0" x2="10" y2="0" style="stroke:black;stroke-width:5" /></pattern>
<pattern id="hline-sparse" width="10" height="10" patternTransform="rotate(0 0 0)" patternUnits="userSpaceOnUse"><line x1="0" y1="0" x2="10" y2="0" style="stroke:black;stroke-width:2" /></pattern>
<pattern id="vline-sparse" width="10" height="10" patternTransform="rotate(0 0 0)" patternUnits="userSpaceOnUse"><line x1="0" y1="0" x2="0" y2="10" style="stroke:black;stroke-width:2" /></pattern>
<pattern id="checker" width="10" height="10" patternTransform="rotate(45 0 0)" patternUnits="userSpaceOnUse"><line x1="0" y1="0" x2="10" y2="0" style="stroke:black;stroke-width:5" /><line x1="0" y1="0" x2="0" y2="10" style="stroke:black;stroke-width:4" /></pattern>
<pattern id="checker" width="10" height="10" patternTransform="rotate(45 0 0)" patternUnits="userSpaceOnUse"><line x1="0" y1="0" x2="10" y2="0" style="stroke:black;stroke-width:2" /><line x1="0" y1="0" x2="0" y2="10" style="stroke:black;stroke-width:2" /></pattern>
</defs>
</svg>
