<?xml version="1.0" encoding="utf-8" standalone="no"?>
<!DOCTYPE svg PUBLIC "-//W3C//DTD SVG 1.1//EN" "http://www.w3.org/Graphics/SVG/1.1/DTD/svg11.dtd">
<svg width="3000px" height="3000px" version="1.1" xmlns="http://www.w3.org/2000/svg" xmlns:xlink="http://www.w3.org/1999/xlink">
<g id="bg">
<rect x="0" y="0" width="3000px" height="3000px" style="fill:rgb(255,255,255);"/>
</g>
<g id="ideograms">
<path d="M1500.000,950.000 A550.000,550.000 40.000 0,1 1666.698,2024.130 L1727.315,2214.722 A750.000,750.000 0.000 0,0 1500.000,750.000 Z" style="stroke-width:2.0;stroke:rgb(0,0,0);stroke-linecap:round;fill:rgb(179,177,178);" />
<text x="2463.5" y="1350.5" font-size="46.8px" font-family="CMUBright-Roman" style="text-anchor:middle;fill:rgb(0,0,0);" transform="rotate(441.2,2463.5,1350.5)" >HistoohiSECH92<tspan baseline-shift="-40%" font-size="90%">1</tspan></text>
<line x1='1552.7' y1='751.9' x2='1553.5' y2='739.9' style="stroke-width:8.0;stroke:rgb(150,150,150);stroke-linecap:round;fill:none;" />
<line x1='1650.8' y1='765.3' x2='1653.3' y2='753.6' style="stroke-width:8.0;stroke:rgb(150,150,150);stroke-linecap:round;fill:none;" />
<line x1='1746.4' y1='791.6' x2='1750.3' y2='780.3' style="stroke-width:8.0;stroke:rgb(150,150,150);stroke-linecap:round;fill:none;" />
<line x1='1837.6' y1='830.3' x2='1843.0' y2='819.6' style="stroke-width:8.0;stroke:rgb(150,150,150);stroke-linecap:round;fill:none;" />
<line x1='1922.9' y1='880.6' x2='1929.7' y2='870.7' style="stroke-width:8.0;stroke:rgb(150,150,150);stroke-linecap:round;fill:none;" />
<text x="1948.0" y="868.8" font-size="41.6px" font-family="CMUBright-Roman" style="text-anchor:start;fill:rgb(150,150,150);" transform="rotate(304.3,1948.0,868.8)" >3850 kb</text>
<line x1='2000.9' y1='941.8' x2='2008.9' y2='932.8' style="stroke-width:8.0;stroke:rgb(150,150,150);stroke-linecap:round;fill:none;" />
<line x1='2070.1' y1='1012.7' x2='2079.2' y2='1004.9' style="stroke-width:8.0;stroke:rgb(150,150,150);stroke-linecap:round;fill:none;" />
<line x1='2129.4' y1='1092.1' x2='2139.4' y2='1085.5' style="stroke-width:8.0;stroke:rgb(150,150,150);stroke-linecap:round;fill:none;" />
<line x1='2177.6' y1='1178.6' x2='2188.5' y2='1173.5' style="stroke-width:8.0;stroke:rgb(150,150,150);stroke-linecap:round;fill:none;" />
<line x1='2214.1' y1='1270.7' x2='2225.5' y2='1267.1' style="stroke-width:8.0;stroke:rgb(150,150,150);stroke-linecap:round;fill:none;" />
<text x="2241.1" y="1276.8" font-size="41.6px" font-family="CMUBright-Roman" style="text-anchor:start;fill:rgb(150,150,150);" transform="rotate(342.2,2241.1,1276.8)" >3900 kb</text>
<line x1='2238.1' y1='1366.9' x2='2249.9' y2='1364.7' style="stroke-width:8.0;stroke:rgb(150,150,150);stroke-linecap:round;fill:none;" />
<line x1='2249.2' y1='1465.3' x2='2261.2' y2='1464.8' style="stroke-width:8.0;stroke:rgb(150,150,150);stroke-linecap:round;fill:none;" />
<line x1='2247.2' y1='1564.4' x2='2259.2' y2='1565.4' style="stroke-width:8.0;stroke:rgb(150,150,150);stroke-linecap:round;fill:none;" />
<line x1='2232.2' y1='1662.3' x2='2243.9' y2='1664.9' style="stroke-width:8.0;stroke:rgb(150,150,150);stroke-linecap:round;fill:none;" />
<line x1='2204.4' y1='1757.4' x2='2215.7' y2='1761.5' style="stroke-width:8.0;stroke:rgb(150,150,150);stroke-linecap:round;fill:none;" />
<text x="2222.1" y="1778.7" font-size="41.6px" font-family="CMUBright-Roman" style="text-anchor:start;fill:rgb(150,150,150);" transform="rotate(20.1,2222.1,1778.7)" >3950 kb</text>
<line x1='2164.4' y1='1848.0' x2='2175.0' y2='1853.6' style="stroke-width:8.0;stroke:rgb(150,150,150);stroke-linecap:round;fill:none;" />
<line x1='2112.7' y1='1932.6' x2='2122.5' y2='1939.5' style="stroke-width:8.0;stroke:rgb(150,150,150);stroke-linecap:round;fill:none;" />
<line x1='2050.3' y1='2009.5' x2='2059.1' y2='2017.7' style="stroke-width:8.0;stroke:rgb(150,150,150);stroke-linecap:round;fill:none;" />
<line x1='1978.4' y1='2077.6' x2='1986.0' y2='2086.9' style="stroke-width:8.0;stroke:rgb(150,150,150);stroke-linecap:round;fill:none;" />
<line x1='1898.0' y1='2135.7' x2='1904.4' y2='2145.8' style="stroke-width:8.0;stroke:rgb(150,150,150);stroke-linecap:round;fill:none;" />
<text x="1898.9" y="2163.3" font-size="41.6px" font-family="CMUBright-Roman" style="text-anchor:start;fill:rgb(150,150,150);" transform="rotate(57.9,1898.9,2163.3)" >4000 kb</text>
<line x1='1810.8' y1='2182.6' x2='1815.8' y2='2193.5' style="stroke-width:8.0;stroke:rgb(150,150,150);stroke-linecap:round;fill:none;" />
<g id="highlighttrack_0">
<path d="M2033.067,1364.578 A550.000,550.000 40.000 0,1 2049.038,1467.486 L2248.688,1455.663 A750.000,750.000 0.000 0,0 2226.910,1315.334 Z" style="stroke-width:14.0;stroke:rgb(0,0,0);stroke-linecap:round;fill:rgb(255,38,78);" />
</g>
<path d="M1500.000,950.000 A550.000,550.000 40.000 0,1 1666.698,2024.130 L1727.315,2214.722 A750.000,750.000 0.000 0,0 1500.000,750.000 Z" style="stroke-width:2.0;stroke:rgb(0,0,0);stroke-linecap:round;fill:none;" />
<path d="M1451.293,2047.839 A550.000,550.000 40.000 0,1 1287.541,992.692 L1210.283,808.217 A750.000,750.000 0.000 0,0 1433.581,2247.053 Z" style="stroke-width:2.0;stroke:rgb(0,0,0);stroke-linecap:round;fill:rgb(179,177,178);" />
<text x="492.1" y="1656.4" font-size="46.8px" font-family="CMUBright-Roman" style="text-anchor:middle;fill:rgb(0,0,0);" transform="rotate(81.2,492.1,1656.4)" >HistocapSECH101<tspan baseline-shift="-40%" font-size="90%">1</tspan></text>
<line x1='1197.6' y1='813.7' x2='1192.7' y2='802.7' style="stroke-width:8.0;stroke:rgb(150,150,150);stroke-linecap:round;fill:none;" />
<line x1='1109.7' y1='859.5' x2='1103.5' y2='849.3' style="stroke-width:8.0;stroke:rgb(150,150,150);stroke-linecap:round;fill:none;" />
<line x1='1028.7' y1='916.6' x2='1021.2' y2='907.2' style="stroke-width:8.0;stroke:rgb(150,150,150);stroke-linecap:round;fill:none;" />
<line x1='955.9' y1='983.8' x2='947.2' y2='975.5' style="stroke-width:8.0;stroke:rgb(150,150,150);stroke-linecap:round;fill:none;" />
<line x1='892.6' y1='1060.0' x2='882.9' y2='1053.0' style="stroke-width:8.0;stroke:rgb(150,150,150);stroke-linecap:round;fill:none;" />
<text x="865.1" y="1057.3" font-size="41.6px" font-family="CMUBright-Roman" style="text-anchor:end;fill:rgb(150,150,150);" transform="rotate(35.9,865.1,1057.3)" >3250 kb</text>
<line x1='839.9' y1='1143.9' x2='829.4' y2='1138.2' style="stroke-width:8.0;stroke:rgb(150,150,150);stroke-linecap:round;fill:none;" />
<line x1='798.7' y1='1234.0' x2='787.5' y2='1229.8' style="stroke-width:8.0;stroke:rgb(150,150,150);stroke-linecap:round;fill:none;" />
<line x1='769.8' y1='1328.8' x2='758.1' y2='1326.0' style="stroke-width:8.0;stroke:rgb(150,150,150);stroke-linecap:round;fill:none;" />
<line x1='753.6' y1='1426.5' x2='741.7' y2='1425.4' style="stroke-width:8.0;stroke:rgb(150,150,150);stroke-linecap:round;fill:none;" />
<line x1='750.4' y1='1525.6' x2='738.4' y2='1526.0' style="stroke-width:8.0;stroke:rgb(150,150,150);stroke-linecap:round;fill:none;" />
<text x="727.1" y="1540.4" font-size="41.6px" font-family="CMUBright-Roman" style="text-anchor:end;fill:rgb(150,150,150);" transform="rotate(-2.0,727.1,1540.4)" >3300 kb</text>
<line x1='760.3' y1='1624.1' x2='748.5' y2='1626.1' style="stroke-width:8.0;stroke:rgb(150,150,150);stroke-linecap:round;fill:none;" />
<line x1='783.2' y1='1720.6' x2='771.7' y2='1724.1' style="stroke-width:8.0;stroke:rgb(150,150,150);stroke-linecap:round;fill:none;" />
<line x1='818.5' y1='1813.1' x2='807.6' y2='1818.1' style="stroke-width:8.0;stroke:rgb(150,150,150);stroke-linecap:round;fill:none;" />
<line x1='865.7' y1='1900.2' x2='855.6' y2='1906.6' style="stroke-width:8.0;stroke:rgb(150,150,150);stroke-linecap:round;fill:none;" />
<line x1='924.0' y1='1980.3' x2='914.8' y2='1988.0' style="stroke-width:8.0;stroke:rgb(150,150,150);stroke-linecap:round;fill:none;" />
<text x="914.6" y="2006.4" font-size="41.6px" font-family="CMUBright-Roman" style="text-anchor:end;fill:rgb(150,150,150);" transform="rotate(-39.8,914.6,2006.4)" >3350 kb</text>
<line x1='992.4' y1='2052.1' x2='984.2' y2='2060.9' style="stroke-width:8.0;stroke:rgb(150,150,150);stroke-linecap:round;fill:none;" />
<line x1='1069.6' y1='2114.2' x2='1062.7' y2='2124.0' style="stroke-width:8.0;stroke:rgb(150,150,150);stroke-linecap:round;fill:none;" />
<line x1='1154.3' y1='2165.6' x2='1148.7' y2='2176.2' style="stroke-width:8.0;stroke:rgb(150,150,150);stroke-linecap:round;fill:none;" />
<line x1='1245.0' y1='2205.3' x2='1240.9' y2='2216.6' style="stroke-width:8.0;stroke:rgb(150,150,150);stroke-linecap:round;fill:none;" />
<line x1='1340.2' y1='2232.8' x2='1337.7' y2='2244.5' style="stroke-width:8.0;stroke:rgb(150,150,150);stroke-linecap:round;fill:none;" />
<text x="1348.8" y="2259.1" font-size="41.6px" font-family="CMUBright-Roman" style="text-anchor:end;fill:rgb(150,150,150);" transform="rotate(-77.7,1348.8,2259.1)" >3400 kb</text>
<path d="M1451.293,2047.839 A550.000,550.000 40.000 0,1 1287.541,992.692 L1210.283,808.217 A750.000,750.000 0.000 0,0 1433.581,2247.053 Z" style="stroke-width:2.0;stroke:rgb(0,0,0);stroke-linecap:round;fill:none;" />
</g>
<g id="track_0">
<path d="M 1599.215,987.006 A 522.500,522.500 0.00 0,1 1751.2,1041.8 L 1751.2,1041.8 1740.7,1060.5 1729.7,1078.9 1718.2,1097.0 1706.3,1114.7 1693.9,1131.9 1681.0,1148.5 1667.8,1164.4 1654.1,1179.6 1640.1,1193.9 1625.7,1207.3 1610.9,1219.7 1595.8,1231.2 1580.4,1241.5 1564.7,1250.8 1548.7,1258.9 1532.4,1265.8 1516.0,1271.6 1499.3,1276.1 1482.4,1279.4 1465.4,1281.4 1448.2,1282.1 1431.0,1281.7 1413.6,1280.0 1396.2,1277.0 1378.8,1272.9 1361.3,1267.6 1343.9,1261.1 1326.6,1253.5 1309.3,1244.9 1292.1,1235.2 1275.1,1224.6 1258.3,1213.1 1241.7,1200.7 1225.3,1187.6 1209.3,1173.8 1193.5,1159.3 1178.1,1144.4 1163.1,1129.1 1148.5,1113.4  A 522.500,522.500 0.00 0,1 1283.6,1024.4 L 1283.6,1024.4 1292.2,1042.9 1301.0,1061.2 1310.1,1079.2 1319.4,1096.6 1328.9,1113.5 1338.4,1129.7 1348.1,1145.0 1357.9,1159.5 1367.8,1173.0 1377.7,1185.4 1387.6,1196.6 1397.4,1206.7 1407.3,1215.4 1417.1,1222.9 1426.8,1229.0 1436.4,1233.7 1445.9,1237.0 1455.3,1238.8 1464.5,1239.2 1473.6,1238.2 1482.4,1235.6 1491.1,1231.6 1499.6,1226.2 1507.8,1219.4 1515.8,1211.2 1523.6,1201.6 1531.1,1190.8 1538.4,1178.7 1545.4,1165.5 1552.1,1151.1 1558.5,1135.7 1564.7,1119.4 1570.5,1102.2 1576.0,1084.2 1581.3,1065.6 1586.2,1046.4 1590.9,1026.9 1595.2,1007.0 1599.2,987.0  Z" style="stroke-width: 0.5;  stroke: rgb(0,0,0); fill: rgb(179,177,178);" />
<path d="M 2021.942,1524.138 A 522.500,522.500 0.00 0,1 2000.9,1648.6 L 2000.9,1648.6 1977.6,1641.9 1954.0,1635.5 1930.0,1629.4 1905.8,1623.8 1881.4,1618.5 1856.7,1613.7 1831.8,1609.4 1806.7,1605.6 1781.5,1602.2 1756.1,1599.4 1730.6,1597.1 1705.0,1595.4 1679.3,1594.2 1653.6,1593.7 1627.9,1593.7 1602.1,1594.3 1576.3,1595.5 1550.5,1597.3 1524.8,1599.8 1499.2,1602.8 1473.6,1606.5 1448.2,1610.7 1422.8,1615.5 1397.6,1621.0 1372.5,1627.0 1347.7,1633.5 1323.0,1640.7 1298.5,1648.3 1274.2,1656.5 1250.2,1665.2 1226.5,1674.3 1203.0,1684.0 1179.8,1694.0 1156.9,1704.4 1134.4,1715.3 1112.2,1726.4 1090.3,1737.9 1068.8,1749.6 1047.7,1761.6  A 522.500,522.500 0.00 0,1 998.6,1647.1 L 998.6,1647.1 1023.4,1640.0 1048.3,1632.9 1073.4,1626.0 1098.6,1619.3 1124.0,1612.7 1149.6,1606.3 1175.3,1600.1 1201.1,1594.1 1227.0,1588.3 1253.1,1582.7 1279.3,1577.3 1305.5,1572.1 1331.9,1567.2 1358.3,1562.5 1384.9,1558.1 1411.4,1553.8 1438.1,1549.9 1464.8,1546.1 1491.5,1542.7 1518.3,1539.4 1545.1,1536.5 1572.0,1533.8 1598.8,1531.3 1625.6,1529.1 1652.4,1527.2 1679.2,1525.5 1706.0,1524.0 1732.8,1522.8 1759.5,1521.8 1786.1,1521.1 1812.7,1520.6 1839.2,1520.3 1865.6,1520.3 1892.0,1520.4 1918.2,1520.8 1944.3,1521.3 1970.3,1522.1 1996.2,1523.0 2021.9,1524.1  Z" style="stroke-width: 0.5;  stroke: rgb(0,0,0); fill: rgb(179,177,178);" />
<path d="M 1845.344,1892.102 A 522.500,522.500 0.00 0,1 1785.0,1937.9 L 1785.0,1937.9 1773.5,1920.6 1761.6,1903.5 1749.5,1886.9 1737.0,1870.7 1724.3,1855.2 1711.3,1840.3 1698.2,1826.3 1684.9,1813.1 1671.5,1800.9 1658.1,1789.7 1644.5,1779.7 1631.0,1770.7 1617.4,1763.0 1603.8,1756.6 1590.3,1751.4 1576.9,1747.6 1563.5,1745.1 1550.3,1743.9 1537.2,1744.2 1524.3,1745.8 1511.6,1748.8 1499.0,1753.2 1486.7,1758.9 1474.7,1765.9 1462.8,1774.3 1451.3,1783.9 1440.1,1794.7 1429.1,1806.7 1418.5,1819.8 1408.2,1834.0 1398.2,1849.1 1388.6,1865.2 1379.4,1882.0 1370.5,1899.6 1362.1,1917.8 1354.0,1936.6 1346.3,1955.7 1339.0,1975.2 1332.1,1994.8  A 522.500,522.500 0.00 0,1 1262.7,1965.5 L 1262.7,1965.5 1272.6,1946.6 1283.0,1928.0 1293.9,1909.6 1305.2,1891.7 1316.9,1874.2 1329.1,1857.4 1341.7,1841.2 1354.8,1825.9 1368.2,1811.3 1382.0,1797.7 1396.1,1785.1 1410.6,1773.4 1425.4,1762.9 1440.5,1753.5 1455.9,1745.2 1471.6,1738.2 1487.5,1732.3 1503.6,1727.7 1519.9,1724.4 1536.4,1722.3 1553.0,1721.5 1569.8,1721.9 1586.6,1723.7 1603.5,1726.6 1620.5,1730.8 1637.5,1736.2 1654.4,1742.7 1671.4,1750.4 1688.2,1759.1 1704.9,1768.9 1721.5,1779.7 1738.0,1791.3 1754.2,1803.8 1770.2,1817.1 1785.9,1831.1 1801.3,1845.7 1816.4,1860.8 1831.1,1876.3 1845.3,1892.1  Z" style="stroke-width: 0.5;  stroke: rgb(0,0,0); fill: rgb(179,177,178);" />
<path d="M 1910.426,1823.352 A 522.500,522.500 0.00 0,1 1873.5,1865.4 L 1873.5,1865.4 1857.8,1850.5 1841.7,1835.8 1825.2,1821.7 1808.3,1808.0 1791.1,1794.9 1773.7,1782.5 1755.9,1770.8 1737.9,1760.0 1719.7,1750.0 1701.4,1741.0 1682.9,1733.0 1664.4,1725.9 1645.7,1720.0 1627.0,1715.1 1608.4,1711.4 1589.7,1708.8 1571.1,1707.4 1552.6,1707.2 1534.1,1708.2 1515.8,1710.4 1497.7,1713.8 1479.7,1718.3 1462.0,1724.1 1444.4,1731.0 1427.1,1739.0 1410.1,1748.1 1393.4,1758.3 1377.0,1769.5 1361.0,1781.6 1345.3,1794.7 1329.9,1808.7 1315.0,1823.4 1300.5,1839.0 1286.4,1855.1 1272.8,1871.9 1259.6,1889.1 1246.9,1906.8 1234.7,1924.8 1223.0,1943.0  A 522.500,522.500 0.00 0,1 1177.1,1910.8 L 1177.1,1910.8 1191.0,1893.5 1205.4,1876.5 1220.3,1859.8 1235.7,1843.6 1251.6,1827.8 1268.0,1812.6 1284.7,1797.9 1301.9,1784.0 1319.5,1770.9 1337.4,1758.5 1355.7,1746.9 1374.4,1736.3 1393.3,1726.6 1412.6,1717.9 1432.1,1710.1 1451.8,1703.4 1471.8,1697.8 1491.9,1693.2 1512.2,1689.7 1532.7,1687.2 1553.3,1685.9 1574.0,1685.6 1594.7,1686.4 1615.5,1688.3 1636.2,1691.2 1657.0,1695.2 1677.7,1700.2 1698.3,1706.1 1718.8,1713.0 1739.1,1720.8 1759.3,1729.5 1779.3,1739.0 1799.0,1749.2 1818.5,1760.2 1837.6,1771.8 1856.4,1784.0 1874.9,1796.7 1892.9,1809.9 1910.4,1823.4  Z" style="stroke-width: 0.5;  stroke: rgb(0,0,0); fill: rgb(179,177,178);" />
<path d="M 1941.353,1779.667 A 522.500,522.500 0.00 0,1 1910.6,1823.1 L 1910.6,1823.1 1893.0,1809.6 1875.0,1796.5 1856.6,1783.8 1837.7,1771.6 1818.6,1760.0 1799.1,1749.0 1779.4,1738.8 1759.4,1729.3 1739.2,1720.6 1718.8,1712.8 1698.3,1705.9 1677.7,1700.0 1656.9,1695.0 1636.2,1691.0 1615.4,1688.1 1594.6,1686.2 1573.8,1685.4 1553.1,1685.6 1532.5,1687.0 1512.0,1689.4 1491.7,1692.9 1471.5,1697.5 1451.5,1703.1 1431.7,1709.8 1412.2,1717.5 1392.9,1726.3 1374.0,1735.9 1355.3,1746.5 1337.0,1758.0 1319.0,1770.4 1301.4,1783.5 1284.1,1797.4 1267.3,1812.0 1251.0,1827.2 1235.0,1843.0 1219.6,1859.2 1204.6,1875.9 1190.2,1892.9 1176.2,1910.1  A 522.500,522.500 0.00 0,1 1136.1,1874.9 L 1136.1,1874.9 1152.1,1858.9 1168.6,1843.0 1185.6,1827.5 1203.0,1812.4 1220.9,1797.7 1239.3,1783.6 1258.1,1770.0 1277.3,1757.1 1296.8,1744.9 1316.7,1733.3 1337.0,1722.6 1357.6,1712.6 1378.5,1703.5 1399.6,1695.2 1421.0,1687.9 1442.6,1681.4 1464.4,1675.9 1486.4,1671.4 1508.6,1667.8 1530.8,1665.1 1553.2,1663.5 1575.7,1662.8 1598.2,1663.0 1620.7,1664.3 1643.2,1666.4 1665.7,1669.5 1688.1,1673.5 1710.4,1678.4 1732.6,1684.1 1754.7,1690.7 1776.6,1698.0 1798.3,1706.1 1819.7,1714.9 1840.8,1724.4 1861.7,1734.5 1882.2,1745.1 1902.3,1756.2 1922.1,1767.7 1941.4,1779.7  Z" style="stroke-width: 0.5;  stroke: rgb(0,0,0); fill: rgb(179,177,178);" />
<path d="M 1991.439,1322.534 A 522.500,522.500 0.00 0,1 2006.4,1371.3 L 2006.4,1371.3 1980.7,1377.8 1955.0,1384.3 1929.2,1390.7 1903.4,1397.1 1877.5,1403.4 1851.5,1409.6 1825.6,1415.8 1799.5,1422.0 1773.4,1428.1 1747.3,1434.1 1721.1,1440.0 1695.0,1445.9 1668.7,1451.7 1642.5,1457.5 1616.2,1463.2 1589.8,1468.8 1563.5,1474.3 1537.1,1479.8 1510.7,1485.1 1484.3,1490.4 1457.9,1495.7 1431.5,1500.8 1405.1,1505.9 1378.6,1510.9 1352.2,1515.8 1325.7,1520.7 1299.3,1525.4 1272.9,1530.1 1246.4,1534.7 1220.0,1539.3 1193.6,1543.7 1167.2,1548.1 1140.8,1552.4 1114.5,1556.7 1088.2,1560.9 1061.9,1565.0 1035.6,1569.0 1009.4,1573.0 983.2,1577.0  A 522.500,522.500 0.00 0,1 978.2,1526.5 L 978.2,1526.5 1004.0,1525.1 1030.0,1523.5 1056.0,1521.8 1082.1,1519.9 1108.4,1517.8 1134.7,1515.5 1161.0,1513.0 1187.5,1510.4 1213.9,1507.5 1240.5,1504.4 1267.0,1501.1 1293.6,1497.5 1320.2,1493.8 1346.7,1489.8 1373.3,1485.6 1399.9,1481.2 1426.5,1476.5 1453.0,1471.6 1479.5,1466.5 1506.0,1461.2 1532.4,1455.7 1558.7,1449.9 1585.0,1443.9 1611.2,1437.7 1637.4,1431.3 1663.4,1424.7 1689.4,1417.9 1715.3,1410.8 1741.0,1403.6 1766.7,1396.2 1792.2,1388.7 1817.6,1380.9 1842.9,1373.0 1868.0,1364.9 1893.0,1356.7 1917.9,1348.3 1942.6,1339.9 1967.1,1331.2 1991.4,1322.5  Z" style="stroke-width: 0.5;  stroke: rgb(0,0,0); fill: rgb(179,177,178);" />
<path d="M 1859.796,1121.116 A 522.500,522.500 0.00 0,1 1893.5,1156.3 L 1893.5,1156.3 1875.9,1171.4 1857.7,1186.2 1839.1,1200.7 1820.1,1214.9 1800.6,1228.6 1780.7,1241.9 1760.4,1254.6 1739.7,1266.8 1718.6,1278.4 1697.2,1289.4 1675.5,1299.6 1653.4,1309.2 1631.1,1318.0 1608.6,1326.1 1585.8,1333.4 1562.7,1339.9 1539.5,1345.6 1516.1,1350.4 1492.6,1354.4 1468.9,1357.6 1445.1,1359.9 1421.3,1361.4 1397.4,1362.0 1373.4,1361.8 1349.5,1360.8 1325.6,1358.9 1301.8,1356.3 1278.0,1352.9 1254.3,1348.7 1230.8,1343.7 1207.4,1338.1 1184.3,1331.8 1161.3,1324.8 1138.6,1317.3 1116.2,1309.1 1094.1,1300.5 1072.3,1291.4 1050.9,1281.8 1029.9,1271.9  A 522.500,522.500 0.00 0,1 1053.3,1229.0 L 1053.3,1229.0 1072.8,1240.5 1092.8,1251.7 1113.2,1262.5 1133.9,1272.7 1155.0,1282.4 1176.3,1291.5 1197.9,1299.9 1219.8,1307.6 1241.9,1314.5 1264.1,1320.7 1286.4,1326.0 1308.9,1330.5 1331.5,1334.1 1354.0,1336.9 1376.7,1338.6 1399.3,1339.5 1421.8,1339.4 1444.3,1338.3 1466.8,1336.3 1489.1,1333.3 1511.2,1329.4 1533.2,1324.5 1555.0,1318.7 1576.6,1311.9 1597.9,1304.2 1619.0,1295.7 1639.8,1286.3 1660.3,1276.0 1680.5,1265.0 1700.3,1253.2 1719.8,1240.7 1738.8,1227.5 1757.5,1213.7 1775.7,1199.4 1793.5,1184.5 1810.8,1169.2 1827.6,1153.4 1844.0,1137.4 1859.8,1121.1  Z" style="stroke-width: 0.5;  stroke: rgb(0,0,0); fill: rgb(179,177,178);" />
<path d="M 1752.123,1042.353 A 522.500,522.500 0.00 0,1 1791.8,1066.6 L 1791.8,1066.6 1779.4,1084.6 1766.5,1102.3 1753.0,1119.8 1739.1,1136.8 1724.6,1153.4 1709.8,1169.4 1694.4,1184.7 1678.7,1199.3 1662.5,1213.2 1646.0,1226.2 1629.1,1238.3 1611.8,1249.5 1594.2,1259.8 1576.3,1269.0 1558.1,1277.1 1539.7,1284.2 1521.0,1290.1 1502.1,1295.0 1483.0,1298.7 1463.8,1301.2 1444.4,1302.7 1424.9,1302.9 1405.3,1302.1 1385.6,1300.1 1365.9,1296.9 1346.3,1292.7 1326.6,1287.5 1307.0,1281.2 1287.5,1273.9 1268.1,1265.6 1248.9,1256.5 1229.9,1246.5 1211.1,1235.7 1192.6,1224.2 1174.3,1211.9 1156.4,1199.1 1138.9,1185.8 1121.7,1172.1 1105.0,1157.9  A 522.500,522.500 0.00 0,1 1137.3,1123.9 L 1137.3,1123.9 1152.4,1139.1 1167.9,1154.1 1183.8,1168.6 1200.1,1182.6 1216.6,1196.0 1233.5,1208.7 1250.6,1220.7 1267.9,1231.8 1285.3,1242.0 1302.9,1251.3 1320.6,1259.5 1338.4,1266.7 1356.3,1272.8 1374.1,1277.7 1392.0,1281.5 1409.8,1284.1 1427.5,1285.5 1445.1,1285.7 1462.6,1284.6 1480.0,1282.3 1497.1,1278.8 1514.1,1274.0 1530.9,1268.1 1547.4,1260.9 1563.6,1252.6 1579.5,1243.2 1595.2,1232.6 1610.5,1221.1 1625.4,1208.5 1640.0,1195.0 1654.2,1180.6 1668.0,1165.3 1681.4,1149.3 1694.4,1132.7 1706.9,1115.4 1718.9,1097.7 1730.5,1079.5 1741.5,1061.0 1752.1,1042.4  Z" style="stroke-width: 0.5;  stroke: rgb(0,0,0); fill: rgb(179,177,178);" />
<path d="M 1825.740,1091.467 A 522.500,522.500 0.00 0,1 1859.1,1120.4 L 1859.1,1120.4 1843.3,1136.7 1827.0,1152.8 1810.2,1168.5 1792.9,1183.9 1775.2,1198.8 1757.0,1213.2 1738.4,1227.0 1719.4,1240.2 1700.0,1252.7 1680.2,1264.5 1660.1,1275.5 1639.6,1285.8 1618.8,1295.2 1597.8,1303.7 1576.5,1311.4 1554.9,1318.1 1533.2,1323.9 1511.2,1328.8 1489.1,1332.7 1466.8,1335.7 1444.4,1337.7 1422.0,1338.7 1399.4,1338.8 1376.9,1337.9 1354.3,1336.1 1331.8,1333.3 1309.3,1329.7 1286.8,1325.2 1264.5,1319.8 1242.3,1313.5 1220.3,1306.5 1198.5,1298.8 1176.9,1290.3 1155.6,1281.2 1134.6,1271.4 1113.9,1261.1 1093.6,1250.4 1073.7,1239.1 1054.2,1227.5  A 522.500,522.500 0.00 0,1 1078.8,1190.9 L 1078.8,1190.9 1096.9,1203.8 1115.4,1216.4 1134.3,1228.6 1153.7,1240.2 1173.3,1251.2 1193.3,1261.6 1213.5,1271.3 1233.9,1280.3 1254.6,1288.4 1275.4,1295.7 1296.3,1302.1 1317.4,1307.5 1338.5,1312.0 1359.7,1315.5 1380.9,1318.0 1402.0,1319.5 1423.1,1319.9 1444.2,1319.2 1465.1,1317.5 1485.9,1314.7 1506.6,1310.9 1527.1,1306.0 1547.3,1300.1 1567.4,1293.2 1587.2,1285.2 1606.7,1276.3 1625.9,1266.5 1644.8,1255.7 1663.3,1244.0 1681.5,1231.6 1699.3,1218.3 1716.7,1204.4 1733.7,1189.7 1750.3,1174.4 1766.3,1158.6 1781.9,1142.4 1797.1,1125.7 1811.7,1108.7 1825.7,1091.5  Z" style="stroke-width: 0.5;  stroke: rgb(0,0,0); fill: rgb(179,177,178);" />
<path d="M 1974.036,1719.764 A 522.500,522.500 0.00 0,1 1954.2,1758.3 L 1954.2,1758.3 1934.1,1747.2 1913.7,1736.5 1892.8,1726.1 1871.6,1716.3 1850.0,1707.0 1828.1,1698.3 1806.0,1690.3 1783.6,1682.9 1761.1,1676.2 1738.3,1670.3 1715.4,1665.1 1692.4,1660.8 1669.3,1657.3 1646.2,1654.7 1623.0,1652.9 1599.8,1652.1 1576.6,1652.1 1553.4,1653.0 1530.4,1654.9 1507.4,1657.7 1484.6,1661.4 1461.9,1666.0 1439.3,1671.5 1417.0,1677.8 1394.9,1685.1 1373.0,1693.1 1351.4,1702.0 1330.1,1711.7 1309.1,1722.2 1288.4,1733.3 1268.1,1745.2 1248.1,1757.7 1228.6,1770.8 1209.4,1784.5 1190.7,1798.6 1172.4,1813.2 1154.6,1828.2 1137.3,1843.5 1120.5,1859.1  A 522.500,522.500 0.00 0,1 1091.9,1826.3 L 1091.9,1826.3 1110.3,1811.8 1129.2,1797.7 1148.5,1783.8 1168.3,1770.3 1188.5,1757.3 1209.1,1744.7 1230.1,1732.6 1251.4,1721.0 1273.1,1710.0 1295.2,1699.7 1317.5,1690.0 1340.1,1680.9 1362.9,1672.6 1386.1,1665.0 1409.4,1658.1 1432.9,1652.1 1456.6,1646.7 1480.5,1642.2 1504.5,1638.5 1528.6,1635.6 1552.8,1633.5 1577.0,1632.2 1601.3,1631.7 1625.6,1632.0 1649.9,1633.1 1674.2,1635.0 1698.4,1637.7 1722.5,1641.1 1746.5,1645.2 1770.3,1650.0 1794.0,1655.5 1817.5,1661.6 1840.8,1668.4 1863.8,1675.8 1886.5,1683.6 1908.9,1692.0 1931.0,1700.9 1952.7,1710.1 1974.0,1719.8  Z" style="stroke-width: 0.5;  stroke: rgb(0,0,0); fill: rgb(179,177,178);" />
<path d="M 1561.644,981.149 A 522.500,522.500 0.00 0,1 1599.1,987.0 L 1599.1,987.0 1595.1,1007.0 1590.7,1026.8 1586.1,1046.4 1581.2,1065.6 1575.9,1084.2 1570.4,1102.1 1564.6,1119.3 1558.5,1135.7 1552.1,1151.1 1545.4,1165.4 1538.4,1178.7 1531.2,1190.7 1523.7,1201.6 1515.9,1211.1 1507.9,1219.3 1499.7,1226.1 1491.3,1231.5 1482.6,1235.5 1473.8,1238.0 1464.7,1239.1 1455.5,1238.7 1446.2,1236.8 1436.7,1233.5 1427.2,1228.8 1417.5,1222.7 1407.7,1215.2 1397.9,1206.4 1388.1,1196.3 1378.2,1185.1 1368.4,1172.7 1358.6,1159.2 1348.8,1144.7 1339.2,1129.3 1329.6,1113.1 1320.2,1096.3 1311.0,1078.8 1301.9,1060.8 1293.1,1042.5 1284.6,1024.0  A 522.500,522.500 0.00 0,1 1298.2,1018.1 L 1298.2,1018.1 1306.1,1036.7 1314.3,1055.2 1322.7,1073.3 1331.2,1091.0 1339.8,1108.1 1348.5,1124.4 1357.3,1140.0 1366.2,1154.6 1375.0,1168.2 1383.8,1180.8 1392.6,1192.2 1401.3,1202.4 1410.0,1211.3 1418.5,1218.9 1426.9,1225.1 1435.2,1229.9 1443.4,1233.2 1451.3,1235.1 1459.1,1235.5 1466.7,1234.5 1474.0,1231.9 1481.2,1227.9 1488.1,1222.5 1494.7,1215.6 1501.1,1207.3 1507.2,1197.7 1513.1,1186.7 1518.7,1174.5 1524.0,1161.2 1529.0,1146.7 1533.8,1131.1 1538.3,1114.6 1542.4,1097.2 1546.3,1079.1 1549.9,1060.3 1553.3,1041.0 1556.3,1021.3 1559.1,1001.3 1561.6,981.1  Z" style="stroke-width: 0.5;  stroke: rgb(0,0,0); fill: rgb(179,177,178);" />
<path d="M 1939.948,1218.128 A 522.500,522.500 0.00 0,1 1958.1,1248.7 L 1958.1,1248.7 1936.5,1260.3 1914.6,1271.8 1892.3,1282.9 1869.7,1293.8 1846.7,1304.4 1823.5,1314.6 1800.0,1324.5 1776.2,1333.9 1752.1,1343.0 1727.8,1351.6 1703.2,1359.8 1678.5,1367.5 1653.5,1374.8 1628.4,1381.5 1603.1,1387.8 1577.6,1393.5 1552.0,1398.7 1526.3,1403.3 1500.5,1407.4 1474.6,1411.0 1448.6,1414.0 1422.6,1416.5 1396.5,1418.4 1370.5,1419.7 1344.4,1420.6 1318.4,1420.9 1292.4,1420.7 1266.5,1419.9 1240.6,1418.7 1214.9,1416.9 1189.3,1414.7 1163.8,1412.0 1138.5,1408.8 1113.3,1405.3 1088.4,1401.3 1063.7,1396.9 1039.2,1392.2 1015.0,1387.1 991.1,1381.7  A 522.500,522.500 0.00 0,1 1000.2,1347.5 L 1000.2,1347.5 1023.4,1354.4 1046.8,1360.9 1070.5,1367.0 1094.6,1372.7 1118.9,1378.0 1143.4,1382.8 1168.1,1387.2 1193.0,1391.0 1218.0,1394.3 1243.2,1397.0 1268.6,1399.1 1294.0,1400.7 1319.4,1401.6 1345.0,1402.0 1370.5,1401.7 1396.0,1400.8 1421.6,1399.2 1447.1,1397.0 1472.5,1394.2 1497.9,1390.7 1523.1,1386.5 1548.3,1381.8 1573.3,1376.4 1598.1,1370.4 1622.8,1363.7 1647.3,1356.5 1671.5,1348.7 1695.6,1340.3 1719.4,1331.4 1742.9,1322.0 1766.1,1312.1 1789.1,1301.7 1811.7,1290.8 1834.0,1279.5 1855.9,1267.9 1877.5,1255.9 1898.7,1243.6 1919.5,1231.0 1939.9,1218.1  Z" style="stroke-width: 0.5;  stroke: rgb(0,0,0); fill: rgb(179,177,178);" />
<path d="M 1987.923,1686.915 A 522.500,522.500 0.00 0,1 1974.7,1718.4 L 1974.7,1718.4 1953.3,1708.8 1931.6,1699.6 1909.4,1690.8 1887.0,1682.5 1864.2,1674.7 1841.2,1667.4 1817.9,1660.7 1794.4,1654.6 1770.7,1649.1 1746.8,1644.4 1722.8,1640.3 1698.6,1636.9 1674.4,1634.3 1650.1,1632.5 1625.8,1631.4 1601.5,1631.2 1577.2,1631.7 1552.9,1633.0 1528.7,1635.1 1504.6,1638.1 1480.6,1641.8 1456.7,1646.4 1433.0,1651.7 1409.4,1657.8 1386.1,1664.7 1362.9,1672.3 1340.0,1680.6 1317.4,1689.7 1295.1,1699.4 1273.1,1709.8 1251.3,1720.7 1230.0,1732.3 1209.0,1744.4 1188.4,1757.0 1168.2,1770.1 1148.4,1783.6 1129.0,1797.4 1110.1,1811.6 1091.7,1826.0  A 522.500,522.500 0.00 0,1 1071.2,1798.6 L 1071.2,1798.6 1090.8,1785.2 1110.9,1772.0 1131.4,1759.1 1152.3,1746.6 1173.6,1734.5 1195.3,1722.8 1217.3,1711.5 1239.7,1700.8 1262.3,1690.5 1285.3,1680.9 1308.6,1671.8 1332.1,1663.3 1355.8,1655.5 1379.8,1648.2 1404.0,1641.7 1428.3,1635.9 1452.9,1630.7 1477.5,1626.2 1502.3,1622.5 1527.2,1619.5 1552.1,1617.1 1577.1,1615.6 1602.2,1614.7 1627.2,1614.5 1652.3,1615.1 1677.3,1616.3 1702.2,1618.2 1727.1,1620.8 1751.8,1624.1 1776.5,1627.9 1800.9,1632.4 1825.2,1637.5 1849.3,1643.1 1873.1,1649.3 1896.7,1656.0 1920.0,1663.1 1943.0,1670.7 1965.6,1678.6 1987.9,1686.9  Z" style="stroke-width: 0.5;  stroke: rgb(0,0,0); fill: rgb(179,177,178);" />
<path d="M 1999.426,1653.559 A 522.500,522.500 0.00 0,1 1988.9,1684.3 L 1988.9,1684.3 1966.6,1676.1 1943.9,1668.2 1920.8,1660.8 1897.5,1653.8 1873.8,1647.2 1849.9,1641.1 1825.8,1635.6 1801.5,1630.6 1776.9,1626.2 1752.3,1622.4 1727.5,1619.3 1702.6,1616.8 1677.6,1614.9 1652.5,1613.8 1627.5,1613.3 1602.4,1613.5 1577.3,1614.4 1552.2,1616.1 1527.2,1618.4 1502.3,1621.5 1477.5,1625.3 1452.8,1629.8 1428.2,1635.0 1403.8,1640.8 1379.6,1647.4 1355.6,1654.6 1331.8,1662.4 1308.3,1670.9 1285.0,1680.0 1262.0,1689.7 1239.2,1699.9 1216.9,1710.6 1194.8,1721.8 1173.1,1733.5 1151.7,1745.6 1130.8,1758.1 1110.2,1770.9 1090.1,1784.0 1070.4,1797.4  A 522.500,522.500 0.00 0,1 1052.9,1770.4 L 1052.9,1770.4 1073.7,1758.1 1094.9,1746.0 1116.5,1734.2 1138.4,1722.7 1160.7,1711.5 1183.3,1700.7 1206.2,1690.4 1229.5,1680.4 1253.0,1671.0 1276.8,1662.0 1300.9,1653.5 1325.1,1645.6 1349.6,1638.3 1374.3,1631.5 1399.2,1625.2 1424.3,1619.6 1449.5,1614.6 1474.8,1610.2 1500.2,1606.4 1525.7,1603.3 1551.3,1600.8 1576.9,1598.9 1602.6,1597.6 1628.2,1597.0 1653.9,1596.9 1679.5,1597.5 1705.0,1598.7 1730.5,1600.5 1755.9,1602.8 1781.2,1605.7 1806.3,1609.2 1831.2,1613.2 1856.0,1617.6 1880.6,1622.6 1904.9,1628.0 1929.0,1633.8 1952.8,1640.1 1976.3,1646.6 1999.4,1653.6  Z" style="stroke-width: 0.5;  stroke: rgb(0,0,0); fill: rgb(179,177,178);" />
<path d="M 1867.963,1870.958 A 522.500,522.500 0.00 0,1 1846.0,1891.5 L 1846.0,1891.5 1831.7,1875.7 1817.0,1860.2 1801.9,1845.1 1786.5,1830.6 1770.7,1816.6 1754.7,1803.3 1738.4,1790.9 1721.9,1779.2 1705.3,1768.5 1688.5,1758.7 1671.6,1750.0 1654.7,1742.3 1637.7,1735.8 1620.7,1730.4 1603.6,1726.3 1586.7,1723.3 1569.8,1721.6 1553.0,1721.2 1536.3,1722.0 1519.8,1724.0 1503.4,1727.4 1487.3,1732.0 1471.3,1737.8 1455.6,1744.9 1440.2,1753.1 1425.0,1762.6 1410.2,1773.1 1395.6,1784.7 1381.4,1797.3 1367.6,1811.0 1354.1,1825.5 1341.1,1840.8 1328.4,1857.0 1316.1,1873.8 1304.3,1891.2 1293.0,1909.1 1282.1,1927.5 1271.6,1946.1 1261.7,1965.0  A 522.500,522.500 0.00 0,1 1235.4,1950.6 L 1235.4,1950.6 1246.6,1932.1 1258.2,1913.9 1270.3,1895.9 1282.9,1878.4 1296.0,1861.4 1309.5,1845.0 1323.5,1829.2 1337.8,1814.2 1352.6,1800.0 1367.7,1786.7 1383.3,1774.3 1399.1,1762.9 1415.3,1752.6 1431.7,1743.3 1448.5,1735.1 1465.5,1728.1 1482.8,1722.3 1500.2,1717.6 1517.9,1714.2 1535.7,1711.9 1553.7,1710.9 1571.8,1711.1 1589.9,1712.5 1608.2,1715.1 1626.4,1718.8 1644.7,1723.7 1662.9,1729.7 1681.1,1736.8 1699.2,1745.0 1717.1,1754.1 1735.0,1764.2 1752.6,1775.2 1770.0,1787.0 1787.2,1799.6 1804.1,1812.8 1820.6,1826.7 1836.8,1841.0 1852.6,1855.8 1868.0,1871.0  Z" style="stroke-width: 0.5;  stroke: rgb(0,0,0); fill: rgb(179,177,178);" />
<path d="M 1976.800,1286.298 A 522.500,522.500 0.00 0,1 1987.2,1311.2 L 1987.2,1311.2 1963.5,1320.2 1939.6,1329.1 1915.5,1337.8 1891.1,1346.3 1866.5,1354.5 1841.7,1362.5 1816.8,1370.3 1791.6,1377.8 1766.2,1385.0 1740.7,1392.0 1715.0,1398.6 1689.2,1405.0 1663.3,1411.0 1637.2,1416.6 1611.0,1422.0 1584.7,1427.0 1558.3,1431.7 1531.9,1436.0 1505.4,1440.0 1478.8,1443.6 1452.2,1446.8 1425.5,1449.7 1398.9,1452.3 1372.2,1454.4 1345.5,1456.3 1318.9,1457.7 1292.3,1458.9 1265.7,1459.7 1239.2,1460.1 1212.8,1460.2 1186.4,1460.0 1160.1,1459.5 1134.0,1458.7 1107.9,1457.6 1082.0,1456.2 1056.3,1454.5 1030.7,1452.6 1005.3,1450.4 980.1,1448.0  A 522.500,522.500 0.00 0,1 983.6,1420.5 L 983.6,1420.5 1008.3,1424.2 1033.3,1427.6 1058.4,1430.7 1083.8,1433.5 1109.4,1436.0 1135.1,1438.1 1161.0,1439.9 1187.0,1441.4 1213.1,1442.4 1239.3,1443.1 1265.6,1443.4 1292.0,1443.2 1318.4,1442.7 1344.9,1441.7 1371.3,1440.3 1397.8,1438.5 1424.3,1436.2 1450.8,1433.6 1477.2,1430.4 1503.5,1426.9 1529.8,1422.9 1556.1,1418.4 1582.2,1413.6 1608.2,1408.3 1634.1,1402.6 1659.9,1396.5 1685.5,1390.1 1711.0,1383.2 1736.2,1375.9 1761.3,1368.3 1786.2,1360.4 1810.9,1352.1 1835.4,1343.5 1859.6,1334.6 1883.6,1325.4 1907.3,1316.0 1930.8,1306.3 1953.9,1296.4 1976.8,1286.3  Z" style="stroke-width: 0.5;  stroke: rgb(0,0,0); fill: rgb(179,177,178);" />
<path d="M 1899.715,1163.498 A 522.500,522.500 0.00 0,1 1915.0,1182.6 L 1915.0,1182.6 1896.1,1196.7 1876.8,1210.6 1857.0,1224.2 1836.8,1237.4 1816.2,1250.3 1795.2,1262.7 1773.9,1274.6 1752.1,1286.0 1730.1,1296.9 1707.7,1307.2 1685.0,1316.9 1662.0,1325.9 1638.8,1334.3 1615.3,1341.9 1591.6,1348.9 1567.8,1355.1 1543.7,1360.7 1519.5,1365.4 1495.1,1369.4 1470.6,1372.7 1446.1,1375.2 1421.4,1376.9 1396.8,1377.9 1372.1,1378.1 1347.4,1377.5 1322.7,1376.2 1298.1,1374.2 1273.6,1371.5 1249.2,1368.1 1224.9,1364.0 1200.7,1359.3 1176.8,1354.0 1153.0,1348.0 1129.5,1341.5 1106.3,1334.5 1083.3,1327.0 1060.7,1319.0 1038.4,1310.7 1016.5,1301.9  A 522.500,522.500 0.00 0,1 1026.4,1279.3 L 1026.4,1279.3 1047.6,1289.0 1069.2,1298.2 1091.2,1307.1 1113.6,1315.4 1136.2,1323.3 1159.1,1330.6 1182.3,1337.3 1205.7,1343.4 1229.3,1348.8 1253.0,1353.5 1276.9,1357.6 1300.8,1360.8 1324.9,1363.3 1349.0,1365.0 1373.2,1366.0 1397.3,1366.1 1421.4,1365.4 1445.5,1363.9 1469.5,1361.5 1493.4,1358.4 1517.1,1354.4 1540.8,1349.6 1564.2,1343.9 1587.5,1337.5 1610.6,1330.4 1633.4,1322.4 1656.0,1313.7 1678.3,1304.3 1700.3,1294.2 1722.0,1283.5 1743.3,1272.1 1764.3,1260.1 1784.9,1247.6 1805.1,1234.6 1824.9,1221.1 1844.3,1207.2 1863.3,1192.9 1881.7,1178.3 1899.7,1163.5  Z" style="stroke-width: 0.5;  stroke: rgb(0,0,0); fill: rgb(179,177,178);" />
<path d="M 1953.652,1759.241 A 522.500,522.500 0.00 0,1 1942.2,1778.4 L 1942.2,1778.4 1922.8,1766.5 1903.1,1755.0 1882.9,1743.9 1862.3,1733.4 1841.4,1723.4 1820.3,1713.9 1798.8,1705.2 1777.1,1697.2 1755.2,1689.9 1733.1,1683.3 1710.8,1677.7 1688.5,1672.8 1666.0,1668.9 1643.5,1665.8 1621.0,1663.7 1598.4,1662.5 1575.9,1662.3 1553.4,1663.0 1531.0,1664.7 1508.7,1667.4 1486.6,1671.0 1464.5,1675.6 1442.7,1681.2 1421.1,1687.6 1399.7,1695.0 1378.5,1703.3 1357.6,1712.4 1337.0,1722.4 1316.8,1733.2 1296.8,1744.7 1277.3,1757.0 1258.1,1769.9 1239.3,1783.5 1220.9,1797.6 1203.0,1812.3 1185.5,1827.4 1168.5,1842.9 1152.0,1858.8 1136.0,1874.8  A 522.500,522.500 0.00 0,1 1120.5,1859.1 L 1120.5,1859.1 1137.3,1843.6 1154.6,1828.2 1172.4,1813.3 1190.7,1798.7 1209.4,1784.5 1228.6,1770.8 1248.1,1757.7 1268.1,1745.3 1288.4,1733.4 1309.1,1722.2 1330.1,1711.8 1351.4,1702.1 1373.0,1693.3 1394.8,1685.2 1416.9,1678.0 1439.3,1671.6 1461.8,1666.2 1484.5,1661.6 1507.3,1657.9 1530.2,1655.2 1553.3,1653.3 1576.4,1652.4 1599.6,1652.4 1622.8,1653.3 1646.0,1655.1 1669.1,1657.8 1692.2,1661.3 1715.2,1665.6 1738.0,1670.8 1760.8,1676.8 1783.3,1683.5 1805.7,1690.9 1827.8,1699.0 1849.6,1707.8 1871.1,1717.1 1892.3,1727.0 1913.2,1737.3 1933.6,1748.1 1953.7,1759.2  Z" style="stroke-width: 0.5;  stroke: rgb(0,0,0); fill: rgb(179,177,178);" />
<path d="M 1782.298,1939.675 A 522.500,522.500 0.00 0,1 1763.8,1951.0 L 1763.8,1951.0 1753.2,1933.3 1742.3,1915.8 1731.1,1898.7 1719.6,1882.1 1707.9,1866.1 1696.1,1850.8 1684.0,1836.3 1671.9,1822.7 1659.6,1810.1 1647.3,1798.5 1634.9,1788.0 1622.5,1778.7 1610.1,1770.7 1597.7,1763.9 1585.4,1758.4 1573.2,1754.3 1561.1,1751.5 1549.1,1750.2 1537.3,1750.2 1525.7,1751.7 1514.2,1754.6 1502.9,1758.8 1491.8,1764.5 1481.0,1771.5 1470.5,1779.8 1460.2,1789.5 1450.2,1800.3 1440.4,1812.4 1431.0,1825.6 1421.9,1839.9 1413.2,1855.1 1404.7,1871.3 1396.7,1888.4 1388.9,1906.1 1381.6,1924.5 1374.6,1943.4 1367.9,1962.8 1361.7,1982.4 1355.8,2002.2  A 522.500,522.500 0.00 0,1 1335.2,1995.8 L 1335.2,1995.8 1342.0,1976.2 1349.1,1956.7 1356.7,1937.5 1364.6,1918.8 1373.0,1900.5 1381.7,1882.9 1390.8,1866.0 1400.2,1850.0 1410.0,1834.8 1420.2,1820.6 1430.6,1807.5 1441.4,1795.5 1452.5,1784.7 1463.9,1775.1 1475.5,1766.7 1487.4,1759.7 1499.6,1754.0 1511.9,1749.6 1524.5,1746.6 1537.3,1745.0 1550.2,1744.8 1563.2,1746.0 1576.4,1748.5 1589.7,1752.4 1603.1,1757.6 1616.5,1764.1 1629.9,1771.8 1643.3,1780.8 1656.7,1790.9 1670.0,1802.1 1683.3,1814.4 1696.4,1827.6 1709.4,1841.7 1722.2,1856.7 1734.7,1872.3 1747.1,1888.5 1759.2,1905.2 1770.9,1922.3 1782.3,1939.7  Z" style="stroke-width: 0.5;  stroke: rgb(0,0,0); fill: rgb(179,177,178);" />
<path d="M 2022.433,1491.634 A 522.500,522.500 0.00 0,1 2022.4,1509.8 L 2022.4,1509.8 1996.5,1509.4 1970.4,1509.1 1944.2,1509.0 1918.0,1509.0 1891.6,1509.2 1865.2,1509.6 1838.6,1510.2 1812.1,1510.9 1785.4,1511.8 1758.7,1512.9 1732.0,1514.2 1705.2,1515.7 1678.4,1517.4 1651.6,1519.3 1624.7,1521.4 1597.9,1523.7 1571.0,1526.2 1544.2,1528.9 1517.3,1531.9 1490.5,1535.0 1463.7,1538.4 1437.0,1541.9 1410.3,1545.7 1383.6,1549.6 1357.0,1553.8 1330.4,1558.1 1304.0,1562.7 1277.6,1567.4 1251.3,1572.3 1225.0,1577.4 1198.9,1582.7 1172.9,1588.1 1146.9,1593.7 1121.1,1599.5 1095.4,1605.4 1069.9,1611.4 1044.4,1617.6 1019.1,1623.8 994.0,1630.2  A 522.500,522.500 0.00 0,1 989.8,1612.5 L 989.8,1612.5 1015.3,1606.9 1041.0,1601.4 1066.8,1596.0 1092.7,1590.7 1118.6,1585.5 1144.7,1580.4 1170.8,1575.5 1197.1,1570.6 1223.4,1565.9 1249.7,1561.3 1276.2,1556.8 1302.7,1552.5 1329.2,1548.3 1355.9,1544.3 1382.5,1540.4 1409.2,1536.7 1435.9,1533.1 1462.7,1529.6 1489.5,1526.3 1516.3,1523.2 1543.1,1520.2 1570.0,1517.4 1596.8,1514.7 1623.6,1512.2 1650.5,1509.8 1677.3,1507.6 1704.1,1505.5 1730.9,1503.6 1757.7,1501.9 1784.4,1500.2 1811.1,1498.8 1837.7,1497.4 1864.3,1496.2 1890.8,1495.1 1917.3,1494.2 1943.7,1493.4 1970.0,1492.7 1996.3,1492.1 2022.4,1491.6  Z" style="stroke-width: 0.5;  stroke: rgb(0,0,0); fill: rgb(179,177,178);" />
<path d="M 1799.721,1072.012 A 522.500,522.500 0.00 0,1 1813.3,1081.8 L 1813.3,1081.8 1799.8,1099.4 1785.8,1116.7 1771.3,1133.7 1756.3,1150.3 1740.8,1166.4 1724.9,1182.0 1708.5,1196.9 1691.7,1211.2 1674.4,1224.7 1656.8,1237.4 1638.8,1249.3 1620.5,1260.3 1601.9,1270.3 1582.9,1279.4 1563.6,1287.5 1544.1,1294.5 1524.4,1300.5 1504.4,1305.5 1484.3,1309.3 1464.0,1312.1 1443.6,1313.8 1423.0,1314.4 1402.4,1313.9 1381.7,1312.3 1361.0,1309.7 1340.3,1306.0 1319.6,1301.4 1299.0,1295.7 1278.5,1289.1 1258.1,1281.5 1237.9,1273.1 1217.9,1263.9 1198.1,1253.9 1178.6,1243.2 1159.3,1231.8 1140.4,1219.8 1121.9,1207.3 1103.8,1194.4 1086.1,1181.1  A 522.500,522.500 0.00 0,1 1096.6,1167.9 L 1096.6,1167.9 1113.8,1181.6 1131.3,1195.0 1149.3,1208.0 1167.6,1220.4 1186.3,1232.3 1205.3,1243.5 1224.5,1253.9 1243.9,1263.6 1263.6,1272.4 1283.4,1280.3 1303.3,1287.3 1323.3,1293.3 1343.4,1298.3 1363.5,1302.3 1383.6,1305.1 1403.7,1306.9 1423.7,1307.6 1443.6,1307.2 1463.5,1305.6 1483.2,1302.9 1502.7,1299.1 1522.0,1294.2 1541.1,1288.2 1560.0,1281.1 1578.6,1272.9 1596.9,1263.7 1614.9,1253.6 1632.6,1242.4 1649.9,1230.3 1666.8,1217.4 1683.4,1203.6 1699.6,1189.1 1715.3,1173.9 1730.6,1158.1 1745.4,1141.7 1759.7,1124.8 1773.6,1107.5 1786.9,1089.9 1799.7,1072.0  Z" style="stroke-width: 0.5;  stroke: rgb(0,0,0); fill: rgb(179,177,178);" />
<path d="M 1969.729,1271.175 A 522.500,522.500 0.00 0,1 1976.3,1285.3 L 1976.3,1285.3 1953.5,1295.4 1930.4,1305.4 1907.0,1315.1 1883.3,1324.6 1859.3,1333.8 1835.1,1342.7 1810.7,1351.3 1786.0,1359.7 1761.1,1367.6 1736.0,1375.3 1710.8,1382.5 1685.3,1389.4 1659.7,1395.9 1634.0,1402.0 1608.1,1407.7 1582.1,1413.0 1556.0,1417.8 1529.8,1422.3 1503.5,1426.3 1477.1,1429.8 1450.7,1432.9 1424.3,1435.6 1397.8,1437.8 1371.3,1439.6 1344.8,1441.0 1318.4,1442.0 1292.0,1442.5 1265.6,1442.6 1239.3,1442.3 1213.1,1441.5 1187.0,1440.4 1161.0,1439.0 1135.2,1437.1 1109.5,1434.9 1084.0,1432.4 1058.6,1429.5 1033.4,1426.3 1008.5,1422.9 983.8,1419.1  A 522.500,522.500 0.00 0,1 986.4,1403.9 L 986.4,1403.9 1010.8,1408.3 1035.5,1412.4 1060.4,1416.2 1085.5,1419.7 1110.8,1422.9 1136.3,1425.6 1162.0,1428.0 1187.8,1430.0 1213.7,1431.6 1239.7,1432.7 1265.9,1433.4 1292.1,1433.7 1318.3,1433.5 1344.6,1432.8 1371.0,1431.7 1397.3,1430.1 1423.6,1428.0 1449.9,1425.4 1476.2,1422.4 1502.4,1418.8 1528.5,1414.8 1554.6,1410.3 1580.5,1405.4 1606.3,1399.9 1632.0,1394.0 1657.5,1387.7 1682.9,1380.9 1708.1,1373.7 1733.1,1366.1 1757.9,1358.1 1782.5,1349.7 1806.9,1341.0 1831.0,1331.9 1854.8,1322.4 1878.4,1312.7 1901.7,1302.7 1924.7,1292.4 1947.4,1281.9 1969.7,1271.2  Z" style="stroke-width: 0.5;  stroke: rgb(0,0,0); fill: rgb(179,177,178);" />
<path d="M 2021.829,1473.526 A 522.500,522.500 0.00 0,1 2022.4,1488.6 L 2022.4,1488.6 1996.2,1489.3 1969.9,1490.0 1943.5,1490.8 1917.1,1491.8 1890.6,1492.8 1864.1,1494.0 1837.5,1495.3 1810.8,1496.7 1784.2,1498.3 1757.4,1500.0 1730.7,1501.8 1703.9,1503.8 1677.1,1505.9 1650.3,1508.2 1623.4,1510.6 1596.6,1513.1 1569.8,1515.8 1542.9,1518.7 1516.1,1521.6 1489.3,1524.8 1462.5,1528.0 1435.7,1531.4 1409.0,1535.0 1382.3,1538.7 1355.6,1542.5 1329.0,1546.5 1302.5,1550.6 1275.9,1554.8 1249.5,1559.2 1223.1,1563.7 1196.7,1568.3 1170.5,1573.0 1144.3,1577.9 1118.2,1582.8 1092.2,1587.9 1066.2,1593.0 1040.4,1598.3 1014.6,1603.6 989.0,1609.0  A 522.500,522.500 0.00 0,1 986.0,1594.0 L 986.0,1594.0 1012.0,1589.2 1038.0,1584.6 1064.1,1580.0 1090.3,1575.5 1116.5,1571.0 1142.8,1566.6 1169.2,1562.3 1195.6,1558.1 1222.0,1554.0 1248.5,1549.9 1275.0,1545.9 1301.6,1542.1 1328.2,1538.3 1354.9,1534.6 1381.5,1531.0 1408.2,1527.5 1435.0,1524.0 1461.7,1520.7 1488.5,1517.5 1515.2,1514.4 1542.0,1511.4 1568.8,1508.5 1595.6,1505.7 1622.4,1503.0 1649.2,1500.3 1676.0,1497.8 1702.8,1495.4 1729.5,1493.1 1756.2,1490.9 1783.0,1488.7 1809.7,1486.7 1836.3,1484.8 1862.9,1482.9 1889.5,1481.1 1916.1,1479.5 1942.6,1477.9 1969.1,1476.3 1995.5,1474.9 2021.8,1473.5  Z" style="stroke-width: 0.5;  stroke: rgb(0,0,0); fill: rgb(179,177,178);" />
<path d="M 1928.410,1200.883 A 522.500,522.500 0.00 0,1 1936.6,1212.9 L 1936.6,1212.9 1916.4,1225.9 1895.7,1238.7 1874.7,1251.2 1853.3,1263.4 1831.6,1275.3 1809.4,1286.7 1787.0,1297.8 1764.2,1308.3 1741.1,1318.4 1717.7,1328.0 1694.1,1337.0 1670.2,1345.5 1646.1,1353.4 1621.7,1360.8 1597.2,1367.5 1572.4,1373.6 1547.5,1379.0 1522.5,1383.8 1497.3,1388.0 1472.1,1391.5 1446.8,1394.3 1421.4,1396.5 1395.9,1398.0 1370.5,1398.9 1345.0,1399.1 1319.6,1398.7 1294.2,1397.6 1268.9,1395.9 1243.7,1393.7 1218.6,1390.8 1193.7,1387.4 1168.9,1383.4 1144.2,1378.9 1119.8,1373.9 1095.7,1368.4 1071.8,1362.5 1048.1,1356.1 1024.8,1349.4 1001.8,1342.4  A 522.500,522.500 0.00 0,1 1006.4,1328.6 L 1006.4,1328.6 1029.0,1336.2 1052.0,1343.5 1075.3,1350.4 1098.9,1356.9 1122.8,1362.9 1146.9,1368.4 1171.2,1373.3 1195.7,1377.8 1220.4,1381.6 1245.2,1384.9 1270.2,1387.5 1295.2,1389.5 1320.4,1390.9 1345.5,1391.6 1370.7,1391.6 1395.9,1390.9 1421.1,1389.5 1446.2,1387.4 1471.3,1384.7 1496.3,1381.2 1521.2,1377.1 1545.9,1372.2 1570.5,1366.7 1594.9,1360.5 1619.2,1353.6 1643.2,1346.1 1667.0,1338.0 1690.6,1329.3 1713.9,1320.0 1736.9,1310.1 1759.6,1299.7 1782.0,1288.7 1804.1,1277.3 1825.8,1265.5 1847.1,1253.2 1868.0,1240.6 1888.6,1227.6 1908.7,1214.4 1928.4,1200.9  Z" style="stroke-width: 0.5;  stroke: rgb(0,0,0); fill: rgb(179,177,178);" />
<path d="M 2022.387,1510.870 A 522.500,522.500 0.00 0,1 2021.9,1524.0 L 2021.9,1524.0 1996.2,1522.9 1970.3,1521.9 1944.3,1521.2 1918.1,1520.6 1891.9,1520.2 1865.5,1520.1 1839.1,1520.1 1812.6,1520.3 1786.0,1520.8 1759.3,1521.5 1732.6,1522.4 1705.9,1523.6 1679.1,1525.0 1652.2,1526.6 1625.4,1528.5 1598.6,1530.7 1571.7,1533.0 1544.9,1535.7 1518.1,1538.5 1491.3,1541.7 1464.5,1545.0 1437.8,1548.6 1411.1,1552.5 1384.5,1556.6 1358.0,1560.9 1331.5,1565.5 1305.1,1570.3 1278.8,1575.3 1252.6,1580.6 1226.5,1586.0 1200.5,1591.7 1174.6,1597.5 1148.9,1603.6 1123.3,1609.8 1097.8,1616.2 1072.5,1622.8 1047.4,1629.5 1022.4,1636.3 997.5,1643.3  A 522.500,522.500 0.00 0,1 994.1,1630.7 L 994.1,1630.7 1019.2,1624.2 1044.5,1617.9 1069.9,1611.8 1095.5,1605.7 1121.2,1599.8 1147.0,1594.0 1172.9,1588.4 1198.9,1583.0 1225.1,1577.7 1251.3,1572.6 1277.6,1567.7 1304.0,1563.0 1330.5,1558.4 1357.0,1554.1 1383.6,1549.9 1410.3,1546.0 1437.0,1542.2 1463.7,1538.7 1490.5,1535.4 1517.3,1532.2 1544.2,1529.3 1571.0,1526.6 1597.9,1524.1 1624.7,1521.8 1651.6,1519.8 1678.4,1517.9 1705.2,1516.2 1732.0,1514.8 1758.8,1513.5 1785.4,1512.4 1812.1,1511.6 1838.7,1510.9 1865.2,1510.4 1891.6,1510.0 1918.0,1509.9 1944.2,1509.9 1970.4,1510.1 1996.5,1510.4 2022.4,1510.9  Z" style="stroke-width: 0.5;  stroke: rgb(0,0,0); fill: rgb(179,177,178);" />
<path d="M 2021.202,1463.191 A 522.500,522.500 0.00 0,1 2021.8,1473.1 L 2021.8,1473.1 1995.4,1474.5 1969.0,1476.0 1942.6,1477.5 1916.1,1479.1 1889.5,1480.8 1862.9,1482.6 1836.3,1484.5 1809.6,1486.4 1782.9,1488.5 1756.2,1490.6 1729.5,1492.8 1702.7,1495.2 1675.9,1497.6 1649.1,1500.1 1622.4,1502.7 1595.6,1505.4 1568.8,1508.2 1542.0,1511.1 1515.2,1514.1 1488.4,1517.2 1461.7,1520.4 1434.9,1523.7 1408.2,1527.1 1381.5,1530.6 1354.8,1534.2 1328.2,1537.8 1301.6,1541.6 1275.0,1545.4 1248.4,1549.4 1221.9,1553.4 1195.5,1557.5 1169.1,1561.7 1142.7,1566.0 1116.4,1570.3 1090.2,1574.7 1064.0,1579.2 1037.9,1583.8 1011.8,1588.4 985.9,1593.0  A 522.500,522.500 0.00 0,1 984.2,1583.4 L 984.2,1583.4 1010.4,1579.1 1036.6,1575.0 1062.9,1570.9 1089.2,1566.8 1115.6,1562.8 1142.0,1558.8 1168.4,1554.9 1194.9,1551.0 1221.4,1547.2 1247.9,1543.4 1274.5,1539.7 1301.1,1536.1 1327.7,1532.5 1354.4,1529.0 1381.1,1525.6 1407.8,1522.2 1434.5,1518.9 1461.2,1515.7 1487.9,1512.5 1514.6,1509.4 1541.4,1506.4 1568.1,1503.4 1594.9,1500.6 1621.6,1497.7 1648.4,1495.0 1675.1,1492.3 1701.9,1489.7 1728.6,1487.1 1755.3,1484.6 1782.0,1482.2 1808.7,1479.9 1835.4,1477.6 1862.0,1475.4 1888.6,1473.2 1915.2,1471.1 1941.7,1469.0 1968.3,1467.0 1994.8,1465.1 2021.2,1463.2  Z" style="stroke-width: 0.5;  stroke: rgb(0,0,0); fill: rgb(179,177,178);" />
<path d="M 1961.520,1255.039 A 522.500,522.500 0.00 0,1 1965.9,1263.5 L 1965.9,1263.5 1943.8,1274.6 1921.4,1285.4 1898.6,1296.0 1875.6,1306.3 1852.2,1316.3 1828.5,1326.0 1804.6,1335.4 1780.4,1344.4 1756.0,1353.0 1731.4,1361.2 1706.5,1369.1 1681.5,1376.4 1656.2,1383.4 1630.8,1389.8 1605.2,1395.8 1579.5,1401.4 1553.7,1406.4 1527.8,1411.0 1501.7,1415.0 1475.6,1418.6 1449.5,1421.6 1423.2,1424.2 1397.0,1426.2 1370.8,1427.7 1344.5,1428.8 1318.3,1429.3 1292.1,1429.4 1266.0,1429.0 1240.0,1428.1 1214.0,1426.7 1188.2,1425.0 1162.5,1422.7 1136.9,1420.1 1111.5,1417.1 1086.4,1413.6 1061.4,1409.9 1036.6,1405.7 1012.1,1401.3 987.8,1396.6  A 522.500,522.500 0.00 0,1 989.7,1387.6 L 989.7,1387.6 1013.8,1392.7 1038.1,1397.6 1062.7,1402.0 1087.5,1406.2 1112.6,1409.9 1137.8,1413.3 1163.2,1416.3 1188.8,1418.8 1214.5,1420.8 1240.4,1422.4 1266.3,1423.5 1292.3,1424.2 1318.4,1424.3 1344.5,1423.9 1370.6,1423.0 1396.8,1421.6 1422.9,1419.6 1449.0,1417.1 1475.0,1414.1 1501.0,1410.6 1526.9,1406.5 1552.8,1401.9 1578.5,1396.8 1604.0,1391.1 1629.5,1385.0 1654.7,1378.4 1679.8,1371.3 1704.7,1363.7 1729.4,1355.7 1753.8,1347.3 1778.1,1338.4 1802.0,1329.1 1825.7,1319.5 1849.1,1309.5 1872.3,1299.1 1895.1,1288.5 1917.6,1277.6 1939.7,1266.4 1961.5,1255.0  Z" style="stroke-width: 0.5;  stroke: rgb(0,0,0); fill: rgb(179,177,178);" />
<path d="M 1923.563,1194.057 A 522.500,522.500 0.00 0,1 1928.3,1200.8 L 1928.3,1200.8 1908.6,1214.2 1888.5,1227.5 1868.0,1240.5 1847.0,1253.1 1825.7,1265.3 1804.0,1277.2 1782.0,1288.6 1759.6,1299.5 1736.9,1310.0 1713.9,1319.8 1690.6,1329.1 1667.0,1337.9 1643.2,1346.0 1619.2,1353.5 1594.9,1360.3 1570.5,1366.5 1545.9,1372.0 1521.2,1376.9 1496.3,1381.0 1471.3,1384.4 1446.3,1387.2 1421.1,1389.2 1396.0,1390.6 1370.8,1391.3 1345.6,1391.2 1320.4,1390.5 1295.3,1389.1 1270.3,1387.1 1245.4,1384.4 1220.5,1381.2 1195.9,1377.3 1171.3,1372.8 1147.0,1367.8 1122.9,1362.3 1099.1,1356.2 1075.5,1349.8 1052.2,1342.8 1029.3,1335.5 1006.7,1327.9  A 522.500,522.500 0.00 0,1 1009.4,1320.1 L 1009.4,1320.1 1031.8,1328.1 1054.6,1335.7 1077.7,1343.0 1101.1,1349.7 1124.7,1356.1 1148.7,1361.9 1172.8,1367.2 1197.1,1371.9 1221.7,1376.0 1246.3,1379.5 1271.1,1382.4 1296.0,1384.6 1320.9,1386.1 1346.0,1387.0 1371.0,1387.1 1396.0,1386.6 1421.0,1385.3 1446.0,1383.3 1470.9,1380.6 1495.7,1377.2 1520.4,1373.1 1545.0,1368.2 1569.4,1362.7 1593.7,1356.4 1617.7,1349.5 1641.5,1341.9 1665.2,1333.7 1688.5,1324.8 1711.6,1315.3 1734.4,1305.3 1756.9,1294.7 1779.0,1283.5 1800.8,1271.9 1822.3,1259.9 1843.4,1247.4 1864.1,1234.5 1884.3,1221.3 1904.2,1207.8 1923.6,1194.1  Z" style="stroke-width: 0.5;  stroke: rgb(0,0,0); fill: rgb(179,177,178);" />
</g>
<g id="plot0">
<g id="plot0-axis">
</g>
<line x1='2243.8' y1='1596.6' x2='2243.8' y2='1596.6' style="stroke-width:14.0;stroke:rgb(0,0,0);stroke-linecap:round;fill:none;" />
<line x1='2243.8' y1='1596.6' x2='2283.4' y2='1601.7' style="stroke-width:14.0;stroke:rgb(0,0,0);stroke-linecap:round;fill:none;" />
<line x1='2283.4' y1='1601.7' x2='2283.4' y2='1601.7' style="stroke-width:14.0;stroke:rgb(0,0,0);stroke-linecap:round;fill:none;" />
<text x="2300.0" y="1626.6" font-size="46.8px" font-family="CMUBright-Roman" style="text-anchor:start;fill:rgb(255,38,78);" transform="rotate(7.4,2300.0,1626.6)" >HistoohiSECH92<tspan baseline-shift="-40%" font-size="90%">s</tspan>02797</text>
</g>
<defs>
<pattern id="vline-sparse" width="10" height="10" patternTransform="rotate(0 0 0)" patternUnits="userSpaceOnUse"><line x1="0" y1="0" x2="0" y2="10" style="stroke:black;stroke-width:2" /></pattern>
<pattern id="vline" width="10" height="10" patternTransform="rotate(0 0 0)" patternUnits="userSpaceOnUse"><line x1="0" y1="0" x2="0" y2="10" style="stroke:black;stroke-width:5" /></pattern>
<pattern id="hline-sparse" width="10" height="10" patternTransform="rotate(0 0 0)" patternUnits="userSpaceOnUse"><line x1="0" y1="0" x2="10" y2="0" style="stroke:black;stroke-width:2" /></pattern>
<pattern id="hline" width="10" height="10" patternTransform="rotate(0 0 0)" patternUnits="userSpaceOnUse"><line x1="0" y1="0" x2="10" y2="0" style="stroke:black;stroke-width:5" /></pattern>
<pattern id="checker" width="10" height="10" patternTransform="rotate(45 0 0)" patternUnits="userSpaceOnUse"><line x1="0" y1="0" x2="10" y2="0" style="stroke:black;stroke-width:5" /><line x1="0" y1="0" x2="0" y2="10" style="stroke:black;stroke-width:4" /></pattern>
<pattern id="checker" width="10" height="10" patternTransform="rotate(45 0 0)" patternUnits="userSpaceOnUse"><line x1="0" y1="0" x2="10" y2="0" style="stroke:black;stroke-width:2" /><line x1="0" y1="0" x2="0" y2="10" style="stroke:black;stroke-width:2" /></pattern>
</defs>
</svg>
