<?xml version="1.0" encoding="utf-8" standalone="no"?>
<!DOCTYPE svg PUBLIC "-//W3C//DTD SVG 1.1//EN" "http://www.w3.org/Graphics/SVG/1.1/DTD/svg11.dtd">
<svg width="3000px" height="3000px" version="1.1" xmlns="http://www.w3.org/2000/svg" xmlns:xlink="http://www.w3.org/1999/xlink">
<g id="bg">
<rect x="0" y="0" width="3000px" height="3000px" style="fill:rgb(255,255,255);"/>
</g>
<g id="ideograms">
<path d="M1500.000,950.000 A550.000,550.000 40.000 0,1 1567.702,2045.817 L1592.321,2244.296 A750.000,750.000 0.000 0,0 1500.000,750.000 Z" style="stroke-width:2.0;stroke:rgb(0,0,0);stroke-linecap:round;fill:rgb(179,177,178);" />
<text x="2473.1" y="1439.9" font-size="46.8px" font-family="CMUBright-Roman" style="text-anchor:middle;fill:rgb(0,0,0);" transform="rotate(446.5,2473.1,1439.9)" >Histocap122p10B<tspan baseline-shift="-40%" font-size="90%">6</tspan></text>
<line x1='1529.8' y1='750.6' x2='1530.3' y2='738.6' style="stroke-width:8.0;stroke:rgb(150,150,150);stroke-linecap:round;fill:none;" />
<line x1='1634.0' y1='762.1' x2='1636.1' y2='750.3' style="stroke-width:8.0;stroke:rgb(150,150,150);stroke-linecap:round;fill:none;" />
<line x1='1735.5' y1='787.9' x2='1739.3' y2='776.6' style="stroke-width:8.0;stroke:rgb(150,150,150);stroke-linecap:round;fill:none;" />
<line x1='1832.5' y1='827.7' x2='1837.8' y2='817.0' style="stroke-width:8.0;stroke:rgb(150,150,150);stroke-linecap:round;fill:none;" />
<line x1='1922.9' y1='880.6' x2='1929.7' y2='870.7' style="stroke-width:8.0;stroke:rgb(150,150,150);stroke-linecap:round;fill:none;" />
<text x="1948.0" y="868.8" font-size="41.6px" font-family="CMUBright-Roman" style="text-anchor:start;fill:rgb(150,150,150);" transform="rotate(304.3,1948.0,868.8)" >5250 kb</text>
<line x1='2005.1' y1='945.6' x2='2013.2' y2='936.8' style="stroke-width:8.0;stroke:rgb(150,150,150);stroke-linecap:round;fill:none;" />
<line x1='2077.5' y1='1021.4' x2='2086.7' y2='1013.8' style="stroke-width:8.0;stroke:rgb(150,150,150);stroke-linecap:round;fill:none;" />
<line x1='2138.5' y1='1106.6' x2='2148.8' y2='1100.3' style="stroke-width:8.0;stroke:rgb(150,150,150);stroke-linecap:round;fill:none;" />
<line x1='2187.1' y1='1199.4' x2='2198.1' y2='1194.6' style="stroke-width:8.0;stroke:rgb(150,150,150);stroke-linecap:round;fill:none;" />
<line x1='2222.3' y1='1298.2' x2='2233.9' y2='1294.9' style="stroke-width:8.0;stroke:rgb(150,150,150);stroke-linecap:round;fill:none;" />
<text x="2249.1" y="1305.2" font-size="41.6px" font-family="CMUBright-Roman" style="text-anchor:start;fill:rgb(150,150,150);" transform="rotate(344.4,2249.1,1305.2)" >5300 kb</text>
<line x1='2243.4' y1='1400.8' x2='2255.3' y2='1399.2' style="stroke-width:8.0;stroke:rgb(150,150,150);stroke-linecap:round;fill:none;" />
<line x1='2250.0' y1='1505.4' x2='2262.0' y2='1505.5' style="stroke-width:8.0;stroke:rgb(150,150,150);stroke-linecap:round;fill:none;" />
<line x1='2241.9' y1='1609.9' x2='2253.8' y2='1611.6' style="stroke-width:8.0;stroke:rgb(150,150,150);stroke-linecap:round;fill:none;" />
<line x1='2219.4' y1='1712.2' x2='2230.9' y2='1715.6' style="stroke-width:8.0;stroke:rgb(150,150,150);stroke-linecap:round;fill:none;" />
<line x1='2182.7' y1='1810.4' x2='2193.7' y2='1815.4' style="stroke-width:8.0;stroke:rgb(150,150,150);stroke-linecap:round;fill:none;" />
<text x="2198.7" y="1833.0" font-size="41.6px" font-family="CMUBright-Roman" style="text-anchor:start;fill:rgb(150,150,150);" transform="rotate(24.4,2198.7,1833.0)" >5350 kb</text>
<line x1='2132.8' y1='1902.5' x2='2142.9' y2='1909.0' style="stroke-width:8.0;stroke:rgb(150,150,150);stroke-linecap:round;fill:none;" />
<line x1='2070.5' y1='1986.8' x2='2079.7' y2='1994.6' style="stroke-width:8.0;stroke:rgb(150,150,150);stroke-linecap:round;fill:none;" />
<line x1='1997.1' y1='2061.6' x2='2005.1' y2='2070.6' style="stroke-width:8.0;stroke:rgb(150,150,150);stroke-linecap:round;fill:none;" />
<line x1='1914.0' y1='2125.4' x2='1920.6' y2='2135.4' style="stroke-width:8.0;stroke:rgb(150,150,150);stroke-linecap:round;fill:none;" />
<line x1='1822.8' y1='2177.0' x2='1827.9' y2='2187.8' style="stroke-width:8.0;stroke:rgb(150,150,150);stroke-linecap:round;fill:none;" />
<text x="1820.4" y="2204.6" font-size="41.6px" font-family="CMUBright-Roman" style="text-anchor:start;fill:rgb(150,150,150);" transform="rotate(64.5,1820.4,2204.6)" >5400 kb</text>
<line x1='1725.3' y1='2215.4' x2='1728.9' y2='2226.8' style="stroke-width:8.0;stroke:rgb(150,150,150);stroke-linecap:round;fill:none;" />
<line x1='1623.4' y1='2239.8' x2='1625.3' y2='2251.6' style="stroke-width:8.0;stroke:rgb(150,150,150);stroke-linecap:round;fill:none;" />
<g id="highlighttrack_0">
<path d="M2041.845,1405.642 A550.000,550.000 40.000 0,1 1998.235,1732.941 L2179.412,1817.647 A750.000,750.000 0.000 0,0 2238.880,1371.330 Z" style="stroke-width:14.0;stroke:rgb(0,0,0);stroke-linecap:round;fill:rgb(255,38,78);" />
</g>
<path d="M1500.000,950.000 A550.000,550.000 40.000 0,1 1567.702,2045.817 L1592.321,2244.296 A750.000,750.000 0.000 0,0 1500.000,750.000 Z" style="stroke-width:2.0;stroke:rgb(0,0,0);stroke-linecap:round;fill:none;" />
<path d="M1339.510,2026.064 A550.000,550.000 40.000 0,1 1275.975,997.692 L1194.512,815.035 A750.000,750.000 0.000 0,0 1281.150,2217.360 Z" style="stroke-width:2.0;stroke:rgb(0,0,0);stroke-linecap:round;fill:rgb(179,177,178);" />
<text x="481.9" y="1562.9" font-size="46.8px" font-family="CMUBright-Roman" style="text-anchor:middle;fill:rgb(0,0,0);" transform="rotate(86.5,481.9,1562.9)" >Histocap19VMG15<tspan baseline-shift="-40%" font-size="90%">6</tspan></text>
<line x1='1169.2' y1='826.9' x2='1163.9' y2='816.1' style="stroke-width:8.0;stroke:rgb(150,150,150);stroke-linecap:round;fill:none;" />
<line x1='1078.6' y1='879.6' x2='1071.9' y2='869.6' style="stroke-width:8.0;stroke:rgb(150,150,150);stroke-linecap:round;fill:none;" />
<line x1='996.3' y1='944.3' x2='988.2' y2='935.5' style="stroke-width:8.0;stroke:rgb(150,150,150);stroke-linecap:round;fill:none;" />
<line x1='923.7' y1='1020.0' x2='914.5' y2='1012.3' style="stroke-width:8.0;stroke:rgb(150,150,150);stroke-linecap:round;fill:none;" />
<text x="896.4" y="1015.5" font-size="41.6px" font-family="CMUBright-Roman" style="text-anchor:end;fill:rgb(150,150,150);" transform="rotate(39.8,896.4,1015.5)" >3550 kb</text>
<line x1='862.5' y1='1105.0' x2='852.3' y2='1098.7' style="stroke-width:8.0;stroke:rgb(150,150,150);stroke-linecap:round;fill:none;" />
<line x1='813.6' y1='1197.7' x2='802.6' y2='1192.9' style="stroke-width:8.0;stroke:rgb(150,150,150);stroke-linecap:round;fill:none;" />
<line x1='778.2' y1='1296.3' x2='766.6' y2='1293.1' style="stroke-width:8.0;stroke:rgb(150,150,150);stroke-linecap:round;fill:none;" />
<line x1='756.8' y1='1398.9' x2='745.0' y2='1397.3' style="stroke-width:8.0;stroke:rgb(150,150,150);stroke-linecap:round;fill:none;" />
<line x1='750.0' y1='1503.5' x2='738.0' y2='1503.6' style="stroke-width:8.0;stroke:rgb(150,150,150);stroke-linecap:round;fill:none;" />
<text x="726.2" y="1517.6" font-size="41.6px" font-family="CMUBright-Roman" style="text-anchor:end;fill:rgb(150,150,150);" transform="rotate(-0.3,726.2,1517.6)" >3600 kb</text>
<line x1='757.8' y1='1608.0' x2='745.9' y2='1609.7' style="stroke-width:8.0;stroke:rgb(150,150,150);stroke-linecap:round;fill:none;" />
<line x1='780.1' y1='1710.4' x2='768.6' y2='1713.8' style="stroke-width:8.0;stroke:rgb(150,150,150);stroke-linecap:round;fill:none;" />
<line x1='816.5' y1='1808.7' x2='805.5' y2='1813.6' style="stroke-width:8.0;stroke:rgb(150,150,150);stroke-linecap:round;fill:none;" />
<line x1='866.2' y1='1900.9' x2='856.0' y2='1907.4' style="stroke-width:8.0;stroke:rgb(150,150,150);stroke-linecap:round;fill:none;" />
<line x1='928.2' y1='1985.4' x2='919.1' y2='1993.1' style="stroke-width:8.0;stroke:rgb(150,150,150);stroke-linecap:round;fill:none;" />
<text x="919.1" y="2011.5" font-size="41.6px" font-family="CMUBright-Roman" style="text-anchor:end;fill:rgb(150,150,150);" transform="rotate(-40.3,919.1,2011.5)" >3650 kb</text>
<line x1='1001.5' y1='2060.3' x2='993.5' y2='2069.3' style="stroke-width:8.0;stroke:rgb(150,150,150);stroke-linecap:round;fill:none;" />
<line x1='1084.4' y1='2124.3' x2='1077.8' y2='2134.3' style="stroke-width:8.0;stroke:rgb(150,150,150);stroke-linecap:round;fill:none;" />
<line x1='1175.5' y1='2176.2' x2='1170.3' y2='2187.0' style="stroke-width:8.0;stroke:rgb(150,150,150);stroke-linecap:round;fill:none;" />
<line x1='1272.9' y1='2214.8' x2='1269.3' y2='2226.2' style="stroke-width:8.0;stroke:rgb(150,150,150);stroke-linecap:round;fill:none;" />
<path d="M1339.510,2026.064 A550.000,550.000 40.000 0,1 1275.975,997.692 L1194.512,815.035 A750.000,750.000 0.000 0,0 1281.150,2217.360 Z" style="stroke-width:2.0;stroke:rgb(0,0,0);stroke-linecap:round;fill:none;" />
</g>
<g id="track_0">
<path d="M 1968.597,1268.867 A 522.500,522.500 0.00 0,1 2014.6,1409.7 L 2014.6,1409.7 1988.5,1414.3 1962.3,1419.0 1936.1,1423.7 1909.8,1428.4 1883.5,1433.2 1857.3,1438.0 1831.0,1442.9 1804.7,1447.9 1778.3,1452.9 1752.0,1457.9 1725.7,1463.0 1699.3,1468.2 1673.0,1473.4 1646.7,1478.7 1620.3,1484.0 1594.0,1489.4 1567.6,1494.8 1541.3,1500.3 1515.0,1505.8 1488.7,1511.4 1462.4,1517.1 1436.1,1522.8 1409.8,1528.5 1383.6,1534.3 1357.4,1540.2 1331.2,1546.1 1305.0,1552.1 1278.8,1558.1 1252.7,1564.1 1226.6,1570.2 1200.5,1576.4 1174.4,1582.6 1148.4,1588.8 1122.5,1595.1 1096.5,1601.4 1070.6,1607.7 1044.8,1614.1 1018.9,1620.5 993.2,1626.9  A 522.500,522.500 0.00 0,1 977.9,1479.4 L 977.9,1479.4 1003.1,1480.3 1028.5,1480.9 1054.1,1481.2 1079.8,1481.3 1105.7,1481.1 1131.7,1480.5 1157.8,1479.7 1184.0,1478.5 1210.2,1477.0 1236.6,1475.1 1262.9,1472.9 1289.3,1470.3 1315.8,1467.3 1342.2,1464.0 1368.6,1460.3 1395.0,1456.2 1421.4,1451.8 1447.7,1447.0 1473.9,1441.8 1500.1,1436.2 1526.2,1430.3 1552.2,1424.0 1578.1,1417.3 1603.9,1410.3 1629.5,1402.9 1655.0,1395.2 1680.4,1387.2 1705.5,1378.8 1730.5,1370.1 1755.3,1361.1 1780.0,1351.8 1804.4,1342.3 1828.6,1332.4 1852.5,1322.4 1876.2,1312.1 1899.7,1301.5 1922.9,1290.8 1945.9,1279.9 1968.6,1268.9  Z" style="stroke-width: 0.5;  stroke: rgb(0,0,0); fill: rgb(179,177,178);" />
<path d="M 1500.000,977.500 A 522.500,522.500 0.00 0,1 1643.1,997.5 L 1643.1,997.5 1637.3,1017.2 1631.1,1036.8 1624.6,1056.1 1617.8,1074.9 1610.6,1093.2 1603.1,1110.9 1595.2,1127.8 1587.1,1143.8 1578.6,1159.0 1569.9,1173.1 1560.9,1186.1 1551.6,1197.9 1542.0,1208.6 1532.2,1218.0 1522.2,1226.0 1511.9,1232.8 1501.5,1238.1 1490.9,1242.0 1480.1,1244.6 1469.1,1245.6 1458.0,1245.3 1446.8,1243.5 1435.6,1240.4 1424.2,1235.8 1412.8,1229.9 1401.3,1222.6 1389.8,1214.1 1378.4,1204.3 1367.0,1193.3 1355.6,1181.2 1344.4,1168.0 1333.2,1153.9 1322.2,1138.9 1311.3,1123.0 1300.7,1106.5 1290.2,1089.4 1280.0,1071.8 1270.1,1053.8 1260.5,1035.6  A 522.500,522.500 0.00 0,1 1287.2,1022.8 L 1287.2,1022.8 1295.5,1041.2 1304.0,1059.5 1312.6,1077.3 1321.3,1094.7 1330.1,1111.6 1338.8,1127.7 1347.6,1143.0 1356.2,1157.4 1364.8,1170.8 1373.3,1183.1 1381.6,1194.2 1389.8,1204.2 1397.8,1212.8 1405.5,1220.2 1413.1,1226.1 1420.3,1230.7 1427.4,1233.8 1434.1,1235.4 1440.5,1235.6 1446.6,1234.3 1452.4,1231.5 1457.9,1227.3 1463.1,1221.6 1467.9,1214.5 1472.3,1206.0 1476.4,1196.1 1480.2,1184.9 1483.6,1172.5 1486.6,1158.9 1489.4,1144.2 1491.7,1128.5 1493.8,1111.8 1495.5,1094.3 1497.0,1076.0 1498.1,1057.1 1499.0,1037.7 1499.6,1017.8 1499.9,997.7 1500.0,977.5  Z" style="stroke-width: 0.5;  stroke: rgb(0,0,0); fill: rgb(179,177,178);" />
<path d="M 1806.261,1076.668 A 522.500,522.500 0.00 0,1 1877.3,1138.5 L 1877.3,1138.5 1860.5,1154.3 1843.1,1169.8 1825.3,1185.1 1807.1,1199.9 1788.3,1214.4 1769.1,1228.3 1749.5,1241.8 1729.5,1254.6 1709.2,1266.9 1688.4,1278.5 1667.3,1289.4 1645.9,1299.5 1624.2,1309.0 1602.2,1317.6 1579.9,1325.4 1557.4,1332.4 1534.7,1338.6 1511.8,1343.8 1488.7,1348.3 1465.5,1351.8 1442.1,1354.5 1418.7,1356.3 1395.2,1357.2 1371.6,1357.2 1348.0,1356.4 1324.4,1354.7 1300.9,1352.2 1277.4,1348.9 1254.1,1344.8 1230.8,1339.9 1207.7,1334.3 1184.8,1328.0 1162.1,1321.0 1139.6,1313.4 1117.4,1305.2 1095.5,1296.5 1074.0,1287.3 1052.8,1277.6 1032.0,1267.6  A 522.500,522.500 0.00 0,1 1081.0,1187.9 L 1081.0,1187.9 1098.9,1200.9 1117.2,1213.5 1135.9,1225.7 1155.0,1237.4 1174.4,1248.4 1194.1,1258.8 1214.1,1268.5 1234.3,1277.4 1254.6,1285.5 1275.1,1292.7 1295.7,1299.0 1316.4,1304.3 1337.1,1308.6 1357.9,1312.0 1378.6,1314.2 1399.3,1315.5 1420.0,1315.6 1440.5,1314.7 1460.9,1312.7 1481.2,1309.6 1501.2,1305.4 1521.1,1300.1 1540.7,1293.8 1560.1,1286.4 1579.2,1278.0 1598.0,1268.6 1616.5,1258.3 1634.7,1247.0 1652.4,1234.8 1669.8,1221.8 1686.8,1208.0 1703.4,1193.5 1719.5,1178.2 1735.2,1162.4 1750.4,1146.0 1765.2,1129.2 1779.4,1112.0 1793.1,1094.4 1806.3,1076.7  Z" style="stroke-width: 0.5;  stroke: rgb(0,0,0); fill: rgb(179,177,178);" />
<path d="M 1654.532,1000.875 A 522.500,522.500 0.00 0,1 1707.8,1020.6 L 1707.8,1020.6 1699.1,1040.0 1690.0,1059.3 1680.3,1078.3 1670.1,1096.9 1659.5,1115.0 1648.4,1132.5 1636.9,1149.4 1624.9,1165.5 1612.4,1180.8 1599.6,1195.2 1586.3,1208.6 1572.6,1221.1 1558.5,1232.4 1544.1,1242.7 1529.4,1251.8 1514.3,1259.7 1498.9,1266.5 1483.2,1272.0 1467.2,1276.2 1451.0,1279.2 1434.6,1280.9 1417.9,1281.4 1401.1,1280.6 1384.2,1278.5 1367.2,1275.3 1350.0,1270.8 1332.8,1265.2 1315.6,1258.4 1298.4,1250.6 1281.3,1241.7 1264.2,1231.9 1247.3,1221.1 1230.5,1209.4 1213.9,1197.0 1197.5,1183.9 1181.4,1170.1 1165.6,1155.8 1150.1,1141.1 1135.1,1126.0  A 522.500,522.500 0.00 0,1 1178.2,1088.3 L 1178.2,1088.3 1191.3,1104.6 1204.7,1120.7 1218.4,1136.3 1232.3,1151.4 1246.5,1165.9 1260.9,1179.6 1275.5,1192.6 1290.1,1204.6 1304.8,1215.7 1319.6,1225.8 1334.4,1234.8 1349.1,1242.7 1363.8,1249.3 1378.5,1254.8 1393.0,1258.9 1407.3,1261.8 1421.5,1263.3 1435.6,1263.5 1449.4,1262.4 1462.9,1259.9 1476.2,1256.1 1489.3,1250.9 1502.0,1244.4 1514.4,1236.6 1526.5,1227.6 1538.2,1217.3 1549.6,1205.9 1560.6,1193.3 1571.2,1179.6 1581.5,1165.0 1591.3,1149.3 1600.7,1132.9 1609.7,1115.6 1618.2,1097.6 1626.4,1079.0 1634.1,1060.0 1641.3,1040.5 1648.1,1020.8 1654.5,1000.9  Z" style="stroke-width: 0.5;  stroke: rgb(0,0,0); fill: rgb(179,177,178);" />
<path d="M 1716.421,1975.572 A 522.500,522.500 0.00 0,1 1675.0,1992.3 L 1675.0,1992.3 1667.6,1972.2 1659.7,1952.2 1651.2,1932.5 1642.2,1913.1 1632.7,1894.1 1622.7,1875.6 1612.1,1857.8 1601.0,1840.6 1589.4,1824.2 1577.2,1808.6 1564.6,1793.9 1551.4,1780.1 1537.8,1767.3 1523.7,1755.6 1509.1,1745.0 1494.1,1735.4 1478.7,1727.0 1462.9,1719.8 1446.6,1713.8 1430.0,1708.9 1413.1,1705.3 1395.9,1702.9 1378.4,1701.7 1360.6,1701.6 1342.6,1702.8 1324.4,1705.1 1306.0,1708.5 1287.5,1713.1 1269.0,1718.7 1250.3,1725.3 1231.7,1732.9 1213.1,1741.4 1194.6,1750.7 1176.2,1760.9 1158.0,1771.8 1139.9,1783.3 1122.2,1795.4 1104.8,1808.0 1087.7,1820.9  A 522.500,522.500 0.00 0,1 1061.9,1784.8 L 1061.9,1784.8 1080.4,1773.1 1099.2,1761.9 1118.3,1751.1 1137.7,1740.9 1157.4,1731.4 1177.2,1722.6 1197.2,1714.5 1217.3,1707.3 1237.4,1700.9 1257.6,1695.5 1277.7,1691.0 1297.8,1687.6 1317.7,1685.1 1337.6,1683.8 1357.2,1683.5 1376.7,1684.4 1395.9,1686.4 1414.9,1689.5 1433.6,1693.7 1451.9,1699.0 1470.0,1705.5 1487.6,1713.1 1504.9,1721.8 1521.8,1731.5 1538.2,1742.3 1554.3,1754.1 1569.8,1766.9 1584.9,1780.5 1599.4,1795.1 1613.5,1810.5 1627.1,1826.7 1640.1,1843.6 1652.7,1861.1 1664.6,1879.3 1676.1,1897.9 1687.0,1916.9 1697.3,1936.3 1707.2,1955.8 1716.4,1975.6  Z" style="stroke-width: 0.5;  stroke: rgb(0,0,0); fill: rgb(179,177,178);" />
<path d="M 1720.529,1026.320 A 522.500,522.500 0.00 0,1 1757.1,1045.1 L 1757.1,1045.1 1746.2,1063.9 1734.8,1082.4 1722.9,1100.7 1710.4,1118.5 1697.5,1135.9 1684.1,1152.8 1670.3,1168.9 1656.0,1184.4 1641.2,1199.1 1626.1,1213.0 1610.5,1225.9 1594.5,1237.9 1578.2,1248.9 1561.5,1258.9 1544.5,1267.8 1527.2,1275.5 1509.6,1282.2 1491.8,1287.7 1473.7,1292.0 1455.4,1295.1 1436.8,1297.1 1418.2,1297.9 1399.4,1297.5 1380.5,1296.0 1361.5,1293.3 1342.4,1289.4 1323.4,1284.5 1304.3,1278.6 1285.3,1271.5 1266.4,1263.6 1247.6,1254.6 1228.9,1244.8 1210.5,1234.2 1192.2,1222.8 1174.2,1210.7 1156.6,1198.0 1139.2,1184.8 1122.3,1171.1 1105.7,1157.1  A 522.500,522.500 0.00 0,1 1134.4,1126.7 L 1134.4,1126.7 1149.5,1141.8 1165.0,1156.5 1180.9,1170.8 1197.1,1184.6 1213.6,1197.8 1230.3,1210.2 1247.3,1221.9 1264.4,1232.7 1281.6,1242.6 1299.0,1251.5 1316.4,1259.4 1333.8,1266.3 1351.2,1272.0 1368.6,1276.5 1385.9,1279.9 1403.1,1282.0 1420.2,1282.9 1437.2,1282.6 1454.0,1281.0 1470.5,1278.2 1486.9,1274.1 1503.0,1268.7 1518.8,1262.2 1534.3,1254.4 1549.5,1245.5 1564.4,1235.4 1579.0,1224.3 1593.1,1212.0 1606.9,1198.8 1620.3,1184.6 1633.2,1169.5 1645.8,1153.6 1657.8,1137.0 1669.5,1119.7 1680.6,1101.8 1691.3,1083.4 1701.6,1064.6 1711.3,1045.6 1720.5,1026.3  Z" style="stroke-width: 0.5;  stroke: rgb(0,0,0); fill: rgb(179,177,178);" />
<path d="M 1948.889,1232.597 A 522.500,522.500 0.00 0,1 1963.1,1258.1 L 1963.1,1258.1 1940.8,1269.6 1918.2,1280.9 1895.4,1292.1 1872.2,1303.0 1848.8,1313.7 1825.1,1324.1 1801.2,1334.3 1777.0,1344.2 1752.6,1353.8 1728.0,1363.0 1703.2,1372.0 1678.2,1380.6 1653.1,1388.8 1627.7,1396.7 1602.2,1404.1 1576.6,1411.3 1550.8,1418.0 1524.9,1424.3 1498.9,1430.2 1472.8,1435.7 1446.6,1440.8 1420.4,1445.5 1394.1,1449.8 1367.8,1453.7 1341.4,1457.1 1315.0,1460.2 1288.7,1462.8 1262.4,1465.1 1236.1,1466.9 1209.8,1468.4 1183.6,1469.5 1157.5,1470.2 1131.5,1470.6 1105.7,1470.6 1079.9,1470.3 1054.3,1469.7 1028.9,1468.8 1003.6,1467.5 978.6,1466.0  A 522.500,522.500 0.00 0,1 981.3,1437.0 L 981.3,1437.0 1005.9,1439.9 1030.7,1442.4 1055.7,1444.5 1081.0,1446.4 1106.4,1447.8 1132.0,1448.9 1157.7,1449.6 1183.5,1449.8 1209.4,1449.6 1235.4,1449.0 1261.5,1447.9 1287.6,1446.3 1313.7,1444.3 1339.9,1441.8 1366.0,1438.8 1392.1,1435.3 1418.1,1431.3 1444.1,1426.9 1470.0,1421.9 1495.8,1416.4 1521.5,1410.5 1547.1,1404.1 1572.5,1397.2 1597.8,1389.8 1622.9,1382.0 1647.8,1373.7 1672.5,1365.0 1697.1,1355.9 1721.3,1346.3 1745.4,1336.4 1769.2,1326.1 1792.7,1315.4 1815.9,1304.4 1838.9,1293.1 1861.5,1281.5 1883.9,1269.6 1905.9,1257.5 1927.6,1245.1 1948.9,1232.6  Z" style="stroke-width: 0.5;  stroke: rgb(0,0,0); fill: rgb(179,177,178);" />
<path d="M 1915.280,1182.905 A 522.500,522.500 0.00 0,1 1928.3,1200.7 L 1928.3,1200.7 1908.3,1214.5 1887.8,1228.1 1867.0,1241.4 1845.8,1254.5 1824.2,1267.2 1802.3,1279.7 1780.0,1291.7 1757.4,1303.4 1734.5,1314.6 1711.3,1325.5 1687.8,1335.8 1664.1,1345.7 1640.1,1355.0 1615.8,1363.8 1591.4,1372.1 1566.7,1379.9 1541.8,1387.1 1516.8,1393.7 1491.6,1399.7 1466.3,1405.2 1440.9,1410.1 1415.3,1414.3 1389.7,1418.0 1364.1,1421.1 1338.3,1423.7 1312.6,1425.6 1286.9,1427.0 1261.2,1427.8 1235.5,1428.0 1209.9,1427.8 1184.4,1426.9 1159.0,1425.6 1133.8,1423.8 1108.7,1421.5 1083.8,1418.8 1059.1,1415.6 1034.6,1412.0 1010.4,1408.1 986.4,1403.8  A 522.500,522.500 0.00 0,1 991.0,1382.2 L 991.0,1382.2 1014.4,1387.4 1038.2,1392.3 1062.3,1396.7 1086.6,1400.8 1111.2,1404.3 1135.9,1407.4 1160.9,1410.0 1185.9,1412.1 1211.1,1413.5 1236.4,1414.5 1261.7,1414.8 1287.1,1414.5 1312.5,1413.6 1338.0,1412.1 1363.4,1410.0 1388.7,1407.2 1414.0,1403.7 1439.2,1399.6 1464.3,1394.9 1489.2,1389.5 1514.1,1383.5 1538.7,1376.8 1563.2,1369.5 1587.4,1361.6 1611.4,1353.1 1635.2,1344.1 1658.8,1334.4 1682.0,1324.2 1705.0,1313.4 1727.6,1302.2 1750.0,1290.5 1771.9,1278.3 1793.6,1265.7 1814.9,1252.6 1835.8,1239.3 1856.3,1225.6 1876.4,1211.6 1896.0,1197.3 1915.3,1182.9  Z" style="stroke-width: 0.5;  stroke: rgb(0,0,0); fill: rgb(179,177,178);" />
<path d="M 1737.100,1965.607 A 522.500,522.500 0.00 0,1 1718.1,1974.8 L 1718.1,1974.8 1708.7,1955.0 1698.7,1935.3 1688.3,1915.9 1677.2,1896.8 1665.6,1878.0 1653.5,1859.8 1640.8,1842.0 1627.5,1825.0 1613.7,1808.6 1599.5,1792.9 1584.6,1778.1 1569.3,1764.1 1553.5,1751.0 1537.2,1738.8 1520.5,1727.6 1503.3,1717.4 1485.7,1708.3 1467.7,1700.2 1449.3,1693.2 1430.5,1687.3 1411.4,1682.5 1392.1,1678.7 1372.4,1676.1 1352.5,1674.5 1332.3,1674.1 1312.0,1674.7 1291.6,1676.3 1271.0,1679.0 1250.3,1682.6 1229.6,1687.2 1208.9,1692.7 1188.3,1699.1 1167.7,1706.3 1147.3,1714.3 1127.0,1723.0 1107.0,1732.3 1087.2,1742.2 1067.8,1752.6 1048.7,1763.4  A 522.500,522.500 0.00 0,1 1038.5,1744.9 L 1038.5,1744.9 1058.1,1734.8 1078.2,1725.1 1098.5,1715.9 1119.1,1707.3 1140.0,1699.3 1161.0,1692.0 1182.2,1685.5 1203.5,1679.8 1224.8,1674.9 1246.1,1670.9 1267.5,1667.8 1288.7,1665.7 1309.8,1664.5 1330.8,1664.4 1351.6,1665.3 1372.3,1667.3 1392.7,1670.3 1412.8,1674.3 1432.6,1679.4 1452.1,1685.6 1471.3,1692.8 1490.1,1701.0 1508.5,1710.3 1526.5,1720.5 1544.0,1731.8 1561.2,1743.9 1577.8,1757.0 1594.0,1770.9 1609.6,1785.7 1624.8,1801.2 1639.5,1817.5 1653.6,1834.4 1667.2,1851.9 1680.2,1869.9 1692.7,1888.5 1704.6,1907.4 1716.0,1926.6 1726.8,1946.0 1737.1,1965.6  Z" style="stroke-width: 0.5;  stroke: rgb(0,0,0); fill: rgb(179,177,178);" />
<path d="M 1673.187,1992.963 A 522.500,522.500 0.00 0,1 1655.1,1998.9 L 1655.1,1998.9 1648.6,1978.7 1641.5,1958.6 1634.0,1938.7 1625.9,1919.2 1617.3,1900.1 1608.2,1881.5 1598.5,1863.5 1588.4,1846.3 1577.7,1829.8 1566.5,1814.2 1554.8,1799.4 1542.6,1785.7 1529.9,1772.9 1516.8,1761.3 1503.1,1750.7 1489.1,1741.3 1474.5,1733.1 1459.6,1726.1 1444.3,1720.3 1428.6,1715.7 1412.6,1712.4 1396.2,1710.3 1379.6,1709.4 1362.7,1709.8 1345.5,1711.4 1328.1,1714.1 1310.6,1718.1 1292.9,1723.1 1275.1,1729.2 1257.3,1736.4 1239.4,1744.6 1221.6,1753.7 1203.8,1763.6 1186.1,1774.4 1168.6,1785.9 1151.3,1798.1 1134.3,1810.8 1117.5,1823.9 1101.1,1837.5  A 522.500,522.500 0.00 0,1 1089.2,1822.8 L 1089.2,1822.8 1106.1,1809.8 1123.5,1797.1 1141.2,1785.0 1159.1,1773.4 1177.3,1762.4 1195.6,1752.2 1214.0,1742.8 1232.6,1734.2 1251.1,1726.5 1269.7,1719.8 1288.1,1714.2 1306.5,1709.6 1324.8,1706.1 1342.9,1703.7 1360.9,1702.5 1378.5,1702.5 1396.0,1703.7 1413.1,1706.1 1430.0,1709.7 1446.5,1714.5 1462.6,1720.5 1478.3,1727.7 1493.7,1736.1 1508.6,1745.6 1523.1,1756.2 1537.1,1767.9 1550.6,1780.7 1563.7,1794.4 1576.2,1809.2 1588.3,1824.8 1599.8,1841.2 1610.8,1858.4 1621.3,1876.2 1631.3,1894.7 1640.7,1913.7 1649.6,1933.1 1658.0,1952.9 1665.9,1972.8 1673.2,1993.0  Z" style="stroke-width: 0.5;  stroke: rgb(0,0,0); fill: rgb(179,177,178);" />
<path d="M 1765.427,1049.939 A 522.500,522.500 0.00 0,1 1779.4,1058.5 L 1779.4,1058.5 1767.5,1076.8 1755.0,1095.0 1742.0,1112.8 1728.6,1130.3 1714.6,1147.3 1700.1,1163.7 1685.2,1179.6 1669.9,1194.7 1654.1,1209.1 1637.8,1222.6 1621.2,1235.3 1604.2,1247.1 1586.9,1257.9 1569.2,1267.7 1551.1,1276.4 1532.8,1284.1 1514.2,1290.8 1495.4,1296.3 1476.3,1300.6 1457.0,1303.9 1437.5,1306.0 1417.9,1307.0 1398.2,1306.9 1378.3,1305.6 1358.4,1303.2 1338.5,1299.8 1318.6,1295.3 1298.6,1289.7 1278.8,1283.2 1259.0,1275.7 1239.4,1267.3 1219.9,1258.1 1200.6,1248.0 1181.6,1237.2 1162.8,1225.8 1144.3,1213.7 1126.2,1201.1 1108.5,1188.0 1091.2,1174.6  A 522.500,522.500 0.00 0,1 1101.6,1161.9 L 1101.6,1161.9 1118.4,1175.8 1135.5,1189.3 1153.1,1202.4 1171.0,1214.9 1189.2,1226.8 1207.7,1238.1 1226.4,1248.5 1245.3,1258.2 1264.4,1267.0 1283.6,1274.9 1302.9,1281.8 1322.2,1287.6 1341.5,1292.5 1360.9,1296.2 1380.2,1298.8 1399.4,1300.3 1418.5,1300.7 1437.5,1299.9 1456.3,1297.9 1475.0,1294.7 1493.4,1290.4 1511.6,1285.0 1529.5,1278.4 1547.2,1270.6 1564.6,1261.8 1581.6,1251.9 1598.3,1241.0 1614.6,1229.2 1630.6,1216.3 1646.1,1202.6 1661.2,1188.0 1675.9,1172.7 1690.2,1156.7 1703.9,1140.0 1717.2,1122.8 1730.0,1105.0 1742.4,1086.9 1754.2,1068.5 1765.4,1049.9  Z" style="stroke-width: 0.5;  stroke: rgb(0,0,0); fill: rgb(179,177,178);" />
<path d="M 1805.183,1924.110 A 522.500,522.500 0.00 0,1 1792.0,1933.3 L 1792.0,1933.3 1779.0,1914.6 1765.6,1896.0 1751.5,1877.7 1737.0,1859.6 1721.9,1841.9 1706.3,1824.7 1690.1,1807.9 1673.5,1791.6 1656.3,1775.9 1638.7,1760.9 1620.6,1746.5 1602.0,1732.9 1583.0,1720.0 1563.6,1707.9 1543.7,1696.6 1523.5,1686.1 1502.9,1676.5 1482.0,1667.8 1460.7,1660.0 1439.1,1653.1 1417.2,1647.1 1395.1,1642.0 1372.8,1637.9 1350.2,1634.7 1327.5,1632.3 1304.7,1630.9 1281.7,1630.4 1258.7,1630.7 1235.6,1631.9 1212.5,1633.9 1189.4,1636.7 1166.5,1640.3 1143.6,1644.6 1120.8,1649.5 1098.3,1655.2 1075.9,1661.4 1053.8,1668.2 1032.1,1675.5 1010.7,1683.3  A 522.500,522.500 0.00 0,1 1005.2,1667.8 L 1005.2,1667.8 1027.0,1660.7 1049.1,1654.0 1071.6,1647.9 1094.3,1642.2 1117.2,1637.2 1140.3,1632.7 1163.6,1629.0 1186.9,1626.0 1210.4,1623.7 1233.8,1622.2 1257.3,1621.4 1280.7,1621.5 1304.0,1622.5 1327.3,1624.2 1350.4,1626.9 1373.4,1630.4 1396.1,1634.8 1418.7,1640.1 1441.0,1646.3 1463.0,1653.4 1484.8,1661.3 1506.2,1670.1 1527.3,1679.7 1548.0,1690.2 1568.4,1701.5 1588.3,1713.5 1607.9,1726.3 1627.0,1739.9 1645.7,1754.1 1663.9,1768.9 1681.6,1784.4 1698.9,1800.5 1715.6,1817.0 1731.8,1834.1 1747.6,1851.5 1762.8,1869.3 1777.5,1887.3 1791.6,1905.7 1805.2,1924.1  Z" style="stroke-width: 0.5;  stroke: rgb(0,0,0); fill: rgb(179,177,178);" />
<path d="M 1786.052,1937.242 A 522.500,522.500 0.00 0,1 1773.5,1945.2 L 1773.5,1945.2 1761.4,1926.2 1748.9,1907.2 1735.7,1888.5 1722.1,1870.1 1707.8,1852.1 1693.1,1834.5 1677.8,1817.4 1662.0,1800.9 1645.7,1784.9 1628.8,1769.7 1611.5,1755.1 1593.7,1741.3 1575.5,1728.3 1556.8,1716.1 1537.7,1704.7 1518.2,1694.3 1498.3,1684.7 1478.0,1676.1 1457.4,1668.4 1436.4,1661.6 1415.2,1655.9 1393.7,1651.0 1371.9,1647.2 1350.0,1644.3 1327.8,1642.4 1305.5,1641.4 1283.1,1641.3 1260.6,1642.2 1238.0,1643.9 1215.5,1646.5 1192.9,1649.9 1170.4,1654.1 1148.0,1659.1 1125.8,1664.8 1103.7,1671.1 1081.9,1678.1 1060.3,1685.6 1039.1,1693.6 1018.2,1702.1  A 522.500,522.500 0.00 0,1 1012.6,1688.4 L 1012.6,1688.4 1033.9,1680.4 1055.5,1672.9 1077.4,1665.9 1099.6,1659.5 1122.1,1653.7 1144.7,1648.5 1167.4,1644.0 1190.3,1640.3 1213.2,1637.3 1236.1,1635.2 1259.1,1633.9 1281.9,1633.4 1304.7,1633.8 1327.4,1635.1 1350.0,1637.4 1372.4,1640.5 1394.5,1644.6 1416.5,1649.6 1438.1,1655.6 1459.5,1662.5 1480.6,1670.3 1501.3,1679.0 1521.7,1688.6 1541.7,1699.1 1561.4,1710.4 1580.6,1722.6 1599.3,1735.5 1617.7,1749.3 1635.5,1763.7 1652.9,1778.8 1669.8,1794.6 1686.2,1811.0 1702.0,1827.9 1717.4,1845.2 1732.2,1863.1 1746.5,1881.2 1760.2,1899.7 1773.4,1918.4 1786.1,1937.2  Z" style="stroke-width: 0.5;  stroke: rgb(0,0,0); fill: rgb(179,177,178);" />
<path d="M 1887.823,1149.858 A 522.500,522.500 0.00 0,1 1896.1,1159.3 L 1896.1,1159.3 1878.0,1174.6 1859.4,1189.7 1840.4,1204.5 1820.9,1219.0 1801.0,1233.2 1780.6,1246.9 1759.9,1260.3 1738.8,1273.2 1717.3,1285.5 1695.5,1297.3 1673.3,1308.6 1650.8,1319.3 1628.0,1329.3 1605.0,1338.7 1581.6,1347.5 1558.0,1355.6 1534.2,1363.0 1510.2,1369.7 1485.9,1375.6 1461.6,1380.9 1437.0,1385.4 1412.4,1389.2 1387.6,1392.3 1362.8,1394.7 1337.9,1396.3 1313.0,1397.3 1288.1,1397.5 1263.2,1397.0 1238.4,1395.9 1213.6,1394.1 1188.9,1391.7 1164.4,1388.7 1140.0,1385.1 1115.8,1380.9 1091.8,1376.2 1068.1,1371.0 1044.6,1365.3 1021.5,1359.3 998.7,1352.8  A 522.500,522.500 0.00 0,1 1002.3,1340.8 L 1002.3,1340.8 1024.9,1347.8 1047.7,1354.4 1070.9,1360.5 1094.4,1366.2 1118.1,1371.3 1142.1,1375.9 1166.2,1380.0 1190.5,1383.4 1214.9,1386.2 1239.5,1388.3 1264.1,1389.8 1288.7,1390.5 1313.4,1390.6 1338.1,1389.9 1362.7,1388.4 1387.3,1386.3 1411.8,1383.3 1436.2,1379.6 1460.5,1375.2 1484.6,1370.0 1508.5,1364.0 1532.3,1357.4 1555.8,1349.9 1579.1,1341.8 1602.1,1332.9 1624.9,1323.4 1647.4,1313.2 1669.5,1302.3 1691.4,1290.9 1712.8,1278.8 1733.9,1266.2 1754.7,1253.1 1775.0,1239.4 1794.9,1225.4 1814.4,1210.9 1833.4,1196.1 1852.0,1180.9 1870.2,1165.5 1887.8,1149.9  Z" style="stroke-width: 0.5;  stroke: rgb(0,0,0); fill: rgb(179,177,178);" />
<path d="M 1973.324,1721.294 A 522.500,522.500 0.00 0,1 1968.3,1731.8 L 1968.3,1731.8 1946.3,1721.1 1923.9,1710.6 1901.2,1700.4 1878.1,1690.5 1854.8,1681.0 1831.1,1671.7 1807.2,1662.9 1783.1,1654.5 1758.6,1646.5 1734.0,1639.0 1709.1,1631.9 1684.1,1625.3 1658.9,1619.2 1633.5,1613.6 1607.9,1608.5 1582.3,1604.0 1556.5,1600.0 1530.6,1596.5 1504.7,1593.6 1478.7,1591.3 1452.6,1589.5 1426.5,1588.2 1400.5,1587.6 1374.4,1587.4 1348.4,1587.9 1322.4,1588.8 1296.5,1590.3 1270.6,1592.3 1244.9,1594.8 1219.3,1597.8 1193.9,1601.3 1168.6,1605.3 1143.5,1609.7 1118.6,1614.5 1093.9,1619.8 1069.4,1625.4 1045.3,1631.3 1021.4,1637.6 997.8,1644.2  A 522.500,522.500 0.00 0,1 994.7,1632.9 L 994.7,1632.9 1018.5,1626.8 1042.7,1621.0 1067.1,1615.5 1091.8,1610.3 1116.7,1605.5 1141.8,1601.1 1167.1,1597.1 1192.6,1593.5 1218.2,1590.4 1244.0,1587.7 1269.8,1585.4 1295.8,1583.7 1321.9,1582.4 1348.0,1581.7 1374.2,1581.4 1400.4,1581.7 1426.7,1582.5 1452.9,1583.8 1479.1,1585.7 1505.2,1588.0 1531.3,1590.9 1557.4,1594.3 1583.3,1598.2 1609.2,1602.7 1634.9,1607.6 1660.4,1613.0 1685.9,1618.9 1711.1,1625.3 1736.2,1632.1 1761.1,1639.4 1785.7,1647.1 1810.1,1655.2 1834.3,1663.7 1858.2,1672.5 1881.8,1681.7 1905.2,1691.2 1928.2,1701.0 1950.9,1711.0 1973.3,1721.3  Z" style="stroke-width: 0.5;  stroke: rgb(0,0,0); fill: rgb(179,177,178);" />
</g>
<g id="plot0">
<g id="plot0-axis">
</g>
<line x1='2209.6' y1='1742.8' x2='2209.6' y2='1742.8' style="stroke-width:14.0;stroke:rgb(0,0,0);stroke-linecap:round;fill:none;" />
<line x1='2209.6' y1='1742.8' x2='2247.5' y2='1755.7' style="stroke-width:14.0;stroke:rgb(0,0,0);stroke-linecap:round;fill:none;" />
<line x1='2247.5' y1='1755.7' x2='2247.5' y2='1755.7' style="stroke-width:14.0;stroke:rgb(0,0,0);stroke-linecap:round;fill:none;" />
<text x="2259.0" y="1782.9" font-size="46.8px" font-family="CMUBright-Roman" style="text-anchor:start;fill:rgb(255,38,78);" transform="rotate(18.9,2259.0,1782.9)" >Histocap122p10B<tspan baseline-shift="-40%" font-size="90%">s</tspan>01756</text>
</g>
<defs>
<pattern id="vline" width="10" height="10" patternTransform="rotate(0 0 0)" patternUnits="userSpaceOnUse"><line x1="0" y1="0" x2="0" y2="10" style="stroke:black;stroke-width:5" /></pattern>
<pattern id="hline-sparse" width="10" height="10" patternTransform="rotate(0 0 0)" patternUnits="userSpaceOnUse"><line x1="0" y1="0" x2="10" y2="0" style="stroke:black;stroke-width:2" /></pattern>
<pattern id="hline" width="10" height="10" patternTransform="rotate(0 0 0)" patternUnits="userSpaceOnUse"><line x1="0" y1="0" x2="10" y2="0" style="stroke:black;stroke-width:5" /></pattern>
<pattern id="vline-sparse" width="10" height="10" patternTransform="rotate(0 0 0)" patternUnits="userSpaceOnUse"><line x1="0" y1="0" x2="0" y2="10" style="stroke:black;stroke-width:2" /></pattern>
<pattern id="checker" width="10" height="10" patternTransform="rotate(45 0 0)" patternUnits="userSpaceOnUse"><line x1="0" y1="0" x2="10" y2="0" style="stroke:black;stroke-width:2" /><line x1="0" y1="0" x2="0" y2="10" style="stroke:black;stroke-width:2" /></pattern>
<pattern id="checker" width="10" height="10" patternTransform="rotate(45 0 0)" patternUnits="userSpaceOnUse"><line x1="0" y1="0" x2="10" y2="0" style="stroke:black;stroke-width:5" /><line x1="0" y1="0" x2="0" y2="10" style="stroke:black;stroke-width:4" /></pattern>
</defs>
</svg>
