<?xml version="1.0" encoding="utf-8" standalone="no"?>
<!DOCTYPE svg PUBLIC "-//W3C//DTD SVG 1.1//EN" "http://www.w3.org/Graphics/SVG/1.1/DTD/svg11.dtd">
<svg width="3000px" height="3000px" version="1.1" xmlns="http://www.w3.org/2000/svg" xmlns:xlink="http://www.w3.org/1999/xlink">
<g id="bg">
<rect x="0" y="0" width="3000px" height="3000px" style="fill:rgb(255,255,255);"/>
</g>
<g id="ideograms">
<path d="M1500.000,950.000 A550.000,550.000 40.000 0,1 1714.375,2006.501 L1792.330,2190.683 A750.000,750.000 0.000 0,0 1500.000,750.000 Z" style="stroke-width:2.0;stroke:rgb(0,0,0);stroke-linecap:round;fill:rgb(179,177,178);" />
<text x="2455.5" y="1306.1" font-size="46.8px" font-family="CMUBright-Roman" style="text-anchor:middle;fill:rgb(0,0,0);" transform="rotate(438.5,2455.5,1306.1)" >HistocapCB174<tspan baseline-shift="-40%" font-size="90%">6</tspan></text>
<line x1='1592.5' y1='755.7' x2='1593.9' y2='743.8' style="stroke-width:8.0;stroke:rgb(150,150,150);stroke-linecap:round;fill:none;" />
<line x1='1692.2' y1='775.1' x2='1695.3' y2='763.5' style="stroke-width:8.0;stroke:rgb(150,150,150);stroke-linecap:round;fill:none;" />
<text x="1711.9" y="755.6" font-size="41.6px" font-family="CMUBright-Roman" style="text-anchor:start;fill:rgb(150,150,150);" transform="rotate(284.9,1711.9,755.6)" >3300 kb</text>
<line x1='1788.5' y1='807.7' x2='1793.1' y2='796.6' style="stroke-width:8.0;stroke:rgb(150,150,150);stroke-linecap:round;fill:none;" />
<line x1='1879.4' y1='853.1' x2='1885.5' y2='842.7' style="stroke-width:8.0;stroke:rgb(150,150,150);stroke-linecap:round;fill:none;" />
<line x1='1963.4' y1='910.3' x2='1970.8' y2='900.9' style="stroke-width:8.0;stroke:rgb(150,150,150);stroke-linecap:round;fill:none;" />
<line x1='2038.9' y1='978.4' x2='2047.5' y2='970.0' style="stroke-width:8.0;stroke:rgb(150,150,150);stroke-linecap:round;fill:none;" />
<line x1='2104.5' y1='1056.0' x2='2114.2' y2='1048.9' style="stroke-width:8.0;stroke:rgb(150,150,150);stroke-linecap:round;fill:none;" />
<text x="2132.0" y="1053.2" font-size="41.6px" font-family="CMUBright-Roman" style="text-anchor:start;fill:rgb(150,150,150);" transform="rotate(323.7,2132.0,1053.2)" >3350 kb</text>
<line x1='2159.0' y1='1141.9' x2='2169.5' y2='1136.1' style="stroke-width:8.0;stroke:rgb(150,150,150);stroke-linecap:round;fill:none;" />
<line x1='2201.3' y1='1234.2' x2='2212.6' y2='1230.0' style="stroke-width:8.0;stroke:rgb(150,150,150);stroke-linecap:round;fill:none;" />
<line x1='2230.8' y1='1331.5' x2='2242.5' y2='1328.8' style="stroke-width:8.0;stroke:rgb(150,150,150);stroke-linecap:round;fill:none;" />
<line x1='2246.9' y1='1431.9' x2='2258.8' y2='1430.8' style="stroke-width:8.0;stroke:rgb(150,150,150);stroke-linecap:round;fill:none;" />
<line x1='2249.3' y1='1533.5' x2='2261.2' y2='1534.0' style="stroke-width:8.0;stroke:rgb(150,150,150);stroke-linecap:round;fill:none;" />
<text x="2272.5" y="1548.5" font-size="41.6px" font-family="CMUBright-Roman" style="text-anchor:start;fill:rgb(150,150,150);" transform="rotate(2.6,2272.5,1548.5)" >3400 kb</text>
<line x1='2237.8' y1='1634.5' x2='2249.7' y2='1636.6' style="stroke-width:8.0;stroke:rgb(150,150,150);stroke-linecap:round;fill:none;" />
<line x1='2212.9' y1='1733.0' x2='2224.3' y2='1736.7' style="stroke-width:8.0;stroke:rgb(150,150,150);stroke-linecap:round;fill:none;" />
<line x1='2174.8' y1='1827.3' x2='2185.6' y2='1832.5' style="stroke-width:8.0;stroke:rgb(150,150,150);stroke-linecap:round;fill:none;" />
<line x1='2124.4' y1='1915.5' x2='2134.4' y2='1922.1' style="stroke-width:8.0;stroke:rgb(150,150,150);stroke-linecap:round;fill:none;" />
<line x1='2062.5' y1='1996.1' x2='2071.5' y2='2004.0' style="stroke-width:8.0;stroke:rgb(150,150,150);stroke-linecap:round;fill:none;" />
<text x="2071.1" y="2022.4" font-size="41.6px" font-family="CMUBright-Roman" style="text-anchor:start;fill:rgb(150,150,150);" transform="rotate(41.4,2071.1,2022.4)" >3450 kb</text>
<line x1='1990.2' y1='2067.6' x2='1998.1' y2='2076.7' style="stroke-width:8.0;stroke:rgb(150,150,150);stroke-linecap:round;fill:none;" />
<line x1='1909.0' y1='2128.7' x2='1915.5' y2='2138.7' style="stroke-width:8.0;stroke:rgb(150,150,150);stroke-linecap:round;fill:none;" />
<line x1='1820.2' y1='2178.2' x2='1825.4' y2='2189.1' style="stroke-width:8.0;stroke:rgb(150,150,150);stroke-linecap:round;fill:none;" />
<g id="highlighttrack_0">
<path d="M2037.390,1382.902 A550.000,550.000 40.000 0,1 2040.530,1398.377 L2237.087,1361.423 A750.000,750.000 0.000 0,0 2232.805,1340.320 Z" style="stroke-width:14.0;stroke:rgb(0,0,0);stroke-linecap:round;fill:rgb(255,38,78);" />
</g>
<path d="M1500.000,950.000 A550.000,550.000 40.000 0,1 1714.375,2006.501 L1792.330,2190.683 A750.000,750.000 0.000 0,0 1500.000,750.000 Z" style="stroke-width:2.0;stroke:rgb(0,0,0);stroke-linecap:round;fill:none;" />
<path d="M1496.431,2049.988 A550.000,550.000 40.000 0,1 1282.343,994.901 L1203.194,811.228 A750.000,750.000 0.000 0,0 1495.133,2249.984 Z" style="stroke-width:2.0;stroke:rgb(0,0,0);stroke-linecap:round;fill:rgb(179,177,178);" />
<text x="500.4" y="1702.8" font-size="46.8px" font-family="CMUBright-Roman" style="text-anchor:middle;fill:rgb(0,0,0);" transform="rotate(78.5,500.4,1702.8)" >HistocapCB186<tspan baseline-shift="-40%" font-size="90%">6</tspan></text>
<line x1='1197.2' y1='813.9' x2='1192.3' y2='802.9' style="stroke-width:8.0;stroke:rgb(150,150,150);stroke-linecap:round;fill:none;" />
<line x1='1107.2' y1='861.1' x2='1100.9' y2='850.9' style="stroke-width:8.0;stroke:rgb(150,150,150);stroke-linecap:round;fill:none;" />
<text x="1082.7" y="848.1" font-size="41.6px" font-family="CMUBright-Roman" style="text-anchor:end;fill:rgb(150,150,150);" transform="rotate(58.4,1082.7,848.1)" >3150 kb</text>
<line x1='1024.4' y1='920.1' x2='1016.8' y2='910.8' style="stroke-width:8.0;stroke:rgb(150,150,150);stroke-linecap:round;fill:none;" />
<line x1='950.4' y1='989.7' x2='941.6' y2='981.5' style="stroke-width:8.0;stroke:rgb(150,150,150);stroke-linecap:round;fill:none;" />
<line x1='886.4' y1='1068.7' x2='876.6' y2='1061.8' style="stroke-width:8.0;stroke:rgb(150,150,150);stroke-linecap:round;fill:none;" />
<line x1='833.7' y1='1155.6' x2='823.1' y2='1150.1' style="stroke-width:8.0;stroke:rgb(150,150,150);stroke-linecap:round;fill:none;" />
<line x1='793.3' y1='1248.9' x2='782.0' y2='1244.9' style="stroke-width:8.0;stroke:rgb(150,150,150);stroke-linecap:round;fill:none;" />
<text x="766.1" y="1254.1" font-size="41.6px" font-family="CMUBright-Roman" style="text-anchor:end;fill:rgb(150,150,150);" transform="rotate(19.6,766.1,1254.1)" >3200 kb</text>
<line x1='765.8' y1='1346.7' x2='754.1' y2='1344.3' style="stroke-width:8.0;stroke:rgb(150,150,150);stroke-linecap:round;fill:none;" />
<line x1='751.8' y1='1447.4' x2='739.9' y2='1446.6' style="stroke-width:8.0;stroke:rgb(150,150,150);stroke-linecap:round;fill:none;" />
<line x1='751.6' y1='1549.1' x2='739.6' y2='1549.8' style="stroke-width:8.0;stroke:rgb(150,150,150);stroke-linecap:round;fill:none;" />
<line x1='765.1' y1='1649.8' x2='753.4' y2='1652.2' style="stroke-width:8.0;stroke:rgb(150,150,150);stroke-linecap:round;fill:none;" />
<line x1='792.1' y1='1747.8' x2='780.8' y2='1751.8' style="stroke-width:8.0;stroke:rgb(150,150,150);stroke-linecap:round;fill:none;" />
<text x="774.2" y="1768.9" font-size="41.6px" font-family="CMUBright-Roman" style="text-anchor:end;fill:rgb(150,150,150);" transform="rotate(-19.3,774.2,1768.9)" >3250 kb</text>
<line x1='832.1' y1='1841.2' x2='821.4' y2='1846.7' style="stroke-width:8.0;stroke:rgb(150,150,150);stroke-linecap:round;fill:none;" />
<line x1='884.4' y1='1928.4' x2='874.5' y2='1935.3' style="stroke-width:8.0;stroke:rgb(150,150,150);stroke-linecap:round;fill:none;" />
<line x1='948.0' y1='2007.7' x2='939.1' y2='2015.8' style="stroke-width:8.0;stroke:rgb(150,150,150);stroke-linecap:round;fill:none;" />
<line x1='1021.7' y1='2077.7' x2='1014.0' y2='2086.9' style="stroke-width:8.0;stroke:rgb(150,150,150);stroke-linecap:round;fill:none;" />
<line x1='1104.2' y1='2137.0' x2='1097.8' y2='2147.2' style="stroke-width:8.0;stroke:rgb(150,150,150);stroke-linecap:round;fill:none;" />
<text x="1103.5" y="2164.7" font-size="41.6px" font-family="CMUBright-Roman" style="text-anchor:end;fill:rgb(150,150,150);" transform="rotate(-58.1,1103.5,2164.7)" >3300 kb</text>
<line x1='1194.0' y1='2184.7' x2='1189.1' y2='2195.7' style="stroke-width:8.0;stroke:rgb(150,150,150);stroke-linecap:round;fill:none;" />
<line x1='1289.3' y1='2219.8' x2='1286.0' y2='2231.3' style="stroke-width:8.0;stroke:rgb(150,150,150);stroke-linecap:round;fill:none;" />
<line x1='1388.6' y1='2241.7' x2='1386.8' y2='2253.5' style="stroke-width:8.0;stroke:rgb(150,150,150);stroke-linecap:round;fill:none;" />
<line x1='1489.9' y1='2249.9' x2='1489.7' y2='2261.9' style="stroke-width:8.0;stroke:rgb(150,150,150);stroke-linecap:round;fill:none;" />
<path d="M1496.431,2049.988 A550.000,550.000 40.000 0,1 1282.343,994.901 L1203.194,811.228 A750.000,750.000 0.000 0,0 1495.133,2249.984 Z" style="stroke-width:2.0;stroke:rgb(0,0,0);stroke-linecap:round;fill:none;" />
</g>
<g id="track_0">
<path d="M 1500.000,977.500 A 522.500,522.500 0.00 0,1 1611.3,989.5 L 1611.3,989.5 1606.7,1009.5 1601.9,1029.4 1596.6,1049.0 1591.0,1068.2 1585.1,1086.8 1578.8,1104.8 1572.2,1122.1 1565.2,1138.5 1557.9,1154.0 1550.3,1168.5 1542.3,1182.0 1534.0,1194.2 1525.4,1205.3 1516.6,1215.1 1507.4,1223.6 1497.9,1230.7 1488.2,1236.5 1478.3,1240.9 1468.1,1243.8 1457.7,1245.3 1447.1,1245.4 1436.3,1244.0 1425.4,1241.3 1414.3,1237.1 1403.1,1231.6 1391.8,1224.7 1380.4,1216.6 1369.0,1207.1 1357.5,1196.5 1346.1,1184.8 1334.6,1172.0 1323.3,1158.2 1312.0,1143.6 1300.9,1128.1 1289.9,1111.9 1279.1,1095.1 1268.5,1077.8 1258.1,1060.2 1248.1,1042.2  A 522.500,522.500 0.00 0,1 1293.2,1020.2 L 1293.2,1020.2 1301.3,1038.7 1309.6,1057.0 1317.9,1075.0 1326.4,1092.5 1334.9,1109.4 1343.4,1125.6 1351.9,1141.0 1360.3,1155.5 1368.6,1169.0 1376.9,1181.5 1385.0,1192.7 1392.9,1202.8 1400.7,1211.5 1408.2,1219.0 1415.5,1225.0 1422.6,1229.6 1429.4,1232.8 1435.9,1234.6 1442.2,1234.8 1448.1,1233.6 1453.8,1230.9 1459.1,1226.7 1464.1,1221.1 1468.8,1214.0 1473.1,1205.6 1477.1,1195.8 1480.7,1184.7 1484.0,1172.3 1487.0,1158.7 1489.7,1144.1 1492.0,1128.4 1494.0,1111.7 1495.7,1094.2 1497.1,1076.0 1498.2,1057.1 1499.0,1037.6 1499.6,1017.8 1499.9,997.7 1500.0,977.5  Z" style="stroke-width: 0.5;  stroke: rgb(0,0,0); fill: rgb(179,177,178);" />
<path d="M 2021.937,1524.246 A 522.500,522.500 0.00 0,1 2001.0,1648.4 L 2001.0,1648.4 1978.1,1641.9 1954.9,1635.7 1931.5,1629.9 1907.7,1624.7 1883.7,1619.9 1859.4,1615.6 1835.0,1611.8 1810.4,1608.7 1785.7,1606.1 1760.9,1604.2 1736.0,1602.9 1711.0,1602.3 1686.0,1602.4 1661.0,1603.1 1636.0,1604.6 1611.1,1606.7 1586.2,1609.6 1561.4,1613.2 1536.8,1617.5 1512.2,1622.5 1487.8,1628.2 1463.6,1634.6 1439.6,1641.7 1415.9,1649.5 1392.3,1658.0 1369.0,1667.1 1346.0,1676.8 1323.3,1687.2 1300.9,1698.1 1278.8,1709.6 1257.0,1721.7 1235.7,1734.2 1214.6,1747.2 1194.0,1760.7 1173.8,1774.5 1154.0,1788.7 1134.7,1803.2 1115.7,1817.9 1097.3,1832.9  A 522.500,522.500 0.00 0,1 1029.3,1726.9 L 1029.3,1726.9 1052.1,1716.0 1075.2,1705.4 1098.5,1694.8 1122.1,1684.5 1145.9,1674.4 1170.0,1664.6 1194.2,1654.9 1218.7,1645.6 1243.4,1636.5 1268.3,1627.7 1293.4,1619.3 1318.6,1611.1 1344.1,1603.3 1369.6,1595.8 1395.3,1588.6 1421.2,1581.8 1447.1,1575.3 1473.2,1569.2 1499.3,1563.5 1525.5,1558.2 1551.8,1553.2 1578.2,1548.6 1604.6,1544.3 1631.0,1540.5 1657.5,1537.0 1683.9,1533.9 1710.4,1531.1 1736.8,1528.7 1763.2,1526.7 1789.5,1525.0 1815.8,1523.7 1842.0,1522.7 1868.1,1522.0 1894.1,1521.7 1920.0,1521.6 1945.7,1521.9 1971.3,1522.4 1996.7,1523.2 2021.9,1524.2  Z" style="stroke-width: 0.5;  stroke: rgb(0,0,0); fill: rgb(179,177,178);" />
<path d="M 1976.768,1713.773 A 522.500,522.500 0.00 0,1 1936.1,1787.8 L 1936.1,1787.8 1917.4,1775.8 1898.3,1764.2 1878.9,1753.1 1859.0,1742.4 1838.9,1732.4 1818.6,1723.1 1798.0,1714.5 1777.2,1706.6 1756.3,1699.6 1735.3,1693.5 1714.1,1688.2 1693.0,1684.0 1671.8,1680.6 1650.7,1678.3 1629.6,1677.0 1608.6,1676.8 1587.7,1677.6 1566.9,1679.5 1546.3,1682.4 1525.9,1686.4 1505.8,1691.4 1485.8,1697.5 1466.2,1704.7 1446.8,1712.8 1427.8,1722.0 1409.1,1732.1 1390.7,1743.2 1372.7,1755.1 1355.2,1768.0 1338.0,1781.6 1321.3,1796.0 1305.0,1811.1 1289.2,1826.8 1273.9,1843.2 1259.0,1860.0 1244.7,1877.3 1230.8,1895.0 1217.6,1913.0 1204.8,1931.1  A 522.500,522.500 0.00 0,1 1139.2,1877.9 L 1139.2,1877.9 1155.3,1861.4 1171.9,1845.1 1189.0,1829.1 1206.6,1813.5 1224.6,1798.3 1243.2,1783.5 1262.1,1769.2 1281.5,1755.5 1301.3,1742.4 1321.5,1729.9 1342.1,1718.1 1363.0,1707.0 1384.3,1696.7 1405.9,1687.1 1427.7,1678.4 1449.9,1670.4 1472.3,1663.3 1494.9,1657.1 1517.8,1651.7 1540.8,1647.2 1564.0,1643.6 1587.3,1640.8 1610.7,1638.9 1634.2,1637.9 1657.8,1637.8 1681.4,1638.5 1705.0,1640.0 1728.5,1642.4 1752.0,1645.5 1775.4,1649.5 1798.7,1654.1 1821.9,1659.5 1844.8,1665.6 1867.6,1672.3 1890.0,1679.6 1912.2,1687.4 1934.1,1695.8 1955.6,1704.6 1976.8,1713.8  Z" style="stroke-width: 0.5;  stroke: rgb(0,0,0); fill: rgb(179,177,178);" />
<path d="M 1618.197,991.044 A 522.500,522.500 0.00 0,1 1688.9,1012.9 L 1688.9,1012.9 1681.1,1032.3 1672.9,1051.6 1664.2,1070.7 1655.1,1089.3 1645.5,1107.4 1635.6,1124.8 1625.2,1141.6 1614.4,1157.6 1603.3,1172.7 1591.8,1186.8 1579.9,1200.0 1567.7,1212.1 1555.1,1223.0 1542.2,1232.7 1529.1,1241.3 1515.6,1248.6 1501.9,1254.6 1487.9,1259.2 1473.8,1262.6 1459.4,1264.6 1444.8,1265.3 1430.1,1264.7 1415.3,1262.7 1400.3,1259.5 1385.3,1254.9 1370.3,1249.1 1355.2,1242.1 1340.1,1233.9 1325.0,1224.6 1310.0,1214.2 1295.1,1202.7 1280.3,1190.4 1265.7,1177.1 1251.3,1163.1 1237.1,1148.4 1223.2,1133.0 1209.6,1117.2 1196.3,1100.9 1183.4,1084.3  A 522.500,522.500 0.00 0,1 1245.3,1043.8 L 1245.3,1043.8 1255.5,1061.6 1266.0,1079.2 1276.7,1096.5 1287.7,1113.2 1298.8,1129.4 1310.1,1144.8 1321.6,1159.5 1333.1,1173.2 1344.7,1185.9 1356.4,1197.6 1368.0,1208.2 1379.7,1217.6 1391.3,1225.7 1402.8,1232.6 1414.2,1238.1 1425.6,1242.2 1436.8,1245.0 1447.8,1246.3 1458.7,1246.2 1469.3,1244.7 1479.8,1241.8 1490.0,1237.4 1500.0,1231.7 1509.8,1224.6 1519.2,1216.1 1528.4,1206.3 1537.3,1195.3 1545.9,1183.1 1554.2,1169.7 1562.1,1155.2 1569.7,1139.7 1577.0,1123.3 1583.9,1106.1 1590.5,1088.1 1596.8,1069.5 1602.7,1050.4 1608.2,1030.9 1613.4,1011.0 1618.2,991.0  Z" style="stroke-width: 0.5;  stroke: rgb(0,0,0); fill: rgb(179,177,178);" />
<path d="M 1849.039,1888.817 A 522.500,522.500 0.00 0,1 1793.7,1932.1 L 1793.7,1932.1 1782.0,1915.2 1769.9,1898.5 1757.6,1882.2 1745.1,1866.4 1732.4,1851.3 1719.6,1836.9 1706.7,1823.2 1693.8,1810.5 1680.8,1798.8 1667.9,1788.1 1655.0,1778.5 1642.1,1770.1 1629.4,1762.9 1616.8,1757.1 1604.4,1752.5 1592.2,1749.2 1580.2,1747.4 1568.4,1746.9 1556.9,1747.8 1545.7,1750.1 1534.8,1753.8 1524.1,1758.9 1513.8,1765.4 1503.9,1773.2 1494.3,1782.3 1485.1,1792.7 1476.2,1804.3 1467.8,1817.1 1459.7,1831.0 1452.0,1845.9 1444.8,1861.8 1437.9,1878.6 1431.4,1896.2 1425.4,1914.6 1419.7,1933.5 1414.5,1952.9 1409.6,1972.7 1405.1,1992.8 1401.0,2013.0  A 522.500,522.500 0.00 0,1 1333.1,1995.1 L 1333.1,1995.1 1340.0,1975.3 1347.5,1955.5 1355.3,1936.1 1363.7,1917.0 1372.5,1898.4 1381.7,1880.4 1391.5,1863.1 1401.6,1846.5 1412.3,1830.8 1423.3,1815.9 1434.8,1802.1 1446.7,1789.3 1459.0,1777.6 1471.6,1767.1 1484.7,1757.7 1498.1,1749.5 1511.9,1742.6 1525.9,1737.0 1540.3,1732.7 1555.0,1729.7 1569.9,1728.0 1585.0,1727.6 1600.4,1728.5 1615.9,1730.6 1631.6,1734.1 1647.4,1738.8 1663.4,1744.7 1679.3,1751.7 1695.4,1759.9 1711.4,1769.1 1727.3,1779.4 1743.2,1790.6 1759.0,1802.7 1774.6,1815.5 1790.1,1829.1 1805.3,1843.4 1820.2,1858.1 1834.8,1873.3 1849.0,1888.8  Z" style="stroke-width: 0.5;  stroke: rgb(0,0,0); fill: rgb(179,177,178);" />
<path d="M 2019.229,1441.622 A 522.500,522.500 0.00 0,1 2022.5,1504.4 L 2022.5,1504.4 1997.0,1504.3 1971.4,1504.4 1945.6,1504.8 1919.7,1505.4 1893.6,1506.2 1867.5,1507.3 1841.3,1508.7 1815.0,1510.4 1788.6,1512.4 1762.2,1514.6 1735.7,1517.2 1709.2,1520.0 1682.6,1523.2 1656.1,1526.7 1629.6,1530.5 1603.1,1534.6 1576.6,1539.0 1550.1,1543.8 1523.7,1548.9 1497.4,1554.3 1471.1,1560.0 1444.9,1566.0 1418.8,1572.3 1392.8,1579.0 1367.0,1585.9 1341.2,1593.1 1315.5,1600.7 1290.1,1608.4 1264.7,1616.5 1239.5,1624.8 1214.5,1633.4 1189.6,1642.2 1165.0,1651.2 1140.5,1660.5 1116.2,1670.0 1092.2,1679.6 1068.3,1689.4 1044.7,1699.4 1021.3,1709.5  A 522.500,522.500 0.00 0,1 999.6,1650.5 L 999.6,1650.5 1024.8,1643.0 1050.0,1635.5 1075.4,1628.2 1100.8,1620.9 1126.3,1613.7 1151.9,1606.6 1177.6,1599.6 1203.4,1592.7 1229.3,1585.9 1255.2,1579.2 1281.2,1572.6 1307.3,1566.2 1333.4,1559.9 1359.6,1553.7 1385.9,1547.6 1412.1,1541.6 1438.5,1535.8 1464.9,1530.1 1491.3,1524.6 1517.7,1519.2 1544.2,1513.9 1570.6,1508.7 1597.1,1503.7 1623.7,1498.9 1650.2,1494.1 1676.7,1489.5 1703.2,1485.1 1729.7,1480.8 1756.2,1476.6 1782.7,1472.5 1809.1,1468.6 1835.6,1464.8 1861.9,1461.2 1888.3,1457.6 1914.6,1454.2 1940.8,1450.9 1967.0,1447.7 1993.2,1444.6 2019.2,1441.6  Z" style="stroke-width: 0.5;  stroke: rgb(0,0,0); fill: rgb(179,177,178);" />
<path d="M 2000.949,1648.515 A 522.500,522.500 0.00 0,1 1981.3,1703.5 L 1981.3,1703.5 1959.9,1694.7 1938.1,1686.3 1916.0,1678.4 1893.5,1671.0 1870.8,1664.1 1847.9,1657.8 1824.7,1652.2 1801.4,1647.2 1777.9,1642.9 1754.3,1639.4 1730.6,1636.6 1706.8,1634.6 1683.1,1633.4 1659.3,1633.0 1635.6,1633.5 1611.9,1634.8 1588.3,1636.9 1564.9,1640.0 1541.5,1643.9 1518.4,1648.6 1495.4,1654.2 1472.6,1660.6 1450.1,1667.9 1427.8,1676.0 1405.8,1684.9 1384.1,1694.6 1362.7,1705.0 1341.7,1716.2 1321.0,1728.1 1300.7,1740.6 1280.7,1753.8 1261.2,1767.5 1242.1,1781.8 1223.5,1796.6 1205.3,1811.9 1187.6,1827.5 1170.4,1843.5 1153.7,1859.8 1137.4,1876.2  A 522.500,522.500 0.00 0,1 1097.7,1833.4 L 1097.7,1833.4 1116.2,1818.5 1135.1,1803.7 1154.4,1789.2 1174.2,1775.0 1194.4,1761.1 1215.0,1747.6 1236.0,1734.6 1257.3,1722.1 1279.0,1710.0 1301.1,1698.5 1323.5,1687.5 1346.2,1677.1 1369.2,1667.4 1392.5,1658.2 1416.0,1649.8 1439.8,1641.9 1463.8,1634.8 1488.0,1628.4 1512.3,1622.7 1536.9,1617.6 1561.5,1613.3 1586.3,1609.7 1611.1,1606.9 1636.1,1604.7 1661.0,1603.2 1686.0,1602.5 1711.0,1602.4 1736.0,1603.1 1760.9,1604.3 1785.7,1606.3 1810.4,1608.8 1835.0,1612.0 1859.4,1615.7 1883.7,1620.0 1907.7,1624.8 1931.4,1630.1 1954.9,1635.8 1978.1,1642.0 2000.9,1648.5  Z" style="stroke-width: 0.5;  stroke: rgb(0,0,0); fill: rgb(179,177,178);" />
<path d="M 1759.300,1046.381 A 522.500,522.500 0.00 0,1 1806.9,1077.1 L 1806.9,1077.1 1793.7,1094.8 1780.1,1112.2 1765.9,1129.4 1751.2,1146.1 1736.0,1162.3 1720.4,1178.0 1704.4,1193.1 1687.9,1207.4 1671.0,1221.0 1653.7,1233.8 1636.1,1245.8 1618.1,1256.8 1599.7,1266.9 1581.1,1276.0 1562.2,1284.0 1543.0,1291.0 1523.6,1297.0 1504.0,1301.9 1484.2,1305.6 1464.3,1308.3 1444.2,1309.9 1424.0,1310.3 1403.7,1309.6 1383.3,1307.9 1363.0,1305.1 1342.6,1301.2 1322.3,1296.3 1302.0,1290.3 1281.9,1283.4 1261.8,1275.6 1242.0,1266.9 1222.3,1257.4 1202.9,1247.1 1183.7,1236.0 1164.8,1224.3 1146.2,1212.1 1128.1,1199.3 1110.3,1186.0 1093.0,1172.4  A 522.500,522.500 0.00 0,1 1130.8,1130.2 L 1130.8,1130.2 1146.2,1145.3 1162.1,1160.0 1178.3,1174.3 1194.9,1188.1 1211.8,1201.3 1228.9,1213.8 1246.4,1225.5 1264.0,1236.4 1281.8,1246.4 1299.7,1255.5 1317.8,1263.5 1336.0,1270.5 1354.1,1276.5 1372.4,1281.3 1390.5,1284.9 1408.7,1287.4 1426.8,1288.7 1444.8,1288.7 1462.6,1287.6 1480.4,1285.2 1497.9,1281.7 1515.2,1276.9 1532.4,1270.9 1549.2,1263.7 1565.8,1255.4 1582.1,1246.0 1598.1,1235.5 1613.8,1224.0 1629.1,1211.5 1644.1,1198.1 1658.6,1183.7 1672.8,1168.6 1686.5,1152.7 1699.8,1136.1 1712.7,1119.0 1725.1,1101.4 1737.0,1083.3 1748.4,1065.0 1759.3,1046.4  Z" style="stroke-width: 0.5;  stroke: rgb(0,0,0); fill: rgb(179,177,178);" />
<path d="M 1995.495,1334.195 A 522.500,522.500 0.00 0,1 2010.5,1388.8 L 2010.5,1388.8 1984.4,1394.4 1958.3,1400.1 1932.1,1405.8 1906.0,1411.4 1879.8,1417.1 1853.6,1422.7 1827.5,1428.3 1801.3,1433.9 1775.1,1439.5 1748.8,1445.1 1722.6,1450.7 1696.4,1456.2 1670.2,1461.7 1643.9,1467.3 1617.7,1472.8 1591.4,1478.3 1565.1,1483.7 1538.9,1489.2 1512.6,1494.6 1486.3,1500.0 1460.0,1505.4 1433.7,1510.8 1407.5,1516.2 1381.2,1521.6 1354.9,1526.9 1328.6,1532.2 1302.3,1537.5 1276.0,1542.8 1249.7,1548.1 1223.5,1553.3 1197.2,1558.5 1170.9,1563.8 1144.6,1569.0 1118.4,1574.2 1092.1,1579.3 1065.9,1584.5 1039.6,1589.6 1013.4,1594.8 987.1,1599.9  A 522.500,522.500 0.00 0,1 979.3,1543.8 L 979.3,1543.8 1005.3,1541.6 1031.3,1539.2 1057.5,1536.7 1083.7,1534.0 1109.9,1531.2 1136.3,1528.2 1162.6,1525.0 1189.1,1521.7 1215.5,1518.2 1242.0,1514.6 1268.5,1510.8 1295.1,1506.8 1321.6,1502.6 1348.2,1498.2 1374.7,1493.7 1401.3,1488.9 1427.8,1484.0 1454.3,1478.9 1480.8,1473.7 1507.2,1468.2 1533.6,1462.6 1560.0,1456.8 1586.3,1450.8 1612.5,1444.6 1638.7,1438.3 1664.8,1431.8 1690.9,1425.1 1716.8,1418.3 1742.7,1411.3 1768.5,1404.2 1794.2,1396.9 1819.7,1389.5 1845.2,1381.9 1870.6,1374.3 1895.8,1366.5 1920.9,1358.5 1945.9,1350.5 1970.8,1342.4 1995.5,1334.2  Z" style="stroke-width: 0.5;  stroke: rgb(0,0,0); fill: rgb(179,177,178);" />
<path d="M 1944.693,1225.675 A 522.500,522.500 0.00 0,1 1968.3,1268.3 L 1968.3,1268.3 1945.8,1279.3 1923.0,1290.2 1899.8,1300.8 1876.5,1311.2 1852.8,1321.4 1828.9,1331.3 1804.8,1340.9 1780.4,1350.3 1755.8,1359.3 1731.0,1368.0 1706.0,1376.4 1680.8,1384.4 1655.5,1392.1 1630.0,1399.4 1604.3,1406.3 1578.5,1412.8 1552.6,1419.0 1526.6,1424.7 1500.4,1430.0 1474.2,1434.9 1447.9,1439.4 1421.6,1443.5 1395.2,1447.2 1368.8,1450.5 1342.4,1453.3 1316.0,1455.8 1289.6,1457.8 1263.2,1459.5 1236.9,1460.7 1210.6,1461.6 1184.4,1462.1 1158.3,1462.2 1132.3,1461.9 1106.4,1461.4 1080.7,1460.5 1055.1,1459.2 1029.7,1457.7 1004.5,1455.9 979.5,1453.8  A 522.500,522.500 0.00 0,1 986.1,1405.5 L 986.1,1405.5 1010.3,1409.7 1034.7,1413.7 1059.3,1417.3 1084.2,1420.5 1109.3,1423.3 1134.5,1425.7 1160.0,1427.6 1185.5,1429.1 1211.2,1430.1 1237.0,1430.6 1262.9,1430.7 1288.8,1430.2 1314.7,1429.2 1340.7,1427.6 1366.7,1425.5 1392.6,1422.9 1418.5,1419.7 1444.4,1416.0 1470.2,1411.8 1495.8,1406.9 1521.4,1401.6 1546.8,1395.7 1572.1,1389.2 1597.3,1382.3 1622.2,1374.8 1647.0,1366.8 1671.6,1358.4 1695.9,1349.4 1720.0,1340.1 1743.8,1330.2 1767.4,1320.0 1790.7,1309.3 1813.7,1298.3 1836.4,1286.9 1858.7,1275.2 1880.7,1263.2 1902.4,1250.9 1923.7,1238.4 1944.7,1225.7  Z" style="stroke-width: 0.5;  stroke: rgb(0,0,0); fill: rgb(179,177,178);" />
<path d="M 2013.504,1403.458 A 522.500,522.500 0.00 0,1 2019.1,1440.9 L 2019.1,1440.9 1993.0,1443.9 1966.9,1447.0 1940.7,1450.3 1914.4,1453.6 1888.1,1457.0 1861.7,1460.5 1835.3,1464.2 1808.9,1468.0 1782.4,1471.9 1755.9,1475.9 1729.4,1480.0 1702.9,1484.3 1676.4,1488.7 1649.8,1493.2 1623.3,1497.8 1596.8,1502.6 1570.3,1507.5 1543.8,1512.5 1517.3,1517.7 1490.8,1522.9 1464.4,1528.3 1438.0,1533.9 1411.6,1539.5 1385.3,1545.3 1359.0,1551.2 1332.8,1557.2 1306.6,1563.3 1280.5,1569.6 1254.4,1575.9 1228.4,1582.4 1202.5,1589.0 1176.6,1595.6 1150.9,1602.4 1125.2,1609.2 1099.5,1616.2 1074.0,1623.2 1048.5,1630.3 1023.2,1637.5 997.9,1644.7  A 522.500,522.500 0.00 0,1 988.8,1607.9 L 988.8,1607.9 1014.9,1602.4 1041.1,1596.9 1067.3,1591.4 1093.4,1585.9 1119.6,1580.5 1145.9,1575.0 1172.1,1569.5 1198.3,1564.1 1224.6,1558.7 1250.8,1553.3 1277.1,1547.9 1303.3,1542.5 1329.6,1537.1 1355.9,1531.8 1382.2,1526.5 1408.5,1521.2 1434.8,1515.9 1461.1,1510.6 1487.4,1505.3 1513.7,1500.0 1540.0,1494.8 1566.3,1489.6 1592.6,1484.4 1619.0,1479.2 1645.3,1474.1 1671.6,1468.9 1697.9,1463.8 1724.2,1458.7 1750.6,1453.6 1776.9,1448.5 1803.2,1443.4 1829.5,1438.4 1855.8,1433.3 1882.1,1428.3 1908.4,1423.3 1934.7,1418.3 1961.0,1413.4 1987.2,1408.4 2013.5,1403.5  Z" style="stroke-width: 0.5;  stroke: rgb(0,0,0); fill: rgb(179,177,178);" />
<path d="M 1851.151,1113.090 A 522.500,522.500 0.00 0,1 1875.7,1136.9 L 1875.7,1136.9 1859.1,1152.6 1841.9,1168.0 1824.3,1183.1 1806.3,1197.9 1787.7,1212.2 1768.8,1226.0 1749.4,1239.2 1729.6,1251.8 1709.5,1263.8 1689.0,1275.0 1668.2,1285.6 1647.0,1295.3 1625.6,1304.3 1603.9,1312.4 1582.0,1319.7 1559.8,1326.1 1537.4,1331.6 1514.9,1336.2 1492.2,1339.9 1469.4,1342.6 1446.5,1344.4 1423.6,1345.3 1400.5,1345.3 1377.5,1344.4 1354.4,1342.5 1331.4,1339.8 1308.5,1336.2 1285.6,1331.7 1262.9,1326.5 1240.3,1320.4 1217.9,1313.6 1195.7,1306.0 1173.7,1297.8 1152.1,1288.9 1130.7,1279.4 1109.6,1269.4 1088.9,1258.9 1068.6,1248.0 1048.7,1236.7  A 522.500,522.500 0.00 0,1 1066.9,1207.7 L 1066.9,1207.7 1085.7,1220.1 1104.9,1232.1 1124.6,1243.7 1144.6,1254.8 1165.0,1265.3 1185.7,1275.2 1206.6,1284.4 1227.8,1292.9 1249.3,1300.6 1270.8,1307.5 1292.6,1313.5 1314.4,1318.7 1336.4,1322.9 1358.4,1326.2 1380.4,1328.6 1402.4,1330.0 1424.4,1330.4 1446.4,1329.7 1468.2,1328.1 1490.0,1325.5 1511.6,1321.9 1533.1,1317.2 1554.3,1311.6 1575.4,1305.1 1596.2,1297.5 1616.8,1289.1 1637.1,1279.7 1657.1,1269.5 1676.8,1258.5 1696.1,1246.6 1715.1,1234.1 1733.6,1220.8 1751.8,1206.8 1769.5,1192.3 1786.8,1177.3 1803.6,1161.7 1820.0,1145.8 1835.8,1129.6 1851.2,1113.1  Z" style="stroke-width: 0.5;  stroke: rgb(0,0,0); fill: rgb(179,177,178);" />
<path d="M 1920.514,1810.120 A 522.500,522.500 0.00 0,1 1901.5,1834.4 L 1901.5,1834.4 1884.6,1820.7 1867.4,1807.4 1849.8,1794.6 1831.8,1782.3 1813.6,1770.6 1795.1,1759.6 1776.4,1749.3 1757.5,1739.9 1738.5,1731.4 1719.4,1723.8 1700.3,1717.2 1681.1,1711.6 1661.9,1707.1 1642.8,1703.6 1623.7,1701.3 1604.7,1700.2 1585.9,1700.2 1567.2,1701.4 1548.7,1703.7 1530.5,1707.2 1512.4,1711.9 1494.6,1717.8 1477.2,1724.8 1460.0,1732.9 1443.1,1742.1 1426.6,1752.4 1410.5,1763.7 1394.8,1776.0 1379.4,1789.3 1364.5,1803.4 1350.1,1818.4 1336.0,1834.2 1322.5,1850.6 1309.4,1867.7 1296.8,1885.3 1284.7,1903.4 1273.1,1921.9 1262.1,1940.7 1251.5,1959.6  A 522.500,522.500 0.00 0,1 1224.8,1944.2 L 1224.8,1944.2 1236.6,1925.6 1248.9,1907.3 1261.8,1889.3 1275.1,1871.6 1289.0,1854.4 1303.4,1837.7 1318.2,1821.7 1333.5,1806.3 1349.3,1791.6 1365.5,1777.8 1382.1,1764.8 1399.1,1752.7 1416.5,1741.5 1434.2,1731.3 1452.3,1722.1 1470.7,1714.0 1489.4,1707.0 1508.4,1701.0 1527.7,1696.1 1547.2,1692.4 1566.8,1689.7 1586.7,1688.2 1606.7,1687.8 1626.8,1688.5 1647.0,1690.3 1667.3,1693.2 1687.6,1697.1 1707.9,1702.0 1728.1,1707.9 1748.3,1714.7 1768.4,1722.5 1788.3,1731.1 1808.0,1740.5 1827.6,1750.6 1846.8,1761.5 1865.8,1772.9 1884.4,1784.9 1902.7,1797.3 1920.5,1810.1  Z" style="stroke-width: 0.5;  stroke: rgb(0,0,0); fill: rgb(179,177,178);" />
<path d="M 1977.111,1286.994 A 522.500,522.500 0.00 0,1 1987.5,1312.0 L 1987.5,1312.0 1963.4,1321.2 1939.2,1330.2 1914.7,1339.2 1890.1,1348.0 1865.4,1356.6 1840.4,1365.1 1815.3,1373.4 1790.1,1381.6 1764.7,1389.5 1739.2,1397.3 1713.6,1404.8 1687.8,1412.1 1662.0,1419.2 1636.0,1426.1 1610.0,1432.8 1583.8,1439.2 1557.6,1445.3 1531.3,1451.3 1504.9,1457.0 1478.5,1462.4 1452.0,1467.6 1425.5,1472.5 1399.0,1477.2 1372.4,1481.7 1345.9,1485.8 1319.3,1489.8 1292.7,1493.5 1266.2,1496.9 1239.6,1500.1 1213.2,1503.1 1186.7,1505.8 1160.3,1508.3 1134.0,1510.6 1107.7,1512.6 1081.5,1514.4 1055.5,1516.1 1029.5,1517.5 1003.6,1518.8 977.9,1519.8  A 522.500,522.500 0.00 0,1 977.6,1492.7 L 977.6,1492.7 1003.0,1493.0 1028.6,1493.0 1054.3,1492.8 1080.2,1492.3 1106.2,1491.6 1132.3,1490.6 1158.6,1489.3 1184.8,1487.7 1211.2,1485.8 1237.6,1483.6 1264.1,1481.1 1290.6,1478.3 1317.1,1475.2 1343.6,1471.7 1370.1,1468.0 1396.6,1463.9 1423.1,1459.4 1449.5,1454.7 1475.9,1449.6 1502.2,1444.1 1528.5,1438.4 1554.6,1432.3 1580.7,1426.0 1606.7,1419.3 1632.5,1412.3 1658.2,1405.0 1683.8,1397.4 1709.3,1389.5 1734.6,1381.3 1759.7,1372.9 1784.7,1364.2 1809.4,1355.3 1834.0,1346.1 1858.4,1336.7 1882.6,1327.1 1906.6,1317.4 1930.3,1307.4 1953.8,1297.3 1977.1,1287.0  Z" style="stroke-width: 0.5;  stroke: rgb(0,0,0); fill: rgb(179,177,178);" />
<path d="M 1723.899,1972.097 A 522.500,522.500 0.00 0,1 1703.7,1981.2 L 1703.7,1981.2 1695.7,1962.6 1687.5,1944.2 1679.3,1926.2 1671.0,1908.6 1662.6,1891.6 1654.2,1875.4 1645.8,1859.9 1637.5,1845.4 1629.2,1831.8 1621.1,1819.3 1613.0,1808.0 1605.2,1797.9 1597.5,1789.1 1590.0,1781.6 1582.7,1775.5 1575.7,1770.9 1568.9,1767.6 1562.3,1765.8 1556.1,1765.5 1550.1,1766.7 1544.5,1769.4 1539.1,1773.5 1534.1,1779.1 1529.4,1786.2 1525.0,1794.6 1520.9,1804.4 1517.2,1815.5 1513.8,1827.8 1510.8,1841.3 1508.0,1856.0 1505.6,1871.7 1503.5,1888.3 1501.7,1905.8 1500.2,1924.0 1499.0,1942.9 1498.0,1962.4 1497.3,1982.2 1496.8,2002.3 1496.6,2022.5  A 522.500,522.500 0.00 0,1 1477.1,2022.0 L 1477.1,2022.0 1478.1,2001.7 1479.4,1981.6 1480.9,1961.7 1482.8,1942.3 1484.9,1923.3 1487.4,1905.0 1490.1,1887.5 1493.2,1870.7 1496.7,1855.0 1500.4,1840.2 1504.5,1826.6 1509.0,1814.1 1513.8,1802.9 1519.0,1792.9 1524.4,1784.3 1530.3,1777.1 1536.4,1771.3 1542.9,1766.9 1549.7,1764.0 1556.8,1762.6 1564.2,1762.6 1571.8,1764.1 1579.8,1767.1 1587.9,1771.5 1596.3,1777.3 1604.9,1784.4 1613.7,1792.9 1622.7,1802.7 1631.8,1813.6 1641.0,1825.8 1650.3,1839.0 1659.6,1853.2 1669.0,1868.3 1678.4,1884.2 1687.7,1900.8 1697.0,1918.1 1706.1,1935.8 1715.1,1953.8 1723.9,1972.1  Z" style="stroke-width: 0.5;  stroke: rgb(0,0,0); fill: rgb(179,177,178);" />
<path d="M 1691.174,1013.730 A 522.500,522.500 0.00 0,1 1713.5,1023.1 L 1713.5,1023.1 1704.7,1042.4 1695.3,1061.5 1685.5,1080.2 1675.2,1098.6 1664.4,1116.5 1653.2,1133.8 1641.6,1150.3 1629.6,1166.2 1617.1,1181.1 1604.3,1195.2 1591.0,1208.3 1577.5,1220.3 1563.5,1231.3 1549.3,1241.1 1534.7,1249.7 1519.8,1257.2 1504.7,1263.4 1489.3,1268.3 1473.7,1272.0 1457.9,1274.4 1441.9,1275.5 1425.7,1275.3 1409.4,1273.8 1393.0,1271.1 1376.6,1267.1 1360.0,1262.0 1343.5,1255.6 1327.0,1248.1 1310.5,1239.5 1294.1,1229.9 1277.7,1219.2 1261.6,1207.7 1245.6,1195.2 1229.8,1182.0 1214.2,1168.1 1199.0,1153.6 1184.1,1138.6 1169.5,1123.1 1155.3,1107.3  A 522.500,522.500 0.00 0,1 1173.9,1091.7 L 1173.9,1091.7 1187.2,1108.0 1200.9,1124.0 1214.9,1139.6 1229.3,1154.7 1243.9,1169.1 1258.7,1182.9 1273.8,1195.8 1288.9,1207.9 1304.2,1219.0 1319.6,1229.2 1335.1,1238.2 1350.6,1246.2 1366.1,1252.9 1381.5,1258.5 1396.9,1262.8 1412.2,1265.8 1427.4,1267.6 1442.5,1268.0 1457.4,1267.1 1472.1,1264.9 1486.5,1261.3 1500.8,1256.5 1514.8,1250.3 1528.5,1242.9 1542.0,1234.3 1555.1,1224.4 1567.9,1213.4 1580.3,1201.2 1592.4,1188.0 1604.2,1173.8 1615.5,1158.6 1626.5,1142.6 1637.0,1125.8 1647.1,1108.3 1656.8,1090.2 1666.1,1071.6 1674.9,1052.5 1683.3,1033.2 1691.2,1013.7  Z" style="stroke-width: 0.5;  stroke: rgb(0,0,0); fill: rgb(179,177,178);" />
<path d="M 1987.766,1312.675 A 522.500,522.500 0.00 0,1 1995.3,1333.5 L 1995.3,1333.5 1970.6,1341.7 1945.7,1349.9 1920.7,1357.9 1895.6,1365.9 1870.4,1373.7 1845.1,1381.4 1819.6,1388.9 1794.0,1396.4 1768.4,1403.7 1742.6,1410.8 1716.7,1417.8 1690.8,1424.7 1664.7,1431.3 1638.6,1437.8 1612.5,1444.2 1586.2,1450.3 1559.9,1456.3 1533.5,1462.1 1507.1,1467.8 1480.7,1473.2 1454.2,1478.5 1427.7,1483.6 1401.2,1488.4 1374.6,1493.2 1348.1,1497.7 1321.5,1502.0 1295.0,1506.2 1268.4,1510.1 1241.9,1513.9 1215.4,1517.6 1188.9,1521.0 1162.5,1524.3 1136.1,1527.4 1109.8,1530.3 1083.5,1533.1 1057.4,1535.7 1031.2,1538.2 1005.2,1540.5 979.2,1542.7  A 522.500,522.500 0.00 0,1 977.9,1520.6 L 977.9,1520.6 1003.7,1519.5 1029.5,1518.3 1055.5,1516.8 1081.6,1515.1 1107.8,1513.2 1134.0,1511.2 1160.4,1508.9 1186.8,1506.3 1213.2,1503.6 1239.7,1500.6 1266.2,1497.4 1292.8,1493.9 1319.4,1490.2 1345.9,1486.3 1372.5,1482.1 1399.1,1477.6 1425.6,1472.9 1452.1,1468.0 1478.6,1462.8 1505.0,1457.3 1531.3,1451.6 1557.7,1445.7 1583.9,1439.5 1610.0,1433.1 1636.1,1426.5 1662.1,1419.6 1687.9,1412.5 1713.7,1405.2 1739.3,1397.7 1764.9,1390.0 1790.2,1382.1 1815.5,1373.9 1840.6,1365.7 1865.5,1357.2 1890.3,1348.6 1915.0,1339.8 1939.4,1330.9 1963.7,1321.8 1987.8,1312.7  Z" style="stroke-width: 0.5;  stroke: rgb(0,0,0); fill: rgb(179,177,178);" />
<path d="M 1923.158,1193.499 A 522.500,522.500 0.00 0,1 1935.0,1210.5 L 1935.0,1210.5 1914.6,1223.8 1893.9,1236.9 1872.7,1249.8 1851.2,1262.4 1829.4,1274.6 1807.2,1286.6 1784.6,1298.1 1761.8,1309.3 1738.7,1320.0 1715.2,1330.3 1691.5,1340.1 1667.5,1349.4 1643.3,1358.2 1618.9,1366.5 1594.2,1374.2 1569.4,1381.4 1544.4,1388.1 1519.2,1394.1 1493.9,1399.6 1468.5,1404.5 1442.9,1408.8 1417.3,1412.5 1391.6,1415.6 1365.9,1418.1 1340.1,1420.1 1314.3,1421.4 1288.6,1422.2 1262.9,1422.5 1237.2,1422.2 1211.6,1421.3 1186.2,1419.9 1160.8,1418.0 1135.6,1415.6 1110.5,1412.8 1085.7,1409.5 1061.1,1405.8 1036.7,1401.7 1012.5,1397.2 988.7,1392.3  A 522.500,522.500 0.00 0,1 993.4,1372.2 L 993.4,1372.2 1016.8,1377.9 1040.5,1383.2 1064.5,1388.2 1088.7,1392.7 1113.2,1396.8 1137.9,1400.4 1162.8,1403.4 1187.8,1406.0 1213.0,1408.0 1238.3,1409.5 1263.6,1410.3 1289.0,1410.6 1314.5,1410.2 1340.0,1409.3 1365.4,1407.6 1390.9,1405.4 1416.2,1402.5 1441.6,1399.0 1466.8,1394.8 1491.9,1390.0 1516.8,1384.5 1541.7,1378.4 1566.3,1371.7 1590.7,1364.3 1615.0,1356.4 1639.0,1347.9 1662.8,1338.8 1686.3,1329.1 1709.5,1318.9 1732.5,1308.2 1755.1,1297.0 1777.4,1285.3 1799.3,1273.2 1821.0,1260.7 1842.2,1247.9 1863.0,1234.7 1883.5,1221.2 1903.5,1207.5 1923.2,1193.5  Z" style="stroke-width: 0.5;  stroke: rgb(0,0,0); fill: rgb(179,177,178);" />
<path d="M 1807.406,1077.498 A 522.500,522.500 0.00 0,1 1822.9,1089.2 L 1822.9,1089.2 1808.9,1106.5 1794.5,1123.6 1779.5,1140.3 1764.0,1156.7 1748.1,1172.6 1731.7,1187.9 1714.8,1202.6 1697.6,1216.7 1679.9,1230.0 1661.8,1242.5 1643.4,1254.2 1624.6,1265.1 1605.5,1275.0 1586.2,1283.9 1566.5,1291.9 1546.6,1298.9 1526.4,1304.8 1506.0,1309.7 1485.5,1313.6 1464.8,1316.4 1444.0,1318.1 1423.0,1318.7 1402.0,1318.3 1380.9,1316.8 1359.9,1314.3 1338.8,1310.8 1317.8,1306.3 1296.8,1300.8 1275.9,1294.4 1255.2,1287.1 1234.6,1278.9 1214.3,1269.9 1194.1,1260.1 1174.3,1249.7 1154.7,1238.6 1135.5,1226.9 1116.6,1214.7 1098.1,1202.0 1080.1,1189.0  A 522.500,522.500 0.00 0,1 1092.0,1173.6 L 1092.0,1173.6 1109.3,1187.2 1127.2,1200.4 1145.4,1213.2 1164.0,1225.4 1182.9,1237.0 1202.2,1248.0 1221.6,1258.3 1241.4,1267.8 1261.3,1276.4 1281.4,1284.2 1301.6,1291.1 1321.9,1296.9 1342.2,1301.8 1362.6,1305.7 1383.0,1308.5 1403.4,1310.2 1423.7,1310.8 1444.0,1310.3 1464.1,1308.8 1484.1,1306.1 1504.0,1302.3 1523.6,1297.4 1543.1,1291.4 1562.3,1284.4 1581.2,1276.3 1599.9,1267.2 1618.2,1257.1 1636.2,1246.1 1653.9,1234.2 1671.2,1221.4 1688.2,1207.8 1704.7,1193.4 1720.8,1178.3 1736.4,1162.7 1751.6,1146.4 1766.3,1129.7 1780.5,1112.6 1794.2,1095.2 1807.4,1077.5  Z" style="stroke-width: 0.5;  stroke: rgb(0,0,0); fill: rgb(179,177,178);" />
<path d="M 1838.529,1102.000 A 522.500,522.500 0.00 0,1 1850.6,1112.6 L 1850.6,1112.6 1835.3,1129.1 1819.5,1145.4 1803.2,1161.3 1786.4,1176.9 1769.1,1192.0 1751.4,1206.5 1733.2,1220.5 1714.7,1233.8 1695.7,1246.4 1676.4,1258.2 1656.8,1269.3 1636.8,1279.6 1616.5,1288.9 1595.9,1297.4 1575.1,1305.0 1554.1,1311.6 1532.8,1317.2 1511.3,1321.9 1489.7,1325.5 1468.0,1328.2 1446.1,1329.9 1424.1,1330.5 1402.1,1330.2 1380.1,1328.8 1358.1,1326.5 1336.1,1323.2 1314.1,1319.0 1292.3,1313.9 1270.5,1307.9 1248.9,1301.0 1227.5,1293.3 1206.3,1284.9 1185.3,1275.7 1164.6,1265.9 1144.2,1255.4 1124.2,1244.4 1104.5,1232.8 1085.2,1220.8 1066.4,1208.5  A 522.500,522.500 0.00 0,1 1075.6,1195.3 L 1075.6,1195.3 1093.9,1208.1 1112.6,1220.6 1131.8,1232.6 1151.4,1244.1 1171.2,1255.0 1191.4,1265.3 1211.9,1275.0 1232.6,1283.8 1253.5,1291.9 1274.6,1299.2 1295.9,1305.5 1317.2,1311.0 1338.7,1315.5 1360.2,1319.0 1381.7,1321.6 1403.2,1323.1 1424.7,1323.7 1446.1,1323.1 1467.4,1321.6 1488.6,1319.0 1509.7,1315.4 1530.6,1310.7 1551.4,1305.0 1571.9,1298.3 1592.1,1290.7 1612.1,1282.1 1631.9,1272.5 1651.3,1262.1 1670.3,1250.8 1689.1,1238.7 1707.4,1225.8 1725.4,1212.2 1742.9,1197.9 1760.1,1183.1 1776.7,1167.6 1792.9,1151.8 1808.6,1135.5 1823.8,1118.9 1838.5,1102.0  Z" style="stroke-width: 0.5;  stroke: rgb(0,0,0); fill: rgb(179,177,178);" />
<path d="M 1969.058,1269.803 A 522.500,522.500 0.00 0,1 1975.8,1284.1 L 1975.8,1284.1 1952.7,1294.5 1929.4,1304.7 1905.8,1314.7 1881.9,1324.5 1857.9,1334.1 1833.6,1343.5 1809.1,1352.6 1784.4,1361.5 1759.4,1370.1 1734.4,1378.4 1709.1,1386.4 1683.7,1394.1 1658.1,1401.5 1632.4,1408.6 1606.5,1415.3 1580.6,1421.7 1554.5,1427.8 1528.3,1433.5 1502.0,1438.8 1475.7,1443.8 1449.3,1448.5 1422.9,1452.8 1396.4,1456.7 1369.9,1460.2 1343.3,1463.4 1316.8,1466.3 1290.3,1468.7 1263.8,1470.9 1237.4,1472.7 1211.0,1474.1 1184.7,1475.2 1158.4,1476.0 1132.3,1476.5 1106.2,1476.7 1080.3,1476.6 1054.5,1476.2 1028.9,1475.5 1003.5,1474.6 978.2,1473.4  A 522.500,522.500 0.00 0,1 979.2,1457.6 L 979.2,1457.6 1004.3,1459.5 1029.5,1461.1 1054.9,1462.5 1080.6,1463.5 1106.3,1464.3 1132.2,1464.7 1158.2,1464.8 1184.3,1464.5 1210.6,1463.9 1236.9,1462.9 1263.2,1461.5 1289.6,1459.8 1316.0,1457.6 1342.4,1455.1 1368.9,1452.1 1395.3,1448.8 1421.7,1445.0 1448.0,1440.9 1474.3,1436.3 1500.6,1431.3 1526.7,1425.9 1552.7,1420.2 1578.7,1414.0 1604.5,1407.4 1630.2,1400.5 1655.7,1393.2 1681.1,1385.5 1706.3,1377.5 1731.3,1369.1 1756.1,1360.4 1780.7,1351.4 1805.1,1342.1 1829.3,1332.5 1853.3,1322.6 1877.0,1312.5 1900.4,1302.1 1923.6,1291.5 1946.5,1280.7 1969.1,1269.8  Z" style="stroke-width: 0.5;  stroke: rgb(0,0,0); fill: rgb(179,177,178);" />
<path d="M 1930.062,1796.737 A 522.500,522.500 0.00 0,1 1920.9,1809.6 L 1920.9,1809.6 1903.1,1796.8 1884.8,1784.4 1866.1,1772.4 1847.1,1761.0 1827.9,1750.2 1808.3,1740.1 1788.5,1730.7 1768.6,1722.1 1748.5,1714.4 1728.3,1707.5 1708.0,1701.6 1687.7,1696.7 1667.4,1692.9 1647.1,1690.0 1626.9,1688.2 1606.7,1687.5 1586.7,1688.0 1566.8,1689.5 1547.1,1692.1 1527.6,1695.9 1508.3,1700.7 1489.3,1706.7 1470.6,1713.8 1452.1,1721.9 1434.0,1731.1 1416.2,1741.2 1398.8,1752.4 1381.8,1764.5 1365.1,1777.5 1348.9,1791.3 1333.1,1806.0 1317.8,1821.4 1302.9,1837.4 1288.6,1854.1 1274.7,1871.3 1261.3,1888.9 1248.4,1907.0 1236.0,1925.3 1224.2,1943.8  A 522.500,522.500 0.00 0,1 1210.9,1935.3 L 1210.9,1935.3 1223.4,1917.0 1236.4,1898.9 1249.9,1881.1 1263.9,1863.7 1278.5,1846.8 1293.5,1830.4 1309.0,1814.5 1325.0,1799.3 1341.4,1784.9 1358.2,1771.2 1375.5,1758.4 1393.1,1746.4 1411.2,1735.3 1429.6,1725.2 1448.3,1716.1 1467.4,1708.0 1486.7,1700.9 1506.3,1694.9 1526.2,1690.0 1546.3,1686.1 1566.5,1683.3 1587.0,1681.6 1607.6,1681.0 1628.3,1681.4 1649.1,1682.9 1669.9,1685.5 1690.7,1689.1 1711.6,1693.6 1732.4,1699.1 1753.1,1705.6 1773.7,1712.9 1794.2,1721.1 1814.5,1730.0 1834.5,1739.7 1854.3,1750.0 1873.8,1761.0 1892.9,1772.4 1911.7,1784.4 1930.1,1796.7  Z" style="stroke-width: 0.5;  stroke: rgb(0,0,0); fill: rgb(179,177,178);" />
<path d="M 1786.440,1936.988 A 522.500,522.500 0.00 0,1 1773.5,1945.2 L 1773.5,1945.2 1762.7,1927.9 1751.6,1910.8 1740.4,1894.1 1729.0,1877.9 1717.5,1862.3 1706.0,1847.5 1694.4,1833.4 1682.9,1820.3 1671.4,1808.1 1660.0,1797.1 1648.7,1787.1 1637.6,1778.4 1626.6,1770.8 1615.9,1764.6 1605.4,1759.8 1595.2,1756.3 1585.2,1754.2 1575.6,1753.5 1566.2,1754.3 1557.2,1756.4 1548.6,1760.0 1540.3,1765.0 1532.4,1771.5 1524.9,1779.2 1517.8,1788.4 1511.1,1798.8 1504.8,1810.5 1498.9,1823.3 1493.4,1837.3 1488.3,1852.4 1483.7,1868.5 1479.4,1885.4 1475.5,1903.2 1472.0,1921.7 1468.9,1940.8 1466.2,1960.4 1463.8,1980.4 1461.8,2000.6 1460.1,2021.0  A 522.500,522.500 0.00 0,1 1444.8,2019.6 L 1444.8,2019.6 1447.2,1999.2 1449.8,1979.0 1452.9,1959.0 1456.3,1939.4 1460.1,1920.2 1464.3,1901.7 1468.9,1883.9 1473.9,1866.9 1479.3,1850.8 1485.2,1835.7 1491.4,1821.6 1498.1,1808.7 1505.2,1796.9 1512.7,1786.4 1520.6,1777.1 1528.9,1769.2 1537.6,1762.7 1546.7,1757.5 1556.2,1753.7 1565.9,1751.3 1576.1,1750.4 1586.5,1750.8 1597.2,1752.7 1608.3,1756.0 1619.5,1760.6 1631.0,1766.5 1642.7,1773.7 1654.5,1782.2 1666.5,1791.8 1678.7,1802.6 1690.8,1814.5 1703.1,1827.3 1715.3,1841.1 1727.5,1855.6 1739.6,1870.9 1751.6,1886.8 1763.4,1903.2 1775.1,1919.9 1786.4,1937.0  Z" style="stroke-width: 0.5;  stroke: rgb(0,0,0); fill: rgb(179,177,178);" />
<path d="M 1913.999,1181.235 A 522.500,522.500 0.00 0,1 1922.9,1193.2 L 1922.9,1193.2 1903.3,1207.1 1883.3,1220.9 1862.9,1234.4 1842.0,1247.6 1820.8,1260.4 1799.2,1272.9 1777.3,1285.0 1755.0,1296.7 1732.4,1307.9 1709.4,1318.6 1686.2,1328.8 1662.7,1338.4 1639.0,1347.5 1614.9,1356.1 1590.7,1364.0 1566.3,1371.3 1541.6,1378.0 1516.8,1384.1 1491.9,1389.5 1466.8,1394.3 1441.6,1398.5 1416.3,1402.0 1390.9,1404.8 1365.5,1407.0 1340.1,1408.6 1314.6,1409.6 1289.2,1409.9 1263.8,1409.6 1238.4,1408.6 1213.2,1407.2 1188.0,1405.1 1163.0,1402.5 1138.1,1399.3 1113.5,1395.7 1089.0,1391.5 1064.8,1387.0 1040.8,1382.0 1017.1,1376.6 993.7,1370.8  A 522.500,522.500 0.00 0,1 997.6,1356.4 L 997.6,1356.4 1020.6,1362.8 1044.0,1368.8 1067.7,1374.4 1091.6,1379.5 1115.8,1384.2 1140.2,1388.4 1164.8,1392.0 1189.6,1395.1 1214.5,1397.6 1239.5,1399.6 1264.6,1400.8 1289.7,1401.5 1314.9,1401.5 1340.1,1400.9 1365.3,1399.5 1390.5,1397.5 1415.6,1394.9 1440.7,1391.5 1465.6,1387.4 1490.4,1382.7 1515.1,1377.2 1539.6,1371.1 1564.0,1364.4 1588.1,1357.0 1612.0,1348.9 1635.7,1340.2 1659.1,1330.9 1682.2,1321.0 1705.1,1310.5 1727.6,1299.5 1749.9,1288.0 1771.7,1276.0 1793.2,1263.5 1814.4,1250.7 1835.1,1237.4 1855.5,1223.8 1875.4,1209.8 1894.9,1195.6 1914.0,1181.2  Z" style="stroke-width: 0.5;  stroke: rgb(0,0,0); fill: rgb(179,177,178);" />
<path d="M 1860.180,1878.519 A 522.500,522.500 0.00 0,1 1851.0,1887.1 L 1851.0,1887.1 1836.6,1871.6 1821.9,1856.5 1806.9,1841.8 1791.6,1827.7 1776.1,1814.1 1760.4,1801.3 1744.5,1789.3 1728.5,1778.2 1712.4,1768.0 1696.3,1758.8 1680.2,1750.7 1664.1,1743.7 1648.1,1737.8 1632.2,1733.2 1616.4,1729.8 1600.8,1727.7 1585.3,1726.8 1570.1,1727.3 1555.0,1729.0 1540.3,1732.0 1525.8,1736.4 1511.6,1742.0 1497.8,1749.0 1484.3,1757.1 1471.1,1766.5 1458.3,1777.1 1445.9,1788.8 1434.0,1801.6 1422.4,1815.4 1411.2,1830.2 1400.5,1846.0 1390.3,1862.5 1380.5,1879.9 1371.1,1897.9 1362.2,1916.4 1353.8,1935.5 1345.8,1954.9 1338.3,1974.7 1331.3,1994.5  A 522.500,522.500 0.00 0,1 1319.5,1990.3 L 1319.5,1990.3 1327.0,1970.5 1335.0,1950.9 1343.5,1931.6 1352.5,1912.6 1361.9,1894.1 1371.8,1876.2 1382.2,1859.0 1393.0,1842.5 1404.3,1826.8 1416.1,1812.1 1428.2,1798.3 1440.8,1785.5 1453.8,1773.8 1467.1,1763.2 1480.9,1753.8 1495.0,1745.6 1509.4,1738.6 1524.2,1732.9 1539.2,1728.4 1554.6,1725.3 1570.2,1723.4 1586.0,1722.8 1602.0,1723.5 1618.2,1725.4 1634.5,1728.6 1651.0,1733.0 1667.6,1738.6 1684.2,1745.3 1700.8,1753.2 1717.4,1762.1 1734.0,1772.0 1750.5,1782.8 1766.9,1794.6 1783.1,1807.1 1799.1,1820.3 1814.8,1834.1 1830.3,1848.5 1845.4,1863.4 1860.2,1878.5  Z" style="stroke-width: 0.5;  stroke: rgb(0,0,0); fill: rgb(179,177,178);" />
<path d="M 1772.684,1945.701 A 522.500,522.500 0.00 0,1 1762.8,1951.6 L 1762.8,1951.6 1752.4,1934.1 1741.8,1916.8 1731.0,1899.9 1720.2,1883.5 1709.2,1867.6 1698.2,1852.5 1687.2,1838.2 1676.2,1824.9 1665.3,1812.5 1654.5,1801.1 1643.9,1790.9 1633.4,1782.0 1623.1,1774.2 1613.0,1767.8 1603.1,1762.8 1593.6,1759.1 1584.3,1756.8 1575.3,1755.9 1566.7,1756.5 1558.4,1758.5 1550.4,1762.0 1542.8,1766.8 1535.6,1773.1 1528.8,1780.8 1522.4,1789.8 1516.4,1800.1 1510.8,1811.7 1505.6,1824.5 1500.8,1838.5 1496.4,1853.5 1492.4,1869.5 1488.8,1886.4 1485.5,1904.2 1482.7,1922.6 1480.2,1941.7 1478.0,1961.3 1476.2,1981.3 1474.8,2001.5 1473.6,2021.8  A 522.500,522.500 0.00 0,1 1462.1,2021.1 L 1462.1,2021.1 1463.7,2000.8 1465.6,1980.5 1467.9,1960.5 1470.6,1940.9 1473.6,1921.8 1477.0,1903.3 1480.8,1885.6 1485.0,1868.6 1489.5,1852.5 1494.5,1837.5 1499.9,1823.5 1505.7,1810.6 1512.0,1798.9 1518.6,1788.5 1525.6,1779.4 1533.0,1771.6 1540.8,1765.2 1549.0,1760.2 1557.6,1756.6 1566.5,1754.5 1575.8,1753.7 1585.3,1754.4 1595.2,1756.5 1605.4,1760.0 1615.8,1764.9 1626.5,1771.1 1637.3,1778.7 1648.4,1787.4 1659.6,1797.4 1670.9,1808.5 1682.4,1820.7 1693.9,1833.8 1705.4,1847.9 1716.9,1862.8 1728.3,1878.4 1739.7,1894.6 1750.9,1911.3 1761.9,1928.4 1772.7,1945.7  Z" style="stroke-width: 0.5;  stroke: rgb(0,0,0); fill: rgb(179,177,178);" />
<path d="M 1938.023,1215.146 A 522.500,522.500 0.00 0,1 1944.1,1224.7 L 1944.1,1224.7 1923.2,1237.5 1901.9,1250.0 1880.3,1262.3 1858.3,1274.4 1835.9,1286.1 1813.3,1297.5 1790.3,1308.6 1767.1,1319.3 1743.5,1329.6 1719.7,1339.4 1695.6,1348.9 1671.3,1357.8 1646.8,1366.3 1622.0,1374.3 1597.1,1381.8 1572.0,1388.8 1546.7,1395.2 1521.3,1401.1 1495.7,1406.5 1470.0,1411.3 1444.3,1415.6 1418.4,1419.3 1392.6,1422.5 1366.6,1425.1 1340.7,1427.2 1314.7,1428.7 1288.8,1429.7 1262.8,1430.2 1237.0,1430.2 1211.2,1429.6 1185.6,1428.6 1160.0,1427.1 1134.6,1425.1 1109.3,1422.7 1084.3,1419.9 1059.4,1416.6 1034.8,1413.0 1010.4,1409.1 986.3,1404.8  A 522.500,522.500 0.00 0,1 988.4,1393.6 L 988.4,1393.6 1012.3,1398.4 1036.5,1402.9 1060.9,1406.9 1085.6,1410.6 1110.5,1413.9 1135.6,1416.7 1160.8,1419.1 1186.2,1421.0 1211.8,1422.3 1237.4,1423.2 1263.1,1423.5 1288.9,1423.3 1314.7,1422.6 1340.5,1421.2 1366.3,1419.3 1392.1,1416.9 1417.8,1413.8 1443.5,1410.2 1469.1,1406.0 1494.6,1401.2 1520.0,1395.8 1545.3,1389.9 1570.4,1383.4 1595.3,1376.3 1620.0,1368.7 1644.6,1360.6 1668.9,1351.9 1693.0,1342.7 1716.8,1333.1 1740.4,1323.0 1763.6,1312.4 1786.6,1301.4 1809.3,1290.1 1831.6,1278.3 1853.6,1266.2 1875.3,1253.9 1896.6,1241.2 1917.5,1228.3 1938.0,1215.1  Z" style="stroke-width: 0.5;  stroke: rgb(0,0,0); fill: rgb(179,177,178);" />
<path d="M 2022.446,1507.545 A 522.500,522.500 0.00 0,1 2022.2,1517.7 L 2022.2,1517.7 1996.9,1517.0 1971.4,1516.5 1945.7,1516.2 1919.9,1516.3 1894.0,1516.6 1867.9,1517.2 1841.8,1518.1 1815.5,1519.3 1789.2,1520.8 1762.8,1522.6 1736.4,1524.8 1709.9,1527.3 1683.5,1530.2 1657.0,1533.4 1630.5,1537.0 1604.0,1540.9 1577.6,1545.2 1551.2,1549.8 1524.8,1554.8 1498.5,1560.1 1472.3,1565.8 1446.2,1571.8 1420.2,1578.2 1394.3,1584.9 1368.5,1592.0 1342.8,1599.3 1317.3,1607.0 1292.0,1615.0 1266.8,1623.3 1241.8,1631.9 1216.9,1640.8 1192.3,1649.9 1167.9,1659.2 1143.6,1668.9 1119.6,1678.7 1095.9,1688.7 1072.3,1699.0 1049.1,1709.4 1026.0,1719.9  A 522.500,522.500 0.00 0,1 1021.8,1710.6 L 1021.8,1710.6 1045.2,1700.5 1068.7,1690.5 1092.5,1680.6 1116.6,1670.9 1140.8,1661.4 1165.2,1652.2 1189.9,1643.1 1214.7,1634.3 1239.7,1625.7 1264.9,1617.4 1290.2,1609.3 1315.7,1601.5 1341.3,1594.0 1367.1,1586.8 1393.0,1579.9 1419.0,1573.3 1445.1,1567.0 1471.2,1561.0 1497.5,1555.3 1523.9,1550.0 1550.3,1544.9 1576.7,1540.2 1603.2,1535.9 1629.7,1531.8 1656.2,1528.1 1682.8,1524.7 1709.3,1521.6 1735.8,1518.9 1762.3,1516.4 1788.7,1514.3 1815.1,1512.4 1841.4,1510.9 1867.6,1509.6 1893.7,1508.6 1919.7,1507.9 1945.6,1507.5 1971.4,1507.3 1997.0,1507.3 2022.4,1507.5  Z" style="stroke-width: 0.5;  stroke: rgb(0,0,0); fill: rgb(179,177,178);" />
<path d="M 1726.760,1029.271 A 522.500,522.500 0.00 0,1 1735.1,1033.4 L 1735.1,1033.4 1725.2,1052.3 1714.9,1071.1 1704.1,1089.5 1692.9,1107.6 1681.1,1125.1 1669.0,1142.1 1656.4,1158.3 1643.3,1173.8 1629.9,1188.5 1616.1,1202.3 1601.9,1215.1 1587.4,1226.9 1572.5,1237.6 1557.3,1247.3 1541.8,1255.7 1526.0,1263.0 1510.0,1269.1 1493.7,1273.9 1477.2,1277.5 1460.5,1279.9 1443.7,1281.0 1426.7,1280.8 1409.6,1279.4 1392.4,1276.7 1375.2,1272.9 1357.9,1267.8 1340.7,1261.6 1323.4,1254.3 1306.3,1245.9 1289.2,1236.5 1272.2,1226.1 1255.4,1214.7 1238.8,1202.6 1222.5,1189.7 1206.3,1176.0 1190.5,1161.8 1175.1,1147.0 1160.0,1131.8 1145.3,1116.3  A 522.500,522.500 0.00 0,1 1152.2,1110.1 L 1152.2,1110.1 1166.5,1125.8 1181.3,1141.2 1196.4,1156.2 1211.9,1170.6 1227.6,1184.5 1243.6,1197.6 1259.9,1210.0 1276.3,1221.5 1292.9,1232.1 1309.6,1241.7 1326.4,1250.3 1343.3,1257.8 1360.1,1264.2 1377.0,1269.4 1393.9,1273.4 1410.6,1276.1 1427.3,1277.7 1443.9,1277.9 1460.3,1276.9 1476.6,1274.6 1492.7,1271.1 1508.5,1266.2 1524.1,1260.2 1539.5,1252.9 1554.6,1244.4 1569.4,1234.8 1583.8,1224.0 1598.0,1212.1 1611.7,1199.2 1625.1,1185.4 1638.2,1170.6 1650.8,1155.0 1663.0,1138.6 1674.7,1121.6 1686.1,1103.9 1697.0,1085.8 1707.4,1067.2 1717.3,1048.3 1726.8,1029.3  Z" style="stroke-width: 0.5;  stroke: rgb(0,0,0); fill: rgb(179,177,178);" />
<path d="M 1873.266,1865.621 A 522.500,522.500 0.00 0,1 1867.8,1871.1 L 1867.8,1871.1 1852.7,1856.2 1837.2,1841.6 1821.4,1827.5 1805.2,1813.9 1788.9,1801.0 1772.3,1788.8 1755.5,1777.3 1738.6,1766.7 1721.7,1757.1 1704.7,1748.4 1687.6,1740.8 1670.6,1734.3 1653.7,1728.9 1636.8,1724.7 1620.0,1721.8 1603.4,1720.0 1587.0,1719.5 1570.8,1720.2 1554.8,1722.3 1539.0,1725.6 1523.5,1730.1 1508.4,1736.0 1493.5,1743.0 1479.0,1751.3 1464.9,1760.7 1451.1,1771.4 1437.7,1783.1 1424.7,1795.9 1412.2,1809.7 1400.1,1824.4 1388.4,1840.1 1377.2,1856.5 1366.4,1873.7 1356.2,1891.6 1346.4,1910.0 1337.0,1928.9 1328.2,1948.2 1319.8,1967.8 1312.0,1987.5  A 522.500,522.500 0.00 0,1 1304.8,1984.7 L 1304.8,1984.7 1312.9,1965.0 1321.6,1945.5 1330.8,1926.3 1340.4,1907.5 1350.6,1889.1 1361.2,1871.3 1372.3,1854.2 1383.9,1837.7 1395.9,1822.1 1408.4,1807.4 1421.3,1793.7 1434.6,1780.9 1448.3,1769.2 1462.4,1758.6 1476.9,1749.1 1491.8,1740.8 1507.0,1733.7 1522.5,1727.8 1538.3,1723.2 1554.4,1719.8 1570.8,1717.7 1587.3,1716.9 1604.1,1717.3 1621.0,1718.9 1638.1,1721.8 1655.3,1725.8 1672.6,1731.1 1689.9,1737.4 1707.3,1744.8 1724.6,1753.3 1741.9,1762.8 1759.0,1773.2 1776.1,1784.4 1793.0,1796.5 1809.6,1809.2 1826.0,1822.6 1842.1,1836.5 1857.9,1850.9 1873.3,1865.6  Z" style="stroke-width: 0.5;  stroke: rgb(0,0,0); fill: rgb(179,177,178);" />
<path d="M 1832.554,1096.994 A 522.500,522.500 0.00 0,1 1838.0,1101.5 L 1838.0,1101.5 1823.3,1118.4 1808.1,1135.1 1792.5,1151.4 1776.3,1167.3 1759.6,1182.7 1742.5,1197.6 1725.0,1211.9 1707.1,1225.5 1688.7,1238.4 1670.0,1250.6 1650.9,1261.9 1631.5,1272.4 1611.8,1281.9 1591.8,1290.6 1571.6,1298.3 1551.1,1305.0 1530.4,1310.7 1509.4,1315.4 1488.4,1319.1 1467.1,1321.7 1445.8,1323.3 1424.4,1323.8 1402.9,1323.3 1381.4,1321.8 1359.9,1319.3 1338.4,1315.8 1316.9,1311.3 1295.6,1305.9 1274.3,1299.6 1253.2,1292.4 1232.3,1284.3 1211.5,1275.5 1191.0,1265.9 1170.8,1255.6 1150.9,1244.7 1131.3,1233.2 1112.2,1221.2 1093.4,1208.8 1075.0,1196.0  A 522.500,522.500 0.00 0,1 1079.2,1190.3 L 1079.2,1190.3 1097.3,1203.3 1115.9,1215.9 1134.8,1228.1 1154.2,1239.8 1173.8,1250.9 1193.8,1261.4 1214.1,1271.2 1234.6,1280.2 1255.3,1288.4 1276.2,1295.8 1297.2,1302.3 1318.3,1307.8 1339.6,1312.4 1360.8,1316.1 1382.1,1318.7 1403.4,1320.3 1424.6,1320.8 1445.8,1320.4 1466.9,1318.8 1487.9,1316.2 1508.7,1312.6 1529.4,1307.9 1549.9,1302.1 1570.1,1295.4 1590.1,1287.7 1609.9,1279.0 1629.3,1269.3 1648.4,1258.8 1667.2,1247.3 1685.7,1235.1 1703.8,1222.1 1721.5,1208.3 1738.7,1193.9 1755.6,1178.9 1771.9,1163.3 1787.8,1147.3 1803.3,1130.8 1818.2,1114.0 1832.6,1097.0  Z" style="stroke-width: 0.5;  stroke: rgb(0,0,0); fill: rgb(179,177,178);" />
</g>
<g id="plot0">
<g id="plot0-axis">
</g>
<line x1='2243.5' y1='1598.5' x2='2243.5' y2='1598.5' style="stroke-width:14.0;stroke:rgb(0,0,0);stroke-linecap:round;fill:none;" />
<line x1='2243.5' y1='1598.5' x2='2283.2' y2='1603.7' style="stroke-width:14.0;stroke:rgb(0,0,0);stroke-linecap:round;fill:none;" />
<line x1='2283.2' y1='1603.7' x2='2283.2' y2='1603.7' style="stroke-width:14.0;stroke:rgb(0,0,0);stroke-linecap:round;fill:none;" />
<text x="2299.7" y="1628.6" font-size="46.8px" font-family="CMUBright-Roman" style="text-anchor:start;fill:rgb(255,38,78);" transform="rotate(7.5,2299.7,1628.6)" >HistocapCB174<tspan baseline-shift="-40%" font-size="90%">s</tspan>00422</text>
</g>
<defs>
<pattern id="checker" width="10" height="10" patternTransform="rotate(45 0 0)" patternUnits="userSpaceOnUse"><line x1="0" y1="0" x2="10" y2="0" style="stroke:black;stroke-width:5" /><line x1="0" y1="0" x2="0" y2="10" style="stroke:black;stroke-width:4" /></pattern>
<pattern id="vline-sparse" width="10" height="10" patternTransform="rotate(0 0 0)" patternUnits="userSpaceOnUse"><line x1="0" y1="0" x2="0" y2="10" style="stroke:black;stroke-width:2" /></pattern>
<pattern id="hline-sparse" width="10" height="10" patternTransform="rotate(0 0 0)" patternUnits="userSpaceOnUse"><line x1="0" y1="0" x2="10" y2="0" style="stroke:black;stroke-width:2" /></pattern>
<pattern id="vline" width="10" height="10" patternTransform="rotate(0 0 0)" patternUnits="userSpaceOnUse"><line x1="0" y1="0" x2="0" y2="10" style="stroke:black;stroke-width:5" /></pattern>
<pattern id="checker" width="10" height="10" patternTransform="rotate(45 0 0)" patternUnits="userSpaceOnUse"><line x1="0" y1="0" x2="10" y2="0" style="stroke:black;stroke-width:2" /><line x1="0" y1="0" x2="0" y2="10" style="stroke:black;stroke-width:2" /></pattern>
<pattern id="hline" width="10" height="10" patternTransform="rotate(0 0 0)" patternUnits="userSpaceOnUse"><line x1="0" y1="0" x2="10" y2="0" style="stroke:black;stroke-width:5" /></pattern>
</defs>
</svg>
