<?xml version="1.0" encoding="utf-8" standalone="no"?>
<!DOCTYPE svg PUBLIC "-//W3C//DTD SVG 1.1//EN" "http://www.w3.org/Graphics/SVG/1.1/DTD/svg11.dtd">
<svg width="3000px" height="3000px" version="1.1" xmlns="http://www.w3.org/2000/svg" xmlns:xlink="http://www.w3.org/1999/xlink">
<g id="bg">
<rect x="0" y="0" width="3000px" height="3000px" style="fill:rgb(255,255,255);"/>
</g>
<g id="ideograms">
<path d="M1500.000,950.000 A550.000,550.000 40.000 0,1 1687.708,2016.978 L1755.965,2204.970 A750.000,750.000 0.000 0,0 1500.000,750.000 Z" style="stroke-width:2.0;stroke:rgb(0,0,0);stroke-linecap:round;fill:rgb(179,177,178);" />
<text x="2460.3" y="1331.1" font-size="46.8px" font-family="CMUBright-Roman" style="text-anchor:middle;fill:rgb(0,0,0);" transform="rotate(440.0,2460.3,1331.1)" >HistocapCB192<tspan baseline-shift="-40%" font-size="90%">3</tspan></text>
<line x1='1522.0' y1='750.3' x2='1522.3' y2='738.3' style="stroke-width:8.0;stroke:rgb(150,150,150);stroke-linecap:round;fill:none;" />
<line x1='1621.6' y1='759.9' x2='1623.6' y2='748.1' style="stroke-width:8.0;stroke:rgb(150,150,150);stroke-linecap:round;fill:none;" />
<line x1='1719.1' y1='782.7' x2='1722.6' y2='771.2' style="stroke-width:8.0;stroke:rgb(150,150,150);stroke-linecap:round;fill:none;" />
<line x1='1812.7' y1='818.3' x2='1817.7' y2='807.4' style="stroke-width:8.0;stroke:rgb(150,150,150);stroke-linecap:round;fill:none;" />
<text x="1835.4" y="802.4" font-size="41.6px" font-family="CMUBright-Roman" style="text-anchor:start;fill:rgb(150,150,150);" transform="rotate(294.6,1835.4,802.4)" >3350 kb</text>
<line x1='1900.7' y1='866.0' x2='1907.1' y2='855.9' style="stroke-width:8.0;stroke:rgb(150,150,150);stroke-linecap:round;fill:none;" />
<line x1='1981.6' y1='925.0' x2='1989.3' y2='915.8' style="stroke-width:8.0;stroke:rgb(150,150,150);stroke-linecap:round;fill:none;" />
<line x1='2053.8' y1='994.3' x2='2062.7' y2='986.2' style="stroke-width:8.0;stroke:rgb(150,150,150);stroke-linecap:round;fill:none;" />
<line x1='2116.3' y1='1072.5' x2='2126.1' y2='1065.7' style="stroke-width:8.0;stroke:rgb(150,150,150);stroke-linecap:round;fill:none;" />
<line x1='2167.7' y1='1158.4' x2='2178.4' y2='1153.0' style="stroke-width:8.0;stroke:rgb(150,150,150);stroke-linecap:round;fill:none;" />
<text x="2195.3" y="1160.0" font-size="41.6px" font-family="CMUBright-Roman" style="text-anchor:start;fill:rgb(150,150,150);" transform="rotate(332.9,2195.3,1160.0)" >3400 kb</text>
<line x1='2207.2' y1='1250.4' x2='2218.6' y2='1246.4' style="stroke-width:8.0;stroke:rgb(150,150,150);stroke-linecap:round;fill:none;" />
<line x1='2234.2' y1='1346.8' x2='2245.9' y2='1344.4' style="stroke-width:8.0;stroke:rgb(150,150,150);stroke-linecap:round;fill:none;" />
<line x1='2248.1' y1='1446.0' x2='2260.0' y2='1445.1' style="stroke-width:8.0;stroke:rgb(150,150,150);stroke-linecap:round;fill:none;" />
<line x1='2248.6' y1='1546.1' x2='2260.6' y2='1546.8' style="stroke-width:8.0;stroke:rgb(150,150,150);stroke-linecap:round;fill:none;" />
<line x1='2235.8' y1='1645.4' x2='2247.6' y2='1647.7' style="stroke-width:8.0;stroke:rgb(150,150,150);stroke-linecap:round;fill:none;" />
<text x="2256.5" y="1663.7" font-size="41.6px" font-family="CMUBright-Roman" style="text-anchor:start;fill:rgb(150,150,150);" transform="rotate(11.2,2256.5,1663.7)" >3450 kb</text>
<line x1='2209.9' y1='1742.1' x2='2221.2' y2='1745.9' style="stroke-width:8.0;stroke:rgb(150,150,150);stroke-linecap:round;fill:none;" />
<line x1='2171.3' y1='1834.4' x2='2182.0' y2='1839.8' style="stroke-width:8.0;stroke:rgb(150,150,150);stroke-linecap:round;fill:none;" />
<line x1='2120.8' y1='1920.9' x2='2130.7' y2='1927.6' style="stroke-width:8.0;stroke:rgb(150,150,150);stroke-linecap:round;fill:none;" />
<line x1='2059.2' y1='1999.8' x2='2068.2' y2='2007.8' style="stroke-width:8.0;stroke:rgb(150,150,150);stroke-linecap:round;fill:none;" />
<line x1='1987.7' y1='2069.8' x2='1995.5' y2='2078.9' style="stroke-width:8.0;stroke:rgb(150,150,150);stroke-linecap:round;fill:none;" />
<text x="1992.5" y="2097.1" font-size="41.6px" font-family="CMUBright-Roman" style="text-anchor:start;fill:rgb(150,150,150);" transform="rotate(49.4,1992.5,2097.1)" >3500 kb</text>
<line x1='1907.4' y1='2129.7' x2='1913.9' y2='2139.8' style="stroke-width:8.0;stroke:rgb(150,150,150);stroke-linecap:round;fill:none;" />
<line x1='1819.9' y1='2178.3' x2='1825.1' y2='2189.2' style="stroke-width:8.0;stroke:rgb(150,150,150);stroke-linecap:round;fill:none;" />
<g id="highlighttrack_0">
<path d="M2034.881,1371.929 A550.000,550.000 40.000 0,1 2046.475,1437.834 L2245.194,1415.228 A750.000,750.000 0.000 0,0 2229.383,1325.357 Z" style="stroke-width:14.0;stroke:rgb(0,0,0);stroke-linecap:round;fill:rgb(255,38,78);" />
</g>
<path d="M1500.000,950.000 A550.000,550.000 40.000 0,1 1687.708,2016.978 L1755.965,2204.970 A750.000,750.000 0.000 0,0 1500.000,750.000 Z" style="stroke-width:2.0;stroke:rgb(0,0,0);stroke-linecap:round;fill:none;" />
<path d="M1471.166,2049.244 A550.000,550.000 40.000 0,1 1285.448,993.574 L1207.429,809.419 A750.000,750.000 0.000 0,0 1460.681,2248.969 Z" style="stroke-width:2.0;stroke:rgb(0,0,0);stroke-linecap:round;fill:rgb(179,177,178);" />
<text x="495.4" y="1676.7" font-size="46.8px" font-family="CMUBright-Roman" style="text-anchor:middle;fill:rgb(0,0,0);" transform="rotate(80.0,495.4,1676.7)" >HistocapCB066<tspan baseline-shift="-40%" font-size="90%">3</tspan></text>
<line x1='1198.6' y1='813.2' x2='1193.8' y2='802.2' style="stroke-width:8.0;stroke:rgb(150,150,150);stroke-linecap:round;fill:none;" />
<text x="1176.2" y="797.0" font-size="41.6px" font-family="CMUBright-Roman" style="text-anchor:end;fill:rgb(150,150,150);" transform="rotate(66.3,1176.2,797.0)" >3200 kb</text>
<line x1='1109.8' y1='859.5' x2='1103.6' y2='849.2' style="stroke-width:8.0;stroke:rgb(150,150,150);stroke-linecap:round;fill:none;" />
<line x1='1028.0' y1='917.1' x2='1020.5' y2='907.8' style="stroke-width:8.0;stroke:rgb(150,150,150);stroke-linecap:round;fill:none;" />
<line x1='954.6' y1='985.2' x2='945.9' y2='977.0' style="stroke-width:8.0;stroke:rgb(150,150,150);stroke-linecap:round;fill:none;" />
<line x1='890.9' y1='1062.4' x2='881.1' y2='1055.4' style="stroke-width:8.0;stroke:rgb(150,150,150);stroke-linecap:round;fill:none;" />
<line x1='838.0' y1='1147.4' x2='827.4' y2='1141.8' style="stroke-width:8.0;stroke:rgb(150,150,150);stroke-linecap:round;fill:none;" />
<text x="810.4" y="1148.6" font-size="41.6px" font-family="CMUBright-Roman" style="text-anchor:end;fill:rgb(150,150,150);" transform="rotate(28.0,810.4,1148.6)" >3250 kb</text>
<line x1='797.0' y1='1238.7' x2='785.7' y2='1234.6' style="stroke-width:8.0;stroke:rgb(150,150,150);stroke-linecap:round;fill:none;" />
<line x1='768.4' y1='1334.7' x2='756.7' y2='1332.1' style="stroke-width:8.0;stroke:rgb(150,150,150);stroke-linecap:round;fill:none;" />
<line x1='752.9' y1='1433.6' x2='741.0' y2='1432.5' style="stroke-width:8.0;stroke:rgb(150,150,150);stroke-linecap:round;fill:none;" />
<line x1='750.8' y1='1533.7' x2='738.8' y2='1534.2' style="stroke-width:8.0;stroke:rgb(150,150,150);stroke-linecap:round;fill:none;" />
<line x1='761.9' y1='1633.2' x2='750.1' y2='1635.3' style="stroke-width:8.0;stroke:rgb(150,150,150);stroke-linecap:round;fill:none;" />
<text x="740.9" y="1651.2" font-size="41.6px" font-family="CMUBright-Roman" style="text-anchor:end;fill:rgb(150,150,150);" transform="rotate(-10.2,740.9,1651.2)" >3300 kb</text>
<line x1='786.2' y1='1730.3' x2='774.8' y2='1734.0' style="stroke-width:8.0;stroke:rgb(150,150,150);stroke-linecap:round;fill:none;" />
<line x1='823.3' y1='1823.3' x2='812.4' y2='1828.5' style="stroke-width:8.0;stroke:rgb(150,150,150);stroke-linecap:round;fill:none;" />
<line x1='872.3' y1='1910.5' x2='862.3' y2='1917.1' style="stroke-width:8.0;stroke:rgb(150,150,150);stroke-linecap:round;fill:none;" />
<line x1='932.6' y1='1990.5' x2='923.5' y2='1998.3' style="stroke-width:8.0;stroke:rgb(150,150,150);stroke-linecap:round;fill:none;" />
<line x1='1003.0' y1='2061.7' x2='995.0' y2='2070.7' style="stroke-width:8.0;stroke:rgb(150,150,150);stroke-linecap:round;fill:none;" />
<text x="997.7" y="2088.8" font-size="41.6px" font-family="CMUBright-Roman" style="text-anchor:end;fill:rgb(150,150,150);" transform="rotate(-48.5,997.7,2088.8)" >3350 kb</text>
<line x1='1082.2' y1='2122.9' x2='1075.5' y2='2132.8' style="stroke-width:8.0;stroke:rgb(150,150,150);stroke-linecap:round;fill:none;" />
<line x1='1168.9' y1='2173.0' x2='1163.6' y2='2183.7' style="stroke-width:8.0;stroke:rgb(150,150,150);stroke-linecap:round;fill:none;" />
<line x1='1261.5' y1='2211.1' x2='1257.7' y2='2222.4' style="stroke-width:8.0;stroke:rgb(150,150,150);stroke-linecap:round;fill:none;" />
<line x1='1358.3' y1='2236.5' x2='1356.0' y2='2248.3' style="stroke-width:8.0;stroke:rgb(150,150,150);stroke-linecap:round;fill:none;" />
<line x1='1457.6' y1='2248.8' x2='1457.0' y2='2260.8' style="stroke-width:8.0;stroke:rgb(150,150,150);stroke-linecap:round;fill:none;" />
<text x="1470.3" y="2273.4" font-size="41.6px" font-family="CMUBright-Roman" style="text-anchor:end;fill:rgb(150,150,150);" transform="rotate(-86.8,1470.3,2273.4)" >3400 kb</text>
<path d="M1471.166,2049.244 A550.000,550.000 40.000 0,1 1285.448,993.574 L1207.429,809.419 A750.000,750.000 0.000 0,0 1460.681,2248.969 Z" style="stroke-width:2.0;stroke:rgb(0,0,0);stroke-linecap:round;fill:none;" />
</g>
<g id="track_0">
<path d="M 1533.416,978.570 A 522.500,522.500 0.00 0,1 1754.0,1043.4 L 1754.0,1043.4 1743.2,1062.3 1731.8,1081.0 1720.0,1099.4 1707.6,1117.5 1694.7,1135.1 1681.3,1152.2 1667.5,1168.6 1653.1,1184.3 1638.3,1199.3 1623.1,1213.5 1607.4,1226.8 1591.4,1239.2 1574.9,1250.6 1558.0,1261.0 1540.8,1270.3 1523.3,1278.6 1505.4,1285.7 1487.3,1291.8 1468.9,1296.7 1450.2,1300.4 1431.3,1303.0 1412.3,1304.5 1393.0,1304.7 1373.7,1303.9 1354.2,1301.9 1334.6,1298.8 1315.0,1294.7 1295.4,1289.5 1275.8,1283.2 1256.3,1276.0 1236.9,1267.9 1217.6,1258.9 1198.4,1249.1 1179.5,1238.6 1160.8,1227.3 1142.4,1215.4 1124.4,1203.0 1106.7,1190.1 1089.4,1176.8  A 522.500,522.500 0.00 0,1 1267.5,1032.1 L 1267.5,1032.1 1276.7,1050.2 1286.1,1068.1 1295.6,1085.7 1305.2,1102.7 1315.0,1119.2 1324.8,1135.0 1334.6,1149.9 1344.4,1164.0 1354.2,1177.0 1363.8,1189.0 1373.4,1199.8 1382.9,1209.4 1392.2,1217.8 1401.3,1224.8 1410.2,1230.4 1418.9,1234.7 1427.4,1237.5 1435.6,1238.9 1443.5,1238.8 1451.1,1237.3 1458.5,1234.3 1465.5,1229.9 1472.2,1224.0 1478.6,1216.7 1484.6,1208.0 1490.3,1198.0 1495.6,1186.7 1500.6,1174.2 1505.3,1160.5 1509.6,1145.8 1513.5,1129.9 1517.2,1113.2 1520.4,1095.6 1523.4,1077.3 1526.0,1058.3 1528.3,1038.9 1530.3,1019.0 1532.0,998.8 1533.4,978.6  Z" style="stroke-width: 0.5;  stroke: rgb(0,0,0); fill: rgb(179,177,178);" />
<path d="M 2019.205,1558.589 A 522.500,522.500 0.00 0,1 1998.0,1658.0 L 1998.0,1658.0 1975.1,1651.0 1951.9,1644.3 1928.3,1638.0 1904.5,1632.1 1880.4,1626.6 1856.0,1621.7 1831.5,1617.3 1806.8,1613.4 1781.9,1610.0 1756.9,1607.3 1731.7,1605.1 1706.5,1603.6 1681.2,1602.7 1655.9,1602.4 1630.6,1602.8 1605.3,1603.9 1579.9,1605.6 1554.7,1608.1 1529.5,1611.2 1504.4,1614.9 1479.4,1619.4 1454.6,1624.5 1429.9,1630.2 1405.3,1636.6 1381.0,1643.7 1356.8,1651.3 1332.9,1659.6 1309.3,1668.5 1285.9,1677.9 1262.8,1687.9 1240.0,1698.4 1217.5,1709.3 1195.3,1720.8 1173.5,1732.7 1152.1,1744.9 1131.0,1757.5 1110.3,1770.5 1090.1,1783.7 1070.2,1797.2  A 522.500,522.500 0.00 0,1 1020.9,1708.6 L 1020.9,1708.6 1044.1,1698.7 1067.5,1688.9 1091.1,1679.4 1115.0,1670.1 1139.2,1661.0 1163.6,1652.1 1188.2,1643.6 1213.0,1635.3 1238.0,1627.3 1263.2,1619.7 1288.6,1612.4 1314.1,1605.4 1339.8,1598.8 1365.7,1592.5 1391.6,1586.6 1417.7,1581.1 1443.9,1575.9 1470.2,1571.2 1496.5,1566.8 1523.0,1562.8 1549.4,1559.3 1575.9,1556.1 1602.5,1553.3 1629.0,1550.9 1655.6,1548.9 1682.1,1547.3 1708.6,1546.1 1735.1,1545.3 1761.5,1544.8 1787.9,1544.7 1814.1,1545.0 1840.3,1545.6 1866.3,1546.5 1892.2,1547.8 1918.0,1549.4 1943.5,1551.3 1969.0,1553.5 1994.2,1555.9 2019.2,1558.6  Z" style="stroke-width: 0.5;  stroke: rgb(0,0,0); fill: rgb(179,177,178);" />
<path d="M 1974.982,1282.287 A 522.500,522.500 0.00 0,1 2008.1,1378.3 L 2008.1,1378.3 1982.3,1384.5 1956.4,1390.6 1930.5,1396.8 1904.5,1402.8 1878.5,1408.9 1852.4,1414.9 1826.4,1420.9 1800.3,1426.8 1774.1,1432.7 1748.0,1438.5 1721.8,1444.3 1695.6,1450.1 1669.3,1455.8 1643.1,1461.4 1616.8,1467.0 1590.5,1472.6 1564.2,1478.1 1537.8,1483.6 1511.5,1489.0 1485.1,1494.3 1458.8,1499.6 1432.4,1504.9 1406.0,1510.1 1379.6,1515.2 1353.2,1520.3 1326.8,1525.3 1300.5,1530.3 1274.1,1535.2 1247.7,1540.1 1221.3,1544.9 1195.0,1549.7 1168.6,1554.4 1142.3,1559.1 1116.0,1563.7 1089.7,1568.3 1063.4,1572.9 1037.1,1577.3 1010.9,1581.8 984.7,1586.2  A 522.500,522.500 0.00 0,1 977.7,1484.8 L 977.7,1484.8 1003.1,1485.4 1028.6,1485.8 1054.3,1486.0 1080.1,1485.8 1106.1,1485.4 1132.1,1484.7 1158.3,1483.7 1184.6,1482.5 1210.9,1480.8 1237.3,1478.9 1263.7,1476.7 1290.2,1474.1 1316.7,1471.2 1343.2,1467.9 1369.7,1464.3 1396.2,1460.3 1422.6,1456.0 1449.1,1451.4 1475.4,1446.4 1501.7,1441.0 1527.9,1435.4 1554.1,1429.3 1580.1,1423.0 1606.0,1416.3 1631.8,1409.3 1657.5,1401.9 1683.1,1394.3 1708.4,1386.3 1733.7,1378.1 1758.7,1369.6 1783.6,1360.8 1808.3,1351.7 1832.8,1342.4 1857.0,1332.9 1881.1,1323.2 1904.9,1313.2 1928.5,1303.1 1951.9,1292.7 1975.0,1282.3  Z" style="stroke-width: 0.5;  stroke: rgb(0,0,0); fill: rgb(179,177,178);" />
<path d="M 1997.818,1658.694 A 522.500,522.500 0.00 0,1 1957.8,1751.9 L 1957.8,1751.9 1937.7,1741.1 1917.1,1730.7 1896.2,1720.7 1874.9,1711.3 1853.3,1702.4 1831.4,1694.1 1809.3,1686.4 1786.9,1679.4 1764.4,1673.2 1741.7,1667.8 1718.9,1663.1 1695.9,1659.3 1673.0,1656.3 1650.0,1654.2 1626.9,1653.0 1603.9,1652.8 1581.0,1653.4 1558.1,1655.0 1535.4,1657.4 1512.7,1660.9 1490.2,1665.2 1467.9,1670.5 1445.8,1676.6 1423.9,1683.7 1402.3,1691.6 1380.9,1700.4 1359.8,1710.1 1339.1,1720.5 1318.7,1731.7 1298.6,1743.6 1278.9,1756.2 1259.6,1769.4 1240.7,1783.3 1222.2,1797.7 1204.2,1812.6 1186.7,1827.9 1169.6,1843.6 1153.1,1859.6 1137.0,1875.8  A 522.500,522.500 0.00 0,1 1071.3,1798.6 L 1071.3,1798.6 1091.0,1785.1 1111.2,1771.8 1131.8,1758.8 1152.9,1746.2 1174.3,1733.8 1196.0,1721.9 1218.1,1710.4 1240.6,1699.4 1263.3,1688.8 1286.4,1678.8 1309.8,1669.3 1333.4,1660.4 1357.3,1652.1 1381.4,1644.4 1405.7,1637.3 1430.2,1630.9 1454.8,1625.1 1479.7,1620.0 1504.6,1615.5 1529.7,1611.7 1554.9,1608.6 1580.1,1606.2 1605.4,1604.4 1630.7,1603.3 1656.0,1602.9 1681.3,1603.2 1706.6,1604.1 1731.8,1605.6 1756.9,1607.8 1781.9,1610.5 1806.7,1613.9 1831.4,1617.8 1856.0,1622.2 1880.3,1627.2 1904.4,1632.7 1928.2,1638.6 1951.7,1644.9 1974.9,1651.6 1997.8,1658.7  Z" style="stroke-width: 0.5;  stroke: rgb(0,0,0); fill: rgb(179,177,178);" />
<path d="M 2021.205,1463.236 A 522.500,522.500 0.00 0,1 2019.3,1557.5 L 2019.3,1557.5 1994.3,1554.9 1969.1,1552.5 1943.6,1550.4 1918.0,1548.5 1892.2,1547.0 1866.3,1545.8 1840.3,1544.9 1814.1,1544.3 1787.9,1544.1 1761.5,1544.2 1735.1,1544.7 1708.6,1545.5 1682.1,1546.8 1655.6,1548.4 1629.0,1550.4 1602.5,1552.8 1575.9,1555.6 1549.4,1558.8 1522.9,1562.4 1496.5,1566.4 1470.1,1570.8 1443.8,1575.5 1417.6,1580.7 1391.6,1586.2 1365.6,1592.1 1339.7,1598.4 1314.0,1605.0 1288.5,1611.9 1263.1,1619.3 1237.9,1626.9 1212.8,1634.8 1188.0,1643.1 1163.4,1651.6 1139.0,1660.4 1114.8,1669.5 1090.9,1678.8 1067.2,1688.3 1043.8,1698.0 1020.7,1707.9  A 522.500,522.500 0.00 0,1 991.1,1618.4 L 991.1,1618.4 1016.7,1612.5 1042.4,1606.6 1068.2,1600.8 1094.1,1595.1 1120.1,1589.5 1146.1,1584.0 1172.2,1578.5 1198.4,1573.2 1224.6,1567.9 1250.9,1562.8 1277.3,1557.7 1303.7,1552.8 1330.1,1547.9 1356.6,1543.2 1383.1,1538.6 1409.7,1534.1 1436.3,1529.7 1462.9,1525.5 1489.6,1521.4 1516.3,1517.3 1542.9,1513.4 1569.6,1509.7 1596.4,1506.0 1623.1,1502.5 1649.8,1499.1 1676.5,1495.8 1703.2,1492.6 1729.9,1489.6 1756.5,1486.6 1783.2,1483.8 1809.8,1481.1 1836.4,1478.5 1862.9,1476.0 1889.4,1473.6 1915.9,1471.4 1942.3,1469.2 1968.7,1467.1 1995.0,1465.1 2021.2,1463.2  Z" style="stroke-width: 0.5;  stroke: rgb(0,0,0); fill: rgb(179,177,178);" />
<path d="M 1774.968,1055.704 A 522.500,522.500 0.00 0,1 1845.4,1108.0 L 1845.4,1108.0 1830.1,1125.0 1814.3,1141.7 1798.0,1158.2 1781.2,1174.3 1763.8,1190.0 1746.0,1205.3 1727.8,1220.0 1709.1,1234.1 1690.0,1247.6 1670.5,1260.5 1650.6,1272.6 1630.3,1284.0 1609.7,1294.6 1588.7,1304.4 1567.5,1313.4 1545.9,1321.5 1524.1,1328.7 1502.0,1335.0 1479.7,1340.4 1457.2,1344.9 1434.6,1348.5 1411.8,1351.2 1388.8,1352.9 1365.8,1353.8 1342.7,1353.7 1319.6,1352.7 1296.5,1350.9 1273.4,1348.2 1250.4,1344.7 1227.4,1340.4 1204.6,1335.2 1181.9,1329.4 1159.4,1322.9 1137.1,1315.7 1115.0,1307.8 1093.3,1299.4 1071.9,1290.5 1050.8,1281.2 1030.2,1271.4  A 522.500,522.500 0.00 0,1 1075.0,1196.0 L 1075.0,1196.0 1093.1,1208.6 1111.5,1220.8 1130.4,1232.5 1149.5,1243.7 1169.0,1254.3 1188.7,1264.1 1208.7,1273.3 1228.8,1281.7 1249.0,1289.2 1269.4,1295.8 1289.8,1301.4 1310.2,1306.1 1330.7,1309.8 1351.1,1312.4 1371.5,1314.0 1391.7,1314.5 1411.8,1313.9 1431.8,1312.2 1451.6,1309.4 1471.2,1305.4 1490.5,1300.4 1509.6,1294.3 1528.4,1287.1 1546.9,1278.8 1565.1,1269.5 1582.9,1259.2 1600.4,1248.0 1617.4,1235.8 1634.1,1222.7 1650.3,1208.7 1666.1,1194.0 1681.5,1178.5 1696.3,1162.4 1710.7,1145.7 1724.6,1128.4 1738.0,1110.7 1750.8,1092.6 1763.2,1074.3 1775.0,1055.7  Z" style="stroke-width: 0.5;  stroke: rgb(0,0,0); fill: rgb(179,177,178);" />
<path d="M 1852.129,1113.980 A 522.500,522.500 0.00 0,1 1907.5,1172.9 L 1907.5,1172.9 1888.7,1187.7 1869.6,1202.2 1850.0,1216.5 1829.9,1230.4 1809.5,1244.0 1788.6,1257.2 1767.4,1270.0 1745.8,1282.4 1723.9,1294.2 1701.6,1305.5 1679.0,1316.3 1656.1,1326.5 1632.9,1336.1 1609.4,1345.0 1585.7,1353.3 1561.8,1361.0 1537.7,1368.0 1513.3,1374.3 1488.8,1379.9 1464.2,1384.9 1439.4,1389.1 1414.5,1392.6 1389.5,1395.5 1364.4,1397.6 1339.4,1399.0 1314.3,1399.8 1289.2,1399.9 1264.1,1399.3 1239.1,1398.0 1214.2,1396.1 1189.4,1393.7 1164.7,1390.6 1140.2,1386.9 1115.9,1382.7 1091.8,1378.1 1067.9,1372.9 1044.3,1367.2 1021.0,1361.2 998.1,1354.8  A 522.500,522.500 0.00 0,1 1026.5,1279.1 L 1026.5,1279.1 1047.4,1288.6 1068.7,1297.6 1090.3,1306.3 1112.3,1314.4 1134.6,1321.9 1157.1,1328.8 1179.8,1335.1 1202.7,1340.7 1225.8,1345.6 1249.0,1349.7 1272.2,1353.0 1295.6,1355.5 1318.9,1357.1 1342.2,1357.9 1365.6,1357.9 1388.8,1356.9 1412.0,1355.1 1435.0,1352.3 1457.9,1348.7 1480.7,1344.1 1503.2,1338.7 1525.5,1332.4 1547.6,1325.2 1569.4,1317.1 1591.0,1308.2 1612.2,1298.5 1633.1,1288.0 1653.7,1276.7 1673.9,1264.7 1693.7,1252.0 1713.1,1238.6 1732.1,1224.6 1750.7,1210.1 1768.8,1195.0 1786.5,1179.5 1803.6,1163.6 1820.3,1147.3 1836.5,1130.8 1852.1,1114.0  Z" style="stroke-width: 0.5;  stroke: rgb(0,0,0); fill: rgb(179,177,178);" />
<path d="M 1786.624,1936.867 A 522.500,522.500 0.00 0,1 1739.9,1964.2 L 1739.9,1964.2 1730.4,1946.2 1720.8,1928.4 1711.0,1911.0 1701.0,1894.1 1691.0,1877.8 1680.9,1862.2 1670.9,1847.4 1660.8,1833.5 1650.8,1820.6 1640.9,1808.8 1631.2,1798.1 1621.5,1788.6 1612.0,1780.4 1602.8,1773.6 1593.7,1768.1 1584.9,1763.9 1576.4,1761.2 1568.1,1760.0 1560.1,1760.2 1552.4,1761.8 1545.0,1764.9 1538.0,1769.5 1531.3,1775.5 1525.0,1782.9 1519.0,1791.6 1513.4,1801.7 1508.2,1813.1 1503.3,1825.7 1498.8,1839.4 1494.6,1854.3 1490.8,1870.1 1487.4,1886.9 1484.3,1904.6 1481.5,1922.9 1479.1,1941.9 1477.1,1961.4 1475.3,1981.3 1473.8,2001.5 1472.6,2021.8  A 522.500,522.500 0.00 0,1 1455.4,2020.6 L 1455.4,2020.6 1457.3,2000.2 1459.6,1979.9 1462.2,1959.9 1465.2,1940.3 1468.5,1921.1 1472.3,1902.6 1476.5,1884.7 1481.0,1867.7 1486.0,1851.6 1491.5,1836.4 1497.3,1822.3 1503.6,1809.3 1510.3,1797.5 1517.4,1786.9 1525.0,1777.6 1532.9,1769.7 1541.3,1763.1 1550.0,1757.9 1559.2,1754.1 1568.7,1751.7 1578.5,1750.7 1588.7,1751.1 1599.2,1752.9 1610.0,1756.2 1621.0,1760.7 1632.3,1766.6 1643.8,1773.8 1655.5,1782.3 1667.4,1791.9 1679.3,1802.7 1691.4,1814.5 1703.5,1827.3 1715.7,1841.1 1727.8,1855.6 1739.9,1870.8 1751.8,1886.7 1763.6,1903.1 1775.3,1919.8 1786.6,1936.9  Z" style="stroke-width: 0.5;  stroke: rgb(0,0,0); fill: rgb(179,177,178);" />
<path d="M 1939.544,1782.502 A 522.500,522.500 0.00 0,1 1911.6,1821.8 L 1911.6,1821.8 1894.1,1808.5 1876.2,1795.5 1857.8,1782.9 1839.1,1770.9 1820.1,1759.5 1800.7,1748.7 1781.2,1738.7 1761.4,1729.5 1741.4,1721.0 1721.3,1713.5 1701.0,1706.9 1680.7,1701.3 1660.4,1696.7 1640.0,1693.1 1619.6,1690.6 1599.3,1689.2 1579.0,1688.8 1558.8,1689.6 1538.8,1691.4 1518.9,1694.4 1499.2,1698.5 1479.7,1703.7 1460.4,1709.9 1441.4,1717.2 1422.6,1725.6 1404.2,1735.0 1386.1,1745.4 1368.3,1756.7 1350.8,1768.9 1333.8,1782.0 1317.2,1795.9 1300.9,1810.5 1285.1,1825.8 1269.8,1841.7 1254.9,1858.2 1240.6,1875.2 1226.7,1892.6 1213.3,1910.2 1200.5,1928.1  A 522.500,522.500 0.00 0,1 1162.3,1898.7 L 1162.3,1898.7 1177.0,1881.7 1192.3,1865.0 1208.1,1848.5 1224.3,1832.5 1241.1,1816.9 1258.3,1801.8 1275.9,1787.3 1294.0,1773.5 1312.5,1760.3 1331.3,1747.9 1350.6,1736.2 1370.2,1725.4 1390.1,1715.5 1410.3,1706.4 1430.8,1698.3 1451.6,1691.1 1472.6,1684.9 1493.8,1679.7 1515.2,1675.4 1536.8,1672.2 1558.5,1670.0 1580.3,1668.8 1602.2,1668.6 1624.2,1669.4 1646.1,1671.1 1668.1,1673.9 1690.1,1677.6 1712.0,1682.2 1733.8,1687.7 1755.5,1694.0 1777.0,1701.2 1798.3,1709.2 1819.4,1717.9 1840.3,1727.3 1860.9,1737.3 1881.1,1747.9 1901.0,1759.0 1920.5,1770.6 1939.5,1782.5  Z" style="stroke-width: 0.5;  stroke: rgb(0,0,0); fill: rgb(179,177,178);" />
<path d="M 1500.000,977.500 A 522.500,522.500 0.00 0,1 1532.7,978.5 L 1532.7,978.5 1531.3,998.8 1529.6,1018.9 1527.7,1038.8 1525.4,1058.3 1522.8,1077.2 1519.9,1095.6 1516.7,1113.2 1513.1,1129.9 1509.2,1145.7 1504.9,1160.5 1500.3,1174.2 1495.3,1186.7 1490.0,1198.0 1484.4,1208.0 1478.4,1216.6 1472.0,1223.9 1465.4,1229.8 1458.4,1234.2 1451.1,1237.2 1443.5,1238.7 1435.6,1238.8 1427.4,1237.4 1419.0,1234.6 1410.3,1230.3 1401.5,1224.6 1392.4,1217.6 1383.1,1209.3 1373.7,1199.6 1364.2,1188.8 1354.5,1176.8 1344.8,1163.8 1335.0,1149.7 1325.2,1134.7 1315.5,1119.0 1305.8,1102.5 1296.1,1085.4 1286.6,1067.8 1277.3,1049.9 1268.2,1031.8  A 522.500,522.500 0.00 0,1 1296.2,1018.9 L 1296.2,1018.9 1304.2,1037.5 1312.3,1055.8 1320.5,1073.9 1328.9,1091.4 1337.2,1108.4 1345.6,1124.7 1354.0,1140.1 1362.3,1154.7 1370.5,1168.2 1378.6,1180.7 1386.6,1192.0 1394.4,1202.1 1402.1,1210.9 1409.5,1218.4 1416.7,1224.5 1423.7,1229.2 1430.4,1232.4 1436.9,1234.2 1443.0,1234.5 1448.9,1233.3 1454.4,1230.6 1459.7,1226.4 1464.6,1220.8 1469.2,1213.8 1473.5,1205.4 1477.4,1195.6 1481.0,1184.5 1484.3,1172.2 1487.2,1158.6 1489.8,1144.0 1492.1,1128.3 1494.1,1111.7 1495.7,1094.2 1497.1,1075.9 1498.2,1057.0 1499.0,1037.6 1499.6,1017.8 1499.9,997.7 1500.0,977.5  Z" style="stroke-width: 0.5;  stroke: rgb(0,0,0); fill: rgb(179,177,178);" />
<path d="M 1907.991,1173.581 A 522.500,522.500 0.00 0,1 1934.1,1209.2 L 1934.1,1209.2 1913.8,1222.6 1893.0,1235.8 1871.9,1248.7 1850.5,1261.4 1828.6,1273.8 1806.5,1285.8 1783.9,1297.5 1761.1,1308.7 1738.0,1319.6 1714.6,1330.0 1690.9,1339.9 1666.9,1349.4 1642.7,1358.3 1618.3,1366.8 1593.7,1374.7 1568.9,1382.0 1543.9,1388.8 1518.7,1395.1 1493.4,1400.7 1467.9,1405.8 1442.4,1410.3 1416.8,1414.2 1391.1,1417.6 1365.3,1420.3 1339.6,1422.5 1313.8,1424.1 1288.0,1425.1 1262.3,1425.6 1236.6,1425.5 1210.9,1424.9 1185.4,1423.8 1160.0,1422.2 1134.8,1420.0 1109.7,1417.5 1084.8,1414.4 1060.1,1411.0 1035.6,1407.1 1011.4,1402.9 987.5,1398.4  A 522.500,522.500 0.00 0,1 997.9,1355.5 L 997.9,1355.5 1020.9,1361.8 1044.2,1367.9 1067.8,1373.5 1091.6,1378.6 1115.8,1383.3 1140.1,1387.5 1164.6,1391.1 1189.3,1394.1 1214.1,1396.6 1239.1,1398.5 1264.1,1399.7 1289.1,1400.3 1314.3,1400.2 1339.4,1399.4 1364.5,1398.0 1389.5,1395.8 1414.5,1393.0 1439.4,1389.5 1464.2,1385.2 1488.9,1380.3 1513.4,1374.7 1537.8,1368.4 1562.0,1361.4 1585.9,1353.7 1609.6,1345.4 1633.1,1336.5 1656.3,1326.9 1679.2,1316.7 1701.9,1306.0 1724.2,1294.7 1746.1,1282.9 1767.8,1270.5 1789.0,1257.8 1809.9,1244.6 1830.3,1231.0 1850.4,1217.1 1870.0,1202.8 1889.2,1188.3 1908.0,1173.6  Z" style="stroke-width: 0.5;  stroke: rgb(0,0,0); fill: rgb(179,177,178);" />
<path d="M 1867.894,1871.026 A 522.500,522.500 0.00 0,1 1839.4,1897.3 L 1839.4,1897.3 1825.7,1881.6 1811.7,1866.2 1797.4,1851.3 1782.9,1836.8 1768.2,1823.0 1753.4,1810.0 1738.5,1797.7 1723.5,1786.4 1708.6,1776.0 1693.7,1766.6 1678.8,1758.4 1664.1,1751.2 1649.4,1745.3 1635.0,1740.6 1620.8,1737.2 1606.8,1735.1 1593.0,1734.3 1579.5,1734.9 1566.4,1736.7 1553.5,1740.0 1541.0,1744.5 1528.9,1750.4 1517.1,1757.6 1505.8,1766.1 1494.9,1775.9 1484.4,1786.8 1474.3,1799.0 1464.6,1812.2 1455.5,1826.5 1446.7,1841.8 1438.5,1858.0 1430.7,1875.1 1423.4,1893.0 1416.5,1911.5 1410.1,1930.6 1404.1,1950.1 1398.6,1970.1 1393.5,1990.3 1388.9,2010.6  A 522.500,522.500 0.00 0,1 1351.3,2000.9 L 1351.3,2000.9 1357.5,1980.8 1364.2,1960.8 1371.4,1941.0 1379.1,1921.6 1387.2,1902.7 1395.9,1884.3 1405.0,1866.6 1414.6,1849.6 1424.7,1833.4 1435.2,1818.1 1446.3,1803.8 1457.7,1790.5 1469.7,1778.3 1482.1,1767.2 1494.9,1757.3 1508.1,1748.5 1521.7,1741.0 1535.6,1734.8 1550.0,1729.8 1564.6,1726.1 1579.6,1723.7 1594.9,1722.6 1610.4,1722.8 1626.2,1724.2 1642.2,1726.9 1658.3,1730.9 1674.6,1736.0 1691.0,1742.3 1707.5,1749.7 1724.1,1758.2 1740.6,1767.6 1757.1,1778.0 1773.5,1789.3 1789.8,1801.5 1805.9,1814.3 1821.9,1827.8 1837.5,1841.8 1852.9,1856.2 1867.9,1871.0  Z" style="stroke-width: 0.5;  stroke: rgb(0,0,0); fill: rgb(179,177,178);" />
<path d="M 1934.973,1210.510 A 522.500,522.500 0.00 0,1 1954.9,1242.9 L 1954.9,1242.9 1933.2,1255.0 1911.2,1266.9 1888.9,1278.6 1866.2,1290.0 1843.3,1301.2 1820.1,1312.0 1796.5,1322.6 1772.8,1332.8 1748.7,1342.7 1724.5,1352.3 1700.0,1361.4 1675.3,1370.1 1650.3,1378.5 1625.2,1386.4 1600.0,1393.8 1574.5,1400.9 1548.9,1407.4 1523.2,1413.5 1497.4,1419.2 1471.4,1424.4 1445.4,1429.0 1419.3,1433.3 1393.2,1437.0 1367.0,1440.3 1340.8,1443.0 1314.6,1445.4 1288.4,1447.2 1262.2,1448.6 1236.0,1449.6 1210.0,1450.1 1184.0,1450.1 1158.1,1449.8 1132.3,1449.0 1106.7,1447.9 1081.2,1446.4 1056.0,1444.5 1030.9,1442.3 1006.0,1439.7 981.3,1436.9  A 522.500,522.500 0.00 0,1 987.3,1399.3 L 987.3,1399.3 1011.2,1403.8 1035.5,1408.0 1059.9,1411.8 1084.7,1415.2 1109.6,1418.2 1134.7,1420.7 1160.0,1422.8 1185.4,1424.4 1210.9,1425.5 1236.6,1426.1 1262.3,1426.2 1288.0,1425.7 1313.8,1424.6 1339.6,1423.0 1365.4,1420.9 1391.2,1418.1 1416.9,1414.8 1442.6,1410.9 1468.1,1406.4 1493.6,1401.3 1518.9,1395.6 1544.1,1389.4 1569.1,1382.7 1594.0,1375.3 1618.6,1367.5 1643.1,1359.0 1667.3,1350.1 1691.3,1340.7 1715.0,1330.8 1738.5,1320.4 1761.6,1309.6 1784.5,1298.4 1807.0,1286.8 1829.3,1274.8 1851.1,1262.5 1872.7,1249.9 1893.8,1237.0 1914.6,1223.9 1935.0,1210.5  Z" style="stroke-width: 0.5;  stroke: rgb(0,0,0); fill: rgb(179,177,178);" />
<path d="M 1839.948,1896.789 A 522.500,522.500 0.00 0,1 1811.8,1919.3 L 1811.8,1919.3 1799.3,1902.8 1786.6,1886.7 1773.6,1871.0 1760.5,1855.7 1747.2,1841.1 1733.8,1827.3 1720.3,1814.2 1706.9,1802.0 1693.4,1790.9 1680.1,1780.7 1666.8,1771.7 1653.7,1763.9 1640.7,1757.3 1627.9,1751.9 1615.4,1747.9 1603.1,1745.2 1591.1,1743.8 1579.3,1743.9 1567.9,1745.3 1556.9,1748.1 1546.2,1752.3 1535.8,1757.8 1525.9,1764.7 1516.4,1772.9 1507.2,1782.5 1498.5,1793.2 1490.3,1805.2 1482.5,1818.4 1475.1,1832.6 1468.1,1847.9 1461.6,1864.1 1455.6,1881.2 1449.9,1899.1 1444.7,1917.6 1440.0,1936.8 1435.7,1956.4 1431.7,1976.5 1428.2,1996.7 1425.1,2017.1  A 522.500,522.500 0.00 0,1 1389.6,2010.7 L 1389.6,2010.7 1394.2,1990.4 1399.2,1970.2 1404.7,1950.3 1410.7,1930.7 1417.0,1911.6 1423.9,1893.1 1431.2,1875.2 1439.0,1858.1 1447.2,1841.9 1455.9,1826.6 1465.1,1812.2 1474.7,1799.0 1484.7,1786.8 1495.2,1775.9 1506.2,1766.1 1517.5,1757.6 1529.2,1750.4 1541.4,1744.5 1553.8,1739.9 1566.7,1736.6 1579.9,1734.7 1593.3,1734.2 1607.1,1734.9 1621.1,1737.0 1635.4,1740.4 1649.8,1745.1 1664.4,1751.0 1679.2,1758.1 1694.1,1766.3 1709.0,1775.7 1724.0,1786.0 1738.9,1797.4 1753.8,1809.6 1768.7,1822.6 1783.4,1836.4 1797.9,1850.8 1812.2,1865.8 1826.2,1881.1 1839.9,1896.8  Z" style="stroke-width: 0.5;  stroke: rgb(0,0,0); fill: rgb(179,177,178);" />
<path d="M 1959.326,1250.950 A 522.500,522.500 0.00 0,1 1973.9,1280.0 L 1973.9,1280.0 1950.9,1290.5 1927.7,1300.9 1904.2,1311.1 1880.4,1321.1 1856.5,1330.9 1832.3,1340.5 1807.8,1349.8 1783.2,1358.8 1758.4,1367.6 1733.4,1376.1 1708.2,1384.3 1682.8,1392.2 1657.3,1399.8 1631.6,1407.0 1605.8,1413.9 1579.9,1420.5 1553.9,1426.7 1527.8,1432.6 1501.5,1438.1 1475.2,1443.2 1448.9,1448.0 1422.5,1452.4 1396.0,1456.5 1369.5,1460.2 1343.0,1463.5 1316.5,1466.4 1290.0,1469.1 1263.6,1471.3 1237.2,1473.2 1210.8,1474.8 1184.5,1476.0 1158.3,1476.9 1132.1,1477.4 1106.1,1477.7 1080.2,1477.7 1054.4,1477.4 1028.8,1476.8 1003.4,1475.9 978.1,1474.8  A 522.500,522.500 0.00 0,1 980.6,1443.0 L 980.6,1443.0 1005.4,1445.6 1030.4,1447.8 1055.6,1449.8 1081.0,1451.5 1106.5,1452.7 1132.2,1453.7 1158.1,1454.2 1184.1,1454.4 1210.1,1454.2 1236.3,1453.5 1262.5,1452.5 1288.7,1451.0 1315.0,1449.0 1341.3,1446.6 1367.6,1443.8 1393.8,1440.5 1420.0,1436.8 1446.2,1432.6 1472.3,1427.9 1498.4,1422.8 1524.3,1417.2 1550.1,1411.2 1575.8,1404.8 1601.4,1397.9 1626.8,1390.6 1652.0,1382.9 1677.1,1374.7 1702.0,1366.2 1726.6,1357.3 1751.1,1348.0 1775.3,1338.4 1799.3,1328.4 1823.0,1318.1 1846.4,1307.6 1869.6,1296.7 1892.5,1285.6 1915.1,1274.2 1937.4,1262.7 1959.3,1250.9  Z" style="stroke-width: 0.5;  stroke: rgb(0,0,0); fill: rgb(179,177,178);" />
<path d="M 1810.810,1920.004 A 522.500,522.500 0.00 0,1 1787.2,1936.5 L 1787.2,1936.5 1775.8,1919.5 1764.1,1902.8 1752.3,1886.4 1740.3,1870.5 1728.2,1855.3 1716.1,1840.8 1703.9,1827.1 1691.7,1814.3 1679.6,1802.5 1667.6,1791.7 1655.7,1782.1 1644.0,1773.6 1632.4,1766.5 1621.1,1760.6 1610.0,1756.0 1599.2,1752.8 1588.7,1751.0 1578.4,1750.5 1568.6,1751.5 1559.0,1753.9 1549.8,1757.8 1541.1,1763.0 1532.7,1769.6 1524.6,1777.5 1517.1,1786.8 1509.9,1797.4 1503.1,1809.2 1496.8,1822.2 1490.9,1836.3 1485.4,1851.5 1480.4,1867.6 1475.8,1884.7 1471.5,1902.5 1467.7,1921.0 1464.3,1940.2 1461.3,1959.8 1458.7,1979.9 1456.4,2000.1 1454.4,2020.5  A 522.500,522.500 0.00 0,1 1425.7,2017.2 L 1425.7,2017.2 1428.9,1996.8 1432.4,1976.6 1436.3,1956.5 1440.6,1936.9 1445.3,1917.7 1450.4,1899.2 1456.0,1881.3 1462.0,1864.2 1468.5,1848.0 1475.4,1832.7 1482.8,1818.5 1490.5,1805.4 1498.8,1793.4 1507.4,1782.6 1516.5,1773.1 1526.0,1764.9 1535.9,1758.0 1546.2,1752.5 1556.8,1748.3 1567.8,1745.5 1579.2,1744.1 1590.9,1744.1 1602.8,1745.5 1615.1,1748.2 1627.6,1752.3 1640.3,1757.7 1653.2,1764.3 1666.3,1772.2 1679.5,1781.2 1692.9,1791.3 1706.3,1802.6 1719.7,1814.7 1733.1,1827.8 1746.4,1841.7 1759.7,1856.4 1772.8,1871.6 1785.7,1887.4 1798.4,1903.5 1810.8,1920.0  Z" style="stroke-width: 0.5;  stroke: rgb(0,0,0); fill: rgb(179,177,178);" />
<path d="M 1897.003,1839.698 A 522.500,522.500 0.00 0,1 1880.0,1858.7 L 1880.0,1858.7 1864.4,1844.3 1848.4,1830.3 1832.2,1816.7 1815.6,1803.7 1798.9,1791.3 1782.0,1779.7 1764.9,1768.8 1747.8,1758.8 1730.6,1749.8 1713.4,1741.7 1696.2,1734.7 1679.1,1728.8 1662.1,1724.1 1645.2,1720.5 1628.5,1718.1 1612.0,1717.0 1595.7,1717.1 1579.7,1718.4 1564.0,1721.1 1548.6,1724.9 1533.5,1730.1 1518.7,1736.5 1504.4,1744.1 1490.4,1753.0 1476.8,1763.0 1463.7,1774.1 1451.0,1786.4 1438.7,1799.7 1426.9,1814.0 1415.6,1829.3 1404.7,1845.4 1394.4,1862.3 1384.5,1880.0 1375.1,1898.3 1366.3,1917.1 1357.9,1936.4 1350.0,1956.1 1342.6,1976.0 1335.7,1996.0  A 522.500,522.500 0.00 0,1 1311.7,1987.4 L 1311.7,1987.4 1319.7,1967.5 1328.1,1947.8 1337.1,1928.4 1346.6,1909.3 1356.6,1890.6 1367.1,1872.5 1378.1,1855.0 1389.6,1838.2 1401.6,1822.2 1414.0,1807.0 1427.0,1792.8 1440.4,1779.5 1454.3,1767.2 1468.6,1756.0 1483.3,1745.9 1498.4,1737.0 1513.9,1729.2 1529.8,1722.6 1546.0,1717.2 1562.6,1713.0 1579.4,1710.1 1596.5,1708.3 1613.8,1707.8 1631.4,1708.6 1649.2,1710.5 1667.1,1713.5 1685.1,1717.7 1703.2,1723.1 1721.4,1729.5 1739.5,1736.9 1757.7,1745.3 1775.8,1754.6 1793.8,1764.8 1811.6,1775.8 1829.3,1787.4 1846.7,1799.8 1863.8,1812.6 1880.6,1826.0 1897.0,1839.7  Z" style="stroke-width: 0.5;  stroke: rgb(0,0,0); fill: rgb(179,177,178);" />
<path d="M 2019.152,1440.942 A 522.500,522.500 0.00 0,1 2021.2,1463.2 L 2021.2,1463.2 1995.0,1465.1 1968.7,1467.1 1942.3,1469.2 1915.9,1471.3 1889.4,1473.6 1862.9,1476.0 1836.3,1478.4 1809.7,1481.0 1783.1,1483.7 1756.5,1486.5 1729.8,1489.4 1703.1,1492.5 1676.4,1495.6 1649.7,1498.9 1623.0,1502.3 1596.3,1505.8 1569.6,1509.4 1542.9,1513.1 1516.2,1517.0 1489.5,1521.0 1462.8,1525.0 1436.2,1529.3 1409.6,1533.6 1383.0,1538.0 1356.5,1542.6 1330.0,1547.2 1303.5,1552.0 1277.1,1556.9 1250.7,1561.9 1224.4,1567.0 1198.2,1572.2 1172.0,1577.5 1145.9,1582.8 1119.8,1588.3 1093.8,1593.9 1067.9,1599.5 1042.1,1605.2 1016.4,1611.0 990.7,1616.8  A 522.500,522.500 0.00 0,1 986.2,1594.9 L 986.2,1594.9 1012.3,1590.1 1038.5,1585.3 1064.7,1580.5 1091.0,1575.8 1117.3,1571.2 1143.6,1566.5 1169.9,1561.9 1196.3,1557.4 1222.7,1552.9 1249.2,1548.4 1275.6,1544.0 1302.1,1539.6 1328.6,1535.3 1355.1,1531.0 1381.7,1526.8 1408.2,1522.6 1434.8,1518.5 1461.4,1514.4 1488.0,1510.4 1514.6,1506.5 1541.2,1502.5 1567.8,1498.7 1594.4,1494.9 1621.0,1491.1 1647.6,1487.4 1674.2,1483.8 1700.9,1480.2 1727.5,1476.7 1754.1,1473.2 1780.6,1469.7 1807.2,1466.3 1833.8,1463.0 1860.3,1459.7 1886.9,1456.5 1913.4,1453.3 1939.8,1450.1 1966.3,1447.0 1992.7,1444.0 2019.2,1440.9  Z" style="stroke-width: 0.5;  stroke: rgb(0,0,0); fill: rgb(179,177,178);" />
<path d="M 1755.305,1044.121 A 522.500,522.500 0.00 0,1 1773.8,1055.0 L 1773.8,1055.0 1762.1,1073.6 1749.8,1092.0 1737.0,1110.1 1723.7,1127.8 1709.8,1145.1 1695.5,1161.8 1680.7,1178.0 1665.4,1193.4 1649.7,1208.2 1633.5,1222.1 1616.9,1235.2 1599.9,1247.5 1582.5,1258.7 1564.7,1269.0 1546.6,1278.3 1528.1,1286.6 1509.4,1293.8 1490.3,1299.9 1471.0,1304.9 1451.5,1308.9 1431.8,1311.7 1411.8,1313.4 1391.8,1314.0 1371.6,1313.4 1351.3,1311.8 1330.9,1309.2 1310.5,1305.5 1290.1,1300.8 1269.7,1295.1 1249.4,1288.4 1229.2,1280.9 1209.1,1272.5 1189.2,1263.3 1169.6,1253.4 1150.1,1242.8 1131.0,1231.6 1112.2,1219.8 1093.8,1207.6 1075.8,1195.0  A 522.500,522.500 0.00 0,1 1088.7,1177.8 L 1088.7,1177.8 1106.0,1191.0 1123.7,1203.9 1141.8,1216.3 1160.3,1228.1 1179.0,1239.3 1197.9,1249.9 1217.1,1259.7 1236.5,1268.6 1255.9,1276.7 1275.5,1283.9 1295.2,1290.1 1314.8,1295.3 1334.4,1299.4 1354.1,1302.5 1373.6,1304.4 1393.0,1305.3 1412.3,1305.0 1431.4,1303.5 1450.3,1300.9 1469.1,1297.2 1487.5,1292.3 1505.7,1286.2 1523.6,1279.1 1541.2,1270.8 1558.5,1261.5 1575.4,1251.1 1591.9,1239.7 1608.1,1227.3 1623.8,1214.0 1639.1,1199.9 1654.0,1184.9 1668.3,1169.2 1682.3,1152.8 1695.7,1135.7 1708.7,1118.1 1721.1,1100.1 1733.0,1081.7 1744.4,1063.0 1755.3,1044.1  Z" style="stroke-width: 0.5;  stroke: rgb(0,0,0); fill: rgb(179,177,178);" />
<path d="M 1949.502,1766.373 A 522.500,522.500 0.00 0,1 1940.5,1781.1 L 1940.5,1781.1 1921.4,1769.2 1901.8,1757.7 1881.9,1746.6 1861.6,1736.1 1841.0,1726.1 1820.1,1716.8 1798.9,1708.1 1777.5,1700.2 1756.0,1693.1 1734.2,1686.8 1712.4,1681.3 1690.5,1676.8 1668.5,1673.1 1646.4,1670.4 1624.4,1668.7 1602.4,1667.9 1580.5,1668.2 1558.6,1669.4 1536.9,1671.7 1515.3,1674.9 1493.8,1679.2 1472.6,1684.4 1451.5,1690.6 1430.7,1697.8 1410.2,1706.0 1389.9,1715.0 1370.0,1725.0 1350.4,1735.8 1331.1,1747.4 1312.2,1759.9 1293.7,1773.0 1275.6,1786.9 1257.9,1801.4 1240.6,1816.4 1223.9,1832.0 1207.6,1848.1 1191.8,1864.5 1176.5,1881.2 1161.7,1898.2  A 522.500,522.500 0.00 0,1 1148.8,1886.9 L 1148.8,1886.9 1164.2,1870.2 1180.2,1853.9 1196.6,1837.8 1213.6,1822.1 1231.0,1806.9 1248.9,1792.2 1267.2,1778.0 1285.9,1764.5 1305.0,1751.6 1324.5,1739.4 1344.4,1728.0 1364.6,1717.4 1385.2,1707.6 1406.0,1698.7 1427.1,1690.7 1448.5,1683.5 1470.1,1677.3 1491.9,1672.1 1513.9,1667.8 1536.1,1664.5 1558.4,1662.1 1580.7,1660.7 1603.2,1660.3 1625.7,1660.8 1648.3,1662.2 1670.8,1664.6 1693.3,1667.9 1715.8,1672.1 1738.1,1677.2 1760.4,1683.1 1782.4,1689.7 1804.3,1697.2 1826.0,1705.3 1847.4,1714.1 1868.5,1723.6 1889.4,1733.6 1909.8,1744.1 1929.9,1755.0 1949.5,1766.4  Z" style="stroke-width: 0.5;  stroke: rgb(0,0,0); fill: rgb(179,177,178);" />
<path d="M 1957.435,1752.506 A 522.500,522.500 0.00 0,1 1950.9,1764.0 L 1950.9,1764.0 1931.2,1752.8 1911.0,1741.9 1890.5,1731.5 1869.6,1721.6 1848.4,1712.3 1827.0,1703.5 1805.2,1695.5 1783.3,1688.1 1761.1,1681.6 1738.8,1675.8 1716.4,1670.8 1693.9,1666.7 1671.3,1663.4 1648.7,1661.1 1626.1,1659.7 1603.6,1659.3 1581.0,1659.7 1558.6,1661.2 1536.3,1663.6 1514.0,1667.0 1492.0,1671.3 1470.1,1676.6 1448.5,1682.8 1427.1,1690.0 1405.9,1698.1 1385.0,1707.0 1364.4,1716.8 1344.2,1727.4 1324.2,1738.8 1304.7,1751.0 1285.5,1763.9 1266.7,1777.4 1248.4,1791.6 1230.5,1806.3 1213.0,1821.5 1196.0,1837.2 1179.5,1853.2 1163.5,1869.6 1148.0,1886.2  A 522.500,522.500 0.00 0,1 1138.4,1877.1 L 1138.4,1877.1 1154.3,1860.8 1170.8,1844.8 1187.8,1829.0 1205.3,1813.6 1223.3,1798.7 1241.7,1784.3 1260.5,1770.4 1279.7,1757.1 1299.4,1744.4 1319.4,1732.5 1339.7,1721.3 1360.4,1710.8 1381.5,1701.1 1402.8,1692.3 1424.4,1684.3 1446.2,1677.3 1468.3,1671.1 1490.5,1665.8 1513.0,1661.4 1535.6,1658.0 1558.3,1655.5 1581.2,1653.9 1604.1,1653.2 1627.0,1653.5 1650.0,1654.7 1673.0,1656.8 1695.9,1659.8 1718.8,1663.6 1741.6,1668.2 1764.3,1673.7 1786.8,1679.9 1809.1,1686.9 1831.2,1694.6 1853.1,1702.9 1874.6,1711.8 1895.9,1721.3 1916.8,1731.3 1937.3,1741.7 1957.4,1752.5  Z" style="stroke-width: 0.5;  stroke: rgb(0,0,0); fill: rgb(179,177,178);" />
<path d="M 1877.017,1861.752 A 522.500,522.500 0.00 0,1 1868.9,1870.0 L 1868.9,1870.0 1853.8,1855.3 1838.4,1840.8 1822.7,1826.9 1806.7,1813.4 1790.5,1800.6 1774.1,1788.5 1757.6,1777.3 1741.1,1766.9 1724.4,1757.4 1707.8,1749.0 1691.2,1741.6 1674.7,1735.3 1658.3,1730.2 1642.1,1726.3 1626.0,1723.6 1610.1,1722.2 1594.5,1722.0 1579.1,1723.1 1563.9,1725.5 1549.1,1729.2 1534.7,1734.1 1520.6,1740.4 1506.8,1747.9 1493.5,1756.6 1480.5,1766.5 1468.0,1777.6 1455.9,1789.8 1444.2,1803.0 1433.0,1817.3 1422.3,1832.6 1412.1,1848.7 1402.3,1865.7 1393.0,1883.3 1384.2,1901.7 1375.9,1920.6 1368.1,1939.9 1360.7,1959.7 1353.9,1979.6 1347.5,1999.7  A 522.500,522.500 0.00 0,1 1336.4,1996.2 L 1336.4,1996.2 1343.3,1976.2 1350.6,1956.3 1358.4,1936.6 1366.8,1917.4 1375.6,1898.5 1384.9,1880.3 1394.7,1862.6 1405.0,1845.7 1415.8,1829.6 1427.1,1814.4 1438.8,1800.1 1451.0,1786.9 1463.6,1774.7 1476.7,1763.6 1490.2,1753.6 1504.1,1744.8 1518.4,1737.2 1533.0,1730.9 1548.0,1725.8 1563.4,1722.0 1579.0,1719.5 1594.9,1718.2 1611.1,1718.2 1627.5,1719.5 1644.0,1721.9 1660.8,1725.6 1677.7,1730.5 1694.7,1736.5 1711.7,1743.6 1728.8,1751.8 1745.9,1760.9 1762.9,1771.0 1779.8,1782.0 1796.6,1793.8 1813.2,1806.3 1829.6,1819.4 1845.8,1833.1 1861.6,1847.3 1877.0,1861.8  Z" style="stroke-width: 0.5;  stroke: rgb(0,0,0); fill: rgb(179,177,178);" />
<path d="M 1846.079,1108.547 A 522.500,522.500 0.00 0,1 1851.6,1113.5 L 1851.6,1113.5 1836.0,1130.3 1819.9,1146.9 1803.2,1163.2 1786.1,1179.1 1768.4,1194.7 1750.3,1209.8 1731.8,1224.3 1712.8,1238.3 1693.4,1251.7 1673.6,1264.4 1653.4,1276.4 1632.9,1287.7 1612.0,1298.3 1590.8,1308.0 1569.3,1316.9 1547.4,1325.0 1525.4,1332.2 1503.0,1338.5 1480.5,1344.0 1457.8,1348.6 1434.9,1352.2 1411.9,1355.0 1388.7,1356.8 1365.5,1357.8 1342.2,1357.9 1318.8,1357.1 1295.5,1355.4 1272.2,1352.9 1248.9,1349.6 1225.8,1345.5 1202.7,1340.7 1179.8,1335.1 1157.1,1328.8 1134.6,1321.9 1112.3,1314.3 1090.3,1306.2 1068.7,1297.6 1047.4,1288.6 1026.5,1279.1  A 522.500,522.500 0.00 0,1 1029.7,1272.4 L 1029.7,1272.4 1050.4,1282.1 1071.5,1291.4 1092.9,1300.3 1114.7,1308.6 1136.8,1316.4 1159.1,1323.6 1181.6,1330.1 1204.3,1335.9 1227.2,1341.0 1250.2,1345.3 1273.2,1348.8 1296.4,1351.4 1319.5,1353.3 1342.7,1354.2 1365.8,1354.2 1388.8,1353.4 1411.7,1351.6 1434.6,1349.0 1457.3,1345.4 1479.8,1340.8 1502.1,1335.4 1524.2,1329.1 1546.0,1321.8 1567.6,1313.7 1588.9,1304.8 1609.9,1295.0 1630.6,1284.4 1650.9,1273.0 1670.8,1260.9 1690.4,1248.1 1709.5,1234.6 1728.2,1220.4 1746.5,1205.7 1764.3,1190.5 1781.7,1174.8 1798.5,1158.7 1814.9,1142.2 1830.7,1125.5 1846.1,1108.5  Z" style="stroke-width: 0.5;  stroke: rgb(0,0,0); fill: rgb(179,177,178);" />
</g>
<g id="plot0">
<g id="plot0-axis">
</g>
<line x1='2243.7' y1='1596.7' x2='2243.7' y2='1596.7' style="stroke-width:14.0;stroke:rgb(0,0,0);stroke-linecap:round;fill:none;" />
<line x1='2243.7' y1='1596.7' x2='2283.4' y2='1601.9' style="stroke-width:14.0;stroke:rgb(0,0,0);stroke-linecap:round;fill:none;" />
<line x1='2283.4' y1='1601.9' x2='2283.4' y2='1601.9' style="stroke-width:14.0;stroke:rgb(0,0,0);stroke-linecap:round;fill:none;" />
<text x="2300.0" y="1626.8" font-size="46.8px" font-family="CMUBright-Roman" style="text-anchor:start;fill:rgb(255,38,78);" transform="rotate(7.4,2300.0,1626.8)" >HistocapCB192<tspan baseline-shift="-40%" font-size="90%">s</tspan>00602</text>
</g>
<defs>
<pattern id="hline-sparse" width="10" height="10" patternTransform="rotate(0 0 0)" patternUnits="userSpaceOnUse"><line x1="0" y1="0" x2="10" y2="0" style="stroke:black;stroke-width:2" /></pattern>
<pattern id="vline" width="10" height="10" patternTransform="rotate(0 0 0)" patternUnits="userSpaceOnUse"><line x1="0" y1="0" x2="0" y2="10" style="stroke:black;stroke-width:5" /></pattern>
<pattern id="vline-sparse" width="10" height="10" patternTransform="rotate(0 0 0)" patternUnits="userSpaceOnUse"><line x1="0" y1="0" x2="0" y2="10" style="stroke:black;stroke-width:2" /></pattern>
<pattern id="checker" width="10" height="10" patternTransform="rotate(45 0 0)" patternUnits="userSpaceOnUse"><line x1="0" y1="0" x2="10" y2="0" style="stroke:black;stroke-width:2" /><line x1="0" y1="0" x2="0" y2="10" style="stroke:black;stroke-width:2" /></pattern>
<pattern id="hline" width="10" height="10" patternTransform="rotate(0 0 0)" patternUnits="userSpaceOnUse"><line x1="0" y1="0" x2="10" y2="0" style="stroke:black;stroke-width:5" /></pattern>
<pattern id="checker" width="10" height="10" patternTransform="rotate(45 0 0)" patternUnits="userSpaceOnUse"><line x1="0" y1="0" x2="10" y2="0" style="stroke:black;stroke-width:5" /><line x1="0" y1="0" x2="0" y2="10" style="stroke:black;stroke-width:4" /></pattern>
</defs>
</svg>
