<?xml version="1.0" encoding="utf-8" standalone="no"?>
<!DOCTYPE svg PUBLIC "-//W3C//DTD SVG 1.1//EN" "http://www.w3.org/Graphics/SVG/1.1/DTD/svg11.dtd">
<svg width="3000px" height="3000px" version="1.1" xmlns="http://www.w3.org/2000/svg" xmlns:xlink="http://www.w3.org/1999/xlink">
<g id="bg">
<rect x="0" y="0" width="3000px" height="3000px" style="fill:rgb(255,255,255);"/>
</g>
<g id="ideograms">
<path d="M1500.000,950.000 A550.000,550.000 40.000 0,1 1709.486,2008.543 L1785.662,2193.467 A750.000,750.000 0.000 0,0 1500.000,750.000 Z" style="stroke-width:2.0;stroke:rgb(0,0,0);stroke-linecap:round;fill:rgb(179,177,178);" />
<text x="2456.5" y="1310.7" font-size="46.8px" font-family="CMUBright-Roman" style="text-anchor:middle;fill:rgb(0,0,0);" transform="rotate(438.8,2456.5,1310.7)" >Histocap343p18<tspan baseline-shift="-40%" font-size="90%">1</tspan></text>
<line x1='1549.0' y1='751.6' x2='1549.8' y2='739.6' style="stroke-width:8.0;stroke:rgb(150,150,150);stroke-linecap:round;fill:none;" />
<line x1='1649.8' y1='765.1' x2='1652.2' y2='753.3' style="stroke-width:8.0;stroke:rgb(150,150,150);stroke-linecap:round;fill:none;" />
<line x1='1747.8' y1='792.1' x2='1751.7' y2='780.8' style="stroke-width:8.0;stroke:rgb(150,150,150);stroke-linecap:round;fill:none;" />
<text x="1768.9" y="774.2" font-size="41.6px" font-family="CMUBright-Roman" style="text-anchor:start;fill:rgb(150,150,150);" transform="rotate(289.3,1768.9,774.2)" >2250 kb</text>
<line x1='1841.2' y1='832.1' x2='1846.7' y2='821.4' style="stroke-width:8.0;stroke:rgb(150,150,150);stroke-linecap:round;fill:none;" />
<line x1='1928.4' y1='884.4' x2='1935.3' y2='874.6' style="stroke-width:8.0;stroke:rgb(150,150,150);stroke-linecap:round;fill:none;" />
<line x1='2007.8' y1='948.0' x2='2015.9' y2='939.2' style="stroke-width:8.0;stroke:rgb(150,150,150);stroke-linecap:round;fill:none;" />
<line x1='2077.7' y1='1021.8' x2='2087.0' y2='1014.1' style="stroke-width:8.0;stroke:rgb(150,150,150);stroke-linecap:round;fill:none;" />
<line x1='2137.1' y1='1104.3' x2='2147.3' y2='1098.0' style="stroke-width:8.0;stroke:rgb(150,150,150);stroke-linecap:round;fill:none;" />
<text x="2164.8" y="1103.6" font-size="41.6px" font-family="CMUBright-Roman" style="text-anchor:start;fill:rgb(150,150,150);" transform="rotate(328.2,2164.8,1103.6)" >2300 kb</text>
<line x1='2184.8' y1='1194.1' x2='2195.7' y2='1189.2' style="stroke-width:8.0;stroke:rgb(150,150,150);stroke-linecap:round;fill:none;" />
<line x1='2219.9' y1='1289.5' x2='2231.4' y2='1286.2' style="stroke-width:8.0;stroke:rgb(150,150,150);stroke-linecap:round;fill:none;" />
<line x1='2241.7' y1='1388.8' x2='2253.6' y2='1387.1' style="stroke-width:8.0;stroke:rgb(150,150,150);stroke-linecap:round;fill:none;" />
<line x1='2249.9' y1='1490.2' x2='2261.9' y2='1490.0' style="stroke-width:8.0;stroke:rgb(150,150,150);stroke-linecap:round;fill:none;" />
<line x1='2244.4' y1='1591.7' x2='2256.3' y2='1593.2' style="stroke-width:8.0;stroke:rgb(150,150,150);stroke-linecap:round;fill:none;" />
<text x="2266.4" y="1608.5" font-size="41.6px" font-family="CMUBright-Roman" style="text-anchor:start;fill:rgb(150,150,150);" transform="rotate(7.0,2266.4,1608.5)" >2350 kb</text>
<line x1='2225.1' y1='1691.5' x2='2236.7' y2='1694.6' style="stroke-width:8.0;stroke:rgb(150,150,150);stroke-linecap:round;fill:none;" />
<line x1='2192.6' y1='1787.8' x2='2203.6' y2='1792.4' style="stroke-width:8.0;stroke:rgb(150,150,150);stroke-linecap:round;fill:none;" />
<line x1='2147.3' y1='1878.9' x2='2157.6' y2='1884.9' style="stroke-width:8.0;stroke:rgb(150,150,150);stroke-linecap:round;fill:none;" />
<line x1='2090.1' y1='1962.9' x2='2099.5' y2='1970.3' style="stroke-width:8.0;stroke:rgb(150,150,150);stroke-linecap:round;fill:none;" />
<line x1='2022.1' y1='2038.5' x2='2030.4' y2='2047.1' style="stroke-width:8.0;stroke:rgb(150,150,150);stroke-linecap:round;fill:none;" />
<text x="2028.6" y="2065.4" font-size="41.6px" font-family="CMUBright-Roman" style="text-anchor:start;fill:rgb(150,150,150);" transform="rotate(45.9,2028.6,2065.4)" >2400 kb</text>
<line x1='1944.4' y1='2104.1' x2='1951.5' y2='2113.8' style="stroke-width:8.0;stroke:rgb(150,150,150);stroke-linecap:round;fill:none;" />
<line x1='1858.6' y1='2158.7' x2='1864.4' y2='2169.2' style="stroke-width:8.0;stroke:rgb(150,150,150);stroke-linecap:round;fill:none;" />
<g id="highlighttrack_0">
<path d="M2037.438,1383.122 A550.000,550.000 40.000 0,1 2041.444,1403.367 L2238.333,1368.228 A750.000,750.000 0.000 0,0 2232.870,1340.621 Z" style="stroke-width:14.0;stroke:rgb(0,0,0);stroke-linecap:round;fill:rgb(255,38,78);" />
</g>
<path d="M1500.000,950.000 A550.000,550.000 40.000 0,1 1709.486,2008.543 L1785.662,2193.467 A750.000,750.000 0.000 0,0 1500.000,750.000 Z" style="stroke-width:2.0;stroke:rgb(0,0,0);stroke-linecap:round;fill:none;" />
<path d="M1491.065,2049.927 A550.000,550.000 40.000 0,1 1282.280,994.928 L1203.110,811.265 A750.000,750.000 0.000 0,0 1487.816,2249.901 Z" style="stroke-width:2.0;stroke:rgb(0,0,0);stroke-linecap:round;fill:rgb(179,177,178);" />
<text x="499.4" y="1698.0" font-size="46.8px" font-family="CMUBright-Roman" style="text-anchor:middle;fill:rgb(0,0,0);" transform="rotate(78.8,499.4,1698.0)" >HistoohiSECH95<tspan baseline-shift="-40%" font-size="90%">1</tspan></text>
<line x1='1183.0' y1='820.3' x2='1178.0' y2='809.4' style="stroke-width:8.0;stroke:rgb(150,150,150);stroke-linecap:round;fill:none;" />
<line x1='1094.0' y1='869.4' x2='1087.5' y2='859.3' style="stroke-width:8.0;stroke:rgb(150,150,150);stroke-linecap:round;fill:none;" />
<text x="1069.3" y="856.9" font-size="41.6px" font-family="CMUBright-Roman" style="text-anchor:end;fill:rgb(150,150,150);" transform="rotate(57.2,1069.3,856.9)" >1700 kb</text>
<line x1='1012.4' y1='930.1' x2='1004.6' y2='921.0' style="stroke-width:8.0;stroke:rgb(150,150,150);stroke-linecap:round;fill:none;" />
<line x1='939.8' y1='1001.3' x2='930.9' y2='993.3' style="stroke-width:8.0;stroke:rgb(150,150,150);stroke-linecap:round;fill:none;" />
<line x1='877.5' y1='1081.6' x2='867.6' y2='1074.9' style="stroke-width:8.0;stroke:rgb(150,150,150);stroke-linecap:round;fill:none;" />
<line x1='826.7' y1='1169.6' x2='815.9' y2='1164.4' style="stroke-width:8.0;stroke:rgb(150,150,150);stroke-linecap:round;fill:none;" />
<line x1='788.2' y1='1263.7' x2='776.8' y2='1260.0' style="stroke-width:8.0;stroke:rgb(150,150,150);stroke-linecap:round;fill:none;" />
<text x="761.1" y="1269.5" font-size="41.6px" font-family="CMUBright-Roman" style="text-anchor:end;fill:rgb(150,150,150);" transform="rotate(18.4,761.1,1269.5)" >1750 kb</text>
<line x1='762.8' y1='1362.2' x2='751.0' y2='1360.0' style="stroke-width:8.0;stroke:rgb(150,150,150);stroke-linecap:round;fill:none;" />
<line x1='750.9' y1='1463.2' x2='738.9' y2='1462.6' style="stroke-width:8.0;stroke:rgb(150,150,150);stroke-linecap:round;fill:none;" />
<line x1='752.8' y1='1564.8' x2='740.9' y2='1565.9' style="stroke-width:8.0;stroke:rgb(150,150,150);stroke-linecap:round;fill:none;" />
<line x1='768.4' y1='1665.3' x2='756.7' y2='1667.9' style="stroke-width:8.0;stroke:rgb(150,150,150);stroke-linecap:round;fill:none;" />
<line x1='797.5' y1='1762.7' x2='786.3' y2='1766.9' style="stroke-width:8.0;stroke:rgb(150,150,150);stroke-linecap:round;fill:none;" />
<text x="780.1" y="1784.2" font-size="41.6px" font-family="CMUBright-Roman" style="text-anchor:end;fill:rgb(150,150,150);" transform="rotate(-20.5,780.1,1784.2)" >1800 kb</text>
<line x1='839.5' y1='1855.3' x2='828.9' y2='1861.0' style="stroke-width:8.0;stroke:rgb(150,150,150);stroke-linecap:round;fill:none;" />
<line x1='893.6' y1='1941.4' x2='883.9' y2='1948.4' style="stroke-width:8.0;stroke:rgb(150,150,150);stroke-linecap:round;fill:none;" />
<line x1='958.9' y1='2019.3' x2='950.2' y2='2027.6' style="stroke-width:8.0;stroke:rgb(150,150,150);stroke-linecap:round;fill:none;" />
<line x1='1034.1' y1='2087.7' x2='1026.7' y2='2097.1' style="stroke-width:8.0;stroke:rgb(150,150,150);stroke-linecap:round;fill:none;" />
<line x1='1117.9' y1='2145.4' x2='1111.8' y2='2155.7' style="stroke-width:8.0;stroke:rgb(150,150,150);stroke-linecap:round;fill:none;" />
<text x="1117.8" y="2173.0" font-size="41.6px" font-family="CMUBright-Roman" style="text-anchor:end;fill:rgb(150,150,150);" transform="rotate(-59.4,1117.8,2173.0)" >1850 kb</text>
<line x1='1208.7' y1='2191.1' x2='1204.0' y2='2202.2' style="stroke-width:8.0;stroke:rgb(150,150,150);stroke-linecap:round;fill:none;" />
<line x1='1304.8' y1='2224.2' x2='1301.7' y2='2235.7' style="stroke-width:8.0;stroke:rgb(150,150,150);stroke-linecap:round;fill:none;" />
<line x1='1404.6' y1='2243.9' x2='1403.0' y2='2255.8' style="stroke-width:8.0;stroke:rgb(150,150,150);stroke-linecap:round;fill:none;" />
<path d="M1491.065,2049.927 A550.000,550.000 40.000 0,1 1282.280,994.928 L1203.110,811.265 A750.000,750.000 0.000 0,0 1487.816,2249.901 Z" style="stroke-width:2.0;stroke:rgb(0,0,0);stroke-linecap:round;fill:none;" />
</g>
<g id="track_0">
<path d="M 1963.348,1741.485 A 522.500,522.500 0.00 0,1 1891.8,1845.7 L 1891.8,1845.7 1875.3,1831.5 1858.3,1817.6 1841.0,1804.2 1823.3,1791.3 1805.3,1779.0 1786.9,1767.4 1768.4,1756.5 1749.6,1746.4 1730.6,1737.2 1711.5,1728.9 1692.3,1721.6 1673.0,1715.3 1653.6,1710.0 1634.2,1705.8 1614.9,1702.7 1595.5,1700.7 1576.3,1699.9 1557.1,1700.3 1538.1,1701.8 1519.2,1704.4 1500.5,1708.2 1482.0,1713.2 1463.7,1719.3 1445.6,1726.6 1427.9,1734.9 1410.4,1744.3 1393.3,1754.7 1376.5,1766.1 1360.0,1778.4 1343.9,1791.7 1328.3,1805.8 1313.0,1820.7 1298.1,1836.3 1283.8,1852.5 1269.8,1869.3 1256.4,1886.6 1243.4,1904.3 1231.0,1922.3 1219.0,1940.5  A 522.500,522.500 0.00 0,1 1120.7,1859.4 L 1120.7,1859.4 1137.6,1843.7 1155.0,1828.3 1172.8,1813.2 1191.2,1798.5 1210.0,1784.2 1229.2,1770.4 1248.8,1757.1 1268.9,1744.4 1289.3,1732.4 1310.1,1721.0 1331.2,1710.3 1352.6,1700.3 1374.3,1691.2 1396.3,1682.8 1418.6,1675.2 1441.0,1668.5 1463.7,1662.6 1486.6,1657.6 1509.7,1653.5 1532.8,1650.2 1556.1,1647.9 1579.5,1646.4 1602.9,1645.8 1626.4,1646.1 1649.9,1647.3 1673.3,1649.3 1696.7,1652.2 1720.1,1655.9 1743.3,1660.4 1766.4,1665.6 1789.3,1671.6 1812.1,1678.3 1834.6,1685.7 1856.9,1693.7 1878.9,1702.3 1900.5,1711.4 1921.9,1721.0 1942.8,1731.1 1963.3,1741.5  Z" style="stroke-width: 0.5;  stroke: rgb(0,0,0); fill: rgb(179,177,178);" />
<path d="M 2022.444,1507.618 A 522.500,522.500 0.00 0,1 2014.4,1591.8 L 2014.4,1591.8 1990.2,1587.7 1965.7,1583.9 1941.0,1580.4 1916.1,1577.3 1891.0,1574.6 1865.7,1572.3 1840.2,1570.5 1814.6,1569.1 1788.9,1568.2 1763.1,1567.7 1737.2,1567.8 1711.3,1568.3 1685.3,1569.4 1659.3,1571.0 1633.3,1573.2 1607.4,1575.9 1581.4,1579.1 1555.5,1582.9 1529.7,1587.2 1504.0,1592.0 1478.4,1597.4 1453.0,1603.3 1427.7,1609.8 1402.5,1616.7 1377.5,1624.2 1352.7,1632.2 1328.1,1640.6 1303.7,1649.5 1279.6,1658.9 1255.7,1668.7 1232.1,1678.9 1208.8,1689.6 1185.8,1700.6 1163.0,1711.9 1140.6,1723.6 1118.5,1735.5 1096.8,1747.7 1075.4,1760.2 1054.4,1772.9  A 522.500,522.500 0.00 0,1 1016.3,1697.7 L 1016.3,1697.7 1040.0,1688.1 1063.9,1678.7 1088.0,1669.4 1112.3,1660.3 1136.9,1651.4 1161.6,1642.7 1186.4,1634.2 1211.5,1625.9 1236.7,1617.8 1262.1,1610.0 1287.7,1602.5 1313.3,1595.2 1339.1,1588.1 1365.0,1581.4 1391.1,1574.9 1417.2,1568.7 1443.4,1562.8 1469.7,1557.2 1496.1,1551.9 1522.6,1546.9 1549.1,1542.2 1575.6,1537.9 1602.2,1533.8 1628.7,1530.0 1655.3,1526.5 1681.9,1523.4 1708.5,1520.5 1735.1,1517.9 1761.6,1515.7 1788.1,1513.7 1814.5,1512.0 1840.9,1510.6 1867.2,1509.4 1893.3,1508.5 1919.4,1507.9 1945.4,1507.5 1971.2,1507.3 1996.9,1507.3 2022.4,1507.6  Z" style="stroke-width: 0.5;  stroke: rgb(0,0,0); fill: rgb(179,177,178);" />
<path d="M 1804.401,1075.328 A 522.500,522.500 0.00 0,1 1853.5,1115.3 L 1853.5,1115.3 1837.8,1132.0 1821.6,1148.5 1804.8,1164.8 1787.6,1180.7 1769.9,1196.2 1751.7,1211.2 1733.0,1225.7 1714.0,1239.7 1694.5,1253.0 1674.6,1265.7 1654.3,1277.7 1633.7,1288.9 1612.7,1299.5 1591.4,1309.2 1569.8,1318.1 1547.9,1326.2 1525.7,1333.4 1503.3,1339.8 1480.7,1345.2 1457.9,1349.8 1435.0,1353.5 1411.8,1356.3 1388.6,1358.2 1365.3,1359.2 1341.9,1359.4 1318.5,1358.6 1295.1,1357.1 1271.7,1354.7 1248.4,1351.4 1225.1,1347.4 1202.0,1342.7 1179.0,1337.2 1156.2,1331.0 1133.6,1324.2 1111.3,1316.7 1089.3,1308.8 1067.5,1300.3 1046.2,1291.3 1025.2,1281.9  A 522.500,522.500 0.00 0,1 1055.2,1225.9 L 1055.2,1225.9 1074.3,1237.4 1093.9,1248.5 1113.8,1259.1 1134.1,1269.2 1154.7,1278.7 1175.5,1287.5 1196.5,1295.6 1217.8,1303.0 1239.1,1309.5 1260.6,1315.2 1282.2,1320.0 1303.8,1323.9 1325.4,1326.8 1347.0,1328.8 1368.6,1329.7 1390.0,1329.7 1411.4,1328.6 1432.6,1326.5 1453.6,1323.3 1474.5,1319.1 1495.1,1313.9 1515.5,1307.6 1535.6,1300.4 1555.4,1292.2 1574.9,1283.0 1594.1,1272.8 1612.9,1261.8 1631.3,1249.8 1649.4,1237.1 1667.0,1223.5 1684.2,1209.2 1700.9,1194.2 1717.2,1178.6 1733.0,1162.4 1748.3,1145.7 1763.1,1128.6 1777.4,1111.1 1791.2,1093.3 1804.4,1075.3  Z" style="stroke-width: 0.5;  stroke: rgb(0,0,0); fill: rgb(179,177,178);" />
<path d="M 1712.447,1977.360 A 522.500,522.500 0.00 0,1 1699.0,1983.1 L 1699.0,1983.1 1691.0,1964.2 1682.7,1945.5 1674.1,1927.1 1665.2,1909.2 1656.0,1891.8 1646.7,1875.1 1637.0,1859.3 1627.2,1844.3 1617.2,1830.3 1607.1,1817.3 1596.8,1805.4 1586.4,1794.8 1575.9,1785.3 1565.3,1777.2 1554.6,1770.4 1543.9,1765.0 1533.2,1760.9 1522.4,1758.3 1511.7,1757.1 1501.0,1757.4 1490.3,1759.1 1479.7,1762.2 1469.2,1766.8 1458.8,1772.7 1448.4,1780.1 1438.3,1788.7 1428.2,1798.7 1418.4,1809.8 1408.7,1822.2 1399.2,1835.6 1389.9,1850.1 1380.8,1865.6 1372.0,1881.9 1363.4,1899.0 1355.1,1916.8 1347.1,1935.1 1339.4,1953.9 1332.0,1973.0 1325.0,1992.3  A 522.500,522.500 0.00 0,1 1266.4,1967.4 L 1266.4,1967.4 1275.9,1948.9 1285.7,1930.7 1295.9,1912.8 1306.4,1895.3 1317.2,1878.5 1328.3,1862.3 1339.7,1846.9 1351.3,1832.4 1363.1,1818.8 1375.1,1806.2 1387.2,1794.7 1399.6,1784.4 1412.0,1775.3 1424.5,1767.4 1437.2,1760.9 1449.9,1755.6 1462.6,1751.8 1475.3,1749.3 1488.1,1748.2 1500.8,1748.4 1513.5,1750.1 1526.1,1753.2 1538.7,1757.6 1551.1,1763.4 1563.4,1770.6 1575.6,1779.0 1587.6,1788.6 1599.5,1799.5 1611.1,1811.5 1622.5,1824.6 1633.7,1838.7 1644.6,1853.7 1655.3,1869.6 1665.7,1886.3 1675.7,1903.6 1685.4,1921.5 1694.8,1939.8 1703.8,1958.5 1712.4,1977.4  Z" style="stroke-width: 0.5;  stroke: rgb(0,0,0); fill: rgb(179,177,178);" />
<path d="M 1918.716,1187.457 A 522.500,522.500 0.00 0,1 1950.2,1234.7 L 1950.2,1234.7 1928.7,1247.2 1906.9,1259.5 1884.8,1271.6 1862.3,1283.4 1839.6,1295.0 1816.6,1306.3 1793.2,1317.4 1769.6,1328.0 1745.8,1338.4 1721.7,1348.4 1697.4,1358.0 1672.8,1367.2 1648.1,1376.0 1623.1,1384.4 1598.0,1392.4 1572.7,1399.9 1547.2,1407.0 1521.6,1413.6 1495.9,1419.8 1470.0,1425.5 1444.1,1430.7 1418.1,1435.5 1392.0,1439.7 1365.9,1443.6 1339.7,1446.9 1313.5,1449.8 1287.4,1452.2 1261.2,1454.1 1235.1,1455.6 1209.0,1456.7 1183.1,1457.3 1157.2,1457.5 1131.4,1457.3 1105.7,1456.8 1080.2,1455.8 1054.9,1454.5 1029.7,1452.8 1004.8,1450.8 980.0,1448.5  A 522.500,522.500 0.00 0,1 988.8,1392.1 L 988.8,1392.1 1012.4,1396.9 1036.4,1401.4 1060.6,1405.4 1085.1,1409.0 1109.8,1412.2 1134.7,1414.9 1159.8,1417.1 1185.0,1418.8 1210.3,1419.9 1235.7,1420.5 1261.1,1420.5 1286.6,1419.9 1312.2,1418.7 1337.7,1417.0 1363.2,1414.6 1388.7,1411.5 1414.1,1407.9 1439.4,1403.6 1464.6,1398.7 1489.6,1393.2 1514.6,1387.1 1539.3,1380.3 1563.9,1373.0 1588.3,1365.0 1612.4,1356.5 1636.4,1347.4 1660.0,1337.7 1683.4,1327.6 1706.5,1316.9 1729.3,1305.7 1751.8,1294.0 1774.0,1281.9 1795.8,1269.4 1817.3,1256.5 1838.3,1243.2 1859.0,1229.7 1879.3,1215.8 1899.2,1201.7 1918.7,1187.5  Z" style="stroke-width: 0.5;  stroke: rgb(0,0,0); fill: rgb(179,177,178);" />
<path d="M 1974.974,1282.271 A 522.500,522.500 0.00 0,1 1995.1,1333.1 L 1995.1,1333.1 1970.4,1341.4 1945.5,1349.6 1920.5,1357.7 1895.3,1365.8 1870.1,1373.7 1844.7,1381.5 1819.3,1389.2 1793.7,1396.7 1768.1,1404.2 1742.3,1411.5 1716.5,1418.7 1690.6,1425.7 1664.6,1432.6 1638.5,1439.3 1612.4,1445.9 1586.2,1452.4 1560.0,1458.6 1533.7,1464.8 1507.4,1470.7 1481.0,1476.5 1454.6,1482.1 1428.2,1487.6 1401.7,1492.9 1375.3,1498.0 1348.8,1503.0 1322.3,1507.8 1295.8,1512.4 1269.4,1516.9 1242.9,1521.2 1216.5,1525.4 1190.0,1529.4 1163.7,1533.2 1137.3,1536.9 1111.0,1540.4 1084.8,1543.8 1058.6,1547.1 1032.5,1550.2 1006.5,1553.2 980.5,1556.0  A 522.500,522.500 0.00 0,1 977.5,1501.6 L 977.5,1501.6 1003.0,1501.4 1028.6,1501.0 1054.3,1500.3 1080.2,1499.4 1106.2,1498.3 1132.3,1496.8 1158.5,1495.1 1184.8,1493.1 1211.2,1490.9 1237.6,1488.3 1264.0,1485.4 1290.4,1482.2 1316.9,1478.6 1343.4,1474.8 1369.9,1470.6 1396.3,1466.1 1422.7,1461.3 1449.1,1456.2 1475.4,1450.8 1501.7,1445.0 1527.8,1438.9 1553.9,1432.5 1579.9,1425.8 1605.8,1418.7 1631.6,1411.4 1657.2,1403.8 1682.7,1395.9 1708.1,1387.7 1733.3,1379.3 1758.4,1370.5 1783.2,1361.6 1807.9,1352.4 1832.4,1342.9 1856.7,1333.3 1880.8,1323.4 1904.7,1313.4 1928.4,1303.2 1951.8,1292.8 1975.0,1282.3  Z" style="stroke-width: 0.5;  stroke: rgb(0,0,0); fill: rgb(179,177,178);" />
<path d="M 1951.608,1237.214 A 522.500,522.500 0.00 0,1 1975.0,1282.3 L 1975.0,1282.3 1951.8,1292.8 1928.4,1303.1 1904.7,1313.4 1880.9,1323.4 1856.8,1333.2 1832.5,1342.9 1808.0,1352.3 1783.3,1361.5 1758.4,1370.4 1733.4,1379.1 1708.1,1387.6 1682.8,1395.7 1657.3,1403.6 1631.6,1411.2 1605.8,1418.5 1579.9,1425.4 1553.9,1432.1 1527.8,1438.5 1501.7,1444.5 1475.4,1450.2 1449.1,1455.6 1422.7,1460.7 1396.3,1465.5 1369.8,1469.9 1343.4,1474.0 1316.9,1477.7 1290.4,1481.2 1263.9,1484.3 1237.5,1487.2 1211.1,1489.7 1184.8,1491.9 1158.5,1493.8 1132.3,1495.4 1106.2,1496.8 1080.2,1497.8 1054.3,1498.6 1028.6,1499.2 1002.9,1499.5 977.5,1499.6  A 522.500,522.500 0.00 0,1 980.0,1448.8 L 980.0,1448.8 1004.7,1451.1 1029.7,1453.1 1054.9,1454.7 1080.2,1456.1 1105.8,1457.0 1131.4,1457.6 1157.2,1457.8 1183.2,1457.6 1209.2,1457.0 1235.2,1455.9 1261.4,1454.5 1287.5,1452.5 1313.7,1450.2 1339.9,1447.3 1366.1,1444.0 1392.3,1440.3 1418.4,1436.0 1444.4,1431.3 1470.4,1426.2 1496.2,1420.5 1522.0,1414.4 1547.6,1407.9 1573.1,1400.9 1598.5,1393.4 1623.7,1385.5 1648.7,1377.2 1673.5,1368.5 1698.1,1359.4 1722.5,1349.8 1746.6,1339.9 1770.5,1329.7 1794.2,1319.1 1817.5,1308.2 1840.7,1297.0 1863.5,1285.5 1886.0,1273.7 1908.2,1261.8 1930.1,1249.6 1951.6,1237.2  Z" style="stroke-width: 0.5;  stroke: rgb(0,0,0); fill: rgb(179,177,178);" />
<path d="M 1856.758,1118.254 A 522.500,522.500 0.00 0,1 1889.2,1151.4 L 1889.2,1151.4 1871.6,1166.9 1853.4,1182.2 1834.8,1197.2 1815.7,1211.9 1796.2,1226.2 1776.3,1240.1 1756.0,1253.5 1735.2,1266.4 1714.1,1278.8 1692.6,1290.6 1670.8,1301.8 1648.7,1312.4 1626.2,1322.3 1603.5,1331.5 1580.5,1340.0 1557.2,1347.8 1533.7,1354.9 1510.0,1361.2 1486.1,1366.7 1462.1,1371.4 1437.9,1375.4 1413.6,1378.6 1389.2,1381.1 1364.7,1382.7 1340.2,1383.6 1315.6,1383.8 1291.1,1383.2 1266.6,1381.8 1242.1,1379.8 1217.8,1377.0 1193.5,1373.6 1169.5,1369.6 1145.5,1364.9 1121.8,1359.7 1098.3,1353.8 1075.1,1347.5 1052.2,1340.7 1029.6,1333.5 1007.4,1325.9  A 522.500,522.500 0.00 0,1 1025.0,1282.4 L 1025.0,1282.4 1046.0,1291.8 1067.4,1300.7 1089.1,1309.2 1111.2,1317.2 1133.6,1324.6 1156.2,1331.5 1179.0,1337.6 1202.1,1343.1 1225.2,1347.9 1248.5,1351.9 1271.9,1355.2 1295.4,1357.6 1318.8,1359.2 1342.3,1360.0 1365.7,1359.9 1389.1,1359.0 1412.4,1357.1 1435.6,1354.4 1458.7,1350.7 1481.5,1346.2 1504.2,1340.8 1526.7,1334.5 1549.0,1327.4 1571.0,1319.4 1592.7,1310.6 1614.1,1301.0 1635.2,1290.6 1656.0,1279.4 1676.4,1267.5 1696.4,1254.9 1716.0,1241.7 1735.2,1227.9 1754.0,1213.5 1772.3,1198.6 1790.2,1183.2 1807.6,1167.4 1824.5,1151.3 1840.9,1134.9 1856.8,1118.3  Z" style="stroke-width: 0.5;  stroke: rgb(0,0,0); fill: rgb(179,177,178);" />
<path d="M 2018.395,1434.629 A 522.500,522.500 0.00 0,1 2022.1,1479.4 L 2022.1,1479.4 1996.3,1480.5 1970.3,1481.7 1944.3,1483.2 1918.1,1484.8 1891.9,1486.6 1865.6,1488.6 1839.2,1490.8 1812.8,1493.3 1786.3,1495.9 1759.7,1498.7 1733.2,1501.8 1706.6,1505.1 1680.0,1508.6 1653.3,1512.3 1626.7,1516.3 1600.1,1520.5 1573.5,1524.9 1547.0,1529.6 1520.4,1534.5 1493.9,1539.6 1467.5,1545.0 1441.1,1550.6 1414.7,1556.4 1388.5,1562.4 1362.3,1568.6 1336.2,1575.1 1310.2,1581.7 1284.3,1588.6 1258.5,1595.7 1232.8,1602.9 1207.3,1610.3 1181.8,1618.0 1156.5,1625.7 1131.4,1633.7 1106.3,1641.8 1081.5,1650.0 1056.8,1658.4 1032.2,1666.9 1007.9,1675.5  A 522.500,522.500 0.00 0,1 994.6,1632.4 L 994.6,1632.4 1020.1,1625.8 1045.7,1619.2 1071.4,1612.6 1097.1,1606.2 1123.0,1599.7 1148.8,1593.4 1174.8,1587.1 1200.8,1580.9 1226.9,1574.8 1253.0,1568.8 1279.1,1562.8 1305.3,1556.9 1331.6,1551.1 1357.9,1545.5 1384.2,1539.9 1410.6,1534.4 1437.0,1529.0 1463.4,1523.6 1489.8,1518.4 1516.3,1513.3 1542.8,1508.3 1569.3,1503.4 1595.8,1498.6 1622.3,1493.9 1648.8,1489.2 1675.3,1484.7 1701.9,1480.3 1728.4,1476.0 1754.9,1471.8 1781.3,1467.7 1807.8,1463.6 1834.3,1459.7 1860.7,1455.9 1887.1,1452.1 1913.4,1448.4 1939.7,1444.9 1966.0,1441.4 1992.2,1438.0 2018.4,1434.6  Z" style="stroke-width: 0.5;  stroke: rgb(0,0,0); fill: rgb(179,177,178);" />
<path d="M 1990.400,1680.316 A 522.500,522.500 0.00 0,1 1977.9,1711.2 L 1977.9,1711.2 1956.4,1702.0 1934.4,1693.1 1912.1,1684.6 1889.5,1676.5 1866.6,1669.0 1843.4,1662.0 1819.9,1655.6 1796.3,1649.8 1772.4,1644.6 1748.4,1640.1 1724.2,1636.3 1700.0,1633.2 1675.6,1630.8 1651.2,1629.2 1626.8,1628.3 1602.4,1628.3 1578.0,1629.0 1553.6,1630.5 1529.3,1632.8 1505.0,1635.9 1480.9,1639.8 1457.0,1644.4 1433.1,1649.9 1409.5,1656.1 1386.1,1663.0 1362.9,1670.7 1339.9,1679.2 1317.2,1688.2 1294.8,1698.0 1272.7,1708.4 1250.9,1719.4 1229.5,1731.0 1208.4,1743.1 1187.7,1755.7 1167.4,1768.8 1147.5,1782.2 1128.1,1796.1 1109.1,1810.2 1090.5,1824.6  A 522.500,522.500 0.00 0,0 1112.1,1850.0 L 1112.1,1850.0 1129.6,1834.5 1147.7,1819.2 1166.2,1804.1 1185.2,1789.4 1204.6,1775.1 1224.5,1761.2 1244.7,1747.8 1265.4,1734.8 1286.4,1722.5 1307.8,1710.7 1329.6,1699.5 1351.6,1689.0 1374.0,1679.1 1396.7,1670.0 1419.6,1661.5 1442.8,1653.8 1466.3,1646.9 1489.9,1640.7 1513.7,1635.3 1537.7,1630.6 1561.8,1626.8 1586.0,1623.7 1610.3,1621.5 1634.7,1620.0 1659.2,1619.3 1683.6,1619.3 1708.1,1620.1 1732.5,1621.7 1756.8,1623.9 1781.1,1626.9 1805.2,1630.6 1829.2,1634.8 1853.0,1639.8 1876.6,1645.3 1900.0,1651.3 1923.1,1657.9 1945.8,1665.0 1968.3,1672.4 1990.4,1680.3  Z" style="stroke-width: 0.5;  stroke: rgb(0,0,0); fill: rgb(179,177,178);" />
<path d="M 1895.181,1158.183 A 522.500,522.500 0.00 0,1 1914.8,1182.3 L 1914.8,1182.3 1895.7,1196.7 1876.1,1210.9 1856.1,1224.8 1835.7,1238.5 1814.9,1251.7 1793.7,1264.6 1772.1,1277.1 1750.1,1289.2 1727.9,1300.7 1705.3,1311.8 1682.4,1322.3 1659.2,1332.3 1635.7,1341.7 1612.0,1350.5 1588.0,1358.7 1563.8,1366.2 1539.4,1373.2 1514.9,1379.4 1490.1,1385.0 1465.3,1389.9 1440.3,1394.2 1415.1,1397.8 1390.0,1400.7 1364.7,1402.9 1339.4,1404.5 1314.2,1405.4 1288.9,1405.7 1263.6,1405.3 1238.4,1404.3 1213.3,1402.7 1188.3,1400.5 1163.5,1397.8 1138.8,1394.5 1114.2,1390.6 1089.9,1386.3 1065.9,1381.5 1042.0,1376.3 1018.5,1370.6 995.3,1364.6  A 522.500,522.500 0.00 0,1 1004.4,1334.5 L 1004.4,1334.5 1026.9,1341.8 1049.7,1348.7 1072.8,1355.1 1096.2,1361.1 1119.9,1366.6 1143.8,1371.5 1167.9,1375.9 1192.2,1379.6 1216.6,1382.8 1241.2,1385.3 1265.8,1387.1 1290.5,1388.2 1315.2,1388.6 1339.9,1388.3 1364.6,1387.2 1389.3,1385.4 1413.9,1382.9 1438.4,1379.6 1462.8,1375.6 1487.0,1370.8 1511.1,1365.2 1535.0,1358.9 1558.7,1351.9 1582.2,1344.2 1605.5,1335.7 1628.4,1326.6 1651.1,1316.8 1673.5,1306.4 1695.6,1295.3 1717.3,1283.7 1738.7,1271.4 1759.7,1258.7 1780.4,1245.5 1800.6,1231.8 1820.4,1217.7 1839.8,1203.3 1858.7,1188.5 1877.2,1173.5 1895.2,1158.2  Z" style="stroke-width: 0.5;  stroke: rgb(0,0,0); fill: rgb(179,177,178);" />
<path d="M 1890.109,1847.594 A 522.500,522.500 0.00 0,1 1875.2,1863.7 L 1875.2,1863.7 1859.5,1848.8 1843.4,1834.3 1826.9,1820.3 1810.1,1806.8 1792.9,1793.8 1775.5,1781.6 1757.9,1770.1 1740.0,1759.5 1721.9,1749.7 1703.8,1740.9 1685.5,1733.1 1667.1,1726.3 1648.7,1720.6 1630.3,1716.1 1612.0,1712.6 1593.6,1710.4 1575.4,1709.3 1557.3,1709.4 1539.3,1710.8 1521.4,1713.3 1503.7,1717.1 1486.3,1722.1 1469.1,1728.2 1452.1,1735.5 1435.4,1743.9 1419.1,1753.5 1403.0,1764.1 1387.3,1775.7 1371.9,1788.4 1357.0,1801.9 1342.4,1816.4 1328.2,1831.6 1314.5,1847.6 1301.2,1864.2 1288.3,1881.4 1276.0,1899.1 1264.1,1917.2 1252.7,1935.6 1241.8,1954.3  A 522.500,522.500 0.00 0,1 1223.0,1943.0 L 1223.0,1943.0 1234.7,1924.7 1247.0,1906.6 1259.8,1888.8 1273.1,1871.5 1286.8,1854.6 1301.0,1838.3 1315.7,1822.6 1330.8,1807.6 1346.3,1793.5 1362.2,1780.1 1378.4,1767.7 1395.1,1756.2 1412.1,1745.8 1429.4,1736.3 1447.0,1727.9 1464.8,1720.7 1482.9,1714.5 1501.3,1709.5 1519.9,1705.7 1538.6,1703.0 1557.5,1701.5 1576.5,1701.1 1595.6,1702.0 1614.8,1703.9 1634.1,1707.0 1653.3,1711.2 1672.6,1716.5 1691.7,1722.9 1710.9,1730.3 1729.8,1738.6 1748.7,1747.8 1767.4,1758.0 1785.8,1768.9 1804.1,1780.6 1822.0,1792.9 1839.6,1805.9 1856.8,1819.4 1873.7,1833.3 1890.1,1847.6  Z" style="stroke-width: 0.5;  stroke: rgb(0,0,0); fill: rgb(179,177,178);" />
<path d="M 2009.470,1615.957 A 522.500,522.500 0.00 0,1 2004.4,1636.4 L 2004.4,1636.4 1981.1,1630.3 1957.6,1624.6 1933.7,1619.3 1909.6,1614.4 1885.3,1610.0 1860.7,1606.1 1835.9,1602.6 1811.0,1599.7 1786.0,1597.4 1760.8,1595.6 1735.5,1594.5 1710.2,1593.9 1684.8,1594.0 1659.5,1594.7 1634.1,1596.1 1608.7,1598.1 1583.4,1600.8 1558.2,1604.1 1533.1,1608.1 1508.0,1612.8 1483.1,1618.1 1458.4,1624.0 1433.8,1630.6 1409.5,1637.9 1385.3,1645.7 1361.3,1654.2 1337.7,1663.3 1314.2,1672.9 1291.1,1683.0 1268.2,1693.7 1245.7,1704.9 1223.5,1716.6 1201.6,1728.7 1180.1,1741.2 1159.0,1754.1 1138.2,1767.4 1117.9,1780.9 1098.0,1794.7 1078.5,1808.7  A 522.500,522.500 0.00 0,1 1066.4,1791.6 L 1066.4,1791.6 1086.7,1778.2 1107.3,1765.1 1128.3,1752.1 1149.7,1739.5 1171.5,1727.2 1193.6,1715.3 1216.1,1703.7 1238.8,1692.5 1261.9,1681.8 1285.3,1671.5 1308.9,1661.8 1332.8,1652.5 1357.0,1643.7 1381.4,1635.5 1405.9,1627.9 1430.7,1620.8 1455.7,1614.3 1480.8,1608.3 1506.1,1603.0 1531.4,1598.3 1556.9,1594.2 1582.5,1590.6 1608.1,1587.7 1633.8,1585.4 1659.5,1583.7 1685.2,1582.6 1710.9,1582.1 1736.5,1582.1 1762.1,1582.7 1787.6,1583.9 1813.0,1585.6 1838.2,1587.8 1863.3,1590.5 1888.3,1593.7 1913.0,1597.4 1937.5,1601.4 1961.8,1605.9 1985.8,1610.8 2009.5,1616.0  Z" style="stroke-width: 0.5;  stroke: rgb(0,0,0); fill: rgb(179,177,178);" />
<path d="M 2022.327,1486.567 A 522.500,522.500 0.00 0,1 2022.5,1506.9 L 2022.5,1506.9 1996.9,1506.7 1971.2,1506.6 1945.4,1506.8 1919.4,1507.3 1893.3,1508.0 1867.2,1508.9 1840.9,1510.1 1814.5,1511.5 1788.1,1513.3 1761.6,1515.3 1735.1,1517.6 1708.5,1520.2 1681.9,1523.1 1655.3,1526.2 1628.7,1529.7 1602.2,1533.5 1575.6,1537.6 1549.1,1542.0 1522.6,1546.7 1496.1,1551.8 1469.7,1557.1 1443.4,1562.7 1417.2,1568.6 1391.1,1574.8 1365.1,1581.3 1339.1,1588.0 1313.3,1595.1 1287.7,1602.4 1262.1,1610.0 1236.8,1617.8 1211.5,1625.8 1186.5,1634.1 1161.6,1642.6 1136.9,1651.4 1112.3,1660.3 1088.0,1669.4 1063.9,1678.7 1040.0,1688.1 1016.3,1697.6  A 522.500,522.500 0.00 0,1 1008.9,1678.5 L 1008.9,1678.5 1033.2,1669.8 1057.6,1661.1 1082.3,1652.7 1107.0,1644.3 1132.0,1636.1 1157.1,1628.1 1182.3,1620.3 1207.7,1612.6 1233.2,1605.1 1258.9,1597.8 1284.7,1590.7 1310.5,1583.8 1336.5,1577.2 1362.6,1570.8 1388.8,1564.5 1415.1,1558.6 1441.4,1552.8 1467.8,1547.3 1494.2,1542.1 1520.7,1537.0 1547.3,1532.3 1573.9,1527.7 1600.5,1523.4 1627.1,1519.4 1653.7,1515.6 1680.4,1512.1 1707.0,1508.8 1733.6,1505.7 1760.2,1502.9 1786.7,1500.3 1813.2,1497.9 1839.6,1495.8 1866.0,1493.9 1892.3,1492.1 1918.5,1490.6 1944.6,1489.3 1970.7,1488.2 1996.6,1487.3 2022.3,1486.6  Z" style="stroke-width: 0.5;  stroke: rgb(0,0,0); fill: rgb(179,177,178);" />
<path d="M 1977.785,1711.489 A 522.500,522.500 0.00 0,1 1969.9,1728.5 L 1969.9,1728.5 1948.7,1718.5 1927.1,1708.8 1905.1,1699.5 1882.8,1690.6 1860.1,1682.2 1837.2,1674.4 1814.0,1667.1 1790.6,1660.4 1766.9,1654.4 1743.1,1649.0 1719.1,1644.3 1695.0,1640.3 1670.7,1637.1 1646.4,1634.5 1622.0,1632.8 1597.6,1631.8 1573.1,1631.6 1548.7,1632.2 1524.3,1633.6 1500.0,1635.8 1475.7,1638.8 1451.6,1642.6 1427.6,1647.2 1403.7,1652.5 1380.1,1658.6 1356.6,1665.4 1333.3,1672.9 1310.3,1681.2 1287.5,1690.1 1265.0,1699.7 1242.8,1709.9 1221.0,1720.6 1199.4,1731.9 1178.3,1743.8 1157.5,1756.0 1137.1,1768.8 1117.2,1781.8 1097.7,1795.2 1078.6,1808.9  A 522.500,522.500 0.00 0,0 1089.7,1823.6 L 1089.7,1823.6 1108.3,1809.2 1127.3,1795.1 1146.8,1781.3 1166.7,1767.9 1187.1,1754.9 1207.8,1742.4 1228.9,1730.3 1250.4,1718.8 1272.2,1707.8 1294.3,1697.4 1316.8,1687.7 1339.5,1678.7 1362.5,1670.3 1385.7,1662.6 1409.2,1655.7 1432.9,1649.5 1456.7,1644.1 1480.7,1639.5 1504.8,1635.7 1529.0,1632.6 1553.4,1630.3 1577.8,1628.9 1602.2,1628.2 1626.6,1628.3 1651.1,1629.2 1675.5,1630.8 1699.8,1633.2 1724.1,1636.3 1748.3,1640.1 1772.3,1644.7 1796.1,1649.9 1819.8,1655.7 1843.3,1662.2 1866.5,1669.2 1889.4,1676.7 1912.0,1684.8 1934.3,1693.3 1956.2,1702.2 1977.8,1711.5  Z" style="stroke-width: 0.5;  stroke: rgb(0,0,0); fill: rgb(179,177,178);" />
<path d="M 1869.134,1869.792 A 522.500,522.500 0.00 0,1 1856.9,1881.6 L 1856.9,1881.6 1842.1,1866.2 1827.0,1851.1 1811.4,1836.4 1795.5,1822.2 1779.3,1808.7 1762.8,1795.9 1746.1,1783.8 1729.3,1772.6 1712.2,1762.2 1695.1,1752.9 1677.8,1744.6 1660.5,1737.3 1643.2,1731.2 1625.9,1726.2 1608.6,1722.5 1591.3,1719.9 1574.2,1718.6 1557.2,1718.5 1540.3,1719.6 1523.6,1722.0 1507.1,1725.7 1490.8,1730.6 1474.7,1736.8 1458.9,1744.1 1443.4,1752.6 1428.2,1762.3 1413.3,1773.1 1398.7,1784.9 1384.6,1797.8 1370.7,1811.6 1357.3,1826.3 1344.3,1841.9 1331.7,1858.2 1319.6,1875.2 1307.9,1892.7 1296.6,1910.8 1285.9,1929.3 1275.6,1948.1 1265.8,1967.1  A 522.500,522.500 0.00 0,1 1250.7,1959.2 L 1250.7,1959.2 1261.2,1940.4 1272.2,1921.9 1283.6,1903.6 1295.6,1885.8 1308.0,1868.4 1320.9,1851.6 1334.2,1835.5 1348.0,1820.2 1362.1,1805.6 1376.7,1791.9 1391.6,1779.2 1406.9,1767.5 1422.5,1756.8 1438.5,1747.2 1454.7,1738.7 1471.3,1731.3 1488.1,1725.2 1505.1,1720.2 1522.4,1716.5 1539.8,1714.0 1557.4,1712.7 1575.2,1712.6 1593.1,1713.7 1611.0,1716.1 1629.0,1719.6 1647.0,1724.3 1665.1,1730.2 1683.0,1737.1 1701.0,1745.1 1718.8,1754.0 1736.5,1764.0 1754.0,1774.8 1771.4,1786.5 1788.5,1798.9 1805.3,1812.1 1821.8,1825.8 1838.0,1840.1 1853.8,1854.8 1869.1,1869.8  Z" style="stroke-width: 0.5;  stroke: rgb(0,0,0); fill: rgb(179,177,178);" />
<path d="M 2013.641,1595.808 A 522.500,522.500 0.00 0,1 2010.5,1611.4 L 2010.5,1611.4 1986.7,1606.4 1962.6,1601.7 1938.3,1597.5 1913.7,1593.6 1888.9,1590.1 1863.9,1587.1 1838.7,1584.5 1813.4,1582.5 1787.9,1580.9 1762.3,1579.9 1736.7,1579.4 1711.0,1579.5 1685.3,1580.1 1659.5,1581.4 1633.8,1583.2 1608.0,1585.5 1582.3,1588.5 1556.7,1592.1 1531.2,1596.3 1505.7,1601.0 1480.4,1606.4 1455.2,1612.3 1430.2,1618.8 1405.4,1625.9 1380.7,1633.5 1356.2,1641.7 1332.0,1650.4 1308.0,1659.6 1284.3,1669.3 1260.8,1679.5 1237.7,1690.2 1214.8,1701.3 1192.2,1712.7 1170.0,1724.6 1148.1,1736.8 1126.6,1749.3 1105.4,1762.1 1084.7,1775.2 1064.3,1788.4  A 522.500,522.500 0.00 0,1 1055.6,1774.8 L 1055.6,1774.8 1076.5,1762.1 1097.8,1749.6 1119.5,1737.3 1141.5,1725.3 1163.8,1713.5 1186.5,1702.1 1209.5,1691.1 1232.8,1680.4 1256.3,1670.2 1280.1,1660.3 1304.2,1650.9 1328.5,1642.0 1353.1,1633.5 1377.8,1625.6 1402.8,1618.1 1427.9,1611.2 1453.2,1604.7 1478.6,1598.9 1504.2,1593.5 1529.9,1588.7 1555.6,1584.5 1581.5,1580.8 1607.4,1577.6 1633.3,1575.0 1659.3,1573.0 1685.2,1571.5 1711.2,1570.5 1737.1,1570.1 1762.9,1570.1 1788.7,1570.7 1814.4,1571.8 1839.9,1573.3 1865.3,1575.3 1890.6,1577.7 1915.7,1580.6 1940.5,1583.9 1965.1,1587.5 1989.5,1591.5 2013.6,1595.8  Z" style="stroke-width: 0.5;  stroke: rgb(0,0,0); fill: rgb(179,177,178);" />
<path d="M 2015.917,1417.319 A 522.500,522.500 0.00 0,1 2017.9,1431.1 L 2017.9,1431.1 1991.7,1434.6 1965.5,1438.2 1939.2,1441.9 1912.9,1445.6 1886.5,1449.4 1860.1,1453.3 1833.7,1457.2 1807.3,1461.3 1780.8,1465.4 1754.4,1469.6 1727.9,1473.9 1701.4,1478.3 1674.9,1482.7 1648.4,1487.3 1621.9,1491.9 1595.4,1496.7 1568.9,1501.5 1542.4,1506.4 1515.9,1511.4 1489.4,1516.4 1463.0,1521.6 1436.6,1526.9 1410.2,1532.2 1383.8,1537.6 1357.5,1543.1 1331.2,1548.7 1304.9,1554.4 1278.7,1560.1 1252.5,1565.9 1226.3,1571.8 1200.2,1577.8 1174.2,1583.8 1148.2,1589.9 1122.2,1596.1 1096.3,1602.3 1070.5,1608.6 1044.7,1614.9 1019.0,1621.3 993.4,1627.7  A 522.500,522.500 0.00 0,1 990.2,1614.4 L 990.2,1614.4 1016.1,1608.6 1042.1,1602.8 1068.2,1597.1 1094.2,1591.3 1120.3,1585.7 1146.5,1580.0 1172.6,1574.4 1198.8,1568.8 1225.0,1563.2 1251.2,1557.7 1277.5,1552.2 1303.8,1546.8 1330.1,1541.4 1356.4,1536.1 1382.7,1530.8 1409.1,1525.5 1435.5,1520.3 1461.8,1515.1 1488.2,1510.0 1514.6,1504.9 1541.0,1499.9 1567.5,1494.9 1593.9,1490.0 1620.3,1485.1 1646.7,1480.3 1673.2,1475.5 1699.6,1470.7 1726.0,1466.1 1752.4,1461.4 1778.8,1456.8 1805.2,1452.2 1831.6,1447.7 1858.0,1443.3 1884.4,1438.8 1910.7,1434.5 1937.1,1430.1 1963.4,1425.8 1989.7,1421.5 2015.9,1417.3  Z" style="stroke-width: 0.5;  stroke: rgb(0,0,0); fill: rgb(179,177,178);" />
<path d="M 2008.031,1377.890 A 522.500,522.500 0.00 0,1 2010.6,1389.0 L 2010.6,1389.0 1984.4,1394.6 1958.3,1400.3 1932.2,1406.0 1906.0,1411.6 1879.8,1417.2 1853.7,1422.9 1827.5,1428.5 1801.3,1434.1 1775.1,1439.7 1748.9,1445.2 1722.6,1450.8 1696.4,1456.3 1670.2,1461.9 1643.9,1467.4 1617.7,1472.9 1591.4,1478.4 1565.1,1483.8 1538.9,1489.3 1512.6,1494.7 1486.3,1500.2 1460.1,1505.6 1433.8,1510.9 1407.5,1516.3 1381.2,1521.7 1354.9,1527.0 1328.6,1532.3 1302.4,1537.7 1276.1,1542.9 1249.8,1548.2 1223.5,1553.5 1197.2,1558.7 1171.0,1564.0 1144.7,1569.2 1118.4,1574.4 1092.2,1579.6 1065.9,1584.7 1039.7,1589.9 1013.4,1595.0 987.2,1600.1  A 522.500,522.500 0.00 0,1 985.1,1588.7 L 985.1,1588.7 1011.3,1584.1 1037.5,1579.6 1063.8,1575.0 1090.0,1570.3 1116.3,1565.6 1142.6,1560.9 1168.9,1556.1 1195.3,1551.2 1221.6,1546.4 1248.0,1541.4 1274.3,1536.4 1300.7,1531.4 1327.1,1526.3 1353.4,1521.2 1379.8,1516.0 1406.1,1510.8 1432.5,1505.5 1458.9,1500.2 1485.2,1494.8 1511.5,1489.4 1537.9,1483.9 1564.2,1478.4 1590.5,1472.8 1616.8,1467.2 1643.0,1461.5 1669.3,1455.8 1695.5,1450.1 1721.7,1444.3 1747.9,1438.4 1774.0,1432.5 1800.2,1426.6 1826.3,1420.6 1852.3,1414.6 1878.4,1408.6 1904.4,1402.5 1930.3,1396.4 1956.3,1390.3 1982.2,1384.1 2008.0,1377.9  Z" style="stroke-width: 0.5;  stroke: rgb(0,0,0); fill: rgb(179,177,178);" />
<path d="M 2005.565,1368.050 A 522.500,522.500 0.00 0,1 2008.0,1377.8 L 2008.0,1377.8 1982.2,1384.0 1956.3,1390.2 1930.3,1396.4 1904.4,1402.5 1878.4,1408.5 1852.3,1414.6 1826.3,1420.6 1800.2,1426.5 1774.0,1432.5 1747.9,1438.4 1721.7,1444.2 1695.5,1450.0 1669.3,1455.7 1643.0,1461.4 1616.8,1467.1 1590.5,1472.7 1564.2,1478.3 1537.8,1483.8 1511.5,1489.2 1485.2,1494.6 1458.8,1500.0 1432.5,1505.3 1406.1,1510.6 1379.7,1515.8 1353.4,1520.9 1327.0,1526.0 1300.6,1531.1 1274.2,1536.1 1247.9,1541.0 1221.5,1545.9 1195.2,1550.8 1168.8,1555.6 1142.5,1560.3 1116.2,1565.1 1089.9,1569.7 1063.6,1574.3 1037.4,1578.9 1011.2,1583.5 985.0,1587.9  A 522.500,522.500 0.00 0,1 983.3,1577.5 L 983.3,1577.5 1009.5,1573.6 1035.7,1569.6 1061.9,1565.5 1088.2,1561.3 1114.5,1557.1 1140.8,1552.8 1167.2,1548.4 1193.6,1544.0 1219.9,1539.5 1246.4,1534.9 1272.8,1530.2 1299.2,1525.4 1325.6,1520.6 1352.1,1515.7 1378.5,1510.7 1404.9,1505.6 1431.4,1500.4 1457.8,1495.2 1484.2,1489.9 1510.6,1484.4 1536.9,1479.0 1563.3,1473.4 1589.6,1467.7 1615.9,1462.0 1642.2,1456.2 1668.4,1450.3 1694.6,1444.4 1720.8,1438.4 1746.9,1432.3 1773.0,1426.1 1799.0,1419.9 1825.0,1413.6 1851.0,1407.3 1876.9,1400.9 1902.7,1394.4 1928.5,1387.9 1954.3,1381.3 1980.0,1374.7 2005.6,1368.1  Z" style="stroke-width: 0.5;  stroke: rgb(0,0,0); fill: rgb(179,177,178);" />
<path d="M 2014.372,1408.199 A 522.500,522.500 0.00 0,1 2015.9,1417.3 L 2015.9,1417.3 1989.6,1421.5 1963.3,1425.8 1937.0,1430.1 1910.7,1434.4 1884.3,1438.8 1857.9,1443.2 1831.6,1447.7 1805.2,1452.1 1778.8,1456.7 1752.3,1461.3 1725.9,1465.9 1699.5,1470.5 1673.1,1475.2 1646.6,1480.0 1620.2,1484.8 1593.8,1489.6 1567.3,1494.5 1540.9,1499.4 1514.5,1504.4 1488.1,1509.4 1461.7,1514.4 1435.3,1519.5 1408.9,1524.7 1382.6,1529.8 1356.2,1535.1 1329.9,1540.3 1303.6,1545.6 1277.3,1551.0 1251.0,1556.3 1224.7,1561.7 1198.5,1567.2 1172.3,1572.7 1146.1,1578.2 1120.0,1583.7 1093.8,1589.3 1067.7,1594.9 1041.7,1600.6 1015.6,1606.2 989.6,1611.9  A 522.500,522.500 0.00 0,1 987.7,1602.7 L 987.7,1602.7 1013.9,1597.5 1040.1,1592.2 1066.4,1587.0 1092.6,1581.8 1118.9,1576.6 1145.1,1571.4 1171.4,1566.2 1197.7,1561.0 1224.0,1555.9 1250.3,1550.7 1276.6,1545.6 1302.9,1540.5 1329.2,1535.4 1355.6,1530.3 1381.9,1525.2 1408.2,1520.1 1434.6,1515.1 1460.9,1510.1 1487.3,1505.1 1513.7,1500.1 1540.0,1495.1 1566.4,1490.1 1592.8,1485.2 1619.1,1480.3 1645.5,1475.3 1671.9,1470.4 1698.2,1465.6 1724.6,1460.7 1751.0,1455.9 1777.3,1451.0 1803.7,1446.2 1830.0,1441.4 1856.4,1436.6 1882.7,1431.8 1909.1,1427.1 1935.4,1422.3 1961.7,1417.6 1988.1,1412.9 2014.4,1408.2  Z" style="stroke-width: 0.5;  stroke: rgb(0,0,0); fill: rgb(179,177,178);" />
<path d="M 2002.765,1357.756 A 522.500,522.500 0.00 0,1 2005.1,1366.4 L 2005.1,1366.4 1979.6,1373.2 1953.9,1379.9 1928.2,1386.5 1902.4,1393.1 1876.6,1399.6 1850.7,1406.1 1824.8,1412.5 1798.8,1418.9 1772.8,1425.2 1746.7,1431.4 1720.6,1437.5 1694.4,1443.6 1668.3,1449.6 1642.0,1455.5 1615.8,1461.4 1589.5,1467.2 1563.2,1472.9 1536.8,1478.5 1510.4,1484.0 1484.1,1489.4 1457.7,1494.8 1431.3,1500.1 1404.8,1505.3 1378.4,1510.4 1352.0,1515.4 1325.5,1520.4 1299.1,1525.2 1272.7,1530.0 1246.3,1534.7 1219.9,1539.3 1193.5,1543.8 1167.1,1548.3 1140.8,1552.7 1114.4,1557.0 1088.1,1561.2 1061.9,1565.3 1035.6,1569.4 1009.4,1573.4 983.3,1577.4  A 522.500,522.500 0.00 0,1 982.0,1568.5 L 982.0,1568.5 1008.1,1565.0 1034.3,1561.5 1060.5,1557.8 1086.8,1554.0 1113.1,1550.2 1139.4,1546.2 1165.8,1542.2 1192.2,1538.0 1218.6,1533.8 1245.0,1529.4 1271.5,1524.9 1298.0,1520.4 1324.4,1515.7 1350.9,1510.9 1377.4,1506.0 1403.9,1501.0 1430.3,1495.8 1456.8,1490.6 1483.2,1485.3 1509.6,1479.8 1536.0,1474.3 1562.3,1468.6 1588.7,1462.8 1615.0,1456.9 1641.2,1450.9 1667.4,1444.9 1693.6,1438.7 1719.7,1432.4 1745.7,1426.0 1771.8,1419.5 1797.7,1413.0 1823.6,1406.3 1849.4,1399.6 1875.2,1392.8 1900.8,1385.9 1926.4,1379.0 1952.0,1372.0 1977.4,1364.9 2002.8,1357.8  Z" style="stroke-width: 0.5;  stroke: rgb(0,0,0); fill: rgb(179,177,178);" />
</g>
<g id="plot0">
<g id="plot0-axis">
</g>
<line x1='2243.2' y1='1600.5' x2='2243.2' y2='1600.5' style="stroke-width:14.0;stroke:rgb(0,0,0);stroke-linecap:round;fill:none;" />
<line x1='2243.2' y1='1600.5' x2='2282.9' y2='1605.9' style="stroke-width:14.0;stroke:rgb(0,0,0);stroke-linecap:round;fill:none;" />
<line x1='2282.9' y1='1605.9' x2='2282.9' y2='1605.9' style="stroke-width:14.0;stroke:rgb(0,0,0);stroke-linecap:round;fill:none;" />
<text x="2299.5" y="1630.3" font-size="46.8px" font-family="CMUBright-Roman" style="text-anchor:start;fill:rgb(255,38,78);" transform="rotate(7.7,2299.5,1630.3)" >Histocap343p18<tspan baseline-shift="-40%" font-size="90%">s</tspan>02057</text>
</g>
<defs>
<pattern id="hline-sparse" width="10" height="10" patternTransform="rotate(0 0 0)" patternUnits="userSpaceOnUse"><line x1="0" y1="0" x2="10" y2="0" style="stroke:black;stroke-width:2" /></pattern>
<pattern id="vline-sparse" width="10" height="10" patternTransform="rotate(0 0 0)" patternUnits="userSpaceOnUse"><line x1="0" y1="0" x2="0" y2="10" style="stroke:black;stroke-width:2" /></pattern>
<pattern id="checker" width="10" height="10" patternTransform="rotate(45 0 0)" patternUnits="userSpaceOnUse"><line x1="0" y1="0" x2="10" y2="0" style="stroke:black;stroke-width:5" /><line x1="0" y1="0" x2="0" y2="10" style="stroke:black;stroke-width:4" /></pattern>
<pattern id="checker" width="10" height="10" patternTransform="rotate(45 0 0)" patternUnits="userSpaceOnUse"><line x1="0" y1="0" x2="10" y2="0" style="stroke:black;stroke-width:2" /><line x1="0" y1="0" x2="0" y2="10" style="stroke:black;stroke-width:2" /></pattern>
<pattern id="vline" width="10" height="10" patternTransform="rotate(0 0 0)" patternUnits="userSpaceOnUse"><line x1="0" y1="0" x2="0" y2="10" style="stroke:black;stroke-width:5" /></pattern>
<pattern id="hline" width="10" height="10" patternTransform="rotate(0 0 0)" patternUnits="userSpaceOnUse"><line x1="0" y1="0" x2="10" y2="0" style="stroke:black;stroke-width:5" /></pattern>
</defs>
</svg>
