<?xml version="1.0" encoding="utf-8" standalone="no"?>
<!DOCTYPE svg PUBLIC "-//W3C//DTD SVG 1.1//EN" "http://www.w3.org/Graphics/SVG/1.1/DTD/svg11.dtd">
<svg width="3000px" height="3000px" version="1.1" xmlns="http://www.w3.org/2000/svg" xmlns:xlink="http://www.w3.org/1999/xlink">
<g id="bg">
<rect x="0" y="0" width="3000px" height="3000px" style="fill:rgb(255,255,255);"/>
</g>
<g id="ideograms">
<path d="M1500.000,950.000 A550.000,550.000 40.000 1,1 1040.482,1802.230 L873.384,1912.131 A750.000,750.000 0.000 1,0 1500.000,750.000 Z" style="stroke-width:2.0;stroke:rgb(0,0,0);stroke-linecap:round;fill:rgb(179,177,178);" />
<text x="2396.9" y="1983.6" font-size="46.8px" font-family="CMUBright-Roman" style="text-anchor:middle;fill:rgb(0,0,0);" transform="rotate(-61.7,2396.9,1983.6)" >Histocap388p11<tspan baseline-shift="-40%" font-size="90%">1</tspan></text>
<line x1='1555.3' y1='752.0' x2='1556.2' y2='740.1' style="stroke-width:8.0;stroke:rgb(150,150,150);stroke-linecap:round;fill:none;" />
<line x1='1704.0' y1='778.3' x2='1707.2' y2='766.7' style="stroke-width:8.0;stroke:rgb(150,150,150);stroke-linecap:round;fill:none;" />
<line x1='1844.4' y1='833.7' x2='1849.9' y2='823.1' style="stroke-width:8.0;stroke:rgb(150,150,150);stroke-linecap:round;fill:none;" />
<text x="1867.8" y="818.9" font-size="41.6px" font-family="CMUBright-Roman" style="text-anchor:start;fill:rgb(150,150,150);" transform="rotate(297.3,1867.8,818.9)" >3100 kb</text>
<line x1='1970.8' y1='916.2' x2='1978.3' y2='906.8' style="stroke-width:8.0;stroke:rgb(150,150,150);stroke-linecap:round;fill:none;" />
<line x1='2078.1' y1='1022.2' x2='2087.4' y2='1014.6' style="stroke-width:8.0;stroke:rgb(150,150,150);stroke-linecap:round;fill:none;" />
<line x1='2162.1' y1='1147.7' x2='2172.7' y2='1142.0' style="stroke-width:8.0;stroke:rgb(150,150,150);stroke-linecap:round;fill:none;" />
<line x1='2219.2' y1='1287.4' x2='2230.7' y2='1284.0' style="stroke-width:8.0;stroke:rgb(150,150,150);stroke-linecap:round;fill:none;" />
<line x1='2247.2' y1='1435.7' x2='2259.2' y2='1434.7' style="stroke-width:8.0;stroke:rgb(150,150,150);stroke-linecap:round;fill:none;" />
<text x="2272.2" y="1447.6" font-size="41.6px" font-family="CMUBright-Roman" style="text-anchor:start;fill:rgb(150,150,150);" transform="rotate(355.1,2272.2,1447.6)" >3150 kb</text>
<line x1='2245.0' y1='1586.6' x2='2256.9' y2='1588.0' style="stroke-width:8.0;stroke:rgb(150,150,150);stroke-linecap:round;fill:none;" />
<line x1='2212.6' y1='1734.0' x2='2224.0' y2='1737.8' style="stroke-width:8.0;stroke:rgb(150,150,150);stroke-linecap:round;fill:none;" />
<line x1='2151.3' y1='1871.9' x2='2161.7' y2='1877.9' style="stroke-width:8.0;stroke:rgb(150,150,150);stroke-linecap:round;fill:none;" />
<line x1='2063.6' y1='1994.8' x2='2072.6' y2='2002.7' style="stroke-width:8.0;stroke:rgb(150,150,150);stroke-linecap:round;fill:none;" />
<line x1='1953.1' y1='2097.6' x2='1960.4' y2='2107.2' style="stroke-width:8.0;stroke:rgb(150,150,150);stroke-linecap:round;fill:none;" />
<text x="1956.4" y="2125.1" font-size="41.6px" font-family="CMUBright-Roman" style="text-anchor:start;fill:rgb(150,150,150);" transform="rotate(52.8,1956.4,2125.1)" >3200 kb</text>
<line x1='1824.3' y1='2176.3' x2='1829.5' y2='2187.1' style="stroke-width:8.0;stroke:rgb(150,150,150);stroke-linecap:round;fill:none;" />
<line x1='1682.3' y1='2227.5' x2='1685.2' y2='2239.1' style="stroke-width:8.0;stroke:rgb(150,150,150);stroke-linecap:round;fill:none;" />
<line x1='1533.0' y1='2249.3' x2='1533.5' y2='2261.3' style="stroke-width:8.0;stroke:rgb(150,150,150);stroke-linecap:round;fill:none;" />
<line x1='1382.3' y1='2240.7' x2='1380.4' y2='2252.6' style="stroke-width:8.0;stroke:rgb(150,150,150);stroke-linecap:round;fill:none;" />
<line x1='1236.4' y1='2202.1' x2='1232.1' y2='2213.4' style="stroke-width:8.0;stroke:rgb(150,150,150);stroke-linecap:round;fill:none;" />
<text x="1241.1" y="2229.4" font-size="41.6px" font-family="CMUBright-Roman" style="text-anchor:end;fill:rgb(150,150,150);" transform="rotate(-69.4,1241.1,2229.4)" >3250 kb</text>
<line x1='1101.1' y1='2135.1' x2='1094.7' y2='2145.3' style="stroke-width:8.0;stroke:rgb(150,150,150);stroke-linecap:round;fill:none;" />
<line x1='982.0' y1='2042.4' x2='973.7' y2='2051.1' style="stroke-width:8.0;stroke:rgb(150,150,150);stroke-linecap:round;fill:none;" />
<line x1='883.9' y1='1927.7' x2='874.1' y2='1934.6' style="stroke-width:8.0;stroke:rgb(150,150,150);stroke-linecap:round;fill:none;" />
<g id="highlighttrack_0">
<path d="M1996.426,1736.772 A550.000,550.000 40.000 0,1 1970.611,1784.650 L2141.742,1888.158 A750.000,750.000 0.000 0,0 2176.945,1822.872 Z" style="stroke-width:14.0;stroke:rgb(0,0,0);stroke-linecap:round;fill:rgb(255,38,78);" />
</g>
<path d="M1500.000,950.000 A550.000,550.000 40.000 1,1 1040.482,1802.230 L873.384,1912.131 A750.000,750.000 0.000 1,0 1500.000,750.000 Z" style="stroke-width:2.0;stroke:rgb(0,0,0);stroke-linecap:round;fill:none;" />
<path d="M950.145,1487.365 A550.000,550.000 40.000 0,1 1187.293,1047.546 L1073.582,883.017 A750.000,750.000 0.000 0,0 750.198,1482.770 Z" style="stroke-width:2.0;stroke:rgb(0,0,0);stroke-linecap:round;fill:rgb(179,177,178);" />
<text x="641.8" y="1037.3" font-size="46.8px" font-family="CMUBright-Roman" style="text-anchor:middle;fill:rgb(0,0,0);" transform="rotate(-61.7,641.8,1037.3)" >HistocapNACVFRHC10700582<tspan baseline-shift="-40%" font-size="90%">1</tspan>03</text>
<line x1='768.8' y1='1333.0' x2='757.1' y2='1330.3' style="stroke-width:8.0;stroke:rgb(150,150,150);stroke-linecap:round;fill:none;" />
<line x1='817.1' y1='1190.0' x2='806.1' y2='1185.0' style="stroke-width:8.0;stroke:rgb(150,150,150);stroke-linecap:round;fill:none;" />
<line x1='893.0' y1='1059.5' x2='883.3' y2='1052.5' style="stroke-width:8.0;stroke:rgb(150,150,150);stroke-linecap:round;fill:none;" />
<line x1='993.5' y1='946.9' x2='985.3' y2='938.1' style="stroke-width:8.0;stroke:rgb(150,150,150);stroke-linecap:round;fill:none;" />
<path d="M950.145,1487.365 A550.000,550.000 40.000 0,1 1187.293,1047.546 L1073.582,883.017 A750.000,750.000 0.000 0,0 750.198,1482.770 Z" style="stroke-width:2.0;stroke:rgb(0,0,0);stroke-linecap:round;fill:none;" />
</g>
<g id="track_0">
<path d="M 1863.965,1874.881 A 522.500,522.500 0.00 0,1 1804.5,1924.6 L 1804.5,1924.6 1790.0,1904.7 1775.1,1884.9 1759.9,1865.2 1744.2,1845.5 1728.0,1826.0 1711.5,1806.7 1694.6,1787.5 1677.2,1768.6 1659.5,1749.9 1641.3,1731.5 1622.7,1713.4 1603.8,1695.6 1584.5,1678.1 1564.8,1661.0 1544.7,1644.3 1524.3,1628.0 1503.5,1612.0 1482.4,1596.5 1460.9,1581.4 1439.2,1566.8 1417.2,1552.6 1394.9,1538.8 1372.3,1525.6 1349.5,1512.8 1326.4,1500.5 1303.2,1488.6 1279.8,1477.3 1256.1,1466.4 1232.4,1456.0 1208.5,1446.1 1184.5,1436.6 1160.5,1427.6 1136.4,1419.1 1112.2,1411.1 1088.1,1403.5 1064.0,1396.3 1039.9,1389.5 1016.0,1383.2 992.1,1377.3  A 522.500,522.500 0.00 0,1 1016.0,1303.2 L 1016.0,1303.2 1039.6,1312.9 1063.2,1322.9 1086.9,1333.1 1110.6,1343.6 1134.3,1354.4 1158.0,1365.5 1181.8,1376.8 1205.4,1388.4 1229.0,1400.4 1252.6,1412.6 1276.1,1425.1 1299.5,1437.9 1322.8,1451.0 1346.0,1464.3 1369.1,1478.0 1392.0,1491.9 1414.8,1506.1 1437.4,1520.6 1459.9,1535.4 1482.2,1550.4 1504.3,1565.7 1526.3,1581.3 1548.0,1597.1 1569.5,1613.1 1590.8,1629.4 1611.9,1645.9 1632.8,1662.6 1653.4,1679.4 1673.8,1696.5 1694.0,1713.8 1713.9,1731.2 1733.6,1748.8 1753.0,1766.5 1772.1,1784.4 1791.0,1802.3 1809.7,1820.4 1828.0,1838.5 1846.1,1856.7 1864.0,1874.9  Z" style="stroke-width: 0.5;  stroke: rgb(0,0,0); fill: rgb(179,177,178);" />
<path d="M 2012.685,1600.797 A 522.500,522.500 0.00 0,1 1994.7,1668.2 L 1994.7,1668.2 1970.5,1659.8 1946.2,1651.3 1921.8,1642.4 1897.4,1633.4 1873.0,1624.1 1848.5,1614.5 1824.1,1604.7 1799.6,1594.6 1775.2,1584.2 1750.8,1573.6 1726.5,1562.7 1702.2,1551.5 1678.0,1540.1 1653.8,1528.4 1629.8,1516.5 1605.9,1504.2 1582.0,1491.7 1558.3,1479.0 1534.7,1466.0 1511.3,1452.7 1488.0,1439.2 1464.8,1425.4 1441.8,1411.4 1419.0,1397.2 1396.4,1382.8 1373.9,1368.1 1351.7,1353.3 1329.6,1338.2 1307.7,1322.9 1286.0,1307.5 1264.6,1291.9 1243.3,1276.2 1222.3,1260.3 1201.5,1244.3 1180.9,1228.1 1160.6,1211.9 1140.5,1195.5 1120.6,1179.1 1101.0,1162.6  A 522.500,522.500 0.00 0,1 1150.2,1111.9 L 1150.2,1111.9 1166.9,1130.2 1184.0,1148.4 1201.4,1166.6 1219.3,1184.6 1237.5,1202.4 1256.1,1220.1 1275.0,1237.5 1294.3,1254.7 1314.0,1271.7 1334.0,1288.4 1354.3,1304.8 1375.0,1320.8 1396.0,1336.6 1417.3,1352.0 1439.0,1367.0 1460.9,1381.7 1483.1,1395.9 1505.6,1409.8 1528.3,1423.3 1551.3,1436.3 1574.5,1448.9 1598.0,1461.1 1621.6,1472.8 1645.5,1484.1 1669.5,1494.9 1693.6,1505.3 1717.9,1515.2 1742.3,1524.7 1766.8,1533.7 1791.4,1542.3 1816.1,1550.5 1840.8,1558.2 1865.5,1565.5 1890.2,1572.4 1914.8,1578.8 1939.4,1584.9 1964.0,1590.6 1988.4,1595.9 2012.7,1600.8  Z" style="stroke-width: 0.5;  stroke: rgb(0,0,0); fill: rgb(179,177,178);" />
<path d="M 2021.425,1533.505 A 522.500,522.500 0.00 0,1 2013.6,1595.9 L 2013.6,1595.9 1989.3,1591.2 1964.9,1586.1 1940.3,1580.7 1915.7,1574.8 1891.0,1568.6 1866.3,1561.9 1841.6,1554.8 1816.8,1547.3 1792.2,1539.4 1767.5,1531.0 1743.0,1522.1 1718.5,1512.8 1694.2,1503.0 1670.0,1492.8 1646.0,1482.1 1622.1,1471.0 1598.4,1459.4 1574.9,1447.4 1551.7,1434.9 1528.7,1422.0 1505.9,1408.6 1483.4,1394.8 1461.2,1380.7 1439.2,1366.1 1417.6,1351.1 1396.3,1335.8 1375.2,1320.1 1354.6,1304.1 1334.2,1287.8 1314.2,1271.1 1294.6,1254.2 1275.3,1237.0 1256.3,1219.6 1237.8,1201.9 1219.6,1184.1 1201.8,1166.1 1184.3,1148.0 1167.3,1129.8 1150.6,1111.5  A 522.500,522.500 0.00 0,1 1198.7,1073.1 L 1198.7,1073.1 1212.7,1092.6 1227.2,1112.1 1242.2,1131.4 1257.7,1150.6 1273.6,1169.5 1290.0,1188.3 1306.9,1206.7 1324.2,1224.9 1342.0,1242.7 1360.2,1260.1 1379.0,1277.2 1398.1,1293.8 1417.7,1309.9 1437.7,1325.6 1458.1,1340.8 1478.9,1355.5 1500.0,1369.6 1521.6,1383.2 1543.5,1396.2 1565.7,1408.6 1588.3,1420.5 1611.1,1431.8 1634.2,1442.4 1657.6,1452.5 1681.2,1461.9 1705.1,1470.8 1729.1,1479.0 1753.2,1486.6 1777.5,1493.6 1802.0,1500.1 1826.4,1505.9 1851.0,1511.2 1875.5,1515.9 1900.1,1520.1 1924.6,1523.8 1949.0,1526.9 1973.3,1529.6 1997.5,1531.8 2021.4,1533.5  Z" style="stroke-width: 0.5;  stroke: rgb(0,0,0); fill: rgb(179,177,178);" />
<path d="M 1796.712,1930.080 A 522.500,522.500 0.00 0,1 1744.1,1962.0 L 1744.1,1962.0 1732.8,1941.1 1721.0,1920.2 1708.7,1899.4 1695.9,1878.7 1682.5,1858.2 1668.6,1837.9 1654.2,1817.9 1639.3,1798.1 1623.8,1778.7 1607.8,1759.7 1591.3,1741.0 1574.3,1722.7 1556.8,1705.0 1538.8,1687.7 1520.3,1670.9 1501.3,1654.6 1481.8,1638.9 1461.9,1623.7 1441.6,1609.2 1420.9,1595.2 1399.7,1581.9 1378.2,1569.2 1356.3,1557.1 1334.1,1545.6 1311.6,1534.8 1288.7,1524.6 1265.7,1515.1 1242.4,1506.2 1218.9,1497.9 1195.2,1490.3 1171.4,1483.3 1147.4,1476.9 1123.4,1471.1 1099.4,1465.9 1075.4,1461.2 1051.4,1457.1 1027.5,1453.6 1003.7,1450.5 980.1,1447.9  A 522.500,522.500 0.00 0,1 990.0,1386.4 L 990.0,1386.4 1013.8,1391.9 1037.8,1397.8 1061.9,1404.1 1086.0,1410.9 1110.1,1418.1 1134.3,1425.8 1158.4,1434.0 1182.5,1442.6 1206.4,1451.8 1230.3,1461.4 1254.1,1471.5 1277.7,1482.1 1301.1,1493.3 1324.3,1504.9 1347.3,1517.1 1370.1,1529.7 1392.6,1542.8 1414.8,1556.5 1436.7,1570.6 1458.4,1585.1 1479.7,1600.2 1500.6,1615.7 1521.2,1631.6 1541.5,1647.9 1561.4,1664.7 1580.9,1681.9 1600.0,1699.4 1618.7,1717.3 1637.0,1735.5 1654.9,1754.0 1672.4,1772.8 1689.4,1791.9 1706.0,1811.2 1722.2,1830.6 1738.0,1850.3 1753.3,1870.1 1768.2,1890.1 1782.7,1910.0 1796.7,1930.1  Z" style="stroke-width: 0.5;  stroke: rgb(0,0,0); fill: rgb(179,177,178);" />
<path d="M 1913.264,1819.717 A 522.500,522.500 0.00 0,1 1875.6,1863.2 L 1875.6,1863.2 1857.1,1845.5 1838.3,1827.7 1819.3,1810.0 1800.1,1792.4 1780.7,1774.9 1761.0,1757.4 1741.1,1740.1 1721.0,1722.9 1700.7,1705.9 1680.1,1688.9 1659.3,1672.2 1638.4,1655.6 1617.2,1639.1 1595.9,1622.9 1574.3,1606.8 1552.6,1591.0 1530.7,1575.4 1508.6,1559.9 1486.3,1544.7 1463.9,1529.7 1441.4,1515.0 1418.7,1500.5 1395.8,1486.2 1372.9,1472.2 1349.8,1458.4 1326.6,1444.9 1303.4,1431.6 1280.0,1418.6 1256.6,1405.8 1233.1,1393.3 1209.5,1381.0 1185.9,1369.0 1162.3,1357.2 1138.7,1345.7 1115.1,1334.5 1091.4,1323.4 1067.8,1312.7 1044.3,1302.1 1020.8,1291.8  A 522.500,522.500 0.00 0,1 1046.6,1240.4 L 1046.6,1240.4 1069.4,1253.5 1092.3,1266.7 1115.2,1280.1 1138.1,1293.5 1161.0,1307.0 1183.9,1320.6 1206.8,1334.3 1229.7,1348.2 1252.5,1362.1 1275.3,1376.1 1298.2,1390.2 1320.9,1404.5 1343.7,1418.8 1366.4,1433.2 1389.1,1447.7 1411.7,1462.3 1434.3,1477.0 1456.8,1491.8 1479.3,1506.7 1501.7,1521.7 1524.1,1536.8 1546.3,1551.9 1568.6,1567.2 1590.7,1582.5 1612.8,1597.9 1634.8,1613.4 1656.7,1628.9 1678.6,1644.5 1700.4,1660.2 1722.1,1676.0 1743.7,1691.8 1765.2,1707.6 1786.6,1723.5 1807.9,1739.5 1829.2,1755.4 1850.4,1771.5 1871.4,1787.5 1892.4,1803.6 1913.3,1819.7  Z" style="stroke-width: 0.5;  stroke: rgb(0,0,0); fill: rgb(179,177,178);" />
<path d="M 1734.839,1966.751 A 522.500,522.500 0.00 0,1 1700.7,1982.4 L 1700.7,1982.4 1691.6,1961.0 1681.9,1939.6 1671.6,1918.3 1660.8,1897.1 1649.4,1876.1 1637.4,1855.3 1624.8,1834.8 1611.7,1814.6 1597.9,1794.8 1583.6,1775.4 1568.6,1756.5 1553.1,1738.0 1537.0,1720.1 1520.4,1702.7 1503.2,1685.8 1485.4,1669.6 1467.1,1654.1 1448.3,1639.1 1429.0,1624.9 1409.2,1611.3 1388.9,1598.5 1368.2,1586.3 1347.1,1574.9 1325.6,1564.2 1303.7,1554.2 1281.4,1545.0 1258.9,1536.4 1236.1,1528.7 1213.0,1521.6 1189.7,1515.2 1166.3,1509.6 1142.7,1504.6 1119.0,1500.3 1095.3,1496.6 1071.6,1493.5 1047.9,1491.1 1024.4,1489.2 1000.9,1487.9 977.7,1487.1  A 522.500,522.500 0.00 0,1 980.0,1449.3 L 980.0,1449.3 1003.5,1451.8 1027.2,1454.8 1051.1,1458.3 1075.0,1462.4 1099.0,1467.0 1122.9,1472.2 1146.8,1478.0 1170.7,1484.3 1194.4,1491.3 1218.0,1499.0 1241.4,1507.3 1264.6,1516.2 1287.5,1525.8 1310.2,1536.0 1332.5,1546.9 1354.6,1558.4 1376.3,1570.6 1397.6,1583.4 1418.5,1596.8 1439.1,1610.9 1459.2,1625.6 1478.8,1640.8 1498.0,1656.7 1516.7,1673.1 1534.9,1690.0 1552.6,1707.5 1569.8,1725.4 1586.5,1743.8 1602.7,1762.7 1618.3,1781.9 1633.4,1801.5 1647.9,1821.5 1661.9,1841.7 1675.4,1862.2 1688.4,1882.8 1700.8,1903.7 1712.6,1924.7 1724.0,1945.7 1734.8,1966.8  Z" style="stroke-width: 0.5;  stroke: rgb(0,0,0); fill: rgb(179,177,178);" />
<path d="M 1946.889,1770.732 A 522.500,522.500 0.00 0,1 1929.2,1798.0 L 1929.2,1798.0 1907.4,1782.9 1885.5,1767.8 1863.6,1752.7 1841.6,1737.6 1819.6,1722.6 1797.5,1707.6 1775.4,1692.6 1753.2,1677.7 1730.9,1662.8 1708.6,1647.9 1686.2,1633.1 1663.8,1618.3 1641.4,1603.5 1618.9,1588.8 1596.3,1574.2 1573.7,1559.6 1551.1,1545.0 1528.4,1530.5 1505.7,1516.1 1483.0,1501.7 1460.2,1487.4 1437.4,1473.1 1414.6,1458.9 1391.7,1444.7 1368.8,1430.6 1345.9,1416.6 1322.9,1402.6 1300.0,1388.7 1277.0,1374.9 1254.0,1361.1 1231.0,1347.3 1208.0,1333.7 1185.0,1320.1 1162.0,1306.5 1138.9,1293.1 1115.9,1279.7 1092.9,1266.3 1069.9,1253.0 1046.9,1239.8  A 522.500,522.500 0.00 0,1 1064.6,1211.1 L 1064.6,1211.1 1086.8,1225.9 1109.1,1240.6 1131.4,1255.3 1153.7,1270.0 1176.0,1284.7 1198.4,1299.4 1220.8,1314.1 1243.2,1328.7 1265.7,1343.3 1288.1,1358.0 1310.6,1372.6 1333.1,1387.1 1355.7,1401.7 1378.2,1416.2 1400.8,1430.7 1423.4,1445.2 1446.1,1459.7 1468.7,1474.1 1491.4,1488.5 1514.0,1502.9 1536.7,1517.3 1559.5,1531.6 1582.2,1545.9 1604.9,1560.2 1627.7,1574.4 1650.4,1588.7 1673.2,1602.8 1696.0,1617.0 1718.8,1631.1 1741.6,1645.2 1764.4,1659.3 1787.2,1673.3 1810.0,1687.3 1832.8,1701.3 1855.7,1715.2 1878.5,1729.2 1901.3,1743.0 1924.1,1756.9 1946.9,1770.7  Z" style="stroke-width: 0.5;  stroke: rgb(0,0,0); fill: rgb(179,177,178);" />
<path d="M 1978.858,1709.049 A 522.500,522.500 0.00 0,1 1971.6,1725.0 L 1971.6,1725.0 1947.8,1713.6 1924.0,1702.1 1900.2,1690.5 1876.4,1678.9 1852.5,1667.1 1828.7,1655.2 1804.9,1643.2 1781.0,1631.1 1757.2,1619.0 1733.4,1606.7 1709.6,1594.3 1685.8,1581.8 1662.1,1569.2 1638.4,1556.5 1614.7,1543.7 1591.0,1530.7 1567.4,1517.7 1543.9,1504.6 1520.4,1491.4 1496.9,1478.1 1473.5,1464.7 1450.2,1451.2 1426.9,1437.6 1403.7,1424.0 1380.5,1410.2 1357.5,1396.4 1334.5,1382.5 1311.5,1368.5 1288.7,1354.4 1265.9,1340.3 1243.2,1326.1 1220.6,1311.8 1198.1,1297.5 1175.7,1283.1 1153.4,1268.7 1131.1,1254.3 1108.9,1239.8 1086.9,1225.2 1064.9,1210.7  A 522.500,522.500 0.00 0,1 1075.1,1196.0 L 1075.1,1196.0 1096.3,1211.1 1117.8,1226.3 1139.4,1241.4 1161.1,1256.4 1182.9,1271.3 1204.9,1286.2 1227.0,1301.0 1249.2,1315.8 1271.5,1330.4 1294.0,1345.0 1316.6,1359.4 1339.3,1373.8 1362.1,1388.0 1385.0,1402.1 1408.0,1416.1 1431.2,1429.9 1454.4,1443.7 1477.7,1457.3 1501.1,1470.7 1524.6,1484.1 1548.1,1497.3 1571.7,1510.3 1595.4,1523.2 1619.2,1535.9 1643.0,1548.5 1666.9,1561.0 1690.8,1573.3 1714.7,1585.4 1738.7,1597.4 1762.7,1609.3 1786.7,1620.9 1810.8,1632.5 1834.8,1643.8 1858.9,1655.1 1882.9,1666.2 1906.9,1677.1 1930.9,1687.9 1954.9,1698.5 1978.9,1709.0  Z" style="stroke-width: 0.5;  stroke: rgb(0,0,0); fill: rgb(179,177,178);" />
<path d="M 1874.178,1864.688 A 522.500,522.500 0.00 0,1 1865.3,1873.6 L 1865.3,1873.6 1847.4,1855.4 1829.2,1837.3 1810.8,1819.2 1792.1,1801.2 1773.1,1783.3 1753.9,1765.6 1734.4,1747.9 1714.7,1730.4 1694.8,1713.0 1674.5,1695.8 1654.1,1678.8 1633.4,1661.9 1612.5,1645.3 1591.4,1628.9 1570.0,1612.6 1548.4,1596.7 1526.7,1580.9 1504.7,1565.4 1482.5,1550.2 1460.2,1535.2 1437.7,1520.4 1415.0,1506.0 1392.2,1491.8 1369.2,1477.9 1346.1,1464.3 1322.9,1451.0 1299.6,1437.9 1276.2,1425.1 1252.7,1412.7 1229.1,1400.5 1205.4,1388.6 1181.7,1377.0 1158.0,1365.7 1134.3,1354.6 1110.5,1343.9 1086.8,1333.4 1063.1,1323.1 1039.5,1313.2 1015.9,1303.5  A 522.500,522.500 0.00 0,1 1020.7,1292.0 L 1020.7,1292.0 1044.2,1302.3 1067.8,1312.8 1091.4,1323.6 1115.0,1334.6 1138.6,1345.8 1162.2,1357.4 1185.8,1369.1 1209.4,1381.1 1232.9,1393.4 1256.4,1406.0 1279.8,1418.7 1303.2,1431.8 1326.4,1445.1 1349.6,1458.6 1372.6,1472.4 1395.6,1486.5 1418.4,1500.8 1441.0,1515.3 1463.6,1530.1 1485.9,1545.1 1508.2,1560.4 1530.2,1575.8 1552.1,1591.5 1573.8,1607.4 1595.3,1623.5 1616.6,1639.8 1637.7,1656.3 1658.6,1673.0 1679.4,1689.8 1699.8,1706.8 1720.1,1723.9 1740.2,1741.1 1760.0,1758.5 1779.6,1776.0 1799.0,1793.6 1818.1,1811.3 1837.1,1829.0 1855.7,1846.8 1874.2,1864.7  Z" style="stroke-width: 0.5;  stroke: rgb(0,0,0); fill: rgb(179,177,178);" />
<path d="M 1988.896,1684.356 A 522.500,522.500 0.00 0,1 1984.6,1695.2 L 1984.6,1695.2 1960.7,1685.5 1936.7,1675.6 1912.6,1665.5 1888.5,1655.1 1864.4,1644.6 1840.3,1633.9 1816.1,1622.9 1792.0,1611.8 1768.0,1600.4 1743.9,1588.8 1719.9,1577.0 1695.9,1565.0 1672.0,1552.8 1648.2,1540.4 1624.4,1527.8 1600.7,1514.9 1577.1,1501.9 1553.6,1488.6 1530.2,1475.1 1507.0,1461.5 1483.8,1447.6 1460.8,1433.6 1437.8,1419.4 1415.1,1405.0 1392.4,1390.4 1370.0,1375.6 1347.6,1360.7 1325.5,1345.7 1303.5,1330.4 1281.6,1315.1 1259.9,1299.6 1238.5,1284.0 1217.1,1268.3 1196.0,1252.5 1175.0,1236.6 1154.3,1220.6 1133.7,1204.5 1113.3,1188.4 1093.1,1172.2  A 522.500,522.500 0.00 0,1 1100.3,1163.4 L 1100.3,1163.4 1120.1,1179.9 1140.0,1196.4 1160.2,1212.8 1180.6,1229.1 1201.2,1245.3 1222.0,1261.4 1243.0,1277.4 1264.3,1293.3 1285.7,1309.0 1307.3,1324.6 1329.1,1340.0 1351.1,1355.3 1373.3,1370.4 1395.6,1385.2 1418.1,1399.9 1440.8,1414.4 1463.7,1428.7 1486.6,1442.8 1509.8,1456.7 1533.0,1470.3 1556.4,1483.7 1579.9,1496.9 1603.6,1509.9 1627.3,1522.6 1651.1,1535.0 1675.0,1547.3 1699.0,1559.2 1723.1,1571.0 1747.2,1582.5 1771.3,1593.7 1795.5,1604.7 1819.7,1615.5 1843.9,1626.0 1868.2,1636.3 1892.4,1646.4 1916.6,1656.2 1940.7,1665.8 1964.8,1675.2 1988.9,1684.4  Z" style="stroke-width: 0.5;  stroke: rgb(0,0,0); fill: rgb(179,177,178);" />
<path d="M 1983.063,1699.140 A 522.500,522.500 0.00 0,1 1978.9,1709.0 L 1978.9,1709.0 1955.0,1698.6 1931.1,1687.9 1907.1,1677.1 1883.2,1666.2 1859.2,1655.1 1835.2,1643.8 1811.2,1632.3 1787.2,1620.7 1763.3,1608.9 1739.3,1597.0 1715.4,1584.9 1691.5,1572.6 1667.7,1560.2 1644.0,1547.5 1620.2,1534.8 1596.6,1521.8 1573.0,1508.7 1549.5,1495.4 1526.1,1482.0 1502.7,1468.4 1479.5,1454.7 1456.4,1440.8 1433.3,1426.8 1410.4,1412.6 1387.5,1398.3 1364.8,1383.9 1342.2,1369.3 1319.8,1354.7 1297.4,1339.9 1275.2,1324.9 1253.1,1309.9 1231.2,1294.8 1209.4,1279.6 1187.7,1264.3 1166.2,1249.0 1144.9,1233.6 1123.6,1218.1 1102.6,1202.5 1081.7,1187.0  A 522.500,522.500 0.00 0,1 1088.3,1178.2 L 1088.3,1178.2 1108.8,1194.2 1129.5,1210.0 1150.3,1225.8 1171.3,1241.6 1192.5,1257.3 1213.9,1272.9 1235.4,1288.4 1257.1,1303.7 1278.9,1319.0 1301.0,1334.2 1323.1,1349.2 1345.4,1364.1 1367.9,1378.8 1390.5,1393.4 1413.2,1407.8 1436.1,1422.1 1459.1,1436.2 1482.2,1450.2 1505.4,1463.9 1528.7,1477.5 1552.1,1490.9 1575.7,1504.1 1599.3,1517.1 1623.0,1530.0 1646.8,1542.6 1670.6,1555.1 1694.5,1567.3 1718.5,1579.4 1742.5,1591.2 1766.5,1602.9 1790.6,1614.3 1814.7,1625.6 1838.8,1636.7 1862.9,1647.6 1887.0,1658.2 1911.1,1668.7 1935.1,1679.1 1959.1,1689.2 1983.1,1699.1  Z" style="stroke-width: 0.5;  stroke: rgb(0,0,0); fill: rgb(179,177,178);" />
</g>
<g id="plot0">
<g id="plot0-axis">
</g>
<line x1='1921.7' y1='2120.2' x2='1921.7' y2='2120.2' style="stroke-width:14.0;stroke:rgb(0,0,0);stroke-linecap:round;fill:none;" />
<line x1='1921.7' y1='2120.2' x2='1944.1' y2='2153.3' style="stroke-width:14.0;stroke:rgb(0,0,0);stroke-linecap:round;fill:none;" />
<line x1='1944.1' y1='2153.3' x2='1944.1' y2='2153.3' style="stroke-width:14.0;stroke:rgb(0,0,0);stroke-linecap:round;fill:none;" />
<text x="1937.0" y="2182.0" font-size="46.8px" font-family="CMUBright-Roman" style="text-anchor:start;fill:rgb(255,38,78);" transform="rotate(55.8,1937.0,2182.0)" >Histocap388p11<tspan baseline-shift="-40%" font-size="90%">s</tspan>02109</text>
</g>
<defs>
<pattern id="hline-sparse" width="10" height="10" patternTransform="rotate(0 0 0)" patternUnits="userSpaceOnUse"><line x1="0" y1="0" x2="10" y2="0" style="stroke:black;stroke-width:2" /></pattern>
<pattern id="vline" width="10" height="10" patternTransform="rotate(0 0 0)" patternUnits="userSpaceOnUse"><line x1="0" y1="0" x2="0" y2="10" style="stroke:black;stroke-width:5" /></pattern>
<pattern id="checker" width="10" height="10" patternTransform="rotate(45 0 0)" patternUnits="userSpaceOnUse"><line x1="0" y1="0" x2="10" y2="0" style="stroke:black;stroke-width:2" /><line x1="0" y1="0" x2="0" y2="10" style="stroke:black;stroke-width:2" /></pattern>
<pattern id="hline" width="10" height="10" patternTransform="rotate(0 0 0)" patternUnits="userSpaceOnUse"><line x1="0" y1="0" x2="10" y2="0" style="stroke:black;stroke-width:5" /></pattern>
<pattern id="vline-sparse" width="10" height="10" patternTransform="rotate(0 0 0)" patternUnits="userSpaceOnUse"><line x1="0" y1="0" x2="0" y2="10" style="stroke:black;stroke-width:2" /></pattern>
<pattern id="checker" width="10" height="10" patternTransform="rotate(45 0 0)" patternUnits="userSpaceOnUse"><line x1="0" y1="0" x2="10" y2="0" style="stroke:black;stroke-width:5" /><line x1="0" y1="0" x2="0" y2="10" style="stroke:black;stroke-width:4" /></pattern>
</defs>
</svg>
