<?xml version="1.0" encoding="utf-8" standalone="no"?>
<!DOCTYPE svg PUBLIC "-//W3C//DTD SVG 1.1//EN" "http://www.w3.org/Graphics/SVG/1.1/DTD/svg11.dtd">
<svg width="3000px" height="3000px" version="1.1" xmlns="http://www.w3.org/2000/svg" xmlns:xlink="http://www.w3.org/1999/xlink">
<g id="bg">
<rect x="0" y="0" width="3000px" height="3000px" style="fill:rgb(255,255,255);"/>
</g>
<g id="ideograms">
<path d="M1500.000,950.000 A550.000,550.000 40.000 0,1 1649.310,2029.345 L1703.605,2221.834 A750.000,750.000 0.000 0,0 1500.000,750.000 Z" style="stroke-width:2.0;stroke:rgb(0,0,0);stroke-linecap:round;fill:rgb(179,177,178);" />
<text x="2465.8" y="1366.4" font-size="46.8px" font-family="CMUBright-Roman" style="text-anchor:middle;fill:rgb(0,0,0);" transform="rotate(442.1,2465.8,1366.4)" >HistocapWGSS14<tspan baseline-shift="-40%" font-size="90%">6</tspan></text>
<line x1='1525.1' y1='750.4' x2='1525.5' y2='738.4' style="stroke-width:8.0;stroke:rgb(150,150,150);stroke-linecap:round;fill:none;" />
<line x1='1623.1' y1='760.2' x2='1625.0' y2='748.3' style="stroke-width:8.0;stroke:rgb(150,150,150);stroke-linecap:round;fill:none;" />
<line x1='1718.9' y1='782.7' x2='1722.5' y2='771.2' style="stroke-width:8.0;stroke:rgb(150,150,150);stroke-linecap:round;fill:none;" />
<line x1='1811.0' y1='817.5' x2='1816.0' y2='806.6' style="stroke-width:8.0;stroke:rgb(150,150,150);stroke-linecap:round;fill:none;" />
<line x1='1897.8' y1='864.2' x2='1904.1' y2='854.0' style="stroke-width:8.0;stroke:rgb(150,150,150);stroke-linecap:round;fill:none;" />
<text x="1922.3" y="851.4" font-size="41.6px" font-family="CMUBright-Roman" style="text-anchor:start;fill:rgb(150,150,150);" transform="rotate(302.0,1922.3,851.4)" >2200 kb</text>
<line x1='1977.7' y1='921.8' x2='1985.3' y2='912.5' style="stroke-width:8.0;stroke:rgb(150,150,150);stroke-linecap:round;fill:none;" />
<line x1='2049.3' y1='989.3' x2='2058.1' y2='981.2' style="stroke-width:8.0;stroke:rgb(150,150,150);stroke-linecap:round;fill:none;" />
<line x1='2111.5' y1='1065.7' x2='2121.3' y2='1058.8' style="stroke-width:8.0;stroke:rgb(150,150,150);stroke-linecap:round;fill:none;" />
<line x1='2163.1' y1='1149.6' x2='2173.7' y2='1144.0' style="stroke-width:8.0;stroke:rgb(150,150,150);stroke-linecap:round;fill:none;" />
<line x1='2203.3' y1='1239.5' x2='2214.6' y2='1235.3' style="stroke-width:8.0;stroke:rgb(150,150,150);stroke-linecap:round;fill:none;" />
<text x="2230.6" y="1244.3" font-size="41.6px" font-family="CMUBright-Roman" style="text-anchor:start;fill:rgb(150,150,150);" transform="rotate(339.7,2230.6,1244.3)" >2250 kb</text>
<line x1='2231.4' y1='1333.9' x2='2243.1' y2='1331.2' style="stroke-width:8.0;stroke:rgb(150,150,150);stroke-linecap:round;fill:none;" />
<line x1='2246.8' y1='1431.1' x2='2258.8' y2='1430.0' style="stroke-width:8.0;stroke:rgb(150,150,150);stroke-linecap:round;fill:none;" />
<line x1='2249.4' y1='1529.6' x2='2261.4' y2='1530.1' style="stroke-width:8.0;stroke:rgb(150,150,150);stroke-linecap:round;fill:none;" />
<line x1='2239.1' y1='1627.5' x2='2250.9' y2='1629.6' style="stroke-width:8.0;stroke:rgb(150,150,150);stroke-linecap:round;fill:none;" />
<line x1='2216.0' y1='1723.3' x2='2227.5' y2='1726.8' style="stroke-width:8.0;stroke:rgb(150,150,150);stroke-linecap:round;fill:none;" />
<text x="2234.6" y="1743.7" font-size="41.6px" font-family="CMUBright-Roman" style="text-anchor:start;fill:rgb(150,150,150);" transform="rotate(17.3,2234.6,1743.7)" >2300 kb</text>
<line x1='2180.6' y1='1815.1' x2='2191.5' y2='1820.2' style="stroke-width:8.0;stroke:rgb(150,150,150);stroke-linecap:round;fill:none;" />
<line x1='2133.4' y1='1901.6' x2='2143.6' y2='1908.0' style="stroke-width:8.0;stroke:rgb(150,150,150);stroke-linecap:round;fill:none;" />
<line x1='2075.3' y1='1981.1' x2='2084.5' y2='1988.8' style="stroke-width:8.0;stroke:rgb(150,150,150);stroke-linecap:round;fill:none;" />
<line x1='2007.3' y1='2052.4' x2='2015.5' y2='2061.2' style="stroke-width:8.0;stroke:rgb(150,150,150);stroke-linecap:round;fill:none;" />
<line x1='1930.6' y1='2114.1' x2='1937.5' y2='2123.9' style="stroke-width:8.0;stroke:rgb(150,150,150);stroke-linecap:round;fill:none;" />
<text x="1932.8" y="2141.7" font-size="41.6px" font-family="CMUBright-Roman" style="text-anchor:start;fill:rgb(150,150,150);" transform="rotate(55.0,1932.8,2141.7)" >2350 kb</text>
<line x1='1846.4' y1='2165.2' x2='1852.0' y2='2175.8' style="stroke-width:8.0;stroke:rgb(150,150,150);stroke-linecap:round;fill:none;" />
<line x1='1756.3' y1='2204.9' x2='1760.4' y2='2216.1' style="stroke-width:8.0;stroke:rgb(150,150,150);stroke-linecap:round;fill:none;" />
<g id="highlighttrack_0">
<path d="M2031.966,1360.314 A550.000,550.000 40.000 0,1 2049.910,1490.025 L2249.877,1486.398 A750.000,750.000 0.000 0,0 2225.408,1309.519 Z" style="stroke-width:14.0;stroke:rgb(0,0,0);stroke-linecap:round;fill:rgb(255,38,78);" />
</g>
<path d="M1500.000,950.000 A550.000,550.000 40.000 0,1 1649.310,2029.345 L1703.605,2221.834 A750.000,750.000 0.000 0,0 1500.000,750.000 Z" style="stroke-width:2.0;stroke:rgb(0,0,0);stroke-linecap:round;fill:none;" />
<path d="M1434.552,2046.092 A550.000,550.000 40.000 0,1 1288.760,992.183 L1211.946,807.523 A750.000,750.000 0.000 0,0 1410.753,2244.671 Z" style="stroke-width:2.0;stroke:rgb(0,0,0);stroke-linecap:round;fill:rgb(179,177,178);" />
<text x="490.6" y="1639.6" font-size="46.8px" font-family="CMUBright-Roman" style="text-anchor:middle;fill:rgb(0,0,0);" transform="rotate(82.1,490.6,1639.6)" >HistocapHISSP11571<tspan baseline-shift="-40%" font-size="90%">6</tspan></text>
<line x1='1191.9' y1='816.2' x2='1187.0' y2='805.3' style="stroke-width:8.0;stroke:rgb(150,150,150);stroke-linecap:round;fill:none;" />
<line x1='1105.0' y1='862.5' x2='1098.7' y2='852.3' style="stroke-width:8.0;stroke:rgb(150,150,150);stroke-linecap:round;fill:none;" />
<line x1='1024.9' y1='919.7' x2='1017.2' y2='910.4' style="stroke-width:8.0;stroke:rgb(150,150,150);stroke-linecap:round;fill:none;" />
<text x="998.9" y="910.1" font-size="41.6px" font-family="CMUBright-Roman" style="text-anchor:end;fill:rgb(150,150,150);" transform="rotate(50.7,998.9,910.1)" >1150 kb</text>
<line x1='952.9' y1='987.0' x2='944.2' y2='978.8' style="stroke-width:8.0;stroke:rgb(150,150,150);stroke-linecap:round;fill:none;" />
<line x1='890.4' y1='1063.1' x2='880.7' y2='1056.1' style="stroke-width:8.0;stroke:rgb(150,150,150);stroke-linecap:round;fill:none;" />
<line x1='838.4' y1='1146.7' x2='827.8' y2='1141.1' style="stroke-width:8.0;stroke:rgb(150,150,150);stroke-linecap:round;fill:none;" />
<line x1='797.8' y1='1236.4' x2='786.6' y2='1232.2' style="stroke-width:8.0;stroke:rgb(150,150,150);stroke-linecap:round;fill:none;" />
<line x1='769.4' y1='1330.7' x2='757.7' y2='1328.0' style="stroke-width:8.0;stroke:rgb(150,150,150);stroke-linecap:round;fill:none;" />
<text x="742.9" y="1339.0" font-size="41.6px" font-family="CMUBright-Roman" style="text-anchor:end;fill:rgb(150,150,150);" transform="rotate(13.0,742.9,1339.0)" >1200 kb</text>
<line x1='753.5' y1='1427.9' x2='741.5' y2='1426.7' style="stroke-width:8.0;stroke:rgb(150,150,150);stroke-linecap:round;fill:none;" />
<line x1='750.5' y1='1526.3' x2='738.5' y2='1526.8' style="stroke-width:8.0;stroke:rgb(150,150,150);stroke-linecap:round;fill:none;" />
<line x1='760.4' y1='1624.3' x2='748.5' y2='1626.3' style="stroke-width:8.0;stroke:rgb(150,150,150);stroke-linecap:round;fill:none;" />
<line x1='783.0' y1='1720.2' x2='771.6' y2='1723.7' style="stroke-width:8.0;stroke:rgb(150,150,150);stroke-linecap:round;fill:none;" />
<line x1='818.1' y1='1812.2' x2='807.2' y2='1817.2' style="stroke-width:8.0;stroke:rgb(150,150,150);stroke-linecap:round;fill:none;" />
<text x="802.2" y="1834.9" font-size="41.6px" font-family="CMUBright-Roman" style="text-anchor:end;fill:rgb(150,150,150);" transform="rotate(-24.6,802.2,1834.9)" >1250 kb</text>
<line x1='864.8' y1='1898.8' x2='854.7' y2='1905.2' style="stroke-width:8.0;stroke:rgb(150,150,150);stroke-linecap:round;fill:none;" />
<line x1='922.6' y1='1978.6' x2='913.3' y2='1986.3' style="stroke-width:8.0;stroke:rgb(150,150,150);stroke-linecap:round;fill:none;" />
<line x1='990.3' y1='2050.2' x2='982.1' y2='2059.0' style="stroke-width:8.0;stroke:rgb(150,150,150);stroke-linecap:round;fill:none;" />
<line x1='1066.7' y1='2112.2' x2='1059.8' y2='2122.0' style="stroke-width:8.0;stroke:rgb(150,150,150);stroke-linecap:round;fill:none;" />
<line x1='1150.7' y1='2163.7' x2='1145.1' y2='2174.3' style="stroke-width:8.0;stroke:rgb(150,150,150);stroke-linecap:round;fill:none;" />
<text x="1152.0" y="2191.3" font-size="41.6px" font-family="CMUBright-Roman" style="text-anchor:end;fill:rgb(150,150,150);" transform="rotate(-62.2,1152.0,2191.3)" >1300 kb</text>
<line x1='1240.7' y1='2203.7' x2='1236.5' y2='2215.0' style="stroke-width:8.0;stroke:rgb(150,150,150);stroke-linecap:round;fill:none;" />
<line x1='1335.1' y1='2231.6' x2='1332.5' y2='2243.4' style="stroke-width:8.0;stroke:rgb(150,150,150);stroke-linecap:round;fill:none;" />
<path d="M1434.552,2046.092 A550.000,550.000 40.000 0,1 1288.760,992.183 L1211.946,807.523 A750.000,750.000 0.000 0,0 1410.753,2244.671 Z" style="stroke-width:2.0;stroke:rgb(0,0,0);stroke-linecap:round;fill:none;" />
</g>
<g id="track_0">
<path d="M 2022.482,1504.303 A 522.500,522.500 0.00 0,1 1994.8,1667.8 L 1994.8,1667.8 1971.8,1660.2 1948.4,1652.9 1924.7,1645.9 1900.7,1639.3 1876.5,1633.2 1852.0,1627.4 1827.3,1622.1 1802.4,1617.3 1777.3,1612.9 1752.0,1609.1 1726.6,1605.8 1701.1,1603.1 1675.5,1600.9 1649.8,1599.4 1624.0,1598.4 1598.2,1597.9 1572.4,1598.1 1546.6,1598.9 1520.8,1600.3 1495.0,1602.4 1469.3,1605.0 1443.7,1608.2 1418.2,1612.0 1392.8,1616.4 1367.5,1621.4 1342.3,1627.0 1317.4,1633.1 1292.6,1639.8 1268.0,1647.0 1243.7,1654.7 1219.5,1662.8 1195.7,1671.5 1172.1,1680.6 1148.8,1690.1 1125.8,1700.0 1103.2,1710.2 1080.8,1720.8 1058.9,1731.6 1037.3,1742.7  A 522.500,522.500 0.00 0,1 984.6,1585.8 L 984.6,1585.8 1010.5,1581.5 1036.5,1577.3 1062.6,1573.2 1088.7,1569.2 1115.0,1565.3 1141.3,1561.5 1167.7,1557.8 1194.1,1554.2 1220.7,1550.7 1247.2,1547.3 1273.9,1544.0 1300.5,1540.9 1327.3,1537.9 1354.0,1535.0 1380.8,1532.2 1407.6,1529.6 1434.5,1527.1 1461.3,1524.7 1488.2,1522.4 1515.1,1520.3 1542.0,1518.3 1568.9,1516.5 1595.9,1514.8 1622.8,1513.2 1649.7,1511.8 1676.5,1510.4 1703.4,1509.3 1730.2,1508.2 1757.0,1507.3 1783.8,1506.5 1810.6,1505.8 1837.2,1505.2 1863.9,1504.8 1890.5,1504.4 1917.0,1504.2 1943.5,1504.1 1969.9,1504.1 1996.2,1504.1 2022.5,1504.3  Z" style="stroke-width: 0.5;  stroke: rgb(0,0,0); fill: rgb(179,177,178);" />
<path d="M 1774.921,1944.325 A 522.500,522.500 0.00 0,1 1646.1,2001.6 L 1646.1,2001.6 1640.4,1982.3 1634.5,1963.1 1628.4,1944.2 1622.2,1925.8 1615.8,1907.9 1609.4,1890.8 1602.9,1874.5 1596.3,1859.1 1589.7,1844.6 1583.1,1831.3 1576.5,1819.1 1569.9,1808.2 1563.3,1798.5 1556.8,1790.3 1550.3,1783.4 1543.9,1777.9 1537.6,1773.9 1531.4,1771.4 1525.3,1770.3 1519.3,1770.8 1513.4,1772.8 1507.7,1776.3 1502.1,1781.3 1496.7,1787.8 1491.4,1795.6 1486.3,1804.9 1481.4,1815.5 1476.7,1827.3 1472.2,1840.4 1467.8,1854.7 1463.7,1870.0 1459.7,1886.3 1456.0,1903.4 1452.4,1921.4 1449.1,1940.0 1446.0,1959.2 1443.0,1978.8 1440.3,1998.7 1437.8,2018.8  A 522.500,522.500 0.00 0,1 1397.4,2012.3 L 1397.4,2012.3 1401.6,1992.2 1406.2,1972.2 1411.2,1952.5 1416.5,1933.1 1422.2,1914.3 1428.3,1896.1 1434.7,1878.7 1441.6,1862.0 1448.8,1846.3 1456.4,1831.5 1464.3,1817.8 1472.6,1805.3 1481.3,1793.9 1490.3,1783.8 1499.6,1774.9 1509.3,1767.4 1519.2,1761.3 1529.5,1756.5 1540.0,1753.2 1550.8,1751.2 1561.9,1750.7 1573.2,1751.6 1584.6,1753.9 1596.3,1757.5 1608.1,1762.5 1620.1,1768.9 1632.2,1776.5 1644.4,1785.4 1656.6,1795.4 1668.8,1806.6 1681.1,1818.9 1693.3,1832.1 1705.4,1846.2 1717.5,1861.1 1729.4,1876.8 1741.1,1893.0 1752.7,1909.8 1763.9,1926.9 1774.9,1944.3  Z" style="stroke-width: 0.5;  stroke: rgb(0,0,0); fill: rgb(179,177,178);" />
<path d="M 1556.163,980.527 A 522.500,522.500 0.00 0,1 1657.4,1001.8 L 1657.4,1001.8 1650.8,1021.8 1643.7,1041.7 1636.2,1061.4 1628.2,1080.7 1619.7,1099.5 1610.7,1117.7 1601.2,1135.3 1591.3,1152.2 1580.9,1168.2 1570.0,1183.4 1558.7,1197.6 1546.9,1210.7 1534.7,1222.8 1522.0,1233.8 1509.0,1243.6 1495.5,1252.2 1481.7,1259.5 1467.5,1265.6 1453.0,1270.5 1438.1,1274.0 1423.0,1276.3 1407.6,1277.3 1391.9,1277.0 1376.0,1275.4 1359.9,1272.5 1343.7,1268.5 1327.3,1263.2 1310.9,1256.8 1294.3,1249.3 1277.8,1240.7 1261.2,1231.1 1244.7,1220.6 1228.3,1209.2 1212.1,1196.9 1196.0,1184.0 1180.1,1170.4 1164.5,1156.3 1149.2,1141.7 1134.3,1126.8  A 522.500,522.500 0.00 0,1 1215.1,1062.0 L 1215.1,1062.0 1226.4,1079.1 1237.9,1095.9 1249.7,1112.4 1261.7,1128.3 1273.7,1143.6 1285.9,1158.2 1298.0,1172.0 1310.2,1184.9 1322.3,1196.7 1334.4,1207.6 1346.4,1217.3 1358.2,1225.8 1369.8,1233.0 1381.3,1239.0 1392.5,1243.7 1403.5,1246.9 1414.2,1248.8 1424.6,1249.3 1434.7,1248.4 1444.5,1246.1 1453.9,1242.3 1463.0,1237.2 1471.7,1230.6 1480.0,1222.7 1487.9,1213.5 1495.4,1203.0 1502.5,1191.3 1509.2,1178.3 1515.5,1164.3 1521.4,1149.2 1526.8,1133.1 1531.9,1116.1 1536.5,1098.3 1540.7,1079.8 1544.6,1060.7 1548.0,1041.1 1551.1,1021.1 1553.8,1000.9 1556.2,980.5  Z" style="stroke-width: 0.5;  stroke: rgb(0,0,0); fill: rgb(179,177,178);" />
<path d="M 1674.163,1007.381 A 522.500,522.500 0.00 0,1 1748.8,1040.5 L 1748.8,1040.5 1738.2,1059.5 1727.1,1078.3 1715.5,1096.8 1703.4,1114.9 1690.8,1132.5 1677.7,1149.6 1664.1,1166.1 1650.0,1181.9 1635.5,1196.9 1620.6,1211.1 1605.2,1224.4 1589.4,1236.7 1573.2,1248.1 1556.7,1258.4 1539.8,1267.7 1522.5,1275.9 1505.0,1282.9 1487.1,1288.9 1469.0,1293.6 1450.7,1297.2 1432.1,1299.7 1413.4,1300.9 1394.4,1301.0 1375.4,1299.9 1356.2,1297.7 1337.0,1294.4 1317.7,1290.0 1298.4,1284.5 1279.2,1278.0 1260.0,1270.6 1240.9,1262.2 1221.9,1252.9 1203.1,1242.7 1184.5,1231.9 1166.2,1220.3 1148.1,1208.1 1130.4,1195.4 1113.0,1182.2 1096.0,1168.6  A 522.500,522.500 0.00 0,1 1152.7,1109.6 L 1152.7,1109.6 1166.9,1125.2 1181.4,1140.5 1196.3,1155.3 1211.5,1169.6 1226.9,1183.3 1242.5,1196.3 1258.3,1208.4 1274.2,1219.7 1290.2,1230.1 1306.2,1239.4 1322.2,1247.7 1338.3,1254.8 1354.2,1260.8 1370.1,1265.6 1385.9,1269.2 1401.5,1271.5 1417.0,1272.5 1432.3,1272.2 1447.3,1270.6 1462.1,1267.7 1476.7,1263.5 1490.9,1258.0 1504.9,1251.2 1518.5,1243.2 1531.8,1233.9 1544.7,1223.5 1557.2,1211.9 1569.3,1199.2 1581.1,1185.5 1592.4,1170.8 1603.3,1155.2 1613.7,1138.7 1623.7,1121.5 1633.3,1103.6 1642.4,1085.1 1651.0,1066.2 1659.2,1046.8 1666.9,1027.2 1674.2,1007.4  Z" style="stroke-width: 0.5;  stroke: rgb(0,0,0); fill: rgb(179,177,178);" />
<path d="M 1500.000,977.500 A 522.500,522.500 0.00 0,1 1556.2,980.5 L 1556.2,980.5 1553.9,1000.9 1551.1,1021.1 1548.1,1041.1 1544.6,1060.7 1540.8,1079.8 1536.6,1098.3 1532.0,1116.1 1526.9,1133.0 1521.5,1149.1 1515.7,1164.2 1509.4,1178.2 1502.7,1191.2 1495.7,1202.9 1488.2,1213.4 1480.3,1222.5 1472.0,1230.4 1463.4,1236.9 1454.3,1242.0 1445.0,1245.8 1435.2,1248.1 1425.2,1248.9 1414.8,1248.4 1404.2,1246.5 1393.2,1243.2 1382.1,1238.5 1370.7,1232.5 1359.1,1225.1 1347.4,1216.6 1335.5,1206.9 1323.5,1196.0 1311.4,1184.1 1299.3,1171.1 1287.2,1157.3 1275.2,1142.7 1263.2,1127.3 1251.3,1111.3 1239.6,1094.8 1228.1,1078.0 1216.9,1060.9  A 522.500,522.500 0.00 0,1 1286.6,1023.1 L 1286.6,1023.1 1295.0,1041.5 1303.5,1059.7 1312.1,1077.6 1320.9,1095.0 1329.6,1111.8 1338.4,1127.9 1347.2,1143.2 1355.9,1157.5 1364.5,1170.9 1373.0,1183.2 1381.3,1194.4 1389.5,1204.3 1397.5,1213.0 1405.3,1220.3 1412.8,1226.2 1420.1,1230.8 1427.2,1233.9 1433.9,1235.5 1440.4,1235.7 1446.5,1234.4 1452.3,1231.6 1457.8,1227.3 1463.0,1221.6 1467.8,1214.5 1472.2,1206.0 1476.3,1196.1 1480.1,1185.0 1483.5,1172.6 1486.6,1159.0 1489.3,1144.3 1491.7,1128.5 1493.8,1111.8 1495.5,1094.3 1497.0,1076.0 1498.1,1057.1 1499.0,1037.7 1499.6,1017.8 1499.9,997.7 1500.0,977.5  Z" style="stroke-width: 0.5;  stroke: rgb(0,0,0); fill: rgb(179,177,178);" />
<path d="M 1839.334,1897.314 A 522.500,522.500 0.00 0,1 1778.0,1942.4 L 1778.0,1942.4 1766.9,1925.0 1755.5,1908.0 1743.8,1891.3 1732.0,1875.1 1719.9,1859.5 1707.7,1844.7 1695.4,1830.6 1683.0,1817.5 1670.6,1805.3 1658.2,1794.2 1645.8,1784.2 1633.5,1775.4 1621.2,1767.8 1609.1,1761.5 1597.1,1756.6 1585.2,1753.0 1573.6,1750.7 1562.1,1749.9 1550.9,1750.5 1539.9,1752.4 1529.2,1755.8 1518.7,1760.6 1508.6,1766.8 1498.8,1774.3 1489.3,1783.2 1480.1,1793.3 1471.2,1804.7 1462.8,1817.2 1454.7,1830.9 1446.9,1845.7 1439.5,1861.4 1432.5,1878.1 1425.9,1895.5 1419.7,1913.7 1413.8,1932.5 1408.4,1951.8 1403.3,1971.6 1398.5,1991.5 1394.2,2011.7  A 522.500,522.500 0.00 0,1 1321.7,1991.1 L 1321.7,1991.1 1329.1,1971.4 1337.0,1951.9 1345.3,1932.6 1354.1,1913.8 1363.3,1895.4 1373.0,1877.6 1383.1,1860.5 1393.6,1844.2 1404.6,1828.7 1416.0,1814.1 1427.8,1800.6 1439.9,1788.1 1452.5,1776.7 1465.4,1766.4 1478.7,1757.4 1492.2,1749.5 1506.1,1743.0 1520.3,1737.7 1534.8,1733.7 1549.5,1731.1 1564.4,1729.7 1579.5,1729.7 1594.9,1730.9 1610.3,1733.5 1625.9,1737.3 1641.6,1742.4 1657.3,1748.7 1673.1,1756.1 1688.9,1764.7 1704.7,1774.3 1720.4,1784.9 1736.0,1796.5 1751.5,1809.0 1766.8,1822.2 1781.9,1836.2 1796.7,1850.8 1811.3,1865.9 1825.5,1881.5 1839.3,1897.3  Z" style="stroke-width: 0.5;  stroke: rgb(0,0,0); fill: rgb(179,177,178);" />
<path d="M 1876.411,1137.617 A 522.500,522.500 0.00 0,1 1924.5,1195.3 L 1924.5,1195.3 1904.8,1209.2 1884.7,1222.8 1864.1,1236.3 1843.2,1249.4 1821.9,1262.1 1800.3,1274.6 1778.3,1286.6 1755.9,1298.2 1733.2,1309.3 1710.2,1319.9 1687.0,1330.0 1663.4,1339.6 1639.6,1348.6 1615.5,1357.1 1591.2,1365.0 1566.8,1372.2 1542.1,1378.9 1517.2,1384.9 1492.2,1390.3 1467.1,1395.1 1441.9,1399.2 1416.5,1402.7 1391.1,1405.5 1365.7,1407.7 1340.2,1409.3 1314.7,1410.2 1289.3,1410.5 1263.8,1410.2 1238.5,1409.3 1213.2,1407.8 1188.0,1405.7 1163.0,1403.1 1138.1,1400.0 1113.4,1396.4 1088.9,1392.3 1064.6,1387.7 1040.6,1382.7 1016.9,1377.4 993.5,1371.7  A 522.500,522.500 0.00 0,1 1017.2,1300.3 L 1017.2,1300.3 1038.7,1309.0 1060.7,1317.2 1083.0,1325.1 1105.6,1332.4 1128.5,1339.2 1151.7,1345.4 1175.0,1351.0 1198.6,1356.0 1222.3,1360.3 1246.1,1363.9 1270.0,1366.7 1294.0,1368.8 1318.0,1370.1 1342.1,1370.6 1366.1,1370.3 1390.1,1369.1 1414.0,1367.2 1437.8,1364.4 1461.4,1360.8 1485.0,1356.3 1508.4,1351.0 1531.5,1344.9 1554.5,1338.0 1577.2,1330.3 1599.7,1321.8 1621.9,1312.5 1643.8,1302.6 1665.3,1291.9 1686.6,1280.5 1707.4,1268.4 1727.9,1255.8 1748.0,1242.5 1767.7,1228.8 1787.0,1214.5 1805.8,1199.8 1824.2,1184.7 1842.1,1169.3 1859.5,1153.6 1876.4,1137.6  Z" style="stroke-width: 0.5;  stroke: rgb(0,0,0); fill: rgb(179,177,178);" />
<path d="M 1936.439,1212.725 A 522.500,522.500 0.00 0,1 1972.5,1276.9 L 1972.5,1276.9 1949.6,1287.5 1926.6,1297.9 1903.2,1308.2 1879.6,1318.3 1855.7,1328.1 1831.6,1337.7 1807.3,1347.0 1782.7,1356.0 1758.0,1364.7 1733.0,1373.1 1707.9,1381.2 1682.6,1389.0 1657.1,1396.4 1631.4,1403.5 1605.7,1410.2 1579.8,1416.5 1553.8,1422.4 1527.6,1428.0 1501.4,1433.2 1475.1,1438.0 1448.8,1442.4 1422.4,1446.4 1395.9,1450.0 1369.5,1453.2 1343.0,1456.0 1316.5,1458.4 1290.0,1460.4 1263.6,1462.1 1237.2,1463.4 1210.9,1464.3 1184.7,1464.9 1158.5,1465.1 1132.4,1464.9 1106.5,1464.5 1080.7,1463.7 1055.1,1462.6 1029.6,1461.2 1004.3,1459.6 979.2,1457.6  A 522.500,522.500 0.00 0,1 990.3,1384.9 L 990.3,1384.9 1014.1,1390.1 1038.1,1394.9 1062.4,1399.4 1087.0,1403.4 1111.7,1407.1 1136.7,1410.2 1161.8,1413.0 1187.1,1415.2 1212.6,1416.9 1238.1,1418.1 1263.7,1418.7 1289.4,1418.8 1315.1,1418.3 1340.9,1417.2 1366.6,1415.6 1392.4,1413.3 1418.0,1410.5 1443.7,1407.1 1469.2,1403.0 1494.6,1398.4 1520.0,1393.2 1545.2,1387.4 1570.2,1381.0 1595.1,1374.0 1619.7,1366.5 1644.2,1358.4 1668.5,1349.8 1692.5,1340.7 1716.2,1331.0 1739.7,1320.9 1762.9,1310.4 1785.8,1299.4 1808.4,1288.0 1830.6,1276.2 1852.5,1264.1 1874.1,1251.6 1895.3,1238.9 1916.0,1225.9 1936.4,1212.7  Z" style="stroke-width: 0.5;  stroke: rgb(0,0,0); fill: rgb(179,177,178);" />
<path d="M 1818.463,1085.769 A 522.500,522.500 0.00 0,1 1872.6,1133.7 L 1872.6,1133.7 1855.9,1149.8 1838.6,1165.7 1820.9,1181.3 1802.7,1196.5 1784.1,1211.4 1765.0,1225.8 1745.4,1239.7 1725.5,1253.1 1705.2,1265.9 1684.4,1278.1 1663.3,1289.7 1641.9,1300.5 1620.2,1310.6 1598.1,1320.0 1575.8,1328.7 1553.2,1336.5 1530.3,1343.6 1507.2,1349.8 1484.0,1355.2 1460.5,1359.8 1436.9,1363.5 1413.2,1366.4 1389.4,1368.4 1365.5,1369.6 1341.5,1370.0 1317.5,1369.6 1293.6,1368.4 1269.6,1366.4 1245.8,1363.6 1222.0,1360.0 1198.3,1355.8 1174.8,1350.9 1151.5,1345.3 1128.4,1339.1 1105.5,1332.3 1082.9,1325.0 1060.6,1317.2 1038.7,1309.0 1017.2,1300.3  A 522.500,522.500 0.00 0,1 1049.8,1234.8 L 1049.8,1234.8 1069.3,1246.0 1089.2,1256.7 1109.5,1267.1 1130.1,1276.8 1151.0,1286.0 1172.2,1294.6 1193.6,1302.4 1215.2,1309.5 1237.0,1315.8 1258.8,1321.3 1280.8,1325.9 1302.8,1329.6 1324.8,1332.4 1346.8,1334.3 1368.8,1335.1 1390.7,1335.0 1412.5,1333.9 1434.2,1331.8 1455.7,1328.6 1477.0,1324.5 1498.2,1319.4 1519.1,1313.2 1539.7,1306.1 1560.1,1298.0 1580.1,1289.0 1599.9,1279.1 1619.3,1268.3 1638.3,1256.6 1656.9,1244.1 1675.2,1230.9 1693.0,1216.9 1710.4,1202.2 1727.3,1187.0 1743.7,1171.1 1759.7,1154.8 1775.2,1138.0 1790.1,1120.9 1804.6,1103.4 1818.5,1085.8  Z" style="stroke-width: 0.5;  stroke: rgb(0,0,0); fill: rgb(179,177,178);" />
<path d="M 1892.879,1844.459 A 522.500,522.500 0.00 0,1 1847.5,1890.2 L 1847.5,1890.2 1833.3,1874.6 1818.7,1859.3 1803.7,1844.4 1788.5,1830.1 1773.0,1816.4 1757.2,1803.4 1741.4,1791.1 1725.3,1779.8 1709.2,1769.4 1693.0,1760.0 1676.7,1751.6 1660.5,1744.4 1644.3,1738.3 1628.1,1733.5 1612.0,1729.8 1596.1,1727.4 1580.3,1726.3 1564.7,1726.4 1549.3,1727.9 1534.1,1730.7 1519.1,1734.7 1504.4,1740.1 1490.1,1746.7 1476.0,1754.5 1462.2,1763.6 1448.8,1773.9 1435.8,1785.2 1423.1,1797.7 1410.9,1811.3 1399.0,1825.8 1387.5,1841.2 1376.5,1857.4 1365.9,1874.5 1355.8,1892.2 1346.1,1910.5 1336.9,1929.3 1328.1,1948.4 1319.8,1967.9 1312.0,1987.5  A 522.500,522.500 0.00 0,1 1252.3,1960.1 L 1252.3,1960.1 1262.8,1941.1 1273.8,1922.4 1285.3,1904.0 1297.3,1885.9 1309.8,1868.3 1322.8,1851.3 1336.2,1834.9 1350.1,1819.3 1364.5,1804.4 1379.3,1790.4 1394.4,1777.2 1410.0,1765.1 1426.0,1753.9 1442.3,1743.8 1459.0,1734.8 1476.0,1726.8 1493.2,1720.1 1510.8,1714.4 1528.6,1710.0 1546.6,1706.7 1564.8,1704.7 1583.3,1703.8 1601.8,1704.1 1620.5,1705.6 1639.3,1708.3 1658.1,1712.0 1676.9,1716.9 1695.8,1722.9 1714.6,1729.9 1733.4,1737.8 1752.0,1746.8 1770.5,1756.6 1788.8,1767.2 1806.9,1778.6 1824.8,1790.7 1842.4,1803.4 1859.6,1816.7 1876.4,1830.4 1892.9,1844.5  Z" style="stroke-width: 0.5;  stroke: rgb(0,0,0); fill: rgb(179,177,178);" />
<path d="M 1766.397,1050.513 A 522.500,522.500 0.00 0,1 1817.6,1085.1 L 1817.6,1085.1 1803.8,1102.8 1789.4,1120.3 1774.5,1137.4 1759.0,1154.2 1743.1,1170.6 1726.7,1186.5 1709.8,1201.8 1692.5,1216.4 1674.7,1230.4 1656.5,1243.7 1637.9,1256.2 1618.9,1267.9 1599.5,1278.7 1579.8,1288.7 1559.8,1297.7 1539.5,1305.8 1518.9,1312.9 1498.0,1319.0 1476.9,1324.2 1455.6,1328.3 1434.1,1331.4 1412.5,1333.6 1390.7,1334.7 1368.8,1334.8 1346.8,1333.9 1324.9,1332.1 1302.9,1329.3 1280.9,1325.5 1258.9,1320.9 1237.1,1315.4 1215.4,1309.1 1193.8,1302.0 1172.4,1294.1 1151.3,1285.6 1130.4,1276.3 1109.8,1266.5 1089.5,1256.2 1069.6,1245.4 1050.2,1234.2  A 522.500,522.500 0.00 0,1 1084.9,1182.7 L 1084.9,1182.7 1102.4,1195.8 1120.4,1208.5 1138.7,1220.7 1157.4,1232.4 1176.3,1243.5 1195.6,1253.9 1215.0,1263.5 1234.6,1272.3 1254.4,1280.3 1274.2,1287.4 1294.2,1293.5 1314.1,1298.6 1334.1,1302.6 1354.0,1305.7 1373.9,1307.6 1393.6,1308.4 1413.3,1308.1 1432.8,1306.7 1452.1,1304.1 1471.2,1300.4 1490.1,1295.5 1508.7,1289.6 1527.0,1282.5 1545.1,1274.4 1562.8,1265.2 1580.1,1254.9 1597.1,1243.7 1613.7,1231.5 1629.9,1218.4 1645.7,1204.4 1661.0,1189.6 1675.9,1174.1 1690.3,1157.9 1704.3,1141.1 1717.7,1123.7 1730.7,1105.9 1743.1,1087.7 1755.0,1069.2 1766.4,1050.5  Z" style="stroke-width: 0.5;  stroke: rgb(0,0,0); fill: rgb(179,177,178);" />
<path d="M 1984.917,1694.581 A 522.500,522.500 0.00 0,1 1959.3,1749.0 L 1959.3,1749.0 1939.5,1738.5 1919.2,1728.5 1898.6,1718.9 1877.7,1709.9 1856.5,1701.5 1835.1,1693.7 1813.4,1686.7 1791.6,1680.4 1769.7,1674.9 1747.7,1670.2 1725.7,1666.4 1703.6,1663.6 1681.6,1661.6 1659.6,1660.6 1637.7,1660.6 1615.9,1661.6 1594.2,1663.5 1572.7,1666.5 1551.4,1670.5 1530.3,1675.4 1509.5,1681.4 1489.0,1688.4 1468.7,1696.3 1448.8,1705.2 1429.2,1715.0 1410.0,1725.8 1391.1,1737.4 1372.7,1749.8 1354.7,1763.1 1337.1,1777.1 1319.9,1791.8 1303.3,1807.2 1287.1,1823.2 1271.4,1839.7 1256.2,1856.8 1241.5,1874.2 1227.4,1892.0 1213.7,1910.0 1200.7,1928.3  A 522.500,522.500 0.00 0,1 1153.4,1891.0 L 1153.4,1891.0 1168.9,1873.9 1184.9,1857.0 1201.4,1840.4 1218.4,1824.1 1235.9,1808.2 1253.9,1792.7 1272.3,1777.7 1291.2,1763.3 1310.5,1749.5 1330.2,1736.2 1350.3,1723.7 1370.8,1711.8 1391.7,1700.7 1412.9,1690.3 1434.5,1680.7 1456.3,1671.9 1478.5,1664.0 1500.9,1656.8 1523.5,1650.6 1546.4,1645.2 1569.4,1640.7 1592.6,1637.0 1616.0,1634.2 1639.4,1632.3 1663.0,1631.2 1686.6,1631.0 1710.3,1631.6 1733.9,1633.1 1757.5,1635.3 1781.1,1638.3 1804.6,1642.0 1827.9,1646.5 1851.1,1651.7 1874.1,1657.4 1896.9,1663.8 1919.4,1670.8 1941.6,1678.3 1963.4,1686.2 1984.9,1694.6  Z" style="stroke-width: 0.5;  stroke: rgb(0,0,0); fill: rgb(179,177,178);" />
<path d="M 1957.969,1751.537 A 522.500,522.500 0.00 0,1 1926.3,1802.1 L 1926.3,1802.1 1908.3,1789.7 1889.9,1777.7 1871.1,1766.1 1852.1,1755.1 1832.7,1744.7 1813.2,1735.0 1793.4,1726.1 1773.5,1718.0 1753.5,1710.8 1733.4,1704.4 1713.3,1699.1 1693.2,1694.7 1673.1,1691.4 1653.1,1689.1 1633.2,1687.9 1613.5,1687.8 1593.9,1688.8 1574.5,1691.0 1555.3,1694.3 1536.4,1698.7 1517.8,1704.2 1499.4,1710.9 1481.4,1718.6 1463.7,1727.5 1446.4,1737.3 1429.5,1748.2 1413.0,1760.1 1396.9,1772.9 1381.2,1786.6 1366.0,1801.2 1351.3,1816.5 1337.0,1832.6 1323.2,1849.4 1310.0,1866.7 1297.2,1884.6 1285.0,1902.9 1273.3,1921.6 1262.1,1940.5 1251.5,1959.6  A 522.500,522.500 0.00 0,1 1200.7,1928.3 L 1200.7,1928.3 1213.7,1910.0 1227.3,1892.0 1241.5,1874.2 1256.1,1856.8 1271.3,1839.8 1287.0,1823.3 1303.2,1807.3 1319.8,1792.0 1337.0,1777.3 1354.5,1763.3 1372.5,1750.1 1391.0,1737.7 1409.8,1726.1 1429.0,1715.4 1448.6,1705.6 1468.5,1696.8 1488.7,1688.9 1509.2,1682.0 1530.0,1676.1 1551.0,1671.2 1572.3,1667.3 1593.8,1664.4 1615.4,1662.5 1637.1,1661.6 1659.0,1661.7 1681.0,1662.8 1703.0,1664.9 1725.0,1667.8 1747.0,1671.7 1768.9,1676.5 1790.8,1682.1 1812.5,1688.5 1834.1,1695.6 1855.5,1703.5 1876.6,1712.0 1897.5,1721.1 1918.0,1730.8 1938.2,1741.0 1958.0,1751.5  Z" style="stroke-width: 0.5;  stroke: rgb(0,0,0); fill: rgb(179,177,178);" />
<path d="M 1973.977,1280.109 A 522.500,522.500 0.00 0,1 1985.0,1305.7 L 1985.0,1305.7 1961.2,1315.1 1937.1,1324.4 1912.9,1333.6 1888.4,1342.7 1863.8,1351.5 1839.0,1360.2 1814.0,1368.7 1788.9,1377.0 1763.6,1385.1 1738.2,1392.9 1712.6,1400.6 1687.0,1408.0 1661.1,1415.1 1635.2,1422.1 1609.2,1428.7 1583.1,1435.1 1556.9,1441.3 1530.6,1447.1 1504.2,1452.7 1477.8,1458.0 1451.3,1463.1 1424.8,1467.9 1398.3,1472.3 1371.7,1476.6 1345.1,1480.5 1318.6,1484.2 1292.0,1487.6 1265.4,1490.7 1238.9,1493.5 1212.4,1496.1 1186.0,1498.4 1159.6,1500.5 1133.3,1502.4 1107.1,1504.0 1081.0,1505.3 1054.9,1506.4 1029.0,1507.4 1003.2,1508.1 977.6,1508.6  A 522.500,522.500 0.00 0,1 977.8,1480.9 L 977.8,1480.9 1003.2,1481.7 1028.6,1482.3 1054.3,1482.6 1080.1,1482.6 1106.0,1482.4 1132.1,1481.8 1158.2,1481.0 1184.5,1479.9 1210.8,1478.4 1237.2,1476.6 1263.6,1474.5 1290.1,1472.0 1316.5,1469.2 1343.0,1466.0 1369.5,1462.5 1396.0,1458.6 1422.4,1454.4 1448.9,1449.8 1475.2,1444.8 1501.5,1439.5 1527.7,1433.9 1553.8,1427.9 1579.8,1421.6 1605.8,1414.9 1631.5,1407.9 1657.2,1400.5 1682.7,1392.8 1708.1,1384.9 1733.2,1376.6 1758.3,1368.0 1783.1,1359.2 1807.7,1350.1 1832.2,1340.7 1856.4,1331.1 1880.4,1321.3 1904.2,1311.3 1927.7,1301.1 1951.0,1290.7 1974.0,1280.1  Z" style="stroke-width: 0.5;  stroke: rgb(0,0,0); fill: rgb(179,177,178);" />
<path d="M 1994.821,1667.803 A 522.500,522.500 0.00 0,1 1986.1,1691.5 L 1986.1,1691.5 1963.8,1682.9 1941.0,1674.6 1917.9,1666.7 1894.6,1659.2 1870.9,1652.2 1846.9,1645.6 1822.7,1639.5 1798.3,1633.9 1773.7,1628.9 1748.9,1624.4 1724.0,1620.5 1698.9,1617.3 1673.8,1614.6 1648.5,1612.7 1623.2,1611.3 1597.8,1610.6 1572.5,1610.6 1547.1,1611.3 1521.7,1612.7 1496.4,1614.7 1471.2,1617.4 1446.0,1620.8 1421.0,1624.8 1396.0,1629.5 1371.3,1634.8 1346.6,1640.8 1322.2,1647.4 1298.0,1654.6 1274.0,1662.4 1250.2,1670.7 1226.7,1679.6 1203.5,1689.0 1180.6,1698.8 1158.0,1709.2 1135.8,1719.9 1113.9,1731.0 1092.3,1742.5 1071.2,1754.3 1050.5,1766.3  A 522.500,522.500 0.00 0,1 1038.1,1744.3 L 1038.1,1744.3 1059.7,1733.1 1081.6,1722.2 1103.9,1711.6 1126.5,1701.3 1149.4,1691.3 1172.7,1681.8 1196.2,1672.6 1220.0,1663.9 1244.1,1655.6 1268.5,1647.9 1293.0,1640.6 1317.8,1633.9 1342.7,1627.7 1367.8,1622.1 1393.1,1617.1 1418.5,1612.6 1444.0,1608.7 1469.6,1605.5 1495.3,1602.8 1521.0,1600.7 1546.8,1599.3 1572.6,1598.4 1598.4,1598.2 1624.2,1598.6 1649.9,1599.6 1675.6,1601.1 1701.2,1603.2 1726.7,1605.9 1752.1,1609.2 1777.4,1613.0 1802.4,1617.3 1827.3,1622.1 1852.1,1627.4 1876.5,1633.2 1900.8,1639.4 1924.7,1645.9 1948.4,1652.9 1971.8,1660.2 1994.8,1667.8  Z" style="stroke-width: 0.5;  stroke: rgb(0,0,0); fill: rgb(179,177,178);" />
<path d="M 1995.279,1333.553 A 522.500,522.500 0.00 0,1 2002.3,1356.2 L 2002.3,1356.2 1977.0,1363.4 1951.6,1370.5 1926.2,1377.6 1900.6,1384.6 1875.0,1391.5 1849.3,1398.3 1823.5,1405.1 1797.6,1411.7 1771.7,1418.3 1745.6,1424.7 1719.6,1431.1 1693.5,1437.3 1667.3,1443.4 1641.1,1449.5 1614.8,1455.4 1588.5,1461.2 1562.1,1466.8 1535.7,1472.4 1509.3,1477.8 1482.9,1483.2 1456.4,1488.4 1429.9,1493.4 1403.4,1498.4 1376.9,1503.2 1350.4,1507.9 1323.9,1512.5 1297.3,1517.0 1270.8,1521.3 1244.3,1525.5 1217.9,1529.6 1191.4,1533.6 1165.0,1537.5 1138.6,1541.2 1112.2,1544.9 1085.9,1548.4 1059.6,1551.9 1033.4,1555.2 1007.2,1558.4 981.1,1561.6  A 522.500,522.500 0.00 0,1 978.9,1538.3 L 978.9,1538.3 1004.8,1536.3 1030.9,1534.2 1057.0,1532.0 1083.2,1529.6 1109.5,1527.0 1135.8,1524.2 1162.2,1521.3 1188.6,1518.2 1215.1,1515.0 1241.6,1511.5 1268.2,1507.9 1294.7,1504.1 1321.3,1500.1 1347.9,1495.9 1374.5,1491.5 1401.0,1487.0 1427.6,1482.2 1454.1,1477.3 1480.6,1472.1 1507.1,1466.8 1533.5,1461.3 1559.9,1455.6 1586.2,1449.7 1612.5,1443.6 1638.7,1437.3 1664.8,1430.9 1690.8,1424.3 1716.8,1417.5 1742.7,1410.6 1768.5,1403.5 1794.1,1396.2 1819.7,1388.8 1845.2,1381.3 1870.5,1373.6 1895.7,1365.9 1920.8,1357.9 1945.8,1349.9 1970.6,1341.8 1995.3,1333.6  Z" style="stroke-width: 0.5;  stroke: rgb(0,0,0); fill: rgb(179,177,178);" />
<path d="M 1985.237,1306.219 A 522.500,522.500 0.00 0,1 1992.9,1326.5 L 1992.9,1326.5 1968.4,1335.1 1943.7,1343.5 1918.9,1351.9 1894.0,1360.1 1868.9,1368.1 1843.7,1376.1 1818.4,1383.9 1792.9,1391.5 1767.3,1399.0 1741.6,1406.3 1715.8,1413.4 1689.9,1420.4 1663.9,1427.2 1637.8,1433.7 1611.7,1440.1 1585.5,1446.3 1559.2,1452.3 1532.8,1458.1 1506.4,1463.7 1479.9,1469.1 1453.4,1474.2 1426.9,1479.2 1400.4,1483.9 1373.8,1488.5 1347.2,1492.8 1320.6,1496.9 1294.1,1500.8 1267.5,1504.5 1241.0,1508.0 1214.5,1511.3 1188.0,1514.4 1161.6,1517.3 1135.2,1520.1 1108.9,1522.6 1082.6,1524.9 1056.5,1527.1 1030.4,1529.1 1004.4,1531.0 978.5,1532.7  A 522.500,522.500 0.00 0,1 977.6,1510.8 L 977.6,1510.8 1003.3,1510.2 1029.1,1509.3 1055.0,1508.3 1081.0,1507.1 1107.2,1505.6 1133.4,1503.9 1159.7,1502.0 1186.1,1499.9 1212.5,1497.4 1239.0,1494.8 1265.5,1491.8 1292.1,1488.6 1318.7,1485.2 1345.2,1481.5 1371.8,1477.5 1398.4,1473.2 1424.9,1468.6 1451.4,1463.8 1477.9,1458.7 1504.3,1453.4 1530.6,1447.7 1556.9,1441.8 1583.1,1435.7 1609.3,1429.3 1635.3,1422.6 1661.2,1415.6 1687.0,1408.5 1712.7,1401.1 1738.3,1393.4 1763.7,1385.5 1789.0,1377.5 1814.1,1369.2 1839.1,1360.7 1863.9,1352.0 1888.6,1343.1 1913.0,1334.1 1937.3,1325.0 1961.4,1315.7 1985.2,1306.2  Z" style="stroke-width: 0.5;  stroke: rgb(0,0,0); fill: rgb(179,177,178);" />
<path d="M 1750.611,1041.524 A 522.500,522.500 0.00 0,1 1765.2,1049.8 L 1765.2,1049.8 1753.9,1068.5 1742.0,1087.0 1729.6,1105.2 1716.7,1123.1 1703.4,1140.5 1689.5,1157.3 1675.1,1173.5 1660.3,1189.1 1645.0,1203.9 1629.3,1217.9 1613.1,1231.0 1596.6,1243.2 1579.6,1254.5 1562.3,1264.7 1544.7,1273.9 1526.7,1282.1 1508.4,1289.2 1489.8,1295.1 1471.0,1300.0 1451.9,1303.7 1432.7,1306.2 1413.2,1307.7 1393.6,1308.0 1373.9,1307.1 1354.1,1305.2 1334.2,1302.2 1314.3,1298.1 1294.3,1293.0 1274.4,1286.9 1254.6,1279.8 1234.9,1271.8 1215.3,1262.9 1195.9,1253.3 1176.7,1242.9 1157.8,1231.8 1139.2,1220.0 1120.9,1207.8 1102.9,1195.1 1085.4,1182.0  A 522.500,522.500 0.00 0,1 1095.8,1168.9 L 1095.8,1168.9 1112.7,1182.5 1130.1,1195.7 1147.9,1208.4 1166.0,1220.6 1184.3,1232.2 1203.0,1243.0 1221.8,1253.2 1240.8,1262.5 1259.9,1270.9 1279.2,1278.3 1298.5,1284.8 1317.8,1290.3 1337.1,1294.7 1356.4,1298.1 1375.6,1300.3 1394.7,1301.3 1413.6,1301.3 1432.4,1300.0 1451.1,1297.6 1469.5,1294.0 1487.6,1289.3 1505.5,1283.4 1523.2,1276.3 1540.5,1268.2 1557.4,1258.9 1574.0,1248.6 1590.3,1237.3 1606.2,1225.0 1621.6,1211.7 1636.6,1197.6 1651.2,1182.6 1665.4,1166.9 1679.0,1150.4 1692.2,1133.3 1704.9,1115.7 1717.1,1097.7 1728.8,1079.2 1740.0,1060.5 1750.6,1041.5  Z" style="stroke-width: 0.5;  stroke: rgb(0,0,0); fill: rgb(179,177,178);" />
<path d="M 2022.416,1490.620 A 522.500,522.500 0.00 0,1 2022.5,1503.5 L 2022.5,1503.5 1996.2,1503.4 1969.9,1503.3 1943.5,1503.4 1917.0,1503.5 1890.4,1503.8 1863.8,1504.2 1837.2,1504.6 1810.5,1505.2 1783.8,1505.9 1757.0,1506.8 1730.2,1507.7 1703.3,1508.8 1676.5,1510.0 1649.6,1511.3 1622.7,1512.7 1595.8,1514.3 1568.9,1516.0 1542.0,1517.8 1515.1,1519.8 1488.2,1521.9 1461.3,1524.1 1434.4,1526.5 1407.6,1529.0 1380.7,1531.6 1354.0,1534.3 1327.2,1537.2 1300.5,1540.2 1273.8,1543.3 1247.2,1546.5 1220.6,1549.8 1194.1,1553.3 1167.6,1556.8 1141.2,1560.5 1114.9,1564.3 1088.6,1568.1 1062.4,1572.1 1036.3,1576.1 1010.3,1580.2 984.4,1584.4  A 522.500,522.500 0.00 0,1 982.4,1571.6 L 982.4,1571.6 1008.6,1568.0 1034.8,1564.5 1061.1,1561.0 1087.5,1557.6 1113.9,1554.2 1140.4,1551.0 1166.9,1547.8 1193.5,1544.6 1220.1,1541.6 1246.7,1538.6 1273.4,1535.7 1300.1,1532.9 1326.8,1530.2 1353.6,1527.6 1380.4,1525.0 1407.2,1522.6 1434.0,1520.2 1460.9,1517.9 1487.7,1515.7 1514.6,1513.7 1541.4,1511.7 1568.3,1509.8 1595.2,1507.9 1622.1,1506.2 1648.9,1504.6 1675.8,1503.0 1702.6,1501.6 1729.4,1500.2 1756.2,1499.0 1783.0,1497.8 1809.8,1496.7 1836.5,1495.6 1863.2,1494.7 1889.8,1493.8 1916.4,1493.0 1943.0,1492.3 1969.5,1491.7 1996.0,1491.1 2022.4,1490.6  Z" style="stroke-width: 0.5;  stroke: rgb(0,0,0); fill: rgb(179,177,178);" />
<path d="M 2002.921,1358.309 A 522.500,522.500 0.00 0,1 2005.4,1367.3 L 2005.4,1367.3 1979.8,1374.0 1954.2,1380.7 1928.5,1387.2 1902.7,1393.8 1876.9,1400.2 1851.0,1406.6 1825.1,1412.9 1799.1,1419.2 1773.0,1425.4 1746.9,1431.5 1720.8,1437.6 1694.6,1443.5 1668.4,1449.4 1642.1,1455.2 1615.8,1460.9 1589.5,1466.6 1563.1,1472.1 1536.7,1477.6 1510.3,1482.9 1483.9,1488.2 1457.5,1493.4 1431.0,1498.5 1404.5,1503.5 1378.1,1508.4 1351.6,1513.2 1325.1,1518.0 1298.6,1522.6 1272.2,1527.1 1245.7,1531.6 1219.3,1536.0 1192.9,1540.3 1166.4,1544.5 1140.1,1548.6 1113.7,1552.6 1087.4,1556.6 1061.1,1560.4 1034.8,1564.2 1008.6,1568.0 982.4,1571.6  A 522.500,522.500 0.00 0,1 981.2,1562.4 L 981.2,1562.4 1007.4,1559.2 1033.5,1556.0 1059.8,1552.6 1086.1,1549.1 1112.4,1545.6 1138.7,1541.9 1165.1,1538.1 1191.6,1534.2 1218.0,1530.2 1244.5,1526.1 1271.0,1521.9 1297.5,1517.5 1324.0,1513.1 1350.5,1508.5 1377.0,1503.8 1403.6,1499.0 1430.1,1494.1 1456.6,1489.0 1483.0,1483.9 1509.5,1478.6 1535.9,1473.2 1562.3,1467.7 1588.7,1462.0 1615.0,1456.3 1641.3,1450.4 1667.5,1444.5 1693.7,1438.4 1719.8,1432.2 1745.9,1425.9 1771.9,1419.6 1797.9,1413.1 1823.8,1406.5 1849.6,1399.9 1875.4,1393.1 1901.0,1386.3 1926.6,1379.4 1952.2,1372.4 1977.6,1365.4 2002.9,1358.3  Z" style="stroke-width: 0.5;  stroke: rgb(0,0,0); fill: rgb(179,177,178);" />
<path d="M 1927.914,1200.174 A 522.500,522.500 0.00 0,1 1933.0,1207.6 L 1933.0,1207.6 1912.8,1221.0 1892.2,1234.2 1871.2,1247.2 1849.8,1259.8 1828.1,1272.2 1806.0,1284.2 1783.6,1295.8 1760.8,1307.0 1737.8,1317.8 1714.4,1328.1 1690.8,1337.9 1666.9,1347.2 1642.8,1356.0 1618.4,1364.3 1593.8,1372.0 1569.1,1379.1 1544.1,1385.6 1519.0,1391.6 1493.8,1397.0 1468.4,1401.8 1442.9,1405.9 1417.4,1409.5 1391.7,1412.5 1366.1,1414.8 1340.4,1416.6 1314.7,1417.7 1289.0,1418.3 1263.4,1418.3 1237.8,1417.7 1212.3,1416.6 1186.9,1415.0 1161.6,1412.8 1136.5,1410.1 1111.6,1407.0 1086.8,1403.4 1062.3,1399.3 1038.0,1394.9 1014.0,1390.1 990.3,1384.9  A 522.500,522.500 0.00 0,1 992.4,1376.0 L 992.4,1376.0 1015.9,1381.5 1039.7,1386.7 1063.8,1391.5 1088.2,1395.9 1112.8,1399.9 1137.6,1403.4 1162.5,1406.3 1187.7,1408.8 1212.9,1410.7 1238.3,1412.1 1263.7,1412.9 1289.2,1413.1 1314.8,1412.8 1340.3,1411.8 1365.9,1410.2 1391.4,1407.9 1416.9,1405.1 1442.3,1401.6 1467.7,1397.5 1492.9,1392.8 1518.0,1387.4 1542.9,1381.4 1567.7,1374.8 1592.3,1367.6 1616.7,1359.8 1640.9,1351.5 1664.8,1342.5 1688.5,1333.1 1712.0,1323.1 1735.1,1312.6 1757.9,1301.6 1780.4,1290.2 1802.6,1278.3 1824.4,1266.1 1845.9,1253.5 1867.0,1240.6 1887.7,1227.3 1908.0,1213.9 1927.9,1200.2  Z" style="stroke-width: 0.5;  stroke: rgb(0,0,0); fill: rgb(179,177,178);" />
</g>
<g id="plot0">
<g id="plot0-axis">
</g>
<line x1='2243.5' y1='1598.2' x2='2243.5' y2='1598.2' style="stroke-width:14.0;stroke:rgb(0,0,0);stroke-linecap:round;fill:none;" />
<line x1='2243.5' y1='1598.2' x2='2283.2' y2='1603.5' style="stroke-width:14.0;stroke:rgb(0,0,0);stroke-linecap:round;fill:none;" />
<line x1='2283.2' y1='1603.5' x2='2283.2' y2='1603.5' style="stroke-width:14.0;stroke:rgb(0,0,0);stroke-linecap:round;fill:none;" />
<text x="2299.8" y="1628.4" font-size="46.8px" font-family="CMUBright-Roman" style="text-anchor:start;fill:rgb(255,38,78);" transform="rotate(7.5,2299.8,1628.4)" >HistocapWGSS14<tspan baseline-shift="-40%" font-size="90%">s</tspan>01517</text>
</g>
<defs>
<pattern id="checker" width="10" height="10" patternTransform="rotate(45 0 0)" patternUnits="userSpaceOnUse"><line x1="0" y1="0" x2="10" y2="0" style="stroke:black;stroke-width:5" /><line x1="0" y1="0" x2="0" y2="10" style="stroke:black;stroke-width:4" /></pattern>
<pattern id="vline-sparse" width="10" height="10" patternTransform="rotate(0 0 0)" patternUnits="userSpaceOnUse"><line x1="0" y1="0" x2="0" y2="10" style="stroke:black;stroke-width:2" /></pattern>
<pattern id="hline-sparse" width="10" height="10" patternTransform="rotate(0 0 0)" patternUnits="userSpaceOnUse"><line x1="0" y1="0" x2="10" y2="0" style="stroke:black;stroke-width:2" /></pattern>
<pattern id="checker" width="10" height="10" patternTransform="rotate(45 0 0)" patternUnits="userSpaceOnUse"><line x1="0" y1="0" x2="10" y2="0" style="stroke:black;stroke-width:2" /><line x1="0" y1="0" x2="0" y2="10" style="stroke:black;stroke-width:2" /></pattern>
<pattern id="vline" width="10" height="10" patternTransform="rotate(0 0 0)" patternUnits="userSpaceOnUse"><line x1="0" y1="0" x2="0" y2="10" style="stroke:black;stroke-width:5" /></pattern>
<pattern id="hline" width="10" height="10" patternTransform="rotate(0 0 0)" patternUnits="userSpaceOnUse"><line x1="0" y1="0" x2="10" y2="0" style="stroke:black;stroke-width:5" /></pattern>
</defs>
</svg>
