<?xml version="1.0" encoding="utf-8" standalone="no"?>
<!DOCTYPE svg PUBLIC "-//W3C//DTD SVG 1.1//EN" "http://www.w3.org/Graphics/SVG/1.1/DTD/svg11.dtd">
<svg width="3000px" height="3000px" version="1.1" xmlns="http://www.w3.org/2000/svg" xmlns:xlink="http://www.w3.org/1999/xlink">
<g id="bg">
<rect x="0" y="0" width="3000px" height="3000px" style="fill:rgb(255,255,255);"/>
</g>
<g id="ideograms">
<path d="M1500.000,950.000 A550.000,550.000 40.000 0,1 1552.869,2047.453 L1572.094,2246.527 A750.000,750.000 0.000 0,0 1500.000,750.000 Z" style="stroke-width:2.0;stroke:rgb(0,0,0);stroke-linecap:round;fill:rgb(179,177,178);" />
<text x="2473.9" y="1453.1" font-size="46.8px" font-family="CMUBright-Roman" style="text-anchor:middle;fill:rgb(0,0,0);" transform="rotate(447.2,2473.9,1453.1)" >HistocapSECH101<tspan baseline-shift="-40%" font-size="90%">2</tspan></text>
<line x1='1530.7' y1='750.6' x2='1531.2' y2='738.6' style="stroke-width:8.0;stroke:rgb(150,150,150);stroke-linecap:round;fill:none;" />
<text x="1545.7" y="727.4" font-size="41.6px" font-family="CMUBright-Roman" style="text-anchor:start;fill:rgb(150,150,150);" transform="rotate(272.3,1545.7,727.4)" >1200 kb</text>
<line x1='1623.6' y1='760.3' x2='1625.6' y2='748.4' style="stroke-width:8.0;stroke:rgb(150,150,150);stroke-linecap:round;fill:none;" />
<line x1='1714.5' y1='781.3' x2='1717.9' y2='769.8' style="stroke-width:8.0;stroke:rgb(150,150,150);stroke-linecap:round;fill:none;" />
<line x1='1802.1' y1='813.5' x2='1807.0' y2='802.6' style="stroke-width:8.0;stroke:rgb(150,150,150);stroke-linecap:round;fill:none;" />
<line x1='1885.0' y1='856.4' x2='1891.2' y2='846.1' style="stroke-width:8.0;stroke:rgb(150,150,150);stroke-linecap:round;fill:none;" />
<line x1='1962.0' y1='909.2' x2='1969.4' y2='899.7' style="stroke-width:8.0;stroke:rgb(150,150,150);stroke-linecap:round;fill:none;" />
<text x="1987.7" y="899.0" font-size="41.6px" font-family="CMUBright-Roman" style="text-anchor:start;fill:rgb(150,150,150);" transform="rotate(308.0,1987.7,899.0)" >1250 kb</text>
<line x1='2031.8' y1='971.2' x2='2040.3' y2='962.7' style="stroke-width:8.0;stroke:rgb(150,150,150);stroke-linecap:round;fill:none;" />
<line x1='2093.4' y1='1041.3' x2='2102.9' y2='1034.0' style="stroke-width:8.0;stroke:rgb(150,150,150);stroke-linecap:round;fill:none;" />
<line x1='2145.8' y1='1118.6' x2='2156.1' y2='1112.5' style="stroke-width:8.0;stroke:rgb(150,150,150);stroke-linecap:round;fill:none;" />
<line x1='2188.1' y1='1201.7' x2='2199.1' y2='1196.9' style="stroke-width:8.0;stroke:rgb(150,150,150);stroke-linecap:round;fill:none;" />
<line x1='2219.9' y1='1289.5' x2='2231.4' y2='1286.1' style="stroke-width:8.0;stroke:rgb(150,150,150);stroke-linecap:round;fill:none;" />
<text x="2246.7" y="1296.2" font-size="41.6px" font-family="CMUBright-Roman" style="text-anchor:start;fill:rgb(150,150,150);" transform="rotate(343.7,2246.7,1296.2)" >1300 kb</text>
<line x1='2240.4' y1='1380.5' x2='2252.3' y2='1378.6' style="stroke-width:8.0;stroke:rgb(150,150,150);stroke-linecap:round;fill:none;" />
<line x1='2249.5' y1='1473.4' x2='2261.5' y2='1473.0' style="stroke-width:8.0;stroke:rgb(150,150,150);stroke-linecap:round;fill:none;" />
<line x1='2247.0' y1='1566.7' x2='2259.0' y2='1567.8' style="stroke-width:8.0;stroke:rgb(150,150,150);stroke-linecap:round;fill:none;" />
<line x1='2232.9' y1='1659.0' x2='2244.7' y2='1661.6' style="stroke-width:8.0;stroke:rgb(150,150,150);stroke-linecap:round;fill:none;" />
<line x1='2207.5' y1='1748.8' x2='2218.8' y2='1752.8' style="stroke-width:8.0;stroke:rgb(150,150,150);stroke-linecap:round;fill:none;" />
<text x="2225.4" y="1769.9" font-size="41.6px" font-family="CMUBright-Roman" style="text-anchor:start;fill:rgb(150,150,150);" transform="rotate(19.4,2225.4,1769.9)" >1350 kb</text>
<line x1='2171.1' y1='1834.8' x2='2181.9' y2='1840.1' style="stroke-width:8.0;stroke:rgb(150,150,150);stroke-linecap:round;fill:none;" />
<line x1='2124.4' y1='1915.5' x2='2134.3' y2='1922.2' style="stroke-width:8.0;stroke:rgb(150,150,150);stroke-linecap:round;fill:none;" />
<line x1='2067.9' y1='1989.9' x2='2077.0' y2='1997.7' style="stroke-width:8.0;stroke:rgb(150,150,150);stroke-linecap:round;fill:none;" />
<line x1='2002.7' y1='2056.6' x2='2010.7' y2='2065.5' style="stroke-width:8.0;stroke:rgb(150,150,150);stroke-linecap:round;fill:none;" />
<line x1='1929.6' y1='2114.7' x2='1936.5' y2='2124.6' style="stroke-width:8.0;stroke:rgb(150,150,150);stroke-linecap:round;fill:none;" />
<text x="1931.8" y="2142.3" font-size="41.6px" font-family="CMUBright-Roman" style="text-anchor:start;fill:rgb(150,150,150);" transform="rotate(55.1,1931.8,2142.3)" >1400 kb</text>
<line x1='1850.0' y1='2163.4' x2='1855.6' y2='2174.0' style="stroke-width:8.0;stroke:rgb(150,150,150);stroke-linecap:round;fill:none;" />
<line x1='1764.8' y1='2201.7' x2='1769.1' y2='2212.9' style="stroke-width:8.0;stroke:rgb(150,150,150);stroke-linecap:round;fill:none;" />
<line x1='1675.6' y1='2229.1' x2='1678.5' y2='2240.8' style="stroke-width:8.0;stroke:rgb(150,150,150);stroke-linecap:round;fill:none;" />
<line x1='1583.7' y1='2245.3' x2='1585.1' y2='2257.2' style="stroke-width:8.0;stroke:rgb(150,150,150);stroke-linecap:round;fill:none;" />
<g id="highlighttrack_0">
<path d="M2021.122,1324.124 A550.000,550.000 40.000 0,1 2035.615,1624.968 L2230.383,1670.411 A750.000,750.000 0.000 0,0 2210.620,1260.169 Z" style="stroke-width:14.0;stroke:rgb(0,0,0);stroke-linecap:round;fill:rgb(255,38,78);" />
</g>
<path d="M1500.000,950.000 A550.000,550.000 40.000 0,1 1552.869,2047.453 L1572.094,2246.527 A750.000,750.000 0.000 0,0 1500.000,750.000 Z" style="stroke-width:2.0;stroke:rgb(0,0,0);stroke-linecap:round;fill:none;" />
<path d="M1349.423,2028.986 A550.000,550.000 40.000 0,1 1299.271,987.938 L1226.279,801.733 A750.000,750.000 0.000 0,0 1294.668,2221.345 Z" style="stroke-width:2.0;stroke:rgb(0,0,0);stroke-linecap:round;fill:rgb(179,177,178);" />
<text x="481.2" y="1549.1" font-size="46.8px" font-family="CMUBright-Roman" style="text-anchor:middle;fill:rgb(0,0,0);" transform="rotate(87.2,481.2,1549.1)" >HistocapHCH143<tspan baseline-shift="-40%" font-size="90%">2</tspan></text>
<line x1='1143.9' y1='840.0' x2='1138.2' y2='829.4' style="stroke-width:8.0;stroke:rgb(150,150,150);stroke-linecap:round;fill:none;" />
<line x1='1064.6' y1='889.3' x2='1057.7' y2='879.5' style="stroke-width:8.0;stroke:rgb(150,150,150);stroke-linecap:round;fill:none;" />
<line x1='992.1' y1='948.1' x2='984.0' y2='939.3' style="stroke-width:8.0;stroke:rgb(150,150,150);stroke-linecap:round;fill:none;" />
<text x="965.7" y="940.0" font-size="41.6px" font-family="CMUBright-Roman" style="text-anchor:end;fill:rgb(150,150,150);" transform="rotate(47.4,965.7,940.0)" >1600 kb</text>
<line x1='927.5' y1='1015.5' x2='918.4' y2='1007.7' style="stroke-width:8.0;stroke:rgb(150,150,150);stroke-linecap:round;fill:none;" />
<line x1='871.8' y1='1090.3' x2='861.7' y2='1083.8' style="stroke-width:8.0;stroke:rgb(150,150,150);stroke-linecap:round;fill:none;" />
<line x1='825.8' y1='1171.5' x2='815.0' y2='1166.3' style="stroke-width:8.0;stroke:rgb(150,150,150);stroke-linecap:round;fill:none;" />
<line x1='790.2' y1='1257.8' x2='778.8' y2='1253.9' style="stroke-width:8.0;stroke:rgb(150,150,150);stroke-linecap:round;fill:none;" />
<line x1='765.6' y1='1347.9' x2='753.8' y2='1345.4' style="stroke-width:8.0;stroke:rgb(150,150,150);stroke-linecap:round;fill:none;" />
<text x="739.4" y="1356.7" font-size="41.6px" font-family="CMUBright-Roman" style="text-anchor:end;fill:rgb(150,150,150);" transform="rotate(11.7,739.4,1356.7)" >1650 kb</text>
<line x1='752.4' y1='1440.3' x2='740.4' y2='1439.3' style="stroke-width:8.0;stroke:rgb(150,150,150);stroke-linecap:round;fill:none;" />
<line x1='750.8' y1='1533.6' x2='738.8' y2='1534.1' style="stroke-width:8.0;stroke:rgb(150,150,150);stroke-linecap:round;fill:none;" />
<line x1='760.7' y1='1626.4' x2='748.9' y2='1628.4' style="stroke-width:8.0;stroke:rgb(150,150,150);stroke-linecap:round;fill:none;" />
<line x1='782.1' y1='1717.2' x2='770.7' y2='1720.7' style="stroke-width:8.0;stroke:rgb(150,150,150);stroke-linecap:round;fill:none;" />
<line x1='814.7' y1='1804.7' x2='803.7' y2='1809.6' style="stroke-width:8.0;stroke:rgb(150,150,150);stroke-linecap:round;fill:none;" />
<text x="798.6" y="1827.2" font-size="41.6px" font-family="CMUBright-Roman" style="text-anchor:end;fill:rgb(150,150,150);" transform="rotate(-24.0,798.6,1827.2)" >1700 kb</text>
<line x1='857.8' y1='1887.5' x2='847.6' y2='1893.7' style="stroke-width:8.0;stroke:rgb(150,150,150);stroke-linecap:round;fill:none;" />
<line x1='910.9' y1='1964.2' x2='901.5' y2='1971.7' style="stroke-width:8.0;stroke:rgb(150,150,150);stroke-linecap:round;fill:none;" />
<line x1='973.2' y1='2033.8' x2='964.7' y2='2042.3' style="stroke-width:8.0;stroke:rgb(150,150,150);stroke-linecap:round;fill:none;" />
<line x1='1043.5' y1='2095.1' x2='1036.2' y2='2104.6' style="stroke-width:8.0;stroke:rgb(150,150,150);stroke-linecap:round;fill:none;" />
<line x1='1121.0' y1='2147.2' x2='1114.9' y2='2157.5' style="stroke-width:8.0;stroke:rgb(150,150,150);stroke-linecap:round;fill:none;" />
<text x="1121.0" y="2174.9" font-size="41.6px" font-family="CMUBright-Roman" style="text-anchor:end;fill:rgb(150,150,150);" transform="rotate(-59.6,1121.0,2174.9)" >1750 kb</text>
<line x1='1204.3' y1='2189.3' x2='1199.6' y2='2200.3' style="stroke-width:8.0;stroke:rgb(150,150,150);stroke-linecap:round;fill:none;" />
<line x1='1292.2' y1='2220.6' x2='1288.9' y2='2232.2' style="stroke-width:8.0;stroke:rgb(150,150,150);stroke-linecap:round;fill:none;" />
<path d="M1349.423,2028.986 A550.000,550.000 40.000 0,1 1299.271,987.938 L1226.279,801.733 A750.000,750.000 0.000 0,0 1294.668,2221.345 Z" style="stroke-width:2.0;stroke:rgb(0,0,0);stroke-linecap:round;fill:none;" />
</g>
<g id="track_0">
<path d="M 1801.437,1073.219 A 522.500,522.500 0.00 0,1 1923.9,1194.6 L 1923.9,1194.6 1904.2,1208.5 1884.2,1222.2 1863.7,1235.7 1842.8,1248.8 1821.5,1261.7 1799.8,1274.1 1777.8,1286.2 1755.5,1297.8 1732.8,1309.0 1709.8,1319.7 1686.6,1329.9 1663.0,1339.6 1639.2,1348.7 1615.2,1357.2 1590.9,1365.2 1566.4,1372.6 1541.7,1379.3 1516.9,1385.4 1491.9,1390.9 1466.8,1395.8 1441.5,1400.0 1416.2,1403.6 1390.8,1406.6 1365.3,1408.9 1339.8,1410.6 1314.3,1411.6 1288.9,1412.1 1263.4,1411.9 1238.0,1411.1 1212.7,1409.8 1187.5,1407.9 1162.4,1405.4 1137.5,1402.4 1112.8,1398.9 1088.2,1395.0 1063.9,1390.6 1039.9,1385.8 1016.1,1380.5 992.7,1375.0  A 522.500,522.500 0.00 0,1 1060.9,1216.8 L 1060.9,1216.8 1079.7,1228.7 1099.0,1240.1 1118.7,1251.1 1138.6,1261.5 1158.9,1271.4 1179.5,1280.6 1200.3,1289.0 1221.2,1296.7 1242.3,1303.6 1263.6,1309.6 1284.9,1314.8 1306.2,1318.9 1327.6,1322.2 1349.0,1324.4 1370.3,1325.6 1391.5,1325.8 1412.6,1325.0 1433.6,1323.1 1454.4,1320.1 1475.0,1316.1 1495.5,1311.1 1515.6,1305.0 1535.5,1297.9 1555.2,1289.8 1574.5,1280.7 1593.4,1270.6 1612.0,1259.6 1630.3,1247.8 1648.1,1235.1 1665.6,1221.5 1682.6,1207.3 1699.2,1192.3 1715.3,1176.7 1730.9,1160.5 1746.0,1143.8 1760.7,1126.6 1774.8,1109.1 1788.4,1091.2 1801.4,1073.2  Z" style="stroke-width: 0.5;  stroke: rgb(0,0,0); fill: rgb(179,177,178);" />
<path d="M 1924.545,1195.422 A 522.500,522.500 0.00 0,1 1974.0,1280.1 L 1974.0,1280.1 1951.0,1290.6 1927.8,1301.0 1904.3,1311.1 1880.5,1321.1 1856.5,1330.9 1832.3,1340.4 1807.9,1349.7 1783.3,1358.8 1758.5,1367.5 1733.4,1376.0 1708.2,1384.1 1682.9,1392.0 1657.4,1399.5 1631.7,1406.7 1605.9,1413.6 1580.0,1420.1 1553.9,1426.2 1527.8,1432.0 1501.6,1437.5 1475.3,1442.5 1448.9,1447.2 1422.5,1451.6 1396.0,1455.5 1369.6,1459.1 1343.1,1462.3 1316.6,1465.2 1290.1,1467.7 1263.6,1469.9 1237.2,1471.6 1210.8,1473.1 1184.5,1474.2 1158.3,1475.0 1132.2,1475.4 1106.1,1475.6 1080.3,1475.4 1054.5,1475.0 1028.9,1474.3 1003.5,1473.3 978.2,1472.0  A 522.500,522.500 0.00 0,1 992.7,1374.9 L 992.7,1374.9 1016.1,1380.5 1039.9,1385.7 1064.0,1390.6 1088.3,1395.0 1112.8,1399.0 1137.5,1402.4 1162.5,1405.4 1187.6,1407.9 1212.8,1409.8 1238.1,1411.2 1263.5,1412.0 1288.9,1412.1 1314.4,1411.7 1339.9,1410.7 1365.4,1409.0 1390.9,1406.7 1416.3,1403.8 1441.7,1400.2 1466.9,1396.0 1492.1,1391.2 1517.1,1385.7 1541.9,1379.6 1566.6,1372.9 1591.1,1365.5 1615.4,1357.6 1639.5,1349.1 1663.3,1340.0 1686.9,1330.4 1710.2,1320.2 1733.2,1309.6 1755.9,1298.4 1778.2,1286.8 1800.3,1274.8 1821.9,1262.3 1843.2,1249.5 1864.2,1236.4 1884.7,1223.0 1904.8,1209.3 1924.5,1195.4  Z" style="stroke-width: 0.5;  stroke: rgb(0,0,0); fill: rgb(179,177,178);" />
<path d="M 1602.629,987.678 A 522.500,522.500 0.00 0,1 1667.9,1005.2 L 1667.9,1005.2 1660.9,1025.2 1653.3,1045.1 1645.3,1064.8 1636.7,1084.0 1627.7,1102.9 1618.1,1121.1 1608.1,1138.8 1597.6,1155.7 1586.5,1171.8 1575.0,1187.1 1563.0,1201.4 1550.6,1214.7 1537.7,1227.0 1524.4,1238.1 1510.6,1248.2 1496.4,1257.1 1481.9,1264.7 1466.9,1271.2 1451.6,1276.4 1436.0,1280.4 1420.1,1283.1 1403.9,1284.5 1387.4,1284.7 1370.8,1283.6 1353.9,1281.3 1336.8,1277.9 1319.6,1273.2 1302.3,1267.4 1285.0,1260.6 1267.6,1252.6 1250.2,1243.7 1232.9,1233.9 1215.7,1223.1 1198.6,1211.6 1181.7,1199.4 1165.0,1186.5 1148.5,1173.1 1132.4,1159.2 1116.7,1144.9  A 522.500,522.500 0.00 0,1 1165.6,1098.5 L 1165.6,1098.5 1179.0,1114.4 1192.8,1129.9 1206.9,1145.0 1221.1,1159.6 1235.5,1173.5 1250.1,1186.7 1264.7,1199.1 1279.4,1210.6 1294.0,1221.2 1308.6,1230.7 1323.2,1239.0 1337.6,1246.3 1351.9,1252.3 1366.0,1257.1 1379.9,1260.7 1393.6,1262.9 1407.0,1263.7 1420.1,1263.3 1432.9,1261.5 1445.3,1258.3 1457.5,1253.8 1469.2,1248.0 1480.6,1240.8 1491.5,1232.3 1502.1,1222.6 1512.2,1211.7 1521.8,1199.6 1531.1,1186.3 1539.9,1172.0 1548.2,1156.7 1556.0,1140.4 1563.5,1123.3 1570.4,1105.5 1576.9,1086.9 1582.9,1067.8 1588.5,1048.2 1593.6,1028.2 1598.3,1008.0 1602.6,987.7  Z" style="stroke-width: 0.5;  stroke: rgb(0,0,0); fill: rgb(179,177,178);" />
<path d="M 1535.772,978.726 A 522.500,522.500 0.00 0,1 1597.9,986.8 L 1597.9,986.8 1593.8,1007.1 1589.3,1027.3 1584.4,1047.3 1579.0,1066.9 1573.2,1086.1 1566.9,1104.6 1560.2,1122.5 1553.0,1139.6 1545.4,1155.9 1537.3,1171.2 1528.8,1185.5 1519.8,1198.7 1510.3,1210.8 1500.4,1221.7 1490.1,1231.4 1479.4,1239.9 1468.3,1247.0 1456.7,1252.8 1444.9,1257.3 1432.6,1260.4 1420.0,1262.1 1407.1,1262.5 1394.0,1261.6 1380.5,1259.3 1366.8,1255.7 1352.9,1250.8 1338.9,1244.7 1324.6,1237.3 1310.3,1228.8 1295.9,1219.2 1281.4,1208.6 1266.9,1197.0 1252.5,1184.5 1238.1,1171.2 1223.9,1157.1 1209.8,1142.5 1195.9,1127.3 1182.3,1111.6 1169.0,1095.7  A 522.500,522.500 0.00 0,1 1219.0,1059.5 L 1219.0,1059.5 1230.1,1076.7 1241.5,1093.5 1253.0,1110.0 1264.7,1126.0 1276.5,1141.4 1288.3,1156.1 1300.1,1170.0 1311.9,1182.9 1323.7,1194.9 1335.3,1205.8 1346.8,1215.5 1358.2,1224.1 1369.3,1231.4 1380.3,1237.4 1390.9,1242.1 1401.3,1245.5 1411.4,1247.4 1421.2,1247.9 1430.7,1247.0 1439.7,1244.7 1448.5,1241.0 1456.8,1235.8 1464.7,1229.3 1472.3,1221.4 1479.4,1212.2 1486.1,1201.6 1492.4,1189.9 1498.2,1176.9 1503.6,1162.8 1508.7,1147.7 1513.2,1131.6 1517.4,1114.5 1521.2,1096.7 1524.5,1078.2 1527.5,1059.0 1530.1,1039.4 1532.3,1019.4 1534.2,999.1 1535.8,978.7  Z" style="stroke-width: 0.5;  stroke: rgb(0,0,0); fill: rgb(179,177,178);" />
<path d="M 1500.000,977.500 A 522.500,522.500 0.00 0,1 1516.1,977.7 L 1516.1,977.7 1515.3,998.1 1514.3,1018.3 1512.9,1038.2 1511.2,1057.8 1509.2,1076.9 1506.8,1095.4 1504.0,1113.1 1500.9,1130.0 1497.3,1146.0 1493.4,1161.0 1489.1,1174.9 1484.3,1187.7 1479.2,1199.2 1473.6,1209.5 1467.7,1218.5 1461.3,1226.1 1454.6,1232.3 1447.4,1237.2 1439.9,1240.6 1432.1,1242.5 1423.8,1243.0 1415.3,1242.1 1406.4,1239.7 1397.2,1235.9 1387.8,1230.8 1378.1,1224.3 1368.1,1216.4 1358.0,1207.4 1347.7,1197.1 1337.2,1185.6 1326.6,1173.1 1315.9,1159.7 1305.2,1145.3 1294.5,1130.1 1283.8,1114.1 1273.1,1097.6 1262.6,1080.6 1252.3,1063.2 1242.1,1045.6  A 522.500,522.500 0.00 0,1 1298.0,1018.1 L 1298.0,1018.1 1305.9,1036.7 1314.0,1055.1 1322.2,1073.2 1330.4,1090.8 1338.7,1107.8 1347.0,1124.1 1355.3,1139.6 1363.5,1154.1 1371.7,1167.7 1379.7,1180.2 1387.6,1191.6 1395.4,1201.7 1402.9,1210.5 1410.3,1218.0 1417.5,1224.1 1424.4,1228.9 1431.0,1232.1 1437.4,1233.9 1443.5,1234.2 1449.3,1233.1 1454.9,1230.4 1460.0,1226.3 1464.9,1220.7 1469.5,1213.7 1473.7,1205.3 1477.6,1195.5 1481.2,1184.4 1484.4,1172.1 1487.3,1158.6 1489.9,1143.9 1492.2,1128.3 1494.1,1111.6 1495.8,1094.2 1497.1,1075.9 1498.2,1057.0 1499.0,1037.6 1499.6,1017.8 1499.9,997.7 1500.0,977.5  Z" style="stroke-width: 0.5;  stroke: rgb(0,0,0); fill: rgb(179,177,178);" />
<path d="M 1835.811,1900.296 A 522.500,522.500 0.00 0,1 1789.7,1934.9 L 1789.7,1934.9 1777.5,1917.0 1764.7,1899.4 1751.5,1882.1 1737.9,1865.2 1723.8,1848.8 1709.2,1833.1 1694.3,1818.0 1679.0,1803.7 1663.3,1790.2 1647.2,1777.6 1630.8,1765.9 1614.1,1755.2 1597.1,1745.6 1579.9,1737.0 1562.4,1729.5 1544.7,1723.1 1526.8,1717.9 1508.8,1713.9 1490.6,1711.1 1472.2,1709.5 1453.8,1709.1 1435.3,1709.8 1416.8,1711.8 1398.3,1715.0 1379.8,1719.3 1361.3,1724.7 1342.9,1731.2 1324.6,1738.8 1306.4,1747.5 1288.4,1757.1 1270.5,1767.6 1252.9,1779.0 1235.6,1791.2 1218.5,1804.2 1201.7,1817.8 1185.3,1832.0 1169.3,1846.7 1153.7,1861.8 1138.5,1877.3  A 522.500,522.500 0.00 0,1 1099.4,1835.5 L 1099.4,1835.5 1116.6,1821.4 1134.2,1807.8 1152.2,1794.5 1170.7,1781.7 1189.5,1769.6 1208.6,1758.0 1228.0,1747.2 1247.7,1737.1 1267.6,1727.8 1287.7,1719.4 1308.0,1711.9 1328.5,1705.3 1349.0,1699.7 1369.7,1695.1 1390.3,1691.5 1411.1,1689.0 1431.8,1687.6 1452.5,1687.2 1473.1,1687.9 1493.6,1689.7 1514.1,1692.6 1534.4,1696.6 1554.5,1701.6 1574.5,1707.7 1594.2,1714.9 1613.8,1723.0 1633.0,1732.1 1652.0,1742.2 1670.7,1753.1 1689.0,1764.9 1707.0,1777.5 1724.6,1790.9 1741.9,1805.0 1758.7,1819.7 1775.0,1835.0 1791.0,1850.7 1806.4,1866.9 1821.4,1883.5 1835.8,1900.3  Z" style="stroke-width: 0.5;  stroke: rgb(0,0,0); fill: rgb(179,177,178);" />
<path d="M 1668.250,1005.330 A 522.500,522.500 0.00 0,1 1717.1,1024.7 L 1717.1,1024.7 1707.9,1044.3 1698.1,1063.8 1687.8,1082.9 1677.0,1101.8 1665.7,1120.1 1653.8,1138.0 1641.4,1155.3 1628.5,1171.9 1615.1,1187.7 1601.3,1202.7 1586.9,1216.9 1572.1,1230.1 1556.9,1242.4 1541.2,1253.6 1525.1,1263.8 1508.6,1272.9 1491.7,1280.9 1474.5,1287.7 1457.0,1293.5 1439.1,1298.0 1421.0,1301.4 1402.5,1303.6 1383.9,1304.6 1365.1,1304.5 1346.1,1303.2 1326.9,1300.9 1307.7,1297.4 1288.3,1292.8 1269.0,1287.3 1249.6,1280.7 1230.3,1273.2 1211.0,1264.8 1191.9,1255.5 1173.0,1245.5 1154.2,1234.8 1135.7,1223.4 1117.5,1211.5 1099.6,1199.1 1082.2,1186.3  A 522.500,522.500 0.00 0,1 1115.7,1146.0 L 1115.7,1146.0 1131.5,1160.2 1147.6,1174.0 1164.1,1187.4 1180.8,1200.3 1197.8,1212.5 1215.0,1224.0 1232.2,1234.6 1249.6,1244.5 1267.0,1253.3 1284.4,1261.2 1301.8,1268.1 1319.2,1273.8 1336.4,1278.4 1353.5,1281.9 1370.4,1284.1 1387.1,1285.1 1403.6,1284.9 1419.9,1283.4 1435.8,1280.7 1451.5,1276.7 1466.8,1271.5 1481.8,1265.0 1496.4,1257.3 1510.6,1248.4 1524.4,1238.4 1537.7,1227.2 1550.7,1214.9 1563.1,1201.5 1575.1,1187.2 1586.7,1172.0 1597.7,1155.8 1608.3,1138.9 1618.4,1121.3 1627.9,1103.0 1637.0,1084.2 1645.6,1064.9 1653.6,1045.2 1661.2,1025.4 1668.3,1005.3  Z" style="stroke-width: 0.5;  stroke: rgb(0,0,0); fill: rgb(179,177,178);" />
<path d="M 1600.561,2012.732 A 522.500,522.500 0.00 0,1 1550.2,2020.1 L 1550.2,2020.1 1548.1,1999.7 1545.6,1979.4 1542.8,1959.4 1539.5,1939.8 1535.9,1920.6 1531.9,1902.1 1527.5,1884.2 1522.7,1867.2 1517.4,1851.1 1511.7,1835.9 1505.6,1821.8 1499.1,1808.8 1492.1,1797.0 1484.7,1786.4 1477.0,1777.1 1468.8,1769.1 1460.2,1762.5 1451.2,1757.3 1441.8,1753.4 1432.1,1751.0 1422.0,1750.0 1411.6,1750.4 1400.9,1752.2 1389.9,1755.3 1378.7,1759.9 1367.2,1765.7 1355.5,1772.9 1343.6,1781.3 1331.6,1790.9 1319.4,1801.6 1307.2,1813.3 1294.9,1826.1 1282.6,1839.8 1270.3,1854.2 1258.1,1869.4 1246.0,1885.2 1234.1,1901.6 1222.4,1918.3 1210.9,1935.2  A 522.500,522.500 0.00 0,1 1169.5,1904.7 L 1169.5,1904.7 1182.8,1888.8 1196.4,1873.1 1210.3,1857.9 1224.4,1843.2 1238.6,1829.2 1253.0,1815.8 1267.4,1803.3 1281.9,1791.7 1296.4,1781.0 1310.8,1771.4 1325.1,1762.9 1339.4,1755.5 1353.5,1749.3 1367.4,1744.4 1381.1,1740.8 1394.6,1738.5 1407.9,1737.5 1420.8,1737.9 1433.4,1739.6 1445.7,1742.7 1457.7,1747.1 1469.3,1752.9 1480.5,1760.0 1491.3,1768.4 1501.7,1778.1 1511.6,1789.0 1521.2,1801.0 1530.2,1814.2 1538.9,1828.5 1547.1,1843.8 1554.8,1860.0 1562.1,1877.1 1568.9,1895.0 1575.3,1913.5 1581.2,1932.6 1586.7,1952.2 1591.8,1972.2 1596.4,1992.4 1600.6,2012.7  Z" style="stroke-width: 0.5;  stroke: rgb(0,0,0); fill: rgb(179,177,178);" />
<path d="M 1906.918,1827.756 A 522.500,522.500 0.00 0,1 1879.1,1859.5 L 1879.1,1859.5 1862.2,1843.9 1844.8,1828.4 1827.0,1813.3 1808.6,1798.6 1789.8,1784.2 1770.6,1770.4 1750.9,1757.1 1730.9,1744.3 1710.4,1732.2 1689.6,1720.7 1668.5,1710.0 1647.1,1700.0 1625.3,1690.7 1603.3,1682.2 1581.0,1674.6 1558.5,1667.7 1535.8,1661.7 1512.8,1656.6 1489.8,1652.4 1466.5,1649.0 1443.2,1646.5 1419.8,1644.9 1396.3,1644.2 1372.7,1644.4 1349.2,1645.4 1325.7,1647.2 1302.2,1649.9 1278.8,1653.5 1255.5,1657.8 1232.3,1662.9 1209.2,1668.7 1186.4,1675.2 1163.8,1682.4 1141.4,1690.2 1119.3,1698.6 1097.5,1707.5 1076.1,1716.9 1055.0,1726.8 1034.4,1737.0  A 522.500,522.500 0.00 0,1 1016.8,1698.8 L 1016.8,1698.8 1038.6,1690.1 1060.8,1681.7 1083.4,1673.8 1106.3,1666.3 1129.4,1659.3 1152.9,1652.8 1176.5,1647.0 1200.4,1641.7 1224.4,1637.1 1248.6,1633.1 1272.9,1629.8 1297.3,1627.2 1321.8,1625.3 1346.3,1624.2 1370.9,1623.9 1395.4,1624.3 1419.9,1625.4 1444.4,1627.4 1468.8,1630.1 1493.0,1633.6 1517.2,1637.9 1541.2,1643.0 1565.0,1648.8 1588.7,1655.4 1612.1,1662.7 1635.3,1670.8 1658.2,1679.5 1680.9,1688.9 1703.3,1698.9 1725.4,1709.6 1747.1,1720.9 1768.5,1732.7 1789.5,1745.1 1810.1,1757.9 1830.4,1771.2 1850.2,1784.9 1869.5,1798.9 1888.5,1813.2 1906.9,1827.8  Z" style="stroke-width: 0.5;  stroke: rgb(0,0,0); fill: rgb(179,177,178);" />
<path d="M 1990.464,1680.141 A 522.500,522.500 0.00 0,1 1975.1,1717.5 L 1975.1,1717.5 1952.5,1707.3 1929.6,1697.4 1906.3,1687.7 1882.8,1678.2 1859.0,1669.1 1835.0,1660.2 1810.6,1651.7 1786.1,1643.6 1761.3,1635.8 1736.3,1628.4 1711.2,1621.4 1685.8,1614.9 1660.3,1608.8 1634.6,1603.1 1608.8,1597.9 1582.8,1593.1 1556.8,1588.8 1530.7,1585.0 1504.5,1581.7 1478.2,1578.9 1451.9,1576.5 1425.5,1574.6 1399.2,1573.3 1372.8,1572.4 1346.5,1571.9 1320.2,1572.0 1293.9,1572.5 1267.8,1573.5 1241.7,1574.9 1215.7,1576.8 1189.8,1579.1 1164.1,1581.8 1138.5,1584.9 1113.1,1588.4 1087.9,1592.3 1062.9,1596.5 1038.2,1601.0 1013.7,1605.8 989.4,1610.9  A 522.500,522.500 0.00 0,1 982.4,1571.6 L 982.4,1571.6 1007.5,1568.3 1032.7,1565.2 1058.2,1562.3 1083.8,1559.7 1109.6,1557.4 1135.5,1555.3 1161.6,1553.6 1187.8,1552.2 1214.1,1551.1 1240.4,1550.3 1266.9,1549.9 1293.5,1549.8 1320.1,1550.1 1346.7,1550.8 1373.4,1551.8 1400.1,1553.2 1426.8,1554.9 1453.5,1557.0 1480.1,1559.5 1506.8,1562.4 1533.3,1565.6 1559.9,1569.2 1586.3,1573.2 1612.7,1577.5 1639.0,1582.2 1665.1,1587.3 1691.2,1592.7 1717.1,1598.4 1742.9,1604.4 1768.5,1610.8 1794.0,1617.5 1819.3,1624.4 1844.4,1631.7 1869.3,1639.2 1894.0,1646.9 1918.5,1654.9 1942.7,1663.1 1966.7,1671.5 1990.5,1680.1  Z" style="stroke-width: 0.5;  stroke: rgb(0,0,0); fill: rgb(179,177,178);" />
<path d="M 1980.683,1295.182 A 522.500,522.500 0.00 0,1 1995.0,1332.8 L 1995.0,1332.8 1970.5,1341.1 1945.7,1349.2 1920.8,1357.2 1895.8,1365.1 1870.6,1372.8 1845.3,1380.4 1819.8,1387.9 1794.3,1395.2 1768.6,1402.3 1742.8,1409.3 1716.9,1416.1 1690.9,1422.7 1664.9,1429.1 1638.7,1435.3 1612.5,1441.4 1586.1,1447.2 1559.8,1452.8 1533.3,1458.2 1506.8,1463.5 1480.3,1468.5 1453.8,1473.3 1427.2,1477.8 1400.5,1482.2 1373.9,1486.4 1347.3,1490.3 1320.6,1494.0 1294.0,1497.6 1267.4,1500.9 1240.8,1504.0 1214.3,1506.9 1187.8,1509.6 1161.3,1512.1 1134.9,1514.5 1108.5,1516.6 1082.3,1518.5 1056.1,1520.3 1030.0,1521.9 1004.0,1523.4 978.1,1524.7  A 522.500,522.500 0.00 0,1 977.7,1485.6 L 977.7,1485.6 1003.1,1486.2 1028.7,1486.6 1054.5,1486.7 1080.4,1486.6 1106.4,1486.2 1132.6,1485.6 1158.8,1484.6 1185.1,1483.4 1211.5,1481.9 1238.0,1480.1 1264.5,1478.0 1291.0,1475.6 1317.5,1472.9 1344.1,1469.8 1370.7,1466.4 1397.3,1462.7 1423.8,1458.7 1450.3,1454.3 1476.8,1449.6 1503.2,1444.6 1529.5,1439.3 1555.8,1433.6 1581.9,1427.6 1608.0,1421.4 1634.0,1414.8 1659.8,1407.9 1685.5,1400.7 1711.1,1393.2 1736.5,1385.5 1761.8,1377.5 1786.9,1369.2 1811.8,1360.7 1836.6,1351.9 1861.1,1342.9 1885.5,1333.7 1909.6,1324.3 1933.5,1314.8 1957.2,1305.1 1980.7,1295.2  Z" style="stroke-width: 0.5;  stroke: rgb(0,0,0); fill: rgb(179,177,178);" />
<path d="M 1873.641,1865.238 A 522.500,522.500 0.00 0,1 1847.7,1890.0 L 1847.7,1890.0 1832.7,1873.6 1817.1,1857.4 1801.1,1841.5 1784.6,1826.1 1767.6,1811.1 1750.2,1796.7 1732.4,1783.0 1714.2,1769.9 1695.6,1757.5 1676.7,1746.0 1657.5,1735.3 1637.9,1725.5 1618.1,1716.5 1598.0,1708.6 1577.7,1701.6 1557.2,1695.6 1536.5,1690.6 1515.7,1686.7 1494.7,1683.8 1473.6,1682.0 1452.4,1681.2 1431.2,1681.5 1410.0,1682.8 1388.8,1685.2 1367.6,1688.6 1346.4,1693.0 1325.4,1698.4 1304.4,1704.7 1283.6,1711.9 1263.0,1720.0 1242.6,1729.0 1222.4,1738.8 1202.5,1749.2 1182.9,1760.4 1163.6,1772.2 1144.7,1784.6 1126.1,1797.5 1108.0,1810.8 1090.4,1824.4  A 522.500,522.500 0.00 0,1 1069.2,1795.7 L 1069.2,1795.7 1088.0,1783.1 1107.3,1770.8 1127.0,1759.0 1147.1,1747.7 1167.5,1736.9 1188.3,1726.7 1209.3,1717.1 1230.7,1708.3 1252.2,1700.2 1274.0,1692.9 1295.9,1686.4 1318.0,1680.7 1340.2,1676.0 1362.5,1672.1 1384.8,1669.2 1407.2,1667.3 1429.6,1666.3 1452.0,1666.2 1474.3,1667.2 1496.6,1669.1 1518.8,1672.0 1540.8,1675.9 1562.7,1680.7 1584.4,1686.5 1605.9,1693.2 1627.2,1700.8 1648.3,1709.3 1669.1,1718.6 1689.6,1728.8 1709.8,1739.7 1729.6,1751.4 1749.1,1763.8 1768.2,1776.8 1786.9,1790.4 1805.2,1804.6 1823.0,1819.2 1840.4,1834.2 1857.3,1849.6 1873.6,1865.2  Z" style="stroke-width: 0.5;  stroke: rgb(0,0,0); fill: rgb(179,177,178);" />
<path d="M 1973.638,1720.619 A 522.500,522.500 0.00 0,1 1959.3,1749.1 L 1959.3,1749.1 1937.8,1737.6 1915.9,1726.4 1893.7,1715.4 1871.1,1704.8 1848.2,1694.5 1825.0,1684.6 1801.5,1675.0 1777.7,1665.9 1753.6,1657.2 1729.3,1649.0 1704.8,1641.2 1680.1,1634.0 1655.1,1627.3 1630.0,1621.1 1604.8,1615.4 1579.3,1610.3 1553.8,1605.8 1528.1,1601.9 1502.4,1598.5 1476.6,1595.7 1450.7,1593.5 1424.8,1591.8 1398.9,1590.8 1373.0,1590.3 1347.1,1590.4 1321.2,1591.1 1295.4,1592.3 1269.7,1594.1 1244.1,1596.4 1218.6,1599.2 1193.2,1602.6 1168.0,1606.4 1143.0,1610.7 1118.2,1615.4 1093.6,1620.6 1069.3,1626.1 1045.2,1632.1 1021.5,1638.3 998.0,1644.9  A 522.500,522.500 0.00 0,1 990.4,1615.2 L 990.4,1615.2 1014.5,1609.9 1039.0,1604.9 1063.6,1600.2 1088.6,1595.8 1113.7,1591.8 1139.0,1588.1 1164.5,1584.9 1190.2,1582.0 1216.0,1579.6 1241.9,1577.6 1268.0,1576.0 1294.1,1574.9 1320.3,1574.3 1346.6,1574.1 1372.9,1574.5 1399.2,1575.3 1425.5,1576.6 1451.8,1578.4 1478.1,1580.8 1504.3,1583.6 1530.5,1586.9 1556.6,1590.7 1582.6,1595.0 1608.5,1599.7 1634.2,1605.0 1659.8,1610.7 1685.3,1616.9 1710.6,1623.5 1735.7,1630.5 1760.7,1638.0 1785.4,1645.8 1809.8,1654.0 1834.1,1662.6 1858.1,1671.6 1881.8,1680.8 1905.2,1690.4 1928.3,1700.2 1951.1,1710.3 1973.6,1720.6  Z" style="stroke-width: 0.5;  stroke: rgb(0,0,0); fill: rgb(179,177,178);" />
<path d="M 1958.940,1749.761 A 522.500,522.500 0.00 0,1 1943.6,1776.1 L 1943.6,1776.1 1923.1,1763.5 1902.2,1751.3 1880.9,1739.3 1859.2,1727.7 1837.2,1716.4 1814.8,1705.5 1792.1,1695.1 1769.1,1685.2 1745.7,1675.7 1722.1,1666.8 1698.3,1658.4 1674.2,1650.5 1649.9,1643.3 1625.4,1636.7 1600.7,1630.7 1575.8,1625.3 1550.8,1620.5 1525.7,1616.5 1500.5,1613.0 1475.2,1610.3 1449.8,1608.2 1424.4,1606.8 1399.0,1606.0 1373.5,1605.9 1348.1,1606.5 1322.8,1607.7 1297.5,1609.5 1272.3,1612.0 1247.2,1615.0 1222.2,1618.7 1197.4,1622.9 1172.7,1627.6 1148.3,1632.9 1124.1,1638.7 1100.2,1645.0 1076.5,1651.7 1053.1,1658.8 1030.0,1666.2 1007.3,1674.0  A 522.500,522.500 0.00 0,1 998.0,1645.0 L 998.0,1645.0 1021.5,1638.4 1045.2,1632.1 1069.3,1626.2 1093.6,1620.6 1118.2,1615.5 1143.0,1610.7 1168.0,1606.5 1193.2,1602.6 1218.6,1599.3 1244.0,1596.5 1269.7,1594.2 1295.4,1592.4 1321.2,1591.2 1347.0,1590.5 1372.9,1590.4 1398.8,1590.9 1424.7,1592.0 1450.6,1593.6 1476.5,1595.9 1502.3,1598.7 1528.0,1602.1 1553.7,1606.1 1579.2,1610.6 1604.6,1615.7 1629.9,1621.4 1655.0,1627.6 1679.9,1634.4 1704.6,1641.6 1729.1,1649.4 1753.4,1657.6 1777.5,1666.4 1801.2,1675.5 1824.7,1685.1 1847.9,1695.1 1870.8,1705.4 1893.4,1716.1 1915.6,1727.0 1937.4,1738.3 1958.9,1749.8  Z" style="stroke-width: 0.5;  stroke: rgb(0,0,0); fill: rgb(179,177,178);" />
<path d="M 2008.849,1618.657 A 522.500,522.500 0.00 0,1 2002.6,1642.8 L 2002.6,1642.8 1977.9,1635.9 1953.1,1629.1 1928.0,1622.5 1902.8,1616.1 1877.4,1609.9 1851.8,1603.8 1826.1,1598.0 1800.2,1592.4 1774.3,1587.0 1748.2,1581.9 1721.9,1577.0 1695.6,1572.4 1669.2,1568.0 1642.7,1563.9 1616.1,1560.1 1589.5,1556.5 1562.8,1553.2 1536.0,1550.2 1509.2,1547.5 1482.4,1545.0 1455.5,1542.8 1428.7,1541.0 1401.8,1539.4 1374.9,1538.1 1348.1,1537.0 1321.3,1536.3 1294.5,1535.8 1267.8,1535.6 1241.1,1535.7 1214.5,1536.0 1188.0,1536.6 1161.6,1537.5 1135.2,1538.5 1109.0,1539.8 1082.9,1541.4 1056.9,1543.1 1031.1,1545.1 1005.4,1547.2 979.9,1549.6  A 522.500,522.500 0.00 0,1 978.1,1525.2 L 978.1,1525.2 1004.0,1524.0 1030.0,1523.0 1056.2,1522.1 1082.4,1521.4 1108.8,1520.8 1135.2,1520.4 1161.7,1520.2 1188.3,1520.2 1214.9,1520.3 1241.6,1520.7 1268.4,1521.3 1295.2,1522.0 1322.1,1523.0 1348.9,1524.1 1375.8,1525.5 1402.7,1527.1 1429.6,1528.9 1456.5,1530.9 1483.4,1533.1 1510.3,1535.6 1537.2,1538.2 1564.0,1541.1 1590.8,1544.2 1617.6,1547.4 1644.3,1550.9 1670.9,1554.6 1697.5,1558.5 1724.0,1562.6 1750.4,1566.8 1776.8,1571.3 1803.0,1575.9 1829.2,1580.7 1855.2,1585.7 1881.1,1590.8 1906.9,1596.1 1932.6,1601.6 1958.2,1607.1 1983.6,1612.8 2008.8,1618.7  Z" style="stroke-width: 0.5;  stroke: rgb(0,0,0); fill: rgb(179,177,178);" />
<path d="M 1762.484,1951.784 A 522.500,522.500 0.00 0,1 1742.5,1962.8 L 1742.5,1962.8 1732.4,1944.1 1721.9,1925.6 1710.8,1907.4 1699.4,1889.6 1687.5,1872.4 1675.2,1855.8 1662.5,1839.8 1649.4,1824.7 1635.9,1810.4 1622.1,1797.1 1607.9,1784.7 1593.4,1773.4 1578.7,1763.1 1563.6,1754.1 1548.3,1746.1 1532.8,1739.4 1517.1,1734.0 1501.2,1729.8 1485.1,1726.8 1468.8,1725.2 1452.5,1724.8 1436.0,1725.7 1419.5,1727.9 1402.9,1731.3 1386.4,1736.0 1369.8,1741.8 1353.3,1748.9 1336.8,1757.0 1320.5,1766.3 1304.2,1776.6 1288.2,1787.9 1272.3,1800.0 1256.6,1813.1 1241.2,1826.9 1226.1,1841.4 1211.2,1856.4 1196.8,1872.0 1182.7,1888.0 1169.0,1904.3  A 522.500,522.500 0.00 0,1 1151.5,1889.3 L 1151.5,1889.3 1166.0,1873.5 1180.9,1858.0 1196.2,1842.9 1211.9,1828.4 1227.9,1814.4 1244.2,1801.1 1260.8,1788.6 1277.6,1776.9 1294.6,1766.1 1311.8,1756.2 1329.1,1747.4 1346.5,1739.6 1364.0,1732.9 1381.6,1727.4 1399.1,1723.0 1416.7,1719.8 1434.2,1717.9 1451.7,1717.1 1469.0,1717.7 1486.3,1719.4 1503.4,1722.4 1520.3,1726.7 1537.1,1732.1 1553.6,1738.8 1569.9,1746.6 1586.0,1755.6 1601.8,1765.7 1617.3,1776.8 1632.4,1789.0 1647.3,1802.1 1661.7,1816.1 1675.8,1831.0 1689.5,1846.6 1702.8,1863.0 1715.7,1879.9 1728.1,1897.3 1740.0,1915.2 1751.5,1933.4 1762.5,1951.8  Z" style="stroke-width: 0.5;  stroke: rgb(0,0,0); fill: rgb(179,177,178);" />
<path d="M 1942.197,1778.330 A 522.500,522.500 0.00 0,1 1930.0,1796.9 L 1930.0,1796.9 1910.3,1783.6 1890.2,1770.5 1869.7,1757.8 1848.8,1745.4 1827.5,1733.4 1805.8,1721.9 1783.8,1710.8 1761.4,1700.2 1738.7,1690.2 1715.8,1680.7 1692.5,1671.8 1669.0,1663.5 1645.3,1655.9 1621.3,1649.0 1597.2,1642.7 1572.8,1637.1 1548.3,1632.2 1523.7,1628.1 1499.0,1624.7 1474.2,1622.0 1449.3,1620.0 1424.3,1618.8 1399.4,1618.2 1374.4,1618.5 1349.5,1619.4 1324.6,1621.0 1299.8,1623.4 1275.0,1626.4 1250.4,1630.1 1226.0,1634.4 1201.7,1639.3 1177.5,1644.8 1153.6,1650.9 1130.0,1657.5 1106.6,1664.7 1083.5,1672.3 1060.7,1680.3 1038.3,1688.7 1016.3,1697.5  A 522.500,522.500 0.00 0,1 1008.4,1676.9 L 1008.4,1676.9 1031.0,1669.0 1054.0,1661.4 1077.3,1654.2 1100.9,1647.4 1124.8,1641.0 1148.9,1635.1 1173.3,1629.7 1197.9,1624.9 1222.6,1620.6 1247.5,1616.8 1272.6,1613.7 1297.7,1611.2 1323.0,1609.3 1348.3,1608.0 1373.7,1607.4 1399.0,1607.5 1424.4,1608.2 1449.8,1609.6 1475.1,1611.6 1500.4,1614.4 1525.5,1617.8 1550.6,1621.9 1575.5,1626.6 1600.3,1632.0 1625.0,1638.1 1649.4,1644.7 1673.7,1652.0 1697.7,1659.9 1721.5,1668.3 1745.0,1677.3 1768.3,1686.8 1791.2,1696.8 1813.9,1707.3 1836.2,1718.3 1858.2,1729.6 1879.8,1741.3 1901.0,1753.4 1921.8,1765.7 1942.2,1778.3  Z" style="stroke-width: 0.5;  stroke: rgb(0,0,0); fill: rgb(179,177,178);" />
<path d="M 2002.615,1642.776 A 522.500,522.500 0.00 0,1 1997.0,1661.3 L 1997.0,1661.3 1972.8,1653.6 1948.4,1646.0 1923.7,1638.7 1898.9,1631.5 1873.8,1624.6 1848.6,1617.9 1823.2,1611.4 1797.6,1605.2 1771.9,1599.3 1746.0,1593.7 1720.0,1588.3 1693.9,1583.3 1667.6,1578.5 1641.3,1574.1 1614.8,1570.0 1588.3,1566.3 1561.7,1562.8 1535.0,1559.7 1508.3,1557.0 1481.6,1554.5 1454.8,1552.5 1428.0,1550.7 1401.3,1549.3 1374.5,1548.3 1347.7,1547.6 1321.0,1547.2 1294.3,1547.1 1267.7,1547.4 1241.2,1548.0 1214.7,1548.9 1188.3,1550.1 1162.1,1551.6 1135.9,1553.4 1109.9,1555.5 1084.0,1557.8 1058.3,1560.4 1032.7,1563.2 1007.3,1566.3 982.1,1569.5  A 522.500,522.500 0.00 0,1 980.0,1550.8 L 980.0,1550.8 1005.5,1548.4 1031.2,1546.2 1057.0,1544.2 1083.0,1542.4 1109.1,1540.8 1135.3,1539.4 1161.6,1538.3 1188.0,1537.4 1214.6,1536.8 1241.2,1536.4 1267.8,1536.3 1294.5,1536.4 1321.3,1536.9 1348.1,1537.6 1375.0,1538.5 1401.8,1539.8 1428.7,1541.4 1455.5,1543.2 1482.4,1545.3 1509.2,1547.7 1536.0,1550.4 1562.8,1553.4 1589.5,1556.7 1616.2,1560.2 1642.7,1564.1 1669.2,1568.1 1695.7,1572.5 1722.0,1577.1 1748.2,1582.0 1774.3,1587.1 1800.3,1592.5 1826.1,1598.0 1851.8,1603.9 1877.4,1609.9 1902.8,1616.1 1928.0,1622.5 1953.1,1629.1 1977.9,1635.9 2002.6,1642.8  Z" style="stroke-width: 0.5;  stroke: rgb(0,0,0); fill: rgb(179,177,178);" />
<path d="M 1784.479,1061.733 A 522.500,522.500 0.00 0,1 1800.1,1072.3 L 1800.1,1072.3 1787.1,1090.3 1773.6,1108.2 1759.5,1125.8 1745.0,1142.9 1729.9,1159.7 1714.3,1175.9 1698.3,1191.6 1681.8,1206.6 1664.8,1220.9 1647.4,1234.4 1629.6,1247.2 1611.5,1259.0 1592.9,1270.0 1574.0,1280.1 1554.7,1289.2 1535.2,1297.3 1515.3,1304.5 1495.2,1310.6 1474.8,1315.6 1454.2,1319.6 1433.5,1322.6 1412.5,1324.5 1391.5,1325.3 1370.3,1325.1 1349.0,1323.9 1327.7,1321.6 1306.4,1318.4 1285.0,1314.2 1263.8,1309.0 1242.6,1303.0 1221.5,1296.1 1200.6,1288.4 1179.8,1279.9 1159.3,1270.7 1139.1,1260.8 1119.1,1250.3 1099.5,1239.3 1080.3,1227.8 1061.5,1215.9  A 522.500,522.500 0.00 0,1 1071.9,1200.4 L 1071.9,1200.4 1090.1,1212.8 1108.8,1224.9 1127.8,1236.5 1147.2,1247.5 1166.9,1258.0 1186.8,1267.7 1207.0,1276.8 1227.3,1285.0 1247.8,1292.4 1268.4,1298.9 1289.0,1304.5 1309.7,1309.1 1330.4,1312.7 1351.1,1315.3 1371.8,1316.9 1392.3,1317.4 1412.7,1316.8 1433.0,1315.1 1453.1,1312.3 1473.0,1308.4 1492.7,1303.4 1512.2,1297.4 1531.3,1290.3 1550.2,1282.1 1568.7,1273.0 1586.9,1262.8 1604.8,1251.7 1622.3,1239.6 1639.3,1226.7 1656.0,1213.0 1672.2,1198.4 1687.9,1183.1 1703.2,1167.2 1718.0,1150.7 1732.4,1133.6 1746.2,1116.1 1759.5,1098.3 1772.2,1080.1 1784.5,1061.7  Z" style="stroke-width: 0.5;  stroke: rgb(0,0,0); fill: rgb(179,177,178);" />
<path d="M 1778.691,1941.970 A 522.500,522.500 0.00 0,1 1765.7,1949.9 L 1765.7,1949.9 1754.6,1931.6 1742.9,1913.4 1730.9,1895.6 1718.3,1878.2 1705.3,1861.4 1691.9,1845.1 1678.0,1829.6 1663.8,1814.8 1649.2,1800.8 1634.2,1787.7 1618.9,1775.6 1603.3,1764.5 1587.3,1754.5 1571.2,1745.6 1554.7,1737.8 1538.0,1731.2 1521.1,1725.7 1504.1,1721.5 1486.8,1718.5 1469.5,1716.8 1452.0,1716.3 1434.4,1717.0 1416.8,1719.0 1399.1,1722.1 1381.4,1726.5 1363.8,1732.0 1346.2,1738.7 1328.7,1746.5 1311.3,1755.3 1294.0,1765.1 1276.9,1775.9 1260.0,1787.6 1243.3,1800.1 1227.0,1813.3 1210.9,1827.3 1195.1,1841.8 1179.7,1856.9 1164.7,1872.3 1150.1,1888.1  A 522.500,522.500 0.00 0,1 1139.0,1877.7 L 1139.0,1877.7 1154.1,1862.3 1169.7,1847.2 1185.6,1832.5 1201.9,1818.4 1218.6,1804.8 1235.6,1791.9 1252.8,1779.7 1270.3,1768.4 1288.0,1757.9 1305.8,1748.4 1323.9,1739.8 1342.0,1732.3 1360.2,1725.9 1378.5,1720.6 1396.8,1716.4 1415.1,1713.4 1433.3,1711.6 1451.5,1711.0 1469.7,1711.6 1487.7,1713.4 1505.6,1716.4 1523.3,1720.6 1540.8,1726.0 1558.2,1732.6 1575.3,1740.3 1592.1,1749.2 1608.7,1759.1 1625.0,1770.0 1640.9,1782.0 1656.5,1794.9 1671.8,1808.7 1686.7,1823.3 1701.1,1838.6 1715.2,1854.6 1728.8,1871.3 1742.0,1888.4 1754.7,1906.0 1767.0,1923.9 1778.7,1942.0  Z" style="stroke-width: 0.5;  stroke: rgb(0,0,0); fill: rgb(179,177,178);" />
<path d="M 1731.889,1031.776 A 522.500,522.500 0.00 0,1 1742.2,1037.0 L 1742.2,1037.0 1731.8,1056.3 1720.9,1075.3 1709.5,1094.1 1697.5,1112.6 1685.1,1130.6 1672.1,1148.1 1658.5,1165.0 1644.5,1181.2 1630.0,1196.7 1615.1,1211.5 1599.6,1225.3 1583.7,1238.3 1567.4,1250.4 1550.7,1261.4 1533.6,1271.4 1516.1,1280.4 1498.2,1288.3 1480.0,1295.1 1461.5,1300.8 1442.7,1305.4 1423.7,1308.8 1404.4,1311.2 1384.9,1312.3 1365.2,1312.4 1345.4,1311.4 1325.4,1309.2 1305.4,1306.0 1285.4,1301.8 1265.3,1296.6 1245.2,1290.4 1225.2,1283.2 1205.3,1275.3 1185.5,1266.4 1165.9,1256.9 1146.6,1246.6 1127.5,1235.7 1108.7,1224.3 1090.2,1212.3 1072.2,1200.0  A 522.500,522.500 0.00 0,1 1079.0,1190.6 L 1079.0,1190.6 1096.6,1203.3 1114.7,1215.5 1133.1,1227.3 1151.9,1238.6 1170.9,1249.2 1190.1,1259.1 1209.5,1268.2 1229.0,1276.5 1248.6,1284.0 1268.3,1290.5 1288.0,1296.0 1307.6,1300.5 1327.2,1303.9 1346.8,1306.3 1366.2,1307.6 1385.4,1307.7 1404.5,1306.7 1423.3,1304.5 1441.9,1301.2 1460.3,1296.8 1478.3,1291.2 1496.1,1284.4 1513.5,1276.5 1530.5,1267.6 1547.1,1257.6 1563.4,1246.5 1579.2,1234.4 1594.6,1221.4 1609.6,1207.4 1624.1,1192.6 1638.1,1177.0 1651.6,1160.7 1664.6,1143.7 1677.2,1126.0 1689.2,1107.9 1700.6,1089.3 1711.6,1070.3 1722.0,1051.1 1731.9,1031.8  Z" style="stroke-width: 0.5;  stroke: rgb(0,0,0); fill: rgb(179,177,178);" />
<path d="M 1974.451,1281.134 A 522.500,522.500 0.00 0,1 1979.1,1291.6 L 1979.1,1291.6 1955.8,1301.6 1932.2,1311.5 1908.4,1321.2 1884.3,1330.8 1860.0,1340.1 1835.6,1349.2 1810.9,1358.2 1786.0,1366.8 1761.0,1375.2 1735.8,1383.4 1710.4,1391.3 1684.9,1398.9 1659.2,1406.2 1633.4,1413.2 1607.5,1419.9 1581.4,1426.3 1555.3,1432.3 1529.1,1438.1 1502.8,1443.5 1476.4,1448.6 1450.0,1453.4 1423.5,1457.8 1397.0,1461.9 1370.4,1465.7 1343.9,1469.1 1317.3,1472.2 1290.8,1475.0 1264.3,1477.4 1237.8,1479.5 1211.3,1481.4 1185.0,1482.9 1158.7,1484.1 1132.4,1485.0 1106.3,1485.6 1080.3,1486.0 1054.4,1486.1 1028.7,1486.0 1003.1,1485.6 977.7,1484.9  A 522.500,522.500 0.00 0,1 978.2,1473.5 L 978.2,1473.5 1003.4,1474.7 1028.9,1475.6 1054.5,1476.2 1080.2,1476.6 1106.1,1476.7 1132.2,1476.5 1158.3,1476.0 1184.5,1475.2 1210.8,1474.0 1237.2,1472.5 1263.7,1470.7 1290.1,1468.5 1316.6,1466.0 1343.1,1463.1 1369.6,1459.8 1396.1,1456.2 1422.6,1452.2 1449.0,1447.9 1475.4,1443.2 1501.7,1438.1 1527.9,1432.6 1554.1,1426.8 1580.1,1420.7 1606.0,1414.2 1631.9,1407.3 1657.5,1400.2 1683.1,1392.6 1708.4,1384.8 1733.7,1376.7 1758.7,1368.2 1783.5,1359.5 1808.2,1350.5 1832.6,1341.3 1856.9,1331.8 1880.9,1322.0 1904.6,1312.1 1928.2,1301.9 1951.4,1291.6 1974.5,1281.1  Z" style="stroke-width: 0.5;  stroke: rgb(0,0,0); fill: rgb(179,177,178);" />
</g>
<g id="plot0">
<g id="plot0-axis">
</g>
<line x1='2244.2' y1='1593.1' x2='2244.2' y2='1593.1' style="stroke-width:14.0;stroke:rgb(0,0,0);stroke-linecap:round;fill:none;" />
<line x1='2244.2' y1='1593.1' x2='2283.9' y2='1598.1' style="stroke-width:14.0;stroke:rgb(0,0,0);stroke-linecap:round;fill:none;" />
<line x1='2283.9' y1='1598.1' x2='2283.9' y2='1598.1' style="stroke-width:14.0;stroke:rgb(0,0,0);stroke-linecap:round;fill:none;" />
<text x="2300.6" y="1622.9" font-size="46.8px" font-family="CMUBright-Roman" style="text-anchor:start;fill:rgb(255,38,78);" transform="rotate(7.1,2300.6,1622.9)" >HistocapSECH101<tspan baseline-shift="-40%" font-size="90%">s</tspan>01346</text>
</g>
<defs>
<pattern id="checker" width="10" height="10" patternTransform="rotate(45 0 0)" patternUnits="userSpaceOnUse"><line x1="0" y1="0" x2="10" y2="0" style="stroke:black;stroke-width:5" /><line x1="0" y1="0" x2="0" y2="10" style="stroke:black;stroke-width:4" /></pattern>
<pattern id="vline-sparse" width="10" height="10" patternTransform="rotate(0 0 0)" patternUnits="userSpaceOnUse"><line x1="0" y1="0" x2="0" y2="10" style="stroke:black;stroke-width:2" /></pattern>
<pattern id="hline" width="10" height="10" patternTransform="rotate(0 0 0)" patternUnits="userSpaceOnUse"><line x1="0" y1="0" x2="10" y2="0" style="stroke:black;stroke-width:5" /></pattern>
<pattern id="vline" width="10" height="10" patternTransform="rotate(0 0 0)" patternUnits="userSpaceOnUse"><line x1="0" y1="0" x2="0" y2="10" style="stroke:black;stroke-width:5" /></pattern>
<pattern id="checker" width="10" height="10" patternTransform="rotate(45 0 0)" patternUnits="userSpaceOnUse"><line x1="0" y1="0" x2="10" y2="0" style="stroke:black;stroke-width:2" /><line x1="0" y1="0" x2="0" y2="10" style="stroke:black;stroke-width:2" /></pattern>
<pattern id="hline-sparse" width="10" height="10" patternTransform="rotate(0 0 0)" patternUnits="userSpaceOnUse"><line x1="0" y1="0" x2="10" y2="0" style="stroke:black;stroke-width:2" /></pattern>
</defs>
</svg>
