<?xml version="1.0" encoding="utf-8" standalone="no"?>
<!DOCTYPE svg PUBLIC "-//W3C//DTD SVG 1.1//EN" "http://www.w3.org/Graphics/SVG/1.1/DTD/svg11.dtd">
<svg width="3000px" height="3000px" version="1.1" xmlns="http://www.w3.org/2000/svg" xmlns:xlink="http://www.w3.org/1999/xlink">
<g id="bg">
<rect x="0" y="0" width="3000px" height="3000px" style="fill:rgb(255,255,255);"/>
</g>
<g id="ideograms">
<path d="M1500.000,950.000 A550.000,550.000 40.000 0,1 1664.770,2024.739 L1724.687,2215.553 A750.000,750.000 0.000 0,0 1500.000,750.000 Z" style="stroke-width:2.0;stroke:rgb(0,0,0);stroke-linecap:round;fill:rgb(179,177,178);" />
<text x="2463.7" y="1352.2" font-size="46.8px" font-family="CMUBright-Roman" style="text-anchor:middle;fill:rgb(0,0,0);" transform="rotate(441.3,2463.7,1352.2)" >HistoohiSECH82<tspan baseline-shift="-40%" font-size="90%">1</tspan></text>
<line x1='1582.9' y1='754.6' x2='1584.2' y2='742.7' style="stroke-width:8.0;stroke:rgb(150,150,150);stroke-linecap:round;fill:none;" />
<text x="1599.5" y="732.4" font-size="41.6px" font-family="CMUBright-Roman" style="text-anchor:start;fill:rgb(150,150,150);" transform="rotate(276.3,1599.5,732.4)" >4050 kb</text>
<line x1='1680.3' y1='772.0' x2='1683.2' y2='760.4' style="stroke-width:8.0;stroke:rgb(150,150,150);stroke-linecap:round;fill:none;" />
<line x1='1774.6' y1='802.1' x2='1779.0' y2='790.9' style="stroke-width:8.0;stroke:rgb(150,150,150);stroke-linecap:round;fill:none;" />
<line x1='1864.1' y1='844.3' x2='1869.9' y2='833.8' style="stroke-width:8.0;stroke:rgb(150,150,150);stroke-linecap:round;fill:none;" />
<line x1='1947.3' y1='898.0' x2='1954.4' y2='888.3' style="stroke-width:8.0;stroke:rgb(150,150,150);stroke-linecap:round;fill:none;" />
<line x1='2022.6' y1='962.1' x2='2031.0' y2='953.5' style="stroke-width:8.0;stroke:rgb(150,150,150);stroke-linecap:round;fill:none;" />
<text x="2049.3" y="954.7" font-size="41.6px" font-family="CMUBright-Roman" style="text-anchor:start;fill:rgb(150,150,150);" transform="rotate(314.2,2049.3,954.7)" >4100 kb</text>
<line x1='2088.9' y1='1035.6' x2='2098.3' y2='1028.2' style="stroke-width:8.0;stroke:rgb(150,150,150);stroke-linecap:round;fill:none;" />
<line x1='2144.9' y1='1117.2' x2='2155.3' y2='1111.0' style="stroke-width:8.0;stroke:rgb(150,150,150);stroke-linecap:round;fill:none;" />
<line x1='2189.7' y1='1205.4' x2='2200.8' y2='1200.7' style="stroke-width:8.0;stroke:rgb(150,150,150);stroke-linecap:round;fill:none;" />
<line x1='2222.5' y1='1298.8' x2='2234.1' y2='1295.6' style="stroke-width:8.0;stroke:rgb(150,150,150);stroke-linecap:round;fill:none;" />
<line x1='2242.7' y1='1395.7' x2='2254.6' y2='1394.0' style="stroke-width:8.0;stroke:rgb(150,150,150);stroke-linecap:round;fill:none;" />
<text x="2268.3" y="1406.2" font-size="41.6px" font-family="CMUBright-Roman" style="text-anchor:start;fill:rgb(150,150,150);" transform="rotate(352.0,2268.3,1406.2)" >4150 kb</text>
<line x1='2250.0' y1='1494.4' x2='2262.0' y2='1494.3' style="stroke-width:8.0;stroke:rgb(150,150,150);stroke-linecap:round;fill:none;" />
<line x1='2244.2' y1='1593.2' x2='2256.1' y2='1594.7' style="stroke-width:8.0;stroke:rgb(150,150,150);stroke-linecap:round;fill:none;" />
<line x1='2225.4' y1='1690.3' x2='2237.1' y2='1693.4' style="stroke-width:8.0;stroke:rgb(150,150,150);stroke-linecap:round;fill:none;" />
<line x1='2194.1' y1='1784.2' x2='2205.2' y2='1788.7' style="stroke-width:8.0;stroke:rgb(150,150,150);stroke-linecap:round;fill:none;" />
<line x1='2150.6' y1='1873.1' x2='2161.0' y2='1879.1' style="stroke-width:8.0;stroke:rgb(150,150,150);stroke-linecap:round;fill:none;" />
<text x="2164.4" y="1897.1" font-size="41.6px" font-family="CMUBright-Roman" style="text-anchor:start;fill:rgb(150,150,150);" transform="rotate(29.8,2164.4,1897.1)" >4200 kb</text>
<line x1='2095.8' y1='1955.5' x2='2105.4' y2='1962.8' style="stroke-width:8.0;stroke:rgb(150,150,150);stroke-linecap:round;fill:none;" />
<line x1='2030.7' y1='2030.0' x2='2039.2' y2='2038.5' style="stroke-width:8.0;stroke:rgb(150,150,150);stroke-linecap:round;fill:none;" />
<line x1='1956.3' y1='2095.3' x2='1963.6' y2='2104.8' style="stroke-width:8.0;stroke:rgb(150,150,150);stroke-linecap:round;fill:none;" />
<line x1='1873.9' y1='2150.1' x2='1879.9' y2='2160.5' style="stroke-width:8.0;stroke:rgb(150,150,150);stroke-linecap:round;fill:none;" />
<line x1='1785.1' y1='2193.7' x2='1789.6' y2='2204.8' style="stroke-width:8.0;stroke:rgb(150,150,150);stroke-linecap:round;fill:none;" />
<text x="1781.2" y="2221.1" font-size="41.6px" font-family="CMUBright-Roman" style="text-anchor:start;fill:rgb(150,150,150);" transform="rotate(67.7,1781.2,2221.1)" >4250 kb</text>
<g id="highlighttrack_0">
<path d="M2032.857,1363.752 A550.000,550.000 40.000 0,1 2049.201,1470.356 L2248.910,1459.576 A750.000,750.000 0.000 0,0 2226.623,1314.207 Z" style="stroke-width:14.0;stroke:rgb(0,0,0);stroke-linecap:round;fill:rgb(255,38,78);" />
</g>
<path d="M1500.000,950.000 A550.000,550.000 40.000 0,1 1664.770,2024.739 L1724.687,2215.553 A750.000,750.000 0.000 0,0 1500.000,750.000 Z" style="stroke-width:2.0;stroke:rgb(0,0,0);stroke-linecap:round;fill:none;" />
<path d="M1449.535,2047.680 A550.000,550.000 40.000 0,1 1287.777,992.593 L1210.605,808.082 A750.000,750.000 0.000 0,0 1431.183,2246.836 Z" style="stroke-width:2.0;stroke:rgb(0,0,0);stroke-linecap:round;fill:rgb(179,177,178);" />
<text x="491.8" y="1654.6" font-size="46.8px" font-family="CMUBright-Roman" style="text-anchor:middle;fill:rgb(0,0,0);" transform="rotate(81.3,491.8,1654.6)" >HistocapCB174<tspan baseline-shift="-40%" font-size="90%">1</tspan></text>
<line x1='1142.2' y1='840.8' x2='1136.5' y2='830.3' style="stroke-width:8.0;stroke:rgb(150,150,150);stroke-linecap:round;fill:none;" />
<line x1='1058.6' y1='893.7' x2='1051.5' y2='884.0' style="stroke-width:8.0;stroke:rgb(150,150,150);stroke-linecap:round;fill:none;" />
<line x1='982.6' y1='957.1' x2='974.3' y2='948.4' style="stroke-width:8.0;stroke:rgb(150,150,150);stroke-linecap:round;fill:none;" />
<text x="956.0" y="949.4" font-size="41.6px" font-family="CMUBright-Roman" style="text-anchor:end;fill:rgb(150,150,150);" transform="rotate(46.4,956.0,949.4)" >4000 kb</text>
<line x1='915.6' y1='1029.9' x2='906.3' y2='1022.4' style="stroke-width:8.0;stroke:rgb(150,150,150);stroke-linecap:round;fill:none;" />
<line x1='858.8' y1='1111.0' x2='848.5' y2='1104.7' style="stroke-width:8.0;stroke:rgb(150,150,150);stroke-linecap:round;fill:none;" />
<line x1='813.2' y1='1198.8' x2='802.2' y2='1193.9' style="stroke-width:8.0;stroke:rgb(150,150,150);stroke-linecap:round;fill:none;" />
<line x1='779.5' y1='1291.8' x2='767.9' y2='1288.5' style="stroke-width:8.0;stroke:rgb(150,150,150);stroke-linecap:round;fill:none;" />
<line x1='758.3' y1='1388.5' x2='746.5' y2='1386.7' style="stroke-width:8.0;stroke:rgb(150,150,150);stroke-linecap:round;fill:none;" />
<text x="732.6" y="1398.8" font-size="41.6px" font-family="CMUBright-Roman" style="text-anchor:end;fill:rgb(150,150,150);" transform="rotate(8.5,732.6,1398.8)" >4050 kb</text>
<line x1='750.1' y1='1487.1' x2='738.1' y2='1486.9' style="stroke-width:8.0;stroke:rgb(150,150,150);stroke-linecap:round;fill:none;" />
<line x1='754.9' y1='1586.0' x2='743.0' y2='1587.3' style="stroke-width:8.0;stroke:rgb(150,150,150);stroke-linecap:round;fill:none;" />
<line x1='772.7' y1='1683.3' x2='761.1' y2='1686.2' style="stroke-width:8.0;stroke:rgb(150,150,150);stroke-linecap:round;fill:none;" />
<line x1='803.2' y1='1777.5' x2='792.1' y2='1781.9' style="stroke-width:8.0;stroke:rgb(150,150,150);stroke-linecap:round;fill:none;" />
<line x1='845.8' y1='1866.8' x2='835.3' y2='1872.7' style="stroke-width:8.0;stroke:rgb(150,150,150);stroke-linecap:round;fill:none;" />
<text x="831.8" y="1890.7" font-size="41.6px" font-family="CMUBright-Roman" style="text-anchor:end;fill:rgb(150,150,150);" transform="rotate(-29.3,831.8,1890.7)" >4100 kb</text>
<line x1='899.8' y1='1949.7' x2='890.2' y2='1956.9' style="stroke-width:8.0;stroke:rgb(150,150,150);stroke-linecap:round;fill:none;" />
<line x1='964.2' y1='2024.8' x2='955.7' y2='2033.2' style="stroke-width:8.0;stroke:rgb(150,150,150);stroke-linecap:round;fill:none;" />
<line x1='1038.0' y1='2090.8' x2='1030.6' y2='2100.3' style="stroke-width:8.0;stroke:rgb(150,150,150);stroke-linecap:round;fill:none;" />
<line x1='1119.8' y1='2146.5' x2='1113.7' y2='2156.8' style="stroke-width:8.0;stroke:rgb(150,150,150);stroke-linecap:round;fill:none;" />
<line x1='1208.2' y1='2190.9' x2='1203.6' y2='2202.0' style="stroke-width:8.0;stroke:rgb(150,150,150);stroke-linecap:round;fill:none;" />
<text x="1211.9" y="2218.4" font-size="41.6px" font-family="CMUBright-Roman" style="text-anchor:end;fill:rgb(150,150,150);" transform="rotate(-67.1,1211.9,2218.4)" >4150 kb</text>
<line x1='1301.8' y1='2223.3' x2='1298.6' y2='2234.9' style="stroke-width:8.0;stroke:rgb(150,150,150);stroke-linecap:round;fill:none;" />
<line x1='1398.7' y1='2243.1' x2='1397.1' y2='2255.0' style="stroke-width:8.0;stroke:rgb(150,150,150);stroke-linecap:round;fill:none;" />
<path d="M1449.535,2047.680 A550.000,550.000 40.000 0,1 1287.777,992.593 L1210.605,808.082 A750.000,750.000 0.000 0,0 1431.183,2246.836 Z" style="stroke-width:2.0;stroke:rgb(0,0,0);stroke-linecap:round;fill:none;" />
</g>
<g id="track_0">
<path d="M 1711.116,1977.950 A 522.500,522.500 0.00 0,1 1656.5,1998.5 L 1656.5,1998.5 1650.4,1979.2 1644.0,1960.1 1637.5,1941.4 1630.8,1923.1 1624.0,1905.3 1617.0,1888.3 1610.0,1872.1 1603.0,1856.8 1595.9,1842.5 1588.7,1829.2 1581.6,1817.2 1574.4,1806.3 1567.3,1796.8 1560.2,1788.6 1553.2,1781.8 1546.2,1776.4 1539.4,1772.5 1532.6,1770.0 1525.9,1769.1 1519.4,1769.6 1513.0,1771.7 1506.7,1775.2 1500.6,1780.2 1494.6,1786.7 1488.8,1794.6 1483.2,1803.9 1477.8,1814.5 1472.6,1826.3 1467.5,1839.4 1462.7,1853.7 1458.1,1869.0 1453.7,1885.2 1449.5,1902.4 1445.5,1920.3 1441.7,1939.0 1438.2,1958.1 1434.9,1977.7 1431.8,1997.6 1429.0,2017.6  A 522.500,522.500 0.00 0,1 1348.6,2000.1 L 1348.6,2000.1 1354.7,1980.5 1361.1,1961.1 1367.9,1942.0 1375.0,1923.3 1382.3,1905.2 1390.0,1887.8 1398.0,1871.1 1406.2,1855.3 1414.6,1840.4 1423.4,1826.6 1432.3,1813.8 1441.5,1802.3 1450.9,1792.0 1460.4,1782.9 1470.2,1775.2 1480.0,1768.9 1490.1,1764.0 1500.3,1760.5 1510.6,1758.4 1520.9,1757.7 1531.4,1758.6 1541.9,1760.8 1552.5,1764.5 1563.1,1769.6 1573.7,1776.0 1584.3,1783.8 1594.8,1792.9 1605.3,1803.3 1615.8,1814.8 1626.1,1827.5 1636.3,1841.2 1646.4,1855.9 1656.3,1871.5 1666.1,1887.9 1675.6,1905.0 1684.9,1922.6 1693.9,1940.8 1702.7,1959.2 1711.1,1978.0  Z" style="stroke-width: 0.5;  stroke: rgb(0,0,0); fill: rgb(179,177,178);" />
<path d="M 2017.546,1571.783 A 522.500,522.500 0.00 0,1 2004.9,1634.5 L 2004.9,1634.5 1981.1,1628.3 1957.1,1622.5 1932.7,1617.0 1908.1,1611.8 1883.3,1607.0 1858.3,1602.6 1833.1,1598.6 1807.6,1595.0 1782.1,1591.9 1756.4,1589.3 1730.6,1587.1 1704.7,1585.5 1678.7,1584.3 1652.6,1583.7 1626.5,1583.6 1600.4,1584.1 1574.2,1585.0 1548.1,1586.6 1522.0,1588.6 1496.0,1591.2 1470.0,1594.4 1444.1,1598.1 1418.2,1602.3 1392.5,1607.0 1367.0,1612.3 1341.6,1618.0 1316.3,1624.3 1291.2,1631.0 1266.3,1638.2 1241.7,1645.9 1217.2,1654.0 1193.0,1662.5 1169.1,1671.4 1145.4,1680.7 1122.0,1690.3 1099.0,1700.3 1076.2,1710.5 1053.8,1721.0 1031.7,1731.7  A 522.500,522.500 0.00 0,1 1006.9,1672.9 L 1006.9,1672.9 1030.9,1664.6 1055.0,1656.6 1079.4,1648.7 1104.0,1641.0 1128.9,1633.6 1153.9,1626.4 1179.1,1619.4 1204.5,1612.8 1230.1,1606.4 1255.8,1600.3 1281.7,1594.6 1307.7,1589.1 1333.8,1584.0 1360.1,1579.2 1386.4,1574.8 1412.9,1570.7 1439.4,1566.9 1466.0,1563.6 1492.6,1560.5 1519.3,1557.9 1546.0,1555.6 1572.7,1553.6 1599.4,1552.0 1626.1,1550.8 1652.8,1549.9 1679.5,1549.4 1706.1,1549.3 1732.7,1549.5 1759.2,1550.0 1785.6,1550.8 1812.0,1552.0 1838.2,1553.5 1864.3,1555.3 1890.2,1557.4 1916.0,1559.8 1941.7,1562.4 1967.2,1565.3 1992.5,1568.4 2017.5,1571.8  Z" style="stroke-width: 0.5;  stroke: rgb(0,0,0); fill: rgb(179,177,178);" />
<path d="M 1623.801,992.379 A 522.500,522.500 0.00 0,1 1683.7,1010.9 L 1683.7,1010.9 1676.1,1030.5 1668.0,1049.9 1659.5,1069.1 1650.5,1087.9 1641.0,1106.2 1631.2,1123.9 1620.8,1140.9 1610.1,1157.1 1599.0,1172.4 1587.4,1186.9 1575.5,1200.3 1563.1,1212.7 1550.4,1224.0 1537.4,1234.1 1524.0,1243.0 1510.3,1250.7 1496.4,1257.2 1482.1,1262.3 1467.6,1266.1 1452.8,1268.7 1437.8,1269.9 1422.7,1269.8 1407.3,1268.4 1391.9,1265.7 1376.3,1261.7 1360.6,1256.5 1344.9,1250.1 1329.1,1242.5 1313.4,1233.8 1297.7,1224.0 1282.1,1213.2 1266.6,1201.5 1251.2,1188.9 1236.0,1175.5 1221.0,1161.4 1206.3,1146.7 1191.9,1131.5 1177.8,1115.8 1164.1,1099.8  A 522.500,522.500 0.00 0,1 1213.9,1062.8 L 1213.9,1062.8 1225.4,1080.0 1237.2,1096.9 1249.3,1113.4 1261.6,1129.4 1274.1,1144.8 1286.7,1159.5 1299.5,1173.4 1312.4,1186.4 1325.4,1198.4 1338.3,1209.4 1351.3,1219.2 1364.2,1227.9 1377.1,1235.4 1389.8,1241.6 1402.5,1246.4 1415.0,1250.0 1427.3,1252.1 1439.5,1252.9 1451.4,1252.3 1463.1,1250.3 1474.6,1246.9 1485.8,1242.1 1496.7,1235.9 1507.3,1228.4 1517.6,1219.6 1527.6,1209.5 1537.2,1198.2 1546.5,1185.7 1555.5,1172.1 1564.0,1157.4 1572.2,1141.8 1580.0,1125.2 1587.4,1107.9 1594.5,1089.8 1601.1,1071.1 1607.4,1051.9 1613.2,1032.3 1618.7,1012.4 1623.8,992.4  Z" style="stroke-width: 0.5;  stroke: rgb(0,0,0); fill: rgb(179,177,178);" />
<path d="M 1992.540,1325.615 A 522.500,522.500 0.00 0,1 2006.2,1370.6 L 2006.2,1370.6 1980.6,1377.1 1954.8,1383.6 1929.1,1390.0 1903.3,1396.4 1877.4,1402.8 1851.4,1409.0 1825.5,1415.3 1799.4,1421.4 1773.4,1427.5 1747.2,1433.6 1721.1,1439.5 1694.9,1445.5 1668.6,1451.3 1642.4,1457.0 1616.1,1462.7 1589.8,1468.3 1563.4,1473.9 1537.1,1479.3 1510.7,1484.7 1484.3,1490.0 1457.8,1495.2 1431.4,1500.4 1405.0,1505.4 1378.5,1510.4 1352.1,1515.3 1325.6,1520.1 1299.2,1524.9 1272.7,1529.5 1246.3,1534.1 1219.9,1538.6 1193.4,1543.1 1167.1,1547.4 1140.7,1551.7 1114.3,1555.9 1088.0,1560.0 1061.7,1564.1 1035.5,1568.1 1009.2,1572.0 983.0,1575.9  A 522.500,522.500 0.00 0,1 978.3,1528.6 L 978.3,1528.6 1004.1,1527.1 1030.1,1525.5 1056.2,1523.6 1082.3,1521.6 1108.6,1519.5 1134.9,1517.1 1161.3,1514.6 1187.7,1511.8 1214.2,1508.9 1240.7,1505.7 1267.3,1502.4 1293.8,1498.8 1320.4,1495.0 1347.0,1491.0 1373.6,1486.8 1400.2,1482.4 1426.7,1477.7 1453.3,1472.9 1479.8,1467.8 1506.3,1462.5 1532.7,1457.0 1559.1,1451.3 1585.4,1445.3 1611.6,1439.2 1637.8,1432.8 1663.8,1426.3 1689.8,1419.6 1715.7,1412.6 1741.5,1405.5 1767.2,1398.2 1792.8,1390.7 1818.2,1383.1 1843.6,1375.3 1868.8,1367.3 1893.8,1359.2 1918.7,1351.0 1943.5,1342.7 1968.1,1334.2 1992.5,1325.6  Z" style="stroke-width: 0.5;  stroke: rgb(0,0,0); fill: rgb(179,177,178);" />
<path d="M 1777.397,1057.217 A 522.500,522.500 0.00 0,1 1815.4,1083.4 L 1815.4,1083.4 1801.7,1101.0 1787.5,1118.4 1772.8,1135.5 1757.6,1152.2 1741.9,1168.5 1725.7,1184.2 1709.0,1199.3 1692.0,1213.8 1674.4,1227.6 1656.5,1240.6 1638.2,1252.8 1619.5,1264.1 1600.5,1274.6 1581.1,1284.1 1561.5,1292.6 1541.5,1300.2 1521.3,1306.8 1500.9,1312.4 1480.2,1316.9 1459.4,1320.4 1438.3,1322.8 1417.2,1324.2 1396.0,1324.5 1374.6,1323.8 1353.2,1322.1 1331.8,1319.3 1310.4,1315.6 1289.1,1310.9 1267.8,1305.3 1246.7,1298.8 1225.6,1291.5 1204.8,1283.3 1184.1,1274.4 1163.7,1264.8 1143.6,1254.5 1123.8,1243.6 1104.3,1232.2 1085.2,1220.4 1066.6,1208.2  A 522.500,522.500 0.00 0,1 1094.3,1170.7 L 1094.3,1170.7 1111.4,1184.3 1129.0,1197.5 1147.0,1210.3 1165.3,1222.5 1183.9,1234.1 1202.8,1245.0 1221.9,1255.2 1241.3,1264.6 1260.8,1273.1 1280.4,1280.8 1300.1,1287.4 1319.9,1293.1 1339.7,1297.7 1359.5,1301.3 1379.2,1303.8 1398.9,1305.1 1418.5,1305.4 1438.0,1304.5 1457.3,1302.4 1476.5,1299.2 1495.4,1294.9 1514.2,1289.5 1532.6,1282.9 1550.8,1275.2 1568.7,1266.5 1586.3,1256.7 1603.5,1245.9 1620.4,1234.2 1636.9,1221.5 1653.0,1208.0 1668.7,1193.6 1684.0,1178.5 1698.8,1162.6 1713.1,1146.2 1727.0,1129.1 1740.3,1111.7 1753.2,1093.8 1765.6,1075.6 1777.4,1057.2  Z" style="stroke-width: 0.5;  stroke: rgb(0,0,0); fill: rgb(179,177,178);" />
<path d="M 1540.260,979.053 A 522.500,522.500 0.00 0,1 1585.0,984.5 L 1585.0,984.5 1581.5,1004.6 1577.6,1024.7 1573.5,1044.4 1569.0,1063.8 1564.1,1082.6 1558.9,1100.8 1553.4,1118.3 1547.5,1134.9 1541.2,1150.6 1534.7,1165.3 1527.7,1178.9 1520.4,1191.4 1512.8,1202.6 1504.9,1212.6 1496.6,1221.3 1488.1,1228.6 1479.2,1234.5 1470.1,1239.1 1460.7,1242.2 1451.0,1243.8 1441.1,1244.1 1431.0,1242.8 1420.6,1240.2 1410.1,1236.2 1399.5,1230.7 1388.6,1224.0 1377.7,1215.9 1366.7,1206.6 1355.6,1196.1 1344.5,1184.4 1333.4,1171.7 1322.2,1158.0 1311.2,1143.4 1300.2,1128.0 1289.3,1111.8 1278.6,1095.1 1268.1,1077.8 1257.8,1060.2 1247.8,1042.4  A 522.500,522.500 0.00 0,1 1288.3,1022.3 L 1288.3,1022.3 1296.7,1040.8 1305.2,1059.1 1313.9,1077.0 1322.7,1094.5 1331.6,1111.4 1340.6,1127.5 1349.6,1142.9 1358.7,1157.3 1367.6,1170.7 1376.6,1183.1 1385.5,1194.3 1394.2,1204.3 1402.9,1213.0 1411.4,1220.4 1419.7,1226.4 1427.8,1231.0 1435.8,1234.2 1443.5,1235.9 1451.0,1236.1 1458.2,1234.9 1465.2,1232.2 1471.9,1228.0 1478.3,1222.3 1484.5,1215.3 1490.3,1206.8 1495.9,1197.1 1501.1,1186.0 1506.1,1173.6 1510.7,1160.1 1515.0,1145.5 1519.0,1129.8 1522.7,1113.2 1526.0,1095.7 1529.1,1077.5 1531.9,1058.6 1534.4,1039.2 1536.6,1019.4 1538.6,999.3 1540.3,979.1  Z" style="stroke-width: 0.5;  stroke: rgb(0,0,0); fill: rgb(179,177,178);" />
<path d="M 1972.772,1722.470 A 522.500,522.500 0.00 0,1 1952.0,1762.1 L 1952.0,1762.1 1932.0,1750.8 1911.5,1739.9 1890.7,1729.3 1869.5,1719.3 1848.0,1709.8 1826.1,1700.8 1804.0,1692.5 1781.6,1684.8 1759.0,1677.9 1736.2,1671.6 1713.3,1666.2 1690.2,1661.5 1667.0,1657.7 1643.8,1654.7 1620.4,1652.6 1597.1,1651.3 1573.8,1651.0 1550.5,1651.5 1527.2,1653.0 1504.0,1655.3 1480.9,1658.6 1458.0,1662.7 1435.2,1667.7 1412.6,1673.6 1390.2,1680.4 1368.0,1688.0 1346.0,1696.4 1324.4,1705.6 1303.0,1715.5 1281.9,1726.2 1261.2,1737.5 1240.8,1749.5 1220.8,1762.1 1201.1,1775.2 1182.0,1788.9 1163.2,1803.0 1144.9,1817.5 1127.1,1832.3 1109.7,1847.4  A 522.500,522.500 0.00 0,1 1081.0,1812.2 L 1081.0,1812.2 1100.0,1798.4 1119.4,1784.8 1139.3,1771.5 1159.6,1758.7 1180.2,1746.2 1201.3,1734.2 1222.8,1722.7 1244.6,1711.7 1266.7,1701.3 1289.1,1691.6 1311.8,1682.4 1334.8,1674.0 1358.0,1666.2 1381.5,1659.2 1405.1,1652.9 1429.0,1647.3 1452.9,1642.5 1477.1,1638.5 1501.3,1635.2 1525.7,1632.8 1550.1,1631.1 1574.5,1630.3 1599.0,1630.2 1623.4,1630.9 1647.9,1632.4 1672.3,1634.6 1696.6,1637.6 1720.8,1641.3 1744.8,1645.7 1768.8,1650.8 1792.5,1656.6 1816.0,1663.0 1839.3,1670.0 1862.4,1677.6 1885.2,1685.6 1907.6,1694.2 1929.7,1703.3 1951.4,1712.7 1972.8,1722.5  Z" style="stroke-width: 0.5;  stroke: rgb(0,0,0); fill: rgb(179,177,178);" />
<path d="M 1815.756,1916.298 A 522.500,522.500 0.00 0,1 1779.7,1941.3 L 1779.7,1941.3 1768.4,1923.8 1756.7,1906.6 1744.7,1889.8 1732.4,1873.4 1719.8,1857.7 1706.9,1842.7 1693.9,1828.4 1680.7,1815.0 1667.3,1802.6 1653.8,1791.2 1640.2,1780.9 1626.6,1771.8 1612.9,1763.8 1599.2,1757.1 1585.6,1751.7 1571.9,1747.6 1558.4,1744.9 1544.9,1743.5 1531.5,1743.5 1518.2,1744.8 1505.1,1747.5 1492.2,1751.6 1479.5,1757.0 1467.0,1763.8 1454.7,1771.9 1442.6,1781.2 1430.8,1791.7 1419.3,1803.4 1408.1,1816.3 1397.2,1830.1 1386.6,1845.0 1376.3,1860.8 1366.4,1877.3 1356.9,1894.7 1347.7,1912.6 1338.9,1931.1 1330.6,1950.0 1322.6,1969.2 1315.0,1988.7  A 522.500,522.500 0.00 0,1 1274.5,1971.3 L 1274.5,1971.3 1283.8,1952.4 1293.6,1933.6 1303.8,1915.2 1314.5,1897.2 1325.6,1879.7 1337.1,1862.9 1349.0,1846.7 1361.2,1831.4 1373.8,1816.9 1386.8,1803.4 1400.1,1790.8 1413.7,1779.4 1427.6,1769.0 1441.7,1759.9 1456.1,1751.9 1470.8,1745.2 1485.6,1739.7 1500.7,1735.5 1515.9,1732.7 1531.3,1731.1 1546.7,1730.9 1562.3,1731.9 1578.0,1734.3 1593.7,1737.9 1609.4,1742.8 1625.1,1749.0 1640.8,1756.3 1656.4,1764.8 1671.9,1774.4 1687.4,1785.0 1702.6,1796.6 1717.7,1809.2 1732.6,1822.6 1747.3,1836.8 1761.6,1851.7 1775.7,1867.2 1789.4,1883.2 1802.8,1899.6 1815.8,1916.3  Z" style="stroke-width: 0.5;  stroke: rgb(0,0,0); fill: rgb(179,177,178);" />
<path d="M 1889.500,1151.724 A 522.500,522.500 0.00 0,1 1915.4,1183.1 L 1915.4,1183.1 1896.4,1197.3 1876.9,1211.3 1857.0,1225.0 1836.7,1238.3 1816.0,1251.4 1794.9,1263.9 1773.4,1276.1 1751.6,1287.7 1729.4,1298.9 1706.9,1309.4 1684.1,1319.4 1661.0,1328.8 1637.6,1337.6 1614.0,1345.7 1590.2,1353.2 1566.1,1360.0 1541.9,1366.0 1517.5,1371.4 1492.9,1376.0 1468.2,1380.0 1443.4,1383.2 1418.6,1385.7 1393.7,1387.4 1368.7,1388.5 1343.7,1388.8 1318.8,1388.4 1293.8,1387.3 1269.0,1385.6 1244.2,1383.1 1219.5,1380.1 1194.9,1376.4 1170.6,1372.1 1146.4,1367.2 1122.4,1361.8 1098.7,1355.9 1075.2,1349.5 1052.0,1342.7 1029.2,1335.4 1006.7,1327.8  A 522.500,522.500 0.00 0,1 1021.6,1289.9 L 1021.6,1289.9 1043.0,1299.1 1064.8,1307.8 1087.0,1316.2 1109.5,1324.0 1132.3,1331.4 1155.3,1338.1 1178.6,1344.3 1202.1,1349.8 1225.8,1354.7 1249.6,1358.8 1273.5,1362.3 1297.5,1365.0 1321.6,1366.9 1345.7,1368.0 1369.8,1368.4 1393.9,1367.9 1417.9,1366.6 1441.9,1364.4 1465.8,1361.5 1489.5,1357.7 1513.1,1353.1 1536.6,1347.7 1559.8,1341.4 1582.9,1334.4 1605.7,1326.6 1628.3,1318.1 1650.5,1308.8 1672.5,1298.7 1694.2,1288.0 1715.5,1276.7 1736.5,1264.7 1757.1,1252.2 1777.3,1239.1 1797.2,1225.5 1816.5,1211.4 1835.5,1197.0 1854.0,1182.2 1872.0,1167.1 1889.5,1151.7  Z" style="stroke-width: 0.5;  stroke: rgb(0,0,0); fill: rgb(179,177,178);" />
<path d="M 1585.151,984.485 A 522.500,522.500 0.00 0,1 1622.1,992.0 L 1622.1,992.0 1617.1,1012.0 1611.7,1031.9 1605.9,1051.5 1599.7,1070.7 1593.2,1089.5 1586.2,1107.5 1578.9,1124.9 1571.1,1141.5 1563.0,1157.1 1554.5,1171.8 1545.7,1185.4 1536.5,1197.9 1526.9,1209.2 1517.0,1219.3 1506.8,1228.1 1496.2,1235.7 1485.4,1241.8 1474.3,1246.6 1462.9,1250.0 1451.2,1252.0 1439.4,1252.6 1427.3,1251.8 1415.0,1249.7 1402.6,1246.1 1390.0,1241.2 1377.3,1235.0 1364.5,1227.6 1351.6,1218.9 1338.7,1209.0 1325.8,1198.0 1312.9,1186.0 1300.1,1173.0 1287.3,1159.1 1274.7,1144.4 1262.2,1129.0 1250.0,1112.9 1238.0,1096.4 1226.2,1079.4 1214.8,1062.2  A 522.500,522.500 0.00 0,1 1247.1,1042.8 L 1247.1,1042.8 1257.2,1060.6 1267.5,1078.2 1278.1,1095.4 1288.8,1112.1 1299.7,1128.3 1310.7,1143.7 1321.8,1158.3 1332.9,1172.0 1344.1,1184.7 1355.2,1196.3 1366.3,1206.8 1377.4,1216.1 1388.3,1224.2 1399.2,1230.9 1409.9,1236.3 1420.4,1240.4 1430.8,1243.0 1440.9,1244.2 1450.9,1244.0 1460.6,1242.3 1470.0,1239.2 1479.2,1234.6 1488.0,1228.7 1496.6,1221.4 1504.9,1212.7 1512.8,1202.7 1520.5,1191.5 1527.8,1179.0 1534.7,1165.4 1541.3,1150.7 1547.6,1134.9 1553.5,1118.3 1559.1,1100.8 1564.3,1082.6 1569.1,1063.8 1573.7,1044.4 1577.8,1024.7 1581.7,1004.7 1585.2,984.5  Z" style="stroke-width: 0.5;  stroke: rgb(0,0,0); fill: rgb(179,177,178);" />
<path d="M 2021.518,1532.023 A 522.500,522.500 0.00 0,1 2018.3,1565.8 L 2018.3,1565.8 1993.2,1562.8 1967.8,1559.9 1942.3,1557.3 1916.6,1554.9 1890.7,1552.8 1864.7,1551.0 1838.6,1549.4 1812.3,1548.2 1786.0,1547.3 1759.5,1546.6 1733.0,1546.3 1706.4,1546.4 1679.8,1546.8 1653.1,1547.5 1626.3,1548.5 1599.6,1549.9 1572.9,1551.7 1546.1,1553.8 1519.4,1556.3 1492.8,1559.1 1466.1,1562.3 1439.5,1565.8 1413.0,1569.7 1386.6,1573.9 1360.2,1578.4 1334.0,1583.3 1307.9,1588.5 1281.9,1594.1 1256.0,1599.9 1230.2,1606.0 1204.7,1612.5 1179.3,1619.2 1154.0,1626.1 1129.0,1633.4 1104.1,1640.8 1079.5,1648.5 1055.1,1656.4 1030.9,1664.5 1006.9,1672.8  A 522.500,522.500 0.00 0,1 996.6,1639.8 L 996.6,1639.8 1021.4,1633.0 1046.4,1626.3 1071.6,1619.8 1096.9,1613.5 1122.4,1607.3 1148.1,1601.2 1173.8,1595.4 1199.7,1589.8 1225.8,1584.3 1251.9,1579.1 1278.2,1574.1 1304.5,1569.3 1330.9,1564.8 1357.4,1560.5 1384.0,1556.4 1410.7,1552.6 1437.4,1549.0 1464.1,1545.7 1490.9,1542.6 1517.7,1539.8 1544.6,1537.2 1571.5,1534.9 1598.3,1532.9 1625.2,1531.0 1652.0,1529.5 1678.9,1528.2 1705.7,1527.1 1732.4,1526.3 1759.1,1525.8 1785.8,1525.4 1812.4,1525.3 1838.9,1525.4 1865.3,1525.8 1891.6,1526.3 1917.8,1527.1 1944.0,1528.1 1969.9,1529.2 1995.8,1530.5 2021.5,1532.0  Z" style="stroke-width: 0.5;  stroke: rgb(0,0,0); fill: rgb(179,177,178);" />
<path d="M 1986.455,1690.704 A 522.500,522.500 0.00 0,1 1973.3,1721.4 L 1973.3,1721.4 1951.9,1711.7 1930.1,1702.3 1908.0,1693.3 1885.5,1684.7 1862.7,1676.7 1839.7,1669.2 1816.3,1662.2 1792.8,1655.8 1769.0,1650.1 1745.1,1645.0 1721.0,1640.7 1696.7,1637.0 1672.4,1634.0 1648.0,1631.8 1623.5,1630.3 1599.0,1629.7 1574.6,1629.8 1550.1,1630.6 1525.7,1632.3 1501.3,1634.8 1477.0,1638.0 1452.9,1642.0 1428.9,1646.8 1405.0,1652.4 1381.3,1658.7 1357.9,1665.8 1334.6,1673.5 1311.6,1682.0 1288.9,1691.1 1266.4,1700.9 1244.3,1711.2 1222.5,1722.2 1201.0,1733.6 1179.9,1745.6 1159.2,1758.1 1138.9,1770.9 1119.0,1784.2 1099.5,1797.7 1080.5,1811.5  A 522.500,522.500 0.00 0,1 1061.0,1783.4 L 1061.0,1783.4 1081.2,1770.6 1101.8,1758.1 1122.8,1745.9 1144.2,1734.1 1165.9,1722.6 1188.0,1711.6 1210.5,1701.0 1233.3,1690.9 1256.3,1681.3 1279.7,1672.3 1303.3,1663.8 1327.1,1656.0 1351.2,1648.7 1375.5,1642.2 1400.0,1636.2 1424.6,1630.9 1449.4,1626.3 1474.3,1622.4 1499.3,1619.2 1524.4,1616.7 1549.5,1614.9 1574.7,1613.8 1599.9,1613.4 1625.1,1613.7 1650.2,1614.6 1675.3,1616.3 1700.4,1618.6 1725.3,1621.6 1750.1,1625.2 1774.8,1629.4 1799.3,1634.2 1823.6,1639.6 1847.7,1645.5 1871.6,1651.9 1895.2,1658.9 1918.5,1666.2 1941.5,1674.0 1964.2,1682.2 1986.5,1690.7  Z" style="stroke-width: 0.5;  stroke: rgb(0,0,0); fill: rgb(179,177,178);" />
<path d="M 1902.625,1833.016 A 522.500,522.500 0.00 0,1 1880.8,1857.8 L 1880.8,1857.8 1864.7,1843.1 1848.1,1828.6 1831.2,1814.6 1813.8,1801.1 1796.1,1788.2 1778.1,1776.0 1759.8,1764.5 1741.3,1753.8 1722.5,1743.9 1703.6,1734.9 1684.5,1726.9 1665.2,1719.9 1645.9,1713.9 1626.5,1709.0 1607.1,1705.2 1587.7,1702.5 1568.2,1700.9 1548.9,1700.5 1529.6,1701.2 1510.4,1703.1 1491.3,1706.2 1472.4,1710.4 1453.7,1715.7 1435.2,1722.2 1416.8,1729.7 1398.8,1738.3 1381.0,1748.0 1363.5,1758.6 1346.4,1770.2 1329.5,1782.7 1313.1,1796.1 1297.0,1810.2 1281.3,1825.1 1266.0,1840.6 1251.2,1856.8 1236.8,1873.4 1223.0,1890.4 1209.6,1907.8 1196.7,1925.4  A 522.500,522.500 0.00 0,1 1170.2,1905.2 L 1170.2,1905.2 1184.3,1888.2 1199.0,1871.5 1214.2,1855.1 1229.9,1839.1 1246.0,1823.6 1262.6,1808.7 1279.6,1794.4 1297.0,1780.8 1314.7,1767.9 1332.9,1755.9 1351.3,1744.7 1370.1,1734.4 1389.2,1725.1 1408.5,1716.8 1428.1,1709.4 1447.9,1703.1 1468.0,1697.8 1488.1,1693.7 1508.5,1690.5 1528.9,1688.5 1549.5,1687.6 1570.1,1687.8 1590.7,1689.0 1611.4,1691.3 1632.0,1694.7 1652.6,1699.1 1673.1,1704.6 1693.6,1711.0 1713.9,1718.3 1734.0,1726.6 1753.9,1735.7 1773.7,1745.7 1793.1,1756.4 1812.3,1767.8 1831.1,1779.8 1849.6,1792.4 1867.7,1805.6 1885.4,1819.1 1902.6,1833.0  Z" style="stroke-width: 0.5;  stroke: rgb(0,0,0); fill: rgb(179,177,178);" />
<path d="M 1997.723,1658.990 A 522.500,522.500 0.00 0,1 1986.8,1689.7 L 1986.8,1689.7 1964.5,1681.2 1941.8,1673.1 1918.8,1665.4 1895.5,1658.0 1871.9,1651.1 1848.0,1644.7 1823.9,1638.9 1799.5,1633.5 1775.0,1628.8 1750.3,1624.6 1725.5,1621.0 1700.5,1618.1 1675.5,1615.8 1650.4,1614.2 1625.2,1613.2 1600.0,1613.0 1574.8,1613.4 1549.6,1614.6 1524.4,1616.4 1499.3,1618.9 1474.3,1622.2 1449.4,1626.1 1424.7,1630.7 1400.0,1636.0 1375.5,1642.0 1351.2,1648.6 1327.2,1655.8 1303.3,1663.7 1279.7,1672.2 1256.3,1681.2 1233.2,1690.8 1210.5,1700.9 1188.0,1711.5 1165.9,1722.5 1144.1,1734.0 1122.7,1745.8 1101.7,1758.0 1081.1,1770.5 1061.0,1783.3  A 522.500,522.500 0.00 0,1 1044.4,1755.9 L 1044.4,1755.9 1065.7,1744.2 1087.3,1732.7 1109.3,1721.5 1131.6,1710.7 1154.3,1700.2 1177.3,1690.1 1200.6,1680.4 1224.2,1671.1 1248.0,1662.3 1272.1,1653.9 1296.5,1646.1 1321.0,1638.8 1345.8,1632.1 1370.7,1625.9 1395.8,1620.3 1421.1,1615.3 1446.5,1610.8 1472.0,1607.0 1497.6,1603.8 1523.2,1601.2 1549.0,1599.2 1574.7,1597.8 1600.5,1597.0 1626.2,1596.9 1652.0,1597.3 1677.6,1598.4 1703.3,1600.0 1728.8,1602.2 1754.2,1604.9 1779.5,1608.3 1804.6,1612.1 1829.6,1616.4 1854.4,1621.2 1878.9,1626.5 1903.3,1632.3 1927.3,1638.4 1951.1,1644.9 1974.6,1651.8 1997.7,1659.0  Z" style="stroke-width: 0.5;  stroke: rgb(0,0,0); fill: rgb(179,177,178);" />
<path d="M 1941.520,1220.596 A 522.500,522.500 0.00 0,1 1957.0,1246.8 L 1957.0,1246.8 1935.1,1258.8 1912.8,1270.6 1890.3,1282.3 1867.4,1293.7 1844.3,1304.9 1820.9,1315.8 1797.2,1326.5 1773.3,1336.9 1749.2,1347.0 1724.8,1356.7 1700.2,1366.1 1675.5,1375.2 1650.5,1383.9 1625.3,1392.2 1600.0,1400.1 1574.5,1407.6 1548.9,1414.7 1523.2,1421.5 1497.3,1427.8 1471.3,1433.6 1445.3,1439.1 1419.1,1444.1 1392.9,1448.7 1366.7,1452.9 1340.4,1456.7 1314.2,1460.0 1287.9,1462.9 1261.6,1465.4 1235.4,1467.5 1209.2,1469.3 1183.1,1470.6 1157.0,1471.5 1131.1,1472.1 1105.3,1472.3 1079.6,1472.1 1054.0,1471.6 1028.6,1470.8 1003.4,1469.8 978.5,1468.4  A 522.500,522.500 0.00 0,1 981.2,1438.1 L 981.2,1438.1 1005.7,1440.9 1030.4,1443.3 1055.4,1445.4 1080.6,1447.2 1105.9,1448.5 1131.4,1449.4 1157.1,1450.0 1182.8,1450.0 1208.7,1449.7 1234.6,1448.9 1260.6,1447.6 1286.6,1445.8 1312.7,1443.5 1338.7,1440.7 1364.7,1437.5 1390.7,1433.7 1416.6,1429.4 1442.5,1424.6 1468.2,1419.3 1493.9,1413.5 1519.4,1407.2 1544.8,1400.4 1570.1,1393.0 1595.1,1385.3 1620.0,1377.0 1644.7,1368.3 1669.2,1359.1 1693.4,1349.5 1717.4,1339.5 1741.2,1329.1 1764.7,1318.2 1787.9,1307.1 1810.8,1295.5 1833.4,1283.7 1855.7,1271.6 1877.7,1259.2 1899.3,1246.5 1920.6,1233.6 1941.5,1220.6  Z" style="stroke-width: 0.5;  stroke: rgb(0,0,0); fill: rgb(179,177,178);" />
<path d="M 1930.935,1795.468 A 522.500,522.500 0.00 0,1 1916.0,1816.1 L 1916.0,1816.1 1898.1,1802.8 1879.7,1789.8 1860.9,1777.3 1841.7,1765.3 1822.1,1753.8 1802.2,1743.0 1782.0,1732.9 1761.6,1723.5 1741.0,1714.9 1720.1,1707.1 1699.1,1700.2 1677.9,1694.2 1656.7,1689.2 1635.3,1685.1 1614.0,1682.0 1592.6,1680.0 1571.2,1678.9 1549.8,1678.9 1528.5,1680.0 1507.3,1682.1 1486.2,1685.2 1465.3,1689.4 1444.5,1694.6 1423.9,1700.8 1403.6,1708.0 1383.5,1716.2 1363.6,1725.3 1344.0,1735.3 1324.8,1746.2 1305.9,1757.9 1287.3,1770.4 1269.1,1783.7 1251.3,1797.6 1233.9,1812.1 1217.0,1827.1 1200.5,1842.7 1184.5,1858.7 1169.0,1875.0 1154.0,1891.5  A 522.500,522.500 0.00 0,1 1135.4,1874.3 L 1135.4,1874.3 1151.4,1858.3 1167.8,1842.5 1184.8,1827.1 1202.2,1812.2 1220.1,1797.6 1238.4,1783.7 1257.1,1770.3 1276.2,1757.5 1295.7,1745.5 1315.5,1734.2 1335.7,1723.7 1356.1,1714.0 1376.9,1705.2 1397.9,1697.2 1419.1,1690.2 1440.5,1684.1 1462.2,1679.0 1483.9,1674.8 1505.9,1671.7 1527.9,1669.5 1550.0,1668.3 1572.2,1668.1 1594.4,1668.9 1616.7,1670.6 1638.9,1673.3 1661.0,1677.0 1683.1,1681.6 1705.0,1687.1 1726.9,1693.4 1748.5,1700.6 1770.0,1708.6 1791.2,1717.4 1812.2,1726.8 1832.9,1736.9 1853.3,1747.7 1873.3,1758.9 1892.9,1770.7 1912.2,1782.9 1930.9,1795.5  Z" style="stroke-width: 0.5;  stroke: rgb(0,0,0); fill: rgb(179,177,178);" />
<path d="M 1852.360,1885.809 A 522.500,522.500 0.00 0,1 1835.2,1900.8 L 1835.2,1900.8 1821.3,1884.7 1807.0,1868.8 1792.4,1853.3 1777.4,1838.4 1762.0,1824.0 1746.4,1810.3 1730.5,1797.4 1714.5,1785.4 1698.2,1774.2 1681.7,1764.1 1665.2,1754.9 1648.5,1746.8 1631.8,1739.9 1615.0,1734.1 1598.3,1729.6 1581.5,1726.2 1564.8,1724.1 1548.1,1723.3 1531.6,1723.7 1515.2,1725.4 1498.9,1728.4 1482.8,1732.7 1466.8,1738.1 1451.1,1744.9 1435.7,1752.8 1420.4,1761.9 1405.5,1772.1 1390.9,1783.5 1376.5,1795.8 1362.5,1809.2 1348.9,1823.4 1335.6,1838.5 1322.8,1854.4 1310.3,1871.0 1298.3,1888.2 1286.7,1906.0 1275.5,1924.1 1264.8,1942.6 1254.6,1961.3  A 522.500,522.500 0.00 0,1 1234.7,1950.1 L 1234.7,1950.1 1245.8,1931.8 1257.4,1913.6 1269.5,1895.8 1282.1,1878.4 1295.1,1861.5 1308.5,1845.2 1322.4,1829.6 1336.6,1814.8 1351.2,1800.8 1366.2,1787.7 1381.5,1775.5 1397.2,1764.4 1413.1,1754.3 1429.4,1745.3 1445.8,1737.5 1462.6,1730.8 1479.5,1725.3 1496.6,1721.0 1513.9,1718.0 1531.3,1716.2 1548.9,1715.6 1566.5,1716.3 1584.2,1718.1 1601.9,1721.2 1619.7,1725.5 1637.4,1731.0 1655.1,1737.5 1672.7,1745.2 1690.2,1753.9 1707.6,1763.7 1724.8,1774.4 1741.7,1786.0 1758.5,1798.4 1775.0,1811.5 1791.2,1825.4 1807.1,1839.8 1822.6,1854.8 1837.7,1870.1 1852.4,1885.8  Z" style="stroke-width: 0.5;  stroke: rgb(0,0,0); fill: rgb(179,177,178);" />
<path d="M 1922.555,1192.667 A 522.500,522.500 0.00 0,1 1935.2,1210.8 L 1935.2,1210.8 1914.6,1224.3 1893.7,1237.5 1872.4,1250.6 1850.8,1263.4 1828.8,1275.9 1806.5,1288.1 1783.9,1300.0 1760.9,1311.5 1737.7,1322.7 1714.2,1333.4 1690.4,1343.7 1666.4,1353.6 1642.2,1363.1 1617.7,1372.0 1593.0,1380.5 1568.1,1388.5 1543.0,1396.0 1517.8,1403.0 1492.4,1409.4 1466.9,1415.4 1441.3,1420.8 1415.5,1425.7 1389.7,1430.0 1363.9,1433.8 1338.0,1437.1 1312.0,1439.8 1286.1,1442.1 1260.2,1443.8 1234.3,1445.0 1208.4,1445.7 1182.7,1445.9 1157.0,1445.7 1131.5,1445.0 1106.1,1443.9 1080.8,1442.4 1055.8,1440.4 1030.9,1438.1 1006.3,1435.4 981.9,1432.4  A 522.500,522.500 0.00 0,1 985.2,1410.7 L 985.2,1410.7 1009.2,1414.7 1033.4,1418.3 1057.9,1421.5 1082.7,1424.3 1107.6,1426.7 1132.7,1428.7 1158.0,1430.1 1183.4,1431.1 1208.8,1431.5 1234.4,1431.4 1260.1,1430.8 1285.7,1429.6 1311.4,1427.9 1337.1,1425.5 1362.7,1422.6 1388.3,1419.1 1413.9,1415.0 1439.3,1410.3 1464.6,1405.1 1489.8,1399.2 1514.9,1392.8 1539.8,1385.7 1564.5,1378.1 1589.0,1370.0 1613.3,1361.3 1637.4,1352.0 1661.2,1342.3 1684.8,1332.0 1708.1,1321.3 1731.0,1310.1 1753.7,1298.4 1776.1,1286.3 1798.1,1273.9 1819.8,1261.1 1841.1,1247.9 1862.1,1234.5 1882.6,1220.8 1902.8,1206.8 1922.6,1192.7  Z" style="stroke-width: 0.5;  stroke: rgb(0,0,0); fill: rgb(179,177,178);" />
<path d="M 1858.767,1120.142 A 522.500,522.500 0.00 0,1 1874.3,1135.4 L 1874.3,1135.4 1857.6,1151.3 1840.4,1167.0 1822.7,1182.3 1804.6,1197.3 1786.0,1211.9 1767.0,1226.0 1747.5,1239.5 1727.6,1252.5 1707.4,1264.9 1686.7,1276.6 1665.8,1287.6 1644.5,1297.9 1622.9,1307.4 1601.0,1316.2 1578.8,1324.1 1556.4,1331.2 1533.8,1337.4 1510.9,1342.8 1487.9,1347.3 1464.8,1350.9 1441.5,1353.7 1418.1,1355.5 1394.7,1356.5 1371.2,1356.6 1347.6,1355.9 1324.1,1354.2 1300.6,1351.8 1277.2,1348.5 1253.8,1344.4 1230.6,1339.6 1207.6,1334.0 1184.7,1327.7 1162.0,1320.8 1139.6,1313.2 1117.4,1305.0 1095.5,1296.3 1074.0,1287.1 1052.9,1277.4 1032.1,1267.4  A 522.500,522.500 0.00 0,1 1042.1,1248.3 L 1042.1,1248.3 1062.2,1259.1 1082.8,1269.4 1103.7,1279.4 1124.9,1288.8 1146.5,1297.7 1168.4,1305.9 1190.5,1313.5 1212.8,1320.5 1235.3,1326.6 1257.9,1332.0 1280.7,1336.6 1303.5,1340.4 1326.5,1343.2 1349.4,1345.3 1372.4,1346.4 1395.3,1346.6 1418.1,1345.8 1440.9,1344.2 1463.6,1341.6 1486.1,1338.0 1508.5,1333.5 1530.7,1328.2 1552.7,1321.9 1574.5,1314.6 1596.0,1306.6 1617.2,1297.6 1638.1,1287.9 1658.7,1277.3 1679.0,1265.9 1698.9,1253.9 1718.4,1241.1 1737.5,1227.7 1756.2,1213.7 1774.5,1199.1 1792.3,1184.1 1809.7,1168.6 1826.6,1152.7 1842.9,1136.5 1858.8,1120.1  Z" style="stroke-width: 0.5;  stroke: rgb(0,0,0); fill: rgb(179,177,178);" />
<path d="M 1716.345,1024.394 A 522.500,522.500 0.00 0,1 1735.8,1033.7 L 1735.8,1033.7 1725.9,1052.8 1715.4,1071.7 1704.5,1090.2 1693.1,1108.4 1681.2,1126.1 1668.8,1143.3 1655.9,1159.8 1642.7,1175.5 1628.9,1190.5 1614.8,1204.6 1600.2,1217.7 1585.3,1229.9 1570.0,1241.0 1554.3,1251.1 1538.3,1260.0 1522.0,1267.8 1505.4,1274.5 1488.5,1279.9 1471.4,1284.2 1454.0,1287.2 1436.5,1289.0 1418.8,1289.6 1400.9,1288.9 1382.9,1287.1 1364.8,1284.1 1346.7,1279.9 1328.5,1274.6 1310.3,1268.1 1292.2,1260.7 1274.1,1252.2 1256.1,1242.8 1238.3,1232.4 1220.7,1221.2 1203.2,1209.3 1186.0,1196.6 1169.1,1183.4 1152.6,1169.6 1136.4,1155.3 1120.6,1140.7  A 522.500,522.500 0.00 0,1 1135.8,1125.4 L 1135.8,1125.4 1150.8,1140.5 1166.2,1155.3 1182.0,1169.6 1198.2,1183.4 1214.6,1196.6 1231.2,1209.1 1248.1,1220.8 1265.1,1231.7 1282.2,1241.6 1299.4,1250.6 1316.7,1258.5 1334.0,1265.3 1351.3,1271.0 1368.6,1275.6 1385.8,1278.9 1402.9,1281.1 1419.8,1282.0 1436.7,1281.7 1453.3,1280.1 1469.7,1277.2 1485.9,1273.1 1501.8,1267.7 1517.5,1261.2 1532.9,1253.4 1547.9,1244.4 1562.6,1234.3 1577.0,1223.1 1591.0,1210.8 1604.6,1197.5 1617.7,1183.2 1630.5,1168.1 1642.9,1152.1 1654.8,1135.4 1666.2,1118.1 1677.2,1100.1 1687.7,1081.7 1697.7,1062.8 1707.3,1043.7 1716.3,1024.4  Z" style="stroke-width: 0.5;  stroke: rgb(0,0,0); fill: rgb(179,177,178);" />
<path d="M 2022.399,1489.743 A 522.500,522.500 0.00 0,1 2022.5,1506.9 L 2022.5,1506.9 1996.5,1506.6 1970.4,1506.5 1944.2,1506.5 1917.9,1506.6 1891.5,1506.9 1865.0,1507.4 1838.5,1508.1 1811.9,1508.9 1785.2,1509.9 1758.5,1511.0 1731.8,1512.4 1705.0,1513.9 1678.2,1515.7 1651.3,1517.6 1624.5,1519.7 1597.6,1522.0 1570.8,1524.5 1543.9,1527.3 1517.1,1530.2 1490.3,1533.3 1463.5,1536.6 1436.7,1540.1 1410.0,1543.7 1383.3,1547.6 1356.7,1551.7 1330.1,1555.9 1303.6,1560.4 1277.2,1565.0 1250.8,1569.8 1224.6,1574.8 1198.4,1579.9 1172.3,1585.2 1146.3,1590.6 1120.5,1596.2 1094.7,1601.9 1069.1,1607.8 1043.6,1613.7 1018.2,1619.8 992.9,1626.0  A 522.500,522.500 0.00 0,1 989.0,1609.2 L 989.0,1609.2 1014.7,1603.8 1040.4,1598.5 1066.2,1593.2 1092.2,1588.0 1118.2,1583.0 1144.3,1578.0 1170.5,1573.2 1196.7,1568.5 1223.1,1563.8 1249.5,1559.4 1275.9,1555.0 1302.4,1550.8 1329.0,1546.7 1355.6,1542.7 1382.3,1538.9 1409.0,1535.2 1435.8,1531.7 1462.5,1528.3 1489.3,1525.1 1516.1,1522.0 1543.0,1519.0 1569.8,1516.2 1596.6,1513.5 1623.5,1511.0 1650.3,1508.7 1677.1,1506.4 1703.9,1504.4 1730.7,1502.4 1757.5,1500.6 1784.2,1499.0 1810.9,1497.4 1837.5,1496.1 1864.1,1494.8 1890.7,1493.7 1917.2,1492.6 1943.6,1491.8 1969.9,1491.0 1996.2,1490.3 2022.4,1489.7  Z" style="stroke-width: 0.5;  stroke: rgb(0,0,0); fill: rgb(179,177,178);" />
<path d="M 1683.772,1010.884 A 522.500,522.500 0.00 0,1 1699.1,1016.9 L 1699.1,1016.9 1690.8,1036.4 1682.0,1055.7 1672.8,1074.8 1663.1,1093.4 1652.9,1111.5 1642.3,1129.1 1631.2,1146.0 1619.7,1162.1 1607.8,1177.4 1595.4,1191.7 1582.7,1205.1 1569.6,1217.5 1556.1,1228.7 1542.2,1238.9 1528.1,1247.8 1513.6,1255.6 1498.8,1262.1 1483.7,1267.4 1468.3,1271.4 1452.8,1274.1 1437.0,1275.5 1421.0,1275.6 1404.9,1274.5 1388.6,1272.1 1372.2,1268.4 1355.8,1263.5 1339.3,1257.5 1322.7,1250.2 1306.2,1241.9 1289.8,1232.6 1273.4,1222.2 1257.1,1210.9 1241.0,1198.7 1225.1,1185.8 1209.4,1172.1 1194.0,1157.9 1178.9,1143.1 1164.1,1127.8 1149.7,1112.3  A 522.500,522.500 0.00 0,1 1162.2,1101.4 L 1162.2,1101.4 1176.0,1117.3 1190.1,1132.9 1204.7,1148.1 1219.5,1162.8 1234.5,1176.8 1249.8,1190.1 1265.3,1202.7 1280.9,1214.3 1296.6,1225.0 1312.3,1234.8 1328.1,1243.4 1344.0,1250.9 1359.8,1257.3 1375.5,1262.4 1391.1,1266.3 1406.7,1269.0 1422.1,1270.3 1437.3,1270.4 1452.3,1269.1 1467.1,1266.6 1481.7,1262.7 1496.0,1257.5 1510.0,1251.0 1523.8,1243.3 1537.2,1234.4 1550.3,1224.2 1563.0,1212.9 1575.4,1200.5 1587.3,1187.0 1598.9,1172.6 1610.1,1157.2 1620.8,1141.0 1631.2,1123.9 1641.1,1106.3 1650.5,1088.0 1659.5,1069.2 1668.1,1050.0 1676.1,1030.5 1683.8,1010.9  Z" style="stroke-width: 0.5;  stroke: rgb(0,0,0); fill: rgb(179,177,178);" />
<path d="M 1948.261,1768.456 A 522.500,522.500 0.00 0,1 1939.9,1782.0 L 1939.9,1782.0 1920.6,1770.0 1900.8,1758.2 1880.7,1747.0 1860.2,1736.2 1839.3,1725.9 1818.1,1716.3 1796.6,1707.2 1774.9,1698.9 1752.9,1691.3 1730.8,1684.5 1708.5,1678.5 1686.0,1673.4 1663.5,1669.1 1640.8,1665.7 1618.1,1663.2 1595.4,1661.6 1572.7,1661.0 1550.0,1661.3 1527.4,1662.5 1504.9,1664.8 1482.4,1667.9 1460.1,1672.1 1438.0,1677.1 1416.0,1683.1 1394.2,1690.0 1372.7,1697.7 1351.4,1706.3 1330.4,1715.8 1309.7,1726.0 1289.3,1737.0 1269.2,1748.8 1249.6,1761.2 1230.3,1774.2 1211.4,1787.8 1192.9,1801.9 1174.9,1816.5 1157.3,1831.5 1140.2,1846.9 1123.7,1862.5  A 522.500,522.500 0.00 0,1 1113.2,1851.2 L 1113.2,1851.2 1130.3,1836.0 1147.9,1821.1 1166.0,1806.5 1184.6,1792.2 1203.6,1778.5 1223.1,1765.2 1242.9,1752.5 1263.1,1740.4 1283.6,1729.0 1304.5,1718.3 1325.8,1708.3 1347.3,1699.0 1369.0,1690.6 1391.1,1683.0 1413.3,1676.2 1435.7,1670.3 1458.4,1665.3 1481.1,1661.2 1504.0,1658.0 1527.1,1655.8 1550.1,1654.4 1573.3,1653.9 1596.4,1654.4 1619.6,1655.8 1642.7,1658.0 1665.8,1661.2 1688.8,1665.2 1711.7,1670.0 1734.5,1675.6 1757.1,1682.1 1779.5,1689.2 1801.7,1697.1 1823.6,1705.7 1845.3,1714.9 1866.6,1724.6 1887.6,1734.9 1908.2,1745.7 1928.5,1756.9 1948.3,1768.5  Z" style="stroke-width: 0.5;  stroke: rgb(0,0,0); fill: rgb(179,177,178);" />
<path d="M 2003.280,1640.410 A 522.500,522.500 0.00 0,1 1998.8,1655.4 L 1998.8,1655.4 1975.6,1648.4 1952.0,1641.6 1928.1,1635.2 1903.9,1629.2 1879.5,1623.6 1854.8,1618.4 1830.0,1613.6 1804.9,1609.4 1779.7,1605.6 1754.3,1602.3 1728.8,1599.6 1703.1,1597.4 1677.4,1595.7 1651.7,1594.7 1625.8,1594.2 1600.0,1594.3 1574.1,1595.0 1548.2,1596.2 1522.4,1598.1 1496.6,1600.6 1470.9,1603.7 1445.3,1607.3 1419.8,1611.6 1394.4,1616.4 1369.1,1621.8 1344.0,1627.7 1319.1,1634.2 1294.3,1641.2 1269.8,1648.8 1245.5,1656.8 1221.4,1665.3 1197.6,1674.3 1174.1,1683.6 1150.9,1693.4 1128.0,1703.6 1105.4,1714.1 1083.2,1724.9 1061.3,1736.0 1039.8,1747.4  A 522.500,522.500 0.00 0,1 1032.5,1733.4 L 1032.5,1733.4 1054.5,1722.6 1076.9,1712.1 1099.6,1701.8 1122.6,1691.8 1145.9,1682.2 1169.5,1672.9 1193.4,1663.9 1217.6,1655.4 1241.9,1647.3 1266.6,1639.6 1291.4,1632.4 1316.4,1625.7 1341.7,1619.5 1367.0,1613.8 1392.6,1608.6 1418.2,1603.9 1444.0,1599.8 1469.9,1596.2 1495.8,1593.1 1521.8,1590.6 1547.9,1588.7 1573.9,1587.3 1600.0,1586.5 1626.1,1586.2 1652.2,1586.5 1678.2,1587.3 1704.1,1588.6 1729.9,1590.4 1755.7,1592.8 1781.3,1595.6 1806.8,1598.9 1832.1,1602.7 1857.3,1607.0 1882.2,1611.6 1907.0,1616.7 1931.5,1622.1 1955.7,1627.9 1979.6,1634.0 2003.3,1640.4  Z" style="stroke-width: 0.5;  stroke: rgb(0,0,0); fill: rgb(179,177,178);" />
<path d="M 2021.821,1473.368 A 522.500,522.500 0.00 0,1 2022.4,1488.2 L 2022.4,1488.2 1996.1,1488.9 1969.9,1489.6 1943.5,1490.4 1917.0,1491.4 1890.5,1492.5 1864.0,1493.6 1837.4,1494.9 1810.7,1496.4 1784.0,1497.9 1757.3,1499.6 1730.6,1501.4 1703.8,1503.4 1677.0,1505.5 1650.1,1507.7 1623.3,1510.1 1596.5,1512.6 1569.6,1515.2 1542.8,1518.0 1516.0,1520.9 1489.2,1524.0 1462.4,1527.2 1435.6,1530.5 1408.9,1534.0 1382.1,1537.6 1355.5,1541.4 1328.8,1545.3 1302.2,1549.3 1275.7,1553.4 1249.2,1557.7 1222.8,1562.1 1196.5,1566.6 1170.2,1571.2 1144.0,1575.9 1117.8,1580.8 1091.8,1585.7 1065.8,1590.7 1039.9,1595.9 1014.1,1601.1 988.4,1606.4  A 522.500,522.500 0.00 0,1 985.6,1591.5 L 985.6,1591.5 1011.6,1586.9 1037.6,1582.4 1063.8,1577.9 1090.0,1573.5 1116.2,1569.1 1142.6,1564.9 1168.9,1560.7 1195.3,1556.6 1221.8,1552.5 1248.3,1548.5 1274.9,1544.7 1301.4,1540.9 1328.1,1537.2 1354.7,1533.6 1381.4,1530.0 1408.1,1526.6 1434.8,1523.3 1461.6,1520.0 1488.4,1516.9 1515.1,1513.8 1541.9,1510.9 1568.7,1508.0 1595.5,1505.2 1622.3,1502.6 1649.1,1500.0 1675.9,1497.5 1702.7,1495.1 1729.4,1492.8 1756.2,1490.6 1782.9,1488.5 1809.6,1486.5 1836.2,1484.6 1862.9,1482.8 1889.5,1481.0 1916.0,1479.3 1942.6,1477.7 1969.0,1476.2 1995.5,1474.7 2021.8,1473.4  Z" style="stroke-width: 0.5;  stroke: rgb(0,0,0); fill: rgb(179,177,178);" />
<path d="M 1939.044,1783.279 A 522.500,522.500 0.00 0,1 1931.0,1795.4 L 1931.0,1795.4 1912.2,1782.9 1893.0,1770.7 1873.3,1758.9 1853.3,1747.6 1832.9,1736.9 1812.2,1726.7 1791.2,1717.3 1770.0,1708.5 1748.5,1700.5 1726.8,1693.3 1705.0,1687.0 1683.0,1681.5 1660.9,1676.9 1638.8,1673.2 1616.6,1670.5 1594.3,1668.7 1572.1,1667.9 1549.9,1668.1 1527.8,1669.3 1505.7,1671.5 1483.8,1674.6 1461.9,1678.7 1440.3,1683.8 1418.8,1689.9 1397.6,1696.9 1376.5,1704.8 1355.8,1713.6 1335.3,1723.3 1315.1,1733.8 1295.3,1745.0 1275.7,1757.1 1256.6,1769.8 1237.9,1783.1 1219.5,1797.1 1201.6,1811.6 1184.2,1826.5 1167.2,1841.9 1150.7,1857.6 1134.7,1873.6  A 522.500,522.500 0.00 0,1 1124.4,1863.2 L 1124.4,1863.2 1140.9,1847.6 1158.0,1832.3 1175.5,1817.2 1193.5,1802.6 1211.9,1788.5 1230.8,1774.8 1250.0,1761.8 1269.7,1749.4 1289.7,1737.6 1310.0,1726.6 1330.7,1716.3 1351.7,1706.9 1372.9,1698.3 1394.4,1690.5 1416.1,1683.6 1438.1,1677.6 1460.2,1672.6 1482.5,1668.5 1504.9,1665.3 1527.4,1663.1 1550.0,1661.9 1572.6,1661.6 1595.3,1662.2 1618.0,1663.8 1640.6,1666.3 1663.2,1669.8 1685.7,1674.1 1708.1,1679.3 1730.4,1685.3 1752.5,1692.2 1774.4,1699.8 1796.1,1708.2 1817.5,1717.2 1838.7,1726.9 1859.5,1737.2 1880.0,1748.1 1900.1,1759.4 1919.8,1771.2 1939.0,1783.3  Z" style="stroke-width: 0.5;  stroke: rgb(0,0,0); fill: rgb(179,177,178);" />
<path d="M 1743.725,1037.827 A 522.500,522.500 0.00 0,1 1756.3,1044.7 L 1756.3,1044.7 1745.4,1063.4 1734.1,1082.0 1722.2,1100.3 1709.8,1118.1 1696.9,1135.5 1683.6,1152.4 1669.7,1168.6 1655.5,1184.1 1640.8,1198.8 1625.6,1212.6 1610.1,1225.6 1594.2,1237.6 1577.9,1248.6 1561.3,1258.5 1544.3,1267.4 1527.1,1275.2 1509.5,1281.8 1491.7,1287.3 1473.6,1291.7 1455.3,1294.8 1436.9,1296.7 1418.2,1297.5 1399.5,1297.1 1380.6,1295.6 1361.6,1292.8 1342.6,1289.0 1323.6,1284.1 1304.6,1278.1 1285.6,1271.0 1266.7,1263.0 1248.0,1254.1 1229.4,1244.2 1210.9,1233.6 1192.7,1222.2 1174.8,1210.1 1157.1,1197.4 1139.8,1184.1 1122.9,1170.4 1106.4,1156.3  A 522.500,522.500 0.00 0,1 1115.8,1145.8 L 1115.8,1145.8 1131.9,1160.3 1148.3,1174.3 1165.1,1188.0 1182.3,1201.0 1199.7,1213.5 1217.4,1225.3 1235.3,1236.3 1253.5,1246.5 1271.7,1255.8 1290.1,1264.1 1308.5,1271.4 1327.0,1277.7 1345.4,1282.9 1363.9,1287.0 1382.3,1289.9 1400.6,1291.7 1418.8,1292.3 1436.8,1291.7 1454.7,1289.8 1472.4,1286.8 1489.9,1282.5 1507.1,1277.1 1524.1,1270.5 1540.8,1262.7 1557.1,1253.8 1573.2,1243.8 1588.8,1232.7 1604.1,1220.6 1619.1,1207.5 1633.6,1193.5 1647.7,1178.7 1661.3,1163.0 1674.5,1146.7 1687.3,1129.6 1699.6,1112.1 1711.4,1094.0 1722.7,1075.5 1733.4,1056.8 1743.7,1037.8  Z" style="stroke-width: 0.5;  stroke: rgb(0,0,0); fill: rgb(179,177,178);" />
<path d="M 2022.426,1508.777 A 522.500,522.500 0.00 0,1 2022.1,1521.6 L 2022.1,1521.6 1996.2,1520.6 1970.3,1519.8 1944.3,1519.1 1918.1,1518.7 1891.8,1518.4 1865.4,1518.3 1839.0,1518.4 1812.4,1518.7 1785.8,1519.2 1759.1,1519.9 1732.4,1520.9 1705.7,1522.1 1678.9,1523.5 1652.0,1525.2 1625.2,1527.0 1598.3,1529.2 1571.5,1531.5 1544.6,1534.1 1517.8,1536.9 1491.0,1540.0 1464.2,1543.3 1437.5,1546.9 1410.8,1550.6 1384.2,1554.7 1357.6,1558.9 1331.1,1563.4 1304.7,1568.0 1278.3,1572.9 1252.1,1578.1 1225.9,1583.4 1199.9,1588.9 1174.0,1594.6 1148.2,1600.5 1122.5,1606.5 1097.0,1612.7 1071.6,1619.1 1046.4,1625.7 1021.3,1632.3 996.4,1639.1  A 522.500,522.500 0.00 0,1 993.1,1626.8 L 993.1,1626.8 1018.3,1620.5 1043.7,1614.4 1069.2,1608.4 1094.8,1602.5 1120.5,1596.8 1146.4,1591.2 1172.4,1585.7 1198.4,1580.4 1224.6,1575.3 1250.9,1570.3 1277.2,1565.5 1303.6,1560.9 1330.1,1556.5 1356.7,1552.2 1383.3,1548.2 1410.0,1544.3 1436.7,1540.6 1463.5,1537.2 1490.3,1533.9 1517.1,1530.8 1544.0,1527.9 1570.8,1525.3 1597.7,1522.8 1624.5,1520.5 1651.4,1518.4 1678.2,1516.6 1705.0,1514.9 1731.8,1513.4 1758.6,1512.1 1785.3,1511.0 1811.9,1510.1 1838.5,1509.4 1865.1,1508.8 1891.5,1508.4 1917.9,1508.2 1944.2,1508.1 1970.4,1508.2 1996.5,1508.4 2022.4,1508.8  Z" style="stroke-width: 0.5;  stroke: rgb(0,0,0); fill: rgb(179,177,178);" />
<path d="M 1876.707,1862.075 A 522.500,522.500 0.00 0,1 1868.3,1870.6 L 1868.3,1870.6 1852.8,1855.4 1836.9,1840.5 1820.6,1826.1 1803.9,1812.2 1786.8,1798.8 1769.4,1786.1 1751.8,1774.2 1733.9,1763.0 1715.8,1752.7 1697.5,1743.4 1679.0,1735.0 1660.4,1727.6 1641.8,1721.3 1623.0,1716.1 1604.2,1712.1 1585.5,1709.1 1566.7,1707.4 1548.0,1706.8 1529.4,1707.4 1510.9,1709.2 1492.5,1712.1 1474.2,1716.3 1456.2,1721.6 1438.3,1728.1 1420.7,1735.7 1403.3,1744.4 1386.1,1754.2 1369.3,1764.9 1352.8,1776.7 1336.6,1789.4 1320.8,1802.9 1305.4,1817.3 1290.4,1832.4 1275.7,1848.2 1261.5,1864.6 1247.8,1881.5 1234.5,1898.8 1221.8,1916.4 1209.5,1934.3  A 522.500,522.500 0.00 0,1 1199.6,1927.5 L 1199.6,1927.5 1212.3,1909.8 1225.6,1892.4 1239.3,1875.3 1253.5,1858.6 1268.2,1842.4 1283.3,1826.9 1298.8,1811.9 1314.8,1797.8 1331.1,1784.4 1347.7,1771.8 1364.7,1760.2 1382.1,1749.6 1399.7,1739.9 1417.6,1731.3 1435.7,1723.8 1454.0,1717.3 1472.6,1712.0 1491.3,1707.9 1510.2,1704.9 1529.2,1703.0 1548.3,1702.3 1567.5,1702.8 1586.7,1704.5 1606.0,1707.3 1625.2,1711.2 1644.4,1716.3 1663.5,1722.4 1682.6,1729.5 1701.5,1737.7 1720.2,1746.8 1738.8,1756.8 1757.2,1767.7 1775.3,1779.3 1793.1,1791.7 1810.6,1804.8 1827.7,1818.4 1844.5,1832.6 1860.8,1847.2 1876.7,1862.1  Z" style="stroke-width: 0.5;  stroke: rgb(0,0,0); fill: rgb(179,177,178);" />
<path d="M 1745.983,1960.975 A 522.500,522.500 0.00 0,1 1735.7,1966.3 L 1735.7,1966.3 1726.2,1948.0 1716.4,1929.9 1706.2,1912.1 1695.8,1894.8 1685.1,1878.2 1674.2,1862.2 1663.1,1847.0 1651.8,1832.6 1640.3,1819.3 1628.7,1807.0 1617.0,1795.8 1605.3,1785.7 1593.4,1776.9 1581.5,1769.4 1569.6,1763.2 1557.7,1758.4 1545.8,1754.9 1533.9,1752.8 1522.2,1752.2 1510.5,1752.9 1498.9,1755.1 1487.4,1758.7 1476.0,1763.6 1464.8,1770.0 1453.8,1777.7 1443.0,1786.7 1432.4,1796.9 1422.0,1808.4 1411.8,1821.0 1401.9,1834.7 1392.2,1849.4 1382.9,1865.1 1373.8,1881.6 1365.0,1898.8 1356.6,1916.8 1348.5,1935.2 1340.7,1954.1 1333.3,1973.4 1326.3,1992.8  A 522.500,522.500 0.00 0,1 1315.4,1988.8 L 1315.4,1988.8 1322.9,1969.5 1330.8,1950.4 1339.0,1931.6 1347.6,1913.2 1356.6,1895.4 1365.9,1878.2 1375.5,1861.8 1385.4,1846.3 1395.6,1831.7 1406.1,1818.0 1416.8,1805.5 1427.8,1794.1 1439.0,1783.9 1450.4,1775.0 1462.0,1767.3 1473.8,1761.0 1485.7,1756.0 1497.8,1752.4 1510.0,1750.2 1522.3,1749.4 1534.7,1750.0 1547.1,1752.0 1559.6,1755.4 1572.1,1760.2 1584.6,1766.3 1597.0,1773.7 1609.5,1782.4 1621.8,1792.3 1634.1,1803.3 1646.2,1815.5 1658.2,1828.7 1670.0,1842.8 1681.7,1857.8 1693.1,1873.7 1704.3,1890.2 1715.2,1907.3 1725.8,1924.9 1736.1,1942.8 1746.0,1961.0  Z" style="stroke-width: 0.5;  stroke: rgb(0,0,0); fill: rgb(179,177,178);" />
<path d="M 1729.309,1969.493 A 522.500,522.500 0.00 0,1 1718.9,1974.4 L 1718.9,1974.4 1710.2,1955.8 1701.1,1937.5 1691.7,1919.4 1682.0,1901.9 1672.1,1884.9 1662.0,1868.7 1651.7,1853.2 1641.3,1838.6 1630.7,1825.0 1619.9,1812.4 1609.1,1801.0 1598.2,1790.8 1587.2,1781.8 1576.2,1774.0 1565.2,1767.7 1554.2,1762.6 1543.2,1759.0 1532.3,1756.8 1521.4,1756.1 1510.6,1756.8 1499.9,1758.9 1489.3,1762.4 1478.9,1767.4 1468.6,1773.7 1458.5,1781.4 1448.5,1790.4 1438.7,1800.7 1429.2,1812.2 1419.9,1824.9 1410.8,1838.7 1402.0,1853.6 1393.4,1869.3 1385.1,1886.0 1377.1,1903.4 1369.4,1921.4 1362.0,1940.0 1354.9,1959.1 1348.2,1978.4 1341.8,1998.0  A 522.500,522.500 0.00 0,1 1330.9,1994.4 L 1330.9,1994.4 1337.8,1974.9 1345.0,1955.7 1352.5,1936.7 1360.4,1918.2 1368.6,1900.3 1377.2,1883.0 1386.0,1866.4 1395.1,1850.7 1404.5,1836.0 1414.1,1822.3 1424.0,1809.6 1434.2,1798.2 1444.5,1787.9 1455.0,1778.9 1465.8,1771.2 1476.7,1764.9 1487.7,1760.0 1498.9,1756.4 1510.2,1754.3 1521.6,1753.6 1533.0,1754.3 1544.6,1756.4 1556.1,1760.0 1567.7,1764.9 1579.3,1771.2 1590.9,1778.8 1602.5,1787.7 1613.9,1797.8 1625.3,1809.1 1636.6,1821.5 1647.7,1834.9 1658.7,1849.4 1669.6,1864.7 1680.2,1880.8 1690.6,1897.6 1700.7,1915.0 1710.5,1932.8 1720.1,1951.0 1729.3,1969.5  Z" style="stroke-width: 0.5;  stroke: rgb(0,0,0); fill: rgb(179,177,178);" />
<path d="M 1986.955,1310.578 A 522.500,522.500 0.00 0,1 1990.3,1319.4 L 1990.3,1319.4 1966.0,1328.2 1941.6,1337.0 1917.0,1345.6 1892.2,1354.1 1867.3,1362.4 1842.2,1370.6 1817.0,1378.6 1791.6,1386.5 1766.1,1394.2 1740.5,1401.7 1714.8,1409.0 1689.0,1416.1 1663.0,1423.0 1637.0,1429.7 1610.9,1436.1 1584.7,1442.4 1558.4,1448.4 1532.0,1454.2 1505.6,1459.8 1479.2,1465.1 1452.7,1470.2 1426.2,1475.1 1399.6,1479.8 1373.0,1484.2 1346.5,1488.3 1319.9,1492.3 1293.3,1496.0 1266.7,1499.5 1240.2,1502.7 1213.7,1505.7 1187.2,1508.6 1160.8,1511.2 1134.4,1513.5 1108.1,1515.7 1081.9,1517.7 1055.8,1519.5 1029.8,1521.1 1003.8,1522.5 978.0,1523.8  A 522.500,522.500 0.00 0,1 977.7,1514.0 L 977.7,1514.0 1003.4,1513.3 1029.2,1512.3 1055.2,1511.1 1081.3,1509.8 1107.4,1508.2 1133.7,1506.4 1160.0,1504.3 1186.4,1502.1 1212.8,1499.6 1239.3,1496.8 1265.9,1493.8 1292.4,1490.6 1319.0,1487.1 1345.6,1483.3 1372.2,1479.3 1398.8,1475.0 1425.3,1470.5 1451.8,1465.7 1478.3,1460.6 1504.7,1455.3 1531.1,1449.7 1557.4,1443.8 1583.7,1437.7 1609.8,1431.4 1635.9,1424.8 1661.8,1418.0 1687.7,1410.9 1713.4,1403.6 1739.1,1396.1 1764.6,1388.4 1789.9,1380.4 1815.1,1372.3 1840.2,1363.9 1865.1,1355.4 1889.8,1346.8 1914.4,1337.9 1938.8,1328.9 1963.0,1319.8 1987.0,1310.6  Z" style="stroke-width: 0.5;  stroke: rgb(0,0,0); fill: rgb(179,177,178);" />
<path d="M 1976.307,1285.203 A 522.500,522.500 0.00 0,1 1980.0,1293.7 L 1980.0,1293.7 1956.6,1303.7 1932.9,1313.5 1909.0,1323.1 1884.9,1332.6 1860.5,1341.9 1836.0,1351.0 1811.3,1359.9 1786.4,1368.6 1761.3,1377.0 1736.0,1385.2 1710.6,1393.1 1685.1,1400.7 1659.4,1408.1 1633.6,1415.2 1607.7,1421.9 1581.6,1428.4 1555.5,1434.6 1529.3,1440.5 1503.0,1446.1 1476.6,1451.3 1450.2,1456.3 1423.7,1460.9 1397.2,1465.2 1370.6,1469.2 1344.1,1472.9 1317.5,1476.2 1291.0,1479.3 1264.5,1482.0 1238.0,1484.4 1211.5,1486.6 1185.1,1488.4 1158.8,1490.0 1132.6,1491.2 1106.4,1492.2 1080.4,1493.0 1054.5,1493.4 1028.7,1493.7 1003.0,1493.7 977.5,1493.5  A 522.500,522.500 0.00 0,1 977.7,1484.1 L 977.7,1484.1 1003.1,1484.8 1028.6,1485.2 1054.3,1485.4 1080.2,1485.3 1106.1,1484.9 1132.2,1484.3 1158.4,1483.4 1184.7,1482.1 1211.0,1480.6 1237.4,1478.7 1263.9,1476.5 1290.4,1474.0 1316.9,1471.2 1343.4,1468.0 1369.9,1464.4 1396.4,1460.6 1422.9,1456.4 1449.3,1451.8 1475.7,1446.9 1502.1,1441.7 1528.3,1436.1 1554.5,1430.1 1580.5,1423.9 1606.5,1417.3 1632.4,1410.4 1658.1,1403.2 1683.7,1395.7 1709.1,1387.8 1734.4,1379.7 1759.5,1371.3 1784.4,1362.7 1809.1,1353.7 1833.7,1344.6 1858.0,1335.2 1882.1,1325.5 1906.0,1315.7 1929.7,1305.7 1953.1,1295.5 1976.3,1285.2  Z" style="stroke-width: 0.5;  stroke: rgb(0,0,0); fill: rgb(179,177,178);" />
<path d="M 1862.916,1875.896 A 522.500,522.500 0.00 0,1 1857.2,1881.3 L 1857.2,1881.3 1842.3,1865.8 1826.9,1850.6 1811.2,1835.8 1795.1,1821.5 1778.6,1807.8 1761.9,1794.8 1744.9,1782.5 1727.6,1771.1 1710.1,1760.5 1692.5,1750.9 1674.8,1742.3 1656.9,1734.7 1638.9,1728.3 1620.9,1722.9 1602.9,1718.7 1584.9,1715.7 1566.9,1713.9 1549.0,1713.3 1531.1,1713.9 1513.4,1715.7 1495.8,1718.8 1478.4,1723.0 1461.2,1728.5 1444.2,1735.2 1427.4,1743.0 1410.9,1751.9 1394.6,1761.9 1378.7,1773.0 1363.1,1785.1 1347.8,1798.1 1332.9,1812.0 1318.3,1826.8 1304.2,1842.3 1290.5,1858.4 1277.2,1875.2 1264.3,1892.5 1252.0,1910.2 1240.1,1928.3 1228.7,1946.5  A 522.500,522.500 0.00 0,1 1222.3,1942.6 L 1222.3,1942.6 1234.0,1924.4 1246.2,1906.5 1258.9,1888.9 1272.0,1871.7 1285.6,1855.1 1299.6,1839.0 1314.1,1823.6 1329.0,1809.0 1344.2,1795.2 1359.8,1782.2 1375.7,1770.2 1392.0,1759.2 1408.6,1749.2 1425.4,1740.3 1442.5,1732.6 1459.9,1725.9 1477.4,1720.4 1495.2,1716.1 1513.1,1713.1 1531.1,1711.2 1549.3,1710.5 1567.5,1711.1 1585.8,1712.8 1604.1,1715.7 1622.5,1719.8 1640.8,1725.1 1659.1,1731.4 1677.3,1738.8 1695.3,1747.3 1713.3,1756.7 1731.0,1767.1 1748.6,1778.4 1765.9,1790.5 1782.9,1803.3 1799.7,1816.8 1816.1,1830.9 1832.1,1845.5 1847.7,1860.5 1862.9,1875.9  Z" style="stroke-width: 0.5;  stroke: rgb(0,0,0); fill: rgb(179,177,178);" />
<path d="M 2021.178,1462.859 A 522.500,522.500 0.00 0,1 2021.7,1470.7 L 2021.7,1470.7 1995.3,1472.2 1968.9,1473.8 1942.4,1475.4 1915.8,1477.1 1889.3,1478.9 1862.7,1480.8 1836.0,1482.8 1809.4,1484.8 1782.7,1486.9 1756.0,1489.1 1729.2,1491.4 1702.5,1493.8 1675.7,1496.2 1649.0,1498.8 1622.2,1501.4 1595.4,1504.1 1568.6,1506.9 1541.8,1509.9 1515.0,1512.9 1488.3,1515.9 1461.5,1519.1 1434.8,1522.4 1408.1,1525.7 1381.4,1529.2 1354.7,1532.7 1328.0,1536.3 1301.4,1540.0 1274.8,1543.8 1248.3,1547.7 1221.8,1551.6 1195.3,1555.6 1168.9,1559.7 1142.5,1563.9 1116.2,1568.1 1089.9,1572.4 1063.7,1576.8 1037.5,1581.2 1011.4,1585.7 985.4,1590.2  A 522.500,522.500 0.00 0,1 984.0,1582.4 L 984.0,1582.4 1010.2,1578.3 1036.5,1574.2 1062.8,1570.1 1089.1,1566.0 1115.5,1562.1 1141.9,1558.1 1168.3,1554.2 1194.8,1550.4 1221.3,1546.6 1247.9,1542.9 1274.5,1539.3 1301.1,1535.7 1327.7,1532.1 1354.4,1528.6 1381.0,1525.2 1407.7,1521.9 1434.4,1518.6 1461.1,1515.4 1487.9,1512.2 1514.6,1509.1 1541.3,1506.1 1568.1,1503.2 1594.8,1500.3 1621.6,1497.5 1648.3,1494.7 1675.1,1492.1 1701.8,1489.4 1728.5,1486.9 1755.3,1484.4 1782.0,1482.0 1808.6,1479.6 1835.3,1477.3 1861.9,1475.1 1888.6,1472.9 1915.1,1470.8 1941.7,1468.7 1968.2,1466.7 1994.7,1464.8 2021.2,1462.9  Z" style="stroke-width: 0.5;  stroke: rgb(0,0,0); fill: rgb(179,177,178);" />
<path d="M 1852.775,1114.570 A 522.500,522.500 0.00 0,1 1857.8,1119.3 L 1857.8,1119.3 1842.0,1135.7 1825.7,1151.9 1808.9,1167.8 1791.6,1183.3 1773.8,1198.4 1755.6,1213.0 1736.9,1227.0 1717.8,1240.5 1698.3,1253.3 1678.5,1265.4 1658.2,1276.8 1637.7,1287.4 1616.8,1297.2 1595.6,1306.1 1574.1,1314.2 1552.4,1321.5 1530.4,1327.8 1508.3,1333.2 1485.9,1337.7 1463.4,1341.3 1440.7,1343.9 1418.0,1345.6 1395.1,1346.3 1372.2,1346.1 1349.3,1345.0 1326.4,1343.0 1303.5,1340.2 1280.7,1336.4 1257.9,1331.8 1235.3,1326.4 1212.8,1320.3 1190.5,1313.4 1168.4,1305.8 1146.6,1297.5 1125.0,1288.6 1103.7,1279.2 1082.8,1269.3 1062.3,1258.9 1042.2,1248.1  A 522.500,522.500 0.00 0,1 1045.6,1242.1 L 1045.6,1242.1 1065.5,1253.1 1085.8,1263.7 1106.5,1273.9 1127.6,1283.5 1148.9,1292.6 1170.6,1301.1 1192.5,1308.9 1214.6,1316.0 1236.9,1322.4 1259.3,1327.9 1281.9,1332.7 1304.5,1336.6 1327.2,1339.6 1350.0,1341.7 1372.7,1342.9 1395.4,1343.2 1418.0,1342.5 1440.6,1340.9 1463.0,1338.3 1485.3,1334.8 1507.5,1330.3 1529.4,1324.9 1551.2,1318.6 1572.7,1311.3 1593.9,1303.2 1614.9,1294.1 1635.6,1284.3 1655.9,1273.6 1675.9,1262.1 1695.6,1249.9 1714.8,1237.0 1733.6,1223.4 1752.1,1209.2 1770.0,1194.5 1787.6,1179.2 1804.6,1163.6 1821.2,1147.5 1837.2,1131.2 1852.8,1114.6  Z" style="stroke-width: 0.5;  stroke: rgb(0,0,0); fill: rgb(179,177,178);" />
</g>
<g id="plot0">
<g id="plot0-axis">
</g>
<line x1='2243.8' y1='1596.4' x2='2243.8' y2='1596.4' style="stroke-width:14.0;stroke:rgb(0,0,0);stroke-linecap:round;fill:none;" />
<line x1='2243.8' y1='1596.4' x2='2283.4' y2='1601.5' style="stroke-width:14.0;stroke:rgb(0,0,0);stroke-linecap:round;fill:none;" />
<line x1='2283.4' y1='1601.5' x2='2283.4' y2='1601.5' style="stroke-width:14.0;stroke:rgb(0,0,0);stroke-linecap:round;fill:none;" />
<text x="2300.1" y="1626.4" font-size="46.8px" font-family="CMUBright-Roman" style="text-anchor:start;fill:rgb(255,38,78);" transform="rotate(7.4,2300.1,1626.4)" >HistoohiSECH82<tspan baseline-shift="-40%" font-size="90%">s</tspan>02781</text>
</g>
<defs>
<pattern id="hline-sparse" width="10" height="10" patternTransform="rotate(0 0 0)" patternUnits="userSpaceOnUse"><line x1="0" y1="0" x2="10" y2="0" style="stroke:black;stroke-width:2" /></pattern>
<pattern id="vline" width="10" height="10" patternTransform="rotate(0 0 0)" patternUnits="userSpaceOnUse"><line x1="0" y1="0" x2="0" y2="10" style="stroke:black;stroke-width:5" /></pattern>
<pattern id="vline-sparse" width="10" height="10" patternTransform="rotate(0 0 0)" patternUnits="userSpaceOnUse"><line x1="0" y1="0" x2="0" y2="10" style="stroke:black;stroke-width:2" /></pattern>
<pattern id="hline" width="10" height="10" patternTransform="rotate(0 0 0)" patternUnits="userSpaceOnUse"><line x1="0" y1="0" x2="10" y2="0" style="stroke:black;stroke-width:5" /></pattern>
<pattern id="checker" width="10" height="10" patternTransform="rotate(45 0 0)" patternUnits="userSpaceOnUse"><line x1="0" y1="0" x2="10" y2="0" style="stroke:black;stroke-width:5" /><line x1="0" y1="0" x2="0" y2="10" style="stroke:black;stroke-width:4" /></pattern>
<pattern id="checker" width="10" height="10" patternTransform="rotate(45 0 0)" patternUnits="userSpaceOnUse"><line x1="0" y1="0" x2="10" y2="0" style="stroke:black;stroke-width:2" /><line x1="0" y1="0" x2="0" y2="10" style="stroke:black;stroke-width:2" /></pattern>
</defs>
</svg>
