<?xml version="1.0" encoding="utf-8" standalone="no"?>
<!DOCTYPE svg PUBLIC "-//W3C//DTD SVG 1.1//EN" "http://www.w3.org/Graphics/SVG/1.1/DTD/svg11.dtd">
<svg width="3000px" height="3000px" version="1.1" xmlns="http://www.w3.org/2000/svg" xmlns:xlink="http://www.w3.org/1999/xlink">
<g id="bg">
<rect x="0" y="0" width="3000px" height="3000px" style="fill:rgb(255,255,255);"/>
</g>
<g id="ideograms">
<path d="M1500.000,950.000 A550.000,550.000 40.000 0,1 1603.454,2040.183 L1641.074,2236.613 A750.000,750.000 0.000 0,0 1500.000,750.000 Z" style="stroke-width:2.0;stroke:rgb(0,0,0);stroke-linecap:round;fill:rgb(179,177,178);" />
<text x="2470.6" y="1407.9" font-size="46.8px" font-family="CMUBright-Roman" style="text-anchor:middle;fill:rgb(0,0,0);" transform="rotate(444.6,2470.6,1407.9)" >HistomissWU24<tspan baseline-shift="-40%" font-size="90%">C</tspan>P069114</text>
<line x1='1518.8' y1='750.2' x2='1519.1' y2='738.2' style="stroke-width:8.0;stroke:rgb(150,150,150);stroke-linecap:round;fill:none;" />
<line x1='1614.4' y1='758.8' x2='1616.2' y2='746.9' style="stroke-width:8.0;stroke:rgb(150,150,150);stroke-linecap:round;fill:none;" />
<line x1='1708.1' y1='779.4' x2='1711.4' y2='767.9' style="stroke-width:8.0;stroke:rgb(150,150,150);stroke-linecap:round;fill:none;" />
<text x="1728.2" y="760.4" font-size="41.6px" font-family="CMUBright-Roman" style="text-anchor:start;fill:rgb(150,150,150);" transform="rotate(286.1,1728.2,760.4)" >1650 kb</text>
<line x1='1798.4' y1='811.9' x2='1803.2' y2='800.9' style="stroke-width:8.0;stroke:rgb(150,150,150);stroke-linecap:round;fill:none;" />
<line x1='1883.8' y1='855.7' x2='1890.0' y2='845.4' style="stroke-width:8.0;stroke:rgb(150,150,150);stroke-linecap:round;fill:none;" />
<line x1='1963.0' y1='910.0' x2='1970.4' y2='900.5' style="stroke-width:8.0;stroke:rgb(150,150,150);stroke-linecap:round;fill:none;" />
<line x1='2034.5' y1='973.9' x2='2043.1' y2='965.5' style="stroke-width:8.0;stroke:rgb(150,150,150);stroke-linecap:round;fill:none;" />
<line x1='2097.4' y1='1046.5' x2='2106.9' y2='1039.2' style="stroke-width:8.0;stroke:rgb(150,150,150);stroke-linecap:round;fill:none;" />
<text x="2124.8" y="1043.2" font-size="41.6px" font-family="CMUBright-Roman" style="text-anchor:start;fill:rgb(150,150,150);" transform="rotate(322.8,2124.8,1043.2)" >1700 kb</text>
<line x1='2150.4' y1='1126.5' x2='2160.8' y2='1120.5' style="stroke-width:8.0;stroke:rgb(150,150,150);stroke-linecap:round;fill:none;" />
<line x1='2192.8' y1='1212.6' x2='2203.8' y2='1208.0' style="stroke-width:8.0;stroke:rgb(150,150,150);stroke-linecap:round;fill:none;" />
<line x1='2223.8' y1='1303.4' x2='2235.4' y2='1300.3' style="stroke-width:8.0;stroke:rgb(150,150,150);stroke-linecap:round;fill:none;" />
<line x1='2243.0' y1='1397.5' x2='2254.8' y2='1395.8' style="stroke-width:8.0;stroke:rgb(150,150,150);stroke-linecap:round;fill:none;" />
<line x1='2250.0' y1='1493.2' x2='2262.0' y2='1493.1' style="stroke-width:8.0;stroke:rgb(150,150,150);stroke-linecap:round;fill:none;" />
<text x="2274.0" y="1507.0" font-size="41.6px" font-family="CMUBright-Roman" style="text-anchor:start;fill:rgb(150,150,150);" transform="rotate(359.5,2274.0,1507.0)" >1750 kb</text>
<line x1='2244.7' y1='1589.0' x2='2256.6' y2='1590.5' style="stroke-width:8.0;stroke:rgb(150,150,150);stroke-linecap:round;fill:none;" />
<line x1='2227.2' y1='1683.4' x2='2238.9' y2='1686.3' style="stroke-width:8.0;stroke:rgb(150,150,150);stroke-linecap:round;fill:none;" />
<line x1='2197.9' y1='1774.8' x2='2209.0' y2='1779.2' style="stroke-width:8.0;stroke:rgb(150,150,150);stroke-linecap:round;fill:none;" />
<line x1='2157.0' y1='1861.7' x2='2167.6' y2='1867.4' style="stroke-width:8.0;stroke:rgb(150,150,150);stroke-linecap:round;fill:none;" />
<line x1='2105.5' y1='1942.6' x2='2115.2' y2='1949.7' style="stroke-width:8.0;stroke:rgb(150,150,150);stroke-linecap:round;fill:none;" />
<text x="2116.5" y="1968.0" font-size="41.6px" font-family="CMUBright-Roman" style="text-anchor:start;fill:rgb(150,150,150);" transform="rotate(36.2,2116.5,1968.0)" >1800 kb</text>
<line x1='2044.0' y1='2016.3' x2='2052.7' y2='2024.6' style="stroke-width:8.0;stroke:rgb(150,150,150);stroke-linecap:round;fill:none;" />
<line x1='1973.6' y1='2081.5' x2='1981.2' y2='2090.9' style="stroke-width:8.0;stroke:rgb(150,150,150);stroke-linecap:round;fill:none;" />
<line x1='1895.5' y1='2137.3' x2='1901.8' y2='2147.5' style="stroke-width:8.0;stroke:rgb(150,150,150);stroke-linecap:round;fill:none;" />
<line x1='1810.8' y1='2182.6' x2='1815.8' y2='2193.5' style="stroke-width:8.0;stroke:rgb(150,150,150);stroke-linecap:round;fill:none;" />
<line x1='1721.1' y1='2216.7' x2='1724.7' y2='2228.1' style="stroke-width:8.0;stroke:rgb(150,150,150);stroke-linecap:round;fill:none;" />
<text x="1714.8" y="2243.6" font-size="41.6px" font-family="CMUBright-Roman" style="text-anchor:start;fill:rgb(150,150,150);" transform="rotate(72.9,1714.8,2243.6)" >1850 kb</text>
<g id="highlighttrack_0">
<path d="M2027.001,1342.616 A550.000,550.000 40.000 0,1 2047.198,1555.447 L2246.179,1575.609 A750.000,750.000 0.000 0,0 2218.638,1285.385 Z" style="stroke-width:14.0;stroke:rgb(0,0,0);stroke-linecap:round;fill:rgb(255,38,78);" />
</g>
<path d="M1500.000,950.000 A550.000,550.000 40.000 0,1 1603.454,2040.183 L1641.074,2236.613 A750.000,750.000 0.000 0,0 1500.000,750.000 Z" style="stroke-width:2.0;stroke:rgb(0,0,0);stroke-linecap:round;fill:none;" />
<path d="M1393.455,2039.582 A550.000,550.000 40.000 0,1 1293.863,990.091 L1218.904,804.669 A750.000,750.000 0.000 0,0 1354.712,2235.793 Z" style="stroke-width:2.0;stroke:rgb(0,0,0);stroke-linecap:round;fill:rgb(179,177,178);" />
<text x="484.6" y="1596.4" font-size="46.8px" font-family="CMUBright-Roman" style="text-anchor:middle;fill:rgb(0,0,0);" transform="rotate(84.6,484.6,1596.4)" >HistocapCB174<tspan baseline-shift="-40%" font-size="90%">2</tspan></text>
<line x1='1135.8' y1='844.4' x2='1129.9' y2='833.9' style="stroke-width:8.0;stroke:rgb(150,150,150);stroke-linecap:round;fill:none;" />
<line x1='1055.0' y1='896.3' x2='1047.9' y2='886.6' style="stroke-width:8.0;stroke:rgb(150,150,150);stroke-linecap:round;fill:none;" />
<line x1='981.6' y1='958.0' x2='973.3' y2='949.4' style="stroke-width:8.0;stroke:rgb(150,150,150);stroke-linecap:round;fill:none;" />
<line x1='916.6' y1='1028.7' x2='907.3' y2='1021.1' style="stroke-width:8.0;stroke:rgb(150,150,150);stroke-linecap:round;fill:none;" />
<text x="889.2" y="1024.6" font-size="41.6px" font-family="CMUBright-Roman" style="text-anchor:end;fill:rgb(150,150,150);" transform="rotate(38.9,889.2,1024.6)" >1450 kb</text>
<line x1='861.2' y1='1107.1' x2='851.0' y2='1100.8' style="stroke-width:8.0;stroke:rgb(150,150,150);stroke-linecap:round;fill:none;" />
<line x1='816.2' y1='1191.9' x2='805.3' y2='1186.9' style="stroke-width:8.0;stroke:rgb(150,150,150);stroke-linecap:round;fill:none;" />
<line x1='782.5' y1='1281.7' x2='771.0' y2='1278.2' style="stroke-width:8.0;stroke:rgb(150,150,150);stroke-linecap:round;fill:none;" />
<line x1='760.5' y1='1375.1' x2='748.6' y2='1373.1' style="stroke-width:8.0;stroke:rgb(150,150,150);stroke-linecap:round;fill:none;" />
<line x1='750.6' y1='1470.6' x2='738.6' y2='1470.1' style="stroke-width:8.0;stroke:rgb(150,150,150);stroke-linecap:round;fill:none;" />
<text x="726.2" y="1483.6" font-size="41.6px" font-family="CMUBright-Roman" style="text-anchor:end;fill:rgb(150,150,150);" transform="rotate(2.2,726.2,1483.6)" >1500 kb</text>
<line x1='753.0' y1='1566.5' x2='741.0' y2='1567.6' style="stroke-width:8.0;stroke:rgb(150,150,150);stroke-linecap:round;fill:none;" />
<line x1='767.6' y1='1661.4' x2='755.9' y2='1664.0' style="stroke-width:8.0;stroke:rgb(150,150,150);stroke-linecap:round;fill:none;" />
<line x1='794.2' y1='1753.6' x2='782.9' y2='1757.7' style="stroke-width:8.0;stroke:rgb(150,150,150);stroke-linecap:round;fill:none;" />
<line x1='832.3' y1='1841.7' x2='821.7' y2='1847.1' style="stroke-width:8.0;stroke:rgb(150,150,150);stroke-linecap:round;fill:none;" />
<line x1='881.4' y1='1924.1' x2='871.6' y2='1930.9' style="stroke-width:8.0;stroke:rgb(150,150,150);stroke-linecap:round;fill:none;" />
<text x="869.7" y="1949.2" font-size="41.6px" font-family="CMUBright-Roman" style="text-anchor:end;fill:rgb(150,150,150);" transform="rotate(-34.4,869.7,1949.2)" >1550 kb</text>
<line x1='940.7' y1='1999.7' x2='931.7' y2='2007.7' style="stroke-width:8.0;stroke:rgb(150,150,150);stroke-linecap:round;fill:none;" />
<line x1='1009.1' y1='2067.0' x2='1001.2' y2='2076.1' style="stroke-width:8.0;stroke:rgb(150,150,150);stroke-linecap:round;fill:none;" />
<line x1='1085.5' y1='2125.1' x2='1078.9' y2='2135.1' style="stroke-width:8.0;stroke:rgb(150,150,150);stroke-linecap:round;fill:none;" />
<line x1='1168.7' y1='2172.9' x2='1163.4' y2='2183.6' style="stroke-width:8.0;stroke:rgb(150,150,150);stroke-linecap:round;fill:none;" />
<line x1='1257.4' y1='2209.7' x2='1253.5' y2='2221.0' style="stroke-width:8.0;stroke:rgb(150,150,150);stroke-linecap:round;fill:none;" />
<text x="1262.9" y="2236.8" font-size="41.6px" font-family="CMUBright-Roman" style="text-anchor:end;fill:rgb(150,150,150);" transform="rotate(-71.1,1262.9,2236.8)" >1600 kb</text>
<line x1='1350.0' y1='2234.8' x2='1347.6' y2='2246.6' style="stroke-width:8.0;stroke:rgb(150,150,150);stroke-linecap:round;fill:none;" />
<path d="M1393.455,2039.582 A550.000,550.000 40.000 0,1 1293.863,990.091 L1218.904,804.669 A750.000,750.000 0.000 0,0 1354.712,2235.793 Z" style="stroke-width:2.0;stroke:rgb(0,0,0);stroke-linecap:round;fill:none;" />
</g>
<g id="track_0">
<path d="M 1636.198,995.563 A 522.500,522.500 0.00 0,1 1832.8,1097.2 L 1832.8,1097.2 1818.1,1114.5 1802.9,1131.6 1787.2,1148.5 1771.0,1165.0 1754.3,1181.0 1737.1,1196.6 1719.4,1211.7 1701.3,1226.1 1682.8,1240.0 1663.8,1253.1 1644.5,1265.5 1624.7,1277.1 1604.6,1287.9 1584.2,1297.9 1563.4,1307.1 1542.4,1315.3 1521.0,1322.6 1499.4,1329.0 1477.6,1334.5 1455.5,1339.0 1433.3,1342.6 1410.9,1345.2 1388.4,1346.8 1365.8,1347.6 1343.1,1347.3 1320.4,1346.2 1297.7,1344.1 1274.9,1341.2 1252.3,1337.4 1229.7,1332.8 1207.2,1327.4 1184.8,1321.2 1162.7,1314.3 1140.8,1306.8 1119.1,1298.6 1097.7,1289.8 1076.6,1280.5 1055.9,1270.7 1035.6,1260.5  A 522.500,522.500 0.00 0,1 1176.4,1089.8 L 1176.4,1089.8 1189.5,1106.0 1202.9,1121.9 1216.6,1137.5 1230.5,1152.4 1244.7,1166.8 1259.0,1180.5 1273.5,1193.3 1288.0,1205.2 1302.6,1216.2 1317.2,1226.2 1331.8,1235.0 1346.4,1242.8 1360.8,1249.3 1375.2,1254.5 1389.4,1258.5 1403.4,1261.2 1417.3,1262.6 1430.9,1262.6 1444.3,1261.3 1457.4,1258.6 1470.2,1254.5 1482.7,1249.2 1494.9,1242.5 1506.7,1234.5 1518.2,1225.2 1529.3,1214.7 1540.1,1203.1 1550.4,1190.3 1560.3,1176.4 1569.9,1161.5 1579.0,1145.6 1587.6,1128.9 1595.9,1111.4 1603.7,1093.2 1611.1,1074.5 1618.0,1055.2 1624.5,1035.5 1630.6,1015.6 1636.2,995.6  Z" style="stroke-width: 0.5;  stroke: rgb(0,0,0); fill: rgb(179,177,178);" />
<path d="M 2019.838,1552.674 A 522.500,522.500 0.00 0,1 1961.1,1745.8 L 1961.1,1745.8 1940.0,1734.8 1918.5,1724.1 1896.6,1713.8 1874.4,1703.8 1851.8,1694.3 1828.9,1685.2 1805.7,1676.6 1782.2,1668.6 1758.5,1661.1 1734.6,1654.2 1710.4,1647.9 1686.1,1642.3 1661.5,1637.3 1636.9,1633.0 1612.1,1629.4 1587.2,1626.4 1562.3,1624.2 1537.2,1622.7 1512.2,1621.9 1487.1,1621.8 1462.1,1622.5 1437.0,1623.8 1412.1,1625.9 1387.2,1628.7 1362.4,1632.2 1337.7,1636.4 1313.1,1641.2 1288.8,1646.7 1264.6,1652.9 1240.6,1659.6 1216.8,1667.0 1193.3,1674.9 1170.1,1683.3 1147.1,1692.3 1124.5,1701.7 1102.2,1711.5 1080.2,1721.7 1058.7,1732.3 1037.5,1743.2  A 522.500,522.500 0.00 0,1 979.9,1549.7 L 979.9,1549.7 1005.9,1547.3 1032.1,1544.9 1058.4,1542.7 1084.7,1540.5 1111.1,1538.5 1137.6,1536.6 1164.2,1534.9 1190.8,1533.2 1217.5,1531.7 1244.2,1530.3 1271.0,1529.1 1297.8,1527.9 1324.7,1527.0 1351.6,1526.2 1378.5,1525.5 1405.5,1525.0 1432.5,1524.6 1459.4,1524.4 1486.4,1524.3 1513.4,1524.4 1540.4,1524.6 1567.4,1525.0 1594.4,1525.5 1621.3,1526.2 1648.2,1527.0 1675.1,1528.0 1702.0,1529.1 1728.8,1530.4 1755.6,1531.8 1782.3,1533.3 1809.0,1535.0 1835.6,1536.8 1862.2,1538.7 1888.7,1540.8 1915.1,1542.9 1941.4,1545.2 1967.6,1547.6 1993.8,1550.1 2019.8,1552.7  Z" style="stroke-width: 0.5;  stroke: rgb(0,0,0); fill: rgb(179,177,178);" />
<path d="M 1953.894,1241.183 A 522.500,522.500 0.00 0,1 2002.5,1357.0 L 2002.5,1357.0 1977.3,1364.1 1952.0,1371.2 1926.5,1378.2 1901.0,1385.0 1875.4,1391.9 1849.6,1398.6 1823.8,1405.2 1798.0,1411.7 1772.0,1418.1 1746.0,1424.3 1719.9,1430.5 1693.7,1436.5 1667.5,1442.5 1641.2,1448.2 1614.8,1453.9 1588.5,1459.4 1562.0,1464.8 1535.6,1470.1 1509.1,1475.2 1482.5,1480.2 1456.0,1485.0 1429.4,1489.7 1402.9,1494.3 1376.3,1498.7 1349.7,1503.0 1323.1,1507.1 1296.5,1511.1 1269.9,1515.0 1243.4,1518.7 1216.8,1522.3 1190.3,1525.8 1163.8,1529.1 1137.4,1532.3 1111.0,1535.4 1084.6,1538.3 1058.3,1541.2 1032.1,1543.9 1005.9,1546.5 979.8,1549.0  A 522.500,522.500 0.00 0,1 983.1,1423.5 L 983.1,1423.5 1007.6,1426.9 1032.3,1430.1 1057.3,1432.9 1082.4,1435.4 1107.8,1437.5 1133.3,1439.2 1159.0,1440.5 1184.8,1441.4 1210.7,1441.9 1236.7,1441.9 1262.7,1441.4 1288.8,1440.5 1315.0,1439.1 1341.2,1437.2 1367.3,1434.8 1393.5,1432.0 1419.6,1428.6 1445.6,1424.7 1471.6,1420.3 1497.5,1415.5 1523.3,1410.1 1549.0,1404.3 1574.6,1397.9 1600.0,1391.1 1625.2,1383.9 1650.3,1376.1 1675.2,1367.9 1699.9,1359.3 1724.3,1350.3 1748.5,1340.9 1772.5,1331.0 1796.2,1320.9 1819.7,1310.3 1842.8,1299.5 1865.7,1288.3 1888.2,1276.9 1910.4,1265.2 1932.3,1253.3 1953.9,1241.2  Z" style="stroke-width: 0.5;  stroke: rgb(0,0,0); fill: rgb(179,177,178);" />
<path d="M 1902.634,1833.004 A 522.500,522.500 0.00 0,1 1813.0,1918.4 L 1813.0,1918.4 1799.9,1901.3 1786.4,1884.5 1772.4,1868.1 1757.9,1852.1 1743.1,1836.7 1727.9,1821.9 1712.4,1807.9 1696.5,1794.6 1680.3,1782.2 1663.9,1770.8 1647.2,1760.3 1630.4,1750.8 1613.3,1742.5 1596.0,1735.2 1578.6,1729.1 1561.1,1724.1 1543.5,1720.4 1525.8,1717.9 1508.1,1716.6 1490.3,1716.5 1472.6,1717.7 1454.9,1720.1 1437.3,1723.7 1419.7,1728.5 1402.3,1734.5 1385.0,1741.6 1367.8,1749.9 1350.9,1759.2 1334.1,1769.6 1317.6,1780.9 1301.4,1793.2 1285.4,1806.3 1269.8,1820.3 1254.5,1834.9 1239.5,1850.2 1225.0,1866.1 1210.8,1882.4 1197.2,1899.1 1183.9,1916.1  A 522.500,522.500 0.00 0,1 1094.9,1830.1 L 1094.9,1830.1 1112.7,1816.0 1130.9,1802.2 1149.5,1788.8 1168.6,1775.8 1188.1,1763.3 1208.0,1751.5 1228.2,1740.2 1248.7,1729.7 1269.5,1719.8 1290.6,1710.7 1311.9,1702.5 1333.5,1695.0 1355.2,1688.5 1377.1,1682.8 1399.2,1678.1 1421.3,1674.3 1443.6,1671.4 1465.9,1669.5 1488.2,1668.6 1510.6,1668.7 1532.9,1669.8 1555.2,1671.8 1577.4,1674.8 1599.5,1678.8 1621.6,1683.7 1643.4,1689.5 1665.1,1696.2 1686.6,1703.8 1707.9,1712.3 1728.9,1721.5 1749.6,1731.5 1770.1,1742.2 1790.2,1753.6 1810.0,1765.6 1829.4,1778.2 1848.4,1791.3 1866.9,1804.8 1885.0,1818.8 1902.6,1833.0  Z" style="stroke-width: 0.5;  stroke: rgb(0,0,0); fill: rgb(179,177,178);" />
<path d="M 1960.093,1747.630 A 522.500,522.500 0.00 0,1 1903.4,1832.1 L 1903.4,1832.1 1885.7,1817.9 1867.6,1804.0 1849.0,1790.5 1829.9,1777.4 1810.5,1764.9 1790.7,1752.9 1770.6,1741.5 1750.1,1730.8 1729.3,1720.8 1708.2,1711.6 1686.9,1703.2 1665.4,1695.6 1643.6,1688.9 1621.7,1683.1 1599.7,1678.2 1577.5,1674.3 1555.3,1671.3 1532.9,1669.2 1510.6,1668.2 1488.2,1668.1 1465.8,1669.0 1443.4,1670.9 1421.2,1673.7 1399.0,1677.5 1376.9,1682.2 1354.9,1687.8 1333.1,1694.4 1311.5,1701.8 1290.2,1710.0 1269.0,1719.1 1248.2,1728.9 1227.6,1739.4 1207.4,1750.7 1187.5,1762.5 1167.9,1774.9 1148.8,1787.8 1130.1,1801.2 1111.9,1814.9 1094.1,1829.0  A 522.500,522.500 0.00 0,1 1038.0,1744.1 L 1038.0,1744.1 1059.2,1733.2 1080.7,1722.6 1102.6,1712.4 1124.8,1702.5 1147.4,1693.1 1170.4,1684.1 1193.6,1675.6 1217.0,1667.7 1240.8,1660.4 1264.7,1653.6 1288.9,1647.4 1313.3,1641.9 1337.8,1637.1 1362.4,1632.9 1387.2,1629.4 1412.1,1626.6 1437.0,1624.5 1462.0,1623.2 1487.0,1622.5 1512.1,1622.6 1537.1,1623.5 1562.1,1625.0 1587.0,1627.3 1611.8,1630.2 1636.6,1633.9 1661.2,1638.3 1685.7,1643.3 1710.0,1649.0 1734.1,1655.4 1758.0,1662.3 1781.7,1669.9 1805.1,1678.0 1828.2,1686.6 1851.1,1695.7 1873.6,1705.3 1895.8,1715.4 1917.6,1725.8 1939.1,1736.6 1960.1,1747.6  Z" style="stroke-width: 0.5;  stroke: rgb(0,0,0); fill: rgb(179,177,178);" />
<path d="M 1833.243,1097.563 A 522.500,522.500 0.00 0,1 1885.0,1146.8 L 1885.0,1146.8 1867.6,1162.5 1849.6,1178.0 1831.2,1193.2 1812.3,1208.1 1793.0,1222.6 1773.3,1236.7 1753.1,1250.3 1732.6,1263.4 1711.6,1276.0 1690.3,1288.0 1668.6,1299.4 1646.6,1310.2 1624.3,1320.3 1601.7,1329.7 1578.8,1338.4 1555.6,1346.4 1532.3,1353.6 1508.7,1360.1 1484.9,1365.8 1460.9,1370.7 1436.8,1374.9 1412.6,1378.2 1388.2,1380.8 1363.8,1382.6 1339.3,1383.7 1314.8,1384.0 1290.4,1383.5 1265.9,1382.3 1241.5,1380.4 1217.1,1377.8 1192.9,1374.5 1168.9,1370.5 1144.9,1366.0 1121.2,1360.8 1097.8,1355.1 1074.5,1348.9 1051.6,1342.2 1029.0,1335.0 1006.8,1327.5  A 522.500,522.500 0.00 0,1 1034.9,1261.8 L 1034.9,1261.8 1055.3,1272.0 1076.0,1281.7 1097.1,1290.9 1118.5,1299.7 1140.3,1307.8 1162.2,1315.3 1184.4,1322.2 1206.8,1328.3 1229.3,1333.7 1251.9,1338.2 1274.6,1342.0 1297.4,1344.9 1320.2,1346.9 1342.9,1348.0 1365.6,1348.2 1388.3,1347.4 1410.8,1345.7 1433.2,1343.1 1455.5,1339.5 1477.5,1334.9 1499.4,1329.5 1521.0,1323.0 1542.4,1315.7 1563.5,1307.4 1584.3,1298.3 1604.8,1288.3 1624.9,1277.5 1644.7,1265.8 1664.0,1253.4 1683.0,1240.3 1701.6,1226.5 1719.7,1212.0 1737.4,1197.0 1754.6,1181.4 1771.4,1165.3 1787.6,1148.8 1803.3,1132.0 1818.6,1114.9 1833.2,1097.6  Z" style="stroke-width: 0.5;  stroke: rgb(0,0,0); fill: rgb(179,177,178);" />
<path d="M 1567.053,981.820 A 522.500,522.500 0.00 0,1 1636.1,995.5 L 1636.1,995.5 1630.5,1015.6 1624.4,1035.5 1617.9,1055.2 1611.0,1074.4 1603.6,1093.2 1595.8,1111.4 1587.6,1128.9 1578.9,1145.6 1569.8,1161.4 1560.3,1176.3 1550.4,1190.2 1540.1,1203.0 1529.4,1214.7 1518.2,1225.2 1506.8,1234.4 1494.9,1242.4 1482.8,1249.1 1470.3,1254.4 1457.5,1258.5 1444.4,1261.1 1431.0,1262.5 1417.4,1262.4 1403.6,1261.0 1389.6,1258.3 1375.4,1254.3 1361.1,1249.1 1346.6,1242.5 1332.1,1234.8 1317.5,1225.9 1303.0,1216.0 1288.4,1205.0 1273.9,1193.0 1259.4,1180.1 1245.1,1166.5 1231.0,1152.1 1217.0,1137.1 1203.4,1121.6 1190.0,1105.6 1176.9,1089.4  A 522.500,522.500 0.00 0,1 1235.1,1049.6 L 1235.1,1049.6 1245.6,1067.2 1256.4,1084.5 1267.3,1101.4 1278.5,1117.9 1289.8,1133.7 1301.2,1148.8 1312.6,1163.1 1324.1,1176.5 1335.5,1188.9 1346.9,1200.2 1358.2,1210.4 1369.5,1219.4 1380.6,1227.1 1391.5,1233.6 1402.2,1238.7 1412.8,1242.4 1423.1,1244.8 1433.2,1245.7 1443.0,1245.2 1452.5,1243.2 1461.7,1239.8 1470.6,1235.0 1479.2,1228.9 1487.4,1221.3 1495.3,1212.4 1502.8,1202.1 1510.0,1190.7 1516.8,1178.0 1523.2,1164.2 1529.3,1149.3 1534.9,1133.4 1540.2,1116.6 1545.1,1098.9 1549.7,1080.6 1553.9,1061.6 1557.7,1042.1 1561.1,1022.2 1564.3,1002.1 1567.1,981.8  Z" style="stroke-width: 0.5;  stroke: rgb(0,0,0); fill: rgb(179,177,178);" />
<path d="M 1812.680,1918.613 A 522.500,522.500 0.00 0,1 1757.4,1954.7 L 1757.4,1954.7 1746.8,1936.5 1735.9,1918.6 1724.5,1901.0 1712.8,1883.9 1700.6,1867.3 1688.2,1851.4 1675.5,1836.3 1662.4,1822.0 1649.1,1808.6 1635.6,1796.2 1621.8,1784.9 1607.9,1774.6 1593.7,1765.6 1579.5,1757.7 1565.0,1751.1 1550.5,1745.7 1535.9,1741.7 1521.3,1738.9 1506.6,1737.6 1491.8,1737.5 1477.1,1738.8 1462.4,1741.4 1447.8,1745.4 1433.2,1750.6 1418.8,1757.2 1404.5,1764.9 1390.3,1773.9 1376.2,1784.0 1362.4,1795.3 1348.8,1807.6 1335.4,1820.9 1322.3,1835.1 1309.4,1850.2 1296.9,1866.0 1284.6,1882.4 1272.8,1899.5 1261.3,1917.0 1250.2,1934.8 1239.5,1952.9  A 522.500,522.500 0.00 0,1 1184.5,1916.5 L 1184.5,1916.5 1197.7,1899.5 1211.3,1882.8 1225.4,1866.4 1240.0,1850.6 1254.9,1835.2 1270.1,1820.6 1285.8,1806.6 1301.7,1793.5 1317.9,1781.2 1334.4,1769.9 1351.1,1759.5 1368.1,1750.1 1385.2,1741.9 1402.5,1734.7 1419.9,1728.7 1437.4,1723.9 1455.0,1720.3 1472.7,1717.9 1490.4,1716.7 1508.1,1716.8 1525.8,1718.1 1543.5,1720.6 1561.1,1724.3 1578.6,1729.3 1595.9,1735.4 1613.2,1742.6 1630.2,1751.0 1647.1,1760.5 1663.8,1771.0 1680.2,1782.4 1696.3,1794.8 1712.1,1808.1 1727.7,1822.1 1742.8,1836.9 1757.7,1852.3 1772.1,1868.3 1786.1,1884.7 1799.6,1901.5 1812.7,1918.6  Z" style="stroke-width: 0.5;  stroke: rgb(0,0,0); fill: rgb(179,177,178);" />
<path d="M 1907.505,1172.974 A 522.500,522.500 0.00 0,1 1943.3,1223.4 L 1943.3,1223.4 1922.3,1236.3 1901.0,1249.0 1879.4,1261.4 1857.3,1273.6 1835.0,1285.6 1812.3,1297.2 1789.4,1308.4 1766.1,1319.3 1742.6,1329.9 1718.8,1340.0 1694.7,1349.7 1670.4,1359.0 1645.9,1367.8 1621.1,1376.2 1596.2,1384.0 1571.1,1391.4 1545.8,1398.3 1520.4,1404.7 1494.8,1410.5 1469.1,1415.9 1443.4,1420.7 1417.5,1425.0 1391.6,1428.7 1365.6,1431.9 1339.6,1434.6 1313.6,1436.8 1287.5,1438.5 1261.6,1439.7 1235.6,1440.3 1209.7,1440.5 1184.0,1440.2 1158.3,1439.5 1132.7,1438.3 1107.3,1436.7 1082.1,1434.6 1057.0,1432.2 1032.2,1429.4 1007.6,1426.3 983.2,1422.8  A 522.500,522.500 0.00 0,1 996.0,1362.3 L 996.0,1362.3 1019.1,1368.3 1042.5,1374.1 1066.2,1379.4 1090.2,1384.2 1114.4,1388.6 1138.8,1392.5 1163.4,1395.8 1188.2,1398.6 1213.1,1400.7 1238.1,1402.3 1263.2,1403.3 1288.3,1403.6 1313.4,1403.3 1338.6,1402.2 1363.7,1400.6 1388.8,1398.2 1413.9,1395.1 1438.8,1391.4 1463.6,1386.9 1488.3,1381.8 1512.9,1376.0 1537.3,1369.5 1561.4,1362.4 1585.4,1354.5 1609.1,1346.1 1632.6,1337.0 1655.8,1327.3 1678.8,1317.0 1701.4,1306.1 1723.7,1294.7 1745.7,1282.8 1767.3,1270.4 1788.5,1257.5 1809.4,1244.3 1829.9,1230.6 1849.9,1216.6 1869.6,1202.3 1888.8,1187.7 1907.5,1173.0  Z" style="stroke-width: 0.5;  stroke: rgb(0,0,0); fill: rgb(179,177,178);" />
<path d="M 1500.000,977.500 A 522.500,522.500 0.00 0,1 1529.8,978.4 L 1529.8,978.4 1528.5,998.6 1527.0,1018.7 1525.2,1038.5 1523.1,1057.9 1520.8,1076.8 1518.2,1095.1 1515.2,1112.5 1512.0,1129.2 1508.5,1144.9 1504.6,1159.5 1500.4,1173.1 1495.9,1185.4 1491.1,1196.5 1486.0,1206.3 1480.6,1214.7 1474.9,1221.8 1468.8,1227.4 1462.5,1231.6 1455.9,1234.3 1449.0,1235.5 1441.9,1235.3 1434.5,1233.6 1426.9,1230.4 1419.1,1225.8 1411.1,1219.7 1402.9,1212.3 1394.5,1203.6 1386.0,1193.6 1377.4,1182.3 1368.7,1169.9 1359.9,1156.5 1351.1,1142.0 1342.2,1126.6 1333.4,1110.4 1324.7,1093.5 1316.0,1076.0 1307.4,1058.0 1299.0,1039.7 1290.8,1021.2  A 522.500,522.500 0.00 0,1 1304.2,1015.6 L 1304.2,1015.6 1311.8,1034.3 1319.6,1052.8 1327.6,1070.9 1335.6,1088.6 1343.6,1105.7 1351.7,1122.1 1359.7,1137.7 1367.7,1152.4 1375.6,1166.1 1383.4,1178.7 1391.0,1190.1 1398.5,1200.3 1405.9,1209.3 1413.0,1216.9 1420.0,1223.1 1426.7,1227.9 1433.1,1231.2 1439.3,1233.1 1445.2,1233.5 1450.9,1232.4 1456.2,1229.8 1461.3,1225.7 1466.0,1220.2 1470.4,1213.3 1474.5,1204.9 1478.3,1195.2 1481.7,1184.2 1484.9,1171.9 1487.7,1158.4 1490.2,1143.8 1492.4,1128.1 1494.3,1111.5 1495.9,1094.1 1497.2,1075.8 1498.3,1057.0 1499.0,1037.6 1499.6,1017.8 1499.9,997.7 1500.0,977.5  Z" style="stroke-width: 0.5;  stroke: rgb(0,0,0); fill: rgb(179,177,178);" />
<path d="M 1676.101,1991.929 A 522.500,522.500 0.00 0,1 1624.3,2007.5 L 1624.3,2007.5 1619.4,1987.8 1614.1,1968.2 1608.6,1949.0 1602.9,1930.2 1597.0,1912.0 1590.8,1894.4 1584.4,1877.6 1577.8,1861.8 1571.0,1846.8 1564.1,1833.0 1557.0,1820.3 1549.7,1808.8 1542.3,1798.6 1534.7,1789.7 1527.1,1782.1 1519.3,1776.0 1511.4,1771.3 1503.4,1768.1 1495.4,1766.3 1487.3,1766.1 1479.2,1767.3 1471.1,1770.0 1462.9,1774.2 1454.8,1779.8 1446.6,1786.8 1438.5,1795.2 1430.4,1804.9 1422.4,1815.9 1414.5,1828.2 1406.7,1841.5 1398.9,1856.0 1391.3,1871.4 1383.9,1887.7 1376.6,1904.8 1369.5,1922.6 1362.5,1941.0 1355.8,1959.9 1349.3,1979.0 1343.1,1998.4  A 522.500,522.500 0.00 0,1 1292.5,1979.5 L 1292.5,1979.5 1300.8,1960.7 1309.5,1942.1 1318.4,1923.9 1327.7,1906.1 1337.2,1888.9 1347.0,1872.3 1356.9,1856.6 1367.1,1841.8 1377.5,1827.9 1388.0,1815.0 1398.6,1803.3 1409.4,1792.8 1420.2,1783.5 1431.1,1775.4 1442.1,1768.8 1453.1,1763.4 1464.2,1759.5 1475.2,1757.0 1486.2,1755.9 1497.2,1756.3 1508.1,1758.1 1519.0,1761.3 1529.7,1765.9 1540.4,1771.9 1550.9,1779.3 1561.3,1788.0 1571.5,1798.0 1581.6,1809.2 1591.4,1821.6 1601.1,1835.1 1610.5,1849.6 1619.7,1865.1 1628.6,1881.5 1637.3,1898.6 1645.7,1916.4 1653.8,1934.7 1661.5,1953.5 1669.0,1972.6 1676.1,1991.9  Z" style="stroke-width: 0.5;  stroke: rgb(0,0,0); fill: rgb(179,177,178);" />
<path d="M 1620.401,2008.439 A 522.500,522.500 0.00 0,1 1598.3,2013.2 L 1598.3,2013.2 1594.4,1993.3 1590.3,1973.6 1586.0,1954.3 1581.5,1935.3 1576.8,1917.0 1572.0,1899.3 1567.0,1882.4 1561.8,1866.4 1556.6,1851.4 1551.1,1837.5 1545.6,1824.8 1540.0,1813.2 1534.2,1803.0 1528.4,1794.1 1522.4,1786.6 1516.4,1780.5 1510.3,1775.9 1504.2,1772.7 1498.0,1771.1 1491.8,1771.0 1485.6,1772.4 1479.4,1775.3 1473.1,1779.7 1466.9,1785.5 1460.7,1792.8 1454.5,1801.5 1448.4,1811.5 1442.3,1822.8 1436.3,1835.4 1430.4,1849.1 1424.5,1863.9 1418.8,1879.7 1413.2,1896.3 1407.7,1913.8 1402.3,1932.0 1397.2,1950.8 1392.1,1970.0 1387.3,1989.5 1382.6,2009.1  A 522.500,522.500 0.00 0,1 1348.0,1999.9 L 1348.0,1999.9 1354.1,1980.5 1360.4,1961.3 1366.9,1942.4 1373.6,1924.0 1380.5,1906.1 1387.5,1888.9 1394.7,1872.6 1402.1,1857.1 1409.6,1842.6 1417.2,1829.2 1424.9,1816.9 1432.6,1805.9 1440.4,1796.1 1448.3,1787.7 1456.2,1780.6 1464.1,1775.0 1472.0,1770.8 1479.9,1768.1 1487.7,1766.8 1495.6,1767.1 1503.3,1768.8 1511.0,1772.0 1518.7,1776.7 1526.2,1782.8 1533.6,1790.4 1540.9,1799.3 1548.1,1809.5 1555.2,1821.0 1562.1,1833.7 1568.8,1847.6 1575.4,1862.5 1581.7,1878.4 1587.9,1895.2 1593.9,1912.8 1599.7,1931.0 1605.2,1949.9 1610.5,1969.1 1615.6,1988.7 1620.4,2008.4  Z" style="stroke-width: 0.5;  stroke: rgb(0,0,0); fill: rgb(179,177,178);" />
<path d="M 1885.018,1146.775 A 522.500,522.500 0.00 0,1 1907.2,1172.6 L 1907.2,1172.6 1888.5,1187.4 1869.3,1201.9 1849.7,1216.3 1829.6,1230.3 1809.2,1243.9 1788.3,1257.2 1767.1,1270.1 1745.5,1282.5 1723.6,1294.4 1701.3,1305.8 1678.7,1316.6 1655.7,1326.9 1632.6,1336.6 1609.1,1345.7 1585.4,1354.1 1561.4,1361.9 1537.3,1369.1 1512.9,1375.5 1488.4,1381.3 1463.7,1386.4 1438.9,1390.8 1413.9,1394.5 1388.9,1397.5 1363.8,1399.9 1338.7,1401.5 1313.6,1402.5 1288.4,1402.8 1263.3,1402.4 1238.3,1401.4 1213.3,1399.7 1188.4,1397.5 1163.7,1394.7 1139.1,1391.3 1114.7,1387.3 1090.5,1382.9 1066.5,1378.0 1042.9,1372.6 1019.5,1366.8 996.4,1360.6  A 522.500,522.500 0.00 0,1 1006.6,1328.2 L 1006.6,1328.2 1028.8,1335.7 1051.4,1342.8 1074.4,1349.4 1097.6,1355.6 1121.1,1361.3 1144.8,1366.4 1168.7,1371.0 1192.8,1374.9 1217.0,1378.2 1241.4,1380.7 1265.8,1382.6 1290.3,1383.8 1314.8,1384.3 1339.3,1384.0 1363.7,1382.9 1388.1,1381.1 1412.5,1378.5 1436.7,1375.1 1460.8,1370.9 1484.8,1365.9 1508.6,1360.2 1532.2,1353.7 1555.6,1346.5 1578.8,1338.5 1601.6,1329.8 1624.3,1320.4 1646.6,1310.2 1668.6,1299.5 1690.3,1288.1 1711.6,1276.0 1732.5,1263.4 1753.1,1250.3 1773.3,1236.7 1793.0,1222.6 1812.3,1208.1 1831.2,1193.2 1849.6,1178.0 1867.6,1162.5 1885.0,1146.8  Z" style="stroke-width: 0.5;  stroke: rgb(0,0,0); fill: rgb(179,177,178);" />
<path d="M 1756.531,1955.190 A 522.500,522.500 0.00 0,1 1732.9,1967.7 L 1732.9,1967.7 1723.4,1949.2 1713.5,1930.8 1703.3,1912.9 1692.7,1895.3 1681.8,1878.4 1670.5,1862.1 1659.0,1846.6 1647.2,1831.9 1635.2,1818.2 1622.9,1805.4 1610.5,1793.8 1597.8,1783.3 1585.0,1773.9 1572.0,1765.9 1559.0,1759.0 1545.8,1753.5 1532.5,1749.4 1519.2,1746.6 1505.9,1745.2 1492.5,1745.1 1479.2,1746.5 1465.8,1749.2 1452.6,1753.2 1439.3,1758.7 1426.2,1765.4 1413.2,1773.4 1400.3,1782.6 1387.6,1793.1 1375.1,1804.6 1362.7,1817.3 1350.6,1830.9 1338.7,1845.5 1327.1,1861.0 1315.8,1877.2 1304.7,1894.1 1294.0,1911.5 1283.7,1929.4 1273.7,1947.7 1264.1,1966.2  A 522.500,522.500 0.00 0,1 1240.5,1953.5 L 1240.5,1953.5 1251.1,1935.4 1262.1,1917.5 1273.6,1900.0 1285.4,1882.9 1297.6,1866.4 1310.1,1850.6 1322.9,1835.5 1336.0,1821.3 1349.3,1808.0 1362.9,1795.7 1376.7,1784.4 1390.7,1774.3 1404.8,1765.3 1419.1,1757.5 1433.5,1750.9 1448.0,1745.7 1462.6,1741.7 1477.2,1739.1 1491.9,1737.8 1506.5,1737.9 1521.2,1739.2 1535.8,1742.0 1550.4,1746.0 1564.8,1751.4 1579.2,1758.0 1593.4,1765.9 1607.5,1775.0 1621.4,1785.2 1635.1,1796.6 1648.6,1809.0 1661.9,1822.4 1674.9,1836.7 1687.6,1851.8 1700.0,1867.7 1712.0,1884.3 1723.8,1901.4 1735.1,1919.0 1746.0,1937.0 1756.5,1955.2  Z" style="stroke-width: 0.5;  stroke: rgb(0,0,0); fill: rgb(179,177,178);" />
<path d="M 1544.542,979.402 A 522.500,522.500 0.00 0,1 1566.9,981.8 L 1566.9,981.8 1564.1,1002.0 1561.0,1022.1 1557.6,1041.9 1553.9,1061.3 1549.9,1080.2 1545.5,1098.5 1540.7,1116.0 1535.7,1132.7 1530.2,1148.4 1524.5,1163.2 1518.3,1176.8 1511.9,1189.3 1505.1,1200.6 1498.0,1210.6 1490.5,1219.3 1482.8,1226.6 1474.7,1232.5 1466.4,1237.0 1457.7,1240.0 1448.8,1241.6 1439.7,1241.8 1430.3,1240.5 1420.6,1237.8 1410.8,1233.6 1400.8,1228.1 1390.7,1221.2 1380.4,1213.0 1370.0,1203.6 1359.5,1192.9 1348.9,1181.1 1338.3,1168.3 1327.7,1154.4 1317.2,1139.6 1306.7,1124.1 1296.3,1107.8 1286.0,1090.9 1275.9,1073.5 1266.0,1055.7 1256.4,1037.8  A 522.500,522.500 0.00 0,1 1276.5,1027.7 L 1276.5,1027.7 1285.3,1046.0 1294.3,1064.1 1303.5,1081.9 1312.8,1099.1 1322.3,1115.8 1331.8,1131.7 1341.3,1146.9 1350.9,1161.1 1360.4,1174.3 1369.8,1186.5 1379.2,1197.5 1388.5,1207.3 1397.7,1215.8 1406.7,1223.0 1415.5,1228.8 1424.2,1233.2 1432.6,1236.2 1440.8,1237.8 1448.8,1237.9 1456.5,1236.5 1463.9,1233.6 1471.0,1229.3 1477.9,1223.5 1484.5,1216.4 1490.7,1207.8 1496.6,1198.0 1502.2,1186.8 1507.5,1174.4 1512.5,1160.8 1517.1,1146.1 1521.4,1130.3 1525.4,1113.7 1529.0,1096.2 1532.4,1077.9 1535.4,1059.0 1538.1,1039.6 1540.5,1019.7 1542.7,999.6 1544.5,979.4  Z" style="stroke-width: 0.5;  stroke: rgb(0,0,0); fill: rgb(179,177,178);" />
<path d="M 1731.888,1968.225 A 522.500,522.500 0.00 0,1 1713.4,1976.9 L 1713.4,1976.9 1704.8,1958.1 1695.8,1939.5 1686.4,1921.2 1676.7,1903.4 1666.7,1886.2 1656.4,1869.6 1645.9,1853.8 1635.1,1838.9 1624.0,1824.9 1612.8,1811.9 1601.3,1800.1 1589.7,1789.3 1578.0,1779.8 1566.1,1771.6 1554.0,1764.7 1541.9,1759.1 1529.7,1754.8 1517.5,1752.0 1505.2,1750.5 1492.9,1750.5 1480.7,1751.8 1468.4,1754.6 1456.2,1758.7 1444.0,1764.3 1432.0,1771.1 1420.0,1779.3 1408.2,1788.7 1396.5,1799.3 1384.9,1811.1 1373.6,1824.0 1362.4,1837.9 1351.5,1852.7 1340.9,1868.5 1330.5,1884.9 1320.3,1902.1 1310.5,1919.9 1301.0,1938.1 1291.9,1956.6 1283.1,1975.4  A 522.500,522.500 0.00 0,1 1264.7,1966.5 L 1264.7,1966.5 1274.3,1948.0 1284.2,1929.7 1294.6,1911.8 1305.2,1894.3 1316.2,1877.4 1327.5,1861.2 1339.1,1845.8 1351.0,1831.2 1363.1,1817.5 1375.4,1804.9 1387.9,1793.3 1400.6,1782.8 1413.4,1773.6 1426.4,1765.6 1439.4,1758.9 1452.6,1753.5 1465.8,1749.4 1479.1,1746.7 1492.4,1745.4 1505.8,1745.4 1519.1,1746.8 1532.3,1749.6 1545.5,1753.8 1558.7,1759.3 1571.7,1766.1 1584.6,1774.2 1597.4,1783.6 1610.0,1794.1 1622.4,1805.8 1634.6,1818.5 1646.6,1832.3 1658.3,1846.9 1669.8,1862.5 1681.0,1878.8 1691.9,1895.8 1702.4,1913.3 1712.6,1931.3 1722.5,1949.7 1731.9,1968.2  Z" style="stroke-width: 0.5;  stroke: rgb(0,0,0); fill: rgb(179,177,178);" />
<path d="M 1530.294,978.379 A 522.500,522.500 0.00 0,1 1544.5,979.4 L 1544.5,979.4 1542.7,999.6 1540.5,1019.7 1538.1,1039.6 1535.4,1059.0 1532.4,1077.9 1529.0,1096.2 1525.4,1113.7 1521.4,1130.3 1517.1,1146.0 1512.5,1160.7 1507.6,1174.3 1502.3,1186.7 1496.7,1197.9 1490.8,1207.8 1484.6,1216.3 1478.0,1223.5 1471.2,1229.2 1464.1,1233.5 1456.6,1236.4 1449.0,1237.8 1441.0,1237.7 1432.8,1236.1 1424.4,1233.1 1415.8,1228.7 1407.0,1222.8 1398.0,1215.6 1388.9,1207.1 1379.6,1197.3 1370.3,1186.3 1360.8,1174.1 1351.3,1160.9 1341.8,1146.6 1332.3,1131.5 1322.8,1115.5 1313.4,1098.8 1304.1,1081.6 1295.0,1063.8 1286.0,1045.7 1277.2,1027.4  A 522.500,522.500 0.00 0,1 1290.2,1021.5 L 1290.2,1021.5 1298.4,1040.0 1306.9,1058.3 1315.5,1076.3 1324.2,1093.7 1333.0,1110.6 1341.8,1126.8 1350.6,1142.2 1359.5,1156.7 1368.3,1170.1 1377.0,1182.5 1385.7,1193.7 1394.2,1203.7 1402.6,1212.5 1410.9,1219.9 1418.9,1225.9 1426.8,1230.5 1434.4,1233.7 1441.8,1235.4 1449.0,1235.6 1455.9,1234.4 1462.5,1231.7 1468.9,1227.5 1474.9,1221.9 1480.7,1214.8 1486.2,1206.4 1491.3,1196.6 1496.1,1185.4 1500.7,1173.1 1504.9,1159.6 1508.7,1144.9 1512.3,1129.2 1515.6,1112.6 1518.5,1095.1 1521.2,1076.8 1523.6,1058.0 1525.6,1038.5 1527.5,1018.7 1529.0,998.6 1530.3,978.4  Z" style="stroke-width: 0.5;  stroke: rgb(0,0,0); fill: rgb(179,177,178);" />
<path d="M 1700.483,1982.507 A 522.500,522.500 0.00 0,1 1692.2,1985.8 L 1692.2,1985.8 1684.5,1966.7 1676.4,1947.8 1667.9,1929.3 1659.2,1911.1 1650.1,1893.6 1640.8,1876.7 1631.2,1860.6 1621.3,1845.4 1611.2,1831.1 1600.9,1817.8 1590.4,1805.6 1579.7,1794.7 1568.9,1784.9 1557.9,1776.4 1546.8,1769.2 1535.6,1763.4 1524.3,1759.0 1513.0,1755.9 1501.5,1754.3 1490.1,1754.1 1478.6,1755.4 1467.2,1758.0 1455.7,1762.1 1444.3,1767.5 1433.0,1774.3 1421.7,1782.5 1410.6,1791.9 1399.6,1802.5 1388.7,1814.3 1377.9,1827.2 1367.4,1841.2 1357.0,1856.1 1346.9,1871.9 1337.0,1888.4 1327.4,1905.7 1318.0,1923.5 1309.0,1941.8 1300.2,1960.4 1291.8,1979.2  A 522.500,522.500 0.00 0,1 1283.7,1975.6 L 1283.7,1975.6 1292.5,1956.9 1301.5,1938.4 1311.0,1920.2 1320.7,1902.5 1330.7,1885.4 1341.0,1868.9 1351.5,1853.2 1362.3,1838.4 1373.3,1824.6 1384.4,1811.8 1395.8,1800.1 1407.2,1789.5 1418.8,1780.2 1430.5,1772.1 1442.3,1765.4 1454.2,1760.0 1466.0,1755.9 1478.0,1753.3 1489.9,1752.1 1501.8,1752.3 1513.7,1753.9 1525.5,1756.9 1537.3,1761.3 1548.9,1767.1 1560.5,1774.3 1571.9,1782.7 1583.2,1792.4 1594.3,1803.3 1605.2,1815.4 1616.0,1828.6 1626.5,1842.8 1636.7,1857.9 1646.8,1874.0 1656.5,1890.7 1665.9,1908.2 1675.1,1926.2 1683.9,1944.7 1692.4,1963.5 1700.5,1982.5  Z" style="stroke-width: 0.5;  stroke: rgb(0,0,0); fill: rgb(179,177,178);" />
</g>
<g id="plot0">
<g id="plot0-axis">
</g>
<line x1='2243.9' y1='1595.5' x2='2243.9' y2='1595.5' style="stroke-width:14.0;stroke:rgb(0,0,0);stroke-linecap:round;fill:none;" />
<line x1='2243.9' y1='1595.5' x2='2283.6' y2='1600.6' style="stroke-width:14.0;stroke:rgb(0,0,0);stroke-linecap:round;fill:none;" />
<line x1='2283.6' y1='1600.6' x2='2283.6' y2='1600.6' style="stroke-width:14.0;stroke:rgb(0,0,0);stroke-linecap:round;fill:none;" />
<text x="2300.3" y="1625.0" font-size="46.8px" font-family="CMUBright-Roman" style="text-anchor:start;fill:rgb(255,38,78);" transform="rotate(7.3,2300.3,1625.0)" >HistomissWU24<tspan baseline-shift="-40%" font-size="90%">s</tspan>02746</text>
</g>
<defs>
<pattern id="hline-sparse" width="10" height="10" patternTransform="rotate(0 0 0)" patternUnits="userSpaceOnUse"><line x1="0" y1="0" x2="10" y2="0" style="stroke:black;stroke-width:2" /></pattern>
<pattern id="vline" width="10" height="10" patternTransform="rotate(0 0 0)" patternUnits="userSpaceOnUse"><line x1="0" y1="0" x2="0" y2="10" style="stroke:black;stroke-width:5" /></pattern>
<pattern id="checker" width="10" height="10" patternTransform="rotate(45 0 0)" patternUnits="userSpaceOnUse"><line x1="0" y1="0" x2="10" y2="0" style="stroke:black;stroke-width:5" /><line x1="0" y1="0" x2="0" y2="10" style="stroke:black;stroke-width:4" /></pattern>
<pattern id="hline" width="10" height="10" patternTransform="rotate(0 0 0)" patternUnits="userSpaceOnUse"><line x1="0" y1="0" x2="10" y2="0" style="stroke:black;stroke-width:5" /></pattern>
<pattern id="vline-sparse" width="10" height="10" patternTransform="rotate(0 0 0)" patternUnits="userSpaceOnUse"><line x1="0" y1="0" x2="0" y2="10" style="stroke:black;stroke-width:2" /></pattern>
<pattern id="checker" width="10" height="10" patternTransform="rotate(45 0 0)" patternUnits="userSpaceOnUse"><line x1="0" y1="0" x2="10" y2="0" style="stroke:black;stroke-width:2" /><line x1="0" y1="0" x2="0" y2="10" style="stroke:black;stroke-width:2" /></pattern>
</defs>
</svg>
