<?xml version="1.0" encoding="utf-8" standalone="no"?>
<!DOCTYPE svg PUBLIC "-//W3C//DTD SVG 1.1//EN" "http://www.w3.org/Graphics/SVG/1.1/DTD/svg11.dtd">
<svg width="3000px" height="3000px" version="1.1" xmlns="http://www.w3.org/2000/svg" xmlns:xlink="http://www.w3.org/1999/xlink">
<g id="bg">
<rect x="0" y="0" width="3000px" height="3000px" style="fill:rgb(255,255,255);"/>
</g>
<g id="ideograms">
<path d="M1500.000,950.000 A550.000,550.000 40.000 0,1 1657.335,2027.016 L1714.547,2218.658 A750.000,750.000 0.000 0,0 1500.000,750.000 Z" style="stroke-width:2.0;stroke:rgb(0,0,0);stroke-linecap:round;fill:rgb(179,177,178);" />
<text x="2464.8" y="1359.1" font-size="46.8px" font-family="CMUBright-Roman" style="text-anchor:middle;fill:rgb(0,0,0);" transform="rotate(441.7,2464.8,1359.1)" >HistocapSECH101<tspan baseline-shift="-40%" font-size="90%">2</tspan></text>
<line x1='1562.3' y1='752.6' x2='1563.3' y2='740.6' style="stroke-width:8.0;stroke:rgb(150,150,150);stroke-linecap:round;fill:none;" />
<line x1='1659.9' y1='767.2' x2='1662.4' y2='755.5' style="stroke-width:8.0;stroke:rgb(150,150,150);stroke-linecap:round;fill:none;" />
<line x1='1754.6' y1='794.5' x2='1758.7' y2='783.2' style="stroke-width:8.0;stroke:rgb(150,150,150);stroke-linecap:round;fill:none;" />
<line x1='1844.9' y1='834.0' x2='1850.5' y2='823.4' style="stroke-width:8.0;stroke:rgb(150,150,150);stroke-linecap:round;fill:none;" />
<text x="1868.4" y="819.3" font-size="41.6px" font-family="CMUBright-Roman" style="text-anchor:start;fill:rgb(150,150,150);" transform="rotate(297.4,1868.4,819.3)" >300 kb</text>
<line x1='1929.3' y1='885.0' x2='1936.2' y2='875.2' style="stroke-width:8.0;stroke:rgb(150,150,150);stroke-linecap:round;fill:none;" />
<line x1='2006.3' y1='946.7' x2='2014.4' y2='937.8' style="stroke-width:8.0;stroke:rgb(150,150,150);stroke-linecap:round;fill:none;" />
<line x1='2074.5' y1='1017.9' x2='2083.7' y2='1010.2' style="stroke-width:8.0;stroke:rgb(150,150,150);stroke-linecap:round;fill:none;" />
<line x1='2132.8' y1='1097.4' x2='2142.9' y2='1091.0' style="stroke-width:8.0;stroke:rgb(150,150,150);stroke-linecap:round;fill:none;" />
<line x1='2180.1' y1='1183.9' x2='2191.0' y2='1178.8' style="stroke-width:8.0;stroke:rgb(150,150,150);stroke-linecap:round;fill:none;" />
<text x="2207.7" y="1186.5" font-size="41.6px" font-family="CMUBright-Roman" style="text-anchor:start;fill:rgb(150,150,150);" transform="rotate(335.1,2207.7,1186.5)" >350 kb</text>
<line x1='2215.7' y1='1275.9' x2='2227.2' y2='1272.3' style="stroke-width:8.0;stroke:rgb(150,150,150);stroke-linecap:round;fill:none;" />
<line x1='2238.9' y1='1371.7' x2='2250.8' y2='1369.6' style="stroke-width:8.0;stroke:rgb(150,150,150);stroke-linecap:round;fill:none;" />
<line x1='2249.4' y1='1469.7' x2='2261.4' y2='1469.3' style="stroke-width:8.0;stroke:rgb(150,150,150);stroke-linecap:round;fill:none;" />
<line x1='2246.9' y1='1568.3' x2='2258.8' y2='1569.4' style="stroke-width:8.0;stroke:rgb(150,150,150);stroke-linecap:round;fill:none;" />
<line x1='2231.5' y1='1665.7' x2='2243.2' y2='1668.4' style="stroke-width:8.0;stroke:rgb(150,150,150);stroke-linecap:round;fill:none;" />
<text x="2251.7" y="1684.6" font-size="41.6px" font-family="CMUBright-Roman" style="text-anchor:start;fill:rgb(150,150,150);" transform="rotate(12.8,2251.7,1684.6)" >400 kb</text>
<line x1='2203.4' y1='1760.2' x2='2214.7' y2='1764.4' style="stroke-width:8.0;stroke:rgb(150,150,150);stroke-linecap:round;fill:none;" />
<line x1='2163.2' y1='1850.3' x2='2173.8' y2='1855.9' style="stroke-width:8.0;stroke:rgb(150,150,150);stroke-linecap:round;fill:none;" />
<line x1='2111.5' y1='1934.2' x2='2121.3' y2='1941.2' style="stroke-width:8.0;stroke:rgb(150,150,150);stroke-linecap:round;fill:none;" />
<line x1='2049.3' y1='2010.7' x2='2058.0' y2='2018.9' style="stroke-width:8.0;stroke:rgb(150,150,150);stroke-linecap:round;fill:none;" />
<line x1='1977.5' y1='2078.3' x2='1985.2' y2='2087.6' style="stroke-width:8.0;stroke:rgb(150,150,150);stroke-linecap:round;fill:none;" />
<text x="1981.9" y="2105.7" font-size="41.6px" font-family="CMUBright-Roman" style="text-anchor:start;fill:rgb(150,150,150);" transform="rotate(50.5,1981.9,2105.7)" >450 kb</text>
<line x1='1897.5' y1='2136.0' x2='1903.9' y2='2146.2' style="stroke-width:8.0;stroke:rgb(150,150,150);stroke-linecap:round;fill:none;" />
<line x1='1810.6' y1='2182.6' x2='1815.6' y2='2193.6' style="stroke-width:8.0;stroke:rgb(150,150,150);stroke-linecap:round;fill:none;" />
<line x1='1718.4' y1='2217.5' x2='1721.9' y2='2229.0' style="stroke-width:8.0;stroke:rgb(150,150,150);stroke-linecap:round;fill:none;" />
<g id="highlighttrack_0">
<path d="M2032.196,1361.191 A550.000,550.000 40.000 0,1 2049.664,1480.767 L2249.541,1473.773 A750.000,750.000 0.000 0,0 2225.721,1310.715 Z" style="stroke-width:14.0;stroke:rgb(0,0,0);stroke-linecap:round;fill:rgb(255,38,78);" />
</g>
<path d="M1500.000,950.000 A550.000,550.000 40.000 0,1 1657.335,2027.016 L1714.547,2218.658 A750.000,750.000 0.000 0,0 1500.000,750.000 Z" style="stroke-width:2.0;stroke:rgb(0,0,0);stroke-linecap:round;fill:none;" />
<path d="M1442.585,2046.995 A550.000,550.000 40.000 0,1 1288.509,992.288 L1211.603,807.665 A750.000,750.000 0.000 0,0 1421.707,2245.902 Z" style="stroke-width:2.0;stroke:rgb(0,0,0);stroke-linecap:round;fill:rgb(179,177,178);" />
<text x="490.7" y="1647.4" font-size="46.8px" font-family="CMUBright-Roman" style="text-anchor:middle;fill:rgb(0,0,0);" transform="rotate(81.7,490.7,1647.4)" >HistoohiSECH98<tspan baseline-shift="-40%" font-size="90%">2</tspan></text>
<line x1='1157.1' y1='833.0' x2='1151.6' y2='822.3' style="stroke-width:8.0;stroke:rgb(150,150,150);stroke-linecap:round;fill:none;" />
<text x="1133.7" y="818.1" font-size="41.6px" font-family="CMUBright-Roman" style="text-anchor:end;fill:rgb(150,150,150);" transform="rotate(62.8,1133.7,818.1)" >450 kb</text>
<line x1='1072.6' y1='883.7' x2='1065.7' y2='873.9' style="stroke-width:8.0;stroke:rgb(150,150,150);stroke-linecap:round;fill:none;" />
<line x1='995.4' y1='945.1' x2='987.3' y2='936.2' style="stroke-width:8.0;stroke:rgb(150,150,150);stroke-linecap:round;fill:none;" />
<line x1='927.0' y1='1016.1' x2='917.8' y2='1008.4' style="stroke-width:8.0;stroke:rgb(150,150,150);stroke-linecap:round;fill:none;" />
<line x1='868.4' y1='1095.5' x2='858.3' y2='1089.0' style="stroke-width:8.0;stroke:rgb(150,150,150);stroke-linecap:round;fill:none;" />
<line x1='820.8' y1='1181.8' x2='810.0' y2='1176.7' style="stroke-width:8.0;stroke:rgb(150,150,150);stroke-linecap:round;fill:none;" />
<text x="793.3" y="1184.4" font-size="41.6px" font-family="CMUBright-Roman" style="text-anchor:end;fill:rgb(150,150,150);" transform="rotate(25.1,793.3,1184.4)" >500 kb</text>
<line x1='785.0' y1='1273.7' x2='773.5' y2='1270.0' style="stroke-width:8.0;stroke:rgb(150,150,150);stroke-linecap:round;fill:none;" />
<line x1='761.5' y1='1369.4' x2='749.6' y2='1367.3' style="stroke-width:8.0;stroke:rgb(150,150,150);stroke-linecap:round;fill:none;" />
<line x1='750.7' y1='1467.4' x2='738.7' y2='1466.9' style="stroke-width:8.0;stroke:rgb(150,150,150);stroke-linecap:round;fill:none;" />
<line x1='752.9' y1='1566.0' x2='741.0' y2='1567.1' style="stroke-width:8.0;stroke:rgb(150,150,150);stroke-linecap:round;fill:none;" />
<line x1='768.0' y1='1663.5' x2='756.3' y2='1666.1' style="stroke-width:8.0;stroke:rgb(150,150,150);stroke-linecap:round;fill:none;" />
<text x="747.8" y="1682.3" font-size="41.6px" font-family="CMUBright-Roman" style="text-anchor:end;fill:rgb(150,150,150);" transform="rotate(-12.6,747.8,1682.3)" >550 kb</text>
<line x1='795.8' y1='1758.1' x2='784.5' y2='1762.2' style="stroke-width:8.0;stroke:rgb(150,150,150);stroke-linecap:round;fill:none;" />
<line x1='835.7' y1='1848.2' x2='825.1' y2='1853.8' style="stroke-width:8.0;stroke:rgb(150,150,150);stroke-linecap:round;fill:none;" />
<line x1='887.2' y1='1932.4' x2='877.4' y2='1939.3' style="stroke-width:8.0;stroke:rgb(150,150,150);stroke-linecap:round;fill:none;" />
<line x1='949.2' y1='2009.0' x2='940.4' y2='2017.2' style="stroke-width:8.0;stroke:rgb(150,150,150);stroke-linecap:round;fill:none;" />
<line x1='1020.7' y1='2076.9' x2='1013.0' y2='2086.1' style="stroke-width:8.0;stroke:rgb(150,150,150);stroke-linecap:round;fill:none;" />
<text x="1016.2" y="2104.2" font-size="41.6px" font-family="CMUBright-Roman" style="text-anchor:end;fill:rgb(150,150,150);" transform="rotate(-50.3,1016.2,2104.2)" >600 kb</text>
<line x1='1100.5' y1='2134.8' x2='1094.1' y2='2144.9' style="stroke-width:8.0;stroke:rgb(150,150,150);stroke-linecap:round;fill:none;" />
<line x1='1187.3' y1='2181.7' x2='1182.3' y2='2192.6' style="stroke-width:8.0;stroke:rgb(150,150,150);stroke-linecap:round;fill:none;" />
<line x1='1279.4' y1='2216.8' x2='1275.9' y2='2228.3' style="stroke-width:8.0;stroke:rgb(150,150,150);stroke-linecap:round;fill:none;" />
<line x1='1375.3' y1='2239.6' x2='1373.3' y2='2251.4' style="stroke-width:8.0;stroke:rgb(150,150,150);stroke-linecap:round;fill:none;" />
<path d="M1442.585,2046.995 A550.000,550.000 40.000 0,1 1288.509,992.288 L1211.603,807.665 A750.000,750.000 0.000 0,0 1421.707,2245.902 Z" style="stroke-width:2.0;stroke:rgb(0,0,0);stroke-linecap:round;fill:none;" />
</g>
<g id="track_0">
<path d="M 1943.713,1775.908 A 522.500,522.500 0.00 0,1 1868.1,1870.8 L 1868.1,1870.8 1852.1,1855.0 1835.5,1839.5 1818.4,1824.3 1800.9,1809.5 1783.0,1795.2 1764.6,1781.5 1745.8,1768.4 1726.6,1755.9 1707.1,1744.2 1687.3,1733.2 1667.1,1723.0 1646.6,1713.6 1625.9,1705.2 1604.9,1697.6 1583.8,1691.0 1562.4,1685.3 1540.8,1680.6 1519.1,1676.8 1497.3,1674.1 1475.4,1672.4 1453.5,1671.7 1431.5,1672.0 1409.5,1673.3 1387.5,1675.5 1365.5,1678.8 1343.6,1683.0 1321.8,1688.1 1300.2,1694.2 1278.6,1701.1 1257.3,1708.8 1236.2,1717.4 1215.3,1726.7 1194.7,1736.7 1174.4,1747.4 1154.4,1758.7 1134.8,1770.6 1115.6,1782.9 1096.8,1795.7 1078.5,1808.8  A 522.500,522.500 0.00 0,1 1018.7,1703.4 L 1018.7,1703.4 1040.8,1694.3 1063.2,1685.6 1085.9,1677.2 1109.0,1669.2 1132.4,1661.7 1156.1,1654.7 1180.0,1648.2 1204.1,1642.2 1228.5,1636.8 1253.0,1632.0 1277.7,1627.8 1302.5,1624.2 1327.4,1621.3 1352.5,1619.1 1377.6,1617.5 1402.7,1616.7 1427.8,1616.5 1453.0,1617.1 1478.1,1618.3 1503.2,1620.3 1528.2,1623.0 1553.1,1626.4 1577.9,1630.4 1602.6,1635.2 1627.2,1640.6 1651.5,1646.7 1675.7,1653.5 1699.7,1660.9 1723.4,1668.9 1746.9,1677.4 1770.1,1686.6 1793.0,1696.2 1815.6,1706.4 1837.9,1717.0 1859.8,1728.1 1881.4,1739.6 1902.6,1751.4 1923.4,1763.5 1943.7,1775.9  Z" style="stroke-width: 0.5;  stroke: rgb(0,0,0); fill: rgb(179,177,178);" />
<path d="M 2020.747,1457.231 A 522.500,522.500 0.00 0,1 2020.7,1543.8 L 2020.7,1543.8 1995.2,1541.7 1969.6,1539.9 1943.8,1538.3 1917.9,1536.9 1891.8,1535.7 1865.6,1534.8 1839.3,1534.1 1812.9,1533.7 1786.4,1533.5 1759.9,1533.7 1733.2,1534.1 1706.5,1534.8 1679.8,1535.8 1653.1,1537.1 1626.3,1538.7 1599.5,1540.6 1572.7,1542.8 1545.9,1545.3 1519.2,1548.1 1492.4,1551.2 1465.7,1554.6 1439.1,1558.4 1412.5,1562.4 1386.0,1566.7 1359.6,1571.3 1333.3,1576.2 1307.0,1581.4 1280.9,1586.9 1254.9,1592.6 1229.0,1598.6 1203.3,1604.8 1177.7,1611.3 1152.2,1618.0 1127.0,1624.9 1101.9,1632.1 1077.0,1639.4 1052.2,1646.9 1027.7,1654.6 1003.4,1662.5  A 522.500,522.500 0.00 0,1 983.4,1578.4 L 983.4,1578.4 1009.7,1574.4 1036.0,1570.5 1062.4,1566.6 1088.8,1562.7 1115.2,1558.9 1141.6,1555.1 1168.1,1551.3 1194.6,1547.6 1221.2,1543.9 1247.7,1540.3 1274.3,1536.8 1300.9,1533.2 1327.6,1529.8 1354.2,1526.3 1380.9,1522.9 1407.5,1519.6 1434.2,1516.3 1460.9,1513.1 1487.6,1509.9 1514.3,1506.8 1541.1,1503.8 1567.8,1500.7 1594.5,1497.8 1621.2,1494.9 1647.9,1492.0 1674.7,1489.2 1701.4,1486.5 1728.1,1483.8 1754.8,1481.1 1781.4,1478.5 1808.1,1476.0 1834.8,1473.5 1861.4,1471.0 1888.0,1468.6 1914.6,1466.3 1941.2,1463.9 1967.7,1461.7 1994.3,1459.4 2020.7,1457.2  Z" style="stroke-width: 0.5;  stroke: rgb(0,0,0); fill: rgb(179,177,178);" />
<path d="M 1800.147,1927.689 A 522.500,522.500 0.00 0,1 1736.1,1966.1 L 1736.1,1966.1 1726.4,1947.4 1716.2,1929.0 1705.6,1910.8 1694.7,1893.1 1683.3,1876.0 1671.5,1859.5 1659.4,1843.7 1646.9,1828.8 1634.1,1814.7 1621.1,1801.6 1607.7,1789.5 1594.1,1778.6 1580.2,1768.7 1566.1,1760.1 1551.8,1752.6 1537.3,1746.5 1522.7,1741.6 1507.9,1738.0 1493.1,1735.8 1478.1,1734.9 1463.0,1735.3 1447.9,1737.0 1432.8,1740.1 1417.7,1744.4 1402.6,1750.0 1387.5,1756.9 1372.6,1765.0 1357.7,1774.2 1343.0,1784.5 1328.4,1795.9 1314.0,1808.3 1299.8,1821.7 1285.8,1835.8 1272.1,1850.8 1258.7,1866.4 1245.7,1882.6 1232.9,1899.3 1220.6,1916.4 1208.7,1933.7  A 522.500,522.500 0.00 0,1 1149.9,1887.9 L 1149.9,1887.9 1164.6,1872.0 1179.7,1856.4 1195.3,1841.2 1211.3,1826.6 1227.6,1812.5 1244.3,1799.0 1261.2,1786.3 1278.5,1774.4 1296.0,1763.4 1313.7,1753.3 1331.5,1744.1 1349.6,1736.0 1367.7,1728.9 1386.0,1723.0 1404.4,1718.2 1422.7,1714.5 1441.2,1712.0 1459.6,1710.7 1477.9,1710.7 1496.2,1711.8 1514.4,1714.1 1532.5,1717.6 1550.5,1722.3 1568.3,1728.2 1585.9,1735.2 1603.3,1743.4 1620.5,1752.6 1637.4,1762.8 1654.1,1774.1 1670.4,1786.3 1686.4,1799.4 1702.0,1813.3 1717.3,1828.0 1732.2,1843.4 1746.7,1859.4 1760.8,1875.9 1774.4,1892.8 1787.5,1910.1 1800.1,1927.7  Z" style="stroke-width: 0.5;  stroke: rgb(0,0,0); fill: rgb(179,177,178);" />
<path d="M 1983.318,1301.482 A 522.500,522.500 0.00 0,1 2006.0,1369.5 L 2006.0,1369.5 1980.3,1376.1 1954.7,1382.6 1928.9,1389.1 1903.1,1395.5 1877.3,1401.9 1851.3,1408.2 1825.4,1414.5 1799.3,1420.7 1773.3,1426.8 1747.2,1432.8 1721.0,1438.8 1694.8,1444.7 1668.6,1450.5 1642.3,1456.2 1616.0,1461.9 1589.7,1467.5 1563.3,1473.0 1536.9,1478.4 1510.5,1483.7 1484.1,1489.0 1457.6,1494.1 1431.2,1499.2 1404.7,1504.2 1378.3,1509.1 1351.8,1513.9 1325.3,1518.6 1298.8,1523.3 1272.4,1527.8 1245.9,1532.3 1219.5,1536.7 1193.0,1541.0 1166.6,1545.2 1140.2,1549.4 1113.9,1553.4 1087.6,1557.4 1061.3,1561.3 1035.0,1565.2 1008.8,1569.0 982.6,1572.7  A 522.500,522.500 0.00 0,1 977.5,1500.4 L 977.5,1500.4 1003.1,1500.3 1028.8,1499.9 1054.7,1499.4 1080.7,1498.6 1106.7,1497.6 1132.9,1496.4 1159.2,1494.8 1185.6,1493.1 1212.0,1491.0 1238.5,1488.7 1265.0,1486.1 1291.6,1483.2 1318.1,1480.1 1344.7,1476.6 1371.3,1472.9 1397.8,1468.8 1424.4,1464.5 1450.9,1459.9 1477.4,1454.9 1503.8,1449.7 1530.1,1444.2 1556.4,1438.4 1582.6,1432.3 1608.7,1425.9 1634.7,1419.3 1660.6,1412.4 1686.4,1405.2 1712.0,1397.7 1737.5,1390.0 1762.9,1382.1 1788.1,1373.9 1813.2,1365.5 1838.0,1356.9 1862.7,1348.1 1887.3,1339.1 1911.6,1329.9 1935.7,1320.6 1959.6,1311.1 1983.3,1301.5  Z" style="stroke-width: 0.5;  stroke: rgb(0,0,0); fill: rgb(179,177,178);" />
<path d="M 1734.721,1966.811 A 522.500,522.500 0.00 0,1 1673.3,1992.9 L 1673.3,1992.9 1666.2,1973.5 1658.8,1954.3 1651.1,1935.4 1643.0,1916.9 1634.6,1899.0 1625.9,1881.8 1616.9,1865.3 1607.5,1849.6 1597.9,1834.9 1588.1,1821.2 1578.0,1808.6 1567.6,1797.2 1557.1,1786.9 1546.3,1778.0 1535.4,1770.3 1524.3,1764.0 1513.0,1759.0 1501.6,1755.5 1490.1,1753.3 1478.4,1752.6 1466.7,1753.3 1455.0,1755.4 1443.2,1758.9 1431.4,1763.8 1419.6,1770.1 1407.8,1777.6 1396.0,1786.5 1384.4,1796.5 1372.8,1807.8 1361.3,1820.2 1349.9,1833.6 1338.7,1847.9 1327.7,1863.2 1316.9,1879.2 1306.4,1896.0 1296.1,1913.3 1286.0,1931.1 1276.3,1949.3 1266.9,1967.6  A 522.500,522.500 0.00 0,1 1209.1,1934.1 L 1209.1,1934.1 1221.0,1916.7 1233.4,1899.6 1246.1,1882.9 1259.1,1866.7 1272.5,1851.0 1286.1,1836.1 1300.1,1821.9 1314.2,1808.6 1328.6,1796.2 1343.1,1784.8 1357.8,1774.5 1372.7,1765.2 1387.6,1757.2 1402.6,1750.3 1417.6,1744.7 1432.7,1740.3 1447.8,1737.3 1462.8,1735.6 1477.9,1735.2 1492.8,1736.1 1507.6,1738.4 1522.3,1741.9 1536.9,1746.8 1551.3,1753.0 1565.6,1760.4 1579.6,1769.1 1593.4,1779.0 1607.0,1790.0 1620.3,1802.1 1633.3,1815.2 1646.0,1829.3 1658.4,1844.3 1670.5,1860.1 1682.2,1876.6 1693.5,1893.7 1704.4,1911.5 1715.0,1929.6 1725.1,1948.1 1734.7,1966.8  Z" style="stroke-width: 0.5;  stroke: rgb(0,0,0); fill: rgb(179,177,178);" />
<path d="M 1774.315,1055.301 A 522.500,522.500 0.00 0,1 1824.8,1090.7 L 1824.8,1090.7 1809.9,1109.2 1794.5,1127.5 1778.5,1145.6 1762.1,1163.6 1745.3,1181.2 1727.9,1198.6 1710.1,1215.6 1691.8,1232.2 1673.0,1248.4 1653.8,1264.2 1634.1,1279.4 1614.0,1294.1 1593.6,1308.3 1572.7,1321.9 1551.4,1334.9 1529.7,1347.3 1507.7,1359.1 1485.4,1370.2 1462.7,1380.6 1439.8,1390.4 1416.6,1399.5 1393.1,1407.9 1369.3,1415.6 1345.4,1422.6 1321.3,1428.9 1297.0,1434.6 1272.6,1439.5 1248.0,1443.8 1223.4,1447.4 1198.8,1450.3 1174.1,1452.6 1149.4,1454.3 1124.8,1455.3 1100.2,1455.8 1075.8,1455.7 1051.5,1455.1 1027.4,1454.0 1003.5,1452.4 979.9,1450.4  A 522.500,522.500 0.00 0,1 989.2,1390.0 L 989.2,1390.0 1011.8,1394.6 1034.7,1398.8 1057.8,1402.4 1081.1,1405.4 1104.7,1407.9 1128.3,1409.7 1152.0,1410.9 1175.7,1411.3 1199.5,1411.1 1223.2,1410.0 1246.9,1408.2 1270.4,1405.7 1293.8,1402.3 1317.0,1398.0 1340.0,1393.0 1362.8,1387.1 1385.3,1380.4 1407.6,1372.9 1429.5,1364.5 1451.1,1355.3 1472.3,1345.3 1493.1,1334.5 1513.6,1322.9 1533.6,1310.5 1553.1,1297.4 1572.3,1283.5 1590.9,1269.0 1609.1,1253.8 1626.7,1238.0 1643.9,1221.6 1660.5,1204.7 1676.7,1187.2 1692.2,1169.3 1707.3,1151.0 1721.8,1132.3 1735.7,1113.4 1749.1,1094.2 1762.0,1074.8 1774.3,1055.3  Z" style="stroke-width: 0.5;  stroke: rgb(0,0,0); fill: rgb(179,177,178);" />
<path d="M 1718.282,1025.280 A 522.500,522.500 0.00 0,1 1771.4,1053.5 L 1771.4,1053.5 1759.2,1073.0 1746.5,1092.5 1733.3,1111.7 1719.4,1130.7 1705.1,1149.5 1690.2,1167.8 1674.7,1185.8 1658.7,1203.3 1642.2,1220.2 1625.2,1236.7 1607.6,1252.5 1589.6,1267.7 1571.0,1282.3 1552.0,1296.1 1532.5,1309.2 1512.6,1321.6 1492.3,1333.2 1471.5,1344.0 1450.4,1354.0 1428.9,1363.2 1407.1,1371.5 1384.9,1379.0 1362.5,1385.7 1339.8,1391.5 1316.8,1396.5 1293.7,1400.6 1270.3,1403.9 1246.9,1406.4 1223.3,1408.1 1199.6,1409.1 1175.9,1409.2 1152.3,1408.7 1128.6,1407.4 1105.0,1405.5 1081.6,1402.9 1058.3,1399.7 1035.2,1396.0 1012.4,1391.7 989.9,1387.0  A 522.500,522.500 0.00 0,1 1006.2,1329.3 L 1006.2,1329.3 1027.4,1336.4 1049.0,1343.0 1070.9,1349.0 1092.9,1354.5 1115.2,1359.3 1137.5,1363.5 1160.0,1366.9 1182.4,1369.5 1204.9,1371.3 1227.2,1372.2 1249.5,1372.3 1271.6,1371.5 1293.6,1369.8 1315.3,1367.1 1336.8,1363.5 1358.0,1358.9 1378.9,1353.3 1399.5,1346.8 1419.7,1339.3 1439.5,1330.8 1458.8,1321.4 1477.8,1311.1 1496.2,1299.9 1514.2,1287.7 1531.7,1274.7 1548.7,1260.9 1565.1,1246.2 1581.0,1230.8 1596.4,1214.6 1611.2,1197.8 1625.4,1180.4 1639.0,1162.3 1652.1,1143.8 1664.6,1124.8 1676.5,1105.4 1687.8,1085.6 1698.5,1065.7 1708.7,1045.5 1718.3,1025.3  Z" style="stroke-width: 0.5;  stroke: rgb(0,0,0); fill: rgb(179,177,178);" />
<path d="M 1840.816,1896.044 A 522.500,522.500 0.00 0,1 1800.1,1927.7 L 1800.1,1927.7 1787.5,1910.1 1774.3,1892.8 1760.7,1875.9 1746.7,1859.3 1732.2,1843.4 1717.3,1828.0 1702.0,1813.3 1686.3,1799.4 1670.3,1786.2 1654.0,1774.0 1637.3,1762.8 1620.4,1752.5 1603.2,1743.3 1585.8,1735.1 1568.1,1728.1 1550.3,1722.2 1532.3,1717.5 1514.2,1713.9 1496.0,1711.6 1477.6,1710.4 1459.3,1710.5 1440.8,1711.7 1422.4,1714.2 1404.0,1717.8 1385.6,1722.6 1367.3,1728.5 1349.1,1735.5 1331.0,1743.6 1313.1,1752.7 1295.4,1762.8 1277.8,1773.8 1260.6,1785.7 1243.6,1798.4 1226.9,1811.8 1210.5,1825.8 1194.5,1840.5 1178.9,1855.6 1163.7,1871.2 1149.0,1887.0  A 522.500,522.500 0.00 0,1 1113.3,1851.4 L 1113.3,1851.4 1129.8,1836.8 1146.8,1822.4 1164.3,1808.5 1182.1,1795.1 1200.3,1782.2 1218.9,1770.0 1237.7,1758.4 1256.9,1747.7 1276.3,1737.7 1295.9,1728.6 1315.8,1720.4 1335.8,1713.2 1355.9,1706.9 1376.2,1701.7 1396.5,1697.5 1416.9,1694.3 1437.3,1692.3 1457.7,1691.3 1478.1,1691.4 1498.4,1692.7 1518.6,1695.0 1538.8,1698.5 1558.8,1703.0 1578.6,1708.6 1598.3,1715.3 1617.7,1723.0 1636.9,1731.6 1655.9,1741.3 1674.6,1751.8 1693.0,1763.3 1711.0,1775.5 1728.7,1788.6 1746.0,1802.3 1762.9,1816.7 1779.4,1831.7 1795.5,1847.2 1811.1,1863.2 1826.2,1879.5 1840.8,1896.0  Z" style="stroke-width: 0.5;  stroke: rgb(0,0,0); fill: rgb(179,177,178);" />
<path d="M 1964.637,1738.995 A 522.500,522.500 0.00 0,1 1944.5,1774.7 L 1944.5,1774.7 1924.1,1762.3 1903.3,1750.2 1882.0,1738.5 1860.4,1727.0 1838.5,1716.0 1816.1,1705.4 1793.5,1695.3 1770.5,1685.7 1747.3,1676.6 1723.8,1668.0 1700.0,1660.1 1676.0,1652.7 1651.8,1646.0 1627.4,1639.9 1602.8,1634.5 1578.1,1629.8 1553.3,1625.7 1528.3,1622.3 1503.3,1619.7 1478.2,1617.7 1453.0,1616.4 1427.8,1615.9 1402.7,1616.0 1377.5,1616.9 1352.4,1618.4 1327.3,1620.6 1302.4,1623.5 1277.5,1627.0 1252.8,1631.2 1228.3,1636.0 1203.9,1641.3 1179.7,1647.3 1155.8,1653.8 1132.1,1660.8 1108.7,1668.2 1085.5,1676.1 1062.7,1684.5 1040.3,1693.2 1018.2,1702.2  A 522.500,522.500 0.00 0,1 1003.7,1663.4 L 1003.7,1663.4 1026.9,1656.0 1050.4,1648.9 1074.2,1642.1 1098.2,1635.7 1122.6,1629.6 1147.1,1624.0 1171.9,1618.9 1196.9,1614.2 1222.1,1610.0 1247.4,1606.3 1272.9,1603.2 1298.5,1600.5 1324.2,1598.5 1350.0,1597.0 1375.8,1596.0 1401.6,1595.7 1427.5,1596.0 1453.4,1596.8 1479.3,1598.2 1505.1,1600.3 1530.9,1602.9 1556.6,1606.1 1582.2,1609.9 1607.7,1614.3 1633.0,1619.2 1658.2,1624.7 1683.3,1630.8 1708.2,1637.4 1732.8,1644.5 1757.3,1652.1 1781.5,1660.2 1805.4,1668.7 1829.1,1677.7 1852.5,1687.1 1875.6,1696.8 1898.4,1706.9 1920.8,1717.3 1942.9,1728.0 1964.6,1739.0  Z" style="stroke-width: 0.5;  stroke: rgb(0,0,0); fill: rgb(179,177,178);" />
<path d="M 1966.053,1263.778 A 522.500,522.500 0.00 0,1 1982.3,1299.1 L 1982.3,1299.1 1958.7,1308.9 1934.9,1318.4 1910.8,1327.9 1886.5,1337.2 1862.1,1346.3 1837.4,1355.2 1812.6,1363.9 1787.6,1372.4 1762.4,1380.6 1737.1,1388.6 1711.6,1396.4 1686.0,1403.9 1660.2,1411.2 1634.4,1418.2 1608.4,1424.9 1582.3,1431.3 1556.1,1437.5 1529.9,1443.3 1503.5,1448.9 1477.1,1454.1 1450.7,1459.1 1424.2,1463.8 1397.7,1468.1 1371.1,1472.2 1344.5,1476.0 1318.0,1479.4 1291.4,1482.6 1264.9,1485.5 1238.4,1488.1 1211.9,1490.4 1185.5,1492.4 1159.1,1494.1 1132.8,1495.6 1106.7,1496.9 1080.6,1497.8 1054.6,1498.6 1028.8,1499.1 1003.1,1499.4 977.5,1499.4  A 522.500,522.500 0.00 0,1 979.0,1460.5 L 979.0,1460.5 1004.0,1462.2 1029.3,1463.7 1054.7,1464.9 1080.3,1465.8 1106.0,1466.4 1131.9,1466.7 1157.9,1466.6 1184.0,1466.2 1210.2,1465.3 1236.5,1464.2 1262.8,1462.6 1289.1,1460.6 1315.5,1458.3 1341.9,1455.5 1368.3,1452.4 1394.7,1448.8 1421.0,1444.8 1447.3,1440.4 1473.6,1435.6 1499.7,1430.4 1525.8,1424.8 1551.8,1418.8 1577.6,1412.3 1603.4,1405.5 1628.9,1398.3 1654.4,1390.8 1679.7,1382.8 1704.8,1374.5 1729.7,1365.9 1754.4,1356.9 1778.9,1347.6 1803.2,1338.0 1827.2,1328.1 1851.0,1318.0 1874.6,1307.6 1897.9,1296.9 1920.9,1286.1 1943.6,1275.0 1966.1,1263.8  Z" style="stroke-width: 0.5;  stroke: rgb(0,0,0); fill: rgb(179,177,178);" />
<path d="M 1867.474,1871.442 A 522.500,522.500 0.00 0,1 1841.2,1895.8 L 1841.2,1895.8 1826.5,1879.1 1811.3,1862.8 1795.6,1846.8 1779.5,1831.2 1762.9,1816.1 1745.8,1801.6 1728.4,1787.7 1710.6,1774.5 1692.4,1762.1 1673.8,1750.5 1655.0,1739.8 1635.8,1729.9 1616.4,1721.0 1596.8,1713.1 1576.9,1706.2 1556.8,1700.3 1536.5,1695.4 1516.1,1691.7 1495.5,1689.0 1474.9,1687.3 1454.2,1686.8 1433.4,1687.3 1412.6,1689.0 1391.9,1691.6 1371.1,1695.4 1350.5,1700.1 1329.9,1705.9 1309.5,1712.6 1289.2,1720.3 1269.0,1728.9 1249.1,1738.3 1229.5,1748.5 1210.1,1759.5 1191.0,1771.2 1172.2,1783.5 1153.9,1796.3 1135.9,1809.7 1118.3,1823.5 1101.2,1837.6  A 522.500,522.500 0.00 0,1 1078.9,1809.3 L 1078.9,1809.3 1097.2,1796.2 1115.9,1783.4 1135.1,1771.0 1154.7,1759.2 1174.7,1747.8 1195.0,1737.1 1215.5,1727.1 1236.4,1717.8 1257.5,1709.2 1278.8,1701.4 1300.3,1694.5 1321.9,1688.4 1343.7,1683.3 1365.6,1679.1 1387.5,1675.8 1409.5,1673.6 1431.5,1672.3 1453.4,1672.0 1475.4,1672.7 1497.3,1674.4 1519.0,1677.2 1540.7,1680.9 1562.2,1685.6 1583.6,1691.3 1604.7,1697.9 1625.7,1705.5 1646.3,1714.0 1666.8,1723.4 1686.9,1733.6 1706.7,1744.6 1726.2,1756.4 1745.4,1768.9 1764.1,1782.0 1782.5,1795.8 1800.4,1810.1 1817.9,1824.9 1834.9,1840.1 1851.4,1855.6 1867.5,1871.4  Z" style="stroke-width: 0.5;  stroke: rgb(0,0,0); fill: rgb(179,177,178);" />
<path d="M 1551.296,980.024 A 522.500,522.500 0.00 0,1 1568.8,982.1 L 1568.8,982.1 1565.7,1003.5 1562.1,1025.0 1557.8,1046.4 1552.9,1067.6 1547.4,1088.5 1541.3,1109.1 1534.5,1129.3 1527.0,1149.0 1518.8,1168.2 1509.9,1186.7 1500.3,1204.5 1489.9,1221.6 1478.9,1237.9 1467.1,1253.4 1454.7,1268.0 1441.5,1281.6 1427.6,1294.4 1413.1,1306.2 1397.9,1316.9 1382.1,1326.7 1365.7,1335.4 1348.6,1343.2 1331.0,1349.8 1312.9,1355.5 1294.3,1360.1 1275.2,1363.6 1255.7,1366.2 1235.8,1367.8 1215.5,1368.4 1195.0,1368.0 1174.2,1366.8 1153.2,1364.7 1132.1,1361.7 1110.9,1358.0 1089.7,1353.5 1068.6,1348.3 1047.6,1342.5 1026.7,1336.2 1006.2,1329.3  A 522.500,522.500 0.00 0,1 1012.1,1313.1 L 1012.1,1313.1 1032.3,1320.6 1052.7,1327.6 1073.4,1334.0 1094.1,1339.8 1114.9,1344.9 1135.7,1349.3 1156.4,1352.9 1176.9,1355.7 1197.3,1357.6 1217.4,1358.5 1237.1,1358.5 1256.6,1357.5 1275.6,1355.5 1294.2,1352.4 1312.2,1348.3 1329.8,1343.2 1346.9,1337.0 1363.3,1329.7 1379.1,1321.3 1394.3,1311.9 1408.9,1301.5 1422.7,1290.1 1435.9,1277.6 1448.4,1264.2 1460.2,1249.9 1471.2,1234.6 1481.5,1218.5 1491.1,1201.6 1500.0,1183.9 1508.1,1165.5 1515.6,1146.5 1522.3,1126.9 1528.3,1106.8 1533.7,1086.2 1538.4,1065.4 1542.5,1044.2 1546.0,1022.9 1548.9,1001.4 1551.3,980.0  Z" style="stroke-width: 0.5;  stroke: rgb(0,0,0); fill: rgb(179,177,178);" />
<path d="M 1961.594,1255.180 A 522.500,522.500 0.00 0,1 1965.7,1263.1 L 1965.7,1263.1 1943.3,1274.4 1920.6,1285.4 1897.6,1296.3 1874.3,1307.0 1850.8,1317.4 1827.0,1327.6 1802.9,1337.5 1778.7,1347.2 1754.2,1356.5 1729.5,1365.5 1704.6,1374.2 1679.5,1382.5 1654.2,1390.5 1628.8,1398.0 1603.2,1405.3 1577.5,1412.1 1551.7,1418.5 1525.7,1424.6 1499.6,1430.2 1473.5,1435.5 1447.3,1440.3 1421.0,1444.7 1394.6,1448.7 1368.3,1452.3 1341.9,1455.5 1315.5,1458.2 1289.1,1460.6 1262.7,1462.6 1236.4,1464.2 1210.2,1465.4 1184.0,1466.2 1157.9,1466.6 1131.9,1466.7 1106.0,1466.5 1080.3,1465.9 1054.7,1465.0 1029.2,1463.8 1004.0,1462.3 979.0,1460.5  A 522.500,522.500 0.00 0,1 979.7,1451.7 L 979.7,1451.7 1004.6,1453.8 1029.7,1455.7 1055.0,1457.3 1080.5,1458.6 1106.2,1459.5 1131.9,1460.1 1157.9,1460.3 1183.9,1460.2 1210.0,1459.6 1236.2,1458.7 1262.5,1457.3 1288.7,1455.6 1315.1,1453.4 1341.4,1450.8 1367.7,1447.7 1394.0,1444.3 1420.3,1440.4 1446.5,1436.0 1472.7,1431.2 1498.8,1426.0 1524.7,1420.4 1550.6,1414.3 1576.4,1407.8 1602.0,1400.9 1627.4,1393.5 1652.8,1385.8 1677.9,1377.7 1702.8,1369.2 1727.6,1360.3 1752.1,1351.1 1776.4,1341.6 1800.5,1331.7 1824.3,1321.5 1847.9,1311.1 1871.2,1300.3 1894.3,1289.4 1917.0,1278.2 1939.5,1266.8 1961.6,1255.2  Z" style="stroke-width: 0.5;  stroke: rgb(0,0,0); fill: rgb(179,177,178);" />
</g>
<g id="plot0">
<g id="plot0-axis">
</g>
<line x1='2243.8' y1='1596.3' x2='2243.8' y2='1596.3' style="stroke-width:14.0;stroke:rgb(0,0,0);stroke-linecap:round;fill:none;" />
<line x1='2243.8' y1='1596.3' x2='2283.5' y2='1601.5' style="stroke-width:14.0;stroke:rgb(0,0,0);stroke-linecap:round;fill:none;" />
<line x1='2283.5' y1='1601.5' x2='2283.5' y2='1601.5' style="stroke-width:14.0;stroke:rgb(0,0,0);stroke-linecap:round;fill:none;" />
<text x="2300.1" y="1626.3" font-size="46.8px" font-family="CMUBright-Roman" style="text-anchor:start;fill:rgb(255,38,78);" transform="rotate(7.4,2300.1,1626.3)" >HistocapSECH101<tspan baseline-shift="-40%" font-size="90%">s</tspan>01345</text>
</g>
<defs>
<pattern id="hline" width="10" height="10" patternTransform="rotate(0 0 0)" patternUnits="userSpaceOnUse"><line x1="0" y1="0" x2="10" y2="0" style="stroke:black;stroke-width:5" /></pattern>
<pattern id="vline" width="10" height="10" patternTransform="rotate(0 0 0)" patternUnits="userSpaceOnUse"><line x1="0" y1="0" x2="0" y2="10" style="stroke:black;stroke-width:5" /></pattern>
<pattern id="hline-sparse" width="10" height="10" patternTransform="rotate(0 0 0)" patternUnits="userSpaceOnUse"><line x1="0" y1="0" x2="10" y2="0" style="stroke:black;stroke-width:2" /></pattern>
<pattern id="checker" width="10" height="10" patternTransform="rotate(45 0 0)" patternUnits="userSpaceOnUse"><line x1="0" y1="0" x2="10" y2="0" style="stroke:black;stroke-width:2" /><line x1="0" y1="0" x2="0" y2="10" style="stroke:black;stroke-width:2" /></pattern>
<pattern id="checker" width="10" height="10" patternTransform="rotate(45 0 0)" patternUnits="userSpaceOnUse"><line x1="0" y1="0" x2="10" y2="0" style="stroke:black;stroke-width:5" /><line x1="0" y1="0" x2="0" y2="10" style="stroke:black;stroke-width:4" /></pattern>
<pattern id="vline-sparse" width="10" height="10" patternTransform="rotate(0 0 0)" patternUnits="userSpaceOnUse"><line x1="0" y1="0" x2="0" y2="10" style="stroke:black;stroke-width:2" /></pattern>
</defs>
</svg>
