<?xml version="1.0" encoding="utf-8" standalone="no"?>
<!DOCTYPE svg PUBLIC "-//W3C//DTD SVG 1.1//EN" "http://www.w3.org/Graphics/SVG/1.1/DTD/svg11.dtd">
<svg width="3000px" height="3000px" version="1.1" xmlns="http://www.w3.org/2000/svg" xmlns:xlink="http://www.w3.org/1999/xlink">
<g id="bg">
<rect x="0" y="0" width="3000px" height="3000px" style="fill:rgb(255,255,255);"/>
</g>
<g id="ideograms">
<path d="M1500.000,950.000 A550.000,550.000 40.000 0,1 1692.952,2015.043 L1763.117,2202.331 A750.000,750.000 0.000 0,0 1500.000,750.000 Z" style="stroke-width:2.0;stroke:rgb(0,0,0);stroke-linecap:round;fill:rgb(179,177,178);" />
<text x="2459.4" y="1326.2" font-size="46.8px" font-family="CMUBright-Roman" style="text-anchor:middle;fill:rgb(0,0,0);" transform="rotate(439.7,2459.4,1326.2)" >Histocap1517p17<tspan baseline-shift="-40%" font-size="90%">5</tspan></text>
<line x1='1578.2' y1='754.1' x2='1579.4' y2='742.1' style="stroke-width:8.0;stroke:rgb(150,150,150);stroke-linecap:round;fill:none;" />
<line x1='1677.3' y1='771.3' x2='1680.1' y2='759.6' style="stroke-width:8.0;stroke:rgb(150,150,150);stroke-linecap:round;fill:none;" />
<line x1='1773.3' y1='801.6' x2='1777.6' y2='790.4' style="stroke-width:8.0;stroke:rgb(150,150,150);stroke-linecap:round;fill:none;" />
<line x1='1864.3' y1='844.4' x2='1870.1' y2='833.9' style="stroke-width:8.0;stroke:rgb(150,150,150);stroke-linecap:round;fill:none;" />
<line x1='1948.8' y1='899.1' x2='1956.0' y2='889.5' style="stroke-width:8.0;stroke:rgb(150,150,150);stroke-linecap:round;fill:none;" />
<text x="1974.3" y="888.3" font-size="41.6px" font-family="CMUBright-Roman" style="text-anchor:start;fill:rgb(150,150,150);" transform="rotate(306.8,1974.3,888.3)" >350 kb</text>
<line x1='2025.2' y1='964.6' x2='2033.6' y2='956.0' style="stroke-width:8.0;stroke:rgb(150,150,150);stroke-linecap:round;fill:none;" />
<line x1='2092.1' y1='1039.7' x2='2101.6' y2='1032.3' style="stroke-width:8.0;stroke:rgb(150,150,150);stroke-linecap:round;fill:none;" />
<line x1='2148.4' y1='1123.1' x2='2158.8' y2='1117.1' style="stroke-width:8.0;stroke:rgb(150,150,150);stroke-linecap:round;fill:none;" />
<line x1='2193.0' y1='1213.3' x2='2204.1' y2='1208.7' style="stroke-width:8.0;stroke:rgb(150,150,150);stroke-linecap:round;fill:none;" />
<line x1='2225.2' y1='1308.6' x2='2236.8' y2='1305.6' style="stroke-width:8.0;stroke:rgb(150,150,150);stroke-linecap:round;fill:none;" />
<text x="2251.8" y="1316.1" font-size="41.6px" font-family="CMUBright-Roman" style="text-anchor:start;fill:rgb(150,150,150);" transform="rotate(345.2,2251.8,1316.1)" >400 kb</text>
<line x1='2244.3' y1='1407.4' x2='2256.2' y2='1405.9' style="stroke-width:8.0;stroke:rgb(150,150,150);stroke-linecap:round;fill:none;" />
<line x1='2250.0' y1='1507.9' x2='2262.0' y2='1508.0' style="stroke-width:8.0;stroke:rgb(150,150,150);stroke-linecap:round;fill:none;" />
<line x1='2242.2' y1='1608.2' x2='2254.0' y2='1609.9' style="stroke-width:8.0;stroke:rgb(150,150,150);stroke-linecap:round;fill:none;" />
<line x1='2221.0' y1='1706.6' x2='2232.5' y2='1709.9' style="stroke-width:8.0;stroke:rgb(150,150,150);stroke-linecap:round;fill:none;" />
<line x1='2186.9' y1='1801.2' x2='2197.8' y2='1806.0' style="stroke-width:8.0;stroke:rgb(150,150,150);stroke-linecap:round;fill:none;" />
<text x="2203.1" y="1823.6" font-size="41.6px" font-family="CMUBright-Roman" style="text-anchor:start;fill:rgb(150,150,150);" transform="rotate(23.7,2203.1,1823.6)" >450 kb</text>
<line x1='2140.3' y1='1890.5' x2='2150.6' y2='1896.7' style="stroke-width:8.0;stroke:rgb(150,150,150);stroke-linecap:round;fill:none;" />
<line x1='2082.3' y1='1972.7' x2='2091.6' y2='1980.2' style="stroke-width:8.0;stroke:rgb(150,150,150);stroke-linecap:round;fill:none;" />
<line x1='2013.8' y1='2046.4' x2='2022.0' y2='2055.1' style="stroke-width:8.0;stroke:rgb(150,150,150);stroke-linecap:round;fill:none;" />
<line x1='1936.1' y1='2110.2' x2='1943.0' y2='2120.0' style="stroke-width:8.0;stroke:rgb(150,150,150);stroke-linecap:round;fill:none;" />
<line x1='1850.4' y1='2163.1' x2='1856.1' y2='2173.7' style="stroke-width:8.0;stroke:rgb(150,150,150);stroke-linecap:round;fill:none;" />
<text x="1849.2" y="2190.7" font-size="41.6px" font-family="CMUBright-Roman" style="text-anchor:start;fill:rgb(150,150,150);" transform="rotate(62.1,1849.2,2190.7)" >500 kb</text>
<g id="highlighttrack_0">
<path d="M2035.746,1375.596 A550.000,550.000 40.000 0,1 2045.339,1428.545 L2243.644,1402.562 A750.000,750.000 0.000 0,0 2230.563,1330.358 Z" style="stroke-width:14.0;stroke:rgb(0,0,0);stroke-linecap:round;fill:rgb(255,38,78);" />
</g>
<path d="M1500.000,950.000 A550.000,550.000 40.000 0,1 1692.952,2015.043 L1763.117,2202.331 A750.000,750.000 0.000 0,0 1500.000,750.000 Z" style="stroke-width:2.0;stroke:rgb(0,0,0);stroke-linecap:round;fill:none;" />
<path d="M1475.621,2049.459 A550.000,550.000 40.000 0,1 1284.407,994.016 L1206.010,810.022 A750.000,750.000 0.000 0,0 1466.756,2249.263 Z" style="stroke-width:2.0;stroke:rgb(0,0,0);stroke-linecap:round;fill:rgb(179,177,178);" />
<text x="496.3" y="1681.8" font-size="46.8px" font-family="CMUBright-Roman" style="text-anchor:middle;fill:rgb(0,0,0);" transform="rotate(79.7,496.3,1681.8)" >HistocapCB062<tspan baseline-shift="-40%" font-size="90%">5</tspan></text>
<line x1='1166.1' y1='828.4' x2='1160.8' y2='817.7' style="stroke-width:8.0;stroke:rgb(150,150,150);stroke-linecap:round;fill:none;" />
<line x1='1079.2' y1='879.2' x2='1072.5' y2='869.2' style="stroke-width:8.0;stroke:rgb(150,150,150);stroke-linecap:round;fill:none;" />
<line x1='999.9' y1='941.1' x2='991.9' y2='932.1' style="stroke-width:8.0;stroke:rgb(150,150,150);stroke-linecap:round;fill:none;" />
<line x1='929.6' y1='1013.0' x2='920.5' y2='1005.3' style="stroke-width:8.0;stroke:rgb(150,150,150);stroke-linecap:round;fill:none;" />
<line x1='869.5' y1='1093.8' x2='859.4' y2='1087.3' style="stroke-width:8.0;stroke:rgb(150,150,150);stroke-linecap:round;fill:none;" />
<text x="841.9" y="1092.6" font-size="41.6px" font-family="CMUBright-Roman" style="text-anchor:end;fill:rgb(150,150,150);" transform="rotate(32.8,841.9,1092.6)" >350 kb</text>
<line x1='820.8' y1='1181.8' x2='810.0' y2='1176.7' style="stroke-width:8.0;stroke:rgb(150,150,150);stroke-linecap:round;fill:none;" />
<line x1='784.4' y1='1275.6' x2='772.9' y2='1272.0' style="stroke-width:8.0;stroke:rgb(150,150,150);stroke-linecap:round;fill:none;" />
<line x1='760.8' y1='1373.4' x2='748.9' y2='1371.4' style="stroke-width:8.0;stroke:rgb(150,150,150);stroke-linecap:round;fill:none;" />
<line x1='750.5' y1='1473.5' x2='738.5' y2='1473.1' style="stroke-width:8.0;stroke:rgb(150,150,150);stroke-linecap:round;fill:none;" />
<line x1='753.7' y1='1574.1' x2='741.7' y2='1575.3' style="stroke-width:8.0;stroke:rgb(150,150,150);stroke-linecap:round;fill:none;" />
<text x="731.3" y="1590.4" font-size="41.6px" font-family="CMUBright-Roman" style="text-anchor:end;fill:rgb(150,150,150);" transform="rotate(-5.7,731.3,1590.4)" >400 kb</text>
<line x1='770.3' y1='1673.3' x2='758.6' y2='1676.1' style="stroke-width:8.0;stroke:rgb(150,150,150);stroke-linecap:round;fill:none;" />
<line x1='800.1' y1='1769.4' x2='788.9' y2='1773.8' style="stroke-width:8.0;stroke:rgb(150,150,150);stroke-linecap:round;fill:none;" />
<line x1='842.4' y1='1860.7' x2='831.9' y2='1866.5' style="stroke-width:8.0;stroke:rgb(150,150,150);stroke-linecap:round;fill:none;" />
<line x1='896.6' y1='1945.5' x2='887.0' y2='1952.6' style="stroke-width:8.0;stroke:rgb(150,150,150);stroke-linecap:round;fill:none;" />
<line x1='961.7' y1='2022.2' x2='953.1' y2='2030.6' style="stroke-width:8.0;stroke:rgb(150,150,150);stroke-linecap:round;fill:none;" />
<text x="954.3" y="2048.9" font-size="41.6px" font-family="CMUBright-Roman" style="text-anchor:end;fill:rgb(150,150,150);" transform="rotate(-44.1,954.3,2048.9)" >450 kb</text>
<line x1='1036.5' y1='2089.6' x2='1029.0' y2='2099.0' style="stroke-width:8.0;stroke:rgb(150,150,150);stroke-linecap:round;fill:none;" />
<line x1='1119.6' y1='2146.3' x2='1113.5' y2='2156.7' style="stroke-width:8.0;stroke:rgb(150,150,150);stroke-linecap:round;fill:none;" />
<line x1='1209.5' y1='2191.5' x2='1204.9' y2='2202.5' style="stroke-width:8.0;stroke:rgb(150,150,150);stroke-linecap:round;fill:none;" />
<line x1='1304.7' y1='2224.1' x2='1301.5' y2='2235.7' style="stroke-width:8.0;stroke:rgb(150,150,150);stroke-linecap:round;fill:none;" />
<line x1='1403.4' y1='2243.7' x2='1401.8' y2='2255.6' style="stroke-width:8.0;stroke:rgb(150,150,150);stroke-linecap:round;fill:none;" />
<text x="1414.2" y="2269.2" font-size="41.6px" font-family="CMUBright-Roman" style="text-anchor:end;fill:rgb(150,150,150);" transform="rotate(-82.6,1414.2,2269.2)" >500 kb</text>
<path d="M1475.621,2049.459 A550.000,550.000 40.000 0,1 1284.407,994.016 L1206.010,810.022 A750.000,750.000 0.000 0,0 1466.756,2249.263 Z" style="stroke-width:2.0;stroke:rgb(0,0,0);stroke-linecap:round;fill:none;" />
</g>
<g id="track_0">
<path d="M 1851.820,1113.698 A 522.500,522.500 0.00 0,1 1963.9,1259.7 L 1963.9,1259.7 1941.7,1271.0 1919.2,1282.2 1896.3,1293.2 1873.2,1303.9 1849.8,1314.4 1826.1,1324.6 1802.2,1334.5 1778.0,1344.2 1753.6,1353.5 1729.0,1362.4 1704.1,1371.0 1679.1,1379.2 1653.9,1387.1 1628.5,1394.5 1603.0,1401.6 1577.3,1408.2 1551.5,1414.4 1525.6,1420.2 1499.5,1425.5 1473.4,1430.4 1447.2,1434.9 1420.9,1438.9 1394.6,1442.5 1368.3,1445.7 1341.9,1448.4 1315.6,1450.7 1289.2,1452.5 1262.9,1454.0 1236.7,1455.0 1210.5,1455.6 1184.4,1455.8 1158.4,1455.6 1132.5,1455.1 1106.7,1454.1 1081.1,1452.9 1055.6,1451.3 1030.4,1449.3 1005.3,1447.1 980.4,1444.6  A 522.500,522.500 0.00 0,1 1032.1,1267.5 L 1032.1,1267.5 1052.7,1277.4 1073.7,1287.0 1095.1,1296.1 1116.8,1304.7 1138.8,1312.7 1161.0,1320.1 1183.5,1326.9 1206.2,1332.9 1229.0,1338.2 1251.9,1342.8 1275.0,1346.6 1298.1,1349.5 1321.3,1351.6 1344.4,1352.8 1367.6,1353.1 1390.6,1352.5 1413.6,1351.0 1436.5,1348.6 1459.3,1345.3 1481.9,1341.1 1504.3,1335.9 1526.5,1329.9 1548.5,1322.9 1570.2,1315.1 1591.7,1306.4 1612.8,1296.9 1633.6,1286.6 1654.1,1275.4 1674.2,1263.6 1694.0,1251.0 1713.3,1237.8 1732.3,1223.9 1750.8,1209.5 1768.8,1194.5 1786.4,1179.0 1803.5,1163.2 1820.1,1147.0 1836.2,1130.4 1851.8,1113.7  Z" style="stroke-width: 0.5;  stroke: rgb(0,0,0); fill: rgb(179,177,178);" />
<path d="M 2014.468,1591.263 A 522.500,522.500 0.00 0,1 1992.2,1675.3 L 1992.2,1675.3 1969.8,1667.6 1947.0,1660.2 1923.9,1653.2 1900.5,1646.7 1876.9,1640.6 1853.0,1635.1 1828.8,1630.1 1804.5,1625.7 1780.0,1621.9 1755.4,1618.8 1730.7,1616.3 1705.9,1614.4 1681.0,1613.3 1656.1,1612.8 1631.2,1613.1 1606.2,1614.0 1581.4,1615.7 1556.6,1618.2 1531.8,1621.3 1507.2,1625.2 1482.7,1629.9 1458.4,1635.2 1434.2,1641.3 1410.2,1648.0 1386.4,1655.5 1362.9,1663.6 1339.6,1672.4 1316.5,1681.8 1293.8,1691.9 1271.3,1702.5 1249.2,1713.7 1227.5,1725.4 1206.0,1737.5 1185.0,1750.2 1164.4,1763.2 1144.1,1776.7 1124.3,1790.4 1104.9,1804.5 1086.0,1818.8  A 522.500,522.500 0.00 0,1 1038.8,1745.5 L 1038.8,1745.5 1060.7,1734.0 1082.9,1722.7 1105.5,1711.7 1128.3,1700.9 1151.5,1690.5 1175.0,1680.3 1198.7,1670.4 1222.7,1660.9 1246.9,1651.8 1271.4,1643.1 1296.1,1634.8 1321.0,1626.9 1346.2,1619.4 1371.4,1612.4 1396.9,1605.9 1422.5,1599.8 1448.2,1594.2 1474.1,1589.1 1500.0,1584.5 1526.0,1580.4 1552.2,1576.7 1578.3,1573.6 1604.5,1571.0 1630.7,1568.9 1657.0,1567.3 1683.2,1566.1 1709.4,1565.5 1735.5,1565.3 1761.6,1565.6 1787.5,1566.4 1813.4,1567.6 1839.2,1569.2 1864.8,1571.2 1890.3,1573.7 1915.5,1576.5 1940.6,1579.7 1965.5,1583.2 1990.1,1587.1 2014.5,1591.3  Z" style="stroke-width: 0.5;  stroke: rgb(0,0,0); fill: rgb(179,177,178);" />
<path d="M 2018.111,1432.417 A 522.500,522.500 0.00 0,1 2022.3,1513.8 L 2022.3,1513.8 1996.7,1513.2 1970.9,1512.8 1945.0,1512.6 1918.9,1512.7 1892.8,1512.9 1866.5,1513.4 1840.2,1514.1 1813.7,1515.1 1787.2,1516.3 1760.7,1517.8 1734.0,1519.5 1707.4,1521.5 1680.7,1523.8 1654.0,1526.4 1627.3,1529.2 1600.6,1532.3 1573.9,1535.7 1547.2,1539.4 1520.6,1543.4 1494.0,1547.6 1467.4,1552.2 1440.9,1557.0 1414.5,1562.0 1388.1,1567.4 1361.8,1573.0 1335.7,1578.9 1309.6,1585.0 1283.6,1591.4 1257.8,1598.0 1232.1,1604.9 1206.5,1611.9 1181.1,1619.2 1155.8,1626.8 1130.7,1634.5 1105.8,1642.4 1081.0,1650.4 1056.5,1658.7 1032.1,1667.1 1007.9,1675.6  A 522.500,522.500 0.00 0,1 986.3,1595.7 L 986.3,1595.7 1012.5,1590.8 1038.7,1586.0 1065.0,1581.2 1091.2,1576.4 1117.5,1571.6 1143.8,1566.9 1170.2,1562.2 1196.6,1557.6 1222.9,1552.9 1249.4,1548.3 1275.8,1543.8 1302.2,1539.3 1328.7,1534.8 1355.2,1530.3 1381.7,1525.9 1408.2,1521.6 1434.7,1517.2 1461.2,1513.0 1487.8,1508.7 1514.3,1504.5 1540.9,1500.4 1567.4,1496.2 1594.0,1492.2 1620.5,1488.1 1647.1,1484.1 1673.7,1480.2 1700.2,1476.3 1726.8,1472.4 1753.3,1468.6 1779.9,1464.8 1806.4,1461.1 1832.9,1457.3 1859.4,1453.7 1885.9,1450.0 1912.4,1446.4 1938.8,1442.9 1965.3,1439.4 1991.7,1435.9 2018.1,1432.4  Z" style="stroke-width: 0.5;  stroke: rgb(0,0,0); fill: rgb(179,177,178);" />
<path d="M 1662.377,1003.371 A 522.500,522.500 0.00 0,1 1709.2,1021.2 L 1709.2,1021.2 1700.5,1040.5 1691.3,1059.7 1681.6,1078.6 1671.5,1097.1 1660.9,1115.0 1649.8,1132.4 1638.3,1149.1 1626.4,1165.1 1614.1,1180.2 1601.4,1194.4 1588.2,1207.6 1574.7,1219.8 1560.9,1230.9 1546.7,1240.9 1532.2,1249.7 1517.3,1257.3 1502.2,1263.6 1486.8,1268.8 1471.2,1272.6 1455.4,1275.2 1439.3,1276.5 1423.1,1276.5 1406.8,1275.2 1390.3,1272.7 1373.8,1268.9 1357.1,1263.9 1340.5,1257.8 1323.8,1250.5 1307.2,1242.1 1290.6,1232.7 1274.1,1222.2 1257.8,1210.9 1241.6,1198.7 1225.6,1185.7 1209.9,1172.0 1194.5,1157.6 1179.3,1142.8 1164.5,1127.5 1150.1,1111.9  A 522.500,522.500 0.00 0,1 1188.8,1080.3 L 1188.8,1080.3 1201.4,1096.9 1214.4,1113.3 1227.7,1129.2 1241.2,1144.6 1255.0,1159.4 1269.0,1173.6 1283.2,1186.9 1297.5,1199.3 1311.9,1210.7 1326.3,1221.2 1340.8,1230.5 1355.3,1238.7 1369.7,1245.7 1384.1,1251.5 1398.4,1256.0 1412.6,1259.2 1426.6,1261.0 1440.5,1261.5 1454.2,1260.7 1467.7,1258.5 1481.0,1255.0 1494.0,1250.1 1506.7,1243.9 1519.2,1236.4 1531.3,1227.6 1543.1,1217.6 1554.6,1206.3 1565.8,1194.0 1576.5,1180.5 1587.0,1166.1 1597.0,1150.6 1606.6,1134.3 1615.8,1117.2 1624.6,1099.4 1633.0,1081.0 1641.0,1062.1 1648.6,1042.8 1655.7,1023.1 1662.4,1003.4  Z" style="stroke-width: 0.5;  stroke: rgb(0,0,0); fill: rgb(179,177,178);" />
<path d="M 1997.232,1339.480 A 522.500,522.500 0.00 0,1 2009.0,1381.8 L 2009.0,1381.8 1983.0,1387.8 1957.0,1393.8 1931.0,1399.8 1905.0,1405.7 1878.9,1411.6 1852.9,1417.5 1826.7,1423.4 1800.6,1429.2 1774.5,1435.0 1748.3,1440.7 1722.1,1446.4 1695.8,1452.1 1669.6,1457.8 1643.3,1463.4 1617.1,1469.0 1590.8,1474.5 1564.5,1480.0 1538.2,1485.4 1511.8,1490.9 1485.5,1496.2 1459.2,1501.6 1432.8,1506.9 1406.5,1512.1 1380.1,1517.3 1353.8,1522.5 1327.4,1527.6 1301.1,1532.7 1274.7,1537.8 1248.4,1542.8 1222.0,1547.8 1195.7,1552.7 1169.4,1557.6 1143.0,1562.4 1116.7,1567.2 1090.4,1572.0 1064.2,1576.8 1037.9,1581.5 1011.7,1586.1 985.4,1590.8  A 522.500,522.500 0.00 0,1 979.6,1547.1 L 979.6,1547.1 1005.6,1544.7 1031.7,1542.2 1057.8,1539.5 1084.1,1536.7 1110.4,1533.7 1136.7,1530.6 1163.1,1527.4 1189.5,1524.0 1216.0,1520.4 1242.5,1516.7 1269.0,1512.8 1295.5,1508.8 1322.1,1504.6 1348.6,1500.2 1375.2,1495.6 1401.7,1490.9 1428.3,1486.0 1454.8,1480.9 1481.3,1475.7 1507.7,1470.3 1534.1,1464.7 1560.5,1459.0 1586.8,1453.1 1613.1,1447.1 1639.3,1440.9 1665.5,1434.5 1691.5,1428.0 1717.5,1421.3 1743.5,1414.5 1769.3,1407.5 1795.1,1400.4 1820.7,1393.2 1846.3,1385.8 1871.7,1378.4 1897.1,1370.8 1922.3,1363.1 1947.4,1355.3 1972.4,1347.4 1997.2,1339.5  Z" style="stroke-width: 0.5;  stroke: rgb(0,0,0); fill: rgb(179,177,178);" />
<path d="M 2019.946,1551.599 A 522.500,522.500 0.00 0,1 2014.7,1590.0 L 2014.7,1590.0 1990.3,1585.9 1965.7,1582.1 1940.8,1578.6 1915.7,1575.5 1890.4,1572.7 1864.9,1570.3 1839.3,1568.3 1813.5,1566.7 1787.6,1565.6 1761.6,1564.9 1735.5,1564.6 1709.4,1564.8 1683.2,1565.5 1657.0,1566.7 1630.7,1568.3 1604.5,1570.5 1578.3,1573.1 1552.1,1576.2 1526.0,1579.9 1500.0,1584.0 1474.0,1588.6 1448.2,1593.7 1422.4,1599.3 1396.8,1605.4 1371.3,1612.0 1346.1,1619.0 1320.9,1626.4 1296.0,1634.3 1271.3,1642.6 1246.8,1651.3 1222.5,1660.5 1198.5,1669.9 1174.8,1679.8 1151.3,1689.9 1128.1,1700.4 1105.2,1711.1 1082.6,1722.2 1060.3,1733.4 1038.4,1744.8  A 522.500,522.500 0.00 0,1 1021.3,1709.3 L 1021.3,1709.3 1044.4,1699.4 1067.8,1689.6 1091.5,1679.9 1115.4,1670.5 1139.5,1661.4 1163.9,1652.5 1188.5,1643.8 1213.3,1635.5 1238.4,1627.4 1263.5,1619.6 1288.9,1612.2 1314.5,1605.1 1340.1,1598.3 1366.0,1591.9 1391.9,1585.9 1418.0,1580.2 1444.2,1574.8 1470.4,1569.9 1496.8,1565.4 1523.2,1561.2 1549.7,1557.4 1576.2,1554.0 1602.7,1551.0 1629.3,1548.4 1655.8,1546.1 1682.4,1544.3 1708.9,1542.8 1735.4,1541.7 1761.8,1540.9 1788.2,1540.6 1814.4,1540.5 1840.6,1540.8 1866.7,1541.5 1892.6,1542.4 1918.4,1543.7 1944.1,1545.3 1969.6,1547.1 1994.9,1549.2 2019.9,1551.6  Z" style="stroke-width: 0.5;  stroke: rgb(0,0,0); fill: rgb(179,177,178);" />
<path d="M 1896.189,1840.647 A 522.500,522.500 0.00 0,1 1875.6,1863.2 L 1875.6,1863.2 1860.4,1848.9 1844.9,1834.8 1829.2,1821.3 1813.3,1808.3 1797.2,1795.9 1781.1,1784.3 1764.9,1773.4 1748.7,1763.5 1732.6,1754.5 1716.5,1746.6 1700.6,1739.7 1684.9,1734.0 1669.4,1729.4 1654.2,1726.1 1639.2,1723.9 1624.6,1723.1 1610.3,1723.5 1596.4,1725.3 1582.9,1728.3 1569.8,1732.6 1557.1,1738.3 1544.9,1745.2 1533.2,1753.4 1521.9,1762.8 1511.2,1773.4 1501.0,1785.2 1491.2,1798.1 1482.1,1812.1 1473.4,1827.1 1465.3,1843.0 1457.7,1859.8 1450.7,1877.5 1444.1,1895.8 1438.1,1914.8 1432.6,1934.3 1427.6,1954.3 1423.1,1974.5 1419.0,1995.0 1415.4,2015.6  A 522.500,522.500 0.00 0,1 1385.5,2009.8 L 1385.5,2009.8 1390.3,1989.3 1395.7,1968.8 1401.5,1948.6 1407.9,1928.7 1414.7,1909.2 1422.1,1890.3 1430.1,1871.9 1438.5,1854.3 1447.6,1837.4 1457.1,1821.4 1467.2,1806.3 1477.8,1792.2 1489.0,1779.1 1500.7,1767.1 1512.8,1756.2 1525.5,1746.5 1538.7,1738.0 1552.3,1730.7 1566.4,1724.7 1580.9,1719.9 1595.8,1716.3 1611.0,1714.0 1626.7,1713.0 1642.7,1713.2 1658.9,1714.7 1675.4,1717.4 1692.2,1721.2 1709.2,1726.2 1726.3,1732.3 1743.5,1739.4 1760.8,1747.6 1778.1,1756.7 1795.4,1766.6 1812.7,1777.4 1829.8,1789.0 1846.8,1801.1 1863.6,1813.9 1880.0,1827.1 1896.2,1840.6  Z" style="stroke-width: 0.5;  stroke: rgb(0,0,0); fill: rgb(179,177,178);" />
<path d="M 1550.047,979.902 A 522.500,522.500 0.00 0,1 1578.6,983.5 L 1578.6,983.5 1575.4,1003.6 1571.9,1023.6 1568.0,1043.4 1563.8,1062.7 1559.3,1081.6 1554.5,1099.8 1549.3,1117.2 1543.7,1133.8 1537.9,1149.5 1531.7,1164.1 1525.2,1177.7 1518.3,1190.1 1511.2,1201.2 1503.7,1211.1 1495.9,1219.7 1487.8,1226.9 1479.5,1232.7 1470.9,1237.1 1462.0,1240.1 1452.8,1241.6 1443.5,1241.6 1433.9,1240.2 1424.1,1237.4 1414.1,1233.1 1404.0,1227.5 1393.8,1220.5 1383.4,1212.3 1373.0,1202.7 1362.5,1191.9 1351.9,1180.0 1341.3,1167.1 1330.8,1153.1 1320.3,1138.3 1309.9,1122.6 1299.6,1106.2 1289.4,1089.2 1279.4,1071.7 1269.6,1053.9 1260.1,1035.8  A 522.500,522.500 0.00 0,1 1286.2,1023.3 L 1286.2,1023.3 1294.6,1041.7 1303.2,1060.0 1312.0,1077.9 1321.0,1095.4 1330.1,1112.2 1339.2,1128.3 1348.4,1143.7 1357.6,1158.1 1366.8,1171.5 1375.9,1183.8 1385.0,1195.0 1394.0,1205.0 1402.9,1213.7 1411.7,1221.0 1420.3,1227.0 1428.7,1231.6 1437.0,1234.8 1445.0,1236.5 1452.8,1236.7 1460.4,1235.4 1467.8,1232.7 1474.8,1228.5 1481.6,1222.9 1488.2,1215.9 1494.4,1207.4 1500.3,1197.7 1506.0,1186.6 1511.3,1174.3 1516.4,1160.7 1521.1,1146.1 1525.5,1130.5 1529.6,1113.9 1533.4,1096.4 1536.9,1078.2 1540.1,1059.4 1543.0,1040.0 1545.6,1020.2 1548.0,1000.1 1550.0,979.9  Z" style="stroke-width: 0.5;  stroke: rgb(0,0,0); fill: rgb(179,177,178);" />
<path d="M 1964.750,1261.225 A 522.500,522.500 0.00 0,1 1976.3,1285.1 L 1976.3,1285.1 1953.1,1295.4 1929.8,1305.5 1906.1,1315.5 1882.3,1325.3 1858.2,1334.8 1833.9,1344.1 1809.3,1353.2 1784.6,1362.1 1759.7,1370.6 1734.6,1378.9 1709.3,1386.9 1683.9,1394.5 1658.3,1401.9 1632.5,1408.9 1606.7,1415.6 1580.7,1422.0 1554.6,1428.0 1528.4,1433.7 1502.2,1439.0 1475.8,1444.0 1449.4,1448.6 1422.9,1452.8 1396.5,1456.7 1369.9,1460.2 1343.4,1463.4 1316.9,1466.2 1290.4,1468.6 1263.9,1470.7 1237.4,1472.5 1211.0,1473.9 1184.7,1475.0 1158.5,1475.8 1132.3,1476.2 1106.3,1476.4 1080.3,1476.3 1054.6,1475.8 1028.9,1475.2 1003.5,1474.2 978.2,1473.0  A 522.500,522.500 0.00 0,1 980.3,1446.4 L 980.3,1446.4 1005.1,1448.8 1030.2,1451.0 1055.5,1452.8 1081.0,1454.3 1106.6,1455.5 1132.4,1456.4 1158.3,1456.9 1184.4,1457.0 1210.5,1456.7 1236.7,1456.1 1263.0,1455.0 1289.3,1453.6 1315.6,1451.7 1342.0,1449.3 1368.4,1446.6 1394.7,1443.4 1421.1,1439.8 1447.3,1435.8 1473.5,1431.3 1499.7,1426.4 1525.7,1421.0 1551.7,1415.2 1577.5,1409.0 1603.2,1402.4 1628.8,1395.4 1654.2,1388.0 1679.4,1380.2 1704.5,1372.0 1729.3,1363.4 1754.0,1354.5 1778.4,1345.3 1802.7,1335.7 1826.6,1325.8 1850.3,1315.7 1873.8,1305.2 1897.0,1294.5 1919.9,1283.6 1942.5,1272.5 1964.8,1261.2  Z" style="stroke-width: 0.5;  stroke: rgb(0,0,0); fill: rgb(179,177,178);" />
<path d="M 1991.017,1678.631 A 522.500,522.500 0.00 0,1 1981.6,1702.6 L 1981.6,1702.6 1960.1,1693.7 1938.1,1685.3 1915.8,1677.3 1893.2,1669.8 1870.3,1662.9 1847.2,1656.5 1823.8,1650.7 1800.2,1645.5 1776.5,1641.0 1752.6,1637.2 1728.7,1634.2 1704.6,1631.9 1680.5,1630.3 1656.4,1629.6 1632.3,1629.6 1608.2,1630.5 1584.2,1632.2 1560.3,1634.7 1536.4,1638.0 1512.8,1642.2 1489.2,1647.1 1465.9,1652.9 1442.7,1659.5 1419.8,1666.9 1397.1,1675.1 1374.7,1684.0 1352.5,1693.7 1330.7,1704.0 1309.2,1715.1 1288.1,1726.8 1267.3,1739.1 1246.9,1752.0 1226.9,1765.4 1207.3,1779.3 1188.2,1793.6 1169.4,1808.4 1151.2,1823.5 1133.4,1838.9 1116.2,1854.5  A 522.500,522.500 0.00 0,1 1099.0,1835.0 L 1099.0,1835.0 1117.3,1820.1 1136.0,1805.3 1155.1,1790.9 1174.7,1776.8 1194.8,1763.1 1215.2,1749.8 1236.0,1737.0 1257.2,1724.7 1278.8,1712.9 1300.7,1701.7 1323.0,1691.1 1345.5,1681.1 1368.4,1671.7 1391.5,1663.1 1414.8,1655.1 1438.4,1647.9 1462.2,1641.4 1486.2,1635.6 1510.4,1630.6 1534.7,1626.4 1559.1,1622.9 1583.6,1620.1 1608.2,1618.1 1632.8,1616.9 1657.5,1616.5 1682.2,1616.7 1706.8,1617.7 1731.4,1619.5 1756.0,1621.9 1780.4,1625.0 1804.7,1628.7 1828.8,1633.1 1852.8,1638.1 1876.5,1643.6 1900.0,1649.7 1923.3,1656.3 1946.2,1663.3 1968.8,1670.8 1991.0,1678.6  Z" style="stroke-width: 0.5;  stroke: rgb(0,0,0); fill: rgb(179,177,178);" />
<path d="M 1977.456,1712.231 A 522.500,522.500 0.00 0,1 1967.9,1732.6 L 1967.9,1732.6 1947.6,1722.8 1927.0,1713.5 1906.0,1704.6 1884.7,1696.3 1863.1,1688.6 1841.4,1681.5 1819.4,1675.2 1797.3,1669.6 1775.1,1664.8 1752.9,1660.8 1730.6,1657.8 1708.3,1655.6 1686.0,1654.3 1663.9,1654.0 1641.8,1654.6 1619.9,1656.2 1598.1,1658.8 1576.5,1662.3 1555.1,1666.9 1534.0,1672.5 1513.2,1679.0 1492.6,1686.5 1472.4,1694.9 1452.5,1704.3 1433.0,1714.6 1413.8,1725.8 1395.1,1737.8 1376.7,1750.7 1358.8,1764.4 1341.4,1778.7 1324.4,1793.8 1307.9,1809.5 1291.9,1825.9 1276.4,1842.7 1261.4,1860.0 1247.0,1877.7 1233.1,1895.7 1219.7,1914.0 1206.8,1932.5  A 522.500,522.500 0.00 0,1 1188.8,1919.8 L 1188.8,1919.8 1202.6,1901.7 1216.9,1883.7 1231.7,1866.1 1247.0,1848.8 1262.9,1831.8 1279.2,1815.3 1296.1,1799.3 1313.4,1783.9 1331.2,1769.1 1349.5,1755.0 1368.1,1741.5 1387.3,1728.8 1406.8,1716.9 1426.7,1705.8 1447.0,1695.6 1467.6,1686.2 1488.6,1677.7 1509.8,1670.1 1531.4,1663.5 1553.2,1657.7 1575.2,1652.9 1597.4,1649.1 1619.9,1646.1 1642.4,1644.2 1665.1,1643.1 1687.9,1643.0 1710.8,1643.7 1733.7,1645.3 1756.5,1647.8 1779.4,1651.2 1802.2,1655.3 1824.9,1660.2 1847.4,1665.8 1869.7,1672.1 1891.9,1679.1 1913.8,1686.6 1935.4,1694.7 1956.6,1703.2 1977.5,1712.2  Z" style="stroke-width: 0.5;  stroke: rgb(0,0,0); fill: rgb(179,177,178);" />
<path d="M 2021.851,1526.032 A 522.500,522.500 0.00 0,1 2020.6,1544.6 L 2020.6,1544.6 1995.4,1542.6 1970.1,1540.8 1944.5,1539.3 1918.8,1538.0 1893.0,1537.0 1867.0,1536.4 1840.8,1536.0 1814.6,1536.0 1788.3,1536.3 1761.9,1536.9 1735.5,1537.9 1709.0,1539.2 1682.4,1540.9 1655.9,1543.0 1629.3,1545.4 1602.7,1548.2 1576.2,1551.4 1549.6,1555.0 1523.2,1558.9 1496.7,1563.2 1470.4,1567.9 1444.1,1572.9 1417.9,1578.4 1391.8,1584.1 1365.8,1590.3 1340.0,1596.7 1314.3,1603.5 1288.7,1610.7 1263.3,1618.1 1238.1,1625.9 1213.1,1634.0 1188.2,1642.3 1163.6,1651.0 1139.1,1659.8 1114.9,1669.0 1090.9,1678.3 1067.2,1687.9 1043.7,1697.6 1020.5,1707.5  A 522.500,522.500 0.00 0,1 1013.4,1690.2 L 1013.4,1690.2 1037.1,1681.0 1061.1,1672.0 1085.3,1663.2 1109.7,1654.5 1134.4,1646.0 1159.2,1637.8 1184.2,1629.7 1209.4,1621.9 1234.7,1614.4 1260.2,1607.1 1285.9,1600.0 1311.7,1593.3 1337.6,1586.8 1363.6,1580.6 1389.8,1574.7 1416.0,1569.2 1442.3,1563.9 1468.7,1558.9 1495.2,1554.3 1521.8,1550.0 1548.3,1546.0 1575.0,1542.3 1601.6,1538.9 1628.3,1535.9 1654.9,1533.2 1681.6,1530.8 1708.2,1528.7 1734.8,1526.9 1761.4,1525.5 1787.9,1524.3 1814.3,1523.4 1840.6,1522.8 1866.9,1522.5 1893.1,1522.5 1919.1,1522.7 1945.0,1523.2 1970.8,1523.9 1996.4,1524.9 2021.9,1526.0  Z" style="stroke-width: 0.5;  stroke: rgb(0,0,0); fill: rgb(179,177,178);" />
<path d="M 1807.166,1077.324 A 522.500,522.500 0.00 0,1 1819.4,1086.5 L 1819.4,1086.5 1805.5,1104.0 1791.0,1121.4 1776.1,1138.4 1760.6,1155.1 1744.7,1171.3 1728.2,1187.0 1711.3,1202.2 1694.0,1216.7 1676.2,1230.5 1658.0,1243.6 1639.5,1255.9 1620.5,1267.3 1601.2,1277.9 1581.5,1287.6 1561.6,1296.3 1541.3,1304.1 1520.8,1310.9 1500.0,1316.7 1479.1,1321.5 1457.9,1325.3 1436.5,1328.1 1415.0,1329.8 1393.4,1330.5 1371.7,1330.2 1350.0,1328.9 1328.2,1326.6 1306.4,1323.4 1284.7,1319.2 1263.0,1314.1 1241.4,1308.2 1219.9,1301.3 1198.6,1293.7 1177.6,1285.4 1156.7,1276.3 1136.1,1266.6 1115.8,1256.3 1095.9,1245.5 1076.4,1234.2 1057.2,1222.6  A 522.500,522.500 0.00 0,1 1065.5,1209.8 L 1065.5,1209.8 1084.2,1221.9 1103.2,1233.7 1122.7,1245.0 1142.5,1255.7 1162.6,1265.9 1183.0,1275.4 1203.6,1284.2 1224.5,1292.2 1245.5,1299.4 1266.6,1305.8 1287.8,1311.2 1309.1,1315.8 1330.4,1319.3 1351.7,1321.9 1372.9,1323.4 1394.1,1323.9 1415.2,1323.4 1436.2,1321.8 1457.0,1319.2 1477.7,1315.5 1498.2,1310.8 1518.4,1305.0 1538.4,1298.2 1558.1,1290.3 1577.5,1281.5 1596.6,1271.8 1615.4,1261.0 1633.8,1249.4 1651.8,1237.0 1669.4,1223.7 1686.6,1209.7 1703.3,1195.0 1719.6,1179.6 1735.5,1163.6 1750.8,1147.1 1765.7,1130.1 1780.0,1112.8 1793.9,1095.2 1807.2,1077.3  Z" style="stroke-width: 0.5;  stroke: rgb(0,0,0); fill: rgb(179,177,178);" />
<path d="M 1645.962,998.302 A 522.500,522.500 0.00 0,1 1658.8,1002.2 L 1658.8,1002.2 1652.2,1022.0 1645.3,1041.7 1637.9,1061.0 1630.0,1080.0 1621.8,1098.5 1613.1,1116.3 1604.0,1133.5 1594.6,1149.8 1584.7,1165.3 1574.4,1179.8 1563.8,1193.3 1552.8,1205.7 1541.4,1217.0 1529.7,1227.0 1517.7,1235.8 1505.4,1243.4 1492.8,1249.7 1479.9,1254.6 1466.7,1258.2 1453.3,1260.4 1439.7,1261.2 1425.9,1260.8 1412.0,1258.9 1397.8,1255.8 1383.6,1251.3 1369.3,1245.5 1354.9,1238.6 1340.5,1230.4 1326.1,1221.1 1311.7,1210.6 1297.3,1199.2 1283.1,1186.8 1268.9,1173.5 1255.0,1159.4 1241.2,1144.6 1227.6,1129.2 1214.4,1113.2 1201.4,1096.9 1188.8,1080.3  A 522.500,522.500 0.00 0,1 1199.7,1072.4 L 1199.7,1072.4 1211.8,1089.3 1224.3,1105.9 1237.0,1122.1 1250.0,1137.8 1263.3,1152.9 1276.7,1167.3 1290.3,1180.8 1303.9,1193.5 1317.7,1205.2 1331.5,1215.9 1345.3,1225.5 1359.2,1233.9 1372.9,1241.1 1386.6,1247.0 1400.2,1251.7 1413.7,1255.0 1427.0,1257.0 1440.1,1257.6 1453.1,1256.9 1465.8,1254.8 1478.3,1251.3 1490.5,1246.5 1502.5,1240.3 1514.2,1232.8 1525.5,1223.9 1536.6,1213.9 1547.3,1202.6 1557.6,1190.2 1567.6,1176.7 1577.2,1162.1 1586.5,1146.6 1595.3,1130.2 1603.8,1112.9 1611.8,1095.0 1619.5,1076.5 1626.7,1057.4 1633.5,1037.9 1640.0,1018.2 1646.0,998.3  Z" style="stroke-width: 0.5;  stroke: rgb(0,0,0); fill: rgb(179,177,178);" />
<path d="M 1724.092,1027.995 A 522.500,522.500 0.00 0,1 1734.9,1033.3 L 1734.9,1033.3 1725.1,1052.3 1714.7,1071.2 1703.8,1089.7 1692.5,1107.9 1680.7,1125.5 1668.4,1142.6 1655.7,1159.0 1642.5,1174.7 1628.9,1189.5 1614.9,1203.5 1600.5,1216.5 1585.8,1228.6 1570.6,1239.6 1555.2,1249.5 1539.4,1258.2 1523.3,1265.9 1506.9,1272.3 1490.3,1277.5 1473.4,1281.5 1456.3,1284.3 1439.0,1285.8 1421.6,1286.1 1404.0,1285.2 1386.3,1283.0 1368.6,1279.7 1350.8,1275.2 1333.0,1269.5 1315.1,1262.8 1297.4,1254.9 1279.7,1246.1 1262.1,1236.3 1244.7,1225.6 1227.4,1214.0 1210.4,1201.7 1193.6,1188.6 1177.1,1175.0 1160.9,1160.8 1145.2,1146.2 1129.8,1131.3  A 522.500,522.500 0.00 0,1 1138.4,1122.8 L 1138.4,1122.8 1153.4,1138.1 1168.7,1153.0 1184.4,1167.4 1200.5,1181.4 1216.8,1194.7 1233.4,1207.3 1250.2,1219.2 1267.2,1230.2 1284.3,1240.2 1301.5,1249.3 1318.8,1257.4 1336.1,1264.4 1353.5,1270.3 1370.8,1275.0 1388.0,1278.5 1405.2,1280.8 1422.3,1281.9 1439.2,1281.7 1455.9,1280.3 1472.5,1277.6 1488.8,1273.7 1504.9,1268.5 1520.8,1262.1 1536.4,1254.5 1551.6,1245.7 1566.6,1235.8 1581.1,1224.7 1595.4,1212.6 1609.2,1199.5 1622.7,1185.4 1635.8,1170.5 1648.4,1154.7 1660.6,1138.1 1672.4,1120.9 1683.7,1103.1 1694.5,1084.8 1704.8,1066.1 1714.7,1047.2 1724.1,1028.0  Z" style="stroke-width: 0.5;  stroke: rgb(0,0,0); fill: rgb(179,177,178);" />
<path d="M 1966.265,1735.803 A 522.500,522.500 0.00 0,1 1961.7,1744.7 L 1961.7,1744.7 1941.8,1734.5 1921.6,1724.7 1901.0,1715.3 1880.1,1706.6 1858.9,1698.4 1837.5,1691.0 1816.0,1684.2 1794.3,1678.3 1772.5,1673.1 1750.7,1668.8 1728.9,1665.4 1707.0,1662.9 1685.2,1661.4 1663.5,1660.8 1641.9,1661.2 1620.5,1662.7 1599.2,1665.1 1578.2,1668.6 1557.3,1673.1 1536.8,1678.6 1516.5,1685.1 1496.5,1692.6 1476.9,1701.1 1457.6,1710.6 1438.6,1721.0 1420.1,1732.3 1402.0,1744.5 1384.3,1757.6 1367.1,1771.5 1350.3,1786.1 1334.0,1801.4 1318.2,1817.4 1302.9,1834.0 1288.2,1851.2 1273.9,1868.8 1260.2,1886.8 1247.0,1905.2 1234.3,1923.8 1222.2,1942.6  A 522.500,522.500 0.00 0,1 1213.7,1937.1 L 1213.7,1937.1 1226.3,1918.5 1239.3,1900.0 1252.9,1881.8 1267.1,1864.0 1281.7,1846.5 1296.9,1829.5 1312.6,1813.0 1328.8,1797.2 1345.5,1781.9 1362.6,1767.4 1380.2,1753.6 1398.3,1740.7 1416.8,1728.5 1435.7,1717.2 1454.9,1706.8 1474.6,1697.3 1494.6,1688.8 1514.9,1681.2 1535.5,1674.7 1556.4,1669.1 1577.6,1664.5 1599.0,1660.9 1620.5,1658.3 1642.3,1656.7 1664.2,1656.1 1686.2,1656.4 1708.3,1657.7 1730.4,1660.0 1752.5,1663.1 1774.7,1667.1 1796.7,1672.0 1818.7,1677.7 1840.5,1684.1 1862.1,1691.2 1883.6,1699.1 1904.7,1707.5 1925.6,1716.4 1946.1,1725.9 1966.3,1735.8  Z" style="stroke-width: 0.5;  stroke: rgb(0,0,0); fill: rgb(179,177,178);" />
<path d="M 1839.320,1102.673 A 522.500,522.500 0.00 0,1 1846.0,1108.5 L 1846.0,1108.5 1830.7,1125.4 1814.9,1142.1 1798.6,1158.4 1781.8,1174.5 1764.5,1190.1 1746.7,1205.2 1728.5,1219.8 1709.9,1233.7 1690.8,1247.1 1671.4,1259.8 1651.5,1271.7 1631.3,1282.9 1610.7,1293.2 1589.9,1302.8 1568.7,1311.5 1547.2,1319.3 1525.5,1326.2 1503.5,1332.2 1481.4,1337.3 1459.0,1341.5 1436.5,1344.7 1413.9,1346.9 1391.1,1348.3 1368.3,1348.7 1345.4,1348.2 1322.5,1346.7 1299.6,1344.4 1276.7,1341.2 1253.9,1337.2 1231.1,1332.4 1208.6,1326.8 1186.1,1320.4 1163.9,1313.3 1141.9,1305.6 1120.2,1297.2 1098.7,1288.3 1077.6,1278.9 1056.9,1269.0 1036.6,1258.7  A 522.500,522.500 0.00 0,1 1040.7,1250.8 L 1040.7,1250.8 1060.8,1261.4 1081.3,1271.6 1102.1,1281.4 1123.3,1290.6 1144.8,1299.2 1166.6,1307.3 1188.6,1314.6 1210.7,1321.2 1233.1,1327.1 1255.6,1332.2 1278.1,1336.4 1300.8,1339.8 1323.4,1342.3 1346.1,1343.9 1368.7,1344.5 1391.3,1344.2 1413.8,1343.0 1436.2,1340.8 1458.5,1337.7 1480.5,1333.6 1502.4,1328.5 1524.1,1322.6 1545.6,1315.6 1566.8,1307.8 1587.6,1299.0 1608.2,1289.4 1628.5,1279.0 1648.4,1267.7 1668.0,1255.6 1687.1,1242.8 1705.9,1229.4 1724.2,1215.2 1742.1,1200.5 1759.5,1185.2 1776.5,1169.4 1793.0,1153.2 1808.9,1136.6 1824.4,1119.8 1839.3,1102.7  Z" style="stroke-width: 0.5;  stroke: rgb(0,0,0); fill: rgb(179,177,178);" />
</g>
<g id="plot0">
<g id="plot0-axis">
</g>
<line x1='2243.5' y1='1598.7' x2='2243.5' y2='1598.7' style="stroke-width:14.0;stroke:rgb(0,0,0);stroke-linecap:round;fill:none;" />
<line x1='2243.5' y1='1598.7' x2='2283.1' y2='1603.9' style="stroke-width:14.0;stroke:rgb(0,0,0);stroke-linecap:round;fill:none;" />
<line x1='2283.1' y1='1603.9' x2='2283.1' y2='1603.9' style="stroke-width:14.0;stroke:rgb(0,0,0);stroke-linecap:round;fill:none;" />
<text x="2299.8" y="1628.3" font-size="46.8px" font-family="CMUBright-Roman" style="text-anchor:start;fill:rgb(255,38,78);" transform="rotate(7.6,2299.8,1628.3)" >Histocap1517p17<tspan baseline-shift="-40%" font-size="90%">s</tspan>02233</text>
</g>
<defs>
<pattern id="checker" width="10" height="10" patternTransform="rotate(45 0 0)" patternUnits="userSpaceOnUse"><line x1="0" y1="0" x2="10" y2="0" style="stroke:black;stroke-width:2" /><line x1="0" y1="0" x2="0" y2="10" style="stroke:black;stroke-width:2" /></pattern>
<pattern id="vline-sparse" width="10" height="10" patternTransform="rotate(0 0 0)" patternUnits="userSpaceOnUse"><line x1="0" y1="0" x2="0" y2="10" style="stroke:black;stroke-width:2" /></pattern>
<pattern id="hline-sparse" width="10" height="10" patternTransform="rotate(0 0 0)" patternUnits="userSpaceOnUse"><line x1="0" y1="0" x2="10" y2="0" style="stroke:black;stroke-width:2" /></pattern>
<pattern id="vline" width="10" height="10" patternTransform="rotate(0 0 0)" patternUnits="userSpaceOnUse"><line x1="0" y1="0" x2="0" y2="10" style="stroke:black;stroke-width:5" /></pattern>
<pattern id="hline" width="10" height="10" patternTransform="rotate(0 0 0)" patternUnits="userSpaceOnUse"><line x1="0" y1="0" x2="10" y2="0" style="stroke:black;stroke-width:5" /></pattern>
<pattern id="checker" width="10" height="10" patternTransform="rotate(45 0 0)" patternUnits="userSpaceOnUse"><line x1="0" y1="0" x2="10" y2="0" style="stroke:black;stroke-width:5" /><line x1="0" y1="0" x2="0" y2="10" style="stroke:black;stroke-width:4" /></pattern>
</defs>
</svg>
