<?xml version="1.0" encoding="utf-8" standalone="no"?>
<!DOCTYPE svg PUBLIC "-//W3C//DTD SVG 1.1//EN" "http://www.w3.org/Graphics/SVG/1.1/DTD/svg11.dtd">
<svg width="3000px" height="3000px" version="1.1" xmlns="http://www.w3.org/2000/svg" xmlns:xlink="http://www.w3.org/1999/xlink">
<g id="bg">
<rect x="0" y="0" width="3000px" height="3000px" style="fill:rgb(255,255,255);"/>
</g>
<g id="ideograms">
<path d="M1500.000,950.000 A550.000,550.000 40.000 0,1 1708.967,2008.756 L1784.955,2193.758 A750.000,750.000 0.000 0,0 1500.000,750.000 Z" style="stroke-width:2.0;stroke:rgb(0,0,0);stroke-linecap:round;fill:rgb(179,177,178);" />
<text x="2456.5" y="1311.2" font-size="46.8px" font-family="CMUBright-Roman" style="text-anchor:middle;fill:rgb(0,0,0);" transform="rotate(438.8,2456.5,1311.2)" >HistocapCB065<tspan baseline-shift="-40%" font-size="90%">3</tspan></text>
<line x1='1534.8' y1='750.8' x2='1535.3' y2='738.8' style="stroke-width:8.0;stroke:rgb(150,150,150);stroke-linecap:round;fill:none;" />
<line x1='1635.7' y1='762.4' x2='1637.9' y2='750.6' style="stroke-width:8.0;stroke:rgb(150,150,150);stroke-linecap:round;fill:none;" />
<line x1='1734.2' y1='787.5' x2='1737.9' y2='776.1' style="stroke-width:8.0;stroke:rgb(150,150,150);stroke-linecap:round;fill:none;" />
<text x="1754.9" y="769.2" font-size="41.6px" font-family="CMUBright-Roman" style="text-anchor:start;fill:rgb(150,150,150);" transform="rotate(288.2,1754.9,769.2)" >1650 kb</text>
<line x1='1828.3' y1='825.7' x2='1833.6' y2='814.9' style="stroke-width:8.0;stroke:rgb(150,150,150);stroke-linecap:round;fill:none;" />
<line x1='1916.5' y1='876.3' x2='1923.1' y2='866.3' style="stroke-width:8.0;stroke:rgb(150,150,150);stroke-linecap:round;fill:none;" />
<line x1='1996.9' y1='938.3' x2='2004.9' y2='929.3' style="stroke-width:8.0;stroke:rgb(150,150,150);stroke-linecap:round;fill:none;" />
<line x1='2068.3' y1='1010.6' x2='2077.4' y2='1002.8' style="stroke-width:8.0;stroke:rgb(150,150,150);stroke-linecap:round;fill:none;" />
<line x1='2129.2' y1='1091.9' x2='2139.3' y2='1085.4' style="stroke-width:8.0;stroke:rgb(150,150,150);stroke-linecap:round;fill:none;" />
<text x="2156.9" y="1090.7" font-size="41.6px" font-family="CMUBright-Roman" style="text-anchor:start;fill:rgb(150,150,150);" transform="rotate(327.0,2156.9,1090.7)" >1700 kb</text>
<line x1='2178.6' y1='1180.7' x2='2189.5' y2='1175.6' style="stroke-width:8.0;stroke:rgb(150,150,150);stroke-linecap:round;fill:none;" />
<line x1='2215.6' y1='1275.4' x2='2227.0' y2='1271.8' style="stroke-width:8.0;stroke:rgb(150,150,150);stroke-linecap:round;fill:none;" />
<line x1='2239.4' y1='1374.1' x2='2251.2' y2='1372.1' style="stroke-width:8.0;stroke:rgb(150,150,150);stroke-linecap:round;fill:none;" />
<line x1='2249.6' y1='1475.2' x2='2261.6' y2='1474.8' style="stroke-width:8.0;stroke:rgb(150,150,150);stroke-linecap:round;fill:none;" />
<line x1='2246.1' y1='1576.8' x2='2258.0' y2='1578.0' style="stroke-width:8.0;stroke:rgb(150,150,150);stroke-linecap:round;fill:none;" />
<text x="2268.4" y="1593.1" font-size="41.6px" font-family="CMUBright-Roman" style="text-anchor:start;fill:rgb(150,150,150);" transform="rotate(5.9,2268.4,1593.1)" >1750 kb</text>
<line x1='2228.8' y1='1676.9' x2='2240.5' y2='1679.7' style="stroke-width:8.0;stroke:rgb(150,150,150);stroke-linecap:round;fill:none;" />
<line x1='2198.2' y1='1773.8' x2='2209.4' y2='1778.2' style="stroke-width:8.0;stroke:rgb(150,150,150);stroke-linecap:round;fill:none;" />
<line x1='2154.8' y1='1865.7' x2='2165.3' y2='1871.5' style="stroke-width:8.0;stroke:rgb(150,150,150);stroke-linecap:round;fill:none;" />
<line x1='2099.4' y1='1950.8' x2='2109.0' y2='1958.0' style="stroke-width:8.0;stroke:rgb(150,150,150);stroke-linecap:round;fill:none;" />
<line x1='2033.0' y1='2027.7' x2='2041.5' y2='2036.1' style="stroke-width:8.0;stroke:rgb(150,150,150);stroke-linecap:round;fill:none;" />
<text x="2040.1" y="2054.4" font-size="41.6px" font-family="CMUBright-Roman" style="text-anchor:start;fill:rgb(150,150,150);" transform="rotate(44.7,2040.1,2054.4)" >1800 kb</text>
<line x1='1956.8' y1='2094.9' x2='1964.1' y2='2104.4' style="stroke-width:8.0;stroke:rgb(150,150,150);stroke-linecap:round;fill:none;" />
<line x1='1872.2' y1='2151.2' x2='1878.1' y2='2161.6' style="stroke-width:8.0;stroke:rgb(150,150,150);stroke-linecap:round;fill:none;" />
<g id="highlighttrack_0">
<path d="M2037.335,1382.648 A550.000,550.000 40.000 0,1 2041.627,1404.396 L2238.582,1369.631 A750.000,750.000 0.000 0,0 2232.729,1339.975 Z" style="stroke-width:14.0;stroke:rgb(0,0,0);stroke-linecap:round;fill:rgb(255,38,78);" />
</g>
<path d="M1500.000,950.000 A550.000,550.000 40.000 0,1 1708.967,2008.756 L1784.955,2193.758 A750.000,750.000 0.000 0,0 1500.000,750.000 Z" style="stroke-width:2.0;stroke:rgb(0,0,0);stroke-linecap:round;fill:none;" />
<path d="M1490.650,2049.921 A550.000,550.000 40.000 0,1 1282.414,994.870 L1203.292,811.186 A750.000,750.000 0.000 0,0 1487.250,2249.892 Z" style="stroke-width:2.0;stroke:rgb(0,0,0);stroke-linecap:round;fill:rgb(179,177,178);" />
<text x="500.3" y="1697.3" font-size="46.8px" font-family="CMUBright-Roman" style="text-anchor:middle;fill:rgb(0,0,0);" transform="rotate(78.8,500.3,1697.3)" >Histocap0712-RJ<tspan baseline-shift="-40%" font-size="90%">3</tspan></text>
<line x1='1199.2' y1='812.9' x2='1194.4' y2='802.0' style="stroke-width:8.0;stroke:rgb(150,150,150);stroke-linecap:round;fill:none;" />
<line x1='1109.1' y1='859.9' x2='1102.9' y2='849.7' style="stroke-width:8.0;stroke:rgb(150,150,150);stroke-linecap:round;fill:none;" />
<line x1='1026.2' y1='918.6' x2='1018.6' y2='909.3' style="stroke-width:8.0;stroke:rgb(150,150,150);stroke-linecap:round;fill:none;" />
<text x="1000.3" y="908.9" font-size="41.6px" font-family="CMUBright-Roman" style="text-anchor:end;fill:rgb(150,150,150);" transform="rotate(50.8,1000.3,908.9)" >850 kb</text>
<line x1='952.0' y1='988.0' x2='943.2' y2='979.8' style="stroke-width:8.0;stroke:rgb(150,150,150);stroke-linecap:round;fill:none;" />
<line x1='887.8' y1='1066.8' x2='878.0' y2='1059.8' style="stroke-width:8.0;stroke:rgb(150,150,150);stroke-linecap:round;fill:none;" />
<line x1='834.8' y1='1153.5' x2='824.2' y2='1147.9' style="stroke-width:8.0;stroke:rgb(150,150,150);stroke-linecap:round;fill:none;" />
<line x1='794.1' y1='1246.6' x2='782.8' y2='1242.5' style="stroke-width:8.0;stroke:rgb(150,150,150);stroke-linecap:round;fill:none;" />
<line x1='766.3' y1='1344.3' x2='754.6' y2='1341.8' style="stroke-width:8.0;stroke:rgb(150,150,150);stroke-linecap:round;fill:none;" />
<text x="740.1" y="1353.0" font-size="41.6px" font-family="CMUBright-Roman" style="text-anchor:end;fill:rgb(150,150,150);" transform="rotate(12.0,740.1,1353.0)" >900 kb</text>
<line x1='752.0' y1='1444.9' x2='740.1' y2='1444.0' style="stroke-width:8.0;stroke:rgb(150,150,150);stroke-linecap:round;fill:none;" />
<line x1='751.4' y1='1546.5' x2='739.5' y2='1547.2' style="stroke-width:8.0;stroke:rgb(150,150,150);stroke-linecap:round;fill:none;" />
<line x1='764.6' y1='1647.2' x2='752.8' y2='1649.6' style="stroke-width:8.0;stroke:rgb(150,150,150);stroke-linecap:round;fill:none;" />
<line x1='791.2' y1='1745.3' x2='779.9' y2='1749.2' style="stroke-width:8.0;stroke:rgb(150,150,150);stroke-linecap:round;fill:none;" />
<line x1='830.9' y1='1838.8' x2='820.2' y2='1844.3' style="stroke-width:8.0;stroke:rgb(150,150,150);stroke-linecap:round;fill:none;" />
<text x="815.9" y="1862.1" font-size="41.6px" font-family="CMUBright-Roman" style="text-anchor:end;fill:rgb(150,150,150);" transform="rotate(-26.9,815.9,1862.1)" >950 kb</text>
<line x1='882.8' y1='1926.2' x2='873.0' y2='1933.0' style="stroke-width:8.0;stroke:rgb(150,150,150);stroke-linecap:round;fill:none;" />
<line x1='946.1' y1='2005.7' x2='937.2' y2='2013.8' style="stroke-width:8.0;stroke:rgb(150,150,150);stroke-linecap:round;fill:none;" />
<line x1='1019.5' y1='2075.9' x2='1011.9' y2='2085.1' style="stroke-width:8.0;stroke:rgb(150,150,150);stroke-linecap:round;fill:none;" />
<line x1='1101.8' y1='2135.6' x2='1095.4' y2='2145.7' style="stroke-width:8.0;stroke:rgb(150,150,150);stroke-linecap:round;fill:none;" />
<line x1='1191.3' y1='2183.5' x2='1186.4' y2='2194.5' style="stroke-width:8.0;stroke:rgb(150,150,150);stroke-linecap:round;fill:none;" />
<text x="1194.3" y="2211.1" font-size="41.6px" font-family="CMUBright-Roman" style="text-anchor:end;fill:rgb(150,150,150);" transform="rotate(-65.7,1194.3,2211.1)" >1000 kb</text>
<line x1='1286.6' y1='2219.0' x2='1283.2' y2='2230.5' style="stroke-width:8.0;stroke:rgb(150,150,150);stroke-linecap:round;fill:none;" />
<line x1='1385.7' y1='2241.2' x2='1383.9' y2='2253.1' style="stroke-width:8.0;stroke:rgb(150,150,150);stroke-linecap:round;fill:none;" />
<line x1='1486.9' y1='2249.9' x2='1486.7' y2='2261.9' style="stroke-width:8.0;stroke:rgb(150,150,150);stroke-linecap:round;fill:none;" />
<path d="M1490.650,2049.921 A550.000,550.000 40.000 0,1 1282.414,994.870 L1203.292,811.186 A750.000,750.000 0.000 0,0 1487.250,2249.892 Z" style="stroke-width:2.0;stroke:rgb(0,0,0);stroke-linecap:round;fill:none;" />
</g>
<g id="track_0">
<path d="M 1946.414,1228.484 A 522.500,522.500 0.00 0,1 2003.4,1360.1 L 2003.4,1360.1 1978.0,1367.2 1952.5,1374.1 1926.9,1381.1 1901.3,1387.9 1875.5,1394.7 1849.7,1401.4 1823.9,1408.1 1798.0,1414.7 1772.0,1421.2 1746.0,1427.6 1719.9,1433.9 1693.8,1440.2 1667.6,1446.3 1641.4,1452.4 1615.2,1458.4 1588.9,1464.3 1562.6,1470.1 1536.3,1475.8 1509.9,1481.4 1483.5,1486.8 1457.1,1492.2 1430.7,1497.5 1404.2,1502.7 1377.8,1507.8 1351.3,1512.8 1324.9,1517.7 1298.4,1522.5 1272.0,1527.2 1245.5,1531.8 1219.1,1536.3 1192.7,1540.7 1166.3,1545.0 1140.0,1549.2 1113.7,1553.3 1087.4,1557.4 1061.1,1561.3 1034.9,1565.2 1008.7,1569.0 982.6,1572.7  A 522.500,522.500 0.00 0,1 982.5,1428.1 L 982.5,1428.1 1006.9,1431.3 1031.6,1434.3 1056.5,1436.8 1081.7,1439.0 1107.0,1440.9 1132.5,1442.3 1158.1,1443.3 1183.8,1443.9 1209.7,1444.0 1235.6,1443.7 1261.6,1442.9 1287.7,1441.6 1313.7,1439.8 1339.8,1437.5 1365.9,1434.7 1391.9,1431.5 1417.9,1427.7 1443.8,1423.3 1469.7,1418.5 1495.4,1413.2 1521.1,1407.3 1546.6,1401.0 1572.0,1394.2 1597.2,1386.8 1622.2,1379.0 1647.0,1370.8 1671.7,1362.1 1696.1,1352.9 1720.3,1343.3 1744.2,1333.3 1767.9,1322.9 1791.3,1312.2 1814.4,1301.1 1837.2,1289.6 1859.7,1277.9 1881.9,1265.9 1903.8,1253.6 1925.3,1241.2 1946.4,1228.5  Z" style="stroke-width: 0.5;  stroke: rgb(0,0,0); fill: rgb(179,177,178);" />
<path d="M 1522.768,977.996 A 522.500,522.500 0.00 0,1 1606.3,988.4 L 1606.3,988.4 1601.6,1009.9 1596.3,1031.5 1590.4,1052.9 1583.8,1074.2 1576.7,1095.2 1568.9,1115.9 1560.4,1136.2 1551.3,1156.0 1541.5,1175.4 1530.9,1194.1 1519.8,1212.2 1507.9,1229.7 1495.3,1246.4 1482.0,1262.3 1468.1,1277.4 1453.5,1291.6 1438.3,1305.0 1422.4,1317.5 1405.9,1329.0 1388.8,1339.6 1371.1,1349.3 1352.9,1357.9 1334.1,1365.6 1314.8,1372.4 1295.1,1378.1 1275.0,1382.9 1254.4,1386.7 1233.5,1389.6 1212.3,1391.6 1190.9,1392.6 1169.2,1392.8 1147.3,1392.2 1125.4,1390.7 1103.4,1388.5 1081.4,1385.5 1059.4,1381.9 1037.6,1377.6 1016.0,1372.8 994.6,1367.5  A 522.500,522.500 0.00 0,1 1022.4,1288.0 L 1022.4,1288.0 1042.0,1296.4 1061.8,1304.4 1081.9,1311.8 1102.0,1318.6 1122.1,1324.8 1142.2,1330.2 1162.2,1334.7 1182.0,1338.5 1201.6,1341.3 1220.9,1343.2 1239.9,1344.1 1258.5,1344.0 1276.6,1342.9 1294.3,1340.7 1311.5,1337.4 1328.2,1333.0 1344.2,1327.5 1359.7,1320.9 1374.5,1313.3 1388.7,1304.5 1402.1,1294.7 1414.9,1283.7 1427.0,1271.8 1438.3,1258.8 1448.9,1244.9 1458.7,1230.0 1467.8,1214.3 1476.2,1197.7 1483.8,1180.3 1490.7,1162.1 1496.9,1143.3 1502.4,1123.9 1507.2,1104.0 1511.3,1083.6 1514.8,1062.8 1517.6,1041.8 1519.9,1020.6 1521.6,999.3 1522.8,978.0  Z" style="stroke-width: 0.5;  stroke: rgb(0,0,0); fill: rgb(179,177,178);" />
<path d="M 2020.320,1547.676 A 522.500,522.500 0.00 0,1 2015.3,1586.5 L 2015.3,1586.5 1990.6,1582.5 1965.7,1578.7 1940.5,1575.3 1915.1,1572.1 1889.6,1569.2 1863.9,1566.7 1838.0,1564.5 1812.0,1562.7 1785.9,1561.3 1759.7,1560.2 1733.4,1559.5 1707.0,1559.2 1680.6,1559.3 1654.1,1559.9 1627.6,1560.8 1601.0,1562.2 1574.5,1564.0 1548.0,1566.3 1521.5,1569.0 1495.0,1572.1 1468.7,1575.6 1442.3,1579.6 1416.1,1583.9 1390.0,1588.7 1364.0,1593.9 1338.1,1599.5 1312.3,1605.5 1286.7,1611.9 1261.3,1618.6 1236.0,1625.8 1210.9,1633.2 1186.1,1641.0 1161.4,1649.1 1137.0,1657.5 1112.8,1666.2 1088.9,1675.2 1065.2,1684.4 1041.8,1693.8 1018.7,1703.4  A 522.500,522.500 0.00 0,1 1004.9,1666.9 L 1004.9,1666.9 1029.1,1658.9 1053.5,1651.0 1078.1,1643.3 1102.9,1635.8 1127.9,1628.5 1153.1,1621.4 1178.5,1614.5 1204.0,1607.9 1229.7,1601.5 1255.5,1595.4 1281.5,1589.5 1307.5,1584.0 1333.7,1578.7 1360.0,1573.7 1386.4,1569.0 1412.9,1564.6 1439.4,1560.5 1466.1,1556.7 1492.7,1553.3 1519.4,1550.2 1546.2,1547.3 1572.9,1544.8 1599.7,1542.7 1626.5,1540.8 1653.2,1539.2 1680.0,1538.0 1706.7,1537.1 1733.3,1536.4 1759.9,1536.1 1786.5,1536.1 1812.9,1536.3 1839.3,1536.9 1865.6,1537.7 1891.7,1538.8 1917.7,1540.1 1943.6,1541.6 1969.4,1543.4 1994.9,1545.5 2020.3,1547.7  Z" style="stroke-width: 0.5;  stroke: rgb(0,0,0); fill: rgb(179,177,178);" />
<path d="M 1925.172,1196.298 A 522.500,522.500 0.00 0,1 1939.6,1217.6 L 1939.6,1217.6 1918.9,1230.7 1897.8,1243.6 1876.3,1256.3 1854.5,1268.7 1832.3,1280.9 1809.8,1292.7 1787.0,1304.2 1764.0,1315.3 1740.6,1326.1 1716.9,1336.4 1693.0,1346.3 1668.8,1355.7 1644.4,1364.7 1619.8,1373.2 1595.0,1381.2 1570.0,1388.7 1544.8,1395.7 1519.4,1402.2 1494.0,1408.1 1468.4,1413.5 1442.7,1418.4 1416.9,1422.7 1391.0,1426.5 1365.1,1429.7 1339.2,1432.4 1313.2,1434.6 1287.3,1436.3 1261.4,1437.4 1235.5,1438.0 1209.7,1438.1 1183.9,1437.8 1158.3,1436.9 1132.8,1435.6 1107.5,1433.9 1082.3,1431.7 1057.3,1429.2 1032.5,1426.2 1008.0,1423.0 983.8,1419.4  A 522.500,522.500 0.00 0,1 988.2,1394.6 L 988.2,1394.6 1012.0,1399.3 1036.1,1403.7 1060.4,1407.6 1085.0,1411.2 1109.8,1414.3 1134.7,1417.0 1159.9,1419.1 1185.2,1420.8 1210.6,1421.9 1236.0,1422.5 1261.6,1422.5 1287.2,1422.0 1312.8,1420.9 1338.5,1419.2 1364.1,1416.9 1389.7,1414.0 1415.2,1410.5 1440.6,1406.3 1466.0,1401.6 1491.2,1396.3 1516.3,1390.3 1541.2,1383.8 1566.0,1376.7 1590.6,1368.9 1614.9,1360.7 1639.0,1351.8 1662.9,1342.5 1686.6,1332.6 1709.9,1322.2 1733.0,1311.3 1755.7,1300.0 1778.2,1288.2 1800.3,1276.1 1822.0,1263.5 1843.4,1250.6 1864.5,1237.4 1885.1,1223.9 1905.3,1210.2 1925.2,1196.3  Z" style="stroke-width: 0.5;  stroke: rgb(0,0,0); fill: rgb(179,177,178);" />
<path d="M 2021.681,1470.762 A 522.500,522.500 0.00 0,1 2022.4,1490.1 L 2022.4,1490.1 1996.5,1490.6 1970.5,1491.4 1944.3,1492.2 1918.1,1493.3 1891.8,1494.5 1865.4,1495.9 1838.9,1497.5 1812.4,1499.2 1785.8,1501.2 1759.2,1503.4 1732.6,1505.7 1705.9,1508.3 1679.1,1511.1 1652.4,1514.1 1625.7,1517.3 1599.0,1520.7 1572.2,1524.3 1545.5,1528.2 1518.8,1532.2 1492.2,1536.5 1465.6,1541.0 1439.0,1545.7 1412.5,1550.6 1386.0,1555.7 1359.6,1561.0 1333.3,1566.5 1307.0,1572.2 1280.9,1578.1 1254.8,1584.2 1228.8,1590.4 1203.0,1596.9 1177.2,1603.5 1151.6,1610.3 1126.1,1617.2 1100.7,1624.2 1075.5,1631.4 1050.4,1638.8 1025.4,1646.2 1000.6,1653.8  A 522.500,522.500 0.00 0,1 995.3,1635.2 L 995.3,1635.2 1020.6,1628.5 1046.0,1621.8 1071.5,1615.3 1097.1,1608.9 1122.8,1602.5 1148.6,1596.3 1174.5,1590.2 1200.5,1584.2 1226.5,1578.3 1252.7,1572.6 1278.9,1567.0 1305.2,1561.5 1331.5,1556.2 1358.0,1551.0 1384.4,1546.0 1410.9,1541.1 1437.5,1536.3 1464.1,1531.7 1490.7,1527.3 1517.4,1523.1 1544.0,1518.9 1570.7,1515.0 1597.4,1511.2 1624.2,1507.5 1650.9,1504.1 1677.6,1500.7 1704.3,1497.6 1731.0,1494.6 1757.6,1491.7 1784.2,1489.0 1810.8,1486.4 1837.4,1484.0 1863.9,1481.7 1890.4,1479.6 1916.8,1477.5 1943.1,1475.7 1969.4,1473.9 1995.6,1472.3 2021.7,1470.8  Z" style="stroke-width: 0.5;  stroke: rgb(0,0,0); fill: rgb(179,177,178);" />
<path d="M 1502.876,977.508 A 522.500,522.500 0.00 0,1 1522.1,978.0 L 1522.1,978.0 1520.9,999.2 1519.3,1020.5 1517.0,1041.7 1514.2,1062.8 1510.8,1083.5 1506.7,1103.9 1501.9,1123.8 1496.5,1143.2 1490.4,1162.0 1483.5,1180.1 1475.9,1197.4 1467.6,1214.0 1458.5,1229.7 1448.7,1244.6 1438.1,1258.5 1426.8,1271.4 1414.8,1283.3 1402.1,1294.1 1388.7,1303.9 1374.6,1312.6 1359.8,1320.2 1344.4,1326.7 1328.4,1332.2 1311.8,1336.5 1294.6,1339.7 1277.0,1341.8 1258.9,1342.9 1240.3,1342.9 1221.4,1341.9 1202.1,1339.9 1182.6,1337.0 1162.8,1333.2 1142.9,1328.5 1122.8,1323.0 1102.7,1316.8 1082.7,1309.9 1062.7,1302.4 1043.0,1294.3 1023.4,1285.8  A 522.500,522.500 0.00 0,1 1031.6,1268.5 L 1031.6,1268.5 1050.7,1277.7 1070.0,1286.4 1089.5,1294.6 1109.0,1302.2 1128.6,1309.1 1148.2,1315.3 1167.6,1320.6 1186.8,1325.1 1205.8,1328.7 1224.5,1331.4 1242.8,1333.0 1260.8,1333.7 1278.3,1333.2 1295.3,1331.7 1311.8,1329.1 1327.7,1325.3 1343.0,1320.4 1357.7,1314.4 1371.8,1307.3 1385.1,1299.0 1397.8,1289.7 1409.8,1279.2 1421.0,1267.7 1431.5,1255.2 1441.2,1241.6 1450.2,1227.1 1458.4,1211.6 1465.9,1195.3 1472.7,1178.1 1478.7,1160.2 1484.0,1141.7 1488.5,1122.4 1492.4,1102.7 1495.7,1082.4 1498.3,1061.8 1500.3,1040.9 1501.7,1019.8 1502.5,998.7 1502.9,977.5  Z" style="stroke-width: 0.5;  stroke: rgb(0,0,0); fill: rgb(179,177,178);" />
<path d="M 1607.865,988.755 A 522.500,522.500 0.00 0,1 1625.2,992.7 L 1625.2,992.7 1619.6,1014.2 1613.5,1035.7 1606.7,1057.1 1599.4,1078.4 1591.4,1099.4 1582.7,1120.1 1573.4,1140.4 1563.5,1160.3 1552.9,1179.7 1541.6,1198.5 1529.6,1216.8 1517.0,1234.3 1503.6,1251.2 1489.7,1267.3 1475.0,1282.6 1459.8,1297.1 1443.8,1310.8 1427.3,1323.5 1410.2,1335.4 1392.5,1346.4 1374.2,1356.5 1355.4,1365.6 1336.1,1373.8 1316.3,1381.1 1296.1,1387.4 1275.4,1392.8 1254.4,1397.2 1233.1,1400.7 1211.4,1403.4 1189.6,1405.1 1167.5,1406.0 1145.2,1406.1 1122.9,1405.4 1100.5,1404.0 1078.1,1401.8 1055.8,1398.9 1033.6,1395.5 1011.6,1391.5 989.9,1386.9  A 522.500,522.500 0.00 0,1 994.1,1369.5 L 994.1,1369.5 1015.5,1374.7 1037.1,1379.5 1059.0,1383.6 1081.0,1387.2 1103.0,1390.1 1125.1,1392.2 1147.1,1393.6 1169.0,1394.2 1190.7,1393.9 1212.2,1392.8 1233.4,1390.7 1254.4,1387.8 1274.9,1383.9 1295.1,1379.1 1314.9,1373.2 1334.2,1366.5 1353.0,1358.7 1371.3,1350.0 1389.1,1340.3 1406.2,1329.7 1422.8,1318.1 1438.7,1305.6 1454.0,1292.2 1468.7,1277.9 1482.7,1262.7 1496.0,1246.8 1508.6,1230.1 1520.6,1212.6 1531.8,1194.5 1542.4,1175.7 1552.3,1156.4 1561.5,1136.5 1570.0,1116.2 1577.9,1095.5 1585.1,1074.5 1591.7,1053.2 1597.7,1031.8 1603.1,1010.3 1607.9,988.8  Z" style="stroke-width: 0.5;  stroke: rgb(0,0,0); fill: rgb(179,177,178);" />
<path d="M 2004.284,1363.238 A 522.500,522.500 0.00 0,1 2008.5,1379.9 L 2008.5,1379.9 1982.6,1386.0 1956.7,1392.1 1930.7,1398.1 1904.7,1404.1 1878.7,1410.1 1852.6,1416.1 1826.5,1422.0 1800.4,1427.9 1774.2,1433.8 1748.1,1439.6 1721.9,1445.4 1695.7,1451.1 1669.4,1456.9 1643.2,1462.5 1616.9,1468.1 1590.6,1473.7 1564.3,1479.3 1538.0,1484.8 1511.7,1490.2 1485.4,1495.6 1459.0,1501.0 1432.7,1506.3 1406.3,1511.6 1380.0,1516.8 1353.6,1522.0 1327.3,1527.1 1300.9,1532.2 1274.6,1537.3 1248.2,1542.3 1221.9,1547.2 1195.5,1552.2 1169.2,1557.0 1142.9,1561.9 1116.6,1566.7 1090.3,1571.4 1064.0,1576.1 1037.8,1580.8 1011.5,1585.4 985.3,1590.0  A 522.500,522.500 0.00 0,1 982.6,1572.7 L 982.6,1572.7 1008.7,1569.0 1034.9,1565.2 1061.1,1561.3 1087.4,1557.4 1113.7,1553.4 1140.1,1549.3 1166.4,1545.1 1192.8,1540.8 1219.2,1536.4 1245.7,1532.0 1272.1,1527.4 1298.6,1522.8 1325.0,1518.0 1351.5,1513.2 1377.9,1508.2 1404.4,1503.2 1430.8,1498.1 1457.3,1492.9 1483.7,1487.6 1510.1,1482.1 1536.5,1476.6 1562.8,1471.0 1589.2,1465.3 1615.5,1459.6 1641.7,1453.7 1668.0,1447.7 1694.1,1441.7 1720.3,1435.5 1746.4,1429.3 1772.4,1423.0 1798.4,1416.6 1824.4,1410.2 1850.3,1403.7 1876.1,1397.1 1901.9,1390.4 1927.6,1383.7 1953.2,1376.9 1978.8,1370.1 2004.3,1363.2  Z" style="stroke-width: 0.5;  stroke: rgb(0,0,0); fill: rgb(179,177,178);" />
<path d="M 2021.848,1526.097 A 522.500,522.500 0.00 0,1 2021.0,1539.1 L 2021.0,1539.1 1995.6,1537.3 1969.9,1535.7 1944.1,1534.3 1918.1,1533.1 1892.1,1532.1 1865.9,1531.5 1839.6,1531.0 1813.2,1530.8 1786.7,1530.9 1760.1,1531.3 1733.5,1531.9 1706.8,1532.9 1680.1,1534.1 1653.3,1535.6 1626.6,1537.4 1599.8,1539.6 1573.0,1542.0 1546.3,1544.7 1519.5,1547.7 1492.8,1551.1 1466.2,1554.7 1439.6,1558.7 1413.0,1562.9 1386.5,1567.5 1360.1,1572.3 1333.8,1577.4 1307.6,1582.8 1281.6,1588.4 1255.6,1594.4 1229.8,1600.6 1204.1,1607.0 1178.5,1613.7 1153.1,1620.6 1127.9,1627.7 1102.9,1635.0 1078.0,1642.6 1053.4,1650.3 1028.9,1658.2 1004.6,1666.2  A 522.500,522.500 0.00 0,1 1000.7,1653.9 L 1000.7,1653.9 1025.3,1646.4 1050.0,1639.0 1075.0,1631.8 1100.1,1624.8 1125.4,1617.9 1150.8,1611.3 1176.4,1604.8 1202.2,1598.5 1228.0,1592.4 1254.0,1586.6 1280.1,1581.0 1306.3,1575.6 1332.6,1570.4 1359.0,1565.5 1385.5,1560.9 1412.0,1556.5 1438.6,1552.3 1465.3,1548.5 1492.0,1544.9 1518.8,1541.5 1545.6,1538.4 1572.4,1535.6 1599.2,1533.1 1626.0,1530.8 1652.8,1528.8 1679.6,1527.0 1706.3,1525.5 1733.1,1524.3 1759.7,1523.3 1786.4,1522.6 1812.9,1522.1 1839.4,1521.8 1865.8,1521.8 1892.1,1522.0 1918.3,1522.4 1944.4,1523.1 1970.3,1523.9 1996.2,1524.9 2021.8,1526.1  Z" style="stroke-width: 0.5;  stroke: rgb(0,0,0); fill: rgb(179,177,178);" />
<path d="M 2020.393,1453.128 A 522.500,522.500 0.00 0,1 2021.2,1462.5 L 2021.2,1462.5 1995.0,1464.5 1968.8,1466.5 1942.5,1468.6 1916.1,1470.9 1889.7,1473.3 1863.3,1475.8 1836.8,1478.4 1810.2,1481.1 1783.6,1484.0 1757.0,1487.0 1730.4,1490.2 1703.8,1493.5 1677.1,1496.9 1650.4,1500.5 1623.7,1504.2 1597.0,1508.0 1570.4,1512.0 1543.7,1516.2 1517.1,1520.4 1490.4,1524.8 1463.8,1529.4 1437.3,1534.1 1410.7,1538.9 1384.3,1543.9 1357.8,1549.0 1331.4,1554.3 1305.1,1559.6 1278.8,1565.1 1252.5,1570.7 1226.4,1576.5 1200.3,1582.3 1174.3,1588.3 1148.4,1594.4 1122.5,1600.5 1096.7,1606.8 1071.1,1613.2 1045.5,1619.7 1020.0,1626.2 994.7,1632.8  A 522.500,522.500 0.00 0,1 992.4,1623.8 L 992.4,1623.8 1018.0,1617.6 1043.6,1611.5 1069.4,1605.4 1095.2,1599.4 1121.1,1593.5 1147.1,1587.6 1173.2,1581.9 1199.3,1576.2 1225.4,1570.6 1251.7,1565.1 1277.9,1559.7 1304.3,1554.5 1330.7,1549.3 1357.1,1544.2 1383.5,1539.2 1410.0,1534.4 1436.6,1529.6 1463.1,1525.0 1489.7,1520.4 1516.3,1516.0 1542.9,1511.7 1569.6,1507.5 1596.2,1503.4 1622.9,1499.5 1649.5,1495.6 1676.2,1491.9 1702.8,1488.3 1729.4,1484.8 1756.1,1481.4 1782.7,1478.1 1809.2,1474.9 1835.8,1471.9 1862.3,1468.9 1888.7,1466.0 1915.2,1463.3 1941.6,1460.6 1967.9,1458.0 1994.2,1455.5 2020.4,1453.1  Z" style="stroke-width: 0.5;  stroke: rgb(0,0,0); fill: rgb(179,177,178);" />
<path d="M 1939.988,1218.190 A 522.500,522.500 0.00 0,1 1944.9,1226.0 L 1944.9,1226.0 1923.8,1238.8 1902.4,1251.4 1880.6,1263.8 1858.5,1275.9 1836.1,1287.7 1813.4,1299.2 1790.3,1310.4 1767.0,1321.3 1743.4,1331.8 1719.5,1341.9 1695.4,1351.5 1671.0,1360.8 1646.4,1369.6 1621.6,1377.9 1596.6,1385.8 1571.5,1393.2 1546.2,1400.1 1520.7,1406.5 1495.1,1412.4 1469.4,1417.8 1443.5,1422.6 1417.6,1427.0 1391.7,1430.8 1365.7,1434.1 1339.6,1437.0 1313.6,1439.3 1287.5,1441.1 1261.5,1442.4 1235.5,1443.2 1209.6,1443.5 1183.8,1443.4 1158.0,1442.8 1132.4,1441.8 1107.0,1440.4 1081.7,1438.5 1056.6,1436.3 1031.6,1433.7 1007.0,1430.8 982.6,1427.5  A 522.500,522.500 0.00 0,1 983.9,1418.4 L 983.9,1418.4 1008.2,1422.0 1032.7,1425.4 1057.4,1428.4 1082.4,1430.9 1107.6,1433.1 1132.9,1434.9 1158.4,1436.3 1184.0,1437.2 1209.8,1437.6 1235.6,1437.5 1261.5,1436.9 1287.4,1435.8 1313.3,1434.2 1339.3,1432.1 1365.2,1429.4 1391.1,1426.2 1417.0,1422.5 1442.8,1418.2 1468.5,1413.4 1494.1,1408.0 1519.6,1402.1 1544.9,1395.7 1570.1,1388.8 1595.1,1381.3 1620.0,1373.3 1644.6,1364.9 1669.0,1355.9 1693.2,1346.5 1717.1,1336.7 1740.8,1326.4 1764.2,1315.7 1787.3,1304.6 1810.1,1293.1 1832.6,1281.3 1854.8,1269.2 1876.6,1256.8 1898.1,1244.2 1919.2,1231.3 1940.0,1218.2  Z" style="stroke-width: 0.5;  stroke: rgb(0,0,0); fill: rgb(179,177,178);" />
<path d="M 2016.002,1417.853 A 522.500,522.500 0.00 0,1 2017.4,1426.8 L 2017.4,1426.8 1991.1,1430.6 1964.8,1434.4 1938.5,1438.2 1912.2,1442.1 1885.8,1446.1 1859.4,1450.1 1833.0,1454.2 1806.6,1458.4 1780.1,1462.6 1753.7,1466.9 1727.2,1471.3 1700.7,1475.7 1674.2,1480.2 1647.7,1484.8 1621.3,1489.4 1594.8,1494.1 1568.3,1498.9 1541.8,1503.8 1515.3,1508.7 1488.9,1513.7 1462.5,1518.8 1436.0,1523.9 1409.6,1529.1 1383.3,1534.4 1356.9,1539.8 1330.6,1545.2 1304.3,1550.7 1278.0,1556.2 1251.8,1561.8 1225.6,1567.5 1199.4,1573.2 1173.3,1578.9 1147.2,1584.8 1121.1,1590.7 1095.1,1596.6 1069.2,1602.6 1043.3,1608.6 1017.4,1614.6 991.6,1620.7  A 522.500,522.500 0.00 0,1 989.7,1612.0 L 989.7,1612.0 1015.7,1606.4 1041.7,1600.7 1067.7,1595.0 1093.8,1589.4 1120.0,1583.8 1146.1,1578.3 1172.3,1572.8 1198.5,1567.3 1224.7,1561.8 1251.0,1556.4 1277.3,1551.1 1303.6,1545.7 1329.9,1540.4 1356.2,1535.2 1382.6,1530.0 1408.9,1524.8 1435.3,1519.7 1461.7,1514.6 1488.1,1509.5 1514.5,1504.5 1541.0,1499.6 1567.4,1494.7 1593.8,1489.8 1620.2,1485.0 1646.7,1480.2 1673.1,1475.5 1699.6,1470.8 1726.0,1466.2 1752.4,1461.6 1778.8,1457.0 1805.2,1452.5 1831.6,1448.0 1858.0,1443.6 1884.4,1439.2 1910.8,1434.9 1937.1,1430.6 1963.4,1426.3 1989.7,1422.1 2016.0,1417.9  Z" style="stroke-width: 0.5;  stroke: rgb(0,0,0); fill: rgb(179,177,178);" />
<path d="M 2008.514,1379.916 A 522.500,522.500 0.00 0,1 2010.4,1388.4 L 2010.4,1388.4 1984.3,1394.1 1958.2,1399.8 1932.1,1405.5 1905.9,1411.2 1879.8,1416.8 1853.6,1422.5 1827.4,1428.1 1801.2,1433.7 1775.0,1439.3 1748.8,1444.9 1722.6,1450.5 1696.4,1456.0 1670.1,1461.6 1643.9,1467.1 1617.6,1472.6 1591.4,1478.1 1565.1,1483.5 1538.8,1489.0 1512.6,1494.4 1486.3,1499.9 1460.0,1505.3 1433.7,1510.6 1407.4,1516.0 1381.1,1521.3 1354.8,1526.7 1328.5,1532.0 1302.3,1537.3 1276.0,1542.6 1249.7,1547.8 1223.4,1553.0 1197.1,1558.3 1170.8,1563.5 1144.6,1568.7 1118.3,1573.8 1092.0,1579.0 1065.8,1584.1 1039.5,1589.2 1013.3,1594.3 987.0,1599.4  A 522.500,522.500 0.00 0,1 985.5,1590.9 L 985.5,1590.9 1011.7,1586.2 1037.9,1581.6 1064.2,1576.8 1090.4,1572.1 1116.7,1567.3 1143.0,1562.5 1169.3,1557.6 1195.6,1552.7 1222.0,1547.7 1248.3,1542.7 1274.6,1537.7 1301.0,1532.6 1327.3,1527.5 1353.7,1522.3 1380.1,1517.1 1406.4,1511.9 1432.7,1506.6 1459.1,1501.2 1485.4,1495.8 1511.7,1490.4 1538.1,1484.9 1564.4,1479.4 1590.7,1473.9 1616.9,1468.3 1643.2,1462.6 1669.4,1457.0 1695.7,1451.2 1721.9,1445.5 1748.1,1439.7 1774.2,1433.8 1800.4,1428.0 1826.5,1422.1 1852.6,1416.1 1878.6,1410.2 1904.7,1404.2 1930.7,1398.2 1956.7,1392.1 1982.6,1386.0 2008.5,1379.9  Z" style="stroke-width: 0.5;  stroke: rgb(0,0,0); fill: rgb(179,177,178);" />
<path d="M 2014.579,1409.365 A 522.500,522.500 0.00 0,1 2016.0,1417.9 L 2016.0,1417.9 1989.7,1422.1 1963.4,1426.3 1937.1,1430.6 1910.7,1434.9 1884.4,1439.2 1858.0,1443.6 1831.6,1448.0 1805.2,1452.5 1778.8,1457.0 1752.4,1461.5 1726.0,1466.1 1699.5,1470.8 1673.1,1475.4 1646.7,1480.2 1620.2,1484.9 1593.8,1489.7 1567.4,1494.6 1540.9,1499.5 1514.5,1504.4 1488.1,1509.4 1461.7,1514.4 1435.3,1519.5 1408.9,1524.6 1382.5,1529.8 1356.2,1535.0 1329.9,1540.2 1303.5,1545.5 1277.2,1550.8 1251.0,1556.1 1224.7,1561.5 1198.5,1567.0 1172.2,1572.4 1146.1,1577.9 1119.9,1583.4 1093.8,1589.0 1067.7,1594.6 1041.6,1600.2 1015.5,1605.9 989.5,1611.5  A 522.500,522.500 0.00 0,1 987.8,1603.1 L 987.8,1603.1 1014.0,1597.8 1040.2,1592.5 1066.4,1587.3 1092.6,1582.1 1118.9,1576.9 1145.1,1571.6 1171.4,1566.5 1197.7,1561.3 1224.0,1556.1 1250.3,1551.0 1276.6,1545.8 1302.9,1540.7 1329.3,1535.6 1355.6,1530.5 1381.9,1525.5 1408.3,1520.4 1434.6,1515.4 1461.0,1510.4 1487.4,1505.4 1513.7,1500.4 1540.1,1495.5 1566.5,1490.5 1592.9,1485.6 1619.2,1480.7 1645.6,1475.8 1672.0,1471.0 1698.4,1466.1 1724.7,1461.3 1751.1,1456.5 1777.5,1451.7 1803.9,1446.9 1830.2,1442.2 1856.6,1437.4 1882.9,1432.7 1909.3,1428.0 1935.6,1423.3 1961.9,1418.7 1988.3,1414.0 2014.6,1409.4  Z" style="stroke-width: 0.5;  stroke: rgb(0,0,0); fill: rgb(179,177,178);" />
</g>
<g id="plot0">
<g id="plot0-axis">
</g>
<line x1='2243.3' y1='1600.2' x2='2243.3' y2='1600.2' style="stroke-width:14.0;stroke:rgb(0,0,0);stroke-linecap:round;fill:none;" />
<line x1='2243.3' y1='1600.2' x2='2282.9' y2='1605.5' style="stroke-width:14.0;stroke:rgb(0,0,0);stroke-linecap:round;fill:none;" />
<line x1='2282.9' y1='1605.5' x2='2282.9' y2='1605.5' style="stroke-width:14.0;stroke:rgb(0,0,0);stroke-linecap:round;fill:none;" />
<text x="2299.4" y="1630.5" font-size="46.8px" font-family="CMUBright-Roman" style="text-anchor:start;fill:rgb(255,38,78);" transform="rotate(7.7,2299.4,1630.5)" >HistocapCB065<tspan baseline-shift="-40%" font-size="90%">s</tspan>00230</text>
</g>
<defs>
<pattern id="checker" width="10" height="10" patternTransform="rotate(45 0 0)" patternUnits="userSpaceOnUse"><line x1="0" y1="0" x2="10" y2="0" style="stroke:black;stroke-width:2" /><line x1="0" y1="0" x2="0" y2="10" style="stroke:black;stroke-width:2" /></pattern>
<pattern id="vline" width="10" height="10" patternTransform="rotate(0 0 0)" patternUnits="userSpaceOnUse"><line x1="0" y1="0" x2="0" y2="10" style="stroke:black;stroke-width:5" /></pattern>
<pattern id="hline" width="10" height="10" patternTransform="rotate(0 0 0)" patternUnits="userSpaceOnUse"><line x1="0" y1="0" x2="10" y2="0" style="stroke:black;stroke-width:5" /></pattern>
<pattern id="vline-sparse" width="10" height="10" patternTransform="rotate(0 0 0)" patternUnits="userSpaceOnUse"><line x1="0" y1="0" x2="0" y2="10" style="stroke:black;stroke-width:2" /></pattern>
<pattern id="hline-sparse" width="10" height="10" patternTransform="rotate(0 0 0)" patternUnits="userSpaceOnUse"><line x1="0" y1="0" x2="10" y2="0" style="stroke:black;stroke-width:2" /></pattern>
<pattern id="checker" width="10" height="10" patternTransform="rotate(45 0 0)" patternUnits="userSpaceOnUse"><line x1="0" y1="0" x2="10" y2="0" style="stroke:black;stroke-width:5" /><line x1="0" y1="0" x2="0" y2="10" style="stroke:black;stroke-width:4" /></pattern>
</defs>
</svg>
