<?xml version="1.0" encoding="utf-8" standalone="no"?>
<!DOCTYPE svg PUBLIC "-//W3C//DTD SVG 1.1//EN" "http://www.w3.org/Graphics/SVG/1.1/DTD/svg11.dtd">
<svg width="3000px" height="3000px" version="1.1" xmlns="http://www.w3.org/2000/svg" xmlns:xlink="http://www.w3.org/1999/xlink">
<g id="bg">
<rect x="0" y="0" width="3000px" height="3000px" style="fill:rgb(255,255,255);"/>
</g>
<g id="ideograms">
<path d="M1500.000,950.000 A550.000,550.000 40.000 1,1 1451.151,2047.826 L1433.388,2247.036 A750.000,750.000 0.000 1,0 1500.000,750.000 Z" style="stroke-width:2.0;stroke:rgb(0,0,0);stroke-linecap:round;fill:rgb(179,177,178);" />
<text x="2518.0" y="1545.3" font-size="46.8px" font-family="CMUBright-Roman" style="text-anchor:middle;fill:rgb(0,0,0);" transform="rotate(-87.5,2518.0,1545.3)" >Histocap343p18<tspan baseline-shift="-40%" font-size="90%">6</tspan></text>
<line x1='1555.7' y1='752.1' x2='1556.6' y2='740.1' style="stroke-width:8.0;stroke:rgb(150,150,150);stroke-linecap:round;fill:none;" />
<line x1='1642.4' y1='763.6' x2='1644.7' y2='751.9' style="stroke-width:8.0;stroke:rgb(150,150,150);stroke-linecap:round;fill:none;" />
<line x1='1727.1' y1='785.2' x2='1730.8' y2='773.8' style="stroke-width:8.0;stroke:rgb(150,150,150);stroke-linecap:round;fill:none;" />
<text x="1747.7" y="766.7" font-size="41.6px" font-family="CMUBright-Roman" style="text-anchor:start;fill:rgb(150,150,150);" transform="rotate(287.6,1747.7,766.7)" >2550 kb</text>
<line x1='1808.8' y1='816.5' x2='1813.8' y2='805.6' style="stroke-width:8.0;stroke:rgb(150,150,150);stroke-linecap:round;fill:none;" />
<line x1='1886.3' y1='857.1' x2='1892.5' y2='846.8' style="stroke-width:8.0;stroke:rgb(150,150,150);stroke-linecap:round;fill:none;" />
<line x1='1958.5' y1='906.5' x2='1965.8' y2='897.0' style="stroke-width:8.0;stroke:rgb(150,150,150);stroke-linecap:round;fill:none;" />
<line x1='2024.5' y1='963.9' x2='2032.9' y2='955.3' style="stroke-width:8.0;stroke:rgb(150,150,150);stroke-linecap:round;fill:none;" />
<line x1='2083.3' y1='1028.6' x2='2092.7' y2='1021.1' style="stroke-width:8.0;stroke:rgb(150,150,150);stroke-linecap:round;fill:none;" />
<text x="2110.7" y="1024.5" font-size="41.6px" font-family="CMUBright-Roman" style="text-anchor:start;fill:rgb(150,150,150);" transform="rotate(321.1,2110.7,1024.5)" >2600 kb</text>
<line x1='2134.2' y1='1099.7' x2='2144.4' y2='1093.3' style="stroke-width:8.0;stroke:rgb(150,150,150);stroke-linecap:round;fill:none;" />
<line x1='2176.5' y1='1176.3' x2='2187.4' y2='1171.1' style="stroke-width:8.0;stroke:rgb(150,150,150);stroke-linecap:round;fill:none;" />
<line x1='2209.6' y1='1257.2' x2='2221.0' y2='1253.4' style="stroke-width:8.0;stroke:rgb(150,150,150);stroke-linecap:round;fill:none;" />
<line x1='2233.1' y1='1341.5' x2='2244.8' y2='1339.0' style="stroke-width:8.0;stroke:rgb(150,150,150);stroke-linecap:round;fill:none;" />
<line x1='2246.5' y1='1427.9' x2='2258.5' y2='1426.8' style="stroke-width:8.0;stroke:rgb(150,150,150);stroke-linecap:round;fill:none;" />
<text x="2271.6" y="1439.6" font-size="41.6px" font-family="CMUBright-Roman" style="text-anchor:start;fill:rgb(150,150,150);" transform="rotate(354.5,2271.6,1439.6)" >2650 kb</text>
<line x1='2249.8' y1='1515.3' x2='2261.8' y2='1515.6' style="stroke-width:8.0;stroke:rgb(150,150,150);stroke-linecap:round;fill:none;" />
<line x1='2243.0' y1='1602.5' x2='2254.8' y2='1604.2' style="stroke-width:8.0;stroke:rgb(150,150,150);stroke-linecap:round;fill:none;" />
<line x1='2226.0' y1='1688.3' x2='2237.6' y2='1691.3' style="stroke-width:8.0;stroke:rgb(150,150,150);stroke-linecap:round;fill:none;" />
<line x1='2199.1' y1='1771.6' x2='2210.3' y2='1775.9' style="stroke-width:8.0;stroke:rgb(150,150,150);stroke-linecap:round;fill:none;" />
<line x1='2162.7' y1='1851.1' x2='2173.3' y2='1856.7' style="stroke-width:8.0;stroke:rgb(150,150,150);stroke-linecap:round;fill:none;" />
<text x="2177.3" y="1874.7" font-size="41.6px" font-family="CMUBright-Roman" style="text-anchor:start;fill:rgb(150,150,150);" transform="rotate(27.9,2177.3,1874.7)" >2700 kb</text>
<line x1='2117.3' y1='1925.9' x2='2127.2' y2='1932.7' style="stroke-width:8.0;stroke:rgb(150,150,150);stroke-linecap:round;fill:none;" />
<line x1='2063.6' y1='1994.9' x2='2072.6' y2='2002.8' style="stroke-width:8.0;stroke:rgb(150,150,150);stroke-linecap:round;fill:none;" />
<line x1='2002.1' y1='2057.1' x2='2010.2' y2='2066.0' style="stroke-width:8.0;stroke:rgb(150,150,150);stroke-linecap:round;fill:none;" />
<line x1='1933.8' y1='2111.8' x2='1940.8' y2='2121.6' style="stroke-width:8.0;stroke:rgb(150,150,150);stroke-linecap:round;fill:none;" />
<line x1='1859.7' y1='2158.1' x2='1865.4' y2='2168.7' style="stroke-width:8.0;stroke:rgb(150,150,150);stroke-linecap:round;fill:none;" />
<text x="1858.8" y="2185.8" font-size="41.6px" font-family="CMUBright-Roman" style="text-anchor:start;fill:rgb(150,150,150);" transform="rotate(61.3,1858.8,2185.8)" >2750 kb</text>
<line x1='1780.6' y1='2195.5' x2='1785.1' y2='2206.7' style="stroke-width:8.0;stroke:rgb(150,150,150);stroke-linecap:round;fill:none;" />
<line x1='1697.7' y1='2223.5' x2='1700.9' y2='2235.0' style="stroke-width:8.0;stroke:rgb(150,150,150);stroke-linecap:round;fill:none;" />
<line x1='1612.1' y1='2241.6' x2='1613.9' y2='2253.4' style="stroke-width:8.0;stroke:rgb(150,150,150);stroke-linecap:round;fill:none;" />
<line x1='1525.0' y1='2249.6' x2='1525.4' y2='2261.6' style="stroke-width:8.0;stroke:rgb(150,150,150);stroke-linecap:round;fill:none;" />
<line x1='1437.6' y1='2247.4' x2='1436.6' y2='2259.4' style="stroke-width:8.0;stroke:rgb(150,150,150);stroke-linecap:round;fill:none;" />
<text x="1449.6" y="2272.4" font-size="41.6px" font-family="CMUBright-Roman" style="text-anchor:end;fill:rgb(150,150,150);" transform="rotate(-85.2,1449.6,2272.4)" >2800 kb</text>
<g id="highlighttrack_0">
<path d="M2005.741,1283.837 A550.000,550.000 40.000 0,1 1984.543,1760.227 L2160.740,1854.855 A750.000,750.000 0.000 0,0 2189.646,1205.232 Z" style="stroke-width:14.0;stroke:rgb(0,0,0);stroke-linecap:round;fill:rgb(255,38,78);" />
</g>
<path d="M1500.000,950.000 A550.000,550.000 40.000 1,1 1451.151,2047.826 L1433.388,2247.036 A750.000,750.000 0.000 1,0 1500.000,750.000 Z" style="stroke-width:2.0;stroke:rgb(0,0,0);stroke-linecap:round;fill:none;" />
<path d="M1266.232,1997.848 A550.000,550.000 40.000 0,1 1311.373,983.357 L1242.782,795.487 A750.000,750.000 0.000 0,0 1181.226,2178.884 Z" style="stroke-width:2.0;stroke:rgb(0,0,0);stroke-linecap:round;fill:rgb(179,177,178);" />
<text x="526.0" y="1456.7" font-size="46.8px" font-family="CMUBright-Roman" style="text-anchor:middle;fill:rgb(0,0,0);" transform="rotate(-87.5,526.0,1456.7)" >HistocapH88<tspan baseline-shift="-40%" font-size="90%">C</tspan>P069104</text>
<line x1='1131.7' y1='2153.3' x2='1125.8' y2='2163.8' style="stroke-width:8.0;stroke:rgb(150,150,150);stroke-linecap:round;fill:none;" />
<line x1='1058.2' y1='2106.0' x2='1051.1' y2='2115.7' style="stroke-width:8.0;stroke:rgb(150,150,150);stroke-linecap:round;fill:none;" />
<line x1='990.6' y1='2050.5' x2='982.5' y2='2059.3' style="stroke-width:8.0;stroke:rgb(150,150,150);stroke-linecap:round;fill:none;" />
<line x1='930.0' y1='1987.4' x2='920.9' y2='1995.2' style="stroke-width:8.0;stroke:rgb(150,150,150);stroke-linecap:round;fill:none;" />
<text x="920.9" y="2013.6" font-size="41.6px" font-family="CMUBright-Roman" style="text-anchor:end;fill:rgb(150,150,150);" transform="rotate(-40.5,920.9,2013.6)" >3300 kb</text>
<line x1='877.1' y1='1917.7' x2='867.1' y2='1924.4' style="stroke-width:8.0;stroke:rgb(150,150,150);stroke-linecap:round;fill:none;" />
<line x1='832.7' y1='1842.4' x2='822.0' y2='1847.9' style="stroke-width:8.0;stroke:rgb(150,150,150);stroke-linecap:round;fill:none;" />
<line x1='797.4' y1='1762.4' x2='786.1' y2='1766.6' style="stroke-width:8.0;stroke:rgb(150,150,150);stroke-linecap:round;fill:none;" />
<line x1='771.6' y1='1678.8' x2='760.0' y2='1681.6' style="stroke-width:8.0;stroke:rgb(150,150,150);stroke-linecap:round;fill:none;" />
<line x1='755.8' y1='1592.8' x2='743.9' y2='1594.2' style="stroke-width:8.0;stroke:rgb(150,150,150);stroke-linecap:round;fill:none;" />
<text x="733.8" y="1609.6" font-size="41.6px" font-family="CMUBright-Roman" style="text-anchor:end;fill:rgb(150,150,150);" transform="rotate(-7.1,733.8,1609.6)" >3350 kb</text>
<line x1='750.0' y1='1505.5' x2='738.0' y2='1505.6' style="stroke-width:8.0;stroke:rgb(150,150,150);stroke-linecap:round;fill:none;" />
<line x1='754.5' y1='1418.1' x2='742.6' y2='1416.8' style="stroke-width:8.0;stroke:rgb(150,150,150);stroke-linecap:round;fill:none;" />
<line x1='769.1' y1='1331.9' x2='757.4' y2='1329.2' style="stroke-width:8.0;stroke:rgb(150,150,150);stroke-linecap:round;fill:none;" />
<line x1='793.6' y1='1247.9' x2='782.3' y2='1243.9' style="stroke-width:8.0;stroke:rgb(150,150,150);stroke-linecap:round;fill:none;" />
<line x1='827.8' y1='1167.4' x2='817.0' y2='1162.1' style="stroke-width:8.0;stroke:rgb(150,150,150);stroke-linecap:round;fill:none;" />
<text x="800.2" y="1169.4" font-size="41.6px" font-family="CMUBright-Roman" style="text-anchor:end;fill:rgb(150,150,150);" transform="rotate(26.3,800.2,1169.4)" >3400 kb</text>
<line x1='871.1' y1='1091.4' x2='861.0' y2='1084.9' style="stroke-width:8.0;stroke:rgb(150,150,150);stroke-linecap:round;fill:none;" />
<line x1='922.9' y1='1021.0' x2='913.7' y2='1013.3' style="stroke-width:8.0;stroke:rgb(150,150,150);stroke-linecap:round;fill:none;" />
<line x1='982.6' y1='957.0' x2='974.3' y2='948.4' style="stroke-width:8.0;stroke:rgb(150,150,150);stroke-linecap:round;fill:none;" />
<line x1='1049.3' y1='900.5' x2='1042.1' y2='890.9' style="stroke-width:8.0;stroke:rgb(150,150,150);stroke-linecap:round;fill:none;" />
<line x1='1122.2' y1='852.1' x2='1116.2' y2='841.7' style="stroke-width:8.0;stroke:rgb(150,150,150);stroke-linecap:round;fill:none;" />
<text x="1098.1" y="838.5" font-size="41.6px" font-family="CMUBright-Roman" style="text-anchor:end;fill:rgb(150,150,150);" transform="rotate(59.8,1098.1,838.5)" >3450 kb</text>
<line x1='1200.2' y1='812.5' x2='1195.4' y2='801.5' style="stroke-width:8.0;stroke:rgb(150,150,150);stroke-linecap:round;fill:none;" />
<path d="M1266.232,1997.848 A550.000,550.000 40.000 0,1 1311.373,983.357 L1242.782,795.487 A750.000,750.000 0.000 0,0 1181.226,2178.884 Z" style="stroke-width:2.0;stroke:rgb(0,0,0);stroke-linecap:round;fill:none;" />
</g>
<g id="track_0">
<path d="M 1674.272,1007.420 A 522.500,522.500 0.00 0,1 1795.8,1069.3 L 1795.8,1069.3 1783.1,1087.4 1769.8,1105.3 1756.0,1122.9 1741.7,1140.1 1726.8,1156.8 1711.5,1173.0 1695.8,1188.7 1679.6,1203.6 1662.9,1217.8 1645.8,1231.3 1628.3,1243.9 1610.4,1255.7 1592.2,1266.5 1573.6,1276.4 1554.7,1285.3 1535.5,1293.2 1516.0,1300.0 1496.2,1305.8 1476.2,1310.6 1456.0,1314.2 1435.6,1316.8 1415.1,1318.3 1394.4,1318.7 1373.7,1318.0 1352.8,1316.3 1332.0,1313.5 1311.1,1309.8 1290.2,1305.0 1269.4,1299.3 1248.7,1292.7 1228.1,1285.2 1207.7,1276.8 1187.4,1267.7 1167.4,1257.9 1147.7,1247.3 1128.3,1236.2 1109.2,1224.6 1090.5,1212.5 1072.2,1200.0  A 522.500,522.500 0.00 0,1 1163.8,1100.0 L 1163.8,1100.0 1177.5,1115.9 1191.6,1131.6 1206.0,1146.8 1220.7,1161.5 1235.6,1175.5 1250.8,1188.9 1266.1,1201.4 1281.5,1213.1 1297.0,1223.9 1312.6,1233.6 1328.2,1242.2 1343.8,1249.7 1359.4,1256.1 1374.9,1261.2 1390.3,1265.1 1405.6,1267.7 1420.7,1269.0 1435.6,1269.0 1450.4,1267.7 1464.9,1265.1 1479.1,1261.2 1493.1,1255.9 1506.8,1249.4 1520.2,1241.5 1533.3,1232.5 1546.0,1222.2 1558.3,1210.8 1570.3,1198.3 1581.9,1184.7 1593.1,1170.2 1603.8,1154.7 1614.2,1138.3 1624.1,1121.2 1633.6,1103.4 1642.6,1084.9 1651.2,1066.0 1659.4,1046.7 1667.0,1027.2 1674.3,1007.4  Z" style="stroke-width: 0.5;  stroke: rgb(0,0,0); fill: rgb(179,177,178);" />
<path d="M 1525.478,2021.878 A 522.500,522.500 0.00 0,1 1453.6,2020.4 L 1453.6,2020.4 1455.3,2000.3 1456.8,1980.3 1458.1,1960.6 1459.1,1941.2 1459.8,1922.4 1460.2,1904.2 1460.3,1886.7 1460.0,1870.1 1459.4,1854.4 1458.4,1839.8 1457.0,1826.2 1455.2,1813.8 1453.1,1802.6 1450.5,1792.8 1447.5,1784.3 1444.0,1777.1 1440.2,1771.4 1435.9,1767.1 1431.3,1764.3 1426.2,1762.9 1420.8,1763.0 1414.9,1764.6 1408.7,1767.6 1402.2,1772.0 1395.3,1777.9 1388.1,1785.1 1380.6,1793.6 1372.8,1803.4 1364.8,1814.5 1356.5,1826.6 1348.1,1839.9 1339.5,1854.1 1330.8,1869.2 1322.0,1885.2 1313.1,1901.8 1304.2,1919.0 1295.4,1936.7 1286.6,1954.7 1277.9,1973.0  A 522.500,522.500 0.00 0,1 1274.1,1971.1 L 1274.1,1971.1 1282.9,1952.9 1292.0,1934.9 1301.3,1917.2 1310.6,1900.0 1320.0,1883.4 1329.5,1867.5 1339.0,1852.4 1348.4,1838.3 1357.9,1825.1 1367.2,1813.0 1376.4,1802.1 1385.5,1792.4 1394.4,1783.9 1403.1,1776.8 1411.6,1771.0 1419.9,1766.7 1428.0,1763.8 1435.8,1762.3 1443.3,1762.3 1450.5,1763.7 1457.4,1766.7 1464.1,1771.0 1470.3,1776.9 1476.3,1784.1 1481.9,1792.7 1487.2,1802.7 1492.1,1813.9 1496.7,1826.4 1501.0,1840.0 1504.9,1854.8 1508.4,1870.6 1511.7,1887.3 1514.6,1904.9 1517.1,1923.2 1519.4,1942.1 1521.3,1961.6 1523.0,1981.5 1524.4,2001.6 1525.5,2021.9  Z" style="stroke-width: 0.5;  stroke: rgb(0,0,0); fill: rgb(179,177,178);" />
<path d="M 1536.163,978.753 A 522.500,522.500 0.00 0,1 1617.9,991.0 L 1617.9,991.0 1613.1,1011.1 1607.8,1031.0 1602.2,1050.7 1596.2,1069.9 1589.7,1088.7 1582.9,1106.8 1575.7,1124.3 1568.1,1140.9 1560.1,1156.6 1551.8,1171.4 1543.0,1185.1 1533.9,1197.6 1524.5,1209.0 1514.6,1219.2 1504.5,1228.1 1494.0,1235.7 1483.2,1242.0 1472.1,1246.9 1460.8,1250.4 1449.1,1252.5 1437.2,1253.2 1425.1,1252.5 1412.8,1250.4 1400.4,1247.0 1387.7,1242.2 1375.0,1236.2 1362.1,1228.8 1349.1,1220.2 1336.1,1210.5 1323.1,1199.6 1310.1,1187.7 1297.2,1174.8 1284.3,1161.0 1271.6,1146.4 1259.0,1131.1 1246.6,1115.1 1234.4,1098.7 1222.5,1081.9 1210.9,1064.8  A 522.500,522.500 0.00 0,1 1282.7,1024.8 L 1282.7,1024.8 1291.2,1043.2 1300.0,1061.4 1308.9,1079.3 1317.9,1096.6 1327.1,1113.4 1336.3,1129.4 1345.5,1144.7 1354.7,1159.0 1363.9,1172.4 1373.0,1184.6 1382.0,1195.7 1390.9,1205.6 1399.7,1214.2 1408.3,1221.5 1416.8,1227.4 1425.0,1231.9 1433.0,1235.0 1440.8,1236.6 1448.4,1236.8 1455.7,1235.4 1462.7,1232.6 1469.4,1228.4 1475.8,1222.7 1482.0,1215.6 1487.8,1207.1 1493.3,1197.2 1498.5,1186.1 1503.3,1173.7 1507.9,1160.1 1512.1,1145.4 1516.0,1129.7 1519.6,1113.0 1522.8,1095.5 1525.8,1077.3 1528.4,1058.4 1530.8,1038.9 1532.8,1019.1 1534.6,999.0 1536.2,978.8  Z" style="stroke-width: 0.5;  stroke: rgb(0,0,0); fill: rgb(179,177,178);" />
<path d="M 1767.407,1948.887 A 522.500,522.500 0.00 0,1 1700.9,1982.4 L 1700.9,1982.4 1692.3,1962.5 1683.2,1942.7 1673.6,1923.2 1663.4,1904.0 1652.7,1885.3 1641.4,1867.0 1629.7,1849.4 1617.3,1832.4 1604.5,1816.1 1591.2,1800.6 1577.3,1786.0 1563.0,1772.3 1548.2,1759.6 1532.9,1747.8 1517.2,1737.1 1501.0,1727.5 1484.5,1718.9 1467.5,1711.5 1450.2,1705.2 1432.5,1700.1 1414.5,1696.2 1396.2,1693.4 1377.6,1691.7 1358.8,1691.2 1339.8,1691.9 1320.6,1693.7 1301.3,1696.5 1281.8,1700.5 1262.3,1705.4 1242.8,1711.4 1223.2,1718.3 1203.7,1726.1 1184.3,1734.7 1165.1,1744.1 1146.0,1754.2 1127.2,1765.0 1108.6,1776.4 1090.4,1788.2 1072.5,1800.4  A 522.500,522.500 0.00 0,1 1034.2,1736.6 L 1034.2,1736.6 1054.2,1726.8 1074.6,1717.3 1095.3,1708.4 1116.3,1700.0 1137.6,1692.2 1159.1,1685.2 1180.7,1678.8 1202.5,1673.2 1224.3,1668.5 1246.2,1664.6 1268.1,1661.6 1289.9,1659.5 1311.7,1658.4 1333.3,1658.2 1354.9,1659.0 1376.2,1660.9 1397.4,1663.7 1418.3,1667.6 1439.0,1672.5 1459.4,1678.4 1479.5,1685.3 1499.3,1693.2 1518.7,1702.1 1537.7,1712.0 1556.4,1722.8 1574.6,1734.5 1592.4,1747.1 1609.8,1760.5 1626.7,1774.7 1643.1,1789.7 1659.0,1805.4 1674.4,1821.7 1689.3,1838.6 1703.7,1856.1 1717.5,1874.0 1730.8,1892.3 1743.6,1911.0 1755.8,1929.8 1767.4,1948.9  Z" style="stroke-width: 0.5;  stroke: rgb(0,0,0); fill: rgb(179,177,178);" />
<path d="M 1599.228,2012.991 A 522.500,522.500 0.00 0,1 1527.1,2021.8 L 1527.1,2021.8 1526.0,2001.5 1524.5,1981.4 1522.8,1961.5 1520.8,1942.1 1518.4,1923.1 1515.8,1904.8 1512.9,1887.2 1509.6,1870.5 1505.9,1854.7 1502.0,1840.0 1497.7,1826.3 1493.0,1813.8 1488.0,1802.6 1482.7,1792.6 1477.0,1784.0 1471.0,1776.8 1464.6,1771.0 1457.9,1766.6 1451.0,1763.7 1443.7,1762.2 1436.1,1762.2 1428.3,1763.7 1420.2,1766.6 1411.9,1771.0 1403.3,1776.7 1394.5,1783.9 1385.6,1792.3 1376.5,1802.0 1367.2,1813.0 1357.9,1825.1 1348.5,1838.2 1339.0,1852.4 1329.5,1867.5 1320.0,1883.4 1310.6,1900.0 1301.2,1917.1 1292.0,1934.8 1282.9,1952.8 1274.0,1971.1  A 522.500,522.500 0.00 0,1 1210.5,1935.0 L 1210.5,1935.0 1222.1,1917.9 1234.0,1901.1 1246.1,1884.8 1258.4,1868.9 1270.9,1853.6 1283.6,1839.1 1296.3,1825.3 1309.1,1812.5 1321.9,1800.6 1334.7,1789.8 1347.4,1780.1 1360.1,1771.6 1372.6,1764.4 1385.1,1758.4 1397.3,1753.7 1409.4,1750.4 1421.3,1748.4 1432.9,1747.8 1444.3,1748.7 1455.4,1750.9 1466.3,1754.5 1476.8,1759.5 1487.0,1765.9 1496.8,1773.7 1506.4,1782.7 1515.5,1793.0 1524.3,1804.6 1532.7,1817.3 1540.7,1831.2 1548.4,1846.1 1555.6,1862.0 1562.4,1878.7 1568.9,1896.3 1574.9,1914.6 1580.5,1933.5 1585.8,1952.9 1590.7,1972.7 1595.1,1992.8 1599.2,2013.0  Z" style="stroke-width: 0.5;  stroke: rgb(0,0,0); fill: rgb(179,177,178);" />
<path d="M 1890.175,1847.519 A 522.500,522.500 0.00 0,1 1838.5,1898.0 L 1838.5,1898.0 1823.3,1880.5 1807.6,1863.1 1791.3,1846.0 1774.5,1829.2 1757.3,1812.8 1739.6,1796.7 1721.4,1781.2 1702.7,1766.1 1683.6,1751.5 1664.0,1737.6 1644.1,1724.2 1623.7,1711.5 1602.9,1699.5 1581.8,1688.2 1560.3,1677.7 1538.5,1667.9 1516.4,1658.9 1494.0,1650.7 1471.3,1643.3 1448.4,1636.7 1425.2,1631.0 1401.8,1626.0 1378.3,1621.9 1354.6,1618.7 1330.8,1616.2 1306.9,1614.6 1283.0,1613.7 1259.0,1613.7 1235.0,1614.4 1211.0,1615.9 1187.1,1618.1 1163.2,1621.0 1139.5,1624.5 1116.0,1628.7 1092.6,1633.5 1069.5,1638.9 1046.7,1644.8 1024.1,1651.1 1001.9,1657.9  A 522.500,522.500 0.00 0,1 984.9,1587.7 L 984.9,1587.7 1008.6,1583.9 1032.6,1580.5 1056.9,1577.4 1081.3,1574.9 1106.0,1572.8 1130.8,1571.2 1155.8,1570.1 1180.9,1569.6 1206.1,1569.7 1231.3,1570.3 1256.5,1571.6 1281.8,1573.5 1307.0,1576.0 1332.2,1579.1 1357.4,1582.9 1382.4,1587.3 1407.3,1592.4 1432.1,1598.1 1456.8,1604.5 1481.2,1611.5 1505.5,1619.2 1529.6,1627.5 1553.4,1636.4 1577.0,1645.9 1600.3,1656.0 1623.3,1666.7 1646.0,1678.0 1668.4,1689.8 1690.5,1702.1 1712.3,1715.0 1733.6,1728.3 1754.6,1742.0 1775.2,1756.1 1795.4,1770.6 1815.2,1785.5 1834.6,1800.6 1853.6,1816.1 1872.1,1831.7 1890.2,1847.5  Z" style="stroke-width: 0.5;  stroke: rgb(0,0,0); fill: rgb(179,177,178);" />
<path d="M 1656.178,1998.613 A 522.500,522.500 0.00 0,1 1599.2,2013.0 L 1599.2,2013.0 1595.1,1992.8 1590.7,1972.7 1585.8,1952.9 1580.5,1933.5 1574.9,1914.5 1568.8,1896.2 1562.3,1878.6 1555.4,1861.8 1548.2,1845.9 1540.5,1830.9 1532.4,1817.1 1523.9,1804.3 1515.1,1792.7 1505.9,1782.3 1496.3,1773.2 1486.3,1765.4 1476.0,1758.9 1465.4,1753.9 1454.5,1750.2 1443.2,1747.9 1431.7,1746.9 1419.9,1747.4 1407.9,1749.3 1395.7,1752.5 1383.3,1757.1 1370.7,1763.0 1358.0,1770.2 1345.2,1778.6 1332.3,1788.2 1319.4,1798.9 1306.4,1810.6 1293.5,1823.4 1280.6,1837.0 1267.8,1851.4 1255.1,1866.6 1242.6,1882.4 1230.3,1898.7 1218.3,1915.3 1206.5,1932.3  A 522.500,522.500 0.00 0,1 1159.8,1896.6 L 1159.8,1896.6 1173.6,1880.8 1187.8,1865.3 1202.3,1850.3 1217.1,1835.8 1232.1,1821.9 1247.2,1808.8 1262.6,1796.4 1278.0,1785.0 1293.5,1774.4 1309.0,1764.9 1324.5,1756.5 1340.0,1749.2 1355.4,1743.1 1370.7,1738.2 1385.9,1734.6 1400.9,1732.2 1415.7,1731.2 1430.4,1731.4 1444.7,1733.0 1458.9,1735.9 1472.7,1740.1 1486.2,1745.6 1499.4,1752.5 1512.3,1760.6 1524.8,1769.9 1537.0,1780.4 1548.7,1792.1 1560.1,1804.9 1571.0,1818.8 1581.5,1833.6 1591.6,1849.4 1601.2,1866.0 1610.5,1883.4 1619.2,1901.5 1627.5,1920.2 1635.4,1939.3 1642.8,1958.9 1649.7,1978.7 1656.2,1998.6  Z" style="stroke-width: 0.5;  stroke: rgb(0,0,0); fill: rgb(179,177,178);" />
<path d="M 1945.141,1226.403 A 522.500,522.500 0.00 0,1 1972.8,1277.6 L 1972.8,1277.6 1950.0,1288.2 1926.9,1298.6 1903.5,1308.8 1879.9,1318.8 1856.0,1328.6 1831.9,1338.1 1807.5,1347.4 1783.0,1356.4 1758.2,1365.0 1733.2,1373.4 1708.1,1381.5 1682.8,1389.2 1657.3,1396.5 1631.6,1403.5 1605.8,1410.2 1579.9,1416.4 1553.9,1422.3 1527.8,1427.8 1501.5,1432.9 1475.2,1437.7 1448.9,1442.0 1422.5,1445.9 1396.0,1449.4 1369.5,1452.6 1343.1,1455.3 1316.6,1457.6 1290.1,1459.6 1263.7,1461.2 1237.3,1462.4 1211.0,1463.2 1184.7,1463.7 1158.6,1463.8 1132.5,1463.6 1106.6,1463.0 1080.8,1462.2 1055.2,1461.0 1029.7,1459.5 1004.4,1457.8 979.4,1455.8  A 522.500,522.500 0.00 0,1 987.5,1398.1 L 987.5,1398.1 1011.6,1402.7 1035.9,1407.0 1060.4,1410.9 1085.2,1414.5 1110.2,1417.6 1135.4,1420.3 1160.8,1422.6 1186.3,1424.4 1211.9,1425.7 1237.7,1426.5 1263.5,1426.8 1289.4,1426.6 1315.3,1425.9 1341.2,1424.6 1367.2,1422.8 1393.1,1420.4 1419.0,1417.5 1444.8,1414.0 1470.6,1410.0 1496.3,1405.3 1521.8,1400.2 1547.3,1394.5 1572.6,1388.2 1597.7,1381.5 1622.7,1374.1 1647.4,1366.3 1672.0,1358.0 1696.3,1349.2 1720.4,1339.9 1744.3,1330.2 1767.9,1320.1 1791.2,1309.5 1814.2,1298.6 1836.8,1287.3 1859.2,1275.7 1881.2,1263.7 1902.9,1251.5 1924.2,1239.1 1945.1,1226.4  Z" style="stroke-width: 0.5;  stroke: rgb(0,0,0); fill: rgb(179,177,178);" />
<path d="M 1795.869,1069.341 A 522.500,522.500 0.00 0,1 1841.5,1104.5 L 1841.5,1104.5 1826.5,1121.6 1810.9,1138.3 1794.8,1154.8 1778.3,1171.0 1761.2,1186.7 1743.7,1201.9 1725.7,1216.5 1707.3,1230.6 1688.5,1244.0 1669.2,1256.7 1649.6,1268.7 1629.6,1279.9 1609.3,1290.2 1588.6,1299.8 1567.7,1308.4 1546.4,1316.2 1524.9,1323.1 1503.2,1329.0 1481.2,1333.9 1459.1,1338.0 1436.8,1341.0 1414.4,1343.2 1391.9,1344.3 1369.2,1344.5 1346.6,1343.8 1323.9,1342.1 1301.2,1339.6 1278.5,1336.1 1256.0,1331.9 1233.5,1326.7 1211.1,1320.8 1188.9,1314.1 1167.0,1306.7 1145.2,1298.7 1123.7,1290.0 1102.5,1280.7 1081.7,1270.9 1061.2,1260.7 1041.1,1250.1  A 522.500,522.500 0.00 0,1 1071.6,1200.8 L 1071.6,1200.8 1089.9,1213.3 1108.7,1225.4 1127.8,1237.0 1147.2,1248.0 1167.0,1258.5 1187.0,1268.3 1207.3,1277.4 1227.7,1285.7 1248.3,1293.2 1269.1,1299.8 1289.9,1305.5 1310.8,1310.2 1331.7,1313.9 1352.6,1316.7 1373.4,1318.3 1394.2,1319.0 1414.9,1318.6 1435.5,1317.0 1455.9,1314.5 1476.1,1310.8 1496.1,1306.0 1515.9,1300.2 1535.4,1293.4 1554.6,1285.5 1573.6,1276.5 1592.2,1266.6 1610.4,1255.8 1628.3,1244.0 1645.8,1231.4 1662.9,1217.9 1679.6,1203.7 1695.8,1188.7 1711.6,1173.1 1726.9,1156.9 1741.7,1140.1 1756.0,1122.9 1769.8,1105.3 1783.1,1087.4 1795.9,1069.3  Z" style="stroke-width: 0.5;  stroke: rgb(0,0,0); fill: rgb(179,177,178);" />
<path d="M 1880.974,1142.418 A 522.500,522.500 0.00 0,1 1916.7,1184.7 L 1916.7,1184.7 1897.5,1199.0 1877.9,1213.0 1857.8,1226.7 1837.4,1240.2 1816.5,1253.3 1795.3,1266.0 1773.6,1278.2 1751.7,1290.0 1729.4,1301.3 1706.7,1312.1 1683.8,1322.4 1660.6,1332.0 1637.1,1341.1 1613.4,1349.6 1589.4,1357.4 1565.2,1364.6 1540.8,1371.1 1516.3,1376.9 1491.6,1382.1 1466.7,1386.6 1441.7,1390.4 1416.7,1393.5 1391.6,1395.9 1366.4,1397.6 1341.2,1398.7 1316.0,1399.1 1290.8,1398.8 1265.7,1397.8 1240.6,1396.2 1215.6,1394.0 1190.8,1391.2 1166.1,1387.9 1141.6,1383.9 1117.2,1379.5 1093.1,1374.5 1069.2,1369.1 1045.6,1363.2 1022.4,1356.9 999.4,1350.3  A 522.500,522.500 0.00 0,1 1018.3,1297.6 L 1018.3,1297.6 1039.8,1306.4 1061.8,1314.8 1084.0,1322.7 1106.6,1330.2 1129.5,1337.2 1152.7,1343.6 1176.0,1349.3 1199.6,1354.4 1223.3,1358.9 1247.1,1362.6 1271.0,1365.6 1295.0,1367.9 1319.1,1369.4 1343.2,1370.1 1367.2,1369.9 1391.2,1369.0 1415.2,1367.3 1439.1,1364.7 1462.8,1361.2 1486.5,1357.0 1509.9,1351.9 1533.2,1346.0 1556.3,1339.3 1579.1,1331.8 1601.7,1323.6 1624.0,1314.5 1646.1,1304.8 1667.8,1294.3 1689.2,1283.1 1710.2,1271.3 1730.9,1258.9 1751.2,1245.9 1771.1,1232.3 1790.5,1218.3 1809.5,1203.8 1828.1,1188.9 1846.2,1173.7 1863.8,1158.2 1881.0,1142.4  Z" style="stroke-width: 0.5;  stroke: rgb(0,0,0); fill: rgb(179,177,178);" />
<path d="M 1621.784,991.891 A 522.500,522.500 0.00 0,1 1661.3,1003.0 L 1661.3,1003.0 1654.7,1022.9 1647.6,1042.6 1640.0,1062.0 1632.0,1081.0 1623.6,1099.5 1614.7,1117.4 1605.4,1134.6 1595.7,1151.0 1585.5,1166.6 1575.0,1181.2 1564.1,1194.9 1552.7,1207.4 1541.0,1218.8 1529.0,1229.1 1516.6,1238.1 1503.9,1245.9 1490.8,1252.3 1477.5,1257.5 1463.9,1261.4 1450.1,1263.9 1436.0,1265.1 1421.7,1264.9 1407.2,1263.4 1392.5,1260.6 1377.8,1256.5 1362.9,1251.1 1347.9,1244.5 1332.9,1236.7 1317.9,1227.8 1302.9,1217.8 1288.0,1206.8 1273.1,1194.8 1258.3,1182.0 1243.7,1168.3 1229.4,1153.9 1215.2,1138.9 1201.3,1123.4 1187.7,1107.5 1174.5,1091.3  A 522.500,522.500 0.00 0,1 1208.3,1066.5 L 1208.3,1066.5 1220.0,1083.5 1232.1,1100.3 1244.4,1116.7 1256.9,1132.6 1269.6,1147.8 1282.5,1162.4 1295.5,1176.1 1308.6,1188.9 1321.7,1200.8 1334.9,1211.6 1348.0,1221.3 1361.2,1229.8 1374.2,1237.1 1387.1,1243.2 1399.9,1247.9 1412.6,1251.3 1425.1,1253.3 1437.3,1254.0 1449.4,1253.3 1461.2,1251.1 1472.8,1247.6 1484.0,1242.7 1495.0,1236.4 1505.7,1228.8 1516.0,1219.9 1526.0,1209.8 1535.7,1198.4 1545.0,1185.8 1553.9,1172.1 1562.5,1157.4 1570.6,1141.7 1578.4,1125.1 1585.8,1107.6 1592.8,1089.5 1599.4,1070.8 1605.6,1051.5 1611.4,1031.9 1616.8,1012.0 1621.8,991.9  Z" style="stroke-width: 0.5;  stroke: rgb(0,0,0); fill: rgb(179,177,178);" />
<path d="M 1960.316,1747.216 A 522.500,522.500 0.00 0,1 1939.6,1782.5 L 1939.6,1782.5 1918.6,1769.2 1897.2,1756.0 1875.5,1743.0 1853.6,1730.3 1831.3,1717.8 1808.7,1705.5 1785.8,1693.5 1762.6,1681.8 1739.2,1670.5 1715.5,1659.5 1691.6,1648.8 1667.4,1638.5 1643.0,1628.6 1618.4,1619.1 1593.6,1610.0 1568.6,1601.4 1543.4,1593.1 1518.1,1585.3 1492.7,1578.0 1467.1,1571.1 1441.4,1564.6 1415.6,1558.6 1389.7,1553.1 1363.7,1548.0 1337.7,1543.4 1311.7,1539.2 1285.6,1535.5 1259.6,1532.2 1233.5,1529.3 1207.5,1526.9 1181.6,1525.0 1155.7,1523.4 1129.9,1522.2 1104.2,1521.5 1078.6,1521.0 1053.2,1521.0 1027.9,1521.3 1002.9,1521.9 978.0,1522.9  A 522.500,522.500 0.00 0,1 977.8,1481.7 L 977.8,1481.7 1003.2,1482.7 1028.7,1483.9 1054.3,1485.4 1080.1,1487.2 1106.0,1489.3 1131.9,1491.7 1158.0,1494.3 1184.1,1497.3 1210.3,1500.6 1236.5,1504.2 1262.8,1508.1 1289.0,1512.4 1315.3,1517.0 1341.5,1521.9 1367.7,1527.2 1393.9,1532.9 1420.0,1538.8 1446.1,1545.1 1472.1,1551.8 1498.0,1558.8 1523.8,1566.2 1549.5,1573.8 1575.1,1581.8 1600.5,1590.1 1625.9,1598.8 1651.0,1607.7 1676.0,1617.0 1700.9,1626.5 1725.5,1636.3 1750.0,1646.4 1774.2,1656.8 1798.3,1667.4 1822.2,1678.2 1845.8,1689.3 1869.2,1700.5 1892.3,1711.9 1915.3,1723.6 1937.9,1735.3 1960.3,1747.2  Z" style="stroke-width: 0.5;  stroke: rgb(0,0,0); fill: rgb(179,177,178);" />
<path d="M 1823.098,1910.626 A 522.500,522.500 0.00 0,1 1796.0,1930.6 L 1796.0,1930.6 1783.0,1912.1 1769.4,1893.7 1755.3,1875.6 1740.6,1857.8 1725.4,1840.4 1709.7,1823.5 1693.5,1807.0 1676.7,1791.1 1659.5,1775.8 1641.8,1761.2 1623.7,1747.3 1605.1,1734.2 1586.1,1721.8 1566.7,1710.2 1546.9,1699.5 1526.7,1689.7 1506.2,1680.8 1485.3,1672.7 1464.1,1665.6 1442.7,1659.5 1421.0,1654.3 1399.0,1650.0 1376.9,1646.8 1354.5,1644.4 1332.1,1643.0 1309.5,1642.5 1286.8,1642.9 1264.1,1644.2 1241.3,1646.4 1218.6,1649.5 1195.9,1653.3 1173.3,1657.9 1150.8,1663.3 1128.5,1669.4 1106.4,1676.1 1084.5,1683.4 1063.0,1691.2 1041.7,1699.6 1020.9,1708.4  A 522.500,522.500 0.00 0,1 1008.4,1677.1 L 1008.4,1677.1 1030.2,1669.6 1052.2,1662.5 1074.6,1655.8 1097.3,1649.7 1120.2,1644.2 1143.3,1639.3 1166.6,1635.0 1190.0,1631.5 1213.5,1628.6 1237.0,1626.6 1260.6,1625.3 1284.1,1624.8 1307.6,1625.2 1331.1,1626.4 1354.4,1628.4 1377.6,1631.4 1400.7,1635.2 1423.5,1639.8 1446.2,1645.4 1468.6,1651.8 1490.8,1659.1 1512.6,1667.3 1534.2,1676.2 1555.4,1686.1 1576.3,1696.7 1596.8,1708.1 1617.0,1720.2 1636.7,1733.1 1656.0,1746.7 1674.9,1760.9 1693.3,1775.7 1711.3,1791.1 1728.8,1807.1 1745.8,1823.5 1762.3,1840.3 1778.3,1857.5 1793.7,1875.0 1808.7,1892.7 1823.1,1910.6  Z" style="stroke-width: 0.5;  stroke: rgb(0,0,0); fill: rgb(179,177,178);" />
<path d="M 1500.000,977.500 A 522.500,522.500 0.00 0,1 1512.2,977.6 L 1512.2,977.6 1511.6,997.9 1510.8,1018.0 1509.8,1037.8 1508.5,1057.2 1506.9,1076.1 1505.0,1094.3 1502.8,1111.8 1500.3,1128.5 1497.6,1144.2 1494.5,1158.8 1491.1,1172.3 1487.3,1184.7 1483.3,1195.8 1478.9,1205.5 1474.2,1214.0 1469.2,1221.0 1463.8,1226.6 1458.2,1230.7 1452.3,1233.4 1446.1,1234.6 1439.6,1234.3 1432.8,1232.5 1425.8,1229.3 1418.5,1224.6 1411.1,1218.5 1403.4,1211.0 1395.5,1202.2 1387.5,1192.1 1379.3,1180.8 1371.1,1168.3 1362.7,1154.8 1354.3,1140.2 1345.8,1124.8 1337.3,1108.5 1328.9,1091.5 1320.5,1073.9 1312.2,1055.9 1304.1,1037.5 1296.1,1018.9  A 522.500,522.500 0.00 0,1 1320.8,1009.2 L 1320.8,1009.2 1327.8,1028.1 1335.0,1046.8 1342.2,1065.3 1349.5,1083.2 1356.9,1100.5 1364.2,1117.2 1371.6,1133.0 1378.9,1148.0 1386.1,1161.9 1393.2,1174.8 1400.3,1186.5 1407.1,1196.9 1413.9,1206.1 1420.4,1213.9 1426.7,1220.4 1432.9,1225.4 1438.8,1228.9 1444.5,1231.0 1449.9,1231.6 1455.0,1230.7 1459.9,1228.3 1464.5,1224.4 1468.9,1219.0 1472.9,1212.2 1476.7,1204.0 1480.1,1194.4 1483.3,1183.5 1486.2,1171.3 1488.7,1157.9 1491.0,1143.4 1493.0,1127.8 1494.8,1111.3 1496.2,1093.9 1497.5,1075.7 1498.4,1056.9 1499.1,1037.5 1499.6,1017.7 1499.9,997.7 1500.0,977.5  Z" style="stroke-width: 0.5;  stroke: rgb(0,0,0); fill: rgb(179,177,178);" />
<path d="M 1921.995,1808.102 A 522.500,522.500 0.00 0,1 1902.4,1833.3 L 1902.4,1833.3 1883.6,1818.0 1864.5,1802.9 1844.9,1788.0 1824.9,1773.4 1804.4,1759.1 1783.7,1745.1 1762.5,1731.4 1741.0,1718.2 1719.1,1705.3 1696.9,1692.9 1674.3,1681.0 1651.5,1669.6 1628.3,1658.6 1604.9,1648.2 1581.2,1638.4 1557.2,1629.1 1533.1,1620.4 1508.7,1612.3 1484.1,1604.8 1459.3,1597.8 1434.4,1591.5 1409.3,1585.8 1384.1,1580.7 1358.8,1576.2 1333.5,1572.4 1308.0,1569.1 1282.6,1566.5 1257.1,1564.4 1231.6,1562.9 1206.2,1562.0 1180.8,1561.6 1155.5,1561.8 1130.4,1562.5 1105.3,1563.7 1080.5,1565.3 1055.8,1567.5 1031.3,1570.0 1007.1,1573.0 983.1,1576.3  A 522.500,522.500 0.00 0,1 979.5,1545.3 L 979.5,1545.3 1003.9,1543.4 1028.7,1541.8 1053.6,1540.5 1078.7,1539.7 1104.0,1539.2 1129.4,1539.2 1155.0,1539.6 1180.6,1540.5 1206.3,1541.8 1232.1,1543.6 1257.9,1546.0 1283.7,1548.8 1309.6,1552.1 1335.3,1556.0 1361.1,1560.4 1386.8,1565.3 1412.3,1570.8 1437.8,1576.8 1463.2,1583.3 1488.4,1590.3 1513.5,1597.9 1538.4,1605.9 1563.1,1614.5 1587.6,1623.6 1611.9,1633.1 1636.0,1643.1 1659.8,1653.6 1683.4,1664.6 1706.7,1675.9 1729.7,1687.7 1752.4,1699.9 1774.8,1712.4 1796.9,1725.2 1818.6,1738.4 1840.0,1751.9 1861.1,1765.6 1881.7,1779.6 1902.1,1793.8 1922.0,1808.1  Z" style="stroke-width: 0.5;  stroke: rgb(0,0,0); fill: rgb(179,177,178);" />
<path d="M 1927.226,1199.194 A 522.500,522.500 0.00 0,1 1944.8,1225.8 L 1944.8,1225.8 1923.8,1238.5 1902.5,1250.9 1880.9,1263.2 1858.9,1275.1 1836.5,1286.8 1813.9,1298.1 1790.9,1309.1 1767.6,1319.7 1744.1,1329.8 1720.2,1339.6 1696.2,1348.9 1671.8,1357.7 1647.3,1366.0 1622.5,1373.9 1597.6,1381.2 1572.4,1388.0 1547.2,1394.3 1521.7,1400.0 1496.2,1405.2 1470.5,1409.8 1444.8,1413.9 1418.9,1417.4 1393.0,1420.3 1367.1,1422.7 1341.2,1424.5 1315.2,1425.8 1289.3,1426.6 1263.4,1426.8 1237.6,1426.5 1211.9,1425.7 1186.3,1424.3 1160.8,1422.5 1135.4,1420.3 1110.2,1417.6 1085.2,1414.4 1060.4,1410.9 1035.9,1407.0 1011.6,1402.7 987.5,1398.1  A 522.500,522.500 0.00 0,1 994.7,1367.0 L 994.7,1367.0 1018.0,1373.0 1041.7,1378.6 1065.7,1383.8 1089.9,1388.5 1114.3,1392.9 1139.0,1396.7 1163.9,1400.1 1188.9,1402.9 1214.0,1405.2 1239.3,1406.9 1264.7,1408.0 1290.1,1408.6 1315.6,1408.5 1341.0,1407.8 1366.5,1406.5 1392.0,1404.5 1417.4,1401.9 1442.8,1398.7 1468.1,1394.8 1493.2,1390.3 1518.3,1385.1 1543.2,1379.3 1567.9,1372.9 1592.5,1365.8 1616.8,1358.2 1641.0,1349.9 1664.9,1341.1 1688.5,1331.7 1711.9,1321.8 1735.0,1311.4 1757.7,1300.5 1780.2,1289.1 1802.3,1277.3 1824.1,1265.1 1845.5,1252.5 1866.5,1239.6 1887.2,1226.4 1907.4,1212.9 1927.2,1199.2  Z" style="stroke-width: 0.5;  stroke: rgb(0,0,0); fill: rgb(179,177,178);" />
<path d="M 1686.896,1987.931 A 522.500,522.500 0.00 0,1 1656.8,1998.4 L 1656.8,1998.4 1650.2,1978.2 1643.1,1958.1 1635.5,1938.2 1627.3,1918.7 1618.7,1899.6 1609.5,1881.1 1599.8,1863.2 1589.5,1845.9 1578.8,1829.5 1567.6,1813.9 1555.8,1799.2 1543.5,1785.5 1530.8,1772.8 1517.6,1761.1 1503.9,1750.6 1489.8,1741.3 1475.3,1733.1 1460.3,1726.1 1445.0,1720.3 1429.3,1715.8 1413.2,1712.5 1396.8,1710.5 1380.2,1709.7 1363.2,1710.1 1346.1,1711.7 1328.7,1714.5 1311.2,1718.5 1293.5,1723.6 1275.7,1729.7 1257.9,1737.0 1240.0,1745.2 1222.2,1754.3 1204.4,1764.3 1186.8,1775.1 1169.3,1786.7 1152.0,1798.8 1135.0,1811.6 1118.2,1824.8 1101.9,1838.4  A 522.500,522.500 0.00 0,1 1082.0,1813.6 L 1082.0,1813.6 1099.4,1800.8 1117.1,1788.5 1135.2,1776.7 1153.5,1765.4 1172.1,1754.8 1190.8,1744.9 1209.7,1735.8 1228.7,1727.5 1247.6,1720.2 1266.6,1713.8 1285.6,1708.4 1304.5,1704.1 1323.2,1700.8 1341.8,1698.7 1360.3,1697.7 1378.5,1697.9 1396.4,1699.3 1414.1,1701.8 1431.5,1705.5 1448.6,1710.4 1465.3,1716.5 1481.6,1723.8 1497.5,1732.2 1513.0,1741.8 1528.1,1752.4 1542.7,1764.1 1556.9,1776.9 1570.6,1790.6 1583.7,1805.2 1596.4,1820.7 1608.6,1837.1 1620.2,1854.2 1631.3,1871.9 1641.9,1890.3 1652.0,1909.1 1661.5,1928.4 1670.5,1948.1 1679.0,1967.9 1686.9,1987.9  Z" style="stroke-width: 0.5;  stroke: rgb(0,0,0); fill: rgb(179,177,178);" />
<path d="M 1794.176,1931.818 A 522.500,522.500 0.00 0,1 1768.1,1948.5 L 1768.1,1948.5 1756.4,1929.4 1744.2,1910.6 1731.4,1891.9 1718.1,1873.6 1704.2,1855.7 1689.8,1838.3 1674.9,1821.3 1659.4,1805.0 1643.5,1789.3 1627.0,1774.4 1610.1,1760.2 1592.7,1746.7 1574.9,1734.2 1556.6,1722.4 1538.0,1711.6 1518.9,1701.8 1499.5,1692.9 1479.7,1685.0 1459.5,1678.0 1439.1,1672.1 1418.4,1667.2 1397.4,1663.3 1376.2,1660.5 1354.8,1658.6 1333.3,1657.8 1311.6,1657.9 1289.8,1659.0 1267.9,1661.1 1246.0,1664.1 1224.1,1667.9 1202.3,1672.7 1180.5,1678.2 1158.8,1684.5 1137.3,1691.6 1116.0,1699.3 1095.0,1707.7 1074.2,1716.6 1053.8,1726.0 1033.7,1735.8  A 522.500,522.500 0.00 0,1 1020.8,1708.3 L 1020.8,1708.3 1041.7,1699.5 1062.9,1691.2 1084.5,1683.3 1106.3,1676.0 1128.4,1669.3 1150.7,1663.3 1173.2,1657.9 1195.8,1653.3 1218.4,1649.5 1241.1,1646.5 1263.9,1644.3 1286.6,1643.0 1309.2,1642.6 1331.8,1643.1 1354.2,1644.6 1376.5,1647.0 1398.6,1650.3 1420.5,1654.6 1442.2,1659.8 1463.6,1666.0 1484.7,1673.1 1505.6,1681.2 1526.0,1690.2 1546.2,1700.0 1565.9,1710.8 1585.3,1722.4 1604.2,1734.8 1622.7,1748.0 1640.8,1762.0 1658.4,1776.7 1675.5,1792.0 1692.2,1807.9 1708.3,1824.4 1724.0,1841.4 1739.1,1858.9 1753.7,1876.7 1767.7,1894.9 1781.2,1913.3 1794.2,1931.8  Z" style="stroke-width: 0.5;  stroke: rgb(0,0,0); fill: rgb(179,177,178);" />
<path d="M 1843.077,1105.913 A 522.500,522.500 0.00 0,1 1859.7,1121.0 L 1859.7,1121.0 1843.7,1137.5 1827.2,1153.7 1810.2,1169.7 1792.7,1185.3 1774.8,1200.4 1756.4,1215.1 1737.5,1229.3 1718.2,1242.9 1698.6,1255.9 1678.5,1268.2 1658.1,1279.8 1637.3,1290.7 1616.1,1300.8 1594.7,1310.1 1573.0,1318.6 1551.0,1326.3 1528.8,1333.1 1506.3,1339.0 1483.7,1344.0 1460.8,1348.1 1437.8,1351.3 1414.7,1353.6 1391.5,1355.0 1368.3,1355.5 1344.9,1355.2 1321.6,1353.9 1298.3,1351.8 1275.0,1348.9 1251.8,1345.2 1228.7,1340.6 1205.7,1335.3 1182.9,1329.3 1160.3,1322.6 1137.9,1315.3 1115.8,1307.3 1093.9,1298.8 1072.4,1289.8 1051.3,1280.4 1030.6,1270.5  A 522.500,522.500 0.00 0,1 1041.1,1250.1 L 1041.1,1250.1 1061.2,1260.7 1081.7,1271.0 1102.6,1280.7 1123.8,1290.0 1145.3,1298.7 1167.0,1306.8 1189.0,1314.2 1211.2,1320.9 1233.6,1326.8 1256.1,1332.0 1278.7,1336.3 1301.4,1339.7 1324.1,1342.3 1346.8,1344.0 1369.5,1344.7 1392.1,1344.6 1414.7,1343.4 1437.2,1341.4 1459.5,1338.3 1481.7,1334.3 1503.7,1329.4 1525.4,1323.5 1547.0,1316.7 1568.3,1309.0 1589.3,1300.4 1610.0,1290.9 1630.4,1280.6 1650.4,1269.4 1670.1,1257.5 1689.4,1244.9 1708.3,1231.5 1726.8,1217.5 1744.8,1202.9 1762.4,1187.8 1779.6,1172.1 1796.2,1156.0 1812.3,1139.6 1828.0,1122.9 1843.1,1105.9  Z" style="stroke-width: 0.5;  stroke: rgb(0,0,0); fill: rgb(179,177,178);" />
<path d="M 1838.504,1898.021 A 522.500,522.500 0.00 0,1 1823.5,1910.3 L 1823.5,1910.3 1809.1,1892.4 1794.1,1874.7 1778.6,1857.2 1762.6,1840.0 1746.1,1823.2 1729.1,1806.8 1711.6,1790.9 1693.6,1775.5 1675.2,1760.7 1656.3,1746.5 1636.9,1732.9 1617.2,1720.0 1597.0,1707.9 1576.5,1696.5 1555.6,1685.9 1534.4,1676.1 1512.8,1667.1 1490.9,1659.0 1468.7,1651.7 1446.3,1645.3 1423.6,1639.8 1400.8,1635.1 1377.7,1631.3 1354.5,1628.4 1331.1,1626.3 1307.7,1625.1 1284.2,1624.8 1260.6,1625.3 1237.0,1626.5 1213.5,1628.6 1190.0,1631.4 1166.6,1635.0 1143.3,1639.2 1120.2,1644.1 1097.3,1649.7 1074.6,1655.8 1052.2,1662.4 1030.2,1669.6 1008.4,1677.1  A 522.500,522.500 0.00 0,1 1002.2,1658.6 L 1002.2,1658.6 1024.3,1651.8 1046.9,1645.4 1069.7,1639.5 1092.8,1634.1 1116.1,1629.3 1139.7,1625.1 1163.4,1621.5 1187.2,1618.5 1211.1,1616.3 1235.1,1614.8 1259.1,1614.1 1283.1,1614.1 1307.0,1614.9 1330.9,1616.5 1354.7,1618.9 1378.4,1622.2 1401.9,1626.3 1425.2,1631.2 1448.4,1636.9 1471.3,1643.5 1494.0,1650.9 1516.4,1659.1 1538.5,1668.0 1560.4,1677.8 1581.8,1688.4 1603.0,1699.6 1623.7,1711.6 1644.1,1724.3 1664.0,1737.6 1683.6,1751.6 1702.7,1766.1 1721.4,1781.2 1739.6,1796.8 1757.3,1812.8 1774.5,1829.3 1791.3,1846.1 1807.5,1863.2 1823.3,1880.5 1838.5,1898.0  Z" style="stroke-width: 0.5;  stroke: rgb(0,0,0); fill: rgb(179,177,178);" />
<path d="M 1936.548,1787.110 A 522.500,522.500 0.00 0,1 1926.0,1802.5 L 1926.0,1802.5 1905.9,1788.4 1885.3,1774.4 1864.4,1760.7 1843.2,1747.2 1821.6,1733.9 1799.6,1721.0 1777.4,1708.3 1754.8,1696.0 1731.9,1684.1 1708.8,1672.5 1685.3,1661.3 1661.6,1650.6 1637.7,1640.2 1613.5,1630.4 1589.0,1621.0 1564.4,1612.0 1539.6,1603.6 1514.6,1595.6 1489.4,1588.2 1464.1,1581.2 1438.7,1574.8 1413.1,1568.9 1387.4,1563.5 1361.7,1558.6 1335.9,1554.2 1310.1,1550.4 1284.2,1547.0 1258.3,1544.2 1232.4,1541.8 1206.6,1540.0 1180.8,1538.6 1155.2,1537.7 1129.6,1537.2 1104.1,1537.2 1078.7,1537.5 1053.6,1538.3 1028.6,1539.5 1003.8,1541.0 979.3,1542.8  A 522.500,522.500 0.00 0,1 978.1,1524.2 L 978.1,1524.2 1002.9,1523.2 1027.9,1522.5 1053.1,1522.2 1078.5,1522.2 1104.0,1522.5 1129.7,1523.3 1155.5,1524.4 1181.3,1526.0 1207.3,1528.0 1233.2,1530.4 1259.2,1533.2 1285.3,1536.5 1311.3,1540.3 1337.3,1544.5 1363.3,1549.2 1389.2,1554.3 1415.0,1559.9 1440.7,1566.0 1466.4,1572.5 1491.9,1579.5 1517.3,1587.0 1542.5,1594.9 1567.6,1603.3 1592.5,1612.1 1617.2,1621.3 1641.8,1630.9 1666.0,1641.0 1690.1,1651.4 1713.9,1662.2 1737.5,1673.4 1760.8,1684.9 1783.9,1696.8 1806.6,1709.0 1829.1,1721.4 1851.2,1734.1 1873.0,1747.1 1894.5,1760.2 1915.7,1773.6 1936.5,1787.1  Z" style="stroke-width: 0.5;  stroke: rgb(0,0,0); fill: rgb(179,177,178);" />
<path d="M 1973.906,1279.955 A 522.500,522.500 0.00 0,1 1980.5,1294.6 L 1980.5,1294.6 1957.1,1304.5 1933.5,1314.2 1909.6,1323.7 1885.5,1333.1 1861.2,1342.2 1836.7,1351.1 1812.0,1359.8 1787.1,1368.2 1762.0,1376.4 1736.7,1384.2 1711.3,1391.8 1685.7,1399.1 1660.0,1406.1 1634.1,1412.8 1608.2,1419.1 1582.1,1425.2 1555.9,1430.9 1529.6,1436.2 1503.2,1441.2 1476.8,1445.9 1450.3,1450.2 1423.8,1454.2 1397.2,1457.9 1370.7,1461.1 1344.1,1464.1 1317.5,1466.7 1290.9,1468.9 1264.4,1470.9 1237.9,1472.4 1211.5,1473.7 1185.1,1474.7 1158.8,1475.3 1132.6,1475.6 1106.6,1475.7 1080.6,1475.4 1054.8,1474.9 1029.1,1474.1 1003.6,1473.1 978.3,1471.9  A 522.500,522.500 0.00 0,1 979.4,1455.8 L 979.4,1455.8 1004.5,1457.8 1029.8,1459.5 1055.2,1461.0 1080.9,1462.2 1106.7,1463.1 1132.6,1463.6 1158.7,1463.9 1184.8,1463.8 1211.1,1463.3 1237.4,1462.5 1263.8,1461.4 1290.3,1459.8 1316.7,1457.9 1343.2,1455.6 1369.7,1452.9 1396.2,1449.8 1422.7,1446.4 1449.1,1442.5 1475.5,1438.2 1501.8,1433.6 1528.1,1428.5 1554.2,1423.1 1580.3,1417.3 1606.2,1411.1 1632.0,1404.5 1657.7,1397.6 1683.2,1390.3 1708.6,1382.7 1733.8,1374.8 1758.8,1366.5 1783.6,1357.9 1808.2,1349.0 1832.6,1339.9 1856.8,1330.4 1880.7,1320.8 1904.4,1310.9 1927.9,1300.7 1951.0,1290.4 1973.9,1280.0  Z" style="stroke-width: 0.5;  stroke: rgb(0,0,0); fill: rgb(179,177,178);" />
<path d="M 1869.715,1130.788 A 522.500,522.500 0.00 0,1 1879.7,1141.1 L 1879.7,1141.1 1862.7,1156.9 1845.1,1172.5 1827.1,1187.8 1808.6,1202.7 1789.6,1217.2 1770.2,1231.3 1750.4,1244.9 1730.1,1258.0 1709.5,1270.4 1688.5,1282.3 1667.2,1293.5 1645.5,1304.0 1623.5,1313.9 1601.2,1322.9 1578.7,1331.2 1555.9,1338.8 1532.8,1345.5 1509.6,1351.4 1486.2,1356.5 1462.6,1360.8 1438.9,1364.3 1415.0,1366.9 1391.1,1368.7 1367.1,1369.6 1343.0,1369.7 1319.0,1369.1 1295.0,1367.6 1271.0,1365.4 1247.1,1362.4 1223.2,1358.6 1199.6,1354.2 1176.0,1349.0 1152.7,1343.3 1129.6,1336.9 1106.7,1329.9 1084.1,1322.5 1061.9,1314.5 1040.0,1306.1 1018.4,1297.3  A 522.500,522.500 0.00 0,1 1024.2,1284.1 L 1024.2,1284.1 1045.3,1293.4 1066.9,1302.4 1088.8,1310.8 1111.0,1318.8 1133.5,1326.3 1156.2,1333.1 1179.2,1339.3 1202.4,1344.9 1225.8,1349.8 1249.2,1353.9 1272.8,1357.2 1296.5,1359.8 1320.1,1361.6 1343.8,1362.5 1367.5,1362.6 1391.2,1361.9 1414.8,1360.3 1438.3,1357.8 1461.6,1354.5 1484.8,1350.2 1507.9,1345.2 1530.7,1339.2 1553.4,1332.5 1575.8,1324.9 1597.9,1316.5 1619.8,1307.2 1641.4,1297.3 1662.6,1286.6 1683.5,1275.1 1704.0,1263.0 1724.2,1250.3 1743.9,1236.9 1763.3,1223.0 1782.2,1208.6 1800.7,1193.8 1818.6,1178.5 1836.2,1162.9 1853.2,1146.9 1869.7,1130.8  Z" style="stroke-width: 0.5;  stroke: rgb(0,0,0); fill: rgb(179,177,178);" />
<path d="M 1860.178,1121.479 A 522.500,522.500 0.00 0,1 1869.2,1130.3 L 1869.2,1130.3 1852.7,1146.4 1835.7,1162.4 1818.2,1178.0 1800.2,1193.3 1781.8,1208.2 1762.9,1222.6 1743.6,1236.6 1723.9,1249.9 1703.8,1262.7 1683.2,1274.8 1662.4,1286.2 1641.2,1296.9 1619.6,1306.9 1597.8,1316.1 1575.6,1324.6 1553.3,1332.2 1530.6,1338.9 1507.8,1344.9 1484.8,1350.0 1461.6,1354.2 1438.2,1357.5 1414.7,1360.0 1391.2,1361.6 1367.6,1362.3 1343.9,1362.2 1320.2,1361.2 1296.5,1359.5 1272.9,1356.9 1249.3,1353.5 1225.9,1349.4 1202.5,1344.5 1179.4,1338.9 1156.4,1332.7 1133.7,1325.8 1111.2,1318.3 1089.0,1310.3 1067.1,1301.8 1045.6,1292.9 1024.5,1283.5  A 522.500,522.500 0.00 0,1 1029.9,1271.9 L 1029.9,1271.9 1050.7,1281.7 1071.8,1291.1 1093.4,1300.1 1115.2,1308.5 1137.4,1316.4 1159.8,1323.7 1182.5,1330.3 1205.3,1336.3 1228.3,1341.5 1251.5,1346.0 1274.7,1349.7 1298.0,1352.6 1321.4,1354.7 1344.7,1355.9 1368.1,1356.2 1391.4,1355.6 1414.6,1354.2 1437.8,1351.8 1460.8,1348.6 1483.6,1344.5 1506.3,1339.4 1528.8,1333.5 1551.0,1326.7 1573.1,1319.0 1594.8,1310.5 1616.3,1301.2 1637.4,1291.1 1658.2,1280.2 1678.7,1268.6 1698.8,1256.3 1718.5,1243.3 1737.8,1229.7 1756.7,1215.5 1775.1,1200.9 1793.1,1185.7 1810.6,1170.1 1827.6,1154.2 1844.2,1137.9 1860.2,1121.5  Z" style="stroke-width: 0.5;  stroke: rgb(0,0,0); fill: rgb(179,177,178);" />
<path d="M 1661.299,1003.020 A 522.500,522.500 0.00 0,1 1672.4,1006.8 L 1672.4,1006.8 1665.2,1026.5 1657.6,1046.1 1649.6,1065.4 1641.1,1084.4 1632.1,1102.8 1622.7,1120.7 1612.9,1137.8 1602.6,1154.2 1591.9,1169.7 1580.8,1184.3 1569.3,1197.9 1557.4,1210.5 1545.1,1221.9 1532.4,1232.2 1519.5,1241.2 1506.1,1249.1 1492.5,1255.6 1478.6,1260.9 1464.4,1264.9 1449.9,1267.5 1435.2,1268.9 1420.4,1268.9 1405.3,1267.6 1390.0,1265.0 1374.7,1261.1 1359.2,1256.0 1343.7,1249.6 1328.1,1242.1 1312.5,1233.5 1297.0,1223.8 1281.5,1213.0 1266.0,1201.4 1250.8,1188.8 1235.6,1175.5 1220.7,1161.4 1206.0,1146.7 1191.7,1131.5 1177.6,1115.9 1163.9,1099.9  A 522.500,522.500 0.00 0,1 1172.9,1092.5 L 1172.9,1092.5 1186.2,1108.7 1199.9,1124.6 1213.8,1140.1 1228.0,1155.0 1242.5,1169.3 1257.2,1182.9 1272.0,1195.7 1286.9,1207.7 1301.9,1218.6 1317.0,1228.6 1332.1,1237.5 1347.1,1245.2 1362.2,1251.7 1377.1,1257.1 1391.9,1261.1 1406.6,1263.9 1421.1,1265.3 1435.5,1265.5 1449.6,1264.3 1463.5,1261.7 1477.2,1257.8 1490.5,1252.6 1503.6,1246.1 1516.3,1238.3 1528.8,1229.3 1540.9,1219.0 1552.6,1207.5 1563.9,1195.0 1574.9,1181.3 1585.4,1166.7 1595.6,1151.1 1605.3,1134.7 1614.6,1117.4 1623.5,1099.5 1631.9,1081.0 1639.9,1062.0 1647.5,1042.6 1654.6,1022.9 1661.3,1003.0  Z" style="stroke-width: 0.5;  stroke: rgb(0,0,0); fill: rgb(179,177,178);" />
<path d="M 1699.083,1983.086 A 522.500,522.500 0.00 0,1 1690.3,1986.6 L 1690.3,1986.6 1682.2,1966.6 1673.6,1946.8 1664.4,1927.2 1654.8,1907.9 1644.5,1889.0 1633.8,1870.7 1622.5,1852.9 1610.7,1835.8 1598.3,1819.5 1585.5,1804.0 1572.1,1789.3 1558.2,1775.6 1543.9,1762.8 1529.1,1751.0 1513.8,1740.3 1498.1,1730.7 1482.0,1722.2 1465.5,1714.9 1448.6,1708.7 1431.4,1703.7 1413.8,1699.8 1395.9,1697.2 1377.7,1695.7 1359.3,1695.4 1340.7,1696.2 1321.9,1698.2 1303.0,1701.3 1283.9,1705.4 1264.8,1710.6 1245.6,1716.8 1226.4,1724.0 1207.2,1732.1 1188.2,1741.0 1169.3,1750.7 1150.5,1761.1 1132.0,1772.2 1113.7,1783.8 1095.8,1795.9 1078.3,1808.5  A 522.500,522.500 0.00 0,1 1072.7,1800.7 L 1072.7,1800.7 1090.5,1788.4 1108.8,1776.6 1127.3,1765.3 1146.1,1754.5 1165.2,1744.3 1184.4,1734.9 1203.8,1726.3 1223.2,1718.5 1242.8,1711.6 1262.3,1705.6 1281.8,1700.7 1301.2,1696.8 1320.5,1693.9 1339.6,1692.1 1358.6,1691.5 1377.4,1692.0 1395.9,1693.6 1414.1,1696.4 1432.1,1700.4 1449.7,1705.5 1467.0,1711.8 1483.9,1719.3 1500.4,1727.8 1516.5,1737.5 1532.2,1748.2 1547.4,1760.0 1562.1,1772.7 1576.4,1786.5 1590.2,1801.1 1603.4,1816.6 1616.2,1832.9 1628.4,1849.9 1640.1,1867.6 1651.3,1885.9 1661.9,1904.7 1672.0,1923.9 1681.6,1943.4 1690.6,1963.2 1699.1,1983.1  Z" style="stroke-width: 0.5;  stroke: rgb(0,0,0); fill: rgb(179,177,178);" />
<path d="M 1901.908,1833.880 A 522.500,522.500 0.00 0,1 1896.6,1840.2 L 1896.6,1840.2 1878.2,1824.6 1859.3,1809.3 1840.0,1794.2 1820.3,1779.3 1800.2,1764.7 1779.7,1750.5 1758.8,1736.6 1737.5,1723.2 1715.9,1710.1 1693.9,1697.6 1671.6,1685.5 1649.0,1673.9 1626.0,1662.9 1602.8,1652.4 1579.3,1642.4 1555.5,1633.1 1531.5,1624.3 1507.3,1616.2 1482.8,1608.6 1458.2,1601.7 1433.4,1595.5 1408.5,1589.8 1383.4,1584.8 1358.2,1580.5 1333.0,1576.7 1307.7,1573.6 1282.3,1571.1 1257.0,1569.2 1231.6,1568.0 1206.3,1567.3 1181.1,1567.2 1155.9,1567.6 1130.8,1568.6 1105.9,1570.1 1081.2,1572.1 1056.6,1574.5 1032.3,1577.4 1008.2,1580.7 984.4,1584.4  A 522.500,522.500 0.00 0,1 983.1,1576.3 L 983.1,1576.3 1007.1,1573.0 1031.3,1570.0 1055.8,1567.5 1080.4,1565.3 1105.3,1563.7 1130.3,1562.5 1155.5,1561.8 1180.8,1561.6 1206.2,1562.0 1231.6,1562.9 1257.0,1564.4 1282.5,1566.5 1308.0,1569.2 1333.4,1572.5 1358.7,1576.3 1384.0,1580.8 1409.2,1585.9 1434.3,1591.6 1459.2,1598.0 1483.9,1604.9 1508.5,1612.5 1532.9,1620.6 1557.1,1629.3 1581.0,1638.6 1604.7,1648.5 1628.1,1658.9 1651.2,1669.9 1674.1,1681.3 1696.6,1693.3 1718.8,1705.7 1740.7,1718.6 1762.2,1731.8 1783.3,1745.5 1804.1,1759.5 1824.5,1773.9 1844.5,1788.5 1864.0,1803.5 1883.2,1818.6 1901.9,1833.9  Z" style="stroke-width: 0.5;  stroke: rgb(0,0,0); fill: rgb(179,177,178);" />
</g>
<g id="plot0">
<g id="plot0-axis">
</g>
<line x1='2245.3' y1='1583.8' x2='2245.3' y2='1583.8' style="stroke-width:14.0;stroke:rgb(0,0,0);stroke-linecap:round;fill:none;" />
<line x1='2245.3' y1='1583.8' x2='2285.1' y2='1588.3' style="stroke-width:14.0;stroke:rgb(0,0,0);stroke-linecap:round;fill:none;" />
<line x1='2285.1' y1='1588.3' x2='2285.1' y2='1588.3' style="stroke-width:14.0;stroke:rgb(0,0,0);stroke-linecap:round;fill:none;" />
<text x="2302.2" y="1612.4" font-size="46.8px" font-family="CMUBright-Roman" style="text-anchor:start;fill:rgb(255,38,78);" transform="rotate(6.4,2302.2,1612.4)" >Histocap343p18<tspan baseline-shift="-40%" font-size="90%">s</tspan>02076</text>
</g>
<defs>
<pattern id="hline-sparse" width="10" height="10" patternTransform="rotate(0 0 0)" patternUnits="userSpaceOnUse"><line x1="0" y1="0" x2="10" y2="0" style="stroke:black;stroke-width:2" /></pattern>
<pattern id="checker" width="10" height="10" patternTransform="rotate(45 0 0)" patternUnits="userSpaceOnUse"><line x1="0" y1="0" x2="10" y2="0" style="stroke:black;stroke-width:5" /><line x1="0" y1="0" x2="0" y2="10" style="stroke:black;stroke-width:4" /></pattern>
<pattern id="vline" width="10" height="10" patternTransform="rotate(0 0 0)" patternUnits="userSpaceOnUse"><line x1="0" y1="0" x2="0" y2="10" style="stroke:black;stroke-width:5" /></pattern>
<pattern id="hline" width="10" height="10" patternTransform="rotate(0 0 0)" patternUnits="userSpaceOnUse"><line x1="0" y1="0" x2="10" y2="0" style="stroke:black;stroke-width:5" /></pattern>
<pattern id="vline-sparse" width="10" height="10" patternTransform="rotate(0 0 0)" patternUnits="userSpaceOnUse"><line x1="0" y1="0" x2="0" y2="10" style="stroke:black;stroke-width:2" /></pattern>
<pattern id="checker" width="10" height="10" patternTransform="rotate(45 0 0)" patternUnits="userSpaceOnUse"><line x1="0" y1="0" x2="10" y2="0" style="stroke:black;stroke-width:2" /><line x1="0" y1="0" x2="0" y2="10" style="stroke:black;stroke-width:2" /></pattern>
</defs>
</svg>
