<?xml version="1.0" encoding="utf-8" standalone="no"?>
<!DOCTYPE svg PUBLIC "-//W3C//DTD SVG 1.1//EN" "http://www.w3.org/Graphics/SVG/1.1/DTD/svg11.dtd">
<svg width="3000px" height="3000px" version="1.1" xmlns="http://www.w3.org/2000/svg" xmlns:xlink="http://www.w3.org/1999/xlink">
<g id="bg">
<rect x="0" y="0" width="3000px" height="3000px" style="fill:rgb(255,255,255);"/>
</g>
<g id="ideograms">
<path d="M1500.000,950.000 A550.000,550.000 40.000 0,1 1611.531,2038.573 L1652.088,2234.418 A750.000,750.000 0.000 0,0 1500.000,750.000 Z" style="stroke-width:2.0;stroke:rgb(0,0,0);stroke-linecap:round;fill:rgb(179,177,178);" />
<text x="2469.9" y="1400.6" font-size="46.8px" font-family="CMUBright-Roman" style="text-anchor:middle;fill:rgb(0,0,0);" transform="rotate(444.2,2469.9,1400.6)" >HistomissSECH89<tspan baseline-shift="-40%" font-size="90%">3</tspan></text>
<line x1='1552.3' y1='751.8' x2='1553.2' y2='739.9' style="stroke-width:8.0;stroke:rgb(150,150,150);stroke-linecap:round;fill:none;" />
<line x1='1647.9' y1='764.7' x2='1650.2' y2='753.0' style="stroke-width:8.0;stroke:rgb(150,150,150);stroke-linecap:round;fill:none;" />
<line x1='1741.0' y1='789.8' x2='1744.8' y2='778.4' style="stroke-width:8.0;stroke:rgb(150,150,150);stroke-linecap:round;fill:none;" />
<text x="1761.9" y="771.7" font-size="41.6px" font-family="CMUBright-Roman" style="text-anchor:start;fill:rgb(150,150,150);" transform="rotate(288.7,1761.9,771.7)" >2600 kb</text>
<line x1='1830.1' y1='826.5' x2='1835.4' y2='815.8' style="stroke-width:8.0;stroke:rgb(150,150,150);stroke-linecap:round;fill:none;" />
<line x1='1913.7' y1='874.5' x2='1920.4' y2='864.4' style="stroke-width:8.0;stroke:rgb(150,150,150);stroke-linecap:round;fill:none;" />
<line x1='1990.6' y1='932.7' x2='1998.4' y2='923.6' style="stroke-width:8.0;stroke:rgb(150,150,150);stroke-linecap:round;fill:none;" />
<line x1='2059.3' y1='1000.3' x2='2068.2' y2='992.3' style="stroke-width:8.0;stroke:rgb(150,150,150);stroke-linecap:round;fill:none;" />
<line x1='2118.8' y1='1076.2' x2='2128.7' y2='1069.4' style="stroke-width:8.0;stroke:rgb(150,150,150);stroke-linecap:round;fill:none;" />
<text x="2146.4" y="1074.2" font-size="41.6px" font-family="CMUBright-Roman" style="text-anchor:start;fill:rgb(150,150,150);" transform="rotate(325.6,2146.4,1074.2)" >2650 kb</text>
<line x1='2168.0' y1='1159.1' x2='2178.7' y2='1153.6' style="stroke-width:8.0;stroke:rgb(150,150,150);stroke-linecap:round;fill:none;" />
<line x1='2206.2' y1='1247.6' x2='2217.5' y2='1243.5' style="stroke-width:8.0;stroke:rgb(150,150,150);stroke-linecap:round;fill:none;" />
<line x1='2232.8' y1='1340.3' x2='2244.5' y2='1337.7' style="stroke-width:8.0;stroke:rgb(150,150,150);stroke-linecap:round;fill:none;" />
<line x1='2247.2' y1='1435.6' x2='2259.2' y2='1434.6' style="stroke-width:8.0;stroke:rgb(150,150,150);stroke-linecap:round;fill:none;" />
<line x1='2249.3' y1='1532.0' x2='2261.3' y2='1532.5' style="stroke-width:8.0;stroke:rgb(150,150,150);stroke-linecap:round;fill:none;" />
<text x="2272.6" y="1547.0" font-size="41.6px" font-family="CMUBright-Roman" style="text-anchor:start;fill:rgb(150,150,150);" transform="rotate(2.4,2272.6,1547.0)" >2700 kb</text>
<line x1='2239.0' y1='1627.8' x2='2250.9' y2='1629.9' style="stroke-width:8.0;stroke:rgb(150,150,150);stroke-linecap:round;fill:none;" />
<line x1='2216.5' y1='1721.6' x2='2228.0' y2='1725.1' style="stroke-width:8.0;stroke:rgb(150,150,150);stroke-linecap:round;fill:none;" />
<line x1='2182.2' y1='1811.7' x2='2193.1' y2='1816.6' style="stroke-width:8.0;stroke:rgb(150,150,150);stroke-linecap:round;fill:none;" />
<line x1='2136.6' y1='1896.6' x2='2146.7' y2='1902.9' style="stroke-width:8.0;stroke:rgb(150,150,150);stroke-linecap:round;fill:none;" />
<line x1='2080.4' y1='1975.0' x2='2089.7' y2='1982.6' style="stroke-width:8.0;stroke:rgb(150,150,150);stroke-linecap:round;fill:none;" />
<text x="2090.0" y="2000.9" font-size="41.6px" font-family="CMUBright-Roman" style="text-anchor:start;fill:rgb(150,150,150);" transform="rotate(39.3,2090.0,2000.9)" >2750 kb</text>
<line x1='2014.7' y1='2045.5' x2='2022.9' y2='2054.2' style="stroke-width:8.0;stroke:rgb(150,150,150);stroke-linecap:round;fill:none;" />
<line x1='1940.5' y1='2107.0' x2='1947.5' y2='2116.7' style="stroke-width:8.0;stroke:rgb(150,150,150);stroke-linecap:round;fill:none;" />
<line x1='1859.0' y1='2158.5' x2='1864.7' y2='2169.1' style="stroke-width:8.0;stroke:rgb(150,150,150);stroke-linecap:round;fill:none;" />
<line x1='1771.5' y1='2199.1' x2='1775.9' y2='2210.3' style="stroke-width:8.0;stroke:rgb(150,150,150);stroke-linecap:round;fill:none;" />
<line x1='1679.6' y1='2228.2' x2='1682.5' y2='2239.8' style="stroke-width:8.0;stroke:rgb(150,150,150);stroke-linecap:round;fill:none;" />
<text x="1671.7" y="2254.7" font-size="41.6px" font-family="CMUBright-Roman" style="text-anchor:start;fill:rgb(150,150,150);" transform="rotate(76.1,1671.7,2254.7)" >2800 kb</text>
<g id="highlighttrack_0">
<path d="M2027.899,1345.652 A550.000,550.000 40.000 0,1 2048.230,1544.091 L2247.586,1560.124 A750.000,750.000 0.000 0,0 2219.862,1289.526 Z" style="stroke-width:14.0;stroke:rgb(0,0,0);stroke-linecap:round;fill:rgb(255,38,78);" />
</g>
<path d="M1500.000,950.000 A550.000,550.000 40.000 0,1 1611.531,2038.573 L1652.088,2234.418 A750.000,750.000 0.000 0,0 1500.000,750.000 Z" style="stroke-width:2.0;stroke:rgb(0,0,0);stroke-linecap:round;fill:none;" />
<path d="M1400.613,2040.946 A550.000,550.000 40.000 0,1 1292.982,990.448 L1217.703,805.156 A750.000,750.000 0.000 0,0 1364.472,2237.653 Z" style="stroke-width:2.0;stroke:rgb(0,0,0);stroke-linecap:round;fill:rgb(179,177,178);" />
<text x="485.3" y="1604.0" font-size="46.8px" font-family="CMUBright-Roman" style="text-anchor:middle;fill:rgb(0,0,0);" transform="rotate(84.2,485.3,1604.0)" >HistocapCB168<tspan baseline-shift="-40%" font-size="90%">3</tspan></text>
<line x1='1214.9' y1='806.3' x2='1210.4' y2='795.2' style="stroke-width:8.0;stroke:rgb(150,150,150);stroke-linecap:round;fill:none;" />
<line x1='1128.3' y1='848.6' x2='1122.4' y2='838.2' style="stroke-width:8.0;stroke:rgb(150,150,150);stroke-linecap:round;fill:none;" />
<text x="1104.3" y="834.8" font-size="41.6px" font-family="CMUBright-Roman" style="text-anchor:end;fill:rgb(150,150,150);" transform="rotate(60.3,1104.3,834.8)" >2950 kb</text>
<line x1='1047.8' y1='901.6' x2='1040.6' y2='892.1' style="stroke-width:8.0;stroke:rgb(150,150,150);stroke-linecap:round;fill:none;" />
<line x1='974.8' y1='964.6' x2='966.4' y2='956.0' style="stroke-width:8.0;stroke:rgb(150,150,150);stroke-linecap:round;fill:none;" />
<line x1='910.5' y1='1036.4' x2='901.0' y2='1029.0' style="stroke-width:8.0;stroke:rgb(150,150,150);stroke-linecap:round;fill:none;" />
<line x1='855.9' y1='1115.8' x2='845.5' y2='1109.7' style="stroke-width:8.0;stroke:rgb(150,150,150);stroke-linecap:round;fill:none;" />
<line x1='811.9' y1='1201.7' x2='800.9' y2='1196.9' style="stroke-width:8.0;stroke:rgb(150,150,150);stroke-linecap:round;fill:none;" />
<text x="784.4" y="1205.0" font-size="41.6px" font-family="CMUBright-Roman" style="text-anchor:end;fill:rgb(150,150,150);" transform="rotate(23.4,784.4,1205.0)" >3000 kb</text>
<line x1='779.3' y1='1292.4' x2='767.8' y2='1289.1' style="stroke-width:8.0;stroke:rgb(150,150,150);stroke-linecap:round;fill:none;" />
<line x1='758.6' y1='1386.6' x2='746.8' y2='1384.7' style="stroke-width:8.0;stroke:rgb(150,150,150);stroke-linecap:round;fill:none;" />
<line x1='750.2' y1='1482.6' x2='738.2' y2='1482.3' style="stroke-width:8.0;stroke:rgb(150,150,150);stroke-linecap:round;fill:none;" />
<line x1='754.2' y1='1578.9' x2='742.2' y2='1580.2' style="stroke-width:8.0;stroke:rgb(150,150,150);stroke-linecap:round;fill:none;" />
<line x1='770.5' y1='1673.9' x2='758.8' y2='1676.7' style="stroke-width:8.0;stroke:rgb(150,150,150);stroke-linecap:round;fill:none;" />
<text x="750.5" y="1693.1" font-size="41.6px" font-family="CMUBright-Roman" style="text-anchor:end;fill:rgb(150,150,150);" transform="rotate(-13.4,750.5,1693.1)" >3050 kb</text>
<line x1='798.8' y1='1766.1' x2='787.6' y2='1770.4' style="stroke-width:8.0;stroke:rgb(150,150,150);stroke-linecap:round;fill:none;" />
<line x1='838.7' y1='1853.8' x2='828.1' y2='1859.5' style="stroke-width:8.0;stroke:rgb(150,150,150);stroke-linecap:round;fill:none;" />
<line x1='889.6' y1='1935.8' x2='879.8' y2='1942.7' style="stroke-width:8.0;stroke:rgb(150,150,150);stroke-linecap:round;fill:none;" />
<line x1='950.5' y1='2010.5' x2='941.7' y2='2018.6' style="stroke-width:8.0;stroke:rgb(150,150,150);stroke-linecap:round;fill:none;" />
<line x1='1020.5' y1='2076.7' x2='1012.9' y2='2086.0' style="stroke-width:8.0;stroke:rgb(150,150,150);stroke-linecap:round;fill:none;" />
<text x="1016.0" y="2104.0" font-size="41.6px" font-family="CMUBright-Roman" style="text-anchor:end;fill:rgb(150,150,150);" transform="rotate(-50.3,1016.0,2104.0)" >3100 kb</text>
<line x1='1098.5' y1='2133.5' x2='1092.1' y2='2143.6' style="stroke-width:8.0;stroke:rgb(150,150,150);stroke-linecap:round;fill:none;" />
<line x1='1183.1' y1='2179.7' x2='1178.0' y2='2190.6' style="stroke-width:8.0;stroke:rgb(150,150,150);stroke-linecap:round;fill:none;" />
<line x1='1272.9' y1='2214.8' x2='1269.2' y2='2226.2' style="stroke-width:8.0;stroke:rgb(150,150,150);stroke-linecap:round;fill:none;" />
<path d="M1400.613,2040.946 A550.000,550.000 40.000 0,1 1292.982,990.448 L1217.703,805.156 A750.000,750.000 0.000 0,0 1364.472,2237.653 Z" style="stroke-width:2.0;stroke:rgb(0,0,0);stroke-linecap:round;fill:none;" />
</g>
<g id="track_0">
<path d="M 1500.000,977.500 A 522.500,522.500 0.00 0,1 1655.4,1001.1 L 1655.4,1001.1 1649.0,1021.0 1642.1,1040.8 1634.8,1060.3 1627.0,1079.3 1618.9,1097.9 1610.2,1115.9 1601.2,1133.2 1591.7,1149.7 1581.8,1165.4 1571.5,1180.1 1560.8,1193.8 1549.7,1206.4 1538.2,1217.9 1526.4,1228.2 1514.2,1237.3 1501.6,1245.1 1488.8,1251.7 1475.6,1256.9 1462.2,1260.8 1448.5,1263.4 1434.6,1264.6 1420.4,1264.5 1406.1,1263.0 1391.6,1260.3 1376.9,1256.2 1362.1,1250.9 1347.3,1244.4 1332.3,1236.6 1317.4,1227.7 1302.5,1217.8 1287.6,1206.8 1272.7,1194.8 1258.0,1182.0 1243.5,1168.3 1229.1,1154.0 1215.0,1139.0 1201.1,1123.5 1187.6,1107.6 1174.3,1091.4  A 522.500,522.500 0.00 0,1 1303.3,1015.9 L 1303.3,1015.9 1311.0,1034.6 1318.9,1053.1 1326.8,1071.2 1334.9,1088.9 1342.9,1106.0 1351.0,1122.4 1359.1,1138.0 1367.1,1152.6 1375.0,1166.3 1382.9,1178.9 1390.6,1190.3 1398.1,1200.5 1405.5,1209.4 1412.7,1217.0 1419.6,1223.2 1426.4,1228.0 1432.8,1231.3 1439.1,1233.2 1445.0,1233.6 1450.7,1232.5 1456.0,1229.9 1461.1,1225.8 1465.8,1220.3 1470.3,1213.3 1474.4,1205.0 1478.2,1195.2 1481.7,1184.2 1484.8,1171.9 1487.6,1158.4 1490.2,1143.8 1492.4,1128.2 1494.3,1111.5 1495.9,1094.1 1497.2,1075.9 1498.3,1057.0 1499.0,1037.6 1499.6,1017.8 1499.9,997.7 1500.0,977.5  Z" style="stroke-width: 0.5;  stroke: rgb(0,0,0); fill: rgb(179,177,178);" />
<path d="M 1988.751,1684.739 A 522.500,522.500 0.00 0,1 1924.0,1805.4 L 1924.0,1805.4 1905.2,1792.2 1886.0,1779.3 1866.4,1766.9 1846.3,1754.8 1825.9,1743.3 1805.0,1732.3 1783.9,1721.9 1762.5,1712.2 1740.7,1703.1 1718.8,1694.8 1696.6,1687.2 1674.1,1680.5 1651.5,1674.5 1628.8,1669.5 1605.9,1665.2 1583.0,1661.9 1559.9,1659.5 1536.8,1657.9 1513.7,1657.3 1490.5,1657.6 1467.4,1658.9 1444.4,1661.0 1421.4,1664.1 1398.5,1668.0 1375.8,1672.8 1353.2,1678.5 1330.7,1685.1 1308.5,1692.4 1286.5,1700.6 1264.8,1709.5 1243.3,1719.1 1222.1,1729.4 1201.3,1740.4 1180.8,1751.9 1160.6,1764.0 1140.9,1776.6 1121.6,1789.6 1102.8,1802.9 1084.4,1816.6  A 522.500,522.500 0.00 0,1 1016.4,1697.8 L 1016.4,1697.8 1039.1,1688.7 1062.1,1679.9 1085.5,1671.4 1109.2,1663.2 1133.1,1655.3 1157.3,1647.9 1181.8,1640.8 1206.5,1634.2 1231.4,1628.0 1256.5,1622.3 1281.8,1617.1 1307.2,1612.3 1332.8,1608.1 1358.5,1604.5 1384.3,1601.3 1410.2,1598.7 1436.2,1596.7 1462.2,1595.2 1488.2,1594.3 1514.3,1593.9 1540.4,1594.2 1566.4,1594.9 1592.4,1596.3 1618.4,1598.2 1644.3,1600.6 1670.1,1603.6 1695.8,1607.1 1721.3,1611.2 1746.7,1615.7 1772.0,1620.7 1797.0,1626.2 1821.9,1632.2 1846.5,1638.6 1870.9,1645.4 1895.1,1652.6 1919.0,1660.2 1942.5,1668.1 1965.8,1676.3 1988.8,1684.7  Z" style="stroke-width: 0.5;  stroke: rgb(0,0,0); fill: rgb(179,177,178);" />
<path d="M 1887.108,1149.067 A 522.500,522.500 0.00 0,1 1943.6,1224.0 L 1943.6,1224.0 1922.7,1236.8 1901.4,1249.4 1879.7,1261.8 1857.7,1273.9 1835.4,1285.8 1812.8,1297.3 1789.8,1308.5 1766.5,1319.3 1743.0,1329.7 1719.2,1339.7 1695.1,1349.3 1670.8,1358.4 1646.3,1367.1 1621.5,1375.2 1596.6,1382.9 1571.5,1390.1 1546.2,1396.8 1520.8,1403.0 1495.2,1408.6 1469.5,1413.7 1443.8,1418.2 1417.9,1422.2 1392.0,1425.7 1366.0,1428.7 1340.1,1431.1 1314.1,1432.9 1288.1,1434.3 1262.1,1435.1 1236.2,1435.5 1210.4,1435.3 1184.7,1434.7 1159.0,1433.5 1133.6,1432.0 1108.2,1430.0 1083.1,1427.6 1058.1,1424.7 1033.3,1421.6 1008.8,1418.0 984.6,1414.2  A 522.500,522.500 0.00 0,1 1008.3,1323.4 L 1008.3,1323.4 1030.4,1331.1 1053.0,1338.4 1075.8,1345.3 1099.0,1351.7 1122.4,1357.6 1146.0,1362.9 1169.9,1367.7 1193.9,1371.8 1218.1,1375.3 1242.4,1378.1 1266.8,1380.2 1291.2,1381.6 1315.7,1382.3 1340.2,1382.2 1364.7,1381.3 1389.1,1379.7 1413.4,1377.3 1437.7,1374.1 1461.8,1370.1 1485.8,1365.4 1509.6,1359.9 1533.2,1353.5 1556.6,1346.5 1579.8,1338.7 1602.8,1330.1 1625.4,1320.9 1647.8,1310.9 1669.8,1300.3 1691.6,1289.1 1713.0,1277.2 1734.0,1264.7 1754.6,1251.7 1774.9,1238.2 1794.7,1224.3 1814.1,1209.9 1833.0,1195.1 1851.5,1180.0 1869.6,1164.7 1887.1,1149.1  Z" style="stroke-width: 0.5;  stroke: rgb(0,0,0); fill: rgb(179,177,178);" />
<path d="M 1664.372,1995.972 A 522.500,522.500 0.00 0,1 1606.0,2011.6 L 1606.0,2011.6 1601.6,1991.5 1596.9,1971.6 1591.8,1951.9 1586.4,1932.6 1580.5,1913.8 1574.3,1895.7 1567.8,1878.2 1560.8,1861.6 1553.5,1845.9 1545.9,1831.2 1537.8,1817.6 1529.4,1805.1 1520.7,1793.8 1511.7,1783.8 1502.3,1775.0 1492.6,1767.6 1482.6,1761.5 1472.3,1756.8 1461.8,1753.5 1451.0,1751.7 1439.9,1751.2 1428.7,1752.2 1417.2,1754.5 1405.6,1758.3 1393.8,1763.4 1381.9,1769.8 1369.9,1777.6 1357.8,1786.5 1345.7,1796.7 1333.5,1807.9 1321.4,1820.3 1309.3,1833.6 1297.2,1847.8 1285.3,1862.8 1273.5,1878.5 1261.9,1894.9 1250.5,1911.7 1239.4,1929.0 1228.5,1946.4  A 522.500,522.500 0.00 0,1 1157.9,1894.9 L 1157.9,1894.9 1171.8,1879.2 1186.1,1863.8 1200.7,1848.8 1215.6,1834.3 1230.8,1820.5 1246.1,1807.4 1261.5,1795.1 1277.1,1783.6 1292.8,1773.2 1308.5,1763.7 1324.2,1755.3 1339.9,1748.0 1355.5,1741.9 1371.0,1737.0 1386.4,1733.4 1401.7,1731.0 1416.8,1730.0 1431.6,1730.2 1446.3,1731.7 1460.7,1734.6 1474.8,1738.8 1488.6,1744.3 1502.1,1751.1 1515.3,1759.1 1528.2,1768.4 1540.6,1778.8 1552.7,1790.5 1564.4,1803.2 1575.7,1817.0 1586.5,1831.8 1597.0,1847.4 1607.0,1864.0 1616.5,1881.3 1625.7,1899.3 1634.3,1917.9 1642.5,1936.9 1650.3,1956.4 1657.5,1976.1 1664.4,1996.0  Z" style="stroke-width: 0.5;  stroke: rgb(0,0,0); fill: rgb(179,177,178);" />
<path d="M 1727.930,1029.836 A 522.500,522.500 0.00 0,1 1801.5,1073.3 L 1801.5,1073.3 1788.5,1091.3 1774.9,1109.1 1760.8,1126.7 1746.1,1143.8 1731.0,1160.5 1715.3,1176.7 1699.2,1192.4 1682.7,1207.3 1665.6,1221.6 1648.2,1235.1 1630.3,1247.8 1612.1,1259.7 1593.5,1270.7 1574.5,1280.7 1555.2,1289.8 1535.5,1297.9 1515.6,1305.1 1495.5,1311.1 1475.0,1316.2 1454.4,1320.2 1433.6,1323.2 1412.6,1325.1 1391.5,1325.9 1370.2,1325.7 1348.9,1324.5 1327.5,1322.3 1306.2,1319.1 1284.8,1314.9 1263.5,1309.8 1242.3,1303.8 1221.1,1296.9 1200.2,1289.2 1179.4,1280.7 1158.8,1271.6 1138.5,1261.7 1118.5,1251.3 1098.9,1240.3 1079.6,1228.9 1060.7,1217.1  A 522.500,522.500 0.00 0,1 1112.8,1149.2 L 1112.8,1149.2 1128.9,1163.5 1145.4,1177.3 1162.3,1190.8 1179.5,1203.7 1196.9,1216.0 1214.7,1227.5 1232.6,1238.3 1250.7,1248.3 1268.8,1257.3 1287.1,1265.4 1305.5,1272.5 1323.8,1278.5 1342.1,1283.5 1360.4,1287.3 1378.6,1289.9 1396.7,1291.4 1414.6,1291.7 1432.4,1290.7 1450.0,1288.6 1467.3,1285.2 1484.4,1280.6 1501.3,1274.9 1517.8,1267.9 1534.0,1259.8 1549.9,1250.5 1565.4,1240.2 1580.6,1228.7 1595.3,1216.3 1609.7,1202.8 1623.6,1188.5 1637.1,1173.3 1650.1,1157.3 1662.7,1140.6 1674.8,1123.2 1686.4,1105.3 1697.6,1086.9 1708.2,1068.1 1718.3,1049.1 1727.9,1029.8  Z" style="stroke-width: 0.5;  stroke: rgb(0,0,0); fill: rgb(179,177,178);" />
<path d="M 2015.931,1582.589 A 522.500,522.500 0.00 0,1 1997.2,1660.5 L 1997.2,1660.5 1973.6,1653.0 1949.7,1645.8 1925.5,1638.9 1901.1,1632.3 1876.4,1626.0 1851.5,1620.1 1826.4,1614.5 1801.0,1609.3 1775.5,1604.5 1749.9,1600.1 1724.1,1596.2 1698.1,1592.7 1672.1,1589.7 1645.9,1587.1 1619.7,1585.0 1593.4,1583.4 1567.0,1582.2 1540.6,1581.6 1514.2,1581.4 1487.8,1581.8 1461.5,1582.6 1435.1,1583.9 1408.8,1585.7 1382.5,1588.0 1356.4,1590.8 1330.3,1594.0 1304.3,1597.7 1278.5,1601.9 1252.8,1606.5 1227.2,1611.5 1201.9,1617.0 1176.7,1622.8 1151.7,1629.0 1126.9,1635.6 1102.4,1642.5 1078.2,1649.8 1054.2,1657.3 1030.4,1665.1 1007.0,1673.2  A 522.500,522.500 0.00 0,1 986.3,1595.7 L 986.3,1595.7 1011.6,1591.1 1037.1,1586.6 1062.7,1582.3 1088.5,1578.2 1114.4,1574.2 1140.5,1570.5 1166.7,1566.9 1192.9,1563.6 1219.3,1560.5 1245.8,1557.7 1272.4,1555.0 1299.0,1552.6 1325.8,1550.5 1352.5,1548.6 1379.4,1546.9 1406.3,1545.5 1433.2,1544.4 1460.1,1543.5 1487.1,1542.9 1514.0,1542.6 1541.0,1542.5 1567.9,1542.7 1594.9,1543.1 1621.8,1543.9 1648.6,1544.8 1675.5,1546.0 1702.2,1547.5 1728.9,1549.2 1755.6,1551.2 1782.1,1553.4 1808.6,1555.8 1834.9,1558.5 1861.2,1561.3 1887.3,1564.4 1913.3,1567.7 1939.2,1571.1 1964.9,1574.8 1990.5,1578.6 2015.9,1582.6  Z" style="stroke-width: 0.5;  stroke: rgb(0,0,0); fill: rgb(179,177,178);" />
<path d="M 1763.569,1951.151 A 522.500,522.500 0.00 0,1 1691.9,1986.0 L 1691.9,1986.0 1683.9,1966.3 1675.4,1946.9 1666.4,1927.7 1656.9,1908.9 1647.0,1890.5 1636.6,1872.8 1625.7,1855.7 1614.4,1839.3 1602.6,1823.8 1590.4,1809.2 1577.8,1795.5 1564.8,1782.9 1551.4,1771.3 1537.6,1760.8 1523.4,1751.5 1508.9,1743.4 1494.0,1736.6 1478.9,1730.9 1463.4,1726.6 1447.7,1723.5 1431.8,1721.6 1415.6,1721.1 1399.3,1721.8 1382.8,1723.8 1366.2,1727.0 1349.4,1731.4 1332.6,1737.0 1315.7,1743.8 1298.9,1751.6 1282.0,1760.5 1265.2,1770.4 1248.6,1781.2 1232.0,1792.9 1215.6,1805.4 1199.5,1818.6 1183.6,1832.4 1168.0,1846.7 1152.7,1861.5 1137.8,1876.6  A 522.500,522.500 0.00 0,1 1084.8,1817.2 L 1084.8,1817.2 1102.3,1804.1 1120.3,1791.4 1138.6,1779.2 1157.2,1767.5 1176.2,1756.5 1195.4,1746.1 1214.8,1736.5 1234.4,1727.7 1254.1,1719.7 1274.0,1712.7 1293.8,1706.6 1313.8,1701.6 1333.7,1697.5 1353.6,1694.5 1373.4,1692.7 1393.1,1691.9 1412.7,1692.2 1432.1,1693.7 1451.4,1696.3 1470.4,1700.1 1489.2,1705.0 1507.7,1711.0 1526.0,1718.1 1543.9,1726.3 1561.5,1735.6 1578.8,1745.9 1595.7,1757.2 1612.2,1769.5 1628.3,1782.6 1643.9,1796.7 1659.2,1811.5 1673.9,1827.1 1688.2,1843.4 1702.1,1860.3 1715.4,1877.7 1728.2,1895.6 1740.5,1913.9 1752.3,1932.4 1763.6,1951.2  Z" style="stroke-width: 0.5;  stroke: rgb(0,0,0); fill: rgb(179,177,178);" />
<path d="M 1850.169,1112.201 A 522.500,522.500 0.00 0,1 1887.1,1149.0 L 1887.1,1149.0 1869.5,1164.6 1851.5,1180.0 1833.0,1195.1 1814.1,1209.8 1794.7,1224.2 1774.9,1238.2 1754.6,1251.6 1734.0,1264.6 1713.0,1277.1 1691.6,1288.9 1669.9,1300.2 1647.8,1310.8 1625.5,1320.7 1602.8,1329.9 1579.9,1338.4 1556.7,1346.2 1533.3,1353.3 1509.7,1359.5 1485.9,1365.0 1461.9,1369.8 1437.8,1373.7 1413.5,1376.9 1389.2,1379.2 1364.8,1380.8 1340.4,1381.6 1315.9,1381.7 1291.4,1381.0 1267.0,1379.5 1242.7,1377.4 1218.4,1374.5 1194.2,1371.0 1170.2,1366.8 1146.4,1362.0 1122.7,1356.6 1099.3,1350.6 1076.2,1344.2 1053.4,1337.2 1030.9,1329.8 1008.7,1322.1  A 522.500,522.500 0.00 0,1 1028.9,1274.0 L 1028.9,1274.0 1049.7,1283.7 1070.8,1292.9 1092.3,1301.8 1114.2,1310.1 1136.3,1317.8 1158.7,1324.9 1181.3,1331.4 1204.1,1337.2 1227.0,1342.2 1250.1,1346.5 1273.2,1350.0 1296.5,1352.7 1319.7,1354.5 1342.9,1355.4 1366.1,1355.5 1389.3,1354.7 1412.3,1353.0 1435.3,1350.3 1458.1,1346.8 1480.7,1342.3 1503.1,1336.9 1525.4,1330.7 1547.3,1323.5 1569.1,1315.5 1590.5,1306.7 1611.7,1297.0 1632.5,1286.5 1652.9,1275.2 1673.0,1263.2 1692.7,1250.5 1712.1,1237.1 1731.0,1223.1 1749.4,1208.6 1767.4,1193.5 1785.0,1177.9 1802.0,1162.0 1818.6,1145.6 1834.6,1129.0 1850.2,1112.2  Z" style="stroke-width: 0.5;  stroke: rgb(0,0,0); fill: rgb(179,177,178);" />
<path d="M 1970.055,1271.845 A 522.500,522.500 0.00 0,1 1989.9,1318.4 L 1989.9,1318.4 1965.7,1327.3 1941.3,1336.0 1916.8,1344.7 1892.0,1353.2 1867.1,1361.5 1842.1,1369.7 1816.9,1377.7 1791.5,1385.6 1766.1,1393.2 1740.5,1400.7 1714.7,1408.0 1688.9,1415.0 1663.0,1421.9 1636.9,1428.5 1610.8,1434.9 1584.6,1441.0 1558.3,1446.9 1531.9,1452.6 1505.5,1458.1 1479.0,1463.3 1452.5,1468.3 1426.0,1473.0 1399.4,1477.4 1372.8,1481.7 1346.2,1485.7 1319.6,1489.4 1293.0,1492.9 1266.4,1496.2 1239.8,1499.2 1213.3,1502.0 1186.9,1504.6 1160.4,1506.9 1134.1,1509.0 1107.8,1510.9 1081.6,1512.6 1055.5,1514.1 1029.5,1515.4 1003.6,1516.6 977.8,1517.5  A 522.500,522.500 0.00 0,1 978.5,1466.9 L 978.5,1466.9 1003.7,1468.4 1029.0,1469.6 1054.5,1470.5 1080.2,1471.2 1106.0,1471.5 1132.0,1471.5 1158.1,1471.2 1184.2,1470.6 1210.5,1469.6 1236.8,1468.3 1263.2,1466.6 1289.6,1464.5 1316.0,1462.0 1342.5,1459.2 1368.9,1456.0 1395.4,1452.4 1421.8,1448.4 1448.1,1444.0 1474.4,1439.2 1500.7,1434.1 1526.8,1428.5 1552.9,1422.6 1578.8,1416.3 1604.6,1409.6 1630.3,1402.6 1655.9,1395.2 1681.3,1387.4 1706.5,1379.3 1731.6,1370.9 1756.4,1362.2 1781.1,1353.2 1805.6,1343.8 1829.8,1334.2 1853.8,1324.4 1877.6,1314.3 1901.1,1304.0 1924.4,1293.4 1947.3,1282.7 1970.1,1271.8  Z" style="stroke-width: 0.5;  stroke: rgb(0,0,0); fill: rgb(179,177,178);" />
<path d="M 1944.074,1224.674 A 522.500,522.500 0.00 0,1 1968.5,1268.7 L 1968.5,1268.7 1945.9,1279.7 1923.0,1290.6 1899.8,1301.3 1876.4,1311.7 1852.7,1321.9 1828.8,1331.9 1804.6,1341.6 1780.2,1351.1 1755.6,1360.2 1730.8,1369.1 1705.8,1377.6 1680.6,1385.8 1655.3,1393.6 1629.8,1401.1 1604.1,1408.2 1578.3,1415.0 1552.4,1421.3 1526.4,1427.3 1500.3,1432.9 1474.1,1438.2 1447.8,1443.0 1421.5,1447.4 1395.1,1451.4 1368.7,1455.1 1342.2,1458.3 1315.8,1461.1 1289.4,1463.6 1263.0,1465.7 1236.6,1467.4 1210.3,1468.7 1184.1,1469.7 1158.0,1470.3 1131.9,1470.6 1106.0,1470.5 1080.2,1470.1 1054.5,1469.4 1029.0,1468.5 1003.7,1467.2 978.6,1465.7  A 522.500,522.500 0.00 0,1 984.4,1415.6 L 984.4,1415.6 1008.6,1419.4 1033.1,1422.9 1057.9,1426.0 1082.9,1428.8 1108.1,1431.1 1133.4,1433.1 1158.9,1434.6 1184.6,1435.6 1210.3,1436.2 1236.2,1436.3 1262.1,1436.0 1288.0,1435.1 1314.0,1433.7 1340.0,1431.8 1366.0,1429.3 1392.0,1426.4 1417.9,1422.9 1443.8,1418.8 1469.6,1414.2 1495.3,1409.1 1520.8,1403.5 1546.3,1397.3 1571.6,1390.6 1596.7,1383.4 1621.7,1375.7 1646.4,1367.6 1671.0,1358.9 1695.3,1349.8 1719.4,1340.2 1743.2,1330.2 1766.8,1319.8 1790.0,1309.0 1813.0,1297.9 1835.7,1286.3 1858.1,1274.5 1880.1,1262.4 1901.8,1250.1 1923.1,1237.5 1944.1,1224.7  Z" style="stroke-width: 0.5;  stroke: rgb(0,0,0); fill: rgb(179,177,178);" />
<path d="M 1663.769,1003.829 A 522.500,522.500 0.00 0,1 1709.1,1021.2 L 1709.1,1021.2 1700.3,1040.6 1691.1,1059.9 1681.3,1078.9 1671.1,1097.5 1660.4,1115.6 1649.2,1133.2 1637.5,1150.0 1625.4,1166.2 1612.9,1181.5 1599.9,1196.0 1586.5,1209.5 1572.7,1222.0 1558.5,1233.5 1543.9,1243.8 1529.0,1253.0 1513.7,1261.1 1498.2,1267.9 1482.3,1273.5 1466.1,1277.9 1449.7,1281.0 1433.1,1282.9 1416.3,1283.5 1399.3,1282.9 1382.1,1281.0 1364.9,1278.0 1347.5,1273.7 1330.1,1268.3 1312.6,1261.7 1295.2,1254.1 1277.8,1245.5 1260.5,1235.8 1243.3,1225.3 1226.2,1213.8 1209.4,1201.6 1192.7,1188.7 1176.4,1175.2 1160.3,1161.1 1144.6,1146.6 1129.3,1131.8  A 522.500,522.500 0.00 0,1 1165.1,1099.0 L 1165.1,1099.0 1178.7,1114.9 1192.7,1130.6 1207.0,1145.8 1221.6,1160.5 1236.4,1174.6 1251.4,1187.9 1266.5,1200.5 1281.8,1212.2 1297.2,1222.9 1312.6,1232.6 1328.0,1241.2 1343.4,1248.7 1358.8,1255.0 1374.0,1260.1 1389.2,1264.0 1404.2,1266.6 1419.0,1267.8 1433.7,1267.8 1448.1,1266.4 1462.3,1263.7 1476.2,1259.7 1489.8,1254.3 1503.2,1247.7 1516.2,1239.8 1528.8,1230.6 1541.1,1220.3 1553.1,1208.7 1564.6,1196.1 1575.8,1182.4 1586.6,1167.7 1596.9,1152.1 1606.8,1135.6 1616.3,1118.3 1625.3,1100.4 1633.9,1081.8 1642.0,1062.8 1649.7,1043.4 1657.0,1023.7 1663.8,1003.8  Z" style="stroke-width: 0.5;  stroke: rgb(0,0,0); fill: rgb(179,177,178);" />
<path d="M 2020.818,1541.887 A 522.500,522.500 0.00 0,1 2015.8,1583.4 L 2015.8,1583.4 1990.4,1579.4 1964.8,1575.5 1939.1,1571.9 1913.2,1568.3 1887.2,1565.0 1861.1,1561.9 1834.9,1559.0 1808.5,1556.3 1782.0,1553.8 1755.5,1551.6 1728.9,1549.6 1702.2,1547.8 1675.4,1546.3 1648.6,1545.1 1621.7,1544.1 1594.8,1543.3 1567.9,1542.8 1540.9,1542.6 1514.0,1542.7 1487.0,1543.0 1460.0,1543.5 1433.1,1544.4 1406.2,1545.4 1379.3,1546.8 1352.5,1548.4 1325.7,1550.3 1299.0,1552.4 1272.3,1554.7 1245.7,1557.3 1219.2,1560.2 1192.8,1563.2 1166.6,1566.5 1140.4,1570.0 1114.3,1573.7 1088.4,1577.6 1062.6,1581.7 1037.0,1586.0 1011.5,1590.4 986.2,1595.0  A 522.500,522.500 0.00 0,1 980.3,1553.6 L 980.3,1553.6 1006.3,1551.0 1032.5,1548.4 1058.8,1545.9 1085.1,1543.6 1111.6,1541.3 1138.1,1539.2 1164.6,1537.2 1191.2,1535.3 1217.9,1533.5 1244.6,1531.8 1271.4,1530.3 1298.2,1528.9 1325.1,1527.6 1352.0,1526.4 1378.9,1525.4 1405.8,1524.6 1432.8,1523.9 1459.8,1523.3 1486.8,1522.8 1513.7,1522.5 1540.7,1522.4 1567.7,1522.3 1594.7,1522.5 1621.6,1522.7 1648.6,1523.1 1675.5,1523.6 1702.4,1524.3 1729.2,1525.1 1756.0,1526.0 1782.8,1527.1 1809.5,1528.3 1836.1,1529.6 1862.7,1531.0 1889.3,1532.6 1915.7,1534.2 1942.1,1536.0 1968.4,1537.9 1994.7,1539.8 2020.8,1541.9  Z" style="stroke-width: 0.5;  stroke: rgb(0,0,0); fill: rgb(179,177,178);" />
<path d="M 1990.391,1319.660 A 522.500,522.500 0.00 0,1 2001.5,1353.4 L 2001.5,1353.4 1976.3,1360.7 1951.0,1367.9 1925.6,1375.1 1900.2,1382.2 1874.6,1389.2 1848.9,1396.0 1823.1,1402.8 1797.3,1409.5 1771.4,1416.1 1745.4,1422.6 1719.3,1428.9 1693.2,1435.2 1667.0,1441.3 1640.8,1447.2 1614.5,1453.1 1588.2,1458.8 1561.8,1464.4 1535.4,1469.9 1508.9,1475.2 1482.4,1480.3 1455.9,1485.4 1429.4,1490.3 1402.8,1495.0 1376.3,1499.6 1349.7,1504.1 1323.1,1508.5 1296.6,1512.7 1270.0,1516.7 1243.5,1520.6 1217.0,1524.4 1190.5,1528.1 1164.0,1531.6 1137.6,1535.0 1111.3,1538.3 1084.9,1541.4 1058.6,1544.5 1032.4,1547.4 1006.3,1550.2 980.2,1552.9  A 522.500,522.500 0.00 0,1 977.8,1517.5 L 977.8,1517.5 1003.6,1516.6 1029.5,1515.4 1055.5,1514.1 1081.6,1512.6 1107.8,1510.9 1134.1,1509.0 1160.5,1506.9 1186.9,1504.6 1213.4,1502.0 1239.9,1499.3 1266.5,1496.3 1293.1,1493.0 1319.7,1489.5 1346.3,1485.8 1372.9,1481.9 1399.5,1477.7 1426.1,1473.2 1452.6,1468.5 1479.1,1463.6 1505.6,1458.4 1532.0,1453.0 1558.4,1447.3 1584.7,1441.5 1610.9,1435.3 1637.1,1429.0 1663.1,1422.4 1689.1,1415.6 1715.0,1408.6 1740.7,1401.4 1766.3,1394.0 1791.8,1386.4 1817.2,1378.6 1842.4,1370.7 1867.5,1362.5 1892.4,1354.2 1917.1,1345.8 1941.7,1337.2 1966.1,1328.5 1990.4,1319.7  Z" style="stroke-width: 0.5;  stroke: rgb(0,0,0); fill: rgb(179,177,178);" />
<path d="M 1691.597,1986.104 A 522.500,522.500 0.00 0,1 1667.3,1995.0 L 1667.3,1995.0 1660.4,1975.1 1653.0,1955.4 1645.1,1936.0 1636.8,1917.0 1628.0,1898.5 1618.8,1880.5 1609.1,1863.2 1598.9,1846.7 1588.4,1831.1 1577.4,1816.3 1566.0,1802.6 1554.2,1789.9 1542.0,1778.3 1529.4,1767.8 1516.5,1758.6 1503.2,1750.6 1489.5,1743.8 1475.6,1738.3 1461.4,1734.2 1446.9,1731.3 1432.2,1729.8 1417.2,1729.6 1402.0,1730.6 1386.7,1733.0 1371.2,1736.7 1355.6,1741.6 1339.9,1747.7 1324.2,1754.9 1308.4,1763.3 1292.6,1772.8 1276.9,1783.3 1261.3,1794.7 1245.8,1807.0 1230.4,1820.1 1215.3,1833.9 1200.3,1848.4 1185.7,1863.4 1171.4,1878.8 1157.4,1894.5  A 522.500,522.500 0.00 0,1 1138.3,1877.1 L 1138.3,1877.1 1153.2,1862.0 1168.4,1847.2 1184.0,1832.8 1199.9,1819.0 1216.0,1805.8 1232.4,1793.3 1248.9,1781.6 1265.6,1770.7 1282.3,1760.8 1299.1,1751.9 1316.0,1744.1 1332.8,1737.3 1349.6,1731.7 1366.3,1727.2 1382.9,1724.0 1399.4,1722.0 1415.7,1721.3 1431.9,1721.8 1447.8,1723.6 1463.5,1726.7 1478.9,1731.1 1494.0,1736.7 1508.8,1743.6 1523.3,1751.7 1537.5,1761.0 1551.3,1771.4 1564.7,1783.0 1577.7,1795.6 1590.3,1809.3 1602.5,1823.9 1614.2,1839.4 1625.5,1855.8 1636.4,1872.9 1646.8,1890.6 1656.7,1909.0 1666.1,1927.8 1675.1,1947.0 1683.6,1966.5 1691.6,1986.1  Z" style="stroke-width: 0.5;  stroke: rgb(0,0,0); fill: rgb(179,177,178);" />
<path d="M 1997.266,1660.413 A 522.500,522.500 0.00 0,1 1989.0,1684.0 L 1989.0,1684.0 1966.1,1675.5 1942.8,1667.3 1919.2,1659.5 1895.3,1651.9 1871.1,1644.8 1846.7,1638.0 1822.1,1631.6 1797.2,1625.7 1772.1,1620.2 1746.8,1615.2 1721.4,1610.7 1695.9,1606.7 1670.2,1603.2 1644.4,1600.2 1618.5,1597.8 1592.5,1595.9 1566.5,1594.5 1540.4,1593.8 1514.3,1593.6 1488.2,1593.9 1462.2,1594.8 1436.1,1596.3 1410.2,1598.4 1384.2,1600.9 1358.4,1604.1 1332.7,1607.8 1307.1,1612.0 1281.7,1616.7 1256.4,1621.9 1231.3,1627.6 1206.4,1633.7 1181.6,1640.3 1157.2,1647.4 1132.9,1654.8 1109.0,1662.6 1085.3,1670.8 1061.9,1679.3 1038.9,1688.1 1016.1,1697.2  A 522.500,522.500 0.00 0,1 1007.3,1673.8 L 1007.3,1673.8 1030.7,1665.7 1054.4,1657.9 1078.3,1650.3 1102.6,1643.0 1127.1,1636.1 1151.9,1629.5 1176.8,1623.2 1202.0,1617.4 1227.4,1611.9 1252.9,1606.9 1278.6,1602.2 1304.4,1598.1 1330.4,1594.3 1356.5,1591.1 1382.6,1588.3 1408.9,1585.9 1435.2,1584.1 1461.5,1582.8 1487.9,1581.9 1514.3,1581.6 1540.7,1581.7 1567.1,1582.3 1593.4,1583.4 1619.7,1585.1 1646.0,1587.1 1672.1,1589.7 1698.2,1592.7 1724.1,1596.2 1749.9,1600.1 1775.6,1604.5 1801.1,1609.3 1826.4,1614.5 1851.5,1620.0 1876.4,1626.0 1901.1,1632.2 1925.6,1638.9 1949.7,1645.8 1973.7,1653.0 1997.3,1660.4  Z" style="stroke-width: 0.5;  stroke: rgb(0,0,0); fill: rgb(179,177,178);" />
<path d="M 1708.327,1020.828 A 522.500,522.500 0.00 0,1 1727.8,1029.8 L 1727.8,1029.8 1718.2,1049.0 1708.1,1068.1 1697.5,1086.8 1686.4,1105.2 1674.8,1123.1 1662.7,1140.5 1650.1,1157.2 1637.1,1173.2 1623.6,1188.4 1609.7,1202.7 1595.4,1216.1 1580.6,1228.5 1565.5,1239.9 1550.0,1250.3 1534.2,1259.5 1518.0,1267.6 1501.5,1274.5 1484.7,1280.3 1467.6,1284.8 1450.3,1288.2 1432.8,1290.3 1415.0,1291.2 1397.1,1290.9 1379.1,1289.3 1360.9,1286.6 1342.7,1282.8 1324.4,1277.8 1306.1,1271.7 1287.8,1264.6 1269.6,1256.4 1251.5,1247.3 1233.4,1237.3 1215.6,1226.5 1197.9,1214.8 1180.5,1202.5 1163.4,1189.6 1146.5,1176.1 1130.1,1162.1 1114.0,1147.8  A 522.500,522.500 0.00 0,1 1128.8,1132.2 L 1128.8,1132.2 1144.2,1147.1 1159.9,1161.6 1175.9,1175.6 1192.3,1189.1 1209.0,1202.0 1225.9,1214.2 1242.9,1225.6 1260.1,1236.1 1277.5,1245.7 1294.9,1254.4 1312.3,1262.0 1329.8,1268.5 1347.2,1273.9 1364.6,1278.1 1381.8,1281.2 1399.0,1283.0 1416.0,1283.6 1432.8,1283.0 1449.4,1281.1 1465.8,1277.9 1481.9,1273.5 1497.8,1267.9 1513.4,1261.0 1528.6,1253.0 1543.5,1243.7 1558.1,1233.4 1572.2,1221.9 1586.0,1209.4 1599.4,1195.8 1612.4,1181.3 1624.9,1166.0 1637.0,1149.8 1648.6,1132.9 1659.8,1115.3 1670.4,1097.2 1680.7,1078.6 1690.4,1059.6 1699.6,1040.3 1708.3,1020.8  Z" style="stroke-width: 0.5;  stroke: rgb(0,0,0); fill: rgb(179,177,178);" />
<path d="M 1819.087,1086.249 A 522.500,522.500 0.00 0,1 1834.5,1098.6 L 1834.5,1098.6 1819.8,1115.9 1804.5,1132.9 1788.7,1149.7 1772.5,1166.1 1755.7,1182.0 1738.5,1197.5 1720.8,1212.5 1702.6,1226.8 1684.0,1240.5 1665.0,1253.5 1645.6,1265.8 1625.9,1277.3 1605.7,1288.0 1585.3,1297.8 1564.5,1306.8 1543.4,1314.9 1522.1,1322.1 1500.5,1328.3 1478.7,1333.6 1456.6,1337.9 1434.4,1341.3 1412.1,1343.7 1389.6,1345.2 1367.1,1345.7 1344.4,1345.3 1321.8,1343.9 1299.1,1341.7 1276.4,1338.5 1253.8,1334.5 1231.3,1329.7 1208.9,1324.0 1186.7,1317.6 1164.7,1310.5 1142.8,1302.7 1121.3,1294.3 1100.0,1285.3 1079.0,1275.8 1058.5,1265.8 1038.3,1255.4  A 522.500,522.500 0.00 0,1 1047.9,1238.1 L 1047.9,1238.1 1067.5,1249.2 1087.5,1259.8 1107.8,1270.0 1128.6,1279.6 1149.6,1288.7 1170.8,1297.1 1192.3,1304.8 1214.0,1311.8 1235.9,1318.0 1257.8,1323.3 1279.8,1327.8 1301.9,1331.4 1324.0,1334.1 1346.1,1335.8 1368.2,1336.6 1390.1,1336.4 1412.0,1335.1 1433.8,1332.9 1455.4,1329.7 1476.8,1325.5 1497.9,1320.3 1518.9,1314.1 1539.6,1306.9 1560.0,1298.8 1580.1,1289.7 1599.9,1279.8 1619.4,1268.9 1638.4,1257.2 1657.1,1244.7 1675.4,1231.4 1693.3,1217.4 1710.7,1202.7 1727.7,1187.5 1744.2,1171.6 1760.2,1155.3 1775.7,1138.5 1790.7,1121.3 1805.1,1103.9 1819.1,1086.2  Z" style="stroke-width: 0.5;  stroke: rgb(0,0,0); fill: rgb(179,177,178);" />
<path d="M 1834.451,1098.567 A 522.500,522.500 0.00 0,1 1848.6,1110.7 L 1848.6,1110.7 1833.1,1127.6 1817.1,1144.3 1800.6,1160.7 1783.7,1176.7 1766.2,1192.3 1748.3,1207.4 1729.9,1222.0 1711.1,1236.1 1691.8,1249.5 1672.2,1262.2 1652.2,1274.3 1631.8,1285.6 1611.0,1296.1 1589.9,1305.8 1568.6,1314.7 1546.9,1322.7 1525.0,1329.9 1502.8,1336.2 1480.4,1341.5 1457.8,1346.0 1435.1,1349.5 1412.2,1352.2 1389.2,1353.9 1366.1,1354.7 1343.0,1354.6 1319.8,1353.7 1296.6,1351.8 1273.4,1349.1 1250.3,1345.6 1227.3,1341.3 1204.4,1336.2 1181.7,1330.4 1159.1,1323.9 1136.7,1316.7 1114.7,1308.9 1092.9,1300.5 1071.4,1291.7 1050.3,1282.3 1029.6,1272.6  A 522.500,522.500 0.00 0,1 1038.0,1256.0 L 1038.0,1256.0 1058.2,1266.3 1078.8,1276.3 1099.7,1285.8 1121.0,1294.8 1142.6,1303.2 1164.4,1311.0 1186.5,1318.1 1208.7,1324.4 1231.2,1330.0 1253.7,1334.9 1276.3,1338.8 1298.9,1342.0 1321.6,1344.2 1344.3,1345.5 1366.9,1345.9 1389.5,1345.4 1412.0,1343.9 1434.4,1341.5 1456.6,1338.1 1478.6,1333.7 1500.4,1328.4 1522.0,1322.2 1543.4,1315.0 1564.4,1306.9 1585.2,1297.9 1605.7,1288.1 1625.8,1277.4 1645.6,1265.9 1665.0,1253.6 1684.0,1240.6 1702.6,1226.8 1720.7,1212.5 1738.4,1197.5 1755.7,1182.0 1772.4,1166.0 1788.7,1149.6 1804.5,1132.9 1819.7,1115.8 1834.5,1098.6  Z" style="stroke-width: 0.5;  stroke: rgb(0,0,0); fill: rgb(179,177,178);" />
<path d="M 1803.100,1074.399 A 522.500,522.500 0.00 0,1 1816.4,1084.2 L 1816.4,1084.2 1802.6,1101.9 1788.2,1119.3 1773.4,1136.5 1758.0,1153.4 1742.1,1169.8 1725.8,1185.7 1709.0,1201.0 1691.7,1215.7 1674.0,1229.7 1655.8,1243.0 1637.3,1255.5 1618.4,1267.2 1599.1,1278.0 1579.4,1288.0 1559.5,1297.0 1539.2,1305.1 1518.6,1312.2 1497.8,1318.4 1476.8,1323.5 1455.5,1327.6 1434.1,1330.7 1412.5,1332.8 1390.7,1333.9 1368.9,1334.0 1347.0,1333.1 1325.1,1331.2 1303.1,1328.4 1281.2,1324.6 1259.3,1320.0 1237.5,1314.4 1215.8,1308.1 1194.3,1300.9 1173.0,1293.0 1151.9,1284.4 1131.0,1275.1 1110.5,1265.2 1090.3,1254.8 1070.4,1244.0 1051.0,1232.7  A 522.500,522.500 0.00 0,1 1059.7,1218.7 L 1059.7,1218.7 1078.6,1230.5 1097.9,1241.9 1117.6,1252.8 1137.7,1263.1 1158.1,1272.9 1178.7,1282.0 1199.5,1290.4 1220.6,1298.1 1241.7,1304.9 1263.0,1310.9 1284.4,1315.9 1305.8,1320.1 1327.3,1323.2 1348.7,1325.4 1370.1,1326.6 1391.4,1326.8 1412.6,1325.9 1433.6,1323.9 1454.5,1321.0 1475.2,1317.0 1495.7,1311.9 1515.9,1305.8 1535.9,1298.7 1555.6,1290.6 1575.0,1281.5 1594.0,1271.4 1612.7,1260.5 1631.1,1248.6 1649.0,1235.9 1666.5,1222.4 1683.6,1208.2 1700.3,1193.2 1716.4,1177.7 1732.1,1161.5 1747.4,1144.8 1762.1,1127.7 1776.3,1110.2 1790.0,1092.4 1803.1,1074.4  Z" style="stroke-width: 0.5;  stroke: rgb(0,0,0); fill: rgb(179,177,178);" />
<path d="M 1656.130,1001.372 A 522.500,522.500 0.00 0,1 1663.1,1003.6 L 1663.1,1003.6 1656.4,1023.5 1649.2,1043.2 1641.5,1062.6 1633.4,1081.6 1624.8,1100.1 1615.9,1118.1 1606.4,1135.3 1596.6,1151.8 1586.3,1167.4 1575.6,1182.1 1564.5,1195.8 1553.0,1208.4 1541.1,1219.9 1528.9,1230.2 1516.3,1239.3 1503.3,1247.2 1490.1,1253.8 1476.5,1259.1 1462.7,1263.1 1448.6,1265.7 1434.3,1267.0 1419.7,1267.0 1405.0,1265.7 1390.1,1263.1 1375.0,1259.2 1359.9,1254.0 1344.6,1247.6 1329.3,1240.0 1314.0,1231.3 1298.7,1221.5 1283.4,1210.7 1268.3,1199.0 1253.2,1186.3 1238.3,1172.9 1223.6,1158.7 1209.1,1144.0 1194.9,1128.7 1181.1,1112.9 1167.6,1096.9  A 522.500,522.500 0.00 0,1 1173.3,1092.3 L 1173.3,1092.3 1186.5,1108.4 1200.1,1124.3 1214.0,1139.8 1228.2,1154.7 1242.7,1169.1 1257.3,1182.7 1272.0,1195.5 1286.9,1207.4 1301.8,1218.3 1316.8,1228.3 1331.8,1237.1 1346.8,1244.8 1361.7,1251.4 1376.5,1256.7 1391.2,1260.7 1405.8,1263.4 1420.2,1264.9 1434.4,1264.9 1448.4,1263.7 1462.2,1261.1 1475.6,1257.2 1488.8,1251.9 1501.7,1245.4 1514.3,1237.5 1526.5,1228.4 1538.4,1218.1 1550.0,1206.6 1561.1,1194.0 1571.9,1180.3 1582.2,1165.6 1592.1,1149.9 1601.7,1133.4 1610.8,1116.1 1619.4,1098.1 1627.6,1079.6 1635.4,1060.5 1642.8,1041.0 1649.7,1021.3 1656.1,1001.4  Z" style="stroke-width: 0.5;  stroke: rgb(0,0,0); fill: rgb(179,177,178);" />
</g>
<g id="plot0">
<g id="plot0-axis">
</g>
<line x1='2243.8' y1='1596.0' x2='2243.8' y2='1596.0' style="stroke-width:14.0;stroke:rgb(0,0,0);stroke-linecap:round;fill:none;" />
<line x1='2243.8' y1='1596.0' x2='2283.5' y2='1601.1' style="stroke-width:14.0;stroke:rgb(0,0,0);stroke-linecap:round;fill:none;" />
<line x1='2283.5' y1='1601.1' x2='2283.5' y2='1601.1' style="stroke-width:14.0;stroke:rgb(0,0,0);stroke-linecap:round;fill:none;" />
<text x="2300.2" y="1625.9" font-size="46.8px" font-family="CMUBright-Roman" style="text-anchor:start;fill:rgb(255,38,78);" transform="rotate(7.4,2300.2,1625.9)" >HistomissSECH89<tspan baseline-shift="-40%" font-size="90%">s</tspan>02598</text>
</g>
<defs>
<pattern id="hline-sparse" width="10" height="10" patternTransform="rotate(0 0 0)" patternUnits="userSpaceOnUse"><line x1="0" y1="0" x2="10" y2="0" style="stroke:black;stroke-width:2" /></pattern>
<pattern id="checker" width="10" height="10" patternTransform="rotate(45 0 0)" patternUnits="userSpaceOnUse"><line x1="0" y1="0" x2="10" y2="0" style="stroke:black;stroke-width:5" /><line x1="0" y1="0" x2="0" y2="10" style="stroke:black;stroke-width:4" /></pattern>
<pattern id="vline-sparse" width="10" height="10" patternTransform="rotate(0 0 0)" patternUnits="userSpaceOnUse"><line x1="0" y1="0" x2="0" y2="10" style="stroke:black;stroke-width:2" /></pattern>
<pattern id="hline" width="10" height="10" patternTransform="rotate(0 0 0)" patternUnits="userSpaceOnUse"><line x1="0" y1="0" x2="10" y2="0" style="stroke:black;stroke-width:5" /></pattern>
<pattern id="vline" width="10" height="10" patternTransform="rotate(0 0 0)" patternUnits="userSpaceOnUse"><line x1="0" y1="0" x2="0" y2="10" style="stroke:black;stroke-width:5" /></pattern>
<pattern id="checker" width="10" height="10" patternTransform="rotate(45 0 0)" patternUnits="userSpaceOnUse"><line x1="0" y1="0" x2="10" y2="0" style="stroke:black;stroke-width:2" /><line x1="0" y1="0" x2="0" y2="10" style="stroke:black;stroke-width:2" /></pattern>
</defs>
</svg>
