<?xml version="1.0" encoding="utf-8" standalone="no"?>
<!DOCTYPE svg PUBLIC "-//W3C//DTD SVG 1.1//EN" "http://www.w3.org/Graphics/SVG/1.1/DTD/svg11.dtd">
<svg width="3000px" height="3000px" version="1.1" xmlns="http://www.w3.org/2000/svg" xmlns:xlink="http://www.w3.org/1999/xlink">
<g id="bg">
<rect x="0" y="0" width="3000px" height="3000px" style="fill:rgb(255,255,255);"/>
</g>
<g id="ideograms">
<path d="M1500.000,950.000 A550.000,550.000 40.000 0,1 1662.963,2025.303 L1722.222,2216.322 A750.000,750.000 0.000 0,0 1500.000,750.000 Z" style="stroke-width:2.0;stroke:rgb(0,0,0);stroke-linecap:round;fill:rgb(179,177,178);" />
<text x="2464.0" y="1353.9" font-size="46.8px" font-family="CMUBright-Roman" style="text-anchor:middle;fill:rgb(0,0,0);" transform="rotate(441.4,2464.0,1353.9)" >HistocapCB063<tspan baseline-shift="-40%" font-size="90%">2</tspan></text>
<line x1='1531.5' y1='750.7' x2='1532.0' y2='738.7' style="stroke-width:8.0;stroke:rgb(150,150,150);stroke-linecap:round;fill:none;" />
<line x1='1629.9' y1='761.3' x2='1631.9' y2='749.5' style="stroke-width:8.0;stroke:rgb(150,150,150);stroke-linecap:round;fill:none;" />
<text x="1647.8" y="740.2" font-size="41.6px" font-family="CMUBright-Roman" style="text-anchor:start;fill:rgb(150,150,150);" transform="rotate(280.0,1647.8,740.2)" >600 kb</text>
<line x1='1725.9' y1='784.8' x2='1729.5' y2='773.4' style="stroke-width:8.0;stroke:rgb(150,150,150);stroke-linecap:round;fill:none;" />
<line x1='1818.1' y1='820.8' x2='1823.2' y2='809.9' style="stroke-width:8.0;stroke:rgb(150,150,150);stroke-linecap:round;fill:none;" />
<line x1='1904.7' y1='868.6' x2='1911.2' y2='858.5' style="stroke-width:8.0;stroke:rgb(150,150,150);stroke-linecap:round;fill:none;" />
<line x1='1984.3' y1='927.3' x2='1992.0' y2='918.1' style="stroke-width:8.0;stroke:rgb(150,150,150);stroke-linecap:round;fill:none;" />
<line x1='2055.4' y1='996.0' x2='2064.3' y2='987.9' style="stroke-width:8.0;stroke:rgb(150,150,150);stroke-linecap:round;fill:none;" />
<text x="2082.5" y="990.3" font-size="41.6px" font-family="CMUBright-Roman" style="text-anchor:start;fill:rgb(150,150,150);" transform="rotate(317.8,2082.5,990.3)" >650 kb</text>
<line x1='2116.9' y1='1073.5' x2='2126.8' y2='1066.7' style="stroke-width:8.0;stroke:rgb(150,150,150);stroke-linecap:round;fill:none;" />
<line x1='2167.7' y1='1158.4' x2='2178.4' y2='1152.9' style="stroke-width:8.0;stroke:rgb(150,150,150);stroke-linecap:round;fill:none;" />
<line x1='2206.8' y1='1249.2' x2='2218.1' y2='1245.2' style="stroke-width:8.0;stroke:rgb(150,150,150);stroke-linecap:round;fill:none;" />
<line x1='2233.7' y1='1344.4' x2='2245.4' y2='1341.9' style="stroke-width:8.0;stroke:rgb(150,150,150);stroke-linecap:round;fill:none;" />
<line x1='2247.8' y1='1442.3' x2='2259.7' y2='1441.4' style="stroke-width:8.0;stroke:rgb(150,150,150);stroke-linecap:round;fill:none;" />
<text x="2272.7" y="1454.4" font-size="41.6px" font-family="CMUBright-Roman" style="text-anchor:start;fill:rgb(150,150,150);" transform="rotate(355.6,2272.7,1454.4)" >700 kb</text>
<line x1='2248.9' y1='1541.2' x2='2260.8' y2='1541.9' style="stroke-width:8.0;stroke:rgb(150,150,150);stroke-linecap:round;fill:none;" />
<line x1='2236.9' y1='1639.4' x2='2248.7' y2='1641.6' style="stroke-width:8.0;stroke:rgb(150,150,150);stroke-linecap:round;fill:none;" />
<line x1='2212.2' y1='1735.2' x2='2223.6' y2='1738.9' style="stroke-width:8.0;stroke:rgb(150,150,150);stroke-linecap:round;fill:none;" />
<line x1='2175.0' y1='1826.8' x2='2185.8' y2='1832.1' style="stroke-width:8.0;stroke:rgb(150,150,150);stroke-linecap:round;fill:none;" />
<line x1='2126.2' y1='1912.8' x2='2136.2' y2='1919.4' style="stroke-width:8.0;stroke:rgb(150,150,150);stroke-linecap:round;fill:none;" />
<text x="2138.4" y="1937.6" font-size="41.6px" font-family="CMUBright-Roman" style="text-anchor:start;fill:rgb(150,150,150);" transform="rotate(33.4,2138.4,1937.6)" >750 kb</text>
<line x1='2066.4' y1='1991.6' x2='2075.5' y2='1999.5' style="stroke-width:8.0;stroke:rgb(150,150,150);stroke-linecap:round;fill:none;" />
<line x1='1996.8' y1='2061.9' x2='2004.7' y2='2070.9' style="stroke-width:8.0;stroke:rgb(150,150,150);stroke-linecap:round;fill:none;" />
<line x1='1918.5' y1='2122.4' x2='1925.2' y2='2132.3' style="stroke-width:8.0;stroke:rgb(150,150,150);stroke-linecap:round;fill:none;" />
<line x1='1833.0' y1='2172.0' x2='1838.3' y2='2182.8' style="stroke-width:8.0;stroke:rgb(150,150,150);stroke-linecap:round;fill:none;" />
<line x1='1741.6' y1='2210.0' x2='1745.5' y2='2221.4' style="stroke-width:8.0;stroke:rgb(150,150,150);stroke-linecap:round;fill:none;" />
<text x="1736.1" y="2237.1" font-size="41.6px" font-family="CMUBright-Roman" style="text-anchor:start;fill:rgb(150,150,150);" transform="rotate(71.2,1736.1,2237.1)" >800 kb</text>
<g id="highlighttrack_0">
<path d="M2032.760,1363.375 A550.000,550.000 40.000 0,1 2049.319,1472.635 L2249.071,1462.684 A750.000,750.000 0.000 0,0 2226.491,1313.693 Z" style="stroke-width:14.0;stroke:rgb(0,0,0);stroke-linecap:round;fill:rgb(255,38,78);" />
</g>
<path d="M1500.000,950.000 A550.000,550.000 40.000 0,1 1662.963,2025.303 L1722.222,2216.322 A750.000,750.000 0.000 0,0 1500.000,750.000 Z" style="stroke-width:2.0;stroke:rgb(0,0,0);stroke-linecap:round;fill:none;" />
<path d="M1447.766,2047.514 A550.000,550.000 40.000 0,1 1287.885,992.548 L1210.752,808.021 A750.000,750.000 0.000 0,0 1428.771,2246.610 Z" style="stroke-width:2.0;stroke:rgb(0,0,0);stroke-linecap:round;fill:rgb(179,177,178);" />
<text x="491.5" y="1652.8" font-size="46.8px" font-family="CMUBright-Roman" style="text-anchor:middle;fill:rgb(0,0,0);" transform="rotate(81.4,491.5,1652.8)" >HistoohiSECH98<tspan baseline-shift="-40%" font-size="90%">2</tspan></text>
<line x1='1156.1' y1='833.5' x2='1150.6' y2='822.8' style="stroke-width:8.0;stroke:rgb(150,150,150);stroke-linecap:round;fill:none;" />
<text x="1132.7" y="818.7" font-size="41.6px" font-family="CMUBright-Roman" style="text-anchor:end;fill:rgb(150,150,150);" transform="rotate(62.7,1132.7,818.7)" >450 kb</text>
<line x1='1071.4' y1='884.5' x2='1064.5' y2='874.7' style="stroke-width:8.0;stroke:rgb(150,150,150);stroke-linecap:round;fill:none;" />
<line x1='994.1' y1='946.3' x2='986.0' y2='937.4' style="stroke-width:8.0;stroke:rgb(150,150,150);stroke-linecap:round;fill:none;" />
<line x1='925.7' y1='1017.7' x2='916.5' y2='1010.0' style="stroke-width:8.0;stroke:rgb(150,150,150);stroke-linecap:round;fill:none;" />
<line x1='867.2' y1='1097.4' x2='857.1' y2='1091.0' style="stroke-width:8.0;stroke:rgb(150,150,150);stroke-linecap:round;fill:none;" />
<line x1='819.7' y1='1184.2' x2='808.8' y2='1179.2' style="stroke-width:8.0;stroke:rgb(150,150,150);stroke-linecap:round;fill:none;" />
<text x="792.2" y="1186.9" font-size="41.6px" font-family="CMUBright-Roman" style="text-anchor:end;fill:rgb(150,150,150);" transform="rotate(24.9,792.2,1186.9)" >500 kb</text>
<line x1='784.1' y1='1276.5' x2='772.6' y2='1272.9' style="stroke-width:8.0;stroke:rgb(150,150,150);stroke-linecap:round;fill:none;" />
<line x1='760.9' y1='1372.6' x2='749.1' y2='1370.6' style="stroke-width:8.0;stroke:rgb(150,150,150);stroke-linecap:round;fill:none;" />
<line x1='750.6' y1='1471.0' x2='738.6' y2='1470.5' style="stroke-width:8.0;stroke:rgb(150,150,150);stroke-linecap:round;fill:none;" />
<line x1='753.3' y1='1569.9' x2='741.3' y2='1571.0' style="stroke-width:8.0;stroke:rgb(150,150,150);stroke-linecap:round;fill:none;" />
<line x1='769.0' y1='1667.5' x2='757.3' y2='1670.2' style="stroke-width:8.0;stroke:rgb(150,150,150);stroke-linecap:round;fill:none;" />
<text x="748.8" y="1686.5" font-size="41.6px" font-family="CMUBright-Roman" style="text-anchor:end;fill:rgb(150,150,150);" transform="rotate(-12.9,748.8,1686.5)" >550 kb</text>
<line x1='797.4' y1='1762.3' x2='786.1' y2='1766.5' style="stroke-width:8.0;stroke:rgb(150,150,150);stroke-linecap:round;fill:none;" />
<line x1='838.0' y1='1852.5' x2='827.4' y2='1858.1' style="stroke-width:8.0;stroke:rgb(150,150,150);stroke-linecap:round;fill:none;" />
<line x1='890.1' y1='1936.5' x2='880.4' y2='1943.5' style="stroke-width:8.0;stroke:rgb(150,150,150);stroke-linecap:round;fill:none;" />
<line x1='952.9' y1='2013.0' x2='944.1' y2='2021.2' style="stroke-width:8.0;stroke:rgb(150,150,150);stroke-linecap:round;fill:none;" />
<line x1='1025.1' y1='2080.5' x2='1017.5' y2='2089.8' style="stroke-width:8.0;stroke:rgb(150,150,150);stroke-linecap:round;fill:none;" />
<text x="1020.9" y="2107.9" font-size="41.6px" font-family="CMUBright-Roman" style="text-anchor:end;fill:rgb(150,150,150);" transform="rotate(-50.7,1020.9,2107.9)" >600 kb</text>
<line x1='1105.7' y1='2138.0' x2='1099.3' y2='2148.2' style="stroke-width:8.0;stroke:rgb(150,150,150);stroke-linecap:round;fill:none;" />
<line x1='1193.0' y1='2184.3' x2='1188.1' y2='2195.3' style="stroke-width:8.0;stroke:rgb(150,150,150);stroke-linecap:round;fill:none;" />
<line x1='1285.8' y1='2218.7' x2='1282.3' y2='2230.2' style="stroke-width:8.0;stroke:rgb(150,150,150);stroke-linecap:round;fill:none;" />
<line x1='1382.2' y1='2240.7' x2='1380.3' y2='2252.5' style="stroke-width:8.0;stroke:rgb(150,150,150);stroke-linecap:round;fill:none;" />
<path d="M1447.766,2047.514 A550.000,550.000 40.000 0,1 1287.885,992.548 L1210.752,808.021 A750.000,750.000 0.000 0,0 1428.771,2246.610 Z" style="stroke-width:2.0;stroke:rgb(0,0,0);stroke-linecap:round;fill:none;" />
</g>
<g id="track_0">
<path d="M 1564.058,981.442 A 522.500,522.500 0.00 0,1 1681.4,1010.0 L 1681.4,1010.0 1673.5,1030.6 1665.1,1051.1 1656.0,1071.4 1646.4,1091.4 1636.2,1111.2 1625.4,1130.5 1614.0,1149.3 1602.0,1167.6 1589.4,1185.2 1576.2,1202.2 1562.4,1218.4 1548.1,1233.9 1533.2,1248.5 1517.7,1262.3 1501.7,1275.2 1485.1,1287.1 1468.0,1298.1 1450.5,1308.0 1432.4,1317.0 1413.9,1325.0 1395.0,1331.9 1375.6,1337.7 1355.9,1342.6 1335.9,1346.3 1315.5,1349.1 1294.9,1350.8 1274.0,1351.6 1252.9,1351.3 1231.6,1350.1 1210.2,1348.0 1188.8,1344.9 1167.2,1341.1 1145.7,1336.4 1124.3,1330.9 1103.0,1324.7 1081.8,1317.9 1060.8,1310.4 1040.2,1302.4 1019.8,1294.0  A 522.500,522.500 0.00 0,1 1080.0,1189.1 L 1080.0,1189.1 1097.1,1201.5 1114.5,1213.4 1132.0,1224.9 1149.8,1235.8 1167.6,1246.0 1185.5,1255.5 1203.4,1264.1 1221.2,1271.9 1238.9,1278.7 1256.5,1284.6 1273.8,1289.4 1290.9,1293.1 1307.6,1295.7 1324.1,1297.1 1340.1,1297.3 1355.8,1296.3 1371.0,1294.1 1385.8,1290.7 1400.0,1286.0 1413.8,1280.1 1427.0,1273.0 1439.7,1264.7 1451.7,1255.2 1463.2,1244.5 1474.2,1232.7 1484.5,1219.8 1494.1,1205.9 1503.2,1190.9 1511.7,1175.1 1519.5,1158.3 1526.8,1140.8 1533.4,1122.5 1539.5,1103.6 1544.9,1084.1 1549.8,1064.1 1554.1,1043.8 1558.0,1023.1 1561.2,1002.3 1564.1,981.4  Z" style="stroke-width: 0.5;  stroke: rgb(0,0,0); fill: rgb(179,177,178);" />
<path d="M 1904.031,1831.308 A 522.500,522.500 0.00 0,1 1857.3,1881.2 L 1857.3,1881.2 1841.8,1865.1 1825.7,1849.1 1809.2,1833.5 1792.2,1818.4 1774.7,1803.7 1756.8,1789.6 1738.5,1776.0 1719.8,1763.2 1700.7,1751.0 1681.3,1739.7 1661.6,1729.1 1641.6,1719.4 1621.3,1710.6 1600.7,1702.7 1579.9,1695.8 1558.9,1689.8 1537.7,1684.8 1516.4,1680.9 1494.9,1677.9 1473.4,1676.0 1451.7,1675.1 1430.0,1675.2 1408.3,1676.3 1386.6,1678.5 1364.9,1681.6 1343.2,1685.7 1321.7,1690.8 1300.2,1696.8 1279.0,1703.6 1257.8,1711.4 1236.9,1719.9 1216.2,1729.3 1195.8,1739.3 1175.7,1750.0 1155.9,1761.4 1136.5,1773.3 1117.4,1785.7 1098.8,1798.5 1080.6,1811.7  A 522.500,522.500 0.00 0,1 1043.6,1754.4 L 1043.6,1754.4 1063.9,1743.3 1084.7,1732.6 1105.8,1722.3 1127.4,1712.5 1149.2,1703.2 1171.4,1694.4 1193.8,1686.3 1216.5,1678.8 1239.5,1671.9 1262.6,1665.8 1285.9,1660.4 1309.3,1655.8 1332.8,1652.0 1356.4,1649.0 1380.1,1646.8 1403.9,1645.5 1427.6,1645.0 1451.3,1645.4 1475.0,1646.6 1498.6,1648.7 1522.1,1651.7 1545.5,1655.5 1568.8,1660.2 1591.9,1665.8 1614.8,1672.1 1637.6,1679.3 1660.0,1687.2 1682.3,1695.9 1704.2,1705.3 1725.9,1715.4 1747.2,1726.2 1768.3,1737.7 1788.9,1749.7 1809.2,1762.2 1829.0,1775.2 1848.5,1788.7 1867.4,1802.6 1886.0,1816.8 1904.0,1831.3  Z" style="stroke-width: 0.5;  stroke: rgb(0,0,0); fill: rgb(179,177,178);" />
<path d="M 1772.967,1054.472 A 522.500,522.500 0.00 0,1 1823.4,1089.6 L 1823.4,1089.6 1808.6,1108.1 1793.2,1126.5 1777.4,1144.7 1761.0,1162.7 1744.2,1180.4 1726.9,1197.9 1709.1,1214.9 1690.9,1231.6 1672.2,1247.9 1653.0,1263.7 1633.4,1279.0 1613.4,1293.8 1592.9,1308.1 1572.1,1321.7 1550.8,1334.8 1529.2,1347.3 1507.3,1359.1 1485.0,1370.3 1462.3,1380.9 1439.4,1390.7 1416.2,1399.9 1392.7,1408.4 1369.0,1416.2 1345.1,1423.3 1321.0,1429.7 1296.8,1435.5 1272.3,1440.5 1247.8,1444.9 1223.2,1448.5 1198.6,1451.6 1173.9,1454.0 1149.2,1455.8 1124.6,1456.9 1100.1,1457.5 1075.6,1457.5 1051.3,1457.0 1027.2,1456.0 1003.3,1454.5 979.7,1452.6  A 522.500,522.500 0.00 0,1 988.7,1392.5 L 988.7,1392.5 1011.3,1397.0 1034.2,1401.0 1057.3,1404.6 1080.7,1407.5 1104.2,1409.9 1127.9,1411.6 1151.6,1412.6 1175.4,1412.9 1199.1,1412.6 1222.8,1411.4 1246.5,1409.5 1270.0,1406.8 1293.4,1403.3 1316.6,1399.0 1339.6,1393.9 1362.4,1387.9 1384.9,1381.1 1407.1,1373.4 1429.0,1365.0 1450.6,1355.7 1471.8,1345.6 1492.6,1334.7 1513.0,1323.0 1533.0,1310.5 1552.5,1297.3 1571.6,1283.4 1590.2,1268.8 1608.3,1253.6 1625.9,1237.7 1643.0,1221.2 1659.6,1204.2 1675.7,1186.7 1691.2,1168.8 1706.2,1150.4 1720.7,1131.7 1734.6,1112.7 1747.9,1093.4 1760.7,1074.0 1773.0,1054.5  Z" style="stroke-width: 0.5;  stroke: rgb(0,0,0); fill: rgb(179,177,178);" />
<path d="M 1716.556,1975.510 A 522.500,522.500 0.00 0,1 1660.4,1997.3 L 1660.4,1997.3 1653.9,1977.7 1647.0,1958.3 1639.8,1939.3 1632.3,1920.6 1624.4,1902.5 1616.2,1885.1 1607.6,1868.4 1598.8,1852.6 1589.7,1837.7 1580.3,1823.8 1570.7,1811.0 1560.8,1799.4 1550.7,1789.0 1540.3,1779.8 1529.8,1772.0 1519.0,1765.5 1508.1,1760.4 1497.1,1756.6 1485.8,1754.3 1474.5,1753.4 1463.1,1754.0 1451.6,1755.9 1440.0,1759.3 1428.4,1764.1 1416.7,1770.2 1405.1,1777.6 1393.5,1786.3 1381.9,1796.3 1370.4,1807.4 1359.0,1819.7 1347.7,1833.0 1336.5,1847.2 1325.5,1862.4 1314.7,1878.4 1304.1,1895.0 1293.7,1912.3 1283.6,1930.0 1273.9,1948.1 1264.4,1966.4  A 522.500,522.500 0.00 0,1 1212.3,1936.1 L 1212.3,1936.1 1224.0,1918.8 1236.1,1901.7 1248.6,1884.9 1261.5,1868.7 1274.6,1853.0 1288.0,1838.1 1301.6,1823.9 1315.5,1810.6 1329.5,1798.2 1343.7,1786.9 1358.0,1776.6 1372.5,1767.4 1387.0,1759.4 1401.5,1752.6 1416.1,1747.1 1430.7,1742.9 1445.2,1740.0 1459.8,1738.4 1474.2,1738.2 1488.5,1739.3 1502.8,1741.8 1516.8,1745.6 1530.8,1750.7 1544.5,1757.2 1558.1,1764.9 1571.4,1773.8 1584.5,1783.9 1597.3,1795.2 1609.9,1807.6 1622.1,1821.1 1634.1,1835.5 1645.7,1850.8 1657.0,1866.9 1667.9,1883.7 1678.4,1901.2 1688.6,1919.3 1698.3,1937.7 1707.7,1956.5 1716.6,1975.5  Z" style="stroke-width: 0.5;  stroke: rgb(0,0,0); fill: rgb(179,177,178);" />
<path d="M 1963.352,1258.523 A 522.500,522.500 0.00 0,1 1983.7,1302.3 L 1983.7,1302.3 1959.9,1311.9 1936.0,1321.3 1911.8,1330.7 1887.5,1339.8 1863.0,1348.8 1838.2,1357.6 1813.3,1366.2 1788.3,1374.5 1763.0,1382.7 1737.7,1390.6 1712.1,1398.3 1686.5,1405.7 1660.7,1412.9 1634.8,1419.8 1608.8,1426.5 1582.7,1432.9 1556.5,1439.0 1530.2,1444.8 1503.9,1450.3 1477.5,1455.5 1451.0,1460.5 1424.5,1465.1 1397.9,1469.5 1371.4,1473.6 1344.8,1477.4 1318.2,1480.9 1291.6,1484.1 1265.1,1487.0 1238.6,1489.6 1212.1,1492.0 1185.7,1494.1 1159.3,1495.9 1133.0,1497.5 1106.8,1498.8 1080.7,1499.9 1054.7,1500.7 1028.8,1501.4 1003.1,1501.8 977.5,1502.0  A 522.500,522.500 0.00 0,1 979.5,1454.1 L 979.5,1454.1 1004.5,1456.1 1029.6,1457.9 1054.9,1459.4 1080.5,1460.6 1106.1,1461.4 1132.0,1461.9 1157.9,1462.1 1184.0,1461.8 1210.1,1461.2 1236.3,1460.2 1262.6,1458.8 1288.9,1457.0 1315.3,1454.8 1341.6,1452.2 1368.0,1449.1 1394.3,1445.7 1420.6,1441.8 1446.9,1437.4 1473.0,1432.7 1499.2,1427.5 1525.2,1421.9 1551.1,1415.8 1576.9,1409.4 1602.5,1402.5 1628.1,1395.3 1653.4,1387.6 1678.6,1379.6 1703.6,1371.2 1728.4,1362.4 1753.0,1353.3 1777.4,1343.9 1801.6,1334.1 1825.5,1324.1 1849.2,1313.7 1872.6,1303.1 1895.7,1292.3 1918.5,1281.2 1941.1,1270.0 1963.4,1258.5  Z" style="stroke-width: 0.5;  stroke: rgb(0,0,0); fill: rgb(179,177,178);" />
<path d="M 1709.466,1021.325 A 522.500,522.500 0.00 0,1 1747.5,1039.8 L 1747.5,1039.8 1736.5,1059.7 1724.9,1079.5 1712.8,1099.2 1700.1,1118.6 1686.9,1137.6 1673.0,1156.4 1658.7,1174.6 1643.7,1192.4 1628.2,1209.7 1612.2,1226.4 1595.6,1242.4 1578.5,1257.8 1560.9,1272.5 1542.7,1286.4 1524.1,1299.5 1505.1,1311.9 1485.5,1323.4 1465.6,1334.1 1445.2,1343.9 1424.4,1352.8 1403.3,1360.9 1381.8,1368.0 1360.0,1374.3 1337.9,1379.6 1315.5,1384.1 1293.0,1387.7 1270.2,1390.4 1247.3,1392.2 1224.2,1393.2 1201.1,1393.4 1177.9,1392.7 1154.7,1391.3 1131.5,1389.2 1108.4,1386.4 1085.5,1382.9 1062.7,1378.8 1040.1,1374.0 1017.8,1368.8 995.8,1363.1  A 522.500,522.500 0.00 0,1 1008.3,1323.1 L 1008.3,1323.1 1029.4,1330.4 1050.9,1337.3 1072.5,1343.6 1094.4,1349.3 1116.5,1354.3 1138.7,1358.7 1161.0,1362.3 1183.2,1365.1 1205.5,1367.1 1227.7,1368.3 1249.8,1368.5 1271.7,1367.9 1293.4,1366.3 1314.9,1363.8 1336.2,1360.3 1357.2,1355.8 1377.8,1350.3 1398.1,1343.9 1418.0,1336.4 1437.5,1328.0 1456.6,1318.7 1475.3,1308.4 1493.4,1297.1 1511.1,1285.0 1528.2,1271.9 1544.9,1258.1 1561.0,1243.4 1576.5,1227.9 1591.5,1211.7 1605.9,1194.8 1619.8,1177.2 1633.0,1159.1 1645.7,1140.4 1657.8,1121.3 1669.3,1101.8 1680.2,1082.0 1690.5,1061.9 1700.3,1041.7 1709.5,1021.3  Z" style="stroke-width: 0.5;  stroke: rgb(0,0,0); fill: rgb(179,177,178);" />
<path d="M 1990.263,1319.311 A 522.500,522.500 0.00 0,1 2003.2,1359.2 L 2003.2,1359.2 1977.8,1366.3 1952.4,1373.3 1926.8,1380.2 1901.2,1387.0 1875.5,1393.8 1849.8,1400.5 1823.9,1407.2 1798.0,1413.7 1772.0,1420.1 1746.0,1426.5 1719.9,1432.7 1693.8,1438.9 1667.6,1445.0 1641.3,1450.9 1615.1,1456.7 1588.7,1462.5 1562.4,1468.1 1536.0,1473.6 1509.6,1479.0 1483.1,1484.3 1456.6,1489.5 1430.2,1494.5 1403.7,1499.5 1377.1,1504.3 1350.6,1509.0 1324.1,1513.6 1297.6,1518.0 1271.1,1522.4 1244.6,1526.7 1218.1,1530.8 1191.7,1534.8 1165.3,1538.7 1138.9,1542.6 1112.5,1546.3 1086.2,1549.9 1059.9,1553.4 1033.7,1556.8 1007.5,1560.1 981.4,1563.3  A 522.500,522.500 0.00 0,1 977.9,1521.3 L 977.9,1521.3 1003.7,1520.2 1029.6,1518.9 1055.7,1517.4 1081.8,1515.7 1108.0,1513.8 1134.3,1511.8 1160.6,1509.5 1187.1,1507.0 1213.5,1504.3 1240.1,1501.3 1266.6,1498.2 1293.2,1494.8 1319.8,1491.2 1346.4,1487.3 1373.0,1483.2 1399.5,1478.9 1426.1,1474.3 1452.7,1469.5 1479.2,1464.5 1505.6,1459.2 1532.0,1453.7 1558.4,1447.9 1584.7,1442.0 1610.9,1435.8 1637.0,1429.3 1663.0,1422.7 1689.0,1415.8 1714.8,1408.8 1740.6,1401.5 1766.2,1394.0 1791.7,1386.4 1817.0,1378.5 1842.2,1370.5 1867.3,1362.3 1892.2,1354.0 1917.0,1345.5 1941.6,1336.9 1966.0,1328.2 1990.3,1319.3  Z" style="stroke-width: 0.5;  stroke: rgb(0,0,0); fill: rgb(179,177,178);" />
<path d="M 1659.655,1997.510 A 522.500,522.500 0.00 0,1 1654.8,1999.0 L 1654.8,1999.0 1648.6,1979.5 1642.0,1960.2 1635.2,1941.2 1628.1,1922.6 1620.7,1904.6 1613.0,1887.3 1605.1,1870.7 1596.9,1855.0 1588.5,1840.3 1579.9,1826.6 1571.1,1814.1 1562.1,1802.7 1553.0,1792.6 1543.6,1783.7 1534.2,1776.2 1524.6,1770.1 1514.9,1765.4 1505.1,1762.1 1495.3,1760.3 1485.3,1759.9 1475.4,1761.0 1465.4,1763.6 1455.4,1767.5 1445.4,1772.9 1435.4,1779.7 1425.4,1787.8 1415.5,1797.2 1405.7,1807.9 1396.0,1819.8 1386.4,1832.8 1377.0,1846.8 1367.6,1861.9 1358.5,1877.8 1349.6,1894.5 1340.8,1911.9 1332.3,1929.9 1324.1,1948.4 1316.2,1967.1 1308.5,1986.1  A 522.500,522.500 0.00 0,1 1271.0,1969.6 L 1271.0,1969.6 1280.2,1951.2 1289.7,1933.0 1299.5,1915.2 1309.6,1897.8 1319.9,1881.0 1330.4,1865.0 1341.2,1849.7 1352.1,1835.3 1363.1,1821.8 1374.2,1809.5 1385.5,1798.2 1396.8,1788.1 1408.2,1779.3 1419.5,1771.7 1430.9,1765.5 1442.3,1760.7 1453.7,1757.2 1465.0,1755.1 1476.2,1754.5 1487.3,1755.3 1498.3,1757.5 1509.2,1761.2 1519.9,1766.2 1530.5,1772.7 1540.9,1780.4 1551.1,1789.5 1561.0,1799.9 1570.8,1811.5 1580.3,1824.2 1589.6,1838.1 1598.6,1852.9 1607.3,1868.7 1615.8,1885.4 1623.9,1902.8 1631.7,1920.9 1639.2,1939.5 1646.4,1958.6 1653.2,1978.0 1659.7,1997.5  Z" style="stroke-width: 0.5;  stroke: rgb(0,0,0); fill: rgb(179,177,178);" />
<path d="M 1942.974,1777.092 A 522.500,522.500 0.00 0,1 1920.6,1810.0 L 1920.6,1810.0 1901.5,1796.1 1881.9,1782.6 1861.9,1769.3 1841.4,1756.4 1820.6,1743.9 1799.4,1731.9 1777.8,1720.3 1755.8,1709.2 1733.6,1698.7 1711.0,1688.8 1688.1,1679.5 1665.0,1670.9 1641.6,1662.9 1617.9,1655.6 1594.1,1649.0 1570.1,1643.1 1545.9,1637.9 1521.6,1633.5 1497.1,1629.9 1472.6,1627.0 1448.0,1624.8 1423.3,1623.5 1398.5,1622.8 1373.8,1623.0 1349.1,1623.9 1324.4,1625.5 1299.8,1627.8 1275.3,1630.8 1250.9,1634.6 1226.6,1639.0 1202.5,1644.0 1178.6,1649.7 1154.9,1655.9 1131.5,1662.7 1108.3,1670.0 1085.4,1677.8 1062.8,1686.0 1040.6,1694.6 1018.8,1703.6  A 522.500,522.500 0.00 0,1 1004.7,1666.3 L 1004.7,1666.3 1027.5,1658.9 1050.8,1651.7 1074.3,1645.0 1098.1,1638.6 1122.2,1632.7 1146.5,1627.3 1171.0,1622.3 1195.8,1617.9 1220.7,1614.0 1245.8,1610.6 1270.9,1607.9 1296.2,1605.7 1321.6,1604.2 1347.0,1603.3 1372.5,1603.0 1398.0,1603.4 1423.5,1604.4 1448.9,1606.1 1474.4,1608.4 1499.7,1611.4 1524.9,1615.1 1550.1,1619.4 1575.1,1624.3 1600.0,1629.9 1624.7,1636.1 1649.2,1642.9 1673.5,1650.3 1697.6,1658.3 1721.5,1666.8 1745.1,1675.9 1768.4,1685.5 1791.4,1695.5 1814.2,1706.1 1836.5,1717.0 1858.6,1728.4 1880.3,1740.1 1901.6,1752.2 1922.5,1764.5 1943.0,1777.1  Z" style="stroke-width: 0.5;  stroke: rgb(0,0,0); fill: rgb(179,177,178);" />
<path d="M 1786.127,1937.193 A 522.500,522.500 0.00 0,1 1753.5,1956.9 L 1753.5,1956.9 1743.0,1938.4 1732.0,1920.2 1720.6,1902.3 1708.7,1884.8 1696.4,1867.9 1683.7,1851.6 1670.7,1836.0 1657.2,1821.2 1643.5,1807.3 1629.4,1794.3 1615.0,1782.3 1600.3,1771.3 1585.3,1761.5 1570.1,1752.8 1554.7,1745.3 1539.1,1739.1 1523.3,1734.0 1507.4,1730.3 1491.3,1727.8 1475.1,1726.6 1458.8,1726.7 1442.5,1728.1 1426.1,1730.7 1409.8,1734.6 1393.4,1739.8 1377.1,1746.1 1360.9,1753.6 1344.8,1762.3 1328.7,1772.0 1312.9,1782.8 1297.2,1794.6 1281.8,1807.2 1266.5,1820.7 1251.6,1835.0 1237.0,1849.9 1222.6,1865.4 1208.7,1881.5 1195.1,1897.9 1182.0,1914.6  A 522.500,522.500 0.00 0,1 1152.7,1890.4 L 1152.7,1890.4 1167.2,1874.5 1182.2,1858.8 1197.6,1843.6 1213.3,1828.9 1229.4,1814.8 1245.9,1801.3 1262.6,1788.6 1279.6,1776.7 1296.8,1765.7 1314.2,1755.6 1331.8,1746.5 1349.5,1738.4 1367.4,1731.5 1385.3,1725.6 1403.3,1720.9 1421.3,1717.4 1439.3,1715.0 1457.3,1713.9 1475.2,1714.0 1493.1,1715.3 1510.8,1717.9 1528.4,1721.6 1545.9,1726.6 1563.2,1732.7 1580.3,1740.0 1597.2,1748.4 1613.8,1758.0 1630.1,1768.5 1646.2,1780.1 1661.9,1792.7 1677.3,1806.1 1692.4,1820.4 1707.1,1835.4 1721.3,1851.1 1735.2,1867.5 1748.6,1884.4 1761.6,1901.7 1774.1,1919.3 1786.1,1937.2  Z" style="stroke-width: 0.5;  stroke: rgb(0,0,0); fill: rgb(179,177,178);" />
<path d="M 1856.668,1881.830 A 522.500,522.500 0.00 0,1 1829.8,1905.3 L 1829.8,1905.3 1815.6,1888.3 1801.0,1871.6 1785.8,1855.2 1770.2,1839.3 1754.1,1823.9 1737.6,1809.0 1720.6,1794.8 1703.3,1781.2 1685.6,1768.5 1667.5,1756.5 1649.2,1745.5 1630.5,1735.3 1611.5,1726.1 1592.3,1717.9 1572.8,1710.7 1553.1,1704.5 1533.2,1699.4 1513.2,1695.4 1493.0,1692.5 1472.7,1690.7 1452.3,1690.0 1431.9,1690.3 1411.4,1691.8 1391.0,1694.4 1370.5,1698.0 1350.1,1702.7 1329.8,1708.4 1309.6,1715.1 1289.6,1722.7 1269.7,1731.2 1250.0,1740.7 1230.5,1750.9 1211.3,1761.9 1192.4,1773.6 1173.9,1785.9 1155.7,1798.9 1137.8,1812.3 1120.4,1826.1 1103.5,1840.3  A 522.500,522.500 0.00 0,1 1081.0,1812.2 L 1081.0,1812.2 1099.1,1799.0 1117.7,1786.1 1136.8,1773.7 1156.2,1761.8 1176.0,1750.4 1196.1,1739.7 1216.5,1729.6 1237.1,1720.3 1258.0,1711.7 1279.1,1704.0 1300.4,1697.1 1321.8,1691.1 1343.3,1686.0 1364.9,1681.9 1386.6,1678.8 1408.3,1676.6 1430.0,1675.5 1451.7,1675.4 1473.3,1676.3 1494.9,1678.2 1516.3,1681.2 1537.6,1685.1 1558.8,1690.1 1579.7,1696.1 1600.5,1703.1 1621.0,1711.0 1641.3,1719.8 1661.3,1729.5 1681.0,1740.1 1700.4,1751.4 1719.4,1763.6 1738.1,1776.5 1756.4,1790.0 1774.2,1804.2 1791.7,1818.9 1808.6,1834.1 1825.1,1849.7 1841.2,1865.6 1856.7,1881.8  Z" style="stroke-width: 0.5;  stroke: rgb(0,0,0); fill: rgb(179,177,178);" />
<path d="M 2022.496,1502.024 A 522.500,522.500 0.00 0,1 2021.3,1534.7 L 2021.3,1534.7 1995.8,1533.1 1970.1,1531.7 1944.3,1530.5 1918.3,1529.6 1892.2,1528.8 1865.9,1528.3 1839.6,1528.0 1813.2,1528.0 1786.7,1528.3 1760.1,1528.8 1733.5,1529.6 1706.8,1530.6 1680.1,1532.0 1653.3,1533.6 1626.5,1535.6 1599.8,1537.8 1573.0,1540.3 1546.2,1543.1 1519.5,1546.2 1492.8,1549.6 1466.1,1553.3 1439.5,1557.3 1412.9,1561.6 1386.4,1566.2 1360.0,1571.0 1333.7,1576.2 1307.5,1581.6 1281.4,1587.2 1255.4,1593.1 1229.6,1599.3 1203.9,1605.7 1178.3,1612.4 1152.9,1619.2 1127.6,1626.3 1102.5,1633.6 1077.6,1641.1 1052.9,1648.7 1028.4,1656.5 1004.1,1664.5  A 522.500,522.500 0.00 0,1 994.6,1632.7 L 994.6,1632.7 1019.8,1626.2 1045.1,1619.8 1070.5,1613.4 1096.0,1607.3 1121.7,1601.2 1147.5,1595.3 1173.4,1589.5 1199.4,1583.9 1225.5,1578.5 1251.7,1573.2 1278.0,1568.1 1304.4,1563.2 1330.8,1558.4 1357.3,1553.8 1383.9,1549.4 1410.5,1545.3 1437.2,1541.3 1463.9,1537.5 1490.7,1533.9 1517.5,1530.4 1544.3,1527.2 1571.1,1524.2 1597.9,1521.4 1624.8,1518.8 1651.6,1516.4 1678.4,1514.2 1705.2,1512.2 1732.0,1510.4 1758.7,1508.7 1785.4,1507.3 1812.0,1506.0 1838.6,1505.0 1865.1,1504.1 1891.6,1503.3 1917.9,1502.8 1944.2,1502.4 1970.4,1502.1 1996.5,1502.0 2022.5,1502.0  Z" style="stroke-width: 0.5;  stroke: rgb(0,0,0); fill: rgb(179,177,178);" />
<path d="M 2021.606,1469.445 A 522.500,522.500 0.00 0,1 2022.5,1502.0 L 2022.5,1502.0 1996.5,1501.9 1970.4,1502.0 1944.2,1502.3 1917.9,1502.7 1891.6,1503.3 1865.1,1504.0 1838.6,1504.9 1812.0,1506.0 1785.4,1507.2 1758.7,1508.7 1731.9,1510.3 1705.2,1512.1 1678.4,1514.1 1651.6,1516.3 1624.7,1518.7 1597.9,1521.3 1571.1,1524.1 1544.3,1527.1 1517.4,1530.3 1490.7,1533.7 1463.9,1537.3 1437.2,1541.1 1410.5,1545.1 1383.9,1549.2 1357.3,1553.6 1330.8,1558.2 1304.3,1562.9 1278.0,1567.8 1251.7,1572.9 1225.5,1578.2 1199.3,1583.6 1173.3,1589.2 1147.4,1594.9 1121.6,1600.8 1095.9,1606.8 1070.4,1613.0 1044.9,1619.3 1019.7,1625.7 994.5,1632.2  A 522.500,522.500 0.00 0,1 987.3,1600.7 L 987.3,1600.7 1013.2,1595.7 1039.1,1590.7 1065.2,1585.8 1091.3,1580.9 1117.4,1576.1 1143.7,1571.4 1170.0,1566.8 1196.3,1562.2 1222.7,1557.8 1249.1,1553.4 1275.6,1549.1 1302.1,1544.9 1328.7,1540.8 1355.3,1536.8 1381.9,1532.9 1408.6,1529.1 1435.3,1525.4 1462.0,1521.8 1488.7,1518.3 1515.5,1514.9 1542.2,1511.6 1569.0,1508.4 1595.8,1505.4 1622.5,1502.4 1649.3,1499.5 1676.1,1496.7 1702.8,1494.1 1729.5,1491.5 1756.3,1489.0 1783.0,1486.7 1809.6,1484.4 1836.3,1482.2 1862.9,1480.1 1889.4,1478.1 1916.0,1476.2 1942.5,1474.4 1968.9,1472.7 1995.3,1471.0 2021.6,1469.4  Z" style="stroke-width: 0.5;  stroke: rgb(0,0,0); fill: rgb(179,177,178);" />
<path d="M 1533.360,978.566 A 522.500,522.500 0.00 0,1 1562.3,981.2 L 1562.3,981.2 1559.6,1002.1 1556.3,1022.9 1552.6,1043.5 1548.3,1063.9 1543.5,1083.9 1538.1,1103.4 1532.2,1122.3 1525.6,1140.6 1518.5,1158.1 1510.7,1174.8 1502.3,1190.7 1493.3,1205.6 1483.7,1219.5 1473.5,1232.4 1462.7,1244.2 1451.2,1254.8 1439.2,1264.3 1426.6,1272.6 1413.5,1279.7 1399.8,1285.6 1385.6,1290.3 1370.9,1293.7 1355.8,1295.8 1340.2,1296.8 1324.2,1296.5 1307.8,1295.1 1291.1,1292.5 1274.1,1288.7 1256.8,1283.9 1239.3,1278.0 1221.7,1271.1 1203.9,1263.3 1186.1,1254.6 1168.2,1245.1 1150.4,1234.8 1132.7,1223.9 1115.2,1212.4 1097.9,1200.4 1080.9,1188.0  A 522.500,522.500 0.00 0,1 1099.2,1164.7 L 1099.2,1164.7 1115.4,1178.0 1131.8,1190.8 1148.4,1203.2 1165.1,1215.0 1182.0,1226.2 1198.8,1236.6 1215.6,1246.2 1232.3,1254.9 1248.9,1262.7 1265.3,1269.5 1281.4,1275.1 1297.3,1279.7 1312.8,1283.1 1328.0,1285.3 1342.8,1286.4 1357.2,1286.1 1371.1,1284.6 1384.5,1281.9 1397.4,1277.8 1409.8,1272.5 1421.6,1266.0 1432.8,1258.1 1443.5,1249.1 1453.6,1238.9 1463.0,1227.4 1471.9,1214.9 1480.1,1201.3 1487.8,1186.7 1494.8,1171.0 1501.2,1154.5 1507.0,1137.1 1512.2,1119.0 1516.8,1100.2 1520.8,1080.8 1524.4,1060.9 1527.3,1040.7 1529.8,1020.1 1531.8,999.4 1533.4,978.6  Z" style="stroke-width: 0.5;  stroke: rgb(0,0,0); fill: rgb(179,177,178);" />
<path d="M 1747.574,1039.877 A 522.500,522.500 0.00 0,1 1770.0,1052.7 L 1770.0,1052.7 1757.9,1072.2 1745.2,1091.7 1732.0,1111.0 1718.3,1130.1 1704.0,1148.8 1689.1,1167.2 1673.7,1185.2 1657.8,1202.8 1641.3,1219.8 1624.3,1236.3 1606.8,1252.2 1588.8,1267.5 1570.3,1282.1 1551.4,1296.0 1531.9,1309.2 1512.0,1321.7 1491.7,1333.3 1471.0,1344.2 1449.9,1354.3 1428.5,1363.5 1406.6,1372.0 1384.5,1379.6 1362.1,1386.3 1339.4,1392.2 1316.5,1397.3 1293.3,1401.5 1270.0,1404.9 1246.5,1407.5 1222.9,1409.3 1199.3,1410.4 1175.6,1410.6 1151.9,1410.2 1128.2,1409.0 1104.6,1407.1 1081.2,1404.7 1057.9,1401.6 1034.8,1397.9 1011.9,1393.8 989.4,1389.1  A 522.500,522.500 0.00 0,1 995.5,1363.9 L 995.5,1363.9 1017.6,1369.6 1039.9,1374.8 1062.5,1379.4 1085.3,1383.5 1108.3,1387.0 1131.4,1389.8 1154.6,1391.9 1177.8,1393.3 1201.0,1393.9 1224.1,1393.7 1247.2,1392.6 1270.1,1390.8 1292.9,1388.0 1315.5,1384.4 1337.8,1379.9 1359.9,1374.6 1381.7,1368.3 1403.2,1361.1 1424.4,1353.0 1445.1,1344.1 1465.5,1334.3 1485.5,1323.6 1505.0,1312.0 1524.1,1299.7 1542.8,1286.5 1560.9,1272.6 1578.5,1257.9 1595.6,1242.5 1612.2,1226.5 1628.2,1209.8 1643.8,1192.5 1658.7,1174.7 1673.1,1156.4 1686.9,1137.7 1700.2,1118.6 1712.9,1099.2 1725.0,1079.6 1736.6,1059.8 1747.6,1039.9  Z" style="stroke-width: 0.5;  stroke: rgb(0,0,0); fill: rgb(179,177,178);" />
<path d="M 1916.778,1815.122 A 522.500,522.500 0.00 0,1 1904.0,1831.3 L 1904.0,1831.3 1886.0,1816.8 1867.5,1802.6 1848.5,1788.7 1829.0,1775.2 1809.2,1762.2 1788.9,1749.6 1768.2,1737.6 1747.2,1726.2 1725.9,1715.4 1704.2,1705.3 1682.3,1695.8 1660.0,1687.1 1637.5,1679.2 1614.8,1672.0 1591.9,1665.7 1568.8,1660.2 1545.5,1655.5 1522.1,1651.6 1498.6,1648.6 1474.9,1646.5 1451.2,1645.2 1427.5,1644.9 1403.8,1645.3 1380.1,1646.6 1356.4,1648.8 1332.7,1651.8 1309.2,1655.6 1285.7,1660.2 1262.5,1665.6 1239.3,1671.7 1216.4,1678.5 1193.7,1686.0 1171.2,1694.1 1149.1,1702.9 1127.2,1712.2 1105.7,1722.0 1084.5,1732.2 1063.7,1742.9 1043.4,1754.0  A 522.500,522.500 0.00 0,1 1033.6,1735.6 L 1033.6,1735.6 1054.6,1725.3 1076.0,1715.3 1097.7,1705.7 1119.8,1696.6 1142.3,1688.0 1165.0,1679.9 1188.0,1672.3 1211.2,1665.4 1234.7,1659.2 1258.4,1653.6 1282.2,1648.7 1306.1,1644.5 1330.2,1641.1 1354.3,1638.5 1378.5,1636.6 1402.8,1635.6 1427.0,1635.3 1451.3,1635.8 1475.5,1637.2 1499.6,1639.4 1523.7,1642.4 1547.6,1646.1 1571.4,1650.7 1595.1,1656.1 1618.6,1662.3 1641.9,1669.2 1664.9,1676.9 1687.8,1685.2 1710.3,1694.3 1732.6,1704.0 1754.5,1714.4 1776.2,1725.3 1797.5,1736.8 1818.4,1748.9 1838.9,1761.3 1859.0,1774.3 1878.7,1787.6 1898.0,1801.2 1916.8,1815.1  Z" style="stroke-width: 0.5;  stroke: rgb(0,0,0); fill: rgb(179,177,178);" />
<path d="M 2019.824,1447.190 A 522.500,522.500 0.00 0,1 2021.5,1467.0 L 2021.5,1467.0 1995.1,1468.7 1968.7,1470.5 1942.3,1472.3 1915.8,1474.3 1889.3,1476.3 1862.7,1478.4 1836.1,1480.6 1809.5,1482.9 1782.8,1485.2 1756.1,1487.7 1729.4,1490.3 1702.7,1492.9 1676.0,1495.7 1649.2,1498.5 1622.5,1501.5 1595.7,1504.5 1568.9,1507.7 1542.2,1510.9 1515.4,1514.3 1488.7,1517.8 1462.0,1521.3 1435.3,1525.0 1408.6,1528.7 1382.0,1532.6 1355.3,1536.5 1328.7,1540.6 1302.2,1544.7 1275.6,1548.9 1249.2,1553.2 1222.7,1557.7 1196.3,1562.1 1170.0,1566.7 1143.7,1571.4 1117.5,1576.1 1091.3,1580.9 1065.2,1585.8 1039.2,1590.7 1013.2,1595.7 987.3,1600.7  A 522.500,522.500 0.00 0,1 983.8,1581.1 L 983.8,1581.1 1010.1,1577.0 1036.5,1572.9 1062.8,1568.9 1089.2,1564.8 1115.7,1560.8 1142.1,1556.8 1168.6,1552.9 1195.0,1549.0 1221.6,1545.1 1248.1,1541.2 1274.6,1537.4 1301.2,1533.7 1327.8,1529.9 1354.4,1526.2 1381.0,1522.6 1407.6,1519.0 1434.2,1515.4 1460.9,1511.9 1487.5,1508.4 1514.2,1504.9 1540.8,1501.5 1567.5,1498.2 1594.2,1494.9 1620.8,1491.6 1647.5,1488.3 1674.2,1485.2 1700.8,1482.0 1727.5,1478.9 1754.1,1475.8 1780.8,1472.8 1807.4,1469.8 1834.0,1466.8 1860.6,1463.9 1887.2,1461.0 1913.7,1458.2 1940.3,1455.4 1966.8,1452.6 1993.3,1449.9 2019.8,1447.2  Z" style="stroke-width: 0.5;  stroke: rgb(0,0,0); fill: rgb(179,177,178);" />
<path d="M 1500.000,977.500 A 522.500,522.500 0.00 0,1 1514.9,977.7 L 1514.9,977.7 1514.1,998.4 1512.8,1019.1 1511.2,1039.6 1509.0,1059.8 1506.3,1079.6 1503.1,1098.9 1499.4,1117.6 1495.0,1135.6 1490.1,1152.8 1484.6,1169.1 1478.5,1184.6 1471.8,1199.0 1464.4,1212.4 1456.5,1224.7 1447.9,1235.8 1438.8,1245.7 1429.0,1254.5 1418.6,1261.9 1407.7,1268.1 1396.2,1273.0 1384.2,1276.7 1371.6,1279.0 1358.6,1280.0 1345.0,1279.8 1331.1,1278.3 1316.7,1275.5 1301.9,1271.6 1286.9,1266.5 1271.5,1260.2 1255.9,1252.9 1240.0,1244.5 1224.0,1235.2 1207.9,1225.0 1191.8,1214.0 1175.6,1202.3 1159.5,1189.9 1143.5,1176.9 1127.8,1163.5 1112.2,1149.8  A 522.500,522.500 0.00 0,1 1125.6,1135.6 L 1125.6,1135.6 1140.5,1149.8 1155.6,1163.8 1171.0,1177.3 1186.4,1190.2 1201.9,1202.5 1217.4,1214.1 1232.8,1224.9 1248.1,1234.7 1263.3,1243.6 1278.2,1251.5 1292.8,1258.3 1307.2,1263.9 1321.2,1268.4 1334.8,1271.7 1348.0,1273.7 1360.7,1274.4 1373.0,1273.8 1384.8,1271.9 1396.0,1268.7 1406.7,1264.2 1416.9,1258.3 1426.5,1251.2 1435.4,1242.8 1443.8,1233.2 1451.6,1222.3 1458.8,1210.3 1465.3,1197.2 1471.3,1183.0 1476.6,1167.7 1481.4,1151.5 1485.5,1134.5 1489.1,1116.6 1492.2,1098.1 1494.7,1078.9 1496.7,1059.2 1498.2,1039.1 1499.2,1018.7 1499.8,998.1 1500.0,977.5  Z" style="stroke-width: 0.5;  stroke: rgb(0,0,0); fill: rgb(179,177,178);" />
<path d="M 1514.886,977.712 A 522.500,522.500 0.00 0,1 1532.6,978.5 L 1532.6,978.5 1531.1,999.3 1529.2,1020.0 1526.7,1040.6 1523.8,1060.9 1520.3,1080.8 1516.3,1100.1 1511.7,1118.9 1506.5,1137.1 1500.8,1154.4 1494.4,1170.9 1487.4,1186.5 1479.8,1201.2 1471.6,1214.8 1462.8,1227.3 1453.4,1238.7 1443.4,1248.9 1432.7,1257.9 1421.5,1265.7 1409.8,1272.2 1397.4,1277.5 1384.6,1281.5 1371.2,1284.3 1357.3,1285.7 1343.0,1285.9 1328.3,1284.9 1313.1,1282.6 1297.6,1279.2 1281.8,1274.6 1265.7,1268.9 1249.4,1262.1 1232.8,1254.3 1216.1,1245.5 1199.4,1235.9 1182.6,1225.4 1165.8,1214.2 1149.1,1202.3 1132.5,1189.9 1116.1,1177.0 1100.0,1163.8  A 522.500,522.500 0.00 0,1 1111.7,1150.4 L 1111.7,1150.4 1127.2,1164.1 1143.0,1177.5 1159.0,1190.4 1175.1,1202.8 1191.3,1214.5 1207.5,1225.5 1223.6,1235.7 1239.7,1245.0 1255.5,1253.3 1271.2,1260.6 1286.6,1266.8 1301.7,1271.9 1316.4,1275.8 1330.8,1278.6 1344.8,1280.0 1358.4,1280.3 1371.4,1279.2 1384.0,1276.9 1396.1,1273.2 1407.6,1268.3 1418.5,1262.1 1428.9,1254.6 1438.7,1245.9 1447.9,1235.9 1456.4,1224.8 1464.4,1212.5 1471.7,1199.1 1478.5,1184.6 1484.6,1169.2 1490.1,1152.8 1495.0,1135.6 1499.4,1117.6 1503.1,1098.9 1506.3,1079.6 1509.0,1059.8 1511.2,1039.6 1512.9,1019.1 1514.1,998.4 1514.9,977.7  Z" style="stroke-width: 0.5;  stroke: rgb(0,0,0); fill: rgb(179,177,178);" />
<path d="M 1750.265,1958.665 A 522.500,522.500 0.00 0,1 1736.8,1965.8 L 1736.8,1965.8 1727.0,1947.0 1716.8,1928.5 1706.1,1910.3 1695.0,1892.6 1683.5,1875.4 1671.6,1858.8 1659.3,1842.9 1646.7,1827.9 1633.7,1813.7 1620.5,1800.5 1606.9,1788.3 1593.0,1777.2 1578.8,1767.2 1564.5,1758.3 1549.8,1750.7 1535.0,1744.3 1520.0,1739.2 1504.9,1735.4 1489.6,1732.9 1474.2,1731.7 1458.7,1731.8 1443.1,1733.2 1427.5,1735.9 1411.9,1739.9 1396.3,1745.2 1380.7,1751.7 1365.2,1759.4 1349.7,1768.2 1334.4,1778.2 1319.2,1789.2 1304.2,1801.2 1289.4,1814.1 1274.8,1827.8 1260.5,1842.4 1246.4,1857.6 1232.7,1873.4 1219.4,1889.7 1206.4,1906.4 1193.8,1923.4  A 522.500,522.500 0.00 0,1 1182.0,1914.6 L 1182.0,1914.6 1195.1,1897.9 1208.6,1881.4 1222.6,1865.4 1236.8,1849.9 1251.5,1835.0 1266.4,1820.8 1281.6,1807.3 1297.0,1794.6 1312.7,1782.9 1328.5,1772.2 1344.4,1762.4 1360.5,1753.8 1376.7,1746.3 1393.0,1740.0 1409.3,1734.9 1425.6,1731.0 1441.8,1728.4 1458.1,1727.1 1474.3,1727.1 1490.4,1728.3 1506.4,1730.9 1522.2,1734.7 1537.9,1739.8 1553.4,1746.1 1568.7,1753.7 1583.8,1762.4 1598.6,1772.3 1613.2,1783.3 1627.5,1795.4 1641.4,1808.4 1655.1,1822.4 1668.4,1837.3 1681.3,1853.0 1693.9,1869.3 1706.0,1886.3 1717.7,1903.9 1729.0,1921.8 1739.9,1940.1 1750.3,1958.7  Z" style="stroke-width: 0.5;  stroke: rgb(0,0,0); fill: rgb(179,177,178);" />
<path d="M 1985.520,1306.928 A 522.500,522.500 0.00 0,1 1990.2,1319.1 L 1990.2,1319.1 1965.9,1328.0 1941.5,1336.7 1916.9,1345.3 1892.2,1353.8 1867.3,1362.2 1842.2,1370.3 1817.0,1378.3 1791.6,1386.2 1766.1,1393.8 1740.5,1401.3 1714.8,1408.6 1689.0,1415.6 1663.0,1422.5 1637.0,1429.1 1610.9,1435.5 1584.6,1441.7 1558.4,1447.7 1532.0,1453.4 1505.6,1458.9 1479.1,1464.2 1452.6,1469.2 1426.1,1474.0 1399.5,1478.5 1372.9,1482.8 1346.3,1486.9 1319.7,1490.7 1293.1,1494.3 1266.5,1497.6 1240.0,1500.7 1213.5,1503.6 1187.0,1506.3 1160.6,1508.7 1134.2,1511.0 1107.9,1513.0 1081.7,1514.8 1055.6,1516.4 1029.6,1517.9 1003.7,1519.1 977.9,1520.2  A 522.500,522.500 0.00 0,1 977.5,1506.8 L 977.5,1506.8 1003.2,1506.4 1029.0,1505.8 1054.9,1504.9 1080.9,1503.9 1107.1,1502.6 1133.3,1501.1 1159.6,1499.4 1186.0,1497.4 1212.4,1495.1 1238.9,1492.6 1265.5,1489.8 1292.0,1486.8 1318.6,1483.5 1345.2,1479.9 1371.8,1476.1 1398.4,1471.9 1424.9,1467.5 1451.4,1462.8 1477.9,1457.9 1504.3,1452.6 1530.7,1447.1 1557.0,1441.3 1583.2,1435.3 1609.4,1429.0 1635.4,1422.4 1661.4,1415.5 1687.2,1408.4 1712.9,1401.1 1738.5,1393.5 1763.9,1385.8 1789.2,1377.7 1814.4,1369.5 1839.4,1361.1 1864.2,1352.5 1888.8,1343.7 1913.3,1334.7 1937.6,1325.6 1961.6,1316.3 1985.5,1306.9  Z" style="stroke-width: 0.5;  stroke: rgb(0,0,0); fill: rgb(179,177,178);" />
<path d="M 2003.373,1359.920 A 522.500,522.500 0.00 0,1 2006.5,1371.6 L 2006.5,1371.6 1980.8,1378.1 1955.1,1384.5 1929.3,1390.9 1903.5,1397.3 1877.6,1403.6 1851.6,1409.8 1825.6,1416.0 1799.6,1422.1 1773.5,1428.1 1747.4,1434.1 1721.2,1440.1 1695.0,1445.9 1668.8,1451.7 1642.5,1457.4 1616.2,1463.1 1589.8,1468.6 1563.5,1474.1 1537.1,1479.5 1510.7,1484.9 1484.3,1490.1 1457.9,1495.3 1431.4,1500.4 1405.0,1505.4 1378.5,1510.4 1352.1,1515.2 1325.6,1520.0 1299.2,1524.7 1272.7,1529.4 1246.3,1533.9 1219.8,1538.4 1193.4,1542.8 1167.0,1547.1 1140.6,1551.4 1114.3,1555.5 1088.0,1559.6 1061.7,1563.7 1035.4,1567.7 1009.2,1571.6 983.0,1575.4  A 522.500,522.500 0.00 0,1 981.4,1563.4 L 981.4,1563.4 1007.5,1560.1 1033.7,1556.8 1059.9,1553.4 1086.2,1549.9 1112.5,1546.3 1138.9,1542.6 1165.3,1538.8 1191.7,1534.9 1218.2,1530.8 1244.7,1526.7 1271.1,1522.5 1297.6,1518.1 1324.2,1513.7 1350.7,1509.1 1377.2,1504.4 1403.7,1499.6 1430.2,1494.7 1456.7,1489.6 1483.2,1484.5 1509.6,1479.2 1536.0,1473.8 1562.4,1468.3 1588.8,1462.7 1615.1,1457.0 1641.4,1451.2 1667.7,1445.3 1693.9,1439.2 1720.0,1433.1 1746.1,1426.9 1772.1,1420.6 1798.1,1414.1 1824.0,1407.6 1849.9,1401.1 1875.7,1394.4 1901.4,1387.6 1927.0,1380.8 1952.5,1373.9 1978.0,1366.9 2003.4,1359.9  Z" style="stroke-width: 0.5;  stroke: rgb(0,0,0); fill: rgb(179,177,178);" />
<path d="M 1727.213,1970.511 A 522.500,522.500 0.00 0,1 1717.4,1975.1 L 1717.4,1975.1 1708.4,1956.2 1699.1,1937.4 1689.3,1918.9 1679.1,1900.9 1668.5,1883.4 1657.6,1866.6 1646.3,1850.5 1634.6,1835.2 1622.6,1820.8 1610.3,1807.4 1597.7,1795.0 1584.9,1783.7 1571.7,1773.6 1558.4,1764.7 1544.8,1757.0 1531.0,1750.5 1517.0,1745.4 1502.9,1741.6 1488.7,1739.1 1474.3,1738.0 1459.8,1738.3 1445.3,1739.8 1430.7,1742.7 1416.1,1747.0 1401.5,1752.5 1386.9,1759.2 1372.4,1767.2 1357.9,1776.4 1343.6,1786.7 1329.3,1798.0 1315.3,1810.4 1301.4,1823.7 1287.7,1837.9 1274.3,1852.8 1261.2,1868.5 1248.3,1884.7 1235.8,1901.4 1223.7,1918.5 1211.9,1935.9  A 522.500,522.500 0.00 0,1 1202.9,1929.8 L 1202.9,1929.8 1215.1,1912.7 1227.7,1895.7 1240.6,1879.2 1253.9,1863.2 1267.5,1847.8 1281.3,1833.0 1295.4,1819.0 1309.8,1805.9 1324.3,1793.7 1339.0,1782.5 1353.9,1772.4 1368.8,1763.4 1383.8,1755.6 1398.9,1748.9 1414.0,1743.5 1429.1,1739.4 1444.2,1736.6 1459.3,1735.1 1474.3,1734.9 1489.2,1736.1 1504.0,1738.6 1518.6,1742.4 1533.1,1747.5 1547.4,1753.9 1561.5,1761.5 1575.4,1770.4 1589.0,1780.5 1602.4,1791.7 1615.5,1804.0 1628.3,1817.3 1640.8,1831.6 1652.9,1846.8 1664.7,1862.8 1676.1,1879.5 1687.2,1896.8 1697.8,1914.7 1708.0,1933.0 1717.9,1951.7 1727.2,1970.5  Z" style="stroke-width: 0.5;  stroke: rgb(0,0,0); fill: rgb(179,177,178);" />
<path d="M 1736.101,1966.115 A 522.500,522.500 0.00 0,1 1727.3,1970.4 L 1727.3,1970.4 1718.0,1951.6 1708.2,1932.9 1697.9,1914.6 1687.3,1896.7 1676.2,1879.4 1664.8,1862.7 1653.0,1846.7 1640.8,1831.5 1628.3,1817.2 1615.5,1803.9 1602.4,1791.6 1589.0,1780.4 1575.3,1770.3 1561.4,1761.4 1547.3,1753.7 1533.0,1747.3 1518.4,1742.2 1503.8,1738.4 1489.0,1735.9 1474.0,1734.7 1459.0,1734.9 1443.9,1736.3 1428.8,1739.1 1413.6,1743.2 1398.5,1748.6 1383.4,1755.2 1368.3,1763.0 1353.3,1772.0 1338.4,1782.1 1323.7,1793.3 1309.1,1805.4 1294.7,1818.5 1280.6,1832.5 1266.7,1847.2 1253.0,1862.6 1239.7,1878.6 1226.7,1895.1 1214.1,1912.0 1201.9,1929.1  A 522.500,522.500 0.00 0,1 1193.8,1923.4 L 1193.8,1923.4 1206.4,1906.4 1219.4,1889.7 1232.7,1873.4 1246.4,1857.6 1260.5,1842.4 1274.8,1827.9 1289.4,1814.1 1304.2,1801.2 1319.2,1789.2 1334.3,1778.2 1349.7,1768.3 1365.1,1759.4 1380.6,1751.7 1396.2,1745.3 1411.8,1740.0 1427.4,1736.0 1443.0,1733.3 1458.5,1731.9 1474.0,1731.8 1489.4,1733.0 1504.7,1735.5 1519.8,1739.3 1534.8,1744.5 1549.6,1750.9 1564.1,1758.5 1578.5,1767.3 1592.6,1777.4 1606.5,1788.5 1620.0,1800.7 1633.3,1814.0 1646.2,1828.1 1658.8,1843.2 1671.1,1859.1 1683.0,1875.7 1694.4,1892.9 1705.5,1910.7 1716.1,1928.9 1726.3,1947.4 1736.1,1966.1  Z" style="stroke-width: 0.5;  stroke: rgb(0,0,0); fill: rgb(179,177,178);" />
</g>
<g id="plot0">
<g id="plot0-axis">
</g>
<line x1='2243.7' y1='1596.6' x2='2243.7' y2='1596.6' style="stroke-width:14.0;stroke:rgb(0,0,0);stroke-linecap:round;fill:none;" />
<line x1='2243.7' y1='1596.6' x2='2283.4' y2='1601.8' style="stroke-width:14.0;stroke:rgb(0,0,0);stroke-linecap:round;fill:none;" />
<line x1='2283.4' y1='1601.8' x2='2283.4' y2='1601.8' style="stroke-width:14.0;stroke:rgb(0,0,0);stroke-linecap:round;fill:none;" />
<text x="2300.0" y="1626.6" font-size="46.8px" font-family="CMUBright-Roman" style="text-anchor:start;fill:rgb(255,38,78);" transform="rotate(7.4,2300.0,1626.6)" >HistocapCB063<tspan baseline-shift="-40%" font-size="90%">s</tspan>00092</text>
</g>
<defs>
<pattern id="vline" width="10" height="10" patternTransform="rotate(0 0 0)" patternUnits="userSpaceOnUse"><line x1="0" y1="0" x2="0" y2="10" style="stroke:black;stroke-width:5" /></pattern>
<pattern id="vline-sparse" width="10" height="10" patternTransform="rotate(0 0 0)" patternUnits="userSpaceOnUse"><line x1="0" y1="0" x2="0" y2="10" style="stroke:black;stroke-width:2" /></pattern>
<pattern id="hline-sparse" width="10" height="10" patternTransform="rotate(0 0 0)" patternUnits="userSpaceOnUse"><line x1="0" y1="0" x2="10" y2="0" style="stroke:black;stroke-width:2" /></pattern>
<pattern id="checker" width="10" height="10" patternTransform="rotate(45 0 0)" patternUnits="userSpaceOnUse"><line x1="0" y1="0" x2="10" y2="0" style="stroke:black;stroke-width:5" /><line x1="0" y1="0" x2="0" y2="10" style="stroke:black;stroke-width:4" /></pattern>
<pattern id="hline" width="10" height="10" patternTransform="rotate(0 0 0)" patternUnits="userSpaceOnUse"><line x1="0" y1="0" x2="10" y2="0" style="stroke:black;stroke-width:5" /></pattern>
<pattern id="checker" width="10" height="10" patternTransform="rotate(45 0 0)" patternUnits="userSpaceOnUse"><line x1="0" y1="0" x2="10" y2="0" style="stroke:black;stroke-width:2" /><line x1="0" y1="0" x2="0" y2="10" style="stroke:black;stroke-width:2" /></pattern>
</defs>
</svg>
