<?xml version="1.0" encoding="utf-8" standalone="no"?>
<!DOCTYPE svg PUBLIC "-//W3C//DTD SVG 1.1//EN" "http://www.w3.org/Graphics/SVG/1.1/DTD/svg11.dtd">
<svg width="3000px" height="3000px" version="1.1" xmlns="http://www.w3.org/2000/svg" xmlns:xlink="http://www.w3.org/1999/xlink">
<g id="bg">
<rect x="0" y="0" width="3000px" height="3000px" style="fill:rgb(255,255,255);"/>
</g>
<g id="ideograms">
<path d="M1500.000,950.000 A550.000,550.000 40.000 0,1 1692.565,2015.188 L1762.589,2202.529 A750.000,750.000 0.000 0,0 1500.000,750.000 Z" style="stroke-width:2.0;stroke:rgb(0,0,0);stroke-linecap:round;fill:rgb(179,177,178);" />
<text x="2459.4" y="1326.6" font-size="46.8px" font-family="CMUBright-Roman" style="text-anchor:middle;fill:rgb(0,0,0);" transform="rotate(439.8,2459.4,1326.6)" >HistocapG186AR<tspan baseline-shift="-40%" font-size="90%">C</tspan>P069122</text>
<line x1='1528.2' y1='750.5' x2='1528.6' y2='738.5' style="stroke-width:8.0;stroke:rgb(150,150,150);stroke-linecap:round;fill:none;" />
<line x1='1628.0' y1='761.0' x2='1630.0' y2='749.2' style="stroke-width:8.0;stroke:rgb(150,150,150);stroke-linecap:round;fill:none;" />
<line x1='1725.5' y1='784.7' x2='1729.1' y2='773.2' style="stroke-width:8.0;stroke:rgb(150,150,150);stroke-linecap:round;fill:none;" />
<line x1='1818.9' y1='821.2' x2='1824.0' y2='810.3' style="stroke-width:8.0;stroke:rgb(150,150,150);stroke-linecap:round;fill:none;" />
<line x1='1906.7' y1='869.8' x2='1913.2' y2='859.7' style="stroke-width:8.0;stroke:rgb(150,150,150);stroke-linecap:round;fill:none;" />
<text x="1931.4" y="857.4" font-size="41.6px" font-family="CMUBright-Roman" style="text-anchor:start;fill:rgb(150,150,150);" transform="rotate(302.8,1931.4,857.4)" >3850 kb</text>
<line x1='1987.1' y1='929.7' x2='1994.9' y2='920.6' style="stroke-width:8.0;stroke:rgb(150,150,150);stroke-linecap:round;fill:none;" />
<line x1='2058.9' y1='999.9' x2='2067.8' y2='991.9' style="stroke-width:8.0;stroke:rgb(150,150,150);stroke-linecap:round;fill:none;" />
<line x1='2120.7' y1='1078.9' x2='2130.6' y2='1072.2' style="stroke-width:8.0;stroke:rgb(150,150,150);stroke-linecap:round;fill:none;" />
<line x1='2171.3' y1='1165.6' x2='2182.0' y2='1160.2' style="stroke-width:8.0;stroke:rgb(150,150,150);stroke-linecap:round;fill:none;" />
<line x1='2209.9' y1='1258.1' x2='2221.3' y2='1254.3' style="stroke-width:8.0;stroke:rgb(150,150,150);stroke-linecap:round;fill:none;" />
<text x="2237.0" y="1263.7" font-size="41.6px" font-family="CMUBright-Roman" style="text-anchor:start;fill:rgb(150,150,150);" transform="rotate(341.2,2237.0,1263.7)" >3900 kb</text>
<line x1='2235.9' y1='1355.1' x2='2247.6' y2='1352.7' style="stroke-width:8.0;stroke:rgb(150,150,150);stroke-linecap:round;fill:none;" />
<line x1='2248.6' y1='1454.6' x2='2260.6' y2='1453.9' style="stroke-width:8.0;stroke:rgb(150,150,150);stroke-linecap:round;fill:none;" />
<line x1='2248.0' y1='1554.9' x2='2260.0' y2='1555.8' style="stroke-width:8.0;stroke:rgb(150,150,150);stroke-linecap:round;fill:none;" />
<line x1='2234.0' y1='1654.3' x2='2245.7' y2='1656.7' style="stroke-width:8.0;stroke:rgb(150,150,150);stroke-linecap:round;fill:none;" />
<line x1='2206.8' y1='1750.8' x2='2218.1' y2='1754.9' style="stroke-width:8.0;stroke:rgb(150,150,150);stroke-linecap:round;fill:none;" />
<text x="2224.6" y="1772.0" font-size="41.6px" font-family="CMUBright-Roman" style="text-anchor:start;fill:rgb(150,150,150);" transform="rotate(19.5,2224.6,1772.0)" >3950 kb</text>
<line x1='2167.0' y1='1842.9' x2='2177.7' y2='1848.4' style="stroke-width:8.0;stroke:rgb(150,150,150);stroke-linecap:round;fill:none;" />
<line x1='2115.3' y1='1928.9' x2='2125.1' y2='1935.8' style="stroke-width:8.0;stroke:rgb(150,150,150);stroke-linecap:round;fill:none;" />
<line x1='2052.5' y1='2007.2' x2='2061.3' y2='2015.3' style="stroke-width:8.0;stroke:rgb(150,150,150);stroke-linecap:round;fill:none;" />
<line x1='1979.9' y1='2076.4' x2='1987.5' y2='2085.6' style="stroke-width:8.0;stroke:rgb(150,150,150);stroke-linecap:round;fill:none;" />
<line x1='1898.6' y1='2135.3' x2='1905.0' y2='2145.4' style="stroke-width:8.0;stroke:rgb(150,150,150);stroke-linecap:round;fill:none;" />
<text x="1899.5" y="2162.9" font-size="41.6px" font-family="CMUBright-Roman" style="text-anchor:start;fill:rgb(150,150,150);" transform="rotate(57.9,1899.5,2162.9)" >4000 kb</text>
<line x1='1810.3' y1='2182.8' x2='1815.2' y2='2193.7' style="stroke-width:8.0;stroke:rgb(150,150,150);stroke-linecap:round;fill:none;" />
<g id="highlighttrack_0">
<path d="M2035.257,1373.511 A550.000,550.000 40.000 0,1 2045.665,1431.079 L2244.088,1406.017 A750.000,750.000 0.000 0,0 2229.897,1327.515 Z" style="stroke-width:14.0;stroke:rgb(0,0,0);stroke-linecap:round;fill:rgb(255,38,78);" />
</g>
<path d="M1500.000,950.000 A550.000,550.000 40.000 0,1 1692.565,2015.188 L1762.589,2202.529 A750.000,750.000 0.000 0,0 1500.000,750.000 Z" style="stroke-width:2.0;stroke:rgb(0,0,0);stroke-linecap:round;fill:none;" />
<path d="M1475.850,2049.470 A550.000,550.000 40.000 0,1 1284.999,993.764 L1206.816,809.679 A750.000,750.000 0.000 0,0 1467.068,2249.277 Z" style="stroke-width:2.0;stroke:rgb(0,0,0);stroke-linecap:round;fill:rgb(179,177,178);" />
<text x="497.3" y="1681.3" font-size="46.8px" font-family="CMUBright-Roman" style="text-anchor:middle;fill:rgb(0,0,0);" transform="rotate(79.8,497.3,1681.3)" >HistocapES289Z<tspan baseline-shift="-40%" font-size="90%">6</tspan></text>
<line x1='1149.6' y1='836.9' x2='1144.0' y2='826.3' style="stroke-width:8.0;stroke:rgb(150,150,150);stroke-linecap:round;fill:none;" />
<text x="1126.1" y="822.3" font-size="41.6px" font-family="CMUBright-Roman" style="text-anchor:end;fill:rgb(150,150,150);" transform="rotate(62.1,1126.1,822.3)" >2950 kb</text>
<line x1='1064.2' y1='889.6' x2='1057.3' y2='879.8' style="stroke-width:8.0;stroke:rgb(150,150,150);stroke-linecap:round;fill:none;" />
<line x1='986.7' y1='953.2' x2='978.5' y2='944.5' style="stroke-width:8.0;stroke:rgb(150,150,150);stroke-linecap:round;fill:none;" />
<line x1='918.3' y1='1026.6' x2='909.0' y2='1019.0' style="stroke-width:8.0;stroke:rgb(150,150,150);stroke-linecap:round;fill:none;" />
<line x1='860.3' y1='1108.5' x2='850.1' y2='1102.2' style="stroke-width:8.0;stroke:rgb(150,150,150);stroke-linecap:round;fill:none;" />
<line x1='813.8' y1='1197.4' x2='802.8' y2='1192.5' style="stroke-width:8.0;stroke:rgb(150,150,150);stroke-linecap:round;fill:none;" />
<text x="786.3" y="1200.6" font-size="41.6px" font-family="CMUBright-Roman" style="text-anchor:end;fill:rgb(150,150,150);" transform="rotate(23.8,786.3,1200.6)" >3000 kb</text>
<line x1='779.5' y1='1291.7' x2='768.0' y2='1288.4' style="stroke-width:8.0;stroke:rgb(150,150,150);stroke-linecap:round;fill:none;" />
<line x1='758.2' y1='1389.7' x2='746.3' y2='1387.9' style="stroke-width:8.0;stroke:rgb(150,150,150);stroke-linecap:round;fill:none;" />
<line x1='750.1' y1='1489.7' x2='738.1' y2='1489.6' style="stroke-width:8.0;stroke:rgb(150,150,150);stroke-linecap:round;fill:none;" />
<line x1='755.4' y1='1589.9' x2='743.5' y2='1591.3' style="stroke-width:8.0;stroke:rgb(150,150,150);stroke-linecap:round;fill:none;" />
<line x1='774.1' y1='1688.5' x2='762.5' y2='1691.5' style="stroke-width:8.0;stroke:rgb(150,150,150);stroke-linecap:round;fill:none;" />
<text x="754.5" y="1708.0" font-size="41.6px" font-family="CMUBright-Roman" style="text-anchor:end;fill:rgb(150,150,150);" transform="rotate(-14.6,754.5,1708.0)" >3050 kb</text>
<line x1='805.7' y1='1783.7' x2='794.6' y2='1788.2' style="stroke-width:8.0;stroke:rgb(150,150,150);stroke-linecap:round;fill:none;" />
<line x1='849.8' y1='1873.8' x2='839.4' y2='1879.8' style="stroke-width:8.0;stroke:rgb(150,150,150);stroke-linecap:round;fill:none;" />
<line x1='905.5' y1='1957.3' x2='896.0' y2='1964.6' style="stroke-width:8.0;stroke:rgb(150,150,150);stroke-linecap:round;fill:none;" />
<line x1='971.9' y1='2032.5' x2='963.4' y2='2041.0' style="stroke-width:8.0;stroke:rgb(150,150,150);stroke-linecap:round;fill:none;" />
<line x1='1047.7' y1='2098.2' x2='1040.4' y2='2107.8' style="stroke-width:8.0;stroke:rgb(150,150,150);stroke-linecap:round;fill:none;" />
<text x="1044.4" y="2125.7" font-size="41.6px" font-family="CMUBright-Roman" style="text-anchor:end;fill:rgb(150,150,150);" transform="rotate(-52.9,1044.4,2125.7)" >3100 kb</text>
<line x1='1131.6' y1='2153.3' x2='1125.7' y2='2163.7' style="stroke-width:8.0;stroke:rgb(150,150,150);stroke-linecap:round;fill:none;" />
<line x1='1222.1' y1='2196.6' x2='1217.6' y2='2207.7' style="stroke-width:8.0;stroke:rgb(150,150,150);stroke-linecap:round;fill:none;" />
<line x1='1317.5' y1='2227.5' x2='1314.6' y2='2239.1' style="stroke-width:8.0;stroke:rgb(150,150,150);stroke-linecap:round;fill:none;" />
<line x1='1416.3' y1='2245.3' x2='1414.9' y2='2257.2' style="stroke-width:8.0;stroke:rgb(150,150,150);stroke-linecap:round;fill:none;" />
<path d="M1475.850,2049.470 A550.000,550.000 40.000 0,1 1284.999,993.764 L1206.816,809.679 A750.000,750.000 0.000 0,0 1467.068,2249.277 Z" style="stroke-width:2.0;stroke:rgb(0,0,0);stroke-linecap:round;fill:none;" />
</g>
<g id="track_0">
<path d="M 1891.385,1153.844 A 522.500,522.500 0.00 0,1 1973.0,1278.0 L 1973.0,1278.0 1950.1,1288.6 1927.0,1299.0 1903.6,1309.3 1879.9,1319.3 1856.0,1329.1 1831.8,1338.7 1807.5,1348.0 1782.9,1357.1 1758.1,1365.8 1733.1,1374.3 1708.0,1382.5 1682.6,1390.3 1657.1,1397.8 1631.5,1404.9 1605.7,1411.7 1579.8,1418.1 1553.8,1424.2 1527.6,1429.9 1501.4,1435.2 1475.1,1440.2 1448.8,1444.7 1422.4,1448.9 1395.9,1452.7 1369.4,1456.1 1343.0,1459.2 1316.5,1461.8 1290.0,1464.1 1263.6,1466.0 1237.1,1467.5 1210.8,1468.7 1184.5,1469.6 1158.3,1470.1 1132.2,1470.2 1106.3,1470.1 1080.4,1469.6 1054.7,1468.9 1029.2,1467.8 1003.8,1466.5 978.7,1464.9  A 522.500,522.500 0.00 0,1 1009.6,1319.8 L 1009.6,1319.8 1031.7,1327.6 1054.2,1335.1 1077.0,1342.2 1100.1,1348.8 1123.5,1354.9 1147.1,1360.4 1171.0,1365.4 1195.0,1369.7 1219.2,1373.4 1243.5,1376.4 1267.9,1378.7 1292.3,1380.3 1316.8,1381.2 1341.3,1381.3 1365.8,1380.7 1390.3,1379.3 1414.7,1377.1 1439.0,1374.1 1463.2,1370.4 1487.2,1365.8 1511.1,1360.5 1534.8,1354.5 1558.4,1347.6 1581.6,1340.1 1604.7,1331.7 1627.5,1322.7 1650.0,1313.0 1672.2,1302.6 1694.1,1291.6 1715.6,1280.0 1736.8,1267.7 1757.6,1255.0 1778.0,1241.7 1798.0,1228.0 1817.6,1213.8 1836.7,1199.3 1855.4,1184.4 1873.6,1169.2 1891.4,1153.8  Z" style="stroke-width: 0.5;  stroke: rgb(0,0,0); fill: rgb(179,177,178);" />
<path d="M 1792.055,1066.745 A 522.500,522.500 0.00 0,1 1866.6,1127.7 L 1866.6,1127.7 1850.2,1144.0 1833.3,1160.0 1815.9,1175.8 1798.0,1191.3 1779.7,1206.3 1760.9,1220.9 1741.6,1235.0 1722.0,1248.5 1701.9,1261.5 1681.5,1273.8 1660.7,1285.4 1639.5,1296.4 1618.0,1306.6 1596.2,1316.0 1574.1,1324.6 1551.8,1332.5 1529.2,1339.5 1506.3,1345.7 1483.3,1351.0 1460.1,1355.5 1436.7,1359.1 1413.2,1361.9 1389.6,1363.8 1366.0,1364.8 1342.2,1365.0 1318.5,1364.3 1294.8,1362.9 1271.0,1360.6 1247.4,1357.5 1223.8,1353.7 1200.4,1349.2 1177.1,1343.9 1154.0,1338.0 1131.2,1331.4 1108.5,1324.3 1086.2,1316.6 1064.2,1308.4 1042.5,1299.8 1021.2,1290.7  A 522.500,522.500 0.00 0,1 1067.1,1207.4 L 1067.1,1207.4 1085.6,1219.6 1104.5,1231.4 1123.8,1242.7 1143.5,1253.5 1163.4,1263.7 1183.6,1273.2 1204.0,1282.0 1224.6,1290.0 1245.4,1297.2 1266.3,1303.5 1287.2,1308.9 1308.2,1313.3 1329.2,1316.8 1350.2,1319.2 1371.1,1320.6 1392.0,1321.0 1412.7,1320.3 1433.3,1318.5 1453.7,1315.7 1474.0,1311.7 1494.0,1306.7 1513.7,1300.7 1533.2,1293.6 1552.4,1285.4 1571.3,1276.3 1589.9,1266.2 1608.1,1255.1 1625.9,1243.2 1643.3,1230.3 1660.3,1216.7 1676.8,1202.3 1693.0,1187.1 1708.6,1171.3 1723.8,1155.0 1738.5,1138.1 1752.7,1120.7 1766.3,1103.0 1779.5,1085.0 1792.1,1066.7  Z" style="stroke-width: 0.5;  stroke: rgb(0,0,0); fill: rgb(179,177,178);" />
<path d="M 1973.000,1278.015 A 522.500,522.500 0.00 0,1 2003.9,1361.7 L 2003.9,1361.7 1978.5,1368.6 1953.1,1375.5 1927.5,1382.2 1901.9,1388.9 1876.2,1395.6 1850.4,1402.1 1824.5,1408.5 1798.6,1414.9 1772.6,1421.1 1746.5,1427.2 1720.4,1433.3 1694.2,1439.2 1667.9,1445.0 1641.6,1450.7 1615.3,1456.3 1588.9,1461.8 1562.4,1467.1 1536.0,1472.3 1509.5,1477.4 1483.0,1482.4 1456.4,1487.2 1429.9,1491.9 1403.3,1496.5 1376.7,1501.0 1350.2,1505.3 1323.6,1509.5 1297.0,1513.6 1270.4,1517.6 1243.9,1521.4 1217.4,1525.2 1190.9,1528.8 1164.4,1532.2 1137.9,1535.6 1111.5,1538.9 1085.2,1542.0 1058.8,1545.0 1032.6,1548.0 1006.4,1550.8 980.2,1553.5  A 522.500,522.500 0.00 0,1 978.6,1465.6 L 978.6,1465.6 1003.8,1467.1 1029.2,1468.4 1054.7,1469.4 1080.4,1470.2 1106.3,1470.6 1132.2,1470.7 1158.3,1470.5 1184.5,1470.0 1210.8,1469.1 1237.1,1467.9 1263.5,1466.3 1290.0,1464.4 1316.5,1462.1 1343.0,1459.4 1369.4,1456.4 1395.9,1452.9 1422.4,1449.1 1448.8,1444.9 1475.1,1440.3 1501.4,1435.4 1527.6,1430.0 1553.8,1424.3 1579.8,1418.2 1605.7,1411.8 1631.5,1405.0 1657.1,1397.8 1682.6,1390.3 1707.9,1382.5 1733.1,1374.4 1758.1,1365.9 1782.9,1357.1 1807.5,1348.1 1831.8,1338.7 1856.0,1329.2 1879.9,1319.3 1903.6,1309.3 1927.0,1299.0 1950.1,1288.6 1973.0,1278.0  Z" style="stroke-width: 0.5;  stroke: rgb(0,0,0); fill: rgb(179,177,178);" />
<path d="M 2022.490,1503.267 A 522.500,522.500 0.00 0,1 2014.8,1589.6 L 2014.8,1589.6 1990.4,1585.5 1965.8,1581.8 1940.9,1578.3 1915.8,1575.2 1890.6,1572.5 1865.1,1570.1 1839.5,1568.2 1813.7,1566.7 1787.9,1565.6 1761.9,1564.9 1735.8,1564.7 1709.7,1565.0 1683.6,1565.8 1657.4,1567.1 1631.2,1568.8 1605.0,1571.1 1578.8,1573.8 1552.7,1577.1 1526.6,1580.8 1500.6,1585.1 1474.7,1589.9 1448.9,1595.1 1423.2,1600.9 1397.7,1607.1 1372.3,1613.8 1347.1,1621.0 1322.0,1628.6 1297.2,1636.7 1272.5,1645.2 1248.1,1654.1 1224.0,1663.4 1200.1,1673.0 1176.4,1683.0 1153.0,1693.4 1130.0,1704.1 1107.2,1715.0 1084.7,1726.2 1062.6,1737.7 1040.8,1749.3  A 522.500,522.500 0.00 0,1 1006.0,1670.1 L 1006.0,1670.1 1030.3,1661.8 1054.9,1653.7 1079.6,1645.6 1104.5,1637.7 1129.6,1630.0 1154.8,1622.5 1180.2,1615.1 1205.7,1607.9 1231.3,1601.0 1257.1,1594.2 1283.0,1587.7 1309.0,1581.3 1335.1,1575.3 1361.3,1569.4 1387.6,1563.8 1414.0,1558.4 1440.4,1553.3 1467.0,1548.4 1493.5,1543.8 1520.1,1539.4 1546.8,1535.3 1573.5,1531.4 1600.2,1527.8 1626.9,1524.5 1653.6,1521.4 1680.3,1518.6 1707.0,1516.0 1733.6,1513.7 1760.3,1511.6 1786.9,1509.8 1813.4,1508.2 1839.9,1506.8 1866.2,1505.7 1892.6,1504.8 1918.8,1504.1 1944.9,1503.6 1970.9,1503.3 1996.8,1503.2 2022.5,1503.3  Z" style="stroke-width: 0.5;  stroke: rgb(0,0,0); fill: rgb(179,177,178);" />
<path d="M 1915.713,1816.526 A 522.500,522.500 0.00 0,1 1870.9,1868.0 L 1870.9,1868.0 1855.9,1853.4 1840.5,1839.1 1824.8,1825.3 1808.9,1812.0 1792.8,1799.3 1776.6,1787.4 1760.3,1776.3 1743.9,1766.1 1727.6,1756.9 1711.3,1748.6 1695.0,1741.5 1679.0,1735.4 1663.0,1730.5 1647.3,1726.9 1631.7,1724.4 1616.5,1723.3 1601.5,1723.4 1586.8,1724.7 1572.5,1727.4 1558.5,1731.4 1544.9,1736.7 1531.7,1743.3 1518.9,1751.1 1506.6,1760.2 1494.7,1770.4 1483.2,1781.9 1472.3,1794.4 1461.8,1808.0 1451.8,1822.7 1442.3,1838.3 1433.3,1854.8 1424.8,1872.1 1416.8,1890.1 1409.3,1908.8 1402.3,1928.0 1395.8,1947.7 1389.8,1967.7 1384.2,1988.0 1379.2,2008.3  A 522.500,522.500 0.00 0,1 1315.2,1988.7 L 1315.2,1988.7 1323.1,1968.7 1331.4,1948.8 1340.3,1929.2 1349.7,1909.9 1359.7,1891.0 1370.2,1872.7 1381.2,1854.9 1392.7,1837.8 1404.8,1821.5 1417.3,1806.0 1430.4,1791.3 1444.0,1777.6 1458.0,1764.9 1472.5,1753.2 1487.5,1742.6 1502.9,1733.1 1518.7,1724.7 1534.9,1717.5 1551.5,1711.5 1568.4,1706.6 1585.7,1703.0 1603.3,1700.5 1621.1,1699.2 1639.2,1699.1 1657.5,1700.2 1676.0,1702.4 1694.7,1705.7 1713.4,1710.2 1732.2,1715.7 1751.1,1722.2 1770.0,1729.6 1788.8,1738.0 1807.6,1747.2 1826.2,1757.2 1844.7,1768.0 1862.9,1779.3 1880.8,1791.3 1898.5,1803.7 1915.7,1816.5  Z" style="stroke-width: 0.5;  stroke: rgb(0,0,0); fill: rgb(179,177,178);" />
<path d="M 1745.571,1038.805 A 522.500,522.500 0.00 0,1 1789.5,1065.0 L 1789.5,1065.0 1777.0,1083.3 1764.0,1101.4 1750.5,1119.2 1736.4,1136.6 1721.8,1153.5 1706.8,1170.0 1691.2,1185.8 1675.2,1201.0 1658.8,1215.5 1641.9,1229.2 1624.6,1242.1 1606.9,1254.1 1588.8,1265.2 1570.3,1275.4 1551.5,1284.5 1532.4,1292.7 1513.0,1299.8 1493.4,1305.9 1473.4,1310.9 1453.3,1314.9 1433.0,1317.8 1412.4,1319.5 1391.8,1320.2 1371.0,1319.9 1350.1,1318.5 1329.2,1316.0 1308.3,1312.6 1287.4,1308.1 1266.5,1302.7 1245.7,1296.4 1225.0,1289.2 1204.4,1281.2 1184.0,1272.3 1163.9,1262.8 1144.0,1252.6 1124.4,1241.7 1105.2,1230.4 1086.3,1218.6 1067.8,1206.3  A 522.500,522.500 0.00 0,1 1098.3,1165.9 L 1098.3,1165.9 1115.1,1179.6 1132.3,1192.9 1149.9,1205.7 1167.9,1218.0 1186.1,1229.7 1204.6,1240.6 1223.3,1250.9 1242.1,1260.2 1261.1,1268.7 1280.2,1276.3 1299.3,1282.9 1318.5,1288.4 1337.6,1292.9 1356.7,1296.3 1375.7,1298.5 1394.7,1299.6 1413.4,1299.6 1432.1,1298.4 1450.5,1296.0 1468.7,1292.4 1486.6,1287.7 1504.3,1281.7 1521.7,1274.7 1538.8,1266.5 1555.6,1257.2 1572.0,1246.9 1588.0,1235.5 1603.7,1223.1 1618.9,1209.8 1633.7,1195.6 1648.0,1180.5 1661.9,1164.7 1675.4,1148.2 1688.3,1131.0 1700.8,1113.3 1712.8,1095.2 1724.2,1076.6 1735.2,1057.8 1745.6,1038.8  Z" style="stroke-width: 0.5;  stroke: rgb(0,0,0); fill: rgb(179,177,178);" />
<path d="M 2017.526,1428.077 A 522.500,522.500 0.00 0,1 2022.1,1478.8 L 2022.1,1478.8 1996.1,1479.9 1969.9,1481.2 1943.7,1482.6 1917.5,1484.1 1891.1,1485.8 1864.7,1487.7 1838.2,1489.7 1811.7,1491.8 1785.1,1494.2 1758.4,1496.7 1731.8,1499.4 1705.1,1502.3 1678.4,1505.4 1651.7,1508.6 1625.0,1512.0 1598.3,1515.6 1571.6,1519.4 1544.9,1523.4 1518.2,1527.6 1491.5,1531.9 1464.9,1536.5 1438.3,1541.2 1411.8,1546.1 1385.3,1551.2 1358.9,1556.4 1332.6,1561.9 1306.3,1567.4 1280.1,1573.2 1253.9,1579.1 1227.9,1585.2 1202.0,1591.5 1176.1,1597.8 1150.3,1604.4 1124.7,1611.0 1099.2,1617.8 1073.8,1624.7 1048.5,1631.7 1023.3,1638.8 998.3,1646.0  A 522.500,522.500 0.00 0,1 986.7,1597.7 L 986.7,1597.7 1012.9,1592.8 1039.1,1587.8 1065.3,1582.9 1091.6,1578.0 1117.9,1573.1 1144.2,1568.3 1170.5,1563.4 1196.8,1558.7 1223.2,1553.9 1249.6,1549.2 1276.0,1544.5 1302.4,1539.8 1328.9,1535.2 1355.3,1530.6 1381.8,1526.1 1408.2,1521.6 1434.7,1517.1 1461.2,1512.7 1487.7,1508.3 1514.3,1503.9 1540.8,1499.6 1567.3,1495.3 1593.8,1491.0 1620.4,1486.8 1646.9,1482.6 1673.4,1478.5 1699.9,1474.4 1726.5,1470.4 1753.0,1466.3 1779.5,1462.4 1806.0,1458.4 1832.5,1454.5 1859.0,1450.6 1885.4,1446.8 1911.9,1443.0 1938.3,1439.2 1964.7,1435.5 1991.1,1431.8 2017.5,1428.1  Z" style="stroke-width: 0.5;  stroke: rgb(0,0,0); fill: rgb(179,177,178);" />
<path d="M 1993.345,1672.095 A 522.500,522.500 0.00 0,1 1976.1,1715.2 L 1976.1,1715.2 1955.3,1706.1 1934.2,1697.4 1912.7,1689.2 1890.8,1681.6 1868.8,1674.5 1846.5,1668.1 1824.0,1662.4 1801.4,1657.4 1778.7,1653.1 1755.9,1649.7 1733.1,1647.1 1710.3,1645.4 1687.5,1644.5 1664.8,1644.6 1642.1,1645.5 1619.6,1647.4 1597.3,1650.3 1575.1,1654.1 1553.1,1658.8 1531.4,1664.5 1509.9,1671.1 1488.7,1678.7 1467.8,1687.1 1447.3,1696.5 1427.1,1706.7 1407.2,1717.8 1387.8,1729.7 1368.7,1742.4 1350.1,1755.8 1331.9,1769.9 1314.1,1784.7 1296.9,1800.2 1280.1,1816.2 1263.8,1832.7 1248.0,1849.6 1232.8,1867.0 1218.0,1884.7 1203.8,1902.6 1190.1,1920.7  A 522.500,522.500 0.00 0,1 1154.4,1891.8 L 1154.4,1891.8 1169.9,1874.6 1185.9,1857.6 1202.4,1840.8 1219.5,1824.3 1237.0,1808.2 1255.0,1792.6 1273.5,1777.4 1292.4,1762.7 1311.8,1748.5 1331.5,1735.0 1351.7,1722.1 1372.3,1709.8 1393.2,1698.3 1414.6,1687.5 1436.2,1677.4 1458.2,1668.1 1480.4,1659.7 1502.9,1652.0 1525.7,1645.1 1548.7,1639.1 1571.9,1633.9 1595.3,1629.6 1618.9,1626.0 1642.6,1623.4 1666.4,1621.5 1690.2,1620.5 1714.2,1620.3 1738.1,1620.9 1762.0,1622.2 1785.9,1624.3 1809.7,1627.2 1833.4,1630.7 1856.9,1634.9 1880.3,1639.8 1903.5,1645.2 1926.4,1651.2 1949.1,1657.7 1971.4,1664.7 1993.3,1672.1  Z" style="stroke-width: 0.5;  stroke: rgb(0,0,0); fill: rgb(179,177,178);" />
<path d="M 1939.316,1782.856 A 522.500,522.500 0.00 0,1 1915.4,1816.9 L 1915.4,1816.9 1898.2,1804.1 1880.6,1791.7 1862.6,1779.7 1844.4,1768.3 1826.0,1757.5 1807.3,1747.5 1788.6,1738.3 1769.8,1729.9 1750.9,1722.4 1732.0,1715.9 1713.2,1710.4 1694.4,1705.9 1675.8,1702.6 1657.3,1700.3 1639.0,1699.2 1620.9,1699.3 1603.0,1700.6 1585.4,1703.0 1568.2,1706.7 1551.2,1711.5 1534.6,1717.5 1518.4,1724.7 1502.6,1733.1 1487.2,1742.6 1472.2,1753.2 1457.7,1764.8 1443.6,1777.5 1430.0,1791.2 1416.9,1805.8 1404.3,1821.3 1392.3,1837.7 1380.7,1854.7 1369.7,1872.5 1359.1,1890.8 1349.2,1909.7 1339.7,1929.0 1330.8,1948.6 1322.4,1968.5 1314.5,1988.5  A 522.500,522.500 0.00 0,1 1276.7,1972.4 L 1276.7,1972.4 1286.3,1952.8 1296.4,1933.3 1307.1,1914.0 1318.3,1895.1 1330.0,1876.6 1342.3,1858.6 1355.1,1841.2 1368.5,1824.4 1382.3,1808.3 1396.7,1793.0 1411.6,1778.5 1426.9,1764.9 1442.7,1752.2 1459.0,1740.5 1475.7,1729.8 1492.8,1720.1 1510.3,1711.5 1528.2,1704.0 1546.5,1697.6 1565.0,1692.2 1583.9,1688.0 1603.1,1685.0 1622.5,1683.0 1642.2,1682.2 1662.0,1682.4 1682.0,1683.8 1702.1,1686.2 1722.4,1689.6 1742.6,1694.0 1762.9,1699.4 1783.2,1705.7 1803.4,1712.9 1823.5,1721.0 1843.4,1729.7 1863.2,1739.2 1882.7,1749.4 1901.9,1760.1 1920.8,1771.3 1939.3,1782.9  Z" style="stroke-width: 0.5;  stroke: rgb(0,0,0); fill: rgb(179,177,178);" />
<path d="M 1866.090,1872.806 A 522.500,522.500 0.00 0,1 1835.5,1900.6 L 1835.5,1900.6 1822.0,1884.9 1808.3,1869.4 1794.3,1854.4 1780.2,1839.9 1765.9,1826.1 1751.5,1813.0 1737.1,1800.7 1722.7,1789.2 1708.4,1778.8 1694.1,1769.4 1679.9,1761.1 1665.9,1754.0 1652.1,1748.1 1638.5,1743.5 1625.2,1740.1 1612.2,1738.0 1599.4,1737.3 1587.0,1737.9 1575.0,1739.9 1563.4,1743.2 1552.1,1747.9 1541.3,1753.9 1530.8,1761.3 1520.9,1770.0 1511.4,1779.9 1502.3,1791.0 1493.7,1803.3 1485.6,1816.8 1478.0,1831.3 1470.8,1846.8 1464.2,1863.3 1458.0,1880.6 1452.3,1898.7 1447.0,1917.4 1442.2,1936.7 1437.9,1956.5 1434.0,1976.6 1430.5,1997.0 1427.5,2017.4  A 522.500,522.500 0.00 0,1 1386.9,2010.1 L 1386.9,2010.1 1391.7,1989.7 1396.9,1969.4 1402.6,1949.4 1408.7,1929.7 1415.4,1910.4 1422.5,1891.7 1430.1,1873.7 1438.3,1856.3 1446.9,1839.8 1456.0,1824.2 1465.7,1809.6 1475.8,1796.0 1486.4,1783.4 1497.4,1772.0 1509.0,1761.8 1521.0,1752.8 1533.4,1745.0 1546.2,1738.5 1559.5,1733.3 1573.1,1729.4 1587.1,1726.8 1601.5,1725.5 1616.1,1725.5 1631.0,1726.8 1646.3,1729.4 1661.7,1733.2 1677.3,1738.2 1693.1,1744.4 1709.0,1751.7 1725.0,1760.1 1741.1,1769.6 1757.2,1779.9 1773.2,1791.2 1789.2,1803.3 1805.0,1816.1 1820.7,1829.6 1836.1,1843.6 1851.3,1858.0 1866.1,1872.8  Z" style="stroke-width: 0.5;  stroke: rgb(0,0,0); fill: rgb(179,177,178);" />
<path d="M 2014.759,1589.607 A 522.500,522.500 0.00 0,1 2006.4,1628.5 L 2006.4,1628.5 1983.5,1622.9 1960.2,1617.7 1936.6,1613.0 1912.7,1608.7 1888.7,1605.0 1864.4,1601.8 1840.0,1599.1 1815.5,1597.1 1790.8,1595.7 1766.1,1595.0 1741.4,1594.9 1716.6,1595.5 1691.8,1596.9 1667.1,1598.9 1642.5,1601.6 1617.9,1605.1 1593.5,1609.3 1569.1,1614.3 1545.0,1620.0 1521.0,1626.4 1497.3,1633.6 1473.8,1641.4 1450.5,1650.0 1427.5,1659.3 1404.7,1669.2 1382.3,1679.8 1360.2,1691.0 1338.5,1702.9 1317.1,1715.3 1296.0,1728.3 1275.4,1741.9 1255.1,1755.9 1235.3,1770.4 1215.9,1785.3 1197.0,1800.6 1178.4,1816.2 1160.4,1832.1 1142.8,1848.3 1125.7,1864.6  A 522.500,522.500 0.00 0,0 1154.4,1891.8 L 1154.4,1891.8 1170.2,1874.3 1186.5,1856.8 1203.3,1839.6 1220.5,1822.6 1238.3,1805.9 1256.5,1789.6 1275.2,1773.7 1294.3,1758.2 1313.9,1743.1 1333.9,1728.5 1354.3,1714.5 1375.1,1701.0 1396.3,1688.2 1417.8,1675.9 1439.7,1664.2 1462.0,1653.3 1484.5,1642.9 1507.4,1633.3 1530.5,1624.4 1554.0,1616.2 1577.6,1608.7 1601.5,1601.9 1625.5,1595.8 1649.8,1590.5 1674.1,1585.8 1698.6,1581.9 1723.2,1578.7 1747.9,1576.2 1772.6,1574.4 1797.3,1573.3 1821.9,1572.8 1846.6,1573.0 1871.1,1573.7 1895.5,1575.1 1919.8,1577.0 1943.9,1579.4 1967.8,1582.4 1991.4,1585.8 2014.8,1589.6  Z" style="stroke-width: 0.5;  stroke: rgb(0,0,0); fill: rgb(179,177,178);" />
<path d="M 2004.766,1634.972 A 522.500,522.500 0.00 0,1 1994.8,1668.0 L 1994.8,1668.0 1972.5,1660.6 1949.9,1653.7 1927.0,1647.3 1903.8,1641.3 1880.3,1635.9 1856.6,1631.0 1832.7,1626.7 1808.7,1623.1 1784.5,1620.1 1760.2,1617.8 1735.9,1616.2 1711.5,1615.3 1687.1,1615.2 1662.7,1615.9 1638.4,1617.3 1614.1,1619.5 1590.0,1622.4 1565.9,1626.2 1542.0,1630.8 1518.2,1636.2 1494.7,1642.3 1471.3,1649.2 1448.2,1656.9 1425.3,1665.3 1402.8,1674.5 1380.5,1684.4 1358.5,1695.0 1336.8,1706.2 1315.5,1718.1 1294.6,1730.6 1274.0,1743.7 1253.9,1757.3 1234.2,1771.4 1214.9,1786.0 1196.0,1801.0 1177.6,1816.3 1159.6,1832.0 1142.2,1847.9 1125.2,1864.1  A 522.500,522.500 0.00 0,1 1102.2,1838.8 L 1102.2,1838.8 1120.5,1823.5 1139.2,1808.5 1158.4,1793.7 1178.0,1779.1 1198.0,1765.0 1218.4,1751.2 1239.3,1737.8 1260.5,1724.9 1282.1,1712.5 1304.0,1700.6 1326.3,1689.2 1348.9,1678.5 1371.7,1668.3 1394.9,1658.7 1418.4,1649.8 1442.0,1641.5 1466.0,1633.9 1490.1,1627.0 1514.4,1620.8 1538.9,1615.2 1563.5,1610.4 1588.3,1606.3 1613.1,1602.9 1638.1,1600.2 1663.1,1598.1 1688.1,1596.8 1713.2,1596.2 1738.2,1596.2 1763.2,1596.9 1788.1,1598.2 1812.9,1600.2 1837.6,1602.7 1862.2,1605.8 1886.6,1609.5 1910.7,1613.7 1934.7,1618.3 1958.3,1623.5 1981.7,1629.0 2004.8,1635.0  Z" style="stroke-width: 0.5;  stroke: rgb(0,0,0); fill: rgb(179,177,178);" />
<path d="M 1500.000,977.500 A 522.500,522.500 0.00 0,1 1500.8,977.5 L 1500.8,977.5 1500.6,998.1 1500.0,1018.5 1499.0,1038.8 1497.6,1058.8 1495.7,1078.3 1493.3,1097.3 1490.4,1115.7 1487.0,1133.3 1483.0,1150.1 1478.5,1166.0 1473.5,1180.9 1467.8,1194.8 1461.6,1207.5 1454.9,1219.1 1447.5,1229.5 1439.6,1238.7 1431.1,1246.5 1422.1,1253.1 1412.6,1258.3 1402.5,1262.2 1391.9,1264.8 1380.8,1266.0 1369.2,1265.8 1357.2,1264.4 1344.8,1261.6 1332.0,1257.6 1318.8,1252.3 1305.4,1245.8 1291.6,1238.1 1277.6,1229.4 1263.4,1219.6 1249.0,1208.8 1234.5,1197.2 1220.0,1184.7 1205.5,1171.5 1191.0,1157.7 1176.6,1143.3 1162.4,1128.5 1148.4,1113.5  A 522.500,522.500 0.00 0,1 1172.7,1092.7 L 1172.7,1092.7 1185.7,1108.6 1198.9,1124.1 1212.2,1139.3 1225.7,1154.0 1239.2,1168.0 1252.7,1181.3 1266.1,1193.8 1279.5,1205.4 1292.7,1216.0 1305.7,1225.5 1318.5,1234.0 1331.1,1241.3 1343.3,1247.3 1355.3,1252.1 1366.8,1255.6 1378.0,1257.8 1388.7,1258.6 1399.0,1258.1 1408.9,1256.1 1418.3,1252.8 1427.2,1248.2 1435.6,1242.1 1443.4,1234.8 1450.8,1226.1 1457.6,1216.1 1463.9,1204.9 1469.6,1192.5 1474.8,1179.0 1479.5,1164.4 1483.7,1148.8 1487.3,1132.2 1490.5,1114.8 1493.2,1096.6 1495.4,1077.8 1497.1,1058.4 1498.4,1038.6 1499.3,1018.4 1499.8,998.0 1500.0,977.5  Z" style="stroke-width: 0.5;  stroke: rgb(0,0,0); fill: rgb(179,177,178);" />
<path d="M 2004.185,1362.874 A 522.500,522.500 0.00 0,1 2011.6,1393.8 L 2011.6,1393.8 1985.5,1399.3 1959.3,1404.7 1933.1,1410.0 1907.0,1415.4 1880.7,1420.7 1854.5,1426.1 1828.3,1431.4 1802.0,1436.7 1775.8,1441.9 1749.5,1447.2 1723.2,1452.4 1696.9,1457.6 1670.5,1462.8 1644.2,1467.9 1617.8,1473.0 1591.5,1478.1 1565.1,1483.2 1538.8,1488.3 1512.4,1493.3 1486.0,1498.3 1459.6,1503.2 1433.2,1508.2 1406.8,1513.1 1380.4,1518.0 1354.1,1522.8 1327.7,1527.7 1301.3,1532.5 1274.9,1537.3 1248.5,1542.0 1222.1,1546.7 1195.7,1551.4 1169.4,1556.1 1143.0,1560.8 1116.6,1565.4 1090.3,1570.0 1063.9,1574.6 1037.6,1579.1 1011.3,1583.7 985.0,1588.2  A 522.500,522.500 0.00 0,1 980.6,1556.5 L 980.6,1556.5 1006.7,1553.6 1032.9,1550.6 1059.2,1547.6 1085.5,1544.4 1111.9,1541.1 1138.3,1537.7 1164.7,1534.2 1191.2,1530.7 1217.7,1526.9 1244.2,1523.1 1270.7,1519.2 1297.3,1515.1 1323.8,1511.0 1350.4,1506.7 1377.0,1502.2 1403.5,1497.7 1430.1,1493.1 1456.6,1488.3 1483.1,1483.4 1509.6,1478.4 1536.1,1473.2 1562.6,1468.0 1589.0,1462.6 1615.4,1457.2 1641.7,1451.6 1668.0,1445.9 1694.3,1440.0 1720.5,1434.1 1746.6,1428.1 1772.7,1422.0 1798.7,1415.7 1824.7,1409.4 1850.5,1403.0 1876.3,1396.5 1902.1,1389.9 1927.7,1383.3 1953.3,1376.5 1978.8,1369.7 2004.2,1362.9  Z" style="stroke-width: 0.5;  stroke: rgb(0,0,0); fill: rgb(179,177,178);" />
<path d="M 1967.654,1733.036 A 522.500,522.500 0.00 0,1 1953.0,1760.5 L 1953.0,1760.5 1933.8,1749.7 1914.2,1739.4 1894.3,1729.6 1874.2,1720.4 1853.8,1711.8 1833.2,1704.0 1812.5,1696.8 1791.7,1690.5 1770.9,1685.1 1750.0,1680.6 1729.2,1677.0 1708.4,1674.4 1687.8,1672.8 1667.2,1672.2 1646.9,1672.7 1626.8,1674.2 1606.9,1676.9 1587.3,1680.6 1568.0,1685.4 1549.0,1691.3 1530.3,1698.3 1512.0,1706.3 1494.1,1715.4 1476.7,1725.5 1459.6,1736.6 1443.0,1748.7 1426.9,1761.7 1411.3,1775.6 1396.2,1790.4 1381.5,1805.9 1367.4,1822.2 1353.8,1839.2 1340.8,1856.8 1328.3,1874.9 1316.4,1893.5 1305.0,1912.5 1294.1,1931.9 1283.8,1951.4 1274.1,1971.1  A 522.500,522.500 0.00 0,1 1246.5,1956.9 L 1246.5,1956.9 1257.5,1937.5 1269.1,1918.4 1281.3,1899.4 1294.0,1880.7 1307.2,1862.5 1321.0,1844.7 1335.3,1827.4 1350.2,1810.7 1365.5,1794.7 1381.4,1779.3 1397.8,1764.7 1414.7,1751.0 1432.0,1738.0 1449.8,1726.0 1468.0,1714.8 1486.6,1704.6 1505.6,1695.4 1525.1,1687.1 1544.8,1679.8 1564.9,1673.6 1585.3,1668.4 1606.0,1664.2 1626.9,1661.1 1648.0,1658.9 1669.3,1657.8 1690.8,1657.7 1712.4,1658.5 1734.1,1660.3 1755.9,1663.1 1777.7,1666.7 1799.4,1671.3 1821.1,1676.6 1842.7,1682.7 1864.2,1689.6 1885.4,1697.2 1906.4,1705.3 1927.2,1714.1 1947.6,1723.3 1967.7,1733.0  Z" style="stroke-width: 0.5;  stroke: rgb(0,0,0); fill: rgb(179,177,178);" />
<path d="M 1523.607,978.034 A 522.500,522.500 0.00 0,1 1553.9,980.3 L 1553.9,980.3 1551.5,1001.0 1548.7,1021.6 1545.5,1042.1 1541.7,1062.2 1537.4,1081.9 1532.6,1101.1 1527.2,1119.7 1521.3,1137.6 1514.9,1154.7 1507.8,1171.0 1500.2,1186.3 1492.1,1200.6 1483.3,1213.8 1474.0,1226.0 1464.1,1237.0 1453.7,1246.8 1442.7,1255.3 1431.2,1262.7 1419.2,1268.7 1406.6,1273.5 1393.6,1277.0 1380.2,1279.1 1366.2,1280.0 1351.9,1279.7 1337.3,1278.0 1322.2,1275.1 1306.9,1271.0 1291.3,1265.8 1275.4,1259.4 1259.4,1252.0 1243.2,1243.5 1226.9,1234.0 1210.5,1223.7 1194.1,1212.6 1177.8,1200.7 1161.6,1188.1 1145.6,1175.0 1129.8,1161.5 1114.2,1147.6  A 522.500,522.500 0.00 0,1 1135.3,1125.8 L 1135.3,1125.8 1149.9,1140.5 1164.7,1154.8 1179.7,1168.7 1194.9,1182.1 1210.1,1194.8 1225.3,1206.8 1240.6,1218.0 1255.7,1228.2 1270.7,1237.6 1285.5,1245.8 1300.1,1253.0 1314.5,1259.0 1328.5,1263.9 1342.2,1267.5 1355.5,1269.9 1368.5,1270.9 1381.0,1270.7 1393.1,1269.1 1404.7,1266.2 1415.8,1262.0 1426.4,1256.4 1436.4,1249.6 1445.9,1241.5 1454.9,1232.1 1463.3,1221.4 1471.1,1209.6 1478.4,1196.7 1485.1,1182.6 1491.2,1167.5 1496.8,1151.5 1501.8,1134.6 1506.3,1116.8 1510.2,1098.4 1513.6,1079.3 1516.5,1059.7 1519.0,1039.6 1520.9,1019.2 1522.5,998.7 1523.6,978.0  Z" style="stroke-width: 0.5;  stroke: rgb(0,0,0); fill: rgb(179,177,178);" />
<path d="M 1756.460,1955.230 A 522.500,522.500 0.00 0,1 1733.3,1967.5 L 1733.3,1967.5 1724.1,1949.4 1714.7,1931.5 1705.2,1914.0 1695.5,1897.0 1685.8,1880.5 1676.1,1864.8 1666.3,1849.9 1656.6,1835.8 1646.9,1822.8 1637.3,1810.9 1627.9,1800.1 1618.5,1790.5 1609.4,1782.2 1600.5,1775.2 1591.7,1769.5 1583.2,1765.3 1575.0,1762.5 1567.0,1761.2 1559.4,1761.3 1552.0,1762.8 1545.0,1765.8 1538.2,1770.3 1531.9,1776.2 1525.8,1783.6 1520.1,1792.2 1514.8,1802.3 1509.8,1813.6 1505.2,1826.1 1501.0,1839.8 1497.1,1854.7 1493.6,1870.5 1490.4,1887.3 1487.5,1904.9 1485.0,1923.2 1482.8,1942.2 1480.9,1961.7 1479.4,1981.6 1478.1,2001.7 1477.1,2022.0  A 522.500,522.500 0.00 0,1 1474.5,2021.9 L 1474.5,2021.9 1475.6,2001.6 1477.0,1981.3 1478.8,1961.4 1480.9,1941.8 1483.3,1922.8 1486.1,1904.3 1489.2,1886.6 1492.7,1869.7 1496.6,1853.7 1500.9,1838.8 1505.6,1824.9 1510.7,1812.2 1516.1,1800.6 1522.0,1790.4 1528.3,1781.4 1534.9,1773.8 1541.9,1767.6 1549.3,1762.8 1557.1,1759.5 1565.2,1757.6 1573.6,1757.1 1582.3,1758.1 1591.4,1760.5 1600.7,1764.3 1610.3,1769.5 1620.2,1776.0 1630.2,1783.9 1640.5,1793.0 1650.9,1803.3 1661.4,1814.8 1672.0,1827.3 1682.7,1840.9 1693.5,1855.3 1704.2,1870.6 1714.9,1886.5 1725.5,1903.1 1736.0,1920.1 1746.3,1937.6 1756.5,1955.2  Z" style="stroke-width: 0.5;  stroke: rgb(0,0,0); fill: rgb(179,177,178);" />
<path d="M 2022.080,1479.042 A 522.500,522.500 0.00 0,1 2022.5,1501.8 L 2022.5,1501.8 1996.7,1501.8 1970.9,1501.9 1944.8,1502.3 1918.7,1502.9 1892.5,1503.6 1866.2,1504.6 1839.8,1505.8 1813.3,1507.2 1786.8,1508.8 1760.2,1510.7 1733.5,1512.8 1706.9,1515.2 1680.2,1517.8 1653.5,1520.6 1626.8,1523.7 1600.1,1527.1 1573.4,1530.7 1546.7,1534.6 1520.0,1538.7 1493.4,1543.1 1466.8,1547.7 1440.3,1552.5 1413.9,1557.7 1387.5,1563.0 1361.2,1568.6 1335.0,1574.5 1308.8,1580.5 1282.8,1586.8 1256.9,1593.3 1231.1,1600.1 1205.4,1607.0 1179.9,1614.1 1154.5,1621.4 1129.3,1628.9 1104.2,1636.6 1079.2,1644.4 1054.5,1652.4 1029.9,1660.5 1005.5,1668.7  A 522.500,522.500 0.00 0,1 998.6,1646.9 L 998.6,1646.9 1023.6,1639.7 1048.7,1632.5 1074.0,1625.5 1099.4,1618.5 1124.9,1611.7 1150.5,1605.0 1176.2,1598.4 1202.1,1592.0 1228.0,1585.8 1254.1,1579.7 1280.2,1573.7 1306.4,1567.9 1332.7,1562.3 1359.0,1556.8 1385.4,1551.5 1411.9,1546.4 1438.4,1541.5 1465.0,1536.8 1491.6,1532.2 1518.2,1527.8 1544.9,1523.7 1571.6,1519.7 1598.3,1515.9 1625.0,1512.2 1651.7,1508.8 1678.5,1505.6 1705.2,1502.5 1731.8,1499.6 1758.5,1496.9 1785.1,1494.4 1811.7,1492.0 1838.2,1489.9 1864.7,1487.8 1891.1,1486.0 1917.5,1484.3 1943.8,1482.8 1970.0,1481.4 1996.1,1480.1 2022.1,1479.0  Z" style="stroke-width: 0.5;  stroke: rgb(0,0,0); fill: rgb(179,177,178);" />
<path d="M 1559.516,980.901 A 522.500,522.500 0.00 0,1 1582.0,984.0 L 1582.0,984.0 1578.5,1004.7 1574.5,1025.3 1570.0,1045.8 1565.0,1065.9 1559.4,1085.6 1553.4,1104.9 1546.7,1123.5 1539.5,1141.4 1531.8,1158.6 1523.5,1174.9 1514.6,1190.3 1505.1,1204.8 1495.0,1218.2 1484.4,1230.5 1473.3,1241.7 1461.6,1251.8 1449.4,1260.7 1436.6,1268.3 1423.4,1274.7 1409.6,1279.9 1395.4,1283.7 1380.8,1286.4 1365.8,1287.7 1350.3,1287.8 1334.6,1286.7 1318.5,1284.4 1302.1,1280.9 1285.5,1276.2 1268.6,1270.5 1251.6,1263.6 1234.5,1255.8 1217.3,1247.0 1200.0,1237.3 1182.8,1226.8 1165.7,1215.6 1148.6,1203.7 1131.8,1191.3 1115.2,1178.4 1099.0,1165.1  A 522.500,522.500 0.00 0,1 1113.7,1148.1 L 1113.7,1148.1 1129.3,1162.0 1145.2,1175.6 1161.3,1188.6 1177.5,1201.2 1193.9,1213.0 1210.3,1224.2 1226.7,1234.5 1243.1,1243.9 1259.4,1252.4 1275.5,1259.8 1291.5,1266.2 1307.2,1271.4 1322.7,1275.5 1337.8,1278.4 1352.6,1280.0 1367.1,1280.4 1381.1,1279.5 1394.7,1277.3 1407.9,1273.9 1420.6,1269.1 1432.8,1263.0 1444.5,1255.7 1455.7,1247.2 1466.3,1237.4 1476.4,1226.4 1485.9,1214.3 1494.9,1201.0 1503.3,1186.7 1511.1,1171.4 1518.4,1155.2 1525.1,1138.1 1531.2,1120.3 1536.8,1101.7 1541.8,1082.5 1546.4,1062.8 1550.4,1042.7 1553.9,1022.2 1556.9,1001.6 1559.5,980.9  Z" style="stroke-width: 0.5;  stroke: rgb(0,0,0); fill: rgb(179,177,178);" />
<path d="M 1835.463,1900.588 A 522.500,522.500 0.00 0,1 1818.9,1913.9 L 1818.9,1913.9 1806.2,1897.7 1793.2,1881.8 1780.0,1866.3 1766.7,1851.4 1753.2,1837.0 1739.7,1823.4 1726.2,1810.6 1712.7,1798.7 1699.2,1787.8 1685.9,1777.9 1672.7,1769.1 1659.7,1761.6 1646.8,1755.2 1634.3,1750.1 1622.0,1746.3 1610.0,1743.9 1598.3,1742.8 1587.0,1743.0 1576.0,1744.7 1565.4,1747.7 1555.3,1752.1 1545.5,1757.9 1536.2,1765.1 1527.3,1773.5 1518.9,1783.2 1511.0,1794.2 1503.5,1806.4 1496.5,1819.7 1489.9,1834.2 1483.8,1849.6 1478.2,1866.0 1473.1,1883.3 1468.4,1901.3 1464.2,1920.0 1460.4,1939.3 1457.1,1959.1 1454.1,1979.2 1451.6,1999.6 1449.4,2020.0  A 522.500,522.500 0.00 0,1 1428.3,2017.6 L 1428.3,2017.6 1431.3,1997.1 1434.7,1976.7 1438.6,1956.6 1442.9,1936.8 1447.7,1917.5 1452.9,1898.8 1458.6,1880.7 1464.7,1863.4 1471.3,1846.9 1478.5,1831.4 1486.1,1816.9 1494.1,1803.4 1502.7,1791.1 1511.7,1779.9 1521.2,1770.0 1531.1,1761.4 1541.5,1754.0 1552.3,1748.0 1563.6,1743.3 1575.2,1739.9 1587.2,1737.9 1599.6,1737.3 1612.3,1738.0 1625.3,1740.1 1638.6,1743.5 1652.2,1748.1 1666.0,1754.0 1680.0,1761.2 1694.1,1769.4 1708.4,1778.8 1722.8,1789.3 1737.2,1800.7 1751.6,1813.0 1765.9,1826.1 1780.2,1839.9 1794.3,1854.4 1808.3,1869.4 1822.0,1884.9 1835.5,1900.6  Z" style="stroke-width: 0.5;  stroke: rgb(0,0,0); fill: rgb(179,177,178);" />
<path d="M 1870.279,1131.354 A 522.500,522.500 0.00 0,1 1883.1,1144.7 L 1883.1,1144.7 1865.8,1160.4 1848.0,1175.9 1829.8,1191.0 1811.1,1205.9 1791.9,1220.4 1772.3,1234.4 1752.3,1248.0 1731.9,1261.0 1711.1,1273.4 1689.9,1285.3 1668.4,1296.5 1646.6,1307.1 1624.4,1316.9 1601.9,1326.1 1579.2,1334.5 1556.2,1342.1 1533.0,1349.0 1509.6,1355.1 1486.0,1360.4 1462.2,1364.9 1438.3,1368.5 1414.3,1371.4 1390.2,1373.4 1366.0,1374.7 1341.8,1375.1 1317.5,1374.8 1293.3,1373.6 1269.1,1371.8 1245.0,1369.1 1220.9,1365.8 1197.0,1361.8 1173.3,1357.1 1149.7,1351.7 1126.3,1345.8 1103.2,1339.3 1080.4,1332.3 1057.9,1324.7 1035.7,1316.8 1013.9,1308.5  A 522.500,522.500 0.00 0,1 1020.9,1291.4 L 1020.9,1291.4 1042.3,1300.4 1064.0,1309.0 1086.0,1317.2 1108.4,1324.9 1131.1,1332.0 1154.0,1338.6 1177.1,1344.5 1200.5,1349.8 1224.0,1354.3 1247.6,1358.2 1271.3,1361.3 1295.0,1363.6 1318.8,1365.1 1342.7,1365.8 1366.5,1365.7 1390.2,1364.7 1413.9,1362.9 1437.5,1360.2 1460.9,1356.7 1484.2,1352.3 1507.4,1347.0 1530.3,1340.9 1553.0,1334.0 1575.5,1326.3 1597.7,1317.7 1619.6,1308.4 1641.3,1298.3 1662.6,1287.5 1683.5,1276.0 1704.1,1263.9 1724.3,1251.1 1744.1,1237.7 1763.5,1223.7 1782.5,1209.3 1801.0,1194.4 1819.0,1179.1 1836.6,1163.4 1853.7,1147.5 1870.3,1131.4  Z" style="stroke-width: 0.5;  stroke: rgb(0,0,0); fill: rgb(179,177,178);" />
<path d="M 1976.094,1715.270 A 522.500,522.500 0.00 0,1 1970.9,1726.4 L 1970.9,1726.4 1950.7,1717.0 1930.0,1708.0 1909.1,1699.5 1887.9,1691.5 1866.4,1684.2 1844.8,1677.6 1823.0,1671.7 1801.1,1666.6 1779.1,1662.3 1757.1,1658.9 1735.2,1656.3 1713.3,1654.7 1691.4,1654.0 1669.7,1654.3 1648.2,1655.6 1626.8,1657.8 1605.7,1661.1 1584.7,1665.4 1564.1,1670.7 1543.8,1677.0 1523.8,1684.3 1504.1,1692.6 1484.8,1701.9 1465.9,1712.1 1447.4,1723.3 1429.4,1735.3 1411.7,1748.2 1394.6,1762.0 1377.9,1776.5 1361.8,1791.8 1346.1,1807.8 1330.9,1824.4 1316.3,1841.6 1302.2,1859.3 1288.6,1877.4 1275.6,1896.0 1263.2,1914.9 1251.3,1933.9 1239.9,1953.2  A 522.500,522.500 0.00 0,1 1229.3,1946.9 L 1229.3,1946.9 1241.2,1927.9 1253.6,1908.9 1266.6,1890.3 1280.1,1871.9 1294.1,1853.9 1308.7,1836.3 1323.9,1819.3 1339.5,1802.8 1355.6,1787.0 1372.3,1771.8 1389.4,1757.3 1407.0,1743.7 1425.1,1730.8 1443.6,1718.8 1462.5,1707.6 1481.9,1697.4 1501.6,1688.1 1521.7,1679.7 1542.1,1672.3 1562.8,1665.8 1583.8,1660.4 1605.1,1655.9 1626.7,1652.5 1648.4,1650.0 1670.3,1648.4 1692.4,1647.9 1714.5,1648.3 1736.8,1649.6 1759.1,1651.8 1781.4,1654.9 1803.7,1658.8 1825.9,1663.5 1848.0,1669.0 1870.0,1675.2 1891.8,1682.1 1913.3,1689.6 1934.6,1697.7 1955.5,1706.3 1976.1,1715.3  Z" style="stroke-width: 0.5;  stroke: rgb(0,0,0); fill: rgb(179,177,178);" />
<path d="M 1883.164,1144.765 A 522.500,522.500 0.00 0,1 1889.9,1152.2 L 1889.9,1152.2 1872.3,1167.6 1854.1,1182.9 1835.5,1197.8 1816.4,1212.4 1796.9,1226.6 1777.0,1240.4 1756.6,1253.8 1735.9,1266.6 1714.8,1278.9 1693.3,1290.6 1671.5,1301.6 1649.3,1312.1 1626.9,1321.8 1604.1,1330.9 1581.1,1339.3 1557.9,1346.9 1534.4,1353.7 1510.7,1359.8 1486.9,1365.2 1462.9,1369.7 1438.7,1373.5 1414.5,1376.5 1390.1,1378.7 1365.7,1380.1 1341.2,1380.7 1316.7,1380.6 1292.3,1379.7 1267.9,1378.1 1243.5,1375.8 1219.2,1372.8 1195.1,1369.1 1171.1,1364.7 1147.3,1359.8 1123.7,1354.2 1100.3,1348.1 1077.2,1341.5 1054.4,1334.4 1032.0,1326.9 1009.9,1319.0  A 522.500,522.500 0.00 0,1 1013.4,1309.6 L 1013.4,1309.6 1035.3,1317.8 1057.5,1325.7 1080.0,1333.2 1102.9,1340.2 1126.0,1346.7 1149.4,1352.5 1173.0,1357.8 1196.8,1362.5 1220.7,1366.5 1244.7,1369.8 1268.9,1372.4 1293.1,1374.2 1317.3,1375.3 1341.6,1375.6 1365.8,1375.1 1390.0,1373.9 1414.2,1371.8 1438.2,1368.9 1462.1,1365.2 1485.9,1360.7 1509.5,1355.4 1533.0,1349.3 1556.2,1342.4 1579.2,1334.7 1601.9,1326.3 1624.4,1317.1 1646.5,1307.2 1668.4,1296.7 1689.9,1285.4 1711.1,1273.6 1731.9,1261.1 1752.3,1248.1 1772.3,1234.5 1792.0,1220.5 1811.1,1206.0 1829.8,1191.1 1848.1,1175.9 1865.9,1160.5 1883.2,1144.8  Z" style="stroke-width: 0.5;  stroke: rgb(0,0,0); fill: rgb(179,177,178);" />
<path d="M 1502.266,977.505 A 522.500,522.500 0.00 0,1 1511.8,977.6 L 1511.8,977.6 1511.2,998.2 1510.1,1018.8 1508.7,1039.1 1506.7,1059.1 1504.3,1078.7 1501.5,1097.8 1498.0,1116.2 1494.1,1133.9 1489.6,1150.7 1484.6,1166.7 1479.0,1181.7 1472.9,1195.7 1466.1,1208.6 1458.8,1220.3 1451.0,1230.8 1442.5,1240.1 1433.5,1248.1 1424.0,1254.8 1413.9,1260.2 1403.3,1264.3 1392.2,1267.1 1380.6,1268.5 1368.6,1268.5 1356.1,1267.3 1343.2,1264.7 1329.9,1260.9 1316.3,1255.9 1302.4,1249.6 1288.2,1242.2 1273.7,1233.7 1259.1,1224.2 1244.3,1213.7 1229.5,1202.3 1214.6,1190.1 1199.7,1177.2 1184.8,1163.6 1170.1,1149.5 1155.6,1134.9 1141.3,1120.1  A 522.500,522.500 0.00 0,1 1148.3,1113.6 L 1148.3,1113.6 1162.2,1128.7 1176.5,1143.5 1190.8,1157.8 1205.3,1171.7 1219.9,1184.8 1234.4,1197.3 1248.9,1209.0 1263.3,1219.7 1277.5,1229.5 1291.6,1238.2 1305.4,1245.9 1318.9,1252.4 1332.1,1257.6 1344.9,1261.7 1357.4,1264.5 1369.4,1265.9 1381.0,1266.0 1392.1,1264.8 1402.8,1262.3 1412.9,1258.4 1422.5,1253.2 1431.6,1246.6 1440.1,1238.7 1448.1,1229.6 1455.5,1219.2 1462.3,1207.6 1468.6,1194.8 1474.2,1180.9 1479.4,1166.0 1483.9,1150.1 1487.9,1133.3 1491.4,1115.7 1494.4,1097.4 1496.8,1078.4 1498.8,1058.8 1500.3,1038.9 1501.3,1018.6 1502.0,998.1 1502.3,977.5  Z" style="stroke-width: 0.5;  stroke: rgb(0,0,0); fill: rgb(179,177,178);" />
</g>
<g id="plot0">
<g id="plot0-axis">
</g>
<line x1='2243.7' y1='1596.7' x2='2243.7' y2='1596.7' style="stroke-width:14.0;stroke:rgb(0,0,0);stroke-linecap:round;fill:none;" />
<line x1='2243.7' y1='1596.7' x2='2283.4' y2='1601.8' style="stroke-width:14.0;stroke:rgb(0,0,0);stroke-linecap:round;fill:none;" />
<line x1='2283.4' y1='1601.8' x2='2283.4' y2='1601.8' style="stroke-width:14.0;stroke:rgb(0,0,0);stroke-linecap:round;fill:none;" />
<text x="2300.0" y="1626.7" font-size="46.8px" font-family="CMUBright-Roman" style="text-anchor:start;fill:rgb(255,38,78);" transform="rotate(7.4,2300.0,1626.7)" >HistocapG186AR<tspan baseline-shift="-40%" font-size="90%">s</tspan>00854</text>
</g>
<defs>
<pattern id="vline-sparse" width="10" height="10" patternTransform="rotate(0 0 0)" patternUnits="userSpaceOnUse"><line x1="0" y1="0" x2="0" y2="10" style="stroke:black;stroke-width:2" /></pattern>
<pattern id="checker" width="10" height="10" patternTransform="rotate(45 0 0)" patternUnits="userSpaceOnUse"><line x1="0" y1="0" x2="10" y2="0" style="stroke:black;stroke-width:5" /><line x1="0" y1="0" x2="0" y2="10" style="stroke:black;stroke-width:4" /></pattern>
<pattern id="checker" width="10" height="10" patternTransform="rotate(45 0 0)" patternUnits="userSpaceOnUse"><line x1="0" y1="0" x2="10" y2="0" style="stroke:black;stroke-width:2" /><line x1="0" y1="0" x2="0" y2="10" style="stroke:black;stroke-width:2" /></pattern>
<pattern id="hline-sparse" width="10" height="10" patternTransform="rotate(0 0 0)" patternUnits="userSpaceOnUse"><line x1="0" y1="0" x2="10" y2="0" style="stroke:black;stroke-width:2" /></pattern>
<pattern id="hline" width="10" height="10" patternTransform="rotate(0 0 0)" patternUnits="userSpaceOnUse"><line x1="0" y1="0" x2="10" y2="0" style="stroke:black;stroke-width:5" /></pattern>
<pattern id="vline" width="10" height="10" patternTransform="rotate(0 0 0)" patternUnits="userSpaceOnUse"><line x1="0" y1="0" x2="0" y2="10" style="stroke:black;stroke-width:5" /></pattern>
</defs>
</svg>
