<?xml version="1.0" encoding="utf-8" standalone="no"?>
<!DOCTYPE svg PUBLIC "-//W3C//DTD SVG 1.1//EN" "http://www.w3.org/Graphics/SVG/1.1/DTD/svg11.dtd">
<svg width="3000px" height="3000px" version="1.1" xmlns="http://www.w3.org/2000/svg" xmlns:xlink="http://www.w3.org/1999/xlink">
<g id="bg">
<rect x="0" y="0" width="3000px" height="3000px" style="fill:rgb(255,255,255);"/>
</g>
<g id="ideograms">
<path d="M1500.000,950.000 A550.000,550.000 40.000 0,1 1711.621,2007.658 L1788.574,2192.261 A750.000,750.000 0.000 0,0 1500.000,750.000 Z" style="stroke-width:2.0;stroke:rgb(0,0,0);stroke-linecap:round;fill:rgb(179,177,178);" />
<text x="2456.1" y="1308.7" font-size="46.8px" font-family="CMUBright-Roman" style="text-anchor:middle;fill:rgb(0,0,0);" transform="rotate(438.7,2456.1,1308.7)" >HistomissSECH87<tspan baseline-shift="-40%" font-size="90%">6</tspan></text>
<line x1='1582.8' y1='754.6' x2='1584.1' y2='742.7' style="stroke-width:8.0;stroke:rgb(150,150,150);stroke-linecap:round;fill:none;" />
<text x="1599.4" y="732.4" font-size="41.6px" font-family="CMUBright-Roman" style="text-anchor:start;fill:rgb(150,150,150);" transform="rotate(276.3,1599.4,732.4)" >3000 kb</text>
<line x1='1683.0' y1='772.7' x2='1685.9' y2='761.0' style="stroke-width:8.0;stroke:rgb(150,150,150);stroke-linecap:round;fill:none;" />
<line x1='1779.8' y1='804.2' x2='1784.3' y2='793.0' style="stroke-width:8.0;stroke:rgb(150,150,150);stroke-linecap:round;fill:none;" />
<line x1='1871.5' y1='848.5' x2='1877.4' y2='838.0' style="stroke-width:8.0;stroke:rgb(150,150,150);stroke-linecap:round;fill:none;" />
<line x1='1956.3' y1='904.8' x2='1963.6' y2='895.2' style="stroke-width:8.0;stroke:rgb(150,150,150);stroke-linecap:round;fill:none;" />
<line x1='2032.7' y1='972.0' x2='2041.2' y2='963.6' style="stroke-width:8.0;stroke:rgb(150,150,150);stroke-linecap:round;fill:none;" />
<text x="2059.5" y="965.2" font-size="41.6px" font-family="CMUBright-Roman" style="text-anchor:start;fill:rgb(150,150,150);" transform="rotate(315.3,2059.5,965.2)" >3050 kb</text>
<line x1='2099.3' y1='1049.1' x2='2108.9' y2='1041.8' style="stroke-width:8.0;stroke:rgb(150,150,150);stroke-linecap:round;fill:none;" />
<line x1='2154.8' y1='1134.4' x2='2165.3' y2='1128.5' style="stroke-width:8.0;stroke:rgb(150,150,150);stroke-linecap:round;fill:none;" />
<line x1='2198.3' y1='1226.4' x2='2209.5' y2='1222.0' style="stroke-width:8.0;stroke:rgb(150,150,150);stroke-linecap:round;fill:none;" />
<line x1='2228.9' y1='1323.5' x2='2240.6' y2='1320.7' style="stroke-width:8.0;stroke:rgb(150,150,150);stroke-linecap:round;fill:none;" />
<line x1='2246.1' y1='1423.9' x2='2258.1' y2='1422.6' style="stroke-width:8.0;stroke:rgb(150,150,150);stroke-linecap:round;fill:none;" />
<text x="2271.3" y="1435.4" font-size="41.6px" font-family="CMUBright-Roman" style="text-anchor:start;fill:rgb(150,150,150);" transform="rotate(354.2,2271.3,1435.4)" >3100 kb</text>
<line x1='2249.6' y1='1525.6' x2='2261.6' y2='1526.0' style="stroke-width:8.0;stroke:rgb(150,150,150);stroke-linecap:round;fill:none;" />
<line x1='2239.2' y1='1626.9' x2='2251.0' y2='1628.9' style="stroke-width:8.0;stroke:rgb(150,150,150);stroke-linecap:round;fill:none;" />
<line x1='2215.2' y1='1725.8' x2='2226.6' y2='1729.4' style="stroke-width:8.0;stroke:rgb(150,150,150);stroke-linecap:round;fill:none;" />
<line x1='2178.0' y1='1820.6' x2='2188.9' y2='1825.7' style="stroke-width:8.0;stroke:rgb(150,150,150);stroke-linecap:round;fill:none;" />
<line x1='2128.4' y1='1909.5' x2='2138.4' y2='1916.0' style="stroke-width:8.0;stroke:rgb(150,150,150);stroke-linecap:round;fill:none;" />
<text x="2140.7" y="1934.2" font-size="41.6px" font-family="CMUBright-Roman" style="text-anchor:start;fill:rgb(150,150,150);" transform="rotate(33.1,2140.7,1934.2)" >3150 kb</text>
<line x1='2067.1' y1='1990.8' x2='2076.2' y2='1998.6' style="stroke-width:8.0;stroke:rgb(150,150,150);stroke-linecap:round;fill:none;" />
<line x1='1995.4' y1='2063.1' x2='2003.3' y2='2072.1' style="stroke-width:8.0;stroke:rgb(150,150,150);stroke-linecap:round;fill:none;" />
<line x1='1914.6' y1='2125.0' x2='1921.2' y2='2135.0' style="stroke-width:8.0;stroke:rgb(150,150,150);stroke-linecap:round;fill:none;" />
<line x1='1826.1' y1='2175.4' x2='1831.4' y2='2186.2' style="stroke-width:8.0;stroke:rgb(150,150,150);stroke-linecap:round;fill:none;" />
<g id="highlighttrack_0">
<path d="M2037.648,1384.093 A550.000,550.000 40.000 0,1 2040.854,1400.115 L2237.528,1363.794 A750.000,750.000 0.000 0,0 2233.157,1341.945 Z" style="stroke-width:14.0;stroke:rgb(0,0,0);stroke-linecap:round;fill:rgb(255,38,78);" />
</g>
<path d="M1500.000,950.000 A550.000,550.000 40.000 0,1 1711.621,2007.658 L1788.574,2192.261 A750.000,750.000 0.000 0,0 1500.000,750.000 Z" style="stroke-width:2.0;stroke:rgb(0,0,0);stroke-linecap:round;fill:none;" />
<path d="M1493.078,2049.956 A550.000,550.000 40.000 0,1 1282.007,995.046 L1202.736,811.426 A750.000,750.000 0.000 0,0 1490.561,2249.941 Z" style="stroke-width:2.0;stroke:rgb(0,0,0);stroke-linecap:round;fill:rgb(179,177,178);" />
<text x="499.8" y="1700.1" font-size="46.8px" font-family="CMUBright-Roman" style="text-anchor:middle;fill:rgb(0,0,0);" transform="rotate(78.7,499.8,1700.1)" >HistocapCB063<tspan baseline-shift="-40%" font-size="90%">6</tspan></text>
<line x1='1195.7' y1='814.5' x2='1190.8' y2='803.5' style="stroke-width:8.0;stroke:rgb(150,150,150);stroke-linecap:round;fill:none;" />
<line x1='1105.7' y1='862.0' x2='1099.4' y2='851.8' style="stroke-width:8.0;stroke:rgb(150,150,150);stroke-linecap:round;fill:none;" />
<line x1='1022.9' y1='921.3' x2='1015.3' y2='912.0' style="stroke-width:8.0;stroke:rgb(150,150,150);stroke-linecap:round;fill:none;" />
<text x="996.9" y="911.8" font-size="41.6px" font-family="CMUBright-Roman" style="text-anchor:end;fill:rgb(150,150,150);" transform="rotate(50.5,996.9,911.8)" >3300 kb</text>
<line x1='948.9' y1='991.3' x2='940.1' y2='983.1' style="stroke-width:8.0;stroke:rgb(150,150,150);stroke-linecap:round;fill:none;" />
<line x1='885.1' y1='1070.6' x2='875.3' y2='1063.7' style="stroke-width:8.0;stroke:rgb(150,150,150);stroke-linecap:round;fill:none;" />
<line x1='832.6' y1='1157.8' x2='821.9' y2='1152.3' style="stroke-width:8.0;stroke:rgb(150,150,150);stroke-linecap:round;fill:none;" />
<line x1='792.4' y1='1251.3' x2='781.1' y2='1247.4' style="stroke-width:8.0;stroke:rgb(150,150,150);stroke-linecap:round;fill:none;" />
<line x1='765.3' y1='1349.5' x2='753.5' y2='1347.0' style="stroke-width:8.0;stroke:rgb(150,150,150);stroke-linecap:round;fill:none;" />
<text x="739.1" y="1358.4" font-size="41.6px" font-family="CMUBright-Roman" style="text-anchor:end;fill:rgb(150,150,150);" transform="rotate(11.6,739.1,1358.4)" >3350 kb</text>
<line x1='751.6' y1='1450.3' x2='739.7' y2='1449.6' style="stroke-width:8.0;stroke:rgb(150,150,150);stroke-linecap:round;fill:none;" />
<line x1='751.8' y1='1552.2' x2='739.8' y2='1553.0' style="stroke-width:8.0;stroke:rgb(150,150,150);stroke-linecap:round;fill:none;" />
<line x1='765.8' y1='1653.0' x2='754.0' y2='1655.4' style="stroke-width:8.0;stroke:rgb(150,150,150);stroke-linecap:round;fill:none;" />
<line x1='793.3' y1='1751.0' x2='781.9' y2='1755.0' style="stroke-width:8.0;stroke:rgb(150,150,150);stroke-linecap:round;fill:none;" />
<line x1='833.8' y1='1844.4' x2='823.1' y2='1849.9' style="stroke-width:8.0;stroke:rgb(150,150,150);stroke-linecap:round;fill:none;" />
<text x="819.0" y="1867.8" font-size="41.6px" font-family="CMUBright-Roman" style="text-anchor:end;fill:rgb(150,150,150);" transform="rotate(-27.3,819.0,1867.8)" >3400 kb</text>
<line x1='886.5' y1='1931.5' x2='876.7' y2='1938.4' style="stroke-width:8.0;stroke:rgb(150,150,150);stroke-linecap:round;fill:none;" />
<line x1='950.6' y1='2010.6' x2='941.8' y2='2018.8' style="stroke-width:8.0;stroke:rgb(150,150,150);stroke-linecap:round;fill:none;" />
<line x1='1024.8' y1='2080.3' x2='1017.2' y2='2089.6' style="stroke-width:8.0;stroke:rgb(150,150,150);stroke-linecap:round;fill:none;" />
<line x1='1107.8' y1='2139.3' x2='1101.5' y2='2149.5' style="stroke-width:8.0;stroke:rgb(150,150,150);stroke-linecap:round;fill:none;" />
<line x1='1198.0' y1='2186.5' x2='1193.2' y2='2197.5' style="stroke-width:8.0;stroke:rgb(150,150,150);stroke-linecap:round;fill:none;" />
<text x="1201.2" y="2214.0" font-size="41.6px" font-family="CMUBright-Roman" style="text-anchor:end;fill:rgb(150,150,150);" transform="rotate(-66.3,1201.2,2214.0)" >3450 kb</text>
<line x1='1293.8' y1='2221.1' x2='1290.5' y2='2232.6' style="stroke-width:8.0;stroke:rgb(150,150,150);stroke-linecap:round;fill:none;" />
<line x1='1393.3' y1='2242.4' x2='1391.6' y2='2254.3' style="stroke-width:8.0;stroke:rgb(150,150,150);stroke-linecap:round;fill:none;" />
<path d="M1493.078,2049.956 A550.000,550.000 40.000 0,1 1282.007,995.046 L1202.736,811.426 A750.000,750.000 0.000 0,0 1490.561,2249.941 Z" style="stroke-width:2.0;stroke:rgb(0,0,0);stroke-linecap:round;fill:none;" />
</g>
<g id="track_0">
<path d="M 2022.500,1500.452 A 522.500,522.500 0.00 0,1 1998.2,1657.3 L 1998.2,1657.3 1975.2,1650.3 1951.9,1643.6 1928.2,1637.2 1904.2,1631.3 1880.0,1625.8 1855.6,1620.7 1830.9,1616.2 1806.1,1612.1 1781.1,1608.6 1755.9,1605.7 1730.6,1603.3 1705.3,1601.6 1679.8,1600.4 1654.4,1599.9 1628.8,1600.0 1603.3,1600.7 1577.8,1602.1 1552.3,1604.1 1526.9,1606.8 1501.5,1610.1 1476.3,1614.1 1451.1,1618.7 1426.1,1623.9 1401.3,1629.8 1376.6,1636.3 1352.1,1643.4 1327.8,1651.1 1303.8,1659.3 1280.0,1668.1 1256.4,1677.4 1233.2,1687.2 1210.2,1697.5 1187.5,1708.3 1165.2,1719.4 1143.2,1731.0 1121.6,1742.9 1100.4,1755.2 1079.6,1767.7 1059.1,1780.4  A 522.500,522.500 0.00 0,1 995.2,1635.0 L 995.2,1635.0 1020.4,1628.4 1045.6,1621.8 1071.0,1615.4 1096.5,1609.1 1122.2,1603.0 1147.9,1596.9 1173.8,1591.1 1199.8,1585.3 1225.9,1579.8 1252.1,1574.4 1278.3,1569.2 1304.7,1564.1 1331.1,1559.3 1357.6,1554.6 1384.1,1550.1 1410.7,1545.8 1437.4,1541.7 1464.1,1537.8 1490.9,1534.1 1517.6,1530.6 1544.4,1527.3 1571.2,1524.2 1598.0,1521.3 1624.9,1518.6 1651.7,1516.1 1678.5,1513.8 1705.3,1511.6 1732.0,1509.7 1758.7,1508.0 1785.4,1506.5 1812.1,1505.1 1838.6,1504.0 1865.2,1503.0 1891.6,1502.2 1918.0,1501.5 1944.3,1501.0 1970.4,1500.7 1996.5,1500.5 2022.5,1500.5  Z" style="stroke-width: 0.5;  stroke: rgb(0,0,0); fill: rgb(179,177,178);" />
<path d="M 1650.772,999.726 A 522.500,522.500 0.00 0,1 1774.5,1055.4 L 1774.5,1055.4 1763.3,1073.2 1751.6,1090.7 1739.5,1107.9 1727.1,1124.6 1714.3,1140.7 1701.2,1156.2 1687.9,1170.8 1674.2,1184.7 1660.3,1197.6 1646.2,1209.5 1631.9,1220.4 1617.5,1230.2 1602.9,1238.8 1588.2,1246.2 1573.4,1252.3 1558.5,1257.2 1543.5,1260.8 1528.6,1263.1 1513.6,1264.0 1498.7,1263.6 1483.8,1261.9 1469.0,1258.9 1454.3,1254.5 1439.7,1248.8 1425.2,1241.9 1410.9,1233.7 1396.8,1224.4 1382.9,1213.9 1369.2,1202.3 1355.7,1189.6 1342.5,1176.0 1329.6,1161.5 1317.0,1146.1 1304.8,1130.0 1292.9,1113.2 1281.3,1095.9 1270.2,1078.1 1259.4,1060.0 1249.1,1041.7  A 522.500,522.500 0.00 0,1 1292.9,1020.3 L 1292.9,1020.3 1301.2,1039.1 1309.8,1057.6 1318.6,1075.8 1327.8,1093.5 1337.1,1110.7 1346.7,1127.1 1356.4,1142.8 1366.3,1157.6 1376.4,1171.3 1386.6,1184.1 1396.8,1195.7 1407.2,1206.1 1417.5,1215.3 1428.0,1223.1 1438.4,1229.6 1448.9,1234.8 1459.3,1238.5 1469.7,1240.8 1480.0,1241.7 1490.3,1241.1 1500.4,1239.0 1510.5,1235.6 1520.4,1230.7 1530.2,1224.4 1539.8,1216.7 1549.3,1207.7 1558.6,1197.4 1567.6,1185.9 1576.5,1173.2 1585.1,1159.3 1593.5,1144.5 1601.7,1128.7 1609.6,1112.0 1617.2,1094.6 1624.5,1076.5 1631.6,1057.8 1638.3,1038.7 1644.7,1019.3 1650.8,999.7  Z" style="stroke-width: 0.5;  stroke: rgb(0,0,0); fill: rgb(179,177,178);" />
<path d="M 1920.954,1809.523 A 522.500,522.500 0.00 0,1 1852.3,1885.8 L 1852.3,1885.8 1837.9,1870.4 1823.2,1855.3 1808.1,1840.7 1792.7,1826.6 1777.1,1813.1 1761.3,1800.3 1745.4,1788.3 1729.3,1777.2 1713.1,1767.1 1696.9,1757.9 1680.7,1749.9 1664.6,1742.9 1648.5,1737.1 1632.4,1732.5 1616.6,1729.1 1600.8,1727.0 1585.3,1726.2 1569.9,1726.6 1554.8,1728.4 1539.9,1731.4 1525.3,1735.8 1511.0,1741.4 1497.1,1748.4 1483.4,1756.5 1470.2,1765.9 1457.3,1776.5 1444.8,1788.1 1432.7,1800.9 1421.0,1814.8 1409.7,1829.6 1398.9,1845.3 1388.5,1861.8 1378.6,1879.1 1369.1,1897.1 1360.1,1915.7 1351.6,1934.7 1343.5,1954.1 1335.9,1973.8 1328.8,1993.6  A 522.500,522.500 0.00 0,1 1235.6,1950.7 L 1235.6,1950.7 1246.9,1931.9 1258.8,1913.3 1271.1,1895.1 1284.0,1877.1 1297.4,1859.7 1311.3,1842.7 1325.7,1826.4 1340.6,1810.7 1355.9,1795.8 1371.7,1781.7 1387.9,1768.5 1404.5,1756.1 1421.5,1744.7 1438.9,1734.2 1456.6,1724.8 1474.7,1716.5 1493.1,1709.2 1511.8,1703.0 1530.8,1697.9 1550.0,1694.0 1569.4,1691.1 1589.0,1689.4 1608.8,1688.9 1628.7,1689.4 1648.7,1691.0 1668.8,1693.7 1688.9,1697.5 1709.1,1702.3 1729.2,1708.1 1749.3,1714.8 1769.2,1722.5 1789.1,1731.0 1808.7,1740.3 1828.2,1750.4 1847.4,1761.1 1866.3,1772.5 1884.9,1784.4 1903.2,1796.8 1921.0,1809.5  Z" style="stroke-width: 0.5;  stroke: rgb(0,0,0); fill: rgb(179,177,178);" />
<path d="M 1995.814,1335.152 A 522.500,522.500 0.00 0,1 2010.8,1389.9 L 2010.8,1389.9 1984.6,1395.5 1958.5,1401.1 1932.3,1406.8 1906.1,1412.4 1880.0,1418.0 1853.8,1423.6 1827.6,1429.1 1801.4,1434.7 1775.2,1440.3 1748.9,1445.8 1722.7,1451.4 1696.5,1456.9 1670.2,1462.4 1644.0,1467.9 1617.7,1473.4 1591.5,1478.9 1565.2,1484.3 1539.0,1489.8 1512.7,1495.2 1486.4,1500.7 1460.2,1506.1 1433.9,1511.5 1407.6,1516.9 1381.4,1522.2 1355.1,1527.6 1328.8,1532.9 1302.5,1538.3 1276.3,1543.6 1250.0,1548.9 1223.7,1554.2 1197.4,1559.5 1171.2,1564.8 1144.9,1570.0 1118.6,1575.3 1092.4,1580.5 1066.1,1585.7 1039.9,1591.0 1013.7,1596.2 987.4,1601.3  A 522.500,522.500 0.00 0,1 979.5,1545.2 L 979.5,1545.2 1005.4,1542.9 1031.5,1540.4 1057.6,1537.8 1083.8,1535.1 1110.1,1532.2 1136.4,1529.2 1162.8,1526.0 1189.2,1522.6 1215.7,1519.1 1242.2,1515.4 1268.7,1511.5 1295.2,1507.5 1321.8,1503.3 1348.3,1498.9 1374.8,1494.3 1401.4,1489.5 1427.9,1484.6 1454.4,1479.5 1480.9,1474.2 1507.3,1468.8 1533.7,1463.1 1560.1,1457.3 1586.4,1451.3 1612.6,1445.2 1638.8,1438.8 1664.9,1432.3 1691.0,1425.7 1716.9,1418.9 1742.8,1411.9 1768.6,1404.8 1794.3,1397.6 1819.9,1390.2 1845.4,1382.7 1870.8,1375.0 1896.0,1367.2 1921.2,1359.4 1946.2,1351.4 1971.1,1343.3 1995.8,1335.2  Z" style="stroke-width: 0.5;  stroke: rgb(0,0,0); fill: rgb(179,177,178);" />
<path d="M 1737.567,1965.369 A 522.500,522.500 0.00 0,1 1701.0,1982.3 L 1701.0,1982.3 1693.2,1963.7 1685.1,1945.2 1677.0,1927.2 1668.7,1909.5 1660.4,1892.5 1652.1,1876.2 1643.8,1860.7 1635.6,1846.1 1627.4,1832.5 1619.3,1820.0 1611.3,1808.6 1603.5,1798.5 1595.9,1789.6 1588.4,1782.1 1581.1,1776.0 1574.1,1771.3 1567.3,1768.0 1560.8,1766.2 1554.6,1765.8 1548.6,1767.0 1542.9,1769.6 1537.5,1773.8 1532.4,1779.3 1527.7,1786.3 1523.2,1794.7 1519.1,1804.5 1515.3,1815.6 1511.9,1827.9 1508.7,1841.4 1505.9,1856.0 1503.4,1871.7 1501.1,1888.3 1499.2,1905.8 1497.6,1924.0 1496.3,1942.9 1495.2,1962.3 1494.4,1982.2 1493.8,2002.2 1493.4,2022.5  A 522.500,522.500 0.00 0,1 1457.8,2020.8 L 1457.8,2020.8 1459.5,2000.5 1461.6,1980.4 1464.0,1960.5 1466.7,1941.0 1469.7,1922.1 1473.0,1903.7 1476.7,1886.2 1480.7,1869.4 1485.1,1853.6 1489.8,1838.8 1494.8,1825.1 1500.3,1812.6 1506.0,1801.3 1512.1,1791.2 1518.6,1782.5 1525.4,1775.2 1532.5,1769.3 1539.9,1764.8 1547.7,1761.8 1555.7,1760.2 1564.0,1760.0 1572.6,1761.4 1581.4,1764.1 1590.5,1768.3 1599.8,1773.9 1609.3,1780.8 1618.9,1789.1 1628.7,1798.6 1638.6,1809.3 1648.6,1821.2 1658.7,1834.2 1668.8,1848.1 1678.9,1863.0 1688.9,1878.6 1698.9,1895.0 1708.8,1912.0 1718.6,1929.5 1728.2,1947.3 1737.6,1965.4  Z" style="stroke-width: 0.5;  stroke: rgb(0,0,0); fill: rgb(179,177,178);" />
<path d="M 1782.330,1939.654 A 522.500,522.500 0.00 0,1 1743.9,1962.1 L 1743.9,1962.1 1734.3,1944.1 1724.5,1926.4 1714.4,1909.1 1704.2,1892.2 1693.9,1875.9 1683.6,1860.4 1673.2,1845.7 1662.8,1831.9 1652.5,1819.0 1642.2,1807.3 1632.0,1796.7 1621.9,1787.3 1612.0,1779.1 1602.2,1772.3 1592.6,1766.8 1583.3,1762.8 1574.2,1760.1 1565.3,1758.9 1556.7,1759.1 1548.4,1760.8 1540.4,1763.9 1532.7,1768.5 1525.4,1774.5 1518.3,1781.9 1511.6,1790.6 1505.3,1800.7 1499.3,1812.0 1493.7,1824.6 1488.4,1838.4 1483.5,1853.2 1478.9,1869.0 1474.7,1885.8 1470.9,1903.4 1467.4,1921.8 1464.2,1940.7 1461.4,1960.2 1458.9,1980.1 1456.7,2000.3 1454.8,2020.5  A 522.500,522.500 0.00 0,1 1410.7,2014.8 L 1410.7,2014.8 1414.4,1994.6 1418.5,1974.5 1422.9,1954.7 1427.7,1935.2 1432.9,1916.3 1438.5,1897.9 1444.4,1880.3 1450.8,1863.5 1457.6,1847.7 1464.7,1832.7 1472.2,1818.9 1480.1,1806.2 1488.4,1794.6 1497.1,1784.3 1506.1,1775.3 1515.5,1767.6 1525.2,1761.3 1535.2,1756.3 1545.6,1752.8 1556.2,1750.6 1567.1,1749.9 1578.3,1750.5 1589.7,1752.6 1601.3,1756.0 1613.2,1760.8 1625.1,1767.0 1637.3,1774.4 1649.5,1783.0 1661.8,1792.9 1674.2,1803.8 1686.6,1815.9 1699.0,1828.9 1711.3,1842.8 1723.6,1857.5 1735.7,1872.9 1747.7,1889.0 1759.5,1905.5 1771.1,1922.4 1782.3,1939.7  Z" style="stroke-width: 0.5;  stroke: rgb(0,0,0); fill: rgb(179,177,178);" />
<path d="M 1813.013,1081.635 A 522.500,522.500 0.00 0,1 1844.6,1107.2 L 1844.6,1107.2 1830.1,1123.3 1815.1,1139.2 1799.7,1154.6 1783.9,1169.6 1767.7,1184.0 1751.1,1197.7 1734.2,1210.7 1717.0,1223.0 1699.6,1234.4 1681.9,1244.8 1664.0,1254.4 1645.9,1262.9 1627.6,1270.3 1609.3,1276.7 1590.8,1281.9 1572.2,1286.1 1553.6,1289.0 1534.9,1290.8 1516.3,1291.3 1497.7,1290.7 1479.1,1288.9 1460.6,1285.9 1442.3,1281.7 1424.0,1276.4 1405.9,1269.9 1388.0,1262.3 1370.3,1253.7 1352.8,1244.0 1335.6,1233.3 1318.6,1221.6 1302.0,1209.1 1285.6,1195.7 1269.7,1181.6 1254.1,1166.8 1238.9,1151.3 1224.1,1135.4 1209.7,1118.9 1195.9,1102.1 1182.5,1085.1  A 522.500,522.500 0.00 0,1 1215.6,1061.7 L 1215.6,1061.7 1227.4,1079.5 1239.8,1097.0 1252.5,1114.2 1265.7,1130.9 1279.2,1147.1 1293.2,1162.6 1307.5,1177.4 1322.2,1191.4 1337.1,1204.6 1352.4,1216.8 1367.9,1228.0 1383.7,1238.2 1399.7,1247.3 1415.9,1255.2 1432.2,1262.0 1448.8,1267.6 1465.4,1271.9 1482.2,1275.0 1499.0,1276.8 1515.9,1277.4 1532.8,1276.7 1549.7,1274.7 1566.6,1271.5 1583.5,1267.0 1600.3,1261.4 1617.0,1254.5 1633.5,1246.6 1649.9,1237.5 1666.2,1227.3 1682.2,1216.1 1698.0,1204.0 1713.6,1191.0 1728.9,1177.2 1743.8,1162.6 1758.4,1147.4 1772.7,1131.6 1786.6,1115.3 1800.0,1098.6 1813.0,1081.6  Z" style="stroke-width: 0.5;  stroke: rgb(0,0,0); fill: rgb(179,177,178);" />
<path d="M 1996.987,1661.277 A 522.500,522.500 0.00 0,1 1983.0,1699.3 L 1983.0,1699.3 1961.2,1690.5 1938.9,1682.1 1916.3,1674.1 1893.4,1666.5 1870.2,1659.5 1846.8,1653.0 1823.1,1647.0 1799.2,1641.7 1775.1,1636.9 1750.8,1632.8 1726.5,1629.4 1702.0,1626.7 1677.4,1624.7 1652.8,1623.5 1628.2,1623.0 1603.6,1623.2 1579.0,1624.2 1554.4,1626.0 1529.9,1628.6 1505.5,1631.9 1481.2,1636.0 1457.1,1640.8 1433.1,1646.4 1409.3,1652.8 1385.7,1659.8 1362.4,1667.6 1339.2,1676.1 1316.4,1685.2 1293.8,1695.0 1271.5,1705.5 1249.6,1716.4 1228.0,1728.0 1206.7,1740.1 1185.9,1752.6 1165.4,1765.6 1145.3,1779.0 1125.7,1792.8 1106.5,1806.8 1087.8,1821.1  A 522.500,522.500 0.00 0,1 1064.2,1788.2 L 1064.2,1788.2 1084.3,1775.1 1104.9,1762.3 1125.8,1749.8 1147.2,1737.5 1168.9,1725.7 1191.0,1714.2 1213.4,1703.2 1236.1,1692.6 1259.2,1682.5 1282.5,1672.9 1306.1,1663.9 1330.0,1655.4 1354.1,1647.5 1378.4,1640.2 1402.9,1633.5 1427.6,1627.5 1452.5,1622.1 1477.5,1617.3 1502.6,1613.2 1527.8,1609.8 1553.1,1607.1 1578.4,1605.0 1603.8,1603.5 1629.2,1602.7 1654.6,1602.6 1680.0,1603.2 1705.4,1604.3 1730.6,1606.1 1755.8,1608.5 1780.8,1611.5 1805.7,1615.1 1830.5,1619.2 1855.0,1623.8 1879.4,1629.0 1903.5,1634.6 1927.3,1640.7 1950.9,1647.2 1974.1,1654.1 1997.0,1661.3  Z" style="stroke-width: 0.5;  stroke: rgb(0,0,0); fill: rgb(179,177,178);" />
<path d="M 1835.183,1900.822 A 522.500,522.500 0.00 0,1 1807.3,1922.5 L 1807.3,1922.5 1795.0,1905.9 1782.3,1889.5 1769.4,1873.6 1756.2,1858.1 1742.8,1843.3 1729.3,1829.2 1715.6,1815.9 1701.9,1803.5 1688.1,1792.1 1674.3,1781.7 1660.6,1772.5 1646.9,1764.3 1633.3,1757.5 1619.8,1751.8 1606.5,1747.5 1593.4,1744.5 1580.4,1742.8 1567.7,1742.5 1555.2,1743.6 1543.0,1746.0 1531.0,1749.8 1519.4,1755.0 1508.1,1761.6 1497.1,1769.4 1486.5,1778.6 1476.2,1788.9 1466.4,1800.6 1456.9,1813.3 1447.8,1827.2 1439.0,1842.1 1430.8,1857.9 1422.9,1874.6 1415.4,1892.2 1408.3,1910.4 1401.7,1929.2 1395.5,1948.5 1389.7,1968.3 1384.3,1988.2 1379.3,2008.4  A 522.500,522.500 0.00 0,1 1345.3,1999.1 L 1345.3,1999.1 1351.7,1979.1 1358.5,1959.3 1365.9,1939.8 1373.6,1920.7 1381.8,1902.0 1390.5,1884.0 1399.6,1866.6 1409.1,1850.0 1419.1,1834.2 1429.5,1819.4 1440.3,1805.6 1451.6,1792.9 1463.2,1781.2 1475.2,1770.8 1487.5,1761.5 1500.2,1753.5 1513.3,1746.7 1526.6,1741.3 1540.3,1737.2 1554.2,1734.4 1568.4,1732.9 1582.9,1732.8 1597.5,1734.0 1612.3,1736.5 1627.3,1740.2 1642.4,1745.3 1657.6,1751.5 1672.9,1759.0 1688.2,1767.6 1703.5,1777.2 1718.8,1787.9 1734.0,1799.5 1749.1,1812.1 1764.0,1825.4 1778.8,1839.4 1793.3,1854.1 1807.6,1869.3 1821.6,1884.9 1835.2,1900.8  Z" style="stroke-width: 0.5;  stroke: rgb(0,0,0); fill: rgb(179,177,178);" />
<path d="M 1953.203,1239.975 A 522.500,522.500 0.00 0,1 1969.0,1269.7 L 1969.0,1269.7 1946.3,1280.7 1923.4,1291.6 1900.1,1302.2 1876.6,1312.7 1852.9,1322.9 1828.9,1332.9 1804.7,1342.7 1780.3,1352.2 1755.7,1361.4 1730.8,1370.3 1705.8,1378.9 1680.6,1387.2 1655.3,1395.2 1629.8,1402.8 1604.1,1410.1 1578.3,1417.0 1552.4,1423.6 1526.4,1429.7 1500.3,1435.6 1474.1,1441.0 1447.8,1446.1 1421.5,1450.8 1395.1,1455.1 1368.7,1459.0 1342.3,1462.5 1315.8,1465.7 1289.4,1468.5 1263.0,1470.9 1236.6,1473.0 1210.3,1474.7 1184.0,1476.1 1157.8,1477.1 1131.8,1477.8 1105.8,1478.2 1079.9,1478.2 1054.2,1478.0 1028.7,1477.5 1003.3,1476.7 978.1,1475.6  A 522.500,522.500 0.00 0,1 980.7,1442.0 L 980.7,1442.0 1005.4,1444.6 1030.3,1446.9 1055.5,1448.8 1080.8,1450.5 1106.3,1451.8 1131.9,1452.7 1157.7,1453.2 1183.6,1453.3 1209.6,1453.0 1235.7,1452.2 1261.8,1451.1 1288.0,1449.4 1314.2,1447.4 1340.4,1444.8 1366.6,1441.8 1392.7,1438.3 1418.8,1434.3 1444.9,1429.9 1470.9,1425.0 1496.8,1419.6 1522.6,1413.8 1548.3,1407.5 1573.8,1400.7 1599.2,1393.5 1624.5,1385.8 1649.5,1377.7 1674.4,1369.2 1699.0,1360.2 1723.5,1350.9 1747.7,1341.2 1771.6,1331.2 1795.3,1320.7 1818.8,1310.0 1842.0,1299.0 1864.8,1287.6 1887.4,1276.0 1909.7,1264.2 1931.6,1252.2 1953.2,1240.0  Z" style="stroke-width: 0.5;  stroke: rgb(0,0,0); fill: rgb(179,177,178);" />
<path d="M 1846.520,1108.937 A 522.500,522.500 0.00 0,1 1870.8,1131.9 L 1870.8,1131.9 1855.0,1147.2 1838.7,1162.2 1822.0,1176.8 1804.9,1190.9 1787.3,1204.5 1769.4,1217.4 1751.2,1229.6 1732.7,1241.1 1713.9,1251.8 1694.8,1261.6 1675.6,1270.5 1656.1,1278.4 1636.5,1285.3 1616.8,1291.2 1596.9,1296.0 1576.9,1299.8 1557.0,1302.4 1536.9,1304.0 1516.9,1304.4 1496.9,1303.7 1477.0,1301.9 1457.1,1298.9 1437.3,1294.9 1417.7,1289.7 1398.2,1283.5 1378.9,1276.2 1359.9,1267.9 1341.0,1258.7 1322.4,1248.4 1304.1,1237.3 1286.1,1225.4 1268.4,1212.6 1251.1,1199.1 1234.2,1185.0 1217.7,1170.2 1201.5,1154.9 1185.9,1139.2 1170.7,1123.1 1156.0,1106.7  A 522.500,522.500 0.00 0,1 1181.9,1085.5 L 1181.9,1085.5 1195.3,1102.6 1209.2,1119.3 1223.6,1135.8 1238.4,1151.8 1253.7,1167.2 1269.3,1182.0 1285.3,1196.1 1301.7,1209.5 1318.4,1222.0 1335.4,1233.7 1352.7,1244.4 1370.2,1254.1 1388.0,1262.8 1405.9,1270.4 1424.1,1276.9 1442.4,1282.2 1460.8,1286.4 1479.4,1289.5 1498.0,1291.3 1516.7,1292.0 1535.4,1291.4 1554.1,1289.7 1572.8,1286.8 1591.5,1282.8 1610.0,1277.6 1628.5,1271.2 1646.8,1263.8 1665.0,1255.4 1683.0,1245.9 1700.8,1235.5 1718.3,1224.2 1735.6,1212.0 1752.5,1199.1 1769.2,1185.4 1785.5,1171.1 1801.4,1156.2 1816.9,1140.8 1831.9,1125.0 1846.5,1108.9  Z" style="stroke-width: 0.5;  stroke: rgb(0,0,0); fill: rgb(179,177,178);" />
<path d="M 1976.304,1285.197 A 522.500,522.500 0.00 0,1 1988.1,1313.6 L 1988.1,1313.6 1964.0,1322.8 1939.7,1331.8 1915.2,1340.6 1890.6,1349.4 1865.8,1358.0 1840.8,1366.4 1815.7,1374.7 1790.4,1382.7 1765.0,1390.6 1739.5,1398.3 1713.8,1405.8 1688.1,1413.1 1662.2,1420.2 1636.2,1427.1 1610.2,1433.7 1584.0,1440.1 1557.8,1446.3 1531.5,1452.2 1505.1,1457.9 1478.7,1463.3 1452.2,1468.5 1425.7,1473.5 1399.2,1478.2 1372.6,1482.7 1346.0,1486.9 1319.5,1490.9 1292.9,1494.6 1266.3,1498.1 1239.8,1501.4 1213.3,1504.4 1186.9,1507.2 1160.5,1509.8 1134.1,1512.1 1107.9,1514.2 1081.7,1516.2 1055.6,1517.9 1029.6,1519.4 1003.7,1520.8 978.0,1521.9  A 522.500,522.500 0.00 0,1 977.6,1491.0 L 977.6,1491.0 1003.0,1491.4 1028.6,1491.5 1054.3,1491.3 1080.2,1490.9 1106.2,1490.2 1132.3,1489.3 1158.5,1488.1 1184.7,1486.5 1211.1,1484.7 1237.5,1482.6 1264.0,1480.1 1290.4,1477.3 1316.9,1474.2 1343.5,1470.8 1370.0,1467.1 1396.5,1463.0 1422.9,1458.5 1449.3,1453.8 1475.7,1448.7 1502.0,1443.3 1528.3,1437.5 1554.4,1431.4 1580.5,1425.0 1606.4,1418.3 1632.2,1411.3 1657.9,1404.0 1683.5,1396.3 1708.9,1388.4 1734.2,1380.2 1759.3,1371.7 1784.2,1363.0 1809.0,1354.0 1833.5,1344.8 1857.9,1335.3 1882.0,1325.6 1905.9,1315.8 1929.6,1305.7 1953.1,1295.5 1976.3,1285.2  Z" style="stroke-width: 0.5;  stroke: rgb(0,0,0); fill: rgb(179,177,178);" />
<path d="M 1967.216,1733.913 A 522.500,522.500 0.00 0,1 1953.5,1759.5 L 1953.5,1759.5 1934.0,1748.7 1914.2,1738.3 1894.0,1728.3 1873.5,1719.0 1852.7,1710.2 1831.7,1702.1 1810.5,1694.8 1789.1,1688.2 1767.7,1682.4 1746.2,1677.5 1724.6,1673.6 1703.0,1670.5 1681.5,1668.4 1660.1,1667.3 1638.7,1667.2 1617.5,1668.1 1596.5,1670.1 1575.6,1673.1 1554.9,1677.1 1534.5,1682.2 1514.4,1688.3 1494.6,1695.5 1475.1,1703.6 1455.9,1712.7 1437.1,1722.8 1418.7,1733.9 1400.6,1745.8 1383.0,1758.6 1365.9,1772.3 1349.1,1786.7 1332.9,1801.8 1317.1,1817.6 1301.9,1834.1 1287.1,1851.1 1272.8,1868.5 1259.1,1886.5 1245.9,1904.7 1233.3,1923.2 1221.2,1941.9  A 522.500,522.500 0.00 0,1 1197.1,1925.7 L 1197.1,1925.7 1210.3,1907.5 1224.2,1889.5 1238.5,1871.7 1253.4,1854.3 1268.8,1837.2 1284.7,1820.7 1301.2,1804.7 1318.1,1789.2 1335.4,1774.4 1353.2,1760.3 1371.5,1747.0 1390.2,1734.4 1409.3,1722.6 1428.7,1711.7 1448.6,1701.7 1468.8,1692.5 1489.3,1684.3 1510.1,1677.1 1531.2,1670.8 1552.5,1665.5 1574.1,1661.1 1595.9,1657.8 1617.9,1655.4 1640.0,1654.0 1662.2,1653.5 1684.5,1654.1 1706.9,1655.5 1729.3,1657.8 1751.7,1661.1 1774.1,1665.2 1796.3,1670.1 1818.5,1675.8 1840.5,1682.3 1862.3,1689.4 1883.9,1697.2 1905.3,1705.7 1926.3,1714.6 1946.9,1724.1 1967.2,1733.9  Z" style="stroke-width: 0.5;  stroke: rgb(0,0,0); fill: rgb(179,177,178);" />
<path d="M 1937.762,1214.745 A 522.500,522.500 0.00 0,1 1952.6,1239.0 L 1952.6,1239.0 1931.1,1251.2 1909.2,1263.3 1887.0,1275.2 1864.4,1286.8 1841.6,1298.1 1818.5,1309.2 1795.1,1319.9 1771.4,1330.3 1747.4,1340.4 1723.3,1350.1 1698.8,1359.4 1674.2,1368.3 1649.4,1376.8 1624.3,1384.9 1599.1,1392.5 1573.7,1399.7 1548.2,1406.4 1522.6,1412.7 1496.8,1418.5 1470.9,1423.8 1444.9,1428.6 1418.8,1433.0 1392.7,1436.8 1366.6,1440.2 1340.4,1443.1 1314.2,1445.6 1288.0,1447.5 1261.9,1449.0 1235.8,1450.1 1209.7,1450.7 1183.7,1450.9 1157.9,1450.6 1132.1,1449.9 1106.5,1448.9 1081.0,1447.4 1055.8,1445.6 1030.7,1443.5 1005.8,1441.0 981.2,1438.3  A 522.500,522.500 0.00 0,1 985.3,1410.0 L 985.3,1410.0 1009.4,1414.1 1033.8,1417.8 1058.5,1421.1 1083.3,1424.1 1108.4,1426.6 1133.6,1428.7 1159.0,1430.4 1184.6,1431.6 1210.2,1432.3 1236.0,1432.5 1261.8,1432.2 1287.6,1431.4 1313.5,1430.0 1339.4,1428.1 1365.3,1425.7 1391.1,1422.7 1416.9,1419.1 1442.7,1415.0 1468.3,1410.3 1493.8,1405.1 1519.3,1399.3 1544.5,1392.9 1569.7,1386.1 1594.6,1378.7 1619.4,1370.7 1643.9,1362.3 1668.2,1353.3 1692.3,1343.9 1716.2,1334.1 1739.8,1323.7 1763.1,1313.0 1786.1,1301.8 1808.8,1290.3 1831.1,1278.4 1853.2,1266.2 1874.9,1253.7 1896.2,1240.9 1917.2,1227.9 1937.8,1214.7  Z" style="stroke-width: 0.5;  stroke: rgb(0,0,0); fill: rgb(179,177,178);" />
<path d="M 2013.811,1405.110 A 522.500,522.500 0.00 0,1 2018.1,1432.5 L 2018.1,1432.5 1991.9,1436.0 1965.7,1439.5 1939.4,1443.1 1913.1,1446.8 1886.8,1450.5 1860.4,1454.3 1834.0,1458.3 1807.5,1462.3 1781.1,1466.4 1754.6,1470.5 1728.1,1474.8 1701.6,1479.2 1675.1,1483.7 1648.6,1488.2 1622.1,1492.9 1595.6,1497.6 1569.1,1502.4 1542.6,1507.4 1516.1,1512.4 1489.7,1517.5 1463.2,1522.7 1436.8,1528.0 1410.4,1533.4 1384.1,1538.9 1357.7,1544.5 1331.4,1550.2 1305.2,1555.9 1279.0,1561.7 1252.8,1567.7 1226.7,1573.7 1200.6,1579.7 1174.6,1585.9 1148.6,1592.1 1122.7,1598.4 1096.8,1604.7 1071.1,1611.1 1045.3,1617.6 1019.7,1624.1 994.1,1630.7  A 522.500,522.500 0.00 0,1 987.9,1603.7 L 987.9,1603.7 1014.1,1598.4 1040.3,1593.1 1066.6,1587.8 1092.8,1582.5 1119.0,1577.2 1145.3,1572.0 1171.6,1566.7 1197.8,1561.5 1224.1,1556.3 1250.4,1551.0 1276.7,1545.8 1303.0,1540.6 1329.3,1535.5 1355.6,1530.3 1381.9,1525.1 1408.2,1520.0 1434.6,1514.8 1460.9,1509.7 1487.2,1504.6 1513.6,1499.5 1539.9,1494.4 1566.2,1489.4 1592.6,1484.3 1618.9,1479.3 1645.3,1474.2 1671.6,1469.2 1697.9,1464.2 1724.3,1459.2 1750.6,1454.2 1777.0,1449.3 1803.3,1444.3 1829.6,1439.4 1855.9,1434.4 1882.3,1429.5 1908.6,1424.6 1934.9,1419.7 1961.2,1414.8 1987.5,1410.0 2013.8,1405.1  Z" style="stroke-width: 0.5;  stroke: rgb(0,0,0); fill: rgb(179,177,178);" />
<path d="M 1782.513,1060.463 A 522.500,522.500 0.00 0,1 1805.3,1076.0 L 1805.3,1076.0 1792.7,1093.2 1779.6,1110.1 1766.0,1126.6 1752.1,1142.6 1737.8,1158.1 1723.2,1172.9 1708.2,1186.9 1693.0,1200.1 1677.5,1212.5 1661.7,1223.9 1645.8,1234.3 1629.7,1243.6 1613.4,1251.8 1596.9,1258.8 1580.4,1264.7 1563.8,1269.3 1547.1,1272.7 1530.4,1274.9 1513.7,1275.8 1497.0,1275.4 1480.4,1273.7 1463.8,1270.7 1447.3,1266.5 1430.9,1261.1 1414.7,1254.5 1398.6,1246.6 1382.8,1237.7 1367.1,1227.6 1351.7,1216.5 1336.5,1204.3 1321.6,1191.3 1307.0,1177.3 1292.7,1162.6 1278.8,1147.1 1265.3,1130.9 1252.1,1114.3 1239.4,1097.1 1227.1,1079.6 1215.3,1061.9  A 522.500,522.500 0.00 0,1 1238.6,1047.6 L 1238.6,1047.6 1249.4,1065.7 1260.6,1083.7 1272.2,1101.3 1284.3,1118.4 1296.7,1135.0 1309.4,1150.9 1322.5,1166.0 1335.9,1180.4 1349.6,1193.8 1363.6,1206.3 1377.8,1217.8 1392.3,1228.2 1406.9,1237.4 1421.8,1245.4 1436.7,1252.3 1451.9,1257.8 1467.1,1262.1 1482.4,1265.1 1497.8,1266.8 1513.2,1267.2 1528.7,1266.2 1544.1,1263.9 1559.6,1260.4 1574.9,1255.5 1590.2,1249.4 1605.4,1242.1 1620.5,1233.6 1635.4,1223.9 1650.1,1213.1 1664.7,1201.3 1679.0,1188.5 1693.1,1174.8 1706.9,1160.3 1720.4,1145.0 1733.6,1129.0 1746.4,1112.5 1758.8,1095.5 1770.9,1078.1 1782.5,1060.5  Z" style="stroke-width: 0.5;  stroke: rgb(0,0,0); fill: rgb(179,177,178);" />
<path d="M 1805.809,1923.659 A 522.500,522.500 0.00 0,1 1784.5,1938.3 L 1784.5,1938.3 1773.1,1921.1 1761.5,1904.2 1749.6,1887.7 1737.5,1871.7 1725.2,1856.3 1712.8,1841.6 1700.4,1827.8 1687.8,1814.8 1675.3,1802.8 1662.7,1791.9 1650.2,1782.1 1637.8,1773.5 1625.5,1766.1 1613.4,1760.0 1601.4,1755.2 1589.6,1751.8 1577.9,1749.8 1566.6,1749.1 1555.4,1749.9 1544.6,1752.0 1534.0,1755.6 1523.8,1760.6 1513.8,1766.9 1504.2,1774.6 1495.0,1783.6 1486.1,1793.9 1477.5,1805.4 1469.4,1818.2 1461.6,1832.0 1454.2,1846.9 1447.2,1862.7 1440.6,1879.5 1434.4,1897.1 1428.6,1915.4 1423.1,1934.3 1418.1,1953.7 1413.4,1973.6 1409.2,1993.6 1405.2,2013.8  A 522.500,522.500 0.00 0,1 1380.0,2008.5 L 1380.0,2008.5 1385.0,1988.4 1390.3,1968.4 1396.1,1948.7 1402.3,1929.4 1408.9,1910.6 1415.9,1892.3 1423.3,1874.8 1431.2,1858.1 1439.4,1842.2 1448.1,1827.4 1457.1,1813.5 1466.6,1800.8 1476.4,1789.2 1486.6,1778.8 1497.2,1769.7 1508.1,1761.8 1519.3,1755.3 1530.9,1750.2 1542.8,1746.4 1554.9,1743.9 1567.4,1742.9 1580.0,1743.2 1592.9,1744.9 1606.0,1748.0 1619.3,1752.4 1632.7,1758.0 1646.2,1765.0 1659.8,1773.1 1673.5,1782.4 1687.2,1792.8 1700.9,1804.3 1714.5,1816.8 1728.1,1830.1 1741.6,1844.2 1754.9,1859.1 1768.0,1874.6 1780.9,1890.6 1793.5,1907.0 1805.8,1923.7  Z" style="stroke-width: 0.5;  stroke: rgb(0,0,0); fill: rgb(179,177,178);" />
<path d="M 1988.301,1314.073 A 522.500,522.500 0.00 0,1 1995.7,1334.7 L 1995.7,1334.7 1970.9,1342.8 1946.0,1350.9 1921.0,1358.9 1895.9,1366.8 1870.7,1374.6 1845.3,1382.3 1819.8,1389.8 1794.2,1397.2 1768.5,1404.5 1742.8,1411.6 1716.9,1418.6 1690.9,1425.4 1664.9,1432.0 1638.8,1438.5 1612.6,1444.9 1586.3,1451.0 1560.0,1457.0 1533.7,1462.8 1507.3,1468.5 1480.8,1473.9 1454.4,1479.2 1427.9,1484.3 1401.3,1489.2 1374.8,1494.0 1348.2,1498.5 1321.7,1502.9 1295.1,1507.1 1268.6,1511.1 1242.1,1515.0 1215.6,1518.6 1189.1,1522.1 1162.7,1525.5 1136.3,1528.6 1110.0,1531.7 1083.7,1534.5 1057.5,1537.2 1031.4,1539.8 1005.4,1542.2 979.4,1544.5  A 522.500,522.500 0.00 0,1 978.0,1522.6 L 978.0,1522.6 1003.8,1521.4 1029.6,1520.1 1055.6,1518.5 1081.7,1516.7 1107.9,1514.8 1134.2,1512.6 1160.5,1510.2 1186.9,1507.7 1213.4,1504.8 1239.9,1501.8 1266.4,1498.5 1293.0,1495.0 1319.5,1491.2 1346.1,1487.2 1372.7,1483.0 1399.2,1478.5 1425.7,1473.8 1452.2,1468.8 1478.7,1463.6 1505.1,1458.2 1531.5,1452.5 1557.8,1446.5 1584.0,1440.4 1610.2,1434.0 1636.3,1427.3 1662.3,1420.5 1688.1,1413.4 1713.9,1406.1 1739.6,1398.6 1765.1,1390.9 1790.5,1383.0 1815.8,1375.0 1840.9,1366.7 1865.9,1358.3 1890.7,1349.7 1915.4,1341.0 1939.9,1332.2 1964.2,1323.2 1988.3,1314.1  Z" style="stroke-width: 0.5;  stroke: rgb(0,0,0); fill: rgb(179,177,178);" />
<path d="M 1969.043,1269.772 A 522.500,522.500 0.00 0,1 1975.9,1284.2 L 1975.9,1284.2 1952.7,1294.6 1929.2,1304.8 1905.6,1314.9 1881.7,1324.8 1857.5,1334.5 1833.2,1344.0 1808.7,1353.3 1784.0,1362.3 1759.1,1371.1 1734.0,1379.6 1708.7,1387.9 1683.3,1395.9 1657.8,1403.5 1632.1,1410.9 1606.2,1418.0 1580.3,1424.8 1554.3,1431.2 1528.1,1437.3 1501.9,1443.1 1475.6,1448.6 1449.2,1453.7 1422.8,1458.5 1396.4,1463.0 1369.9,1467.1 1343.4,1470.9 1316.9,1474.3 1290.4,1477.5 1263.9,1480.3 1237.5,1482.7 1211.1,1484.9 1184.7,1486.8 1158.4,1488.3 1132.2,1489.6 1106.1,1490.5 1080.1,1491.2 1054.3,1491.7 1028.6,1491.8 1003.0,1491.8 977.6,1491.5  A 522.500,522.500 0.00 0,1 978.0,1476.3 L 978.0,1476.3 1003.2,1477.3 1028.6,1478.1 1054.2,1478.6 1079.9,1478.8 1105.8,1478.7 1131.8,1478.3 1157.8,1477.6 1184.0,1476.5 1210.3,1475.2 1236.6,1473.4 1263.0,1471.3 1289.4,1468.9 1315.8,1466.0 1342.3,1462.8 1368.7,1459.3 1395.1,1455.3 1421.5,1451.0 1447.8,1446.3 1474.1,1441.2 1500.3,1435.7 1526.4,1429.9 1552.4,1423.7 1578.3,1417.1 1604.1,1410.2 1629.8,1402.9 1655.3,1395.3 1680.6,1387.3 1705.8,1379.0 1730.8,1370.4 1755.7,1361.5 1780.3,1352.3 1804.7,1342.8 1828.9,1333.0 1852.9,1323.0 1876.6,1312.7 1900.1,1302.3 1923.4,1291.6 1946.3,1280.8 1969.0,1269.8  Z" style="stroke-width: 0.5;  stroke: rgb(0,0,0); fill: rgb(179,177,178);" />
<path d="M 1852.207,1885.949 A 522.500,522.500 0.00 0,1 1840.6,1896.2 L 1840.6,1896.2 1826.7,1880.4 1812.5,1865.0 1797.9,1849.9 1783.1,1835.4 1768.0,1821.5 1752.7,1808.3 1737.2,1795.9 1721.6,1784.4 1706.0,1773.8 1690.2,1764.3 1674.5,1755.8 1658.8,1748.4 1643.1,1742.3 1627.6,1737.3 1612.1,1733.6 1596.8,1731.1 1581.6,1729.9 1566.6,1730.1 1551.9,1731.6 1537.3,1734.3 1523.1,1738.4 1509.1,1743.8 1495.5,1750.5 1482.1,1758.5 1469.1,1767.6 1456.5,1778.0 1444.2,1789.5 1432.3,1802.2 1420.8,1815.9 1409.8,1830.5 1399.1,1846.1 1388.9,1862.6 1379.1,1879.8 1369.8,1897.7 1360.9,1916.2 1352.4,1935.2 1344.4,1954.6 1336.9,1974.2 1329.9,1994.0  A 522.500,522.500 0.00 0,0 1344.6,1998.8 L 1344.6,1998.8 1351.0,1978.8 1358.0,1959.0 1365.4,1939.4 1373.3,1920.2 1381.6,1901.4 1390.4,1883.2 1399.7,1865.7 1409.4,1849.0 1419.6,1833.1 1430.2,1818.1 1441.3,1804.0 1452.8,1791.1 1464.7,1779.2 1477.1,1768.4 1489.8,1758.9 1502.9,1750.5 1516.4,1743.4 1530.2,1737.6 1544.3,1733.1 1558.7,1729.9 1573.4,1728.0 1588.4,1727.4 1603.6,1728.1 1619.0,1730.1 1634.5,1733.4 1650.3,1737.9 1666.1,1743.6 1682.0,1750.5 1698.0,1758.5 1714.0,1767.6 1730.0,1777.7 1745.9,1788.7 1761.7,1800.7 1777.4,1813.4 1792.9,1826.8 1808.2,1840.9 1823.2,1855.5 1837.9,1870.6 1852.2,1885.9  Z" style="stroke-width: 0.5;  stroke: rgb(0,0,0); fill: rgb(179,177,178);" />
<path d="M 1934.236,1790.595 A 522.500,522.500 0.00 0,1 1926.4,1802.0 L 1926.4,1802.0 1908.3,1789.5 1889.8,1777.4 1871.0,1765.8 1851.8,1754.8 1832.3,1744.3 1812.6,1734.5 1792.7,1725.5 1772.6,1717.3 1752.4,1709.9 1732.1,1703.5 1711.7,1698.0 1691.4,1693.4 1671.0,1689.9 1650.7,1687.5 1630.4,1686.1 1610.3,1685.8 1590.3,1686.6 1570.5,1688.5 1550.9,1691.5 1531.5,1695.6 1512.4,1700.8 1493.5,1707.2 1474.9,1714.6 1456.7,1723.1 1438.7,1732.6 1421.2,1743.1 1404.0,1754.6 1387.3,1767.0 1370.9,1780.4 1355.0,1794.5 1339.5,1809.5 1324.5,1825.2 1310.0,1841.5 1296.0,1858.5 1282.5,1876.0 1269.5,1893.9 1257.0,1912.2 1245.0,1930.7 1233.6,1949.5  A 522.500,522.500 0.00 0,1 1221.8,1942.3 L 1221.8,1942.3 1233.8,1923.7 1246.3,1905.4 1259.3,1887.3 1272.9,1869.6 1287.0,1852.3 1301.6,1835.5 1316.7,1819.4 1332.2,1803.8 1348.3,1789.0 1364.7,1775.0 1381.6,1761.8 1398.9,1749.5 1416.7,1738.0 1434.8,1727.6 1453.2,1718.1 1472.0,1709.6 1491.1,1702.1 1510.5,1695.8 1530.1,1690.4 1550.0,1686.2 1570.2,1683.1 1590.5,1681.0 1611.0,1680.0 1631.6,1680.1 1652.3,1681.3 1673.1,1683.5 1693.9,1686.7 1714.7,1690.9 1735.6,1696.1 1756.3,1702.2 1777.0,1709.2 1797.5,1717.0 1817.9,1725.6 1838.0,1735.0 1857.9,1745.0 1877.5,1755.7 1896.8,1766.9 1915.7,1778.5 1934.2,1790.6  Z" style="stroke-width: 0.5;  stroke: rgb(0,0,0); fill: rgb(179,177,178);" />
<path d="M 1871.630,1132.716 A 522.500,522.500 0.00 0,1 1880.4,1141.8 L 1880.4,1141.8 1864.1,1156.8 1847.4,1171.5 1830.1,1185.7 1812.5,1199.5 1794.5,1212.7 1776.1,1225.3 1757.4,1237.2 1738.4,1248.4 1719.1,1258.8 1699.5,1268.3 1679.7,1276.9 1659.8,1284.6 1639.7,1291.3 1619.4,1297.0 1599.0,1301.7 1578.6,1305.3 1558.1,1307.9 1537.6,1309.3 1517.0,1309.7 1496.5,1309.0 1476.1,1307.1 1455.7,1304.2 1435.5,1300.2 1415.3,1295.2 1395.3,1289.0 1375.5,1281.9 1356.0,1273.8 1336.6,1264.7 1317.5,1254.7 1298.7,1243.8 1280.2,1232.1 1262.0,1219.6 1244.2,1206.4 1226.7,1192.5 1209.7,1178.0 1193.1,1163.0 1176.9,1147.6 1161.2,1131.7 1146.0,1115.7  A 522.500,522.500 0.00 0,1 1155.5,1107.2 L 1155.5,1107.2 1170.2,1123.6 1185.4,1139.7 1201.1,1155.4 1217.2,1170.7 1233.8,1185.4 1250.7,1199.5 1268.1,1213.0 1285.8,1225.8 1303.8,1237.7 1322.2,1248.8 1340.8,1259.0 1359.7,1268.3 1378.8,1276.6 1398.1,1283.8 1417.6,1290.1 1437.3,1295.2 1457.1,1299.3 1477.0,1302.2 1497.0,1304.1 1517.0,1304.8 1537.0,1304.4 1557.1,1302.8 1577.1,1300.2 1597.1,1296.5 1617.0,1291.6 1636.8,1285.8 1656.5,1278.9 1676.0,1271.0 1695.3,1262.1 1714.4,1252.4 1733.2,1241.7 1751.8,1230.3 1770.0,1218.1 1788.0,1205.2 1805.5,1191.6 1822.7,1177.5 1839.5,1163.0 1855.8,1148.0 1871.6,1132.7  Z" style="stroke-width: 0.5;  stroke: rgb(0,0,0); fill: rgb(179,177,178);" />
<path d="M 1889.968,1152.248 A 522.500,522.500 0.00 0,1 1896.1,1159.3 L 1896.1,1159.3 1879.0,1173.6 1861.4,1187.7 1843.4,1201.3 1825.0,1214.5 1806.1,1227.1 1786.9,1239.1 1767.4,1250.5 1747.6,1261.1 1727.5,1270.9 1707.1,1280.0 1686.6,1288.1 1665.8,1295.4 1644.9,1301.7 1623.9,1307.1 1602.7,1311.4 1581.5,1314.8 1560.2,1317.1 1538.9,1318.4 1517.5,1318.7 1496.2,1317.8 1475.0,1316.0 1453.8,1313.1 1432.8,1309.2 1411.9,1304.2 1391.1,1298.2 1370.5,1291.3 1350.1,1283.4 1330.0,1274.6 1310.1,1264.9 1290.5,1254.4 1271.2,1243.0 1252.2,1230.9 1233.6,1218.1 1215.4,1204.7 1197.6,1190.7 1180.2,1176.2 1163.2,1161.2 1146.8,1145.9 1130.8,1130.3  A 522.500,522.500 0.00 0,1 1137.5,1123.7 L 1137.5,1123.7 1153.1,1139.6 1169.2,1155.1 1185.8,1170.3 1202.9,1185.0 1220.4,1199.3 1238.3,1212.9 1256.5,1225.9 1275.2,1238.2 1294.1,1249.7 1313.4,1260.4 1332.9,1270.3 1352.7,1279.2 1372.8,1287.2 1393.0,1294.2 1413.5,1300.3 1434.1,1305.3 1454.8,1309.3 1475.6,1312.2 1496.5,1314.1 1517.5,1314.9 1538.5,1314.6 1559.5,1313.3 1580.5,1310.9 1601.4,1307.4 1622.2,1302.9 1642.9,1297.4 1663.5,1291.0 1684.0,1283.6 1704.2,1275.2 1724.2,1266.0 1744.0,1255.9 1763.5,1245.1 1782.7,1233.5 1801.6,1221.3 1820.1,1208.4 1838.2,1195.0 1855.9,1181.1 1873.2,1166.9 1890.0,1152.2  Z" style="stroke-width: 0.5;  stroke: rgb(0,0,0); fill: rgb(179,177,178);" />
<path d="M 1881.179,1142.636 A 522.500,522.500 0.00 0,1 1887.4,1149.4 L 1887.4,1149.4 1870.7,1164.1 1853.6,1178.5 1836.0,1192.5 1818.0,1206.0 1799.6,1219.0 1780.9,1231.3 1761.8,1243.0 1742.4,1254.0 1722.7,1264.1 1702.8,1273.5 1682.7,1281.9 1662.3,1289.4 1641.8,1296.0 1621.2,1301.6 1600.5,1306.1 1579.6,1309.7 1558.8,1312.1 1537.9,1313.6 1516.9,1313.9 1496.1,1313.2 1475.2,1311.4 1454.5,1308.5 1433.8,1304.6 1413.3,1299.6 1392.9,1293.6 1372.7,1286.6 1352.7,1278.6 1333.0,1269.7 1313.5,1259.9 1294.3,1249.2 1275.3,1237.7 1256.8,1225.4 1238.5,1212.4 1220.7,1198.8 1203.2,1184.6 1186.2,1169.8 1169.7,1154.6 1153.6,1139.1 1138.0,1123.2  A 522.500,522.500 0.00 0,1 1144.7,1116.9 L 1144.7,1116.9 1159.9,1133.0 1175.7,1148.8 1191.9,1164.2 1208.6,1179.1 1225.7,1193.5 1243.2,1207.4 1261.1,1220.5 1279.3,1233.0 1297.9,1244.7 1316.8,1255.5 1335.9,1265.5 1355.3,1274.6 1375.0,1282.6 1394.9,1289.8 1414.9,1295.8 1435.1,1300.9 1455.4,1304.9 1475.8,1307.8 1496.4,1309.6 1516.9,1310.3 1537.5,1309.9 1558.1,1308.4 1578.6,1305.9 1599.1,1302.3 1619.5,1297.6 1639.8,1291.9 1660.0,1285.2 1680.0,1277.5 1699.8,1268.9 1719.4,1259.4 1738.8,1249.0 1757.8,1237.9 1776.6,1226.0 1795.0,1213.4 1813.1,1200.2 1830.8,1186.4 1848.0,1172.2 1864.8,1157.6 1881.2,1142.6  Z" style="stroke-width: 0.5;  stroke: rgb(0,0,0); fill: rgb(179,177,178);" />
<path d="M 1903.677,1168.261 A 522.500,522.500 0.00 0,1 1909.2,1175.1 L 1909.2,1175.1 1891.4,1188.8 1873.2,1202.3 1854.5,1215.3 1835.4,1227.9 1815.9,1239.9 1796.1,1251.3 1776.0,1262.1 1755.5,1272.1 1734.8,1281.4 1713.9,1289.9 1692.7,1297.6 1671.4,1304.4 1649.9,1310.2 1628.3,1315.2 1606.6,1319.1 1584.9,1322.1 1563.0,1324.1 1541.2,1325.1 1519.4,1325.0 1497.6,1324.0 1475.9,1321.9 1454.2,1318.8 1432.7,1314.7 1411.3,1309.7 1390.1,1303.6 1369.1,1296.6 1348.3,1288.7 1327.7,1279.9 1307.4,1270.3 1287.4,1259.8 1267.7,1248.6 1248.3,1236.6 1229.3,1223.9 1210.6,1210.6 1192.4,1196.8 1174.6,1182.5 1157.3,1167.7 1140.4,1152.5 1124.1,1137.1  A 522.500,522.500 0.00 0,1 1130.2,1130.9 L 1130.2,1130.9 1146.2,1146.5 1162.8,1161.9 1179.8,1176.8 1197.3,1191.4 1215.2,1205.5 1233.5,1218.9 1252.2,1231.8 1271.3,1243.9 1290.7,1255.4 1310.4,1266.0 1330.4,1275.8 1350.7,1284.7 1371.2,1292.7 1391.9,1299.8 1412.8,1305.9 1433.9,1311.1 1455.1,1315.2 1476.5,1318.3 1497.9,1320.4 1519.4,1321.4 1540.9,1321.4 1562.5,1320.4 1584.0,1318.3 1605.5,1315.3 1626.9,1311.2 1648.2,1306.1 1669.4,1300.1 1690.5,1293.2 1711.3,1285.4 1732.0,1276.7 1752.4,1267.2 1772.5,1256.9 1792.4,1246.0 1811.9,1234.3 1831.1,1222.0 1849.9,1209.2 1868.3,1196.0 1886.2,1182.3 1903.7,1168.3  Z" style="stroke-width: 0.5;  stroke: rgb(0,0,0); fill: rgb(179,177,178);" />
<path d="M 1774.465,1055.393 A 522.500,522.500 0.00 0,1 1781.6,1059.9 L 1781.6,1059.9 1770.0,1077.5 1758.0,1094.9 1745.6,1112.0 1732.8,1128.5 1719.7,1144.5 1706.2,1159.8 1692.4,1174.4 1678.4,1188.1 1664.1,1200.9 1649.6,1212.8 1634.9,1223.6 1620.0,1233.2 1605.0,1241.8 1589.8,1249.1 1574.6,1255.3 1559.2,1260.1 1543.8,1263.7 1528.4,1266.0 1513.0,1267.0 1497.6,1266.6 1482.2,1265.0 1466.9,1262.0 1451.7,1257.7 1436.6,1252.1 1421.6,1245.3 1406.8,1237.3 1392.2,1228.1 1377.8,1217.7 1363.6,1206.3 1349.6,1193.8 1335.9,1180.3 1322.5,1166.0 1309.4,1150.8 1296.7,1134.9 1284.3,1118.3 1272.3,1101.2 1260.6,1083.6 1249.4,1065.7 1238.7,1047.5  A 522.500,522.500 0.00 0,1 1246.0,1043.4 L 1246.0,1043.4 1256.4,1061.7 1267.3,1079.7 1278.6,1097.4 1290.3,1114.7 1302.3,1131.4 1314.7,1147.4 1327.4,1162.7 1340.5,1177.2 1353.8,1190.7 1367.3,1203.3 1381.2,1214.9 1395.2,1225.3 1409.5,1234.6 1423.9,1242.7 1438.4,1249.6 1453.2,1255.2 1468.0,1259.5 1482.9,1262.5 1497.8,1264.1 1512.9,1264.5 1527.9,1263.5 1542.9,1261.2 1557.9,1257.5 1572.9,1252.6 1587.7,1246.4 1602.5,1239.0 1617.1,1230.3 1631.6,1220.6 1646.0,1209.7 1660.1,1197.7 1674.0,1184.8 1687.7,1170.9 1701.1,1156.2 1714.2,1140.7 1727.0,1124.6 1739.5,1107.9 1751.5,1090.7 1763.2,1073.2 1774.5,1055.4  Z" style="stroke-width: 0.5;  stroke: rgb(0,0,0); fill: rgb(179,177,178);" />
</g>
<g id="plot0">
<g id="plot0-axis">
</g>
<line x1='2243.2' y1='1600.7' x2='2243.2' y2='1600.7' style="stroke-width:14.0;stroke:rgb(0,0,0);stroke-linecap:round;fill:none;" />
<line x1='2243.2' y1='1600.7' x2='2282.8' y2='1606.1' style="stroke-width:14.0;stroke:rgb(0,0,0);stroke-linecap:round;fill:none;" />
<line x1='2282.8' y1='1606.1' x2='2282.8' y2='1606.1' style="stroke-width:14.0;stroke:rgb(0,0,0);stroke-linecap:round;fill:none;" />
<text x="2299.3" y="1631.0" font-size="46.8px" font-family="CMUBright-Roman" style="text-anchor:start;fill:rgb(255,38,78);" transform="rotate(7.7,2299.3,1631.0)" >HistomissSECH87<tspan baseline-shift="-40%" font-size="90%">s</tspan>02522</text>
</g>
<defs>
<pattern id="hline" width="10" height="10" patternTransform="rotate(0 0 0)" patternUnits="userSpaceOnUse"><line x1="0" y1="0" x2="10" y2="0" style="stroke:black;stroke-width:5" /></pattern>
<pattern id="vline" width="10" height="10" patternTransform="rotate(0 0 0)" patternUnits="userSpaceOnUse"><line x1="0" y1="0" x2="0" y2="10" style="stroke:black;stroke-width:5" /></pattern>
<pattern id="hline-sparse" width="10" height="10" patternTransform="rotate(0 0 0)" patternUnits="userSpaceOnUse"><line x1="0" y1="0" x2="10" y2="0" style="stroke:black;stroke-width:2" /></pattern>
<pattern id="checker" width="10" height="10" patternTransform="rotate(45 0 0)" patternUnits="userSpaceOnUse"><line x1="0" y1="0" x2="10" y2="0" style="stroke:black;stroke-width:5" /><line x1="0" y1="0" x2="0" y2="10" style="stroke:black;stroke-width:4" /></pattern>
<pattern id="vline-sparse" width="10" height="10" patternTransform="rotate(0 0 0)" patternUnits="userSpaceOnUse"><line x1="0" y1="0" x2="0" y2="10" style="stroke:black;stroke-width:2" /></pattern>
<pattern id="checker" width="10" height="10" patternTransform="rotate(45 0 0)" patternUnits="userSpaceOnUse"><line x1="0" y1="0" x2="10" y2="0" style="stroke:black;stroke-width:2" /><line x1="0" y1="0" x2="0" y2="10" style="stroke:black;stroke-width:2" /></pattern>
</defs>
</svg>
