<?xml version="1.0" encoding="utf-8" standalone="no"?>
<!DOCTYPE svg PUBLIC "-//W3C//DTD SVG 1.1//EN" "http://www.w3.org/Graphics/SVG/1.1/DTD/svg11.dtd">
<svg width="3000px" height="3000px" version="1.1" xmlns="http://www.w3.org/2000/svg" xmlns:xlink="http://www.w3.org/1999/xlink">
<g id="bg">
<rect x="0" y="0" width="3000px" height="3000px" style="fill:rgb(255,255,255);"/>
</g>
<g id="ideograms">
<path d="M1500.000,950.000 A550.000,550.000 40.000 0,1 1610.398,2038.806 L1650.543,2234.736 A750.000,750.000 0.000 0,0 1500.000,750.000 Z" style="stroke-width:2.0;stroke:rgb(0,0,0);stroke-linecap:round;fill:rgb(179,177,178);" />
<text x="2470.0" y="1401.6" font-size="46.8px" font-family="CMUBright-Roman" style="text-anchor:middle;fill:rgb(0,0,0);" transform="rotate(444.2,2470.0,1401.6)" >HistoohiSECH96<tspan baseline-shift="-40%" font-size="90%">1</tspan></text>
<line x1='1587.4' y1='755.1' x2='1588.8' y2='743.2' style="stroke-width:8.0;stroke:rgb(150,150,150);stroke-linecap:round;fill:none;" />
<text x="1604.1" y="733.0" font-size="41.6px" font-family="CMUBright-Roman" style="text-anchor:start;fill:rgb(150,150,150);" transform="rotate(276.7,1604.1,733.0)" >900 kb</text>
<line x1='1681.9' y1='772.4' x2='1684.8' y2='760.8' style="stroke-width:8.0;stroke:rgb(150,150,150);stroke-linecap:round;fill:none;" />
<line x1='1773.5' y1='801.6' x2='1777.9' y2='790.5' style="stroke-width:8.0;stroke:rgb(150,150,150);stroke-linecap:round;fill:none;" />
<line x1='1860.6' y1='842.4' x2='1866.3' y2='831.8' style="stroke-width:8.0;stroke:rgb(150,150,150);stroke-linecap:round;fill:none;" />
<line x1='1941.7' y1='893.9' x2='1948.8' y2='884.2' style="stroke-width:8.0;stroke:rgb(150,150,150);stroke-linecap:round;fill:none;" />
<line x1='2015.6' y1='955.3' x2='2023.9' y2='946.6' style="stroke-width:8.0;stroke:rgb(150,150,150);stroke-linecap:round;fill:none;" />
<text x="2042.2" y="947.6" font-size="41.6px" font-family="CMUBright-Roman" style="text-anchor:start;fill:rgb(150,150,150);" transform="rotate(313.4,2042.2,947.6)" >950 kb</text>
<line x1='2081.0' y1='1025.8' x2='2090.3' y2='1018.2' style="stroke-width:8.0;stroke:rgb(150,150,150);stroke-linecap:round;fill:none;" />
<line x1='2136.9' y1='1104.0' x2='2147.1' y2='1097.6' style="stroke-width:8.0;stroke:rgb(150,150,150);stroke-linecap:round;fill:none;" />
<line x1='2182.3' y1='1188.7' x2='2193.3' y2='1183.7' style="stroke-width:8.0;stroke:rgb(150,150,150);stroke-linecap:round;fill:none;" />
<line x1='2216.5' y1='1278.5' x2='2228.0' y2='1275.0' style="stroke-width:8.0;stroke:rgb(150,150,150);stroke-linecap:round;fill:none;" />
<line x1='2239.0' y1='1372.0' x2='2250.8' y2='1369.9' style="stroke-width:8.0;stroke:rgb(150,150,150);stroke-linecap:round;fill:none;" />
<text x="2264.9" y="1381.7" font-size="41.6px" font-family="CMUBright-Roman" style="text-anchor:start;fill:rgb(150,150,150);" transform="rotate(350.2,2264.9,1381.7)" >1000 kb</text>
<line x1='2249.3' y1='1467.5' x2='2261.3' y2='1467.0' style="stroke-width:8.0;stroke:rgb(150,150,150);stroke-linecap:round;fill:none;" />
<line x1='2247.3' y1='1563.6' x2='2259.3' y2='1564.6' style="stroke-width:8.0;stroke:rgb(150,150,150);stroke-linecap:round;fill:none;" />
<line x1='2233.0' y1='1658.7' x2='2244.7' y2='1661.2' style="stroke-width:8.0;stroke:rgb(150,150,150);stroke-linecap:round;fill:none;" />
<line x1='2206.7' y1='1751.1' x2='2218.0' y2='1755.1' style="stroke-width:8.0;stroke:rgb(150,150,150);stroke-linecap:round;fill:none;" />
<line x1='2168.8' y1='1839.5' x2='2179.5' y2='1844.9' style="stroke-width:8.0;stroke:rgb(150,150,150);stroke-linecap:round;fill:none;" />
<text x="2183.7" y="1862.7" font-size="41.6px" font-family="CMUBright-Roman" style="text-anchor:start;fill:rgb(150,150,150);" transform="rotate(26.9,2183.7,1862.7)" >1050 kb</text>
<line x1='2119.9' y1='1922.2' x2='2129.8' y2='1929.0' style="stroke-width:8.0;stroke:rgb(150,150,150);stroke-linecap:round;fill:none;" />
<line x1='2060.8' y1='1998.0' x2='2069.8' y2='2006.0' style="stroke-width:8.0;stroke:rgb(150,150,150);stroke-linecap:round;fill:none;" />
<line x1='1992.5' y1='2065.6' x2='2000.4' y2='2074.7' style="stroke-width:8.0;stroke:rgb(150,150,150);stroke-linecap:round;fill:none;" />
<line x1='1916.1' y1='2124.0' x2='1922.8' y2='2134.0' style="stroke-width:8.0;stroke:rgb(150,150,150);stroke-linecap:round;fill:none;" />
<line x1='1832.9' y1='2172.1' x2='1838.2' y2='2182.8' style="stroke-width:8.0;stroke:rgb(150,150,150);stroke-linecap:round;fill:none;" />
<text x="1830.9" y="2199.7" font-size="41.6px" font-family="CMUBright-Roman" style="text-anchor:start;fill:rgb(150,150,150);" transform="rotate(63.7,1830.9,2199.7)" >1100 kb</text>
<line x1='1744.2' y1='2209.1' x2='1748.1' y2='2220.5' style="stroke-width:8.0;stroke:rgb(150,150,150);stroke-linecap:round;fill:none;" />
<line x1='1651.5' y1='2234.5' x2='1653.9' y2='2246.3' style="stroke-width:8.0;stroke:rgb(150,150,150);stroke-linecap:round;fill:none;" />
<g id="highlighttrack_0">
<path d="M2027.296,1343.605 A550.000,550.000 40.000 0,1 2047.956,1547.371 L2247.213,1564.597 A750.000,750.000 0.000 0,0 2219.039,1286.734 Z" style="stroke-width:14.0;stroke:rgb(0,0,0);stroke-linecap:round;fill:rgb(255,38,78);" />
</g>
<path d="M1500.000,950.000 A550.000,550.000 40.000 0,1 1610.398,2038.806 L1650.543,2234.736 A750.000,750.000 0.000 0,0 1500.000,750.000 Z" style="stroke-width:2.0;stroke:rgb(0,0,0);stroke-linecap:round;fill:none;" />
<path d="M1400.104,2040.852 A550.000,550.000 40.000 0,1 1293.576,990.207 L1218.512,804.828 A750.000,750.000 0.000 0,0 1363.779,2237.525 Z" style="stroke-width:2.0;stroke:rgb(0,0,0);stroke-linecap:round;fill:rgb(179,177,178);" />
<text x="485.2" y="1602.9" font-size="46.8px" font-family="CMUBright-Roman" style="text-anchor:middle;fill:rgb(0,0,0);" transform="rotate(84.2,485.2,1602.9)" >HistoohiSECH91<tspan baseline-shift="-40%" font-size="90%">1</tspan></text>
<line x1='1212.3' y1='807.4' x2='1207.7' y2='796.3' style="stroke-width:8.0;stroke:rgb(150,150,150);stroke-linecap:round;fill:none;" />
<text x="1190.2" y="790.7" font-size="41.6px" font-family="CMUBright-Roman" style="text-anchor:end;fill:rgb(150,150,150);" transform="rotate(67.4,1190.2,790.7)" >1250 kb</text>
<line x1='1126.1' y1='849.8' x2='1120.1' y2='839.4' style="stroke-width:8.0;stroke:rgb(150,150,150);stroke-linecap:round;fill:none;" />
<line x1='1046.0' y1='903.0' x2='1038.8' y2='893.5' style="stroke-width:8.0;stroke:rgb(150,150,150);stroke-linecap:round;fill:none;" />
<line x1='973.4' y1='966.0' x2='965.0' y2='957.4' style="stroke-width:8.0;stroke:rgb(150,150,150);stroke-linecap:round;fill:none;" />
<line x1='909.4' y1='1037.7' x2='900.0' y2='1030.3' style="stroke-width:8.0;stroke:rgb(150,150,150);stroke-linecap:round;fill:none;" />
<line x1='855.1' y1='1117.0' x2='844.8' y2='1110.9' style="stroke-width:8.0;stroke:rgb(150,150,150);stroke-linecap:round;fill:none;" />
<text x="827.5" y="1116.9" font-size="41.6px" font-family="CMUBright-Roman" style="text-anchor:end;fill:rgb(150,150,150);" transform="rotate(30.7,827.5,1116.9)" >1300 kb</text>
<line x1='811.5' y1='1202.7' x2='800.4' y2='1197.9' style="stroke-width:8.0;stroke:rgb(150,150,150);stroke-linecap:round;fill:none;" />
<line x1='779.1' y1='1293.2' x2='767.6' y2='1289.9' style="stroke-width:8.0;stroke:rgb(150,150,150);stroke-linecap:round;fill:none;" />
<line x1='758.6' y1='1387.1' x2='746.7' y2='1385.3' style="stroke-width:8.0;stroke:rgb(150,150,150);stroke-linecap:round;fill:none;" />
<line x1='750.2' y1='1482.8' x2='738.2' y2='1482.5' style="stroke-width:8.0;stroke:rgb(150,150,150);stroke-linecap:round;fill:none;" />
<line x1='754.2' y1='1578.9' x2='742.2' y2='1580.1' style="stroke-width:8.0;stroke:rgb(150,150,150);stroke-linecap:round;fill:none;" />
<text x="731.9" y="1595.3" font-size="41.6px" font-family="CMUBright-Roman" style="text-anchor:end;fill:rgb(150,150,150);" transform="rotate(-6.0,731.9,1595.3)" >1350 kb</text>
<line x1='770.4' y1='1673.6' x2='758.7' y2='1676.4' style="stroke-width:8.0;stroke:rgb(150,150,150);stroke-linecap:round;fill:none;" />
<line x1='798.6' y1='1765.5' x2='787.3' y2='1769.7' style="stroke-width:8.0;stroke:rgb(150,150,150);stroke-linecap:round;fill:none;" />
<line x1='838.3' y1='1853.0' x2='827.7' y2='1858.7' style="stroke-width:8.0;stroke:rgb(150,150,150);stroke-linecap:round;fill:none;" />
<line x1='888.9' y1='1934.7' x2='879.1' y2='1941.7' style="stroke-width:8.0;stroke:rgb(150,150,150);stroke-linecap:round;fill:none;" />
<line x1='949.5' y1='2009.3' x2='940.7' y2='2017.5' style="stroke-width:8.0;stroke:rgb(150,150,150);stroke-linecap:round;fill:none;" />
<text x="941.5" y="2035.8" font-size="41.6px" font-family="CMUBright-Roman" style="text-anchor:end;fill:rgb(150,150,150);" transform="rotate(-42.8,941.5,2035.8)" >1400 kb</text>
<line x1='1019.1' y1='2075.6' x2='1011.4' y2='2084.8' style="stroke-width:8.0;stroke:rgb(150,150,150);stroke-linecap:round;fill:none;" />
<line x1='1096.7' y1='2132.3' x2='1090.3' y2='2142.5' style="stroke-width:8.0;stroke:rgb(150,150,150);stroke-linecap:round;fill:none;" />
<line x1='1180.9' y1='2178.7' x2='1175.8' y2='2189.6' style="stroke-width:8.0;stroke:rgb(150,150,150);stroke-linecap:round;fill:none;" />
<line x1='1270.3' y1='2214.0' x2='1266.6' y2='2225.4' style="stroke-width:8.0;stroke:rgb(150,150,150);stroke-linecap:round;fill:none;" />
<line x1='1363.5' y1='2237.5' x2='1361.3' y2='2249.3' style="stroke-width:8.0;stroke:rgb(150,150,150);stroke-linecap:round;fill:none;" />
<text x="1372.9" y="2263.5" font-size="41.6px" font-family="CMUBright-Roman" style="text-anchor:end;fill:rgb(150,150,150);" transform="rotate(-79.5,1372.9,2263.5)" >1450 kb</text>
<path d="M1400.104,2040.852 A550.000,550.000 40.000 0,1 1293.576,990.207 L1218.512,804.828 A750.000,750.000 0.000 0,0 1363.779,2237.525 Z" style="stroke-width:2.0;stroke:rgb(0,0,0);stroke-linecap:round;fill:none;" />
</g>
<g id="track_0">
<path d="M 1582.681,984.083 A 522.500,522.500 0.00 0,1 1686.5,1011.9 L 1686.5,1011.9 1678.8,1031.4 1670.7,1050.6 1662.2,1069.6 1653.3,1088.1 1643.9,1106.2 1634.2,1123.6 1624.1,1140.2 1613.6,1156.1 1602.8,1171.1 1591.6,1185.1 1580.0,1198.1 1568.2,1210.0 1556.0,1220.7 1543.6,1230.2 1530.9,1238.5 1517.9,1245.5 1504.7,1251.2 1491.3,1255.6 1477.7,1258.6 1463.9,1260.3 1449.9,1260.6 1435.9,1259.6 1421.7,1257.2 1407.4,1253.5 1393.1,1248.5 1378.7,1242.2 1364.3,1234.7 1350.0,1226.0 1335.7,1216.2 1321.5,1205.3 1307.3,1193.3 1293.4,1180.4 1279.6,1166.7 1265.9,1152.1 1252.6,1136.8 1239.5,1121.0 1226.6,1104.6 1214.2,1087.8 1202.1,1070.8  A 522.500,522.500 0.00 0,1 1296.2,1018.9 L 1296.2,1018.9 1304.3,1037.6 1312.6,1056.0 1321.1,1074.2 1329.8,1091.8 1338.6,1108.9 1347.6,1125.2 1356.6,1140.8 1365.7,1155.4 1374.9,1169.1 1384.0,1181.6 1393.2,1193.1 1402.3,1203.3 1411.4,1212.2 1420.4,1219.8 1429.4,1226.0 1438.2,1230.9 1446.9,1234.3 1455.5,1236.2 1463.8,1236.7 1472.1,1235.7 1480.1,1233.2 1488.0,1229.3 1495.6,1223.9 1503.0,1217.1 1510.2,1208.9 1517.1,1199.4 1523.8,1188.5 1530.2,1176.4 1536.4,1163.1 1542.3,1148.7 1547.9,1133.3 1553.2,1116.9 1558.3,1099.6 1563.1,1081.6 1567.6,1062.9 1571.8,1043.7 1575.7,1024.1 1579.3,1004.2 1582.7,984.1  Z" style="stroke-width: 0.5;  stroke: rgb(0,0,0); fill: rgb(179,177,178);" />
<path d="M 1757.419,1045.311 A 522.500,522.500 0.00 0,1 1829.4,1094.4 L 1829.4,1094.4 1815.2,1111.5 1800.4,1128.4 1785.2,1144.9 1769.4,1161.1 1753.2,1176.7 1736.5,1191.8 1719.4,1206.3 1701.9,1220.1 1684.0,1233.2 1665.7,1245.5 1647.0,1257.0 1628.1,1267.5 1608.8,1277.2 1589.2,1286.0 1569.3,1293.7 1549.2,1300.5 1528.9,1306.2 1508.4,1310.9 1487.7,1314.5 1466.9,1317.0 1445.9,1318.6 1424.9,1319.0 1403.8,1318.4 1382.7,1316.7 1361.5,1314.0 1340.4,1310.3 1319.3,1305.6 1298.4,1299.9 1277.5,1293.3 1256.7,1285.8 1236.2,1277.5 1215.8,1268.4 1195.7,1258.5 1175.9,1247.8 1156.3,1236.6 1137.2,1224.8 1118.3,1212.4 1099.9,1199.7 1082.0,1186.5  A 522.500,522.500 0.00 0,1 1139.9,1121.4 L 1139.9,1121.4 1154.9,1136.8 1170.3,1151.9 1186.1,1166.5 1202.3,1180.6 1218.8,1194.1 1235.5,1207.0 1252.6,1219.0 1269.8,1230.3 1287.2,1240.6 1304.8,1250.0 1322.5,1258.4 1340.3,1265.7 1358.1,1272.0 1375.9,1277.1 1393.8,1281.0 1411.6,1283.8 1429.4,1285.3 1447.1,1285.6 1464.6,1284.7 1482.0,1282.6 1499.3,1279.2 1516.4,1274.6 1533.2,1268.8 1549.9,1261.8 1566.2,1253.6 1582.3,1244.3 1598.1,1234.0 1613.6,1222.5 1628.7,1210.1 1643.4,1196.7 1657.8,1182.5 1671.8,1167.4 1685.4,1151.5 1698.6,1135.0 1711.3,1117.9 1723.5,1100.3 1735.3,1082.2 1746.6,1063.9 1757.4,1045.3  Z" style="stroke-width: 0.5;  stroke: rgb(0,0,0); fill: rgb(179,177,178);" />
<path d="M 1945.886,1227.619 A 522.500,522.500 0.00 0,1 1976.2,1285.1 L 1976.2,1285.1 1953.2,1295.3 1929.9,1305.4 1906.4,1315.3 1882.5,1325.0 1858.5,1334.4 1834.2,1343.6 1809.7,1352.6 1785.0,1361.3 1760.1,1369.7 1735.0,1377.7 1709.7,1385.5 1684.3,1392.9 1658.6,1400.0 1632.9,1406.8 1607.0,1413.2 1581.0,1419.2 1554.9,1424.9 1528.7,1430.2 1502.4,1435.1 1476.0,1439.6 1449.6,1443.8 1423.2,1447.5 1396.7,1450.9 1370.1,1453.9 1343.6,1456.5 1317.1,1458.8 1290.6,1460.6 1264.1,1462.1 1237.7,1463.2 1211.3,1464.0 1185.0,1464.4 1158.8,1464.5 1132.8,1464.2 1106.8,1463.7 1081.0,1462.8 1055.3,1461.6 1029.8,1460.2 1004.4,1458.4 979.3,1456.5  A 522.500,522.500 0.00 0,1 988.7,1392.2 L 988.7,1392.2 1012.7,1397.1 1036.9,1401.6 1061.4,1405.8 1086.2,1409.6 1111.1,1413.0 1136.2,1416.0 1161.6,1418.5 1187.0,1420.6 1212.6,1422.1 1238.3,1423.2 1264.1,1423.8 1289.9,1423.8 1315.8,1423.3 1341.8,1422.3 1367.7,1420.7 1393.6,1418.5 1419.5,1415.8 1445.3,1412.5 1471.1,1408.6 1496.7,1404.2 1522.3,1399.3 1547.8,1393.7 1573.1,1387.6 1598.2,1381.0 1623.2,1373.9 1648.0,1366.2 1672.5,1358.0 1696.9,1349.4 1721.0,1340.2 1744.9,1330.6 1768.5,1320.6 1791.8,1310.1 1814.8,1299.3 1837.5,1288.1 1859.9,1276.6 1881.9,1264.7 1903.6,1252.6 1924.9,1240.2 1945.9,1227.6  Z" style="stroke-width: 0.5;  stroke: rgb(0,0,0); fill: rgb(179,177,178);" />
<path d="M 1734.194,1967.075 A 522.500,522.500 0.00 0,1 1674.7,1992.4 L 1674.7,1992.4 1667.6,1973.0 1660.1,1953.8 1652.3,1935.0 1644.2,1916.5 1635.7,1898.6 1626.9,1881.4 1617.9,1864.9 1608.5,1849.3 1598.8,1834.6 1588.9,1820.9 1578.8,1808.3 1568.4,1796.9 1557.7,1786.7 1546.9,1777.7 1535.9,1770.1 1524.8,1763.8 1513.5,1758.8 1502.0,1755.3 1490.5,1753.2 1478.8,1752.5 1467.1,1753.2 1455.3,1755.3 1443.5,1758.8 1431.6,1763.7 1419.8,1770.0 1408.0,1777.6 1396.2,1786.4 1384.5,1796.5 1372.9,1807.8 1361.4,1820.1 1350.0,1833.5 1338.8,1847.9 1327.8,1863.2 1317.0,1879.2 1306.4,1896.0 1296.1,1913.3 1286.1,1931.1 1276.4,1949.3 1267.0,1967.7  A 522.500,522.500 0.00 0,1 1211.0,1935.3 L 1211.0,1935.3 1222.8,1917.9 1235.0,1900.7 1247.7,1884.0 1260.6,1867.7 1273.9,1852.0 1287.5,1837.0 1301.3,1822.8 1315.4,1809.5 1329.7,1797.0 1344.2,1785.6 1358.8,1775.2 1373.5,1765.9 1388.4,1757.8 1403.3,1750.9 1418.3,1745.2 1433.3,1740.9 1448.3,1737.8 1463.3,1736.0 1478.2,1735.6 1493.1,1736.5 1507.9,1738.7 1522.5,1742.3 1537.0,1747.2 1551.4,1753.3 1565.6,1760.8 1579.6,1769.4 1593.3,1779.3 1606.8,1790.3 1620.1,1802.3 1633.1,1815.4 1645.7,1829.5 1658.1,1844.5 1670.1,1860.3 1681.8,1876.8 1693.1,1894.0 1704.0,1911.7 1714.5,1929.9 1724.6,1948.4 1734.2,1967.1  Z" style="stroke-width: 0.5;  stroke: rgb(0,0,0); fill: rgb(179,177,178);" />
<path d="M 1802.352,1926.133 A 522.500,522.500 0.00 0,1 1748.6,1959.5 L 1748.6,1959.5 1738.4,1941.1 1727.7,1922.9 1716.6,1905.0 1705.1,1887.6 1693.2,1870.7 1680.9,1854.4 1668.2,1838.9 1655.3,1824.2 1642.0,1810.5 1628.5,1797.6 1614.6,1785.8 1600.5,1775.1 1586.2,1765.5 1571.7,1757.1 1557.0,1750.0 1542.2,1744.0 1527.2,1739.4 1512.0,1736.0 1496.8,1734.0 1481.5,1733.3 1466.2,1733.9 1450.8,1735.9 1435.5,1739.1 1420.1,1743.6 1404.8,1749.4 1389.6,1756.4 1374.5,1764.6 1359.4,1774.0 1344.6,1784.5 1329.9,1796.0 1315.4,1808.5 1301.2,1821.9 1287.1,1836.2 1273.4,1851.2 1260.0,1867.0 1246.9,1883.2 1234.2,1900.0 1221.9,1917.2 1210.0,1934.6  A 522.500,522.500 0.00 0,1 1159.6,1896.4 L 1159.6,1896.4 1173.8,1880.2 1188.5,1864.2 1203.7,1848.7 1219.2,1833.7 1235.2,1819.3 1251.4,1805.5 1268.0,1792.4 1284.9,1780.1 1302.0,1768.7 1319.3,1758.3 1336.9,1748.8 1354.6,1740.3 1372.4,1732.9 1390.4,1726.6 1408.5,1721.5 1426.6,1717.5 1444.8,1714.7 1462.9,1713.1 1481.1,1712.8 1499.2,1713.6 1517.2,1715.6 1535.2,1718.9 1553.0,1723.4 1570.7,1729.0 1588.2,1735.8 1605.5,1743.7 1622.6,1752.7 1639.4,1762.8 1656.0,1773.9 1672.3,1785.9 1688.3,1798.8 1704.0,1812.6 1719.3,1827.1 1734.2,1842.4 1748.7,1858.2 1762.8,1874.6 1776.5,1891.5 1789.7,1908.7 1802.4,1926.1  Z" style="stroke-width: 0.5;  stroke: rgb(0,0,0); fill: rgb(179,177,178);" />
<path d="M 1851.939,1886.193 A 522.500,522.500 0.00 0,1 1803.0,1925.7 L 1803.0,1925.7 1790.3,1908.2 1777.1,1891.0 1763.4,1874.2 1749.2,1857.8 1734.7,1842.0 1719.7,1826.7 1704.4,1812.2 1688.7,1798.4 1672.7,1785.5 1656.3,1773.5 1639.7,1762.4 1622.8,1752.4 1605.7,1743.4 1588.3,1735.5 1570.8,1728.7 1553.1,1723.0 1535.2,1718.6 1517.2,1715.3 1499.1,1713.3 1481.0,1712.4 1462.8,1712.8 1444.6,1714.4 1426.4,1717.1 1408.2,1721.1 1390.1,1726.2 1372.1,1732.5 1354.2,1739.9 1336.5,1748.3 1318.9,1757.8 1301.5,1768.2 1284.3,1779.6 1267.4,1791.8 1250.8,1804.9 1234.5,1818.6 1218.5,1833.1 1202.9,1848.1 1187.7,1863.5 1173.0,1879.4 1158.7,1895.6  A 522.500,522.500 0.00 0,1 1113.7,1851.8 L 1113.7,1851.8 1130.2,1837.1 1147.3,1822.7 1164.7,1808.7 1182.6,1795.2 1200.9,1782.2 1219.5,1769.9 1238.5,1758.2 1257.7,1747.4 1277.2,1737.3 1297.0,1728.0 1317.0,1719.7 1337.1,1712.2 1357.4,1705.8 1377.8,1700.4 1398.4,1695.9 1418.9,1692.6 1439.6,1690.3 1460.2,1689.1 1480.9,1688.9 1501.5,1689.9 1522.0,1691.9 1542.5,1695.1 1562.8,1699.3 1583.0,1704.5 1603.0,1710.8 1622.8,1718.2 1642.4,1726.5 1661.8,1735.7 1680.9,1745.9 1699.7,1757.0 1718.2,1768.8 1736.4,1781.5 1754.2,1794.8 1771.6,1808.8 1788.5,1823.4 1805.1,1838.5 1821.2,1854.1 1836.8,1870.0 1851.9,1886.2  Z" style="stroke-width: 0.5;  stroke: rgb(0,0,0); fill: rgb(179,177,178);" />
<path d="M 1854.539,1116.192 A 522.500,522.500 0.00 0,1 1896.9,1160.2 L 1896.9,1160.2 1878.9,1175.3 1860.4,1190.2 1841.5,1204.9 1822.0,1219.1 1802.2,1233.0 1782.0,1246.5 1761.3,1259.5 1740.3,1272.0 1718.9,1284.0 1697.1,1295.4 1675.0,1306.2 1652.6,1316.3 1629.9,1325.8 1607.0,1334.6 1583.7,1342.7 1560.3,1350.0 1536.6,1356.6 1512.7,1362.5 1488.7,1367.6 1464.5,1372.0 1440.2,1375.6 1415.8,1378.4 1391.3,1380.4 1366.7,1381.7 1342.1,1382.2 1317.5,1381.9 1293.0,1381.0 1268.4,1379.3 1244.0,1376.8 1219.6,1373.7 1195.4,1370.0 1171.3,1365.6 1147.4,1360.6 1123.7,1355.0 1100.3,1348.9 1077.1,1342.3 1054.3,1335.2 1031.7,1327.7 1009.6,1319.8  A 522.500,522.500 0.00 0,1 1034.0,1263.7 L 1034.0,1263.7 1054.5,1273.8 1075.4,1283.5 1096.7,1292.8 1118.3,1301.6 1140.3,1309.8 1162.4,1317.4 1184.9,1324.3 1207.5,1330.5 1230.3,1336.0 1253.2,1340.8 1276.2,1344.7 1299.3,1347.8 1322.4,1350.1 1345.6,1351.5 1368.7,1352.0 1391.8,1351.6 1414.8,1350.3 1437.7,1348.0 1460.4,1344.9 1483.1,1340.8 1505.5,1335.9 1527.8,1330.0 1549.8,1323.2 1571.5,1315.5 1593.0,1307.0 1614.3,1297.6 1635.2,1287.5 1655.7,1276.5 1675.9,1264.8 1695.7,1252.4 1715.2,1239.3 1734.2,1225.5 1752.8,1211.2 1771.0,1196.4 1788.7,1181.1 1805.9,1165.3 1822.6,1149.2 1838.8,1132.8 1854.5,1116.2  Z" style="stroke-width: 0.5;  stroke: rgb(0,0,0); fill: rgb(179,177,178);" />
<path d="M 1655.696,1998.764 A 522.500,522.500 0.00 0,1 1605.5,2011.7 L 1605.5,2011.7 1601.2,1991.8 1596.7,1972.1 1591.9,1952.6 1586.9,1933.6 1581.5,1915.1 1575.9,1897.3 1570.1,1880.3 1564.0,1864.2 1557.7,1849.0 1551.1,1834.8 1544.3,1821.8 1537.3,1810.0 1530.1,1799.4 1522.7,1790.2 1515.1,1782.3 1507.3,1775.8 1499.3,1770.7 1491.2,1767.1 1483.0,1765.0 1474.7,1764.3 1466.2,1765.1 1457.6,1767.4 1449.0,1771.1 1440.3,1776.3 1431.5,1782.9 1422.7,1790.8 1413.9,1800.1 1405.1,1810.7 1396.3,1822.4 1387.6,1835.4 1378.9,1849.4 1370.4,1864.3 1361.9,1880.2 1353.5,1896.9 1345.3,1914.3 1337.3,1932.3 1329.5,1950.7 1321.9,1969.5 1314.5,1988.5  A 522.500,522.500 0.00 0,1 1267.0,1967.7 L 1267.0,1967.7 1276.3,1949.3 1286.0,1931.2 1296.0,1913.4 1306.2,1896.2 1316.7,1879.5 1327.3,1863.5 1338.2,1848.3 1349.2,1834.0 1360.3,1820.6 1371.6,1808.4 1382.9,1797.2 1394.4,1787.2 1405.8,1778.5 1417.3,1771.0 1428.7,1764.9 1440.1,1760.1 1451.5,1756.8 1462.8,1754.8 1474.1,1754.3 1485.2,1755.1 1496.2,1757.5 1507.0,1761.2 1517.7,1766.3 1528.3,1772.9 1538.6,1780.7 1548.7,1789.9 1558.6,1800.4 1568.3,1812.0 1577.7,1824.9 1586.9,1838.8 1595.8,1853.7 1604.4,1869.6 1612.7,1886.3 1620.7,1903.8 1628.4,1921.9 1635.7,1940.6 1642.7,1959.7 1649.4,1979.2 1655.7,1998.8  Z" style="stroke-width: 0.5;  stroke: rgb(0,0,0); fill: rgb(179,177,178);" />
<path d="M 1713.309,1023.025 A 522.500,522.500 0.00 0,1 1757.3,1045.3 L 1757.3,1045.3 1746.5,1063.8 1735.2,1082.2 1723.5,1100.2 1711.2,1117.8 1698.5,1134.9 1685.4,1151.5 1671.8,1167.3 1657.8,1182.4 1643.4,1196.6 1628.7,1210.0 1613.6,1222.4 1598.1,1233.9 1582.3,1244.2 1566.3,1253.5 1549.9,1261.6 1533.3,1268.6 1516.5,1274.4 1499.4,1279.0 1482.2,1282.3 1464.8,1284.5 1447.3,1285.4 1429.6,1285.0 1411.9,1283.5 1394.1,1280.7 1376.2,1276.7 1358.4,1271.6 1340.6,1265.4 1322.9,1258.0 1305.2,1249.6 1287.7,1240.2 1270.3,1229.8 1253.1,1218.5 1236.1,1206.4 1219.3,1193.6 1202.9,1180.0 1186.7,1165.9 1171.0,1151.2 1155.6,1136.1 1140.6,1120.7  A 522.500,522.500 0.00 0,1 1178.0,1088.5 L 1178.0,1088.5 1191.2,1105.0 1204.8,1121.2 1218.7,1136.9 1233.0,1152.2 1247.6,1166.8 1262.4,1180.8 1277.4,1194.0 1292.7,1206.3 1308.1,1217.7 1323.6,1228.1 1339.2,1237.4 1354.9,1245.6 1370.6,1252.6 1386.3,1258.5 1402.0,1263.1 1417.6,1266.5 1433.2,1268.5 1448.7,1269.3 1464.0,1268.7 1479.2,1266.9 1494.2,1263.7 1509.0,1259.2 1523.7,1253.5 1538.0,1246.5 1552.1,1238.2 1566.0,1228.7 1579.5,1218.1 1592.8,1206.4 1605.7,1193.5 1618.2,1179.7 1630.4,1165.0 1642.2,1149.4 1653.7,1132.9 1664.7,1115.8 1675.3,1098.1 1685.5,1079.8 1695.2,1061.2 1704.5,1042.2 1713.3,1023.0  Z" style="stroke-width: 0.5;  stroke: rgb(0,0,0); fill: rgb(179,177,178);" />
<path d="M 1943.241,1776.666 A 522.500,522.500 0.00 0,1 1916.4,1815.6 L 1916.4,1815.6 1897.9,1801.8 1878.8,1788.3 1859.3,1775.2 1839.4,1762.5 1819.1,1750.3 1798.4,1738.5 1777.3,1727.4 1755.9,1716.8 1734.2,1706.9 1712.2,1697.6 1689.9,1689.1 1667.4,1681.3 1644.6,1674.3 1621.7,1668.1 1598.6,1662.7 1575.3,1658.2 1551.9,1654.5 1528.4,1651.6 1504.9,1649.7 1481.3,1648.6 1457.6,1648.3 1433.9,1649.0 1410.3,1650.5 1386.7,1652.9 1363.2,1656.1 1339.8,1660.1 1316.5,1665.0 1293.4,1670.7 1270.4,1677.1 1247.6,1684.2 1225.1,1692.1 1202.8,1700.6 1180.8,1709.8 1159.1,1719.5 1137.7,1729.9 1116.7,1740.7 1096.0,1751.9 1075.8,1763.6 1056.1,1775.5  A 522.500,522.500 0.00 0,1 1033.0,1734.3 L 1033.0,1734.3 1054.2,1723.9 1075.8,1713.8 1097.8,1704.1 1120.2,1694.9 1142.9,1686.0 1165.9,1677.7 1189.2,1669.9 1212.7,1662.7 1236.5,1656.0 1260.4,1650.0 1284.6,1644.6 1308.9,1639.9 1333.4,1635.9 1357.9,1632.6 1382.6,1630.0 1407.3,1628.2 1432.1,1627.1 1456.9,1626.7 1481.7,1627.1 1506.4,1628.2 1531.2,1630.2 1555.8,1632.8 1580.4,1636.2 1604.8,1640.4 1629.1,1645.2 1653.3,1650.8 1677.3,1657.1 1701.0,1664.0 1724.6,1671.6 1747.9,1679.8 1770.9,1688.6 1793.7,1698.0 1816.2,1708.0 1838.3,1718.4 1860.1,1729.3 1881.5,1740.6 1902.5,1752.3 1923.1,1764.3 1943.2,1776.7  Z" style="stroke-width: 0.5;  stroke: rgb(0,0,0); fill: rgb(179,177,178);" />
<path d="M 1904.516,1169.284 A 522.500,522.500 0.00 0,1 1930.4,1203.7 L 1930.4,1203.7 1910.4,1217.2 1890.0,1230.4 1869.3,1243.5 1848.1,1256.1 1826.6,1268.5 1804.7,1280.5 1782.4,1292.1 1759.8,1303.2 1736.9,1313.9 1713.7,1324.0 1690.3,1333.7 1666.5,1342.8 1642.5,1351.4 1618.3,1359.3 1593.9,1366.7 1569.3,1373.5 1544.5,1379.7 1519.5,1385.2 1494.4,1390.1 1469.2,1394.3 1443.9,1398.0 1418.5,1400.9 1393.1,1403.2 1367.6,1404.9 1342.1,1405.9 1316.6,1406.4 1291.1,1406.1 1265.7,1405.3 1240.4,1403.9 1215.1,1401.9 1190.0,1399.3 1165.0,1396.2 1140.2,1392.6 1115.6,1388.5 1091.2,1383.8 1067.0,1378.8 1043.1,1373.3 1019.5,1367.5 996.3,1361.3  A 522.500,522.500 0.00 0,1 1009.3,1320.4 L 1009.3,1320.4 1031.6,1328.3 1054.2,1335.8 1077.1,1342.9 1100.4,1349.6 1123.9,1355.7 1147.6,1361.3 1171.6,1366.4 1195.8,1370.8 1220.1,1374.7 1244.5,1377.9 1269.1,1380.4 1293.7,1382.2 1318.4,1383.3 1343.1,1383.7 1367.9,1383.4 1392.6,1382.3 1417.2,1380.4 1441.8,1377.8 1466.3,1374.5 1490.6,1370.3 1514.9,1365.5 1539.0,1359.9 1562.8,1353.5 1586.5,1346.4 1610.0,1338.7 1633.2,1330.2 1656.2,1321.0 1678.9,1311.2 1701.2,1300.8 1723.3,1289.7 1745.0,1278.1 1766.4,1266.0 1787.3,1253.4 1807.9,1240.2 1828.1,1226.7 1847.9,1212.8 1867.2,1198.6 1886.1,1184.0 1904.5,1169.3  Z" style="stroke-width: 0.5;  stroke: rgb(0,0,0); fill: rgb(179,177,178);" />
<path d="M 1893.651,1843.577 A 522.500,522.500 0.00 0,1 1866.1,1872.8 L 1866.1,1872.8 1850.3,1857.1 1834.0,1841.7 1817.3,1826.7 1800.1,1812.1 1782.5,1798.1 1764.5,1784.6 1746.1,1771.8 1727.3,1759.7 1708.2,1748.3 1688.9,1737.8 1669.2,1728.1 1649.3,1719.4 1629.2,1711.6 1608.9,1704.7 1588.4,1698.9 1567.7,1694.0 1547.0,1690.2 1526.1,1687.5 1505.2,1685.8 1484.2,1685.2 1463.2,1685.7 1442.2,1687.2 1421.3,1689.8 1400.4,1693.5 1379.6,1698.1 1358.9,1703.8 1338.4,1710.5 1318.0,1718.1 1297.8,1726.6 1277.9,1736.0 1258.2,1746.2 1238.8,1757.3 1219.7,1769.0 1201.0,1781.4 1182.6,1794.5 1164.6,1808.0 1147.0,1822.1 1129.9,1836.5 1113.2,1851.3  A 522.500,522.500 0.00 0,1 1087.4,1820.5 L 1087.4,1820.5 1105.4,1806.8 1123.9,1793.5 1142.9,1780.5 1162.2,1768.0 1182.0,1756.0 1202.1,1744.6 1222.6,1733.9 1243.3,1723.8 1264.3,1714.5 1285.6,1705.9 1307.1,1698.1 1328.8,1691.2 1350.7,1685.2 1372.7,1680.1 1394.9,1675.9 1417.1,1672.6 1439.4,1670.3 1461.7,1669.0 1484.0,1668.6 1506.3,1669.3 1528.6,1670.9 1550.8,1673.5 1572.9,1677.1 1594.9,1681.6 1616.8,1687.0 1638.5,1693.4 1660.0,1700.7 1681.2,1708.8 1702.2,1717.8 1723.0,1727.6 1743.5,1738.1 1763.6,1749.3 1783.4,1761.3 1802.9,1773.8 1821.9,1786.9 1840.5,1800.5 1858.7,1814.5 1876.4,1828.9 1893.7,1843.6  Z" style="stroke-width: 0.5;  stroke: rgb(0,0,0); fill: rgb(179,177,178);" />
<path d="M 2020.499,1545.683 A 522.500,522.500 0.00 0,1 2015.5,1585.1 L 2015.5,1585.1 1990.2,1581.0 1964.8,1577.1 1939.1,1573.4 1913.4,1569.9 1887.4,1566.6 1861.4,1563.5 1835.2,1560.6 1808.9,1558.0 1782.5,1555.7 1755.9,1553.5 1729.3,1551.7 1702.7,1550.1 1675.9,1548.8 1649.1,1547.8 1622.3,1547.0 1595.4,1546.5 1568.5,1546.4 1541.6,1546.5 1514.7,1546.9 1487.7,1547.5 1460.8,1548.5 1433.9,1549.8 1407.1,1551.3 1380.3,1553.2 1353.5,1555.3 1326.8,1557.7 1300.1,1560.4 1273.6,1563.3 1247.1,1566.5 1220.7,1570.0 1194.5,1573.7 1168.3,1577.6 1142.3,1581.8 1116.5,1586.2 1090.7,1590.8 1065.2,1595.6 1039.7,1600.7 1014.5,1605.8 989.5,1611.2  A 522.500,522.500 0.00 0,1 982.5,1572.1 L 982.5,1572.1 1008.3,1568.6 1034.3,1565.1 1060.4,1561.8 1086.5,1558.6 1112.8,1555.5 1139.2,1552.6 1165.6,1549.8 1192.1,1547.1 1218.7,1544.6 1245.3,1542.3 1272.1,1540.1 1298.8,1538.0 1325.6,1536.1 1352.5,1534.4 1379.4,1532.9 1406.3,1531.5 1433.3,1530.3 1460.2,1529.2 1487.2,1528.4 1514.2,1527.7 1541.2,1527.2 1568.2,1526.8 1595.2,1526.7 1622.1,1526.7 1649.1,1526.9 1676.0,1527.2 1702.8,1527.7 1729.7,1528.4 1756.5,1529.3 1783.2,1530.3 1809.9,1531.4 1836.5,1532.7 1863.0,1534.2 1889.5,1535.8 1915.9,1537.5 1942.2,1539.4 1968.4,1541.4 1994.5,1543.5 2020.5,1545.7  Z" style="stroke-width: 0.5;  stroke: rgb(0,0,0); fill: rgb(179,177,178);" />
<path d="M 1916.652,1815.289 A 522.500,522.500 0.00 0,1 1894.3,1842.8 L 1894.3,1842.8 1877.0,1828.1 1859.2,1813.7 1840.9,1799.6 1822.1,1785.9 1803.0,1772.8 1783.4,1760.2 1763.5,1748.1 1743.2,1736.8 1722.6,1726.1 1701.7,1716.2 1680.5,1707.0 1659.0,1698.7 1637.4,1691.2 1615.5,1684.5 1593.4,1678.8 1571.2,1674.0 1548.8,1670.1 1526.4,1667.2 1503.8,1665.2 1481.2,1664.2 1458.6,1664.1 1435.9,1665.0 1413.3,1666.8 1390.7,1669.6 1368.2,1673.3 1345.8,1677.9 1323.6,1683.4 1301.4,1689.8 1279.5,1696.9 1257.8,1704.9 1236.3,1713.7 1215.1,1723.2 1194.1,1733.3 1173.5,1744.1 1153.2,1755.5 1133.3,1767.4 1113.8,1779.7 1094.8,1792.5 1076.2,1805.6  A 522.500,522.500 0.00 0,1 1056.4,1776.1 L 1056.4,1776.1 1076.2,1764.1 1096.4,1752.4 1117.0,1741.2 1138.0,1730.3 1159.3,1720.0 1181.0,1710.2 1203.0,1701.0 1225.3,1692.5 1247.8,1684.6 1270.6,1677.4 1293.6,1670.9 1316.7,1665.3 1340.0,1660.4 1363.4,1656.3 1386.9,1653.1 1410.5,1650.7 1434.1,1649.1 1457.8,1648.5 1481.4,1648.7 1505.0,1649.7 1528.6,1651.7 1552.1,1654.5 1575.5,1658.2 1598.7,1662.7 1621.8,1668.1 1644.8,1674.3 1667.5,1681.2 1690.0,1689.0 1712.3,1697.5 1734.3,1706.7 1756.1,1716.6 1777.5,1727.2 1798.5,1738.3 1819.3,1750.0 1839.6,1762.3 1859.5,1775.0 1879.0,1788.1 1898.1,1801.5 1916.7,1815.3  Z" style="stroke-width: 0.5;  stroke: rgb(0,0,0); fill: rgb(179,177,178);" />
<path d="M 1990.397,1319.675 A 522.500,522.500 0.00 0,1 2000.9,1351.4 L 2000.9,1351.4 1975.8,1358.8 1950.6,1366.2 1925.2,1373.4 1899.8,1380.6 1874.2,1387.6 1848.6,1394.6 1822.9,1401.4 1797.0,1408.2 1771.1,1414.8 1745.2,1421.3 1719.1,1427.7 1693.0,1434.0 1666.8,1440.1 1640.6,1446.1 1614.3,1452.0 1588.0,1457.7 1561.6,1463.3 1535.2,1468.8 1508.7,1474.1 1482.2,1479.2 1455.7,1484.2 1429.1,1489.1 1402.6,1493.8 1376.0,1498.4 1349.5,1502.8 1322.9,1507.1 1296.3,1511.3 1269.8,1515.2 1243.2,1519.1 1216.7,1522.8 1190.2,1526.4 1163.7,1529.8 1137.3,1533.1 1111.0,1536.3 1084.6,1539.3 1058.4,1542.2 1032.1,1545.0 1006.0,1547.7 979.9,1550.3  A 522.500,522.500 0.00 0,1 977.8,1516.9 L 977.8,1516.9 1003.6,1516.0 1029.5,1514.9 1055.5,1513.6 1081.6,1512.2 1107.8,1510.5 1134.1,1508.6 1160.4,1506.5 1186.9,1504.2 1213.4,1501.7 1239.9,1498.9 1266.4,1496.0 1293.0,1492.7 1319.6,1489.3 1346.3,1485.6 1372.9,1481.6 1399.5,1477.5 1426.1,1473.0 1452.6,1468.4 1479.1,1463.4 1505.6,1458.3 1532.0,1452.9 1558.4,1447.2 1584.7,1441.4 1611.0,1435.3 1637.1,1428.9 1663.2,1422.4 1689.1,1415.6 1715.0,1408.6 1740.7,1401.4 1766.3,1394.0 1791.8,1386.4 1817.2,1378.6 1842.4,1370.6 1867.5,1362.5 1892.4,1354.2 1917.1,1345.8 1941.7,1337.2 1966.2,1328.5 1990.4,1319.7  Z" style="stroke-width: 0.5;  stroke: rgb(0,0,0); fill: rgb(179,177,178);" />
<path d="M 2002.653,1642.639 A 522.500,522.500 0.00 0,1 1994.1,1670.0 L 1994.1,1670.0 1970.8,1662.2 1947.1,1654.6 1923.2,1647.4 1899.1,1640.4 1874.6,1633.8 1849.9,1627.6 1825.0,1621.8 1799.9,1616.4 1774.6,1611.4 1749.2,1606.9 1723.5,1602.9 1697.8,1599.3 1671.9,1596.2 1645.9,1593.7 1619.9,1591.6 1593.7,1590.1 1567.6,1589.1 1541.4,1588.6 1515.2,1588.7 1488.9,1589.3 1462.8,1590.5 1436.6,1592.1 1410.5,1594.3 1384.5,1597.1 1358.6,1600.3 1332.7,1604.1 1307.0,1608.3 1281.5,1613.1 1256.0,1618.3 1230.8,1624.0 1205.8,1630.1 1180.9,1636.7 1156.3,1643.6 1132.0,1651.0 1107.8,1658.7 1084.0,1666.7 1060.5,1675.1 1037.2,1683.7 1014.3,1692.7  A 522.500,522.500 0.00 0,1 1004.5,1665.7 L 1004.5,1665.7 1028.1,1657.9 1052.1,1650.4 1076.3,1643.1 1100.8,1636.1 1125.5,1629.4 1150.5,1623.0 1175.6,1617.0 1201.0,1611.3 1226.5,1606.0 1252.2,1601.0 1278.1,1596.5 1304.0,1592.3 1330.1,1588.6 1356.3,1585.3 1382.6,1582.5 1409.0,1580.0 1435.5,1578.1 1461.9,1576.5 1488.5,1575.5 1515.0,1574.9 1541.5,1574.7 1568.1,1575.0 1594.6,1575.7 1621.0,1576.9 1647.4,1578.6 1673.8,1580.7 1700.0,1583.2 1726.2,1586.1 1752.2,1589.5 1778.1,1593.2 1803.8,1597.4 1829.4,1601.9 1854.8,1606.8 1880.0,1612.0 1905.0,1617.6 1929.8,1623.4 1954.4,1629.6 1978.6,1636.0 2002.7,1642.6  Z" style="stroke-width: 0.5;  stroke: rgb(0,0,0); fill: rgb(179,177,178);" />
<path d="M 1979.832,1293.196 A 522.500,522.500 0.00 0,1 1990.2,1319.0 L 1990.2,1319.0 1966.0,1327.9 1941.6,1336.6 1917.0,1345.2 1892.3,1353.7 1867.4,1362.0 1842.3,1370.1 1817.1,1378.1 1791.7,1385.9 1766.3,1393.5 1740.6,1400.9 1714.9,1408.1 1689.1,1415.1 1663.1,1421.8 1637.0,1428.4 1610.9,1434.7 1584.7,1440.8 1558.4,1446.6 1532.0,1452.2 1505.5,1457.6 1479.1,1462.7 1452.5,1467.5 1426.0,1472.2 1399.4,1476.5 1372.8,1480.7 1346.1,1484.5 1319.5,1488.2 1292.9,1491.5 1266.3,1494.7 1239.8,1497.6 1213.2,1500.3 1186.7,1502.7 1160.3,1504.9 1134.0,1506.9 1107.7,1508.7 1081.5,1510.2 1055.4,1511.6 1029.4,1512.7 1003.5,1513.7 977.7,1514.5  A 522.500,522.500 0.00 0,1 977.7,1486.7 L 977.7,1486.7 1003.1,1487.2 1028.7,1487.5 1054.5,1487.6 1080.4,1487.4 1106.4,1487.0 1132.5,1486.3 1158.7,1485.3 1185.0,1484.1 1211.4,1482.5 1237.9,1480.6 1264.4,1478.4 1290.9,1475.9 1317.4,1473.1 1344.0,1470.0 1370.6,1466.5 1397.1,1462.8 1423.6,1458.6 1450.1,1454.2 1476.6,1449.4 1502.9,1444.3 1529.3,1438.9 1555.5,1433.2 1581.6,1427.1 1607.7,1420.8 1633.6,1414.1 1659.4,1407.1 1685.1,1399.8 1710.7,1392.3 1736.1,1384.4 1761.3,1376.3 1786.4,1367.9 1811.3,1359.3 1836.0,1350.5 1860.5,1341.4 1884.8,1332.1 1908.9,1322.6 1932.8,1313.0 1956.4,1303.2 1979.8,1293.2  Z" style="stroke-width: 0.5;  stroke: rgb(0,0,0); fill: rgb(179,177,178);" />
<path d="M 1931.053,1204.705 A 522.500,522.500 0.00 0,1 1945.5,1227.0 L 1945.5,1227.0 1924.6,1239.6 1903.3,1252.0 1881.6,1264.2 1859.6,1276.1 1837.3,1287.6 1814.6,1298.8 1791.6,1309.7 1768.3,1320.2 1744.7,1330.2 1720.9,1339.8 1696.7,1349.0 1672.4,1357.7 1647.8,1365.8 1623.1,1373.5 1598.1,1380.7 1573.0,1387.3 1547.7,1393.4 1522.2,1398.9 1496.7,1403.9 1471.0,1408.3 1445.3,1412.2 1419.5,1415.4 1393.6,1418.2 1367.7,1420.3 1341.8,1421.9 1315.8,1422.9 1290.0,1423.4 1264.1,1423.4 1238.3,1422.8 1212.6,1421.7 1187.1,1420.1 1161.6,1418.0 1136.3,1415.4 1111.2,1412.4 1086.2,1409.0 1061.5,1405.2 1037.0,1401.0 1012.8,1396.4 988.9,1391.5  A 522.500,522.500 0.00 0,1 995.1,1365.6 L 995.1,1365.6 1018.4,1371.6 1042.1,1377.3 1066.1,1382.6 1090.3,1387.4 1114.8,1391.8 1139.5,1395.8 1164.3,1399.3 1189.4,1402.2 1214.6,1404.6 1239.9,1406.5 1265.2,1407.7 1290.7,1408.4 1316.2,1408.5 1341.8,1407.9 1367.3,1406.8 1392.8,1405.0 1418.3,1402.5 1443.7,1399.5 1469.1,1395.8 1494.3,1391.4 1519.5,1386.5 1544.5,1380.9 1569.3,1374.6 1594.0,1367.8 1618.4,1360.4 1642.7,1352.4 1666.7,1343.8 1690.5,1334.6 1714.0,1324.9 1737.2,1314.8 1760.1,1304.1 1782.8,1293.0 1805.0,1281.4 1827.0,1269.4 1848.6,1257.1 1869.8,1244.4 1890.6,1231.4 1911.0,1218.2 1931.1,1204.7  Z" style="stroke-width: 0.5;  stroke: rgb(0,0,0); fill: rgb(179,177,178);" />
<path d="M 1993.837,1670.678 A 522.500,522.500 0.00 0,1 1984.7,1695.2 L 1984.7,1695.2 1962.0,1686.3 1938.9,1677.6 1915.5,1669.2 1891.9,1661.2 1867.9,1653.5 1843.7,1646.2 1819.2,1639.4 1794.5,1633.0 1769.6,1627.0 1744.5,1621.5 1719.3,1616.5 1693.8,1612.1 1668.3,1608.1 1642.6,1604.7 1616.8,1601.9 1590.9,1599.6 1565.0,1597.9 1539.0,1596.7 1513.0,1596.1 1487.0,1596.1 1461.0,1596.7 1435.0,1597.9 1409.1,1599.6 1383.2,1601.9 1357.4,1604.8 1331.7,1608.2 1306.2,1612.1 1280.8,1616.6 1255.5,1621.6 1230.4,1627.0 1205.5,1633.0 1180.8,1639.4 1156.3,1646.3 1132.1,1653.6 1108.1,1661.2 1084.5,1669.3 1061.1,1677.6 1038.1,1686.3 1015.4,1695.3  A 522.500,522.500 0.00 0,1 1006.2,1670.7 L 1006.2,1670.7 1029.6,1662.8 1053.3,1655.1 1077.3,1647.8 1101.6,1640.7 1126.1,1633.9 1150.9,1627.5 1175.8,1621.5 1201.0,1615.9 1226.4,1610.6 1251.9,1605.8 1277.6,1601.4 1303.5,1597.5 1329.4,1594.1 1355.5,1591.1 1381.6,1588.6 1407.9,1586.6 1434.2,1585.1 1460.5,1584.1 1486.8,1583.6 1513.2,1583.6 1539.5,1584.1 1565.9,1585.1 1592.1,1586.6 1618.4,1588.6 1644.5,1591.1 1670.6,1594.1 1696.5,1597.5 1722.4,1601.4 1748.1,1605.8 1773.6,1610.6 1799.0,1615.8 1824.2,1621.5 1849.2,1627.5 1873.9,1633.9 1898.4,1640.6 1922.7,1647.7 1946.7,1655.1 1970.4,1662.8 1993.8,1670.7  Z" style="stroke-width: 0.5;  stroke: rgb(0,0,0); fill: rgb(179,177,178);" />
<path d="M 1952.416,1761.393 A 522.500,522.500 0.00 0,1 1943.0,1777.0 L 1943.0,1777.0 1922.9,1764.6 1902.3,1752.6 1881.3,1740.9 1859.9,1729.5 1838.1,1718.6 1816.0,1708.2 1793.6,1698.2 1770.8,1688.8 1747.8,1680.0 1724.5,1671.7 1700.9,1664.1 1677.1,1657.2 1653.2,1650.9 1629.0,1645.3 1604.7,1640.4 1580.3,1636.2 1555.7,1632.8 1531.0,1630.1 1506.3,1628.2 1481.6,1627.0 1456.8,1626.6 1432.0,1626.9 1407.2,1628.0 1382.5,1629.8 1357.8,1632.4 1333.2,1635.7 1308.8,1639.6 1284.4,1644.3 1260.3,1649.7 1236.3,1655.7 1212.5,1662.3 1189.0,1669.5 1165.7,1677.3 1142.7,1685.6 1120.0,1694.4 1097.6,1703.6 1075.6,1713.3 1053.9,1723.3 1032.7,1733.7  A 522.500,522.500 0.00 0,1 1024.8,1717.3 L 1024.8,1717.3 1046.6,1707.6 1068.8,1698.2 1091.3,1689.1 1114.1,1680.5 1137.3,1672.3 1160.8,1664.6 1184.5,1657.3 1208.5,1650.7 1232.6,1644.5 1257.0,1639.0 1281.6,1634.1 1306.3,1629.8 1331.2,1626.1 1356.1,1623.1 1381.2,1620.8 1406.3,1619.2 1431.4,1618.3 1456.6,1618.1 1481.8,1618.5 1506.9,1619.7 1532.0,1621.6 1557.0,1624.2 1582.0,1627.6 1606.8,1631.5 1631.6,1636.2 1656.1,1641.6 1680.5,1647.6 1704.7,1654.2 1728.7,1661.4 1752.4,1669.2 1775.9,1677.6 1799.2,1686.6 1822.1,1696.0 1844.7,1705.9 1867.0,1716.3 1888.9,1727.1 1910.5,1738.2 1931.7,1749.7 1952.4,1761.4  Z" style="stroke-width: 0.5;  stroke: rgb(0,0,0); fill: rgb(179,177,178);" />
<path d="M 1687.095,1012.146 A 522.500,522.500 0.00 0,1 1701.7,1018.0 L 1701.7,1018.0 1693.4,1037.3 1684.6,1056.4 1675.4,1075.2 1665.8,1093.6 1655.7,1111.4 1645.3,1128.7 1634.4,1145.2 1623.2,1160.9 1611.6,1175.8 1599.6,1189.7 1587.3,1202.6 1574.7,1214.4 1561.8,1225.0 1548.6,1234.5 1535.1,1242.8 1521.3,1249.8 1507.3,1255.5 1493.1,1259.9 1478.7,1263.0 1464.2,1264.8 1449.5,1265.2 1434.6,1264.3 1419.7,1262.1 1404.6,1258.6 1389.6,1253.7 1374.5,1247.7 1359.4,1240.4 1344.3,1232.0 1329.3,1222.4 1314.4,1211.7 1299.6,1200.1 1284.9,1187.5 1270.4,1174.0 1256.2,1159.7 1242.1,1144.8 1228.4,1129.2 1215.0,1113.2 1201.9,1096.7 1189.3,1080.0  A 522.500,522.500 0.00 0,1 1202.0,1070.8 L 1202.0,1070.8 1214.1,1087.8 1226.6,1104.6 1239.4,1121.0 1252.5,1136.8 1265.9,1152.1 1279.5,1166.7 1293.4,1180.5 1307.4,1193.4 1321.5,1205.3 1335.7,1216.2 1350.0,1226.1 1364.4,1234.8 1378.8,1242.3 1393.1,1248.6 1407.5,1253.6 1421.8,1257.3 1436.0,1259.7 1450.1,1260.7 1464.0,1260.4 1477.8,1258.7 1491.5,1255.7 1504.9,1251.3 1518.1,1245.6 1531.1,1238.6 1543.9,1230.3 1556.3,1220.8 1568.5,1210.1 1580.4,1198.2 1591.9,1185.3 1603.2,1171.3 1614.0,1156.3 1624.5,1140.4 1634.7,1123.8 1644.4,1106.4 1653.8,1088.3 1662.7,1069.8 1671.3,1050.8 1679.4,1031.6 1687.1,1012.1  Z" style="stroke-width: 0.5;  stroke: rgb(0,0,0); fill: rgb(179,177,178);" />
<path d="M 1701.229,1017.804 A 522.500,522.500 0.00 0,1 1713.1,1022.9 L 1713.1,1022.9 1704.3,1042.1 1695.0,1061.1 1685.3,1079.8 1675.2,1098.0 1664.6,1115.7 1653.6,1132.8 1642.1,1149.3 1630.3,1164.9 1618.2,1179.6 1605.6,1193.4 1592.8,1206.2 1579.5,1218.0 1566.0,1228.6 1552.2,1238.0 1538.1,1246.3 1523.8,1253.3 1509.2,1259.0 1494.4,1263.5 1479.4,1266.7 1464.2,1268.5 1448.9,1269.0 1433.5,1268.2 1418.0,1266.1 1402.3,1262.8 1386.7,1258.1 1371.0,1252.2 1355.4,1245.2 1339.7,1236.9 1324.2,1227.6 1308.7,1217.2 1293.3,1205.7 1278.1,1193.4 1263.1,1180.2 1248.4,1166.2 1233.8,1151.5 1219.6,1136.2 1205.7,1120.4 1192.2,1104.2 1179.0,1087.7  A 522.500,522.500 0.00 0,1 1189.3,1079.9 L 1189.3,1079.9 1202.0,1096.7 1215.1,1113.1 1228.5,1129.2 1242.2,1144.7 1256.2,1159.7 1270.5,1174.0 1284.9,1187.4 1299.6,1200.0 1314.4,1211.7 1329.3,1222.3 1344.3,1231.9 1359.4,1240.4 1374.4,1247.6 1389.5,1253.7 1404.6,1258.5 1419.6,1262.0 1434.5,1264.2 1449.4,1265.1 1464.1,1264.7 1478.6,1263.0 1493.0,1259.9 1507.2,1255.4 1521.2,1249.7 1534.9,1242.7 1548.4,1234.4 1561.6,1224.9 1574.5,1214.3 1587.1,1202.5 1599.4,1189.6 1611.3,1175.7 1622.9,1160.8 1634.1,1145.1 1644.9,1128.5 1655.4,1111.3 1665.4,1093.4 1675.0,1075.0 1684.2,1056.2 1692.9,1037.1 1701.2,1017.8  Z" style="stroke-width: 0.5;  stroke: rgb(0,0,0); fill: rgb(179,177,178);" />
<path d="M 1898.578,1162.151 A 522.500,522.500 0.00 0,1 1904.7,1169.6 L 1904.7,1169.6 1885.3,1185.3 1865.5,1200.9 1845.3,1216.4 1824.9,1231.7 1804.1,1246.8 1783.0,1261.8 1761.6,1276.5 1740.0,1291.0 1718.0,1305.2 1695.8,1319.1 1673.2,1332.7 1650.5,1346.1 1627.4,1359.1 1604.2,1371.7 1580.7,1384.1 1556.9,1396.0 1533.0,1407.6 1508.8,1418.8 1484.5,1429.6 1460.0,1440.0 1435.4,1450.1 1410.5,1459.7 1385.6,1468.9 1360.5,1477.7 1335.3,1486.1 1310.1,1494.1 1284.7,1501.7 1259.3,1508.9 1233.9,1515.6 1208.4,1522.0 1183.0,1528.0 1157.5,1533.6 1132.1,1538.8 1106.7,1543.6 1081.4,1548.1 1056.2,1552.2 1031.1,1556.0 1006.1,1559.4 981.3,1562.6  A 522.500,522.500 0.00 0,0 982.5,1572.1 L 982.5,1572.1 1007.3,1568.5 1032.2,1564.6 1057.2,1560.3 1082.4,1555.8 1107.6,1550.8 1132.9,1545.5 1158.2,1539.9 1183.5,1533.8 1208.9,1527.4 1234.2,1520.5 1259.5,1513.3 1284.8,1505.7 1310.0,1497.6 1335.1,1489.2 1360.1,1480.3 1385.0,1471.0 1409.8,1461.3 1434.4,1451.3 1458.9,1440.8 1483.2,1429.9 1507.3,1418.6 1531.3,1407.0 1555.0,1395.0 1578.5,1382.6 1601.8,1369.8 1624.8,1356.7 1647.6,1343.3 1670.1,1329.6 1692.4,1315.5 1714.4,1301.2 1736.1,1286.6 1757.5,1271.7 1778.6,1256.6 1799.4,1241.3 1819.9,1225.7 1840.0,1210.0 1859.9,1194.2 1879.4,1178.2 1898.6,1162.2  Z" style="stroke-width: 0.5;  stroke: rgb(0,0,0); fill: rgb(179,177,178);" />
<path d="M 1573.127,982.643 A 522.500,522.500 0.00 0,1 1582.0,984.0 L 1582.0,984.0 1578.7,1004.1 1575.1,1024.0 1571.2,1043.6 1567.0,1062.8 1562.5,1081.5 1557.8,1099.5 1552.8,1116.8 1547.5,1133.2 1541.9,1148.6 1536.0,1163.0 1529.9,1176.3 1523.5,1188.4 1516.9,1199.3 1510.0,1208.8 1502.8,1217.0 1495.5,1223.8 1487.9,1229.2 1480.1,1233.1 1472.1,1235.6 1463.9,1236.6 1455.5,1236.1 1447.0,1234.1 1438.3,1230.7 1429.5,1225.9 1420.7,1219.6 1411.7,1212.0 1402.6,1203.1 1393.5,1192.9 1384.4,1181.4 1375.3,1168.9 1366.2,1155.2 1357.1,1140.6 1348.1,1125.0 1339.2,1108.6 1330.4,1091.6 1321.7,1073.9 1313.2,1055.8 1305.0,1037.3 1296.9,1018.6  A 522.500,522.500 0.00 0,1 1303.9,1015.7 L 1303.9,1015.7 1311.6,1034.5 1319.6,1053.1 1327.8,1071.3 1336.1,1089.0 1344.6,1106.2 1353.1,1122.7 1361.8,1138.3 1370.5,1153.1 1379.2,1166.8 1388.0,1179.5 1396.7,1191.0 1405.4,1201.3 1414.0,1210.4 1422.6,1218.1 1431.0,1224.4 1439.4,1229.3 1447.6,1232.8 1455.7,1234.8 1463.6,1235.3 1471.3,1234.3 1478.9,1231.9 1486.2,1228.0 1493.3,1222.7 1500.3,1215.9 1506.9,1207.7 1513.4,1198.2 1519.6,1187.3 1525.5,1175.2 1531.2,1161.9 1536.6,1147.5 1541.8,1132.1 1546.6,1115.6 1551.2,1098.4 1555.6,1080.3 1559.6,1061.6 1563.4,1042.4 1566.9,1022.7 1570.2,1002.7 1573.1,982.6  Z" style="stroke-width: 0.5;  stroke: rgb(0,0,0); fill: rgb(179,177,178);" />
<path d="M 2021.100,1538.223 A 522.500,522.500 0.00 0,1 2020.6,1545.0 L 2020.6,1545.0 1994.5,1542.8 1968.3,1540.7 1942.1,1538.7 1915.7,1536.9 1889.3,1535.1 1862.8,1533.5 1836.3,1532.0 1809.6,1530.6 1782.9,1529.4 1756.2,1528.3 1729.4,1527.3 1702.5,1526.5 1675.7,1525.9 1648.8,1525.4 1621.8,1525.0 1594.9,1524.8 1567.9,1524.8 1540.9,1524.9 1513.9,1525.2 1486.9,1525.6 1459.9,1526.2 1433.0,1527.0 1406.0,1527.9 1379.1,1529.0 1352.1,1530.2 1325.3,1531.6 1298.4,1533.1 1271.6,1534.8 1244.9,1536.6 1218.2,1538.5 1191.5,1540.6 1165.0,1542.9 1138.5,1545.2 1112.0,1547.7 1085.7,1550.3 1059.4,1553.1 1033.2,1555.9 1007.2,1558.8 981.2,1561.9  A 522.500,522.500 0.00 0,1 980.4,1555.1 L 980.4,1555.1 1006.5,1552.4 1032.7,1549.8 1059.0,1547.2 1085.3,1544.8 1111.7,1542.4 1138.2,1540.2 1164.8,1538.1 1191.4,1536.1 1218.1,1534.2 1244.8,1532.4 1271.6,1530.8 1298.4,1529.3 1325.2,1527.9 1352.1,1526.6 1379.0,1525.5 1406.0,1524.5 1432.9,1523.7 1459.9,1523.0 1486.9,1522.4 1513.9,1521.9 1540.8,1521.6 1567.8,1521.5 1594.8,1521.4 1621.7,1521.6 1648.7,1521.8 1675.6,1522.2 1702.5,1522.7 1729.3,1523.3 1756.1,1524.1 1782.9,1525.0 1809.6,1526.0 1836.3,1527.2 1862.9,1528.4 1889.4,1529.8 1915.9,1531.3 1942.3,1532.9 1968.7,1534.6 1994.9,1536.3 2021.1,1538.2  Z" style="stroke-width: 0.5;  stroke: rgb(0,0,0); fill: rgb(179,177,178);" />
</g>
<g id="plot0">
<g id="plot0-axis">
</g>
<line x1='2244.1' y1='1594.2' x2='2244.1' y2='1594.2' style="stroke-width:14.0;stroke:rgb(0,0,0);stroke-linecap:round;fill:none;" />
<line x1='2244.1' y1='1594.2' x2='2283.7' y2='1599.2' style="stroke-width:14.0;stroke:rgb(0,0,0);stroke-linecap:round;fill:none;" />
<line x1='2283.7' y1='1599.2' x2='2283.7' y2='1599.2' style="stroke-width:14.0;stroke:rgb(0,0,0);stroke-linecap:round;fill:none;" />
<text x="2300.5" y="1624.0" font-size="46.8px" font-family="CMUBright-Roman" style="text-anchor:start;fill:rgb(255,38,78);" transform="rotate(7.2,2300.5,1624.0)" >HistoohiSECH96<tspan baseline-shift="-40%" font-size="90%">s</tspan>02829</text>
</g>
<defs>
<pattern id="vline" width="10" height="10" patternTransform="rotate(0 0 0)" patternUnits="userSpaceOnUse"><line x1="0" y1="0" x2="0" y2="10" style="stroke:black;stroke-width:5" /></pattern>
<pattern id="checker" width="10" height="10" patternTransform="rotate(45 0 0)" patternUnits="userSpaceOnUse"><line x1="0" y1="0" x2="10" y2="0" style="stroke:black;stroke-width:2" /><line x1="0" y1="0" x2="0" y2="10" style="stroke:black;stroke-width:2" /></pattern>
<pattern id="hline-sparse" width="10" height="10" patternTransform="rotate(0 0 0)" patternUnits="userSpaceOnUse"><line x1="0" y1="0" x2="10" y2="0" style="stroke:black;stroke-width:2" /></pattern>
<pattern id="vline-sparse" width="10" height="10" patternTransform="rotate(0 0 0)" patternUnits="userSpaceOnUse"><line x1="0" y1="0" x2="0" y2="10" style="stroke:black;stroke-width:2" /></pattern>
<pattern id="checker" width="10" height="10" patternTransform="rotate(45 0 0)" patternUnits="userSpaceOnUse"><line x1="0" y1="0" x2="10" y2="0" style="stroke:black;stroke-width:5" /><line x1="0" y1="0" x2="0" y2="10" style="stroke:black;stroke-width:4" /></pattern>
<pattern id="hline" width="10" height="10" patternTransform="rotate(0 0 0)" patternUnits="userSpaceOnUse"><line x1="0" y1="0" x2="10" y2="0" style="stroke:black;stroke-width:5" /></pattern>
</defs>
</svg>
