<?xml version="1.0" encoding="utf-8" standalone="no"?>
<!DOCTYPE svg PUBLIC "-//W3C//DTD SVG 1.1//EN" "http://www.w3.org/Graphics/SVG/1.1/DTD/svg11.dtd">
<svg width="3000px" height="3000px" version="1.1" xmlns="http://www.w3.org/2000/svg" xmlns:xlink="http://www.w3.org/1999/xlink">
<g id="bg">
<rect x="0" y="0" width="3000px" height="3000px" style="fill:rgb(255,255,255);"/>
</g>
<g id="ideograms">
<path d="M1500.000,950.000 A550.000,550.000 40.000 0,1 1659.674,2026.312 L1717.737,2217.698 A750.000,750.000 0.000 0,0 1500.000,750.000 Z" style="stroke-width:2.0;stroke:rgb(0,0,0);stroke-linecap:round;fill:rgb(179,177,178);" />
<text x="2464.4" y="1356.9" font-size="46.8px" font-family="CMUBright-Roman" style="text-anchor:middle;fill:rgb(0,0,0);" transform="rotate(441.6,2464.4,1356.9)" >HistocapSECH107<tspan baseline-shift="-40%" font-size="90%">4</tspan></text>
<line x1='1507.7' y1='750.0' x2='1507.8' y2='738.0' style="stroke-width:8.0;stroke:rgb(150,150,150);stroke-linecap:round;fill:none;" />
<line x1='1605.9' y1='757.5' x2='1607.6' y2='745.6' style="stroke-width:8.0;stroke:rgb(150,150,150);stroke-linecap:round;fill:none;" />
<line x1='1702.3' y1='777.8' x2='1705.5' y2='766.2' style="stroke-width:8.0;stroke:rgb(150,150,150);stroke-linecap:round;fill:none;" />
<line x1='1795.1' y1='810.5' x2='1799.8' y2='799.5' style="stroke-width:8.0;stroke:rgb(150,150,150);stroke-linecap:round;fill:none;" />
<text x="1817.4" y="794.1" font-size="41.6px" font-family="CMUBright-Roman" style="text-anchor:start;fill:rgb(150,150,150);" transform="rotate(293.2,1817.4,794.1)" >500 kb</text>
<line x1='1882.9' y1='855.1' x2='1889.0' y2='844.8' style="stroke-width:8.0;stroke:rgb(150,150,150);stroke-linecap:round;fill:none;" />
<line x1='1964.1' y1='910.8' x2='1971.5' y2='901.4' style="stroke-width:8.0;stroke:rgb(150,150,150);stroke-linecap:round;fill:none;" />
<line x1='2037.3' y1='976.7' x2='2045.9' y2='968.3' style="stroke-width:8.0;stroke:rgb(150,150,150);stroke-linecap:round;fill:none;" />
<line x1='2101.2' y1='1051.6' x2='2110.8' y2='1044.4' style="stroke-width:8.0;stroke:rgb(150,150,150);stroke-linecap:round;fill:none;" />
<line x1='2154.8' y1='1134.2' x2='2165.2' y2='1128.4' style="stroke-width:8.0;stroke:rgb(150,150,150);stroke-linecap:round;fill:none;" />
<text x="2182.4" y="1134.8" font-size="41.6px" font-family="CMUBright-Roman" style="text-anchor:start;fill:rgb(150,150,150);" transform="rotate(330.8,2182.4,1134.8)" >550 kb</text>
<line x1='2197.0' y1='1223.2' x2='2208.2' y2='1218.7' style="stroke-width:8.0;stroke:rgb(150,150,150);stroke-linecap:round;fill:none;" />
<line x1='2227.3' y1='1316.9' x2='2238.9' y2='1314.0' style="stroke-width:8.0;stroke:rgb(150,150,150);stroke-linecap:round;fill:none;" />
<line x1='2245.0' y1='1413.7' x2='2256.9' y2='1412.4' style="stroke-width:8.0;stroke:rgb(150,150,150);stroke-linecap:round;fill:none;" />
<line x1='2249.9' y1='1512.1' x2='2261.9' y2='1512.3' style="stroke-width:8.0;stroke:rgb(150,150,150);stroke-linecap:round;fill:none;" />
<line x1='2241.9' y1='1610.2' x2='2253.7' y2='1612.0' style="stroke-width:8.0;stroke:rgb(150,150,150);stroke-linecap:round;fill:none;" />
<text x="2263.4" y="1627.6" font-size="41.6px" font-family="CMUBright-Roman" style="text-anchor:start;fill:rgb(150,150,150);" transform="rotate(8.5,2263.4,1627.6)" >600 kb</text>
<line x1='2221.0' y1='1706.5' x2='2232.6' y2='1709.8' style="stroke-width:8.0;stroke:rgb(150,150,150);stroke-linecap:round;fill:none;" />
<line x1='2187.8' y1='1799.2' x2='2198.8' y2='1803.9' style="stroke-width:8.0;stroke:rgb(150,150,150);stroke-linecap:round;fill:none;" />
<line x1='2142.6' y1='1886.7' x2='2152.9' y2='1892.9' style="stroke-width:8.0;stroke:rgb(150,150,150);stroke-linecap:round;fill:none;" />
<line x1='2086.4' y1='1967.5' x2='2095.8' y2='1975.0' style="stroke-width:8.0;stroke:rgb(150,150,150);stroke-linecap:round;fill:none;" />
<line x1='2020.1' y1='2040.3' x2='2028.5' y2='2049.0' style="stroke-width:8.0;stroke:rgb(150,150,150);stroke-linecap:round;fill:none;" />
<text x="2026.6" y="2067.2" font-size="41.6px" font-family="CMUBright-Roman" style="text-anchor:start;fill:rgb(150,150,150);" transform="rotate(46.1,2026.6,2067.2)" >650 kb</text>
<line x1='1944.9' y1='2103.8' x2='1952.0' y2='2113.5' style="stroke-width:8.0;stroke:rgb(150,150,150);stroke-linecap:round;fill:none;" />
<line x1='1861.9' y1='2156.9' x2='1867.7' y2='2167.4' style="stroke-width:8.0;stroke:rgb(150,150,150);stroke-linecap:round;fill:none;" />
<line x1='1772.7' y1='2198.7' x2='1777.1' y2='2209.8' style="stroke-width:8.0;stroke:rgb(150,150,150);stroke-linecap:round;fill:none;" />
<g id="highlighttrack_0">
<path d="M2031.947,1360.243 A550.000,550.000 40.000 0,1 2049.611,1479.305 L2249.469,1471.780 A750.000,750.000 0.000 0,0 2225.383,1309.422 Z" style="stroke-width:14.0;stroke:rgb(0,0,0);stroke-linecap:round;fill:rgb(255,38,78);" />
</g>
<path d="M1500.000,950.000 A550.000,550.000 40.000 0,1 1659.674,2026.312 L1717.737,2217.698 A750.000,750.000 0.000 0,0 1500.000,750.000 Z" style="stroke-width:2.0;stroke:rgb(0,0,0);stroke-linecap:round;fill:none;" />
<path d="M1445.308,2047.274 A550.000,550.000 40.000 0,1 1288.781,992.175 L1211.974,807.511 A750.000,750.000 0.000 0,0 1425.420,2246.283 Z" style="stroke-width:2.0;stroke:rgb(0,0,0);stroke-linecap:round;fill:rgb(179,177,178);" />
<text x="492.0" y="1649.5" font-size="46.8px" font-family="CMUBright-Roman" style="text-anchor:middle;fill:rgb(0,0,0);" transform="rotate(81.6,492.0,1649.5)" >HistocapES285Z<tspan baseline-shift="-40%" font-size="90%">4</tspan></text>
<line x1='1167.6' y1='827.7' x2='1162.3' y2='816.9' style="stroke-width:8.0;stroke:rgb(150,150,150);stroke-linecap:round;fill:none;" />
<line x1='1082.4' y1='877.0' x2='1075.7' y2='867.1' style="stroke-width:8.0;stroke:rgb(150,150,150);stroke-linecap:round;fill:none;" />
<line x1='1004.3' y1='937.1' x2='996.4' y2='928.1' style="stroke-width:8.0;stroke:rgb(150,150,150);stroke-linecap:round;fill:none;" />
<line x1='934.9' y1='1006.9' x2='925.8' y2='999.0' style="stroke-width:8.0;stroke:rgb(150,150,150);stroke-linecap:round;fill:none;" />
<text x="907.7" y="1001.8" font-size="41.6px" font-family="CMUBright-Roman" style="text-anchor:end;fill:rgb(150,150,150);" transform="rotate(41.1,907.7,1001.8)" >600 kb</text>
<line x1='875.1' y1='1085.2' x2='865.2' y2='1078.6' style="stroke-width:8.0;stroke:rgb(150,150,150);stroke-linecap:round;fill:none;" />
<line x1='826.2' y1='1170.6' x2='815.4' y2='1165.4' style="stroke-width:8.0;stroke:rgb(150,150,150);stroke-linecap:round;fill:none;" />
<line x1='788.8' y1='1261.7' x2='777.5' y2='1257.9' style="stroke-width:8.0;stroke:rgb(150,150,150);stroke-linecap:round;fill:none;" />
<line x1='763.8' y1='1357.0' x2='752.0' y2='1354.7' style="stroke-width:8.0;stroke:rgb(150,150,150);stroke-linecap:round;fill:none;" />
<line x1='751.4' y1='1454.7' x2='739.4' y2='1453.9' style="stroke-width:8.0;stroke:rgb(150,150,150);stroke-linecap:round;fill:none;" />
<text x="726.7" y="1467.2" font-size="41.6px" font-family="CMUBright-Roman" style="text-anchor:end;fill:rgb(150,150,150);" transform="rotate(3.5,726.7,1467.2)" >650 kb</text>
<line x1='751.9' y1='1553.1' x2='739.9' y2='1554.0' style="stroke-width:8.0;stroke:rgb(150,150,150);stroke-linecap:round;fill:none;" />
<line x1='765.3' y1='1650.7' x2='753.5' y2='1653.1' style="stroke-width:8.0;stroke:rgb(150,150,150);stroke-linecap:round;fill:none;" />
<line x1='791.4' y1='1745.6' x2='780.0' y2='1749.6' style="stroke-width:8.0;stroke:rgb(150,150,150);stroke-linecap:round;fill:none;" />
<line x1='829.7' y1='1836.4' x2='818.9' y2='1841.7' style="stroke-width:8.0;stroke:rgb(150,150,150);stroke-linecap:round;fill:none;" />
<line x1='879.5' y1='1921.3' x2='869.6' y2='1928.0' style="stroke-width:8.0;stroke:rgb(150,150,150);stroke-linecap:round;fill:none;" />
<text x="867.6" y="1946.3" font-size="41.6px" font-family="CMUBright-Roman" style="text-anchor:end;fill:rgb(150,150,150);" transform="rotate(-34.2,867.6,1946.3)" >700 kb</text>
<line x1='940.0' y1='1998.9' x2='931.1' y2='2006.9' style="stroke-width:8.0;stroke:rgb(150,150,150);stroke-linecap:round;fill:none;" />
<line x1='1010.2' y1='2068.0' x2='1002.4' y2='2077.1' style="stroke-width:8.0;stroke:rgb(150,150,150);stroke-linecap:round;fill:none;" />
<line x1='1088.9' y1='2127.3' x2='1082.3' y2='2137.3' style="stroke-width:8.0;stroke:rgb(150,150,150);stroke-linecap:round;fill:none;" />
<line x1='1174.6' y1='2175.7' x2='1169.4' y2='2186.5' style="stroke-width:8.0;stroke:rgb(150,150,150);stroke-linecap:round;fill:none;" />
<line x1='1265.9' y1='2212.5' x2='1262.2' y2='2223.9' style="stroke-width:8.0;stroke:rgb(150,150,150);stroke-linecap:round;fill:none;" />
<text x="1271.8" y="2239.6" font-size="41.6px" font-family="CMUBright-Roman" style="text-anchor:end;fill:rgb(150,150,150);" transform="rotate(-71.8,1271.8,2239.6)" >750 kb</text>
<line x1='1361.3' y1='2237.1' x2='1359.1' y2='2248.9' style="stroke-width:8.0;stroke:rgb(150,150,150);stroke-linecap:round;fill:none;" />
<path d="M1445.308,2047.274 A550.000,550.000 40.000 0,1 1288.781,992.175 L1211.974,807.511 A750.000,750.000 0.000 0,0 1425.420,2246.283 Z" style="stroke-width:2.0;stroke:rgb(0,0,0);stroke-linecap:round;fill:none;" />
</g>
<g id="track_0">
<path d="M 1819.202,1086.338 A 522.500,522.500 0.00 0,1 1951.1,1236.4 L 1951.1,1236.4 1930.3,1248.3 1909.1,1259.9 1887.5,1271.3 1865.5,1282.3 1843.2,1292.9 1820.5,1303.1 1797.5,1312.9 1774.3,1322.1 1750.7,1330.9 1726.9,1339.1 1702.9,1346.7 1678.6,1353.8 1654.1,1360.3 1629.4,1366.1 1604.6,1371.4 1579.7,1375.9 1554.6,1379.9 1529.4,1383.1 1504.1,1385.7 1478.8,1387.6 1453.4,1388.9 1428.0,1389.4 1402.6,1389.3 1377.3,1388.5 1351.9,1387.1 1326.7,1385.0 1301.5,1382.3 1276.4,1378.9 1251.5,1375.0 1226.7,1370.4 1202.1,1365.3 1177.7,1359.6 1153.6,1353.4 1129.6,1346.8 1106.0,1339.6 1082.6,1332.0 1059.5,1324.1 1036.8,1315.7 1014.4,1307.1  A 522.500,522.500 0.00 0,1 1122.3,1138.9 L 1122.3,1138.9 1138.3,1153.9 1154.8,1168.5 1171.7,1182.7 1189.0,1196.4 1206.7,1209.5 1224.7,1222.0 1243.0,1233.8 1261.5,1244.7 1280.4,1254.9 1299.4,1264.1 1318.6,1272.4 1337.9,1279.8 1357.4,1286.1 1377.0,1291.3 1396.6,1295.5 1416.2,1298.6 1435.9,1300.5 1455.6,1301.3 1475.2,1301.0 1494.7,1299.5 1514.1,1296.9 1533.4,1293.2 1552.6,1288.3 1571.6,1282.3 1590.3,1275.2 1608.9,1267.1 1627.2,1257.9 1645.2,1247.8 1662.9,1236.7 1680.4,1224.7 1697.4,1211.8 1714.1,1198.2 1730.5,1183.8 1746.4,1168.8 1761.9,1153.2 1776.9,1137.0 1791.5,1120.4 1805.6,1103.5 1819.2,1086.3  Z" style="stroke-width: 0.5;  stroke: rgb(0,0,0); fill: rgb(179,177,178);" />
<path d="M 1899.957,1836.215 A 522.500,522.500 0.00 0,1 1751.0,1958.2 L 1751.0,1958.2 1740.6,1939.7 1729.6,1921.3 1718.2,1903.3 1706.4,1885.7 1694.1,1868.6 1681.4,1852.1 1668.3,1836.3 1654.8,1821.4 1641.0,1807.2 1626.8,1794.0 1612.2,1781.8 1597.4,1770.6 1582.3,1760.5 1566.9,1751.5 1551.2,1743.7 1535.3,1737.1 1519.3,1731.7 1503.0,1727.5 1486.6,1724.7 1470.0,1723.1 1453.3,1722.7 1436.6,1723.7 1419.8,1725.9 1402.9,1729.3 1386.1,1734.0 1369.2,1739.8 1352.4,1746.8 1335.7,1755.0 1319.1,1764.2 1302.6,1774.4 1286.3,1785.6 1270.2,1797.7 1254.3,1810.7 1238.7,1824.4 1223.4,1838.8 1208.4,1853.8 1193.7,1869.4 1179.4,1885.3 1165.6,1901.5  A 522.500,522.500 0.00 0,0 1333.7,1995.3 L 1333.7,1995.3 1340.7,1975.2 1348.3,1955.2 1356.3,1935.4 1364.8,1916.0 1373.9,1897.0 1383.5,1878.6 1393.6,1860.8 1404.3,1843.6 1415.4,1827.3 1427.1,1811.8 1439.2,1797.1 1451.8,1783.5 1464.9,1770.9 1478.5,1759.3 1492.5,1748.9 1507.0,1739.6 1521.9,1731.4 1537.2,1724.5 1552.8,1718.8 1568.9,1714.3 1585.2,1711.0 1601.9,1709.0 1618.8,1708.2 1636.0,1708.6 1653.4,1710.2 1671.0,1713.0 1688.8,1716.9 1706.7,1722.0 1724.7,1728.1 1742.7,1735.3 1760.7,1743.5 1778.7,1752.6 1796.6,1762.5 1814.4,1773.3 1832.1,1784.7 1849.5,1796.9 1866.6,1809.5 1883.5,1822.7 1900.0,1836.2  Z" style="stroke-width: 0.5;  stroke: rgb(0,0,0); fill: rgb(179,177,178);" />
<path d="M 1899.957,1836.215 A 522.500,522.500 0.00 0,1 1751.0,1958.2 L 1751.0,1958.2 1741.1,1940.4 1730.9,1922.9 1720.6,1905.6 1710.1,1888.9 1699.5,1872.8 1688.8,1857.4 1678.0,1842.8 1667.3,1829.2 1656.6,1816.5 1645.9,1804.9 1635.3,1794.4 1624.9,1785.1 1614.6,1777.1 1604.4,1770.4 1594.5,1765.1 1584.7,1761.1 1575.2,1758.5 1566.0,1757.4 1557.0,1757.8 1548.3,1759.5 1539.9,1762.7 1531.8,1767.4 1524.1,1773.4 1516.6,1780.9 1509.6,1789.7 1502.9,1799.8 1496.5,1811.2 1490.5,1823.9 1484.9,1837.6 1479.6,1852.5 1474.7,1868.4 1470.1,1885.1 1466.0,1902.8 1462.1,1921.1 1458.6,1940.1 1455.5,1959.6 1452.7,1979.5 1450.2,1999.6 1448.0,2019.9  A 522.500,522.500 0.00 0,1 1378.6,2008.2 L 1378.6,2008.2 1383.7,1987.7 1389.4,1967.3 1395.5,1947.1 1402.2,1927.2 1409.4,1907.8 1417.1,1888.8 1425.3,1870.5 1434.1,1852.9 1443.5,1836.0 1453.3,1820.0 1463.7,1804.9 1474.7,1790.8 1486.1,1777.7 1498.1,1765.7 1510.6,1754.8 1523.6,1745.0 1537.1,1736.4 1551.0,1729.1 1565.3,1723.0 1580.1,1718.1 1595.3,1714.5 1610.9,1712.1 1626.8,1711.0 1643.0,1711.1 1659.6,1712.4 1676.4,1714.9 1693.4,1718.6 1710.6,1723.5 1727.9,1729.4 1745.4,1736.4 1762.9,1744.4 1780.5,1753.4 1798.0,1763.2 1815.5,1773.8 1832.8,1785.2 1850.0,1797.2 1866.9,1809.7 1883.6,1822.8 1900.0,1836.2  Z" style="stroke-width: 0.5;  stroke: rgb(0,0,0); fill: rgb(179,177,178);" />
<path d="M 2011.983,1604.305 A 522.500,522.500 0.00 0,1 1966.3,1735.8 L 1966.3,1735.8 1945.4,1725.5 1924.0,1715.5 1902.3,1706.0 1880.2,1696.9 1857.8,1688.3 1835.2,1680.2 1812.2,1672.7 1789.0,1665.9 1765.6,1659.7 1742.0,1654.2 1718.3,1649.4 1694.4,1645.3 1670.4,1642.0 1646.3,1639.4 1622.2,1637.7 1598.0,1636.8 1573.9,1636.6 1549.7,1637.3 1525.7,1638.8 1501.6,1641.2 1477.7,1644.3 1453.9,1648.3 1430.2,1653.1 1406.7,1658.7 1383.3,1665.1 1360.2,1672.2 1337.3,1680.1 1314.7,1688.7 1292.3,1698.0 1270.2,1707.9 1248.4,1718.5 1227.0,1729.7 1205.9,1741.5 1185.2,1753.8 1164.9,1766.5 1145.0,1779.7 1125.5,1793.3 1106.5,1807.2 1088.0,1821.3  A 522.500,522.500 0.00 0,1 1017.8,1701.3 L 1017.8,1701.3 1040.9,1691.8 1064.3,1682.6 1087.9,1673.5 1111.8,1664.8 1136.0,1656.3 1160.4,1648.1 1185.0,1640.2 1209.9,1632.7 1235.0,1625.5 1260.3,1618.7 1285.7,1612.3 1311.3,1606.2 1337.1,1600.6 1363.0,1595.4 1389.0,1590.6 1415.1,1586.2 1441.4,1582.3 1467.7,1578.8 1494.1,1575.8 1520.5,1573.2 1546.9,1571.1 1573.4,1569.4 1599.9,1568.2 1626.4,1567.4 1652.9,1567.1 1679.3,1567.2 1705.7,1567.7 1731.9,1568.7 1758.2,1570.1 1784.3,1571.9 1810.3,1574.1 1836.1,1576.7 1861.8,1579.7 1887.4,1583.0 1912.7,1586.6 1937.9,1590.6 1962.8,1594.9 1987.5,1599.5 2012.0,1604.3  Z" style="stroke-width: 0.5;  stroke: rgb(0,0,0); fill: rgb(179,177,178);" />
<path d="M 1714.242,1023.443 A 522.500,522.500 0.00 0,1 1814.2,1082.5 L 1814.2,1082.5 1800.8,1099.8 1787.0,1116.9 1772.7,1133.6 1757.9,1149.8 1742.6,1165.6 1726.9,1180.7 1710.8,1195.2 1694.4,1209.0 1677.6,1221.9 1660.4,1234.0 1642.9,1245.2 1625.1,1255.4 1607.1,1264.7 1588.7,1272.8 1570.2,1280.0 1551.5,1286.0 1532.6,1290.9 1513.5,1294.7 1494.3,1297.3 1475.0,1298.7 1455.7,1299.1 1436.2,1298.2 1416.8,1296.2 1397.4,1293.1 1378.0,1288.8 1358.7,1283.5 1339.4,1277.1 1320.3,1269.7 1301.3,1261.3 1282.5,1251.9 1263.9,1241.6 1245.6,1230.5 1227.5,1218.6 1209.7,1206.0 1192.3,1192.7 1175.2,1178.9 1158.5,1164.6 1142.2,1149.8 1126.4,1134.7  A 522.500,522.500 0.00 0,1 1216.2,1061.3 L 1216.2,1061.3 1227.8,1078.8 1239.7,1096.0 1252.0,1112.8 1264.7,1129.1 1277.6,1144.9 1290.8,1159.9 1304.3,1174.2 1318.0,1187.6 1331.8,1200.0 1345.8,1211.5 1360.0,1221.9 1374.2,1231.1 1388.5,1239.2 1402.9,1246.0 1417.3,1251.6 1431.7,1255.9 1446.1,1258.8 1460.4,1260.5 1474.7,1260.7 1488.9,1259.7 1502.9,1257.2 1516.8,1253.5 1530.6,1248.4 1544.2,1241.9 1557.6,1234.3 1570.8,1225.3 1583.7,1215.2 1596.4,1203.9 1608.8,1191.5 1620.9,1178.1 1632.7,1163.6 1644.2,1148.3 1655.4,1132.2 1666.1,1115.3 1676.6,1097.8 1686.6,1079.8 1696.2,1061.3 1705.4,1042.5 1714.2,1023.4  Z" style="stroke-width: 0.5;  stroke: rgb(0,0,0); fill: rgb(179,177,178);" />
<path d="M 1964.162,1739.917 A 522.500,522.500 0.00 0,1 1906.1,1828.8 L 1906.1,1828.8 1888.6,1815.1 1870.8,1801.7 1852.5,1788.7 1833.8,1776.2 1814.8,1764.3 1795.4,1753.0 1775.8,1742.4 1755.9,1732.6 1735.7,1723.6 1715.4,1715.5 1694.9,1708.2 1674.3,1701.9 1653.5,1696.6 1632.7,1692.2 1611.9,1688.9 1591.0,1686.6 1570.2,1685.4 1549.3,1685.3 1528.6,1686.2 1507.9,1688.2 1487.4,1691.3 1467.0,1695.5 1446.7,1700.7 1426.7,1706.9 1406.9,1714.2 1387.3,1722.5 1368.0,1731.8 1349.0,1741.9 1330.3,1753.0 1311.9,1764.9 1293.9,1777.7 1276.2,1791.1 1259.0,1805.3 1242.2,1820.1 1225.8,1835.4 1209.9,1851.3 1194.4,1867.6 1179.5,1884.2 1165.1,1901.0  A 522.500,522.500 0.00 0,1 1090.8,1824.9 L 1090.8,1824.9 1109.2,1810.6 1128.0,1796.6 1147.3,1782.9 1167.1,1769.6 1187.2,1756.7 1207.8,1744.3 1228.7,1732.4 1250.0,1721.1 1271.7,1710.4 1293.6,1700.4 1315.9,1691.0 1338.4,1682.3 1361.2,1674.4 1384.2,1667.2 1407.4,1660.8 1430.8,1655.2 1454.3,1650.4 1478.0,1646.4 1501.9,1643.2 1525.8,1640.9 1549.8,1639.4 1573.8,1638.8 1597.8,1638.9 1621.9,1639.9 1645.9,1641.7 1669.9,1644.4 1693.7,1647.8 1717.5,1651.9 1741.1,1656.9 1764.6,1662.5 1787.9,1668.8 1811.0,1675.8 1833.8,1683.4 1856.4,1691.6 1878.6,1700.4 1900.6,1709.6 1922.2,1719.3 1943.4,1729.4 1964.2,1739.9  Z" style="stroke-width: 0.5;  stroke: rgb(0,0,0); fill: rgb(179,177,178);" />
<path d="M 1974.154,1280.490 A 522.500,522.500 0.00 0,1 2005.3,1367.2 L 2005.3,1367.2 1979.8,1373.9 1954.2,1380.5 1928.5,1387.1 1902.7,1393.7 1876.9,1400.1 1851.0,1406.5 1825.0,1412.9 1799.0,1419.1 1773.0,1425.3 1746.9,1431.5 1720.8,1437.5 1694.6,1443.5 1668.4,1449.4 1642.1,1455.2 1615.8,1460.9 1589.5,1466.5 1563.1,1472.0 1536.7,1477.5 1510.3,1482.9 1483.9,1488.1 1457.5,1493.3 1431.0,1498.4 1404.5,1503.4 1378.1,1508.3 1351.6,1513.2 1325.1,1517.9 1298.6,1522.5 1272.2,1527.1 1245.7,1531.5 1219.3,1535.9 1192.8,1540.2 1166.4,1544.4 1140.0,1548.5 1113.7,1552.5 1087.3,1556.5 1061.1,1560.3 1034.8,1564.1 1008.6,1567.8 982.4,1571.5  A 522.500,522.500 0.00 0,1 977.9,1479.7 L 977.9,1479.7 1003.2,1480.6 1028.7,1481.2 1054.3,1481.5 1080.1,1481.6 1106.0,1481.5 1132.1,1481.0 1158.2,1480.2 1184.5,1479.1 1210.8,1477.7 1237.2,1475.9 1263.6,1473.9 1290.1,1471.4 1316.6,1468.7 1343.1,1465.6 1369.6,1462.1 1396.0,1458.3 1422.5,1454.1 1448.9,1449.5 1475.3,1444.6 1501.5,1439.4 1527.8,1433.8 1553.9,1427.8 1579.9,1421.5 1605.8,1414.8 1631.6,1407.9 1657.3,1400.5 1682.8,1392.9 1708.2,1385.0 1733.4,1376.7 1758.4,1368.2 1783.2,1359.4 1807.9,1350.3 1832.3,1341.0 1856.5,1331.4 1880.5,1321.6 1904.3,1311.6 1927.8,1301.4 1951.1,1291.0 1974.2,1280.5  Z" style="stroke-width: 0.5;  stroke: rgb(0,0,0); fill: rgb(179,177,178);" />
<path d="M 1554.280,980.327 A 522.500,522.500 0.00 0,1 1642.4,997.3 L 1642.4,997.3 1636.6,1017.2 1630.4,1036.9 1623.7,1056.3 1616.7,1075.3 1609.3,1093.8 1601.5,1111.7 1593.3,1128.9 1584.8,1145.2 1575.9,1160.7 1566.6,1175.1 1557.0,1188.5 1547.0,1200.8 1536.7,1211.9 1526.1,1221.8 1515.2,1230.4 1504.0,1237.7 1492.6,1243.7 1480.9,1248.3 1468.9,1251.5 1456.7,1253.3 1444.4,1253.7 1431.8,1252.8 1419.1,1250.5 1406.3,1246.8 1393.3,1241.7 1380.3,1235.4 1367.2,1227.8 1354.0,1219.0 1340.9,1209.0 1327.8,1197.9 1314.7,1185.8 1301.8,1172.7 1288.9,1158.7 1276.2,1143.9 1263.7,1128.4 1251.4,1112.2 1239.3,1095.6 1227.6,1078.6 1216.2,1061.3  A 522.500,522.500 0.00 0,1 1295.2,1019.3 L 1295.2,1019.3 1303.2,1038.0 1311.5,1056.4 1320.0,1074.4 1328.6,1092.0 1337.3,1109.0 1346.1,1125.3 1355.0,1140.8 1363.8,1155.4 1372.7,1169.0 1381.6,1181.5 1390.4,1192.8 1399.1,1202.9 1407.7,1211.8 1416.2,1219.3 1424.6,1225.4 1432.8,1230.2 1440.9,1233.5 1448.7,1235.3 1456.4,1235.7 1463.9,1234.5 1471.1,1231.9 1478.1,1227.9 1484.8,1222.4 1491.2,1215.4 1497.4,1207.1 1503.4,1197.4 1509.0,1186.4 1514.4,1174.1 1519.4,1160.7 1524.2,1146.2 1528.7,1130.6 1532.9,1114.0 1536.8,1096.6 1540.4,1078.5 1543.7,1059.7 1546.8,1040.3 1549.5,1020.5 1552.0,1000.5 1554.3,980.3  Z" style="stroke-width: 0.5;  stroke: rgb(0,0,0); fill: rgb(179,177,178);" />
<path d="M 2022.130,1480.340 A 522.500,522.500 0.00 0,1 2019.2,1559.0 L 2019.2,1559.0 1993.8,1556.2 1968.3,1553.6 1942.7,1551.3 1916.8,1549.2 1890.8,1547.3 1864.7,1545.7 1838.5,1544.3 1812.2,1543.2 1785.7,1542.4 1759.2,1541.9 1732.6,1541.7 1705.9,1541.8 1679.2,1542.2 1652.5,1542.9 1625.7,1543.9 1598.9,1545.2 1572.1,1546.8 1545.3,1548.8 1518.5,1551.1 1491.7,1553.7 1465.0,1556.7 1438.4,1559.9 1411.7,1563.5 1385.2,1567.4 1358.7,1571.6 1332.3,1576.1 1306.1,1580.9 1279.9,1586.0 1253.8,1591.4 1227.9,1597.0 1202.1,1602.9 1176.5,1609.1 1151.0,1615.5 1125.7,1622.2 1100.6,1629.0 1075.7,1636.1 1050.9,1643.4 1026.4,1650.9 1002.1,1658.5  A 522.500,522.500 0.00 0,1 984.0,1581.9 L 984.0,1581.9 1010.1,1577.8 1036.2,1573.7 1062.4,1569.7 1088.7,1565.8 1115.1,1561.9 1141.5,1558.1 1167.9,1554.4 1194.4,1550.7 1220.9,1547.2 1247.5,1543.7 1274.1,1540.2 1300.8,1536.9 1327.4,1533.7 1354.2,1530.5 1380.9,1527.4 1407.6,1524.4 1434.4,1521.5 1461.2,1518.7 1488.0,1516.0 1514.8,1513.4 1541.7,1510.9 1568.5,1508.4 1595.3,1506.1 1622.2,1503.8 1649.0,1501.7 1675.8,1499.6 1702.6,1497.6 1729.4,1495.7 1756.2,1493.9 1782.9,1492.2 1809.6,1490.6 1836.3,1489.0 1863.0,1487.6 1889.6,1486.2 1916.2,1484.9 1942.8,1483.6 1969.3,1482.5 1995.7,1481.4 2022.1,1480.3  Z" style="stroke-width: 0.5;  stroke: rgb(0,0,0); fill: rgb(179,177,178);" />
<path d="M 1500.000,977.500 A 522.500,522.500 0.00 0,1 1540.8,979.1 L 1540.8,979.1 1539.1,999.3 1537.2,1019.4 1534.9,1039.2 1532.5,1058.6 1529.7,1077.4 1526.6,1095.6 1523.3,1113.1 1519.6,1129.7 1515.7,1145.3 1511.4,1159.9 1506.9,1173.4 1502.1,1185.7 1496.9,1196.7 1491.5,1206.4 1485.7,1214.8 1479.7,1221.8 1473.5,1227.4 1466.9,1231.5 1460.1,1234.1 1453.0,1235.3 1445.7,1234.9 1438.2,1233.1 1430.5,1229.9 1422.5,1225.2 1414.4,1219.1 1406.2,1211.6 1397.8,1202.7 1389.3,1192.6 1380.7,1181.3 1372.0,1168.8 1363.3,1155.3 1354.5,1140.7 1345.8,1125.2 1337.1,1109.0 1328.4,1092.0 1319.9,1074.4 1311.5,1056.3 1303.2,1037.9 1295.1,1019.3  A 522.500,522.500 0.00 0,1 1299.3,1017.6 L 1299.3,1017.6 1307.2,1036.2 1315.2,1054.6 1323.3,1072.7 1331.5,1090.3 1339.8,1107.3 1348.0,1123.6 1356.2,1139.2 1364.4,1153.8 1372.5,1167.4 1380.5,1179.9 1388.4,1191.2 1396.1,1201.4 1403.6,1210.2 1410.9,1217.8 1418.0,1223.9 1424.9,1228.6 1431.5,1231.9 1437.8,1233.7 1443.9,1234.1 1449.7,1232.9 1455.1,1230.3 1460.3,1226.2 1465.2,1220.6 1469.7,1213.6 1473.9,1205.2 1477.8,1195.4 1481.3,1184.4 1484.5,1172.0 1487.4,1158.5 1490.0,1143.9 1492.2,1128.2 1494.2,1111.6 1495.8,1094.1 1497.1,1075.9 1498.2,1057.0 1499.0,1037.6 1499.6,1017.8 1499.9,997.7 1500.0,977.5  Z" style="stroke-width: 0.5;  stroke: rgb(0,0,0); fill: rgb(179,177,178);" />
<path d="M 2022.417,1490.668 A 522.500,522.500 0.00 0,1 2018.8,1562.4 L 2018.8,1562.4 1993.5,1559.5 1968.0,1556.7 1942.4,1554.3 1916.6,1552.0 1890.7,1550.0 1864.6,1548.2 1838.4,1546.7 1812.1,1545.5 1785.7,1544.6 1759.2,1544.0 1732.6,1543.7 1706.0,1543.7 1679.3,1544.0 1652.5,1544.6 1625.8,1545.6 1599.0,1546.9 1572.2,1548.5 1545.4,1550.4 1518.6,1552.7 1491.9,1555.3 1465.2,1558.3 1438.5,1561.5 1411.9,1565.1 1385.4,1569.1 1359.0,1573.3 1332.6,1577.8 1306.4,1582.7 1280.2,1587.8 1254.2,1593.3 1228.3,1599.0 1202.6,1605.0 1177.0,1611.3 1151.6,1617.8 1126.4,1624.6 1101.3,1631.6 1076.4,1638.8 1051.8,1646.2 1027.3,1653.8 1003.1,1661.5  A 522.500,522.500 0.00 0,1 985.7,1592.0 L 985.7,1592.0 1011.6,1587.5 1037.5,1582.9 1063.6,1578.5 1089.7,1574.1 1116.0,1569.9 1142.2,1565.7 1168.6,1561.6 1195.0,1557.6 1221.5,1553.7 1248.0,1549.9 1274.6,1546.2 1301.2,1542.7 1327.8,1539.2 1354.6,1535.9 1381.3,1532.6 1408.1,1529.5 1434.8,1526.5 1461.7,1523.7 1488.5,1520.9 1515.3,1518.3 1542.2,1515.8 1569.1,1513.4 1595.9,1511.2 1622.8,1509.0 1649.6,1507.0 1676.5,1505.1 1703.3,1503.3 1730.1,1501.7 1756.9,1500.1 1783.7,1498.7 1810.4,1497.4 1837.1,1496.2 1863.7,1495.1 1890.3,1494.1 1916.8,1493.3 1943.3,1492.5 1969.8,1491.8 1996.1,1491.2 2022.4,1490.7  Z" style="stroke-width: 0.5;  stroke: rgb(0,0,0); fill: rgb(179,177,178);" />
<path d="M 2017.788,1570.014 A 522.500,522.500 0.00 0,1 2011.9,1604.8 L 2011.9,1604.8 1987.4,1600.0 1962.7,1595.4 1937.8,1591.1 1912.6,1587.1 1887.3,1583.4 1861.7,1580.0 1836.0,1577.0 1810.2,1574.4 1784.2,1572.2 1758.1,1570.4 1731.9,1568.9 1705.6,1567.9 1679.2,1567.4 1652.8,1567.2 1626.3,1567.5 1599.8,1568.3 1573.3,1569.4 1546.9,1571.1 1520.4,1573.2 1494.0,1575.7 1467.6,1578.7 1441.3,1582.2 1415.0,1586.1 1388.9,1590.4 1362.9,1595.2 1337.0,1600.3 1311.2,1605.9 1285.6,1612.0 1260.1,1618.4 1234.8,1625.1 1209.7,1632.3 1184.9,1639.8 1160.2,1647.6 1135.8,1655.8 1111.6,1664.3 1087.7,1673.0 1064.0,1682.0 1040.6,1691.2 1017.6,1700.6  A 522.500,522.500 0.00 0,1 1005.1,1667.7 L 1005.1,1667.7 1029.2,1659.7 1053.5,1651.8 1078.0,1644.2 1102.7,1636.7 1127.6,1629.5 1152.8,1622.5 1178.1,1615.8 1203.6,1609.4 1229.2,1603.2 1255.0,1597.3 1280.9,1591.7 1307.0,1586.4 1333.2,1581.5 1359.5,1576.8 1385.9,1572.5 1412.4,1568.6 1438.9,1564.9 1465.5,1561.7 1492.2,1558.7 1518.9,1556.2 1545.6,1553.9 1572.4,1552.1 1599.1,1550.6 1625.9,1549.4 1652.6,1548.6 1679.3,1548.1 1706.0,1547.9 1732.6,1548.1 1759.1,1548.7 1785.5,1549.5 1811.9,1550.7 1838.1,1552.1 1864.3,1553.9 1890.2,1555.9 1916.1,1558.3 1941.8,1560.8 1967.3,1563.7 1992.6,1566.7 2017.8,1570.0  Z" style="stroke-width: 0.5;  stroke: rgb(0,0,0); fill: rgb(179,177,178);" />
<path d="M 1950.856,1235.925 A 522.500,522.500 0.00 0,1 1956.1,1245.1 L 1956.1,1245.1 1935.0,1256.7 1913.5,1268.0 1891.5,1279.1 1869.3,1289.7 1846.7,1300.1 1823.7,1310.0 1800.5,1319.4 1777.0,1328.4 1753.2,1336.9 1729.1,1344.9 1704.8,1352.4 1680.3,1359.3 1655.6,1365.6 1630.8,1371.4 1605.8,1376.5 1580.6,1381.0 1555.3,1384.9 1529.9,1388.1 1504.5,1390.7 1478.9,1392.7 1453.4,1394.0 1427.8,1394.7 1402.2,1394.7 1376.7,1394.1 1351.1,1392.8 1325.7,1390.9 1300.3,1388.4 1275.1,1385.3 1249.9,1381.7 1224.9,1377.4 1200.1,1372.6 1175.5,1367.3 1151.1,1361.5 1126.9,1355.2 1103.0,1348.5 1079.4,1341.3 1056.0,1333.7 1033.0,1325.8 1010.4,1317.6  A 522.500,522.500 0.00 0,1 1014.2,1307.7 L 1014.2,1307.7 1036.5,1316.3 1059.3,1324.7 1082.4,1332.6 1105.7,1340.1 1129.4,1347.3 1153.4,1353.9 1177.6,1360.1 1202.0,1365.7 1226.6,1370.8 1251.4,1375.3 1276.3,1379.2 1301.4,1382.5 1326.5,1385.2 1351.8,1387.3 1377.1,1388.7 1402.5,1389.5 1427.9,1389.5 1453.3,1388.9 1478.7,1387.7 1504.0,1385.7 1529.3,1383.1 1554.4,1379.8 1579.5,1375.9 1604.5,1371.3 1629.3,1366.0 1654.0,1360.2 1678.4,1353.6 1702.7,1346.5 1726.7,1338.9 1750.5,1330.6 1774.1,1321.8 1797.4,1312.6 1820.3,1302.8 1843.0,1292.6 1865.3,1281.9 1887.3,1270.9 1908.9,1259.5 1930.1,1247.9 1950.9,1235.9  Z" style="stroke-width: 0.5;  stroke: rgb(0,0,0); fill: rgb(179,177,178);" />
<path d="M 1906.402,1828.396 A 522.500,522.500 0.00 0,1 1899.9,1836.2 L 1899.9,1836.2 1883.6,1822.8 1866.9,1809.7 1849.8,1797.1 1832.6,1785.0 1815.2,1773.7 1797.6,1763.0 1779.9,1753.1 1762.3,1744.2 1744.6,1736.1 1727.0,1729.1 1709.4,1723.1 1692.0,1718.2 1674.8,1714.4 1657.7,1711.8 1641.0,1710.4 1624.4,1710.2 1608.2,1711.3 1592.3,1713.5 1576.8,1717.1 1561.6,1721.9 1546.9,1727.9 1532.6,1735.1 1518.7,1743.6 1505.3,1753.2 1492.3,1764.0 1479.8,1775.9 1467.9,1788.9 1456.5,1802.9 1445.5,1817.8 1435.1,1833.7 1425.3,1850.4 1415.9,1867.9 1407.1,1886.1 1398.8,1904.9 1391.1,1924.3 1383.9,1944.0 1377.2,1964.1 1371.0,1984.4 1365.3,2004.8  A 522.500,522.500 0.00 0,1 1355.6,2002.1 L 1355.6,2002.1 1361.7,1981.8 1368.3,1961.5 1375.4,1941.5 1383.1,1921.8 1391.3,1902.5 1400.0,1883.7 1409.3,1865.5 1419.1,1848.1 1429.4,1831.3 1440.3,1815.5 1451.6,1800.5 1463.5,1786.5 1476.0,1773.5 1488.9,1761.5 1502.3,1750.7 1516.2,1740.9 1530.5,1732.4 1545.3,1725.0 1560.5,1718.9 1576.1,1714.0 1592.0,1710.3 1608.4,1707.8 1625.0,1706.6 1641.9,1706.6 1659.1,1707.8 1676.6,1710.2 1694.2,1713.7 1712.0,1718.4 1729.9,1724.1 1747.9,1730.9 1766.0,1738.6 1784.0,1747.3 1802.0,1756.9 1820.0,1767.3 1837.7,1778.4 1855.3,1790.1 1872.7,1802.4 1889.7,1815.2 1906.4,1828.4  Z" style="stroke-width: 0.5;  stroke: rgb(0,0,0); fill: rgb(179,177,178);" />
<path d="M 1905.836,1829.095 A 522.500,522.500 0.00 0,1 1899.9,1836.2 L 1899.9,1836.2 1883.5,1822.7 1866.7,1809.6 1849.6,1797.0 1832.3,1784.9 1814.7,1773.4 1797.0,1762.7 1779.2,1752.8 1761.3,1743.8 1743.5,1735.7 1725.6,1728.5 1707.8,1722.5 1690.1,1717.5 1672.6,1713.6 1655.2,1710.9 1638.0,1709.4 1621.1,1709.1 1604.5,1710.0 1588.1,1712.1 1572.1,1715.5 1556.5,1720.1 1541.2,1726.0 1526.3,1733.1 1511.8,1741.3 1497.8,1750.8 1484.2,1761.4 1471.1,1773.1 1458.5,1785.9 1446.3,1799.7 1434.7,1814.4 1423.6,1830.1 1412.9,1846.6 1402.8,1863.9 1393.3,1881.9 1384.2,1900.5 1375.7,1919.7 1367.7,1939.2 1360.2,1959.1 1353.2,1979.3 1346.8,1999.5  A 522.500,522.500 0.00 0,0 1355.6,2002.2 L 1355.6,2002.2 1361.7,1981.8 1368.3,1961.5 1375.5,1941.5 1383.1,1921.8 1391.3,1902.5 1400.0,1883.7 1409.3,1865.6 1419.1,1848.1 1429.4,1831.4 1440.2,1815.5 1451.6,1800.6 1463.5,1786.5 1475.9,1773.6 1488.8,1761.6 1502.2,1750.8 1516.1,1741.1 1530.4,1732.5 1545.2,1725.2 1560.4,1719.1 1575.9,1714.2 1591.9,1710.5 1608.2,1708.1 1624.8,1706.9 1641.7,1706.9 1658.9,1708.1 1676.3,1710.5 1693.9,1714.1 1711.7,1718.8 1729.6,1724.5 1747.6,1731.3 1765.6,1739.1 1783.6,1747.8 1801.6,1757.4 1819.5,1767.8 1837.3,1778.9 1854.8,1790.7 1872.1,1803.1 1889.2,1815.9 1905.8,1829.1  Z" style="stroke-width: 0.5;  stroke: rgb(0,0,0); fill: rgb(179,177,178);" />
</g>
<g id="plot0">
<g id="plot0-axis">
</g>
<line x1='2244.0' y1='1594.5' x2='2244.0' y2='1594.5' style="stroke-width:14.0;stroke:rgb(0,0,0);stroke-linecap:round;fill:none;" />
<line x1='2244.0' y1='1594.5' x2='2283.7' y2='1599.6' style="stroke-width:14.0;stroke:rgb(0,0,0);stroke-linecap:round;fill:none;" />
<line x1='2283.7' y1='1599.6' x2='2283.7' y2='1599.6' style="stroke-width:14.0;stroke:rgb(0,0,0);stroke-linecap:round;fill:none;" />
<text x="2300.4" y="1624.4" font-size="46.8px" font-family="CMUBright-Roman" style="text-anchor:start;fill:rgb(255,38,78);" transform="rotate(7.2,2300.4,1624.4)" >HistocapSECH107<tspan baseline-shift="-40%" font-size="90%">s</tspan>01361</text>
</g>
<defs>
<pattern id="checker" width="10" height="10" patternTransform="rotate(45 0 0)" patternUnits="userSpaceOnUse"><line x1="0" y1="0" x2="10" y2="0" style="stroke:black;stroke-width:5" /><line x1="0" y1="0" x2="0" y2="10" style="stroke:black;stroke-width:4" /></pattern>
<pattern id="vline-sparse" width="10" height="10" patternTransform="rotate(0 0 0)" patternUnits="userSpaceOnUse"><line x1="0" y1="0" x2="0" y2="10" style="stroke:black;stroke-width:2" /></pattern>
<pattern id="vline" width="10" height="10" patternTransform="rotate(0 0 0)" patternUnits="userSpaceOnUse"><line x1="0" y1="0" x2="0" y2="10" style="stroke:black;stroke-width:5" /></pattern>
<pattern id="hline-sparse" width="10" height="10" patternTransform="rotate(0 0 0)" patternUnits="userSpaceOnUse"><line x1="0" y1="0" x2="10" y2="0" style="stroke:black;stroke-width:2" /></pattern>
<pattern id="checker" width="10" height="10" patternTransform="rotate(45 0 0)" patternUnits="userSpaceOnUse"><line x1="0" y1="0" x2="10" y2="0" style="stroke:black;stroke-width:2" /><line x1="0" y1="0" x2="0" y2="10" style="stroke:black;stroke-width:2" /></pattern>
<pattern id="hline" width="10" height="10" patternTransform="rotate(0 0 0)" patternUnits="userSpaceOnUse"><line x1="0" y1="0" x2="10" y2="0" style="stroke:black;stroke-width:5" /></pattern>
</defs>
</svg>
