<?xml version="1.0" encoding="utf-8" standalone="no"?>
<!DOCTYPE svg PUBLIC "-//W3C//DTD SVG 1.1//EN" "http://www.w3.org/Graphics/SVG/1.1/DTD/svg11.dtd">
<svg width="3000px" height="3000px" version="1.1" xmlns="http://www.w3.org/2000/svg" xmlns:xlink="http://www.w3.org/1999/xlink">
<g id="bg">
<rect x="0" y="0" width="3000px" height="3000px" style="fill:rgb(255,255,255);"/>
</g>
<g id="ideograms">
<path d="M1500.000,950.000 A550.000,550.000 40.000 0,1 1641.962,2031.363 L1693.584,2224.586 A750.000,750.000 0.000 0,0 1500.000,750.000 Z" style="stroke-width:2.0;stroke:rgb(0,0,0);stroke-linecap:round;fill:rgb(179,177,178);" />
<text x="2466.7" y="1373.1" font-size="46.8px" font-family="CMUBright-Roman" style="text-anchor:middle;fill:rgb(0,0,0);" transform="rotate(442.5,2466.7,1373.1)" >HistocapCB192<tspan baseline-shift="-40%" font-size="90%">5</tspan></text>
<line x1='1591.6' y1='755.6' x2='1593.1' y2='743.7' style="stroke-width:8.0;stroke:rgb(150,150,150);stroke-linecap:round;fill:none;" />
<line x1='1688.0' y1='773.9' x2='1691.0' y2='762.3' style="stroke-width:8.0;stroke:rgb(150,150,150);stroke-linecap:round;fill:none;" />
<text x="1707.5" y="754.3" font-size="41.6px" font-family="CMUBright-Roman" style="text-anchor:start;fill:rgb(150,150,150);" transform="rotate(284.5,1707.5,754.3)" >1650 kb</text>
<line x1='1781.1' y1='804.7' x2='1785.6' y2='793.5' style="stroke-width:8.0;stroke:rgb(150,150,150);stroke-linecap:round;fill:none;" />
<line x1='1869.4' y1='847.3' x2='1875.3' y2='836.9' style="stroke-width:8.0;stroke:rgb(150,150,150);stroke-linecap:round;fill:none;" />
<line x1='1951.4' y1='901.1' x2='1958.7' y2='891.5' style="stroke-width:8.0;stroke:rgb(150,150,150);stroke-linecap:round;fill:none;" />
<line x1='2025.7' y1='965.1' x2='2034.2' y2='956.6' style="stroke-width:8.0;stroke:rgb(150,150,150);stroke-linecap:round;fill:none;" />
<line x1='2091.0' y1='1038.3' x2='2100.5' y2='1030.9' style="stroke-width:8.0;stroke:rgb(150,150,150);stroke-linecap:round;fill:none;" />
<text x="2118.5" y="1034.6" font-size="41.6px" font-family="CMUBright-Roman" style="text-anchor:start;fill:rgb(150,150,150);" transform="rotate(322.0,2118.5,1034.6)" >1700 kb</text>
<line x1='2146.2' y1='1119.4' x2='2156.6' y2='1113.3' style="stroke-width:8.0;stroke:rgb(150,150,150);stroke-linecap:round;fill:none;" />
<line x1='2190.4' y1='1207.0' x2='2201.4' y2='1202.3' style="stroke-width:8.0;stroke:rgb(150,150,150);stroke-linecap:round;fill:none;" />
<line x1='2222.7' y1='1299.6' x2='2234.3' y2='1296.3' style="stroke-width:8.0;stroke:rgb(150,150,150);stroke-linecap:round;fill:none;" />
<line x1='2242.7' y1='1395.6' x2='2254.6' y2='1393.9' style="stroke-width:8.0;stroke:rgb(150,150,150);stroke-linecap:round;fill:none;" />
<line x1='2250.0' y1='1493.4' x2='2262.0' y2='1493.3' style="stroke-width:8.0;stroke:rgb(150,150,150);stroke-linecap:round;fill:none;" />
<text x="2274.0" y="1507.2" font-size="41.6px" font-family="CMUBright-Roman" style="text-anchor:start;fill:rgb(150,150,150);" transform="rotate(359.5,2274.0,1507.2)" >1750 kb</text>
<line x1='2244.4' y1='1591.3' x2='2256.3' y2='1592.8' style="stroke-width:8.0;stroke:rgb(150,150,150);stroke-linecap:round;fill:none;" />
<line x1='2226.1' y1='1687.7' x2='2237.8' y2='1690.7' style="stroke-width:8.0;stroke:rgb(150,150,150);stroke-linecap:round;fill:none;" />
<line x1='2195.4' y1='1780.8' x2='2206.6' y2='1785.3' style="stroke-width:8.0;stroke:rgb(150,150,150);stroke-linecap:round;fill:none;" />
<line x1='2152.8' y1='1869.2' x2='2163.3' y2='1875.1' style="stroke-width:8.0;stroke:rgb(150,150,150);stroke-linecap:round;fill:none;" />
<line x1='2099.1' y1='1951.2' x2='2108.7' y2='1958.4' style="stroke-width:8.0;stroke:rgb(150,150,150);stroke-linecap:round;fill:none;" />
<text x="2109.7" y="1976.8" font-size="41.6px" font-family="CMUBright-Roman" style="text-anchor:start;fill:rgb(150,150,150);" transform="rotate(37.0,2109.7,1976.8)" >1800 kb</text>
<line x1='2035.1' y1='2025.5' x2='2043.6' y2='2033.9' style="stroke-width:8.0;stroke:rgb(150,150,150);stroke-linecap:round;fill:none;" />
<line x1='1961.9' y1='2090.9' x2='1969.3' y2='2100.3' style="stroke-width:8.0;stroke:rgb(150,150,150);stroke-linecap:round;fill:none;" />
<line x1='1880.9' y1='2146.1' x2='1887.0' y2='2156.4' style="stroke-width:8.0;stroke:rgb(150,150,150);stroke-linecap:round;fill:none;" />
<line x1='1793.3' y1='2190.3' x2='1798.0' y2='2201.3' style="stroke-width:8.0;stroke:rgb(150,150,150);stroke-linecap:round;fill:none;" />
<line x1='1700.7' y1='2222.6' x2='1703.9' y2='2234.2' style="stroke-width:8.0;stroke:rgb(150,150,150);stroke-linecap:round;fill:none;" />
<text x="1693.6" y="2249.4" font-size="41.6px" font-family="CMUBright-Roman" style="text-anchor:start;fill:rgb(150,150,150);" transform="rotate(74.5,1693.6,2249.4)" >1850 kb</text>
<g id="highlighttrack_0">
<path d="M2031.213,1357.479 A550.000,550.000 40.000 0,1 2050.000,1500.579 L2250.000,1500.790 A750.000,750.000 0.000 0,0 2224.382,1305.653 Z" style="stroke-width:14.0;stroke:rgb(0,0,0);stroke-linecap:round;fill:rgb(255,38,78);" />
</g>
<path d="M1500.000,950.000 A550.000,550.000 40.000 0,1 1641.962,2031.363 L1693.584,2224.586 A750.000,750.000 0.000 0,0 1500.000,750.000 Z" style="stroke-width:2.0;stroke:rgb(0,0,0);stroke-linecap:round;fill:none;" />
<path d="M1427.864,2045.249 A550.000,550.000 40.000 0,1 1289.573,991.846 L1213.054,807.063 A750.000,750.000 0.000 0,0 1401.633,2243.521 Z" style="stroke-width:2.0;stroke:rgb(0,0,0);stroke-linecap:round;fill:rgb(179,177,178);" />
<text x="488.7" y="1632.8" font-size="46.8px" font-family="CMUBright-Roman" style="text-anchor:middle;fill:rgb(0,0,0);" transform="rotate(82.5,488.7,1632.8)" >HistoohiG217B<tspan baseline-shift="-40%" font-size="90%">J</tspan>AEVHH010000006</text>
<line x1='1363.5' y1='2237.5' x2='1361.4' y2='2249.3' style="stroke-width:8.0;stroke:rgb(150,150,150);stroke-linecap:round;fill:none;" />
<line x1='1268.5' y1='2213.4' x2='1264.8' y2='2224.8' style="stroke-width:8.0;stroke:rgb(150,150,150);stroke-linecap:round;fill:none;" />
<line x1='1177.4' y1='2177.1' x2='1172.2' y2='2187.9' style="stroke-width:8.0;stroke:rgb(150,150,150);stroke-linecap:round;fill:none;" />
<line x1='1091.8' y1='2129.2' x2='1085.2' y2='2139.2' style="stroke-width:8.0;stroke:rgb(150,150,150);stroke-linecap:round;fill:none;" />
<line x1='1013.2' y1='2070.5' x2='1005.4' y2='2079.6' style="stroke-width:8.0;stroke:rgb(150,150,150);stroke-linecap:round;fill:none;" />
<text x="1008.3" y="2097.8" font-size="41.6px" font-family="CMUBright-Roman" style="text-anchor:end;fill:rgb(150,150,150);" transform="rotate(-49.5,1008.3,2097.8)" >900 kb</text>
<line x1='942.9' y1='2002.1' x2='934.0' y2='2010.1' style="stroke-width:8.0;stroke:rgb(150,150,150);stroke-linecap:round;fill:none;" />
<line x1='882.1' y1='1925.1' x2='872.2' y2='1931.9' style="stroke-width:8.0;stroke:rgb(150,150,150);stroke-linecap:round;fill:none;" />
<line x1='831.9' y1='1840.8' x2='821.2' y2='1846.3' style="stroke-width:8.0;stroke:rgb(150,150,150);stroke-linecap:round;fill:none;" />
<line x1='793.2' y1='1750.7' x2='781.8' y2='1754.8' style="stroke-width:8.0;stroke:rgb(150,150,150);stroke-linecap:round;fill:none;" />
<line x1='766.5' y1='1656.4' x2='754.7' y2='1658.9' style="stroke-width:8.0;stroke:rgb(150,150,150);stroke-linecap:round;fill:none;" />
<text x="746.1" y="1675.0" font-size="41.6px" font-family="CMUBright-Roman" style="text-anchor:end;fill:rgb(150,150,150);" transform="rotate(-12.0,746.1,1675.0)" >950 kb</text>
<line x1='752.3' y1='1559.3' x2='740.4' y2='1560.3' style="stroke-width:8.0;stroke:rgb(150,150,150);stroke-linecap:round;fill:none;" />
<line x1='751.0' y1='1461.2' x2='739.0' y2='1460.6' style="stroke-width:8.0;stroke:rgb(150,150,150);stroke-linecap:round;fill:none;" />
<line x1='762.5' y1='1363.8' x2='750.7' y2='1361.6' style="stroke-width:8.0;stroke:rgb(150,150,150);stroke-linecap:round;fill:none;" />
<line x1='786.5' y1='1268.7' x2='775.1' y2='1265.0' style="stroke-width:8.0;stroke:rgb(150,150,150);stroke-linecap:round;fill:none;" />
<line x1='822.8' y1='1177.6' x2='812.0' y2='1172.5' style="stroke-width:8.0;stroke:rgb(150,150,150);stroke-linecap:round;fill:none;" />
<text x="795.2" y="1180.0" font-size="41.6px" font-family="CMUBright-Roman" style="text-anchor:end;fill:rgb(150,150,150);" transform="rotate(25.5,795.2,1180.0)" >1000 kb</text>
<line x1='870.7' y1='1092.0' x2='860.6' y2='1085.5' style="stroke-width:8.0;stroke:rgb(150,150,150);stroke-linecap:round;fill:none;" />
<line x1='929.3' y1='1013.4' x2='920.2' y2='1005.6' style="stroke-width:8.0;stroke:rgb(150,150,150);stroke-linecap:round;fill:none;" />
<line x1='997.7' y1='943.1' x2='989.6' y2='934.2' style="stroke-width:8.0;stroke:rgb(150,150,150);stroke-linecap:round;fill:none;" />
<line x1='1074.7' y1='882.3' x2='1067.9' y2='872.4' style="stroke-width:8.0;stroke:rgb(150,150,150);stroke-linecap:round;fill:none;" />
<line x1='1158.9' y1='832.1' x2='1153.4' y2='821.4' style="stroke-width:8.0;stroke:rgb(150,150,150);stroke-linecap:round;fill:none;" />
<text x="1135.6" y="817.2" font-size="41.6px" font-family="CMUBright-Roman" style="text-anchor:end;fill:rgb(150,150,150);" transform="rotate(62.9,1135.6,817.2)" >1050 kb</text>
<path d="M1427.864,2045.249 A550.000,550.000 40.000 0,1 1289.573,991.846 L1213.054,807.063 A750.000,750.000 0.000 0,0 1401.633,2243.521 Z" style="stroke-width:2.0;stroke:rgb(0,0,0);stroke-linecap:round;fill:none;" />
</g>
<g id="track_0">
<path d="M 1867.827,1128.907 A 522.500,522.500 0.00 0,1 1953.0,1239.7 L 1953.0,1239.7 1931.6,1251.8 1909.9,1263.7 1887.8,1275.3 1865.3,1286.7 1842.6,1297.8 1819.5,1308.6 1796.1,1319.0 1772.5,1329.1 1748.6,1338.7 1724.4,1348.0 1700.0,1356.8 1675.4,1365.2 1650.6,1373.1 1625.6,1380.6 1600.4,1387.5 1575.0,1394.0 1549.5,1399.9 1523.8,1405.3 1498.1,1410.2 1472.2,1414.6 1446.3,1418.5 1420.3,1421.8 1394.3,1424.6 1368.2,1426.9 1342.1,1428.6 1316.0,1429.8 1290.0,1430.5 1264.0,1430.7 1238.0,1430.4 1212.2,1429.6 1186.4,1428.4 1160.8,1426.7 1135.3,1424.5 1109.9,1422.0 1084.8,1419.0 1059.9,1415.6 1035.2,1411.9 1010.7,1407.8 986.5,1403.5  A 522.500,522.500 0.00 0,1 1030.8,1270.0 L 1030.8,1270.0 1051.6,1279.9 1072.8,1289.4 1094.3,1298.5 1116.2,1307.0 1138.4,1315.1 1160.8,1322.5 1183.5,1329.3 1206.4,1335.4 1229.4,1340.8 1252.6,1345.5 1275.9,1349.3 1299.3,1352.4 1322.7,1354.7 1346.2,1356.1 1369.7,1356.6 1393.1,1356.3 1416.4,1355.1 1439.7,1353.0 1462.9,1350.0 1485.9,1346.1 1508.8,1341.3 1531.4,1335.7 1553.9,1329.2 1576.1,1321.8 1598.1,1313.6 1619.8,1304.6 1641.2,1294.8 1662.3,1284.2 1683.1,1272.9 1703.4,1260.9 1723.4,1248.2 1743.1,1235.0 1762.3,1221.1 1781.0,1206.7 1799.3,1191.9 1817.2,1176.6 1834.6,1161.0 1851.5,1145.1 1867.8,1128.9  Z" style="stroke-width: 0.5;  stroke: rgb(0,0,0); fill: rgb(179,177,178);" />
<path d="M 1936.147,1787.719 A 522.500,522.500 0.00 0,1 1891.0,1846.6 L 1891.0,1846.6 1874.4,1832.2 1857.4,1818.2 1839.9,1804.6 1822.1,1791.6 1803.9,1779.1 1785.4,1767.2 1766.6,1756.1 1747.5,1745.8 1728.3,1736.3 1708.8,1727.7 1689.2,1720.1 1669.5,1713.4 1649.7,1707.7 1629.8,1703.1 1609.9,1699.6 1590.0,1697.1 1570.2,1695.8 1550.3,1695.6 1530.6,1696.5 1510.9,1698.6 1491.4,1701.8 1472.1,1706.1 1452.9,1711.5 1433.9,1718.1 1415.2,1725.7 1396.7,1734.3 1378.5,1744.0 1360.7,1754.6 1343.1,1766.2 1325.8,1778.6 1309.0,1791.9 1292.5,1806.0 1276.4,1820.7 1260.8,1836.2 1245.6,1852.1 1230.9,1868.6 1216.6,1885.6 1202.8,1902.8 1189.6,1920.3  A 522.500,522.500 0.00 0,1 1133.4,1872.3 L 1133.4,1872.3 1149.5,1856.3 1166.1,1840.6 1183.1,1825.3 1200.7,1810.3 1218.7,1795.8 1237.1,1781.9 1256.0,1768.5 1275.2,1755.8 1294.8,1743.7 1314.8,1732.4 1335.1,1721.8 1355.7,1712.1 1376.6,1703.2 1397.7,1695.2 1419.1,1688.1 1440.7,1681.9 1462.5,1676.7 1484.5,1672.4 1506.6,1669.1 1528.8,1666.7 1551.1,1665.4 1573.5,1665.0 1595.9,1665.6 1618.3,1667.1 1640.7,1669.6 1663.1,1673.0 1685.3,1677.4 1707.5,1682.6 1729.6,1688.7 1751.5,1695.6 1773.1,1703.3 1794.6,1711.7 1815.8,1720.9 1836.8,1730.7 1857.4,1741.1 1877.7,1752.1 1897.6,1763.6 1917.1,1775.5 1936.1,1787.7  Z" style="stroke-width: 0.5;  stroke: rgb(0,0,0); fill: rgb(179,177,178);" />
<path d="M 1850.399,1887.591 A 522.500,522.500 0.00 0,1 1792.4,1933.0 L 1792.4,1933.0 1780.6,1915.8 1768.4,1898.9 1755.8,1882.4 1743.0,1866.5 1729.9,1851.1 1716.6,1836.4 1703.1,1822.5 1689.4,1809.5 1675.6,1797.4 1661.7,1786.4 1647.7,1776.5 1633.7,1767.7 1619.7,1760.1 1605.7,1753.7 1591.7,1748.6 1577.8,1744.9 1564.0,1742.5 1550.3,1741.4 1536.7,1741.7 1523.3,1743.3 1510.1,1746.4 1497.0,1750.7 1484.2,1756.5 1471.7,1763.5 1459.3,1771.8 1447.3,1781.4 1435.5,1792.2 1424.1,1804.1 1413.0,1817.2 1402.2,1831.2 1391.7,1846.3 1381.6,1862.2 1371.9,1879.0 1362.6,1896.5 1353.6,1914.6 1345.1,1933.3 1336.9,1952.3 1329.2,1971.7 1321.9,1991.2  A 522.500,522.500 0.00 0,1 1255.3,1961.6 L 1255.3,1961.6 1265.5,1942.9 1276.2,1924.3 1287.4,1906.1 1299.1,1888.3 1311.2,1870.9 1323.7,1854.2 1336.7,1838.2 1350.1,1822.9 1363.9,1808.5 1378.0,1794.9 1392.5,1782.4 1407.3,1770.8 1422.5,1760.3 1438.0,1751.0 1453.7,1742.8 1469.7,1735.7 1486.0,1729.9 1502.4,1725.3 1519.1,1722.0 1535.9,1719.9 1552.9,1719.0 1570.0,1719.5 1587.1,1721.1 1604.4,1724.0 1621.6,1728.1 1638.9,1733.4 1656.2,1739.9 1673.4,1747.4 1690.6,1756.0 1707.6,1765.7 1724.5,1776.3 1741.2,1787.8 1757.7,1800.2 1774.0,1813.3 1789.9,1827.2 1805.6,1841.6 1820.9,1856.5 1835.9,1871.9 1850.4,1887.6  Z" style="stroke-width: 0.5;  stroke: rgb(0,0,0); fill: rgb(179,177,178);" />
<path d="M 1767.444,1051.135 A 522.500,522.500 0.00 0,1 1817.6,1085.1 L 1817.6,1085.1 1803.8,1102.7 1789.5,1120.0 1774.6,1137.1 1759.3,1153.8 1743.4,1170.0 1727.1,1185.7 1710.3,1200.8 1693.1,1215.3 1675.5,1229.1 1657.4,1242.1 1639.0,1254.3 1620.1,1265.7 1601.0,1276.2 1581.5,1285.8 1561.7,1294.4 1541.6,1302.1 1521.2,1308.8 1500.6,1314.4 1479.8,1319.1 1458.8,1322.7 1437.6,1325.2 1416.3,1326.8 1394.8,1327.3 1373.3,1326.7 1351.8,1325.2 1330.2,1322.7 1308.6,1319.2 1287.1,1314.7 1265.6,1309.3 1244.3,1303.1 1223.0,1296.0 1202.0,1288.0 1181.1,1279.4 1160.5,1270.0 1140.1,1260.0 1120.1,1249.4 1100.4,1238.2 1081.2,1226.6 1062.3,1214.7  A 522.500,522.500 0.00 0,1 1098.4,1165.7 L 1098.4,1165.7 1115.3,1179.5 1132.6,1192.8 1150.4,1205.8 1168.4,1218.1 1186.8,1229.9 1205.4,1241.0 1224.3,1251.3 1243.4,1260.9 1262.6,1269.5 1281.9,1277.3 1301.4,1284.0 1320.8,1289.8 1340.3,1294.5 1359.8,1298.1 1379.2,1300.6 1398.6,1302.0 1417.9,1302.3 1437.0,1301.4 1456.0,1299.3 1474.7,1296.1 1493.3,1291.7 1511.6,1286.2 1529.7,1279.6 1547.5,1271.8 1565.0,1262.9 1582.2,1253.0 1599.0,1242.1 1615.4,1230.2 1631.5,1217.4 1647.2,1203.6 1662.4,1189.1 1677.2,1173.8 1691.6,1157.7 1705.4,1141.1 1718.8,1123.9 1731.8,1106.2 1744.2,1088.1 1756.1,1069.7 1767.4,1051.1  Z" style="stroke-width: 0.5;  stroke: rgb(0,0,0); fill: rgb(179,177,178);" />
<path d="M 1668.411,1005.385 A 522.500,522.500 0.00 0,1 1722.4,1027.2 L 1722.4,1027.2 1713.1,1046.5 1703.2,1065.6 1692.9,1084.4 1682.1,1102.8 1670.7,1120.8 1658.9,1138.2 1646.6,1154.9 1633.9,1170.9 1620.7,1186.1 1607.1,1200.4 1593.1,1213.8 1578.7,1226.2 1563.9,1237.5 1548.7,1247.8 1533.2,1257.0 1517.4,1265.0 1501.2,1271.8 1484.7,1277.4 1468.0,1281.8 1451.1,1285.0 1433.9,1286.9 1416.5,1287.6 1399.0,1287.1 1381.3,1285.4 1363.5,1282.4 1345.7,1278.3 1327.8,1273.1 1309.8,1266.7 1291.9,1259.3 1274.1,1250.8 1256.3,1241.4 1238.7,1231.1 1221.2,1219.9 1203.9,1208.0 1186.8,1195.3 1170.1,1182.1 1153.6,1168.3 1137.6,1154.0 1121.9,1139.4  A 522.500,522.500 0.00 0,1 1164.3,1099.6 L 1164.3,1099.6 1178.0,1115.5 1192.0,1131.2 1206.4,1146.4 1221.0,1161.1 1235.9,1175.1 1251.0,1188.5 1266.2,1201.0 1281.6,1212.7 1297.0,1223.4 1312.5,1233.1 1328.0,1241.7 1343.5,1249.2 1359.0,1255.6 1374.3,1260.7 1389.6,1264.5 1404.7,1267.1 1419.7,1268.4 1434.5,1268.4 1449.1,1267.0 1463.4,1264.3 1477.5,1260.4 1491.3,1255.0 1504.7,1248.4 1517.9,1240.6 1530.8,1231.5 1543.3,1221.1 1555.4,1209.7 1567.1,1197.1 1578.5,1183.4 1589.4,1168.8 1599.9,1153.2 1610.1,1136.8 1619.7,1119.6 1629.0,1101.7 1637.8,1083.2 1646.1,1064.2 1654.0,1044.8 1661.4,1025.2 1668.4,1005.4  Z" style="stroke-width: 0.5;  stroke: rgb(0,0,0); fill: rgb(179,177,178);" />
<path d="M 1979.212,1708.236 A 522.500,522.500 0.00 0,1 1953.7,1759.2 L 1953.7,1759.2 1933.6,1748.0 1913.1,1737.2 1892.1,1726.8 1870.9,1716.8 1849.2,1707.4 1827.3,1698.6 1805.1,1690.4 1782.7,1682.9 1760.0,1676.0 1737.2,1669.9 1714.2,1664.6 1691.0,1660.0 1667.8,1656.3 1644.5,1653.5 1621.1,1651.4 1597.7,1650.3 1574.3,1650.1 1551.0,1650.7 1527.7,1652.2 1504.5,1654.7 1481.4,1658.0 1458.4,1662.2 1435.6,1667.3 1413.0,1673.3 1390.5,1680.1 1368.3,1687.8 1346.4,1696.2 1324.7,1705.5 1303.3,1715.5 1282.2,1726.2 1261.5,1737.6 1241.1,1749.6 1221.1,1762.2 1201.4,1775.4 1182.3,1789.1 1163.5,1803.3 1145.2,1817.8 1127.4,1832.6 1110.0,1847.8  A 522.500,522.500 0.00 0,1 1074.5,1803.2 L 1074.5,1803.2 1093.9,1789.7 1113.7,1776.5 1133.9,1763.5 1154.6,1750.9 1175.6,1738.7 1197.1,1727.0 1218.9,1715.7 1241.0,1705.0 1263.4,1694.8 1286.2,1685.2 1309.2,1676.2 1332.5,1667.9 1356.0,1660.2 1379.8,1653.2 1403.7,1647.0 1427.9,1641.4 1452.2,1636.6 1476.6,1632.5 1501.1,1629.1 1525.7,1626.5 1550.4,1624.7 1575.2,1623.6 1599.9,1623.3 1624.7,1623.8 1649.4,1624.9 1674.1,1626.8 1698.7,1629.4 1723.2,1632.8 1747.6,1636.8 1771.9,1641.4 1795.9,1646.7 1819.8,1652.6 1843.5,1659.1 1866.9,1666.1 1890.0,1673.7 1912.8,1681.7 1935.3,1690.2 1957.5,1699.0 1979.2,1708.2  Z" style="stroke-width: 0.5;  stroke: rgb(0,0,0); fill: rgb(179,177,178);" />
<path d="M 2018.007,1568.376 A 522.500,522.500 0.00 0,1 2009.3,1616.6 L 2009.3,1616.6 1984.9,1611.1 1960.3,1605.9 1935.4,1601.0 1910.3,1596.4 1885.0,1592.1 1859.5,1588.1 1833.9,1584.4 1808.0,1581.1 1782.1,1578.2 1756.0,1575.7 1729.8,1573.5 1703.5,1571.8 1677.1,1570.4 1650.6,1569.5 1624.1,1569.0 1597.6,1568.9 1571.0,1569.3 1544.4,1570.1 1517.9,1571.4 1491.3,1573.1 1464.8,1575.2 1438.3,1577.7 1411.9,1580.7 1385.6,1584.2 1359.4,1588.0 1333.3,1592.3 1307.3,1596.9 1281.4,1602.0 1255.7,1607.4 1230.1,1613.3 1204.7,1619.4 1179.5,1626.0 1154.5,1632.9 1129.7,1640.0 1105.2,1647.5 1080.9,1655.3 1056.8,1663.3 1033.0,1671.6 1009.5,1680.1  A 522.500,522.500 0.00 0,1 994.9,1633.6 L 994.9,1633.6 1019.6,1627.2 1044.6,1620.9 1069.7,1614.8 1095.0,1608.9 1120.5,1603.2 1146.1,1597.7 1171.9,1592.4 1197.9,1587.3 1223.9,1582.5 1250.1,1578.0 1276.4,1573.7 1302.8,1569.7 1329.3,1565.9 1355.9,1562.5 1382.5,1559.3 1409.2,1556.4 1436.0,1553.8 1462.8,1551.5 1489.7,1549.5 1516.5,1547.8 1543.4,1546.3 1570.3,1545.2 1597.2,1544.4 1624.0,1543.9 1650.9,1543.7 1677.7,1543.7 1704.4,1544.1 1731.1,1544.7 1757.8,1545.6 1784.3,1546.8 1810.8,1548.3 1837.1,1550.0 1863.4,1551.9 1889.5,1554.1 1915.5,1556.6 1941.4,1559.2 1967.1,1562.1 1992.6,1565.1 2018.0,1568.4  Z" style="stroke-width: 0.5;  stroke: rgb(0,0,0); fill: rgb(179,177,178);" />
<path d="M 1996.185,1663.727 A 522.500,522.500 0.00 0,1 1979.5,1707.6 L 1979.5,1707.6 1957.5,1698.3 1935.2,1689.4 1912.5,1680.8 1889.5,1672.6 1866.2,1664.9 1842.6,1657.7 1818.8,1651.0 1794.7,1644.8 1770.4,1639.2 1745.9,1634.2 1721.2,1629.8 1696.5,1626.0 1671.6,1622.9 1646.6,1620.5 1621.5,1618.8 1596.4,1617.7 1571.3,1617.3 1546.1,1617.7 1521.0,1618.8 1495.9,1620.5 1470.9,1623.0 1446.0,1626.2 1421.1,1630.1 1396.4,1634.7 1371.8,1639.9 1347.4,1645.9 1323.2,1652.4 1299.2,1659.6 1275.4,1667.5 1251.9,1675.9 1228.6,1684.8 1205.7,1694.3 1183.0,1704.4 1160.7,1714.8 1138.7,1725.7 1117.0,1737.1 1095.8,1748.7 1074.9,1760.7 1054.5,1773.0  A 522.500,522.500 0.00 0,1 1031.6,1731.6 L 1031.6,1731.6 1053.5,1720.9 1075.8,1710.6 1098.5,1700.5 1121.4,1690.7 1144.7,1681.2 1168.3,1672.2 1192.1,1663.5 1216.3,1655.3 1240.6,1647.5 1265.2,1640.2 1290.0,1633.4 1315.0,1627.1 1340.2,1621.3 1365.5,1616.1 1391.0,1611.4 1416.6,1607.3 1442.3,1603.7 1468.0,1600.7 1493.9,1598.3 1519.8,1596.5 1545.7,1595.3 1571.7,1594.6 1597.6,1594.5 1623.6,1595.0 1649.4,1596.1 1675.2,1597.8 1701.0,1600.0 1726.6,1602.7 1752.1,1606.0 1777.5,1609.8 1802.7,1614.1 1827.7,1618.8 1852.5,1624.1 1877.2,1629.7 1901.5,1635.8 1925.6,1642.3 1949.5,1649.1 1973.0,1656.3 1996.2,1663.7  Z" style="stroke-width: 0.5;  stroke: rgb(0,0,0); fill: rgb(179,177,178);" />
<path d="M 1890.015,1847.699 A 522.500,522.500 0.00 0,1 1861.9,1876.9 L 1861.9,1876.9 1846.7,1861.5 1831.1,1846.5 1815.2,1831.8 1798.8,1817.7 1782.1,1804.1 1765.1,1791.3 1747.9,1779.2 1730.4,1767.9 1712.7,1757.4 1694.8,1748.0 1676.8,1739.5 1658.6,1732.0 1640.4,1725.6 1622.2,1720.4 1603.9,1716.3 1585.6,1713.3 1567.3,1711.5 1549.1,1711.0 1531.0,1711.6 1513.0,1713.5 1495.2,1716.6 1477.5,1720.9 1460.0,1726.3 1442.7,1733.0 1425.7,1740.7 1408.9,1749.6 1392.3,1759.6 1376.1,1770.6 1360.2,1782.6 1344.7,1795.6 1329.5,1809.4 1314.7,1824.1 1300.3,1839.5 1286.3,1855.6 1272.7,1872.2 1259.6,1889.4 1247.0,1907.0 1234.8,1925.0 1223.2,1943.1  A 522.500,522.500 0.00 0,1 1189.8,1920.4 L 1189.8,1920.4 1203.0,1902.9 1216.7,1885.7 1231.0,1868.8 1245.7,1852.3 1260.9,1836.3 1276.5,1820.9 1292.6,1806.1 1309.0,1792.0 1325.9,1778.8 1343.1,1766.3 1360.6,1754.8 1378.5,1744.2 1396.7,1734.5 1415.2,1725.9 1433.9,1718.3 1452.8,1711.8 1471.9,1706.4 1491.3,1702.1 1510.7,1698.9 1530.4,1696.9 1550.1,1696.0 1569.9,1696.2 1589.7,1697.6 1609.6,1700.1 1629.5,1703.6 1649.3,1708.3 1669.1,1714.0 1688.7,1720.7 1708.3,1728.4 1727.7,1737.0 1746.9,1746.6 1765.9,1756.9 1784.6,1768.1 1803.1,1780.0 1821.3,1792.5 1839.1,1805.6 1856.5,1819.2 1873.5,1833.3 1890.0,1847.7  Z" style="stroke-width: 0.5;  stroke: rgb(0,0,0); fill: rgb(179,177,178);" />
<path d="M 2022.030,1522.151 A 522.500,522.500 0.00 0,1 2018.9,1561.6 L 2018.9,1561.6 1993.4,1558.6 1967.8,1555.9 1942.0,1553.3 1916.0,1551.0 1890.0,1548.8 1863.8,1546.9 1837.5,1545.2 1811.0,1543.8 1784.5,1542.6 1757.9,1541.6 1731.3,1540.9 1704.6,1540.5 1677.8,1540.3 1651.0,1540.4 1624.1,1540.8 1597.2,1541.5 1570.3,1542.4 1543.4,1543.6 1516.5,1545.1 1489.6,1546.9 1462.8,1549.0 1435.9,1551.4 1409.2,1554.0 1382.4,1556.9 1355.8,1560.1 1329.2,1563.6 1302.6,1567.3 1276.2,1571.3 1249.9,1575.5 1223.7,1580.0 1197.5,1584.7 1171.6,1589.7 1145.7,1594.9 1120.0,1600.3 1094.5,1605.9 1069.1,1611.6 1043.8,1617.6 1018.8,1623.7 993.9,1630.0  A 522.500,522.500 0.00 0,1 985.5,1591.2 L 985.5,1591.2 1011.2,1586.7 1037.1,1582.3 1063.0,1578.0 1089.1,1573.8 1115.2,1569.7 1141.4,1565.8 1167.8,1562.0 1194.2,1558.3 1220.6,1554.8 1247.2,1551.4 1273.8,1548.1 1300.5,1545.0 1327.2,1542.1 1354.0,1539.3 1380.8,1536.7 1407.6,1534.2 1434.5,1531.9 1461.4,1529.8 1488.3,1527.9 1515.3,1526.1 1542.2,1524.4 1569.2,1523.0 1596.1,1521.7 1623.0,1520.6 1650.0,1519.6 1676.9,1518.8 1703.7,1518.2 1730.6,1517.7 1757.4,1517.4 1784.2,1517.2 1810.9,1517.2 1837.5,1517.4 1864.1,1517.7 1890.6,1518.1 1917.1,1518.7 1943.5,1519.3 1969.7,1520.2 1995.9,1521.1 2022.0,1522.2  Z" style="stroke-width: 0.5;  stroke: rgb(0,0,0); fill: rgb(179,177,178);" />
<path d="M 1953.297,1759.861 A 522.500,522.500 0.00 0,1 1936.1,1787.8 L 1936.1,1787.8 1917.1,1775.5 1897.6,1763.6 1877.7,1752.1 1857.4,1741.2 1836.7,1730.7 1815.8,1720.9 1794.6,1711.7 1773.1,1703.3 1751.4,1695.6 1729.5,1688.7 1707.4,1682.6 1685.3,1677.3 1663.0,1673.0 1640.6,1669.5 1618.2,1667.0 1595.8,1665.5 1573.3,1664.9 1551.0,1665.3 1528.6,1666.6 1506.4,1668.9 1484.3,1672.2 1462.3,1676.5 1440.5,1681.7 1418.9,1687.9 1397.5,1694.9 1376.3,1702.9 1355.4,1711.8 1334.8,1721.5 1314.5,1732.0 1294.5,1743.3 1274.8,1755.4 1255.6,1768.1 1236.7,1781.4 1218.2,1795.4 1200.2,1809.8 1182.6,1824.8 1165.5,1840.1 1148.9,1855.8 1132.8,1871.7  A 522.500,522.500 0.00 0,1 1110.1,1847.8 L 1110.1,1847.8 1127.4,1832.7 1145.3,1817.9 1163.6,1803.3 1182.3,1789.2 1201.5,1775.5 1221.1,1762.3 1241.1,1749.7 1261.5,1737.7 1282.2,1726.3 1303.3,1715.6 1324.7,1705.6 1346.4,1696.3 1368.3,1687.9 1390.5,1680.2 1412.9,1673.4 1435.6,1667.5 1458.4,1662.4 1481.3,1658.2 1504.4,1654.9 1527.6,1652.4 1550.9,1650.9 1574.2,1650.3 1597.6,1650.6 1621.0,1651.7 1644.3,1653.8 1667.6,1656.7 1690.9,1660.4 1714.0,1665.0 1737.0,1670.3 1759.8,1676.4 1782.4,1683.3 1804.9,1690.9 1827.1,1699.1 1849.0,1708.0 1870.6,1717.4 1891.8,1727.4 1912.7,1737.8 1933.2,1748.6 1953.3,1759.9  Z" style="stroke-width: 0.5;  stroke: rgb(0,0,0); fill: rgb(179,177,178);" />
<path d="M 1500.000,977.500 A 522.500,522.500 0.00 0,1 1506.9,977.5 L 1506.9,977.5 1506.5,997.8 1505.9,1017.9 1505.1,1037.7 1504.0,1057.1 1502.6,1076.0 1500.9,1094.3 1498.9,1111.8 1496.6,1128.5 1494.0,1144.2 1491.1,1158.8 1487.8,1172.4 1484.2,1184.8 1480.3,1195.9 1476.0,1205.7 1471.4,1214.2 1466.5,1221.2 1461.3,1226.9 1455.7,1231.1 1449.8,1233.8 1443.7,1235.0 1437.2,1234.8 1430.4,1233.0 1423.4,1229.9 1416.2,1225.2 1408.7,1219.2 1401.0,1211.8 1393.0,1203.0 1385.0,1193.0 1376.7,1181.8 1368.4,1169.4 1359.9,1155.9 1351.4,1141.4 1342.8,1126.0 1334.2,1109.8 1325.6,1092.9 1317.1,1075.4 1308.7,1057.4 1300.4,1039.1 1292.2,1020.6  A 522.500,522.500 0.00 0,1 1300.1,1017.3 L 1300.1,1017.3 1307.9,1035.9 1315.9,1054.3 1324.0,1072.4 1332.2,1090.0 1340.4,1107.1 1348.6,1123.4 1356.8,1138.9 1364.9,1153.5 1373.0,1167.2 1380.9,1179.7 1388.8,1191.1 1396.4,1201.2 1403.9,1210.1 1411.2,1217.6 1418.3,1223.8 1425.1,1228.5 1431.7,1231.8 1438.1,1233.6 1444.1,1234.0 1449.9,1232.8 1455.3,1230.2 1460.5,1226.1 1465.3,1220.5 1469.8,1213.5 1474.0,1205.1 1477.8,1195.4 1481.4,1184.3 1484.6,1172.0 1487.4,1158.5 1490.0,1143.9 1492.2,1128.2 1494.2,1111.6 1495.8,1094.1 1497.2,1075.9 1498.2,1057.0 1499.0,1037.6 1499.6,1017.8 1499.9,997.7 1500.0,977.5  Z" style="stroke-width: 0.5;  stroke: rgb(0,0,0); fill: rgb(179,177,178);" />
<path d="M 1567.783,981.915 A 522.500,522.500 0.00 0,1 1596.6,986.5 L 1596.6,986.5 1592.6,1006.7 1588.3,1026.8 1583.5,1046.6 1578.4,1066.0 1572.9,1084.9 1567.0,1103.1 1560.7,1120.7 1554.1,1137.5 1547.0,1153.3 1539.6,1168.2 1531.7,1182.0 1523.5,1194.7 1514.9,1206.2 1506.0,1216.5 1496.7,1225.4 1487.0,1233.1 1477.1,1239.4 1466.8,1244.3 1456.2,1247.9 1445.3,1250.0 1434.2,1250.7 1422.8,1250.1 1411.2,1248.0 1399.3,1244.5 1387.3,1239.7 1375.2,1233.6 1362.9,1226.2 1350.5,1217.5 1338.0,1207.7 1325.5,1196.8 1313.0,1184.8 1300.5,1171.8 1288.0,1157.9 1275.6,1143.2 1263.4,1127.8 1251.3,1111.7 1239.5,1095.2 1227.9,1078.3 1216.5,1061.1  A 522.500,522.500 0.00 0,1 1241.6,1045.9 L 1241.6,1045.9 1251.8,1063.6 1262.4,1081.0 1273.1,1098.1 1284.0,1114.7 1295.0,1130.6 1306.1,1145.9 1317.3,1160.3 1328.5,1173.9 1339.6,1186.4 1350.8,1197.9 1361.9,1208.2 1372.9,1217.4 1383.7,1225.3 1394.4,1231.9 1405.0,1237.1 1415.3,1241.0 1425.5,1243.4 1435.3,1244.5 1445.0,1244.1 1454.3,1242.2 1463.4,1239.0 1472.1,1234.3 1480.6,1228.2 1488.7,1220.7 1496.5,1211.9 1503.9,1201.7 1511.0,1190.3 1517.7,1177.7 1524.1,1163.9 1530.1,1149.1 1535.7,1133.2 1540.9,1116.5 1545.8,1098.9 1550.4,1080.6 1554.5,1061.6 1558.4,1042.1 1561.8,1022.3 1565.0,1002.2 1567.8,981.9  Z" style="stroke-width: 0.5;  stroke: rgb(0,0,0); fill: rgb(179,177,178);" />
<path d="M 1727.430,1029.594 A 522.500,522.500 0.00 0,1 1748.8,1040.5 L 1748.8,1040.5 1738.2,1059.4 1727.2,1078.2 1715.6,1096.6 1703.5,1114.7 1690.9,1132.3 1677.9,1149.3 1664.4,1165.7 1650.4,1181.4 1635.9,1196.3 1621.1,1210.4 1605.8,1223.5 1590.1,1235.8 1574.0,1247.0 1557.6,1257.2 1540.8,1266.3 1523.7,1274.3 1506.3,1281.1 1488.7,1286.9 1470.7,1291.4 1452.6,1294.8 1434.2,1297.0 1415.7,1298.0 1396.9,1297.8 1378.1,1296.4 1359.2,1293.9 1340.2,1290.3 1321.2,1285.6 1302.2,1279.8 1283.2,1273.0 1264.3,1265.2 1245.4,1256.4 1226.8,1246.8 1208.3,1236.3 1190.0,1225.1 1171.9,1213.2 1154.2,1200.7 1136.8,1187.6 1119.7,1174.1 1103.1,1160.2  A 522.500,522.500 0.00 0,1 1119.1,1142.4 L 1119.1,1142.4 1134.9,1156.9 1151.1,1171.0 1167.7,1184.8 1184.6,1197.9 1201.8,1210.5 1219.3,1222.3 1236.9,1233.4 1254.7,1243.6 1272.7,1252.9 1290.7,1261.3 1308.8,1268.6 1326.9,1274.9 1345.0,1280.1 1363.0,1284.2 1381.0,1287.0 1398.8,1288.7 1416.6,1289.2 1434.2,1288.5 1451.5,1286.5 1468.7,1283.3 1485.6,1278.9 1502.3,1273.3 1518.7,1266.5 1534.8,1258.5 1550.5,1249.4 1565.9,1239.1 1580.9,1227.8 1595.6,1215.5 1609.8,1202.1 1623.7,1187.9 1637.1,1172.7 1650.0,1156.8 1662.5,1140.1 1674.6,1122.8 1686.1,1104.9 1697.2,1086.6 1707.8,1067.8 1717.9,1048.8 1727.4,1029.6  Z" style="stroke-width: 0.5;  stroke: rgb(0,0,0); fill: rgb(179,177,178);" />
<path d="M 2004.653,1364.605 A 522.500,522.500 0.00 0,1 2009.8,1385.7 L 2009.8,1385.7 1984.0,1391.5 1958.0,1397.2 1932.1,1402.9 1906.0,1408.6 1880.0,1414.2 1853.8,1419.7 1827.7,1425.2 1801.5,1430.7 1775.3,1436.1 1749.0,1441.4 1722.7,1446.7 1696.3,1451.9 1670.0,1457.1 1643.6,1462.2 1617.2,1467.2 1590.7,1472.2 1564.3,1477.1 1537.8,1482.0 1511.3,1486.7 1484.8,1491.4 1458.3,1496.1 1431.8,1500.6 1405.2,1505.1 1378.7,1509.5 1352.2,1513.9 1325.6,1518.2 1299.1,1522.4 1272.6,1526.5 1246.1,1530.6 1219.6,1534.6 1193.1,1538.6 1166.6,1542.5 1140.1,1546.3 1113.7,1550.1 1087.3,1553.8 1060.9,1557.4 1034.5,1561.0 1008.2,1564.5 981.9,1568.0  A 522.500,522.500 0.00 0,1 979.6,1546.4 L 979.6,1546.4 1005.7,1544.0 1031.9,1541.6 1058.2,1539.0 1084.5,1536.3 1110.9,1533.5 1137.4,1530.6 1163.8,1527.5 1190.3,1524.4 1216.9,1521.1 1243.5,1517.7 1270.1,1514.2 1296.7,1510.5 1323.3,1506.7 1349.9,1502.8 1376.5,1498.8 1403.2,1494.6 1429.8,1490.3 1456.4,1485.8 1483.0,1481.2 1509.5,1476.5 1536.1,1471.7 1562.6,1466.7 1589.1,1461.6 1615.5,1456.4 1641.9,1451.0 1668.3,1445.6 1694.6,1440.0 1720.8,1434.2 1747.0,1428.4 1773.1,1422.5 1799.2,1416.4 1825.1,1410.3 1851.0,1404.0 1876.9,1397.6 1902.6,1391.2 1928.3,1384.7 1953.8,1378.1 1979.3,1371.4 2004.7,1364.6  Z" style="stroke-width: 0.5;  stroke: rgb(0,0,0); fill: rgb(179,177,178);" />
<path d="M 1604.263,988.008 A 522.500,522.500 0.00 0,1 1624.6,992.6 L 1624.6,992.6 1619.4,1012.7 1613.9,1032.6 1607.9,1052.3 1601.5,1071.6 1594.7,1090.4 1587.5,1108.5 1579.9,1126.0 1571.9,1142.7 1563.5,1158.5 1554.6,1173.3 1545.4,1187.2 1535.8,1199.9 1525.8,1211.4 1515.4,1221.7 1504.7,1230.8 1493.6,1238.6 1482.2,1245.1 1470.5,1250.2 1458.5,1254.0 1446.2,1256.4 1433.6,1257.4 1420.9,1257.1 1407.9,1255.3 1394.7,1252.3 1381.3,1247.9 1367.8,1242.2 1354.2,1235.2 1340.5,1227.0 1326.8,1217.7 1313.0,1207.3 1299.3,1195.8 1285.6,1183.4 1271.9,1170.0 1258.4,1155.9 1245.1,1141.0 1232.0,1125.5 1219.1,1109.5 1206.4,1093.1 1194.1,1076.4  A 522.500,522.500 0.00 0,1 1210.6,1065.0 L 1210.6,1065.0 1222.1,1082.1 1234.0,1098.9 1246.2,1115.3 1258.5,1131.2 1271.0,1146.4 1283.7,1161.0 1296.5,1174.7 1309.3,1187.6 1322.2,1199.5 1335.0,1210.3 1347.8,1220.0 1360.6,1228.5 1373.2,1235.8 1385.7,1241.8 1398.1,1246.5 1410.3,1249.9 1422.3,1251.9 1434.1,1252.4 1445.6,1251.6 1456.9,1249.4 1467.8,1245.8 1478.5,1240.9 1488.9,1234.5 1498.9,1226.8 1508.6,1217.8 1517.9,1207.5 1526.9,1196.0 1535.5,1183.3 1543.7,1169.5 1551.5,1154.6 1559.0,1138.8 1566.0,1122.0 1572.7,1104.5 1578.9,1086.2 1584.8,1067.4 1590.2,1048.0 1595.3,1028.2 1600.0,1008.2 1604.3,988.0  Z" style="stroke-width: 0.5;  stroke: rgb(0,0,0); fill: rgb(179,177,178);" />
<path d="M 2022.500,1500.530 A 522.500,522.500 0.00 0,1 2022.1,1521.2 L 2022.1,1521.2 1996.0,1520.2 1969.7,1519.3 1943.4,1518.5 1917.0,1517.8 1890.6,1517.3 1864.0,1516.9 1837.4,1516.6 1810.8,1516.5 1784.1,1516.5 1757.3,1516.7 1730.5,1517.0 1703.6,1517.5 1676.8,1518.1 1649.9,1518.9 1622.9,1519.8 1596.0,1520.9 1569.1,1522.2 1542.1,1523.6 1515.2,1525.2 1488.2,1526.9 1461.3,1528.8 1434.4,1530.9 1407.5,1533.1 1380.6,1535.5 1353.8,1538.1 1327.1,1540.8 1300.3,1543.6 1273.6,1546.6 1247.0,1549.8 1220.5,1553.1 1194.0,1556.5 1167.5,1560.1 1141.2,1563.8 1114.9,1567.6 1088.7,1571.5 1062.7,1575.6 1036.7,1579.8 1010.8,1584.0 985.0,1588.4  A 522.500,522.500 0.00 0,1 981.9,1568.0 L 981.9,1568.0 1008.1,1564.6 1034.3,1561.3 1060.6,1558.0 1087.0,1554.8 1113.4,1551.7 1139.9,1548.6 1166.4,1545.7 1193.0,1542.8 1219.6,1540.0 1246.3,1537.3 1273.0,1534.6 1299.7,1532.1 1326.5,1529.7 1353.3,1527.3 1380.1,1525.1 1407.0,1522.9 1433.8,1520.9 1460.7,1518.9 1487.6,1517.1 1514.5,1515.4 1541.4,1513.7 1568.3,1512.2 1595.2,1510.7 1622.1,1509.4 1649.0,1508.1 1675.9,1507.0 1702.7,1506.0 1729.6,1505.0 1756.4,1504.2 1783.2,1503.4 1810.0,1502.8 1836.7,1502.2 1863.4,1501.7 1890.0,1501.3 1916.6,1501.0 1943.2,1500.8 1969.7,1500.6 1996.1,1500.5 2022.5,1500.5  Z" style="stroke-width: 0.5;  stroke: rgb(0,0,0); fill: rgb(179,177,178);" />
<path d="M 1963.558,1258.919 A 522.500,522.500 0.00 0,1 1971.7,1275.2 L 1971.7,1275.2 1949.0,1285.9 1926.0,1296.4 1902.7,1306.7 1879.2,1316.7 1855.4,1326.6 1831.3,1336.1 1807.0,1345.4 1782.5,1354.4 1757.8,1363.1 1732.9,1371.5 1707.8,1379.5 1682.5,1387.2 1657.0,1394.5 1631.4,1401.4 1605.6,1408.0 1579.8,1414.2 1553.7,1419.9 1527.6,1425.3 1501.4,1430.3 1475.2,1434.9 1448.8,1439.0 1422.4,1442.7 1396.0,1446.1 1369.5,1449.0 1343.1,1451.5 1316.6,1453.6 1290.2,1455.3 1263.8,1456.6 1237.4,1457.5 1211.1,1458.0 1184.9,1458.2 1158.8,1457.9 1132.8,1457.4 1107.0,1456.5 1081.3,1455.2 1055.7,1453.7 1030.3,1451.8 1005.1,1449.7 980.2,1447.3  A 522.500,522.500 0.00 0,1 982.3,1429.7 L 982.3,1429.7 1006.9,1432.9 1031.8,1435.8 1056.9,1438.4 1082.3,1440.7 1107.8,1442.6 1133.4,1444.2 1159.2,1445.4 1185.2,1446.2 1211.2,1446.6 1237.3,1446.5 1263.5,1446.1 1289.8,1445.2 1316.1,1443.9 1342.4,1442.1 1368.7,1439.8 1395.0,1437.2 1421.3,1434.0 1447.5,1430.4 1473.7,1426.3 1499.8,1421.7 1525.9,1416.7 1551.8,1411.3 1577.6,1405.4 1603.3,1399.0 1628.8,1392.2 1654.2,1385.0 1679.4,1377.4 1704.4,1369.4 1729.2,1360.9 1753.8,1352.1 1778.1,1343.0 1802.3,1333.5 1826.2,1323.6 1849.8,1313.5 1873.1,1303.0 1896.2,1292.3 1919.0,1281.4 1941.4,1270.3 1963.6,1258.9  Z" style="stroke-width: 0.5;  stroke: rgb(0,0,0); fill: rgb(179,177,178);" />
<path d="M 1792.312,1933.082 A 522.500,522.500 0.00 0,1 1779.0,1941.8 L 1779.0,1941.8 1767.9,1924.5 1756.4,1907.4 1744.7,1890.8 1732.9,1874.6 1720.8,1859.1 1708.6,1844.3 1696.3,1830.3 1684.0,1817.2 1671.6,1805.0 1659.2,1794.0 1646.9,1784.0 1634.7,1775.3 1622.5,1767.7 1610.4,1761.5 1598.6,1756.6 1586.8,1753.0 1575.3,1750.9 1564.0,1750.1 1552.9,1750.7 1542.1,1752.7 1531.6,1756.2 1521.4,1761.0 1511.4,1767.3 1501.8,1774.9 1492.5,1783.8 1483.6,1794.0 1475.0,1805.4 1466.8,1818.0 1458.9,1831.8 1451.5,1846.6 1444.4,1862.4 1437.6,1879.1 1431.3,1896.6 1425.4,1914.9 1419.8,1933.8 1414.6,1953.1 1409.8,1972.9 1405.4,1992.9 1401.3,2013.1  A 522.500,522.500 0.00 0,1 1385.8,2009.9 L 1385.8,2009.9 1390.5,1989.7 1395.6,1969.8 1401.1,1950.1 1406.9,1930.7 1413.2,1911.9 1419.9,1893.7 1427.0,1876.3 1434.5,1859.6 1442.3,1843.8 1450.6,1829.0 1459.2,1815.2 1468.3,1802.6 1477.6,1791.1 1487.4,1780.9 1497.5,1771.9 1507.9,1764.2 1518.7,1757.9 1529.7,1752.9 1541.1,1749.3 1552.7,1747.1 1564.6,1746.3 1576.7,1746.9 1589.0,1748.9 1601.5,1752.2 1614.2,1756.9 1627.0,1762.9 1639.9,1770.2 1652.9,1778.7 1666.0,1788.3 1679.1,1799.1 1692.2,1810.9 1705.2,1823.7 1718.2,1837.4 1731.0,1851.9 1743.7,1867.1 1756.3,1883.0 1768.6,1899.3 1780.6,1916.1 1792.3,1933.1  Z" style="stroke-width: 0.5;  stroke: rgb(0,0,0); fill: rgb(179,177,178);" />
<path d="M 1851.407,1113.323 A 522.500,522.500 0.00 0,1 1862.8,1124.0 L 1862.8,1124.0 1846.7,1140.3 1830.1,1156.4 1813.0,1172.2 1795.4,1187.7 1777.3,1202.7 1758.8,1217.2 1739.8,1231.2 1720.4,1244.7 1700.6,1257.5 1680.5,1269.6 1659.9,1281.0 1639.1,1291.7 1617.9,1301.6 1596.4,1310.7 1574.6,1319.0 1552.6,1326.4 1530.3,1333.0 1507.8,1338.7 1485.1,1343.5 1462.3,1347.4 1439.3,1350.3 1416.2,1352.4 1393.0,1353.6 1369.7,1353.9 1346.4,1353.3 1323.1,1351.8 1299.8,1349.5 1276.6,1346.3 1253.5,1342.3 1230.4,1337.5 1207.5,1332.0 1184.8,1325.7 1162.3,1318.8 1140.0,1311.2 1117.9,1303.0 1096.2,1294.2 1074.8,1285.0 1053.8,1275.3 1033.2,1265.2  A 522.500,522.500 0.00 0,1 1040.4,1251.4 L 1040.4,1251.4 1060.6,1262.0 1081.1,1272.2 1102.1,1282.0 1123.4,1291.3 1145.0,1300.0 1166.9,1308.0 1189.0,1315.5 1211.3,1322.2 1233.8,1328.1 1256.4,1333.3 1279.1,1337.7 1301.9,1341.2 1324.8,1343.9 1347.7,1345.7 1370.5,1346.5 1393.4,1346.5 1416.1,1345.5 1438.8,1343.5 1461.3,1340.7 1483.7,1336.8 1506.0,1332.1 1528.0,1326.4 1549.8,1319.8 1571.4,1312.3 1592.7,1303.9 1613.7,1294.7 1634.3,1284.6 1654.7,1273.7 1674.7,1262.1 1694.4,1249.7 1713.6,1236.6 1732.4,1222.9 1750.8,1208.6 1768.8,1193.7 1786.3,1178.4 1803.3,1162.6 1819.9,1146.5 1835.9,1130.0 1851.4,1113.3  Z" style="stroke-width: 0.5;  stroke: rgb(0,0,0); fill: rgb(179,177,178);" />
<path d="M 1979.847,1293.232 A 522.500,522.500 0.00 0,1 1985.5,1306.8 L 1985.5,1306.8 1961.7,1316.1 1937.7,1325.3 1913.6,1334.4 1889.2,1343.2 1864.6,1351.9 1839.8,1360.3 1814.8,1368.6 1789.7,1376.6 1764.4,1384.4 1738.9,1392.0 1713.3,1399.2 1687.6,1406.3 1661.7,1413.0 1635.8,1419.5 1609.7,1425.7 1583.5,1431.5 1557.2,1437.1 1530.8,1442.4 1504.4,1447.4 1477.9,1452.1 1451.3,1456.4 1424.8,1460.5 1398.2,1464.2 1371.5,1467.7 1344.9,1470.8 1318.3,1473.6 1291.6,1476.1 1265.1,1478.3 1238.5,1480.3 1212.0,1481.9 1185.6,1483.2 1159.2,1484.3 1132.9,1485.1 1106.7,1485.6 1080.7,1485.9 1054.7,1485.9 1028.9,1485.7 1003.2,1485.2 977.7,1484.6  A 522.500,522.500 0.00 0,1 978.4,1469.7 L 978.4,1469.7 1003.7,1471.0 1029.2,1472.2 1054.8,1473.0 1080.6,1473.6 1106.6,1474.0 1132.6,1474.0 1158.8,1473.8 1185.1,1473.2 1211.4,1472.3 1237.9,1471.1 1264.4,1469.6 1290.9,1467.7 1317.4,1465.5 1344.0,1463.0 1370.6,1460.1 1397.2,1456.9 1423.7,1453.3 1450.2,1449.3 1476.7,1445.0 1503.1,1440.4 1529.5,1435.4 1555.7,1430.0 1581.9,1424.3 1608.0,1418.3 1634.0,1411.9 1659.8,1405.2 1685.5,1398.2 1711.1,1390.9 1736.5,1383.3 1761.7,1375.4 1786.8,1367.2 1811.7,1358.7 1836.4,1350.0 1860.8,1341.1 1885.1,1331.9 1909.1,1322.5 1933.0,1312.9 1956.5,1303.2 1979.8,1293.2  Z" style="stroke-width: 0.5;  stroke: rgb(0,0,0); fill: rgb(179,177,178);" />
<path d="M 1989.252,1316.591 A 522.500,522.500 0.00 0,1 1994.2,1330.4 L 1994.2,1330.4 1969.8,1338.7 1945.2,1346.8 1920.4,1354.9 1895.4,1362.8 1870.3,1370.6 1845.1,1378.2 1819.7,1385.6 1794.2,1392.8 1768.5,1399.9 1742.8,1406.7 1716.9,1413.4 1690.9,1419.9 1664.8,1426.1 1638.6,1432.1 1612.3,1437.9 1586.0,1443.5 1559.5,1448.8 1533.1,1453.9 1506.5,1458.8 1479.9,1463.4 1453.3,1467.8 1426.7,1471.9 1400.0,1475.8 1373.3,1479.5 1346.6,1482.9 1320.0,1486.1 1293.3,1489.0 1266.6,1491.7 1240.0,1494.2 1213.4,1496.4 1186.9,1498.5 1160.4,1500.3 1134.0,1501.8 1107.7,1503.2 1081.5,1504.4 1055.3,1505.4 1029.3,1506.2 1003.4,1506.8 977.5,1507.2  A 522.500,522.500 0.00 0,1 977.6,1492.0 L 977.6,1492.0 1003.2,1492.3 1029.0,1492.4 1054.9,1492.3 1080.9,1492.0 1107.0,1491.4 1133.3,1490.6 1159.6,1489.6 1186.0,1488.3 1212.5,1486.8 1239.0,1485.0 1265.6,1482.9 1292.3,1480.6 1318.9,1477.9 1345.6,1475.0 1372.2,1471.9 1398.9,1468.4 1425.5,1464.6 1452.2,1460.6 1478.8,1456.3 1505.3,1451.7 1531.8,1446.8 1558.2,1441.6 1584.6,1436.2 1610.8,1430.5 1637.0,1424.5 1663.1,1418.3 1689.1,1411.8 1714.9,1405.0 1740.7,1398.0 1766.3,1390.8 1791.7,1383.3 1817.0,1375.6 1842.2,1367.7 1867.1,1359.6 1891.9,1351.3 1916.6,1342.9 1941.0,1334.3 1965.2,1325.5 1989.3,1316.6  Z" style="stroke-width: 0.5;  stroke: rgb(0,0,0); fill: rgb(179,177,178);" />
<path d="M 1861.352,1877.401 A 522.500,522.500 0.00 0,1 1850.9,1887.1 L 1850.9,1887.1 1836.3,1871.4 1821.3,1856.0 1805.8,1841.0 1790.0,1826.5 1773.9,1812.6 1757.5,1799.4 1740.8,1786.9 1723.8,1775.3 1706.7,1764.6 1689.4,1754.8 1672.0,1746.0 1654.4,1738.3 1636.8,1731.6 1619.1,1726.2 1601.4,1721.8 1583.8,1718.7 1566.1,1716.8 1548.5,1716.1 1531.1,1716.7 1513.7,1718.4 1496.4,1721.5 1479.4,1725.7 1462.5,1731.2 1445.8,1737.8 1429.4,1745.7 1413.2,1754.6 1397.3,1764.7 1381.7,1775.8 1366.4,1788.0 1351.5,1801.1 1336.9,1815.1 1322.7,1829.9 1308.8,1845.5 1295.4,1861.8 1282.5,1878.7 1269.9,1896.1 1257.9,1913.9 1246.3,1932.1 1235.2,1950.4  A 522.500,522.500 0.00 0,1 1223.1,1943.1 L 1223.1,1943.1 1234.7,1924.9 1246.9,1907.0 1259.5,1889.4 1272.6,1872.2 1286.2,1855.5 1300.2,1839.5 1314.6,1824.1 1329.4,1809.4 1344.6,1795.6 1360.1,1782.7 1376.0,1770.7 1392.2,1759.6 1408.8,1749.7 1425.6,1740.8 1442.6,1733.0 1459.9,1726.4 1477.4,1720.9 1495.1,1716.7 1512.9,1713.6 1530.9,1711.8 1549.0,1711.1 1567.1,1711.7 1585.4,1713.5 1603.7,1716.4 1621.9,1720.6 1640.2,1725.9 1658.4,1732.3 1676.5,1739.7 1694.5,1748.2 1712.4,1757.7 1730.0,1768.2 1747.5,1779.5 1764.8,1791.6 1781.7,1804.5 1798.4,1818.1 1814.7,1832.2 1830.7,1846.9 1846.2,1862.0 1861.4,1877.4  Z" style="stroke-width: 0.5;  stroke: rgb(0,0,0); fill: rgb(179,177,178);" />
<path d="M 1632.563,994.596 A 522.500,522.500 0.00 0,1 1646.0,998.3 L 1646.0,998.3 1640.0,1018.3 1633.5,1038.1 1626.6,1057.7 1619.2,1076.9 1611.4,1095.5 1603.2,1113.6 1594.6,1131.0 1585.5,1147.6 1576.0,1163.3 1566.1,1178.1 1555.8,1191.9 1545.1,1204.6 1534.0,1216.2 1522.5,1226.6 1510.7,1235.7 1498.5,1243.6 1486.0,1250.2 1473.2,1255.5 1460.1,1259.5 1446.7,1262.1 1433.1,1263.4 1419.2,1263.3 1405.1,1261.8 1390.9,1259.1 1376.5,1255.0 1361.9,1249.7 1347.3,1243.2 1332.6,1235.4 1317.9,1226.5 1303.1,1216.5 1288.4,1205.5 1273.8,1193.5 1259.2,1180.7 1244.8,1167.0 1230.6,1152.6 1216.6,1137.6 1202.8,1122.1 1189.4,1106.1 1176.3,1089.9  A 522.500,522.500 0.00 0,1 1187.2,1081.5 L 1187.2,1081.5 1199.8,1098.0 1212.8,1114.2 1226.0,1130.1 1239.5,1145.4 1253.2,1160.0 1267.0,1174.0 1281.0,1187.2 1295.0,1199.5 1309.2,1210.8 1323.3,1221.0 1337.4,1230.2 1351.5,1238.2 1365.5,1245.0 1379.4,1250.5 1393.1,1254.8 1406.7,1257.8 1420.1,1259.4 1433.3,1259.6 1446.3,1258.5 1459.0,1256.0 1471.4,1252.2 1483.6,1247.0 1495.4,1240.5 1506.9,1232.6 1518.0,1223.5 1528.8,1213.1 1539.2,1201.6 1549.3,1188.9 1558.9,1175.1 1568.1,1160.2 1577.0,1144.5 1585.4,1127.8 1593.4,1110.4 1601.0,1092.2 1608.1,1073.4 1614.9,1054.2 1621.2,1034.6 1627.1,1014.6 1632.6,994.6  Z" style="stroke-width: 0.5;  stroke: rgb(0,0,0); fill: rgb(179,177,178);" />
<path d="M 2009.271,1616.830 A 522.500,522.500 0.00 0,1 2006.0,1630.2 L 2006.0,1630.2 1982.0,1624.1 1957.6,1618.4 1933.0,1612.9 1908.2,1607.7 1883.1,1602.9 1857.9,1598.4 1832.4,1594.3 1806.8,1590.6 1781.0,1587.3 1755.1,1584.4 1729.1,1581.9 1702.9,1579.9 1676.7,1578.3 1650.4,1577.2 1624.1,1576.5 1597.7,1576.3 1571.3,1576.6 1544.8,1577.4 1518.4,1578.6 1492.0,1580.4 1465.7,1582.6 1439.4,1585.3 1413.1,1588.4 1387.0,1592.1 1361.0,1596.2 1335.0,1600.7 1309.2,1605.7 1283.6,1611.2 1258.1,1617.0 1232.8,1623.3 1207.7,1629.9 1182.8,1637.0 1158.1,1644.4 1133.6,1652.1 1109.4,1660.2 1085.5,1668.6 1061.8,1677.2 1038.4,1686.1 1015.3,1695.2  A 522.500,522.500 0.00 0,1 1010.5,1682.7 L 1010.5,1682.7 1033.9,1674.1 1057.7,1665.7 1081.7,1657.6 1105.9,1649.7 1130.4,1642.1 1155.2,1634.8 1180.1,1627.8 1205.3,1621.2 1230.6,1614.9 1256.1,1609.0 1281.8,1603.4 1307.7,1598.3 1333.6,1593.5 1359.7,1589.1 1385.9,1585.2 1412.2,1581.7 1438.6,1578.6 1465.1,1576.0 1491.5,1573.8 1518.1,1572.1 1544.6,1570.8 1571.2,1569.9 1597.7,1569.5 1624.3,1569.5 1650.8,1570.0 1677.2,1570.8 1703.6,1572.1 1729.9,1573.9 1756.1,1576.0 1782.1,1578.5 1808.1,1581.4 1833.9,1584.7 1859.6,1588.3 1885.0,1592.3 1910.3,1596.7 1935.4,1601.3 1960.3,1606.2 1984.9,1611.4 2009.3,1616.8  Z" style="stroke-width: 0.5;  stroke: rgb(0,0,0); fill: rgb(179,177,178);" />
<path d="M 1646.007,998.315 A 522.500,522.500 0.00 0,1 1656.7,1001.5 L 1656.7,1001.5 1650.2,1021.5 1643.2,1041.2 1635.8,1060.7 1628.0,1079.9 1619.7,1098.5 1610.9,1116.5 1601.8,1133.9 1592.1,1150.4 1582.1,1166.2 1571.6,1181.0 1560.7,1194.7 1549.4,1207.5 1537.7,1219.1 1525.7,1229.5 1513.2,1238.8 1500.5,1246.8 1487.4,1253.5 1473.9,1258.9 1460.2,1263.0 1446.2,1265.8 1432.0,1267.3 1417.5,1267.4 1402.8,1266.2 1387.9,1263.7 1372.9,1259.9 1357.8,1254.8 1342.5,1248.6 1327.2,1241.1 1311.9,1232.5 1296.6,1222.9 1281.3,1212.2 1266.1,1200.5 1250.9,1188.0 1236.0,1174.7 1221.2,1160.6 1206.6,1146.0 1192.3,1130.8 1178.4,1115.2 1164.7,1099.2  A 522.500,522.500 0.00 0,1 1173.4,1092.2 L 1173.4,1092.2 1186.6,1108.3 1200.2,1124.2 1214.1,1139.6 1228.2,1154.5 1242.5,1168.8 1257.1,1182.4 1271.7,1195.2 1286.5,1207.1 1301.3,1218.0 1316.2,1227.9 1331.0,1236.7 1345.8,1244.4 1360.6,1250.9 1375.2,1256.1 1389.7,1260.1 1404.1,1262.7 1418.2,1264.1 1432.2,1264.1 1445.9,1262.8 1459.4,1260.1 1472.5,1256.1 1485.4,1250.7 1498.0,1244.1 1510.2,1236.1 1522.1,1226.9 1533.7,1216.5 1544.8,1204.9 1555.6,1192.1 1565.9,1178.3 1575.9,1163.5 1585.4,1147.7 1594.5,1131.1 1603.2,1113.7 1611.4,1095.6 1619.2,1076.9 1626.6,1057.7 1633.5,1038.1 1640.0,1018.3 1646.0,998.3  Z" style="stroke-width: 0.5;  stroke: rgb(0,0,0); fill: rgb(179,177,178);" />
<path d="M 2001.024,1648.261 A 522.500,522.500 0.00 0,1 1998.8,1655.7 L 1998.8,1655.7 1975.4,1648.6 1951.7,1641.7 1927.6,1635.2 1903.4,1629.1 1878.8,1623.3 1854.1,1618.0 1829.1,1613.0 1803.9,1608.5 1778.6,1604.5 1753.1,1600.9 1727.4,1597.9 1701.7,1595.4 1675.8,1593.3 1649.9,1591.9 1623.9,1590.9 1597.9,1590.6 1571.8,1590.7 1545.8,1591.5 1519.7,1592.8 1493.7,1594.7 1467.8,1597.1 1441.9,1600.1 1416.1,1603.6 1390.3,1607.7 1364.8,1612.3 1339.3,1617.5 1314.0,1623.2 1288.9,1629.4 1263.9,1636.1 1239.2,1643.2 1214.7,1650.8 1190.4,1658.9 1166.4,1667.3 1142.7,1676.2 1119.2,1685.4 1096.1,1694.9 1073.2,1704.8 1050.7,1715.0 1028.6,1725.3  A 522.500,522.500 0.00 0,1 1025.3,1718.3 L 1025.3,1718.3 1047.7,1708.2 1070.4,1698.3 1093.4,1688.8 1116.8,1679.5 1140.4,1670.5 1164.4,1661.9 1188.5,1653.7 1213.0,1645.9 1237.6,1638.5 1262.5,1631.5 1287.6,1625.0 1312.9,1619.0 1338.3,1613.4 1363.9,1608.4 1389.6,1603.8 1415.4,1599.8 1441.3,1596.3 1467.3,1593.4 1493.4,1590.9 1519.5,1589.1 1545.7,1587.7 1571.8,1586.9 1598.0,1586.7 1624.1,1587.0 1650.2,1587.8 1676.2,1589.1 1702.2,1591.0 1728.1,1593.4 1753.8,1596.2 1779.4,1599.6 1804.9,1603.4 1830.2,1607.6 1855.3,1612.3 1880.2,1617.4 1904.9,1622.9 1929.4,1628.8 1953.5,1634.9 1977.4,1641.5 2001.0,1648.3  Z" style="stroke-width: 0.5;  stroke: rgb(0,0,0); fill: rgb(179,177,178);" />
</g>
<g id="plot0">
<g id="plot0-axis">
</g>
<line x1='2243.6' y1='1597.8' x2='2243.6' y2='1597.8' style="stroke-width:14.0;stroke:rgb(0,0,0);stroke-linecap:round;fill:none;" />
<line x1='2243.6' y1='1597.8' x2='2283.2' y2='1603.1' style="stroke-width:14.0;stroke:rgb(0,0,0);stroke-linecap:round;fill:none;" />
<line x1='2283.2' y1='1603.1' x2='2283.2' y2='1603.1' style="stroke-width:14.0;stroke:rgb(0,0,0);stroke-linecap:round;fill:none;" />
<text x="2299.8" y="1627.9" font-size="46.8px" font-family="CMUBright-Roman" style="text-anchor:start;fill:rgb(255,38,78);" transform="rotate(7.5,2299.8,1627.9)" >HistocapCB192<tspan baseline-shift="-40%" font-size="90%">s</tspan>00610</text>
</g>
<defs>
<pattern id="hline-sparse" width="10" height="10" patternTransform="rotate(0 0 0)" patternUnits="userSpaceOnUse"><line x1="0" y1="0" x2="10" y2="0" style="stroke:black;stroke-width:2" /></pattern>
<pattern id="vline-sparse" width="10" height="10" patternTransform="rotate(0 0 0)" patternUnits="userSpaceOnUse"><line x1="0" y1="0" x2="0" y2="10" style="stroke:black;stroke-width:2" /></pattern>
<pattern id="hline" width="10" height="10" patternTransform="rotate(0 0 0)" patternUnits="userSpaceOnUse"><line x1="0" y1="0" x2="10" y2="0" style="stroke:black;stroke-width:5" /></pattern>
<pattern id="checker" width="10" height="10" patternTransform="rotate(45 0 0)" patternUnits="userSpaceOnUse"><line x1="0" y1="0" x2="10" y2="0" style="stroke:black;stroke-width:5" /><line x1="0" y1="0" x2="0" y2="10" style="stroke:black;stroke-width:4" /></pattern>
<pattern id="vline" width="10" height="10" patternTransform="rotate(0 0 0)" patternUnits="userSpaceOnUse"><line x1="0" y1="0" x2="0" y2="10" style="stroke:black;stroke-width:5" /></pattern>
<pattern id="checker" width="10" height="10" patternTransform="rotate(45 0 0)" patternUnits="userSpaceOnUse"><line x1="0" y1="0" x2="10" y2="0" style="stroke:black;stroke-width:2" /><line x1="0" y1="0" x2="0" y2="10" style="stroke:black;stroke-width:2" /></pattern>
</defs>
</svg>
