<?xml version="1.0" encoding="utf-8" standalone="no"?>
<!DOCTYPE svg PUBLIC "-//W3C//DTD SVG 1.1//EN" "http://www.w3.org/Graphics/SVG/1.1/DTD/svg11.dtd">
<svg width="3000px" height="3000px" version="1.1" xmlns="http://www.w3.org/2000/svg" xmlns:xlink="http://www.w3.org/1999/xlink">
<g id="bg">
<rect x="0" y="0" width="3000px" height="3000px" style="fill:rgb(255,255,255);"/>
</g>
<g id="ideograms">
<path d="M1500.000,950.000 A550.000,550.000 40.000 0,1 1617.995,2037.194 L1660.902,2232.537 A750.000,750.000 0.000 0,0 1500.000,750.000 Z" style="stroke-width:2.0;stroke:rgb(0,0,0);stroke-linecap:round;fill:rgb(179,177,178);" />
<text x="2469.3" y="1394.8" font-size="46.8px" font-family="CMUBright-Roman" style="text-anchor:middle;fill:rgb(0,0,0);" transform="rotate(443.8,2469.3,1394.8)" >HistomissSECH84<tspan baseline-shift="-40%" font-size="90%">2</tspan></text>
<line x1='1580.1' y1='754.3' x2='1581.4' y2='742.4' style="stroke-width:8.0;stroke:rgb(150,150,150);stroke-linecap:round;fill:none;" />
<line x1='1675.4' y1='770.8' x2='1678.2' y2='759.1' style="stroke-width:8.0;stroke:rgb(150,150,150);stroke-linecap:round;fill:none;" />
<line x1='1767.8' y1='799.4' x2='1772.1' y2='788.2' style="stroke-width:8.0;stroke:rgb(150,150,150);stroke-linecap:round;fill:none;" />
<text x="1789.4" y="782.1" font-size="41.6px" font-family="CMUBright-Roman" style="text-anchor:start;fill:rgb(150,150,150);" transform="rotate(290.9,1789.4,782.1)" >2250 kb</text>
<line x1='1855.7' y1='839.7' x2='1861.4' y2='829.2' style="stroke-width:8.0;stroke:rgb(150,150,150);stroke-linecap:round;fill:none;" />
<line x1='1937.7' y1='891.0' x2='1944.7' y2='881.2' style="stroke-width:8.0;stroke:rgb(150,150,150);stroke-linecap:round;fill:none;" />
<line x1='2012.4' y1='952.4' x2='2020.6' y2='943.6' style="stroke-width:8.0;stroke:rgb(150,150,150);stroke-linecap:round;fill:none;" />
<line x1='2078.7' y1='1022.9' x2='2087.9' y2='1015.2' style="stroke-width:8.0;stroke:rgb(150,150,150);stroke-linecap:round;fill:none;" />
<line x1='2135.2' y1='1101.3' x2='2145.4' y2='1094.9' style="stroke-width:8.0;stroke:rgb(150,150,150);stroke-linecap:round;fill:none;" />
<text x="2162.9" y="1100.5" font-size="41.6px" font-family="CMUBright-Roman" style="text-anchor:start;fill:rgb(150,150,150);" transform="rotate(327.9,2162.9,1100.5)" >2300 kb</text>
<line x1='2181.3' y1='1186.3' x2='2192.2' y2='1181.3' style="stroke-width:8.0;stroke:rgb(150,150,150);stroke-linecap:round;fill:none;" />
<line x1='2216.0' y1='1276.6' x2='2227.4' y2='1273.0' style="stroke-width:8.0;stroke:rgb(150,150,150);stroke-linecap:round;fill:none;" />
<line x1='2238.8' y1='1370.6' x2='2250.6' y2='1368.5' style="stroke-width:8.0;stroke:rgb(150,150,150);stroke-linecap:round;fill:none;" />
<line x1='2249.3' y1='1466.7' x2='2261.3' y2='1466.2' style="stroke-width:8.0;stroke:rgb(150,150,150);stroke-linecap:round;fill:none;" />
<line x1='2247.3' y1='1563.4' x2='2259.3' y2='1564.4' style="stroke-width:8.0;stroke:rgb(150,150,150);stroke-linecap:round;fill:none;" />
<text x="2269.9" y="1579.4" font-size="41.6px" font-family="CMUBright-Roman" style="text-anchor:start;fill:rgb(150,150,150);" transform="rotate(4.9,2269.9,1579.4)" >2350 kb</text>
<line x1='2232.9' y1='1659.1' x2='2244.7' y2='1661.6' style="stroke-width:8.0;stroke:rgb(150,150,150);stroke-linecap:round;fill:none;" />
<line x1='2206.4' y1='1752.1' x2='2217.7' y2='1756.1' style="stroke-width:8.0;stroke:rgb(150,150,150);stroke-linecap:round;fill:none;" />
<line x1='2168.1' y1='1840.9' x2='2178.8' y2='1846.3' style="stroke-width:8.0;stroke:rgb(150,150,150);stroke-linecap:round;fill:none;" />
<line x1='2118.7' y1='1924.0' x2='2128.6' y2='1930.8' style="stroke-width:8.0;stroke:rgb(150,150,150);stroke-linecap:round;fill:none;" />
<line x1='2059.0' y1='2000.1' x2='2067.9' y2='2008.1' style="stroke-width:8.0;stroke:rgb(150,150,150);stroke-linecap:round;fill:none;" />
<text x="2067.4" y="2026.4" font-size="41.6px" font-family="CMUBright-Roman" style="text-anchor:start;fill:rgb(150,150,150);" transform="rotate(41.8,2067.4,2026.4)" >2400 kb</text>
<line x1='1990.0' y1='2067.8' x2='1997.8' y2='2076.9' style="stroke-width:8.0;stroke:rgb(150,150,150);stroke-linecap:round;fill:none;" />
<line x1='1912.8' y1='2126.2' x2='1919.4' y2='2136.2' style="stroke-width:8.0;stroke:rgb(150,150,150);stroke-linecap:round;fill:none;" />
<line x1='1828.8' y1='2174.1' x2='1834.1' y2='2184.9' style="stroke-width:8.0;stroke:rgb(150,150,150);stroke-linecap:round;fill:none;" />
<line x1='1739.3' y1='2210.8' x2='1743.2' y2='2222.2' style="stroke-width:8.0;stroke:rgb(150,150,150);stroke-linecap:round;fill:none;" />
<g id="highlighttrack_0">
<path d="M2028.512,1347.768 A550.000,550.000 40.000 0,1 2048.866,1535.302 L2248.453,1548.140 A750.000,750.000 0.000 0,0 2220.699,1292.411 Z" style="stroke-width:14.0;stroke:rgb(0,0,0);stroke-linecap:round;fill:rgb(255,38,78);" />
</g>
<path d="M1500.000,950.000 A550.000,550.000 40.000 0,1 1617.995,2037.194 L1660.902,2232.537 A750.000,750.000 0.000 0,0 1500.000,750.000 Z" style="stroke-width:2.0;stroke:rgb(0,0,0);stroke-linecap:round;fill:none;" />
<path d="M1406.469,2041.989 A550.000,550.000 40.000 0,1 1292.370,990.697 L1216.868,805.496 A750.000,750.000 0.000 0,0 1372.457,2239.076 Z" style="stroke-width:2.0;stroke:rgb(0,0,0);stroke-linecap:round;fill:rgb(179,177,178);" />
<text x="486.0" y="1610.1" font-size="46.8px" font-family="CMUBright-Roman" style="text-anchor:middle;fill:rgb(0,0,0);" transform="rotate(83.8,486.0,1610.1)" >HistocapCB064<tspan baseline-shift="-40%" font-size="90%">2</tspan></text>
<line x1='1184.9' y1='819.4' x2='1179.8' y2='808.5' style="stroke-width:8.0;stroke:rgb(150,150,150);stroke-linecap:round;fill:none;" />
<text x="1162.1" y="803.6" font-size="41.6px" font-family="CMUBright-Roman" style="text-anchor:end;fill:rgb(150,150,150);" transform="rotate(65.2,1162.1,803.6)" >2150 kb</text>
<line x1='1099.9' y1='865.6' x2='1093.5' y2='855.5' style="stroke-width:8.0;stroke:rgb(150,150,150);stroke-linecap:round;fill:none;" />
<line x1='1021.6' y1='922.4' x2='1014.0' y2='913.1' style="stroke-width:8.0;stroke:rgb(150,150,150);stroke-linecap:round;fill:none;" />
<line x1='951.3' y1='988.7' x2='942.5' y2='980.6' style="stroke-width:8.0;stroke:rgb(150,150,150);stroke-linecap:round;fill:none;" />
<line x1='890.0' y1='1063.6' x2='880.3' y2='1056.6' style="stroke-width:8.0;stroke:rgb(150,150,150);stroke-linecap:round;fill:none;" />
<line x1='839.0' y1='1145.7' x2='828.4' y2='1140.0' style="stroke-width:8.0;stroke:rgb(150,150,150);stroke-linecap:round;fill:none;" />
<text x="811.3" y="1146.8" font-size="41.6px" font-family="CMUBright-Roman" style="text-anchor:end;fill:rgb(150,150,150);" transform="rotate(28.2,811.3,1146.8)" >2200 kb</text>
<line x1='798.9' y1='1233.7' x2='787.6' y2='1229.5' style="stroke-width:8.0;stroke:rgb(150,150,150);stroke-linecap:round;fill:none;" />
<line x1='770.4' y1='1326.1' x2='758.8' y2='1323.4' style="stroke-width:8.0;stroke:rgb(150,150,150);stroke-linecap:round;fill:none;" />
<line x1='754.1' y1='1421.5' x2='742.2' y2='1420.2' style="stroke-width:8.0;stroke:rgb(150,150,150);stroke-linecap:round;fill:none;" />
<line x1='750.2' y1='1518.1' x2='738.2' y2='1518.4' style="stroke-width:8.0;stroke:rgb(150,150,150);stroke-linecap:round;fill:none;" />
<line x1='758.8' y1='1614.4' x2='746.9' y2='1616.3' style="stroke-width:8.0;stroke:rgb(150,150,150);stroke-linecap:round;fill:none;" />
<text x="737.3" y="1631.9" font-size="41.6px" font-family="CMUBright-Roman" style="text-anchor:end;fill:rgb(150,150,150);" transform="rotate(-8.8,737.3,1631.9)" >2250 kb</text>
<line x1='779.7' y1='1708.9' x2='768.1' y2='1712.2' style="stroke-width:8.0;stroke:rgb(150,150,150);stroke-linecap:round;fill:none;" />
<line x1='812.5' y1='1799.8' x2='801.5' y2='1804.6' style="stroke-width:8.0;stroke:rgb(150,150,150);stroke-linecap:round;fill:none;" />
<line x1='856.8' y1='1885.8' x2='846.5' y2='1892.0' style="stroke-width:8.0;stroke:rgb(150,150,150);stroke-linecap:round;fill:none;" />
<line x1='911.8' y1='1965.3' x2='902.4' y2='1972.8' style="stroke-width:8.0;stroke:rgb(150,150,150);stroke-linecap:round;fill:none;" />
<line x1='976.6' y1='2037.2' x2='968.2' y2='2045.7' style="stroke-width:8.0;stroke:rgb(150,150,150);stroke-linecap:round;fill:none;" />
<text x="969.9" y="2064.0" font-size="41.6px" font-family="CMUBright-Roman" style="text-anchor:end;fill:rgb(150,150,150);" transform="rotate(-45.7,969.9,2064.0)" >2300 kb</text>
<line x1='1050.1' y1='2100.0' x2='1042.9' y2='2109.6' style="stroke-width:8.0;stroke:rgb(150,150,150);stroke-linecap:round;fill:none;" />
<line x1='1131.0' y1='2152.9' x2='1125.1' y2='2163.4' style="stroke-width:8.0;stroke:rgb(150,150,150);stroke-linecap:round;fill:none;" />
<line x1='1218.1' y1='2195.0' x2='1213.6' y2='2206.1' style="stroke-width:8.0;stroke:rgb(150,150,150);stroke-linecap:round;fill:none;" />
<line x1='1309.9' y1='2225.5' x2='1306.8' y2='2237.1' style="stroke-width:8.0;stroke:rgb(150,150,150);stroke-linecap:round;fill:none;" />
<path d="M1406.469,2041.989 A550.000,550.000 40.000 0,1 1292.370,990.697 L1216.868,805.496 A750.000,750.000 0.000 0,0 1372.457,2239.076 Z" style="stroke-width:2.0;stroke:rgb(0,0,0);stroke-linecap:round;fill:none;" />
</g>
<g id="track_0">
<path d="M 1969.900,1728.474 A 522.500,522.500 0.00 0,1 1914.0,1818.8 L 1914.0,1818.8 1895.7,1805.1 1877.0,1791.6 1857.8,1778.6 1838.3,1766.0 1818.3,1753.9 1797.9,1742.4 1777.2,1731.4 1756.2,1721.2 1734.9,1711.6 1713.3,1702.7 1691.4,1694.7 1669.4,1687.4 1647.1,1681.0 1624.7,1675.4 1602.2,1670.7 1579.5,1666.9 1556.7,1664.1 1533.9,1662.1 1511.0,1661.1 1488.1,1661.1 1465.2,1661.9 1442.4,1663.8 1419.6,1666.5 1396.9,1670.2 1374.3,1674.7 1351.9,1680.2 1329.6,1686.5 1307.5,1693.6 1285.6,1701.6 1264.0,1710.3 1242.6,1719.8 1221.5,1729.9 1200.8,1740.8 1180.4,1752.2 1160.3,1764.2 1140.7,1776.7 1121.4,1789.6 1102.6,1802.9 1084.3,1816.5  A 522.500,522.500 0.00 0,1 1028.9,1725.9 L 1028.9,1725.9 1050.6,1715.7 1072.7,1705.8 1095.2,1696.3 1118.0,1687.1 1141.1,1678.3 1164.6,1670.0 1188.3,1662.1 1212.3,1654.7 1236.5,1647.9 1260.9,1641.6 1285.5,1635.9 1310.3,1630.8 1335.2,1626.3 1360.3,1622.4 1385.5,1619.1 1410.8,1616.5 1436.1,1614.6 1461.5,1613.3 1487.0,1612.7 1512.4,1612.8 1537.8,1613.5 1563.2,1614.9 1588.6,1617.0 1613.8,1619.8 1639.0,1623.1 1664.1,1627.2 1689.0,1631.8 1713.8,1637.1 1738.3,1642.9 1762.7,1649.3 1786.9,1656.3 1810.8,1663.8 1834.5,1671.8 1857.9,1680.3 1881.0,1689.2 1903.7,1698.5 1926.2,1708.1 1948.2,1718.2 1969.9,1728.5  Z" style="stroke-width: 0.5;  stroke: rgb(0,0,0); fill: rgb(179,177,178);" />
<path d="M 2021.423,1533.537 A 522.500,522.500 0.00 0,1 2009.7,1614.9 L 2009.7,1614.9 1985.0,1609.4 1960.1,1604.2 1935.0,1599.2 1909.7,1594.5 1884.2,1590.0 1858.6,1585.8 1832.7,1581.9 1806.7,1578.2 1780.6,1574.9 1754.4,1571.9 1728.0,1569.3 1701.6,1567.0 1675.1,1565.0 1648.5,1563.4 1621.8,1562.2 1595.1,1561.3 1568.3,1560.8 1541.6,1560.6 1514.8,1560.9 1488.0,1561.5 1461.2,1562.5 1434.5,1563.8 1407.8,1565.5 1381.2,1567.6 1354.6,1570.1 1328.1,1572.9 1301.7,1576.1 1275.3,1579.6 1249.1,1583.4 1223.1,1587.6 1197.1,1592.1 1171.3,1596.8 1145.7,1601.9 1120.2,1607.3 1095.0,1612.9 1069.9,1618.8 1045.1,1624.9 1020.4,1631.3 996.0,1637.8  A 522.500,522.500 0.00 0,1 980.6,1557.1 L 980.6,1557.1 1006.7,1554.3 1032.9,1551.6 1059.2,1548.9 1085.5,1546.4 1112.0,1543.9 1138.4,1541.5 1165.0,1539.3 1191.6,1537.2 1218.3,1535.2 1245.0,1533.2 1271.8,1531.5 1298.6,1529.8 1325.4,1528.3 1352.3,1526.9 1379.2,1525.6 1406.1,1524.5 1433.1,1523.4 1460.0,1522.6 1487.0,1521.8 1514.0,1521.2 1541.0,1520.7 1567.9,1520.4 1594.9,1520.2 1621.8,1520.1 1648.8,1520.2 1675.7,1520.3 1702.6,1520.7 1729.4,1521.1 1756.2,1521.7 1783.0,1522.3 1809.8,1523.2 1836.4,1524.1 1863.1,1525.1 1889.6,1526.3 1916.1,1527.5 1942.6,1528.9 1968.9,1530.3 1995.2,1531.9 2021.4,1533.5  Z" style="stroke-width: 0.5;  stroke: rgb(0,0,0); fill: rgb(179,177,178);" />
<path d="M 1978.611,1290.386 A 522.500,522.500 0.00 0,1 2002.1,1355.4 L 2002.1,1355.4 1976.8,1362.6 1951.5,1369.8 1926.1,1376.8 1900.5,1383.8 1874.9,1390.7 1849.2,1397.6 1823.4,1404.3 1797.6,1410.9 1771.6,1417.5 1745.6,1423.9 1719.6,1430.2 1693.4,1436.4 1667.2,1442.4 1641.0,1448.4 1614.7,1454.2 1588.4,1459.9 1562.0,1465.5 1535.6,1471.0 1509.1,1476.3 1482.6,1481.5 1456.1,1486.5 1429.6,1491.5 1403.1,1496.3 1376.5,1500.9 1350.0,1505.4 1323.4,1509.8 1296.9,1514.1 1270.3,1518.2 1243.8,1522.2 1217.3,1526.1 1190.8,1529.9 1164.4,1533.5 1138.0,1537.0 1111.6,1540.4 1085.2,1543.6 1059.0,1546.8 1032.7,1549.8 1006.6,1552.8 980.5,1555.6  A 522.500,522.500 0.00 0,1 977.7,1486.6 L 977.7,1486.6 1003.1,1487.1 1028.7,1487.5 1054.4,1487.5 1080.3,1487.3 1106.3,1486.9 1132.4,1486.2 1158.6,1485.2 1184.9,1483.9 1211.3,1482.3 1237.7,1480.4 1264.2,1478.2 1290.7,1475.7 1317.2,1472.8 1343.8,1469.6 1370.3,1466.1 1396.9,1462.3 1423.4,1458.1 1449.8,1453.6 1476.3,1448.8 1502.6,1443.6 1528.9,1438.1 1555.1,1432.3 1581.3,1426.1 1607.3,1419.7 1633.2,1412.9 1659.0,1405.8 1684.6,1398.4 1710.1,1390.8 1735.5,1382.8 1760.7,1374.6 1785.7,1366.1 1810.5,1357.4 1835.2,1348.4 1859.6,1339.2 1883.9,1329.8 1907.9,1320.2 1931.7,1310.4 1955.3,1300.5 1978.6,1290.4  Z" style="stroke-width: 0.5;  stroke: rgb(0,0,0); fill: rgb(179,177,178);" />
<path d="M 1908.373,1825.942 A 522.500,522.500 0.00 0,1 1869.6,1869.3 L 1869.6,1869.3 1853.8,1853.8 1837.4,1838.6 1820.5,1823.8 1803.3,1809.4 1785.6,1795.6 1767.5,1782.4 1749.1,1769.9 1730.3,1758.0 1711.2,1747.0 1691.8,1736.8 1672.2,1727.4 1652.4,1719.0 1632.3,1711.5 1612.1,1705.1 1591.7,1699.6 1571.2,1695.2 1550.6,1691.8 1529.9,1689.5 1509.2,1688.3 1488.4,1688.2 1467.7,1689.1 1447.0,1691.2 1426.3,1694.3 1405.8,1698.4 1385.3,1703.6 1365.0,1709.8 1344.8,1717.1 1324.9,1725.2 1305.2,1734.3 1285.7,1744.3 1266.4,1755.1 1247.5,1766.7 1228.9,1779.0 1210.7,1792.0 1192.8,1805.6 1175.4,1819.7 1158.3,1834.3 1141.8,1849.3 1125.7,1864.6  A 522.500,522.500 0.00 0,1 1087.5,1820.7 L 1087.5,1820.7 1105.6,1807.0 1124.2,1793.5 1143.3,1780.4 1162.8,1767.8 1182.6,1755.7 1202.8,1744.2 1223.4,1733.2 1244.3,1723.0 1265.5,1713.4 1286.9,1704.6 1308.6,1696.6 1330.5,1689.4 1352.6,1683.1 1374.9,1677.6 1397.2,1673.0 1419.7,1669.4 1442.3,1666.7 1465.0,1664.9 1487.6,1664.1 1510.3,1664.3 1532.9,1665.4 1555.6,1667.4 1578.1,1670.4 1600.5,1674.3 1622.9,1679.2 1645.0,1684.9 1667.1,1691.5 1688.9,1699.0 1710.4,1707.3 1731.8,1716.4 1752.8,1726.2 1773.6,1736.7 1794.0,1747.9 1814.1,1759.7 1833.8,1772.1 1853.1,1785.0 1872.0,1798.3 1890.4,1811.9 1908.4,1825.9  Z" style="stroke-width: 0.5;  stroke: rgb(0,0,0); fill: rgb(179,177,178);" />
<path d="M 1763.558,1048.842 A 522.500,522.500 0.00 0,1 1806.9,1077.1 L 1806.9,1077.1 1793.8,1094.8 1780.1,1112.2 1765.9,1129.3 1751.3,1146.0 1736.2,1162.2 1720.6,1177.8 1704.6,1192.8 1688.1,1207.2 1671.3,1220.7 1654.0,1233.4 1636.4,1245.3 1618.5,1256.3 1600.2,1266.2 1581.7,1275.2 1562.8,1283.2 1543.7,1290.1 1524.4,1296.0 1504.9,1300.7 1485.2,1304.4 1465.3,1306.9 1445.3,1308.3 1425.2,1308.6 1405.1,1307.8 1384.8,1305.9 1364.6,1302.9 1344.4,1298.8 1324.2,1293.7 1304.1,1287.6 1284.1,1280.6 1264.2,1272.5 1244.5,1263.7 1225.0,1253.9 1205.7,1243.4 1186.7,1232.2 1168.0,1220.3 1149.6,1207.8 1131.6,1194.8 1114.0,1181.4 1096.9,1167.6  A 522.500,522.500 0.00 0,1 1131.8,1129.3 L 1131.8,1129.3 1147.1,1144.4 1162.9,1159.2 1179.1,1173.5 1195.7,1187.4 1212.6,1200.6 1229.8,1213.1 1247.2,1224.9 1264.8,1235.9 1282.6,1246.0 1300.6,1255.1 1318.7,1263.2 1336.9,1270.3 1355.1,1276.3 1373.3,1281.2 1391.6,1285.0 1409.8,1287.5 1427.9,1288.9 1446.0,1289.0 1464.0,1288.0 1481.8,1285.7 1499.4,1282.2 1516.8,1277.6 1534.1,1271.7 1551.1,1264.6 1567.8,1256.5 1584.2,1247.2 1600.4,1236.8 1616.2,1225.4 1631.7,1212.9 1646.8,1199.6 1661.5,1185.4 1675.8,1170.3 1689.7,1154.6 1703.2,1138.1 1716.2,1121.1 1728.8,1103.5 1740.9,1085.6 1752.5,1067.3 1763.6,1048.8  Z" style="stroke-width: 0.5;  stroke: rgb(0,0,0); fill: rgb(179,177,178);" />
<path d="M 1870.826,1868.096 A 522.500,522.500 0.00 0,1 1834.6,1901.3 L 1834.6,1901.3 1820.5,1884.8 1805.9,1868.5 1790.8,1852.7 1775.3,1837.3 1759.4,1822.4 1743.1,1808.2 1726.5,1794.7 1709.5,1781.9 1692.3,1770.0 1674.7,1759.0 1656.9,1748.9 1638.9,1739.8 1620.7,1731.8 1602.3,1724.8 1583.8,1718.9 1565.1,1714.2 1546.4,1710.6 1527.6,1708.2 1508.7,1706.9 1489.8,1706.8 1471.0,1708.0 1452.1,1710.3 1433.4,1713.7 1414.7,1718.3 1396.1,1724.1 1377.7,1730.9 1359.4,1738.8 1341.3,1747.8 1323.5,1757.8 1305.9,1768.7 1288.5,1780.4 1271.5,1793.1 1254.7,1806.5 1238.4,1820.6 1222.4,1835.3 1206.8,1850.6 1191.6,1866.4 1176.9,1882.6 1162.6,1899.0  A 522.500,522.500 0.00 0,1 1126.6,1865.5 L 1126.6,1865.5 1142.7,1850.2 1159.2,1835.2 1176.2,1820.5 1193.6,1806.3 1211.4,1792.7 1229.7,1779.7 1248.2,1767.3 1267.1,1755.7 1286.3,1744.8 1305.8,1734.8 1325.5,1725.6 1345.4,1717.4 1365.6,1710.2 1385.9,1703.9 1406.3,1698.6 1426.9,1694.4 1447.5,1691.2 1468.2,1689.1 1489.0,1688.1 1509.7,1688.2 1530.5,1689.4 1551.2,1691.6 1571.8,1694.9 1592.3,1699.3 1612.7,1704.7 1633.0,1711.1 1653.1,1718.5 1672.9,1726.8 1692.6,1736.1 1712.0,1746.3 1731.1,1757.3 1749.9,1769.0 1768.4,1781.5 1786.5,1794.7 1804.3,1808.5 1821.6,1822.8 1838.5,1837.5 1854.9,1852.7 1870.8,1868.1  Z" style="stroke-width: 0.5;  stroke: rgb(0,0,0); fill: rgb(179,177,178);" />
<path d="M 1994.346,1669.199 A 522.500,522.500 0.00 0,1 1979.5,1707.5 L 1979.5,1707.5 1957.2,1698.1 1934.5,1688.9 1911.4,1680.0 1888.1,1671.5 1864.4,1663.4 1840.5,1655.7 1816.3,1648.4 1791.9,1641.6 1767.2,1635.2 1742.4,1629.4 1717.3,1624.1 1692.1,1619.3 1666.8,1615.1 1641.3,1611.4 1615.7,1608.4 1590.1,1605.9 1564.3,1604.0 1538.6,1602.8 1512.7,1602.1 1486.9,1602.1 1461.1,1602.6 1435.3,1603.8 1409.6,1605.6 1383.9,1608.0 1358.3,1610.9 1332.8,1614.5 1307.5,1618.6 1282.2,1623.3 1257.2,1628.5 1232.3,1634.3 1207.6,1640.6 1183.2,1647.3 1159.0,1654.5 1135.0,1662.1 1111.3,1670.2 1087.9,1678.6 1064.9,1687.4 1042.2,1696.5 1019.8,1705.9  A 522.500,522.500 0.00 0,1 1005.1,1667.5 L 1005.1,1667.5 1028.6,1659.7 1052.4,1652.2 1076.4,1644.9 1100.8,1638.0 1125.3,1631.4 1150.2,1625.1 1175.2,1619.2 1200.4,1613.7 1225.9,1608.6 1251.4,1603.9 1277.2,1599.6 1303.1,1595.8 1329.1,1592.4 1355.2,1589.5 1381.4,1587.1 1407.6,1585.2 1433.9,1583.7 1460.3,1582.8 1486.7,1582.3 1513.1,1582.4 1539.4,1582.9 1565.8,1584.0 1592.1,1585.5 1618.3,1587.5 1644.5,1590.0 1670.6,1593.0 1696.6,1596.5 1722.5,1600.4 1748.2,1604.7 1773.8,1609.5 1799.2,1614.7 1824.4,1620.3 1849.4,1626.3 1874.2,1632.7 1898.8,1639.4 1923.1,1646.4 1947.1,1653.7 1970.9,1661.3 1994.3,1669.2  Z" style="stroke-width: 0.5;  stroke: rgb(0,0,0); fill: rgb(179,177,178);" />
<path d="M 1624.022,2007.568 A 522.500,522.500 0.00 0,1 1612.1,2010.3 L 1612.1,2010.3 1607.6,1990.5 1602.8,1970.8 1597.7,1951.4 1592.4,1932.4 1586.8,1914.0 1580.9,1896.2 1574.8,1879.3 1568.4,1863.2 1561.8,1848.0 1555.0,1833.9 1548.0,1821.0 1540.7,1809.2 1533.2,1798.7 1525.6,1789.5 1517.7,1781.6 1509.7,1775.2 1501.6,1770.2 1493.3,1766.6 1484.9,1764.5 1476.3,1763.9 1467.7,1764.7 1458.9,1767.0 1450.1,1770.8 1441.3,1776.0 1432.4,1782.6 1423.5,1790.6 1414.6,1799.9 1405.7,1810.5 1396.8,1822.3 1388.0,1835.2 1379.2,1849.3 1370.6,1864.3 1362.0,1880.1 1353.6,1896.9 1345.4,1914.3 1337.4,1932.2 1329.5,1950.7 1321.9,1969.5 1314.5,1988.5  A 522.500,522.500 0.00 0,1 1277.5,1972.8 L 1277.5,1972.8 1286.4,1954.3 1295.6,1936.1 1305.0,1918.2 1314.6,1900.8 1324.5,1884.0 1334.5,1867.9 1344.6,1852.6 1354.9,1838.2 1365.3,1824.7 1375.7,1812.4 1386.2,1801.1 1396.7,1791.1 1407.2,1782.3 1417.7,1774.9 1428.1,1768.7 1438.5,1764.0 1448.8,1760.7 1459.0,1758.8 1469.0,1758.3 1479.0,1759.3 1488.8,1761.8 1498.4,1765.7 1507.8,1771.0 1517.0,1777.7 1526.0,1785.7 1534.8,1795.1 1543.4,1805.8 1551.7,1817.8 1559.7,1830.8 1567.5,1845.0 1575.0,1860.2 1582.2,1876.4 1589.1,1893.4 1595.7,1911.2 1602.0,1929.6 1608.0,1948.6 1613.6,1968.0 1619.0,1987.7 1624.0,2007.6  Z" style="stroke-width: 0.5;  stroke: rgb(0,0,0); fill: rgb(179,177,178);" />
<path d="M 1962.589,1257.065 A 522.500,522.500 0.00 0,1 1979.0,1291.2 L 1979.0,1291.2 1955.6,1301.2 1932.0,1311.1 1908.2,1320.9 1884.1,1330.4 1859.9,1339.8 1835.4,1349.0 1810.7,1357.9 1785.9,1366.6 1760.9,1375.0 1735.7,1383.2 1710.3,1391.1 1684.8,1398.8 1659.1,1406.1 1633.3,1413.1 1607.4,1419.9 1581.4,1426.3 1555.2,1432.4 1529.0,1438.2 1502.7,1443.6 1476.4,1448.8 1449.9,1453.6 1423.4,1458.0 1396.9,1462.2 1370.4,1466.0 1343.8,1469.4 1317.3,1472.6 1290.8,1475.4 1264.2,1477.9 1237.8,1480.1 1211.3,1481.9 1184.9,1483.5 1158.6,1484.7 1132.4,1485.7 1106.3,1486.4 1080.3,1486.8 1054.4,1486.9 1028.7,1486.8 1003.1,1486.5 977.7,1485.9  A 522.500,522.500 0.00 0,1 980.1,1448.2 L 980.1,1448.2 1004.9,1450.5 1030.0,1452.6 1055.3,1454.3 1080.8,1455.7 1106.4,1456.8 1132.2,1457.6 1158.1,1458.0 1184.1,1458.0 1210.2,1457.6 1236.4,1456.8 1262.7,1455.6 1289.0,1454.0 1315.3,1452.0 1341.6,1449.6 1368.0,1446.7 1394.3,1443.4 1420.6,1439.6 1446.8,1435.4 1473.0,1430.8 1499.1,1425.7 1525.1,1420.2 1551.0,1414.2 1576.8,1407.9 1602.4,1401.1 1627.9,1393.9 1653.3,1386.3 1678.4,1378.3 1703.4,1369.9 1728.2,1361.2 1752.8,1352.1 1777.1,1342.6 1801.2,1332.9 1825.1,1322.8 1848.7,1312.5 1872.1,1301.8 1895.1,1291.0 1917.9,1279.9 1940.4,1268.5 1962.6,1257.1  Z" style="stroke-width: 0.5;  stroke: rgb(0,0,0); fill: rgb(179,177,178);" />
<path d="M 1733.205,1032.430 A 522.500,522.500 0.00 0,1 1763.0,1048.5 L 1763.0,1048.5 1751.9,1067.0 1740.4,1085.3 1728.3,1103.2 1715.8,1120.8 1702.8,1137.8 1689.3,1154.3 1675.5,1170.0 1661.2,1185.1 1646.5,1199.3 1631.4,1212.6 1616.0,1225.0 1600.2,1236.4 1584.1,1246.8 1567.7,1256.1 1551.1,1264.3 1534.1,1271.3 1516.9,1277.1 1499.6,1281.8 1482.0,1285.2 1464.2,1287.5 1446.3,1288.5 1428.3,1288.3 1410.2,1286.9 1392.1,1284.3 1373.9,1280.5 1355.7,1275.6 1337.5,1269.5 1319.4,1262.4 1301.4,1254.2 1283.5,1245.0 1265.8,1234.9 1248.2,1223.8 1230.8,1212.0 1213.7,1199.4 1196.9,1186.1 1180.4,1172.2 1164.3,1157.8 1148.6,1143.0 1133.3,1127.8  A 522.500,522.500 0.00 0,1 1158.1,1104.9 L 1158.1,1104.9 1172.2,1120.8 1186.8,1136.4 1201.7,1151.6 1216.9,1166.3 1232.5,1180.4 1248.3,1193.8 1264.3,1206.4 1280.6,1218.1 1297.0,1229.0 1313.5,1238.8 1330.2,1247.7 1346.9,1255.4 1363.7,1262.0 1380.4,1267.5 1397.2,1271.7 1413.9,1274.7 1430.6,1276.5 1447.1,1277.0 1463.6,1276.2 1479.8,1274.2 1495.9,1270.9 1511.8,1266.3 1527.5,1260.4 1543.0,1253.4 1558.2,1245.1 1573.1,1235.7 1587.7,1225.1 1602.0,1213.4 1615.9,1200.8 1629.5,1187.1 1642.7,1172.5 1655.5,1157.1 1667.9,1140.9 1679.9,1124.0 1691.5,1106.5 1702.6,1088.5 1713.3,1070.1 1723.5,1051.4 1733.2,1032.4  Z" style="stroke-width: 0.5;  stroke: rgb(0,0,0); fill: rgb(179,177,178);" />
<path d="M 1672.597,1006.830 A 522.500,522.500 0.00 0,1 1698.2,1016.6 L 1698.2,1016.6 1690.0,1035.9 1681.4,1055.0 1672.4,1073.9 1662.9,1092.3 1653.0,1110.2 1642.7,1127.5 1632.1,1144.0 1621.0,1159.8 1609.6,1174.7 1597.8,1188.6 1585.7,1201.5 1573.2,1213.3 1560.4,1224.0 1547.4,1233.5 1534.1,1241.8 1520.5,1248.8 1506.7,1254.5 1492.7,1259.0 1478.4,1262.0 1464.0,1263.8 1449.5,1264.2 1434.8,1263.3 1420.0,1261.0 1405.2,1257.4 1390.3,1252.6 1375.3,1246.5 1360.4,1239.2 1345.5,1230.7 1330.6,1221.0 1315.8,1210.3 1301.2,1198.6 1286.7,1185.9 1272.3,1172.4 1258.2,1158.1 1244.3,1143.1 1230.7,1127.4 1217.5,1111.3 1204.5,1094.8 1192.0,1078.0  A 522.500,522.500 0.00 0,1 1214.5,1062.4 L 1214.5,1062.4 1226.1,1079.7 1238.0,1096.8 1250.2,1113.4 1262.7,1129.6 1275.5,1145.1 1288.5,1160.0 1301.6,1174.0 1315.0,1187.2 1328.4,1199.4 1342.0,1210.6 1355.6,1220.7 1369.3,1229.6 1382.9,1237.4 1396.6,1243.8 1410.2,1249.0 1423.8,1252.9 1437.2,1255.4 1450.6,1256.6 1463.8,1256.4 1476.9,1254.8 1489.8,1251.8 1502.5,1247.5 1514.9,1241.8 1527.2,1234.8 1539.2,1226.5 1550.9,1217.0 1562.3,1206.2 1573.4,1194.3 1584.2,1181.2 1594.7,1167.1 1604.9,1152.0 1614.7,1136.1 1624.1,1119.3 1633.2,1101.7 1641.9,1083.6 1650.1,1064.9 1658.0,1045.8 1665.5,1026.4 1672.6,1006.8  Z" style="stroke-width: 0.5;  stroke: rgb(0,0,0); fill: rgb(179,177,178);" />
<path d="M 1936.032,1212.108 A 522.500,522.500 0.00 0,1 1950.4,1235.2 L 1950.4,1235.2 1929.0,1247.7 1907.1,1259.9 1885.0,1272.0 1862.6,1283.8 1839.8,1295.4 1816.8,1306.7 1793.4,1317.6 1769.8,1328.3 1746.0,1338.6 1721.9,1348.6 1697.5,1358.2 1673.0,1367.4 1648.2,1376.1 1623.2,1384.5 1598.1,1392.4 1572.8,1399.9 1547.3,1407.0 1521.7,1413.5 1496.0,1419.7 1470.1,1425.3 1444.2,1430.5 1418.2,1435.2 1392.1,1439.5 1365.9,1443.2 1339.8,1446.5 1313.6,1449.3 1287.4,1451.7 1261.3,1453.6 1235.2,1455.1 1209.1,1456.1 1183.1,1456.7 1157.2,1456.8 1131.4,1456.6 1105.8,1456.0 1080.3,1455.0 1054.9,1453.6 1029.8,1451.9 1004.9,1449.8 980.1,1447.5  A 522.500,522.500 0.00 0,1 983.6,1420.5 L 983.6,1420.5 1007.8,1424.0 1032.3,1427.3 1057.1,1430.1 1082.0,1432.6 1107.2,1434.7 1132.5,1436.3 1158.0,1437.5 1183.6,1438.3 1209.3,1438.5 1235.0,1438.3 1260.9,1437.6 1286.8,1436.3 1312.7,1434.5 1338.6,1432.2 1364.5,1429.4 1390.3,1426.0 1416.1,1422.0 1441.9,1417.5 1467.5,1412.5 1493.0,1406.9 1518.4,1400.8 1543.6,1394.1 1568.7,1386.9 1593.6,1379.2 1618.4,1371.0 1642.9,1362.3 1667.1,1353.1 1691.2,1343.4 1715.0,1333.3 1738.5,1322.7 1761.7,1311.8 1784.7,1300.4 1807.3,1288.7 1829.7,1276.6 1851.6,1264.2 1873.3,1251.5 1894.6,1238.6 1915.5,1225.5 1936.0,1212.1  Z" style="stroke-width: 0.5;  stroke: rgb(0,0,0); fill: rgb(179,177,178);" />
<path d="M 1738.814,1964.730 A 522.500,522.500 0.00 0,1 1715.6,1975.9 L 1715.6,1975.9 1706.8,1957.0 1697.6,1938.3 1688.0,1920.0 1678.1,1902.0 1667.8,1884.7 1657.1,1868.0 1646.1,1852.0 1634.8,1836.9 1623.2,1822.7 1611.4,1809.5 1599.3,1797.4 1587.0,1786.4 1574.4,1776.5 1561.7,1767.9 1548.8,1760.6 1535.7,1754.6 1522.6,1749.9 1509.2,1746.5 1495.8,1744.6 1482.4,1743.9 1468.8,1744.7 1455.3,1746.9 1441.7,1750.4 1428.2,1755.2 1414.7,1761.4 1401.2,1768.8 1387.9,1777.5 1374.6,1787.3 1361.5,1798.4 1348.5,1810.4 1335.7,1823.6 1323.1,1837.6 1310.8,1852.5 1298.7,1868.2 1286.8,1884.6 1275.3,1901.5 1264.1,1919.0 1253.3,1936.8 1242.8,1954.8  A 522.500,522.500 0.00 0,1 1220.7,1941.6 L 1220.7,1941.6 1232.1,1924.0 1244.0,1906.6 1256.2,1889.6 1268.8,1873.0 1281.7,1857.1 1294.9,1841.8 1308.4,1827.3 1322.1,1813.7 1336.0,1800.9 1350.2,1789.2 1364.5,1778.6 1378.9,1769.0 1393.5,1760.6 1408.2,1753.5 1422.9,1747.5 1437.7,1742.9 1452.5,1739.5 1467.3,1737.5 1482.0,1736.8 1496.8,1737.5 1511.4,1739.5 1526.0,1742.8 1540.4,1747.5 1554.7,1753.4 1568.9,1760.6 1582.9,1769.1 1596.6,1778.7 1610.2,1789.5 1623.5,1801.4 1636.5,1814.4 1649.3,1828.3 1661.7,1843.1 1673.8,1858.7 1685.6,1875.1 1697.1,1892.2 1708.1,1909.7 1718.8,1927.8 1729.0,1946.1 1738.8,1964.7  Z" style="stroke-width: 0.5;  stroke: rgb(0,0,0); fill: rgb(179,177,178);" />
<path d="M 2002.432,1643.418 A 522.500,522.500 0.00 0,1 1994.9,1667.7 L 1994.9,1667.7 1971.4,1659.9 1947.6,1652.3 1923.5,1645.1 1899.1,1638.1 1874.6,1631.5 1849.7,1625.2 1824.7,1619.2 1799.5,1613.7 1774.0,1608.5 1748.4,1603.8 1722.7,1599.5 1696.8,1595.6 1670.8,1592.2 1644.7,1589.3 1618.5,1586.8 1592.2,1584.8 1565.9,1583.3 1539.5,1582.3 1513.1,1581.8 1486.7,1581.8 1460.3,1582.3 1434.0,1583.2 1407.6,1584.7 1381.4,1586.6 1355.2,1589.1 1329.1,1592.0 1303.0,1595.3 1277.2,1599.1 1251.4,1603.4 1225.8,1608.1 1200.4,1613.2 1175.1,1618.7 1150.1,1624.6 1125.2,1630.8 1100.6,1637.4 1076.3,1644.4 1052.2,1651.6 1028.4,1659.1 1004.9,1666.9  A 522.500,522.500 0.00 0,1 997.3,1642.6 L 997.3,1642.6 1021.5,1635.9 1045.9,1629.4 1070.5,1623.2 1095.4,1617.2 1120.5,1611.5 1145.8,1606.2 1171.3,1601.1 1196.9,1596.4 1222.7,1592.0 1248.7,1588.0 1274.8,1584.3 1301.0,1581.1 1327.3,1578.2 1353.7,1575.7 1380.2,1573.6 1406.8,1572.0 1433.3,1570.7 1460.0,1569.9 1486.6,1569.5 1513.3,1569.5 1539.9,1570.0 1566.5,1570.9 1593.1,1572.1 1619.7,1573.8 1646.1,1576.0 1672.5,1578.5 1698.9,1581.4 1725.1,1584.7 1751.1,1588.4 1777.1,1592.4 1802.9,1596.9 1828.6,1601.6 1854.0,1606.7 1879.3,1612.2 1904.4,1617.9 1929.3,1623.9 1953.9,1630.2 1978.3,1636.7 2002.4,1643.4  Z" style="stroke-width: 0.5;  stroke: rgb(0,0,0); fill: rgb(179,177,178);" />
<path d="M 1808.149,1078.040 A 522.500,522.500 0.00 0,1 1827.8,1093.1 L 1827.8,1093.1 1813.7,1110.3 1799.0,1127.2 1783.8,1143.8 1768.1,1160.0 1751.9,1175.7 1735.3,1190.9 1718.3,1205.5 1700.8,1219.4 1682.9,1232.5 1664.7,1244.9 1646.0,1256.4 1627.1,1267.1 1607.8,1276.9 1588.3,1285.7 1568.4,1293.5 1548.4,1300.4 1528.1,1306.2 1507.6,1311.0 1486.9,1314.7 1466.0,1317.4 1445.1,1319.0 1424.1,1319.5 1402.9,1319.0 1381.8,1317.4 1360.6,1314.8 1339.5,1311.2 1318.4,1306.6 1297.3,1301.1 1276.4,1294.6 1255.6,1287.2 1235.0,1278.9 1214.6,1269.9 1194.5,1260.1 1174.6,1249.6 1155.0,1238.5 1135.7,1226.7 1116.8,1214.5 1098.3,1201.8 1080.3,1188.8  A 522.500,522.500 0.00 0,1 1095.5,1169.2 L 1095.5,1169.2 1112.8,1182.9 1130.4,1196.3 1148.5,1209.3 1166.9,1221.7 1185.7,1233.5 1204.8,1244.7 1224.1,1255.2 1243.7,1264.8 1263.5,1273.7 1283.4,1281.6 1303.5,1288.6 1323.7,1294.7 1343.9,1299.7 1364.2,1303.8 1384.5,1306.7 1404.8,1308.6 1425.0,1309.4 1445.2,1309.1 1465.3,1307.6 1485.2,1305.1 1505.0,1301.4 1524.6,1296.7 1543.9,1290.8 1563.1,1283.9 1582.0,1275.9 1600.6,1266.9 1619.0,1256.9 1637.0,1246.0 1654.6,1234.1 1671.9,1221.4 1688.8,1207.9 1705.3,1193.6 1721.4,1178.6 1737.1,1163.0 1752.3,1146.8 1767.0,1130.1 1781.2,1113.1 1795.0,1095.7 1808.1,1078.0  Z" style="stroke-width: 0.5;  stroke: rgb(0,0,0); fill: rgb(179,177,178);" />
<path d="M 1918.756,1187.510 A 522.500,522.500 0.00 0,1 1932.6,1207.0 L 1932.6,1207.0 1912.3,1220.6 1891.6,1234.0 1870.4,1247.1 1849.0,1260.0 1827.2,1272.6 1805.0,1284.9 1782.5,1296.8 1759.7,1308.3 1736.6,1319.5 1713.2,1330.2 1689.5,1340.5 1665.6,1350.4 1641.5,1359.7 1617.1,1368.6 1592.4,1377.0 1567.6,1384.8 1542.6,1392.1 1517.5,1398.9 1492.2,1405.2 1466.7,1410.8 1441.2,1416.0 1415.5,1420.5 1389.8,1424.6 1364.0,1428.0 1338.2,1430.9 1312.3,1433.3 1286.4,1435.1 1260.6,1436.4 1234.8,1437.1 1209.1,1437.4 1183.4,1437.1 1157.9,1436.3 1132.4,1435.1 1107.2,1433.4 1082.1,1431.3 1057.1,1428.8 1032.5,1425.9 1008.0,1422.6 983.8,1419.0  A 522.500,522.500 0.00 0,1 988.1,1395.4 L 988.1,1395.4 1011.8,1400.1 1035.8,1404.4 1060.1,1408.3 1084.6,1411.7 1109.4,1414.8 1134.3,1417.3 1159.4,1419.4 1184.6,1420.9 1209.9,1421.9 1235.4,1422.4 1260.8,1422.3 1286.4,1421.6 1311.9,1420.3 1337.5,1418.4 1363.0,1415.9 1388.5,1412.7 1413.9,1409.0 1439.2,1404.6 1464.4,1399.7 1489.5,1394.0 1514.4,1387.8 1539.2,1381.0 1563.8,1373.6 1588.2,1365.6 1612.3,1357.0 1636.3,1347.8 1659.9,1338.1 1683.3,1327.9 1706.4,1317.1 1729.3,1305.9 1751.8,1294.2 1773.9,1282.1 1795.8,1269.5 1817.2,1256.6 1838.3,1243.3 1859.0,1229.8 1879.4,1215.9 1899.3,1201.8 1918.8,1187.5  Z" style="stroke-width: 0.5;  stroke: rgb(0,0,0); fill: rgb(179,177,178);" />
<path d="M 1808.348,1921.815 A 522.500,522.500 0.00 0,1 1789.0,1935.3 L 1789.0,1935.3 1776.9,1917.6 1764.4,1900.2 1751.4,1883.1 1738.0,1866.4 1724.2,1850.4 1710.0,1834.9 1695.5,1820.2 1680.6,1806.2 1665.4,1793.1 1649.9,1781.0 1634.1,1769.8 1618.1,1759.7 1601.8,1750.7 1585.4,1742.7 1568.7,1736.0 1552.0,1730.4 1535.0,1726.1 1518.0,1723.0 1500.9,1721.2 1483.8,1720.6 1466.6,1721.2 1449.4,1723.1 1432.2,1726.3 1415.1,1730.7 1398.0,1736.2 1381.0,1743.0 1364.2,1750.9 1347.5,1759.9 1331.0,1769.9 1314.7,1781.0 1298.6,1793.0 1282.8,1805.8 1267.2,1819.5 1252.0,1834.0 1237.1,1849.1 1222.6,1864.7 1208.5,1880.9 1194.8,1897.4 1181.5,1914.2  A 522.500,522.500 0.00 0,1 1163.2,1899.4 L 1163.2,1899.4 1177.3,1883.1 1191.9,1867.0 1206.9,1851.4 1222.3,1836.2 1238.1,1821.6 1254.3,1807.6 1270.8,1794.4 1287.5,1782.0 1304.6,1770.4 1321.8,1759.8 1339.3,1750.1 1357.0,1741.4 1374.8,1733.9 1392.8,1727.4 1410.8,1722.0 1429.0,1717.9 1447.1,1714.9 1465.3,1713.1 1483.5,1712.5 1501.7,1713.1 1519.8,1715.0 1537.8,1718.0 1555.8,1722.3 1573.6,1727.7 1591.2,1734.3 1608.7,1742.0 1625.9,1750.8 1643.0,1760.6 1659.7,1771.5 1676.2,1783.3 1692.4,1796.0 1708.3,1809.6 1723.8,1823.9 1739.0,1839.0 1753.7,1854.6 1768.1,1870.8 1782.0,1887.5 1795.4,1904.5 1808.3,1921.8  Z" style="stroke-width: 0.5;  stroke: rgb(0,0,0); fill: rgb(179,177,178);" />
<path d="M 1861.932,1123.156 A 522.500,522.500 0.00 0,1 1878.2,1139.5 L 1878.2,1139.5 1861.0,1155.5 1843.3,1171.4 1825.2,1187.0 1806.6,1202.3 1787.5,1217.2 1768.0,1231.7 1748.1,1245.8 1727.8,1259.4 1707.1,1272.4 1686.0,1284.9 1664.5,1296.8 1642.7,1308.1 1620.5,1318.8 1598.1,1328.7 1575.3,1338.0 1552.3,1346.6 1529.0,1354.4 1505.5,1361.5 1481.8,1367.8 1457.9,1373.4 1433.8,1378.2 1409.6,1382.2 1385.3,1385.5 1360.8,1388.0 1336.3,1389.7 1311.8,1390.7 1287.2,1391.0 1262.7,1390.5 1238.1,1389.3 1213.7,1387.4 1189.3,1384.9 1165.1,1381.7 1141.0,1377.8 1117.1,1373.4 1093.4,1368.5 1069.9,1363.0 1046.8,1357.0 1023.9,1350.6 1001.4,1343.8  A 522.500,522.500 0.00 0,1 1008.8,1321.9 L 1008.8,1321.9 1030.7,1329.6 1053.0,1336.9 1075.7,1343.8 1098.6,1350.1 1121.8,1355.9 1145.2,1361.1 1168.8,1365.7 1192.6,1369.6 1216.5,1372.9 1240.5,1375.4 1264.5,1377.2 1288.6,1378.3 1312.7,1378.5 1336.8,1378.0 1360.8,1376.6 1384.7,1374.5 1408.5,1371.5 1432.2,1367.7 1455.8,1363.1 1479.2,1357.7 1502.3,1351.4 1525.3,1344.3 1547.9,1336.5 1570.4,1327.8 1592.5,1318.4 1614.3,1308.2 1635.8,1297.4 1656.9,1285.8 1677.7,1273.5 1698.1,1260.7 1718.1,1247.2 1737.7,1233.1 1756.8,1218.6 1775.5,1203.6 1793.8,1188.1 1811.6,1172.3 1828.9,1156.2 1845.6,1139.8 1861.9,1123.2  Z" style="stroke-width: 0.5;  stroke: rgb(0,0,0); fill: rgb(179,177,178);" />
<path d="M 1708.735,1021.005 A 522.500,522.500 0.00 0,1 1728.6,1030.2 L 1728.6,1030.2 1719.1,1049.2 1709.1,1068.0 1698.6,1086.5 1687.7,1104.6 1676.3,1122.1 1664.5,1139.1 1652.3,1155.4 1639.7,1170.9 1626.6,1185.6 1613.3,1199.3 1599.5,1212.1 1585.4,1223.8 1571.0,1234.5 1556.2,1244.0 1541.2,1252.3 1525.9,1259.4 1510.4,1265.3 1494.6,1270.0 1478.7,1273.4 1462.5,1275.5 1446.2,1276.3 1429.8,1275.8 1413.3,1274.1 1396.7,1271.1 1380.0,1266.9 1363.4,1261.5 1346.7,1254.9 1330.1,1247.2 1313.5,1238.4 1297.0,1228.5 1280.7,1217.7 1264.5,1205.9 1248.5,1193.3 1232.7,1179.9 1217.3,1165.8 1202.1,1151.2 1187.2,1136.0 1172.7,1120.3 1158.7,1104.4  A 522.500,522.500 0.00 0,1 1175.5,1090.5 L 1175.5,1090.5 1188.8,1106.9 1202.5,1123.0 1216.5,1138.6 1230.9,1153.8 1245.5,1168.4 1260.4,1182.2 1275.5,1195.3 1290.8,1207.5 1306.3,1218.8 1321.8,1229.1 1337.5,1238.3 1353.2,1246.4 1368.9,1253.3 1384.6,1259.1 1400.3,1263.6 1415.9,1266.8 1431.4,1268.8 1446.9,1269.4 1462.2,1268.8 1477.3,1266.8 1492.3,1263.5 1507.0,1258.9 1521.5,1253.1 1535.8,1245.9 1549.8,1237.5 1563.5,1228.0 1577.0,1217.2 1590.1,1205.4 1602.8,1192.5 1615.2,1178.5 1627.3,1163.7 1638.9,1148.0 1650.2,1131.4 1661.0,1114.2 1671.4,1096.4 1681.4,1078.1 1691.0,1059.3 1700.1,1040.2 1708.7,1021.0  Z" style="stroke-width: 0.5;  stroke: rgb(0,0,0); fill: rgb(179,177,178);" />
<path d="M 1838.478,1101.956 A 522.500,522.500 0.00 0,1 1854.2,1115.9 L 1854.2,1115.9 1838.7,1132.3 1822.7,1148.4 1806.2,1164.2 1789.2,1179.7 1771.8,1194.6 1753.9,1209.0 1735.6,1222.9 1716.9,1236.1 1697.8,1248.6 1678.3,1260.3 1658.5,1271.3 1638.4,1281.5 1618.0,1290.7 1597.3,1299.1 1576.3,1306.6 1555.1,1313.2 1533.7,1318.7 1512.1,1323.3 1490.4,1326.9 1468.5,1329.6 1446.5,1331.2 1424.5,1331.8 1402.4,1331.4 1380.2,1330.1 1358.1,1327.7 1336.0,1324.5 1314.0,1320.3 1292.0,1315.1 1270.2,1309.2 1248.5,1302.3 1227.0,1294.7 1205.7,1286.3 1184.6,1277.1 1163.8,1267.3 1143.4,1256.9 1123.2,1245.9 1103.5,1234.4 1084.1,1222.5 1065.2,1210.2  A 522.500,522.500 0.00 0,1 1077.2,1193.0 L 1077.2,1193.0 1095.4,1205.9 1114.1,1218.5 1133.2,1230.6 1152.7,1242.2 1172.5,1253.2 1192.6,1263.6 1213.0,1273.3 1233.7,1282.3 1254.5,1290.5 1275.5,1297.8 1296.7,1304.3 1318.0,1309.8 1339.4,1314.4 1360.8,1318.0 1382.3,1320.6 1403.8,1322.3 1425.2,1322.9 1446.6,1322.4 1467.8,1320.9 1489.0,1318.4 1510.1,1314.8 1530.9,1310.2 1551.6,1304.6 1572.1,1297.9 1592.3,1290.3 1612.3,1281.8 1632.0,1272.2 1651.4,1261.8 1670.4,1250.6 1689.2,1238.5 1707.5,1225.6 1725.4,1212.0 1743.0,1197.8 1760.1,1183.0 1776.7,1167.6 1792.9,1151.7 1808.6,1135.4 1823.8,1118.8 1838.5,1102.0  Z" style="stroke-width: 0.5;  stroke: rgb(0,0,0); fill: rgb(179,177,178);" />
<path d="M 1668.981,1994.421 A 522.500,522.500 0.00 0,1 1649.3,2000.7 L 1649.3,2000.7 1643.3,1981.1 1636.9,1961.6 1630.2,1942.4 1623.1,1923.7 1615.8,1905.5 1608.1,1888.0 1600.1,1871.2 1591.9,1855.3 1583.4,1840.4 1574.6,1826.4 1565.5,1813.6 1556.2,1801.9 1546.7,1791.5 1537.0,1782.3 1527.0,1774.5 1516.9,1768.0 1506.6,1762.9 1496.2,1759.2 1485.6,1756.9 1474.9,1756.1 1464.1,1756.7 1453.3,1758.8 1442.3,1762.3 1431.3,1767.1 1420.3,1773.4 1409.3,1780.9 1398.3,1789.8 1387.3,1799.9 1376.4,1811.2 1365.6,1823.6 1354.9,1837.1 1344.3,1851.6 1333.9,1866.9 1323.6,1883.1 1313.5,1899.9 1303.7,1917.3 1294.1,1935.2 1284.9,1953.5 1275.9,1972.0  A 522.500,522.500 0.00 0,1 1257.4,1962.8 L 1257.4,1962.8 1267.2,1944.6 1277.3,1926.6 1287.7,1909.0 1298.4,1891.9 1309.3,1875.3 1320.5,1859.5 1331.9,1844.5 1343.4,1830.3 1355.1,1817.1 1366.9,1805.0 1378.8,1793.9 1390.8,1784.0 1402.8,1775.4 1414.8,1768.0 1426.9,1762.0 1438.9,1757.3 1450.9,1754.0 1462.9,1752.1 1474.7,1751.6 1486.5,1752.5 1498.2,1754.8 1509.7,1758.5 1521.0,1763.6 1532.2,1770.1 1543.2,1777.9 1554.0,1787.0 1564.5,1797.4 1574.9,1809.0 1584.9,1821.7 1594.8,1835.5 1604.3,1850.4 1613.5,1866.1 1622.4,1882.7 1631.1,1900.1 1639.3,1918.1 1647.3,1936.6 1654.9,1955.6 1662.1,1974.9 1669.0,1994.4  Z" style="stroke-width: 0.5;  stroke: rgb(0,0,0); fill: rgb(179,177,178);" />
<path d="M 1978.623,1709.586 A 522.500,522.500 0.00 0,1 1970.2,1727.9 L 1970.2,1727.9 1948.5,1717.6 1926.4,1707.6 1904.0,1697.9 1881.2,1688.7 1858.1,1679.8 1834.7,1671.3 1811.0,1663.4 1787.1,1655.9 1762.9,1649.0 1738.5,1642.6 1713.9,1636.8 1689.1,1631.5 1664.2,1626.9 1639.2,1622.9 1614.0,1619.6 1588.7,1616.9 1563.4,1614.8 1538.0,1613.4 1512.5,1612.7 1487.1,1612.7 1461.7,1613.3 1436.2,1614.6 1410.9,1616.6 1385.6,1619.2 1360.4,1622.4 1335.3,1626.3 1310.4,1630.9 1285.6,1636.0 1261.0,1641.8 1236.6,1648.1 1212.4,1654.9 1188.4,1662.3 1164.7,1670.2 1141.3,1678.6 1118.1,1687.4 1095.3,1696.6 1072.9,1706.1 1050.8,1716.0 1029.0,1726.3  A 522.500,522.500 0.00 0,1 1020.6,1707.9 L 1020.6,1707.9 1043.0,1698.4 1065.6,1689.3 1088.6,1680.4 1112.0,1671.9 1135.6,1663.8 1159.5,1656.0 1183.7,1648.8 1208.1,1642.0 1232.7,1635.7 1257.5,1629.8 1282.5,1624.6 1307.7,1619.8 1333.0,1615.7 1358.5,1612.1 1384.0,1609.1 1409.7,1606.7 1435.4,1604.9 1461.1,1603.7 1486.9,1603.1 1512.7,1603.2 1538.5,1603.8 1564.2,1605.1 1589.9,1607.0 1615.6,1609.5 1641.1,1612.6 1666.5,1616.3 1691.9,1620.5 1717.0,1625.3 1742.0,1630.7 1766.8,1636.6 1791.4,1643.0 1815.8,1649.9 1840.0,1657.2 1863.8,1665.0 1887.4,1673.2 1910.7,1681.8 1933.7,1690.8 1956.3,1700.0 1978.6,1709.6  Z" style="stroke-width: 0.5;  stroke: rgb(0,0,0); fill: rgb(179,177,178);" />
<path d="M 1653.001,1000.403 A 522.500,522.500 0.00 0,1 1670.8,1006.2 L 1670.8,1006.2 1663.8,1025.7 1656.4,1045.1 1648.6,1064.2 1640.5,1082.8 1632.0,1101.0 1623.1,1118.4 1613.8,1135.2 1604.2,1151.1 1594.3,1166.1 1584.1,1180.1 1573.5,1193.1 1562.6,1204.9 1551.5,1215.5 1540.1,1224.9 1528.5,1233.1 1516.6,1239.9 1504.5,1245.4 1492.2,1249.5 1479.7,1252.3 1467.1,1253.6 1454.3,1253.6 1441.4,1252.2 1428.4,1249.4 1415.3,1245.3 1402.2,1239.8 1389.1,1233.0 1375.9,1225.0 1362.8,1215.7 1349.7,1205.3 1336.7,1193.8 1323.8,1181.3 1311.1,1167.8 1298.5,1153.4 1286.1,1138.2 1273.9,1122.3 1261.9,1105.9 1250.3,1088.9 1239.0,1071.5 1228.0,1053.9  A 522.500,522.500 0.00 0,1 1244.1,1044.5 L 1244.1,1044.5 1254.4,1062.4 1265.0,1080.0 1275.9,1097.3 1287.1,1114.1 1298.5,1130.3 1310.1,1145.8 1321.9,1160.5 1333.8,1174.4 1345.8,1187.2 1358.0,1199.0 1370.2,1209.7 1382.4,1219.2 1394.7,1227.5 1406.9,1234.5 1419.1,1240.1 1431.2,1244.5 1443.3,1247.4 1455.2,1249.0 1467.1,1249.2 1478.8,1247.9 1490.3,1245.2 1501.6,1241.2 1512.8,1235.7 1523.7,1228.9 1534.4,1220.7 1544.9,1211.3 1555.1,1200.6 1565.0,1188.7 1574.6,1175.7 1584.0,1161.5 1593.0,1146.4 1601.7,1130.4 1610.1,1113.5 1618.2,1095.9 1625.9,1077.6 1633.2,1058.8 1640.2,1039.6 1646.8,1020.1 1653.0,1000.4  Z" style="stroke-width: 0.5;  stroke: rgb(0,0,0); fill: rgb(179,177,178);" />
<path d="M 1907.351,1172.782 A 522.500,522.500 0.00 0,1 1918.6,1187.3 L 1918.6,1187.3 1899.1,1201.6 1879.2,1215.7 1858.9,1229.6 1838.2,1243.1 1817.1,1256.4 1795.7,1269.3 1773.9,1281.9 1751.7,1294.0 1729.2,1305.7 1706.4,1316.9 1683.3,1327.6 1659.9,1337.8 1636.2,1347.5 1612.3,1356.7 1588.2,1365.2 1563.8,1373.2 1539.2,1380.6 1514.5,1387.4 1489.5,1393.6 1464.4,1399.2 1439.2,1404.1 1413.9,1408.5 1388.5,1412.2 1363.1,1415.2 1337.6,1417.7 1312.0,1419.5 1286.5,1420.8 1261.0,1421.4 1235.5,1421.5 1210.1,1421.0 1184.8,1419.9 1159.5,1418.3 1134.5,1416.2 1109.6,1413.6 1084.8,1410.5 1060.3,1407.0 1036.1,1403.0 1012.1,1398.6 988.4,1393.9  A 522.500,522.500 0.00 0,1 992.4,1376.0 L 992.4,1376.0 1015.7,1381.5 1039.4,1386.6 1063.3,1391.3 1087.5,1395.6 1111.9,1399.3 1136.5,1402.6 1161.2,1405.4 1186.2,1407.6 1211.2,1409.2 1236.3,1410.2 1261.5,1410.7 1286.8,1410.5 1312.0,1409.6 1337.3,1408.1 1362.5,1406.0 1387.7,1403.2 1412.8,1399.7 1437.8,1395.5 1462.7,1390.7 1487.5,1385.2 1512.1,1379.0 1536.5,1372.2 1560.7,1364.7 1584.7,1356.6 1608.5,1347.9 1632.0,1338.5 1655.3,1328.6 1678.2,1318.1 1700.9,1307.1 1723.2,1295.5 1745.2,1283.4 1766.8,1270.9 1788.1,1257.9 1809.0,1244.5 1829.5,1230.7 1849.6,1216.6 1869.3,1202.3 1888.5,1187.6 1907.4,1172.8  Z" style="stroke-width: 0.5;  stroke: rgb(0,0,0); fill: rgb(179,177,178);" />
<path d="M 1715.331,1976.066 A 522.500,522.500 0.00 0,1 1701.3,1982.2 L 1701.3,1982.2 1693.1,1963.1 1684.6,1944.2 1675.6,1925.7 1666.3,1907.6 1656.7,1890.0 1646.7,1873.1 1636.4,1857.0 1625.9,1841.7 1615.0,1827.4 1603.9,1814.0 1592.6,1801.8 1581.0,1790.7 1569.3,1780.7 1557.3,1772.0 1545.2,1764.7 1532.9,1758.6 1520.5,1753.9 1508.0,1750.5 1495.3,1748.6 1482.7,1748.0 1469.9,1748.8 1457.2,1751.1 1444.4,1754.7 1431.6,1759.6 1418.9,1765.9 1406.2,1773.5 1393.6,1782.3 1381.1,1792.4 1368.7,1803.6 1356.5,1815.9 1344.4,1829.3 1332.5,1843.5 1320.9,1858.7 1309.5,1874.6 1298.3,1891.3 1287.4,1908.5 1276.9,1926.2 1266.7,1944.2 1256.8,1962.5  A 522.500,522.500 0.00 0,1 1243.4,1955.2 L 1243.4,1955.2 1253.9,1937.1 1264.7,1919.3 1275.8,1901.8 1287.3,1884.9 1299.1,1868.5 1311.2,1852.8 1323.5,1837.9 1336.1,1823.8 1348.9,1810.7 1361.8,1798.6 1374.9,1787.6 1388.1,1777.7 1401.5,1769.0 1414.9,1761.5 1428.4,1755.4 1441.9,1750.5 1455.4,1747.0 1469.0,1744.9 1482.5,1744.1 1495.9,1744.7 1509.3,1746.7 1522.6,1750.0 1535.7,1754.7 1548.8,1760.7 1561.7,1768.0 1574.4,1776.6 1586.9,1786.5 1599.2,1797.5 1611.3,1809.6 1623.1,1822.8 1634.6,1837.0 1645.9,1852.1 1656.9,1868.1 1667.5,1884.8 1677.8,1902.2 1687.8,1920.1 1697.4,1938.5 1706.5,1957.2 1715.3,1976.1  Z" style="stroke-width: 0.5;  stroke: rgb(0,0,0); fill: rgb(179,177,178);" />
<path d="M 1788.400,1935.697 A 522.500,522.500 0.00 0,1 1776.1,1943.6 L 1776.1,1943.6 1764.7,1925.6 1752.8,1907.9 1740.4,1890.6 1727.6,1873.7 1714.5,1857.4 1700.9,1841.7 1687.0,1826.7 1672.8,1812.5 1658.2,1799.2 1643.4,1786.9 1628.3,1775.6 1612.9,1765.3 1597.4,1756.1 1581.6,1748.1 1565.7,1741.3 1549.6,1735.6 1533.4,1731.3 1517.1,1728.2 1500.7,1726.3 1484.2,1725.8 1467.7,1726.5 1451.2,1728.5 1434.8,1731.8 1418.3,1736.3 1402.0,1742.1 1385.7,1749.0 1369.6,1757.1 1353.6,1766.4 1337.8,1776.7 1322.1,1788.0 1306.7,1800.3 1291.6,1813.5 1276.7,1827.5 1262.1,1842.2 1247.9,1857.6 1234.0,1873.6 1220.5,1890.1 1207.5,1907.0 1194.8,1924.1  A 522.500,522.500 0.00 0,1 1183.1,1915.4 L 1183.1,1915.4 1196.3,1898.6 1209.9,1882.0 1224.0,1865.8 1238.4,1850.1 1253.2,1835.0 1268.4,1820.5 1283.9,1806.7 1299.6,1793.8 1315.6,1781.8 1331.9,1770.7 1348.3,1760.6 1364.9,1751.6 1381.7,1743.6 1398.6,1736.9 1415.6,1731.2 1432.7,1726.8 1449.8,1723.7 1466.9,1721.7 1484.0,1721.0 1501.1,1721.6 1518.2,1723.4 1535.2,1726.5 1552.0,1730.8 1568.8,1736.4 1585.3,1743.1 1601.7,1751.0 1617.9,1760.0 1633.9,1770.2 1649.7,1781.3 1665.1,1793.5 1680.3,1806.6 1695.1,1820.5 1709.7,1835.2 1723.8,1850.7 1737.6,1866.8 1751.0,1883.4 1763.9,1900.5 1776.4,1918.0 1788.4,1935.7  Z" style="stroke-width: 0.5;  stroke: rgb(0,0,0); fill: rgb(179,177,178);" />
<path d="M 1772.364,1945.897 A 522.500,522.500 0.00 0,1 1760.8,1952.8 L 1760.8,1952.8 1750.0,1934.6 1738.9,1916.6 1727.3,1899.1 1715.3,1881.9 1702.9,1865.3 1690.2,1849.4 1677.1,1834.2 1663.7,1819.9 1650.0,1806.4 1636.1,1793.9 1621.9,1782.5 1607.5,1772.1 1592.9,1762.9 1578.1,1754.8 1563.2,1748.0 1548.1,1742.4 1532.9,1738.1 1517.6,1735.2 1502.3,1733.5 1486.9,1733.1 1471.5,1734.1 1456.1,1736.4 1440.7,1739.9 1425.4,1744.8 1410.1,1750.9 1395.0,1758.3 1379.9,1766.8 1365.1,1776.5 1350.4,1787.3 1335.9,1799.1 1321.6,1811.9 1307.6,1825.6 1293.8,1840.2 1280.4,1855.5 1267.2,1871.5 1254.4,1888.1 1242.0,1905.1 1230.0,1922.5 1218.5,1940.2  A 522.500,522.500 0.00 0,1 1207.2,1932.8 L 1207.2,1932.8 1219.3,1915.3 1231.8,1898.2 1244.8,1881.4 1258.1,1865.0 1271.8,1849.3 1285.8,1834.2 1300.1,1819.9 1314.7,1806.4 1329.6,1793.8 1344.7,1782.1 1359.9,1771.5 1375.4,1762.0 1391.0,1753.6 1406.8,1746.4 1422.7,1740.4 1438.6,1735.7 1454.6,1732.1 1470.6,1729.9 1486.7,1729.0 1502.7,1729.4 1518.6,1731.0 1534.6,1734.0 1550.4,1738.2 1566.1,1743.8 1581.6,1750.5 1597.0,1758.4 1612.3,1767.5 1627.3,1777.8 1642.1,1789.1 1656.6,1801.4 1670.9,1814.7 1684.8,1828.8 1698.5,1843.8 1711.8,1859.5 1724.7,1875.9 1737.2,1892.8 1749.4,1910.2 1761.1,1927.9 1772.4,1945.9  Z" style="stroke-width: 0.5;  stroke: rgb(0,0,0); fill: rgb(179,177,178);" />
<path d="M 1631.008,994.191 A 522.500,522.500 0.00 0,1 1643.3,997.5 L 1643.3,997.5 1637.5,1017.3 1631.3,1036.9 1624.7,1056.2 1617.8,1075.1 1610.6,1093.5 1603.0,1111.2 1595.0,1128.1 1586.7,1144.2 1578.2,1159.4 1569.3,1173.6 1560.1,1186.7 1550.6,1198.7 1540.8,1209.4 1530.8,1218.9 1520.6,1227.1 1510.1,1234.0 1499.3,1239.5 1488.4,1243.5 1477.3,1246.2 1466.0,1247.5 1454.6,1247.3 1443.1,1245.8 1431.4,1242.8 1419.6,1238.4 1407.8,1232.7 1395.9,1225.6 1384.1,1217.3 1372.2,1207.7 1360.3,1197.0 1348.5,1185.1 1336.8,1172.2 1325.1,1158.3 1313.6,1143.5 1302.3,1127.9 1291.2,1111.7 1280.3,1094.8 1269.6,1077.4 1259.2,1059.6 1249.2,1041.7  A 522.500,522.500 0.00 0,1 1260.4,1035.7 L 1260.4,1035.7 1270.0,1053.8 1279.9,1071.8 1290.0,1089.4 1300.4,1106.5 1311.0,1122.9 1321.8,1138.7 1332.7,1153.7 1343.8,1167.8 1354.9,1180.9 1366.1,1193.0 1377.4,1203.9 1388.6,1213.7 1399.9,1222.1 1411.1,1229.3 1422.3,1235.2 1433.4,1239.7 1444.4,1242.8 1455.3,1244.5 1466.1,1244.7 1476.7,1243.5 1487.1,1240.9 1497.4,1236.9 1507.4,1231.4 1517.3,1224.6 1526.9,1216.4 1536.2,1206.9 1545.3,1196.1 1554.2,1184.1 1562.7,1171.0 1571.0,1156.8 1579.0,1141.5 1586.6,1125.3 1593.9,1108.3 1601.0,1090.5 1607.7,1072.1 1614.0,1053.1 1620.0,1033.7 1625.7,1014.0 1631.0,994.2  Z" style="stroke-width: 0.5;  stroke: rgb(0,0,0); fill: rgb(179,177,178);" />
<path d="M 1877.916,1139.187 A 522.500,522.500 0.00 0,1 1885.2,1147.0 L 1885.2,1147.0 1867.6,1162.8 1849.5,1178.5 1831.0,1193.8 1812.0,1208.9 1792.6,1223.7 1772.7,1238.0 1752.4,1251.9 1731.7,1265.4 1710.7,1278.4 1689.2,1290.8 1667.4,1302.7 1645.3,1313.9 1622.9,1324.6 1600.1,1334.6 1577.1,1344.0 1553.8,1352.6 1530.2,1360.6 1506.4,1367.9 1482.4,1374.5 1458.3,1380.3 1433.9,1385.5 1409.4,1389.8 1384.8,1393.5 1360.1,1396.4 1335.4,1398.6 1310.6,1400.1 1285.7,1400.9 1260.9,1401.0 1236.1,1400.4 1211.3,1399.1 1186.7,1397.2 1162.1,1394.7 1137.7,1391.5 1113.5,1387.9 1089.5,1383.6 1065.7,1378.9 1042.2,1373.7 1019.0,1368.0 996.1,1362.0  A 522.500,522.500 0.00 0,1 999.0,1351.7 L 999.0,1351.7 1021.6,1358.2 1044.6,1364.3 1067.9,1369.9 1091.5,1375.0 1115.3,1379.6 1139.3,1383.7 1163.5,1387.2 1187.9,1390.1 1212.3,1392.3 1236.9,1393.9 1261.5,1394.8 1286.1,1394.9 1310.8,1394.4 1335.4,1393.1 1360.0,1391.1 1384.4,1388.3 1408.8,1384.8 1433.1,1380.5 1457.2,1375.5 1481.2,1369.7 1504.9,1363.2 1528.5,1355.9 1551.8,1347.9 1574.8,1339.2 1597.6,1329.7 1620.1,1319.6 1642.2,1308.8 1664.1,1297.4 1685.5,1285.4 1706.7,1272.8 1727.4,1259.6 1747.7,1245.9 1767.7,1231.8 1787.2,1217.2 1806.3,1202.2 1824.9,1186.8 1843.0,1171.2 1860.7,1155.3 1877.9,1139.2  Z" style="stroke-width: 0.5;  stroke: rgb(0,0,0); fill: rgb(179,177,178);" />
<path d="M 1854.729,1116.368 A 522.500,522.500 0.00 0,1 1861.0,1122.3 L 1861.0,1122.3 1844.8,1138.9 1828.0,1155.3 1810.8,1171.5 1793.1,1187.4 1774.9,1202.8 1756.2,1217.9 1737.1,1232.5 1717.6,1246.5 1697.6,1260.0 1677.3,1272.9 1656.5,1285.2 1635.4,1296.7 1614.0,1307.6 1592.2,1317.8 1570.1,1327.2 1547.7,1335.9 1525.1,1343.7 1502.2,1350.8 1479.0,1357.1 1455.7,1362.5 1432.2,1367.1 1408.5,1370.9 1384.7,1373.8 1360.8,1376.0 1336.8,1377.3 1312.8,1377.8 1288.7,1377.5 1264.7,1376.4 1240.7,1374.5 1216.7,1372.0 1192.8,1368.7 1169.1,1364.7 1145.5,1360.0 1122.1,1354.8 1099.0,1348.9 1076.1,1342.6 1053.5,1335.7 1031.2,1328.3 1009.3,1320.6  A 522.500,522.500 0.00 0,1 1012.3,1312.5 L 1012.3,1312.5 1034.0,1320.6 1056.1,1328.2 1078.5,1335.4 1101.2,1342.1 1124.1,1348.3 1147.3,1353.8 1170.7,1358.8 1194.3,1363.0 1217.9,1366.6 1241.7,1369.4 1265.5,1371.5 1289.4,1372.7 1313.2,1373.2 1337.1,1372.9 1360.9,1371.7 1384.6,1369.8 1408.2,1366.9 1431.6,1363.2 1454.9,1358.7 1478.0,1353.3 1500.9,1347.1 1523.6,1340.0 1546.0,1332.2 1568.2,1323.5 1590.0,1314.0 1611.6,1303.8 1632.8,1292.8 1653.6,1281.1 1674.1,1268.7 1694.1,1255.7 1713.8,1242.1 1733.0,1227.9 1751.9,1213.1 1770.2,1197.9 1788.1,1182.2 1805.5,1166.2 1822.4,1149.8 1838.8,1133.2 1854.7,1116.4  Z" style="stroke-width: 0.5;  stroke: rgb(0,0,0); fill: rgb(179,177,178);" />
</g>
<g id="plot0">
<g id="plot0-axis">
</g>
<line x1='2243.8' y1='1596.0' x2='2243.8' y2='1596.0' style="stroke-width:14.0;stroke:rgb(0,0,0);stroke-linecap:round;fill:none;" />
<line x1='2243.8' y1='1596.0' x2='2283.5' y2='1601.1' style="stroke-width:14.0;stroke:rgb(0,0,0);stroke-linecap:round;fill:none;" />
<line x1='2283.5' y1='1601.1' x2='2283.5' y2='1601.1' style="stroke-width:14.0;stroke:rgb(0,0,0);stroke-linecap:round;fill:none;" />
<text x="2300.2" y="1625.9" font-size="46.8px" font-family="CMUBright-Roman" style="text-anchor:start;fill:rgb(255,38,78);" transform="rotate(7.4,2300.2,1625.9)" >HistomissSECH84<tspan baseline-shift="-40%" font-size="90%">s</tspan>02372</text>
</g>
<defs>
<pattern id="vline-sparse" width="10" height="10" patternTransform="rotate(0 0 0)" patternUnits="userSpaceOnUse"><line x1="0" y1="0" x2="0" y2="10" style="stroke:black;stroke-width:2" /></pattern>
<pattern id="vline" width="10" height="10" patternTransform="rotate(0 0 0)" patternUnits="userSpaceOnUse"><line x1="0" y1="0" x2="0" y2="10" style="stroke:black;stroke-width:5" /></pattern>
<pattern id="checker" width="10" height="10" patternTransform="rotate(45 0 0)" patternUnits="userSpaceOnUse"><line x1="0" y1="0" x2="10" y2="0" style="stroke:black;stroke-width:2" /><line x1="0" y1="0" x2="0" y2="10" style="stroke:black;stroke-width:2" /></pattern>
<pattern id="hline-sparse" width="10" height="10" patternTransform="rotate(0 0 0)" patternUnits="userSpaceOnUse"><line x1="0" y1="0" x2="10" y2="0" style="stroke:black;stroke-width:2" /></pattern>
<pattern id="checker" width="10" height="10" patternTransform="rotate(45 0 0)" patternUnits="userSpaceOnUse"><line x1="0" y1="0" x2="10" y2="0" style="stroke:black;stroke-width:5" /><line x1="0" y1="0" x2="0" y2="10" style="stroke:black;stroke-width:4" /></pattern>
<pattern id="hline" width="10" height="10" patternTransform="rotate(0 0 0)" patternUnits="userSpaceOnUse"><line x1="0" y1="0" x2="10" y2="0" style="stroke:black;stroke-width:5" /></pattern>
</defs>
</svg>
