<?xml version="1.0" encoding="utf-8" standalone="no"?>
<!DOCTYPE svg PUBLIC "-//W3C//DTD SVG 1.1//EN" "http://www.w3.org/Graphics/SVG/1.1/DTD/svg11.dtd">
<svg width="3000px" height="3000px" version="1.1" xmlns="http://www.w3.org/2000/svg" xmlns:xlink="http://www.w3.org/1999/xlink">
<g id="bg">
<rect x="0" y="0" width="3000px" height="3000px" style="fill:rgb(255,255,255);"/>
</g>
<g id="ideograms">
<path d="M1500.000,950.000 A550.000,550.000 40.000 0,1 1671.425,2022.603 L1733.761,2212.640 A750.000,750.000 0.000 0,0 1500.000,750.000 Z" style="stroke-width:2.0;stroke:rgb(0,0,0);stroke-linecap:round;fill:rgb(179,177,178);" />
<text x="2462.8" y="1346.1" font-size="46.8px" font-family="CMUBright-Roman" style="text-anchor:middle;fill:rgb(0,0,0);" transform="rotate(440.9,2462.8,1346.1)" >HistocapCB064<tspan baseline-shift="-40%" font-size="90%">4</tspan></text>
<line x1='1564.4' y1='752.8' x2='1565.4' y2='740.8' style="stroke-width:8.0;stroke:rgb(150,150,150);stroke-linecap:round;fill:none;" />
<text x="1580.4" y="730.2" font-size="41.6px" font-family="CMUBright-Roman" style="text-anchor:start;fill:rgb(150,150,150);" transform="rotate(274.9,1580.4,730.2)" >100 kb</text>
<line x1='1662.6' y1='767.8' x2='1665.2' y2='756.1' style="stroke-width:8.0;stroke:rgb(150,150,150);stroke-linecap:round;fill:none;" />
<line x1='1757.9' y1='795.7' x2='1762.0' y2='784.5' style="stroke-width:8.0;stroke:rgb(150,150,150);stroke-linecap:round;fill:none;" />
<line x1='1848.7' y1='836.0' x2='1854.2' y2='825.3' style="stroke-width:8.0;stroke:rgb(150,150,150);stroke-linecap:round;fill:none;" />
<line x1='1933.3' y1='887.9' x2='1940.3' y2='878.1' style="stroke-width:8.0;stroke:rgb(150,150,150);stroke-linecap:round;fill:none;" />
<line x1='2010.4' y1='950.5' x2='2018.6' y2='941.7' style="stroke-width:8.0;stroke:rgb(150,150,150);stroke-linecap:round;fill:none;" />
<text x="2036.9" y="942.5" font-size="41.6px" font-family="CMUBright-Roman" style="text-anchor:start;fill:rgb(150,150,150);" transform="rotate(312.9,2036.9,942.5)" >150 kb</text>
<line x1='2078.5' y1='1022.7' x2='2087.8' y2='1015.1' style="stroke-width:8.0;stroke:rgb(150,150,150);stroke-linecap:round;fill:none;" />
<line x1='2136.5' y1='1103.4' x2='2146.7' y2='1097.0' style="stroke-width:8.0;stroke:rgb(150,150,150);stroke-linecap:round;fill:none;" />
<line x1='2183.4' y1='1190.9' x2='2194.3' y2='1186.0' style="stroke-width:8.0;stroke:rgb(150,150,150);stroke-linecap:round;fill:none;" />
<line x1='2218.2' y1='1283.9' x2='2229.7' y2='1280.5' style="stroke-width:8.0;stroke:rgb(150,150,150);stroke-linecap:round;fill:none;" />
<line x1='2240.5' y1='1380.7' x2='2252.3' y2='1378.8' style="stroke-width:8.0;stroke:rgb(150,150,150);stroke-linecap:round;fill:none;" />
<text x="2266.2" y="1390.7" font-size="41.6px" font-family="CMUBright-Roman" style="text-anchor:start;fill:rgb(150,150,150);" transform="rotate(350.8,2266.2,1390.7)" >200 kb</text>
<line x1='2249.7' y1='1479.6' x2='2261.7' y2='1479.3' style="stroke-width:8.0;stroke:rgb(150,150,150);stroke-linecap:round;fill:none;" />
<line x1='2245.8' y1='1578.8' x2='2257.8' y2='1580.1' style="stroke-width:8.0;stroke:rgb(150,150,150);stroke-linecap:round;fill:none;" />
<line x1='2228.9' y1='1676.7' x2='2240.6' y2='1679.5' style="stroke-width:8.0;stroke:rgb(150,150,150);stroke-linecap:round;fill:none;" />
<line x1='2199.2' y1='1771.4' x2='2210.3' y2='1775.8' style="stroke-width:8.0;stroke:rgb(150,150,150);stroke-linecap:round;fill:none;" />
<line x1='2157.2' y1='1861.4' x2='2167.7' y2='1867.2' style="stroke-width:8.0;stroke:rgb(150,150,150);stroke-linecap:round;fill:none;" />
<text x="2171.3" y="1885.2" font-size="41.6px" font-family="CMUBright-Roman" style="text-anchor:start;fill:rgb(150,150,150);" transform="rotate(28.8,2171.3,1885.2)" >250 kb</text>
<line x1='2103.7' y1='1945.1' x2='2113.3' y2='1952.2' style="stroke-width:8.0;stroke:rgb(150,150,150);stroke-linecap:round;fill:none;" />
<line x1='2039.6' y1='2020.9' x2='2048.2' y2='2029.3' style="stroke-width:8.0;stroke:rgb(150,150,150);stroke-linecap:round;fill:none;" />
<line x1='1966.0' y1='2087.7' x2='1973.5' y2='2097.1' style="stroke-width:8.0;stroke:rgb(150,150,150);stroke-linecap:round;fill:none;" />
<line x1='1884.3' y1='2144.1' x2='1890.4' y2='2154.4' style="stroke-width:8.0;stroke:rgb(150,150,150);stroke-linecap:round;fill:none;" />
<line x1='1795.8' y1='2189.2' x2='1800.5' y2='2200.2' style="stroke-width:8.0;stroke:rgb(150,150,150);stroke-linecap:round;fill:none;" />
<text x="1792.4" y="2216.7" font-size="41.6px" font-family="CMUBright-Roman" style="text-anchor:start;fill:rgb(150,150,150);" transform="rotate(66.8,1792.4,2216.7)" >300 kb</text>
<g id="highlighttrack_0">
<path d="M2033.481,1366.218 A550.000,550.000 40.000 0,1 2048.604,1460.842 L2248.097,1446.603 A750.000,750.000 0.000 0,0 2227.475,1317.570 Z" style="stroke-width:14.0;stroke:rgb(0,0,0);stroke-linecap:round;fill:rgb(255,38,78);" />
</g>
<path d="M1500.000,950.000 A550.000,550.000 40.000 0,1 1671.425,2022.603 L1733.761,2212.640 A750.000,750.000 0.000 0,0 1500.000,750.000 Z" style="stroke-width:2.0;stroke:rgb(0,0,0);stroke-linecap:round;fill:none;" />
<path d="M1455.737,2048.216 A550.000,550.000 40.000 0,1 1287.073,992.888 L1209.645,808.484 A750.000,750.000 0.000 0,0 1439.641,2247.567 Z" style="stroke-width:2.0;stroke:rgb(0,0,0);stroke-linecap:round;fill:rgb(179,177,178);" />
<text x="492.8" y="1661.0" font-size="46.8px" font-family="CMUBright-Roman" style="text-anchor:middle;fill:rgb(0,0,0);" transform="rotate(80.9,492.8,1661.0)" >HistomissSECH84<tspan baseline-shift="-40%" font-size="90%">4</tspan></text>
<line x1='1149.7' y1='836.8' x2='1144.1' y2='826.2' style="stroke-width:8.0;stroke:rgb(150,150,150);stroke-linecap:round;fill:none;" />
<text x="1126.1" y="822.3" font-size="41.6px" font-family="CMUBright-Roman" style="text-anchor:end;fill:rgb(150,150,150);" transform="rotate(62.2,1126.1,822.3)" >100 kb</text>
<line x1='1065.1' y1='888.9' x2='1058.2' y2='879.2' style="stroke-width:8.0;stroke:rgb(150,150,150);stroke-linecap:round;fill:none;" />
<line x1='988.2' y1='951.8' x2='980.0' y2='943.0' style="stroke-width:8.0;stroke:rgb(150,150,150);stroke-linecap:round;fill:none;" />
<line x1='920.3' y1='1024.2' x2='911.0' y2='1016.6' style="stroke-width:8.0;stroke:rgb(150,150,150);stroke-linecap:round;fill:none;" />
<line x1='862.5' y1='1105.0' x2='852.3' y2='1098.6' style="stroke-width:8.0;stroke:rgb(150,150,150);stroke-linecap:round;fill:none;" />
<line x1='815.9' y1='1192.7' x2='804.9' y2='1187.7' style="stroke-width:8.0;stroke:rgb(150,150,150);stroke-linecap:round;fill:none;" />
<text x="788.4" y="1195.6" font-size="41.6px" font-family="CMUBright-Roman" style="text-anchor:end;fill:rgb(150,150,150);" transform="rotate(24.2,788.4,1195.6)" >150 kb</text>
<line x1='781.3' y1='1285.7' x2='769.8' y2='1282.3' style="stroke-width:8.0;stroke:rgb(150,150,150);stroke-linecap:round;fill:none;" />
<line x1='759.2' y1='1382.6' x2='747.4' y2='1380.7' style="stroke-width:8.0;stroke:rgb(150,150,150);stroke-linecap:round;fill:none;" />
<line x1='750.2' y1='1481.5' x2='738.2' y2='1481.2' style="stroke-width:8.0;stroke:rgb(150,150,150);stroke-linecap:round;fill:none;" />
<line x1='754.4' y1='1580.7' x2='742.4' y2='1582.0' style="stroke-width:8.0;stroke:rgb(150,150,150);stroke-linecap:round;fill:none;" />
<line x1='771.6' y1='1678.5' x2='759.9' y2='1681.4' style="stroke-width:8.0;stroke:rgb(150,150,150);stroke-linecap:round;fill:none;" />
<text x="751.7" y="1697.8" font-size="41.6px" font-family="CMUBright-Roman" style="text-anchor:end;fill:rgb(150,150,150);" transform="rotate(-13.8,751.7,1697.8)" >200 kb</text>
<line x1='801.5' y1='1773.2' x2='790.3' y2='1777.6' style="stroke-width:8.0;stroke:rgb(150,150,150);stroke-linecap:round;fill:none;" />
<line x1='843.7' y1='1863.1' x2='833.2' y2='1868.9' style="stroke-width:8.0;stroke:rgb(150,150,150);stroke-linecap:round;fill:none;" />
<line x1='897.5' y1='1946.6' x2='887.8' y2='1953.7' style="stroke-width:8.0;stroke:rgb(150,150,150);stroke-linecap:round;fill:none;" />
<line x1='961.7' y1='2022.3' x2='953.1' y2='2030.6' style="stroke-width:8.0;stroke:rgb(150,150,150);stroke-linecap:round;fill:none;" />
<line x1='1035.5' y1='2088.8' x2='1028.0' y2='2098.2' style="stroke-width:8.0;stroke:rgb(150,150,150);stroke-linecap:round;fill:none;" />
<text x="1031.7" y="2116.2" font-size="41.6px" font-family="CMUBright-Roman" style="text-anchor:end;fill:rgb(150,150,150);" transform="rotate(-51.7,1031.7,2116.2)" >250 kb</text>
<line x1='1117.3' y1='2145.0' x2='1111.2' y2='2155.4' style="stroke-width:8.0;stroke:rgb(150,150,150);stroke-linecap:round;fill:none;" />
<line x1='1205.9' y1='2189.9' x2='1201.2' y2='2201.0' style="stroke-width:8.0;stroke:rgb(150,150,150);stroke-linecap:round;fill:none;" />
<line x1='1299.7' y1='2222.7' x2='1296.4' y2='2234.3' style="stroke-width:8.0;stroke:rgb(150,150,150);stroke-linecap:round;fill:none;" />
<line x1='1396.9' y1='2242.9' x2='1395.3' y2='2254.8' style="stroke-width:8.0;stroke:rgb(150,150,150);stroke-linecap:round;fill:none;" />
<path d="M1455.737,2048.216 A550.000,550.000 40.000 0,1 1287.073,992.888 L1209.645,808.484 A750.000,750.000 0.000 0,0 1439.641,2247.567 Z" style="stroke-width:2.0;stroke:rgb(0,0,0);stroke-linecap:round;fill:none;" />
</g>
<g id="track_0">
<path d="M 1848.163,1889.601 A 522.500,522.500 0.00 0,1 1777.9,1942.5 L 1777.9,1942.5 1766.3,1924.5 1754.3,1906.8 1741.8,1889.4 1728.9,1872.5 1715.5,1856.1 1701.8,1840.4 1687.7,1825.4 1673.3,1811.1 1658.5,1797.8 1643.4,1785.3 1628.1,1773.9 1612.4,1763.5 1596.6,1754.1 1580.5,1746.0 1564.2,1739.0 1547.8,1733.1 1531.2,1728.6 1514.5,1725.2 1497.7,1723.1 1480.8,1722.3 1463.9,1722.8 1446.9,1724.5 1429.9,1727.4 1413.0,1731.6 1396.1,1737.0 1379.4,1743.6 1362.7,1751.4 1346.1,1760.2 1329.7,1770.1 1313.5,1781.1 1297.5,1792.9 1281.8,1805.7 1266.3,1819.3 1251.1,1833.7 1236.2,1848.7 1221.7,1864.3 1207.6,1880.3 1193.9,1896.8 1180.7,1913.6  A 522.500,522.500 0.00 0,1 1115.9,1854.2 L 1115.9,1854.2 1132.3,1839.4 1149.2,1824.9 1166.6,1810.9 1184.3,1797.3 1202.5,1784.2 1221.0,1771.9 1239.8,1760.1 1258.9,1749.2 1278.3,1739.0 1297.9,1729.7 1317.8,1721.3 1337.8,1713.9 1357.9,1707.4 1378.2,1701.9 1398.6,1697.5 1419.1,1694.1 1439.5,1691.9 1460.1,1690.6 1480.5,1690.5 1501.0,1691.5 1521.4,1693.6 1541.7,1696.8 1561.8,1701.1 1581.9,1706.4 1601.7,1712.8 1621.4,1720.2 1640.8,1728.5 1660.0,1737.9 1678.9,1748.2 1697.6,1759.3 1715.9,1771.3 1733.9,1784.0 1751.5,1797.5 1768.7,1811.6 1785.5,1826.3 1801.9,1841.6 1817.8,1857.3 1833.2,1873.3 1848.2,1889.6  Z" style="stroke-width: 0.5;  stroke: rgb(0,0,0); fill: rgb(179,177,178);" />
<path d="M 1601.175,987.389 A 522.500,522.500 0.00 0,1 1675.5,1007.9 L 1675.5,1007.9 1668.3,1027.4 1660.7,1046.7 1652.7,1065.8 1644.4,1084.4 1635.6,1102.4 1626.5,1119.9 1617.0,1136.6 1607.1,1152.5 1596.9,1167.5 1586.4,1181.5 1575.6,1194.4 1564.4,1206.3 1553.0,1216.9 1541.3,1226.4 1529.4,1234.5 1517.2,1241.4 1504.8,1246.9 1492.2,1251.1 1479.4,1253.9 1466.4,1255.4 1453.3,1255.4 1440.1,1254.1 1426.8,1251.4 1413.4,1247.3 1400.0,1242.0 1386.5,1235.3 1373.0,1227.4 1359.6,1218.3 1346.2,1208.0 1332.8,1196.7 1319.6,1184.3 1306.5,1170.9 1293.6,1156.7 1280.9,1141.6 1268.4,1125.9 1256.2,1109.6 1244.2,1092.7 1232.6,1075.5 1221.3,1058.0  A 522.500,522.500 0.00 0,1 1289.0,1022.0 L 1289.0,1022.0 1297.4,1040.6 1306.0,1059.0 1314.9,1077.0 1324.0,1094.6 1333.2,1111.6 1342.6,1127.8 1352.1,1143.3 1361.6,1157.8 1371.3,1171.4 1381.0,1183.9 1390.7,1195.3 1400.4,1205.4 1410.1,1214.3 1419.7,1221.8 1429.3,1228.0 1438.8,1232.8 1448.1,1236.2 1457.4,1238.1 1466.5,1238.6 1475.4,1237.6 1484.2,1235.2 1492.8,1231.3 1501.2,1225.9 1509.4,1219.1 1517.4,1211.0 1525.2,1201.5 1532.7,1190.7 1539.9,1178.7 1546.9,1165.5 1553.6,1151.2 1560.1,1135.8 1566.2,1119.5 1572.1,1102.4 1577.7,1084.5 1583.0,1065.9 1588.0,1046.8 1592.7,1027.2 1597.1,1007.4 1601.2,987.4  Z" style="stroke-width: 0.5;  stroke: rgb(0,0,0); fill: rgb(179,177,178);" />
<path d="M 1916.589,1815.373 A 522.500,522.500 0.00 0,1 1870.9,1868.0 L 1870.9,1868.0 1854.8,1852.4 1838.2,1837.1 1821.2,1822.2 1803.7,1807.7 1785.7,1793.7 1767.3,1780.2 1748.6,1767.4 1729.5,1755.3 1710.0,1744.0 1690.3,1733.4 1670.3,1723.6 1649.9,1714.8 1629.4,1706.8 1608.6,1699.8 1587.7,1693.7 1566.6,1688.6 1545.3,1684.5 1524.0,1681.5 1502.5,1679.5 1481.0,1678.5 1459.5,1678.5 1437.9,1679.6 1416.4,1681.7 1394.9,1684.8 1373.5,1688.9 1352.1,1694.0 1330.9,1700.1 1309.9,1707.0 1289.1,1714.9 1268.4,1723.6 1248.0,1733.1 1227.9,1743.4 1208.0,1754.5 1188.5,1766.1 1169.3,1778.4 1150.6,1791.3 1132.2,1804.6 1114.3,1818.3 1096.8,1832.3  A 522.500,522.500 0.00 0,1 1056.2,1775.7 L 1056.2,1775.7 1076.0,1763.8 1096.2,1752.1 1116.8,1740.8 1137.8,1730.0 1159.2,1719.7 1180.9,1709.9 1202.9,1700.8 1225.2,1692.2 1247.7,1684.3 1270.5,1677.2 1293.4,1670.7 1316.6,1665.1 1339.9,1660.2 1363.3,1656.2 1386.8,1652.9 1410.4,1650.5 1434.0,1649.0 1457.7,1648.4 1481.3,1648.6 1504.9,1649.7 1528.5,1651.6 1552.0,1654.4 1575.4,1658.1 1598.7,1662.7 1621.8,1668.1 1644.7,1674.3 1667.5,1681.2 1690.0,1689.0 1712.3,1697.5 1734.3,1706.8 1756.0,1716.7 1777.4,1727.2 1798.5,1738.4 1819.2,1750.1 1839.5,1762.3 1859.5,1775.0 1879.0,1788.2 1898.0,1801.6 1916.6,1815.4  Z" style="stroke-width: 0.5;  stroke: rgb(0,0,0); fill: rgb(179,177,178);" />
<path d="M 1862.365,1123.573 A 522.500,522.500 0.00 0,1 1906.9,1172.2 L 1906.9,1172.2 1888.3,1187.0 1869.2,1201.5 1849.7,1215.7 1829.7,1229.6 1809.3,1243.1 1788.6,1256.3 1767.4,1269.0 1745.9,1281.2 1724.0,1292.9 1701.8,1304.1 1679.2,1314.7 1656.4,1324.7 1633.3,1334.1 1609.9,1342.9 1586.2,1351.0 1562.4,1358.4 1538.3,1365.1 1514.0,1371.1 1489.6,1376.4 1465.0,1381.0 1440.3,1384.9 1415.5,1388.1 1390.7,1390.5 1365.7,1392.2 1340.8,1393.2 1315.8,1393.5 1290.8,1393.1 1265.9,1392.0 1241.1,1390.3 1216.3,1387.9 1191.7,1384.9 1167.2,1381.3 1142.9,1377.1 1118.7,1372.3 1094.9,1367.0 1071.2,1361.3 1047.9,1355.1 1024.8,1348.5 1002.1,1341.5  A 522.500,522.500 0.00 0,1 1026.0,1280.1 L 1026.0,1280.1 1047.0,1289.5 1068.4,1298.6 1090.2,1307.2 1112.2,1315.3 1134.6,1322.9 1157.2,1329.9 1180.1,1336.2 1203.1,1341.8 1226.3,1346.8 1249.6,1351.0 1273.0,1354.4 1296.5,1357.0 1320.0,1358.8 1343.5,1359.7 1367.0,1359.8 1390.5,1359.1 1413.9,1357.4 1437.1,1354.9 1460.3,1351.4 1483.3,1347.1 1506.1,1342.0 1528.7,1335.9 1551.1,1329.0 1573.3,1321.2 1595.2,1312.6 1616.8,1303.3 1638.0,1293.1 1659.0,1282.2 1679.6,1270.5 1699.8,1258.2 1719.6,1245.2 1739.1,1231.6 1758.1,1217.4 1776.6,1202.8 1794.8,1187.6 1812.4,1172.1 1829.6,1156.2 1846.2,1140.0 1862.4,1123.6  Z" style="stroke-width: 0.5;  stroke: rgb(0,0,0); fill: rgb(179,177,178);" />
<path d="M 1706.251,1019.930 A 522.500,522.500 0.00 0,1 1764.3,1049.3 L 1764.3,1049.3 1753.1,1067.8 1741.5,1086.1 1729.3,1104.1 1716.6,1121.8 1703.5,1138.9 1689.9,1155.4 1675.8,1171.3 1661.4,1186.5 1646.5,1200.8 1631.2,1214.3 1615.5,1226.9 1599.5,1238.5 1583.1,1249.1 1566.4,1258.6 1549.4,1267.1 1532.1,1274.4 1514.6,1280.6 1496.8,1285.6 1478.8,1289.4 1460.7,1292.0 1442.4,1293.4 1423.9,1293.7 1405.3,1292.7 1386.7,1290.6 1368.0,1287.3 1349.3,1282.9 1330.6,1277.4 1311.9,1270.8 1293.3,1263.1 1274.8,1254.5 1256.5,1245.0 1238.3,1234.5 1220.3,1223.3 1202.6,1211.2 1185.2,1198.6 1168.0,1185.2 1151.3,1171.4 1134.9,1157.2 1118.9,1142.5  A 522.500,522.500 0.00 0,1 1166.3,1098.0 L 1166.3,1098.0 1180.0,1114.1 1194.0,1129.9 1208.5,1145.2 1223.2,1160.1 1238.2,1174.4 1253.5,1187.9 1269.0,1200.7 1284.6,1212.6 1300.4,1223.5 1316.3,1233.5 1332.3,1242.4 1348.3,1250.2 1364.3,1256.9 1380.3,1262.3 1396.2,1266.5 1412.1,1269.5 1427.9,1271.2 1443.5,1271.6 1459.0,1270.7 1474.4,1268.5 1489.5,1265.0 1504.4,1260.1 1519.0,1254.1 1533.4,1246.7 1547.5,1238.2 1561.3,1228.4 1574.8,1217.5 1588.0,1205.5 1600.7,1192.4 1613.2,1178.3 1625.2,1163.4 1636.8,1147.5 1648.1,1130.9 1658.9,1113.6 1669.3,1095.7 1679.2,1077.2 1688.7,1058.4 1697.7,1039.2 1706.3,1019.9  Z" style="stroke-width: 0.5;  stroke: rgb(0,0,0); fill: rgb(179,177,178);" />
<path d="M 1976.799,1286.297 A 522.500,522.500 0.00 0,1 1997.8,1341.3 L 1997.8,1341.3 1973.0,1349.1 1948.1,1356.9 1923.0,1364.5 1897.8,1372.0 1872.5,1379.4 1847.1,1386.6 1821.5,1393.7 1795.8,1400.7 1770.0,1407.5 1744.1,1414.1 1718.1,1420.6 1692.1,1426.9 1665.9,1433.0 1639.7,1439.0 1613.4,1444.8 1587.0,1450.3 1560.6,1455.7 1534.1,1460.9 1507.5,1466.0 1481.0,1470.8 1454.4,1475.4 1427.8,1479.8 1401.1,1484.0 1374.5,1488.1 1347.8,1491.9 1321.1,1495.5 1294.5,1498.9 1267.9,1502.2 1241.3,1505.2 1214.7,1508.1 1188.1,1510.8 1161.7,1513.3 1135.2,1515.6 1108.8,1517.8 1082.5,1519.7 1056.3,1521.6 1030.2,1523.2 1004.1,1524.7 978.2,1526.1  A 522.500,522.500 0.00 0,1 978.5,1467.2 L 978.5,1467.2 1003.8,1468.7 1029.2,1469.9 1054.8,1470.8 1080.5,1471.5 1106.4,1471.9 1132.5,1472.1 1158.6,1471.9 1184.8,1471.3 1211.2,1470.5 1237.5,1469.3 1264.0,1467.8 1290.5,1465.9 1317.0,1463.7 1343.5,1461.1 1370.1,1458.2 1396.6,1454.9 1423.1,1451.2 1449.6,1447.1 1476.0,1442.7 1502.4,1437.9 1528.7,1432.8 1554.9,1427.3 1581.0,1421.4 1607.0,1415.2 1632.9,1408.7 1658.6,1401.8 1684.2,1394.6 1709.7,1387.0 1735.0,1379.2 1760.1,1371.0 1785.1,1362.6 1809.8,1353.8 1834.4,1344.9 1858.7,1335.6 1882.8,1326.2 1906.7,1316.5 1930.3,1306.6 1953.7,1296.5 1976.8,1286.3  Z" style="stroke-width: 0.5;  stroke: rgb(0,0,0); fill: rgb(179,177,178);" />
<path d="M 2007.979,1622.326 A 522.500,522.500 0.00 0,1 1991.8,1676.4 L 1991.8,1676.4 1968.9,1668.4 1945.6,1660.6 1922.0,1653.2 1898.1,1646.2 1874.0,1639.6 1849.6,1633.3 1824.9,1627.5 1800.1,1622.2 1775.0,1617.4 1749.8,1613.1 1724.4,1609.3 1698.9,1606.0 1673.3,1603.3 1647.6,1601.2 1621.9,1599.7 1596.0,1598.7 1570.2,1598.3 1544.3,1598.5 1518.4,1599.4 1492.6,1600.8 1466.8,1602.8 1441.0,1605.4 1415.4,1608.6 1389.8,1612.4 1364.3,1616.8 1339.0,1621.7 1313.9,1627.2 1288.9,1633.2 1264.1,1639.8 1239.5,1646.8 1215.1,1654.4 1191.0,1662.4 1167.2,1670.8 1143.6,1679.7 1120.3,1688.9 1097.3,1698.6 1074.7,1708.5 1052.4,1718.7 1030.5,1729.2  A 522.500,522.500 0.00 0,1 1008.5,1677.3 L 1008.5,1677.3 1032.1,1669.0 1055.9,1660.9 1080.0,1653.0 1104.3,1645.4 1128.9,1638.0 1153.7,1631.0 1178.7,1624.3 1204.0,1617.9 1229.4,1611.9 1255.0,1606.3 1280.7,1601.0 1306.6,1596.1 1332.6,1591.7 1358.8,1587.6 1385.0,1584.0 1411.4,1580.7 1437.8,1578.0 1464.2,1575.6 1490.7,1573.7 1517.3,1572.2 1543.9,1571.2 1570.4,1570.7 1597.0,1570.5 1623.5,1570.8 1650.0,1571.6 1676.4,1572.7 1702.8,1574.3 1729.0,1576.3 1755.2,1578.7 1781.3,1581.6 1807.2,1584.7 1833.0,1588.3 1858.6,1592.2 1884.0,1596.5 1909.3,1601.1 1934.3,1606.0 1959.1,1611.2 1983.7,1616.6 2008.0,1622.3  Z" style="stroke-width: 0.5;  stroke: rgb(0,0,0); fill: rgb(179,177,178);" />
<path d="M 1947.076,1229.575 A 522.500,522.500 0.00 0,1 1973.2,1278.4 L 1973.2,1278.4 1950.3,1288.9 1927.2,1299.3 1903.8,1309.5 1880.1,1319.5 1856.2,1329.3 1832.1,1338.8 1807.7,1348.1 1783.1,1357.0 1758.3,1365.7 1733.3,1374.1 1708.2,1382.1 1682.8,1389.9 1657.3,1397.3 1631.7,1404.3 1605.9,1411.0 1580.0,1417.3 1553.9,1423.2 1527.8,1428.7 1501.6,1433.9 1475.3,1438.7 1448.9,1443.1 1422.5,1447.1 1396.0,1450.7 1369.6,1453.9 1343.1,1456.7 1316.6,1459.2 1290.1,1461.2 1263.7,1462.9 1237.3,1464.2 1210.9,1465.2 1184.7,1465.8 1158.5,1466.0 1132.4,1465.9 1106.5,1465.5 1080.7,1464.8 1055.0,1463.8 1029.5,1462.4 1004.2,1460.8 979.1,1459.0  A 522.500,522.500 0.00 0,1 986.4,1404.1 L 986.4,1404.1 1010.5,1408.5 1034.9,1412.5 1059.6,1416.1 1084.5,1419.4 1109.6,1422.3 1134.8,1424.8 1160.3,1426.8 1185.9,1428.4 1211.6,1429.5 1237.4,1430.1 1263.2,1430.3 1289.2,1429.9 1315.1,1429.0 1341.1,1427.6 1367.1,1425.6 1393.1,1423.1 1419.1,1420.1 1445.0,1416.5 1470.8,1412.3 1496.5,1407.7 1522.1,1402.5 1547.6,1396.7 1573.0,1390.4 1598.2,1383.6 1623.2,1376.3 1648.1,1368.5 1672.7,1360.2 1697.1,1351.4 1721.3,1342.2 1745.2,1332.5 1768.9,1322.5 1792.3,1312.0 1815.4,1301.1 1838.2,1289.9 1860.6,1278.4 1882.8,1266.6 1904.6,1254.5 1926.0,1242.1 1947.1,1229.6  Z" style="stroke-width: 0.5;  stroke: rgb(0,0,0); fill: rgb(179,177,178);" />
<path d="M 1991.991,1675.929 A 522.500,522.500 0.00 0,1 1971.6,1724.9 L 1971.6,1724.9 1950.1,1714.9 1928.2,1705.3 1906.0,1696.0 1883.4,1687.1 1860.5,1678.6 1837.3,1670.7 1813.8,1663.3 1790.1,1656.4 1766.1,1650.2 1742.0,1644.5 1717.6,1639.5 1693.2,1635.1 1668.5,1631.5 1643.8,1628.5 1619.0,1626.2 1594.2,1624.7 1569.3,1623.8 1544.4,1623.8 1519.5,1624.4 1494.6,1625.8 1469.8,1628.0 1445.0,1630.8 1420.4,1634.4 1395.9,1638.8 1371.5,1643.8 1347.3,1649.5 1323.2,1655.9 1299.4,1663.0 1275.8,1670.7 1252.4,1679.1 1229.3,1688.0 1206.5,1697.4 1184.0,1707.4 1161.8,1717.9 1140.0,1728.9 1118.5,1740.2 1097.5,1752.0 1076.8,1764.0 1056.6,1776.4  A 522.500,522.500 0.00 0,1 1030.9,1730.2 L 1030.9,1730.2 1052.8,1719.6 1075.1,1709.3 1097.7,1699.4 1120.7,1689.7 1143.9,1680.4 1167.5,1671.5 1191.3,1663.0 1215.4,1655.0 1239.8,1647.4 1264.3,1640.3 1289.1,1633.7 1314.1,1627.6 1339.3,1622.1 1364.6,1617.1 1390.0,1612.7 1415.5,1608.9 1441.2,1605.6 1466.9,1603.0 1492.7,1600.9 1518.6,1599.5 1544.4,1598.6 1570.3,1598.3 1596.2,1598.7 1622.0,1599.6 1647.8,1601.1 1673.5,1603.2 1699.1,1605.9 1724.6,1609.1 1749.9,1612.9 1775.2,1617.2 1800.2,1622.0 1825.1,1627.3 1849.7,1633.0 1874.1,1639.2 1898.3,1645.8 1922.2,1652.8 1945.8,1660.2 1969.0,1667.9 1992.0,1675.9  Z" style="stroke-width: 0.5;  stroke: rgb(0,0,0); fill: rgb(179,177,178);" />
<path d="M 1755.291,1955.887 A 522.500,522.500 0.00 0,1 1709.2,1978.8 L 1709.2,1978.8 1700.6,1959.7 1691.6,1940.9 1682.2,1922.3 1672.4,1904.2 1662.3,1886.7 1651.7,1869.7 1640.9,1853.6 1629.7,1838.2 1618.1,1823.8 1606.3,1810.3 1594.2,1797.9 1581.8,1786.6 1569.2,1776.4 1556.3,1767.5 1543.2,1759.8 1530.0,1753.4 1516.5,1748.4 1502.9,1744.6 1489.2,1742.3 1475.4,1741.2 1461.4,1741.6 1447.5,1743.3 1433.4,1746.4 1419.4,1750.7 1405.3,1756.4 1391.3,1763.4 1377.3,1771.6 1363.4,1781.0 1349.6,1791.5 1335.9,1803.1 1322.4,1815.7 1309.1,1829.3 1296.0,1843.7 1283.1,1858.9 1270.5,1874.8 1258.2,1891.3 1246.2,1908.2 1234.5,1925.6 1223.3,1943.2  A 522.500,522.500 0.00 0,1 1181.0,1913.8 L 1181.0,1913.8 1194.2,1897.1 1207.8,1880.7 1221.8,1864.7 1236.1,1849.2 1250.8,1834.3 1265.8,1820.1 1281.1,1806.6 1296.6,1793.9 1312.4,1782.2 1328.3,1771.5 1344.4,1761.7 1360.6,1753.1 1376.9,1745.6 1393.2,1739.2 1409.6,1734.1 1426.1,1730.2 1442.5,1727.6 1458.9,1726.2 1475.3,1726.1 1491.5,1727.3 1507.7,1729.7 1523.7,1733.5 1539.6,1738.5 1555.3,1744.8 1570.8,1752.2 1586.0,1760.9 1601.1,1770.7 1615.8,1781.6 1630.3,1793.6 1644.5,1806.6 1658.4,1820.5 1671.9,1835.2 1685.0,1850.8 1697.8,1867.0 1710.2,1883.9 1722.1,1901.4 1733.6,1919.3 1744.7,1937.5 1755.3,1955.9  Z" style="stroke-width: 0.5;  stroke: rgb(0,0,0); fill: rgb(179,177,178);" />
<path d="M 1822.390,1088.818 A 522.500,522.500 0.00 0,1 1857.5,1118.9 L 1857.5,1118.9 1841.6,1135.4 1825.2,1151.7 1808.4,1167.8 1791.0,1183.4 1773.2,1198.6 1754.9,1213.4 1736.1,1227.6 1717.0,1241.2 1697.4,1254.3 1677.4,1266.6 1657.1,1278.2 1636.4,1289.1 1615.4,1299.2 1594.1,1308.5 1572.5,1317.0 1550.6,1324.6 1528.5,1331.4 1506.1,1337.2 1483.6,1342.2 1460.9,1346.2 1438.0,1349.4 1415.0,1351.6 1391.9,1352.9 1368.7,1353.3 1345.5,1352.9 1322.3,1351.5 1299.1,1349.3 1275.9,1346.2 1252.8,1342.3 1229.8,1337.6 1207.0,1332.2 1184.3,1326.0 1161.8,1319.1 1139.5,1311.6 1117.5,1303.5 1095.8,1294.8 1074.4,1285.6 1053.4,1276.0 1032.9,1265.9  A 522.500,522.500 0.00 0,1 1055.4,1225.6 L 1055.4,1225.6 1074.6,1237.1 1094.3,1248.3 1114.3,1259.0 1134.7,1269.2 1155.4,1278.8 1176.3,1287.7 1197.5,1296.0 1218.9,1303.5 1240.5,1310.2 1262.2,1316.1 1284.0,1321.1 1305.8,1325.2 1327.7,1328.4 1349.6,1330.6 1371.5,1331.9 1393.3,1332.1 1415.0,1331.4 1436.7,1329.6 1458.1,1326.8 1479.4,1323.0 1500.5,1318.2 1521.4,1312.4 1542.1,1305.6 1562.5,1297.8 1582.6,1289.1 1602.3,1279.4 1621.8,1268.9 1640.9,1257.5 1659.6,1245.2 1677.9,1232.2 1695.8,1218.5 1713.3,1204.0 1730.4,1189.0 1747.0,1173.3 1763.1,1157.2 1778.7,1140.6 1793.8,1123.6 1808.3,1106.3 1822.4,1088.8  Z" style="stroke-width: 0.5;  stroke: rgb(0,0,0); fill: rgb(179,177,178);" />
<path d="M 1693.907,1985.187 A 522.500,522.500 0.00 0,1 1662.9,1996.5 L 1662.9,1996.5 1656.2,1976.9 1649.3,1957.6 1642.0,1938.5 1634.3,1919.9 1626.3,1901.9 1618.0,1884.5 1609.4,1867.8 1600.5,1852.0 1591.2,1837.1 1581.8,1823.3 1572.0,1810.5 1562.0,1798.9 1551.8,1788.5 1541.4,1779.4 1530.7,1771.6 1519.9,1765.1 1508.9,1760.0 1497.8,1756.3 1486.5,1754.0 1475.1,1753.2 1463.6,1753.7 1452.0,1755.7 1440.3,1759.1 1428.7,1763.9 1417.0,1770.0 1405.3,1777.4 1393.6,1786.2 1382.0,1796.1 1370.4,1807.3 1358.9,1819.5 1347.6,1832.8 1336.4,1847.1 1325.4,1862.3 1314.5,1878.2 1303.9,1894.9 1293.5,1912.1 1283.4,1929.8 1273.6,1947.9 1264.1,1966.2  A 522.500,522.500 0.00 0,1 1224.4,1943.9 L 1224.4,1943.9 1235.6,1926.3 1247.1,1909.0 1259.0,1892.0 1271.2,1875.6 1283.7,1859.7 1296.4,1844.5 1309.4,1830.1 1322.5,1816.6 1335.8,1804.0 1349.2,1792.5 1362.8,1782.1 1376.4,1772.7 1390.1,1764.6 1403.8,1757.8 1417.5,1752.2 1431.2,1747.9 1444.8,1745.0 1458.4,1743.5 1471.9,1743.3 1485.3,1744.4 1498.5,1747.0 1511.6,1750.9 1524.5,1756.2 1537.3,1762.7 1549.8,1770.6 1562.1,1779.8 1574.1,1790.1 1585.9,1801.7 1597.4,1814.3 1608.6,1828.0 1619.5,1842.7 1630.1,1858.3 1640.3,1874.7 1650.2,1891.9 1659.7,1909.7 1668.9,1928.1 1677.6,1946.8 1686.0,1965.9 1693.9,1985.2  Z" style="stroke-width: 0.5;  stroke: rgb(0,0,0); fill: rgb(179,177,178);" />
<path d="M 2017.522,1571.953 A 522.500,522.500 0.00 0,1 2010.6,1610.9 L 2010.6,1610.9 1986.0,1605.7 1961.2,1600.8 1936.2,1596.0 1911.0,1591.6 1885.5,1587.5 1859.9,1583.6 1834.1,1580.1 1808.2,1576.9 1782.1,1574.1 1756.0,1571.6 1729.7,1569.5 1703.3,1567.7 1676.8,1566.4 1650.3,1565.4 1623.7,1564.9 1597.0,1564.7 1570.4,1564.9 1543.7,1565.6 1517.1,1566.7 1490.4,1568.1 1463.8,1570.0 1437.2,1572.3 1410.7,1575.0 1384.2,1578.1 1357.9,1581.6 1331.6,1585.5 1305.4,1589.7 1279.4,1594.4 1253.5,1599.4 1227.8,1604.7 1202.2,1610.4 1176.7,1616.5 1151.5,1622.8 1126.5,1629.5 1101.7,1636.4 1077.1,1643.6 1052.7,1651.0 1028.6,1658.7 1004.8,1666.6  A 522.500,522.500 0.00 0,1 993.6,1628.6 L 993.6,1628.6 1018.4,1622.4 1043.4,1616.4 1068.6,1610.5 1094.0,1604.8 1119.5,1599.4 1145.2,1594.1 1171.1,1589.1 1197.1,1584.3 1223.2,1579.7 1249.4,1575.4 1275.7,1571.4 1302.2,1567.6 1328.7,1564.1 1355.3,1560.8 1382.0,1557.9 1408.7,1555.2 1435.5,1552.9 1462.4,1550.8 1489.2,1549.0 1516.1,1547.5 1543.0,1546.3 1569.9,1545.4 1596.8,1544.8 1623.7,1544.5 1650.5,1544.5 1677.3,1544.8 1704.1,1545.3 1730.8,1546.2 1757.4,1547.3 1783.9,1548.7 1810.4,1550.3 1836.7,1552.2 1863.0,1554.4 1889.1,1556.8 1915.1,1559.4 1940.9,1562.2 1966.6,1565.3 1992.2,1568.5 2017.5,1572.0  Z" style="stroke-width: 0.5;  stroke: rgb(0,0,0); fill: rgb(179,177,178);" />
<path d="M 2020.874,1541.191 A 522.500,522.500 0.00 0,1 2017.5,1572.3 L 2017.5,1572.3 1992.1,1568.9 1966.6,1565.6 1940.9,1562.6 1915.0,1559.7 1889.1,1557.1 1862.9,1554.6 1836.7,1552.5 1810.3,1550.5 1783.9,1548.9 1757.3,1547.5 1730.7,1546.3 1704.0,1545.5 1677.3,1544.9 1650.5,1544.6 1623.6,1544.6 1596.7,1544.8 1569.9,1545.4 1543.0,1546.3 1516.1,1547.4 1489.2,1548.9 1462.3,1550.7 1435.5,1552.7 1408.7,1555.1 1381.9,1557.7 1355.2,1560.6 1328.6,1563.8 1302.1,1567.3 1275.7,1571.0 1249.3,1575.1 1223.1,1579.3 1197.0,1583.9 1171.0,1588.6 1145.1,1593.6 1119.4,1598.9 1093.9,1604.3 1068.5,1609.9 1043.3,1615.8 1018.2,1621.8 993.4,1627.9  A 522.500,522.500 0.00 0,1 986.6,1597.3 L 986.6,1597.3 1012.2,1592.6 1037.8,1587.9 1063.6,1583.4 1089.5,1579.0 1115.5,1574.8 1141.7,1570.7 1167.9,1566.8 1194.2,1563.0 1220.7,1559.4 1247.2,1556.0 1273.8,1552.8 1300.4,1549.7 1327.1,1546.8 1353.9,1544.2 1380.7,1541.7 1407.6,1539.4 1434.5,1537.3 1461.4,1535.5 1488.3,1533.8 1515.3,1532.3 1542.2,1531.1 1569.2,1530.0 1596.2,1529.2 1623.1,1528.5 1650.0,1528.1 1676.9,1527.8 1703.8,1527.8 1730.6,1527.9 1757.4,1528.3 1784.1,1528.8 1810.8,1529.5 1837.4,1530.4 1863.9,1531.5 1890.3,1532.7 1916.6,1534.1 1942.9,1535.7 1969.0,1537.4 1995.0,1539.2 2020.9,1541.2  Z" style="stroke-width: 0.5;  stroke: rgb(0,0,0); fill: rgb(179,177,178);" />
<path d="M 1676.975,1008.384 A 522.500,522.500 0.00 0,1 1705.4,1019.5 L 1705.4,1019.5 1696.8,1038.9 1687.9,1058.0 1678.4,1076.9 1668.5,1095.3 1658.2,1113.2 1647.4,1130.6 1636.2,1147.2 1624.7,1163.0 1612.7,1178.0 1600.3,1192.1 1587.6,1205.2 1574.5,1217.2 1561.0,1228.1 1547.3,1237.8 1533.2,1246.4 1518.9,1253.7 1504.3,1259.8 1489.4,1264.6 1474.4,1268.1 1459.1,1270.3 1443.7,1271.2 1428.1,1270.8 1412.4,1269.1 1396.5,1266.1 1380.6,1261.8 1364.7,1256.4 1348.7,1249.7 1332.8,1241.9 1316.9,1232.9 1301.0,1222.9 1285.3,1211.9 1269.7,1200.0 1254.3,1187.2 1239.1,1173.6 1224.1,1159.3 1209.4,1144.4 1195.0,1129.0 1181.0,1113.2 1167.4,1097.1  A 522.500,522.500 0.00 0,1 1191.4,1078.3 L 1191.4,1078.3 1204.0,1095.1 1216.9,1111.5 1230.1,1127.6 1243.6,1143.2 1257.4,1158.1 1271.4,1172.3 1285.5,1185.7 1299.9,1198.3 1314.3,1209.9 1328.8,1220.5 1343.4,1230.0 1358.0,1238.3 1372.6,1245.5 1387.2,1251.4 1401.7,1256.1 1416.1,1259.5 1430.4,1261.5 1444.6,1262.2 1458.6,1261.6 1472.4,1259.6 1486.0,1256.2 1499.4,1251.6 1512.6,1245.6 1525.5,1238.3 1538.0,1229.7 1550.3,1219.9 1562.3,1208.9 1574.0,1196.8 1585.3,1183.5 1596.2,1169.3 1606.8,1154.1 1617.0,1138.0 1626.8,1121.1 1636.2,1103.5 1645.2,1085.3 1653.8,1066.6 1662.0,1047.4 1669.7,1028.0 1677.0,1008.4  Z" style="stroke-width: 0.5;  stroke: rgb(0,0,0); fill: rgb(179,177,178);" />
<path d="M 1913.197,1180.196 A 522.500,522.500 0.00 0,1 1929.5,1202.4 L 1929.5,1202.4 1909.5,1216.0 1889.2,1229.4 1868.4,1242.5 1847.3,1255.3 1825.7,1267.7 1803.9,1279.8 1781.6,1291.5 1759.1,1302.8 1736.2,1313.6 1713.0,1323.9 1689.6,1333.7 1665.8,1343.0 1641.8,1351.7 1617.6,1359.9 1593.2,1367.5 1568.6,1374.5 1543.8,1380.8 1518.8,1386.6 1493.7,1391.7 1468.5,1396.2 1443.1,1400.1 1417.7,1403.3 1392.2,1405.9 1366.7,1407.9 1341.2,1409.2 1315.6,1409.9 1290.1,1410.0 1264.6,1409.5 1239.2,1408.4 1213.9,1406.8 1188.7,1404.5 1163.6,1401.8 1138.7,1398.5 1114.0,1394.7 1089.5,1390.5 1065.2,1385.8 1041.2,1380.7 1017.5,1375.2 994.1,1369.3  A 522.500,522.500 0.00 0,1 1001.7,1342.8 L 1001.7,1342.8 1024.5,1349.8 1047.6,1356.4 1071.0,1362.5 1094.7,1368.3 1118.7,1373.5 1142.9,1378.3 1167.3,1382.5 1191.9,1386.1 1216.6,1389.2 1241.4,1391.6 1266.4,1393.4 1291.4,1394.6 1316.5,1395.1 1341.5,1394.9 1366.6,1394.0 1391.7,1392.4 1416.7,1390.1 1441.6,1387.1 1466.4,1383.4 1491.2,1379.0 1515.8,1373.9 1540.2,1368.1 1564.4,1361.6 1588.5,1354.4 1612.3,1346.6 1635.9,1338.1 1659.3,1328.9 1682.4,1319.2 1705.1,1308.9 1727.6,1298.0 1749.7,1286.6 1771.5,1274.7 1793.0,1262.3 1814.0,1249.5 1834.7,1236.3 1855.0,1222.7 1874.8,1208.8 1894.2,1194.6 1913.2,1180.2  Z" style="stroke-width: 0.5;  stroke: rgb(0,0,0); fill: rgb(179,177,178);" />
<path d="M 1575.397,982.969 A 522.500,522.500 0.00 0,1 1599.7,987.1 L 1599.7,987.1 1595.7,1007.1 1591.3,1026.9 1586.7,1046.5 1581.8,1065.6 1576.5,1084.2 1571.0,1102.1 1565.2,1119.3 1559.1,1135.6 1552.7,1151.0 1546.1,1165.3 1539.2,1178.5 1532.0,1190.5 1524.6,1201.3 1516.9,1210.8 1509.0,1218.9 1500.9,1225.7 1492.6,1231.0 1484.0,1234.9 1475.3,1237.4 1466.4,1238.4 1457.4,1237.9 1448.2,1236.0 1438.9,1232.6 1429.5,1227.8 1420.0,1221.6 1410.4,1214.0 1400.8,1205.1 1391.2,1194.9 1381.5,1183.6 1371.9,1171.1 1362.3,1157.5 1352.8,1142.9 1343.4,1127.4 1334.0,1111.2 1324.9,1094.2 1315.8,1076.6 1307.0,1058.5 1298.4,1040.1 1290.1,1021.5  A 522.500,522.500 0.00 0,1 1297.7,1018.2 L 1297.7,1018.2 1305.7,1036.9 1313.9,1055.4 1322.4,1073.6 1331.0,1091.2 1339.7,1108.3 1348.5,1124.7 1357.4,1140.2 1366.4,1154.9 1375.4,1168.5 1384.4,1181.1 1393.4,1192.6 1402.4,1202.8 1411.3,1211.7 1420.1,1219.3 1428.9,1225.5 1437.5,1230.4 1445.9,1233.8 1454.3,1235.7 1462.4,1236.2 1470.4,1235.1 1478.2,1232.7 1485.8,1228.7 1493.1,1223.3 1500.3,1216.5 1507.1,1208.3 1513.8,1198.7 1520.2,1187.8 1526.3,1175.7 1532.2,1162.4 1537.7,1147.9 1543.0,1132.4 1548.1,1116.0 1552.8,1098.7 1557.3,1080.7 1561.5,1061.9 1565.4,1042.7 1569.0,1023.0 1572.3,1003.1 1575.4,983.0  Z" style="stroke-width: 0.5;  stroke: rgb(0,0,0); fill: rgb(179,177,178);" />
<path d="M 1864.950,1873.922 A 522.500,522.500 0.00 0,1 1848.2,1889.6 L 1848.2,1889.6 1833.3,1873.2 1817.8,1857.2 1801.9,1841.5 1785.5,1826.3 1768.7,1811.6 1751.5,1797.4 1733.9,1784.0 1715.9,1771.2 1697.6,1759.2 1678.9,1748.1 1660.0,1737.8 1640.8,1728.4 1621.3,1720.0 1601.6,1712.6 1581.8,1706.2 1561.7,1700.9 1541.5,1696.6 1521.2,1693.4 1500.8,1691.3 1480.4,1690.3 1459.8,1690.4 1439.3,1691.6 1418.8,1693.8 1398.3,1697.2 1377.9,1701.6 1357.6,1707.0 1337.4,1713.5 1317.4,1720.9 1297.5,1729.3 1277.9,1738.5 1258.5,1748.6 1239.3,1759.6 1220.5,1771.2 1201.9,1783.6 1183.7,1796.6 1165.9,1810.2 1148.6,1824.2 1131.6,1838.6 1115.1,1853.4  A 522.500,522.500 0.00 0,1 1100.0,1836.2 L 1100.0,1836.2 1117.3,1822.0 1135.0,1808.2 1153.2,1794.7 1171.8,1781.8 1190.8,1769.4 1210.1,1757.6 1229.8,1746.5 1249.7,1736.1 1269.9,1726.5 1290.4,1717.7 1311.0,1709.7 1331.9,1702.7 1352.8,1696.6 1373.9,1691.5 1395.2,1687.4 1416.4,1684.3 1437.7,1682.2 1459.1,1681.1 1480.4,1681.1 1501.7,1682.2 1522.9,1684.3 1544.0,1687.4 1565.0,1691.6 1585.9,1696.8 1606.6,1703.0 1627.1,1710.2 1647.4,1718.3 1667.4,1727.3 1687.2,1737.2 1706.7,1748.0 1725.8,1759.6 1744.7,1771.9 1763.1,1784.9 1781.2,1798.5 1798.9,1812.7 1816.1,1827.4 1832.9,1842.6 1849.2,1858.1 1865.0,1873.9  Z" style="stroke-width: 0.5;  stroke: rgb(0,0,0); fill: rgb(179,177,178);" />
<path d="M 1935.796,1211.749 A 522.500,522.500 0.00 0,1 1946.6,1228.8 L 1946.6,1228.8 1925.6,1241.4 1904.1,1253.7 1882.4,1265.8 1860.3,1277.7 1837.8,1289.3 1815.1,1300.5 1792.0,1311.4 1768.6,1321.9 1745.0,1332.0 1721.1,1341.6 1696.9,1350.9 1672.5,1359.6 1647.9,1367.9 1623.1,1375.7 1598.1,1383.1 1572.9,1389.8 1547.6,1396.1 1522.1,1401.8 1496.5,1407.0 1470.7,1411.7 1444.9,1415.8 1419.1,1419.4 1393.1,1422.4 1367.2,1424.8 1341.2,1426.7 1315.2,1428.1 1289.2,1429.0 1263.3,1429.3 1237.4,1429.1 1211.7,1428.4 1186.0,1427.3 1160.4,1425.6 1135.0,1423.5 1109.7,1421.0 1084.7,1418.0 1059.8,1414.7 1035.2,1410.9 1010.8,1406.8 986.7,1402.4  A 522.500,522.500 0.00 0,1 990.9,1382.5 L 990.9,1382.5 1014.6,1387.8 1038.6,1392.7 1062.8,1397.3 1087.3,1401.5 1112.1,1405.2 1137.0,1408.5 1162.1,1411.3 1187.4,1413.6 1212.8,1415.4 1238.3,1416.6 1263.9,1417.3 1289.6,1417.5 1315.3,1417.1 1341.0,1416.1 1366.7,1414.5 1392.4,1412.3 1418.1,1409.5 1443.7,1406.1 1469.2,1402.1 1494.6,1397.5 1519.9,1392.3 1545.1,1386.6 1570.1,1380.2 1594.9,1373.2 1619.6,1365.7 1644.0,1357.7 1668.3,1349.1 1692.2,1339.9 1716.0,1330.3 1739.4,1320.2 1762.6,1309.6 1785.4,1298.6 1808.0,1287.2 1830.2,1275.4 1852.1,1263.2 1873.6,1250.8 1894.7,1238.0 1915.4,1225.0 1935.8,1211.7  Z" style="stroke-width: 0.5;  stroke: rgb(0,0,0); fill: rgb(179,177,178);" />
<path d="M 2001.798,1354.381 A 522.500,522.500 0.00 0,1 2006.8,1372.9 L 2006.8,1372.9 1981.1,1379.3 1955.3,1385.7 1929.5,1392.1 1903.6,1398.4 1877.7,1404.6 1851.7,1410.8 1825.7,1417.0 1799.7,1423.1 1773.6,1429.1 1747.5,1435.1 1721.3,1441.0 1695.1,1446.8 1668.9,1452.6 1642.6,1458.4 1616.3,1464.0 1590.0,1469.6 1563.6,1475.2 1537.3,1480.6 1510.9,1486.0 1484.5,1491.3 1458.1,1496.6 1431.7,1501.7 1405.3,1506.8 1378.8,1511.9 1352.4,1516.8 1326.0,1521.7 1299.5,1526.5 1273.1,1531.3 1246.7,1535.9 1220.3,1540.5 1193.9,1545.1 1167.5,1549.5 1141.1,1553.9 1114.8,1558.3 1088.5,1562.5 1062.2,1566.8 1035.9,1570.9 1009.7,1575.0 983.5,1579.0  A 522.500,522.500 0.00 0,1 981.0,1559.9 L 981.0,1559.9 1007.0,1556.9 1033.2,1553.7 1059.4,1550.5 1085.7,1547.1 1112.0,1543.6 1138.4,1540.1 1164.8,1536.4 1191.2,1532.5 1217.6,1528.6 1244.1,1524.5 1270.6,1520.4 1297.1,1516.1 1323.7,1511.6 1350.2,1507.1 1376.7,1502.4 1403.2,1497.6 1429.7,1492.6 1456.2,1487.5 1482.7,1482.3 1509.1,1477.0 1535.6,1471.6 1561.9,1466.0 1588.3,1460.3 1614.6,1454.5 1640.9,1448.5 1667.1,1442.5 1693.3,1436.3 1719.4,1430.0 1745.4,1423.6 1771.4,1417.1 1797.3,1410.5 1823.2,1403.8 1849.0,1397.0 1874.6,1390.1 1900.3,1383.1 1925.8,1376.0 1951.2,1368.9 1976.6,1361.7 2001.8,1354.4  Z" style="stroke-width: 0.5;  stroke: rgb(0,0,0); fill: rgb(179,177,178);" />
<path d="M 1998.028,1341.966 A 522.500,522.500 0.00 0,1 2001.8,1354.4 L 2001.8,1354.4 1976.7,1361.7 1951.4,1368.8 1926.1,1375.9 1900.6,1382.8 1875.0,1389.7 1849.4,1396.5 1823.6,1403.1 1797.7,1409.6 1771.8,1416.1 1745.8,1422.3 1719.7,1428.5 1693.5,1434.5 1667.3,1440.4 1641.0,1446.1 1614.6,1451.7 1588.2,1457.1 1561.8,1462.4 1535.3,1467.5 1508.7,1472.5 1482.2,1477.3 1455.6,1482.0 1429.0,1486.5 1402.4,1490.8 1375.7,1495.0 1349.1,1499.1 1322.5,1503.0 1295.8,1506.7 1269.2,1510.3 1242.6,1513.7 1216.0,1516.9 1189.5,1520.1 1163.0,1523.0 1136.6,1525.9 1110.1,1528.6 1083.8,1531.1 1057.5,1533.5 1031.3,1535.8 1005.1,1538.0 979.0,1540.1  A 522.500,522.500 0.00 0,1 978.2,1527.1 L 978.2,1527.1 1004.2,1525.7 1030.2,1524.1 1056.4,1522.4 1082.6,1520.6 1108.9,1518.5 1135.3,1516.3 1161.7,1514.0 1188.2,1511.4 1214.8,1508.7 1241.3,1505.8 1267.9,1502.8 1294.6,1499.5 1321.2,1496.0 1347.9,1492.4 1374.5,1488.5 1401.2,1484.5 1427.8,1480.2 1454.5,1475.8 1481.0,1471.2 1507.6,1466.4 1534.1,1461.3 1560.6,1456.1 1587.1,1450.7 1613.4,1445.2 1639.7,1439.4 1666.0,1433.4 1692.1,1427.3 1718.2,1421.0 1744.2,1414.6 1770.1,1407.9 1795.9,1401.1 1821.6,1394.2 1847.2,1387.1 1872.6,1379.9 1898.0,1372.5 1923.2,1365.1 1948.3,1357.5 1973.2,1349.8 1998.0,1342.0  Z" style="stroke-width: 0.5;  stroke: rgb(0,0,0); fill: rgb(179,177,178);" />
<path d="M 1929.473,1202.410 A 522.500,522.500 0.00 0,1 1935.8,1211.8 L 1935.8,1211.8 1915.5,1225.0 1894.7,1238.0 1873.6,1250.8 1852.1,1263.2 1830.2,1275.4 1808.0,1287.2 1785.5,1298.6 1762.6,1309.6 1739.5,1320.1 1716.0,1330.2 1692.3,1339.8 1668.3,1348.9 1644.1,1357.5 1619.7,1365.6 1595.0,1373.0 1570.2,1380.0 1545.2,1386.3 1520.0,1392.1 1494.7,1397.2 1469.3,1401.8 1443.8,1405.7 1418.2,1409.1 1392.5,1411.8 1366.8,1414.0 1341.1,1415.5 1315.4,1416.5 1289.7,1416.8 1264.0,1416.6 1238.5,1415.8 1213.0,1414.5 1187.6,1412.7 1162.3,1410.3 1137.2,1407.5 1112.3,1404.1 1087.6,1400.3 1063.1,1396.1 1038.8,1391.5 1014.9,1386.5 991.2,1381.2  A 522.500,522.500 0.00 0,1 993.9,1370.2 L 993.9,1370.2 1017.3,1376.0 1041.0,1381.4 1065.1,1386.5 1089.4,1391.1 1113.9,1395.4 1138.6,1399.1 1163.5,1402.4 1188.6,1405.1 1213.8,1407.3 1239.1,1408.9 1264.5,1410.0 1290.0,1410.4 1315.5,1410.3 1341.1,1409.6 1366.6,1408.2 1392.2,1406.2 1417.7,1403.6 1443.1,1400.3 1468.4,1396.5 1493.6,1391.9 1518.8,1386.8 1543.7,1381.0 1568.5,1374.6 1593.2,1367.6 1617.6,1360.0 1641.8,1351.8 1665.8,1343.1 1689.5,1333.8 1713.0,1323.9 1736.2,1313.6 1759.0,1302.8 1781.6,1291.5 1803.8,1279.8 1825.7,1267.7 1847.2,1255.3 1868.4,1242.5 1889.2,1229.4 1909.5,1216.0 1929.5,1202.4  Z" style="stroke-width: 0.5;  stroke: rgb(0,0,0); fill: rgb(179,177,178);" />
<path d="M 2021.174,1462.800 A 522.500,522.500 0.00 0,1 2021.8,1473.7 L 2021.8,1473.7 1995.5,1475.1 1969.1,1476.5 1942.7,1478.0 1916.2,1479.6 1889.6,1481.3 1863.0,1483.1 1836.4,1485.0 1809.8,1486.9 1783.1,1489.0 1756.3,1491.1 1729.6,1493.4 1702.9,1495.7 1676.1,1498.2 1649.3,1500.7 1622.5,1503.4 1595.7,1506.2 1568.9,1509.0 1542.1,1512.0 1515.4,1515.1 1488.6,1518.2 1461.8,1521.5 1435.1,1524.9 1408.4,1528.4 1381.7,1532.0 1355.0,1535.7 1328.4,1539.5 1301.8,1543.4 1275.2,1547.3 1248.7,1551.4 1222.2,1555.6 1195.8,1559.8 1169.4,1564.2 1143.1,1568.6 1116.8,1573.1 1090.6,1577.7 1064.5,1582.3 1038.4,1587.0 1012.4,1591.8 986.5,1596.7  A 522.500,522.500 0.00 0,1 984.6,1585.9 L 984.6,1585.9 1010.8,1581.6 1037.0,1577.3 1063.2,1573.0 1089.5,1568.8 1115.8,1564.7 1142.2,1560.6 1168.6,1556.6 1195.1,1552.6 1221.6,1548.7 1248.1,1544.8 1274.7,1541.0 1301.3,1537.3 1327.9,1533.6 1354.5,1530.0 1381.2,1526.5 1407.9,1523.0 1434.6,1519.6 1461.3,1516.3 1488.0,1513.1 1514.7,1509.9 1541.5,1506.8 1568.2,1503.8 1595.0,1500.8 1621.7,1497.9 1648.5,1495.1 1675.2,1492.4 1701.9,1489.7 1728.7,1487.1 1755.4,1484.6 1782.1,1482.1 1808.7,1479.7 1835.4,1477.4 1862.0,1475.1 1888.6,1472.9 1915.2,1470.8 1941.8,1468.7 1968.3,1466.7 1994.7,1464.7 2021.2,1462.8  Z" style="stroke-width: 0.5;  stroke: rgb(0,0,0); fill: rgb(179,177,178);" />
<path d="M 2010.437,1611.624 A 522.500,522.500 0.00 0,1 2008.9,1618.5 L 2008.9,1618.5 1984.5,1612.9 1959.9,1607.6 1935.0,1602.6 1909.9,1597.9 1884.6,1593.4 1859.1,1589.3 1833.4,1585.6 1807.6,1582.1 1781.6,1579.1 1755.5,1576.4 1729.3,1574.1 1703.0,1572.2 1676.6,1570.7 1650.1,1569.6 1623.6,1568.9 1597.1,1568.7 1570.5,1568.9 1543.9,1569.5 1517.3,1570.6 1490.7,1572.1 1464.2,1574.0 1437.7,1576.3 1411.2,1579.1 1384.9,1582.3 1358.6,1585.9 1332.4,1590.0 1306.3,1594.4 1280.4,1599.2 1254.6,1604.5 1229.0,1610.0 1203.5,1616.0 1178.2,1622.3 1153.2,1628.9 1128.3,1635.8 1103.6,1643.1 1079.2,1650.6 1055.1,1658.4 1031.2,1666.4 1007.5,1674.6  A 522.500,522.500 0.00 0,1 1005.2,1668.0 L 1005.2,1668.0 1029.0,1660.0 1053.1,1652.3 1077.4,1644.8 1102.0,1637.5 1126.8,1630.6 1151.8,1623.9 1177.0,1617.5 1202.4,1611.4 1228.0,1605.6 1253.7,1600.2 1279.6,1595.2 1305.6,1590.5 1331.8,1586.2 1358.0,1582.3 1384.4,1578.7 1410.8,1575.6 1437.3,1572.9 1463.9,1570.6 1490.5,1568.7 1517.1,1567.2 1543.8,1566.1 1570.4,1565.4 1597.1,1565.2 1623.7,1565.3 1650.3,1565.9 1676.8,1566.9 1703.3,1568.2 1729.7,1570.0 1755.9,1572.1 1782.1,1574.6 1808.2,1577.4 1834.1,1580.6 1859.9,1584.2 1885.5,1588.0 1910.9,1592.2 1936.1,1596.7 1961.1,1601.4 1985.9,1606.4 2010.4,1611.6  Z" style="stroke-width: 0.5;  stroke: rgb(0,0,0); fill: rgb(179,177,178);" />
<path d="M 1974.042,1280.249 A 522.500,522.500 0.00 0,1 1976.9,1286.6 L 1976.9,1286.6 1953.8,1296.8 1930.4,1306.8 1906.8,1316.7 1882.9,1326.4 1858.8,1335.8 1834.5,1345.0 1809.9,1354.0 1785.2,1362.7 1760.2,1371.1 1735.1,1379.3 1709.8,1387.1 1684.3,1394.6 1658.7,1401.8 1632.9,1408.7 1607.0,1415.2 1581.0,1421.4 1554.9,1427.2 1528.7,1432.7 1502.4,1437.8 1476.1,1442.5 1449.6,1446.9 1423.1,1450.9 1396.6,1454.5 1370.1,1457.8 1343.6,1460.7 1317.0,1463.2 1290.5,1465.4 1264.0,1467.3 1237.6,1468.7 1211.2,1469.9 1184.9,1470.7 1158.6,1471.1 1132.5,1471.3 1106.5,1471.1 1080.6,1470.7 1054.8,1469.9 1029.2,1468.9 1003.8,1467.6 978.6,1466.1  A 522.500,522.500 0.00 0,1 979.1,1459.2 L 979.1,1459.2 1004.2,1461.0 1029.5,1462.6 1055.1,1463.9 1080.7,1465.0 1106.5,1465.7 1132.5,1466.1 1158.6,1466.2 1184.8,1466.0 1211.0,1465.4 1237.4,1464.5 1263.8,1463.2 1290.2,1461.5 1316.7,1459.5 1343.2,1457.0 1369.7,1454.2 1396.2,1451.1 1422.7,1447.5 1449.1,1443.5 1475.5,1439.2 1501.8,1434.5 1528.0,1429.3 1554.2,1423.8 1580.2,1418.0 1606.2,1411.7 1632.0,1405.1 1657.7,1398.1 1683.2,1390.8 1708.6,1383.2 1733.8,1375.2 1758.8,1366.9 1783.6,1358.3 1808.3,1349.4 1832.7,1340.2 1856.8,1330.8 1880.8,1321.1 1904.5,1311.2 1927.9,1301.0 1951.1,1290.7 1974.0,1280.2  Z" style="stroke-width: 0.5;  stroke: rgb(0,0,0); fill: rgb(179,177,178);" />
</g>
<g id="plot0">
<g id="plot0-axis">
</g>
<line x1='2243.8' y1='1596.6' x2='2243.8' y2='1596.6' style="stroke-width:14.0;stroke:rgb(0,0,0);stroke-linecap:round;fill:none;" />
<line x1='2243.8' y1='1596.6' x2='2283.4' y2='1601.8' style="stroke-width:14.0;stroke:rgb(0,0,0);stroke-linecap:round;fill:none;" />
<line x1='2283.4' y1='1601.8' x2='2283.4' y2='1601.8' style="stroke-width:14.0;stroke:rgb(0,0,0);stroke-linecap:round;fill:none;" />
<text x="2300.0" y="1626.6" font-size="46.8px" font-family="CMUBright-Roman" style="text-anchor:start;fill:rgb(255,38,78);" transform="rotate(7.4,2300.0,1626.6)" >HistocapCB064<tspan baseline-shift="-40%" font-size="90%">s</tspan>00168</text>
</g>
<defs>
<pattern id="hline-sparse" width="10" height="10" patternTransform="rotate(0 0 0)" patternUnits="userSpaceOnUse"><line x1="0" y1="0" x2="10" y2="0" style="stroke:black;stroke-width:2" /></pattern>
<pattern id="checker" width="10" height="10" patternTransform="rotate(45 0 0)" patternUnits="userSpaceOnUse"><line x1="0" y1="0" x2="10" y2="0" style="stroke:black;stroke-width:2" /><line x1="0" y1="0" x2="0" y2="10" style="stroke:black;stroke-width:2" /></pattern>
<pattern id="hline" width="10" height="10" patternTransform="rotate(0 0 0)" patternUnits="userSpaceOnUse"><line x1="0" y1="0" x2="10" y2="0" style="stroke:black;stroke-width:5" /></pattern>
<pattern id="vline" width="10" height="10" patternTransform="rotate(0 0 0)" patternUnits="userSpaceOnUse"><line x1="0" y1="0" x2="0" y2="10" style="stroke:black;stroke-width:5" /></pattern>
<pattern id="vline-sparse" width="10" height="10" patternTransform="rotate(0 0 0)" patternUnits="userSpaceOnUse"><line x1="0" y1="0" x2="0" y2="10" style="stroke:black;stroke-width:2" /></pattern>
<pattern id="checker" width="10" height="10" patternTransform="rotate(45 0 0)" patternUnits="userSpaceOnUse"><line x1="0" y1="0" x2="10" y2="0" style="stroke:black;stroke-width:5" /><line x1="0" y1="0" x2="0" y2="10" style="stroke:black;stroke-width:4" /></pattern>
</defs>
</svg>
