<?xml version="1.0" encoding="utf-8" standalone="no"?>
<!DOCTYPE svg PUBLIC "-//W3C//DTD SVG 1.1//EN" "http://www.w3.org/Graphics/SVG/1.1/DTD/svg11.dtd">
<svg width="3000px" height="3000px" version="1.1" xmlns="http://www.w3.org/2000/svg" xmlns:xlink="http://www.w3.org/1999/xlink">
<g id="bg">
<rect x="0" y="0" width="3000px" height="3000px" style="fill:rgb(255,255,255);"/>
</g>
<g id="ideograms">
<path d="M1500.000,950.000 A550.000,550.000 40.000 0,1 1686.878,2017.278 L1754.833,2205.379 A750.000,750.000 0.000 0,0 1500.000,750.000 Z" style="stroke-width:2.0;stroke:rgb(0,0,0);stroke-linecap:round;fill:rgb(179,177,178);" />
<text x="2460.4" y="1331.8" font-size="46.8px" font-family="CMUBright-Roman" style="text-anchor:middle;fill:rgb(0,0,0);" transform="rotate(440.1,2460.4,1331.8)" >HistocapCB062<tspan baseline-shift="-40%" font-size="90%">2</tspan></text>
<line x1='1584.0' y1='754.7' x2='1585.3' y2='742.8' style="stroke-width:8.0;stroke:rgb(150,150,150);stroke-linecap:round;fill:none;" />
<line x1='1682.9' y1='772.6' x2='1685.8' y2='761.0' style="stroke-width:8.0;stroke:rgb(150,150,150);stroke-linecap:round;fill:none;" />
<line x1='1778.5' y1='803.6' x2='1782.9' y2='792.5' style="stroke-width:8.0;stroke:rgb(150,150,150);stroke-linecap:round;fill:none;" />
<line x1='1869.1' y1='847.1' x2='1875.0' y2='836.7' style="stroke-width:8.0;stroke:rgb(150,150,150);stroke-linecap:round;fill:none;" />
<line x1='1953.1' y1='902.3' x2='1960.3' y2='892.7' style="stroke-width:8.0;stroke:rgb(150,150,150);stroke-linecap:round;fill:none;" />
<text x="1978.6" y="891.7" font-size="41.6px" font-family="CMUBright-Roman" style="text-anchor:start;fill:rgb(150,150,150);" transform="rotate(307.2,1978.6,891.7)" >2300 kb</text>
<line x1='2028.9' y1='968.3' x2='2037.4' y2='959.8' style="stroke-width:8.0;stroke:rgb(150,150,150);stroke-linecap:round;fill:none;" />
<line x1='2095.3' y1='1043.8' x2='2104.8' y2='1036.5' style="stroke-width:8.0;stroke:rgb(150,150,150);stroke-linecap:round;fill:none;" />
<line x1='2150.9' y1='1127.4' x2='2161.3' y2='1121.5' style="stroke-width:8.0;stroke:rgb(150,150,150);stroke-linecap:round;fill:none;" />
<line x1='2194.9' y1='1217.8' x2='2206.0' y2='1213.3' style="stroke-width:8.0;stroke:rgb(150,150,150);stroke-linecap:round;fill:none;" />
<line x1='2226.4' y1='1313.3' x2='2238.0' y2='1310.3' style="stroke-width:8.0;stroke:rgb(150,150,150);stroke-linecap:round;fill:none;" />
<text x="2253.0" y="1320.9" font-size="41.6px" font-family="CMUBright-Roman" style="text-anchor:start;fill:rgb(150,150,150);" transform="rotate(345.6,2253.0,1320.9)" >2350 kb</text>
<line x1='2244.8' y1='1412.1' x2='2256.7' y2='1410.7' style="stroke-width:8.0;stroke:rgb(150,150,150);stroke-linecap:round;fill:none;" />
<line x1='2249.9' y1='1512.5' x2='2261.9' y2='1512.7' style="stroke-width:8.0;stroke:rgb(150,150,150);stroke-linecap:round;fill:none;" />
<line x1='2241.5' y1='1612.6' x2='2253.4' y2='1614.4' style="stroke-width:8.0;stroke:rgb(150,150,150);stroke-linecap:round;fill:none;" />
<line x1='2219.8' y1='1710.7' x2='2231.3' y2='1714.1' style="stroke-width:8.0;stroke:rgb(150,150,150);stroke-linecap:round;fill:none;" />
<line x1='2185.1' y1='1805.1' x2='2196.1' y2='1810.0' style="stroke-width:8.0;stroke:rgb(150,150,150);stroke-linecap:round;fill:none;" />
<text x="2201.3" y="1827.6" font-size="41.6px" font-family="CMUBright-Roman" style="text-anchor:start;fill:rgb(150,150,150);" transform="rotate(24.0,2201.3,1827.6)" >2400 kb</text>
<line x1='2138.2' y1='1894.0' x2='2148.4' y2='1900.3' style="stroke-width:8.0;stroke:rgb(150,150,150);stroke-linecap:round;fill:none;" />
<line x1='2079.8' y1='1975.8' x2='2089.1' y2='1983.4' style="stroke-width:8.0;stroke:rgb(150,150,150);stroke-linecap:round;fill:none;" />
<line x1='2011.0' y1='2049.0' x2='2019.1' y2='2057.8' style="stroke-width:8.0;stroke:rgb(150,150,150);stroke-linecap:round;fill:none;" />
<line x1='1933.0' y1='2112.4' x2='1939.9' y2='2122.2' style="stroke-width:8.0;stroke:rgb(150,150,150);stroke-linecap:round;fill:none;" />
<line x1='1847.2' y1='2164.8' x2='1852.7' y2='2175.4' style="stroke-width:8.0;stroke:rgb(150,150,150);stroke-linecap:round;fill:none;" />
<text x="1845.8" y="2192.4" font-size="41.6px" font-family="CMUBright-Roman" style="text-anchor:start;fill:rgb(150,150,150);" transform="rotate(62.4,1845.8,2192.4)" >2450 kb</text>
<line x1='1755.2' y1='2205.3' x2='1759.3' y2='2216.5' style="stroke-width:8.0;stroke:rgb(150,150,150);stroke-linecap:round;fill:none;" />
<g id="highlighttrack_0">
<path d="M2035.557,1374.787 A550.000,550.000 40.000 0,1 2046.239,1435.793 L2244.872,1412.445 A750.000,750.000 0.000 0,0 2230.306,1329.255 Z" style="stroke-width:14.0;stroke:rgb(0,0,0);stroke-linecap:round;fill:rgb(255,38,78);" />
</g>
<path d="M1500.000,950.000 A550.000,550.000 40.000 0,1 1686.878,2017.278 L1754.833,2205.379 A750.000,750.000 0.000 0,0 1500.000,750.000 Z" style="stroke-width:2.0;stroke:rgb(0,0,0);stroke-linecap:round;fill:none;" />
<path d="M1469.405,2049.148 A550.000,550.000 40.000 0,1 1284.637,993.918 L1206.323,809.889 A750.000,750.000 0.000 0,0 1458.279,2248.839 Z" style="stroke-width:2.0;stroke:rgb(0,0,0);stroke-linecap:round;fill:rgb(179,177,178);" />
<text x="495.3" y="1675.9" font-size="46.8px" font-family="CMUBright-Roman" style="text-anchor:middle;fill:rgb(0,0,0);" transform="rotate(80.1,495.3,1675.9)" >HistocapCB065<tspan baseline-shift="-40%" font-size="90%">2</tspan></text>
<line x1='1118.0' y1='854.6' x2='1111.9' y2='844.3' style="stroke-width:8.0;stroke:rgb(150,150,150);stroke-linecap:round;fill:none;" />
<text x="1093.8" y="841.2" font-size="41.6px" font-family="CMUBright-Roman" style="text-anchor:end;fill:rgb(150,150,150);" transform="rotate(59.4,1093.8,841.2)" >2250 kb</text>
<line x1='1035.1' y1='911.5' x2='1027.7' y2='902.0' style="stroke-width:8.0;stroke:rgb(150,150,150);stroke-linecap:round;fill:none;" />
<line x1='960.6' y1='978.9' x2='952.0' y2='970.6' style="stroke-width:8.0;stroke:rgb(150,150,150);stroke-linecap:round;fill:none;" />
<line x1='895.8' y1='1055.7' x2='886.1' y2='1048.6' style="stroke-width:8.0;stroke:rgb(150,150,150);stroke-linecap:round;fill:none;" />
<line x1='841.8' y1='1140.5' x2='831.2' y2='1134.7' style="stroke-width:8.0;stroke:rgb(150,150,150);stroke-linecap:round;fill:none;" />
<line x1='799.6' y1='1231.7' x2='788.4' y2='1227.4' style="stroke-width:8.0;stroke:rgb(150,150,150);stroke-linecap:round;fill:none;" />
<text x="772.3" y="1236.3" font-size="41.6px" font-family="CMUBright-Roman" style="text-anchor:end;fill:rgb(150,150,150);" transform="rotate(21.0,772.3,1236.3)" >2300 kb</text>
<line x1='770.0' y1='1327.8' x2='758.4' y2='1325.0' style="stroke-width:8.0;stroke:rgb(150,150,150);stroke-linecap:round;fill:none;" />
<line x1='753.6' y1='1426.9' x2='741.6' y2='1425.8' style="stroke-width:8.0;stroke:rgb(150,150,150);stroke-linecap:round;fill:none;" />
<line x1='750.5' y1='1527.4' x2='738.5' y2='1527.8' style="stroke-width:8.0;stroke:rgb(150,150,150);stroke-linecap:round;fill:none;" />
<line x1='760.9' y1='1627.4' x2='749.1' y2='1629.4' style="stroke-width:8.0;stroke:rgb(150,150,150);stroke-linecap:round;fill:none;" />
<line x1='784.6' y1='1725.1' x2='773.1' y2='1728.7' style="stroke-width:8.0;stroke:rgb(150,150,150);stroke-linecap:round;fill:none;" />
<text x="766.0" y="1745.6" font-size="41.6px" font-family="CMUBright-Roman" style="text-anchor:end;fill:rgb(150,150,150);" transform="rotate(-17.5,766.0,1745.6)" >2350 kb</text>
<line x1='821.1' y1='1818.7' x2='810.2' y2='1823.8' style="stroke-width:8.0;stroke:rgb(150,150,150);stroke-linecap:round;fill:none;" />
<line x1='869.8' y1='1906.6' x2='859.7' y2='1913.1' style="stroke-width:8.0;stroke:rgb(150,150,150);stroke-linecap:round;fill:none;" />
<line x1='929.8' y1='1987.2' x2='920.7' y2='1995.0' style="stroke-width:8.0;stroke:rgb(150,150,150);stroke-linecap:round;fill:none;" />
<line x1='1000.1' y1='2059.1' x2='992.1' y2='2068.0' style="stroke-width:8.0;stroke:rgb(150,150,150);stroke-linecap:round;fill:none;" />
<line x1='1079.3' y1='2120.9' x2='1072.6' y2='2130.8' style="stroke-width:8.0;stroke:rgb(150,150,150);stroke-linecap:round;fill:none;" />
<text x="1077.5" y="2148.5" font-size="41.6px" font-family="CMUBright-Roman" style="text-anchor:end;fill:rgb(150,150,150);" transform="rotate(-55.9,1077.5,2148.5)" >2400 kb</text>
<line x1='1166.1' y1='2171.6' x2='1160.8' y2='2182.3' style="stroke-width:8.0;stroke:rgb(150,150,150);stroke-linecap:round;fill:none;" />
<line x1='1258.9' y1='2210.2' x2='1255.1' y2='2221.6' style="stroke-width:8.0;stroke:rgb(150,150,150);stroke-linecap:round;fill:none;" />
<line x1='1356.0' y1='2236.1' x2='1353.7' y2='2247.8' style="stroke-width:8.0;stroke:rgb(150,150,150);stroke-linecap:round;fill:none;" />
<line x1='1455.8' y1='2248.7' x2='1455.1' y2='2260.7' style="stroke-width:8.0;stroke:rgb(150,150,150);stroke-linecap:round;fill:none;" />
<path d="M1469.405,2049.148 A550.000,550.000 40.000 0,1 1284.637,993.918 L1206.323,809.889 A750.000,750.000 0.000 0,0 1458.279,2248.839 Z" style="stroke-width:2.0;stroke:rgb(0,0,0);stroke-linecap:round;fill:none;" />
</g>
<g id="track_0">
<path d="M 1981.918,1701.893 A 522.500,522.500 0.00 0,1 1929.4,1797.6 L 1929.4,1797.6 1911.0,1785.1 1892.0,1773.0 1872.7,1761.4 1853.0,1750.2 1833.0,1739.7 1812.7,1729.7 1792.2,1720.5 1771.4,1712.1 1750.5,1704.4 1729.3,1697.6 1708.1,1691.7 1686.8,1686.7 1665.4,1682.7 1644.0,1679.6 1622.6,1677.6 1601.2,1676.5 1579.9,1676.5 1558.7,1677.6 1537.6,1679.7 1516.7,1682.8 1495.9,1687.0 1475.3,1692.2 1454.9,1698.4 1434.8,1705.7 1414.9,1713.9 1395.3,1723.1 1376.1,1733.2 1357.2,1744.3 1338.6,1756.1 1320.4,1768.8 1302.6,1782.3 1285.2,1796.4 1268.3,1811.3 1251.8,1826.7 1235.7,1842.6 1220.2,1859.1 1205.1,1875.9 1190.6,1893.0 1176.6,1910.4  A 522.500,522.500 0.00 0,1 1098.3,1834.2 L 1098.3,1834.2 1116.5,1819.4 1135.2,1804.8 1154.3,1790.5 1173.8,1776.6 1193.8,1763.1 1214.2,1750.0 1234.9,1737.4 1256.1,1725.4 1277.6,1713.9 1299.5,1703.0 1321.6,1692.7 1344.1,1683.1 1366.8,1674.2 1389.8,1666.0 1413.1,1658.5 1436.6,1651.8 1460.2,1645.8 1484.1,1640.6 1508.1,1636.2 1532.2,1632.6 1556.4,1629.8 1580.7,1627.8 1605.1,1626.6 1629.5,1626.1 1653.9,1626.4 1678.3,1627.6 1702.7,1629.4 1727.0,1632.0 1751.2,1635.3 1775.3,1639.4 1799.2,1644.0 1823.0,1649.4 1846.5,1655.3 1869.8,1661.9 1892.9,1668.9 1915.7,1676.5 1938.1,1684.6 1960.2,1693.1 1981.9,1701.9  Z" style="stroke-width: 0.5;  stroke: rgb(0,0,0); fill: rgb(179,177,178);" />
<path d="M 1769.052,1052.097 A 522.500,522.500 0.00 0,1 1849.7,1111.8 L 1849.7,1111.8 1834.3,1128.6 1818.3,1145.1 1801.9,1161.3 1784.9,1177.2 1767.5,1192.6 1749.6,1207.5 1731.2,1221.9 1712.5,1235.7 1693.3,1248.9 1673.7,1261.3 1653.7,1273.1 1633.4,1284.1 1612.8,1294.2 1591.8,1303.5 1570.5,1312.0 1549.0,1319.6 1527.2,1326.3 1505.2,1332.1 1483.0,1336.9 1460.6,1340.8 1438.1,1343.8 1415.5,1345.8 1392.7,1346.9 1369.9,1347.1 1347.0,1346.3 1324.1,1344.7 1301.2,1342.1 1278.4,1338.7 1255.7,1334.4 1233.0,1329.3 1210.5,1323.5 1188.1,1316.9 1166.0,1309.5 1144.1,1301.6 1122.5,1293.0 1101.1,1283.8 1080.1,1274.1 1059.5,1264.0 1039.3,1253.5  A 522.500,522.500 0.00 0,1 1095.0,1169.9 L 1095.0,1169.9 1112.0,1183.5 1129.5,1196.7 1147.4,1209.5 1165.7,1221.7 1184.2,1233.3 1203.0,1244.2 1222.0,1254.4 1241.2,1263.8 1260.6,1272.3 1280.1,1279.8 1299.7,1286.5 1319.3,1292.1 1338.9,1296.6 1358.6,1300.1 1378.2,1302.5 1397.7,1303.8 1417.1,1304.0 1436.3,1303.0 1455.4,1300.8 1474.3,1297.5 1493.1,1293.0 1511.5,1287.4 1529.7,1280.7 1547.6,1272.9 1565.2,1264.0 1582.5,1254.1 1599.4,1243.1 1616.0,1231.2 1632.2,1218.3 1647.9,1204.6 1663.3,1190.0 1678.2,1174.7 1692.6,1158.6 1706.6,1142.0 1720.1,1124.8 1733.1,1107.1 1745.6,1089.0 1757.6,1070.7 1769.1,1052.1  Z" style="stroke-width: 0.5;  stroke: rgb(0,0,0); fill: rgb(179,177,178);" />
<path d="M 1978.277,1289.627 A 522.500,522.500 0.00 0,1 2008.8,1381.0 L 2008.8,1381.0 1982.9,1387.1 1956.9,1393.1 1930.9,1399.1 1904.9,1405.1 1878.8,1411.0 1852.8,1416.9 1826.7,1422.8 1800.5,1428.6 1774.4,1434.5 1748.2,1440.2 1722.0,1446.0 1695.8,1451.7 1669.5,1457.3 1643.3,1463.0 1617.0,1468.5 1590.7,1474.1 1564.4,1479.6 1538.1,1485.0 1511.8,1490.4 1485.4,1495.8 1459.1,1501.1 1432.7,1506.4 1406.4,1511.7 1380.0,1516.9 1353.7,1522.0 1327.3,1527.1 1300.9,1532.2 1274.6,1537.2 1248.2,1542.2 1221.9,1547.1 1195.5,1552.0 1169.2,1556.9 1142.9,1561.7 1116.6,1566.5 1090.3,1571.2 1064.0,1575.9 1037.7,1580.6 1011.5,1585.2 985.3,1589.8  A 522.500,522.500 0.00 0,1 977.5,1493.7 L 977.5,1493.7 1003.0,1493.9 1028.6,1493.9 1054.4,1493.6 1080.3,1493.1 1106.3,1492.3 1132.4,1491.3 1158.7,1490.0 1185.0,1488.4 1211.3,1486.5 1237.8,1484.3 1264.2,1481.8 1290.7,1479.0 1317.3,1475.9 1343.8,1472.4 1370.3,1468.7 1396.8,1464.6 1423.3,1460.2 1449.8,1455.5 1476.2,1450.4 1502.5,1445.1 1528.8,1439.4 1555.0,1433.4 1581.1,1427.0 1607.1,1420.4 1632.9,1413.5 1658.7,1406.3 1684.3,1398.7 1709.8,1390.9 1735.1,1382.9 1760.3,1374.5 1785.3,1366.0 1810.2,1357.1 1834.8,1348.1 1859.3,1338.8 1883.5,1329.3 1907.5,1319.6 1931.3,1309.8 1954.9,1299.8 1978.3,1289.6  Z" style="stroke-width: 0.5;  stroke: rgb(0,0,0); fill: rgb(179,177,178);" />
<path d="M 2015.912,1582.712 A 522.500,522.500 0.00 0,1 1993.0,1673.0 L 1993.0,1673.0 1970.5,1665.3 1947.7,1658.0 1924.5,1651.1 1901.0,1644.6 1877.2,1638.7 1853.2,1633.2 1829.0,1628.2 1804.6,1623.9 1780.0,1620.1 1755.3,1616.9 1730.5,1614.4 1705.6,1612.5 1680.6,1611.3 1655.6,1610.8 1630.5,1611.0 1605.5,1611.9 1580.5,1613.5 1555.6,1615.8 1530.7,1618.8 1505.9,1622.6 1481.3,1627.1 1456.8,1632.3 1432.4,1638.1 1408.3,1644.7 1384.3,1652.0 1360.6,1659.9 1337.1,1668.4 1313.8,1677.6 1290.9,1687.4 1268.2,1697.7 1245.9,1708.6 1223.8,1720.1 1202.2,1732.0 1180.9,1744.3 1160.0,1757.1 1139.5,1770.2 1119.4,1783.7 1099.7,1797.5 1080.5,1811.5  A 522.500,522.500 0.00 0,1 1031.8,1732.0 L 1031.8,1732.0 1054.2,1721.1 1076.8,1710.4 1099.8,1699.9 1123.1,1689.7 1146.6,1679.8 1170.4,1670.1 1194.5,1660.7 1218.8,1651.7 1243.3,1643.1 1268.1,1634.8 1293.1,1626.8 1318.2,1619.3 1343.6,1612.2 1369.1,1605.6 1394.7,1599.3 1420.5,1593.5 1446.4,1588.1 1472.4,1583.3 1498.6,1578.8 1524.8,1574.8 1551.0,1571.3 1577.3,1568.3 1603.6,1565.7 1630.0,1563.6 1656.4,1562.0 1682.7,1560.8 1709.0,1560.0 1735.2,1559.8 1761.4,1559.9 1787.5,1560.5 1813.6,1561.5 1839.4,1562.9 1865.2,1564.7 1890.8,1566.8 1916.2,1569.4 1941.5,1572.2 1966.5,1575.4 1991.3,1578.9 2015.9,1582.7  Z" style="stroke-width: 0.5;  stroke: rgb(0,0,0); fill: rgb(179,177,178);" />
<path d="M 1928.630,1798.802 A 522.500,522.500 0.00 0,1 1879.4,1859.2 L 1879.4,1859.2 1863.6,1844.6 1847.3,1830.3 1830.6,1816.4 1813.6,1803.0 1796.2,1790.3 1778.6,1778.2 1760.8,1766.9 1742.7,1756.5 1724.5,1746.9 1706.2,1738.2 1687.7,1730.6 1669.2,1724.0 1650.7,1718.5 1632.1,1714.1 1613.6,1710.8 1595.1,1708.7 1576.8,1707.7 1558.5,1708.0 1540.4,1709.5 1522.4,1712.2 1504.7,1716.0 1487.1,1721.1 1469.8,1727.3 1452.8,1734.7 1436.0,1743.3 1419.5,1752.9 1403.4,1763.6 1387.6,1775.3 1372.2,1788.0 1357.2,1801.6 1342.6,1816.1 1328.4,1831.4 1314.6,1847.4 1301.2,1864.0 1288.4,1881.3 1276.0,1899.0 1264.1,1917.2 1252.7,1935.6 1241.8,1954.2  A 522.500,522.500 0.00 0,1 1177.5,1911.1 L 1177.5,1911.1 1191.5,1893.7 1206.0,1876.6 1221.0,1859.7 1236.5,1843.3 1252.5,1827.3 1268.9,1811.9 1285.8,1797.0 1303.2,1782.8 1320.9,1769.4 1339.1,1756.7 1357.6,1744.8 1376.5,1733.7 1395.7,1723.6 1415.2,1714.4 1435.0,1706.2 1455.1,1698.9 1475.4,1692.7 1496.0,1687.5 1516.7,1683.3 1537.6,1680.2 1558.7,1678.1 1579.9,1677.1 1601.1,1677.1 1622.4,1678.2 1643.8,1680.2 1665.2,1683.3 1686.5,1687.4 1707.8,1692.4 1729.0,1698.4 1750.0,1705.2 1770.9,1712.9 1791.7,1721.4 1812.2,1730.7 1832.4,1740.6 1852.4,1751.2 1872.0,1762.4 1891.3,1774.1 1910.2,1786.3 1928.6,1798.8  Z" style="stroke-width: 0.5;  stroke: rgb(0,0,0); fill: rgb(179,177,178);" />
<path d="M 2018.927,1439.004 A 522.500,522.500 0.00 0,1 2022.5,1494.4 L 2022.5,1494.4 1996.5,1494.8 1970.5,1495.3 1944.3,1495.9 1918.0,1496.7 1891.7,1497.7 1865.3,1498.9 1838.8,1500.2 1812.2,1501.7 1785.6,1503.4 1759.0,1505.3 1732.3,1507.3 1705.6,1509.6 1678.8,1512.1 1652.0,1514.8 1625.3,1517.6 1598.5,1520.7 1571.7,1524.0 1545.0,1527.5 1518.2,1531.2 1491.5,1535.1 1464.8,1539.3 1438.2,1543.6 1411.6,1548.1 1385.1,1552.8 1358.6,1557.8 1332.2,1562.9 1305.8,1568.2 1279.6,1573.7 1253.4,1579.3 1227.3,1585.2 1201.4,1591.2 1175.5,1597.4 1149.7,1603.7 1124.1,1610.2 1098.6,1616.8 1073.2,1623.6 1048.0,1630.4 1022.9,1637.5 997.9,1644.6  A 522.500,522.500 0.00 0,1 985.4,1590.5 L 985.4,1590.5 1011.6,1585.9 1037.9,1581.3 1064.1,1576.8 1090.5,1572.3 1116.8,1567.8 1143.2,1563.3 1169.5,1558.9 1196.0,1554.5 1222.4,1550.2 1248.9,1545.9 1275.3,1541.6 1301.8,1537.4 1328.3,1533.2 1354.9,1529.0 1381.4,1524.9 1408.0,1520.8 1434.6,1516.8 1461.1,1512.8 1487.7,1508.9 1514.3,1505.0 1540.9,1501.1 1567.5,1497.3 1594.1,1493.6 1620.7,1489.8 1647.3,1486.2 1674.0,1482.5 1700.6,1478.9 1727.2,1475.4 1753.7,1471.9 1780.3,1468.4 1806.9,1465.0 1833.5,1461.6 1860.0,1458.3 1886.5,1455.0 1913.1,1451.7 1939.6,1448.5 1966.0,1445.3 1992.5,1442.1 2018.9,1439.0  Z" style="stroke-width: 0.5;  stroke: rgb(0,0,0); fill: rgb(179,177,178);" />
<path d="M 1788.751,1935.464 A 522.500,522.500 0.00 0,1 1742.0,1963.1 L 1742.0,1963.1 1732.3,1944.9 1722.3,1927.0 1712.0,1909.4 1701.4,1892.3 1690.6,1875.8 1679.6,1860.0 1668.4,1845.0 1657.1,1830.9 1645.7,1817.8 1634.2,1805.7 1622.6,1794.8 1610.9,1785.0 1599.3,1776.5 1587.6,1769.2 1576.0,1763.3 1564.4,1758.8 1552.9,1755.6 1541.5,1753.8 1530.2,1753.5 1519.0,1754.6 1508.0,1757.1 1497.1,1761.0 1486.4,1766.3 1476.0,1773.0 1465.7,1781.1 1455.6,1790.4 1445.8,1801.0 1436.3,1812.8 1427.0,1825.8 1418.0,1839.9 1409.3,1855.0 1400.9,1871.0 1392.8,1887.8 1385.1,1905.4 1377.6,1923.7 1370.5,1942.5 1363.8,1961.7 1357.4,1981.2 1351.4,2000.9  A 522.500,522.500 0.00 0,1 1300.2,1982.8 L 1300.2,1982.8 1308.4,1963.5 1317.0,1944.5 1326.1,1925.8 1335.5,1907.5 1345.4,1889.7 1355.6,1872.5 1366.2,1856.1 1377.1,1840.5 1388.4,1825.8 1400.0,1812.1 1411.9,1799.4 1424.1,1787.8 1436.6,1777.4 1449.4,1768.2 1462.4,1760.2 1475.6,1753.5 1489.0,1748.1 1502.6,1744.1 1516.4,1741.4 1530.3,1740.0 1544.3,1740.1 1558.4,1741.4 1572.6,1744.1 1586.9,1748.2 1601.2,1753.5 1615.4,1760.1 1629.7,1767.9 1643.9,1777.0 1658.0,1787.1 1672.1,1798.4 1686.0,1810.6 1699.7,1823.8 1713.2,1837.9 1726.6,1852.8 1739.6,1868.3 1752.4,1884.5 1764.9,1901.1 1777.0,1918.2 1788.8,1935.5  Z" style="stroke-width: 0.5;  stroke: rgb(0,0,0); fill: rgb(179,177,178);" />
<path d="M 1860.657,1121.935 A 522.500,522.500 0.00 0,1 1896.4,1159.6 L 1896.4,1159.6 1878.4,1174.7 1860.0,1189.6 1841.1,1204.2 1821.7,1218.5 1801.9,1232.4 1781.7,1245.9 1761.1,1258.9 1740.1,1271.4 1718.7,1283.3 1697.0,1294.6 1674.9,1305.4 1652.6,1315.5 1629.9,1324.9 1607.0,1333.6 1583.8,1341.6 1560.4,1348.9 1536.8,1355.5 1512.9,1361.3 1489.0,1366.3 1464.8,1370.5 1440.5,1374.0 1416.2,1376.7 1391.7,1378.6 1367.2,1379.7 1342.7,1380.0 1318.2,1379.7 1293.7,1378.5 1269.2,1376.6 1244.8,1374.1 1220.5,1370.8 1196.4,1366.8 1172.4,1362.3 1148.6,1357.1 1125.0,1351.3 1101.6,1345.0 1078.6,1338.2 1055.8,1330.9 1033.4,1323.1 1011.3,1315.0  A 522.500,522.500 0.00 0,1 1032.1,1267.5 L 1032.1,1267.5 1052.7,1277.4 1073.8,1287.0 1095.2,1296.2 1117.0,1304.8 1139.1,1312.9 1161.4,1320.4 1183.9,1327.2 1206.7,1333.4 1229.6,1338.8 1252.7,1343.4 1275.8,1347.3 1299.1,1350.4 1322.4,1352.6 1345.7,1354.0 1369.0,1354.5 1392.2,1354.1 1415.4,1352.8 1438.5,1350.6 1461.4,1347.5 1484.3,1343.5 1506.9,1338.5 1529.4,1332.7 1551.6,1326.1 1573.6,1318.5 1595.3,1310.1 1616.8,1300.9 1637.9,1290.9 1658.7,1280.1 1679.2,1268.5 1699.3,1256.3 1719.0,1243.4 1738.3,1229.8 1757.1,1215.7 1775.6,1201.1 1793.6,1186.0 1811.1,1170.4 1828.1,1154.5 1844.6,1138.4 1860.7,1121.9  Z" style="stroke-width: 0.5;  stroke: rgb(0,0,0); fill: rgb(179,177,178);" />
<path d="M 1503.342,977.511 A 522.500,522.500 0.00 0,1 1552.3,980.1 L 1552.3,980.1 1550.1,1000.3 1547.7,1020.4 1545.0,1040.2 1542.0,1059.5 1538.7,1078.4 1535.1,1096.6 1531.2,1114.0 1527.0,1130.6 1522.5,1146.3 1517.7,1160.9 1512.6,1174.3 1507.2,1186.7 1501.5,1197.7 1495.5,1207.5 1489.2,1215.9 1482.7,1222.9 1475.8,1228.5 1468.7,1232.7 1461.3,1235.4 1453.7,1236.6 1445.9,1236.4 1437.8,1234.7 1429.5,1231.5 1421.1,1226.9 1412.5,1220.9 1403.7,1213.5 1394.8,1204.8 1385.8,1194.8 1376.7,1183.5 1367.6,1171.2 1358.4,1157.7 1349.3,1143.3 1340.1,1128.0 1331.0,1111.8 1322.0,1094.9 1313.0,1077.5 1304.3,1059.6 1295.7,1041.3 1287.3,1022.8  A 522.500,522.500 0.00 0,1 1295.4,1019.2 L 1295.4,1019.2 1303.4,1037.8 1311.6,1056.1 1319.9,1074.2 1328.3,1091.7 1336.7,1108.7 1345.1,1124.9 1353.5,1140.4 1361.9,1154.9 1370.2,1168.5 1378.4,1180.9 1386.4,1192.2 1394.3,1202.3 1402.1,1211.1 1409.6,1218.6 1416.9,1224.6 1424.0,1229.3 1430.8,1232.5 1437.4,1234.3 1443.6,1234.6 1449.6,1233.4 1455.3,1230.7 1460.7,1226.5 1465.7,1220.9 1470.5,1213.9 1474.9,1205.5 1478.9,1195.7 1482.7,1184.6 1486.1,1172.2 1489.1,1158.7 1491.9,1144.0 1494.3,1128.4 1496.4,1111.7 1498.2,1094.2 1499.8,1076.0 1501.0,1057.1 1501.9,1037.6 1502.6,1017.8 1503.1,997.7 1503.3,977.5  Z" style="stroke-width: 0.5;  stroke: rgb(0,0,0); fill: rgb(179,177,178);" />
<path d="M 2022.465,1506.009 A 522.500,522.500 0.00 0,1 2019.9,1552.1 L 2019.9,1552.1 1994.8,1549.8 1969.4,1547.6 1943.9,1545.7 1918.2,1544.1 1892.4,1542.7 1866.4,1541.7 1840.3,1541.0 1814.1,1540.6 1787.8,1540.5 1761.4,1540.7 1734.9,1541.3 1708.4,1542.3 1681.8,1543.6 1655.3,1545.3 1628.7,1547.4 1602.1,1549.8 1575.5,1552.6 1548.9,1555.8 1522.4,1559.4 1495.9,1563.3 1469.5,1567.6 1443.1,1572.3 1416.8,1577.3 1390.7,1582.8 1364.6,1588.5 1338.7,1594.6 1312.9,1601.1 1287.3,1607.9 1261.8,1615.0 1236.4,1622.4 1211.3,1630.2 1186.3,1638.2 1161.6,1646.5 1137.0,1655.0 1112.7,1663.8 1088.6,1672.8 1064.7,1682.1 1041.1,1691.5 1017.7,1701.1  A 522.500,522.500 0.00 0,1 1001.9,1657.7 L 1001.9,1657.7 1026.5,1650.0 1051.3,1642.4 1076.2,1635.0 1101.4,1627.7 1126.6,1620.5 1152.1,1613.5 1177.6,1606.7 1203.3,1600.1 1229.1,1593.7 1255.1,1587.4 1281.1,1581.4 1307.2,1575.6 1333.5,1570.0 1359.8,1564.6 1386.2,1559.5 1412.7,1554.5 1439.2,1549.8 1465.8,1545.4 1492.5,1541.2 1519.2,1537.2 1545.9,1533.5 1572.6,1530.0 1599.4,1526.8 1626.2,1523.8 1652.9,1521.0 1679.7,1518.5 1706.4,1516.3 1733.1,1514.2 1759.8,1512.4 1786.4,1510.8 1813.0,1509.5 1839.5,1508.3 1865.9,1507.4 1892.3,1506.7 1918.5,1506.2 1944.7,1505.9 1970.7,1505.7 1996.7,1505.8 2022.5,1506.0  Z" style="stroke-width: 0.5;  stroke: rgb(0,0,0); fill: rgb(179,177,178);" />
<path d="M 1929.266,1202.113 A 522.500,522.500 0.00 0,1 1951.1,1236.3 L 1951.1,1236.3 1929.7,1248.6 1908.0,1260.7 1885.9,1272.6 1863.5,1284.2 1840.8,1295.6 1817.8,1306.6 1794.5,1317.3 1770.9,1327.7 1747.0,1337.7 1722.9,1347.3 1698.6,1356.5 1674.0,1365.2 1649.2,1373.5 1624.2,1381.4 1599.1,1388.8 1573.7,1395.7 1548.3,1402.1 1522.6,1408.1 1496.9,1413.5 1471.1,1418.4 1445.1,1422.8 1419.1,1426.7 1393.1,1430.1 1367.0,1433.0 1340.9,1435.4 1314.7,1437.3 1288.6,1438.6 1262.6,1439.5 1236.5,1439.9 1210.6,1439.9 1184.7,1439.4 1159.0,1438.4 1133.4,1437.0 1107.9,1435.2 1082.6,1433.0 1057.5,1430.4 1032.6,1427.5 1008.0,1424.2 983.6,1420.6  A 522.500,522.500 0.00 0,1 991.3,1380.8 L 991.3,1380.8 1014.9,1386.1 1038.8,1391.1 1063.0,1395.7 1087.4,1399.9 1112.0,1403.6 1136.9,1406.9 1161.9,1409.7 1187.1,1412.0 1212.4,1413.8 1237.9,1415.0 1263.4,1415.6 1288.9,1415.7 1314.5,1415.2 1340.1,1414.1 1365.8,1412.3 1391.3,1410.0 1416.9,1407.1 1442.3,1403.5 1467.7,1399.3 1493.0,1394.5 1518.1,1389.0 1543.1,1383.0 1568.0,1376.4 1592.6,1369.1 1617.1,1361.3 1641.3,1352.9 1665.3,1344.0 1689.0,1334.5 1712.5,1324.6 1735.7,1314.1 1758.6,1303.1 1781.2,1291.8 1803.4,1280.0 1825.4,1267.8 1846.9,1255.2 1868.1,1242.3 1888.9,1229.2 1909.3,1215.7 1929.3,1202.1  Z" style="stroke-width: 0.5;  stroke: rgb(0,0,0); fill: rgb(179,177,178);" />
<path d="M 1738.840,1964.717 A 522.500,522.500 0.00 0,1 1702.4,1981.7 L 1702.4,1981.7 1694.4,1962.9 1686.1,1944.4 1677.6,1926.2 1668.8,1908.5 1659.9,1891.4 1650.8,1874.9 1641.6,1859.3 1632.3,1844.6 1622.9,1830.9 1613.5,1818.2 1604.0,1806.7 1594.5,1796.4 1585.0,1787.3 1575.5,1779.6 1566.1,1773.2 1556.7,1768.3 1547.5,1764.7 1538.3,1762.7 1529.2,1762.0 1520.3,1762.9 1511.5,1765.2 1502.9,1768.9 1494.4,1774.2 1486.1,1780.8 1478.1,1788.8 1470.2,1798.1 1462.6,1808.8 1455.2,1820.7 1448.0,1833.8 1441.1,1848.0 1434.4,1863.2 1428.0,1879.5 1421.9,1896.5 1416.1,1914.4 1410.5,1932.8 1405.2,1951.9 1400.2,1971.4 1395.6,1991.1 1391.2,2011.0  A 522.500,522.500 0.00 0,1 1352.2,2001.2 L 1352.2,2001.2 1358.2,1981.5 1364.6,1961.9 1371.3,1942.7 1378.3,1923.9 1385.7,1905.7 1393.4,1888.1 1401.4,1871.2 1409.8,1855.2 1418.4,1840.2 1427.3,1826.1 1436.5,1813.2 1446.0,1801.3 1455.7,1790.8 1465.7,1781.4 1475.8,1773.4 1486.2,1766.7 1496.8,1761.5 1507.6,1757.6 1518.5,1755.1 1529.5,1754.1 1540.7,1754.4 1552.0,1756.3 1563.4,1759.5 1574.8,1764.1 1586.3,1770.1 1597.9,1777.4 1609.4,1785.9 1620.9,1795.8 1632.3,1806.8 1643.7,1818.9 1655.0,1832.1 1666.2,1846.3 1677.2,1861.3 1688.1,1877.2 1698.8,1893.7 1709.2,1910.9 1719.4,1928.5 1729.3,1946.5 1738.8,1964.7  Z" style="stroke-width: 0.5;  stroke: rgb(0,0,0); fill: rgb(179,177,178);" />
<path d="M 1665.660,1004.457 A 522.500,522.500 0.00 0,1 1701.9,1018.1 L 1701.9,1018.1 1693.5,1037.5 1684.7,1056.7 1675.3,1075.7 1665.5,1094.2 1655.3,1112.3 1644.6,1129.7 1633.5,1146.5 1621.9,1162.5 1610.0,1177.7 1597.6,1191.9 1584.9,1205.1 1571.7,1217.4 1558.3,1228.5 1544.5,1238.4 1530.3,1247.2 1515.9,1254.8 1501.2,1261.1 1486.2,1266.2 1471.0,1269.9 1455.5,1272.4 1439.9,1273.6 1424.1,1273.5 1408.1,1272.1 1392.0,1269.4 1375.8,1265.5 1359.6,1260.4 1343.3,1254.0 1327.1,1246.6 1310.8,1238.0 1294.6,1228.3 1278.5,1217.7 1262.5,1206.1 1246.7,1193.7 1231.1,1180.4 1215.7,1166.5 1200.6,1152.0 1185.8,1136.9 1171.4,1121.4 1157.3,1105.6  A 522.500,522.500 0.00 0,1 1187.5,1081.3 L 1187.5,1081.3 1200.1,1097.9 1213.2,1114.2 1226.5,1130.1 1240.1,1145.5 1254.0,1160.3 1268.1,1174.4 1282.3,1187.7 1296.7,1200.1 1311.2,1211.5 1325.7,1221.9 1340.3,1231.2 1354.9,1239.4 1369.4,1246.4 1383.9,1252.1 1398.4,1256.6 1412.7,1259.8 1426.8,1261.6 1440.8,1262.2 1454.7,1261.3 1468.3,1259.1 1481.7,1255.6 1494.8,1250.7 1507.7,1244.5 1520.3,1237.0 1532.6,1228.3 1544.5,1218.3 1556.2,1207.1 1567.5,1194.7 1578.4,1181.3 1588.9,1166.9 1599.1,1151.5 1608.9,1135.2 1618.2,1118.1 1627.2,1100.4 1635.8,1082.0 1643.9,1063.1 1651.6,1043.8 1658.8,1024.2 1665.7,1004.5  Z" style="stroke-width: 0.5;  stroke: rgb(0,0,0); fill: rgb(179,177,178);" />
<path d="M 1951.533,1237.085 A 522.500,522.500 0.00 0,1 1968.5,1268.6 L 1968.5,1268.6 1945.8,1279.6 1922.9,1290.5 1899.7,1301.2 1876.2,1311.7 1852.5,1322.0 1828.6,1332.1 1804.4,1341.8 1780.0,1351.4 1755.4,1360.6 1730.6,1369.5 1705.6,1378.2 1680.4,1386.5 1655.1,1394.4 1629.6,1402.1 1603.9,1409.3 1578.2,1416.2 1552.3,1422.8 1526.3,1429.0 1500.2,1434.8 1474.0,1440.2 1447.7,1445.2 1421.4,1449.9 1395.0,1454.2 1368.6,1458.0 1342.2,1461.5 1315.7,1464.7 1289.3,1467.4 1262.9,1469.8 1236.6,1471.8 1210.2,1473.4 1184.0,1474.7 1157.8,1475.7 1131.7,1476.3 1105.8,1476.6 1079.9,1476.5 1054.3,1476.2 1028.7,1475.6 1003.3,1474.7 978.2,1473.5  A 522.500,522.500 0.00 0,1 981.2,1437.9 L 981.2,1437.9 1005.8,1440.7 1030.7,1443.2 1055.7,1445.3 1081.0,1447.1 1106.5,1448.6 1132.1,1449.7 1157.8,1450.3 1183.7,1450.6 1209.6,1450.4 1235.7,1449.8 1261.8,1448.7 1287.9,1447.2 1314.1,1445.2 1340.2,1442.7 1366.4,1439.8 1392.5,1436.4 1418.6,1432.5 1444.7,1428.1 1470.6,1423.2 1496.5,1417.9 1522.2,1412.0 1547.9,1405.7 1573.4,1399.0 1598.7,1391.7 1623.9,1384.0 1648.9,1375.9 1673.7,1367.3 1698.3,1358.4 1722.7,1349.0 1746.8,1339.2 1770.7,1329.1 1794.4,1318.6 1817.7,1307.7 1840.8,1296.6 1863.6,1285.2 1886.1,1273.5 1908.2,1261.6 1930.0,1249.4 1951.5,1237.1  Z" style="stroke-width: 0.5;  stroke: rgb(0,0,0); fill: rgb(179,177,178);" />
<path d="M 1699.658,1982.849 A 522.500,522.500 0.00 0,1 1677.5,1991.4 L 1677.5,1991.4 1670.5,1972.4 1663.3,1953.5 1655.9,1935.0 1648.3,1917.0 1640.7,1899.6 1632.9,1882.8 1625.0,1866.9 1617.0,1851.8 1609.1,1837.8 1601.1,1824.9 1593.1,1813.1 1585.1,1802.5 1577.1,1793.2 1569.3,1785.2 1561.5,1778.7 1553.7,1773.5 1546.1,1769.8 1538.7,1767.6 1531.3,1766.8 1524.1,1767.6 1517.1,1769.8 1510.2,1773.5 1503.5,1778.7 1497.0,1785.4 1490.7,1793.4 1484.6,1802.8 1478.8,1813.5 1473.1,1825.5 1467.7,1838.7 1462.6,1853.0 1457.6,1868.4 1452.9,1884.7 1448.5,1901.9 1444.3,1919.9 1440.4,1938.6 1436.7,1957.8 1433.2,1977.4 1430.0,1997.3 1427.1,2017.4  A 522.500,522.500 0.00 0,1 1392.6,2011.4 L 1392.6,2011.4 1397.0,1991.4 1401.6,1971.7 1406.5,1952.2 1411.7,1933.1 1417.2,1914.6 1423.0,1896.8 1429.0,1879.7 1435.3,1863.5 1441.9,1848.3 1448.7,1834.1 1455.8,1821.0 1463.1,1809.1 1470.6,1798.5 1478.4,1789.1 1486.3,1781.1 1494.5,1774.5 1502.8,1769.3 1511.3,1765.6 1520.0,1763.3 1528.8,1762.5 1537.8,1763.1 1546.8,1765.2 1556.0,1768.8 1565.2,1773.8 1574.5,1780.2 1583.8,1788.0 1593.2,1797.0 1602.6,1807.4 1611.9,1818.9 1621.2,1831.6 1630.5,1845.4 1639.7,1860.2 1648.8,1875.9 1657.7,1892.3 1666.5,1909.5 1675.1,1927.3 1683.5,1945.5 1691.7,1964.1 1699.7,1982.8  Z" style="stroke-width: 0.5;  stroke: rgb(0,0,0); fill: rgb(179,177,178);" />
<path d="M 1704.434,1019.154 A 522.500,522.500 0.00 0,1 1734.6,1033.1 L 1734.6,1033.1 1724.8,1052.2 1714.5,1071.0 1703.6,1089.5 1692.3,1107.7 1680.5,1125.3 1668.3,1142.4 1655.6,1158.8 1642.5,1174.4 1628.9,1189.3 1615.0,1203.2 1600.6,1216.2 1585.9,1228.2 1570.8,1239.2 1555.4,1249.0 1539.7,1257.7 1523.6,1265.3 1507.3,1271.7 1490.7,1276.9 1473.9,1280.8 1456.9,1283.5 1439.7,1284.9 1422.4,1285.2 1404.9,1284.2 1387.3,1281.9 1369.6,1278.5 1351.9,1273.9 1334.2,1268.1 1316.5,1261.3 1298.8,1253.4 1281.2,1244.4 1263.8,1234.5 1246.4,1223.7 1229.3,1212.0 1212.4,1199.6 1195.7,1186.5 1179.3,1172.7 1163.3,1158.5 1147.6,1143.8 1132.4,1128.7  A 522.500,522.500 0.00 0,1 1156.8,1106.0 L 1156.8,1106.0 1170.8,1121.9 1185.3,1137.3 1200.2,1152.4 1215.3,1166.9 1230.7,1180.9 1246.4,1194.1 1262.2,1206.5 1278.3,1218.1 1294.4,1228.7 1310.7,1238.4 1327.0,1246.9 1343.3,1254.4 1359.7,1260.8 1376.0,1265.9 1392.2,1269.8 1408.4,1272.5 1424.4,1273.9 1440.3,1274.0 1456.0,1272.9 1471.5,1270.4 1486.8,1266.6 1501.9,1261.6 1516.7,1255.3 1531.3,1247.8 1545.5,1239.0 1559.4,1229.1 1573.0,1218.0 1586.2,1205.8 1599.0,1192.6 1611.5,1178.4 1623.6,1163.3 1635.2,1147.3 1646.5,1130.6 1657.3,1113.2 1667.6,1095.2 1677.5,1076.7 1687.0,1057.7 1695.9,1038.5 1704.4,1019.2  Z" style="stroke-width: 0.5;  stroke: rgb(0,0,0); fill: rgb(179,177,178);" />
<path d="M 2019.978,1551.271 A 522.500,522.500 0.00 0,1 2015.8,1583.6 L 2015.8,1583.6 1991.2,1579.8 1966.4,1576.2 1941.4,1573.0 1916.1,1570.1 1890.7,1567.5 1865.1,1565.3 1839.3,1563.4 1813.5,1562.0 1787.5,1561.0 1761.3,1560.4 1735.2,1560.2 1708.9,1560.4 1682.6,1561.1 1656.3,1562.2 1629.9,1563.8 1603.6,1565.9 1577.2,1568.4 1550.9,1571.4 1524.6,1574.9 1498.4,1578.9 1472.3,1583.3 1446.3,1588.1 1420.4,1593.4 1394.6,1599.2 1368.9,1605.4 1343.4,1612.0 1318.1,1619.1 1292.9,1626.6 1267.9,1634.5 1243.1,1642.7 1218.6,1651.3 1194.3,1660.3 1170.2,1669.6 1146.4,1679.3 1122.8,1689.2 1099.5,1699.4 1076.6,1709.9 1053.9,1720.5 1031.5,1731.4  A 522.500,522.500 0.00 0,1 1018.0,1701.8 L 1018.0,1701.8 1041.4,1692.1 1065.0,1682.7 1088.8,1673.4 1112.9,1664.3 1137.2,1655.5 1161.8,1646.9 1186.5,1638.6 1211.5,1630.5 1236.6,1622.8 1261.9,1615.3 1287.4,1608.2 1313.1,1601.3 1338.8,1594.8 1364.8,1588.7 1390.8,1582.9 1417.0,1577.4 1443.2,1572.3 1469.6,1567.6 1496.0,1563.3 1522.4,1559.3 1549.0,1555.7 1575.5,1552.5 1602.1,1549.6 1628.7,1547.1 1655.3,1545.0 1681.9,1543.3 1708.5,1541.9 1735.0,1540.9 1761.4,1540.3 1787.8,1540.0 1814.2,1540.0 1840.4,1540.4 1866.5,1541.1 1892.5,1542.1 1918.3,1543.4 1944.0,1545.0 1969.5,1546.8 1994.8,1548.9 2020.0,1551.3  Z" style="stroke-width: 0.5;  stroke: rgb(0,0,0); fill: rgb(179,177,178);" />
<path d="M 1606.503,988.470 A 522.500,522.500 0.00 0,1 1634.4,995.1 L 1634.4,995.1 1628.9,1015.0 1623.0,1034.8 1616.7,1054.4 1610.0,1073.5 1602.9,1092.1 1595.4,1110.0 1587.6,1127.3 1579.3,1143.7 1570.7,1159.3 1561.7,1173.9 1552.4,1187.4 1542.7,1199.8 1532.6,1211.0 1522.2,1221.0 1511.6,1229.7 1500.6,1237.1 1489.3,1243.2 1477.8,1247.9 1466.0,1251.2 1454.0,1253.2 1441.7,1253.7 1429.3,1252.9 1416.7,1250.7 1403.9,1247.1 1391.0,1242.2 1378.1,1236.0 1365.0,1228.5 1351.9,1219.8 1338.8,1209.9 1325.6,1198.9 1312.6,1186.8 1299.6,1173.8 1286.7,1159.9 1273.9,1145.2 1261.3,1129.8 1248.9,1113.8 1236.8,1097.2 1225.0,1080.3 1213.4,1063.1  A 522.500,522.500 0.00 0,1 1237.9,1048.0 L 1237.9,1048.0 1248.3,1065.7 1259.1,1083.1 1270.1,1100.2 1281.3,1116.8 1292.7,1132.7 1304.2,1148.0 1315.9,1162.4 1327.6,1175.9 1339.4,1188.5 1351.2,1200.0 1363.0,1210.3 1374.7,1219.5 1386.4,1227.4 1398.0,1234.1 1409.4,1239.4 1420.8,1243.3 1431.9,1245.9 1442.9,1247.0 1453.7,1246.7 1464.2,1245.0 1474.5,1241.9 1484.6,1237.4 1494.4,1231.4 1503.9,1224.1 1513.1,1215.5 1522.0,1205.5 1530.6,1194.3 1538.9,1181.9 1546.8,1168.4 1554.4,1153.8 1561.6,1138.1 1568.5,1121.6 1575.0,1104.2 1581.1,1086.1 1586.9,1067.4 1592.4,1048.1 1597.4,1028.5 1602.1,1008.5 1606.5,988.5  Z" style="stroke-width: 0.5;  stroke: rgb(0,0,0); fill: rgb(179,177,178);" />
<path d="M 1848.643,1889.171 A 522.500,522.500 0.00 0,1 1827.1,1907.4 L 1827.1,1907.4 1813.7,1891.1 1799.9,1875.1 1785.7,1859.4 1771.2,1844.3 1756.4,1829.8 1741.3,1816.0 1726.1,1803.0 1710.6,1790.8 1695.0,1779.6 1679.2,1769.4 1663.4,1760.2 1647.5,1752.1 1631.5,1745.2 1615.6,1739.5 1599.7,1735.0 1583.8,1731.7 1568.0,1729.8 1552.3,1729.1 1536.8,1729.7 1521.4,1731.7 1506.2,1734.9 1491.1,1739.5 1476.3,1745.3 1461.8,1752.4 1447.5,1760.7 1433.4,1770.2 1419.7,1780.8 1406.3,1792.6 1393.2,1805.4 1380.5,1819.2 1368.2,1834.0 1356.2,1849.6 1344.6,1866.0 1333.5,1883.1 1322.7,1900.9 1312.4,1919.1 1302.6,1937.8 1293.2,1956.7 1284.2,1975.9  A 522.500,522.500 0.00 0,1 1258.9,1963.5 L 1258.9,1963.5 1268.9,1944.7 1279.5,1926.1 1290.5,1907.8 1302.0,1889.9 1314.0,1872.5 1326.3,1855.7 1339.2,1839.6 1352.4,1824.3 1366.0,1809.8 1380.0,1796.2 1394.3,1783.6 1409.0,1772.0 1424.0,1761.5 1439.3,1752.1 1454.9,1743.9 1470.7,1736.8 1486.8,1730.9 1503.1,1726.3 1519.6,1723.0 1536.3,1720.9 1553.1,1720.0 1570.1,1720.5 1587.1,1722.1 1604.2,1725.0 1621.4,1729.1 1638.5,1734.5 1655.7,1740.9 1672.8,1748.5 1689.8,1757.2 1706.7,1766.9 1723.5,1777.5 1740.1,1789.1 1756.5,1801.5 1772.7,1814.7 1788.6,1828.6 1804.1,1843.0 1819.4,1858.0 1834.2,1873.4 1848.6,1889.2  Z" style="stroke-width: 0.5;  stroke: rgb(0,0,0); fill: rgb(179,177,178);" />
<path d="M 1733.853,1032.754 A 522.500,522.500 0.00 0,1 1754.1,1043.4 L 1754.1,1043.4 1743.4,1062.2 1732.1,1080.7 1720.4,1099.0 1708.1,1116.8 1695.4,1134.2 1682.2,1151.0 1668.6,1167.2 1654.5,1182.6 1640.0,1197.2 1625.1,1211.0 1609.7,1223.8 1594.0,1235.7 1578.0,1246.6 1561.6,1256.4 1544.9,1265.1 1527.9,1272.7 1510.6,1279.1 1493.1,1284.4 1475.3,1288.4 1457.4,1291.3 1439.2,1293.0 1420.9,1293.5 1402.5,1292.8 1384.0,1290.9 1365.4,1287.8 1346.7,1283.6 1328.1,1278.3 1309.5,1271.9 1290.9,1264.5 1272.4,1256.1 1254.1,1246.7 1235.9,1236.5 1217.9,1225.4 1200.1,1213.6 1182.6,1201.1 1165.4,1187.9 1148.5,1174.3 1132.0,1160.1 1116.0,1145.7  A 522.500,522.500 0.00 0,1 1131.9,1129.2 L 1131.9,1129.2 1147.1,1144.2 1162.8,1158.9 1178.9,1173.2 1195.3,1186.9 1212.0,1200.0 1228.9,1212.4 1246.1,1224.0 1263.4,1234.8 1280.9,1244.7 1298.5,1253.6 1316.2,1261.5 1333.9,1268.4 1351.6,1274.1 1369.3,1278.7 1387.0,1282.1 1404.6,1284.3 1422.1,1285.3 1439.4,1285.0 1456.6,1283.5 1473.6,1280.8 1490.4,1276.8 1506.9,1271.6 1523.2,1265.3 1539.3,1257.7 1555.0,1248.9 1570.4,1239.0 1585.4,1228.0 1600.1,1216.0 1614.5,1203.0 1628.4,1189.0 1641.9,1174.2 1655.0,1158.5 1667.7,1142.1 1679.9,1125.0 1691.7,1107.3 1702.9,1089.2 1713.7,1070.6 1724.0,1051.8 1733.9,1032.8  Z" style="stroke-width: 0.5;  stroke: rgb(0,0,0); fill: rgb(179,177,178);" />
<path d="M 1903.889,1168.518 A 522.500,522.500 0.00 0,1 1917.3,1185.6 L 1917.3,1185.6 1898.1,1199.7 1878.5,1213.7 1858.4,1227.4 1837.9,1240.8 1817.1,1253.8 1795.8,1266.4 1774.2,1278.6 1752.2,1290.3 1729.9,1301.5 1707.3,1312.2 1684.3,1322.4 1661.1,1332.0 1637.6,1340.9 1613.8,1349.3 1589.9,1357.0 1565.7,1364.0 1541.3,1370.4 1516.8,1376.1 1492.1,1381.2 1467.2,1385.5 1442.3,1389.1 1417.2,1392.1 1392.1,1394.3 1367.0,1395.9 1341.8,1396.8 1316.7,1397.0 1291.5,1396.5 1266.4,1395.3 1241.4,1393.6 1216.5,1391.2 1191.7,1388.2 1167.0,1384.6 1142.5,1380.5 1118.3,1375.8 1094.2,1370.6 1070.4,1365.0 1046.9,1358.9 1023.7,1352.4 1000.9,1345.5  A 522.500,522.500 0.00 0,1 1007.7,1325.0 L 1007.7,1325.0 1030.0,1332.7 1052.7,1340.0 1075.7,1346.9 1099.1,1353.3 1122.6,1359.3 1146.5,1364.7 1170.5,1369.6 1194.7,1373.8 1219.1,1377.5 1243.6,1380.5 1268.2,1382.8 1292.9,1384.4 1317.7,1385.4 1342.4,1385.6 1367.2,1385.1 1391.9,1383.8 1416.6,1381.8 1441.2,1379.0 1465.7,1375.5 1490.1,1371.3 1514.3,1366.3 1538.4,1360.5 1562.3,1354.0 1586.0,1346.9 1609.5,1339.0 1632.7,1330.4 1655.7,1321.1 1678.3,1311.2 1700.7,1300.7 1722.8,1289.6 1744.5,1277.9 1765.8,1265.7 1786.8,1252.9 1807.4,1239.8 1827.5,1226.2 1847.3,1212.2 1866.6,1197.9 1885.5,1183.3 1903.9,1168.5  Z" style="stroke-width: 0.5;  stroke: rgb(0,0,0); fill: rgb(179,177,178);" />
<path d="M 1644.389,997.847 A 522.500,522.500 0.00 0,1 1665.0,1004.2 L 1665.0,1004.2 1658.2,1024.0 1651.0,1043.6 1643.3,1062.9 1635.2,1081.8 1626.7,1100.2 1617.8,1117.9 1608.4,1135.0 1598.7,1151.3 1588.6,1166.7 1578.1,1181.1 1567.2,1194.5 1555.9,1206.9 1544.3,1218.0 1532.4,1228.0 1520.2,1236.8 1507.6,1244.3 1494.8,1250.5 1481.7,1255.3 1468.4,1258.9 1454.8,1261.0 1441.0,1261.9 1427.0,1261.3 1412.9,1259.5 1398.7,1256.3 1384.3,1251.8 1369.8,1246.0 1355.3,1239.0 1340.8,1230.8 1326.3,1221.4 1311.8,1211.0 1297.3,1199.5 1283.0,1187.1 1268.8,1173.8 1254.8,1159.7 1241.0,1144.9 1227.4,1129.5 1214.1,1113.5 1201.1,1097.2 1188.5,1080.5  A 522.500,522.500 0.00 0,1 1206.0,1068.0 L 1206.0,1068.0 1217.9,1085.1 1230.1,1101.8 1242.6,1118.2 1255.3,1134.1 1268.2,1149.3 1281.4,1163.9 1294.7,1177.6 1308.1,1190.4 1321.6,1202.3 1335.1,1213.2 1348.7,1222.9 1362.2,1231.5 1375.7,1238.8 1389.2,1244.9 1402.5,1249.7 1415.7,1253.2 1428.8,1255.3 1441.7,1256.1 1454.4,1255.5 1466.9,1253.5 1479.2,1250.1 1491.3,1245.3 1503.0,1239.2 1514.5,1231.8 1525.7,1223.1 1536.5,1213.1 1547.1,1201.9 1557.3,1189.5 1567.1,1176.0 1576.6,1161.5 1585.7,1146.0 1594.4,1129.6 1602.7,1112.4 1610.7,1094.5 1618.2,1076.0 1625.4,1056.9 1632.1,1037.5 1638.5,1017.7 1644.4,997.8  Z" style="stroke-width: 0.5;  stroke: rgb(0,0,0); fill: rgb(179,177,178);" />
<path d="M 1585.641,984.566 A 522.500,522.500 0.00 0,1 1605.7,988.3 L 1605.7,988.3 1601.4,1008.4 1596.7,1028.3 1591.7,1048.0 1586.3,1067.2 1580.5,1086.0 1574.4,1104.1 1567.9,1121.4 1561.1,1138.0 1553.9,1153.6 1546.4,1168.2 1538.5,1181.7 1530.3,1194.1 1521.8,1205.3 1513.0,1215.3 1503.8,1223.9 1494.3,1231.2 1484.6,1237.1 1474.6,1241.6 1464.4,1244.8 1453.9,1246.4 1443.1,1246.7 1432.2,1245.5 1421.1,1243.0 1409.9,1239.0 1398.5,1233.7 1386.9,1227.0 1375.3,1219.1 1363.7,1209.9 1351.9,1199.5 1340.2,1187.9 1328.5,1175.4 1316.8,1161.8 1305.2,1147.3 1293.8,1132.1 1282.4,1116.1 1271.3,1099.5 1260.3,1082.4 1249.6,1064.9 1239.2,1047.2  A 522.500,522.500 0.00 0,1 1257.1,1037.4 L 1257.1,1037.4 1266.8,1055.4 1276.7,1073.2 1286.8,1090.6 1297.1,1107.6 1307.6,1123.9 1318.2,1139.5 1328.9,1154.3 1339.6,1168.2 1350.4,1181.2 1361.1,1193.0 1371.9,1203.7 1382.6,1213.3 1393.2,1221.5 1403.6,1228.4 1414.0,1234.0 1424.2,1238.3 1434.3,1241.1 1444.1,1242.4 1453.8,1242.4 1463.2,1240.9 1472.4,1237.9 1481.3,1233.5 1489.9,1227.7 1498.3,1220.5 1506.4,1211.9 1514.2,1202.0 1521.7,1190.9 1528.8,1178.5 1535.7,1165.0 1542.2,1150.3 1548.3,1134.7 1554.2,1118.1 1559.7,1100.7 1564.8,1082.6 1569.7,1063.8 1574.1,1044.4 1578.3,1024.7 1582.1,1004.7 1585.6,984.6  Z" style="stroke-width: 0.5;  stroke: rgb(0,0,0); fill: rgb(179,177,178);" />
<path d="M 1566.612,981.764 A 522.500,522.500 0.00 0,1 1584.8,984.4 L 1584.8,984.4 1581.3,1004.6 1577.5,1024.6 1573.4,1044.3 1569.0,1063.6 1564.2,1082.4 1559.1,1100.6 1553.6,1118.0 1547.8,1134.6 1541.7,1150.2 1535.2,1164.9 1528.4,1178.4 1521.3,1190.8 1513.9,1201.9 1506.1,1211.8 1498.1,1220.4 1489.8,1227.6 1481.2,1233.4 1472.3,1237.7 1463.1,1240.7 1453.8,1242.2 1444.2,1242.3 1434.4,1240.9 1424.4,1238.1 1414.2,1233.8 1403.9,1228.2 1393.4,1221.3 1382.9,1213.0 1372.2,1203.5 1361.5,1192.8 1350.8,1180.9 1340.1,1168.0 1329.4,1154.0 1318.8,1139.2 1308.2,1123.6 1297.8,1107.2 1287.5,1090.3 1277.4,1072.8 1267.5,1055.0 1257.9,1037.0  A 522.500,522.500 0.00 0,1 1274.4,1028.7 L 1274.4,1028.7 1283.3,1047.0 1292.4,1065.1 1301.8,1082.9 1311.3,1100.1 1321.0,1116.7 1330.7,1132.7 1340.5,1147.8 1350.4,1162.0 1360.2,1175.3 1370.1,1187.4 1379.8,1198.4 1389.6,1208.2 1399.2,1216.7 1408.7,1223.9 1418.0,1229.8 1427.3,1234.2 1436.3,1237.2 1445.1,1238.8 1453.7,1238.9 1462.1,1237.6 1470.3,1234.8 1478.2,1230.5 1485.8,1224.8 1493.1,1217.7 1500.2,1209.2 1507.0,1199.4 1513.4,1188.3 1519.6,1175.9 1525.5,1162.4 1531.0,1147.8 1536.2,1132.2 1541.1,1115.6 1545.7,1098.1 1549.9,1079.9 1553.9,1061.1 1557.5,1041.8 1560.8,1022.0 1563.9,1001.9 1566.6,981.8  Z" style="stroke-width: 0.5;  stroke: rgb(0,0,0); fill: rgb(179,177,178);" />
<path d="M 1876.482,1862.309 A 522.500,522.500 0.00 0,1 1865.1,1873.8 L 1865.1,1873.8 1849.9,1858.6 1834.4,1843.8 1818.4,1829.4 1802.1,1815.5 1785.5,1802.3 1768.6,1789.7 1751.5,1777.9 1734.2,1767.0 1716.8,1756.9 1699.2,1747.8 1681.5,1739.7 1663.8,1732.7 1646.0,1726.8 1628.3,1722.0 1610.6,1718.4 1592.9,1716.1 1575.3,1714.9 1557.9,1714.9 1540.6,1716.2 1523.4,1718.7 1506.5,1722.5 1489.7,1727.5 1473.2,1733.6 1457.0,1741.0 1441.1,1749.6 1425.5,1759.3 1410.1,1770.0 1395.2,1781.8 1380.6,1794.7 1366.4,1808.4 1352.6,1823.1 1339.1,1838.6 1326.2,1854.8 1313.6,1871.7 1301.5,1889.1 1289.9,1907.1 1278.8,1925.5 1268.1,1944.2 1258.0,1963.1  A 522.500,522.500 0.00 0,1 1243.8,1955.4 L 1243.8,1955.4 1254.6,1936.7 1265.9,1918.2 1277.7,1900.1 1290.0,1882.3 1302.7,1865.0 1316.0,1848.4 1329.6,1832.3 1343.7,1817.0 1358.2,1802.6 1373.2,1788.9 1388.5,1776.3 1404.1,1764.5 1420.1,1753.9 1436.5,1744.2 1453.1,1735.7 1470.0,1728.4 1487.2,1722.2 1504.6,1717.1 1522.3,1713.3 1540.1,1710.7 1558.1,1709.3 1576.2,1709.1 1594.5,1710.1 1612.8,1712.3 1631.2,1715.6 1649.6,1720.1 1668.0,1725.7 1686.3,1732.4 1704.7,1740.2 1722.9,1748.9 1740.9,1758.6 1758.8,1769.2 1776.5,1780.6 1794.0,1792.8 1811.2,1805.7 1828.1,1819.1 1844.6,1833.1 1860.8,1847.5 1876.5,1862.3  Z" style="stroke-width: 0.5;  stroke: rgb(0,0,0); fill: rgb(179,177,178);" />
<path d="M 1826.509,1907.919 A 522.500,522.500 0.00 0,1 1813.9,1917.7 L 1813.9,1917.7 1801.1,1901.0 1787.9,1884.7 1774.3,1868.7 1760.5,1853.2 1746.3,1838.4 1731.9,1824.2 1717.4,1810.9 1702.6,1798.4 1687.7,1786.8 1672.6,1776.2 1657.5,1766.8 1642.3,1758.4 1627.1,1751.2 1612.0,1745.3 1596.8,1740.5 1581.7,1737.1 1566.7,1735.0 1551.8,1734.1 1537.0,1734.7 1522.4,1736.5 1507.9,1739.7 1493.7,1744.2 1479.7,1750.0 1465.9,1757.0 1452.4,1765.4 1439.1,1774.9 1426.2,1785.6 1413.6,1797.5 1401.3,1810.4 1389.3,1824.4 1377.8,1839.3 1366.5,1855.0 1355.7,1871.6 1345.3,1888.9 1335.3,1906.8 1325.7,1925.2 1316.5,1944.1 1307.8,1963.2 1299.5,1982.5  A 522.500,522.500 0.00 0,1 1284.9,1976.2 L 1284.9,1976.2 1293.8,1957.0 1303.2,1938.0 1313.0,1919.4 1323.3,1901.1 1334.0,1883.4 1345.1,1866.3 1356.7,1849.9 1368.6,1834.2 1380.9,1819.5 1393.6,1805.6 1406.6,1792.8 1420.0,1781.0 1433.7,1770.4 1447.7,1760.9 1461.9,1752.6 1476.5,1745.5 1491.2,1739.7 1506.2,1735.1 1521.4,1731.9 1536.8,1730.0 1552.3,1729.3 1567.9,1730.0 1583.7,1732.0 1599.5,1735.2 1615.4,1739.7 1631.3,1745.5 1647.2,1752.4 1663.1,1760.5 1678.9,1769.7 1694.6,1780.0 1710.2,1791.2 1725.7,1803.4 1740.9,1816.4 1755.9,1830.2 1770.7,1844.8 1785.2,1859.9 1799.3,1875.5 1813.1,1891.6 1826.5,1907.9  Z" style="stroke-width: 0.5;  stroke: rgb(0,0,0); fill: rgb(179,177,178);" />
<path d="M 1754.700,1043.783 A 522.500,522.500 0.00 0,1 1768.4,1051.7 L 1768.4,1051.7 1757.1,1070.3 1745.1,1088.6 1732.7,1106.6 1719.8,1124.2 1706.4,1141.3 1692.5,1157.9 1678.2,1173.8 1663.4,1189.1 1648.2,1203.5 1632.5,1217.1 1616.5,1229.8 1600.1,1241.6 1583.4,1252.4 1566.3,1262.1 1548.9,1270.8 1531.2,1278.3 1513.2,1284.8 1495.0,1290.1 1476.6,1294.3 1457.9,1297.3 1439.1,1299.1 1420.1,1299.7 1401.1,1299.2 1381.9,1297.6 1362.6,1294.8 1343.4,1290.8 1324.1,1285.8 1304.8,1279.8 1285.7,1272.7 1266.6,1264.7 1247.6,1255.7 1228.8,1245.9 1210.2,1235.2 1191.8,1223.8 1173.7,1211.8 1155.9,1199.1 1138.5,1185.8 1121.5,1172.2 1104.9,1158.1  A 522.500,522.500 0.00 0,1 1115.4,1146.3 L 1115.4,1146.3 1131.5,1160.7 1148.0,1174.8 1164.9,1188.5 1182.1,1201.6 1199.7,1214.1 1217.5,1225.9 1235.5,1236.9 1253.7,1247.2 1272.1,1256.5 1290.6,1264.9 1309.2,1272.3 1327.9,1278.7 1346.5,1284.0 1365.2,1288.2 1383.8,1291.2 1402.4,1293.1 1420.8,1293.8 1439.2,1293.3 1457.4,1291.6 1475.4,1288.7 1493.1,1284.6 1510.7,1279.4 1528.0,1272.9 1545.1,1265.3 1561.8,1256.6 1578.2,1246.8 1594.3,1236.0 1610.0,1224.1 1625.4,1211.2 1640.3,1197.5 1654.9,1182.9 1669.0,1167.4 1682.7,1151.3 1695.9,1134.5 1708.6,1117.2 1720.9,1099.3 1732.7,1081.1 1743.9,1062.5 1754.7,1043.8  Z" style="stroke-width: 0.5;  stroke: rgb(0,0,0); fill: rgb(179,177,178);" />
<path d="M 1990.153,1680.986 A 522.500,522.500 0.00 0,1 1984.5,1695.6 L 1984.5,1695.6 1962.6,1687.0 1940.4,1678.8 1917.8,1671.0 1894.8,1663.6 1871.6,1656.8 1848.1,1650.5 1824.4,1644.8 1800.5,1639.7 1776.5,1635.2 1752.2,1631.3 1727.9,1628.2 1703.5,1625.8 1679.0,1624.1 1654.4,1623.1 1629.9,1622.9 1605.3,1623.5 1580.8,1624.8 1556.4,1626.9 1532.0,1629.8 1507.8,1633.5 1483.6,1637.9 1459.6,1643.1 1435.8,1649.1 1412.2,1655.8 1388.8,1663.2 1365.7,1671.4 1342.8,1680.3 1320.1,1689.8 1297.8,1700.0 1275.8,1710.8 1254.1,1722.2 1232.8,1734.2 1211.9,1746.6 1191.3,1759.6 1171.1,1773.0 1151.4,1786.8 1132.1,1800.9 1113.3,1815.3 1094.9,1830.0  A 522.500,522.500 0.00 0,1 1085.2,1817.7 L 1085.2,1817.7 1104.1,1803.5 1123.5,1789.5 1143.4,1775.8 1163.6,1762.5 1184.3,1749.5 1205.3,1736.9 1226.8,1724.8 1248.5,1713.2 1270.7,1702.2 1293.1,1691.7 1315.9,1681.8 1338.9,1672.5 1362.2,1663.8 1385.8,1655.8 1409.5,1648.5 1433.5,1641.9 1457.7,1636.0 1482.0,1630.8 1506.5,1626.4 1531.1,1622.6 1555.8,1619.7 1580.6,1617.4 1605.4,1615.9 1630.3,1615.2 1655.2,1615.1 1680.0,1615.8 1704.9,1617.2 1729.6,1619.2 1754.3,1622.0 1778.8,1625.4 1803.2,1629.4 1827.5,1634.1 1851.5,1639.3 1875.3,1645.1 1898.9,1651.4 1922.2,1658.1 1945.2,1665.4 1967.9,1673.0 1990.2,1681.0  Z" style="stroke-width: 0.5;  stroke: rgb(0,0,0); fill: rgb(179,177,178);" />
<path d="M 1920.092,1189.309 A 522.500,522.500 0.00 0,1 1928.9,1201.5 L 1928.9,1201.5 1909.0,1215.1 1888.6,1228.5 1867.9,1241.7 1846.8,1254.5 1825.3,1267.0 1803.5,1279.1 1781.3,1290.8 1758.7,1302.1 1735.9,1312.9 1712.7,1323.2 1689.3,1333.1 1665.6,1342.4 1641.6,1351.1 1617.5,1359.3 1593.1,1366.9 1568.5,1373.8 1543.7,1380.2 1518.7,1385.9 1493.6,1391.1 1468.4,1395.5 1443.1,1399.4 1417.7,1402.6 1392.3,1405.2 1366.8,1407.1 1341.2,1408.4 1315.7,1409.0 1290.2,1409.1 1264.8,1408.5 1239.4,1407.4 1214.1,1405.7 1188.9,1403.4 1163.9,1400.6 1139.0,1397.2 1114.3,1393.4 1089.8,1389.1 1065.6,1384.3 1041.6,1379.1 1017.9,1373.5 994.5,1367.6  A 522.500,522.500 0.00 0,1 998.6,1353.1 L 998.6,1353.1 1021.6,1359.7 1045.0,1365.8 1068.6,1371.6 1092.6,1376.9 1116.8,1381.8 1141.2,1386.2 1165.8,1390.0 1190.6,1393.3 1215.5,1396.1 1240.5,1398.2 1265.7,1399.8 1290.9,1400.7 1316.1,1400.9 1341.4,1400.5 1366.7,1399.5 1391.9,1397.8 1417.1,1395.4 1442.3,1392.3 1467.3,1388.5 1492.3,1384.1 1517.1,1379.0 1541.7,1373.2 1566.2,1366.8 1590.5,1359.7 1614.6,1352.0 1638.5,1343.6 1662.1,1334.7 1685.4,1325.1 1708.5,1315.0 1731.3,1304.4 1753.7,1293.2 1775.8,1281.6 1797.6,1269.5 1819.0,1257.0 1840.1,1244.0 1860.7,1230.8 1880.9,1217.2 1900.7,1203.4 1920.1,1189.3  Z" style="stroke-width: 0.5;  stroke: rgb(0,0,0); fill: rgb(179,177,178);" />
<path d="M 1850.258,1112.281 A 522.500,522.500 0.00 0,1 1860.7,1121.9 L 1860.7,1121.9 1844.6,1138.3 1828.1,1154.5 1811.1,1170.4 1793.6,1186.0 1775.6,1201.1 1757.2,1215.7 1738.3,1229.8 1719.0,1243.3 1699.3,1256.2 1679.2,1268.5 1658.7,1280.0 1637.9,1290.8 1616.8,1300.8 1595.4,1310.0 1573.6,1318.4 1551.7,1325.9 1529.4,1332.6 1507.0,1338.4 1484.3,1343.3 1461.5,1347.3 1438.6,1350.4 1415.5,1352.5 1392.3,1353.8 1369.1,1354.2 1345.8,1353.7 1322.5,1352.3 1299.2,1350.1 1276.0,1347.0 1252.8,1343.1 1229.8,1338.4 1206.9,1332.9 1184.1,1326.8 1161.6,1319.9 1139.3,1312.4 1117.2,1304.3 1095.5,1295.6 1074.1,1286.5 1053.0,1276.8 1032.4,1266.8  A 522.500,522.500 0.00 0,1 1038.9,1254.2 L 1038.9,1254.2 1059.1,1264.7 1079.8,1274.8 1100.8,1284.5 1122.2,1293.6 1143.8,1302.2 1165.7,1310.1 1187.9,1317.4 1210.3,1324.0 1232.8,1329.8 1255.5,1334.9 1278.3,1339.1 1301.1,1342.6 1324.0,1345.1 1346.9,1346.7 1369.8,1347.5 1392.7,1347.3 1415.4,1346.2 1438.1,1344.2 1460.7,1341.2 1483.1,1337.3 1505.3,1332.4 1527.3,1326.6 1549.1,1319.9 1570.7,1312.3 1592.0,1303.9 1612.9,1294.5 1633.6,1284.4 1654.0,1273.4 1673.9,1261.7 1693.6,1249.2 1712.8,1236.1 1731.6,1222.3 1749.9,1207.9 1767.9,1193.0 1785.3,1177.6 1802.3,1161.7 1818.8,1145.5 1834.8,1129.0 1850.3,1112.3  Z" style="stroke-width: 0.5;  stroke: rgb(0,0,0); fill: rgb(179,177,178);" />
<path d="M 1552.976,980.193 A 522.500,522.500 0.00 0,1 1565.5,981.6 L 1565.5,981.6 1562.8,1001.8 1559.8,1021.8 1556.5,1041.6 1552.9,1061.0 1549.0,1079.8 1544.8,1098.0 1540.3,1115.4 1535.5,1132.0 1530.3,1147.7 1524.8,1162.3 1519.0,1175.8 1512.9,1188.2 1506.5,1199.3 1499.8,1209.1 1492.8,1217.6 1485.5,1224.7 1477.9,1230.4 1470.1,1234.6 1462.0,1237.4 1453.7,1238.8 1445.1,1238.6 1436.3,1237.1 1427.4,1234.0 1418.2,1229.6 1408.9,1223.7 1399.4,1216.5 1389.9,1208.0 1380.2,1198.2 1370.4,1187.2 1360.7,1175.0 1350.9,1161.8 1341.0,1147.5 1331.3,1132.4 1321.6,1116.4 1312.0,1099.8 1302.5,1082.5 1293.2,1064.8 1284.0,1046.7 1275.2,1028.4  A 522.500,522.500 0.00 0,1 1286.6,1023.1 L 1286.6,1023.1 1295.0,1041.6 1303.6,1059.8 1312.4,1077.8 1321.4,1095.2 1330.5,1112.1 1339.6,1128.2 1348.8,1143.5 1358.0,1158.0 1367.2,1171.4 1376.4,1183.7 1385.5,1194.9 1394.5,1204.9 1403.5,1213.6 1412.3,1221.0 1420.9,1227.0 1429.4,1231.6 1437.7,1234.8 1445.8,1236.5 1453.7,1236.7 1461.3,1235.5 1468.8,1232.8 1475.9,1228.6 1482.8,1223.0 1489.4,1216.0 1495.8,1207.6 1501.8,1197.8 1507.5,1186.7 1513.0,1174.4 1518.1,1160.9 1523.0,1146.3 1527.5,1130.7 1531.7,1114.1 1535.6,1096.7 1539.2,1078.5 1542.6,1059.6 1545.6,1040.2 1548.3,1020.4 1550.8,1000.4 1553.0,980.2  Z" style="stroke-width: 0.5;  stroke: rgb(0,0,0); fill: rgb(179,177,178);" />
<path d="M 1973.212,1278.467 A 522.500,522.500 0.00 0,1 1977.8,1288.5 L 1977.8,1288.5 1954.5,1298.7 1930.9,1308.8 1907.1,1318.7 1883.1,1328.4 1858.9,1337.9 1834.5,1347.2 1809.9,1356.3 1785.1,1365.2 1760.1,1373.8 1734.9,1382.1 1709.6,1390.2 1684.1,1398.0 1658.5,1405.6 1632.8,1412.8 1606.9,1419.8 1580.9,1426.4 1554.8,1432.7 1528.7,1438.7 1502.4,1444.4 1476.1,1449.8 1449.7,1454.8 1423.2,1459.5 1396.7,1463.9 1370.2,1468.0 1343.7,1471.7 1317.2,1475.1 1290.7,1478.2 1264.2,1480.9 1237.7,1483.4 1211.3,1485.5 1184.9,1487.4 1158.6,1488.9 1132.4,1490.2 1106.3,1491.1 1080.3,1491.8 1054.4,1492.3 1028.6,1492.5 1003.0,1492.4 977.6,1492.2  A 522.500,522.500 0.00 0,1 977.8,1481.1 L 977.8,1481.1 1003.1,1481.9 1028.6,1482.5 1054.3,1482.8 1080.0,1482.8 1106.0,1482.5 1132.0,1482.0 1158.2,1481.1 1184.4,1480.0 1210.7,1478.5 1237.1,1476.6 1263.5,1474.5 1290.0,1472.0 1316.4,1469.1 1342.9,1465.9 1369.4,1462.3 1395.9,1458.4 1422.3,1454.2 1448.7,1449.5 1475.0,1444.5 1501.3,1439.2 1527.5,1433.5 1553.6,1427.4 1579.6,1421.0 1605.5,1414.3 1631.2,1407.2 1656.9,1399.8 1682.4,1392.1 1707.7,1384.0 1732.9,1375.7 1757.8,1367.1 1782.6,1358.1 1807.2,1349.0 1831.6,1339.5 1855.8,1329.9 1879.8,1320.0 1903.5,1309.9 1927.0,1299.6 1950.2,1289.1 1973.2,1278.5  Z" style="stroke-width: 0.5;  stroke: rgb(0,0,0); fill: rgb(179,177,178);" />
<path d="M 2022.478,1495.154 A 522.500,522.500 0.00 0,1 2022.5,1506.1 L 2022.5,1506.1 1996.7,1505.9 1970.7,1505.8 1944.7,1506.0 1918.5,1506.3 1892.2,1506.8 1865.9,1507.5 1839.4,1508.4 1812.9,1509.5 1786.4,1510.8 1759.7,1512.4 1733.1,1514.2 1706.4,1516.2 1679.6,1518.5 1652.9,1520.9 1626.1,1523.7 1599.3,1526.6 1572.6,1529.8 1545.8,1533.3 1519.1,1537.0 1492.4,1540.9 1465.7,1545.1 1439.1,1549.5 1412.6,1554.2 1386.1,1559.0 1359.7,1564.1 1333.3,1569.5 1307.1,1575.0 1280.9,1580.8 1254.9,1586.8 1228.9,1593.0 1203.1,1599.4 1177.4,1605.9 1151.8,1612.7 1126.4,1619.6 1101.1,1626.7 1076.0,1634.0 1051.0,1641.4 1026.2,1648.9 1001.5,1656.6  A 522.500,522.500 0.00 0,1 998.3,1646.1 L 998.3,1646.1 1023.3,1638.9 1048.3,1631.8 1073.5,1624.9 1098.9,1618.0 1124.4,1611.3 1150.0,1604.8 1175.7,1598.4 1201.6,1592.2 1227.6,1586.1 1253.6,1580.2 1279.8,1574.5 1306.0,1569.0 1332.3,1563.6 1358.7,1558.5 1385.2,1553.5 1411.7,1548.7 1438.3,1544.2 1464.9,1539.8 1491.6,1535.7 1518.3,1531.8 1545.1,1528.0 1571.8,1524.5 1598.6,1521.2 1625.4,1518.1 1652.1,1515.2 1678.9,1512.5 1705.6,1510.1 1732.4,1507.8 1759.1,1505.7 1785.7,1503.9 1812.3,1502.2 1838.9,1500.7 1865.3,1499.4 1891.8,1498.3 1918.1,1497.3 1944.3,1496.5 1970.5,1495.9 1996.5,1495.5 2022.5,1495.2  Z" style="stroke-width: 0.5;  stroke: rgb(0,0,0); fill: rgb(179,177,178);" />
<path d="M 1897.871,1161.319 A 522.500,522.500 0.00 0,1 1903.3,1167.8 L 1903.3,1167.8 1884.9,1182.6 1866.1,1197.2 1846.8,1211.5 1827.1,1225.5 1806.9,1239.1 1786.4,1252.3 1765.4,1265.1 1744.1,1277.3 1722.4,1289.0 1700.4,1300.1 1678.1,1310.7 1655.4,1320.6 1632.5,1329.8 1609.3,1338.4 1585.9,1346.3 1562.2,1353.5 1538.3,1360.0 1514.3,1365.7 1490.0,1370.7 1465.7,1375.0 1441.2,1378.5 1416.6,1381.2 1391.9,1383.2 1367.2,1384.4 1342.5,1384.9 1317.8,1384.7 1293.1,1383.7 1268.4,1382.0 1243.8,1379.7 1219.3,1376.6 1195.0,1373.0 1170.8,1368.6 1146.7,1363.7 1122.9,1358.3 1099.4,1352.3 1076.1,1345.8 1053.1,1338.8 1030.4,1331.4 1008.1,1323.7  A 522.500,522.500 0.00 0,1 1011.0,1315.8 L 1011.0,1315.8 1033.1,1323.9 1055.6,1331.6 1078.4,1338.8 1101.5,1345.6 1124.8,1351.9 1148.5,1357.7 1172.3,1362.9 1196.3,1367.4 1220.5,1371.4 1244.8,1374.6 1269.2,1377.2 1293.7,1379.1 1318.3,1380.2 1342.8,1380.6 1367.4,1380.3 1391.9,1379.1 1416.4,1377.3 1440.8,1374.6 1465.1,1371.2 1489.3,1366.9 1513.3,1362.0 1537.2,1356.2 1560.9,1349.7 1584.3,1342.5 1607.6,1334.5 1630.5,1325.8 1653.2,1316.4 1675.7,1306.4 1697.8,1295.7 1719.5,1284.4 1741.0,1272.6 1762.0,1260.1 1782.7,1247.2 1803.0,1233.8 1822.9,1220.0 1842.3,1205.8 1861.3,1191.2 1879.8,1176.4 1897.9,1161.3  Z" style="stroke-width: 0.5;  stroke: rgb(0,0,0); fill: rgb(179,177,178);" />
</g>
<g id="plot0">
<g id="plot0-axis">
</g>
<line x1='2243.3' y1='1600.0' x2='2243.3' y2='1600.0' style="stroke-width:14.0;stroke:rgb(0,0,0);stroke-linecap:round;fill:none;" />
<line x1='2243.3' y1='1600.0' x2='2282.9' y2='1605.4' style="stroke-width:14.0;stroke:rgb(0,0,0);stroke-linecap:round;fill:none;" />
<line x1='2282.9' y1='1605.4' x2='2282.9' y2='1605.4' style="stroke-width:14.0;stroke:rgb(0,0,0);stroke-linecap:round;fill:none;" />
<text x="2299.5" y="1630.3" font-size="46.8px" font-family="CMUBright-Roman" style="text-anchor:start;fill:rgb(255,38,78);" transform="rotate(7.7,2299.5,1630.3)" >HistocapCB062<tspan baseline-shift="-40%" font-size="90%">s</tspan>00028</text>
</g>
<defs>
<pattern id="vline" width="10" height="10" patternTransform="rotate(0 0 0)" patternUnits="userSpaceOnUse"><line x1="0" y1="0" x2="0" y2="10" style="stroke:black;stroke-width:5" /></pattern>
<pattern id="hline-sparse" width="10" height="10" patternTransform="rotate(0 0 0)" patternUnits="userSpaceOnUse"><line x1="0" y1="0" x2="10" y2="0" style="stroke:black;stroke-width:2" /></pattern>
<pattern id="checker" width="10" height="10" patternTransform="rotate(45 0 0)" patternUnits="userSpaceOnUse"><line x1="0" y1="0" x2="10" y2="0" style="stroke:black;stroke-width:2" /><line x1="0" y1="0" x2="0" y2="10" style="stroke:black;stroke-width:2" /></pattern>
<pattern id="checker" width="10" height="10" patternTransform="rotate(45 0 0)" patternUnits="userSpaceOnUse"><line x1="0" y1="0" x2="10" y2="0" style="stroke:black;stroke-width:5" /><line x1="0" y1="0" x2="0" y2="10" style="stroke:black;stroke-width:4" /></pattern>
<pattern id="vline-sparse" width="10" height="10" patternTransform="rotate(0 0 0)" patternUnits="userSpaceOnUse"><line x1="0" y1="0" x2="0" y2="10" style="stroke:black;stroke-width:2" /></pattern>
<pattern id="hline" width="10" height="10" patternTransform="rotate(0 0 0)" patternUnits="userSpaceOnUse"><line x1="0" y1="0" x2="10" y2="0" style="stroke:black;stroke-width:5" /></pattern>
</defs>
</svg>
