<?xml version="1.0" encoding="utf-8" standalone="no"?>
<!DOCTYPE svg PUBLIC "-//W3C//DTD SVG 1.1//EN" "http://www.w3.org/Graphics/SVG/1.1/DTD/svg11.dtd">
<svg width="3000px" height="3000px" version="1.1" xmlns="http://www.w3.org/2000/svg" xmlns:xlink="http://www.w3.org/1999/xlink">
<g id="bg">
<rect x="0" y="0" width="3000px" height="3000px" style="fill:rgb(255,255,255);"/>
</g>
<g id="ideograms">
<path d="M1500.000,950.000 A550.000,550.000 40.000 0,1 1663.654,2025.088 L1723.165,2216.029 A750.000,750.000 0.000 0,0 1500.000,750.000 Z" style="stroke-width:2.0;stroke:rgb(0,0,0);stroke-linecap:round;fill:rgb(179,177,178);" />
<text x="2463.9" y="1353.3" font-size="46.8px" font-family="CMUBright-Roman" style="text-anchor:middle;fill:rgb(0,0,0);" transform="rotate(441.3,2463.9,1353.3)" >HistomissSECH85<tspan baseline-shift="-40%" font-size="90%">2</tspan></text>
<line x1='1517.8' y1='750.2' x2='1518.0' y2='738.2' style="stroke-width:8.0;stroke:rgb(150,150,150);stroke-linecap:round;fill:none;" />
<line x1='1616.3' y1='759.1' x2='1618.2' y2='747.2' style="stroke-width:8.0;stroke:rgb(150,150,150);stroke-linecap:round;fill:none;" />
<text x="1633.8" y="737.7" font-size="41.6px" font-family="CMUBright-Roman" style="text-anchor:start;fill:rgb(150,150,150);" transform="rotate(278.9,1633.8,737.7)" >450 kb</text>
<line x1='1712.8' y1='780.8' x2='1716.2' y2='769.3' style="stroke-width:8.0;stroke:rgb(150,150,150);stroke-linecap:round;fill:none;" />
<line x1='1805.7' y1='815.1' x2='1810.5' y2='804.2' style="stroke-width:8.0;stroke:rgb(150,150,150);stroke-linecap:round;fill:none;" />
<line x1='1893.2' y1='861.3' x2='1899.5' y2='851.1' style="stroke-width:8.0;stroke:rgb(150,150,150);stroke-linecap:round;fill:none;" />
<line x1='1973.8' y1='918.6' x2='1981.4' y2='909.3' style="stroke-width:8.0;stroke:rgb(150,150,150);stroke-linecap:round;fill:none;" />
<line x1='2046.2' y1='986.1' x2='2055.0' y2='977.8' style="stroke-width:8.0;stroke:rgb(150,150,150);stroke-linecap:round;fill:none;" />
<text x="2073.2" y="979.9" font-size="41.6px" font-family="CMUBright-Roman" style="text-anchor:start;fill:rgb(150,150,150);" transform="rotate(316.7,2073.2,979.9)" >500 kb</text>
<line x1='2109.1' y1='1062.4' x2='2118.9' y2='1055.4' style="stroke-width:8.0;stroke:rgb(150,150,150);stroke-linecap:round;fill:none;" />
<line x1='2161.4' y1='1146.4' x2='2172.0' y2='1140.8' style="stroke-width:8.0;stroke:rgb(150,150,150);stroke-linecap:round;fill:none;" />
<line x1='2202.2' y1='1236.6' x2='2213.5' y2='1232.4' style="stroke-width:8.0;stroke:rgb(150,150,150);stroke-linecap:round;fill:none;" />
<line x1='2230.8' y1='1331.3' x2='2242.5' y2='1328.6' style="stroke-width:8.0;stroke:rgb(150,150,150);stroke-linecap:round;fill:none;" />
<line x1='2246.6' y1='1429.0' x2='2258.6' y2='1427.9' style="stroke-width:8.0;stroke:rgb(150,150,150);stroke-linecap:round;fill:none;" />
<text x="2271.7" y="1440.7" font-size="41.6px" font-family="CMUBright-Roman" style="text-anchor:start;fill:rgb(150,150,150);" transform="rotate(354.6,2271.7,1440.7)" >550 kb</text>
<line x1='2249.5' y1='1527.9' x2='2261.5' y2='1528.3' style="stroke-width:8.0;stroke:rgb(150,150,150);stroke-linecap:round;fill:none;" />
<line x1='2239.3' y1='1626.3' x2='2251.1' y2='1628.3' style="stroke-width:8.0;stroke:rgb(150,150,150);stroke-linecap:round;fill:none;" />
<line x1='2216.2' y1='1722.5' x2='2227.7' y2='1726.1' style="stroke-width:8.0;stroke:rgb(150,150,150);stroke-linecap:round;fill:none;" />
<line x1='2180.7' y1='1814.9' x2='2191.6' y2='1819.9' style="stroke-width:8.0;stroke:rgb(150,150,150);stroke-linecap:round;fill:none;" />
<line x1='2133.3' y1='1901.8' x2='2143.4' y2='1908.2' style="stroke-width:8.0;stroke:rgb(150,150,150);stroke-linecap:round;fill:none;" />
<text x="2146.0" y="1926.4" font-size="41.6px" font-family="CMUBright-Roman" style="text-anchor:start;fill:rgb(150,150,150);" transform="rotate(32.4,2146.0,1926.4)" >600 kb</text>
<line x1='2074.9' y1='1981.6' x2='2084.1' y2='1989.3' style="stroke-width:8.0;stroke:rgb(150,150,150);stroke-linecap:round;fill:none;" />
<line x1='2006.5' y1='2053.1' x2='2014.6' y2='2062.0' style="stroke-width:8.0;stroke:rgb(150,150,150);stroke-linecap:round;fill:none;" />
<line x1='1929.3' y1='2115.0' x2='1936.2' y2='2124.8' style="stroke-width:8.0;stroke:rgb(150,150,150);stroke-linecap:round;fill:none;" />
<line x1='1844.6' y1='2166.2' x2='1850.1' y2='2176.8' style="stroke-width:8.0;stroke:rgb(150,150,150);stroke-linecap:round;fill:none;" />
<line x1='1753.9' y1='2205.7' x2='1758.0' y2='2217.0' style="stroke-width:8.0;stroke:rgb(150,150,150);stroke-linecap:round;fill:none;" />
<text x="1748.8" y="2232.9" font-size="41.6px" font-family="CMUBright-Roman" style="text-anchor:start;fill:rgb(150,150,150);" transform="rotate(70.2,1748.8,2232.9)" >650 kb</text>
<g id="highlighttrack_0">
<path d="M2032.829,1363.644 A550.000,550.000 40.000 0,1 2049.268,1471.635 L2249.002,1461.320 A750.000,750.000 0.000 0,0 2226.585,1314.060 Z" style="stroke-width:14.0;stroke:rgb(0,0,0);stroke-linecap:round;fill:rgb(255,38,78);" />
</g>
<path d="M1500.000,950.000 A550.000,550.000 40.000 0,1 1663.654,2025.088 L1723.165,2216.029 A750.000,750.000 0.000 0,0 1500.000,750.000 Z" style="stroke-width:2.0;stroke:rgb(0,0,0);stroke-linecap:round;fill:none;" />
<path d="M1448.404,2047.574 A550.000,550.000 40.000 0,1 1287.808,992.581 L1210.647,808.064 A750.000,750.000 0.000 0,0 1429.641,2246.692 Z" style="stroke-width:2.0;stroke:rgb(0,0,0);stroke-linecap:round;fill:rgb(179,177,178);" />
<text x="491.6" y="1653.5" font-size="46.8px" font-family="CMUBright-Roman" style="text-anchor:middle;fill:rgb(0,0,0);" transform="rotate(81.3,491.6,1653.5)" >HistoohiSECH98<tspan baseline-shift="-40%" font-size="90%">2</tspan></text>
<line x1='1156.0' y1='833.5' x2='1150.5' y2='822.9' style="stroke-width:8.0;stroke:rgb(150,150,150);stroke-linecap:round;fill:none;" />
<text x="1132.6" y="818.8" font-size="41.6px" font-family="CMUBright-Roman" style="text-anchor:end;fill:rgb(150,150,150);" transform="rotate(62.7,1132.6,818.8)" >450 kb</text>
<line x1='1071.3' y1='884.6' x2='1064.4' y2='874.8' style="stroke-width:8.0;stroke:rgb(150,150,150);stroke-linecap:round;fill:none;" />
<line x1='994.0' y1='946.4' x2='985.9' y2='937.6' style="stroke-width:8.0;stroke:rgb(150,150,150);stroke-linecap:round;fill:none;" />
<line x1='925.5' y1='1017.9' x2='916.3' y2='1010.2' style="stroke-width:8.0;stroke:rgb(150,150,150);stroke-linecap:round;fill:none;" />
<line x1='867.0' y1='1097.7' x2='856.9' y2='1091.3' style="stroke-width:8.0;stroke:rgb(150,150,150);stroke-linecap:round;fill:none;" />
<line x1='819.6' y1='1184.5' x2='808.7' y2='1179.5' style="stroke-width:8.0;stroke:rgb(150,150,150);stroke-linecap:round;fill:none;" />
<text x="792.0" y="1187.2" font-size="41.6px" font-family="CMUBright-Roman" style="text-anchor:end;fill:rgb(150,150,150);" transform="rotate(24.9,792.0,1187.2)" >500 kb</text>
<line x1='784.0' y1='1276.8' x2='772.5' y2='1273.3' style="stroke-width:8.0;stroke:rgb(150,150,150);stroke-linecap:round;fill:none;" />
<line x1='760.8' y1='1373.0' x2='749.0' y2='1371.0' style="stroke-width:8.0;stroke:rgb(150,150,150);stroke-linecap:round;fill:none;" />
<line x1='750.5' y1='1471.4' x2='738.6' y2='1471.0' style="stroke-width:8.0;stroke:rgb(150,150,150);stroke-linecap:round;fill:none;" />
<line x1='753.3' y1='1570.4' x2='741.4' y2='1571.5' style="stroke-width:8.0;stroke:rgb(150,150,150);stroke-linecap:round;fill:none;" />
<line x1='769.1' y1='1668.0' x2='757.4' y2='1670.7' style="stroke-width:8.0;stroke:rgb(150,150,150);stroke-linecap:round;fill:none;" />
<text x="748.9" y="1687.0" font-size="41.6px" font-family="CMUBright-Roman" style="text-anchor:end;fill:rgb(150,150,150);" transform="rotate(-12.9,748.9,1687.0)" >550 kb</text>
<line x1='797.6' y1='1762.8' x2='786.3' y2='1767.0' style="stroke-width:8.0;stroke:rgb(150,150,150);stroke-linecap:round;fill:none;" />
<line x1='838.3' y1='1853.0' x2='827.7' y2='1858.6' style="stroke-width:8.0;stroke:rgb(150,150,150);stroke-linecap:round;fill:none;" />
<line x1='890.5' y1='1937.0' x2='880.7' y2='1944.0' style="stroke-width:8.0;stroke:rgb(150,150,150);stroke-linecap:round;fill:none;" />
<line x1='953.3' y1='2013.5' x2='944.6' y2='2021.7' style="stroke-width:8.0;stroke:rgb(150,150,150);stroke-linecap:round;fill:none;" />
<line x1='1025.7' y1='2081.0' x2='1018.1' y2='2090.3' style="stroke-width:8.0;stroke:rgb(150,150,150);stroke-linecap:round;fill:none;" />
<text x="1021.4" y="2108.3" font-size="41.6px" font-family="CMUBright-Roman" style="text-anchor:end;fill:rgb(150,150,150);" transform="rotate(-50.8,1021.4,2108.3)" >600 kb</text>
<line x1='1106.3' y1='2138.3' x2='1100.0' y2='2148.6' style="stroke-width:8.0;stroke:rgb(150,150,150);stroke-linecap:round;fill:none;" />
<line x1='1193.7' y1='2184.6' x2='1188.8' y2='2195.6' style="stroke-width:8.0;stroke:rgb(150,150,150);stroke-linecap:round;fill:none;" />
<line x1='1286.5' y1='2219.0' x2='1283.1' y2='2230.5' style="stroke-width:8.0;stroke:rgb(150,150,150);stroke-linecap:round;fill:none;" />
<line x1='1383.0' y1='2240.8' x2='1381.2' y2='2252.7' style="stroke-width:8.0;stroke:rgb(150,150,150);stroke-linecap:round;fill:none;" />
<path d="M1448.404,2047.574 A550.000,550.000 40.000 0,1 1287.808,992.581 L1210.647,808.064 A750.000,750.000 0.000 0,0 1429.641,2246.692 Z" style="stroke-width:2.0;stroke:rgb(0,0,0);stroke-linecap:round;fill:none;" />
</g>
<g id="track_0">
<path d="M 1947.659,1769.458 A 522.500,522.500 0.00 0,1 1908.6,1825.7 L 1908.6,1825.7 1890.6,1811.6 1872.1,1797.9 1853.2,1784.6 1833.8,1771.7 1814.0,1759.3 1793.9,1747.4 1773.4,1736.1 1752.6,1725.5 1731.4,1715.6 1710.0,1706.5 1688.3,1698.1 1666.4,1690.5 1644.3,1683.7 1622.0,1677.8 1599.6,1672.8 1577.0,1668.7 1554.3,1665.5 1531.6,1663.2 1508.8,1661.9 1485.9,1661.6 1463.1,1662.1 1440.3,1663.6 1417.5,1666.1 1394.8,1669.4 1372.2,1673.7 1349.7,1678.9 1327.4,1684.9 1305.3,1691.8 1283.3,1699.4 1261.6,1707.9 1240.2,1717.1 1219.0,1727.0 1198.1,1737.6 1177.6,1748.8 1157.4,1760.5 1137.6,1772.8 1118.3,1785.5 1099.4,1798.6 1080.9,1812.0  A 522.500,522.500 0.00 0,1 1043.8,1754.7 L 1043.8,1754.7 1064.5,1743.4 1085.6,1732.5 1107.1,1721.9 1128.9,1711.7 1151.1,1701.9 1173.7,1692.7 1196.5,1684.0 1219.6,1675.8 1243.0,1668.3 1266.6,1661.4 1290.4,1655.1 1314.4,1649.5 1338.6,1644.7 1362.8,1640.5 1387.3,1637.1 1411.7,1634.4 1436.3,1632.5 1460.9,1631.3 1485.5,1631.0 1510.2,1631.4 1534.8,1632.5 1559.3,1634.5 1583.8,1637.2 1608.2,1640.7 1632.5,1644.9 1656.6,1649.8 1680.6,1655.5 1704.4,1661.9 1728.0,1668.9 1751.4,1676.6 1774.5,1684.9 1797.3,1693.8 1819.9,1703.2 1842.1,1713.2 1864.0,1723.7 1885.5,1734.6 1906.6,1745.9 1927.4,1757.5 1947.7,1769.5  Z" style="stroke-width: 0.5;  stroke: rgb(0,0,0); fill: rgb(179,177,178);" />
<path d="M 1788.752,1935.463 A 522.500,522.500 0.00 0,1 1730.1,1969.1 L 1730.1,1969.1 1720.7,1950.5 1711.0,1932.2 1700.9,1914.1 1690.5,1896.6 1679.7,1879.6 1668.6,1863.3 1657.3,1847.8 1645.7,1833.1 1633.9,1819.3 1621.8,1806.6 1609.5,1795.0 1597.1,1784.4 1584.5,1775.1 1571.8,1767.1 1559.0,1760.3 1546.1,1754.8 1533.1,1750.7 1520.0,1748.0 1507.0,1746.6 1493.9,1746.6 1480.8,1748.0 1467.8,1750.8 1454.8,1755.0 1441.9,1760.5 1429.1,1767.3 1416.4,1775.4 1403.8,1784.8 1391.4,1795.3 1379.2,1807.0 1367.2,1819.8 1355.4,1833.6 1343.9,1848.3 1332.6,1863.9 1321.6,1880.2 1310.9,1897.2 1300.5,1914.8 1290.4,1932.9 1280.8,1951.3 1271.5,1969.9  A 522.500,522.500 0.00 0,1 1212.7,1936.4 L 1212.7,1936.4 1224.6,1918.8 1236.9,1901.4 1249.7,1884.4 1262.9,1867.9 1276.4,1851.9 1290.3,1836.6 1304.6,1822.0 1319.1,1808.3 1333.9,1795.4 1349.0,1783.5 1364.3,1772.6 1379.8,1762.8 1395.5,1754.1 1411.4,1746.5 1427.4,1740.2 1443.5,1735.0 1459.7,1731.2 1475.9,1728.6 1492.2,1727.3 1508.5,1727.2 1524.8,1728.5 1541.1,1731.0 1557.3,1734.8 1573.4,1739.9 1589.4,1746.2 1605.3,1753.7 1621.1,1762.4 1636.6,1772.1 1652.0,1783.0 1667.1,1794.8 1681.9,1807.7 1696.5,1821.4 1710.8,1835.9 1724.7,1851.2 1738.3,1867.1 1751.6,1883.6 1764.4,1900.6 1776.8,1917.9 1788.8,1935.5  Z" style="stroke-width: 0.5;  stroke: rgb(0,0,0); fill: rgb(179,177,178);" />
<path d="M 1778.177,1057.706 A 522.500,522.500 0.00 0,1 1828.2,1093.5 L 1828.2,1093.5 1813.1,1111.8 1797.5,1130.0 1781.5,1148.1 1764.9,1165.9 1747.9,1183.5 1730.3,1200.8 1712.3,1217.7 1693.9,1234.2 1675.0,1250.3 1655.6,1266.0 1635.9,1281.2 1615.7,1295.8 1595.0,1309.9 1574.0,1323.5 1552.7,1336.5 1530.9,1348.8 1508.8,1360.5 1486.4,1371.6 1463.6,1382.0 1440.6,1391.8 1417.3,1400.9 1393.7,1409.3 1369.9,1417.0 1345.9,1424.0 1321.7,1430.4 1297.4,1436.0 1272.9,1441.0 1248.3,1445.3 1223.6,1449.0 1198.9,1452.0 1174.2,1454.3 1149.5,1456.1 1124.8,1457.2 1100.2,1457.8 1075.7,1457.8 1051.4,1457.3 1027.2,1456.3 1003.3,1454.8 979.6,1452.9  A 522.500,522.500 0.00 0,1 988.6,1392.8 L 988.6,1392.8 1011.3,1397.3 1034.2,1401.3 1057.4,1404.8 1080.8,1407.8 1104.4,1410.1 1128.1,1411.9 1151.8,1412.9 1175.7,1413.3 1199.5,1412.9 1223.3,1411.8 1247.0,1410.0 1270.6,1407.3 1294.0,1403.8 1317.3,1399.6 1340.4,1394.5 1363.3,1388.6 1385.9,1381.9 1408.3,1374.3 1430.3,1365.9 1452.0,1356.7 1473.3,1346.7 1494.3,1335.9 1514.8,1324.3 1535.0,1311.9 1554.7,1298.9 1573.9,1285.1 1592.7,1270.6 1611.0,1255.4 1628.9,1239.7 1646.2,1223.3 1663.0,1206.5 1679.3,1189.1 1695.0,1171.2 1710.2,1153.0 1724.9,1134.4 1739.0,1115.5 1752.6,1096.4 1765.7,1077.1 1778.2,1057.7  Z" style="stroke-width: 0.5;  stroke: rgb(0,0,0); fill: rgb(179,177,178);" />
<path d="M 1990.568,1320.142 A 522.500,522.500 0.00 0,1 2006.6,1371.9 L 2006.6,1371.9 1980.9,1378.4 1955.1,1384.8 1929.3,1391.2 1903.5,1397.5 1877.6,1403.8 1851.7,1410.0 1825.7,1416.2 1799.6,1422.3 1773.5,1428.3 1747.4,1434.3 1721.2,1440.2 1695.0,1446.1 1668.8,1451.9 1642.5,1457.6 1616.2,1463.2 1589.9,1468.8 1563.5,1474.3 1537.1,1479.7 1510.7,1485.0 1484.3,1490.3 1457.9,1495.5 1431.5,1500.6 1405.0,1505.6 1378.6,1510.5 1352.1,1515.4 1325.7,1520.2 1299.2,1524.9 1272.8,1529.5 1246.3,1534.1 1219.9,1538.6 1193.5,1543.0 1167.1,1547.3 1140.7,1551.6 1114.3,1555.8 1088.0,1559.9 1061.7,1564.0 1035.4,1568.0 1009.2,1571.9 983.0,1575.8  A 522.500,522.500 0.00 0,1 977.9,1521.6 L 977.9,1521.6 1003.7,1520.5 1029.7,1519.2 1055.7,1517.7 1081.8,1516.0 1108.0,1514.1 1134.3,1512.0 1160.7,1509.7 1187.1,1507.2 1213.6,1504.5 1240.1,1501.6 1266.7,1498.4 1293.2,1495.0 1319.8,1491.4 1346.4,1487.5 1373.0,1483.5 1399.6,1479.1 1426.2,1474.6 1452.7,1469.8 1479.2,1464.8 1505.7,1459.5 1532.1,1454.0 1558.5,1448.3 1584.8,1442.3 1611.0,1436.1 1637.1,1429.7 1663.2,1423.1 1689.1,1416.3 1715.0,1409.2 1740.7,1402.0 1766.3,1394.5 1791.8,1386.9 1817.2,1379.1 1842.4,1371.1 1867.5,1363.0 1892.4,1354.7 1917.2,1346.2 1941.8,1337.7 1966.3,1329.0 1990.6,1320.1  Z" style="stroke-width: 0.5;  stroke: rgb(0,0,0); fill: rgb(179,177,178);" />
<path d="M 1972.650,1722.730 A 522.500,522.500 0.00 0,1 1947.7,1769.4 L 1947.7,1769.4 1927.4,1757.5 1906.6,1745.8 1885.5,1734.5 1864.0,1723.6 1842.1,1713.2 1819.9,1703.2 1797.3,1693.8 1774.5,1684.9 1751.4,1676.6 1728.0,1668.9 1704.4,1661.8 1680.6,1655.5 1656.6,1649.8 1632.5,1644.8 1608.2,1640.6 1583.8,1637.1 1559.3,1634.4 1534.7,1632.5 1510.1,1631.3 1485.5,1630.9 1460.9,1631.2 1436.2,1632.4 1411.7,1634.3 1387.2,1636.9 1362.8,1640.3 1338.5,1644.5 1314.3,1649.3 1290.3,1654.9 1266.5,1661.1 1242.9,1668.0 1219.5,1675.6 1196.4,1683.7 1173.5,1692.4 1151.0,1701.6 1128.8,1711.3 1106.9,1721.5 1085.4,1732.1 1064.3,1743.1 1043.6,1754.3  A 522.500,522.500 0.00 0,1 1020.1,1706.5 L 1020.1,1706.5 1042.3,1697.2 1065.0,1688.1 1087.9,1679.4 1111.2,1671.0 1134.8,1663.0 1158.7,1655.4 1182.8,1648.3 1207.2,1641.7 1231.8,1635.6 1256.6,1630.0 1281.6,1624.9 1306.7,1620.5 1332.0,1616.6 1357.3,1613.3 1382.8,1610.6 1408.4,1608.5 1434.0,1607.0 1459.7,1606.2 1485.4,1606.0 1511.0,1606.4 1536.7,1607.5 1562.3,1609.2 1587.9,1611.5 1613.3,1614.5 1638.7,1618.0 1664.0,1622.2 1689.1,1627.0 1714.1,1632.3 1738.9,1638.2 1763.4,1644.6 1787.8,1651.6 1811.9,1659.0 1835.8,1666.9 1859.4,1675.3 1882.7,1684.1 1905.7,1693.2 1928.4,1702.8 1950.7,1712.6 1972.6,1722.7  Z" style="stroke-width: 0.5;  stroke: rgb(0,0,0); fill: rgb(179,177,178);" />
<path d="M 1963.622,1259.041 A 522.500,522.500 0.00 0,1 1983.8,1302.6 L 1983.8,1302.6 1960.1,1312.2 1936.1,1321.7 1911.9,1331.0 1887.6,1340.1 1863.0,1349.1 1838.3,1357.8 1813.4,1366.4 1788.3,1374.8 1763.1,1382.9 1737.7,1390.8 1712.2,1398.5 1686.5,1405.9 1660.8,1413.1 1634.9,1420.0 1608.8,1426.7 1582.7,1433.0 1556.5,1439.1 1530.3,1444.9 1503.9,1450.5 1477.5,1455.7 1451.0,1460.7 1424.5,1465.3 1398.0,1469.7 1371.4,1473.8 1344.8,1477.5 1318.2,1481.0 1291.7,1484.3 1265.1,1487.2 1238.6,1489.8 1212.1,1492.2 1185.7,1494.3 1159.3,1496.2 1133.0,1497.7 1106.8,1499.1 1080.7,1500.2 1054.7,1501.0 1028.8,1501.6 1003.1,1502.1 977.5,1502.3  A 522.500,522.500 0.00 0,1 979.5,1454.4 L 979.5,1454.4 1004.4,1456.4 1029.6,1458.2 1054.9,1459.7 1080.5,1460.8 1106.1,1461.7 1132.0,1462.1 1157.9,1462.3 1184.0,1462.0 1210.1,1461.4 1236.3,1460.4 1262.6,1459.0 1288.9,1457.2 1315.3,1455.0 1341.7,1452.4 1368.0,1449.3 1394.4,1445.9 1420.7,1442.0 1446.9,1437.6 1473.1,1432.9 1499.2,1427.7 1525.2,1422.1 1551.2,1416.1 1577.0,1409.6 1602.6,1402.8 1628.2,1395.5 1653.5,1387.9 1678.7,1379.9 1703.7,1371.5 1728.6,1362.7 1753.2,1353.6 1777.6,1344.2 1801.8,1334.5 1825.7,1324.5 1849.4,1314.1 1872.8,1303.6 1895.9,1292.7 1918.8,1281.7 1941.4,1270.5 1963.6,1259.0  Z" style="stroke-width: 0.5;  stroke: rgb(0,0,0); fill: rgb(179,177,178);" />
<path d="M 1700.245,1982.606 A 522.500,522.500 0.00 0,1 1661.2,1997.0 L 1661.2,1997.0 1654.7,1977.6 1647.9,1958.3 1640.8,1939.4 1633.4,1920.9 1625.7,1903.0 1617.8,1885.7 1609.6,1869.2 1601.2,1853.6 1592.6,1839.0 1583.7,1825.4 1574.7,1812.9 1565.4,1801.6 1556.1,1791.6 1546.5,1782.8 1536.9,1775.4 1527.1,1769.3 1517.2,1764.7 1507.2,1761.5 1497.2,1759.7 1487.1,1759.4 1477.0,1760.6 1466.8,1763.2 1456.7,1767.2 1446.5,1772.6 1436.4,1779.5 1426.4,1787.6 1416.4,1797.1 1406.5,1807.8 1396.7,1819.7 1387.1,1832.8 1377.6,1846.8 1368.2,1861.9 1359.0,1877.9 1350.1,1894.6 1341.3,1912.0 1332.8,1930.0 1324.6,1948.5 1316.7,1967.3 1309.0,1986.3  A 522.500,522.500 0.00 0,1 1271.4,1969.8 L 1271.4,1969.8 1280.6,1951.3 1290.2,1933.0 1300.2,1915.0 1310.4,1897.6 1320.9,1880.6 1331.8,1864.4 1342.8,1849.0 1354.1,1834.4 1365.5,1820.8 1377.2,1808.2 1389.0,1796.7 1400.9,1786.4 1413.0,1777.3 1425.1,1769.4 1437.3,1762.9 1449.6,1757.7 1461.8,1753.8 1474.1,1751.4 1486.4,1750.4 1498.7,1750.7 1510.9,1752.5 1523.0,1755.7 1535.0,1760.2 1546.9,1766.1 1558.7,1773.4 1570.4,1782.0 1581.9,1791.8 1593.2,1802.8 1604.3,1815.0 1615.1,1828.2 1625.8,1842.5 1636.2,1857.7 1646.3,1873.8 1656.1,1890.6 1665.6,1908.1 1674.8,1926.2 1683.6,1944.7 1692.1,1963.6 1700.2,1982.6  Z" style="stroke-width: 0.5;  stroke: rgb(0,0,0); fill: rgb(179,177,178);" />
<path d="M 1715.340,1023.938 A 522.500,522.500 0.00 0,1 1752.4,1042.5 L 1752.4,1042.5 1741.2,1062.3 1729.4,1082.0 1717.0,1101.6 1704.1,1120.8 1690.7,1139.8 1676.6,1158.4 1662.0,1176.6 1646.9,1194.3 1631.2,1211.5 1615.0,1228.0 1598.2,1244.0 1580.9,1259.3 1563.1,1273.8 1544.8,1287.7 1526.0,1300.7 1506.8,1313.0 1487.1,1324.4 1467.0,1335.0 1446.5,1344.7 1425.6,1353.6 1404.3,1361.6 1382.7,1368.7 1360.8,1374.9 1338.7,1380.2 1316.2,1384.6 1293.6,1388.1 1270.7,1390.8 1247.7,1392.6 1224.6,1393.5 1201.4,1393.7 1178.1,1393.0 1154.9,1391.6 1131.7,1389.5 1108.6,1386.6 1085.5,1383.1 1062.7,1379.0 1040.1,1374.3 1017.7,1369.1 995.7,1363.4  A 522.500,522.500 0.00 0,1 1008.1,1323.7 L 1008.1,1323.7 1029.3,1331.0 1050.7,1337.9 1072.5,1344.1 1094.4,1349.8 1116.5,1354.9 1138.8,1359.2 1161.1,1362.8 1183.4,1365.7 1205.8,1367.7 1228.0,1368.8 1250.2,1369.1 1272.2,1368.5 1294.1,1366.9 1315.7,1364.4 1337.1,1361.0 1358.2,1356.5 1378.9,1351.1 1399.4,1344.7 1419.4,1337.3 1439.1,1329.0 1458.4,1319.7 1477.2,1309.5 1495.5,1298.3 1513.4,1286.2 1530.7,1273.3 1547.6,1259.5 1563.9,1244.9 1579.6,1229.5 1594.8,1213.4 1609.5,1196.5 1623.6,1179.1 1637.1,1161.1 1650.0,1142.5 1662.3,1123.5 1674.1,1104.1 1685.3,1084.4 1695.9,1064.4 1705.9,1044.2 1715.3,1023.9  Z" style="stroke-width: 0.5;  stroke: rgb(0,0,0); fill: rgb(179,177,178);" />
<path d="M 1848.450,1889.344 A 522.500,522.500 0.00 0,1 1819.4,1913.5 L 1819.4,1913.5 1806.0,1896.6 1792.2,1880.0 1777.9,1863.7 1763.2,1847.9 1748.0,1832.7 1732.6,1818.1 1716.7,1804.3 1700.6,1791.2 1684.2,1779.0 1667.5,1767.7 1650.5,1757.4 1633.4,1748.1 1616.0,1739.9 1598.5,1732.8 1580.8,1726.8 1563.1,1722.0 1545.2,1718.4 1527.3,1715.9 1509.4,1714.8 1491.4,1714.8 1473.5,1716.0 1455.6,1718.5 1437.7,1722.2 1420.0,1727.1 1402.4,1733.1 1384.9,1740.3 1367.6,1748.6 1350.4,1758.0 1333.5,1768.3 1316.9,1779.7 1300.5,1792.0 1284.4,1805.1 1268.6,1819.0 1253.2,1833.6 1238.1,1848.9 1223.5,1864.8 1209.2,1881.1 1195.5,1897.7 1182.1,1914.7  A 522.500,522.500 0.00 0,1 1153.1,1890.7 L 1153.1,1890.7 1167.8,1874.5 1183.0,1858.6 1198.7,1843.1 1214.8,1828.1 1231.3,1813.6 1248.2,1799.7 1265.4,1786.5 1283.0,1774.1 1300.9,1762.5 1319.1,1751.7 1337.5,1741.9 1356.1,1733.1 1374.9,1725.3 1393.9,1718.5 1413.1,1712.8 1432.4,1708.2 1451.7,1704.7 1471.2,1702.4 1490.6,1701.2 1510.1,1701.1 1529.6,1702.3 1549.1,1704.5 1568.4,1707.9 1587.7,1712.4 1606.9,1718.1 1625.9,1724.8 1644.8,1732.5 1663.5,1741.3 1681.9,1751.0 1700.1,1761.7 1718.1,1773.2 1735.7,1785.6 1753.0,1798.7 1769.9,1812.5 1786.5,1826.9 1802.7,1841.9 1818.4,1857.4 1833.7,1873.2 1848.4,1889.3  Z" style="stroke-width: 0.5;  stroke: rgb(0,0,0); fill: rgb(179,177,178);" />
<path d="M 1908.067,1826.325 A 522.500,522.500 0.00 0,1 1885.0,1853.3 L 1885.0,1853.3 1868.3,1838.3 1851.0,1823.6 1833.4,1809.3 1815.3,1795.4 1796.7,1782.1 1777.8,1769.3 1758.5,1757.2 1738.9,1745.8 1719.0,1735.1 1698.7,1725.2 1678.3,1716.2 1657.5,1708.0 1636.6,1700.7 1615.5,1694.3 1594.2,1688.9 1572.8,1684.5 1551.3,1681.1 1529.7,1678.7 1508.0,1677.4 1486.3,1677.0 1464.6,1677.7 1442.9,1679.4 1421.3,1682.1 1399.8,1685.8 1378.3,1690.5 1357.0,1696.2 1335.9,1702.8 1314.9,1710.3 1294.1,1718.7 1273.6,1728.0 1253.3,1738.0 1233.3,1748.8 1213.7,1760.3 1194.4,1772.4 1175.4,1785.2 1156.9,1798.4 1138.7,1812.2 1121.1,1826.3 1103.9,1840.7  A 522.500,522.500 0.00 0,1 1081.3,1812.5 L 1081.3,1812.5 1099.7,1799.1 1118.6,1786.0 1137.9,1773.2 1157.7,1761.0 1177.8,1749.2 1198.4,1738.0 1219.2,1727.4 1240.3,1717.5 1261.8,1708.2 1283.5,1699.8 1305.4,1692.1 1327.5,1685.2 1349.8,1679.2 1372.3,1674.0 1394.8,1669.7 1417.5,1666.4 1440.3,1663.9 1463.1,1662.4 1485.9,1661.9 1508.7,1662.2 1531.5,1663.6 1554.2,1665.8 1576.9,1669.0 1599.4,1673.1 1621.9,1678.2 1644.1,1684.1 1666.2,1690.9 1688.1,1698.5 1709.7,1706.9 1731.1,1716.1 1752.3,1726.0 1773.1,1736.6 1793.5,1747.9 1813.7,1759.8 1833.4,1772.2 1852.7,1785.2 1871.6,1798.5 1890.1,1812.3 1908.1,1826.3  Z" style="stroke-width: 0.5;  stroke: rgb(0,0,0); fill: rgb(179,177,178);" />
<path d="M 2020.753,1542.695 A 522.500,522.500 0.00 0,1 2017.0,1575.9 L 2017.0,1575.9 1991.9,1572.4 1966.6,1569.0 1941.1,1565.9 1915.5,1563.1 1889.7,1560.5 1863.7,1558.1 1837.6,1556.1 1811.4,1554.4 1785.1,1553.0 1758.7,1551.8 1732.2,1551.1 1705.6,1550.6 1678.9,1550.5 1652.2,1550.7 1625.5,1551.3 1598.8,1552.3 1572.0,1553.6 1545.3,1555.2 1518.5,1557.2 1491.8,1559.6 1465.1,1562.3 1438.5,1565.4 1411.9,1568.8 1385.4,1572.6 1359.0,1576.7 1332.7,1581.1 1306.5,1585.9 1280.4,1591.0 1254.5,1596.5 1228.6,1602.2 1203.0,1608.2 1177.5,1614.5 1152.1,1621.1 1127.0,1627.9 1102.0,1635.0 1077.3,1642.3 1052.8,1649.9 1028.5,1657.6 1004.4,1665.5  A 522.500,522.500 0.00 0,1 994.7,1633.1 L 994.7,1633.1 1019.6,1626.6 1044.7,1620.3 1070.0,1614.1 1095.4,1608.1 1120.9,1602.2 1146.7,1596.6 1172.5,1591.1 1198.5,1585.9 1224.6,1580.8 1250.8,1576.0 1277.1,1571.4 1303.5,1567.0 1330.0,1562.9 1356.5,1559.0 1383.2,1555.4 1409.9,1552.0 1436.6,1548.8 1463.4,1546.0 1490.3,1543.3 1517.1,1541.0 1544.0,1538.9 1570.9,1537.0 1597.8,1535.4 1624.7,1534.1 1651.6,1533.0 1678.4,1532.2 1705.2,1531.7 1732.0,1531.3 1758.7,1531.3 1785.3,1531.4 1811.9,1531.9 1838.4,1532.5 1864.8,1533.3 1891.1,1534.4 1917.3,1535.7 1943.4,1537.2 1969.3,1538.8 1995.1,1540.7 2020.8,1542.7  Z" style="stroke-width: 0.5;  stroke: rgb(0,0,0); fill: rgb(179,177,178);" />
<path d="M 2022.396,1510.423 A 522.500,522.500 0.00 0,1 2020.8,1542.6 L 2020.8,1542.6 1995.1,1540.6 1969.3,1538.8 1943.3,1537.1 1917.3,1535.6 1891.1,1534.4 1864.8,1533.3 1838.4,1532.4 1811.9,1531.8 1785.3,1531.4 1758.7,1531.2 1731.9,1531.3 1705.2,1531.6 1678.4,1532.1 1651.5,1533.0 1624.7,1534.0 1597.8,1535.3 1570.9,1536.9 1544.0,1538.7 1517.1,1540.8 1490.2,1543.2 1463.4,1545.8 1436.6,1548.7 1409.8,1551.8 1383.1,1555.2 1356.5,1558.8 1329.9,1562.7 1303.4,1566.8 1277.0,1571.1 1250.7,1575.7 1224.5,1580.5 1198.4,1585.5 1172.4,1590.8 1146.6,1596.2 1120.9,1601.8 1095.3,1607.6 1069.9,1613.6 1044.6,1619.8 1019.5,1626.1 994.6,1632.5  A 522.500,522.500 0.00 0,1 987.4,1601.4 L 987.4,1601.4 1013.1,1596.4 1038.8,1591.4 1064.7,1586.6 1090.6,1581.9 1116.7,1577.3 1142.9,1572.9 1169.1,1568.5 1195.4,1564.3 1221.8,1560.2 1248.3,1556.3 1274.8,1552.5 1301.4,1548.9 1328.1,1545.4 1354.8,1542.1 1381.5,1538.9 1408.3,1535.9 1435.2,1533.0 1462.0,1530.3 1488.9,1527.8 1515.8,1525.4 1542.7,1523.2 1569.6,1521.2 1596.5,1519.3 1623.4,1517.6 1650.3,1516.1 1677.2,1514.7 1704.0,1513.5 1730.9,1512.4 1757.7,1511.5 1784.4,1510.8 1811.1,1510.2 1837.8,1509.8 1864.4,1509.5 1890.9,1509.3 1917.4,1509.3 1943.8,1509.4 1970.1,1509.6 1996.3,1510.0 2022.4,1510.4  Z" style="stroke-width: 0.5;  stroke: rgb(0,0,0); fill: rgb(179,177,178);" />
<path d="M 1752.482,1042.551 A 522.500,522.500 0.00 0,1 1774.8,1055.6 L 1774.8,1055.6 1762.5,1075.1 1749.6,1094.4 1736.1,1113.6 1722.2,1132.6 1707.7,1151.2 1692.6,1169.5 1677.0,1187.4 1660.9,1204.8 1644.2,1221.7 1627.0,1238.1 1609.3,1253.9 1591.2,1269.1 1572.5,1283.6 1553.4,1297.4 1533.8,1310.5 1513.7,1322.9 1493.3,1334.4 1472.4,1345.2 1451.2,1355.2 1429.6,1364.4 1407.7,1372.7 1385.5,1380.3 1362.9,1386.9 1340.1,1392.8 1317.1,1397.8 1293.9,1402.0 1270.5,1405.4 1247.0,1407.9 1223.3,1409.7 1199.6,1410.7 1175.8,1410.9 1152.1,1410.5 1128.4,1409.3 1104.8,1407.4 1081.3,1404.9 1057.9,1401.8 1034.8,1398.2 1011.9,1394.0 989.3,1389.4  A 522.500,522.500 0.00 0,1 995.5,1364.1 L 995.5,1364.1 1017.5,1369.8 1039.9,1375.0 1062.5,1379.7 1085.4,1383.8 1108.4,1387.3 1131.5,1390.1 1154.8,1392.2 1178.0,1393.6 1201.3,1394.2 1224.5,1394.0 1247.6,1393.0 1270.6,1391.2 1293.5,1388.5 1316.1,1384.9 1338.6,1380.5 1360.8,1375.2 1382.7,1368.9 1404.3,1361.8 1425.6,1353.8 1446.5,1345.0 1467.0,1335.2 1487.1,1324.6 1506.8,1313.1 1526.0,1300.9 1544.8,1287.8 1563.1,1273.9 1580.9,1259.4 1598.2,1244.1 1615.0,1228.1 1631.2,1211.5 1646.9,1194.4 1662.1,1176.7 1676.7,1158.5 1690.7,1139.9 1704.2,1120.9 1717.1,1101.6 1729.5,1082.1 1741.3,1062.4 1752.5,1042.6  Z" style="stroke-width: 0.5;  stroke: rgb(0,0,0); fill: rgb(179,177,178);" />
<path d="M 1818.563,1914.154 A 522.500,522.500 0.00 0,1 1798.6,1928.8 L 1798.6,1928.8 1786.2,1911.4 1773.3,1894.3 1760.0,1877.5 1746.3,1861.2 1732.2,1845.5 1717.8,1830.5 1703.0,1816.1 1687.9,1802.6 1672.6,1790.0 1656.9,1778.3 1641.1,1767.6 1625.0,1758.0 1608.7,1749.4 1592.3,1742.0 1575.7,1735.8 1559.1,1730.8 1542.3,1727.1 1525.5,1724.6 1508.7,1723.3 1491.8,1723.3 1475.0,1724.6 1458.2,1727.2 1441.4,1731.0 1424.8,1736.0 1408.2,1742.2 1391.8,1749.7 1375.6,1758.2 1359.5,1767.9 1343.7,1778.6 1328.1,1790.4 1312.7,1803.0 1297.7,1816.6 1282.9,1830.9 1268.5,1846.0 1254.5,1861.8 1240.8,1878.1 1227.5,1894.9 1214.7,1912.0 1202.3,1929.4  A 522.500,522.500 0.00 0,1 1182.4,1914.9 L 1182.4,1914.9 1195.7,1897.9 1209.4,1881.2 1223.7,1864.9 1238.3,1849.1 1253.3,1833.8 1268.8,1819.2 1284.5,1805.2 1300.6,1792.1 1317.0,1779.8 1333.6,1768.5 1350.5,1758.1 1367.6,1748.8 1384.9,1740.5 1402.3,1733.3 1419.9,1727.3 1437.7,1722.4 1455.5,1718.7 1473.4,1716.3 1491.3,1715.0 1509.2,1715.0 1527.1,1716.2 1545.0,1718.6 1562.8,1722.3 1580.6,1727.1 1598.2,1733.1 1615.6,1740.2 1633.0,1748.5 1650.1,1757.8 1667.0,1768.1 1683.7,1779.4 1700.1,1791.7 1716.2,1804.8 1732.0,1818.7 1747.4,1833.3 1762.5,1848.5 1777.1,1864.3 1791.4,1880.6 1805.2,1897.2 1818.6,1914.2  Z" style="stroke-width: 0.5;  stroke: rgb(0,0,0); fill: rgb(179,177,178);" />
<path d="M 2020.455,1453.814 A 522.500,522.500 0.00 0,1 2021.8,1473.7 L 2021.8,1473.7 1995.5,1475.0 1969.2,1476.5 1942.7,1478.0 1916.2,1479.6 1889.7,1481.4 1863.1,1483.2 1836.5,1485.1 1809.9,1487.1 1783.2,1489.2 1756.5,1491.4 1729.8,1493.7 1703.0,1496.1 1676.3,1498.6 1649.5,1501.2 1622.7,1504.0 1595.9,1506.8 1569.1,1509.8 1542.3,1512.9 1515.6,1516.1 1488.8,1519.4 1462.1,1522.8 1435.3,1526.3 1408.6,1529.9 1381.9,1533.6 1355.3,1537.5 1328.7,1541.4 1302.1,1545.5 1275.6,1549.6 1249.1,1553.9 1222.6,1558.2 1196.2,1562.6 1169.9,1567.2 1143.6,1571.8 1117.4,1576.5 1091.3,1581.3 1065.2,1586.1 1039.2,1591.0 1013.2,1596.0 987.4,1601.1  A 522.500,522.500 0.00 0,1 983.9,1581.5 L 983.9,1581.5 1010.2,1577.4 1036.5,1573.3 1062.8,1569.2 1089.2,1565.2 1115.6,1561.2 1142.0,1557.2 1168.4,1553.3 1194.9,1549.4 1221.5,1545.6 1248.0,1541.8 1274.6,1538.1 1301.1,1534.4 1327.7,1530.8 1354.4,1527.2 1381.0,1523.6 1407.7,1520.1 1434.3,1516.7 1461.0,1513.3 1487.7,1510.0 1514.4,1506.7 1541.1,1503.4 1567.8,1500.3 1594.5,1497.1 1621.2,1494.0 1647.9,1491.0 1674.6,1488.0 1701.3,1485.1 1727.9,1482.3 1754.6,1479.4 1781.3,1476.7 1807.9,1473.9 1834.6,1471.3 1861.2,1468.6 1887.8,1466.1 1914.4,1463.5 1940.9,1461.0 1967.5,1458.6 1994.0,1456.2 2020.5,1453.8  Z" style="stroke-width: 0.5;  stroke: rgb(0,0,0); fill: rgb(179,177,178);" />
<path d="M 1661.040,1997.064 A 522.500,522.500 0.00 0,1 1655.5,1998.8 L 1655.5,1998.8 1649.2,1979.4 1642.7,1960.1 1635.9,1941.1 1628.8,1922.6 1621.4,1904.6 1613.8,1887.3 1606.0,1870.8 1597.9,1855.2 1589.7,1840.6 1581.2,1827.0 1572.6,1814.5 1563.8,1803.2 1554.9,1793.2 1545.8,1784.5 1536.6,1777.1 1527.3,1771.1 1517.9,1766.5 1508.5,1763.4 1499.0,1761.7 1489.4,1761.5 1479.9,1762.8 1470.3,1765.5 1460.7,1769.6 1451.2,1775.2 1441.7,1782.2 1432.2,1790.5 1422.8,1800.1 1413.5,1811.0 1404.4,1823.1 1395.3,1836.3 1386.4,1850.5 1377.7,1865.8 1369.1,1881.9 1360.8,1898.8 1352.6,1916.5 1344.7,1934.6 1337.1,1953.3 1329.7,1972.3 1322.6,1991.5  A 522.500,522.500 0.00 0,1 1309.8,1986.7 L 1309.8,1986.7 1317.4,1967.6 1325.3,1948.8 1333.5,1930.3 1342.0,1912.3 1350.7,1894.9 1359.6,1878.1 1368.8,1862.1 1378.1,1847.1 1387.6,1833.0 1397.2,1819.9 1406.9,1808.0 1416.8,1797.3 1426.7,1787.8 1436.8,1779.6 1446.8,1772.8 1456.9,1767.3 1467.1,1763.3 1477.2,1760.7 1487.3,1759.5 1497.3,1759.8 1507.3,1761.6 1517.3,1764.8 1527.2,1769.4 1536.9,1775.5 1546.6,1782.9 1556.1,1791.6 1565.4,1801.7 1574.6,1813.0 1583.7,1825.4 1592.5,1839.0 1601.1,1853.7 1609.5,1869.3 1617.7,1885.8 1625.6,1903.0 1633.3,1920.9 1640.7,1939.4 1647.8,1958.4 1654.6,1977.6 1661.0,1997.1  Z" style="stroke-width: 0.5;  stroke: rgb(0,0,0); fill: rgb(179,177,178);" />
<path d="M 1798.486,1928.850 A 522.500,522.500 0.00 0,1 1789.5,1935.0 L 1789.5,1935.0 1777.5,1917.4 1765.1,1900.1 1752.2,1883.2 1738.9,1866.7 1725.3,1850.8 1711.3,1835.5 1697.0,1821.0 1682.4,1807.3 1667.5,1794.5 1652.4,1782.7 1637.0,1771.8 1621.4,1762.1 1605.6,1753.4 1589.7,1745.9 1573.7,1739.7 1557.5,1734.6 1541.3,1730.8 1525.0,1728.3 1508.6,1727.0 1492.3,1727.1 1476.0,1728.4 1459.7,1731.0 1443.5,1734.8 1427.3,1740.0 1411.3,1746.3 1395.4,1753.9 1379.7,1762.6 1364.2,1772.4 1348.8,1783.3 1333.7,1795.2 1318.9,1808.1 1304.3,1821.8 1290.1,1836.4 1276.2,1851.7 1262.6,1867.7 1249.4,1884.2 1236.6,1901.2 1224.2,1918.6 1212.3,1936.2  A 522.500,522.500 0.00 0,1 1203.4,1930.1 L 1203.4,1930.1 1215.7,1912.7 1228.5,1895.5 1241.7,1878.7 1255.3,1862.4 1269.3,1846.6 1283.7,1831.5 1298.4,1817.1 1313.4,1803.5 1328.7,1790.8 1344.3,1779.1 1360.1,1768.3 1376.1,1758.6 1392.3,1750.0 1408.7,1742.6 1425.2,1736.3 1441.8,1731.3 1458.5,1727.4 1475.3,1724.9 1492.1,1723.6 1508.9,1723.5 1525.7,1724.8 1542.5,1727.3 1559.2,1731.0 1575.9,1736.0 1592.4,1742.2 1608.8,1749.6 1625.0,1758.1 1641.1,1767.7 1656.9,1778.4 1672.5,1790.1 1687.9,1802.7 1703.0,1816.2 1717.7,1830.6 1732.2,1845.6 1746.3,1861.3 1759.9,1877.6 1773.2,1894.4 1786.1,1911.5 1798.5,1928.8  Z" style="stroke-width: 0.5;  stroke: rgb(0,0,0); fill: rgb(179,177,178);" />
</g>
<g id="plot0">
<g id="plot0-axis">
</g>
<line x1='2243.7' y1='1596.7' x2='2243.7' y2='1596.7' style="stroke-width:14.0;stroke:rgb(0,0,0);stroke-linecap:round;fill:none;" />
<line x1='2243.7' y1='1596.7' x2='2283.4' y2='1601.8' style="stroke-width:14.0;stroke:rgb(0,0,0);stroke-linecap:round;fill:none;" />
<line x1='2283.4' y1='1601.8' x2='2283.4' y2='1601.8' style="stroke-width:14.0;stroke:rgb(0,0,0);stroke-linecap:round;fill:none;" />
<text x="2300.0" y="1626.7" font-size="46.8px" font-family="CMUBright-Roman" style="text-anchor:start;fill:rgb(255,38,78);" transform="rotate(7.4,2300.0,1626.7)" >HistomissSECH85<tspan baseline-shift="-40%" font-size="90%">s</tspan>02414</text>
</g>
<defs>
<pattern id="checker" width="10" height="10" patternTransform="rotate(45 0 0)" patternUnits="userSpaceOnUse"><line x1="0" y1="0" x2="10" y2="0" style="stroke:black;stroke-width:5" /><line x1="0" y1="0" x2="0" y2="10" style="stroke:black;stroke-width:4" /></pattern>
<pattern id="checker" width="10" height="10" patternTransform="rotate(45 0 0)" patternUnits="userSpaceOnUse"><line x1="0" y1="0" x2="10" y2="0" style="stroke:black;stroke-width:2" /><line x1="0" y1="0" x2="0" y2="10" style="stroke:black;stroke-width:2" /></pattern>
<pattern id="vline-sparse" width="10" height="10" patternTransform="rotate(0 0 0)" patternUnits="userSpaceOnUse"><line x1="0" y1="0" x2="0" y2="10" style="stroke:black;stroke-width:2" /></pattern>
<pattern id="vline" width="10" height="10" patternTransform="rotate(0 0 0)" patternUnits="userSpaceOnUse"><line x1="0" y1="0" x2="0" y2="10" style="stroke:black;stroke-width:5" /></pattern>
<pattern id="hline-sparse" width="10" height="10" patternTransform="rotate(0 0 0)" patternUnits="userSpaceOnUse"><line x1="0" y1="0" x2="10" y2="0" style="stroke:black;stroke-width:2" /></pattern>
<pattern id="hline" width="10" height="10" patternTransform="rotate(0 0 0)" patternUnits="userSpaceOnUse"><line x1="0" y1="0" x2="10" y2="0" style="stroke:black;stroke-width:5" /></pattern>
</defs>
</svg>
