<?xml version="1.0" encoding="utf-8" standalone="no"?>
<!DOCTYPE svg PUBLIC "-//W3C//DTD SVG 1.1//EN" "http://www.w3.org/Graphics/SVG/1.1/DTD/svg11.dtd">
<svg width="3000px" height="3000px" version="1.1" xmlns="http://www.w3.org/2000/svg" xmlns:xlink="http://www.w3.org/1999/xlink">
<g id="bg">
<rect x="0" y="0" width="3000px" height="3000px" style="fill:rgb(255,255,255);"/>
</g>
<g id="ideograms">
<path d="M1500.000,950.000 A550.000,550.000 40.000 1,1 978.396,1325.559 L788.722,1262.126 A750.000,750.000 0.000 1,0 1500.000,750.000 Z" style="stroke-width:2.0;stroke:rgb(0,0,0);stroke-linecap:round;fill:rgb(179,177,178);" />
<text x="2096.0" y="2327.8" font-size="46.8px" font-family="CMUBright-Roman" style="text-anchor:middle;fill:rgb(0,0,0);" transform="rotate(-35.8,2096.0,2327.8)" >HistocapG184AR<tspan baseline-shift="-40%" font-size="90%">J</tspan>AEVHI010000004</text>
<line x1='1576.3' y1='753.9' x2='1577.5' y2='742.0' style="stroke-width:8.0;stroke:rgb(150,150,150);stroke-linecap:round;fill:none;" />
<line x1='1688.5' y1='774.1' x2='1691.5' y2='762.4' style="stroke-width:8.0;stroke:rgb(150,150,150);stroke-linecap:round;fill:none;" />
<line x1='1796.3' y1='811.0' x2='1801.0' y2='800.0' style="stroke-width:8.0;stroke:rgb(150,150,150);stroke-linecap:round;fill:none;" />
<line x1='1897.2' y1='863.8' x2='1903.6' y2='853.6' style="stroke-width:8.0;stroke:rgb(150,150,150);stroke-linecap:round;fill:none;" />
<text x="1921.7" y="851.0" font-size="41.6px" font-family="CMUBright-Roman" style="text-anchor:start;fill:rgb(150,150,150);" transform="rotate(302.0,1921.7,851.0)" >3000 kb</text>
<line x1='1989.0' y1='931.3' x2='1996.8' y2='922.2' style="stroke-width:8.0;stroke:rgb(150,150,150);stroke-linecap:round;fill:none;" />
<line x1='2069.5' y1='1012.0' x2='2078.6' y2='1004.1' style="stroke-width:8.0;stroke:rgb(150,150,150);stroke-linecap:round;fill:none;" />
<line x1='2136.8' y1='1103.9' x2='2147.0' y2='1097.5' style="stroke-width:8.0;stroke:rgb(150,150,150);stroke-linecap:round;fill:none;" />
<line x1='2189.5' y1='1204.9' x2='2200.5' y2='1200.2' style="stroke-width:8.0;stroke:rgb(150,150,150);stroke-linecap:round;fill:none;" />
<line x1='2226.2' y1='1312.7' x2='2237.9' y2='1309.7' style="stroke-width:8.0;stroke:rgb(150,150,150);stroke-linecap:round;fill:none;" />
<text x="2252.9" y="1320.3" font-size="41.6px" font-family="CMUBright-Roman" style="text-anchor:start;fill:rgb(150,150,150);" transform="rotate(345.5,2252.9,1320.3)" >3050 kb</text>
<line x1='2246.2' y1='1424.9' x2='2258.2' y2='1423.7' style="stroke-width:8.0;stroke:rgb(150,150,150);stroke-linecap:round;fill:none;" />
<line x1='2249.0' y1='1538.8' x2='2261.0' y2='1539.4' style="stroke-width:8.0;stroke:rgb(150,150,150);stroke-linecap:round;fill:none;" />
<line x1='2234.5' y1='1651.8' x2='2246.2' y2='1654.3' style="stroke-width:8.0;stroke:rgb(150,150,150);stroke-linecap:round;fill:none;" />
<line x1='2203.0' y1='1761.3' x2='2214.2' y2='1765.5' style="stroke-width:8.0;stroke:rgb(150,150,150);stroke-linecap:round;fill:none;" />
<line x1='2155.3' y1='1864.8' x2='2165.8' y2='1870.6' style="stroke-width:8.0;stroke:rgb(150,150,150);stroke-linecap:round;fill:none;" />
<text x="2169.4" y="1888.6" font-size="41.6px" font-family="CMUBright-Roman" style="text-anchor:start;fill:rgb(150,150,150);" transform="rotate(29.1,2169.4,1888.6)" >3100 kb</text>
<line x1='2092.5' y1='1959.9' x2='2102.0' y2='1967.2' style="stroke-width:8.0;stroke:rgb(150,150,150);stroke-linecap:round;fill:none;" />
<line x1='2016.0' y1='2044.3' x2='2024.2' y2='2053.0' style="stroke-width:8.0;stroke:rgb(150,150,150);stroke-linecap:round;fill:none;" />
<line x1='1927.6' y1='2116.2' x2='1934.4' y2='2126.0' style="stroke-width:8.0;stroke:rgb(150,150,150);stroke-linecap:round;fill:none;" />
<line x1='1829.3' y1='2173.8' x2='1834.6' y2='2184.6' style="stroke-width:8.0;stroke:rgb(150,150,150);stroke-linecap:round;fill:none;" />
<line x1='1723.4' y1='2215.9' x2='1727.0' y2='2227.4' style="stroke-width:8.0;stroke:rgb(150,150,150);stroke-linecap:round;fill:none;" />
<text x="1717.2" y="2242.9" font-size="41.6px" font-family="CMUBright-Roman" style="text-anchor:start;fill:rgb(150,150,150);" transform="rotate(72.7,1717.2,2242.9)" >3150 kb</text>
<line x1='1612.4' y1='2241.5' x2='1614.2' y2='2253.4' style="stroke-width:8.0;stroke:rgb(150,150,150);stroke-linecap:round;fill:none;" />
<line x1='1498.8' y1='2250.0' x2='1498.8' y2='2262.0' style="stroke-width:8.0;stroke:rgb(150,150,150);stroke-linecap:round;fill:none;" />
<line x1='1385.2' y1='2241.2' x2='1383.4' y2='2253.0' style="stroke-width:8.0;stroke:rgb(150,150,150);stroke-linecap:round;fill:none;" />
<line x1='1274.3' y1='2215.2' x2='1270.6' y2='2226.7' style="stroke-width:8.0;stroke:rgb(150,150,150);stroke-linecap:round;fill:none;" />
<line x1='1168.5' y1='2172.8' x2='1163.2' y2='2183.5' style="stroke-width:8.0;stroke:rgb(150,150,150);stroke-linecap:round;fill:none;" />
<text x="1170.5" y="2200.4" font-size="41.6px" font-family="CMUBright-Roman" style="text-anchor:end;fill:rgb(150,150,150);" transform="rotate(-63.8,1170.5,2200.4)" >3200 kb</text>
<line x1='1070.4' y1='2114.8' x2='1063.6' y2='2124.6' style="stroke-width:8.0;stroke:rgb(150,150,150);stroke-linecap:round;fill:none;" />
<line x1='982.3' y1='2042.6' x2='974.0' y2='2051.3' style="stroke-width:8.0;stroke:rgb(150,150,150);stroke-linecap:round;fill:none;" />
<line x1='906.0' y1='1957.9' x2='896.5' y2='1965.3' style="stroke-width:8.0;stroke:rgb(150,150,150);stroke-linecap:round;fill:none;" />
<line x1='843.5' y1='1862.7' x2='833.0' y2='1868.5' style="stroke-width:8.0;stroke:rgb(150,150,150);stroke-linecap:round;fill:none;" />
<line x1='796.2' y1='1759.1' x2='784.9' y2='1763.2' style="stroke-width:8.0;stroke:rgb(150,150,150);stroke-linecap:round;fill:none;" />
<text x="778.6" y="1780.4" font-size="41.6px" font-family="CMUBright-Roman" style="text-anchor:end;fill:rgb(150,150,150);" transform="rotate(-20.2,778.6,1780.4)" >3250 kb</text>
<line x1='765.0' y1='1649.5' x2='753.3' y2='1651.8' style="stroke-width:8.0;stroke:rgb(150,150,150);stroke-linecap:round;fill:none;" />
<line x1='750.9' y1='1536.4' x2='738.9' y2='1537.0' style="stroke-width:8.0;stroke:rgb(150,150,150);stroke-linecap:round;fill:none;" />
<line x1='754.0' y1='1422.5' x2='742.1' y2='1421.3' style="stroke-width:8.0;stroke:rgb(150,150,150);stroke-linecap:round;fill:none;" />
<line x1='774.4' y1='1310.4' x2='762.8' y2='1307.4' style="stroke-width:8.0;stroke:rgb(150,150,150);stroke-linecap:round;fill:none;" />
<g id="highlighttrack_0">
<path d="M2049.308,1472.420 A550.000,550.000 40.000 0,1 1299.623,2012.200 L1226.759,2198.455 A750.000,750.000 0.000 0,0 2249.056,1462.392 Z" style="stroke-width:14.0;stroke:rgb(0,0,0);stroke-linecap:round;fill:rgb(255,38,78);" />
</g>
<path d="M1500.000,950.000 A550.000,550.000 40.000 1,1 978.396,1325.559 L788.722,1262.126 A750.000,750.000 0.000 1,0 1500.000,750.000 Z" style="stroke-width:2.0;stroke:rgb(0,0,0);stroke-linecap:round;fill:none;" />
<path d="M1108.583,1113.616 A550.000,550.000 40.000 0,1 1257.708,1006.244 L1169.602,826.697 A750.000,750.000 0.000 0,0 966.250,973.112 Z" style="stroke-width:2.0;stroke:rgb(0,0,0);stroke-linecap:round;fill:rgb(179,177,178);" />
<text x="930.3" y="708.8" font-size="46.8px" font-family="CMUBright-Roman" style="text-anchor:middle;fill:rgb(0,0,0);" transform="rotate(-35.8,930.3,708.8)" >HistocapNACVFRHC10700582<tspan baseline-shift="-40%" font-size="90%">3</tspan>31</text>
<line x1='1071.4' y1='884.5' x2='1064.6' y2='874.7' style="stroke-width:8.0;stroke:rgb(150,150,150);stroke-linecap:round;fill:none;" />
<line x1='983.1' y1='956.5' x2='974.9' y2='947.8' style="stroke-width:8.0;stroke:rgb(150,150,150);stroke-linecap:round;fill:none;" />
<path d="M1108.583,1113.616 A550.000,550.000 40.000 0,1 1257.708,1006.244 L1169.602,826.697 A750.000,750.000 0.000 0,0 966.250,973.112 Z" style="stroke-width:2.0;stroke:rgb(0,0,0);stroke-linecap:round;fill:none;" />
</g>
<g id="track_0">
<path d="M 1309.250,1986.437 A 522.500,522.500 0.00 0,1 1198.4,1926.7 L 1198.4,1926.7 1211.2,1908.0 1223.7,1889.0 1235.8,1869.5 1247.4,1849.6 1258.5,1829.3 1268.9,1808.7 1278.7,1787.9 1287.8,1766.7 1296.1,1745.3 1303.7,1723.7 1310.4,1701.9 1316.3,1680.0 1321.3,1657.9 1325.3,1635.7 1328.5,1613.5 1330.7,1591.2 1331.9,1568.9 1332.1,1546.6 1331.3,1524.4 1329.6,1502.2 1326.9,1480.1 1323.2,1458.1 1318.5,1436.3 1312.9,1414.6 1306.3,1393.2 1298.9,1371.9 1290.5,1350.9 1281.3,1330.1 1271.2,1309.6 1260.4,1289.5 1248.8,1269.6 1236.5,1250.2 1223.6,1231.1 1210.1,1212.4 1196.0,1194.1 1181.5,1176.2 1166.5,1158.8 1151.2,1142.0 1135.6,1125.6  A 522.500,522.500 0.00 0,1 1235.1,1049.6 L 1235.1,1049.6 1247.1,1070.4 1258.8,1091.6 1270.2,1113.2 1281.3,1135.1 1291.9,1157.4 1302.2,1180.1 1312.0,1203.0 1321.4,1226.3 1330.2,1249.8 1338.5,1273.6 1346.2,1297.6 1353.4,1321.9 1359.9,1346.3 1365.9,1371.0 1371.2,1395.8 1375.9,1420.8 1379.9,1445.8 1383.2,1471.0 1385.9,1496.3 1387.9,1521.6 1389.2,1547.0 1389.9,1572.4 1389.9,1597.8 1389.2,1623.2 1387.8,1648.5 1385.9,1673.8 1383.2,1699.0 1380.0,1724.1 1376.1,1749.0 1371.7,1773.8 1366.7,1798.4 1361.1,1822.9 1355.0,1847.1 1348.4,1871.0 1341.4,1894.7 1333.9,1918.2 1326.1,1941.3 1317.8,1964.0 1309.2,1986.4  Z" style="stroke-width: 0.5;  stroke: rgb(0,0,0); fill: rgb(179,177,178);" />
<path d="M 2018.318,1434.024 A 522.500,522.500 0.00 0,1 2021.8,1473.2 L 2021.8,1473.2 1998.4,1474.1 1974.7,1474.6 1950.9,1474.6 1926.9,1474.0 1902.8,1472.9 1878.6,1471.1 1854.5,1468.8 1830.3,1465.7 1806.2,1462.1 1782.2,1457.7 1758.3,1452.6 1734.5,1446.8 1711.0,1440.4 1687.6,1433.1 1664.5,1425.2 1641.7,1416.5 1619.2,1407.1 1597.0,1397.0 1575.2,1386.1 1553.7,1374.6 1532.6,1362.3 1511.9,1349.3 1491.6,1335.7 1471.8,1321.5 1452.5,1306.6 1433.6,1291.1 1415.2,1275.0 1397.3,1258.3 1379.9,1241.2 1363.1,1223.5 1346.7,1205.4 1330.9,1186.9 1315.6,1168.0 1300.8,1148.8 1286.6,1129.4 1272.9,1109.7 1259.8,1089.8 1247.1,1069.7 1235.1,1049.7  A 522.500,522.500 0.00 0,1 1269.6,1031.0 L 1269.6,1031.0 1280.0,1051.6 1290.9,1072.1 1302.4,1092.4 1314.5,1112.6 1327.1,1132.6 1340.3,1152.2 1354.1,1171.4 1368.5,1190.3 1383.4,1208.7 1398.9,1226.6 1415.0,1244.0 1431.6,1260.8 1448.7,1276.9 1466.4,1292.4 1484.7,1307.3 1503.4,1321.4 1522.6,1334.8 1542.3,1347.4 1562.5,1359.3 1583.1,1370.4 1604.1,1380.6 1625.5,1390.1 1647.2,1398.8 1669.3,1406.6 1691.7,1413.7 1714.4,1419.9 1737.4,1425.3 1760.5,1430.0 1783.9,1433.8 1807.4,1436.9 1830.9,1439.2 1854.6,1440.8 1878.3,1441.7 1901.9,1441.9 1925.5,1441.5 1949.0,1440.5 1972.3,1438.8 1995.5,1436.7 2018.3,1434.0  Z" style="stroke-width: 0.5;  stroke: rgb(0,0,0); fill: rgb(179,177,178);" />
</g>
<g id="plot0">
<g id="plot0-axis">
</g>
<line x1='2007.0' y1='2052.7' x2='2007.0' y2='2052.7' style="stroke-width:14.0;stroke:rgb(0,0,0);stroke-linecap:round;fill:none;" />
<line x1='2007.0' y1='2052.7' x2='2034.1' y2='2082.1' style="stroke-width:14.0;stroke:rgb(0,0,0);stroke-linecap:round;fill:none;" />
<line x1='2034.1' y1='2082.1' x2='2034.1' y2='2082.1' style="stroke-width:14.0;stroke:rgb(0,0,0);stroke-linecap:round;fill:none;" />
<text x="2030.8" y="2111.9" font-size="46.8px" font-family="CMUBright-Roman" style="text-anchor:start;fill:rgb(255,38,78);" transform="rotate(47.5,2030.8,2111.9)" >HistocapG184AR<tspan baseline-shift="-40%" font-size="90%">s</tspan>00839</text>
</g>
<defs>
<pattern id="vline" width="10" height="10" patternTransform="rotate(0 0 0)" patternUnits="userSpaceOnUse"><line x1="0" y1="0" x2="0" y2="10" style="stroke:black;stroke-width:5" /></pattern>
<pattern id="vline-sparse" width="10" height="10" patternTransform="rotate(0 0 0)" patternUnits="userSpaceOnUse"><line x1="0" y1="0" x2="0" y2="10" style="stroke:black;stroke-width:2" /></pattern>
<pattern id="checker" width="10" height="10" patternTransform="rotate(45 0 0)" patternUnits="userSpaceOnUse"><line x1="0" y1="0" x2="10" y2="0" style="stroke:black;stroke-width:5" /><line x1="0" y1="0" x2="0" y2="10" style="stroke:black;stroke-width:4" /></pattern>
<pattern id="checker" width="10" height="10" patternTransform="rotate(45 0 0)" patternUnits="userSpaceOnUse"><line x1="0" y1="0" x2="10" y2="0" style="stroke:black;stroke-width:2" /><line x1="0" y1="0" x2="0" y2="10" style="stroke:black;stroke-width:2" /></pattern>
<pattern id="hline" width="10" height="10" patternTransform="rotate(0 0 0)" patternUnits="userSpaceOnUse"><line x1="0" y1="0" x2="10" y2="0" style="stroke:black;stroke-width:5" /></pattern>
<pattern id="hline-sparse" width="10" height="10" patternTransform="rotate(0 0 0)" patternUnits="userSpaceOnUse"><line x1="0" y1="0" x2="10" y2="0" style="stroke:black;stroke-width:2" /></pattern>
</defs>
</svg>
