<?xml version="1.0" encoding="utf-8" standalone="no"?>
<!DOCTYPE svg PUBLIC "-//W3C//DTD SVG 1.1//EN" "http://www.w3.org/Graphics/SVG/1.1/DTD/svg11.dtd">
<svg width="3000px" height="3000px" version="1.1" xmlns="http://www.w3.org/2000/svg" xmlns:xlink="http://www.w3.org/1999/xlink">
<g id="bg">
<rect x="0" y="0" width="3000px" height="3000px" style="fill:rgb(255,255,255);"/>
</g>
<g id="ideograms">
<path d="M1500.000,950.000 A550.000,550.000 40.000 0,1 1583.086,2043.688 L1613.299,2241.393 A750.000,750.000 0.000 0,0 1500.000,750.000 Z" style="stroke-width:2.0;stroke:rgb(0,0,0);stroke-linecap:round;fill:rgb(179,177,178);" />
<text x="2472.2" y="1426.1" font-size="46.8px" font-family="CMUBright-Roman" style="text-anchor:middle;fill:rgb(0,0,0);" transform="rotate(445.7,2472.2,1426.1)" >HistomissWU24<tspan baseline-shift="-40%" font-size="90%">C</tspan>P069110</text>
<line x1='1588.9' y1='755.3' x2='1590.3' y2='743.4' style="stroke-width:8.0;stroke:rgb(150,150,150);stroke-linecap:round;fill:none;" />
<line x1='1682.2' y1='772.5' x2='1685.1' y2='760.8' style="stroke-width:8.0;stroke:rgb(150,150,150);stroke-linecap:round;fill:none;" />
<text x="1701.6" y="752.7" font-size="41.6px" font-family="CMUBright-Roman" style="text-anchor:start;fill:rgb(150,150,150);" transform="rotate(284.1,1701.6,752.7)" >3550 kb</text>
<line x1='1772.6' y1='801.3' x2='1777.0' y2='790.1' style="stroke-width:8.0;stroke:rgb(150,150,150);stroke-linecap:round;fill:none;" />
<line x1='1858.7' y1='841.3' x2='1864.4' y2='830.8' style="stroke-width:8.0;stroke:rgb(150,150,150);stroke-linecap:round;fill:none;" />
<line x1='1939.0' y1='891.9' x2='1946.0' y2='882.2' style="stroke-width:8.0;stroke:rgb(150,150,150);stroke-linecap:round;fill:none;" />
<line x1='2012.3' y1='952.2' x2='2020.5' y2='943.4' style="stroke-width:8.0;stroke:rgb(150,150,150);stroke-linecap:round;fill:none;" />
<line x1='2077.3' y1='1021.3' x2='2086.6' y2='1013.6' style="stroke-width:8.0;stroke:rgb(150,150,150);stroke-linecap:round;fill:none;" />
<text x="2104.6" y="1016.8" font-size="41.6px" font-family="CMUBright-Roman" style="text-anchor:start;fill:rgb(150,150,150);" transform="rotate(320.3,2104.6,1016.8)" >3600 kb</text>
<line x1='2133.2' y1='1098.0' x2='2143.3' y2='1091.6' style="stroke-width:8.0;stroke:rgb(150,150,150);stroke-linecap:round;fill:none;" />
<line x1='2178.9' y1='1181.2' x2='2189.7' y2='1176.1' style="stroke-width:8.0;stroke:rgb(150,150,150);stroke-linecap:round;fill:none;" />
<line x1='2213.7' y1='1269.5' x2='2225.1' y2='1265.8' style="stroke-width:8.0;stroke:rgb(150,150,150);stroke-linecap:round;fill:none;" />
<line x1='2237.1' y1='1361.4' x2='2248.9' y2='1359.2' style="stroke-width:8.0;stroke:rgb(150,150,150);stroke-linecap:round;fill:none;" />
<line x1='2248.7' y1='1455.6' x2='2260.7' y2='1454.9' style="stroke-width:8.0;stroke:rgb(150,150,150);stroke-linecap:round;fill:none;" />
<text x="2273.3" y="1468.2" font-size="41.6px" font-family="CMUBright-Roman" style="text-anchor:start;fill:rgb(150,150,150);" transform="rotate(356.6,2273.3,1468.2)" >3650 kb</text>
<line x1='2248.3' y1='1550.5' x2='2260.3' y2='1551.3' style="stroke-width:8.0;stroke:rgb(150,150,150);stroke-linecap:round;fill:none;" />
<line x1='2235.9' y1='1644.6' x2='2247.7' y2='1646.9' style="stroke-width:8.0;stroke:rgb(150,150,150);stroke-linecap:round;fill:none;" />
<line x1='2211.8' y1='1736.4' x2='2223.2' y2='1740.1' style="stroke-width:8.0;stroke:rgb(150,150,150);stroke-linecap:round;fill:none;" />
<line x1='2176.2' y1='1824.3' x2='2187.1' y2='1829.5' style="stroke-width:8.0;stroke:rgb(150,150,150);stroke-linecap:round;fill:none;" />
<line x1='2129.9' y1='1907.1' x2='2139.9' y2='1913.7' style="stroke-width:8.0;stroke:rgb(150,150,150);stroke-linecap:round;fill:none;" />
<text x="2142.3" y="1931.9" font-size="41.6px" font-family="CMUBright-Roman" style="text-anchor:start;fill:rgb(150,150,150);" transform="rotate(32.9,2142.3,1931.9)" >3700 kb</text>
<line x1='2073.4' y1='1983.4' x2='2082.6' y2='1991.2' style="stroke-width:8.0;stroke:rgb(150,150,150);stroke-linecap:round;fill:none;" />
<line x1='2007.8' y1='2052.0' x2='2015.9' y2='2060.8' style="stroke-width:8.0;stroke:rgb(150,150,150);stroke-linecap:round;fill:none;" />
<line x1='1934.0' y1='2111.7' x2='1941.0' y2='2121.4' style="stroke-width:8.0;stroke:rgb(150,150,150);stroke-linecap:round;fill:none;" />
<line x1='1853.3' y1='2161.6' x2='1859.0' y2='2172.2' style="stroke-width:8.0;stroke:rgb(150,150,150);stroke-linecap:round;fill:none;" />
<line x1='1766.9' y1='2200.9' x2='1771.2' y2='2212.1' style="stroke-width:8.0;stroke:rgb(150,150,150);stroke-linecap:round;fill:none;" />
<text x="1762.3" y="2228.2" font-size="41.6px" font-family="CMUBright-Roman" style="text-anchor:start;fill:rgb(150,150,150);" transform="rotate(69.2,1762.3,2228.2)" >3750 kb</text>
<line x1='1676.3' y1='2229.0' x2='1679.1' y2='2240.7' style="stroke-width:8.0;stroke:rgb(150,150,150);stroke-linecap:round;fill:none;" />
<g id="highlighttrack_0">
<path d="M2024.672,1335.018 A550.000,550.000 40.000 0,1 2043.574,1583.829 L2241.237,1614.312 A750.000,750.000 0.000 0,0 2215.462,1275.025 Z" style="stroke-width:14.0;stroke:rgb(0,0,0);stroke-linecap:round;fill:rgb(255,38,78);" />
</g>
<path d="M1500.000,950.000 A550.000,550.000 40.000 0,1 1583.086,2043.688 L1613.299,2241.393 A750.000,750.000 0.000 0,0 1500.000,750.000 Z" style="stroke-width:2.0;stroke:rgb(0,0,0);stroke-linecap:round;fill:none;" />
<path d="M1375.579,2035.742 A550.000,550.000 40.000 0,1 1296.075,989.202 L1221.920,803.457 A750.000,750.000 0.000 0,0 1330.334,2230.557 Z" style="stroke-width:2.0;stroke:rgb(0,0,0);stroke-linecap:round;fill:rgb(179,177,178);" />
<text x="482.9" y="1577.3" font-size="46.8px" font-family="CMUBright-Roman" style="text-anchor:middle;fill:rgb(0,0,0);" transform="rotate(85.7,482.9,1577.3)" >HistomissSECH90<tspan baseline-shift="-40%" font-size="90%">1</tspan></text>
<line x1='1286.4' y1='2219.0' x2='1283.0' y2='2230.5' style="stroke-width:8.0;stroke:rgb(150,150,150);stroke-linecap:round;fill:none;" />
<text x="1293.1" y="2245.8" font-size="41.6px" font-family="CMUBright-Roman" style="text-anchor:end;fill:rgb(150,150,150);" transform="rotate(-73.5,1293.1,2245.8)" >1400 kb</text>
<line x1='1197.4' y1='2186.2' x2='1192.5' y2='2197.2' style="stroke-width:8.0;stroke:rgb(150,150,150);stroke-linecap:round;fill:none;" />
<line x1='1113.1' y1='2142.5' x2='1106.9' y2='2152.8' style="stroke-width:8.0;stroke:rgb(150,150,150);stroke-linecap:round;fill:none;" />
<line x1='1035.1' y1='2088.5' x2='1027.7' y2='2097.9' style="stroke-width:8.0;stroke:rgb(150,150,150);stroke-linecap:round;fill:none;" />
<line x1='964.5' y1='2025.1' x2='955.9' y2='2033.5' style="stroke-width:8.0;stroke:rgb(150,150,150);stroke-linecap:round;fill:none;" />
<line x1='902.5' y1='1953.3' x2='892.9' y2='1960.5' style="stroke-width:8.0;stroke:rgb(150,150,150);stroke-linecap:round;fill:none;" />
<text x="891.9" y="1978.9" font-size="41.6px" font-family="CMUBright-Roman" style="text-anchor:end;fill:rgb(150,150,150);" transform="rotate(-37.2,891.9,1978.9)" >1450 kb</text>
<line x1='850.0' y1='1874.2' x2='839.6' y2='1880.2' style="stroke-width:8.0;stroke:rgb(150,150,150);stroke-linecap:round;fill:none;" />
<line x1='808.0' y1='1789.1' x2='796.9' y2='1793.8' style="stroke-width:8.0;stroke:rgb(150,150,150);stroke-linecap:round;fill:none;" />
<line x1='777.0' y1='1699.4' x2='765.4' y2='1702.6' style="stroke-width:8.0;stroke:rgb(150,150,150);stroke-linecap:round;fill:none;" />
<line x1='757.6' y1='1606.5' x2='745.7' y2='1608.2' style="stroke-width:8.0;stroke:rgb(150,150,150);stroke-linecap:round;fill:none;" />
<line x1='750.1' y1='1511.9' x2='738.1' y2='1512.1' style="stroke-width:8.0;stroke:rgb(150,150,150);stroke-linecap:round;fill:none;" />
<text x="726.4" y="1526.3" font-size="41.6px" font-family="CMUBright-Roman" style="text-anchor:end;fill:rgb(150,150,150);" transform="rotate(-0.9,726.4,1526.3)" >1500 kb</text>
<line x1='754.6' y1='1417.2' x2='742.7' y2='1415.8' style="stroke-width:8.0;stroke:rgb(150,150,150);stroke-linecap:round;fill:none;" />
<line x1='771.0' y1='1323.7' x2='759.4' y2='1320.9' style="stroke-width:8.0;stroke:rgb(150,150,150);stroke-linecap:round;fill:none;" />
<line x1='799.1' y1='1233.0' x2='787.9' y2='1228.8' style="stroke-width:8.0;stroke:rgb(150,150,150);stroke-linecap:round;fill:none;" />
<line x1='838.4' y1='1146.7' x2='827.9' y2='1141.0' style="stroke-width:8.0;stroke:rgb(150,150,150);stroke-linecap:round;fill:none;" />
<line x1='888.3' y1='1066.0' x2='878.6' y2='1059.0' style="stroke-width:8.0;stroke:rgb(150,150,150);stroke-linecap:round;fill:none;" />
<text x="860.8" y="1063.6" font-size="41.6px" font-family="CMUBright-Roman" style="text-anchor:end;fill:rgb(150,150,150);" transform="rotate(35.4,860.8,1063.6)" >1550 kb</text>
<line x1='948.1' y1='992.2' x2='939.2' y2='984.1' style="stroke-width:8.0;stroke:rgb(150,150,150);stroke-linecap:round;fill:none;" />
<line x1='1016.6' y1='926.6' x2='1008.9' y2='917.4' style="stroke-width:8.0;stroke:rgb(150,150,150);stroke-linecap:round;fill:none;" />
<line x1='1092.9' y1='870.1' x2='1086.4' y2='860.0' style="stroke-width:8.0;stroke:rgb(150,150,150);stroke-linecap:round;fill:none;" />
<line x1='1175.7' y1='823.8' x2='1170.5' y2='812.9' style="stroke-width:8.0;stroke:rgb(150,150,150);stroke-linecap:round;fill:none;" />
<path d="M1375.579,2035.742 A550.000,550.000 40.000 0,1 1296.075,989.202 L1221.920,803.457 A750.000,750.000 0.000 0,0 1330.334,2230.557 Z" style="stroke-width:2.0;stroke:rgb(0,0,0);stroke-linecap:round;fill:none;" />
</g>
<g id="track_0">
<path d="M 1625.849,992.882 A 522.500,522.500 0.00 0,1 1822.5,1088.9 L 1822.5,1088.9 1808.7,1106.2 1794.3,1123.1 1779.4,1139.8 1764.1,1156.0 1748.3,1171.8 1732.0,1186.9 1715.3,1201.5 1698.2,1215.3 1680.7,1228.4 1662.9,1240.7 1644.6,1252.1 1626.1,1262.7 1607.3,1272.2 1588.2,1280.8 1568.8,1288.4 1549.2,1295.0 1529.4,1300.5 1509.4,1304.9 1489.2,1308.2 1468.9,1310.4 1448.5,1311.5 1428.0,1311.6 1407.5,1310.5 1386.9,1308.4 1366.4,1305.2 1345.8,1300.9 1325.4,1295.7 1305.0,1289.4 1284.7,1282.2 1264.6,1274.1 1244.7,1265.1 1225.0,1255.3 1205.6,1244.8 1186.4,1233.5 1167.5,1221.5 1149.0,1209.0 1130.9,1196.0 1113.2,1182.5 1095.9,1168.7  A 522.500,522.500 0.00 0,0 995.7,1363.5 L 995.7,1363.5 1017.1,1369.0 1038.7,1374.0 1060.6,1378.4 1082.6,1382.3 1104.7,1385.4 1126.8,1387.9 1148.9,1389.5 1170.9,1390.4 1192.8,1390.4 1214.4,1389.6 1235.8,1387.9 1257.0,1385.2 1277.8,1381.6 1298.3,1377.1 1318.3,1371.6 1338.0,1365.1 1357.1,1357.6 1375.8,1349.2 1394.0,1339.8 1411.6,1329.5 1428.6,1318.2 1445.0,1306.0 1460.9,1292.8 1476.1,1278.8 1490.6,1264.0 1504.6,1248.3 1517.8,1231.8 1530.4,1214.6 1542.3,1196.8 1553.6,1178.2 1564.2,1159.1 1574.1,1139.5 1583.4,1119.4 1592.0,1098.9 1600.0,1078.0 1607.4,1056.9 1614.1,1035.6 1620.3,1014.3 1625.8,992.9  Z" style="stroke-width: 0.5;  stroke: rgb(0,0,0); fill: rgb(179,177,178);" />
<path d="M 1500.000,977.500 A 522.500,522.500 0.00 0,1 1625.8,992.9 L 1625.8,992.9 1620.5,1013.4 1614.6,1033.8 1608.3,1053.9 1601.4,1073.8 1594.1,1093.3 1586.1,1112.2 1577.7,1130.5 1568.7,1148.1 1559.1,1165.0 1549.0,1181.0 1538.4,1196.1 1527.2,1210.3 1515.6,1223.4 1503.4,1235.5 1490.6,1246.4 1477.4,1256.3 1463.8,1264.9 1449.6,1272.3 1435.0,1278.5 1420.0,1283.5 1404.6,1287.2 1388.9,1289.7 1372.7,1290.9 1356.3,1290.9 1339.5,1289.7 1322.6,1287.3 1305.3,1283.7 1287.9,1279.0 1270.4,1273.2 1252.7,1266.4 1235.0,1258.5 1217.3,1249.7 1199.6,1240.1 1181.9,1229.6 1164.4,1218.4 1147.0,1206.6 1129.9,1194.2 1113.1,1181.3 1096.5,1168.0  A 522.500,522.500 0.00 0,1 1218.0,1060.2 L 1218.0,1060.2 1229.1,1077.2 1240.4,1094.0 1251.9,1110.5 1263.4,1126.4 1275.0,1141.7 1286.7,1156.3 1298.2,1170.1 1309.7,1183.0 1321.1,1195.0 1332.4,1205.8 1343.4,1215.5 1354.2,1224.0 1364.8,1231.3 1375.0,1237.3 1385.0,1241.9 1394.7,1245.2 1403.9,1247.1 1412.8,1247.5 1421.3,1246.6 1429.4,1244.2 1437.1,1240.4 1444.4,1235.2 1451.1,1228.6 1457.5,1220.7 1463.4,1211.4 1468.8,1200.8 1473.8,1189.0 1478.3,1176.0 1482.3,1161.8 1485.9,1146.7 1489.1,1130.5 1491.8,1113.4 1494.1,1095.6 1496.0,1077.0 1497.5,1057.8 1498.6,1038.1 1499.4,1018.1 1499.9,997.9 1500.0,977.5  Z" style="stroke-width: 0.5;  stroke: rgb(0,0,0); fill: rgb(179,177,178);" />
<path d="M 1916.850,1184.972 A 522.500,522.500 0.00 0,1 1980.4,1294.5 L 1980.4,1294.5 1956.7,1304.6 1932.8,1314.5 1908.8,1324.3 1884.5,1333.9 1860.1,1343.4 1835.5,1352.7 1810.7,1361.9 1785.8,1370.9 1760.7,1379.6 1735.5,1388.2 1710.1,1396.6 1684.6,1404.7 1659.0,1412.6 1633.3,1420.3 1607.5,1427.8 1581.5,1435.0 1555.5,1442.0 1529.4,1448.7 1503.2,1455.1 1477.0,1461.3 1450.7,1467.3 1424.4,1473.0 1398.0,1478.4 1371.6,1483.5 1345.1,1488.4 1318.7,1493.1 1292.2,1497.5 1265.8,1501.6 1239.4,1505.5 1213.0,1509.1 1186.6,1512.5 1160.3,1515.6 1134.1,1518.5 1107.9,1521.2 1081.8,1523.6 1055.8,1525.9 1029.9,1527.9 1004.1,1529.7 978.4,1531.3  A 522.500,522.500 0.00 0,1 986.2,1405.0 L 986.2,1405.0 1010.1,1409.2 1034.2,1413.1 1058.6,1416.5 1083.2,1419.6 1108.0,1422.2 1133.0,1424.3 1158.2,1425.9 1183.5,1427.0 1208.9,1427.6 1234.3,1427.7 1259.9,1427.2 1285.4,1426.1 1311.0,1424.4 1336.6,1422.1 1362.1,1419.2 1387.6,1415.7 1413.0,1411.6 1438.3,1406.9 1463.5,1401.6 1488.6,1395.7 1513.5,1389.2 1538.2,1382.0 1562.8,1374.3 1587.1,1366.0 1611.2,1357.2 1635.1,1347.8 1658.7,1337.8 1682.1,1327.3 1705.1,1316.4 1727.9,1304.9 1750.3,1293.0 1772.5,1280.7 1794.2,1268.0 1815.6,1254.9 1836.7,1241.4 1857.3,1227.7 1877.6,1213.7 1897.4,1199.4 1916.8,1185.0  Z" style="stroke-width: 0.5;  stroke: rgb(0,0,0); fill: rgb(179,177,178);" />
<path d="M 1611.921,2010.372 A 522.500,522.500 0.00 0,1 1578.9,2016.5 L 1578.9,2016.5 1575.4,1995.3 1571.4,1974.1 1566.8,1953.0 1561.6,1932.1 1555.8,1911.6 1549.3,1891.4 1542.2,1871.7 1534.5,1852.5 1526.1,1834.0 1517.0,1816.2 1507.2,1799.1 1496.8,1782.8 1485.7,1767.4 1473.9,1752.9 1461.5,1739.3 1448.3,1726.7 1434.6,1715.1 1420.2,1704.6 1405.2,1695.1 1389.6,1686.8 1373.4,1679.5 1356.7,1673.3 1339.4,1668.2 1321.7,1664.2 1303.5,1661.3 1284.9,1659.5 1265.9,1658.7 1246.6,1659.0 1226.9,1660.3 1207.1,1662.6 1187.0,1665.8 1166.7,1669.9 1146.4,1674.9 1126.0,1680.6 1105.7,1687.1 1085.4,1694.3 1065.3,1702.1 1045.3,1710.4 1025.7,1719.2  A 522.500,522.500 0.00 0,1 996.0,1637.9 L 996.0,1637.9 1017.3,1632.3 1038.9,1627.2 1060.7,1622.8 1082.6,1618.9 1104.6,1615.7 1126.6,1613.3 1148.5,1611.6 1170.3,1610.7 1192.0,1610.6 1213.5,1611.5 1234.7,1613.2 1255.7,1615.9 1276.2,1619.5 1296.4,1624.0 1316.2,1629.6 1335.6,1636.1 1354.4,1643.6 1372.8,1652.1 1390.5,1661.5 1407.8,1671.9 1424.4,1683.3 1440.4,1695.6 1455.8,1708.8 1470.6,1722.9 1484.7,1737.9 1498.1,1753.7 1510.8,1770.2 1522.9,1787.5 1534.3,1805.5 1545.0,1824.1 1555.0,1843.4 1564.4,1863.1 1573.1,1883.3 1581.1,1903.9 1588.5,1924.9 1595.3,1946.1 1601.4,1967.5 1606.9,1988.9 1611.9,2010.4  Z" style="stroke-width: 0.5;  stroke: rgb(0,0,0); fill: rgb(179,177,178);" />
<path d="M 1823.542,1089.724 A 522.500,522.500 0.00 0,1 1854.9,1116.6 L 1854.9,1116.6 1838.7,1133.8 1822.0,1150.9 1804.7,1167.7 1787.0,1184.3 1768.9,1200.6 1750.3,1216.5 1731.2,1232.1 1711.7,1247.2 1691.8,1261.9 1671.4,1276.0 1650.7,1289.6 1629.5,1302.7 1608.0,1315.2 1586.2,1327.0 1564.0,1338.2 1541.5,1348.8 1518.7,1358.7 1495.6,1368.0 1472.2,1376.5 1448.6,1384.3 1424.7,1391.4 1400.7,1397.8 1376.5,1403.5 1352.1,1408.5 1327.6,1412.7 1303.0,1416.2 1278.3,1419.1 1253.5,1421.2 1228.8,1422.7 1204.0,1423.5 1179.3,1423.6 1154.6,1423.1 1130.0,1422.0 1105.5,1420.4 1081.3,1418.1 1057.1,1415.4 1033.3,1412.2 1009.7,1408.5 986.3,1404.3  A 522.500,522.500 0.00 0,1 995.5,1364.1 L 995.5,1364.1 1018.0,1369.9 1040.8,1375.3 1063.9,1380.2 1087.2,1384.5 1110.8,1388.3 1134.5,1391.5 1158.4,1394.0 1182.4,1395.9 1206.4,1397.0 1230.4,1397.5 1254.5,1397.2 1278.5,1396.1 1302.4,1394.3 1326.3,1391.6 1350.0,1388.2 1373.6,1383.9 1397.0,1378.9 1420.1,1373.0 1443.1,1366.3 1465.8,1358.7 1488.2,1350.4 1510.3,1341.3 1532.1,1331.4 1553.5,1320.7 1574.6,1309.3 1595.3,1297.2 1615.7,1284.4 1635.5,1270.9 1655.0,1256.8 1674.0,1242.1 1692.6,1226.8 1710.7,1211.0 1728.3,1194.7 1745.5,1178.0 1762.1,1160.9 1778.3,1143.5 1793.9,1125.7 1809.0,1107.8 1823.5,1089.7  Z" style="stroke-width: 0.5;  stroke: rgb(0,0,0); fill: rgb(179,177,178);" />
<path d="M 1649.034,2000.794 A 522.500,522.500 0.00 0,1 1612.9,2010.2 L 1612.9,2010.2 1607.9,1988.7 1602.3,1967.2 1596.1,1945.9 1589.3,1924.7 1581.9,1903.7 1573.8,1883.1 1565.1,1862.9 1555.7,1843.1 1545.6,1823.9 1534.9,1805.3 1523.4,1787.3 1511.3,1770.0 1498.5,1753.4 1485.0,1737.6 1470.9,1722.7 1456.1,1708.5 1440.7,1695.3 1424.6,1683.0 1408.0,1671.6 1390.7,1661.2 1372.9,1651.7 1354.5,1643.2 1335.7,1635.7 1316.3,1629.1 1296.5,1623.6 1276.3,1619.0 1255.6,1615.3 1234.7,1612.6 1213.4,1610.9 1191.9,1610.0 1170.2,1610.0 1148.4,1610.8 1126.4,1612.5 1104.4,1614.9 1082.4,1618.1 1060.5,1621.9 1038.7,1626.3 1017.1,1631.3 995.7,1636.9  A 522.500,522.500 0.00 0,1 987.3,1600.6 L 987.3,1600.6 1009.3,1596.6 1031.6,1593.0 1054.1,1590.1 1076.7,1587.7 1099.4,1586.0 1122.1,1585.0 1144.7,1584.8 1167.3,1585.3 1189.8,1586.6 1212.1,1588.8 1234.1,1591.8 1255.9,1595.7 1277.4,1600.4 1298.5,1606.1 1319.3,1612.7 1339.6,1620.2 1359.5,1628.6 1378.9,1637.9 1397.9,1648.1 1416.2,1659.3 1434.1,1671.3 1451.4,1684.1 1468.1,1697.9 1484.1,1712.4 1499.6,1727.7 1514.5,1743.8 1528.7,1760.6 1542.2,1778.1 1555.1,1796.2 1567.4,1815.0 1579.0,1834.2 1589.9,1854.0 1600.3,1874.2 1609.9,1894.8 1619.0,1915.6 1627.4,1936.8 1635.2,1958.0 1642.4,1979.4 1649.0,2000.8  Z" style="stroke-width: 0.5;  stroke: rgb(0,0,0); fill: rgb(179,177,178);" />
<path d="M 2012.185,1603.311 A 522.500,522.500 0.00 0,1 2007.8,1623.2 L 2007.8,1623.2 1982.8,1617.3 1957.7,1611.5 1932.4,1605.9 1907.0,1600.4 1881.3,1595.2 1855.6,1590.1 1829.7,1585.3 1803.6,1580.7 1777.4,1576.4 1751.2,1572.3 1724.8,1568.4 1698.3,1564.8 1671.7,1561.4 1645.1,1558.4 1618.4,1555.6 1591.6,1553.0 1564.8,1550.8 1537.9,1548.8 1511.0,1547.1 1484.1,1545.7 1457.2,1544.6 1430.3,1543.8 1403.4,1543.2 1376.5,1543.0 1349.7,1543.0 1322.8,1543.3 1296.1,1543.9 1269.4,1544.7 1242.7,1545.8 1216.1,1547.2 1189.7,1548.8 1163.3,1550.7 1137.0,1552.8 1110.9,1555.1 1084.8,1557.7 1058.9,1560.5 1033.2,1563.4 1007.6,1566.6 982.2,1569.9  A 522.500,522.500 0.00 0,1 979.9,1549.7 L 979.9,1549.7 1005.6,1547.3 1031.5,1545.1 1057.6,1543.0 1083.7,1541.1 1110.0,1539.3 1136.3,1537.7 1162.8,1536.4 1189.3,1535.2 1215.9,1534.2 1242.6,1533.4 1269.4,1532.8 1296.2,1532.4 1323.0,1532.2 1349.9,1532.3 1376.8,1532.6 1403.7,1533.0 1430.7,1533.8 1457.7,1534.7 1484.6,1535.9 1511.6,1537.3 1538.5,1538.9 1565.4,1540.8 1592.3,1542.8 1619.2,1545.1 1646.0,1547.7 1672.7,1550.4 1699.4,1553.3 1726.0,1556.5 1752.6,1559.8 1779.0,1563.4 1805.4,1567.2 1831.7,1571.1 1857.8,1575.2 1883.9,1579.5 1909.8,1584.0 1935.6,1588.6 1961.3,1593.4 1986.8,1598.3 2012.2,1603.3  Z" style="stroke-width: 0.5;  stroke: rgb(0,0,0); fill: rgb(179,177,178);" />
<path d="M 1680.871,1990.196 A 522.500,522.500 0.00 0,1 1662.7,1996.5 L 1662.7,1996.5 1655.5,1975.2 1647.6,1953.9 1639.2,1932.7 1630.2,1911.7 1620.5,1890.9 1610.3,1870.4 1599.4,1850.2 1587.8,1830.5 1575.6,1811.3 1562.8,1792.6 1549.4,1774.5 1535.3,1757.0 1520.6,1740.2 1505.2,1724.0 1489.3,1708.7 1472.7,1694.0 1455.6,1680.2 1437.9,1667.2 1419.6,1655.1 1400.8,1643.8 1381.5,1633.4 1361.7,1623.9 1341.5,1615.2 1320.8,1607.5 1299.8,1600.6 1278.3,1594.6 1256.6,1589.5 1234.5,1585.3 1212.2,1582.0 1189.7,1579.4 1167.0,1577.7 1144.1,1576.8 1121.2,1576.6 1098.3,1577.2 1075.4,1578.4 1052.6,1580.3 1029.9,1582.9 1007.5,1585.9 985.2,1589.5  A 522.500,522.500 0.00 0,1 982.3,1570.6 L 982.3,1570.6 1004.8,1567.8 1027.6,1565.5 1050.6,1563.7 1073.7,1562.6 1096.9,1562.1 1120.1,1562.3 1143.3,1563.2 1166.4,1564.8 1189.5,1567.2 1212.3,1570.4 1235.0,1574.4 1257.4,1579.2 1279.6,1584.9 1301.4,1591.4 1322.9,1598.7 1344.0,1607.0 1364.7,1616.0 1384.9,1625.9 1404.7,1636.7 1424.1,1648.3 1442.9,1660.7 1461.1,1674.0 1478.9,1688.0 1496.0,1702.7 1512.6,1718.3 1528.6,1734.5 1544.0,1751.4 1558.8,1768.9 1573.0,1787.0 1586.5,1805.7 1599.5,1824.9 1611.8,1844.6 1623.5,1864.6 1634.5,1885.0 1645.0,1905.7 1654.8,1926.7 1664.1,1947.8 1672.8,1969.0 1680.9,1990.2  Z" style="stroke-width: 0.5;  stroke: rgb(0,0,0); fill: rgb(179,177,178);" />
<path d="M 2016.395,1579.638 A 522.500,522.500 0.00 0,1 2014.8,1589.3 L 2014.8,1589.3 1989.2,1585.0 1963.5,1580.7 1937.6,1576.6 1911.7,1572.6 1885.6,1568.8 1859.4,1565.1 1833.1,1561.6 1806.7,1558.2 1780.2,1555.1 1753.7,1552.1 1727.1,1549.2 1700.4,1546.6 1673.6,1544.2 1646.8,1541.9 1619.9,1539.9 1593.1,1538.0 1566.1,1536.4 1539.2,1534.9 1512.2,1533.7 1485.2,1532.7 1458.3,1531.8 1431.3,1531.2 1404.3,1530.8 1377.4,1530.6 1350.4,1530.6 1323.5,1530.8 1296.7,1531.2 1269.8,1531.7 1243.1,1532.5 1216.4,1533.5 1189.7,1534.6 1163.2,1535.9 1136.7,1537.4 1110.3,1539.1 1084.0,1540.9 1057.8,1542.9 1031.7,1545.0 1005.7,1547.3 979.9,1549.7  A 522.500,522.500 0.00 0,1 979.0,1539.9 L 979.0,1539.9 1005.0,1538.0 1031.1,1536.2 1057.4,1534.5 1083.7,1532.9 1110.1,1531.5 1136.5,1530.2 1163.1,1529.0 1189.7,1528.0 1216.4,1527.2 1243.2,1526.5 1270.0,1526.0 1296.8,1525.6 1323.7,1525.4 1350.6,1525.4 1377.5,1525.6 1404.5,1525.9 1431.5,1526.4 1458.4,1527.1 1485.4,1528.0 1512.4,1529.0 1539.4,1530.2 1566.3,1531.6 1593.3,1533.1 1620.2,1534.9 1647.0,1536.8 1673.9,1538.9 1700.6,1541.1 1727.4,1543.5 1754.1,1546.1 1780.7,1548.8 1807.2,1551.7 1833.7,1554.7 1860.1,1557.9 1886.4,1561.2 1912.6,1564.6 1938.7,1568.2 1964.7,1571.9 1990.6,1575.7 2016.4,1579.6  Z" style="stroke-width: 0.5;  stroke: rgb(0,0,0); fill: rgb(179,177,178);" />
<path d="M 1662.289,1996.657 A 522.500,522.500 0.00 0,1 1653.2,1999.5 L 1653.2,1999.5 1646.3,1978.2 1638.9,1956.9 1630.9,1935.6 1622.4,1914.5 1613.1,1893.7 1603.3,1873.2 1592.8,1853.0 1581.7,1833.3 1569.9,1814.1 1557.5,1795.4 1544.4,1777.3 1530.7,1759.8 1516.4,1743.1 1501.4,1727.0 1485.8,1711.7 1469.5,1697.2 1452.7,1683.5 1435.3,1670.7 1417.4,1658.7 1398.9,1647.6 1379.8,1637.4 1360.3,1628.1 1340.3,1619.7 1319.9,1612.2 1299.1,1605.6 1277.8,1600.0 1256.3,1595.2 1234.4,1591.3 1212.3,1588.3 1190.0,1586.1 1167.5,1584.8 1144.8,1584.3 1122.1,1584.5 1099.4,1585.5 1076.7,1587.1 1054.0,1589.5 1031.5,1592.4 1009.2,1595.9 987.2,1600.0  A 522.500,522.500 0.00 0,1 985.4,1590.6 L 985.4,1590.6 1007.6,1586.9 1030.1,1583.8 1052.8,1581.2 1075.6,1579.3 1098.4,1578.0 1121.3,1577.4 1144.2,1577.5 1167.0,1578.4 1189.7,1580.1 1212.2,1582.6 1234.5,1585.9 1256.6,1590.1 1278.3,1595.1 1299.8,1601.1 1320.8,1607.9 1341.5,1615.6 1361.7,1624.2 1381.5,1633.7 1400.8,1644.1 1419.5,1655.4 1437.8,1667.5 1455.5,1680.5 1472.6,1694.3 1489.1,1708.9 1505.1,1724.2 1520.4,1740.4 1535.1,1757.2 1549.2,1774.6 1562.6,1792.8 1575.4,1811.5 1587.5,1830.7 1599.1,1850.4 1609.9,1870.5 1620.2,1891.0 1629.8,1911.8 1638.8,1932.8 1647.2,1954.0 1655.0,1975.3 1662.3,1996.7  Z" style="stroke-width: 0.5;  stroke: rgb(0,0,0); fill: rgb(179,177,178);" />
<path d="M 1995.996,1335.700 A 522.500,522.500 0.00 0,1 1998.4,1343.3 L 1998.4,1343.3 1973.5,1351.0 1948.5,1358.7 1923.4,1366.3 1898.1,1373.8 1872.7,1381.1 1847.2,1388.4 1821.6,1395.5 1795.9,1402.5 1770.1,1409.4 1744.2,1416.1 1718.2,1422.6 1692.1,1429.1 1666.0,1435.3 1639.8,1441.4 1613.5,1447.4 1587.2,1453.2 1560.8,1458.8 1534.4,1464.2 1507.9,1469.5 1481.4,1474.6 1454.8,1479.5 1428.3,1484.2 1401.7,1488.8 1375.1,1493.2 1348.5,1497.4 1321.9,1501.5 1295.3,1505.4 1268.7,1509.1 1242.1,1512.6 1215.6,1516.0 1189.1,1519.2 1162.6,1522.2 1136.2,1525.1 1109.8,1527.8 1083.5,1530.4 1057.2,1532.8 1031.1,1535.1 1005.0,1537.2 979.0,1539.2  A 522.500,522.500 0.00 0,1 978.4,1531.3 L 978.4,1531.3 1004.4,1529.7 1030.4,1527.9 1056.5,1526.0 1082.7,1523.9 1109.0,1521.7 1135.4,1519.3 1161.8,1516.7 1188.2,1513.9 1214.8,1510.9 1241.3,1507.8 1267.9,1504.5 1294.5,1501.0 1321.1,1497.2 1347.7,1493.3 1374.3,1489.2 1400.9,1484.9 1427.5,1480.4 1454.1,1475.7 1480.6,1470.8 1507.2,1465.7 1533.6,1460.4 1560.1,1454.9 1586.4,1449.3 1612.7,1443.4 1639.0,1437.3 1665.1,1431.1 1691.2,1424.7 1717.2,1418.1 1743.2,1411.3 1769.0,1404.4 1794.7,1397.3 1820.3,1390.1 1845.8,1382.7 1871.1,1375.2 1896.4,1367.5 1921.5,1359.7 1946.5,1351.8 1971.3,1343.8 1996.0,1335.7  Z" style="stroke-width: 0.5;  stroke: rgb(0,0,0); fill: rgb(179,177,178);" />
</g>
<g id="plot0">
<g id="plot0-axis">
</g>
<line x1='2244.0' y1='1594.5' x2='2244.0' y2='1594.5' style="stroke-width:14.0;stroke:rgb(0,0,0);stroke-linecap:round;fill:none;" />
<line x1='2244.0' y1='1594.5' x2='2283.7' y2='1599.5' style="stroke-width:14.0;stroke:rgb(0,0,0);stroke-linecap:round;fill:none;" />
<line x1='2283.7' y1='1599.5' x2='2283.7' y2='1599.5' style="stroke-width:14.0;stroke:rgb(0,0,0);stroke-linecap:round;fill:none;" />
<text x="2300.5" y="1623.8" font-size="46.8px" font-family="CMUBright-Roman" style="text-anchor:start;fill:rgb(255,38,78);" transform="rotate(7.2,2300.5,1623.8)" >HistomissWU24<tspan baseline-shift="-40%" font-size="90%">s</tspan>02728</text>
</g>
<defs>
<pattern id="hline-sparse" width="10" height="10" patternTransform="rotate(0 0 0)" patternUnits="userSpaceOnUse"><line x1="0" y1="0" x2="10" y2="0" style="stroke:black;stroke-width:2" /></pattern>
<pattern id="vline" width="10" height="10" patternTransform="rotate(0 0 0)" patternUnits="userSpaceOnUse"><line x1="0" y1="0" x2="0" y2="10" style="stroke:black;stroke-width:5" /></pattern>
<pattern id="hline" width="10" height="10" patternTransform="rotate(0 0 0)" patternUnits="userSpaceOnUse"><line x1="0" y1="0" x2="10" y2="0" style="stroke:black;stroke-width:5" /></pattern>
<pattern id="checker" width="10" height="10" patternTransform="rotate(45 0 0)" patternUnits="userSpaceOnUse"><line x1="0" y1="0" x2="10" y2="0" style="stroke:black;stroke-width:2" /><line x1="0" y1="0" x2="0" y2="10" style="stroke:black;stroke-width:2" /></pattern>
<pattern id="vline-sparse" width="10" height="10" patternTransform="rotate(0 0 0)" patternUnits="userSpaceOnUse"><line x1="0" y1="0" x2="0" y2="10" style="stroke:black;stroke-width:2" /></pattern>
<pattern id="checker" width="10" height="10" patternTransform="rotate(45 0 0)" patternUnits="userSpaceOnUse"><line x1="0" y1="0" x2="10" y2="0" style="stroke:black;stroke-width:5" /><line x1="0" y1="0" x2="0" y2="10" style="stroke:black;stroke-width:4" /></pattern>
</defs>
</svg>
