<?xml version="1.0" encoding="utf-8" standalone="no"?>
<!DOCTYPE svg PUBLIC "-//W3C//DTD SVG 1.1//EN" "http://www.w3.org/Graphics/SVG/1.1/DTD/svg11.dtd">
<svg width="3000px" height="3000px" version="1.1" xmlns="http://www.w3.org/2000/svg" xmlns:xlink="http://www.w3.org/1999/xlink">
<g id="bg">
<rect x="0" y="0" width="3000px" height="3000px" style="fill:rgb(255,255,255);"/>
</g>
<g id="ideograms">
<path d="M1500.000,950.000 A550.000,550.000 40.000 0,1 1981.348,1233.910 L2156.384,1137.150 A750.000,750.000 0.000 0,0 1500.000,750.000 Z" style="stroke-width:2.0;stroke:rgb(0,0,0);stroke-linecap:round;fill:rgb(179,177,178);" />
<text x="1995.3" y="660.2" font-size="46.8px" font-family="CMUBright-Roman" style="text-anchor:middle;fill:rgb(0,0,0);" transform="rotate(390.5,1995.3,660.2)" >HistocapSECH110<tspan baseline-shift="-40%" font-size="90%">3</tspan>1</text>
<line x1='1649.5' y1='765.0' x2='1651.9' y2='753.3' style="stroke-width:8.0;stroke:rgb(150,150,150);stroke-linecap:round;fill:none;" />
<line x1='1793.0' y1='809.6' x2='1797.6' y2='798.5' style="stroke-width:8.0;stroke:rgb(150,150,150);stroke-linecap:round;fill:none;" />
<line x1='1924.7' y1='881.8' x2='1931.5' y2='871.9' style="stroke-width:8.0;stroke:rgb(150,150,150);stroke-linecap:round;fill:none;" />
<line x1='2039.4' y1='978.9' x2='2048.0' y2='970.5' style="stroke-width:8.0;stroke:rgb(150,150,150);stroke-linecap:round;fill:none;" />
<line x1='2132.4' y1='1096.8' x2='2142.5' y2='1090.4' style="stroke-width:8.0;stroke:rgb(150,150,150);stroke-linecap:round;fill:none;" />
<text x="2160.1" y="1095.8" font-size="41.6px" font-family="CMUBright-Roman" style="text-anchor:start;fill:rgb(150,150,150);" transform="rotate(327.5,2160.1,1095.8)" >50 kb</text>
<g id="highlighttrack_0">
<path d="M1838.595,1066.579 A550.000,550.000 40.000 0,1 1936.726,1165.679 L2095.535,1044.107 A750.000,750.000 0.000 0,0 1961.720,908.972 Z" style="stroke-width:14.0;stroke:rgb(0,0,0);stroke-linecap:round;fill:rgb(255,38,78);" />
</g>
<path d="M1500.000,950.000 A550.000,550.000 40.000 0,1 1981.348,1233.910 L2156.384,1137.150 A750.000,750.000 0.000 0,0 1500.000,750.000 Z" style="stroke-width:2.0;stroke:rgb(0,0,0);stroke-linecap:round;fill:none;" />
<path d="M2047.415,1553.260 A550.000,550.000 40.000 1,1 1188.549,1046.681 L1075.293,881.838 A750.000,750.000 0.000 1,0 2246.475,1572.628 Z" style="stroke-width:2.0;stroke:rgb(0,0,0);stroke-linecap:round;fill:rgb(179,177,178);" />
<text x="981.8" y="2378.6" font-size="46.8px" font-family="CMUBright-Roman" style="text-anchor:middle;fill:rgb(0,0,0);" transform="rotate(30.5,981.8,2378.6)" >HistocapCB062<tspan baseline-shift="-40%" font-size="90%">1</tspan></text>
<line x1='2230.9' y1='1668.2' x2='2242.6' y2='1670.9' style="stroke-width:8.0;stroke:rgb(150,150,150);stroke-linecap:round;fill:none;" />
<line x1='2182.7' y1='1810.5' x2='2193.6' y2='1815.5' style="stroke-width:8.0;stroke:rgb(150,150,150);stroke-linecap:round;fill:none;" />
<text x="2198.6" y="1833.1" font-size="41.6px" font-family="CMUBright-Roman" style="text-anchor:start;fill:rgb(150,150,150);" transform="rotate(24.5,2198.6,1833.1)" >4050 kb</text>
<line x1='2107.1' y1='1940.4' x2='2116.8' y2='1947.4' style="stroke-width:8.0;stroke:rgb(150,150,150);stroke-linecap:round;fill:none;" />
<line x1='2007.2' y1='2052.5' x2='2015.3' y2='2061.4' style="stroke-width:8.0;stroke:rgb(150,150,150);stroke-linecap:round;fill:none;" />
<line x1='1886.9' y1='2142.5' x2='1893.1' y2='2152.8' style="stroke-width:8.0;stroke:rgb(150,150,150);stroke-linecap:round;fill:none;" />
<line x1='1751.0' y1='2206.7' x2='1755.1' y2='2218.0' style="stroke-width:8.0;stroke:rgb(150,150,150);stroke-linecap:round;fill:none;" />
<line x1='1605.1' y1='2242.6' x2='1606.8' y2='2254.5' style="stroke-width:8.0;stroke:rgb(150,150,150);stroke-linecap:round;fill:none;" />
<text x="1594.6" y="2268.2" font-size="41.6px" font-family="CMUBright-Roman" style="text-anchor:start;fill:rgb(150,150,150);" transform="rotate(81.9,1594.6,2268.2)" >4100 kb</text>
<line x1='1455.0' y1='2248.6' x2='1454.3' y2='2260.6' style="stroke-width:8.0;stroke:rgb(150,150,150);stroke-linecap:round;fill:none;" />
<line x1='1306.7' y1='2224.7' x2='1303.6' y2='2236.3' style="stroke-width:8.0;stroke:rgb(150,150,150);stroke-linecap:round;fill:none;" />
<line x1='1166.1' y1='2171.6' x2='1160.8' y2='2182.3' style="stroke-width:8.0;stroke:rgb(150,150,150);stroke-linecap:round;fill:none;" />
<line x1='1039.0' y1='2091.6' x2='1031.6' y2='2101.0' style="stroke-width:8.0;stroke:rgb(150,150,150);stroke-linecap:round;fill:none;" />
<line x1='930.3' y1='1987.8' x2='921.2' y2='1995.6' style="stroke-width:8.0;stroke:rgb(150,150,150);stroke-linecap:round;fill:none;" />
<text x="921.3" y="2014.0" font-size="41.6px" font-family="CMUBright-Roman" style="text-anchor:end;fill:rgb(150,150,150);" transform="rotate(-40.6,921.3,2014.0)" >4150 kb</text>
<line x1='844.5' y1='1864.5' x2='834.0' y2='1870.3' style="stroke-width:8.0;stroke:rgb(150,150,150);stroke-linecap:round;fill:none;" />
<line x1='785.0' y1='1726.5' x2='773.6' y2='1730.1' style="stroke-width:8.0;stroke:rgb(150,150,150);stroke-linecap:round;fill:none;" />
<line x1='754.2' y1='1579.5' x2='742.3' y2='1580.7' style="stroke-width:8.0;stroke:rgb(150,150,150);stroke-linecap:round;fill:none;" />
<line x1='753.3' y1='1429.2' x2='741.4' y2='1428.1' style="stroke-width:8.0;stroke:rgb(150,150,150);stroke-linecap:round;fill:none;" />
<line x1='782.4' y1='1281.8' x2='771.0' y2='1278.3' style="stroke-width:8.0;stroke:rgb(150,150,150);stroke-linecap:round;fill:none;" />
<text x="755.5" y="1288.3" font-size="41.6px" font-family="CMUBright-Roman" style="text-anchor:end;fill:rgb(150,150,150);" transform="rotate(16.9,755.5,1288.3)" >4200 kb</text>
<line x1='840.3' y1='1143.2' x2='829.8' y2='1137.5' style="stroke-width:8.0;stroke:rgb(150,150,150);stroke-linecap:round;fill:none;" />
<line x1='924.7' y1='1018.9' x2='915.5' y2='1011.2' style="stroke-width:8.0;stroke:rgb(150,150,150);stroke-linecap:round;fill:none;" />
<line x1='1032.1' y1='913.8' x2='1024.6' y2='904.5' style="stroke-width:8.0;stroke:rgb(150,150,150);stroke-linecap:round;fill:none;" />
<path d="M2047.415,1553.260 A550.000,550.000 40.000 1,1 1188.549,1046.681 L1075.293,881.838 A750.000,750.000 0.000 1,0 2246.475,1572.628 Z" style="stroke-width:2.0;stroke:rgb(0,0,0);stroke-linecap:round;fill:none;" />
</g>
<g id="track_0">
<path d="M 1580.348,983.715 A 522.500,522.500 0.00 0,1 1732.1,1031.9 L 1732.1,1031.9 1720.5,1055.0 1708.7,1078.2 1696.8,1101.5 1684.6,1124.7 1672.3,1147.9 1659.7,1171.2 1647.0,1194.4 1634.0,1217.6 1620.8,1240.8 1607.5,1263.9 1593.9,1286.9 1580.1,1309.9 1566.1,1332.8 1551.9,1355.7 1537.6,1378.4 1523.0,1401.1 1508.2,1423.6 1493.2,1446.1 1478.1,1468.4 1462.7,1490.6 1447.2,1512.7 1431.5,1534.6 1415.6,1556.4 1399.5,1578.1 1383.3,1599.6 1367.0,1620.9 1350.5,1642.1 1333.8,1663.1 1317.1,1684.0 1300.2,1704.6 1283.1,1725.1 1266.0,1745.5 1248.8,1765.6 1231.5,1785.5 1214.1,1805.3 1196.7,1824.9 1179.2,1844.3 1161.6,1863.5 1144.0,1882.5  A 522.500,522.500 0.00 0,1 1045.3,1757.4 L 1045.3,1757.4 1066.1,1745.4 1086.9,1732.9 1107.5,1720.0 1128.1,1706.5 1148.5,1692.5 1168.8,1678.1 1188.8,1663.1 1208.5,1647.7 1228.0,1631.7 1247.1,1615.3 1265.8,1598.3 1284.2,1580.9 1302.1,1563.0 1319.6,1544.6 1336.7,1525.8 1353.2,1506.6 1369.3,1486.9 1384.9,1466.7 1399.9,1446.2 1414.3,1425.3 1428.2,1404.0 1441.6,1382.4 1454.3,1360.4 1466.5,1338.1 1478.1,1315.5 1489.1,1292.6 1499.5,1269.5 1509.3,1246.2 1518.5,1222.7 1527.2,1199.0 1535.2,1175.2 1542.7,1151.2 1549.7,1127.2 1556.1,1103.2 1561.9,1079.2 1567.3,1055.2 1572.1,1031.2 1576.5,1007.4 1580.3,983.7  Z" style="stroke-width: 0.5;  stroke: rgb(0,0,0); fill: rgb(179,177,178);" />
<path d="M 1914.436,1181.804 A 522.500,522.500 0.00 0,1 1954.2,1241.7 L 1954.2,1241.7 1932.8,1254.0 1911.3,1266.8 1889.9,1280.0 1868.6,1293.5 1847.3,1307.5 1826.1,1321.9 1805.1,1336.6 1784.2,1351.8 1763.5,1367.4 1743.0,1383.4 1722.7,1399.8 1702.7,1416.6 1682.9,1433.8 1663.4,1451.4 1644.3,1469.4 1625.4,1487.8 1606.9,1506.5 1588.7,1525.6 1570.8,1545.0 1553.4,1564.8 1536.3,1584.8 1519.6,1605.3 1503.3,1626.0 1487.4,1646.9 1472.0,1668.2 1456.9,1689.7 1442.3,1711.4 1428.1,1733.4 1414.3,1755.5 1400.9,1777.8 1388.0,1800.3 1375.5,1822.9 1363.5,1845.6 1351.8,1868.4 1340.6,1891.2 1329.8,1914.1 1319.3,1937.0 1309.3,1959.8 1299.7,1982.6  A 522.500,522.500 0.00 0,1 1234.6,1950.1 L 1234.6,1950.1 1247.7,1928.1 1261.0,1906.1 1274.6,1884.0 1288.5,1862.0 1302.6,1840.0 1316.9,1818.1 1331.5,1796.2 1346.4,1774.3 1361.6,1752.5 1377.0,1730.9 1392.6,1709.3 1408.6,1687.9 1424.7,1666.5 1441.2,1645.3 1457.8,1624.3 1474.7,1603.4 1491.9,1582.7 1509.3,1562.2 1526.9,1541.8 1544.8,1521.6 1562.8,1501.7 1581.1,1481.9 1599.6,1462.4 1618.3,1443.0 1637.1,1423.9 1656.1,1405.0 1675.3,1386.4 1694.7,1368.0 1714.2,1349.8 1733.8,1331.9 1753.6,1314.2 1773.5,1296.8 1793.4,1279.6 1813.5,1262.7 1833.6,1246.0 1853.7,1229.6 1874.0,1213.4 1894.2,1197.5 1914.4,1181.8  Z" style="stroke-width: 0.5;  stroke: rgb(0,0,0); fill: rgb(179,177,178);" />
<path d="M 1500.000,977.500 A 522.500,522.500 0.00 0,1 1549.6,979.9 L 1549.6,979.9 1547.1,1003.3 1544.1,1026.9 1540.7,1050.7 1536.6,1074.5 1532.0,1098.4 1526.9,1122.2 1521.1,1146.0 1514.7,1169.7 1507.6,1193.3 1500.0,1216.7 1491.6,1240.0 1482.6,1262.9 1473.0,1285.7 1462.6,1308.1 1451.7,1330.3 1440.0,1352.0 1427.7,1373.5 1414.7,1394.5 1401.1,1415.1 1386.9,1435.3 1372.0,1455.0 1356.6,1474.3 1340.5,1493.1 1323.9,1511.4 1306.7,1529.1 1289.0,1546.4 1270.8,1563.1 1252.2,1579.3 1233.1,1594.9 1213.6,1610.0 1193.8,1624.5 1173.6,1638.5 1153.1,1651.9 1132.4,1664.8 1111.4,1677.1 1090.3,1688.9 1069.1,1700.2 1047.8,1710.9 1026.6,1721.1  A 522.500,522.500 0.00 0,1 1008.0,1675.9 L 1008.0,1675.9 1029.6,1667.9 1051.2,1659.3 1072.8,1650.2 1094.3,1640.5 1115.6,1630.2 1136.6,1619.3 1157.4,1607.7 1177.8,1595.6 1197.9,1582.9 1217.5,1569.5 1236.6,1555.5 1255.3,1540.9 1273.4,1525.7 1290.9,1509.8 1307.9,1493.4 1324.2,1476.4 1339.8,1458.9 1354.7,1440.7 1369.0,1422.0 1382.5,1402.9 1395.3,1383.2 1407.3,1363.0 1418.6,1342.3 1429.1,1321.3 1438.9,1299.8 1447.9,1278.0 1456.1,1255.8 1463.6,1233.3 1470.3,1210.6 1476.3,1187.6 1481.6,1164.4 1486.1,1141.1 1490.0,1117.7 1493.2,1094.2 1495.7,1070.7 1497.6,1047.2 1499.0,1023.8 1499.8,1000.6 1500.0,977.5  Z" style="stroke-width: 0.5;  stroke: rgb(0,0,0); fill: rgb(179,177,178);" />
<path d="M 1758.660,1046.016 A 522.500,522.500 0.00 0,1 1783.0,1060.8 L 1783.0,1060.8 1768.6,1083.2 1754.1,1105.6 1739.6,1128.0 1725.1,1150.3 1710.5,1172.7 1695.8,1195.1 1681.2,1217.5 1666.5,1239.9 1651.7,1262.3 1636.9,1284.6 1622.1,1307.0 1607.3,1329.3 1592.4,1351.6 1577.4,1374.0 1562.5,1396.3 1547.5,1418.5 1532.4,1440.8 1517.3,1463.0 1502.2,1485.3 1487.1,1507.5 1471.9,1529.6 1456.7,1551.8 1441.5,1573.9 1426.2,1596.0 1410.9,1618.1 1395.6,1640.1 1380.2,1662.1 1364.8,1684.1 1349.4,1706.1 1334.0,1728.0 1318.5,1749.9 1303.0,1771.7 1287.6,1793.6 1272.0,1815.3 1256.5,1837.1 1241.0,1858.8 1225.4,1880.5 1209.9,1902.1 1194.3,1923.7  A 522.500,522.500 0.00 0,1 1171.5,1906.3 L 1171.5,1906.3 1188.0,1885.9 1204.5,1865.3 1220.9,1844.6 1237.3,1823.8 1253.7,1802.9 1270.0,1781.9 1286.3,1760.7 1302.5,1739.5 1318.7,1718.2 1334.8,1696.8 1350.8,1675.2 1366.7,1653.6 1382.6,1631.9 1398.3,1610.1 1414.0,1588.2 1429.6,1566.2 1445.1,1544.2 1460.5,1522.1 1475.8,1499.8 1491.1,1477.6 1506.2,1455.2 1521.2,1432.8 1536.0,1410.3 1550.8,1387.8 1565.5,1365.2 1580.0,1342.6 1594.5,1319.9 1608.8,1297.2 1623.0,1274.4 1637.1,1251.6 1651.1,1228.8 1664.9,1206.0 1678.6,1183.1 1692.3,1160.3 1705.8,1137.4 1719.2,1114.5 1732.4,1091.7 1745.6,1068.8 1758.7,1046.0  Z" style="stroke-width: 0.5;  stroke: rgb(0,0,0); fill: rgb(179,177,178);" />
<path d="M 1555.213,980.425 A 522.500,522.500 0.00 0,1 1580.2,983.7 L 1580.2,983.7 1576.3,1007.4 1572.0,1031.2 1567.1,1055.1 1561.8,1079.1 1555.9,1103.1 1549.6,1127.2 1542.6,1151.2 1535.1,1175.1 1527.1,1198.9 1518.4,1222.6 1509.2,1246.1 1499.4,1269.4 1489.0,1292.5 1478.0,1315.3 1466.4,1337.9 1454.2,1360.2 1441.4,1382.1 1428.1,1403.8 1414.1,1425.0 1399.7,1445.9 1384.6,1466.4 1369.1,1486.5 1353.0,1506.2 1336.4,1525.4 1319.3,1544.2 1301.8,1562.5 1283.8,1580.4 1265.5,1597.8 1246.7,1614.7 1227.6,1631.1 1208.1,1647.0 1188.3,1662.4 1168.3,1677.3 1148.1,1691.7 1127.6,1705.7 1107.0,1719.1 1086.3,1732.0 1065.5,1744.4 1044.7,1756.4  A 522.500,522.500 0.00 0,1 1033.0,1734.3 L 1033.0,1734.3 1054.1,1723.5 1075.2,1712.2 1096.2,1700.3 1117.0,1687.9 1137.8,1675.0 1158.3,1661.5 1178.6,1647.5 1198.6,1633.0 1218.2,1618.0 1237.5,1602.4 1256.4,1586.2 1274.9,1569.6 1292.9,1552.4 1310.5,1534.7 1327.5,1516.5 1344.0,1497.9 1360.0,1478.7 1375.4,1459.1 1390.1,1439.1 1404.3,1418.6 1417.9,1397.7 1430.9,1376.4 1443.2,1354.7 1454.9,1332.7 1465.9,1310.4 1476.3,1287.7 1486.0,1264.8 1495.1,1241.7 1503.6,1218.3 1511.4,1194.7 1518.6,1171.0 1525.1,1147.2 1531.1,1123.3 1536.5,1099.4 1541.3,1075.4 1545.6,1051.5 1549.3,1027.7 1552.5,1004.0 1555.2,980.4  Z" style="stroke-width: 0.5;  stroke: rgb(0,0,0); fill: rgb(179,177,178);" />
<path d="M 1783.366,1061.013 A 522.500,522.500 0.00 0,1 1802.1,1073.7 L 1802.1,1073.7 1786.7,1095.4 1771.3,1117.2 1755.9,1139.1 1740.5,1160.9 1725.1,1182.8 1709.7,1204.7 1694.3,1226.6 1679.0,1248.6 1663.7,1270.6 1648.4,1292.6 1633.1,1314.6 1617.8,1336.6 1602.5,1358.7 1587.3,1380.8 1572.0,1402.9 1556.8,1425.0 1541.7,1447.2 1526.5,1469.3 1511.4,1491.5 1496.3,1513.7 1481.2,1535.9 1466.1,1558.1 1451.1,1580.4 1436.1,1602.6 1421.1,1624.9 1406.1,1647.2 1391.2,1669.5 1376.3,1691.8 1361.4,1714.1 1346.6,1736.4 1331.7,1758.7 1316.9,1781.1 1302.2,1803.4 1287.4,1825.7 1272.7,1848.0 1258.0,1870.4 1243.4,1892.7 1228.7,1915.0 1214.1,1937.4  A 522.500,522.500 0.00 0,1 1195.2,1924.4 L 1195.2,1924.4 1210.7,1902.7 1226.2,1881.0 1241.7,1859.3 1257.2,1837.6 1272.7,1815.8 1288.2,1794.0 1303.7,1772.1 1319.1,1750.2 1334.5,1728.3 1349.9,1706.4 1365.3,1684.4 1380.6,1662.4 1396.0,1640.4 1411.3,1618.3 1426.6,1596.3 1441.8,1574.1 1457.0,1552.0 1472.2,1529.8 1487.4,1507.7 1502.5,1485.5 1517.6,1463.2 1532.7,1441.0 1547.7,1418.7 1562.7,1396.4 1577.7,1374.1 1592.6,1351.8 1607.5,1329.5 1622.3,1307.1 1637.2,1284.8 1651.9,1262.4 1666.7,1240.1 1681.4,1217.7 1696.1,1195.3 1710.7,1172.9 1725.3,1150.5 1739.9,1128.2 1754.4,1105.8 1768.9,1083.4 1783.4,1061.0  Z" style="stroke-width: 0.5;  stroke: rgb(0,0,0); fill: rgb(179,177,178);" />
<path d="M 1805.660,1076.234 A 522.500,522.500 0.00 0,1 1823.2,1089.5 L 1823.2,1089.5 1806.9,1110.2 1790.6,1131.0 1774.4,1152.0 1758.2,1173.0 1742.0,1194.1 1725.9,1215.3 1709.8,1236.6 1693.7,1258.0 1677.7,1279.4 1661.8,1301.0 1645.9,1322.6 1630.0,1344.3 1614.3,1366.1 1598.6,1387.9 1583.0,1409.8 1567.4,1431.8 1552.0,1453.9 1536.6,1476.0 1521.3,1498.2 1506.0,1520.5 1490.9,1542.8 1475.9,1565.1 1460.9,1587.5 1446.0,1610.0 1431.3,1632.5 1416.6,1655.1 1402.0,1677.6 1387.5,1700.2 1373.1,1722.9 1358.8,1745.6 1344.6,1768.3 1330.5,1791.0 1316.5,1813.7 1302.6,1836.4 1288.8,1859.1 1275.1,1881.9 1261.5,1904.6 1247.9,1927.3 1234.5,1950.0  A 522.500,522.500 0.00 0,1 1215.9,1938.5 L 1215.9,1938.5 1230.3,1916.1 1244.9,1893.8 1259.5,1871.4 1274.1,1849.1 1288.7,1826.7 1303.4,1804.3 1318.1,1782.0 1332.8,1759.6 1347.6,1737.3 1362.5,1715.0 1377.3,1692.6 1392.2,1670.3 1407.2,1648.0 1422.1,1625.7 1437.1,1603.5 1452.2,1581.2 1467.2,1559.0 1482.3,1536.8 1497.5,1514.6 1512.6,1492.4 1527.8,1470.2 1543.1,1448.1 1558.3,1426.0 1573.6,1403.9 1589.0,1381.8 1604.3,1359.8 1619.7,1337.8 1635.1,1315.8 1650.5,1293.9 1665.9,1272.0 1681.4,1250.1 1696.9,1228.3 1712.4,1206.4 1727.9,1184.6 1743.4,1162.9 1759.0,1141.2 1774.5,1119.5 1790.1,1097.8 1805.7,1076.2  Z" style="stroke-width: 0.5;  stroke: rgb(0,0,0); fill: rgb(179,177,178);" />
<path d="M 1739.585,1035.667 A 522.500,522.500 0.00 0,1 1756.4,1044.7 L 1756.4,1044.7 1743.5,1067.6 1730.4,1090.5 1717.2,1113.4 1704.0,1136.3 1690.6,1159.2 1677.0,1182.1 1663.4,1205.0 1649.6,1227.9 1635.7,1250.7 1621.7,1273.6 1607.6,1296.4 1593.4,1319.1 1579.0,1341.9 1564.5,1364.5 1549.9,1387.2 1535.2,1409.7 1520.3,1432.3 1505.4,1454.7 1490.3,1477.1 1475.1,1499.4 1459.8,1521.6 1444.4,1543.8 1429.0,1565.8 1413.4,1587.8 1397.7,1609.7 1381.9,1631.5 1366.1,1653.3 1350.1,1674.9 1334.1,1696.4 1318.0,1717.8 1301.9,1739.1 1285.6,1760.3 1269.3,1781.4 1253.0,1802.4 1236.6,1823.3 1220.2,1844.1 1203.7,1864.7 1187.2,1885.2 1170.7,1905.7  A 522.500,522.500 0.00 0,1 1156.2,1893.4 L 1156.2,1893.4 1173.3,1873.8 1190.3,1854.0 1207.3,1834.0 1224.3,1813.9 1241.2,1793.6 1258.0,1773.1 1274.8,1752.5 1291.5,1731.8 1308.1,1710.9 1324.6,1689.8 1341.0,1668.6 1357.2,1647.3 1373.4,1625.8 1389.4,1604.2 1405.3,1582.4 1421.1,1560.6 1436.7,1538.6 1452.2,1516.5 1467.6,1494.3 1482.7,1471.9 1497.8,1449.5 1512.6,1427.0 1527.4,1404.4 1541.9,1381.7 1556.3,1358.9 1570.5,1336.0 1584.5,1313.1 1598.4,1290.1 1612.1,1267.1 1625.6,1244.0 1638.9,1220.9 1652.1,1197.8 1665.1,1174.6 1678.0,1151.4 1690.6,1128.3 1703.1,1105.1 1715.4,1081.9 1727.6,1058.8 1739.6,1035.7  Z" style="stroke-width: 0.5;  stroke: rgb(0,0,0); fill: rgb(179,177,178);" />
</g>
<g id="plot0">
<g id="plot0-axis">
</g>
</g>
<defs>
<pattern id="hline-sparse" width="10" height="10" patternTransform="rotate(0 0 0)" patternUnits="userSpaceOnUse"><line x1="0" y1="0" x2="10" y2="0" style="stroke:black;stroke-width:2" /></pattern>
<pattern id="checker" width="10" height="10" patternTransform="rotate(45 0 0)" patternUnits="userSpaceOnUse"><line x1="0" y1="0" x2="10" y2="0" style="stroke:black;stroke-width:5" /><line x1="0" y1="0" x2="0" y2="10" style="stroke:black;stroke-width:4" /></pattern>
<pattern id="vline-sparse" width="10" height="10" patternTransform="rotate(0 0 0)" patternUnits="userSpaceOnUse"><line x1="0" y1="0" x2="0" y2="10" style="stroke:black;stroke-width:2" /></pattern>
<pattern id="vline" width="10" height="10" patternTransform="rotate(0 0 0)" patternUnits="userSpaceOnUse"><line x1="0" y1="0" x2="0" y2="10" style="stroke:black;stroke-width:5" /></pattern>
<pattern id="checker" width="10" height="10" patternTransform="rotate(45 0 0)" patternUnits="userSpaceOnUse"><line x1="0" y1="0" x2="10" y2="0" style="stroke:black;stroke-width:2" /><line x1="0" y1="0" x2="0" y2="10" style="stroke:black;stroke-width:2" /></pattern>
<pattern id="hline" width="10" height="10" patternTransform="rotate(0 0 0)" patternUnits="userSpaceOnUse"><line x1="0" y1="0" x2="10" y2="0" style="stroke:black;stroke-width:5" /></pattern>
</defs>
</svg>
