<?xml version="1.0" encoding="utf-8" standalone="no"?>
<!DOCTYPE svg PUBLIC "-//W3C//DTD SVG 1.1//EN" "http://www.w3.org/Graphics/SVG/1.1/DTD/svg11.dtd">
<svg width="3000px" height="3000px" version="1.1" xmlns="http://www.w3.org/2000/svg" xmlns:xlink="http://www.w3.org/1999/xlink">
<g id="bg">
<rect x="0" y="0" width="3000px" height="3000px" style="fill:rgb(255,255,255);"/>
</g>
<g id="ideograms">
<path d="M1500.000,950.000 A550.000,550.000 40.000 0,1 1660.623,2026.023 L1719.032,2217.304 A750.000,750.000 0.000 0,0 1500.000,750.000 Z" style="stroke-width:2.0;stroke:rgb(0,0,0);stroke-linecap:round;fill:rgb(179,177,178);" />
<text x="2464.3" y="1356.1" font-size="46.8px" font-family="CMUBright-Roman" style="text-anchor:middle;fill:rgb(0,0,0);" transform="rotate(441.5,2464.3,1356.1)" >HistoohiSECH99<tspan baseline-shift="-40%" font-size="90%">1</tspan></text>
<line x1='1520.5' y1='750.3' x2='1520.9' y2='738.3' style="stroke-width:8.0;stroke:rgb(150,150,150);stroke-linecap:round;fill:none;" />
<line x1='1618.5' y1='759.4' x2='1620.4' y2='747.6' style="stroke-width:8.0;stroke:rgb(150,150,150);stroke-linecap:round;fill:none;" />
<line x1='1714.5' y1='781.3' x2='1717.9' y2='769.8' style="stroke-width:8.0;stroke:rgb(150,150,150);stroke-linecap:round;fill:none;" />
<line x1='1806.7' y1='815.6' x2='1811.7' y2='804.6' style="stroke-width:8.0;stroke:rgb(150,150,150);stroke-linecap:round;fill:none;" />
<line x1='1893.7' y1='861.7' x2='1900.0' y2='851.4' style="stroke-width:8.0;stroke:rgb(150,150,150);stroke-linecap:round;fill:none;" />
<text x="1918.2" y="848.7" font-size="41.6px" font-family="CMUBright-Roman" style="text-anchor:start;fill:rgb(150,150,150);" transform="rotate(301.7,1918.2,848.7)" >4150 kb</text>
<line x1='1973.9' y1='918.7' x2='1981.5' y2='909.4' style="stroke-width:8.0;stroke:rgb(150,150,150);stroke-linecap:round;fill:none;" />
<line x1='2046.0' y1='985.8' x2='2054.7' y2='977.5' style="stroke-width:8.0;stroke:rgb(150,150,150);stroke-linecap:round;fill:none;" />
<line x1='2108.6' y1='1061.7' x2='2118.3' y2='1054.7' style="stroke-width:8.0;stroke:rgb(150,150,150);stroke-linecap:round;fill:none;" />
<line x1='2160.7' y1='1145.2' x2='2171.3' y2='1139.5' style="stroke-width:8.0;stroke:rgb(150,150,150);stroke-linecap:round;fill:none;" />
<line x1='2201.5' y1='1234.7' x2='2212.7' y2='1230.5' style="stroke-width:8.0;stroke:rgb(150,150,150);stroke-linecap:round;fill:none;" />
<text x="2228.8" y="1239.4" font-size="41.6px" font-family="CMUBright-Roman" style="text-anchor:start;fill:rgb(150,150,150);" transform="rotate(339.3,2228.8,1239.4)" >4200 kb</text>
<line x1='2230.2' y1='1328.9' x2='2241.9' y2='1326.1' style="stroke-width:8.0;stroke:rgb(150,150,150);stroke-linecap:round;fill:none;" />
<line x1='2246.3' y1='1426.0' x2='2258.3' y2='1424.8' style="stroke-width:8.0;stroke:rgb(150,150,150);stroke-linecap:round;fill:none;" />
<line x1='2249.6' y1='1524.3' x2='2261.6' y2='1524.7' style="stroke-width:8.0;stroke:rgb(150,150,150);stroke-linecap:round;fill:none;" />
<line x1='2240.0' y1='1622.3' x2='2251.8' y2='1624.2' style="stroke-width:8.0;stroke:rgb(150,150,150);stroke-linecap:round;fill:none;" />
<line x1='2217.6' y1='1718.1' x2='2229.1' y2='1721.6' style="stroke-width:8.0;stroke:rgb(150,150,150);stroke-linecap:round;fill:none;" />
<text x="2236.4" y="1738.5" font-size="41.6px" font-family="CMUBright-Roman" style="text-anchor:start;fill:rgb(150,150,150);" transform="rotate(16.9,2236.4,1738.5)" >4250 kb</text>
<line x1='2182.8' y1='1810.2' x2='2193.8' y2='1815.2' style="stroke-width:8.0;stroke:rgb(150,150,150);stroke-linecap:round;fill:none;" />
<line x1='2136.3' y1='1897.0' x2='2146.5' y2='1903.3' style="stroke-width:8.0;stroke:rgb(150,150,150);stroke-linecap:round;fill:none;" />
<line x1='2078.9' y1='1976.9' x2='2088.1' y2='1984.5' style="stroke-width:8.0;stroke:rgb(150,150,150);stroke-linecap:round;fill:none;" />
<line x1='2011.5' y1='2048.6' x2='2019.6' y2='2057.3' style="stroke-width:8.0;stroke:rgb(150,150,150);stroke-linecap:round;fill:none;" />
<line x1='1935.2' y1='2110.8' x2='1942.2' y2='2120.6' style="stroke-width:8.0;stroke:rgb(150,150,150);stroke-linecap:round;fill:none;" />
<text x="1937.7" y="2138.4" font-size="41.6px" font-family="CMUBright-Roman" style="text-anchor:start;fill:rgb(150,150,150);" transform="rotate(54.5,1937.7,2138.4)" >4300 kb</text>
<line x1='1851.5' y1='2162.5' x2='1857.1' y2='2173.1' style="stroke-width:8.0;stroke:rgb(150,150,150);stroke-linecap:round;fill:none;" />
<line x1='1761.7' y1='2202.9' x2='1765.9' y2='2214.1' style="stroke-width:8.0;stroke:rgb(150,150,150);stroke-linecap:round;fill:none;" />
<g id="highlighttrack_0">
<path d="M2031.856,1359.896 A550.000,550.000 40.000 0,1 2049.586,1478.671 L2249.436,1470.915 A750.000,750.000 0.000 0,0 2225.258,1308.950 Z" style="stroke-width:14.0;stroke:rgb(0,0,0);stroke-linecap:round;fill:rgb(255,38,78);" />
</g>
<path d="M1500.000,950.000 A550.000,550.000 40.000 0,1 1660.623,2026.023 L1719.032,2217.304 A750.000,750.000 0.000 0,0 1500.000,750.000 Z" style="stroke-width:2.0;stroke:rgb(0,0,0);stroke-linecap:round;fill:none;" />
<path d="M1446.402,2047.382 A550.000,550.000 40.000 0,1 1288.880,992.134 L1212.109,807.455 A750.000,750.000 0.000 0,0 1426.912,2246.430 Z" style="stroke-width:2.0;stroke:rgb(0,0,0);stroke-linecap:round;fill:rgb(179,177,178);" />
<text x="491.2" y="1650.6" font-size="46.8px" font-family="CMUBright-Roman" style="text-anchor:middle;fill:rgb(0,0,0);" transform="rotate(81.5,491.2,1650.6)" >HistosurSECH104<tspan baseline-shift="-40%" font-size="90%">1</tspan></text>
<line x1='1169.0' y1='827.0' x2='1163.7' y2='816.2' style="stroke-width:8.0;stroke:rgb(150,150,150);stroke-linecap:round;fill:none;" />
<line x1='1083.8' y1='876.1' x2='1077.1' y2='866.1' style="stroke-width:8.0;stroke:rgb(150,150,150);stroke-linecap:round;fill:none;" />
<text x="1058.9" y="864.0" font-size="41.6px" font-family="CMUBright-Roman" style="text-anchor:end;fill:rgb(150,150,150);" transform="rotate(56.3,1058.9,864.0)" >2750 kb</text>
<line x1='1005.6' y1='936.0' x2='997.7' y2='927.0' style="stroke-width:8.0;stroke:rgb(150,150,150);stroke-linecap:round;fill:none;" />
<line x1='936.0' y1='1005.6' x2='927.0' y2='997.7' style="stroke-width:8.0;stroke:rgb(150,150,150);stroke-linecap:round;fill:none;" />
<line x1='876.2' y1='1083.7' x2='866.2' y2='1077.0' style="stroke-width:8.0;stroke:rgb(150,150,150);stroke-linecap:round;fill:none;" />
<line x1='827.0' y1='1169.0' x2='816.2' y2='1163.7' style="stroke-width:8.0;stroke:rgb(150,150,150);stroke-linecap:round;fill:none;" />
<line x1='789.5' y1='1259.9' x2='778.1' y2='1256.1' style="stroke-width:8.0;stroke:rgb(150,150,150);stroke-linecap:round;fill:none;" />
<text x="762.4" y="1265.5" font-size="41.6px" font-family="CMUBright-Roman" style="text-anchor:end;fill:rgb(150,150,150);" transform="rotate(18.7,762.4,1265.5)" >2800 kb</text>
<line x1='764.1' y1='1355.0' x2='752.4' y2='1352.7' style="stroke-width:8.0;stroke:rgb(150,150,150);stroke-linecap:round;fill:none;" />
<line x1='751.5' y1='1452.6' x2='739.5' y2='1451.9' style="stroke-width:8.0;stroke:rgb(150,150,150);stroke-linecap:round;fill:none;" />
<line x1='751.7' y1='1551.1' x2='739.8' y2='1551.9' style="stroke-width:8.0;stroke:rgb(150,150,150);stroke-linecap:round;fill:none;" />
<line x1='764.9' y1='1648.6' x2='753.1' y2='1651.0' style="stroke-width:8.0;stroke:rgb(150,150,150);stroke-linecap:round;fill:none;" />
<line x1='790.7' y1='1743.6' x2='779.3' y2='1747.5' style="stroke-width:8.0;stroke:rgb(150,150,150);stroke-linecap:round;fill:none;" />
<text x="772.6" y="1764.6" font-size="41.6px" font-family="CMUBright-Roman" style="text-anchor:end;fill:rgb(150,150,150);" transform="rotate(-19.0,772.6,1764.6)" >2850 kb</text>
<line x1='828.7' y1='1834.4' x2='817.9' y2='1839.7' style="stroke-width:8.0;stroke:rgb(150,150,150);stroke-linecap:round;fill:none;" />
<line x1='878.2' y1='1919.4' x2='868.3' y2='1926.1' style="stroke-width:8.0;stroke:rgb(150,150,150);stroke-linecap:round;fill:none;" />
<line x1='938.5' y1='1997.2' x2='929.5' y2='2005.2' style="stroke-width:8.0;stroke:rgb(150,150,150);stroke-linecap:round;fill:none;" />
<line x1='1008.4' y1='2066.5' x2='1000.6' y2='2075.5' style="stroke-width:8.0;stroke:rgb(150,150,150);stroke-linecap:round;fill:none;" />
<line x1='1086.8' y1='2125.9' x2='1080.2' y2='2136.0' style="stroke-width:8.0;stroke:rgb(150,150,150);stroke-linecap:round;fill:none;" />
<text x="1085.4" y="2153.6" font-size="41.6px" font-family="CMUBright-Roman" style="text-anchor:end;fill:rgb(150,150,150);" transform="rotate(-56.6,1085.4,2153.6)" >2900 kb</text>
<line x1='1172.4' y1='2174.7' x2='1167.1' y2='2185.4' style="stroke-width:8.0;stroke:rgb(150,150,150);stroke-linecap:round;fill:none;" />
<line x1='1263.5' y1='2211.7' x2='1259.7' y2='2223.1' style="stroke-width:8.0;stroke:rgb(150,150,150);stroke-linecap:round;fill:none;" />
<line x1='1358.8' y1='2236.6' x2='1356.5' y2='2248.4' style="stroke-width:8.0;stroke:rgb(150,150,150);stroke-linecap:round;fill:none;" />
<path d="M1446.402,2047.382 A550.000,550.000 40.000 0,1 1288.880,992.134 L1212.109,807.455 A750.000,750.000 0.000 0,0 1426.912,2246.430 Z" style="stroke-width:2.0;stroke:rgb(0,0,0);stroke-linecap:round;fill:none;" />
</g>
<g id="track_0">
<path d="M 1500.000,977.500 A 522.500,522.500 0.00 0,1 1622.5,992.1 L 1622.5,992.1 1617.4,1012.3 1611.9,1032.4 1605.9,1052.2 1599.5,1071.7 1592.6,1090.7 1585.3,1109.1 1577.5,1126.8 1569.3,1143.8 1560.6,1159.9 1551.4,1175.0 1541.8,1189.2 1531.8,1202.3 1521.3,1214.3 1510.4,1225.2 1499.2,1234.8 1487.5,1243.1 1475.4,1250.2 1463.0,1256.0 1450.2,1260.4 1437.1,1263.5 1423.7,1265.3 1410.0,1265.7 1396.0,1264.8 1381.9,1262.5 1367.5,1259.0 1352.9,1254.2 1338.1,1248.2 1323.3,1241.0 1308.4,1232.6 1293.4,1223.1 1278.4,1212.6 1263.4,1201.1 1248.5,1188.8 1233.7,1175.6 1219.0,1161.7 1204.6,1147.2 1190.3,1132.2 1176.4,1116.7 1162.8,1100.9  A 522.500,522.500 0.00 0,1 1299.4,1017.5 L 1299.4,1017.5 1307.3,1036.1 1315.3,1054.6 1323.4,1072.7 1331.6,1090.3 1339.8,1107.3 1348.1,1123.6 1356.3,1139.1 1364.5,1153.7 1372.6,1167.3 1380.6,1179.9 1388.4,1191.2 1396.1,1201.4 1403.6,1210.2 1410.9,1217.8 1418.0,1223.9 1424.9,1228.6 1431.5,1231.9 1437.9,1233.7 1443.9,1234.1 1449.7,1232.9 1455.2,1230.3 1460.3,1226.2 1465.2,1220.6 1469.7,1213.6 1473.9,1205.2 1477.8,1195.4 1481.3,1184.4 1484.5,1172.0 1487.4,1158.5 1490.0,1143.9 1492.2,1128.2 1494.2,1111.6 1495.8,1094.1 1497.1,1075.9 1498.2,1057.0 1499.0,1037.6 1499.6,1017.8 1499.9,997.7 1500.0,977.5  Z" style="stroke-width: 0.5;  stroke: rgb(0,0,0); fill: rgb(179,177,178);" />
<path d="M 2021.069,1538.645 A 522.500,522.500 0.00 0,1 2011.1,1608.7 L 2011.1,1608.7 1986.7,1603.7 1962.1,1598.9 1937.3,1594.5 1912.3,1590.4 1887.0,1586.6 1861.6,1583.1 1835.9,1580.1 1810.2,1577.4 1784.3,1575.1 1758.2,1573.2 1732.1,1571.8 1705.9,1570.8 1679.6,1570.3 1653.2,1570.2 1626.8,1570.5 1600.4,1571.4 1574.0,1572.7 1547.6,1574.5 1521.2,1576.7 1494.9,1579.4 1468.6,1582.6 1442.4,1586.3 1416.3,1590.4 1390.3,1595.0 1364.4,1600.1 1338.6,1605.6 1313.0,1611.5 1287.5,1617.8 1262.2,1624.6 1237.1,1631.7 1212.3,1639.3 1187.6,1647.2 1163.1,1655.4 1138.9,1664.0 1115.0,1672.9 1091.3,1682.0 1067.9,1691.5 1044.8,1701.2 1022.0,1711.1  A 522.500,522.500 0.00 0,1 998.0,1644.7 L 998.0,1644.7 1022.7,1637.7 1047.5,1630.8 1072.6,1624.1 1097.9,1617.5 1123.3,1611.2 1148.8,1605.0 1174.5,1599.0 1200.3,1593.2 1226.3,1587.6 1252.4,1582.3 1278.6,1577.2 1304.9,1572.3 1331.3,1567.7 1357.8,1563.3 1384.3,1559.2 1411.0,1555.4 1437.6,1551.8 1464.4,1548.5 1491.2,1545.4 1518.0,1542.6 1544.8,1540.1 1571.7,1537.9 1598.5,1535.9 1625.4,1534.2 1652.2,1532.8 1679.0,1531.6 1705.8,1530.8 1732.5,1530.1 1759.2,1529.7 1785.8,1529.6 1812.4,1529.7 1838.9,1530.1 1865.3,1530.7 1891.5,1531.5 1917.7,1532.5 1943.8,1533.8 1969.7,1535.2 1995.4,1536.8 2021.1,1538.6  Z" style="stroke-width: 0.5;  stroke: rgb(0,0,0); fill: rgb(179,177,178);" />
<path d="M 1829.200,1094.250 A 522.500,522.500 0.00 0,1 1880.8,1142.2 L 1880.8,1142.2 1863.4,1158.2 1845.6,1174.0 1827.3,1189.5 1808.5,1204.8 1789.3,1219.7 1769.7,1234.1 1749.6,1248.2 1729.1,1261.8 1708.3,1274.9 1687.0,1287.4 1665.4,1299.3 1643.5,1310.7 1621.2,1321.4 1598.6,1331.5 1575.7,1340.9 1552.6,1349.6 1529.2,1357.5 1505.6,1364.8 1481.7,1371.3 1457.7,1377.1 1433.5,1382.2 1409.1,1386.5 1384.7,1390.0 1360.1,1392.8 1335.5,1394.8 1310.8,1396.2 1286.1,1396.8 1261.4,1396.7 1236.7,1395.8 1212.1,1394.4 1187.6,1392.2 1163.1,1389.4 1138.9,1386.1 1114.8,1382.1 1090.9,1377.6 1067.3,1372.6 1043.9,1367.1 1020.8,1361.1 998.1,1354.8  A 522.500,522.500 0.00 0,1 1022.2,1288.6 L 1022.2,1288.6 1043.2,1297.6 1064.5,1306.2 1086.3,1314.3 1108.3,1321.9 1130.6,1328.9 1153.1,1335.3 1175.8,1341.0 1198.7,1346.0 1221.7,1350.3 1244.7,1353.7 1267.9,1356.4 1291.0,1358.2 1314.2,1359.2 1337.3,1359.3 1360.3,1358.5 1383.3,1356.8 1406.1,1354.2 1428.7,1350.7 1451.2,1346.2 1473.4,1340.8 1495.5,1334.6 1517.3,1327.4 1538.8,1319.3 1559.9,1310.4 1580.8,1300.6 1601.3,1290.0 1621.5,1278.6 1641.3,1266.5 1660.7,1253.6 1679.6,1240.0 1698.2,1225.7 1716.3,1210.8 1733.9,1195.4 1751.0,1179.5 1767.7,1163.1 1783.9,1146.3 1799.5,1129.2 1814.6,1111.8 1829.2,1094.2  Z" style="stroke-width: 0.5;  stroke: rgb(0,0,0); fill: rgb(179,177,178);" />
<path d="M 1831.775,1903.648 A 522.500,522.500 0.00 0,1 1778.9,1941.8 L 1778.9,1941.8 1767.8,1924.5 1756.4,1907.5 1744.8,1890.9 1733.0,1874.8 1721.0,1859.3 1708.9,1844.5 1696.8,1830.5 1684.6,1817.4 1672.4,1805.3 1660.2,1794.3 1648.1,1784.4 1636.1,1775.7 1624.2,1768.2 1612.4,1762.0 1600.8,1757.2 1589.4,1753.7 1578.2,1751.5 1567.3,1750.8 1556.6,1751.5 1546.3,1753.6 1536.2,1757.2 1526.4,1762.1 1516.9,1768.4 1507.8,1776.1 1499.1,1785.1 1490.7,1795.4 1482.6,1806.9 1475.0,1819.7 1467.7,1833.5 1460.8,1848.4 1454.3,1864.3 1448.2,1881.1 1442.5,1898.8 1437.1,1917.1 1432.2,1936.1 1427.6,1955.5 1423.4,1975.4 1419.6,1995.5 1416.1,2015.7  A 522.500,522.500 0.00 0,1 1352.4,2001.2 L 1352.4,2001.2 1358.5,1981.2 1365.1,1961.4 1372.1,1941.8 1379.5,1922.6 1387.4,1903.9 1395.8,1885.8 1404.6,1868.3 1413.8,1851.7 1423.4,1835.9 1433.5,1821.0 1444.0,1807.2 1454.9,1794.4 1466.2,1782.7 1477.9,1772.2 1489.9,1762.9 1502.3,1754.9 1515.0,1748.2 1528.1,1742.7 1541.5,1738.6 1555.1,1735.8 1569.0,1734.4 1583.2,1734.3 1597.5,1735.5 1612.1,1738.1 1626.8,1741.9 1641.7,1747.0 1656.6,1753.3 1671.6,1760.8 1686.7,1769.5 1701.8,1779.2 1716.8,1790.0 1731.8,1801.7 1746.7,1814.3 1761.5,1827.8 1776.1,1841.9 1790.4,1856.6 1804.5,1871.9 1818.3,1887.6 1831.8,1903.6  Z" style="stroke-width: 0.5;  stroke: rgb(0,0,0); fill: rgb(179,177,178);" />
<path d="M 1996.018,1335.768 A 522.500,522.500 0.00 0,1 2009.6,1384.8 L 2009.6,1384.8 1983.8,1390.6 1957.8,1396.4 1931.9,1402.2 1905.8,1407.9 1879.8,1413.5 1853.7,1419.2 1827.5,1424.7 1801.3,1430.2 1775.1,1435.7 1748.8,1441.1 1722.6,1446.5 1696.2,1451.8 1669.9,1457.0 1643.5,1462.2 1617.1,1467.3 1590.7,1472.4 1564.3,1477.4 1537.8,1482.3 1511.4,1487.2 1484.9,1492.0 1458.4,1496.7 1431.9,1501.4 1405.4,1506.0 1378.9,1510.5 1352.3,1515.0 1325.8,1519.4 1299.3,1523.8 1272.8,1528.0 1246.3,1532.2 1219.8,1536.4 1193.4,1540.5 1166.9,1544.5 1140.5,1548.5 1114.1,1552.4 1087.7,1556.2 1061.3,1560.0 1034.9,1563.7 1008.6,1567.4 982.4,1571.0  A 522.500,522.500 0.00 0,1 977.9,1520.7 L 977.9,1520.7 1003.8,1519.6 1029.8,1518.3 1055.9,1516.9 1082.1,1515.3 1108.4,1513.6 1134.8,1511.6 1161.2,1509.5 1187.7,1507.2 1214.2,1504.7 1240.8,1502.0 1267.4,1499.0 1294.0,1495.9 1320.7,1492.6 1347.3,1489.0 1374.0,1485.3 1400.6,1481.3 1427.3,1477.1 1453.9,1472.7 1480.5,1468.1 1507.1,1463.3 1533.6,1458.3 1560.0,1453.0 1586.5,1447.6 1612.8,1441.9 1639.1,1436.0 1665.3,1430.0 1691.4,1423.7 1717.4,1417.3 1743.4,1410.7 1769.2,1403.9 1794.9,1396.9 1820.5,1389.7 1846.0,1382.4 1871.4,1375.0 1896.6,1367.4 1921.7,1359.7 1946.6,1351.8 1971.4,1343.8 1996.0,1335.8  Z" style="stroke-width: 0.5;  stroke: rgb(0,0,0); fill: rgb(179,177,178);" />
<path d="M 1705.022,1019.404 A 522.500,522.500 0.00 0,1 1746.4,1039.3 L 1746.4,1039.3 1735.9,1058.5 1724.8,1077.5 1713.1,1096.3 1700.9,1114.7 1688.2,1132.7 1675.0,1150.2 1661.2,1167.1 1647.0,1183.3 1632.3,1198.8 1617.1,1213.6 1601.4,1227.5 1585.2,1240.5 1568.7,1252.6 1551.7,1263.8 1534.3,1273.9 1516.6,1283.0 1498.4,1291.0 1480.0,1298.0 1461.2,1303.8 1442.2,1308.6 1422.8,1312.2 1403.3,1314.7 1383.5,1316.2 1363.6,1316.5 1343.5,1315.7 1323.2,1313.8 1302.9,1310.9 1282.6,1307.0 1262.2,1302.0 1241.8,1296.1 1221.6,1289.4 1201.3,1281.7 1181.3,1273.2 1161.4,1264.0 1141.7,1254.1 1122.3,1243.5 1103.2,1232.4 1084.5,1220.8 1066.1,1208.8  A 522.500,522.500 0.00 0,1 1093.7,1171.5 L 1093.7,1171.5 1110.6,1184.8 1127.9,1197.8 1145.5,1210.3 1163.4,1222.2 1181.6,1233.5 1199.9,1244.0 1218.5,1253.8 1237.1,1262.8 1255.8,1270.8 1274.6,1277.9 1293.3,1284.0 1312.1,1289.0 1330.7,1292.9 1349.2,1295.7 1367.6,1297.4 1385.8,1297.9 1403.8,1297.2 1421.6,1295.3 1439.1,1292.2 1456.4,1287.9 1473.3,1282.4 1489.9,1275.8 1506.1,1267.9 1522.0,1259.0 1537.5,1248.9 1552.5,1237.7 1567.2,1225.5 1581.3,1212.3 1595.1,1198.2 1608.3,1183.1 1621.1,1167.3 1633.4,1150.6 1645.2,1133.3 1656.4,1115.3 1667.2,1096.9 1677.4,1077.9 1687.1,1058.6 1696.3,1039.1 1705.0,1019.4  Z" style="stroke-width: 0.5;  stroke: rgb(0,0,0); fill: rgb(179,177,178);" />
<path d="M 1967.482,1733.382 A 522.500,522.500 0.00 0,1 1946.0,1772.2 L 1946.0,1772.2 1926.4,1760.5 1906.3,1749.2 1885.8,1738.3 1865.0,1727.8 1843.8,1718.0 1822.3,1708.7 1800.5,1700.0 1778.5,1692.1 1756.2,1684.8 1733.8,1678.3 1711.1,1672.6 1688.4,1667.7 1665.6,1663.7 1642.6,1660.6 1619.7,1658.3 1596.7,1656.9 1573.7,1656.5 1550.7,1657.0 1527.9,1658.4 1505.0,1660.8 1482.3,1664.0 1459.8,1668.2 1437.3,1673.4 1415.1,1679.4 1393.1,1686.3 1371.3,1694.0 1349.8,1702.6 1328.5,1712.0 1307.5,1722.2 1286.9,1733.2 1266.6,1744.8 1246.6,1757.1 1227.1,1770.0 1207.9,1783.5 1189.2,1797.5 1170.9,1811.9 1153.0,1826.8 1135.7,1842.0 1118.9,1857.4  A 522.500,522.500 0.00 0,1 1089.8,1823.7 L 1089.8,1823.7 1108.3,1809.4 1127.2,1795.4 1146.6,1781.7 1166.4,1768.4 1186.6,1755.6 1207.3,1743.2 1228.3,1731.3 1249.7,1720.0 1271.4,1709.3 1293.4,1699.2 1315.7,1689.7 1338.3,1681.0 1361.2,1673.0 1384.3,1665.7 1407.5,1659.3 1431.0,1653.5 1454.7,1648.6 1478.5,1644.5 1502.4,1641.2 1526.4,1638.8 1550.5,1637.1 1574.6,1636.3 1598.8,1636.3 1622.9,1637.1 1647.1,1638.7 1671.1,1641.1 1695.1,1644.3 1719.0,1648.3 1742.8,1652.9 1766.4,1658.3 1789.9,1664.4 1813.1,1671.1 1836.1,1678.5 1858.8,1686.4 1881.2,1694.9 1903.4,1703.9 1925.1,1713.3 1946.5,1723.2 1967.5,1733.4  Z" style="stroke-width: 0.5;  stroke: rgb(0,0,0); fill: rgb(179,177,178);" />
<path d="M 1665.816,1004.509 A 522.500,522.500 0.00 0,1 1703.9,1018.9 L 1703.9,1018.9 1695.3,1038.6 1686.2,1058.1 1676.5,1077.3 1666.4,1096.2 1655.7,1114.6 1644.6,1132.5 1632.9,1149.7 1620.8,1166.2 1608.2,1182.0 1595.1,1196.9 1581.5,1210.9 1567.5,1223.9 1553.1,1236.0 1538.3,1246.9 1523.0,1256.8 1507.4,1265.5 1491.4,1273.1 1475.1,1279.5 1458.4,1284.6 1441.5,1288.6 1424.3,1291.4 1406.8,1292.9 1389.1,1293.2 1371.2,1292.4 1353.2,1290.3 1335.0,1287.1 1316.8,1282.7 1298.4,1277.3 1280.1,1270.8 1261.7,1263.3 1243.4,1254.8 1225.2,1245.3 1207.1,1235.1 1189.1,1224.0 1171.4,1212.3 1153.9,1199.9 1136.8,1186.9 1119.9,1173.5 1103.5,1159.7  A 522.500,522.500 0.00 0,1 1131.0,1130.1 L 1131.0,1130.1 1146.1,1144.9 1161.5,1159.4 1177.3,1173.4 1193.4,1186.8 1209.7,1199.7 1226.2,1211.8 1242.8,1223.1 1259.5,1233.5 1276.2,1243.0 1293.0,1251.5 1309.8,1259.0 1326.5,1265.3 1343.2,1270.5 1359.7,1274.5 1376.0,1277.3 1392.2,1278.8 1408.2,1279.1 1423.9,1278.1 1439.3,1275.8 1454.5,1272.2 1469.4,1267.4 1483.9,1261.3 1498.1,1253.9 1511.9,1245.4 1525.3,1235.6 1538.3,1224.7 1550.9,1212.6 1563.0,1199.5 1574.7,1185.4 1586.0,1170.3 1596.8,1154.3 1607.1,1137.5 1616.9,1120.0 1626.3,1101.8 1635.2,1083.1 1643.6,1063.9 1651.5,1044.3 1658.9,1024.5 1665.8,1004.5  Z" style="stroke-width: 0.5;  stroke: rgb(0,0,0); fill: rgb(179,177,178);" />
<path d="M 1889.011,1848.822 A 522.500,522.500 0.00 0,1 1860.9,1877.8 L 1860.9,1877.8 1845.8,1862.4 1830.3,1847.3 1814.3,1832.6 1798.0,1818.4 1781.3,1804.8 1764.4,1791.9 1747.1,1779.7 1729.6,1768.4 1711.9,1757.9 1694.1,1748.4 1676.0,1739.8 1657.9,1732.3 1639.7,1725.9 1621.4,1720.6 1603.1,1716.4 1584.8,1713.4 1566.5,1711.5 1548.3,1710.9 1530.2,1711.5 1512.1,1713.3 1494.3,1716.3 1476.5,1720.5 1459.0,1725.9 1441.6,1732.5 1424.5,1740.2 1407.6,1749.0 1391.0,1758.9 1374.7,1769.8 1358.8,1781.8 1343.1,1794.7 1327.8,1808.4 1312.9,1823.0 1298.4,1838.3 1284.4,1854.3 1270.7,1871.0 1257.5,1888.1 1244.8,1905.6 1232.5,1923.5 1220.7,1941.6  A 522.500,522.500 0.00 0,1 1187.4,1918.6 L 1187.4,1918.6 1200.7,1901.2 1214.5,1884.0 1228.9,1867.2 1243.7,1850.8 1259.0,1834.9 1274.7,1819.5 1290.9,1804.8 1307.4,1790.9 1324.4,1777.7 1341.6,1765.3 1359.3,1753.9 1377.2,1743.3 1395.5,1733.8 1414.0,1725.2 1432.8,1717.7 1451.8,1711.3 1471.0,1706.0 1490.3,1701.8 1509.8,1698.7 1529.5,1696.7 1549.2,1695.9 1569.1,1696.2 1588.9,1697.7 1608.8,1700.2 1628.7,1703.9 1648.5,1708.6 1668.3,1714.4 1688.0,1721.2 1707.5,1728.9 1726.9,1737.6 1746.1,1747.2 1765.1,1757.7 1783.8,1768.9 1802.3,1780.8 1820.4,1793.4 1838.2,1806.6 1855.5,1820.3 1872.5,1834.4 1889.0,1848.8  Z" style="stroke-width: 0.5;  stroke: rgb(0,0,0); fill: rgb(179,177,178);" />
<path d="M 2010.883,1609.565 A 522.500,522.500 0.00 0,1 2001.1,1648.1 L 2001.1,1648.1 1977.7,1641.4 1953.9,1634.9 1929.9,1628.9 1905.6,1623.2 1881.0,1617.8 1856.3,1613.0 1831.3,1608.5 1806.1,1604.5 1780.8,1601.0 1755.3,1598.0 1729.7,1595.6 1704.0,1593.6 1678.2,1592.3 1652.4,1591.4 1626.5,1591.2 1600.6,1591.5 1574.6,1592.4 1548.7,1593.8 1522.8,1595.9 1497.0,1598.5 1471.3,1601.7 1445.6,1605.5 1420.0,1609.9 1394.6,1614.9 1369.3,1620.4 1344.1,1626.4 1319.1,1633.0 1294.4,1640.1 1269.8,1647.7 1245.4,1655.7 1221.3,1664.3 1197.5,1673.3 1173.9,1682.7 1150.7,1692.5 1127.7,1702.6 1105.1,1713.2 1082.8,1724.0 1060.8,1735.1 1039.2,1746.4  A 522.500,522.500 0.00 0,1 1021.9,1710.8 L 1021.9,1710.8 1044.7,1700.9 1067.8,1691.2 1091.2,1681.8 1114.9,1672.6 1138.8,1663.8 1163.0,1655.2 1187.5,1647.0 1212.2,1639.1 1237.1,1631.6 1262.2,1624.5 1287.4,1617.7 1312.9,1611.4 1338.5,1605.5 1364.3,1600.1 1390.2,1595.0 1416.2,1590.5 1442.3,1586.4 1468.6,1582.7 1494.8,1579.6 1521.2,1576.9 1547.5,1574.7 1573.9,1572.9 1600.4,1571.6 1626.8,1570.8 1653.1,1570.5 1679.5,1570.6 1705.8,1571.2 1732.0,1572.2 1758.1,1573.7 1784.1,1575.6 1810.1,1577.9 1835.8,1580.6 1861.4,1583.8 1886.9,1587.2 1912.1,1591.1 1937.2,1595.2 1962.0,1599.7 1986.6,1604.5 2010.9,1609.6  Z" style="stroke-width: 0.5;  stroke: rgb(0,0,0); fill: rgb(179,177,178);" />
<path d="M 1945.453,1773.090 A 522.500,522.500 0.00 0,1 1925.3,1803.5 L 1925.3,1803.5 1906.9,1790.7 1888.0,1778.2 1868.7,1766.1 1849.0,1754.6 1828.9,1743.6 1808.5,1733.2 1787.9,1723.5 1767.0,1714.5 1745.8,1706.3 1724.5,1698.9 1703.0,1692.4 1681.4,1686.7 1659.7,1682.0 1637.9,1678.2 1616.0,1675.4 1594.1,1673.6 1572.3,1672.8 1550.5,1672.9 1528.7,1674.1 1507.0,1676.3 1485.5,1679.6 1464.1,1683.8 1442.8,1689.0 1421.8,1695.2 1401.0,1702.4 1380.4,1710.5 1360.1,1719.5 1340.0,1729.4 1320.3,1740.2 1300.9,1751.7 1281.8,1764.0 1263.2,1777.0 1244.9,1790.7 1227.1,1805.0 1209.6,1819.8 1192.7,1835.1 1176.2,1850.8 1160.2,1866.8 1144.7,1883.1  A 522.500,522.500 0.00 0,1 1118.9,1857.4 L 1118.9,1857.4 1135.7,1842.0 1153.1,1826.8 1170.9,1812.0 1189.2,1797.5 1207.9,1783.6 1227.1,1770.1 1246.6,1757.2 1266.6,1744.9 1286.9,1733.3 1307.5,1722.3 1328.5,1712.2 1349.7,1702.8 1371.2,1694.2 1393.0,1686.4 1415.0,1679.5 1437.3,1673.6 1459.7,1668.5 1482.2,1664.3 1504.9,1661.0 1527.7,1658.7 1550.6,1657.3 1573.5,1656.8 1596.5,1657.3 1619.5,1658.7 1642.4,1661.0 1665.3,1664.2 1688.2,1668.2 1710.9,1673.1 1733.5,1678.9 1755.9,1685.4 1778.1,1692.7 1800.1,1700.7 1821.9,1709.4 1843.4,1718.7 1864.5,1728.6 1885.3,1739.1 1905.8,1750.0 1925.8,1761.4 1945.5,1773.1  Z" style="stroke-width: 0.5;  stroke: rgb(0,0,0); fill: rgb(179,177,178);" />
<path d="M 1982.346,1700.870 A 522.500,522.500 0.00 0,1 1968.1,1732.1 L 1968.1,1732.1 1947.1,1722.0 1925.7,1712.2 1903.9,1702.8 1881.7,1693.8 1859.3,1685.4 1836.5,1677.5 1813.5,1670.2 1790.3,1663.6 1766.8,1657.5 1743.1,1652.2 1719.3,1647.5 1695.4,1643.6 1671.4,1640.5 1647.3,1638.1 1623.1,1636.6 1599.0,1635.8 1574.8,1635.8 1550.6,1636.7 1526.5,1638.4 1502.5,1640.9 1478.6,1644.2 1454.8,1648.3 1431.1,1653.2 1407.6,1659.0 1384.3,1665.5 1361.2,1672.8 1338.3,1680.8 1315.7,1689.5 1293.4,1699.0 1271.3,1709.1 1249.6,1719.8 1228.2,1731.1 1207.2,1743.0 1186.6,1755.4 1166.3,1768.3 1146.5,1781.6 1127.1,1795.2 1108.2,1809.2 1089.7,1823.5  A 522.500,522.500 0.00 0,1 1069.1,1795.5 L 1069.1,1795.5 1088.8,1782.3 1108.9,1769.3 1129.5,1756.7 1150.4,1744.3 1171.7,1732.4 1193.4,1721.0 1215.5,1710.0 1237.9,1699.5 1260.6,1689.5 1283.6,1680.1 1306.9,1671.4 1330.4,1663.2 1354.1,1655.7 1378.1,1648.8 1402.3,1642.7 1426.6,1637.2 1451.1,1632.5 1475.7,1628.4 1500.4,1625.1 1525.2,1622.6 1550.1,1620.7 1575.0,1619.6 1600.0,1619.2 1624.9,1619.6 1649.8,1620.7 1674.7,1622.5 1699.5,1624.9 1724.2,1628.1 1748.8,1631.9 1773.2,1636.4 1797.4,1641.5 1821.5,1647.2 1845.3,1653.4 1868.9,1660.2 1892.3,1667.5 1915.3,1675.2 1938.0,1683.4 1960.4,1692.0 1982.3,1700.9  Z" style="stroke-width: 0.5;  stroke: rgb(0,0,0); fill: rgb(179,177,178);" />
<path d="M 1992.921,1673.307 A 522.500,522.500 0.00 0,1 1982.8,1699.8 L 1982.8,1699.8 1960.8,1691.0 1938.4,1682.5 1915.7,1674.3 1892.6,1666.6 1869.3,1659.4 1845.6,1652.6 1821.8,1646.4 1797.7,1640.8 1773.4,1635.7 1749.0,1631.3 1724.4,1627.5 1699.7,1624.4 1674.9,1622.0 1650.0,1620.2 1625.1,1619.2 1600.1,1618.8 1575.1,1619.2 1550.2,1620.4 1525.3,1622.2 1500.5,1624.8 1475.8,1628.1 1451.1,1632.2 1426.6,1637.0 1402.3,1642.4 1378.1,1648.6 1354.1,1655.5 1330.4,1663.0 1306.8,1671.2 1283.6,1679.9 1260.6,1689.3 1237.8,1699.3 1215.4,1709.8 1193.4,1720.8 1171.7,1732.3 1150.3,1744.2 1129.4,1756.5 1108.8,1769.1 1088.7,1782.1 1069.0,1795.3  A 522.500,522.500 0.00 0,1 1053.4,1771.2 L 1053.4,1771.2 1074.0,1758.9 1095.1,1746.8 1116.6,1735.0 1138.4,1723.6 1160.6,1712.5 1183.1,1701.9 1206.0,1691.7 1229.1,1681.9 1252.6,1672.6 1276.3,1663.9 1300.3,1655.7 1324.5,1648.0 1348.9,1640.9 1373.5,1634.5 1398.3,1628.6 1423.2,1623.4 1448.3,1618.8 1473.5,1614.8 1498.8,1611.5 1524.2,1608.9 1549.6,1606.9 1575.1,1605.6 1600.6,1604.9 1626.1,1604.9 1651.5,1605.5 1676.9,1606.8 1702.3,1608.6 1727.5,1611.1 1752.7,1614.2 1777.7,1617.9 1802.5,1622.2 1827.2,1627.0 1851.7,1632.3 1875.9,1638.0 1899.9,1644.3 1923.6,1651.0 1947.1,1658.1 1970.2,1665.5 1992.9,1673.3  Z" style="stroke-width: 0.5;  stroke: rgb(0,0,0); fill: rgb(179,177,178);" />
<path d="M 1637.699,995.971 A 522.500,522.500 0.00 0,1 1664.7,1004.1 L 1664.7,1004.1 1657.8,1024.1 1650.5,1044.0 1642.6,1063.6 1634.3,1082.8 1625.4,1101.5 1616.1,1119.7 1606.3,1137.3 1596.1,1154.1 1585.3,1170.1 1574.1,1185.2 1562.4,1199.3 1550.3,1212.4 1537.8,1224.5 1524.8,1235.4 1511.4,1245.2 1497.7,1253.8 1483.5,1261.2 1469.0,1267.3 1454.2,1272.1 1439.1,1275.7 1423.6,1278.0 1407.9,1279.0 1392.0,1278.7 1375.9,1277.2 1359.5,1274.4 1343.0,1270.4 1326.4,1265.3 1309.7,1258.9 1293.0,1251.5 1276.2,1243.0 1259.4,1233.5 1242.7,1223.1 1226.1,1211.8 1209.7,1199.7 1193.4,1186.8 1177.3,1173.4 1161.5,1159.4 1146.1,1144.9 1131.0,1130.1  A 522.500,522.500 0.00 0,1 1151.5,1110.7 L 1151.5,1110.7 1165.6,1126.2 1180.1,1141.3 1194.9,1156.0 1209.9,1170.2 1225.1,1183.7 1240.5,1196.5 1256.0,1208.5 1271.6,1219.6 1287.3,1229.8 1302.9,1238.9 1318.5,1247.0 1334.0,1253.9 1349.4,1259.7 1364.6,1264.2 1379.7,1267.5 1394.6,1269.5 1409.3,1270.1 1423.7,1269.5 1437.8,1267.6 1451.7,1264.3 1465.2,1259.7 1478.4,1253.8 1491.2,1246.7 1503.6,1238.2 1515.6,1228.6 1527.3,1217.7 1538.5,1205.7 1549.3,1192.5 1559.6,1178.4 1569.5,1163.2 1578.9,1147.1 1587.9,1130.2 1596.4,1112.5 1604.4,1094.2 1612.0,1075.3 1619.1,1055.9 1625.8,1036.1 1632.0,1016.1 1637.7,996.0  Z" style="stroke-width: 0.5;  stroke: rgb(0,0,0); fill: rgb(179,177,178);" />
<path d="M 1791.920,1066.654 A 522.500,522.500 0.00 0,1 1813.1,1081.7 L 1813.1,1081.7 1799.3,1099.6 1785.0,1117.4 1770.1,1134.9 1754.8,1152.1 1738.9,1168.8 1722.5,1185.1 1705.7,1200.9 1688.3,1216.1 1670.5,1230.7 1652.3,1244.5 1633.6,1257.7 1614.5,1270.0 1595.1,1281.6 1575.2,1292.3 1555.0,1302.2 1534.5,1311.2 1513.6,1319.2 1492.4,1326.4 1471.0,1332.6 1449.4,1337.8 1427.5,1342.1 1405.4,1345.4 1383.2,1347.7 1360.8,1349.1 1338.3,1349.5 1315.7,1349.1 1293.1,1347.6 1270.5,1345.3 1247.9,1342.2 1225.3,1338.2 1202.9,1333.3 1180.5,1327.7 1158.3,1321.4 1136.3,1314.4 1114.5,1306.7 1093.0,1298.4 1071.8,1289.6 1051.0,1280.3 1030.5,1270.6  A 522.500,522.500 0.00 0,1 1042.4,1247.8 L 1042.4,1247.8 1062.1,1258.4 1082.2,1268.5 1102.7,1278.2 1123.5,1287.3 1144.6,1295.8 1165.9,1303.7 1187.4,1310.8 1209.0,1317.2 1230.8,1322.8 1252.6,1327.5 1274.5,1331.3 1296.4,1334.2 1318.3,1336.2 1340.1,1337.2 1361.8,1337.2 1383.4,1336.3 1404.9,1334.3 1426.2,1331.3 1447.2,1327.3 1468.1,1322.2 1488.6,1316.2 1508.9,1309.1 1528.9,1301.1 1548.6,1292.1 1567.9,1282.2 1586.9,1271.3 1605.4,1259.6 1623.6,1247.0 1641.3,1233.6 1658.6,1219.4 1675.4,1204.5 1691.7,1188.9 1707.6,1172.8 1722.9,1156.1 1737.8,1138.9 1752.1,1121.2 1765.9,1103.3 1779.2,1085.1 1791.9,1066.7  Z" style="stroke-width: 0.5;  stroke: rgb(0,0,0); fill: rgb(179,177,178);" />
<path d="M 2022.107,1479.738 A 522.500,522.500 0.00 0,1 2022.5,1505.1 L 2022.5,1505.1 1996.4,1504.9 1970.2,1504.8 1943.9,1504.9 1917.5,1505.0 1891.0,1505.3 1864.5,1505.8 1837.9,1506.4 1811.3,1507.1 1784.6,1508.0 1757.8,1509.0 1731.1,1510.2 1704.2,1511.6 1677.4,1513.1 1650.5,1514.7 1623.7,1516.6 1596.8,1518.6 1569.9,1520.8 1543.0,1523.1 1516.1,1525.6 1489.3,1528.3 1462.4,1531.2 1435.6,1534.2 1408.8,1537.4 1382.1,1540.7 1355.3,1544.2 1328.7,1547.9 1302.1,1551.7 1275.5,1555.7 1249.0,1559.8 1222.6,1564.1 1196.3,1568.5 1170.0,1573.0 1143.8,1577.7 1117.7,1582.5 1091.8,1587.5 1065.9,1592.5 1040.1,1597.7 1014.4,1602.9 988.8,1608.3  A 522.500,522.500 0.00 0,1 984.2,1583.2 L 984.2,1583.2 1010.3,1579.1 1036.4,1574.9 1062.6,1570.9 1088.9,1566.9 1115.2,1562.9 1141.6,1559.1 1168.0,1555.3 1194.5,1551.6 1221.0,1547.9 1247.6,1544.4 1274.2,1540.9 1300.9,1537.5 1327.5,1534.2 1354.2,1531.0 1381.0,1527.8 1407.7,1524.8 1434.5,1521.9 1461.3,1519.0 1488.1,1516.2 1514.9,1513.6 1541.7,1511.0 1568.5,1508.5 1595.4,1506.1 1622.2,1503.8 1649.0,1501.6 1675.8,1499.5 1702.6,1497.4 1729.4,1495.5 1756.2,1493.7 1782.9,1491.9 1809.7,1490.2 1836.3,1488.6 1863.0,1487.1 1889.6,1485.7 1916.2,1484.4 1942.8,1483.1 1969.3,1481.9 1995.7,1480.8 2022.1,1479.7  Z" style="stroke-width: 0.5;  stroke: rgb(0,0,0); fill: rgb(179,177,178);" />
<path d="M 1924.432,1804.736 A 522.500,522.500 0.00 0,1 1909.2,1825.0 L 1909.2,1825.0 1891.6,1811.4 1873.6,1798.1 1855.1,1785.3 1836.3,1772.9 1817.1,1761.2 1797.6,1750.1 1777.9,1739.7 1757.8,1730.0 1737.6,1721.2 1717.1,1713.1 1696.5,1706.0 1675.7,1699.9 1654.9,1694.7 1634.0,1690.4 1613.0,1687.3 1592.1,1685.1 1571.1,1684.0 1550.2,1684.0 1529.3,1685.0 1508.6,1687.1 1488.0,1690.3 1467.5,1694.6 1447.2,1699.9 1427.1,1706.2 1407.2,1713.6 1387.5,1721.9 1368.2,1731.2 1349.1,1741.4 1330.3,1752.6 1311.9,1764.5 1293.9,1777.3 1276.2,1790.8 1258.9,1805.0 1242.0,1819.8 1225.6,1835.2 1209.7,1851.0 1194.2,1867.3 1179.2,1883.9 1164.8,1900.8  A 522.500,522.500 0.00 0,1 1145.7,1884.1 L 1145.7,1884.1 1161.2,1867.7 1177.1,1851.7 1193.5,1835.9 1210.4,1820.6 1227.8,1805.8 1245.6,1791.4 1263.8,1777.7 1282.4,1764.7 1301.4,1752.4 1320.8,1740.8 1340.5,1730.1 1360.4,1720.1 1380.7,1711.1 1401.3,1703.0 1422.1,1695.8 1443.1,1689.6 1464.2,1684.4 1485.6,1680.1 1507.1,1676.9 1528.7,1674.7 1550.4,1673.5 1572.2,1673.4 1594.0,1674.2 1615.8,1676.1 1637.6,1678.9 1659.4,1682.7 1681.1,1687.5 1702.7,1693.2 1724.1,1699.7 1745.4,1707.2 1766.5,1715.4 1787.3,1724.4 1807.9,1734.2 1828.3,1744.6 1848.3,1755.6 1867.9,1767.2 1887.2,1779.3 1906.0,1791.9 1924.4,1804.7  Z" style="stroke-width: 0.5;  stroke: rgb(0,0,0); fill: rgb(179,177,178);" />
<path d="M 1850.689,1887.329 A 522.500,522.500 0.00 0,1 1832.9,1902.7 L 1832.9,1902.7 1819.4,1886.8 1805.5,1871.1 1791.4,1855.8 1777.0,1841.1 1762.3,1827.0 1747.5,1813.6 1732.5,1801.0 1717.5,1789.4 1702.4,1778.6 1687.2,1768.9 1672.1,1760.3 1657.0,1752.8 1642.0,1746.5 1627.1,1741.4 1612.3,1737.6 1597.7,1735.1 1583.2,1733.9 1569.0,1734.0 1555.0,1735.4 1541.3,1738.2 1527.9,1742.4 1514.7,1747.8 1501.9,1754.6 1489.4,1762.6 1477.3,1771.9 1465.6,1782.4 1454.2,1794.0 1443.2,1806.8 1432.7,1820.7 1422.5,1835.5 1412.8,1851.3 1403.5,1868.0 1394.7,1885.4 1386.3,1903.5 1378.3,1922.2 1370.8,1941.4 1363.7,1961.0 1357.1,1980.8 1350.9,2000.8  A 522.500,522.500 0.00 0,1 1328.1,1993.4 L 1328.1,1993.4 1335.3,1973.6 1342.9,1953.9 1351.0,1934.5 1359.5,1915.5 1368.6,1897.0 1378.0,1879.0 1388.0,1861.7 1398.4,1845.2 1409.2,1829.5 1420.5,1814.7 1432.2,1800.9 1444.3,1788.2 1456.8,1776.5 1469.7,1766.0 1482.9,1756.7 1496.5,1748.5 1510.5,1741.7 1524.8,1736.1 1539.3,1731.8 1554.2,1728.8 1569.3,1727.0 1584.6,1726.6 1600.1,1727.5 1615.8,1729.7 1631.7,1733.1 1647.6,1737.8 1663.7,1743.6 1679.8,1750.7 1695.9,1758.8 1712.1,1768.0 1728.2,1778.2 1744.2,1789.4 1760.1,1801.4 1775.8,1814.3 1791.4,1827.8 1806.7,1842.0 1821.7,1856.7 1836.4,1871.9 1850.7,1887.3  Z" style="stroke-width: 0.5;  stroke: rgb(0,0,0); fill: rgb(179,177,178);" />
<path d="M 1917.282,1185.545 A 522.500,522.500 0.00 0,1 1930.6,1204.0 L 1930.6,1204.0 1910.5,1217.6 1889.9,1231.0 1869.0,1244.2 1847.7,1257.1 1826.0,1269.7 1804.0,1281.9 1781.7,1293.8 1759.0,1305.2 1736.0,1316.3 1712.7,1326.9 1689.2,1337.0 1665.4,1346.6 1641.3,1355.8 1617.0,1364.4 1592.5,1372.4 1567.7,1379.9 1542.8,1386.8 1517.7,1393.2 1492.5,1399.0 1467.2,1404.2 1441.7,1408.8 1416.2,1412.8 1390.5,1416.2 1364.8,1419.0 1339.1,1421.3 1313.4,1422.9 1287.7,1424.0 1262.0,1424.5 1236.3,1424.4 1210.8,1423.8 1185.3,1422.7 1159.9,1421.1 1134.7,1419.0 1109.7,1416.4 1084.8,1413.3 1060.2,1409.8 1035.7,1406.0 1011.6,1401.7 987.7,1397.1  A 522.500,522.500 0.00 0,1 992.7,1374.9 L 992.7,1374.9 1016.1,1380.4 1039.8,1385.6 1063.8,1390.4 1088.0,1394.8 1112.5,1398.7 1137.2,1402.1 1162.0,1405.0 1187.0,1407.4 1212.2,1409.2 1237.4,1410.5 1262.7,1411.1 1288.1,1411.1 1313.5,1410.6 1338.9,1409.3 1364.3,1407.5 1389.6,1405.0 1414.9,1401.8 1440.1,1398.0 1465.2,1393.6 1490.2,1388.4 1515.0,1382.7 1539.7,1376.3 1564.2,1369.2 1588.5,1361.6 1612.5,1353.3 1636.4,1344.4 1659.9,1335.0 1683.3,1325.0 1706.3,1314.4 1729.0,1303.4 1751.4,1291.8 1773.4,1279.8 1795.2,1267.4 1816.5,1254.5 1837.5,1241.3 1858.0,1227.8 1878.2,1213.9 1898.0,1199.8 1917.3,1185.5  Z" style="stroke-width: 0.5;  stroke: rgb(0,0,0); fill: rgb(179,177,178);" />
<path d="M 2022.462,1506.273 A 522.500,522.500 0.00 0,1 2021.9,1524.2 L 2021.9,1524.2 1996.1,1523.1 1970.1,1522.1 1944.0,1521.3 1917.8,1520.7 1891.5,1520.2 1865.1,1519.9 1838.6,1519.8 1812.0,1519.9 1785.4,1520.2 1758.7,1520.7 1732.0,1521.4 1705.2,1522.4 1678.4,1523.5 1651.5,1524.9 1624.6,1526.5 1597.7,1528.3 1570.9,1530.3 1544.0,1532.6 1517.1,1535.0 1490.2,1537.8 1463.4,1540.7 1436.6,1543.9 1409.9,1547.2 1383.2,1550.8 1356.5,1554.6 1329.9,1558.7 1303.4,1562.9 1277.0,1567.4 1250.6,1572.0 1224.4,1576.8 1198.2,1581.9 1172.2,1587.1 1146.3,1592.5 1120.4,1598.0 1094.8,1603.7 1069.2,1609.6 1043.8,1615.6 1018.5,1621.7 993.4,1628.0  A 522.500,522.500 0.00 0,1 989.3,1610.4 L 989.3,1610.4 1014.8,1604.9 1040.4,1599.6 1066.2,1594.3 1092.1,1589.2 1118.0,1584.2 1144.1,1579.3 1170.2,1574.5 1196.5,1569.9 1222.8,1565.4 1249.2,1561.1 1275.7,1556.9 1302.2,1552.8 1328.8,1548.9 1355.5,1545.2 1382.2,1541.7 1408.9,1538.3 1435.7,1535.1 1462.5,1532.0 1489.4,1529.1 1516.2,1526.4 1543.1,1523.9 1570.0,1521.5 1596.9,1519.3 1623.8,1517.3 1650.6,1515.5 1677.5,1513.8 1704.3,1512.3 1731.2,1511.0 1757.9,1509.8 1784.7,1508.8 1811.4,1507.9 1838.0,1507.2 1864.6,1506.7 1891.1,1506.3 1917.5,1506.0 1943.9,1505.9 1970.2,1505.9 1996.4,1506.0 2022.5,1506.3  Z" style="stroke-width: 0.5;  stroke: rgb(0,0,0); fill: rgb(179,177,178);" />
<path d="M 1778.900,1941.838 A 522.500,522.500 0.00 0,1 1764.4,1950.7 L 1764.4,1950.7 1753.9,1933.1 1743.2,1915.8 1732.3,1898.9 1721.3,1882.5 1710.1,1866.7 1698.8,1851.6 1687.6,1837.3 1676.3,1823.9 1665.0,1811.6 1653.9,1800.2 1642.8,1790.1 1631.8,1781.1 1621.0,1773.4 1610.4,1766.9 1600.0,1761.9 1589.9,1758.2 1579.9,1755.9 1570.3,1755.0 1560.9,1755.5 1551.9,1757.5 1543.2,1760.9 1534.8,1765.8 1526.8,1772.0 1519.1,1779.7 1511.8,1788.6 1504.8,1798.9 1498.3,1810.5 1492.1,1823.2 1486.3,1837.1 1480.9,1852.1 1475.9,1868.0 1471.3,1884.9 1467.0,1902.6 1463.2,1921.0 1459.6,1940.0 1456.5,1959.6 1453.7,1979.5 1451.2,1999.7 1449.1,2020.0  A 522.500,522.500 0.00 0,1 1436.2,2018.6 L 1436.2,2018.6 1438.9,1998.3 1441.9,1978.1 1445.2,1958.1 1449.0,1938.6 1453.1,1919.5 1457.6,1901.1 1462.5,1883.4 1467.8,1866.4 1473.5,1850.4 1479.6,1835.4 1486.1,1821.5 1493.0,1808.6 1500.2,1797.0 1507.9,1786.6 1516.0,1777.5 1524.4,1769.7 1533.2,1763.3 1542.4,1758.3 1551.9,1754.6 1561.7,1752.4 1571.8,1751.7 1582.2,1752.3 1592.9,1754.4 1603.9,1757.8 1615.1,1762.6 1626.4,1768.7 1638.0,1776.1 1649.7,1784.8 1661.5,1794.7 1673.4,1805.7 1685.4,1817.7 1697.4,1830.8 1709.4,1844.7 1721.4,1859.5 1733.2,1874.9 1744.9,1891.0 1756.5,1907.6 1767.8,1924.6 1778.9,1941.8  Z" style="stroke-width: 0.5;  stroke: rgb(0,0,0); fill: rgb(179,177,178);" />
<path d="M 1941.203,1220.095 A 522.500,522.500 0.00 0,1 1949.8,1234.1 L 1949.8,1234.1 1928.4,1246.5 1906.7,1258.7 1884.7,1270.8 1862.3,1282.5 1839.7,1294.0 1816.7,1305.2 1793.4,1316.1 1769.9,1326.6 1746.1,1336.8 1722.0,1346.6 1697.7,1356.0 1673.2,1365.0 1648.4,1373.5 1623.5,1381.6 1598.3,1389.2 1573.0,1396.4 1547.6,1403.0 1522.0,1409.2 1496.3,1414.9 1470.5,1420.2 1444.5,1424.9 1418.5,1429.1 1392.5,1432.8 1366.4,1436.0 1340.3,1438.7 1314.2,1440.9 1288.0,1442.6 1261.9,1443.9 1235.9,1444.6 1209.9,1445.0 1184.0,1444.8 1158.2,1444.2 1132.6,1443.2 1107.1,1441.8 1081.7,1440.0 1056.5,1437.8 1031.6,1435.2 1006.8,1432.4 982.3,1429.2  A 522.500,522.500 0.00 0,1 984.8,1413.0 L 984.8,1413.0 1009.0,1416.9 1033.5,1420.5 1058.2,1423.7 1083.1,1426.6 1108.2,1429.0 1133.5,1431.0 1159.0,1432.6 1184.6,1433.7 1210.3,1434.4 1236.1,1434.6 1261.9,1434.2 1287.9,1433.4 1313.8,1432.0 1339.7,1430.1 1365.7,1427.6 1391.6,1424.6 1417.5,1421.1 1443.3,1417.0 1469.0,1412.4 1494.6,1407.2 1520.1,1401.5 1545.5,1395.3 1570.7,1388.5 1595.8,1381.2 1620.6,1373.4 1645.3,1365.1 1669.7,1356.3 1694.0,1347.1 1717.9,1337.4 1741.6,1327.2 1765.1,1316.7 1788.2,1305.7 1811.1,1294.4 1833.6,1282.7 1855.8,1270.7 1877.7,1258.4 1899.2,1245.9 1920.4,1233.1 1941.2,1220.1  Z" style="stroke-width: 0.5;  stroke: rgb(0,0,0); fill: rgb(179,177,178);" />
<path d="M 2000.657,1649.497 A 522.500,522.500 0.00 0,1 1995.9,1664.7 L 1995.9,1664.7 1972.9,1657.2 1949.5,1650.1 1925.9,1643.4 1901.9,1637.0 1877.7,1631.1 1853.3,1625.6 1828.6,1620.5 1803.8,1616.0 1778.7,1612.0 1753.6,1608.5 1728.2,1605.6 1702.8,1603.3 1677.3,1601.5 1651.7,1600.4 1626.0,1599.9 1600.4,1599.9 1574.7,1600.6 1549.1,1602.0 1523.4,1603.9 1497.9,1606.5 1472.4,1609.7 1447.0,1613.6 1421.7,1618.0 1396.5,1623.1 1371.5,1628.8 1346.7,1635.0 1322.0,1641.8 1297.6,1649.2 1273.3,1657.2 1249.4,1665.6 1225.6,1674.5 1202.2,1684.0 1179.0,1693.8 1156.2,1704.1 1133.7,1714.8 1111.5,1725.8 1089.7,1737.2 1068.2,1748.8 1047.2,1760.7  A 522.500,522.500 0.00 0,1 1039.4,1746.7 L 1039.4,1746.7 1061.0,1735.4 1082.9,1724.3 1105.2,1713.5 1127.8,1703.0 1150.8,1692.8 1174.0,1683.0 1197.6,1673.6 1221.4,1664.6 1245.5,1656.0 1269.8,1648.0 1294.4,1640.4 1319.2,1633.3 1344.1,1626.7 1369.3,1620.7 1394.6,1615.2 1420.0,1610.3 1445.6,1605.9 1471.2,1602.2 1497.0,1599.0 1522.8,1596.4 1548.7,1594.3 1574.6,1592.9 1600.5,1592.0 1626.4,1591.8 1652.3,1592.1 1678.1,1592.9 1703.9,1594.4 1729.6,1596.4 1755.1,1598.9 1780.6,1601.9 1805.9,1605.5 1831.1,1609.5 1856.0,1614.0 1880.8,1618.9 1905.3,1624.3 1929.6,1630.1 1953.6,1636.2 1977.3,1642.7 2000.7,1649.5  Z" style="stroke-width: 0.5;  stroke: rgb(0,0,0); fill: rgb(179,177,178);" />
<path d="M 1967.020,1265.695 A 522.500,522.500 0.00 0,1 1973.7,1279.5 L 1973.7,1279.5 1950.7,1290.0 1927.5,1300.4 1904.0,1310.7 1880.3,1320.7 1856.3,1330.5 1832.1,1340.1 1807.7,1349.4 1783.1,1358.5 1758.2,1367.3 1733.2,1375.8 1708.0,1384.1 1682.7,1392.0 1657.2,1399.6 1631.5,1406.8 1605.7,1413.8 1579.8,1420.4 1553.8,1426.6 1527.7,1432.5 1501.5,1438.0 1475.2,1443.2 1448.8,1448.0 1422.4,1452.4 1396.0,1456.5 1369.5,1460.2 1343.0,1463.5 1316.5,1466.5 1290.0,1469.1 1263.6,1471.4 1237.1,1473.3 1210.8,1474.9 1184.5,1476.1 1158.2,1477.0 1132.1,1477.6 1106.1,1477.9 1080.2,1477.9 1054.4,1477.5 1028.8,1477.0 1003.4,1476.1 978.1,1475.0  A 522.500,522.500 0.00 0,1 979.0,1459.8 L 979.0,1459.8 1004.1,1461.6 1029.3,1463.1 1054.8,1464.4 1080.3,1465.3 1106.1,1465.9 1132.0,1466.2 1158.0,1466.2 1184.1,1465.8 1210.3,1465.0 1236.6,1463.9 1262.9,1462.4 1289.3,1460.5 1315.7,1458.2 1342.1,1455.5 1368.5,1452.4 1394.9,1448.9 1421.2,1445.0 1447.6,1440.6 1473.8,1435.9 1500.0,1430.7 1526.1,1425.2 1552.1,1419.2 1578.0,1412.9 1603.7,1406.2 1629.3,1399.0 1654.8,1391.6 1680.1,1383.7 1705.2,1375.5 1730.2,1366.9 1754.9,1358.0 1779.5,1348.8 1803.8,1339.3 1827.9,1329.5 1851.7,1319.4 1875.3,1309.1 1898.7,1298.6 1921.7,1287.8 1944.5,1276.8 1967.0,1265.7  Z" style="stroke-width: 0.5;  stroke: rgb(0,0,0); fill: rgb(179,177,178);" />
<path d="M 1881.917,1143.425 A 522.500,522.500 0.00 0,1 1891.9,1154.4 L 1891.9,1154.4 1873.9,1170.0 1855.4,1185.4 1836.5,1200.5 1817.1,1215.4 1797.4,1229.9 1777.2,1244.0 1756.6,1257.7 1735.6,1271.0 1714.2,1283.8 1692.5,1296.1 1670.4,1307.9 1648.0,1319.1 1625.3,1329.6 1602.3,1339.6 1579.0,1349.0 1555.5,1357.7 1531.7,1365.7 1507.7,1373.1 1483.5,1379.7 1459.1,1385.7 1434.5,1391.0 1409.8,1395.6 1385.0,1399.4 1360.1,1402.6 1335.2,1405.1 1310.1,1406.9 1285.1,1408.0 1260.1,1408.4 1235.1,1408.2 1210.1,1407.3 1185.3,1405.9 1160.5,1403.8 1135.9,1401.1 1111.4,1397.9 1087.2,1394.2 1063.2,1390.0 1039.4,1385.3 1015.9,1380.2 992.8,1374.7  A 522.500,522.500 0.00 0,1 996.5,1360.4 L 996.5,1360.4 1019.3,1366.5 1042.5,1372.2 1066.0,1377.4 1089.7,1382.2 1113.7,1386.5 1137.9,1390.2 1162.2,1393.4 1186.7,1396.0 1211.3,1397.9 1236.0,1399.2 1260.8,1399.8 1285.5,1399.7 1310.3,1398.9 1335.1,1397.4 1359.8,1395.2 1384.4,1392.3 1408.9,1388.6 1433.3,1384.1 1457.6,1379.0 1481.7,1373.1 1505.6,1366.4 1529.3,1359.1 1552.7,1351.0 1575.9,1342.3 1598.8,1332.8 1621.5,1322.7 1643.8,1311.9 1665.8,1300.5 1687.5,1288.6 1708.8,1276.0 1729.7,1262.9 1750.2,1249.3 1770.4,1235.3 1790.1,1220.8 1809.4,1205.9 1828.2,1190.7 1846.6,1175.2 1864.5,1159.4 1881.9,1143.4  Z" style="stroke-width: 0.5;  stroke: rgb(0,0,0); fill: rgb(179,177,178);" />
<path d="M 1974.286,1280.777 A 522.500,522.500 0.00 0,1 1980.3,1294.2 L 1980.3,1294.2 1956.8,1304.2 1933.1,1314.0 1909.2,1323.6 1885.1,1333.0 1860.7,1342.3 1836.2,1351.3 1811.5,1360.2 1786.6,1368.8 1761.5,1377.2 1736.2,1385.3 1710.8,1393.1 1685.3,1400.7 1659.6,1408.0 1633.7,1415.0 1607.8,1421.7 1581.7,1428.1 1555.6,1434.2 1529.3,1440.0 1503.0,1445.5 1476.6,1450.7 1450.2,1455.5 1423.7,1460.0 1397.2,1464.3 1370.7,1468.1 1344.1,1471.7 1317.5,1474.9 1291.0,1477.9 1264.5,1480.5 1238.0,1482.8 1211.5,1484.8 1185.1,1486.5 1158.8,1487.9 1132.6,1489.1 1106.4,1489.9 1080.4,1490.5 1054.5,1490.9 1028.7,1491.0 1003.1,1490.9 977.6,1490.5  A 522.500,522.500 0.00 0,1 978.1,1475.3 L 978.1,1475.3 1003.4,1476.4 1028.8,1477.2 1054.4,1477.8 1080.2,1478.1 1106.1,1478.1 1132.1,1477.8 1158.3,1477.2 1184.5,1476.3 1210.8,1475.1 1237.2,1473.5 1263.6,1471.6 1290.1,1469.4 1316.6,1466.7 1343.1,1463.8 1369.6,1460.5 1396.1,1456.8 1422.5,1452.7 1449.0,1448.3 1475.3,1443.5 1501.6,1438.4 1527.9,1432.9 1554.0,1427.1 1580.0,1420.9 1606.0,1414.3 1631.8,1407.4 1657.4,1400.2 1683.0,1392.6 1708.3,1384.8 1733.5,1376.6 1758.6,1368.1 1783.4,1359.4 1808.1,1350.3 1832.5,1341.1 1856.7,1331.5 1880.7,1321.8 1904.5,1311.8 1928.0,1301.6 1951.3,1291.3 1974.3,1280.8  Z" style="stroke-width: 0.5;  stroke: rgb(0,0,0); fill: rgb(179,177,178);" />
<path d="M 1898.938,1837.423 A 522.500,522.500 0.00 0,1 1889.8,1848.0 L 1889.8,1848.0 1873.2,1833.6 1856.2,1819.5 1838.8,1805.8 1821.0,1792.7 1802.8,1780.1 1784.3,1768.2 1765.6,1757.0 1746.6,1746.6 1727.3,1737.1 1707.9,1728.4 1688.3,1720.6 1668.6,1713.9 1648.8,1708.1 1628.9,1703.4 1609.0,1699.8 1589.1,1697.2 1569.1,1695.8 1549.3,1695.5 1529.5,1696.3 1509.8,1698.3 1490.2,1701.4 1470.8,1705.6 1451.6,1710.9 1432.5,1717.3 1413.7,1724.8 1395.2,1733.4 1376.9,1742.9 1358.9,1753.4 1341.2,1764.9 1323.9,1777.2 1306.9,1790.4 1290.3,1804.3 1274.1,1819.0 1258.4,1834.3 1243.0,1850.2 1228.2,1866.6 1213.8,1883.4 1199.9,1900.6 1186.5,1918.0  A 522.500,522.500 0.00 0,1 1175.5,1909.5 L 1175.5,1909.5 1189.4,1892.4 1203.8,1875.5 1218.8,1858.9 1234.2,1842.8 1250.1,1827.2 1266.4,1812.1 1283.1,1797.7 1300.2,1784.0 1317.8,1771.0 1335.6,1758.9 1353.9,1747.6 1372.4,1737.2 1391.2,1727.8 1410.3,1719.4 1429.7,1712.0 1449.2,1705.6 1469.0,1700.3 1488.9,1696.1 1509.0,1693.0 1529.2,1691.0 1549.5,1690.1 1569.9,1690.2 1590.4,1691.5 1610.8,1693.9 1631.2,1697.4 1651.6,1701.8 1671.9,1707.4 1692.1,1713.9 1712.2,1721.3 1732.1,1729.7 1751.9,1739.0 1771.4,1749.0 1790.6,1759.9 1809.6,1771.4 1828.2,1783.6 1846.5,1796.4 1864.4,1809.7 1881.9,1823.4 1898.9,1837.4  Z" style="stroke-width: 0.5;  stroke: rgb(0,0,0); fill: rgb(179,177,178);" />
<path d="M 1623.595,992.328 A 522.500,522.500 0.00 0,1 1637.0,995.8 L 1637.0,995.8 1631.3,1015.9 1625.1,1035.9 1618.5,1055.7 1611.4,1075.1 1603.9,1094.0 1595.8,1112.4 1587.4,1130.1 1578.4,1147.0 1569.0,1163.1 1559.2,1178.2 1548.8,1192.4 1538.1,1205.6 1526.9,1217.6 1515.3,1228.5 1503.3,1238.2 1490.9,1246.6 1478.1,1253.8 1464.9,1259.7 1451.4,1264.3 1437.6,1267.6 1423.5,1269.5 1409.1,1270.2 1394.4,1269.5 1379.5,1267.5 1364.4,1264.2 1349.2,1259.7 1333.8,1254.0 1318.3,1247.1 1302.7,1239.0 1287.1,1229.9 1271.4,1219.8 1255.9,1208.7 1240.3,1196.7 1224.9,1183.9 1209.7,1170.4 1194.7,1156.2 1179.9,1141.5 1165.4,1126.4 1151.2,1110.9  A 522.500,522.500 0.00 0,1 1161.9,1101.7 L 1161.9,1101.7 1175.5,1117.4 1189.5,1132.9 1203.8,1147.9 1218.3,1162.4 1233.0,1176.3 1247.9,1189.4 1262.8,1201.7 1277.8,1213.2 1292.9,1223.6 1307.9,1233.1 1322.9,1241.4 1337.8,1248.6 1352.6,1254.6 1367.2,1259.4 1381.7,1262.9 1395.9,1265.1 1409.9,1266.0 1423.7,1265.6 1437.1,1263.8 1450.3,1260.7 1463.1,1256.3 1475.6,1250.5 1487.7,1243.4 1499.4,1235.0 1510.8,1225.4 1521.7,1214.6 1532.2,1202.6 1542.3,1189.5 1552.0,1175.3 1561.2,1160.1 1569.9,1144.0 1578.2,1127.0 1586.1,1109.3 1593.4,1090.9 1600.4,1071.9 1606.8,1052.5 1612.9,1032.6 1618.5,1012.5 1623.6,992.3  Z" style="stroke-width: 0.5;  stroke: rgb(0,0,0); fill: rgb(179,177,178);" />
<path d="M 2021.886,1525.318 A 522.500,522.500 0.00 0,1 2021.1,1538.2 L 2021.1,1538.2 1995.4,1536.4 1969.6,1534.8 1943.7,1533.4 1917.6,1532.1 1891.5,1531.1 1865.2,1530.3 1838.8,1529.7 1812.3,1529.3 1785.7,1529.2 1759.1,1529.3 1732.4,1529.6 1705.6,1530.2 1678.8,1531.0 1652.0,1532.1 1625.2,1533.5 1598.3,1535.1 1571.4,1537.0 1544.6,1539.2 1517.7,1541.6 1490.9,1544.3 1464.1,1547.2 1437.3,1550.4 1410.6,1553.9 1384.0,1557.6 1357.4,1561.6 1330.9,1565.8 1304.4,1570.3 1278.1,1575.0 1251.9,1580.0 1225.7,1585.2 1199.7,1590.6 1173.8,1596.2 1148.1,1602.0 1122.5,1608.0 1097.0,1614.2 1071.7,1620.6 1046.6,1627.2 1021.6,1633.9 996.8,1640.7  A 522.500,522.500 0.00 0,1 993.4,1628.0 L 993.4,1628.0 1018.5,1621.8 1043.8,1615.6 1069.2,1609.6 1094.7,1603.8 1120.4,1598.1 1146.2,1592.5 1172.2,1587.1 1198.2,1581.9 1224.4,1576.9 1250.6,1572.1 1277.0,1567.5 1303.4,1563.0 1329.9,1558.8 1356.5,1554.8 1383.2,1551.0 1409.9,1547.4 1436.6,1544.1 1463.4,1540.9 1490.2,1538.0 1517.1,1535.3 1544.0,1532.9 1570.9,1530.7 1597.7,1528.7 1624.6,1526.9 1651.5,1525.3 1678.4,1524.0 1705.2,1522.9 1732.0,1522.0 1758.7,1521.3 1785.4,1520.9 1812.0,1520.6 1838.6,1520.6 1865.1,1520.7 1891.5,1521.0 1917.8,1521.6 1944.0,1522.3 1970.1,1523.1 1996.0,1524.1 2021.9,1525.3  Z" style="stroke-width: 0.5;  stroke: rgb(0,0,0); fill: rgb(179,177,178);" />
<path d="M 1859.970,1878.719 A 522.500,522.500 0.00 0,1 1850.7,1887.3 L 1850.7,1887.3 1836.1,1871.6 1821.1,1856.1 1805.6,1841.1 1789.8,1826.6 1773.6,1812.7 1757.2,1799.4 1740.5,1786.9 1723.5,1775.3 1706.3,1764.5 1689.0,1754.7 1671.5,1745.9 1653.9,1738.1 1636.3,1731.4 1618.5,1725.9 1600.8,1721.5 1583.0,1718.3 1565.3,1716.4 1547.7,1715.6 1530.1,1716.1 1512.6,1717.8 1495.3,1720.8 1478.1,1725.0 1461.1,1730.3 1444.3,1736.9 1427.7,1744.7 1411.4,1753.6 1395.4,1763.5 1379.7,1774.6 1364.2,1786.6 1349.1,1799.7 1334.4,1813.6 1320.1,1828.3 1306.1,1843.8 1292.5,1860.0 1279.4,1876.8 1266.7,1894.1 1254.5,1911.9 1242.7,1929.9 1231.5,1948.2  A 522.500,522.500 0.00 0,1 1220.8,1941.7 L 1220.8,1941.7 1232.6,1923.6 1244.8,1905.7 1257.5,1888.1 1270.7,1871.0 1284.4,1854.4 1298.5,1838.4 1313.0,1823.1 1327.8,1808.5 1343.1,1794.7 1358.7,1781.9 1374.7,1770.0 1391.0,1759.0 1407.5,1749.1 1424.4,1740.3 1441.5,1732.6 1458.8,1726.1 1476.4,1720.7 1494.1,1716.5 1511.9,1713.5 1529.9,1711.8 1548.1,1711.2 1566.2,1711.9 1584.5,1713.7 1602.8,1716.8 1621.0,1721.0 1639.3,1726.3 1657.5,1732.8 1675.6,1740.3 1693.5,1748.9 1711.4,1758.5 1729.0,1769.0 1746.5,1780.4 1763.7,1792.6 1780.6,1805.5 1797.2,1819.2 1813.5,1833.4 1829.4,1848.1 1844.9,1863.3 1860.0,1878.7  Z" style="stroke-width: 0.5;  stroke: rgb(0,0,0); fill: rgb(179,177,178);" />
<path d="M 1980.696,1295.213 A 522.500,522.500 0.00 0,1 1985.2,1306.1 L 1985.2,1306.1 1961.4,1315.6 1937.3,1324.8 1913.1,1334.0 1888.7,1343.0 1864.1,1351.8 1839.3,1360.4 1814.3,1368.8 1789.2,1377.0 1763.9,1385.1 1738.4,1392.8 1712.9,1400.4 1687.1,1407.7 1661.3,1414.7 1635.4,1421.5 1609.3,1428.1 1583.2,1434.3 1556.9,1440.3 1530.6,1446.0 1504.3,1451.5 1477.8,1456.6 1451.3,1461.5 1424.8,1466.1 1398.2,1470.4 1371.7,1474.4 1345.1,1478.2 1318.5,1481.6 1291.9,1484.8 1265.3,1487.7 1238.8,1490.3 1212.3,1492.7 1185.8,1494.7 1159.5,1496.6 1133.2,1498.1 1106.9,1499.5 1080.8,1500.6 1054.8,1501.4 1028.9,1502.1 1003.1,1502.5 977.5,1502.7  A 522.500,522.500 0.00 0,1 977.6,1490.6 L 977.6,1490.6 1003.1,1491.0 1028.7,1491.1 1054.5,1491.0 1080.4,1490.6 1106.4,1490.0 1132.6,1489.2 1158.8,1488.0 1185.2,1486.6 1211.6,1484.9 1238.0,1482.9 1264.5,1480.6 1291.0,1478.0 1317.6,1475.1 1344.2,1471.9 1370.7,1468.3 1397.3,1464.4 1423.8,1460.3 1450.3,1455.8 1476.7,1450.9 1503.1,1445.8 1529.5,1440.3 1555.7,1434.6 1581.9,1428.5 1607.9,1422.1 1633.9,1415.4 1659.7,1408.4 1685.4,1401.2 1711.0,1393.6 1736.4,1385.8 1761.7,1377.8 1786.8,1369.4 1811.7,1360.9 1836.5,1352.1 1861.0,1343.1 1885.4,1333.8 1909.6,1324.4 1933.5,1314.8 1957.2,1305.1 1980.7,1295.2  Z" style="stroke-width: 0.5;  stroke: rgb(0,0,0); fill: rgb(179,177,178);" />
<path d="M 1985.797,1307.627 A 522.500,522.500 0.00 0,1 1988.7,1315.1 L 1988.7,1315.1 1964.6,1324.2 1940.2,1333.1 1915.7,1341.9 1891.1,1350.6 1866.2,1359.1 1841.2,1367.4 1816.1,1375.6 1790.8,1383.6 1765.4,1391.4 1739.8,1399.0 1714.2,1406.4 1688.4,1413.6 1662.5,1420.5 1636.5,1427.3 1610.4,1433.8 1584.2,1440.1 1557.9,1446.2 1531.6,1452.0 1505.2,1457.6 1478.8,1462.9 1452.3,1468.0 1425.7,1472.8 1399.2,1477.4 1372.6,1481.7 1346.0,1485.8 1319.4,1489.7 1292.9,1493.3 1266.3,1496.6 1239.8,1499.8 1213.2,1502.6 1186.8,1505.3 1160.4,1507.7 1134.0,1509.9 1107.8,1511.9 1081.6,1513.7 1055.5,1515.3 1029.5,1516.7 1003.6,1517.8 977.8,1518.9  A 522.500,522.500 0.00 0,1 977.6,1510.8 L 977.6,1510.8 1003.3,1510.2 1029.1,1509.4 1055.0,1508.4 1081.1,1507.1 1107.2,1505.7 1133.5,1504.0 1159.8,1502.1 1186.2,1499.9 1212.6,1497.5 1239.1,1494.9 1265.6,1492.0 1292.2,1488.8 1318.7,1485.4 1345.3,1481.7 1371.9,1477.7 1398.5,1473.4 1425.0,1468.9 1451.5,1464.1 1478.0,1459.1 1504.4,1453.8 1530.8,1448.2 1557.1,1442.3 1583.3,1436.2 1609.4,1429.8 1635.5,1423.2 1661.4,1416.3 1687.3,1409.2 1713.0,1401.8 1738.6,1394.2 1764.0,1386.4 1789.3,1378.4 1814.5,1370.1 1839.5,1361.7 1864.3,1353.1 1889.0,1344.3 1913.5,1335.3 1937.8,1326.2 1961.9,1317.0 1985.8,1307.6  Z" style="stroke-width: 0.5;  stroke: rgb(0,0,0); fill: rgb(179,177,178);" />
<path d="M 1936.718,1213.149 A 522.500,522.500 0.00 0,1 1940.6,1219.2 L 1940.6,1219.2 1919.9,1232.2 1898.7,1245.0 1877.2,1257.6 1855.4,1269.9 1833.2,1282.0 1810.7,1293.7 1787.9,1305.1 1764.7,1316.1 1741.3,1326.7 1717.6,1336.8 1693.7,1346.6 1669.5,1355.9 1645.0,1364.7 1620.4,1373.0 1595.5,1380.9 1570.5,1388.2 1545.3,1395.0 1520.0,1401.3 1494.5,1407.0 1468.9,1412.2 1443.2,1416.8 1417.4,1420.9 1391.5,1424.5 1365.6,1427.5 1339.7,1430.0 1313.7,1431.9 1287.8,1433.3 1261.9,1434.1 1236.0,1434.5 1210.2,1434.3 1184.5,1433.7 1158.9,1432.6 1133.5,1431.0 1108.2,1429.0 1083.1,1426.5 1058.1,1423.7 1033.4,1420.5 1009.0,1416.9 984.8,1413.0  A 522.500,522.500 0.00 0,1 986.0,1405.9 L 986.0,1405.9 1010.1,1410.1 1034.4,1414.0 1059.0,1417.5 1083.8,1420.7 1108.8,1423.4 1134.0,1425.7 1159.4,1427.5 1184.9,1428.8 1210.5,1429.7 1236.2,1430.1 1261.9,1429.9 1287.8,1429.2 1313.6,1428.0 1339.5,1426.2 1365.3,1423.8 1391.1,1420.9 1416.9,1417.5 1442.6,1413.4 1468.2,1408.8 1493.7,1403.6 1519.1,1397.9 1544.4,1391.6 1569.5,1384.8 1594.4,1377.4 1619.1,1369.5 1643.6,1361.1 1667.9,1352.1 1691.9,1342.7 1715.7,1332.8 1739.3,1322.5 1762.5,1311.7 1785.5,1300.5 1808.1,1289.0 1830.4,1277.1 1852.4,1264.8 1874.0,1252.3 1895.3,1239.5 1916.2,1226.4 1936.7,1213.1  Z" style="stroke-width: 0.5;  stroke: rgb(0,0,0); fill: rgb(179,177,178);" />
</g>
<g id="plot0">
<g id="plot0-axis">
</g>
<line x1='2244.1' y1='1593.8' x2='2244.1' y2='1593.8' style="stroke-width:14.0;stroke:rgb(0,0,0);stroke-linecap:round;fill:none;" />
<line x1='2244.1' y1='1593.8' x2='2283.8' y2='1598.8' style="stroke-width:14.0;stroke:rgb(0,0,0);stroke-linecap:round;fill:none;" />
<line x1='2283.8' y1='1598.8' x2='2283.8' y2='1598.8' style="stroke-width:14.0;stroke:rgb(0,0,0);stroke-linecap:round;fill:none;" />
<text x="2300.5" y="1623.6" font-size="46.8px" font-family="CMUBright-Roman" style="text-anchor:start;fill:rgb(255,38,78);" transform="rotate(7.2,2300.5,1623.6)" >HistoohiSECH99<tspan baseline-shift="-40%" font-size="90%">s</tspan>02851</text>
</g>
<defs>
<pattern id="checker" width="10" height="10" patternTransform="rotate(45 0 0)" patternUnits="userSpaceOnUse"><line x1="0" y1="0" x2="10" y2="0" style="stroke:black;stroke-width:2" /><line x1="0" y1="0" x2="0" y2="10" style="stroke:black;stroke-width:2" /></pattern>
<pattern id="vline" width="10" height="10" patternTransform="rotate(0 0 0)" patternUnits="userSpaceOnUse"><line x1="0" y1="0" x2="0" y2="10" style="stroke:black;stroke-width:5" /></pattern>
<pattern id="vline-sparse" width="10" height="10" patternTransform="rotate(0 0 0)" patternUnits="userSpaceOnUse"><line x1="0" y1="0" x2="0" y2="10" style="stroke:black;stroke-width:2" /></pattern>
<pattern id="hline-sparse" width="10" height="10" patternTransform="rotate(0 0 0)" patternUnits="userSpaceOnUse"><line x1="0" y1="0" x2="10" y2="0" style="stroke:black;stroke-width:2" /></pattern>
<pattern id="hline" width="10" height="10" patternTransform="rotate(0 0 0)" patternUnits="userSpaceOnUse"><line x1="0" y1="0" x2="10" y2="0" style="stroke:black;stroke-width:5" /></pattern>
<pattern id="checker" width="10" height="10" patternTransform="rotate(45 0 0)" patternUnits="userSpaceOnUse"><line x1="0" y1="0" x2="10" y2="0" style="stroke:black;stroke-width:5" /><line x1="0" y1="0" x2="0" y2="10" style="stroke:black;stroke-width:4" /></pattern>
</defs>
</svg>
