<?xml version="1.0" encoding="utf-8" standalone="no"?>
<!DOCTYPE svg PUBLIC "-//W3C//DTD SVG 1.1//EN" "http://www.w3.org/Graphics/SVG/1.1/DTD/svg11.dtd">
<svg width="3000px" height="3000px" version="1.1" xmlns="http://www.w3.org/2000/svg" xmlns:xlink="http://www.w3.org/1999/xlink">
<g id="bg">
<rect x="0" y="0" width="3000px" height="3000px" style="fill:rgb(255,255,255);"/>
</g>
<g id="ideograms">
<path d="M1500.000,950.000 A550.000,550.000 40.000 0,1 1650.767,2028.932 L1705.592,2221.271 A750.000,750.000 0.000 0,0 1500.000,750.000 Z" style="stroke-width:2.0;stroke:rgb(0,0,0);stroke-linecap:round;fill:rgb(179,177,178);" />
<text x="2465.6" y="1365.1" font-size="46.8px" font-family="CMUBright-Roman" style="text-anchor:middle;fill:rgb(0,0,0);" transform="rotate(442.0,2465.6,1365.1)" >Histocap1517p17<tspan baseline-shift="-40%" font-size="90%">6</tspan></text>
<line x1='1524.1' y1='750.4' x2='1524.5' y2='738.4' style="stroke-width:8.0;stroke:rgb(150,150,150);stroke-linecap:round;fill:none;" />
<line x1='1622.2' y1='760.0' x2='1624.1' y2='748.2' style="stroke-width:8.0;stroke:rgb(150,150,150);stroke-linecap:round;fill:none;" />
<line x1='1718.2' y1='782.4' x2='1721.7' y2='771.0' style="stroke-width:8.0;stroke:rgb(150,150,150);stroke-linecap:round;fill:none;" />
<line x1='1810.4' y1='817.2' x2='1815.3' y2='806.3' style="stroke-width:8.0;stroke:rgb(150,150,150);stroke-linecap:round;fill:none;" />
<text x="1833.0" y="801.3" font-size="41.6px" font-family="CMUBright-Roman" style="text-anchor:start;fill:rgb(150,150,150);" transform="rotate(294.4,1833.0,801.3)" >2200 kb</text>
<line x1='1897.2' y1='863.8' x2='1903.6' y2='853.7' style="stroke-width:8.0;stroke:rgb(150,150,150);stroke-linecap:round;fill:none;" />
<line x1='1977.2' y1='921.4' x2='1984.8' y2='912.2' style="stroke-width:8.0;stroke:rgb(150,150,150);stroke-linecap:round;fill:none;" />
<line x1='2049.0' y1='989.0' x2='2057.7' y2='980.8' style="stroke-width:8.0;stroke:rgb(150,150,150);stroke-linecap:round;fill:none;" />
<line x1='2111.2' y1='1065.4' x2='2121.0' y2='1058.4' style="stroke-width:8.0;stroke:rgb(150,150,150);stroke-linecap:round;fill:none;" />
<line x1='2162.9' y1='1149.3' x2='2173.6' y2='1143.7' style="stroke-width:8.0;stroke:rgb(150,150,150);stroke-linecap:round;fill:none;" />
<text x="2190.6" y="1150.5" font-size="41.6px" font-family="CMUBright-Roman" style="text-anchor:start;fill:rgb(150,150,150);" transform="rotate(332.1,2190.6,1150.5)" >2250 kb</text>
<line x1='2203.2' y1='1239.2' x2='2214.5' y2='1235.1' style="stroke-width:8.0;stroke:rgb(150,150,150);stroke-linecap:round;fill:none;" />
<line x1='2231.3' y1='1333.7' x2='2243.0' y2='1331.0' style="stroke-width:8.0;stroke:rgb(150,150,150);stroke-linecap:round;fill:none;" />
<line x1='2246.8' y1='1431.0' x2='2258.8' y2='1429.9' style="stroke-width:8.0;stroke:rgb(150,150,150);stroke-linecap:round;fill:none;" />
<line x1='2249.4' y1='1529.6' x2='2261.4' y2='1530.0' style="stroke-width:8.0;stroke:rgb(150,150,150);stroke-linecap:round;fill:none;" />
<line x1='2239.1' y1='1627.6' x2='2250.9' y2='1629.6' style="stroke-width:8.0;stroke:rgb(150,150,150);stroke-linecap:round;fill:none;" />
<text x="2260.2" y="1645.4" font-size="41.6px" font-family="CMUBright-Roman" style="text-anchor:start;fill:rgb(150,150,150);" transform="rotate(9.8,2260.2,1645.4)" >2300 kb</text>
<line x1='2216.0' y1='1723.4' x2='2227.4' y2='1727.0' style="stroke-width:8.0;stroke:rgb(150,150,150);stroke-linecap:round;fill:none;" />
<line x1='2180.5' y1='1815.3' x2='2191.4' y2='1820.4' style="stroke-width:8.0;stroke:rgb(150,150,150);stroke-linecap:round;fill:none;" />
<line x1='2133.3' y1='1901.8' x2='2143.4' y2='1908.3' style="stroke-width:8.0;stroke:rgb(150,150,150);stroke-linecap:round;fill:none;" />
<line x1='2075.1' y1='1981.4' x2='2084.3' y2='1989.1' style="stroke-width:8.0;stroke:rgb(150,150,150);stroke-linecap:round;fill:none;" />
<line x1='2007.0' y1='2052.7' x2='2015.1' y2='2061.5' style="stroke-width:8.0;stroke:rgb(150,150,150);stroke-linecap:round;fill:none;" />
<text x="2012.8" y="2079.7" font-size="41.6px" font-family="CMUBright-Roman" style="text-anchor:start;fill:rgb(150,150,150);" transform="rotate(47.5,2012.8,2079.7)" >2350 kb</text>
<line x1='1930.2' y1='2114.4' x2='1937.0' y2='2124.2' style="stroke-width:8.0;stroke:rgb(150,150,150);stroke-linecap:round;fill:none;" />
<line x1='1845.9' y1='2165.5' x2='1851.4' y2='2176.1' style="stroke-width:8.0;stroke:rgb(150,150,150);stroke-linecap:round;fill:none;" />
<line x1='1755.6' y1='2205.1' x2='1759.7' y2='2216.4' style="stroke-width:8.0;stroke:rgb(150,150,150);stroke-linecap:round;fill:none;" />
<g id="highlighttrack_0">
<path d="M2032.114,1360.878 A550.000,550.000 40.000 0,1 2049.868,1487.929 L2249.819,1483.540 A750.000,750.000 0.000 0,0 2225.610,1310.288 Z" style="stroke-width:14.0;stroke:rgb(0,0,0);stroke-linecap:round;fill:rgb(255,38,78);" />
</g>
<path d="M1500.000,950.000 A550.000,550.000 40.000 0,1 1650.767,2028.932 L1705.592,2221.271 A750.000,750.000 0.000 0,0 1500.000,750.000 Z" style="stroke-width:2.0;stroke:rgb(0,0,0);stroke-linecap:round;fill:none;" />
<path d="M1435.882,2046.250 A550.000,550.000 40.000 0,1 1288.599,992.250 L1211.726,807.614 A750.000,750.000 0.000 0,0 1412.566,2244.886 Z" style="stroke-width:2.0;stroke:rgb(0,0,0);stroke-linecap:round;fill:rgb(179,177,178);" />
<text x="489.8" y="1641.2" font-size="46.8px" font-family="CMUBright-Roman" style="text-anchor:middle;fill:rgb(0,0,0);" transform="rotate(82.0,489.8,1641.2)" >HistosurSECH105<tspan baseline-shift="-40%" font-size="90%">6</tspan></text>
<line x1='1142.1' y1='840.9' x2='1136.3' y2='830.4' style="stroke-width:8.0;stroke:rgb(150,150,150);stroke-linecap:round;fill:none;" />
<line x1='1058.7' y1='893.5' x2='1051.7' y2='883.8' style="stroke-width:8.0;stroke:rgb(150,150,150);stroke-linecap:round;fill:none;" />
<line x1='983.0' y1='956.6' x2='974.7' y2='948.0' style="stroke-width:8.0;stroke:rgb(150,150,150);stroke-linecap:round;fill:none;" />
<line x1='916.2' y1='1029.1' x2='906.9' y2='1021.6' style="stroke-width:8.0;stroke:rgb(150,150,150);stroke-linecap:round;fill:none;" />
<text x="888.9" y="1025.0" font-size="41.6px" font-family="CMUBright-Roman" style="text-anchor:end;fill:rgb(150,150,150);" transform="rotate(38.9,888.9,1025.0)" >2100 kb</text>
<line x1='859.5' y1='1109.7' x2='849.3' y2='1103.5' style="stroke-width:8.0;stroke:rgb(150,150,150);stroke-linecap:round;fill:none;" />
<line x1='813.9' y1='1197.1' x2='802.9' y2='1192.2' style="stroke-width:8.0;stroke:rgb(150,150,150);stroke-linecap:round;fill:none;" />
<line x1='780.1' y1='1289.7' x2='768.6' y2='1286.3' style="stroke-width:8.0;stroke:rgb(150,150,150);stroke-linecap:round;fill:none;" />
<line x1='758.7' y1='1385.9' x2='746.9' y2='1384.1' style="stroke-width:8.0;stroke:rgb(150,150,150);stroke-linecap:round;fill:none;" />
<line x1='750.2' y1='1484.1' x2='738.2' y2='1483.8' style="stroke-width:8.0;stroke:rgb(150,150,150);stroke-linecap:round;fill:none;" />
<text x="726.0" y="1497.6" font-size="41.6px" font-family="CMUBright-Roman" style="text-anchor:end;fill:rgb(150,150,150);" transform="rotate(1.2,726.0,1497.6)" >2150 kb</text>
<line x1='754.6' y1='1582.5' x2='742.6' y2='1583.9' style="stroke-width:8.0;stroke:rgb(150,150,150);stroke-linecap:round;fill:none;" />
<line x1='771.8' y1='1679.6' x2='760.2' y2='1682.5' style="stroke-width:8.0;stroke:rgb(150,150,150);stroke-linecap:round;fill:none;" />
<line x1='801.7' y1='1773.5' x2='790.5' y2='1777.9' style="stroke-width:8.0;stroke:rgb(150,150,150);stroke-linecap:round;fill:none;" />
<line x1='843.5' y1='1862.7' x2='833.0' y2='1868.5' style="stroke-width:8.0;stroke:rgb(150,150,150);stroke-linecap:round;fill:none;" />
<line x1='896.8' y1='1945.7' x2='887.1' y2='1952.8' style="stroke-width:8.0;stroke:rgb(150,150,150);stroke-linecap:round;fill:none;" />
<text x="885.9" y="1971.1" font-size="41.6px" font-family="CMUBright-Roman" style="text-anchor:end;fill:rgb(150,150,150);" transform="rotate(-36.5,885.9,1971.1)" >2200 kb</text>
<line x1='960.4' y1='2020.9' x2='951.8' y2='2029.3' style="stroke-width:8.0;stroke:rgb(150,150,150);stroke-linecap:round;fill:none;" />
<line x1='1033.4' y1='2087.2' x2='1025.9' y2='2096.6' style="stroke-width:8.0;stroke:rgb(150,150,150);stroke-linecap:round;fill:none;" />
<line x1='1114.4' y1='2143.3' x2='1108.2' y2='2153.6' style="stroke-width:8.0;stroke:rgb(150,150,150);stroke-linecap:round;fill:none;" />
<line x1='1202.1' y1='2188.3' x2='1197.3' y2='2199.3' style="stroke-width:8.0;stroke:rgb(150,150,150);stroke-linecap:round;fill:none;" />
<line x1='1294.9' y1='2221.4' x2='1291.6' y2='2233.0' style="stroke-width:8.0;stroke:rgb(150,150,150);stroke-linecap:round;fill:none;" />
<text x="1301.9" y="2248.2" font-size="41.6px" font-family="CMUBright-Roman" style="text-anchor:end;fill:rgb(150,150,150);" transform="rotate(-74.1,1301.9,2248.2)" >2250 kb</text>
<line x1='1391.3' y1='2242.1' x2='1389.6' y2='2254.0' style="stroke-width:8.0;stroke:rgb(150,150,150);stroke-linecap:round;fill:none;" />
<path d="M1435.882,2046.250 A550.000,550.000 40.000 0,1 1288.599,992.250 L1211.726,807.614 A750.000,750.000 0.000 0,0 1412.566,2244.886 Z" style="stroke-width:2.0;stroke:rgb(0,0,0);stroke-linecap:round;fill:none;" />
</g>
<g id="track_0">
<path d="M 1512.326,977.645 A 522.500,522.500 0.00 0,1 1663.5,1003.7 L 1663.5,1003.7 1656.5,1024.0 1649.1,1044.2 1641.0,1064.2 1632.5,1083.9 1623.4,1103.1 1613.7,1121.9 1603.5,1140.1 1592.8,1157.6 1581.5,1174.3 1569.6,1190.3 1557.2,1205.4 1544.3,1219.6 1530.9,1232.8 1517.0,1245.0 1502.6,1256.2 1487.7,1266.2 1472.3,1275.1 1456.5,1282.9 1440.3,1289.5 1423.7,1295.0 1406.7,1299.2 1389.4,1302.3 1371.7,1304.2 1353.8,1304.9 1335.6,1304.4 1317.1,1302.8 1298.5,1300.1 1279.7,1296.2 1260.8,1291.4 1241.8,1285.5 1222.8,1278.6 1203.7,1270.9 1184.8,1262.2 1165.9,1252.8 1147.2,1242.7 1128.6,1231.9 1110.4,1220.5 1092.4,1208.6 1074.8,1196.4  A 522.500,522.500 0.00 0,1 1181.9,1085.5 L 1181.9,1085.5 1194.5,1101.6 1207.4,1117.5 1220.4,1132.9 1233.5,1147.9 1246.7,1162.2 1259.9,1175.8 1273.1,1188.6 1286.2,1200.5 1299.2,1211.4 1312.0,1221.3 1324.6,1230.0 1337.0,1237.6 1349.1,1243.9 1360.9,1249.0 1372.4,1252.7 1383.5,1255.1 1394.3,1256.2 1404.6,1255.9 1414.5,1254.2 1424.0,1251.1 1433.0,1246.6 1441.6,1240.8 1449.6,1233.6 1457.2,1225.1 1464.2,1215.3 1470.8,1204.2 1476.8,1191.9 1482.4,1178.5 1487.4,1164.0 1492.0,1148.5 1496.0,1132.0 1499.6,1114.7 1502.7,1096.6 1505.3,1077.8 1507.5,1058.5 1509.3,1038.7 1510.7,1018.5 1511.7,998.1 1512.3,977.6  Z" style="stroke-width: 0.5;  stroke: rgb(0,0,0); fill: rgb(179,177,178);" />
<path d="M 2013.076,1598.787 A 522.500,522.500 0.00 0,1 1987.0,1689.4 L 1987.0,1689.4 1964.6,1680.9 1941.8,1672.7 1918.7,1664.9 1895.2,1657.5 1871.5,1650.5 1847.5,1644.1 1823.3,1638.1 1798.9,1632.6 1774.3,1627.7 1749.5,1623.3 1724.5,1619.5 1699.4,1616.4 1674.3,1613.9 1649.0,1612.0 1623.7,1610.7 1598.3,1610.2 1572.9,1610.3 1547.5,1611.0 1522.2,1612.5 1496.9,1614.6 1471.7,1617.4 1446.5,1620.9 1421.5,1625.0 1396.6,1629.8 1371.8,1635.3 1347.2,1641.3 1322.8,1648.0 1298.6,1655.3 1274.6,1663.2 1250.9,1671.6 1227.4,1680.6 1204.3,1690.1 1181.4,1700.0 1158.8,1710.5 1136.6,1721.3 1114.7,1732.5 1093.3,1744.0 1072.2,1755.9 1051.5,1768.0  A 522.500,522.500 0.00 0,1 1010.4,1682.5 L 1010.4,1682.5 1034.0,1673.8 1057.8,1665.4 1081.9,1657.2 1106.2,1649.3 1130.8,1641.6 1155.6,1634.1 1180.6,1627.0 1205.8,1620.2 1231.1,1613.7 1256.7,1607.6 1282.4,1601.8 1308.3,1596.4 1334.3,1591.4 1360.4,1586.7 1386.7,1582.5 1413.0,1578.6 1439.4,1575.1 1465.9,1572.1 1492.4,1569.5 1519.0,1567.2 1545.6,1565.4 1572.2,1564.1 1598.8,1563.1 1625.4,1562.5 1652.0,1562.4 1678.6,1562.6 1705.0,1563.3 1731.4,1564.3 1757.8,1565.8 1784.0,1567.6 1810.1,1569.8 1836.1,1572.3 1861.9,1575.2 1887.6,1578.4 1913.1,1581.9 1938.4,1585.7 1963.5,1589.8 1988.4,1594.2 2013.1,1598.8  Z" style="stroke-width: 0.5;  stroke: rgb(0,0,0); fill: rgb(179,177,178);" />
<path d="M 1783.479,1061.085 A 522.500,522.500 0.00 0,1 1854.7,1116.4 L 1854.7,1116.4 1838.6,1133.4 1822.0,1150.3 1805.0,1166.9 1787.4,1183.3 1769.4,1199.3 1750.8,1214.9 1731.9,1230.1 1712.5,1244.8 1692.7,1259.0 1672.4,1272.6 1651.8,1285.7 1630.7,1298.1 1609.3,1309.9 1587.6,1321.1 1565.5,1331.5 1543.1,1341.2 1520.4,1350.2 1497.5,1358.5 1474.3,1366.0 1450.8,1372.7 1427.2,1378.6 1403.3,1383.8 1379.3,1388.2 1355.2,1391.8 1330.9,1394.7 1306.6,1396.7 1282.2,1398.1 1257.7,1398.7 1233.3,1398.5 1208.9,1397.7 1184.6,1396.1 1160.3,1393.9 1136.2,1391.1 1112.2,1387.7 1088.4,1383.6 1064.9,1379.1 1041.6,1374.0 1018.6,1368.5 995.9,1362.6  A 522.500,522.500 0.00 0,1 1027.1,1277.7 L 1027.1,1277.7 1047.6,1287.0 1068.5,1295.9 1089.6,1304.3 1111.1,1312.2 1132.8,1319.4 1154.7,1326.0 1176.8,1331.8 1199.0,1336.9 1221.3,1341.2 1243.7,1344.7 1266.0,1347.3 1288.3,1349.0 1310.6,1349.8 1332.8,1349.6 1354.8,1348.5 1376.7,1346.5 1398.4,1343.4 1419.9,1339.3 1441.2,1334.3 1462.2,1328.3 1482.9,1321.3 1503.3,1313.4 1523.3,1304.5 1543.0,1294.7 1562.3,1283.9 1581.2,1272.3 1599.6,1259.9 1617.7,1246.6 1635.3,1232.6 1652.4,1217.8 1669.0,1202.3 1685.2,1186.3 1700.8,1169.6 1715.9,1152.4 1730.5,1134.8 1744.6,1116.8 1758.1,1098.4 1771.1,1079.8 1783.5,1061.1  Z" style="stroke-width: 0.5;  stroke: rgb(0,0,0); fill: rgb(179,177,178);" />
<path d="M 2022.176,1518.411 A 522.500,522.500 0.00 0,1 2013.0,1599.2 L 2013.0,1599.2 1988.3,1594.5 1963.5,1590.1 1938.3,1586.0 1913.0,1582.2 1887.5,1578.7 1861.9,1575.4 1836.0,1572.5 1810.0,1570.0 1783.9,1567.8 1757.7,1565.9 1731.4,1564.5 1705.0,1563.4 1678.5,1562.7 1652.0,1562.4 1625.4,1562.6 1598.8,1563.1 1572.1,1564.0 1545.5,1565.4 1518.9,1567.2 1492.3,1569.4 1465.8,1572.0 1439.3,1575.0 1412.9,1578.4 1386.6,1582.3 1360.3,1586.5 1334.2,1591.1 1308.2,1596.1 1282.3,1601.5 1256.6,1607.3 1231.0,1613.4 1205.6,1619.8 1180.4,1626.6 1155.4,1633.7 1130.6,1641.1 1106.0,1648.7 1081.7,1656.7 1057.6,1664.8 1033.7,1673.2 1010.2,1681.8  A 522.500,522.500 0.00 0,1 987.9,1603.8 L 987.9,1603.8 1013.5,1598.7 1039.1,1593.7 1064.9,1588.8 1090.8,1584.0 1116.9,1579.4 1143.0,1574.8 1169.2,1570.4 1195.5,1566.2 1221.9,1562.1 1248.3,1558.2 1274.8,1554.4 1301.4,1550.8 1328.1,1547.3 1354.8,1544.0 1381.6,1540.9 1408.4,1538.0 1435.2,1535.2 1462.1,1532.6 1489.0,1530.2 1515.9,1528.0 1542.8,1526.0 1569.7,1524.1 1596.6,1522.4 1623.5,1520.9 1650.5,1519.6 1677.3,1518.5 1704.2,1517.5 1731.0,1516.7 1757.8,1516.1 1784.6,1515.6 1811.3,1515.3 1837.9,1515.2 1864.5,1515.2 1891.0,1515.4 1917.4,1515.7 1943.7,1516.2 1970.0,1516.8 1996.1,1517.6 2022.2,1518.4  Z" style="stroke-width: 0.5;  stroke: rgb(0,0,0); fill: rgb(179,177,178);" />
<path d="M 1876.603,1137.817 A 522.500,522.500 0.00 0,1 1924.7,1195.6 L 1924.7,1195.6 1904.6,1209.9 1884.1,1223.9 1863.2,1237.8 1842.0,1251.5 1820.4,1264.9 1798.5,1278.0 1776.3,1290.8 1753.8,1303.3 1730.9,1315.4 1707.8,1327.2 1684.4,1338.6 1660.8,1349.6 1636.9,1360.2 1612.7,1370.3 1588.4,1380.0 1563.8,1389.2 1539.0,1397.9 1514.0,1406.2 1488.9,1413.9 1463.6,1421.2 1438.2,1428.0 1412.7,1434.3 1387.1,1440.0 1361.3,1445.3 1335.6,1450.1 1309.7,1454.3 1283.9,1458.1 1258.0,1461.3 1232.1,1464.1 1206.3,1466.4 1180.5,1468.3 1154.8,1469.7 1129.1,1470.6 1103.6,1471.2 1078.2,1471.3 1053.0,1471.0 1028.0,1470.3 1003.1,1469.3 978.5,1468.0  A 522.500,522.500 0.00 0,1 988.5,1393.1 L 988.5,1393.1 1011.9,1397.8 1035.5,1402.0 1059.4,1405.8 1083.6,1409.2 1107.9,1412.0 1132.4,1414.3 1157.1,1416.1 1181.9,1417.2 1206.8,1417.8 1231.7,1417.7 1256.7,1416.9 1281.6,1415.6 1306.6,1413.5 1331.5,1410.8 1356.3,1407.3 1381.0,1403.2 1405.6,1398.4 1430.1,1392.8 1454.4,1386.6 1478.5,1379.7 1502.3,1372.1 1526.0,1363.8 1549.4,1354.8 1572.5,1345.1 1595.4,1334.9 1618.0,1324.0 1640.2,1312.5 1662.1,1300.4 1683.6,1287.7 1704.8,1274.6 1725.6,1260.9 1746.0,1246.8 1765.9,1232.2 1785.5,1217.2 1804.6,1201.9 1823.3,1186.2 1841.5,1170.3 1859.3,1154.1 1876.6,1137.8  Z" style="stroke-width: 0.5;  stroke: rgb(0,0,0); fill: rgb(179,177,178);" />
<path d="M 1959.033,1749.590 A 522.500,522.500 0.00 0,1 1927.7,1800.1 L 1927.7,1800.1 1909.7,1787.9 1891.4,1776.0 1872.7,1764.6 1853.7,1753.8 1834.5,1743.6 1815.1,1734.1 1795.5,1725.4 1775.8,1717.5 1756.0,1710.5 1736.2,1704.4 1716.4,1699.3 1696.7,1695.3 1677.0,1692.3 1657.4,1690.3 1638.0,1689.5 1618.8,1689.8 1599.7,1691.2 1580.9,1693.8 1562.4,1697.5 1544.2,1702.3 1526.2,1708.3 1508.7,1715.5 1491.4,1723.7 1474.6,1733.0 1458.2,1743.4 1442.2,1754.8 1426.6,1767.3 1411.5,1780.6 1396.8,1794.9 1382.7,1810.0 1369.0,1825.9 1355.9,1842.6 1343.2,1859.9 1331.1,1877.8 1319.5,1896.2 1308.4,1915.0 1297.9,1934.2 1287.9,1953.6 1278.4,1973.2  A 522.500,522.500 0.00 0,1 1226.4,1945.1 L 1226.4,1945.1 1238.3,1926.3 1250.7,1907.6 1263.7,1889.2 1277.2,1871.1 1291.3,1853.4 1305.9,1836.2 1321.0,1819.5 1336.6,1803.5 1352.7,1788.1 1369.3,1773.4 1386.3,1759.5 1403.8,1746.5 1421.7,1734.2 1440.1,1722.9 1458.8,1712.5 1477.9,1703.0 1497.4,1694.6 1517.2,1687.1 1537.3,1680.6 1557.7,1675.2 1578.3,1670.8 1599.2,1667.4 1620.3,1665.0 1641.6,1663.7 1663.1,1663.4 1684.6,1664.1 1706.2,1665.7 1727.9,1668.4 1749.6,1671.9 1771.3,1676.4 1792.9,1681.7 1814.4,1687.8 1835.8,1694.8 1857.0,1702.4 1878.0,1710.7 1898.8,1719.7 1919.2,1729.2 1939.3,1739.2 1959.0,1749.6  Z" style="stroke-width: 0.5;  stroke: rgb(0,0,0); fill: rgb(179,177,178);" />
<path d="M 1677.106,1008.431 A 522.500,522.500 0.00 0,1 1731.2,1031.4 L 1731.2,1031.4 1721.2,1051.0 1710.8,1070.4 1699.7,1089.5 1688.2,1108.3 1676.0,1126.8 1663.4,1144.7 1650.2,1162.0 1636.5,1178.7 1622.3,1194.8 1607.5,1210.0 1592.3,1224.5 1576.6,1238.0 1560.4,1250.7 1543.8,1262.4 1526.7,1273.2 1509.3,1282.9 1491.4,1291.5 1473.2,1299.1 1454.6,1305.6 1435.7,1311.1 1416.4,1315.4 1396.9,1318.6 1377.2,1320.7 1357.2,1321.7 1337.1,1321.6 1316.8,1320.5 1296.4,1318.3 1275.8,1315.1 1255.3,1310.9 1234.7,1305.8 1214.1,1299.7 1193.7,1292.8 1173.3,1285.0 1153.1,1276.5 1133.0,1267.3 1113.3,1257.5 1093.8,1247.1 1074.6,1236.2 1055.8,1224.8  A 522.500,522.500 0.00 0,1 1089.9,1176.2 L 1089.9,1176.2 1106.9,1189.3 1124.2,1202.0 1141.9,1214.2 1159.8,1225.8 1178.0,1236.8 1196.3,1247.1 1214.7,1256.6 1233.3,1265.2 1251.8,1273.0 1270.4,1279.7 1288.9,1285.4 1307.3,1290.1 1325.6,1293.6 1343.8,1296.1 1361.8,1297.3 1379.5,1297.4 1397.0,1296.3 1414.2,1294.0 1431.2,1290.4 1447.7,1285.7 1464.0,1279.8 1479.8,1272.6 1495.3,1264.3 1510.3,1254.9 1524.9,1244.3 1539.0,1232.7 1552.7,1220.0 1565.9,1206.3 1578.6,1191.6 1590.8,1176.1 1602.5,1159.8 1613.6,1142.6 1624.3,1124.8 1634.4,1106.4 1644.0,1087.5 1653.1,1068.1 1661.6,1048.4 1669.6,1028.5 1677.1,1008.4  Z" style="stroke-width: 0.5;  stroke: rgb(0,0,0); fill: rgb(179,177,178);" />
<path d="M 1891.902,1845.571 A 522.500,522.500 0.00 0,1 1855.0,1883.4 L 1855.0,1883.4 1840.5,1868.1 1825.6,1853.1 1810.4,1838.5 1794.9,1824.5 1779.2,1811.1 1763.3,1798.4 1747.2,1786.6 1731.0,1775.6 1714.8,1765.5 1698.5,1756.5 1682.2,1748.5 1665.9,1741.6 1649.7,1735.9 1633.6,1731.4 1617.6,1728.1 1601.8,1726.1 1586.2,1725.3 1570.7,1725.8 1555.6,1727.7 1540.6,1730.8 1526.0,1735.2 1511.6,1740.9 1497.6,1747.9 1483.9,1756.1 1470.6,1765.6 1457.7,1776.2 1445.1,1787.9 1433.0,1800.7 1421.3,1814.6 1410.0,1829.4 1399.2,1845.2 1388.8,1861.8 1378.8,1879.1 1369.3,1897.1 1360.3,1915.7 1351.8,1934.7 1343.7,1954.2 1336.1,1973.9 1329.0,1993.7  A 522.500,522.500 0.00 0,1 1279.0,1973.5 L 1279.0,1973.5 1288.3,1954.1 1298.2,1934.9 1308.5,1916.0 1319.4,1897.4 1330.7,1879.3 1342.6,1861.8 1354.9,1844.9 1367.7,1828.7 1380.9,1813.3 1394.7,1798.8 1408.8,1785.2 1423.4,1772.5 1438.3,1760.8 1453.7,1750.3 1469.4,1740.8 1485.5,1732.4 1502.0,1725.2 1518.7,1719.2 1535.7,1714.4 1553.0,1710.8 1570.5,1708.4 1588.3,1707.2 1606.2,1707.2 1624.3,1708.5 1642.5,1710.9 1660.8,1714.4 1679.2,1719.1 1697.6,1724.9 1716.0,1731.7 1734.4,1739.6 1752.7,1748.4 1770.9,1758.1 1789.0,1768.6 1806.9,1780.0 1824.5,1792.0 1841.9,1804.7 1858.9,1817.9 1875.6,1831.5 1891.9,1845.6  Z" style="stroke-width: 0.5;  stroke: rgb(0,0,0); fill: rgb(179,177,178);" />
<path d="M 1770.328,1947.134 A 522.500,522.500 0.00 0,1 1723.9,1972.1 L 1723.9,1972.1 1715.1,1953.8 1706.0,1935.7 1696.7,1917.9 1687.3,1900.6 1677.8,1884.0 1668.1,1868.0 1658.4,1852.8 1648.7,1838.6 1639.0,1825.4 1629.3,1813.2 1619.7,1802.2 1610.1,1792.3 1600.6,1783.8 1591.3,1776.6 1582.1,1770.7 1573.1,1766.3 1564.3,1763.2 1555.6,1761.7 1547.2,1761.5 1539.0,1762.9 1531.1,1765.7 1523.4,1770.0 1516.0,1775.7 1508.9,1782.8 1502.1,1791.3 1495.6,1801.1 1489.3,1812.2 1483.4,1824.6 1477.8,1838.1 1472.5,1852.7 1467.6,1868.4 1462.9,1885.0 1458.6,1902.5 1454.6,1920.7 1450.9,1939.5 1447.5,1958.9 1444.4,1978.7 1441.6,1998.7 1439.1,2018.9  A 522.500,522.500 0.00 0,1 1433.0,2018.2 L 1433.0,2018.2 1435.8,1997.9 1438.9,1977.7 1442.4,1957.8 1446.2,1938.3 1450.4,1919.3 1455.0,1901.0 1460.0,1883.3 1465.3,1866.4 1471.0,1850.5 1477.2,1835.6 1483.6,1821.7 1490.5,1809.0 1497.8,1797.4 1505.4,1787.2 1513.4,1778.2 1521.8,1770.5 1530.5,1764.3 1539.5,1759.4 1548.9,1755.9 1558.5,1753.9 1568.5,1753.3 1578.7,1754.1 1589.2,1756.3 1599.9,1759.9 1610.9,1764.9 1622.0,1771.3 1633.3,1778.9 1644.7,1787.8 1656.3,1797.8 1667.9,1809.0 1679.6,1821.3 1691.2,1834.6 1702.9,1848.7 1714.5,1863.7 1726.0,1879.4 1737.4,1895.7 1748.6,1912.5 1759.6,1929.7 1770.3,1947.1  Z" style="stroke-width: 0.5;  stroke: rgb(0,0,0); fill: rgb(179,177,178);" />
<path d="M 1986.159,1691.456 A 522.500,522.500 0.00 0,1 1966.6,1735.2 L 1966.6,1735.2 1945.8,1725.0 1924.7,1715.3 1903.2,1705.9 1881.3,1697.0 1859.2,1688.7 1836.7,1680.9 1814.0,1673.8 1791.1,1667.3 1768.0,1661.5 1744.7,1656.4 1721.3,1652.1 1697.8,1648.6 1674.3,1645.9 1650.7,1644.0 1627.0,1643.0 1603.4,1642.8 1579.8,1643.5 1556.3,1645.1 1532.8,1647.5 1509.5,1650.8 1486.3,1655.0 1463.3,1660.1 1440.5,1666.0 1417.8,1672.7 1395.4,1680.3 1373.2,1688.7 1351.4,1697.8 1329.8,1707.7 1308.5,1718.4 1287.6,1729.7 1267.0,1741.7 1246.8,1754.3 1227.0,1767.5 1207.6,1781.2 1188.6,1795.4 1170.1,1810.0 1152.0,1825.0 1134.4,1840.3 1117.4,1855.8  A 522.500,522.500 0.00 0,1 1086.2,1819.0 L 1086.2,1819.0 1105.0,1804.8 1124.3,1790.8 1144.1,1777.1 1164.2,1763.8 1184.8,1750.8 1205.8,1738.3 1227.1,1726.2 1248.8,1714.7 1270.9,1703.7 1293.3,1693.2 1315.9,1683.4 1338.9,1674.2 1362.1,1665.7 1385.6,1657.9 1409.3,1650.7 1433.1,1644.3 1457.2,1638.5 1481.5,1633.6 1505.8,1629.3 1530.3,1625.9 1554.9,1623.2 1579.6,1621.2 1604.3,1620.0 1629.1,1619.5 1653.8,1619.8 1678.5,1620.8 1703.2,1622.6 1727.8,1625.0 1752.3,1628.2 1776.7,1632.0 1800.9,1636.4 1825.0,1641.5 1848.8,1647.1 1872.5,1653.3 1895.8,1660.0 1918.9,1667.3 1941.7,1674.9 1964.1,1683.0 1986.2,1691.5  Z" style="stroke-width: 0.5;  stroke: rgb(0,0,0); fill: rgb(179,177,178);" />
<path d="M 1818.605,1914.122 A 522.500,522.500 0.00 0,1 1785.3,1937.7 L 1785.3,1937.7 1773.9,1920.6 1762.3,1903.7 1750.4,1887.3 1738.3,1871.3 1726.1,1855.9 1713.7,1841.3 1701.3,1827.5 1688.8,1814.6 1676.3,1802.7 1663.9,1791.8 1651.5,1782.0 1639.2,1773.5 1627.1,1766.1 1615.0,1760.1 1603.2,1755.4 1591.6,1752.0 1580.2,1750.0 1569.0,1749.4 1558.1,1750.3 1547.5,1752.5 1537.2,1756.1 1527.3,1761.1 1517.6,1767.6 1508.3,1775.3 1499.4,1784.4 1490.8,1794.8 1482.7,1806.4 1474.9,1819.2 1467.5,1833.1 1460.4,1848.0 1453.8,1864.0 1447.6,1880.8 1441.8,1898.5 1436.4,1916.8 1431.3,1935.8 1426.7,1955.3 1422.4,1975.2 1418.6,1995.3 1415.0,2015.5  A 522.500,522.500 0.00 0,1 1375.1,2007.4 L 1375.1,2007.4 1380.3,1987.2 1385.9,1967.2 1391.9,1947.5 1398.3,1928.2 1405.2,1909.3 1412.5,1891.0 1420.2,1873.5 1428.4,1856.7 1437.0,1840.8 1446.0,1825.8 1455.4,1811.9 1465.3,1799.0 1475.5,1787.3 1486.1,1776.8 1497.1,1767.5 1508.5,1759.5 1520.2,1752.8 1532.2,1747.4 1544.6,1743.4 1557.2,1740.8 1570.1,1739.5 1583.3,1739.5 1596.7,1740.9 1610.4,1743.7 1624.2,1747.8 1638.1,1753.1 1652.2,1759.7 1666.4,1767.5 1680.6,1776.5 1694.9,1786.6 1709.2,1797.7 1723.4,1809.7 1737.5,1822.7 1751.6,1836.5 1765.5,1851.0 1779.2,1866.1 1792.6,1881.7 1805.8,1897.8 1818.6,1914.1  Z" style="stroke-width: 0.5;  stroke: rgb(0,0,0); fill: rgb(179,177,178);" />
<path d="M 1996.112,1336.052 A 522.500,522.500 0.00 0,1 2005.5,1367.9 L 2005.5,1367.9 1979.9,1374.5 1954.3,1381.1 1928.6,1387.7 1902.8,1394.2 1877.0,1400.6 1851.1,1407.0 1825.1,1413.3 1799.1,1419.6 1773.1,1425.8 1747.0,1431.9 1720.8,1437.9 1694.6,1443.9 1668.4,1449.7 1642.1,1455.5 1615.9,1461.2 1589.5,1466.9 1563.2,1472.4 1536.8,1477.9 1510.4,1483.2 1484.0,1488.5 1457.5,1493.7 1431.1,1498.8 1404.6,1503.8 1378.1,1508.7 1351.7,1513.6 1325.2,1518.3 1298.7,1523.0 1272.3,1527.5 1245.8,1532.0 1219.4,1536.4 1192.9,1540.7 1166.5,1545.0 1140.2,1549.1 1113.8,1553.2 1087.5,1557.1 1061.2,1561.1 1034.9,1564.9 1008.7,1568.6 982.5,1572.3  A 522.500,522.500 0.00 0,1 979.0,1539.2 L 979.0,1539.2 1004.9,1537.2 1031.0,1535.0 1057.1,1532.7 1083.3,1530.3 1109.6,1527.6 1135.9,1524.9 1162.3,1522.0 1188.8,1518.9 1215.3,1515.6 1241.8,1512.1 1268.3,1508.5 1294.9,1504.7 1321.5,1500.7 1348.1,1496.6 1374.6,1492.2 1401.2,1487.6 1427.8,1482.9 1454.3,1478.0 1480.8,1472.9 1507.3,1467.6 1533.7,1462.1 1560.1,1456.5 1586.5,1450.7 1612.7,1444.6 1639.0,1438.5 1665.1,1432.1 1691.2,1425.6 1717.2,1418.9 1743.1,1412.0 1768.9,1405.0 1794.6,1397.9 1820.2,1390.6 1845.7,1383.2 1871.1,1375.6 1896.3,1367.9 1921.5,1360.1 1946.5,1352.2 1971.4,1344.2 1996.1,1336.1  Z" style="stroke-width: 0.5;  stroke: rgb(0,0,0); fill: rgb(179,177,178);" />
<path d="M 1973.003,1278.021 A 522.500,522.500 0.00 0,1 1985.5,1306.9 L 1985.5,1306.9 1961.6,1316.3 1937.6,1325.5 1913.3,1334.6 1888.9,1343.6 1864.2,1352.3 1839.4,1360.9 1814.5,1369.3 1789.3,1377.5 1764.0,1385.5 1738.6,1393.3 1713.0,1400.8 1687.3,1408.1 1661.4,1415.1 1635.5,1421.9 1609.4,1428.4 1583.3,1434.7 1557.0,1440.6 1530.7,1446.3 1504.3,1451.8 1477.9,1456.9 1451.4,1461.8 1424.9,1466.4 1398.3,1470.7 1371.7,1474.7 1345.1,1478.4 1318.5,1481.9 1291.9,1485.1 1265.4,1488.0 1238.8,1490.6 1212.3,1493.0 1185.9,1495.1 1159.5,1496.9 1133.2,1498.5 1107.0,1499.8 1080.8,1500.9 1054.8,1501.8 1028.9,1502.5 1003.1,1502.9 977.5,1503.2  A 522.500,522.500 0.00 0,1 978.3,1471.9 L 978.3,1471.9 1003.5,1473.1 1028.9,1474.1 1054.5,1474.8 1080.2,1475.3 1106.1,1475.4 1132.1,1475.3 1158.2,1474.8 1184.4,1474.0 1210.7,1472.9 1237.1,1471.4 1263.5,1469.6 1289.9,1467.4 1316.4,1464.9 1342.9,1462.0 1369.4,1458.8 1395.9,1455.1 1422.3,1451.1 1448.7,1446.7 1475.1,1442.0 1501.3,1436.9 1527.5,1431.4 1553.7,1425.5 1579.7,1419.3 1605.6,1412.7 1631.3,1405.8 1657.0,1398.5 1682.5,1390.9 1707.8,1383.0 1733.0,1374.8 1757.9,1366.2 1782.7,1357.4 1807.3,1348.3 1831.7,1338.9 1855.9,1329.3 1879.8,1319.4 1903.5,1309.4 1926.9,1299.1 1950.1,1288.6 1973.0,1278.0  Z" style="stroke-width: 0.5;  stroke: rgb(0,0,0); fill: rgb(179,177,178);" />
<path d="M 1731.112,1031.392 A 522.500,522.500 0.00 0,1 1751.6,1042.0 L 1751.6,1042.0 1740.7,1061.3 1729.2,1080.4 1717.2,1099.3 1704.7,1117.9 1691.6,1136.0 1678.0,1153.7 1663.8,1170.8 1649.2,1187.3 1634.0,1203.2 1618.3,1218.3 1602.2,1232.6 1585.5,1246.1 1568.4,1258.7 1550.9,1270.5 1532.9,1281.2 1514.6,1291.0 1495.8,1299.8 1476.7,1307.6 1457.3,1314.3 1437.5,1320.0 1417.5,1324.6 1397.1,1328.2 1376.6,1330.7 1355.8,1332.2 1334.9,1332.6 1313.8,1332.0 1292.6,1330.4 1271.4,1327.8 1250.1,1324.3 1228.7,1319.8 1207.5,1314.4 1186.3,1308.2 1165.2,1301.3 1144.2,1293.5 1123.5,1285.1 1103.0,1276.1 1082.8,1266.4 1063.0,1256.3 1043.5,1245.8  A 522.500,522.500 0.00 0,1 1055.1,1226.0 L 1055.1,1226.0 1073.9,1237.3 1093.1,1248.2 1112.6,1258.5 1132.4,1268.3 1152.5,1277.5 1172.8,1285.9 1193.2,1293.6 1213.7,1300.5 1234.3,1306.5 1254.9,1311.6 1275.5,1315.8 1296.0,1318.9 1316.4,1321.1 1336.8,1322.2 1356.9,1322.2 1376.9,1321.1 1396.7,1319.0 1416.2,1315.7 1435.4,1311.4 1454.4,1305.9 1473.0,1299.4 1491.2,1291.8 1509.1,1283.1 1526.6,1273.3 1543.7,1262.6 1560.3,1250.8 1576.5,1238.2 1592.2,1224.6 1607.4,1210.1 1622.2,1194.8 1636.4,1178.8 1650.1,1162.1 1663.3,1144.7 1676.0,1126.8 1688.1,1108.3 1699.7,1089.5 1710.7,1070.3 1721.2,1050.9 1731.1,1031.4  Z" style="stroke-width: 0.5;  stroke: rgb(0,0,0); fill: rgb(179,177,178);" />
<path d="M 1500.000,977.500 A 522.500,522.500 0.00 0,1 1505.9,977.5 L 1505.9,977.5 1505.5,998.0 1504.8,1018.3 1503.7,1038.5 1502.2,1058.2 1500.3,1077.6 1498.0,1096.3 1495.2,1114.3 1491.9,1131.6 1488.2,1148.0 1484.0,1163.5 1479.4,1177.9 1474.2,1191.2 1468.5,1203.4 1462.3,1214.4 1455.6,1224.1 1448.4,1232.5 1440.7,1239.5 1432.6,1245.2 1424.0,1249.6 1414.9,1252.5 1405.3,1254.1 1395.4,1254.2 1385.0,1253.0 1374.3,1250.4 1363.2,1246.4 1351.7,1241.2 1340.0,1234.7 1328.0,1226.9 1315.7,1218.0 1303.3,1207.9 1290.6,1196.8 1277.9,1184.7 1265.1,1171.7 1252.2,1157.9 1239.4,1143.3 1226.6,1128.2 1213.9,1112.5 1201.3,1096.4 1189.1,1080.1  A 522.500,522.500 0.00 0,1 1207.6,1067.0 L 1207.6,1067.0 1219.1,1083.8 1230.8,1100.4 1242.7,1116.5 1254.7,1132.2 1266.8,1147.3 1278.8,1161.6 1290.8,1175.1 1302.8,1187.8 1314.6,1199.4 1326.2,1210.0 1337.7,1219.4 1348.9,1227.7 1359.8,1234.7 1370.5,1240.4 1380.8,1244.8 1390.8,1247.9 1400.4,1249.5 1409.6,1249.8 1418.5,1248.6 1426.9,1246.0 1434.8,1242.1 1442.3,1236.7 1449.4,1229.9 1455.9,1221.8 1462.0,1212.4 1467.7,1201.7 1472.8,1189.7 1477.5,1176.6 1481.7,1162.4 1485.4,1147.1 1488.7,1130.8 1491.5,1113.7 1493.9,1095.8 1495.8,1077.2 1497.4,1057.9 1498.6,1038.2 1499.4,1018.2 1499.9,997.9 1500.0,977.5  Z" style="stroke-width: 0.5;  stroke: rgb(0,0,0); fill: rgb(179,177,178);" />
<path d="M 1985.722,1307.438 A 522.500,522.500 0.00 0,1 1993.3,1327.8 L 1993.3,1327.8 1968.8,1336.3 1944.2,1344.6 1919.4,1352.9 1894.4,1361.0 1869.3,1369.0 1844.1,1376.8 1818.7,1384.5 1793.3,1392.1 1767.7,1399.4 1741.9,1406.6 1716.1,1413.7 1690.2,1420.5 1664.2,1427.1 1638.0,1433.6 1611.9,1439.8 1585.6,1445.9 1559.3,1451.7 1532.9,1457.3 1506.4,1462.7 1479.9,1467.9 1453.4,1472.9 1426.9,1477.7 1400.3,1482.3 1373.7,1486.6 1347.1,1490.7 1320.5,1494.6 1293.9,1498.3 1267.3,1501.8 1240.7,1505.1 1214.2,1508.2 1187.7,1511.0 1161.3,1513.7 1134.9,1516.2 1108.6,1518.4 1082.3,1520.5 1056.1,1522.4 1030.1,1524.2 1004.1,1525.8 978.2,1527.2  A 522.500,522.500 0.00 0,1 977.5,1505.2 L 977.5,1505.2 1003.2,1504.9 1029.0,1504.3 1054.9,1503.6 1080.9,1502.6 1107.0,1501.4 1133.3,1500.0 1159.6,1498.3 1186.0,1496.4 1212.4,1494.2 1238.9,1491.7 1265.4,1489.0 1292.0,1486.1 1318.6,1482.8 1345.2,1479.3 1371.8,1475.5 1398.4,1471.5 1424.9,1467.1 1451.5,1462.5 1477.9,1457.6 1504.4,1452.4 1530.8,1446.9 1557.1,1441.2 1583.3,1435.2 1609.5,1428.9 1635.5,1422.4 1661.5,1415.6 1687.3,1408.5 1713.0,1401.2 1738.6,1393.7 1764.1,1386.0 1789.4,1378.0 1814.5,1369.8 1839.5,1361.4 1864.4,1352.8 1889.0,1344.1 1913.5,1335.1 1937.8,1326.0 1961.8,1316.8 1985.7,1307.4  Z" style="stroke-width: 0.5;  stroke: rgb(0,0,0); fill: rgb(179,177,178);" />
<path d="M 1860.625,1121.905 A 522.500,522.500 0.00 0,1 1875.0,1136.2 L 1875.0,1136.2 1857.8,1152.6 1840.1,1168.8 1821.9,1184.8 1803.3,1200.5 1784.3,1215.9 1764.8,1230.9 1744.9,1245.6 1724.6,1259.8 1703.8,1273.5 1682.7,1286.8 1661.3,1299.5 1639.4,1311.6 1617.2,1323.2 1594.8,1334.1 1571.9,1344.5 1548.9,1354.2 1525.5,1363.2 1501.9,1371.5 1478.0,1379.2 1454.0,1386.2 1429.7,1392.5 1405.3,1398.0 1380.7,1402.9 1356.0,1407.1 1331.2,1410.5 1306.4,1413.3 1281.4,1415.4 1256.5,1416.8 1231.6,1417.6 1206.6,1417.7 1181.8,1417.1 1157.0,1416.0 1132.4,1414.3 1107.8,1412.0 1083.5,1409.2 1059.4,1405.8 1035.5,1402.0 1011.9,1397.8 988.5,1393.1  A 522.500,522.500 0.00 0,1 993.2,1372.8 L 993.2,1372.8 1016.1,1378.3 1039.3,1383.4 1062.8,1388.1 1086.6,1392.2 1110.5,1395.8 1134.7,1398.9 1159.0,1401.3 1183.4,1403.1 1207.9,1404.3 1232.5,1404.8 1257.1,1404.7 1281.7,1403.8 1306.3,1402.2 1330.8,1399.9 1355.2,1396.8 1379.5,1393.0 1403.7,1388.4 1427.8,1383.0 1451.6,1377.0 1475.2,1370.1 1498.6,1362.5 1521.8,1354.2 1544.7,1345.2 1567.3,1335.4 1589.6,1325.0 1611.6,1313.9 1633.2,1302.1 1654.5,1289.7 1675.4,1276.7 1695.9,1263.2 1716.0,1249.1 1735.6,1234.5 1754.9,1219.5 1773.7,1204.0 1792.0,1188.1 1809.9,1171.9 1827.3,1155.5 1844.2,1138.8 1860.6,1121.9  Z" style="stroke-width: 0.5;  stroke: rgb(0,0,0); fill: rgb(179,177,178);" />
<path d="M 1833.841,1901.941 A 522.500,522.500 0.00 0,1 1818.6,1914.1 L 1818.6,1914.1 1805.8,1897.7 1792.6,1881.7 1779.2,1866.1 1765.5,1850.9 1751.6,1836.4 1737.5,1822.7 1723.4,1809.7 1709.1,1797.6 1694.8,1786.5 1680.5,1776.4 1666.3,1767.5 1652.1,1759.7 1638.0,1753.1 1624.0,1747.7 1610.2,1743.6 1596.5,1740.9 1583.1,1739.4 1569.8,1739.4 1556.9,1740.6 1544.2,1743.3 1531.8,1747.3 1519.7,1752.7 1507.9,1759.4 1496.5,1767.3 1485.5,1776.6 1474.8,1787.1 1464.5,1798.8 1454.7,1811.7 1445.2,1825.6 1436.1,1840.5 1427.5,1856.4 1419.2,1873.2 1411.4,1890.8 1404.1,1909.0 1397.2,1927.8 1390.7,1947.2 1384.6,1966.9 1378.9,1986.9 1373.7,2007.0  A 522.500,522.500 0.00 0,1 1354.6,2001.9 L 1354.6,2001.9 1360.6,1981.8 1367.1,1962.0 1374.0,1942.3 1381.4,1923.1 1389.2,1904.4 1397.5,1886.2 1406.2,1868.7 1415.3,1852.0 1424.9,1836.2 1434.9,1821.3 1445.4,1807.4 1456.2,1794.6 1467.4,1782.8 1479.1,1772.3 1491.1,1762.9 1503.5,1754.9 1516.2,1748.0 1529.2,1742.5 1542.6,1738.4 1556.2,1735.5 1570.1,1734.0 1584.3,1733.8 1598.7,1735.0 1613.2,1737.5 1628.0,1741.2 1642.9,1746.3 1657.9,1752.5 1672.9,1759.9 1688.1,1768.5 1703.2,1778.2 1718.3,1788.9 1733.4,1800.5 1748.3,1813.1 1763.2,1826.4 1777.8,1840.5 1792.3,1855.1 1806.4,1870.4 1820.3,1886.0 1833.8,1901.9  Z" style="stroke-width: 0.5;  stroke: rgb(0,0,0); fill: rgb(179,177,178);" />
<path d="M 1753.390,1043.054 A 522.500,522.500 0.00 0,1 1767.6,1051.3 L 1767.6,1051.3 1756.0,1070.3 1743.8,1089.1 1731.0,1107.8 1717.7,1126.1 1703.9,1144.0 1689.5,1161.4 1674.6,1178.3 1659.2,1194.6 1643.3,1210.2 1626.9,1225.2 1610.0,1239.3 1592.7,1252.7 1574.9,1265.2 1556.7,1276.9 1538.1,1287.6 1519.0,1297.4 1499.6,1306.3 1479.9,1314.1 1459.8,1320.9 1439.5,1326.8 1418.8,1331.6 1397.9,1335.3 1376.8,1338.1 1355.4,1339.8 1333.9,1340.6 1312.3,1340.3 1290.6,1339.1 1268.8,1336.9 1247.0,1333.8 1225.2,1329.8 1203.4,1324.9 1181.7,1319.2 1160.1,1312.7 1138.7,1305.5 1117.5,1297.7 1096.5,1289.2 1075.9,1280.1 1055.5,1270.5 1035.6,1260.5  A 522.500,522.500 0.00 0,1 1043.3,1246.1 L 1043.3,1246.1 1062.8,1256.6 1082.7,1266.7 1102.9,1276.4 1123.4,1285.4 1144.2,1293.8 1165.1,1301.5 1186.2,1308.5 1207.5,1314.7 1228.8,1320.1 1250.1,1324.5 1271.4,1328.1 1292.7,1330.7 1314.0,1332.3 1335.1,1332.9 1356.0,1332.5 1376.9,1331.1 1397.4,1328.6 1417.8,1325.0 1437.9,1320.4 1457.7,1314.7 1477.2,1308.0 1496.4,1300.3 1515.2,1291.5 1533.6,1281.7 1551.7,1271.0 1569.3,1259.3 1586.4,1246.7 1603.1,1233.2 1619.4,1218.9 1635.1,1203.9 1650.4,1188.1 1665.1,1171.6 1679.3,1154.5 1693.0,1136.9 1706.2,1118.7 1718.8,1100.2 1730.9,1081.4 1742.4,1062.3 1753.4,1043.1  Z" style="stroke-width: 0.5;  stroke: rgb(0,0,0); fill: rgb(179,177,178);" />
<path d="M 2022.495,1502.322 A 522.500,522.500 0.00 0,1 2022.2,1517.7 L 2022.2,1517.7 1996.1,1516.9 1970.0,1516.2 1943.7,1515.6 1917.4,1515.2 1890.9,1514.9 1864.4,1514.7 1837.9,1514.7 1811.2,1514.9 1784.5,1515.2 1757.8,1515.6 1731.0,1516.3 1704.2,1517.1 1677.3,1518.0 1650.4,1519.2 1623.5,1520.5 1596.6,1522.0 1569.7,1523.7 1542.7,1525.5 1515.8,1527.5 1488.9,1529.8 1462.0,1532.1 1435.1,1534.7 1408.3,1537.4 1381.5,1540.3 1354.7,1543.4 1328.0,1546.7 1301.4,1550.1 1274.8,1553.7 1248.2,1557.4 1221.8,1561.3 1195.4,1565.4 1169.1,1569.6 1142.8,1573.9 1116.7,1578.4 1090.7,1583.0 1064.8,1587.7 1038.9,1592.5 1013.2,1597.5 987.7,1602.6  A 522.500,522.500 0.00 0,1 984.9,1587.5 L 984.9,1587.5 1010.8,1583.2 1036.8,1578.9 1062.8,1574.7 1089.0,1570.6 1115.2,1566.6 1141.5,1562.7 1167.9,1558.9 1194.3,1555.2 1220.8,1551.6 1247.4,1548.1 1274.0,1544.8 1300.7,1541.5 1327.4,1538.4 1354.1,1535.4 1380.9,1532.6 1407.7,1529.8 1434.6,1527.2 1461.4,1524.8 1488.3,1522.4 1515.2,1520.2 1542.1,1518.1 1569.0,1516.2 1595.9,1514.4 1622.8,1512.7 1649.7,1511.2 1676.6,1509.7 1703.4,1508.5 1730.3,1507.3 1757.1,1506.3 1783.8,1505.4 1810.6,1504.6 1837.3,1503.9 1863.9,1503.4 1890.5,1502.9 1917.0,1502.6 1943.5,1502.4 1969.9,1502.3 1996.2,1502.3 2022.5,1502.3  Z" style="stroke-width: 0.5;  stroke: rgb(0,0,0); fill: rgb(179,177,178);" />
<path d="M 1769.287,1052.238 A 522.500,522.500 0.00 0,1 1782.3,1060.3 L 1782.3,1060.3 1769.9,1079.1 1757.0,1097.7 1743.6,1116.1 1729.6,1134.1 1715.0,1151.7 1700.0,1168.9 1684.4,1185.6 1668.3,1201.7 1651.7,1217.1 1634.7,1231.9 1617.2,1246.0 1599.2,1259.2 1580.8,1271.7 1561.9,1283.2 1542.7,1293.9 1523.1,1303.7 1503.1,1312.6 1482.8,1320.5 1462.1,1327.5 1441.2,1333.4 1420.0,1338.4 1398.5,1342.4 1376.9,1345.4 1355.1,1347.5 1333.1,1348.5 1310.9,1348.6 1288.7,1347.7 1266.5,1346.0 1244.2,1343.3 1221.9,1339.7 1199.7,1335.3 1177.5,1330.2 1155.5,1324.2 1133.6,1317.6 1112.0,1310.2 1090.5,1302.3 1069.4,1293.8 1048.6,1284.8 1028.2,1275.4  A 522.500,522.500 0.00 0,1 1035.0,1261.6 L 1035.0,1261.6 1055.0,1271.6 1075.4,1281.1 1096.1,1290.1 1117.1,1298.6 1138.3,1306.4 1159.8,1313.6 1181.4,1320.0 1203.1,1325.7 1225.0,1330.5 1246.8,1334.5 1268.7,1337.6 1290.5,1339.8 1312.3,1341.0 1333.9,1341.2 1355.5,1340.5 1376.9,1338.7 1398.0,1335.9 1419.0,1332.1 1439.7,1327.3 1460.1,1321.5 1480.3,1314.7 1500.1,1306.8 1519.5,1298.0 1538.6,1288.2 1557.3,1277.5 1575.6,1265.9 1593.5,1253.4 1610.9,1240.0 1627.8,1225.9 1644.3,1210.9 1660.3,1195.3 1675.7,1179.0 1690.7,1162.2 1705.2,1144.8 1719.1,1126.9 1732.4,1108.6 1745.3,1090.1 1757.6,1071.2 1769.3,1052.2  Z" style="stroke-width: 0.5;  stroke: rgb(0,0,0); fill: rgb(179,177,178);" />
<path d="M 1966.526,1735.287 A 522.500,522.500 0.00 0,1 1960.4,1747.1 L 1960.4,1747.1 1940.6,1736.7 1920.5,1726.9 1900.0,1717.5 1879.1,1708.6 1858.1,1700.4 1836.8,1692.9 1815.4,1686.0 1793.8,1680.0 1772.1,1674.8 1750.4,1670.4 1728.6,1667.0 1706.9,1664.4 1685.2,1662.9 1663.6,1662.3 1642.1,1662.7 1620.8,1664.1 1599.7,1666.5 1578.7,1670.0 1558.0,1674.4 1537.6,1680.0 1517.5,1686.5 1497.6,1694.0 1478.1,1702.6 1459.0,1712.1 1440.2,1722.5 1421.9,1733.9 1403.9,1746.2 1386.4,1759.3 1369.4,1773.2 1352.8,1787.9 1336.7,1803.4 1321.1,1819.4 1306.0,1836.1 1291.4,1853.3 1277.3,1871.0 1263.7,1889.2 1250.8,1907.6 1238.3,1926.3 1226.4,1945.1  A 522.500,522.500 0.00 0,1 1215.3,1938.1 L 1215.3,1938.1 1227.7,1919.4 1240.7,1901.0 1254.2,1882.7 1268.3,1864.8 1282.9,1847.3 1298.0,1830.3 1313.7,1813.7 1329.8,1797.8 1346.4,1782.6 1363.5,1768.0 1381.1,1754.2 1399.1,1741.1 1417.5,1728.9 1436.3,1717.6 1455.6,1707.1 1475.2,1697.6 1495.1,1689.0 1515.4,1681.4 1536.0,1674.8 1556.9,1669.2 1578.0,1664.5 1599.3,1660.9 1620.9,1658.3 1642.6,1656.6 1664.5,1656.0 1686.5,1656.3 1708.6,1657.6 1730.7,1659.8 1752.8,1662.9 1774.9,1666.9 1797.0,1671.7 1818.9,1677.3 1840.7,1683.7 1862.4,1690.9 1883.8,1698.6 1905.0,1707.0 1925.9,1716.0 1946.4,1725.4 1966.5,1735.3  Z" style="stroke-width: 0.5;  stroke: rgb(0,0,0); fill: rgb(179,177,178);" />
<path d="M 2022.376,1488.629 A 522.500,522.500 0.00 0,1 2022.5,1501.5 L 2022.5,1501.5 1996.2,1501.5 1969.9,1501.5 1943.5,1501.7 1917.0,1501.9 1890.4,1502.3 1863.8,1502.8 1837.2,1503.3 1810.5,1504.0 1783.7,1504.8 1757.0,1505.7 1730.2,1506.7 1703.3,1507.9 1676.5,1509.2 1649.6,1510.6 1622.7,1512.1 1595.8,1513.7 1568.9,1515.5 1542.0,1517.4 1515.1,1519.5 1488.2,1521.6 1461.3,1523.9 1434.5,1526.4 1407.6,1528.9 1380.8,1531.6 1354.0,1534.4 1327.3,1537.3 1300.6,1540.3 1273.9,1543.5 1247.3,1546.8 1220.7,1550.2 1194.2,1553.6 1167.7,1557.3 1141.3,1561.0 1115.0,1564.8 1088.7,1568.7 1062.5,1572.7 1036.4,1576.7 1010.4,1580.9 984.5,1585.1  A 522.500,522.500 0.00 0,1 982.5,1572.3 L 982.5,1572.3 1008.7,1568.7 1034.9,1565.1 1061.2,1561.6 1087.6,1558.1 1114.0,1554.7 1140.5,1551.4 1167.0,1548.2 1193.5,1545.0 1220.1,1541.9 1246.8,1538.9 1273.4,1535.9 1300.1,1533.1 1326.9,1530.3 1353.6,1527.6 1380.4,1525.0 1407.2,1522.5 1434.0,1520.1 1460.9,1517.7 1487.7,1515.5 1514.6,1513.3 1541.5,1511.2 1568.3,1509.3 1595.2,1507.4 1622.0,1505.6 1648.9,1503.9 1675.7,1502.2 1702.6,1500.7 1729.4,1499.3 1756.2,1497.9 1783.0,1496.6 1809.7,1495.4 1836.4,1494.3 1863.1,1493.3 1889.8,1492.3 1916.4,1491.5 1943.0,1490.6 1969.5,1489.9 1996.0,1489.2 2022.4,1488.6  Z" style="stroke-width: 0.5;  stroke: rgb(0,0,0); fill: rgb(179,177,178);" />
<path d="M 1785.272,1937.751 A 522.500,522.500 0.00 0,1 1776.2,1943.5 L 1776.2,1943.5 1765.2,1926.2 1754.0,1909.2 1742.5,1892.5 1730.8,1876.3 1719.0,1860.8 1707.2,1845.9 1695.2,1831.9 1683.2,1818.8 1671.3,1806.6 1659.3,1795.5 1647.5,1785.6 1635.7,1776.8 1624.1,1769.3 1612.7,1763.1 1601.4,1758.2 1590.3,1754.7 1579.5,1752.6 1569.0,1751.9 1558.7,1752.6 1548.7,1754.7 1539.0,1758.2 1529.6,1763.2 1520.6,1769.5 1511.9,1777.2 1503.6,1786.2 1495.6,1796.5 1488.0,1808.1 1480.8,1820.9 1474.0,1834.8 1467.6,1849.7 1461.6,1865.7 1455.9,1882.5 1450.7,1900.2 1445.8,1918.6 1441.4,1937.6 1437.3,1957.1 1433.5,1977.0 1430.1,1997.1 1427.1,2017.4  A 522.500,522.500 0.00 0,1 1416.5,2015.8 L 1416.5,2015.8 1420.0,1995.5 1423.8,1975.4 1428.0,1955.5 1432.6,1936.0 1437.6,1917.0 1442.9,1898.7 1448.7,1881.0 1454.8,1864.1 1461.4,1848.2 1468.3,1833.2 1475.7,1819.3 1483.4,1806.5 1491.5,1794.9 1500.1,1784.5 1508.9,1775.4 1518.2,1767.7 1527.8,1761.3 1537.7,1756.2 1547.9,1752.6 1558.5,1750.3 1569.3,1749.5 1580.5,1750.1 1591.8,1752.1 1603.4,1755.4 1615.2,1760.2 1627.2,1766.2 1639.3,1773.5 1651.6,1782.1 1663.9,1791.8 1676.4,1802.7 1688.8,1814.6 1701.3,1827.5 1713.7,1841.4 1726.0,1856.0 1738.3,1871.3 1750.4,1887.3 1762.2,1903.8 1773.9,1920.6 1785.3,1937.8  Z" style="stroke-width: 0.5;  stroke: rgb(0,0,0); fill: rgb(179,177,178);" />
<path d="M 1853.638,1884.638 A 522.500,522.500 0.00 0,1 1846.0,1891.5 L 1846.0,1891.5 1832.0,1875.9 1817.5,1860.6 1802.7,1845.8 1787.7,1831.5 1772.4,1817.8 1757.0,1804.8 1741.4,1792.6 1725.6,1781.4 1709.9,1771.0 1694.1,1761.7 1678.2,1753.5 1662.5,1746.3 1646.8,1740.4 1631.2,1735.6 1615.7,1732.2 1600.4,1729.9 1585.3,1729.0 1570.4,1729.4 1555.7,1731.1 1541.3,1734.1 1527.2,1738.4 1513.4,1744.0 1499.9,1750.9 1486.7,1759.0 1473.9,1768.4 1461.5,1779.0 1449.5,1790.7 1437.9,1803.6 1426.7,1817.4 1415.9,1832.3 1405.6,1848.1 1395.7,1864.7 1386.3,1882.1 1377.3,1900.2 1368.8,1918.8 1360.7,1937.9 1353.1,1957.5 1345.9,1977.2 1339.3,1997.2  A 522.500,522.500 0.00 0,1 1329.6,1993.9 L 1329.6,1993.9 1336.7,1974.1 1344.2,1954.4 1352.3,1934.9 1360.8,1915.9 1369.8,1897.3 1379.2,1879.3 1389.1,1862.0 1399.5,1845.4 1410.3,1829.7 1421.5,1814.8 1433.2,1801.0 1445.3,1788.2 1457.8,1776.4 1470.7,1765.8 1484.0,1756.4 1497.6,1748.2 1511.6,1741.3 1525.8,1735.6 1540.4,1731.2 1555.3,1728.1 1570.5,1726.3 1585.8,1725.8 1601.4,1726.6 1617.2,1728.7 1633.1,1732.0 1649.2,1736.5 1665.3,1742.3 1681.5,1749.2 1697.8,1757.2 1714.0,1766.3 1730.2,1776.4 1746.3,1787.5 1762.3,1799.4 1778.2,1812.1 1793.8,1825.6 1809.2,1839.6 1824.4,1854.2 1839.2,1869.3 1853.6,1884.6  Z" style="stroke-width: 0.5;  stroke: rgb(0,0,0); fill: rgb(179,177,178);" />
<path d="M 1854.921,1116.546 A 522.500,522.500 0.00 0,1 1860.6,1121.9 L 1860.6,1121.9 1844.2,1138.8 1827.3,1155.5 1809.9,1171.9 1792.0,1188.1 1773.7,1203.9 1754.9,1219.4 1735.7,1234.4 1716.0,1249.0 1695.9,1263.1 1675.4,1276.6 1654.5,1289.6 1633.3,1302.0 1611.6,1313.7 1589.7,1324.8 1567.4,1335.2 1544.8,1344.9 1521.9,1353.9 1498.7,1362.2 1475.3,1369.8 1451.7,1376.6 1427.8,1382.6 1403.8,1387.9 1379.6,1392.4 1355.3,1396.2 1330.9,1399.3 1306.4,1401.5 1281.9,1403.1 1257.3,1403.9 1232.7,1404.0 1208.1,1403.5 1183.6,1402.2 1159.2,1400.3 1134.9,1397.8 1110.8,1394.7 1086.8,1391.1 1063.1,1386.9 1039.6,1382.2 1016.4,1377.0 993.6,1371.4  A 522.500,522.500 0.00 0,1 995.6,1363.8 L 995.6,1363.8 1018.3,1369.7 1041.3,1375.2 1064.6,1380.2 1088.2,1384.7 1112.0,1388.7 1136.0,1392.1 1160.1,1394.8 1184.4,1397.0 1208.7,1398.5 1233.2,1399.3 1257.6,1399.4 1282.0,1398.7 1306.5,1397.4 1330.8,1395.2 1355.1,1392.4 1379.2,1388.7 1403.3,1384.3 1427.1,1379.1 1450.8,1373.1 1474.2,1366.3 1497.5,1358.8 1520.4,1350.6 1543.1,1341.5 1565.5,1331.8 1587.6,1321.3 1609.4,1310.2 1630.8,1298.4 1651.8,1285.9 1672.5,1272.8 1692.7,1259.2 1712.6,1245.0 1732.0,1230.3 1751.0,1215.1 1769.5,1199.5 1787.5,1183.4 1805.1,1167.1 1822.2,1150.5 1838.8,1133.6 1854.9,1116.5  Z" style="stroke-width: 0.5;  stroke: rgb(0,0,0); fill: rgb(179,177,178);" />
<path d="M 1505.531,977.529 A 522.500,522.500 0.00 0,1 1512.5,977.6 L 1512.5,977.6 1511.8,998.1 1510.8,1018.5 1509.4,1038.7 1507.6,1058.5 1505.4,1077.8 1502.8,1096.6 1499.7,1114.7 1496.1,1132.0 1492.1,1148.5 1487.6,1164.0 1482.5,1178.5 1477.0,1191.9 1471.0,1204.1 1464.4,1215.2 1457.4,1224.9 1449.8,1233.4 1441.8,1240.6 1433.3,1246.4 1424.3,1250.9 1414.8,1254.0 1404.9,1255.6 1394.6,1255.9 1383.9,1254.9 1372.8,1252.4 1361.4,1248.6 1349.6,1243.5 1337.5,1237.2 1325.1,1229.6 1312.5,1220.8 1299.8,1210.9 1286.8,1200.0 1273.8,1188.1 1260.6,1175.3 1247.4,1161.6 1234.3,1147.3 1221.2,1132.3 1208.2,1116.8 1195.4,1100.9 1182.9,1084.7  A 522.500,522.500 0.00 0,1 1188.5,1080.5 L 1188.5,1080.5 1200.8,1096.8 1213.4,1112.9 1226.1,1128.5 1238.9,1143.7 1251.8,1158.2 1264.6,1172.0 1277.5,1185.0 1290.3,1197.1 1302.9,1208.2 1315.4,1218.2 1327.6,1227.1 1339.7,1234.9 1351.4,1241.4 1362.9,1246.6 1374.0,1250.6 1384.8,1253.1 1395.1,1254.4 1405.1,1254.2 1414.6,1252.6 1423.7,1249.7 1432.3,1245.3 1440.5,1239.6 1448.2,1232.5 1455.4,1224.1 1462.1,1214.4 1468.2,1203.4 1473.9,1191.3 1479.1,1177.9 1483.8,1163.5 1488.0,1148.0 1491.7,1131.6 1494.9,1114.4 1497.7,1096.3 1500.0,1077.6 1501.9,1058.2 1503.4,1038.5 1504.4,1018.3 1505.2,998.0 1505.5,977.5  Z" style="stroke-width: 0.5;  stroke: rgb(0,0,0); fill: rgb(179,177,178);" />
</g>
<g id="plot0">
<g id="plot0-axis">
</g>
<line x1='2243.5' y1='1598.3' x2='2243.5' y2='1598.3' style="stroke-width:14.0;stroke:rgb(0,0,0);stroke-linecap:round;fill:none;" />
<line x1='2243.5' y1='1598.3' x2='2283.2' y2='1603.6' style="stroke-width:14.0;stroke:rgb(0,0,0);stroke-linecap:round;fill:none;" />
<line x1='2283.2' y1='1603.6' x2='2283.2' y2='1603.6' style="stroke-width:14.0;stroke:rgb(0,0,0);stroke-linecap:round;fill:none;" />
<text x="2299.8" y="1628.0" font-size="46.8px" font-family="CMUBright-Roman" style="text-anchor:start;fill:rgb(255,38,78);" transform="rotate(7.5,2299.8,1628.0)" >Histocap1517p17<tspan baseline-shift="-40%" font-size="90%">s</tspan>02243</text>
</g>
<defs>
<pattern id="checker" width="10" height="10" patternTransform="rotate(45 0 0)" patternUnits="userSpaceOnUse"><line x1="0" y1="0" x2="10" y2="0" style="stroke:black;stroke-width:2" /><line x1="0" y1="0" x2="0" y2="10" style="stroke:black;stroke-width:2" /></pattern>
<pattern id="checker" width="10" height="10" patternTransform="rotate(45 0 0)" patternUnits="userSpaceOnUse"><line x1="0" y1="0" x2="10" y2="0" style="stroke:black;stroke-width:5" /><line x1="0" y1="0" x2="0" y2="10" style="stroke:black;stroke-width:4" /></pattern>
<pattern id="hline-sparse" width="10" height="10" patternTransform="rotate(0 0 0)" patternUnits="userSpaceOnUse"><line x1="0" y1="0" x2="10" y2="0" style="stroke:black;stroke-width:2" /></pattern>
<pattern id="hline" width="10" height="10" patternTransform="rotate(0 0 0)" patternUnits="userSpaceOnUse"><line x1="0" y1="0" x2="10" y2="0" style="stroke:black;stroke-width:5" /></pattern>
<pattern id="vline-sparse" width="10" height="10" patternTransform="rotate(0 0 0)" patternUnits="userSpaceOnUse"><line x1="0" y1="0" x2="0" y2="10" style="stroke:black;stroke-width:2" /></pattern>
<pattern id="vline" width="10" height="10" patternTransform="rotate(0 0 0)" patternUnits="userSpaceOnUse"><line x1="0" y1="0" x2="0" y2="10" style="stroke:black;stroke-width:5" /></pattern>
</defs>
</svg>
