<?xml version="1.0" encoding="utf-8" standalone="no"?>
<!DOCTYPE svg PUBLIC "-//W3C//DTD SVG 1.1//EN" "http://www.w3.org/Graphics/SVG/1.1/DTD/svg11.dtd">
<svg width="3000px" height="3000px" version="1.1" xmlns="http://www.w3.org/2000/svg" xmlns:xlink="http://www.w3.org/1999/xlink">
<g id="bg">
<rect x="0" y="0" width="3000px" height="3000px" style="fill:rgb(255,255,255);"/>
</g>
<g id="ideograms">
<path d="M1500.000,950.000 A550.000,550.000 40.000 1,1 1476.436,2049.495 L1467.868,2249.311 A750.000,750.000 0.000 1,0 1500.000,750.000 Z" style="stroke-width:2.0;stroke:rgb(0,0,0);stroke-linecap:round;fill:rgb(179,177,178);" />
<text x="2519.8" y="1521.9" font-size="46.8px" font-family="CMUBright-Roman" style="text-anchor:middle;fill:rgb(0,0,0);" transform="rotate(-88.8,2519.8,1521.9)" >HistocapCB062<tspan baseline-shift="-40%" font-size="90%">5</tspan></text>
<line x1='1537.8' y1='751.0' x2='1538.4' y2='739.0' style="stroke-width:8.0;stroke:rgb(150,150,150);stroke-linecap:round;fill:none;" />
<line x1='1626.2' y1='760.7' x2='1628.3' y2='748.9' style="stroke-width:8.0;stroke:rgb(150,150,150);stroke-linecap:round;fill:none;" />
<line x1='1712.9' y1='780.9' x2='1716.3' y2='769.3' style="stroke-width:8.0;stroke:rgb(150,150,150);stroke-linecap:round;fill:none;" />
<line x1='1796.5' y1='811.1' x2='1801.3' y2='800.1' style="stroke-width:8.0;stroke:rgb(150,150,150);stroke-linecap:round;fill:none;" />
<line x1='1876.0' y1='851.1' x2='1882.0' y2='840.7' style="stroke-width:8.0;stroke:rgb(150,150,150);stroke-linecap:round;fill:none;" />
<text x="1900.1" y="837.4" font-size="41.6px" font-family="CMUBright-Roman" style="text-anchor:start;fill:rgb(150,150,150);" transform="rotate(300.1,1900.1,837.4)" >3000 kb</text>
<line x1='1950.2' y1='900.2' x2='1957.4' y2='890.6' style="stroke-width:8.0;stroke:rgb(150,150,150);stroke-linecap:round;fill:none;" />
<line x1='2018.1' y1='957.7' x2='2026.4' y2='949.0' style="stroke-width:8.0;stroke:rgb(150,150,150);stroke-linecap:round;fill:none;" />
<line x1='2078.6' y1='1022.8' x2='2087.9' y2='1015.2' style="stroke-width:8.0;stroke:rgb(150,150,150);stroke-linecap:round;fill:none;" />
<line x1='2131.1' y1='1094.7' x2='2141.2' y2='1088.2' style="stroke-width:8.0;stroke:rgb(150,150,150);stroke-linecap:round;fill:none;" />
<line x1='2174.6' y1='1172.3' x2='2185.4' y2='1167.0' style="stroke-width:8.0;stroke:rgb(150,150,150);stroke-linecap:round;fill:none;" />
<text x="2202.2" y="1174.5" font-size="41.6px" font-family="CMUBright-Roman" style="text-anchor:start;fill:rgb(150,150,150);" transform="rotate(334.1,2202.2,1174.5)" >3050 kb</text>
<line x1='2208.7' y1='1254.5' x2='2220.0' y2='1250.5' style="stroke-width:8.0;stroke:rgb(150,150,150);stroke-linecap:round;fill:none;" />
<line x1='2232.8' y1='1340.1' x2='2244.5' y2='1337.6' style="stroke-width:8.0;stroke:rgb(150,150,150);stroke-linecap:round;fill:none;" />
<line x1='2246.5' y1='1428.0' x2='2258.5' y2='1426.8' style="stroke-width:8.0;stroke:rgb(150,150,150);stroke-linecap:round;fill:none;" />
<line x1='2249.8' y1='1516.9' x2='2261.8' y2='1517.2' style="stroke-width:8.0;stroke:rgb(150,150,150);stroke-linecap:round;fill:none;" />
<line x1='2242.5' y1='1605.6' x2='2254.4' y2='1607.2' style="stroke-width:8.0;stroke:rgb(150,150,150);stroke-linecap:round;fill:none;" />
<text x="2264.2" y="1622.8" font-size="41.6px" font-family="CMUBright-Roman" style="text-anchor:start;fill:rgb(150,150,150);" transform="rotate(8.1,2264.2,1622.8)" >3100 kb</text>
<line x1='2224.8' y1='1692.7' x2='2236.4' y2='1695.8' style="stroke-width:8.0;stroke:rgb(150,150,150);stroke-linecap:round;fill:none;" />
<line x1='2196.9' y1='1777.2' x2='2208.0' y2='1781.6' style="stroke-width:8.0;stroke:rgb(150,150,150);stroke-linecap:round;fill:none;" />
<line x1='2159.2' y1='1857.8' x2='2169.7' y2='1863.5' style="stroke-width:8.0;stroke:rgb(150,150,150);stroke-linecap:round;fill:none;" />
<line x1='2112.2' y1='1933.3' x2='2122.0' y2='1940.2' style="stroke-width:8.0;stroke:rgb(150,150,150);stroke-linecap:round;fill:none;" />
<line x1='2056.6' y1='2002.7' x2='2065.5' y2='2010.8' style="stroke-width:8.0;stroke:rgb(150,150,150);stroke-linecap:round;fill:none;" />
<text x="2064.9" y="2029.1" font-size="41.6px" font-family="CMUBright-Roman" style="text-anchor:start;fill:rgb(150,150,150);" transform="rotate(42.1,2064.9,2029.1)" >3150 kb</text>
<line x1='1993.1' y1='2065.1' x2='2001.0' y2='2074.1' style="stroke-width:8.0;stroke:rgb(150,150,150);stroke-linecap:round;fill:none;" />
<line x1='1922.7' y1='2119.5' x2='1929.5' y2='2129.4' style="stroke-width:8.0;stroke:rgb(150,150,150);stroke-linecap:round;fill:none;" />
<line x1='1846.4' y1='2165.2' x2='1852.0' y2='2175.8' style="stroke-width:8.0;stroke:rgb(150,150,150);stroke-linecap:round;fill:none;" />
<line x1='1765.2' y1='2201.5' x2='1769.5' y2='2212.8' style="stroke-width:8.0;stroke:rgb(150,150,150);stroke-linecap:round;fill:none;" />
<line x1='1680.3' y1='2228.0' x2='1683.2' y2='2239.7' style="stroke-width:8.0;stroke:rgb(150,150,150);stroke-linecap:round;fill:none;" />
<text x="1672.4" y="2254.5" font-size="41.6px" font-family="CMUBright-Roman" style="text-anchor:start;fill:rgb(150,150,150);" transform="rotate(76.1,1672.4,2254.5)" >3200 kb</text>
<line x1='1592.8' y1='2244.2' x2='1594.3' y2='2256.1' style="stroke-width:8.0;stroke:rgb(150,150,150);stroke-linecap:round;fill:none;" />
<line x1='1504.0' y1='2250.0' x2='1504.1' y2='2262.0' style="stroke-width:8.0;stroke:rgb(150,150,150);stroke-linecap:round;fill:none;" />
<g id="highlighttrack_0">
<path d="M2009.952,1293.968 A550.000,550.000 40.000 0,1 2000.657,1727.690 L2182.714,1810.487 A750.000,750.000 0.000 0,0 2195.389,1219.048 Z" style="stroke-width:14.0;stroke:rgb(0,0,0);stroke-linecap:round;fill:rgb(255,38,78);" />
</g>
<path d="M1500.000,950.000 A550.000,550.000 40.000 1,1 1476.436,2049.495 L1467.868,2249.311 A750.000,750.000 0.000 1,0 1500.000,750.000 Z" style="stroke-width:2.0;stroke:rgb(0,0,0);stroke-linecap:round;fill:none;" />
<path d="M1286.375,2006.818 A550.000,550.000 40.000 0,1 1308.285,984.495 L1238.570,797.039 A750.000,750.000 0.000 0,0 1208.693,2191.115 Z" style="stroke-width:2.0;stroke:rgb(0,0,0);stroke-linecap:round;fill:rgb(179,177,178);" />
<text x="525.2" y="1479.1" font-size="46.8px" font-family="CMUBright-Roman" style="text-anchor:middle;fill:rgb(0,0,0);" transform="rotate(-88.8,525.2,1479.1)" >HistocapSA15<tspan baseline-shift="-40%" font-size="90%">5</tspan></text>
<line x1='1182.9' y1='820.3' x2='1177.8' y2='809.4' style="stroke-width:8.0;stroke:rgb(150,150,150);stroke-linecap:round;fill:none;" />
<line x1='1104.7' y1='862.6' x2='1098.3' y2='852.5' style="stroke-width:8.0;stroke:rgb(150,150,150);stroke-linecap:round;fill:none;" />
<line x1='1032.0' y1='913.9' x2='1024.5' y2='904.6' style="stroke-width:8.0;stroke:rgb(150,150,150);stroke-linecap:round;fill:none;" />
<line x1='965.9' y1='973.5' x2='957.3' y2='965.1' style="stroke-width:8.0;stroke:rgb(150,150,150);stroke-linecap:round;fill:none;" />
<line x1='907.3' y1='1040.4' x2='897.8' y2='1033.1' style="stroke-width:8.0;stroke:rgb(150,150,150);stroke-linecap:round;fill:none;" />
<text x="879.9" y="1036.9" font-size="41.6px" font-family="CMUBright-Roman" style="text-anchor:end;fill:rgb(150,150,150);" transform="rotate(37.8,879.9,1036.9)" >2500 kb</text>
<line x1='857.1' y1='1113.8' x2='846.8' y2='1107.7' style="stroke-width:8.0;stroke:rgb(150,150,150);stroke-linecap:round;fill:none;" />
<line x1='815.9' y1='1192.7' x2='804.9' y2='1187.8' style="stroke-width:8.0;stroke:rgb(150,150,150);stroke-linecap:round;fill:none;" />
<line x1='784.3' y1='1275.8' x2='772.8' y2='1272.3' style="stroke-width:8.0;stroke:rgb(150,150,150);stroke-linecap:round;fill:none;" />
<line x1='762.8' y1='1362.2' x2='751.0' y2='1360.0' style="stroke-width:8.0;stroke:rgb(150,150,150);stroke-linecap:round;fill:none;" />
<line x1='751.6' y1='1450.4' x2='739.7' y2='1449.6' style="stroke-width:8.0;stroke:rgb(150,150,150);stroke-linecap:round;fill:none;" />
<text x="726.9" y="1462.8" font-size="41.6px" font-family="CMUBright-Roman" style="text-anchor:end;fill:rgb(150,150,150);" transform="rotate(3.8,726.9,1462.8)" >2550 kb</text>
<line x1='751.0' y1='1539.4' x2='739.1' y2='1540.0' style="stroke-width:8.0;stroke:rgb(150,150,150);stroke-linecap:round;fill:none;" />
<line x1='761.0' y1='1627.8' x2='749.1' y2='1629.8' style="stroke-width:8.0;stroke:rgb(150,150,150);stroke-linecap:round;fill:none;" />
<line x1='781.3' y1='1714.4' x2='769.8' y2='1717.8' style="stroke-width:8.0;stroke:rgb(150,150,150);stroke-linecap:round;fill:none;" />
<line x1='811.7' y1='1798.0' x2='800.7' y2='1802.7' style="stroke-width:8.0;stroke:rgb(150,150,150);stroke-linecap:round;fill:none;" />
<line x1='851.9' y1='1877.4' x2='841.5' y2='1883.4' style="stroke-width:8.0;stroke:rgb(150,150,150);stroke-linecap:round;fill:none;" />
<text x="838.3" y="1901.5" font-size="41.6px" font-family="CMUBright-Roman" style="text-anchor:end;fill:rgb(150,150,150);" transform="rotate(-30.2,838.3,1901.5)" >2600 kb</text>
<line x1='901.1' y1='1951.5' x2='891.5' y2='1958.7' style="stroke-width:8.0;stroke:rgb(150,150,150);stroke-linecap:round;fill:none;" />
<line x1='958.8' y1='2019.2' x2='950.1' y2='2027.5' style="stroke-width:8.0;stroke:rgb(150,150,150);stroke-linecap:round;fill:none;" />
<line x1='1024.1' y1='2079.6' x2='1016.4' y2='2088.9' style="stroke-width:8.0;stroke:rgb(150,150,150);stroke-linecap:round;fill:none;" />
<line x1='1096.0' y1='2131.9' x2='1089.6' y2='2142.0' style="stroke-width:8.0;stroke:rgb(150,150,150);stroke-linecap:round;fill:none;" />
<line x1='1173.7' y1='2175.3' x2='1168.5' y2='2186.1' style="stroke-width:8.0;stroke:rgb(150,150,150);stroke-linecap:round;fill:none;" />
<text x="1175.9" y="2202.9" font-size="41.6px" font-family="CMUBright-Roman" style="text-anchor:end;fill:rgb(150,150,150);" transform="rotate(-64.2,1175.9,2202.9)" >2650 kb</text>
<path d="M1286.375,2006.818 A550.000,550.000 40.000 0,1 1308.285,984.495 L1238.570,797.039 A750.000,750.000 0.000 0,0 1208.693,2191.115 Z" style="stroke-width:2.0;stroke:rgb(0,0,0);stroke-linecap:round;fill:none;" />
</g>
<g id="track_0">
<path d="M 1972.641,1277.251 A 522.500,522.500 0.00 0,1 1979.2,1291.7 L 1979.2,1291.7 1955.8,1301.7 1932.2,1311.6 1908.4,1321.3 1884.4,1330.9 1860.1,1340.2 1835.6,1349.3 1811.0,1358.2 1786.1,1366.8 1761.0,1375.2 1735.8,1383.4 1710.5,1391.2 1684.9,1398.8 1659.2,1406.1 1633.4,1413.0 1607.5,1419.7 1581.5,1426.1 1555.3,1432.1 1529.1,1437.8 1502.8,1443.2 1476.4,1448.3 1450.0,1453.0 1423.5,1457.4 1397.0,1461.4 1370.4,1465.1 1343.9,1468.5 1317.3,1471.6 1290.8,1474.3 1264.2,1476.7 1237.8,1478.7 1211.3,1480.5 1185.0,1482.0 1158.7,1483.1 1132.4,1484.0 1106.3,1484.5 1080.3,1484.8 1054.5,1484.9 1028.7,1484.6 1003.2,1484.2 977.8,1483.5  A 522.500,522.500 0.00 0,1 978.5,1467.6 L 978.5,1467.6 1003.7,1469.0 1029.1,1470.2 1054.6,1471.1 1080.3,1471.8 1106.2,1472.1 1132.2,1472.1 1158.3,1471.8 1184.4,1471.2 1210.7,1470.3 1237.1,1469.0 1263.5,1467.3 1289.9,1465.3 1316.4,1462.9 1342.9,1460.1 1369.4,1457.0 1395.8,1453.5 1422.3,1449.6 1448.7,1445.3 1475.0,1440.7 1501.3,1435.6 1527.5,1430.2 1553.6,1424.5 1579.6,1418.3 1605.5,1411.8 1631.3,1404.9 1656.9,1397.7 1682.4,1390.2 1707.7,1382.3 1732.9,1374.1 1757.8,1365.5 1782.6,1356.7 1807.2,1347.6 1831.5,1338.2 1855.7,1328.6 1879.6,1318.7 1903.2,1308.7 1926.6,1298.4 1949.8,1287.9 1972.6,1277.3  Z" style="stroke-width: 0.5;  stroke: rgb(0,0,0); fill: rgb(179,177,178);" />
<path d="M 1979.438,1292.286 A 522.500,522.500 0.00 0,1 1984.5,1304.3 L 1984.5,1304.3 1960.8,1313.7 1936.9,1323.0 1912.7,1332.2 1888.4,1341.2 1863.8,1350.0 1839.1,1358.5 1814.2,1366.9 1789.1,1375.0 1763.8,1382.9 1738.4,1390.6 1712.9,1398.0 1687.2,1405.1 1661.3,1412.0 1635.4,1418.5 1609.3,1424.8 1583.1,1430.8 1556.9,1436.5 1530.5,1441.9 1504.1,1446.9 1477.6,1451.7 1451.1,1456.2 1424.6,1460.3 1398.0,1464.1 1371.3,1467.6 1344.7,1470.8 1318.1,1473.7 1291.5,1476.3 1264.9,1478.6 1238.4,1480.6 1211.9,1482.3 1185.5,1483.7 1159.1,1484.8 1132.9,1485.6 1106.7,1486.2 1080.6,1486.5 1054.7,1486.6 1028.9,1486.4 1003.2,1486.0 977.7,1485.4  A 522.500,522.500 0.00 0,1 978.2,1472.7 L 978.2,1472.7 1003.5,1473.9 1029.0,1474.9 1054.7,1475.6 1080.5,1476.1 1106.5,1476.3 1132.6,1476.2 1158.7,1475.8 1185.0,1475.1 1211.4,1474.1 1237.8,1472.8 1264.3,1471.1 1290.8,1469.1 1317.4,1466.8 1343.9,1464.1 1370.5,1461.1 1397.1,1457.8 1423.6,1454.1 1450.1,1450.0 1476.6,1445.6 1503.0,1440.8 1529.3,1435.7 1555.6,1430.3 1581.7,1424.5 1607.8,1418.4 1633.7,1411.9 1659.6,1405.1 1685.3,1398.0 1710.8,1390.6 1736.2,1383.0 1761.4,1375.0 1786.5,1366.7 1811.3,1358.2 1836.0,1349.4 1860.5,1340.4 1884.7,1331.2 1908.8,1321.7 1932.6,1312.1 1956.1,1302.3 1979.4,1292.3  Z" style="stroke-width: 0.5;  stroke: rgb(0,0,0); fill: rgb(179,177,178);" />
<path d="M 1975.583,1716.396 A 522.500,522.500 0.00 0,1 1971.9,1724.2 L 1971.9,1724.2 1948.9,1713.4 1925.7,1702.8 1902.2,1692.3 1878.5,1682.0 1854.6,1671.8 1830.4,1661.9 1806.1,1652.2 1781.5,1642.8 1756.8,1633.6 1731.8,1624.6 1706.7,1615.9 1681.5,1607.5 1656.0,1599.4 1630.5,1591.6 1604.8,1584.1 1579.0,1576.9 1553.0,1570.1 1527.0,1563.5 1500.9,1557.3 1474.7,1551.4 1448.4,1545.9 1422.1,1540.7 1395.7,1535.8 1369.3,1531.3 1342.9,1527.1 1316.4,1523.2 1290.0,1519.7 1263.6,1516.4 1237.2,1513.6 1210.8,1511.0 1184.5,1508.7 1158.2,1506.8 1132.1,1505.1 1106.0,1503.8 1080.0,1502.7 1054.2,1501.9 1028.5,1501.3 1002.9,1501.0 977.5,1501.0  A 522.500,522.500 0.00 0,1 977.6,1492.3 L 977.6,1492.3 1003.1,1492.8 1028.7,1493.5 1054.5,1494.4 1080.4,1495.6 1106.4,1497.0 1132.6,1498.7 1158.8,1500.7 1185.1,1502.9 1211.4,1505.4 1237.8,1508.3 1264.2,1511.4 1290.7,1514.8 1317.1,1518.5 1343.6,1522.5 1370.1,1526.9 1396.5,1531.5 1422.9,1536.5 1449.3,1541.8 1475.6,1547.3 1501.8,1553.2 1528.0,1559.4 1554.1,1565.9 1580.1,1572.7 1606.0,1579.8 1631.7,1587.2 1657.4,1594.9 1682.9,1602.9 1708.3,1611.1 1733.5,1619.6 1758.6,1628.3 1783.5,1637.3 1808.2,1646.5 1832.7,1655.9 1857.1,1665.6 1881.2,1675.4 1905.1,1685.4 1928.8,1695.6 1952.3,1705.9 1975.6,1716.4  Z" style="stroke-width: 0.5;  stroke: rgb(0,0,0); fill: rgb(179,177,178);" />
</g>
<g id="plot0">
<g id="plot0-axis">
</g>
<line x1='2245.0' y1='1586.4' x2='2245.0' y2='1586.4' style="stroke-width:14.0;stroke:rgb(0,0,0);stroke-linecap:round;fill:none;" />
<line x1='2245.0' y1='1586.4' x2='2284.7' y2='1591.0' style="stroke-width:14.0;stroke:rgb(0,0,0);stroke-linecap:round;fill:none;" />
<line x1='2284.7' y1='1591.0' x2='2284.7' y2='1591.0' style="stroke-width:14.0;stroke:rgb(0,0,0);stroke-linecap:round;fill:none;" />
<text x="2301.7" y="1615.6" font-size="46.8px" font-family="CMUBright-Roman" style="text-anchor:start;fill:rgb(255,38,78);" transform="rotate(6.6,2301.7,1615.6)" >HistocapCB062<tspan baseline-shift="-40%" font-size="90%">s</tspan>00046</text>
</g>
<defs>
<pattern id="vline" width="10" height="10" patternTransform="rotate(0 0 0)" patternUnits="userSpaceOnUse"><line x1="0" y1="0" x2="0" y2="10" style="stroke:black;stroke-width:5" /></pattern>
<pattern id="hline-sparse" width="10" height="10" patternTransform="rotate(0 0 0)" patternUnits="userSpaceOnUse"><line x1="0" y1="0" x2="10" y2="0" style="stroke:black;stroke-width:2" /></pattern>
<pattern id="checker" width="10" height="10" patternTransform="rotate(45 0 0)" patternUnits="userSpaceOnUse"><line x1="0" y1="0" x2="10" y2="0" style="stroke:black;stroke-width:2" /><line x1="0" y1="0" x2="0" y2="10" style="stroke:black;stroke-width:2" /></pattern>
<pattern id="checker" width="10" height="10" patternTransform="rotate(45 0 0)" patternUnits="userSpaceOnUse"><line x1="0" y1="0" x2="10" y2="0" style="stroke:black;stroke-width:5" /><line x1="0" y1="0" x2="0" y2="10" style="stroke:black;stroke-width:4" /></pattern>
<pattern id="hline" width="10" height="10" patternTransform="rotate(0 0 0)" patternUnits="userSpaceOnUse"><line x1="0" y1="0" x2="10" y2="0" style="stroke:black;stroke-width:5" /></pattern>
<pattern id="vline-sparse" width="10" height="10" patternTransform="rotate(0 0 0)" patternUnits="userSpaceOnUse"><line x1="0" y1="0" x2="0" y2="10" style="stroke:black;stroke-width:2" /></pattern>
</defs>
</svg>
