<?xml version="1.0" encoding="utf-8" standalone="no"?>
<!DOCTYPE svg PUBLIC "-//W3C//DTD SVG 1.1//EN" "http://www.w3.org/Graphics/SVG/1.1/DTD/svg11.dtd">
<svg width="3000px" height="3000px" version="1.1" xmlns="http://www.w3.org/2000/svg" xmlns:xlink="http://www.w3.org/1999/xlink">
<g id="bg">
<rect x="0" y="0" width="3000px" height="3000px" style="fill:rgb(255,255,255);"/>
</g>
<g id="ideograms">
<path d="M1500.000,950.000 A550.000,550.000 40.000 0,1 1711.286,2007.797 L1788.117,2192.451 A750.000,750.000 0.000 0,0 1500.000,750.000 Z" style="stroke-width:2.0;stroke:rgb(0,0,0);stroke-linecap:round;fill:rgb(179,177,178);" />
<text x="2456.1" y="1309.0" font-size="46.8px" font-family="CMUBright-Roman" style="text-anchor:middle;fill:rgb(0,0,0);" transform="rotate(438.7,2456.1,1309.0)" >HistocapWGSS16<tspan baseline-shift="-40%" font-size="90%">3</tspan></text>
<line x1='1591.0' y1='755.5' x2='1592.5' y2='743.6' style="stroke-width:8.0;stroke:rgb(150,150,150);stroke-linecap:round;fill:none;" />
<line x1='1690.6' y1='774.6' x2='1693.6' y2='763.0' style="stroke-width:8.0;stroke:rgb(150,150,150);stroke-linecap:round;fill:none;" />
<text x="1710.2" y="755.1" font-size="41.6px" font-family="CMUBright-Roman" style="text-anchor:start;fill:rgb(150,150,150);" transform="rotate(284.7,1710.2,755.1)" >3250 kb</text>
<line x1='1786.6' y1='806.9' x2='1791.2' y2='795.8' style="stroke-width:8.0;stroke:rgb(150,150,150);stroke-linecap:round;fill:none;" />
<line x1='1877.4' y1='851.9' x2='1883.5' y2='841.5' style="stroke-width:8.0;stroke:rgb(150,150,150);stroke-linecap:round;fill:none;" />
<line x1='1961.4' y1='908.7' x2='1968.7' y2='899.2' style="stroke-width:8.0;stroke:rgb(150,150,150);stroke-linecap:round;fill:none;" />
<line x1='2036.9' y1='976.3' x2='2045.5' y2='967.9' style="stroke-width:8.0;stroke:rgb(150,150,150);stroke-linecap:round;fill:none;" />
<line x1='2102.6' y1='1053.4' x2='2112.2' y2='1046.3' style="stroke-width:8.0;stroke:rgb(150,150,150);stroke-linecap:round;fill:none;" />
<text x="2130.1" y="1050.5" font-size="41.6px" font-family="CMUBright-Roman" style="text-anchor:start;fill:rgb(150,150,150);" transform="rotate(323.5,2130.1,1050.5)" >3300 kb</text>
<line x1='2157.3' y1='1138.7' x2='2167.8' y2='1133.0' style="stroke-width:8.0;stroke:rgb(150,150,150);stroke-linecap:round;fill:none;" />
<line x1='2200.0' y1='1230.6' x2='2211.2' y2='1226.3' style="stroke-width:8.0;stroke:rgb(150,150,150);stroke-linecap:round;fill:none;" />
<line x1='2229.9' y1='1327.5' x2='2241.6' y2='1324.7' style="stroke-width:8.0;stroke:rgb(150,150,150);stroke-linecap:round;fill:none;" />
<line x1='2246.5' y1='1427.4' x2='2258.4' y2='1426.3' style="stroke-width:8.0;stroke:rgb(150,150,150);stroke-linecap:round;fill:none;" />
<line x1='2249.4' y1='1528.7' x2='2261.4' y2='1529.2' style="stroke-width:8.0;stroke:rgb(150,150,150);stroke-linecap:round;fill:none;" />
<text x="2272.8" y="1543.6" font-size="41.6px" font-family="CMUBright-Roman" style="text-anchor:start;fill:rgb(150,150,150);" transform="rotate(2.2,2272.8,1543.6)" >3350 kb</text>
<line x1='2238.7' y1='1629.5' x2='2250.6' y2='1631.6' style="stroke-width:8.0;stroke:rgb(150,150,150);stroke-linecap:round;fill:none;" />
<line x1='2214.5' y1='1727.9' x2='2226.0' y2='1731.6' style="stroke-width:8.0;stroke:rgb(150,150,150);stroke-linecap:round;fill:none;" />
<line x1='2177.3' y1='1822.2' x2='2188.1' y2='1827.3' style="stroke-width:8.0;stroke:rgb(150,150,150);stroke-linecap:round;fill:none;" />
<line x1='2127.7' y1='1910.5' x2='2137.7' y2='1917.1' style="stroke-width:8.0;stroke:rgb(150,150,150);stroke-linecap:round;fill:none;" />
<line x1='2066.6' y1='1991.4' x2='2075.7' y2='1999.2' style="stroke-width:8.0;stroke:rgb(150,150,150);stroke-linecap:round;fill:none;" />
<text x="2075.5" y="2017.6" font-size="41.6px" font-family="CMUBright-Roman" style="text-anchor:start;fill:rgb(150,150,150);" transform="rotate(40.9,2075.5,2017.6)" >3400 kb</text>
<line x1='1995.2' y1='2063.3' x2='2003.1' y2='2072.3' style="stroke-width:8.0;stroke:rgb(150,150,150);stroke-linecap:round;fill:none;" />
<line x1='1914.7' y1='2124.9' x2='1921.4' y2='2134.9' style="stroke-width:8.0;stroke:rgb(150,150,150);stroke-linecap:round;fill:none;" />
<line x1='1826.7' y1='2175.1' x2='1831.9' y2='2185.9' style="stroke-width:8.0;stroke:rgb(150,150,150);stroke-linecap:round;fill:none;" />
<g id="highlighttrack_0">
<path d="M2036.911,1380.726 A550.000,550.000 40.000 0,1 2041.533,1403.865 L2238.454,1368.906 A750.000,750.000 0.000 0,0 2232.152,1337.353 Z" style="stroke-width:14.0;stroke:rgb(0,0,0);stroke-linecap:round;fill:rgb(255,38,78);" />
</g>
<path d="M1500.000,950.000 A550.000,550.000 40.000 0,1 1711.286,2007.797 L1788.117,2192.451 A750.000,750.000 0.000 0,0 1500.000,750.000 Z" style="stroke-width:2.0;stroke:rgb(0,0,0);stroke-linecap:round;fill:none;" />
<path d="M1493.749,2049.964 A550.000,550.000 40.000 0,1 1282.957,994.637 L1204.032,810.868 A750.000,750.000 0.000 0,0 1491.476,2249.952 Z" style="stroke-width:2.0;stroke:rgb(0,0,0);stroke-linecap:round;fill:rgb(179,177,178);" />
<text x="499.8" y="1699.8" font-size="46.8px" font-family="CMUBright-Roman" style="text-anchor:middle;fill:rgb(0,0,0);" transform="rotate(78.7,499.8,1699.8)" >HistoohiSECH95<tspan baseline-shift="-40%" font-size="90%">3</tspan></text>
<line x1='1168.4' y1='827.3' x2='1163.1' y2='816.5' style="stroke-width:8.0;stroke:rgb(150,150,150);stroke-linecap:round;fill:none;" />
<line x1='1080.8' y1='878.1' x2='1074.1' y2='868.2' style="stroke-width:8.0;stroke:rgb(150,150,150);stroke-linecap:round;fill:none;" />
<line x1='1000.8' y1='940.3' x2='992.8' y2='931.4' style="stroke-width:8.0;stroke:rgb(150,150,150);stroke-linecap:round;fill:none;" />
<line x1='929.9' y1='1012.7' x2='920.7' y2='1004.9' style="stroke-width:8.0;stroke:rgb(150,150,150);stroke-linecap:round;fill:none;" />
<line x1='869.4' y1='1094.0' x2='859.3' y2='1087.5' style="stroke-width:8.0;stroke:rgb(150,150,150);stroke-linecap:round;fill:none;" />
<text x="841.7" y="1092.9" font-size="41.6px" font-family="CMUBright-Roman" style="text-anchor:end;fill:rgb(150,150,150);" transform="rotate(32.8,841.7,1092.9)" >2500 kb</text>
<line x1='820.4' y1='1182.7' x2='809.5' y2='1177.7' style="stroke-width:8.0;stroke:rgb(150,150,150);stroke-linecap:round;fill:none;" />
<line x1='783.8' y1='1277.3' x2='772.4' y2='1273.7' style="stroke-width:8.0;stroke:rgb(150,150,150);stroke-linecap:round;fill:none;" />
<line x1='760.3' y1='1375.8' x2='748.5' y2='1373.8' style="stroke-width:8.0;stroke:rgb(150,150,150);stroke-linecap:round;fill:none;" />
<line x1='750.4' y1='1476.7' x2='738.4' y2='1476.3' style="stroke-width:8.0;stroke:rgb(150,150,150);stroke-linecap:round;fill:none;" />
<line x1='754.1' y1='1577.9' x2='742.1' y2='1579.2' style="stroke-width:8.0;stroke:rgb(150,150,150);stroke-linecap:round;fill:none;" />
<text x="731.8" y="1594.4" font-size="41.6px" font-family="CMUBright-Roman" style="text-anchor:end;fill:rgb(150,150,150);" transform="rotate(-6.0,731.8,1594.4)" >2550 kb</text>
<line x1='771.4' y1='1677.8' x2='759.7' y2='1680.6' style="stroke-width:8.0;stroke:rgb(150,150,150);stroke-linecap:round;fill:none;" />
<line x1='802.0' y1='1774.4' x2='790.8' y2='1778.8' style="stroke-width:8.0;stroke:rgb(150,150,150);stroke-linecap:round;fill:none;" />
<line x1='845.4' y1='1866.0' x2='834.9' y2='1871.8' style="stroke-width:8.0;stroke:rgb(150,150,150);stroke-linecap:round;fill:none;" />
<line x1='900.7' y1='1950.9' x2='891.1' y2='1958.1' style="stroke-width:8.0;stroke:rgb(150,150,150);stroke-linecap:round;fill:none;" />
<line x1='966.9' y1='2027.6' x2='958.4' y2='2036.0' style="stroke-width:8.0;stroke:rgb(150,150,150);stroke-linecap:round;fill:none;" />
<text x="959.8" y="2054.3" font-size="41.6px" font-family="CMUBright-Roman" style="text-anchor:end;fill:rgb(150,150,150);" transform="rotate(-44.7,959.8,2054.3)" >2600 kb</text>
<line x1='1042.9' y1='2094.6' x2='1035.6' y2='2104.1' style="stroke-width:8.0;stroke:rgb(150,150,150);stroke-linecap:round;fill:none;" />
<line x1='1127.2' y1='2150.8' x2='1121.3' y2='2161.2' style="stroke-width:8.0;stroke:rgb(150,150,150);stroke-linecap:round;fill:none;" />
<line x1='1218.4' y1='2195.1' x2='1213.9' y2='2206.2' style="stroke-width:8.0;stroke:rgb(150,150,150);stroke-linecap:round;fill:none;" />
<line x1='1314.7' y1='2226.7' x2='1311.7' y2='2238.4' style="stroke-width:8.0;stroke:rgb(150,150,150);stroke-linecap:round;fill:none;" />
<line x1='1414.3' y1='2245.1' x2='1413.0' y2='2257.0' style="stroke-width:8.0;stroke:rgb(150,150,150);stroke-linecap:round;fill:none;" />
<text x="1425.5" y="2270.4" font-size="41.6px" font-family="CMUBright-Roman" style="text-anchor:end;fill:rgb(150,150,150);" transform="rotate(-83.4,1425.5,2270.4)" >2650 kb</text>
<path d="M1493.749,2049.964 A550.000,550.000 40.000 0,1 1282.957,994.637 L1204.032,810.868 A750.000,750.000 0.000 0,0 1491.476,2249.952 Z" style="stroke-width:2.0;stroke:rgb(0,0,0);stroke-linecap:round;fill:none;" />
</g>
<g id="track_0">
<path d="M 1997.265,1660.416 A 522.500,522.500 0.00 0,1 1954.6,1757.6 L 1954.6,1757.6 1934.6,1746.5 1914.2,1735.9 1893.4,1725.7 1872.3,1716.0 1850.8,1706.8 1829.0,1698.2 1807.0,1690.3 1784.8,1683.1 1762.3,1676.6 1739.7,1670.9 1717.0,1666.0 1694.1,1661.9 1671.2,1658.7 1648.3,1656.4 1625.3,1654.9 1602.4,1654.4 1579.4,1654.8 1556.6,1656.1 1533.8,1658.4 1511.2,1661.5 1488.7,1665.7 1466.4,1670.7 1444.3,1676.7 1422.3,1683.5 1400.7,1691.2 1379.3,1699.8 1358.1,1709.3 1337.3,1719.5 1316.8,1730.5 1296.7,1742.2 1276.9,1754.6 1257.5,1767.7 1238.5,1781.4 1220.0,1795.6 1201.9,1810.4 1184.2,1825.6 1167.1,1841.1 1150.4,1857.0 1134.2,1873.1  A 522.500,522.500 0.00 0,1 1066.4,1791.5 L 1066.4,1791.5 1086.4,1778.3 1106.8,1765.3 1127.7,1752.6 1148.9,1740.3 1170.6,1728.2 1192.5,1716.6 1214.9,1705.4 1237.5,1694.7 1260.5,1684.5 1283.7,1674.8 1307.3,1665.6 1331.0,1657.0 1355.1,1649.0 1379.3,1641.5 1403.8,1634.7 1428.4,1628.6 1453.2,1623.0 1478.1,1618.2 1503.2,1613.9 1528.4,1610.4 1553.6,1607.5 1579.0,1605.3 1604.3,1603.8 1629.7,1602.9 1655.1,1602.7 1680.4,1603.1 1705.7,1604.2 1731.0,1605.9 1756.1,1608.2 1781.2,1611.2 1806.1,1614.7 1830.8,1618.7 1855.3,1623.3 1879.7,1628.4 1903.8,1634.0 1927.6,1640.0 1951.1,1646.4 1974.4,1653.2 1997.3,1660.4  Z" style="stroke-width: 0.5;  stroke: rgb(0,0,0); fill: rgb(179,177,178);" />
<path d="M 1954.315,1758.078 A 522.500,522.500 0.00 0,1 1914.4,1818.2 L 1914.4,1818.2 1896.7,1805.0 1878.6,1792.1 1860.0,1779.7 1841.1,1767.7 1821.9,1756.4 1802.4,1745.7 1782.6,1735.8 1762.6,1726.6 1742.4,1718.3 1722.0,1710.8 1701.6,1704.2 1681.0,1698.6 1660.4,1694.0 1639.7,1690.4 1619.1,1687.9 1598.4,1686.4 1577.9,1686.0 1557.4,1686.7 1537.0,1688.4 1516.8,1691.3 1496.7,1695.2 1476.9,1700.3 1457.2,1706.4 1437.8,1713.5 1418.7,1721.7 1399.8,1730.9 1381.3,1741.1 1363.1,1752.2 1345.3,1764.2 1327.8,1777.0 1310.7,1790.6 1294.0,1805.0 1277.8,1820.1 1262.0,1835.7 1246.7,1852.0 1231.8,1868.7 1217.5,1885.8 1203.6,1903.2 1190.3,1920.8  A 522.500,522.500 0.00 0,1 1135.2,1874.1 L 1135.2,1874.1 1151.4,1858.0 1168.0,1842.0 1185.1,1826.4 1202.7,1811.2 1220.7,1796.5 1239.3,1782.2 1258.2,1768.5 1277.5,1755.3 1297.3,1742.9 1317.4,1731.1 1337.8,1720.1 1358.6,1709.8 1379.7,1700.4 1401.1,1691.8 1422.7,1684.0 1444.6,1677.1 1466.7,1671.2 1489.0,1666.1 1511.4,1662.0 1534.0,1658.8 1556.7,1656.5 1579.6,1655.2 1602.4,1654.8 1625.4,1655.3 1648.3,1656.7 1671.2,1659.1 1694.1,1662.3 1716.9,1666.4 1739.6,1671.3 1762.2,1677.0 1784.6,1683.5 1806.9,1690.7 1828.9,1698.7 1850.6,1707.2 1872.1,1716.4 1893.2,1726.1 1914.0,1736.4 1934.4,1747.0 1954.3,1758.1  Z" style="stroke-width: 0.5;  stroke: rgb(0,0,0); fill: rgb(179,177,178);" />
<path d="M 1892.511,1844.879 A 522.500,522.500 0.00 0,1 1845.9,1891.6 L 1845.9,1891.6 1831.7,1875.8 1817.0,1860.4 1802.0,1845.4 1786.6,1830.8 1771.0,1817.0 1755.1,1803.8 1738.9,1791.3 1722.6,1779.8 1706.2,1769.1 1689.6,1759.5 1672.9,1750.9 1656.2,1743.3 1639.5,1736.9 1622.7,1731.7 1606.0,1727.7 1589.4,1724.9 1572.9,1723.4 1556.5,1723.1 1540.2,1724.2 1524.1,1726.4 1508.2,1730.0 1492.5,1734.9 1477.1,1741.0 1461.9,1748.3 1447.0,1756.8 1432.4,1766.5 1418.1,1777.3 1404.2,1789.2 1390.6,1802.1 1377.4,1816.1 1364.5,1830.9 1352.1,1846.5 1340.1,1863.0 1328.5,1880.1 1317.4,1897.8 1306.7,1916.0 1296.5,1934.7 1286.7,1953.6 1277.4,1972.7  A 522.500,522.500 0.00 0,1 1219.4,1940.7 L 1219.4,1940.7 1231.3,1922.5 1243.7,1904.5 1256.7,1886.8 1270.1,1869.5 1284.0,1852.6 1298.4,1836.4 1313.2,1820.8 1328.5,1805.9 1344.2,1791.8 1360.3,1778.5 1376.7,1766.1 1393.5,1754.7 1410.7,1744.3 1428.1,1734.9 1445.9,1726.5 1463.9,1719.2 1482.2,1713.1 1500.7,1708.1 1519.4,1704.3 1538.3,1701.6 1557.4,1700.0 1576.6,1699.7 1595.8,1700.5 1615.2,1702.4 1634.6,1705.5 1654.0,1709.6 1673.4,1714.9 1692.7,1721.1 1711.9,1728.4 1731.1,1736.7 1750.1,1745.9 1768.9,1755.9 1787.5,1766.7 1805.8,1778.3 1823.9,1790.6 1841.6,1803.5 1859.0,1816.9 1876.0,1830.7 1892.5,1844.9  Z" style="stroke-width: 0.5;  stroke: rgb(0,0,0); fill: rgb(179,177,178);" />
<path d="M 2015.691,1584.075 A 522.500,522.500 0.00 0,1 2002.1,1644.7 L 2002.1,1644.7 1978.8,1638.2 1955.2,1632.0 1931.3,1626.2 1907.1,1620.8 1882.7,1615.8 1858.1,1611.3 1833.2,1607.3 1808.2,1603.8 1783.0,1600.8 1757.7,1598.3 1732.3,1596.4 1706.8,1595.1 1681.2,1594.4 1655.6,1594.3 1630.0,1594.8 1604.3,1595.9 1578.7,1597.6 1553.1,1600.0 1527.6,1603.0 1502.2,1606.6 1476.8,1610.8 1451.6,1615.7 1426.5,1621.1 1401.6,1627.2 1376.8,1633.9 1352.3,1641.1 1327.9,1649.0 1303.8,1657.3 1279.9,1666.2 1256.3,1675.6 1232.9,1685.5 1209.9,1695.9 1187.1,1706.7 1164.7,1717.9 1142.7,1729.5 1121.0,1741.4 1099.6,1753.6 1078.7,1766.1 1058.1,1778.8  A 522.500,522.500 0.00 0,1 1028.3,1724.6 L 1028.3,1724.6 1050.8,1714.1 1073.7,1703.7 1096.8,1693.5 1120.2,1683.6 1144.0,1674.0 1167.9,1664.7 1192.2,1655.7 1216.6,1647.0 1241.3,1638.6 1266.2,1630.6 1291.3,1623.0 1316.6,1615.8 1342.0,1609.0 1367.7,1602.6 1393.4,1596.6 1419.3,1591.1 1445.3,1586.0 1471.4,1581.4 1497.6,1577.2 1523.8,1573.4 1550.2,1570.1 1576.5,1567.3 1602.9,1565.0 1629.3,1563.0 1655.7,1561.6 1682.1,1560.6 1708.4,1560.0 1734.7,1559.9 1761.0,1560.2 1787.1,1560.9 1813.1,1562.0 1839.0,1563.6 1864.8,1565.5 1890.5,1567.8 1915.9,1570.4 1941.2,1573.4 1966.2,1576.6 1991.1,1580.2 2015.7,1584.1  Z" style="stroke-width: 0.5;  stroke: rgb(0,0,0); fill: rgb(179,177,178);" />
<path d="M 1999.829,1347.758 A 522.500,522.500 0.00 0,1 2012.2,1396.7 L 2012.2,1396.7 1986.0,1402.0 1959.7,1407.3 1933.5,1412.6 1907.2,1417.9 1881.0,1423.3 1854.7,1428.6 1828.5,1433.9 1802.2,1439.2 1775.9,1444.6 1749.7,1449.9 1723.4,1455.3 1697.2,1460.6 1670.9,1466.0 1644.6,1471.3 1618.4,1476.7 1592.1,1482.1 1565.8,1487.5 1539.6,1492.9 1513.3,1498.3 1487.1,1503.7 1460.8,1509.1 1434.6,1514.5 1408.3,1519.9 1382.1,1525.4 1355.8,1530.8 1329.6,1536.2 1303.3,1541.7 1277.1,1547.1 1250.8,1552.6 1224.6,1558.1 1198.4,1563.5 1172.1,1569.0 1145.9,1574.5 1119.7,1580.0 1093.5,1585.5 1067.3,1590.9 1041.1,1596.4 1014.9,1601.9 988.7,1607.4  A 522.500,522.500 0.00 0,1 980.7,1557.4 L 980.7,1557.4 1006.7,1554.5 1032.8,1551.4 1059.0,1548.3 1085.3,1545.0 1111.6,1541.6 1137.9,1538.1 1164.3,1534.5 1190.7,1530.7 1217.2,1526.8 1243.6,1522.8 1270.1,1518.6 1296.6,1514.3 1323.2,1509.9 1349.7,1505.3 1376.2,1500.5 1402.7,1495.7 1429.2,1490.7 1455.7,1485.5 1482.2,1480.2 1508.6,1474.8 1535.0,1469.2 1561.4,1463.5 1587.7,1457.6 1614.0,1451.6 1640.2,1445.5 1666.4,1439.3 1692.5,1432.9 1718.6,1426.4 1744.5,1419.7 1770.5,1413.0 1796.3,1406.1 1822.1,1399.2 1847.7,1392.1 1873.3,1384.9 1898.8,1377.7 1924.2,1370.3 1949.5,1362.9 1974.7,1355.4 1999.8,1347.8  Z" style="stroke-width: 0.5;  stroke: rgb(0,0,0); fill: rgb(179,177,178);" />
<path d="M 1844.650,1892.712 A 522.500,522.500 0.00 0,1 1808.4,1921.8 L 1808.4,1921.8 1795.9,1905.0 1783.0,1888.6 1769.7,1872.5 1756.2,1856.9 1742.4,1842.0 1728.4,1827.7 1714.2,1814.3 1699.9,1801.7 1685.4,1790.1 1670.8,1779.5 1656.2,1770.0 1641.6,1761.6 1626.9,1754.4 1612.3,1748.4 1597.8,1743.8 1583.3,1740.4 1568.9,1738.3 1554.7,1737.5 1540.6,1738.1 1526.7,1740.1 1513.0,1743.4 1499.5,1748.0 1486.3,1754.0 1473.3,1761.3 1460.6,1769.8 1448.2,1779.6 1436.1,1790.5 1424.3,1802.6 1412.9,1815.8 1401.8,1830.0 1391.1,1845.1 1380.8,1861.2 1370.9,1878.0 1361.4,1895.6 1352.2,1913.8 1343.5,1932.5 1335.2,1951.6 1327.4,1970.9 1320.0,1990.5  A 522.500,522.500 0.00 0,1 1277.4,1972.7 L 1277.4,1972.7 1286.7,1953.6 1296.5,1934.7 1306.7,1916.1 1317.4,1897.8 1328.5,1880.1 1340.1,1863.0 1352.1,1846.6 1364.5,1830.9 1377.3,1816.1 1390.5,1802.2 1404.1,1789.3 1418.0,1777.4 1432.2,1766.6 1446.8,1757.0 1461.7,1748.5 1476.9,1741.2 1492.3,1735.1 1507.9,1730.3 1523.8,1726.8 1539.9,1724.5 1556.1,1723.5 1572.5,1723.8 1589.0,1725.4 1605.5,1728.2 1622.2,1732.2 1638.9,1737.5 1655.6,1743.9 1672.2,1751.5 1688.9,1760.1 1705.4,1769.9 1721.8,1780.5 1738.0,1792.1 1754.1,1804.6 1770.0,1817.9 1785.6,1831.8 1800.9,1846.3 1815.8,1861.4 1830.5,1876.9 1844.6,1892.7  Z" style="stroke-width: 0.5;  stroke: rgb(0,0,0); fill: rgb(179,177,178);" />
<path d="M 1792.087,1933.233 A 522.500,522.500 0.00 0,1 1754.5,1956.3 L 1754.5,1956.3 1744.4,1938.4 1733.9,1920.8 1723.2,1903.6 1712.2,1886.8 1701.0,1870.6 1689.7,1855.2 1678.2,1840.5 1666.6,1826.8 1655.0,1814.0 1643.3,1802.3 1631.6,1791.7 1619.9,1782.3 1608.3,1774.2 1596.7,1767.3 1585.1,1761.8 1573.7,1757.6 1562.5,1754.8 1551.3,1753.5 1540.4,1753.5 1529.6,1755.0 1519.0,1757.9 1508.7,1762.2 1498.6,1768.0 1488.7,1775.1 1479.1,1783.5 1469.8,1793.2 1460.8,1804.2 1452.0,1816.4 1443.6,1829.8 1435.5,1844.2 1427.8,1859.6 1420.3,1876.0 1413.3,1893.2 1406.5,1911.1 1400.1,1929.7 1394.1,1948.8 1388.4,1968.3 1383.1,1988.1 1378.1,2008.1  A 522.500,522.500 0.00 0,1 1335.8,1996.0 L 1335.8,1996.0 1342.6,1976.4 1349.7,1956.8 1357.3,1937.6 1365.3,1918.8 1373.6,1900.5 1382.4,1882.8 1391.5,1865.9 1401.0,1849.7 1410.9,1834.5 1421.2,1820.2 1431.7,1807.0 1442.6,1794.9 1453.9,1783.9 1465.4,1774.2 1477.2,1765.7 1489.3,1758.5 1501.7,1752.6 1514.3,1748.1 1527.1,1744.9 1540.1,1743.1 1553.3,1742.7 1566.6,1743.7 1580.1,1746.0 1593.7,1749.7 1607.4,1754.6 1621.1,1760.9 1634.9,1768.4 1648.7,1777.1 1662.4,1787.0 1676.2,1798.0 1689.8,1810.0 1703.3,1822.9 1716.7,1836.8 1729.9,1851.4 1742.9,1866.8 1755.6,1882.8 1768.1,1899.2 1780.3,1916.1 1792.1,1933.2  Z" style="stroke-width: 0.5;  stroke: rgb(0,0,0); fill: rgb(179,177,178);" />
<path d="M 2022.219,1517.128 A 522.500,522.500 0.00 0,1 2019.0,1560.2 L 2019.0,1560.2 1994.0,1557.4 1968.8,1554.9 1943.3,1552.6 1917.7,1550.7 1892.0,1549.0 1866.1,1547.6 1840.0,1546.6 1813.9,1545.8 1787.6,1545.5 1761.2,1545.4 1734.8,1545.8 1708.3,1546.5 1681.8,1547.6 1655.2,1549.1 1628.7,1550.9 1602.1,1553.2 1575.5,1555.8 1549.0,1558.8 1522.5,1562.2 1496.0,1566.1 1469.6,1570.3 1443.3,1574.9 1417.1,1579.8 1390.9,1585.2 1364.9,1590.9 1339.0,1597.0 1313.3,1603.4 1287.7,1610.2 1262.2,1617.4 1237.0,1624.8 1211.9,1632.6 1187.0,1640.7 1162.3,1649.0 1137.8,1657.7 1113.6,1666.6 1089.6,1675.7 1065.8,1685.0 1042.3,1694.6 1019.1,1704.3  A 522.500,522.500 0.00 0,1 1003.7,1663.5 L 1003.7,1663.5 1028.2,1655.5 1052.8,1647.7 1077.6,1640.0 1102.6,1632.5 1127.7,1625.2 1153.0,1618.0 1178.5,1611.0 1204.1,1604.3 1229.8,1597.7 1255.7,1591.4 1281.7,1585.3 1307.8,1579.4 1334.0,1573.8 1360.3,1568.4 1386.7,1563.2 1413.1,1558.4 1439.7,1553.7 1466.2,1549.4 1492.9,1545.3 1519.6,1541.4 1546.3,1537.9 1573.0,1534.6 1599.8,1531.5 1626.6,1528.8 1653.3,1526.3 1680.1,1524.0 1706.8,1522.1 1733.5,1520.4 1760.1,1518.9 1786.8,1517.7 1813.3,1516.8 1839.8,1516.0 1866.2,1515.6 1892.5,1515.3 1918.7,1515.3 1944.7,1515.4 1970.7,1515.8 1996.5,1516.4 2022.2,1517.1  Z" style="stroke-width: 0.5;  stroke: rgb(0,0,0); fill: rgb(179,177,178);" />
<path d="M 1826.698,1092.232 A 522.500,522.500 0.00 0,1 1846.6,1109.0 L 1846.6,1109.0 1830.6,1126.8 1814.1,1144.5 1797.1,1161.9 1779.6,1179.2 1761.7,1196.2 1743.4,1212.9 1724.6,1229.2 1705.4,1245.2 1685.7,1260.8 1665.6,1275.9 1645.2,1290.6 1624.3,1304.8 1603.1,1318.4 1581.4,1331.6 1559.5,1344.1 1537.2,1356.1 1514.5,1367.5 1491.6,1378.3 1468.4,1388.5 1444.9,1398.0 1421.2,1406.9 1397.2,1415.1 1373.1,1422.7 1348.7,1429.7 1324.2,1436.0 1299.6,1441.6 1274.8,1446.6 1250.0,1451.0 1225.0,1454.7 1200.1,1457.9 1175.1,1460.4 1150.2,1462.3 1125.3,1463.7 1100.5,1464.5 1075.9,1464.8 1051.3,1464.6 1027.0,1463.9 1002.8,1462.7 978.9,1461.2  A 522.500,522.500 0.00 0,1 981.6,1434.9 L 981.6,1434.9 1005.1,1437.6 1028.8,1439.9 1052.8,1441.7 1077.0,1443.0 1101.3,1443.8 1125.8,1443.9 1150.4,1443.5 1175.0,1442.5 1199.6,1440.9 1224.2,1438.6 1248.8,1435.6 1273.3,1431.9 1297.7,1427.6 1322.0,1422.5 1346.1,1416.7 1370.1,1410.3 1393.8,1403.1 1417.3,1395.1 1440.6,1386.5 1463.6,1377.2 1486.3,1367.2 1508.7,1356.5 1530.7,1345.1 1552.4,1333.1 1573.8,1320.4 1594.7,1307.1 1615.3,1293.3 1635.4,1278.8 1655.1,1263.9 1674.4,1248.4 1693.2,1232.4 1711.6,1216.0 1729.5,1199.2 1746.9,1182.0 1763.9,1164.5 1780.3,1146.7 1796.3,1128.7 1811.7,1110.5 1826.7,1092.2  Z" style="stroke-width: 0.5;  stroke: rgb(0,0,0); fill: rgb(179,177,178);" />
<path d="M 1750.063,1958.775 A 522.500,522.500 0.00 0,1 1730.7,1968.8 L 1730.7,1968.8 1721.6,1950.5 1712.1,1932.5 1702.4,1914.8 1692.6,1897.6 1682.5,1881.0 1672.3,1865.1 1662.0,1850.0 1651.6,1835.8 1641.2,1822.6 1630.7,1810.5 1620.3,1799.5 1609.8,1789.7 1599.4,1781.1 1589.1,1773.9 1578.9,1768.1 1568.7,1763.6 1558.7,1760.5 1548.9,1758.9 1539.2,1758.7 1529.7,1759.9 1520.4,1762.7 1511.4,1766.8 1502.5,1772.4 1493.9,1779.4 1485.6,1787.7 1477.5,1797.4 1469.7,1808.3 1462.2,1820.5 1454.9,1833.8 1448.0,1848.3 1441.4,1863.8 1435.1,1880.2 1429.1,1897.4 1423.4,1915.4 1418.0,1934.1 1413.0,1953.3 1408.2,1972.9 1403.8,1992.8 1399.8,2012.8  A 522.500,522.500 0.00 0,1 1378.5,2008.2 L 1378.5,2008.2 1383.4,1988.2 1388.7,1968.4 1394.4,1948.9 1400.4,1929.8 1406.7,1911.3 1413.4,1893.4 1420.5,1876.2 1427.8,1859.8 1435.5,1844.4 1443.5,1830.0 1451.9,1816.7 1460.5,1804.6 1469.5,1793.6 1478.7,1783.9 1488.2,1775.5 1497.9,1768.5 1507.9,1762.8 1518.1,1758.6 1528.6,1755.7 1539.2,1754.3 1550.0,1754.3 1561.0,1755.8 1572.1,1758.6 1583.4,1762.9 1594.7,1768.5 1606.2,1775.4 1617.7,1783.7 1629.2,1793.2 1640.7,1803.8 1652.2,1815.6 1663.7,1828.5 1675.0,1842.3 1686.3,1857.1 1697.5,1872.6 1708.4,1888.9 1719.2,1905.8 1729.8,1923.1 1740.1,1940.8 1750.1,1958.8  Z" style="stroke-width: 0.5;  stroke: rgb(0,0,0); fill: rgb(179,177,178);" />
<path d="M 1994.730,1331.928 A 522.500,522.500 0.00 0,1 1999.8,1347.7 L 1999.8,1347.7 1974.7,1355.3 1949.5,1362.8 1924.3,1370.2 1898.9,1377.6 1873.4,1384.8 1847.8,1392.0 1822.1,1399.0 1796.3,1406.0 1770.5,1412.8 1744.6,1419.5 1718.6,1426.1 1692.5,1432.6 1666.4,1438.9 1640.2,1445.1 1614.0,1451.2 1587.7,1457.1 1561.3,1462.9 1534.9,1468.6 1508.5,1474.1 1482.1,1479.5 1455.6,1484.7 1429.1,1489.8 1402.6,1494.7 1376.0,1499.5 1349.5,1504.1 1323.0,1508.6 1296.4,1513.0 1269.9,1517.2 1243.4,1521.2 1216.9,1525.2 1190.5,1528.9 1164.0,1532.6 1137.6,1536.1 1111.3,1539.5 1085.0,1542.8 1058.7,1545.9 1032.5,1548.9 1006.4,1551.8 980.4,1554.6  A 522.500,522.500 0.00 0,1 978.9,1538.2 L 978.9,1538.2 1004.8,1536.2 1030.8,1534.1 1057.0,1531.8 1083.1,1529.4 1109.4,1526.9 1135.7,1524.1 1162.1,1521.2 1188.6,1518.1 1215.0,1514.8 1241.5,1511.4 1268.1,1507.7 1294.6,1503.9 1321.2,1499.9 1347.8,1495.7 1374.4,1491.3 1400.9,1486.7 1427.5,1481.9 1454.0,1476.9 1480.5,1471.7 1506.9,1466.3 1533.4,1460.8 1559.7,1455.0 1586.0,1449.1 1612.3,1442.9 1638.5,1436.6 1664.6,1430.2 1690.6,1423.5 1716.6,1416.7 1742.4,1409.7 1768.2,1402.5 1793.8,1395.2 1819.4,1387.7 1844.8,1380.1 1870.1,1372.4 1895.3,1364.5 1920.4,1356.5 1945.3,1348.4 1970.1,1340.2 1994.7,1331.9  Z" style="stroke-width: 0.5;  stroke: rgb(0,0,0); fill: rgb(179,177,178);" />
<path d="M 1846.703,1109.099 A 522.500,522.500 0.00 0,1 1858.6,1119.9 L 1858.6,1119.9 1841.9,1137.4 1824.7,1154.7 1807.1,1171.8 1789.0,1188.7 1770.6,1205.4 1751.6,1221.8 1732.3,1237.8 1712.6,1253.5 1692.4,1268.9 1671.9,1283.8 1651.0,1298.3 1629.7,1312.3 1608.0,1325.9 1586.0,1338.9 1563.7,1351.5 1541.1,1363.5 1518.1,1374.9 1494.9,1385.8 1471.4,1396.0 1447.7,1405.7 1423.7,1414.8 1399.5,1423.3 1375.1,1431.2 1350.5,1438.5 1325.8,1445.2 1301.0,1451.3 1276.0,1456.8 1251.0,1461.7 1225.9,1465.9 1200.8,1469.7 1175.7,1472.8 1150.6,1475.4 1125.5,1477.5 1100.6,1479.0 1075.7,1480.0 1051.0,1480.6 1026.4,1480.7 1002.0,1480.4 977.9,1479.6  A 522.500,522.500 0.00 0,1 978.8,1463.7 L 978.8,1463.7 1002.7,1465.2 1026.8,1466.2 1051.2,1466.8 1075.8,1466.9 1100.5,1466.5 1125.3,1465.6 1150.1,1464.1 1175.1,1462.1 1200.0,1459.4 1225.0,1456.2 1249.9,1452.4 1274.8,1447.9 1299.5,1442.8 1324.2,1437.1 1348.7,1430.7 1373.1,1423.7 1397.2,1416.0 1421.2,1407.7 1444.9,1398.7 1468.4,1389.1 1491.6,1378.9 1514.5,1368.0 1537.2,1356.6 1559.5,1344.6 1581.4,1332.0 1603.0,1318.8 1624.3,1305.1 1645.2,1290.9 1665.6,1276.2 1685.7,1261.0 1705.4,1245.4 1724.6,1229.4 1743.4,1213.0 1761.8,1196.3 1779.7,1179.3 1797.1,1162.0 1814.1,1144.5 1830.6,1126.9 1846.7,1109.1  Z" style="stroke-width: 0.5;  stroke: rgb(0,0,0); fill: rgb(179,177,178);" />
<path d="M 2022.459,1493.421 A 522.500,522.500 0.00 0,1 2022.4,1509.3 L 2022.4,1509.3 1996.6,1509.0 1970.7,1508.8 1944.7,1508.7 1918.6,1508.9 1892.3,1509.3 1866.0,1509.8 1839.5,1510.6 1813.0,1511.6 1786.5,1512.8 1759.8,1514.3 1733.2,1515.9 1706.5,1517.9 1679.7,1520.0 1653.0,1522.4 1626.2,1525.1 1599.4,1528.0 1572.7,1531.1 1545.9,1534.5 1519.2,1538.1 1492.5,1542.0 1465.8,1546.1 1439.2,1550.5 1412.7,1555.1 1386.2,1560.0 1359.8,1565.1 1333.4,1570.4 1307.2,1576.0 1281.1,1581.7 1255.0,1587.7 1229.1,1593.9 1203.3,1600.3 1177.6,1606.9 1152.0,1613.7 1126.6,1620.7 1101.4,1627.8 1076.2,1635.1 1051.3,1642.6 1026.5,1650.2 1001.9,1657.9  A 522.500,522.500 0.00 0,1 997.3,1642.5 L 997.3,1642.5 1022.3,1635.5 1047.5,1628.6 1072.8,1621.8 1098.2,1615.1 1123.7,1608.6 1149.4,1602.2 1175.2,1595.9 1201.1,1589.8 1227.1,1583.9 1253.2,1578.1 1279.4,1572.5 1305.6,1567.1 1332.0,1561.9 1358.4,1556.8 1384.9,1551.9 1411.4,1547.2 1438.0,1542.8 1464.7,1538.5 1491.4,1534.4 1518.1,1530.5 1544.8,1526.8 1571.6,1523.3 1598.4,1520.1 1625.1,1517.0 1651.9,1514.1 1678.7,1511.4 1705.4,1508.9 1732.2,1506.7 1758.9,1504.6 1785.5,1502.7 1812.1,1501.0 1838.7,1499.4 1865.2,1498.1 1891.6,1496.9 1918.0,1495.9 1944.2,1495.0 1970.4,1494.4 1996.5,1493.8 2022.5,1493.4  Z" style="stroke-width: 0.5;  stroke: rgb(0,0,0); fill: rgb(179,177,178);" />
<path d="M 2014.456,1408.671 A 522.500,522.500 0.00 0,1 2016.9,1424.0 L 2016.9,1424.0 1990.7,1427.9 1964.5,1431.8 1938.2,1435.8 1911.8,1439.9 1885.5,1444.0 1859.1,1448.2 1832.7,1452.4 1806.3,1456.7 1779.9,1461.1 1753.5,1465.5 1727.0,1470.0 1700.5,1474.5 1674.1,1479.2 1647.6,1483.9 1621.2,1488.6 1594.7,1493.5 1568.2,1498.4 1541.8,1503.4 1515.3,1508.4 1488.9,1513.6 1462.5,1518.7 1436.1,1524.0 1409.7,1529.3 1383.4,1534.7 1357.0,1540.2 1330.7,1545.7 1304.5,1551.3 1278.2,1556.9 1252.0,1562.6 1225.8,1568.4 1199.7,1574.2 1173.6,1580.1 1147.5,1586.0 1121.5,1592.0 1095.5,1598.0 1069.6,1604.1 1043.7,1610.2 1017.9,1616.4 992.1,1622.6  A 522.500,522.500 0.00 0,1 988.7,1607.5 L 988.7,1607.5 1014.8,1602.0 1041.0,1596.6 1067.1,1591.1 1093.3,1585.7 1119.5,1580.2 1145.7,1574.8 1171.9,1569.4 1198.2,1564.1 1224.4,1558.7 1250.7,1553.4 1277.0,1548.1 1303.3,1542.8 1329.6,1537.5 1355.9,1532.3 1382.2,1527.0 1408.5,1521.8 1434.9,1516.6 1461.2,1511.5 1487.6,1506.4 1513.9,1501.2 1540.3,1496.2 1566.6,1491.1 1593.0,1486.1 1619.4,1481.1 1645.7,1476.1 1672.1,1471.1 1698.5,1466.2 1724.8,1461.2 1751.2,1456.4 1777.5,1451.5 1803.9,1446.6 1830.2,1441.8 1856.6,1437.0 1882.9,1432.2 1909.2,1427.5 1935.6,1422.8 1961.9,1418.0 1988.2,1413.3 2014.5,1408.7  Z" style="stroke-width: 0.5;  stroke: rgb(0,0,0); fill: rgb(179,177,178);" />
<path d="M 1903.175,1832.349 A 522.500,522.500 0.00 0,1 1893.3,1843.9 L 1893.3,1843.9 1876.8,1829.8 1859.8,1816.0 1842.3,1802.6 1824.6,1789.8 1806.5,1777.6 1788.1,1766.0 1769.5,1755.2 1750.6,1745.2 1731.6,1736.1 1712.4,1727.9 1693.1,1720.6 1673.8,1714.4 1654.4,1709.2 1634.9,1705.0 1615.5,1702.0 1596.1,1700.1 1576.8,1699.3 1557.6,1699.7 1538.6,1701.3 1519.6,1704.0 1500.9,1707.9 1482.4,1712.9 1464.1,1719.1 1446.0,1726.3 1428.2,1734.7 1410.7,1744.1 1393.6,1754.6 1376.8,1766.0 1360.3,1778.4 1344.2,1791.7 1328.5,1805.8 1313.3,1820.7 1298.4,1836.3 1284.0,1852.6 1270.1,1869.4 1256.7,1886.7 1243.7,1904.5 1231.3,1922.5 1219.3,1940.7  A 522.500,522.500 0.00 0,1 1206.4,1932.2 L 1206.4,1932.2 1218.9,1914.2 1232.0,1896.4 1245.6,1879.0 1259.6,1861.9 1274.2,1845.3 1289.2,1829.3 1304.7,1814.0 1320.6,1799.3 1336.9,1785.4 1353.6,1772.3 1370.7,1760.0 1388.1,1748.7 1405.9,1738.4 1424.0,1729.0 1442.4,1720.7 1461.1,1713.5 1480.0,1707.4 1499.1,1702.3 1518.5,1698.4 1538.0,1695.6 1557.7,1693.9 1577.4,1693.4 1597.3,1694.0 1617.3,1695.7 1637.3,1698.5 1657.2,1702.4 1677.2,1707.3 1697.1,1713.2 1717.0,1720.2 1736.7,1728.1 1756.3,1736.8 1775.6,1746.5 1794.8,1756.9 1813.7,1768.0 1832.3,1779.9 1850.6,1792.3 1868.6,1805.2 1886.1,1818.6 1903.2,1832.3  Z" style="stroke-width: 0.5;  stroke: rgb(0,0,0); fill: rgb(179,177,178);" />
<path d="M 2018.329,1565.889 A 522.500,522.500 0.00 0,1 2016.2,1580.9 L 2016.2,1580.9 1991.5,1577.2 1966.6,1573.7 1941.5,1570.6 1916.2,1567.7 1890.7,1565.2 1865.0,1563.1 1839.2,1561.3 1813.3,1559.9 1787.2,1558.8 1761.0,1558.2 1734.8,1558.0 1708.4,1558.2 1682.1,1558.8 1655.7,1559.9 1629.2,1561.4 1602.8,1563.3 1576.4,1565.7 1550.0,1568.6 1523.7,1571.9 1497.4,1575.6 1471.1,1579.8 1445.0,1584.5 1419.0,1589.5 1393.0,1595.0 1367.2,1601.0 1341.6,1607.3 1316.1,1614.1 1290.8,1621.2 1265.6,1628.8 1240.7,1636.7 1215.9,1644.9 1191.4,1653.5 1167.1,1662.5 1143.0,1671.7 1119.3,1681.2 1095.7,1691.0 1072.5,1701.1 1049.5,1711.3 1026.9,1721.8  A 522.500,522.500 0.00 0,1 1020.8,1708.3 L 1020.8,1708.3 1043.9,1698.4 1067.3,1688.7 1090.9,1679.2 1114.8,1669.9 1138.9,1660.9 1163.3,1652.1 1187.9,1643.7 1212.7,1635.5 1237.7,1627.6 1262.9,1620.0 1288.3,1612.8 1313.9,1606.0 1339.6,1599.5 1365.4,1593.3 1391.4,1587.6 1417.5,1582.2 1443.7,1577.2 1469.9,1572.7 1496.3,1568.5 1522.7,1564.7 1549.2,1561.3 1575.7,1558.4 1602.2,1555.8 1628.8,1553.7 1655.3,1551.9 1681.9,1550.6 1708.4,1549.6 1734.8,1549.1 1761.2,1548.9 1787.5,1549.1 1813.7,1549.7 1839.8,1550.6 1865.8,1551.8 1891.7,1553.4 1917.4,1555.4 1942.9,1557.6 1968.2,1560.1 1993.4,1562.9 2018.3,1565.9  Z" style="stroke-width: 0.5;  stroke: rgb(0,0,0); fill: rgb(179,177,178);" />
<path d="M 1804.620,1924.515 A 522.500,522.500 0.00 0,1 1792.2,1933.2 L 1792.2,1933.2 1780.4,1916.0 1768.2,1899.2 1755.7,1882.7 1743.0,1866.7 1730.0,1851.4 1716.8,1836.7 1703.4,1822.9 1689.8,1809.9 1676.2,1797.9 1662.4,1786.9 1648.6,1777.0 1634.8,1768.3 1621.0,1760.8 1607.3,1754.5 1593.6,1749.5 1579.9,1745.9 1566.4,1743.6 1553.1,1742.6 1539.8,1743.0 1526.8,1744.8 1513.9,1747.9 1501.3,1752.5 1488.9,1758.3 1476.8,1765.5 1464.9,1774.0 1453.3,1783.7 1442.0,1794.6 1431.1,1806.7 1420.4,1820.0 1410.2,1834.2 1400.2,1849.4 1390.7,1865.6 1381.5,1882.5 1372.7,1900.2 1364.2,1918.4 1356.2,1937.2 1348.6,1956.5 1341.4,1976.0 1334.6,1995.6  A 522.500,522.500 0.00 0,1 1320.3,1990.6 L 1320.3,1990.6 1327.7,1971.1 1335.5,1951.7 1343.8,1932.6 1352.4,1913.9 1361.5,1895.8 1371.0,1878.2 1380.9,1861.4 1391.2,1845.4 1401.8,1830.3 1412.8,1816.1 1424.2,1802.9 1435.9,1790.9 1447.9,1780.0 1460.2,1770.3 1472.8,1761.8 1485.7,1754.6 1498.9,1748.7 1512.3,1744.1 1525.9,1740.9 1539.6,1739.0 1553.6,1738.5 1567.7,1739.3 1582.0,1741.4 1596.3,1744.9 1610.7,1749.7 1625.2,1755.8 1639.7,1763.1 1654.2,1771.5 1668.7,1781.2 1683.1,1791.9 1697.4,1803.6 1711.6,1816.3 1725.6,1829.8 1739.5,1844.2 1753.1,1859.2 1766.4,1874.9 1779.5,1891.1 1792.3,1907.7 1804.6,1924.5  Z" style="stroke-width: 0.5;  stroke: rgb(0,0,0); fill: rgb(179,177,178);" />
<path d="M 2001.860,1645.405 A 522.500,522.500 0.00 0,1 1997.8,1658.9 L 1997.8,1658.9 1974.8,1651.8 1951.6,1645.0 1928.0,1638.6 1904.1,1632.7 1880.0,1627.2 1855.7,1622.2 1831.1,1617.6 1806.3,1613.6 1781.4,1610.2 1756.4,1607.4 1731.2,1605.1 1705.9,1603.4 1680.6,1602.4 1655.2,1602.0 1629.8,1602.3 1604.5,1603.2 1579.1,1604.8 1553.8,1607.0 1528.5,1609.9 1503.3,1613.5 1478.2,1617.8 1453.3,1622.7 1428.5,1628.2 1403.8,1634.4 1379.4,1641.3 1355.1,1648.7 1331.1,1656.8 1307.3,1665.4 1283.7,1674.6 1260.5,1684.3 1237.5,1694.6 1214.9,1705.3 1192.5,1716.5 1170.5,1728.1 1148.9,1740.1 1127.6,1752.5 1106.8,1765.2 1086.3,1778.2 1066.3,1791.4  A 522.500,522.500 0.00 0,1 1058.6,1779.6 L 1058.6,1779.6 1079.1,1766.8 1100.0,1754.3 1121.3,1742.0 1143.0,1730.1 1165.1,1718.5 1187.4,1707.3 1210.2,1696.4 1233.2,1686.1 1256.5,1676.1 1280.1,1666.7 1304.0,1657.8 1328.1,1649.4 1352.4,1641.6 1377.0,1634.3 1401.7,1627.6 1426.6,1621.5 1451.7,1616.1 1476.9,1611.2 1502.2,1606.9 1527.7,1603.3 1553.2,1600.3 1578.7,1598.0 1604.3,1596.3 1630.0,1595.2 1655.6,1594.7 1681.2,1594.8 1706.8,1595.5 1732.2,1596.9 1757.7,1598.8 1782.9,1601.3 1808.1,1604.3 1833.1,1607.8 1857.9,1611.9 1882.6,1616.4 1907.0,1621.4 1931.1,1626.8 1955.0,1632.7 1978.6,1638.9 2001.9,1645.4  Z" style="stroke-width: 0.5;  stroke: rgb(0,0,0); fill: rgb(179,177,178);" />
<path d="M 1911.706,1821.721 A 522.500,522.500 0.00 0,1 1903.3,1832.2 L 1903.3,1832.2 1886.2,1818.5 1868.7,1805.1 1850.7,1792.1 1832.4,1779.7 1813.8,1767.9 1794.9,1756.7 1775.7,1746.3 1756.3,1736.7 1736.7,1727.9 1717.0,1720.0 1697.1,1713.1 1677.2,1707.1 1657.2,1702.2 1637.2,1698.3 1617.2,1695.5 1597.2,1693.8 1577.3,1693.2 1557.5,1693.7 1537.8,1695.4 1518.2,1698.2 1498.9,1702.1 1479.7,1707.1 1460.8,1713.2 1442.1,1720.4 1423.6,1728.7 1405.5,1738.0 1387.7,1748.4 1370.2,1759.6 1353.1,1771.9 1336.3,1784.9 1320.0,1798.8 1304.0,1813.5 1288.5,1828.8 1273.5,1844.8 1258.9,1861.4 1244.8,1878.4 1231.1,1895.8 1218.0,1913.6 1205.4,1931.6  A 522.500,522.500 0.00 0,1 1194.4,1923.8 L 1194.4,1923.8 1207.5,1906.1 1221.2,1888.6 1235.3,1871.4 1250.0,1854.6 1265.1,1838.3 1280.7,1822.5 1296.7,1807.3 1313.2,1792.9 1330.1,1779.2 1347.4,1766.3 1365.0,1754.2 1383.1,1743.1 1401.4,1732.8 1420.1,1723.6 1439.0,1715.4 1458.2,1708.2 1477.7,1702.1 1497.4,1697.0 1517.3,1693.1 1537.3,1690.2 1557.5,1688.5 1577.8,1687.8 1598.2,1688.3 1618.7,1689.8 1639.2,1692.4 1659.6,1696.1 1680.1,1700.8 1700.5,1706.5 1720.8,1713.1 1741.0,1720.7 1761.1,1729.1 1780.9,1738.4 1800.6,1748.5 1820.0,1759.3 1839.0,1770.7 1857.8,1782.8 1876.2,1795.3 1894.2,1808.3 1911.7,1821.7  Z" style="stroke-width: 0.5;  stroke: rgb(0,0,0); fill: rgb(179,177,178);" />
<path d="M 1990.947,1321.178 A 522.500,522.500 0.00 0,1 1993.6,1328.5 L 1993.6,1328.5 1969.0,1337.0 1944.4,1345.3 1919.5,1353.5 1894.6,1361.6 1869.4,1369.6 1844.2,1377.5 1818.8,1385.2 1793.3,1392.7 1767.7,1400.1 1742.0,1407.3 1716.2,1414.3 1690.2,1421.2 1664.2,1427.9 1638.1,1434.3 1611.9,1440.6 1585.7,1446.7 1559.4,1452.6 1533.0,1458.3 1506.5,1463.8 1480.1,1469.1 1453.6,1474.2 1427.0,1479.0 1400.4,1483.7 1373.9,1488.1 1347.3,1492.4 1320.7,1496.4 1294.1,1500.2 1267.5,1503.8 1241.0,1507.2 1214.4,1510.5 1188.0,1513.5 1161.5,1516.3 1135.1,1518.9 1108.8,1521.4 1082.6,1523.6 1056.4,1525.7 1030.3,1527.7 1004.3,1529.4 978.4,1531.0  A 522.500,522.500 0.00 0,1 978.0,1523.2 L 978.0,1523.2 1003.8,1522.0 1029.8,1520.6 1055.8,1519.0 1081.9,1517.3 1108.1,1515.3 1134.4,1513.2 1160.8,1510.8 1187.2,1508.3 1213.7,1505.5 1240.2,1502.5 1266.8,1499.3 1293.4,1495.9 1319.9,1492.2 1346.5,1488.3 1373.1,1484.2 1399.7,1479.9 1426.3,1475.3 1452.8,1470.5 1479.3,1465.4 1505.8,1460.1 1532.2,1454.6 1558.6,1448.9 1584.9,1442.9 1611.1,1436.7 1637.2,1430.3 1663.3,1423.7 1689.2,1416.9 1715.1,1409.9 1740.9,1402.7 1766.5,1395.2 1792.0,1387.6 1817.4,1379.9 1842.6,1371.9 1867.7,1363.8 1892.7,1355.5 1917.5,1347.1 1942.2,1338.6 1966.6,1329.9 1990.9,1321.2  Z" style="stroke-width: 0.5;  stroke: rgb(0,0,0); fill: rgb(179,177,178);" />
</g>
<g id="plot0">
<g id="plot0-axis">
</g>
<line x1='2243.7' y1='1597.4' x2='2243.7' y2='1597.4' style="stroke-width:14.0;stroke:rgb(0,0,0);stroke-linecap:round;fill:none;" />
<line x1='2243.7' y1='1597.4' x2='2283.3' y2='1602.5' style="stroke-width:14.0;stroke:rgb(0,0,0);stroke-linecap:round;fill:none;" />
<line x1='2283.3' y1='1602.5' x2='2283.3' y2='1602.5' style="stroke-width:14.0;stroke:rgb(0,0,0);stroke-linecap:round;fill:none;" />
<text x="2299.9" y="1627.4" font-size="46.8px" font-family="CMUBright-Roman" style="text-anchor:start;fill:rgb(255,38,78);" transform="rotate(7.5,2299.9,1627.4)" >HistocapWGSS16<tspan baseline-shift="-40%" font-size="90%">s</tspan>01552</text>
</g>
<defs>
<pattern id="hline" width="10" height="10" patternTransform="rotate(0 0 0)" patternUnits="userSpaceOnUse"><line x1="0" y1="0" x2="10" y2="0" style="stroke:black;stroke-width:5" /></pattern>
<pattern id="vline" width="10" height="10" patternTransform="rotate(0 0 0)" patternUnits="userSpaceOnUse"><line x1="0" y1="0" x2="0" y2="10" style="stroke:black;stroke-width:5" /></pattern>
<pattern id="checker" width="10" height="10" patternTransform="rotate(45 0 0)" patternUnits="userSpaceOnUse"><line x1="0" y1="0" x2="10" y2="0" style="stroke:black;stroke-width:2" /><line x1="0" y1="0" x2="0" y2="10" style="stroke:black;stroke-width:2" /></pattern>
<pattern id="hline-sparse" width="10" height="10" patternTransform="rotate(0 0 0)" patternUnits="userSpaceOnUse"><line x1="0" y1="0" x2="10" y2="0" style="stroke:black;stroke-width:2" /></pattern>
<pattern id="vline-sparse" width="10" height="10" patternTransform="rotate(0 0 0)" patternUnits="userSpaceOnUse"><line x1="0" y1="0" x2="0" y2="10" style="stroke:black;stroke-width:2" /></pattern>
<pattern id="checker" width="10" height="10" patternTransform="rotate(45 0 0)" patternUnits="userSpaceOnUse"><line x1="0" y1="0" x2="10" y2="0" style="stroke:black;stroke-width:5" /><line x1="0" y1="0" x2="0" y2="10" style="stroke:black;stroke-width:4" /></pattern>
</defs>
</svg>
