<?xml version="1.0" encoding="utf-8" standalone="no"?>
<!DOCTYPE svg PUBLIC "-//W3C//DTD SVG 1.1//EN" "http://www.w3.org/Graphics/SVG/1.1/DTD/svg11.dtd">
<svg width="3000px" height="3000px" version="1.1" xmlns="http://www.w3.org/2000/svg" xmlns:xlink="http://www.w3.org/1999/xlink">
<g id="bg">
<rect x="0" y="0" width="3000px" height="3000px" style="fill:rgb(255,255,255);"/>
</g>
<g id="ideograms">
<path d="M1500.000,950.000 A550.000,550.000 40.000 0,1 1704.030,2010.756 L1778.223,2196.485 A750.000,750.000 0.000 0,0 1500.000,750.000 Z" style="stroke-width:2.0;stroke:rgb(0,0,0);stroke-linecap:round;fill:rgb(179,177,178);" />
<text x="2457.4" y="1315.8" font-size="46.8px" font-family="CMUBright-Roman" style="text-anchor:middle;fill:rgb(0,0,0);" transform="rotate(439.1,2457.4,1315.8)" >HistomissSECH89<tspan baseline-shift="-40%" font-size="90%">2</tspan></text>
<line x1='1504.1' y1='750.0' x2='1504.2' y2='738.0' style="stroke-width:8.0;stroke:rgb(150,150,150);stroke-linecap:round;fill:none;" />
<line x1='1605.3' y1='757.4' x2='1607.0' y2='745.5' style="stroke-width:8.0;stroke:rgb(150,150,150);stroke-linecap:round;fill:none;" />
<line x1='1704.6' y1='778.4' x2='1707.9' y2='766.9' style="stroke-width:8.0;stroke:rgb(150,150,150);stroke-linecap:round;fill:none;" />
<text x="1724.6" y="759.3" font-size="41.6px" font-family="CMUBright-Roman" style="text-anchor:start;fill:rgb(150,150,150);" transform="rotate(285.8,1724.6,759.3)" >2400 kb</text>
<line x1='1800.1' y1='812.7' x2='1804.9' y2='801.7' style="stroke-width:8.0;stroke:rgb(150,150,150);stroke-linecap:round;fill:none;" />
<line x1='1890.1' y1='859.5' x2='1896.4' y2='849.2' style="stroke-width:8.0;stroke:rgb(150,150,150);stroke-linecap:round;fill:none;" />
<line x1='1973.0' y1='918.0' x2='1980.6' y2='908.7' style="stroke-width:8.0;stroke:rgb(150,150,150);stroke-linecap:round;fill:none;" />
<line x1='2047.3' y1='987.2' x2='2056.0' y2='979.0' style="stroke-width:8.0;stroke:rgb(150,150,150);stroke-linecap:round;fill:none;" />
<line x1='2111.5' y1='1065.7' x2='2121.3' y2='1058.8' style="stroke-width:8.0;stroke:rgb(150,150,150);stroke-linecap:round;fill:none;" />
<text x="2139.0" y="1063.3" font-size="41.6px" font-family="CMUBright-Roman" style="text-anchor:start;fill:rgb(150,150,150);" transform="rotate(324.6,2139.0,1063.3)" >2450 kb</text>
<line x1='2164.5' y1='1152.2' x2='2175.1' y2='1146.7' style="stroke-width:8.0;stroke:rgb(150,150,150);stroke-linecap:round;fill:none;" />
<line x1='2205.4' y1='1245.1' x2='2216.6' y2='1241.0' style="stroke-width:8.0;stroke:rgb(150,150,150);stroke-linecap:round;fill:none;" />
<line x1='2233.3' y1='1342.7' x2='2245.0' y2='1340.1' style="stroke-width:8.0;stroke:rgb(150,150,150);stroke-linecap:round;fill:none;" />
<line x1='2247.8' y1='1443.1' x2='2259.8' y2='1442.2' style="stroke-width:8.0;stroke:rgb(150,150,150);stroke-linecap:round;fill:none;" />
<line x1='2248.7' y1='1544.5' x2='2260.7' y2='1545.3' style="stroke-width:8.0;stroke:rgb(150,150,150);stroke-linecap:round;fill:none;" />
<text x="2271.7" y="1559.9" font-size="41.6px" font-family="CMUBright-Roman" style="text-anchor:start;fill:rgb(150,150,150);" transform="rotate(3.4,2271.7,1559.9)" >2500 kb</text>
<line x1='2235.8' y1='1645.2' x2='2247.6' y2='1647.5' style="stroke-width:8.0;stroke:rgb(150,150,150);stroke-linecap:round;fill:none;" />
<line x1='2209.5' y1='1743.2' x2='2220.8' y2='1747.1' style="stroke-width:8.0;stroke:rgb(150,150,150);stroke-linecap:round;fill:none;" />
<line x1='2170.2' y1='1836.7' x2='2180.9' y2='1842.1' style="stroke-width:8.0;stroke:rgb(150,150,150);stroke-linecap:round;fill:none;" />
<line x1='2118.6' y1='1924.1' x2='2128.5' y2='1930.9' style="stroke-width:8.0;stroke:rgb(150,150,150);stroke-linecap:round;fill:none;" />
<line x1='2055.7' y1='2003.7' x2='2064.6' y2='2011.8' style="stroke-width:8.0;stroke:rgb(150,150,150);stroke-linecap:round;fill:none;" />
<text x="2064.0" y="2030.1" font-size="41.6px" font-family="CMUBright-Roman" style="text-anchor:start;fill:rgb(150,150,150);" transform="rotate(42.2,2064.0,2030.1)" >2550 kb</text>
<line x1='1982.6' y1='2074.1' x2='1990.3' y2='2083.3' style="stroke-width:8.0;stroke:rgb(150,150,150);stroke-linecap:round;fill:none;" />
<line x1='1900.7' y1='2134.0' x2='1907.1' y2='2144.1' style="stroke-width:8.0;stroke:rgb(150,150,150);stroke-linecap:round;fill:none;" />
<line x1='1811.4' y1='2182.3' x2='1816.4' y2='2193.2' style="stroke-width:8.0;stroke:rgb(150,150,150);stroke-linecap:round;fill:none;" />
<g id="highlighttrack_0">
<path d="M2037.120,1381.668 A550.000,550.000 40.000 0,1 2042.692,1410.637 L2240.034,1378.141 A750.000,750.000 0.000 0,0 2232.436,1338.638 Z" style="stroke-width:14.0;stroke:rgb(0,0,0);stroke-linecap:round;fill:rgb(255,38,78);" />
</g>
<path d="M1500.000,950.000 A550.000,550.000 40.000 0,1 1704.030,2010.756 L1778.223,2196.485 A750.000,750.000 0.000 0,0 1500.000,750.000 Z" style="stroke-width:2.0;stroke:rgb(0,0,0);stroke-linecap:round;fill:none;" />
<path d="M1485.626,2049.812 A550.000,550.000 40.000 0,1 1282.691,994.751 L1203.669,811.024 A750.000,750.000 0.000 0,0 1480.399,2249.744 Z" style="stroke-width:2.0;stroke:rgb(0,0,0);stroke-linecap:round;fill:rgb(179,177,178);" />
<text x="498.4" y="1692.7" font-size="46.8px" font-family="CMUBright-Roman" style="text-anchor:middle;fill:rgb(0,0,0);" transform="rotate(79.1,498.4,1692.7)" >HistomissSECH81<tspan baseline-shift="-40%" font-size="90%">2</tspan></text>
<line x1='1202.3' y1='811.6' x2='1197.5' y2='800.6' style="stroke-width:8.0;stroke:rgb(150,150,150);stroke-linecap:round;fill:none;" />
<line x1='1112.1' y1='858.1' x2='1105.9' y2='847.8' style="stroke-width:8.0;stroke:rgb(150,150,150);stroke-linecap:round;fill:none;" />
<line x1='1029.0' y1='916.3' x2='1021.5' y2='907.0' style="stroke-width:8.0;stroke:rgb(150,150,150);stroke-linecap:round;fill:none;" />
<text x="1003.1" y="906.5" font-size="41.6px" font-family="CMUBright-Roman" style="text-anchor:end;fill:rgb(150,150,150);" transform="rotate(51.1,1003.1,906.5)" >2350 kb</text>
<line x1='954.5' y1='985.2' x2='945.8' y2='977.0' style="stroke-width:8.0;stroke:rgb(150,150,150);stroke-linecap:round;fill:none;" />
<line x1='890.1' y1='1063.6' x2='880.3' y2='1056.6' style="stroke-width:8.0;stroke:rgb(150,150,150);stroke-linecap:round;fill:none;" />
<line x1='836.7' y1='1149.9' x2='826.1' y2='1144.3' style="stroke-width:8.0;stroke:rgb(150,150,150);stroke-linecap:round;fill:none;" />
<line x1='795.5' y1='1242.6' x2='784.3' y2='1238.5' style="stroke-width:8.0;stroke:rgb(150,150,150);stroke-linecap:round;fill:none;" />
<line x1='767.2' y1='1340.1' x2='755.5' y2='1337.5' style="stroke-width:8.0;stroke:rgb(150,150,150);stroke-linecap:round;fill:none;" />
<text x="740.9" y="1348.7" font-size="41.6px" font-family="CMUBright-Roman" style="text-anchor:end;fill:rgb(150,150,150);" transform="rotate(12.3,740.9,1348.7)" >2400 kb</text>
<line x1='752.4' y1='1440.5' x2='740.4' y2='1439.5' style="stroke-width:8.0;stroke:rgb(150,150,150);stroke-linecap:round;fill:none;" />
<line x1='751.2' y1='1541.9' x2='739.2' y2='1542.6' style="stroke-width:8.0;stroke:rgb(150,150,150);stroke-linecap:round;fill:none;" />
<line x1='763.7' y1='1642.6' x2='751.9' y2='1644.9' style="stroke-width:8.0;stroke:rgb(150,150,150);stroke-linecap:round;fill:none;" />
<line x1='789.7' y1='1740.7' x2='778.3' y2='1744.5' style="stroke-width:8.0;stroke:rgb(150,150,150);stroke-linecap:round;fill:none;" />
<line x1='828.7' y1='1834.4' x2='817.9' y2='1839.7' style="stroke-width:8.0;stroke:rgb(150,150,150);stroke-linecap:round;fill:none;" />
<text x="813.5" y="1857.6" font-size="41.6px" font-family="CMUBright-Roman" style="text-anchor:end;fill:rgb(150,150,150);" transform="rotate(-26.5,813.5,1857.6)" >2450 kb</text>
<line x1='879.9' y1='1921.9' x2='870.0' y2='1928.7' style="stroke-width:8.0;stroke:rgb(150,150,150);stroke-linecap:round;fill:none;" />
<line x1='942.6' y1='2001.8' x2='933.7' y2='2009.8' style="stroke-width:8.0;stroke:rgb(150,150,150);stroke-linecap:round;fill:none;" />
<line x1='1015.4' y1='2072.4' x2='1007.6' y2='2081.6' style="stroke-width:8.0;stroke:rgb(150,150,150);stroke-linecap:round;fill:none;" />
<line x1='1097.1' y1='2132.6' x2='1090.7' y2='2142.7' style="stroke-width:8.0;stroke:rgb(150,150,150);stroke-linecap:round;fill:none;" />
<line x1='1186.2' y1='2181.2' x2='1181.2' y2='2192.1' style="stroke-width:8.0;stroke:rgb(150,150,150);stroke-linecap:round;fill:none;" />
<text x="1188.9" y="2208.7" font-size="41.6px" font-family="CMUBright-Roman" style="text-anchor:end;fill:rgb(150,150,150);" transform="rotate(-65.3,1188.9,2208.7)" >2500 kb</text>
<line x1='1281.0' y1='2217.3' x2='1277.5' y2='2228.8' style="stroke-width:8.0;stroke:rgb(150,150,150);stroke-linecap:round;fill:none;" />
<line x1='1379.8' y1='2240.3' x2='1377.9' y2='2252.2' style="stroke-width:8.0;stroke:rgb(150,150,150);stroke-linecap:round;fill:none;" />
<path d="M1485.626,2049.812 A550.000,550.000 40.000 0,1 1282.691,994.751 L1203.669,811.024 A750.000,750.000 0.000 0,0 1480.399,2249.744 Z" style="stroke-width:2.0;stroke:rgb(0,0,0);stroke-linecap:round;fill:none;" />
</g>
<g id="track_0">
<path d="M 1724.545,1028.210 A 522.500,522.500 0.00 0,1 1835.9,1099.8 L 1835.9,1099.8 1821.6,1116.5 1806.7,1132.9 1791.4,1148.9 1775.6,1164.5 1759.4,1179.6 1742.8,1194.1 1725.8,1207.9 1708.4,1221.0 1690.7,1233.3 1672.6,1244.7 1654.3,1255.3 1635.6,1264.9 1616.8,1273.5 1597.7,1281.1 1578.4,1287.7 1558.9,1293.2 1539.3,1297.6 1519.5,1300.9 1499.7,1303.1 1479.7,1304.1 1459.8,1304.0 1439.8,1302.8 1419.8,1300.5 1399.9,1297.1 1380.0,1292.5 1360.2,1287.0 1340.5,1280.4 1321.0,1272.7 1301.6,1264.2 1282.5,1254.7 1263.5,1244.3 1244.9,1233.1 1226.5,1221.1 1208.5,1208.5 1190.8,1195.2 1173.4,1181.3 1156.5,1167.0 1140.0,1152.2 1124.0,1137.1  A 522.500,522.500 0.00 0,1 1227.5,1054.2 L 1227.5,1054.2 1238.6,1071.9 1250.1,1089.4 1262.0,1106.6 1274.2,1123.2 1286.7,1139.3 1299.5,1154.6 1312.6,1169.2 1325.9,1183.0 1339.4,1195.8 1353.1,1207.6 1367.0,1218.3 1380.9,1227.9 1395.0,1236.3 1409.2,1243.5 1423.4,1249.4 1437.7,1254.0 1451.9,1257.3 1466.2,1259.3 1480.4,1259.9 1494.5,1259.2 1508.6,1257.1 1522.5,1253.6 1536.4,1248.9 1550.0,1242.8 1563.6,1235.4 1576.9,1226.8 1590.0,1216.9 1602.9,1206.0 1615.6,1193.8 1628.0,1180.7 1640.1,1166.5 1651.9,1151.5 1663.4,1135.6 1674.5,1119.0 1685.3,1101.7 1695.7,1083.9 1705.7,1065.6 1715.3,1047.0 1724.5,1028.2  Z" style="stroke-width: 0.5;  stroke: rgb(0,0,0); fill: rgb(179,177,178);" />
<path d="M 1975.378,1716.846 A 522.500,522.500 0.00 0,1 1907.8,1826.6 L 1907.8,1826.6 1890.8,1813.3 1873.4,1800.4 1855.6,1788.0 1837.6,1776.1 1819.2,1764.8 1800.7,1754.3 1782.0,1744.5 1763.1,1735.5 1744.2,1727.5 1725.2,1720.4 1706.2,1714.3 1687.2,1709.3 1668.3,1705.3 1649.5,1702.4 1630.8,1700.7 1612.2,1700.1 1593.8,1700.7 1575.7,1702.5 1557.7,1705.5 1540.1,1709.7 1522.7,1715.0 1505.7,1721.5 1488.9,1729.2 1472.6,1738.0 1456.6,1747.9 1441.0,1758.8 1425.9,1770.8 1411.1,1783.8 1396.8,1797.8 1383.0,1812.6 1369.7,1828.2 1356.8,1844.6 1344.4,1861.7 1332.5,1879.5 1321.1,1897.7 1310.3,1916.4 1300.0,1935.5 1290.1,1954.8 1280.9,1974.3  A 522.500,522.500 0.00 0,1 1171.1,1906.0 L 1171.1,1906.0 1185.7,1888.5 1200.8,1871.1 1216.4,1854.0 1232.5,1837.3 1249.1,1820.9 1266.2,1805.0 1283.8,1789.6 1301.9,1774.8 1320.4,1760.6 1339.3,1747.0 1358.6,1734.2 1378.4,1722.1 1398.5,1710.8 1419.0,1700.3 1439.8,1690.6 1460.9,1681.8 1482.4,1673.8 1504.1,1666.8 1526.1,1660.6 1548.3,1655.4 1570.7,1651.1 1593.3,1647.7 1616.0,1645.3 1638.8,1643.8 1661.8,1643.1 1684.8,1643.4 1707.9,1644.6 1730.9,1646.6 1754.0,1649.5 1777.0,1653.2 1799.8,1657.6 1822.6,1662.9 1845.2,1668.8 1867.6,1675.4 1889.8,1682.6 1911.7,1690.5 1933.3,1698.8 1954.5,1707.6 1975.4,1716.8  Z" style="stroke-width: 0.5;  stroke: rgb(0,0,0); fill: rgb(179,177,178);" />
<path d="M 1875.769,1863.048 A 522.500,522.500 0.00 0,1 1789.0,1935.3 L 1789.0,1935.3 1777.5,1918.3 1765.8,1901.6 1753.9,1885.3 1741.9,1869.5 1729.7,1854.3 1717.5,1839.9 1705.2,1826.2 1693.0,1813.5 1680.9,1801.7 1668.8,1791.0 1656.8,1781.4 1645.1,1773.0 1633.5,1765.9 1622.1,1760.0 1611.0,1755.5 1600.1,1752.3 1589.6,1750.6 1579.3,1750.2 1569.4,1751.2 1559.9,1753.7 1550.7,1757.5 1541.9,1762.8 1533.5,1769.4 1525.5,1777.4 1517.9,1786.7 1510.8,1797.3 1504.1,1809.1 1497.8,1822.2 1491.9,1836.3 1486.5,1851.5 1481.4,1867.6 1476.9,1884.7 1472.7,1902.6 1468.9,1921.1 1465.6,1940.3 1462.6,1959.9 1460.0,1980.0 1457.8,2000.2 1455.9,2020.6  A 522.500,522.500 0.00 0,1 1345.0,1999.0 L 1345.0,1999.0 1351.5,1978.9 1358.5,1958.9 1365.9,1939.1 1373.9,1919.8 1382.4,1900.8 1391.3,1882.5 1400.8,1864.7 1410.7,1847.8 1421.1,1831.6 1432.0,1816.3 1443.4,1801.9 1455.3,1788.6 1467.6,1776.3 1480.3,1765.1 1493.5,1755.0 1507.1,1746.2 1521.0,1738.6 1535.4,1732.2 1550.1,1727.1 1565.2,1723.2 1580.6,1720.6 1596.2,1719.3 1612.1,1719.3 1628.3,1720.5 1644.7,1723.0 1661.2,1726.7 1677.9,1731.5 1694.7,1737.5 1711.6,1744.7 1728.5,1752.8 1745.5,1762.0 1762.3,1772.2 1779.1,1783.2 1795.8,1795.0 1812.3,1807.5 1828.6,1820.6 1844.7,1834.4 1860.4,1848.5 1875.8,1863.0  Z" style="stroke-width: 0.5;  stroke: rgb(0,0,0); fill: rgb(179,177,178);" />
<path d="M 2016.568,1578.512 A 522.500,522.500 0.00 0,1 1995.3,1666.3 L 1995.3,1666.3 1973.1,1659.1 1950.6,1652.3 1927.7,1646.0 1904.5,1640.1 1881.1,1634.8 1857.5,1630.1 1833.7,1626.0 1809.7,1622.5 1785.6,1619.7 1761.5,1617.6 1737.3,1616.3 1713.0,1615.6 1688.8,1615.8 1664.5,1616.7 1640.4,1618.4 1616.3,1620.9 1592.3,1624.2 1568.5,1628.3 1544.8,1633.2 1521.3,1638.9 1498.0,1645.4 1475.0,1652.7 1452.2,1660.8 1429.6,1669.6 1407.4,1679.2 1385.5,1689.5 1363.9,1700.5 1342.6,1712.2 1321.7,1724.5 1301.2,1737.5 1281.1,1751.0 1261.4,1765.1 1242.1,1779.7 1223.3,1794.7 1205.0,1810.2 1187.1,1826.0 1169.7,1842.2 1152.7,1858.6 1136.3,1875.1  A 522.500,522.500 0.00 0,1 1077.3,1807.1 L 1077.3,1807.1 1097.1,1792.9 1117.3,1778.9 1137.9,1765.2 1158.9,1751.7 1180.3,1738.5 1202.0,1725.6 1224.0,1713.0 1246.4,1700.9 1269.1,1689.1 1292.1,1677.8 1315.4,1666.9 1339.0,1656.5 1362.9,1646.6 1386.9,1637.2 1411.3,1628.3 1435.8,1619.9 1460.5,1612.1 1485.4,1604.8 1510.5,1598.1 1535.7,1592.0 1561.1,1586.4 1586.6,1581.4 1612.1,1577.0 1637.8,1573.1 1663.4,1569.9 1689.2,1567.2 1714.9,1565.0 1740.6,1563.4 1766.3,1562.4 1792.0,1561.9 1817.5,1561.9 1843.0,1562.4 1868.3,1563.4 1893.5,1564.9 1918.6,1566.8 1943.4,1569.2 1968.1,1571.9 1992.4,1575.0 2016.6,1578.5  Z" style="stroke-width: 0.5;  stroke: rgb(0,0,0); fill: rgb(179,177,178);" />
<path d="M 1940.451,1218.914 A 522.500,522.500 0.00 0,1 1978.4,1289.9 L 1978.4,1289.9 1955.0,1300.0 1931.4,1310.0 1907.6,1319.9 1883.6,1329.6 1859.3,1339.0 1834.9,1348.3 1810.2,1357.4 1785.4,1366.2 1760.4,1374.8 1735.2,1383.1 1709.8,1391.2 1684.3,1399.0 1658.7,1406.5 1633.0,1413.8 1607.1,1420.7 1581.1,1427.4 1555.0,1433.7 1528.8,1439.8 1502.5,1445.5 1476.2,1450.9 1449.8,1456.0 1423.4,1460.7 1396.9,1465.2 1370.4,1469.3 1343.8,1473.1 1317.3,1476.6 1290.8,1479.7 1264.3,1482.6 1237.8,1485.1 1211.4,1487.4 1185.0,1489.3 1158.7,1491.0 1132.5,1492.4 1106.3,1493.5 1080.3,1494.3 1054.4,1494.9 1028.6,1495.2 1003.0,1495.3 977.5,1495.2  A 522.500,522.500 0.00 0,1 984.5,1415.0 L 984.5,1415.0 1008.7,1418.8 1033.2,1422.3 1057.9,1425.4 1082.8,1428.2 1108.0,1430.5 1133.3,1432.5 1158.7,1434.0 1184.3,1435.0 1210.1,1435.5 1235.9,1435.6 1261.7,1435.2 1287.6,1434.2 1313.6,1432.8 1339.5,1430.8 1365.5,1428.2 1391.4,1425.2 1417.2,1421.5 1443.0,1417.4 1468.7,1412.7 1494.4,1407.4 1519.8,1401.6 1545.2,1395.3 1570.4,1388.4 1595.4,1381.1 1620.3,1373.2 1644.9,1364.8 1669.3,1355.9 1693.5,1346.6 1717.5,1336.8 1741.2,1326.6 1764.6,1316.0 1787.7,1305.0 1810.5,1293.6 1833.0,1281.8 1855.2,1269.8 1877.1,1257.4 1898.6,1244.8 1919.7,1232.0 1940.5,1218.9  Z" style="stroke-width: 0.5;  stroke: rgb(0,0,0); fill: rgb(179,177,178);" />
<path d="M 2019.916,1448.105 A 522.500,522.500 0.00 0,1 2021.8,1527.3 L 2021.8,1527.3 1996.5,1526.1 1970.9,1525.1 1945.3,1524.4 1919.4,1523.9 1893.5,1523.7 1867.4,1523.8 1841.2,1524.2 1814.9,1524.9 1788.6,1525.9 1762.1,1527.2 1735.7,1528.8 1709.1,1530.8 1682.6,1533.1 1656.0,1535.7 1629.4,1538.7 1602.8,1542.0 1576.3,1545.7 1549.8,1549.8 1523.3,1554.1 1496.9,1558.9 1470.5,1563.9 1444.3,1569.3 1418.1,1575.1 1392.0,1581.2 1366.1,1587.6 1340.2,1594.3 1314.5,1601.4 1288.9,1608.7 1263.5,1616.3 1238.3,1624.3 1213.2,1632.5 1188.3,1641.0 1163.6,1649.7 1139.1,1658.6 1114.8,1667.8 1090.8,1677.2 1067.0,1686.8 1043.4,1696.6 1020.0,1706.5  A 522.500,522.500 0.00 0,1 994.3,1631.6 L 994.3,1631.6 1019.8,1625.0 1045.4,1618.4 1071.0,1612.0 1096.7,1605.6 1122.6,1599.3 1148.4,1593.1 1174.4,1587.0 1200.4,1580.9 1226.5,1575.0 1252.6,1569.1 1278.8,1563.4 1305.1,1557.7 1331.4,1552.2 1357.8,1546.7 1384.2,1541.4 1410.6,1536.2 1437.1,1531.1 1463.6,1526.1 1490.1,1521.3 1516.7,1516.5 1543.2,1511.9 1569.8,1507.4 1596.4,1503.0 1623.0,1498.7 1649.6,1494.5 1676.2,1490.5 1702.8,1486.6 1729.4,1482.8 1756.0,1479.1 1782.5,1475.5 1809.1,1472.0 1835.6,1468.7 1862.0,1465.4 1888.5,1462.3 1914.9,1459.3 1941.2,1456.3 1967.5,1453.5 1993.7,1450.8 2019.9,1448.1  Z" style="stroke-width: 0.5;  stroke: rgb(0,0,0); fill: rgb(179,177,178);" />
<path d="M 1788.952,1935.331 A 522.500,522.500 0.00 0,1 1720.9,1973.5 L 1720.9,1973.5 1712.2,1955.2 1703.4,1937.1 1694.4,1919.4 1685.3,1902.1 1676.1,1885.4 1666.9,1869.4 1657.8,1854.3 1648.6,1840.0 1639.6,1826.8 1630.6,1814.6 1621.8,1803.6 1613.1,1793.8 1604.5,1785.2 1596.2,1778.0 1588.1,1772.2 1580.3,1767.8 1572.7,1764.8 1565.3,1763.2 1558.3,1763.2 1551.5,1764.6 1545.1,1767.5 1539.0,1771.8 1533.2,1777.6 1527.8,1784.8 1522.7,1793.3 1517.9,1803.3 1513.5,1814.5 1509.4,1826.9 1505.7,1840.6 1502.4,1855.3 1499.3,1871.1 1496.6,1887.8 1494.3,1905.4 1492.2,1923.7 1490.5,1942.6 1489.1,1962.1 1487.9,1981.9 1487.0,2002.1 1486.3,2022.3  A 522.500,522.500 0.00 0,1 1456.6,2020.7 L 1456.6,2020.7 1458.5,2000.3 1460.7,1980.0 1463.2,1960.0 1466.2,1940.3 1469.5,1921.2 1473.2,1902.6 1477.4,1884.8 1481.9,1867.7 1486.9,1851.5 1492.3,1836.3 1498.2,1822.2 1504.4,1809.2 1511.1,1797.4 1518.3,1786.8 1525.8,1777.4 1533.8,1769.4 1542.2,1762.8 1550.9,1757.5 1560.1,1753.7 1569.6,1751.2 1579.5,1750.2 1589.7,1750.6 1600.2,1752.4 1611.1,1755.5 1622.2,1760.1 1633.5,1765.9 1645.1,1773.1 1656.9,1781.4 1668.8,1791.0 1680.9,1801.7 1693.0,1813.5 1705.2,1826.2 1717.5,1839.9 1729.7,1854.4 1741.8,1869.5 1753.9,1885.4 1765.8,1901.7 1777.5,1918.4 1789.0,1935.3  Z" style="stroke-width: 0.5;  stroke: rgb(0,0,0); fill: rgb(179,177,178);" />
<path d="M 1837.082,1100.773 A 522.500,522.500 0.00 0,1 1877.0,1138.3 L 1877.0,1138.3 1860.6,1153.7 1843.7,1168.8 1826.3,1183.6 1808.4,1197.9 1790.1,1211.7 1771.4,1225.0 1752.3,1237.6 1732.8,1249.6 1713.1,1260.9 1692.9,1271.4 1672.5,1281.1 1651.9,1289.9 1631.0,1297.8 1609.8,1304.9 1588.5,1311.0 1567.0,1316.1 1545.4,1320.3 1523.6,1323.4 1501.8,1325.6 1479.9,1326.8 1457.9,1326.9 1435.9,1326.0 1414.0,1324.2 1392.1,1321.3 1370.2,1317.5 1348.5,1312.8 1326.8,1307.1 1305.4,1300.5 1284.1,1293.0 1263.0,1284.7 1242.1,1275.5 1221.5,1265.7 1201.2,1255.1 1181.2,1243.9 1161.5,1232.0 1142.2,1219.7 1123.4,1206.8 1104.9,1193.6 1087.0,1180.0  A 522.500,522.500 0.00 0,1 1122.7,1138.5 L 1122.7,1138.5 1138.8,1153.5 1155.4,1168.2 1172.3,1182.5 1189.7,1196.3 1207.5,1209.6 1225.6,1222.2 1244.0,1234.1 1262.8,1245.3 1281.8,1255.6 1301.0,1265.1 1320.4,1273.6 1340.0,1281.2 1359.7,1287.8 1379.6,1293.3 1399.5,1297.8 1419.5,1301.2 1439.6,1303.5 1459.6,1304.7 1479.7,1304.8 1499.7,1303.7 1519.6,1301.5 1539.4,1298.2 1559.1,1293.8 1578.6,1288.3 1598.0,1281.8 1617.1,1274.2 1636.1,1265.5 1654.8,1255.9 1673.2,1245.4 1691.3,1234.0 1709.1,1221.7 1726.5,1208.6 1743.6,1194.9 1760.3,1180.4 1776.6,1165.4 1792.4,1149.8 1807.8,1133.8 1822.7,1117.4 1837.1,1100.8  Z" style="stroke-width: 0.5;  stroke: rgb(0,0,0); fill: rgb(179,177,178);" />
<path d="M 1638.033,996.062 A 522.500,522.500 0.00 0,1 1685.8,1011.7 L 1685.8,1011.7 1678.3,1030.9 1670.4,1050.0 1662.1,1068.7 1653.5,1087.0 1644.5,1104.8 1635.3,1121.9 1625.7,1138.2 1615.9,1153.7 1605.8,1168.2 1595.4,1181.7 1584.8,1194.2 1573.9,1205.4 1562.9,1215.5 1551.6,1224.3 1540.2,1231.9 1528.6,1238.0 1516.9,1242.9 1505.1,1246.3 1493.2,1248.3 1481.2,1248.9 1469.1,1248.1 1457.0,1245.9 1444.8,1242.3 1432.7,1237.3 1420.6,1231.0 1408.5,1223.4 1396.5,1214.5 1384.6,1204.4 1372.7,1193.1 1361.0,1180.7 1349.5,1167.3 1338.1,1152.9 1326.9,1137.6 1316.0,1121.5 1305.3,1104.8 1294.9,1087.5 1284.7,1069.7 1274.9,1051.5 1265.5,1033.1  A 522.500,522.500 0.00 0,1 1293.6,1020.0 L 1293.6,1020.0 1301.8,1038.8 1310.3,1057.3 1319.1,1075.5 1328.2,1093.2 1337.4,1110.3 1346.9,1126.7 1356.5,1142.4 1366.2,1157.1 1376.1,1170.9 1386.1,1183.6 1396.2,1195.1 1406.3,1205.5 1416.4,1214.6 1426.6,1222.4 1436.7,1228.8 1446.9,1233.9 1457.0,1237.5 1467.0,1239.8 1477.0,1240.5 1486.9,1239.8 1496.6,1237.7 1506.3,1234.1 1515.8,1229.1 1525.1,1222.7 1534.3,1214.9 1543.3,1205.8 1552.1,1195.3 1560.7,1183.7 1569.0,1170.8 1577.1,1156.9 1585.0,1141.9 1592.6,1125.9 1600.0,1109.1 1607.1,1091.6 1613.9,1073.3 1620.4,1054.5 1626.6,1035.3 1632.5,1015.8 1638.0,996.1  Z" style="stroke-width: 0.5;  stroke: rgb(0,0,0); fill: rgb(179,177,178);" />
<path d="M 1993.058,1672.916 A 522.500,522.500 0.00 0,1 1976.0,1715.5 L 1976.0,1715.5 1955.1,1706.4 1933.8,1697.6 1912.2,1689.3 1890.3,1681.6 1868.1,1674.4 1845.6,1667.8 1823.0,1661.9 1800.2,1656.8 1777.3,1652.4 1754.3,1648.7 1731.2,1645.9 1708.2,1643.9 1685.1,1642.8 1662.0,1642.6 1639.1,1643.2 1616.2,1644.8 1593.4,1647.3 1570.8,1650.7 1548.4,1655.0 1526.2,1660.3 1504.2,1666.5 1482.5,1673.6 1461.1,1681.5 1439.9,1690.4 1419.1,1700.1 1398.6,1710.6 1378.5,1722.0 1358.7,1734.1 1339.4,1746.9 1320.4,1760.5 1301.9,1774.7 1283.9,1789.6 1266.3,1805.0 1249.2,1820.9 1232.5,1837.2 1216.4,1854.0 1200.8,1871.1 1185.7,1888.5 1171.2,1906.0  A 522.500,522.500 0.00 0,1 1136.8,1875.6 L 1136.8,1875.6 1153.2,1859.1 1170.1,1842.7 1187.4,1826.6 1205.3,1810.8 1223.6,1795.3 1242.4,1780.3 1261.6,1765.8 1281.2,1751.7 1301.3,1738.2 1321.8,1725.4 1342.6,1713.1 1363.8,1701.5 1385.4,1690.6 1407.3,1680.3 1429.5,1670.9 1451.9,1662.1 1474.7,1654.2 1497.7,1647.0 1520.9,1640.7 1544.4,1635.1 1568.0,1630.4 1591.8,1626.5 1615.7,1623.4 1639.7,1621.1 1663.8,1619.6 1687.9,1618.9 1712.1,1619.0 1736.2,1619.9 1760.4,1621.5 1784.4,1623.9 1808.4,1626.9 1832.3,1630.6 1856.0,1635.0 1879.5,1640.0 1902.8,1645.6 1925.8,1651.7 1948.6,1658.4 1971.0,1665.4 1993.1,1672.9  Z" style="stroke-width: 0.5;  stroke: rgb(0,0,0); fill: rgb(179,177,178);" />
<path d="M 1685.910,1011.693 A 522.500,522.500 0.00 0,1 1723.8,1027.9 L 1723.8,1027.9 1714.7,1046.7 1705.1,1065.3 1695.1,1083.6 1684.7,1101.4 1674.0,1118.7 1662.9,1135.3 1651.4,1151.2 1639.7,1166.3 1627.6,1180.4 1615.3,1193.6 1602.6,1205.7 1589.8,1216.7 1576.7,1226.5 1563.4,1235.1 1550.0,1242.5 1536.3,1248.6 1522.5,1253.4 1508.6,1256.8 1494.6,1258.9 1480.5,1259.6 1466.4,1259.0 1452.2,1257.0 1438.0,1253.7 1423.8,1249.0 1409.6,1243.1 1395.5,1235.9 1381.5,1227.4 1367.6,1217.8 1353.8,1207.1 1340.2,1195.2 1326.7,1182.4 1313.5,1168.7 1300.4,1154.0 1287.7,1138.6 1275.2,1122.6 1263.1,1105.9 1251.2,1088.7 1239.8,1071.2 1228.7,1053.4  A 522.500,522.500 0.00 0,1 1264.8,1033.4 L 1264.8,1033.4 1274.3,1051.8 1284.1,1070.0 1294.3,1087.8 1304.7,1105.1 1315.5,1121.8 1326.4,1137.9 1337.6,1153.1 1349.0,1167.5 1360.6,1180.9 1372.3,1193.3 1384.2,1204.6 1396.2,1214.7 1408.2,1223.6 1420.3,1231.2 1432.5,1237.5 1444.6,1242.5 1456.8,1246.0 1468.9,1248.2 1481.0,1249.0 1493.0,1248.4 1505.0,1246.4 1516.8,1242.9 1528.6,1238.1 1540.2,1231.9 1551.6,1224.4 1562.8,1215.6 1573.9,1205.5 1584.8,1194.2 1595.4,1181.8 1605.8,1168.3 1615.9,1153.7 1625.8,1138.2 1635.3,1121.9 1644.6,1104.8 1653.6,1087.1 1662.2,1068.8 1670.5,1050.0 1678.4,1031.0 1685.9,1011.7  Z" style="stroke-width: 0.5;  stroke: rgb(0,0,0); fill: rgb(179,177,178);" />
<path d="M 1916.287,1184.229 A 522.500,522.500 0.00 0,1 1939.7,1217.7 L 1939.7,1217.7 1919.0,1230.8 1897.9,1243.7 1876.4,1256.3 1854.6,1268.7 1832.5,1280.8 1810.0,1292.6 1787.2,1304.1 1764.1,1315.1 1740.7,1325.8 1717.1,1336.0 1693.2,1345.9 1669.0,1355.2 1644.6,1364.1 1620.0,1372.5 1595.2,1380.4 1570.2,1387.8 1545.0,1394.7 1519.7,1401.0 1494.2,1406.8 1468.6,1412.1 1442.9,1416.8 1417.1,1420.9 1391.3,1424.6 1365.4,1427.6 1339.5,1430.1 1313.5,1432.1 1287.6,1433.6 1261.7,1434.5 1235.9,1434.9 1210.1,1434.8 1184.4,1434.2 1158.8,1433.2 1133.3,1431.6 1108.0,1429.7 1082.9,1427.3 1058.0,1424.5 1033.3,1421.3 1008.8,1417.8 984.6,1413.9  A 522.500,522.500 0.00 0,1 992.9,1373.9 L 992.9,1373.9 1016.3,1379.5 1040.0,1384.8 1063.9,1389.6 1088.2,1394.0 1112.6,1397.9 1137.3,1401.4 1162.1,1404.3 1187.1,1406.7 1212.2,1408.6 1237.4,1409.8 1262.7,1410.5 1288.1,1410.5 1313.4,1410.0 1338.8,1408.8 1364.2,1406.9 1389.5,1404.4 1414.8,1401.2 1439.9,1397.4 1465.0,1393.0 1490.0,1387.8 1514.8,1382.1 1539.4,1375.6 1563.9,1368.6 1588.1,1360.9 1612.2,1352.6 1636.0,1343.7 1659.5,1334.2 1682.8,1324.2 1705.8,1313.6 1728.4,1302.5 1750.8,1290.9 1772.8,1278.9 1794.5,1266.4 1815.8,1253.5 1836.7,1240.2 1857.2,1226.6 1877.3,1212.7 1897.0,1198.6 1916.3,1184.2  Z" style="stroke-width: 0.5;  stroke: rgb(0,0,0); fill: rgb(179,177,178);" />
<path d="M 1990.595,1320.215 A 522.500,522.500 0.00 0,1 2002.4,1356.4 L 2002.4,1356.4 1977.0,1363.6 1951.6,1370.8 1926.1,1377.9 1900.5,1384.9 1874.8,1391.9 1849.1,1398.8 1823.3,1405.6 1797.4,1412.3 1771.5,1419.0 1745.5,1425.5 1719.5,1432.0 1693.4,1438.4 1667.3,1444.7 1641.1,1450.9 1614.9,1457.0 1588.6,1463.0 1562.3,1468.9 1536.0,1474.7 1509.6,1480.4 1483.2,1486.0 1456.8,1491.4 1430.4,1496.8 1404.0,1502.1 1377.6,1507.2 1351.1,1512.3 1324.7,1517.2 1298.2,1522.1 1271.8,1526.8 1245.4,1531.5 1219.0,1536.0 1192.6,1540.4 1166.2,1544.8 1139.8,1549.0 1113.5,1553.1 1087.2,1557.2 1061.0,1561.1 1034.8,1565.0 1008.6,1568.7 982.5,1572.4  A 522.500,522.500 0.00 0,1 978.6,1534.6 L 978.6,1534.6 1004.5,1532.8 1030.4,1530.8 1056.5,1528.7 1082.6,1526.4 1108.8,1524.0 1135.1,1521.3 1161.5,1518.5 1187.9,1515.4 1214.3,1512.2 1240.8,1508.7 1267.3,1505.1 1293.8,1501.2 1320.4,1497.1 1346.9,1492.8 1373.5,1488.3 1400.0,1483.6 1426.5,1478.6 1453.0,1473.5 1479.4,1468.1 1505.9,1462.5 1532.2,1456.7 1558.5,1450.7 1584.8,1444.4 1610.9,1438.0 1637.0,1431.4 1663.0,1424.5 1688.9,1417.5 1714.8,1410.3 1740.5,1402.9 1766.1,1395.3 1791.6,1387.5 1816.9,1379.6 1842.2,1371.5 1867.3,1363.3 1892.2,1354.9 1917.1,1346.4 1941.7,1337.8 1966.2,1329.1 1990.6,1320.2  Z" style="stroke-width: 0.5;  stroke: rgb(0,0,0); fill: rgb(179,177,178);" />
<path d="M 1898.906,1837.462 A 522.500,522.500 0.00 0,1 1876.3,1862.5 L 1876.3,1862.5 1860.9,1848.0 1845.1,1833.8 1829.0,1820.1 1812.6,1807.0 1796.0,1794.4 1779.3,1782.6 1762.4,1771.6 1745.4,1761.5 1728.3,1752.3 1711.3,1744.1 1694.3,1736.9 1677.3,1730.9 1660.5,1726.0 1643.7,1722.3 1627.2,1719.8 1610.8,1718.5 1594.7,1718.5 1578.8,1719.8 1563.2,1722.3 1547.9,1726.1 1532.9,1731.1 1518.3,1737.4 1504.0,1745.0 1490.2,1753.8 1476.7,1763.7 1463.7,1774.8 1451.0,1787.0 1438.9,1800.3 1427.2,1814.5 1415.9,1829.7 1405.1,1845.8 1394.8,1862.7 1385.0,1880.3 1375.7,1898.6 1366.9,1917.4 1358.6,1936.7 1350.8,1956.4 1343.4,1976.3 1336.6,1996.3  A 522.500,522.500 0.00 0,1 1304.9,1984.7 L 1304.9,1984.7 1313.1,1964.9 1321.9,1945.3 1331.1,1925.9 1340.9,1906.9 1351.2,1888.3 1362.0,1870.3 1373.3,1852.9 1385.1,1836.2 1397.4,1820.2 1410.2,1805.1 1423.4,1791.0 1437.1,1777.8 1451.3,1765.5 1465.9,1754.4 1480.8,1744.4 1496.2,1735.4 1512.0,1727.7 1528.1,1721.1 1544.6,1715.8 1561.4,1711.6 1578.4,1708.7 1595.7,1706.9 1613.3,1706.4 1631.1,1707.1 1649.0,1709.0 1667.1,1712.0 1685.3,1716.2 1703.6,1721.5 1721.9,1727.9 1740.3,1735.2 1758.6,1743.6 1776.8,1752.8 1795.0,1763.0 1812.9,1773.9 1830.7,1785.5 1848.2,1797.7 1865.5,1810.5 1882.4,1823.8 1898.9,1837.5  Z" style="stroke-width: 0.5;  stroke: rgb(0,0,0); fill: rgb(179,177,178);" />
<path d="M 2020.558,1545.010 A 522.500,522.500 0.00 0,1 2016.7,1577.8 L 2016.7,1577.8 1992.5,1574.3 1968.1,1571.2 1943.5,1568.5 1918.7,1566.2 1893.6,1564.3 1868.4,1562.9 1843.0,1561.9 1817.5,1561.4 1792.0,1561.4 1766.3,1561.9 1740.6,1563.0 1714.9,1564.6 1689.1,1566.8 1663.4,1569.5 1637.7,1572.8 1612.1,1576.6 1586.5,1581.0 1561.0,1586.0 1535.7,1591.6 1510.4,1597.8 1485.3,1604.5 1460.4,1611.7 1435.7,1619.6 1411.1,1627.9 1386.8,1636.8 1362.7,1646.2 1338.8,1656.1 1315.3,1666.5 1291.9,1677.4 1268.9,1688.7 1246.2,1700.5 1223.8,1712.6 1201.7,1725.1 1180.0,1738.0 1158.6,1751.2 1137.6,1764.7 1117.0,1778.4 1096.7,1792.4 1076.9,1806.5  A 522.500,522.500 0.00 0,1 1058.4,1779.2 L 1058.4,1779.2 1079.4,1766.1 1100.7,1753.2 1122.4,1740.5 1144.5,1728.0 1166.8,1715.7 1189.5,1703.8 1212.4,1692.1 1235.7,1680.8 1259.2,1669.8 1282.9,1659.2 1306.9,1648.9 1331.2,1639.1 1355.7,1629.7 1380.4,1620.7 1405.2,1612.1 1430.3,1604.0 1455.5,1596.3 1480.9,1589.1 1506.5,1582.4 1532.1,1576.2 1557.9,1570.4 1583.7,1565.1 1609.7,1560.3 1635.7,1556.0 1661.7,1552.2 1687.8,1548.8 1713.9,1546.0 1739.9,1543.6 1766.0,1541.6 1791.9,1540.1 1817.9,1539.1 1843.7,1538.5 1869.4,1538.3 1895.1,1538.5 1920.5,1539.1 1945.8,1540.0 1971.0,1541.4 1995.9,1543.0 2020.6,1545.0  Z" style="stroke-width: 0.5;  stroke: rgb(0,0,0); fill: rgb(179,177,178);" />
<path d="M 2015.557,1415.105 A 522.500,522.500 0.00 0,1 2019.8,1447.4 L 2019.8,1447.4 1993.7,1450.1 1967.4,1452.9 1941.1,1455.7 1914.8,1458.7 1888.4,1461.8 1861.9,1464.9 1835.5,1468.2 1809.0,1471.6 1782.4,1475.1 1755.9,1478.7 1729.3,1482.4 1702.7,1486.2 1676.1,1490.1 1649.5,1494.2 1622.9,1498.3 1596.3,1502.6 1569.7,1507.0 1543.2,1511.5 1516.6,1516.2 1490.0,1520.9 1463.5,1525.8 1437.0,1530.7 1410.5,1535.8 1384.1,1541.0 1357.7,1546.4 1331.4,1551.8 1305.0,1557.3 1278.8,1562.9 1252.6,1568.7 1226.4,1574.5 1200.3,1580.4 1174.3,1586.4 1148.3,1592.5 1122.4,1598.7 1096.6,1605.0 1070.9,1611.4 1045.2,1617.8 1019.6,1624.3 994.1,1630.8  A 522.500,522.500 0.00 0,1 987.0,1599.0 L 987.0,1599.0 1013.2,1594.0 1039.4,1588.9 1065.7,1583.9 1092.0,1578.9 1118.3,1573.9 1144.6,1568.9 1170.9,1563.9 1197.2,1559.0 1223.5,1554.0 1249.9,1549.1 1276.2,1544.2 1302.6,1539.3 1329.0,1534.5 1355.4,1529.6 1381.8,1524.8 1408.2,1520.0 1434.6,1515.2 1461.0,1510.4 1487.4,1505.7 1513.8,1501.0 1540.2,1496.3 1566.7,1491.6 1593.1,1486.9 1619.5,1482.3 1645.9,1477.7 1672.4,1473.1 1698.8,1468.5 1725.2,1463.9 1751.6,1459.4 1778.1,1454.9 1804.5,1450.4 1830.9,1445.9 1857.3,1441.4 1883.7,1437.0 1910.1,1432.6 1936.5,1428.2 1962.8,1423.8 1989.2,1419.5 2015.6,1415.1  Z" style="stroke-width: 0.5;  stroke: rgb(0,0,0); fill: rgb(179,177,178);" />
<path d="M 1979.021,1291.324 A 522.500,522.500 0.00 0,1 1989.1,1316.3 L 1989.1,1316.3 1964.9,1325.3 1940.5,1334.2 1916.0,1343.0 1891.2,1351.6 1866.4,1360.1 1841.3,1368.5 1816.2,1376.7 1790.9,1384.7 1765.4,1392.6 1739.9,1400.3 1714.2,1407.7 1688.4,1415.0 1662.5,1422.1 1636.5,1429.0 1610.5,1435.7 1584.3,1442.1 1558.1,1448.3 1531.8,1454.4 1505.4,1460.1 1479.0,1465.7 1452.5,1471.0 1426.1,1476.1 1399.5,1481.0 1373.0,1485.6 1346.4,1490.0 1319.9,1494.1 1293.3,1498.1 1266.8,1501.8 1240.3,1505.3 1213.8,1508.5 1187.4,1511.6 1161.0,1514.4 1134.6,1517.0 1108.3,1519.5 1082.1,1521.7 1056.0,1523.7 1030.0,1525.6 1004.1,1527.2 978.3,1528.7  A 522.500,522.500 0.00 0,1 977.5,1501.8 L 977.5,1501.8 1003.0,1501.6 1028.7,1501.2 1054.5,1500.6 1080.4,1499.7 1106.5,1498.6 1132.7,1497.2 1158.9,1495.5 1185.2,1493.6 1211.6,1491.4 1238.0,1488.9 1264.5,1486.1 1291.0,1483.1 1317.5,1479.7 1344.0,1476.0 1370.6,1472.0 1397.1,1467.7 1423.5,1463.1 1450.0,1458.2 1476.4,1452.9 1502.7,1447.4 1529.0,1441.6 1555.1,1435.4 1581.2,1429.0 1607.2,1422.3 1633.1,1415.2 1658.9,1407.9 1684.5,1400.4 1710.0,1392.5 1735.4,1384.4 1760.6,1376.0 1785.6,1367.4 1810.5,1358.6 1835.1,1349.5 1859.6,1340.3 1883.9,1330.8 1908.0,1321.2 1931.9,1311.4 1955.6,1301.4 1979.0,1291.3  Z" style="stroke-width: 0.5;  stroke: rgb(0,0,0); fill: rgb(179,177,178);" />
<path d="M 2004.255,1363.129 A 522.500,522.500 0.00 0,1 2010.3,1387.6 L 2010.3,1387.6 1984.2,1393.3 1958.1,1399.1 1932.0,1404.8 1905.8,1410.5 1879.7,1416.2 1853.5,1421.8 1827.3,1427.5 1801.2,1433.1 1775.0,1438.8 1748.8,1444.4 1722.5,1450.0 1696.3,1455.5 1670.1,1461.1 1643.8,1466.6 1617.6,1472.1 1591.3,1477.6 1565.0,1483.1 1538.7,1488.6 1512.5,1494.0 1486.2,1499.4 1459.9,1504.8 1433.6,1510.2 1407.3,1515.5 1381.0,1520.8 1354.7,1526.2 1328.4,1531.4 1302.1,1536.7 1275.8,1541.9 1249.5,1547.2 1223.2,1552.4 1196.9,1557.6 1170.6,1562.7 1144.4,1567.9 1118.1,1573.0 1091.8,1578.1 1065.6,1583.2 1039.3,1588.3 1013.1,1593.3 986.8,1598.3  A 522.500,522.500 0.00 0,1 982.7,1573.5 L 982.7,1573.5 1008.8,1569.8 1035.0,1565.9 1061.3,1562.0 1087.5,1558.1 1113.8,1554.0 1140.2,1549.9 1166.5,1545.6 1192.9,1541.3 1219.3,1536.9 1245.7,1532.4 1272.2,1527.8 1298.6,1523.1 1325.1,1518.4 1351.5,1513.5 1378.0,1508.5 1404.4,1503.5 1430.9,1498.3 1457.3,1493.1 1483.7,1487.7 1510.1,1482.3 1536.5,1476.8 1562.8,1471.1 1589.2,1465.4 1615.5,1459.6 1641.7,1453.7 1667.9,1447.8 1694.1,1441.7 1720.3,1435.5 1746.4,1429.3 1772.4,1423.0 1798.4,1416.6 1824.4,1410.2 1850.3,1403.6 1876.1,1397.0 1901.8,1390.4 1927.6,1383.6 1953.2,1376.9 1978.8,1370.0 2004.3,1363.1  Z" style="stroke-width: 0.5;  stroke: rgb(0,0,0); fill: rgb(179,177,178);" />
<path d="M 1904.759,1169.581 A 522.500,522.500 0.00 0,1 1915.6,1183.4 L 1915.6,1183.4 1896.4,1197.8 1876.7,1211.9 1856.7,1225.9 1836.2,1239.5 1815.3,1252.8 1794.0,1265.7 1772.4,1278.2 1750.4,1290.3 1728.1,1302.0 1705.4,1313.1 1682.4,1323.7 1659.2,1333.8 1635.7,1343.3 1611.9,1352.2 1587.9,1360.6 1563.6,1368.3 1539.2,1375.4 1514.6,1381.8 1489.8,1387.6 1464.8,1392.8 1439.8,1397.3 1414.6,1401.1 1389.4,1404.3 1364.1,1406.8 1338.7,1408.7 1313.3,1409.9 1288.0,1410.5 1262.6,1410.5 1237.3,1409.8 1212.1,1408.6 1187.0,1406.7 1162.1,1404.3 1137.2,1401.4 1112.6,1398.0 1088.1,1394.0 1063.9,1389.6 1040.0,1384.8 1016.3,1379.6 992.9,1374.0  A 522.500,522.500 0.00 0,1 997.4,1357.1 L 997.4,1357.1 1020.4,1363.4 1043.7,1369.3 1067.3,1374.8 1091.2,1379.9 1115.3,1384.5 1139.6,1388.5 1164.1,1392.1 1188.8,1395.0 1213.6,1397.4 1238.5,1399.1 1263.5,1400.2 1288.6,1400.7 1313.6,1400.5 1338.7,1399.6 1363.8,1398.0 1388.8,1395.7 1413.7,1392.7 1438.6,1389.1 1463.3,1384.7 1487.9,1379.6 1512.4,1373.8 1536.7,1367.3 1560.8,1360.2 1584.6,1352.3 1608.3,1343.9 1631.6,1334.7 1654.7,1325.0 1677.6,1314.7 1700.1,1303.7 1722.2,1292.3 1744.1,1280.3 1765.6,1267.8 1786.7,1254.8 1807.4,1241.5 1827.7,1227.7 1847.6,1213.6 1867.1,1199.2 1886.2,1184.5 1904.8,1169.6  Z" style="stroke-width: 0.5;  stroke: rgb(0,0,0); fill: rgb(179,177,178);" />
<path d="M 1894.015,1156.840 A 522.500,522.500 0.00 0,1 1904.1,1168.7 L 1904.1,1168.7 1885.5,1183.7 1866.5,1198.4 1847.1,1212.8 1827.2,1227.0 1806.9,1240.7 1786.2,1254.1 1765.2,1267.1 1743.7,1279.6 1721.9,1291.6 1699.7,1303.1 1677.3,1314.1 1654.5,1324.4 1631.4,1334.2 1608.0,1343.3 1584.4,1351.8 1560.6,1359.6 1536.5,1366.7 1512.3,1373.2 1487.9,1379.0 1463.3,1384.0 1438.6,1388.4 1413.7,1392.1 1388.8,1395.0 1363.8,1397.3 1338.8,1398.8 1313.7,1399.7 1288.7,1399.8 1263.7,1399.3 1238.7,1398.2 1213.8,1396.4 1189.0,1394.0 1164.4,1391.0 1139.9,1387.4 1115.6,1383.3 1091.5,1378.6 1067.6,1373.5 1044.1,1367.9 1020.8,1361.9 997.9,1355.6  A 522.500,522.500 0.00 0,1 1002.4,1340.7 L 1002.4,1340.7 1025.0,1347.7 1047.9,1354.3 1071.1,1360.4 1094.6,1366.1 1118.4,1371.4 1142.4,1376.0 1166.6,1380.1 1190.9,1383.6 1215.4,1386.5 1240.0,1388.7 1264.7,1390.3 1289.5,1391.2 1314.2,1391.3 1339.0,1390.8 1363.7,1389.5 1388.4,1387.5 1413.0,1384.7 1437.6,1381.2 1462.0,1376.9 1486.2,1371.9 1510.3,1366.2 1534.3,1359.7 1558.0,1352.5 1581.4,1344.6 1604.7,1336.0 1627.6,1326.7 1650.3,1316.8 1672.7,1306.2 1694.8,1295.0 1716.5,1283.2 1737.8,1270.9 1758.8,1258.0 1779.4,1244.7 1799.6,1230.9 1819.4,1216.7 1838.7,1202.2 1857.6,1187.3 1876.0,1172.2 1894.0,1156.8  Z" style="stroke-width: 0.5;  stroke: rgb(0,0,0); fill: rgb(179,177,178);" />
<path d="M 1877.732,1138.995 A 522.500,522.500 0.00 0,1 1886.5,1148.4 L 1886.5,1148.4 1869.0,1164.0 1851.0,1179.4 1832.6,1194.5 1813.6,1209.2 1794.3,1223.6 1774.5,1237.6 1754.3,1251.1 1733.7,1264.1 1712.7,1276.5 1691.4,1288.4 1669.7,1299.6 1647.7,1310.2 1625.3,1320.1 1602.7,1329.3 1579.8,1337.8 1556.7,1345.6 1533.3,1352.6 1509.7,1358.8 1485.9,1364.3 1462.0,1369.0 1437.9,1372.9 1413.7,1376.0 1389.4,1378.3 1365.0,1379.8 1340.6,1380.5 1316.2,1380.5 1291.8,1379.7 1267.4,1378.2 1243.0,1376.0 1218.8,1373.0 1194.7,1369.4 1170.7,1365.1 1146.9,1360.2 1123.3,1354.8 1100.0,1348.7 1076.9,1342.1 1054.1,1335.1 1031.7,1327.6 1009.6,1319.8  A 522.500,522.500 0.00 0,1 1014.1,1307.8 L 1014.1,1307.8 1035.9,1316.1 1058.0,1324.1 1080.5,1331.6 1103.3,1338.6 1126.3,1345.1 1149.6,1351.1 1173.1,1356.4 1196.8,1361.0 1220.7,1365.0 1244.6,1368.3 1268.7,1370.9 1292.8,1372.7 1316.9,1373.8 1341.1,1374.0 1365.2,1373.5 1389.3,1372.2 1413.3,1370.0 1437.2,1367.0 1461.0,1363.2 1484.6,1358.6 1508.1,1353.2 1531.4,1346.9 1554.4,1339.9 1577.2,1332.1 1599.8,1323.5 1622.1,1314.1 1644.0,1304.1 1665.7,1293.3 1687.0,1281.9 1707.9,1269.8 1728.5,1257.1 1748.7,1243.9 1768.5,1230.1 1787.9,1215.8 1806.8,1201.1 1825.2,1186.0 1843.2,1170.6 1860.7,1154.9 1877.7,1139.0  Z" style="stroke-width: 0.5;  stroke: rgb(0,0,0); fill: rgb(179,177,178);" />
<path d="M 1907.374,1827.189 A 522.500,522.500 0.00 0,1 1899.9,1836.3 L 1899.9,1836.3 1883.3,1822.7 1866.4,1809.4 1849.1,1796.7 1831.5,1784.5 1813.6,1772.9 1795.6,1762.0 1777.4,1751.9 1759.1,1742.7 1740.7,1734.4 1722.3,1727.1 1703.9,1720.8 1685.6,1715.5 1667.3,1711.3 1649.1,1708.3 1631.1,1706.5 1613.2,1705.8 1595.6,1706.3 1578.2,1708.0 1561.0,1711.0 1544.2,1715.1 1527.6,1720.5 1511.4,1727.1 1495.6,1734.8 1480.1,1743.7 1465.0,1753.8 1450.3,1764.9 1436.1,1777.1 1422.3,1790.3 1408.9,1804.5 1396.0,1819.5 1383.6,1835.4 1371.7,1852.1 1360.3,1869.5 1349.4,1887.5 1339.0,1906.1 1329.1,1925.1 1319.8,1944.4 1310.9,1964.0 1302.6,1983.8  A 522.500,522.500 0.00 0,1 1291.8,1979.2 L 1291.8,1979.2 1300.6,1959.6 1309.9,1940.1 1319.8,1920.8 1330.2,1901.9 1341.1,1883.5 1352.5,1865.6 1364.4,1848.3 1376.8,1831.7 1389.8,1815.9 1403.1,1800.9 1417.0,1786.7 1431.3,1773.6 1446.1,1761.4 1461.3,1750.3 1476.9,1740.2 1492.9,1731.3 1509.2,1723.4 1525.9,1716.8 1543.0,1711.3 1560.3,1707.0 1578.0,1703.9 1595.9,1702.1 1614.0,1701.3 1632.3,1701.8 1650.8,1703.5 1669.4,1706.3 1688.1,1710.2 1706.9,1715.1 1725.8,1721.2 1744.6,1728.2 1763.4,1736.2 1782.1,1745.1 1800.7,1754.9 1819.2,1765.4 1837.4,1776.7 1855.4,1788.6 1873.1,1801.0 1890.4,1813.9 1907.4,1827.2  Z" style="stroke-width: 0.5;  stroke: rgb(0,0,0); fill: rgb(179,177,178);" />
<path d="M 1886.460,1148.354 A 522.500,522.500 0.00 0,1 1893.2,1155.9 L 1893.2,1155.9 1875.4,1171.3 1857.0,1186.4 1838.2,1201.2 1818.9,1215.8 1799.2,1229.9 1779.1,1243.7 1758.6,1256.9 1737.6,1269.7 1716.3,1282.0 1694.7,1293.6 1672.7,1304.7 1650.4,1315.2 1627.8,1325.0 1604.9,1334.1 1581.7,1342.5 1558.3,1350.3 1534.7,1357.3 1510.9,1363.5 1486.9,1369.0 1462.7,1373.8 1438.4,1377.7 1413.9,1381.0 1389.4,1383.4 1364.8,1385.1 1340.2,1386.1 1315.5,1386.3 1290.9,1385.7 1266.3,1384.5 1241.8,1382.5 1217.3,1379.9 1193.0,1376.6 1168.8,1372.7 1144.7,1368.1 1120.9,1363.0 1097.3,1357.4 1074.0,1351.2 1051.0,1344.6 1028.3,1337.5 1005.9,1330.1  A 522.500,522.500 0.00 0,1 1009.3,1320.5 L 1009.3,1320.5 1031.4,1328.3 1053.9,1335.8 1076.7,1342.8 1099.8,1349.3 1123.1,1355.3 1146.7,1360.8 1170.5,1365.6 1194.5,1369.9 1218.6,1373.5 1242.9,1376.4 1267.2,1378.6 1291.6,1380.1 1316.1,1380.9 1340.5,1380.9 1364.9,1380.1 1389.3,1378.5 1413.6,1376.2 1437.8,1373.1 1461.9,1369.2 1485.8,1364.5 1509.6,1359.0 1533.2,1352.7 1556.6,1345.7 1579.7,1337.9 1602.6,1329.4 1625.3,1320.2 1647.6,1310.3 1669.6,1299.7 1691.3,1288.4 1712.7,1276.5 1733.7,1264.1 1754.3,1251.1 1774.5,1237.6 1794.2,1223.6 1813.6,1209.2 1832.5,1194.5 1851.0,1179.3 1869.0,1164.0 1886.5,1148.4  Z" style="stroke-width: 0.5;  stroke: rgb(0,0,0); fill: rgb(179,177,178);" />
</g>
<g id="plot0">
<g id="plot0-axis">
</g>
<line x1='2243.2' y1='1601.0' x2='2243.2' y2='1601.0' style="stroke-width:14.0;stroke:rgb(0,0,0);stroke-linecap:round;fill:none;" />
<line x1='2243.2' y1='1601.0' x2='2282.8' y2='1606.4' style="stroke-width:14.0;stroke:rgb(0,0,0);stroke-linecap:round;fill:none;" />
<line x1='2282.8' y1='1606.4' x2='2282.8' y2='1606.4' style="stroke-width:14.0;stroke:rgb(0,0,0);stroke-linecap:round;fill:none;" />
<text x="2299.3" y="1631.3" font-size="46.8px" font-family="CMUBright-Roman" style="text-anchor:start;fill:rgb(255,38,78);" transform="rotate(7.7,2299.3,1631.3)" >HistomissSECH89<tspan baseline-shift="-40%" font-size="90%">s</tspan>02591</text>
</g>
<defs>
<pattern id="vline" width="10" height="10" patternTransform="rotate(0 0 0)" patternUnits="userSpaceOnUse"><line x1="0" y1="0" x2="0" y2="10" style="stroke:black;stroke-width:5" /></pattern>
<pattern id="hline" width="10" height="10" patternTransform="rotate(0 0 0)" patternUnits="userSpaceOnUse"><line x1="0" y1="0" x2="10" y2="0" style="stroke:black;stroke-width:5" /></pattern>
<pattern id="checker" width="10" height="10" patternTransform="rotate(45 0 0)" patternUnits="userSpaceOnUse"><line x1="0" y1="0" x2="10" y2="0" style="stroke:black;stroke-width:2" /><line x1="0" y1="0" x2="0" y2="10" style="stroke:black;stroke-width:2" /></pattern>
<pattern id="vline-sparse" width="10" height="10" patternTransform="rotate(0 0 0)" patternUnits="userSpaceOnUse"><line x1="0" y1="0" x2="0" y2="10" style="stroke:black;stroke-width:2" /></pattern>
<pattern id="hline-sparse" width="10" height="10" patternTransform="rotate(0 0 0)" patternUnits="userSpaceOnUse"><line x1="0" y1="0" x2="10" y2="0" style="stroke:black;stroke-width:2" /></pattern>
<pattern id="checker" width="10" height="10" patternTransform="rotate(45 0 0)" patternUnits="userSpaceOnUse"><line x1="0" y1="0" x2="10" y2="0" style="stroke:black;stroke-width:5" /><line x1="0" y1="0" x2="0" y2="10" style="stroke:black;stroke-width:4" /></pattern>
</defs>
</svg>
