<?xml version="1.0" encoding="utf-8" standalone="no"?>
<!DOCTYPE svg PUBLIC "-//W3C//DTD SVG 1.1//EN" "http://www.w3.org/Graphics/SVG/1.1/DTD/svg11.dtd">
<svg width="3000px" height="3000px" version="1.1" xmlns="http://www.w3.org/2000/svg" xmlns:xlink="http://www.w3.org/1999/xlink">
<g id="bg">
<rect x="0" y="0" width="3000px" height="3000px" style="fill:rgb(255,255,255);"/>
</g>
<g id="ideograms">
<path d="M1500.000,950.000 A550.000,550.000 40.000 0,1 1687.363,2017.103 L1755.495,2205.140 A750.000,750.000 0.000 0,0 1500.000,750.000 Z" style="stroke-width:2.0;stroke:rgb(0,0,0);stroke-linecap:round;fill:rgb(179,177,178);" />
<text x="2460.3" y="1331.4" font-size="46.8px" font-family="CMUBright-Roman" style="text-anchor:middle;fill:rgb(0,0,0);" transform="rotate(440.0,2460.3,1331.4)" >HistocapCB065<tspan baseline-shift="-40%" font-size="90%">1</tspan></text>
<line x1='1569.0' y1='753.2' x2='1570.1' y2='741.2' style="stroke-width:8.0;stroke:rgb(150,150,150);stroke-linecap:round;fill:none;" />
<text x="1585.1" y="730.7" font-size="41.6px" font-family="CMUBright-Roman" style="text-anchor:start;fill:rgb(150,150,150);" transform="rotate(275.3,1585.1,730.7)" >4000 kb</text>
<line x1='1668.3' y1='769.1' x2='1670.9' y2='757.4' style="stroke-width:8.0;stroke:rgb(150,150,150);stroke-linecap:round;fill:none;" />
<line x1='1764.5' y1='798.2' x2='1768.7' y2='787.0' style="stroke-width:8.0;stroke:rgb(150,150,150);stroke-linecap:round;fill:none;" />
<line x1='1856.0' y1='839.9' x2='1861.7' y2='829.3' style="stroke-width:8.0;stroke:rgb(150,150,150);stroke-linecap:round;fill:none;" />
<line x1='1941.1' y1='893.4' x2='1948.1' y2='883.7' style="stroke-width:8.0;stroke:rgb(150,150,150);stroke-linecap:round;fill:none;" />
<line x1='2018.2' y1='957.9' x2='2026.5' y2='949.2' style="stroke-width:8.0;stroke:rgb(150,150,150);stroke-linecap:round;fill:none;" />
<text x="2044.9" y="950.3" font-size="41.6px" font-family="CMUBright-Roman" style="text-anchor:start;fill:rgb(150,150,150);" transform="rotate(313.7,2044.9,950.3)" >4050 kb</text>
<line x1='2086.1' y1='1032.0' x2='2095.5' y2='1024.6' style="stroke-width:8.0;stroke:rgb(150,150,150);stroke-linecap:round;fill:none;" />
<line x1='2143.4' y1='1114.6' x2='2153.7' y2='1108.5' style="stroke-width:8.0;stroke:rgb(150,150,150);stroke-linecap:round;fill:none;" />
<line x1='2189.2' y1='1204.1' x2='2200.2' y2='1199.4' style="stroke-width:8.0;stroke:rgb(150,150,150);stroke-linecap:round;fill:none;" />
<line x1='2222.6' y1='1299.0' x2='2234.1' y2='1295.8' style="stroke-width:8.0;stroke:rgb(150,150,150);stroke-linecap:round;fill:none;" />
<line x1='2243.0' y1='1397.4' x2='2254.8' y2='1395.8' style="stroke-width:8.0;stroke:rgb(150,150,150);stroke-linecap:round;fill:none;" />
<text x="2268.5" y="1408.0" font-size="41.6px" font-family="CMUBright-Roman" style="text-anchor:start;fill:rgb(150,150,150);" transform="rotate(352.1,2268.5,1408.0)" >4100 kb</text>
<line x1='2250.0' y1='1497.7' x2='2262.0' y2='1497.7' style="stroke-width:8.0;stroke:rgb(150,150,150);stroke-linecap:round;fill:none;" />
<line x1='2243.6' y1='1598.0' x2='2255.5' y2='1599.6' style="stroke-width:8.0;stroke:rgb(150,150,150);stroke-linecap:round;fill:none;" />
<line x1='2223.8' y1='1696.6' x2='2235.4' y2='1699.8' style="stroke-width:8.0;stroke:rgb(150,150,150);stroke-linecap:round;fill:none;" />
<line x1='2191.0' y1='1791.6' x2='2202.0' y2='1796.3' style="stroke-width:8.0;stroke:rgb(150,150,150);stroke-linecap:round;fill:none;" />
<line x1='2145.8' y1='1881.4' x2='2156.1' y2='1887.5' style="stroke-width:8.0;stroke:rgb(150,150,150);stroke-linecap:round;fill:none;" />
<text x="2159.2" y="1905.6" font-size="41.6px" font-family="CMUBright-Roman" style="text-anchor:start;fill:rgb(150,150,150);" transform="rotate(30.6,2159.2,1905.6)" >4150 kb</text>
<line x1='2088.9' y1='1964.4' x2='2098.4' y2='1971.8' style="stroke-width:8.0;stroke:rgb(150,150,150);stroke-linecap:round;fill:none;" />
<line x1='2021.5' y1='2039.0' x2='2029.9' y2='2047.6' style="stroke-width:8.0;stroke:rgb(150,150,150);stroke-linecap:round;fill:none;" />
<line x1='1944.8' y1='2103.9' x2='1951.9' y2='2113.6' style="stroke-width:8.0;stroke:rgb(150,150,150);stroke-linecap:round;fill:none;" />
<line x1='1860.0' y1='2158.0' x2='1865.8' y2='2168.5' style="stroke-width:8.0;stroke:rgb(150,150,150);stroke-linecap:round;fill:none;" />
<line x1='1768.8' y1='2200.2' x2='1773.1' y2='2211.4' style="stroke-width:8.0;stroke:rgb(150,150,150);stroke-linecap:round;fill:none;" />
<text x="1764.3" y="2227.5" font-size="41.6px" font-family="CMUBright-Roman" style="text-anchor:start;fill:rgb(150,150,150);" transform="rotate(69.0,1764.3,2227.5)" >4200 kb</text>
<g id="highlighttrack_0">
<path d="M2035.603,1374.980 A550.000,550.000 40.000 0,1 2046.156,1435.084 L2244.758,1411.478 A750.000,750.000 0.000 0,0 2230.367,1329.518 Z" style="stroke-width:14.0;stroke:rgb(0,0,0);stroke-linecap:round;fill:rgb(255,38,78);" />
</g>
<path d="M1500.000,950.000 A550.000,550.000 40.000 0,1 1687.363,2017.103 L1755.495,2205.140 A750.000,750.000 0.000 0,0 1500.000,750.000 Z" style="stroke-width:2.0;stroke:rgb(0,0,0);stroke-linecap:round;fill:none;" />
<path d="M1469.861,2049.174 A550.000,550.000 40.000 0,1 1284.582,993.942 L1206.248,809.920 A750.000,750.000 0.000 0,0 1458.901,2248.873 Z" style="stroke-width:2.0;stroke:rgb(0,0,0);stroke-linecap:round;fill:rgb(179,177,178);" />
<text x="495.4" y="1676.4" font-size="46.8px" font-family="CMUBright-Roman" style="text-anchor:middle;fill:rgb(0,0,0);" transform="rotate(80.0,495.4,1676.4)" >HistomissSECH88<tspan baseline-shift="-40%" font-size="90%">1</tspan></text>
<line x1='1131.8' y1='846.6' x2='1125.9' y2='836.2' style="stroke-width:8.0;stroke:rgb(150,150,150);stroke-linecap:round;fill:none;" />
<line x1='1047.7' y1='901.7' x2='1040.5' y2='892.2' style="stroke-width:8.0;stroke:rgb(150,150,150);stroke-linecap:round;fill:none;" />
<line x1='971.8' y1='967.6' x2='963.3' y2='959.1' style="stroke-width:8.0;stroke:rgb(150,150,150);stroke-linecap:round;fill:none;" />
<line x1='905.3' y1='1043.0' x2='895.8' y2='1035.7' style="stroke-width:8.0;stroke:rgb(150,150,150);stroke-linecap:round;fill:none;" />
<text x="877.8" y="1039.6" font-size="41.6px" font-family="CMUBright-Roman" style="text-anchor:end;fill:rgb(150,150,150);" transform="rotate(37.5,877.8,1039.6)" >3550 kb</text>
<line x1='849.5' y1='1126.7' x2='839.1' y2='1120.7' style="stroke-width:8.0;stroke:rgb(150,150,150);stroke-linecap:round;fill:none;" />
<line x1='805.4' y1='1217.0' x2='794.3' y2='1212.5' style="stroke-width:8.0;stroke:rgb(150,150,150);stroke-linecap:round;fill:none;" />
<line x1='773.8' y1='1312.5' x2='762.2' y2='1309.5' style="stroke-width:8.0;stroke:rgb(150,150,150);stroke-linecap:round;fill:none;" />
<line x1='755.3' y1='1411.3' x2='743.4' y2='1409.8' style="stroke-width:8.0;stroke:rgb(150,150,150);stroke-linecap:round;fill:none;" />
<line x1='750.1' y1='1511.7' x2='738.1' y2='1511.9' style="stroke-width:8.0;stroke:rgb(150,150,150);stroke-linecap:round;fill:none;" />
<text x="726.4" y="1526.0" font-size="41.6px" font-family="CMUBright-Roman" style="text-anchor:end;fill:rgb(150,150,150);" transform="rotate(-0.9,726.4,1526.0)" >3600 kb</text>
<line x1='758.4' y1='1611.9' x2='746.5' y2='1613.7' style="stroke-width:8.0;stroke:rgb(150,150,150);stroke-linecap:round;fill:none;" />
<line x1='780.0' y1='1710.0' x2='768.5' y2='1713.4' style="stroke-width:8.0;stroke:rgb(150,150,150);stroke-linecap:round;fill:none;" />
<line x1='814.6' y1='1804.5' x2='803.6' y2='1809.3' style="stroke-width:8.0;stroke:rgb(150,150,150);stroke-linecap:round;fill:none;" />
<line x1='861.5' y1='1893.4' x2='851.2' y2='1899.7' style="stroke-width:8.0;stroke:rgb(150,150,150);stroke-linecap:round;fill:none;" />
<line x1='919.8' y1='1975.3' x2='910.5' y2='1982.9' style="stroke-width:8.0;stroke:rgb(150,150,150);stroke-linecap:round;fill:none;" />
<text x="910.2" y="2001.2" font-size="41.6px" font-family="CMUBright-Roman" style="text-anchor:end;fill:rgb(150,150,150);" transform="rotate(-39.3,910.2,2001.2)" >3650 kb</text>
<line x1='988.6' y1='2048.6' x2='980.4' y2='2057.4' style="stroke-width:8.0;stroke:rgb(150,150,150);stroke-linecap:round;fill:none;" />
<line x1='1066.5' y1='2112.1' x2='1059.6' y2='2121.9' style="stroke-width:8.0;stroke:rgb(150,150,150);stroke-linecap:round;fill:none;" />
<line x1='1152.3' y1='2164.5' x2='1146.7' y2='2175.2' style="stroke-width:8.0;stroke:rgb(150,150,150);stroke-linecap:round;fill:none;" />
<line x1='1244.3' y1='2205.1' x2='1240.2' y2='2216.3' style="stroke-width:8.0;stroke:rgb(150,150,150);stroke-linecap:round;fill:none;" />
<line x1='1340.9' y1='2232.9' x2='1338.4' y2='2244.7' style="stroke-width:8.0;stroke:rgb(150,150,150);stroke-linecap:round;fill:none;" />
<text x="1349.5" y="2259.2" font-size="41.6px" font-family="CMUBright-Roman" style="text-anchor:end;fill:rgb(150,150,150);" transform="rotate(-77.8,1349.5,2259.2)" >3700 kb</text>
<line x1='1440.4' y1='2247.6' x2='1439.4' y2='2259.6' style="stroke-width:8.0;stroke:rgb(150,150,150);stroke-linecap:round;fill:none;" />
<path d="M1469.861,2049.174 A550.000,550.000 40.000 0,1 1284.582,993.942 L1206.248,809.920 A750.000,750.000 0.000 0,0 1458.901,2248.873 Z" style="stroke-width:2.0;stroke:rgb(0,0,0);stroke-linecap:round;fill:none;" />
</g>
<g id="track_0">
<path d="M 1875.168,1136.331 A 522.500,522.500 0.00 0,1 1976.8,1286.3 L 1976.8,1286.3 1953.7,1296.5 1930.4,1306.6 1906.8,1316.4 1882.9,1326.1 1858.8,1335.5 1834.5,1344.7 1810.0,1353.6 1785.2,1362.3 1760.3,1370.7 1735.2,1378.7 1709.9,1386.5 1684.4,1394.0 1658.8,1401.1 1633.0,1407.8 1607.1,1414.3 1581.1,1420.3 1555.0,1426.1 1528.8,1431.4 1502.5,1436.4 1476.1,1441.0 1449.7,1445.2 1423.2,1449.1 1396.7,1452.5 1370.2,1455.6 1343.6,1458.4 1317.1,1460.7 1290.6,1462.7 1264.1,1464.3 1237.7,1465.6 1211.3,1466.5 1185.0,1467.1 1158.8,1467.3 1132.7,1467.2 1106.7,1466.8 1080.8,1466.1 1055.1,1465.1 1029.5,1463.8 1004.2,1462.3 979.0,1460.5  A 522.500,522.500 0.00 0,1 1023.5,1285.6 L 1023.5,1285.6 1044.7,1294.9 1066.3,1303.8 1088.3,1312.2 1110.6,1320.2 1133.2,1327.6 1156.0,1334.4 1179.1,1340.6 1202.3,1346.2 1225.8,1351.0 1249.3,1355.2 1273.0,1358.6 1296.8,1361.2 1320.5,1363.0 1344.4,1364.0 1368.2,1364.1 1391.9,1363.5 1415.6,1361.9 1439.3,1359.6 1462.8,1356.3 1486.1,1352.2 1509.3,1347.3 1532.4,1341.5 1555.2,1334.8 1577.8,1327.4 1600.1,1319.1 1622.1,1310.1 1643.9,1300.3 1665.4,1289.8 1686.5,1278.6 1707.2,1266.7 1727.6,1254.1 1747.6,1241.0 1767.2,1227.3 1786.3,1213.1 1805.0,1198.4 1823.3,1183.4 1841.1,1168.0 1858.4,1152.3 1875.2,1136.3  Z" style="stroke-width: 0.5;  stroke: rgb(0,0,0); fill: rgb(179,177,178);" />
<path d="M 1500.000,977.500 A 522.500,522.500 0.00 0,1 1506.3,977.5 L 1506.3,977.5 1505.9,997.8 1505.3,1017.9 1504.5,1037.8 1503.3,1057.2 1501.9,1076.2 1500.2,1094.5 1498.1,1112.0 1495.7,1128.7 1493.0,1144.5 1489.9,1159.3 1486.5,1172.9 1482.8,1185.4 1478.6,1196.6 1474.2,1206.5 1469.4,1215.1 1464.2,1222.3 1458.7,1228.0 1452.8,1232.4 1446.6,1235.2 1440.1,1236.6 1433.3,1236.5 1426.2,1235.0 1418.8,1232.0 1411.1,1227.5 1403.2,1221.7 1395.1,1214.5 1386.7,1205.9 1378.2,1196.1 1369.5,1185.1 1360.6,1172.9 1351.7,1159.6 1342.7,1145.4 1333.6,1130.2 1324.5,1114.2 1315.4,1097.5 1306.4,1080.2 1297.5,1062.5 1288.7,1044.4 1280.1,1026.0  A 522.500,522.500 0.00 0,1 1295.4,1019.2 L 1295.4,1019.2 1303.4,1037.8 1311.5,1056.2 1319.8,1074.2 1328.2,1091.7 1336.6,1108.7 1345.0,1124.9 1353.4,1140.4 1361.7,1154.9 1370.0,1168.4 1378.1,1180.9 1386.1,1192.2 1394.0,1202.3 1401.7,1211.1 1409.1,1218.5 1416.4,1224.6 1423.4,1229.3 1430.1,1232.5 1436.6,1234.3 1442.8,1234.6 1448.7,1233.4 1454.3,1230.7 1459.5,1226.5 1464.5,1220.9 1469.1,1213.9 1473.4,1205.4 1477.3,1195.6 1480.9,1184.6 1484.2,1172.2 1487.1,1158.7 1489.8,1144.0 1492.1,1128.3 1494.0,1111.7 1495.7,1094.2 1497.1,1075.9 1498.2,1057.0 1499.0,1037.6 1499.6,1017.8 1499.9,997.7 1500.0,977.5  Z" style="stroke-width: 0.5;  stroke: rgb(0,0,0); fill: rgb(179,177,178);" />
<path d="M 2016.303,1580.232 A 522.500,522.500 0.00 0,1 1993.8,1670.9 L 1993.8,1670.9 1971.1,1663.3 1948.2,1656.1 1924.9,1649.2 1901.3,1642.8 1877.4,1636.8 1853.3,1631.3 1829.0,1626.4 1804.5,1622.0 1779.8,1618.2 1754.9,1614.9 1730.0,1612.3 1704.9,1610.4 1679.8,1609.1 1654.7,1608.4 1629.5,1608.5 1604.3,1609.2 1579.1,1610.6 1554.0,1612.7 1529.0,1615.5 1504.0,1619.0 1479.2,1623.2 1454.4,1628.1 1429.9,1633.7 1405.4,1640.0 1381.2,1646.9 1357.2,1654.4 1333.4,1662.6 1309.9,1671.4 1286.7,1680.8 1263.7,1690.7 1241.0,1701.2 1218.6,1712.2 1196.6,1723.7 1175.0,1735.6 1153.7,1747.9 1132.8,1760.6 1112.3,1773.6 1092.2,1786.9 1072.5,1800.5  A 522.500,522.500 0.00 0,1 1025.9,1719.5 L 1025.9,1719.5 1048.6,1709.2 1071.6,1699.0 1094.9,1689.1 1118.5,1679.4 1142.3,1670.0 1166.4,1660.8 1190.7,1652.0 1215.3,1643.4 1240.1,1635.3 1265.1,1627.4 1290.3,1620.0 1315.6,1612.9 1341.2,1606.2 1366.9,1599.9 1392.7,1594.1 1418.6,1588.6 1444.7,1583.6 1470.9,1579.0 1497.1,1574.9 1523.4,1571.2 1549.8,1567.9 1576.2,1565.1 1602.6,1562.7 1629.1,1560.8 1655.5,1559.3 1682.0,1558.3 1708.3,1557.7 1734.7,1557.5 1760.9,1557.7 1787.1,1558.3 1813.2,1559.4 1839.2,1560.8 1865.0,1562.6 1890.7,1564.7 1916.2,1567.2 1941.6,1570.0 1966.7,1573.1 1991.6,1576.5 2016.3,1580.2  Z" style="stroke-width: 0.5;  stroke: rgb(0,0,0); fill: rgb(179,177,178);" />
<path d="M 1508.621,977.571 A 522.500,522.500 0.00 0,1 1569.4,982.1 L 1569.4,982.1 1566.5,1002.4 1563.3,1022.6 1559.7,1042.5 1555.7,1062.0 1551.4,1081.0 1546.7,1099.4 1541.6,1117.1 1536.2,1133.9 1530.3,1149.9 1524.0,1164.8 1517.4,1178.7 1510.4,1191.5 1503.0,1203.0 1495.2,1213.3 1487.0,1222.3 1478.5,1230.0 1469.7,1236.3 1460.5,1241.3 1450.9,1244.8 1441.1,1246.9 1431.0,1247.5 1420.6,1246.8 1409.9,1244.6 1399.0,1241.0 1387.9,1236.1 1376.6,1229.9 1365.1,1222.3 1353.5,1213.5 1341.8,1203.5 1330.0,1192.4 1318.2,1180.2 1306.3,1167.0 1294.5,1153.0 1282.7,1138.1 1271.1,1122.4 1259.5,1106.2 1248.2,1089.5 1237.0,1072.4 1226.1,1055.0  A 522.500,522.500 0.00 0,1 1279.4,1026.3 L 1279.4,1026.3 1288.1,1044.7 1296.9,1062.8 1305.9,1080.5 1314.9,1097.8 1324.0,1114.5 1333.2,1130.4 1342.3,1145.6 1351.4,1159.8 1360.4,1173.1 1369.2,1185.3 1378.0,1196.3 1386.6,1206.1 1395.0,1214.7 1403.2,1221.9 1411.2,1227.7 1419.0,1232.1 1426.4,1235.1 1433.6,1236.7 1440.5,1236.7 1447.1,1235.3 1453.4,1232.4 1459.3,1228.1 1465.0,1222.3 1470.2,1215.1 1475.1,1206.6 1479.7,1196.6 1483.9,1185.4 1487.8,1173.0 1491.3,1159.3 1494.4,1144.6 1497.3,1128.8 1499.8,1112.1 1501.9,1094.5 1503.7,1076.2 1505.3,1057.3 1506.5,1037.8 1507.5,1017.9 1508.2,997.8 1508.6,977.6  Z" style="stroke-width: 0.5;  stroke: rgb(0,0,0); fill: rgb(179,177,178);" />
<path d="M 1683.059,1989.383 A 522.500,522.500 0.00 0,1 1678.0,1991.2 L 1678.0,1991.2 1670.7,1971.8 1663.1,1952.6 1655.1,1933.6 1646.7,1915.1 1637.9,1897.2 1628.8,1879.8 1619.3,1863.3 1609.6,1847.5 1599.5,1832.7 1589.1,1818.9 1578.4,1806.2 1567.5,1794.5 1556.3,1784.1 1544.9,1774.9 1533.2,1767.0 1521.3,1760.4 1509.3,1755.2 1497.1,1751.3 1484.7,1748.8 1472.2,1747.8 1459.6,1748.1 1446.9,1749.8 1434.1,1752.8 1421.3,1757.3 1408.4,1763.1 1395.6,1770.1 1382.7,1778.5 1369.9,1788.0 1357.2,1798.8 1344.6,1810.6 1332.1,1823.4 1319.8,1837.2 1307.6,1851.9 1295.7,1867.4 1283.9,1883.6 1272.5,1900.4 1261.3,1917.7 1250.4,1935.3 1239.9,1953.2  A 522.500,522.500 0.00 0,1 1194.9,1924.2 L 1194.9,1924.2 1207.3,1907.3 1220.1,1890.7 1233.2,1874.6 1246.6,1858.9 1260.2,1843.9 1274.1,1829.5 1288.2,1816.0 1302.4,1803.3 1316.8,1791.5 1331.3,1780.8 1345.8,1771.2 1360.4,1762.7 1375.0,1755.4 1389.5,1749.4 1404.0,1744.6 1418.5,1741.1 1432.8,1738.9 1447.0,1738.0 1461.1,1738.5 1475.0,1740.4 1488.7,1743.6 1502.2,1748.1 1515.4,1754.0 1528.4,1761.2 1541.2,1769.6 1553.6,1779.3 1565.8,1790.2 1577.6,1802.2 1589.1,1815.3 1600.2,1829.4 1611.0,1844.5 1621.4,1860.5 1631.5,1877.2 1641.1,1894.7 1650.3,1912.9 1659.2,1931.5 1667.6,1950.5 1675.5,1969.9 1683.1,1989.4  Z" style="stroke-width: 0.5;  stroke: rgb(0,0,0); fill: rgb(179,177,178);" />
<path d="M 2021.656,1470.318 A 522.500,522.500 0.00 0,1 2022.1,1520.6 L 2022.1,1520.6 1996.5,1519.7 1970.7,1518.9 1944.7,1518.4 1918.7,1518.1 1892.5,1518.0 1866.2,1518.1 1839.9,1518.5 1813.4,1519.1 1786.9,1519.9 1760.3,1521.0 1733.7,1522.4 1707.0,1524.0 1680.3,1525.9 1653.5,1528.1 1626.8,1530.6 1600.0,1533.3 1573.3,1536.3 1546.5,1539.6 1519.8,1543.1 1493.1,1547.0 1466.5,1551.1 1439.9,1555.5 1413.4,1560.1 1387.0,1565.1 1360.6,1570.3 1334.4,1575.7 1308.2,1581.4 1282.1,1587.4 1256.2,1593.6 1230.4,1600.0 1204.7,1606.7 1179.1,1613.6 1153.7,1620.7 1128.5,1628.0 1103.4,1635.4 1078.5,1643.1 1053.8,1650.9 1029.2,1658.9 1004.9,1667.0  A 522.500,522.500 0.00 0,1 991.2,1618.7 L 991.2,1618.7 1016.7,1612.7 1042.4,1606.9 1068.2,1601.1 1094.0,1595.4 1120.0,1589.8 1146.0,1584.3 1172.1,1578.9 1198.3,1573.6 1224.5,1568.5 1250.8,1563.4 1277.2,1558.4 1303.6,1553.5 1330.0,1548.8 1356.6,1544.2 1383.1,1539.7 1409.7,1535.3 1436.3,1531.1 1463.0,1527.0 1489.7,1523.0 1516.4,1519.2 1543.1,1515.5 1569.9,1511.9 1596.6,1508.4 1623.3,1505.1 1650.1,1501.9 1676.8,1498.9 1703.6,1496.0 1730.3,1493.2 1757.0,1490.5 1783.6,1488.0 1810.3,1485.6 1836.9,1483.3 1863.4,1481.1 1889.9,1479.0 1916.4,1477.1 1942.8,1475.2 1969.2,1473.5 1995.4,1471.9 2021.7,1470.3  Z" style="stroke-width: 0.5;  stroke: rgb(0,0,0); fill: rgb(179,177,178);" />
<path d="M 1986.203,1308.656 A 522.500,522.500 0.00 0,1 1999.8,1347.8 L 1999.8,1347.8 1974.8,1355.4 1949.6,1362.9 1924.3,1370.4 1898.8,1377.7 1873.3,1385.0 1847.8,1392.1 1822.1,1399.2 1796.3,1406.2 1770.5,1413.0 1744.6,1419.8 1718.6,1426.4 1692.5,1432.9 1666.4,1439.2 1640.2,1445.5 1614.0,1451.6 1587.7,1457.6 1561.4,1463.4 1535.0,1469.1 1508.6,1474.7 1482.1,1480.1 1455.7,1485.4 1429.2,1490.5 1402.7,1495.5 1376.2,1500.4 1349.7,1505.1 1323.1,1509.7 1296.6,1514.1 1270.1,1518.4 1243.6,1522.6 1217.1,1526.6 1190.7,1530.5 1164.3,1534.2 1137.9,1537.9 1111.5,1541.4 1085.2,1544.7 1059.0,1548.0 1032.8,1551.1 1006.7,1554.1 980.6,1557.0  A 522.500,522.500 0.00 0,1 977.7,1515.7 L 977.7,1515.7 1003.4,1514.8 1029.3,1513.8 1055.2,1512.5 1081.3,1511.1 1107.4,1509.4 1133.7,1507.5 1160.0,1505.4 1186.4,1503.0 1212.8,1500.4 1239.3,1497.6 1265.8,1494.5 1292.4,1491.2 1319.0,1487.6 1345.5,1483.7 1372.1,1479.6 1398.6,1475.3 1425.2,1470.6 1451.7,1465.7 1478.1,1460.6 1504.6,1455.1 1530.9,1449.5 1557.2,1443.5 1583.4,1437.3 1609.5,1430.9 1635.6,1424.2 1661.5,1417.3 1687.4,1410.1 1713.1,1402.7 1738.7,1395.1 1764.1,1387.3 1789.4,1379.2 1814.6,1371.0 1839.7,1362.6 1864.5,1354.0 1889.2,1345.2 1913.7,1336.3 1938.1,1327.2 1962.2,1318.0 1986.2,1308.7  Z" style="stroke-width: 0.5;  stroke: rgb(0,0,0); fill: rgb(179,177,178);" />
<path d="M 1767.740,1051.311 A 522.500,522.500 0.00 0,1 1799.8,1072.1 L 1799.8,1072.1 1786.8,1090.2 1773.2,1108.1 1759.1,1125.7 1744.5,1143.0 1729.4,1159.8 1713.8,1176.1 1697.7,1191.9 1681.2,1207.0 1664.2,1221.4 1646.8,1235.1 1628.9,1248.0 1610.6,1260.0 1592.0,1271.2 1573.0,1281.5 1553.6,1290.8 1534.0,1299.1 1514.0,1306.5 1493.7,1312.8 1473.2,1318.1 1452.5,1322.4 1431.6,1325.7 1410.5,1327.9 1389.2,1329.0 1367.8,1329.2 1346.4,1328.3 1324.9,1326.4 1303.3,1323.5 1281.8,1319.7 1260.3,1314.9 1238.8,1309.3 1217.5,1302.8 1196.3,1295.5 1175.3,1287.4 1154.5,1278.6 1134.0,1269.1 1113.7,1259.0 1093.8,1248.4 1074.3,1237.4 1055.2,1225.9  A 522.500,522.500 0.00 0,1 1076.4,1194.2 L 1076.4,1194.2 1094.3,1206.8 1112.7,1219.0 1131.4,1230.8 1150.5,1242.0 1169.8,1252.6 1189.4,1262.6 1209.2,1271.8 1229.2,1280.1 1249.3,1287.7 1269.6,1294.3 1289.8,1300.0 1310.1,1304.6 1330.4,1308.3 1350.6,1310.9 1370.8,1312.5 1390.9,1312.9 1410.8,1312.3 1430.6,1310.5 1450.2,1307.6 1469.5,1303.6 1488.6,1298.5 1507.5,1292.3 1526.0,1285.0 1544.3,1276.6 1562.2,1267.2 1579.7,1256.8 1596.9,1245.4 1613.7,1233.0 1630.1,1219.8 1646.0,1205.7 1661.5,1190.8 1676.5,1175.2 1691.0,1158.9 1705.1,1142.1 1718.7,1124.6 1731.7,1106.8 1744.3,1088.5 1756.3,1070.0 1767.7,1051.3  Z" style="stroke-width: 0.5;  stroke: rgb(0,0,0); fill: rgb(179,177,178);" />
<path d="M 1608.911,988.977 A 522.500,522.500 0.00 0,1 1644.7,997.9 L 1644.7,997.9 1638.7,1017.9 1632.3,1037.8 1625.4,1057.3 1618.1,1076.5 1610.4,1095.2 1602.2,1113.3 1593.6,1130.7 1584.6,1147.3 1575.2,1163.1 1565.3,1177.9 1555.1,1191.7 1544.4,1204.4 1533.3,1216.0 1521.9,1226.4 1510.1,1235.6 1498.0,1243.5 1485.5,1250.1 1472.8,1255.4 1459.7,1259.4 1446.4,1262.0 1432.8,1263.3 1418.9,1263.2 1404.9,1261.8 1390.7,1259.0 1376.3,1255.0 1361.8,1249.7 1347.2,1243.1 1332.5,1235.4 1317.8,1226.5 1303.0,1216.5 1288.3,1205.5 1273.7,1193.5 1259.2,1180.6 1244.8,1167.0 1230.6,1152.6 1216.6,1137.6 1202.8,1122.1 1189.4,1106.1 1176.3,1089.9  A 522.500,522.500 0.00 0,1 1206.0,1068.1 L 1206.0,1068.1 1217.8,1085.0 1229.9,1101.7 1242.2,1118.0 1254.8,1133.8 1267.5,1149.0 1280.4,1163.4 1293.4,1177.0 1306.5,1189.8 1319.6,1201.5 1332.7,1212.3 1345.7,1221.9 1358.7,1230.3 1371.6,1237.5 1384.4,1243.4 1397.0,1248.0 1409.5,1251.3 1421.7,1253.2 1433.7,1253.7 1445.5,1252.9 1457.0,1250.6 1468.3,1246.9 1479.2,1241.9 1489.8,1235.5 1500.1,1227.8 1510.0,1218.7 1519.6,1208.4 1528.9,1196.9 1537.7,1184.2 1546.2,1170.4 1554.2,1155.5 1561.9,1139.6 1569.2,1122.9 1576.1,1105.4 1582.5,1087.1 1588.6,1068.3 1594.3,1048.9 1599.5,1029.2 1604.4,1009.1 1608.9,989.0  Z" style="stroke-width: 0.5;  stroke: rgb(0,0,0); fill: rgb(179,177,178);" />
<path d="M 2000.061,1348.522 A 522.500,522.500 0.00 0,1 2008.8,1381.2 L 2008.8,1381.2 1982.9,1387.3 1956.9,1393.3 1930.9,1399.3 1904.9,1405.2 1878.9,1411.2 1852.8,1417.1 1826.7,1422.9 1800.6,1428.8 1774.4,1434.6 1748.2,1440.3 1722.0,1446.1 1695.8,1451.8 1669.6,1457.4 1643.3,1463.1 1617.0,1468.6 1590.7,1474.2 1564.4,1479.7 1538.1,1485.1 1511.8,1490.5 1485.5,1495.9 1459.1,1501.2 1432.8,1506.5 1406.4,1511.8 1380.0,1517.0 1353.7,1522.1 1327.3,1527.2 1301.0,1532.3 1274.6,1537.3 1248.2,1542.3 1221.9,1547.3 1195.6,1552.2 1169.2,1557.0 1142.9,1561.9 1116.6,1566.7 1090.3,1571.4 1064.0,1576.1 1037.8,1580.8 1011.5,1585.4 985.3,1590.0  A 522.500,522.500 0.00 0,1 980.6,1556.5 L 980.6,1556.5 1006.6,1553.6 1032.7,1550.6 1058.9,1547.5 1085.2,1544.3 1111.5,1541.0 1137.8,1537.5 1164.2,1533.9 1190.7,1530.2 1217.1,1526.3 1243.6,1522.3 1270.1,1518.2 1296.6,1513.9 1323.1,1509.5 1349.7,1505.0 1376.2,1500.3 1402.7,1495.5 1429.2,1490.5 1455.7,1485.4 1482.2,1480.1 1508.6,1474.7 1535.0,1469.2 1561.4,1463.5 1587.7,1457.7 1614.0,1451.8 1640.3,1445.7 1666.5,1439.5 1692.6,1433.2 1718.7,1426.7 1744.7,1420.1 1770.6,1413.4 1796.4,1406.6 1822.2,1399.7 1847.9,1392.6 1873.5,1385.5 1899.0,1378.3 1924.4,1371.0 1949.7,1363.6 1975.0,1356.1 2000.1,1348.5  Z" style="stroke-width: 0.5;  stroke: rgb(0,0,0); fill: rgb(179,177,178);" />
<path d="M 2020.290,1548.002 A 522.500,522.500 0.00 0,1 2016.4,1579.5 L 2016.4,1579.5 1991.7,1575.9 1966.8,1572.5 1941.7,1569.4 1916.3,1566.6 1890.8,1564.2 1865.1,1562.1 1839.3,1560.3 1813.3,1558.9 1787.2,1557.9 1761.0,1557.3 1734.8,1557.2 1708.4,1557.4 1682.0,1558.0 1655.6,1559.1 1629.2,1560.6 1602.7,1562.6 1576.3,1565.0 1549.9,1567.9 1523.5,1571.1 1497.2,1574.9 1471.0,1579.1 1444.8,1583.7 1418.8,1588.7 1392.8,1594.2 1367.0,1600.1 1341.3,1606.4 1315.8,1613.1 1290.4,1620.3 1265.3,1627.8 1240.3,1635.6 1215.5,1643.8 1190.9,1652.4 1166.6,1661.3 1142.5,1670.4 1118.7,1679.9 1095.1,1689.6 1071.8,1699.6 1048.8,1709.8 1026.2,1720.2  A 522.500,522.500 0.00 0,1 1013.6,1691.0 L 1013.6,1691.0 1037.3,1681.8 1061.1,1672.8 1085.3,1664.0 1109.6,1655.4 1134.1,1647.1 1158.9,1638.9 1183.9,1631.0 1209.0,1623.4 1234.3,1616.0 1259.8,1609.0 1285.5,1602.2 1311.2,1595.7 1337.2,1589.6 1363.2,1583.7 1389.4,1578.2 1415.6,1573.1 1442.0,1568.3 1468.4,1563.8 1494.9,1559.7 1521.5,1555.9 1548.1,1552.5 1574.7,1549.4 1601.4,1546.7 1628.0,1544.3 1654.7,1542.3 1681.3,1540.7 1707.9,1539.4 1734.5,1538.4 1761.0,1537.8 1787.5,1537.5 1813.8,1537.5 1840.1,1537.8 1866.3,1538.5 1892.3,1539.4 1918.2,1540.6 1944.0,1542.1 1969.6,1543.8 1995.1,1545.8 2020.3,1548.0  Z" style="stroke-width: 0.5;  stroke: rgb(0,0,0); fill: rgb(179,177,178);" />
<path d="M 1852.052,1113.910 A 522.500,522.500 0.00 0,1 1874.2,1135.3 L 1874.2,1135.3 1857.5,1151.3 1840.2,1167.0 1822.5,1182.4 1804.3,1197.5 1785.7,1212.1 1766.6,1226.3 1747.1,1240.0 1727.1,1253.1 1706.8,1265.7 1686.1,1277.5 1665.1,1288.7 1643.7,1299.2 1622.0,1309.0 1600.0,1317.9 1577.8,1326.1 1555.3,1333.5 1532.5,1340.0 1509.6,1345.7 1486.4,1350.6 1463.2,1354.6 1439.7,1357.7 1416.2,1359.9 1392.6,1361.3 1368.9,1361.8 1345.2,1361.5 1321.5,1360.3 1297.8,1358.3 1274.1,1355.6 1250.5,1352.0 1227.1,1347.6 1203.8,1342.6 1180.6,1336.8 1157.7,1330.4 1134.9,1323.4 1112.5,1315.7 1090.3,1307.5 1068.5,1298.9 1047.0,1289.8 1025.9,1280.3  A 522.500,522.500 0.00 0,1 1039.7,1252.7 L 1039.7,1252.7 1059.9,1263.3 1080.5,1273.5 1101.5,1283.2 1122.8,1292.4 1144.5,1301.0 1166.4,1309.1 1188.5,1316.4 1210.9,1323.1 1233.4,1329.0 1256.1,1334.2 1278.8,1338.5 1301.7,1342.0 1324.6,1344.6 1347.5,1346.3 1370.4,1347.2 1393.2,1347.1 1416.0,1346.0 1438.7,1344.1 1461.3,1341.2 1483.7,1337.4 1506.0,1332.6 1528.1,1326.9 1549.9,1320.3 1571.5,1312.8 1592.8,1304.4 1613.9,1295.2 1634.6,1285.1 1655.0,1274.2 1675.0,1262.6 1694.7,1250.2 1714.0,1237.1 1732.8,1223.4 1751.3,1209.1 1769.3,1194.3 1786.8,1178.9 1803.9,1163.1 1820.4,1147.0 1836.5,1130.6 1852.1,1113.9  Z" style="stroke-width: 0.5;  stroke: rgb(0,0,0); fill: rgb(179,177,178);" />
<path d="M 1828.135,1093.387 A 522.500,522.500 0.00 0,1 1850.2,1112.3 L 1850.2,1112.3 1834.8,1129.0 1818.8,1145.5 1802.3,1161.7 1785.4,1177.5 1767.9,1192.9 1750.0,1207.8 1731.6,1222.2 1712.8,1236.0 1693.6,1249.1 1674.0,1261.5 1654.1,1273.2 1633.7,1284.1 1613.1,1294.3 1592.1,1303.6 1570.8,1312.0 1549.3,1319.5 1527.5,1326.2 1505.5,1331.9 1483.3,1336.7 1461.0,1340.6 1438.4,1343.5 1415.8,1345.5 1393.0,1346.5 1370.2,1346.6 1347.4,1345.8 1324.5,1344.1 1301.6,1341.5 1278.8,1338.0 1256.1,1333.7 1233.5,1328.5 1211.0,1322.6 1188.7,1315.9 1166.5,1308.5 1144.7,1300.5 1123.0,1291.8 1101.7,1282.6 1080.8,1272.9 1060.2,1262.7 1040.0,1252.1  A 522.500,522.500 0.00 0,1 1054.5,1226.9 L 1054.5,1226.9 1073.8,1238.5 1093.6,1249.6 1113.7,1260.3 1134.1,1270.4 1154.9,1280.0 1176.0,1288.9 1197.2,1297.2 1218.7,1304.7 1240.4,1311.4 1262.2,1317.3 1284.1,1322.3 1306.1,1326.4 1328.1,1329.6 1350.1,1331.9 1372.1,1333.2 1394.1,1333.5 1415.9,1332.8 1437.7,1331.1 1459.3,1328.4 1480.8,1324.7 1502.1,1320.0 1523.2,1314.3 1544.0,1307.6 1564.6,1300.0 1584.9,1291.4 1604.9,1281.9 1624.5,1271.5 1643.8,1260.2 1662.8,1248.1 1681.3,1235.3 1699.5,1221.7 1717.2,1207.4 1734.5,1192.5 1751.4,1177.0 1767.7,1161.0 1783.6,1144.6 1799.0,1127.8 1813.8,1110.7 1828.1,1093.4  Z" style="stroke-width: 0.5;  stroke: rgb(0,0,0); fill: rgb(179,177,178);" />
<path d="M 1698.997,1016.878 A 522.500,522.500 0.00 0,1 1723.6,1027.8 L 1723.6,1027.8 1714.2,1046.9 1704.4,1066.0 1694.0,1084.7 1683.2,1103.0 1671.9,1120.8 1660.1,1138.1 1647.9,1154.6 1635.3,1170.5 1622.2,1185.5 1608.7,1199.6 1594.9,1212.8 1580.6,1224.9 1566.0,1236.0 1551.0,1246.0 1535.7,1254.9 1520.1,1262.6 1504.2,1269.1 1488.0,1274.3 1471.6,1278.3 1455.0,1281.1 1438.2,1282.6 1421.2,1282.9 1404.0,1281.9 1386.8,1279.7 1369.4,1276.3 1352.0,1271.7 1334.6,1265.9 1317.1,1259.1 1299.7,1251.1 1282.4,1242.1 1265.2,1232.2 1248.1,1221.3 1231.1,1209.6 1214.4,1197.1 1198.0,1183.9 1181.8,1170.0 1165.9,1155.7 1150.4,1140.9 1135.4,1125.8  A 522.500,522.500 0.00 0,1 1155.1,1107.5 L 1155.1,1107.5 1169.2,1123.2 1183.8,1138.7 1198.6,1153.6 1213.8,1168.1 1229.3,1182.0 1245.0,1195.1 1260.9,1207.4 1276.9,1218.9 1293.1,1229.5 1309.3,1239.0 1325.6,1247.5 1341.9,1254.9 1358.2,1261.2 1374.5,1266.2 1390.7,1270.0 1406.8,1272.6 1422.7,1273.9 1438.6,1273.9 1454.2,1272.7 1469.6,1270.1 1484.8,1266.2 1499.8,1261.1 1514.4,1254.7 1528.8,1247.0 1542.9,1238.1 1556.7,1228.1 1570.1,1216.9 1583.1,1204.6 1595.8,1191.3 1608.0,1177.0 1619.9,1161.8 1631.3,1145.7 1642.4,1128.9 1652.9,1111.4 1663.1,1093.3 1672.8,1074.6 1682.0,1055.6 1690.7,1036.3 1699.0,1016.9  Z" style="stroke-width: 0.5;  stroke: rgb(0,0,0); fill: rgb(179,177,178);" />
<path d="M 1808.049,1922.033 A 522.500,522.500 0.00 0,1 1786.8,1936.8 L 1786.8,1936.8 1774.6,1918.8 1762.0,1901.0 1748.9,1883.5 1735.2,1866.5 1721.2,1849.9 1706.6,1834.0 1691.7,1818.7 1676.3,1804.2 1660.6,1790.4 1644.4,1777.5 1628.0,1765.5 1611.2,1754.5 1594.0,1744.5 1576.6,1735.6 1559.0,1727.7 1541.1,1721.0 1522.9,1715.4 1504.6,1710.9 1486.1,1707.7 1467.5,1705.6 1448.7,1704.7 1429.8,1704.9 1410.9,1706.4 1391.9,1709.0 1373.0,1712.7 1354.0,1717.6 1335.1,1723.5 1316.3,1730.5 1297.6,1738.5 1279.0,1747.5 1260.6,1757.4 1242.4,1768.2 1224.4,1779.8 1206.7,1792.1 1189.3,1805.1 1172.2,1818.7 1155.5,1832.8 1139.2,1847.3 1123.4,1862.2  A 522.500,522.500 0.00 0,1 1105.9,1843.1 L 1105.9,1843.1 1122.7,1828.9 1139.8,1815.0 1157.4,1801.6 1175.4,1788.7 1193.7,1776.3 1212.3,1764.7 1231.2,1753.7 1250.4,1743.5 1269.7,1734.2 1289.3,1725.8 1308.9,1718.3 1328.7,1711.8 1348.6,1706.3 1368.5,1701.8 1388.5,1698.4 1408.5,1696.1 1428.4,1695.0 1448.2,1694.9 1468.0,1696.0 1487.7,1698.2 1507.2,1701.5 1526.5,1706.0 1545.7,1711.6 1564.7,1718.2 1583.4,1726.0 1601.8,1734.7 1620.0,1744.5 1637.8,1755.3 1655.3,1766.9 1672.5,1779.5 1689.3,1792.9 1705.7,1807.1 1721.7,1821.9 1737.3,1837.4 1752.4,1853.5 1767.1,1870.1 1781.2,1887.1 1794.9,1904.5 1808.0,1922.0  Z" style="stroke-width: 0.5;  stroke: rgb(0,0,0); fill: rgb(179,177,178);" />
<path d="M 2018.848,1438.330 A 522.500,522.500 0.00 0,1 2021.1,1462.4 L 2021.1,1462.4 1994.9,1464.3 1968.6,1466.3 1942.2,1468.4 1915.8,1470.6 1889.3,1472.9 1862.8,1475.3 1836.2,1477.8 1809.6,1480.4 1783.0,1483.1 1756.3,1485.9 1729.7,1488.8 1703.0,1491.9 1676.3,1495.0 1649.6,1498.3 1622.9,1501.6 1596.1,1505.1 1569.4,1508.7 1542.7,1512.4 1516.0,1516.2 1489.3,1520.1 1462.7,1524.2 1436.0,1528.4 1409.4,1532.6 1382.8,1537.0 1356.3,1541.5 1329.8,1546.1 1303.3,1550.8 1276.9,1555.6 1250.5,1560.5 1224.2,1565.5 1197.9,1570.6 1171.7,1575.8 1145.6,1581.1 1119.5,1586.4 1093.5,1591.9 1067.5,1597.4 1041.7,1603.0 1015.9,1608.7 990.2,1614.4  A 522.500,522.500 0.00 0,1 985.4,1590.7 L 985.4,1590.7 1011.7,1586.1 1037.9,1581.5 1064.2,1577.0 1090.5,1572.4 1116.8,1567.9 1143.2,1563.5 1169.6,1559.0 1196.0,1554.6 1222.4,1550.3 1248.9,1546.0 1275.4,1541.7 1301.9,1537.4 1328.4,1533.2 1354.9,1529.0 1381.4,1524.9 1408.0,1520.8 1434.6,1516.8 1461.1,1512.8 1487.7,1508.8 1514.3,1504.9 1540.9,1501.0 1567.5,1497.2 1594.1,1493.4 1620.7,1489.6 1647.3,1485.9 1673.9,1482.3 1700.5,1478.6 1727.1,1475.1 1753.7,1471.5 1780.3,1468.0 1806.8,1464.6 1833.4,1461.2 1859.9,1457.8 1886.5,1454.5 1913.0,1451.2 1939.5,1447.9 1966.0,1444.7 1992.4,1441.5 2018.8,1438.3  Z" style="stroke-width: 0.5;  stroke: rgb(0,0,0); fill: rgb(179,177,178);" />
<path d="M 1730.923,1031.299 A 522.500,522.500 0.00 0,1 1749.7,1041.0 L 1749.7,1041.0 1739.1,1059.8 1728.1,1078.5 1716.5,1096.8 1704.5,1114.7 1692.0,1132.2 1679.0,1149.1 1665.5,1165.3 1651.6,1180.8 1637.3,1195.5 1622.6,1209.4 1607.5,1222.3 1591.9,1234.3 1576.1,1245.2 1559.8,1255.1 1543.3,1263.8 1526.5,1271.5 1509.4,1278.0 1492.0,1283.3 1474.4,1287.4 1456.5,1290.3 1438.5,1292.0 1420.4,1292.5 1402.1,1291.8 1383.7,1290.0 1365.2,1286.9 1346.7,1282.7 1328.2,1277.4 1309.6,1271.0 1291.2,1263.6 1272.8,1255.2 1254.5,1245.8 1236.4,1235.5 1218.5,1224.4 1200.8,1212.6 1183.4,1200.0 1166.2,1186.9 1149.4,1173.2 1133.0,1159.0 1117.1,1144.5  A 522.500,522.500 0.00 0,1 1131.7,1129.3 L 1131.7,1129.3 1147.0,1144.4 1162.7,1159.0 1178.7,1173.3 1195.1,1187.0 1211.8,1200.0 1228.7,1212.4 1245.8,1224.1 1263.2,1234.8 1280.6,1244.7 1298.2,1253.6 1315.8,1261.4 1333.5,1268.2 1351.2,1273.9 1368.9,1278.5 1386.5,1281.9 1404.0,1284.0 1421.4,1285.0 1438.7,1284.7 1455.8,1283.2 1472.8,1280.4 1489.5,1276.4 1505.9,1271.1 1522.1,1264.7 1538.1,1257.1 1553.7,1248.2 1569.0,1238.3 1583.9,1227.3 1598.5,1215.2 1612.7,1202.1 1626.6,1188.1 1640.0,1173.2 1653.0,1157.4 1665.5,1141.0 1677.6,1123.8 1689.2,1106.1 1700.4,1087.9 1711.1,1069.3 1721.2,1050.4 1730.9,1031.3  Z" style="stroke-width: 0.5;  stroke: rgb(0,0,0); fill: rgb(179,177,178);" />
<path d="M 1837.888,1898.544 A 522.500,522.500 0.00 0,1 1821.9,1911.5 L 1821.9,1911.5 1808.1,1894.3 1793.8,1877.3 1778.9,1860.6 1763.6,1844.4 1747.8,1828.6 1731.5,1813.4 1714.9,1798.8 1697.8,1785.0 1680.3,1771.8 1662.5,1759.5 1644.3,1748.1 1625.8,1737.5 1606.9,1727.9 1587.8,1719.3 1568.5,1711.7 1548.9,1705.1 1529.1,1699.6 1509.1,1695.1 1488.9,1691.8 1468.6,1689.5 1448.2,1688.4 1427.7,1688.3 1407.2,1689.3 1386.6,1691.4 1366.1,1694.6 1345.5,1698.8 1325.0,1704.0 1304.7,1710.2 1284.4,1717.4 1264.3,1725.5 1244.3,1734.4 1224.6,1744.2 1205.1,1754.7 1186.0,1766.0 1167.1,1777.9 1148.5,1790.4 1130.4,1803.4 1112.7,1816.8 1095.4,1830.6  A 522.500,522.500 0.00 0,1 1082.7,1814.4 L 1082.7,1814.4 1100.6,1801.2 1119.0,1788.3 1137.9,1775.9 1157.1,1764.0 1176.7,1752.7 1196.5,1742.0 1216.7,1732.0 1237.1,1722.7 1257.7,1714.3 1278.5,1706.6 1299.5,1699.9 1320.6,1694.1 1341.8,1689.2 1363.0,1685.4 1384.3,1682.5 1405.6,1680.6 1426.8,1679.8 1448.0,1680.1 1469.1,1681.3 1490.2,1683.7 1511.1,1687.1 1531.8,1691.5 1552.4,1697.0 1572.7,1703.5 1592.8,1711.0 1612.7,1719.4 1632.3,1728.8 1651.6,1739.1 1670.5,1750.3 1689.2,1762.3 1707.4,1775.1 1725.3,1788.7 1742.7,1802.9 1759.8,1817.7 1776.4,1833.0 1792.5,1848.9 1808.1,1865.1 1823.3,1881.7 1837.9,1898.5  Z" style="stroke-width: 0.5;  stroke: rgb(0,0,0); fill: rgb(179,177,178);" />
<path d="M 1978.026,1289.057 A 522.500,522.500 0.00 0,1 1985.7,1307.4 L 1985.7,1307.4 1962.0,1316.7 1938.0,1325.9 1913.8,1334.9 1889.4,1343.7 1864.8,1352.3 1840.0,1360.7 1815.1,1368.9 1789.9,1376.9 1764.6,1384.6 1739.1,1392.1 1713.5,1399.3 1687.8,1406.3 1661.9,1412.9 1635.9,1419.3 1609.8,1425.4 1583.6,1431.2 1557.3,1436.7 1530.9,1441.9 1504.5,1446.8 1478.0,1451.4 1451.4,1455.7 1424.8,1459.6 1398.2,1463.3 1371.6,1466.6 1344.9,1469.6 1318.3,1472.3 1291.7,1474.7 1265.1,1476.8 1238.5,1478.6 1212.0,1480.0 1185.6,1481.2 1159.2,1482.2 1133.0,1482.8 1106.8,1483.2 1080.7,1483.3 1054.8,1483.2 1029.0,1482.8 1003.3,1482.3 977.8,1481.5  A 522.500,522.500 0.00 0,1 978.9,1461.6 L 978.9,1461.6 1004.1,1463.3 1029.5,1464.8 1055.1,1466.1 1080.8,1467.0 1106.7,1467.7 1132.7,1468.1 1158.8,1468.1 1185.1,1467.9 1211.4,1467.3 1237.8,1466.4 1264.2,1465.1 1290.7,1463.5 1317.2,1461.5 1343.8,1459.1 1370.4,1456.4 1396.9,1453.4 1423.4,1449.9 1449.9,1446.1 1476.4,1441.9 1502.8,1437.3 1529.1,1432.4 1555.3,1427.1 1581.5,1421.5 1607.5,1415.5 1633.5,1409.1 1659.2,1402.4 1684.9,1395.4 1710.4,1388.0 1735.8,1380.4 1760.9,1372.4 1785.9,1364.1 1810.7,1355.5 1835.3,1346.7 1859.7,1337.6 1883.8,1328.3 1907.8,1318.8 1931.4,1309.1 1954.9,1299.1 1978.0,1289.1  Z" style="stroke-width: 0.5;  stroke: rgb(0,0,0); fill: rgb(179,177,178);" />
<path d="M 1785.382,1937.680 A 522.500,522.500 0.00 0,1 1768.8,1948.1 L 1768.8,1948.1 1757.5,1929.7 1745.7,1911.6 1733.4,1893.8 1720.6,1876.4 1707.4,1859.6 1693.8,1843.3 1679.7,1827.7 1665.2,1812.8 1650.4,1798.8 1635.1,1785.7 1619.5,1773.5 1603.6,1762.3 1587.4,1752.1 1570.9,1743.0 1554.1,1735.1 1537.1,1728.3 1519.8,1722.6 1502.4,1718.2 1484.7,1715.0 1467.0,1713.0 1449.1,1712.2 1431.1,1712.6 1413.0,1714.3 1394.9,1717.1 1376.7,1721.1 1358.6,1726.3 1340.5,1732.6 1322.5,1739.9 1304.6,1748.4 1286.8,1757.8 1269.2,1768.1 1251.8,1779.4 1234.6,1791.5 1217.6,1804.3 1201.0,1817.8 1184.7,1831.9 1168.8,1846.5 1153.2,1861.5 1138.1,1876.9  A 522.500,522.500 0.00 0,1 1124.2,1863.0 L 1124.2,1863.0 1140.0,1848.2 1156.3,1833.6 1172.9,1819.5 1189.9,1805.8 1207.3,1792.8 1224.9,1780.5 1242.9,1768.9 1261.0,1758.1 1279.4,1748.1 1297.9,1739.1 1316.6,1731.1 1335.4,1724.1 1354.2,1718.1 1373.1,1713.2 1392.0,1709.5 1411.0,1706.9 1429.8,1705.4 1448.6,1705.2 1467.3,1706.1 1485.9,1708.2 1504.4,1711.4 1522.6,1715.9 1540.7,1721.5 1558.5,1728.3 1576.1,1736.1 1593.5,1745.1 1610.5,1755.1 1627.3,1766.1 1643.7,1778.1 1659.8,1791.1 1675.4,1804.8 1690.7,1819.4 1705.6,1834.7 1720.1,1850.7 1734.1,1867.3 1747.7,1884.3 1760.7,1901.8 1773.3,1919.6 1785.4,1937.7  Z" style="stroke-width: 0.5;  stroke: rgb(0,0,0); fill: rgb(179,177,178);" />
<path d="M 1750.536,1041.483 A 522.500,522.500 0.00 0,1 1767.1,1051.0 L 1767.1,1051.0 1755.8,1069.5 1743.9,1087.9 1731.6,1105.9 1718.7,1123.6 1705.3,1140.7 1691.5,1157.4 1677.2,1173.3 1662.5,1188.6 1647.3,1203.1 1631.7,1216.8 1615.7,1229.5 1599.4,1241.3 1582.6,1252.2 1565.6,1262.0 1548.2,1270.7 1530.5,1278.3 1512.5,1284.8 1494.3,1290.2 1475.9,1294.4 1457.3,1297.5 1438.4,1299.4 1419.5,1300.1 1400.4,1299.6 1381.2,1298.0 1361.9,1295.3 1342.6,1291.5 1323.3,1286.5 1304.0,1280.6 1284.8,1273.6 1265.7,1265.6 1246.7,1256.7 1227.9,1246.9 1209.2,1236.3 1190.8,1225.0 1172.7,1213.0 1154.8,1200.4 1137.3,1187.2 1120.2,1173.6 1103.6,1159.6  A 522.500,522.500 0.00 0,1 1116.3,1145.4 L 1116.3,1145.4 1132.3,1159.8 1148.8,1173.9 1165.6,1187.6 1182.8,1200.7 1200.2,1213.3 1218.0,1225.1 1235.9,1236.2 1254.1,1246.4 1272.4,1255.7 1290.8,1264.1 1309.3,1271.6 1327.9,1277.9 1346.4,1283.2 1365.0,1287.4 1383.5,1290.4 1402.0,1292.3 1420.3,1292.9 1438.5,1292.4 1456.5,1290.7 1474.4,1287.8 1492.1,1283.6 1509.5,1278.3 1526.7,1271.8 1543.5,1264.2 1560.1,1255.4 1576.4,1245.5 1592.3,1234.6 1607.9,1222.7 1623.0,1209.7 1637.8,1195.9 1652.2,1181.2 1666.1,1165.7 1679.6,1149.5 1692.6,1132.6 1705.2,1115.2 1717.3,1097.2 1728.9,1078.9 1740.0,1060.3 1750.5,1041.5  Z" style="stroke-width: 0.5;  stroke: rgb(0,0,0); fill: rgb(179,177,178);" />
<path d="M 1577.509,983.281 A 522.500,522.500 0.00 0,1 1594.7,986.2 L 1594.7,986.2 1590.8,1006.4 1586.5,1026.5 1581.8,1046.3 1576.7,1065.8 1571.2,1084.8 1565.4,1103.1 1559.1,1120.8 1552.4,1137.6 1545.3,1153.6 1537.8,1168.5 1529.8,1182.5 1521.5,1195.3 1512.8,1206.9 1503.8,1217.3 1494.3,1226.5 1484.5,1234.3 1474.3,1240.8 1463.8,1245.9 1453.0,1249.7 1441.9,1252.0 1430.5,1253.0 1418.8,1252.5 1406.9,1250.7 1394.7,1247.5 1382.4,1242.9 1369.9,1237.1 1357.2,1229.9 1344.5,1221.6 1331.6,1212.0 1318.7,1201.3 1305.7,1189.6 1292.8,1176.9 1279.9,1163.3 1267.1,1148.9 1254.5,1133.8 1242.0,1118.0 1229.7,1101.8 1217.6,1085.1 1205.8,1068.2  A 522.500,522.500 0.00 0,1 1220.4,1058.6 L 1220.4,1058.6 1231.6,1075.8 1243.0,1092.8 1254.6,1109.4 1266.4,1125.5 1278.4,1141.0 1290.4,1155.8 1302.6,1169.7 1314.7,1182.8 1326.9,1194.8 1339.0,1205.8 1351.0,1215.7 1363.0,1224.4 1374.8,1231.8 1386.5,1238.0 1398.0,1242.8 1409.2,1246.3 1420.3,1248.3 1431.1,1249.0 1441.6,1248.3 1451.8,1246.1 1461.7,1242.6 1471.3,1237.6 1480.6,1231.2 1489.5,1223.5 1498.0,1214.5 1506.2,1204.1 1514.0,1192.5 1521.5,1179.8 1528.5,1165.9 1535.1,1150.9 1541.4,1135.0 1547.2,1118.1 1552.7,1100.5 1557.8,1082.1 1562.5,1063.1 1566.8,1043.6 1570.7,1023.7 1574.3,1003.6 1577.5,983.3  Z" style="stroke-width: 0.5;  stroke: rgb(0,0,0); fill: rgb(179,177,178);" />
<path d="M 2021.514,1532.089 A 522.500,522.500 0.00 0,1 2020.4,1547.3 L 2020.4,1547.3 1995.1,1545.1 1969.7,1543.2 1944.0,1541.5 1918.3,1540.0 1892.4,1538.8 1866.3,1537.9 1840.1,1537.3 1813.8,1537.0 1787.5,1537.0 1761.0,1537.3 1734.5,1538.0 1707.9,1539.0 1681.3,1540.3 1654.7,1542.0 1628.0,1544.0 1601.3,1546.3 1574.7,1549.1 1548.0,1552.1 1521.4,1555.5 1494.9,1559.3 1468.4,1563.4 1441.9,1567.9 1415.6,1572.7 1389.3,1577.9 1363.1,1583.4 1337.1,1589.2 1311.1,1595.3 1285.4,1601.8 1259.7,1608.5 1234.2,1615.6 1208.9,1622.9 1183.7,1630.5 1158.7,1638.4 1134.0,1646.5 1109.4,1654.9 1085.0,1663.4 1060.9,1672.2 1037.0,1681.2 1013.4,1690.3  A 522.500,522.500 0.00 0,1 1008.0,1676.0 L 1008.0,1676.0 1032.1,1667.5 1056.4,1659.1 1080.9,1651.0 1105.6,1643.0 1130.5,1635.1 1155.5,1627.5 1180.8,1620.2 1206.2,1613.0 1231.7,1606.1 1257.4,1599.4 1283.3,1593.0 1309.3,1586.9 1335.3,1581.0 1361.5,1575.5 1387.8,1570.2 1414.2,1565.2 1440.7,1560.5 1467.2,1556.1 1493.8,1552.0 1520.4,1548.2 1547.1,1544.8 1573.8,1541.6 1600.5,1538.7 1627.3,1536.2 1654.0,1533.9 1680.7,1532.0 1707.4,1530.4 1734.1,1529.0 1760.7,1528.0 1787.2,1527.2 1813.7,1526.8 1840.1,1526.5 1866.4,1526.6 1892.5,1526.9 1918.6,1527.5 1944.6,1528.3 1970.4,1529.4 1996.0,1530.6 2021.5,1532.1  Z" style="stroke-width: 0.5;  stroke: rgb(0,0,0); fill: rgb(179,177,178);" />
<path d="M 1820.817,1912.411 A 522.500,522.500 0.00 0,1 1808.8,1921.5 L 1808.8,1921.5 1795.6,1904.0 1781.9,1886.6 1767.7,1869.6 1753.0,1853.1 1737.8,1837.0 1722.2,1821.5 1706.2,1806.6 1689.7,1792.5 1672.9,1779.1 1655.7,1766.5 1638.1,1754.9 1620.2,1744.1 1602.0,1734.3 1583.6,1725.6 1564.8,1717.8 1545.8,1711.2 1526.6,1705.6 1507.2,1701.1 1487.7,1697.8 1468.0,1695.6 1448.2,1694.5 1428.3,1694.5 1408.3,1695.7 1388.3,1697.9 1368.3,1701.3 1348.3,1705.7 1328.4,1711.2 1308.6,1717.7 1288.9,1725.2 1269.3,1733.6 1249.9,1742.9 1230.7,1753.0 1211.8,1763.9 1193.1,1775.6 1174.7,1787.9 1156.7,1800.8 1139.1,1814.2 1121.9,1828.0 1105.1,1842.2  A 522.500,522.500 0.00 0,1 1095.4,1830.6 L 1095.4,1830.6 1112.7,1816.8 1130.4,1803.4 1148.5,1790.4 1167.1,1778.0 1185.9,1766.1 1205.1,1754.8 1224.6,1744.3 1244.3,1734.5 1264.2,1725.6 1284.3,1717.5 1304.6,1710.3 1324.9,1704.1 1345.4,1698.9 1365.9,1694.7 1386.5,1691.6 1407.0,1689.5 1427.5,1688.5 1448.0,1688.6 1468.3,1689.8 1488.6,1692.0 1508.7,1695.4 1528.7,1699.9 1548.5,1705.4 1568.0,1712.0 1587.4,1719.7 1606.4,1728.3 1625.2,1738.0 1643.7,1748.6 1661.8,1760.1 1679.6,1772.4 1697.1,1785.6 1714.1,1799.5 1730.7,1814.1 1746.9,1829.3 1762.7,1845.1 1778.0,1861.4 1792.7,1878.1 1807.0,1895.1 1820.8,1912.4  Z" style="stroke-width: 0.5;  stroke: rgb(0,0,0); fill: rgb(179,177,178);" />
<path d="M 1992.118,1675.574 A 522.500,522.500 0.00 0,1 1987.6,1687.7 L 1987.6,1687.7 1965.4,1679.4 1942.9,1671.5 1920.0,1664.0 1896.8,1656.9 1873.3,1650.2 1849.6,1644.1 1825.6,1638.6 1801.4,1633.6 1777.1,1629.2 1752.6,1625.5 1728.0,1622.4 1703.2,1620.0 1678.4,1618.3 1653.6,1617.3 1628.7,1617.0 1603.8,1617.4 1579.0,1618.6 1554.2,1620.5 1529.4,1623.1 1504.8,1626.5 1480.3,1630.6 1455.9,1635.5 1431.6,1641.0 1407.5,1647.3 1383.7,1654.3 1360.0,1662.0 1336.6,1670.3 1313.4,1679.3 1290.6,1688.9 1268.0,1699.1 1245.7,1709.9 1223.8,1721.2 1202.2,1733.0 1181.0,1745.2 1160.1,1757.9 1139.7,1771.0 1119.7,1784.4 1100.1,1798.2 1081.0,1812.1  A 522.500,522.500 0.00 0,1 1073.4,1801.6 L 1073.4,1801.6 1092.9,1788.0 1113.0,1774.7 1133.4,1761.7 1154.2,1749.0 1175.5,1736.6 1197.1,1724.7 1219.1,1713.2 1241.4,1702.2 1264.0,1691.8 1286.9,1681.8 1310.1,1672.5 1333.6,1663.7 1357.3,1655.5 1381.3,1648.0 1405.5,1641.2 1429.8,1635.0 1454.4,1629.5 1479.0,1624.6 1503.8,1620.5 1528.8,1617.1 1553.8,1614.4 1578.8,1612.4 1603.9,1611.1 1629.1,1610.5 1654.2,1610.6 1679.3,1611.4 1704.3,1612.8 1729.3,1614.9 1754.2,1617.7 1778.9,1621.1 1803.6,1625.1 1828.0,1629.7 1852.2,1634.8 1876.3,1640.5 1900.0,1646.6 1923.5,1653.3 1946.7,1660.3 1969.6,1667.8 1992.1,1675.6  Z" style="stroke-width: 0.5;  stroke: rgb(0,0,0); fill: rgb(179,177,178);" />
<path d="M 1646.332,998.409 A 522.500,522.500 0.00 0,1 1658.6,1002.2 L 1658.6,1002.2 1652.1,1022.1 1645.0,1041.8 1637.6,1061.3 1629.6,1080.4 1621.3,1099.0 1612.4,1117.0 1603.2,1134.3 1593.5,1150.8 1583.4,1166.5 1572.8,1181.3 1561.9,1195.0 1550.5,1207.7 1538.8,1219.3 1526.7,1229.7 1514.2,1238.9 1501.4,1246.9 1488.2,1253.6 1474.8,1259.0 1461.0,1263.0 1447.0,1265.8 1432.7,1267.2 1418.2,1267.2 1403.5,1266.0 1388.6,1263.4 1373.6,1259.6 1358.5,1254.5 1343.2,1248.2 1327.9,1240.7 1312.6,1232.1 1297.3,1222.4 1282.0,1211.7 1266.8,1200.0 1251.7,1187.4 1236.8,1174.1 1222.0,1160.0 1207.5,1145.3 1193.2,1130.0 1179.3,1114.4 1165.7,1098.4  A 522.500,522.500 0.00 0,1 1175.7,1090.3 L 1175.7,1090.3 1188.8,1106.5 1202.3,1122.5 1216.1,1138.0 1230.1,1153.0 1244.4,1167.4 1258.8,1181.0 1273.4,1193.9 1288.1,1205.8 1302.8,1216.8 1317.6,1226.8 1332.3,1235.7 1347.0,1243.4 1361.7,1250.0 1376.3,1255.3 1390.7,1259.3 1405.0,1262.0 1419.1,1263.4 1433.0,1263.5 1446.6,1262.3 1460.0,1259.6 1473.2,1255.7 1486.0,1250.4 1498.5,1243.8 1510.7,1235.9 1522.6,1226.7 1534.1,1216.3 1545.2,1204.7 1555.9,1192.0 1566.3,1178.2 1576.2,1163.4 1585.7,1147.7 1594.8,1131.1 1603.5,1113.7 1611.7,1095.6 1619.5,1076.9 1626.9,1057.8 1633.8,1038.2 1640.3,1018.4 1646.3,998.4  Z" style="stroke-width: 0.5;  stroke: rgb(0,0,0); fill: rgb(179,177,178);" />
<path d="M 1767.108,1949.065 A 522.500,522.500 0.00 0,1 1756.5,1955.2 L 1756.5,1955.2 1745.8,1936.8 1734.7,1918.6 1723.1,1900.7 1711.1,1883.3 1698.7,1866.4 1685.8,1850.1 1672.6,1834.6 1659.0,1819.8 1645.0,1805.9 1630.8,1792.9 1616.2,1781.0 1601.3,1770.0 1586.2,1760.2 1570.8,1751.5 1555.2,1744.0 1539.4,1737.7 1523.4,1732.7 1507.3,1728.9 1491.0,1726.3 1474.6,1725.1 1458.1,1725.1 1441.6,1726.4 1425.0,1729.0 1408.4,1732.8 1391.9,1737.9 1375.4,1744.1 1358.9,1751.6 1342.6,1760.1 1326.3,1769.7 1310.3,1780.4 1294.4,1792.0 1278.7,1804.6 1263.3,1817.9 1248.1,1832.1 1233.2,1846.9 1218.7,1862.3 1204.6,1878.2 1190.8,1894.5 1177.5,1911.1  A 522.500,522.500 0.00 0,1 1167.9,1903.4 L 1167.9,1903.4 1181.7,1887.0 1195.9,1871.0 1210.5,1855.4 1225.5,1840.2 1240.8,1825.7 1256.5,1811.8 1272.4,1798.6 1288.6,1786.4 1305.0,1775.0 1321.6,1764.5 1338.3,1755.1 1355.2,1746.7 1372.2,1739.5 1389.2,1733.4 1406.3,1728.5 1423.4,1724.8 1440.5,1722.3 1457.6,1721.1 1474.6,1721.1 1491.6,1722.4 1508.4,1724.9 1525.1,1728.7 1541.6,1733.8 1558.0,1740.0 1574.1,1747.5 1590.1,1756.1 1605.7,1765.8 1621.1,1776.7 1636.3,1788.5 1651.1,1801.3 1665.5,1815.1 1679.7,1829.7 1693.4,1845.1 1706.8,1861.2 1719.7,1877.9 1732.3,1895.1 1744.3,1912.8 1756.0,1930.8 1767.1,1949.1  Z" style="stroke-width: 0.5;  stroke: rgb(0,0,0); fill: rgb(179,177,178);" />
<path d="M 1691.905,1985.982 A 522.500,522.500 0.00 0,1 1683.7,1989.1 L 1683.7,1989.1 1676.2,1969.6 1668.2,1950.3 1659.7,1931.3 1650.9,1912.6 1641.6,1894.5 1632.0,1877.1 1621.9,1860.3 1611.5,1844.3 1600.7,1829.2 1589.5,1815.1 1578.0,1802.0 1566.1,1790.0 1553.9,1779.2 1541.5,1769.5 1528.7,1761.1 1515.7,1753.9 1502.4,1748.1 1488.9,1743.5 1475.2,1740.3 1461.2,1738.5 1447.2,1738.0 1432.9,1738.8 1418.6,1741.0 1404.1,1744.5 1389.6,1749.3 1375.1,1755.4 1360.5,1762.7 1345.9,1771.2 1331.4,1780.8 1316.9,1791.6 1302.5,1803.3 1288.3,1816.0 1274.2,1829.5 1260.3,1843.9 1246.6,1859.0 1233.2,1874.6 1220.1,1890.8 1207.4,1907.4 1195.0,1924.2  A 522.500,522.500 0.00 0,1 1187.9,1919.0 L 1187.9,1919.0 1200.6,1902.4 1213.7,1886.0 1227.1,1870.0 1240.9,1854.5 1254.9,1839.6 1269.1,1825.4 1283.6,1812.0 1298.2,1799.5 1313.0,1787.9 1327.8,1777.4 1342.7,1767.9 1357.7,1759.6 1372.7,1752.4 1387.7,1746.4 1402.6,1741.7 1417.5,1738.3 1432.2,1736.2 1446.9,1735.5 1461.4,1736.0 1475.7,1737.9 1489.8,1741.2 1503.8,1745.8 1517.5,1751.6 1530.9,1758.8 1544.1,1767.2 1557.0,1776.9 1569.6,1787.7 1581.9,1799.7 1593.8,1812.7 1605.4,1826.8 1616.6,1841.8 1627.5,1857.7 1637.9,1874.4 1648.0,1891.8 1657.6,1909.8 1666.8,1928.4 1675.6,1947.3 1684.0,1966.6 1691.9,1986.0  Z" style="stroke-width: 0.5;  stroke: rgb(0,0,0); fill: rgb(179,177,178);" />
<path d="M 1749.274,1959.205 A 522.500,522.500 0.00 0,1 1742.2,1963.0 L 1742.2,1963.0 1732.2,1944.3 1721.7,1925.9 1710.8,1907.8 1699.4,1890.1 1687.6,1873.0 1675.4,1856.5 1662.9,1840.7 1650.0,1825.7 1636.7,1811.5 1623.1,1798.4 1609.2,1786.2 1595.1,1775.1 1580.6,1765.1 1565.9,1756.3 1551.0,1748.6 1535.8,1742.2 1520.5,1737.1 1505.0,1733.3 1489.4,1730.7 1473.7,1729.4 1457.9,1729.5 1442.0,1730.8 1426.0,1733.4 1410.1,1737.3 1394.1,1742.5 1378.2,1748.9 1362.3,1756.4 1346.5,1765.1 1330.9,1774.9 1315.4,1785.8 1300.0,1797.6 1284.9,1810.3 1270.0,1823.9 1255.3,1838.3 1241.0,1853.3 1227.0,1869.0 1213.3,1885.1 1200.0,1901.6 1187.1,1918.5  A 522.500,522.500 0.00 0,1 1180.7,1913.6 L 1180.7,1913.6 1193.9,1896.9 1207.5,1880.6 1221.5,1864.6 1235.8,1849.1 1250.5,1834.2 1265.5,1820.0 1280.7,1806.6 1296.2,1794.0 1311.8,1782.3 1327.7,1771.6 1343.7,1762.0 1359.8,1753.4 1376.0,1745.9 1392.3,1739.7 1408.6,1734.6 1424.9,1730.8 1441.2,1728.2 1457.5,1726.9 1473.7,1726.9 1489.8,1728.2 1505.8,1730.8 1521.6,1734.7 1537.3,1739.8 1552.8,1746.2 1568.1,1753.8 1583.2,1762.6 1598.0,1772.5 1612.6,1783.5 1626.8,1795.6 1640.8,1808.7 1654.4,1822.7 1667.6,1837.6 1680.5,1853.3 1693.1,1869.7 1705.2,1886.8 1716.9,1904.3 1728.1,1922.3 1738.9,1940.7 1749.3,1959.2  Z" style="stroke-width: 0.5;  stroke: rgb(0,0,0); fill: rgb(179,177,178);" />
</g>
<g id="plot0">
<g id="plot0-axis">
</g>
<line x1='2243.3' y1='1600.1' x2='2243.3' y2='1600.1' style="stroke-width:14.0;stroke:rgb(0,0,0);stroke-linecap:round;fill:none;" />
<line x1='2243.3' y1='1600.1' x2='2282.9' y2='1605.4' style="stroke-width:14.0;stroke:rgb(0,0,0);stroke-linecap:round;fill:none;" />
<line x1='2282.9' y1='1605.4' x2='2282.9' y2='1605.4' style="stroke-width:14.0;stroke:rgb(0,0,0);stroke-linecap:round;fill:none;" />
<text x="2299.4" y="1630.3" font-size="46.8px" font-family="CMUBright-Roman" style="text-anchor:start;fill:rgb(255,38,78);" transform="rotate(7.7,2299.4,1630.3)" >HistocapCB065<tspan baseline-shift="-40%" font-size="90%">s</tspan>00223</text>
</g>
<defs>
<pattern id="hline" width="10" height="10" patternTransform="rotate(0 0 0)" patternUnits="userSpaceOnUse"><line x1="0" y1="0" x2="10" y2="0" style="stroke:black;stroke-width:5" /></pattern>
<pattern id="hline-sparse" width="10" height="10" patternTransform="rotate(0 0 0)" patternUnits="userSpaceOnUse"><line x1="0" y1="0" x2="10" y2="0" style="stroke:black;stroke-width:2" /></pattern>
<pattern id="checker" width="10" height="10" patternTransform="rotate(45 0 0)" patternUnits="userSpaceOnUse"><line x1="0" y1="0" x2="10" y2="0" style="stroke:black;stroke-width:5" /><line x1="0" y1="0" x2="0" y2="10" style="stroke:black;stroke-width:4" /></pattern>
<pattern id="checker" width="10" height="10" patternTransform="rotate(45 0 0)" patternUnits="userSpaceOnUse"><line x1="0" y1="0" x2="10" y2="0" style="stroke:black;stroke-width:2" /><line x1="0" y1="0" x2="0" y2="10" style="stroke:black;stroke-width:2" /></pattern>
<pattern id="vline-sparse" width="10" height="10" patternTransform="rotate(0 0 0)" patternUnits="userSpaceOnUse"><line x1="0" y1="0" x2="0" y2="10" style="stroke:black;stroke-width:2" /></pattern>
<pattern id="vline" width="10" height="10" patternTransform="rotate(0 0 0)" patternUnits="userSpaceOnUse"><line x1="0" y1="0" x2="0" y2="10" style="stroke:black;stroke-width:5" /></pattern>
</defs>
</svg>
