<?xml version="1.0" encoding="utf-8" standalone="no"?>
<!DOCTYPE svg PUBLIC "-//W3C//DTD SVG 1.1//EN" "http://www.w3.org/Graphics/SVG/1.1/DTD/svg11.dtd">
<svg width="3000px" height="3000px" version="1.1" xmlns="http://www.w3.org/2000/svg" xmlns:xlink="http://www.w3.org/1999/xlink">
<g id="bg">
<rect x="0" y="0" width="3000px" height="3000px" style="fill:rgb(255,255,255);"/>
</g>
<g id="ideograms">
<path d="M1500.000,950.000 A550.000,550.000 40.000 0,1 1710.310,2008.203 L1786.786,2193.003 A750.000,750.000 0.000 0,0 1500.000,750.000 Z" style="stroke-width:2.0;stroke:rgb(0,0,0);stroke-linecap:round;fill:rgb(179,177,178);" />
<text x="2456.3" y="1309.9" font-size="46.8px" font-family="CMUBright-Roman" style="text-anchor:middle;fill:rgb(0,0,0);" transform="rotate(438.8,2456.3,1309.9)" >HistocapCB065<tspan baseline-shift="-40%" font-size="90%">1</tspan></text>
<line x1='1512.3' y1='750.1' x2='1512.5' y2='738.1' style="stroke-width:8.0;stroke:rgb(150,150,150);stroke-linecap:round;fill:none;" />
<line x1='1613.8' y1='758.7' x2='1615.6' y2='746.8' style="stroke-width:8.0;stroke:rgb(150,150,150);stroke-linecap:round;fill:none;" />
<line x1='1713.2' y1='780.9' x2='1716.6' y2='769.4' style="stroke-width:8.0;stroke:rgb(150,150,150);stroke-linecap:round;fill:none;" />
<line x1='1808.7' y1='816.5' x2='1813.6' y2='805.5' style="stroke-width:8.0;stroke:rgb(150,150,150);stroke-linecap:round;fill:none;" />
<line x1='1898.4' y1='864.6' x2='1904.8' y2='854.4' style="stroke-width:8.0;stroke:rgb(150,150,150);stroke-linecap:round;fill:none;" />
<text x="1923.0" y="851.8" font-size="41.6px" font-family="CMUBright-Roman" style="text-anchor:start;fill:rgb(150,150,150);" transform="rotate(302.1,1923.0,851.8)" >1950 kb</text>
<line x1='1980.9' y1='924.4' x2='1988.6' y2='915.2' style="stroke-width:8.0;stroke:rgb(150,150,150);stroke-linecap:round;fill:none;" />
<line x1='2054.4' y1='994.9' x2='2063.3' y2='986.8' style="stroke-width:8.0;stroke:rgb(150,150,150);stroke-linecap:round;fill:none;" />
<line x1='2117.7' y1='1074.7' x2='2127.6' y2='1067.9' style="stroke-width:8.0;stroke:rgb(150,150,150);stroke-linecap:round;fill:none;" />
<line x1='2169.7' y1='1162.3' x2='2180.4' y2='1156.9' style="stroke-width:8.0;stroke:rgb(150,150,150);stroke-linecap:round;fill:none;" />
<line x1='2209.3' y1='1256.2' x2='2220.6' y2='1252.3' style="stroke-width:8.0;stroke:rgb(150,150,150);stroke-linecap:round;fill:none;" />
<text x="2236.4" y="1261.6" font-size="41.6px" font-family="CMUBright-Roman" style="text-anchor:start;fill:rgb(150,150,150);" transform="rotate(341.0,2236.4,1261.6)" >2000 kb</text>
<line x1='2235.8' y1='1354.5' x2='2247.5' y2='1352.2' style="stroke-width:8.0;stroke:rgb(150,150,150);stroke-linecap:round;fill:none;" />
<line x1='2248.7' y1='1455.5' x2='2260.7' y2='1454.8' style="stroke-width:8.0;stroke:rgb(150,150,150);stroke-linecap:round;fill:none;" />
<line x1='2247.8' y1='1557.4' x2='2259.8' y2='1558.3' style="stroke-width:8.0;stroke:rgb(150,150,150);stroke-linecap:round;fill:none;" />
<line x1='2233.1' y1='1658.2' x2='2244.9' y2='1660.7' style="stroke-width:8.0;stroke:rgb(150,150,150);stroke-linecap:round;fill:none;" />
<line x1='2204.9' y1='1756.1' x2='2216.2' y2='1760.2' style="stroke-width:8.0;stroke:rgb(150,150,150);stroke-linecap:round;fill:none;" />
<text x="2222.6" y="1777.4" font-size="41.6px" font-family="CMUBright-Roman" style="text-anchor:start;fill:rgb(150,150,150);" transform="rotate(20.0,2222.6,1777.4)" >2050 kb</text>
<line x1='2163.7' y1='1849.2' x2='2174.3' y2='1854.8' style="stroke-width:8.0;stroke:rgb(150,150,150);stroke-linecap:round;fill:none;" />
<line x1='2110.3' y1='1935.9' x2='2120.1' y2='1942.9' style="stroke-width:8.0;stroke:rgb(150,150,150);stroke-linecap:round;fill:none;" />
<line x1='2045.6' y1='2014.6' x2='2054.3' y2='2022.9' style="stroke-width:8.0;stroke:rgb(150,150,150);stroke-linecap:round;fill:none;" />
<line x1='1970.8' y1='2083.8' x2='1978.4' y2='2093.1' style="stroke-width:8.0;stroke:rgb(150,150,150);stroke-linecap:round;fill:none;" />
<line x1='1887.4' y1='2142.2' x2='1893.6' y2='2152.5' style="stroke-width:8.0;stroke:rgb(150,150,150);stroke-linecap:round;fill:none;" />
<text x="1887.7" y="2169.9" font-size="41.6px" font-family="CMUBright-Roman" style="text-anchor:start;fill:rgb(150,150,150);" transform="rotate(58.9,1887.7,2169.9)" >2100 kb</text>
<line x1='1796.8' y1='2188.8' x2='1801.5' y2='2199.8' style="stroke-width:8.0;stroke:rgb(150,150,150);stroke-linecap:round;fill:none;" />
<g id="highlighttrack_0">
<path d="M2037.730,1384.472 A550.000,550.000 40.000 0,1 2041.040,1401.130 L2237.782,1365.178 A750.000,750.000 0.000 0,0 2233.268,1342.462 Z" style="stroke-width:14.0;stroke:rgb(0,0,0);stroke-linecap:round;fill:rgb(255,38,78);" />
</g>
<path d="M1500.000,950.000 A550.000,550.000 40.000 0,1 1710.310,2008.203 L1786.786,2193.003 A750.000,750.000 0.000 0,0 1500.000,750.000 Z" style="stroke-width:2.0;stroke:rgb(0,0,0);stroke-linecap:round;fill:none;" />
<path d="M1491.542,2049.935 A550.000,550.000 40.000 0,1 1281.900,995.092 L1202.591,811.489 A750.000,750.000 0.000 0,0 1488.466,2249.911 Z" style="stroke-width:2.0;stroke:rgb(0,0,0);stroke-linecap:round;fill:rgb(179,177,178);" />
<text x="499.6" y="1698.8" font-size="46.8px" font-family="CMUBright-Roman" style="text-anchor:middle;fill:rgb(0,0,0);" transform="rotate(78.8,499.6,1698.8)" >HistoohiSECH91<tspan baseline-shift="-40%" font-size="90%">1</tspan></text>
<line x1='1130.1' y1='847.5' x2='1124.2' y2='837.1' style="stroke-width:8.0;stroke:rgb(150,150,150);stroke-linecap:round;fill:none;" />
<line x1='1045.1' y1='903.7' x2='1037.9' y2='894.1' style="stroke-width:8.0;stroke:rgb(150,150,150);stroke-linecap:round;fill:none;" />
<text x="1019.5" y="893.2" font-size="41.6px" font-family="CMUBright-Roman" style="text-anchor:end;fill:rgb(150,150,150);" transform="rotate(52.7,1019.5,893.2)" >2050 kb</text>
<line x1='968.5' y1='970.8' x2='960.0' y2='962.3' style="stroke-width:8.0;stroke:rgb(150,150,150);stroke-linecap:round;fill:none;" />
<line x1='901.7' y1='1047.7' x2='892.2' y2='1040.5' style="stroke-width:8.0;stroke:rgb(150,150,150);stroke-linecap:round;fill:none;" />
<line x1='846.0' y1='1132.9' x2='835.5' y2='1127.1' style="stroke-width:8.0;stroke:rgb(150,150,150);stroke-linecap:round;fill:none;" />
<line x1='802.3' y1='1224.9' x2='791.1' y2='1220.5' style="stroke-width:8.0;stroke:rgb(150,150,150);stroke-linecap:round;fill:none;" />
<line x1='771.4' y1='1322.0' x2='759.8' y2='1319.2' style="stroke-width:8.0;stroke:rgb(150,150,150);stroke-linecap:round;fill:none;" />
<text x="744.9" y="1329.9" font-size="41.6px" font-family="CMUBright-Roman" style="text-anchor:end;fill:rgb(150,150,150);" transform="rotate(13.7,744.9,1329.9)" >2100 kb</text>
<line x1='754.0' y1='1422.4' x2='742.1' y2='1421.1' style="stroke-width:8.0;stroke:rgb(150,150,150);stroke-linecap:round;fill:none;" />
<line x1='750.4' y1='1524.2' x2='738.4' y2='1524.6' style="stroke-width:8.0;stroke:rgb(150,150,150);stroke-linecap:round;fill:none;" />
<line x1='760.6' y1='1625.5' x2='748.7' y2='1627.5' style="stroke-width:8.0;stroke:rgb(150,150,150);stroke-linecap:round;fill:none;" />
<line x1='784.4' y1='1724.6' x2='773.0' y2='1728.1' style="stroke-width:8.0;stroke:rgb(150,150,150);stroke-linecap:round;fill:none;" />
<line x1='821.4' y1='1819.4' x2='810.6' y2='1824.6' style="stroke-width:8.0;stroke:rgb(150,150,150);stroke-linecap:round;fill:none;" />
<text x="805.8" y="1842.3" font-size="41.6px" font-family="CMUBright-Roman" style="text-anchor:end;fill:rgb(150,150,150);" transform="rotate(-25.2,805.8,1842.3)" >2150 kb</text>
<line x1='871.0' y1='1908.4' x2='860.9' y2='1915.0' style="stroke-width:8.0;stroke:rgb(150,150,150);stroke-linecap:round;fill:none;" />
<line x1='932.1' y1='1989.9' x2='923.0' y2='1997.7' style="stroke-width:8.0;stroke:rgb(150,150,150);stroke-linecap:round;fill:none;" />
<line x1='1003.7' y1='2062.3' x2='995.8' y2='2071.3' style="stroke-width:8.0;stroke:rgb(150,150,150);stroke-linecap:round;fill:none;" />
<line x1='1084.5' y1='2124.4' x2='1077.9' y2='2134.4' style="stroke-width:8.0;stroke:rgb(150,150,150);stroke-linecap:round;fill:none;" />
<line x1='1172.9' y1='2174.9' x2='1167.7' y2='2185.7' style="stroke-width:8.0;stroke:rgb(150,150,150);stroke-linecap:round;fill:none;" />
<text x="1175.1" y="2202.5" font-size="41.6px" font-family="CMUBright-Roman" style="text-anchor:end;fill:rgb(150,150,150);" transform="rotate(-64.1,1175.1,2202.5)" >2200 kb</text>
<line x1='1267.4' y1='2213.0' x2='1263.7' y2='2224.4' style="stroke-width:8.0;stroke:rgb(150,150,150);stroke-linecap:round;fill:none;" />
<line x1='1366.2' y1='2238.0' x2='1364.0' y2='2249.8' style="stroke-width:8.0;stroke:rgb(150,150,150);stroke-linecap:round;fill:none;" />
<line x1='1467.4' y1='2249.3' x2='1466.9' y2='2261.3' style="stroke-width:8.0;stroke:rgb(150,150,150);stroke-linecap:round;fill:none;" />
<path d="M1491.542,2049.935 A550.000,550.000 40.000 0,1 1281.900,995.092 L1202.591,811.489 A750.000,750.000 0.000 0,0 1488.466,2249.911 Z" style="stroke-width:2.0;stroke:rgb(0,0,0);stroke-linecap:round;fill:none;" />
</g>
<g id="track_0">
<path d="M 1855.203,1883.193 A 522.500,522.500 0.00 0,1 1773.3,1945.3 L 1773.3,1945.3 1762.4,1927.9 1751.1,1910.7 1739.7,1893.9 1728.0,1877.6 1716.1,1861.9 1704.0,1846.9 1691.9,1832.7 1679.7,1819.4 1667.4,1807.1 1655.1,1795.9 1642.9,1785.8 1630.7,1776.9 1618.5,1769.2 1606.5,1762.7 1594.6,1757.7 1582.8,1753.9 1571.2,1751.6 1559.8,1750.6 1548.6,1751.1 1537.7,1753.0 1527.0,1756.3 1516.5,1760.9 1506.4,1767.0 1496.5,1774.5 1487.0,1783.2 1477.8,1793.3 1468.9,1804.6 1460.3,1817.0 1452.1,1830.7 1444.3,1845.3 1436.8,1861.0 1429.7,1877.6 1423.0,1895.0 1416.6,1913.1 1410.6,1931.9 1405.0,1951.2 1399.8,1970.8 1394.9,1990.8 1390.4,2010.9  A 522.500,522.500 0.00 0,1 1292.4,1979.5 L 1292.4,1979.5 1301.1,1960.1 1310.3,1940.9 1319.9,1922.0 1330.0,1903.4 1340.5,1885.4 1351.5,1867.9 1363.0,1851.2 1374.9,1835.1 1387.2,1820.0 1400.0,1805.7 1413.1,1792.3 1426.6,1780.1 1440.5,1768.8 1454.7,1758.7 1469.3,1749.8 1484.2,1742.1 1499.4,1735.6 1514.8,1730.3 1530.5,1726.3 1546.5,1723.6 1562.6,1722.1 1578.9,1721.9 1595.4,1723.0 1612.0,1725.4 1628.7,1729.0 1645.5,1733.7 1662.4,1739.7 1679.2,1746.8 1696.0,1755.0 1712.8,1764.2 1729.4,1774.5 1746.0,1785.6 1762.4,1797.6 1778.6,1810.4 1794.5,1823.9 1810.2,1838.1 1825.6,1852.7 1840.6,1867.8 1855.2,1883.2  Z" style="stroke-width: 0.5;  stroke: rgb(0,0,0); fill: rgb(179,177,178);" />
<path d="M 1901.771,1165.955 A 522.500,522.500 0.00 0,1 1952.6,1238.9 L 1952.6,1238.9 1931.0,1251.1 1909.1,1263.2 1886.9,1275.1 1864.4,1286.7 1841.5,1298.1 1818.4,1309.2 1795.0,1319.9 1771.3,1330.4 1747.4,1340.5 1723.2,1350.2 1698.8,1359.5 1674.1,1368.5 1649.3,1377.0 1624.3,1385.1 1599.0,1392.8 1573.7,1400.0 1548.1,1406.8 1522.5,1413.1 1496.7,1419.0 1470.8,1424.3 1444.8,1429.2 1418.8,1433.7 1392.6,1437.6 1366.5,1441.1 1340.3,1444.0 1314.1,1446.6 1287.9,1448.6 1261.8,1450.2 1235.7,1451.3 1209.6,1452.0 1183.6,1452.3 1157.7,1452.1 1132.0,1451.6 1106.3,1450.6 1080.9,1449.3 1055.6,1447.6 1030.5,1445.5 1005.6,1443.2 980.9,1440.5  A 522.500,522.500 0.00 0,1 998.4,1353.6 L 998.4,1353.6 1021.3,1360.0 1044.5,1366.1 1068.1,1371.7 1091.8,1376.9 1115.9,1381.6 1140.1,1385.8 1164.6,1389.5 1189.2,1392.5 1213.9,1395.0 1238.8,1396.8 1263.7,1398.0 1288.7,1398.5 1313.7,1398.4 1338.7,1397.6 1363.6,1396.0 1388.6,1393.8 1413.4,1390.8 1438.2,1387.2 1462.9,1382.8 1487.4,1377.7 1511.8,1371.9 1535.9,1365.4 1559.9,1358.2 1583.7,1350.3 1607.2,1341.8 1630.5,1332.6 1653.5,1322.8 1676.2,1312.4 1698.6,1301.3 1720.6,1289.8 1742.3,1277.7 1763.7,1265.1 1784.6,1252.0 1805.2,1238.5 1825.4,1224.6 1845.2,1210.3 1864.5,1195.8 1883.4,1181.0 1901.8,1166.0  Z" style="stroke-width: 0.5;  stroke: rgb(0,0,0); fill: rgb(179,177,178);" />
<path d="M 1518.879,977.841 A 522.500,522.500 0.00 0,1 1606.4,988.4 L 1606.4,988.4 1602.0,1008.6 1597.2,1028.6 1592.1,1048.4 1586.6,1067.7 1580.6,1086.6 1574.3,1104.8 1567.5,1122.4 1560.4,1139.1 1552.9,1154.9 1545.0,1169.7 1536.7,1183.5 1528.0,1196.2 1519.0,1207.7 1509.6,1218.0 1499.8,1227.0 1489.7,1234.6 1479.3,1241.0 1468.6,1245.9 1457.6,1249.5 1446.2,1251.7 1434.7,1252.5 1422.9,1251.9 1410.8,1249.9 1398.6,1246.5 1386.2,1241.8 1373.7,1235.7 1361.0,1228.4 1348.2,1219.9 1335.4,1210.2 1322.5,1199.3 1309.7,1187.4 1296.8,1174.6 1284.1,1160.8 1271.4,1146.2 1258.9,1130.9 1246.5,1115.0 1234.4,1098.6 1222.5,1081.8 1211.0,1064.7  A 522.500,522.500 0.00 0,1 1288.1,1022.4 L 1288.1,1022.4 1296.4,1040.9 1304.9,1059.1 1313.5,1077.0 1322.3,1094.5 1331.1,1111.3 1339.9,1127.5 1348.8,1142.8 1357.6,1157.2 1366.4,1170.6 1375.1,1183.0 1383.6,1194.1 1392.1,1204.1 1400.3,1212.8 1408.4,1220.2 1416.3,1226.1 1424.0,1230.7 1431.4,1233.8 1438.6,1235.5 1445.5,1235.7 1452.2,1234.4 1458.5,1231.7 1464.6,1227.4 1470.3,1221.8 1475.7,1214.7 1480.8,1206.2 1485.6,1196.3 1490.0,1185.2 1494.1,1172.8 1497.9,1159.2 1501.4,1144.6 1504.5,1128.8 1507.4,1112.2 1509.9,1094.7 1512.1,1076.4 1514.0,1057.5 1515.6,1038.0 1516.9,1018.2 1518.0,998.1 1518.9,977.8  Z" style="stroke-width: 0.5;  stroke: rgb(0,0,0); fill: rgb(179,177,178);" />
<path d="M 1976.915,1286.556 A 522.500,522.500 0.00 0,1 2005.9,1369.4 L 2005.9,1369.4 1980.3,1376.0 1954.5,1382.6 1928.8,1389.1 1902.9,1395.6 1877.1,1402.0 1851.1,1408.4 1825.2,1414.7 1799.2,1421.0 1773.1,1427.2 1747.0,1433.3 1720.9,1439.4 1694.7,1445.5 1668.5,1451.4 1642.3,1457.3 1616.0,1463.2 1589.8,1468.9 1563.5,1474.6 1537.1,1480.3 1510.8,1485.8 1484.4,1491.3 1458.1,1496.7 1431.7,1502.1 1405.3,1507.4 1378.9,1512.5 1352.5,1517.7 1326.1,1522.7 1299.7,1527.7 1273.3,1532.6 1246.9,1537.5 1220.5,1542.2 1194.2,1546.9 1167.8,1551.6 1141.5,1556.1 1115.2,1560.6 1088.9,1565.1 1062.6,1569.4 1036.4,1573.7 1010.2,1578.0 984.0,1582.2  A 522.500,522.500 0.00 0,1 977.5,1494.0 L 977.5,1494.0 1003.0,1494.2 1028.6,1494.1 1054.3,1493.9 1080.2,1493.3 1106.2,1492.5 1132.3,1491.4 1158.6,1490.1 1184.8,1488.5 1211.2,1486.5 1237.6,1484.3 1264.1,1481.7 1290.6,1478.9 1317.1,1475.7 1343.6,1472.2 1370.1,1468.4 1396.6,1464.2 1423.1,1459.7 1449.5,1454.9 1475.9,1449.8 1502.2,1444.3 1528.4,1438.5 1554.6,1432.4 1580.6,1426.0 1606.6,1419.3 1632.4,1412.2 1658.1,1404.9 1683.7,1397.3 1709.2,1389.4 1734.5,1381.2 1759.6,1372.7 1784.5,1364.0 1809.3,1355.0 1833.9,1345.8 1858.3,1336.4 1882.4,1326.8 1906.4,1317.0 1930.1,1307.0 1953.6,1296.8 1976.9,1286.6  Z" style="stroke-width: 0.5;  stroke: rgb(0,0,0); fill: rgb(179,177,178);" />
<path d="M 2020.336,1452.497 A 522.500,522.500 0.00 0,1 2021.7,1529.1 L 2021.7,1529.1 1996.4,1527.9 1971.0,1526.8 1945.4,1526.0 1919.6,1525.5 1893.7,1525.3 1867.6,1525.3 1841.5,1525.7 1815.2,1526.3 1788.9,1527.3 1762.5,1528.7 1736.1,1530.3 1709.6,1532.4 1683.1,1534.7 1656.5,1537.4 1630.0,1540.5 1603.5,1543.9 1577.0,1547.7 1550.5,1551.9 1524.1,1556.4 1497.7,1561.3 1471.5,1566.6 1445.3,1572.2 1419.2,1578.1 1393.2,1584.4 1367.3,1591.0 1341.5,1598.0 1315.9,1605.3 1290.5,1612.9 1265.2,1620.8 1240.1,1629.1 1215.1,1637.6 1190.4,1646.3 1165.9,1655.4 1141.5,1664.7 1117.4,1674.2 1093.6,1683.9 1069.9,1693.8 1046.5,1703.9 1023.4,1714.2  A 522.500,522.500 0.00 0,1 997.1,1641.9 L 997.1,1641.9 1022.4,1634.8 1047.7,1627.8 1073.2,1620.9 1098.7,1614.1 1124.4,1607.3 1150.1,1600.7 1175.9,1594.1 1201.8,1587.7 1227.8,1581.4 1253.9,1575.1 1280.0,1569.0 1306.2,1563.1 1332.4,1557.2 1358.7,1551.5 1385.1,1545.9 1411.5,1540.4 1437.9,1535.1 1464.4,1529.9 1490.9,1524.9 1517.4,1520.0 1544.0,1515.2 1570.6,1510.6 1597.2,1506.1 1623.8,1501.7 1650.4,1497.5 1677.0,1493.4 1703.6,1489.5 1730.1,1485.7 1756.7,1482.1 1783.3,1478.5 1809.8,1475.2 1836.3,1471.9 1862.7,1468.8 1889.1,1465.8 1915.5,1462.9 1941.8,1460.1 1968.0,1457.5 1994.2,1454.9 2020.3,1452.5  Z" style="stroke-width: 0.5;  stroke: rgb(0,0,0); fill: rgb(179,177,178);" />
<path d="M 1948.981,1767.250 A 522.500,522.500 0.00 0,1 1911.2,1822.4 L 1911.2,1822.4 1893.8,1809.1 1875.9,1796.1 1857.7,1783.6 1839.1,1771.7 1820.2,1760.3 1801.0,1749.6 1781.6,1739.7 1762.0,1730.5 1742.3,1722.2 1722.4,1714.9 1702.4,1708.4 1682.4,1703.0 1662.3,1698.6 1642.2,1695.2 1622.2,1692.9 1602.2,1691.7 1582.4,1691.6 1562.6,1692.6 1543.0,1694.8 1523.6,1698.1 1504.4,1702.5 1485.4,1708.0 1466.7,1714.7 1448.3,1722.4 1430.1,1731.2 1412.3,1741.0 1394.8,1751.8 1377.7,1763.5 1360.9,1776.2 1344.6,1789.7 1328.7,1804.1 1313.2,1819.2 1298.1,1834.9 1283.6,1851.3 1269.5,1868.3 1255.9,1885.7 1242.8,1903.5 1230.2,1921.6 1218.2,1940.0  A 522.500,522.500 0.00 0,1 1164.2,1900.3 L 1164.2,1900.3 1178.9,1883.2 1194.1,1866.3 1209.9,1849.7 1226.1,1833.5 1242.8,1817.7 1260.0,1802.5 1277.7,1787.8 1295.8,1773.7 1314.3,1760.3 1333.2,1747.6 1352.5,1735.7 1372.1,1724.6 1392.1,1714.3 1412.4,1704.9 1433.0,1696.4 1453.9,1688.9 1475.0,1682.3 1496.4,1676.6 1518.0,1671.9 1539.7,1668.3 1561.6,1665.6 1583.7,1663.8 1605.8,1663.1 1628.0,1663.4 1650.3,1664.6 1672.5,1666.8 1694.8,1669.9 1717.0,1673.9 1739.1,1678.8 1761.1,1684.5 1783.0,1691.1 1804.7,1698.4 1826.3,1706.5 1847.5,1715.2 1868.5,1724.6 1889.2,1734.5 1909.5,1745.0 1929.5,1755.9 1949.0,1767.2  Z" style="stroke-width: 0.5;  stroke: rgb(0,0,0); fill: rgb(179,177,178);" />
<path d="M 2010.688,1610.470 A 522.500,522.500 0.00 0,1 1993.1,1672.8 L 1993.1,1672.8 1970.7,1665.2 1948.0,1658.0 1925.0,1651.2 1901.6,1644.9 1878.0,1639.0 1854.2,1633.7 1830.2,1629.0 1805.9,1624.9 1781.5,1621.4 1757.0,1618.5 1732.4,1616.3 1707.8,1614.8 1683.0,1614.0 1658.3,1613.9 1633.6,1614.6 1608.9,1616.0 1584.2,1618.2 1559.7,1621.1 1535.2,1624.7 1510.8,1629.1 1486.7,1634.3 1462.6,1640.2 1438.8,1646.9 1415.2,1654.2 1391.8,1662.3 1368.6,1671.0 1345.8,1680.4 1323.2,1690.5 1300.9,1701.2 1279.0,1712.5 1257.4,1724.3 1236.2,1736.7 1215.3,1749.6 1194.8,1762.9 1174.8,1776.7 1155.2,1790.8 1136.0,1805.3 1117.3,1820.0 1099.0,1835.0  A 522.500,522.500 0.00 0,1 1060.5,1782.5 L 1060.5,1782.5 1081.0,1769.5 1102.0,1756.7 1123.4,1744.1 1145.1,1731.9 1167.1,1719.9 1189.6,1708.3 1212.3,1697.1 1235.3,1686.2 1258.6,1675.8 1282.3,1665.8 1306.1,1656.3 1330.3,1647.3 1354.6,1638.8 1379.2,1630.8 1404.0,1623.4 1428.9,1616.5 1454.1,1610.2 1479.4,1604.4 1504.8,1599.2 1530.3,1594.6 1555.9,1590.5 1581.6,1587.1 1607.4,1584.2 1633.2,1581.9 1659.0,1580.2 1684.8,1579.1 1710.6,1578.5 1736.4,1578.5 1762.1,1579.0 1787.7,1580.0 1813.2,1581.6 1838.5,1583.7 1863.8,1586.2 1888.8,1589.3 1913.7,1592.7 1938.3,1596.6 1962.7,1600.9 1986.8,1605.5 2010.7,1610.5  Z" style="stroke-width: 0.5;  stroke: rgb(0,0,0); fill: rgb(179,177,178);" />
<path d="M 1898.058,1838.462 A 522.500,522.500 0.00 0,1 1855.5,1882.9 L 1855.5,1882.9 1840.9,1867.5 1825.8,1852.4 1810.4,1837.8 1794.7,1823.7 1778.8,1810.2 1762.6,1797.4 1746.1,1785.4 1729.6,1774.2 1712.9,1764.0 1696.1,1754.8 1679.2,1746.6 1662.4,1739.5 1645.5,1733.5 1628.7,1728.7 1611.9,1725.2 1595.3,1722.8 1578.8,1721.7 1562.4,1721.9 1546.2,1723.3 1530.2,1726.0 1514.4,1730.0 1498.9,1735.3 1483.7,1741.8 1468.8,1749.5 1454.1,1758.4 1439.8,1768.5 1425.9,1779.7 1412.3,1792.0 1399.1,1805.3 1386.3,1819.5 1374.0,1834.7 1362.0,1850.7 1350.5,1867.4 1339.4,1884.9 1328.8,1902.9 1318.6,1921.4 1308.9,1940.3 1299.7,1959.5 1291.0,1978.9  A 522.500,522.500 0.00 0,1 1236.5,1951.2 L 1236.5,1951.2 1247.7,1932.6 1259.4,1914.1 1271.7,1896.0 1284.4,1878.2 1297.6,1861.0 1311.3,1844.2 1325.4,1828.2 1340.0,1812.8 1355.1,1798.2 1370.5,1784.4 1386.4,1771.6 1402.7,1759.6 1419.3,1748.7 1436.2,1738.8 1453.5,1729.9 1471.1,1722.2 1489.0,1715.5 1507.1,1710.1 1525.5,1705.7 1544.1,1702.6 1562.9,1700.6 1581.8,1699.7 1600.9,1700.1 1620.0,1701.5 1639.3,1704.2 1658.6,1707.9 1677.9,1712.7 1697.1,1718.6 1716.4,1725.5 1735.5,1733.3 1754.5,1742.1 1773.4,1751.8 1792.1,1762.3 1810.6,1773.5 1828.7,1785.5 1846.6,1798.0 1864.2,1811.1 1881.3,1824.6 1898.1,1838.5  Z" style="stroke-width: 0.5;  stroke: rgb(0,0,0); fill: rgb(179,177,178);" />
<path d="M 1952.669,1239.046 A 522.500,522.500 0.00 0,1 1976.6,1285.9 L 1976.6,1285.9 1953.4,1296.2 1929.9,1306.4 1906.1,1316.4 1882.2,1326.2 1858.0,1335.9 1833.7,1345.3 1809.1,1354.6 1784.3,1363.5 1759.4,1372.3 1734.3,1380.8 1709.0,1389.0 1683.6,1396.9 1658.0,1404.6 1632.3,1412.0 1606.5,1419.0 1580.5,1425.8 1554.5,1432.2 1528.3,1438.3 1502.1,1444.1 1475.8,1449.6 1449.4,1454.8 1423.0,1459.6 1396.5,1464.1 1370.0,1468.3 1343.5,1472.1 1317.0,1475.6 1290.5,1478.8 1264.0,1481.7 1237.6,1484.2 1211.2,1486.5 1184.8,1488.4 1158.5,1490.1 1132.3,1491.4 1106.2,1492.5 1080.2,1493.3 1054.3,1493.8 1028.6,1494.1 1003.0,1494.2 977.5,1494.0  A 522.500,522.500 0.00 0,1 980.8,1441.6 L 980.8,1441.6 1005.4,1444.2 1030.4,1446.5 1055.5,1448.5 1080.8,1450.2 1106.3,1451.5 1131.9,1452.4 1157.7,1452.9 1183.6,1453.0 1209.6,1452.7 1235.6,1452.0 1261.7,1450.8 1287.9,1449.2 1314.1,1447.1 1340.3,1444.5 1366.5,1441.5 1392.6,1438.0 1418.8,1434.0 1444.8,1429.6 1470.8,1424.7 1496.7,1419.3 1522.5,1413.4 1548.1,1407.1 1573.7,1400.3 1599.0,1393.0 1624.3,1385.4 1649.3,1377.2 1674.1,1368.7 1698.8,1359.7 1723.2,1350.4 1747.4,1340.6 1771.3,1330.5 1795.0,1320.1 1818.4,1309.3 1841.6,1298.2 1864.4,1286.9 1887.0,1275.2 1909.2,1263.4 1931.1,1251.3 1952.7,1239.0  Z" style="stroke-width: 0.5;  stroke: rgb(0,0,0); fill: rgb(179,177,178);" />
<path d="M 1840.434,1103.627 A 522.500,522.500 0.00 0,1 1878.5,1139.8 L 1878.5,1139.8 1861.4,1155.7 1843.9,1171.3 1825.9,1186.7 1807.4,1201.7 1788.5,1216.4 1769.1,1230.6 1749.3,1244.3 1729.1,1257.5 1708.5,1270.2 1687.5,1282.2 1666.1,1293.6 1644.5,1304.3 1622.5,1314.3 1600.2,1323.5 1577.6,1332.1 1554.8,1339.8 1531.8,1346.8 1508.5,1353.0 1485.0,1358.3 1461.4,1362.9 1437.6,1366.6 1413.7,1369.5 1389.7,1371.6 1365.6,1372.8 1341.5,1373.3 1317.4,1372.9 1293.2,1371.8 1269.1,1369.9 1245.1,1367.3 1221.2,1363.9 1197.3,1359.8 1173.7,1355.0 1150.2,1349.6 1126.9,1343.6 1103.9,1337.0 1081.2,1329.9 1058.7,1322.3 1036.6,1314.3 1014.9,1305.9  A 522.500,522.500 0.00 0,1 1036.9,1258.1 L 1036.9,1258.1 1057.2,1268.4 1077.8,1278.3 1098.9,1287.7 1120.3,1296.6 1142.0,1305.0 1163.9,1312.7 1186.1,1319.8 1208.4,1326.1 1230.9,1331.7 1253.6,1336.5 1276.3,1340.5 1299.1,1343.6 1321.9,1345.8 1344.7,1347.2 1367.5,1347.6 1390.2,1347.1 1412.8,1345.7 1435.4,1343.3 1457.7,1340.0 1479.9,1335.7 1502.0,1330.5 1523.7,1324.4 1545.3,1317.3 1566.6,1309.4 1587.6,1300.5 1608.3,1290.8 1628.6,1280.3 1648.6,1268.9 1668.3,1256.8 1687.5,1243.9 1706.3,1230.4 1724.8,1216.2 1742.7,1201.5 1760.2,1186.2 1777.3,1170.4 1793.8,1154.1 1809.9,1137.6 1825.4,1120.7 1840.4,1103.6  Z" style="stroke-width: 0.5;  stroke: rgb(0,0,0); fill: rgb(179,177,178);" />
<path d="M 2021.671,1529.426 A 522.500,522.500 0.00 0,1 2016.5,1578.9 L 2016.5,1578.9 1992.1,1575.4 1967.4,1572.1 1942.5,1569.2 1917.3,1566.6 1892.0,1564.4 1866.5,1562.6 1840.9,1561.2 1815.1,1560.2 1789.2,1559.7 1763.2,1559.6 1737.2,1559.9 1711.1,1560.8 1685.0,1562.1 1658.8,1563.9 1632.7,1566.2 1606.5,1569.1 1580.4,1572.4 1554.4,1576.2 1528.4,1580.5 1502.5,1585.3 1476.7,1590.7 1451.0,1596.5 1425.5,1602.8 1400.1,1609.6 1374.9,1616.9 1349.8,1624.6 1325.0,1632.8 1300.3,1641.4 1275.9,1650.4 1251.7,1659.8 1227.8,1669.7 1204.1,1679.9 1180.7,1690.4 1157.5,1701.3 1134.7,1712.5 1112.2,1724.0 1090.0,1735.7 1068.1,1747.6 1046.6,1759.7  A 522.500,522.500 0.00 0,1 1023.9,1715.2 L 1023.9,1715.2 1047.0,1704.9 1070.3,1694.7 1093.9,1684.8 1117.8,1675.0 1141.9,1665.4 1166.2,1656.1 1190.7,1647.0 1215.4,1638.2 1240.3,1629.7 1265.4,1621.4 1290.7,1613.5 1316.1,1605.8 1341.7,1598.5 1367.5,1591.5 1393.3,1584.8 1419.3,1578.5 1445.4,1572.5 1471.6,1566.9 1497.8,1561.6 1524.2,1556.7 1550.6,1552.2 1577.1,1548.0 1603.5,1544.2 1630.1,1540.8 1656.6,1537.7 1683.1,1534.9 1709.6,1532.6 1736.1,1530.6 1762.6,1528.9 1789.0,1527.6 1815.3,1526.6 1841.5,1525.9 1867.7,1525.5 1893.7,1525.5 1919.6,1525.7 1945.4,1526.3 1971.0,1527.1 1996.4,1528.1 2021.7,1529.4  Z" style="stroke-width: 0.5;  stroke: rgb(0,0,0); fill: rgb(179,177,178);" />
<path d="M 1712.768,1022.783 A 522.500,522.500 0.00 0,1 1754.5,1043.6 L 1754.5,1043.6 1743.6,1062.5 1732.3,1081.2 1720.4,1099.7 1708.0,1117.7 1695.1,1135.3 1681.7,1152.3 1667.8,1168.7 1653.5,1184.5 1638.7,1199.4 1623.4,1213.6 1607.8,1226.9 1591.7,1239.2 1575.2,1250.6 1558.3,1260.9 1541.1,1270.3 1523.6,1278.5 1505.8,1285.6 1487.6,1291.6 1469.2,1296.5 1450.6,1300.2 1431.7,1302.7 1412.6,1304.1 1393.4,1304.4 1374.1,1303.5 1354.6,1301.5 1335.1,1298.3 1315.5,1294.1 1295.9,1288.9 1276.4,1282.6 1256.9,1275.4 1237.4,1267.2 1218.2,1258.2 1199.1,1248.3 1180.2,1237.7 1161.5,1226.4 1143.2,1214.5 1125.1,1202.0 1107.5,1189.1 1090.3,1175.8  A 522.500,522.500 0.00 0,1 1120.9,1140.5 L 1120.9,1140.5 1136.5,1155.0 1152.6,1169.2 1169.1,1182.9 1185.8,1196.1 1202.9,1208.7 1220.1,1220.6 1237.6,1231.6 1255.2,1241.9 1272.9,1251.2 1290.6,1259.5 1308.4,1266.8 1326.3,1273.1 1344.0,1278.2 1361.8,1282.2 1379.4,1285.0 1396.9,1286.6 1414.2,1287.0 1431.4,1286.1 1448.4,1284.1 1465.1,1280.7 1481.6,1276.2 1497.7,1270.4 1513.6,1263.4 1529.2,1255.2 1544.4,1245.9 1559.2,1235.4 1573.7,1223.9 1587.8,1211.3 1601.4,1197.7 1614.7,1183.2 1627.5,1167.8 1639.8,1151.7 1651.7,1134.8 1663.1,1117.2 1674.0,1099.1 1684.4,1080.5 1694.4,1061.5 1703.8,1042.2 1712.8,1022.8  Z" style="stroke-width: 0.5;  stroke: rgb(0,0,0); fill: rgb(179,177,178);" />
<path d="M 1668.012,1005.249 A 522.500,522.500 0.00 0,1 1711.0,1022.0 L 1711.0,1022.0 1702.2,1041.5 1692.8,1060.7 1683.0,1079.7 1672.6,1098.3 1661.8,1116.4 1650.5,1134.0 1638.7,1150.9 1626.5,1167.1 1613.8,1182.4 1600.7,1196.9 1587.2,1210.4 1573.2,1223.0 1558.9,1234.5 1544.2,1244.9 1529.1,1254.2 1513.7,1262.3 1497.9,1269.2 1481.9,1274.9 1465.6,1279.4 1449.0,1282.6 1432.2,1284.6 1415.2,1285.3 1398.0,1284.8 1380.7,1283.1 1363.2,1280.2 1345.7,1276.1 1328.1,1270.8 1310.4,1264.4 1292.8,1256.9 1275.2,1248.4 1257.7,1239.0 1240.3,1228.6 1223.0,1217.3 1205.9,1205.3 1189.1,1192.6 1172.5,1179.2 1156.3,1165.3 1140.4,1151.0 1124.9,1136.3  A 522.500,522.500 0.00 0,1 1158.8,1104.3 L 1158.8,1104.3 1172.7,1120.0 1187.0,1135.5 1201.6,1150.5 1216.4,1165.0 1231.6,1178.9 1246.9,1192.1 1262.3,1204.4 1277.9,1215.9 1293.6,1226.4 1309.3,1236.0 1325.0,1244.4 1340.7,1251.7 1356.3,1257.9 1371.9,1262.8 1387.4,1266.5 1402.7,1268.9 1417.8,1270.1 1432.7,1269.9 1447.4,1268.4 1461.9,1265.6 1476.1,1261.4 1490.0,1256.0 1503.7,1249.3 1516.9,1241.3 1529.9,1232.1 1542.4,1221.7 1554.6,1210.1 1566.5,1197.4 1577.9,1183.7 1588.9,1169.0 1599.4,1153.4 1609.6,1136.9 1619.3,1119.6 1628.5,1101.7 1637.4,1083.2 1645.7,1064.2 1653.6,1044.8 1661.0,1025.1 1668.0,1005.2  Z" style="stroke-width: 0.5;  stroke: rgb(0,0,0); fill: rgb(179,177,178);" />
<path d="M 1752.581,1957.394 A 522.500,522.500 0.00 0,1 1716.7,1975.4 L 1716.7,1975.4 1708.1,1957.0 1699.4,1938.8 1690.5,1920.9 1681.4,1903.6 1672.2,1886.8 1663.0,1870.7 1653.7,1855.4 1644.3,1841.1 1635.0,1827.7 1625.8,1815.4 1616.6,1804.3 1607.5,1794.3 1598.5,1785.7 1589.7,1778.4 1581.0,1772.4 1572.4,1767.9 1564.1,1764.8 1556.0,1763.1 1548.1,1762.9 1540.5,1764.2 1533.1,1767.0 1526.0,1771.2 1519.1,1776.9 1512.5,1783.9 1506.3,1792.4 1500.3,1802.2 1494.6,1813.3 1489.3,1825.7 1484.2,1839.2 1479.5,1853.8 1475.1,1869.5 1471.0,1886.1 1467.2,1903.6 1463.7,1921.8 1460.5,1940.7 1457.6,1960.1 1455.0,1979.9 1452.7,2000.0 1450.6,2020.2  A 522.500,522.500 0.00 0,1 1411.8,2015.0 L 1411.8,2015.0 1415.4,1994.8 1419.4,1974.8 1423.6,1955.1 1428.3,1935.8 1433.3,1916.9 1438.6,1898.7 1444.3,1881.3 1450.3,1864.7 1456.7,1849.0 1463.4,1834.3 1470.5,1820.7 1477.9,1808.3 1485.7,1797.0 1493.7,1787.1 1502.1,1778.4 1510.8,1771.1 1519.7,1765.2 1529.0,1760.7 1538.5,1757.6 1548.3,1755.9 1558.3,1755.7 1568.5,1756.9 1578.9,1759.6 1589.5,1763.6 1600.3,1769.1 1611.2,1775.8 1622.2,1783.9 1633.3,1793.2 1644.4,1803.7 1655.6,1815.4 1666.8,1828.1 1677.9,1841.8 1689.0,1856.4 1700.1,1871.8 1710.9,1888.0 1721.7,1904.7 1732.2,1921.9 1742.5,1939.5 1752.6,1957.4  Z" style="stroke-width: 0.5;  stroke: rgb(0,0,0); fill: rgb(179,177,178);" />
<path d="M 1763.802,1048.985 A 522.500,522.500 0.00 0,1 1797.3,1070.3 L 1797.3,1070.3 1784.5,1088.5 1771.1,1106.4 1757.1,1124.0 1742.7,1141.2 1727.8,1158.0 1712.3,1174.3 1696.4,1190.0 1680.0,1205.1 1663.2,1219.4 1646.0,1233.0 1628.3,1245.8 1610.2,1257.7 1591.8,1268.8 1573.0,1278.8 1553.9,1288.0 1534.4,1296.1 1514.7,1303.2 1494.7,1309.3 1474.5,1314.4 1454.0,1318.4 1433.3,1321.3 1412.5,1323.2 1391.5,1324.0 1370.4,1323.7 1349.3,1322.4 1328.1,1320.1 1306.9,1316.8 1285.6,1312.6 1264.5,1307.4 1243.4,1301.3 1222.4,1294.3 1201.6,1286.5 1180.9,1277.9 1160.5,1268.6 1140.4,1258.6 1120.5,1248.0 1101.0,1236.9 1081.8,1225.4 1063.1,1213.4  A 522.500,522.500 0.00 0,1 1086.0,1181.2 L 1086.0,1181.2 1103.5,1194.4 1121.4,1207.1 1139.6,1219.4 1158.2,1231.1 1177.1,1242.3 1196.3,1252.7 1215.7,1262.4 1235.2,1271.3 1254.9,1279.3 1274.7,1286.4 1294.5,1292.5 1314.4,1297.6 1334.3,1301.7 1354.1,1304.8 1373.9,1306.7 1393.6,1307.5 1413.1,1307.2 1432.5,1305.8 1451.7,1303.2 1470.8,1299.5 1489.5,1294.7 1508.0,1288.7 1526.3,1281.6 1544.2,1273.5 1561.8,1264.2 1579.0,1254.0 1595.9,1242.7 1612.4,1230.5 1628.5,1217.3 1644.2,1203.3 1659.4,1188.5 1674.2,1172.9 1688.5,1156.7 1702.3,1139.8 1715.6,1122.4 1728.4,1104.5 1740.8,1086.2 1752.5,1067.7 1763.8,1049.0  Z" style="stroke-width: 0.5;  stroke: rgb(0,0,0); fill: rgb(179,177,178);" />
<path d="M 1816.440,1084.221 A 522.500,522.500 0.00 0,1 1840.7,1103.9 L 1840.7,1103.9 1825.7,1120.9 1810.2,1137.8 1794.1,1154.4 1777.5,1170.6 1760.5,1186.3 1743.0,1201.6 1725.0,1216.4 1706.5,1230.5 1687.7,1244.1 1668.4,1256.9 1648.8,1269.0 1628.8,1280.3 1608.4,1290.8 1587.7,1300.5 1566.7,1309.4 1545.5,1317.3 1523.9,1324.3 1502.1,1330.5 1480.1,1335.6 1457.9,1339.9 1435.5,1343.2 1413.0,1345.5 1390.4,1346.9 1367.7,1347.4 1344.9,1346.9 1322.1,1345.6 1299.3,1343.3 1276.5,1340.1 1253.8,1336.1 1231.2,1331.3 1208.6,1325.7 1186.3,1319.3 1164.1,1312.2 1142.2,1304.5 1120.6,1296.1 1099.2,1287.2 1078.1,1277.7 1057.5,1267.8 1037.2,1257.4  A 522.500,522.500 0.00 0,1 1052.5,1230.3 L 1052.5,1230.3 1071.8,1241.7 1091.6,1252.6 1111.7,1263.1 1132.2,1273.1 1153.0,1282.4 1174.0,1291.2 1195.3,1299.2 1216.8,1306.4 1238.4,1312.9 1260.1,1318.6 1281.9,1323.3 1303.8,1327.2 1325.7,1330.1 1347.6,1332.1 1369.5,1333.0 1391.3,1333.0 1412.9,1332.0 1434.5,1330.0 1455.9,1326.9 1477.1,1322.9 1498.1,1317.8 1518.9,1311.7 1539.5,1304.7 1559.7,1296.7 1579.7,1287.7 1599.3,1277.8 1618.6,1267.0 1637.5,1255.3 1656.0,1242.8 1674.1,1229.6 1691.8,1215.6 1709.1,1200.9 1725.9,1185.6 1742.3,1169.7 1758.1,1153.4 1773.5,1136.6 1788.3,1119.4 1802.7,1101.9 1816.4,1084.2  Z" style="stroke-width: 0.5;  stroke: rgb(0,0,0); fill: rgb(179,177,178);" />
<path d="M 1608.527,988.895 A 522.500,522.500 0.00 0,1 1638.1,996.1 L 1638.1,996.1 1632.4,1016.1 1626.2,1036.0 1619.7,1055.6 1612.7,1074.8 1605.3,1093.5 1597.5,1111.6 1589.2,1129.0 1580.6,1145.6 1571.5,1161.4 1562.0,1176.1 1552.1,1189.9 1541.8,1202.6 1531.2,1214.1 1520.2,1224.5 1508.8,1233.6 1497.1,1241.4 1485.0,1247.9 1472.6,1253.1 1460.0,1257.0 1447.1,1259.4 1433.9,1260.6 1420.5,1260.3 1406.9,1258.7 1393.1,1255.8 1379.2,1251.6 1365.1,1246.0 1350.9,1239.3 1336.7,1231.3 1322.4,1222.2 1308.1,1212.0 1293.8,1200.7 1279.6,1188.5 1265.5,1175.4 1251.5,1161.4 1237.7,1146.8 1224.1,1131.5 1210.8,1115.8 1197.7,1099.6 1185.0,1083.1  A 522.500,522.500 0.00 0,1 1209.8,1065.5 L 1209.8,1065.5 1221.4,1082.6 1233.3,1099.4 1245.5,1115.7 1257.9,1131.6 1270.5,1146.9 1283.2,1161.4 1296.1,1175.2 1309.0,1188.0 1321.9,1199.9 1334.8,1210.7 1347.7,1220.4 1360.6,1228.9 1373.3,1236.2 1386.0,1242.2 1398.5,1246.9 1410.8,1250.3 1422.9,1252.3 1434.8,1252.9 1446.4,1252.1 1457.8,1249.9 1469.0,1246.3 1479.8,1241.3 1490.3,1235.0 1500.5,1227.3 1510.4,1218.3 1519.9,1208.0 1529.0,1196.5 1537.8,1183.9 1546.2,1170.1 1554.2,1155.3 1561.8,1139.4 1569.0,1122.7 1575.9,1105.2 1582.3,1087.0 1588.3,1068.1 1594.0,1048.8 1599.2,1029.1 1604.1,1009.0 1608.5,988.9  Z" style="stroke-width: 0.5;  stroke: rgb(0,0,0); fill: rgb(179,177,178);" />
<path d="M 1701.931,1981.902 A 522.500,522.500 0.00 0,1 1699.8,1982.8 L 1699.8,1982.8 1692.0,1964.1 1683.9,1945.7 1675.8,1927.6 1667.5,1909.9 1659.2,1892.9 1650.9,1876.5 1642.5,1861.0 1634.1,1846.4 1625.8,1832.7 1617.6,1820.2 1609.5,1808.8 1601.5,1798.6 1593.6,1789.8 1586.0,1782.2 1578.4,1776.0 1571.1,1771.3 1564.0,1768.0 1557.2,1766.2 1550.6,1765.8 1544.2,1766.9 1538.1,1769.6 1532.3,1773.6 1526.8,1779.2 1521.6,1786.2 1516.7,1794.5 1512.1,1804.3 1507.8,1815.3 1503.8,1827.6 1500.1,1841.1 1496.7,1855.7 1493.6,1871.4 1490.8,1888.0 1488.3,1905.5 1486.1,1923.7 1484.2,1942.6 1482.5,1962.0 1481.1,1981.8 1480.0,2001.9 1479.0,2022.1  A 522.500,522.500 0.00 0,1 1451.7,2020.3 L 1451.7,2020.3 1453.7,2000.1 1456.0,1980.0 1458.5,1960.3 1461.3,1940.9 1464.3,1922.1 1467.7,1903.9 1471.3,1886.5 1475.2,1869.9 1479.4,1854.3 1483.9,1839.8 1488.7,1826.3 1493.8,1814.1 1499.2,1803.1 1504.8,1793.4 1510.8,1785.1 1517.0,1778.1 1523.4,1772.6 1530.1,1768.6 1537.1,1766.0 1544.3,1764.9 1551.7,1765.3 1559.3,1767.1 1567.1,1770.5 1575.1,1775.2 1583.3,1781.4 1591.6,1788.9 1600.0,1797.8 1608.5,1808.0 1617.1,1819.4 1625.8,1831.9 1634.5,1845.5 1643.2,1860.1 1651.8,1875.7 1660.5,1892.0 1669.0,1909.0 1677.5,1926.7 1685.8,1944.8 1694.0,1963.2 1701.9,1981.9  Z" style="stroke-width: 0.5;  stroke: rgb(0,0,0); fill: rgb(179,177,178);" />
<path d="M 1640.407,996.719 A 522.500,522.500 0.00 0,1 1666.4,1004.7 L 1666.4,1004.7 1659.5,1024.6 1652.2,1044.2 1644.4,1063.6 1636.1,1082.7 1627.4,1101.2 1618.2,1119.1 1608.6,1136.4 1598.5,1152.9 1588.0,1168.5 1577.1,1183.2 1565.8,1196.9 1554.1,1209.5 1542.0,1221.1 1529.6,1231.5 1516.7,1240.6 1503.6,1248.6 1490.1,1255.3 1476.3,1260.7 1462.2,1264.7 1447.8,1267.5 1433.3,1268.9 1418.4,1269.0 1403.4,1267.8 1388.3,1265.4 1373.0,1261.6 1357.5,1256.6 1342.0,1250.3 1326.4,1242.9 1310.9,1234.4 1295.3,1224.8 1279.8,1214.2 1264.3,1202.6 1249.0,1190.1 1233.8,1176.9 1218.8,1162.9 1204.1,1148.3 1189.6,1133.2 1175.5,1117.6 1161.7,1101.8  A 522.500,522.500 0.00 0,1 1183.0,1084.7 L 1183.0,1084.7 1195.8,1101.1 1208.9,1117.2 1222.4,1133.0 1236.1,1148.2 1250.0,1162.7 1264.1,1176.6 1278.3,1189.7 1292.6,1201.8 1307.0,1213.0 1321.4,1223.2 1335.8,1232.3 1350.1,1240.2 1364.4,1246.9 1378.6,1252.4 1392.7,1256.6 1406.6,1259.5 1420.3,1261.0 1433.8,1261.2 1447.1,1260.1 1460.2,1257.6 1472.9,1253.7 1485.4,1248.5 1497.6,1242.0 1509.4,1234.1 1520.9,1225.0 1532.1,1214.7 1542.8,1203.1 1553.2,1190.5 1563.2,1176.7 1572.8,1161.9 1582.0,1146.2 1590.8,1129.6 1599.2,1112.2 1607.1,1094.1 1614.6,1075.4 1621.7,1056.2 1628.4,1036.6 1634.6,1016.7 1640.4,996.7  Z" style="stroke-width: 0.5;  stroke: rgb(0,0,0); fill: rgb(179,177,178);" />
<path d="M 1991.833,1676.371 A 522.500,522.500 0.00 0,1 1984.1,1696.5 L 1984.1,1696.5 1962.4,1688.0 1940.3,1679.8 1917.8,1672.1 1895.1,1664.8 1872.0,1658.1 1848.7,1651.9 1825.2,1646.3 1801.5,1641.3 1777.7,1637.1 1753.7,1633.5 1729.6,1630.6 1705.4,1628.5 1681.2,1627.1 1656.9,1626.5 1632.7,1626.7 1608.5,1627.7 1584.3,1629.4 1560.3,1632.0 1536.3,1635.5 1512.5,1639.7 1488.8,1644.7 1465.4,1650.6 1442.1,1657.2 1419.0,1664.6 1396.2,1672.8 1373.6,1681.7 1351.4,1691.3 1329.4,1701.6 1307.8,1712.6 1286.5,1724.2 1265.5,1736.5 1245.0,1749.3 1224.8,1762.6 1205.1,1776.4 1185.8,1790.7 1166.9,1805.4 1148.5,1820.3 1130.5,1835.6 1113.1,1851.1  A 522.500,522.500 0.00 0,1 1099.0,1834.9 L 1099.0,1834.9 1117.2,1820.0 1135.9,1805.3 1155.1,1790.9 1174.7,1776.7 1194.8,1763.0 1215.2,1749.7 1236.1,1736.9 1257.3,1724.5 1278.9,1712.7 1300.8,1701.5 1323.1,1690.8 1345.6,1680.8 1368.5,1671.5 1391.6,1662.8 1415.0,1654.8 1438.6,1647.5 1462.4,1640.9 1486.4,1635.1 1510.6,1630.0 1534.9,1625.7 1559.3,1622.2 1583.8,1619.4 1608.5,1617.3 1633.1,1616.0 1657.8,1615.5 1682.5,1615.7 1707.2,1616.6 1731.8,1618.2 1756.4,1620.6 1780.8,1623.6 1805.2,1627.2 1829.4,1631.5 1853.3,1636.4 1877.1,1641.8 1900.7,1647.8 1923.9,1654.3 1946.9,1661.3 1969.6,1668.6 1991.8,1676.4  Z" style="stroke-width: 0.5;  stroke: rgb(0,0,0); fill: rgb(179,177,178);" />
<path d="M 1772.660,1945.716 A 522.500,522.500 0.00 0,1 1754.4,1956.4 L 1754.4,1956.4 1744.3,1938.6 1733.9,1921.0 1723.3,1903.8 1712.4,1887.1 1701.5,1871.0 1690.4,1855.6 1679.2,1841.1 1667.9,1827.4 1656.6,1814.7 1645.4,1803.1 1634.1,1792.6 1623.0,1783.3 1611.9,1775.3 1600.9,1768.5 1590.0,1763.1 1579.3,1759.1 1568.8,1756.5 1558.5,1755.3 1548.4,1755.6 1538.5,1757.2 1528.9,1760.3 1519.6,1764.9 1510.5,1770.8 1501.7,1778.1 1493.3,1786.8 1485.1,1796.8 1477.3,1808.0 1469.8,1820.5 1462.6,1834.1 1455.8,1848.7 1449.4,1864.4 1443.3,1881.0 1437.5,1898.5 1432.1,1916.7 1427.0,1935.5 1422.3,1954.8 1417.9,1974.6 1413.9,1994.6 1410.2,2014.7  A 522.500,522.500 0.00 0,1 1389.6,2010.7 L 1389.6,2010.7 1394.1,1990.6 1399.0,1970.7 1404.3,1951.0 1409.9,1931.7 1415.9,1913.0 1422.3,1894.9 1429.1,1877.5 1436.2,1860.9 1443.7,1845.2 1451.6,1830.6 1459.8,1817.0 1468.4,1804.5 1477.3,1793.2 1486.5,1783.2 1496.1,1774.4 1506.0,1767.0 1516.1,1761.0 1526.6,1756.3 1537.3,1753.0 1548.2,1751.2 1559.4,1750.7 1570.8,1751.7 1582.4,1754.0 1594.2,1757.8 1606.1,1762.9 1618.1,1769.3 1630.3,1777.0 1642.5,1786.0 1654.7,1796.1 1667.0,1807.4 1679.2,1819.7 1691.4,1833.0 1703.6,1847.2 1715.6,1862.2 1727.4,1877.9 1739.1,1894.2 1750.6,1911.0 1761.8,1928.2 1772.7,1945.7  Z" style="stroke-width: 0.5;  stroke: rgb(0,0,0); fill: rgb(179,177,178);" />
<path d="M 2014.006,1406.171 A 522.500,522.500 0.00 0,1 2017.3,1426.7 L 2017.3,1426.7 1991.1,1430.4 1964.8,1434.2 1938.5,1438.1 1912.2,1442.0 1885.8,1446.0 1859.5,1450.0 1833.0,1454.2 1806.6,1458.3 1780.2,1462.6 1753.7,1466.9 1727.3,1471.3 1700.8,1475.8 1674.3,1480.3 1647.8,1484.9 1621.3,1489.6 1594.8,1494.4 1568.4,1499.2 1541.9,1504.1 1515.4,1509.1 1489.0,1514.1 1462.6,1519.3 1436.2,1524.5 1409.8,1529.7 1383.4,1535.1 1357.0,1540.5 1330.7,1546.0 1304.4,1551.5 1278.2,1557.1 1252.0,1562.8 1225.8,1568.5 1199.6,1574.3 1173.5,1580.2 1147.4,1586.1 1121.4,1592.0 1095.5,1598.0 1069.5,1604.1 1043.7,1610.2 1017.8,1616.3 992.1,1622.5  A 522.500,522.500 0.00 0,1 987.6,1602.0 L 987.6,1602.0 1013.8,1596.8 1040.0,1591.6 1066.3,1586.4 1092.5,1581.2 1118.8,1576.0 1145.1,1570.8 1171.4,1565.6 1197.6,1560.5 1223.9,1555.3 1250.2,1550.2 1276.6,1545.1 1302.9,1539.9 1329.2,1534.8 1355.5,1529.7 1381.8,1524.7 1408.2,1519.6 1434.5,1514.5 1460.9,1509.5 1487.2,1504.4 1513.5,1499.4 1539.9,1494.4 1566.2,1489.4 1592.6,1484.4 1618.9,1479.4 1645.3,1474.5 1671.6,1469.5 1698.0,1464.6 1724.3,1459.6 1750.7,1454.7 1777.0,1449.8 1803.4,1444.9 1829.7,1440.0 1856.1,1435.2 1882.4,1430.3 1908.7,1425.5 1935.1,1420.6 1961.4,1415.8 1987.7,1411.0 2014.0,1406.2  Z" style="stroke-width: 0.5;  stroke: rgb(0,0,0); fill: rgb(179,177,178);" />
<path d="M 1959.201,1749.281 A 522.500,522.500 0.00 0,1 1949.4,1766.6 L 1949.4,1766.6 1929.8,1755.3 1909.7,1744.4 1889.3,1733.9 1868.5,1723.9 1847.5,1714.5 1826.1,1705.7 1804.5,1697.5 1782.6,1690.1 1760.6,1683.5 1738.4,1677.7 1716.2,1672.7 1693.8,1668.5 1671.4,1665.3 1648.9,1663.0 1626.4,1661.6 1604.0,1661.1 1581.6,1661.7 1559.4,1663.2 1537.2,1665.6 1515.2,1669.1 1493.3,1673.5 1471.6,1678.9 1450.2,1685.2 1428.9,1692.5 1408.0,1700.7 1387.3,1709.7 1366.9,1719.7 1346.9,1730.4 1327.2,1742.0 1307.9,1754.3 1288.9,1767.4 1270.4,1781.1 1252.3,1795.4 1234.6,1810.3 1217.4,1825.7 1200.7,1841.6 1184.4,1857.8 1168.7,1874.3 1153.5,1891.1  A 522.500,522.500 0.00 0,1 1138.8,1877.6 L 1138.8,1877.6 1154.8,1861.2 1171.3,1845.1 1188.3,1829.4 1205.7,1813.9 1223.7,1799.0 1242.1,1784.5 1260.9,1770.5 1280.1,1757.2 1299.8,1744.5 1319.8,1732.5 1340.2,1721.2 1360.9,1710.7 1381.9,1701.0 1403.2,1692.1 1424.8,1684.0 1446.7,1676.8 1468.8,1670.5 1491.1,1665.2 1513.5,1660.7 1536.2,1657.2 1558.9,1654.5 1581.8,1652.9 1604.7,1652.1 1627.8,1652.3 1650.8,1653.3 1673.8,1655.3 1696.8,1658.1 1719.7,1661.8 1742.6,1666.4 1765.3,1671.7 1787.9,1677.8 1810.3,1684.6 1832.5,1692.2 1854.4,1700.3 1876.1,1709.1 1897.4,1718.5 1918.4,1728.3 1939.0,1738.6 1959.2,1749.3  Z" style="stroke-width: 0.5;  stroke: rgb(0,0,0); fill: rgb(179,177,178);" />
<path d="M 2006.419,1371.367 A 522.500,522.500 0.00 0,1 2010.8,1390.2 L 2010.8,1390.2 1984.7,1395.9 1958.5,1401.5 1932.4,1407.1 1906.2,1412.7 1880.0,1418.2 1853.8,1423.8 1827.6,1429.4 1801.4,1435.0 1775.2,1440.5 1749.0,1446.0 1722.7,1451.6 1696.5,1457.1 1670.3,1462.6 1644.0,1468.1 1617.8,1473.6 1591.5,1479.1 1565.3,1484.5 1539.0,1490.0 1512.7,1495.4 1486.5,1500.9 1460.2,1506.3 1433.9,1511.7 1407.7,1517.1 1381.4,1522.5 1355.1,1527.8 1328.9,1533.2 1302.6,1538.5 1276.3,1543.9 1250.1,1549.2 1223.8,1554.5 1197.5,1559.8 1171.3,1565.1 1145.0,1570.4 1118.7,1575.6 1092.5,1580.9 1066.2,1586.1 1040.0,1591.4 1013.8,1596.6 987.5,1601.8  A 522.500,522.500 0.00 0,1 984.1,1582.9 L 984.1,1582.9 1010.3,1578.7 1036.5,1574.4 1062.7,1570.0 1089.0,1565.6 1115.3,1561.2 1141.6,1556.7 1168.0,1552.1 1194.3,1547.4 1220.7,1542.7 1247.1,1538.0 1273.5,1533.1 1299.8,1528.2 1326.2,1523.2 1352.6,1518.2 1379.0,1513.1 1405.4,1507.9 1431.8,1502.6 1458.2,1497.3 1484.6,1491.9 1510.9,1486.5 1537.3,1481.0 1563.6,1475.4 1589.9,1469.7 1616.2,1464.0 1642.5,1458.2 1668.7,1452.4 1694.9,1446.5 1721.1,1440.5 1747.2,1434.5 1773.3,1428.4 1799.4,1422.2 1825.4,1416.0 1851.4,1409.8 1877.4,1403.5 1903.3,1397.2 1929.1,1390.8 1955.0,1384.3 1980.7,1377.9 2006.4,1371.4  Z" style="stroke-width: 0.5;  stroke: rgb(0,0,0); fill: rgb(179,177,178);" />
<path d="M 1797.316,1070.338 A 522.500,522.500 0.00 0,1 1812.5,1081.3 L 1812.5,1081.3 1798.9,1099.1 1784.8,1116.6 1770.1,1133.9 1754.9,1150.9 1739.2,1167.4 1723.0,1183.3 1706.4,1198.8 1689.3,1213.6 1671.7,1227.7 1653.8,1241.0 1635.4,1253.6 1616.6,1265.4 1597.5,1276.3 1578.0,1286.3 1558.2,1295.4 1538.1,1303.5 1517.6,1310.7 1497.0,1316.9 1476.1,1322.0 1454.9,1326.2 1433.6,1329.3 1412.2,1331.4 1390.6,1332.5 1368.8,1332.5 1347.1,1331.6 1325.2,1329.7 1303.4,1326.8 1281.6,1323.0 1259.8,1318.3 1238.1,1312.7 1216.5,1306.3 1195.1,1299.1 1173.9,1291.1 1152.9,1282.4 1132.1,1273.0 1111.6,1263.1 1091.5,1252.6 1071.8,1241.7 1052.5,1230.3  A 522.500,522.500 0.00 0,1 1062.4,1214.5 L 1062.4,1214.5 1081.1,1226.4 1100.3,1238.0 1119.9,1249.0 1139.8,1259.6 1160.0,1269.5 1180.4,1278.7 1201.1,1287.3 1221.9,1295.0 1242.9,1302.0 1264.1,1308.0 1285.3,1313.2 1306.5,1317.4 1327.8,1320.7 1349.0,1322.9 1370.2,1324.2 1391.3,1324.4 1412.3,1323.5 1433.1,1321.6 1453.8,1318.7 1474.3,1314.7 1494.5,1309.6 1514.6,1303.5 1534.3,1296.3 1553.8,1288.2 1572.9,1279.0 1591.7,1268.9 1610.2,1257.8 1628.2,1245.9 1645.9,1233.1 1663.2,1219.5 1680.0,1205.2 1696.4,1190.1 1712.3,1174.4 1727.7,1158.1 1742.7,1141.3 1757.1,1124.0 1771.1,1106.4 1784.5,1088.5 1797.3,1070.3  Z" style="stroke-width: 0.5;  stroke: rgb(0,0,0); fill: rgb(179,177,178);" />
<path d="M 2017.432,1427.399 A 522.500,522.500 0.00 0,1 2019.5,1444.3 L 2019.5,1444.3 1993.4,1447.1 1967.2,1450.1 1940.9,1453.1 1914.6,1456.2 1888.3,1459.5 1861.9,1462.8 1835.4,1466.3 1809.0,1469.9 1782.5,1473.6 1756.0,1477.4 1729.4,1481.3 1702.9,1485.4 1676.3,1489.6 1649.8,1493.9 1623.2,1498.3 1596.6,1502.9 1570.1,1507.5 1543.5,1512.3 1517.0,1517.2 1490.5,1522.3 1464.0,1527.5 1437.6,1532.8 1411.2,1538.2 1384.8,1543.7 1358.5,1549.3 1332.2,1555.1 1306.0,1561.0 1279.8,1567.0 1253.6,1573.1 1227.6,1579.3 1201.6,1585.6 1175.7,1592.0 1149.8,1598.4 1124.0,1605.0 1098.3,1611.7 1072.7,1618.4 1047.2,1625.3 1021.7,1632.2 996.4,1639.1  A 522.500,522.500 0.00 0,1 992.1,1622.6 L 992.1,1622.6 1017.8,1616.4 1043.7,1610.3 1069.5,1604.1 1095.4,1598.1 1121.4,1592.1 1147.4,1586.1 1173.5,1580.2 1199.6,1574.4 1225.8,1568.6 1251.9,1562.8 1278.2,1557.2 1304.4,1551.6 1330.7,1546.1 1357.0,1540.6 1383.4,1535.2 1409.8,1529.9 1436.2,1524.6 1462.6,1519.4 1489.0,1514.3 1515.5,1509.3 1541.9,1504.3 1568.4,1499.4 1594.9,1494.6 1621.4,1489.9 1647.9,1485.2 1674.4,1480.6 1700.8,1476.1 1727.3,1471.7 1753.8,1467.3 1780.3,1463.0 1806.7,1458.8 1833.1,1454.6 1859.5,1450.6 1885.9,1446.5 1912.3,1442.6 1938.6,1438.7 1964.9,1434.9 1991.2,1431.1 2017.4,1427.4  Z" style="stroke-width: 0.5;  stroke: rgb(0,0,0); fill: rgb(179,177,178);" />
<path d="M 1967.724,1732.895 A 522.500,522.500 0.00 0,1 1960.4,1747.1 L 1960.4,1747.1 1940.1,1736.5 1919.4,1726.3 1898.3,1716.5 1876.9,1707.3 1855.2,1698.5 1833.1,1690.4 1810.9,1683.0 1788.4,1676.2 1765.7,1670.1 1742.9,1664.8 1720.0,1660.3 1697.0,1656.7 1673.9,1653.9 1650.8,1651.9 1627.6,1650.8 1604.5,1650.7 1581.5,1651.4 1558.5,1653.1 1535.6,1655.7 1512.9,1659.2 1490.3,1663.6 1467.9,1668.9 1445.7,1675.2 1423.7,1682.3 1402.0,1690.3 1380.5,1699.1 1359.3,1708.7 1338.5,1719.1 1318.0,1730.3 1297.8,1742.2 1278.0,1754.8 1258.6,1768.1 1239.6,1781.9 1221.1,1796.3 1203.0,1811.1 1185.3,1826.4 1168.2,1842.1 1151.5,1858.0 1135.4,1874.3  A 522.500,522.500 0.00 0,1 1124.0,1862.8 L 1124.0,1862.8 1140.8,1847.0 1158.0,1831.4 1175.8,1816.1 1194.0,1801.2 1212.7,1786.7 1231.8,1772.7 1251.3,1759.2 1271.3,1746.3 1291.6,1734.0 1312.3,1722.4 1333.3,1711.4 1354.7,1701.2 1376.4,1691.8 1398.3,1683.1 1420.5,1675.2 1443.0,1668.2 1465.7,1662.0 1488.5,1656.7 1511.6,1652.3 1534.8,1648.7 1558.1,1646.0 1581.5,1644.2 1605.0,1643.3 1628.5,1643.2 1652.1,1644.0 1675.6,1645.7 1699.1,1648.2 1722.6,1651.5 1745.9,1655.6 1769.2,1660.5 1792.2,1666.1 1815.1,1672.4 1837.8,1679.4 1860.3,1687.0 1882.4,1695.2 1904.3,1703.9 1925.8,1713.2 1947.0,1722.8 1967.7,1732.9  Z" style="stroke-width: 0.5;  stroke: rgb(0,0,0); fill: rgb(179,177,178);" />
<path d="M 1882.131,1143.654 A 522.500,522.500 0.00 0,1 1892.6,1155.2 L 1892.6,1155.2 1874.7,1170.5 1856.4,1185.7 1837.6,1200.5 1818.4,1215.1 1798.7,1229.2 1778.7,1243.0 1758.2,1256.3 1737.3,1269.0 1716.0,1281.3 1694.4,1293.0 1672.5,1304.0 1650.2,1314.5 1627.6,1324.3 1604.8,1333.4 1581.6,1341.8 1558.3,1349.5 1534.7,1356.4 1510.9,1362.6 1486.9,1368.1 1462.8,1372.8 1438.5,1376.7 1414.1,1379.8 1389.6,1382.2 1365.1,1383.8 1340.5,1384.7 1315.9,1384.8 1291.3,1384.2 1266.7,1382.8 1242.2,1380.8 1217.8,1378.0 1193.5,1374.6 1169.4,1370.6 1145.4,1365.9 1121.6,1360.7 1098.1,1354.9 1074.8,1348.7 1051.8,1341.9 1029.2,1334.7 1006.9,1327.2  A 522.500,522.500 0.00 0,1 1012.4,1312.2 L 1012.4,1312.2 1034.3,1320.4 1056.6,1328.2 1079.2,1335.5 1102.1,1342.4 1125.2,1348.7 1148.7,1354.5 1172.3,1359.6 1196.1,1364.2 1220.0,1368.1 1244.1,1371.2 1268.3,1373.7 1292.5,1375.4 1316.8,1376.4 1341.1,1376.6 1365.3,1376.0 1389.5,1374.6 1413.7,1372.4 1437.7,1369.4 1461.6,1365.6 1485.4,1361.0 1509.0,1355.6 1532.4,1349.4 1555.6,1342.4 1578.6,1334.7 1601.3,1326.2 1623.8,1316.9 1645.9,1306.9 1667.8,1296.3 1689.3,1285.0 1710.4,1273.0 1731.2,1260.5 1751.6,1247.4 1771.6,1233.8 1791.1,1219.7 1810.2,1205.1 1828.9,1190.2 1847.1,1174.9 1864.9,1159.4 1882.1,1143.7  Z" style="stroke-width: 0.5;  stroke: rgb(0,0,0); fill: rgb(179,177,178);" />
<path d="M 1974.163,1719.491 A 522.500,522.500 0.00 0,1 1968.5,1731.3 L 1968.5,1731.3 1947.7,1721.3 1926.5,1711.7 1905.0,1702.6 1883.1,1693.9 1860.8,1685.7 1838.4,1678.2 1815.6,1671.3 1792.7,1665.0 1769.6,1659.5 1746.3,1654.6 1722.9,1650.6 1699.4,1647.3 1675.9,1644.9 1652.3,1643.2 1628.7,1642.5 1605.2,1642.6 1581.6,1643.5 1558.2,1645.4 1534.8,1648.1 1511.6,1651.7 1488.5,1656.2 1465.6,1661.5 1442.9,1667.7 1420.4,1674.7 1398.2,1682.6 1376.2,1691.3 1354.5,1700.8 1333.1,1711.0 1312.1,1721.9 1291.3,1733.6 1271.0,1745.9 1251.0,1758.8 1231.4,1772.2 1212.3,1786.2 1193.6,1800.7 1175.3,1815.6 1157.6,1830.9 1140.3,1846.4 1123.5,1862.3  A 522.500,522.500 0.00 0,1 1114.5,1852.7 L 1114.5,1852.7 1131.8,1837.2 1149.6,1822.0 1167.8,1807.1 1186.6,1792.5 1205.7,1778.3 1225.3,1764.6 1245.3,1751.4 1265.7,1738.8 1286.5,1726.7 1307.6,1715.3 1329.1,1704.6 1350.9,1694.5 1373.0,1685.2 1395.3,1676.7 1417.9,1668.9 1440.8,1661.9 1463.9,1655.8 1487.1,1650.4 1510.6,1646.0 1534.1,1642.3 1557.8,1639.5 1581.6,1637.5 1605.4,1636.4 1629.3,1636.2 1653.2,1636.7 1677.2,1638.1 1701.0,1640.3 1724.8,1643.3 1748.5,1647.0 1772.1,1651.5 1795.6,1656.7 1818.8,1662.5 1841.9,1669.0 1864.7,1676.2 1887.3,1683.9 1909.5,1692.1 1931.5,1700.8 1953.0,1710.0 1974.2,1719.5  Z" style="stroke-width: 0.5;  stroke: rgb(0,0,0); fill: rgb(179,177,178);" />
<path d="M 2014.540,1590.854 A 522.500,522.500 0.00 0,1 2012.7,1600.9 L 2012.7,1600.9 1988.6,1596.4 1964.3,1592.2 1939.8,1588.3 1915.0,1584.8 1890.0,1581.7 1864.8,1579.1 1839.5,1576.9 1814.0,1575.2 1788.4,1573.9 1762.6,1573.2 1736.8,1573.0 1711.0,1573.3 1685.1,1574.1 1659.2,1575.5 1633.3,1577.4 1607.4,1579.9 1581.5,1582.9 1555.7,1586.5 1530.0,1590.7 1504.4,1595.4 1478.9,1600.7 1453.5,1606.6 1428.2,1612.9 1403.2,1619.9 1378.3,1627.3 1353.6,1635.3 1329.1,1643.8 1304.8,1652.7 1280.8,1662.1 1257.0,1672.0 1233.6,1682.3 1210.4,1693.0 1187.5,1704.1 1164.9,1715.6 1142.6,1727.4 1120.7,1739.5 1099.2,1751.9 1078.0,1764.5 1057.2,1777.3  A 522.500,522.500 0.00 0,1 1051.7,1768.5 L 1051.7,1768.5 1072.9,1756.0 1094.4,1743.7 1116.3,1731.7 1138.5,1719.9 1161.1,1708.4 1183.9,1697.3 1207.1,1686.4 1230.5,1676.0 1254.3,1665.9 1278.2,1656.3 1302.5,1647.1 1326.9,1638.3 1351.6,1630.0 1376.5,1622.2 1401.6,1614.8 1426.8,1608.0 1452.2,1601.7 1477.7,1595.9 1503.4,1590.6 1529.2,1585.8 1555.0,1581.6 1580.9,1577.9 1606.9,1574.8 1632.9,1572.2 1659.0,1570.1 1685.0,1568.5 1711.0,1567.5 1737.0,1566.9 1762.9,1566.9 1788.8,1567.3 1814.5,1568.3 1840.2,1569.7 1865.7,1571.5 1891.0,1573.8 1916.1,1576.5 1941.1,1579.5 1965.8,1583.0 1990.3,1586.8 2014.5,1590.9  Z" style="stroke-width: 0.5;  stroke: rgb(0,0,0); fill: rgb(179,177,178);" />
<path d="M 2016.259,1580.514 A 522.500,522.500 0.00 0,1 2014.7,1589.9 L 2014.7,1589.9 1990.5,1585.8 1966.0,1582.1 1941.2,1578.7 1916.3,1575.7 1891.1,1573.0 1865.8,1570.8 1840.3,1569.0 1814.6,1567.6 1788.9,1566.7 1763.0,1566.3 1737.1,1566.4 1711.1,1567.0 1685.1,1568.1 1659.0,1569.7 1633.0,1571.8 1607.0,1574.4 1581.0,1577.6 1555.1,1581.3 1529.2,1585.6 1503.4,1590.3 1477.8,1595.7 1452.2,1601.5 1426.8,1607.8 1401.6,1614.7 1376.5,1622.0 1351.6,1629.9 1327.0,1638.2 1302.5,1647.0 1278.3,1656.2 1254.3,1665.9 1230.6,1675.9 1207.1,1686.4 1183.9,1697.2 1161.1,1708.4 1138.5,1719.9 1116.3,1731.7 1094.4,1743.7 1072.9,1756.0 1051.7,1768.5  A 522.500,522.500 0.00 0,1 1046.9,1760.3 L 1046.9,1760.3 1068.4,1748.1 1090.3,1736.2 1112.4,1724.4 1134.9,1713.0 1157.7,1701.8 1180.8,1690.9 1204.2,1680.3 1227.9,1670.1 1251.8,1660.3 1276.0,1650.8 1300.4,1641.8 1325.1,1633.2 1349.9,1625.0 1375.0,1617.3 1400.2,1610.0 1425.6,1603.3 1451.1,1597.0 1476.8,1591.2 1502.5,1585.9 1528.4,1581.1 1554.4,1576.8 1580.4,1573.0 1606.5,1569.7 1632.6,1566.9 1658.8,1564.7 1684.9,1562.9 1711.1,1561.6 1737.1,1560.8 1763.2,1560.5 1789.1,1560.6 1815.0,1561.2 1840.8,1562.3 1866.4,1563.7 1891.9,1565.6 1917.2,1567.9 1942.3,1570.5 1967.2,1573.5 1991.8,1576.9 2016.3,1580.5  Z" style="stroke-width: 0.5;  stroke: rgb(0,0,0); fill: rgb(179,177,178);" />
<path d="M 1509.977,977.595 A 522.500,522.500 0.00 0,1 1518.2,977.8 L 1518.2,977.8 1517.3,998.1 1516.3,1018.2 1515.0,1038.0 1513.4,1057.5 1511.5,1076.4 1509.3,1094.6 1506.8,1112.2 1504.0,1128.8 1500.9,1144.6 1497.5,1159.2 1493.7,1172.8 1489.6,1185.2 1485.2,1196.4 1480.4,1206.2 1475.3,1214.7 1469.9,1221.8 1464.1,1227.5 1458.1,1231.7 1451.8,1234.5 1445.1,1235.8 1438.2,1235.6 1431.0,1234.0 1423.6,1230.8 1415.9,1226.3 1408.0,1220.3 1399.8,1213.0 1391.6,1204.3 1383.1,1194.4 1374.5,1183.2 1365.8,1170.9 1357.0,1157.5 1348.2,1143.1 1339.3,1127.7 1330.4,1111.6 1321.6,1094.8 1312.8,1077.4 1304.1,1059.5 1295.6,1041.2 1287.3,1022.8  A 522.500,522.500 0.00 0,1 1292.8,1020.3 L 1292.8,1020.3 1300.9,1038.9 1309.2,1057.2 1317.6,1075.2 1326.1,1092.7 1334.7,1109.6 1343.3,1125.8 1351.9,1141.2 1360.4,1155.7 1368.9,1169.2 1377.3,1181.6 1385.5,1192.9 1393.6,1202.9 1401.6,1211.7 1409.3,1219.1 1416.9,1225.2 1424.2,1229.8 1431.3,1233.0 1438.1,1234.7 1444.6,1235.0 1450.8,1233.7 1456.8,1231.0 1462.4,1226.8 1467.8,1221.2 1472.8,1214.2 1477.5,1205.7 1481.8,1195.9 1485.9,1184.8 1489.6,1172.4 1492.9,1158.9 1496.0,1144.2 1498.7,1128.5 1501.1,1111.9 1503.2,1094.3 1505.0,1076.1 1506.5,1057.2 1507.8,1037.8 1508.8,1017.9 1509.5,997.8 1510.0,977.6  Z" style="stroke-width: 0.5;  stroke: rgb(0,0,0); fill: rgb(179,177,178);" />
<path d="M 1895.857,1158.967 A 522.500,522.500 0.00 0,1 1900.8,1164.8 L 1900.8,1164.8 1882.5,1179.9 1863.7,1194.7 1844.4,1209.3 1824.7,1223.6 1804.6,1237.5 1784.0,1251.1 1763.1,1264.2 1741.8,1276.8 1720.1,1288.9 1698.1,1300.5 1675.8,1311.5 1653.1,1322.0 1630.2,1331.8 1606.9,1341.0 1583.4,1349.5 1559.7,1357.4 1535.8,1364.6 1511.6,1371.1 1487.3,1376.8 1462.8,1381.9 1438.2,1386.2 1413.4,1389.9 1388.6,1392.8 1363.7,1395.0 1338.8,1396.5 1313.8,1397.2 1288.8,1397.3 1263.9,1396.7 1239.0,1395.5 1214.2,1393.6 1189.5,1391.0 1164.9,1387.9 1140.5,1384.2 1116.3,1379.9 1092.3,1375.1 1068.6,1369.8 1045.1,1364.1 1021.9,1357.9 999.1,1351.4  A 522.500,522.500 0.00 0,1 1001.4,1343.9 L 1001.4,1343.9 1024.0,1350.7 1047.0,1357.2 1070.3,1363.3 1093.9,1368.8 1117.7,1373.9 1141.8,1378.5 1166.1,1382.5 1190.5,1385.8 1215.0,1388.6 1239.7,1390.7 1264.4,1392.2 1289.2,1393.0 1314.1,1393.1 1338.9,1392.4 1363.7,1391.1 1388.4,1389.0 1413.1,1386.2 1437.7,1382.6 1462.2,1378.4 1486.5,1373.3 1510.7,1367.6 1534.6,1361.1 1558.4,1353.9 1582.0,1346.0 1605.3,1337.4 1628.3,1328.1 1651.1,1318.2 1673.5,1307.6 1695.6,1296.5 1717.4,1284.7 1738.9,1272.5 1760.0,1259.7 1780.6,1246.4 1800.9,1232.7 1820.8,1218.6 1840.2,1204.1 1859.2,1189.3 1877.8,1174.2 1895.9,1159.0  Z" style="stroke-width: 0.5;  stroke: rgb(0,0,0); fill: rgb(179,177,178);" />
</g>
<g id="plot0">
<g id="plot0-axis">
</g>
<line x1='2243.1' y1='1601.6' x2='2243.1' y2='1601.6' style="stroke-width:14.0;stroke:rgb(0,0,0);stroke-linecap:round;fill:none;" />
<line x1='2243.1' y1='1601.6' x2='2282.7' y2='1607.0' style="stroke-width:14.0;stroke:rgb(0,0,0);stroke-linecap:round;fill:none;" />
<line x1='2282.7' y1='1607.0' x2='2282.7' y2='1607.0' style="stroke-width:14.0;stroke:rgb(0,0,0);stroke-linecap:round;fill:none;" />
<text x="2299.2" y="1632.0" font-size="46.8px" font-family="CMUBright-Roman" style="text-anchor:start;fill:rgb(255,38,78);" transform="rotate(7.8,2299.2,1632.0)" >HistocapCB065<tspan baseline-shift="-40%" font-size="90%">s</tspan>00221</text>
</g>
<defs>
<pattern id="hline" width="10" height="10" patternTransform="rotate(0 0 0)" patternUnits="userSpaceOnUse"><line x1="0" y1="0" x2="10" y2="0" style="stroke:black;stroke-width:5" /></pattern>
<pattern id="vline" width="10" height="10" patternTransform="rotate(0 0 0)" patternUnits="userSpaceOnUse"><line x1="0" y1="0" x2="0" y2="10" style="stroke:black;stroke-width:5" /></pattern>
<pattern id="checker" width="10" height="10" patternTransform="rotate(45 0 0)" patternUnits="userSpaceOnUse"><line x1="0" y1="0" x2="10" y2="0" style="stroke:black;stroke-width:2" /><line x1="0" y1="0" x2="0" y2="10" style="stroke:black;stroke-width:2" /></pattern>
<pattern id="hline-sparse" width="10" height="10" patternTransform="rotate(0 0 0)" patternUnits="userSpaceOnUse"><line x1="0" y1="0" x2="10" y2="0" style="stroke:black;stroke-width:2" /></pattern>
<pattern id="checker" width="10" height="10" patternTransform="rotate(45 0 0)" patternUnits="userSpaceOnUse"><line x1="0" y1="0" x2="10" y2="0" style="stroke:black;stroke-width:5" /><line x1="0" y1="0" x2="0" y2="10" style="stroke:black;stroke-width:4" /></pattern>
<pattern id="vline-sparse" width="10" height="10" patternTransform="rotate(0 0 0)" patternUnits="userSpaceOnUse"><line x1="0" y1="0" x2="0" y2="10" style="stroke:black;stroke-width:2" /></pattern>
</defs>
</svg>
