<?xml version="1.0" encoding="utf-8" standalone="no"?>
<!DOCTYPE svg PUBLIC "-//W3C//DTD SVG 1.1//EN" "http://www.w3.org/Graphics/SVG/1.1/DTD/svg11.dtd">
<svg width="3000px" height="3000px" version="1.1" xmlns="http://www.w3.org/2000/svg" xmlns:xlink="http://www.w3.org/1999/xlink">
<g id="bg">
<rect x="0" y="0" width="3000px" height="3000px" style="fill:rgb(255,255,255);"/>
</g>
<g id="ideograms">
<path d="M1500.000,950.000 A550.000,550.000 40.000 0,1 1708.826,2008.814 L1784.762,2193.838 A750.000,750.000 0.000 0,0 1500.000,750.000 Z" style="stroke-width:2.0;stroke:rgb(0,0,0);stroke-linecap:round;fill:rgb(179,177,178);" />
<text x="2456.6" y="1311.3" font-size="46.8px" font-family="CMUBright-Roman" style="text-anchor:middle;fill:rgb(0,0,0);" transform="rotate(438.8,2456.6,1311.3)" >HistomissSECH84<tspan baseline-shift="-40%" font-size="90%">1</tspan></text>
<line x1='1595.0' y1='756.0' x2='1596.5' y2='744.1' style="stroke-width:8.0;stroke:rgb(150,150,150);stroke-linecap:round;fill:none;" />
<text x="1611.9" y="734.1" font-size="41.6px" font-family="CMUBright-Roman" style="text-anchor:start;fill:rgb(150,150,150);" transform="rotate(277.3,1611.9,734.1)" >2300 kb</text>
<line x1='1694.8' y1='775.7' x2='1697.9' y2='764.1' style="stroke-width:8.0;stroke:rgb(150,150,150);stroke-linecap:round;fill:none;" />
<line x1='1790.9' y1='808.7' x2='1795.6' y2='797.7' style="stroke-width:8.0;stroke:rgb(150,150,150);stroke-linecap:round;fill:none;" />
<line x1='1881.7' y1='854.4' x2='1887.8' y2='844.1' style="stroke-width:8.0;stroke:rgb(150,150,150);stroke-linecap:round;fill:none;" />
<line x1='1965.5' y1='912.0' x2='1973.0' y2='902.6' style="stroke-width:8.0;stroke:rgb(150,150,150);stroke-linecap:round;fill:none;" />
<line x1='2040.8' y1='980.3' x2='2049.4' y2='972.0' style="stroke-width:8.0;stroke:rgb(150,150,150);stroke-linecap:round;fill:none;" />
<text x="2067.7" y="973.9" font-size="41.6px" font-family="CMUBright-Roman" style="text-anchor:start;fill:rgb(150,150,150);" transform="rotate(316.1,2067.7,973.9)" >2350 kb</text>
<line x1='2106.1' y1='1058.2' x2='2115.8' y2='1051.2' style="stroke-width:8.0;stroke:rgb(150,150,150);stroke-linecap:round;fill:none;" />
<line x1='2160.3' y1='1144.3' x2='2170.8' y2='1138.6' style="stroke-width:8.0;stroke:rgb(150,150,150);stroke-linecap:round;fill:none;" />
<line x1='2202.3' y1='1236.8' x2='2213.5' y2='1232.6' style="stroke-width:8.0;stroke:rgb(150,150,150);stroke-linecap:round;fill:none;" />
<line x1='2231.5' y1='1334.2' x2='2243.2' y2='1331.6' style="stroke-width:8.0;stroke:rgb(150,150,150);stroke-linecap:round;fill:none;" />
<line x1='2247.1' y1='1434.7' x2='2259.1' y2='1433.6' style="stroke-width:8.0;stroke:rgb(150,150,150);stroke-linecap:round;fill:none;" />
<text x="2272.2" y="1446.5" font-size="41.6px" font-family="CMUBright-Roman" style="text-anchor:start;fill:rgb(150,150,150);" transform="rotate(355.0,2272.2,1446.5)" >2400 kb</text>
<line x1='2249.1' y1='1536.3' x2='2261.1' y2='1536.9' style="stroke-width:8.0;stroke:rgb(150,150,150);stroke-linecap:round;fill:none;" />
<line x1='2237.3' y1='1637.3' x2='2249.1' y2='1639.5' style="stroke-width:8.0;stroke:rgb(150,150,150);stroke-linecap:round;fill:none;" />
<line x1='2212.0' y1='1735.7' x2='2223.4' y2='1739.5' style="stroke-width:8.0;stroke:rgb(150,150,150);stroke-linecap:round;fill:none;" />
<line x1='2173.6' y1='1829.9' x2='2184.3' y2='1835.2' style="stroke-width:8.0;stroke:rgb(150,150,150);stroke-linecap:round;fill:none;" />
<line x1='2122.8' y1='1917.9' x2='2132.7' y2='1924.6' style="stroke-width:8.0;stroke:rgb(150,150,150);stroke-linecap:round;fill:none;" />
<text x="2134.8" y="1942.9" font-size="41.6px" font-family="CMUBright-Roman" style="text-anchor:start;fill:rgb(150,150,150);" transform="rotate(33.9,2134.8,1942.9)" >2450 kb</text>
<line x1='2060.5' y1='1998.3' x2='2069.5' y2='2006.3' style="stroke-width:8.0;stroke:rgb(150,150,150);stroke-linecap:round;fill:none;" />
<line x1='1988.0' y1='2069.5' x2='1995.8' y2='2078.7' style="stroke-width:8.0;stroke:rgb(150,150,150);stroke-linecap:round;fill:none;" />
<line x1='1906.5' y1='2130.3' x2='1913.0' y2='2140.4' style="stroke-width:8.0;stroke:rgb(150,150,150);stroke-linecap:round;fill:none;" />
<line x1='1817.5' y1='2179.5' x2='1822.6' y2='2190.4' style="stroke-width:8.0;stroke:rgb(150,150,150);stroke-linecap:round;fill:none;" />
<g id="highlighttrack_0">
<path d="M2037.426,1383.067 A550.000,550.000 40.000 0,1 2041.579,1404.125 L2238.517,1369.262 A750.000,750.000 0.000 0,0 2232.854,1340.546 Z" style="stroke-width:14.0;stroke:rgb(0,0,0);stroke-linecap:round;fill:rgb(255,38,78);" />
</g>
<path d="M1500.000,950.000 A550.000,550.000 40.000 0,1 1708.826,2008.814 L1784.762,2193.838 A750.000,750.000 0.000 0,0 1500.000,750.000 Z" style="stroke-width:2.0;stroke:rgb(0,0,0);stroke-linecap:round;fill:none;" />
<path d="M1490.368,2049.916 A550.000,550.000 40.000 0,1 1282.296,994.921 L1203.131,811.256 A750.000,750.000 0.000 0,0 1486.866,2249.885 Z" style="stroke-width:2.0;stroke:rgb(0,0,0);stroke-linecap:round;fill:rgb(179,177,178);" />
<text x="499.3" y="1697.4" font-size="46.8px" font-family="CMUBright-Roman" style="text-anchor:middle;fill:rgb(0,0,0);" transform="rotate(78.8,499.3,1697.4)" >HistocapCB064<tspan baseline-shift="-40%" font-size="90%">1</tspan></text>
<line x1='1182.0' y1='820.8' x2='1176.9' y2='809.9' style="stroke-width:8.0;stroke:rgb(150,150,150);stroke-linecap:round;fill:none;" />
<line x1='1093.0' y1='870.0' x2='1086.5' y2='859.9' style="stroke-width:8.0;stroke:rgb(150,150,150);stroke-linecap:round;fill:none;" />
<line x1='1011.6' y1='930.8' x2='1003.8' y2='921.7' style="stroke-width:8.0;stroke:rgb(150,150,150);stroke-linecap:round;fill:none;" />
<line x1='939.1' y1='1002.1' x2='930.1' y2='994.2' style="stroke-width:8.0;stroke:rgb(150,150,150);stroke-linecap:round;fill:none;" />
<text x="911.9" y="996.7" font-size="41.6px" font-family="CMUBright-Roman" style="text-anchor:end;fill:rgb(150,150,150);" transform="rotate(41.6,911.9,996.7)" >2250 kb</text>
<line x1='876.9' y1='1082.6' x2='866.9' y2='1075.9' style="stroke-width:8.0;stroke:rgb(150,150,150);stroke-linecap:round;fill:none;" />
<line x1='826.2' y1='1170.7' x2='815.4' y2='1165.4' style="stroke-width:8.0;stroke:rgb(150,150,150);stroke-linecap:round;fill:none;" />
<line x1='787.8' y1='1264.8' x2='776.4' y2='1261.0' style="stroke-width:8.0;stroke:rgb(150,150,150);stroke-linecap:round;fill:none;" />
<line x1='762.6' y1='1363.3' x2='750.8' y2='1361.1' style="stroke-width:8.0;stroke:rgb(150,150,150);stroke-linecap:round;fill:none;" />
<line x1='750.9' y1='1464.3' x2='738.9' y2='1463.7' style="stroke-width:8.0;stroke:rgb(150,150,150);stroke-linecap:round;fill:none;" />
<text x="726.3" y="1477.1" font-size="41.6px" font-family="CMUBright-Roman" style="text-anchor:end;fill:rgb(150,150,150);" transform="rotate(2.7,726.3,1477.1)" >2300 kb</text>
<line x1='752.9' y1='1565.9' x2='740.9' y2='1567.0' style="stroke-width:8.0;stroke:rgb(150,150,150);stroke-linecap:round;fill:none;" />
<line x1='768.7' y1='1666.3' x2='757.0' y2='1669.0' style="stroke-width:8.0;stroke:rgb(150,150,150);stroke-linecap:round;fill:none;" />
<line x1='797.9' y1='1763.7' x2='786.7' y2='1767.9' style="stroke-width:8.0;stroke:rgb(150,150,150);stroke-linecap:round;fill:none;" />
<line x1='840.0' y1='1856.3' x2='829.5' y2='1862.0' style="stroke-width:8.0;stroke:rgb(150,150,150);stroke-linecap:round;fill:none;" />
<line x1='894.3' y1='1942.2' x2='884.6' y2='1949.3' style="stroke-width:8.0;stroke:rgb(150,150,150);stroke-linecap:round;fill:none;" />
<text x="883.2" y="1967.6" font-size="41.6px" font-family="CMUBright-Roman" style="text-anchor:end;fill:rgb(150,150,150);" transform="rotate(-36.1,883.2,1967.6)" >2350 kb</text>
<line x1='959.6' y1='2020.1' x2='951.0' y2='2028.4' style="stroke-width:8.0;stroke:rgb(150,150,150);stroke-linecap:round;fill:none;" />
<line x1='1034.9' y1='2088.4' x2='1027.5' y2='2097.8' style="stroke-width:8.0;stroke:rgb(150,150,150);stroke-linecap:round;fill:none;" />
<line x1='1118.8' y1='2145.9' x2='1112.7' y2='2156.2' style="stroke-width:8.0;stroke:rgb(150,150,150);stroke-linecap:round;fill:none;" />
<line x1='1209.6' y1='2191.5' x2='1205.0' y2='2202.6' style="stroke-width:8.0;stroke:rgb(150,150,150);stroke-linecap:round;fill:none;" />
<line x1='1305.8' y1='2224.4' x2='1302.7' y2='2236.0' style="stroke-width:8.0;stroke:rgb(150,150,150);stroke-linecap:round;fill:none;" />
<text x="1313.2" y="2251.1" font-size="41.6px" font-family="CMUBright-Roman" style="text-anchor:end;fill:rgb(150,150,150);" transform="rotate(-75.0,1313.2,2251.1)" >2400 kb</text>
<line x1='1405.6' y1='2244.0' x2='1404.1' y2='2255.9' style="stroke-width:8.0;stroke:rgb(150,150,150);stroke-linecap:round;fill:none;" />
<path d="M1490.368,2049.916 A550.000,550.000 40.000 0,1 1282.296,994.921 L1203.131,811.256 A750.000,750.000 0.000 0,0 1486.866,2249.885 Z" style="stroke-width:2.0;stroke:rgb(0,0,0);stroke-linecap:round;fill:none;" />
</g>
<g id="track_0">
<path d="M 1865.110,1126.234 A 522.500,522.500 0.00 0,1 1927.7,1199.8 L 1927.7,1199.8 1907.7,1213.6 1887.3,1227.2 1866.5,1240.6 1845.4,1253.6 1823.9,1266.4 1802.0,1278.8 1779.8,1290.8 1757.2,1302.5 1734.3,1313.7 1711.2,1324.5 1687.7,1334.7 1664.0,1344.5 1640.0,1353.8 1615.8,1362.6 1591.4,1370.8 1566.7,1378.4 1541.9,1385.5 1516.9,1392.0 1491.8,1397.9 1466.5,1403.2 1441.1,1407.9 1415.6,1412.0 1390.0,1415.5 1364.3,1418.5 1338.7,1420.8 1313.0,1422.5 1287.3,1423.7 1261.6,1424.2 1236.0,1424.3 1210.5,1423.7 1185.1,1422.7 1159.7,1421.1 1134.5,1419.0 1109.5,1416.4 1084.7,1413.4 1060.0,1410.0 1035.7,1406.1 1011.5,1401.9 987.7,1397.3  A 522.500,522.500 0.00 0,1 1015.4,1304.7 L 1015.4,1304.7 1037.0,1313.1 1058.9,1321.2 1081.3,1328.8 1103.9,1335.9 1126.8,1342.4 1149.9,1348.4 1173.3,1353.7 1196.8,1358.4 1220.4,1362.3 1244.2,1365.6 1268.0,1368.1 1291.9,1369.8 1315.8,1370.8 1339.8,1370.9 1363.6,1370.2 1387.4,1368.7 1411.2,1366.3 1434.8,1363.1 1458.2,1359.1 1481.5,1354.2 1504.7,1348.4 1527.6,1341.9 1550.2,1334.5 1572.6,1326.3 1594.8,1317.3 1616.6,1307.6 1638.1,1297.1 1659.3,1285.9 1680.1,1274.0 1700.6,1261.5 1720.6,1248.3 1740.3,1234.6 1759.5,1220.3 1778.3,1205.6 1796.6,1190.4 1814.5,1174.8 1831.9,1158.8 1848.7,1142.6 1865.1,1126.2  Z" style="stroke-width: 0.5;  stroke: rgb(0,0,0); fill: rgb(179,177,178);" />
<path d="M 1761.283,1952.479 A 522.500,522.500 0.00 0,1 1698.4,1983.4 L 1698.4,1983.4 1690.6,1964.7 1682.7,1946.2 1674.6,1928.1 1666.5,1910.5 1658.3,1893.4 1650.0,1877.0 1641.8,1861.5 1633.6,1846.8 1625.5,1833.2 1617.5,1820.6 1609.5,1809.2 1601.7,1799.0 1594.1,1790.1 1586.7,1782.6 1579.4,1776.4 1572.4,1771.6 1565.6,1768.3 1559.1,1766.5 1552.8,1766.1 1546.7,1767.2 1541.0,1769.9 1535.6,1773.9 1530.4,1779.5 1525.6,1786.5 1521.0,1794.8 1516.8,1804.6 1512.9,1815.6 1509.3,1827.9 1506.1,1841.4 1503.1,1856.0 1500.4,1871.7 1498.1,1888.3 1496.0,1905.8 1494.2,1924.0 1492.7,1942.9 1491.5,1962.3 1490.5,1982.1 1489.8,2002.2 1489.2,2022.4  A 522.500,522.500 0.00 0,1 1402.8,2013.4 L 1402.8,2013.4 1406.8,1993.2 1411.1,1973.3 1415.8,1953.5 1420.8,1934.2 1426.2,1915.4 1432.0,1897.3 1438.1,1879.8 1444.6,1863.2 1451.5,1847.5 1458.7,1832.9 1466.2,1819.2 1474.1,1806.8 1482.3,1795.5 1490.9,1785.5 1499.7,1776.8 1508.9,1769.5 1518.4,1763.5 1528.1,1758.9 1538.2,1755.7 1548.4,1754.0 1558.9,1753.7 1569.6,1754.8 1580.6,1757.3 1591.6,1761.2 1602.9,1766.5 1614.3,1773.1 1625.7,1781.0 1637.3,1790.2 1648.9,1800.5 1660.6,1812.0 1672.2,1824.6 1683.8,1838.1 1695.4,1852.5 1706.8,1867.8 1718.1,1883.7 1729.2,1900.3 1740.2,1917.4 1750.9,1934.8 1761.3,1952.5  Z" style="stroke-width: 0.5;  stroke: rgb(0,0,0); fill: rgb(179,177,178);" />
<path d="M 1500.000,977.500 A 522.500,522.500 0.00 0,1 1550.5,979.9 L 1550.5,979.9 1548.3,1000.3 1545.9,1020.5 1543.0,1040.5 1539.8,1060.1 1536.3,1079.2 1532.3,1097.7 1527.9,1115.5 1523.2,1132.5 1518.0,1148.6 1512.4,1163.7 1506.4,1177.7 1500.0,1190.6 1493.1,1202.4 1485.9,1212.8 1478.3,1222.0 1470.2,1229.9 1461.8,1236.4 1453.0,1241.5 1443.9,1245.2 1434.4,1247.4 1424.5,1248.3 1414.4,1247.7 1404.0,1245.8 1393.2,1242.4 1382.3,1237.7 1371.1,1231.6 1359.7,1224.3 1348.1,1215.7 1336.4,1205.9 1324.5,1195.0 1312.6,1183.0 1300.7,1170.1 1288.7,1156.2 1276.8,1141.5 1264.9,1126.1 1253.2,1110.1 1241.6,1093.5 1230.2,1076.6 1219.1,1059.5  A 522.500,522.500 0.00 0,1 1279.9,1026.1 L 1279.9,1026.1 1288.5,1044.4 1297.3,1062.5 1306.2,1080.3 1315.2,1097.6 1324.3,1114.2 1333.3,1130.2 1342.3,1145.4 1351.3,1159.6 1360.2,1172.9 1369.0,1185.1 1377.6,1196.1 1386.0,1205.9 1394.3,1214.5 1402.3,1221.7 1410.1,1227.5 1417.6,1232.0 1424.9,1235.0 1431.8,1236.5 1438.5,1236.6 1444.8,1235.2 1450.8,1232.3 1456.5,1228.0 1461.8,1222.2 1466.8,1215.0 1471.4,1206.4 1475.6,1196.5 1479.5,1185.3 1483.0,1172.8 1486.2,1159.2 1489.0,1144.5 1491.5,1128.7 1493.6,1112.0 1495.4,1094.4 1496.9,1076.1 1498.0,1057.2 1498.9,1037.7 1499.5,1017.9 1499.9,997.7 1500.0,977.5  Z" style="stroke-width: 0.5;  stroke: rgb(0,0,0); fill: rgb(179,177,178);" />
<path d="M 1755.263,1044.098 A 522.500,522.500 0.00 0,1 1804.1,1075.1 L 1804.1,1075.1 1790.7,1093.5 1776.7,1111.7 1762.1,1129.6 1747.1,1147.3 1731.5,1164.5 1715.4,1181.3 1698.8,1197.7 1681.7,1213.4 1664.1,1228.6 1646.0,1243.2 1627.5,1257.0 1608.6,1270.1 1589.2,1282.5 1569.4,1294.0 1549.3,1304.8 1528.8,1314.7 1507.9,1323.7 1486.7,1331.8 1465.2,1339.0 1443.4,1345.3 1421.4,1350.7 1399.2,1355.1 1376.7,1358.7 1354.1,1361.3 1331.3,1363.0 1308.4,1363.8 1285.4,1363.7 1262.4,1362.7 1239.4,1360.9 1216.3,1358.2 1193.4,1354.8 1170.5,1350.6 1147.7,1345.6 1125.1,1340.0 1102.7,1333.7 1080.6,1326.9 1058.7,1319.5 1037.1,1311.6 1016.0,1303.2  A 522.500,522.500 0.00 0,1 1040.7,1250.9 L 1040.7,1250.9 1060.3,1261.3 1080.3,1271.2 1100.7,1280.6 1121.3,1289.4 1142.2,1297.7 1163.3,1305.2 1184.5,1312.0 1205.9,1318.0 1227.3,1323.2 1248.8,1327.5 1270.3,1330.9 1291.7,1333.3 1313.0,1334.7 1334.3,1335.2 1355.4,1334.7 1376.3,1333.1 1397.0,1330.4 1417.5,1326.8 1437.7,1322.0 1457.6,1316.3 1477.2,1309.5 1496.5,1301.6 1515.4,1292.8 1534.0,1283.0 1552.1,1272.2 1569.8,1260.4 1587.1,1247.8 1603.9,1234.3 1620.2,1220.0 1636.1,1204.9 1651.4,1189.1 1666.3,1172.6 1680.6,1155.5 1694.4,1137.8 1707.7,1119.7 1720.4,1101.2 1732.6,1082.4 1744.2,1063.3 1755.3,1044.1  Z" style="stroke-width: 0.5;  stroke: rgb(0,0,0); fill: rgb(179,177,178);" />
<path d="M 2021.748,1528.027 A 522.500,522.500 0.00 0,1 2015.5,1585.1 L 2015.5,1585.1 1991.5,1581.3 1967.1,1577.9 1942.5,1574.8 1917.7,1572.2 1892.7,1570.0 1867.5,1568.2 1842.2,1566.9 1816.8,1566.0 1791.2,1565.7 1765.6,1565.9 1739.9,1566.6 1714.1,1567.9 1688.4,1569.7 1662.7,1572.1 1636.9,1575.1 1611.3,1578.6 1585.7,1582.7 1560.2,1587.4 1534.8,1592.7 1509.5,1598.5 1484.3,1605.0 1459.3,1611.9 1434.5,1619.5 1409.9,1627.6 1385.5,1636.2 1361.3,1645.3 1337.4,1655.0 1313.7,1665.2 1290.3,1675.8 1267.2,1686.9 1244.4,1698.4 1221.9,1710.3 1199.7,1722.6 1177.9,1735.3 1156.4,1748.2 1135.2,1761.5 1114.5,1775.1 1094.1,1788.8 1074.2,1802.8  A 522.500,522.500 0.00 0,1 1043.5,1754.2 L 1043.5,1754.2 1065.5,1742.2 1087.7,1730.3 1110.3,1718.6 1133.1,1707.1 1156.2,1695.8 1179.6,1684.8 1203.2,1674.1 1227.1,1663.6 1251.2,1653.4 1275.6,1643.6 1300.1,1634.1 1324.9,1625.0 1349.8,1616.2 1375.0,1607.8 1400.3,1599.8 1425.7,1592.1 1451.3,1584.9 1477.1,1578.1 1502.9,1571.7 1528.9,1565.7 1554.9,1560.1 1581.0,1554.9 1607.2,1550.2 1633.4,1545.9 1659.7,1542.0 1685.9,1538.5 1712.2,1535.4 1738.5,1532.8 1764.7,1530.5 1790.9,1528.6 1817.0,1527.2 1843.1,1526.1 1869.0,1525.4 1894.9,1525.0 1920.6,1525.0 1946.1,1525.3 1971.5,1525.9 1996.7,1526.8 2021.7,1528.0  Z" style="stroke-width: 0.5;  stroke: rgb(0,0,0); fill: rgb(179,177,178);" />
<path d="M 1690.127,1013.319 A 522.500,522.500 0.00 0,1 1739.8,1035.8 L 1739.8,1035.8 1729.5,1055.2 1718.6,1074.5 1707.2,1093.6 1695.2,1112.3 1682.6,1130.6 1669.5,1148.5 1655.9,1165.8 1641.8,1182.4 1627.2,1198.4 1612.0,1213.6 1596.4,1228.1 1580.2,1241.6 1563.7,1254.3 1546.6,1266.1 1529.2,1276.9 1511.3,1286.7 1493.0,1295.4 1474.4,1303.2 1455.4,1309.8 1436.1,1315.4 1416.5,1320.0 1396.6,1323.4 1376.4,1325.7 1356.1,1327.0 1335.6,1327.2 1314.9,1326.4 1294.1,1324.5 1273.2,1321.7 1252.3,1317.8 1231.3,1313.1 1210.4,1307.4 1189.6,1300.9 1168.8,1293.5 1148.2,1285.4 1127.9,1276.6 1107.7,1267.2 1087.8,1257.2 1068.3,1246.7 1049.2,1235.8  A 522.500,522.500 0.00 0,1 1079.2,1190.3 L 1079.2,1190.3 1096.7,1202.8 1114.6,1215.0 1132.8,1226.7 1151.3,1237.8 1170.0,1248.3 1188.9,1258.1 1207.9,1267.0 1227.0,1275.1 1246.1,1282.4 1265.3,1288.6 1284.4,1293.9 1303.4,1298.1 1322.3,1301.2 1341.1,1303.2 1359.7,1304.1 1378.0,1303.8 1396.2,1302.4 1414.0,1299.8 1431.6,1295.9 1448.8,1291.0 1465.6,1284.8 1482.1,1277.5 1498.2,1269.0 1513.9,1259.4 1529.1,1248.7 1543.9,1237.0 1558.2,1224.3 1572.1,1210.5 1585.4,1195.9 1598.3,1180.4 1610.6,1164.0 1622.4,1147.0 1633.7,1129.2 1644.4,1110.9 1654.6,1092.0 1664.3,1072.8 1673.4,1053.1 1682.0,1033.3 1690.1,1013.3  Z" style="stroke-width: 0.5;  stroke: rgb(0,0,0); fill: rgb(179,177,178);" />
<path d="M 1551.185,980.013 A 522.500,522.500 0.00 0,1 1599.3,987.0 L 1599.3,987.0 1595.1,1007.5 1590.4,1028.0 1585.3,1048.2 1579.6,1068.1 1573.5,1087.5 1566.9,1106.4 1559.7,1124.7 1552.0,1142.3 1543.8,1159.0 1535.1,1174.9 1525.8,1189.8 1516.0,1203.8 1505.7,1216.6 1494.9,1228.4 1483.6,1239.0 1471.8,1248.4 1459.6,1256.5 1446.8,1263.4 1433.7,1269.1 1420.1,1273.4 1406.1,1276.4 1391.7,1278.2 1377.0,1278.7 1361.9,1277.9 1346.6,1275.8 1331.0,1272.5 1315.1,1268.0 1299.1,1262.3 1282.9,1255.5 1266.5,1247.6 1250.1,1238.8 1233.7,1228.9 1217.3,1218.2 1200.9,1206.6 1184.6,1194.3 1168.5,1181.4 1152.6,1167.9 1136.9,1154.0 1121.6,1139.7  A 522.500,522.500 0.00 0,1 1156.7,1106.1 L 1156.7,1106.1 1170.4,1121.5 1184.4,1136.7 1198.6,1151.4 1213.0,1165.6 1227.5,1179.1 1242.0,1192.0 1256.6,1204.0 1271.1,1215.1 1285.6,1225.2 1299.9,1234.3 1314.0,1242.2 1328.0,1249.1 1341.7,1254.7 1355.2,1259.1 1368.4,1262.1 1381.2,1263.9 1393.7,1264.4 1405.8,1263.5 1417.5,1261.2 1428.7,1257.6 1439.6,1252.7 1450.0,1246.4 1459.9,1238.8 1469.3,1229.9 1478.2,1219.7 1486.6,1208.4 1494.6,1195.8 1502.0,1182.2 1508.9,1167.5 1515.3,1151.8 1521.2,1135.1 1526.6,1117.7 1531.5,1099.4 1535.9,1080.6 1539.8,1061.1 1543.3,1041.2 1546.3,1021.0 1549.0,1000.6 1551.2,980.0  Z" style="stroke-width: 0.5;  stroke: rgb(0,0,0); fill: rgb(179,177,178);" />
<path d="M 2020.554,1454.948 A 522.500,522.500 0.00 0,1 2022.5,1503.4 L 2022.5,1503.4 1997.2,1503.3 1971.8,1503.6 1946.2,1504.0 1920.5,1504.8 1894.7,1505.9 1868.7,1507.3 1842.7,1509.0 1816.5,1511.1 1790.3,1513.4 1764.1,1516.2 1737.8,1519.3 1711.5,1522.7 1685.2,1526.5 1658.9,1530.7 1632.6,1535.2 1606.3,1540.1 1580.1,1545.4 1553.9,1551.1 1527.9,1557.1 1501.9,1563.5 1476.0,1570.3 1450.2,1577.4 1424.5,1584.9 1399.0,1592.8 1373.6,1601.0 1348.3,1609.5 1323.3,1618.4 1298.4,1627.5 1273.7,1637.0 1249.2,1646.8 1224.8,1656.8 1200.8,1667.2 1176.9,1677.8 1153.2,1688.6 1129.9,1699.6 1106.7,1710.9 1083.8,1722.3 1061.2,1734.0 1038.9,1745.7  A 522.500,522.500 0.00 0,1 1018.1,1701.9 L 1018.1,1701.9 1042.0,1692.0 1066.0,1682.2 1090.2,1672.6 1114.6,1663.0 1139.1,1653.6 1163.8,1644.3 1188.6,1635.2 1213.6,1626.2 1238.7,1617.5 1264.0,1608.9 1289.4,1600.5 1314.9,1592.3 1340.5,1584.3 1366.2,1576.5 1392.0,1568.9 1418.0,1561.5 1443.9,1554.4 1470.0,1547.5 1496.2,1540.8 1522.4,1534.3 1548.6,1528.1 1574.9,1522.1 1601.2,1516.4 1627.6,1510.8 1654.0,1505.6 1680.4,1500.5 1706.8,1495.7 1733.2,1491.1 1759.6,1486.8 1785.9,1482.6 1812.3,1478.7 1838.5,1475.1 1864.8,1471.6 1890.9,1468.3 1917.0,1465.3 1943.1,1462.4 1969.0,1459.7 1994.8,1457.3 2020.6,1454.9  Z" style="stroke-width: 0.5;  stroke: rgb(0,0,0); fill: rgb(179,177,178);" />
<path d="M 1998.441,1343.275 A 522.500,522.500 0.00 0,1 2010.6,1388.9 L 2010.6,1388.9 1984.4,1394.6 1958.3,1400.3 1932.2,1405.9 1906.0,1411.6 1879.8,1417.2 1853.7,1422.8 1827.5,1428.4 1801.3,1434.0 1775.1,1439.6 1748.9,1445.2 1722.6,1450.8 1696.4,1456.3 1670.2,1461.8 1643.9,1467.4 1617.7,1472.9 1591.4,1478.3 1565.1,1483.8 1538.9,1489.3 1512.6,1494.7 1486.3,1500.1 1460.0,1505.5 1433.8,1510.9 1407.5,1516.3 1381.2,1521.6 1354.9,1527.0 1328.6,1532.3 1302.3,1537.6 1276.1,1542.9 1249.8,1548.2 1223.5,1553.4 1197.2,1558.7 1170.9,1563.9 1144.7,1569.1 1118.4,1574.3 1092.1,1579.5 1065.9,1584.7 1039.6,1589.8 1013.4,1595.0 987.2,1600.1  A 522.500,522.500 0.00 0,1 980.3,1553.6 L 980.3,1553.6 1006.3,1550.8 1032.4,1548.0 1058.5,1545.0 1084.8,1541.9 1111.1,1538.7 1137.4,1535.3 1163.8,1531.8 1190.2,1528.2 1216.7,1524.4 1243.1,1520.4 1269.6,1516.4 1296.2,1512.1 1322.7,1507.7 1349.2,1503.2 1375.7,1498.5 1402.3,1493.7 1428.8,1488.7 1455.3,1483.5 1481.7,1478.2 1508.2,1472.7 1534.6,1467.1 1560.9,1461.4 1587.2,1455.5 1613.5,1449.4 1639.7,1443.2 1665.9,1436.9 1692.0,1430.4 1718.0,1423.8 1743.9,1417.0 1769.8,1410.1 1795.6,1403.1 1821.3,1396.0 1846.9,1388.8 1872.4,1381.4 1897.9,1374.0 1923.2,1366.4 1948.4,1358.8 1973.5,1351.1 1998.4,1343.3  Z" style="stroke-width: 0.5;  stroke: rgb(0,0,0); fill: rgb(179,177,178);" />
<path d="M 1976.752,1286.193 A 522.500,522.500 0.00 0,1 1993.2,1327.6 L 1993.2,1327.6 1968.7,1336.1 1944.1,1344.5 1919.3,1352.8 1894.3,1360.9 1869.2,1369.0 1844.0,1376.9 1818.6,1384.6 1793.1,1392.2 1767.5,1399.6 1741.8,1406.9 1716.0,1414.0 1690.1,1420.9 1664.1,1427.6 1638.0,1434.1 1611.8,1440.5 1585.6,1446.6 1559.3,1452.6 1532.9,1458.3 1506.5,1463.9 1480.0,1469.2 1453.5,1474.3 1427.0,1479.2 1400.4,1484.0 1373.9,1488.5 1347.3,1492.7 1320.7,1496.8 1294.1,1500.7 1267.5,1504.4 1241.0,1507.9 1214.5,1511.1 1188.0,1514.2 1161.6,1517.1 1135.2,1519.8 1108.9,1522.3 1082.6,1524.6 1056.5,1526.8 1030.4,1528.7 1004.4,1530.6 978.5,1532.2  A 522.500,522.500 0.00 0,1 977.6,1487.7 L 977.6,1487.7 1003.0,1488.1 1028.6,1488.4 1054.3,1488.4 1080.2,1488.2 1106.2,1487.6 1132.3,1486.9 1158.5,1485.8 1184.8,1484.4 1211.1,1482.7 1237.5,1480.7 1264.0,1478.4 1290.5,1475.8 1317.0,1472.8 1343.5,1469.5 1370.0,1465.9 1396.5,1462.0 1423.0,1457.7 1449.4,1453.0 1475.8,1448.0 1502.2,1442.7 1528.4,1437.1 1554.6,1431.1 1580.6,1424.8 1606.6,1418.2 1632.5,1411.3 1658.2,1404.0 1683.8,1396.5 1709.2,1388.6 1734.5,1380.5 1759.6,1372.1 1784.6,1363.5 1809.3,1354.5 1833.9,1345.4 1858.3,1336.0 1882.4,1326.4 1906.4,1316.6 1930.1,1306.6 1953.5,1296.5 1976.8,1286.2  Z" style="stroke-width: 0.5;  stroke: rgb(0,0,0); fill: rgb(179,177,178);" />
<path d="M 2006.357,1628.877 A 522.500,522.500 0.00 0,1 1994.1,1669.9 L 1994.1,1669.9 1971.9,1662.6 1949.3,1655.6 1926.4,1649.0 1903.2,1643.0 1879.8,1637.4 1856.1,1632.5 1832.3,1628.1 1808.3,1624.4 1784.1,1621.3 1759.9,1618.9 1735.6,1617.3 1711.2,1616.3 1686.9,1616.2 1662.5,1616.7 1638.2,1618.1 1613.9,1620.2 1589.8,1623.2 1565.7,1626.9 1541.8,1631.4 1518.1,1636.7 1494.6,1642.8 1471.2,1649.7 1448.1,1657.3 1425.3,1665.7 1402.7,1674.8 1380.4,1684.7 1358.5,1695.2 1336.8,1706.5 1315.5,1718.3 1294.6,1730.8 1274.1,1743.9 1254.0,1757.5 1234.2,1771.6 1214.9,1786.1 1196.1,1801.1 1177.7,1816.5 1159.8,1832.2 1142.3,1848.1 1125.4,1864.2  A 522.500,522.500 0.00 0,1 1096.8,1832.3 L 1096.8,1832.3 1115.4,1817.3 1134.4,1802.5 1153.8,1787.9 1173.7,1773.6 1194.0,1759.7 1214.7,1746.1 1235.8,1733.0 1257.3,1720.3 1279.1,1708.0 1301.2,1696.3 1323.7,1685.1 1346.5,1674.5 1369.6,1664.5 1393.0,1655.0 1416.6,1646.2 1440.5,1638.0 1464.6,1630.5 1488.9,1623.6 1513.3,1617.5 1538.0,1611.9 1562.8,1607.1 1587.7,1603.0 1612.7,1599.5 1637.7,1596.7 1662.9,1594.7 1688.0,1593.2 1713.2,1592.5 1738.4,1592.4 1763.5,1592.9 1788.5,1594.1 1813.4,1595.9 1838.3,1598.2 1862.9,1601.1 1887.5,1604.6 1911.8,1608.5 1935.8,1613.0 1959.6,1617.9 1983.2,1623.2 2006.4,1628.9  Z" style="stroke-width: 0.5;  stroke: rgb(0,0,0); fill: rgb(179,177,178);" />
<path d="M 1939.745,1217.811 A 522.500,522.500 0.00 0,1 1960.7,1253.4 L 1960.7,1253.4 1938.6,1265.1 1916.1,1276.6 1893.4,1287.9 1870.4,1299.0 1847.2,1309.8 1823.6,1320.4 1799.8,1330.7 1775.8,1340.6 1751.5,1350.3 1727.0,1359.7 1702.3,1368.6 1677.4,1377.3 1652.3,1385.5 1627.0,1393.4 1601.5,1400.9 1576.0,1407.9 1550.2,1414.6 1524.4,1420.8 1498.4,1426.6 1472.4,1432.0 1446.2,1437.0 1420.0,1441.5 1393.8,1445.6 1367.5,1449.2 1341.2,1452.5 1314.8,1455.3 1288.5,1457.6 1262.2,1459.6 1236.0,1461.1 1209.8,1462.3 1183.7,1463.0 1157.6,1463.4 1131.7,1463.4 1105.9,1463.0 1080.2,1462.3 1054.7,1461.2 1029.4,1459.9 1004.3,1458.2 979.3,1456.2  A 522.500,522.500 0.00 0,1 984.4,1415.3 L 984.4,1415.3 1008.6,1419.1 1033.1,1422.5 1057.8,1425.7 1082.8,1428.4 1107.9,1430.7 1133.2,1432.6 1158.7,1434.1 1184.3,1435.1 1210.0,1435.6 1235.8,1435.7 1261.6,1435.2 1287.5,1434.3 1313.5,1432.8 1339.4,1430.7 1365.3,1428.2 1391.2,1425.1 1417.1,1421.4 1442.9,1417.2 1468.6,1412.5 1494.2,1407.2 1519.6,1401.3 1545.0,1395.0 1570.1,1388.1 1595.2,1380.7 1620.0,1372.7 1644.6,1364.3 1669.0,1355.4 1693.2,1346.0 1717.1,1336.2 1740.8,1325.9 1764.1,1315.3 1787.2,1304.2 1810.0,1292.7 1832.5,1281.0 1854.7,1268.8 1876.5,1256.4 1897.9,1243.8 1919.0,1230.9 1939.7,1217.8  Z" style="stroke-width: 0.5;  stroke: rgb(0,0,0); fill: rgb(179,177,178);" />
<path d="M 1911.968,1821.385 A 522.500,522.500 0.00 0,1 1885.6,1852.6 L 1885.6,1852.6 1869.5,1838.3 1853.0,1824.3 1836.1,1810.7 1818.9,1797.6 1801.3,1785.2 1783.6,1773.5 1765.6,1762.5 1747.4,1752.4 1729.1,1743.2 1710.7,1734.9 1692.2,1727.6 1673.6,1721.4 1655.1,1716.2 1636.6,1712.2 1618.1,1709.3 1599.7,1707.6 1581.4,1707.0 1563.3,1707.7 1545.4,1709.6 1527.6,1712.6 1510.1,1716.9 1492.8,1722.4 1475.7,1729.0 1459.0,1736.8 1442.6,1745.7 1426.5,1755.7 1410.7,1766.8 1395.4,1778.9 1380.4,1792.0 1365.8,1806.0 1351.7,1820.8 1337.9,1836.5 1324.7,1852.8 1311.9,1869.8 1299.5,1887.4 1287.7,1905.5 1276.3,1923.9 1265.5,1942.7 1255.2,1961.6  A 522.500,522.500 0.00 0,1 1219.8,1941.0 L 1219.8,1941.0 1231.8,1922.7 1244.3,1904.5 1257.3,1886.6 1270.8,1869.2 1284.9,1852.2 1299.4,1835.7 1314.4,1819.9 1329.8,1804.7 1345.7,1790.3 1361.9,1776.8 1378.6,1764.0 1395.7,1752.2 1413.1,1741.4 1430.9,1731.5 1449.0,1722.7 1467.4,1714.9 1486.1,1708.2 1505.1,1702.6 1524.3,1698.1 1543.7,1694.8 1563.2,1692.6 1582.9,1691.5 1602.8,1691.5 1622.8,1692.7 1642.8,1694.9 1662.8,1698.2 1682.9,1702.6 1703.0,1708.0 1722.9,1714.4 1742.8,1721.7 1762.6,1729.9 1782.2,1739.0 1801.7,1748.9 1820.9,1759.5 1839.8,1770.8 1858.4,1782.8 1876.6,1795.2 1894.5,1808.1 1912.0,1821.4  Z" style="stroke-width: 0.5;  stroke: rgb(0,0,0); fill: rgb(179,177,178);" />
<path d="M 1958.377,1750.792 A 522.500,522.500 0.00 0,1 1938.8,1783.7 L 1938.8,1783.7 1920.0,1771.8 1900.7,1760.3 1881.0,1749.3 1861.1,1738.8 1840.8,1729.0 1820.2,1719.8 1799.4,1711.3 1778.5,1703.5 1757.4,1696.6 1736.1,1690.6 1714.8,1685.4 1693.4,1681.2 1672.1,1677.9 1650.7,1675.6 1629.4,1674.4 1608.1,1674.2 1587.0,1675.0 1566.0,1676.8 1545.1,1679.7 1524.4,1683.7 1504.0,1688.7 1483.8,1694.7 1463.8,1701.8 1444.2,1709.8 1424.8,1718.9 1405.8,1728.9 1387.1,1739.8 1368.8,1751.6 1350.9,1764.3 1333.4,1777.7 1316.3,1792.0 1299.7,1806.9 1283.5,1822.5 1267.8,1838.6 1252.6,1855.3 1237.9,1872.4 1223.7,1889.9 1210.1,1907.6 1196.9,1925.6  A 522.500,522.500 0.00 0,1 1166.6,1902.3 L 1166.6,1902.3 1181.2,1885.0 1196.4,1868.0 1212.1,1851.2 1228.3,1834.8 1245.0,1818.9 1262.2,1803.4 1279.8,1788.5 1297.9,1774.1 1316.4,1760.5 1335.3,1747.5 1354.6,1735.3 1374.3,1723.8 1394.3,1713.2 1414.7,1703.5 1435.4,1694.6 1456.4,1686.6 1477.6,1679.5 1499.1,1673.4 1520.8,1668.3 1542.8,1664.1 1564.8,1660.9 1587.1,1658.6 1609.4,1657.3 1631.9,1657.0 1654.4,1657.6 1676.9,1659.1 1699.5,1661.6 1722.0,1665.0 1744.4,1669.2 1766.8,1674.3 1789.0,1680.1 1811.1,1686.8 1833.0,1694.1 1854.7,1702.2 1876.1,1710.9 1897.2,1720.1 1918.0,1729.9 1938.4,1740.2 1958.4,1750.8  Z" style="stroke-width: 0.5;  stroke: rgb(0,0,0); fill: rgb(179,177,178);" />
<path d="M 2014.500,1408.919 A 522.500,522.500 0.00 0,1 2019.6,1445.0 L 2019.6,1445.0 1993.5,1447.8 1967.3,1450.7 1941.0,1453.7 1914.7,1456.8 1888.3,1460.0 1861.9,1463.4 1835.5,1466.8 1809.0,1470.3 1782.5,1474.0 1756.0,1477.7 1729.4,1481.6 1702.9,1485.6 1676.3,1489.8 1649.7,1494.0 1623.2,1498.4 1596.6,1502.9 1570.0,1507.5 1543.5,1512.2 1516.9,1517.1 1490.4,1522.1 1463.9,1527.2 1437.5,1532.4 1411.1,1537.8 1384.7,1543.2 1358.3,1548.8 1332.0,1554.5 1305.8,1560.3 1279.6,1566.3 1253.4,1572.3 1227.4,1578.4 1201.3,1584.6 1175.4,1591.0 1149.5,1597.4 1123.7,1603.9 1098.0,1610.5 1072.3,1617.2 1046.8,1623.9 1021.3,1630.7 995.9,1637.6  A 522.500,522.500 0.00 0,1 987.6,1602.1 L 987.6,1602.1 1013.8,1596.9 1040.0,1591.7 1066.3,1586.5 1092.5,1581.3 1118.8,1576.1 1145.0,1571.0 1171.3,1565.8 1197.6,1560.7 1223.9,1555.5 1250.2,1550.4 1276.5,1545.3 1302.9,1540.2 1329.2,1535.2 1355.5,1530.1 1381.9,1525.1 1408.2,1520.1 1434.6,1515.0 1460.9,1510.1 1487.3,1505.1 1513.7,1500.1 1540.0,1495.2 1566.4,1490.2 1592.8,1485.3 1619.2,1480.4 1645.5,1475.6 1671.9,1470.7 1698.3,1465.9 1724.7,1461.0 1751.0,1456.2 1777.4,1451.4 1803.8,1446.6 1830.1,1441.9 1856.5,1437.1 1882.8,1432.4 1909.2,1427.7 1935.5,1423.0 1961.9,1418.3 1988.2,1413.6 2014.5,1408.9  Z" style="stroke-width: 0.5;  stroke: rgb(0,0,0); fill: rgb(179,177,178);" />
<path d="M 1863.464,1875.367 A 522.500,522.500 0.00 0,1 1838.6,1897.9 L 1838.6,1897.9 1824.7,1882.0 1810.4,1866.4 1795.8,1851.1 1780.8,1836.4 1765.6,1822.3 1750.1,1809.0 1734.5,1796.4 1718.6,1784.6 1702.6,1773.8 1686.5,1764.0 1670.4,1755.3 1654.2,1747.6 1638.0,1741.1 1621.8,1735.8 1605.7,1731.7 1589.7,1728.9 1573.8,1727.4 1558.0,1727.1 1542.4,1728.1 1526.9,1730.5 1511.7,1734.1 1496.7,1739.0 1481.9,1745.2 1467.4,1752.6 1453.2,1761.3 1439.3,1771.1 1425.8,1782.1 1412.6,1794.2 1399.7,1807.3 1387.3,1821.4 1375.2,1836.5 1363.5,1852.4 1352.3,1869.0 1341.4,1886.4 1331.0,1904.4 1321.1,1922.8 1311.6,1941.7 1302.6,1960.8 1294.0,1980.2  A 522.500,522.500 0.00 0,1 1263.6,1966.0 L 1263.6,1966.0 1273.5,1947.0 1283.9,1928.2 1294.8,1909.7 1306.2,1891.7 1318.0,1874.1 1330.3,1857.1 1343.0,1840.8 1356.2,1825.2 1369.8,1810.5 1383.7,1796.6 1398.1,1783.7 1412.8,1771.8 1427.9,1760.9 1443.3,1751.2 1459.0,1742.6 1475.0,1735.1 1491.3,1728.9 1507.8,1723.8 1524.6,1720.0 1541.5,1717.5 1558.6,1716.2 1575.9,1716.1 1593.3,1717.3 1610.8,1719.6 1628.3,1723.2 1645.9,1728.0 1663.5,1733.9 1681.1,1740.9 1698.7,1749.0 1716.1,1758.1 1733.4,1768.2 1750.6,1779.2 1767.6,1791.0 1784.4,1803.6 1800.9,1816.9 1817.1,1830.9 1832.9,1845.3 1848.4,1860.2 1863.5,1875.4  Z" style="stroke-width: 0.5;  stroke: rgb(0,0,0); fill: rgb(179,177,178);" />
<path d="M 2015.532,1585.045 A 522.500,522.500 0.00 0,1 2009.2,1617.1 L 2009.2,1617.1 1985.8,1611.9 1962.1,1607.1 1938.1,1602.8 1913.9,1598.8 1889.4,1595.3 1864.7,1592.4 1839.9,1590.0 1814.9,1588.1 1789.9,1586.8 1764.7,1586.0 1739.5,1585.9 1714.2,1586.4 1688.9,1587.6 1663.7,1589.4 1638.4,1591.8 1613.3,1595.0 1588.2,1598.7 1563.2,1603.2 1538.3,1608.3 1513.6,1614.1 1489.1,1620.5 1464.7,1627.6 1440.5,1635.3 1416.6,1643.7 1392.9,1652.7 1369.5,1662.3 1346.3,1672.4 1323.4,1683.2 1300.8,1694.4 1278.6,1706.2 1256.7,1718.5 1235.2,1731.3 1214.0,1744.5 1193.2,1758.0 1172.8,1772.0 1152.8,1786.3 1133.2,1800.8 1114.1,1815.6 1095.4,1830.6  A 522.500,522.500 0.00 0,1 1075.6,1804.7 L 1075.6,1804.7 1095.4,1790.7 1115.7,1776.8 1136.4,1763.2 1157.5,1749.8 1178.9,1736.8 1200.7,1724.0 1222.8,1711.6 1245.2,1699.6 1268.0,1688.0 1291.0,1676.9 1314.4,1666.2 1338.0,1656.0 1361.9,1646.2 1386.1,1637.0 1410.4,1628.3 1435.0,1620.2 1459.8,1612.6 1484.7,1605.5 1509.8,1599.0 1535.1,1593.1 1560.5,1587.8 1586.0,1583.1 1611.5,1578.9 1637.2,1575.3 1662.9,1572.3 1688.6,1569.9 1714.3,1568.0 1740.0,1566.7 1765.7,1566.0 1791.3,1565.7 1816.9,1566.0 1842.3,1566.9 1867.6,1568.1 1892.8,1569.9 1917.8,1572.1 1942.6,1574.8 1967.2,1577.8 1991.5,1581.3 2015.5,1585.0  Z" style="stroke-width: 0.5;  stroke: rgb(0,0,0); fill: rgb(179,177,178);" />
<path d="M 1795.782,1930.720 A 522.500,522.500 0.00 0,1 1768.6,1948.2 L 1768.6,1948.2 1757.9,1930.7 1746.9,1913.4 1735.6,1896.5 1724.2,1880.1 1712.5,1864.3 1700.8,1849.2 1688.9,1835.0 1677.0,1821.6 1665.1,1809.2 1653.1,1797.9 1641.2,1787.7 1629.3,1778.7 1617.5,1770.9 1605.9,1764.5 1594.3,1759.3 1583.0,1755.5 1571.8,1753.2 1560.8,1752.2 1550.0,1752.6 1539.5,1754.5 1529.3,1757.7 1519.3,1762.4 1509.6,1768.5 1500.2,1775.9 1491.1,1784.7 1482.4,1794.8 1474.0,1806.1 1465.9,1818.7 1458.2,1832.3 1450.9,1847.0 1443.9,1862.8 1437.3,1879.4 1431.0,1896.9 1425.1,1915.1 1419.6,1933.9 1414.5,1953.2 1409.7,1972.9 1405.3,1992.9 1401.2,2013.1  A 522.500,522.500 0.00 0,1 1369.7,2006.0 L 1369.7,2006.0 1375.0,1986.0 1380.8,1966.1 1387.0,1946.5 1393.5,1927.3 1400.5,1908.6 1407.9,1890.6 1415.6,1873.2 1423.8,1856.7 1432.4,1841.0 1441.3,1826.3 1450.6,1812.7 1460.3,1800.1 1470.4,1788.8 1480.8,1778.6 1491.5,1769.7 1502.5,1762.1 1513.9,1755.9 1525.5,1751.0 1537.4,1747.4 1549.6,1745.3 1562.0,1744.5 1574.6,1745.1 1587.4,1747.1 1600.4,1750.5 1613.5,1755.2 1626.8,1761.1 1640.1,1768.4 1653.5,1776.8 1666.9,1786.5 1680.4,1797.2 1693.8,1809.0 1707.1,1821.7 1720.4,1835.4 1733.5,1849.8 1746.4,1865.0 1759.2,1880.8 1771.7,1897.1 1783.9,1913.8 1795.8,1930.7  Z" style="stroke-width: 0.5;  stroke: rgb(0,0,0); fill: rgb(179,177,178);" />
<path d="M 1642.695,997.363 A 522.500,522.500 0.00 0,1 1671.8,1006.6 L 1671.8,1006.6 1664.5,1026.7 1656.7,1046.7 1648.4,1066.5 1639.5,1086.0 1630.2,1105.0 1620.2,1123.6 1609.8,1141.5 1598.8,1158.7 1587.2,1175.2 1575.2,1190.9 1562.7,1205.7 1549.6,1219.5 1536.1,1232.4 1522.0,1244.2 1507.5,1255.0 1492.6,1264.6 1477.2,1273.1 1461.4,1280.4 1445.2,1286.6 1428.7,1291.5 1411.8,1295.2 1394.6,1297.8 1377.1,1299.1 1359.3,1299.3 1341.3,1298.2 1323.1,1296.0 1304.7,1292.7 1286.2,1288.3 1267.6,1282.8 1248.9,1276.3 1230.2,1268.9 1211.6,1260.5 1193.0,1251.2 1174.5,1241.2 1156.2,1230.4 1138.1,1219.0 1120.3,1207.0 1102.8,1194.5 1085.7,1181.7  A 522.500,522.500 0.00 0,1 1105.0,1158.0 L 1105.0,1158.0 1121.2,1171.7 1137.7,1185.0 1154.5,1197.9 1171.6,1210.2 1188.9,1221.8 1206.3,1232.7 1223.8,1242.8 1241.3,1252.1 1258.9,1260.4 1276.4,1267.7 1293.9,1273.9 1311.2,1279.1 1328.4,1283.1 1345.4,1286.0 1362.2,1287.6 1378.8,1288.0 1395.0,1287.2 1410.9,1285.2 1426.5,1281.9 1441.8,1277.3 1456.6,1271.5 1471.1,1264.5 1485.1,1256.3 1498.7,1246.8 1511.8,1236.2 1524.5,1224.5 1536.6,1211.7 1548.3,1197.9 1559.5,1183.1 1570.1,1167.4 1580.3,1150.8 1589.9,1133.5 1599.0,1115.4 1607.6,1096.7 1615.6,1077.5 1623.1,1057.9 1630.2,1037.9 1636.7,1017.7 1642.7,997.4  Z" style="stroke-width: 0.5;  stroke: rgb(0,0,0); fill: rgb(179,177,178);" />
<path d="M 1963.947,1259.669 A 522.500,522.500 0.00 0,1 1976.6,1285.9 L 1976.6,1285.9 1953.4,1296.2 1930.0,1306.4 1906.3,1316.4 1882.3,1326.2 1858.2,1335.8 1833.8,1345.2 1809.3,1354.3 1784.5,1363.3 1759.6,1371.9 1734.5,1380.3 1709.2,1388.4 1683.7,1396.3 1658.2,1403.8 1632.4,1411.1 1606.6,1418.0 1580.6,1424.6 1554.5,1430.9 1528.4,1436.9 1502.1,1442.5 1475.8,1447.8 1449.4,1452.8 1423.0,1457.4 1396.5,1461.7 1370.0,1465.6 1343.5,1469.2 1317.0,1472.5 1290.4,1475.4 1264.0,1478.0 1237.5,1480.3 1211.1,1482.3 1184.7,1483.9 1158.5,1485.3 1132.3,1486.3 1106.2,1487.1 1080.2,1487.6 1054.3,1487.8 1028.6,1487.7 1003.1,1487.5 977.7,1486.9  A 522.500,522.500 0.00 0,1 979.2,1457.8 L 979.2,1457.8 1004.2,1459.7 1029.4,1461.3 1054.7,1462.6 1080.3,1463.6 1106.0,1464.3 1131.8,1464.7 1157.8,1464.7 1183.9,1464.3 1210.1,1463.5 1236.3,1462.4 1262.6,1460.9 1288.9,1459.0 1315.3,1456.6 1341.6,1453.9 1368.0,1450.7 1394.4,1447.2 1420.7,1443.2 1446.9,1438.8 1473.1,1433.9 1499.2,1428.7 1525.3,1423.0 1551.2,1416.9 1577.0,1410.4 1602.7,1403.5 1628.2,1396.2 1653.6,1388.6 1678.8,1380.5 1703.8,1372.1 1728.6,1363.3 1753.3,1354.2 1777.7,1344.8 1801.9,1335.1 1825.8,1325.0 1849.5,1314.7 1873.0,1304.1 1896.1,1293.3 1919.0,1282.3 1941.6,1271.1 1963.9,1259.7  Z" style="stroke-width: 0.5;  stroke: rgb(0,0,0); fill: rgb(179,177,178);" />
<path d="M 1982.852,1699.649 A 522.500,522.500 0.00 0,1 1972.3,1723.5 L 1972.3,1723.5 1951.6,1713.9 1930.5,1704.8 1909.0,1696.2 1887.2,1688.1 1865.1,1680.5 1842.8,1673.6 1820.3,1667.3 1797.6,1661.8 1774.8,1657.0 1751.8,1653.0 1728.8,1649.8 1705.8,1647.5 1682.8,1646.0 1659.7,1645.3 1636.8,1645.6 1613.9,1646.8 1591.1,1649.0 1568.5,1652.0 1546.0,1656.0 1523.7,1660.9 1501.7,1666.7 1479.8,1673.4 1458.3,1681.1 1437.0,1689.6 1416.0,1699.0 1395.4,1709.2 1375.1,1720.2 1355.2,1732.0 1335.7,1744.6 1316.5,1757.8 1297.8,1771.8 1279.6,1786.3 1261.7,1801.5 1244.4,1817.1 1227.5,1833.2 1211.2,1849.7 1195.3,1866.6 1179.9,1883.7 1165.1,1901.1  A 522.500,522.500 0.00 0,1 1145.6,1883.9 L 1145.6,1883.9 1161.4,1867.1 1177.8,1850.5 1194.6,1834.2 1212.0,1818.3 1229.8,1802.7 1248.1,1787.5 1266.9,1772.9 1286.0,1758.8 1305.6,1745.3 1325.7,1732.4 1346.1,1720.2 1366.8,1708.6 1387.9,1697.9 1409.4,1687.8 1431.2,1678.6 1453.2,1670.1 1475.5,1662.5 1498.1,1655.8 1520.9,1649.8 1543.9,1644.8 1567.1,1640.6 1590.4,1637.3 1613.9,1634.8 1637.5,1633.2 1661.1,1632.4 1684.8,1632.5 1708.5,1633.5 1732.2,1635.2 1755.8,1637.7 1779.4,1641.0 1802.8,1645.1 1826.2,1649.8 1849.3,1655.2 1872.3,1661.3 1895.0,1667.9 1917.5,1675.2 1939.6,1682.9 1961.4,1691.1 1982.9,1699.6  Z" style="stroke-width: 0.5;  stroke: rgb(0,0,0); fill: rgb(179,177,178);" />
<path d="M 1925.412,1803.366 A 522.500,522.500 0.00 0,1 1914.1,1818.6 L 1914.1,1818.6 1896.5,1805.4 1878.5,1792.6 1860.1,1780.3 1841.4,1768.4 1822.3,1757.2 1803.0,1746.7 1783.5,1736.8 1763.7,1727.8 1743.8,1719.6 1723.7,1712.4 1703.5,1706.0 1683.3,1700.7 1663.1,1696.4 1642.9,1693.1 1622.6,1690.8 1602.5,1689.7 1582.5,1689.7 1562.5,1690.8 1542.8,1693.0 1523.2,1696.3 1503.8,1700.7 1484.6,1706.2 1465.7,1712.9 1447.0,1720.6 1428.7,1729.3 1410.7,1739.1 1393.0,1749.9 1375.7,1761.6 1358.7,1774.2 1342.2,1787.7 1326.0,1801.9 1310.3,1817.0 1295.1,1832.7 1280.3,1849.0 1266.0,1865.9 1252.2,1883.2 1238.9,1900.9 1226.1,1919.0 1213.9,1937.2  A 522.500,522.500 0.00 0,1 1198.2,1926.5 L 1198.2,1926.5 1211.2,1908.6 1224.8,1890.9 1238.8,1873.5 1253.4,1856.5 1268.4,1839.9 1284.0,1823.9 1300.0,1808.5 1316.4,1793.7 1333.3,1779.7 1350.6,1766.4 1368.3,1754.0 1386.4,1742.5 1404.8,1731.8 1423.5,1722.2 1442.6,1713.5 1462.0,1705.8 1481.6,1699.2 1501.5,1693.6 1521.6,1689.1 1541.9,1685.6 1562.3,1683.3 1583.0,1682.0 1603.7,1681.8 1624.5,1682.7 1645.4,1684.6 1666.3,1687.6 1687.2,1691.5 1708.0,1696.5 1728.8,1702.4 1749.5,1709.2 1770.1,1716.9 1790.4,1725.4 1810.6,1734.7 1830.6,1744.7 1850.3,1755.4 1869.6,1766.7 1888.6,1778.5 1907.2,1790.7 1925.4,1803.4  Z" style="stroke-width: 0.5;  stroke: rgb(0,0,0); fill: rgb(179,177,178);" />
<path d="M 1928.716,1201.321 A 522.500,522.500 0.00 0,1 1938.0,1215.2 L 1938.0,1215.2 1917.4,1228.4 1896.4,1241.4 1875.1,1254.1 1853.3,1266.6 1831.3,1278.8 1808.9,1290.7 1786.2,1302.3 1763.1,1313.4 1739.8,1324.2 1716.2,1334.6 1692.4,1344.5 1668.3,1353.9 1643.9,1362.9 1619.4,1371.4 1594.6,1379.4 1569.6,1386.9 1544.5,1393.8 1519.2,1400.2 1493.8,1406.1 1468.2,1411.4 1442.6,1416.2 1416.8,1420.4 1391.0,1424.1 1365.1,1427.2 1339.2,1429.7 1313.3,1431.8 1287.4,1433.2 1261.5,1434.2 1235.7,1434.6 1209.9,1434.6 1184.3,1434.0 1158.7,1432.9 1133.3,1431.4 1108.0,1429.5 1082.9,1427.1 1058.0,1424.3 1033.3,1421.1 1008.8,1417.6 984.7,1413.7  A 522.500,522.500 0.00 0,1 987.7,1397.3 L 987.7,1397.3 1011.5,1401.9 1035.7,1406.1 1060.1,1410.0 1084.7,1413.4 1109.6,1416.5 1134.6,1419.0 1159.8,1421.1 1185.1,1422.7 1210.6,1423.8 1236.1,1424.4 1261.8,1424.4 1287.4,1423.8 1313.1,1422.7 1338.8,1421.0 1364.5,1418.7 1390.2,1415.8 1415.8,1412.3 1441.3,1408.2 1466.7,1403.6 1492.0,1398.3 1517.2,1392.4 1542.2,1386.0 1567.1,1379.0 1591.8,1371.4 1616.2,1363.2 1640.5,1354.5 1664.5,1345.3 1688.2,1335.5 1711.7,1325.3 1734.9,1314.6 1757.8,1303.5 1780.4,1291.9 1802.7,1279.9 1824.6,1267.5 1846.2,1254.9 1867.4,1241.8 1888.2,1228.6 1908.7,1215.0 1928.7,1201.3  Z" style="stroke-width: 0.5;  stroke: rgb(0,0,0); fill: rgb(179,177,178);" />
<path d="M 1740.029,1035.896 A 522.500,522.500 0.00 0,1 1753.3,1043.0 L 1753.3,1043.0 1742.3,1062.3 1730.8,1081.4 1718.7,1100.2 1706.1,1118.8 1692.9,1136.9 1679.2,1154.6 1665.0,1171.7 1650.2,1188.2 1634.9,1204.1 1619.2,1219.2 1602.9,1233.5 1586.2,1247.1 1569.0,1259.7 1551.4,1271.5 1533.3,1282.3 1514.9,1292.1 1496.0,1301.0 1476.8,1308.8 1457.3,1315.6 1437.4,1321.4 1417.2,1326.1 1396.8,1329.7 1376.2,1332.4 1355.3,1333.9 1334.3,1334.5 1313.1,1334.0 1291.8,1332.5 1270.4,1330.0 1249.0,1326.6 1227.6,1322.3 1206.2,1317.1 1184.9,1311.0 1163.7,1304.2 1142.7,1296.6 1121.9,1288.3 1101.3,1279.4 1081.0,1269.9 1061.0,1260.0 1041.4,1249.6  A 522.500,522.500 0.00 0,1 1048.8,1236.5 L 1048.8,1236.5 1068.0,1247.3 1087.5,1257.8 1107.4,1267.8 1127.6,1277.2 1148.0,1285.9 1168.6,1294.0 1189.3,1301.3 1210.2,1307.8 1231.1,1313.5 1252.1,1318.2 1273.0,1322.0 1293.9,1324.9 1314.8,1326.7 1335.4,1327.5 1356.0,1327.3 1376.4,1326.0 1396.5,1323.6 1416.4,1320.2 1436.0,1315.6 1455.4,1310.0 1474.4,1303.4 1493.0,1295.6 1511.3,1286.8 1529.2,1277.0 1546.7,1266.2 1563.7,1254.5 1580.3,1241.8 1596.4,1228.2 1612.1,1213.7 1627.3,1198.5 1641.9,1182.5 1656.1,1165.9 1669.7,1148.6 1682.8,1130.7 1695.3,1112.4 1707.3,1093.7 1718.8,1074.6 1729.7,1055.3 1740.0,1035.9  Z" style="stroke-width: 0.5;  stroke: rgb(0,0,0); fill: rgb(179,177,178);" />
<path d="M 1990.909,1678.927 A 522.500,522.500 0.00 0,1 1985.6,1692.8 L 1985.6,1692.8 1964.0,1684.5 1942.1,1676.6 1919.8,1669.2 1897.1,1662.2 1874.3,1655.9 1851.2,1650.1 1827.9,1644.9 1804.4,1640.4 1780.8,1636.7 1757.1,1633.6 1733.3,1631.3 1709.5,1629.8 1685.7,1629.1 1661.9,1629.2 1638.2,1630.2 1614.5,1631.9 1590.9,1634.6 1567.5,1638.1 1544.2,1642.4 1521.1,1647.6 1498.2,1653.7 1475.5,1660.6 1453.1,1668.3 1430.9,1676.8 1409.0,1686.1 1387.5,1696.2 1366.3,1707.0 1345.4,1718.6 1324.9,1730.9 1304.8,1743.8 1285.1,1757.3 1265.8,1771.4 1247.0,1786.0 1228.6,1801.1 1210.6,1816.7 1193.2,1832.7 1176.2,1848.9 1159.7,1865.5 1143.8,1882.2  A 522.500,522.500 0.00 0,1 1133.0,1872.0 L 1133.0,1872.0 1149.6,1855.5 1166.6,1839.3 1184.1,1823.4 1202.1,1807.8 1220.6,1792.5 1239.5,1777.7 1258.9,1763.4 1278.7,1749.6 1298.9,1736.3 1319.5,1723.6 1340.4,1711.6 1361.7,1700.2 1383.4,1689.5 1405.4,1679.5 1427.7,1670.3 1450.2,1661.8 1473.1,1654.2 1496.1,1647.3 1519.4,1641.2 1542.9,1635.9 1566.6,1631.4 1590.4,1627.8 1614.3,1624.9 1638.3,1622.9 1662.4,1621.7 1686.5,1621.3 1710.7,1621.7 1734.8,1622.8 1758.9,1624.7 1783.0,1627.4 1806.9,1630.7 1830.7,1634.7 1854.3,1639.4 1877.8,1644.7 1901.0,1650.5 1923.9,1656.9 1946.6,1663.8 1968.9,1671.2 1990.9,1678.9  Z" style="stroke-width: 0.5;  stroke: rgb(0,0,0); fill: rgb(179,177,178);" />
<path d="M 1993.624,1328.706 A 522.500,522.500 0.00 0,1 1998.1,1342.2 L 1998.1,1342.2 1973.2,1350.0 1948.1,1357.8 1923.0,1365.4 1897.7,1373.0 1872.3,1380.5 1846.8,1387.8 1821.2,1395.1 1795.5,1402.2 1769.7,1409.2 1743.9,1416.0 1717.9,1422.8 1691.9,1429.4 1665.8,1435.8 1639.6,1442.1 1613.4,1448.2 1587.1,1454.2 1560.8,1460.1 1534.4,1465.7 1508.0,1471.3 1481.5,1476.6 1455.0,1481.8 1428.5,1486.8 1402.0,1491.7 1375.4,1496.4 1348.9,1500.9 1322.3,1505.3 1295.7,1509.5 1269.2,1513.6 1242.7,1517.5 1216.2,1521.2 1189.7,1524.8 1163.3,1528.2 1136.9,1531.5 1110.5,1534.7 1084.2,1537.6 1058.0,1540.5 1031.8,1543.2 1005.7,1545.8 979.7,1548.3  A 522.500,522.500 0.00 0,1 978.6,1533.8 L 978.6,1533.8 1004.5,1532.1 1030.5,1530.2 1056.6,1528.1 1082.8,1525.9 1109.0,1523.5 1135.3,1520.9 1161.7,1518.2 1188.1,1515.2 1214.6,1512.1 1241.1,1508.8 1267.7,1505.3 1294.2,1501.5 1320.8,1497.6 1347.4,1493.5 1374.0,1489.2 1400.5,1484.7 1427.1,1479.9 1453.6,1475.0 1480.1,1469.8 1506.6,1464.5 1533.0,1459.0 1559.4,1453.2 1585.7,1447.3 1611.9,1441.1 1638.1,1434.8 1664.2,1428.2 1690.2,1421.5 1716.1,1414.6 1742.0,1407.6 1767.7,1400.3 1793.3,1392.9 1818.8,1385.4 1844.2,1377.7 1869.4,1369.8 1894.6,1361.8 1919.5,1353.7 1944.4,1345.5 1969.1,1337.1 1993.6,1328.7  Z" style="stroke-width: 0.5;  stroke: rgb(0,0,0); fill: rgb(179,177,178);" />
<path d="M 1610.214,989.256 A 522.500,522.500 0.00 0,1 1622.6,992.1 L 1622.6,992.1 1617.4,1012.5 1611.7,1032.9 1605.6,1053.0 1598.9,1072.7 1591.8,1092.1 1584.1,1110.9 1575.9,1129.1 1567.2,1146.6 1557.9,1163.3 1548.1,1179.1 1537.8,1194.0 1527.0,1207.9 1515.7,1220.7 1503.9,1232.5 1491.6,1243.1 1478.8,1252.6 1465.6,1260.8 1451.9,1267.8 1437.8,1273.6 1423.3,1278.1 1408.4,1281.3 1393.2,1283.2 1377.6,1283.9 1361.7,1283.3 1345.6,1281.5 1329.2,1278.5 1312.6,1274.3 1295.8,1268.9 1278.9,1262.5 1261.9,1254.9 1244.8,1246.4 1227.7,1236.9 1210.7,1226.6 1193.7,1215.4 1176.9,1203.5 1160.2,1190.9 1143.8,1177.8 1127.6,1164.2 1111.8,1150.3  A 522.500,522.500 0.00 0,1 1120.4,1141.0 L 1120.4,1141.0 1135.8,1155.3 1151.5,1169.2 1167.5,1182.6 1183.8,1195.5 1200.2,1207.8 1216.7,1219.3 1233.3,1230.0 1249.9,1239.8 1266.4,1248.7 1283.0,1256.5 1299.4,1263.3 1315.6,1269.0 1331.7,1273.5 1347.6,1276.8 1363.2,1278.9 1378.5,1279.7 1393.5,1279.2 1408.2,1277.5 1422.5,1274.5 1436.4,1270.2 1450.0,1264.6 1463.0,1257.7 1475.7,1249.6 1487.9,1240.2 1499.6,1229.7 1510.8,1218.0 1521.5,1205.2 1531.7,1191.3 1541.4,1176.5 1550.6,1160.7 1559.3,1144.0 1567.4,1126.5 1575.0,1108.3 1582.1,1089.4 1588.7,1070.1 1594.8,1050.3 1600.4,1030.1 1605.6,1009.7 1610.2,989.3  Z" style="stroke-width: 0.5;  stroke: rgb(0,0,0); fill: rgb(179,177,178);" />
<path d="M 1623.643,992.340 A 522.500,522.500 0.00 0,1 1632.0,994.5 L 1632.0,994.5 1626.5,1014.9 1620.4,1035.2 1613.8,1055.2 1606.8,1075.0 1599.2,1094.3 1591.0,1113.0 1582.4,1131.2 1573.2,1148.7 1563.5,1165.3 1553.3,1181.1 1542.6,1196.0 1531.3,1210.0 1519.6,1222.8 1507.3,1234.6 1494.6,1245.3 1481.4,1254.8 1467.7,1263.1 1453.6,1270.2 1439.1,1276.1 1424.1,1280.7 1408.9,1284.0 1393.2,1286.1 1377.2,1286.9 1361.0,1286.5 1344.4,1284.9 1327.7,1282.1 1310.7,1278.0 1293.6,1272.9 1276.3,1266.6 1258.9,1259.3 1241.5,1251.0 1224.1,1241.8 1206.7,1231.6 1189.4,1220.7 1172.3,1209.0 1155.3,1196.7 1138.6,1183.8 1122.1,1170.5 1106.0,1156.8  A 522.500,522.500 0.00 0,1 1111.8,1150.3 L 1111.8,1150.3 1127.6,1164.2 1143.8,1177.8 1160.2,1190.9 1176.9,1203.5 1193.7,1215.4 1210.7,1226.6 1227.8,1236.9 1244.9,1246.4 1261.9,1255.0 1279.0,1262.5 1295.9,1269.0 1312.7,1274.3 1329.3,1278.5 1345.7,1281.6 1361.9,1283.4 1377.8,1284.0 1393.4,1283.3 1408.7,1281.3 1423.6,1278.1 1438.1,1273.7 1452.2,1267.9 1465.9,1260.9 1479.2,1252.7 1492.0,1243.2 1504.4,1232.6 1516.2,1220.9 1527.6,1208.0 1538.4,1194.1 1548.8,1179.2 1558.6,1163.4 1567.9,1146.8 1576.6,1129.3 1584.9,1111.1 1592.6,1092.3 1599.8,1073.0 1606.5,1053.2 1612.7,1033.1 1618.4,1012.8 1623.6,992.3  Z" style="stroke-width: 0.5;  stroke: rgb(0,0,0); fill: rgb(179,177,178);" />
<path d="M 1675.166,1007.737 A 522.500,522.500 0.00 0,1 1683.0,1010.6 L 1683.0,1010.6 1675.2,1030.7 1666.9,1050.6 1658.1,1070.3 1648.7,1089.7 1638.8,1108.6 1628.4,1127.0 1617.4,1144.9 1605.9,1162.1 1593.9,1178.5 1581.3,1194.1 1568.3,1208.8 1554.7,1222.7 1540.6,1235.5 1526.1,1247.3 1511.1,1258.1 1495.7,1267.7 1479.9,1276.3 1463.6,1283.7 1446.9,1289.9 1429.9,1294.9 1412.6,1298.8 1394.9,1301.5 1377.0,1303.0 1358.8,1303.3 1340.3,1302.4 1321.7,1300.4 1302.9,1297.3 1284.0,1293.1 1265.1,1287.9 1246.0,1281.7 1227.0,1274.4 1208.0,1266.3 1189.0,1257.4 1170.2,1247.6 1151.6,1237.1 1133.2,1226.0 1115.0,1214.3 1097.2,1202.1 1079.8,1189.5  A 522.500,522.500 0.00 0,1 1084.8,1182.8 L 1084.8,1182.8 1102.0,1195.7 1119.5,1208.1 1137.4,1220.0 1155.6,1231.4 1173.9,1242.1 1192.4,1252.1 1211.1,1261.4 1229.8,1269.7 1248.6,1277.2 1267.3,1283.6 1286.0,1289.1 1304.6,1293.5 1323.1,1296.8 1341.4,1298.9 1359.5,1300.0 1377.3,1299.8 1395.0,1298.5 1412.3,1295.9 1429.3,1292.2 1446.0,1287.2 1462.3,1281.1 1478.2,1273.8 1493.7,1265.3 1508.7,1255.7 1523.4,1245.0 1537.5,1233.2 1551.2,1220.3 1564.4,1206.5 1577.1,1191.7 1589.3,1176.1 1600.9,1159.6 1612.1,1142.4 1622.7,1124.5 1632.8,1106.1 1642.3,1087.0 1651.3,1067.6 1659.8,1047.9 1667.7,1027.9 1675.2,1007.7  Z" style="stroke-width: 0.5;  stroke: rgb(0,0,0); fill: rgb(179,177,178);" />
<path d="M 1993.918,1670.443 A 522.500,522.500 0.00 0,1 1991.3,1677.9 L 1991.3,1677.9 1969.3,1670.2 1946.9,1662.8 1924.2,1656.0 1901.2,1649.6 1878.0,1643.8 1854.5,1638.6 1830.8,1633.9 1807.0,1629.9 1783.0,1626.6 1759.0,1624.0 1734.8,1622.1 1710.7,1621.0 1686.5,1620.6 1662.3,1621.0 1638.2,1622.2 1614.1,1624.3 1590.2,1627.1 1566.3,1630.7 1542.6,1635.2 1519.1,1640.4 1495.7,1646.5 1472.6,1653.4 1449.7,1661.0 1427.1,1669.5 1404.8,1678.7 1382.7,1688.6 1361.0,1699.3 1339.6,1710.6 1318.6,1722.6 1297.9,1735.2 1277.7,1748.4 1257.8,1762.2 1238.4,1776.5 1219.4,1791.2 1200.8,1806.4 1182.8,1822.0 1165.2,1837.8 1148.0,1854.0 1131.4,1870.4  A 522.500,522.500 0.00 0,1 1125.9,1864.8 L 1125.9,1864.8 1142.8,1848.6 1160.2,1832.6 1178.1,1816.9 1196.5,1801.6 1215.3,1786.6 1234.6,1772.0 1254.3,1757.9 1274.4,1744.2 1294.9,1731.2 1315.8,1718.7 1337.1,1706.8 1358.7,1695.6 1380.6,1685.0 1402.9,1675.1 1425.4,1666.0 1448.3,1657.6 1471.4,1649.9 1494.7,1643.1 1518.2,1637.0 1541.9,1631.7 1565.8,1627.1 1589.8,1623.4 1614.0,1620.5 1638.2,1618.4 1662.5,1617.0 1686.8,1616.5 1711.2,1616.7 1735.5,1617.6 1759.8,1619.3 1784.1,1621.7 1808.2,1624.7 1832.2,1628.5 1856.0,1632.9 1879.7,1637.8 1903.1,1643.4 1926.3,1649.5 1949.2,1656.0 1971.7,1663.0 1993.9,1670.4  Z" style="stroke-width: 0.5;  stroke: rgb(0,0,0); fill: rgb(179,177,178);" />
</g>
<g id="plot0">
<g id="plot0-axis">
</g>
<line x1='2243.2' y1='1600.7' x2='2243.2' y2='1600.7' style="stroke-width:14.0;stroke:rgb(0,0,0);stroke-linecap:round;fill:none;" />
<line x1='2243.2' y1='1600.7' x2='2282.8' y2='1606.1' style="stroke-width:14.0;stroke:rgb(0,0,0);stroke-linecap:round;fill:none;" />
<line x1='2282.8' y1='1606.1' x2='2282.8' y2='1606.1' style="stroke-width:14.0;stroke:rgb(0,0,0);stroke-linecap:round;fill:none;" />
<text x="2299.3" y="1631.0" font-size="46.8px" font-family="CMUBright-Roman" style="text-anchor:start;fill:rgb(255,38,78);" transform="rotate(7.7,2299.3,1631.0)" >HistomissSECH84<tspan baseline-shift="-40%" font-size="90%">s</tspan>02368</text>
</g>
<defs>
<pattern id="hline" width="10" height="10" patternTransform="rotate(0 0 0)" patternUnits="userSpaceOnUse"><line x1="0" y1="0" x2="10" y2="0" style="stroke:black;stroke-width:5" /></pattern>
<pattern id="vline-sparse" width="10" height="10" patternTransform="rotate(0 0 0)" patternUnits="userSpaceOnUse"><line x1="0" y1="0" x2="0" y2="10" style="stroke:black;stroke-width:2" /></pattern>
<pattern id="checker" width="10" height="10" patternTransform="rotate(45 0 0)" patternUnits="userSpaceOnUse"><line x1="0" y1="0" x2="10" y2="0" style="stroke:black;stroke-width:5" /><line x1="0" y1="0" x2="0" y2="10" style="stroke:black;stroke-width:4" /></pattern>
<pattern id="hline-sparse" width="10" height="10" patternTransform="rotate(0 0 0)" patternUnits="userSpaceOnUse"><line x1="0" y1="0" x2="10" y2="0" style="stroke:black;stroke-width:2" /></pattern>
<pattern id="checker" width="10" height="10" patternTransform="rotate(45 0 0)" patternUnits="userSpaceOnUse"><line x1="0" y1="0" x2="10" y2="0" style="stroke:black;stroke-width:2" /><line x1="0" y1="0" x2="0" y2="10" style="stroke:black;stroke-width:2" /></pattern>
<pattern id="vline" width="10" height="10" patternTransform="rotate(0 0 0)" patternUnits="userSpaceOnUse"><line x1="0" y1="0" x2="0" y2="10" style="stroke:black;stroke-width:5" /></pattern>
</defs>
</svg>
