<?xml version="1.0" encoding="utf-8" standalone="no"?>
<!DOCTYPE svg PUBLIC "-//W3C//DTD SVG 1.1//EN" "http://www.w3.org/Graphics/SVG/1.1/DTD/svg11.dtd">
<svg width="3000px" height="3000px" version="1.1" xmlns="http://www.w3.org/2000/svg" xmlns:xlink="http://www.w3.org/1999/xlink">
<g id="bg">
<rect x="0" y="0" width="3000px" height="3000px" style="fill:rgb(255,255,255);"/>
</g>
<g id="ideograms">
<path d="M1500.000,950.000 A550.000,550.000 40.000 0,1 1657.660,2026.919 L1714.991,2218.525 A750.000,750.000 0.000 0,0 1500.000,750.000 Z" style="stroke-width:2.0;stroke:rgb(0,0,0);stroke-linecap:round;fill:rgb(179,177,178);" />
<text x="2464.7" y="1358.8" font-size="46.8px" font-family="CMUBright-Roman" style="text-anchor:middle;fill:rgb(0,0,0);" transform="rotate(441.7,2464.7,1358.8)" >HistocapCB055<tspan baseline-shift="-40%" font-size="90%">2</tspan></text>
<line x1='1532.0' y1='750.7' x2='1532.5' y2='738.7' style="stroke-width:8.0;stroke:rgb(150,150,150);stroke-linecap:round;fill:none;" />
<line x1='1630.1' y1='761.4' x2='1632.1' y2='749.5' style="stroke-width:8.0;stroke:rgb(150,150,150);stroke-linecap:round;fill:none;" />
<text x="1648.0" y="740.3" font-size="41.6px" font-family="CMUBright-Roman" style="text-anchor:start;fill:rgb(150,150,150);" transform="rotate(280.0,1648.0,740.3)" >450 kb</text>
<line x1='1725.8' y1='784.8' x2='1729.5' y2='773.4' style="stroke-width:8.0;stroke:rgb(150,150,150);stroke-linecap:round;fill:none;" />
<line x1='1817.7' y1='820.6' x2='1822.8' y2='809.8' style="stroke-width:8.0;stroke:rgb(150,150,150);stroke-linecap:round;fill:none;" />
<line x1='1904.1' y1='868.2' x2='1910.6' y2='858.1' style="stroke-width:8.0;stroke:rgb(150,150,150);stroke-linecap:round;fill:none;" />
<line x1='1983.5' y1='926.7' x2='1991.3' y2='917.5' style="stroke-width:8.0;stroke:rgb(150,150,150);stroke-linecap:round;fill:none;" />
<line x1='2054.6' y1='995.1' x2='2063.5' y2='987.0' style="stroke-width:8.0;stroke:rgb(150,150,150);stroke-linecap:round;fill:none;" />
<text x="2081.7" y="989.4" font-size="41.6px" font-family="CMUBright-Roman" style="text-anchor:start;fill:rgb(150,150,150);" transform="rotate(317.7,2081.7,989.4)" >500 kb</text>
<line x1='2116.0' y1='1072.2' x2='2125.9' y2='1065.4' style="stroke-width:8.0;stroke:rgb(150,150,150);stroke-linecap:round;fill:none;" />
<line x1='2166.8' y1='1156.7' x2='2177.5' y2='1151.3' style="stroke-width:8.0;stroke:rgb(150,150,150);stroke-linecap:round;fill:none;" />
<line x1='2206.1' y1='1247.2' x2='2217.4' y2='1243.2' style="stroke-width:8.0;stroke:rgb(150,150,150);stroke-linecap:round;fill:none;" />
<line x1='2233.2' y1='1342.0' x2='2244.9' y2='1339.5' style="stroke-width:8.0;stroke:rgb(150,150,150);stroke-linecap:round;fill:none;" />
<line x1='2247.6' y1='1439.6' x2='2259.5' y2='1438.6' style="stroke-width:8.0;stroke:rgb(150,150,150);stroke-linecap:round;fill:none;" />
<text x="2272.5" y="1451.6" font-size="41.6px" font-family="CMUBright-Roman" style="text-anchor:start;fill:rgb(150,150,150);" transform="rotate(355.4,2272.5,1451.6)" >550 kb</text>
<line x1='2249.0' y1='1538.2' x2='2261.0' y2='1538.8' style="stroke-width:8.0;stroke:rgb(150,150,150);stroke-linecap:round;fill:none;" />
<line x1='2237.5' y1='1636.2' x2='2249.3' y2='1638.3' style="stroke-width:8.0;stroke:rgb(150,150,150);stroke-linecap:round;fill:none;" />
<line x1='2213.3' y1='1731.8' x2='2224.7' y2='1735.5' style="stroke-width:8.0;stroke:rgb(150,150,150);stroke-linecap:round;fill:none;" />
<line x1='2176.7' y1='1823.3' x2='2187.5' y2='1828.5' style="stroke-width:8.0;stroke:rgb(150,150,150);stroke-linecap:round;fill:none;" />
<line x1='2128.4' y1='1909.3' x2='2138.5' y2='1915.9' style="stroke-width:8.0;stroke:rgb(150,150,150);stroke-linecap:round;fill:none;" />
<text x="2140.8" y="1934.1" font-size="41.6px" font-family="CMUBright-Roman" style="text-anchor:start;fill:rgb(150,150,150);" transform="rotate(33.1,2140.8,1934.1)" >600 kb</text>
<line x1='2069.3' y1='1988.3' x2='2078.4' y2='1996.1' style="stroke-width:8.0;stroke:rgb(150,150,150);stroke-linecap:round;fill:none;" />
<line x1='2000.3' y1='2058.7' x2='2008.3' y2='2067.7' style="stroke-width:8.0;stroke:rgb(150,150,150);stroke-linecap:round;fill:none;" />
<line x1='1922.7' y1='2119.6' x2='1929.4' y2='2129.5' style="stroke-width:8.0;stroke:rgb(150,150,150);stroke-linecap:round;fill:none;" />
<line x1='1837.7' y1='2169.7' x2='1843.1' y2='2180.4' style="stroke-width:8.0;stroke:rgb(150,150,150);stroke-linecap:round;fill:none;" />
<line x1='1746.9' y1='2208.2' x2='1750.9' y2='2219.5' style="stroke-width:8.0;stroke:rgb(150,150,150);stroke-linecap:round;fill:none;" />
<text x="1741.6" y="2235.3" font-size="41.6px" font-family="CMUBright-Roman" style="text-anchor:start;fill:rgb(150,150,150);" transform="rotate(70.8,1741.6,2235.3)" >650 kb</text>
<g id="highlighttrack_0">
<path d="M2032.228,1361.317 A550.000,550.000 40.000 0,1 2049.647,1480.297 L2249.519,1473.132 A750.000,750.000 0.000 0,0 2225.766,1310.887 Z" style="stroke-width:14.0;stroke:rgb(0,0,0);stroke-linecap:round;fill:rgb(255,38,78);" />
</g>
<path d="M1500.000,950.000 A550.000,550.000 40.000 0,1 1657.660,2026.919 L1714.991,2218.525 A750.000,750.000 0.000 0,0 1500.000,750.000 Z" style="stroke-width:2.0;stroke:rgb(0,0,0);stroke-linecap:round;fill:none;" />
<path d="M1442.884,2047.026 A550.000,550.000 40.000 0,1 1288.473,992.303 L1211.554,807.686 A750.000,750.000 0.000 0,0 1422.115,2245.945 Z" style="stroke-width:2.0;stroke:rgb(0,0,0);stroke-linecap:round;fill:rgb(179,177,178);" />
<text x="490.8" y="1647.8" font-size="46.8px" font-family="CMUBright-Roman" style="text-anchor:middle;fill:rgb(0,0,0);" transform="rotate(81.7,490.8,1647.8)" >HistoohiSECH98<tspan baseline-shift="-40%" font-size="90%">2</tspan></text>
<line x1='1157.0' y1='833.0' x2='1151.6' y2='822.3' style="stroke-width:8.0;stroke:rgb(150,150,150);stroke-linecap:round;fill:none;" />
<text x="1133.7" y="818.2" font-size="41.6px" font-family="CMUBright-Roman" style="text-anchor:end;fill:rgb(150,150,150);" transform="rotate(62.8,1133.7,818.2)" >450 kb</text>
<line x1='1072.5' y1='883.8' x2='1065.6' y2='873.9' style="stroke-width:8.0;stroke:rgb(150,150,150);stroke-linecap:round;fill:none;" />
<line x1='995.3' y1='945.2' x2='987.3' y2='936.3' style="stroke-width:8.0;stroke:rgb(150,150,150);stroke-linecap:round;fill:none;" />
<line x1='926.9' y1='1016.2' x2='917.7' y2='1008.5' style="stroke-width:8.0;stroke:rgb(150,150,150);stroke-linecap:round;fill:none;" />
<line x1='868.4' y1='1095.6' x2='858.3' y2='1089.1' style="stroke-width:8.0;stroke:rgb(150,150,150);stroke-linecap:round;fill:none;" />
<line x1='820.8' y1='1182.0' x2='809.9' y2='1176.9' style="stroke-width:8.0;stroke:rgb(150,150,150);stroke-linecap:round;fill:none;" />
<text x="793.2" y="1184.5" font-size="41.6px" font-family="CMUBright-Roman" style="text-anchor:end;fill:rgb(150,150,150);" transform="rotate(25.1,793.2,1184.5)" >500 kb</text>
<line x1='784.9' y1='1273.8' x2='773.5' y2='1270.2' style="stroke-width:8.0;stroke:rgb(150,150,150);stroke-linecap:round;fill:none;" />
<line x1='761.4' y1='1369.6' x2='749.6' y2='1367.5' style="stroke-width:8.0;stroke:rgb(150,150,150);stroke-linecap:round;fill:none;" />
<line x1='750.7' y1='1467.6' x2='738.7' y2='1467.1' style="stroke-width:8.0;stroke:rgb(150,150,150);stroke-linecap:round;fill:none;" />
<line x1='752.9' y1='1566.2' x2='741.0' y2='1567.3' style="stroke-width:8.0;stroke:rgb(150,150,150);stroke-linecap:round;fill:none;" />
<line x1='768.1' y1='1663.7' x2='756.4' y2='1666.3' style="stroke-width:8.0;stroke:rgb(150,150,150);stroke-linecap:round;fill:none;" />
<text x="747.8" y="1682.6" font-size="41.6px" font-family="CMUBright-Roman" style="text-anchor:end;fill:rgb(150,150,150);" transform="rotate(-12.6,747.8,1682.6)" >550 kb</text>
<line x1='795.9' y1='1758.3' x2='784.6' y2='1762.4' style="stroke-width:8.0;stroke:rgb(150,150,150);stroke-linecap:round;fill:none;" />
<line x1='835.9' y1='1848.5' x2='825.2' y2='1854.0' style="stroke-width:8.0;stroke:rgb(150,150,150);stroke-linecap:round;fill:none;" />
<line x1='887.3' y1='1932.6' x2='877.5' y2='1939.5' style="stroke-width:8.0;stroke:rgb(150,150,150);stroke-linecap:round;fill:none;" />
<line x1='949.4' y1='2009.2' x2='940.6' y2='2017.4' style="stroke-width:8.0;stroke:rgb(150,150,150);stroke-linecap:round;fill:none;" />
<line x1='1021.0' y1='2077.1' x2='1013.3' y2='2086.3' style="stroke-width:8.0;stroke:rgb(150,150,150);stroke-linecap:round;fill:none;" />
<text x="1016.5" y="2104.4" font-size="41.6px" font-family="CMUBright-Roman" style="text-anchor:end;fill:rgb(150,150,150);" transform="rotate(-50.3,1016.5,2104.4)" >600 kb</text>
<line x1='1100.8' y1='2135.0' x2='1094.4' y2='2145.1' style="stroke-width:8.0;stroke:rgb(150,150,150);stroke-linecap:round;fill:none;" />
<line x1='1187.6' y1='2181.8' x2='1182.6' y2='2192.7' style="stroke-width:8.0;stroke:rgb(150,150,150);stroke-linecap:round;fill:none;" />
<line x1='1279.8' y1='2216.9' x2='1276.2' y2='2228.4' style="stroke-width:8.0;stroke:rgb(150,150,150);stroke-linecap:round;fill:none;" />
<line x1='1375.7' y1='2239.6' x2='1373.7' y2='2251.5' style="stroke-width:8.0;stroke:rgb(150,150,150);stroke-linecap:round;fill:none;" />
<path d="M1442.884,2047.026 A550.000,550.000 40.000 0,1 1288.473,992.303 L1211.554,807.686 A750.000,750.000 0.000 0,0 1422.115,2245.945 Z" style="stroke-width:2.0;stroke:rgb(0,0,0);stroke-linecap:round;fill:none;" />
</g>
<g id="track_0">
<path d="M 1574.142,982.787 A 522.500,522.500 0.00 0,1 1718.4,1025.3 L 1718.4,1025.3 1708.9,1045.4 1698.8,1065.4 1688.1,1085.1 1676.9,1104.6 1665.1,1123.7 1652.7,1142.4 1639.8,1160.6 1626.3,1178.3 1612.2,1195.3 1597.6,1211.7 1582.4,1227.3 1566.7,1242.1 1550.4,1256.1 1533.7,1269.3 1516.5,1281.6 1498.7,1292.9 1480.5,1303.3 1461.9,1312.8 1442.8,1321.2 1423.4,1328.6 1403.6,1335.0 1383.4,1340.4 1362.9,1344.8 1342.1,1348.2 1321.1,1350.5 1299.8,1351.9 1278.4,1352.3 1256.8,1351.7 1235.0,1350.1 1213.2,1347.7 1191.4,1344.4 1169.6,1340.3 1147.8,1335.3 1126.1,1329.6 1104.5,1323.2 1083.2,1316.2 1062.1,1308.6 1041.2,1300.4 1020.8,1291.8  A 522.500,522.500 0.00 0,1 1100.2,1163.6 L 1100.2,1163.6 1116.4,1176.9 1132.9,1189.9 1149.6,1202.4 1166.5,1214.3 1183.6,1225.6 1200.7,1236.1 1217.8,1245.8 1234.9,1254.7 1251.9,1262.6 1268.7,1269.4 1285.4,1275.2 1301.9,1279.9 1318.1,1283.5 1334.0,1285.8 1349.6,1287.0 1364.8,1286.9 1379.6,1285.5 1394.0,1282.9 1408.0,1279.0 1421.5,1273.9 1434.4,1267.5 1446.9,1259.8 1458.9,1251.0 1470.3,1240.9 1481.1,1229.7 1491.4,1217.3 1501.2,1203.9 1510.3,1189.4 1518.9,1174.0 1526.9,1157.6 1534.3,1140.4 1541.2,1122.5 1547.5,1103.8 1553.2,1084.6 1558.4,1064.8 1563.1,1044.6 1567.3,1024.2 1570.9,1003.5 1574.1,982.8  Z" style="stroke-width: 0.5;  stroke: rgb(0,0,0); fill: rgb(179,177,178);" />
<path d="M 1874.688,1864.163 A 522.500,522.500 0.00 0,1 1780.4,1940.9 L 1780.4,1940.9 1768.4,1922.5 1755.8,1904.2 1742.8,1886.3 1729.2,1868.8 1715.1,1851.7 1700.5,1835.1 1685.4,1819.2 1669.9,1803.9 1653.9,1789.4 1637.5,1775.6 1620.7,1762.8 1603.5,1750.8 1585.9,1739.7 1567.9,1729.6 1549.6,1720.5 1531.0,1712.5 1512.1,1705.5 1493.0,1699.6 1473.5,1694.8 1453.9,1691.1 1434.1,1688.6 1414.1,1687.1 1393.9,1686.7 1373.7,1687.5 1353.3,1689.3 1333.0,1692.2 1312.6,1696.1 1292.2,1701.0 1271.8,1706.9 1251.5,1713.8 1231.4,1721.5 1211.4,1730.1 1191.5,1739.5 1171.9,1749.6 1152.6,1760.4 1133.5,1771.8 1114.8,1783.8 1096.5,1796.2 1078.6,1809.0  A 522.500,522.500 0.00 0,1 1018.7,1703.4 L 1018.7,1703.4 1040.2,1694.6 1062.1,1686.2 1084.3,1678.2 1106.8,1670.7 1129.6,1663.8 1152.7,1657.4 1175.9,1651.6 1199.4,1646.5 1223.0,1642.1 1246.8,1638.4 1270.6,1635.5 1294.5,1633.3 1318.5,1631.9 1342.4,1631.3 1366.4,1631.5 1390.3,1632.6 1414.1,1634.4 1437.8,1637.2 1461.4,1640.7 1484.9,1645.1 1508.2,1650.4 1531.3,1656.4 1554.2,1663.3 1576.8,1671.0 1599.2,1679.5 1621.3,1688.8 1643.1,1698.8 1664.6,1709.5 1685.7,1720.9 1706.5,1732.9 1726.9,1745.6 1747.0,1758.9 1766.6,1772.7 1785.7,1787.0 1804.5,1801.7 1822.8,1816.9 1840.6,1832.4 1857.9,1848.2 1874.7,1864.2  Z" style="stroke-width: 0.5;  stroke: rgb(0,0,0); fill: rgb(179,177,178);" />
<path d="M 2020.689,1456.535 A 522.500,522.500 0.00 0,1 2020.7,1543.0 L 2020.7,1543.0 1995.3,1541.0 1969.6,1539.2 1943.8,1537.6 1917.9,1536.2 1891.8,1535.1 1865.6,1534.2 1839.3,1533.5 1812.9,1533.2 1786.4,1533.1 1759.9,1533.2 1733.2,1533.7 1706.6,1534.4 1679.8,1535.4 1653.1,1536.8 1626.3,1538.4 1599.5,1540.3 1572.7,1542.5 1545.9,1545.1 1519.2,1547.9 1492.4,1551.0 1465.8,1554.5 1439.1,1558.2 1412.5,1562.3 1386.0,1566.6 1359.6,1571.3 1333.3,1576.2 1307.0,1581.4 1280.9,1586.8 1254.9,1592.6 1229.0,1598.6 1203.3,1604.8 1177.7,1611.3 1152.3,1618.0 1127.0,1625.0 1101.9,1632.1 1077.0,1639.5 1052.3,1647.0 1027.7,1654.7 1003.4,1662.5  A 522.500,522.500 0.00 0,1 983.4,1578.5 L 983.4,1578.5 1009.7,1574.6 1036.0,1570.6 1062.4,1566.7 1088.8,1562.8 1115.2,1559.0 1141.7,1555.2 1168.2,1551.4 1194.7,1547.7 1221.2,1544.0 1247.8,1540.4 1274.3,1536.8 1301.0,1533.2 1327.6,1529.8 1354.2,1526.3 1380.9,1522.9 1407.5,1519.6 1434.2,1516.3 1460.9,1513.0 1487.6,1509.8 1514.3,1506.7 1541.0,1503.6 1567.8,1500.6 1594.5,1497.6 1621.2,1494.6 1647.9,1491.8 1674.6,1488.9 1701.3,1486.2 1728.0,1483.4 1754.7,1480.8 1781.4,1478.1 1808.1,1475.5 1834.7,1473.0 1861.4,1470.5 1888.0,1468.1 1914.6,1465.7 1941.1,1463.3 1967.7,1461.0 1994.2,1458.8 2020.7,1456.5  Z" style="stroke-width: 0.5;  stroke: rgb(0,0,0); fill: rgb(179,177,178);" />
<path d="M 1745.374,1038.700 A 522.500,522.500 0.00 0,1 1811.2,1080.3 L 1811.2,1080.3 1797.1,1098.8 1782.6,1117.2 1767.5,1135.5 1751.8,1153.4 1735.7,1171.1 1719.0,1188.3 1701.9,1205.2 1684.2,1221.6 1666.1,1237.5 1647.5,1252.9 1628.5,1267.7 1609.0,1281.9 1589.0,1295.5 1568.7,1308.3 1547.9,1320.5 1526.8,1332.0 1505.2,1342.7 1483.4,1352.6 1461.2,1361.8 1438.7,1370.2 1415.9,1377.8 1392.9,1384.6 1369.6,1390.7 1346.2,1395.9 1322.5,1400.3 1298.7,1403.9 1274.7,1406.8 1250.7,1408.8 1226.6,1410.2 1202.5,1410.7 1178.4,1410.6 1154.3,1409.8 1130.3,1408.3 1106.4,1406.1 1082.6,1403.4 1059.0,1400.1 1035.7,1396.2 1012.6,1391.9 989.8,1387.1  A 522.500,522.500 0.00 0,1 1012.0,1313.2 L 1012.0,1313.2 1033.1,1321.0 1054.5,1328.3 1076.2,1335.2 1098.2,1341.4 1120.3,1347.0 1142.6,1351.9 1165.1,1356.1 1187.5,1359.5 1210.0,1362.1 1232.5,1363.9 1254.9,1364.8 1277.2,1364.8 1299.4,1363.9 1321.4,1362.0 1343.3,1359.2 1364.8,1355.5 1386.2,1350.7 1407.2,1345.1 1427.9,1338.4 1448.3,1330.8 1468.2,1322.2 1487.8,1312.7 1507.0,1302.2 1525.8,1290.9 1544.0,1278.7 1561.9,1265.6 1579.2,1251.7 1596.0,1237.1 1612.3,1221.7 1628.1,1205.6 1643.4,1188.8 1658.1,1171.5 1672.2,1153.6 1685.8,1135.3 1698.9,1116.5 1711.3,1097.4 1723.2,1078.0 1734.6,1058.4 1745.4,1038.7  Z" style="stroke-width: 0.5;  stroke: rgb(0,0,0); fill: rgb(179,177,178);" />
<path d="M 1983.533,1302.004 A 522.500,522.500 0.00 0,1 2006.0,1369.7 L 2006.0,1369.7 1980.4,1376.3 1954.7,1382.8 1928.9,1389.3 1903.1,1395.7 1877.3,1402.0 1851.4,1408.3 1825.4,1414.6 1799.4,1420.8 1773.3,1426.9 1747.2,1432.9 1721.0,1438.9 1694.8,1444.8 1668.6,1450.6 1642.3,1456.3 1616.0,1462.0 1589.7,1467.6 1563.3,1473.1 1536.9,1478.5 1510.5,1483.8 1484.1,1489.0 1457.7,1494.2 1431.2,1499.3 1404.7,1504.3 1378.3,1509.2 1351.8,1514.0 1325.3,1518.7 1298.9,1523.4 1272.4,1527.9 1245.9,1532.4 1219.5,1536.8 1193.1,1541.1 1166.7,1545.3 1140.3,1549.5 1113.9,1553.6 1087.6,1557.5 1061.3,1561.5 1035.0,1565.3 1008.8,1569.1 982.6,1572.8  A 522.500,522.500 0.00 0,1 977.5,1501.0 L 977.5,1501.0 1003.1,1500.9 1028.8,1500.5 1054.7,1499.9 1080.7,1499.1 1106.8,1498.1 1133.0,1496.8 1159.3,1495.3 1185.6,1493.5 1212.1,1491.4 1238.5,1489.1 1265.1,1486.5 1291.6,1483.6 1318.2,1480.4 1344.8,1477.0 1371.3,1473.2 1397.9,1469.1 1424.4,1464.8 1451.0,1460.2 1477.4,1455.2 1503.8,1450.0 1530.2,1444.5 1556.5,1438.7 1582.7,1432.6 1608.8,1426.2 1634.8,1419.6 1660.7,1412.7 1686.5,1405.5 1712.1,1398.1 1737.6,1390.4 1763.0,1382.5 1788.2,1374.3 1813.3,1365.9 1838.2,1357.3 1862.9,1348.5 1887.4,1339.6 1911.8,1330.4 1935.9,1321.1 1959.8,1311.6 1983.5,1302.0  Z" style="stroke-width: 0.5;  stroke: rgb(0,0,0); fill: rgb(179,177,178);" />
<path d="M 1500.000,977.500 A 522.500,522.500 0.00 0,1 1556.3,980.5 L 1556.3,980.5 1553.8,1001.2 1550.9,1021.9 1547.5,1042.3 1543.6,1062.5 1539.2,1082.2 1534.3,1101.4 1528.9,1120.0 1522.9,1137.9 1516.3,1155.0 1509.2,1171.2 1501.5,1186.6 1493.2,1200.9 1484.3,1214.1 1474.9,1226.3 1464.9,1237.3 1454.4,1247.1 1443.3,1255.7 1431.7,1263.1 1419.6,1269.1 1406.9,1273.9 1393.8,1277.4 1380.3,1279.7 1366.3,1280.6 1351.9,1280.2 1337.1,1278.6 1322.0,1275.8 1306.5,1271.7 1290.8,1266.5 1274.9,1260.2 1258.8,1252.8 1242.5,1244.4 1226.2,1235.0 1209.7,1224.7 1193.3,1213.6 1176.9,1201.7 1160.7,1189.2 1144.6,1176.2 1128.7,1162.7 1113.1,1148.8  A 522.500,522.500 0.00 0,1 1161.0,1102.4 L 1161.0,1102.4 1174.5,1117.9 1188.1,1133.1 1202.0,1147.9 1215.9,1162.1 1229.9,1175.8 1243.9,1188.7 1257.9,1200.8 1271.7,1212.0 1285.4,1222.2 1298.9,1231.4 1312.2,1239.5 1325.1,1246.4 1337.8,1252.1 1350.2,1256.6 1362.1,1259.7 1373.7,1261.5 1384.8,1262.1 1395.5,1261.2 1405.7,1259.0 1415.4,1255.4 1424.6,1250.5 1433.3,1244.2 1441.4,1236.6 1449.0,1227.7 1456.1,1217.5 1462.6,1206.1 1468.5,1193.6 1473.9,1179.9 1478.8,1165.1 1483.1,1149.4 1486.9,1132.7 1490.2,1115.2 1492.9,1097.0 1495.2,1078.1 1497.0,1058.6 1498.4,1038.7 1499.3,1018.5 1499.8,998.0 1500.0,977.5  Z" style="stroke-width: 0.5;  stroke: rgb(0,0,0); fill: rgb(179,177,178);" />
<path d="M 1813.939,1082.329 A 522.500,522.500 0.00 0,1 1861.0,1122.2 L 1861.0,1122.2 1844.2,1139.4 1827.0,1156.5 1809.4,1173.4 1791.3,1190.0 1772.8,1206.4 1753.8,1222.4 1734.4,1238.2 1714.6,1253.5 1694.3,1268.4 1673.7,1282.9 1652.7,1296.9 1631.3,1310.5 1609.6,1323.5 1587.5,1335.9 1565.1,1347.8 1542.3,1359.2 1519.3,1369.9 1496.0,1380.0 1472.4,1389.5 1448.6,1398.4 1424.5,1406.6 1400.3,1414.2 1375.8,1421.2 1351.2,1427.5 1326.5,1433.2 1301.6,1438.2 1276.7,1442.6 1251.7,1446.4 1226.6,1449.5 1201.5,1452.1 1176.5,1454.0 1151.4,1455.4 1126.5,1456.2 1101.6,1456.4 1076.9,1456.2 1052.3,1455.5 1027.9,1454.2 1003.8,1452.6 979.8,1450.5  A 522.500,522.500 0.00 0,1 989.2,1390.2 L 989.2,1390.2 1012.0,1394.8 1035.2,1399.0 1058.6,1402.8 1082.2,1405.9 1106.0,1408.6 1130.0,1410.6 1154.0,1412.0 1178.2,1412.7 1202.4,1412.7 1226.5,1412.1 1250.7,1410.7 1274.8,1408.5 1298.8,1405.6 1322.7,1401.9 1346.4,1397.4 1369.9,1392.1 1393.3,1386.1 1416.4,1379.2 1439.2,1371.6 1461.8,1363.2 1484.1,1354.0 1506.0,1344.0 1527.6,1333.3 1548.8,1321.8 1569.7,1309.7 1590.2,1296.8 1610.2,1283.3 1629.8,1269.2 1649.0,1254.4 1667.7,1239.1 1685.9,1223.2 1703.7,1206.8 1721.0,1190.0 1737.8,1172.8 1754.0,1155.2 1769.8,1137.3 1785.0,1119.2 1799.7,1100.8 1813.9,1082.3  Z" style="stroke-width: 0.5;  stroke: rgb(0,0,0); fill: rgb(179,177,178);" />
<path d="M 1701.579,1982.050 A 522.500,522.500 0.00 0,1 1652.4,1999.8 L 1652.4,1999.8 1646.1,1979.9 1639.4,1960.2 1632.3,1940.8 1624.7,1921.7 1616.8,1903.2 1608.4,1885.3 1599.6,1868.1 1590.4,1851.7 1580.8,1836.1 1570.8,1821.6 1560.4,1808.0 1549.7,1795.6 1538.6,1784.3 1527.2,1774.1 1515.4,1765.3 1503.3,1757.7 1491.0,1751.4 1478.3,1746.4 1465.4,1742.8 1452.2,1740.6 1438.8,1739.7 1425.3,1740.2 1411.5,1742.0 1397.6,1745.2 1383.6,1749.7 1369.4,1755.4 1355.2,1762.4 1341.0,1770.6 1326.7,1780.0 1312.4,1790.4 1298.2,1801.9 1284.1,1814.3 1270.1,1827.7 1256.3,1841.8 1242.6,1856.6 1229.2,1872.1 1216.0,1888.1 1203.2,1904.4 1190.7,1921.1  A 522.500,522.500 0.00 0,1 1150.2,1888.2 L 1150.2,1888.2 1164.6,1872.6 1179.3,1857.3 1194.4,1842.5 1209.9,1828.2 1225.5,1814.5 1241.5,1801.5 1257.6,1789.4 1273.8,1778.0 1290.2,1767.6 1306.7,1758.2 1323.2,1749.9 1339.8,1742.6 1356.3,1736.5 1372.8,1731.6 1389.2,1727.9 1405.5,1725.5 1421.7,1724.3 1437.7,1724.4 1453.5,1725.8 1469.1,1728.4 1484.5,1732.4 1499.7,1737.6 1514.6,1744.1 1529.1,1751.8 1543.4,1760.7 1557.3,1770.8 1570.9,1782.0 1584.1,1794.3 1596.9,1807.7 1609.4,1822.0 1621.4,1837.2 1633.0,1853.3 1644.2,1870.1 1654.9,1887.6 1665.2,1905.7 1675.0,1924.3 1684.3,1943.3 1693.2,1962.6 1701.6,1982.1  Z" style="stroke-width: 0.5;  stroke: rgb(0,0,0); fill: rgb(179,177,178);" />
<path d="M 1748.555,1959.594 A 522.500,522.500 0.00 0,1 1702.2,1981.8 L 1702.2,1981.8 1693.8,1962.3 1684.9,1943.1 1675.5,1924.1 1665.7,1905.5 1655.4,1887.4 1644.6,1869.9 1633.4,1853.0 1621.8,1837.0 1609.7,1821.7 1597.2,1807.4 1584.4,1794.1 1571.1,1781.7 1557.5,1770.5 1543.5,1760.4 1529.2,1751.5 1514.6,1743.7 1499.7,1737.2 1484.5,1732.0 1469.0,1728.0 1453.3,1725.3 1437.4,1723.9 1421.4,1723.8 1405.1,1725.0 1388.8,1727.4 1372.3,1731.1 1355.8,1736.0 1339.2,1742.0 1322.6,1749.2 1306.0,1757.5 1289.5,1766.9 1273.0,1777.2 1256.7,1788.5 1240.6,1800.7 1224.6,1813.6 1208.8,1827.2 1193.4,1841.5 1178.2,1856.3 1163.4,1871.5 1149.0,1887.0  A 522.500,522.500 0.00 0,1 1113.5,1851.6 L 1113.5,1851.6 1129.6,1837.2 1146.2,1823.2 1163.1,1809.7 1180.4,1796.7 1198.0,1784.3 1215.8,1772.6 1233.9,1761.7 1252.2,1751.6 1270.5,1742.4 1289.1,1734.1 1307.6,1726.8 1326.3,1720.6 1344.9,1715.4 1363.5,1711.4 1382.1,1708.5 1400.6,1706.8 1419.0,1706.2 1437.2,1706.9 1455.3,1708.7 1473.2,1711.7 1490.9,1716.0 1508.3,1721.4 1525.4,1728.0 1542.3,1735.8 1558.9,1744.6 1575.1,1754.6 1591.0,1765.6 1606.5,1777.7 1621.7,1790.7 1636.4,1804.6 1650.7,1819.4 1664.6,1834.9 1678.0,1851.2 1691.0,1868.2 1703.5,1885.7 1715.5,1903.7 1727.0,1922.1 1738.1,1940.7 1748.6,1959.6  Z" style="stroke-width: 0.5;  stroke: rgb(0,0,0); fill: rgb(179,177,178);" />
<path d="M 1962.169,1256.267 A 522.500,522.500 0.00 0,1 1982.5,1299.5 L 1982.5,1299.5 1958.9,1309.3 1935.0,1318.8 1910.9,1328.3 1886.7,1337.5 1862.2,1346.6 1837.5,1355.5 1812.7,1364.2 1787.7,1372.6 1762.5,1380.9 1737.1,1388.9 1711.7,1396.6 1686.0,1404.2 1660.3,1411.4 1634.4,1418.4 1608.4,1425.1 1582.4,1431.5 1556.2,1437.6 1529.9,1443.5 1503.6,1449.0 1477.2,1454.3 1450.7,1459.2 1424.2,1463.9 1397.7,1468.2 1371.1,1472.3 1344.6,1476.1 1318.0,1479.5 1291.4,1482.7 1264.9,1485.6 1238.4,1488.2 1211.9,1490.5 1185.5,1492.5 1159.1,1494.2 1132.9,1495.7 1106.7,1497.0 1080.6,1498.0 1054.6,1498.7 1028.8,1499.2 1003.1,1499.5 977.5,1499.6  A 522.500,522.500 0.00 0,1 979.7,1451.8 L 979.7,1451.8 1004.6,1454.0 1029.7,1455.9 1055.0,1457.4 1080.5,1458.7 1106.2,1459.6 1132.0,1460.2 1157.9,1460.4 1183.9,1460.3 1210.1,1459.8 1236.3,1458.8 1262.5,1457.5 1288.8,1455.7 1315.1,1453.6 1341.5,1451.0 1367.8,1448.0 1394.1,1444.5 1420.4,1440.6 1446.6,1436.3 1472.8,1431.5 1498.9,1426.3 1524.9,1420.7 1550.8,1414.7 1576.5,1408.2 1602.2,1401.3 1627.7,1394.0 1653.0,1386.3 1678.1,1378.2 1703.1,1369.8 1727.9,1361.0 1752.4,1351.8 1776.8,1342.3 1800.9,1332.5 1824.7,1322.3 1848.3,1311.9 1871.7,1301.2 1894.7,1290.3 1917.5,1279.1 1940.0,1267.8 1962.2,1256.3  Z" style="stroke-width: 0.5;  stroke: rgb(0,0,0); fill: rgb(179,177,178);" />
<path d="M 1953.889,1758.827 A 522.500,522.500 0.00 0,1 1932.2,1793.6 L 1932.2,1793.6 1912.5,1780.4 1892.3,1767.5 1871.7,1755.0 1850.7,1742.7 1829.3,1730.9 1807.5,1719.5 1785.4,1708.6 1763.0,1698.2 1740.2,1688.4 1717.2,1679.1 1693.9,1670.4 1670.3,1662.3 1646.5,1654.9 1622.5,1648.2 1598.3,1642.1 1574.0,1636.7 1549.5,1632.1 1524.8,1628.2 1500.1,1624.9 1475.2,1622.5 1450.3,1620.7 1425.4,1619.7 1400.5,1619.4 1375.5,1619.9 1350.6,1621.0 1325.7,1622.9 1300.9,1625.5 1276.3,1628.7 1251.7,1632.6 1227.3,1637.2 1203.0,1642.3 1179.0,1648.1 1155.1,1654.4 1131.6,1661.3 1108.2,1668.6 1085.2,1676.5 1062.6,1684.7 1040.2,1693.3 1018.3,1702.3  A 522.500,522.500 0.00 0,1 1003.8,1663.6 L 1003.8,1663.6 1026.8,1656.2 1050.2,1649.1 1073.9,1642.4 1097.8,1636.1 1122.0,1630.2 1146.5,1624.7 1171.2,1619.7 1196.1,1615.2 1221.2,1611.2 1246.4,1607.8 1271.7,1604.9 1297.2,1602.6 1322.7,1600.8 1348.3,1599.7 1374.0,1599.1 1399.7,1599.2 1425.4,1599.9 1451.1,1601.2 1476.7,1603.2 1502.3,1605.7 1527.9,1608.9 1553.3,1612.7 1578.6,1617.1 1603.8,1622.2 1628.9,1627.8 1653.7,1634.0 1678.4,1640.8 1702.9,1648.1 1727.2,1656.0 1751.2,1664.4 1775.0,1673.3 1798.5,1682.6 1821.7,1692.4 1844.6,1702.6 1867.2,1713.2 1889.4,1724.2 1911.3,1735.4 1932.8,1747.0 1953.9,1758.8  Z" style="stroke-width: 0.5;  stroke: rgb(0,0,0); fill: rgb(179,177,178);" />
<path d="M 1779.664,1941.355 A 522.500,522.500 0.00 0,1 1748.8,1959.5 L 1748.8,1959.5 1738.2,1940.6 1727.1,1921.8 1715.6,1903.4 1703.5,1885.3 1690.9,1867.7 1677.8,1850.6 1664.3,1834.2 1650.3,1818.5 1635.8,1803.6 1620.9,1789.5 1605.6,1776.3 1589.9,1764.0 1573.8,1752.8 1557.4,1742.5 1540.6,1733.4 1523.4,1725.3 1506.0,1718.4 1488.3,1712.7 1470.3,1708.1 1452.1,1704.6 1433.7,1702.4 1415.1,1701.3 1396.3,1701.4 1377.4,1702.7 1358.5,1705.1 1339.4,1708.7 1320.3,1713.3 1301.2,1719.0 1282.2,1725.8 1263.2,1733.5 1244.3,1742.2 1225.6,1751.7 1207.0,1762.1 1188.6,1773.2 1170.5,1785.1 1152.7,1797.5 1135.2,1810.5 1118.1,1824.0 1101.4,1837.8  A 522.500,522.500 0.00 0,1 1079.0,1809.4 L 1079.0,1809.4 1096.9,1796.6 1115.2,1784.2 1133.8,1772.2 1152.9,1760.8 1172.2,1750.0 1191.8,1739.9 1211.6,1730.5 1231.6,1721.9 1251.7,1714.1 1271.9,1707.2 1292.3,1701.3 1312.6,1696.4 1333.0,1692.5 1353.4,1689.6 1373.7,1687.7 1393.9,1687.0 1414.0,1687.4 1434.0,1688.8 1453.8,1691.4 1473.4,1695.1 1492.8,1699.9 1511.9,1705.8 1530.8,1712.8 1549.4,1720.8 1567.6,1729.9 1585.6,1740.0 1603.1,1751.1 1620.3,1763.1 1637.1,1776.0 1653.5,1789.7 1669.4,1804.3 1684.9,1819.6 1699.9,1835.5 1714.5,1852.1 1728.5,1869.2 1742.1,1886.8 1755.1,1904.7 1767.7,1922.9 1779.7,1941.4  Z" style="stroke-width: 0.5;  stroke: rgb(0,0,0); fill: rgb(179,177,178);" />
<path d="M 1556.263,980.538 A 522.500,522.500 0.00 0,1 1574.1,982.8 L 1574.1,982.8 1570.9,1003.5 1567.3,1024.2 1563.1,1044.6 1558.4,1064.8 1553.2,1084.5 1547.5,1103.8 1541.2,1122.4 1534.3,1140.4 1526.9,1157.6 1518.9,1173.9 1510.4,1189.4 1501.2,1203.8 1491.5,1217.2 1481.2,1229.6 1470.4,1240.8 1459.0,1250.8 1447.0,1259.7 1434.6,1267.3 1421.6,1273.7 1408.1,1278.8 1394.2,1282.7 1379.8,1285.2 1365.0,1286.6 1349.8,1286.6 1334.3,1285.5 1318.4,1283.1 1302.2,1279.5 1285.8,1274.8 1269.1,1269.0 1252.3,1262.1 1235.3,1254.1 1218.3,1245.3 1201.2,1235.5 1184.1,1225.0 1167.1,1213.7 1150.2,1201.7 1133.5,1189.2 1117.0,1176.2 1100.8,1162.8  A 522.500,522.500 0.00 0,1 1112.6,1149.4 L 1112.6,1149.4 1128.2,1163.2 1144.1,1176.7 1160.2,1189.7 1176.5,1202.2 1192.9,1214.0 1209.4,1225.1 1225.8,1235.4 1242.2,1244.7 1258.5,1253.1 1274.6,1260.5 1290.6,1266.8 1306.3,1272.0 1321.7,1276.1 1336.9,1278.9 1351.7,1280.5 1366.1,1280.8 1380.1,1279.9 1393.7,1277.6 1406.8,1274.1 1419.4,1269.3 1431.6,1263.2 1443.2,1255.8 1454.3,1247.2 1464.8,1237.4 1474.8,1226.4 1484.3,1214.2 1493.1,1200.9 1501.4,1186.6 1509.1,1171.3 1516.3,1155.0 1522.8,1137.9 1528.9,1120.0 1534.3,1101.4 1539.2,1082.2 1543.6,1062.5 1547.5,1042.3 1550.9,1021.9 1553.8,1001.3 1556.3,980.5  Z" style="stroke-width: 0.5;  stroke: rgb(0,0,0); fill: rgb(179,177,178);" />
<path d="M 1729.821,1030.758 A 522.500,522.500 0.00 0,1 1741.2,1036.5 L 1741.2,1036.5 1730.6,1056.3 1719.4,1075.9 1707.7,1095.4 1695.4,1114.6 1682.6,1133.5 1669.2,1151.9 1655.2,1169.9 1640.7,1187.3 1625.6,1204.1 1610.0,1220.3 1593.8,1235.8 1577.1,1250.5 1560.0,1264.5 1542.3,1277.6 1524.1,1289.9 1505.5,1301.3 1486.5,1311.8 1467.0,1321.4 1447.1,1330.0 1426.9,1337.7 1406.3,1344.4 1385.4,1350.1 1364.1,1354.9 1342.6,1358.7 1320.9,1361.5 1299.0,1363.4 1276.9,1364.3 1254.6,1364.3 1232.2,1363.5 1209.8,1361.7 1187.4,1359.1 1165.0,1355.7 1142.6,1351.5 1120.3,1346.6 1098.2,1341.0 1076.3,1334.8 1054.6,1328.0 1033.2,1320.6 1012.2,1312.8  A 522.500,522.500 0.00 0,1 1016.9,1301.1 L 1016.9,1301.1 1037.6,1309.3 1058.7,1317.1 1080.0,1324.4 1101.7,1331.0 1123.5,1337.1 1145.4,1342.4 1167.5,1347.1 1189.6,1350.9 1211.7,1353.9 1233.8,1356.0 1255.9,1357.3 1277.8,1357.6 1299.6,1357.0 1321.1,1355.4 1342.5,1352.9 1363.7,1349.3 1384.5,1344.8 1405.0,1339.3 1425.2,1332.8 1445.1,1325.2 1464.5,1316.7 1483.6,1307.2 1502.2,1296.8 1520.4,1285.5 1538.1,1273.2 1555.3,1260.1 1572.0,1246.1 1588.2,1231.3 1603.8,1215.8 1618.9,1199.5 1633.5,1182.6 1647.5,1165.1 1661.0,1147.0 1673.9,1128.4 1686.2,1109.4 1698.0,1090.1 1709.2,1070.5 1719.8,1050.7 1729.8,1030.8  Z" style="stroke-width: 0.5;  stroke: rgb(0,0,0); fill: rgb(179,177,178);" />
<path d="M 1651.515,2000.049 A 522.500,522.500 0.00 0,1 1649.8,2000.6 L 1649.8,2000.6 1643.6,1980.7 1637.0,1961.0 1630.0,1941.6 1622.6,1922.5 1614.8,1904.0 1606.6,1886.1 1598.0,1868.9 1589.0,1852.6 1579.5,1837.1 1569.8,1822.5 1559.6,1809.0 1549.1,1796.6 1538.2,1785.4 1527.0,1775.4 1515.5,1766.6 1503.7,1759.1 1491.6,1752.9 1479.2,1748.1 1466.5,1744.6 1453.7,1742.5 1440.6,1741.7 1427.3,1742.4 1413.8,1744.3 1400.2,1747.7 1386.5,1752.3 1372.7,1758.3 1358.8,1765.4 1344.9,1773.8 1330.9,1783.4 1317.0,1794.0 1303.2,1805.7 1289.4,1818.4 1275.7,1831.9 1262.2,1846.3 1248.9,1861.3 1235.8,1877.0 1223.0,1893.2 1210.5,1909.7 1198.3,1926.6  A 522.500,522.500 0.00 0,1 1190.7,1921.1 L 1190.7,1921.1 1203.2,1904.5 1216.1,1888.1 1229.2,1872.1 1242.6,1856.6 1256.3,1841.8 1270.1,1827.7 1284.1,1814.4 1298.2,1801.9 1312.4,1790.4 1326.6,1780.0 1340.9,1770.7 1355.1,1762.5 1369.3,1755.5 1383.4,1749.7 1397.5,1745.3 1411.4,1742.1 1425.1,1740.3 1438.7,1739.8 1452.0,1740.7 1465.1,1742.9 1478.0,1746.5 1490.7,1751.5 1503.0,1757.8 1515.1,1765.4 1526.8,1774.3 1538.2,1784.4 1549.3,1795.7 1560.0,1808.2 1570.3,1821.7 1580.2,1836.3 1589.8,1851.9 1599.0,1868.3 1607.7,1885.5 1616.1,1903.4 1624.0,1922.0 1631.5,1941.0 1638.6,1960.5 1645.3,1980.2 1651.5,2000.0  Z" style="stroke-width: 0.5;  stroke: rgb(0,0,0); fill: rgb(179,177,178);" />
</g>
<g id="plot0">
<g id="plot0-axis">
</g>
<line x1='2243.8' y1='1596.4' x2='2243.8' y2='1596.4' style="stroke-width:14.0;stroke:rgb(0,0,0);stroke-linecap:round;fill:none;" />
<line x1='2243.8' y1='1596.4' x2='2283.5' y2='1601.5' style="stroke-width:14.0;stroke:rgb(0,0,0);stroke-linecap:round;fill:none;" />
<line x1='2283.5' y1='1601.5' x2='2283.5' y2='1601.5' style="stroke-width:14.0;stroke:rgb(0,0,0);stroke-linecap:round;fill:none;" />
<text x="2300.1" y="1626.3" font-size="46.8px" font-family="CMUBright-Roman" style="text-anchor:start;fill:rgb(255,38,78);" transform="rotate(7.4,2300.1,1626.3)" >HistocapCB055<tspan baseline-shift="-40%" font-size="90%">s</tspan>00015</text>
</g>
<defs>
<pattern id="checker" width="10" height="10" patternTransform="rotate(45 0 0)" patternUnits="userSpaceOnUse"><line x1="0" y1="0" x2="10" y2="0" style="stroke:black;stroke-width:2" /><line x1="0" y1="0" x2="0" y2="10" style="stroke:black;stroke-width:2" /></pattern>
<pattern id="vline" width="10" height="10" patternTransform="rotate(0 0 0)" patternUnits="userSpaceOnUse"><line x1="0" y1="0" x2="0" y2="10" style="stroke:black;stroke-width:5" /></pattern>
<pattern id="checker" width="10" height="10" patternTransform="rotate(45 0 0)" patternUnits="userSpaceOnUse"><line x1="0" y1="0" x2="10" y2="0" style="stroke:black;stroke-width:5" /><line x1="0" y1="0" x2="0" y2="10" style="stroke:black;stroke-width:4" /></pattern>
<pattern id="hline" width="10" height="10" patternTransform="rotate(0 0 0)" patternUnits="userSpaceOnUse"><line x1="0" y1="0" x2="10" y2="0" style="stroke:black;stroke-width:5" /></pattern>
<pattern id="hline-sparse" width="10" height="10" patternTransform="rotate(0 0 0)" patternUnits="userSpaceOnUse"><line x1="0" y1="0" x2="10" y2="0" style="stroke:black;stroke-width:2" /></pattern>
<pattern id="vline-sparse" width="10" height="10" patternTransform="rotate(0 0 0)" patternUnits="userSpaceOnUse"><line x1="0" y1="0" x2="0" y2="10" style="stroke:black;stroke-width:2" /></pattern>
</defs>
</svg>
