<?xml version="1.0" encoding="utf-8" standalone="no"?>
<!DOCTYPE svg PUBLIC "-//W3C//DTD SVG 1.1//EN" "http://www.w3.org/Graphics/SVG/1.1/DTD/svg11.dtd">
<svg width="3000px" height="3000px" version="1.1" xmlns="http://www.w3.org/2000/svg" xmlns:xlink="http://www.w3.org/1999/xlink">
<g id="bg">
<rect x="0" y="0" width="3000px" height="3000px" style="fill:rgb(255,255,255);"/>
</g>
<g id="ideograms">
<path d="M1500.000,950.000 A550.000,550.000 40.000 0,1 1656.174,2027.361 L1712.964,2219.129 A750.000,750.000 0.000 0,0 1500.000,750.000 Z" style="stroke-width:2.0;stroke:rgb(0,0,0);stroke-linecap:round;fill:rgb(179,177,178);" />
<text x="2464.9" y="1360.1" font-size="46.8px" font-family="CMUBright-Roman" style="text-anchor:middle;fill:rgb(0,0,0);" transform="rotate(441.8,2464.9,1360.1)" >Histocap144p08<tspan baseline-shift="-40%" font-size="90%">5</tspan></text>
<line x1='1576.9' y1='753.9' x2='1578.1' y2='742.0' style="stroke-width:8.0;stroke:rgb(150,150,150);stroke-linecap:round;fill:none;" />
<line x1='1674.3' y1='770.5' x2='1677.1' y2='758.9' style="stroke-width:8.0;stroke:rgb(150,150,150);stroke-linecap:round;fill:none;" />
<text x="1693.5" y="750.6" font-size="41.6px" font-family="CMUBright-Roman" style="text-anchor:start;fill:rgb(150,150,150);" transform="rotate(283.4,1693.5,750.6)" >1700 kb</text>
<line x1='1768.7' y1='799.8' x2='1773.0' y2='788.6' style="stroke-width:8.0;stroke:rgb(150,150,150);stroke-linecap:round;fill:none;" />
<line x1='1858.5' y1='841.2' x2='1864.2' y2='830.7' style="stroke-width:8.0;stroke:rgb(150,150,150);stroke-linecap:round;fill:none;" />
<line x1='1942.0' y1='894.1' x2='1949.1' y2='884.4' style="stroke-width:8.0;stroke:rgb(150,150,150);stroke-linecap:round;fill:none;" />
<line x1='2017.9' y1='957.5' x2='2026.2' y2='948.8' style="stroke-width:8.0;stroke:rgb(150,150,150);stroke-linecap:round;fill:none;" />
<line x1='2084.7' y1='1030.3' x2='2094.1' y2='1022.8' style="stroke-width:8.0;stroke:rgb(150,150,150);stroke-linecap:round;fill:none;" />
<text x="2112.1" y="1026.3" font-size="41.6px" font-family="CMUBright-Roman" style="text-anchor:start;fill:rgb(150,150,150);" transform="rotate(321.2,2112.1,1026.3)" >1750 kb</text>
<line x1='2141.4' y1='1111.3' x2='2151.7' y2='1105.1' style="stroke-width:8.0;stroke:rgb(150,150,150);stroke-linecap:round;fill:none;" />
<line x1='2187.0' y1='1199.0' x2='2198.0' y2='1194.2' style="stroke-width:8.0;stroke:rgb(150,150,150);stroke-linecap:round;fill:none;" />
<line x1='2220.6' y1='1292.0' x2='2232.1' y2='1288.7' style="stroke-width:8.0;stroke:rgb(150,150,150);stroke-linecap:round;fill:none;" />
<line x1='2241.7' y1='1388.6' x2='2253.5' y2='1386.8' style="stroke-width:8.0;stroke:rgb(150,150,150);stroke-linecap:round;fill:none;" />
<line x1='2249.9' y1='1487.1' x2='2261.9' y2='1486.9' style="stroke-width:8.0;stroke:rgb(150,150,150);stroke-linecap:round;fill:none;" />
<text x="2274.0" y="1500.7" font-size="41.6px" font-family="CMUBright-Roman" style="text-anchor:start;fill:rgb(150,150,150);" transform="rotate(359.0,2274.0,1500.7)" >1800 kb</text>
<line x1='2245.1' y1='1585.8' x2='2257.0' y2='1587.2' style="stroke-width:8.0;stroke:rgb(150,150,150);stroke-linecap:round;fill:none;" />
<line x1='2227.3' y1='1683.1' x2='2239.0' y2='1686.0' style="stroke-width:8.0;stroke:rgb(150,150,150);stroke-linecap:round;fill:none;" />
<line x1='2196.9' y1='1777.1' x2='2208.1' y2='1781.6' style="stroke-width:8.0;stroke:rgb(150,150,150);stroke-linecap:round;fill:none;" />
<line x1='2154.4' y1='1866.4' x2='2164.9' y2='1872.2' style="stroke-width:8.0;stroke:rgb(150,150,150);stroke-linecap:round;fill:none;" />
<line x1='2100.5' y1='1949.3' x2='2110.2' y2='1956.5' style="stroke-width:8.0;stroke:rgb(150,150,150);stroke-linecap:round;fill:none;" />
<text x="2111.3" y="1974.8" font-size="41.6px" font-family="CMUBright-Roman" style="text-anchor:start;fill:rgb(150,150,150);" transform="rotate(36.8,2111.3,1974.8)" >1850 kb</text>
<line x1='2036.2' y1='2024.3' x2='2044.8' y2='2032.7' style="stroke-width:8.0;stroke:rgb(150,150,150);stroke-linecap:round;fill:none;" />
<line x1='1962.6' y1='2090.3' x2='1970.0' y2='2099.8' style="stroke-width:8.0;stroke:rgb(150,150,150);stroke-linecap:round;fill:none;" />
<line x1='1881.0' y1='2146.0' x2='1887.1' y2='2156.4' style="stroke-width:8.0;stroke:rgb(150,150,150);stroke-linecap:round;fill:none;" />
<line x1='1792.7' y1='2190.5' x2='1797.4' y2='2201.6' style="stroke-width:8.0;stroke:rgb(150,150,150);stroke-linecap:round;fill:none;" />
<g id="highlighttrack_0">
<path d="M2032.658,1362.976 A550.000,550.000 40.000 0,1 2049.641,1480.134 L2249.511,1472.910 A750.000,750.000 0.000 0,0 2226.352,1313.150 Z" style="stroke-width:14.0;stroke:rgb(0,0,0);stroke-linecap:round;fill:rgb(255,38,78);" />
</g>
<path d="M1500.000,950.000 A550.000,550.000 40.000 0,1 1656.174,2027.361 L1712.964,2219.129 A750.000,750.000 0.000 0,0 1500.000,750.000 Z" style="stroke-width:2.0;stroke:rgb(0,0,0);stroke-linecap:round;fill:none;" />
<path d="M1440.830,2046.808 A550.000,550.000 40.000 0,1 1287.999,992.501 L1210.907,807.956 A750.000,750.000 0.000 0,0 1419.314,2245.647 Z" style="stroke-width:2.0;stroke:rgb(0,0,0);stroke-linecap:round;fill:rgb(179,177,178);" />
<text x="490.6" y="1646.3" font-size="46.8px" font-family="CMUBright-Roman" style="text-anchor:middle;fill:rgb(0,0,0);" transform="rotate(81.8,490.6,1646.3)" >HistoohiG217B<tspan baseline-shift="-40%" font-size="90%">J</tspan>AEVHH010000006</text>
<line x1='1358.7' y1='2236.6' x2='1356.4' y2='2248.3' style="stroke-width:8.0;stroke:rgb(150,150,150);stroke-linecap:round;fill:none;" />
<text x="1367.9" y="2262.6" font-size="41.6px" font-family="CMUBright-Roman" style="text-anchor:end;fill:rgb(150,150,150);" transform="rotate(-79.1,1367.9,2262.6)" >200 kb</text>
<line x1='1263.0' y1='2211.6' x2='1259.2' y2='2223.0' style="stroke-width:8.0;stroke:rgb(150,150,150);stroke-linecap:round;fill:none;" />
<line x1='1171.5' y1='2174.2' x2='1166.2' y2='2185.0' style="stroke-width:8.0;stroke:rgb(150,150,150);stroke-linecap:round;fill:none;" />
<line x1='1085.7' y1='2125.2' x2='1079.0' y2='2135.2' style="stroke-width:8.0;stroke:rgb(150,150,150);stroke-linecap:round;fill:none;" />
<line x1='1007.0' y1='2065.2' x2='999.2' y2='2074.3' style="stroke-width:8.0;stroke:rgb(150,150,150);stroke-linecap:round;fill:none;" />
<line x1='937.0' y1='1995.5' x2='928.0' y2='2003.4' style="stroke-width:8.0;stroke:rgb(150,150,150);stroke-linecap:round;fill:none;" />
<text x="928.3" y="2021.8" font-size="41.6px" font-family="CMUBright-Roman" style="text-anchor:end;fill:rgb(150,150,150);" transform="rotate(-41.4,928.3,2021.8)" >250 kb</text>
<line x1='876.7' y1='1917.1' x2='866.7' y2='1923.8' style="stroke-width:8.0;stroke:rgb(150,150,150);stroke-linecap:round;fill:none;" />
<line x1='827.3' y1='1831.5' x2='816.5' y2='1836.9' style="stroke-width:8.0;stroke:rgb(150,150,150);stroke-linecap:round;fill:none;" />
<line x1='789.5' y1='1740.2' x2='778.1' y2='1744.0' style="stroke-width:8.0;stroke:rgb(150,150,150);stroke-linecap:round;fill:none;" />
<line x1='764.1' y1='1644.7' x2='752.3' y2='1647.0' style="stroke-width:8.0;stroke:rgb(150,150,150);stroke-linecap:round;fill:none;" />
<line x1='751.4' y1='1546.6' x2='739.5' y2='1547.4' style="stroke-width:8.0;stroke:rgb(150,150,150);stroke-linecap:round;fill:none;" />
<text x="728.5" y="1562.1" font-size="41.6px" font-family="CMUBright-Roman" style="text-anchor:end;fill:rgb(150,150,150);" transform="rotate(-3.6,728.5,1562.1)" >300 kb</text>
<line x1='751.8' y1='1447.8' x2='739.9' y2='1446.9' style="stroke-width:8.0;stroke:rgb(150,150,150);stroke-linecap:round;fill:none;" />
<line x1='765.2' y1='1349.8' x2='753.4' y2='1347.4' style="stroke-width:8.0;stroke:rgb(150,150,150);stroke-linecap:round;fill:none;" />
<line x1='791.3' y1='1254.5' x2='780.0' y2='1250.5' style="stroke-width:8.0;stroke:rgb(150,150,150);stroke-linecap:round;fill:none;" />
<line x1='829.8' y1='1163.4' x2='819.0' y2='1158.0' style="stroke-width:8.0;stroke:rgb(150,150,150);stroke-linecap:round;fill:none;" />
<line x1='879.9' y1='1078.2' x2='869.9' y2='1071.4' style="stroke-width:8.0;stroke:rgb(150,150,150);stroke-linecap:round;fill:none;" />
<text x="852.2" y="1076.3" font-size="41.6px" font-family="CMUBright-Roman" style="text-anchor:end;fill:rgb(150,150,150);" transform="rotate(34.2,852.2,1076.3)" >350 kb</text>
<line x1='940.7' y1='1000.3' x2='931.8' y2='992.3' style="stroke-width:8.0;stroke:rgb(150,150,150);stroke-linecap:round;fill:none;" />
<line x1='1011.3' y1='931.1' x2='1003.5' y2='922.0' style="stroke-width:8.0;stroke:rgb(150,150,150);stroke-linecap:round;fill:none;" />
<line x1='1090.4' y1='871.7' x2='1083.8' y2='861.7' style="stroke-width:8.0;stroke:rgb(150,150,150);stroke-linecap:round;fill:none;" />
<line x1='1176.6' y1='823.3' x2='1171.4' y2='812.5' style="stroke-width:8.0;stroke:rgb(150,150,150);stroke-linecap:round;fill:none;" />
<path d="M1440.830,2046.808 A550.000,550.000 40.000 0,1 1287.999,992.501 L1210.907,807.956 A750.000,750.000 0.000 0,0 1419.314,2245.647 Z" style="stroke-width:2.0;stroke:rgb(0,0,0);stroke-linecap:round;fill:none;" />
</g>
<g id="track_0">
<path d="M 2015.104,1587.600 A 522.500,522.500 0.00 0,1 1994.8,1668.0 L 1994.8,1668.0 1971.7,1660.3 1948.2,1653.0 1924.5,1646.0 1900.5,1639.3 1876.2,1633.1 1851.7,1627.3 1826.9,1621.9 1802.0,1617.0 1776.8,1612.5 1751.5,1608.6 1726.1,1605.2 1700.5,1602.4 1674.9,1600.0 1649.1,1598.3 1623.3,1597.1 1597.4,1596.5 1571.5,1596.5 1545.7,1597.1 1519.8,1598.3 1493.9,1600.1 1468.1,1602.5 1442.4,1605.5 1416.7,1609.0 1391.2,1613.1 1365.8,1617.8 1340.5,1623.1 1315.4,1628.9 1290.5,1635.3 1265.8,1642.1 1241.2,1649.5 1216.9,1657.3 1192.9,1665.6 1169.1,1674.4 1145.6,1683.5 1122.4,1693.0 1099.6,1702.9 1077.0,1713.1 1054.8,1723.6 1033.0,1734.3  A 522.500,522.500 0.00 0,1 1001.8,1657.4 L 1001.8,1657.4 1025.9,1649.9 1050.4,1642.6 1075.0,1635.4 1099.8,1628.6 1124.9,1621.9 1150.1,1615.5 1175.6,1609.3 1201.2,1603.5 1226.9,1597.9 1252.8,1592.6 1278.9,1587.7 1305.0,1583.1 1331.3,1578.7 1357.7,1574.8 1384.2,1571.2 1410.7,1567.9 1437.3,1565.0 1464.0,1562.4 1490.7,1560.2 1517.5,1558.3 1544.2,1556.9 1571.0,1555.7 1597.8,1555.0 1624.5,1554.6 1651.2,1554.6 1677.9,1554.9 1704.5,1555.5 1731.1,1556.5 1757.6,1557.9 1783.9,1559.5 1810.2,1561.5 1836.4,1563.8 1862.4,1566.4 1888.3,1569.3 1914.0,1572.5 1939.6,1575.9 1965.0,1579.6 1990.1,1583.5 2015.1,1587.6  Z" style="stroke-width: 0.5;  stroke: rgb(0,0,0); fill: rgb(179,177,178);" />
<path d="M 1994.266,1669.431 A 522.500,522.500 0.00 0,1 1972.0,1724.0 L 1972.0,1724.0 1950.6,1714.1 1928.7,1704.5 1906.5,1695.3 1883.9,1686.5 1861.1,1678.2 1837.9,1670.3 1814.4,1663.0 1790.8,1656.3 1766.8,1650.2 1742.7,1644.7 1718.5,1639.8 1694.0,1635.6 1669.5,1632.2 1644.9,1629.4 1620.1,1627.3 1595.4,1626.0 1570.6,1625.4 1545.8,1625.6 1521.0,1626.5 1496.3,1628.2 1471.6,1630.6 1447.0,1633.8 1422.5,1637.7 1398.1,1642.3 1373.9,1647.7 1349.9,1653.8 1326.0,1660.6 1302.4,1668.0 1279.0,1676.1 1255.8,1684.8 1233.0,1694.1 1210.4,1703.9 1188.2,1714.3 1166.3,1725.2 1144.7,1736.6 1123.5,1748.3 1102.8,1760.4 1082.4,1772.9 1062.5,1785.6  A 522.500,522.500 0.00 0,1 1033.5,1735.3 L 1033.5,1735.3 1055.3,1724.6 1077.5,1714.0 1100.0,1703.8 1122.8,1693.9 1146.0,1684.3 1169.4,1675.2 1193.2,1666.4 1217.2,1658.1 1241.5,1650.2 1266.0,1642.8 1290.7,1635.9 1315.6,1629.6 1340.7,1623.7 1365.9,1618.5 1391.3,1613.8 1416.8,1609.6 1442.4,1606.1 1468.2,1603.1 1493.9,1600.7 1519.8,1599.0 1545.6,1597.8 1571.5,1597.2 1597.4,1597.2 1623.2,1597.9 1649.0,1599.1 1674.7,1600.8 1700.4,1603.2 1725.9,1606.1 1751.3,1609.5 1776.6,1613.5 1801.7,1618.0 1826.7,1622.9 1851.4,1628.4 1875.9,1634.3 1900.1,1640.6 1924.1,1647.3 1947.8,1654.3 1971.2,1661.7 1994.3,1669.4  Z" style="stroke-width: 0.5;  stroke: rgb(0,0,0); fill: rgb(179,177,178);" />
<path d="M 1608.826,988.959 A 522.500,522.500 0.00 0,1 1665.2,1004.3 L 1665.2,1004.3 1658.3,1024.2 1651.0,1044.0 1643.2,1063.5 1634.9,1082.6 1626.1,1101.2 1616.9,1119.2 1607.3,1136.6 1597.1,1153.2 1586.6,1169.0 1575.5,1183.9 1564.1,1197.8 1552.2,1210.6 1540.0,1222.4 1527.3,1233.0 1514.2,1242.5 1500.8,1250.7 1487.1,1257.6 1473.0,1263.3 1458.6,1267.7 1443.9,1270.9 1429.0,1272.6 1413.8,1273.1 1398.4,1272.3 1382.8,1270.2 1367.0,1266.9 1351.1,1262.3 1335.2,1256.5 1319.1,1249.6 1303.0,1241.5 1286.9,1232.3 1270.9,1222.2 1254.9,1211.1 1239.0,1199.1 1223.3,1186.3 1207.7,1172.8 1192.4,1158.7 1177.4,1144.1 1162.7,1129.0 1148.3,1113.5  A 522.500,522.500 0.00 0,1 1193.9,1076.5 L 1193.9,1076.5 1206.2,1093.2 1218.8,1109.6 1231.6,1125.5 1244.7,1141.0 1258.0,1155.8 1271.4,1169.9 1284.9,1183.2 1298.4,1195.6 1312.0,1207.0 1325.6,1217.4 1339.1,1226.7 1352.6,1234.8 1365.9,1241.7 1379.1,1247.3 1392.1,1251.6 1405.0,1254.6 1417.6,1256.2 1430.0,1256.5 1442.2,1255.4 1454.0,1252.9 1465.6,1249.0 1476.8,1243.7 1487.7,1237.1 1498.3,1229.2 1508.4,1220.0 1518.2,1209.5 1527.7,1197.8 1536.7,1185.0 1545.3,1171.0 1553.5,1156.1 1561.4,1140.1 1568.7,1123.3 1575.7,1105.7 1582.3,1087.4 1588.4,1068.4 1594.1,1049.0 1599.4,1029.2 1604.3,1009.2 1608.8,989.0  Z" style="stroke-width: 0.5;  stroke: rgb(0,0,0); fill: rgb(179,177,178);" />
<path d="M 1551.783,980.072 A 522.500,522.500 0.00 0,1 1606.0,988.4 L 1606.0,988.4 1601.6,1008.6 1596.8,1028.7 1591.7,1048.5 1586.1,1067.9 1580.1,1086.8 1573.6,1105.2 1566.8,1122.8 1559.5,1139.6 1551.8,1155.6 1543.8,1170.6 1535.3,1184.5 1526.4,1197.4 1517.1,1209.1 1507.4,1219.6 1497.3,1228.8 1486.9,1236.7 1476.1,1243.3 1465.0,1248.5 1453.6,1252.4 1441.8,1254.9 1429.8,1256.0 1417.5,1255.7 1405.0,1254.1 1392.2,1251.1 1379.3,1246.8 1366.2,1241.1 1352.9,1234.2 1339.6,1226.1 1326.1,1216.8 1312.6,1206.4 1299.1,1194.9 1285.7,1182.5 1272.3,1169.2 1258.9,1155.0 1245.7,1140.2 1232.7,1124.7 1219.9,1108.7 1207.4,1092.3 1195.2,1075.6  A 522.500,522.500 0.00 0,1 1242.0,1045.7 L 1242.0,1045.7 1252.2,1063.3 1262.6,1080.8 1273.3,1097.8 1284.1,1114.4 1295.0,1130.3 1306.0,1145.6 1317.0,1160.0 1328.0,1173.5 1339.0,1186.1 1349.9,1197.5 1360.8,1207.9 1371.5,1217.0 1382.1,1224.8 1392.5,1231.4 1402.7,1236.6 1412.6,1240.4 1422.4,1242.8 1431.8,1243.8 1441.0,1243.4 1449.9,1241.5 1458.5,1238.2 1466.8,1233.5 1474.7,1227.3 1482.2,1219.8 1489.4,1210.9 1496.3,1200.7 1502.8,1189.2 1508.9,1176.5 1514.6,1162.7 1520.0,1147.8 1524.9,1131.8 1529.5,1115.0 1533.8,1097.4 1537.6,1079.0 1541.1,1060.0 1544.3,1040.4 1547.1,1020.5 1549.6,1000.4 1551.8,980.1  Z" style="stroke-width: 0.5;  stroke: rgb(0,0,0); fill: rgb(179,177,178);" />
<path d="M 1666.593,1004.770 A 522.500,522.500 0.00 0,1 1717.3,1024.8 L 1717.3,1024.8 1708.1,1044.3 1698.4,1063.7 1688.1,1082.7 1677.4,1101.4 1666.1,1119.7 1654.3,1137.4 1642.0,1154.5 1629.3,1170.9 1616.0,1186.5 1602.3,1201.3 1588.2,1215.2 1573.5,1228.2 1558.5,1240.2 1543.1,1251.1 1527.2,1260.9 1511.0,1269.6 1494.4,1277.2 1477.5,1283.7 1460.3,1288.9 1442.8,1293.0 1425.0,1295.8 1407.0,1297.5 1388.7,1298.0 1370.3,1297.3 1351.8,1295.4 1333.1,1292.4 1314.3,1288.3 1295.5,1283.1 1276.7,1276.9 1257.8,1269.6 1239.1,1261.4 1220.4,1252.3 1201.8,1242.3 1183.5,1231.6 1165.3,1220.2 1147.4,1208.1 1129.8,1195.5 1112.6,1182.4 1095.8,1169.0  A 522.500,522.500 0.00 0,1 1132.2,1128.8 L 1132.2,1128.8 1147.3,1143.7 1162.7,1158.2 1178.5,1172.3 1194.5,1185.8 1210.7,1198.7 1227.1,1210.8 1243.7,1222.2 1260.4,1232.7 1277.1,1242.2 1293.8,1250.8 1310.6,1258.3 1327.2,1264.7 1343.8,1269.9 1360.3,1273.9 1376.6,1276.8 1392.8,1278.4 1408.7,1278.7 1424.4,1277.7 1439.9,1275.5 1455.0,1272.0 1469.9,1267.2 1484.4,1261.1 1498.6,1253.8 1512.4,1245.3 1525.8,1235.5 1538.8,1224.6 1551.4,1212.6 1563.6,1199.5 1575.3,1185.4 1586.5,1170.4 1597.3,1154.4 1607.7,1137.7 1617.6,1120.2 1626.9,1102.0 1635.8,1083.3 1644.2,1064.1 1652.2,1044.5 1659.6,1024.7 1666.6,1004.8  Z" style="stroke-width: 0.5;  stroke: rgb(0,0,0); fill: rgb(179,177,178);" />
<path d="M 2022.267,1484.392 A 522.500,522.500 0.00 0,1 2021.1,1537.7 L 2021.1,1537.7 1995.4,1535.9 1969.6,1534.3 1943.6,1532.9 1917.5,1531.6 1891.3,1530.6 1864.9,1529.7 1838.5,1529.1 1812.0,1528.6 1785.4,1528.4 1758.8,1528.5 1732.0,1528.7 1705.3,1529.2 1678.5,1529.9 1651.6,1530.9 1624.7,1532.1 1597.9,1533.6 1571.0,1535.3 1544.1,1537.3 1517.2,1539.5 1490.3,1542.0 1463.5,1544.8 1436.7,1547.7 1410.0,1551.0 1383.3,1554.4 1356.6,1558.2 1330.0,1562.1 1303.6,1566.3 1277.1,1570.7 1250.8,1575.4 1224.6,1580.2 1198.5,1585.3 1172.5,1590.6 1146.7,1596.0 1120.9,1601.7 1095.4,1607.5 1069.9,1613.5 1044.6,1619.7 1019.5,1626.0 994.6,1632.5  A 522.500,522.500 0.00 0,1 983.5,1578.9 L 983.5,1578.9 1009.6,1574.9 1035.8,1571.0 1062.0,1567.2 1088.3,1563.4 1114.7,1559.7 1141.1,1556.1 1167.6,1552.5 1194.1,1549.0 1220.6,1545.6 1247.2,1542.3 1273.9,1539.0 1300.5,1535.9 1327.2,1532.8 1354.0,1529.8 1380.7,1526.9 1407.5,1524.1 1434.3,1521.4 1461.1,1518.7 1487.9,1516.2 1514.8,1513.7 1541.6,1511.4 1568.5,1509.1 1595.3,1507.0 1622.2,1504.9 1649.0,1502.9 1675.8,1501.1 1702.7,1499.3 1729.5,1497.6 1756.2,1496.0 1783.0,1494.4 1809.7,1493.0 1836.4,1491.7 1863.1,1490.4 1889.7,1489.2 1916.3,1488.1 1942.9,1487.1 1969.4,1486.1 1995.9,1485.2 2022.3,1484.4  Z" style="stroke-width: 0.5;  stroke: rgb(0,0,0); fill: rgb(179,177,178);" />
<path d="M 1760.502,1047.070 A 522.500,522.500 0.00 0,1 1800.2,1072.4 L 1800.2,1072.4 1787.1,1090.6 1773.5,1108.6 1759.3,1126.3 1744.6,1143.7 1729.4,1160.6 1713.7,1177.1 1697.5,1193.0 1680.8,1208.3 1663.7,1223.0 1646.1,1236.9 1628.0,1250.1 1609.6,1262.4 1590.8,1273.9 1571.5,1284.6 1552.0,1294.3 1532.1,1303.0 1511.8,1310.8 1491.3,1317.7 1470.5,1323.5 1449.5,1328.3 1428.3,1332.2 1406.8,1335.0 1385.2,1336.8 1363.5,1337.6 1341.6,1337.4 1319.7,1336.2 1297.7,1334.1 1275.7,1331.0 1253.8,1327.0 1231.9,1322.2 1210.0,1316.5 1188.4,1310.0 1166.8,1302.7 1145.5,1294.7 1124.4,1286.1 1103.6,1276.9 1083.1,1267.1 1063.0,1256.9 1043.3,1246.2  A 522.500,522.500 0.00 0,1 1068.0,1206.1 L 1068.0,1206.1 1086.3,1218.2 1105.1,1229.9 1124.1,1241.2 1143.5,1251.9 1163.2,1262.0 1183.1,1271.4 1203.2,1280.1 1223.5,1287.9 1243.9,1294.9 1264.3,1301.0 1284.8,1306.2 1305.3,1310.4 1325.8,1313.5 1346.2,1315.6 1366.5,1316.7 1386.7,1316.6 1406.7,1315.5 1426.5,1313.3 1446.2,1309.9 1465.5,1305.5 1484.7,1299.9 1503.5,1293.3 1522.0,1285.6 1540.2,1276.8 1558.0,1267.0 1575.4,1256.2 1592.5,1244.4 1609.1,1231.7 1625.3,1218.2 1641.0,1203.8 1656.3,1188.6 1671.1,1172.7 1685.4,1156.1 1699.2,1139.0 1712.6,1121.3 1725.3,1103.2 1737.6,1084.7 1749.3,1066.0 1760.5,1047.1  Z" style="stroke-width: 0.5;  stroke: rgb(0,0,0); fill: rgb(179,177,178);" />
<path d="M 1718.478,1025.370 A 522.500,522.500 0.00 0,1 1759.6,1046.6 L 1759.6,1046.6 1748.5,1065.5 1736.8,1084.2 1724.6,1102.7 1711.8,1120.8 1698.5,1138.5 1684.8,1155.7 1670.5,1172.3 1655.7,1188.2 1640.5,1203.4 1624.8,1217.8 1608.6,1231.4 1592.0,1244.1 1575.0,1255.9 1557.6,1266.7 1539.8,1276.6 1521.7,1285.3 1503.2,1293.1 1484.4,1299.7 1465.3,1305.3 1446.0,1309.8 1426.4,1313.1 1406.5,1315.4 1386.5,1316.5 1366.4,1316.5 1346.1,1315.5 1325.7,1313.4 1305.3,1310.2 1284.8,1306.1 1264.3,1300.9 1243.9,1294.8 1223.5,1287.8 1203.3,1280.0 1183.2,1271.3 1163.2,1261.9 1143.6,1251.8 1124.2,1241.1 1105.1,1229.8 1086.4,1218.1 1068.1,1206.0  A 522.500,522.500 0.00 0,1 1095.7,1169.0 L 1095.7,1169.0 1112.6,1182.4 1129.8,1195.5 1147.4,1208.2 1165.3,1220.2 1183.5,1231.7 1201.9,1242.4 1220.4,1252.3 1239.1,1261.5 1257.9,1269.7 1276.7,1276.9 1295.6,1283.2 1314.4,1288.4 1333.2,1292.5 1351.9,1295.5 1370.5,1297.4 1388.9,1298.1 1407.2,1297.6 1425.2,1296.0 1443.1,1293.1 1460.6,1289.1 1477.9,1283.9 1494.8,1277.4 1511.4,1269.9 1527.7,1261.2 1543.6,1251.3 1559.1,1240.4 1574.1,1228.5 1588.8,1215.6 1603.0,1201.7 1616.8,1186.9 1630.1,1171.3 1642.9,1154.9 1655.2,1137.9 1667.0,1120.2 1678.4,1101.9 1689.2,1083.2 1699.5,1064.2 1709.2,1044.9 1718.5,1025.4  Z" style="stroke-width: 0.5;  stroke: rgb(0,0,0); fill: rgb(179,177,178);" />
<path d="M 1800.887,1072.831 A 522.500,522.500 0.00 0,1 1837.1,1100.8 L 1837.1,1100.8 1822.2,1118.1 1806.7,1135.3 1790.7,1152.1 1774.1,1168.6 1757.1,1184.8 1739.6,1200.4 1721.7,1215.6 1703.3,1230.2 1684.4,1244.2 1665.1,1257.6 1645.4,1270.2 1625.4,1282.1 1604.9,1293.3 1584.1,1303.7 1563.0,1313.2 1541.5,1321.9 1519.8,1329.8 1497.8,1336.8 1475.6,1342.9 1453.1,1348.1 1430.4,1352.3 1407.6,1355.7 1384.6,1358.2 1361.5,1359.7 1338.3,1360.4 1315.1,1360.2 1291.8,1359.1 1268.5,1357.2 1245.3,1354.5 1222.1,1350.9 1199.0,1346.6 1176.1,1341.6 1153.3,1335.8 1130.7,1329.4 1108.3,1322.4 1086.2,1314.8 1064.5,1306.6 1043.0,1298.0 1022.0,1289.0  A 522.500,522.500 0.00 0,1 1042.7,1247.3 L 1042.7,1247.3 1062.4,1257.9 1082.6,1268.1 1103.1,1277.9 1123.9,1287.0 1145.1,1295.6 1166.4,1303.5 1188.0,1310.8 1209.7,1317.2 1231.6,1322.9 1253.5,1327.7 1275.5,1331.6 1297.5,1334.7 1319.5,1336.8 1341.5,1337.9 1363.3,1338.1 1385.1,1337.3 1406.8,1335.4 1428.2,1332.6 1449.5,1328.8 1470.6,1323.9 1491.4,1318.1 1511.9,1311.2 1532.2,1303.4 1552.1,1294.6 1571.7,1284.9 1591.0,1274.3 1609.9,1262.8 1628.3,1250.4 1646.4,1237.3 1664.0,1223.4 1681.2,1208.7 1697.9,1193.4 1714.2,1177.5 1729.9,1161.0 1745.2,1144.1 1759.9,1126.7 1774.1,1109.0 1787.8,1091.0 1800.9,1072.8  Z" style="stroke-width: 0.5;  stroke: rgb(0,0,0); fill: rgb(179,177,178);" />
<path d="M 1815.972,1916.135 A 522.500,522.500 0.00 0,1 1779.9,1941.2 L 1779.9,1941.2 1768.4,1923.7 1756.6,1906.3 1744.5,1889.4 1731.9,1872.9 1719.1,1857.1 1706.0,1841.9 1692.7,1827.5 1679.1,1814.0 1665.3,1801.4 1651.4,1789.8 1637.3,1779.3 1623.1,1769.9 1608.8,1761.6 1594.4,1754.6 1580.0,1748.9 1565.6,1744.5 1551.2,1741.4 1536.8,1739.6 1522.5,1739.1 1508.2,1740.0 1494.1,1742.3 1480.0,1745.9 1466.1,1750.8 1452.4,1757.1 1438.8,1764.6 1425.5,1773.4 1412.3,1783.4 1399.5,1794.5 1386.8,1806.7 1374.5,1820.0 1362.4,1834.3 1350.7,1849.4 1339.3,1865.4 1328.2,1882.1 1317.5,1899.5 1307.2,1917.4 1297.3,1935.8 1287.8,1954.4 1278.7,1973.3  A 522.500,522.500 0.00 0,1 1239.6,1953.0 L 1239.6,1953.0 1250.4,1934.7 1261.7,1916.6 1273.4,1898.8 1285.6,1881.5 1298.1,1864.8 1311.1,1848.6 1324.4,1833.2 1338.1,1818.6 1352.2,1804.8 1366.5,1792.0 1381.1,1780.2 1396.1,1769.4 1411.2,1759.8 1426.6,1751.2 1442.2,1743.9 1458.0,1737.8 1474.0,1732.9 1490.1,1729.3 1506.3,1727.0 1522.6,1726.0 1539.0,1726.2 1555.5,1727.7 1571.9,1730.5 1588.4,1734.6 1604.8,1739.9 1621.1,1746.3 1637.4,1754.0 1653.6,1762.8 1669.6,1772.6 1685.5,1783.5 1701.1,1795.4 1716.6,1808.1 1731.8,1821.7 1746.7,1836.1 1761.3,1851.1 1775.5,1866.7 1789.4,1882.8 1802.9,1899.3 1816.0,1916.1  Z" style="stroke-width: 0.5;  stroke: rgb(0,0,0); fill: rgb(179,177,178);" />
<path d="M 1887.369,1149.355 A 522.500,522.500 0.00 0,1 1914.9,1182.4 L 1914.9,1182.4 1895.6,1196.9 1875.9,1211.2 1855.8,1225.3 1835.3,1239.0 1814.3,1252.5 1793.1,1265.6 1771.4,1278.4 1749.4,1290.7 1727.1,1302.6 1704.4,1314.0 1681.4,1324.9 1658.2,1335.3 1634.6,1345.2 1610.8,1354.5 1586.8,1363.2 1562.5,1371.4 1538.1,1378.9 1513.4,1385.9 1488.6,1392.2 1463.6,1397.9 1438.4,1402.9 1413.2,1407.4 1387.9,1411.2 1362.5,1414.4 1337.0,1416.9 1311.6,1418.8 1286.1,1420.1 1260.6,1420.9 1235.2,1421.0 1209.8,1420.5 1184.5,1419.5 1159.3,1417.9 1134.3,1415.8 1109.4,1413.2 1084.8,1410.2 1060.3,1406.6 1036.1,1402.7 1012.1,1398.3 988.4,1393.6  A 522.500,522.500 0.00 0,1 998.9,1351.9 L 998.9,1351.9 1021.7,1358.4 1044.7,1364.5 1068.1,1370.1 1091.8,1375.3 1115.6,1380.0 1139.8,1384.1 1164.0,1387.7 1188.5,1390.7 1213.0,1393.0 1237.7,1394.7 1262.4,1395.7 1287.2,1396.0 1312.0,1395.7 1336.7,1394.6 1361.5,1392.8 1386.1,1390.2 1410.7,1386.9 1435.2,1382.9 1459.5,1378.1 1483.7,1372.6 1507.7,1366.4 1531.5,1359.4 1555.0,1351.7 1578.4,1343.3 1601.4,1334.2 1624.2,1324.5 1646.7,1314.1 1668.9,1303.0 1690.7,1291.4 1712.2,1279.2 1733.3,1266.4 1754.1,1253.2 1774.4,1239.4 1794.4,1225.3 1813.9,1210.7 1832.9,1195.8 1851.5,1180.5 1869.7,1165.1 1887.4,1149.4  Z" style="stroke-width: 0.5;  stroke: rgb(0,0,0); fill: rgb(179,177,178);" />
<path d="M 1985.802,1307.638 A 522.500,522.500 0.00 0,1 1999.9,1348.1 L 1999.9,1348.1 1974.9,1355.7 1949.7,1363.2 1924.4,1370.6 1899.0,1377.9 1873.5,1385.1 1847.9,1392.2 1822.2,1399.2 1796.5,1406.2 1770.6,1412.9 1744.7,1419.6 1718.7,1426.2 1692.6,1432.6 1666.5,1438.9 1640.3,1445.0 1614.0,1451.0 1587.7,1456.9 1561.3,1462.6 1534.9,1468.2 1508.5,1473.6 1482.0,1478.9 1455.5,1484.1 1429.0,1489.1 1402.5,1493.9 1375.9,1498.6 1349.4,1503.2 1322.8,1507.6 1296.3,1511.8 1269.7,1515.9 1243.2,1519.9 1216.7,1523.7 1190.2,1527.4 1163.8,1530.9 1137.4,1534.3 1111.0,1537.6 1084.7,1540.7 1058.5,1543.8 1032.3,1546.7 1006.2,1549.4 980.1,1552.1  A 522.500,522.500 0.00 0,1 977.6,1509.0 L 977.6,1509.0 1003.2,1508.5 1029.0,1507.7 1055.0,1506.8 1081.0,1505.7 1107.2,1504.3 1133.4,1502.7 1159.7,1500.9 1186.1,1498.8 1212.5,1496.4 1239.0,1493.9 1265.6,1491.0 1292.1,1487.9 1318.7,1484.5 1345.3,1480.9 1371.9,1477.0 1398.4,1472.8 1425.0,1468.3 1451.5,1463.6 1478.0,1458.6 1504.4,1453.3 1530.8,1447.8 1557.1,1442.0 1583.3,1435.9 1609.5,1429.5 1635.5,1422.9 1661.5,1416.1 1687.3,1409.0 1713.0,1401.7 1738.6,1394.1 1764.0,1386.3 1789.4,1378.3 1814.5,1370.1 1839.5,1361.7 1864.4,1353.1 1889.0,1344.3 1913.5,1335.3 1937.8,1326.2 1961.9,1317.0 1985.8,1307.6  Z" style="stroke-width: 0.5;  stroke: rgb(0,0,0); fill: rgb(179,177,178);" />
<path d="M 1915.621,1183.353 A 522.500,522.500 0.00 0,1 1938.5,1215.9 L 1938.5,1215.9 1917.8,1229.1 1896.7,1242.2 1875.2,1255.0 1853.4,1267.6 1831.3,1279.9 1808.8,1291.9 1786.0,1303.6 1762.9,1314.9 1739.6,1325.9 1715.9,1336.4 1692.1,1346.6 1667.9,1356.3 1643.5,1365.6 1618.9,1374.4 1594.1,1382.7 1569.2,1390.6 1544.0,1397.9 1518.7,1404.8 1493.2,1411.1 1467.6,1417.0 1441.9,1422.3 1416.2,1427.0 1390.3,1431.3 1364.4,1435.0 1338.4,1438.3 1312.4,1441.0 1286.4,1443.2 1260.5,1444.8 1234.5,1446.0 1208.7,1446.7 1182.9,1447.0 1157.2,1446.8 1131.6,1446.1 1106.1,1445.0 1080.8,1443.5 1055.7,1441.6 1030.8,1439.3 1006.1,1436.7 981.7,1433.7  A 522.500,522.500 0.00 0,1 988.5,1393.5 L 988.5,1393.5 1012.1,1398.2 1036.1,1402.6 1060.3,1406.5 1084.8,1410.1 1109.5,1413.1 1134.4,1415.8 1159.4,1417.9 1184.6,1419.4 1209.9,1420.5 1235.2,1421.0 1260.7,1420.9 1286.2,1420.2 1311.7,1418.9 1337.2,1417.0 1362.6,1414.5 1388.0,1411.3 1413.4,1407.5 1438.6,1403.1 1463.8,1398.1 1488.8,1392.4 1513.6,1386.1 1538.3,1379.2 1562.8,1371.7 1587.1,1363.6 1611.1,1354.9 1635.0,1345.6 1658.5,1335.8 1681.8,1325.4 1704.8,1314.6 1727.5,1303.2 1749.9,1291.3 1771.9,1279.1 1793.6,1266.4 1814.9,1253.3 1835.9,1239.9 1856.4,1226.1 1876.6,1212.1 1896.3,1197.8 1915.6,1183.4  Z" style="stroke-width: 0.5;  stroke: rgb(0,0,0); fill: rgb(179,177,178);" />
<path d="M 1847.465,1890.223 A 522.500,522.500 0.00 0,1 1817.5,1915.0 L 1817.5,1915.0 1804.4,1898.2 1790.8,1881.8 1776.9,1865.7 1762.5,1850.1 1747.9,1835.1 1732.9,1820.8 1717.6,1807.2 1702.1,1794.5 1686.4,1782.7 1670.4,1771.9 1654.3,1762.0 1638.1,1753.3 1621.7,1745.7 1605.3,1739.2 1588.8,1734.0 1572.3,1730.0 1555.8,1727.2 1539.3,1725.7 1522.8,1725.5 1506.5,1726.5 1490.2,1728.9 1474.0,1732.5 1458.0,1737.4 1442.1,1743.5 1426.4,1750.8 1411.0,1759.3 1395.8,1769.0 1380.8,1779.8 1366.1,1791.6 1351.7,1804.4 1337.6,1818.1 1323.9,1832.8 1310.5,1848.2 1297.5,1864.3 1284.9,1881.1 1272.7,1898.4 1260.9,1916.1 1249.6,1934.2 1238.7,1952.5  A 522.500,522.500 0.00 0,1 1205.7,1931.7 L 1205.7,1931.7 1218.1,1914.0 1230.9,1896.6 1244.3,1879.5 1258.0,1862.8 1272.3,1846.7 1286.9,1831.2 1301.9,1816.4 1317.3,1802.3 1333.0,1789.1 1349.1,1776.8 1365.5,1765.4 1382.2,1755.0 1399.1,1745.7 1416.2,1737.5 1433.6,1730.3 1451.2,1724.4 1468.9,1719.6 1486.8,1716.0 1504.7,1713.6 1522.8,1712.5 1541.0,1712.5 1559.1,1713.8 1577.3,1716.2 1595.5,1719.9 1613.7,1724.7 1631.7,1730.6 1649.7,1737.7 1667.6,1745.9 1685.3,1755.0 1702.8,1765.2 1720.1,1776.3 1737.2,1788.2 1754.0,1801.0 1770.5,1814.5 1786.7,1828.6 1802.5,1843.4 1817.9,1858.6 1832.9,1874.3 1847.5,1890.2  Z" style="stroke-width: 0.5;  stroke: rgb(0,0,0); fill: rgb(179,177,178);" />
<path d="M 1956.333,1754.493 A 522.500,522.500 0.00 0,1 1936.4,1787.3 L 1936.4,1787.3 1917.2,1775.0 1897.5,1763.0 1877.4,1751.4 1856.9,1740.2 1836.0,1729.6 1814.8,1719.6 1793.3,1710.2 1771.6,1701.4 1749.6,1693.4 1727.3,1686.1 1704.9,1679.6 1682.3,1673.9 1659.6,1669.1 1636.8,1665.1 1613.9,1662.0 1590.9,1659.8 1567.9,1658.5 1545.0,1658.2 1522.0,1658.8 1499.1,1660.3 1476.2,1662.7 1453.5,1666.1 1430.8,1670.4 1408.4,1675.6 1386.1,1681.6 1364.0,1688.6 1342.1,1696.4 1320.4,1705.0 1299.1,1714.3 1278.0,1724.5 1257.2,1735.3 1236.8,1746.9 1216.7,1759.0 1197.0,1771.7 1177.8,1785.0 1158.9,1798.7 1140.5,1812.9 1122.6,1827.4 1105.1,1842.2  A 522.500,522.500 0.00 0,1 1080.9,1812.0 L 1080.9,1812.0 1099.7,1798.3 1119.0,1784.9 1138.7,1771.8 1158.8,1759.1 1179.4,1746.9 1200.3,1735.1 1221.6,1723.9 1243.3,1713.3 1265.2,1703.3 1287.5,1693.9 1310.0,1685.2 1332.8,1677.2 1355.8,1670.0 1379.0,1663.6 1402.4,1657.9 1426.0,1653.0 1449.7,1648.9 1473.5,1645.7 1497.4,1643.3 1521.3,1641.7 1545.4,1641.0 1569.4,1641.1 1593.4,1642.0 1617.4,1643.8 1641.4,1646.3 1665.2,1649.7 1689.0,1653.9 1712.6,1658.8 1736.1,1664.4 1759.3,1670.8 1782.4,1677.9 1805.3,1685.6 1827.8,1693.9 1850.1,1702.8 1872.1,1712.3 1893.8,1722.2 1915.0,1732.6 1935.9,1743.4 1956.3,1754.5  Z" style="stroke-width: 0.5;  stroke: rgb(0,0,0); fill: rgb(179,177,178);" />
<path d="M 1935.696,1788.401 A 522.500,522.500 0.00 0,1 1913.4,1819.5 L 1913.4,1819.5 1895.5,1806.0 1877.1,1792.8 1858.3,1780.0 1839.0,1767.7 1819.4,1756.0 1799.5,1744.8 1779.2,1734.4 1758.7,1724.6 1737.9,1715.6 1716.9,1707.4 1695.6,1700.1 1674.3,1693.6 1652.7,1688.1 1631.1,1683.5 1609.4,1679.9 1587.7,1677.3 1565.9,1675.6 1544.1,1675.0 1522.3,1675.4 1500.6,1676.8 1479.0,1679.3 1457.5,1682.7 1436.1,1687.1 1414.9,1692.6 1393.8,1699.0 1373.0,1706.4 1352.3,1714.6 1332.0,1723.8 1311.9,1733.8 1292.1,1744.7 1272.7,1756.3 1253.6,1768.6 1234.9,1781.6 1216.5,1795.3 1198.6,1809.5 1181.1,1824.2 1164.1,1839.3 1147.6,1854.7 1131.5,1870.5  A 522.500,522.500 0.00 0,1 1105.1,1842.2 L 1105.1,1842.2 1122.6,1827.4 1140.5,1812.9 1158.9,1798.8 1177.8,1785.0 1197.0,1771.8 1216.7,1759.1 1236.8,1746.9 1257.2,1735.4 1277.9,1724.6 1299.0,1714.4 1320.4,1705.1 1342.0,1696.5 1363.9,1688.7 1386.0,1681.8 1408.3,1675.7 1430.7,1670.6 1453.3,1666.3 1476.1,1663.0 1498.9,1660.6 1521.8,1659.1 1544.8,1658.5 1567.7,1658.9 1590.7,1660.2 1613.6,1662.4 1636.5,1665.6 1659.3,1669.6 1682.0,1674.5 1704.6,1680.2 1727.0,1686.7 1749.2,1694.0 1771.1,1702.1 1792.9,1710.9 1814.3,1720.4 1835.5,1730.4 1856.3,1741.1 1876.8,1752.3 1896.8,1763.9 1916.5,1776.0 1935.7,1788.4  Z" style="stroke-width: 0.5;  stroke: rgb(0,0,0); fill: rgb(179,177,178);" />
<path d="M 1841.626,1104.655 A 522.500,522.500 0.00 0,1 1866.9,1128.0 L 1866.9,1128.0 1850.4,1144.4 1833.3,1160.7 1815.7,1176.7 1797.7,1192.3 1779.2,1207.6 1760.3,1222.5 1740.9,1236.9 1721.1,1250.8 1700.9,1264.2 1680.3,1276.9 1659.3,1289.1 1637.9,1300.6 1616.2,1311.4 1594.2,1321.5 1571.9,1330.8 1549.3,1339.5 1526.4,1347.3 1503.3,1354.4 1480.0,1360.7 1456.4,1366.1 1432.7,1370.8 1408.9,1374.7 1384.9,1377.7 1360.8,1380.0 1336.6,1381.4 1312.4,1382.1 1288.2,1382.0 1263.9,1381.1 1239.7,1379.5 1215.6,1377.1 1191.6,1374.1 1167.7,1370.4 1143.9,1366.0 1120.3,1361.0 1097.0,1355.5 1073.9,1349.4 1051.1,1342.8 1028.6,1335.8 1006.5,1328.3  A 522.500,522.500 0.00 0,1 1018.9,1296.1 L 1018.9,1296.1 1040.2,1304.8 1061.8,1313.1 1083.8,1321.0 1106.0,1328.3 1128.6,1335.1 1151.4,1341.2 1174.3,1346.7 1197.5,1351.5 1220.7,1355.6 1244.1,1358.9 1267.5,1361.4 1290.9,1363.2 1314.4,1364.0 1337.8,1364.1 1361.1,1363.2 1384.4,1361.5 1407.6,1358.9 1430.6,1355.4 1453.4,1351.0 1476.0,1345.8 1498.5,1339.6 1520.7,1332.6 1542.6,1324.7 1564.2,1316.0 1585.5,1306.4 1606.5,1296.1 1627.2,1284.9 1647.5,1273.0 1667.4,1260.4 1686.8,1247.1 1705.9,1233.2 1724.6,1218.7 1742.7,1203.6 1760.5,1188.1 1777.7,1172.0 1794.4,1155.6 1810.7,1138.9 1826.4,1121.9 1841.6,1104.7  Z" style="stroke-width: 0.5;  stroke: rgb(0,0,0); fill: rgb(179,177,178);" />
<path d="M 1500.000,977.500 A 522.500,522.500 0.00 0,1 1521.5,977.9 L 1521.5,977.9 1520.5,998.2 1519.3,1018.3 1517.9,1038.1 1516.1,1057.6 1514.1,1076.5 1511.8,1094.7 1509.2,1112.3 1506.3,1128.9 1503.0,1144.6 1499.5,1159.3 1495.6,1172.9 1491.4,1185.3 1486.8,1196.4 1482.0,1206.2 1476.8,1214.7 1471.3,1221.8 1465.4,1227.5 1459.3,1231.7 1452.9,1234.5 1446.2,1235.7 1439.2,1235.5 1431.9,1233.9 1424.4,1230.7 1416.7,1226.2 1408.7,1220.2 1400.6,1212.8 1392.3,1204.1 1383.8,1194.2 1375.2,1183.0 1366.5,1170.7 1357.7,1157.2 1348.8,1142.8 1340.0,1127.5 1331.1,1111.3 1322.3,1094.5 1313.5,1077.1 1304.9,1059.2 1296.4,1040.9 1288.0,1022.4  A 522.500,522.500 0.00 0,1 1298.6,1017.9 L 1298.6,1017.9 1306.5,1036.5 1314.5,1054.9 1322.7,1073.0 1330.9,1090.6 1339.2,1107.6 1347.5,1123.9 1355.7,1139.4 1363.9,1154.0 1372.0,1167.6 1380.1,1180.1 1387.9,1191.4 1395.7,1201.6 1403.2,1210.4 1410.6,1217.9 1417.7,1224.0 1424.6,1228.8 1431.2,1232.0 1437.6,1233.8 1443.7,1234.2 1449.5,1233.0 1455.0,1230.3 1460.2,1226.2 1465.0,1220.7 1469.6,1213.6 1473.8,1205.2 1477.7,1195.5 1481.2,1184.4 1484.5,1172.1 1487.4,1158.6 1489.9,1143.9 1492.2,1128.3 1494.1,1111.6 1495.8,1094.1 1497.1,1075.9 1498.2,1057.0 1499.0,1037.6 1499.6,1017.8 1499.9,997.7 1500.0,977.5  Z" style="stroke-width: 0.5;  stroke: rgb(0,0,0); fill: rgb(179,177,178);" />
<path d="M 1938.509,1215.894 A 522.500,522.500 0.00 0,1 1950.8,1235.8 L 1950.8,1235.8 1929.2,1248.2 1907.3,1260.5 1885.1,1272.6 1862.7,1284.4 1839.9,1296.1 1816.8,1307.4 1793.4,1318.5 1769.8,1329.2 1745.9,1339.6 1721.8,1349.7 1697.4,1359.4 1672.9,1368.7 1648.1,1377.6 1623.1,1386.1 1598.0,1394.3 1572.7,1401.9 1547.2,1409.2 1521.6,1416.0 1495.8,1422.4 1470.0,1428.3 1444.0,1433.8 1418.0,1438.8 1391.9,1443.3 1365.8,1447.4 1339.6,1451.0 1313.4,1454.2 1287.2,1457.0 1261.0,1459.3 1234.9,1461.1 1208.8,1462.6 1182.8,1463.6 1156.8,1464.2 1131.0,1464.4 1105.3,1464.2 1079.7,1463.7 1054.3,1462.8 1029.0,1461.6 1004.0,1460.0 979.2,1458.2  A 522.500,522.500 0.00 0,1 981.6,1434.9 L 981.6,1434.9 1006.0,1437.8 1030.7,1440.4 1055.6,1442.6 1080.7,1444.5 1106.0,1445.9 1131.5,1447.0 1157.1,1447.6 1182.8,1447.8 1208.6,1447.5 1234.5,1446.7 1260.4,1445.5 1286.4,1443.8 1312.4,1441.5 1338.4,1438.8 1364.3,1435.5 1390.2,1431.7 1416.1,1427.4 1441.9,1422.6 1467.6,1417.3 1493.2,1411.4 1518.7,1405.1 1544.0,1398.2 1569.1,1390.8 1594.1,1382.9 1618.9,1374.6 1643.5,1365.7 1667.9,1356.4 1692.0,1346.7 1715.9,1336.5 1739.5,1326.0 1762.9,1315.0 1786.0,1303.6 1808.8,1292.0 1831.2,1279.9 1853.4,1267.6 1875.2,1255.0 1896.7,1242.2 1917.8,1229.1 1938.5,1215.9  Z" style="stroke-width: 0.5;  stroke: rgb(0,0,0); fill: rgb(179,177,178);" />
<path d="M 2000.122,1348.723 A 522.500,522.500 0.00 0,1 2006.0,1369.9 L 2006.0,1369.9 1980.4,1376.5 1954.7,1383.0 1929.0,1389.5 1903.1,1395.9 1877.3,1402.2 1851.4,1408.6 1825.4,1414.8 1799.4,1421.0 1773.3,1427.1 1747.2,1433.2 1721.0,1439.1 1694.8,1445.1 1668.6,1450.9 1642.3,1456.7 1616.0,1462.4 1589.7,1468.0 1563.4,1473.5 1537.0,1479.0 1510.6,1484.3 1484.2,1489.6 1457.8,1494.8 1431.3,1500.0 1404.9,1505.0 1378.4,1510.0 1352.0,1514.8 1325.5,1519.6 1299.0,1524.4 1272.6,1529.0 1246.2,1533.6 1219.7,1538.0 1193.3,1542.4 1166.9,1546.7 1140.5,1551.0 1114.2,1555.2 1087.9,1559.2 1061.6,1563.3 1035.3,1567.2 1009.1,1571.1 982.9,1574.9  A 522.500,522.500 0.00 0,1 980.2,1553.0 L 980.2,1553.0 1006.2,1550.3 1032.4,1547.4 1058.6,1544.5 1084.8,1541.5 1111.1,1538.3 1137.5,1535.0 1163.9,1531.5 1190.3,1528.0 1216.8,1524.3 1243.3,1520.4 1269.8,1516.4 1296.4,1512.3 1322.9,1508.0 1349.5,1503.6 1376.0,1499.0 1402.6,1494.3 1429.1,1489.5 1455.6,1484.5 1482.1,1479.3 1508.6,1474.0 1535.0,1468.6 1561.4,1463.0 1587.7,1457.2 1614.1,1451.4 1640.3,1445.4 1666.5,1439.2 1692.7,1432.9 1718.7,1426.5 1744.8,1420.0 1770.7,1413.3 1796.5,1406.6 1822.3,1399.7 1848.0,1392.7 1873.6,1385.6 1899.1,1378.4 1924.5,1371.1 1949.8,1363.7 1975.0,1356.3 2000.1,1348.7  Z" style="stroke-width: 0.5;  stroke: rgb(0,0,0); fill: rgb(179,177,178);" />
<path d="M 1966.473,1735.392 A 522.500,522.500 0.00 0,1 1956.9,1753.5 L 1956.9,1753.5 1936.4,1742.5 1915.5,1731.7 1894.2,1721.4 1872.5,1711.5 1850.5,1702.0 1828.2,1693.2 1805.6,1684.9 1782.7,1677.2 1759.6,1670.2 1736.3,1663.8 1712.8,1658.2 1689.2,1653.3 1665.4,1649.2 1641.5,1645.8 1617.5,1643.3 1593.5,1641.5 1569.5,1640.6 1545.4,1640.5 1521.4,1641.3 1497.4,1642.9 1473.4,1645.3 1449.6,1648.5 1425.9,1652.6 1402.3,1657.5 1378.9,1663.2 1355.6,1669.6 1332.6,1676.8 1309.8,1684.8 1287.3,1693.5 1265.0,1702.8 1243.0,1712.8 1221.3,1723.4 1200.0,1734.6 1179.1,1746.3 1158.5,1758.6 1138.3,1771.2 1118.6,1784.3 1099.3,1797.7 1080.4,1811.4  A 522.500,522.500 0.00 0,1 1068.3,1794.3 L 1068.3,1794.3 1087.8,1781.2 1107.8,1768.5 1128.3,1756.0 1149.1,1744.0 1170.3,1732.3 1191.9,1721.2 1213.9,1710.5 1236.1,1700.4 1258.7,1690.9 1281.6,1682.0 1304.7,1673.7 1328.0,1666.2 1351.6,1659.3 1375.4,1653.1 1399.3,1647.6 1423.4,1642.9 1447.7,1639.0 1472.0,1635.8 1496.4,1633.4 1520.9,1631.8 1545.5,1631.0 1570.0,1631.0 1594.6,1631.7 1619.1,1633.2 1643.5,1635.5 1667.9,1638.5 1692.2,1642.3 1716.3,1646.8 1740.3,1651.9 1764.2,1657.8 1787.8,1664.3 1811.2,1671.4 1834.3,1679.1 1857.2,1687.3 1879.8,1696.1 1902.0,1705.3 1923.9,1715.0 1945.4,1725.0 1966.5,1735.4  Z" style="stroke-width: 0.5;  stroke: rgb(0,0,0); fill: rgb(179,177,178);" />
<path d="M 1870.128,1131.203 A 522.500,522.500 0.00 0,1 1882.5,1144.1 L 1882.5,1144.1 1865.1,1159.9 1847.2,1175.6 1828.8,1191.1 1810.0,1206.2 1790.7,1220.9 1771.0,1235.3 1750.9,1249.2 1730.4,1262.7 1709.5,1275.6 1688.2,1288.0 1666.6,1299.7 1644.6,1310.9 1622.3,1321.4 1599.6,1331.3 1576.7,1340.5 1553.6,1349.0 1530.2,1356.8 1506.5,1363.8 1482.7,1370.1 1458.6,1375.6 1434.4,1380.4 1410.1,1384.5 1385.6,1387.8 1361.1,1390.3 1336.5,1392.1 1311.8,1393.1 1287.2,1393.4 1262.5,1393.0 1237.9,1391.9 1213.3,1390.1 1188.9,1387.7 1164.5,1384.6 1140.4,1380.9 1116.4,1376.6 1092.6,1371.8 1069.0,1366.5 1045.8,1360.6 1022.8,1354.4 1000.2,1347.7  A 522.500,522.500 0.00 0,1 1005.8,1330.4 L 1005.8,1330.4 1028.0,1337.7 1050.5,1344.7 1073.4,1351.2 1096.5,1357.2 1119.9,1362.7 1143.6,1367.6 1167.4,1371.9 1191.4,1375.6 1215.5,1378.6 1239.7,1380.9 1263.9,1382.5 1288.2,1383.4 1312.5,1383.4 1336.8,1382.8 1361.1,1381.3 1385.2,1379.1 1409.3,1376.0 1433.2,1372.2 1457.0,1367.5 1480.7,1362.1 1504.1,1355.9 1527.3,1348.8 1550.3,1341.0 1573.0,1332.5 1595.4,1323.2 1617.6,1313.2 1639.4,1302.4 1660.8,1291.0 1682.0,1279.0 1702.7,1266.3 1723.1,1253.1 1743.0,1239.3 1762.5,1225.0 1781.6,1210.2 1800.3,1195.1 1818.5,1179.5 1836.2,1163.7 1853.4,1147.5 1870.1,1131.2  Z" style="stroke-width: 0.5;  stroke: rgb(0,0,0); fill: rgb(179,177,178);" />
<path d="M 1530.452,978.388 A 522.500,522.500 0.00 0,1 1547.8,979.7 L 1547.8,979.7 1545.8,1000.0 1543.5,1020.1 1540.9,1040.0 1538.0,1059.4 1534.7,1078.4 1531.2,1096.7 1527.2,1114.3 1523.0,1131.0 1518.3,1146.9 1513.4,1161.6 1508.0,1175.4 1502.4,1187.9 1496.3,1199.2 1490.0,1209.2 1483.2,1218.0 1476.2,1225.3 1468.8,1231.2 1461.2,1235.8 1453.2,1238.8 1444.9,1240.5 1436.3,1240.6 1427.5,1239.3 1418.4,1236.6 1409.1,1232.5 1399.6,1226.9 1390.0,1220.0 1380.1,1211.8 1370.1,1202.4 1360.0,1191.7 1349.8,1179.8 1339.6,1166.9 1329.3,1153.0 1319.0,1138.2 1308.8,1122.6 1298.6,1106.3 1288.6,1089.4 1278.7,1072.0 1269.0,1054.2 1259.5,1036.2  A 522.500,522.500 0.00 0,1 1274.8,1028.5 L 1274.8,1028.5 1283.7,1046.8 1292.7,1064.8 1301.9,1082.5 1311.3,1099.7 1320.7,1116.3 1330.2,1132.2 1339.7,1147.3 1349.2,1161.5 1358.6,1174.7 1367.9,1186.8 1377.2,1197.8 1386.3,1207.5 1395.3,1216.0 1404.1,1223.1 1412.7,1228.9 1421.1,1233.3 1429.2,1236.2 1437.1,1237.7 1444.8,1237.7 1452.1,1236.3 1459.2,1233.4 1465.9,1229.0 1472.3,1223.2 1478.4,1216.0 1484.2,1207.4 1489.7,1197.5 1494.8,1186.2 1499.6,1173.8 1504.0,1160.1 1508.1,1145.4 1511.8,1129.6 1515.2,1112.9 1518.3,1095.3 1521.1,1077.0 1523.6,1058.1 1525.7,1038.6 1527.6,1018.8 1529.1,998.6 1530.5,978.4  Z" style="stroke-width: 0.5;  stroke: rgb(0,0,0); fill: rgb(179,177,178);" />
<path d="M 1951.184,1236.487 A 522.500,522.500 0.00 0,1 1958.6,1249.7 L 1958.6,1249.7 1936.6,1261.6 1914.2,1273.3 1891.5,1284.9 1868.6,1296.2 1845.3,1307.3 1821.9,1318.2 1798.1,1328.8 1774.2,1339.1 1749.9,1349.1 1725.5,1358.8 1700.9,1368.2 1676.0,1377.2 1651.0,1385.9 1625.8,1394.2 1600.5,1402.2 1574.9,1409.7 1549.3,1416.9 1523.5,1423.6 1497.6,1430.0 1471.6,1436.0 1445.6,1441.5 1419.4,1446.7 1393.2,1451.4 1366.9,1455.7 1340.7,1459.6 1314.4,1463.1 1288.0,1466.2 1261.8,1468.9 1235.5,1471.2 1209.3,1473.1 1183.1,1474.6 1157.1,1475.8 1131.1,1476.6 1105.2,1477.1 1079.5,1477.2 1053.9,1477.0 1028.4,1476.5 1003.2,1475.7 978.1,1474.6  A 522.500,522.500 0.00 0,1 979.1,1459.1 L 979.1,1459.1 1003.9,1460.9 1029.0,1462.4 1054.2,1463.6 1079.7,1464.4 1105.3,1464.9 1131.0,1465.1 1156.8,1464.8 1182.8,1464.2 1208.8,1463.1 1234.9,1461.7 1261.1,1459.8 1287.3,1457.5 1313.5,1454.7 1339.7,1451.5 1365.8,1447.9 1392.0,1443.8 1418.1,1439.2 1444.1,1434.2 1470.1,1428.7 1495.9,1422.8 1521.7,1416.4 1547.3,1409.6 1572.8,1402.4 1598.1,1394.7 1623.3,1386.6 1648.2,1378.1 1673.0,1369.1 1697.6,1359.8 1722.0,1350.1 1746.1,1340.1 1770.0,1329.7 1793.7,1319.0 1817.0,1308.0 1840.2,1296.6 1863.0,1285.1 1885.5,1273.2 1907.7,1261.2 1929.6,1248.9 1951.2,1236.5  Z" style="stroke-width: 0.5;  stroke: rgb(0,0,0); fill: rgb(179,177,178);" />
<path d="M 1743.588,1962.246 A 522.500,522.500 0.00 0,1 1732.0,1968.1 L 1732.0,1968.1 1722.7,1949.8 1713.0,1931.6 1703.1,1913.8 1692.8,1896.4 1682.3,1879.7 1671.6,1863.7 1660.7,1848.4 1649.6,1834.0 1638.3,1820.6 1626.9,1808.3 1615.5,1797.0 1603.9,1786.9 1592.2,1778.1 1580.6,1770.5 1568.9,1764.3 1557.2,1759.4 1545.5,1755.9 1533.9,1753.9 1522.4,1753.2 1510.9,1753.9 1499.6,1756.1 1488.3,1759.7 1477.2,1764.7 1466.3,1771.1 1455.5,1778.8 1444.9,1787.8 1434.6,1798.1 1424.4,1809.6 1414.5,1822.2 1404.8,1836.0 1395.4,1850.7 1386.3,1866.4 1377.4,1883.0 1368.9,1900.3 1360.7,1918.3 1352.8,1936.8 1345.2,1955.8 1338.0,1975.0 1331.2,1994.5  A 522.500,522.500 0.00 0,1 1319.1,1990.2 L 1319.1,1990.2 1326.5,1970.8 1334.2,1951.7 1342.3,1932.8 1350.7,1914.4 1359.5,1896.6 1368.6,1879.4 1378.1,1862.9 1387.8,1847.3 1397.8,1832.7 1408.1,1819.0 1418.7,1806.4 1429.5,1795.0 1440.5,1784.8 1451.7,1775.8 1463.1,1768.1 1474.7,1761.8 1486.5,1756.8 1498.4,1753.2 1510.4,1751.0 1522.6,1750.2 1534.8,1750.8 1547.0,1752.8 1559.4,1756.2 1571.7,1761.0 1584.0,1767.1 1596.3,1774.5 1608.6,1783.2 1620.8,1793.1 1632.9,1804.2 1644.9,1816.4 1656.8,1829.6 1668.5,1843.8 1680.0,1858.9 1691.3,1874.7 1702.3,1891.3 1713.1,1908.4 1723.6,1926.1 1733.8,1944.0 1743.6,1962.2  Z" style="stroke-width: 0.5;  stroke: rgb(0,0,0); fill: rgb(179,177,178);" />
<path d="M 1897.348,1839.294 A 522.500,522.500 0.00 0,1 1889.0,1848.8 L 1889.0,1848.8 1872.4,1834.2 1855.2,1820.0 1837.7,1806.1 1819.7,1792.8 1801.3,1780.0 1782.6,1767.8 1763.6,1756.3 1744.3,1745.6 1724.7,1735.7 1704.9,1726.6 1684.9,1718.4 1664.7,1711.2 1644.4,1704.9 1624.0,1699.7 1603.5,1695.5 1582.9,1692.3 1562.3,1690.2 1541.7,1689.2 1521.1,1689.3 1500.6,1690.4 1480.1,1692.7 1459.7,1696.1 1439.5,1700.5 1419.4,1706.0 1399.5,1712.5 1379.8,1720.0 1360.3,1728.6 1341.1,1738.0 1322.2,1748.4 1303.5,1759.7 1285.2,1771.8 1267.3,1784.6 1249.7,1798.2 1232.5,1812.4 1215.7,1827.2 1199.3,1842.5 1183.4,1858.3 1168.0,1874.4 1153.2,1890.8  A 522.500,522.500 0.00 0,1 1143.8,1882.3 L 1143.8,1882.3 1159.2,1866.2 1175.1,1850.3 1191.4,1834.9 1208.2,1819.8 1225.5,1805.3 1243.2,1791.4 1261.2,1778.0 1279.7,1765.4 1298.4,1753.6 1317.5,1742.5 1336.9,1732.3 1356.6,1723.0 1376.6,1714.6 1396.7,1707.2 1417.1,1700.8 1437.6,1695.4 1458.3,1691.0 1479.1,1687.7 1500.0,1685.4 1521.0,1684.2 1542.1,1684.1 1563.1,1685.1 1584.2,1687.0 1605.2,1690.1 1626.2,1694.1 1647.0,1699.2 1667.8,1705.3 1688.4,1712.3 1708.9,1720.2 1729.1,1729.0 1749.1,1738.7 1768.9,1749.1 1788.3,1760.3 1807.5,1772.1 1826.3,1784.6 1844.7,1797.6 1862.7,1811.1 1880.2,1825.0 1897.3,1839.3  Z" style="stroke-width: 0.5;  stroke: rgb(0,0,0); fill: rgb(179,177,178);" />
<path d="M 1907.970,1826.446 A 522.500,522.500 0.00 0,1 1900.9,1835.0 L 1900.9,1835.0 1883.6,1820.9 1865.9,1807.2 1847.7,1793.8 1829.1,1780.9 1810.1,1768.6 1790.8,1756.9 1771.1,1745.9 1751.2,1735.6 1731.0,1726.0 1710.5,1717.3 1689.9,1709.5 1669.1,1702.6 1648.2,1696.7 1627.1,1691.7 1605.9,1687.7 1584.7,1684.7 1563.5,1682.7 1542.2,1681.8 1521.0,1682.0 1499.8,1683.2 1478.7,1685.5 1457.7,1688.8 1436.8,1693.1 1416.0,1698.5 1395.5,1704.8 1375.1,1712.2 1355.0,1720.5 1335.1,1729.7 1315.5,1739.8 1296.2,1750.8 1277.2,1762.5 1258.6,1775.0 1240.3,1788.2 1222.4,1802.1 1204.9,1816.5 1187.9,1831.4 1171.3,1846.7 1155.3,1862.4 1139.7,1878.4  A 522.500,522.500 0.00 0,1 1131.7,1870.6 L 1131.7,1870.6 1147.7,1854.9 1164.2,1839.5 1181.2,1824.4 1198.6,1809.8 1216.5,1795.6 1234.8,1782.0 1253.4,1769.1 1272.5,1756.8 1291.9,1745.2 1311.6,1734.5 1331.6,1724.6 1351.8,1715.5 1372.4,1707.3 1393.1,1700.1 1414.1,1693.8 1435.2,1688.5 1456.5,1684.2 1477.9,1680.9 1499.4,1678.7 1520.9,1677.5 1542.5,1677.3 1564.2,1678.1 1585.8,1679.9 1607.4,1682.8 1628.9,1686.7 1650.3,1691.5 1671.7,1697.3 1692.8,1704.0 1713.8,1711.6 1734.6,1720.0 1755.2,1729.3 1775.5,1739.3 1795.5,1750.1 1815.2,1761.5 1834.6,1773.5 1853.6,1786.1 1872.2,1799.2 1890.3,1812.6 1908.0,1826.4  Z" style="stroke-width: 0.5;  stroke: rgb(0,0,0); fill: rgb(179,177,178);" />
</g>
<g id="plot0">
<g id="plot0-axis">
</g>
<line x1='2243.5' y1='1598.6' x2='2243.5' y2='1598.6' style="stroke-width:14.0;stroke:rgb(0,0,0);stroke-linecap:round;fill:none;" />
<line x1='2243.5' y1='1598.6' x2='2283.1' y2='1603.9' style="stroke-width:14.0;stroke:rgb(0,0,0);stroke-linecap:round;fill:none;" />
<line x1='2283.1' y1='1603.9' x2='2283.1' y2='1603.9' style="stroke-width:14.0;stroke:rgb(0,0,0);stroke-linecap:round;fill:none;" />
<text x="2299.8" y="1628.3" font-size="46.8px" font-family="CMUBright-Roman" style="text-anchor:start;fill:rgb(255,38,78);" transform="rotate(7.6,2299.8,1628.3)" >Histocap144p08<tspan baseline-shift="-40%" font-size="90%">s</tspan>01861</text>
</g>
<defs>
<pattern id="hline-sparse" width="10" height="10" patternTransform="rotate(0 0 0)" patternUnits="userSpaceOnUse"><line x1="0" y1="0" x2="10" y2="0" style="stroke:black;stroke-width:2" /></pattern>
<pattern id="vline" width="10" height="10" patternTransform="rotate(0 0 0)" patternUnits="userSpaceOnUse"><line x1="0" y1="0" x2="0" y2="10" style="stroke:black;stroke-width:5" /></pattern>
<pattern id="vline-sparse" width="10" height="10" patternTransform="rotate(0 0 0)" patternUnits="userSpaceOnUse"><line x1="0" y1="0" x2="0" y2="10" style="stroke:black;stroke-width:2" /></pattern>
<pattern id="hline" width="10" height="10" patternTransform="rotate(0 0 0)" patternUnits="userSpaceOnUse"><line x1="0" y1="0" x2="10" y2="0" style="stroke:black;stroke-width:5" /></pattern>
<pattern id="checker" width="10" height="10" patternTransform="rotate(45 0 0)" patternUnits="userSpaceOnUse"><line x1="0" y1="0" x2="10" y2="0" style="stroke:black;stroke-width:5" /><line x1="0" y1="0" x2="0" y2="10" style="stroke:black;stroke-width:4" /></pattern>
<pattern id="checker" width="10" height="10" patternTransform="rotate(45 0 0)" patternUnits="userSpaceOnUse"><line x1="0" y1="0" x2="10" y2="0" style="stroke:black;stroke-width:2" /><line x1="0" y1="0" x2="0" y2="10" style="stroke:black;stroke-width:2" /></pattern>
</defs>
</svg>
