<?xml version="1.0" encoding="utf-8" standalone="no"?>
<!DOCTYPE svg PUBLIC "-//W3C//DTD SVG 1.1//EN" "http://www.w3.org/Graphics/SVG/1.1/DTD/svg11.dtd">
<svg width="3000px" height="3000px" version="1.1" xmlns="http://www.w3.org/2000/svg" xmlns:xlink="http://www.w3.org/1999/xlink">
<g id="bg">
<rect x="0" y="0" width="3000px" height="3000px" style="fill:rgb(255,255,255);"/>
</g>
<g id="ideograms">
<path d="M1500.000,950.000 A550.000,550.000 40.000 0,1 1710.658,2008.058 L1787.260,2192.807 A750.000,750.000 0.000 0,0 1500.000,750.000 Z" style="stroke-width:2.0;stroke:rgb(0,0,0);stroke-linecap:round;fill:rgb(179,177,178);" />
<text x="2456.2" y="1309.6" font-size="46.8px" font-family="CMUBright-Roman" style="text-anchor:middle;fill:rgb(0,0,0);" transform="rotate(438.7,2456.2,1309.6)" >HistocapCB192<tspan baseline-shift="-40%" font-size="90%">1</tspan></text>
<line x1='1583.8' y1='754.7' x2='1585.1' y2='742.8' style="stroke-width:8.0;stroke:rgb(150,150,150);stroke-linecap:round;fill:none;" />
<line x1='1683.3' y1='772.7' x2='1686.2' y2='761.1' style="stroke-width:8.0;stroke:rgb(150,150,150);stroke-linecap:round;fill:none;" />
<text x="1702.7" y="753.0" font-size="41.6px" font-family="CMUBright-Roman" style="text-anchor:start;fill:rgb(150,150,150);" transform="rotate(284.1,1702.7,753.0)" >1950 kb</text>
<line x1='1779.5' y1='804.0' x2='1784.0' y2='792.9' style="stroke-width:8.0;stroke:rgb(150,150,150);stroke-linecap:round;fill:none;" />
<line x1='1870.6' y1='848.0' x2='1876.5' y2='837.5' style="stroke-width:8.0;stroke:rgb(150,150,150);stroke-linecap:round;fill:none;" />
<line x1='1955.0' y1='903.7' x2='1962.2' y2='894.2' style="stroke-width:8.0;stroke:rgb(150,150,150);stroke-linecap:round;fill:none;" />
<line x1='2031.0' y1='970.4' x2='2039.5' y2='961.9' style="stroke-width:8.0;stroke:rgb(150,150,150);stroke-linecap:round;fill:none;" />
<line x1='2097.5' y1='1046.7' x2='2107.0' y2='1039.4' style="stroke-width:8.0;stroke:rgb(150,150,150);stroke-linecap:round;fill:none;" />
<text x="2125.0" y="1043.4" font-size="41.6px" font-family="CMUBright-Roman" style="text-anchor:start;fill:rgb(150,150,150);" transform="rotate(322.8,2125.0,1043.4)" >2000 kb</text>
<line x1='2153.0' y1='1131.2' x2='2163.5' y2='1125.3' style="stroke-width:8.0;stroke:rgb(150,150,150);stroke-linecap:round;fill:none;" />
<line x1='2196.7' y1='1222.4' x2='2207.9' y2='1218.0' style="stroke-width:8.0;stroke:rgb(150,150,150);stroke-linecap:round;fill:none;" />
<line x1='2227.7' y1='1318.7' x2='2239.4' y2='1315.8' style="stroke-width:8.0;stroke:rgb(150,150,150);stroke-linecap:round;fill:none;" />
<line x1='2245.5' y1='1418.2' x2='2257.5' y2='1416.9' style="stroke-width:8.0;stroke:rgb(150,150,150);stroke-linecap:round;fill:none;" />
<line x1='2249.8' y1='1519.3' x2='2261.7' y2='1519.6' style="stroke-width:8.0;stroke:rgb(150,150,150);stroke-linecap:round;fill:none;" />
<text x="2273.3" y="1533.9" font-size="41.6px" font-family="CMUBright-Roman" style="text-anchor:start;fill:rgb(150,150,150);" transform="rotate(1.5,2273.3,1533.9)" >2050 kb</text>
<line x1='2240.3' y1='1620.0' x2='2252.2' y2='1621.9' style="stroke-width:8.0;stroke:rgb(150,150,150);stroke-linecap:round;fill:none;" />
<line x1='2217.5' y1='1718.5' x2='2228.9' y2='1722.0' style="stroke-width:8.0;stroke:rgb(150,150,150);stroke-linecap:round;fill:none;" />
<line x1='2181.5' y1='1813.1' x2='2192.4' y2='1818.1' style="stroke-width:8.0;stroke:rgb(150,150,150);stroke-linecap:round;fill:none;" />
<line x1='2133.2' y1='1901.9' x2='2143.3' y2='1908.4' style="stroke-width:8.0;stroke:rgb(150,150,150);stroke-linecap:round;fill:none;" />
<line x1='2073.4' y1='1983.5' x2='2082.5' y2='1991.2' style="stroke-width:8.0;stroke:rgb(150,150,150);stroke-linecap:round;fill:none;" />
<text x="2082.6" y="2009.6" font-size="41.6px" font-family="CMUBright-Roman" style="text-anchor:start;fill:rgb(150,150,150);" transform="rotate(40.1,2082.6,2009.6)" >2100 kb</text>
<line x1='2003.1' y1='2056.2' x2='2011.1' y2='2065.1' style="stroke-width:8.0;stroke:rgb(150,150,150);stroke-linecap:round;fill:none;" />
<line x1='1923.7' y1='2118.9' x2='1930.5' y2='2128.8' style="stroke-width:8.0;stroke:rgb(150,150,150);stroke-linecap:round;fill:none;" />
<line x1='1836.5' y1='2170.3' x2='1841.9' y2='2181.0' style="stroke-width:8.0;stroke:rgb(150,150,150);stroke-linecap:round;fill:none;" />
<g id="highlighttrack_0">
<path d="M2036.605,1379.355 A550.000,550.000 40.000 0,1 2041.893,1405.918 L2238.946,1371.706 A750.000,750.000 0.000 0,0 2231.734,1335.484 Z" style="stroke-width:14.0;stroke:rgb(0,0,0);stroke-linecap:round;fill:rgb(255,38,78);" />
</g>
<path d="M1500.000,950.000 A550.000,550.000 40.000 0,1 1710.658,2008.058 L1787.260,2192.807 A750.000,750.000 0.000 0,0 1500.000,750.000 Z" style="stroke-width:2.0;stroke:rgb(0,0,0);stroke-linecap:round;fill:none;" />
<path d="M1493.490,2049.961 A550.000,550.000 40.000 0,1 1283.344,994.471 L1204.560,810.642 A750.000,750.000 0.000 0,0 1491.123,2249.947 Z" style="stroke-width:2.0;stroke:rgb(0,0,0);stroke-linecap:round;fill:rgb(179,177,178);" />
<text x="500.6" y="1699.0" font-size="46.8px" font-family="CMUBright-Roman" style="text-anchor:middle;fill:rgb(0,0,0);" transform="rotate(78.7,500.6,1699.0)" >HistocapES286Z<tspan baseline-shift="-40%" font-size="90%">1</tspan></text>
<line x1='1147.8' y1='837.8' x2='1142.2' y2='827.2' style="stroke-width:8.0;stroke:rgb(150,150,150);stroke-linecap:round;fill:none;" />
<line x1='1061.9' y1='891.2' x2='1054.9' y2='881.5' style="stroke-width:8.0;stroke:rgb(150,150,150);stroke-linecap:round;fill:none;" />
<line x1='984.0' y1='955.7' x2='975.7' y2='947.0' style="stroke-width:8.0;stroke:rgb(150,150,150);stroke-linecap:round;fill:none;" />
<text x="957.4" y="948.0" font-size="41.6px" font-family="CMUBright-Roman" style="text-anchor:end;fill:rgb(150,150,150);" transform="rotate(46.5,957.4,948.0)" >2250 kb</text>
<line x1='915.4' y1='1030.1' x2='906.1' y2='1022.6' style="stroke-width:8.0;stroke:rgb(150,150,150);stroke-linecap:round;fill:none;" />
<line x1='857.5' y1='1113.0' x2='847.3' y2='1106.8' style="stroke-width:8.0;stroke:rgb(150,150,150);stroke-linecap:round;fill:none;" />
<line x1='811.3' y1='1203.0' x2='800.3' y2='1198.3' style="stroke-width:8.0;stroke:rgb(150,150,150);stroke-linecap:round;fill:none;" />
<line x1='777.6' y1='1298.4' x2='766.1' y2='1295.1' style="stroke-width:8.0;stroke:rgb(150,150,150);stroke-linecap:round;fill:none;" />
<line x1='757.0' y1='1397.4' x2='745.2' y2='1395.8' style="stroke-width:8.0;stroke:rgb(150,150,150);stroke-linecap:round;fill:none;" />
<text x="731.5" y="1408.0" font-size="41.6px" font-family="CMUBright-Roman" style="text-anchor:end;fill:rgb(150,150,150);" transform="rotate(7.9,731.5,1408.0)" >2300 kb</text>
<line x1='750.0' y1='1498.3' x2='738.0' y2='1498.3' style="stroke-width:8.0;stroke:rgb(150,150,150);stroke-linecap:round;fill:none;" />
<line x1='756.6' y1='1599.2' x2='744.7' y2='1600.8' style="stroke-width:8.0;stroke:rgb(150,150,150);stroke-linecap:round;fill:none;" />
<line x1='776.7' y1='1698.4' x2='765.1' y2='1701.5' style="stroke-width:8.0;stroke:rgb(150,150,150);stroke-linecap:round;fill:none;" />
<line x1='810.0' y1='1793.9' x2='798.9' y2='1798.6' style="stroke-width:8.0;stroke:rgb(150,150,150);stroke-linecap:round;fill:none;" />
<line x1='855.8' y1='1884.1' x2='845.5' y2='1890.2' style="stroke-width:8.0;stroke:rgb(150,150,150);stroke-linecap:round;fill:none;" />
<text x="842.5" y="1908.3" font-size="41.6px" font-family="CMUBright-Roman" style="text-anchor:end;fill:rgb(150,150,150);" transform="rotate(-30.8,842.5,1908.3)" >2350 kb</text>
<line x1='913.3' y1='1967.2' x2='903.9' y2='1974.7' style="stroke-width:8.0;stroke:rgb(150,150,150);stroke-linecap:round;fill:none;" />
<line x1='981.5' y1='2041.9' x2='973.2' y2='2050.6' style="stroke-width:8.0;stroke:rgb(150,150,150);stroke-linecap:round;fill:none;" />
<line x1='1059.2' y1='2106.8' x2='1052.1' y2='2116.5' style="stroke-width:8.0;stroke:rgb(150,150,150);stroke-linecap:round;fill:none;" />
<line x1='1144.8' y1='2160.6' x2='1139.1' y2='2171.1' style="stroke-width:8.0;stroke:rgb(150,150,150);stroke-linecap:round;fill:none;" />
<line x1='1236.9' y1='2202.4' x2='1232.7' y2='2213.6' style="stroke-width:8.0;stroke:rgb(150,150,150);stroke-linecap:round;fill:none;" />
<text x="1241.7" y="2229.6" font-size="41.6px" font-family="CMUBright-Roman" style="text-anchor:end;fill:rgb(150,150,150);" transform="rotate(-69.5,1241.7,2229.6)" >2400 kb</text>
<line x1='1333.8' y1='2231.4' x2='1331.2' y2='2243.1' style="stroke-width:8.0;stroke:rgb(150,150,150);stroke-linecap:round;fill:none;" />
<line x1='1433.8' y1='2247.1' x2='1432.7' y2='2259.0' style="stroke-width:8.0;stroke:rgb(150,150,150);stroke-linecap:round;fill:none;" />
<path d="M1493.490,2049.961 A550.000,550.000 40.000 0,1 1283.344,994.471 L1204.560,810.642 A750.000,750.000 0.000 0,0 1491.123,2249.947 Z" style="stroke-width:2.0;stroke:rgb(0,0,0);stroke-linecap:round;fill:none;" />
</g>
<g id="track_0">
<path d="M 1922.717,1192.890 A 522.500,522.500 0.00 0,1 1965.9,1263.4 L 1965.9,1263.4 1943.4,1274.6 1920.6,1285.7 1897.6,1296.7 1874.3,1307.4 1850.7,1317.8 1826.9,1328.1 1802.9,1338.0 1778.6,1347.7 1754.1,1357.1 1729.4,1366.2 1704.5,1375.0 1679.4,1383.4 1654.1,1391.5 1628.7,1399.2 1603.1,1406.6 1577.4,1413.5 1551.6,1420.1 1525.6,1426.4 1499.6,1432.2 1473.4,1437.6 1447.2,1442.6 1420.9,1447.3 1394.6,1451.5 1368.2,1455.3 1341.8,1458.8 1315.4,1461.8 1289.0,1464.5 1262.6,1466.7 1236.3,1468.6 1210.0,1470.1 1183.8,1471.2 1157.7,1472.0 1131.7,1472.5 1105.7,1472.6 1080.0,1472.3 1054.3,1471.8 1028.8,1470.9 1003.6,1469.8 978.5,1468.4  A 522.500,522.500 0.00 0,1 989.8,1387.1 L 989.8,1387.1 1013.5,1392.1 1037.4,1396.8 1061.6,1401.1 1086.1,1404.9 1110.8,1408.4 1135.6,1411.3 1160.7,1413.8 1185.9,1415.7 1211.2,1417.1 1236.6,1418.0 1262.0,1418.2 1287.6,1417.9 1313.1,1417.0 1338.7,1415.5 1364.2,1413.4 1389.7,1410.7 1415.2,1407.3 1440.5,1403.3 1465.8,1398.7 1490.9,1393.5 1516.0,1387.6 1540.8,1381.2 1565.5,1374.1 1590.0,1366.4 1614.2,1358.2 1638.3,1349.3 1662.0,1340.0 1685.6,1330.1 1708.8,1319.6 1731.8,1308.7 1754.4,1297.3 1776.7,1285.5 1798.7,1273.3 1820.3,1260.6 1841.6,1247.7 1862.5,1234.4 1883.0,1220.8 1903.1,1206.9 1922.7,1192.9  Z" style="stroke-width: 0.5;  stroke: rgb(0,0,0); fill: rgb(179,177,178);" />
<path d="M 1972.790,1277.569 A 522.500,522.500 0.00 0,1 1994.4,1331.1 L 1994.4,1331.1 1969.8,1339.4 1945.0,1347.7 1920.1,1355.8 1895.0,1363.9 1869.9,1371.8 1844.6,1379.6 1819.1,1387.3 1793.6,1394.8 1768.0,1402.2 1742.2,1409.4 1716.4,1416.5 1690.5,1423.4 1664.4,1430.1 1638.4,1436.7 1612.2,1443.1 1586.0,1449.3 1559.7,1455.3 1533.3,1461.2 1506.9,1466.9 1480.5,1472.3 1454.0,1477.6 1427.5,1482.7 1401.0,1487.7 1374.4,1492.4 1347.9,1496.9 1321.3,1501.2 1294.8,1505.4 1268.2,1509.4 1241.7,1513.1 1215.2,1516.7 1188.8,1520.1 1162.3,1523.4 1136.0,1526.5 1109.7,1529.4 1083.4,1532.1 1057.2,1534.7 1031.1,1537.1 1005.1,1539.4 979.2,1541.5  A 522.500,522.500 0.00 0,1 977.8,1483.3 L 977.8,1483.3 1003.1,1484.0 1028.6,1484.4 1054.2,1484.6 1080.0,1484.5 1105.9,1484.2 1132.0,1483.5 1158.1,1482.6 1184.4,1481.3 1210.7,1479.7 1237.0,1477.8 1263.5,1475.5 1289.9,1472.9 1316.4,1470.0 1342.9,1466.7 1369.3,1463.0 1395.8,1459.0 1422.2,1454.7 1448.6,1449.9 1474.9,1444.9 1501.2,1439.4 1527.4,1433.7 1553.4,1427.5 1579.4,1421.1 1605.3,1414.2 1631.0,1407.1 1656.7,1399.6 1682.1,1391.8 1707.4,1383.7 1732.6,1375.3 1757.6,1366.6 1782.3,1357.7 1806.9,1348.4 1831.3,1338.9 1855.5,1329.2 1879.4,1319.3 1903.1,1309.1 1926.6,1298.8 1949.8,1288.2 1972.8,1277.6  Z" style="stroke-width: 0.5;  stroke: rgb(0,0,0); fill: rgb(179,177,178);" />
<path d="M 1704.851,1980.669 A 522.500,522.500 0.00 0,1 1700.1,1982.7 L 1700.1,1982.7 1692.3,1964.0 1684.2,1945.6 1676.1,1927.4 1667.8,1909.8 1659.5,1892.8 1651.1,1876.4 1642.7,1860.9 1634.4,1846.3 1626.1,1832.7 1617.9,1820.1 1609.7,1808.7 1601.7,1798.6 1593.9,1789.7 1586.2,1782.2 1578.7,1776.0 1571.4,1771.3 1564.3,1768.0 1557.4,1766.1 1550.8,1765.8 1544.5,1766.9 1538.4,1769.5 1532.6,1773.6 1527.1,1779.2 1521.9,1786.2 1517.0,1794.5 1512.4,1804.3 1508.2,1815.3 1504.2,1827.6 1500.5,1841.1 1497.1,1855.7 1494.1,1871.4 1491.3,1888.0 1488.8,1905.5 1486.7,1923.7 1484.8,1942.6 1483.1,1962.0 1481.8,1981.8 1480.6,2001.9 1479.7,2022.1  A 522.500,522.500 0.00 0,1 1430.8,2017.9 L 1430.8,2017.9 1433.6,1997.8 1436.7,1977.8 1440.1,1958.1 1443.7,1938.8 1447.7,1920.0 1451.9,1901.9 1456.4,1884.6 1461.2,1868.1 1466.3,1852.6 1471.7,1838.1 1477.3,1824.7 1483.3,1812.6 1489.5,1801.6 1495.9,1792.0 1502.7,1783.7 1509.6,1776.9 1516.8,1771.4 1524.3,1767.4 1532.0,1764.8 1539.8,1763.8 1547.9,1764.2 1556.1,1766.1 1564.6,1769.4 1573.1,1774.2 1581.8,1780.4 1590.6,1787.9 1599.5,1796.8 1608.5,1806.9 1617.5,1818.3 1626.5,1830.8 1635.6,1844.4 1644.6,1859.0 1653.6,1874.5 1662.5,1890.9 1671.3,1907.9 1679.9,1925.5 1688.4,1943.6 1696.8,1962.0 1704.9,1980.7  Z" style="stroke-width: 0.5;  stroke: rgb(0,0,0); fill: rgb(179,177,178);" />
<path d="M 1538.504,978.921 A 522.500,522.500 0.00 0,1 1584.6,984.4 L 1584.6,984.4 1581.1,1004.8 1577.2,1025.0 1572.8,1045.0 1568.1,1064.6 1562.9,1083.8 1557.2,1102.4 1551.1,1120.2 1544.6,1137.3 1537.7,1153.6 1530.2,1168.8 1522.4,1183.1 1514.1,1196.3 1505.3,1208.3 1496.1,1219.1 1486.5,1228.7 1476.5,1237.0 1466.1,1244.0 1455.3,1249.6 1444.1,1253.9 1432.6,1256.8 1420.7,1258.3 1408.5,1258.5 1396.1,1257.2 1383.3,1254.7 1370.3,1250.8 1357.1,1245.6 1343.7,1239.2 1330.2,1231.5 1316.5,1222.7 1302.7,1212.7 1288.9,1201.7 1275.0,1189.8 1261.2,1176.9 1247.5,1163.2 1233.8,1148.8 1220.3,1133.8 1207.0,1118.3 1194.0,1102.3 1181.2,1086.0  A 522.500,522.500 0.00 0,1 1219.2,1059.4 L 1219.2,1059.4 1230.3,1076.5 1241.7,1093.4 1253.2,1109.9 1264.9,1125.9 1276.7,1141.3 1288.5,1156.0 1300.4,1169.9 1312.2,1182.8 1324.0,1194.8 1335.7,1205.7 1347.2,1215.5 1358.6,1224.1 1369.8,1231.4 1380.7,1237.4 1391.4,1242.1 1401.9,1245.5 1412.1,1247.4 1421.9,1247.9 1431.4,1247.1 1440.6,1244.7 1449.4,1241.0 1457.8,1235.9 1465.8,1229.4 1473.4,1221.5 1480.6,1212.3 1487.4,1201.7 1493.8,1190.0 1499.8,1177.0 1505.3,1163.0 1510.4,1147.8 1515.1,1131.7 1519.4,1114.7 1523.2,1096.9 1526.7,1078.3 1529.8,1059.2 1532.5,1039.6 1534.8,1019.5 1536.8,999.3 1538.5,978.9  Z" style="stroke-width: 0.5;  stroke: rgb(0,0,0); fill: rgb(179,177,178);" />
<path d="M 1782.709,1939.411 A 522.500,522.500 0.00 0,1 1742.9,1962.6 L 1742.9,1962.6 1733.2,1944.5 1723.2,1926.7 1713.0,1909.2 1702.5,1892.2 1691.9,1875.8 1681.1,1860.1 1670.1,1845.3 1659.1,1831.3 1648.0,1818.3 1636.9,1806.3 1625.7,1795.5 1614.6,1785.9 1603.5,1777.6 1592.4,1770.5 1581.4,1764.8 1570.6,1760.4 1559.8,1757.5 1549.2,1756.0 1538.8,1755.9 1528.5,1757.2 1518.5,1760.0 1508.6,1764.2 1499.0,1769.8 1489.6,1776.8 1480.5,1785.2 1471.6,1794.9 1463.1,1805.8 1454.8,1818.0 1446.8,1831.3 1439.1,1845.7 1431.7,1861.1 1424.7,1877.5 1418.0,1894.7 1411.6,1912.6 1405.5,1931.2 1399.8,1950.3 1394.4,1969.8 1389.4,1989.6 1384.7,2009.6  A 522.500,522.500 0.00 0,1 1340.3,1997.5 L 1340.3,1997.5 1346.8,1977.8 1353.8,1958.3 1361.1,1939.0 1368.9,1920.2 1377.0,1901.9 1385.5,1884.2 1394.4,1867.3 1403.6,1851.1 1413.2,1835.9 1423.2,1821.7 1433.4,1808.5 1444.0,1796.4 1454.9,1785.5 1466.1,1775.8 1477.6,1767.4 1489.4,1760.3 1501.4,1754.5 1513.6,1750.1 1526.0,1747.1 1538.6,1745.4 1551.4,1745.1 1564.4,1746.2 1577.5,1748.7 1590.6,1752.6 1603.9,1757.7 1617.2,1764.2 1630.6,1771.9 1643.9,1780.8 1657.3,1790.9 1670.6,1802.1 1683.8,1814.3 1696.9,1827.5 1709.8,1841.6 1722.6,1856.5 1735.2,1872.1 1747.5,1888.3 1759.6,1905.0 1771.3,1922.1 1782.7,1939.4  Z" style="stroke-width: 0.5;  stroke: rgb(0,0,0); fill: rgb(179,177,178);" />
<path d="M 1869.747,1130.821 A 522.500,522.500 0.00 0,1 1900.8,1164.8 L 1900.8,1164.8 1882.5,1179.8 1863.7,1194.6 1844.5,1209.1 1824.8,1223.4 1804.7,1237.2 1784.2,1250.7 1763.4,1263.7 1742.1,1276.2 1720.5,1288.2 1698.5,1299.6 1676.2,1310.5 1653.5,1320.8 1630.6,1330.4 1607.5,1339.4 1584.0,1347.8 1560.3,1355.4 1536.4,1362.3 1512.3,1368.6 1488.1,1374.1 1463.6,1378.8 1439.1,1382.9 1414.4,1386.2 1389.7,1388.7 1364.9,1390.6 1340.0,1391.7 1315.1,1392.1 1290.3,1391.8 1265.5,1390.8 1240.7,1389.1 1216.0,1386.7 1191.5,1383.8 1167.1,1380.2 1142.8,1376.0 1118.8,1371.2 1094.9,1366.0 1071.4,1360.2 1048.1,1354.0 1025.1,1347.3 1002.5,1340.3  A 522.500,522.500 0.00 0,1 1018.6,1296.9 L 1018.6,1296.9 1040.0,1305.7 1061.9,1314.1 1084.0,1322.0 1106.5,1329.5 1129.3,1336.4 1152.3,1342.7 1175.6,1348.4 1199.0,1353.4 1222.6,1357.8 1246.3,1361.4 1270.1,1364.3 1293.9,1366.4 1317.8,1367.7 1341.7,1368.2 1365.5,1367.8 1389.3,1366.7 1413.1,1364.6 1436.7,1361.8 1460.2,1358.1 1483.5,1353.5 1506.7,1348.1 1529.7,1341.9 1552.4,1334.8 1574.9,1327.0 1597.1,1318.3 1619.1,1308.9 1640.7,1298.7 1662.0,1287.8 1683.0,1276.2 1703.6,1263.9 1723.8,1251.0 1743.6,1237.5 1763.0,1223.5 1782.0,1209.0 1800.5,1194.1 1818.5,1178.7 1836.1,1163.0 1853.2,1147.0 1869.7,1130.8  Z" style="stroke-width: 0.5;  stroke: rgb(0,0,0); fill: rgb(179,177,178);" />
<path d="M 2014.799,1410.622 A 522.500,522.500 0.00 0,1 2020.7,1456.3 L 2020.7,1456.3 1994.6,1458.5 1968.5,1460.9 1942.3,1463.4 1916.1,1466.0 1889.7,1468.7 1863.4,1471.6 1836.9,1474.7 1810.5,1477.9 1784.0,1481.2 1757.4,1484.7 1730.9,1488.4 1704.3,1492.2 1677.7,1496.2 1651.1,1500.3 1624.5,1504.6 1597.9,1509.1 1571.4,1513.7 1544.8,1518.5 1518.3,1523.5 1491.8,1528.6 1465.3,1533.8 1438.9,1539.3 1412.5,1544.9 1386.1,1550.6 1359.8,1556.5 1333.6,1562.6 1307.5,1568.8 1281.4,1575.1 1255.4,1581.6 1229.4,1588.2 1203.6,1595.0 1177.8,1601.9 1152.2,1608.9 1126.6,1616.0 1101.1,1623.2 1075.8,1630.5 1050.5,1638.0 1025.4,1645.5 1000.4,1653.1  A 522.500,522.500 0.00 0,1 988.9,1608.6 L 988.9,1608.6 1015.0,1603.0 1041.1,1597.5 1067.3,1592.0 1093.4,1586.5 1119.6,1581.1 1145.8,1575.6 1172.0,1570.2 1198.3,1564.8 1224.5,1559.4 1250.8,1554.1 1277.1,1548.7 1303.3,1543.4 1329.6,1538.2 1356.0,1532.9 1382.3,1527.7 1408.6,1522.5 1435.0,1517.3 1461.3,1512.2 1487.7,1507.1 1514.1,1502.0 1540.4,1496.9 1566.8,1491.9 1593.2,1486.9 1619.6,1481.9 1645.9,1477.0 1672.3,1472.0 1698.7,1467.2 1725.1,1462.3 1751.5,1457.5 1777.8,1452.7 1804.2,1447.9 1830.6,1443.1 1856.9,1438.4 1883.2,1433.7 1909.6,1429.1 1935.9,1424.4 1962.2,1419.8 1988.5,1415.2 2014.8,1410.6  Z" style="stroke-width: 0.5;  stroke: rgb(0,0,0); fill: rgb(179,177,178);" />
<path d="M 1772.464,1054.164 A 522.500,522.500 0.00 0,1 1809.8,1079.2 L 1809.8,1079.2 1796.2,1097.1 1782.2,1114.8 1767.6,1132.3 1752.5,1149.3 1736.9,1166.0 1720.8,1182.1 1704.3,1197.7 1687.2,1212.6 1669.7,1226.9 1651.8,1240.5 1633.5,1253.3 1614.7,1265.2 1595.6,1276.4 1576.2,1286.6 1556.3,1295.9 1536.2,1304.3 1515.8,1311.7 1495.1,1318.2 1474.1,1323.6 1453.0,1328.0 1431.6,1331.5 1410.0,1333.9 1388.4,1335.3 1366.6,1335.7 1344.7,1335.1 1322.7,1333.5 1300.7,1331.0 1278.8,1327.5 1256.8,1323.2 1235.0,1317.9 1213.2,1311.8 1191.6,1305.0 1170.2,1297.3 1149.0,1289.0 1128.0,1280.0 1107.4,1270.5 1087.0,1260.3 1067.0,1249.8 1047.5,1238.8  A 522.500,522.500 0.00 0,1 1071.3,1201.4 L 1071.3,1201.4 1089.5,1213.7 1108.1,1225.7 1127.1,1237.2 1146.4,1248.1 1166.0,1258.5 1185.9,1268.1 1206.0,1277.1 1226.2,1285.2 1246.6,1292.5 1267.1,1298.8 1287.6,1304.3 1308.1,1308.7 1328.7,1312.2 1349.2,1314.6 1369.6,1316.0 1389.9,1316.2 1410.1,1315.4 1430.1,1313.5 1450.0,1310.5 1469.6,1306.4 1489.0,1301.2 1508.1,1294.9 1526.9,1287.5 1545.4,1279.1 1563.5,1269.6 1581.3,1259.1 1598.7,1247.7 1615.8,1235.4 1632.4,1222.1 1648.6,1208.1 1664.3,1193.2 1679.6,1177.7 1694.4,1161.4 1708.7,1144.6 1722.5,1127.2 1735.8,1109.4 1748.5,1091.3 1760.8,1072.8 1772.5,1054.2  Z" style="stroke-width: 0.5;  stroke: rgb(0,0,0); fill: rgb(179,177,178);" />
<path d="M 1831.351,1096.004 A 522.500,522.500 0.00 0,1 1864.6,1125.7 L 1864.6,1125.7 1848.3,1142.1 1831.5,1158.2 1814.2,1174.1 1796.4,1189.6 1778.1,1204.7 1759.4,1219.4 1740.3,1233.6 1720.7,1247.2 1700.7,1260.2 1680.4,1272.6 1659.6,1284.3 1638.6,1295.3 1617.1,1305.6 1595.4,1315.1 1573.4,1323.8 1551.1,1331.7 1528.5,1338.8 1505.8,1345.0 1482.8,1350.4 1459.6,1354.9 1436.3,1358.6 1412.9,1361.4 1389.3,1363.3 1365.7,1364.4 1342.0,1364.6 1318.3,1363.9 1294.6,1362.5 1270.9,1360.2 1247.3,1357.2 1223.8,1353.4 1200.4,1348.8 1177.1,1343.6 1154.0,1337.7 1131.2,1331.1 1108.6,1324.0 1086.3,1316.3 1064.3,1308.1 1042.6,1299.5 1021.4,1290.4  A 522.500,522.500 0.00 0,1 1041.0,1250.4 L 1041.0,1250.4 1061.0,1261.0 1081.4,1271.2 1102.2,1280.9 1123.3,1290.1 1144.7,1298.7 1166.4,1306.7 1188.3,1314.0 1210.4,1320.6 1232.7,1326.4 1255.0,1331.4 1277.5,1335.5 1300.0,1338.8 1322.5,1341.2 1345.1,1342.7 1367.6,1343.2 1390.0,1342.8 1412.3,1341.5 1434.5,1339.1 1456.6,1335.8 1478.4,1331.5 1500.1,1326.3 1521.6,1320.1 1542.8,1313.0 1563.7,1304.9 1584.3,1296.0 1604.7,1286.1 1624.6,1275.4 1644.2,1263.9 1663.5,1251.6 1682.3,1238.5 1700.8,1224.8 1718.8,1210.4 1736.3,1195.4 1753.4,1179.8 1770.0,1163.8 1786.1,1147.3 1801.7,1130.5 1816.8,1113.3 1831.4,1096.0  Z" style="stroke-width: 0.5;  stroke: rgb(0,0,0); fill: rgb(179,177,178);" />
<path d="M 2020.498,1545.701 A 522.500,522.500 0.00 0,1 2015.8,1583.4 L 2015.8,1583.4 1991.5,1579.7 1966.9,1576.2 1942.1,1573.1 1917.0,1570.4 1891.8,1568.0 1866.4,1566.1 1840.8,1564.5 1815.1,1563.4 1789.3,1562.8 1763.4,1562.6 1737.4,1562.9 1711.4,1563.7 1685.4,1565.0 1659.3,1566.8 1633.2,1569.1 1607.2,1572.0 1581.2,1575.3 1555.2,1579.2 1529.3,1583.6 1503.5,1588.5 1477.9,1594.0 1452.3,1599.9 1426.9,1606.4 1401.6,1613.4 1376.5,1620.8 1351.6,1628.7 1326.9,1637.1 1302.4,1646.0 1278.2,1655.2 1254.2,1664.9 1230.4,1675.0 1206.9,1685.5 1183.7,1696.4 1160.8,1707.5 1138.2,1719.0 1116.0,1730.8 1094.0,1742.8 1072.4,1755.1 1051.2,1767.6  A 522.500,522.500 0.00 0,1 1032.8,1734.0 L 1032.8,1734.0 1055.3,1722.9 1078.1,1711.9 1101.1,1701.2 1124.4,1690.7 1148.0,1680.4 1171.9,1670.4 1196.0,1660.7 1220.3,1651.2 1244.8,1642.1 1269.6,1633.3 1294.5,1624.8 1319.7,1616.7 1345.0,1608.9 1370.5,1601.5 1396.1,1594.5 1421.9,1587.9 1447.8,1581.7 1473.8,1575.9 1499.9,1570.5 1526.1,1565.5 1552.3,1560.9 1578.6,1556.7 1605.0,1553.0 1631.4,1549.7 1657.8,1546.8 1684.2,1544.3 1710.6,1542.2 1737.0,1540.5 1763.3,1539.2 1789.5,1538.3 1815.7,1537.7 1841.8,1537.6 1867.8,1537.8 1893.7,1538.3 1919.4,1539.2 1944.9,1540.4 1970.3,1541.9 1995.5,1543.6 2020.5,1545.7  Z" style="stroke-width: 0.5;  stroke: rgb(0,0,0); fill: rgb(179,177,178);" />
<path d="M 1881.567,1856.949 A 522.500,522.500 0.00 0,1 1855.3,1883.1 L 1855.3,1883.1 1840.5,1867.6 1825.4,1852.4 1809.8,1837.6 1794.0,1823.4 1777.8,1809.7 1761.3,1796.8 1744.6,1784.6 1727.6,1773.2 1710.5,1762.8 1693.3,1753.3 1676.0,1744.8 1658.6,1737.4 1641.1,1731.2 1623.6,1726.0 1606.2,1722.1 1588.8,1719.3 1571.4,1717.8 1554.2,1717.5 1537.1,1718.5 1520.1,1720.7 1503.3,1724.1 1486.7,1728.8 1470.3,1734.7 1454.2,1741.8 1438.3,1750.1 1422.7,1759.6 1407.5,1770.1 1392.5,1781.7 1377.9,1794.3 1363.7,1807.9 1349.9,1822.4 1336.4,1837.7 1323.4,1853.8 1310.7,1870.5 1298.6,1887.8 1286.9,1905.7 1275.6,1923.9 1264.9,1942.5 1254.6,1961.3  A 522.500,522.500 0.00 0,1 1222.5,1942.7 L 1222.5,1942.7 1234.3,1924.5 1246.5,1906.4 1259.3,1888.7 1272.5,1871.4 1286.2,1854.6 1300.4,1838.4 1315.0,1822.8 1330.0,1808.0 1345.4,1793.9 1361.3,1780.7 1377.4,1768.4 1394.0,1757.1 1410.8,1746.8 1428.0,1737.6 1445.5,1729.4 1463.2,1722.3 1481.1,1716.4 1499.3,1711.7 1517.7,1708.1 1536.2,1705.6 1554.9,1704.4 1573.6,1704.4 1592.5,1705.5 1611.4,1707.8 1630.4,1711.2 1649.4,1715.8 1668.3,1721.4 1687.2,1728.1 1706.0,1735.9 1724.6,1744.6 1743.1,1754.2 1761.5,1764.7 1779.6,1776.0 1797.4,1788.1 1815.0,1800.8 1832.2,1814.2 1849.1,1828.0 1865.5,1842.3 1881.6,1856.9  Z" style="stroke-width: 0.5;  stroke: rgb(0,0,0); fill: rgb(179,177,178);" />
<path d="M 2001.442,1353.161 A 522.500,522.500 0.00 0,1 2010.2,1387.4 L 2010.2,1387.4 1984.2,1393.2 1958.1,1398.9 1932.0,1404.6 1905.8,1410.3 1879.7,1416.0 1853.6,1421.7 1827.4,1427.3 1801.2,1432.9 1775.0,1438.5 1748.8,1444.1 1722.5,1449.7 1696.3,1455.2 1670.0,1460.7 1643.8,1466.2 1617.5,1471.7 1591.2,1477.1 1564.9,1482.5 1538.6,1487.9 1512.3,1493.3 1486.0,1498.7 1459.7,1504.0 1433.4,1509.3 1407.1,1514.5 1380.8,1519.8 1354.4,1525.0 1328.1,1530.2 1301.8,1535.4 1275.5,1540.5 1249.1,1545.6 1222.8,1550.7 1196.5,1555.8 1170.2,1560.8 1143.9,1565.8 1117.6,1570.8 1091.3,1575.8 1065.1,1580.7 1038.8,1585.7 1012.5,1590.6 986.3,1595.5  A 522.500,522.500 0.00 0,1 981.0,1560.0 L 981.0,1560.0 1007.0,1556.9 1033.2,1553.8 1059.4,1550.5 1085.7,1547.1 1112.0,1543.7 1138.3,1540.1 1164.7,1536.4 1191.2,1532.5 1217.6,1528.6 1244.1,1524.5 1270.6,1520.3 1297.1,1516.0 1323.6,1511.5 1350.1,1506.9 1376.6,1502.2 1403.1,1497.4 1429.6,1492.4 1456.1,1487.3 1482.6,1482.1 1509.0,1476.7 1535.5,1471.2 1561.8,1465.6 1588.2,1459.9 1614.5,1454.0 1640.8,1448.0 1667.0,1441.9 1693.1,1435.7 1719.2,1429.4 1745.3,1422.9 1771.2,1416.4 1797.1,1409.7 1823.0,1402.9 1848.7,1396.1 1874.4,1389.1 1900.0,1382.1 1925.5,1375.0 1950.9,1367.8 1976.2,1360.5 2001.4,1353.2  Z" style="stroke-width: 0.5;  stroke: rgb(0,0,0); fill: rgb(179,177,178);" />
<path d="M 1842.028,1894.998 A 522.500,522.500 0.00 0,1 1815.8,1916.2 L 1815.8,1916.2 1802.9,1899.6 1789.7,1883.3 1776.0,1867.4 1762.1,1852.0 1747.9,1837.2 1733.4,1823.1 1718.7,1809.8 1703.9,1797.4 1688.9,1785.9 1673.8,1775.4 1658.6,1766.0 1643.4,1757.7 1628.1,1750.6 1612.9,1744.6 1597.7,1740.0 1582.5,1736.6 1567.5,1734.5 1552.5,1733.8 1537.7,1734.3 1523.1,1736.2 1508.6,1739.4 1494.4,1744.0 1480.3,1749.8 1466.5,1756.9 1453.0,1765.3 1439.8,1774.9 1426.8,1785.7 1414.2,1797.6 1401.9,1810.5 1390.0,1824.5 1378.4,1839.4 1367.2,1855.2 1356.4,1871.8 1346.0,1889.1 1336.0,1907.1 1326.4,1925.5 1317.3,1944.4 1308.6,1963.5 1300.4,1982.9  A 522.500,522.500 0.00 0,1 1270.2,1969.2 L 1270.2,1969.2 1279.7,1950.2 1289.8,1931.5 1300.3,1913.0 1311.3,1894.9 1322.7,1877.3 1334.6,1860.4 1346.8,1844.1 1359.5,1828.6 1372.6,1814.0 1386.1,1800.3 1399.9,1787.5 1414.0,1775.8 1428.5,1765.2 1443.3,1755.7 1458.4,1747.3 1473.7,1740.2 1489.3,1734.3 1505.1,1729.7 1521.1,1726.3 1537.3,1724.2 1553.7,1723.4 1570.2,1723.8 1586.7,1725.5 1603.4,1728.5 1620.1,1732.7 1636.8,1738.1 1653.5,1744.7 1670.2,1752.4 1686.8,1761.2 1703.3,1771.1 1719.7,1781.9 1735.9,1793.6 1752.0,1806.2 1767.8,1819.6 1783.3,1833.6 1798.5,1848.3 1813.4,1863.5 1827.9,1879.1 1842.0,1895.0  Z" style="stroke-width: 0.5;  stroke: rgb(0,0,0); fill: rgb(179,177,178);" />
<path d="M 2021.563,1468.715 A 522.500,522.500 0.00 0,1 2022.5,1501.2 L 2022.5,1501.2 1996.9,1501.3 1971.2,1501.5 1945.3,1502.0 1919.3,1502.6 1893.2,1503.6 1867.0,1504.7 1840.7,1506.1 1814.3,1507.8 1787.8,1509.7 1761.3,1511.9 1734.8,1514.4 1708.2,1517.2 1681.7,1520.2 1655.1,1523.5 1628.4,1527.1 1601.9,1531.1 1575.3,1535.3 1548.8,1539.7 1522.3,1544.5 1495.8,1549.6 1469.4,1555.0 1443.1,1560.6 1416.9,1566.5 1390.7,1572.8 1364.7,1579.2 1338.7,1586.0 1312.9,1593.0 1287.2,1600.3 1261.6,1607.8 1236.2,1615.5 1210.9,1623.5 1185.8,1631.7 1160.8,1640.2 1136.1,1648.8 1111.5,1657.6 1087.0,1666.6 1062.8,1675.7 1038.8,1685.0 1015.0,1694.5  A 522.500,522.500 0.00 0,1 1003.9,1664.1 L 1003.9,1664.1 1028.6,1656.0 1053.5,1648.0 1078.5,1640.1 1103.6,1632.4 1128.8,1624.7 1154.2,1617.2 1179.7,1609.8 1205.3,1602.6 1231.0,1595.5 1256.8,1588.6 1282.7,1581.8 1308.7,1575.2 1334.8,1568.8 1361.0,1562.6 1387.2,1556.5 1413.6,1550.7 1439.9,1545.0 1466.4,1539.5 1492.8,1534.2 1519.3,1529.2 1545.9,1524.3 1572.5,1519.6 1599.1,1515.1 1625.7,1510.8 1652.3,1506.7 1678.9,1502.8 1705.5,1499.0 1732.1,1495.5 1758.7,1492.2 1785.2,1489.1 1811.7,1486.1 1838.2,1483.4 1864.6,1480.8 1891.0,1478.4 1917.3,1476.1 1943.5,1474.0 1969.6,1472.1 1995.6,1470.3 2021.6,1468.7  Z" style="stroke-width: 0.5;  stroke: rgb(0,0,0); fill: rgb(179,177,178);" />
<path d="M 1734.487,1966.929 A 522.500,522.500 0.00 0,1 1705.5,1980.4 L 1705.5,1980.4 1697.4,1961.7 1689.0,1943.3 1680.5,1925.2 1671.8,1907.6 1662.9,1890.6 1653.9,1874.3 1644.9,1858.8 1635.8,1844.2 1626.6,1830.6 1617.5,1818.0 1608.4,1806.7 1599.3,1796.5 1590.3,1787.6 1581.4,1780.1 1572.5,1773.9 1563.8,1769.1 1555.2,1765.8 1546.8,1763.9 1538.6,1763.5 1530.5,1764.5 1522.7,1767.0 1515.0,1771.0 1507.6,1776.5 1500.4,1783.3 1493.5,1791.6 1486.8,1801.2 1480.4,1812.1 1474.2,1824.2 1468.4,1837.6 1462.8,1852.0 1457.4,1867.5 1452.4,1884.0 1447.6,1901.3 1443.2,1919.4 1439.0,1938.1 1435.1,1957.4 1431.5,1977.0 1428.2,1997.0 1425.1,2017.1  A 522.500,522.500 0.00 0,1 1393.8,2011.6 L 1393.8,2011.6 1398.1,1991.6 1402.8,1971.7 1407.8,1952.2 1413.1,1933.0 1418.7,1914.4 1424.7,1896.4 1430.9,1879.2 1437.5,1862.8 1444.4,1847.3 1451.6,1832.9 1459.2,1819.6 1467.0,1807.4 1475.1,1796.5 1483.4,1786.8 1492.1,1778.5 1501.0,1771.5 1510.1,1765.9 1519.4,1761.8 1529.0,1759.0 1538.8,1757.8 1548.7,1757.9 1558.8,1759.5 1569.1,1762.6 1579.5,1767.0 1590.0,1772.9 1600.5,1780.0 1611.2,1788.5 1621.9,1798.3 1632.6,1809.2 1643.2,1821.3 1653.9,1834.4 1664.5,1848.5 1675.0,1863.6 1685.4,1879.4 1695.6,1895.9 1705.7,1913.1 1715.5,1930.7 1725.2,1948.7 1734.5,1966.9  Z" style="stroke-width: 0.5;  stroke: rgb(0,0,0); fill: rgb(179,177,178);" />
<path d="M 1989.110,1683.788 A 522.500,522.500 0.00 0,1 1977.3,1712.5 L 1977.3,1712.5 1956.0,1703.3 1934.3,1694.4 1912.2,1686.0 1889.8,1678.0 1867.0,1670.6 1844.1,1663.8 1820.8,1657.5 1797.4,1651.9 1773.8,1647.0 1750.1,1642.8 1726.3,1639.3 1702.3,1636.6 1678.3,1634.6 1654.3,1633.5 1630.3,1633.1 1606.3,1633.6 1582.3,1634.9 1558.4,1637.0 1534.6,1640.0 1511.0,1643.8 1487.5,1648.4 1464.1,1653.9 1441.0,1660.2 1418.0,1667.3 1395.3,1675.1 1372.9,1683.8 1350.7,1693.1 1328.8,1703.2 1307.3,1714.0 1286.0,1725.4 1265.2,1737.5 1244.7,1750.2 1224.6,1763.4 1204.9,1777.1 1185.7,1791.2 1166.9,1805.8 1148.6,1820.7 1130.7,1836.0 1113.3,1851.4  A 522.500,522.500 0.00 0,1 1093.6,1828.4 L 1093.6,1828.4 1112.1,1813.8 1131.1,1799.3 1150.5,1785.2 1170.3,1771.4 1190.6,1758.0 1211.2,1745.0 1232.3,1732.5 1253.7,1720.5 1275.5,1709.1 1297.6,1698.2 1320.0,1687.9 1342.7,1678.2 1365.7,1669.2 1389.0,1660.9 1412.5,1653.3 1436.2,1646.4 1460.1,1640.2 1484.2,1634.7 1508.5,1630.1 1532.9,1626.1 1557.4,1622.9 1582.0,1620.5 1606.6,1618.9 1631.3,1618.0 1656.0,1617.8 1680.7,1618.4 1705.4,1619.7 1730.0,1621.7 1754.5,1624.4 1778.9,1627.8 1803.2,1631.8 1827.3,1636.4 1851.2,1641.7 1874.9,1647.5 1898.4,1653.9 1921.6,1660.7 1944.4,1668.0 1966.9,1675.7 1989.1,1683.8  Z" style="stroke-width: 0.5;  stroke: rgb(0,0,0); fill: rgb(179,177,178);" />
<path d="M 2010.079,1613.250 A 522.500,522.500 0.00 0,1 2003.0,1641.4 L 2003.0,1641.4 1979.9,1635.1 1956.4,1629.2 1932.7,1623.6 1908.7,1618.5 1884.4,1613.9 1859.9,1609.8 1835.2,1606.2 1810.4,1603.1 1785.4,1600.6 1760.3,1598.7 1735.1,1597.4 1709.9,1596.7 1684.6,1596.6 1659.3,1597.2 1634.0,1598.5 1608.7,1600.4 1583.5,1603.0 1558.3,1606.3 1533.2,1610.2 1508.3,1614.8 1483.5,1620.1 1458.8,1626.0 1434.3,1632.6 1410.0,1639.8 1385.9,1647.7 1362.1,1656.2 1338.5,1665.3 1315.1,1674.9 1292.1,1685.1 1269.3,1695.9 1246.9,1707.1 1224.8,1718.9 1203.0,1731.1 1181.6,1743.7 1160.6,1756.7 1140.0,1770.0 1119.8,1783.6 1100.0,1797.5 1080.6,1811.7  A 522.500,522.500 0.00 0,1 1064.1,1788.1 L 1064.1,1788.1 1084.5,1774.9 1105.2,1761.8 1126.4,1749.1 1147.9,1736.6 1169.8,1724.4 1192.0,1712.6 1214.6,1701.1 1237.5,1690.1 1260.7,1679.5 1284.1,1669.3 1307.9,1659.6 1331.8,1650.4 1356.1,1641.8 1380.5,1633.6 1405.2,1626.0 1430.1,1619.0 1455.1,1612.6 1480.3,1606.7 1505.6,1601.4 1531.0,1596.7 1556.6,1592.6 1582.2,1589.1 1607.9,1586.2 1633.6,1583.8 1659.3,1582.1 1685.1,1581.0 1710.8,1580.4 1736.5,1580.4 1762.1,1580.9 1787.7,1582.0 1813.1,1583.7 1838.4,1585.8 1863.6,1588.4 1888.6,1591.5 1913.4,1595.1 1937.9,1599.1 1962.3,1603.4 1986.3,1608.2 2010.1,1613.2  Z" style="stroke-width: 0.5;  stroke: rgb(0,0,0); fill: rgb(179,177,178);" />
<path d="M 1917.030,1814.789 A 522.500,522.500 0.00 0,1 1900.5,1835.6 L 1900.5,1835.6 1883.5,1821.7 1866.1,1808.1 1848.3,1795.1 1830.1,1782.5 1811.5,1770.5 1792.7,1759.2 1773.6,1748.6 1754.3,1738.8 1734.8,1729.9 1715.1,1721.8 1695.3,1714.7 1675.4,1708.6 1655.5,1703.5 1635.5,1699.4 1615.5,1696.5 1595.5,1694.6 1575.6,1693.8 1555.8,1694.2 1536.1,1695.6 1516.5,1698.3 1497.1,1702.0 1477.9,1706.9 1458.9,1712.8 1440.1,1719.9 1421.6,1728.0 1403.4,1737.2 1385.5,1747.3 1367.9,1758.5 1350.6,1770.5 1333.8,1783.4 1317.3,1797.2 1301.2,1811.7 1285.6,1826.9 1270.4,1842.8 1255.6,1859.2 1241.4,1876.1 1227.6,1893.4 1214.3,1911.0 1201.6,1928.9  A 522.500,522.500 0.00 0,1 1180.0,1913.1 L 1180.0,1913.1 1193.8,1895.7 1208.2,1878.6 1223.0,1861.7 1238.3,1845.3 1254.1,1829.4 1270.4,1814.0 1287.0,1799.2 1304.2,1785.1 1321.7,1771.7 1339.6,1759.2 1357.9,1747.4 1376.5,1736.6 1395.4,1726.6 1414.7,1717.7 1434.2,1709.7 1454.0,1702.7 1474.0,1696.8 1494.2,1691.9 1514.6,1688.1 1535.2,1685.3 1555.9,1683.7 1576.7,1683.1 1597.5,1683.6 1618.4,1685.1 1639.4,1687.7 1660.3,1691.3 1681.2,1695.9 1702.0,1701.5 1722.7,1708.1 1743.3,1715.5 1763.7,1723.8 1783.9,1732.9 1803.9,1742.8 1823.6,1753.4 1843.1,1764.7 1862.1,1776.5 1880.9,1788.8 1899.2,1801.6 1917.0,1814.8  Z" style="stroke-width: 0.5;  stroke: rgb(0,0,0); fill: rgb(179,177,178);" />
<path d="M 1977.265,1712.660 A 522.500,522.500 0.00 0,1 1966.2,1735.9 L 1966.2,1735.9 1945.6,1725.8 1924.6,1716.0 1903.2,1706.7 1881.5,1697.9 1859.4,1689.6 1837.1,1681.9 1814.6,1674.9 1791.8,1668.5 1768.9,1662.9 1745.8,1658.0 1722.6,1653.9 1699.3,1650.6 1676.0,1648.1 1652.6,1646.5 1629.3,1645.8 1605.9,1645.9 1582.7,1646.9 1559.5,1648.9 1536.4,1651.7 1513.4,1655.4 1490.6,1660.0 1468.0,1665.5 1445.6,1671.9 1423.4,1679.1 1401.5,1687.2 1379.8,1696.1 1358.4,1705.9 1337.4,1716.3 1316.7,1727.6 1296.3,1739.5 1276.4,1752.1 1256.8,1765.3 1237.6,1779.1 1218.9,1793.4 1200.6,1808.2 1182.7,1823.5 1165.4,1839.1 1148.5,1855.0 1132.2,1871.1  A 522.500,522.500 0.00 0,1 1114.5,1852.7 L 1114.5,1852.7 1131.8,1837.2 1149.6,1821.9 1167.9,1806.9 1186.6,1792.3 1205.8,1778.1 1225.4,1764.3 1245.5,1751.1 1265.9,1738.4 1286.7,1726.2 1307.9,1714.8 1329.4,1703.9 1351.2,1693.8 1373.3,1684.4 1395.8,1675.7 1418.4,1667.8 1441.3,1660.7 1464.5,1654.4 1487.8,1648.9 1511.3,1644.2 1534.9,1640.4 1558.7,1637.4 1582.5,1635.2 1606.5,1633.9 1630.4,1633.4 1654.5,1633.7 1678.5,1634.9 1702.4,1636.8 1726.3,1639.5 1750.2,1643.0 1773.9,1647.2 1797.5,1652.1 1820.9,1657.7 1844.1,1663.9 1867.0,1670.8 1889.7,1678.2 1912.1,1686.1 1934.2,1694.6 1955.9,1703.4 1977.3,1712.7  Z" style="stroke-width: 0.5;  stroke: rgb(0,0,0); fill: rgb(179,177,178);" />
<path d="M 1696.615,1015.904 A 522.500,522.500 0.00 0,1 1719.6,1025.9 L 1719.6,1025.9 1710.4,1045.3 1700.6,1064.5 1690.3,1083.5 1679.5,1102.1 1668.2,1120.2 1656.4,1137.8 1644.1,1154.7 1631.3,1171.0 1618.1,1186.4 1604.4,1201.0 1590.3,1214.7 1575.8,1227.4 1560.8,1239.1 1545.5,1249.7 1529.7,1259.3 1513.7,1267.7 1497.2,1275.0 1480.5,1281.0 1463.5,1285.9 1446.2,1289.6 1428.6,1292.1 1410.9,1293.3 1392.9,1293.4 1374.8,1292.2 1356.6,1289.9 1338.2,1286.5 1319.8,1281.9 1301.3,1276.2 1282.9,1269.4 1264.4,1261.7 1246.1,1252.9 1227.8,1243.3 1209.7,1232.8 1191.8,1221.6 1174.1,1209.6 1156.6,1197.1 1139.5,1183.9 1122.7,1170.3 1106.4,1156.4  A 522.500,522.500 0.00 0,1 1123.3,1138.0 L 1123.3,1138.0 1138.8,1152.5 1154.7,1166.8 1171.0,1180.6 1187.5,1193.8 1204.4,1206.4 1221.4,1218.3 1238.6,1229.4 1255.9,1239.7 1273.4,1249.0 1290.8,1257.4 1308.3,1264.7 1325.8,1270.9 1343.2,1276.0 1360.6,1279.9 1377.8,1282.7 1394.9,1284.2 1411.8,1284.5 1428.5,1283.6 1445.0,1281.4 1461.2,1277.9 1477.1,1273.2 1492.8,1267.3 1508.1,1260.1 1523.1,1251.8 1537.7,1242.2 1551.9,1231.6 1565.8,1219.8 1579.2,1207.0 1592.2,1193.2 1604.8,1178.5 1616.9,1162.9 1628.5,1146.4 1639.7,1129.3 1650.4,1111.5 1660.7,1093.1 1670.4,1074.3 1679.6,1055.0 1688.4,1035.6 1696.6,1015.9  Z" style="stroke-width: 0.5;  stroke: rgb(0,0,0); fill: rgb(179,177,178);" />
<path d="M 1648.713,999.110 A 522.500,522.500 0.00 0,1 1672.5,1006.8 L 1672.5,1006.8 1665.3,1026.7 1657.7,1046.4 1649.5,1065.8 1640.9,1084.9 1631.8,1103.5 1622.2,1121.5 1612.2,1138.8 1601.7,1155.4 1590.7,1171.2 1579.3,1186.0 1567.5,1199.9 1555.2,1212.8 1542.6,1224.6 1529.5,1235.3 1516.1,1244.8 1502.3,1253.0 1488.1,1260.1 1473.6,1265.9 1458.8,1270.4 1443.7,1273.6 1428.4,1275.5 1412.8,1276.2 1397.0,1275.5 1381.0,1273.6 1364.8,1270.5 1348.6,1266.1 1332.2,1260.5 1315.7,1253.8 1299.3,1245.9 1282.8,1237.0 1266.3,1227.1 1250.0,1216.2 1233.7,1204.5 1217.6,1192.0 1201.7,1178.7 1186.1,1164.9 1170.7,1150.5 1155.6,1135.6 1140.9,1120.4  A 522.500,522.500 0.00 0,1 1159.5,1103.7 L 1159.5,1103.7 1173.3,1119.4 1187.5,1134.8 1202.0,1149.8 1216.7,1164.3 1231.7,1178.2 1246.8,1191.3 1262.1,1203.6 1277.5,1215.0 1292.9,1225.5 1308.3,1235.0 1323.7,1243.4 1339.1,1250.6 1354.4,1256.7 1369.6,1261.5 1384.6,1265.1 1399.5,1267.4 1414.2,1268.4 1428.6,1268.1 1442.8,1266.4 1456.7,1263.4 1470.3,1259.1 1483.7,1253.5 1496.6,1246.6 1509.3,1238.4 1521.5,1229.0 1533.4,1218.4 1544.9,1206.6 1555.9,1193.7 1566.6,1179.8 1576.8,1164.8 1586.6,1149.0 1596.0,1132.3 1604.9,1114.8 1613.3,1096.6 1621.3,1077.8 1628.8,1058.6 1635.9,1039.0 1642.5,1019.1 1648.7,999.1  Z" style="stroke-width: 0.5;  stroke: rgb(0,0,0); fill: rgb(179,177,178);" />
<path d="M 1899.514,1836.741 A 522.500,522.500 0.00 0,1 1883.3,1855.0 L 1883.3,1855.0 1867.2,1840.5 1850.7,1826.3 1833.7,1812.5 1816.4,1799.2 1798.8,1786.5 1780.8,1774.6 1762.7,1763.3 1744.3,1752.9 1725.7,1743.3 1706.9,1734.7 1688.0,1727.0 1669.1,1720.4 1650.1,1714.8 1631.0,1710.3 1612.0,1706.9 1593.0,1704.7 1574.1,1703.6 1555.2,1703.7 1536.5,1705.0 1517.9,1707.4 1499.4,1711.0 1481.2,1715.8 1463.2,1721.8 1445.4,1728.9 1427.9,1737.0 1410.7,1746.3 1393.7,1756.6 1377.2,1768.0 1360.9,1780.3 1345.1,1793.5 1329.6,1807.5 1314.5,1822.3 1299.8,1837.9 1285.6,1854.1 1271.9,1870.9 1258.6,1888.2 1245.8,1905.9 1233.5,1924.0 1221.7,1942.2  A 522.500,522.500 0.00 0,1 1201.6,1928.9 L 1201.6,1928.9 1214.3,1911.0 1227.6,1893.4 1241.3,1876.1 1255.6,1859.2 1270.3,1842.8 1285.5,1827.0 1301.2,1811.7 1317.2,1797.2 1333.7,1783.5 1350.6,1770.6 1367.8,1758.6 1385.4,1747.4 1403.3,1737.3 1421.5,1728.2 1440.0,1720.1 1458.7,1713.0 1477.7,1707.1 1496.9,1702.3 1516.3,1698.6 1535.8,1696.0 1555.5,1694.5 1575.3,1694.2 1595.2,1695.0 1615.1,1696.9 1635.1,1700.0 1655.0,1704.1 1674.9,1709.2 1694.8,1715.4 1714.5,1722.5 1734.2,1730.6 1753.6,1739.6 1772.9,1749.5 1792.0,1760.1 1810.8,1771.5 1829.2,1783.5 1847.4,1796.1 1865.2,1809.2 1882.6,1822.8 1899.5,1836.7  Z" style="stroke-width: 0.5;  stroke: rgb(0,0,0); fill: rgb(179,177,178);" />
<path d="M 1616.332,990.615 A 522.500,522.500 0.00 0,1 1639.7,996.5 L 1639.7,996.5 1633.9,1016.6 1627.7,1036.6 1621.0,1056.3 1613.8,1075.6 1606.2,1094.4 1598.2,1112.6 1589.7,1130.2 1580.7,1147.0 1571.3,1162.9 1561.5,1178.0 1551.2,1192.0 1540.5,1204.9 1529.4,1216.8 1517.9,1227.5 1506.0,1236.9 1493.7,1245.2 1481.1,1252.1 1468.1,1257.7 1454.8,1262.1 1441.2,1265.1 1427.3,1266.7 1413.2,1267.0 1398.8,1266.0 1384.2,1263.7 1369.4,1260.1 1354.5,1255.3 1339.4,1249.2 1324.3,1241.9 1309.1,1233.5 1293.8,1224.0 1278.6,1213.5 1263.4,1202.0 1248.3,1189.6 1233.4,1176.4 1218.6,1162.5 1204.0,1148.0 1189.6,1132.9 1175.6,1117.4 1161.9,1101.6  A 522.500,522.500 0.00 0,1 1180.6,1086.5 L 1180.6,1086.5 1193.5,1102.8 1206.6,1118.8 1220.1,1134.4 1233.8,1149.5 1247.6,1163.9 1261.6,1177.6 1275.8,1190.6 1289.9,1202.6 1304.1,1213.6 1318.3,1223.7 1332.5,1232.6 1346.6,1240.3 1360.5,1246.9 1374.3,1252.1 1388.0,1256.2 1401.5,1258.8 1414.7,1260.2 1427.7,1260.2 1440.4,1258.8 1452.8,1256.1 1465.0,1252.0 1476.8,1246.5 1488.2,1239.7 1499.3,1231.7 1510.0,1222.3 1520.4,1211.7 1530.3,1199.9 1539.8,1187.0 1548.9,1172.9 1557.6,1157.9 1565.8,1141.9 1573.7,1125.0 1581.0,1107.4 1588.0,1089.0 1594.5,1070.1 1600.6,1050.7 1606.3,1030.9 1611.5,1010.8 1616.3,990.6  Z" style="stroke-width: 0.5;  stroke: rgb(0,0,0); fill: rgb(179,177,178);" />
<path d="M 1500.000,977.500 A 522.500,522.500 0.00 0,1 1519.2,977.9 L 1519.2,977.9 1518.3,998.1 1517.2,1018.3 1515.8,1038.2 1514.1,1057.7 1512.0,1076.6 1509.7,1095.0 1507.0,1112.6 1504.0,1129.3 1500.6,1145.2 1496.9,1160.0 1492.9,1173.7 1488.4,1186.2 1483.6,1197.5 1478.5,1207.5 1473.0,1216.2 1467.1,1223.5 1460.9,1229.4 1454.4,1233.8 1447.5,1236.8 1440.3,1238.4 1432.8,1238.4 1425.0,1237.0 1416.9,1234.2 1408.6,1229.9 1400.0,1224.3 1391.2,1217.3 1382.2,1208.9 1373.0,1199.3 1363.7,1188.4 1354.3,1176.5 1344.7,1163.4 1335.1,1149.3 1325.5,1134.4 1315.8,1118.6 1306.2,1102.1 1296.7,1085.0 1287.3,1067.4 1278.0,1049.5 1268.9,1031.4  A 522.500,522.500 0.00 0,1 1290.7,1021.3 L 1290.7,1021.3 1298.9,1039.7 1307.2,1058.0 1315.7,1076.0 1324.3,1093.4 1332.9,1110.3 1341.5,1126.5 1350.1,1141.8 1358.6,1156.3 1367.0,1169.8 1375.4,1182.1 1383.6,1193.4 1391.6,1203.4 1399.4,1212.1 1407.1,1219.5 1414.5,1225.5 1421.6,1230.1 1428.5,1233.2 1435.2,1234.9 1441.5,1235.2 1447.5,1233.9 1453.2,1231.2 1458.6,1226.9 1463.7,1221.3 1468.4,1214.2 1472.8,1205.7 1476.8,1195.9 1480.5,1184.8 1483.8,1172.4 1486.9,1158.8 1489.5,1144.1 1491.9,1128.4 1493.9,1111.8 1495.6,1094.3 1497.0,1076.0 1498.1,1057.1 1499.0,1037.7 1499.6,1017.8 1499.9,997.7 1500.0,977.5  Z" style="stroke-width: 0.5;  stroke: rgb(0,0,0); fill: rgb(179,177,178);" />
<path d="M 1736.514,1034.095 A 522.500,522.500 0.00 0,1 1757.2,1045.2 L 1757.2,1045.2 1746.2,1064.1 1734.6,1082.8 1722.6,1101.3 1710.0,1119.3 1696.9,1137.0 1683.3,1154.1 1669.2,1170.6 1654.6,1186.4 1639.6,1201.5 1624.1,1215.8 1608.2,1229.3 1591.8,1241.8 1575.0,1253.4 1557.9,1264.0 1540.4,1273.6 1522.5,1282.1 1504.3,1289.6 1485.8,1295.9 1467.0,1301.2 1448.0,1305.3 1428.7,1308.2 1409.2,1310.1 1389.6,1310.8 1369.8,1310.4 1349.9,1308.9 1329.9,1306.3 1309.8,1302.7 1289.8,1298.0 1269.7,1292.4 1249.7,1285.7 1229.8,1278.2 1210.0,1269.8 1190.3,1260.6 1170.9,1250.6 1151.7,1239.9 1132.7,1228.6 1114.1,1216.8 1095.9,1204.5 1078.1,1191.8  A 522.500,522.500 0.00 0,1 1092.1,1173.5 L 1092.1,1173.5 1109.1,1186.8 1126.6,1199.8 1144.5,1212.3 1162.7,1224.3 1181.1,1235.6 1199.8,1246.2 1218.7,1256.1 1237.7,1265.1 1256.8,1273.2 1276.0,1280.4 1295.3,1286.6 1314.5,1291.8 1333.7,1295.9 1352.9,1299.0 1371.9,1300.9 1390.9,1301.6 1409.6,1301.2 1428.2,1299.6 1446.6,1296.9 1464.7,1293.0 1482.6,1287.9 1500.1,1281.6 1517.4,1274.2 1534.3,1265.7 1550.9,1256.1 1567.1,1245.5 1582.9,1233.8 1598.2,1221.1 1613.2,1207.5 1627.7,1193.0 1641.8,1177.7 1655.4,1161.6 1668.5,1144.8 1681.1,1127.4 1693.2,1109.5 1704.8,1091.1 1715.9,1072.3 1726.5,1053.3 1736.5,1034.1  Z" style="stroke-width: 0.5;  stroke: rgb(0,0,0); fill: rgb(179,177,178);" />
<path d="M 1938.945,1783.432 A 522.500,522.500 0.00 0,1 1926.0,1802.6 L 1926.0,1802.6 1907.6,1789.9 1888.8,1777.6 1869.7,1765.7 1850.1,1754.3 1830.2,1743.5 1810.1,1733.4 1789.6,1723.9 1769.0,1715.2 1748.1,1707.4 1727.1,1700.3 1705.9,1694.2 1684.7,1688.9 1663.4,1684.7 1642.0,1681.4 1620.6,1679.1 1599.3,1677.8 1578.0,1677.6 1556.8,1678.4 1535.7,1680.2 1514.7,1683.1 1493.9,1687.1 1473.3,1692.1 1452.8,1698.1 1432.6,1705.1 1412.7,1713.2 1393.1,1722.1 1373.7,1732.1 1354.7,1742.9 1336.0,1754.6 1317.7,1767.1 1299.8,1780.3 1282.2,1794.3 1265.1,1809.0 1248.5,1824.2 1232.3,1840.0 1216.6,1856.3 1201.4,1872.9 1186.7,1889.9 1172.5,1907.1  A 522.500,522.500 0.00 0,1 1154.7,1892.2 L 1154.7,1892.2 1169.8,1875.4 1185.4,1858.9 1201.5,1842.8 1218.1,1827.0 1235.2,1811.6 1252.7,1796.8 1270.7,1782.6 1289.1,1769.0 1307.8,1756.1 1327.0,1744.0 1346.5,1732.6 1366.4,1722.1 1386.6,1712.4 1407.0,1703.6 1427.8,1695.7 1448.8,1688.7 1470.0,1682.8 1491.4,1677.8 1513.0,1673.8 1534.8,1670.7 1556.6,1668.7 1578.6,1667.7 1600.6,1667.7 1622.7,1668.7 1644.8,1670.6 1666.9,1673.5 1689.0,1677.3 1711.0,1682.1 1732.8,1687.7 1754.6,1694.2 1776.2,1701.5 1797.6,1709.6 1818.7,1718.4 1839.6,1727.8 1860.2,1737.9 1880.5,1748.6 1900.4,1759.8 1919.9,1771.4 1938.9,1783.4  Z" style="stroke-width: 0.5;  stroke: rgb(0,0,0); fill: rgb(179,177,178);" />
<path d="M 2022.386,1510.930 A 522.500,522.500 0.00 0,1 2021.5,1532.5 L 2021.5,1532.5 1996.3,1531.1 1970.9,1529.9 1945.4,1529.0 1919.7,1528.3 1893.8,1528.0 1867.9,1527.9 1841.8,1528.2 1815.6,1528.9 1789.3,1529.8 1763.0,1531.1 1736.6,1532.8 1710.1,1534.8 1683.7,1537.2 1657.2,1540.0 1630.7,1543.1 1604.2,1546.7 1577.8,1550.6 1551.4,1554.9 1525.1,1559.5 1498.8,1564.6 1472.6,1570.0 1446.5,1575.8 1420.5,1582.0 1394.6,1588.5 1368.9,1595.4 1343.2,1602.7 1317.8,1610.3 1292.5,1618.2 1267.3,1626.4 1242.4,1635.0 1217.6,1643.8 1193.1,1653.0 1168.7,1662.4 1144.6,1672.1 1120.7,1682.0 1097.1,1692.1 1073.7,1702.4 1050.6,1712.9 1027.8,1723.6  A 522.500,522.500 0.00 0,1 1018.9,1703.9 L 1018.9,1703.9 1042.4,1694.0 1066.1,1684.3 1090.1,1674.8 1114.3,1665.4 1138.6,1656.3 1163.2,1647.3 1188.0,1638.5 1212.9,1630.0 1238.1,1621.8 1263.3,1613.7 1288.8,1606.0 1314.4,1598.5 1340.1,1591.3 1365.9,1584.4 1391.9,1577.8 1418.0,1571.4 1444.2,1565.4 1470.4,1559.7 1496.8,1554.3 1523.2,1549.2 1549.6,1544.5 1576.1,1540.1 1602.7,1535.9 1629.2,1532.1 1655.8,1528.7 1682.4,1525.5 1708.9,1522.6 1735.5,1520.1 1762.0,1517.9 1788.4,1516.0 1814.8,1514.3 1841.2,1513.0 1867.4,1511.9 1893.5,1511.1 1919.6,1510.6 1945.5,1510.3 1971.3,1510.3 1996.9,1510.5 2022.4,1510.9  Z" style="stroke-width: 0.5;  stroke: rgb(0,0,0); fill: rgb(179,177,178);" />
<path d="M 1954.718,1757.367 A 522.500,522.500 0.00 0,1 1943.8,1775.7 L 1943.8,1775.7 1924.5,1764.0 1904.7,1752.7 1884.5,1741.8 1864.0,1731.4 1843.1,1721.6 1821.9,1712.4 1800.5,1703.8 1778.9,1696.0 1757.0,1689.0 1735.0,1682.7 1712.9,1677.3 1690.6,1672.7 1668.3,1669.1 1645.9,1666.3 1623.6,1664.6 1601.2,1663.7 1578.9,1663.8 1556.6,1664.9 1534.5,1667.0 1512.5,1670.1 1490.6,1674.1 1468.9,1679.2 1447.4,1685.1 1426.1,1692.0 1405.1,1699.9 1384.3,1708.6 1363.8,1718.2 1343.7,1728.7 1323.8,1739.9 1304.4,1752.0 1285.3,1764.7 1266.6,1778.2 1248.3,1792.2 1230.5,1806.9 1213.1,1822.0 1196.1,1837.6 1179.7,1853.6 1163.8,1869.9 1148.4,1886.5  A 522.500,522.500 0.00 0,1 1133.1,1872.0 L 1133.1,1872.0 1149.3,1856.0 1166.1,1840.1 1183.3,1824.6 1201.0,1809.5 1219.1,1794.8 1237.7,1780.6 1256.8,1766.9 1276.2,1753.9 1296.0,1741.5 1316.2,1729.8 1336.8,1718.9 1357.6,1708.7 1378.8,1699.3 1400.2,1690.7 1421.9,1683.0 1443.9,1676.2 1466.1,1670.3 1488.4,1665.3 1510.9,1661.2 1533.6,1658.0 1556.4,1655.8 1579.3,1654.5 1602.2,1654.1 1625.2,1654.7 1648.2,1656.1 1671.2,1658.5 1694.1,1661.7 1716.9,1665.8 1739.7,1670.7 1762.3,1676.4 1784.8,1682.9 1807.0,1690.1 1829.1,1698.0 1850.8,1706.6 1872.3,1715.8 1893.5,1725.5 1914.3,1735.7 1934.7,1746.3 1954.7,1757.4  Z" style="stroke-width: 0.5;  stroke: rgb(0,0,0); fill: rgb(179,177,178);" />
<path d="M 1675.418,1007.826 A 522.500,522.500 0.00 0,1 1695.2,1015.3 L 1695.2,1015.3 1687.0,1035.0 1678.3,1054.5 1669.2,1073.7 1659.5,1092.6 1649.3,1111.0 1638.7,1128.8 1627.6,1146.0 1616.0,1162.4 1603.9,1178.0 1591.4,1192.8 1578.5,1206.6 1565.1,1219.4 1551.4,1231.2 1537.2,1241.8 1522.6,1251.4 1507.7,1259.7 1492.5,1266.9 1476.9,1272.8 1461.0,1277.5 1444.9,1280.9 1428.4,1283.1 1411.8,1284.1 1394.9,1283.8 1377.9,1282.2 1360.8,1279.4 1343.5,1275.5 1326.1,1270.4 1308.7,1264.1 1291.2,1256.8 1273.8,1248.4 1256.4,1239.1 1239.1,1228.8 1222.0,1217.6 1205.0,1205.7 1188.2,1193.1 1171.7,1179.8 1155.5,1166.0 1139.6,1151.7 1124.1,1137.1  A 522.500,522.500 0.00 0,1 1139.2,1122.1 L 1139.2,1122.1 1154.0,1137.2 1169.1,1152.0 1184.6,1166.3 1200.3,1180.2 1216.3,1193.3 1232.5,1205.8 1248.9,1217.5 1265.3,1228.3 1281.9,1238.1 1298.5,1247.0 1315.1,1254.8 1331.6,1261.5 1348.1,1267.0 1364.5,1271.4 1380.8,1274.5 1396.9,1276.4 1412.8,1277.0 1428.5,1276.3 1444.0,1274.4 1459.2,1271.1 1474.1,1266.6 1488.7,1260.8 1503.0,1253.8 1517.0,1245.5 1530.5,1236.0 1543.7,1225.3 1556.5,1213.6 1568.9,1200.7 1580.9,1186.8 1592.4,1172.0 1603.5,1156.2 1614.2,1139.7 1624.3,1122.3 1634.0,1104.3 1643.3,1085.8 1652.0,1066.8 1660.3,1047.3 1668.1,1027.7 1675.4,1007.8  Z" style="stroke-width: 0.5;  stroke: rgb(0,0,0); fill: rgb(179,177,178);" />
<path d="M 1998.722,1655.830 A 522.500,522.500 0.00 0,1 1992.3,1675.1 L 1992.3,1675.1 1970.0,1667.3 1947.2,1660.0 1924.2,1653.1 1900.9,1646.6 1877.3,1640.7 1853.4,1635.2 1829.3,1630.3 1805.1,1626.0 1780.7,1622.4 1756.1,1619.3 1731.5,1617.0 1706.8,1615.3 1682.0,1614.3 1657.2,1614.0 1632.4,1614.5 1607.6,1615.7 1582.9,1617.6 1558.3,1620.3 1533.7,1623.7 1509.2,1627.9 1484.9,1632.8 1460.8,1638.4 1436.8,1644.8 1413.0,1651.9 1389.5,1659.7 1366.2,1668.2 1343.1,1677.3 1320.4,1687.1 1297.9,1697.5 1275.8,1708.5 1254.0,1720.1 1232.5,1732.2 1211.4,1744.7 1190.7,1757.8 1170.4,1771.2 1150.6,1785.1 1131.1,1799.3 1112.1,1813.7 1093.6,1828.4  A 522.500,522.500 0.00 0,1 1081.3,1812.5 L 1081.3,1812.5 1100.5,1798.4 1120.2,1784.5 1140.4,1770.9 1160.9,1757.7 1181.8,1744.7 1203.1,1732.2 1224.8,1720.1 1246.9,1708.5 1269.2,1697.3 1291.9,1686.7 1314.9,1676.7 1338.2,1667.2 1361.7,1658.3 1385.5,1650.1 1409.5,1642.5 1433.7,1635.5 1458.2,1629.2 1482.7,1623.6 1507.5,1618.6 1532.3,1614.4 1557.3,1610.8 1582.4,1608.0 1607.5,1605.8 1632.6,1604.3 1657.8,1603.6 1683.0,1603.5 1708.1,1604.0 1733.2,1605.2 1758.3,1607.1 1783.2,1609.6 1808.0,1612.6 1832.6,1616.3 1857.1,1620.5 1881.4,1625.2 1905.4,1630.5 1929.2,1636.2 1952.7,1642.4 1975.9,1648.9 1998.7,1655.8  Z" style="stroke-width: 0.5;  stroke: rgb(0,0,0); fill: rgb(179,177,178);" />
<path d="M 1910.114,1176.252 A 522.500,522.500 0.00 0,1 1920.7,1190.2 L 1920.7,1190.2 1901.2,1204.3 1881.2,1218.3 1860.8,1232.0 1840.1,1245.4 1818.9,1258.5 1797.4,1271.2 1775.5,1283.5 1753.3,1295.4 1730.7,1306.9 1707.8,1317.9 1684.7,1328.4 1661.2,1338.3 1637.5,1347.8 1613.5,1356.7 1589.3,1364.9 1564.9,1372.7 1540.3,1379.8 1515.5,1386.2 1490.5,1392.1 1465.5,1397.4 1440.2,1402.0 1414.9,1406.0 1389.5,1409.3 1364.1,1412.0 1338.6,1414.1 1313.1,1415.6 1287.5,1416.4 1262.1,1416.7 1236.6,1416.4 1211.3,1415.4 1186.0,1414.0 1160.9,1412.0 1135.9,1409.4 1111.0,1406.4 1086.4,1402.9 1062.0,1398.9 1037.9,1394.5 1014.0,1389.7 990.4,1384.6  A 522.500,522.500 0.00 0,1 994.5,1367.6 L 994.5,1367.6 1017.7,1373.5 1041.3,1379.0 1065.1,1384.0 1089.2,1388.7 1113.5,1392.9 1138.0,1396.5 1162.7,1399.7 1187.6,1402.2 1212.5,1404.2 1237.6,1405.6 1262.8,1406.4 1288.0,1406.6 1313.2,1406.1 1338.5,1405.0 1363.7,1403.2 1388.9,1400.7 1414.0,1397.6 1439.0,1393.7 1463.9,1389.2 1488.7,1384.1 1513.3,1378.2 1537.8,1371.7 1562.1,1364.5 1586.1,1356.7 1610.0,1348.2 1633.5,1339.2 1656.9,1329.5 1679.9,1319.3 1702.6,1308.5 1725.0,1297.1 1747.1,1285.3 1768.9,1273.0 1790.2,1260.2 1811.2,1247.0 1831.9,1233.5 1852.1,1219.6 1871.8,1205.4 1891.2,1190.9 1910.1,1176.3  Z" style="stroke-width: 0.5;  stroke: rgb(0,0,0); fill: rgb(179,177,178);" />
<path d="M 1721.154,1026.611 A 522.500,522.500 0.00 0,1 1735.1,1033.4 L 1735.1,1033.4 1725.2,1052.6 1714.6,1071.7 1703.6,1090.5 1692.1,1108.9 1680.0,1126.8 1667.5,1144.2 1654.4,1161.0 1640.9,1177.1 1626.9,1192.5 1612.5,1207.0 1597.6,1220.6 1582.2,1233.3 1566.5,1245.0 1550.4,1255.7 1533.9,1265.3 1517.0,1273.8 1499.8,1281.2 1482.3,1287.4 1464.5,1292.5 1446.4,1296.4 1428.1,1299.1 1409.6,1300.7 1390.9,1301.1 1372.0,1300.3 1353.0,1298.4 1333.9,1295.4 1314.8,1291.2 1295.6,1286.0 1276.4,1279.8 1257.2,1272.5 1238.1,1264.4 1219.1,1255.3 1200.3,1245.4 1181.7,1234.8 1163.3,1223.4 1145.2,1211.4 1127.3,1198.9 1109.9,1185.9 1092.9,1172.5  A 522.500,522.500 0.00 0,1 1102.8,1160.5 L 1102.8,1160.5 1119.3,1174.3 1136.3,1187.8 1153.6,1200.7 1171.2,1213.1 1189.0,1224.9 1207.1,1236.0 1225.4,1246.3 1243.8,1255.8 1262.4,1264.4 1281.0,1272.0 1299.6,1278.6 1318.2,1284.1 1336.8,1288.6 1355.3,1291.9 1373.7,1294.1 1391.9,1295.1 1410.0,1294.9 1427.9,1293.6 1445.6,1291.0 1463.0,1287.2 1480.2,1282.3 1497.1,1276.1 1513.6,1268.8 1529.8,1260.3 1545.7,1250.7 1561.1,1240.0 1576.2,1228.2 1590.8,1215.5 1605.1,1201.8 1618.8,1187.1 1632.2,1171.7 1645.0,1155.4 1657.4,1138.5 1669.3,1120.9 1680.7,1102.8 1691.6,1084.2 1701.9,1065.2 1711.8,1046.0 1721.2,1026.6  Z" style="stroke-width: 0.5;  stroke: rgb(0,0,0); fill: rgb(179,177,178);" />
<path d="M 2015.241,1586.792 A 522.500,522.500 0.00 0,1 2012.5,1601.9 L 2012.5,1601.9 1988.5,1597.3 1964.2,1593.1 1939.7,1589.2 1915.0,1585.7 1890.0,1582.6 1864.9,1580.0 1839.6,1577.8 1814.1,1576.0 1788.5,1574.8 1762.8,1574.1 1737.1,1573.9 1711.3,1574.2 1685.4,1575.1 1659.6,1576.5 1633.7,1578.5 1607.9,1581.1 1582.1,1584.2 1556.3,1587.9 1530.7,1592.1 1505.1,1597.0 1479.7,1602.4 1454.4,1608.3 1429.2,1614.9 1404.2,1621.9 1379.4,1629.5 1354.8,1637.6 1330.4,1646.3 1306.3,1655.4 1282.4,1665.0 1258.7,1675.0 1235.4,1685.5 1212.3,1696.4 1189.6,1707.7 1167.1,1719.4 1145.0,1731.4 1123.3,1743.7 1101.9,1756.3 1080.8,1769.1 1060.2,1782.1  A 522.500,522.500 0.00 0,1 1052.2,1769.1 L 1052.2,1769.1 1073.3,1756.6 1094.8,1744.3 1116.7,1732.2 1138.9,1720.4 1161.5,1708.9 1184.3,1697.6 1207.4,1686.8 1230.9,1676.2 1254.6,1666.1 1278.6,1656.4 1302.8,1647.1 1327.2,1638.2 1351.9,1629.8 1376.8,1621.9 1401.8,1614.5 1427.1,1607.5 1452.5,1601.1 1478.0,1595.2 1503.7,1589.8 1529.4,1584.9 1555.3,1580.6 1581.2,1576.7 1607.2,1573.4 1633.2,1570.7 1659.3,1568.4 1685.3,1566.7 1711.3,1565.5 1737.3,1564.8 1763.3,1564.6 1789.1,1564.9 1814.9,1565.7 1840.6,1566.9 1866.1,1568.5 1891.5,1570.6 1916.7,1573.1 1941.7,1576.0 1966.4,1579.3 1991.0,1582.9 2015.2,1586.8  Z" style="stroke-width: 0.5;  stroke: rgb(0,0,0); fill: rgb(179,177,178);" />
<path d="M 1852.798,1885.409 A 522.500,522.500 0.00 0,1 1842.4,1894.7 L 1842.4,1894.7 1828.3,1878.8 1813.7,1863.2 1798.8,1848.0 1783.6,1833.3 1768.0,1819.3 1752.2,1805.9 1736.1,1793.3 1719.9,1781.6 1703.5,1770.8 1686.9,1760.9 1670.2,1752.1 1653.5,1744.4 1636.8,1737.8 1620.0,1732.4 1603.2,1728.2 1586.5,1725.2 1569.9,1723.5 1553.4,1723.0 1537.0,1723.8 1520.7,1725.9 1504.6,1729.3 1488.8,1733.9 1473.1,1739.8 1457.7,1746.9 1442.5,1755.2 1427.7,1764.6 1413.1,1775.2 1398.9,1786.9 1385.0,1799.6 1371.4,1813.3 1358.3,1828.0 1345.5,1843.4 1333.2,1859.6 1321.2,1876.6 1309.7,1894.1 1298.6,1912.1 1288.0,1930.6 1277.9,1949.3 1268.2,1968.3  A 522.500,522.500 0.00 0,1 1255.6,1961.8 L 1255.6,1961.8 1265.8,1943.0 1276.5,1924.5 1287.7,1906.2 1299.4,1888.3 1311.5,1871.0 1324.0,1854.3 1337.0,1838.2 1350.4,1822.9 1364.2,1808.4 1378.3,1794.9 1392.9,1782.3 1407.7,1770.7 1422.9,1760.1 1438.4,1750.7 1454.2,1742.5 1470.3,1735.4 1486.5,1729.5 1503.0,1724.9 1519.8,1721.4 1536.6,1719.3 1553.7,1718.4 1570.8,1718.7 1588.0,1720.3 1605.4,1723.1 1622.7,1727.2 1640.1,1732.4 1657.4,1738.7 1674.7,1746.2 1692.0,1754.7 1709.1,1764.3 1726.1,1774.8 1742.9,1786.3 1759.5,1798.5 1775.8,1811.6 1791.9,1825.3 1807.7,1839.7 1823.1,1854.5 1838.2,1869.8 1852.8,1885.4  Z" style="stroke-width: 0.5;  stroke: rgb(0,0,0); fill: rgb(179,177,178);" />
<path d="M 1795.240,1931.091 A 522.500,522.500 0.00 0,1 1783.7,1938.7 L 1783.7,1938.7 1772.3,1921.4 1760.5,1904.4 1748.4,1887.7 1736.0,1871.5 1723.4,1856.0 1710.6,1841.1 1697.6,1827.0 1684.4,1813.9 1671.2,1801.7 1657.8,1790.5 1644.4,1780.4 1631.0,1771.5 1617.6,1763.8 1604.3,1757.4 1591.0,1752.2 1577.7,1748.4 1564.6,1746.0 1551.6,1744.9 1538.8,1745.1 1526.1,1746.8 1513.6,1749.9 1501.3,1754.3 1489.3,1760.1 1477.5,1767.2 1466.0,1775.6 1454.7,1785.3 1443.8,1796.2 1433.1,1808.3 1422.8,1821.5 1412.8,1835.7 1403.2,1850.9 1393.9,1867.1 1385.0,1884.0 1376.5,1901.7 1368.3,1920.0 1360.5,1938.8 1353.2,1958.0 1346.2,1977.6 1339.6,1997.3  A 522.500,522.500 0.00 0,1 1326.5,1992.9 L 1326.5,1992.9 1333.7,1973.3 1341.2,1953.8 1349.2,1934.7 1357.5,1916.0 1366.3,1897.8 1375.5,1880.2 1385.0,1863.4 1395.0,1847.4 1405.2,1832.2 1415.9,1818.0 1426.9,1804.9 1438.2,1792.9 1449.8,1782.0 1461.7,1772.3 1474.0,1763.9 1486.4,1756.8 1499.2,1751.0 1512.1,1746.5 1525.3,1743.4 1538.6,1741.6 1552.2,1741.2 1565.8,1742.2 1579.6,1744.5 1593.5,1748.1 1607.5,1753.1 1621.5,1759.4 1635.6,1766.9 1649.6,1775.5 1663.6,1785.4 1677.6,1796.3 1691.5,1808.3 1705.2,1821.2 1718.8,1835.0 1732.2,1849.6 1745.4,1864.9 1758.3,1880.8 1771.0,1897.2 1783.3,1914.0 1795.2,1931.1  Z" style="stroke-width: 0.5;  stroke: rgb(0,0,0); fill: rgb(179,177,178);" />
<path d="M 1806.448,1923.197 A 522.500,522.500 0.00 0,1 1795.8,1930.7 L 1795.8,1930.7 1783.8,1913.6 1771.5,1896.8 1758.8,1880.4 1745.9,1864.5 1732.6,1849.2 1719.2,1834.7 1705.6,1820.9 1691.8,1808.0 1677.9,1796.0 1663.9,1785.1 1649.8,1775.3 1635.7,1766.6 1621.6,1759.1 1607.6,1752.8 1593.5,1747.9 1579.6,1744.2 1565.7,1741.9 1552.0,1740.9 1538.4,1741.3 1525.0,1743.1 1511.8,1746.2 1498.7,1750.7 1485.9,1756.5 1473.4,1763.6 1461.1,1772.0 1449.1,1781.7 1437.4,1792.5 1426.1,1804.5 1415.0,1817.7 1404.3,1831.8 1393.9,1846.9 1383.9,1863.0 1374.3,1879.8 1365.1,1897.3 1356.2,1915.5 1347.8,1934.2 1339.8,1953.3 1332.1,1972.7 1324.9,1992.3  A 522.500,522.500 0.00 0,1 1312.8,1987.8 L 1312.8,1987.8 1320.5,1968.3 1328.6,1949.0 1337.2,1930.0 1346.2,1911.5 1355.6,1893.4 1365.4,1876.0 1375.6,1859.2 1386.2,1843.3 1397.2,1828.3 1408.5,1814.2 1420.2,1801.1 1432.2,1789.2 1444.6,1778.3 1457.2,1768.7 1470.1,1760.3 1483.3,1753.2 1496.7,1747.3 1510.4,1742.8 1524.2,1739.6 1538.3,1737.8 1552.5,1737.3 1566.8,1738.2 1581.3,1740.3 1595.9,1743.8 1610.5,1748.6 1625.2,1754.7 1639.9,1762.0 1654.6,1770.5 1669.2,1780.1 1683.8,1790.8 1698.3,1802.5 1712.6,1815.2 1726.8,1828.7 1740.8,1843.0 1754.5,1858.0 1768.0,1873.7 1781.1,1889.8 1794.0,1906.4 1806.4,1923.2  Z" style="stroke-width: 0.5;  stroke: rgb(0,0,0); fill: rgb(179,177,178);" />
<path d="M 1966.868,1265.394 A 522.500,522.500 0.00 0,1 1972.5,1276.9 L 1972.5,1276.9 1949.5,1287.6 1926.3,1298.2 1902.9,1308.5 1879.2,1318.7 1855.3,1328.7 1831.1,1338.4 1806.8,1347.9 1782.2,1357.2 1757.4,1366.2 1732.5,1374.9 1707.3,1383.3 1682.0,1391.4 1656.6,1399.2 1631.0,1406.7 1605.2,1413.8 1579.3,1420.6 1553.4,1427.1 1527.3,1433.2 1501.1,1439.0 1474.8,1444.4 1448.5,1449.5 1422.1,1454.2 1395.7,1458.5 1369.3,1462.5 1342.8,1466.1 1316.3,1469.4 1289.9,1472.3 1263.4,1474.8 1237.0,1477.1 1210.6,1478.9 1184.3,1480.5 1158.1,1481.7 1132.0,1482.6 1105.9,1483.2 1080.0,1483.5 1054.2,1483.6 1028.6,1483.3 1003.1,1482.8 977.8,1482.1  A 522.500,522.500 0.00 0,1 978.4,1469.3 L 978.4,1469.3 1003.5,1470.7 1028.8,1471.7 1054.3,1472.6 1080.0,1473.1 1105.8,1473.3 1131.7,1473.1 1157.8,1472.7 1183.9,1471.9 1210.1,1470.7 1236.4,1469.2 1262.8,1467.3 1289.1,1465.1 1315.5,1462.4 1342.0,1459.4 1368.4,1456.0 1394.7,1452.2 1421.1,1447.9 1447.4,1443.3 1473.6,1438.3 1499.8,1432.9 1525.9,1427.1 1551.9,1421.0 1577.7,1414.4 1603.5,1407.5 1629.1,1400.2 1654.5,1392.5 1679.8,1384.5 1704.9,1376.1 1729.9,1367.4 1754.6,1358.4 1779.2,1349.1 1803.5,1339.5 1827.6,1329.6 1851.4,1319.4 1875.1,1309.0 1898.4,1298.4 1921.5,1287.6 1944.3,1276.6 1966.9,1265.4  Z" style="stroke-width: 0.5;  stroke: rgb(0,0,0); fill: rgb(179,177,178);" />
<path d="M 1525.814,978.138 A 522.500,522.500 0.00 0,1 1537.6,978.9 L 1537.6,978.9 1536.0,999.2 1534.0,1019.5 1531.7,1039.5 1529.0,1059.1 1526.0,1078.3 1522.6,1096.8 1518.8,1114.6 1514.5,1131.6 1509.9,1147.7 1504.8,1162.9 1499.3,1176.9 1493.4,1189.9 1487.1,1201.6 1480.4,1212.1 1473.2,1221.3 1465.6,1229.2 1457.7,1235.7 1449.3,1240.8 1440.6,1244.5 1431.5,1246.8 1422.0,1247.7 1412.2,1247.1 1402.1,1245.2 1391.7,1241.8 1381.1,1237.1 1370.2,1231.0 1359.0,1223.7 1347.7,1215.1 1336.2,1205.3 1324.6,1194.3 1312.9,1182.3 1301.1,1169.4 1289.3,1155.5 1277.5,1140.8 1265.8,1125.3 1254.2,1109.3 1242.7,1092.8 1231.3,1075.9 1220.3,1058.7  A 522.500,522.500 0.00 0,1 1230.3,1052.5 L 1230.3,1052.5 1241.0,1069.9 1251.8,1087.0 1262.9,1103.8 1274.0,1120.0 1285.3,1135.7 1296.6,1150.6 1307.9,1164.7 1319.1,1178.0 1330.3,1190.2 1341.4,1201.4 1352.3,1211.4 1363.0,1220.2 1373.6,1227.8 1383.9,1234.0 1394.0,1239.0 1403.8,1242.5 1413.3,1244.7 1422.4,1245.4 1431.3,1244.7 1439.8,1242.6 1447.9,1239.0 1455.6,1234.0 1462.9,1227.6 1469.9,1219.9 1476.4,1210.8 1482.6,1200.4 1488.3,1188.7 1493.6,1175.8 1498.4,1161.8 1502.9,1146.8 1507.0,1130.7 1510.6,1113.7 1513.9,1096.0 1516.8,1077.4 1519.3,1058.3 1521.4,1038.7 1523.2,1018.7 1524.7,998.5 1525.8,978.1  Z" style="stroke-width: 0.5;  stroke: rgb(0,0,0); fill: rgb(179,177,178);" />
<path d="M 2020.808,1457.981 A 522.500,522.500 0.00 0,1 2021.6,1468.7 L 2021.6,1468.7 1995.6,1470.3 1969.6,1472.1 1943.5,1474.0 1917.2,1476.1 1891.0,1478.3 1864.6,1480.7 1838.2,1483.3 1811.7,1486.1 1785.2,1489.0 1758.7,1492.1 1732.1,1495.5 1705.5,1499.0 1678.9,1502.7 1652.3,1506.6 1625.6,1510.7 1599.0,1514.9 1572.4,1519.4 1545.8,1524.1 1519.3,1529.0 1492.8,1534.1 1466.3,1539.3 1439.9,1544.8 1413.5,1550.4 1387.2,1556.3 1360.9,1562.3 1334.7,1568.5 1308.6,1574.9 1282.6,1581.5 1256.7,1588.2 1230.9,1595.1 1205.2,1602.1 1179.5,1609.4 1154.0,1616.7 1128.7,1624.2 1103.4,1631.8 1078.3,1639.6 1053.3,1647.4 1028.4,1655.4 1003.7,1663.5  A 522.500,522.500 0.00 0,1 1000.6,1653.5 L 1000.6,1653.5 1025.5,1645.9 1050.6,1638.4 1075.9,1630.9 1101.2,1623.6 1126.7,1616.3 1152.2,1609.2 1177.9,1602.2 1203.6,1595.3 1229.5,1588.6 1255.4,1582.0 1281.4,1575.5 1307.5,1569.1 1333.7,1563.0 1359.9,1556.9 1386.2,1551.0 1412.5,1545.3 1438.9,1539.7 1465.3,1534.3 1491.8,1529.1 1518.3,1524.0 1544.9,1519.1 1571.5,1514.3 1598.0,1509.7 1624.6,1505.3 1651.2,1501.1 1677.8,1497.0 1704.4,1493.1 1731.0,1489.3 1757.6,1485.7 1784.1,1482.3 1810.6,1479.0 1837.1,1475.9 1863.5,1472.9 1889.9,1470.1 1916.2,1467.4 1942.5,1464.8 1968.7,1462.4 1994.8,1460.1 2020.8,1458.0  Z" style="stroke-width: 0.5;  stroke: rgb(0,0,0); fill: rgb(179,177,178);" />
<path d="M 1815.154,1916.754 A 522.500,522.500 0.00 0,1 1807.0,1922.8 L 1807.0,1922.8 1794.5,1906.0 1781.7,1889.4 1768.4,1873.3 1754.9,1857.7 1741.1,1842.6 1727.1,1828.3 1712.9,1814.8 1698.5,1802.1 1684.0,1790.4 1669.3,1779.7 1654.6,1770.1 1639.9,1761.6 1625.1,1754.3 1610.4,1748.3 1595.6,1743.5 1581.0,1739.9 1566.4,1737.7 1552.0,1736.9 1537.7,1737.3 1523.5,1739.2 1509.6,1742.3 1495.8,1746.8 1482.3,1752.6 1469.0,1759.7 1456.0,1768.1 1443.2,1777.7 1430.8,1788.5 1418.6,1800.4 1406.8,1813.4 1395.4,1827.5 1384.3,1842.5 1373.5,1858.4 1363.2,1875.0 1353.3,1892.4 1343.7,1910.5 1334.6,1929.0 1325.9,1948.0 1317.6,1967.2 1309.8,1986.6  A 522.500,522.500 0.00 0,1 1300.4,1982.9 L 1300.4,1982.9 1308.6,1963.5 1317.3,1944.4 1326.4,1925.5 1336.0,1907.1 1346.0,1889.2 1356.4,1871.9 1367.2,1855.3 1378.4,1839.5 1389.9,1824.5 1401.9,1810.6 1414.2,1797.6 1426.8,1785.7 1439.7,1775.0 1452.9,1765.4 1466.4,1757.0 1480.2,1749.9 1494.2,1744.1 1508.5,1739.6 1522.9,1736.4 1537.5,1734.5 1552.3,1733.9 1567.3,1734.7 1582.3,1736.8 1597.4,1740.2 1612.6,1744.9 1627.8,1750.8 1643.1,1757.9 1658.3,1766.3 1673.4,1775.7 1688.5,1786.2 1703.4,1797.7 1718.3,1810.2 1732.9,1823.5 1747.3,1837.6 1761.5,1852.4 1775.4,1867.9 1789.0,1883.8 1802.3,1900.1 1815.2,1916.8  Z" style="stroke-width: 0.5;  stroke: rgb(0,0,0); fill: rgb(179,177,178);" />
<path d="M 1997.785,1341.205 A 522.500,522.500 0.00 0,1 2000.4,1349.7 L 2000.4,1349.7 1975.3,1357.2 1950.0,1364.7 1924.7,1372.0 1899.2,1379.3 1873.7,1386.5 1848.1,1393.6 1822.4,1400.6 1796.6,1407.5 1770.7,1414.3 1744.8,1421.0 1718.8,1427.5 1692.7,1434.0 1666.6,1440.3 1640.4,1446.5 1614.2,1452.6 1587.9,1458.6 1561.5,1464.4 1535.2,1470.1 1508.8,1475.7 1482.3,1481.1 1455.9,1486.4 1429.4,1491.6 1402.9,1496.6 1376.4,1501.5 1349.9,1506.3 1323.4,1510.9 1296.9,1515.4 1270.4,1519.7 1243.9,1523.9 1217.4,1528.0 1191.0,1532.0 1164.5,1535.8 1138.2,1539.5 1111.8,1543.1 1085.5,1546.5 1059.3,1549.9 1033.1,1553.1 1006.9,1556.3 980.9,1559.3  A 522.500,522.500 0.00 0,1 979.9,1550.4 L 979.9,1550.4 1005.9,1547.8 1032.0,1545.1 1058.2,1542.3 1084.4,1539.3 1110.7,1536.2 1137.0,1533.0 1163.4,1529.6 1189.8,1526.1 1216.3,1522.4 1242.8,1518.6 1269.3,1514.6 1295.8,1510.5 1322.4,1506.1 1348.9,1501.7 1375.5,1497.1 1402.0,1492.3 1428.5,1487.3 1455.0,1482.2 1481.5,1476.9 1507.9,1471.5 1534.3,1465.9 1560.7,1460.1 1587.0,1454.2 1613.3,1448.2 1639.5,1442.0 1665.7,1435.6 1691.7,1429.1 1717.7,1422.4 1743.7,1415.6 1769.5,1408.7 1795.3,1401.7 1821.0,1394.5 1846.6,1387.2 1872.0,1379.8 1897.4,1372.2 1922.7,1364.6 1947.8,1356.9 1972.9,1349.1 1997.8,1341.2  Z" style="stroke-width: 0.5;  stroke: rgb(0,0,0); fill: rgb(179,177,178);" />
<path d="M 2021.202,1536.809 A 522.500,522.500 0.00 0,1 2020.5,1545.7 L 2020.5,1545.7 1995.5,1543.6 1970.3,1541.9 1944.9,1540.4 1919.4,1539.2 1893.6,1538.3 1867.8,1537.7 1841.8,1537.5 1815.7,1537.7 1789.5,1538.2 1763.2,1539.1 1736.9,1540.4 1710.5,1542.1 1684.1,1544.2 1657.7,1546.7 1631.3,1549.6 1604.9,1552.9 1578.6,1556.6 1552.2,1560.8 1526.0,1565.3 1499.8,1570.3 1473.7,1575.7 1447.7,1581.5 1421.8,1587.7 1396.0,1594.3 1370.4,1601.3 1344.9,1608.6 1319.5,1616.4 1294.4,1624.4 1269.4,1632.9 1244.7,1641.7 1220.1,1650.8 1195.8,1660.2 1171.7,1669.9 1147.8,1679.9 1124.2,1690.2 1100.8,1700.6 1077.8,1711.3 1055.0,1722.2 1032.5,1733.3  A 522.500,522.500 0.00 0,1 1028.6,1725.3 L 1028.6,1725.3 1051.3,1714.5 1074.4,1704.0 1097.7,1693.6 1121.3,1683.4 1145.1,1673.5 1169.2,1663.8 1193.5,1654.3 1218.0,1645.1 1242.7,1636.3 1267.6,1627.7 1292.7,1619.4 1318.0,1611.5 1343.5,1603.9 1369.1,1596.7 1394.8,1589.8 1420.7,1583.3 1446.7,1577.2 1472.8,1571.4 1498.9,1566.1 1525.2,1561.1 1551.5,1556.5 1577.9,1552.3 1604.3,1548.5 1630.8,1545.0 1657.3,1542.0 1683.7,1539.3 1710.2,1537.1 1736.6,1535.2 1763.0,1533.6 1789.3,1532.5 1815.6,1531.7 1841.7,1531.2 1867.8,1531.1 1893.8,1531.3 1919.6,1531.8 1945.2,1532.7 1970.8,1533.8 1996.1,1535.2 2021.2,1536.8  Z" style="stroke-width: 0.5;  stroke: rgb(0,0,0); fill: rgb(179,177,178);" />
<path d="M 2022.495,1502.186 A 522.500,522.500 0.00 0,1 2022.4,1510.9 L 2022.4,1510.9 1996.9,1510.5 1971.3,1510.3 1945.5,1510.3 1919.6,1510.6 1893.5,1511.1 1867.4,1511.9 1841.1,1513.0 1814.8,1514.3 1788.4,1515.9 1761.9,1517.8 1735.4,1520.1 1708.9,1522.6 1682.3,1525.4 1655.7,1528.6 1629.2,1532.0 1602.6,1535.8 1576.1,1539.9 1549.6,1544.3 1523.1,1549.1 1496.7,1554.1 1470.3,1559.5 1444.1,1565.2 1417.9,1571.2 1391.8,1577.5 1365.8,1584.1 1340.0,1591.0 1314.2,1598.2 1288.7,1605.6 1263.2,1613.4 1237.9,1621.4 1212.8,1629.6 1187.8,1638.1 1163.0,1646.8 1138.4,1655.7 1114.0,1664.9 1089.9,1674.2 1065.9,1683.7 1042.1,1693.4 1018.6,1703.2  A 522.500,522.500 0.00 0,1 1015.4,1695.3 L 1015.4,1695.3 1039.1,1685.8 1063.1,1676.5 1087.3,1667.3 1111.7,1658.3 1136.3,1649.5 1161.0,1640.8 1186.0,1632.4 1211.1,1624.1 1236.3,1616.1 1261.8,1608.3 1287.3,1600.8 1313.0,1593.5 1338.8,1586.5 1364.8,1579.7 1390.8,1573.2 1417.0,1567.0 1443.2,1561.1 1469.5,1555.4 1495.9,1550.1 1522.3,1545.0 1548.8,1540.2 1575.4,1535.7 1601.9,1531.5 1628.5,1527.6 1655.1,1524.0 1681.7,1520.7 1708.3,1517.7 1734.9,1515.0 1761.4,1512.5 1787.9,1510.3 1814.3,1508.4 1840.7,1506.8 1867.0,1505.4 1893.2,1504.3 1919.3,1503.4 1945.3,1502.8 1971.2,1502.4 1996.9,1502.2 2022.5,1502.2  Z" style="stroke-width: 0.5;  stroke: rgb(0,0,0); fill: rgb(179,177,178);" />
<path d="M 1925.951,1802.608 A 522.500,522.500 0.00 0,1 1921.0,1809.5 L 1921.0,1809.5 1902.9,1796.6 1884.4,1784.0 1865.5,1771.8 1846.2,1760.2 1826.6,1749.2 1806.7,1738.8 1786.6,1729.1 1766.2,1720.2 1745.6,1712.1 1724.9,1704.9 1704.0,1698.5 1683.0,1693.1 1662.0,1688.7 1640.9,1685.3 1619.8,1682.9 1598.8,1681.5 1577.8,1681.2 1556.9,1681.9 1536.1,1683.7 1515.4,1686.6 1494.9,1690.5 1474.6,1695.5 1454.5,1701.6 1434.6,1708.6 1415.0,1716.7 1395.7,1725.8 1376.6,1735.8 1357.9,1746.7 1339.6,1758.5 1321.6,1771.1 1304.0,1784.5 1286.8,1798.6 1270.1,1813.5 1253.8,1828.9 1237.9,1844.8 1222.6,1861.3 1207.7,1878.1 1193.3,1895.3 1179.5,1912.6  A 522.500,522.500 0.00 0,1 1173.0,1907.5 L 1173.0,1907.5 1187.2,1890.3 1201.9,1873.3 1217.1,1856.7 1232.8,1840.4 1248.9,1824.6 1265.6,1809.3 1282.6,1794.6 1300.1,1780.6 1318.0,1767.3 1336.3,1754.8 1355.0,1743.1 1374.0,1732.3 1393.3,1722.4 1412.9,1713.4 1432.9,1705.3 1453.0,1698.3 1473.4,1692.2 1494.1,1687.2 1514.9,1683.3 1535.8,1680.3 1556.9,1678.5 1578.1,1677.7 1599.4,1677.9 1620.7,1679.1 1642.1,1681.4 1663.4,1684.7 1684.7,1689.0 1706.0,1694.2 1727.1,1700.4 1748.1,1707.4 1769.0,1715.3 1789.7,1724.0 1810.1,1733.4 1830.3,1743.5 1850.1,1754.3 1869.7,1765.7 1888.9,1777.6 1907.6,1789.9 1926.0,1802.6  Z" style="stroke-width: 0.5;  stroke: rgb(0,0,0); fill: rgb(179,177,178);" />
<path d="M 1809.745,1079.210 A 522.500,522.500 0.00 0,1 1816.5,1084.2 L 1816.5,1084.2 1802.6,1102.0 1788.2,1119.6 1773.3,1136.8 1757.9,1153.7 1742.0,1170.2 1725.5,1186.2 1708.7,1201.7 1691.3,1216.5 1673.5,1230.7 1655.3,1244.2 1636.6,1256.9 1617.6,1268.8 1598.1,1279.9 1578.4,1290.1 1558.3,1299.4 1537.8,1307.7 1517.1,1315.2 1496.1,1321.6 1474.9,1327.1 1453.4,1331.6 1431.8,1335.2 1410.0,1337.7 1388.0,1339.2 1365.9,1339.8 1343.8,1339.3 1321.6,1337.9 1299.3,1335.6 1277.1,1332.4 1254.9,1328.2 1232.8,1323.3 1210.8,1317.4 1189.0,1310.8 1167.3,1303.5 1145.8,1295.4 1124.6,1286.8 1103.7,1277.5 1083.1,1267.7 1062.8,1257.4 1043.0,1246.7  A 522.500,522.500 0.00 0,1 1047.1,1239.4 L 1047.1,1239.4 1066.7,1250.3 1086.7,1260.9 1107.1,1271.0 1127.7,1280.5 1148.7,1289.5 1170.0,1297.8 1191.4,1305.4 1213.0,1312.3 1234.8,1318.3 1256.7,1323.5 1278.6,1327.9 1300.6,1331.3 1322.6,1333.8 1344.5,1335.3 1366.4,1335.9 1388.2,1335.5 1409.9,1334.1 1431.5,1331.6 1452.9,1328.2 1474.0,1323.8 1495.0,1318.3 1515.7,1311.9 1536.1,1304.4 1556.3,1296.0 1576.1,1286.7 1595.6,1276.4 1614.7,1265.3 1633.4,1253.3 1651.8,1240.5 1669.7,1227.0 1687.2,1212.7 1704.2,1197.7 1720.8,1182.1 1736.9,1166.0 1752.5,1149.3 1767.6,1132.3 1782.2,1114.8 1796.2,1097.1 1809.7,1079.2  Z" style="stroke-width: 0.5;  stroke: rgb(0,0,0); fill: rgb(179,177,178);" />
</g>
<g id="plot0">
<g id="plot0-axis">
</g>
<line x1='2243.8' y1='1596.2' x2='2243.8' y2='1596.2' style="stroke-width:14.0;stroke:rgb(0,0,0);stroke-linecap:round;fill:none;" />
<line x1='2243.8' y1='1596.2' x2='2283.5' y2='1601.3' style="stroke-width:14.0;stroke:rgb(0,0,0);stroke-linecap:round;fill:none;" />
<line x1='2283.5' y1='1601.3' x2='2283.5' y2='1601.3' style="stroke-width:14.0;stroke:rgb(0,0,0);stroke-linecap:round;fill:none;" />
<text x="2300.1" y="1626.1" font-size="46.8px" font-family="CMUBright-Roman" style="text-anchor:start;fill:rgb(255,38,78);" transform="rotate(7.4,2300.1,1626.1)" >HistocapCB192<tspan baseline-shift="-40%" font-size="90%">s</tspan>00589</text>
</g>
<defs>
<pattern id="checker" width="10" height="10" patternTransform="rotate(45 0 0)" patternUnits="userSpaceOnUse"><line x1="0" y1="0" x2="10" y2="0" style="stroke:black;stroke-width:5" /><line x1="0" y1="0" x2="0" y2="10" style="stroke:black;stroke-width:4" /></pattern>
<pattern id="checker" width="10" height="10" patternTransform="rotate(45 0 0)" patternUnits="userSpaceOnUse"><line x1="0" y1="0" x2="10" y2="0" style="stroke:black;stroke-width:2" /><line x1="0" y1="0" x2="0" y2="10" style="stroke:black;stroke-width:2" /></pattern>
<pattern id="hline" width="10" height="10" patternTransform="rotate(0 0 0)" patternUnits="userSpaceOnUse"><line x1="0" y1="0" x2="10" y2="0" style="stroke:black;stroke-width:5" /></pattern>
<pattern id="hline-sparse" width="10" height="10" patternTransform="rotate(0 0 0)" patternUnits="userSpaceOnUse"><line x1="0" y1="0" x2="10" y2="0" style="stroke:black;stroke-width:2" /></pattern>
<pattern id="vline-sparse" width="10" height="10" patternTransform="rotate(0 0 0)" patternUnits="userSpaceOnUse"><line x1="0" y1="0" x2="0" y2="10" style="stroke:black;stroke-width:2" /></pattern>
<pattern id="vline" width="10" height="10" patternTransform="rotate(0 0 0)" patternUnits="userSpaceOnUse"><line x1="0" y1="0" x2="0" y2="10" style="stroke:black;stroke-width:5" /></pattern>
</defs>
</svg>
