<?xml version="1.0" encoding="utf-8" standalone="no"?>
<!DOCTYPE svg PUBLIC "-//W3C//DTD SVG 1.1//EN" "http://www.w3.org/Graphics/SVG/1.1/DTD/svg11.dtd">
<svg width="3000px" height="3000px" version="1.1" xmlns="http://www.w3.org/2000/svg" xmlns:xlink="http://www.w3.org/1999/xlink">
<g id="bg">
<rect x="0" y="0" width="3000px" height="3000px" style="fill:rgb(255,255,255);"/>
</g>
<g id="ideograms">
<path d="M1500.000,950.000 A550.000,550.000 40.000 1,1 1445.986,2047.341 L1426.344,2246.374 A750.000,750.000 0.000 1,0 1500.000,750.000 Z" style="stroke-width:2.0;stroke:rgb(0,0,0);stroke-linecap:round;fill:rgb(179,177,178);" />
<text x="2518.8" y="1550.1" font-size="46.8px" font-family="CMUBright-Roman" style="text-anchor:middle;fill:rgb(0,0,0);" transform="rotate(-87.2,2518.8,1550.1)" >HistocapH88<tspan baseline-shift="-40%" font-size="90%">C</tspan>P069102</text>
<line x1='1524.0' y1='750.4' x2='1524.4' y2='738.4' style="stroke-width:8.0;stroke:rgb(150,150,150);stroke-linecap:round;fill:none;" />
<line x1='1611.3' y1='758.3' x2='1613.1' y2='746.4' style="stroke-width:8.0;stroke:rgb(150,150,150);stroke-linecap:round;fill:none;" />
<line x1='1697.2' y1='776.4' x2='1700.4' y2='764.8' style="stroke-width:8.0;stroke:rgb(150,150,150);stroke-linecap:round;fill:none;" />
<line x1='1780.4' y1='804.4' x2='1784.8' y2='793.2' style="stroke-width:8.0;stroke:rgb(150,150,150);stroke-linecap:round;fill:none;" />
<text x="1802.3" y="787.5" font-size="41.6px" font-family="CMUBright-Roman" style="text-anchor:start;fill:rgb(150,150,150);" transform="rotate(292.0,1802.3,787.5)" >7450 kb</text>
<line x1='1859.7' y1='841.9' x2='1865.4' y2='831.3' style="stroke-width:8.0;stroke:rgb(150,150,150);stroke-linecap:round;fill:none;" />
<line x1='1934.1' y1='888.4' x2='1941.0' y2='878.6' style="stroke-width:8.0;stroke:rgb(150,150,150);stroke-linecap:round;fill:none;" />
<line x1='2002.5' y1='943.2' x2='2010.6' y2='934.3' style="stroke-width:8.0;stroke:rgb(150,150,150);stroke-linecap:round;fill:none;" />
<line x1='2064.1' y1='1005.7' x2='2073.1' y2='997.8' style="stroke-width:8.0;stroke:rgb(150,150,150);stroke-linecap:round;fill:none;" />
<line x1='2118.0' y1='1075.0' x2='2127.8' y2='1068.2' style="stroke-width:8.0;stroke:rgb(150,150,150);stroke-linecap:round;fill:none;" />
<text x="2145.6" y="1073.0" font-size="41.6px" font-family="CMUBright-Roman" style="text-anchor:start;fill:rgb(150,150,150);" transform="rotate(325.5,2145.6,1073.0)" >7500 kb</text>
<line x1='2163.4' y1='1150.1' x2='2174.0' y2='1144.5' style="stroke-width:8.0;stroke:rgb(150,150,150);stroke-linecap:round;fill:none;" />
<line x1='2199.7' y1='1229.9' x2='2210.9' y2='1225.6' style="stroke-width:8.0;stroke:rgb(150,150,150);stroke-linecap:round;fill:none;" />
<line x1='2226.4' y1='1313.5' x2='2238.1' y2='1310.5' style="stroke-width:8.0;stroke:rgb(150,150,150);stroke-linecap:round;fill:none;" />
<line x1='2243.2' y1='1399.6' x2='2255.1' y2='1398.0' style="stroke-width:8.0;stroke:rgb(150,150,150);stroke-linecap:round;fill:none;" />
<line x1='2249.9' y1='1487.1' x2='2261.9' y2='1486.9' style="stroke-width:8.0;stroke:rgb(150,150,150);stroke-linecap:round;fill:none;" />
<text x="2274.0" y="1500.7" font-size="41.6px" font-family="CMUBright-Roman" style="text-anchor:start;fill:rgb(150,150,150);" transform="rotate(359.0,2274.0,1500.7)" >7550 kb</text>
<line x1='2246.3' y1='1574.7' x2='2258.2' y2='1575.9' style="stroke-width:8.0;stroke:rgb(150,150,150);stroke-linecap:round;fill:none;" />
<line x1='2232.4' y1='1661.4' x2='2244.2' y2='1664.0' style="stroke-width:8.0;stroke:rgb(150,150,150);stroke-linecap:round;fill:none;" />
<line x1='2208.6' y1='1745.8' x2='2219.9' y2='1749.7' style="stroke-width:8.0;stroke:rgb(150,150,150);stroke-linecap:round;fill:none;" />
<line x1='2175.0' y1='1826.9' x2='2185.8' y2='1832.1' style="stroke-width:8.0;stroke:rgb(150,150,150);stroke-linecap:round;fill:none;" />
<line x1='2132.2' y1='1903.5' x2='2142.3' y2='1909.9' style="stroke-width:8.0;stroke:rgb(150,150,150);stroke-linecap:round;fill:none;" />
<text x="2144.8" y="1928.1" font-size="41.6px" font-family="CMUBright-Roman" style="text-anchor:start;fill:rgb(150,150,150);" transform="rotate(32.5,2144.8,1928.1)" >7600 kb</text>
<line x1='2080.8' y1='1974.5' x2='2090.1' y2='1982.1' style="stroke-width:8.0;stroke:rgb(150,150,150);stroke-linecap:round;fill:none;" />
<line x1='2021.4' y1='2039.1' x2='2029.7' y2='2047.7' style="stroke-width:8.0;stroke:rgb(150,150,150);stroke-linecap:round;fill:none;" />
<line x1='1954.9' y1='2096.3' x2='1962.1' y2='2105.9' style="stroke-width:8.0;stroke:rgb(150,150,150);stroke-linecap:round;fill:none;" />
<line x1='1882.1' y1='2145.4' x2='1888.2' y2='2155.7' style="stroke-width:8.0;stroke:rgb(150,150,150);stroke-linecap:round;fill:none;" />
<line x1='1804.1' y1='2185.6' x2='1809.0' y2='2196.5' style="stroke-width:8.0;stroke:rgb(150,150,150);stroke-linecap:round;fill:none;" />
<text x="1801.0" y="2213.1" font-size="41.6px" font-family="CMUBright-Roman" style="text-anchor:start;fill:rgb(150,150,150);" transform="rotate(66.1,1801.0,2213.1)" >7650 kb</text>
<line x1='1722.0' y1='2216.4' x2='1725.6' y2='2227.9' style="stroke-width:8.0;stroke:rgb(150,150,150);stroke-linecap:round;fill:none;" />
<line x1='1636.8' y1='2237.4' x2='1639.0' y2='2249.2' style="stroke-width:8.0;stroke:rgb(150,150,150);stroke-linecap:round;fill:none;" />
<line x1='1549.8' y1='2248.3' x2='1550.6' y2='2260.3' style="stroke-width:8.0;stroke:rgb(150,150,150);stroke-linecap:round;fill:none;" />
<line x1='1462.0' y1='2249.0' x2='1461.4' y2='2261.0' style="stroke-width:8.0;stroke:rgb(150,150,150);stroke-linecap:round;fill:none;" />
<g id="highlighttrack_0">
<path d="M2006.513,1285.653 A550.000,550.000 40.000 0,1 1983.014,1763.054 L2158.656,1858.710 A750.000,750.000 0.000 0,0 2190.700,1207.709 Z" style="stroke-width:14.0;stroke:rgb(0,0,0);stroke-linecap:round;fill:rgb(255,38,78);" />
</g>
<path d="M1500.000,950.000 A550.000,550.000 40.000 1,1 1445.986,2047.341 L1426.344,2246.374 A750.000,750.000 0.000 1,0 1500.000,750.000 Z" style="stroke-width:2.0;stroke:rgb(0,0,0);stroke-linecap:round;fill:none;" />
<path d="M1261.014,1995.364 A550.000,550.000 40.000 0,1 1310.817,983.560 L1242.024,795.764 A750.000,750.000 0.000 0,0 1174.109,2175.496 Z" style="stroke-width:2.0;stroke:rgb(0,0,0);stroke-linecap:round;fill:rgb(179,177,178);" />
<text x="526.2" y="1452.1" font-size="46.8px" font-family="CMUBright-Roman" style="text-anchor:middle;fill:rgb(0,0,0);" transform="rotate(-87.2,526.2,1452.1)" >HistocapES283Z<tspan baseline-shift="-40%" font-size="90%">5</tspan></text>
<line x1='1177.0' y1='823.1' x2='1171.8' y2='812.3' style="stroke-width:8.0;stroke:rgb(150,150,150);stroke-linecap:round;fill:none;" />
<line x1='1100.1' y1='865.5' x2='1093.7' y2='855.3' style="stroke-width:8.0;stroke:rgb(150,150,150);stroke-linecap:round;fill:none;" />
<line x1='1028.8' y1='916.5' x2='1021.2' y2='907.2' style="stroke-width:8.0;stroke:rgb(150,150,150);stroke-linecap:round;fill:none;" />
<line x1='963.9' y1='975.5' x2='955.3' y2='967.2' style="stroke-width:8.0;stroke:rgb(150,150,150);stroke-linecap:round;fill:none;" />
<line x1='906.3' y1='1041.7' x2='896.8' y2='1034.4' style="stroke-width:8.0;stroke:rgb(150,150,150);stroke-linecap:round;fill:none;" />
<text x="878.8" y="1038.2" font-size="41.6px" font-family="CMUBright-Roman" style="text-anchor:end;fill:rgb(150,150,150);" transform="rotate(37.7,878.8,1038.2)" >1800 kb</text>
<line x1='856.8' y1='1114.2' x2='846.5' y2='1108.0' style="stroke-width:8.0;stroke:rgb(150,150,150);stroke-linecap:round;fill:none;" />
<line x1='816.2' y1='1192.0' x2='805.2' y2='1187.0' style="stroke-width:8.0;stroke:rgb(150,150,150);stroke-linecap:round;fill:none;" />
<line x1='784.9' y1='1273.9' x2='773.4' y2='1270.3' style="stroke-width:8.0;stroke:rgb(150,150,150);stroke-linecap:round;fill:none;" />
<line x1='763.4' y1='1359.0' x2='751.6' y2='1356.7' style="stroke-width:8.0;stroke:rgb(150,150,150);stroke-linecap:round;fill:none;" />
<line x1='751.9' y1='1446.0' x2='740.0' y2='1445.1' style="stroke-width:8.0;stroke:rgb(150,150,150);stroke-linecap:round;fill:none;" />
<text x="727.1" y="1458.2" font-size="41.6px" font-family="CMUBright-Roman" style="text-anchor:end;fill:rgb(150,150,150);" transform="rotate(4.1,727.1,1458.2)" >1850 kb</text>
<line x1='750.8' y1='1533.7' x2='738.8' y2='1534.2' style="stroke-width:8.0;stroke:rgb(150,150,150);stroke-linecap:round;fill:none;" />
<line x1='759.8' y1='1621.0' x2='748.0' y2='1622.9' style="stroke-width:8.0;stroke:rgb(150,150,150);stroke-linecap:round;fill:none;" />
<line x1='779.0' y1='1706.6' x2='767.5' y2='1709.9' style="stroke-width:8.0;stroke:rgb(150,150,150);stroke-linecap:round;fill:none;" />
<line x1='808.1' y1='1789.4' x2='797.0' y2='1794.0' style="stroke-width:8.0;stroke:rgb(150,150,150);stroke-linecap:round;fill:none;" />
<line x1='846.6' y1='1868.2' x2='836.1' y2='1874.1' style="stroke-width:8.0;stroke:rgb(150,150,150);stroke-linecap:round;fill:none;" />
<text x="832.7" y="1892.1" font-size="41.6px" font-family="CMUBright-Roman" style="text-anchor:end;fill:rgb(150,150,150);" transform="rotate(-29.4,832.7,1892.1)" >1900 kb</text>
<line x1='894.1' y1='1942.0' x2='884.4' y2='1949.0' style="stroke-width:8.0;stroke:rgb(150,150,150);stroke-linecap:round;fill:none;" />
<line x1='949.8' y1='2009.7' x2='941.0' y2='2017.9' style="stroke-width:8.0;stroke:rgb(150,150,150);stroke-linecap:round;fill:none;" />
<line x1='1013.1' y1='2070.5' x2='1005.3' y2='2079.6' style="stroke-width:8.0;stroke:rgb(150,150,150);stroke-linecap:round;fill:none;" />
<line x1='1083.1' y1='2123.4' x2='1076.4' y2='2133.4' style="stroke-width:8.0;stroke:rgb(150,150,150);stroke-linecap:round;fill:none;" />
<line x1='1158.7' y1='2167.8' x2='1153.2' y2='2178.5' style="stroke-width:8.0;stroke:rgb(150,150,150);stroke-linecap:round;fill:none;" />
<text x="1160.3" y="2195.5" font-size="41.6px" font-family="CMUBright-Roman" style="text-anchor:end;fill:rgb(150,150,150);" transform="rotate(-62.9,1160.3,2195.5)" >1950 kb</text>
<path d="M1261.014,1995.364 A550.000,550.000 40.000 0,1 1310.817,983.560 L1242.024,795.764 A750.000,750.000 0.000 0,0 1174.109,2175.496 Z" style="stroke-width:2.0;stroke:rgb(0,0,0);stroke-linecap:round;fill:none;" />
</g>
<g id="track_0">
<path d="M 1946.887,1770.737 A 522.500,522.500 0.00 0,1 1912.8,1820.3 L 1912.8,1820.3 1895.2,1807.0 1877.2,1794.0 1858.8,1781.5 1840.0,1769.6 1820.9,1758.2 1801.5,1747.5 1781.8,1737.5 1761.9,1728.2 1741.9,1719.9 1721.6,1712.4 1701.3,1705.8 1680.9,1700.2 1660.4,1695.6 1639.9,1692.0 1619.4,1689.5 1599.0,1688.0 1578.6,1687.7 1558.3,1688.4 1538.1,1690.2 1518.1,1693.2 1498.3,1697.2 1478.6,1702.3 1459.2,1708.5 1440.0,1715.8 1421.1,1724.1 1402.5,1733.4 1384.2,1743.7 1366.3,1754.9 1348.7,1767.1 1331.5,1780.1 1314.7,1793.9 1298.3,1808.4 1282.3,1823.6 1266.8,1839.5 1251.7,1855.8 1237.2,1872.7 1223.1,1890.0 1209.6,1907.5 1196.5,1925.3  A 522.500,522.500 0.00 0,1 1149.8,1887.7 L 1149.8,1887.7 1165.1,1871.1 1181.0,1854.7 1197.4,1838.7 1214.3,1823.0 1231.6,1807.7 1249.4,1793.0 1267.7,1778.8 1286.4,1765.3 1305.4,1752.4 1324.9,1740.3 1344.7,1728.9 1364.8,1718.3 1385.3,1708.6 1406.1,1699.7 1427.1,1691.7 1448.4,1684.7 1469.9,1678.6 1491.7,1673.4 1513.6,1669.2 1535.6,1665.9 1557.8,1663.7 1580.1,1662.4 1602.5,1662.1 1624.9,1662.7 1647.4,1664.3 1669.8,1666.8 1692.2,1670.3 1714.6,1674.6 1736.8,1679.8 1758.9,1685.9 1780.9,1692.7 1802.6,1700.3 1824.2,1708.6 1845.5,1717.6 1866.5,1727.2 1887.1,1737.4 1907.5,1748.1 1927.4,1759.2 1946.9,1770.7  Z" style="stroke-width: 0.5;  stroke: rgb(0,0,0); fill: rgb(179,177,178);" />
<path d="M 1872.648,1133.750 A 522.500,522.500 0.00 0,1 1907.5,1173.0 L 1907.5,1173.0 1888.5,1188.0 1869.1,1202.8 1849.3,1217.4 1829.0,1231.7 1808.4,1245.8 1787.4,1259.5 1766.0,1272.8 1744.3,1285.8 1722.2,1298.3 1699.8,1310.4 1677.0,1322.0 1654.0,1333.1 1630.7,1343.7 1607.1,1353.8 1583.2,1363.3 1559.1,1372.3 1534.8,1380.7 1510.3,1388.5 1485.6,1395.7 1460.7,1402.4 1435.7,1408.4 1410.5,1413.8 1385.2,1418.6 1359.9,1422.7 1334.4,1426.3 1309.0,1429.3 1283.4,1431.7 1257.9,1433.4 1232.4,1434.7 1207.0,1435.3 1181.6,1435.4 1156.3,1435.0 1131.1,1434.0 1106.1,1432.5 1081.2,1430.6 1056.5,1428.2 1032.0,1425.4 1007.8,1422.2 983.9,1418.6  A 522.500,522.500 0.00 0,1 994.7,1367.1 L 994.7,1367.1 1017.6,1372.9 1040.8,1378.2 1064.3,1383.2 1088.1,1387.6 1112.1,1391.6 1136.2,1394.9 1160.6,1397.7 1185.1,1399.9 1209.6,1401.5 1234.3,1402.4 1259.0,1402.6 1283.7,1402.1 1308.4,1400.9 1333.1,1399.0 1357.7,1396.4 1382.2,1393.0 1406.5,1388.9 1430.8,1384.0 1454.9,1378.4 1478.8,1372.0 1502.5,1364.9 1525.9,1357.1 1549.2,1348.6 1572.1,1339.4 1594.8,1329.4 1617.1,1318.9 1639.2,1307.6 1660.8,1295.8 1682.2,1283.3 1703.1,1270.3 1723.7,1256.8 1743.9,1242.7 1763.6,1228.2 1782.9,1213.3 1801.8,1197.9 1820.2,1182.3 1838.2,1166.3 1855.7,1150.1 1872.6,1133.7  Z" style="stroke-width: 0.5;  stroke: rgb(0,0,0); fill: rgb(179,177,178);" />
<path d="M 1963.990,1259.750 A 522.500,522.500 0.00 0,1 1981.2,1296.4 L 1981.2,1296.4 1957.8,1306.2 1934.1,1315.8 1910.2,1325.3 1886.1,1334.5 1861.7,1343.6 1837.2,1352.4 1812.4,1361.1 1787.5,1369.4 1762.3,1377.5 1737.0,1385.4 1711.6,1392.9 1686.0,1400.2 1660.2,1407.2 1634.4,1413.8 1608.4,1420.2 1582.3,1426.2 1556.1,1431.9 1529.8,1437.2 1503.4,1442.3 1477.0,1447.0 1450.5,1451.3 1423.9,1455.3 1397.4,1459.0 1370.8,1462.3 1344.2,1465.3 1317.6,1467.9 1291.0,1470.3 1264.5,1472.2 1238.0,1473.9 1211.5,1475.2 1185.2,1476.3 1158.9,1477.0 1132.7,1477.4 1106.6,1477.6 1080.6,1477.4 1054.7,1477.0 1029.0,1476.4 1003.5,1475.4 978.1,1474.3  A 522.500,522.500 0.00 0,1 981.7,1434.0 L 981.7,1434.0 1006.4,1437.0 1031.4,1439.7 1056.5,1442.1 1081.9,1444.2 1107.4,1446.0 1133.1,1447.3 1159.0,1448.4 1184.9,1449.0 1211.0,1449.2 1237.1,1449.0 1263.4,1448.4 1289.6,1447.4 1315.9,1445.9 1342.3,1444.0 1368.6,1441.6 1394.9,1438.8 1421.2,1435.5 1447.5,1431.8 1473.7,1427.6 1499.8,1423.0 1525.8,1417.9 1551.8,1412.4 1577.6,1406.4 1603.3,1400.0 1628.8,1393.2 1654.2,1385.9 1679.4,1378.2 1704.5,1370.2 1729.3,1361.7 1753.9,1352.9 1778.3,1343.7 1802.5,1334.2 1826.4,1324.4 1850.0,1314.2 1873.4,1303.8 1896.5,1293.1 1919.3,1282.2 1941.8,1271.1 1964.0,1259.8  Z" style="stroke-width: 0.5;  stroke: rgb(0,0,0); fill: rgb(179,177,178);" />
<path d="M 1958.863,1749.901 A 522.500,522.500 0.00 0,1 1947.5,1769.6 L 1947.5,1769.6 1926.0,1756.8 1904.1,1744.1 1881.9,1731.6 1859.4,1719.2 1836.7,1707.1 1813.7,1695.2 1790.4,1683.5 1766.9,1672.1 1743.2,1661.0 1719.2,1650.2 1695.0,1639.7 1670.5,1629.6 1645.9,1619.7 1621.1,1610.3 1596.1,1601.1 1571.0,1592.4 1545.7,1584.0 1520.2,1576.0 1494.6,1568.4 1469.0,1561.2 1443.2,1554.3 1417.3,1547.9 1391.3,1541.9 1365.3,1536.3 1339.2,1531.0 1313.1,1526.2 1286.9,1521.8 1260.8,1517.7 1234.6,1514.1 1208.5,1510.8 1182.5,1507.9 1156.5,1505.4 1130.5,1503.2 1104.7,1501.4 1079.0,1499.9 1053.4,1498.7 1027.9,1497.9 1002.6,1497.3 977.5,1497.1  A 522.500,522.500 0.00 0,1 978.1,1474.3 L 978.1,1474.3 1003.5,1475.7 1029.0,1477.3 1054.6,1479.1 1080.4,1481.3 1106.3,1483.7 1132.2,1486.4 1158.3,1489.4 1184.4,1492.7 1210.5,1496.3 1236.7,1500.2 1262.9,1504.5 1289.1,1509.1 1315.3,1514.0 1341.5,1519.2 1367.7,1524.8 1393.8,1530.7 1419.9,1537.0 1445.9,1543.6 1471.9,1550.5 1497.7,1557.8 1523.5,1565.4 1549.1,1573.3 1574.6,1581.5 1600.0,1590.1 1625.2,1599.0 1650.3,1608.1 1675.3,1617.6 1700.1,1627.3 1724.6,1637.3 1749.0,1647.6 1773.2,1658.2 1797.2,1668.9 1821.0,1680.0 1844.6,1691.2 1867.9,1702.6 1891.0,1714.2 1913.9,1725.9 1936.5,1737.9 1958.9,1749.9  Z" style="stroke-width: 0.5;  stroke: rgb(0,0,0); fill: rgb(179,177,178);" />
<path d="M 1910.440,1823.335 A 522.500,522.500 0.00 0,1 1902.8,1832.7 L 1902.8,1832.7 1885.8,1819.0 1868.3,1805.6 1850.4,1792.7 1832.2,1780.3 1813.6,1768.5 1794.7,1757.3 1775.6,1746.9 1756.3,1737.3 1736.8,1728.5 1717.2,1720.7 1697.4,1713.8 1677.6,1707.9 1657.7,1703.0 1637.8,1699.2 1617.9,1696.4 1598.0,1694.8 1578.3,1694.2 1558.6,1694.8 1539.1,1696.6 1519.7,1699.5 1500.5,1703.5 1481.5,1708.6 1462.7,1714.8 1444.2,1722.2 1426.0,1730.6 1408.1,1740.0 1390.5,1750.5 1373.2,1761.9 1356.3,1774.2 1339.8,1787.5 1323.7,1801.5 1308.0,1816.3 1292.7,1831.8 1277.9,1847.9 1263.5,1864.6 1249.7,1881.8 1236.3,1899.4 1223.5,1917.3 1211.1,1935.4  A 522.500,522.500 0.00 0,1 1201.2,1928.6 L 1201.2,1928.6 1214.0,1910.7 1227.3,1893.0 1241.2,1875.7 1255.5,1858.7 1270.3,1842.2 1285.6,1826.3 1301.4,1810.9 1317.6,1796.3 1334.2,1782.4 1351.2,1769.3 1368.6,1757.1 1386.3,1745.8 1404.4,1735.5 1422.8,1726.1 1441.5,1717.7 1460.5,1710.4 1479.7,1704.2 1499.1,1699.0 1518.8,1695.0 1538.6,1692.0 1558.6,1690.2 1578.8,1689.5 1599.0,1689.8 1619.2,1691.3 1639.6,1693.9 1659.9,1697.5 1680.2,1702.2 1700.5,1707.8 1720.7,1714.5 1740.7,1722.1 1760.6,1730.5 1780.4,1739.8 1799.9,1749.9 1819.2,1760.7 1838.1,1772.2 1856.8,1784.3 1875.1,1796.9 1893.0,1809.9 1910.4,1823.3  Z" style="stroke-width: 0.5;  stroke: rgb(0,0,0); fill: rgb(179,177,178);" />
<path d="M 1938.798,1216.340 A 522.500,522.500 0.00 0,1 1945.1,1226.3 L 1945.1,1226.3 1924.0,1239.1 1902.5,1251.7 1880.7,1264.1 1858.6,1276.2 1836.1,1288.1 1813.3,1299.6 1790.3,1310.9 1766.9,1321.8 1743.3,1332.3 1719.4,1342.5 1695.3,1352.2 1670.9,1361.5 1646.3,1370.4 1621.5,1378.9 1596.5,1386.9 1571.4,1394.4 1546.0,1401.4 1520.5,1408.0 1494.9,1414.0 1469.2,1419.5 1443.4,1424.6 1417.5,1429.1 1391.5,1433.1 1365.4,1436.7 1339.4,1439.7 1313.3,1442.2 1287.2,1444.2 1261.2,1445.8 1235.2,1446.8 1209.2,1447.4 1183.4,1447.6 1157.6,1447.2 1131.9,1446.5 1106.4,1445.3 1081.1,1443.8 1055.9,1441.8 1030.9,1439.5 1006.2,1436.9 981.7,1433.9  A 522.500,522.500 0.00 0,1 983.3,1422.3 L 983.3,1422.3 1007.6,1425.8 1032.2,1428.9 1056.9,1431.7 1081.9,1434.1 1107.1,1436.1 1132.5,1437.7 1158.0,1438.9 1183.6,1439.6 1209.4,1439.8 1235.2,1439.6 1261.1,1438.8 1287.0,1437.6 1313.0,1435.8 1338.9,1433.5 1364.9,1430.7 1390.8,1427.3 1416.6,1423.4 1442.4,1419.0 1468.1,1414.0 1493.7,1408.5 1519.1,1402.4 1544.4,1395.9 1569.6,1388.8 1594.6,1381.2 1619.4,1373.1 1644.0,1364.5 1668.4,1355.4 1692.5,1345.9 1716.4,1335.9 1740.0,1325.5 1763.4,1314.6 1786.5,1303.4 1809.2,1291.9 1831.7,1280.0 1853.8,1267.8 1875.6,1255.3 1897.0,1242.5 1918.1,1229.5 1938.8,1216.3  Z" style="stroke-width: 0.5;  stroke: rgb(0,0,0); fill: rgb(179,177,178);" />
</g>
<g id="plot0">
<g id="plot0-axis">
</g>
<line x1='2244.9' y1='1587.6' x2='2244.9' y2='1587.6' style="stroke-width:14.0;stroke:rgb(0,0,0);stroke-linecap:round;fill:none;" />
<line x1='2244.9' y1='1587.6' x2='2284.6' y2='1592.3' style="stroke-width:14.0;stroke:rgb(0,0,0);stroke-linecap:round;fill:none;" />
<line x1='2284.6' y1='1592.3' x2='2284.6' y2='1592.3' style="stroke-width:14.0;stroke:rgb(0,0,0);stroke-linecap:round;fill:none;" />
<text x="2301.6" y="1616.4" font-size="46.8px" font-family="CMUBright-Roman" style="text-anchor:start;fill:rgb(255,38,78);" transform="rotate(6.7,2301.6,1616.4)" >HistocapH88<tspan baseline-shift="-40%" font-size="90%">s</tspan>01066</text>
</g>
<defs>
<pattern id="hline" width="10" height="10" patternTransform="rotate(0 0 0)" patternUnits="userSpaceOnUse"><line x1="0" y1="0" x2="10" y2="0" style="stroke:black;stroke-width:5" /></pattern>
<pattern id="vline-sparse" width="10" height="10" patternTransform="rotate(0 0 0)" patternUnits="userSpaceOnUse"><line x1="0" y1="0" x2="0" y2="10" style="stroke:black;stroke-width:2" /></pattern>
<pattern id="vline" width="10" height="10" patternTransform="rotate(0 0 0)" patternUnits="userSpaceOnUse"><line x1="0" y1="0" x2="0" y2="10" style="stroke:black;stroke-width:5" /></pattern>
<pattern id="checker" width="10" height="10" patternTransform="rotate(45 0 0)" patternUnits="userSpaceOnUse"><line x1="0" y1="0" x2="10" y2="0" style="stroke:black;stroke-width:2" /><line x1="0" y1="0" x2="0" y2="10" style="stroke:black;stroke-width:2" /></pattern>
<pattern id="checker" width="10" height="10" patternTransform="rotate(45 0 0)" patternUnits="userSpaceOnUse"><line x1="0" y1="0" x2="10" y2="0" style="stroke:black;stroke-width:5" /><line x1="0" y1="0" x2="0" y2="10" style="stroke:black;stroke-width:4" /></pattern>
<pattern id="hline-sparse" width="10" height="10" patternTransform="rotate(0 0 0)" patternUnits="userSpaceOnUse"><line x1="0" y1="0" x2="10" y2="0" style="stroke:black;stroke-width:2" /></pattern>
</defs>
</svg>
