<?xml version="1.0" encoding="utf-8" standalone="no"?>
<!DOCTYPE svg PUBLIC "-//W3C//DTD SVG 1.1//EN" "http://www.w3.org/Graphics/SVG/1.1/DTD/svg11.dtd">
<svg width="3000px" height="3000px" version="1.1" xmlns="http://www.w3.org/2000/svg" xmlns:xlink="http://www.w3.org/1999/xlink">
<g id="bg">
<rect x="0" y="0" width="3000px" height="3000px" style="fill:rgb(255,255,255);"/>
</g>
<g id="ideograms">
<path d="M1500.000,950.000 A550.000,550.000 40.000 0,1 1708.826,2008.814 L1784.762,2193.838 A750.000,750.000 0.000 0,0 1500.000,750.000 Z" style="stroke-width:2.0;stroke:rgb(0,0,0);stroke-linecap:round;fill:rgb(179,177,178);" />
<text x="2456.6" y="1311.3" font-size="46.8px" font-family="CMUBright-Roman" style="text-anchor:middle;fill:rgb(0,0,0);" transform="rotate(438.8,2456.6,1311.3)" >HistomissSECH86<tspan baseline-shift="-40%" font-size="90%">1</tspan></text>
<line x1='1560.7' y1='752.5' x2='1561.7' y2='740.5' style="stroke-width:8.0;stroke:rgb(150,150,150);stroke-linecap:round;fill:none;" />
<text x="1576.6" y="729.8" font-size="41.6px" font-family="CMUBright-Roman" style="text-anchor:start;fill:rgb(150,150,150);" transform="rotate(274.6,1576.6,729.8)" >2050 kb</text>
<line x1='1661.2' y1='767.5' x2='1663.8' y2='755.8' style="stroke-width:8.0;stroke:rgb(150,150,150);stroke-linecap:round;fill:none;" />
<line x1='1758.8' y1='796.1' x2='1763.0' y2='784.8' style="stroke-width:8.0;stroke:rgb(150,150,150);stroke-linecap:round;fill:none;" />
<line x1='1851.6' y1='837.5' x2='1857.3' y2='826.9' style="stroke-width:8.0;stroke:rgb(150,150,150);stroke-linecap:round;fill:none;" />
<line x1='1938.0' y1='891.2' x2='1945.0' y2='881.4' style="stroke-width:8.0;stroke:rgb(150,150,150);stroke-linecap:round;fill:none;" />
<line x1='2016.3' y1='956.0' x2='2024.6' y2='947.3' style="stroke-width:8.0;stroke:rgb(150,150,150);stroke-linecap:round;fill:none;" />
<text x="2042.9" y="948.3" font-size="41.6px" font-family="CMUBright-Roman" style="text-anchor:start;fill:rgb(150,150,150);" transform="rotate(313.5,2042.9,948.3)" >2100 kb</text>
<line x1='2085.1' y1='1030.8' x2='2094.5' y2='1023.3' style="stroke-width:8.0;stroke:rgb(150,150,150);stroke-linecap:round;fill:none;" />
<line x1='2143.2' y1='1114.3' x2='2153.5' y2='1108.1' style="stroke-width:8.0;stroke:rgb(150,150,150);stroke-linecap:round;fill:none;" />
<line x1='2189.5' y1='1204.8' x2='2200.5' y2='1200.1' style="stroke-width:8.0;stroke:rgb(150,150,150);stroke-linecap:round;fill:none;" />
<line x1='2223.1' y1='1300.8' x2='2234.6' y2='1297.6' style="stroke-width:8.0;stroke:rgb(150,150,150);stroke-linecap:round;fill:none;" />
<line x1='2243.4' y1='1400.4' x2='2255.2' y2='1398.8' style="stroke-width:8.0;stroke:rgb(150,150,150);stroke-linecap:round;fill:none;" />
<text x="2268.9" y="1411.1" font-size="41.6px" font-family="CMUBright-Roman" style="text-anchor:start;fill:rgb(150,150,150);" transform="rotate(352.4,2268.9,1411.1)" >2150 kb</text>
<line x1='2250.0' y1='1501.8' x2='2262.0' y2='1501.9' style="stroke-width:8.0;stroke:rgb(150,150,150);stroke-linecap:round;fill:none;" />
<line x1='2242.9' y1='1603.2' x2='2254.7' y2='1604.9' style="stroke-width:8.0;stroke:rgb(150,150,150);stroke-linecap:round;fill:none;" />
<line x1='2222.1' y1='1702.8' x2='2233.6' y2='1706.0' style="stroke-width:8.0;stroke:rgb(150,150,150);stroke-linecap:round;fill:none;" />
<line x1='2188.0' y1='1798.5' x2='2199.0' y2='1803.3' style="stroke-width:8.0;stroke:rgb(150,150,150);stroke-linecap:round;fill:none;" />
<line x1='2141.3' y1='1888.8' x2='2151.6' y2='1895.1' style="stroke-width:8.0;stroke:rgb(150,150,150);stroke-linecap:round;fill:none;" />
<text x="2154.5" y="1913.2" font-size="41.6px" font-family="CMUBright-Roman" style="text-anchor:start;fill:rgb(150,150,150);" transform="rotate(31.2,2154.5,1913.2)" >2200 kb</text>
<line x1='2082.8' y1='1972.0' x2='2092.2' y2='1979.6' style="stroke-width:8.0;stroke:rgb(150,150,150);stroke-linecap:round;fill:none;" />
<line x1='2013.7' y1='2046.5' x2='2021.9' y2='2055.2' style="stroke-width:8.0;stroke:rgb(150,150,150);stroke-linecap:round;fill:none;" />
<line x1='1935.0' y1='2110.9' x2='1942.0' y2='2120.7' style="stroke-width:8.0;stroke:rgb(150,150,150);stroke-linecap:round;fill:none;" />
<line x1='1848.4' y1='2164.2' x2='1854.0' y2='2174.8' style="stroke-width:8.0;stroke:rgb(150,150,150);stroke-linecap:round;fill:none;" />
<g id="highlighttrack_0">
<path d="M2037.426,1383.067 A550.000,550.000 40.000 0,1 2041.579,1404.125 L2238.517,1369.262 A750.000,750.000 0.000 0,0 2232.854,1340.546 Z" style="stroke-width:14.0;stroke:rgb(0,0,0);stroke-linecap:round;fill:rgb(255,38,78);" />
</g>
<path d="M1500.000,950.000 A550.000,550.000 40.000 0,1 1708.826,2008.814 L1784.762,2193.838 A750.000,750.000 0.000 0,0 1500.000,750.000 Z" style="stroke-width:2.0;stroke:rgb(0,0,0);stroke-linecap:round;fill:none;" />
<path d="M1490.368,2049.916 A550.000,550.000 40.000 0,1 1282.296,994.921 L1203.131,811.256 A750.000,750.000 0.000 0,0 1486.866,2249.885 Z" style="stroke-width:2.0;stroke:rgb(0,0,0);stroke-linecap:round;fill:rgb(179,177,178);" />
<text x="499.3" y="1697.4" font-size="46.8px" font-family="CMUBright-Roman" style="text-anchor:middle;fill:rgb(0,0,0);" transform="rotate(78.8,499.3,1697.4)" >HistocapCB064<tspan baseline-shift="-40%" font-size="90%">1</tspan></text>
<line x1='1182.0' y1='820.8' x2='1176.9' y2='809.9' style="stroke-width:8.0;stroke:rgb(150,150,150);stroke-linecap:round;fill:none;" />
<line x1='1093.0' y1='870.0' x2='1086.5' y2='859.9' style="stroke-width:8.0;stroke:rgb(150,150,150);stroke-linecap:round;fill:none;" />
<line x1='1011.6' y1='930.8' x2='1003.8' y2='921.7' style="stroke-width:8.0;stroke:rgb(150,150,150);stroke-linecap:round;fill:none;" />
<line x1='939.1' y1='1002.1' x2='930.1' y2='994.2' style="stroke-width:8.0;stroke:rgb(150,150,150);stroke-linecap:round;fill:none;" />
<text x="911.9" y="996.7" font-size="41.6px" font-family="CMUBright-Roman" style="text-anchor:end;fill:rgb(150,150,150);" transform="rotate(41.6,911.9,996.7)" >2250 kb</text>
<line x1='876.9' y1='1082.6' x2='866.9' y2='1075.9' style="stroke-width:8.0;stroke:rgb(150,150,150);stroke-linecap:round;fill:none;" />
<line x1='826.2' y1='1170.7' x2='815.4' y2='1165.4' style="stroke-width:8.0;stroke:rgb(150,150,150);stroke-linecap:round;fill:none;" />
<line x1='787.8' y1='1264.8' x2='776.4' y2='1261.0' style="stroke-width:8.0;stroke:rgb(150,150,150);stroke-linecap:round;fill:none;" />
<line x1='762.6' y1='1363.3' x2='750.8' y2='1361.1' style="stroke-width:8.0;stroke:rgb(150,150,150);stroke-linecap:round;fill:none;" />
<line x1='750.9' y1='1464.3' x2='738.9' y2='1463.7' style="stroke-width:8.0;stroke:rgb(150,150,150);stroke-linecap:round;fill:none;" />
<text x="726.3" y="1477.1" font-size="41.6px" font-family="CMUBright-Roman" style="text-anchor:end;fill:rgb(150,150,150);" transform="rotate(2.7,726.3,1477.1)" >2300 kb</text>
<line x1='752.9' y1='1565.9' x2='740.9' y2='1567.0' style="stroke-width:8.0;stroke:rgb(150,150,150);stroke-linecap:round;fill:none;" />
<line x1='768.7' y1='1666.3' x2='757.0' y2='1669.0' style="stroke-width:8.0;stroke:rgb(150,150,150);stroke-linecap:round;fill:none;" />
<line x1='797.9' y1='1763.7' x2='786.7' y2='1767.9' style="stroke-width:8.0;stroke:rgb(150,150,150);stroke-linecap:round;fill:none;" />
<line x1='840.0' y1='1856.3' x2='829.5' y2='1862.0' style="stroke-width:8.0;stroke:rgb(150,150,150);stroke-linecap:round;fill:none;" />
<line x1='894.3' y1='1942.2' x2='884.6' y2='1949.3' style="stroke-width:8.0;stroke:rgb(150,150,150);stroke-linecap:round;fill:none;" />
<text x="883.2" y="1967.6" font-size="41.6px" font-family="CMUBright-Roman" style="text-anchor:end;fill:rgb(150,150,150);" transform="rotate(-36.1,883.2,1967.6)" >2350 kb</text>
<line x1='959.6' y1='2020.1' x2='951.0' y2='2028.4' style="stroke-width:8.0;stroke:rgb(150,150,150);stroke-linecap:round;fill:none;" />
<line x1='1034.9' y1='2088.4' x2='1027.5' y2='2097.8' style="stroke-width:8.0;stroke:rgb(150,150,150);stroke-linecap:round;fill:none;" />
<line x1='1118.8' y1='2145.9' x2='1112.7' y2='2156.2' style="stroke-width:8.0;stroke:rgb(150,150,150);stroke-linecap:round;fill:none;" />
<line x1='1209.6' y1='2191.5' x2='1205.0' y2='2202.6' style="stroke-width:8.0;stroke:rgb(150,150,150);stroke-linecap:round;fill:none;" />
<line x1='1305.8' y1='2224.4' x2='1302.7' y2='2236.0' style="stroke-width:8.0;stroke:rgb(150,150,150);stroke-linecap:round;fill:none;" />
<text x="1313.2" y="2251.1" font-size="41.6px" font-family="CMUBright-Roman" style="text-anchor:end;fill:rgb(150,150,150);" transform="rotate(-75.0,1313.2,2251.1)" >2400 kb</text>
<line x1='1405.6' y1='2244.0' x2='1404.1' y2='2255.9' style="stroke-width:8.0;stroke:rgb(150,150,150);stroke-linecap:round;fill:none;" />
<path d="M1490.368,2049.916 A550.000,550.000 40.000 0,1 1282.296,994.921 L1203.131,811.256 A750.000,750.000 0.000 0,0 1486.866,2249.885 Z" style="stroke-width:2.0;stroke:rgb(0,0,0);stroke-linecap:round;fill:none;" />
</g>
<g id="track_0">
<path d="M 1878.142,1139.424 A 522.500,522.500 0.00 0,1 1946.9,1229.4 L 1946.9,1229.4 1925.8,1241.9 1904.4,1254.3 1882.5,1266.5 1860.4,1278.4 1837.9,1290.0 1815.1,1301.3 1792.0,1312.2 1768.6,1322.8 1744.9,1333.0 1720.9,1342.8 1696.8,1352.1 1672.3,1361.1 1647.7,1369.5 1622.8,1377.5 1597.8,1385.0 1572.6,1392.0 1547.2,1398.5 1521.7,1404.5 1496.1,1409.9 1470.3,1414.9 1444.5,1419.3 1418.6,1423.1 1392.6,1426.5 1366.6,1429.3 1340.6,1431.6 1314.5,1433.3 1288.5,1434.6 1262.5,1435.3 1236.6,1435.6 1210.7,1435.3 1185.0,1434.6 1159.3,1433.4 1133.8,1431.8 1108.4,1429.7 1083.2,1427.2 1058.2,1424.4 1033.5,1421.2 1008.9,1417.6 984.7,1413.7  A 522.500,522.500 0.00 0,1 1015.4,1304.7 L 1015.4,1304.7 1037.1,1313.2 1059.1,1321.3 1081.5,1328.9 1104.3,1336.1 1127.3,1342.7 1150.5,1348.8 1174.0,1354.2 1197.6,1359.0 1221.4,1363.1 1245.3,1366.6 1269.3,1369.3 1293.4,1371.2 1317.5,1372.4 1341.6,1372.7 1365.7,1372.3 1389.8,1371.1 1413.8,1369.0 1437.6,1366.2 1461.4,1362.5 1485.0,1357.9 1508.5,1352.6 1531.7,1346.4 1554.8,1339.5 1577.6,1331.7 1600.1,1323.2 1622.4,1314.0 1644.4,1304.0 1666.0,1293.3 1687.3,1281.9 1708.3,1269.9 1728.9,1257.2 1749.1,1244.0 1768.9,1230.3 1788.2,1216.1 1807.1,1201.4 1825.6,1186.4 1843.6,1171.0 1861.1,1155.3 1878.1,1139.4  Z" style="stroke-width: 0.5;  stroke: rgb(0,0,0); fill: rgb(179,177,178);" />
<path d="M 1548.236,979.731 A 522.500,522.500 0.00 0,1 1643.3,997.5 L 1643.3,997.5 1637.4,1017.4 1631.2,1037.1 1624.5,1056.5 1617.5,1075.5 1610.0,1094.0 1602.2,1111.8 1594.0,1129.0 1585.5,1145.3 1576.6,1160.7 1567.3,1175.1 1557.7,1188.5 1547.7,1200.7 1537.5,1211.8 1526.9,1221.6 1516.0,1230.2 1504.8,1237.4 1493.4,1243.3 1481.7,1247.9 1469.8,1251.0 1457.7,1252.8 1445.4,1253.2 1432.9,1252.2 1420.3,1249.8 1407.5,1246.0 1394.7,1240.9 1381.7,1234.5 1368.7,1226.9 1355.7,1218.0 1342.6,1207.9 1329.6,1196.7 1316.7,1184.5 1303.8,1171.3 1291.1,1157.3 1278.5,1142.4 1266.1,1126.8 1253.9,1110.6 1242.0,1093.9 1230.3,1076.8 1219.0,1059.5  A 522.500,522.500 0.00 0,1 1293.2,1020.2 L 1293.2,1020.2 1301.3,1038.8 1309.7,1057.1 1318.2,1075.2 1326.9,1092.7 1335.6,1109.7 1344.5,1125.9 1353.4,1141.4 1362.2,1155.9 1371.1,1169.5 1380.0,1181.9 1388.8,1193.2 1397.5,1203.3 1406.1,1212.1 1414.5,1219.6 1422.9,1225.7 1431.0,1230.4 1439.0,1233.6 1446.8,1235.4 1454.3,1235.7 1461.7,1234.6 1468.8,1231.9 1475.6,1227.8 1482.2,1222.3 1488.5,1215.3 1494.5,1206.9 1500.3,1197.2 1505.7,1186.1 1510.9,1173.9 1515.7,1160.4 1520.3,1145.8 1524.5,1130.2 1528.5,1113.6 1532.2,1096.2 1535.6,1078.0 1538.6,1059.1 1541.4,1039.8 1544.0,1020.0 1546.2,999.9 1548.2,979.7  Z" style="stroke-width: 0.5;  stroke: rgb(0,0,0); fill: rgb(179,177,178);" />
<path d="M 1826.236,1908.138 A 522.500,522.500 0.00 0,1 1754.0,1956.6 L 1754.0,1956.6 1744.0,1938.9 1733.8,1921.4 1723.5,1904.3 1713.1,1887.7 1702.5,1871.7 1692.0,1856.4 1681.5,1842.0 1671.0,1828.4 1660.7,1815.8 1650.4,1804.3 1640.3,1793.9 1630.4,1784.8 1620.7,1776.9 1611.2,1770.3 1602.0,1765.1 1593.1,1761.2 1584.5,1758.8 1576.2,1757.8 1568.2,1758.2 1560.6,1760.1 1553.4,1763.4 1546.5,1768.2 1540.0,1774.4 1533.9,1782.0 1528.2,1790.9 1523.0,1801.2 1518.1,1812.7 1513.6,1825.4 1509.5,1839.3 1505.9,1854.3 1502.6,1870.2 1499.7,1887.1 1497.2,1904.9 1495.0,1923.3 1493.2,1942.4 1491.8,1961.9 1490.6,1981.9 1489.8,2002.1 1489.2,2022.4  A 522.500,522.500 0.00 0,1 1402.8,2013.4 L 1402.8,2013.4 1406.8,1993.0 1411.3,1972.8 1416.2,1952.9 1421.5,1933.3 1427.3,1914.2 1433.5,1895.6 1440.1,1877.8 1447.2,1860.7 1454.8,1844.5 1462.8,1829.2 1471.3,1815.0 1480.2,1801.8 1489.5,1789.8 1499.3,1778.9 1509.5,1769.3 1520.1,1760.9 1531.1,1753.9 1542.4,1748.2 1554.2,1743.8 1566.3,1740.8 1578.7,1739.2 1591.4,1738.9 1604.4,1740.0 1617.7,1742.4 1631.2,1746.1 1644.9,1751.1 1658.8,1757.4 1672.8,1764.9 1687.0,1773.5 1701.2,1783.3 1715.5,1794.0 1729.7,1805.8 1744.0,1818.5 1758.1,1831.9 1772.2,1846.1 1786.1,1861.0 1799.7,1876.3 1813.1,1892.1 1826.2,1908.1  Z" style="stroke-width: 0.5;  stroke: rgb(0,0,0); fill: rgb(179,177,178);" />
<path d="M 1909.748,1824.211 A 522.500,522.500 0.00 0,1 1858.7,1879.9 L 1858.7,1879.9 1844.1,1864.8 1829.2,1850.1 1814.0,1835.7 1798.6,1821.9 1782.9,1808.8 1767.2,1796.4 1751.3,1784.8 1735.3,1774.0 1719.3,1764.3 1703.3,1755.5 1687.4,1747.8 1671.6,1741.3 1655.9,1735.9 1640.4,1731.8 1625.0,1728.8 1609.9,1727.2 1595.0,1726.8 1580.4,1727.8 1566.1,1730.0 1552.1,1733.6 1538.5,1738.5 1525.2,1744.6 1512.3,1752.1 1499.8,1760.8 1487.7,1770.7 1476.1,1781.8 1464.9,1794.0 1454.1,1807.3 1443.8,1821.7 1434.0,1837.0 1424.6,1853.2 1415.8,1870.3 1407.4,1888.1 1399.4,1906.6 1392.0,1925.6 1385.0,1945.1 1378.6,1965.0 1372.5,1985.1 1367.0,2005.3  A 522.500,522.500 0.00 0,1 1295.5,1980.8 L 1295.5,1980.8 1304.2,1961.1 1313.4,1941.5 1323.1,1922.2 1333.3,1903.3 1344.1,1884.7 1355.3,1866.7 1367.1,1849.4 1379.4,1832.7 1392.2,1816.7 1405.5,1801.6 1419.2,1787.4 1433.4,1774.1 1448.1,1761.8 1463.2,1750.6 1478.7,1740.4 1494.6,1731.3 1510.9,1723.4 1527.6,1716.6 1544.6,1711.0 1561.9,1706.6 1579.5,1703.4 1597.4,1701.4 1615.5,1700.5 1633.8,1700.9 1652.3,1702.4 1670.9,1705.0 1689.7,1708.8 1708.5,1713.6 1727.4,1719.5 1746.3,1726.4 1765.1,1734.3 1783.9,1743.1 1802.6,1752.7 1821.1,1763.1 1839.4,1774.2 1857.5,1786.0 1875.3,1798.3 1892.7,1811.0 1909.7,1824.2  Z" style="stroke-width: 0.5;  stroke: rgb(0,0,0); fill: rgb(179,177,178);" />
<path d="M 1820.837,1087.605 A 522.500,522.500 0.00 0,1 1864.5,1125.6 L 1864.5,1125.6 1848.2,1142.1 1831.3,1158.3 1814.0,1174.2 1796.1,1189.8 1777.8,1205.1 1759.1,1219.8 1739.9,1234.1 1720.3,1247.8 1700.3,1261.0 1679.8,1273.6 1659.0,1285.4 1637.9,1296.6 1616.4,1307.1 1594.6,1316.9 1572.5,1325.8 1550.1,1334.0 1527.5,1341.4 1504.6,1347.9 1481.5,1353.6 1458.2,1358.5 1434.8,1362.5 1411.2,1365.7 1387.5,1368.0 1363.7,1369.5 1339.9,1370.2 1316.0,1370.0 1292.1,1369.0 1268.3,1367.2 1244.4,1364.7 1220.7,1361.4 1197.1,1357.4 1173.6,1352.6 1150.3,1347.2 1127.2,1341.2 1104.3,1334.6 1081.7,1327.5 1059.5,1319.8 1037.5,1311.7 1016.0,1303.2  A 522.500,522.500 0.00 0,1 1040.7,1250.9 L 1040.7,1250.9 1060.7,1261.4 1081.0,1271.6 1101.8,1281.2 1122.8,1290.3 1144.2,1298.9 1165.8,1306.8 1187.6,1314.0 1209.6,1320.4 1231.8,1326.1 1254.0,1331.0 1276.4,1335.0 1298.7,1338.2 1321.1,1340.4 1343.5,1341.7 1365.8,1342.0 1388.0,1341.4 1410.1,1339.8 1432.1,1337.3 1453.9,1333.7 1475.5,1329.2 1496.9,1323.7 1518.1,1317.2 1539.0,1309.8 1559.6,1301.5 1579.9,1292.2 1599.8,1282.0 1619.5,1271.0 1638.7,1259.2 1657.5,1246.5 1676.0,1233.2 1694.0,1219.1 1711.5,1204.3 1728.6,1189.0 1745.3,1173.1 1761.4,1156.7 1777.0,1139.9 1792.2,1122.7 1806.8,1105.3 1820.8,1087.6  Z" style="stroke-width: 0.5;  stroke: rgb(0,0,0); fill: rgb(179,177,178);" />
<path d="M 2019.448,1556.395 A 522.500,522.500 0.00 0,1 2010.1,1613.1 L 2010.1,1613.1 1986.5,1608.0 1962.5,1603.3 1938.3,1599.0 1913.8,1595.1 1889.1,1591.7 1864.2,1588.7 1839.1,1586.2 1813.9,1584.2 1788.6,1582.8 1763.1,1581.8 1737.6,1581.5 1712.1,1581.7 1686.5,1582.6 1660.9,1584.0 1635.3,1586.0 1609.7,1588.6 1584.2,1591.9 1558.8,1595.8 1533.5,1600.3 1508.2,1605.4 1483.2,1611.1 1458.2,1617.4 1433.5,1624.4 1408.9,1631.9 1384.5,1640.0 1360.4,1648.6 1336.5,1657.9 1312.9,1667.6 1289.5,1677.9 1266.4,1688.6 1243.7,1699.8 1221.2,1711.5 1199.1,1723.5 1177.3,1736.0 1155.9,1748.8 1134.9,1761.9 1114.3,1775.3 1094.0,1788.9 1074.2,1802.8  A 522.500,522.500 0.00 0,1 1043.5,1754.2 L 1043.5,1754.2 1065.3,1742.3 1087.5,1730.5 1109.9,1718.9 1132.6,1707.6 1155.7,1696.5 1179.0,1685.7 1202.6,1675.2 1226.4,1665.0 1250.5,1655.1 1274.9,1645.6 1299.4,1636.5 1324.2,1627.8 1349.2,1619.4 1374.3,1611.5 1399.6,1604.0 1425.1,1597.0 1450.8,1590.3 1476.5,1584.2 1502.4,1578.4 1528.4,1573.2 1554.4,1568.4 1580.5,1564.0 1606.7,1560.1 1632.9,1556.7 1659.2,1553.8 1685.4,1551.3 1711.7,1549.2 1737.9,1547.6 1764.1,1546.5 1790.2,1545.7 1816.2,1545.4 1842.1,1545.5 1868.0,1546.0 1893.7,1546.9 1919.2,1548.1 1944.6,1549.7 1969.7,1551.6 1994.7,1553.9 2019.4,1556.4  Z" style="stroke-width: 0.5;  stroke: rgb(0,0,0); fill: rgb(179,177,178);" />
<path d="M 1772.325,1054.079 A 522.500,522.500 0.00 0,1 1817.3,1084.9 L 1817.3,1084.9 1803.5,1102.6 1789.1,1120.1 1774.2,1137.2 1758.8,1154.1 1742.8,1170.5 1726.4,1186.3 1709.6,1201.7 1692.2,1216.4 1674.4,1230.4 1656.2,1243.7 1637.6,1256.2 1618.6,1267.9 1599.3,1278.8 1579.6,1288.8 1559.5,1297.9 1539.2,1306.0 1518.6,1313.1 1497.7,1319.3 1476.6,1324.5 1455.3,1328.7 1433.8,1331.9 1412.1,1334.1 1390.3,1335.2 1368.4,1335.4 1346.4,1334.6 1324.4,1332.8 1302.4,1330.1 1280.4,1326.4 1258.4,1321.9 1236.5,1316.5 1214.7,1310.2 1193.1,1303.1 1171.7,1295.3 1150.5,1286.8 1129.6,1277.7 1108.9,1268.0 1088.6,1257.7 1068.7,1247.0 1049.2,1235.8  A 522.500,522.500 0.00 0,1 1079.2,1190.3 L 1079.2,1190.3 1097.0,1203.1 1115.3,1215.5 1133.9,1227.4 1152.9,1238.8 1172.1,1249.6 1191.6,1259.8 1211.4,1269.1 1231.3,1277.7 1251.3,1285.4 1271.5,1292.2 1291.7,1298.1 1312.0,1302.9 1332.2,1306.8 1352.5,1309.6 1372.6,1311.3 1392.7,1312.0 1412.6,1311.5 1432.4,1310.0 1452.0,1307.3 1471.5,1303.4 1490.6,1298.5 1509.6,1292.5 1528.2,1285.4 1546.5,1277.2 1564.5,1267.9 1582.2,1257.7 1599.5,1246.4 1616.4,1234.3 1632.9,1221.2 1649.0,1207.3 1664.6,1192.5 1679.8,1177.1 1694.5,1160.9 1708.8,1144.2 1722.5,1126.9 1735.7,1109.2 1748.5,1091.1 1760.7,1072.7 1772.3,1054.1  Z" style="stroke-width: 0.5;  stroke: rgb(0,0,0); fill: rgb(179,177,178);" />
<path d="M 1643.950,997.720 A 522.500,522.500 0.00 0,1 1690.0,1013.3 L 1690.0,1013.3 1682.1,1033.0 1673.6,1052.6 1664.6,1071.9 1655.2,1090.9 1645.2,1109.4 1634.8,1127.3 1623.8,1144.6 1612.4,1161.1 1600.6,1176.8 1588.3,1191.7 1575.5,1205.6 1562.3,1218.6 1548.6,1230.5 1534.6,1241.2 1520.2,1250.9 1505.4,1259.4 1490.2,1266.7 1474.8,1272.7 1459.0,1277.6 1442.9,1281.1 1426.5,1283.5 1409.9,1284.5 1393.1,1284.4 1376.1,1282.9 1359.0,1280.3 1341.7,1276.5 1324.3,1271.5 1306.9,1265.4 1289.4,1258.2 1271.9,1249.9 1254.5,1240.7 1237.2,1230.6 1220.0,1219.5 1202.9,1207.7 1186.1,1195.2 1169.5,1182.1 1153.1,1168.4 1137.2,1154.2 1121.6,1139.7  A 522.500,522.500 0.00 0,1 1156.7,1106.1 L 1156.7,1106.1 1170.7,1121.7 1184.9,1137.1 1199.5,1152.0 1214.3,1166.3 1229.4,1180.1 1244.6,1193.1 1260.0,1205.3 1275.4,1216.6 1290.9,1227.0 1306.4,1236.3 1321.8,1244.6 1337.2,1251.7 1352.6,1257.6 1367.7,1262.4 1382.8,1265.8 1397.6,1268.0 1412.3,1268.9 1426.7,1268.5 1440.8,1266.7 1454.7,1263.6 1468.3,1259.2 1481.5,1253.5 1494.4,1246.5 1506.9,1238.2 1519.1,1228.7 1530.8,1218.0 1542.2,1206.1 1553.1,1193.1 1563.6,1179.1 1573.7,1164.1 1583.3,1148.1 1592.5,1131.3 1601.2,1113.8 1609.5,1095.5 1617.3,1076.7 1624.6,1057.4 1631.5,1037.7 1638.0,1017.8 1643.9,997.7  Z" style="stroke-width: 0.5;  stroke: rgb(0,0,0); fill: rgb(179,177,178);" />
<path d="M 2022.242,1483.580 A 522.500,522.500 0.00 0,1 2021.5,1532.0 L 2021.5,1532.0 1996.5,1530.6 1971.2,1529.5 1945.8,1528.7 1920.2,1528.2 1894.5,1527.9 1868.6,1528.1 1842.7,1528.6 1816.6,1529.4 1790.4,1530.6 1764.2,1532.2 1737.9,1534.2 1711.6,1536.6 1685.3,1539.4 1658.9,1542.6 1632.6,1546.2 1606.3,1550.2 1580.0,1554.6 1553.8,1559.4 1527.7,1564.7 1501.7,1570.3 1475.7,1576.4 1449.9,1582.9 1424.1,1589.8 1398.5,1597.1 1373.1,1604.7 1347.8,1612.7 1322.7,1621.2 1297.8,1629.9 1273.1,1639.0 1248.5,1648.5 1224.2,1658.2 1200.2,1668.3 1176.3,1678.6 1152.7,1689.3 1129.4,1700.1 1106.3,1711.2 1083.6,1722.5 1061.1,1734.1 1038.9,1745.7  A 522.500,522.500 0.00 0,1 1018.1,1701.9 L 1018.1,1701.9 1041.8,1692.1 1065.7,1682.4 1089.8,1672.9 1114.1,1663.4 1138.6,1654.2 1163.2,1645.1 1188.1,1636.2 1213.0,1627.5 1238.2,1619.1 1263.5,1610.8 1288.9,1602.8 1314.5,1595.0 1340.2,1587.4 1366.0,1580.1 1391.9,1573.0 1418.0,1566.2 1444.1,1559.7 1470.3,1553.4 1496.5,1547.4 1522.9,1541.7 1549.2,1536.3 1575.7,1531.1 1602.1,1526.2 1628.6,1521.6 1655.2,1517.2 1681.7,1513.2 1708.2,1509.4 1734.7,1505.8 1761.2,1502.6 1787.6,1499.6 1814.0,1496.9 1840.3,1494.4 1866.6,1492.2 1892.8,1490.2 1918.9,1488.4 1944.9,1486.9 1970.8,1485.6 1996.6,1484.5 2022.2,1483.6  Z" style="stroke-width: 0.5;  stroke: rgb(0,0,0); fill: rgb(179,177,178);" />
<path d="M 2014.500,1408.919 A 522.500,522.500 0.00 0,1 2020.7,1456.6 L 2020.7,1456.6 1994.6,1458.9 1968.5,1461.2 1942.3,1463.7 1916.0,1466.3 1889.7,1469.0 1863.3,1471.8 1836.8,1474.8 1810.4,1478.0 1783.8,1481.3 1757.3,1484.7 1730.7,1488.3 1704.1,1492.0 1677.5,1495.9 1650.9,1500.0 1624.3,1504.2 1597.7,1508.5 1571.1,1513.1 1544.5,1517.7 1518.0,1522.6 1491.5,1527.6 1465.0,1532.7 1438.5,1538.0 1412.1,1543.5 1385.7,1549.1 1359.4,1554.8 1333.1,1560.7 1306.9,1566.8 1280.8,1572.9 1254.7,1579.3 1228.8,1585.7 1202.9,1592.3 1177.0,1599.0 1151.3,1605.8 1125.7,1612.7 1100.2,1619.7 1074.7,1626.9 1049.4,1634.1 1024.2,1641.4 999.1,1648.8  A 522.500,522.500 0.00 0,1 987.6,1602.1 L 987.6,1602.1 1013.8,1596.9 1040.0,1591.7 1066.3,1586.5 1092.5,1581.3 1118.8,1576.1 1145.0,1571.0 1171.3,1565.8 1197.6,1560.7 1223.9,1555.5 1250.2,1550.4 1276.5,1545.3 1302.9,1540.2 1329.2,1535.2 1355.5,1530.1 1381.9,1525.1 1408.2,1520.1 1434.6,1515.0 1460.9,1510.1 1487.3,1505.1 1513.7,1500.1 1540.0,1495.2 1566.4,1490.2 1592.8,1485.3 1619.2,1480.4 1645.5,1475.6 1671.9,1470.7 1698.3,1465.9 1724.7,1461.0 1751.0,1456.2 1777.4,1451.4 1803.8,1446.6 1830.1,1441.9 1856.5,1437.1 1882.8,1432.4 1909.2,1427.7 1935.5,1423.0 1961.9,1418.3 1988.2,1413.6 2014.5,1408.9  Z" style="stroke-width: 0.5;  stroke: rgb(0,0,0); fill: rgb(179,177,178);" />
<path d="M 1998.499,1343.458 A 522.500,522.500 0.00 0,1 2010.6,1388.9 L 2010.6,1388.9 1984.4,1394.6 1958.3,1400.3 1932.2,1405.9 1906.0,1411.6 1879.8,1417.2 1853.7,1422.8 1827.5,1428.4 1801.3,1434.0 1775.1,1439.6 1748.9,1445.2 1722.6,1450.8 1696.4,1456.3 1670.2,1461.8 1643.9,1467.4 1617.7,1472.9 1591.4,1478.3 1565.1,1483.8 1538.9,1489.3 1512.6,1494.7 1486.3,1500.1 1460.0,1505.5 1433.8,1510.9 1407.5,1516.3 1381.2,1521.6 1354.9,1527.0 1328.6,1532.3 1302.3,1537.6 1276.1,1542.9 1249.8,1548.2 1223.5,1553.4 1197.2,1558.7 1170.9,1563.9 1144.7,1569.1 1118.4,1574.3 1092.1,1579.5 1065.9,1584.7 1039.6,1589.8 1013.4,1595.0 987.2,1600.1  A 522.500,522.500 0.00 0,1 980.3,1553.6 L 980.3,1553.6 1006.3,1550.8 1032.4,1548.0 1058.5,1545.0 1084.8,1541.9 1111.1,1538.7 1137.4,1535.3 1163.8,1531.8 1190.2,1528.2 1216.7,1524.4 1243.1,1520.4 1269.6,1516.4 1296.2,1512.1 1322.7,1507.8 1349.2,1503.2 1375.7,1498.5 1402.3,1493.7 1428.8,1488.7 1455.3,1483.6 1481.7,1478.2 1508.2,1472.8 1534.6,1467.2 1560.9,1461.4 1587.3,1455.5 1613.5,1449.5 1639.7,1443.3 1665.9,1436.9 1692.0,1430.5 1718.0,1423.8 1744.0,1417.1 1769.8,1410.2 1795.6,1403.2 1821.3,1396.1 1847.0,1388.9 1872.5,1381.6 1897.9,1374.1 1923.2,1366.6 1948.4,1359.0 1973.5,1351.2 1998.5,1343.5  Z" style="stroke-width: 0.5;  stroke: rgb(0,0,0); fill: rgb(179,177,178);" />
<path d="M 1982.917,1300.508 A 522.500,522.500 0.00 0,1 1998.0,1342.0 L 1998.0,1342.0 1973.2,1349.8 1948.2,1357.5 1923.1,1365.1 1897.9,1372.6 1872.6,1380.0 1847.1,1387.3 1821.5,1394.4 1795.8,1401.4 1770.0,1408.2 1744.1,1414.9 1718.1,1421.4 1692.1,1427.8 1665.9,1434.0 1639.7,1440.0 1613.4,1445.8 1587.1,1451.5 1560.6,1457.0 1534.2,1462.3 1507.7,1467.5 1481.1,1472.4 1454.6,1477.2 1428.0,1481.7 1401.3,1486.1 1374.7,1490.3 1348.1,1494.3 1321.4,1498.1 1294.8,1501.7 1268.2,1505.2 1241.6,1508.4 1215.0,1511.5 1188.5,1514.4 1162.0,1517.2 1135.6,1519.7 1109.2,1522.1 1082.9,1524.4 1056.7,1526.5 1030.5,1528.4 1004.4,1530.2 978.5,1531.8  A 522.500,522.500 0.00 0,1 977.6,1487.7 L 977.6,1487.7 1003.1,1488.2 1028.8,1488.4 1054.6,1488.5 1080.5,1488.3 1106.6,1487.9 1132.7,1487.2 1159.0,1486.2 1185.3,1484.9 1211.8,1483.4 1238.2,1481.6 1264.8,1479.5 1291.3,1477.1 1317.9,1474.3 1344.5,1471.3 1371.1,1467.9 1397.7,1464.3 1424.2,1460.3 1450.8,1456.0 1477.3,1451.4 1503.7,1446.5 1530.1,1441.3 1556.4,1435.7 1582.6,1429.9 1608.7,1423.7 1634.8,1417.3 1660.7,1410.5 1686.4,1403.5 1712.1,1396.2 1737.6,1388.6 1763.0,1380.8 1788.2,1372.7 1813.2,1364.4 1838.0,1355.9 1862.7,1347.1 1887.2,1338.1 1911.4,1329.0 1935.5,1319.6 1959.3,1310.1 1982.9,1300.5  Z" style="stroke-width: 0.5;  stroke: rgb(0,0,0); fill: rgb(179,177,178);" />
<path d="M 1953.148,1760.122 A 522.500,522.500 0.00 0,1 1930.8,1795.6 L 1930.8,1795.6 1912.6,1783.5 1894.1,1771.7 1875.1,1760.4 1855.9,1749.7 1836.3,1739.6 1816.6,1730.2 1796.7,1721.6 1776.6,1713.7 1756.5,1706.8 1736.3,1700.7 1716.1,1695.7 1695.9,1691.6 1675.7,1688.5 1655.6,1686.5 1635.7,1685.6 1615.9,1685.8 1596.2,1687.1 1576.8,1689.5 1557.6,1693.1 1538.7,1697.7 1520.1,1703.5 1501.8,1710.4 1483.8,1718.4 1466.2,1727.4 1448.9,1737.5 1432.1,1748.6 1415.7,1760.7 1399.7,1773.7 1384.1,1787.6 1369.1,1802.3 1354.5,1817.9 1340.3,1834.1 1326.7,1851.0 1313.6,1868.5 1301.0,1886.5 1289.0,1905.0 1277.5,1923.8 1266.5,1942.8 1256.0,1962.0  A 522.500,522.500 0.00 0,1 1219.8,1941.0 L 1219.8,1941.0 1231.9,1922.3 1244.6,1903.9 1257.9,1885.7 1271.7,1867.8 1286.0,1850.4 1300.8,1833.4 1316.1,1817.0 1332.0,1801.2 1348.3,1786.1 1365.0,1771.8 1382.2,1758.2 1399.9,1745.4 1418.0,1733.5 1436.4,1722.5 1455.3,1712.5 1474.5,1703.4 1494.0,1695.3 1513.9,1688.2 1534.1,1682.1 1554.5,1677.1 1575.2,1673.1 1596.1,1670.1 1617.1,1668.2 1638.4,1667.3 1659.7,1667.4 1681.2,1668.6 1702.7,1670.7 1724.3,1673.8 1745.9,1677.8 1767.4,1682.8 1788.8,1688.6 1810.2,1695.2 1831.4,1702.6 1852.4,1710.7 1873.2,1719.5 1893.7,1728.9 1913.9,1738.8 1933.7,1749.3 1953.1,1760.1  Z" style="stroke-width: 0.5;  stroke: rgb(0,0,0); fill: rgb(179,177,178);" />
<path d="M 1947.966,1231.052 A 522.500,522.500 0.00 0,1 1967.8,1267.3 L 1967.8,1267.3 1945.3,1278.3 1922.5,1289.2 1899.4,1299.9 1876.0,1310.4 1852.4,1320.6 1828.5,1330.6 1804.4,1340.3 1780.0,1349.7 1755.5,1358.8 1730.7,1367.6 1705.7,1376.0 1680.5,1384.1 1655.2,1391.9 1629.7,1399.3 1604.1,1406.3 1578.3,1412.9 1552.4,1419.1 1526.4,1424.9 1500.3,1430.3 1474.1,1435.3 1447.8,1439.9 1421.5,1444.1 1395.1,1447.9 1368.7,1451.3 1342.3,1454.2 1315.9,1456.8 1289.5,1458.9 1263.1,1460.6 1236.7,1462.0 1210.5,1463.0 1184.3,1463.6 1158.2,1463.8 1132.2,1463.7 1106.3,1463.2 1080.6,1462.4 1055.0,1461.3 1029.6,1459.9 1004.3,1458.2 979.3,1456.2  A 522.500,522.500 0.00 0,1 984.4,1415.3 L 984.4,1415.3 1008.7,1419.1 1033.3,1422.6 1058.1,1425.7 1083.1,1428.5 1108.3,1431.0 1133.7,1433.0 1159.2,1434.5 1184.9,1435.7 1210.7,1436.4 1236.6,1436.6 1262.5,1436.3 1288.6,1435.5 1314.6,1434.2 1340.7,1432.5 1366.7,1430.1 1392.7,1427.3 1418.7,1424.0 1444.7,1420.1 1470.5,1415.7 1496.3,1410.8 1522.0,1405.3 1547.5,1399.4 1572.9,1392.9 1598.1,1385.9 1623.2,1378.4 1648.1,1370.5 1672.7,1362.1 1697.2,1353.2 1721.4,1343.9 1745.4,1334.1 1769.1,1324.0 1792.6,1313.5 1815.7,1302.6 1838.6,1291.3 1861.1,1279.8 1883.4,1268.0 1905.3,1255.9 1926.8,1243.6 1948.0,1231.1  Z" style="stroke-width: 0.5;  stroke: rgb(0,0,0); fill: rgb(179,177,178);" />
<path d="M 1989.349,1683.149 A 522.500,522.500 0.00 0,1 1974.5,1718.8 L 1974.5,1718.8 1953.8,1709.5 1932.8,1700.7 1911.4,1692.4 1889.7,1684.6 1867.8,1677.4 1845.6,1670.9 1823.3,1665.1 1800.8,1660.0 1778.3,1655.7 1755.6,1652.2 1733.0,1649.5 1710.3,1647.7 1687.7,1646.8 1665.1,1646.8 1642.6,1647.8 1620.3,1649.7 1598.1,1652.6 1576.2,1656.4 1554.4,1661.1 1532.9,1666.9 1511.6,1673.5 1490.6,1681.2 1470.0,1689.7 1449.7,1699.1 1429.7,1709.5 1410.1,1720.7 1390.9,1732.7 1372.1,1745.5 1353.8,1759.1 1335.9,1773.3 1318.4,1788.3 1301.5,1803.9 1285.0,1820.1 1269.0,1836.7 1253.5,1853.9 1238.6,1871.4 1224.2,1889.2 1210.3,1907.3 1196.9,1925.6  A 522.500,522.500 0.00 0,1 1166.3,1902.1 L 1166.3,1902.1 1181.2,1884.5 1196.7,1867.2 1212.6,1850.0 1229.1,1833.2 1246.0,1816.8 1263.5,1800.8 1281.4,1785.2 1299.8,1770.2 1318.6,1755.8 1337.9,1742.0 1357.5,1728.8 1377.6,1716.4 1398.1,1704.7 1419.0,1693.7 1440.2,1683.5 1461.7,1674.1 1483.5,1665.5 1505.6,1657.8 1528.0,1650.9 1550.7,1644.9 1573.5,1639.7 1596.5,1635.4 1619.8,1632.0 1643.1,1629.5 1666.6,1627.8 1690.1,1627.0 1713.7,1627.0 1737.3,1627.8 1761.0,1629.4 1784.5,1631.9 1808.1,1635.0 1831.5,1638.9 1854.7,1643.5 1877.8,1648.7 1900.7,1654.5 1923.3,1661.0 1945.7,1667.9 1967.7,1675.3 1989.3,1683.1  Z" style="stroke-width: 0.5;  stroke: rgb(0,0,0); fill: rgb(179,177,178);" />
<path d="M 1930.426,1796.208 A 522.500,522.500 0.00 0,1 1910.0,1823.8 L 1910.0,1823.8 1893.0,1810.7 1875.5,1797.9 1857.7,1785.6 1839.6,1773.9 1821.3,1762.8 1802.8,1752.4 1784.1,1742.8 1765.3,1734.0 1746.4,1726.2 1727.5,1719.3 1708.5,1713.4 1689.7,1708.5 1670.9,1704.8 1652.2,1702.1 1633.7,1700.6 1615.3,1700.3 1597.2,1701.1 1579.3,1703.1 1561.6,1706.3 1544.3,1710.7 1527.2,1716.3 1510.5,1723.1 1494.1,1731.0 1478.2,1740.1 1462.6,1750.2 1447.5,1761.5 1432.7,1773.7 1418.5,1787.0 1404.7,1801.2 1391.3,1816.3 1378.5,1832.2 1366.1,1848.9 1354.3,1866.2 1342.9,1884.2 1332.1,1902.7 1321.8,1921.7 1312.0,1941.0 1302.8,1960.5 1294.1,1980.2  A 522.500,522.500 0.00 0,1 1262.9,1965.6 L 1262.9,1965.6 1273.1,1946.3 1283.8,1927.1 1295.0,1908.2 1306.7,1889.6 1319.0,1871.5 1331.8,1853.8 1345.2,1836.8 1359.0,1820.4 1373.3,1804.7 1388.1,1789.9 1403.4,1775.8 1419.1,1762.7 1435.3,1750.5 1451.9,1739.3 1468.9,1729.1 1486.3,1719.9 1504.0,1711.8 1522.1,1704.9 1540.5,1699.0 1559.3,1694.2 1578.3,1690.6 1597.5,1688.1 1617.0,1686.7 1636.6,1686.5 1656.4,1687.4 1676.4,1689.3 1696.4,1692.3 1716.5,1696.4 1736.6,1701.4 1756.7,1707.4 1776.8,1714.4 1796.7,1722.2 1816.6,1730.8 1836.2,1740.2 1855.7,1750.3 1874.9,1761.0 1893.8,1772.3 1912.3,1784.0 1930.4,1796.2  Z" style="stroke-width: 0.5;  stroke: rgb(0,0,0); fill: rgb(179,177,178);" />
<path d="M 2010.137,1612.990 A 522.500,522.500 0.00 0,1 2002.1,1644.6 L 2002.1,1644.6 1979.1,1638.3 1955.9,1632.3 1932.3,1626.7 1908.5,1621.5 1884.4,1616.9 1860.1,1612.7 1835.6,1609.1 1810.9,1606.1 1786.1,1603.7 1761.2,1601.9 1736.3,1600.7 1711.2,1600.2 1686.2,1600.4 1661.1,1601.2 1636.1,1602.7 1611.1,1605.0 1586.2,1607.9 1561.3,1611.5 1536.6,1615.9 1512.0,1620.9 1487.5,1626.6 1463.3,1633.1 1439.2,1640.2 1415.4,1648.0 1391.7,1656.5 1368.4,1665.6 1345.3,1675.3 1322.5,1685.6 1300.0,1696.5 1277.8,1708.0 1256.0,1720.0 1234.5,1732.5 1213.4,1745.4 1192.7,1758.8 1172.4,1772.5 1152.5,1786.6 1133.0,1801.1 1114.0,1815.7 1095.4,1830.6  A 522.500,522.500 0.00 0,1 1075.6,1804.7 L 1075.6,1804.7 1095.3,1790.8 1115.5,1777.0 1136.1,1763.6 1157.0,1750.3 1178.4,1737.5 1200.1,1724.9 1222.1,1712.8 1244.5,1701.1 1267.2,1689.8 1290.2,1679.0 1313.6,1668.6 1337.1,1658.8 1361.0,1649.5 1385.1,1640.8 1409.4,1632.6 1433.9,1625.1 1458.7,1618.1 1483.6,1611.7 1508.6,1605.9 1533.8,1600.7 1559.1,1596.2 1584.5,1592.2 1610.0,1588.9 1635.5,1586.3 1661.1,1584.2 1686.6,1582.7 1712.2,1581.9 1737.8,1581.6 1763.3,1581.9 1788.7,1582.8 1814.0,1584.2 1839.2,1586.2 1864.3,1588.7 1889.2,1591.7 1913.8,1595.1 1938.3,1599.0 1962.5,1603.3 1986.5,1608.0 2010.1,1613.0  Z" style="stroke-width: 0.5;  stroke: rgb(0,0,0); fill: rgb(179,177,178);" />
<path d="M 1857.621,1880.938 A 522.500,522.500 0.00 0,1 1834.5,1901.4 L 1834.5,1901.4 1821.0,1885.6 1807.3,1870.1 1793.2,1855.0 1779.0,1840.4 1764.6,1826.5 1750.1,1813.3 1735.5,1800.9 1720.9,1789.4 1706.3,1778.9 1691.7,1769.4 1677.2,1761.0 1662.8,1753.8 1648.6,1747.8 1634.6,1743.0 1620.8,1739.5 1607.2,1737.3 1593.9,1736.4 1580.9,1736.9 1568.2,1738.8 1555.9,1741.9 1543.9,1746.5 1532.2,1752.4 1521.0,1759.6 1510.2,1768.0 1499.8,1777.8 1489.8,1788.8 1480.3,1800.9 1471.2,1814.2 1462.6,1828.5 1454.5,1843.9 1446.8,1860.2 1439.5,1877.3 1432.8,1895.2 1426.4,1913.8 1420.6,1932.9 1415.2,1952.6 1410.2,1972.6 1405.7,1992.8 1401.6,2013.1  A 522.500,522.500 0.00 0,1 1371.4,2006.4 L 1371.4,2006.4 1376.8,1986.2 1382.6,1966.0 1388.9,1946.2 1395.7,1926.6 1402.9,1907.6 1410.6,1889.1 1418.8,1871.2 1427.5,1854.1 1436.7,1837.9 1446.3,1822.5 1456.5,1808.1 1467.0,1794.8 1478.1,1782.5 1489.5,1771.4 1501.4,1761.5 1513.8,1752.8 1526.5,1745.3 1539.6,1739.1 1553.1,1734.2 1566.9,1730.7 1581.1,1728.4 1595.5,1727.5 1610.3,1727.8 1625.3,1729.5 1640.5,1732.4 1655.9,1736.6 1671.5,1742.0 1687.2,1748.6 1703.0,1756.3 1718.9,1765.0 1734.8,1774.8 1750.7,1785.6 1766.5,1797.2 1782.2,1809.7 1797.8,1822.8 1813.1,1836.7 1828.3,1851.0 1843.1,1865.8 1857.6,1880.9  Z" style="stroke-width: 0.5;  stroke: rgb(0,0,0); fill: rgb(179,177,178);" />
<path d="M 1727.089,1029.429 A 522.500,522.500 0.00 0,1 1754.3,1043.5 L 1754.3,1043.5 1743.4,1062.5 1732.1,1081.2 1720.2,1099.7 1707.8,1117.7 1694.8,1135.4 1681.4,1152.5 1667.5,1168.9 1653.1,1184.7 1638.3,1199.8 1623.0,1214.0 1607.3,1227.4 1591.1,1239.8 1574.6,1251.3 1557.7,1261.8 1540.4,1271.2 1522.8,1279.6 1504.8,1286.8 1486.6,1293.0 1468.0,1298.0 1449.3,1301.9 1430.3,1304.6 1411.1,1306.2 1391.8,1306.6 1372.3,1305.9 1352.6,1304.1 1333.0,1301.2 1313.2,1297.2 1293.5,1292.2 1273.7,1286.2 1254.1,1279.2 1234.5,1271.2 1215.0,1262.4 1195.7,1252.8 1176.6,1242.4 1157.8,1231.4 1139.2,1219.7 1121.0,1207.5 1103.1,1194.8 1085.7,1181.7  A 522.500,522.500 0.00 0,1 1105.0,1158.0 L 1105.0,1158.0 1121.5,1171.9 1138.3,1185.4 1155.6,1198.5 1173.1,1211.0 1190.9,1223.0 1209.0,1234.2 1227.2,1244.6 1245.6,1254.2 1264.1,1262.9 1282.7,1270.7 1301.3,1277.4 1319.9,1283.1 1338.5,1287.7 1357.0,1291.2 1375.5,1293.5 1393.8,1294.7 1411.9,1294.7 1429.9,1293.5 1447.7,1291.0 1465.2,1287.4 1482.5,1282.6 1499.5,1276.6 1516.2,1269.4 1532.5,1261.1 1548.5,1251.6 1564.1,1241.1 1579.4,1229.5 1594.2,1216.9 1608.7,1203.3 1622.6,1188.8 1636.2,1173.5 1649.3,1157.4 1661.9,1140.6 1674.0,1123.1 1685.6,1105.1 1696.8,1086.7 1707.4,1067.8 1717.5,1048.7 1727.1,1029.4  Z" style="stroke-width: 0.5;  stroke: rgb(0,0,0); fill: rgb(179,177,178);" />
<path d="M 1970.909,1273.613 A 522.500,522.500 0.00 0,1 1982.8,1300.2 L 1982.8,1300.2 1959.2,1309.9 1935.4,1319.4 1911.3,1328.7 1887.1,1337.9 1862.6,1346.9 1838.0,1355.6 1813.1,1364.2 1788.1,1372.5 1762.9,1380.6 1737.6,1388.4 1712.1,1396.0 1686.4,1403.3 1660.6,1410.3 1634.7,1417.1 1608.7,1423.5 1582.6,1429.6 1556.4,1435.5 1530.1,1441.0 1503.7,1446.2 1477.3,1451.2 1450.8,1455.8 1424.2,1460.0 1397.7,1464.0 1371.1,1467.6 1344.5,1471.0 1317.9,1474.0 1291.3,1476.7 1264.7,1479.1 1238.2,1481.2 1211.7,1483.0 1185.3,1484.5 1159.0,1485.7 1132.7,1486.6 1106.6,1487.3 1080.5,1487.7 1054.6,1487.9 1028.8,1487.8 1003.1,1487.5 977.7,1486.9  A 522.500,522.500 0.00 0,1 979.2,1457.8 L 979.2,1457.8 1004.3,1459.7 1029.5,1461.3 1055.0,1462.7 1080.6,1463.8 1106.4,1464.5 1132.3,1465.0 1158.4,1465.1 1184.5,1464.8 1210.7,1464.2 1237.0,1463.3 1263.4,1461.9 1289.8,1460.2 1316.3,1458.1 1342.7,1455.6 1369.2,1452.8 1395.6,1449.5 1422.1,1445.8 1448.4,1441.7 1474.8,1437.2 1501.0,1432.4 1527.2,1427.1 1553.3,1421.4 1579.3,1415.4 1605.1,1408.9 1630.9,1402.1 1656.4,1395.0 1681.9,1387.4 1707.1,1379.5 1732.2,1371.3 1757.1,1362.8 1781.8,1353.9 1806.3,1344.7 1830.6,1335.3 1854.6,1325.6 1878.4,1315.6 1901.9,1305.4 1925.2,1295.0 1948.2,1284.4 1970.9,1273.6  Z" style="stroke-width: 0.5;  stroke: rgb(0,0,0); fill: rgb(179,177,178);" />
<path d="M 2000.734,1649.236 A 522.500,522.500 0.00 0,1 1992.7,1674.0 L 1992.7,1674.0 1970.8,1666.5 1948.6,1659.5 1926.1,1653.0 1903.3,1646.9 1880.2,1641.5 1857.0,1636.6 1833.5,1632.4 1810.0,1628.9 1786.3,1626.1 1762.6,1624.0 1738.8,1622.7 1715.1,1622.2 1691.3,1622.5 1667.7,1623.7 1644.1,1625.6 1620.6,1628.4 1597.3,1632.1 1574.2,1636.6 1551.2,1642.0 1528.5,1648.3 1506.0,1655.3 1483.8,1663.3 1461.8,1672.0 1440.2,1681.6 1418.9,1691.9 1398.0,1703.0 1377.4,1714.9 1357.3,1727.4 1337.5,1740.7 1318.1,1754.6 1299.2,1769.0 1280.8,1784.1 1262.8,1799.7 1245.2,1815.7 1228.2,1832.2 1211.7,1849.0 1195.6,1866.1 1180.1,1883.5 1165.1,1901.1  A 522.500,522.500 0.00 0,1 1145.6,1883.9 L 1145.6,1883.9 1161.6,1866.9 1178.1,1850.1 1195.2,1833.5 1212.7,1817.2 1230.7,1801.3 1249.1,1785.7 1268.1,1770.6 1287.4,1756.0 1307.2,1742.0 1327.4,1728.4 1348.0,1715.5 1369.0,1703.3 1390.3,1691.6 1412.0,1680.7 1434.0,1670.5 1456.4,1661.0 1479.0,1652.3 1501.9,1644.3 1525.0,1637.1 1548.4,1630.7 1572.0,1625.0 1595.8,1620.2 1619.7,1616.2 1643.7,1612.9 1667.9,1610.5 1692.1,1608.8 1716.4,1607.9 1740.7,1607.8 1765.0,1608.3 1789.3,1609.7 1813.5,1611.7 1837.6,1614.3 1861.6,1617.7 1885.4,1621.6 1909.0,1626.1 1932.4,1631.2 1955.5,1636.8 1978.3,1642.8 2000.7,1649.2  Z" style="stroke-width: 0.5;  stroke: rgb(0,0,0); fill: rgb(179,177,178);" />
<path d="M 1698.319,1016.600 A 522.500,522.500 0.00 0,1 1718.1,1025.2 L 1718.1,1025.2 1708.9,1044.6 1699.1,1063.9 1688.9,1082.9 1678.2,1101.5 1666.9,1119.6 1655.2,1137.2 1643.0,1154.2 1630.3,1170.5 1617.1,1185.9 1603.5,1200.6 1589.4,1214.3 1574.9,1227.0 1560.0,1238.8 1544.7,1249.4 1529.1,1259.0 1513.0,1267.5 1496.7,1274.8 1480.0,1280.9 1463.0,1285.8 1445.7,1289.5 1428.2,1292.0 1410.5,1293.3 1392.5,1293.4 1374.4,1292.3 1356.2,1290.0 1337.9,1286.5 1319.5,1282.0 1301.0,1276.3 1282.6,1269.6 1264.1,1261.8 1245.8,1253.1 1227.5,1243.5 1209.4,1233.1 1191.5,1221.9 1173.8,1209.9 1156.3,1197.4 1139.2,1184.3 1122.4,1170.7 1106.0,1156.8  A 522.500,522.500 0.00 0,1 1120.5,1140.9 L 1120.5,1140.9 1136.2,1155.3 1152.2,1169.5 1168.6,1183.1 1185.3,1196.3 1202.2,1208.8 1219.4,1220.6 1236.7,1231.6 1254.2,1241.7 1271.8,1250.9 1289.4,1259.2 1307.0,1266.4 1324.6,1272.5 1342.2,1277.5 1359.6,1281.4 1377.0,1284.0 1394.2,1285.5 1411.2,1285.7 1428.1,1284.7 1444.7,1282.4 1461.0,1278.9 1477.1,1274.1 1492.8,1268.2 1508.3,1261.0 1523.4,1252.6 1538.1,1243.0 1552.4,1232.3 1566.4,1220.5 1579.9,1207.7 1593.0,1193.9 1605.7,1179.1 1617.9,1163.5 1629.6,1147.1 1640.9,1129.9 1651.7,1112.1 1662.0,1093.8 1671.8,1074.9 1681.2,1055.7 1690.0,1036.2 1698.3,1016.6  Z" style="stroke-width: 0.5;  stroke: rgb(0,0,0); fill: rgb(179,177,178);" />
<path d="M 1964.045,1740.143 A 522.500,522.500 0.00 0,1 1955.0,1756.8 L 1955.0,1756.8 1935.5,1746.1 1915.5,1735.8 1895.2,1725.9 1874.5,1716.6 1853.6,1708.0 1832.5,1699.9 1811.2,1692.7 1789.7,1686.1 1768.1,1680.4 1746.4,1675.6 1724.7,1671.6 1703.0,1668.6 1681.3,1666.5 1659.7,1665.4 1638.1,1665.3 1616.7,1666.2 1595.5,1668.2 1574.4,1671.1 1553.5,1675.1 1532.9,1680.1 1512.6,1686.2 1492.5,1693.2 1472.7,1701.3 1453.3,1710.3 1434.2,1720.3 1415.5,1731.2 1397.2,1743.0 1379.3,1755.7 1361.8,1769.2 1344.8,1783.4 1328.3,1798.4 1312.2,1814.1 1296.6,1830.4 1281.5,1847.2 1266.9,1864.5 1252.9,1882.3 1239.3,1900.3 1226.3,1918.7 1213.9,1937.2  A 522.500,522.500 0.00 0,1 1198.2,1926.5 L 1198.2,1926.5 1211.4,1908.3 1225.2,1890.3 1239.5,1872.5 1254.3,1855.1 1269.6,1838.1 1285.5,1821.5 1301.8,1805.5 1318.6,1790.1 1335.9,1775.4 1353.6,1761.3 1371.8,1748.0 1390.4,1735.5 1409.4,1723.8 1428.8,1713.0 1448.5,1703.0 1468.6,1694.0 1489.1,1685.9 1509.8,1678.8 1530.8,1672.6 1552.0,1667.5 1573.5,1663.3 1595.2,1660.1 1617.0,1657.9 1639.0,1656.7 1661.1,1656.4 1683.3,1657.1 1705.6,1658.8 1727.8,1661.4 1750.1,1664.8 1772.3,1669.2 1794.4,1674.3 1816.4,1680.3 1838.3,1687.0 1860.0,1694.4 1881.4,1702.5 1902.6,1711.1 1923.4,1720.3 1943.9,1730.0 1964.0,1740.1  Z" style="stroke-width: 0.5;  stroke: rgb(0,0,0); fill: rgb(179,177,178);" />
<path d="M 2021.624,1469.765 A 522.500,522.500 0.00 0,1 2022.2,1481.7 L 2022.2,1481.7 1996.5,1482.7 1970.7,1483.9 1944.8,1485.3 1918.8,1486.9 1892.7,1488.7 1866.5,1490.8 1840.2,1493.1 1813.8,1495.6 1787.4,1498.4 1761.0,1501.4 1734.5,1504.7 1708.0,1508.3 1681.5,1512.1 1654.9,1516.2 1628.4,1520.6 1601.9,1525.2 1575.5,1530.1 1549.0,1535.3 1522.6,1540.7 1496.3,1546.4 1470.0,1552.4 1443.8,1558.7 1417.7,1565.2 1391.6,1571.9 1365.7,1579.0 1339.9,1586.2 1314.1,1593.7 1288.5,1601.5 1263.1,1609.4 1237.7,1617.6 1212.6,1626.0 1187.5,1634.7 1162.7,1643.5 1138.0,1652.5 1113.4,1661.6 1089.1,1670.9 1064.9,1680.4 1041.0,1690.0 1017.2,1699.8  A 522.500,522.500 0.00 0,1 1012.8,1688.7 L 1012.8,1688.7 1036.9,1679.4 1061.1,1670.3 1085.6,1661.3 1110.2,1652.4 1135.0,1643.6 1159.9,1635.1 1185.0,1626.6 1210.3,1618.4 1235.6,1610.3 1261.1,1602.4 1286.7,1594.7 1312.4,1587.2 1338.2,1579.9 1364.2,1572.8 1390.2,1566.0 1416.3,1559.3 1442.5,1552.9 1468.7,1546.7 1495.0,1540.8 1521.4,1535.1 1547.8,1529.6 1574.3,1524.3 1600.8,1519.3 1627.3,1514.5 1653.8,1510.0 1680.3,1505.7 1706.9,1501.6 1733.4,1497.8 1759.9,1494.2 1786.3,1490.8 1812.8,1487.6 1839.1,1484.7 1865.4,1482.0 1891.7,1479.5 1917.9,1477.1 1944.0,1475.0 1970.0,1473.1 1995.9,1471.3 2021.6,1469.8  Z" style="stroke-width: 0.5;  stroke: rgb(0,0,0); fill: rgb(179,177,178);" />
<path d="M 1703.174,1981.380 A 522.500,522.500 0.00 0,1 1698.4,1983.4 L 1698.4,1983.4 1690.6,1964.7 1682.7,1946.2 1674.6,1928.1 1666.5,1910.5 1658.3,1893.4 1650.1,1877.0 1641.9,1861.5 1633.7,1846.8 1625.6,1833.2 1617.6,1820.6 1609.7,1809.2 1601.9,1799.1 1594.3,1790.2 1586.9,1782.6 1579.7,1776.4 1572.7,1771.7 1565.9,1768.3 1559.4,1766.5 1553.2,1766.1 1547.2,1767.3 1541.5,1769.9 1536.1,1774.0 1531.0,1779.5 1526.2,1786.5 1521.8,1794.9 1517.6,1804.6 1513.8,1815.6 1510.2,1827.9 1507.0,1841.4 1504.1,1856.1 1501.5,1871.7 1499.2,1888.3 1497.2,1905.8 1495.5,1924.0 1494.1,1942.9 1492.9,1962.3 1492.0,1982.1 1491.3,2002.2 1490.8,2022.4  A 522.500,522.500 0.00 0,1 1490.8,2022.4 L 1490.8,2022.4 1491.3,2002.2 1492.0,1982.1 1492.9,1962.3 1494.1,1942.9 1495.5,1924.0 1497.3,1905.7 1499.3,1888.2 1501.7,1871.6 1504.3,1855.9 1507.3,1841.3 1510.6,1827.8 1514.2,1815.4 1518.1,1804.3 1522.4,1794.6 1526.9,1786.1 1531.8,1779.1 1537.0,1773.5 1542.6,1769.4 1548.4,1766.7 1554.5,1765.5 1560.9,1765.9 1567.5,1767.6 1574.5,1770.9 1581.6,1775.6 1589.0,1781.7 1596.6,1789.2 1604.4,1798.0 1612.3,1808.1 1620.4,1819.4 1628.6,1831.9 1636.9,1845.5 1645.3,1860.0 1653.7,1875.5 1662.1,1891.8 1670.5,1908.8 1678.8,1926.3 1687.1,1944.4 1695.2,1962.8 1703.2,1981.4  Z" style="stroke-width: 0.5;  stroke: rgb(0,0,0); fill: rgb(179,177,178);" />
<path d="M 1757.363,1045.280 A 522.500,522.500 0.00 0,1 1764.6,1049.5 L 1764.6,1049.5 1753.3,1068.2 1741.4,1086.8 1729.0,1105.0 1716.2,1123.0 1702.7,1140.4 1688.8,1157.3 1674.5,1173.6 1659.6,1189.3 1644.3,1204.2 1628.5,1218.3 1612.3,1231.5 1595.7,1243.9 1578.7,1255.3 1561.3,1265.7 1543.6,1275.1 1525.5,1283.4 1507.1,1290.6 1488.4,1296.8 1469.5,1301.9 1450.3,1305.8 1430.9,1308.6 1411.3,1310.2 1391.5,1310.8 1371.6,1310.2 1351.6,1308.6 1331.5,1305.8 1311.4,1302.0 1291.3,1297.2 1271.2,1291.4 1251.2,1284.6 1231.2,1276.9 1211.4,1268.3 1191.8,1259.0 1172.3,1248.9 1153.2,1238.1 1134.3,1226.7 1115.7,1214.7 1097.5,1202.3 1079.8,1189.5  A 522.500,522.500 0.00 0,1 1084.8,1182.8 L 1084.8,1182.8 1102.3,1195.9 1120.2,1208.5 1138.5,1220.7 1157.1,1232.4 1176.0,1243.4 1195.2,1253.8 1214.5,1263.3 1234.1,1272.1 1253.7,1280.0 1273.5,1287.0 1293.3,1293.0 1313.1,1298.0 1332.9,1302.0 1352.7,1304.9 1372.4,1306.7 1392.0,1307.4 1411.4,1307.0 1430.7,1305.4 1449.8,1302.7 1468.7,1298.8 1487.3,1293.8 1505.7,1287.7 1523.7,1280.5 1541.5,1272.1 1558.9,1262.7 1575.9,1252.3 1592.6,1240.9 1608.8,1228.5 1624.7,1215.2 1640.1,1201.0 1655.1,1186.0 1669.6,1170.3 1683.7,1153.8 1697.2,1136.8 1710.3,1119.2 1722.8,1101.2 1734.9,1082.8 1746.4,1064.1 1757.4,1045.3  Z" style="stroke-width: 0.5;  stroke: rgb(0,0,0); fill: rgb(179,177,178);" />
</g>
<g id="plot0">
<g id="plot0-axis">
</g>
<line x1='2243.2' y1='1600.7' x2='2243.2' y2='1600.7' style="stroke-width:14.0;stroke:rgb(0,0,0);stroke-linecap:round;fill:none;" />
<line x1='2243.2' y1='1600.7' x2='2282.8' y2='1606.1' style="stroke-width:14.0;stroke:rgb(0,0,0);stroke-linecap:round;fill:none;" />
<line x1='2282.8' y1='1606.1' x2='2282.8' y2='1606.1' style="stroke-width:14.0;stroke:rgb(0,0,0);stroke-linecap:round;fill:none;" />
<text x="2299.3" y="1631.0" font-size="46.8px" font-family="CMUBright-Roman" style="text-anchor:start;fill:rgb(255,38,78);" transform="rotate(7.7,2299.3,1631.0)" >HistomissSECH86<tspan baseline-shift="-40%" font-size="90%">s</tspan>02455</text>
</g>
<defs>
<pattern id="hline-sparse" width="10" height="10" patternTransform="rotate(0 0 0)" patternUnits="userSpaceOnUse"><line x1="0" y1="0" x2="10" y2="0" style="stroke:black;stroke-width:2" /></pattern>
<pattern id="vline" width="10" height="10" patternTransform="rotate(0 0 0)" patternUnits="userSpaceOnUse"><line x1="0" y1="0" x2="0" y2="10" style="stroke:black;stroke-width:5" /></pattern>
<pattern id="vline-sparse" width="10" height="10" patternTransform="rotate(0 0 0)" patternUnits="userSpaceOnUse"><line x1="0" y1="0" x2="0" y2="10" style="stroke:black;stroke-width:2" /></pattern>
<pattern id="hline" width="10" height="10" patternTransform="rotate(0 0 0)" patternUnits="userSpaceOnUse"><line x1="0" y1="0" x2="10" y2="0" style="stroke:black;stroke-width:5" /></pattern>
<pattern id="checker" width="10" height="10" patternTransform="rotate(45 0 0)" patternUnits="userSpaceOnUse"><line x1="0" y1="0" x2="10" y2="0" style="stroke:black;stroke-width:2" /><line x1="0" y1="0" x2="0" y2="10" style="stroke:black;stroke-width:2" /></pattern>
<pattern id="checker" width="10" height="10" patternTransform="rotate(45 0 0)" patternUnits="userSpaceOnUse"><line x1="0" y1="0" x2="10" y2="0" style="stroke:black;stroke-width:5" /><line x1="0" y1="0" x2="0" y2="10" style="stroke:black;stroke-width:4" /></pattern>
</defs>
</svg>
