<?xml version="1.0" encoding="utf-8" standalone="no"?>
<!DOCTYPE svg PUBLIC "-//W3C//DTD SVG 1.1//EN" "http://www.w3.org/Graphics/SVG/1.1/DTD/svg11.dtd">
<svg width="3000px" height="3000px" version="1.1" xmlns="http://www.w3.org/2000/svg" xmlns:xlink="http://www.w3.org/1999/xlink">
<g id="bg">
<rect x="0" y="0" width="3000px" height="3000px" style="fill:rgb(255,255,255);"/>
</g>
<g id="ideograms">
<path d="M1500.000,950.000 A550.000,550.000 40.000 0,1 1713.224,2006.987 L1790.760,2191.345 A750.000,750.000 0.000 0,0 1500.000,750.000 Z" style="stroke-width:2.0;stroke:rgb(0,0,0);stroke-linecap:round;fill:rgb(179,177,178);" />
<text x="2455.7" y="1307.2" font-size="46.8px" font-family="CMUBright-Roman" style="text-anchor:middle;fill:rgb(0,0,0);" transform="rotate(438.6,2455.7,1307.2)" >HistocapCB055<tspan baseline-shift="-40%" font-size="90%">4</tspan></text>
<line x1='1529.3' y1='750.6' x2='1529.7' y2='738.6' style="stroke-width:8.0;stroke:rgb(150,150,150);stroke-linecap:round;fill:none;" />
<line x1='1630.2' y1='761.4' x2='1632.3' y2='749.6' style="stroke-width:8.0;stroke:rgb(150,150,150);stroke-linecap:round;fill:none;" />
<line x1='1728.8' y1='785.8' x2='1732.5' y2='774.3' style="stroke-width:8.0;stroke:rgb(150,150,150);stroke-linecap:round;fill:none;" />
<line x1='1823.2' y1='823.2' x2='1828.4' y2='812.4' style="stroke-width:8.0;stroke:rgb(150,150,150);stroke-linecap:round;fill:none;" />
<text x="1846.2" y="807.7" font-size="41.6px" font-family="CMUBright-Roman" style="text-anchor:start;fill:rgb(150,150,150);" transform="rotate(295.5,1846.2,807.7)" >100 kb</text>
<line x1='1911.7' y1='873.1' x2='1918.3' y2='863.1' style="stroke-width:8.0;stroke:rgb(150,150,150);stroke-linecap:round;fill:none;" />
<line x1='1992.6' y1='934.5' x2='2000.5' y2='925.4' style="stroke-width:8.0;stroke:rgb(150,150,150);stroke-linecap:round;fill:none;" />
<line x1='2064.5' y1='1006.2' x2='2073.6' y2='998.3' style="stroke-width:8.0;stroke:rgb(150,150,150);stroke-linecap:round;fill:none;" />
<line x1='2126.1' y1='1087.0' x2='2136.1' y2='1080.4' style="stroke-width:8.0;stroke:rgb(150,150,150);stroke-linecap:round;fill:none;" />
<line x1='2176.1' y1='1175.4' x2='2186.9' y2='1170.2' style="stroke-width:8.0;stroke:rgb(150,150,150);stroke-linecap:round;fill:none;" />
<text x="2203.7" y="1177.7" font-size="41.6px" font-family="CMUBright-Roman" style="text-anchor:start;fill:rgb(150,150,150);" transform="rotate(334.4,2203.7,1177.7)" >150 kb</text>
<line x1='2213.8' y1='1269.7' x2='2225.2' y2='1266.0' style="stroke-width:8.0;stroke:rgb(150,150,150);stroke-linecap:round;fill:none;" />
<line x1='2238.3' y1='1368.3' x2='2250.2' y2='1366.2' style="stroke-width:8.0;stroke:rgb(150,150,150);stroke-linecap:round;fill:none;" />
<line x1='2249.4' y1='1469.2' x2='2261.4' y2='1468.7' style="stroke-width:8.0;stroke:rgb(150,150,150);stroke-linecap:round;fill:none;" />
<line x1='2246.7' y1='1570.8' x2='2258.6' y2='1571.9' style="stroke-width:8.0;stroke:rgb(150,150,150);stroke-linecap:round;fill:none;" />
<line x1='2230.3' y1='1671.0' x2='2241.9' y2='1673.7' style="stroke-width:8.0;stroke:rgb(150,150,150);stroke-linecap:round;fill:none;" />
<text x="2250.3" y="1690.1" font-size="41.6px" font-family="CMUBright-Roman" style="text-anchor:start;fill:rgb(150,150,150);" transform="rotate(13.2,2250.3,1690.1)" >200 kb</text>
<line x1='2200.5' y1='1768.1' x2='2211.7' y2='1772.4' style="stroke-width:8.0;stroke:rgb(150,150,150);stroke-linecap:round;fill:none;" />
<line x1='2157.8' y1='1860.3' x2='2168.3' y2='1866.0' style="stroke-width:8.0;stroke:rgb(150,150,150);stroke-linecap:round;fill:none;" />
<line x1='2103.1' y1='1945.8' x2='2112.8' y2='1953.0' style="stroke-width:8.0;stroke:rgb(150,150,150);stroke-linecap:round;fill:none;" />
<line x1='2037.3' y1='2023.2' x2='2045.9' y2='2031.6' style="stroke-width:8.0;stroke:rgb(150,150,150);stroke-linecap:round;fill:none;" />
<line x1='1961.7' y1='2091.0' x2='1969.1' y2='2100.5' style="stroke-width:8.0;stroke:rgb(150,150,150);stroke-linecap:round;fill:none;" />
<text x="1965.4" y="2118.5" font-size="41.6px" font-family="CMUBright-Roman" style="text-anchor:start;fill:rgb(150,150,150);" transform="rotate(52.0,1965.4,2118.5)" >250 kb</text>
<line x1='1877.6' y1='2148.0' x2='1883.7' y2='2158.4' style="stroke-width:8.0;stroke:rgb(150,150,150);stroke-linecap:round;fill:none;" />
<g id="highlighttrack_0">
<path d="M2037.268,1382.345 A550.000,550.000 40.000 0,1 2040.863,1400.165 L2237.541,1363.861 A750.000,750.000 0.000 0,0 2232.639,1339.562 Z" style="stroke-width:14.0;stroke:rgb(0,0,0);stroke-linecap:round;fill:rgb(255,38,78);" />
</g>
<path d="M1500.000,950.000 A550.000,550.000 40.000 0,1 1713.224,2006.987 L1790.760,2191.345 A750.000,750.000 0.000 0,0 1500.000,750.000 Z" style="stroke-width:2.0;stroke:rgb(0,0,0);stroke-linecap:round;fill:none;" />
<path d="M1495.353,2049.980 A550.000,550.000 40.000 0,1 1282.499,994.833 L1203.408,811.136 A750.000,750.000 0.000 0,0 1493.663,2249.973 Z" style="stroke-width:2.0;stroke:rgb(0,0,0);stroke-linecap:round;fill:rgb(179,177,178);" />
<text x="500.1" y="1701.7" font-size="46.8px" font-family="CMUBright-Roman" style="text-anchor:middle;fill:rgb(0,0,0);" transform="rotate(78.6,500.1,1701.7)" >HistocapCB186<tspan baseline-shift="-40%" font-size="90%">4</tspan></text>
<line x1='1156.0' y1='833.6' x2='1150.5' y2='822.9' style="stroke-width:8.0;stroke:rgb(150,150,150);stroke-linecap:round;fill:none;" />
<line x1='1069.1' y1='886.2' x2='1062.2' y2='876.3' style="stroke-width:8.0;stroke:rgb(150,150,150);stroke-linecap:round;fill:none;" />
<line x1='990.1' y1='950.0' x2='981.9' y2='941.2' style="stroke-width:8.0;stroke:rgb(150,150,150);stroke-linecap:round;fill:none;" />
<line x1='920.5' y1='1023.9' x2='911.2' y2='1016.3' style="stroke-width:8.0;stroke:rgb(150,150,150);stroke-linecap:round;fill:none;" />
<text x="893.1" y="1019.6" font-size="41.6px" font-family="CMUBright-Roman" style="text-anchor:end;fill:rgb(150,150,150);" transform="rotate(39.4,893.1,1019.6)" >50 kb</text>
<line x1='861.5' y1='1106.6' x2='851.2' y2='1100.3' style="stroke-width:8.0;stroke:rgb(150,150,150);stroke-linecap:round;fill:none;" />
<line x1='814.2' y1='1196.5' x2='803.2' y2='1191.6' style="stroke-width:8.0;stroke:rgb(150,150,150);stroke-linecap:round;fill:none;" />
<line x1='779.4' y1='1291.9' x2='767.9' y2='1288.6' style="stroke-width:8.0;stroke:rgb(150,150,150);stroke-linecap:round;fill:none;" />
<line x1='757.9' y1='1391.2' x2='746.1' y2='1389.5' style="stroke-width:8.0;stroke:rgb(150,150,150);stroke-linecap:round;fill:none;" />
<line x1='750.0' y1='1492.5' x2='738.0' y2='1492.3' style="stroke-width:8.0;stroke:rgb(150,150,150);stroke-linecap:round;fill:none;" />
<text x="726.0" y="1506.2" font-size="41.6px" font-family="CMUBright-Roman" style="text-anchor:end;fill:rgb(150,150,150);" transform="rotate(0.6,726.0,1506.2)" >100 kb</text>
<line x1='755.9' y1='1593.8' x2='744.0' y2='1595.3' style="stroke-width:8.0;stroke:rgb(150,150,150);stroke-linecap:round;fill:none;" />
<line x1='775.4' y1='1693.5' x2='763.8' y2='1696.6' style="stroke-width:8.0;stroke:rgb(150,150,150);stroke-linecap:round;fill:none;" />
<line x1='808.2' y1='1789.6' x2='797.1' y2='1794.3' style="stroke-width:8.0;stroke:rgb(150,150,150);stroke-linecap:round;fill:none;" />
<line x1='853.7' y1='1880.5' x2='843.3' y2='1886.5' style="stroke-width:8.0;stroke:rgb(150,150,150);stroke-linecap:round;fill:none;" />
<line x1='911.0' y1='1964.3' x2='901.6' y2='1971.7' style="stroke-width:8.0;stroke:rgb(150,150,150);stroke-linecap:round;fill:none;" />
<text x="900.9" y="1990.1" font-size="41.6px" font-family="CMUBright-Roman" style="text-anchor:end;fill:rgb(150,150,150);" transform="rotate(-38.2,900.9,1990.1)" >150 kb</text>
<line x1='979.1' y1='2039.6' x2='970.8' y2='2048.2' style="stroke-width:8.0;stroke:rgb(150,150,150);stroke-linecap:round;fill:none;" />
<line x1='1056.8' y1='2105.0' x2='1049.7' y2='2114.7' style="stroke-width:8.0;stroke:rgb(150,150,150);stroke-linecap:round;fill:none;" />
<line x1='1142.6' y1='2159.4' x2='1136.9' y2='2169.9' style="stroke-width:8.0;stroke:rgb(150,150,150);stroke-linecap:round;fill:none;" />
<line x1='1235.0' y1='2201.6' x2='1230.7' y2='2212.8' style="stroke-width:8.0;stroke:rgb(150,150,150);stroke-linecap:round;fill:none;" />
<line x1='1332.2' y1='2231.0' x2='1329.5' y2='2242.7' style="stroke-width:8.0;stroke:rgb(150,150,150);stroke-linecap:round;fill:none;" />
<text x="1340.5" y="2257.4" font-size="41.6px" font-family="CMUBright-Roman" style="text-anchor:end;fill:rgb(150,150,150);" transform="rotate(-77.1,1340.5,2257.4)" >200 kb</text>
<line x1='1432.5' y1='2247.0' x2='1431.4' y2='2258.9' style="stroke-width:8.0;stroke:rgb(150,150,150);stroke-linecap:round;fill:none;" />
<path d="M1495.353,2049.980 A550.000,550.000 40.000 0,1 1282.499,994.833 L1203.408,811.136 A750.000,750.000 0.000 0,0 1493.663,2249.973 Z" style="stroke-width:2.0;stroke:rgb(0,0,0);stroke-linecap:round;fill:none;" />
</g>
<g id="track_0">
<path d="M 1697.457,1016.247 A 522.500,522.500 0.00 0,1 1816.4,1084.2 L 1816.4,1084.2 1802.3,1102.3 1787.7,1120.3 1772.5,1138.0 1756.8,1155.4 1740.6,1172.4 1723.9,1189.0 1706.7,1205.2 1689.0,1220.8 1670.8,1235.9 1652.2,1250.3 1633.2,1264.1 1613.7,1277.2 1593.8,1289.6 1573.5,1301.2 1552.8,1312.0 1531.8,1322.0 1510.4,1331.2 1488.7,1339.5 1466.7,1347.0 1444.4,1353.6 1421.9,1359.3 1399.2,1364.2 1376.3,1368.1 1353.2,1371.2 1330.0,1373.4 1306.6,1374.8 1283.2,1375.3 1259.7,1374.9 1236.2,1373.8 1212.7,1371.8 1189.3,1369.1 1165.9,1365.7 1142.7,1361.5 1119.6,1356.7 1096.8,1351.3 1074.1,1345.3 1051.7,1338.7 1029.7,1331.6 1008.0,1324.1  A 522.500,522.500 0.00 0,1 1070.6,1202.4 L 1070.6,1202.4 1088.5,1214.5 1106.8,1226.2 1125.4,1237.4 1144.4,1248.1 1163.5,1258.1 1182.8,1267.4 1202.3,1275.9 1221.8,1283.5 1241.4,1290.3 1261.0,1296.1 1280.5,1301.0 1300.0,1304.8 1319.3,1307.5 1338.5,1309.1 1357.5,1309.7 1376.3,1309.0 1394.9,1307.3 1413.1,1304.4 1431.1,1300.3 1448.8,1295.1 1466.0,1288.7 1482.9,1281.1 1499.5,1272.5 1515.5,1262.7 1531.2,1251.9 1546.4,1240.1 1561.1,1227.2 1575.3,1213.4 1589.1,1198.7 1602.3,1183.1 1615.0,1166.8 1627.2,1149.7 1638.9,1132.0 1650.0,1113.6 1660.6,1094.8 1670.6,1075.6 1680.1,1056.0 1689.0,1036.2 1697.5,1016.2  Z" style="stroke-width: 0.5;  stroke: rgb(0,0,0); fill: rgb(179,177,178);" />
<path d="M 1959.741,1748.283 A 522.500,522.500 0.00 0,1 1914.3,1818.4 L 1914.3,1818.4 1896.9,1805.4 1879.2,1792.8 1861.1,1780.6 1842.7,1769.0 1824.0,1758.1 1805.1,1747.8 1786.1,1738.3 1766.9,1729.7 1747.6,1721.9 1728.2,1715.1 1708.8,1709.3 1689.5,1704.5 1670.2,1700.7 1651.0,1698.1 1631.9,1696.5 1612.9,1696.2 1594.2,1696.9 1575.6,1698.9 1557.3,1702.0 1539.2,1706.2 1521.5,1711.7 1504.0,1718.2 1486.9,1726.0 1470.1,1734.8 1453.7,1744.7 1437.7,1755.7 1422.1,1767.7 1407.0,1780.6 1392.3,1794.5 1378.0,1809.3 1364.3,1824.9 1351.0,1841.2 1338.2,1858.2 1325.9,1875.9 1314.1,1894.0 1302.8,1912.6 1292.1,1931.6 1281.9,1950.8 1272.2,1970.2  A 522.500,522.500 0.00 0,1 1199.5,1927.5 L 1199.5,1927.5 1212.7,1909.2 1226.3,1891.2 1240.5,1873.5 1255.3,1856.1 1270.5,1839.1 1286.2,1822.6 1302.5,1806.6 1319.2,1791.2 1336.4,1776.5 1354.0,1762.5 1372.1,1749.3 1390.6,1736.9 1409.5,1725.3 1428.8,1714.6 1448.4,1704.8 1468.4,1695.9 1488.7,1687.9 1509.2,1681.0 1530.1,1675.0 1551.2,1670.0 1572.6,1666.1 1594.1,1663.1 1615.8,1661.1 1637.6,1660.2 1659.6,1660.2 1681.6,1661.2 1703.7,1663.1 1725.8,1666.0 1747.8,1669.7 1769.9,1674.4 1791.8,1679.8 1813.6,1686.1 1835.3,1693.1 1856.8,1700.9 1878.0,1709.3 1899.0,1718.3 1919.6,1727.8 1939.9,1737.8 1959.7,1748.3  Z" style="stroke-width: 0.5;  stroke: rgb(0,0,0); fill: rgb(179,177,178);" />
<path d="M 1816.650,1084.381 A 522.500,522.500 0.00 0,1 1878.4,1139.7 L 1878.4,1139.7 1860.9,1156.0 1843.0,1172.1 1824.7,1188.0 1805.9,1203.7 1786.6,1219.0 1766.9,1234.0 1746.9,1248.6 1726.4,1262.8 1705.5,1276.6 1684.2,1289.8 1662.6,1302.6 1640.6,1314.8 1618.3,1326.5 1595.7,1337.5 1572.8,1348.0 1549.5,1357.8 1526.0,1367.0 1502.3,1375.6 1478.3,1383.5 1454.2,1390.7 1429.8,1397.3 1405.3,1403.1 1380.6,1408.3 1355.8,1412.8 1330.8,1416.7 1305.9,1419.8 1280.8,1422.4 1255.7,1424.2 1230.7,1425.4 1205.6,1426.0 1180.6,1426.0 1155.7,1425.3 1130.9,1424.1 1106.2,1422.4 1081.7,1420.1 1057.4,1417.4 1033.3,1414.1 1009.5,1410.5 986.0,1406.4  A 522.500,522.500 0.00 0,1 1007.0,1327.0 L 1007.0,1327.0 1028.7,1334.4 1050.8,1341.3 1073.3,1347.7 1096.0,1353.6 1118.9,1359.0 1142.0,1363.7 1165.3,1367.7 1188.7,1371.0 1212.2,1373.6 1235.7,1375.5 1259.2,1376.5 1282.8,1376.7 1306.2,1376.2 1329.6,1374.7 1352.9,1372.4 1376.0,1369.2 1399.0,1365.2 1421.7,1360.3 1444.2,1354.5 1466.5,1347.8 1488.5,1340.2 1510.3,1331.8 1531.7,1322.6 1552.7,1312.5 1573.4,1301.7 1593.7,1290.0 1613.7,1277.6 1633.2,1264.5 1652.3,1250.6 1670.9,1236.2 1689.1,1221.1 1706.8,1205.4 1724.0,1189.3 1740.8,1172.6 1757.0,1155.6 1772.7,1138.2 1787.9,1120.5 1802.5,1102.5 1816.6,1084.4  Z" style="stroke-width: 0.5;  stroke: rgb(0,0,0); fill: rgb(179,177,178);" />
<path d="M 1915.277,1182.901 A 522.500,522.500 0.00 0,1 1947.5,1230.3 L 1947.5,1230.3 1925.9,1243.2 1904.0,1256.0 1881.8,1268.5 1859.3,1280.9 1836.5,1293.1 1813.5,1305.1 1790.3,1316.8 1766.7,1328.3 1743.0,1339.5 1719.0,1350.4 1694.8,1361.0 1670.4,1371.3 1645.8,1381.3 1621.0,1390.9 1596.1,1400.2 1570.9,1409.1 1545.7,1417.7 1520.2,1425.9 1494.7,1433.8 1469.0,1441.2 1443.2,1448.3 1417.4,1455.0 1391.4,1461.3 1365.4,1467.2 1339.4,1472.7 1313.3,1477.8 1287.2,1482.6 1261.0,1487.0 1234.9,1491.0 1208.8,1494.6 1182.8,1497.8 1156.8,1500.7 1130.8,1503.3 1105.0,1505.5 1079.2,1507.4 1053.6,1509.0 1028.1,1510.3 1002.8,1511.2 977.6,1512.0  A 522.500,522.500 0.00 0,1 979.5,1454.3 L 979.5,1454.3 1003.9,1456.3 1028.6,1457.9 1053.4,1459.1 1078.5,1460.0 1103.7,1460.4 1129.1,1460.4 1154.6,1459.9 1180.1,1459.0 1205.8,1457.5 1231.5,1455.6 1257.2,1453.2 1282.9,1450.2 1308.7,1446.7 1334.4,1442.7 1360.0,1438.1 1385.5,1433.0 1411.0,1427.4 1436.4,1421.2 1461.6,1414.4 1486.7,1407.2 1511.6,1399.4 1536.3,1391.0 1560.9,1382.2 1585.2,1372.8 1609.3,1363.0 1633.1,1352.6 1656.7,1341.8 1680.0,1330.5 1703.1,1318.8 1725.8,1306.7 1748.3,1294.2 1770.4,1281.3 1792.2,1268.1 1813.6,1254.5 1834.7,1240.6 1855.4,1226.5 1875.7,1212.2 1895.7,1197.6 1915.3,1182.9  Z" style="stroke-width: 0.5;  stroke: rgb(0,0,0); fill: rgb(179,177,178);" />
<path d="M 1988.820,1315.442 A 522.500,522.500 0.00 0,1 2004.1,1362.6 L 2004.1,1362.6 1978.6,1369.6 1953.0,1376.4 1927.4,1383.3 1901.7,1390.0 1875.9,1396.7 1850.1,1403.4 1824.2,1410.0 1798.3,1416.5 1772.3,1423.0 1746.2,1429.3 1720.2,1435.6 1694.0,1441.9 1667.9,1448.0 1641.7,1454.1 1615.4,1460.1 1589.2,1466.0 1562.9,1471.8 1536.6,1477.6 1510.2,1483.2 1483.9,1488.8 1457.5,1494.3 1431.1,1499.7 1404.7,1505.0 1378.3,1510.2 1351.9,1515.3 1325.4,1520.3 1299.0,1525.3 1272.6,1530.1 1246.2,1534.9 1219.8,1539.6 1193.4,1544.2 1167.1,1548.7 1140.7,1553.2 1114.4,1557.5 1088.2,1561.8 1061.9,1566.0 1035.7,1570.1 1009.5,1574.2 983.4,1578.2  A 522.500,522.500 0.00 0,1 978.3,1528.9 L 978.3,1528.9 1004.1,1527.4 1030.0,1525.7 1056.0,1523.8 1082.1,1521.8 1108.3,1519.6 1134.6,1517.1 1160.9,1514.5 1187.3,1511.7 1213.8,1508.6 1240.3,1505.3 1266.8,1501.8 1293.3,1498.1 1319.8,1494.1 1346.4,1489.9 1372.9,1485.5 1399.5,1480.9 1426.0,1476.0 1452.5,1470.9 1478.9,1465.5 1505.3,1460.0 1531.7,1454.2 1558.0,1448.1 1584.2,1441.9 1610.3,1435.4 1636.4,1428.7 1662.4,1421.8 1688.3,1414.7 1714.0,1407.3 1739.7,1399.8 1765.3,1392.1 1790.7,1384.2 1816.0,1376.1 1841.1,1367.9 1866.1,1359.5 1891.0,1351.0 1915.7,1342.3 1940.2,1333.4 1964.6,1324.5 1988.8,1315.4  Z" style="stroke-width: 0.5;  stroke: rgb(0,0,0); fill: rgb(179,177,178);" />
<path d="M 1500.000,977.500 A 522.500,522.500 0.00 0,1 1523.1,978.0 L 1523.1,978.0 1522.1,998.5 1520.7,1018.8 1518.9,1038.9 1516.7,1058.6 1514.1,1077.9 1511.2,1096.6 1507.7,1114.6 1503.9,1131.8 1499.5,1148.1 1494.7,1163.5 1489.5,1177.8 1483.8,1191.0 1477.6,1203.1 1470.9,1213.9 1463.8,1223.5 1456.2,1231.8 1448.1,1238.7 1439.6,1244.2 1430.7,1248.4 1421.3,1251.2 1411.5,1252.6 1401.4,1252.5 1390.8,1251.1 1380.0,1248.3 1368.8,1244.2 1357.3,1238.7 1345.5,1232.0 1333.5,1224.0 1321.3,1214.8 1308.9,1204.5 1296.4,1193.2 1283.8,1180.8 1271.1,1167.6 1258.5,1153.6 1245.8,1138.8 1233.3,1123.4 1220.8,1107.5 1208.6,1091.2 1196.6,1074.6  A 522.500,522.500 0.00 0,1 1234.6,1049.9 L 1234.6,1049.9 1245.1,1067.4 1255.7,1084.6 1266.5,1101.4 1277.3,1117.7 1288.3,1133.5 1299.2,1148.5 1310.1,1162.7 1320.9,1176.0 1331.6,1188.3 1342.2,1199.6 1352.6,1209.7 1362.7,1218.6 1372.7,1226.2 1382.4,1232.6 1391.7,1237.6 1400.8,1241.2 1409.5,1243.4 1417.9,1244.2 1425.9,1243.6 1433.6,1241.5 1440.8,1238.0 1447.6,1233.1 1454.0,1226.7 1460.0,1219.0 1465.5,1209.9 1470.6,1199.5 1475.3,1187.9 1479.5,1175.0 1483.4,1161.1 1486.7,1146.0 1489.7,1129.9 1492.3,1113.0 1494.4,1095.2 1496.2,1076.7 1497.6,1057.6 1498.7,1038.0 1499.4,1018.0 1499.9,997.8 1500.0,977.5  Z" style="stroke-width: 0.5;  stroke: rgb(0,0,0); fill: rgb(179,177,178);" />
<path d="M 1613.841,990.052 A 522.500,522.500 0.00 0,1 1655.6,1001.2 L 1655.6,1001.2 1649.0,1021.5 1641.9,1041.6 1634.3,1061.5 1626.2,1081.1 1617.6,1100.2 1608.4,1118.8 1598.7,1136.8 1588.5,1154.1 1577.7,1170.7 1566.4,1186.4 1554.7,1201.2 1542.4,1215.0 1529.6,1227.9 1516.3,1239.6 1502.6,1250.3 1488.4,1259.8 1473.8,1268.2 1458.7,1275.3 1443.3,1281.3 1427.5,1286.0 1411.3,1289.5 1394.8,1291.8 1378.0,1292.8 1360.9,1292.6 1343.6,1291.2 1326.0,1288.7 1308.3,1285.0 1290.4,1280.1 1272.5,1274.2 1254.4,1267.2 1236.4,1259.3 1218.3,1250.4 1200.3,1240.7 1182.5,1230.2 1164.7,1218.9 1147.2,1207.0 1129.9,1194.5 1113.0,1181.5 1096.4,1168.2  A 522.500,522.500 0.00 0,1 1125.0,1136.1 L 1125.0,1136.1 1140.2,1150.6 1155.8,1164.7 1171.6,1178.3 1187.7,1191.4 1203.9,1203.9 1220.2,1215.6 1236.6,1226.5 1253.1,1236.6 1269.5,1245.6 1285.9,1253.7 1302.2,1260.7 1318.3,1266.5 1334.3,1271.2 1350.0,1274.7 1365.6,1277.0 1380.8,1278.0 1395.8,1277.7 1410.4,1276.1 1424.7,1273.3 1438.6,1269.1 1452.1,1263.7 1465.2,1257.0 1477.8,1249.0 1490.0,1239.8 1501.8,1229.4 1513.0,1217.8 1523.8,1205.1 1534.1,1191.4 1543.9,1176.6 1553.1,1160.9 1561.9,1144.3 1570.1,1126.9 1577.9,1108.8 1585.1,1090.0 1591.8,1070.7 1598.0,1050.9 1603.8,1030.8 1609.0,1010.5 1613.8,990.1  Z" style="stroke-width: 0.5;  stroke: rgb(0,0,0); fill: rgb(179,177,178);" />
<path d="M 2008.576,1619.820 A 522.500,522.500 0.00 0,1 1999.0,1654.9 L 1999.0,1654.9 1976.0,1648.0 1952.6,1641.4 1929.0,1635.2 1905.0,1629.4 1880.8,1624.0 1856.4,1619.2 1831.7,1614.8 1806.9,1610.9 1781.9,1607.6 1756.8,1604.9 1731.6,1602.7 1706.2,1601.2 1680.8,1600.2 1655.4,1599.9 1630.0,1600.3 1604.5,1601.3 1579.1,1602.9 1553.7,1605.2 1528.3,1608.1 1503.1,1611.7 1477.9,1616.0 1452.9,1620.9 1428.0,1626.5 1403.3,1632.7 1378.8,1639.5 1354.5,1646.9 1330.3,1654.9 1306.5,1663.5 1282.8,1672.6 1259.5,1682.3 1236.4,1692.4 1213.7,1703.1 1191.3,1714.2 1169.2,1725.7 1147.4,1737.6 1126.1,1749.9 1105.1,1762.5 1084.5,1775.4 1064.3,1788.5  A 522.500,522.500 0.00 0,1 1045.1,1757.1 L 1045.1,1757.1 1066.5,1745.2 1088.3,1733.5 1110.4,1722.1 1132.8,1711.0 1155.6,1700.2 1178.7,1689.7 1202.1,1679.6 1225.7,1669.9 1249.7,1660.6 1273.9,1651.8 1298.3,1643.4 1322.9,1635.5 1347.8,1628.1 1372.8,1621.2 1398.0,1614.8 1423.4,1608.9 1448.9,1603.6 1474.6,1598.8 1500.3,1594.5 1526.1,1590.9 1552.0,1587.7 1578.0,1585.2 1604.0,1583.2 1630.0,1581.7 1656.0,1580.8 1681.9,1580.5 1707.9,1580.7 1733.7,1581.4 1759.5,1582.6 1785.2,1584.4 1810.8,1586.6 1836.2,1589.3 1861.5,1592.5 1886.6,1596.1 1911.5,1600.1 1936.2,1604.5 1960.6,1609.3 1984.7,1614.4 2008.6,1619.8  Z" style="stroke-width: 0.5;  stroke: rgb(0,0,0); fill: rgb(179,177,178);" />
<path d="M 1661.471,1003.076 A 522.500,522.500 0.00 0,1 1692.4,1014.2 L 1692.4,1014.2 1684.2,1034.2 1675.5,1054.1 1666.3,1073.7 1656.5,1093.0 1646.1,1111.8 1635.2,1130.2 1623.8,1148.0 1611.9,1165.1 1599.4,1181.4 1586.4,1197.0 1572.9,1211.7 1558.9,1225.5 1544.4,1238.4 1529.5,1250.2 1514.1,1261.0 1498.2,1270.7 1482.0,1279.3 1465.3,1286.8 1448.2,1293.1 1430.8,1298.2 1413.1,1302.2 1395.0,1305.0 1376.7,1306.7 1358.1,1307.2 1339.3,1306.5 1320.3,1304.7 1301.2,1301.8 1281.9,1297.9 1262.6,1292.9 1243.2,1286.9 1223.9,1279.9 1204.5,1272.1 1185.3,1263.4 1166.2,1253.9 1147.2,1243.7 1128.5,1232.8 1110.0,1221.4 1091.9,1209.5 1074.2,1197.2  A 522.500,522.500 0.00 0,1 1094.2,1170.9 L 1094.2,1170.9 1110.9,1184.1 1128.0,1197.0 1145.4,1209.4 1163.0,1221.2 1180.9,1232.4 1198.9,1242.8 1217.1,1252.5 1235.2,1261.2 1253.5,1269.1 1271.7,1276.0 1289.8,1281.8 1307.8,1286.6 1325.7,1290.2 1343.4,1292.8 1361.0,1294.1 1378.3,1294.2 1395.3,1293.1 1412.0,1290.9 1428.4,1287.3 1444.4,1282.6 1460.1,1276.6 1475.4,1269.5 1490.2,1261.1 1504.6,1251.6 1518.6,1240.9 1532.1,1229.2 1545.2,1216.4 1557.7,1202.6 1569.7,1187.8 1581.3,1172.1 1592.3,1155.6 1602.8,1138.4 1612.7,1120.4 1622.2,1101.8 1631.1,1082.8 1639.4,1063.2 1647.3,1043.4 1654.6,1023.3 1661.5,1003.1  Z" style="stroke-width: 0.5;  stroke: rgb(0,0,0); fill: rgb(179,177,178);" />
<path d="M 2021.704,1471.161 A 522.500,522.500 0.00 0,1 2022.5,1503.2 L 2022.5,1503.2 1996.9,1503.2 1971.1,1503.3 1945.2,1503.6 1919.2,1504.2 1893.0,1505.0 1866.8,1506.0 1840.5,1507.3 1814.1,1508.8 1787.6,1510.6 1761.1,1512.6 1734.5,1515.0 1707.9,1517.5 1681.3,1520.4 1654.7,1523.5 1628.0,1527.0 1601.4,1530.7 1574.8,1534.7 1548.2,1538.9 1521.6,1543.5 1495.1,1548.3 1468.7,1553.5 1442.3,1558.9 1416.0,1564.5 1389.8,1570.5 1363.7,1576.7 1337.6,1583.2 1311.7,1589.9 1285.9,1596.9 1260.3,1604.1 1234.7,1611.6 1209.3,1619.3 1184.1,1627.2 1159.0,1635.3 1134.1,1643.7 1109.4,1652.2 1084.9,1660.8 1060.5,1669.7 1036.4,1678.7 1012.4,1687.8  A 522.500,522.500 0.00 0,1 1001.8,1657.4 L 1001.8,1657.4 1026.6,1649.6 1051.6,1641.9 1076.7,1634.4 1101.9,1626.9 1127.2,1619.6 1152.7,1612.4 1178.3,1605.3 1204.0,1598.4 1229.8,1591.6 1255.7,1585.0 1281.7,1578.5 1307.8,1572.2 1334.0,1566.1 1360.2,1560.1 1386.5,1554.3 1412.9,1548.8 1439.3,1543.3 1465.8,1538.1 1492.3,1533.1 1518.9,1528.2 1545.5,1523.6 1572.1,1519.1 1598.7,1514.8 1625.4,1510.7 1652.0,1506.8 1678.7,1503.1 1705.3,1499.6 1731.9,1496.3 1758.5,1493.2 1785.1,1490.2 1811.6,1487.4 1838.1,1484.8 1864.6,1482.4 1891.0,1480.1 1917.3,1478.0 1943.5,1476.1 1969.7,1474.3 1995.7,1472.7 2021.7,1471.2  Z" style="stroke-width: 0.5;  stroke: rgb(0,0,0); fill: rgb(179,177,178);" />
<path d="M 1998.706,1655.880 A 522.500,522.500 0.00 0,1 1989.2,1683.5 L 1989.2,1683.5 1966.9,1675.4 1944.3,1667.7 1921.3,1660.3 1898.1,1653.4 1874.5,1647.0 1850.7,1641.0 1826.6,1635.7 1802.4,1630.9 1778.0,1626.7 1753.5,1623.1 1728.8,1620.2 1704.0,1618.0 1679.2,1616.4 1654.3,1615.6 1629.4,1615.4 1604.5,1616.0 1579.6,1617.3 1554.7,1619.3 1530.0,1622.1 1505.3,1625.6 1480.8,1629.9 1456.3,1634.9 1432.1,1640.6 1408.0,1647.0 1384.1,1654.0 1360.5,1661.8 1337.1,1670.3 1313.9,1679.3 1291.0,1689.0 1268.4,1699.3 1246.2,1710.1 1224.2,1721.5 1202.7,1733.4 1181.5,1745.7 1160.6,1758.5 1140.2,1771.6 1120.2,1785.1 1100.6,1798.9 1081.5,1812.9  A 522.500,522.500 0.00 0,1 1064.6,1788.9 L 1064.6,1788.9 1084.8,1775.8 1105.3,1762.9 1126.3,1750.3 1147.6,1738.0 1169.4,1726.1 1191.4,1714.6 1213.9,1703.4 1236.6,1692.8 1259.6,1682.6 1283.0,1672.9 1306.6,1663.8 1330.4,1655.2 1354.5,1647.2 1378.9,1639.8 1403.4,1633.0 1428.1,1626.8 1452.9,1621.3 1478.0,1616.4 1503.1,1612.1 1528.3,1608.5 1553.6,1605.6 1579.0,1603.3 1604.5,1601.7 1629.9,1600.7 1655.3,1600.4 1680.8,1600.7 1706.1,1601.7 1731.5,1603.3 1756.7,1605.5 1781.8,1608.2 1806.8,1611.6 1831.6,1615.5 1856.2,1619.9 1880.6,1624.8 1904.8,1630.2 1928.7,1636.0 1952.4,1642.3 1975.7,1648.9 1998.7,1655.9  Z" style="stroke-width: 0.5;  stroke: rgb(0,0,0); fill: rgb(179,177,178);" />
<path d="M 2022.024,1522.307 A 522.500,522.500 0.00 0,1 2020.1,1550.2 L 2020.1,1550.2 1995.1,1547.9 1969.9,1545.9 1944.5,1544.2 1918.9,1542.7 1893.2,1541.6 1867.3,1540.8 1841.3,1540.3 1815.1,1540.2 1788.9,1540.5 1762.6,1541.1 1736.3,1542.1 1709.9,1543.5 1683.4,1545.3 1657.0,1547.4 1630.5,1550.0 1604.1,1553.0 1577.6,1556.4 1551.2,1560.2 1524.9,1564.4 1498.6,1569.1 1472.4,1574.1 1446.3,1579.5 1420.3,1585.3 1394.4,1591.5 1368.6,1598.1 1343.0,1605.1 1317.5,1612.5 1292.2,1620.2 1267.1,1628.2 1242.2,1636.6 1217.5,1645.3 1193.0,1654.3 1168.7,1663.6 1144.6,1673.2 1120.8,1683.1 1097.3,1693.1 1074.0,1703.4 1051.0,1713.9 1028.2,1724.6  A 522.500,522.500 0.00 0,1 1017.0,1699.2 L 1017.0,1699.2 1040.5,1689.6 1064.3,1680.2 1088.3,1670.9 1112.6,1661.8 1137.0,1652.9 1161.7,1644.2 1186.5,1635.8 1211.5,1627.6 1236.7,1619.6 1262.1,1611.9 1287.6,1604.5 1313.3,1597.3 1339.1,1590.5 1365.0,1583.9 1391.1,1577.6 1417.2,1571.7 1443.5,1566.1 1469.8,1560.8 1496.2,1555.8 1522.6,1551.1 1549.2,1546.8 1575.7,1542.8 1602.3,1539.1 1628.9,1535.8 1655.5,1532.8 1682.1,1530.1 1708.7,1527.7 1735.3,1525.7 1761.8,1523.9 1788.3,1522.5 1814.7,1521.4 1841.0,1520.6 1867.2,1520.0 1893.4,1519.8 1919.4,1519.8 1945.3,1520.1 1971.0,1520.6 1996.6,1521.3 2022.0,1522.3  Z" style="stroke-width: 0.5;  stroke: rgb(0,0,0); fill: rgb(179,177,178);" />
<path d="M 1883.815,1145.469 A 522.500,522.500 0.00 0,1 1899.8,1163.6 L 1899.8,1163.6 1881.2,1179.1 1862.1,1194.4 1842.5,1209.5 1822.6,1224.3 1802.3,1238.8 1781.6,1253.1 1760.5,1267.0 1739.1,1280.5 1717.3,1293.6 1695.2,1306.2 1672.7,1318.5 1649.9,1330.2 1626.9,1341.5 1603.5,1352.2 1579.9,1362.4 1556.0,1372.0 1531.9,1381.1 1507.6,1389.6 1483.0,1397.6 1458.3,1404.9 1433.4,1411.7 1408.4,1417.8 1383.2,1423.4 1357.9,1428.3 1332.6,1432.7 1307.1,1436.5 1281.7,1439.7 1256.2,1442.3 1230.7,1444.3 1205.2,1445.8 1179.8,1446.7 1154.5,1447.1 1129.2,1447.0 1104.1,1446.3 1079.2,1445.2 1054.4,1443.7 1029.8,1441.7 1005.4,1439.4 981.4,1436.6  A 522.500,522.500 0.00 0,1 984.9,1412.3 L 984.9,1412.3 1008.6,1416.1 1032.5,1419.5 1056.7,1422.5 1081.1,1425.1 1105.7,1427.1 1130.5,1428.6 1155.4,1429.6 1180.4,1430.1 1205.5,1429.9 1230.7,1429.2 1255.9,1427.8 1281.1,1425.9 1306.2,1423.2 1331.3,1420.0 1356.3,1416.1 1381.3,1411.5 1406.1,1406.2 1430.7,1400.3 1455.2,1393.8 1479.6,1386.6 1503.7,1378.7 1527.6,1370.2 1551.2,1361.0 1574.6,1351.3 1597.7,1340.9 1620.5,1329.9 1643.0,1318.4 1665.2,1306.3 1687.1,1293.7 1708.5,1280.6 1729.6,1267.1 1750.4,1253.0 1770.7,1238.6 1790.6,1223.8 1810.2,1208.7 1829.2,1193.2 1847.9,1177.5 1866.1,1161.6 1883.8,1145.5  Z" style="stroke-width: 0.5;  stroke: rgb(0,0,0); fill: rgb(179,177,178);" />
<path d="M 1971.457,1274.756 A 522.500,522.500 0.00 0,1 1977.6,1288.1 L 1977.6,1288.1 1954.1,1298.4 1930.4,1308.6 1906.5,1318.7 1882.4,1328.6 1858.1,1338.3 1833.7,1347.9 1809.0,1357.3 1784.2,1366.5 1759.3,1375.5 1734.1,1384.3 1708.9,1392.9 1683.5,1401.2 1657.9,1409.3 1632.3,1417.1 1606.5,1424.7 1580.7,1432.1 1554.7,1439.2 1528.6,1446.0 1502.5,1452.5 1476.3,1458.8 1450.0,1464.8 1423.7,1470.5 1397.3,1476.0 1370.9,1481.1 1344.5,1486.0 1318.1,1490.6 1291.7,1495.0 1265.2,1499.1 1238.8,1502.9 1212.5,1506.4 1186.1,1509.7 1159.8,1512.7 1133.6,1515.5 1107.5,1518.0 1081.4,1520.3 1055.4,1522.4 1029.6,1524.2 1003.8,1525.9 978.2,1527.3  A 522.500,522.500 0.00 0,1 977.7,1512.7 L 977.7,1512.7 1003.1,1512.0 1028.7,1511.0 1054.5,1509.8 1080.4,1508.4 1106.4,1506.7 1132.4,1504.7 1158.6,1502.5 1184.9,1499.9 1211.2,1497.1 1237.5,1494.0 1263.9,1490.6 1290.3,1486.8 1316.7,1482.8 1343.1,1478.4 1369.5,1473.8 1395.8,1468.8 1422.2,1463.5 1448.4,1457.8 1474.7,1451.9 1500.8,1445.6 1526.9,1439.0 1552.8,1432.2 1578.7,1425.0 1604.5,1417.5 1630.1,1409.7 1655.6,1401.6 1681.0,1393.3 1706.2,1384.6 1731.3,1375.8 1756.2,1366.6 1780.9,1357.2 1805.5,1347.6 1829.8,1337.7 1854.0,1327.7 1877.9,1317.4 1901.6,1307.0 1925.2,1296.4 1948.4,1285.6 1971.5,1274.8  Z" style="stroke-width: 0.5;  stroke: rgb(0,0,0); fill: rgb(179,177,178);" />
<path d="M 1523.176,978.014 A 522.500,522.500 0.00 0,1 1535.7,978.7 L 1535.7,978.7 1534.1,999.2 1532.2,1019.6 1529.9,1039.7 1527.1,1059.5 1524.0,1078.8 1520.4,1097.5 1516.4,1115.5 1511.9,1132.8 1507.0,1149.2 1501.5,1164.7 1495.7,1179.1 1489.3,1192.4 1482.4,1204.6 1475.1,1215.5 1467.3,1225.2 1459.0,1233.6 1450.3,1240.7 1441.2,1246.5 1431.6,1250.8 1421.5,1253.8 1411.1,1255.4 1400.3,1255.6 1389.1,1254.4 1377.6,1251.8 1365.8,1247.9 1353.7,1242.7 1341.3,1236.3 1328.7,1228.6 1315.9,1219.7 1302.9,1209.7 1289.9,1198.6 1276.7,1186.6 1263.5,1173.7 1250.3,1159.9 1237.1,1145.5 1224.0,1130.4 1211.1,1114.8 1198.4,1098.7 1185.9,1082.4  A 522.500,522.500 0.00 0,1 1195.9,1075.1 L 1195.9,1075.1 1208.0,1091.7 1220.2,1107.9 1232.7,1123.8 1245.3,1139.2 1258.0,1153.9 1270.7,1168.0 1283.3,1181.2 1296.0,1193.5 1308.5,1204.8 1320.9,1215.1 1333.2,1224.2 1345.2,1232.2 1357.0,1238.9 1368.5,1244.4 1379.7,1248.5 1390.6,1251.3 1401.2,1252.7 1411.3,1252.7 1421.1,1251.3 1430.5,1248.5 1439.5,1244.4 1448.0,1238.8 1456.1,1231.9 1463.7,1223.6 1470.8,1214.0 1477.5,1203.2 1483.7,1191.1 1489.5,1177.9 1494.7,1163.5 1499.5,1148.2 1503.9,1131.8 1507.7,1114.6 1511.2,1096.6 1514.2,1077.9 1516.7,1058.7 1518.9,1038.9 1520.7,1018.8 1522.1,998.5 1523.2,978.0  Z" style="stroke-width: 0.5;  stroke: rgb(0,0,0); fill: rgb(179,177,178);" />
<path d="M 2013.123,1401.455 A 522.500,522.500 0.00 0,1 2015.3,1413.3 L 2015.3,1413.3 1989.0,1417.7 1962.7,1422.2 1936.4,1426.7 1910.1,1431.2 1883.8,1435.8 1857.5,1440.4 1831.1,1445.1 1804.8,1449.8 1778.4,1454.5 1752.0,1459.3 1725.6,1464.1 1699.2,1469.0 1672.9,1473.9 1646.5,1478.8 1620.1,1483.8 1593.7,1488.8 1567.3,1493.9 1540.9,1499.0 1514.5,1504.2 1488.2,1509.4 1461.8,1514.6 1435.4,1519.9 1409.1,1525.2 1382.8,1530.6 1356.5,1536.0 1330.2,1541.5 1303.9,1547.0 1277.6,1552.5 1251.4,1558.1 1225.2,1563.7 1199.0,1569.3 1172.8,1575.0 1146.7,1580.7 1120.6,1586.4 1094.5,1592.2 1068.4,1598.0 1042.4,1603.8 1016.4,1609.6 990.4,1615.5  A 522.500,522.500 0.00 0,1 987.9,1604.0 L 987.9,1604.0 1014.2,1598.6 1040.4,1593.3 1066.6,1588.0 1092.9,1582.7 1119.1,1577.4 1145.4,1572.1 1171.7,1566.8 1197.9,1561.5 1224.2,1556.2 1250.5,1551.0 1276.8,1545.7 1303.0,1540.5 1329.3,1535.2 1355.6,1530.0 1381.9,1524.7 1408.2,1519.5 1434.5,1514.3 1460.8,1509.1 1487.1,1503.9 1513.4,1498.7 1539.7,1493.5 1566.0,1488.3 1592.3,1483.1 1618.6,1478.0 1644.9,1472.8 1671.2,1467.7 1697.6,1462.5 1723.9,1457.4 1750.2,1452.3 1776.5,1447.2 1802.8,1442.1 1829.1,1437.0 1855.4,1431.9 1881.7,1426.8 1908.0,1421.7 1934.3,1416.6 1960.6,1411.6 1986.8,1406.5 2013.1,1401.5  Z" style="stroke-width: 0.5;  stroke: rgb(0,0,0); fill: rgb(179,177,178);" />
<path d="M 2020.951,1459.793 A 522.500,522.500 0.00 0,1 2021.7,1470.9 L 2021.7,1470.9 1995.7,1472.4 1969.6,1474.0 1943.5,1475.8 1917.2,1477.8 1890.9,1479.9 1864.5,1482.2 1838.1,1484.6 1811.6,1487.2 1785.1,1490.0 1758.5,1493.0 1731.9,1496.1 1705.3,1499.4 1678.6,1502.9 1652.0,1506.6 1625.3,1510.5 1598.7,1514.6 1572.0,1518.9 1545.4,1523.3 1518.8,1528.0 1492.3,1532.8 1465.7,1537.9 1439.3,1543.1 1412.8,1548.5 1386.4,1554.0 1360.1,1559.8 1333.9,1565.7 1307.7,1571.8 1281.6,1578.1 1255.6,1584.6 1229.7,1591.2 1203.9,1597.9 1178.2,1604.8 1152.6,1611.9 1127.1,1619.0 1101.7,1626.3 1076.5,1633.8 1051.4,1641.3 1026.4,1648.9 1001.5,1656.7  A 522.500,522.500 0.00 0,1 998.3,1646.1 L 998.3,1646.1 1023.5,1638.8 1048.7,1631.6 1074.0,1624.5 1099.5,1617.5 1125.1,1610.7 1150.7,1603.9 1176.5,1597.2 1202.4,1590.7 1228.3,1584.2 1254.3,1577.9 1280.4,1571.8 1306.6,1565.7 1332.8,1559.8 1359.1,1554.1 1385.4,1548.5 1411.8,1543.0 1438.3,1537.7 1464.8,1532.6 1491.3,1527.6 1517.9,1522.8 1544.4,1518.1 1571.1,1513.5 1597.7,1509.2 1624.3,1505.0 1650.9,1500.9 1677.6,1497.0 1704.2,1493.3 1730.8,1489.7 1757.4,1486.3 1784.0,1483.0 1810.5,1479.9 1837.0,1476.9 1863.5,1474.1 1889.9,1471.3 1916.2,1468.8 1942.5,1466.3 1968.7,1464.0 1994.9,1461.9 2021.0,1459.8  Z" style="stroke-width: 0.5;  stroke: rgb(0,0,0); fill: rgb(179,177,178);" />
<path d="M 1581.375,983.876 A 522.500,522.500 0.00 0,1 1592.3,985.7 L 1592.3,985.7 1588.4,1006.2 1584.0,1026.6 1579.2,1046.8 1573.9,1066.6 1568.2,1086.0 1561.9,1104.8 1555.2,1123.0 1547.9,1140.4 1540.2,1157.1 1531.9,1172.8 1523.1,1187.6 1513.8,1201.3 1504.1,1213.9 1493.8,1225.4 1483.0,1235.8 1471.8,1244.9 1460.1,1252.7 1448.0,1259.3 1435.4,1264.5 1422.4,1268.5 1409.1,1271.1 1395.3,1272.4 1381.3,1272.4 1366.9,1271.1 1352.2,1268.5 1337.3,1264.7 1322.1,1259.7 1306.7,1253.4 1291.2,1246.0 1275.6,1237.6 1259.9,1228.1 1244.1,1217.7 1228.4,1206.3 1212.7,1194.2 1197.1,1181.3 1181.7,1167.8 1166.5,1153.7 1151.5,1139.2 1136.9,1124.3  A 522.500,522.500 0.00 0,1 1145.1,1116.5 L 1145.1,1116.5 1159.4,1131.7 1173.9,1146.4 1188.8,1160.8 1203.8,1174.6 1219.0,1187.8 1234.2,1200.3 1249.5,1211.9 1264.8,1222.6 1280.1,1232.4 1295.2,1241.1 1310.3,1248.8 1325.1,1255.3 1339.8,1260.6 1354.3,1264.6 1368.4,1267.4 1382.3,1269.0 1395.9,1269.2 1409.1,1268.0 1421.9,1265.6 1434.4,1261.8 1446.4,1256.7 1458.0,1250.3 1469.1,1242.6 1479.8,1233.6 1490.1,1223.3 1499.8,1211.9 1509.0,1199.3 1517.8,1185.7 1526.0,1170.9 1533.7,1155.2 1541.0,1138.6 1547.7,1121.2 1553.9,1103.0 1559.7,1084.2 1564.9,1064.8 1569.7,1045.0 1574.1,1024.8 1577.9,1004.4 1581.4,983.9  Z" style="stroke-width: 0.5;  stroke: rgb(0,0,0); fill: rgb(179,177,178);" />
<path d="M 1539.001,978.958 A 522.500,522.500 0.00 0,1 1549.9,979.9 L 1549.9,979.9 1547.7,1000.4 1545.2,1020.8 1542.2,1041.0 1538.8,1060.9 1535.0,1080.2 1530.7,1099.1 1525.9,1117.2 1520.7,1134.6 1514.9,1151.1 1508.7,1166.7 1502.0,1181.3 1494.8,1194.9 1487.0,1207.3 1478.8,1218.5 1470.1,1228.5 1461.0,1237.2 1451.3,1244.6 1441.2,1250.7 1430.7,1255.4 1419.7,1258.8 1408.3,1260.8 1396.6,1261.5 1384.4,1260.8 1371.9,1258.7 1359.1,1255.4 1346.0,1250.7 1332.7,1244.8 1319.1,1237.7 1305.3,1229.4 1291.4,1220.0 1277.3,1209.5 1263.2,1198.1 1249.1,1185.8 1234.9,1172.7 1220.8,1158.8 1206.9,1144.3 1193.1,1129.3 1179.5,1113.8 1166.1,1098.1  A 522.500,522.500 0.00 0,1 1174.7,1091.1 L 1174.7,1091.1 1187.7,1107.1 1200.9,1122.8 1214.3,1138.0 1227.8,1152.8 1241.5,1166.9 1255.2,1180.3 1268.9,1192.9 1282.6,1204.6 1296.1,1215.3 1309.6,1225.0 1322.9,1233.5 1335.9,1240.9 1348.8,1247.1 1361.4,1251.9 1373.7,1255.5 1385.6,1257.8 1397.2,1258.7 1408.5,1258.2 1419.3,1256.4 1429.7,1253.2 1439.7,1248.6 1449.3,1242.7 1458.4,1235.4 1467.0,1226.8 1475.1,1216.9 1482.8,1205.8 1489.9,1193.5 1496.6,1180.0 1502.8,1165.5 1508.5,1150.0 1513.7,1133.5 1518.4,1116.1 1522.7,1098.0 1526.5,1079.2 1529.8,1059.9 1532.7,1040.0 1535.2,1019.9 1537.3,999.5 1539.0,979.0  Z" style="stroke-width: 0.5;  stroke: rgb(0,0,0); fill: rgb(179,177,178);" />
<path d="M 2022.352,1512.442 A 522.500,522.500 0.00 0,1 2022.1,1520.3 L 2022.1,1520.3 1996.7,1519.5 1971.0,1518.8 1945.3,1518.4 1919.4,1518.2 1893.3,1518.2 1867.2,1518.6 1841.0,1519.2 1814.6,1520.1 1788.2,1521.3 1761.7,1522.7 1735.2,1524.5 1708.6,1526.6 1682.0,1529.0 1655.4,1531.8 1628.8,1534.8 1602.2,1538.2 1575.6,1541.9 1549.0,1545.9 1522.5,1550.3 1496.0,1554.9 1469.6,1559.9 1443.3,1565.2 1417.0,1570.8 1390.9,1576.8 1364.8,1583.0 1338.9,1589.6 1313.1,1596.4 1287.4,1603.5 1261.8,1610.9 1236.5,1618.6 1211.2,1626.5 1186.2,1634.7 1161.3,1643.1 1136.6,1651.7 1112.1,1660.5 1087.9,1669.6 1063.8,1678.8 1040.0,1688.2 1016.4,1697.7  A 522.500,522.500 0.00 0,1 1013.4,1690.3 L 1013.4,1690.3 1037.2,1681.1 1061.3,1672.0 1085.5,1663.1 1110.0,1654.4 1134.7,1645.8 1159.5,1637.4 1184.5,1629.3 1209.7,1621.4 1235.1,1613.6 1260.5,1606.2 1286.2,1599.0 1312.0,1592.0 1337.9,1585.3 1363.9,1578.9 1390.0,1572.8 1416.2,1566.9 1442.5,1561.4 1468.9,1556.1 1495.3,1551.1 1521.9,1546.5 1548.4,1542.1 1575.0,1538.0 1601.6,1534.3 1628.3,1530.8 1654.9,1527.6 1681.5,1524.8 1708.2,1522.2 1734.8,1519.9 1761.3,1517.9 1787.8,1516.2 1814.3,1514.8 1840.7,1513.6 1867.0,1512.7 1893.2,1512.1 1919.3,1511.7 1945.2,1511.6 1971.1,1511.6 1996.8,1511.9 2022.4,1512.4  Z" style="stroke-width: 0.5;  stroke: rgb(0,0,0); fill: rgb(179,177,178);" />
<path d="M 2011.119,1608.460 A 522.500,522.500 0.00 0,1 2009.5,1615.9 L 2009.5,1615.9 1985.5,1610.6 1961.3,1605.6 1936.8,1601.0 1912.1,1596.8 1887.1,1592.9 1861.9,1589.4 1836.6,1586.4 1811.1,1583.8 1785.5,1581.7 1759.7,1580.1 1733.8,1578.9 1707.9,1578.3 1681.9,1578.1 1655.9,1578.5 1629.8,1579.5 1603.8,1581.0 1577.7,1583.0 1551.7,1585.5 1525.7,1588.7 1499.8,1592.3 1474.0,1596.5 1448.3,1601.2 1422.7,1606.5 1397.3,1612.3 1372.0,1618.6 1346.8,1625.5 1321.9,1632.8 1297.1,1640.6 1272.6,1648.8 1248.3,1657.5 1224.3,1666.7 1200.5,1676.2 1177.0,1686.1 1153.8,1696.4 1130.8,1707.1 1108.2,1718.0 1086.0,1729.2 1064.1,1740.7 1042.5,1752.4  A 522.500,522.500 0.00 0,1 1039.0,1745.9 L 1039.0,1745.9 1060.8,1734.4 1082.9,1723.2 1105.4,1712.2 1128.2,1701.5 1151.3,1691.1 1174.7,1681.1 1198.4,1671.4 1222.3,1662.0 1246.6,1653.1 1271.0,1644.5 1295.7,1636.4 1320.6,1628.8 1345.6,1621.6 1370.9,1614.8 1396.3,1608.6 1421.9,1602.9 1447.6,1597.6 1473.4,1592.9 1499.3,1588.7 1525.3,1585.1 1551.3,1581.9 1577.4,1579.3 1603.6,1577.2 1629.7,1575.6 1655.9,1574.6 1682.0,1574.0 1708.1,1574.0 1734.1,1574.4 1760.1,1575.4 1785.9,1576.8 1811.7,1578.7 1837.3,1581.1 1862.7,1583.8 1888.0,1587.0 1913.1,1590.6 1938.0,1594.6 1962.6,1598.9 1987.0,1603.5 2011.1,1608.5  Z" style="stroke-width: 0.5;  stroke: rgb(0,0,0); fill: rgb(179,177,178);" />
<path d="M 1595.646,986.329 A 522.500,522.500 0.00 0,1 1603.0,987.8 L 1603.0,987.8 1598.7,1008.2 1593.9,1028.6 1588.6,1048.7 1582.9,1068.5 1576.6,1087.9 1569.9,1106.7 1562.7,1124.8 1554.9,1142.2 1546.7,1158.9 1537.9,1174.6 1528.6,1189.3 1518.9,1203.1 1508.6,1215.7 1497.8,1227.3 1486.6,1237.6 1474.9,1246.8 1462.7,1254.7 1450.1,1261.3 1437.1,1266.6 1423.7,1270.7 1409.9,1273.4 1395.7,1274.8 1381.2,1275.0 1366.4,1273.8 1351.3,1271.4 1336.0,1267.7 1320.4,1262.8 1304.7,1256.7 1288.8,1249.5 1272.8,1241.2 1256.8,1232.0 1240.7,1221.7 1224.7,1210.5 1208.7,1198.6 1192.8,1185.9 1177.1,1172.6 1161.6,1158.7 1146.3,1144.3 1131.4,1129.7  A 522.500,522.500 0.00 0,1 1136.9,1124.3 L 1136.9,1124.3 1151.5,1139.2 1166.5,1153.7 1181.8,1167.8 1197.2,1181.3 1212.8,1194.2 1228.5,1206.4 1244.3,1217.7 1260.0,1228.2 1275.8,1237.7 1291.5,1246.1 1307.0,1253.5 1322.4,1259.7 1337.7,1264.8 1352.7,1268.6 1367.4,1271.2 1381.9,1272.5 1396.0,1272.6 1409.8,1271.3 1423.3,1268.7 1436.4,1264.7 1449.0,1259.5 1461.3,1252.9 1473.1,1245.1 1484.4,1236.0 1495.3,1225.8 1505.7,1214.3 1515.6,1201.7 1525.0,1187.9 1533.9,1173.2 1542.3,1157.5 1550.2,1140.9 1557.6,1123.5 1564.5,1105.3 1570.9,1086.5 1576.8,1067.1 1582.2,1047.3 1587.1,1027.2 1591.6,1006.8 1595.6,986.3  Z" style="stroke-width: 0.5;  stroke: rgb(0,0,0); fill: rgb(179,177,178);" />
<path d="M 2008.755,1380.942 A 522.500,522.500 0.00 0,1 2010.4,1388.2 L 2010.4,1388.2 1984.3,1393.9 1958.2,1399.6 1932.1,1405.3 1905.9,1411.0 1879.8,1416.7 1853.6,1422.3 1827.4,1427.9 1801.2,1433.6 1775.0,1439.2 1748.8,1444.8 1722.6,1450.3 1696.4,1455.9 1670.1,1461.4 1643.9,1467.0 1617.6,1472.5 1591.3,1478.0 1565.1,1483.4 1538.8,1488.9 1512.5,1494.3 1486.2,1499.8 1460.0,1505.1 1433.7,1510.5 1407.4,1515.9 1381.1,1521.2 1354.8,1526.6 1328.5,1531.9 1302.2,1537.1 1275.9,1542.4 1249.6,1547.7 1223.3,1552.9 1197.1,1558.1 1170.8,1563.3 1144.5,1568.5 1118.2,1573.6 1092.0,1578.8 1065.7,1583.9 1039.5,1589.0 1013.2,1594.1 987.0,1599.2  A 522.500,522.500 0.00 0,1 985.6,1591.8 L 985.6,1591.8 1011.8,1587.1 1038.1,1582.4 1064.3,1577.7 1090.6,1572.9 1116.9,1568.0 1143.2,1563.2 1169.5,1558.3 1195.8,1553.3 1222.1,1548.3 1248.5,1543.3 1274.8,1538.2 1301.1,1533.1 1327.5,1528.0 1353.8,1522.8 1380.2,1517.6 1406.5,1512.3 1432.9,1507.0 1459.2,1501.7 1485.5,1496.3 1511.8,1490.9 1538.2,1485.4 1564.5,1479.9 1590.7,1474.4 1617.0,1468.8 1643.3,1463.2 1669.5,1457.5 1695.8,1451.8 1722.0,1446.1 1748.2,1440.3 1774.3,1434.5 1800.5,1428.7 1826.6,1422.8 1852.7,1416.9 1878.8,1411.0 1904.8,1405.0 1930.9,1399.0 1956.9,1393.0 1982.8,1387.0 2008.8,1380.9  Z" style="stroke-width: 0.5;  stroke: rgb(0,0,0); fill: rgb(179,177,178);" />
</g>
<g id="plot0">
<g id="plot0-axis">
</g>
<line x1='2243.5' y1='1598.3' x2='2243.5' y2='1598.3' style="stroke-width:14.0;stroke:rgb(0,0,0);stroke-linecap:round;fill:none;" />
<line x1='2243.5' y1='1598.3' x2='2283.2' y2='1603.6' style="stroke-width:14.0;stroke:rgb(0,0,0);stroke-linecap:round;fill:none;" />
<line x1='2283.2' y1='1603.6' x2='2283.2' y2='1603.6' style="stroke-width:14.0;stroke:rgb(0,0,0);stroke-linecap:round;fill:none;" />
<text x="2299.8" y="1628.4" font-size="46.8px" font-family="CMUBright-Roman" style="text-anchor:start;fill:rgb(255,38,78);" transform="rotate(7.5,2299.8,1628.4)" >HistocapCB055<tspan baseline-shift="-40%" font-size="90%">s</tspan>00018</text>
</g>
<defs>
<pattern id="vline-sparse" width="10" height="10" patternTransform="rotate(0 0 0)" patternUnits="userSpaceOnUse"><line x1="0" y1="0" x2="0" y2="10" style="stroke:black;stroke-width:2" /></pattern>
<pattern id="checker" width="10" height="10" patternTransform="rotate(45 0 0)" patternUnits="userSpaceOnUse"><line x1="0" y1="0" x2="10" y2="0" style="stroke:black;stroke-width:5" /><line x1="0" y1="0" x2="0" y2="10" style="stroke:black;stroke-width:4" /></pattern>
<pattern id="vline" width="10" height="10" patternTransform="rotate(0 0 0)" patternUnits="userSpaceOnUse"><line x1="0" y1="0" x2="0" y2="10" style="stroke:black;stroke-width:5" /></pattern>
<pattern id="hline-sparse" width="10" height="10" patternTransform="rotate(0 0 0)" patternUnits="userSpaceOnUse"><line x1="0" y1="0" x2="10" y2="0" style="stroke:black;stroke-width:2" /></pattern>
<pattern id="checker" width="10" height="10" patternTransform="rotate(45 0 0)" patternUnits="userSpaceOnUse"><line x1="0" y1="0" x2="10" y2="0" style="stroke:black;stroke-width:2" /><line x1="0" y1="0" x2="0" y2="10" style="stroke:black;stroke-width:2" /></pattern>
<pattern id="hline" width="10" height="10" patternTransform="rotate(0 0 0)" patternUnits="userSpaceOnUse"><line x1="0" y1="0" x2="10" y2="0" style="stroke:black;stroke-width:5" /></pattern>
</defs>
</svg>
