<?xml version="1.0" encoding="utf-8" standalone="no"?>
<!DOCTYPE svg PUBLIC "-//W3C//DTD SVG 1.1//EN" "http://www.w3.org/Graphics/SVG/1.1/DTD/svg11.dtd">
<svg width="3000px" height="3000px" version="1.1" xmlns="http://www.w3.org/2000/svg" xmlns:xlink="http://www.w3.org/1999/xlink">
<g id="bg">
<rect x="0" y="0" width="3000px" height="3000px" style="fill:rgb(255,255,255);"/>
</g>
<g id="ideograms">
<path d="M1500.000,950.000 A550.000,550.000 40.000 0,1 1712.252,2007.394 L1789.434,2191.902 A750.000,750.000 0.000 0,0 1500.000,750.000 Z" style="stroke-width:2.0;stroke:rgb(0,0,0);stroke-linecap:round;fill:rgb(179,177,178);" />
<text x="2455.9" y="1308.1" font-size="46.8px" font-family="CMUBright-Roman" style="text-anchor:middle;fill:rgb(0,0,0);" transform="rotate(438.6,2455.9,1308.1)" >HistocapES283Z<tspan baseline-shift="-40%" font-size="90%">4</tspan></text>
<line x1='1574.1' y1='753.7' x2='1575.3' y2='741.7' style="stroke-width:8.0;stroke:rgb(150,150,150);stroke-linecap:round;fill:none;" />
<text x="1590.4" y="731.3" font-size="41.6px" font-family="CMUBright-Roman" style="text-anchor:start;fill:rgb(150,150,150);" transform="rotate(275.7,1590.4,731.3)" >50 kb</text>
<line x1='1674.2' y1='770.5' x2='1677.0' y2='758.8' style="stroke-width:8.0;stroke:rgb(150,150,150);stroke-linecap:round;fill:none;" />
<line x1='1771.1' y1='800.7' x2='1775.4' y2='789.5' style="stroke-width:8.0;stroke:rgb(150,150,150);stroke-linecap:round;fill:none;" />
<line x1='1863.0' y1='843.7' x2='1868.8' y2='833.2' style="stroke-width:8.0;stroke:rgb(150,150,150);stroke-linecap:round;fill:none;" />
<line x1='1948.3' y1='898.7' x2='1955.5' y2='889.1' style="stroke-width:8.0;stroke:rgb(150,150,150);stroke-linecap:round;fill:none;" />
<line x1='2025.4' y1='964.8' x2='2033.8' y2='956.2' style="stroke-width:8.0;stroke:rgb(150,150,150);stroke-linecap:round;fill:none;" />
<text x="2052.1" y="957.5" font-size="41.6px" font-family="CMUBright-Roman" style="text-anchor:start;fill:rgb(150,150,150);" transform="rotate(314.5,2052.1,957.5)" >100 kb</text>
<line x1='2092.8' y1='1040.6' x2='2102.3' y2='1033.3' style="stroke-width:8.0;stroke:rgb(150,150,150);stroke-linecap:round;fill:none;" />
<line x1='2149.4' y1='1124.9' x2='2159.8' y2='1118.9' style="stroke-width:8.0;stroke:rgb(150,150,150);stroke-linecap:round;fill:none;" />
<line x1='2194.1' y1='1216.0' x2='2205.3' y2='1211.4' style="stroke-width:8.0;stroke:rgb(150,150,150);stroke-linecap:round;fill:none;" />
<line x1='2226.1' y1='1312.3' x2='2237.8' y2='1309.3' style="stroke-width:8.0;stroke:rgb(150,150,150);stroke-linecap:round;fill:none;" />
<line x1='2244.8' y1='1412.1' x2='2256.7' y2='1410.7' style="stroke-width:8.0;stroke:rgb(150,150,150);stroke-linecap:round;fill:none;" />
<text x="2270.2" y="1423.2" font-size="41.6px" font-family="CMUBright-Roman" style="text-anchor:start;fill:rgb(150,150,150);" transform="rotate(353.3,2270.2,1423.2)" >150 kb</text>
<line x1='2249.9' y1='1513.5' x2='2261.9' y2='1513.7' style="stroke-width:8.0;stroke:rgb(150,150,150);stroke-linecap:round;fill:none;" />
<line x1='2241.2' y1='1614.6' x2='2253.1' y2='1616.4' style="stroke-width:8.0;stroke:rgb(150,150,150);stroke-linecap:round;fill:none;" />
<line x1='2218.9' y1='1713.6' x2='2230.4' y2='1717.0' style="stroke-width:8.0;stroke:rgb(150,150,150);stroke-linecap:round;fill:none;" />
<line x1='2183.5' y1='1808.7' x2='2194.4' y2='1813.7' style="stroke-width:8.0;stroke:rgb(150,150,150);stroke-linecap:round;fill:none;" />
<line x1='2135.6' y1='1898.2' x2='2145.7' y2='1904.6' style="stroke-width:8.0;stroke:rgb(150,150,150);stroke-linecap:round;fill:none;" />
<text x="2148.4" y="1922.7" font-size="41.6px" font-family="CMUBright-Roman" style="text-anchor:start;fill:rgb(150,150,150);" transform="rotate(32.1,2148.4,1922.7)" >200 kb</text>
<line x1='2076.0' y1='1980.4' x2='2085.2' y2='1988.1' style="stroke-width:8.0;stroke:rgb(150,150,150);stroke-linecap:round;fill:none;" />
<line x1='2005.8' y1='2053.7' x2='2013.9' y2='2062.6' style="stroke-width:8.0;stroke:rgb(150,150,150);stroke-linecap:round;fill:none;" />
<line x1='1926.4' y1='2117.0' x2='1933.3' y2='2126.8' style="stroke-width:8.0;stroke:rgb(150,150,150);stroke-linecap:round;fill:none;" />
<line x1='1839.2' y1='2168.9' x2='1844.7' y2='2179.6' style="stroke-width:8.0;stroke:rgb(150,150,150);stroke-linecap:round;fill:none;" />
<g id="highlighttrack_0">
<path d="M2037.170,1381.898 A550.000,550.000 40.000 0,1 2041.136,1401.653 L2237.912,1365.890 A750.000,750.000 0.000 0,0 2232.505,1338.952 Z" style="stroke-width:14.0;stroke:rgb(0,0,0);stroke-linecap:round;fill:rgb(255,38,78);" />
</g>
<path d="M1500.000,950.000 A550.000,550.000 40.000 0,1 1712.252,2007.394 L1789.434,2191.902 A750.000,750.000 0.000 0,0 1500.000,750.000 Z" style="stroke-width:2.0;stroke:rgb(0,0,0);stroke-linecap:round;fill:none;" />
<path d="M1494.436,2049.972 A550.000,550.000 40.000 0,1 1282.626,994.779 L1203.580,811.062 A750.000,750.000 0.000 0,0 1492.412,2249.962 Z" style="stroke-width:2.0;stroke:rgb(0,0,0);stroke-linecap:round;fill:rgb(179,177,178);" />
<text x="499.9" y="1700.7" font-size="46.8px" font-family="CMUBright-Roman" style="text-anchor:middle;fill:rgb(0,0,0);" transform="rotate(78.6,499.9,1700.7)" >HistocapWGSS14<tspan baseline-shift="-40%" font-size="90%">4</tspan></text>
<line x1='1171.2' y1='825.9' x2='1165.9' y2='815.1' style="stroke-width:8.0;stroke:rgb(150,150,150);stroke-linecap:round;fill:none;" />
<line x1='1083.2' y1='876.5' x2='1076.5' y2='866.5' style="stroke-width:8.0;stroke:rgb(150,150,150);stroke-linecap:round;fill:none;" />
<line x1='1002.8' y1='938.5' x2='994.9' y2='929.5' style="stroke-width:8.0;stroke:rgb(150,150,150);stroke-linecap:round;fill:none;" />
<line x1='931.5' y1='1010.8' x2='922.5' y2='1002.9' style="stroke-width:8.0;stroke:rgb(150,150,150);stroke-linecap:round;fill:none;" />
<text x="904.3" y="1005.8" font-size="41.6px" font-family="CMUBright-Roman" style="text-anchor:end;fill:rgb(150,150,150);" transform="rotate(40.7,904.3,1005.8)" >50 kb</text>
<line x1='870.7' y1='1092.0' x2='860.6' y2='1085.5' style="stroke-width:8.0;stroke:rgb(150,150,150);stroke-linecap:round;fill:none;" />
<line x1='821.4' y1='1180.7' x2='810.5' y2='1175.6' style="stroke-width:8.0;stroke:rgb(150,150,150);stroke-linecap:round;fill:none;" />
<line x1='784.5' y1='1275.3' x2='773.0' y2='1271.7' style="stroke-width:8.0;stroke:rgb(150,150,150);stroke-linecap:round;fill:none;" />
<line x1='760.7' y1='1373.9' x2='748.8' y2='1371.9' style="stroke-width:8.0;stroke:rgb(150,150,150);stroke-linecap:round;fill:none;" />
<line x1='750.4' y1='1474.9' x2='738.4' y2='1474.5' style="stroke-width:8.0;stroke:rgb(150,150,150);stroke-linecap:round;fill:none;" />
<text x="726.1" y="1488.1" font-size="41.6px" font-family="CMUBright-Roman" style="text-anchor:end;fill:rgb(150,150,150);" transform="rotate(1.9,726.1,1488.1)" >100 kb</text>
<line x1='753.9' y1='1576.3' x2='742.0' y2='1577.6' style="stroke-width:8.0;stroke:rgb(150,150,150);stroke-linecap:round;fill:none;" />
<line x1='771.0' y1='1676.4' x2='759.4' y2='1679.2' style="stroke-width:8.0;stroke:rgb(150,150,150);stroke-linecap:round;fill:none;" />
<line x1='801.5' y1='1773.2' x2='790.4' y2='1777.6' style="stroke-width:8.0;stroke:rgb(150,150,150);stroke-linecap:round;fill:none;" />
<line x1='844.8' y1='1865.0' x2='834.3' y2='1870.9' style="stroke-width:8.0;stroke:rgb(150,150,150);stroke-linecap:round;fill:none;" />
<line x1='900.1' y1='1950.1' x2='890.5' y2='1957.3' style="stroke-width:8.0;stroke:rgb(150,150,150);stroke-linecap:round;fill:none;" />
<text x="889.4" y="1975.7" font-size="41.6px" font-family="CMUBright-Roman" style="text-anchor:end;fill:rgb(150,150,150);" transform="rotate(-36.9,889.4,1975.7)" >150 kb</text>
<line x1='966.4' y1='2027.0' x2='957.8' y2='2035.4' style="stroke-width:8.0;stroke:rgb(150,150,150);stroke-linecap:round;fill:none;" />
<line x1='1042.4' y1='2094.2' x2='1035.1' y2='2103.7' style="stroke-width:8.0;stroke:rgb(150,150,150);stroke-linecap:round;fill:none;" />
<line x1='1126.8' y1='2150.6' x2='1120.9' y2='2161.0' style="stroke-width:8.0;stroke:rgb(150,150,150);stroke-linecap:round;fill:none;" />
<line x1='1218.1' y1='2195.0' x2='1213.6' y2='2206.1' style="stroke-width:8.0;stroke:rgb(150,150,150);stroke-linecap:round;fill:none;" />
<line x1='1314.5' y1='2226.7' x2='1311.6' y2='2238.3' style="stroke-width:8.0;stroke:rgb(150,150,150);stroke-linecap:round;fill:none;" />
<text x="1322.2" y="2253.3" font-size="41.6px" font-family="CMUBright-Roman" style="text-anchor:end;fill:rgb(150,150,150);" transform="rotate(-75.7,1322.2,2253.3)" >200 kb</text>
<line x1='1414.4' y1='2245.1' x2='1413.0' y2='2257.0' style="stroke-width:8.0;stroke:rgb(150,150,150);stroke-linecap:round;fill:none;" />
<path d="M1494.436,2049.972 A550.000,550.000 40.000 0,1 1282.626,994.779 L1203.580,811.062 A750.000,750.000 0.000 0,0 1492.412,2249.962 Z" style="stroke-width:2.0;stroke:rgb(0,0,0);stroke-linecap:round;fill:none;" />
</g>
<g id="track_0">
<path d="M 1786.975,1063.364 A 522.500,522.500 0.00 0,1 1843.3,1106.1 L 1843.3,1106.1 1827.9,1123.3 1812.1,1140.4 1795.7,1157.1 1778.8,1173.6 1761.5,1189.6 1743.6,1205.3 1725.3,1220.4 1706.5,1235.0 1687.3,1249.1 1667.7,1262.5 1647.7,1275.3 1627.3,1287.3 1606.5,1298.7 1585.3,1309.3 1563.9,1319.1 1542.1,1328.1 1520.0,1336.3 1497.7,1343.6 1475.1,1350.1 1452.2,1355.7 1429.2,1360.5 1406.0,1364.4 1382.6,1367.5 1359.2,1369.7 1335.6,1371.0 1312.0,1371.5 1288.3,1371.1 1264.6,1370.0 1240.9,1368.0 1217.3,1365.3 1193.8,1361.8 1170.4,1357.6 1147.1,1352.7 1124.0,1347.2 1101.2,1341.1 1078.6,1334.4 1056.3,1327.2 1034.3,1319.5 1012.7,1311.4  A 522.500,522.500 0.00 0,1 1042.7,1247.3 L 1042.7,1247.3 1062.3,1257.9 1082.4,1268.1 1102.9,1277.7 1123.6,1286.9 1144.6,1295.4 1165.9,1303.2 1187.3,1310.3 1208.9,1316.7 1230.6,1322.2 1252.4,1326.9 1274.2,1330.7 1296.0,1333.6 1317.8,1335.6 1339.5,1336.5 1361.1,1336.5 1382.6,1335.5 1404.0,1333.4 1425.1,1330.3 1446.1,1326.2 1466.8,1321.1 1487.2,1315.0 1507.4,1307.8 1527.2,1299.7 1546.7,1290.6 1565.9,1280.6 1584.6,1269.6 1603.0,1257.7 1621.0,1245.0 1638.5,1231.5 1655.6,1217.2 1672.2,1202.2 1688.3,1186.5 1704.0,1170.2 1719.1,1153.4 1733.8,1136.1 1747.9,1118.3 1761.4,1100.2 1774.5,1081.9 1787.0,1063.4  Z" style="stroke-width: 0.5;  stroke: rgb(0,0,0); fill: rgb(179,177,178);" />
<path d="M 1805.124,1924.153 A 522.500,522.500 0.00 0,1 1749.6,1959.0 L 1749.6,1959.0 1739.6,1940.9 1729.2,1923.1 1718.5,1905.6 1707.5,1888.6 1696.2,1872.3 1684.8,1856.6 1673.1,1841.7 1661.2,1827.6 1649.3,1814.6 1637.1,1802.6 1624.9,1791.7 1612.7,1781.9 1600.4,1773.4 1588.0,1766.2 1575.7,1760.3 1563.4,1755.7 1551.1,1752.5 1538.9,1750.7 1526.8,1750.2 1514.8,1751.2 1502.9,1753.6 1491.1,1757.4 1479.6,1762.6 1468.2,1769.2 1457.0,1777.0 1446.0,1786.2 1435.2,1796.6 1424.7,1808.3 1414.5,1821.0 1404.5,1834.9 1394.9,1849.7 1385.5,1865.5 1376.4,1882.1 1367.7,1899.5 1359.3,1917.5 1351.2,1936.0 1343.6,1955.0 1336.2,1974.3 1329.3,1993.8  A 522.500,522.500 0.00 0,1 1269.3,1968.8 L 1269.3,1968.8 1278.9,1950.0 1288.8,1931.4 1299.2,1913.1 1310.1,1895.2 1321.3,1877.9 1332.9,1861.2 1345.0,1845.3 1357.3,1830.1 1370.0,1815.8 1383.1,1802.5 1396.4,1790.2 1410.0,1778.9 1423.9,1768.8 1438.1,1759.9 1452.5,1752.2 1467.0,1745.7 1481.8,1740.5 1496.8,1736.6 1511.9,1734.0 1527.1,1732.8 1542.4,1732.8 1557.8,1734.2 1573.2,1736.8 1588.6,1740.8 1604.1,1746.0 1619.5,1752.5 1634.9,1760.2 1650.2,1769.0 1665.4,1778.9 1680.5,1789.9 1695.4,1801.9 1710.1,1814.8 1724.6,1828.6 1738.8,1843.1 1752.8,1858.3 1766.4,1874.1 1779.7,1890.5 1792.6,1907.2 1805.1,1924.2  Z" style="stroke-width: 0.5;  stroke: rgb(0,0,0); fill: rgb(179,177,178);" />
<path d="M 1867.544,1128.628 A 522.500,522.500 0.00 0,1 1906.7,1172.0 L 1906.7,1172.0 1887.8,1186.9 1868.5,1201.7 1848.8,1216.2 1828.6,1230.5 1808.1,1244.5 1787.2,1258.1 1765.8,1271.3 1744.2,1284.1 1722.2,1296.5 1699.8,1308.4 1677.1,1319.8 1654.1,1330.7 1630.9,1341.1 1607.3,1350.8 1583.5,1360.1 1559.5,1368.7 1535.2,1376.7 1510.8,1384.1 1486.1,1390.9 1461.3,1397.1 1436.3,1402.6 1411.2,1407.5 1386.0,1411.8 1360.7,1415.4 1335.4,1418.4 1310.0,1420.7 1284.6,1422.4 1259.2,1423.6 1233.8,1424.1 1208.5,1424.0 1183.2,1423.4 1158.1,1422.2 1133.0,1420.4 1108.2,1418.2 1083.5,1415.5 1059.0,1412.3 1034.8,1408.7 1010.8,1404.6 987.1,1400.2  A 522.500,522.500 0.00 0,1 1001.4,1343.7 L 1001.4,1343.7 1023.8,1350.5 1046.6,1356.9 1069.7,1362.8 1093.1,1368.3 1116.7,1373.2 1140.5,1377.5 1164.5,1381.2 1188.6,1384.3 1212.9,1386.7 1237.2,1388.5 1261.6,1389.5 1286.0,1389.8 1310.4,1389.4 1334.8,1388.2 1359.1,1386.3 1383.4,1383.5 1407.5,1380.0 1431.5,1375.7 1455.3,1370.6 1479.0,1364.7 1502.4,1358.1 1525.6,1350.7 1548.6,1342.5 1571.3,1333.6 1593.7,1323.9 1615.8,1313.6 1637.6,1302.5 1659.0,1290.8 1680.1,1278.5 1700.8,1265.6 1721.1,1252.1 1741.0,1238.0 1760.4,1223.5 1779.4,1208.5 1798.0,1193.2 1816.1,1177.4 1833.8,1161.4 1850.9,1145.1 1867.5,1128.6  Z" style="stroke-width: 0.5;  stroke: rgb(0,0,0); fill: rgb(179,177,178);" />
<path d="M 1500.000,977.500 A 522.500,522.500 0.00 0,1 1553.4,980.2 L 1553.4,980.2 1551.2,1000.4 1548.7,1020.5 1545.9,1040.3 1542.9,1059.7 1539.5,1078.5 1535.9,1096.7 1531.9,1114.2 1527.6,1130.8 1523.1,1146.5 1518.2,1161.1 1513.0,1174.6 1507.5,1186.9 1501.6,1198.0 1495.5,1207.8 1489.1,1216.3 1482.4,1223.3 1475.4,1229.0 1468.2,1233.2 1460.7,1235.9 1452.9,1237.2 1444.9,1237.0 1436.7,1235.3 1428.3,1232.2 1419.7,1227.6 1410.9,1221.7 1402.0,1214.4 1392.9,1205.7 1383.8,1195.8 1374.5,1184.6 1365.2,1172.3 1355.9,1159.0 1346.5,1144.6 1337.2,1129.3 1327.9,1113.2 1318.7,1096.5 1309.6,1079.1 1300.7,1061.2 1291.9,1043.0 1283.3,1024.5  A 522.500,522.500 0.00 0,1 1293.5,1020.0 L 1293.5,1020.0 1301.6,1038.6 1309.8,1056.9 1318.2,1074.9 1326.6,1092.4 1335.1,1109.3 1343.6,1125.5 1352.1,1141.0 1360.5,1155.5 1368.8,1169.0 1377.0,1181.4 1385.1,1192.7 1393.0,1202.7 1400.8,1211.5 1408.3,1218.9 1415.6,1225.0 1422.7,1229.6 1429.5,1232.8 1436.0,1234.5 1442.3,1234.8 1448.2,1233.6 1453.8,1230.9 1459.2,1226.7 1464.1,1221.1 1468.8,1214.0 1473.1,1205.6 1477.1,1195.7 1480.8,1184.6 1484.1,1172.3 1487.0,1158.7 1489.7,1144.1 1492.0,1128.4 1494.0,1111.7 1495.7,1094.2 1497.1,1076.0 1498.2,1057.1 1499.0,1037.6 1499.6,1017.8 1499.9,997.7 1500.0,977.5  Z" style="stroke-width: 0.5;  stroke: rgb(0,0,0); fill: rgb(179,177,178);" />
<path d="M 2019.203,1558.605 A 522.500,522.500 0.00 0,1 2009.8,1614.4 L 2009.8,1614.4 1986.2,1609.3 1962.2,1604.5 1937.9,1600.1 1913.4,1596.2 1888.7,1592.6 1863.8,1589.6 1838.7,1587.0 1813.5,1584.9 1788.2,1583.3 1762.7,1582.3 1737.2,1581.8 1711.6,1582.0 1685.9,1582.7 1660.3,1584.0 1634.7,1585.9 1609.1,1588.4 1583.5,1591.5 1558.0,1595.2 1532.6,1599.6 1507.4,1604.5 1482.2,1610.1 1457.2,1616.2 1432.4,1623.0 1407.7,1630.4 1383.3,1638.3 1359.0,1646.8 1335.0,1655.8 1311.3,1665.3 1287.8,1675.4 1264.6,1686.0 1241.8,1697.0 1219.2,1708.4 1196.9,1720.3 1175.0,1732.6 1153.5,1745.2 1132.3,1758.1 1111.5,1771.3 1091.1,1784.8 1071.1,1798.4  A 522.500,522.500 0.00 0,1 1041.4,1750.4 L 1041.4,1750.4 1063.3,1738.6 1085.5,1727.0 1108.1,1715.6 1130.9,1704.4 1154.1,1693.5 1177.5,1682.9 1201.2,1672.6 1225.1,1662.6 1249.3,1652.9 1273.7,1643.6 1298.3,1634.6 1323.2,1626.1 1348.2,1617.9 1373.4,1610.2 1398.8,1602.9 1424.4,1596.0 1450.1,1589.5 1475.9,1583.5 1501.8,1577.9 1527.8,1572.8 1553.9,1568.2 1580.1,1564.0 1606.3,1560.3 1632.5,1557.0 1658.8,1554.2 1685.1,1551.9 1711.3,1550.0 1737.6,1548.5 1763.8,1547.5 1789.9,1546.9 1815.9,1546.7 1841.9,1546.9 1867.7,1547.5 1893.4,1548.5 1918.9,1549.9 1944.3,1551.6 1969.5,1553.6 1994.5,1556.0 2019.2,1558.6  Z" style="stroke-width: 0.5;  stroke: rgb(0,0,0); fill: rgb(179,177,178);" />
<path d="M 1893.875,1843.320 A 522.500,522.500 0.00 0,1 1855.5,1882.9 L 1855.5,1882.9 1840.7,1867.3 1825.4,1852.0 1809.7,1837.1 1793.6,1822.7 1777.2,1808.9 1760.5,1795.8 1743.5,1783.5 1726.3,1771.9 1708.8,1761.3 1691.2,1751.6 1673.4,1742.8 1655.5,1735.2 1637.5,1728.6 1619.5,1723.1 1601.4,1718.8 1583.3,1715.6 1565.3,1713.7 1547.3,1712.9 1529.3,1713.4 1511.5,1715.1 1493.8,1718.0 1476.3,1722.1 1458.9,1727.5 1441.8,1734.0 1424.8,1741.6 1408.1,1750.4 1391.7,1760.3 1375.6,1771.2 1359.8,1783.1 1344.3,1796.0 1329.2,1809.8 1314.4,1824.4 1300.1,1839.7 1286.1,1855.7 1272.6,1872.4 1259.6,1889.5 1246.9,1907.1 1234.8,1925.0 1223.2,1943.2  A 522.500,522.500 0.00 0,1 1178.4,1911.8 L 1178.4,1911.8 1192.1,1894.6 1206.4,1877.7 1221.2,1861.0 1236.4,1844.9 1252.2,1829.2 1268.3,1814.1 1284.9,1799.6 1301.8,1785.9 1319.2,1772.9 1336.9,1760.7 1354.9,1749.4 1373.3,1739.1 1391.9,1729.7 1410.8,1721.3 1430.0,1713.9 1449.4,1707.6 1468.9,1702.4 1488.7,1698.2 1508.6,1695.2 1528.6,1693.3 1548.7,1692.5 1568.9,1692.8 1589.1,1694.2 1609.3,1696.8 1629.5,1700.4 1649.7,1705.0 1669.8,1710.7 1689.7,1717.4 1709.6,1725.1 1729.3,1733.6 1748.8,1743.1 1768.0,1753.4 1787.1,1764.4 1805.8,1776.2 1824.2,1788.6 1842.2,1801.6 1859.9,1815.1 1877.1,1829.1 1893.9,1843.3  Z" style="stroke-width: 0.5;  stroke: rgb(0,0,0); fill: rgb(179,177,178);" />
<path d="M 1929.938,1203.083 A 522.500,522.500 0.00 0,1 1957.6,1247.8 L 1957.6,1247.8 1935.5,1259.8 1913.1,1271.7 1890.5,1283.4 1867.5,1294.9 1844.3,1306.1 1820.9,1317.2 1797.2,1328.0 1773.2,1338.5 1749.1,1348.8 1724.7,1358.7 1700.1,1368.3 1675.3,1377.7 1650.3,1386.6 1625.2,1395.3 1599.9,1403.5 1574.4,1411.4 1548.8,1418.9 1523.1,1426.1 1497.2,1432.9 1471.3,1439.2 1445.3,1445.2 1419.2,1450.8 1393.0,1456.0 1366.8,1460.8 1340.5,1465.2 1314.2,1469.3 1288.0,1472.9 1261.7,1476.2 1235.4,1479.0 1209.2,1481.5 1183.1,1483.6 1157.0,1485.4 1131.0,1486.8 1105.0,1487.9 1079.3,1488.7 1053.6,1489.1 1028.1,1489.3 1002.8,1489.2 977.6,1488.7  A 522.500,522.500 0.00 0,1 981.3,1437.3 L 981.3,1437.3 1005.7,1440.0 1030.3,1442.5 1055.1,1444.6 1080.2,1446.2 1105.4,1447.5 1130.8,1448.4 1156.4,1448.8 1182.0,1448.8 1207.7,1448.2 1233.5,1447.2 1259.4,1445.7 1285.2,1443.7 1311.1,1441.2 1337.0,1438.1 1362.8,1434.5 1388.6,1430.4 1414.3,1425.7 1440.0,1420.5 1465.5,1414.8 1490.9,1408.5 1516.2,1401.7 1541.3,1394.4 1566.2,1386.6 1590.9,1378.2 1615.5,1369.4 1639.8,1360.0 1663.9,1350.2 1687.7,1340.0 1711.3,1329.3 1734.6,1318.2 1757.6,1306.7 1780.3,1294.8 1802.7,1282.5 1824.8,1269.9 1846.6,1257.1 1868.0,1243.9 1889.0,1230.5 1909.7,1216.9 1929.9,1203.1  Z" style="stroke-width: 0.5;  stroke: rgb(0,0,0); fill: rgb(179,177,178);" />
<path d="M 1978.098,1289.219 A 522.500,522.500 0.00 0,1 1996.0,1335.7 L 1996.0,1335.7 1971.3,1343.8 1946.4,1351.8 1921.4,1359.8 1896.3,1367.6 1871.0,1375.3 1845.6,1382.8 1820.1,1390.3 1794.5,1397.6 1768.8,1404.7 1743.0,1411.8 1717.1,1418.6 1691.1,1425.3 1665.1,1431.8 1638.9,1438.2 1612.7,1444.3 1586.4,1450.3 1560.1,1456.2 1533.7,1461.8 1507.2,1467.2 1480.8,1472.5 1454.3,1477.6 1427.7,1482.5 1401.1,1487.2 1374.6,1491.7 1348.0,1496.0 1321.4,1500.2 1294.8,1504.1 1268.2,1507.9 1241.7,1511.5 1215.2,1514.9 1188.7,1518.1 1162.2,1521.2 1135.8,1524.0 1109.5,1526.7 1083.2,1529.3 1057.0,1531.7 1030.9,1533.9 1004.8,1536.0 978.9,1538.0  A 522.500,522.500 0.00 0,1 977.6,1489.0 L 977.6,1489.0 1003.0,1489.4 1028.6,1489.6 1054.4,1489.5 1080.3,1489.2 1106.3,1488.7 1132.4,1487.9 1158.6,1486.7 1184.9,1485.3 1211.3,1483.6 1237.7,1481.6 1264.2,1479.3 1290.7,1476.7 1317.2,1473.7 1343.7,1470.4 1370.3,1466.8 1396.8,1462.9 1423.3,1458.6 1449.7,1454.0 1476.1,1449.1 1502.5,1443.8 1528.8,1438.3 1555.0,1432.3 1581.1,1426.1 1607.1,1419.6 1632.9,1412.7 1658.7,1405.5 1684.3,1398.1 1709.8,1390.3 1735.2,1382.3 1760.3,1374.0 1785.3,1365.5 1810.1,1356.7 1834.8,1347.6 1859.2,1338.4 1883.4,1328.9 1907.4,1319.2 1931.2,1309.4 1954.8,1299.4 1978.1,1289.2  Z" style="stroke-width: 0.5;  stroke: rgb(0,0,0); fill: rgb(179,177,178);" />
<path d="M 2004.538,1635.822 A 522.500,522.500 0.00 0,1 1989.4,1683.0 L 1989.4,1683.0 1967.6,1675.1 1945.4,1667.6 1922.8,1660.5 1900.0,1654.0 1876.9,1648.0 1853.6,1642.6 1830.1,1637.8 1806.4,1633.7 1782.6,1630.3 1758.7,1627.5 1734.7,1625.6 1710.7,1624.4 1686.7,1624.0 1662.7,1624.3 1638.8,1625.5 1614.9,1627.5 1591.2,1630.4 1567.6,1634.1 1544.1,1638.6 1520.8,1643.9 1497.7,1650.1 1474.8,1657.1 1452.2,1664.9 1429.9,1673.5 1407.8,1682.9 1386.0,1693.0 1364.6,1703.8 1343.5,1715.4 1322.8,1727.6 1302.5,1740.5 1282.6,1753.9 1263.1,1768.0 1244.0,1782.5 1225.4,1797.6 1207.2,1813.0 1189.5,1828.9 1172.3,1845.0 1155.6,1861.5 1139.4,1878.1  A 522.500,522.500 0.00 0,1 1105.2,1842.2 L 1105.2,1842.2 1123.3,1826.8 1141.9,1811.6 1160.9,1796.7 1180.3,1782.0 1200.2,1767.7 1220.5,1753.8 1241.2,1740.3 1262.3,1727.3 1283.8,1714.7 1305.6,1702.7 1327.7,1691.2 1350.2,1680.3 1373.0,1670.0 1396.1,1660.3 1419.4,1651.3 1443.0,1643.0 1466.9,1635.3 1490.9,1628.3 1515.1,1621.9 1539.6,1616.3 1564.1,1611.5 1588.8,1607.3 1613.6,1603.8 1638.5,1601.0 1663.4,1599.0 1688.4,1597.6 1713.4,1597.0 1738.4,1597.0 1763.3,1597.6 1788.2,1598.9 1813.0,1600.9 1837.7,1603.4 1862.2,1606.5 1886.5,1610.2 1910.7,1614.4 1934.6,1619.1 1958.2,1624.3 1981.5,1629.9 2004.5,1635.8  Z" style="stroke-width: 0.5;  stroke: rgb(0,0,0); fill: rgb(179,177,178);" />
<path d="M 2008.551,1619.925 A 522.500,522.500 0.00 0,1 1998.2,1657.4 L 1998.2,1657.4 1975.5,1650.4 1952.5,1643.9 1929.2,1637.7 1905.5,1632.0 1881.6,1626.8 1857.5,1622.2 1833.2,1618.0 1808.7,1614.5 1784.1,1611.6 1759.3,1609.3 1734.5,1607.6 1709.6,1606.6 1684.7,1606.3 1659.7,1606.7 1634.8,1607.8 1609.9,1609.6 1585.1,1612.2 1560.3,1615.4 1535.7,1619.4 1511.2,1624.1 1486.8,1629.6 1462.6,1635.7 1438.6,1642.6 1414.8,1650.1 1391.2,1658.3 1367.9,1667.2 1344.9,1676.7 1322.1,1686.9 1299.7,1697.6 1277.5,1709.0 1255.8,1720.8 1234.3,1733.2 1213.3,1746.0 1192.6,1759.3 1172.4,1773.0 1152.5,1787.0 1133.1,1801.4 1114.1,1816.0 1095.6,1830.9  A 522.500,522.500 0.00 0,1 1071.7,1799.2 L 1071.7,1799.2 1091.6,1785.5 1111.9,1772.1 1132.7,1758.8 1153.8,1745.9 1175.3,1733.3 1197.2,1721.1 1219.4,1709.2 1241.9,1697.8 1264.8,1686.8 1287.9,1676.3 1311.4,1666.2 1335.1,1656.7 1359.1,1647.8 1383.3,1639.4 1407.7,1631.5 1432.3,1624.3 1457.1,1617.6 1482.1,1611.5 1507.2,1606.1 1532.5,1601.2 1557.8,1597.0 1583.3,1593.4 1608.8,1590.5 1634.3,1588.1 1659.9,1586.4 1685.5,1585.3 1711.1,1584.8 1736.7,1584.9 1762.2,1585.5 1787.6,1586.7 1812.9,1588.5 1838.0,1590.8 1863.0,1593.6 1887.9,1596.9 1912.5,1600.7 1936.9,1604.9 1961.1,1609.6 1985.0,1614.6 2008.6,1619.9  Z" style="stroke-width: 0.5;  stroke: rgb(0,0,0); fill: rgb(179,177,178);" />
<path d="M 2001.285,1352.626 A 522.500,522.500 0.00 0,1 2010.3,1387.8 L 2010.3,1387.8 1984.2,1393.5 1958.1,1399.3 1932.0,1405.0 1905.9,1410.6 1879.7,1416.3 1853.5,1422.0 1827.4,1427.6 1801.2,1433.3 1775.0,1438.9 1748.8,1444.5 1722.5,1450.1 1696.3,1455.7 1670.1,1461.2 1643.8,1466.7 1617.6,1472.2 1591.3,1477.7 1565.0,1483.2 1538.8,1488.7 1512.5,1494.1 1486.2,1499.5 1459.9,1504.9 1433.6,1510.3 1407.3,1515.6 1381.0,1521.0 1354.7,1526.3 1328.4,1531.6 1302.1,1536.9 1275.8,1542.1 1249.6,1547.3 1223.3,1552.6 1197.0,1557.7 1170.7,1562.9 1144.4,1568.1 1118.1,1573.2 1091.9,1578.3 1065.6,1583.4 1039.4,1588.5 1013.1,1593.6 986.9,1598.6  A 522.500,522.500 0.00 0,1 981.2,1562.4 L 981.2,1562.4 1007.3,1559.2 1033.5,1555.9 1059.7,1552.6 1085.9,1549.1 1112.2,1545.5 1138.6,1541.8 1165.0,1538.0 1191.4,1534.0 1217.8,1530.0 1244.3,1525.8 1270.8,1521.5 1297.2,1517.1 1323.7,1512.5 1350.2,1507.8 1376.7,1503.0 1403.2,1498.1 1429.7,1493.1 1456.2,1487.9 1482.6,1482.6 1509.1,1477.1 1535.5,1471.6 1561.8,1465.9 1588.2,1460.1 1614.5,1454.2 1640.7,1448.1 1666.9,1441.9 1693.0,1435.7 1719.1,1429.3 1745.1,1422.8 1771.1,1416.2 1797.0,1409.5 1822.8,1402.7 1848.6,1395.8 1874.2,1388.8 1899.8,1381.7 1925.3,1374.5 1950.7,1367.3 1976.1,1360.0 2001.3,1352.6  Z" style="stroke-width: 0.5;  stroke: rgb(0,0,0); fill: rgb(179,177,178);" />
<path d="M 1756.673,1044.890 A 522.500,522.500 0.00 0,1 1787.0,1063.4 L 1787.0,1063.4 1774.5,1081.9 1761.5,1100.2 1747.9,1118.3 1733.8,1136.0 1719.2,1153.4 1704.0,1170.2 1688.4,1186.5 1672.3,1202.1 1655.7,1217.1 1638.6,1231.4 1621.1,1244.9 1603.1,1257.6 1584.7,1269.4 1566.0,1280.4 1546.9,1290.4 1527.4,1299.4 1507.5,1307.5 1487.4,1314.6 1467.0,1320.7 1446.3,1325.8 1425.4,1329.8 1404.2,1332.9 1382.9,1334.9 1361.5,1335.8 1339.9,1335.8 1318.2,1334.8 1296.4,1332.8 1274.6,1329.9 1252.9,1326.0 1231.1,1321.3 1209.5,1315.7 1187.9,1309.2 1166.5,1302.0 1145.3,1294.1 1124.3,1285.5 1103.6,1276.4 1083.2,1266.6 1063.2,1256.4 1043.5,1245.8  A 522.500,522.500 0.00 0,1 1062.0,1215.1 L 1062.0,1215.1 1080.6,1226.9 1099.6,1238.3 1118.9,1249.1 1138.6,1259.5 1158.5,1269.2 1178.7,1278.2 1199.0,1286.5 1219.5,1293.9 1240.0,1300.5 1260.7,1306.3 1281.4,1311.0 1302.0,1314.8 1322.6,1317.6 1343.2,1319.3 1363.6,1320.0 1383.9,1319.7 1404.0,1318.2 1423.9,1315.6 1443.6,1311.9 1463.1,1307.2 1482.2,1301.3 1501.1,1294.4 1519.6,1286.4 1537.7,1277.4 1555.5,1267.3 1572.9,1256.3 1589.9,1244.3 1606.5,1231.3 1622.6,1217.6 1638.3,1203.0 1653.5,1187.6 1668.2,1171.5 1682.4,1154.8 1696.1,1137.4 1709.3,1119.6 1721.9,1101.4 1734.1,1082.8 1745.6,1063.9 1756.7,1044.9  Z" style="stroke-width: 0.5;  stroke: rgb(0,0,0); fill: rgb(179,177,178);" />
<path d="M 1907.518,1172.990 A 522.500,522.500 0.00 0,1 1928.1,1200.4 L 1928.1,1200.4 1907.9,1214.3 1887.3,1228.0 1866.4,1241.5 1845.1,1254.8 1823.5,1267.8 1801.5,1280.4 1779.2,1292.8 1756.5,1304.8 1733.6,1316.4 1710.4,1327.6 1686.9,1338.3 1663.1,1348.7 1639.1,1358.5 1614.8,1367.9 1590.3,1376.8 1565.6,1385.2 1540.7,1393.1 1515.7,1400.4 1490.5,1407.3 1465.1,1413.5 1439.6,1419.3 1414.0,1424.5 1388.4,1429.1 1362.6,1433.3 1336.8,1436.8 1311.0,1439.9 1285.1,1442.4 1259.3,1444.3 1233.4,1445.8 1207.7,1446.7 1182.0,1447.2 1156.4,1447.2 1130.9,1446.7 1105.5,1445.7 1080.3,1444.4 1055.3,1442.6 1030.5,1440.4 1005.9,1437.9 981.6,1435.0  A 522.500,522.500 0.00 0,1 986.9,1401.2 L 986.9,1401.2 1010.6,1405.5 1034.6,1409.5 1058.9,1413.1 1083.4,1416.3 1108.1,1418.9 1133.0,1421.2 1158.0,1422.9 1183.2,1424.0 1208.4,1424.6 1233.8,1424.7 1259.2,1424.1 1284.6,1423.0 1310.0,1421.3 1335.4,1418.9 1360.8,1415.9 1386.1,1412.3 1411.3,1408.0 1436.4,1403.1 1461.4,1397.6 1486.3,1391.4 1511.0,1384.7 1535.4,1377.3 1559.7,1369.2 1583.8,1360.6 1607.6,1351.4 1631.2,1341.6 1654.5,1331.3 1677.5,1320.4 1700.2,1309.1 1722.6,1297.2 1744.7,1284.8 1766.4,1272.1 1787.7,1258.9 1808.7,1245.3 1829.3,1231.4 1849.5,1217.2 1869.2,1202.7 1888.6,1187.9 1907.5,1173.0  Z" style="stroke-width: 0.5;  stroke: rgb(0,0,0); fill: rgb(179,177,178);" />
<path d="M 1648.562,999.065 A 522.500,522.500 0.00 0,1 1680.3,1009.6 L 1680.3,1009.6 1672.8,1029.2 1664.9,1048.7 1656.5,1067.9 1647.7,1086.7 1638.4,1105.0 1628.7,1122.7 1618.6,1139.7 1608.1,1155.9 1597.1,1171.3 1585.8,1185.7 1574.0,1199.1 1561.9,1211.5 1549.5,1222.7 1536.6,1232.8 1523.5,1241.7 1510.0,1249.3 1496.3,1255.7 1482.3,1260.7 1468.0,1264.5 1453.5,1266.9 1438.8,1268.0 1423.8,1267.8 1408.8,1266.3 1393.6,1263.5 1378.2,1259.3 1362.8,1254.0 1347.4,1247.4 1331.9,1239.7 1316.4,1230.8 1301.0,1220.9 1285.7,1209.9 1270.4,1198.0 1255.3,1185.3 1240.4,1171.7 1225.6,1157.4 1211.2,1142.5 1197.0,1127.1 1183.2,1111.3 1169.7,1095.1  A 522.500,522.500 0.00 0,1 1196.4,1074.7 L 1196.4,1074.7 1208.7,1091.5 1221.3,1108.1 1234.2,1124.2 1247.4,1139.8 1260.7,1154.8 1274.3,1169.1 1288.0,1182.6 1301.9,1195.2 1315.8,1206.8 1329.8,1217.4 1343.8,1226.9 1357.7,1235.2 1371.7,1242.3 1385.5,1248.2 1399.3,1252.8 1412.9,1256.1 1426.4,1258.0 1439.7,1258.6 1452.8,1257.8 1465.7,1255.7 1478.4,1252.1 1490.8,1247.3 1502.9,1241.0 1514.7,1233.5 1526.2,1224.7 1537.4,1214.6 1548.3,1203.3 1558.8,1190.9 1568.9,1177.4 1578.7,1162.8 1588.1,1147.3 1597.1,1130.8 1605.6,1113.6 1613.8,1095.7 1621.6,1077.2 1629.0,1058.1 1635.9,1038.7 1642.4,1018.9 1648.6,999.1  Z" style="stroke-width: 0.5;  stroke: rgb(0,0,0); fill: rgb(179,177,178);" />
<path d="M 1844.125,1106.828 A 522.500,522.500 0.00 0,1 1866.9,1128.0 L 1866.9,1128.0 1850.3,1144.5 1833.2,1160.8 1815.6,1176.8 1797.5,1192.6 1779.0,1207.9 1760.0,1222.9 1740.6,1237.4 1720.7,1251.5 1700.5,1265.0 1679.8,1277.9 1658.8,1290.2 1637.4,1301.9 1615.6,1312.9 1593.6,1323.2 1571.2,1332.8 1548.5,1341.7 1525.6,1349.9 1502.4,1357.2 1479.0,1363.8 1455.4,1369.7 1431.6,1374.7 1407.6,1378.9 1383.5,1382.4 1359.3,1385.1 1335.0,1386.9 1310.7,1388.0 1286.3,1388.4 1261.9,1388.0 1237.6,1386.9 1213.3,1385.0 1189.1,1382.5 1165.0,1379.3 1141.0,1375.4 1117.3,1371.0 1093.7,1366.0 1070.4,1360.4 1047.4,1354.4 1024.6,1347.9 1002.3,1341.0  A 522.500,522.500 0.00 0,1 1012.6,1311.8 L 1012.6,1311.8 1034.2,1319.9 1056.2,1327.5 1078.5,1334.7 1101.1,1341.4 1124.0,1347.5 1147.1,1353.0 1170.3,1357.9 1193.8,1362.1 1217.3,1365.5 1240.9,1368.3 1264.6,1370.2 1288.3,1371.4 1312.0,1371.7 1335.7,1371.3 1359.3,1369.9 1382.8,1367.7 1406.1,1364.7 1429.4,1360.8 1452.4,1356.0 1475.2,1350.4 1497.9,1343.9 1520.2,1336.6 1542.4,1328.4 1564.2,1319.4 1585.7,1309.6 1606.8,1299.1 1627.7,1287.7 1648.1,1275.7 1668.2,1263.0 1687.8,1249.6 1707.1,1235.6 1725.9,1221.0 1744.2,1205.8 1762.1,1190.2 1779.5,1174.2 1796.4,1157.8 1812.8,1141.0 1828.7,1124.0 1844.1,1106.8  Z" style="stroke-width: 0.5;  stroke: rgb(0,0,0); fill: rgb(179,177,178);" />
<path d="M 2020.636,1455.908 A 522.500,522.500 0.00 0,1 2022.3,1486.1 L 2022.3,1486.1 1996.6,1486.9 1970.7,1487.8 1944.7,1489.0 1918.6,1490.3 1892.4,1491.9 1866.1,1493.6 1839.8,1495.6 1813.4,1497.8 1786.9,1500.2 1760.4,1502.9 1733.8,1505.8 1707.2,1508.9 1680.6,1512.3 1654.0,1516.0 1627.4,1519.9 1600.8,1524.0 1574.2,1528.4 1547.7,1533.1 1521.1,1538.0 1494.7,1543.1 1468.2,1548.5 1441.9,1554.2 1415.6,1560.1 1389.4,1566.2 1363.2,1572.6 1337.2,1579.2 1311.3,1586.0 1285.4,1593.1 1259.7,1600.3 1234.1,1607.8 1208.7,1615.5 1183.4,1623.4 1158.2,1631.4 1133.2,1639.7 1108.3,1648.0 1083.6,1656.6 1059.1,1665.3 1034.8,1674.1 1010.6,1683.1  A 522.500,522.500 0.00 0,1 1001.0,1654.8 L 1001.0,1654.8 1025.9,1647.2 1051.0,1639.6 1076.2,1632.0 1101.5,1624.6 1127.0,1617.3 1152.5,1610.1 1178.2,1603.0 1203.9,1596.1 1229.7,1589.3 1255.6,1582.6 1281.6,1576.0 1307.7,1569.6 1333.8,1563.3 1360.0,1557.2 1386.3,1551.2 1412.6,1545.4 1439.0,1539.8 1465.4,1534.3 1491.9,1528.9 1518.4,1523.8 1544.9,1518.8 1571.5,1513.9 1598.0,1509.2 1624.6,1504.7 1651.2,1500.4 1677.8,1496.2 1704.4,1492.2 1730.9,1488.3 1757.5,1484.6 1784.0,1481.1 1810.5,1477.7 1837.0,1474.5 1863.4,1471.4 1889.8,1468.5 1916.1,1465.7 1942.3,1463.1 1968.5,1460.6 1994.6,1458.2 2020.6,1455.9  Z" style="stroke-width: 0.5;  stroke: rgb(0,0,0); fill: rgb(179,177,178);" />
<path d="M 2021.678,1529.289 A 522.500,522.500 0.00 0,1 2019.3,1557.5 L 2019.3,1557.5 1994.6,1554.9 1969.6,1552.6 1944.4,1550.6 1919.0,1549.0 1893.5,1547.7 1867.7,1546.7 1841.9,1546.1 1816.0,1546.0 1789.9,1546.2 1763.8,1546.8 1737.6,1547.9 1711.3,1549.4 1685.1,1551.3 1658.8,1553.7 1632.5,1556.5 1606.2,1559.8 1580.0,1563.6 1553.9,1567.8 1527.8,1572.4 1501.7,1577.5 1475.8,1583.1 1450.0,1589.1 1424.3,1595.6 1398.8,1602.5 1373.4,1609.8 1348.1,1617.6 1323.1,1625.7 1298.2,1634.3 1273.6,1643.2 1249.2,1652.5 1225.0,1662.2 1201.0,1672.2 1177.3,1682.5 1153.9,1693.1 1130.7,1704.0 1107.9,1715.1 1085.3,1726.5 1063.0,1738.1 1041.1,1749.9  A 522.500,522.500 0.00 0,1 1028.2,1724.6 L 1028.2,1724.6 1051.1,1713.9 1074.2,1703.3 1097.5,1692.9 1121.2,1682.7 1145.0,1672.8 1169.1,1663.0 1193.4,1653.6 1218.0,1644.3 1242.7,1635.4 1267.6,1626.8 1292.8,1618.5 1318.1,1610.5 1343.5,1602.8 1369.1,1595.4 1394.8,1588.5 1420.7,1581.8 1446.7,1575.5 1472.8,1569.6 1499.0,1564.1 1525.2,1558.9 1551.6,1554.2 1577.9,1549.7 1604.4,1545.7 1630.8,1542.1 1657.3,1538.8 1683.8,1535.9 1710.2,1533.4 1736.7,1531.2 1763.1,1529.4 1789.4,1527.9 1815.7,1526.8 1841.9,1526.1 1868.0,1525.6 1894.0,1525.5 1919.8,1525.7 1945.5,1526.2 1971.1,1527.0 1996.5,1528.0 2021.7,1529.3  Z" style="stroke-width: 0.5;  stroke: rgb(0,0,0); fill: rgb(179,177,178);" />
<path d="M 1610.876,989.400 A 522.500,522.500 0.00 0,1 1637.5,995.9 L 1637.5,995.9 1631.8,1015.9 1625.8,1035.7 1619.3,1055.2 1612.5,1074.3 1605.2,1092.9 1597.6,1110.9 1589.5,1128.2 1581.1,1144.6 1572.2,1160.2 1563.0,1174.8 1553.5,1188.3 1543.5,1200.8 1533.3,1212.1 1522.7,1222.1 1511.7,1230.9 1500.5,1238.4 1488.9,1244.6 1477.1,1249.4 1465.1,1252.8 1452.7,1254.9 1440.2,1255.5 1427.5,1254.8 1414.6,1252.7 1401.5,1249.3 1388.3,1244.5 1375.0,1238.5 1361.6,1231.2 1348.2,1222.6 1334.7,1212.9 1321.3,1202.1 1307.9,1190.2 1294.6,1177.4 1281.3,1163.7 1268.2,1149.2 1255.3,1133.9 1242.6,1118.1 1230.2,1101.7 1218.0,1085.0 1206.2,1067.9  A 522.500,522.500 0.00 0,1 1229.5,1053.0 L 1229.5,1053.0 1240.3,1070.5 1251.4,1087.8 1262.8,1104.6 1274.4,1121.0 1286.1,1136.8 1298.1,1151.8 1310.1,1166.1 1322.2,1179.4 1334.4,1191.8 1346.6,1203.1 1358.7,1213.3 1370.9,1222.3 1382.9,1230.1 1394.9,1236.5 1406.7,1241.7 1418.4,1245.5 1430.0,1247.9 1441.3,1248.9 1452.5,1248.5 1463.4,1246.7 1474.0,1243.4 1484.5,1238.8 1494.6,1232.8 1504.4,1225.4 1514.0,1216.7 1523.2,1206.7 1532.1,1195.4 1540.6,1183.0 1548.8,1169.4 1556.7,1154.7 1564.2,1139.1 1571.3,1122.5 1578.1,1105.2 1584.5,1087.0 1590.5,1068.3 1596.1,1049.1 1601.4,1029.4 1606.3,1009.5 1610.9,989.4  Z" style="stroke-width: 0.5;  stroke: rgb(0,0,0); fill: rgb(179,177,178);" />
<path d="M 1556.038,980.514 A 522.500,522.500 0.00 0,1 1580.9,983.8 L 1580.9,983.8 1577.6,1004.0 1573.9,1024.0 1570.0,1043.7 1565.7,1063.1 1561.1,1081.9 1556.1,1100.1 1550.8,1117.5 1545.2,1134.1 1539.2,1149.8 1532.9,1164.4 1526.3,1178.0 1519.3,1190.4 1512.1,1201.5 1504.5,1211.4 1496.6,1220.0 1488.4,1227.2 1480.0,1233.0 1471.2,1237.4 1462.2,1240.4 1453.0,1241.9 1443.5,1242.0 1433.8,1240.6 1423.9,1237.8 1413.9,1233.6 1403.7,1227.9 1393.3,1221.0 1382.9,1212.7 1372.3,1203.2 1361.7,1192.5 1351.1,1180.6 1340.4,1167.6 1329.8,1153.7 1319.2,1138.9 1308.7,1123.2 1298.3,1106.9 1288.1,1089.9 1278.0,1072.5 1268.2,1054.6 1258.6,1036.6  A 522.500,522.500 0.00 0,1 1281.5,1025.4 L 1281.5,1025.4 1290.2,1043.8 1299.0,1062.0 1308.0,1079.8 1317.2,1097.2 1326.5,1113.9 1335.9,1130.0 1345.3,1145.2 1354.7,1159.6 1364.2,1172.9 1373.6,1185.2 1383.0,1196.3 1392.2,1206.2 1401.4,1214.8 1410.4,1222.1 1419.3,1228.1 1428.1,1232.6 1436.6,1235.7 1444.9,1237.3 1453.1,1237.5 1461.0,1236.2 1468.6,1233.5 1476.0,1229.3 1483.1,1223.6 1489.9,1216.5 1496.5,1208.1 1502.7,1198.3 1508.7,1187.2 1514.3,1174.8 1519.6,1161.3 1524.6,1146.7 1529.4,1131.1 1533.7,1114.5 1537.8,1097.0 1541.6,1078.8 1545.1,1059.9 1548.3,1040.6 1551.1,1020.8 1553.7,1000.7 1556.0,980.5  Z" style="stroke-width: 0.5;  stroke: rgb(0,0,0); fill: rgb(179,177,178);" />
<path d="M 2022.334,1486.818 A 522.500,522.500 0.00 0,1 2022.4,1510.3 L 2022.4,1510.3 1996.9,1509.9 1971.3,1509.7 1945.5,1509.8 1919.6,1510.1 1893.6,1510.7 1867.5,1511.5 1841.2,1512.6 1814.9,1514.0 1788.5,1515.7 1762.1,1517.7 1735.6,1520.0 1709.1,1522.6 1682.5,1525.5 1655.9,1528.7 1629.4,1532.2 1602.8,1536.1 1576.3,1540.3 1549.8,1544.8 1523.4,1549.6 1497.0,1554.8 1470.7,1560.3 1444.5,1566.1 1418.3,1572.2 1392.3,1578.6 1366.3,1585.3 1340.5,1592.3 1314.8,1599.6 1289.3,1607.2 1263.9,1615.0 1238.6,1623.2 1213.5,1631.5 1188.6,1640.1 1163.9,1649.0 1139.4,1658.1 1115.0,1667.3 1090.9,1676.8 1067.0,1686.5 1043.4,1696.3 1019.9,1706.2  A 522.500,522.500 0.00 0,1 1011.3,1684.7 L 1011.3,1684.7 1035.4,1675.7 1059.7,1666.8 1084.1,1658.1 1108.8,1649.4 1133.6,1641.0 1158.6,1632.7 1183.8,1624.6 1209.0,1616.6 1234.5,1608.9 1260.0,1601.3 1285.7,1594.0 1311.5,1586.9 1337.4,1580.0 1363.5,1573.4 1389.6,1567.0 1415.8,1560.8 1442.1,1554.8 1468.4,1549.2 1494.8,1543.7 1521.3,1538.5 1547.8,1533.6 1574.3,1529.0 1600.9,1524.5 1627.5,1520.4 1654.1,1516.5 1680.7,1512.8 1707.3,1509.4 1733.9,1506.3 1760.5,1503.4 1787.0,1500.7 1813.5,1498.3 1839.9,1496.1 1866.2,1494.2 1892.5,1492.4 1918.7,1490.9 1944.8,1489.6 1970.7,1488.5 1996.6,1487.6 2022.3,1486.8  Z" style="stroke-width: 0.5;  stroke: rgb(0,0,0); fill: rgb(179,177,178);" />
<path d="M 1749.635,1959.009 A 522.500,522.500 0.00 0,1 1728.8,1969.8 L 1728.8,1969.8 1719.6,1951.4 1710.1,1933.2 1700.4,1915.4 1690.4,1898.0 1680.1,1881.3 1669.7,1865.2 1659.0,1850.0 1648.3,1835.6 1637.4,1822.2 1626.4,1809.9 1615.3,1798.7 1604.2,1788.6 1593.0,1779.9 1581.9,1772.4 1570.7,1766.2 1559.6,1761.4 1548.6,1758.1 1537.6,1756.1 1526.7,1755.6 1515.9,1756.5 1505.2,1758.8 1494.7,1762.5 1484.4,1767.7 1474.2,1774.3 1464.2,1782.2 1454.4,1791.4 1444.9,1801.9 1435.6,1813.6 1426.5,1826.5 1417.7,1840.5 1409.2,1855.5 1400.9,1871.4 1392.9,1888.2 1385.3,1905.8 1378.0,1924.0 1370.9,1942.7 1364.3,1961.9 1357.9,1981.4 1351.9,2001.1  A 522.500,522.500 0.00 0,1 1330.0,1994.1 L 1330.0,1994.1 1336.9,1974.6 1344.2,1955.3 1351.8,1936.3 1359.9,1917.7 1368.2,1899.7 1376.9,1882.3 1386.0,1865.7 1395.3,1849.9 1405.0,1835.0 1414.9,1821.2 1425.1,1808.4 1435.6,1796.8 1446.3,1786.3 1457.3,1777.2 1468.4,1769.3 1479.8,1762.7 1491.4,1757.5 1503.1,1753.7 1515.0,1751.3 1526.9,1750.3 1539.0,1750.7 1551.2,1752.5 1563.5,1755.7 1575.8,1760.3 1588.1,1766.2 1600.4,1773.5 1612.7,1782.0 1625.0,1791.7 1637.2,1802.6 1649.3,1814.6 1661.3,1827.7 1673.1,1841.7 1684.8,1856.6 1696.2,1872.3 1707.5,1888.6 1718.5,1905.6 1729.2,1923.1 1739.6,1940.9 1749.6,1959.0  Z" style="stroke-width: 0.5;  stroke: rgb(0,0,0); fill: rgb(179,177,178);" />
<path d="M 1725.512,1028.672 A 522.500,522.500 0.00 0,1 1743.1,1037.5 L 1743.1,1037.5 1732.9,1056.4 1722.2,1075.0 1711.1,1093.4 1699.4,1111.4 1687.2,1128.8 1674.7,1145.7 1661.6,1161.9 1648.2,1177.4 1634.3,1192.0 1620.0,1205.7 1605.4,1218.5 1590.4,1230.4 1575.0,1241.1 1559.3,1250.8 1543.3,1259.3 1527.1,1266.7 1510.5,1272.9 1493.8,1277.8 1476.8,1281.6 1459.6,1284.1 1442.2,1285.4 1424.7,1285.4 1407.1,1284.3 1389.4,1281.9 1371.7,1278.3 1353.9,1273.5 1336.1,1267.6 1318.3,1260.6 1300.6,1252.6 1283.0,1243.5 1265.5,1233.4 1248.2,1222.5 1231.0,1210.7 1214.1,1198.2 1197.5,1184.9 1181.2,1171.1 1165.2,1156.7 1149.6,1141.9 1134.4,1126.7  A 522.500,522.500 0.00 0,1 1148.6,1113.3 L 1148.6,1113.3 1163.1,1128.9 1178.0,1144.1 1193.3,1159.0 1208.9,1173.3 1224.8,1187.0 1241.0,1200.0 1257.4,1212.3 1273.9,1223.7 1290.7,1234.1 1307.5,1243.6 1324.4,1252.1 1341.4,1259.4 1358.4,1265.7 1375.3,1270.7 1392.3,1274.6 1409.1,1277.3 1425.9,1278.7 1442.6,1278.8 1459.1,1277.7 1475.4,1275.3 1491.5,1271.6 1507.4,1266.7 1523.1,1260.6 1538.5,1253.2 1553.6,1244.6 1568.4,1234.9 1582.9,1224.0 1597.0,1212.1 1610.8,1199.1 1624.2,1185.2 1637.2,1170.4 1649.8,1154.7 1662.0,1138.3 1673.7,1121.2 1685.0,1103.5 1695.8,1085.3 1706.2,1066.7 1716.1,1047.8 1725.5,1028.7  Z" style="stroke-width: 0.5;  stroke: rgb(0,0,0); fill: rgb(179,177,178);" />
<path d="M 1819.364,1913.537 A 522.500,522.500 0.00 0,1 1806.1,1923.4 L 1806.1,1923.4 1793.6,1906.5 1780.6,1889.8 1767.3,1873.5 1753.6,1857.7 1739.6,1842.5 1725.3,1828.0 1710.8,1814.3 1696.0,1801.4 1681.1,1789.4 1666.0,1778.5 1650.8,1768.6 1635.4,1759.8 1620.0,1752.1 1604.5,1745.7 1589.1,1740.5 1573.6,1736.6 1558.1,1733.9 1542.7,1732.6 1527.3,1732.5 1512.1,1733.8 1497.0,1736.4 1482.0,1740.3 1467.2,1745.6 1452.6,1752.0 1438.2,1759.8 1424.0,1768.7 1410.1,1778.8 1396.5,1790.1 1383.1,1802.4 1370.1,1815.7 1357.4,1830.0 1345.0,1845.2 1333.0,1861.2 1321.3,1877.9 1310.1,1895.2 1299.3,1913.1 1288.8,1931.4 1278.9,1950.0 1269.3,1968.8  A 522.500,522.500 0.00 0,1 1254.7,1961.4 L 1254.7,1961.4 1264.9,1942.7 1275.6,1924.3 1286.6,1906.3 1298.2,1888.6 1310.1,1871.5 1322.5,1855.0 1335.2,1839.2 1348.3,1824.2 1361.7,1810.1 1375.5,1796.9 1389.6,1784.8 1404.0,1773.6 1418.7,1763.6 1433.6,1754.8 1448.8,1747.1 1464.2,1740.6 1479.7,1735.4 1495.5,1731.5 1511.3,1728.9 1527.3,1727.5 1543.4,1727.4 1559.6,1728.7 1575.8,1731.2 1592.0,1735.0 1608.3,1740.0 1624.5,1746.2 1640.6,1753.6 1656.7,1762.1 1672.6,1771.8 1688.4,1782.5 1704.1,1794.1 1719.5,1806.7 1734.7,1820.1 1749.7,1834.3 1764.3,1849.1 1778.7,1864.6 1792.6,1880.5 1806.2,1896.9 1819.4,1913.5  Z" style="stroke-width: 0.5;  stroke: rgb(0,0,0); fill: rgb(179,177,178);" />
<path d="M 1844.907,1892.486 A 522.500,522.500 0.00 0,1 1833.8,1902.0 L 1833.8,1902.0 1820.0,1885.8 1805.7,1869.8 1791.1,1854.3 1776.1,1839.3 1760.8,1824.8 1745.2,1811.1 1729.3,1798.1 1713.2,1785.9 1696.9,1774.7 1680.5,1764.4 1663.9,1755.2 1647.1,1747.0 1630.4,1740.0 1613.5,1734.1 1596.7,1729.4 1579.8,1725.9 1563.0,1723.7 1546.2,1722.7 1529.5,1723.0 1513.0,1724.6 1496.5,1727.5 1480.2,1731.6 1464.1,1736.9 1448.2,1743.5 1432.5,1751.3 1417.1,1760.2 1401.9,1770.3 1387.1,1781.5 1372.5,1793.7 1358.3,1806.8 1344.4,1820.9 1330.8,1835.9 1317.7,1851.6 1305.0,1868.1 1292.6,1885.1 1280.7,1902.7 1269.3,1920.7 1258.3,1939.1 1247.8,1957.6  A 522.500,522.500 0.00 0,1 1235.0,1950.3 L 1235.0,1950.3 1246.1,1932.0 1257.6,1913.8 1269.7,1896.0 1282.2,1878.7 1295.1,1861.8 1308.5,1845.6 1322.3,1830.1 1336.4,1815.3 1351.0,1801.4 1365.8,1788.3 1381.1,1776.3 1396.6,1765.2 1412.4,1755.3 1428.5,1746.4 1444.8,1738.7 1461.4,1732.2 1478.1,1726.8 1495.1,1722.7 1512.1,1719.8 1529.4,1718.2 1546.7,1717.8 1564.1,1718.7 1581.6,1720.8 1599.1,1724.1 1616.5,1728.6 1634.0,1734.3 1651.4,1741.1 1668.7,1749.0 1685.9,1758.0 1703.0,1768.0 1719.9,1779.0 1736.6,1790.8 1753.0,1803.5 1769.2,1816.9 1785.1,1831.0 1800.6,1845.7 1815.8,1860.9 1830.6,1876.6 1844.9,1892.5  Z" style="stroke-width: 0.5;  stroke: rgb(0,0,0); fill: rgb(179,177,178);" />
<path d="M 2022.328,1513.416 A 522.500,522.500 0.00 0,1 2021.8,1527.7 L 2021.8,1527.7 1996.5,1526.5 1971.1,1525.5 1945.6,1524.8 1919.8,1524.4 1893.9,1524.3 1867.9,1524.4 1841.8,1524.9 1815.6,1525.7 1789.3,1526.9 1763.0,1528.4 1736.6,1530.2 1710.1,1532.4 1683.6,1535.0 1657.2,1537.9 1630.7,1541.2 1604.2,1544.8 1577.8,1548.9 1551.4,1553.3 1525.0,1558.1 1498.8,1563.2 1472.6,1568.7 1446.5,1574.6 1420.4,1580.9 1394.6,1587.5 1368.8,1594.4 1343.2,1601.7 1317.7,1609.4 1292.4,1617.3 1267.2,1625.6 1242.3,1634.2 1217.5,1643.0 1192.9,1652.2 1168.5,1661.6 1144.4,1671.3 1120.5,1681.2 1096.8,1691.3 1073.4,1701.6 1050.2,1712.1 1027.3,1722.7  A 522.500,522.500 0.00 0,1 1021.2,1709.2 L 1021.2,1709.2 1044.6,1699.2 1068.2,1689.2 1092.0,1679.5 1116.0,1669.9 1140.3,1660.5 1164.7,1651.3 1189.4,1642.4 1214.2,1633.6 1239.3,1625.2 1264.5,1617.0 1289.8,1609.0 1315.3,1601.4 1341.0,1594.0 1366.8,1587.0 1392.7,1580.2 1418.7,1573.7 1444.8,1567.6 1471.0,1561.8 1497.3,1556.3 1523.7,1551.2 1550.1,1546.3 1576.6,1541.8 1603.1,1537.7 1629.6,1533.8 1656.2,1530.3 1682.7,1527.2 1709.3,1524.3 1735.8,1521.8 1762.3,1519.6 1788.7,1517.7 1815.1,1516.1 1841.4,1514.8 1867.6,1513.8 1893.7,1513.1 1919.7,1512.7 1945.6,1512.5 1971.3,1512.6 1996.9,1512.9 2022.3,1513.4  Z" style="stroke-width: 0.5;  stroke: rgb(0,0,0); fill: rgb(179,177,178);" />
<path d="M 1702.572,1018.367 A 522.500,522.500 0.00 0,1 1715.0,1023.8 L 1715.0,1023.8 1706.1,1043.0 1696.7,1062.0 1686.8,1080.8 1676.4,1099.1 1665.6,1116.9 1654.4,1134.2 1642.7,1150.7 1630.7,1166.5 1618.2,1181.4 1605.3,1195.4 1592.1,1208.4 1578.5,1220.4 1564.6,1231.3 1550.3,1241.0 1535.7,1249.6 1520.9,1256.9 1505.8,1263.0 1490.4,1267.9 1474.9,1271.5 1459.1,1273.8 1443.1,1274.8 1427.0,1274.5 1410.8,1272.9 1394.5,1270.1 1378.1,1266.0 1361.6,1260.7 1345.2,1254.3 1328.7,1246.7 1312.3,1237.9 1296.0,1228.2 1279.8,1217.4 1263.8,1205.8 1247.9,1193.2 1232.2,1179.9 1216.8,1165.9 1201.7,1151.3 1186.9,1136.1 1172.4,1120.5 1158.4,1104.7  A 522.500,522.500 0.00 0,1 1168.9,1095.8 L 1168.9,1095.8 1182.4,1112.0 1196.4,1127.9 1210.7,1143.3 1225.3,1158.3 1240.2,1172.6 1255.3,1186.2 1270.6,1199.0 1286.1,1211.0 1301.8,1222.0 1317.5,1232.1 1333.3,1241.0 1349.2,1248.9 1365.1,1255.6 1380.9,1261.1 1396.7,1265.4 1412.4,1268.4 1428.0,1270.1 1443.5,1270.5 1458.8,1269.6 1474.0,1267.4 1488.9,1263.9 1503.6,1259.1 1518.1,1253.0 1532.3,1245.7 1546.3,1237.1 1559.9,1227.3 1573.2,1216.4 1586.2,1204.4 1598.8,1191.3 1611.0,1177.2 1622.9,1162.1 1634.3,1146.3 1645.4,1129.6 1656.0,1112.2 1666.2,1094.3 1676.0,1075.8 1685.3,1056.9 1694.2,1037.7 1702.6,1018.4  Z" style="stroke-width: 0.5;  stroke: rgb(0,0,0); fill: rgb(179,177,178);" />
<path d="M 2019.515,1444.229 A 522.500,522.500 0.00 0,1 2020.6,1455.9 L 2020.6,1455.9 1994.6,1458.2 1968.5,1460.6 1942.3,1463.1 1916.1,1465.7 1889.7,1468.5 1863.4,1471.4 1837.0,1474.5 1810.5,1477.7 1784.0,1481.1 1757.5,1484.6 1730.9,1488.3 1704.3,1492.1 1677.7,1496.1 1651.2,1500.3 1624.6,1504.6 1598.0,1509.1 1571.4,1513.8 1544.9,1518.6 1518.3,1523.6 1491.8,1528.7 1465.4,1534.0 1438.9,1539.5 1412.5,1545.1 1386.2,1550.9 1359.9,1556.9 1333.7,1562.9 1307.6,1569.2 1281.5,1575.6 1255.5,1582.1 1229.6,1588.8 1203.7,1595.5 1178.0,1602.5 1152.3,1609.5 1126.8,1616.7 1101.4,1623.9 1076.0,1631.3 1050.8,1638.8 1025.7,1646.3 1000.7,1654.0  A 522.500,522.500 0.00 0,1 997.3,1642.6 L 997.3,1642.6 1022.6,1635.5 1048.0,1628.4 1073.5,1621.4 1099.0,1614.5 1124.7,1607.7 1150.4,1601.0 1176.2,1594.3 1202.1,1587.8 1228.1,1581.3 1254.1,1575.0 1280.2,1568.8 1306.3,1562.7 1332.6,1556.7 1358.8,1550.8 1385.1,1545.0 1411.5,1539.4 1437.9,1533.8 1464.3,1528.4 1490.8,1523.2 1517.2,1518.0 1543.8,1513.0 1570.3,1508.1 1596.8,1503.4 1623.4,1498.8 1649.9,1494.3 1676.5,1489.9 1703.0,1485.7 1729.6,1481.6 1756.1,1477.6 1782.6,1473.7 1809.1,1470.0 1835.6,1466.4 1862.0,1462.9 1888.4,1459.5 1914.7,1456.2 1941.0,1453.1 1967.2,1450.0 1993.4,1447.1 2019.5,1444.2  Z" style="stroke-width: 0.5;  stroke: rgb(0,0,0); fill: rgb(179,177,178);" />
<path d="M 1714.440,1976.468 A 522.500,522.500 0.00 0,1 1704.2,1980.9 L 1704.2,1980.9 1696.1,1962.2 1687.7,1943.7 1679.0,1925.5 1670.1,1907.8 1661.1,1890.6 1651.8,1874.2 1642.5,1858.6 1633.0,1843.9 1623.4,1830.1 1613.7,1817.5 1604.0,1805.9 1594.2,1795.6 1584.5,1786.5 1574.7,1778.8 1565.0,1772.4 1555.3,1767.4 1545.7,1763.8 1536.1,1761.7 1526.7,1761.0 1517.3,1761.8 1508.2,1764.1 1499.1,1767.7 1490.2,1772.9 1481.5,1779.4 1473.0,1787.4 1464.6,1796.6 1456.5,1807.2 1448.6,1819.0 1441.0,1832.0 1433.6,1846.1 1426.4,1861.3 1419.5,1877.4 1412.9,1894.3 1406.5,1912.1 1400.4,1930.5 1394.6,1949.4 1389.2,1968.8 1384.0,1988.5 1379.1,2008.3  A 522.500,522.500 0.00 0,1 1368.3,2005.6 L 1368.3,2005.6 1373.7,1985.9 1379.3,1966.3 1385.3,1946.9 1391.5,1928.1 1398.1,1909.7 1405.0,1892.1 1412.1,1875.2 1419.6,1859.1 1427.3,1844.0 1435.3,1829.9 1443.5,1817.0 1452.0,1805.2 1460.7,1794.6 1469.6,1785.4 1478.7,1777.5 1488.0,1770.9 1497.5,1765.7 1507.1,1762.0 1516.9,1759.7 1526.8,1758.9 1536.9,1759.5 1547.0,1761.6 1557.2,1765.1 1567.5,1770.0 1577.8,1776.3 1588.1,1783.9 1598.4,1792.8 1608.8,1803.0 1619.0,1814.4 1629.3,1827.0 1639.4,1840.6 1649.4,1855.2 1659.3,1870.6 1669.0,1886.9 1678.6,1903.9 1687.9,1921.4 1697.0,1939.5 1705.9,1957.9 1714.4,1976.5  Z" style="stroke-width: 0.5;  stroke: rgb(0,0,0); fill: rgb(179,177,178);" />
<path d="M 1715.665,1024.085 A 522.500,522.500 0.00 0,1 1725.5,1028.7 L 1725.5,1028.7 1716.1,1047.8 1706.2,1066.7 1695.8,1085.3 1685.0,1103.5 1673.7,1121.1 1662.0,1138.2 1649.8,1154.7 1637.2,1170.3 1624.2,1185.1 1610.9,1199.0 1597.1,1211.9 1583.0,1223.9 1568.5,1234.7 1553.8,1244.4 1538.7,1252.9 1523.3,1260.3 1507.7,1266.4 1491.8,1271.3 1475.7,1274.9 1459.4,1277.3 1443.0,1278.4 1426.4,1278.2 1409.7,1276.7 1392.8,1274.0 1376.0,1270.1 1359.0,1265.0 1342.1,1258.7 1325.2,1251.3 1308.3,1242.8 1291.6,1233.3 1274.9,1222.7 1258.4,1211.3 1242.1,1199.0 1226.0,1185.9 1210.2,1172.2 1194.6,1157.8 1179.4,1142.9 1164.6,1127.6 1150.1,1111.9  A 522.500,522.500 0.00 0,1 1158.4,1104.7 L 1158.4,1104.7 1172.4,1120.6 1186.9,1136.1 1201.7,1151.3 1216.8,1165.9 1232.2,1179.9 1247.9,1193.2 1263.8,1205.8 1279.9,1217.5 1296.1,1228.2 1312.4,1238.0 1328.8,1246.7 1345.2,1254.3 1361.7,1260.8 1378.2,1266.1 1394.6,1270.1 1410.9,1273.0 1427.2,1274.5 1443.3,1274.8 1459.2,1273.8 1475.0,1271.6 1490.6,1268.0 1506.0,1263.1 1521.1,1257.0 1536.0,1249.7 1550.6,1241.1 1564.9,1231.4 1578.8,1220.5 1592.4,1208.6 1605.7,1195.6 1618.6,1181.6 1631.1,1166.7 1643.2,1150.9 1654.9,1134.4 1666.1,1117.2 1677.0,1099.4 1687.3,1081.0 1697.2,1062.3 1706.7,1043.3 1715.7,1024.1  Z" style="stroke-width: 0.5;  stroke: rgb(0,0,0); fill: rgb(179,177,178);" />
<path d="M 1998.276,1342.749 A 522.500,522.500 0.00 0,1 2001.2,1352.2 L 2001.2,1352.2 1976.0,1359.6 1950.7,1366.9 1925.3,1374.1 1899.8,1381.3 1874.3,1388.3 1848.6,1395.3 1822.9,1402.2 1797.0,1409.0 1771.1,1415.6 1745.2,1422.2 1719.1,1428.6 1693.0,1435.0 1666.9,1441.2 1640.7,1447.3 1614.4,1453.2 1588.1,1459.1 1561.7,1464.8 1535.3,1470.4 1508.9,1475.8 1482.5,1481.1 1456.0,1486.3 1429.5,1491.4 1403.0,1496.3 1376.4,1501.0 1349.9,1505.7 1323.4,1510.2 1296.8,1514.6 1270.3,1518.8 1243.8,1522.9 1217.3,1526.9 1190.8,1530.7 1164.4,1534.4 1138.0,1538.0 1111.7,1541.5 1085.3,1544.8 1059.1,1548.1 1032.9,1551.2 1006.7,1554.2 980.6,1557.1  A 522.500,522.500 0.00 0,1 979.6,1547.3 L 979.6,1547.3 1005.7,1544.9 1031.8,1542.4 1057.9,1539.7 1084.2,1536.9 1110.5,1533.9 1136.8,1530.9 1163.2,1527.6 1189.7,1524.2 1216.1,1520.7 1242.6,1517.0 1269.2,1513.2 1295.7,1509.1 1322.3,1505.0 1348.8,1500.6 1375.4,1496.1 1402.0,1491.5 1428.5,1486.7 1455.0,1481.7 1481.5,1476.5 1508.0,1471.2 1534.4,1465.7 1560.8,1460.1 1587.2,1454.3 1613.4,1448.3 1639.7,1442.2 1665.9,1436.0 1692.0,1429.6 1718.0,1423.0 1744.0,1416.3 1769.8,1409.5 1795.6,1402.5 1821.3,1395.4 1846.9,1388.2 1872.4,1380.9 1897.8,1373.5 1923.1,1365.9 1948.3,1358.3 1973.3,1350.6 1998.3,1342.7  Z" style="stroke-width: 0.5;  stroke: rgb(0,0,0); fill: rgb(179,177,178);" />
<path d="M 1970.038,1728.190 A 522.500,522.500 0.00 0,1 1965.8,1736.7 L 1965.8,1736.7 1945.4,1726.7 1924.6,1717.0 1903.4,1707.8 1881.9,1699.0 1860.1,1690.9 1838.0,1683.4 1815.7,1676.6 1793.3,1670.4 1770.7,1665.1 1747.9,1660.5 1725.1,1656.7 1702.2,1653.8 1679.3,1651.8 1656.4,1650.6 1633.6,1650.3 1610.8,1651.0 1588.1,1652.6 1565.5,1655.2 1543.1,1658.7 1520.8,1663.1 1498.8,1668.4 1477.0,1674.7 1455.4,1681.9 1434.1,1690.0 1413.0,1699.0 1392.3,1708.8 1372.0,1719.4 1351.9,1730.9 1332.3,1743.1 1313.0,1756.0 1294.2,1769.6 1275.8,1783.9 1257.8,1798.7 1240.3,1814.1 1223.3,1830.0 1206.7,1846.2 1190.7,1862.8 1175.2,1879.7 1160.2,1896.9  A 522.500,522.500 0.00 0,1 1152.8,1890.5 L 1152.8,1890.5 1168.2,1873.6 1184.1,1856.9 1200.5,1840.4 1217.4,1824.4 1234.8,1808.7 1252.7,1793.6 1271.0,1778.9 1289.8,1764.8 1309.0,1751.4 1328.6,1738.6 1348.5,1726.5 1368.9,1715.2 1389.6,1704.6 1410.6,1694.9 1431.9,1685.9 1453.5,1677.9 1475.4,1670.7 1497.5,1664.4 1519.9,1659.0 1542.4,1654.5 1565.1,1651.0 1588.0,1648.3 1610.9,1646.6 1634.0,1645.8 1657.1,1645.9 1680.2,1646.9 1703.4,1648.7 1726.5,1651.4 1749.6,1655.0 1772.6,1659.3 1795.4,1664.4 1818.2,1670.2 1840.7,1676.8 1863.0,1684.0 1885.1,1691.8 1906.8,1700.2 1928.3,1709.1 1949.4,1718.4 1970.0,1728.2  Z" style="stroke-width: 0.5;  stroke: rgb(0,0,0); fill: rgb(179,177,178);" />
<path d="M 1852.103,1886.043 A 522.500,522.500 0.00 0,1 1845.7,1891.8 L 1845.7,1891.8 1831.3,1875.9 1816.5,1860.3 1801.3,1845.1 1785.7,1830.4 1769.8,1816.4 1753.6,1803.0 1737.1,1790.3 1720.3,1778.5 1703.4,1767.5 1686.3,1757.6 1669.1,1748.6 1651.7,1740.7 1634.3,1733.9 1616.8,1728.2 1599.2,1723.7 1581.7,1720.4 1564.2,1718.3 1546.8,1717.5 1529.4,1717.9 1512.1,1719.5 1495.0,1722.4 1478.0,1726.5 1461.2,1731.9 1444.6,1738.4 1428.2,1746.1 1412.1,1755.0 1396.3,1764.9 1380.7,1776.0 1365.5,1788.0 1350.5,1801.0 1336.0,1814.9 1321.8,1829.7 1307.9,1845.2 1294.5,1861.5 1281.6,1878.3 1269.0,1895.6 1256.9,1913.4 1245.3,1931.5 1234.2,1949.8  A 522.500,522.500 0.00 0,1 1226.8,1945.4 L 1226.8,1945.4 1238.3,1927.2 1250.2,1909.2 1262.7,1891.6 1275.6,1874.4 1288.9,1857.7 1302.7,1841.6 1316.8,1826.2 1331.4,1811.5 1346.3,1797.7 1361.6,1784.8 1377.3,1772.8 1393.2,1761.9 1409.4,1752.0 1425.9,1743.2 1442.7,1735.5 1459.6,1729.0 1476.8,1723.6 1494.2,1719.5 1511.7,1716.6 1529.3,1714.9 1547.0,1714.5 1564.9,1715.3 1582.7,1717.3 1600.6,1720.5 1618.5,1724.9 1636.4,1730.4 1654.2,1737.1 1671.9,1744.9 1689.5,1753.7 1706.9,1763.5 1724.2,1774.2 1741.3,1785.9 1758.1,1798.3 1774.6,1811.6 1790.9,1825.4 1806.8,1839.9 1822.3,1854.9 1837.4,1870.3 1852.1,1886.0  Z" style="stroke-width: 0.5;  stroke: rgb(0,0,0); fill: rgb(179,177,178);" />
</g>
<g id="plot0">
<g id="plot0-axis">
</g>
<line x1='2243.5' y1='1598.2' x2='2243.5' y2='1598.2' style="stroke-width:14.0;stroke:rgb(0,0,0);stroke-linecap:round;fill:none;" />
<line x1='2243.5' y1='1598.2' x2='2283.2' y2='1603.5' style="stroke-width:14.0;stroke:rgb(0,0,0);stroke-linecap:round;fill:none;" />
<line x1='2283.2' y1='1603.5' x2='2283.2' y2='1603.5' style="stroke-width:14.0;stroke:rgb(0,0,0);stroke-linecap:round;fill:none;" />
<text x="2299.8" y="1627.8" font-size="46.8px" font-family="CMUBright-Roman" style="text-anchor:start;fill:rgb(255,38,78);" transform="rotate(7.5,2299.8,1627.8)" >HistocapES283Z<tspan baseline-shift="-40%" font-size="90%">s</tspan>00656</text>
</g>
<defs>
<pattern id="checker" width="10" height="10" patternTransform="rotate(45 0 0)" patternUnits="userSpaceOnUse"><line x1="0" y1="0" x2="10" y2="0" style="stroke:black;stroke-width:5" /><line x1="0" y1="0" x2="0" y2="10" style="stroke:black;stroke-width:4" /></pattern>
<pattern id="checker" width="10" height="10" patternTransform="rotate(45 0 0)" patternUnits="userSpaceOnUse"><line x1="0" y1="0" x2="10" y2="0" style="stroke:black;stroke-width:2" /><line x1="0" y1="0" x2="0" y2="10" style="stroke:black;stroke-width:2" /></pattern>
<pattern id="hline" width="10" height="10" patternTransform="rotate(0 0 0)" patternUnits="userSpaceOnUse"><line x1="0" y1="0" x2="10" y2="0" style="stroke:black;stroke-width:5" /></pattern>
<pattern id="hline-sparse" width="10" height="10" patternTransform="rotate(0 0 0)" patternUnits="userSpaceOnUse"><line x1="0" y1="0" x2="10" y2="0" style="stroke:black;stroke-width:2" /></pattern>
<pattern id="vline-sparse" width="10" height="10" patternTransform="rotate(0 0 0)" patternUnits="userSpaceOnUse"><line x1="0" y1="0" x2="0" y2="10" style="stroke:black;stroke-width:2" /></pattern>
<pattern id="vline" width="10" height="10" patternTransform="rotate(0 0 0)" patternUnits="userSpaceOnUse"><line x1="0" y1="0" x2="0" y2="10" style="stroke:black;stroke-width:5" /></pattern>
</defs>
</svg>
