<?xml version="1.0" encoding="utf-8" standalone="no"?>
<!DOCTYPE svg PUBLIC "-//W3C//DTD SVG 1.1//EN" "http://www.w3.org/Graphics/SVG/1.1/DTD/svg11.dtd">
<svg width="3000px" height="3000px" version="1.1" xmlns="http://www.w3.org/2000/svg" xmlns:xlink="http://www.w3.org/1999/xlink">
<g id="bg">
<rect x="0" y="0" width="3000px" height="3000px" style="fill:rgb(255,255,255);"/>
</g>
<g id="ideograms">
<path d="M1500.000,950.000 A550.000,550.000 40.000 1,1 1186.573,1951.955 L1072.600,2116.303 A750.000,750.000 0.000 1,0 1500.000,750.000 Z" style="stroke-width:2.0;stroke:rgb(0,0,0);stroke-linecap:round;fill:rgb(179,177,178);" />
<text x="2473.5" y="1804.5" font-size="46.8px" font-family="CMUBright-Roman" style="text-anchor:middle;fill:rgb(0,0,0);" transform="rotate(-72.6,2473.5,1804.5)" >HistocapWGSS14<tspan baseline-shift="-40%" font-size="90%">2</tspan></text>
<line x1='1519.0' y1='750.2' x2='1519.3' y2='738.2' style="stroke-width:8.0;stroke:rgb(150,150,150);stroke-linecap:round;fill:none;" />
<line x1='1651.4' y1='765.4' x2='1653.8' y2='753.7' style="stroke-width:8.0;stroke:rgb(150,150,150);stroke-linecap:round;fill:none;" />
<line x1='1779.1' y1='803.9' x2='1783.5' y2='792.7' style="stroke-width:8.0;stroke:rgb(150,150,150);stroke-linecap:round;fill:none;" />
<line x1='1897.9' y1='864.3' x2='1904.3' y2='854.1' style="stroke-width:8.0;stroke:rgb(150,150,150);stroke-linecap:round;fill:none;" />
<line x1='2004.2' y1='944.8' x2='2012.3' y2='935.9' style="stroke-width:8.0;stroke:rgb(150,150,150);stroke-linecap:round;fill:none;" />
<text x="2030.6" y="936.5" font-size="41.6px" font-family="CMUBright-Roman" style="text-anchor:start;fill:rgb(150,150,150);" transform="rotate(312.2,2030.6,936.5)" >3350 kb</text>
<line x1='2094.5' y1='1042.8' x2='2104.0' y2='1035.5' style="stroke-width:8.0;stroke:rgb(150,150,150);stroke-linecap:round;fill:none;" />
<line x1='2166.1' y1='1155.3' x2='2176.7' y2='1149.8' style="stroke-width:8.0;stroke:rgb(150,150,150);stroke-linecap:round;fill:none;" />
<line x1='2216.6' y1='1278.7' x2='2228.1' y2='1275.1' style="stroke-width:8.0;stroke:rgb(150,150,150);stroke-linecap:round;fill:none;" />
<line x1='2244.5' y1='1409.0' x2='2256.4' y2='1407.6' style="stroke-width:8.0;stroke:rgb(150,150,150);stroke-linecap:round;fill:none;" />
<line x1='2248.8' y1='1542.3' x2='2260.8' y2='1542.9' style="stroke-width:8.0;stroke:rgb(150,150,150);stroke-linecap:round;fill:none;" />
<text x="2271.9" y="1557.6" font-size="41.6px" font-family="CMUBright-Roman" style="text-anchor:start;fill:rgb(150,150,150);" transform="rotate(3.2,2271.9,1557.6)" >3400 kb</text>
<line x1='2229.5' y1='1674.2' x2='2241.2' y2='1677.0' style="stroke-width:8.0;stroke:rgb(150,150,150);stroke-linecap:round;fill:none;" />
<line x1='2187.1' y1='1800.6' x2='2198.1' y2='1805.4' style="stroke-width:8.0;stroke:rgb(150,150,150);stroke-linecap:round;fill:none;" />
<line x1='2123.1' y1='1917.5' x2='2133.0' y2='1924.2' style="stroke-width:8.0;stroke:rgb(150,150,150);stroke-linecap:round;fill:none;" />
<line x1='2039.3' y1='2021.2' x2='2047.9' y2='2029.5' style="stroke-width:8.0;stroke:rgb(150,150,150);stroke-linecap:round;fill:none;" />
<line x1='1938.5' y1='2108.5' x2='1945.5' y2='2118.2' style="stroke-width:8.0;stroke:rgb(150,150,150);stroke-linecap:round;fill:none;" />
<text x="1941.1" y="2136.0" font-size="41.6px" font-family="CMUBright-Roman" style="text-anchor:start;fill:rgb(150,150,150);" transform="rotate(54.2,1941.1,2136.0)" >3450 kb</text>
<line x1='1823.8' y1='2176.5' x2='1829.0' y2='2187.3' style="stroke-width:8.0;stroke:rgb(150,150,150);stroke-linecap:round;fill:none;" />
<line x1='1699.0' y1='2223.1' x2='1702.1' y2='2234.7' style="stroke-width:8.0;stroke:rgb(150,150,150);stroke-linecap:round;fill:none;" />
<line x1='1567.8' y1='2246.9' x2='1568.9' y2='2258.9' style="stroke-width:8.0;stroke:rgb(150,150,150);stroke-linecap:round;fill:none;" />
<line x1='1434.5' y1='2247.1' x2='1433.4' y2='2259.1' style="stroke-width:8.0;stroke:rgb(150,150,150);stroke-linecap:round;fill:none;" />
<line x1='1303.2' y1='2223.7' x2='1300.1' y2='2235.3' style="stroke-width:8.0;stroke:rgb(150,150,150);stroke-linecap:round;fill:none;" />
<text x="1310.5" y="2250.4" font-size="41.6px" font-family="CMUBright-Roman" style="text-anchor:end;fill:rgb(150,150,150);" transform="rotate(-74.8,1310.5,2250.4)" >3500 kb</text>
<line x1='1178.2' y1='2177.5' x2='1173.0' y2='2188.3' style="stroke-width:8.0;stroke:rgb(150,150,150);stroke-linecap:round;fill:none;" />
<g id="highlighttrack_0">
<path d="M2038.021,1614.162 A550.000,550.000 40.000 0,1 2007.169,1712.790 L2191.594,1790.168 A750.000,750.000 0.000 0,0 2233.666,1655.675 Z" style="stroke-width:14.0;stroke:rgb(0,0,0);stroke-linecap:round;fill:rgb(255,38,78);" />
</g>
<path d="M1500.000,950.000 A550.000,550.000 40.000 1,1 1186.573,1951.955 L1072.600,2116.303 A750.000,750.000 0.000 1,0 1500.000,750.000 Z" style="stroke-width:2.0;stroke:rgb(0,0,0);stroke-linecap:round;fill:none;" />
<path d="M1000.181,1729.522 A550.000,550.000 40.000 0,1 1220.077,1026.562 L1118.287,854.403 A750.000,750.000 0.000 0,0 818.428,1812.985 Z" style="stroke-width:2.0;stroke:rgb(0,0,0);stroke-linecap:round;fill:rgb(179,177,178);" />
<text x="569.5" y="1208.9" font-size="46.8px" font-family="CMUBright-Roman" style="text-anchor:middle;fill:rgb(0,0,0);" transform="rotate(-72.6,569.5,1208.9)" >HistocapHISSPB05821<tspan baseline-shift="-40%" font-size="90%">4</tspan>0</text>
<line x1='1010.0' y1='932.2' x2='1002.2' y2='923.1' style="stroke-width:8.0;stroke:rgb(150,150,150);stroke-linecap:round;fill:none;" />
<line x1='917.2' y1='1027.9' x2='907.9' y2='1020.3' style="stroke-width:8.0;stroke:rgb(150,150,150);stroke-linecap:round;fill:none;" />
<line x1='842.9' y1='1138.5' x2='832.3' y2='1132.8' style="stroke-width:8.0;stroke:rgb(150,150,150);stroke-linecap:round;fill:none;" />
<line x1='789.2' y1='1260.6' x2='777.9' y2='1256.8' style="stroke-width:8.0;stroke:rgb(150,150,150);stroke-linecap:round;fill:none;" />
<line x1='758.1' y1='1390.2' x2='746.2' y2='1388.5' style="stroke-width:8.0;stroke:rgb(150,150,150);stroke-linecap:round;fill:none;" />
<text x="732.4" y="1400.6" font-size="41.6px" font-family="CMUBright-Roman" style="text-anchor:end;fill:rgb(150,150,150);" transform="rotate(8.4,732.4,1400.6)" >50 kb</text>
<line x1='750.4' y1='1523.3' x2='738.4' y2='1523.7' style="stroke-width:8.0;stroke:rgb(150,150,150);stroke-linecap:round;fill:none;" />
<line x1='766.3' y1='1655.7' x2='754.6' y2='1658.2' style="stroke-width:8.0;stroke:rgb(150,150,150);stroke-linecap:round;fill:none;" />
<line x1='805.5' y1='1783.1' x2='794.4' y2='1787.6' style="stroke-width:8.0;stroke:rgb(150,150,150);stroke-linecap:round;fill:none;" />
<path d="M1000.181,1729.522 A550.000,550.000 40.000 0,1 1220.077,1026.562 L1118.287,854.403 A750.000,750.000 0.000 0,0 818.428,1812.985 Z" style="stroke-width:2.0;stroke:rgb(0,0,0);stroke-linecap:round;fill:none;" />
</g>
<g id="track_0">
<path d="M 1920.431,1810.233 A 522.500,522.500 0.00 0,1 1857.1,1881.5 L 1857.1,1881.5 1841.2,1864.8 1824.8,1848.5 1807.8,1832.3 1790.4,1816.6 1772.5,1801.2 1754.2,1786.3 1735.4,1771.9 1716.2,1758.1 1696.6,1744.9 1676.5,1732.4 1656.1,1720.5 1635.4,1709.3 1614.3,1698.9 1592.8,1689.3 1571.1,1680.5 1549.1,1672.6 1526.9,1665.4 1504.4,1659.2 1481.7,1653.8 1458.8,1649.3 1435.7,1645.7 1412.5,1643.0 1389.2,1641.1 1365.8,1640.2 1342.4,1640.1 1318.9,1640.9 1295.5,1642.5 1272.0,1645.0 1248.7,1648.3 1225.4,1652.3 1202.2,1657.1 1179.2,1662.6 1156.3,1668.8 1133.7,1675.7 1111.4,1683.1 1089.3,1691.1 1067.5,1699.6 1046.1,1708.6 1025.1,1717.9  A 522.500,522.500 0.00 0,1 993.3,1627.4 L 993.3,1627.4 1016.6,1621.7 1040.3,1616.4 1064.3,1611.5 1088.5,1607.0 1113.0,1603.0 1137.7,1599.4 1162.6,1596.4 1187.6,1593.9 1212.7,1591.9 1238.0,1590.5 1263.3,1589.7 1288.7,1589.6 1314.1,1590.0 1339.5,1591.0 1364.9,1592.7 1390.3,1595.1 1415.7,1598.1 1440.9,1601.7 1466.1,1606.0 1491.1,1610.9 1516.0,1616.5 1540.8,1622.8 1565.3,1629.6 1589.7,1637.1 1613.9,1645.2 1637.8,1653.8 1661.5,1663.1 1684.9,1672.9 1708.0,1683.3 1730.9,1694.1 1753.4,1705.5 1775.6,1717.3 1797.4,1729.5 1818.9,1742.2 1840.0,1755.2 1860.7,1768.6 1881.0,1782.2 1901.0,1796.1 1920.4,1810.2  Z" style="stroke-width: 0.5;  stroke: rgb(0,0,0); fill: rgb(179,177,178);" />
<path d="M 2018.758,1437.582 A 522.500,522.500 0.00 0,1 2021.6,1531.4 L 2021.6,1531.4 1995.2,1529.8 1968.8,1528.1 1942.3,1526.4 1915.8,1524.5 1889.2,1522.6 1862.6,1520.6 1836.0,1518.6 1809.3,1516.4 1782.7,1514.2 1756.0,1511.9 1729.2,1509.4 1702.5,1507.0 1675.8,1504.4 1649.0,1501.7 1622.2,1498.9 1595.4,1496.1 1568.7,1493.1 1541.9,1490.1 1515.1,1486.9 1488.4,1483.7 1461.7,1480.4 1434.9,1477.0 1408.2,1473.5 1381.5,1469.9 1354.9,1466.2 1328.2,1462.5 1301.6,1458.6 1275.1,1454.7 1248.6,1450.7 1222.1,1446.6 1195.6,1442.4 1169.2,1438.2 1142.9,1433.8 1116.6,1429.5 1090.3,1425.0 1064.1,1420.5 1038.0,1415.9 1011.9,1411.3 985.9,1406.6  A 522.500,522.500 0.00 0,1 1011.2,1315.5 L 1011.2,1315.5 1034.9,1324.3 1058.8,1332.9 1083.0,1341.4 1107.4,1349.6 1132.1,1357.6 1156.9,1365.4 1182.0,1372.9 1207.2,1380.1 1232.6,1387.1 1258.2,1393.7 1283.9,1400.0 1309.8,1406.1 1335.8,1411.8 1361.9,1417.1 1388.1,1422.1 1414.5,1426.8 1440.9,1431.1 1467.4,1435.0 1493.9,1438.6 1520.5,1441.9 1547.2,1444.7 1573.9,1447.2 1600.5,1449.3 1627.2,1451.1 1653.9,1452.5 1680.5,1453.5 1707.1,1454.2 1733.7,1454.5 1760.2,1454.5 1786.6,1454.2 1813.0,1453.5 1839.2,1452.5 1865.3,1451.2 1891.3,1449.6 1917.1,1447.7 1942.8,1445.6 1968.3,1443.2 1993.6,1440.5 2018.8,1437.6  Z" style="stroke-width: 0.5;  stroke: rgb(0,0,0); fill: rgb(179,177,178);" />
<path d="M 2021.030,1539.165 A 522.500,522.500 0.00 0,1 2011.3,1607.5 L 2011.3,1607.5 1985.6,1602.1 1959.8,1596.8 1933.9,1591.6 1907.9,1586.5 1881.8,1581.4 1855.7,1576.5 1829.5,1571.6 1803.2,1566.9 1776.8,1562.2 1750.4,1557.7 1724.0,1553.2 1697.5,1548.9 1670.9,1544.7 1644.3,1540.6 1617.7,1536.6 1591.0,1532.7 1564.3,1529.0 1537.6,1525.4 1510.8,1521.9 1484.1,1518.5 1457.3,1515.3 1430.5,1512.2 1403.7,1509.2 1376.9,1506.4 1350.1,1503.6 1323.3,1501.0 1296.6,1498.6 1269.8,1496.2 1243.1,1494.0 1216.4,1491.8 1189.7,1489.8 1163.1,1488.0 1136.5,1486.2 1109.9,1484.5 1083.4,1483.0 1056.9,1481.5 1030.6,1480.2 1004.2,1478.9 978.0,1477.8  A 522.500,522.500 0.00 0,1 985.8,1407.1 L 985.8,1407.1 1011.9,1411.8 1038.0,1416.4 1064.2,1421.0 1090.4,1425.5 1116.7,1430.0 1143.0,1434.4 1169.3,1438.8 1195.7,1443.1 1222.2,1447.3 1248.7,1451.4 1275.2,1455.5 1301.7,1459.6 1328.3,1463.5 1354.9,1467.4 1381.5,1471.2 1408.2,1474.9 1434.9,1478.5 1461.6,1482.1 1488.3,1485.6 1515.0,1489.0 1541.7,1492.3 1568.4,1495.6 1595.2,1498.8 1621.9,1501.8 1648.6,1504.9 1675.4,1507.8 1702.1,1510.6 1728.8,1513.4 1755.5,1516.1 1782.2,1518.7 1808.8,1521.3 1835.5,1523.8 1862.1,1526.2 1888.6,1528.5 1915.2,1530.8 1941.7,1532.9 1968.2,1535.1 1994.6,1537.2 2021.0,1539.2  Z" style="stroke-width: 0.5;  stroke: rgb(0,0,0); fill: rgb(179,177,178);" />
<path d="M 1956.593,1245.974 A 522.500,522.500 0.00 0,1 1984.6,1304.7 L 1984.6,1304.7 1962.8,1313.3 1940.5,1321.5 1917.9,1329.3 1894.9,1336.6 1871.7,1343.5 1848.2,1349.7 1824.5,1355.5 1800.6,1360.6 1776.5,1365.0 1752.3,1368.8 1727.9,1372.0 1703.5,1374.4 1679.0,1376.1 1654.5,1377.0 1629.9,1377.3 1605.3,1376.7 1580.8,1375.4 1556.4,1373.2 1532.0,1370.4 1507.7,1366.7 1483.6,1362.2 1459.6,1357.0 1435.8,1351.1 1412.2,1344.3 1388.8,1336.9 1365.6,1328.7 1342.7,1319.9 1320.1,1310.3 1297.7,1300.2 1275.7,1289.4 1254.0,1278.0 1232.7,1266.0 1211.7,1253.5 1191.2,1240.6 1171.0,1227.2 1151.2,1213.4 1131.9,1199.3 1113.1,1184.9 1094.7,1170.2  A 522.500,522.500 0.00 0,1 1139.0,1122.2 L 1139.0,1122.2 1155.0,1138.5 1171.4,1154.6 1188.4,1170.4 1205.8,1185.8 1223.8,1200.7 1242.1,1215.2 1260.9,1229.1 1280.1,1242.4 1299.7,1255.0 1319.7,1267.0 1340.0,1278.2 1360.7,1288.7 1381.7,1298.3 1403.0,1307.2 1424.5,1315.1 1446.3,1322.2 1468.3,1328.4 1490.6,1333.7 1513.0,1338.0 1535.5,1341.4 1558.2,1343.9 1581.0,1345.5 1603.9,1346.1 1626.8,1345.8 1649.8,1344.5 1672.7,1342.4 1695.6,1339.4 1718.4,1335.5 1741.2,1330.8 1763.8,1325.3 1786.3,1319.0 1808.6,1312.0 1830.6,1304.3 1852.4,1295.9 1874.0,1286.9 1895.2,1277.4 1916.1,1267.3 1936.5,1256.8 1956.6,1246.0  Z" style="stroke-width: 0.5;  stroke: rgb(0,0,0); fill: rgb(179,177,178);" />
<path d="M 1926.125,1197.636 A 522.500,522.500 0.00 0,1 1955.3,1243.6 L 1955.3,1243.6 1935.3,1254.5 1914.9,1265.1 1894.1,1275.3 1873.0,1284.9 1851.5,1294.0 1829.8,1302.4 1807.8,1310.2 1785.6,1317.3 1763.2,1323.7 1740.6,1329.3 1717.9,1334.0 1695.2,1338.0 1672.3,1341.0 1649.5,1343.2 1626.6,1344.5 1603.8,1344.9 1581.0,1344.3 1558.2,1342.8 1535.6,1340.3 1513.1,1336.9 1490.8,1332.6 1468.7,1327.3 1446.7,1321.1 1425.0,1314.0 1403.5,1306.1 1382.3,1297.2 1361.4,1287.5 1340.8,1277.1 1320.6,1265.8 1300.7,1253.8 1281.2,1241.1 1262.0,1227.8 1243.3,1213.8 1225.1,1199.3 1207.3,1184.3 1189.9,1168.8 1173.0,1153.0 1156.7,1136.9 1140.8,1120.5  A 522.500,522.500 0.00 0,1 1182.2,1085.3 L 1182.2,1085.3 1195.9,1102.8 1210.2,1120.0 1225.0,1137.0 1240.2,1153.6 1256.0,1169.7 1272.2,1185.2 1288.9,1200.2 1306.0,1214.5 1323.6,1228.1 1341.5,1240.8 1359.8,1252.8 1378.5,1263.9 1397.5,1274.1 1416.8,1283.4 1436.4,1291.7 1456.3,1299.0 1476.5,1305.3 1496.8,1310.5 1517.4,1314.7 1538.1,1317.8 1559.0,1319.9 1580.0,1320.9 1601.1,1320.8 1622.2,1319.7 1643.4,1317.6 1664.6,1314.5 1685.8,1310.3 1706.9,1305.2 1727.9,1299.2 1748.9,1292.3 1769.6,1284.5 1790.2,1275.9 1810.6,1266.5 1830.7,1256.4 1850.5,1245.7 1870.0,1234.4 1889.1,1222.6 1907.8,1210.3 1926.1,1197.6  Z" style="stroke-width: 0.5;  stroke: rgb(0,0,0); fill: rgb(179,177,178);" />
<path d="M 1998.600,1343.782 A 522.500,522.500 0.00 0,1 2011.3,1392.4 L 2011.3,1392.4 1987.2,1397.3 1962.9,1401.9 1938.3,1406.1 1913.4,1410.0 1888.4,1413.5 1863.1,1416.6 1837.7,1419.3 1812.1,1421.5 1786.4,1423.3 1760.6,1424.6 1734.7,1425.4 1708.7,1425.7 1682.6,1425.5 1656.6,1424.8 1630.5,1423.6 1604.4,1421.9 1578.3,1419.6 1552.2,1416.8 1526.3,1413.4 1500.4,1409.5 1474.5,1405.1 1448.8,1400.1 1423.2,1394.6 1397.8,1388.7 1372.4,1382.2 1347.3,1375.2 1322.4,1367.7 1297.6,1359.7 1273.1,1351.3 1248.8,1342.5 1224.8,1333.2 1201.0,1323.6 1177.4,1313.6 1154.2,1303.2 1131.3,1292.5 1108.7,1281.4 1086.4,1270.2 1064.5,1258.6 1042.9,1246.9  A 522.500,522.500 0.00 0,1 1069.8,1203.4 L 1069.8,1203.4 1089.7,1216.8 1110.0,1230.0 1130.7,1243.0 1151.8,1255.6 1173.2,1267.8 1195.1,1279.7 1217.3,1291.1 1239.8,1302.1 1262.6,1312.6 1285.7,1322.6 1309.2,1332.0 1332.8,1340.9 1356.8,1349.1 1380.9,1356.8 1405.3,1363.9 1429.8,1370.3 1454.6,1376.1 1479.4,1381.2 1504.4,1385.7 1529.6,1389.5 1554.8,1392.6 1580.0,1395.1 1605.4,1396.8 1630.7,1398.0 1656.1,1398.4 1681.4,1398.2 1706.7,1397.4 1732.0,1395.9 1757.1,1393.8 1782.2,1391.1 1807.1,1387.9 1831.8,1384.0 1856.4,1379.7 1880.8,1374.8 1904.9,1369.4 1928.8,1363.6 1952.4,1357.4 1975.7,1350.8 1998.6,1343.8  Z" style="stroke-width: 0.5;  stroke: rgb(0,0,0); fill: rgb(179,177,178);" />
<path d="M 1984.996,1305.615 A 522.500,522.500 0.00 0,1 1998.2,1342.6 L 1998.2,1342.6 1975.3,1349.6 1952.1,1356.3 1928.5,1362.6 1904.7,1368.4 1880.6,1373.8 1856.2,1378.7 1831.7,1383.1 1807.0,1387.0 1782.1,1390.3 1757.1,1393.0 1731.9,1395.1 1706.7,1396.6 1681.4,1397.5 1656.1,1397.7 1630.8,1397.2 1605.5,1396.1 1580.2,1394.3 1554.9,1391.8 1529.8,1388.7 1504.7,1384.9 1479.7,1380.4 1454.9,1375.2 1430.2,1369.4 1405.7,1363.0 1381.4,1355.9 1357.3,1348.1 1333.4,1339.8 1309.8,1330.9 1286.4,1321.4 1263.3,1311.4 1240.5,1300.8 1218.1,1289.8 1196.0,1278.3 1174.2,1266.3 1152.8,1254.0 1131.8,1241.3 1111.1,1228.3 1090.9,1215.1 1071.1,1201.5  A 522.500,522.500 0.00 0,1 1094.7,1170.3 L 1094.7,1170.3 1113.1,1184.9 1131.9,1199.3 1151.2,1213.5 1171.0,1227.3 1191.2,1240.6 1211.7,1253.6 1232.7,1266.1 1254.0,1278.0 1275.7,1289.4 1297.8,1300.2 1320.1,1310.4 1342.7,1320.0 1365.6,1328.8 1388.8,1337.0 1412.2,1344.5 1435.9,1351.2 1459.7,1357.2 1483.7,1362.4 1507.8,1366.9 1532.1,1370.6 1556.5,1373.5 1580.9,1375.6 1605.5,1377.0 1630.0,1377.6 1654.6,1377.4 1679.1,1376.5 1703.7,1374.8 1728.1,1372.5 1752.5,1369.4 1776.7,1365.6 1800.8,1361.1 1824.7,1356.1 1848.5,1350.4 1872.0,1344.1 1895.2,1337.3 1918.2,1330.1 1940.8,1322.3 1963.1,1314.1 1985.0,1305.6  Z" style="stroke-width: 0.5;  stroke: rgb(0,0,0); fill: rgb(179,177,178);" />
<path d="M 1981.800,1702.176 A 522.500,522.500 0.00 0,1 1965.6,1737.2 L 1965.6,1737.2 1943.1,1725.9 1920.3,1714.7 1897.3,1703.8 1874.0,1693.0 1850.4,1682.5 1826.6,1672.2 1802.6,1662.2 1778.3,1652.4 1753.8,1643.0 1729.1,1633.8 1704.2,1625.0 1679.2,1616.4 1653.9,1608.3 1628.5,1600.5 1602.9,1593.0 1577.2,1585.9 1551.4,1579.2 1525.5,1572.8 1499.4,1566.9 1473.3,1561.3 1447.1,1556.2 1420.8,1551.4 1394.5,1547.0 1368.1,1543.0 1341.7,1539.4 1315.3,1536.2 1288.9,1533.4 1262.6,1531.0 1236.2,1528.9 1210.0,1527.2 1183.7,1525.9 1157.6,1524.9 1131.6,1524.3 1105.6,1524.0 1079.8,1524.0 1054.2,1524.3 1028.7,1525.0 1003.3,1525.9 978.2,1527.0  A 522.500,522.500 0.00 0,1 977.6,1488.3 L 977.6,1488.3 1003.2,1489.0 1029.0,1489.9 1054.9,1491.0 1080.9,1492.3 1107.0,1493.8 1133.2,1495.6 1159.4,1497.6 1185.8,1499.9 1212.2,1502.4 1238.6,1505.2 1265.1,1508.3 1291.6,1511.7 1318.2,1515.3 1344.7,1519.2 1371.2,1523.4 1397.7,1527.9 1424.2,1532.6 1450.7,1537.7 1477.1,1543.0 1503.4,1548.6 1529.7,1554.5 1555.9,1560.7 1582.0,1567.1 1608.1,1573.8 1634.0,1580.8 1659.8,1588.0 1685.5,1595.5 1711.1,1603.3 1736.5,1611.3 1761.8,1619.5 1787.0,1627.9 1812.0,1636.6 1836.8,1645.4 1861.4,1654.5 1885.9,1663.7 1910.2,1673.1 1934.3,1682.7 1958.1,1692.4 1981.8,1702.2  Z" style="stroke-width: 0.5;  stroke: rgb(0,0,0); fill: rgb(179,177,178);" />
<path d="M 1897.113,1160.430 A 522.500,522.500 0.00 0,1 1917.6,1186.0 L 1917.6,1186.0 1899.8,1199.1 1881.5,1211.8 1862.8,1224.1 1843.7,1235.9 1824.3,1247.1 1804.6,1257.6 1784.6,1267.4 1764.5,1276.4 1744.1,1284.6 1723.6,1292.0 1702.9,1298.4 1682.2,1303.9 1661.4,1308.4 1640.5,1311.9 1619.7,1314.4 1598.9,1315.8 1578.2,1316.1 1557.5,1315.4 1536.9,1313.6 1516.5,1310.7 1496.3,1306.7 1476.3,1301.6 1456.4,1295.5 1436.9,1288.3 1417.5,1280.2 1398.5,1271.0 1379.8,1260.9 1361.4,1249.8 1343.4,1237.9 1325.7,1225.1 1308.4,1211.5 1291.6,1197.2 1275.2,1182.2 1259.2,1166.6 1243.7,1150.5 1228.6,1133.9 1214.1,1116.8 1200.1,1099.5 1186.6,1081.9  A 522.500,522.500 0.00 0,1 1213.7,1062.9 L 1213.7,1062.9 1225.9,1081.0 1238.6,1099.0 1251.8,1116.6 1265.5,1133.8 1279.7,1150.5 1294.4,1166.6 1309.5,1182.1 1325.0,1196.9 1341.0,1211.0 1357.3,1224.2 1374.1,1236.5 1391.2,1247.9 1408.6,1258.2 1426.3,1267.6 1444.4,1276.0 1462.7,1283.2 1481.2,1289.3 1500.0,1294.4 1519.0,1298.2 1538.2,1301.0 1557.5,1302.6 1576.9,1303.0 1596.5,1302.3 1616.1,1300.5 1635.7,1297.5 1655.4,1293.5 1675.0,1288.4 1694.6,1282.2 1714.1,1275.1 1733.5,1267.0 1752.7,1258.0 1771.8,1248.1 1790.6,1237.4 1809.2,1226.0 1827.5,1214.0 1845.5,1201.3 1863.1,1188.1 1880.3,1174.4 1897.1,1160.4  Z" style="stroke-width: 0.5;  stroke: rgb(0,0,0); fill: rgb(179,177,178);" />
<path d="M 1935.389,1788.865 A 522.500,522.500 0.00 0,1 1921.6,1808.7 L 1921.6,1808.7 1902.0,1794.6 1882.1,1780.8 1861.7,1767.2 1840.9,1753.9 1819.8,1741.0 1798.2,1728.4 1776.3,1716.2 1754.1,1704.4 1731.5,1693.2 1708.7,1682.3 1685.5,1672.1 1662.0,1662.3 1638.3,1653.1 1614.3,1644.5 1590.1,1636.5 1565.7,1629.0 1541.1,1622.2 1516.4,1616.1 1491.4,1610.5 1466.4,1605.6 1441.2,1601.4 1415.9,1597.8 1390.5,1594.8 1365.1,1592.5 1339.7,1590.9 1314.3,1589.8 1288.8,1589.4 1263.4,1589.6 1238.1,1590.5 1212.8,1591.9 1187.7,1593.8 1162.6,1596.4 1137.8,1599.4 1113.1,1603.0 1088.6,1607.0 1064.4,1611.5 1040.4,1616.4 1016.7,1621.7 993.3,1627.4  A 522.500,522.500 0.00 0,1 987.9,1603.9 L 987.9,1603.9 1011.8,1599.2 1036.0,1594.9 1060.5,1591.0 1085.1,1587.4 1110.0,1584.3 1135.1,1581.6 1160.4,1579.3 1185.8,1577.6 1211.3,1576.4 1236.9,1575.7 1262.6,1575.5 1288.3,1575.8 1314.1,1576.7 1339.9,1578.2 1365.7,1580.3 1391.5,1582.9 1417.2,1586.1 1442.8,1590.0 1468.4,1594.3 1493.8,1599.3 1519.2,1604.9 1544.4,1611.0 1569.4,1617.7 1594.2,1624.9 1618.9,1632.7 1643.4,1641.0 1667.6,1649.9 1691.6,1659.2 1715.3,1669.1 1738.8,1679.4 1762.0,1690.1 1784.8,1701.3 1807.4,1712.8 1829.6,1724.8 1851.5,1737.0 1873.1,1749.6 1894.2,1762.5 1915.0,1775.6 1935.4,1788.9  Z" style="stroke-width: 0.5;  stroke: rgb(0,0,0); fill: rgb(179,177,178);" />
<path d="M 2015.190,1412.908 A 522.500,522.500 0.00 0,1 2018.6,1436.5 L 2018.6,1436.5 1993.7,1439.4 1968.5,1442.0 1943.2,1444.4 1917.7,1446.5 1892.0,1448.3 1866.1,1449.8 1840.1,1450.9 1814.0,1451.7 1787.8,1452.1 1761.5,1452.1 1735.1,1451.8 1708.7,1451.1 1682.2,1450.0 1655.7,1448.5 1629.2,1446.6 1602.7,1444.3 1576.2,1441.5 1549.7,1438.4 1523.3,1434.9 1496.9,1430.9 1470.5,1426.5 1444.3,1421.8 1418.2,1416.6 1392.1,1411.0 1366.2,1405.1 1340.4,1398.8 1314.8,1392.1 1289.3,1385.0 1264.0,1377.6 1238.9,1369.8 1213.9,1361.7 1189.2,1353.3 1164.7,1344.6 1140.4,1335.7 1116.4,1326.4 1092.6,1316.9 1069.0,1307.2 1045.8,1297.3 1022.8,1287.2  A 522.500,522.500 0.00 0,1 1033.1,1265.5 L 1033.1,1265.5 1055.3,1276.5 1077.9,1287.3 1100.8,1297.9 1124.0,1308.2 1147.4,1318.2 1171.2,1328.0 1195.2,1337.4 1219.4,1346.5 1243.9,1355.2 1268.6,1363.5 1293.5,1371.5 1318.6,1379.0 1343.9,1386.1 1369.4,1392.8 1395.0,1399.1 1420.8,1404.9 1446.6,1410.2 1472.6,1415.1 1498.7,1419.5 1524.9,1423.4 1551.1,1426.9 1577.4,1429.8 1603.7,1432.3 1630.0,1434.3 1656.3,1435.9 1682.6,1437.0 1708.9,1437.6 1735.1,1437.7 1761.3,1437.5 1787.3,1436.7 1813.3,1435.6 1839.1,1434.0 1864.9,1432.1 1890.4,1429.7 1915.8,1427.0 1941.0,1424.0 1965.9,1420.6 1990.7,1416.9 2015.2,1412.9  Z" style="stroke-width: 0.5;  stroke: rgb(0,0,0); fill: rgb(179,177,178);" />
<path d="M 1959.091,1749.483 A 522.500,522.500 0.00 0,1 1948.7,1767.7 L 1948.7,1767.7 1927.4,1755.2 1905.8,1742.9 1883.9,1730.8 1861.6,1719.0 1839.0,1707.5 1816.0,1696.2 1792.8,1685.3 1769.3,1674.7 1745.6,1664.5 1721.6,1654.7 1697.3,1645.3 1672.8,1636.4 1648.1,1627.8 1623.2,1619.8 1598.1,1612.2 1572.8,1605.0 1547.4,1598.4 1521.8,1592.3 1496.2,1586.6 1470.4,1581.5 1444.5,1576.8 1418.5,1572.7 1392.5,1569.1 1366.4,1566.0 1340.3,1563.4 1314.2,1561.3 1288.1,1559.7 1262.1,1558.6 1236.1,1558.0 1210.1,1557.9 1184.3,1558.2 1158.5,1558.9 1132.9,1560.1 1107.4,1561.7 1082.1,1563.7 1057.0,1566.1 1032.1,1568.8 1007.4,1571.9 983.0,1575.3  A 522.500,522.500 0.00 0,1 980.4,1554.7 L 980.4,1554.7 1005.2,1552.2 1030.2,1550.1 1055.4,1548.2 1080.8,1546.7 1106.4,1545.5 1132.1,1544.7 1158.0,1544.2 1183.9,1544.1 1210.0,1544.5 1236.1,1545.2 1262.3,1546.4 1288.6,1548.0 1314.9,1550.0 1341.2,1552.5 1367.5,1555.4 1393.7,1558.8 1419.9,1562.6 1446.1,1566.9 1472.2,1571.6 1498.3,1576.8 1524.2,1582.4 1550.0,1588.5 1575.7,1595.0 1601.2,1601.9 1626.6,1609.3 1651.9,1617.1 1676.9,1625.2 1701.8,1633.8 1726.4,1642.8 1750.9,1652.1 1775.1,1661.8 1799.1,1671.8 1822.8,1682.1 1846.2,1692.7 1869.4,1703.6 1892.3,1714.8 1914.9,1726.1 1937.1,1737.7 1959.1,1749.5  Z" style="stroke-width: 0.5;  stroke: rgb(0,0,0); fill: rgb(179,177,178);" />
<path d="M 2011.440,1393.061 A 522.500,522.500 0.00 0,1 2014.8,1410.3 L 2014.8,1410.3 1990.3,1414.4 1965.6,1418.3 1940.7,1421.7 1915.5,1424.9 1890.2,1427.7 1864.6,1430.2 1839.0,1432.2 1813.1,1433.9 1787.2,1435.1 1761.2,1435.9 1735.0,1436.3 1708.8,1436.2 1682.6,1435.6 1656.3,1434.6 1630.0,1433.1 1603.7,1431.2 1577.4,1428.7 1551.1,1425.8 1524.9,1422.4 1498.8,1418.5 1472.7,1414.1 1446.8,1409.2 1420.9,1403.9 1395.2,1398.1 1369.6,1391.9 1344.2,1385.2 1318.9,1378.0 1293.8,1370.5 1268.9,1362.5 1244.2,1354.1 1219.8,1345.4 1195.6,1336.3 1171.6,1326.8 1147.9,1317.0 1124.5,1306.9 1101.4,1296.6 1078.5,1285.9 1056.0,1275.1 1033.8,1264.0  A 522.500,522.500 0.00 0,1 1042.2,1248.1 L 1042.2,1248.1 1063.8,1259.8 1085.8,1271.3 1108.1,1282.5 1130.8,1293.5 1153.7,1304.2 1177.0,1314.5 1200.5,1324.5 1224.4,1334.1 1248.4,1343.3 1272.8,1352.1 1297.3,1360.5 1322.1,1368.4 1347.1,1375.8 1372.2,1382.8 1397.5,1389.2 1423.0,1395.2 1448.6,1400.7 1474.4,1405.6 1500.2,1410.0 1526.1,1413.9 1552.1,1417.2 1578.2,1420.0 1604.3,1422.3 1630.4,1424.1 1656.5,1425.3 1682.6,1426.0 1708.6,1426.2 1734.6,1425.9 1760.6,1425.1 1786.4,1423.8 1812.1,1422.0 1837.7,1419.8 1863.1,1417.1 1888.4,1414.0 1913.5,1410.6 1938.3,1406.7 1963.0,1402.5 1987.3,1397.9 2011.4,1393.1  Z" style="stroke-width: 0.5;  stroke: rgb(0,0,0); fill: rgb(179,177,178);" />
</g>
<g id="plot0">
<g id="plot0-axis">
</g>
<line x1='2073.1' y1='1983.8' x2='2073.1' y2='1983.8' style="stroke-width:14.0;stroke:rgb(0,0,0);stroke-linecap:round;fill:none;" />
<line x1='2073.1' y1='1983.8' x2='2103.7' y2='2009.6' style="stroke-width:14.0;stroke:rgb(0,0,0);stroke-linecap:round;fill:none;" />
<line x1='2103.7' y1='2009.6' x2='2103.7' y2='2009.6' style="stroke-width:14.0;stroke:rgb(0,0,0);stroke-linecap:round;fill:none;" />
<text x="2104.2" y="2039.5" font-size="46.8px" font-family="CMUBright-Roman" style="text-anchor:start;fill:rgb(255,38,78);" transform="rotate(40.2,2104.2,2039.5)" >HistocapWGSS14<tspan baseline-shift="-40%" font-size="90%">s</tspan>01505</text>
</g>
<defs>
<pattern id="vline" width="10" height="10" patternTransform="rotate(0 0 0)" patternUnits="userSpaceOnUse"><line x1="0" y1="0" x2="0" y2="10" style="stroke:black;stroke-width:5" /></pattern>
<pattern id="checker" width="10" height="10" patternTransform="rotate(45 0 0)" patternUnits="userSpaceOnUse"><line x1="0" y1="0" x2="10" y2="0" style="stroke:black;stroke-width:2" /><line x1="0" y1="0" x2="0" y2="10" style="stroke:black;stroke-width:2" /></pattern>
<pattern id="vline-sparse" width="10" height="10" patternTransform="rotate(0 0 0)" patternUnits="userSpaceOnUse"><line x1="0" y1="0" x2="0" y2="10" style="stroke:black;stroke-width:2" /></pattern>
<pattern id="hline" width="10" height="10" patternTransform="rotate(0 0 0)" patternUnits="userSpaceOnUse"><line x1="0" y1="0" x2="10" y2="0" style="stroke:black;stroke-width:5" /></pattern>
<pattern id="checker" width="10" height="10" patternTransform="rotate(45 0 0)" patternUnits="userSpaceOnUse"><line x1="0" y1="0" x2="10" y2="0" style="stroke:black;stroke-width:5" /><line x1="0" y1="0" x2="0" y2="10" style="stroke:black;stroke-width:4" /></pattern>
<pattern id="hline-sparse" width="10" height="10" patternTransform="rotate(0 0 0)" patternUnits="userSpaceOnUse"><line x1="0" y1="0" x2="10" y2="0" style="stroke:black;stroke-width:2" /></pattern>
</defs>
</svg>
