<?xml version="1.0" encoding="utf-8" standalone="no"?>
<!DOCTYPE svg PUBLIC "-//W3C//DTD SVG 1.1//EN" "http://www.w3.org/Graphics/SVG/1.1/DTD/svg11.dtd">
<svg width="3000px" height="3000px" version="1.1" xmlns="http://www.w3.org/2000/svg" xmlns:xlink="http://www.w3.org/1999/xlink">
<g id="bg">
<rect x="0" y="0" width="3000px" height="3000px" style="fill:rgb(255,255,255);"/>
</g>
<g id="ideograms">
<path d="M1500.000,950.000 A550.000,550.000 40.000 0,1 1707.738,2009.259 L1783.279,2194.444 A750.000,750.000 0.000 0,0 1500.000,750.000 Z" style="stroke-width:2.0;stroke:rgb(0,0,0);stroke-linecap:round;fill:rgb(179,177,178);" />
<text x="2456.8" y="1312.4" font-size="46.8px" font-family="CMUBright-Roman" style="text-anchor:middle;fill:rgb(0,0,0);" transform="rotate(438.9,2456.8,1312.4)" >Histocap485P20<tspan baseline-shift="-40%" font-size="90%">2</tspan></text>
<line x1='1524.7' y1='750.4' x2='1525.1' y2='738.4' style="stroke-width:8.0;stroke:rgb(150,150,150);stroke-linecap:round;fill:none;" />
<line x1='1625.9' y1='760.6' x2='1627.9' y2='748.8' style="stroke-width:8.0;stroke:rgb(150,150,150);stroke-linecap:round;fill:none;" />
<line x1='1724.7' y1='784.5' x2='1728.3' y2='773.0' style="stroke-width:8.0;stroke:rgb(150,150,150);stroke-linecap:round;fill:none;" />
<line x1='1819.5' y1='821.4' x2='1824.6' y2='810.6' style="stroke-width:8.0;stroke:rgb(150,150,150);stroke-linecap:round;fill:none;" />
<line x1='1908.3' y1='870.9' x2='1914.8' y2='860.8' style="stroke-width:8.0;stroke:rgb(150,150,150);stroke-linecap:round;fill:none;" />
<text x="1933.0" y="858.5" font-size="41.6px" font-family="CMUBright-Roman" style="text-anchor:start;fill:rgb(150,150,150);" transform="rotate(303.0,1933.0,858.5)" >600 kb</text>
<line x1='1989.6' y1='931.9' x2='1997.5' y2='922.8' style="stroke-width:8.0;stroke:rgb(150,150,150);stroke-linecap:round;fill:none;" />
<line x1='2062.0' y1='1003.3' x2='2071.0' y2='995.4' style="stroke-width:8.0;stroke:rgb(150,150,150);stroke-linecap:round;fill:none;" />
<line x1='2124.0' y1='1083.9' x2='2134.0' y2='1077.3' style="stroke-width:8.0;stroke:rgb(150,150,150);stroke-linecap:round;fill:none;" />
<line x1='2174.5' y1='1172.1' x2='2185.3' y2='1166.9' style="stroke-width:8.0;stroke:rgb(150,150,150);stroke-linecap:round;fill:none;" />
<line x1='2212.7' y1='1266.4' x2='2224.1' y2='1262.7' style="stroke-width:8.0;stroke:rgb(150,150,150);stroke-linecap:round;fill:none;" />
<text x="2239.7" y="1272.3" font-size="41.6px" font-family="CMUBright-Roman" style="text-anchor:start;fill:rgb(150,150,150);" transform="rotate(341.9,2239.7,1272.3)" >650 kb</text>
<line x1='2237.7' y1='1364.9' x2='2249.5' y2='1362.8' style="stroke-width:8.0;stroke:rgb(150,150,150);stroke-linecap:round;fill:none;" />
<line x1='2249.2' y1='1466.0' x2='2261.2' y2='1465.4' style="stroke-width:8.0;stroke:rgb(150,150,150);stroke-linecap:round;fill:none;" />
<line x1='2246.9' y1='1567.6' x2='2258.9' y2='1568.7' style="stroke-width:8.0;stroke:rgb(150,150,150);stroke-linecap:round;fill:none;" />
<line x1='2230.9' y1='1668.0' x2='2242.6' y2='1670.7' style="stroke-width:8.0;stroke:rgb(150,150,150);stroke-linecap:round;fill:none;" />
<line x1='2201.5' y1='1765.3' x2='2212.7' y2='1769.6' style="stroke-width:8.0;stroke:rgb(150,150,150);stroke-linecap:round;fill:none;" />
<text x="2218.9" y="1786.9" font-size="41.6px" font-family="CMUBright-Roman" style="text-anchor:start;fill:rgb(150,150,150);" transform="rotate(20.7,2218.9,1786.9)" >700 kb</text>
<line x1='2159.2' y1='1857.8' x2='2169.7' y2='1863.5' style="stroke-width:8.0;stroke:rgb(150,150,150);stroke-linecap:round;fill:none;" />
<line x1='2104.7' y1='1943.7' x2='2114.4' y2='1950.8' style="stroke-width:8.0;stroke:rgb(150,150,150);stroke-linecap:round;fill:none;" />
<line x1='2039.1' y1='2021.4' x2='2047.8' y2='2029.7' style="stroke-width:8.0;stroke:rgb(150,150,150);stroke-linecap:round;fill:none;" />
<line x1='1963.7' y1='2089.5' x2='1971.1' y2='2098.9' style="stroke-width:8.0;stroke:rgb(150,150,150);stroke-linecap:round;fill:none;" />
<line x1='1879.7' y1='2146.8' x2='1885.7' y2='2157.2' style="stroke-width:8.0;stroke:rgb(150,150,150);stroke-linecap:round;fill:none;" />
<text x="1879.7" y="2174.5" font-size="41.6px" font-family="CMUBright-Roman" style="text-anchor:start;fill:rgb(150,150,150);" transform="rotate(59.6,1879.7,2174.5)" >750 kb</text>
<line x1='1788.7' y1='2192.2' x2='1793.3' y2='2203.3' style="stroke-width:8.0;stroke:rgb(150,150,150);stroke-linecap:round;fill:none;" />
<g id="highlighttrack_0">
<path d="M2037.448,1383.169 A550.000,550.000 40.000 0,1 2041.765,1405.179 L2238.770,1370.699 A750.000,750.000 0.000 0,0 2232.884,1340.685 Z" style="stroke-width:14.0;stroke:rgb(0,0,0);stroke-linecap:round;fill:rgb(255,38,78);" />
</g>
<path d="M1500.000,950.000 A550.000,550.000 40.000 0,1 1707.738,2009.259 L1783.279,2194.444 A750.000,750.000 0.000 0,0 1500.000,750.000 Z" style="stroke-width:2.0;stroke:rgb(0,0,0);stroke-linecap:round;fill:none;" />
<path d="M1489.162,2049.893 A550.000,550.000 40.000 0,1 1282.267,994.933 L1203.091,811.273 A750.000,750.000 0.000 0,0 1485.221,2249.854 Z" style="stroke-width:2.0;stroke:rgb(0,0,0);stroke-linecap:round;fill:rgb(179,177,178);" />
<text x="500.0" y="1696.1" font-size="46.8px" font-family="CMUBright-Roman" style="text-anchor:middle;fill:rgb(0,0,0);" transform="rotate(78.9,500.0,1696.1)" >Histocap388p11<tspan baseline-shift="-40%" font-size="90%">2</tspan></text>
<line x1='1201.0' y1='812.2' x2='1196.2' y2='801.2' style="stroke-width:8.0;stroke:rgb(150,150,150);stroke-linecap:round;fill:none;" />
<line x1='1110.7' y1='859.0' x2='1104.5' y2='848.7' style="stroke-width:8.0;stroke:rgb(150,150,150);stroke-linecap:round;fill:none;" />
<line x1='1027.6' y1='917.5' x2='1020.0' y2='908.2' style="stroke-width:8.0;stroke:rgb(150,150,150);stroke-linecap:round;fill:none;" />
<line x1='953.1' y1='986.8' x2='944.4' y2='978.5' style="stroke-width:8.0;stroke:rgb(150,150,150);stroke-linecap:round;fill:none;" />
<line x1='888.7' y1='1065.4' x2='878.9' y2='1058.5' style="stroke-width:8.0;stroke:rgb(150,150,150);stroke-linecap:round;fill:none;" />
<text x="861.1" y="1063.0" font-size="41.6px" font-family="CMUBright-Roman" style="text-anchor:end;fill:rgb(150,150,150);" transform="rotate(35.4,861.1,1063.0)" >600 kb</text>
<line x1='835.6' y1='1152.1' x2='824.9' y2='1146.6' style="stroke-width:8.0;stroke:rgb(150,150,150);stroke-linecap:round;fill:none;" />
<line x1='794.6' y1='1245.2' x2='783.3' y2='1241.1' style="stroke-width:8.0;stroke:rgb(150,150,150);stroke-linecap:round;fill:none;" />
<line x1='766.6' y1='1342.9' x2='754.9' y2='1340.4' style="stroke-width:8.0;stroke:rgb(150,150,150);stroke-linecap:round;fill:none;" />
<line x1='752.1' y1='1443.6' x2='740.2' y2='1442.7' style="stroke-width:8.0;stroke:rgb(150,150,150);stroke-linecap:round;fill:none;" />
<line x1='751.4' y1='1545.3' x2='739.4' y2='1546.0' style="stroke-width:8.0;stroke:rgb(150,150,150);stroke-linecap:round;fill:none;" />
<text x="728.4" y="1560.7" font-size="41.6px" font-family="CMUBright-Roman" style="text-anchor:end;fill:rgb(150,150,150);" transform="rotate(-3.5,728.4,1560.7)" >650 kb</text>
<line x1='764.4' y1='1646.1' x2='752.6' y2='1648.4' style="stroke-width:8.0;stroke:rgb(150,150,150);stroke-linecap:round;fill:none;" />
<line x1='790.9' y1='1744.3' x2='779.5' y2='1748.2' style="stroke-width:8.0;stroke:rgb(150,150,150);stroke-linecap:round;fill:none;" />
<line x1='830.4' y1='1837.9' x2='819.7' y2='1843.3' style="stroke-width:8.0;stroke:rgb(150,150,150);stroke-linecap:round;fill:none;" />
<line x1='882.3' y1='1925.4' x2='872.4' y2='1932.2' style="stroke-width:8.0;stroke:rgb(150,150,150);stroke-linecap:round;fill:none;" />
<line x1='945.5' y1='2005.0' x2='936.6' y2='2013.1' style="stroke-width:8.0;stroke:rgb(150,150,150);stroke-linecap:round;fill:none;" />
<text x="937.3" y="2031.4" font-size="41.6px" font-family="CMUBright-Roman" style="text-anchor:end;fill:rgb(150,150,150);" transform="rotate(-42.3,937.3,2031.4)" >700 kb</text>
<line x1='1018.9' y1='2075.4' x2='1011.2' y2='2084.6' style="stroke-width:8.0;stroke:rgb(150,150,150);stroke-linecap:round;fill:none;" />
<line x1='1101.2' y1='2135.2' x2='1094.8' y2='2145.3' style="stroke-width:8.0;stroke:rgb(150,150,150);stroke-linecap:round;fill:none;" />
<line x1='1190.7' y1='2183.3' x2='1185.8' y2='2194.2' style="stroke-width:8.0;stroke:rgb(150,150,150);stroke-linecap:round;fill:none;" />
<line x1='1286.0' y1='2218.8' x2='1282.6' y2='2230.3' style="stroke-width:8.0;stroke:rgb(150,150,150);stroke-linecap:round;fill:none;" />
<line x1='1385.2' y1='2241.2' x2='1383.4' y2='2253.0' style="stroke-width:8.0;stroke:rgb(150,150,150);stroke-linecap:round;fill:none;" />
<text x="1395.4" y="2266.9" font-size="41.6px" font-family="CMUBright-Roman" style="text-anchor:end;fill:rgb(150,150,150);" transform="rotate(-81.2,1395.4,2266.9)" >750 kb</text>
<path d="M1489.162,2049.893 A550.000,550.000 40.000 0,1 1282.267,994.933 L1203.091,811.273 A750.000,750.000 0.000 0,0 1485.221,2249.854 Z" style="stroke-width:2.0;stroke:rgb(0,0,0);stroke-linecap:round;fill:none;" />
</g>
<g id="track_0">
<path d="M 1690.568,1013.492 A 522.500,522.500 0.00 0,1 1858.0,1119.5 L 1858.0,1119.5 1841.7,1136.5 1824.9,1153.3 1807.6,1169.9 1789.9,1186.2 1771.6,1202.2 1752.9,1217.8 1733.8,1233.0 1714.2,1247.7 1694.2,1262.0 1673.8,1275.7 1653.0,1288.8 1631.8,1301.4 1610.3,1313.3 1588.4,1324.6 1566.1,1335.2 1543.6,1345.2 1520.7,1354.4 1497.6,1362.9 1474.3,1370.7 1450.7,1377.7 1426.9,1384.0 1402.9,1389.6 1378.7,1394.4 1354.4,1398.4 1330.0,1401.7 1305.5,1404.2 1280.9,1406.1 1256.3,1407.2 1231.7,1407.6 1207.1,1407.3 1182.6,1406.3 1158.1,1404.7 1133.8,1402.5 1109.6,1399.7 1085.6,1396.3 1061.8,1392.4 1038.2,1388.0 1014.9,1383.1 992.0,1377.8  A 522.500,522.500 0.00 0,1 1074.0,1197.4 L 1074.0,1197.4 1091.8,1209.7 1109.9,1221.6 1128.3,1233.0 1147.1,1243.8 1166.0,1254.0 1185.1,1263.5 1204.3,1272.2 1223.7,1280.0 1243.0,1286.9 1262.4,1292.9 1281.7,1297.9 1300.9,1301.8 1320.0,1304.7 1339.0,1306.5 1357.8,1307.1 1376.3,1306.6 1394.6,1304.9 1412.6,1302.1 1430.3,1298.1 1447.7,1292.9 1464.7,1286.5 1481.3,1279.1 1497.5,1270.4 1513.3,1260.7 1528.7,1249.9 1543.5,1238.0 1558.0,1225.2 1571.9,1211.3 1585.3,1196.6 1598.2,1181.0 1610.6,1164.6 1622.5,1147.4 1633.8,1129.6 1644.6,1111.2 1654.9,1092.3 1664.6,1073.0 1673.8,1053.4 1682.5,1033.5 1690.6,1013.5  Z" style="stroke-width: 0.5;  stroke: rgb(0,0,0); fill: rgb(179,177,178);" />
<path d="M 1526.466,978.171 A 522.500,522.500 0.00 0,1 1689.5,1013.1 L 1689.5,1013.1 1681.4,1033.1 1672.8,1053.0 1663.7,1072.6 1654.0,1091.9 1643.8,1110.8 1633.1,1129.2 1621.8,1147.0 1610.0,1164.2 1597.6,1180.6 1584.8,1196.2 1571.4,1210.9 1557.5,1224.7 1543.2,1237.6 1528.3,1249.4 1513.0,1260.2 1497.3,1269.9 1481.2,1278.5 1464.6,1286.0 1447.6,1292.3 1430.3,1297.5 1412.7,1301.4 1394.8,1304.2 1376.5,1305.9 1358.0,1306.3 1339.3,1305.6 1320.4,1303.8 1301.4,1300.9 1282.2,1296.9 1263.0,1291.9 1243.7,1285.8 1224.4,1278.8 1205.1,1270.9 1185.9,1262.2 1166.9,1252.7 1148.0,1242.4 1129.4,1231.5 1111.0,1220.0 1092.9,1208.1 1075.2,1195.7  A 522.500,522.500 0.00 0,1 1192.6,1077.5 L 1192.6,1077.5 1204.8,1093.9 1217.3,1110.1 1229.9,1125.9 1242.6,1141.2 1255.4,1155.9 1268.3,1169.8 1281.1,1182.9 1293.9,1195.1 1306.7,1206.4 1319.2,1216.6 1331.6,1225.6 1343.8,1233.5 1355.8,1240.1 1367.5,1245.5 1378.9,1249.6 1390.0,1252.3 1400.7,1253.6 1411.1,1253.5 1421.1,1252.1 1430.6,1249.2 1439.8,1245.0 1448.5,1239.4 1456.7,1232.4 1464.5,1224.1 1471.9,1214.5 1478.7,1203.6 1485.1,1191.5 1491.0,1178.2 1496.5,1163.8 1501.4,1148.4 1505.9,1132.1 1510.0,1114.9 1513.6,1096.8 1516.7,1078.1 1519.5,1058.8 1521.8,1039.1 1523.7,1019.0 1525.3,998.6 1526.5,978.2  Z" style="stroke-width: 0.5;  stroke: rgb(0,0,0); fill: rgb(179,177,178);" />
<path d="M 1957.572,1247.742 A 522.500,522.500 0.00 0,1 2010.6,1389.0 L 2010.6,1389.0 1984.5,1394.7 1958.3,1400.3 1932.2,1406.0 1906.0,1411.6 1879.9,1417.3 1853.7,1422.9 1827.5,1428.5 1801.3,1434.1 1775.1,1439.7 1748.9,1445.3 1722.6,1450.8 1696.4,1456.4 1670.2,1461.9 1643.9,1467.4 1617.7,1472.9 1591.4,1478.4 1565.2,1483.9 1538.9,1489.3 1512.6,1494.8 1486.3,1500.2 1460.1,1505.6 1433.8,1511.0 1407.5,1516.3 1381.2,1521.7 1354.9,1527.0 1328.6,1532.4 1302.4,1537.7 1276.1,1543.0 1249.8,1548.3 1223.5,1553.5 1197.2,1558.8 1171.0,1564.0 1144.7,1569.2 1118.4,1574.4 1092.2,1579.6 1065.9,1584.8 1039.7,1589.9 1013.4,1595.1 987.2,1600.2  A 522.500,522.500 0.00 0,1 980.0,1449.3 L 980.0,1449.3 1004.8,1451.6 1029.8,1453.6 1055.1,1455.2 1080.5,1456.6 1106.1,1457.6 1131.8,1458.2 1157.7,1458.5 1183.6,1458.4 1209.7,1457.8 1235.8,1456.9 1262.0,1455.5 1288.3,1453.7 1314.6,1451.5 1340.8,1448.9 1367.1,1445.8 1393.3,1442.2 1419.5,1438.2 1445.7,1433.7 1471.8,1428.8 1497.8,1423.5 1523.7,1417.7 1549.4,1411.4 1575.1,1404.7 1600.6,1397.6 1626.0,1390.1 1651.1,1382.1 1676.1,1373.8 1701.0,1365.0 1725.6,1355.9 1749.9,1346.4 1774.1,1336.6 1798.0,1326.4 1821.6,1316.0 1845.0,1305.2 1868.1,1294.2 1891.0,1282.9 1913.5,1271.4 1935.7,1259.6 1957.6,1247.7  Z" style="stroke-width: 0.5;  stroke: rgb(0,0,0); fill: rgb(179,177,178);" />
<path d="M 1771.067,1946.687 A 522.500,522.500 0.00 0,1 1697.4,1983.8 L 1697.4,1983.8 1689.6,1965.1 1681.7,1946.6 1673.7,1928.5 1665.6,1910.8 1657.4,1893.7 1649.3,1877.4 1641.1,1861.8 1632.9,1847.1 1624.9,1833.5 1616.9,1820.9 1609.0,1809.5 1601.3,1799.3 1593.7,1790.4 1586.3,1782.8 1579.1,1776.6 1572.1,1771.8 1565.3,1768.5 1558.8,1766.6 1552.6,1766.3 1546.6,1767.4 1540.9,1770.0 1535.5,1774.0 1530.4,1779.6 1525.6,1786.5 1521.1,1794.9 1516.9,1804.6 1513.1,1815.7 1509.5,1828.0 1506.3,1841.4 1503.3,1856.1 1500.7,1871.7 1498.4,1888.3 1496.3,1905.8 1494.6,1924.0 1493.1,1942.9 1491.9,1962.3 1490.9,1982.1 1490.2,2002.2 1489.7,2022.4  A 522.500,522.500 0.00 0,1 1379.9,2008.5 L 1379.9,2008.5 1384.8,1988.5 1390.1,1968.6 1395.7,1949.0 1401.8,1929.9 1408.2,1911.2 1415.0,1893.2 1422.1,1875.9 1429.6,1859.4 1437.5,1843.8 1445.7,1829.2 1454.3,1815.7 1463.2,1803.4 1472.5,1792.2 1482.0,1782.2 1491.9,1773.6 1502.1,1766.3 1512.5,1760.3 1523.2,1755.7 1534.2,1752.6 1545.4,1750.8 1556.8,1750.4 1568.4,1751.5 1580.1,1753.9 1592.1,1757.8 1604.1,1763.0 1616.3,1769.5 1628.5,1777.2 1640.8,1786.3 1653.1,1796.5 1665.5,1807.8 1677.7,1820.2 1690.0,1833.5 1702.1,1847.8 1714.1,1862.9 1726.0,1878.6 1737.6,1895.0 1749.1,1911.9 1760.2,1929.2 1771.1,1946.7  Z" style="stroke-width: 0.5;  stroke: rgb(0,0,0); fill: rgb(179,177,178);" />
<path d="M 2014.677,1409.920 A 522.500,522.500 0.00 0,1 2020.3,1548.1 L 2020.3,1548.1 1995.3,1545.9 1970.1,1544.0 1944.7,1542.4 1919.2,1541.1 1893.5,1540.1 1867.6,1539.4 1841.6,1539.1 1815.5,1539.2 1789.4,1539.6 1763.1,1540.4 1736.8,1541.5 1710.4,1543.1 1684.0,1545.1 1657.6,1547.5 1631.2,1550.3 1604.7,1553.5 1578.4,1557.1 1552.0,1561.1 1525.8,1565.6 1499.5,1570.5 1473.4,1575.8 1447.4,1581.5 1421.5,1587.6 1395.7,1594.1 1370.0,1600.9 1344.5,1608.2 1319.2,1615.9 1294.0,1623.9 1269.0,1632.2 1244.2,1640.9 1219.6,1649.9 1195.2,1659.3 1171.1,1668.9 1147.2,1678.8 1123.6,1689.0 1100.2,1699.4 1077.1,1710.0 1054.3,1720.8 1031.8,1731.8  A 522.500,522.500 0.00 0,1 987.3,1600.9 L 987.3,1600.9 1013.6,1595.7 1039.8,1590.6 1066.1,1585.5 1092.3,1580.3 1118.6,1575.2 1144.9,1570.1 1171.2,1565.0 1197.5,1559.9 1223.8,1554.9 1250.1,1549.8 1276.4,1544.8 1302.8,1539.8 1329.1,1534.7 1355.5,1529.7 1381.8,1524.8 1408.2,1519.8 1434.5,1514.8 1460.9,1509.9 1487.3,1505.0 1513.7,1500.1 1540.0,1495.2 1566.4,1490.3 1592.8,1485.5 1619.2,1480.6 1645.6,1475.8 1672.0,1471.0 1698.3,1466.2 1724.7,1461.4 1751.1,1456.7 1777.5,1451.9 1803.9,1447.2 1830.2,1442.5 1856.6,1437.8 1883.0,1433.1 1909.3,1428.5 1935.7,1423.8 1962.0,1419.2 1988.3,1414.5 2014.7,1409.9  Z" style="stroke-width: 0.5;  stroke: rgb(0,0,0); fill: rgb(179,177,178);" />
<path d="M 1993.366,1672.035 A 522.500,522.500 0.00 0,1 1943.6,1776.0 L 1943.6,1776.0 1924.4,1764.4 1904.7,1753.1 1884.6,1742.2 1864.2,1731.9 1843.4,1722.2 1822.4,1713.0 1801.1,1704.6 1779.6,1696.9 1757.9,1690.0 1736.1,1683.9 1714.1,1678.7 1692.1,1674.3 1670.0,1670.9 1647.9,1668.4 1625.8,1666.8 1603.7,1666.3 1581.7,1666.7 1559.8,1668.1 1538.0,1670.5 1516.4,1673.9 1494.9,1678.4 1473.6,1683.8 1452.6,1690.1 1431.7,1697.5 1411.2,1705.8 1390.9,1715.0 1371.0,1725.0 1351.4,1736.0 1332.1,1747.7 1313.2,1760.3 1294.7,1773.5 1276.6,1787.5 1259.0,1802.0 1241.8,1817.2 1225.0,1832.9 1208.8,1849.0 1193.0,1865.5 1177.8,1882.3 1163.1,1899.3  A 522.500,522.500 0.00 0,1 1083.7,1815.7 L 1083.7,1815.7 1102.7,1801.6 1122.3,1787.6 1142.2,1774.0 1162.6,1760.6 1183.3,1747.7 1204.5,1735.1 1226.0,1723.1 1247.9,1711.5 1270.1,1700.4 1292.6,1689.8 1315.5,1679.9 1338.6,1670.5 1362.0,1661.8 1385.6,1653.7 1409.5,1646.3 1433.6,1639.6 1457.9,1633.5 1482.3,1628.2 1506.9,1623.6 1531.6,1619.7 1556.4,1616.5 1581.3,1614.0 1606.2,1612.3 1631.2,1611.3 1656.2,1611.0 1681.2,1611.4 1706.1,1612.5 1731.0,1614.2 1755.8,1616.7 1780.5,1619.7 1805.0,1623.4 1829.4,1627.7 1853.6,1632.6 1877.6,1638.0 1901.4,1643.9 1924.8,1650.3 1948.0,1657.2 1970.9,1664.4 1993.4,1672.0  Z" style="stroke-width: 0.5;  stroke: rgb(0,0,0); fill: rgb(179,177,178);" />
<path d="M 1903.029,1832.527 A 522.500,522.500 0.00 0,1 1833.3,1902.4 L 1833.3,1902.4 1819.7,1886.3 1805.6,1870.5 1791.3,1855.2 1776.6,1840.3 1761.7,1826.1 1746.5,1812.6 1731.2,1799.9 1715.7,1788.0 1700.0,1777.1 1684.3,1767.2 1668.5,1758.3 1652.7,1750.6 1636.9,1744.0 1621.1,1738.6 1605.4,1734.5 1589.8,1731.6 1574.3,1730.1 1559.0,1729.8 1543.8,1730.8 1528.8,1733.2 1514.1,1736.8 1499.5,1741.8 1485.3,1748.0 1471.3,1755.5 1457.6,1764.2 1444.2,1774.2 1431.2,1785.3 1418.5,1797.5 1406.2,1810.7 1394.2,1825.0 1382.7,1840.1 1371.5,1856.2 1360.8,1873.0 1350.5,1890.5 1340.6,1908.6 1331.2,1927.2 1322.2,1946.2 1313.7,1965.5 1305.7,1985.0  A 522.500,522.500 0.00 0,1 1217.9,1939.8 L 1217.9,1939.8 1229.9,1921.5 1242.5,1903.5 1255.5,1885.7 1269.1,1868.4 1283.2,1851.5 1297.7,1835.2 1312.7,1819.5 1328.1,1804.5 1343.9,1790.3 1360.2,1776.9 1376.8,1764.4 1393.8,1752.8 1411.2,1742.2 1428.9,1732.6 1446.9,1724.0 1465.2,1716.5 1483.8,1710.1 1502.6,1704.9 1521.6,1700.7 1540.8,1697.7 1560.2,1695.8 1579.7,1695.1 1599.3,1695.5 1619.0,1697.1 1638.8,1699.7 1658.6,1703.5 1678.4,1708.3 1698.1,1714.1 1717.8,1720.9 1737.3,1728.7 1756.8,1737.4 1776.0,1747.0 1795.1,1757.3 1813.9,1768.4 1832.4,1780.2 1850.7,1792.6 1868.5,1805.5 1886.0,1818.8 1903.0,1832.5  Z" style="stroke-width: 0.5;  stroke: rgb(0,0,0); fill: rgb(179,177,178);" />
<path d="M 1919.733,1188.824 A 522.500,522.500 0.00 0,1 1957.2,1247.1 L 1957.2,1247.1 1935.4,1259.0 1913.2,1270.8 1890.7,1282.3 1867.9,1293.6 1844.8,1304.7 1821.4,1315.5 1797.8,1325.9 1773.9,1336.1 1749.8,1345.9 1725.4,1355.4 1700.8,1364.5 1676.0,1373.3 1651.0,1381.6 1625.9,1389.5 1600.5,1397.1 1575.0,1404.2 1549.4,1410.8 1523.6,1417.0 1497.7,1422.8 1471.7,1428.1 1445.7,1433.0 1419.5,1437.4 1393.3,1441.4 1367.1,1444.9 1340.8,1448.0 1314.6,1450.6 1288.3,1452.7 1262.1,1454.4 1235.9,1455.7 1209.7,1456.6 1183.7,1457.1 1157.7,1457.1 1131.9,1456.8 1106.2,1456.0 1080.6,1455.0 1055.2,1453.5 1030.0,1451.8 1004.9,1449.7 980.2,1447.3  A 522.500,522.500 0.00 0,1 991.7,1378.9 L 991.7,1378.9 1015.2,1384.3 1039.0,1389.3 1063.0,1394.0 1087.4,1398.2 1111.9,1401.9 1136.7,1405.2 1161.6,1408.0 1186.7,1410.2 1211.9,1411.9 1237.2,1413.0 1262.5,1413.5 1288.0,1413.5 1313.4,1412.8 1338.9,1411.5 1364.3,1409.6 1389.7,1407.0 1415.1,1403.8 1440.4,1400.0 1465.5,1395.5 1490.6,1390.3 1515.5,1384.6 1540.2,1378.2 1564.8,1371.2 1589.2,1363.5 1613.3,1355.3 1637.3,1346.5 1660.9,1337.1 1684.3,1327.1 1707.5,1316.7 1730.3,1305.7 1752.8,1294.2 1775.0,1282.3 1796.8,1270.0 1818.3,1257.2 1839.4,1244.1 1860.1,1230.7 1880.4,1217.0 1900.3,1203.0 1919.7,1188.8  Z" style="stroke-width: 0.5;  stroke: rgb(0,0,0); fill: rgb(179,177,178);" />
<path d="M 2010.809,1609.912 A 522.500,522.500 0.00 0,1 1993.9,1670.4 L 1993.9,1670.4 1971.4,1662.8 1948.5,1655.6 1925.3,1648.9 1901.8,1642.5 1878.0,1636.7 1854.0,1631.3 1829.7,1626.5 1805.3,1622.3 1780.7,1618.6 1756.0,1615.6 1731.1,1613.2 1706.2,1611.5 1681.2,1610.4 1656.2,1610.1 1631.2,1610.4 1606.2,1611.4 1581.2,1613.2 1556.3,1615.7 1531.4,1618.8 1506.7,1622.7 1482.1,1627.4 1457.6,1632.7 1433.3,1638.7 1409.2,1645.5 1385.3,1652.9 1361.6,1660.9 1338.2,1669.6 1315.0,1678.9 1292.1,1688.9 1269.5,1699.4 1247.3,1710.4 1225.3,1722.0 1203.7,1734.0 1182.5,1746.5 1161.7,1759.4 1141.3,1772.7 1121.3,1786.3 1101.7,1800.2 1082.6,1814.3  A 522.500,522.500 0.00 0,1 1047.9,1762.0 L 1047.9,1762.0 1069.2,1749.9 1090.9,1737.9 1112.9,1726.3 1135.2,1714.9 1157.9,1703.8 1180.9,1693.1 1204.1,1682.7 1227.7,1672.7 1251.6,1663.1 1275.7,1653.9 1300.0,1645.2 1324.6,1637.0 1349.3,1629.2 1374.3,1621.9 1399.5,1615.2 1424.8,1609.0 1450.2,1603.2 1475.8,1598.1 1501.5,1593.5 1527.3,1589.4 1553.2,1585.9 1579.2,1582.9 1605.1,1580.5 1631.1,1578.6 1657.2,1577.3 1683.1,1576.5 1709.1,1576.2 1735.0,1576.5 1760.9,1577.3 1786.6,1578.6 1812.2,1580.4 1837.8,1582.6 1863.1,1585.3 1888.3,1588.4 1913.3,1592.0 1938.0,1596.0 1962.6,1600.3 1986.8,1604.9 2010.8,1609.9  Z" style="stroke-width: 0.5;  stroke: rgb(0,0,0); fill: rgb(179,177,178);" />
<path d="M 1942.216,1778.301 A 522.500,522.500 0.00 0,1 1912.7,1820.5 L 1912.7,1820.5 1895.1,1807.2 1877.1,1794.3 1858.8,1781.8 1840.0,1769.9 1821.0,1758.5 1801.6,1747.8 1782.1,1737.9 1762.3,1728.7 1742.3,1720.4 1722.2,1713.0 1702.0,1706.5 1681.7,1701.0 1661.3,1696.5 1641.0,1693.0 1620.7,1690.6 1600.4,1689.2 1580.2,1689.0 1560.1,1689.9 1540.1,1691.8 1520.3,1694.9 1500.7,1699.1 1481.3,1704.4 1462.1,1710.8 1443.2,1718.3 1424.6,1726.8 1406.3,1736.3 1388.3,1746.8 1370.7,1758.3 1353.4,1770.6 1336.5,1783.8 1320.0,1797.8 1304.0,1812.6 1288.4,1828.1 1273.2,1844.1 1258.5,1860.7 1244.3,1877.8 1230.6,1895.3 1217.5,1913.1 1204.8,1931.1  A 522.500,522.500 0.00 0,1 1163.8,1900.0 L 1163.8,1900.0 1178.5,1882.9 1193.7,1866.1 1209.4,1849.6 1225.6,1833.4 1242.3,1817.8 1259.5,1802.6 1277.1,1788.0 1295.1,1774.1 1313.6,1760.8 1332.4,1748.3 1351.6,1736.5 1371.2,1725.6 1391.1,1715.5 1411.3,1706.4 1431.8,1698.1 1452.6,1690.8 1473.6,1684.5 1494.8,1679.1 1516.2,1674.7 1537.8,1671.3 1559.6,1669.0 1581.4,1667.6 1603.4,1667.2 1625.4,1667.9 1647.4,1669.5 1669.5,1672.0 1691.5,1675.5 1713.5,1680.0 1735.4,1685.3 1757.1,1691.5 1778.8,1698.5 1800.2,1706.3 1821.4,1714.8 1842.4,1724.0 1863.1,1733.8 1883.4,1744.2 1903.4,1755.2 1923.0,1766.5 1942.2,1778.3  Z" style="stroke-width: 0.5;  stroke: rgb(0,0,0); fill: rgb(179,177,178);" />
<path d="M 1500.000,977.500 A 522.500,522.500 0.00 0,1 1510.5,977.6 L 1510.5,977.6 1510.0,998.0 1509.1,1018.3 1507.8,1038.4 1506.2,1058.1 1504.2,1077.4 1501.8,1096.0 1499.0,1114.0 1495.7,1131.1 1492.0,1147.4 1487.8,1162.7 1483.1,1177.0 1478.0,1190.1 1472.4,1202.1 1466.3,1212.8 1459.8,1222.3 1452.8,1230.4 1445.4,1237.2 1437.4,1242.7 1429.1,1246.7 1420.3,1249.3 1411.1,1250.5 1401.5,1250.3 1391.6,1248.7 1381.2,1245.8 1370.6,1241.4 1359.6,1235.8 1348.4,1228.8 1336.9,1220.7 1325.2,1211.3 1313.3,1200.8 1301.2,1189.2 1289.1,1176.7 1276.8,1163.2 1264.6,1149.0 1252.4,1134.0 1240.2,1118.4 1228.1,1102.3 1216.2,1085.8 1204.6,1069.0  A 522.500,522.500 0.00 0,1 1240.0,1046.8 L 1240.0,1046.8 1250.2,1064.3 1260.6,1081.7 1271.2,1098.6 1281.8,1115.1 1292.5,1130.9 1303.2,1146.1 1313.9,1160.4 1324.5,1173.9 1335.0,1186.3 1345.4,1197.7 1355.5,1207.9 1365.5,1216.9 1375.3,1224.7 1384.7,1231.2 1393.9,1236.3 1402.8,1240.0 1411.4,1242.3 1419.6,1243.2 1427.4,1242.7 1434.9,1240.7 1442.0,1237.2 1448.7,1232.4 1454.9,1226.1 1460.8,1218.5 1466.2,1209.4 1471.2,1199.1 1475.8,1187.5 1480.0,1174.7 1483.7,1160.8 1487.0,1145.8 1489.9,1129.8 1492.4,1112.9 1494.6,1095.1 1496.3,1076.6 1497.7,1057.6 1498.7,1038.0 1499.5,1018.0 1499.9,997.8 1500.0,977.5  Z" style="stroke-width: 0.5;  stroke: rgb(0,0,0); fill: rgb(179,177,178);" />
<path d="M 1806.302,1923.303 A 522.500,522.500 0.00 0,1 1771.7,1946.3 L 1771.7,1946.3 1760.8,1928.8 1749.6,1911.5 1738.2,1894.7 1726.5,1878.3 1714.6,1862.5 1702.6,1847.5 1690.4,1833.2 1678.1,1819.9 1665.8,1807.5 1653.4,1796.2 1641.1,1786.0 1628.7,1777.0 1616.5,1769.2 1604.3,1762.7 1592.2,1757.6 1580.2,1753.7 1568.4,1751.3 1556.7,1750.2 1545.3,1750.6 1534.1,1752.4 1523.0,1755.6 1512.3,1760.1 1501.8,1766.1 1491.6,1773.4 1481.7,1782.1 1472.1,1792.0 1462.8,1803.2 1453.8,1815.6 1445.2,1829.1 1436.9,1843.6 1429.0,1859.2 1421.4,1875.7 1414.2,1893.0 1407.4,1911.0 1401.0,1929.6 1394.9,1948.8 1389.2,1968.4 1383.8,1988.3 1378.9,2008.3  A 522.500,522.500 0.00 0,1 1338.9,1997.0 L 1338.9,1997.0 1345.5,1977.3 1352.6,1957.7 1360.0,1938.3 1367.9,1919.4 1376.3,1901.0 1385.0,1883.2 1394.1,1866.1 1403.7,1849.9 1413.6,1834.5 1423.9,1820.0 1434.5,1806.6 1445.5,1794.3 1456.9,1783.1 1468.6,1773.1 1480.6,1764.4 1492.9,1757.0 1505.5,1750.8 1518.3,1746.0 1531.4,1742.6 1544.8,1740.5 1558.3,1739.7 1572.0,1740.3 1585.9,1742.3 1599.9,1745.6 1614.0,1750.2 1628.2,1756.1 1642.4,1763.2 1656.7,1771.6 1670.9,1781.0 1685.2,1791.6 1699.4,1803.2 1713.4,1815.8 1727.4,1829.2 1741.2,1843.5 1754.7,1858.4 1768.1,1874.0 1781.2,1890.1 1793.9,1906.5 1806.3,1923.3  Z" style="stroke-width: 0.5;  stroke: rgb(0,0,0); fill: rgb(179,177,178);" />
<path d="M 1831.866,1903.573 A 522.500,522.500 0.00 0,1 1806.9,1922.9 L 1806.9,1922.9 1794.5,1906.1 1781.7,1889.7 1768.6,1873.6 1755.2,1858.0 1741.6,1843.1 1727.7,1828.8 1713.8,1815.4 1699.6,1802.9 1685.4,1791.3 1671.1,1780.7 1656.8,1771.2 1642.4,1762.9 1628.1,1755.8 1613.9,1749.9 1599.7,1745.3 1585.6,1742.0 1571.7,1740.0 1557.9,1739.4 1544.3,1740.1 1530.9,1742.2 1517.7,1745.6 1504.7,1750.4 1492.1,1756.5 1479.7,1764.0 1467.5,1772.7 1455.8,1782.6 1444.3,1793.8 1433.2,1806.1 1422.4,1819.5 1412.0,1833.9 1402.0,1849.2 1392.3,1865.5 1383.1,1882.5 1374.2,1900.3 1365.8,1918.7 1357.8,1937.6 1350.2,1956.9 1343.0,1976.5 1336.3,1996.2  A 522.500,522.500 0.00 0,1 1306.6,1985.4 L 1306.6,1985.4 1314.6,1965.9 1323.1,1946.6 1332.1,1927.6 1341.4,1909.0 1351.2,1890.8 1361.5,1873.3 1372.2,1856.5 1383.3,1840.5 1394.8,1825.3 1406.7,1811.1 1418.9,1797.8 1431.6,1785.6 1444.5,1774.5 1457.8,1764.6 1471.5,1755.9 1485.4,1748.4 1499.6,1742.2 1514.1,1737.2 1528.8,1733.6 1543.7,1731.3 1558.8,1730.3 1574.1,1730.6 1589.5,1732.2 1605.0,1735.1 1620.7,1739.2 1636.4,1744.6 1652.1,1751.3 1667.8,1759.0 1683.5,1767.9 1699.2,1777.9 1714.8,1788.8 1730.2,1800.7 1745.5,1813.5 1760.6,1827.1 1775.5,1841.3 1790.1,1856.2 1804.4,1871.6 1818.3,1887.4 1831.9,1903.6  Z" style="stroke-width: 0.5;  stroke: rgb(0,0,0); fill: rgb(179,177,178);" />
<path d="M 2015.479,1585.366 A 522.500,522.500 0.00 0,1 2012.3,1602.6 L 2012.3,1602.6 1988.2,1598.0 1963.8,1593.6 1939.1,1589.6 1914.2,1585.9 1889.1,1582.7 1863.8,1579.8 1838.3,1577.3 1812.7,1575.3 1787.0,1573.7 1761.1,1572.6 1735.2,1572.0 1709.2,1571.9 1683.1,1572.3 1657.0,1573.2 1630.9,1574.6 1604.8,1576.6 1578.7,1579.0 1552.7,1582.0 1526.7,1585.6 1500.8,1589.6 1475.0,1594.2 1449.2,1599.3 1423.7,1605.0 1398.2,1611.1 1372.9,1617.7 1347.8,1624.9 1322.9,1632.5 1298.1,1640.5 1273.6,1649.0 1249.4,1658.0 1225.3,1667.4 1201.6,1677.1 1178.1,1687.2 1154.9,1697.7 1132.0,1708.5 1109.4,1719.6 1087.1,1731.0 1065.2,1742.6 1043.6,1754.4  A 522.500,522.500 0.00 0,1 1035.3,1739.0 L 1035.3,1739.0 1057.5,1727.8 1079.9,1716.8 1102.7,1706.0 1125.8,1695.5 1149.1,1685.2 1172.8,1675.3 1196.7,1665.7 1220.8,1656.4 1245.2,1647.5 1269.8,1638.9 1294.7,1630.8 1319.7,1623.0 1344.9,1615.7 1370.3,1608.8 1395.9,1602.4 1421.6,1596.4 1447.4,1590.9 1473.3,1585.9 1499.4,1581.3 1525.5,1577.2 1551.7,1573.6 1577.9,1570.5 1604.2,1567.8 1630.5,1565.7 1656.8,1564.0 1683.0,1562.7 1709.3,1562.0 1735.5,1561.7 1761.6,1561.8 1787.7,1562.4 1813.6,1563.5 1839.5,1564.9 1865.2,1566.8 1890.7,1569.0 1916.1,1571.6 1941.3,1574.6 1966.2,1577.9 1991.0,1581.5 2015.5,1585.4  Z" style="stroke-width: 0.5;  stroke: rgb(0,0,0); fill: rgb(179,177,178);" />
<path d="M 1511.264,977.621 A 522.500,522.500 0.00 0,1 1525.5,978.1 L 1525.5,978.1 1524.4,998.6 1522.9,1018.9 1521.0,1039.0 1518.7,1058.8 1516.0,1078.1 1512.9,1096.8 1509.3,1114.8 1505.3,1132.0 1500.9,1148.4 1496.0,1163.8 1490.6,1178.1 1484.7,1191.4 1478.4,1203.5 1471.5,1214.4 1464.3,1224.0 1456.5,1232.3 1448.3,1239.3 1439.6,1244.9 1430.5,1249.1 1421.0,1251.9 1411.1,1253.4 1400.8,1253.4 1390.1,1252.0 1379.0,1249.3 1367.7,1245.3 1356.0,1239.9 1344.1,1233.2 1331.9,1225.3 1319.6,1216.2 1307.0,1206.0 1294.4,1194.8 1281.6,1182.6 1268.8,1169.4 1256.0,1155.4 1243.2,1140.8 1230.5,1125.5 1217.9,1109.7 1205.5,1093.4 1193.3,1077.0  A 522.500,522.500 0.00 0,1 1205.0,1068.7 L 1205.0,1068.7 1216.7,1085.5 1228.5,1102.0 1240.6,1118.1 1252.7,1133.7 1265.0,1148.7 1277.2,1163.0 1289.4,1176.5 1301.5,1189.0 1313.6,1200.6 1325.5,1211.1 1337.2,1220.5 1348.7,1228.7 1359.9,1235.6 1370.9,1241.3 1381.5,1245.7 1391.9,1248.6 1401.8,1250.2 1411.4,1250.4 1420.6,1249.2 1429.4,1246.6 1437.8,1242.6 1445.7,1237.2 1453.2,1230.4 1460.2,1222.3 1466.7,1212.8 1472.8,1202.1 1478.4,1190.1 1483.5,1176.9 1488.2,1162.7 1492.4,1147.4 1496.2,1131.1 1499.5,1114.0 1502.4,1096.0 1504.8,1077.4 1506.8,1058.1 1508.5,1038.4 1509.7,1018.3 1510.7,998.0 1511.3,977.6  Z" style="stroke-width: 0.5;  stroke: rgb(0,0,0); fill: rgb(179,177,178);" />
<path d="M 1912.691,1820.457 A 522.500,522.500 0.00 0,1 1904.2,1831.1 L 1904.2,1831.1 1887.1,1817.5 1869.6,1804.2 1851.7,1791.3 1833.4,1779.0 1814.8,1767.3 1795.9,1756.2 1776.8,1745.9 1757.5,1736.4 1738.0,1727.8 1718.4,1720.1 1698.6,1713.3 1678.9,1707.5 1659.0,1702.7 1639.2,1699.0 1619.4,1696.4 1599.6,1694.9 1579.9,1694.5 1560.4,1695.3 1541.0,1697.2 1521.7,1700.2 1502.6,1704.4 1483.8,1709.7 1465.2,1716.1 1446.9,1723.6 1428.8,1732.2 1411.1,1741.8 1393.7,1752.5 1376.6,1764.0 1359.9,1776.6 1343.6,1790.0 1327.7,1804.2 1312.3,1819.2 1297.3,1834.8 1282.7,1851.2 1268.6,1868.0 1255.0,1885.4 1241.9,1903.1 1229.4,1921.2 1217.3,1939.4  A 522.500,522.500 0.00 0,1 1205.9,1931.9 L 1205.9,1931.9 1218.5,1913.8 1231.7,1896.0 1245.3,1878.5 1259.4,1861.4 1274.1,1844.7 1289.2,1828.6 1304.8,1813.2 1320.8,1798.4 1337.2,1784.3 1354.0,1771.1 1371.3,1758.7 1388.9,1747.2 1406.8,1736.7 1425.1,1727.1 1443.7,1718.6 1462.6,1711.1 1481.7,1704.7 1501.1,1699.4 1520.6,1695.2 1540.4,1692.0 1560.3,1690.0 1580.4,1689.2 1600.6,1689.4 1620.8,1690.7 1641.2,1693.1 1661.5,1696.5 1681.8,1701.0 1702.1,1706.5 1722.3,1713.0 1742.4,1720.4 1762.3,1728.8 1782.1,1737.9 1801.7,1747.8 1821.0,1758.5 1840.1,1769.9 1858.8,1781.8 1877.2,1794.3 1895.2,1807.2 1912.7,1820.5  Z" style="stroke-width: 0.5;  stroke: rgb(0,0,0); fill: rgb(179,177,178);" />
</g>
<g id="plot0">
<g id="plot0-axis">
</g>
<line x1='2243.1' y1='1601.2' x2='2243.1' y2='1601.2' style="stroke-width:14.0;stroke:rgb(0,0,0);stroke-linecap:round;fill:none;" />
<line x1='2243.1' y1='1601.2' x2='2282.8' y2='1606.6' style="stroke-width:14.0;stroke:rgb(0,0,0);stroke-linecap:round;fill:none;" />
<line x1='2282.8' y1='1606.6' x2='2282.8' y2='1606.6' style="stroke-width:14.0;stroke:rgb(0,0,0);stroke-linecap:round;fill:none;" />
<text x="2299.3" y="1631.0" font-size="46.8px" font-family="CMUBright-Roman" style="text-anchor:start;fill:rgb(255,38,78);" transform="rotate(7.8,2299.3,1631.0)" >Histocap485P20<tspan baseline-shift="-40%" font-size="90%">s</tspan>02166</text>
</g>
<defs>
<pattern id="checker" width="10" height="10" patternTransform="rotate(45 0 0)" patternUnits="userSpaceOnUse"><line x1="0" y1="0" x2="10" y2="0" style="stroke:black;stroke-width:2" /><line x1="0" y1="0" x2="0" y2="10" style="stroke:black;stroke-width:2" /></pattern>
<pattern id="hline-sparse" width="10" height="10" patternTransform="rotate(0 0 0)" patternUnits="userSpaceOnUse"><line x1="0" y1="0" x2="10" y2="0" style="stroke:black;stroke-width:2" /></pattern>
<pattern id="vline-sparse" width="10" height="10" patternTransform="rotate(0 0 0)" patternUnits="userSpaceOnUse"><line x1="0" y1="0" x2="0" y2="10" style="stroke:black;stroke-width:2" /></pattern>
<pattern id="checker" width="10" height="10" patternTransform="rotate(45 0 0)" patternUnits="userSpaceOnUse"><line x1="0" y1="0" x2="10" y2="0" style="stroke:black;stroke-width:5" /><line x1="0" y1="0" x2="0" y2="10" style="stroke:black;stroke-width:4" /></pattern>
<pattern id="vline" width="10" height="10" patternTransform="rotate(0 0 0)" patternUnits="userSpaceOnUse"><line x1="0" y1="0" x2="0" y2="10" style="stroke:black;stroke-width:5" /></pattern>
<pattern id="hline" width="10" height="10" patternTransform="rotate(0 0 0)" patternUnits="userSpaceOnUse"><line x1="0" y1="0" x2="10" y2="0" style="stroke:black;stroke-width:5" /></pattern>
</defs>
</svg>
