<?xml version="1.0" encoding="utf-8" standalone="no"?>
<!DOCTYPE svg PUBLIC "-//W3C//DTD SVG 1.1//EN" "http://www.w3.org/Graphics/SVG/1.1/DTD/svg11.dtd">
<svg width="3000px" height="3000px" version="1.1" xmlns="http://www.w3.org/2000/svg" xmlns:xlink="http://www.w3.org/1999/xlink">
<g id="bg">
<rect x="0" y="0" width="3000px" height="3000px" style="fill:rgb(255,255,255);"/>
</g>
<g id="ideograms">
<path d="M1500.000,950.000 A550.000,550.000 40.000 0,1 1697.404,2013.353 L1769.187,2200.027 A750.000,750.000 0.000 0,0 1500.000,750.000 Z" style="stroke-width:2.0;stroke:rgb(0,0,0);stroke-linecap:round;fill:rgb(179,177,178);" />
<text x="2458.6" y="1322.0" font-size="46.8px" font-family="CMUBright-Roman" style="text-anchor:middle;fill:rgb(0,0,0);" transform="rotate(439.5,2458.6,1322.0)" >HistocapCB064<tspan baseline-shift="-40%" font-size="90%">6</tspan></text>
<line x1='1503.0' y1='750.0' x2='1503.0' y2='738.0' style="stroke-width:8.0;stroke:rgb(150,150,150);stroke-linecap:round;fill:none;" />
<line x1='1603.9' y1='757.2' x2='1605.5' y2='745.3' style="stroke-width:8.0;stroke:rgb(150,150,150);stroke-linecap:round;fill:none;" />
<line x1='1702.8' y1='778.0' x2='1706.1' y2='766.4' style="stroke-width:8.0;stroke:rgb(150,150,150);stroke-linecap:round;fill:none;" />
<line x1='1798.1' y1='811.8' x2='1802.9' y2='800.8' style="stroke-width:8.0;stroke:rgb(150,150,150);stroke-linecap:round;fill:none;" />
<text x="1820.5" y="795.5" font-size="41.6px" font-family="CMUBright-Roman" style="text-anchor:start;fill:rgb(150,150,150);" transform="rotate(293.4,1820.5,795.5)" >700 kb</text>
<line x1='1888.0' y1='858.2' x2='1894.2' y2='847.9' style="stroke-width:8.0;stroke:rgb(150,150,150);stroke-linecap:round;fill:none;" />
<line x1='1970.8' y1='916.2' x2='1978.4' y2='906.9' style="stroke-width:8.0;stroke:rgb(150,150,150);stroke-linecap:round;fill:none;" />
<line x1='2045.1' y1='984.9' x2='2053.8' y2='976.6' style="stroke-width:8.0;stroke:rgb(150,150,150);stroke-linecap:round;fill:none;" />
<line x1='2109.4' y1='1062.9' x2='2119.2' y2='1055.9' style="stroke-width:8.0;stroke:rgb(150,150,150);stroke-linecap:round;fill:none;" />
<line x1='2162.7' y1='1148.8' x2='2173.3' y2='1143.2' style="stroke-width:8.0;stroke:rgb(150,150,150);stroke-linecap:round;fill:none;" />
<text x="2190.4" y="1150.0" font-size="41.6px" font-family="CMUBright-Roman" style="text-anchor:start;fill:rgb(150,150,150);" transform="rotate(332.1,2190.4,1150.0)" >750 kb</text>
<line x1='2203.9' y1='1241.2' x2='2215.2' y2='1237.0' style="stroke-width:8.0;stroke:rgb(150,150,150);stroke-linecap:round;fill:none;" />
<line x1='2232.3' y1='1338.2' x2='2244.1' y2='1335.6' style="stroke-width:8.0;stroke:rgb(150,150,150);stroke-linecap:round;fill:none;" />
<line x1='2247.5' y1='1438.2' x2='2259.4' y2='1437.2' style="stroke-width:8.0;stroke:rgb(150,150,150);stroke-linecap:round;fill:none;" />
<line x1='2249.0' y1='1539.3' x2='2261.0' y2='1540.0' style="stroke-width:8.0;stroke:rgb(150,150,150);stroke-linecap:round;fill:none;" />
<line x1='2236.9' y1='1639.7' x2='2248.7' y2='1642.0' style="stroke-width:8.0;stroke:rgb(150,150,150);stroke-linecap:round;fill:none;" />
<text x="2257.7" y="1658.0" font-size="41.6px" font-family="CMUBright-Roman" style="text-anchor:start;fill:rgb(150,150,150);" transform="rotate(10.7,2257.7,1658.0)" >800 kb</text>
<line x1='2211.4' y1='1737.6' x2='2222.7' y2='1741.4' style="stroke-width:8.0;stroke:rgb(150,150,150);stroke-linecap:round;fill:none;" />
<line x1='2172.9' y1='1831.2' x2='2183.7' y2='1836.4' style="stroke-width:8.0;stroke:rgb(150,150,150);stroke-linecap:round;fill:none;" />
<line x1='2122.3' y1='1918.7' x2='2132.2' y2='1925.4' style="stroke-width:8.0;stroke:rgb(150,150,150);stroke-linecap:round;fill:none;" />
<line x1='2060.3' y1='1998.6' x2='2069.2' y2='2006.6' style="stroke-width:8.0;stroke:rgb(150,150,150);stroke-linecap:round;fill:none;" />
<line x1='1988.1' y1='2069.4' x2='1995.9' y2='2078.5' style="stroke-width:8.0;stroke:rgb(150,150,150);stroke-linecap:round;fill:none;" />
<text x="1993.0" y="2096.7" font-size="41.6px" font-family="CMUBright-Roman" style="text-anchor:start;fill:rgb(150,150,150);" transform="rotate(49.4,1993.0,2096.7)" >850 kb</text>
<line x1='1907.1' y1='2129.9' x2='1913.6' y2='2140.0' style="stroke-width:8.0;stroke:rgb(150,150,150);stroke-linecap:round;fill:none;" />
<line x1='1818.6' y1='2179.0' x2='1823.7' y2='2189.8' style="stroke-width:8.0;stroke:rgb(150,150,150);stroke-linecap:round;fill:none;" />
<g id="highlighttrack_0">
<path d="M2036.576,1379.228 A550.000,550.000 40.000 0,1 2044.171,1420.140 L2242.052,1391.100 A750.000,750.000 0.000 0,0 2231.695,1335.310 Z" style="stroke-width:14.0;stroke:rgb(0,0,0);stroke-linecap:round;fill:rgb(255,38,78);" />
</g>
<path d="M1500.000,950.000 A550.000,550.000 40.000 0,1 1697.404,2013.353 L1769.187,2200.027 A750.000,750.000 0.000 0,0 1500.000,750.000 Z" style="stroke-width:2.0;stroke:rgb(0,0,0);stroke-linecap:round;fill:none;" />
<path d="M1479.261,2049.609 A550.000,550.000 40.000 0,1 1283.380,994.455 L1204.609,810.621 A750.000,750.000 0.000 0,0 1471.720,2249.467 Z" style="stroke-width:2.0;stroke:rgb(0,0,0);stroke-linecap:round;fill:rgb(179,177,178);" />
<text x="497.1" y="1686.2" font-size="46.8px" font-family="CMUBright-Roman" style="text-anchor:middle;fill:rgb(0,0,0);" transform="rotate(79.5,497.1,1686.2)" >HistomissWU24<tspan baseline-shift="-40%" font-size="90%">C</tspan>P069109</text>
<line x1='1156.8' y1='833.1' x2='1151.3' y2='822.5' style="stroke-width:8.0;stroke:rgb(150,150,150);stroke-linecap:round;fill:none;" />
<text x="1133.4" y="818.3" font-size="41.6px" font-family="CMUBright-Roman" style="text-anchor:end;fill:rgb(150,150,150);" transform="rotate(62.8,1133.4,818.3)" >5350 kb</text>
<line x1='1070.2' y1='885.4' x2='1063.3' y2='875.5' style="stroke-width:8.0;stroke:rgb(150,150,150);stroke-linecap:round;fill:none;" />
<line x1='991.4' y1='948.8' x2='983.3' y2='940.0' style="stroke-width:8.0;stroke:rgb(150,150,150);stroke-linecap:round;fill:none;" />
<line x1='921.9' y1='1022.2' x2='912.6' y2='1014.6' style="stroke-width:8.0;stroke:rgb(150,150,150);stroke-linecap:round;fill:none;" />
<line x1='862.9' y1='1104.3' x2='852.7' y2='1098.0' style="stroke-width:8.0;stroke:rgb(150,150,150);stroke-linecap:round;fill:none;" />
<line x1='815.4' y1='1193.6' x2='804.5' y2='1188.7' style="stroke-width:8.0;stroke:rgb(150,150,150);stroke-linecap:round;fill:none;" />
<text x="787.9" y="1196.7" font-size="41.6px" font-family="CMUBright-Roman" style="text-anchor:end;fill:rgb(150,150,150);" transform="rotate(24.1,787.9,1196.7)" >5400 kb</text>
<line x1='780.4' y1='1288.5' x2='768.9' y2='1285.1' style="stroke-width:8.0;stroke:rgb(150,150,150);stroke-linecap:round;fill:none;" />
<line x1='758.5' y1='1387.2' x2='746.7' y2='1385.4' style="stroke-width:8.0;stroke:rgb(150,150,150);stroke-linecap:round;fill:none;" />
<line x1='750.1' y1='1488.0' x2='738.1' y2='1487.8' style="stroke-width:8.0;stroke:rgb(150,150,150);stroke-linecap:round;fill:none;" />
<line x1='755.3' y1='1589.0' x2='743.4' y2='1590.4' style="stroke-width:8.0;stroke:rgb(150,150,150);stroke-linecap:round;fill:none;" />
<line x1='774.0' y1='1688.4' x2='762.4' y2='1691.4' style="stroke-width:8.0;stroke:rgb(150,150,150);stroke-linecap:round;fill:none;" />
<text x="754.5" y="1707.9" font-size="41.6px" font-family="CMUBright-Roman" style="text-anchor:end;fill:rgb(150,150,150);" transform="rotate(-14.5,754.5,1707.9)" >5450 kb</text>
<line x1='806.0' y1='1784.3' x2='794.9' y2='1788.9' style="stroke-width:8.0;stroke:rgb(150,150,150);stroke-linecap:round;fill:none;" />
<line x1='850.5' y1='1875.1' x2='840.2' y2='1881.1' style="stroke-width:8.0;stroke:rgb(150,150,150);stroke-linecap:round;fill:none;" />
<line x1='906.9' y1='1959.1' x2='897.4' y2='1966.4' style="stroke-width:8.0;stroke:rgb(150,150,150);stroke-linecap:round;fill:none;" />
<line x1='974.1' y1='2034.7' x2='965.7' y2='2043.2' style="stroke-width:8.0;stroke:rgb(150,150,150);stroke-linecap:round;fill:none;" />
<line x1='1050.8' y1='2100.6' x2='1043.6' y2='2110.2' style="stroke-width:8.0;stroke:rgb(150,150,150);stroke-linecap:round;fill:none;" />
<text x="1047.7" y="2128.1" font-size="41.6px" font-family="CMUBright-Roman" style="text-anchor:end;fill:rgb(150,150,150);" transform="rotate(-53.2,1047.7,2128.1)" >5500 kb</text>
<line x1='1135.7' y1='2155.6' x2='1129.8' y2='2166.0' style="stroke-width:8.0;stroke:rgb(150,150,150);stroke-linecap:round;fill:none;" />
<line x1='1227.2' y1='2198.6' x2='1222.8' y2='2209.8' style="stroke-width:8.0;stroke:rgb(150,150,150);stroke-linecap:round;fill:none;" />
<line x1='1323.6' y1='2229.0' x2='1320.8' y2='2240.6' style="stroke-width:8.0;stroke:rgb(150,150,150);stroke-linecap:round;fill:none;" />
<line x1='1423.3' y1='2246.1' x2='1422.1' y2='2258.0' style="stroke-width:8.0;stroke:rgb(150,150,150);stroke-linecap:round;fill:none;" />
<path d="M1479.261,2049.609 A550.000,550.000 40.000 0,1 1283.380,994.455 L1204.609,810.621 A750.000,750.000 0.000 0,0 1471.720,2249.467 Z" style="stroke-width:2.0;stroke:rgb(0,0,0);stroke-linecap:round;fill:none;" />
</g>
<g id="track_0">
<path d="M 1993.779,1670.848 A 522.500,522.500 0.00 0,1 1923.7,1805.8 L 1923.7,1805.8 1905.9,1793.4 1887.8,1781.3 1869.4,1769.7 1850.7,1758.7 1831.7,1748.3 1812.6,1738.6 1793.3,1729.7 1773.8,1721.7 1754.4,1714.5 1734.9,1708.3 1715.4,1703.1 1696.0,1698.9 1676.6,1695.8 1657.4,1693.7 1638.4,1692.8 1619.5,1693.0 1600.8,1694.4 1582.4,1696.9 1564.3,1700.6 1546.5,1705.5 1529.0,1711.5 1511.9,1718.7 1495.1,1727.0 1478.8,1736.4 1462.8,1746.8 1447.3,1758.3 1432.2,1770.9 1417.6,1784.3 1403.5,1798.7 1389.8,1814.0 1376.7,1830.1 1364.1,1846.9 1352.0,1864.3 1340.4,1882.4 1329.3,1901.0 1318.8,1920.0 1308.8,1939.3 1299.3,1958.9 1290.4,1978.6  A 522.500,522.500 0.00 0,1 1161.4,1898.0 L 1161.4,1898.0 1176.6,1880.5 1192.3,1863.2 1208.5,1846.2 1225.2,1829.5 1242.5,1813.1 1260.2,1797.2 1278.3,1781.7 1297.0,1766.8 1316.0,1752.4 1335.5,1738.6 1355.5,1725.4 1375.8,1712.9 1396.5,1701.1 1417.6,1690.1 1439.0,1679.8 1460.7,1670.3 1482.8,1661.5 1505.1,1653.6 1527.7,1646.6 1550.6,1640.3 1573.6,1634.9 1596.9,1630.4 1620.3,1626.7 1643.9,1623.9 1667.6,1621.8 1691.3,1620.7 1715.1,1620.3 1739.0,1620.7 1762.8,1622.0 1786.7,1623.9 1810.4,1626.6 1834.0,1630.1 1857.6,1634.2 1880.9,1638.9 1904.0,1644.3 1926.9,1650.2 1949.5,1656.6 1971.8,1663.5 1993.8,1670.8  Z" style="stroke-width: 0.5;  stroke: rgb(0,0,0); fill: rgb(179,177,178);" />
<path d="M 1923.237,1806.392 A 522.500,522.500 0.00 0,1 1824.6,1909.5 L 1824.6,1909.5 1811.6,1893.4 1798.4,1877.7 1784.9,1862.3 1771.3,1847.5 1757.6,1833.3 1743.7,1819.9 1729.9,1807.2 1716.0,1795.5 1702.2,1784.7 1688.6,1775.0 1675.0,1766.4 1661.6,1759.0 1648.4,1752.8 1635.4,1747.8 1622.7,1744.2 1610.3,1741.8 1598.2,1740.9 1586.5,1741.3 1575.1,1743.0 1564.1,1746.1 1553.5,1750.6 1543.3,1756.5 1533.5,1763.7 1524.2,1772.2 1515.3,1782.0 1506.9,1793.0 1498.9,1805.3 1491.5,1818.6 1484.5,1833.1 1477.9,1848.6 1471.9,1865.0 1466.3,1882.2 1461.1,1900.3 1456.5,1919.0 1452.2,1938.3 1448.5,1958.1 1445.1,1978.2 1442.1,1998.5 1439.5,2019.0  A 522.500,522.500 0.00 0,1 1301.4,1983.3 L 1301.4,1983.3 1309.9,1963.4 1318.9,1943.7 1328.4,1924.2 1338.4,1905.0 1349.0,1886.2 1360.1,1868.0 1371.8,1850.4 1384.0,1833.4 1396.6,1817.1 1409.8,1801.7 1423.5,1787.1 1437.7,1773.5 1452.4,1760.8 1467.5,1749.1 1483.1,1738.5 1499.1,1729.0 1515.5,1720.5 1532.3,1713.3 1549.5,1707.1 1567.0,1702.1 1584.8,1698.3 1602.9,1695.7 1621.3,1694.2 1639.9,1693.9 1658.8,1694.7 1677.8,1696.7 1696.9,1699.8 1716.2,1703.9 1735.5,1709.1 1754.8,1715.3 1774.2,1722.4 1793.4,1730.4 1812.6,1739.3 1831.7,1748.9 1850.6,1759.3 1869.2,1770.3 1887.6,1781.9 1905.6,1793.9 1923.2,1806.4  Z" style="stroke-width: 0.5;  stroke: rgb(0,0,0); fill: rgb(179,177,178);" />
<path d="M 1794.845,1931.361 A 522.500,522.500 0.00 0,1 1699.4,1982.9 L 1699.4,1982.9 1691.6,1964.3 1683.6,1945.8 1675.5,1927.7 1667.2,1910.1 1658.9,1893.0 1650.6,1876.7 1642.3,1861.1 1634.0,1846.5 1625.7,1832.8 1617.5,1820.3 1609.4,1808.9 1601.4,1798.7 1593.6,1789.8 1586.0,1782.3 1578.5,1776.1 1571.2,1771.4 1564.2,1768.1 1557.4,1766.2 1550.8,1765.9 1544.5,1767.0 1538.5,1769.6 1532.7,1773.7 1527.2,1779.2 1522.1,1786.2 1517.2,1794.6 1512.6,1804.3 1508.4,1815.4 1504.4,1827.7 1500.8,1841.2 1497.5,1855.8 1494.4,1871.4 1491.7,1888.0 1489.3,1905.5 1487.1,1923.7 1485.2,1942.6 1483.6,1962.0 1482.3,1981.8 1481.2,2001.9 1480.3,2022.1  A 522.500,522.500 0.00 0,1 1451.4,2020.2 L 1451.4,2020.2 1453.4,1999.8 1455.9,1979.6 1458.7,1959.5 1461.9,1939.8 1465.4,1920.7 1469.4,1902.1 1473.8,1884.2 1478.6,1867.1 1483.9,1850.9 1489.6,1835.7 1495.7,1821.5 1502.3,1808.5 1509.3,1796.6 1516.7,1785.9 1524.6,1776.5 1532.8,1768.5 1541.5,1761.7 1550.6,1756.4 1560.1,1752.4 1569.9,1749.9 1580.1,1748.8 1590.6,1749.0 1601.5,1750.7 1612.6,1753.7 1624.1,1758.1 1635.7,1763.8 1647.6,1770.9 1659.7,1779.1 1671.9,1788.5 1684.3,1799.1 1696.7,1810.7 1709.2,1823.3 1721.8,1836.8 1734.3,1851.1 1746.7,1866.1 1759.0,1881.8 1771.2,1898.0 1783.1,1914.5 1794.8,1931.4  Z" style="stroke-width: 0.5;  stroke: rgb(0,0,0); fill: rgb(179,177,178);" />
<path d="M 2013.135,1598.480 A 522.500,522.500 0.00 0,1 1994.3,1669.4 L 1994.3,1669.4 1972.1,1662.0 1949.5,1655.1 1926.6,1648.6 1903.5,1642.5 1880.1,1637.1 1856.4,1632.1 1832.6,1627.8 1808.6,1624.2 1784.5,1621.2 1760.3,1618.8 1736.0,1617.2 1711.7,1616.4 1687.3,1616.3 1663.0,1616.9 1638.7,1618.3 1614.5,1620.6 1590.4,1623.6 1566.5,1627.4 1542.6,1632.0 1519.0,1637.4 1495.5,1643.6 1472.2,1650.6 1449.2,1658.4 1426.5,1666.9 1404.0,1676.1 1381.8,1686.1 1359.9,1696.8 1338.4,1708.1 1317.2,1720.1 1296.4,1732.7 1276.0,1745.9 1256.0,1759.6 1236.4,1773.9 1217.2,1788.6 1198.5,1803.7 1180.3,1819.2 1162.5,1835.0 1145.2,1851.0 1128.4,1867.3  A 522.500,522.500 0.00 0,1 1080.6,1811.6 L 1080.6,1811.6 1100.2,1797.4 1120.1,1783.3 1140.5,1769.4 1161.3,1755.8 1182.4,1742.6 1203.9,1729.6 1225.8,1717.1 1248.0,1704.9 1270.5,1693.2 1293.4,1681.9 1316.5,1671.1 1340.0,1660.8 1363.7,1651.1 1387.6,1641.8 1411.8,1633.2 1436.2,1625.0 1460.8,1617.5 1485.6,1610.6 1510.6,1604.2 1535.7,1598.5 1561.0,1593.4 1586.3,1588.8 1611.8,1584.9 1637.3,1581.6 1662.8,1578.9 1688.4,1576.8 1714.0,1575.3 1739.6,1574.4 1765.1,1574.1 1790.6,1574.3 1816.0,1575.1 1841.3,1576.4 1866.4,1578.2 1891.4,1580.5 1916.2,1583.3 1940.8,1586.5 1965.2,1590.1 1989.3,1594.1 2013.1,1598.5  Z" style="stroke-width: 0.5;  stroke: rgb(0,0,0); fill: rgb(179,177,178);" />
<path d="M 2016.943,1424.000 A 522.500,522.500 0.00 0,1 2022.4,1489.2 L 2022.4,1489.2 1996.5,1489.8 1970.5,1490.6 1944.4,1491.5 1918.2,1492.6 1891.9,1493.9 1865.5,1495.4 1839.1,1497.0 1812.6,1498.9 1786.0,1500.9 1759.4,1503.2 1732.8,1505.7 1706.1,1508.3 1679.4,1511.2 1652.7,1514.3 1626.0,1517.7 1599.2,1521.2 1572.5,1525.0 1545.9,1529.0 1519.2,1533.2 1492.6,1537.6 1466.0,1542.2 1439.4,1547.1 1413.0,1552.2 1386.5,1557.5 1360.2,1563.0 1333.9,1568.7 1307.7,1574.6 1281.6,1580.6 1255.6,1586.9 1229.7,1593.4 1203.9,1600.1 1178.2,1606.9 1152.6,1613.9 1127.2,1621.0 1101.9,1628.3 1076.8,1635.7 1051.8,1643.3 1026.9,1651.0 1002.2,1658.8  A 522.500,522.500 0.00 0,1 986.3,1595.3 L 986.3,1595.3 1012.5,1590.4 1038.8,1585.6 1065.0,1580.8 1091.3,1576.0 1117.6,1571.2 1144.0,1566.4 1170.3,1561.7 1196.7,1557.0 1223.1,1552.3 1249.5,1547.6 1275.9,1543.0 1302.3,1538.3 1328.7,1533.7 1355.2,1529.2 1381.6,1524.6 1408.1,1520.1 1434.5,1515.6 1461.0,1511.2 1487.5,1506.7 1514.0,1502.3 1540.5,1498.0 1567.0,1493.6 1593.5,1489.3 1620.0,1485.0 1646.5,1480.8 1673.0,1476.5 1699.5,1472.3 1726.0,1468.1 1752.5,1464.0 1779.0,1459.9 1805.4,1455.8 1831.9,1451.7 1858.4,1447.7 1884.8,1443.7 1911.3,1439.7 1937.7,1435.7 1964.1,1431.8 1990.5,1427.9 2016.9,1424.0  Z" style="stroke-width: 0.5;  stroke: rgb(0,0,0); fill: rgb(179,177,178);" />
<path d="M 1892.564,1155.182 A 522.500,522.500 0.00 0,1 1931.1,1204.8 L 1931.1,1204.8 1911.7,1217.8 1891.8,1230.6 1871.4,1243.0 1850.7,1255.0 1829.6,1266.6 1808.1,1277.6 1786.2,1288.2 1764.1,1298.2 1741.6,1307.6 1718.9,1316.3 1695.9,1324.4 1672.6,1331.8 1649.2,1338.5 1625.5,1344.4 1601.7,1349.6 1577.8,1354.0 1553.7,1357.6 1529.5,1360.5 1505.3,1362.5 1481.0,1363.7 1456.6,1364.1 1432.3,1363.7 1408.0,1362.5 1383.7,1360.6 1359.5,1357.8 1335.4,1354.3 1311.4,1350.0 1287.5,1344.9 1263.8,1339.2 1240.3,1332.8 1217.0,1325.7 1194.0,1318.0 1171.2,1309.7 1148.7,1300.8 1126.5,1291.4 1104.6,1281.6 1083.2,1271.3 1062.1,1260.6 1041.4,1249.6  A 522.500,522.500 0.00 0,1 1074.8,1196.3 L 1074.8,1196.3 1093.5,1209.3 1112.6,1222.0 1132.1,1234.3 1152.1,1246.1 1172.4,1257.3 1193.1,1268.0 1214.1,1278.1 1235.3,1287.5 1256.9,1296.1 1278.6,1304.0 1300.6,1311.1 1322.7,1317.4 1345.0,1322.8 1367.4,1327.3 1389.9,1330.9 1412.5,1333.5 1435.1,1335.3 1457.8,1336.0 1480.4,1335.9 1503.0,1334.7 1525.5,1332.6 1548.0,1329.6 1570.3,1325.6 1592.5,1320.7 1614.6,1314.8 1636.4,1308.1 1658.1,1300.5 1679.5,1292.1 1700.6,1282.8 1721.5,1272.8 1742.0,1262.0 1762.2,1250.5 1782.1,1238.4 1801.6,1225.7 1820.7,1212.4 1839.3,1198.7 1857.6,1184.5 1875.3,1170.0 1892.6,1155.2  Z" style="stroke-width: 0.5;  stroke: rgb(0,0,0); fill: rgb(179,177,178);" />
<path d="M 1931.522,1205.391 A 522.500,522.500 0.00 0,1 1958.6,1249.7 L 1958.6,1249.7 1937.2,1261.2 1915.5,1272.4 1893.3,1283.3 1870.8,1293.9 1848.0,1304.2 1824.9,1314.1 1801.4,1323.5 1777.7,1332.6 1753.7,1341.2 1729.5,1349.3 1705.1,1356.9 1680.4,1364.0 1655.5,1370.5 1630.5,1376.5 1605.3,1381.9 1579.9,1386.7 1554.5,1391.0 1528.9,1394.7 1503.2,1397.7 1477.5,1400.2 1451.7,1402.0 1425.9,1403.3 1400.1,1403.9 1374.3,1403.9 1348.5,1403.4 1322.8,1402.2 1297.1,1400.5 1271.6,1398.2 1246.1,1395.4 1220.8,1392.0 1195.6,1388.1 1170.6,1383.7 1145.8,1378.8 1121.2,1373.5 1096.9,1367.7 1072.8,1361.6 1049.0,1355.0 1025.5,1348.1 1002.3,1340.9  A 522.500,522.500 0.00 0,1 1020.6,1292.3 L 1020.6,1292.3 1042.4,1301.5 1064.6,1310.4 1087.1,1318.8 1110.0,1326.9 1133.2,1334.5 1156.7,1341.5 1180.4,1348.1 1204.3,1354.0 1228.5,1359.4 1252.8,1364.2 1277.3,1368.3 1301.9,1371.7 1326.6,1374.4 1351.4,1376.5 1376.2,1377.8 1401.1,1378.4 1426.0,1378.3 1450.8,1377.4 1475.7,1375.8 1500.4,1373.4 1525.1,1370.3 1549.7,1366.5 1574.1,1361.9 1598.5,1356.6 1622.6,1350.6 1646.5,1343.9 1670.3,1336.6 1693.8,1328.5 1717.0,1319.9 1740.0,1310.6 1762.7,1300.8 1785.1,1290.4 1807.2,1279.5 1828.9,1268.1 1850.2,1256.3 1871.2,1244.1 1891.7,1231.5 1911.8,1218.6 1931.5,1205.4  Z" style="stroke-width: 0.5;  stroke: rgb(0,0,0); fill: rgb(179,177,178);" />
<path d="M 1997.263,1339.577 A 522.500,522.500 0.00 0,1 2009.8,1385.3 L 2009.8,1385.3 1983.7,1391.2 1957.7,1397.0 1931.6,1402.8 1905.5,1408.6 1879.4,1414.4 1853.3,1420.1 1827.1,1425.9 1800.9,1431.6 1774.8,1437.3 1748.6,1442.9 1722.4,1448.6 1696.1,1454.2 1669.9,1459.8 1643.6,1465.4 1617.4,1470.9 1591.1,1476.4 1564.8,1481.9 1538.5,1487.3 1512.2,1492.8 1485.9,1498.2 1459.6,1503.5 1433.3,1508.9 1407.0,1514.2 1380.7,1519.5 1354.3,1524.7 1328.0,1530.0 1301.7,1535.2 1275.4,1540.3 1249.1,1545.5 1222.7,1550.6 1196.4,1555.7 1170.1,1560.7 1143.8,1565.8 1117.6,1570.8 1091.3,1575.7 1065.0,1580.7 1038.8,1585.6 1012.5,1590.5 986.3,1595.4  A 522.500,522.500 0.00 0,1 979.8,1548.4 L 979.8,1548.4 1005.7,1546.0 1031.8,1543.4 1058.0,1540.6 1084.2,1537.8 1110.5,1534.7 1136.8,1531.6 1163.2,1528.3 1189.6,1524.8 1216.1,1521.2 1242.6,1517.4 1269.1,1513.5 1295.6,1509.4 1322.2,1505.1 1348.7,1500.7 1375.3,1496.1 1401.8,1491.4 1428.3,1486.4 1454.8,1481.3 1481.3,1476.1 1507.8,1470.6 1534.2,1465.0 1560.5,1459.3 1586.8,1453.4 1613.1,1447.3 1639.3,1441.1 1665.5,1434.7 1691.5,1428.1 1717.5,1421.4 1743.5,1414.6 1769.3,1407.6 1795.1,1400.5 1820.7,1393.3 1846.3,1386.0 1871.7,1378.5 1897.1,1370.9 1922.3,1363.2 1947.4,1355.4 1972.4,1347.5 1997.3,1339.6  Z" style="stroke-width: 0.5;  stroke: rgb(0,0,0); fill: rgb(179,177,178);" />
<path d="M 1958.982,1250.316 A 522.500,522.500 0.00 0,1 1978.2,1289.4 L 1978.2,1289.4 1954.7,1299.6 1931.0,1309.7 1907.1,1319.7 1883.0,1329.5 1858.7,1339.1 1834.2,1348.6 1809.6,1357.8 1784.8,1366.9 1759.8,1375.7 1734.6,1384.3 1709.3,1392.7 1683.9,1400.9 1658.3,1408.8 1632.6,1416.4 1606.8,1423.8 1580.9,1430.9 1554.8,1437.7 1528.7,1444.3 1502.5,1450.5 1476.3,1456.5 1450.0,1462.2 1423.6,1467.6 1397.2,1472.8 1370.7,1477.6 1344.3,1482.1 1317.8,1486.4 1291.3,1490.4 1264.9,1494.1 1238.4,1497.5 1212.0,1500.6 1185.7,1503.5 1159.4,1506.1 1133.1,1508.4 1107.0,1510.5 1080.9,1512.3 1054.9,1513.9 1029.1,1515.3 1003.4,1516.5 977.8,1517.4  A 522.500,522.500 0.00 0,1 978.2,1473.9 L 978.2,1473.9 1003.2,1475.0 1028.5,1475.9 1053.9,1476.4 1079.5,1476.7 1105.2,1476.6 1131.1,1476.2 1157.1,1475.4 1183.2,1474.3 1209.3,1472.8 1235.5,1470.9 1261.8,1468.6 1288.1,1466.0 1314.4,1462.9 1340.7,1459.4 1367.0,1455.6 1393.3,1451.3 1419.5,1446.6 1445.6,1441.5 1471.7,1436.0 1497.7,1430.0 1523.6,1423.7 1549.4,1417.0 1575.1,1409.8 1600.6,1402.3 1626.0,1394.4 1651.2,1386.1 1676.2,1377.5 1701.1,1368.5 1725.7,1359.1 1750.1,1349.5 1774.4,1339.5 1798.4,1329.2 1822.1,1318.6 1845.6,1307.8 1868.8,1296.7 1891.8,1285.4 1914.5,1273.9 1936.9,1262.2 1959.0,1250.3  Z" style="stroke-width: 0.5;  stroke: rgb(0,0,0); fill: rgb(179,177,178);" />
<path d="M 2022.111,1520.163 A 522.500,522.500 0.00 0,1 2018.7,1563.2 L 2018.7,1563.2 1994.2,1560.4 1969.5,1557.9 1944.6,1555.8 1919.4,1554.0 1894.1,1552.6 1868.7,1551.7 1843.1,1551.1 1817.4,1551.0 1791.5,1551.4 1765.7,1552.2 1739.7,1553.6 1713.7,1555.4 1687.8,1557.7 1661.8,1560.5 1635.8,1563.9 1609.9,1567.7 1584.0,1572.1 1558.2,1577.0 1532.6,1582.4 1507.0,1588.3 1481.5,1594.7 1456.2,1601.7 1431.1,1609.1 1406.1,1617.1 1381.3,1625.5 1356.7,1634.4 1332.4,1643.7 1308.2,1653.5 1284.4,1663.7 1260.8,1674.4 1237.4,1685.4 1214.3,1696.8 1191.6,1708.5 1169.1,1720.6 1147.0,1732.9 1125.2,1745.5 1103.8,1758.4 1082.7,1771.5 1061.9,1784.8  A 522.500,522.500 0.00 0,1 1039.9,1747.7 L 1039.9,1747.7 1062.1,1735.9 1084.6,1724.3 1107.4,1712.8 1130.4,1701.5 1153.7,1690.5 1177.3,1679.7 1201.1,1669.2 1225.1,1658.9 1249.4,1649.0 1273.9,1639.3 1298.5,1630.0 1323.4,1621.0 1348.5,1612.3 1373.7,1604.0 1399.1,1596.0 1424.7,1588.5 1450.3,1581.3 1476.1,1574.5 1502.1,1568.0 1528.1,1562.0 1554.2,1556.4 1580.3,1551.2 1606.6,1546.3 1632.8,1541.9 1659.1,1537.9 1685.5,1534.2 1711.8,1531.0 1738.1,1528.2 1764.4,1525.7 1790.6,1523.6 1816.8,1521.9 1842.9,1520.5 1868.9,1519.5 1894.8,1518.8 1920.6,1518.5 1946.2,1518.5 1971.7,1518.8 1997.0,1519.3 2022.1,1520.2  Z" style="stroke-width: 0.5;  stroke: rgb(0,0,0); fill: rgb(179,177,178);" />
<path d="M 1986.686,1309.886 A 522.500,522.500 0.00 0,1 1997.0,1338.9 L 1997.0,1338.9 1972.2,1346.9 1947.2,1354.8 1922.1,1362.6 1896.9,1370.4 1871.6,1378.0 1846.1,1385.5 1820.6,1392.9 1794.9,1400.1 1769.2,1407.2 1743.4,1414.2 1717.4,1421.1 1691.5,1427.8 1665.4,1434.4 1639.2,1440.8 1613.0,1447.1 1586.8,1453.2 1560.5,1459.1 1534.1,1464.9 1507.7,1470.5 1481.3,1475.9 1454.8,1481.2 1428.3,1486.3 1401.8,1491.3 1375.2,1496.1 1348.7,1500.7 1322.1,1505.1 1295.6,1509.4 1269.1,1513.5 1242.6,1517.5 1216.1,1521.2 1189.6,1524.9 1163.2,1528.3 1136.8,1531.7 1110.5,1534.8 1084.2,1537.9 1058.0,1540.7 1031.8,1543.5 1005.8,1546.1 979.8,1548.6  A 522.500,522.500 0.00 0,1 977.8,1517.8 L 977.8,1517.8 1003.5,1516.9 1029.4,1515.7 1055.3,1514.4 1081.4,1512.8 1107.6,1511.1 1133.8,1509.1 1160.1,1506.9 1186.5,1504.5 1213.0,1501.8 1239.5,1498.9 1266.0,1495.7 1292.5,1492.3 1319.1,1488.7 1345.7,1484.8 1372.2,1480.6 1398.8,1476.2 1425.3,1471.5 1451.8,1466.6 1478.3,1461.4 1504.7,1456.0 1531.0,1450.3 1557.3,1444.3 1583.6,1438.1 1609.7,1431.7 1635.7,1425.0 1661.7,1418.1 1687.5,1410.9 1713.3,1403.5 1738.9,1396.0 1764.3,1388.1 1789.7,1380.1 1814.9,1371.9 1839.9,1363.5 1864.8,1355.0 1889.5,1346.3 1914.1,1337.4 1938.5,1328.3 1962.7,1319.2 1986.7,1309.9  Z" style="stroke-width: 0.5;  stroke: rgb(0,0,0); fill: rgb(179,177,178);" />
<path d="M 2018.198,1566.913 A 522.500,522.500 0.00 0,1 2013.4,1597.1 L 2013.4,1597.1 1989.6,1592.8 1965.4,1588.9 1941.0,1585.3 1916.4,1582.1 1891.6,1579.4 1866.6,1577.2 1841.4,1575.4 1816.1,1574.2 1790.7,1573.4 1765.2,1573.3 1739.6,1573.6 1714.0,1574.6 1688.4,1576.1 1662.8,1578.3 1637.3,1581.0 1611.7,1584.3 1586.3,1588.2 1560.9,1592.8 1535.7,1597.9 1510.5,1603.7 1485.5,1610.0 1460.7,1617.0 1436.1,1624.5 1411.7,1632.6 1387.5,1641.3 1363.5,1650.6 1339.8,1660.3 1316.3,1670.6 1293.1,1681.4 1270.2,1692.6 1247.7,1704.3 1225.5,1716.5 1203.6,1729.0 1182.0,1741.9 1160.8,1755.2 1140.0,1768.7 1119.6,1782.6 1099.6,1796.6 1080.0,1810.9  A 522.500,522.500 0.00 0,1 1062.6,1785.8 L 1062.6,1785.8 1083.3,1772.5 1104.3,1759.4 1125.7,1746.5 1147.5,1733.8 1169.6,1721.4 1192.0,1709.4 1214.7,1697.6 1237.7,1686.2 1261.0,1675.2 1284.6,1664.6 1308.5,1654.4 1332.6,1644.6 1356.9,1635.3 1381.5,1626.4 1406.2,1618.0 1431.2,1610.1 1456.3,1602.7 1481.6,1595.8 1507.0,1589.5 1532.6,1583.6 1558.3,1578.3 1584.0,1573.5 1609.9,1569.2 1635.8,1565.4 1661.7,1562.2 1687.7,1559.5 1713.7,1557.3 1739.6,1555.6 1765.5,1554.4 1791.4,1553.7 1817.2,1553.5 1842.9,1553.7 1868.5,1554.4 1893.9,1555.5 1919.2,1557.1 1944.2,1559.0 1969.1,1561.3 1993.8,1563.9 2018.2,1566.9  Z" style="stroke-width: 0.5;  stroke: rgb(0,0,0); fill: rgb(179,177,178);" />
<path d="M 2022.403,1489.936 A 522.500,522.500 0.00 0,1 2022.1,1519.5 L 2022.1,1519.5 1996.7,1518.7 1971.1,1518.0 1945.4,1517.7 1919.5,1517.5 1893.5,1517.7 1867.4,1518.1 1841.2,1518.8 1814.9,1519.8 1788.5,1521.1 1762.0,1522.7 1735.5,1524.6 1709.0,1526.8 1682.4,1529.3 1655.8,1532.2 1629.3,1535.4 1602.7,1538.9 1576.1,1542.8 1549.6,1547.0 1523.1,1551.5 1496.7,1556.4 1470.4,1561.6 1444.1,1567.1 1417.9,1572.9 1391.8,1579.1 1365.8,1585.6 1340.0,1592.4 1314.2,1599.4 1288.6,1606.8 1263.2,1614.5 1237.9,1622.4 1212.8,1630.6 1187.9,1639.0 1163.1,1647.7 1138.5,1656.6 1114.2,1665.7 1090.1,1675.1 1066.1,1684.6 1042.5,1694.3 1019.0,1704.1  A 522.500,522.500 0.00 0,1 1008.2,1676.6 L 1008.2,1676.6 1032.5,1667.9 1057.0,1659.4 1081.6,1651.0 1106.5,1642.8 1131.4,1634.7 1156.6,1626.8 1181.8,1619.1 1207.3,1611.5 1232.8,1604.1 1258.5,1596.9 1284.3,1590.0 1310.2,1583.2 1336.2,1576.7 1362.3,1570.4 1388.5,1564.3 1414.8,1558.4 1441.2,1552.8 1467.6,1547.5 1494.1,1542.3 1520.6,1537.5 1547.2,1532.8 1573.8,1528.4 1600.4,1524.3 1627.1,1520.4 1653.7,1516.8 1680.4,1513.4 1707.0,1510.2 1733.6,1507.3 1760.2,1504.6 1786.8,1502.2 1813.3,1500.0 1839.7,1498.0 1866.1,1496.2 1892.4,1494.7 1918.6,1493.4 1944.7,1492.2 1970.7,1491.3 1996.6,1490.5 2022.4,1489.9  Z" style="stroke-width: 0.5;  stroke: rgb(0,0,0); fill: rgb(179,177,178);" />
<path d="M 1873.320,1134.435 A 522.500,522.500 0.00 0,1 1891.4,1153.9 L 1891.4,1153.9 1874.2,1168.7 1856.5,1183.3 1838.4,1197.5 1819.8,1211.3 1800.7,1224.6 1781.3,1237.4 1761.5,1249.6 1741.3,1261.1 1720.8,1271.9 1700.0,1282.0 1678.9,1291.3 1657.5,1299.8 1635.9,1307.4 1614.1,1314.2 1592.1,1320.1 1570.0,1325.1 1547.7,1329.1 1525.2,1332.2 1502.7,1334.3 1480.2,1335.5 1457.6,1335.7 1435.0,1334.9 1412.4,1333.2 1389.8,1330.5 1367.3,1327.0 1344.9,1322.5 1322.7,1317.1 1300.6,1310.9 1278.6,1303.8 1256.9,1295.9 1235.4,1287.2 1214.1,1277.9 1193.1,1267.8 1172.5,1257.1 1152.2,1245.8 1132.3,1234.0 1112.7,1221.8 1093.6,1209.1 1075.0,1196.1  A 522.500,522.500 0.00 0,1 1091.0,1174.9 L 1091.0,1174.9 1108.7,1188.6 1127.0,1202.1 1145.6,1215.1 1164.7,1227.7 1184.1,1239.7 1203.9,1251.1 1224.0,1261.8 1244.4,1271.9 1265.1,1281.1 1286.0,1289.6 1307.1,1297.2 1328.4,1304.0 1349.8,1309.8 1371.4,1314.7 1393.0,1318.6 1414.7,1321.5 1436.5,1323.4 1458.3,1324.4 1480.0,1324.3 1501.7,1323.1 1523.4,1321.0 1545.0,1317.8 1566.4,1313.7 1587.7,1308.5 1608.8,1302.4 1629.8,1295.3 1650.5,1287.3 1671.0,1278.4 1691.2,1268.7 1711.1,1258.1 1730.7,1246.7 1750.0,1234.7 1768.9,1221.9 1787.4,1208.5 1805.5,1194.5 1823.1,1180.1 1840.4,1165.2 1857.1,1150.0 1873.3,1134.4  Z" style="stroke-width: 0.5;  stroke: rgb(0,0,0); fill: rgb(179,177,178);" />
</g>
<g id="plot0">
<g id="plot0-axis">
</g>
<line x1='2243.2' y1='1600.9' x2='2243.2' y2='1600.9' style="stroke-width:14.0;stroke:rgb(0,0,0);stroke-linecap:round;fill:none;" />
<line x1='2243.2' y1='1600.9' x2='2282.8' y2='1606.2' style="stroke-width:14.0;stroke:rgb(0,0,0);stroke-linecap:round;fill:none;" />
<line x1='2282.8' y1='1606.2' x2='2282.8' y2='1606.2' style="stroke-width:14.0;stroke:rgb(0,0,0);stroke-linecap:round;fill:none;" />
<text x="2299.3" y="1631.2" font-size="46.8px" font-family="CMUBright-Roman" style="text-anchor:start;fill:rgb(255,38,78);" transform="rotate(7.7,2299.3,1631.2)" >HistocapCB064<tspan baseline-shift="-40%" font-size="90%">s</tspan>00178</text>
</g>
<defs>
<pattern id="checker" width="10" height="10" patternTransform="rotate(45 0 0)" patternUnits="userSpaceOnUse"><line x1="0" y1="0" x2="10" y2="0" style="stroke:black;stroke-width:2" /><line x1="0" y1="0" x2="0" y2="10" style="stroke:black;stroke-width:2" /></pattern>
<pattern id="hline-sparse" width="10" height="10" patternTransform="rotate(0 0 0)" patternUnits="userSpaceOnUse"><line x1="0" y1="0" x2="10" y2="0" style="stroke:black;stroke-width:2" /></pattern>
<pattern id="hline" width="10" height="10" patternTransform="rotate(0 0 0)" patternUnits="userSpaceOnUse"><line x1="0" y1="0" x2="10" y2="0" style="stroke:black;stroke-width:5" /></pattern>
<pattern id="vline" width="10" height="10" patternTransform="rotate(0 0 0)" patternUnits="userSpaceOnUse"><line x1="0" y1="0" x2="0" y2="10" style="stroke:black;stroke-width:5" /></pattern>
<pattern id="checker" width="10" height="10" patternTransform="rotate(45 0 0)" patternUnits="userSpaceOnUse"><line x1="0" y1="0" x2="10" y2="0" style="stroke:black;stroke-width:5" /><line x1="0" y1="0" x2="0" y2="10" style="stroke:black;stroke-width:4" /></pattern>
<pattern id="vline-sparse" width="10" height="10" patternTransform="rotate(0 0 0)" patternUnits="userSpaceOnUse"><line x1="0" y1="0" x2="0" y2="10" style="stroke:black;stroke-width:2" /></pattern>
</defs>
</svg>
