<?xml version="1.0" encoding="utf-8" standalone="no"?>
<!DOCTYPE svg PUBLIC "-//W3C//DTD SVG 1.1//EN" "http://www.w3.org/Graphics/SVG/1.1/DTD/svg11.dtd">
<svg width="3000px" height="3000px" version="1.1" xmlns="http://www.w3.org/2000/svg" xmlns:xlink="http://www.w3.org/1999/xlink">
<g id="bg">
<rect x="0" y="0" width="3000px" height="3000px" style="fill:rgb(255,255,255);"/>
</g>
<g id="ideograms">
<path d="M1500.000,950.000 A550.000,550.000 40.000 0,1 1714.494,2006.451 L1792.491,2190.615 A750.000,750.000 0.000 0,0 1500.000,750.000 Z" style="stroke-width:2.0;stroke:rgb(0,0,0);stroke-linecap:round;fill:rgb(179,177,178);" />
<text x="2455.5" y="1306.0" font-size="46.8px" font-family="CMUBright-Roman" style="text-anchor:middle;fill:rgb(0,0,0);" transform="rotate(438.5,2455.5,1306.0)" >HistocapCB192<tspan baseline-shift="-40%" font-size="90%">5</tspan></text>
<line x1='1595.5' y1='756.1' x2='1597.0' y2='744.2' style="stroke-width:8.0;stroke:rgb(150,150,150);stroke-linecap:round;fill:none;" />
<line x1='1695.0' y1='775.8' x2='1698.1' y2='764.2' style="stroke-width:8.0;stroke:rgb(150,150,150);stroke-linecap:round;fill:none;" />
<text x="1714.7" y="756.4" font-size="41.6px" font-family="CMUBright-Roman" style="text-anchor:start;fill:rgb(150,150,150);" transform="rotate(285.1,1714.7,756.4)" >300 kb</text>
<line x1='1790.9' y1='808.7' x2='1795.5' y2='797.6' style="stroke-width:8.0;stroke:rgb(150,150,150);stroke-linecap:round;fill:none;" />
<line x1='1881.5' y1='854.3' x2='1887.6' y2='843.9' style="stroke-width:8.0;stroke:rgb(150,150,150);stroke-linecap:round;fill:none;" />
<line x1='1965.1' y1='911.6' x2='1972.6' y2='902.2' style="stroke-width:8.0;stroke:rgb(150,150,150);stroke-linecap:round;fill:none;" />
<line x1='2040.2' y1='979.8' x2='2048.9' y2='971.4' style="stroke-width:8.0;stroke:rgb(150,150,150);stroke-linecap:round;fill:none;" />
<line x1='2105.5' y1='1057.4' x2='2115.2' y2='1050.3' style="stroke-width:8.0;stroke:rgb(150,150,150);stroke-linecap:round;fill:none;" />
<text x="2133.0" y="1054.6" font-size="41.6px" font-family="CMUBright-Roman" style="text-anchor:start;fill:rgb(150,150,150);" transform="rotate(323.8,2133.0,1054.6)" >350 kb</text>
<line x1='2159.7' y1='1143.1' x2='2170.2' y2='1137.4' style="stroke-width:8.0;stroke:rgb(150,150,150);stroke-linecap:round;fill:none;" />
<line x1='2201.8' y1='1235.4' x2='2213.0' y2='1231.2' style="stroke-width:8.0;stroke:rgb(150,150,150);stroke-linecap:round;fill:none;" />
<line x1='2231.1' y1='1332.5' x2='2242.8' y2='1329.8' style="stroke-width:8.0;stroke:rgb(150,150,150);stroke-linecap:round;fill:none;" />
<line x1='2247.0' y1='1432.7' x2='2258.9' y2='1431.6' style="stroke-width:8.0;stroke:rgb(150,150,150);stroke-linecap:round;fill:none;" />
<line x1='2249.2' y1='1534.1' x2='2261.2' y2='1534.6' style="stroke-width:8.0;stroke:rgb(150,150,150);stroke-linecap:round;fill:none;" />
<text x="2272.4" y="1549.1" font-size="41.6px" font-family="CMUBright-Roman" style="text-anchor:start;fill:rgb(150,150,150);" transform="rotate(2.6,2272.4,1549.1)" >400 kb</text>
<line x1='2237.8' y1='1634.8' x2='2249.6' y2='1637.0' style="stroke-width:8.0;stroke:rgb(150,150,150);stroke-linecap:round;fill:none;" />
<line x1='2212.8' y1='1733.1' x2='2224.3' y2='1736.9' style="stroke-width:8.0;stroke:rgb(150,150,150);stroke-linecap:round;fill:none;" />
<line x1='2174.9' y1='1827.2' x2='2185.7' y2='1832.4' style="stroke-width:8.0;stroke:rgb(150,150,150);stroke-linecap:round;fill:none;" />
<line x1='2124.6' y1='1915.2' x2='2134.6' y2='1921.9' style="stroke-width:8.0;stroke:rgb(150,150,150);stroke-linecap:round;fill:none;" />
<line x1='2062.8' y1='1995.7' x2='2071.8' y2='2003.6' style="stroke-width:8.0;stroke:rgb(150,150,150);stroke-linecap:round;fill:none;" />
<text x="2071.5" y="2022.0" font-size="41.6px" font-family="CMUBright-Roman" style="text-anchor:start;fill:rgb(150,150,150);" transform="rotate(41.4,2071.5,2022.0)" >450 kb</text>
<line x1='1990.8' y1='2067.1' x2='1998.7' y2='2076.2' style="stroke-width:8.0;stroke:rgb(150,150,150);stroke-linecap:round;fill:none;" />
<line x1='1909.8' y1='2128.1' x2='1916.4' y2='2138.2' style="stroke-width:8.0;stroke:rgb(150,150,150);stroke-linecap:round;fill:none;" />
<line x1='1821.3' y1='2177.7' x2='1826.5' y2='2188.5' style="stroke-width:8.0;stroke:rgb(150,150,150);stroke-linecap:round;fill:none;" />
<g id="highlighttrack_0">
<path d="M2037.038,1381.296 A550.000,550.000 40.000 0,1 2040.808,1399.866 L2237.465,1363.454 A750.000,750.000 0.000 0,0 2232.324,1338.131 Z" style="stroke-width:14.0;stroke:rgb(0,0,0);stroke-linecap:round;fill:rgb(255,38,78);" />
</g>
<path d="M1500.000,950.000 A550.000,550.000 40.000 0,1 1714.494,2006.451 L1792.491,2190.615 A750.000,750.000 0.000 0,0 1500.000,750.000 Z" style="stroke-width:2.0;stroke:rgb(0,0,0);stroke-linecap:round;fill:none;" />
<path d="M1497.053,2049.992 A550.000,550.000 40.000 0,1 1282.795,994.706 L1203.812,810.963 A750.000,750.000 0.000 0,0 1495.981,2249.989 Z" style="stroke-width:2.0;stroke:rgb(0,0,0);stroke-linecap:round;fill:rgb(179,177,178);" />
<text x="500.4" y="1703.0" font-size="46.8px" font-family="CMUBright-Roman" style="text-anchor:middle;fill:rgb(0,0,0);" transform="rotate(78.5,500.4,1703.0)" >HistocapCB174<tspan baseline-shift="-40%" font-size="90%">5</tspan></text>
<line x1='1117.7' y1='854.8' x2='1111.6' y2='844.4' style="stroke-width:8.0;stroke:rgb(150,150,150);stroke-linecap:round;fill:none;" />
<line x1='1034.1' y1='912.2' x2='1026.7' y2='902.8' style="stroke-width:8.0;stroke:rgb(150,150,150);stroke-linecap:round;fill:none;" />
<line x1='959.1' y1='980.5' x2='950.4' y2='972.1' style="stroke-width:8.0;stroke:rgb(150,150,150);stroke-linecap:round;fill:none;" />
<text x="932.2" y="974.0" font-size="41.6px" font-family="CMUBright-Roman" style="text-anchor:end;fill:rgb(150,150,150);" transform="rotate(43.8,932.2,974.0)" >300 kb</text>
<line x1='894.0' y1='1058.2' x2='884.3' y2='1051.1' style="stroke-width:8.0;stroke:rgb(150,150,150);stroke-linecap:round;fill:none;" />
<line x1='839.9' y1='1144.0' x2='829.3' y2='1138.3' style="stroke-width:8.0;stroke:rgb(150,150,150);stroke-linecap:round;fill:none;" />
<line x1='797.9' y1='1236.3' x2='786.7' y2='1232.1' style="stroke-width:8.0;stroke:rgb(150,150,150);stroke-linecap:round;fill:none;" />
<line x1='768.7' y1='1333.4' x2='757.0' y2='1330.8' style="stroke-width:8.0;stroke:rgb(150,150,150);stroke-linecap:round;fill:none;" />
<line x1='752.9' y1='1433.6' x2='741.0' y2='1432.5' style="stroke-width:8.0;stroke:rgb(150,150,150);stroke-linecap:round;fill:none;" />
<text x="727.9" y="1445.4" font-size="41.6px" font-family="CMUBright-Roman" style="text-anchor:end;fill:rgb(150,150,150);" transform="rotate(5.1,727.9,1445.4)" >350 kb</text>
<line x1='750.8' y1='1535.0' x2='738.8' y2='1535.6' style="stroke-width:8.0;stroke:rgb(150,150,150);stroke-linecap:round;fill:none;" />
<line x1='762.4' y1='1635.8' x2='750.6' y2='1637.9' style="stroke-width:8.0;stroke:rgb(150,150,150);stroke-linecap:round;fill:none;" />
<line x1='787.4' y1='1734.0' x2='776.0' y2='1737.8' style="stroke-width:8.0;stroke:rgb(150,150,150);stroke-linecap:round;fill:none;" />
<line x1='825.5' y1='1828.0' x2='814.7' y2='1833.3' style="stroke-width:8.0;stroke:rgb(150,150,150);stroke-linecap:round;fill:none;" />
<line x1='876.0' y1='1916.0' x2='866.0' y2='1922.7' style="stroke-width:8.0;stroke:rgb(150,150,150);stroke-linecap:round;fill:none;" />
<text x="863.9" y="1940.9" font-size="41.6px" font-family="CMUBright-Roman" style="text-anchor:end;fill:rgb(150,150,150);" transform="rotate(-33.7,863.9,1940.9)" >400 kb</text>
<line x1='937.8' y1='1996.4' x2='928.8' y2='2004.3' style="stroke-width:8.0;stroke:rgb(150,150,150);stroke-linecap:round;fill:none;" />
<line x1='1009.9' y1='2067.7' x2='1002.1' y2='2076.8' style="stroke-width:8.0;stroke:rgb(150,150,150);stroke-linecap:round;fill:none;" />
<line x1='1091.0' y1='2128.6' x2='1084.4' y2='2138.7' style="stroke-width:8.0;stroke:rgb(150,150,150);stroke-linecap:round;fill:none;" />
<line x1='1179.5' y1='2178.1' x2='1174.4' y2='2188.9' style="stroke-width:8.0;stroke:rgb(150,150,150);stroke-linecap:round;fill:none;" />
<line x1='1273.9' y1='2215.1' x2='1270.3' y2='2226.6' style="stroke-width:8.0;stroke:rgb(150,150,150);stroke-linecap:round;fill:none;" />
<text x="1280.1" y="2242.1" font-size="41.6px" font-family="CMUBright-Roman" style="text-anchor:end;fill:rgb(150,150,150);" transform="rotate(-72.5,1280.1,2242.1)" >450 kb</text>
<line x1='1372.5' y1='2239.1' x2='1370.4' y2='2250.9' style="stroke-width:8.0;stroke:rgb(150,150,150);stroke-linecap:round;fill:none;" />
<line x1='1473.4' y1='2249.5' x2='1472.9' y2='2261.5' style="stroke-width:8.0;stroke:rgb(150,150,150);stroke-linecap:round;fill:none;" />
<path d="M1497.053,2049.992 A550.000,550.000 40.000 0,1 1282.795,994.706 L1203.812,810.963 A750.000,750.000 0.000 0,0 1495.981,2249.989 Z" style="stroke-width:2.0;stroke:rgb(0,0,0);stroke-linecap:round;fill:none;" />
</g>
<g id="track_0">
<path d="M 1604.621,988.081 A 522.500,522.500 0.00 0,1 1698.6,1016.7 L 1698.6,1016.7 1690.2,1036.4 1681.4,1055.8 1672.0,1075.1 1662.2,1093.9 1651.8,1112.3 1641.0,1130.2 1629.7,1147.3 1617.9,1163.8 1605.6,1179.5 1592.9,1194.3 1579.7,1208.1 1566.2,1221.0 1552.1,1232.8 1537.7,1243.6 1522.9,1253.2 1507.7,1261.7 1492.2,1269.0 1476.4,1275.1 1460.2,1279.9 1443.8,1283.5 1427.1,1285.9 1410.1,1287.1 1393.0,1287.0 1375.7,1285.6 1358.2,1283.1 1340.6,1279.4 1322.9,1274.5 1305.1,1268.5 1287.4,1261.5 1269.6,1253.4 1251.9,1244.3 1234.3,1234.3 1216.8,1223.4 1199.5,1211.8 1182.4,1199.4 1165.6,1186.5 1149.0,1172.9 1132.8,1158.9 1117.0,1144.6  A 522.500,522.500 0.00 0,1 1190.2,1079.2 L 1190.2,1079.2 1202.7,1095.8 1215.4,1112.0 1228.4,1127.9 1241.6,1143.2 1255.0,1157.9 1268.5,1171.9 1282.1,1185.1 1295.8,1197.4 1309.5,1208.7 1323.1,1219.0 1336.8,1228.1 1350.3,1236.1 1363.7,1242.9 1376.9,1248.4 1390.0,1252.6 1402.9,1255.4 1415.6,1257.0 1428.0,1257.1 1440.1,1255.9 1451.9,1253.3 1463.5,1249.3 1474.7,1244.0 1485.5,1237.3 1496.0,1229.3 1506.1,1220.0 1515.8,1209.4 1525.2,1197.6 1534.1,1184.7 1542.6,1170.7 1550.7,1155.6 1558.4,1139.6 1565.6,1122.8 1572.5,1105.1 1578.9,1086.7 1584.8,1067.7 1590.4,1048.3 1595.5,1028.4 1600.3,1008.3 1604.6,988.1  Z" style="stroke-width: 0.5;  stroke: rgb(0,0,0); fill: rgb(179,177,178);" />
<path d="M 1923.938,1194.578 A 522.500,522.500 0.00 0,1 1971.2,1274.2 L 1971.2,1274.2 1948.4,1285.0 1925.3,1295.6 1901.9,1306.1 1878.3,1316.4 1854.4,1326.5 1830.4,1336.3 1806.1,1345.9 1781.5,1355.2 1756.8,1364.2 1731.9,1373.0 1706.8,1381.4 1681.6,1389.6 1656.1,1397.4 1630.6,1404.9 1604.8,1412.1 1579.0,1418.9 1553.0,1425.3 1527.0,1431.4 1500.8,1437.1 1474.6,1442.5 1448.3,1447.5 1421.9,1452.1 1395.5,1456.4 1369.1,1460.3 1342.6,1463.8 1316.1,1466.9 1289.7,1469.7 1263.2,1472.1 1236.8,1474.2 1210.5,1475.9 1184.2,1477.3 1158.0,1478.4 1131.9,1479.1 1105.9,1479.5 1080.0,1479.6 1054.3,1479.4 1028.7,1479.0 1003.2,1478.3 978.0,1477.3  A 522.500,522.500 0.00 0,1 990.2,1385.5 L 990.2,1385.5 1013.8,1390.6 1037.7,1395.4 1061.9,1399.7 1086.4,1403.7 1111.1,1407.2 1135.9,1410.2 1160.9,1412.7 1186.1,1414.8 1211.4,1416.2 1236.8,1417.2 1262.3,1417.5 1287.8,1417.3 1313.4,1416.5 1339.0,1415.1 1364.5,1413.0 1390.0,1410.4 1415.5,1407.1 1440.9,1403.2 1466.2,1398.7 1491.3,1393.6 1516.4,1387.8 1541.3,1381.4 1566.0,1374.4 1590.5,1366.8 1614.8,1358.7 1638.8,1350.0 1662.7,1340.7 1686.2,1330.9 1709.5,1320.5 1732.5,1309.7 1755.2,1298.4 1777.6,1286.6 1799.6,1274.5 1821.3,1261.9 1842.6,1249.0 1863.5,1235.8 1884.1,1222.3 1904.2,1208.5 1923.9,1194.6  Z" style="stroke-width: 0.5;  stroke: rgb(0,0,0); fill: rgb(179,177,178);" />
<path d="M 1982.580,1299.694 A 522.500,522.500 0.00 0,1 2010.2,1387.2 L 2010.2,1387.2 1984.1,1393.0 1958.0,1398.7 1931.9,1404.5 1905.8,1410.2 1879.6,1415.9 1853.5,1421.6 1827.3,1427.2 1801.1,1432.9 1774.9,1438.5 1748.7,1444.1 1722.5,1449.7 1696.3,1455.3 1670.0,1460.9 1643.8,1466.4 1617.5,1471.9 1591.3,1477.4 1565.0,1482.9 1538.7,1488.4 1512.4,1493.8 1486.1,1499.2 1459.8,1504.6 1433.5,1510.0 1407.2,1515.3 1380.9,1520.6 1354.6,1525.9 1328.3,1531.2 1302.0,1536.5 1275.7,1541.7 1249.4,1546.9 1223.1,1552.1 1196.8,1557.3 1170.6,1562.4 1144.3,1567.5 1118.0,1572.6 1091.7,1577.7 1065.5,1582.8 1039.2,1587.8 1013.0,1592.9 986.7,1597.9  A 522.500,522.500 0.00 0,1 977.5,1506.5 L 977.5,1506.5 1003.1,1506.1 1028.9,1505.5 1054.8,1504.7 1080.8,1503.6 1106.9,1502.3 1133.1,1500.8 1159.3,1499.0 1185.7,1496.9 1212.1,1494.6 1238.6,1492.0 1265.1,1489.2 1291.6,1486.1 1318.2,1482.6 1344.7,1478.9 1371.3,1475.0 1397.8,1470.7 1424.3,1466.1 1450.8,1461.3 1477.2,1456.1 1503.6,1450.7 1529.9,1445.0 1556.2,1439.0 1582.3,1432.7 1608.4,1426.1 1634.4,1419.3 1660.2,1412.2 1686.0,1404.9 1711.6,1397.3 1737.0,1389.4 1762.4,1381.4 1787.6,1373.1 1812.6,1364.5 1837.4,1355.8 1862.1,1346.9 1886.6,1337.7 1910.9,1328.5 1935.0,1319.0 1958.9,1309.4 1982.6,1299.7  Z" style="stroke-width: 0.5;  stroke: rgb(0,0,0); fill: rgb(179,177,178);" />
<path d="M 1832.776,1097.177 A 522.500,522.500 0.00 0,1 1895.2,1158.2 L 1895.2,1158.2 1877.1,1173.5 1858.6,1188.6 1839.6,1203.4 1820.2,1217.9 1800.4,1232.0 1780.1,1245.8 1759.5,1259.1 1738.5,1271.9 1717.0,1284.2 1695.3,1296.0 1673.2,1307.2 1650.7,1317.8 1628.0,1327.7 1605.0,1337.0 1581.7,1345.6 1558.2,1353.6 1534.4,1360.8 1510.5,1367.3 1486.3,1373.1 1462.0,1378.1 1437.6,1382.4 1413.0,1386.0 1388.3,1388.8 1363.6,1390.9 1338.8,1392.3 1314.0,1392.9 1289.2,1392.8 1264.4,1392.1 1239.6,1390.6 1215.0,1388.5 1190.4,1385.7 1166.0,1382.3 1141.8,1378.4 1117.7,1373.8 1093.9,1368.7 1070.3,1363.2 1047.0,1357.1 1024.0,1350.6 1001.4,1343.8  A 522.500,522.500 0.00 0,1 1034.3,1263.0 L 1034.3,1263.0 1054.7,1273.1 1075.5,1282.7 1096.6,1291.9 1118.1,1300.6 1139.8,1308.7 1161.8,1316.2 1184.0,1323.0 1206.4,1329.1 1228.9,1334.4 1251.6,1338.9 1274.3,1342.6 1297.1,1345.4 1319.8,1347.4 1342.6,1348.4 1365.3,1348.6 1388.0,1347.8 1410.5,1346.0 1432.9,1343.3 1455.2,1339.7 1477.3,1335.1 1499.1,1329.6 1520.8,1323.1 1542.1,1315.8 1563.2,1307.5 1584.0,1298.3 1604.5,1288.3 1624.6,1277.4 1644.4,1265.7 1663.7,1253.3 1682.7,1240.1 1701.3,1226.3 1719.4,1211.8 1737.1,1196.7 1754.3,1181.1 1771.0,1165.0 1787.2,1148.5 1802.9,1131.7 1818.1,1114.5 1832.8,1097.2  Z" style="stroke-width: 0.5;  stroke: rgb(0,0,0); fill: rgb(179,177,178);" />
<path d="M 2015.503,1414.777 A 522.500,522.500 0.00 0,1 2022.5,1495.1 L 2022.5,1495.1 1996.8,1495.4 1971.1,1495.9 1945.2,1496.7 1919.2,1497.6 1893.0,1498.8 1866.8,1500.3 1840.5,1501.9 1814.1,1503.9 1787.7,1506.1 1761.2,1508.5 1734.7,1511.2 1708.1,1514.2 1681.5,1517.5 1654.9,1521.0 1628.4,1524.8 1601.8,1528.9 1575.2,1533.3 1548.7,1538.0 1522.2,1543.0 1495.8,1548.2 1469.4,1553.7 1443.1,1559.5 1416.9,1565.6 1390.8,1571.9 1364.8,1578.5 1338.8,1585.3 1313.0,1592.5 1287.3,1599.8 1261.8,1607.4 1236.3,1615.3 1211.1,1623.3 1185.9,1631.6 1161.0,1640.1 1136.2,1648.7 1111.6,1657.6 1087.2,1666.6 1062.9,1675.8 1038.9,1685.1 1015.1,1694.6  A 522.500,522.500 0.00 0,1 990.9,1617.7 L 990.9,1617.7 1016.8,1611.7 1042.8,1605.8 1068.8,1599.8 1094.8,1594.0 1120.9,1588.1 1147.0,1582.3 1173.1,1576.5 1199.2,1570.7 1225.4,1565.0 1251.6,1559.4 1277.8,1553.7 1304.1,1548.1 1330.3,1542.6 1356.6,1537.1 1382.9,1531.6 1409.3,1526.2 1435.6,1520.8 1462.0,1515.5 1488.3,1510.3 1514.7,1505.0 1541.1,1499.9 1567.5,1494.7 1593.9,1489.7 1620.3,1484.6 1646.7,1479.6 1673.1,1474.7 1699.5,1469.8 1725.9,1465.0 1752.3,1460.2 1778.7,1455.5 1805.0,1450.8 1831.4,1446.1 1857.7,1441.5 1884.1,1436.9 1910.4,1432.4 1936.7,1428.0 1963.0,1423.5 1989.3,1419.1 2015.5,1414.8  Z" style="stroke-width: 0.5;  stroke: rgb(0,0,0); fill: rgb(179,177,178);" />
<path d="M 1703.867,1981.087 A 522.500,522.500 0.00 0,1 1703.8,1981.1 L 1703.8,1981.1 1695.7,1962.5 1687.5,1944.0 1679.0,1925.9 1670.4,1908.3 1661.6,1891.2 1652.8,1874.9 1643.9,1859.4 1634.9,1844.8 1625.9,1831.2 1617.0,1818.6 1608.0,1807.2 1599.2,1797.1 1590.3,1788.2 1581.6,1780.6 1573.0,1774.4 1564.5,1769.6 1556.2,1766.3 1548.1,1764.4 1540.1,1764.0 1532.3,1765.1 1524.7,1767.6 1517.4,1771.6 1510.3,1777.1 1503.4,1784.0 1496.8,1792.2 1490.4,1801.9 1484.3,1812.8 1478.5,1825.0 1472.9,1838.3 1467.6,1852.8 1462.6,1868.4 1457.9,1884.8 1453.5,1902.2 1449.4,1920.3 1445.5,1939.0 1442.0,1958.3 1438.7,1978.1 1435.7,1998.0 1432.9,2018.2  A 522.500,522.500 0.00 0,1 1355.5,2002.1 L 1355.5,2002.1 1361.4,1982.5 1367.5,1963.0 1374.0,1943.9 1380.7,1925.2 1387.8,1907.0 1395.1,1889.5 1402.7,1872.8 1410.6,1856.9 1418.7,1842.0 1427.0,1828.1 1435.6,1815.4 1444.4,1803.8 1453.4,1793.5 1462.5,1784.4 1471.9,1776.7 1481.4,1770.4 1491.0,1765.4 1500.8,1761.9 1510.7,1759.9 1520.7,1759.3 1530.7,1760.1 1540.9,1762.4 1551.0,1766.2 1561.2,1771.3 1571.4,1777.8 1581.6,1785.7 1591.8,1794.9 1601.9,1805.3 1612.0,1817.0 1621.9,1829.7 1631.8,1843.5 1641.5,1858.3 1651.0,1874.0 1660.4,1890.5 1669.6,1907.7 1678.6,1925.5 1687.3,1943.7 1695.7,1962.3 1703.9,1981.1  Z" style="stroke-width: 0.5;  stroke: rgb(0,0,0); fill: rgb(179,177,178);" />
<path d="M 1708.557,1020.928 A 522.500,522.500 0.00 0,1 1772.5,1054.2 L 1772.5,1054.2 1760.7,1072.8 1748.5,1091.3 1735.7,1109.6 1722.3,1127.4 1708.5,1144.9 1694.1,1161.8 1679.3,1178.1 1664.0,1193.8 1648.2,1208.7 1631.9,1222.9 1615.2,1236.3 1598.1,1248.8 1580.6,1260.3 1562.7,1271.0 1544.4,1280.6 1525.8,1289.2 1506.8,1296.8 1487.6,1303.4 1468.1,1308.8 1448.3,1313.2 1428.3,1316.5 1408.1,1318.7 1387.7,1319.8 1367.2,1319.8 1346.6,1318.8 1325.9,1316.7 1305.1,1313.6 1284.3,1309.5 1263.5,1304.4 1242.8,1298.4 1222.2,1291.5 1201.7,1283.7 1181.3,1275.2 1161.2,1265.9 1141.3,1256.0 1121.7,1245.4 1102.4,1234.3 1083.4,1222.7 1064.9,1210.7  A 522.500,522.500 0.00 0,1 1108.8,1153.6 L 1108.8,1153.6 1125.0,1167.6 1141.7,1181.3 1158.6,1194.5 1175.9,1207.2 1193.4,1219.2 1211.1,1230.5 1229.1,1241.0 1247.1,1250.7 1265.3,1259.5 1283.5,1267.3 1301.7,1274.1 1319.9,1279.8 1338.0,1284.4 1356.1,1287.9 1374.0,1290.2 1391.8,1291.3 1409.5,1291.2 1426.9,1289.9 1444.1,1287.4 1461.0,1283.6 1477.7,1278.7 1494.0,1272.5 1510.0,1265.1 1525.7,1256.6 1541.0,1247.0 1555.9,1236.2 1570.4,1224.3 1584.5,1211.5 1598.2,1197.7 1611.4,1182.9 1624.1,1167.3 1636.4,1150.9 1648.2,1133.8 1659.5,1116.1 1670.3,1097.8 1680.7,1079.0 1690.5,1059.9 1699.8,1040.5 1708.6,1020.9  Z" style="stroke-width: 0.5;  stroke: rgb(0,0,0); fill: rgb(179,177,178);" />
<path d="M 1951.340,1763.246 A 522.500,522.500 0.00 0,1 1915.3,1817.1 L 1915.3,1817.1 1897.5,1803.9 1879.3,1791.1 1860.8,1778.7 1841.8,1766.8 1822.5,1755.5 1802.9,1744.8 1783.1,1734.9 1763.0,1725.8 1742.8,1717.5 1722.4,1710.0 1701.9,1703.5 1681.2,1697.9 1660.5,1693.3 1639.8,1689.7 1619.1,1687.2 1598.4,1685.7 1577.8,1685.3 1557.2,1686.0 1536.8,1687.8 1516.5,1690.6 1496.4,1694.6 1476.5,1699.6 1456.8,1705.7 1437.3,1712.8 1418.1,1721.0 1399.2,1730.2 1380.5,1740.3 1362.3,1751.3 1344.3,1763.3 1326.8,1776.1 1309.6,1789.7 1292.9,1804.0 1276.6,1819.1 1260.7,1834.7 1245.3,1850.9 1230.3,1867.5 1215.9,1884.6 1202.0,1902.0 1188.6,1919.6  A 522.500,522.500 0.00 0,1 1139.0,1877.8 L 1139.0,1877.8 1154.9,1861.5 1171.4,1845.5 1188.3,1829.7 1205.7,1814.4 1223.5,1799.5 1241.9,1785.1 1260.6,1771.3 1279.8,1758.1 1299.3,1745.6 1319.2,1733.7 1339.5,1722.6 1360.1,1712.3 1381.0,1702.8 1402.2,1694.1 1423.7,1686.4 1445.4,1679.5 1467.3,1673.5 1489.4,1668.5 1511.7,1664.3 1534.2,1661.2 1556.7,1659.0 1579.4,1657.7 1602.1,1657.4 1624.9,1658.0 1647.7,1659.5 1670.4,1662.0 1693.1,1665.3 1715.8,1669.6 1738.3,1674.6 1760.8,1680.5 1783.0,1687.2 1805.1,1694.6 1826.9,1702.7 1848.5,1711.4 1869.8,1720.8 1890.7,1730.7 1911.3,1741.1 1931.6,1752.0 1951.3,1763.2  Z" style="stroke-width: 0.5;  stroke: rgb(0,0,0); fill: rgb(179,177,178);" />
<path d="M 2017.403,1572.804 A 522.500,522.500 0.00 0,1 2005.0,1634.1 L 2005.0,1634.1 1981.8,1628.2 1958.3,1622.6 1934.4,1617.4 1910.4,1612.7 1886.0,1608.4 1861.5,1604.7 1836.8,1601.4 1811.9,1598.7 1786.9,1596.6 1761.8,1595.0 1736.6,1594.1 1711.4,1593.8 1686.1,1594.2 1660.8,1595.2 1635.6,1596.8 1610.3,1599.1 1585.2,1602.1 1560.1,1605.8 1535.1,1610.1 1510.3,1615.1 1485.5,1620.8 1461.0,1627.1 1436.6,1634.1 1412.5,1641.7 1388.5,1650.0 1364.8,1658.9 1341.4,1668.3 1318.3,1678.4 1295.4,1689.0 1272.8,1700.1 1250.6,1711.8 1228.7,1723.9 1207.2,1736.5 1186.0,1749.4 1165.3,1762.8 1144.9,1776.5 1124.9,1790.5 1105.4,1804.7 1086.3,1819.2  A 522.500,522.500 0.00 0,1 1051.1,1767.4 L 1051.1,1767.4 1072.4,1754.9 1094.1,1742.6 1116.0,1730.6 1138.3,1718.7 1161.0,1707.2 1183.9,1695.9 1207.1,1685.0 1230.6,1674.4 1254.4,1664.2 1278.4,1654.4 1302.7,1645.0 1327.2,1636.0 1351.9,1627.4 1376.8,1619.3 1401.9,1611.7 1427.2,1604.5 1452.6,1597.8 1478.2,1591.6 1503.9,1585.9 1529.7,1580.7 1555.6,1576.0 1581.6,1571.9 1607.6,1568.2 1633.7,1565.0 1659.8,1562.3 1685.9,1560.2 1712.0,1558.5 1738.1,1557.3 1764.1,1556.6 1790.0,1556.3 1815.9,1556.5 1841.7,1557.2 1867.3,1558.3 1892.8,1559.8 1918.1,1561.7 1943.3,1563.9 1968.2,1566.6 1992.9,1569.5 2017.4,1572.8  Z" style="stroke-width: 0.5;  stroke: rgb(0,0,0); fill: rgb(179,177,178);" />
<path d="M 1996.199,1663.686 A 522.500,522.500 0.00 0,1 1979.7,1707.2 L 1979.7,1707.2 1958.4,1698.2 1936.7,1689.7 1914.6,1681.6 1892.3,1674.0 1869.7,1667.0 1846.8,1660.6 1823.7,1654.8 1800.4,1649.7 1777.0,1645.2 1753.4,1641.6 1729.8,1638.6 1706.1,1636.5 1682.4,1635.2 1658.7,1634.7 1635.0,1635.0 1611.4,1636.2 1587.9,1638.2 1564.4,1641.2 1541.2,1644.9 1518.0,1649.6 1495.1,1655.1 1472.4,1661.5 1449.9,1668.7 1427.6,1676.7 1405.6,1685.5 1384.0,1695.1 1362.6,1705.5 1341.6,1716.6 1320.9,1728.5 1300.6,1741.0 1280.7,1754.1 1261.2,1767.8 1242.2,1782.1 1223.6,1796.9 1205.4,1812.1 1187.7,1827.7 1170.5,1843.7 1153.8,1859.9 1137.6,1876.4  A 522.500,522.500 0.00 0,1 1105.6,1842.7 L 1105.6,1842.7 1123.5,1827.4 1142.0,1812.3 1160.9,1797.4 1180.2,1782.9 1200.0,1768.8 1220.2,1755.1 1240.8,1741.8 1261.8,1729.0 1283.1,1716.8 1304.9,1705.1 1326.9,1693.9 1349.3,1683.4 1372.0,1673.6 1394.9,1664.4 1418.2,1655.9 1441.6,1648.1 1465.3,1641.0 1489.2,1634.6 1513.3,1629.0 1537.6,1624.2 1561.9,1620.0 1586.5,1616.7 1611.0,1614.0 1635.7,1612.2 1660.4,1611.1 1685.2,1610.7 1709.9,1611.0 1734.6,1612.0 1759.2,1613.8 1783.8,1616.2 1808.2,1619.2 1832.5,1622.9 1856.6,1627.2 1880.6,1632.0 1904.3,1637.4 1927.7,1643.3 1950.9,1649.7 1973.7,1656.5 1996.2,1663.7  Z" style="stroke-width: 0.5;  stroke: rgb(0,0,0); fill: rgb(179,177,178);" />
<path d="M 1895.621,1158.693 A 522.500,522.500 0.00 0,1 1923.5,1194.0 L 1923.5,1194.0 1903.8,1208.0 1883.7,1221.8 1863.2,1235.3 1842.3,1248.6 1821.0,1261.5 1799.3,1274.1 1777.3,1286.3 1754.9,1298.0 1732.3,1309.4 1709.3,1320.2 1686.0,1330.6 1662.4,1340.5 1638.6,1349.8 1614.6,1358.6 1590.3,1366.7 1565.8,1374.4 1541.1,1381.4 1516.2,1387.8 1491.2,1393.6 1466.0,1398.8 1440.7,1403.4 1415.4,1407.3 1389.9,1410.6 1364.4,1413.3 1338.8,1415.4 1313.3,1416.8 1287.7,1417.7 1262.2,1418.0 1236.7,1417.6 1211.3,1416.7 1186.0,1415.3 1160.8,1413.3 1135.8,1410.8 1110.9,1407.8 1086.2,1404.4 1061.8,1400.5 1037.6,1396.2 1013.6,1391.4 990.0,1386.4  A 522.500,522.500 0.00 0,1 1001.7,1342.9 L 1001.7,1342.9 1024.3,1349.8 1047.3,1356.3 1070.6,1362.4 1094.1,1368.0 1117.9,1373.2 1142.0,1377.7 1166.2,1381.8 1190.6,1385.2 1215.2,1388.0 1239.8,1390.2 1264.5,1391.7 1289.3,1392.5 1314.1,1392.6 1339.0,1392.0 1363.7,1390.7 1388.5,1388.6 1413.2,1385.8 1437.7,1382.3 1462.2,1378.0 1486.5,1373.0 1510.7,1367.3 1534.6,1360.8 1558.4,1353.6 1581.9,1345.7 1605.2,1337.1 1628.2,1327.9 1651.0,1317.9 1673.4,1307.4 1695.6,1296.2 1717.3,1284.5 1738.8,1272.2 1759.8,1259.4 1780.5,1246.2 1800.8,1232.4 1820.6,1218.3 1840.1,1203.8 1859.0,1189.0 1877.6,1174.0 1895.6,1158.7  Z" style="stroke-width: 0.5;  stroke: rgb(0,0,0); fill: rgb(179,177,178);" />
<path d="M 1565.388,981.608 A 522.500,522.500 0.00 0,1 1603.2,987.8 L 1603.2,987.8 1598.9,1008.0 1594.2,1028.1 1589.1,1048.0 1583.6,1067.4 1577.7,1086.4 1571.4,1104.8 1564.6,1122.5 1557.5,1139.4 1549.9,1155.4 1541.9,1170.4 1533.4,1184.4 1524.6,1197.3 1515.3,1209.1 1505.7,1219.6 1495.6,1228.9 1485.2,1236.9 1474.5,1243.6 1463.4,1248.9 1451.9,1252.9 1440.2,1255.5 1428.1,1256.7 1415.8,1256.5 1403.2,1254.9 1390.4,1252.0 1377.4,1247.8 1364.2,1242.3 1350.9,1235.5 1337.5,1227.4 1323.9,1218.2 1310.4,1207.9 1296.8,1196.6 1283.2,1184.3 1269.6,1171.0 1256.2,1157.0 1242.9,1142.3 1229.7,1126.9 1216.8,1111.0 1204.1,1094.7 1191.8,1078.1  A 522.500,522.500 0.00 0,1 1223.5,1056.7 L 1223.5,1056.7 1234.5,1074.0 1245.7,1091.0 1257.2,1107.7 1268.8,1123.8 1280.6,1139.3 1292.4,1154.2 1304.3,1168.2 1316.2,1181.3 1328.1,1193.4 1340.0,1204.4 1351.7,1214.4 1363.4,1223.1 1374.9,1230.6 1386.2,1236.8 1397.3,1241.6 1408.2,1245.1 1418.9,1247.2 1429.3,1247.9 1439.4,1247.2 1449.2,1245.0 1458.6,1241.5 1467.8,1236.5 1476.6,1230.1 1485.0,1222.4 1493.1,1213.3 1500.8,1202.9 1508.1,1191.3 1515.0,1178.5 1521.5,1164.6 1527.6,1149.6 1533.4,1133.6 1538.7,1116.7 1543.6,1099.0 1548.2,1080.6 1552.4,1061.6 1556.2,1042.0 1559.6,1022.1 1562.7,1001.9 1565.4,981.6  Z" style="stroke-width: 0.5;  stroke: rgb(0,0,0); fill: rgb(179,177,178);" />
<path d="M 1743.254,1962.422 A 522.500,522.500 0.00 0,1 1714.0,1976.7 L 1714.0,1976.7 1705.4,1958.0 1696.5,1939.6 1687.4,1921.5 1678.0,1903.9 1668.4,1886.9 1658.6,1870.6 1648.6,1855.1 1638.5,1840.5 1628.2,1826.8 1617.9,1814.2 1607.4,1802.8 1596.9,1792.5 1586.3,1783.5 1575.8,1775.7 1565.2,1769.4 1554.6,1764.4 1544.1,1760.8 1533.7,1758.6 1523.3,1757.9 1513.0,1758.6 1502.8,1760.8 1492.7,1764.4 1482.8,1769.4 1473.1,1775.8 1463.5,1783.6 1454.1,1792.7 1444.9,1803.1 1435.9,1814.8 1427.2,1827.6 1418.7,1841.5 1410.4,1856.5 1402.4,1872.4 1394.7,1889.1 1387.3,1906.7 1380.1,1924.8 1373.3,1943.6 1366.8,1962.8 1360.6,1982.2 1354.7,2001.9  A 522.500,522.500 0.00 0,1 1323.7,1991.9 L 1323.7,1991.9 1330.9,1972.5 1338.4,1953.2 1346.3,1934.3 1354.6,1915.9 1363.2,1898.0 1372.1,1880.7 1381.3,1864.2 1390.9,1848.5 1400.7,1833.8 1410.8,1820.1 1421.2,1807.4 1431.8,1796.0 1442.6,1785.7 1453.7,1776.6 1464.9,1768.9 1476.4,1762.5 1488.0,1757.5 1499.7,1753.8 1511.6,1751.6 1523.6,1750.7 1535.7,1751.3 1547.8,1753.3 1560.0,1756.6 1572.3,1761.4 1584.5,1767.5 1596.7,1774.9 1608.9,1783.5 1621.0,1793.4 1633.0,1804.5 1645.0,1816.7 1656.7,1829.9 1668.4,1844.0 1679.8,1859.1 1691.1,1875.0 1702.1,1891.5 1712.8,1908.6 1723.3,1926.2 1733.5,1944.2 1743.3,1962.4  Z" style="stroke-width: 0.5;  stroke: rgb(0,0,0); fill: rgb(179,177,178);" />
<path d="M 1507.290,977.551 A 522.500,522.500 0.00 0,1 1537.5,978.9 L 1537.5,978.9 1535.9,999.1 1534.0,1019.3 1531.8,1039.2 1529.3,1058.8 1526.4,1077.8 1523.2,1096.1 1519.6,1113.8 1515.7,1130.6 1511.4,1146.5 1506.8,1161.4 1501.7,1175.2 1496.3,1187.8 1490.5,1199.2 1484.4,1209.4 1477.9,1218.2 1471.0,1225.7 1463.8,1231.7 1456.2,1236.4 1448.4,1239.6 1440.1,1241.4 1431.6,1241.7 1422.8,1240.5 1413.8,1238.0 1404.4,1234.0 1394.9,1228.6 1385.1,1221.9 1375.2,1213.9 1365.0,1204.5 1354.8,1194.0 1344.4,1182.4 1334.0,1169.7 1323.5,1155.9 1313.0,1141.3 1302.5,1125.9 1292.1,1109.7 1281.8,1093.0 1271.6,1075.7 1261.5,1058.1 1251.7,1040.2  A 522.500,522.500 0.00 0,1 1278.8,1026.6 L 1278.8,1026.6 1287.5,1044.9 1296.3,1063.0 1305.3,1080.8 1314.4,1098.0 1323.5,1114.7 1332.7,1130.7 1341.8,1145.8 1350.9,1160.0 1359.9,1173.3 1368.8,1185.5 1377.6,1196.5 1386.2,1206.3 1394.6,1214.8 1402.8,1222.0 1410.8,1227.8 1418.5,1232.2 1426.0,1235.2 1433.1,1236.7 1440.0,1236.8 1446.6,1235.4 1452.8,1232.5 1458.8,1228.2 1464.3,1222.4 1469.6,1215.2 1474.5,1206.6 1479.0,1196.7 1483.2,1185.4 1487.0,1173.0 1490.5,1159.3 1493.6,1144.6 1496.3,1128.8 1498.8,1112.1 1500.9,1094.5 1502.7,1076.2 1504.2,1057.3 1505.3,1037.8 1506.2,1017.9 1506.9,997.8 1507.3,977.6  Z" style="stroke-width: 0.5;  stroke: rgb(0,0,0); fill: rgb(179,177,178);" />
<path d="M 1822.872,1910.804 A 522.500,522.500 0.00 0,1 1798.7,1928.7 L 1798.7,1928.7 1786.5,1911.6 1773.9,1894.7 1760.9,1878.2 1747.5,1862.3 1733.9,1846.9 1720.0,1832.2 1705.8,1818.3 1691.4,1805.2 1676.9,1793.1 1662.1,1782.0 1647.3,1771.9 1632.3,1763.0 1617.3,1755.2 1602.2,1748.6 1587.1,1743.3 1572.0,1739.3 1556.9,1736.5 1541.8,1735.1 1526.9,1735.0 1512.0,1736.2 1497.3,1738.8 1482.7,1742.6 1468.3,1747.8 1454.0,1754.3 1440.0,1762.0 1426.2,1771.0 1412.6,1781.1 1399.3,1792.4 1386.3,1804.8 1373.6,1818.1 1361.2,1832.5 1349.2,1847.7 1337.5,1863.8 1326.2,1880.6 1315.3,1898.0 1304.7,1915.9 1294.6,1934.3 1284.9,1953.0 1275.7,1971.9  A 522.500,522.500 0.00 0,1 1248.9,1958.2 L 1248.9,1958.2 1259.3,1939.7 1270.2,1921.4 1281.6,1903.4 1293.4,1885.9 1305.6,1868.8 1318.2,1852.5 1331.2,1836.8 1344.6,1821.9 1358.3,1807.9 1372.4,1794.8 1386.8,1782.7 1401.4,1771.6 1416.4,1761.7 1431.6,1752.9 1447.0,1745.3 1462.6,1738.9 1478.5,1733.7 1494.5,1729.8 1510.6,1727.2 1526.8,1725.8 1543.2,1725.8 1559.6,1727.0 1576.1,1729.5 1592.5,1733.2 1609.0,1738.2 1625.4,1744.4 1641.8,1751.8 1658.1,1760.3 1674.3,1769.8 1690.3,1780.4 1706.1,1792.0 1721.8,1804.5 1737.2,1817.9 1752.3,1832.0 1767.1,1846.7 1781.6,1862.1 1795.8,1878.0 1809.5,1894.2 1822.9,1910.8  Z" style="stroke-width: 0.5;  stroke: rgb(0,0,0); fill: rgb(179,177,178);" />
<path d="M 2004.962,1634.237 A 522.500,522.500 0.00 0,1 1996.8,1662.0 L 1996.8,1662.0 1974.2,1654.9 1951.4,1648.1 1928.2,1641.8 1904.7,1636.0 1880.9,1630.7 1857.0,1625.9 1832.8,1621.7 1808.5,1618.1 1784.0,1615.1 1759.5,1612.7 1734.8,1611.1 1710.1,1610.1 1685.3,1609.8 1660.6,1610.2 1635.8,1611.4 1611.1,1613.3 1586.5,1616.0 1562.0,1619.4 1537.6,1623.5 1513.3,1628.4 1489.2,1634.1 1465.3,1640.5 1441.6,1647.6 1418.1,1655.4 1394.8,1663.9 1371.8,1673.1 1349.1,1683.0 1326.7,1693.5 1304.7,1704.6 1282.9,1716.3 1261.5,1728.6 1240.5,1741.4 1219.9,1754.6 1199.7,1768.3 1179.9,1782.5 1160.5,1796.9 1141.6,1811.8 1123.1,1826.8 1105.1,1842.1  A 522.500,522.500 0.00 0,1 1086.8,1819.7 L 1086.8,1819.7 1105.8,1805.3 1125.3,1791.0 1145.3,1777.0 1165.6,1763.3 1186.4,1749.9 1207.5,1736.9 1229.0,1724.3 1250.9,1712.2 1273.1,1700.5 1295.6,1689.3 1318.5,1678.7 1341.6,1668.6 1365.0,1659.2 1388.7,1650.3 1412.6,1642.0 1436.8,1634.3 1461.1,1627.3 1485.7,1621.0 1510.4,1615.3 1535.2,1610.3 1560.2,1605.9 1585.3,1602.2 1610.4,1599.2 1635.6,1596.9 1660.9,1595.3 1686.2,1594.3 1711.4,1593.9 1736.7,1594.2 1761.9,1595.1 1787.0,1596.7 1811.9,1598.8 1836.8,1601.5 1861.5,1604.7 1886.0,1608.5 1910.4,1612.8 1934.4,1617.5 1958.2,1622.7 1981.8,1628.3 2005.0,1634.2  Z" style="stroke-width: 0.5;  stroke: rgb(0,0,0); fill: rgb(179,177,178);" />
<path d="M 1773.552,1945.169 A 522.500,522.500 0.00 0,1 1750.7,1958.4 L 1750.7,1958.4 1740.6,1940.4 1730.1,1922.5 1719.3,1905.1 1708.3,1888.1 1696.9,1871.7 1685.4,1856.0 1673.6,1841.1 1661.7,1827.1 1649.6,1814.0 1637.3,1802.0 1625.0,1791.1 1612.6,1781.4 1600.1,1772.8 1587.6,1765.6 1575.1,1759.6 1562.7,1755.0 1550.2,1751.8 1537.8,1749.9 1525.5,1749.4 1513.3,1750.4 1501.2,1752.7 1489.2,1756.5 1477.4,1761.6 1465.8,1768.1 1454.4,1775.9 1443.1,1785.0 1432.1,1795.4 1421.4,1806.9 1410.9,1819.6 1400.7,1833.3 1390.7,1848.1 1381.1,1863.8 1371.7,1880.3 1362.7,1897.6 1354.1,1915.6 1345.8,1934.1 1337.8,1953.0 1330.2,1972.2 1323.0,1991.6  A 522.500,522.500 0.00 0,1 1298.4,1982.0 L 1298.4,1982.0 1306.6,1962.9 1315.3,1943.9 1324.4,1925.3 1333.8,1907.0 1343.6,1889.4 1353.8,1872.3 1364.4,1856.0 1375.2,1840.6 1386.4,1826.0 1397.9,1812.5 1409.7,1800.0 1421.7,1788.6 1434.0,1778.3 1446.6,1769.3 1459.3,1761.6 1472.3,1755.1 1485.4,1750.0 1498.7,1746.2 1512.1,1743.8 1525.6,1742.7 1539.3,1743.1 1553.0,1744.8 1566.7,1747.8 1580.5,1752.2 1594.3,1757.9 1608.1,1764.8 1621.8,1773.0 1635.5,1782.4 1649.1,1793.0 1662.5,1804.6 1675.8,1817.3 1688.9,1830.9 1701.8,1845.3 1714.5,1860.6 1727.0,1876.5 1739.1,1893.1 1751.0,1910.1 1762.4,1927.5 1773.6,1945.2  Z" style="stroke-width: 0.5;  stroke: rgb(0,0,0); fill: rgb(179,177,178);" />
<path d="M 1843.076,1894.088 A 522.500,522.500 0.00 0,1 1824.7,1909.3 L 1824.7,1909.3 1811.3,1892.8 1797.5,1876.6 1783.2,1860.8 1768.6,1845.5 1753.7,1830.7 1738.5,1816.7 1723.0,1803.4 1707.2,1791.0 1691.3,1779.4 1675.2,1768.8 1658.9,1759.3 1642.5,1750.9 1626.1,1743.5 1609.5,1737.4 1593.0,1732.4 1576.4,1728.7 1559.8,1726.2 1543.3,1725.0 1526.9,1725.1 1510.5,1726.4 1494.3,1729.1 1478.2,1733.0 1462.2,1738.1 1446.5,1744.5 1431.0,1752.2 1415.7,1760.9 1400.6,1770.9 1385.9,1781.9 1371.4,1794.0 1357.2,1807.0 1343.4,1821.0 1329.9,1835.9 1316.8,1851.6 1304.1,1867.9 1291.8,1884.9 1279.9,1902.4 1268.5,1920.4 1257.5,1938.6 1246.9,1957.1  A 522.500,522.500 0.00 0,1 1226.3,1945.1 L 1226.3,1945.1 1237.8,1927.0 1249.7,1909.0 1262.2,1891.4 1275.0,1874.3 1288.3,1857.7 1302.0,1841.7 1316.2,1826.3 1330.7,1811.8 1345.5,1798.1 1360.7,1785.3 1376.2,1773.5 1392.1,1762.6 1408.2,1752.9 1424.5,1744.2 1441.1,1736.7 1457.9,1730.4 1474.9,1725.3 1492.0,1721.4 1509.3,1718.7 1526.7,1717.3 1544.2,1717.1 1561.8,1718.1 1579.4,1720.4 1597.0,1723.8 1614.6,1728.5 1632.1,1734.4 1649.6,1741.3 1667.0,1749.4 1684.3,1758.5 1701.4,1768.7 1718.3,1779.7 1735.0,1791.7 1751.4,1804.5 1767.6,1818.0 1783.4,1832.2 1798.9,1847.0 1814.1,1862.4 1828.8,1878.1 1843.1,1894.1  Z" style="stroke-width: 0.5;  stroke: rgb(0,0,0); fill: rgb(179,177,178);" />
<path d="M 1902.160,1833.577 A 522.500,522.500 0.00 0,1 1888.4,1849.5 L 1888.4,1849.5 1872.1,1835.1 1855.3,1821.1 1838.2,1807.6 1820.7,1794.6 1802.8,1782.2 1784.7,1770.4 1766.3,1759.4 1747.8,1749.2 1729.0,1739.9 1710.1,1731.5 1691.1,1724.1 1672.0,1717.7 1652.9,1712.4 1633.7,1708.1 1614.6,1705.0 1595.5,1703.0 1576.5,1702.2 1557.6,1702.5 1538.8,1704.0 1520.2,1706.7 1501.8,1710.5 1483.5,1715.5 1465.5,1721.7 1447.8,1729.0 1430.3,1737.4 1413.1,1746.9 1396.3,1757.4 1379.8,1768.9 1363.6,1781.3 1347.8,1794.7 1332.5,1808.9 1317.5,1823.9 1303.0,1839.6 1288.9,1856.0 1275.3,1873.0 1262.2,1890.4 1249.5,1908.2 1237.4,1926.4 1225.7,1944.7  A 522.500,522.500 0.00 0,1 1208.1,1933.3 L 1208.1,1933.3 1220.5,1915.3 1233.5,1897.5 1247.0,1880.0 1261.0,1862.9 1275.5,1846.3 1290.4,1830.3 1305.8,1814.8 1321.6,1800.1 1337.9,1786.2 1354.5,1773.1 1371.5,1760.8 1388.9,1749.5 1406.6,1739.1 1424.6,1729.8 1442.9,1721.4 1461.5,1714.2 1480.3,1708.0 1499.4,1703.0 1518.7,1699.1 1538.1,1696.3 1557.7,1694.6 1577.4,1694.1 1597.3,1694.7 1617.1,1696.4 1637.1,1699.2 1657.0,1703.1 1676.9,1708.1 1696.8,1714.0 1716.5,1721.0 1736.2,1728.9 1755.7,1737.7 1775.0,1747.4 1794.1,1757.9 1813.0,1769.1 1831.5,1780.9 1849.8,1793.4 1867.7,1806.4 1885.1,1819.8 1902.2,1833.6  Z" style="stroke-width: 0.5;  stroke: rgb(0,0,0); fill: rgb(179,177,178);" />
<path d="M 1806.322,1076.712 A 522.500,522.500 0.00 0,1 1822.7,1089.1 L 1822.7,1089.1 1808.5,1106.7 1793.8,1124.1 1778.5,1141.3 1762.8,1158.1 1746.5,1174.5 1729.7,1190.5 1712.5,1205.9 1694.8,1220.7 1676.7,1234.8 1658.1,1248.3 1639.1,1261.0 1619.7,1273.0 1600.0,1284.1 1579.9,1294.4 1559.4,1303.9 1538.7,1312.4 1517.6,1320.0 1496.3,1326.7 1474.7,1332.4 1452.9,1337.2 1430.9,1341.0 1408.7,1343.9 1386.4,1345.8 1364.0,1346.7 1341.4,1346.7 1318.9,1345.8 1296.3,1343.9 1273.7,1341.1 1251.1,1337.5 1228.6,1333.1 1206.2,1327.8 1183.9,1321.7 1161.8,1315.0 1140.0,1307.5 1118.3,1299.4 1097.0,1290.7 1075.9,1281.5 1055.3,1271.8 1035.0,1261.7  A 522.500,522.500 0.00 0,1 1044.7,1243.7 L 1044.7,1243.7 1064.4,1254.5 1084.5,1264.8 1104.9,1274.7 1125.7,1284.1 1146.8,1292.9 1168.1,1301.0 1189.6,1308.4 1211.3,1315.0 1233.1,1320.9 1255.0,1325.9 1277.0,1330.0 1299.0,1333.2 1321.1,1335.5 1343.0,1336.9 1365.0,1337.3 1386.8,1336.6 1408.5,1335.0 1430.0,1332.4 1451.4,1328.8 1472.5,1324.1 1493.4,1318.5 1514.1,1311.9 1534.5,1304.3 1554.6,1295.7 1574.3,1286.2 1593.7,1275.8 1612.8,1264.5 1631.4,1252.3 1649.6,1239.4 1667.5,1225.6 1684.8,1211.2 1701.8,1196.1 1718.2,1180.4 1734.2,1164.1 1749.6,1147.3 1764.6,1130.1 1779.0,1112.6 1793.0,1094.7 1806.3,1076.7  Z" style="stroke-width: 0.5;  stroke: rgb(0,0,0); fill: rgb(179,177,178);" />
<path d="M 1914.775,1817.755 A 522.500,522.500 0.00 0,1 1902.3,1833.4 L 1902.3,1833.4 1885.2,1819.7 1867.7,1806.2 1849.8,1793.2 1831.6,1780.8 1813.0,1768.9 1794.1,1757.7 1775.0,1747.2 1755.6,1737.6 1736.1,1728.7 1716.4,1720.8 1696.6,1713.8 1676.7,1707.8 1656.8,1702.8 1636.8,1698.9 1616.8,1696.1 1596.9,1694.3 1577.0,1693.7 1557.2,1694.2 1537.6,1695.8 1518.1,1698.5 1498.7,1702.4 1479.6,1707.4 1460.7,1713.5 1442.0,1720.7 1423.6,1729.0 1405.5,1738.3 1387.7,1748.6 1370.2,1759.9 1353.1,1772.1 1336.4,1785.1 1320.1,1799.0 1304.2,1813.7 1288.7,1829.0 1273.6,1845.0 1259.1,1861.6 1245.0,1878.6 1231.4,1896.0 1218.3,1913.8 1205.7,1931.7  A 522.500,522.500 0.00 0,1 1189.3,1920.1 L 1189.3,1920.1 1202.7,1902.5 1216.6,1885.1 1231.0,1868.0 1245.9,1851.4 1261.3,1835.2 1277.1,1819.5 1293.4,1804.5 1310.1,1790.1 1327.2,1776.5 1344.7,1763.7 1362.6,1751.7 1380.9,1740.7 1399.4,1730.5 1418.3,1721.3 1437.5,1713.2 1456.9,1706.0 1476.6,1699.9 1496.5,1694.9 1516.6,1690.9 1536.9,1688.1 1557.3,1686.3 1577.8,1685.6 1598.4,1686.1 1619.0,1687.5 1639.7,1690.1 1660.4,1693.7 1681.1,1698.3 1701.7,1703.9 1722.2,1710.4 1742.6,1717.9 1762.8,1726.2 1782.8,1735.4 1802.6,1745.3 1822.2,1756.0 1841.4,1767.3 1860.3,1779.2 1878.9,1791.6 1897.1,1804.5 1914.8,1817.8  Z" style="stroke-width: 0.5;  stroke: rgb(0,0,0); fill: rgb(179,177,178);" />
<path d="M 1789.408,1064.972 A 522.500,522.500 0.00 0,1 1805.3,1076.0 L 1805.3,1076.0 1792.0,1094.0 1778.2,1111.9 1763.8,1129.4 1748.9,1146.7 1733.5,1163.4 1717.5,1179.7 1701.1,1195.5 1684.3,1210.6 1666.9,1225.0 1649.2,1238.8 1631.0,1251.7 1612.4,1263.9 1593.4,1275.2 1574.1,1285.6 1554.4,1295.1 1534.3,1303.6 1514.0,1311.2 1493.4,1317.8 1472.5,1323.4 1451.4,1328.0 1430.1,1331.6 1408.6,1334.2 1387.0,1335.8 1365.2,1336.3 1343.4,1335.9 1321.4,1334.5 1299.5,1332.1 1277.5,1328.8 1255.6,1324.6 1233.7,1319.6 1211.9,1313.6 1190.3,1306.9 1168.8,1299.4 1147.6,1291.3 1126.6,1282.4 1105.8,1273.0 1085.5,1263.0 1065.4,1252.6 1045.8,1241.7  A 522.500,522.500 0.00 0,1 1055.7,1225.0 L 1055.7,1225.0 1074.7,1236.5 1094.2,1247.6 1114.0,1258.2 1134.2,1268.2 1154.6,1277.7 1175.3,1286.5 1196.2,1294.5 1217.3,1301.8 1238.5,1308.3 1259.7,1313.8 1281.1,1318.5 1302.5,1322.3 1323.8,1325.0 1345.2,1326.8 1366.4,1327.6 1387.5,1327.3 1408.6,1326.0 1429.4,1323.7 1450.1,1320.3 1470.5,1315.8 1490.7,1310.3 1510.7,1303.8 1530.3,1296.2 1549.7,1287.6 1568.7,1278.1 1587.3,1267.6 1605.6,1256.1 1623.4,1243.8 1640.9,1230.7 1657.9,1216.7 1674.5,1202.1 1690.6,1186.7 1706.3,1170.6 1721.4,1154.0 1736.1,1136.9 1750.2,1119.4 1763.8,1101.5 1776.9,1083.3 1789.4,1065.0  Z" style="stroke-width: 0.5;  stroke: rgb(0,0,0); fill: rgb(179,177,178);" />
<path d="M 2022.400,1510.202 A 522.500,522.500 0.00 0,1 2021.7,1528.7 L 2021.7,1528.7 1996.5,1527.5 1971.1,1526.5 1945.6,1525.7 1919.9,1525.3 1894.0,1525.1 1868.0,1525.2 1841.9,1525.7 1815.7,1526.5 1789.4,1527.6 1763.1,1529.1 1736.7,1531.0 1710.3,1533.2 1683.8,1535.7 1657.4,1538.7 1630.9,1542.0 1604.4,1545.7 1578.0,1549.7 1551.6,1554.2 1525.3,1559.0 1499.1,1564.2 1472.9,1569.8 1446.8,1575.7 1420.9,1582.0 1395.0,1588.7 1369.3,1595.7 1343.7,1603.1 1318.2,1610.8 1293.0,1618.9 1267.9,1627.2 1243.0,1635.9 1218.2,1644.9 1193.7,1654.1 1169.4,1663.6 1145.3,1673.4 1121.5,1683.4 1097.9,1693.6 1074.5,1704.1 1051.5,1714.7 1028.6,1725.5  A 522.500,522.500 0.00 0,1 1020.9,1708.6 L 1020.9,1708.6 1044.3,1698.5 1067.9,1688.6 1091.8,1678.9 1115.8,1669.3 1140.1,1659.9 1164.6,1650.7 1189.3,1641.8 1214.1,1633.1 1239.2,1624.6 1264.4,1616.4 1289.7,1608.4 1315.3,1600.8 1340.9,1593.4 1366.7,1586.3 1392.6,1579.5 1418.6,1573.0 1444.8,1566.8 1471.0,1560.9 1497.3,1555.4 1523.6,1550.2 1550.1,1545.3 1576.5,1540.7 1603.0,1536.5 1629.6,1532.5 1656.1,1528.9 1682.7,1525.7 1709.2,1522.7 1735.7,1520.1 1762.2,1517.8 1788.6,1515.7 1815.0,1514.0 1841.3,1512.6 1867.5,1511.5 1893.7,1510.6 1919.7,1510.1 1945.6,1509.7 1971.3,1509.7 1997.0,1509.8 2022.4,1510.2  Z" style="stroke-width: 0.5;  stroke: rgb(0,0,0); fill: rgb(179,177,178);" />
<path d="M 1971.491,1274.828 A 522.500,522.500 0.00 0,1 1978.7,1290.7 L 1978.7,1290.7 1955.4,1300.8 1931.7,1310.8 1907.9,1320.6 1883.8,1330.2 1859.5,1339.7 1835.1,1348.9 1810.4,1357.9 1785.6,1366.7 1760.5,1375.3 1735.3,1383.6 1710.0,1391.7 1684.5,1399.5 1658.8,1407.0 1633.1,1414.2 1607.2,1421.1 1581.2,1427.8 1555.1,1434.1 1528.9,1440.1 1502.6,1445.8 1476.3,1451.2 1449.9,1456.3 1423.4,1461.0 1396.9,1465.5 1370.4,1469.6 1343.9,1473.4 1317.4,1476.9 1290.8,1480.1 1264.3,1482.9 1237.9,1485.5 1211.4,1487.8 1185.0,1489.7 1158.7,1491.4 1132.5,1492.8 1106.4,1493.9 1080.3,1494.8 1054.4,1495.4 1028.6,1495.7 1003.0,1495.8 977.5,1495.7  A 522.500,522.500 0.00 0,1 978.0,1478.3 L 978.0,1478.3 1003.2,1479.2 1028.6,1479.9 1054.2,1480.3 1080.0,1480.5 1105.9,1480.3 1131.9,1479.8 1158.0,1479.1 1184.2,1478.0 1210.5,1476.6 1236.9,1474.8 1263.3,1472.7 1289.7,1470.3 1316.2,1467.5 1342.6,1464.3 1369.1,1460.7 1395.5,1456.8 1422.0,1452.6 1448.3,1447.9 1474.6,1442.9 1500.9,1437.5 1527.0,1431.8 1553.1,1425.7 1579.1,1419.3 1604.9,1412.4 1630.6,1405.3 1656.2,1397.8 1681.7,1390.0 1706.9,1381.9 1732.0,1373.4 1757.0,1364.7 1781.7,1355.6 1806.2,1346.3 1830.5,1336.8 1854.6,1327.0 1878.5,1316.9 1902.1,1306.7 1925.5,1296.2 1948.6,1285.6 1971.5,1274.8  Z" style="stroke-width: 0.5;  stroke: rgb(0,0,0); fill: rgb(179,177,178);" />
<path d="M 1500.000,977.500 A 522.500,522.500 0.00 0,1 1504.5,977.5 L 1504.5,977.5 1504.3,997.8 1503.7,1017.9 1503.0,1037.7 1501.9,1057.1 1500.6,1076.1 1499.0,1094.3 1497.1,1111.9 1494.8,1128.5 1492.3,1144.3 1489.4,1159.0 1486.1,1172.6 1482.6,1185.0 1478.7,1196.1 1474.4,1206.0 1469.8,1214.5 1464.8,1221.6 1459.6,1227.3 1454.0,1231.5 1448.0,1234.3 1441.8,1235.6 1435.3,1235.4 1428.4,1233.7 1421.3,1230.6 1414.0,1226.1 1406.3,1220.1 1398.5,1212.8 1390.5,1204.1 1382.3,1194.1 1373.9,1183.0 1365.4,1170.6 1356.8,1157.2 1348.1,1142.8 1339.3,1127.5 1330.5,1111.4 1321.8,1094.6 1313.1,1077.2 1304.5,1059.3 1296.0,1041.0 1287.7,1022.6  A 522.500,522.500 0.00 0,1 1293.7,1020.0 L 1293.7,1020.0 1301.7,1038.5 1310.0,1056.8 1318.3,1074.8 1326.8,1092.3 1335.2,1109.3 1343.7,1125.5 1352.2,1140.9 1360.6,1155.4 1368.9,1168.9 1377.1,1181.3 1385.2,1192.6 1393.1,1202.7 1400.9,1211.4 1408.4,1218.9 1415.7,1224.9 1422.8,1229.6 1429.6,1232.8 1436.1,1234.5 1442.3,1234.8 1448.3,1233.5 1453.9,1230.8 1459.2,1226.7 1464.2,1221.0 1468.8,1214.0 1473.1,1205.5 1477.1,1195.7 1480.8,1184.6 1484.1,1172.3 1487.0,1158.7 1489.7,1144.1 1492.0,1128.4 1494.0,1111.7 1495.7,1094.2 1497.1,1076.0 1498.2,1057.1 1499.0,1037.6 1499.6,1017.8 1499.9,997.7 1500.0,977.5  Z" style="stroke-width: 0.5;  stroke: rgb(0,0,0); fill: rgb(179,177,178);" />
<path d="M 1552.532,980.147 A 522.500,522.500 0.00 0,1 1565.5,981.6 L 1565.5,981.6 1562.8,1001.9 1559.7,1022.1 1556.3,1042.0 1552.5,1061.5 1548.3,1080.6 1543.8,1099.0 1538.9,1116.6 1533.6,1133.5 1527.9,1149.5 1521.8,1164.4 1515.3,1178.4 1508.4,1191.1 1501.2,1202.7 1493.5,1213.0 1485.5,1222.1 1477.2,1229.7 1468.4,1236.1 1459.4,1241.0 1450.0,1244.5 1440.3,1246.6 1430.2,1247.3 1419.9,1246.5 1409.4,1244.4 1398.6,1240.8 1387.6,1235.9 1376.4,1229.6 1365.0,1222.1 1353.5,1213.3 1341.8,1203.3 1330.1,1192.1 1318.3,1180.0 1306.5,1166.8 1294.8,1152.7 1283.0,1137.8 1271.4,1122.2 1259.9,1105.9 1248.6,1089.2 1237.5,1072.1 1226.6,1054.7  A 522.500,522.500 0.00 0,1 1237.8,1048.0 L 1237.8,1048.0 1248.2,1065.6 1258.8,1083.0 1269.6,1099.9 1280.6,1116.4 1291.7,1132.3 1302.9,1147.4 1314.1,1161.8 1325.3,1175.2 1336.4,1187.6 1347.6,1199.0 1358.6,1209.2 1369.5,1218.3 1380.2,1226.0 1390.8,1232.5 1401.1,1237.6 1411.2,1241.4 1421.1,1243.7 1430.7,1244.6 1440.1,1244.1 1449.1,1242.2 1457.8,1238.8 1466.2,1234.0 1474.2,1227.8 1481.9,1220.2 1489.2,1211.3 1496.2,1201.0 1502.8,1189.5 1509.0,1176.8 1514.8,1162.9 1520.2,1148.0 1525.3,1132.0 1529.9,1115.2 1534.2,1097.5 1538.2,1079.1 1541.7,1060.1 1544.9,1040.5 1547.8,1020.6 1550.3,1000.5 1552.5,980.1  Z" style="stroke-width: 0.5;  stroke: rgb(0,0,0); fill: rgb(179,177,178);" />
<path d="M 1538.818,978.944 A 522.500,522.500 0.00 0,1 1550.7,980.0 L 1550.7,980.0 1548.6,1000.3 1546.1,1020.4 1543.4,1040.4 1540.2,1059.9 1536.8,1078.9 1532.9,1097.3 1528.7,1115.0 1524.1,1131.8 1519.2,1147.8 1513.8,1162.7 1508.1,1176.5 1502.0,1189.3 1495.6,1200.8 1488.7,1211.0 1481.5,1219.9 1473.9,1227.5 1466.0,1233.7 1457.7,1238.5 1449.1,1241.8 1440.2,1243.7 1431.0,1244.2 1421.5,1243.3 1411.7,1240.9 1401.7,1237.1 1391.4,1231.9 1381.0,1225.4 1370.3,1217.6 1359.5,1208.5 1348.6,1198.3 1337.6,1186.8 1326.6,1174.4 1315.4,1160.9 1304.3,1146.5 1293.3,1131.3 1282.3,1115.4 1271.4,1098.9 1260.7,1081.9 1250.1,1064.5 1239.8,1046.9  A 522.500,522.500 0.00 0,1 1250.3,1041.0 L 1250.3,1041.0 1260.2,1058.9 1270.2,1076.4 1280.5,1093.7 1290.9,1110.4 1301.4,1126.5 1311.9,1141.9 1322.5,1156.5 1333.1,1170.2 1343.6,1182.9 1354.0,1194.5 1364.3,1205.0 1374.5,1214.3 1384.6,1222.3 1394.4,1229.0 1404.0,1234.4 1413.5,1238.3 1422.6,1240.9 1431.5,1242.0 1440.1,1241.6 1448.4,1239.9 1456.3,1236.6 1464.0,1232.0 1471.2,1225.9 1478.2,1218.4 1484.8,1209.6 1491.0,1199.4 1496.8,1188.0 1502.3,1175.3 1507.4,1161.5 1512.2,1146.6 1516.5,1130.7 1520.5,1113.9 1524.1,1096.3 1527.4,1077.9 1530.3,1058.9 1532.9,1039.3 1535.2,1019.4 1537.2,999.2 1538.8,978.9  Z" style="stroke-width: 0.5;  stroke: rgb(0,0,0); fill: rgb(179,177,178);" />
<path d="M 2022.494,1497.455 A 522.500,522.500 0.00 0,1 2022.4,1509.2 L 2022.4,1509.2 1997.0,1508.9 1971.3,1508.8 1945.6,1508.9 1919.7,1509.3 1893.6,1509.9 1867.5,1510.8 1841.3,1511.9 1814.9,1513.4 1788.6,1515.1 1762.1,1517.1 1735.6,1519.5 1709.1,1522.1 1682.6,1525.1 1656.0,1528.4 1629.5,1532.0 1602.9,1535.9 1576.4,1540.2 1549.9,1544.7 1523.5,1549.6 1497.1,1554.8 1470.8,1560.4 1444.6,1566.2 1418.5,1572.4 1392.4,1578.8 1366.5,1585.6 1340.7,1592.7 1315.0,1600.0 1289.5,1607.7 1264.1,1615.6 1238.9,1623.7 1213.8,1632.2 1188.9,1640.9 1164.2,1649.8 1139.7,1658.9 1115.4,1668.2 1091.3,1677.7 1067.4,1687.4 1043.8,1697.3 1020.4,1707.3  A 522.500,522.500 0.00 0,1 1015.8,1696.4 L 1015.8,1696.4 1039.6,1686.9 1063.6,1677.5 1087.7,1668.2 1112.1,1659.1 1136.7,1650.2 1161.4,1641.5 1186.4,1632.9 1211.4,1624.6 1236.7,1616.5 1262.1,1608.6 1287.6,1601.0 1313.3,1593.6 1339.1,1586.5 1365.0,1579.6 1391.0,1572.9 1417.1,1566.6 1443.4,1560.5 1469.6,1554.7 1496.0,1549.2 1522.4,1544.0 1548.9,1539.1 1575.4,1534.4 1602.0,1530.1 1628.5,1526.0 1655.1,1522.2 1681.7,1518.7 1708.3,1515.5 1734.8,1512.6 1761.4,1510.0 1787.8,1507.6 1814.3,1505.5 1840.6,1503.6 1866.9,1502.0 1893.1,1500.7 1919.3,1499.6 1945.3,1498.7 1971.1,1498.1 1996.9,1497.7 2022.5,1497.5  Z" style="stroke-width: 0.5;  stroke: rgb(0,0,0); fill: rgb(179,177,178);" />
<path d="M 1699.627,1017.138 A 522.500,522.500 0.00 0,1 1708.4,1020.9 L 1708.4,1020.9 1699.6,1040.4 1690.3,1059.8 1680.5,1078.9 1670.2,1097.7 1659.4,1116.0 1648.1,1133.7 1636.3,1150.8 1624.1,1167.2 1611.3,1182.8 1598.1,1197.5 1584.5,1211.4 1570.4,1224.2 1555.9,1236.0 1541.0,1246.8 1525.7,1256.5 1510.1,1265.0 1494.1,1272.3 1477.8,1278.5 1461.1,1283.4 1444.2,1287.1 1427.1,1289.6 1409.7,1290.9 1392.1,1291.0 1374.3,1289.8 1356.4,1287.5 1338.3,1284.0 1320.2,1279.4 1302.0,1273.6 1283.8,1266.8 1265.7,1259.0 1247.6,1250.2 1229.5,1240.5 1211.6,1229.9 1193.9,1218.6 1176.4,1206.5 1159.2,1193.8 1142.3,1180.6 1125.7,1166.9 1109.5,1152.8  A 522.500,522.500 0.00 0,1 1115.9,1145.8 L 1115.9,1145.8 1131.8,1160.1 1148.0,1174.0 1164.6,1187.5 1181.5,1200.4 1198.7,1212.7 1216.1,1224.3 1233.6,1235.2 1251.3,1245.1 1269.0,1254.1 1286.8,1262.2 1304.7,1269.2 1322.5,1275.2 1340.2,1280.0 1357.9,1283.7 1375.4,1286.2 1392.8,1287.5 1410.0,1287.6 1427.0,1286.4 1443.8,1284.0 1460.3,1280.4 1476.5,1275.5 1492.4,1269.4 1508.0,1262.1 1523.2,1253.6 1538.0,1244.0 1552.5,1233.2 1566.6,1221.4 1580.2,1208.5 1593.5,1194.6 1606.2,1179.8 1618.5,1164.2 1630.4,1147.7 1641.8,1130.5 1652.7,1112.7 1663.0,1094.3 1672.9,1075.5 1682.3,1056.3 1691.2,1036.8 1699.6,1017.1  Z" style="stroke-width: 0.5;  stroke: rgb(0,0,0); fill: rgb(179,177,178);" />
<path d="M 2013.768,1404.873 A 522.500,522.500 0.00 0,1 2015.4,1414.1 L 2015.4,1414.1 1989.2,1418.5 1962.9,1422.9 1936.6,1427.4 1910.3,1431.9 1884.0,1436.4 1857.7,1441.0 1831.3,1445.7 1805.0,1450.4 1778.6,1455.1 1752.2,1459.9 1725.9,1464.7 1699.5,1469.6 1673.1,1474.5 1646.7,1479.5 1620.3,1484.6 1593.9,1489.6 1567.5,1494.8 1541.1,1500.0 1514.8,1505.2 1488.4,1510.5 1462.0,1515.8 1435.7,1521.2 1409.4,1526.6 1383.0,1532.1 1356.7,1537.6 1330.5,1543.2 1304.2,1548.8 1278.0,1554.4 1251.8,1560.1 1225.6,1565.9 1199.4,1571.6 1173.3,1577.5 1147.2,1583.3 1121.1,1589.2 1095.1,1595.1 1069.1,1601.1 1043.1,1607.1 1017.2,1613.1 991.3,1619.2  A 522.500,522.500 0.00 0,1 989.2,1610.0 L 989.2,1610.0 1015.3,1604.4 1041.4,1598.8 1067.6,1593.2 1093.7,1587.6 1119.9,1582.1 1146.1,1576.5 1172.3,1571.0 1198.5,1565.5 1224.7,1560.0 1251.0,1554.5 1277.2,1549.1 1303.5,1543.6 1329.8,1538.2 1356.0,1532.8 1382.3,1527.4 1408.6,1522.1 1434.9,1516.7 1461.2,1511.4 1487.5,1506.1 1513.9,1500.9 1540.2,1495.6 1566.5,1490.4 1592.8,1485.2 1619.2,1480.0 1645.5,1474.9 1671.8,1469.7 1698.2,1464.6 1724.5,1459.5 1750.8,1454.4 1777.1,1449.4 1803.5,1444.4 1829.8,1439.4 1856.1,1434.4 1882.4,1429.4 1908.7,1424.5 1935.0,1419.5 1961.2,1414.6 1987.5,1409.7 2013.8,1404.9  Z" style="stroke-width: 0.5;  stroke: rgb(0,0,0); fill: rgb(179,177,178);" />
<path d="M 1790.349,1934.400 A 522.500,522.500 0.00 0,1 1783.2,1939.1 L 1783.2,1939.1 1771.7,1921.6 1759.8,1904.4 1747.5,1887.6 1734.9,1871.3 1722.0,1855.6 1708.9,1840.5 1695.5,1826.3 1681.9,1812.9 1668.1,1800.4 1654.2,1789.0 1640.2,1778.6 1626.0,1769.4 1611.8,1761.4 1597.6,1754.6 1583.3,1749.0 1569.0,1744.8 1554.8,1741.9 1540.6,1740.3 1526.5,1740.1 1512.5,1741.2 1498.7,1743.7 1484.9,1747.6 1471.4,1752.7 1458.0,1759.2 1444.8,1767.0 1431.8,1776.0 1419.1,1786.2 1406.7,1797.6 1394.5,1810.1 1382.6,1823.6 1371.0,1838.1 1359.8,1853.5 1348.8,1869.8 1338.3,1886.7 1328.1,1904.3 1318.3,1922.5 1308.9,1941.1 1299.9,1960.0 1291.4,1979.0  A 522.500,522.500 0.00 0,1 1283.6,1975.6 L 1283.6,1975.6 1292.5,1956.6 1301.8,1937.8 1311.5,1919.3 1321.7,1901.2 1332.2,1883.7 1343.2,1866.9 1354.5,1850.7 1366.1,1835.4 1378.1,1821.0 1390.4,1807.5 1403.0,1795.1 1415.8,1783.8 1429.0,1773.6 1442.3,1764.6 1455.9,1756.9 1469.7,1750.4 1483.7,1745.2 1497.9,1741.4 1512.2,1738.9 1526.6,1737.7 1541.1,1737.9 1555.7,1739.4 1570.3,1742.2 1585.0,1746.4 1599.6,1751.8 1614.3,1758.5 1628.9,1766.5 1643.4,1775.6 1657.8,1785.8 1672.1,1797.1 1686.3,1809.4 1700.2,1822.6 1714.0,1836.7 1727.5,1851.6 1740.7,1867.2 1753.7,1883.4 1766.3,1900.0 1778.5,1917.1 1790.3,1934.4  Z" style="stroke-width: 0.5;  stroke: rgb(0,0,0); fill: rgb(179,177,178);" />
<path d="M 1781.460,1059.788 A 522.500,522.500 0.00 0,1 1788.6,1064.4 L 1788.6,1064.4 1776.1,1082.8 1763.1,1101.0 1749.5,1118.9 1735.4,1136.5 1720.8,1153.6 1705.7,1170.2 1690.1,1186.2 1674.0,1201.6 1657.4,1216.4 1640.5,1230.3 1623.0,1243.5 1605.2,1255.8 1587.0,1267.2 1568.4,1277.7 1549.4,1287.3 1530.1,1295.9 1510.5,1303.4 1490.6,1310.0 1470.4,1315.5 1450.0,1319.9 1429.3,1323.3 1408.5,1325.7 1387.5,1327.0 1366.4,1327.3 1345.2,1326.5 1323.9,1324.7 1302.6,1321.9 1281.2,1318.1 1259.9,1313.4 1238.6,1307.8 1217.5,1301.4 1196.4,1294.1 1175.6,1286.0 1154.9,1277.2 1134.5,1267.7 1114.3,1257.6 1094.5,1247.0 1075.1,1235.9 1056.1,1224.4  A 522.500,522.500 0.00 0,1 1060.6,1217.2 L 1060.6,1217.2 1079.4,1229.0 1098.6,1240.3 1118.1,1251.2 1138.0,1261.6 1158.2,1271.3 1178.6,1280.4 1199.2,1288.7 1219.9,1296.2 1240.9,1302.9 1261.9,1308.8 1282.9,1313.7 1304.0,1317.6 1325.0,1320.6 1346.1,1322.6 1367.0,1323.5 1387.8,1323.4 1408.5,1322.2 1429.1,1319.9 1449.4,1316.6 1469.5,1312.2 1489.4,1306.8 1509.0,1300.2 1528.3,1292.7 1547.3,1284.1 1565.9,1274.5 1584.2,1264.0 1602.1,1252.5 1619.6,1240.1 1636.7,1226.9 1653.4,1212.8 1669.6,1198.0 1685.3,1182.5 1700.6,1166.4 1715.4,1149.6 1729.6,1132.4 1743.4,1114.7 1756.6,1096.6 1769.3,1078.3 1781.5,1059.8  Z" style="stroke-width: 0.5;  stroke: rgb(0,0,0); fill: rgb(179,177,178);" />
</g>
<g id="plot0">
<g id="plot0-axis">
</g>
<line x1='2243.7' y1='1596.8' x2='2243.7' y2='1596.8' style="stroke-width:14.0;stroke:rgb(0,0,0);stroke-linecap:round;fill:none;" />
<line x1='2243.7' y1='1596.8' x2='2283.4' y2='1601.9' style="stroke-width:14.0;stroke:rgb(0,0,0);stroke-linecap:round;fill:none;" />
<line x1='2283.4' y1='1601.9' x2='2283.4' y2='1601.9' style="stroke-width:14.0;stroke:rgb(0,0,0);stroke-linecap:round;fill:none;" />
<text x="2300.0" y="1626.8" font-size="46.8px" font-family="CMUBright-Roman" style="text-anchor:start;fill:rgb(255,38,78);" transform="rotate(7.4,2300.0,1626.8)" >HistocapCB192<tspan baseline-shift="-40%" font-size="90%">s</tspan>00607</text>
</g>
<defs>
<pattern id="vline-sparse" width="10" height="10" patternTransform="rotate(0 0 0)" patternUnits="userSpaceOnUse"><line x1="0" y1="0" x2="0" y2="10" style="stroke:black;stroke-width:2" /></pattern>
<pattern id="hline" width="10" height="10" patternTransform="rotate(0 0 0)" patternUnits="userSpaceOnUse"><line x1="0" y1="0" x2="10" y2="0" style="stroke:black;stroke-width:5" /></pattern>
<pattern id="checker" width="10" height="10" patternTransform="rotate(45 0 0)" patternUnits="userSpaceOnUse"><line x1="0" y1="0" x2="10" y2="0" style="stroke:black;stroke-width:2" /><line x1="0" y1="0" x2="0" y2="10" style="stroke:black;stroke-width:2" /></pattern>
<pattern id="checker" width="10" height="10" patternTransform="rotate(45 0 0)" patternUnits="userSpaceOnUse"><line x1="0" y1="0" x2="10" y2="0" style="stroke:black;stroke-width:5" /><line x1="0" y1="0" x2="0" y2="10" style="stroke:black;stroke-width:4" /></pattern>
<pattern id="vline" width="10" height="10" patternTransform="rotate(0 0 0)" patternUnits="userSpaceOnUse"><line x1="0" y1="0" x2="0" y2="10" style="stroke:black;stroke-width:5" /></pattern>
<pattern id="hline-sparse" width="10" height="10" patternTransform="rotate(0 0 0)" patternUnits="userSpaceOnUse"><line x1="0" y1="0" x2="10" y2="0" style="stroke:black;stroke-width:2" /></pattern>
</defs>
</svg>
