<?xml version="1.0" encoding="utf-8" standalone="no"?>
<!DOCTYPE svg PUBLIC "-//W3C//DTD SVG 1.1//EN" "http://www.w3.org/Graphics/SVG/1.1/DTD/svg11.dtd">
<svg width="3000px" height="3000px" version="1.1" xmlns="http://www.w3.org/2000/svg" xmlns:xlink="http://www.w3.org/1999/xlink">
<g id="bg">
<rect x="0" y="0" width="3000px" height="3000px" style="fill:rgb(255,255,255);"/>
</g>
<g id="ideograms">
<path d="M1500.000,950.000 A550.000,550.000 40.000 1,1 1104.858,1882.574 L961.170,2021.692 A750.000,750.000 0.000 1,0 1500.000,750.000 Z" style="stroke-width:2.0;stroke:rgb(0,0,0);stroke-linecap:round;fill:rgb(179,177,178);" />
<text x="2439.2" y="1897.9" font-size="46.8px" font-family="CMUBright-Roman" style="text-anchor:middle;fill:rgb(0,0,0);" transform="rotate(-67.0,2439.2,1897.9)" >HistocapCB064<tspan baseline-shift="-40%" font-size="90%">6</tspan></text>
<line x1='1548.3' y1='751.6' x2='1549.1' y2='739.6' style="stroke-width:8.0;stroke:rgb(150,150,150);stroke-linecap:round;fill:none;" />
<line x1='1615.1' y1='758.9' x2='1617.0' y2='747.0' style="stroke-width:8.0;stroke:rgb(150,150,150);stroke-linecap:round;fill:none;" />
<line x1='1681.0' y1='772.2' x2='1683.9' y2='760.5' style="stroke-width:8.0;stroke:rgb(150,150,150);stroke-linecap:round;fill:none;" />
<line x1='1745.4' y1='791.3' x2='1749.3' y2='780.0' style="stroke-width:8.0;stroke:rgb(150,150,150);stroke-linecap:round;fill:none;" />
<line x1='1807.9' y1='816.1' x2='1812.8' y2='805.2' style="stroke-width:8.0;stroke:rgb(150,150,150);stroke-linecap:round;fill:none;" />
<text x="1830.4" y="800.1" font-size="41.6px" font-family="CMUBright-Roman" style="text-anchor:start;fill:rgb(150,150,150);" transform="rotate(294.2,1830.4,800.1)" >2400 kb</text>
<line x1='1867.8' y1='846.4' x2='1873.7' y2='835.9' style="stroke-width:8.0;stroke:rgb(150,150,150);stroke-linecap:round;fill:none;" />
<line x1='1924.9' y1='881.9' x2='1931.7' y2='872.1' style="stroke-width:8.0;stroke:rgb(150,150,150);stroke-linecap:round;fill:none;" />
<line x1='1978.5' y1='922.4' x2='1986.1' y2='913.2' style="stroke-width:8.0;stroke:rgb(150,150,150);stroke-linecap:round;fill:none;" />
<line x1='2028.2' y1='967.6' x2='2036.7' y2='959.1' style="stroke-width:8.0;stroke:rgb(150,150,150);stroke-linecap:round;fill:none;" />
<line x1='2073.8' y1='1017.0' x2='2082.9' y2='1009.3' style="stroke-width:8.0;stroke:rgb(150,150,150);stroke-linecap:round;fill:none;" />
<text x="2101.0" y="1012.3" font-size="41.6px" font-family="CMUBright-Roman" style="text-anchor:start;fill:rgb(150,150,150);" transform="rotate(319.9,2101.0,1012.3)" >2450 kb</text>
<line x1='2114.7' y1='1070.3' x2='2124.5' y2='1063.4' style="stroke-width:8.0;stroke:rgb(150,150,150);stroke-linecap:round;fill:none;" />
<line x1='2150.7' y1='1127.0' x2='2161.1' y2='1121.1' style="stroke-width:8.0;stroke:rgb(150,150,150);stroke-linecap:round;fill:none;" />
<line x1='2181.5' y1='1186.8' x2='2192.4' y2='1181.7' style="stroke-width:8.0;stroke:rgb(150,150,150);stroke-linecap:round;fill:none;" />
<line x1='2206.8' y1='1249.0' x2='2218.1' y2='1245.0' style="stroke-width:8.0;stroke:rgb(150,150,150);stroke-linecap:round;fill:none;" />
<line x1='2226.4' y1='1313.3' x2='2238.0' y2='1310.3' style="stroke-width:8.0;stroke:rgb(150,150,150);stroke-linecap:round;fill:none;" />
<text x="2253.0" y="1320.9" font-size="41.6px" font-family="CMUBright-Roman" style="text-anchor:start;fill:rgb(150,150,150);" transform="rotate(345.6,2253.0,1320.9)" >2500 kb</text>
<line x1='2240.2' y1='1379.0' x2='2252.0' y2='1377.1' style="stroke-width:8.0;stroke:rgb(150,150,150);stroke-linecap:round;fill:none;" />
<line x1='2248.0' y1='1445.8' x2='2260.0' y2='1444.9' style="stroke-width:8.0;stroke:rgb(150,150,150);stroke-linecap:round;fill:none;" />
<line x1='2249.9' y1='1512.9' x2='2261.9' y2='1513.1' style="stroke-width:8.0;stroke:rgb(150,150,150);stroke-linecap:round;fill:none;" />
<line x1='2245.7' y1='1580.0' x2='2257.7' y2='1581.3' style="stroke-width:8.0;stroke:rgb(150,150,150);stroke-linecap:round;fill:none;" />
<line x1='2235.6' y1='1646.4' x2='2247.3' y2='1648.7' style="stroke-width:8.0;stroke:rgb(150,150,150);stroke-linecap:round;fill:none;" />
<text x="2256.3" y="1664.8" font-size="41.6px" font-family="CMUBright-Roman" style="text-anchor:start;fill:rgb(150,150,150);" transform="rotate(11.3,2256.3,1664.8)" >2550 kb</text>
<line x1='2219.5' y1='1711.6' x2='2231.0' y2='1715.0' style="stroke-width:8.0;stroke:rgb(150,150,150);stroke-linecap:round;fill:none;" />
<line x1='2197.7' y1='1775.2' x2='2208.9' y2='1779.6' style="stroke-width:8.0;stroke:rgb(150,150,150);stroke-linecap:round;fill:none;" />
<line x1='2170.3' y1='1836.5' x2='2181.0' y2='1841.9' style="stroke-width:8.0;stroke:rgb(150,150,150);stroke-linecap:round;fill:none;" />
<line x1='2137.5' y1='1895.2' x2='2147.7' y2='1901.5' style="stroke-width:8.0;stroke:rgb(150,150,150);stroke-linecap:round;fill:none;" />
<line x1='2099.5' y1='1950.6' x2='2109.1' y2='1957.8' style="stroke-width:8.0;stroke:rgb(150,150,150);stroke-linecap:round;fill:none;" />
<text x="2110.2" y="1976.2" font-size="41.6px" font-family="CMUBright-Roman" style="text-anchor:start;fill:rgb(150,150,150);" transform="rotate(36.9,2110.2,1976.2)" >2600 kb</text>
<line x1='2056.8' y1='2002.5' x2='2065.7' y2='2010.5' style="stroke-width:8.0;stroke:rgb(150,150,150);stroke-linecap:round;fill:none;" />
<line x1='2009.6' y1='2050.3' x2='2017.7' y2='2059.1' style="stroke-width:8.0;stroke:rgb(150,150,150);stroke-linecap:round;fill:none;" />
<line x1='1958.3' y1='2093.7' x2='1965.6' y2='2103.2' style="stroke-width:8.0;stroke:rgb(150,150,150);stroke-linecap:round;fill:none;" />
<line x1='1903.3' y1='2132.3' x2='1909.8' y2='2142.4' style="stroke-width:8.0;stroke:rgb(150,150,150);stroke-linecap:round;fill:none;" />
<line x1='1845.1' y1='2165.9' x2='1850.6' y2='2176.5' style="stroke-width:8.0;stroke:rgb(150,150,150);stroke-linecap:round;fill:none;" />
<text x="1843.7" y="2193.5" font-size="41.6px" font-family="CMUBright-Roman" style="text-anchor:start;fill:rgb(150,150,150);" transform="rotate(62.6,1843.7,2193.5)" >2650 kb</text>
<line x1='1784.1' y1='2194.1' x2='1788.7' y2='2205.2' style="stroke-width:8.0;stroke:rgb(150,150,150);stroke-linecap:round;fill:none;" />
<line x1='1720.9' y1='2216.7' x2='1724.4' y2='2228.2' style="stroke-width:8.0;stroke:rgb(150,150,150);stroke-linecap:round;fill:none;" />
<line x1='1655.8' y1='2233.6' x2='1658.3' y2='2245.4' style="stroke-width:8.0;stroke:rgb(150,150,150);stroke-linecap:round;fill:none;" />
<line x1='1589.5' y1='2244.6' x2='1591.0' y2='2256.5' style="stroke-width:8.0;stroke:rgb(150,150,150);stroke-linecap:round;fill:none;" />
<line x1='1522.5' y1='2249.7' x2='1522.9' y2='2261.7' style="stroke-width:8.0;stroke:rgb(150,150,150);stroke-linecap:round;fill:none;" />
<text x="1509.3" y="2273.9" font-size="41.6px" font-family="CMUBright-Roman" style="text-anchor:start;fill:rgb(150,150,150);" transform="rotate(88.3,1509.3,2273.9)" >2700 kb</text>
<line x1='1455.4' y1='2248.7' x2='1454.6' y2='2260.6' style="stroke-width:8.0;stroke:rgb(150,150,150);stroke-linecap:round;fill:none;" />
<line x1='1388.5' y1='2241.7' x2='1386.7' y2='2253.5' style="stroke-width:8.0;stroke:rgb(150,150,150);stroke-linecap:round;fill:none;" />
<line x1='1322.6' y1='2228.7' x2='1319.8' y2='2240.4' style="stroke-width:8.0;stroke:rgb(150,150,150);stroke-linecap:round;fill:none;" />
<line x1='1258.1' y1='2209.9' x2='1254.2' y2='2221.3' style="stroke-width:8.0;stroke:rgb(150,150,150);stroke-linecap:round;fill:none;" />
<line x1='1195.5' y1='2185.4' x2='1190.7' y2='2196.4' style="stroke-width:8.0;stroke:rgb(150,150,150);stroke-linecap:round;fill:none;" />
<text x="1198.6" y="2212.9" font-size="41.6px" font-family="CMUBright-Roman" style="text-anchor:end;fill:rgb(150,150,150);" transform="rotate(-66.0,1198.6,2212.9)" >2750 kb</text>
<line x1='1135.4' y1='2155.4' x2='1129.6' y2='2165.9' style="stroke-width:8.0;stroke:rgb(150,150,150);stroke-linecap:round;fill:none;" />
<line x1='1078.2' y1='2120.2' x2='1071.5' y2='2130.1' style="stroke-width:8.0;stroke:rgb(150,150,150);stroke-linecap:round;fill:none;" />
<line x1='1024.4' y1='2079.9' x2='1016.8' y2='2089.2' style="stroke-width:8.0;stroke:rgb(150,150,150);stroke-linecap:round;fill:none;" />
<line x1='974.4' y1='2035.0' x2='966.0' y2='2043.6' style="stroke-width:8.0;stroke:rgb(150,150,150);stroke-linecap:round;fill:none;" />
<g id="highlighttrack_0">
<path d="M1929.522,1156.473 A550.000,550.000 40.000 0,1 1551.968,2047.539 L1570.865,2246.645 A750.000,750.000 0.000 0,0 2085.712,1031.554 Z" style="stroke-width:14.0;stroke:rgb(0,0,0);stroke-linecap:round;fill:rgb(255,38,78);" />
</g>
<path d="M1500.000,950.000 A550.000,550.000 40.000 1,1 1104.858,1882.574 L961.170,2021.692 A750.000,750.000 0.000 1,0 1500.000,750.000 Z" style="stroke-width:2.0;stroke:rgb(0,0,0);stroke-linecap:round;fill:none;" />
<path d="M1017.431,1763.870 A550.000,550.000 40.000 0,1 1353.905,969.758 L1300.779,776.943 A750.000,750.000 0.000 0,0 841.951,1859.822 Z" style="stroke-width:2.0;stroke:rgb(0,0,0);stroke-linecap:round;fill:rgb(179,177,178);" />
<text x="602.3" y="1119.6" font-size="46.8px" font-family="CMUBright-Roman" style="text-anchor:middle;fill:rgb(0,0,0);" transform="rotate(-67.0,602.3,1119.6)" >HistosurSECH105<tspan baseline-shift="-40%" font-size="90%">6</tspan></text>
<line x1='1280.1' y1='783.0' x2='1276.6' y2='771.5' style="stroke-width:8.0;stroke:rgb(150,150,150);stroke-linecap:round;fill:none;" />
<line x1='1216.8' y1='805.5' x2='1212.3' y2='794.4' style="stroke-width:8.0;stroke:rgb(150,150,150);stroke-linecap:round;fill:none;" />
<line x1='1155.8' y1='833.6' x2='1150.3' y2='823.0' style="stroke-width:8.0;stroke:rgb(150,150,150);stroke-linecap:round;fill:none;" />
<line x1='1097.5' y1='867.1' x2='1091.1' y2='857.0' style="stroke-width:8.0;stroke:rgb(150,150,150);stroke-linecap:round;fill:none;" />
<text x="1072.9" y="854.5" font-size="41.6px" font-family="CMUBright-Roman" style="text-anchor:end;fill:rgb(150,150,150);" transform="rotate(57.5,1072.9,854.5)" >2350 kb</text>
<line x1='1042.5' y1='905.7' x2='1035.2' y2='896.2' style="stroke-width:8.0;stroke:rgb(150,150,150);stroke-linecap:round;fill:none;" />
<line x1='991.2' y1='949.0' x2='983.0' y2='940.2' style="stroke-width:8.0;stroke:rgb(150,150,150);stroke-linecap:round;fill:none;" />
<line x1='943.9' y1='996.8' x2='935.0' y2='988.7' style="stroke-width:8.0;stroke:rgb(150,150,150);stroke-linecap:round;fill:none;" />
<line x1='901.1' y1='1048.6' x2='891.5' y2='1041.3' style="stroke-width:8.0;stroke:rgb(150,150,150);stroke-linecap:round;fill:none;" />
<line x1='863.1' y1='1104.0' x2='852.9' y2='1097.6' style="stroke-width:8.0;stroke:rgb(150,150,150);stroke-linecap:round;fill:none;" />
<text x="835.4" y="1103.3" font-size="41.6px" font-family="CMUBright-Roman" style="text-anchor:end;fill:rgb(150,150,150);" transform="rotate(31.9,835.4,1103.3)" >2400 kb</text>
<line x1='830.2' y1='1162.6' x2='819.5' y2='1157.2' style="stroke-width:8.0;stroke:rgb(150,150,150);stroke-linecap:round;fill:none;" />
<line x1='802.7' y1='1223.9' x2='791.5' y2='1219.4' style="stroke-width:8.0;stroke:rgb(150,150,150);stroke-linecap:round;fill:none;" />
<line x1='780.8' y1='1287.4' x2='769.3' y2='1284.0' style="stroke-width:8.0;stroke:rgb(150,150,150);stroke-linecap:round;fill:none;" />
<line x1='764.6' y1='1352.6' x2='752.9' y2='1350.2' style="stroke-width:8.0;stroke:rgb(150,150,150);stroke-linecap:round;fill:none;" />
<line x1='754.4' y1='1419.0' x2='742.5' y2='1417.7' style="stroke-width:8.0;stroke:rgb(150,150,150);stroke-linecap:round;fill:none;" />
<text x="729.1" y="1430.4" font-size="41.6px" font-family="CMUBright-Roman" style="text-anchor:end;fill:rgb(150,150,150);" transform="rotate(6.2,729.1,1430.4)" >2450 kb</text>
<line x1='750.1' y1='1486.1' x2='738.1' y2='1485.8' style="stroke-width:8.0;stroke:rgb(150,150,150);stroke-linecap:round;fill:none;" />
<line x1='751.9' y1='1553.2' x2='739.9' y2='1554.1' style="stroke-width:8.0;stroke:rgb(150,150,150);stroke-linecap:round;fill:none;" />
<line x1='759.7' y1='1620.0' x2='747.8' y2='1621.9' style="stroke-width:8.0;stroke:rgb(150,150,150);stroke-linecap:round;fill:none;" />
<line x1='773.4' y1='1685.8' x2='761.7' y2='1688.7' style="stroke-width:8.0;stroke:rgb(150,150,150);stroke-linecap:round;fill:none;" />
<line x1='792.9' y1='1750.0' x2='781.6' y2='1754.0' style="stroke-width:8.0;stroke:rgb(150,150,150);stroke-linecap:round;fill:none;" />
<text x="775.1" y="1771.2" font-size="41.6px" font-family="CMUBright-Roman" style="text-anchor:end;fill:rgb(150,150,150);" transform="rotate(-19.5,775.1,1771.2)" >2500 kb</text>
<line x1='818.1' y1='1812.3' x2='807.2' y2='1817.3' style="stroke-width:8.0;stroke:rgb(150,150,150);stroke-linecap:round;fill:none;" />
<path d="M1017.431,1763.870 A550.000,550.000 40.000 0,1 1353.905,969.758 L1300.779,776.943 A750.000,750.000 0.000 0,0 841.951,1859.822 Z" style="stroke-width:2.0;stroke:rgb(0,0,0);stroke-linecap:round;fill:none;" />
</g>
<g id="track_0">
<path d="M 1849.779,1111.850 A 522.500,522.500 0.00 0,1 1907.4,1172.8 L 1907.4,1172.8 1889.0,1187.3 1870.0,1201.6 1850.7,1215.5 1830.9,1229.1 1810.7,1242.3 1790.1,1255.1 1769.0,1267.3 1747.7,1279.1 1726.0,1290.2 1703.9,1300.8 1681.6,1310.7 1658.9,1319.9 1636.0,1328.5 1612.8,1336.4 1589.4,1343.5 1565.8,1349.9 1542.0,1355.5 1518.1,1360.3 1494.0,1364.4 1469.8,1367.7 1445.5,1370.1 1421.1,1371.8 1396.7,1372.7 1372.2,1372.8 1347.8,1372.2 1323.4,1370.8 1299.0,1368.6 1274.7,1365.7 1250.5,1362.0 1226.5,1357.7 1202.6,1352.7 1178.8,1347.1 1155.3,1340.9 1132.1,1334.0 1109.1,1326.7 1086.4,1318.8 1064.0,1310.5 1042.0,1301.8 1020.4,1292.7  A 522.500,522.500 0.00 0,1 1059.9,1218.4 L 1059.9,1218.4 1079.0,1230.3 1098.6,1241.9 1118.6,1253.0 1139.0,1263.7 1159.6,1273.7 1180.6,1283.2 1201.9,1291.9 1223.4,1300.0 1245.0,1307.2 1266.9,1313.7 1288.9,1319.3 1310.9,1324.1 1333.1,1327.9 1355.3,1330.8 1377.5,1332.8 1399.8,1333.8 1421.9,1333.8 1444.0,1332.8 1466.0,1330.8 1487.9,1327.9 1509.7,1323.9 1531.2,1319.0 1552.6,1313.1 1573.8,1306.3 1594.7,1298.5 1615.3,1289.8 1635.7,1280.2 1655.7,1269.8 1675.4,1258.6 1694.8,1246.6 1713.8,1233.8 1732.3,1220.4 1750.5,1206.3 1768.2,1191.6 1785.5,1176.5 1802.3,1160.8 1818.7,1144.8 1834.5,1128.4 1849.8,1111.8  Z" style="stroke-width: 0.5;  stroke: rgb(0,0,0); fill: rgb(179,177,178);" />
<path d="M 1448.286,2019.935 A 522.500,522.500 0.00 0,1 1374.3,2007.1 L 1374.3,2007.1 1379.2,1986.0 1383.7,1964.6 1387.6,1943.1 1390.8,1921.5 1393.4,1900.0 1395.3,1878.5 1396.3,1857.1 1396.6,1835.9 1396.0,1815.0 1394.5,1794.4 1392.1,1774.1 1388.7,1754.3 1384.4,1734.9 1379.2,1716.0 1373.0,1697.7 1365.7,1680.0 1357.5,1662.8 1348.4,1646.3 1338.2,1630.5 1327.1,1615.3 1315.0,1600.9 1302.0,1587.2 1288.1,1574.2 1273.3,1562.0 1257.7,1550.6 1241.3,1539.9 1224.0,1530.0 1206.1,1520.9 1187.5,1512.5 1168.3,1504.9 1148.5,1498.1 1128.3,1492.0 1107.5,1486.6 1086.5,1481.9 1065.1,1477.9 1043.6,1474.5 1021.9,1471.8 1000.1,1469.6 978.5,1468.1  A 522.500,522.500 0.00 0,1 988.5,1393.3 L 988.5,1393.3 1010.4,1398.2 1032.3,1403.6 1054.2,1409.6 1076.0,1416.2 1097.6,1423.5 1119.0,1431.4 1140.0,1440.0 1160.7,1449.3 1180.9,1459.2 1200.7,1469.9 1219.9,1481.2 1238.5,1493.3 1256.6,1506.0 1273.9,1519.5 1290.6,1533.6 1306.6,1548.4 1321.7,1563.9 1336.1,1580.1 1349.7,1596.9 1362.5,1614.3 1374.4,1632.3 1385.5,1650.9 1395.7,1670.0 1405.1,1689.7 1413.6,1709.8 1421.2,1730.4 1428.0,1751.4 1433.9,1772.8 1438.9,1794.6 1443.2,1816.6 1446.6,1838.9 1449.2,1861.4 1451.1,1884.1 1452.3,1906.8 1452.7,1929.6 1452.5,1952.4 1451.7,1975.1 1450.2,1997.6 1448.3,2019.9  Z" style="stroke-width: 0.5;  stroke: rgb(0,0,0); fill: rgb(179,177,178);" />
<path d="M 1196.158,1925.072 A 522.500,522.500 0.00 0,1 1160.9,1897.5 L 1160.9,1897.5 1173.9,1882.0 1186.7,1866.4 1199.1,1850.8 1211.1,1835.3 1222.4,1819.9 1233.1,1804.9 1243.0,1790.1 1252.2,1775.7 1260.4,1761.8 1267.7,1748.4 1274.0,1735.6 1279.2,1723.4 1283.3,1711.9 1286.3,1701.1 1288.1,1691.0 1288.8,1681.7 1288.2,1673.2 1286.4,1665.5 1283.4,1658.7 1279.2,1652.7 1273.7,1647.7 1267.1,1643.5 1259.2,1640.1 1250.2,1637.7 1240.1,1636.1 1228.9,1635.4 1216.6,1635.5 1203.4,1636.5 1189.2,1638.2 1174.2,1640.7 1158.4,1644.0 1141.8,1647.9 1124.6,1652.5 1106.9,1657.6 1088.7,1663.3 1070.1,1669.5 1051.3,1676.2 1032.4,1683.1 1013.4,1690.4  A 522.500,522.500 0.00 0,1 999.1,1648.6 L 999.1,1648.6 1018.7,1642.9 1038.4,1637.6 1058.0,1632.7 1077.4,1628.3 1096.4,1624.4 1115.0,1621.2 1133.2,1618.5 1150.7,1616.6 1167.5,1615.3 1183.6,1614.8 1198.8,1615.1 1213.2,1616.2 1226.6,1618.1 1239.0,1620.8 1250.4,1624.4 1260.6,1628.9 1269.8,1634.3 1277.8,1640.5 1284.6,1647.5 1290.3,1655.5 1294.7,1664.2 1298.0,1673.8 1300.1,1684.2 1300.9,1695.4 1300.6,1707.3 1299.2,1719.9 1296.6,1733.2 1293.0,1747.2 1288.3,1761.7 1282.5,1776.7 1275.9,1792.2 1268.3,1808.1 1259.9,1824.4 1250.7,1840.9 1240.8,1857.7 1230.4,1874.5 1219.4,1891.5 1207.9,1908.3 1196.2,1925.1  Z" style="stroke-width: 0.5;  stroke: rgb(0,0,0); fill: rgb(179,177,178);" />
<path d="M 1282.752,1975.194 A 522.500,522.500 0.00 0,1 1245.3,1956.2 L 1245.3,1956.2 1255.2,1938.1 1264.7,1919.7 1273.8,1901.4 1282.3,1883.0 1290.1,1864.7 1297.3,1846.6 1303.6,1828.8 1309.2,1811.3 1313.8,1794.2 1317.5,1777.5 1320.2,1761.3 1321.8,1745.7 1322.4,1730.8 1322.0,1716.4 1320.4,1702.8 1317.7,1689.9 1313.8,1677.8 1308.8,1666.5 1302.7,1656.0 1295.4,1646.4 1287.0,1637.6 1277.6,1629.6 1267.0,1622.6 1255.4,1616.4 1242.7,1611.1 1229.1,1606.7 1214.5,1603.1 1199.1,1600.4 1182.8,1598.5 1165.8,1597.5 1148.0,1597.2 1129.7,1597.6 1110.8,1598.8 1091.4,1600.7 1071.7,1603.1 1051.7,1606.2 1031.5,1609.8 1011.3,1613.9 991.1,1618.4  A 522.500,522.500 0.00 0,1 983.2,1577.3 L 983.2,1577.3 1004.0,1574.4 1024.8,1572.0 1045.5,1570.1 1066.1,1568.8 1086.5,1568.1 1106.5,1568.0 1126.1,1568.7 1145.2,1570.1 1163.7,1572.2 1181.5,1575.1 1198.6,1578.9 1215.0,1583.4 1230.5,1588.8 1245.1,1595.1 1258.7,1602.2 1271.4,1610.1 1283.1,1618.9 1293.8,1628.6 1303.4,1639.1 1311.9,1650.4 1319.4,1662.6 1325.7,1675.5 1330.9,1689.2 1335.1,1703.6 1338.1,1718.7 1340.0,1734.4 1340.9,1750.8 1340.8,1767.8 1339.7,1785.3 1337.5,1803.2 1334.5,1821.6 1330.5,1840.3 1325.7,1859.3 1320.2,1878.5 1313.9,1897.9 1306.9,1917.3 1299.3,1936.7 1291.3,1956.1 1282.8,1975.2  Z" style="stroke-width: 0.5;  stroke: rgb(0,0,0); fill: rgb(179,177,178);" />
<path d="M 1500.000,977.500 A 522.500,522.500 0.00 0,1 1503.0,977.5 L 1503.0,977.5 1502.7,998.1 1502.0,1018.6 1500.9,1038.9 1499.4,1058.8 1497.4,1078.4 1494.9,1097.4 1491.9,1115.8 1488.4,1133.4 1484.3,1150.2 1479.7,1166.1 1474.6,1181.0 1468.9,1194.9 1462.6,1207.7 1455.7,1219.3 1448.3,1229.7 1440.3,1238.9 1431.7,1246.8 1422.6,1253.3 1412.9,1258.6 1402.8,1262.5 1392.1,1265.1 1380.9,1266.3 1369.3,1266.2 1357.2,1264.7 1344.7,1262.0 1331.8,1258.0 1318.6,1252.7 1305.0,1246.3 1291.2,1238.7 1277.1,1229.9 1262.9,1220.2 1248.4,1209.5 1233.9,1197.8 1219.3,1185.4 1204.7,1172.2 1190.2,1158.4 1175.8,1144.1 1161.5,1129.4 1147.5,1114.3  A 522.500,522.500 0.00 0,1 1176.3,1089.9 L 1176.3,1089.9 1189.1,1105.8 1202.1,1121.5 1215.3,1136.8 1228.6,1151.6 1242.0,1165.7 1255.4,1179.1 1268.7,1191.7 1281.9,1203.4 1294.9,1214.2 1307.8,1223.8 1320.5,1232.4 1332.9,1239.8 1345.0,1245.9 1356.8,1250.8 1368.2,1254.4 1379.3,1256.7 1389.9,1257.6 1400.1,1257.2 1409.9,1255.3 1419.2,1252.1 1427.9,1247.5 1436.2,1241.5 1444.0,1234.2 1451.3,1225.6 1458.0,1215.7 1464.3,1204.6 1469.9,1192.2 1475.1,1178.7 1479.7,1164.2 1483.9,1148.6 1487.5,1132.1 1490.6,1114.7 1493.2,1096.5 1495.4,1077.7 1497.1,1058.4 1498.4,1038.5 1499.3,1018.4 1499.8,998.0 1500.0,977.5  Z" style="stroke-width: 0.5;  stroke: rgb(0,0,0); fill: rgb(179,177,178);" />
<path d="M 1739.474,1035.609 A 522.500,522.500 0.00 0,1 1767.6,1051.3 L 1767.6,1051.3 1756.2,1069.9 1744.2,1088.4 1731.7,1106.7 1718.7,1124.5 1705.1,1141.9 1691.1,1158.7 1676.6,1175.0 1661.6,1190.6 1646.1,1205.4 1630.2,1219.4 1613.9,1232.6 1597.2,1244.9 1580.1,1256.2 1562.6,1266.6 1544.7,1275.9 1526.5,1284.2 1508.1,1291.4 1489.3,1297.5 1470.2,1302.5 1451.0,1306.4 1431.5,1309.1 1411.8,1310.8 1392.0,1311.3 1372.0,1310.7 1351.9,1309.0 1331.8,1306.2 1311.6,1302.4 1291.5,1297.5 1271.3,1291.7 1251.2,1284.9 1231.2,1277.2 1211.4,1268.7 1191.7,1259.3 1172.2,1249.2 1153.0,1238.4 1134.1,1227.0 1115.5,1215.1 1097.3,1202.7 1079.5,1189.9  A 522.500,522.500 0.00 0,1 1099.4,1164.5 L 1099.4,1164.5 1116.2,1178.2 1133.4,1191.5 1150.9,1204.4 1168.8,1216.7 1186.9,1228.4 1205.3,1239.4 1223.9,1249.7 1242.6,1259.1 1261.5,1267.6 1280.4,1275.1 1299.4,1281.7 1318.4,1287.3 1337.4,1291.7 1356.4,1295.1 1375.2,1297.4 1394.0,1298.5 1412.6,1298.4 1431.0,1297.1 1449.3,1294.7 1467.3,1291.0 1485.1,1286.2 1502.5,1280.3 1519.7,1273.1 1536.6,1264.9 1553.1,1255.5 1569.3,1245.1 1585.1,1233.6 1600.5,1221.1 1615.4,1207.7 1630.0,1193.4 1644.1,1178.2 1657.7,1162.3 1670.9,1145.7 1683.6,1128.4 1695.8,1110.6 1707.5,1092.3 1718.7,1073.7 1729.3,1054.7 1739.5,1035.6  Z" style="stroke-width: 0.5;  stroke: rgb(0,0,0); fill: rgb(179,177,178);" />
<path d="M 1339.591,1997.268 A 522.500,522.500 0.00 0,1 1309.9,1986.7 L 1309.9,1986.7 1317.4,1966.9 1324.4,1946.9 1330.9,1926.7 1336.8,1906.5 1342.0,1886.4 1346.4,1866.3 1350.1,1846.5 1352.9,1826.9 1354.9,1807.6 1355.9,1788.6 1355.9,1770.1 1355.0,1752.1 1353.0,1734.6 1350.0,1717.7 1346.0,1701.4 1340.8,1685.7 1334.7,1670.7 1327.4,1656.5 1319.1,1642.9 1309.7,1630.2 1299.2,1618.2 1287.8,1607.0 1275.3,1596.6 1261.9,1587.1 1247.5,1578.4 1232.3,1570.5 1216.2,1563.4 1199.2,1557.1 1181.5,1551.7 1163.2,1547.0 1144.2,1543.1 1124.6,1540.0 1104.6,1537.6 1084.1,1535.8 1063.3,1534.8 1042.3,1534.4 1021.1,1534.6 999.9,1535.3 978.8,1536.6  A 522.500,522.500 0.00 0,1 977.5,1504.6 L 977.5,1504.6 998.9,1504.7 1020.4,1505.3 1041.9,1506.4 1063.2,1508.2 1084.3,1510.6 1105.1,1513.7 1125.5,1517.5 1145.4,1522.1 1164.8,1527.4 1183.6,1533.4 1201.8,1540.2 1219.2,1547.8 1235.9,1556.3 1251.7,1565.5 1266.7,1575.5 1280.8,1586.3 1294.0,1597.9 1306.2,1610.3 1317.4,1623.5 1327.6,1637.4 1336.8,1652.0 1345.0,1667.4 1352.2,1683.4 1358.3,1700.1 1363.4,1717.4 1367.4,1735.3 1370.5,1753.7 1372.6,1772.6 1373.6,1792.0 1373.8,1811.7 1373.0,1831.8 1371.4,1852.2 1369.0,1872.8 1365.7,1893.6 1361.7,1914.4 1357.1,1935.3 1351.8,1956.1 1345.9,1976.8 1339.6,1997.3  Z" style="stroke-width: 0.5;  stroke: rgb(0,0,0); fill: rgb(179,177,178);" />
<path d="M 1221.488,1942.083 A 522.500,522.500 0.00 0,1 1197.0,1925.7 L 1197.0,1925.7 1208.7,1908.9 1220.1,1892.0 1231.1,1875.1 1241.6,1858.1 1251.4,1841.4 1260.5,1824.8 1268.9,1808.5 1276.4,1792.5 1283.1,1777.0 1288.8,1761.9 1293.4,1747.4 1297.0,1733.4 1299.6,1720.0 1301.0,1707.4 1301.2,1695.4 1300.3,1684.2 1298.2,1673.7 1294.9,1664.1 1290.4,1655.2 1284.7,1647.3 1277.9,1640.1 1269.8,1633.8 1260.6,1628.4 1250.3,1623.9 1238.9,1620.2 1226.5,1617.4 1213.1,1615.4 1198.7,1614.3 1183.4,1613.9 1167.3,1614.4 1150.4,1615.5 1132.9,1617.4 1114.7,1620.0 1096.1,1623.2 1077.0,1627.0 1057.6,1631.4 1038.0,1636.2 1018.3,1641.4 998.6,1647.0  A 522.500,522.500 0.00 0,1 991.1,1618.3 L 991.1,1618.3 1011.2,1613.8 1031.3,1609.8 1051.4,1606.1 1071.3,1603.0 1090.9,1600.5 1110.0,1598.5 1128.7,1597.3 1146.8,1596.7 1164.3,1596.8 1181.0,1597.7 1196.9,1599.4 1212.0,1601.9 1226.2,1605.2 1239.3,1609.4 1251.5,1614.4 1262.6,1620.3 1272.6,1627.0 1281.5,1634.6 1289.2,1643.0 1295.8,1652.3 1301.3,1662.4 1305.5,1673.2 1308.6,1684.9 1310.5,1697.3 1311.2,1710.4 1310.9,1724.3 1309.4,1738.7 1306.8,1753.8 1303.2,1769.4 1298.5,1785.5 1293.0,1802.0 1286.5,1818.9 1279.2,1836.2 1271.0,1853.7 1262.2,1871.3 1252.8,1889.1 1242.8,1906.8 1232.3,1924.5 1221.5,1942.1  Z" style="stroke-width: 0.5;  stroke: rgb(0,0,0); fill: rgb(179,177,178);" />
<path d="M 1549.369,2020.162 A 522.500,522.500 0.00 0,1 1520.4,2022.1 L 1520.4,2022.1 1519.3,1999.0 1517.6,1975.7 1515.4,1952.2 1512.6,1928.7 1509.1,1905.2 1505.1,1881.7 1500.4,1858.3 1495.0,1835.0 1488.9,1811.8 1482.1,1788.9 1474.6,1766.2 1466.3,1743.8 1457.3,1721.6 1447.6,1699.9 1437.2,1678.5 1426.0,1657.5 1414.0,1636.9 1401.4,1616.8 1388.0,1597.2 1373.9,1578.1 1359.2,1559.5 1343.7,1541.5 1327.6,1524.0 1310.9,1507.1 1293.6,1490.7 1275.7,1475.0 1257.2,1459.9 1238.2,1445.4 1218.8,1431.4 1198.9,1418.1 1178.6,1405.5 1157.9,1393.4 1137.0,1381.9 1115.7,1371.1 1094.3,1360.8 1072.7,1351.2 1051.0,1342.1 1029.2,1333.6 1007.4,1325.6  A 522.500,522.500 0.00 0,1 1017.9,1298.6 L 1017.9,1298.6 1039.5,1307.8 1061.0,1317.6 1082.6,1328.0 1104.0,1338.8 1125.2,1350.3 1146.3,1362.3 1167.1,1374.9 1187.7,1388.1 1207.9,1401.8 1227.7,1416.1 1247.1,1431.0 1266.1,1446.5 1284.6,1462.5 1302.6,1479.1 1320.1,1496.2 1337.1,1513.9 1353.4,1532.1 1369.2,1550.8 1384.3,1570.0 1398.8,1589.7 1412.7,1609.9 1425.8,1630.5 1438.4,1651.5 1450.2,1672.9 1461.4,1694.7 1471.9,1716.8 1481.7,1739.2 1490.9,1762.0 1499.3,1784.9 1507.1,1808.1 1514.2,1831.5 1520.7,1855.0 1526.6,1878.6 1531.8,1902.3 1536.4,1926.0 1540.5,1949.7 1544.0,1973.3 1546.9,1996.8 1549.4,2020.2  Z" style="stroke-width: 0.5;  stroke: rgb(0,0,0); fill: rgb(179,177,178);" />
<path d="M 1500.014,2022.500 A 522.500,522.500 0.00 0,1 1476.6,2022.0 L 1476.6,2022.0 1477.3,1999.3 1477.5,1976.4 1477.2,1953.4 1476.2,1930.3 1474.6,1907.2 1472.3,1884.1 1469.3,1861.1 1465.6,1838.3 1461.1,1815.6 1455.8,1793.2 1449.8,1771.0 1443.0,1749.1 1435.3,1727.7 1426.8,1706.6 1417.5,1685.9 1407.4,1665.7 1396.5,1646.0 1384.8,1626.8 1372.2,1608.1 1358.9,1590.0 1344.8,1572.5 1329.9,1555.6 1314.3,1539.3 1298.0,1523.7 1281.0,1508.7 1263.4,1494.3 1245.1,1480.7 1226.3,1467.7 1206.9,1455.3 1187.1,1443.7 1166.7,1432.7 1146.0,1422.3 1124.9,1412.6 1103.6,1403.6 1082.0,1395.2 1060.2,1387.5 1038.3,1380.3 1016.4,1373.7 994.5,1367.7  A 522.500,522.500 0.00 0,1 1001.0,1345.0 L 1001.0,1345.0 1022.8,1352.1 1044.7,1359.7 1066.5,1367.9 1088.2,1376.7 1109.7,1386.0 1131.1,1396.1 1152.1,1406.7 1172.8,1418.0 1193.1,1429.9 1213.0,1442.4 1232.5,1455.6 1251.4,1469.5 1269.8,1483.9 1287.6,1499.0 1304.8,1514.8 1321.3,1531.1 1337.2,1548.1 1352.4,1565.6 1366.8,1583.7 1380.6,1602.4 1393.6,1621.5 1405.8,1641.2 1417.3,1661.4 1428.0,1682.1 1437.9,1703.2 1447.1,1724.6 1455.4,1746.5 1463.0,1768.7 1469.9,1791.1 1476.0,1813.9 1481.3,1836.8 1485.9,1859.9 1489.9,1883.2 1493.1,1906.5 1495.7,1929.8 1497.6,1953.2 1499.0,1976.4 1499.8,1999.6 1500.0,2022.5  Z" style="stroke-width: 0.5;  stroke: rgb(0,0,0); fill: rgb(179,177,178);" />
<path d="M 1138.940,1877.680 A 522.500,522.500 0.00 0,1 1124.6,1863.4 L 1124.6,1863.4 1139.0,1849.3 1153.3,1835.2 1167.1,1821.1 1180.5,1807.1 1193.4,1793.3 1205.6,1779.9 1217.1,1766.7 1227.8,1754.0 1237.6,1741.7 1246.4,1730.0 1254.3,1718.9 1261.0,1708.3 1266.7,1698.5 1271.2,1689.4 1274.5,1681.0 1276.6,1673.4 1277.5,1666.6 1277.1,1660.6 1275.4,1655.5 1272.5,1651.2 1268.3,1647.7 1262.9,1645.2 1256.3,1643.4 1248.4,1642.6 1239.4,1642.6 1229.3,1643.4 1218.1,1645.0 1205.8,1647.4 1192.5,1650.6 1178.4,1654.4 1163.4,1659.0 1147.6,1664.2 1131.1,1670.0 1114.1,1676.4 1096.5,1683.3 1078.6,1690.5 1060.3,1698.2 1041.9,1706.2 1023.5,1714.4  A 522.500,522.500 0.00 0,1 1015.3,1695.0 L 1015.3,1695.0 1034.1,1687.6 1052.9,1680.4 1071.5,1673.5 1089.9,1667.1 1107.8,1661.1 1125.3,1655.6 1142.3,1650.7 1158.5,1646.4 1174.1,1642.8 1188.7,1639.8 1202.5,1637.6 1215.3,1636.2 1227.1,1635.5 1237.8,1635.7 1247.4,1636.7 1255.9,1638.5 1263.1,1641.2 1269.2,1644.8 1274.0,1649.2 1277.6,1654.5 1279.9,1660.5 1280.9,1667.5 1280.7,1675.2 1279.3,1683.7 1276.7,1693.0 1272.8,1703.0 1267.9,1713.8 1261.8,1725.1 1254.6,1737.1 1246.4,1749.6 1237.3,1762.7 1227.3,1776.2 1216.4,1790.1 1204.8,1804.3 1192.6,1818.8 1179.8,1833.4 1166.5,1848.2 1152.8,1863.0 1138.9,1877.7  Z" style="stroke-width: 0.5;  stroke: rgb(0,0,0); fill: rgb(179,177,178);" />
<path d="M 1518.488,977.827 A 522.500,522.500 0.00 0,1 1539.1,979.0 L 1539.1,979.0 1537.4,999.7 1535.2,1020.3 1532.5,1040.7 1529.4,1060.8 1525.8,1080.5 1521.6,1099.7 1517.0,1118.2 1511.7,1136.1 1506.0,1153.1 1499.6,1169.3 1492.7,1184.5 1485.2,1198.7 1477.2,1211.9 1468.6,1223.9 1459.4,1234.7 1449.6,1244.4 1439.3,1252.8 1428.4,1259.9 1417.1,1265.8 1405.2,1270.3 1392.8,1273.6 1380.0,1275.5 1366.7,1276.1 1353.0,1275.5 1338.9,1273.5 1324.4,1270.4 1309.7,1266.0 1294.6,1260.4 1279.3,1253.7 1263.8,1245.9 1248.1,1237.1 1232.3,1227.3 1216.4,1216.6 1200.5,1205.1 1184.7,1192.9 1168.9,1180.0 1153.3,1166.6 1137.9,1152.7 1122.8,1138.5  A 522.500,522.500 0.00 0,1 1137.5,1123.7 L 1137.5,1123.7 1152.0,1138.4 1166.7,1152.9 1181.6,1166.8 1196.6,1180.3 1211.7,1193.1 1226.8,1205.1 1241.9,1216.4 1256.9,1226.8 1271.7,1236.1 1286.4,1244.5 1300.9,1251.8 1315.0,1257.9 1328.9,1262.8 1342.5,1266.5 1355.6,1268.9 1368.4,1270.0 1380.7,1269.8 1392.6,1268.3 1404.0,1265.5 1414.9,1261.3 1425.2,1255.8 1435.1,1249.0 1444.4,1240.9 1453.1,1231.6 1461.3,1221.0 1468.9,1209.2 1475.9,1196.3 1482.4,1182.2 1488.3,1167.2 1493.7,1151.2 1498.4,1134.3 1502.7,1116.5 1506.4,1098.1 1509.6,1079.0 1512.3,1059.4 1514.5,1039.4 1516.2,1019.0 1517.6,998.5 1518.5,977.8  Z" style="stroke-width: 0.5;  stroke: rgb(0,0,0); fill: rgb(179,177,178);" />
<path d="M 1768.044,1051.493 A 522.500,522.500 0.00 0,1 1784.8,1061.9 L 1784.8,1061.9 1772.5,1080.3 1759.7,1098.5 1746.4,1116.4 1732.5,1133.9 1718.2,1151.0 1703.3,1167.6 1688.0,1183.5 1672.2,1198.8 1655.9,1213.4 1639.2,1227.2 1622.1,1240.2 1604.6,1252.3 1586.7,1263.5 1568.4,1273.8 1549.8,1283.0 1530.9,1291.3 1511.6,1298.5 1492.1,1304.6 1472.3,1309.7 1452.3,1313.7 1432.1,1316.6 1411.7,1318.5 1391.2,1319.2 1370.6,1318.9 1349.8,1317.5 1329.0,1315.1 1308.2,1311.6 1287.3,1307.2 1266.5,1301.8 1245.8,1295.4 1225.2,1288.2 1204.7,1280.2 1184.4,1271.3 1164.4,1261.8 1144.5,1251.5 1125.0,1240.7 1105.8,1229.3 1087.0,1217.4 1068.6,1205.2  A 522.500,522.500 0.00 0,1 1079.8,1189.4 L 1079.8,1189.4 1097.6,1202.2 1115.8,1214.6 1134.4,1226.6 1153.3,1238.0 1172.5,1248.9 1192.0,1259.0 1211.6,1268.4 1231.5,1276.9 1251.5,1284.6 1271.5,1291.5 1291.7,1297.3 1311.8,1302.2 1332.0,1306.0 1352.1,1308.8 1372.2,1310.5 1392.2,1311.1 1412.0,1310.7 1431.7,1309.0 1451.2,1306.3 1470.4,1302.4 1489.5,1297.5 1508.3,1291.4 1526.8,1284.2 1544.9,1275.9 1562.8,1266.6 1580.3,1256.3 1597.4,1245.0 1614.2,1232.7 1630.5,1219.5 1646.4,1205.5 1661.8,1190.7 1676.9,1175.1 1691.4,1158.9 1705.4,1142.1 1719.0,1124.7 1732.0,1106.9 1744.6,1088.7 1756.6,1070.2 1768.0,1051.5  Z" style="stroke-width: 0.5;  stroke: rgb(0,0,0); fill: rgb(179,177,178);" />
<path d="M 1519.545,2022.134 A 522.500,522.500 0.00 0,1 1500.0,2022.5 L 1500.0,2022.5 1499.8,1999.6 1499.0,1976.4 1497.6,1953.2 1495.7,1929.8 1493.1,1906.5 1489.9,1883.1 1486.0,1859.9 1481.3,1836.8 1476.0,1813.8 1469.9,1791.1 1463.1,1768.6 1455.5,1746.4 1447.1,1724.5 1438.0,1703.0 1428.0,1681.9 1417.4,1661.3 1405.9,1641.1 1393.6,1621.4 1380.7,1602.1 1366.9,1583.5 1352.5,1565.3 1337.3,1547.8 1321.4,1530.8 1304.9,1514.4 1287.7,1498.7 1269.9,1483.6 1251.5,1469.1 1232.6,1455.2 1213.2,1442.0 1193.3,1429.4 1173.0,1417.4 1152.3,1406.1 1131.3,1395.5 1110.0,1385.4 1088.4,1376.0 1066.7,1367.2 1044.9,1359.0 1023.1,1351.3 1001.3,1344.2  A 522.500,522.500 0.00 0,1 1007.5,1325.6 L 1007.5,1325.6 1029.2,1333.5 1051.0,1342.0 1072.7,1351.1 1094.3,1360.8 1115.7,1371.0 1137.0,1381.9 1157.9,1393.3 1178.6,1405.4 1198.9,1418.1 1218.7,1431.4 1238.2,1445.3 1257.1,1459.8 1275.6,1475.0 1293.5,1490.7 1310.8,1507.1 1327.5,1524.0 1343.6,1541.5 1359.0,1559.5 1373.7,1578.1 1387.8,1597.2 1401.1,1616.8 1413.8,1636.9 1425.7,1657.5 1436.8,1678.5 1447.2,1699.9 1456.9,1721.7 1465.9,1743.8 1474.1,1766.2 1481.6,1788.9 1488.3,1811.9 1494.4,1835.0 1499.7,1858.3 1504.4,1881.8 1508.4,1905.3 1511.8,1928.8 1514.6,1952.3 1516.8,1975.7 1518.4,1999.0 1519.5,2022.1  Z" style="stroke-width: 0.5;  stroke: rgb(0,0,0); fill: rgb(179,177,178);" />
<path d="M 1363.970,2004.482 A 522.500,522.500 0.00 0,1 1348.0,1999.9 L 1348.0,1999.9 1354.0,1979.3 1359.6,1958.4 1364.5,1937.4 1368.8,1916.4 1372.5,1895.3 1375.4,1874.4 1377.5,1853.6 1378.8,1833.0 1379.2,1812.7 1378.7,1792.7 1377.3,1773.1 1374.9,1754.0 1371.6,1735.3 1367.2,1717.2 1361.8,1699.6 1355.4,1682.7 1348.0,1666.3 1339.6,1650.7 1330.1,1635.8 1319.7,1621.5 1308.3,1608.1 1295.8,1595.3 1282.5,1583.4 1268.2,1572.2 1253.1,1561.8 1237.1,1552.3 1220.3,1543.5 1202.7,1535.5 1184.4,1528.3 1165.5,1521.9 1146.0,1516.2 1126.0,1511.3 1105.5,1507.1 1084.6,1503.6 1063.5,1500.8 1042.1,1498.6 1020.6,1497.1 999.0,1496.1 977.5,1495.7  A 522.500,522.500 0.00 0,1 977.9,1479.0 L 977.9,1479.0 999.5,1480.2 1021.2,1481.8 1042.8,1484.1 1064.3,1487.0 1085.6,1490.5 1106.6,1494.7 1127.2,1499.6 1147.4,1505.3 1167.1,1511.7 1186.2,1518.8 1204.7,1526.7 1222.5,1535.4 1239.5,1544.8 1255.8,1555.1 1271.2,1566.1 1285.8,1577.9 1299.5,1590.4 1312.3,1603.8 1324.1,1617.8 1335.0,1632.6 1344.9,1648.1 1353.8,1664.3 1361.7,1681.1 1368.6,1698.6 1374.5,1716.6 1379.4,1735.2 1383.3,1754.3 1386.3,1773.9 1388.3,1793.8 1389.4,1814.2 1389.6,1834.9 1388.9,1855.8 1387.5,1877.0 1385.2,1898.3 1382.2,1919.7 1378.5,1941.0 1374.2,1962.4 1369.4,1983.5 1364.0,2004.5  Z" style="stroke-width: 0.5;  stroke: rgb(0,0,0); fill: rgb(179,177,178);" />
<path d="M 1559.052,980.848 A 522.500,522.500 0.00 0,1 1574.3,982.8 L 1574.3,982.8 1571.1,1003.5 1567.4,1024.2 1563.3,1044.7 1558.6,1064.8 1553.4,1084.6 1547.6,1103.9 1541.3,1122.5 1534.4,1140.5 1527.0,1157.7 1519.0,1174.0 1510.4,1189.5 1501.2,1203.9 1491.5,1217.4 1481.2,1229.7 1470.3,1241.0 1458.9,1251.0 1446.9,1259.9 1434.4,1267.6 1421.4,1274.0 1407.9,1279.1 1394.0,1283.0 1379.6,1285.6 1364.7,1287.0 1349.5,1287.1 1333.9,1286.0 1318.0,1283.6 1301.8,1280.1 1285.3,1275.4 1268.6,1269.6 1251.7,1262.8 1234.7,1254.9 1217.6,1246.1 1200.5,1236.4 1183.4,1225.9 1166.3,1214.6 1149.4,1202.7 1132.6,1190.2 1116.1,1177.3 1099.9,1163.9  A 522.500,522.500 0.00 0,1 1110.2,1152.1 L 1110.2,1152.1 1125.9,1165.8 1141.9,1179.2 1158.2,1192.1 1174.6,1204.5 1191.1,1216.2 1207.7,1227.2 1224.2,1237.3 1240.7,1246.6 1257.2,1254.9 1273.4,1262.2 1289.5,1268.4 1305.4,1273.5 1321.0,1277.4 1336.2,1280.2 1351.2,1281.7 1365.7,1281.9 1379.9,1280.9 1393.6,1278.6 1406.8,1275.0 1419.6,1270.1 1431.9,1264.0 1443.7,1256.5 1454.9,1247.9 1465.6,1238.0 1475.8,1226.9 1485.3,1214.7 1494.3,1201.4 1502.8,1187.1 1510.6,1171.7 1517.9,1155.4 1524.6,1138.3 1530.8,1120.4 1536.4,1101.8 1541.4,1082.6 1545.9,1062.8 1549.9,1042.7 1553.4,1022.2 1556.5,1001.6 1559.1,980.8  Z" style="stroke-width: 0.5;  stroke: rgb(0,0,0); fill: rgb(179,177,178);" />
<path d="M 1309.909,1986.695 A 522.500,522.500 0.00 0,1 1296.0,1981.0 L 1296.0,1981.0 1304.0,1961.5 1311.5,1941.8 1318.6,1922.0 1325.0,1902.2 1330.8,1882.4 1335.8,1862.7 1340.0,1843.3 1343.4,1824.0 1346.0,1805.1 1347.5,1786.6 1348.1,1768.6 1347.7,1751.0 1346.3,1734.0 1343.8,1717.5 1340.3,1701.7 1335.6,1686.6 1329.9,1672.2 1323.1,1658.4 1315.2,1645.5 1306.2,1633.3 1296.2,1621.9 1285.1,1611.4 1273.0,1601.6 1260.0,1592.7 1245.9,1584.6 1230.9,1577.4 1215.1,1571.0 1198.5,1565.4 1181.0,1560.6 1162.9,1556.6 1144.1,1553.4 1124.7,1550.9 1104.9,1549.2 1084.6,1548.2 1064.0,1547.8 1043.2,1548.1 1022.2,1548.9 1001.1,1550.3 980.1,1552.2  A 522.500,522.500 0.00 0,1 978.8,1537.3 L 978.8,1537.3 1000.0,1536.0 1021.2,1535.3 1042.3,1535.0 1063.4,1535.4 1084.1,1536.4 1104.6,1538.1 1124.6,1540.5 1144.2,1543.6 1163.2,1547.5 1181.6,1552.1 1199.2,1557.5 1216.2,1563.8 1232.3,1570.8 1247.6,1578.7 1261.9,1587.4 1275.3,1596.9 1287.8,1607.3 1299.3,1618.4 1309.7,1630.4 1319.1,1643.1 1327.4,1656.6 1334.7,1670.9 1340.8,1685.8 1346.0,1701.5 1350.0,1717.8 1353.0,1734.7 1355.0,1752.2 1355.9,1770.2 1355.9,1788.7 1354.8,1807.6 1352.9,1826.9 1350.1,1846.5 1346.4,1866.3 1342.0,1886.4 1336.8,1906.5 1330.9,1926.7 1324.4,1946.9 1317.4,1966.9 1309.9,1986.7  Z" style="stroke-width: 0.5;  stroke: rgb(0,0,0); fill: rgb(179,177,178);" />
<path d="M 1504.584,977.520 A 522.500,522.500 0.00 0,1 1517.3,977.8 L 1517.3,977.8 1516.4,998.4 1515.1,1019.0 1513.4,1039.3 1511.3,1059.4 1508.6,1079.0 1505.5,1098.1 1501.8,1116.5 1497.7,1134.2 1492.9,1151.1 1487.6,1167.1 1481.8,1182.2 1475.3,1196.2 1468.4,1209.1 1460.8,1220.9 1452.7,1231.5 1444.0,1240.9 1434.7,1249.0 1424.9,1255.8 1414.6,1261.2 1403.7,1265.4 1392.4,1268.3 1380.5,1269.8 1368.2,1269.9 1355.5,1268.8 1342.4,1266.4 1328.9,1262.7 1315.0,1257.8 1300.9,1251.6 1286.4,1244.4 1271.8,1236.0 1257.0,1226.6 1242.0,1216.3 1226.9,1205.0 1211.8,1192.9 1196.7,1180.1 1181.7,1166.7 1166.8,1152.7 1152.1,1138.3 1137.7,1123.5  A 522.500,522.500 0.00 0,1 1147.0,1114.8 L 1147.0,1114.8 1161.0,1129.8 1175.3,1144.6 1189.8,1158.9 1204.3,1172.6 1218.9,1185.8 1233.5,1198.2 1248.1,1209.8 1262.6,1220.5 1276.9,1230.3 1291.0,1239.0 1304.9,1246.6 1318.5,1253.0 1331.8,1258.2 1344.7,1262.2 1357.2,1265.0 1369.4,1266.4 1381.1,1266.5 1392.3,1265.2 1403.0,1262.7 1413.3,1258.7 1423.0,1253.5 1432.1,1246.9 1440.8,1239.0 1448.8,1229.8 1456.3,1219.4 1463.3,1207.8 1469.6,1195.0 1475.4,1181.1 1480.7,1166.2 1485.3,1150.3 1489.5,1133.4 1493.0,1115.8 1496.1,1097.4 1498.6,1078.4 1500.7,1058.9 1502.3,1038.9 1503.5,1018.6 1504.2,998.1 1504.6,977.5  Z" style="stroke-width: 0.5;  stroke: rgb(0,0,0); fill: rgb(179,177,178);" />
<path d="M 1476.539,2021.973 A 522.500,522.500 0.00 0,1 1464.0,2021.3 L 1464.0,2021.3 1465.3,1998.7 1466.0,1976.0 1466.2,1953.1 1465.8,1930.2 1464.7,1907.2 1462.9,1884.3 1460.4,1861.5 1457.1,1838.8 1453.1,1816.3 1448.3,1794.1 1442.7,1772.1 1436.2,1750.5 1429.0,1729.2 1420.9,1708.4 1411.9,1687.9 1402.1,1668.0 1391.5,1648.6 1380.0,1629.7 1367.7,1611.4 1354.6,1593.6 1340.7,1576.5 1326.0,1560.0 1310.6,1544.1 1294.4,1528.9 1277.6,1514.3 1260.0,1500.4 1241.9,1487.2 1223.1,1474.7 1203.7,1462.9 1183.9,1451.7 1163.6,1441.3 1142.9,1431.5 1121.8,1422.4 1100.4,1413.9 1078.8,1406.1 1057.0,1398.9 1035.1,1392.4 1013.1,1386.4 991.2,1381.0  A 522.500,522.500 0.00 0,1 994.3,1368.7 L 994.3,1368.7 1016.2,1374.7 1038.1,1381.2 1060.0,1388.3 1081.7,1396.0 1103.4,1404.4 1124.7,1413.4 1145.8,1423.0 1166.5,1433.3 1186.9,1444.3 1206.8,1455.9 1226.1,1468.2 1245.0,1481.2 1263.3,1494.8 1280.9,1509.1 1297.9,1524.1 1314.2,1539.7 1329.8,1555.9 1344.7,1572.8 1358.8,1590.3 1372.1,1608.4 1384.7,1627.0 1396.4,1646.2 1407.4,1665.9 1417.5,1686.1 1426.8,1706.7 1435.3,1727.8 1442.9,1749.3 1449.8,1771.1 1455.8,1793.2 1461.1,1815.7 1465.6,1838.3 1469.3,1861.2 1472.3,1884.1 1474.6,1907.2 1476.2,1930.3 1477.2,1953.4 1477.5,1976.4 1477.3,1999.3 1476.5,2022.0  Z" style="stroke-width: 0.5;  stroke: rgb(0,0,0); fill: rgb(179,177,178);" />
<path d="M 1462.072,2021.122 A 522.500,522.500 0.00 0,1 1449.9,2020.1 L 1449.9,2020.1 1451.8,1997.7 1453.1,1975.2 1453.9,1952.5 1454.0,1929.7 1453.5,1906.9 1452.3,1884.1 1450.4,1861.5 1447.6,1839.0 1444.2,1816.7 1439.9,1794.6 1434.7,1772.9 1428.8,1751.4 1422.0,1730.4 1414.3,1709.8 1405.8,1689.6 1396.4,1670.0 1386.1,1650.8 1375.0,1632.2 1363.0,1614.2 1350.2,1596.8 1336.5,1580.0 1322.1,1563.8 1306.9,1548.3 1290.9,1533.5 1274.2,1519.3 1256.8,1505.9 1238.8,1493.1 1220.1,1481.0 1200.8,1469.7 1181.1,1459.0 1160.8,1449.0 1140.1,1439.8 1119.1,1431.1 1097.7,1423.2 1076.1,1415.9 1054.3,1409.3 1032.4,1403.3 1010.5,1397.8 988.6,1393.0  A 522.500,522.500 0.00 0,1 991.2,1381.0 L 991.2,1381.0 1013.1,1386.4 1035.1,1392.4 1057.0,1398.9 1078.7,1406.1 1100.3,1413.9 1121.7,1422.4 1142.8,1431.5 1163.5,1441.3 1183.8,1451.7 1203.6,1462.9 1222.9,1474.7 1241.6,1487.2 1259.8,1500.4 1277.3,1514.3 1294.1,1528.9 1310.3,1544.1 1325.7,1560.0 1340.3,1576.5 1354.1,1593.6 1367.2,1611.4 1379.4,1629.7 1390.8,1648.6 1401.4,1668.0 1411.1,1687.9 1420.0,1708.3 1428.1,1729.2 1435.3,1750.4 1441.6,1772.1 1447.2,1794.0 1451.9,1816.3 1455.9,1838.7 1459.0,1861.4 1461.5,1884.2 1463.2,1907.2 1464.2,1930.1 1464.5,1953.0 1464.3,1975.9 1463.4,1998.6 1462.1,2021.1  Z" style="stroke-width: 0.5;  stroke: rgb(0,0,0); fill: rgb(179,177,178);" />
<path d="M 1540.524,979.074 A 522.500,522.500 0.00 0,1 1550.4,979.9 L 1550.4,979.9 1548.2,1000.6 1545.5,1021.3 1542.4,1041.7 1538.7,1061.9 1534.6,1081.6 1530.0,1100.8 1524.8,1119.4 1519.0,1137.2 1512.7,1154.3 1505.9,1170.6 1498.4,1185.9 1490.4,1200.1 1481.8,1213.4 1472.7,1225.5 1462.9,1236.5 1452.7,1246.2 1441.8,1254.8 1430.5,1262.1 1418.6,1268.1 1406.2,1272.8 1393.3,1276.3 1380.0,1278.4 1366.2,1279.2 1352.0,1278.8 1337.5,1277.1 1322.6,1274.2 1307.4,1270.0 1291.9,1264.7 1276.1,1258.2 1260.2,1250.7 1244.1,1242.2 1227.9,1232.7 1211.6,1222.3 1195.4,1211.1 1179.2,1199.1 1163.1,1186.5 1147.1,1173.3 1131.4,1159.7 1115.9,1145.8  A 522.500,522.500 0.00 0,1 1122.8,1138.5 L 1122.8,1138.5 1137.9,1152.7 1153.3,1166.6 1168.9,1180.0 1184.7,1192.9 1200.5,1205.1 1216.5,1216.6 1232.3,1227.3 1248.2,1237.1 1263.9,1245.9 1279.4,1253.7 1294.7,1260.4 1309.8,1266.0 1324.6,1270.4 1339.1,1273.6 1353.2,1275.5 1366.9,1276.2 1380.3,1275.5 1393.1,1273.6 1405.5,1270.4 1417.5,1265.8 1428.9,1260.0 1439.8,1252.8 1450.1,1244.4 1459.9,1234.8 1469.2,1223.9 1477.9,1211.9 1486.0,1198.8 1493.5,1184.6 1500.5,1169.4 1506.9,1153.2 1512.7,1136.1 1518.0,1118.3 1522.7,1099.8 1526.9,1080.6 1530.6,1060.9 1533.8,1040.8 1536.5,1020.4 1538.7,999.8 1540.5,979.1  Z" style="stroke-width: 0.5;  stroke: rgb(0,0,0); fill: rgb(179,177,178);" />
<path d="M 1373.610,2006.983 A 522.500,522.500 0.00 0,1 1364.5,2004.6 L 1364.5,2004.6 1369.9,1983.7 1374.7,1962.5 1379.0,1941.1 1382.7,1919.7 1385.6,1898.4 1387.9,1877.0 1389.3,1855.9 1390.0,1834.9 1389.7,1814.2 1388.6,1793.8 1386.6,1773.8 1383.6,1754.2 1379.6,1735.0 1374.7,1716.4 1368.8,1698.3 1361.9,1680.9 1354.0,1664.0 1345.1,1647.8 1335.2,1632.2 1324.3,1617.4 1312.5,1603.3 1299.7,1589.9 1286.0,1577.3 1271.4,1565.4 1255.9,1554.4 1239.6,1544.1 1222.6,1534.5 1204.8,1525.8 1186.3,1517.8 1167.2,1510.6 1147.5,1504.2 1127.3,1498.5 1106.7,1493.5 1085.7,1489.2 1064.4,1485.6 1042.9,1482.7 1021.3,1480.3 999.6,1478.6 978.0,1477.4  A 522.500,522.500 0.00 0,1 978.5,1468.1 L 978.5,1468.1 1000.1,1469.6 1021.9,1471.8 1043.5,1474.5 1065.1,1477.9 1086.5,1481.9 1107.5,1486.6 1128.2,1492.0 1148.5,1498.1 1168.3,1504.9 1187.5,1512.5 1206.1,1520.9 1224.0,1530.0 1241.2,1539.9 1257.6,1550.5 1273.2,1562.0 1288.0,1574.2 1301.9,1587.1 1314.9,1600.8 1326.9,1615.3 1338.0,1630.4 1348.2,1646.2 1357.3,1662.8 1365.5,1679.9 1372.7,1697.7 1378.9,1716.0 1384.1,1734.9 1388.4,1754.2 1391.7,1774.1 1394.1,1794.3 1395.5,1814.9 1396.1,1835.8 1395.9,1857.0 1394.8,1878.3 1392.9,1899.8 1390.3,1921.4 1387.0,1943.0 1383.1,1964.5 1378.6,1985.8 1373.6,2007.0  Z" style="stroke-width: 0.5;  stroke: rgb(0,0,0); fill: rgb(179,177,178);" />
<path d="M 1295.971,1981.018 A 522.500,522.500 0.00 0,1 1287.6,1977.4 L 1287.6,1977.4 1296.0,1958.1 1303.9,1938.6 1311.2,1919.0 1318.0,1899.4 1324.1,1879.8 1329.5,1860.4 1334.1,1841.2 1337.8,1822.2 1340.6,1803.6 1342.6,1785.4 1343.5,1767.6 1343.4,1750.3 1342.3,1733.6 1340.1,1717.4 1336.9,1701.9 1332.6,1687.1 1327.1,1673.0 1320.6,1659.7 1313.0,1647.1 1304.3,1635.3 1294.5,1624.3 1283.6,1614.1 1271.8,1604.7 1258.9,1596.2 1245.1,1588.5 1230.3,1581.7 1214.6,1575.7 1198.2,1570.5 1180.9,1566.2 1162.9,1562.6 1144.3,1559.9 1125.0,1557.8 1105.3,1556.5 1085.2,1555.9 1064.7,1556.0 1043.9,1556.7 1023.0,1557.9 1002.1,1559.7 981.2,1562.0  A 522.500,522.500 0.00 0,1 980.2,1553.1 L 980.2,1553.1 1001.2,1551.2 1022.2,1549.8 1043.2,1548.9 1064.1,1548.6 1084.7,1548.9 1105.0,1549.9 1124.8,1551.6 1144.2,1554.0 1162.9,1557.2 1181.1,1561.1 1198.5,1565.9 1215.2,1571.4 1231.0,1577.8 1245.9,1585.0 1260.0,1593.1 1273.1,1602.0 1285.2,1611.7 1296.2,1622.2 1306.3,1633.6 1315.2,1645.7 1323.1,1658.7 1329.9,1672.4 1335.6,1686.8 1340.3,1701.9 1343.8,1717.7 1346.3,1734.1 1347.7,1751.1 1348.1,1768.7 1347.5,1786.7 1346.0,1805.2 1343.4,1824.1 1340.1,1843.3 1335.8,1862.8 1330.8,1882.4 1325.0,1902.2 1318.6,1922.0 1311.5,1941.8 1304.0,1961.5 1296.0,1981.0  Z" style="stroke-width: 0.5;  stroke: rgb(0,0,0); fill: rgb(179,177,178);" />
<path d="M 1347.033,1999.607 A 522.500,522.500 0.00 0,1 1339.6,1997.3 L 1339.6,1997.3 1345.9,1976.8 1351.8,1956.1 1357.1,1935.3 1361.7,1914.4 1365.7,1893.6 1369.0,1872.8 1371.4,1852.2 1373.1,1831.8 1373.8,1811.7 1373.7,1791.9 1372.6,1772.6 1370.5,1753.6 1367.4,1735.2 1363.4,1717.3 1358.3,1700.0 1352.2,1683.3 1345.0,1667.3 1336.8,1651.9 1327.6,1637.2 1317.4,1623.3 1306.2,1610.1 1294.0,1597.7 1280.8,1586.1 1266.7,1575.3 1251.7,1565.2 1235.9,1556.0 1219.2,1547.5 1201.8,1539.9 1183.6,1533.1 1164.8,1527.0 1145.4,1521.7 1125.5,1517.1 1105.1,1513.3 1084.3,1510.2 1063.2,1507.7 1041.9,1505.9 1020.4,1504.7 998.9,1504.1 977.5,1504.0  A 522.500,522.500 0.00 0,1 977.5,1496.0 L 977.5,1496.0 999.0,1496.4 1020.5,1497.4 1042.1,1498.9 1063.4,1501.1 1084.6,1503.9 1105.4,1507.3 1125.9,1511.5 1145.9,1516.4 1165.4,1522.1 1184.3,1528.5 1202.6,1535.7 1220.1,1543.6 1236.9,1552.4 1252.9,1562.0 1268.0,1572.3 1282.3,1583.5 1295.6,1595.4 1308.0,1608.1 1319.4,1621.6 1329.9,1635.8 1339.3,1650.7 1347.7,1666.3 1355.1,1682.6 1361.4,1699.6 1366.7,1717.1 1371.1,1735.2 1374.4,1753.9 1376.7,1773.0 1378.1,1792.6 1378.6,1812.5 1378.1,1832.8 1376.8,1853.4 1374.6,1874.2 1371.7,1895.1 1368.0,1916.1 1363.6,1937.2 1358.6,1958.1 1353.1,1979.0 1347.0,1999.6  Z" style="stroke-width: 0.5;  stroke: rgb(0,0,0); fill: rgb(179,177,178);" />
<path d="M 1844.994,1107.591 A 522.500,522.500 0.00 0,1 1849.2,1111.4 L 1849.2,1111.4 1834.0,1128.0 1818.2,1144.4 1801.9,1160.4 1785.1,1176.1 1767.8,1191.3 1750.1,1206.0 1731.9,1220.1 1713.4,1233.5 1694.4,1246.3 1675.1,1258.4 1655.4,1269.6 1635.4,1280.1 1615.0,1289.7 1594.4,1298.4 1573.5,1306.2 1552.3,1313.1 1531.0,1319.0 1509.4,1324.0 1487.7,1328.0 1465.8,1331.0 1443.8,1333.0 1421.6,1334.0 1399.5,1334.0 1377.2,1333.0 1355.0,1331.1 1332.8,1328.2 1310.6,1324.4 1288.5,1319.7 1266.5,1314.2 1244.7,1307.7 1223.0,1300.5 1201.5,1292.5 1180.2,1283.8 1159.2,1274.4 1138.5,1264.4 1118.1,1253.8 1098.1,1242.7 1078.5,1231.2 1059.3,1219.3  A 522.500,522.500 0.00 0,1 1062.6,1214.2 L 1062.6,1214.2 1081.6,1226.3 1101.0,1238.0 1120.8,1249.3 1141.0,1260.1 1161.6,1270.3 1182.4,1279.8 1203.5,1288.7 1224.8,1296.9 1246.3,1304.3 1268.0,1310.9 1289.8,1316.6 1311.7,1321.4 1333.7,1325.3 1355.7,1328.3 1377.8,1330.3 1399.8,1331.4 1421.8,1331.4 1443.8,1330.5 1465.6,1328.5 1487.3,1325.6 1508.8,1321.6 1530.2,1316.7 1551.4,1310.7 1572.3,1303.8 1593.1,1296.0 1613.5,1287.2 1633.6,1277.5 1653.5,1267.0 1673.0,1255.7 1692.1,1243.5 1710.8,1230.7 1729.2,1217.1 1747.1,1202.9 1764.6,1188.1 1781.7,1172.8 1798.3,1157.0 1814.4,1140.8 1829.9,1124.3 1845.0,1107.6  Z" style="stroke-width: 0.5;  stroke: rgb(0,0,0); fill: rgb(179,177,178);" />
</g>
<g id="plot0">
<g id="plot0-axis">
</g>
<line x1='2247.2' y1='1565.3' x2='2247.2' y2='1565.3' style="stroke-width:14.0;stroke:rgb(0,0,0);stroke-linecap:round;fill:none;" />
<line x1='2247.2' y1='1565.3' x2='2287.0' y2='1568.7' style="stroke-width:14.0;stroke:rgb(0,0,0);stroke-linecap:round;fill:none;" />
<line x1='2287.0' y1='1568.7' x2='2287.0' y2='1568.7' style="stroke-width:14.0;stroke:rgb(0,0,0);stroke-linecap:round;fill:none;" />
<text x="2304.7" y="1592.9" font-size="46.8px" font-family="CMUBright-Roman" style="text-anchor:start;fill:rgb(255,38,78);" transform="rotate(5.0,2304.7,1592.9)" >HistocapCB064<tspan baseline-shift="-40%" font-size="90%">s</tspan>00179</text>
</g>
<defs>
<pattern id="vline" width="10" height="10" patternTransform="rotate(0 0 0)" patternUnits="userSpaceOnUse"><line x1="0" y1="0" x2="0" y2="10" style="stroke:black;stroke-width:5" /></pattern>
<pattern id="hline-sparse" width="10" height="10" patternTransform="rotate(0 0 0)" patternUnits="userSpaceOnUse"><line x1="0" y1="0" x2="10" y2="0" style="stroke:black;stroke-width:2" /></pattern>
<pattern id="checker" width="10" height="10" patternTransform="rotate(45 0 0)" patternUnits="userSpaceOnUse"><line x1="0" y1="0" x2="10" y2="0" style="stroke:black;stroke-width:2" /><line x1="0" y1="0" x2="0" y2="10" style="stroke:black;stroke-width:2" /></pattern>
<pattern id="vline-sparse" width="10" height="10" patternTransform="rotate(0 0 0)" patternUnits="userSpaceOnUse"><line x1="0" y1="0" x2="0" y2="10" style="stroke:black;stroke-width:2" /></pattern>
<pattern id="checker" width="10" height="10" patternTransform="rotate(45 0 0)" patternUnits="userSpaceOnUse"><line x1="0" y1="0" x2="10" y2="0" style="stroke:black;stroke-width:5" /><line x1="0" y1="0" x2="0" y2="10" style="stroke:black;stroke-width:4" /></pattern>
<pattern id="hline" width="10" height="10" patternTransform="rotate(0 0 0)" patternUnits="userSpaceOnUse"><line x1="0" y1="0" x2="10" y2="0" style="stroke:black;stroke-width:5" /></pattern>
</defs>
</svg>
