<?xml version="1.0" encoding="utf-8" standalone="no"?>
<!DOCTYPE svg PUBLIC "-//W3C//DTD SVG 1.1//EN" "http://www.w3.org/Graphics/SVG/1.1/DTD/svg11.dtd">
<svg width="3000px" height="3000px" version="1.1" xmlns="http://www.w3.org/2000/svg" xmlns:xlink="http://www.w3.org/1999/xlink">
<g id="bg">
<rect x="0" y="0" width="3000px" height="3000px" style="fill:rgb(255,255,255);"/>
</g>
<g id="ideograms">
<path d="M1500.000,950.000 A550.000,550.000 40.000 0,1 1691.678,2015.519 L1761.379,2202.980 A750.000,750.000 0.000 0,0 1500.000,750.000 Z" style="stroke-width:2.0;stroke:rgb(0,0,0);stroke-linecap:round;fill:rgb(179,177,178);" />
<text x="2459.6" y="1327.4" font-size="46.8px" font-family="CMUBright-Roman" style="text-anchor:middle;fill:rgb(0,0,0);" transform="rotate(439.8,2459.6,1327.4)" >HistocapWGSS14<tspan baseline-shift="-40%" font-size="90%">5</tspan></text>
<line x1='1537.1' y1='750.9' x2='1537.7' y2='738.9' style="stroke-width:8.0;stroke:rgb(150,150,150);stroke-linecap:round;fill:none;" />
<text x="1552.2" y="727.8" font-size="41.6px" font-family="CMUBright-Roman" style="text-anchor:start;fill:rgb(150,150,150);" transform="rotate(272.8,1552.2,727.8)" >300 kb</text>
<line x1='1636.9' y1='762.6' x2='1639.1' y2='750.8' style="stroke-width:8.0;stroke:rgb(150,150,150);stroke-linecap:round;fill:none;" />
<line x1='1734.4' y1='787.6' x2='1738.1' y2='776.2' style="stroke-width:8.0;stroke:rgb(150,150,150);stroke-linecap:round;fill:none;" />
<line x1='1827.5' y1='825.3' x2='1832.8' y2='814.5' style="stroke-width:8.0;stroke:rgb(150,150,150);stroke-linecap:round;fill:none;" />
<line x1='1914.9' y1='875.2' x2='1921.5' y2='865.2' style="stroke-width:8.0;stroke:rgb(150,150,150);stroke-linecap:round;fill:none;" />
<line x1='1994.7' y1='936.3' x2='2002.6' y2='927.3' style="stroke-width:8.0;stroke:rgb(150,150,150);stroke-linecap:round;fill:none;" />
<text x="2021.0" y="927.6" font-size="41.6px" font-family="CMUBright-Roman" style="text-anchor:start;fill:rgb(150,150,150);" transform="rotate(311.3,2021.0,927.6)" >350 kb</text>
<line x1='2065.7' y1='1007.5' x2='2074.7' y2='999.7' style="stroke-width:8.0;stroke:rgb(150,150,150);stroke-linecap:round;fill:none;" />
<line x1='2126.5' y1='1087.6' x2='2136.5' y2='1081.0' style="stroke-width:8.0;stroke:rgb(150,150,150);stroke-linecap:round;fill:none;" />
<line x1='2176.0' y1='1175.1' x2='2186.8' y2='1169.9' style="stroke-width:8.0;stroke:rgb(150,150,150);stroke-linecap:round;fill:none;" />
<line x1='2213.4' y1='1268.5' x2='2224.8' y2='1264.8' style="stroke-width:8.0;stroke:rgb(150,150,150);stroke-linecap:round;fill:none;" />
<line x1='2237.9' y1='1366.0' x2='2249.7' y2='1363.8' style="stroke-width:8.0;stroke:rgb(150,150,150);stroke-linecap:round;fill:none;" />
<text x="2263.9" y="1375.5" font-size="41.6px" font-family="CMUBright-Roman" style="text-anchor:start;fill:rgb(150,150,150);" transform="rotate(349.7,2263.9,1375.5)" >400 kb</text>
<line x1='2249.2' y1='1465.9' x2='2261.2' y2='1465.3' style="stroke-width:8.0;stroke:rgb(150,150,150);stroke-linecap:round;fill:none;" />
<line x1='2247.1' y1='1566.4' x2='2259.0' y2='1567.5' style="stroke-width:8.0;stroke:rgb(150,150,150);stroke-linecap:round;fill:none;" />
<line x1='2231.5' y1='1665.8' x2='2243.2' y2='1668.4' style="stroke-width:8.0;stroke:rgb(150,150,150);stroke-linecap:round;fill:none;" />
<line x1='2202.7' y1='1762.1' x2='2214.0' y2='1766.3' style="stroke-width:8.0;stroke:rgb(150,150,150);stroke-linecap:round;fill:none;" />
<line x1='2161.3' y1='1853.8' x2='2171.9' y2='1859.4' style="stroke-width:8.0;stroke:rgb(150,150,150);stroke-linecap:round;fill:none;" />
<text x="2175.8" y="1877.4" font-size="41.6px" font-family="CMUBright-Roman" style="text-anchor:start;fill:rgb(150,150,150);" transform="rotate(28.1,2175.8,1877.4)" >450 kb</text>
<line x1='2108.1' y1='1939.0' x2='2117.8' y2='1946.1' style="stroke-width:8.0;stroke:rgb(150,150,150);stroke-linecap:round;fill:none;" />
<line x1='2043.9' y1='2016.4' x2='2052.6' y2='2024.7' style="stroke-width:8.0;stroke:rgb(150,150,150);stroke-linecap:round;fill:none;" />
<line x1='1969.9' y1='2084.5' x2='1977.4' y2='2093.9' style="stroke-width:8.0;stroke:rgb(150,150,150);stroke-linecap:round;fill:none;" />
<line x1='1887.5' y1='2142.1' x2='1893.7' y2='2152.4' style="stroke-width:8.0;stroke:rgb(150,150,150);stroke-linecap:round;fill:none;" />
<line x1='1798.1' y1='2188.2' x2='1802.9' y2='2199.2' style="stroke-width:8.0;stroke:rgb(150,150,150);stroke-linecap:round;fill:none;" />
<text x="1794.8" y="2215.7" font-size="41.6px" font-family="CMUBright-Roman" style="text-anchor:start;fill:rgb(150,150,150);" transform="rotate(66.6,1794.8,2215.7)" >500 kb</text>
<g id="highlighttrack_0">
<path d="M2035.628,1375.088 A550.000,550.000 40.000 0,1 2045.580,1430.412 L2243.973,1405.108 A750.000,750.000 0.000 0,0 2230.401,1329.665 Z" style="stroke-width:14.0;stroke:rgb(0,0,0);stroke-linecap:round;fill:rgb(255,38,78);" />
</g>
<path d="M1500.000,950.000 A550.000,550.000 40.000 0,1 1691.678,2015.519 L1761.379,2202.980 A750.000,750.000 0.000 0,0 1500.000,750.000 Z" style="stroke-width:2.0;stroke:rgb(0,0,0);stroke-linecap:round;fill:none;" />
<path d="M1474.418,2049.405 A550.000,550.000 40.000 0,1 1284.552,993.955 L1206.207,809.938 A750.000,750.000 0.000 0,0 1465.115,2249.188 Z" style="stroke-width:2.0;stroke:rgb(0,0,0);stroke-linecap:round;fill:rgb(179,177,178);" />
<text x="496.1" y="1680.6" font-size="46.8px" font-family="CMUBright-Roman" style="text-anchor:middle;fill:rgb(0,0,0);" transform="rotate(79.8,496.1,1680.6)" >HistocapCB062<tspan baseline-shift="-40%" font-size="90%">5</tspan></text>
<line x1='1166.3' y1='828.3' x2='1161.0' y2='817.6' style="stroke-width:8.0;stroke:rgb(150,150,150);stroke-linecap:round;fill:none;" />
<line x1='1079.5' y1='879.0' x2='1072.8' y2='869.0' style="stroke-width:8.0;stroke:rgb(150,150,150);stroke-linecap:round;fill:none;" />
<line x1='1000.2' y1='940.8' x2='992.2' y2='931.9' style="stroke-width:8.0;stroke:rgb(150,150,150);stroke-linecap:round;fill:none;" />
<line x1='929.9' y1='1012.7' x2='920.8' y2='1004.9' style="stroke-width:8.0;stroke:rgb(150,150,150);stroke-linecap:round;fill:none;" />
<line x1='869.8' y1='1093.3' x2='859.7' y2='1086.8' style="stroke-width:8.0;stroke:rgb(150,150,150);stroke-linecap:round;fill:none;" />
<text x="842.2" y="1092.2" font-size="41.6px" font-family="CMUBright-Roman" style="text-anchor:end;fill:rgb(150,150,150);" transform="rotate(32.8,842.2,1092.2)" >350 kb</text>
<line x1='821.1' y1='1181.3' x2='810.2' y2='1176.2' style="stroke-width:8.0;stroke:rgb(150,150,150);stroke-linecap:round;fill:none;" />
<line x1='784.6' y1='1275.0' x2='773.1' y2='1271.4' style="stroke-width:8.0;stroke:rgb(150,150,150);stroke-linecap:round;fill:none;" />
<line x1='760.9' y1='1372.7' x2='749.1' y2='1370.7' style="stroke-width:8.0;stroke:rgb(150,150,150);stroke-linecap:round;fill:none;" />
<line x1='750.5' y1='1472.7' x2='738.5' y2='1472.3' style="stroke-width:8.0;stroke:rgb(150,150,150);stroke-linecap:round;fill:none;" />
<line x1='753.6' y1='1573.2' x2='741.6' y2='1574.4' style="stroke-width:8.0;stroke:rgb(150,150,150);stroke-linecap:round;fill:none;" />
<text x="731.2" y="1589.5" font-size="41.6px" font-family="CMUBright-Roman" style="text-anchor:end;fill:rgb(150,150,150);" transform="rotate(-5.6,731.2,1589.5)" >400 kb</text>
<line x1='770.1' y1='1672.4' x2='758.4' y2='1675.2' style="stroke-width:8.0;stroke:rgb(150,150,150);stroke-linecap:round;fill:none;" />
<line x1='799.7' y1='1768.5' x2='788.5' y2='1772.8' style="stroke-width:8.0;stroke:rgb(150,150,150);stroke-linecap:round;fill:none;" />
<line x1='841.9' y1='1859.8' x2='831.4' y2='1865.5' style="stroke-width:8.0;stroke:rgb(150,150,150);stroke-linecap:round;fill:none;" />
<line x1='896.0' y1='1944.6' x2='886.3' y2='1951.7' style="stroke-width:8.0;stroke:rgb(150,150,150);stroke-linecap:round;fill:none;" />
<line x1='960.8' y1='2021.4' x2='952.2' y2='2029.7' style="stroke-width:8.0;stroke:rgb(150,150,150);stroke-linecap:round;fill:none;" />
<text x="953.4" y="2048.0" font-size="41.6px" font-family="CMUBright-Roman" style="text-anchor:end;fill:rgb(150,150,150);" transform="rotate(-44.0,953.4,2048.0)" >450 kb</text>
<line x1='1035.4' y1='2088.8' x2='1028.0' y2='2098.2' style="stroke-width:8.0;stroke:rgb(150,150,150);stroke-linecap:round;fill:none;" />
<line x1='1118.4' y1='2145.6' x2='1112.3' y2='2156.0' style="stroke-width:8.0;stroke:rgb(150,150,150);stroke-linecap:round;fill:none;" />
<line x1='1208.2' y1='2190.9' x2='1203.5' y2='2201.9' style="stroke-width:8.0;stroke:rgb(150,150,150);stroke-linecap:round;fill:none;" />
<line x1='1303.2' y1='2223.7' x2='1300.1' y2='2235.3' style="stroke-width:8.0;stroke:rgb(150,150,150);stroke-linecap:round;fill:none;" />
<line x1='1401.8' y1='2243.5' x2='1400.2' y2='2255.4' style="stroke-width:8.0;stroke:rgb(150,150,150);stroke-linecap:round;fill:none;" />
<text x="1412.5" y="2269.0" font-size="41.6px" font-family="CMUBright-Roman" style="text-anchor:end;fill:rgb(150,150,150);" transform="rotate(-82.5,1412.5,2269.0)" >500 kb</text>
<path d="M1474.418,2049.405 A550.000,550.000 40.000 0,1 1284.552,993.955 L1206.207,809.938 A750.000,750.000 0.000 0,0 1465.115,2249.188 Z" style="stroke-width:2.0;stroke:rgb(0,0,0);stroke-linecap:round;fill:none;" />
</g>
<g id="track_0">
<path d="M 1850.091,1112.131 A 522.500,522.500 0.00 0,1 1962.8,1257.5 L 1962.8,1257.5 1940.6,1268.9 1918.2,1280.2 1895.4,1291.3 1872.3,1302.1 1849.0,1312.7 1825.3,1323.0 1801.5,1333.0 1777.3,1342.7 1753.0,1352.1 1728.4,1361.1 1703.6,1369.8 1678.6,1378.1 1653.4,1386.0 1628.1,1393.5 1602.6,1400.6 1576.9,1407.3 1551.2,1413.6 1525.2,1419.4 1499.2,1424.8 1473.1,1429.8 1447.0,1434.3 1420.7,1438.4 1394.4,1442.0 1368.1,1445.2 1341.8,1447.9 1315.4,1450.2 1289.1,1452.1 1262.8,1453.5 1236.6,1454.6 1210.4,1455.2 1184.3,1455.4 1158.3,1455.2 1132.4,1454.6 1106.7,1453.7 1081.1,1452.4 1055.6,1450.8 1030.4,1448.9 1005.3,1446.6 980.5,1444.1  A 522.500,522.500 0.00 0,1 1032.3,1267.1 L 1032.3,1267.1 1052.9,1277.0 1073.8,1286.6 1095.2,1295.7 1116.9,1304.3 1138.8,1312.3 1161.1,1319.8 1183.5,1326.5 1206.2,1332.6 1229.0,1337.9 1251.9,1342.5 1274.9,1346.2 1298.0,1349.1 1321.1,1351.2 1344.2,1352.4 1367.3,1352.7 1390.4,1352.1 1413.3,1350.6 1436.2,1348.2 1458.9,1344.8 1481.5,1340.5 1503.8,1335.3 1526.0,1329.2 1547.9,1322.2 1569.6,1314.4 1591.0,1305.6 1612.0,1296.1 1632.8,1285.7 1653.2,1274.5 1673.3,1262.6 1693.0,1250.0 1712.2,1236.7 1731.1,1222.8 1749.5,1208.3 1767.5,1193.2 1785.0,1177.7 1802.0,1161.8 1818.6,1145.5 1834.6,1128.9 1850.1,1112.1  Z" style="stroke-width: 0.5;  stroke: rgb(0,0,0); fill: rgb(179,177,178);" />
<path d="M 2014.524,1590.945 A 522.500,522.500 0.00 0,1 1992.3,1674.9 L 1992.3,1674.9 1969.9,1667.2 1947.1,1659.8 1924.0,1652.9 1900.6,1646.4 1876.9,1640.3 1853.0,1634.8 1828.9,1629.8 1804.6,1625.5 1780.1,1621.7 1755.4,1618.5 1730.7,1616.0 1705.9,1614.2 1681.0,1613.0 1656.1,1612.6 1631.1,1612.8 1606.2,1613.8 1581.3,1615.5 1556.5,1617.9 1531.7,1621.1 1507.1,1625.0 1482.6,1629.6 1458.2,1634.9 1434.0,1641.0 1410.0,1647.7 1386.2,1655.2 1362.7,1663.3 1339.3,1672.0 1316.3,1681.4 1293.5,1691.5 1271.1,1702.1 1248.9,1713.2 1227.1,1724.9 1205.7,1737.0 1184.6,1749.7 1164.0,1762.7 1143.7,1776.1 1123.9,1789.8 1104.5,1803.9 1085.5,1818.1  A 522.500,522.500 0.00 0,1 1038.4,1744.8 L 1038.4,1744.8 1060.3,1733.4 1082.6,1722.1 1105.2,1711.1 1128.1,1700.4 1151.2,1689.9 1174.7,1679.8 1198.5,1670.0 1222.5,1660.5 1246.8,1651.4 1271.3,1642.7 1296.0,1634.4 1320.9,1626.5 1346.0,1619.1 1371.3,1612.1 1396.8,1605.6 1422.4,1599.5 1448.1,1593.9 1474.0,1588.8 1499.9,1584.2 1526.0,1580.1 1552.1,1576.5 1578.3,1573.4 1604.5,1570.8 1630.7,1568.7 1656.9,1567.1 1683.1,1565.9 1709.3,1565.3 1735.5,1565.1 1761.5,1565.4 1787.5,1566.1 1813.4,1567.3 1839.2,1568.9 1864.8,1571.0 1890.3,1573.4 1915.6,1576.2 1940.6,1579.4 1965.5,1583.0 1990.1,1586.8 2014.5,1590.9  Z" style="stroke-width: 0.5;  stroke: rgb(0,0,0); fill: rgb(179,177,178);" />
<path d="M 2018.339,1434.191 A 522.500,522.500 0.00 0,1 2022.2,1516.2 L 2022.2,1516.2 1996.6,1515.5 1970.9,1515.0 1945.0,1514.7 1918.9,1514.6 1892.8,1514.7 1866.5,1515.1 1840.2,1515.7 1813.7,1516.6 1787.2,1517.7 1760.7,1519.1 1734.1,1520.8 1707.4,1522.7 1680.7,1524.9 1654.0,1527.4 1627.3,1530.1 1600.6,1533.2 1573.9,1536.5 1547.2,1540.1 1520.5,1544.0 1493.9,1548.2 1467.4,1552.6 1440.9,1557.4 1414.4,1562.4 1388.1,1567.7 1361.8,1573.3 1335.6,1579.1 1309.5,1585.2 1283.6,1591.5 1257.7,1598.1 1232.0,1605.0 1206.5,1612.0 1181.0,1619.3 1155.8,1626.8 1130.7,1634.5 1105.7,1642.4 1081.0,1650.4 1056.4,1658.7 1032.0,1667.0 1007.9,1675.6  A 522.500,522.500 0.00 0,1 986.2,1595.1 L 986.2,1595.1 1012.4,1590.2 1038.6,1585.4 1064.8,1580.6 1091.1,1575.9 1117.4,1571.2 1143.7,1566.5 1170.1,1561.8 1196.5,1557.2 1222.9,1552.6 1249.3,1548.1 1275.7,1543.6 1302.2,1539.1 1328.7,1534.7 1355.1,1530.3 1381.7,1525.9 1408.2,1521.6 1434.7,1517.4 1461.2,1513.1 1487.8,1509.0 1514.4,1504.8 1540.9,1500.7 1567.5,1496.7 1594.1,1492.7 1620.6,1488.7 1647.2,1484.8 1673.8,1480.9 1700.3,1477.1 1726.9,1473.3 1753.5,1469.5 1780.0,1465.8 1806.6,1462.1 1833.1,1458.5 1859.6,1454.9 1886.1,1451.4 1912.6,1447.9 1939.1,1444.4 1965.5,1441.0 1991.9,1437.6 2018.3,1434.2  Z" style="stroke-width: 0.5;  stroke: rgb(0,0,0); fill: rgb(179,177,178);" />
<path d="M 1652.091,1000.125 A 522.500,522.500 0.00 0,1 1699.0,1016.9 L 1699.0,1016.9 1690.7,1036.4 1681.9,1055.7 1672.7,1074.7 1663.0,1093.3 1652.8,1111.5 1642.2,1129.0 1631.1,1145.9 1619.7,1162.0 1607.7,1177.3 1595.4,1191.6 1582.7,1205.0 1569.6,1217.4 1556.1,1228.6 1542.3,1238.8 1528.1,1247.7 1513.6,1255.5 1498.8,1262.0 1483.8,1267.2 1468.5,1271.2 1452.9,1273.9 1437.1,1275.3 1421.2,1275.4 1405.1,1274.2 1388.8,1271.8 1372.5,1268.1 1356.0,1263.2 1339.6,1257.1 1323.1,1249.9 1306.6,1241.6 1290.2,1232.2 1273.8,1221.8 1257.6,1210.5 1241.5,1198.3 1225.6,1185.3 1209.9,1171.7 1194.5,1157.4 1179.5,1142.5 1164.7,1127.3 1150.4,1111.7  A 522.500,522.500 0.00 0,1 1189.0,1080.1 L 1189.0,1080.1 1201.6,1096.7 1214.5,1113.1 1227.7,1129.0 1241.2,1144.4 1255.0,1159.2 1268.9,1173.3 1282.9,1186.6 1297.1,1198.9 1311.4,1210.4 1325.7,1220.8 1340.0,1230.1 1354.3,1238.2 1368.6,1245.2 1382.8,1250.9 1396.9,1255.3 1410.8,1258.4 1424.6,1260.2 1438.3,1260.7 1451.7,1259.7 1464.9,1257.5 1477.8,1253.8 1490.5,1248.8 1502.9,1242.5 1515.0,1234.9 1526.8,1226.0 1538.3,1215.9 1549.4,1204.5 1560.1,1192.0 1570.5,1178.5 1580.5,1163.9 1590.1,1148.3 1599.3,1131.9 1608.1,1114.7 1616.5,1096.7 1624.5,1078.2 1632.0,1059.2 1639.1,1039.7 1645.8,1020.0 1652.1,1000.1  Z" style="stroke-width: 0.5;  stroke: rgb(0,0,0); fill: rgb(179,177,178);" />
<path d="M 1997.089,1339.037 A 522.500,522.500 0.00 0,1 2008.8,1381.3 L 2008.8,1381.3 1982.9,1387.4 1957.0,1393.4 1931.0,1399.4 1904.9,1405.3 1878.9,1411.2 1852.8,1417.1 1826.7,1423.0 1800.6,1428.8 1774.4,1434.6 1748.2,1440.4 1722.0,1446.1 1695.8,1451.8 1669.6,1457.5 1643.3,1463.1 1617.0,1468.7 1590.7,1474.2 1564.4,1479.7 1538.1,1485.2 1511.8,1490.6 1485.5,1496.0 1459.1,1501.3 1432.8,1506.6 1406.4,1511.8 1380.1,1517.0 1353.7,1522.2 1327.3,1527.3 1301.0,1532.4 1274.6,1537.4 1248.3,1542.4 1221.9,1547.4 1195.6,1552.3 1169.3,1557.1 1142.9,1562.0 1116.6,1566.8 1090.3,1571.5 1064.1,1576.2 1037.8,1580.9 1011.6,1585.5 985.3,1590.1  A 522.500,522.500 0.00 0,1 979.6,1546.5 L 979.6,1546.5 1005.6,1544.1 1031.6,1541.6 1057.8,1539.0 1084.0,1536.2 1110.3,1533.3 1136.6,1530.2 1163.0,1527.0 1189.5,1523.6 1215.9,1520.0 1242.4,1516.3 1268.9,1512.5 1295.5,1508.4 1322.0,1504.2 1348.6,1499.9 1375.1,1495.3 1401.7,1490.6 1428.2,1485.7 1454.7,1480.7 1481.2,1475.5 1507.7,1470.1 1534.1,1464.5 1560.5,1458.8 1586.8,1452.9 1613.1,1446.8 1639.3,1440.6 1665.4,1434.2 1691.5,1427.7 1717.5,1421.0 1743.4,1414.2 1769.2,1407.2 1795.0,1400.1 1820.6,1392.9 1846.2,1385.5 1871.6,1378.0 1897.0,1370.4 1922.2,1362.7 1947.3,1354.9 1972.2,1347.0 1997.1,1339.0  Z" style="stroke-width: 0.5;  stroke: rgb(0,0,0); fill: rgb(179,177,178);" />
<path d="M 2019.933,1551.725 A 522.500,522.500 0.00 0,1 2014.7,1590.1 L 2014.7,1590.1 1990.3,1586.0 1965.6,1582.2 1940.7,1578.7 1915.6,1575.6 1890.3,1572.8 1864.9,1570.4 1839.2,1568.4 1813.5,1566.8 1787.6,1565.6 1761.6,1564.9 1735.5,1564.6 1709.3,1564.8 1683.1,1565.5 1656.9,1566.6 1630.7,1568.3 1604.4,1570.4 1578.2,1573.0 1552.1,1576.1 1525.9,1579.7 1499.9,1583.8 1473.9,1588.5 1448.0,1593.5 1422.3,1599.1 1396.7,1605.2 1371.2,1611.7 1345.9,1618.7 1320.8,1626.1 1295.8,1634.0 1271.1,1642.2 1246.6,1650.9 1222.3,1660.0 1198.3,1669.5 1174.5,1679.3 1151.0,1689.4 1127.8,1699.8 1104.9,1710.6 1082.3,1721.5 1060.0,1732.8 1038.1,1744.2  A 522.500,522.500 0.00 0,1 1021.0,1708.7 L 1021.0,1708.7 1044.1,1698.7 1067.5,1688.9 1091.2,1679.4 1115.2,1670.0 1139.3,1660.9 1163.7,1652.0 1188.3,1643.4 1213.2,1635.0 1238.2,1627.0 1263.4,1619.3 1288.8,1611.9 1314.3,1604.8 1340.0,1598.0 1365.9,1591.6 1391.8,1585.6 1417.9,1579.9 1444.1,1574.7 1470.4,1569.7 1496.7,1565.2 1523.1,1561.1 1549.6,1557.3 1576.1,1553.9 1602.7,1550.9 1629.2,1548.3 1655.8,1546.1 1682.3,1544.3 1708.9,1542.8 1735.3,1541.7 1761.8,1541.0 1788.1,1540.6 1814.4,1540.6 1840.6,1540.9 1866.7,1541.6 1892.6,1542.5 1918.4,1543.8 1944.1,1545.4 1969.6,1547.2 1994.8,1549.4 2019.9,1551.7  Z" style="stroke-width: 0.5;  stroke: rgb(0,0,0); fill: rgb(179,177,178);" />
<path d="M 1895.728,1841.183 A 522.500,522.500 0.00 0,1 1875.1,1863.7 L 1875.1,1863.7 1860.0,1849.3 1844.5,1835.3 1828.8,1821.7 1812.9,1808.7 1796.8,1796.3 1780.7,1784.6 1764.5,1773.8 1748.3,1763.8 1732.2,1754.8 1716.2,1746.9 1700.3,1740.0 1684.6,1734.2 1669.1,1729.6 1653.8,1726.2 1638.9,1724.1 1624.2,1723.2 1609.9,1723.7 1596.0,1725.4 1582.5,1728.4 1569.3,1732.7 1556.7,1738.3 1544.4,1745.2 1532.7,1753.4 1521.4,1762.8 1510.6,1773.4 1500.4,1785.2 1490.6,1798.1 1481.4,1812.0 1472.7,1827.0 1464.6,1842.9 1457.0,1859.7 1449.9,1877.4 1443.3,1895.7 1437.2,1914.7 1431.7,1934.2 1426.6,1954.1 1422.1,1974.4 1418.0,1994.9 1414.3,2015.4  A 522.500,522.500 0.00 0,1 1384.4,2009.6 L 1384.4,2009.6 1389.3,1989.0 1394.7,1968.6 1400.6,1948.4 1407.0,1928.5 1413.9,1909.0 1421.3,1890.1 1429.3,1871.8 1437.8,1854.2 1446.9,1837.3 1456.5,1821.3 1466.6,1806.2 1477.3,1792.1 1488.4,1779.1 1500.1,1767.1 1512.3,1756.2 1525.0,1746.5 1538.2,1738.0 1551.9,1730.8 1566.0,1724.7 1580.5,1719.9 1595.4,1716.4 1610.7,1714.2 1626.3,1713.2 1642.3,1713.4 1658.6,1714.9 1675.1,1717.6 1691.9,1721.4 1708.8,1726.5 1725.9,1732.6 1743.1,1739.7 1760.4,1747.9 1777.8,1757.0 1795.1,1767.0 1812.3,1777.8 1829.4,1789.4 1846.4,1801.6 1863.1,1814.4 1879.6,1827.6 1895.7,1841.2  Z" style="stroke-width: 0.5;  stroke: rgb(0,0,0); fill: rgb(179,177,178);" />
<path d="M 1540.821,979.097 A 522.500,522.500 0.00 0,1 1569.5,982.1 L 1569.5,982.1 1566.6,1002.3 1563.4,1022.4 1559.9,1042.2 1556.1,1061.6 1552.0,1080.5 1547.5,1098.7 1542.7,1116.2 1537.6,1132.8 1532.1,1148.5 1526.3,1163.2 1520.1,1176.9 1513.6,1189.3 1506.8,1200.5 1499.6,1210.5 1492.2,1219.1 1484.4,1226.3 1476.4,1232.2 1468.0,1236.6 1459.4,1239.6 1450.6,1241.1 1441.4,1241.2 1432.1,1239.8 1422.5,1237.1 1412.8,1232.8 1402.9,1227.2 1392.8,1220.3 1382.6,1212.0 1372.3,1202.5 1361.9,1191.7 1351.5,1179.9 1341.0,1166.9 1330.6,1153.0 1320.2,1138.1 1309.8,1122.4 1299.6,1106.1 1289.5,1089.1 1279.5,1071.6 1269.8,1053.8 1260.3,1035.7  A 522.500,522.500 0.00 0,1 1286.3,1023.2 L 1286.3,1023.2 1294.7,1041.7 1303.3,1059.9 1312.1,1077.8 1321.0,1095.3 1330.0,1112.1 1339.1,1128.2 1348.2,1143.5 1357.3,1157.9 1366.4,1171.3 1375.4,1183.7 1384.4,1194.8 1393.2,1204.8 1402.0,1213.5 1410.5,1220.8 1418.9,1226.8 1427.2,1231.4 1435.2,1234.5 1443.0,1236.2 1450.6,1236.4 1457.9,1235.1 1464.9,1232.4 1471.7,1228.2 1478.2,1222.5 1484.4,1215.5 1490.3,1207.0 1495.9,1197.2 1501.2,1186.1 1506.2,1173.7 1510.9,1160.2 1515.2,1145.5 1519.3,1129.9 1523.0,1113.2 1526.4,1095.8 1529.5,1077.5 1532.4,1058.6 1534.9,1039.2 1537.1,1019.4 1539.1,999.3 1540.8,979.1  Z" style="stroke-width: 0.5;  stroke: rgb(0,0,0); fill: rgb(179,177,178);" />
<path d="M 1963.618,1259.034 A 522.500,522.500 0.00 0,1 1975.2,1282.8 L 1975.2,1282.8 1952.2,1293.2 1928.9,1303.5 1905.3,1313.5 1881.5,1323.4 1857.5,1333.0 1833.2,1342.5 1808.7,1351.6 1784.0,1360.6 1759.1,1369.2 1734.1,1377.6 1708.8,1385.6 1683.4,1393.4 1657.9,1400.8 1632.2,1407.9 1606.3,1414.7 1580.4,1421.1 1554.3,1427.2 1528.1,1432.9 1501.9,1438.3 1475.6,1443.3 1449.2,1447.9 1422.7,1452.2 1396.3,1456.1 1369.8,1459.7 1343.3,1462.9 1316.7,1465.7 1290.2,1468.2 1263.8,1470.3 1237.3,1472.0 1210.9,1473.5 1184.6,1474.6 1158.4,1475.3 1132.2,1475.8 1106.2,1475.9 1080.3,1475.8 1054.5,1475.3 1028.9,1474.6 1003.5,1473.7 978.2,1472.5  A 522.500,522.500 0.00 0,1 980.3,1445.8 L 980.3,1445.8 1005.2,1448.3 1030.2,1450.5 1055.5,1452.3 1081.0,1453.9 1106.6,1455.1 1132.4,1455.9 1158.3,1456.4 1184.3,1456.6 1210.4,1456.3 1236.6,1455.6 1262.9,1454.6 1289.2,1453.1 1315.5,1451.2 1341.9,1448.8 1368.2,1446.1 1394.5,1442.9 1420.8,1439.2 1447.1,1435.1 1473.3,1430.6 1499.4,1425.6 1525.4,1420.2 1551.4,1414.4 1577.2,1408.2 1602.8,1401.5 1628.4,1394.4 1653.7,1386.9 1678.9,1379.0 1704.0,1370.8 1728.8,1362.1 1753.4,1353.1 1777.8,1343.8 1801.9,1334.2 1825.9,1324.2 1849.5,1313.9 1872.9,1303.4 1896.0,1292.6 1918.9,1281.6 1941.4,1270.4 1963.6,1259.0  Z" style="stroke-width: 0.5;  stroke: rgb(0,0,0); fill: rgb(179,177,178);" />
<path d="M 1991.151,1678.261 A 522.500,522.500 0.00 0,1 1981.8,1702.2 L 1981.8,1702.2 1960.2,1693.4 1938.3,1685.0 1916.0,1677.0 1893.3,1669.5 1870.4,1662.6 1847.3,1656.2 1823.9,1650.4 1800.3,1645.2 1776.5,1640.7 1752.7,1637.0 1728.7,1633.9 1704.6,1631.6 1680.5,1630.1 1656.4,1629.3 1632.3,1629.4 1608.2,1630.2 1584.1,1631.9 1560.2,1634.4 1536.3,1637.7 1512.6,1641.9 1489.1,1646.9 1465.7,1652.7 1442.5,1659.2 1419.6,1666.6 1396.9,1674.8 1374.4,1683.7 1352.3,1693.3 1330.4,1703.7 1308.9,1714.7 1287.8,1726.3 1266.9,1738.6 1246.5,1751.5 1226.5,1764.9 1206.9,1778.8 1187.7,1793.1 1169.0,1807.8 1150.7,1822.9 1132.9,1838.3 1115.6,1853.9  A 522.500,522.500 0.00 0,1 1098.5,1834.3 L 1098.5,1834.3 1116.7,1819.4 1135.5,1804.8 1154.7,1790.4 1174.3,1776.3 1194.4,1762.6 1214.8,1749.3 1235.7,1736.5 1256.9,1724.2 1278.5,1712.5 1300.5,1701.3 1322.7,1690.7 1345.3,1680.7 1368.2,1671.4 1391.3,1662.8 1414.7,1654.8 1438.3,1647.6 1462.1,1641.1 1486.1,1635.3 1510.3,1630.3 1534.6,1626.1 1559.0,1622.6 1583.5,1619.9 1608.1,1617.9 1632.8,1616.7 1657.5,1616.2 1682.2,1616.5 1706.8,1617.5 1731.5,1619.2 1756.0,1621.6 1780.4,1624.7 1804.7,1628.4 1828.9,1632.8 1852.9,1637.8 1876.6,1643.3 1900.1,1649.4 1923.4,1655.9 1946.3,1663.0 1968.9,1670.4 1991.2,1678.3  Z" style="stroke-width: 0.5;  stroke: rgb(0,0,0); fill: rgb(179,177,178);" />
<path d="M 1978.009,1710.982 A 522.500,522.500 0.00 0,1 1968.5,1731.3 L 1968.5,1731.3 1948.2,1721.6 1927.5,1712.3 1906.5,1703.5 1885.2,1695.2 1863.6,1687.6 1841.8,1680.6 1819.8,1674.3 1797.7,1668.7 1775.4,1664.0 1753.1,1660.1 1730.8,1657.0 1708.5,1654.9 1686.2,1653.6 1664.0,1653.3 1641.9,1654.0 1619.9,1655.6 1598.1,1658.2 1576.5,1661.8 1555.1,1666.4 1533.9,1672.0 1513.1,1678.5 1492.5,1686.0 1472.2,1694.5 1452.3,1703.9 1432.7,1714.2 1413.5,1725.4 1394.7,1737.4 1376.4,1750.3 1358.4,1763.9 1341.0,1778.3 1324.0,1793.4 1307.4,1809.1 1291.4,1825.4 1275.8,1842.2 1260.8,1859.5 1246.3,1877.2 1232.4,1895.2 1218.9,1913.5 1206.1,1932.0  A 522.500,522.500 0.00 0,1 1188.1,1919.2 L 1188.1,1919.2 1201.9,1901.1 1216.2,1883.2 1231.0,1865.6 1246.4,1848.3 1262.3,1831.3 1278.7,1814.8 1295.6,1798.9 1313.0,1783.5 1330.8,1768.7 1349.1,1754.5 1367.8,1741.1 1387.0,1728.4 1406.5,1716.5 1426.5,1705.4 1446.8,1695.2 1467.4,1685.8 1488.4,1677.3 1509.7,1669.7 1531.3,1663.0 1553.1,1657.2 1575.2,1652.4 1597.5,1648.5 1619.9,1645.6 1642.5,1643.6 1665.2,1642.5 1688.1,1642.3 1710.9,1643.0 1733.9,1644.6 1756.8,1647.1 1779.7,1650.3 1802.5,1654.4 1825.2,1659.3 1847.8,1664.8 1870.1,1671.1 1892.3,1678.0 1914.2,1685.5 1935.8,1693.5 1957.1,1702.0 1978.0,1711.0  Z" style="stroke-width: 0.5;  stroke: rgb(0,0,0); fill: rgb(179,177,178);" />
<path d="M 2021.801,1527.023 A 522.500,522.500 0.00 0,1 2020.5,1545.6 L 2020.5,1545.6 1995.3,1543.5 1970.0,1541.7 1944.4,1540.1 1918.7,1538.8 1892.9,1537.8 1866.9,1537.1 1840.8,1536.7 1814.6,1536.6 1788.3,1536.8 1761.9,1537.4 1735.4,1538.4 1708.9,1539.6 1682.4,1541.3 1655.8,1543.3 1629.2,1545.7 1602.6,1548.5 1576.1,1551.6 1549.6,1555.1 1523.1,1559.0 1496.6,1563.3 1470.3,1567.9 1444.0,1572.9 1417.8,1578.3 1391.7,1584.0 1365.7,1590.1 1339.9,1596.5 1314.1,1603.3 1288.6,1610.4 1263.2,1617.8 1237.9,1625.6 1212.9,1633.6 1188.0,1641.9 1163.3,1650.5 1138.9,1659.3 1114.7,1668.4 1090.7,1677.8 1066.9,1687.3 1043.4,1697.0 1020.2,1706.9  A 522.500,522.500 0.00 0,1 1013.1,1689.6 L 1013.1,1689.6 1036.9,1680.4 1060.9,1671.4 1085.1,1662.6 1109.5,1654.0 1134.2,1645.5 1159.0,1637.3 1184.0,1629.3 1209.2,1621.5 1234.6,1614.0 1260.1,1606.8 1285.7,1599.8 1311.5,1593.0 1337.4,1586.6 1363.5,1580.5 1389.6,1574.6 1415.9,1569.1 1442.2,1563.9 1468.7,1559.0 1495.1,1554.4 1521.7,1550.1 1548.3,1546.1 1574.9,1542.5 1601.5,1539.2 1628.2,1536.2 1654.9,1533.5 1681.5,1531.2 1708.2,1529.1 1734.8,1527.4 1761.3,1526.0 1787.8,1524.9 1814.3,1524.0 1840.6,1523.5 1866.9,1523.2 1893.0,1523.3 1919.1,1523.5 1945.0,1524.1 1970.7,1524.8 1996.4,1525.8 2021.8,1527.0  Z" style="stroke-width: 0.5;  stroke: rgb(0,0,0); fill: rgb(179,177,178);" />
<path d="M 1799.666,1071.974 A 522.500,522.500 0.00 0,1 1812.0,1080.9 L 1812.0,1080.9 1798.5,1098.7 1784.4,1116.2 1769.7,1133.5 1754.6,1150.4 1739.0,1166.8 1722.9,1182.8 1706.3,1198.1 1689.3,1212.8 1671.8,1226.9 1653.9,1240.2 1635.6,1252.7 1616.9,1264.3 1597.9,1275.1 1578.5,1285.0 1558.8,1293.9 1538.7,1301.9 1518.4,1308.9 1497.9,1314.8 1477.1,1319.8 1456.1,1323.7 1435.0,1326.6 1413.6,1328.5 1392.2,1329.3 1370.6,1329.1 1349.0,1328.0 1327.4,1325.8 1305.7,1322.6 1284.1,1318.5 1262.5,1313.5 1241.0,1307.6 1219.6,1300.8 1198.4,1293.3 1177.4,1284.9 1156.6,1275.9 1136.1,1266.2 1115.9,1256.0 1096.0,1245.2 1076.5,1233.9 1057.4,1222.2  A 522.500,522.500 0.00 0,1 1065.7,1209.5 L 1065.7,1209.5 1084.3,1221.6 1103.3,1233.3 1122.8,1244.6 1142.5,1255.4 1162.6,1265.5 1182.9,1275.0 1203.4,1283.7 1224.2,1291.7 1245.1,1298.9 1266.1,1305.2 1287.2,1310.5 1308.4,1315.0 1329.5,1318.5 1350.7,1320.9 1371.8,1322.4 1392.8,1322.8 1413.8,1322.1 1434.6,1320.4 1455.2,1317.7 1475.7,1313.8 1496.0,1308.9 1516.0,1303.0 1535.7,1296.0 1555.2,1288.0 1574.4,1279.0 1593.2,1269.1 1611.7,1258.2 1629.8,1246.4 1647.5,1233.7 1664.8,1220.2 1681.7,1206.0 1698.2,1191.0 1714.1,1175.4 1729.7,1159.3 1744.7,1142.5 1759.2,1125.4 1773.2,1107.8 1786.7,1090.0 1799.7,1072.0  Z" style="stroke-width: 0.5;  stroke: rgb(0,0,0); fill: rgb(179,177,178);" />
<path d="M 1636.961,995.770 A 522.500,522.500 0.00 0,1 1649.8,999.4 L 1649.8,999.4 1643.7,1019.3 1637.0,1039.1 1630.0,1058.5 1622.6,1077.6 1614.7,1096.2 1606.4,1114.1 1597.7,1131.4 1588.6,1147.8 1579.1,1163.4 1569.2,1178.0 1558.9,1191.6 1548.2,1204.1 1537.2,1215.5 1525.8,1225.7 1514.1,1234.6 1502.1,1242.2 1489.8,1248.6 1477.2,1253.6 1464.3,1257.2 1451.1,1259.5 1437.8,1260.5 1424.2,1260.0 1410.4,1258.3 1396.5,1255.2 1382.5,1250.8 1368.3,1245.1 1354.1,1238.1 1339.8,1230.0 1325.6,1220.7 1311.3,1210.3 1297.0,1198.9 1282.9,1186.5 1268.8,1173.2 1254.9,1159.2 1241.2,1144.4 1227.7,1129.0 1214.5,1113.1 1201.6,1096.7 1189.0,1080.1  A 522.500,522.500 0.00 0,1 1199.9,1072.3 L 1199.9,1072.3 1212.0,1089.2 1224.4,1105.7 1237.1,1121.9 1250.1,1137.6 1263.2,1152.7 1276.6,1167.0 1290.1,1180.6 1303.7,1193.2 1317.3,1204.9 1331.0,1215.5 1344.7,1225.1 1358.4,1233.5 1372.0,1240.6 1385.5,1246.5 1398.9,1251.1 1412.2,1254.4 1425.3,1256.4 1438.2,1256.9 1450.9,1256.1 1463.4,1253.9 1475.6,1250.4 1487.5,1245.5 1499.2,1239.2 1510.6,1231.6 1521.6,1222.7 1532.3,1212.6 1542.7,1201.2 1552.7,1188.7 1562.3,1175.1 1571.6,1160.4 1580.4,1144.8 1588.9,1128.3 1597.0,1110.9 1604.7,1092.9 1612.0,1074.3 1618.8,1055.1 1625.3,1035.6 1631.3,1015.7 1637.0,995.8  Z" style="stroke-width: 0.5;  stroke: rgb(0,0,0); fill: rgb(179,177,178);" />
<path d="M 1714.801,1023.695 A 522.500,522.500 0.00 0,1 1725.7,1028.8 L 1725.7,1028.8 1716.3,1048.0 1706.3,1067.0 1695.8,1085.7 1684.9,1104.0 1673.5,1121.8 1661.6,1139.1 1649.2,1155.6 1636.5,1171.5 1623.2,1186.5 1609.6,1200.7 1595.6,1213.9 1581.1,1226.1 1566.4,1237.2 1551.2,1247.3 1535.7,1256.2 1519.9,1264.0 1503.9,1270.6 1487.5,1275.9 1470.9,1280.1 1454.1,1283.0 1437.0,1284.6 1419.8,1285.0 1402.5,1284.2 1385.0,1282.1 1367.4,1278.9 1349.8,1274.4 1332.1,1268.9 1314.4,1262.2 1296.8,1254.4 1279.2,1245.6 1261.8,1235.8 1244.4,1225.2 1227.3,1213.6 1210.3,1201.4 1193.6,1188.4 1177.2,1174.7 1161.1,1160.6 1145.3,1146.0 1130.0,1131.1  A 522.500,522.500 0.00 0,1 1138.6,1122.6 L 1138.6,1122.6 1153.5,1137.8 1168.8,1152.7 1184.5,1167.2 1200.5,1181.1 1216.8,1194.4 1233.3,1207.0 1250.0,1218.8 1266.9,1229.7 1283.9,1239.8 1301.0,1248.8 1318.1,1256.8 1335.3,1263.8 1352.5,1269.6 1369.6,1274.2 1386.7,1277.7 1403.6,1279.9 1420.5,1280.9 1437.2,1280.6 1453.7,1279.1 1470.0,1276.3 1486.0,1272.2 1501.9,1266.9 1517.4,1260.3 1532.7,1252.6 1547.6,1243.6 1562.2,1233.6 1576.5,1222.4 1590.4,1210.1 1603.8,1196.8 1616.9,1182.6 1629.6,1167.4 1641.9,1151.5 1653.7,1134.8 1665.1,1117.4 1676.0,1099.4 1686.4,1081.0 1696.4,1062.1 1705.8,1043.0 1714.8,1023.7  Z" style="stroke-width: 0.5;  stroke: rgb(0,0,0); fill: rgb(179,177,178);" />
<path d="M 1966.888,1734.568 A 522.500,522.500 0.00 0,1 1962.3,1743.5 L 1962.3,1743.5 1942.4,1733.3 1922.1,1723.5 1901.5,1714.3 1880.6,1705.5 1859.4,1697.5 1838.0,1690.0 1816.4,1683.3 1794.7,1677.4 1772.9,1672.3 1751.0,1668.0 1729.1,1664.7 1707.2,1662.2 1685.4,1660.7 1663.7,1660.2 1642.1,1660.7 1620.6,1662.1 1599.3,1664.6 1578.2,1668.1 1557.3,1672.6 1536.7,1678.1 1516.4,1684.6 1496.4,1692.2 1476.7,1700.7 1457.3,1710.2 1438.4,1720.6 1419.8,1731.9 1401.7,1744.1 1384.0,1757.2 1366.7,1771.1 1349.9,1785.7 1333.6,1801.0 1317.7,1817.0 1302.4,1833.6 1287.6,1850.7 1273.3,1868.3 1259.5,1886.3 1246.3,1904.7 1233.6,1923.3 1221.4,1942.0  A 522.500,522.500 0.00 0,1 1212.9,1936.6 L 1212.9,1936.6 1225.5,1918.0 1238.6,1899.5 1252.2,1881.4 1266.4,1863.5 1281.1,1846.1 1296.4,1829.1 1312.1,1812.6 1328.3,1796.7 1345.0,1781.5 1362.2,1767.0 1379.9,1753.2 1398.0,1740.2 1416.5,1728.1 1435.4,1716.8 1454.7,1706.4 1474.4,1696.9 1494.4,1688.4 1514.8,1680.8 1535.5,1674.2 1556.4,1668.6 1577.6,1664.0 1599.0,1660.3 1620.6,1657.7 1642.4,1656.1 1664.3,1655.4 1686.4,1655.8 1708.5,1657.0 1730.6,1659.2 1752.8,1662.3 1775.0,1666.3 1797.1,1671.1 1819.0,1676.8 1840.9,1683.2 1862.6,1690.2 1884.0,1698.0 1905.2,1706.4 1926.2,1715.3 1946.7,1724.7 1966.9,1734.6  Z" style="stroke-width: 0.5;  stroke: rgb(0,0,0); fill: rgb(179,177,178);" />
<path d="M 1837.550,1101.169 A 522.500,522.500 0.00 0,1 1844.2,1106.9 L 1844.2,1106.9 1829.1,1123.9 1813.3,1140.6 1797.1,1157.1 1780.4,1173.2 1763.2,1188.8 1745.5,1204.0 1727.4,1218.6 1708.8,1232.7 1689.8,1246.1 1670.4,1258.8 1650.6,1270.8 1630.5,1282.0 1610.0,1292.4 1589.2,1302.0 1568.0,1310.8 1546.6,1318.6 1525.0,1325.6 1503.1,1331.6 1480.9,1336.8 1458.6,1340.9 1436.2,1344.2 1413.6,1346.5 1390.9,1347.8 1368.1,1348.3 1345.2,1347.8 1322.3,1346.4 1299.4,1344.1 1276.6,1340.9 1253.8,1336.9 1231.1,1332.1 1208.6,1326.4 1186.2,1320.1 1164.0,1313.0 1142.0,1305.3 1120.3,1296.9 1098.9,1288.0 1077.8,1278.5 1057.1,1268.6 1036.8,1258.3  A 522.500,522.500 0.00 0,1 1040.9,1250.5 L 1040.9,1250.5 1061.0,1261.1 1081.4,1271.3 1102.3,1281.0 1123.4,1290.3 1144.9,1298.9 1166.6,1306.9 1188.6,1314.3 1210.8,1320.9 1233.1,1326.8 1255.5,1331.8 1278.1,1336.1 1300.7,1339.4 1323.3,1341.9 1345.9,1343.5 1368.5,1344.1 1391.1,1343.8 1413.5,1342.6 1435.9,1340.4 1458.1,1337.2 1480.1,1333.1 1502.0,1328.0 1523.6,1322.0 1545.0,1315.0 1566.1,1307.1 1586.9,1298.3 1607.5,1288.6 1627.7,1278.1 1647.5,1266.8 1667.0,1254.7 1686.1,1241.9 1704.7,1228.3 1723.0,1214.1 1740.8,1199.3 1758.2,1184.0 1775.0,1168.1 1791.4,1151.9 1807.3,1135.2 1822.7,1118.3 1837.6,1101.2  Z" style="stroke-width: 0.5;  stroke: rgb(0,0,0); fill: rgb(179,177,178);" />
<path d="M 1993.379,1328.000 A 522.500,522.500 0.00 0,1 1995.7,1334.7 L 1995.7,1334.7 1971.1,1342.8 1946.3,1350.8 1921.4,1358.8 1896.3,1366.5 1871.1,1374.2 1845.8,1381.7 1820.3,1389.0 1794.7,1396.2 1769.0,1403.2 1743.2,1410.1 1717.3,1416.8 1691.2,1423.3 1665.1,1429.6 1638.9,1435.7 1612.7,1441.6 1586.3,1447.3 1559.9,1452.8 1533.5,1458.1 1507.0,1463.1 1480.4,1468.0 1453.8,1472.7 1427.2,1477.1 1400.6,1481.3 1373.9,1485.3 1347.3,1489.1 1320.6,1492.7 1294.0,1496.1 1267.3,1499.3 1240.7,1502.2 1214.2,1505.0 1187.6,1507.5 1161.2,1509.9 1134.8,1512.0 1108.4,1514.0 1082.1,1515.8 1055.9,1517.4 1029.8,1518.8 1003.8,1520.1 977.9,1521.3  A 522.500,522.500 0.00 0,1 977.7,1514.2 L 977.7,1514.2 1003.5,1513.4 1029.5,1512.4 1055.5,1511.3 1081.7,1510.0 1107.9,1508.5 1134.2,1506.8 1160.6,1504.9 1187.1,1502.8 1213.6,1500.5 1240.2,1497.9 1266.7,1495.1 1293.4,1492.1 1320.0,1488.9 1346.7,1485.5 1373.3,1481.8 1400.0,1477.8 1426.6,1473.7 1453.2,1469.3 1479.8,1464.7 1506.3,1459.8 1532.8,1454.7 1559.3,1449.4 1585.7,1443.8 1612.0,1438.0 1638.2,1432.0 1664.4,1425.8 1690.4,1419.4 1716.4,1412.7 1742.2,1405.9 1768.0,1398.8 1793.6,1391.6 1819.1,1384.2 1844.4,1376.6 1869.6,1368.9 1894.7,1361.0 1919.6,1352.9 1944.4,1344.7 1969.0,1336.4 1993.4,1328.0  Z" style="stroke-width: 0.5;  stroke: rgb(0,0,0); fill: rgb(179,177,178);" />
</g>
<g id="plot0">
<g id="plot0-axis">
</g>
<line x1='2243.5' y1='1598.6' x2='2243.5' y2='1598.6' style="stroke-width:14.0;stroke:rgb(0,0,0);stroke-linecap:round;fill:none;" />
<line x1='2243.5' y1='1598.6' x2='2283.1' y2='1603.9' style="stroke-width:14.0;stroke:rgb(0,0,0);stroke-linecap:round;fill:none;" />
<line x1='2283.1' y1='1603.9' x2='2283.1' y2='1603.9' style="stroke-width:14.0;stroke:rgb(0,0,0);stroke-linecap:round;fill:none;" />
<text x="2299.7" y="1628.8" font-size="46.8px" font-family="CMUBright-Roman" style="text-anchor:start;fill:rgb(255,38,78);" transform="rotate(7.6,2299.7,1628.8)" >HistocapWGSS14<tspan baseline-shift="-40%" font-size="90%">s</tspan>01510</text>
</g>
<defs>
<pattern id="hline-sparse" width="10" height="10" patternTransform="rotate(0 0 0)" patternUnits="userSpaceOnUse"><line x1="0" y1="0" x2="10" y2="0" style="stroke:black;stroke-width:2" /></pattern>
<pattern id="hline" width="10" height="10" patternTransform="rotate(0 0 0)" patternUnits="userSpaceOnUse"><line x1="0" y1="0" x2="10" y2="0" style="stroke:black;stroke-width:5" /></pattern>
<pattern id="vline" width="10" height="10" patternTransform="rotate(0 0 0)" patternUnits="userSpaceOnUse"><line x1="0" y1="0" x2="0" y2="10" style="stroke:black;stroke-width:5" /></pattern>
<pattern id="vline-sparse" width="10" height="10" patternTransform="rotate(0 0 0)" patternUnits="userSpaceOnUse"><line x1="0" y1="0" x2="0" y2="10" style="stroke:black;stroke-width:2" /></pattern>
<pattern id="checker" width="10" height="10" patternTransform="rotate(45 0 0)" patternUnits="userSpaceOnUse"><line x1="0" y1="0" x2="10" y2="0" style="stroke:black;stroke-width:5" /><line x1="0" y1="0" x2="0" y2="10" style="stroke:black;stroke-width:4" /></pattern>
<pattern id="checker" width="10" height="10" patternTransform="rotate(45 0 0)" patternUnits="userSpaceOnUse"><line x1="0" y1="0" x2="10" y2="0" style="stroke:black;stroke-width:2" /><line x1="0" y1="0" x2="0" y2="10" style="stroke:black;stroke-width:2" /></pattern>
</defs>
</svg>
