<?xml version="1.0" encoding="utf-8" standalone="no"?>
<!DOCTYPE svg PUBLIC "-//W3C//DTD SVG 1.1//EN" "http://www.w3.org/Graphics/SVG/1.1/DTD/svg11.dtd">
<svg width="3000px" height="3000px" version="1.1" xmlns="http://www.w3.org/2000/svg" xmlns:xlink="http://www.w3.org/1999/xlink">
<g id="bg">
<rect x="0" y="0" width="3000px" height="3000px" style="fill:rgb(255,255,255);"/>
</g>
<g id="ideograms">
<path d="M1500.000,950.000 A550.000,550.000 40.000 1,1 1458.221,2048.411 L1443.028,2247.833 A750.000,750.000 0.000 1,0 1500.000,750.000 Z" style="stroke-width:2.0;stroke:rgb(0,0,0);stroke-linecap:round;fill:rgb(179,177,178);" />
<text x="2519.3" y="1538.8" font-size="46.8px" font-family="CMUBright-Roman" style="text-anchor:middle;fill:rgb(0,0,0);" transform="rotate(-87.8,2519.3,1538.8)" >HistocapCB055<tspan baseline-shift="-40%" font-size="90%">2</tspan></text>
<line x1='1537.5' y1='750.9' x2='1538.1' y2='739.0' style="stroke-width:8.0;stroke:rgb(150,150,150);stroke-linecap:round;fill:none;" />
<text x="1552.7" y="727.8" font-size="41.6px" font-family="CMUBright-Roman" style="text-anchor:start;fill:rgb(150,150,150);" transform="rotate(272.9,1552.7,727.8)" >1400 kb</text>
<line x1='1625.3' y1='760.5' x2='1627.4' y2='748.7' style="stroke-width:8.0;stroke:rgb(150,150,150);stroke-linecap:round;fill:none;" />
<line x1='1711.5' y1='780.4' x2='1714.8' y2='768.9' style="stroke-width:8.0;stroke:rgb(150,150,150);stroke-linecap:round;fill:none;" />
<line x1='1794.6' y1='810.3' x2='1799.3' y2='799.3' style="stroke-width:8.0;stroke:rgb(150,150,150);stroke-linecap:round;fill:none;" />
<line x1='1873.7' y1='849.7' x2='1879.7' y2='839.3' style="stroke-width:8.0;stroke:rgb(150,150,150);stroke-linecap:round;fill:none;" />
<line x1='1947.6' y1='898.2' x2='1954.8' y2='888.6' style="stroke-width:8.0;stroke:rgb(150,150,150);stroke-linecap:round;fill:none;" />
<text x="1973.1" y="887.4" font-size="41.6px" font-family="CMUBright-Roman" style="text-anchor:start;fill:rgb(150,150,150);" transform="rotate(306.6,1973.1,887.4)" >1450 kb</text>
<line x1='2015.3' y1='955.0' x2='2023.5' y2='946.3' style="stroke-width:8.0;stroke:rgb(150,150,150);stroke-linecap:round;fill:none;" />
<line x1='2075.8' y1='1019.4' x2='2085.0' y2='1011.8' style="stroke-width:8.0;stroke:rgb(150,150,150);stroke-linecap:round;fill:none;" />
<line x1='2128.3' y1='1090.5' x2='2138.4' y2='1084.0' style="stroke-width:8.0;stroke:rgb(150,150,150);stroke-linecap:round;fill:none;" />
<line x1='2172.2' y1='1167.3' x2='2182.9' y2='1161.9' style="stroke-width:8.0;stroke:rgb(150,150,150);stroke-linecap:round;fill:none;" />
<line x1='2206.6' y1='1248.6' x2='2217.9' y2='1244.6' style="stroke-width:8.0;stroke:rgb(150,150,150);stroke-linecap:round;fill:none;" />
<text x="2233.8" y="1253.8" font-size="41.6px" font-family="CMUBright-Roman" style="text-anchor:start;fill:rgb(150,150,150);" transform="rotate(340.4,2233.8,1253.8)" >1500 kb</text>
<line x1='2231.3' y1='1333.5' x2='2243.0' y2='1330.9' style="stroke-width:8.0;stroke:rgb(150,150,150);stroke-linecap:round;fill:none;" />
<line x1='2245.8' y1='1420.7' x2='2257.7' y2='1419.4' style="stroke-width:8.0;stroke:rgb(150,150,150);stroke-linecap:round;fill:none;" />
<line x1='2249.9' y1='1509.0' x2='2261.9' y2='1509.1' style="stroke-width:8.0;stroke:rgb(150,150,150);stroke-linecap:round;fill:none;" />
<line x1='2243.7' y1='1597.1' x2='2255.6' y2='1598.7' style="stroke-width:8.0;stroke:rgb(150,150,150);stroke-linecap:round;fill:none;" />
<line x1='2227.1' y1='1683.9' x2='2238.7' y2='1686.9' style="stroke-width:8.0;stroke:rgb(150,150,150);stroke-linecap:round;fill:none;" />
<text x="2246.8" y="1703.4" font-size="41.6px" font-family="CMUBright-Roman" style="text-anchor:start;fill:rgb(150,150,150);" transform="rotate(14.2,2246.8,1703.4)" >1550 kb</text>
<line x1='2200.4' y1='1768.2' x2='2211.6' y2='1772.5' style="stroke-width:8.0;stroke:rgb(150,150,150);stroke-linecap:round;fill:none;" />
<line x1='2164.0' y1='1848.7' x2='2174.6' y2='1854.3' style="stroke-width:8.0;stroke:rgb(150,150,150);stroke-linecap:round;fill:none;" />
<line x1='2118.4' y1='1924.4' x2='2128.3' y2='1931.2' style="stroke-width:8.0;stroke:rgb(150,150,150);stroke-linecap:round;fill:none;" />
<line x1='2064.2' y1='1994.2' x2='2073.2' y2='2002.1' style="stroke-width:8.0;stroke:rgb(150,150,150);stroke-linecap:round;fill:none;" />
<line x1='2002.1' y1='2057.1' x2='2010.1' y2='2066.0' style="stroke-width:8.0;stroke:rgb(150,150,150);stroke-linecap:round;fill:none;" />
<text x="2007.7" y="2084.2" font-size="41.6px" font-family="CMUBright-Roman" style="text-anchor:start;fill:rgb(150,150,150);" transform="rotate(48.0,2007.7,2084.2)" >1600 kb</text>
<line x1='1933.1' y1='2112.3' x2='1940.0' y2='2122.1' style="stroke-width:8.0;stroke:rgb(150,150,150);stroke-linecap:round;fill:none;" />
<line x1='1858.1' y1='2159.0' x2='1863.8' y2='2169.6' style="stroke-width:8.0;stroke:rgb(150,150,150);stroke-linecap:round;fill:none;" />
<line x1='1778.1' y1='2196.6' x2='1782.5' y2='2207.7' style="stroke-width:8.0;stroke:rgb(150,150,150);stroke-linecap:round;fill:none;" />
<line x1='1694.2' y1='2224.4' x2='1697.3' y2='2236.0' style="stroke-width:8.0;stroke:rgb(150,150,150);stroke-linecap:round;fill:none;" />
<line x1='1607.6' y1='2242.2' x2='1609.3' y2='2254.1' style="stroke-width:8.0;stroke:rgb(150,150,150);stroke-linecap:round;fill:none;" />
<text x="1597.2" y="2267.9" font-size="41.6px" font-family="CMUBright-Roman" style="text-anchor:start;fill:rgb(150,150,150);" transform="rotate(81.7,1597.2,2267.9)" >1650 kb</text>
<line x1='1519.6' y1='2249.7' x2='1519.9' y2='2261.7' style="stroke-width:8.0;stroke:rgb(150,150,150);stroke-linecap:round;fill:none;" />
<g id="highlighttrack_0">
<path d="M2008.330,1290.000 A550.000,550.000 40.000 0,1 1990.910,1748.008 L2169.422,1838.192 A750.000,750.000 0.000 0,0 2193.178,1213.636 Z" style="stroke-width:14.0;stroke:rgb(0,0,0);stroke-linecap:round;fill:rgb(255,38,78);" />
</g>
<path d="M1500.000,950.000 A550.000,550.000 40.000 1,1 1458.221,2048.411 L1443.028,2247.833 A750.000,750.000 0.000 1,0 1500.000,750.000 Z" style="stroke-width:2.0;stroke:rgb(0,0,0);stroke-linecap:round;fill:none;" />
<path d="M1270.848,1999.989 A550.000,550.000 40.000 0,1 1309.491,984.048 L1240.215,796.429 A750.000,750.000 0.000 0,0 1187.520,2181.804 Z" style="stroke-width:2.0;stroke:rgb(0,0,0);stroke-linecap:round;fill:rgb(179,177,178);" />
<text x="525.7" y="1462.9" font-size="46.8px" font-family="CMUBright-Roman" style="text-anchor:middle;fill:rgb(0,0,0);" transform="rotate(-87.8,525.7,1462.9)" >HistocapHCH143<tspan baseline-shift="-40%" font-size="90%">2</tspan></text>
<line x1='1161.4' y1='830.8' x2='1155.9' y2='820.1' style="stroke-width:8.0;stroke:rgb(150,150,150);stroke-linecap:round;fill:none;" />
<line x1='1085.0' y1='875.3' x2='1078.3' y2='865.3' style="stroke-width:8.0;stroke:rgb(150,150,150);stroke-linecap:round;fill:none;" />
<line x1='1014.4' y1='928.4' x2='1006.6' y2='919.3' style="stroke-width:8.0;stroke:rgb(150,150,150);stroke-linecap:round;fill:none;" />
<text x="988.3" y="919.3" font-size="41.6px" font-family="CMUBright-Roman" style="text-anchor:end;fill:rgb(150,150,150);" transform="rotate(49.6,988.3,919.3)" >1600 kb</text>
<line x1='950.5' y1='989.5' x2='941.7' y2='981.4' style="stroke-width:8.0;stroke:rgb(150,150,150);stroke-linecap:round;fill:none;" />
<line x1='894.3' y1='1057.7' x2='884.6' y2='1050.6' style="stroke-width:8.0;stroke:rgb(150,150,150);stroke-linecap:round;fill:none;" />
<line x1='846.5' y1='1132.0' x2='836.0' y2='1126.1' style="stroke-width:8.0;stroke:rgb(150,150,150);stroke-linecap:round;fill:none;" />
<line x1='807.7' y1='1211.5' x2='796.6' y2='1206.8' style="stroke-width:8.0;stroke:rgb(150,150,150);stroke-linecap:round;fill:none;" />
<line x1='778.6' y1='1294.9' x2='767.0' y2='1291.6' style="stroke-width:8.0;stroke:rgb(150,150,150);stroke-linecap:round;fill:none;" />
<text x="751.8" y="1301.8" font-size="41.6px" font-family="CMUBright-Roman" style="text-anchor:end;fill:rgb(150,150,150);" transform="rotate(15.9,751.8,1301.8)" >1650 kb</text>
<line x1='759.5' y1='1381.2' x2='747.6' y2='1379.3' style="stroke-width:8.0;stroke:rgb(150,150,150);stroke-linecap:round;fill:none;" />
<line x1='750.6' y1='1469.1' x2='738.6' y2='1468.6' style="stroke-width:8.0;stroke:rgb(150,150,150);stroke-linecap:round;fill:none;" />
<line x1='752.2' y1='1557.5' x2='740.2' y2='1558.4' style="stroke-width:8.0;stroke:rgb(150,150,150);stroke-linecap:round;fill:none;" />
<line x1='764.2' y1='1645.0' x2='752.4' y2='1647.4' style="stroke-width:8.0;stroke:rgb(150,150,150);stroke-linecap:round;fill:none;" />
<line x1='786.3' y1='1730.6' x2='774.9' y2='1734.3' style="stroke-width:8.0;stroke:rgb(150,150,150);stroke-linecap:round;fill:none;" />
<text x="767.9" y="1751.3" font-size="41.6px" font-family="CMUBright-Roman" style="text-anchor:end;fill:rgb(150,150,150);" transform="rotate(-17.9,767.9,1751.3)" >1700 kb</text>
<line x1='818.4' y1='1812.9' x2='807.5' y2='1817.9' style="stroke-width:8.0;stroke:rgb(150,150,150);stroke-linecap:round;fill:none;" />
<line x1='860.0' y1='1890.9' x2='849.7' y2='1897.2' style="stroke-width:8.0;stroke:rgb(150,150,150);stroke-linecap:round;fill:none;" />
<line x1='910.4' y1='1963.5' x2='900.9' y2='1970.9' style="stroke-width:8.0;stroke:rgb(150,150,150);stroke-linecap:round;fill:none;" />
<line x1='969.0' y1='2029.7' x2='960.5' y2='2038.1' style="stroke-width:8.0;stroke:rgb(150,150,150);stroke-linecap:round;fill:none;" />
<line x1='1035.0' y1='2088.4' x2='1027.6' y2='2097.9' style="stroke-width:8.0;stroke:rgb(150,150,150);stroke-linecap:round;fill:none;" />
<text x="1031.2" y="2115.9" font-size="41.6px" font-family="CMUBright-Roman" style="text-anchor:end;fill:rgb(150,150,150);" transform="rotate(-51.7,1031.2,2115.9)" >1750 kb</text>
<line x1='1107.4' y1='2139.1' x2='1101.2' y2='2149.3' style="stroke-width:8.0;stroke:rgb(150,150,150);stroke-linecap:round;fill:none;" />
<line x1='1185.3' y1='2180.8' x2='1180.3' y2='2191.7' style="stroke-width:8.0;stroke:rgb(150,150,150);stroke-linecap:round;fill:none;" />
<path d="M1270.848,1999.989 A550.000,550.000 40.000 0,1 1309.491,984.048 L1240.215,796.429 A750.000,750.000 0.000 0,0 1187.520,2181.804 Z" style="stroke-width:2.0;stroke:rgb(0,0,0);stroke-linecap:round;fill:none;" />
</g>
<g id="track_0">
<path d="M 1795.035,1068.769 A 522.500,522.500 0.00 0,1 1904.3,1169.0 L 1904.3,1169.0 1885.8,1183.8 1866.9,1198.4 1847.5,1212.7 1827.7,1226.7 1807.5,1240.4 1786.9,1253.6 1765.9,1266.4 1744.5,1278.6 1722.7,1290.4 1700.6,1301.6 1678.2,1312.2 1655.5,1322.2 1632.5,1331.6 1609.2,1340.3 1585.7,1348.4 1561.9,1355.7 1538.0,1362.4 1513.8,1368.3 1489.5,1373.5 1465.1,1378.0 1440.5,1381.7 1415.8,1384.7 1391.0,1387.0 1366.2,1388.5 1341.4,1389.3 1316.5,1389.4 1291.7,1388.7 1266.9,1387.4 1242.2,1385.4 1217.5,1382.7 1193.0,1379.4 1168.7,1375.5 1144.5,1371.0 1120.5,1366.0 1096.8,1360.4 1073.3,1354.3 1050.1,1347.7 1027.3,1340.8 1004.8,1333.4  A 522.500,522.500 0.00 0,1 1071.5,1201.0 L 1071.5,1201.0 1089.8,1213.5 1108.5,1225.5 1127.6,1237.1 1147.1,1248.2 1166.8,1258.7 1186.9,1268.5 1207.1,1277.5 1227.6,1285.8 1248.2,1293.3 1268.9,1299.9 1289.8,1305.5 1310.6,1310.2 1331.5,1314.0 1352.4,1316.7 1373.3,1318.3 1394.0,1319.0 1414.7,1318.5 1435.2,1317.0 1455.6,1314.4 1475.8,1310.7 1495.8,1305.9 1515.6,1300.1 1535.1,1293.2 1554.3,1285.2 1573.2,1276.3 1591.8,1266.4 1610.0,1255.5 1627.8,1243.7 1645.3,1231.1 1662.4,1217.6 1679.0,1203.3 1695.2,1188.3 1711.0,1172.7 1726.2,1156.4 1741.0,1139.6 1755.3,1122.4 1769.1,1104.8 1782.3,1086.9 1795.0,1068.8  Z" style="stroke-width: 0.5;  stroke: rgb(0,0,0); fill: rgb(179,177,178);" />
<path d="M 1488.081,2022.364 A 522.500,522.500 0.00 0,1 1460.3,2021.0 L 1460.3,2021.0 1461.7,2000.8 1462.9,1980.7 1463.8,1960.8 1464.4,1941.3 1464.6,1922.3 1464.5,1904.0 1464.0,1886.3 1463.1,1869.4 1461.7,1853.5 1460.0,1838.5 1457.8,1824.6 1455.1,1811.9 1452.0,1800.3 1448.4,1790.0 1444.3,1781.1 1439.8,1773.4 1434.8,1767.2 1429.3,1762.4 1423.4,1759.0 1417.0,1757.0 1410.2,1756.5 1402.9,1757.4 1395.3,1759.7 1387.2,1763.4 1378.8,1768.5 1370.0,1775.0 1361.0,1782.7 1351.6,1791.8 1341.9,1802.0 1332.0,1813.3 1321.9,1825.7 1311.6,1839.1 1301.2,1853.4 1290.7,1868.6 1280.2,1884.4 1269.7,1900.8 1259.2,1917.7 1248.8,1934.9 1238.6,1952.4  A 522.500,522.500 0.00 0,1 1155.3,1892.7 L 1155.3,1892.7 1169.0,1877.4 1182.8,1862.4 1196.9,1847.8 1211.0,1833.7 1225.2,1820.3 1239.3,1807.6 1253.4,1795.7 1267.4,1784.7 1281.1,1774.7 1294.7,1765.7 1308.0,1757.8 1321.1,1751.1 1333.7,1745.5 1346.1,1741.3 1358.0,1738.3 1369.5,1736.6 1380.5,1736.3 1391.1,1737.3 1401.1,1739.6 1410.6,1743.4 1419.6,1748.4 1428.1,1754.8 1436.0,1762.5 1443.3,1771.6 1450.1,1781.8 1456.3,1793.3 1461.9,1805.9 1466.9,1819.7 1471.4,1834.5 1475.3,1850.3 1478.6,1867.0 1481.5,1884.6 1483.8,1902.9 1485.6,1921.8 1487.0,1941.3 1487.8,1961.2 1488.3,1981.4 1488.4,2001.9 1488.1,2022.4  Z" style="stroke-width: 0.5;  stroke: rgb(0,0,0); fill: rgb(179,177,178);" />
<path d="M 1905.233,1170.163 A 522.500,522.500 0.00 0,1 1960.3,1252.7 L 1960.3,1252.7 1938.3,1264.4 1916.1,1275.8 1893.5,1287.0 1870.6,1298.0 1847.4,1308.7 1823.9,1319.1 1800.2,1329.2 1776.2,1338.9 1751.9,1348.4 1727.5,1357.4 1702.8,1366.1 1677.9,1374.4 1652.8,1382.2 1627.5,1389.7 1602.1,1396.7 1576.5,1403.2 1550.8,1409.3 1524.9,1415.0 1499.0,1420.2 1472.9,1424.9 1446.8,1429.2 1420.6,1432.9 1394.4,1436.2 1368.1,1439.1 1341.9,1441.4 1315.6,1443.3 1289.3,1444.8 1263.1,1445.8 1237.0,1446.3 1210.9,1446.4 1184.9,1446.1 1159.0,1445.4 1133.2,1444.3 1107.6,1442.8 1082.1,1440.9 1056.8,1438.7 1031.7,1436.1 1006.8,1433.2 982.2,1430.1  A 522.500,522.500 0.00 0,1 1004.8,1333.3 L 1004.8,1333.3 1027.3,1340.6 1050.2,1347.6 1073.4,1354.1 1096.9,1360.2 1120.6,1365.8 1144.6,1370.9 1168.8,1375.5 1193.1,1379.4 1217.6,1382.7 1242.3,1385.4 1267.0,1387.4 1291.8,1388.8 1316.7,1389.4 1341.5,1389.4 1366.4,1388.6 1391.2,1387.1 1416.0,1384.9 1440.7,1381.9 1465.3,1378.3 1489.8,1373.8 1514.1,1368.6 1538.3,1362.8 1562.3,1356.1 1586.1,1348.8 1609.6,1340.8 1632.9,1332.2 1655.9,1322.8 1678.7,1312.9 1701.1,1302.3 1723.3,1291.1 1745.1,1279.4 1766.5,1267.2 1787.5,1254.5 1808.2,1241.3 1828.5,1227.7 1848.3,1213.8 1867.8,1199.5 1886.7,1184.9 1905.2,1170.2  Z" style="stroke-width: 0.5;  stroke: rgb(0,0,0); fill: rgb(179,177,178);" />
<path d="M 1534.338,978.630 A 522.500,522.500 0.00 0,1 1598.0,986.8 L 1598.0,986.8 1593.9,1007.1 1589.4,1027.2 1584.5,1047.2 1579.2,1066.7 1573.5,1085.8 1567.3,1104.3 1560.7,1122.0 1553.6,1139.0 1546.1,1155.2 1538.2,1170.4 1529.8,1184.5 1521.0,1197.6 1511.7,1209.5 1502.1,1220.2 1492.0,1229.7 1481.6,1237.9 1470.8,1244.8 1459.6,1250.4 1448.0,1254.6 1436.1,1257.4 1423.9,1258.8 1411.4,1258.9 1398.6,1257.6 1385.6,1255.0 1372.4,1251.1 1358.9,1245.8 1345.3,1239.3 1331.6,1231.6 1317.7,1222.7 1303.8,1212.7 1289.8,1201.7 1275.9,1189.7 1262.0,1176.8 1248.2,1163.0 1234.4,1148.6 1220.9,1133.5 1207.6,1117.9 1194.5,1101.9 1181.7,1085.6  A 522.500,522.500 0.00 0,1 1233.8,1050.4 L 1233.8,1050.4 1244.3,1067.9 1255.1,1085.1 1266.0,1102.0 1277.0,1118.3 1288.2,1134.1 1299.4,1149.1 1310.6,1163.3 1321.8,1176.6 1332.9,1188.9 1344.0,1200.2 1354.9,1210.3 1365.6,1219.2 1376.2,1226.9 1386.6,1233.2 1396.7,1238.2 1406.6,1241.9 1416.1,1244.1 1425.4,1244.9 1434.4,1244.3 1443.0,1242.2 1451.3,1238.7 1459.2,1233.8 1466.7,1227.5 1473.9,1219.8 1480.7,1210.8 1487.0,1200.4 1493.0,1188.8 1498.6,1176.0 1503.7,1162.0 1508.5,1147.0 1512.9,1131.0 1516.8,1114.1 1520.4,1096.3 1523.6,1077.8 1526.4,1058.8 1528.9,1039.2 1531.0,1019.2 1532.8,999.0 1534.3,978.6  Z" style="stroke-width: 0.5;  stroke: rgb(0,0,0); fill: rgb(179,177,178);" />
<path d="M 1598.704,986.908 A 522.500,522.500 0.00 0,1 1660.7,1002.8 L 1660.7,1002.8 1654.0,1022.9 1646.8,1042.7 1639.1,1062.4 1630.9,1081.6 1622.3,1100.4 1613.2,1118.6 1603.5,1136.2 1593.5,1153.0 1582.9,1169.1 1571.9,1184.2 1560.4,1198.4 1548.4,1211.5 1536.1,1223.6 1523.3,1234.5 1510.1,1244.3 1496.5,1252.9 1482.5,1260.3 1468.2,1266.4 1453.5,1271.3 1438.5,1274.8 1423.2,1277.1 1407.7,1278.1 1391.9,1277.8 1375.9,1276.3 1359.7,1273.5 1343.3,1269.4 1326.8,1264.2 1310.3,1257.9 1293.6,1250.4 1277.0,1241.8 1260.3,1232.3 1243.7,1221.8 1227.2,1210.5 1210.9,1198.3 1194.7,1185.4 1178.7,1171.9 1163.0,1157.8 1147.6,1143.3 1132.6,1128.5  A 522.500,522.500 0.00 0,1 1180.7,1086.4 L 1180.7,1086.4 1193.5,1102.7 1206.6,1118.7 1220.0,1134.3 1233.6,1149.3 1247.3,1163.7 1261.2,1177.4 1275.2,1190.3 1289.2,1202.3 1303.2,1213.3 1317.1,1223.2 1331.0,1232.1 1344.8,1239.8 1358.5,1246.2 1372.0,1251.5 1385.3,1255.4 1398.4,1258.0 1411.2,1259.2 1423.7,1259.1 1436.0,1257.7 1447.9,1254.8 1459.5,1250.6 1470.8,1245.1 1481.7,1238.2 1492.2,1229.9 1502.3,1220.4 1512.0,1209.7 1521.2,1197.8 1530.1,1184.7 1538.5,1170.5 1546.5,1155.3 1554.0,1139.2 1561.1,1122.2 1567.8,1104.4 1574.0,1085.9 1579.8,1066.9 1585.2,1047.3 1590.1,1027.4 1594.6,1007.2 1598.7,986.9  Z" style="stroke-width: 0.5;  stroke: rgb(0,0,0); fill: rgb(179,177,178);" />
<path d="M 1776.701,1943.219 A 522.500,522.500 0.00 0,1 1724.7,1971.7 L 1724.7,1971.7 1715.2,1952.3 1705.1,1933.1 1694.5,1914.1 1683.5,1895.5 1671.9,1877.4 1659.8,1859.8 1647.2,1842.8 1634.1,1826.5 1620.5,1811.0 1606.5,1796.3 1592.0,1782.5 1577.1,1769.6 1561.7,1757.8 1546.0,1746.9 1529.9,1737.2 1513.4,1728.5 1496.5,1721.0 1479.3,1714.6 1461.9,1709.4 1444.1,1705.4 1426.1,1702.5 1407.8,1700.9 1389.4,1700.4 1370.7,1701.1 1352.0,1702.9 1333.1,1705.9 1314.1,1710.0 1295.1,1715.2 1276.1,1721.4 1257.1,1728.6 1238.2,1736.7 1219.4,1745.8 1200.7,1755.7 1182.2,1766.3 1163.9,1777.7 1145.8,1789.7 1128.1,1802.3 1110.8,1815.3 1093.8,1828.7  A 522.500,522.500 0.00 0,1 1059.6,1781.2 L 1059.6,1781.2 1078.4,1769.5 1097.6,1758.2 1117.2,1747.4 1137.1,1737.1 1157.2,1727.5 1177.6,1718.5 1198.3,1710.3 1219.0,1702.9 1239.9,1696.3 1260.9,1690.5 1281.9,1685.7 1303.0,1681.9 1324.0,1679.0 1345.0,1677.2 1365.9,1676.4 1386.6,1676.6 1407.3,1677.9 1427.7,1680.3 1448.0,1683.7 1468.0,1688.3 1487.7,1693.9 1507.2,1700.5 1526.4,1708.2 1545.3,1716.9 1563.8,1726.6 1581.9,1737.3 1599.7,1748.9 1617.0,1761.4 1633.9,1774.8 1650.4,1789.0 1666.4,1804.0 1682.0,1819.6 1697.1,1835.9 1711.6,1852.8 1725.7,1870.2 1739.3,1888.0 1752.3,1906.1 1764.8,1924.6 1776.7,1943.2  Z" style="stroke-width: 0.5;  stroke: rgb(0,0,0); fill: rgb(179,177,178);" />
<path d="M 1538.148,2021.106 A 522.500,522.500 0.00 0,1 1491.8,2022.4 L 1491.8,2022.4 1491.9,2001.9 1491.7,1981.5 1491.1,1961.2 1490.0,1941.3 1488.5,1921.8 1486.5,1902.8 1484.0,1884.5 1481.0,1866.9 1477.5,1850.2 1473.4,1834.4 1468.8,1819.5 1463.6,1805.7 1457.8,1793.0 1451.4,1781.5 1444.5,1771.2 1437.0,1762.2 1428.9,1754.4 1420.3,1747.9 1411.1,1742.8 1401.4,1739.0 1391.2,1736.6 1380.5,1735.5 1369.3,1735.8 1357.6,1737.4 1345.6,1740.3 1333.1,1744.5 1320.2,1750.0 1307.1,1756.6 1293.6,1764.4 1279.9,1773.3 1266.0,1783.3 1251.9,1794.2 1237.7,1806.0 1223.4,1818.6 1209.1,1832.0 1194.9,1846.0 1180.7,1860.5 1166.7,1875.4 1153.0,1890.6  A 522.500,522.500 0.00 0,1 1119.6,1858.2 L 1119.6,1858.2 1134.9,1844.1 1150.4,1830.4 1166.1,1817.1 1182.0,1804.3 1198.0,1792.2 1214.0,1780.9 1230.0,1770.3 1246.0,1760.7 1261.8,1752.0 1277.4,1744.3 1292.8,1737.7 1308.0,1732.3 1322.9,1728.0 1337.4,1725.0 1351.6,1723.2 1365.4,1722.6 1378.7,1723.3 1391.7,1725.4 1404.1,1728.7 1416.0,1733.4 1427.5,1739.3 1438.4,1746.6 1448.7,1755.0 1458.5,1764.8 1467.7,1775.7 1476.4,1787.8 1484.4,1801.0 1491.9,1815.2 1498.9,1830.5 1505.2,1846.7 1511.0,1863.8 1516.2,1881.7 1520.8,1900.3 1525.0,1919.5 1528.6,1939.2 1531.7,1959.3 1534.3,1979.8 1536.4,2000.4 1538.1,2021.1  Z" style="stroke-width: 0.5;  stroke: rgb(0,0,0); fill: rgb(179,177,178);" />
<path d="M 1849.241,1888.634 A 522.500,522.500 0.00 0,1 1818.5,1914.2 L 1818.5,1914.2 1804.3,1896.2 1789.6,1878.3 1774.4,1860.8 1758.6,1843.5 1742.4,1826.6 1725.6,1810.1 1708.3,1794.1 1690.6,1778.6 1672.4,1763.7 1653.7,1749.4 1634.6,1735.9 1615.1,1723.0 1595.2,1710.8 1574.8,1699.4 1554.1,1688.8 1533.1,1679.1 1511.7,1670.2 1490.0,1662.1 1468.1,1654.9 1445.8,1648.6 1423.3,1643.2 1400.7,1638.6 1377.8,1635.0 1354.7,1632.3 1331.6,1630.4 1308.3,1629.4 1284.9,1629.3 1261.6,1630.0 1238.2,1631.5 1214.8,1633.8 1191.5,1636.9 1168.2,1640.8 1145.2,1645.3 1122.2,1650.6 1099.5,1656.4 1077.0,1662.8 1054.8,1669.8 1032.9,1677.3 1011.4,1685.1  A 522.500,522.500 0.00 0,1 998.7,1647.4 L 998.7,1647.4 1021.2,1641.1 1044.0,1635.1 1067.1,1629.7 1090.5,1624.7 1114.1,1620.3 1137.8,1616.5 1161.8,1613.3 1185.9,1610.7 1210.0,1608.8 1234.3,1607.6 1258.5,1607.2 1282.8,1607.5 1307.0,1608.5 1331.2,1610.4 1355.2,1613.0 1379.2,1616.4 1403.0,1620.6 1426.7,1625.6 1450.2,1631.4 1473.4,1638.0 1496.5,1645.4 1519.2,1653.5 1541.7,1662.5 1563.9,1672.1 1585.8,1682.6 1607.3,1693.7 1628.5,1705.5 1649.3,1718.0 1669.7,1731.1 1689.7,1744.8 1709.3,1759.1 1728.4,1773.9 1747.1,1789.2 1765.3,1805.0 1783.1,1821.1 1800.4,1837.6 1817.2,1854.4 1833.5,1871.4 1849.2,1888.6  Z" style="stroke-width: 0.5;  stroke: rgb(0,0,0); fill: rgb(179,177,178);" />
<path d="M 1935.783,1788.270 A 522.500,522.500 0.00 0,1 1913.5,1819.4 L 1913.5,1819.4 1894.1,1804.6 1874.3,1790.0 1854.1,1775.7 1833.5,1761.6 1812.6,1747.7 1791.2,1734.2 1769.6,1721.0 1747.5,1708.2 1725.2,1695.7 1702.5,1683.7 1679.5,1672.1 1656.3,1661.0 1632.8,1650.4 1609.0,1640.2 1584.9,1630.6 1560.6,1621.5 1536.1,1612.9 1511.4,1604.9 1486.6,1597.4 1461.5,1590.5 1436.4,1584.2 1411.0,1578.4 1385.6,1573.2 1360.1,1568.5 1334.5,1564.5 1308.9,1561.0 1283.2,1558.0 1257.6,1555.6 1231.9,1553.8 1206.3,1552.5 1180.7,1551.7 1155.2,1551.4 1129.9,1551.6 1104.6,1552.3 1079.5,1553.4 1054.6,1555.0 1029.9,1556.9 1005.4,1559.3 981.2,1562.0  A 522.500,522.500 0.00 0,1 978.1,1524.3 L 978.1,1524.3 1002.9,1523.3 1027.9,1522.6 1053.1,1522.3 1078.5,1522.3 1104.0,1522.7 1129.6,1523.4 1155.4,1524.6 1181.3,1526.1 1207.2,1528.1 1233.2,1530.5 1259.2,1533.4 1285.2,1536.7 1311.2,1540.5 1337.2,1544.7 1363.1,1549.4 1389.0,1554.5 1414.8,1560.2 1440.6,1566.3 1466.2,1572.8 1491.7,1579.9 1517.1,1587.4 1542.3,1595.3 1567.4,1603.7 1592.3,1612.5 1616.9,1621.8 1641.4,1631.5 1665.7,1641.6 1689.7,1652.0 1713.5,1662.9 1737.1,1674.1 1760.4,1685.7 1783.4,1697.6 1806.1,1709.8 1828.5,1722.3 1850.6,1735.1 1872.4,1748.1 1893.9,1761.3 1915.0,1774.7 1935.8,1788.3  Z" style="stroke-width: 0.5;  stroke: rgb(0,0,0); fill: rgb(179,177,178);" />
<path d="M 1814.009,1917.618 A 522.500,522.500 0.00 0,1 1785.1,1937.8 L 1785.1,1937.8 1772.8,1919.4 1759.9,1901.1 1746.5,1883.1 1732.5,1865.4 1718.0,1848.2 1703.1,1831.5 1687.6,1815.3 1671.7,1799.8 1655.2,1785.0 1638.4,1770.9 1621.1,1757.6 1603.3,1745.2 1585.2,1733.6 1566.7,1723.0 1547.8,1713.3 1528.6,1704.6 1509.1,1696.9 1489.2,1690.3 1469.1,1684.6 1448.8,1680.0 1428.2,1676.5 1407.4,1674.0 1386.4,1672.6 1365.4,1672.2 1344.2,1672.9 1322.9,1674.6 1301.5,1677.2 1280.2,1680.9 1258.9,1685.4 1237.6,1690.9 1216.4,1697.3 1195.3,1704.5 1174.4,1712.4 1153.7,1721.1 1133.3,1730.5 1113.1,1740.5 1093.3,1751.0 1073.8,1762.0 1054.7,1773.4  A 522.500,522.500 0.00 0,1 1037.4,1742.9 L 1037.4,1742.9 1057.5,1732.7 1078.0,1722.8 1098.9,1713.4 1120.0,1704.6 1141.5,1696.4 1163.2,1688.8 1185.1,1681.9 1207.2,1675.7 1229.4,1670.3 1251.7,1665.8 1274.1,1662.1 1296.4,1659.2 1318.8,1657.3 1341.2,1656.3 1363.5,1656.3 1385.7,1657.2 1407.7,1659.1 1429.6,1662.0 1451.4,1665.9 1472.9,1670.7 1494.2,1676.5 1515.2,1683.3 1536.0,1691.1 1556.4,1699.7 1576.6,1709.3 1596.3,1719.7 1615.8,1731.1 1634.8,1743.2 1653.4,1756.1 1671.6,1769.8 1689.4,1784.2 1706.7,1799.2 1723.5,1814.8 1739.9,1831.0 1755.7,1847.6 1771.1,1864.7 1785.9,1882.1 1800.2,1899.7 1814.0,1917.6  Z" style="stroke-width: 0.5;  stroke: rgb(0,0,0); fill: rgb(179,177,178);" />
<path d="M 1680.215,1009.563 A 522.500,522.500 0.00 0,1 1712.9,1022.8 L 1712.9,1022.8 1703.8,1042.4 1694.3,1061.8 1684.3,1081.0 1673.7,1099.7 1662.6,1118.1 1651.0,1135.9 1638.9,1153.1 1626.3,1169.5 1613.3,1185.3 1599.7,1200.1 1585.7,1214.1 1571.3,1227.2 1556.4,1239.2 1541.1,1250.2 1525.4,1260.1 1509.3,1268.9 1492.8,1276.6 1476.1,1283.1 1458.9,1288.4 1441.5,1292.6 1423.9,1295.5 1405.9,1297.3 1387.8,1297.8 1369.5,1297.2 1351.0,1295.4 1332.4,1292.4 1313.6,1288.4 1294.9,1283.2 1276.1,1277.0 1257.3,1269.8 1238.5,1261.7 1219.9,1252.6 1201.4,1242.7 1183.0,1232.0 1164.9,1220.6 1147.0,1208.6 1129.4,1196.0 1112.1,1182.9 1095.3,1169.5  A 522.500,522.500 0.00 0,1 1118.3,1143.2 L 1118.3,1143.2 1134.0,1157.6 1150.1,1171.5 1166.5,1185.1 1183.2,1198.1 1200.1,1210.4 1217.2,1222.0 1234.5,1232.9 1251.9,1242.9 1269.3,1251.9 1286.8,1259.9 1304.3,1267.0 1321.7,1272.9 1339.0,1277.7 1356.2,1281.3 1373.3,1283.7 1390.2,1284.9 1406.9,1284.9 1423.3,1283.6 1439.5,1281.1 1455.4,1277.3 1471.0,1272.3 1486.3,1266.0 1501.2,1258.5 1515.8,1249.8 1529.9,1240.0 1543.7,1229.0 1557.0,1216.9 1569.9,1203.8 1582.3,1189.7 1594.3,1174.6 1605.8,1158.7 1616.8,1142.0 1627.4,1124.5 1637.4,1106.4 1647.0,1087.8 1656.0,1068.6 1664.6,1049.2 1672.7,1029.4 1680.2,1009.6  Z" style="stroke-width: 0.5;  stroke: rgb(0,0,0); fill: rgb(179,177,178);" />
<path d="M 1500.000,977.500 A 522.500,522.500 0.00 0,1 1518.3,977.8 L 1518.3,977.8 1517.5,998.1 1516.4,1018.3 1514.9,1038.2 1513.2,1057.8 1511.1,1076.8 1508.7,1095.2 1506.0,1112.9 1502.9,1129.7 1499.4,1145.6 1495.5,1160.5 1491.3,1174.3 1486.6,1187.0 1481.6,1198.4 1476.2,1208.5 1470.5,1217.4 1464.3,1224.8 1457.8,1230.9 1450.9,1235.5 1443.7,1238.7 1436.1,1240.5 1428.2,1240.8 1420.0,1239.6 1411.5,1237.0 1402.7,1233.0 1393.6,1227.6 1384.3,1220.9 1374.8,1212.8 1365.1,1203.4 1355.2,1192.9 1345.2,1181.2 1335.1,1168.4 1325.0,1154.6 1314.7,1140.0 1304.5,1124.5 1294.3,1108.3 1284.2,1091.5 1274.2,1074.2 1264.3,1056.6 1254.7,1038.7  A 522.500,522.500 0.00 0,1 1281.2,1025.5 L 1281.2,1025.5 1289.8,1043.9 1298.5,1062.0 1307.4,1079.8 1316.3,1097.1 1325.3,1113.8 1334.3,1129.8 1343.3,1145.0 1352.2,1159.2 1361.0,1172.5 1369.7,1184.7 1378.3,1195.8 1386.7,1205.6 1394.9,1214.2 1402.9,1221.4 1410.6,1227.3 1418.1,1231.7 1425.3,1234.8 1432.2,1236.3 1438.8,1236.4 1445.1,1235.0 1451.1,1232.2 1456.7,1227.9 1462.0,1222.1 1467.0,1214.9 1471.5,1206.4 1475.7,1196.4 1479.6,1185.2 1483.1,1172.8 1486.3,1159.2 1489.1,1144.4 1491.5,1128.7 1493.6,1112.0 1495.4,1094.4 1496.9,1076.1 1498.1,1057.2 1498.9,1037.7 1499.5,1017.9 1499.9,997.7 1500.0,977.5  Z" style="stroke-width: 0.5;  stroke: rgb(0,0,0); fill: rgb(179,177,178);" />
<path d="M 1889.221,1848.588 A 522.500,522.500 0.00 0,1 1869.4,1869.5 L 1869.4,1869.5 1852.5,1853.0 1835.2,1836.6 1817.3,1820.5 1799.0,1804.6 1780.3,1789.1 1761.1,1773.9 1741.5,1759.2 1721.4,1744.9 1701.0,1731.1 1680.1,1717.9 1658.9,1705.1 1637.3,1693.0 1615.3,1681.5 1593.1,1670.6 1570.5,1660.4 1547.6,1650.9 1524.4,1642.0 1501.0,1633.9 1477.4,1626.4 1453.5,1619.7 1429.4,1613.8 1405.2,1608.5 1380.8,1604.0 1356.3,1600.3 1331.7,1597.2 1307.0,1594.9 1282.3,1593.3 1257.5,1592.4 1232.8,1592.2 1208.1,1592.7 1183.4,1593.8 1158.9,1595.6 1134.5,1597.9 1110.2,1600.8 1086.1,1604.3 1062.2,1608.3 1038.6,1612.8 1015.2,1617.8 992.2,1623.1  A 522.500,522.500 0.00 0,1 986.2,1594.8 L 986.2,1594.8 1009.8,1590.7 1033.7,1586.9 1057.8,1583.6 1082.2,1580.7 1106.8,1578.3 1131.6,1576.5 1156.5,1575.1 1181.5,1574.3 1206.6,1574.1 1231.8,1574.5 1257.0,1575.5 1282.2,1577.1 1307.4,1579.4 1332.5,1582.3 1357.6,1585.8 1382.6,1590.1 1407.5,1594.9 1432.2,1600.5 1456.8,1606.7 1481.3,1613.6 1505.5,1621.1 1529.5,1629.2 1553.3,1638.0 1576.9,1647.4 1600.1,1657.5 1623.1,1668.1 1645.8,1679.3 1668.2,1691.0 1690.2,1703.3 1711.9,1716.1 1733.2,1729.3 1754.1,1743.1 1774.7,1757.2 1794.8,1771.7 1814.6,1786.5 1833.9,1801.7 1852.8,1817.1 1871.2,1832.8 1889.2,1848.6  Z" style="stroke-width: 0.5;  stroke: rgb(0,0,0); fill: rgb(179,177,178);" />
<path d="M 1967.495,1266.644 A 522.500,522.500 0.00 0,1 1979.1,1291.5 L 1979.1,1291.5 1955.8,1301.5 1932.3,1311.4 1908.5,1321.0 1884.5,1330.5 1860.3,1339.7 1835.9,1348.8 1811.2,1357.5 1786.4,1366.1 1761.3,1374.3 1736.1,1382.3 1710.7,1390.0 1685.2,1397.4 1659.5,1404.4 1633.7,1411.2 1607.7,1417.6 1581.7,1423.7 1555.5,1429.4 1529.3,1434.8 1502.9,1439.9 1476.5,1444.6 1450.1,1448.9 1423.6,1452.9 1397.0,1456.5 1370.5,1459.8 1343.9,1462.7 1317.3,1465.3 1290.8,1467.5 1264.3,1469.4 1237.8,1471.0 1211.4,1472.2 1185.0,1473.1 1158.8,1473.6 1132.6,1473.9 1106.5,1473.9 1080.6,1473.5 1054.8,1472.9 1029.2,1472.1 1003.7,1470.9 978.4,1469.6  A 522.500,522.500 0.00 0,1 980.6,1442.8 L 980.6,1442.8 1005.5,1445.4 1030.6,1447.7 1055.9,1449.7 1081.4,1451.5 1107.0,1452.9 1132.8,1453.9 1158.7,1454.6 1184.8,1454.9 1210.9,1454.9 1237.1,1454.4 1263.4,1453.6 1289.8,1452.3 1316.1,1450.6 1342.5,1448.5 1368.9,1446.0 1395.3,1443.1 1421.7,1439.7 1448.0,1435.9 1474.3,1431.6 1500.5,1426.9 1526.6,1421.8 1552.6,1416.3 1578.5,1410.4 1604.3,1404.0 1629.9,1397.2 1655.4,1390.1 1680.7,1382.5 1705.9,1374.6 1730.9,1366.3 1755.6,1357.6 1780.2,1348.6 1804.5,1339.3 1828.6,1329.7 1852.4,1319.8 1876.0,1309.6 1899.3,1299.2 1922.3,1288.5 1945.1,1277.7 1967.5,1266.6  Z" style="stroke-width: 0.5;  stroke: rgb(0,0,0); fill: rgb(179,177,178);" />
<path d="M 1966.392,1735.552 A 522.500,522.500 0.00 0,1 1955.3,1756.4 L 1955.3,1756.4 1933.3,1744.1 1911.0,1732.0 1888.4,1720.1 1865.6,1708.4 1842.5,1696.9 1819.1,1685.6 1795.5,1674.6 1771.7,1663.8 1747.6,1653.3 1723.3,1643.1 1698.8,1633.2 1674.1,1623.6 1649.2,1614.4 1624.2,1605.5 1599.0,1596.9 1573.6,1588.7 1548.1,1580.9 1522.4,1573.4 1496.6,1566.3 1470.8,1559.6 1444.8,1553.3 1418.7,1547.4 1392.6,1541.9 1366.5,1536.7 1340.3,1532.0 1314.0,1527.6 1287.8,1523.6 1261.5,1520.0 1235.3,1516.8 1209.1,1513.9 1183.0,1511.4 1156.9,1509.3 1130.9,1507.5 1105.0,1506.0 1079.2,1504.9 1053.5,1504.1 1028.0,1503.5 1002.7,1503.3 977.5,1503.3  A 522.500,522.500 0.00 0,1 977.9,1480.2 L 977.9,1480.2 1003.3,1481.3 1028.9,1482.6 1054.6,1484.1 1080.4,1485.9 1106.4,1488.0 1132.4,1490.3 1158.5,1493.0 1184.7,1495.9 1211.0,1499.1 1237.2,1502.7 1263.5,1506.5 1289.9,1510.6 1316.2,1515.1 1342.5,1519.9 1368.8,1525.0 1395.1,1530.4 1421.3,1536.2 1447.4,1542.3 1473.5,1548.7 1499.6,1555.4 1525.5,1562.4 1551.3,1569.8 1577.1,1577.5 1602.7,1585.4 1628.2,1593.7 1653.5,1602.3 1678.7,1611.1 1703.7,1620.2 1728.6,1629.6 1753.3,1639.2 1777.8,1649.1 1802.1,1659.3 1826.3,1669.6 1850.2,1680.2 1873.9,1690.9 1897.4,1701.8 1920.6,1712.9 1943.6,1724.2 1966.4,1735.6  Z" style="stroke-width: 0.5;  stroke: rgb(0,0,0); fill: rgb(179,177,178);" />
<path d="M 1697.349,1983.797 A 522.500,522.500 0.00 0,1 1677.2,1991.5 L 1677.2,1991.5 1669.7,1971.6 1661.8,1951.9 1653.4,1932.4 1644.5,1913.2 1635.0,1894.5 1625.1,1876.4 1614.7,1858.9 1603.8,1842.2 1592.4,1826.2 1580.6,1811.1 1568.3,1797.0 1555.5,1783.8 1542.3,1771.7 1528.7,1760.7 1514.7,1750.8 1500.3,1742.1 1485.5,1734.6 1470.3,1728.3 1454.8,1723.3 1439.0,1719.5 1422.9,1717.0 1406.6,1715.7 1390.0,1715.7 1373.2,1716.9 1356.2,1719.3 1339.1,1723.0 1321.8,1727.8 1304.5,1733.7 1287.1,1740.7 1269.7,1748.8 1252.3,1757.9 1235.0,1767.9 1217.8,1778.7 1200.7,1790.4 1183.9,1802.8 1167.2,1815.8 1150.9,1829.4 1134.8,1843.4 1119.2,1857.7  A 522.500,522.500 0.00 0,1 1104.5,1841.5 L 1104.5,1841.5 1120.9,1827.7 1137.7,1814.3 1154.8,1801.3 1172.2,1788.9 1189.8,1777.1 1207.7,1766.0 1225.7,1755.7 1243.8,1746.3 1262.0,1737.8 1280.2,1730.2 1298.4,1723.7 1316.6,1718.2 1334.7,1713.9 1352.7,1710.7 1370.6,1708.6 1388.3,1707.8 1405.8,1708.1 1423.1,1709.7 1440.1,1712.5 1456.9,1716.5 1473.3,1721.8 1489.4,1728.2 1505.2,1735.8 1520.6,1744.6 1535.6,1754.6 1550.2,1765.6 1564.3,1777.7 1578.1,1790.8 1591.4,1804.9 1604.2,1819.9 1616.5,1835.7 1628.4,1852.4 1639.8,1869.7 1650.6,1887.7 1661.0,1906.2 1670.8,1925.2 1680.2,1944.5 1689.0,1964.1 1697.3,1983.8  Z" style="stroke-width: 0.5;  stroke: rgb(0,0,0); fill: rgb(179,177,178);" />
<path d="M 1905.082,1830.023 A 522.500,522.500 0.00 0,1 1891.1,1846.4 L 1891.1,1846.4 1873.0,1830.7 1854.5,1815.1 1835.5,1799.8 1816.1,1784.7 1796.3,1770.0 1776.0,1755.6 1755.4,1741.5 1734.4,1727.9 1713.0,1714.7 1691.2,1702.0 1669.1,1689.9 1646.7,1678.2 1623.9,1667.1 1600.9,1656.5 1577.6,1646.6 1554.0,1637.2 1530.1,1628.5 1506.1,1620.4 1481.8,1613.0 1457.3,1606.1 1432.7,1600.0 1407.9,1594.5 1382.9,1589.7 1357.9,1585.5 1332.8,1582.0 1307.6,1579.1 1282.4,1576.9 1257.2,1575.3 1231.9,1574.3 1206.7,1574.0 1181.6,1574.2 1156.6,1575.0 1131.7,1576.4 1106.9,1578.3 1082.3,1580.7 1057.9,1583.6 1033.7,1586.9 1009.8,1590.7 986.2,1594.8  A 522.500,522.500 0.00 0,1 982.7,1573.5 L 982.7,1573.5 1006.7,1570.3 1031.0,1567.4 1055.5,1565.0 1080.3,1563.0 1105.2,1561.4 1130.3,1560.3 1155.5,1559.7 1180.8,1559.6 1206.2,1560.1 1231.7,1561.1 1257.2,1562.6 1282.7,1564.7 1308.2,1567.4 1333.7,1570.7 1359.1,1574.6 1384.5,1579.1 1409.7,1584.2 1434.9,1589.9 1459.9,1596.3 1484.7,1603.2 1509.3,1610.7 1533.8,1618.7 1558.1,1627.4 1582.1,1636.6 1605.9,1646.4 1629.4,1656.8 1652.6,1667.6 1675.6,1679.0 1698.2,1690.8 1720.6,1703.1 1742.6,1715.8 1764.2,1729.0 1785.5,1742.5 1806.4,1756.4 1827.0,1770.6 1847.1,1785.1 1866.8,1799.9 1886.2,1814.9 1905.1,1830.0  Z" style="stroke-width: 0.5;  stroke: rgb(0,0,0); fill: rgb(179,177,178);" />
<path d="M 1865.047,1873.827 A 522.500,522.500 0.00 0,1 1849.7,1888.2 L 1849.7,1888.2 1833.9,1871.0 1817.6,1854.0 1800.8,1837.2 1783.5,1820.8 1765.7,1804.6 1747.4,1788.9 1728.7,1773.6 1709.5,1758.8 1689.9,1744.5 1669.9,1730.8 1649.5,1717.6 1628.6,1705.2 1607.4,1693.3 1585.9,1682.2 1564.0,1671.8 1541.8,1662.1 1519.3,1653.1 1496.5,1644.9 1473.5,1637.5 1450.2,1630.9 1426.7,1625.1 1403.0,1620.0 1379.2,1615.8 1355.2,1612.4 1331.1,1609.7 1306.9,1607.8 1282.6,1606.8 1258.4,1606.4 1234.1,1606.8 1209.9,1608.0 1185.7,1609.8 1161.6,1612.3 1137.6,1615.4 1113.8,1619.2 1090.2,1623.6 1066.8,1628.5 1043.7,1633.9 1020.8,1639.8 998.3,1646.1  A 522.500,522.500 0.00 0,1 992.9,1626.0 L 992.9,1626.0 1015.9,1620.5 1039.1,1615.4 1062.7,1610.8 1086.5,1606.7 1110.5,1603.1 1134.7,1600.1 1159.1,1597.7 1183.5,1595.9 1208.1,1594.7 1232.8,1594.1 1257.4,1594.3 1282.1,1595.2 1306.7,1596.7 1331.3,1599.0 1355.8,1602.1 1380.2,1605.8 1404.5,1610.3 1428.6,1615.6 1452.6,1621.6 1476.4,1628.4 1499.9,1635.9 1523.2,1644.1 1546.2,1653.0 1568.9,1662.6 1591.4,1672.9 1613.5,1683.9 1635.3,1695.5 1656.7,1707.8 1677.8,1720.6 1698.5,1734.0 1718.7,1748.0 1738.6,1762.4 1758.0,1777.3 1777.0,1792.6 1795.6,1808.3 1813.7,1824.3 1831.3,1840.6 1848.4,1857.1 1865.0,1873.8  Z" style="stroke-width: 0.5;  stroke: rgb(0,0,0); fill: rgb(179,177,178);" />
<path d="M 1661.019,1002.929 A 522.500,522.500 0.00 0,1 1678.9,1009.1 L 1678.9,1009.1 1671.4,1029.0 1663.4,1048.7 1654.9,1068.2 1645.9,1087.3 1636.4,1106.0 1626.4,1124.1 1615.9,1141.6 1604.9,1158.3 1593.5,1174.3 1581.6,1189.4 1569.2,1203.5 1556.3,1216.6 1543.1,1228.7 1529.4,1239.7 1515.3,1249.6 1500.8,1258.3 1485.9,1265.8 1470.7,1272.1 1455.1,1277.1 1439.2,1280.9 1423.1,1283.5 1406.7,1284.8 1390.0,1284.8 1373.1,1283.6 1356.1,1281.2 1338.9,1277.5 1321.6,1272.8 1304.2,1266.8 1286.8,1259.8 1269.3,1251.8 1251.9,1242.8 1234.5,1232.8 1217.3,1221.9 1200.1,1210.3 1183.2,1198.0 1166.5,1185.0 1150.1,1171.4 1134.1,1157.5 1118.4,1143.1  A 522.500,522.500 0.00 0,1 1131.6,1129.4 L 1131.6,1129.4 1146.7,1144.3 1162.1,1158.7 1177.9,1172.7 1193.9,1186.2 1210.1,1199.1 1226.5,1211.2 1243.1,1222.5 1259.7,1233.0 1276.4,1242.5 1293.1,1251.0 1309.8,1258.4 1326.4,1264.7 1342.9,1269.9 1359.3,1273.9 1375.5,1276.7 1391.6,1278.2 1407.4,1278.5 1423.0,1277.4 1438.3,1275.1 1453.3,1271.5 1468.0,1266.7 1482.4,1260.5 1496.4,1253.2 1510.0,1244.5 1523.3,1234.7 1536.1,1223.8 1548.5,1211.7 1560.5,1198.5 1572.0,1184.3 1583.0,1169.2 1593.6,1153.2 1603.7,1136.3 1613.4,1118.8 1622.5,1100.5 1631.2,1081.7 1639.4,1062.5 1647.1,1042.8 1654.3,1023.0 1661.0,1002.9  Z" style="stroke-width: 0.5;  stroke: rgb(0,0,0); fill: rgb(179,177,178);" />
<path d="M 1955.286,1756.360 A 522.500,522.500 0.00 0,1 1946.0,1772.2 L 1946.0,1772.2 1924.6,1759.3 1902.9,1746.6 1880.9,1734.1 1858.6,1721.8 1836.0,1709.7 1813.1,1697.9 1789.9,1686.3 1766.5,1675.1 1742.8,1664.1 1718.9,1653.5 1694.7,1643.3 1670.3,1633.4 1645.7,1623.8 1620.9,1614.7 1595.9,1605.9 1570.7,1597.6 1545.4,1589.7 1519.9,1582.2 1494.3,1575.1 1468.6,1568.4 1442.8,1562.2 1416.9,1556.5 1390.9,1551.2 1364.8,1546.3 1338.7,1541.8 1312.6,1537.8 1286.4,1534.3 1260.3,1531.1 1234.2,1528.4 1208.1,1526.1 1182.1,1524.2 1156.1,1522.7 1130.2,1521.6 1104.5,1520.9 1078.9,1520.5 1053.4,1520.5 1028.0,1520.8 1002.9,1521.4 978.0,1522.3  A 522.500,522.500 0.00 0,1 977.5,1504.5 L 977.5,1504.5 1002.7,1504.4 1028.0,1504.6 1053.5,1505.1 1079.2,1505.9 1105.0,1506.9 1130.9,1508.3 1156.9,1510.1 1183.0,1512.2 1209.1,1514.6 1235.3,1517.5 1261.5,1520.6 1287.8,1524.2 1314.0,1528.1 1340.2,1532.5 1366.4,1537.2 1392.6,1542.3 1418.7,1547.8 1444.8,1553.7 1470.8,1560.0 1496.6,1566.6 1522.4,1573.7 1548.1,1581.1 1573.6,1588.9 1599.0,1597.1 1624.2,1605.6 1649.3,1614.5 1674.1,1623.7 1698.8,1633.3 1723.3,1643.2 1747.6,1653.4 1771.7,1663.8 1795.5,1674.6 1819.2,1685.6 1842.5,1696.9 1865.6,1708.4 1888.5,1720.1 1911.0,1732.0 1933.3,1744.1 1955.3,1756.4  Z" style="stroke-width: 0.5;  stroke: rgb(0,0,0); fill: rgb(179,177,178);" />
<path d="M 1770.661,1053.067 A 522.500,522.500 0.00 0,1 1785.8,1062.6 L 1785.8,1062.6 1773.5,1080.9 1760.7,1099.0 1747.4,1116.8 1733.5,1134.2 1719.2,1151.2 1704.4,1167.6 1689.1,1183.4 1673.3,1198.6 1657.1,1213.0 1640.4,1226.6 1623.4,1239.4 1606.0,1251.3 1588.2,1262.3 1570.0,1272.3 1551.5,1281.3 1532.7,1289.3 1513.6,1296.2 1494.2,1302.0 1474.6,1306.7 1454.8,1310.4 1434.8,1312.9 1414.7,1314.4 1394.4,1314.7 1373.9,1314.0 1353.5,1312.2 1332.9,1309.3 1312.4,1305.4 1291.9,1300.5 1271.4,1294.6 1251.0,1287.8 1230.7,1280.1 1210.6,1271.6 1190.6,1262.2 1170.9,1252.2 1151.5,1241.4 1132.3,1230.1 1113.5,1218.2 1095.1,1205.8 1077.1,1193.1  A 522.500,522.500 0.00 0,1 1087.8,1178.9 L 1087.8,1178.9 1105.2,1192.2 1123.0,1205.0 1141.3,1217.4 1159.8,1229.3 1178.7,1240.5 1197.8,1251.1 1217.2,1260.9 1236.7,1269.9 1256.4,1278.1 1276.2,1285.3 1296.1,1291.6 1316.0,1296.9 1335.9,1301.2 1355.8,1304.3 1375.6,1306.5 1395.4,1307.5 1415.1,1307.3 1434.6,1306.1 1453.9,1303.7 1473.1,1300.2 1492.0,1295.5 1510.7,1289.7 1529.1,1282.8 1547.2,1274.8 1565.0,1265.8 1582.4,1255.7 1599.5,1244.6 1616.2,1232.6 1632.6,1219.6 1648.5,1205.8 1664.0,1191.2 1679.0,1175.8 1693.6,1159.7 1707.7,1143.0 1721.3,1125.8 1734.4,1108.1 1747.0,1090.0 1759.1,1071.6 1770.7,1053.1  Z" style="stroke-width: 0.5;  stroke: rgb(0,0,0); fill: rgb(179,177,178);" />
<path d="M 1713.446,1976.914 A 522.500,522.500 0.00 0,1 1700.2,1982.6 L 1700.2,1982.6 1691.8,1962.9 1682.8,1943.4 1673.3,1924.1 1663.3,1905.1 1652.9,1886.7 1641.9,1868.7 1630.4,1851.4 1618.4,1834.8 1605.9,1819.0 1592.9,1804.1 1579.5,1790.0 1565.7,1776.9 1551.4,1764.8 1536.7,1753.8 1521.5,1743.9 1506.0,1735.1 1490.2,1727.5 1473.9,1721.1 1457.4,1715.8 1440.5,1711.8 1423.4,1709.0 1406.0,1707.4 1388.4,1707.0 1370.6,1707.9 1352.7,1709.9 1334.6,1713.1 1316.4,1717.4 1298.1,1722.8 1279.8,1729.3 1261.5,1736.8 1243.2,1745.3 1225.0,1754.7 1206.9,1764.9 1189.0,1776.0 1171.3,1787.7 1153.8,1800.1 1136.7,1813.0 1119.9,1826.4 1103.4,1840.2  A 522.500,522.500 0.00 0,1 1094.2,1829.1 L 1094.2,1829.1 1111.1,1815.8 1128.4,1802.8 1146.0,1790.2 1164.0,1778.3 1182.2,1766.9 1200.6,1756.3 1219.2,1746.4 1237.9,1737.4 1256.7,1729.3 1275.5,1722.2 1294.4,1716.0 1313.2,1710.9 1331.9,1706.9 1350.6,1704.0 1369.1,1702.2 1387.5,1701.6 1405.7,1702.2 1423.7,1704.0 1441.4,1707.0 1458.8,1711.1 1476.0,1716.5 1492.8,1723.0 1509.3,1730.7 1525.4,1739.5 1541.2,1749.5 1556.5,1760.5 1571.5,1772.5 1586.0,1785.6 1600.0,1799.6 1613.6,1814.5 1626.7,1830.2 1639.3,1846.7 1651.4,1863.9 1663.0,1881.7 1674.2,1900.0 1684.8,1918.8 1694.8,1937.9 1704.4,1957.3 1713.4,1976.9  Z" style="stroke-width: 0.5;  stroke: rgb(0,0,0); fill: rgb(179,177,178);" />
<path d="M 1721.975,1026.995 A 522.500,522.500 0.00 0,1 1731.8,1031.8 L 1731.8,1031.8 1722.0,1051.1 1711.6,1070.2 1700.7,1089.1 1689.3,1107.6 1677.3,1125.7 1664.9,1143.2 1651.9,1160.1 1638.5,1176.3 1624.6,1191.8 1610.2,1206.4 1595.4,1220.2 1580.1,1233.1 1564.4,1244.9 1548.3,1255.8 1531.8,1265.6 1515.0,1274.3 1497.8,1281.8 1480.3,1288.3 1462.4,1293.6 1444.3,1297.7 1426.0,1300.7 1407.4,1302.5 1388.6,1303.1 1369.7,1302.5 1350.6,1300.9 1331.4,1298.1 1312.1,1294.2 1292.7,1289.2 1273.4,1283.3 1254.1,1276.3 1234.9,1268.4 1215.7,1259.6 1196.7,1250.0 1177.9,1239.6 1159.3,1228.5 1141.0,1216.7 1123.0,1204.4 1105.3,1191.7 1088.1,1178.6  A 522.500,522.500 0.00 0,1 1094.9,1170.0 L 1094.9,1170.0 1111.8,1183.4 1129.1,1196.5 1146.7,1209.1 1164.7,1221.1 1182.9,1232.5 1201.4,1243.2 1220.0,1253.2 1238.8,1262.3 1257.6,1270.4 1276.5,1277.7 1295.5,1283.9 1314.4,1289.1 1333.3,1293.2 1352.1,1296.3 1370.7,1298.1 1389.3,1298.8 1407.6,1298.4 1425.8,1296.7 1443.7,1293.9 1461.4,1289.9 1478.7,1284.6 1495.8,1278.3 1512.6,1270.7 1529.0,1262.0 1545.0,1252.3 1560.6,1241.4 1575.8,1229.5 1590.6,1216.6 1605.0,1202.8 1618.9,1188.1 1632.3,1172.5 1645.3,1156.2 1657.8,1139.2 1669.8,1121.5 1681.2,1103.3 1692.2,1084.7 1702.6,1065.7 1712.6,1046.4 1722.0,1027.0  Z" style="stroke-width: 0.5;  stroke: rgb(0,0,0); fill: rgb(179,177,178);" />
<path d="M 1960.816,1253.717 A 522.500,522.500 0.00 0,1 1965.8,1263.3 L 1965.8,1263.3 1943.5,1274.5 1920.9,1285.5 1897.9,1296.3 1874.7,1306.9 1851.2,1317.2 1827.4,1327.2 1803.4,1337.0 1779.2,1346.4 1754.7,1355.6 1730.0,1364.3 1705.1,1372.8 1680.0,1380.8 1654.7,1388.5 1629.3,1395.7 1603.7,1402.6 1578.0,1409.1 1552.1,1415.1 1526.1,1420.7 1500.1,1425.9 1473.9,1430.7 1447.7,1435.0 1421.4,1438.9 1395.0,1442.3 1368.7,1445.3 1342.3,1447.9 1315.9,1450.0 1289.6,1451.7 1263.2,1453.0 1237.0,1453.8 1210.8,1454.3 1184.7,1454.4 1158.6,1454.1 1132.7,1453.4 1107.0,1452.3 1081.3,1450.9 1055.9,1449.2 1030.6,1447.1 1005.5,1444.8 980.7,1442.2  A 522.500,522.500 0.00 0,1 982.0,1431.4 L 982.0,1431.4 1006.7,1434.5 1031.6,1437.4 1056.7,1439.9 1082.0,1442.0 1107.5,1443.9 1133.1,1445.3 1158.9,1446.4 1184.8,1447.1 1210.8,1447.3 1236.9,1447.2 1263.1,1446.6 1289.3,1445.6 1315.6,1444.1 1341.9,1442.1 1368.2,1439.8 1394.4,1436.9 1420.7,1433.6 1446.9,1429.8 1473.0,1425.5 1499.1,1420.8 1525.0,1415.6 1550.9,1409.9 1576.6,1403.8 1602.2,1397.3 1627.7,1390.3 1653.0,1382.8 1678.1,1375.0 1703.0,1366.7 1727.7,1358.1 1752.2,1349.0 1776.5,1339.6 1800.5,1329.9 1824.2,1319.8 1847.7,1309.5 1871.0,1298.8 1893.9,1287.9 1916.5,1276.7 1938.8,1265.3 1960.8,1253.7  Z" style="stroke-width: 0.5;  stroke: rgb(0,0,0); fill: rgb(179,177,178);" />
<path d="M 1787.059,1063.419 A 522.500,522.500 0.00 0,1 1794.5,1068.4 L 1794.5,1068.4 1781.8,1086.5 1768.6,1104.5 1754.9,1122.1 1740.6,1139.3 1725.8,1156.1 1710.6,1172.4 1694.9,1188.1 1678.7,1203.1 1662.1,1217.4 1645.0,1230.9 1627.6,1243.5 1609.7,1255.3 1591.5,1266.2 1572.9,1276.2 1554.1,1285.1 1534.9,1293.1 1515.4,1300.0 1495.6,1305.8 1475.7,1310.6 1455.5,1314.3 1435.1,1316.9 1414.6,1318.5 1393.9,1318.9 1373.2,1318.3 1352.3,1316.7 1331.4,1314.0 1310.5,1310.3 1289.7,1305.6 1268.9,1299.9 1248.1,1293.3 1227.5,1285.9 1207.1,1277.6 1186.8,1268.5 1166.8,1258.8 1147.0,1248.3 1127.5,1237.2 1108.4,1225.6 1089.7,1213.6 1071.4,1201.2  A 522.500,522.500 0.00 0,1 1076.5,1193.9 L 1076.5,1193.9 1094.6,1206.6 1113.0,1218.9 1131.8,1230.8 1151.0,1242.1 1170.5,1252.8 1190.2,1262.9 1210.2,1272.2 1230.4,1280.7 1250.7,1288.4 1271.1,1295.2 1291.7,1301.0 1312.2,1305.9 1332.8,1309.8 1353.4,1312.7 1373.9,1314.5 1394.4,1315.2 1414.7,1314.9 1434.9,1313.4 1455.0,1310.9 1474.9,1307.2 1494.5,1302.5 1513.9,1296.6 1533.1,1289.7 1551.9,1281.8 1570.5,1272.8 1588.7,1262.8 1606.5,1251.9 1624.0,1240.0 1641.1,1227.2 1657.8,1213.6 1674.1,1199.2 1689.9,1184.1 1705.3,1168.3 1720.2,1151.9 1734.6,1134.9 1748.5,1117.5 1761.9,1099.8 1774.7,1081.7 1787.1,1063.4  Z" style="stroke-width: 0.5;  stroke: rgb(0,0,0); fill: rgb(179,177,178);" />
<path d="M 1979.438,1292.285 A 522.500,522.500 0.00 0,1 1982.9,1300.4 L 1982.9,1300.4 1959.3,1310.0 1935.5,1319.5 1911.5,1328.8 1887.3,1337.9 1862.8,1346.9 1838.2,1355.6 1813.3,1364.1 1788.3,1372.3 1763.1,1380.3 1737.8,1388.0 1712.3,1395.5 1686.6,1402.7 1660.8,1409.6 1634.9,1416.2 1608.9,1422.5 1582.7,1428.5 1556.5,1434.2 1530.2,1439.6 1503.8,1444.6 1477.3,1449.3 1450.8,1453.7 1424.2,1457.8 1397.7,1461.5 1371.1,1464.9 1344.5,1468.0 1317.9,1470.8 1291.3,1473.2 1264.7,1475.4 1238.2,1477.2 1211.7,1478.7 1185.3,1479.9 1159.0,1480.8 1132.7,1481.4 1106.6,1481.8 1080.6,1481.8 1054.7,1481.7 1028.9,1481.3 1003.3,1480.6 977.9,1479.7  A 522.500,522.500 0.00 0,1 978.3,1471.1 L 978.3,1471.1 1003.6,1472.4 1029.1,1473.4 1054.8,1474.2 1080.6,1474.8 1106.5,1475.0 1132.6,1475.0 1158.8,1474.7 1185.0,1474.1 1211.4,1473.1 1237.8,1471.9 1264.3,1470.3 1290.8,1468.3 1317.4,1466.1 1343.9,1463.5 1370.5,1460.5 1397.1,1457.2 1423.6,1453.5 1450.1,1449.5 1476.6,1445.2 1503.0,1440.4 1529.3,1435.4 1555.6,1430.0 1581.8,1424.2 1607.8,1418.1 1633.8,1411.7 1659.6,1404.9 1685.3,1397.9 1710.8,1390.5 1736.2,1382.8 1761.5,1374.9 1786.5,1366.6 1811.4,1358.1 1836.1,1349.4 1860.5,1340.4 1884.8,1331.1 1908.8,1321.7 1932.6,1312.1 1956.1,1302.3 1979.4,1292.3  Z" style="stroke-width: 0.5;  stroke: rgb(0,0,0); fill: rgb(179,177,178);" />
</g>
<g id="plot0">
<g id="plot0-axis">
</g>
<line x1='2244.8' y1='1588.2' x2='2244.8' y2='1588.2' style="stroke-width:14.0;stroke:rgb(0,0,0);stroke-linecap:round;fill:none;" />
<line x1='2244.8' y1='1588.2' x2='2284.5' y2='1592.9' style="stroke-width:14.0;stroke:rgb(0,0,0);stroke-linecap:round;fill:none;" />
<line x1='2284.5' y1='1592.9' x2='2284.5' y2='1592.9' style="stroke-width:14.0;stroke:rgb(0,0,0);stroke-linecap:round;fill:none;" />
<text x="2301.4" y="1617.6" font-size="46.8px" font-family="CMUBright-Roman" style="text-anchor:start;fill:rgb(255,38,78);" transform="rotate(6.8,2301.4,1617.6)" >HistocapCB055<tspan baseline-shift="-40%" font-size="90%">s</tspan>00016</text>
</g>
<defs>
<pattern id="checker" width="10" height="10" patternTransform="rotate(45 0 0)" patternUnits="userSpaceOnUse"><line x1="0" y1="0" x2="10" y2="0" style="stroke:black;stroke-width:5" /><line x1="0" y1="0" x2="0" y2="10" style="stroke:black;stroke-width:4" /></pattern>
<pattern id="vline" width="10" height="10" patternTransform="rotate(0 0 0)" patternUnits="userSpaceOnUse"><line x1="0" y1="0" x2="0" y2="10" style="stroke:black;stroke-width:5" /></pattern>
<pattern id="vline-sparse" width="10" height="10" patternTransform="rotate(0 0 0)" patternUnits="userSpaceOnUse"><line x1="0" y1="0" x2="0" y2="10" style="stroke:black;stroke-width:2" /></pattern>
<pattern id="hline" width="10" height="10" patternTransform="rotate(0 0 0)" patternUnits="userSpaceOnUse"><line x1="0" y1="0" x2="10" y2="0" style="stroke:black;stroke-width:5" /></pattern>
<pattern id="hline-sparse" width="10" height="10" patternTransform="rotate(0 0 0)" patternUnits="userSpaceOnUse"><line x1="0" y1="0" x2="10" y2="0" style="stroke:black;stroke-width:2" /></pattern>
<pattern id="checker" width="10" height="10" patternTransform="rotate(45 0 0)" patternUnits="userSpaceOnUse"><line x1="0" y1="0" x2="10" y2="0" style="stroke:black;stroke-width:2" /><line x1="0" y1="0" x2="0" y2="10" style="stroke:black;stroke-width:2" /></pattern>
</defs>
</svg>
