<?xml version="1.0" encoding="utf-8" standalone="no"?>
<!DOCTYPE svg PUBLIC "-//W3C//DTD SVG 1.1//EN" "http://www.w3.org/Graphics/SVG/1.1/DTD/svg11.dtd">
<svg width="3000px" height="3000px" version="1.1" xmlns="http://www.w3.org/2000/svg" xmlns:xlink="http://www.w3.org/1999/xlink">
<g id="bg">
<rect x="0" y="0" width="3000px" height="3000px" style="fill:rgb(255,255,255);"/>
</g>
<g id="ideograms">
<path d="M1500.000,950.000 A550.000,550.000 40.000 0,1 1841.030,1931.507 L1965.041,2088.419 A750.000,750.000 0.000 0,0 1500.000,750.000 Z" style="stroke-width:2.0;stroke:rgb(0,0,0);stroke-linecap:round;fill:rgb(179,177,178);" />
<text x="2421.0" y="1180.0" font-size="46.8px" font-family="CMUBright-Roman" style="text-anchor:middle;fill:rgb(0,0,0);" transform="rotate(430.8,2421.0,1180.0)" >HistomissSECH83<tspan baseline-shift="-40%" font-size="90%">3</tspan></text>
<line x1='1657.9' y1='766.8' x2='1660.4' y2='755.1' style="stroke-width:8.0;stroke:rgb(150,150,150);stroke-linecap:round;fill:none;" />
<line x1='1808.7' y1='816.5' x2='1813.7' y2='805.6' style="stroke-width:8.0;stroke:rgb(150,150,150);stroke-linecap:round;fill:none;" />
<line x1='1945.7' y1='896.8' x2='1952.9' y2='887.2' style="stroke-width:8.0;stroke:rgb(150,150,150);stroke-linecap:round;fill:none;" />
<line x1='2062.7' y1='1004.2' x2='2071.7' y2='996.3' style="stroke-width:8.0;stroke:rgb(150,150,150);stroke-linecap:round;fill:none;" />
<line x1='2154.5' y1='1133.8' x2='2165.0' y2='1127.9' style="stroke-width:8.0;stroke:rgb(150,150,150);stroke-linecap:round;fill:none;" />
<text x="2182.2" y="1134.3" font-size="41.6px" font-family="CMUBright-Roman" style="text-anchor:start;fill:rgb(150,150,150);" transform="rotate(330.8,2182.2,1134.3)" >50 kb</text>
<line x1='2216.9' y1='1279.8' x2='2228.4' y2='1276.3' style="stroke-width:8.0;stroke:rgb(150,150,150);stroke-linecap:round;fill:none;" />
<line x1='2247.2' y1='1435.7' x2='2259.2' y2='1434.7' style="stroke-width:8.0;stroke:rgb(150,150,150);stroke-linecap:round;fill:none;" />
<line x1='2244.0' y1='1594.5' x2='2255.9' y2='1596.0' style="stroke-width:8.0;stroke:rgb(150,150,150);stroke-linecap:round;fill:none;" />
<line x1='2207.5' y1='1749.0' x2='2218.8' y2='1753.0' style="stroke-width:8.0;stroke:rgb(150,150,150);stroke-linecap:round;fill:none;" />
<line x1='2139.2' y1='1892.4' x2='2149.4' y2='1898.7' style="stroke-width:8.0;stroke:rgb(150,150,150);stroke-linecap:round;fill:none;" />
<text x="2152.2" y="1916.8" font-size="41.6px" font-family="CMUBright-Roman" style="text-anchor:start;fill:rgb(150,150,150);" transform="rotate(31.5,2152.2,1916.8)" >100 kb</text>
<line x1='2042.2' y1='2018.2' x2='2050.9' y2='2026.5' style="stroke-width:8.0;stroke:rgb(150,150,150);stroke-linecap:round;fill:none;" />
<g id="highlighttrack_0">
<path d="M1640.942,968.365 A550.000,550.000 40.000 0,1 1689.311,983.607 L1758.151,795.828 A750.000,750.000 0.000 0,0 1692.194,775.044 Z" style="stroke-width:14.0;stroke:rgb(0,0,0);stroke-linecap:round;fill:rgb(255,38,78);" />
</g>
<path d="M1500.000,950.000 A550.000,550.000 40.000 0,1 1841.030,1931.507 L1965.041,2088.419 A750.000,750.000 0.000 0,0 1500.000,750.000 Z" style="stroke-width:2.0;stroke:rgb(0,0,0);stroke-linecap:round;fill:none;" />
<path d="M1517.813,2049.711 A550.000,550.000 40.000 0,1 1173.125,1057.674 L1054.261,896.828 A750.000,750.000 0.000 0,0 1524.291,2249.607 Z" style="stroke-width:2.0;stroke:rgb(0,0,0);stroke-linecap:round;fill:rgb(179,177,178);" />
<text x="536.5" y="1834.8" font-size="46.8px" font-family="CMUBright-Roman" style="text-anchor:middle;fill:rgb(0,0,0);" transform="rotate(70.8,536.5,1834.8)" >HistomissSECH87<tspan baseline-shift="-40%" font-size="90%">3</tspan></text>
<line x1='937.3' y1='1004.2' x2='928.3' y2='996.3' style="stroke-width:8.0;stroke:rgb(150,150,150);stroke-linecap:round;fill:none;" />
<line x1='845.5' y1='1133.8' x2='835.0' y2='1127.9' style="stroke-width:8.0;stroke:rgb(150,150,150);stroke-linecap:round;fill:none;" />
<line x1='783.1' y1='1279.8' x2='771.6' y2='1276.3' style="stroke-width:8.0;stroke:rgb(150,150,150);stroke-linecap:round;fill:none;" />
<line x1='752.8' y1='1435.7' x2='740.8' y2='1434.7' style="stroke-width:8.0;stroke:rgb(150,150,150);stroke-linecap:round;fill:none;" />
<line x1='756.0' y1='1594.5' x2='744.1' y2='1596.0' style="stroke-width:8.0;stroke:rgb(150,150,150);stroke-linecap:round;fill:none;" />
<text x="734.1" y="1611.4" font-size="41.6px" font-family="CMUBright-Roman" style="text-anchor:end;fill:rgb(150,150,150);" transform="rotate(-7.2,734.1,1611.4)" >50 kb</text>
<line x1='792.5' y1='1749.0' x2='781.2' y2='1753.0' style="stroke-width:8.0;stroke:rgb(150,150,150);stroke-linecap:round;fill:none;" />
<line x1='860.8' y1='1892.4' x2='850.6' y2='1898.7' style="stroke-width:8.0;stroke:rgb(150,150,150);stroke-linecap:round;fill:none;" />
<line x1='957.8' y1='2018.2' x2='949.1' y2='2026.5' style="stroke-width:8.0;stroke:rgb(150,150,150);stroke-linecap:round;fill:none;" />
<line x1='1079.0' y1='2120.7' x2='1072.3' y2='2130.6' style="stroke-width:8.0;stroke:rgb(150,150,150);stroke-linecap:round;fill:none;" />
<line x1='1219.2' y1='2195.4' x2='1214.7' y2='2206.6' style="stroke-width:8.0;stroke:rgb(150,150,150);stroke-linecap:round;fill:none;" />
<text x="1223.2" y="2222.8" font-size="41.6px" font-family="CMUBright-Roman" style="text-anchor:end;fill:rgb(150,150,150);" transform="rotate(-68.0,1223.2,2222.8)" >100 kb</text>
<line x1='1371.9' y1='2239.0' x2='1369.8' y2='2250.8' style="stroke-width:8.0;stroke:rgb(150,150,150);stroke-linecap:round;fill:none;" />
<path d="M1517.813,2049.711 A550.000,550.000 40.000 0,1 1173.125,1057.674 L1054.261,896.828 A750.000,750.000 0.000 0,0 1524.291,2249.607 Z" style="stroke-width:2.0;stroke:rgb(0,0,0);stroke-linecap:round;fill:none;" />
</g>
<g id="track_0">
<path d="M 1977.647,1288.199 A 522.500,522.500 0.00 0,1 1989.6,1682.4 L 1989.6,1682.4 1968.4,1674.8 1946.8,1667.6 1925.0,1661.0 1902.8,1654.9 1880.5,1649.4 1858.0,1644.6 1835.4,1640.6 1812.8,1637.3 1790.1,1634.8 1767.4,1633.1 1744.8,1632.2 1722.2,1632.3 1699.8,1633.2 1677.5,1635.1 1655.4,1637.9 1633.5,1641.6 1611.9,1646.3 1590.6,1652.0 1569.5,1658.6 1548.8,1666.1 1528.5,1674.6 1508.5,1684.0 1488.9,1694.4 1469.8,1705.6 1451.1,1717.6 1432.8,1730.5 1415.0,1744.2 1397.7,1758.7 1381.0,1773.9 1364.7,1789.8 1348.9,1806.3 1333.7,1823.5 1319.0,1841.1 1304.9,1859.2 1291.3,1877.8 1278.3,1896.7 1265.9,1915.8 1254.0,1935.2 1242.6,1954.7  A 522.500,522.500 0.00 0,1 998.4,1646.2 L 998.4,1646.2 1023.7,1638.8 1049.0,1631.3 1074.4,1623.7 1099.8,1616.0 1125.3,1608.2 1150.7,1600.4 1176.2,1592.4 1201.7,1584.3 1227.2,1576.2 1252.7,1567.9 1278.2,1559.6 1303.7,1551.1 1329.2,1542.5 1354.6,1533.9 1380.1,1525.1 1405.5,1516.3 1430.9,1507.3 1456.3,1498.3 1481.7,1489.1 1507.0,1479.8 1532.3,1470.5 1557.5,1461.0 1582.7,1451.5 1607.9,1441.9 1633.0,1432.1 1658.0,1422.3 1683.0,1412.4 1707.9,1402.5 1732.8,1392.4 1757.6,1382.3 1782.4,1372.1 1807.0,1361.8 1831.6,1351.4 1856.2,1341.0 1880.6,1330.6 1905.0,1320.1 1929.3,1309.5 1953.5,1298.9 1977.6,1288.2  Z" style="stroke-width: 0.5;  stroke: rgb(0,0,0); fill: rgb(179,177,178);" />
<path d="M 1679.845,1009.427 A 522.500,522.500 0.00 0,1 1822.1,1088.6 L 1822.1,1088.6 1807.5,1106.8 1792.4,1125.0 1776.7,1142.9 1760.6,1160.5 1744.0,1177.9 1726.8,1194.9 1709.2,1211.5 1691.1,1227.6 1672.5,1243.3 1653.5,1258.4 1634.0,1273.0 1614.1,1286.9 1593.7,1300.3 1573.0,1313.0 1551.9,1325.0 1530.4,1336.3 1508.5,1346.8 1486.3,1356.7 1463.8,1365.8 1441.1,1374.1 1418.0,1381.7 1394.7,1388.4 1371.2,1394.4 1347.5,1399.7 1323.6,1404.1 1299.6,1407.8 1275.4,1410.7 1251.2,1412.9 1226.9,1414.3 1202.6,1415.1 1178.3,1415.1 1154.1,1414.4 1129.9,1413.1 1105.8,1411.2 1081.9,1408.7 1058.2,1405.6 1034.7,1402.0 1011.4,1397.9 988.5,1393.3  A 522.500,522.500 0.00 0,1 1046.1,1241.2 L 1046.1,1241.2 1065.1,1251.7 1084.5,1261.9 1104.2,1271.5 1124.1,1280.5 1144.2,1288.8 1164.5,1296.5 1184.8,1303.3 1205.2,1309.4 1225.6,1314.5 1245.9,1318.7 1266.2,1321.9 1286.3,1324.1 1306.2,1325.3 1325.9,1325.5 1345.4,1324.5 1364.6,1322.4 1383.5,1319.3 1402.1,1315.0 1420.3,1309.6 1438.1,1303.1 1455.5,1295.5 1472.4,1286.8 1488.9,1277.0 1504.9,1266.2 1520.4,1254.3 1535.4,1241.5 1549.8,1227.8 1563.8,1213.1 1577.2,1197.6 1590.0,1181.2 1602.2,1164.2 1613.9,1146.4 1625.0,1128.0 1635.6,1109.1 1645.6,1089.8 1655.0,1070.0 1663.8,1050.0 1672.1,1029.8 1679.8,1009.4  Z" style="stroke-width: 0.5;  stroke: rgb(0,0,0); fill: rgb(179,177,178);" />
<path d="M 1822.742,1089.094 A 522.500,522.500 0.00 0,1 1928.4,1200.8 L 1928.4,1200.8 1907.7,1215.1 1886.6,1229.3 1865.3,1243.4 1843.7,1257.3 1821.8,1271.0 1799.7,1284.5 1777.2,1297.8 1754.5,1310.9 1731.6,1323.7 1708.4,1336.2 1685.0,1348.4 1661.3,1360.4 1637.5,1372.0 1613.4,1383.4 1589.1,1394.4 1564.7,1405.0 1540.0,1415.3 1515.2,1425.3 1490.3,1434.9 1465.2,1444.1 1440.0,1453.0 1414.6,1461.4 1389.2,1469.6 1363.7,1477.3 1338.0,1484.6 1312.4,1491.6 1286.6,1498.2 1260.9,1504.4 1235.1,1510.2 1209.3,1515.7 1183.6,1520.8 1157.8,1525.6 1132.1,1530.0 1106.5,1534.1 1080.9,1537.8 1055.5,1541.2 1030.1,1544.3 1004.9,1547.1 979.9,1549.7  A 522.500,522.500 0.00 0,1 987.9,1396.1 L 987.9,1396.1 1010.9,1400.5 1034.2,1404.5 1057.7,1408.0 1081.5,1411.0 1105.5,1413.4 1129.5,1415.2 1153.8,1416.4 1178.0,1416.9 1202.4,1416.8 1226.7,1416.0 1251.0,1414.5 1275.3,1412.2 1299.4,1409.2 1323.5,1405.4 1347.4,1400.9 1371.1,1395.6 1394.7,1389.5 1418.0,1382.6 1441.1,1375.0 1463.9,1366.6 1486.4,1357.5 1508.6,1347.6 1530.5,1336.9 1552.0,1325.6 1573.2,1313.6 1593.9,1300.9 1614.3,1287.5 1634.2,1273.5 1653.8,1258.9 1672.8,1243.8 1691.4,1228.1 1709.6,1212.0 1727.2,1195.4 1744.4,1178.4 1761.1,1161.0 1777.3,1143.4 1792.9,1125.5 1808.1,1107.3 1822.7,1089.1  Z" style="stroke-width: 0.5;  stroke: rgb(0,0,0); fill: rgb(179,177,178);" />
<path d="M 1930.660,1204.131 A 522.500,522.500 0.00 0,1 1977.2,1287.2 L 1977.2,1287.2 1953.1,1297.9 1928.9,1308.5 1904.7,1319.2 1880.3,1329.7 1855.9,1340.2 1831.4,1350.7 1806.8,1361.0 1782.1,1371.4 1757.4,1381.6 1732.6,1391.7 1707.7,1401.8 1682.8,1411.8 1657.8,1421.7 1632.8,1431.6 1607.7,1441.3 1582.5,1450.9 1557.3,1460.5 1532.1,1469.9 1506.8,1479.3 1481.5,1488.5 1456.1,1497.7 1430.7,1506.7 1405.3,1515.7 1379.8,1524.5 1354.4,1533.2 1328.9,1541.9 1303.4,1550.4 1277.9,1558.8 1252.4,1567.1 1226.9,1575.4 1201.4,1583.5 1175.9,1591.5 1150.4,1599.4 1124.9,1607.2 1099.5,1614.9 1074.0,1622.5 1048.7,1630.0 1023.3,1637.5 998.0,1644.8  A 522.500,522.500 0.00 0,1 980.0,1551.4 L 980.0,1551.4 1005.1,1548.8 1030.4,1545.9 1055.7,1542.7 1081.2,1539.2 1106.8,1535.4 1132.4,1531.3 1158.1,1526.8 1183.9,1522.0 1209.7,1516.9 1235.5,1511.4 1261.3,1505.5 1287.0,1499.3 1312.8,1492.7 1338.5,1485.7 1364.1,1478.4 1389.7,1470.7 1415.2,1462.6 1440.5,1454.2 1465.8,1445.3 1490.9,1436.2 1515.9,1426.6 1540.8,1416.7 1565.4,1406.5 1590.0,1395.9 1614.3,1385.0 1638.4,1373.7 1662.4,1362.2 1686.1,1350.3 1709.6,1338.2 1732.9,1325.8 1755.9,1313.1 1778.7,1300.2 1801.2,1287.0 1823.5,1273.6 1845.5,1260.0 1867.2,1246.3 1888.6,1232.4 1909.8,1218.3 1930.7,1204.1  Z" style="stroke-width: 0.5;  stroke: rgb(0,0,0); fill: rgb(179,177,178);" />
<path d="M 1517.022,977.777 A 522.500,522.500 0.00 0,1 1599.3,987.0 L 1599.3,987.0 1595.0,1007.8 1590.2,1028.6 1584.9,1049.1 1579.1,1069.4 1572.7,1089.3 1565.7,1108.7 1558.1,1127.6 1549.9,1145.8 1541.2,1163.3 1531.8,1179.9 1521.9,1195.8 1511.3,1210.7 1500.2,1224.6 1488.4,1237.6 1476.1,1249.4 1463.3,1260.2 1449.9,1269.8 1435.9,1278.3 1421.4,1285.6 1406.4,1291.7 1391.0,1296.6 1375.1,1300.3 1358.8,1302.7 1342.0,1304.0 1324.9,1304.1 1307.5,1303.1 1289.8,1300.9 1271.8,1297.6 1253.7,1293.2 1235.3,1287.8 1216.8,1281.4 1198.3,1274.1 1179.7,1265.9 1161.1,1256.9 1142.6,1247.1 1124.3,1236.7 1106.1,1225.7 1088.2,1214.2 1070.6,1202.3  A 522.500,522.500 0.00 0,1 1123.0,1138.2 L 1123.0,1138.2 1138.1,1152.4 1153.4,1166.3 1168.9,1179.7 1184.6,1192.5 1200.3,1204.7 1216.0,1216.2 1231.7,1226.9 1247.2,1236.7 1262.7,1245.5 1277.9,1253.2 1292.9,1259.9 1307.6,1265.5 1322.0,1269.9 1336.0,1273.0 1349.6,1275.0 1362.8,1275.6 1375.6,1274.9 1387.9,1273.0 1399.7,1269.7 1410.9,1265.1 1421.6,1259.2 1431.8,1252.1 1441.4,1243.6 1450.4,1233.9 1458.8,1223.0 1466.6,1211.0 1473.9,1197.8 1480.5,1183.5 1486.6,1168.3 1492.0,1152.1 1496.9,1135.0 1501.2,1117.1 1505.0,1098.5 1508.2,1079.3 1510.9,1059.6 1513.1,1039.5 1514.9,1019.1 1516.2,998.5 1517.0,977.8  Z" style="stroke-width: 0.5;  stroke: rgb(0,0,0); fill: rgb(179,177,178);" />
<path d="M 1989.027,1684.006 A 522.500,522.500 0.00 0,1 1966.9,1734.6 L 1966.9,1734.6 1947.1,1724.9 1927.0,1715.7 1906.5,1707.1 1885.9,1699.0 1865.0,1691.5 1844.0,1684.8 1822.8,1678.8 1801.7,1673.7 1780.5,1669.4 1759.3,1666.0 1738.2,1663.6 1717.3,1662.1 1696.5,1661.6 1675.9,1662.1 1655.5,1663.7 1635.4,1666.4 1615.5,1670.0 1596.0,1674.8 1576.9,1680.6 1558.1,1687.5 1539.7,1695.5 1521.7,1704.4 1504.2,1714.4 1487.1,1725.4 1470.6,1737.4 1454.5,1750.3 1438.9,1764.1 1423.9,1778.8 1409.4,1794.3 1395.4,1810.5 1382.0,1827.5 1369.2,1845.1 1356.9,1863.3 1345.2,1882.0 1334.1,1901.2 1323.5,1920.7 1313.6,1940.6 1304.1,1960.6 1295.3,1980.7  A 522.500,522.500 0.00 0,1 1245.6,1956.4 L 1245.6,1956.4 1256.8,1936.9 1268.6,1917.4 1280.9,1898.2 1293.8,1879.3 1307.2,1860.7 1321.2,1842.5 1335.8,1824.8 1350.9,1807.6 1366.5,1791.0 1382.6,1775.1 1399.3,1759.8 1416.5,1745.3 1434.1,1731.6 1452.3,1718.6 1470.9,1706.5 1489.9,1695.3 1509.4,1685.0 1529.3,1675.6 1549.5,1667.1 1570.1,1659.5 1591.1,1652.9 1612.3,1647.3 1633.9,1642.6 1655.7,1638.8 1677.7,1636.0 1699.9,1634.2 1722.3,1633.3 1744.7,1633.3 1767.3,1634.1 1789.9,1635.9 1812.6,1638.4 1835.2,1641.8 1857.7,1645.9 1880.2,1650.7 1902.4,1656.2 1924.5,1662.4 1946.3,1669.1 1967.9,1676.3 1989.0,1684.0  Z" style="stroke-width: 0.5;  stroke: rgb(0,0,0); fill: rgb(179,177,178);" />
<path d="M 1966.229,1735.874 A 522.500,522.500 0.00 0,1 1945.0,1773.9 L 1945.0,1773.9 1926.4,1762.8 1907.5,1752.1 1888.4,1741.9 1868.9,1732.3 1849.3,1723.4 1829.6,1715.2 1809.8,1707.8 1790.0,1701.2 1770.1,1695.6 1750.4,1690.9 1730.7,1687.1 1711.2,1684.4 1691.9,1682.8 1672.7,1682.3 1653.9,1682.8 1635.3,1684.5 1617.1,1687.4 1599.2,1691.3 1581.7,1696.5 1564.5,1702.7 1547.9,1710.1 1531.6,1718.7 1515.9,1728.3 1500.6,1739.0 1485.8,1750.7 1471.6,1763.5 1457.9,1777.2 1444.7,1791.9 1432.1,1807.4 1420.1,1823.8 1408.6,1840.9 1397.7,1858.7 1387.4,1877.2 1377.6,1896.2 1368.4,1915.7 1359.8,1935.5 1351.7,1955.7 1344.2,1976.0 1337.2,1996.5  A 522.500,522.500 0.00 0,1 1296.4,1981.2 L 1296.4,1981.2 1305.2,1961.1 1314.6,1941.0 1324.5,1921.2 1335.0,1901.6 1346.1,1882.5 1357.7,1863.7 1370.0,1845.5 1382.7,1827.9 1396.1,1810.9 1410.0,1794.7 1424.4,1779.2 1439.4,1764.5 1454.9,1750.7 1471.0,1737.8 1487.5,1725.9 1504.5,1714.9 1522.0,1704.9 1539.9,1695.9 1558.2,1688.0 1577.0,1681.1 1596.1,1675.3 1615.6,1670.6 1635.3,1666.9 1655.4,1664.3 1675.8,1662.8 1696.3,1662.3 1717.1,1662.8 1738.0,1664.3 1759.0,1666.8 1780.2,1670.3 1801.3,1674.6 1822.4,1679.8 1843.5,1685.8 1864.5,1692.6 1885.4,1700.1 1906.0,1708.2 1926.4,1716.9 1946.5,1726.2 1966.2,1735.9  Z" style="stroke-width: 0.5;  stroke: rgb(0,0,0); fill: rgb(179,177,178);" />
<path d="M 1600.405,987.238 A 522.500,522.500 0.00 0,1 1633.9,994.9 L 1633.9,994.9 1628.1,1015.7 1621.8,1036.3 1615.0,1056.8 1607.6,1077.0 1599.6,1096.8 1591.0,1116.2 1581.8,1135.0 1572.1,1153.3 1561.7,1170.8 1550.8,1187.6 1539.2,1203.5 1527.1,1218.6 1514.4,1232.8 1501.1,1246.0 1487.3,1258.2 1472.8,1269.3 1457.9,1279.3 1442.5,1288.3 1426.5,1296.1 1410.1,1302.8 1393.2,1308.4 1375.9,1312.8 1358.2,1316.0 1340.1,1318.1 1321.7,1319.1 1302.9,1318.9 1284.0,1317.7 1264.7,1315.4 1245.3,1312.0 1225.8,1307.7 1206.1,1302.4 1186.4,1296.2 1166.7,1289.1 1147.0,1281.2 1127.4,1272.7 1108.0,1263.4 1088.8,1253.5 1069.9,1243.2 1051.3,1232.4  A 522.500,522.500 0.00 0,1 1069.8,1203.5 L 1069.8,1203.5 1087.4,1215.3 1105.4,1226.8 1123.6,1237.7 1142.0,1248.1 1160.5,1257.8 1179.1,1266.8 1197.8,1274.9 1216.4,1282.2 1234.9,1288.5 1253.3,1293.9 1271.5,1298.3 1289.5,1301.5 1307.3,1303.7 1324.8,1304.7 1341.9,1304.6 1358.7,1303.2 1375.1,1300.7 1391.0,1297.0 1406.5,1292.1 1421.5,1286.0 1436.1,1278.6 1450.1,1270.2 1463.5,1260.5 1476.5,1249.7 1488.8,1237.8 1500.6,1224.9 1511.8,1211.0 1522.4,1196.0 1532.4,1180.2 1541.8,1163.5 1550.6,1146.0 1558.8,1127.8 1566.5,1108.9 1573.5,1089.5 1580.0,1069.6 1585.9,1049.3 1591.3,1028.8 1596.1,1008.0 1600.4,987.2  Z" style="stroke-width: 0.5;  stroke: rgb(0,0,0); fill: rgb(179,177,178);" />
<path d="M 1500.000,977.500 A 522.500,522.500 0.00 0,1 1515.9,977.7 L 1515.9,977.7 1515.1,998.4 1513.8,1019.0 1512.1,1039.5 1510.0,1059.6 1507.3,1079.3 1504.2,1098.5 1500.4,1117.1 1496.2,1134.9 1491.4,1152.0 1485.9,1168.2 1480.0,1183.4 1473.4,1197.7 1466.2,1210.8 1458.4,1222.9 1450.1,1233.8 1441.1,1243.4 1431.6,1251.9 1421.5,1259.0 1410.8,1264.9 1399.6,1269.4 1387.9,1272.7 1375.6,1274.6 1362.9,1275.3 1349.8,1274.6 1336.2,1272.7 1322.2,1269.5 1307.9,1265.1 1293.2,1259.5 1278.3,1252.7 1263.1,1244.9 1247.7,1236.1 1232.2,1226.3 1216.6,1215.6 1200.9,1204.1 1185.2,1191.8 1169.6,1178.9 1154.1,1165.5 1138.8,1151.6 1123.8,1137.4  A 522.500,522.500 0.00 0,1 1135.0,1126.1 L 1135.0,1126.1 1149.6,1140.7 1164.3,1155.0 1179.3,1168.9 1194.3,1182.2 1209.4,1194.9 1224.5,1206.8 1239.5,1218.0 1254.4,1228.2 1269.2,1237.5 1283.7,1245.8 1298.0,1252.9 1312.0,1258.9 1325.6,1263.8 1338.9,1267.3 1351.7,1269.7 1364.2,1270.7 1376.2,1270.4 1387.6,1268.8 1398.6,1265.9 1409.0,1261.7 1418.9,1256.1 1428.3,1249.2 1437.0,1241.1 1445.2,1231.6 1452.8,1221.0 1459.8,1209.1 1466.2,1196.1 1472.0,1182.1 1477.2,1167.0 1481.8,1150.9 1485.9,1134.0 1489.4,1116.2 1492.4,1097.8 1494.8,1078.7 1496.8,1059.0 1498.2,1039.0 1499.2,1018.6 1499.8,998.1 1500.0,977.5  Z" style="stroke-width: 0.5;  stroke: rgb(0,0,0); fill: rgb(179,177,178);" />
</g>
<g id="plot0">
<g id="plot0-axis">
</g>
<line x1='2044.5' y1='984.3' x2='2044.5' y2='984.3' style="stroke-width:14.0;stroke:rgb(0,0,0);stroke-linecap:round;fill:none;" />
<line x1='2044.5' y1='984.3' x2='2073.6' y2='956.8' style="stroke-width:14.0;stroke:rgb(0,0,0);stroke-linecap:round;fill:none;" />
<line x1='2073.6' y1='956.8' x2='2073.6' y2='956.8' style="stroke-width:14.0;stroke:rgb(0,0,0);stroke-linecap:round;fill:none;" />
<text x="2103.3" y="959.6" font-size="46.8px" font-family="CMUBright-Roman" style="text-anchor:start;fill:rgb(255,38,78);" transform="rotate(316.6,2103.3,959.6)" >HistomissSECH83<tspan baseline-shift="-40%" font-size="90%">s</tspan>02331</text>
</g>
<defs>
<pattern id="hline-sparse" width="10" height="10" patternTransform="rotate(0 0 0)" patternUnits="userSpaceOnUse"><line x1="0" y1="0" x2="10" y2="0" style="stroke:black;stroke-width:2" /></pattern>
<pattern id="checker" width="10" height="10" patternTransform="rotate(45 0 0)" patternUnits="userSpaceOnUse"><line x1="0" y1="0" x2="10" y2="0" style="stroke:black;stroke-width:5" /><line x1="0" y1="0" x2="0" y2="10" style="stroke:black;stroke-width:4" /></pattern>
<pattern id="vline-sparse" width="10" height="10" patternTransform="rotate(0 0 0)" patternUnits="userSpaceOnUse"><line x1="0" y1="0" x2="0" y2="10" style="stroke:black;stroke-width:2" /></pattern>
<pattern id="hline" width="10" height="10" patternTransform="rotate(0 0 0)" patternUnits="userSpaceOnUse"><line x1="0" y1="0" x2="10" y2="0" style="stroke:black;stroke-width:5" /></pattern>
<pattern id="vline" width="10" height="10" patternTransform="rotate(0 0 0)" patternUnits="userSpaceOnUse"><line x1="0" y1="0" x2="0" y2="10" style="stroke:black;stroke-width:5" /></pattern>
<pattern id="checker" width="10" height="10" patternTransform="rotate(45 0 0)" patternUnits="userSpaceOnUse"><line x1="0" y1="0" x2="10" y2="0" style="stroke:black;stroke-width:2" /><line x1="0" y1="0" x2="0" y2="10" style="stroke:black;stroke-width:2" /></pattern>
</defs>
</svg>
