<?xml version="1.0" encoding="utf-8" standalone="no"?>
<!DOCTYPE svg PUBLIC "-//W3C//DTD SVG 1.1//EN" "http://www.w3.org/Graphics/SVG/1.1/DTD/svg11.dtd">
<svg width="3000px" height="3000px" version="1.1" xmlns="http://www.w3.org/2000/svg" xmlns:xlink="http://www.w3.org/1999/xlink">
<g id="bg">
<rect x="0" y="0" width="3000px" height="3000px" style="fill:rgb(255,255,255);"/>
</g>
<g id="ideograms">
<path d="M1500.000,950.000 A550.000,550.000 40.000 1,1 1115.193,1892.968 L975.263,2035.865 A750.000,750.000 0.000 1,0 1500.000,750.000 Z" style="stroke-width:2.0;stroke:rgb(0,0,0);stroke-linecap:round;fill:rgb(179,177,178);" />
<text x="2443.5" y="1885.0" font-size="46.8px" font-family="CMUBright-Roman" style="text-anchor:middle;fill:rgb(0,0,0);" transform="rotate(-67.8,2443.5,1885.0)" >Histocap117p12<tspan baseline-shift="-40%" font-size="90%">4</tspan></text>
<line x1='1609.5' y1='758.0' x2='1611.2' y2='746.2' style="stroke-width:8.0;stroke:rgb(150,150,150);stroke-linecap:round;fill:none;" />
<line x1='1747.8' y1='792.1' x2='1751.7' y2='780.8' style="stroke-width:8.0;stroke:rgb(150,150,150);stroke-linecap:round;fill:none;" />
<line x1='1877.2' y1='851.7' x2='1883.2' y2='841.4' style="stroke-width:8.0;stroke:rgb(150,150,150);stroke-linecap:round;fill:none;" />
<line x1='1993.0' y1='934.8' x2='2000.8' y2='925.7' style="stroke-width:8.0;stroke:rgb(150,150,150);stroke-linecap:round;fill:none;" />
<line x1='2090.9' y1='1038.2' x2='2100.4' y2='1030.8' style="stroke-width:8.0;stroke:rgb(150,150,150);stroke-linecap:round;fill:none;" />
<text x="2118.4" y="1034.5" font-size="41.6px" font-family="CMUBright-Roman" style="text-anchor:start;fill:rgb(150,150,150);" transform="rotate(322.0,2118.4,1034.5)" >1600 kb</text>
<line x1='2167.6' y1='1158.2' x2='2178.3' y2='1152.8' style="stroke-width:8.0;stroke:rgb(150,150,150);stroke-linecap:round;fill:none;" />
<line x1='2220.2' y1='1290.7' x2='2231.7' y2='1287.3' style="stroke-width:8.0;stroke:rgb(150,150,150);stroke-linecap:round;fill:none;" />
<line x1='2246.8' y1='1430.6' x2='2258.7' y2='1429.5' style="stroke-width:8.0;stroke:rgb(150,150,150);stroke-linecap:round;fill:none;" />
<line x1='2246.4' y1='1573.1' x2='2258.4' y2='1574.2' style="stroke-width:8.0;stroke:rgb(150,150,150);stroke-linecap:round;fill:none;" />
<line x1='2219.1' y1='1712.9' x2='2230.7' y2='1716.3' style="stroke-width:8.0;stroke:rgb(150,150,150);stroke-linecap:round;fill:none;" />
<text x="2238.1" y="1733.1" font-size="41.6px" font-family="CMUBright-Roman" style="text-anchor:start;fill:rgb(150,150,150);" transform="rotate(16.5,2238.1,1733.1)" >1650 kb</text>
<line x1='2165.9' y1='1845.1' x2='2176.6' y2='1850.6' style="stroke-width:8.0;stroke:rgb(150,150,150);stroke-linecap:round;fill:none;" />
<line x1='2088.7' y1='1964.7' x2='2098.1' y2='1972.2' style="stroke-width:8.0;stroke:rgb(150,150,150);stroke-linecap:round;fill:none;" />
<line x1='1990.1' y1='2067.7' x2='1998.0' y2='2076.8' style="stroke-width:8.0;stroke:rgb(150,150,150);stroke-linecap:round;fill:none;" />
<line x1='1874.0' y1='2150.1' x2='1879.9' y2='2160.5' style="stroke-width:8.0;stroke:rgb(150,150,150);stroke-linecap:round;fill:none;" />
<line x1='1744.3' y1='2209.1' x2='1748.2' y2='2220.4' style="stroke-width:8.0;stroke:rgb(150,150,150);stroke-linecap:round;fill:none;" />
<text x="1738.8" y="2236.2" font-size="41.6px" font-family="CMUBright-Roman" style="text-anchor:start;fill:rgb(150,150,150);" transform="rotate(71.0,1738.8,2236.2)" >1700 kb</text>
<line x1='1605.8' y1='2242.5' x2='1607.5' y2='2254.4' style="stroke-width:8.0;stroke:rgb(150,150,150);stroke-linecap:round;fill:none;" />
<line x1='1463.5' y1='2249.1' x2='1462.9' y2='2261.1' style="stroke-width:8.0;stroke:rgb(150,150,150);stroke-linecap:round;fill:none;" />
<line x1='1322.5' y1='2228.7' x2='1319.6' y2='2240.3' style="stroke-width:8.0;stroke:rgb(150,150,150);stroke-linecap:round;fill:none;" />
<line x1='1187.9' y1='2182.0' x2='1182.9' y2='2192.9' style="stroke-width:8.0;stroke:rgb(150,150,150);stroke-linecap:round;fill:none;" />
<line x1='1064.6' y1='2110.7' x2='1057.6' y2='2120.4' style="stroke-width:8.0;stroke:rgb(150,150,150);stroke-linecap:round;fill:none;" />
<text x="1062.1" y="2138.2" font-size="41.6px" font-family="CMUBright-Roman" style="text-anchor:end;fill:rgb(150,150,150);" transform="rotate(-54.5,1062.1,2138.2)" >1750 kb</text>
<g id="highlighttrack_0">
<path d="M2020.036,1679.060 A550.000,550.000 40.000 0,1 1996.838,1735.907 L2177.506,1821.691 A750.000,750.000 0.000 0,0 2209.140,1744.173 Z" style="stroke-width:14.0;stroke:rgb(0,0,0);stroke-linecap:round;fill:rgb(255,38,78);" />
</g>
<path d="M1500.000,950.000 A550.000,550.000 40.000 1,1 1115.193,1892.968 L975.263,2035.865 A750.000,750.000 0.000 1,0 1500.000,750.000 Z" style="stroke-width:2.0;stroke:rgb(0,0,0);stroke-linecap:round;fill:none;" />
<path d="M963.884,1622.799 A550.000,550.000 40.000 0,1 1202.868,1037.169 L1094.821,868.866 A750.000,750.000 0.000 0,0 768.933,1667.453 Z" style="stroke-width:2.0;stroke:rgb(0,0,0);stroke-linecap:round;fill:rgb(179,177,178);" />
<text x="597.3" y="1131.6" font-size="46.8px" font-family="CMUBright-Roman" style="text-anchor:middle;fill:rgb(0,0,0);" transform="rotate(-67.8,597.3,1131.6)" >HistocapHISSPFGPERS2034<tspan baseline-shift="-40%" font-size="90%">4</tspan>7</text>
<line x1='982.8' y1='956.9' x2='974.5' y2='948.2' style="stroke-width:8.0;stroke:rgb(150,150,150);stroke-linecap:round;fill:none;" />
<line x1='889.4' y1='1064.5' x2='879.7' y2='1057.5' style="stroke-width:8.0;stroke:rgb(150,150,150);stroke-linecap:round;fill:none;" />
<line x1='818.1' y1='1187.8' x2='807.2' y2='1182.8' style="stroke-width:8.0;stroke:rgb(150,150,150);stroke-linecap:round;fill:none;" />
<line x1='771.3' y1='1322.4' x2='759.7' y2='1319.5' style="stroke-width:8.0;stroke:rgb(150,150,150);stroke-linecap:round;fill:none;" />
<line x1='750.9' y1='1463.3' x2='738.9' y2='1462.8' style="stroke-width:8.0;stroke:rgb(150,150,150);stroke-linecap:round;fill:none;" />
<text x="726.4" y="1476.2" font-size="41.6px" font-family="CMUBright-Roman" style="text-anchor:end;fill:rgb(150,150,150);" transform="rotate(2.8,726.4,1476.2)" >50 kb</text>
<line x1='757.5' y1='1605.7' x2='745.6' y2='1607.3' style="stroke-width:8.0;stroke:rgb(150,150,150);stroke-linecap:round;fill:none;" />
<path d="M963.884,1622.799 A550.000,550.000 40.000 0,1 1202.868,1037.169 L1094.821,868.866 A750.000,750.000 0.000 0,0 768.933,1667.453 Z" style="stroke-width:2.0;stroke:rgb(0,0,0);stroke-linecap:round;fill:none;" />
</g>
<g id="track_0">
<path d="M 1818.663,1914.077 A 522.500,522.500 0.00 0,1 1629.4,2006.2 L 1629.4,2006.2 1623.6,1984.8 1617.3,1963.3 1610.4,1942.0 1602.8,1920.8 1594.7,1899.8 1585.9,1879.2 1576.4,1858.9 1566.3,1839.1 1555.5,1819.8 1544.0,1801.1 1531.9,1782.9 1519.1,1765.5 1505.7,1748.7 1491.6,1732.7 1476.8,1717.5 1461.4,1703.1 1445.4,1689.6 1428.7,1676.9 1411.5,1665.1 1393.7,1654.3 1375.3,1644.3 1356.5,1635.3 1337.1,1627.3 1317.2,1620.2 1296.9,1614.0 1276.3,1608.8 1255.2,1604.5 1233.8,1601.1 1212.2,1598.6 1190.3,1597.0 1168.2,1596.3 1145.9,1596.3 1123.6,1597.2 1101.2,1598.8 1078.8,1601.2 1056.5,1604.2 1034.4,1607.8 1012.4,1612.0 990.7,1616.7  A 522.500,522.500 0.00 0,1 986.1,1405.8 L 986.1,1405.8 1010.1,1410.4 1034.3,1415.4 1058.7,1420.8 1083.1,1426.6 1107.5,1432.9 1132.0,1439.7 1156.5,1446.9 1180.9,1454.5 1205.3,1462.7 1229.6,1471.4 1253.7,1480.5 1277.8,1490.2 1301.7,1500.4 1325.4,1511.0 1349.0,1522.2 1372.3,1533.9 1395.4,1546.0 1418.3,1558.7 1440.9,1571.8 1463.2,1585.4 1485.2,1599.5 1506.9,1614.1 1528.2,1629.0 1549.3,1644.5 1570.0,1660.3 1590.3,1676.5 1610.3,1693.2 1629.9,1710.1 1649.1,1727.5 1667.9,1745.1 1686.3,1763.1 1704.3,1781.3 1721.9,1799.8 1739.0,1818.4 1755.8,1837.3 1772.1,1856.3 1788.1,1875.5 1803.6,1894.8 1818.7,1914.1  Z" style="stroke-width: 0.5;  stroke: rgb(0,0,0); fill: rgb(179,177,178);" />
<path d="M 1951.336,1763.253 A 522.500,522.500 0.00 0,1 1857.2,1881.3 L 1857.2,1881.3 1839.9,1863.0 1822.3,1844.8 1804.3,1826.7 1786.1,1808.6 1767.5,1790.7 1748.6,1772.9 1729.4,1755.3 1709.9,1737.8 1690.1,1720.6 1670.0,1703.5 1649.6,1686.7 1628.9,1670.2 1608.0,1653.9 1586.8,1637.8 1565.3,1622.1 1543.5,1606.6 1521.6,1591.5 1499.3,1576.6 1476.9,1562.1 1454.2,1548.0 1431.4,1534.1 1408.3,1520.6 1385.1,1507.5 1361.7,1494.7 1338.1,1482.3 1314.4,1470.2 1290.6,1458.5 1266.6,1447.1 1242.6,1436.2 1218.5,1425.5 1194.3,1415.3 1170.1,1405.4 1145.8,1395.8 1121.6,1386.6 1097.3,1377.8 1073.1,1369.2 1048.9,1361.0 1024.8,1353.2 1000.8,1345.6  A 522.500,522.500 0.00 0,1 1066.0,1209.1 L 1066.0,1209.1 1088.1,1223.9 1110.2,1238.7 1132.4,1253.5 1154.6,1268.2 1176.9,1283.0 1199.2,1297.7 1221.6,1312.4 1244.0,1327.0 1266.4,1341.7 1288.9,1356.3 1311.4,1370.9 1334.0,1385.4 1356.5,1400.0 1379.1,1414.5 1401.8,1428.9 1424.5,1443.3 1447.2,1457.7 1469.9,1472.1 1492.7,1486.4 1515.5,1500.6 1538.3,1514.8 1561.1,1529.0 1584.0,1543.2 1606.9,1557.3 1629.8,1571.3 1652.7,1585.3 1675.6,1599.3 1698.6,1613.2 1721.5,1627.1 1744.5,1640.9 1767.5,1654.7 1790.4,1668.4 1813.4,1682.1 1836.4,1695.7 1859.4,1709.3 1882.4,1722.9 1905.4,1736.4 1928.4,1749.8 1951.3,1763.3  Z" style="stroke-width: 0.5;  stroke: rgb(0,0,0); fill: rgb(179,177,178);" />
<path d="M 2015.062,1587.849 A 522.500,522.500 0.00 0,1 1994.0,1670.1 L 1994.0,1670.1 1969.8,1661.7 1945.5,1653.0 1921.1,1644.1 1896.6,1634.9 1872.2,1625.6 1847.7,1615.9 1823.3,1606.1 1798.8,1596.0 1774.3,1585.6 1749.9,1575.0 1725.6,1564.1 1701.2,1552.9 1677.0,1541.6 1652.8,1529.9 1628.7,1518.0 1604.7,1505.8 1580.8,1493.4 1557.0,1480.8 1533.4,1467.9 1509.8,1454.8 1486.4,1441.4 1463.2,1427.8 1440.1,1413.9 1417.1,1399.9 1394.3,1385.6 1371.7,1371.2 1349.3,1356.5 1327.1,1341.7 1305.0,1326.6 1283.1,1311.4 1261.5,1296.1 1240.0,1280.5 1218.8,1264.9 1197.7,1249.1 1176.9,1233.2 1156.3,1217.2 1136.0,1201.2 1115.8,1185.0 1095.9,1168.8  A 522.500,522.500 0.00 0,1 1154.8,1107.8 L 1154.8,1107.8 1171.2,1126.2 1188.1,1144.5 1205.3,1162.7 1222.9,1180.8 1240.9,1198.7 1259.2,1216.5 1278.0,1234.0 1297.1,1251.3 1316.6,1268.2 1336.5,1284.9 1356.7,1301.3 1377.2,1317.4 1398.2,1333.1 1419.4,1348.4 1440.9,1363.4 1462.8,1377.9 1485.0,1392.0 1507.4,1405.7 1530.1,1419.0 1553.1,1431.8 1576.3,1444.2 1599.8,1456.1 1623.4,1467.6 1647.3,1478.5 1671.3,1489.0 1695.5,1499.1 1719.9,1508.6 1744.3,1517.7 1768.9,1526.3 1793.5,1534.4 1818.2,1542.1 1843.0,1549.3 1867.7,1556.1 1892.4,1562.4 1917.1,1568.3 1941.8,1573.8 1966.3,1578.9 1990.8,1583.5 2015.1,1587.8  Z" style="stroke-width: 0.5;  stroke: rgb(0,0,0); fill: rgb(179,177,178);" />
<path d="M 2022.422,1509.055 A 522.500,522.500 0.00 0,1 2015.4,1586.1 L 2015.4,1586.1 1991.1,1581.9 1966.6,1577.3 1942.1,1572.3 1917.4,1566.9 1892.7,1561.1 1868.0,1554.8 1843.2,1548.1 1818.5,1541.0 1793.7,1533.4 1769.1,1525.3 1744.5,1516.8 1720.0,1507.8 1695.7,1498.3 1671.5,1488.3 1647.4,1477.9 1623.6,1466.9 1599.9,1455.6 1576.4,1443.7 1553.2,1431.4 1530.2,1418.6 1507.5,1405.4 1485.0,1391.7 1462.8,1377.6 1441.0,1363.1 1419.4,1348.2 1398.2,1332.9 1377.3,1317.2 1356.7,1301.2 1336.5,1284.8 1316.6,1268.1 1297.1,1251.2 1278.0,1233.9 1259.2,1216.4 1240.8,1198.7 1222.9,1180.8 1205.3,1162.7 1188.0,1144.5 1171.2,1126.2 1154.8,1107.8  A 522.500,522.500 0.00 0,1 1216.9,1060.9 L 1216.9,1060.9 1229.9,1080.7 1243.5,1100.5 1257.6,1120.2 1272.1,1139.7 1287.2,1158.9 1302.8,1178.0 1318.9,1196.7 1335.5,1215.1 1352.6,1233.2 1370.1,1250.8 1388.2,1268.0 1406.7,1284.7 1425.7,1301.0 1445.2,1316.7 1465.0,1331.9 1485.4,1346.5 1506.1,1360.5 1527.2,1373.9 1548.7,1386.7 1570.6,1398.9 1592.8,1410.4 1615.3,1421.3 1638.2,1431.5 1661.3,1441.1 1684.7,1450.0 1708.3,1458.2 1732.1,1465.8 1756.1,1472.7 1780.2,1479.0 1804.5,1484.6 1828.8,1489.6 1853.2,1494.0 1877.6,1497.8 1902.0,1501.0 1926.3,1503.6 1950.6,1505.7 1974.7,1507.3 1998.7,1508.4 2022.4,1509.1  Z" style="stroke-width: 0.5;  stroke: rgb(0,0,0); fill: rgb(179,177,178);" />
<path d="M 1853.934,1884.366 A 522.500,522.500 0.00 0,1 1818.7,1914.0 L 1818.7,1914.0 1803.6,1894.7 1788.1,1875.4 1772.2,1856.3 1755.8,1837.2 1739.1,1818.3 1721.9,1799.6 1704.3,1781.2 1686.3,1762.9 1667.9,1745.0 1649.1,1727.3 1629.9,1709.9 1610.3,1692.9 1590.3,1676.3 1570.0,1660.0 1549.3,1644.1 1528.3,1628.7 1507.0,1613.6 1485.3,1599.1 1463.3,1584.9 1441.0,1571.3 1418.4,1558.1 1395.6,1545.4 1372.5,1533.1 1349.2,1521.4 1325.6,1510.2 1301.9,1499.5 1278.0,1489.2 1254.0,1479.5 1229.8,1470.3 1205.5,1461.5 1181.2,1453.3 1156.8,1445.5 1132.3,1438.2 1107.8,1431.4 1083.4,1425.0 1059.0,1419.1 1034.7,1413.6 1010.5,1408.5 986.4,1403.8  A 522.500,522.500 0.00 0,1 996.8,1359.2 L 996.8,1359.2 1020.9,1366.1 1045.1,1373.3 1069.4,1380.8 1093.7,1388.7 1118.1,1397.0 1142.5,1405.6 1166.9,1414.6 1191.2,1424.0 1215.5,1433.7 1239.8,1443.8 1263.9,1454.3 1288.0,1465.2 1311.9,1476.5 1335.8,1488.2 1359.4,1500.2 1382.9,1512.7 1406.3,1525.5 1429.4,1538.7 1452.4,1552.2 1475.1,1566.2 1497.6,1580.5 1519.8,1595.1 1541.9,1610.1 1563.6,1625.4 1585.1,1641.0 1606.3,1656.9 1627.2,1673.1 1647.9,1689.6 1668.2,1706.4 1688.2,1723.4 1708.0,1740.6 1727.4,1758.0 1746.4,1775.7 1765.2,1793.5 1783.6,1811.4 1801.7,1829.5 1819.4,1847.7 1836.9,1866.0 1853.9,1884.4  Z" style="stroke-width: 0.5;  stroke: rgb(0,0,0); fill: rgb(179,177,178);" />
<path d="M 1971.996,1724.111 A 522.500,522.500 0.00 0,1 1959.9,1748.1 L 1959.9,1748.1 1936.6,1735.5 1913.4,1722.9 1890.2,1710.1 1866.9,1697.3 1843.6,1684.4 1820.4,1671.4 1797.1,1658.2 1773.9,1645.0 1750.7,1631.7 1727.4,1618.3 1704.2,1604.9 1681.1,1591.3 1657.9,1577.6 1634.8,1563.8 1611.7,1550.0 1588.7,1536.0 1565.7,1522.0 1542.8,1507.9 1519.9,1493.7 1497.0,1479.4 1474.2,1465.0 1451.5,1450.5 1428.8,1436.0 1406.2,1421.4 1383.6,1406.7 1361.1,1391.9 1338.7,1377.1 1316.4,1362.2 1294.1,1347.2 1271.9,1332.2 1249.8,1317.1 1227.8,1302.0 1205.8,1286.8 1183.9,1271.6 1162.1,1256.3 1140.4,1241.0 1118.8,1225.7 1097.3,1210.3 1075.8,1194.9  A 522.500,522.500 0.00 0,1 1091.6,1174.1 L 1091.6,1174.1 1112.0,1190.4 1132.6,1206.5 1153.3,1222.7 1174.2,1238.8 1195.2,1254.8 1216.4,1270.7 1237.7,1286.6 1259.1,1302.4 1280.7,1318.1 1302.5,1333.7 1324.4,1349.2 1346.4,1364.5 1368.5,1379.8 1390.7,1394.9 1413.1,1410.0 1435.6,1424.8 1458.2,1439.6 1480.9,1454.2 1503.7,1468.6 1526.6,1482.9 1549.6,1497.1 1572.7,1511.1 1595.8,1524.9 1619.0,1538.6 1642.3,1552.1 1665.7,1565.5 1689.1,1578.7 1712.6,1591.7 1736.1,1604.5 1759.7,1617.2 1783.2,1629.8 1806.8,1642.1 1830.5,1654.3 1854.1,1666.4 1877.7,1678.2 1901.3,1689.9 1924.9,1701.5 1948.5,1712.9 1972.0,1724.1  Z" style="stroke-width: 0.5;  stroke: rgb(0,0,0); fill: rgb(179,177,178);" />
<path d="M 1959.205,1749.273 A 522.500,522.500 0.00 0,1 1951.3,1763.3 L 1951.3,1763.3 1928.4,1749.8 1905.4,1736.4 1882.4,1722.9 1859.4,1709.3 1836.4,1695.7 1813.5,1682.1 1790.5,1668.4 1767.5,1654.6 1744.5,1640.9 1721.6,1627.0 1698.6,1613.2 1675.7,1599.2 1652.7,1585.3 1629.8,1571.2 1606.9,1557.2 1584.1,1543.1 1561.2,1528.9 1538.4,1514.7 1515.6,1500.5 1492.8,1486.2 1470.0,1471.9 1447.3,1457.5 1424.6,1443.1 1402.0,1428.6 1379.3,1414.2 1356.7,1399.6 1334.2,1385.1 1311.6,1370.5 1289.1,1355.9 1266.7,1341.2 1244.3,1326.6 1221.9,1311.9 1199.6,1297.1 1177.3,1282.4 1155.0,1267.6 1132.8,1252.8 1110.6,1238.0 1088.5,1223.2 1066.4,1208.4  A 522.500,522.500 0.00 0,1 1075.8,1195.0 L 1075.8,1195.0 1097.2,1210.3 1118.8,1225.7 1140.4,1241.0 1162.1,1256.4 1183.9,1271.6 1205.8,1286.9 1227.8,1302.1 1249.8,1317.2 1271.9,1332.3 1294.1,1347.3 1316.4,1362.3 1338.7,1377.2 1361.1,1392.1 1383.6,1406.8 1406.1,1421.6 1428.7,1436.2 1451.4,1450.8 1474.1,1465.2 1496.9,1479.6 1519.7,1494.0 1542.6,1508.2 1565.5,1522.4 1588.5,1536.4 1611.5,1550.4 1634.5,1564.3 1657.6,1578.1 1680.7,1591.8 1703.9,1605.5 1727.1,1619.0 1750.2,1632.4 1773.5,1645.8 1796.7,1659.0 1819.9,1672.2 1843.1,1685.3 1866.4,1698.2 1889.6,1711.1 1912.8,1723.9 1936.0,1736.6 1959.2,1749.3  Z" style="stroke-width: 0.5;  stroke: rgb(0,0,0); fill: rgb(179,177,178);" />
</g>
<g id="plot0">
<g id="plot0-axis">
</g>
<line x1='2003.3' y1='2056.0' x2='2003.3' y2='2056.0' style="stroke-width:14.0;stroke:rgb(0,0,0);stroke-linecap:round;fill:none;" />
<line x1='2003.3' y1='2056.0' x2='2030.2' y2='2085.7' style="stroke-width:14.0;stroke:rgb(0,0,0);stroke-linecap:round;fill:none;" />
<line x1='2030.2' y1='2085.7' x2='2030.2' y2='2085.7' style="stroke-width:14.0;stroke:rgb(0,0,0);stroke-linecap:round;fill:none;" />
<text x="2027.1" y="2115.1" font-size="46.8px" font-family="CMUBright-Roman" style="text-anchor:start;fill:rgb(255,38,78);" transform="rotate(47.8,2027.1,2115.1)" >Histocap117p12<tspan baseline-shift="-40%" font-size="90%">s</tspan>01692</text>
</g>
<defs>
<pattern id="hline-sparse" width="10" height="10" patternTransform="rotate(0 0 0)" patternUnits="userSpaceOnUse"><line x1="0" y1="0" x2="10" y2="0" style="stroke:black;stroke-width:2" /></pattern>
<pattern id="vline" width="10" height="10" patternTransform="rotate(0 0 0)" patternUnits="userSpaceOnUse"><line x1="0" y1="0" x2="0" y2="10" style="stroke:black;stroke-width:5" /></pattern>
<pattern id="checker" width="10" height="10" patternTransform="rotate(45 0 0)" patternUnits="userSpaceOnUse"><line x1="0" y1="0" x2="10" y2="0" style="stroke:black;stroke-width:2" /><line x1="0" y1="0" x2="0" y2="10" style="stroke:black;stroke-width:2" /></pattern>
<pattern id="vline-sparse" width="10" height="10" patternTransform="rotate(0 0 0)" patternUnits="userSpaceOnUse"><line x1="0" y1="0" x2="0" y2="10" style="stroke:black;stroke-width:2" /></pattern>
<pattern id="hline" width="10" height="10" patternTransform="rotate(0 0 0)" patternUnits="userSpaceOnUse"><line x1="0" y1="0" x2="10" y2="0" style="stroke:black;stroke-width:5" /></pattern>
<pattern id="checker" width="10" height="10" patternTransform="rotate(45 0 0)" patternUnits="userSpaceOnUse"><line x1="0" y1="0" x2="10" y2="0" style="stroke:black;stroke-width:5" /><line x1="0" y1="0" x2="0" y2="10" style="stroke:black;stroke-width:4" /></pattern>
</defs>
</svg>
