<?xml version="1.0" encoding="utf-8" standalone="no"?>
<!DOCTYPE svg PUBLIC "-//W3C//DTD SVG 1.1//EN" "http://www.w3.org/Graphics/SVG/1.1/DTD/svg11.dtd">
<svg width="3000px" height="3000px" version="1.1" xmlns="http://www.w3.org/2000/svg" xmlns:xlink="http://www.w3.org/1999/xlink">
<g id="bg">
<rect x="0" y="0" width="3000px" height="3000px" style="fill:rgb(255,255,255);"/>
</g>
<g id="ideograms">
<path d="M1500.000,950.000 A550.000,550.000 40.000 0,1 1711.923,2007.532 L1788.986,2192.089 A750.000,750.000 0.000 0,0 1500.000,750.000 Z" style="stroke-width:2.0;stroke:rgb(0,0,0);stroke-linecap:round;fill:rgb(179,177,178);" />
<text x="2456.0" y="1308.4" font-size="46.8px" font-family="CMUBright-Roman" style="text-anchor:middle;fill:rgb(0,0,0);" transform="rotate(438.7,2456.0,1308.4)" >HistomissSECH81<tspan baseline-shift="-40%" font-size="90%">4</tspan></text>
<line x1='1524.6' y1='750.4' x2='1525.0' y2='738.4' style="stroke-width:8.0;stroke:rgb(150,150,150);stroke-linecap:round;fill:none;" />
<line x1='1625.7' y1='760.6' x2='1627.7' y2='748.8' style="stroke-width:8.0;stroke:rgb(150,150,150);stroke-linecap:round;fill:none;" />
<line x1='1724.5' y1='784.4' x2='1728.1' y2='772.9' style="stroke-width:8.0;stroke:rgb(150,150,150);stroke-linecap:round;fill:none;" />
<text x="1745.0" y="765.8" font-size="41.6px" font-family="CMUBright-Roman" style="text-anchor:start;fill:rgb(150,150,150);" transform="rotate(287.4,1745.0,765.8)" >100 kb</text>
<line x1='1819.2' y1='821.3' x2='1824.3' y2='810.4' style="stroke-width:8.0;stroke:rgb(150,150,150);stroke-linecap:round;fill:none;" />
<line x1='1908.0' y1='870.7' x2='1914.5' y2='860.6' style="stroke-width:8.0;stroke:rgb(150,150,150);stroke-linecap:round;fill:none;" />
<line x1='1989.3' y1='931.6' x2='1997.1' y2='922.5' style="stroke-width:8.0;stroke:rgb(150,150,150);stroke-linecap:round;fill:none;" />
<line x1='2061.7' y1='1003.0' x2='2070.6' y2='995.0' style="stroke-width:8.0;stroke:rgb(150,150,150);stroke-linecap:round;fill:none;" />
<line x1='2123.7' y1='1083.4' x2='2133.7' y2='1076.8' style="stroke-width:8.0;stroke:rgb(150,150,150);stroke-linecap:round;fill:none;" />
<text x="2151.3" y="1081.8" font-size="41.6px" font-family="CMUBright-Roman" style="text-anchor:start;fill:rgb(150,150,150);" transform="rotate(326.3,2151.3,1081.8)" >150 kb</text>
<line x1='2174.3' y1='1171.6' x2='2185.1' y2='1166.3' style="stroke-width:8.0;stroke:rgb(150,150,150);stroke-linecap:round;fill:none;" />
<line x1='2212.5' y1='1265.7' x2='2223.9' y2='1262.0' style="stroke-width:8.0;stroke:rgb(150,150,150);stroke-linecap:round;fill:none;" />
<line x1='2237.6' y1='1364.2' x2='2249.4' y2='1362.0' style="stroke-width:8.0;stroke:rgb(150,150,150);stroke-linecap:round;fill:none;" />
<line x1='2249.2' y1='1465.2' x2='2261.2' y2='1464.6' style="stroke-width:8.0;stroke:rgb(150,150,150);stroke-linecap:round;fill:none;" />
<line x1='2247.0' y1='1566.8' x2='2259.0' y2='1567.8' style="stroke-width:8.0;stroke:rgb(150,150,150);stroke-linecap:round;fill:none;" />
<text x="2269.6" y="1582.8" font-size="41.6px" font-family="CMUBright-Roman" style="text-anchor:start;fill:rgb(150,150,150);" transform="rotate(5.1,2269.6,1582.8)" >200 kb</text>
<line x1='2231.1' y1='1667.1' x2='2242.8' y2='1669.8' style="stroke-width:8.0;stroke:rgb(150,150,150);stroke-linecap:round;fill:none;" />
<line x1='2201.8' y1='1764.4' x2='2213.1' y2='1768.7' style="stroke-width:8.0;stroke:rgb(150,150,150);stroke-linecap:round;fill:none;" />
<line x1='2159.7' y1='1856.9' x2='2170.2' y2='1862.6' style="stroke-width:8.0;stroke:rgb(150,150,150);stroke-linecap:round;fill:none;" />
<line x1='2105.4' y1='1942.8' x2='2115.0' y2='1949.9' style="stroke-width:8.0;stroke:rgb(150,150,150);stroke-linecap:round;fill:none;" />
<line x1='2039.9' y1='2020.5' x2='2048.6' y2='2028.9' style="stroke-width:8.0;stroke:rgb(150,150,150);stroke-linecap:round;fill:none;" />
<text x="2047.4" y="2047.2" font-size="41.6px" font-family="CMUBright-Roman" style="text-anchor:start;fill:rgb(150,150,150);" transform="rotate(44.0,2047.4,2047.2)" >250 kb</text>
<line x1='1964.6' y1='2088.7' x2='1972.1' y2='2098.2' style="stroke-width:8.0;stroke:rgb(150,150,150);stroke-linecap:round;fill:none;" />
<line x1='1880.8' y1='2146.2' x2='1886.9' y2='2156.5' style="stroke-width:8.0;stroke:rgb(150,150,150);stroke-linecap:round;fill:none;" />
<line x1='1789.9' y1='2191.7' x2='1794.6' y2='2202.8' style="stroke-width:8.0;stroke:rgb(150,150,150);stroke-linecap:round;fill:none;" />
<g id="highlighttrack_0">
<path d="M2037.354,1382.738 A550.000,550.000 40.000 0,1 2041.045,1401.157 L2237.789,1365.214 A750.000,750.000 0.000 0,0 2232.756,1340.097 Z" style="stroke-width:14.0;stroke:rgb(0,0,0);stroke-linecap:round;fill:rgb(255,38,78);" />
</g>
<path d="M1500.000,950.000 A550.000,550.000 40.000 0,1 1711.923,2007.532 L1788.986,2192.089 A750.000,750.000 0.000 0,0 1500.000,750.000 Z" style="stroke-width:2.0;stroke:rgb(0,0,0);stroke-linecap:round;fill:none;" />
<path d="M1493.821,2049.965 A550.000,550.000 40.000 0,1 1282.389,994.881 L1203.257,811.201 A750.000,750.000 0.000 0,0 1491.575,2249.953 Z" style="stroke-width:2.0;stroke:rgb(0,0,0);stroke-linecap:round;fill:rgb(179,177,178);" />
<text x="499.9" y="1700.4" font-size="46.8px" font-family="CMUBright-Roman" style="text-anchor:middle;fill:rgb(0,0,0);" transform="rotate(78.7,499.9,1700.4)" >HistomissSECH85<tspan baseline-shift="-40%" font-size="90%">4</tspan></text>
<line x1='1116.6' y1='855.4' x2='1110.5' y2='845.1' style="stroke-width:8.0;stroke:rgb(150,150,150);stroke-linecap:round;fill:none;" />
<line x1='1033.0' y1='913.1' x2='1025.5' y2='903.7' style="stroke-width:8.0;stroke:rgb(150,150,150);stroke-linecap:round;fill:none;" />
<line x1='958.0' y1='981.6' x2='949.3' y2='973.4' style="stroke-width:8.0;stroke:rgb(150,150,150);stroke-linecap:round;fill:none;" />
<line x1='892.9' y1='1059.7' x2='883.1' y2='1052.6' style="stroke-width:8.0;stroke:rgb(150,150,150);stroke-linecap:round;fill:none;" />
<line x1='838.9' y1='1145.8' x2='828.3' y2='1140.1' style="stroke-width:8.0;stroke:rgb(150,150,150);stroke-linecap:round;fill:none;" />
<text x="811.3" y="1146.9" font-size="41.6px" font-family="CMUBright-Roman" style="text-anchor:end;fill:rgb(150,150,150);" transform="rotate(28.2,811.3,1146.9)" >50 kb</text>
<line x1='797.1' y1='1238.4' x2='785.9' y2='1234.2' style="stroke-width:8.0;stroke:rgb(150,150,150);stroke-linecap:round;fill:none;" />
<line x1='768.2' y1='1335.8' x2='756.5' y2='1333.2' style="stroke-width:8.0;stroke:rgb(150,150,150);stroke-linecap:round;fill:none;" />
<line x1='752.7' y1='1436.3' x2='740.8' y2='1435.2' style="stroke-width:8.0;stroke:rgb(150,150,150);stroke-linecap:round;fill:none;" />
<line x1='751.0' y1='1537.9' x2='739.0' y2='1538.5' style="stroke-width:8.0;stroke:rgb(150,150,150);stroke-linecap:round;fill:none;" />
<line x1='762.9' y1='1638.8' x2='751.2' y2='1641.0' style="stroke-width:8.0;stroke:rgb(150,150,150);stroke-linecap:round;fill:none;" />
<text x="742.1" y="1656.9" font-size="41.6px" font-family="CMUBright-Roman" style="text-anchor:end;fill:rgb(150,150,150);" transform="rotate(-10.7,742.1,1656.9)" >100 kb</text>
<line x1='788.5' y1='1737.1' x2='777.1' y2='1740.9' style="stroke-width:8.0;stroke:rgb(150,150,150);stroke-linecap:round;fill:none;" />
<line x1='827.1' y1='1831.1' x2='816.3' y2='1836.4' style="stroke-width:8.0;stroke:rgb(150,150,150);stroke-linecap:round;fill:none;" />
<line x1='878.0' y1='1919.1' x2='868.0' y2='1925.8' style="stroke-width:8.0;stroke:rgb(150,150,150);stroke-linecap:round;fill:none;" />
<line x1='940.4' y1='1999.3' x2='931.4' y2='2007.3' style="stroke-width:8.0;stroke:rgb(150,150,150);stroke-linecap:round;fill:none;" />
<line x1='1013.0' y1='2070.4' x2='1005.2' y2='2079.5' style="stroke-width:8.0;stroke:rgb(150,150,150);stroke-linecap:round;fill:none;" />
<text x="1008.1" y="2097.6" font-size="41.6px" font-family="CMUBright-Roman" style="text-anchor:end;fill:rgb(150,150,150);" transform="rotate(-49.5,1008.1,2097.6)" >150 kb</text>
<line x1='1094.6' y1='2131.0' x2='1088.1' y2='2141.1' style="stroke-width:8.0;stroke:rgb(150,150,150);stroke-linecap:round;fill:none;" />
<line x1='1183.6' y1='2180.0' x2='1178.5' y2='2190.9' style="stroke-width:8.0;stroke:rgb(150,150,150);stroke-linecap:round;fill:none;" />
<line x1='1278.4' y1='2216.5' x2='1274.9' y2='2228.0' style="stroke-width:8.0;stroke:rgb(150,150,150);stroke-linecap:round;fill:none;" />
<line x1='1377.3' y1='2239.9' x2='1375.3' y2='2251.7' style="stroke-width:8.0;stroke:rgb(150,150,150);stroke-linecap:round;fill:none;" />
<line x1='1478.4' y1='2249.7' x2='1478.1' y2='2261.7' style="stroke-width:8.0;stroke:rgb(150,150,150);stroke-linecap:round;fill:none;" />
<text x="1491.7" y="2274.0" font-size="41.6px" font-family="CMUBright-Roman" style="text-anchor:end;fill:rgb(150,150,150);" transform="rotate(-88.4,1491.7,2274.0)" >200 kb</text>
<path d="M1493.821,2049.965 A550.000,550.000 40.000 0,1 1282.389,994.881 L1203.257,811.201 A750.000,750.000 0.000 0,0 1491.575,2249.953 Z" style="stroke-width:2.0;stroke:rgb(0,0,0);stroke-linecap:round;fill:none;" />
</g>
<g id="track_0">
<path d="M 2003.611,1639.220 A 522.500,522.500 0.00 0,1 1942.1,1778.5 L 1942.1,1778.5 1923.0,1766.9 1903.5,1755.5 1883.7,1744.7 1863.5,1734.4 1842.9,1724.7 1822.2,1715.6 1801.1,1707.2 1779.9,1699.6 1758.6,1692.8 1737.1,1686.9 1715.5,1681.8 1693.8,1677.6 1672.1,1674.4 1650.5,1672.2 1628.8,1670.9 1607.3,1670.7 1585.8,1671.4 1564.4,1673.2 1543.2,1676.1 1522.2,1679.9 1501.4,1684.8 1480.8,1690.7 1460.4,1697.6 1440.3,1705.5 1420.6,1714.4 1401.1,1724.2 1382.0,1734.9 1363.2,1746.5 1344.9,1758.9 1326.9,1772.1 1309.3,1786.1 1292.2,1800.8 1275.6,1816.0 1259.4,1831.9 1243.6,1848.3 1228.4,1865.1 1213.7,1882.3 1199.5,1899.8 1185.9,1917.5  A 522.500,522.500 0.00 0,1 1078.9,1809.3 L 1078.9,1809.3 1098.4,1795.3 1118.3,1781.5 1138.6,1767.9 1159.3,1754.7 1180.4,1741.8 1201.9,1729.3 1223.7,1717.2 1245.9,1705.5 1268.4,1694.3 1291.2,1683.6 1314.3,1673.5 1337.8,1663.9 1361.4,1654.8 1385.3,1646.4 1409.5,1638.6 1433.8,1631.4 1458.4,1624.8 1483.1,1618.9 1508.0,1613.6 1533.0,1609.0 1558.1,1605.1 1583.3,1601.8 1608.6,1599.2 1633.9,1597.3 1659.3,1596.0 1684.6,1595.4 1709.9,1595.4 1735.2,1596.0 1760.5,1597.3 1785.6,1599.1 1810.6,1601.6 1835.5,1604.6 1860.2,1608.1 1884.7,1612.2 1909.1,1616.7 1933.1,1621.8 1956.9,1627.2 1980.4,1633.0 2003.6,1639.2  Z" style="stroke-width: 0.5;  stroke: rgb(0,0,0); fill: rgb(179,177,178);" />
<path d="M 2018.082,1432.197 A 522.500,522.500 0.00 0,1 2016.6,1578.2 L 2016.6,1578.2 1992.2,1574.6 1967.4,1571.4 1942.5,1568.5 1917.3,1565.9 1892.0,1563.8 1866.5,1562.0 1840.8,1560.6 1815.0,1559.6 1789.1,1559.1 1763.2,1559.0 1737.1,1559.3 1711.0,1560.2 1684.8,1561.5 1658.6,1563.3 1632.5,1565.6 1606.3,1568.4 1580.2,1571.7 1554.1,1575.5 1528.1,1579.7 1502.2,1584.5 1476.4,1589.8 1450.7,1595.6 1425.1,1601.8 1399.7,1608.5 1374.4,1615.7 1349.3,1623.4 1324.4,1631.5 1299.7,1640.0 1275.2,1649.0 1251.0,1658.3 1227.0,1668.1 1203.2,1678.2 1179.7,1688.6 1156.5,1699.4 1133.7,1710.5 1111.1,1721.9 1088.8,1733.5 1066.9,1745.3 1045.3,1757.4  A 522.500,522.500 0.00 0,1 991.8,1621.5 L 991.8,1621.5 1017.6,1615.4 1043.4,1609.3 1069.2,1603.2 1095.2,1597.3 1121.2,1591.3 1147.2,1585.4 1173.3,1579.6 1199.4,1573.9 1225.5,1568.2 1251.8,1562.5 1278.0,1557.0 1304.3,1551.5 1330.6,1546.1 1357.0,1540.7 1383.3,1535.4 1409.7,1530.2 1436.2,1525.1 1462.6,1520.1 1489.1,1515.1 1515.6,1510.2 1542.1,1505.4 1568.6,1500.7 1595.1,1496.1 1621.6,1491.5 1648.2,1487.0 1674.7,1482.6 1701.2,1478.3 1727.7,1474.0 1754.2,1469.9 1780.7,1465.8 1807.2,1461.8 1833.6,1457.8 1860.1,1453.9 1886.5,1450.2 1912.9,1446.4 1939.2,1442.8 1965.6,1439.2 1991.8,1435.7 2018.1,1432.2  Z" style="stroke-width: 0.5;  stroke: rgb(0,0,0); fill: rgb(179,177,178);" />
<path d="M 1941.421,1779.559 A 522.500,522.500 0.00 0,1 1850.1,1887.9 L 1850.1,1887.9 1835.7,1872.3 1821.0,1857.1 1805.9,1842.4 1790.6,1828.1 1774.9,1814.5 1759.1,1801.6 1743.1,1789.4 1726.9,1778.2 1710.7,1767.8 1694.3,1758.5 1677.9,1750.3 1661.6,1743.1 1645.2,1737.1 1629.0,1732.3 1612.8,1728.7 1596.7,1726.4 1580.8,1725.3 1565.0,1725.5 1549.5,1727.0 1534.2,1729.8 1519.1,1733.9 1504.3,1739.3 1489.8,1745.9 1475.6,1753.8 1461.8,1762.9 1448.2,1773.2 1435.1,1784.6 1422.3,1797.1 1409.9,1810.6 1398.0,1825.1 1386.4,1840.5 1375.3,1856.8 1364.6,1873.8 1354.4,1891.5 1344.6,1909.8 1335.3,1928.6 1326.4,1947.7 1318.1,1967.2 1310.2,1986.8  A 522.500,522.500 0.00 0,1 1186.3,1917.8 L 1186.3,1917.8 1199.9,1900.1 1214.1,1882.6 1228.8,1865.4 1244.0,1848.6 1259.7,1832.2 1275.8,1816.3 1292.5,1801.0 1309.6,1786.4 1327.1,1772.4 1345.1,1759.2 1363.4,1746.8 1382.1,1735.2 1401.2,1724.5 1420.7,1714.7 1440.4,1705.9 1460.5,1698.0 1480.8,1691.1 1501.4,1685.2 1522.2,1680.3 1543.2,1676.4 1564.3,1673.6 1585.7,1671.9 1607.1,1671.1 1628.7,1671.4 1650.3,1672.7 1671.9,1674.9 1693.6,1678.2 1715.2,1682.4 1736.7,1687.5 1758.2,1693.5 1779.5,1700.3 1800.7,1708.0 1821.7,1716.4 1842.5,1725.5 1862.9,1735.2 1883.1,1745.6 1903.0,1756.5 1922.4,1767.8 1941.4,1779.6  Z" style="stroke-width: 0.5;  stroke: rgb(0,0,0); fill: rgb(179,177,178);" />
<path d="M 1953.775,1240.973 A 522.500,522.500 0.00 0,1 2002.1,1355.5 L 2002.1,1355.5 1976.8,1362.7 1951.4,1369.9 1926.0,1377.0 1900.4,1384.1 1874.8,1391.0 1849.0,1397.9 1823.3,1404.7 1797.4,1411.4 1771.5,1418.0 1745.5,1424.6 1719.4,1431.0 1693.3,1437.3 1667.2,1443.5 1641.0,1449.7 1614.7,1455.7 1588.4,1461.6 1562.1,1467.4 1535.8,1473.0 1509.4,1478.6 1482.9,1484.0 1456.5,1489.3 1430.0,1494.5 1403.6,1499.6 1377.1,1504.6 1350.6,1509.4 1324.1,1514.2 1297.6,1518.8 1271.1,1523.3 1244.7,1527.7 1218.2,1531.9 1191.8,1536.1 1165.4,1540.2 1139.0,1544.1 1112.7,1547.9 1086.4,1551.7 1060.1,1555.3 1033.9,1558.8 1007.7,1562.2 981.6,1565.6  A 522.500,522.500 0.00 0,1 980.8,1441.3 L 980.8,1441.3 1005.5,1444.0 1030.4,1446.3 1055.5,1448.3 1080.9,1450.0 1106.3,1451.3 1132.0,1452.2 1157.8,1452.8 1183.7,1452.9 1209.7,1452.7 1235.7,1452.0 1261.9,1450.8 1288.1,1449.2 1314.3,1447.2 1340.5,1444.7 1366.7,1441.7 1392.8,1438.2 1419.0,1434.3 1445.1,1429.9 1471.1,1425.1 1497.0,1419.7 1522.8,1413.9 1548.5,1407.7 1574.0,1400.9 1599.4,1393.8 1624.7,1386.1 1649.8,1378.1 1674.6,1369.6 1699.3,1360.7 1723.8,1351.5 1748.0,1341.8 1772.0,1331.8 1795.7,1321.4 1819.2,1310.7 1842.4,1299.7 1865.3,1288.4 1887.9,1276.9 1910.2,1265.1 1932.1,1253.1 1953.8,1241.0  Z" style="stroke-width: 0.5;  stroke: rgb(0,0,0); fill: rgb(179,177,178);" />
<path d="M 1772.054,1946.086 A 522.500,522.500 0.00 0,1 1701.3,1982.2 L 1701.3,1982.2 1693.4,1963.5 1685.4,1945.1 1677.2,1927.0 1669.0,1909.4 1660.7,1892.4 1652.4,1876.1 1644.0,1860.6 1635.8,1846.0 1627.6,1832.4 1619.5,1819.9 1611.5,1808.6 1603.7,1798.4 1596.1,1789.6 1588.6,1782.1 1581.3,1775.9 1574.3,1771.2 1567.5,1767.9 1561.0,1766.1 1554.8,1765.8 1548.8,1767.0 1543.1,1769.6 1537.8,1773.7 1532.7,1779.3 1527.9,1786.3 1523.5,1794.7 1519.4,1804.5 1515.6,1815.5 1512.2,1827.9 1509.1,1841.4 1506.2,1856.0 1503.7,1871.7 1501.5,1888.3 1499.6,1905.8 1498.0,1924.0 1496.7,1942.9 1495.7,1962.3 1494.9,1982.2 1494.3,2002.2 1494.0,2022.5  A 522.500,522.500 0.00 0,1 1404.4,2013.7 L 1404.4,2013.7 1408.4,1993.5 1412.7,1973.5 1417.3,1953.7 1422.3,1934.4 1427.7,1915.5 1433.5,1897.3 1439.7,1879.8 1446.2,1863.1 1453.1,1847.3 1460.3,1832.5 1468.0,1818.8 1476.0,1806.2 1484.3,1794.9 1493.0,1784.7 1502.0,1775.9 1511.4,1768.4 1521.1,1762.2 1531.0,1757.5 1541.3,1754.1 1551.8,1752.2 1562.6,1751.6 1573.6,1752.5 1584.8,1754.9 1596.2,1758.5 1607.8,1763.6 1619.6,1770.0 1631.4,1777.7 1643.4,1786.6 1655.4,1796.7 1667.4,1807.9 1679.5,1820.2 1691.5,1833.5 1703.5,1847.6 1715.4,1862.6 1727.1,1878.3 1738.7,1894.6 1750.1,1911.4 1761.2,1928.6 1772.1,1946.1  Z" style="stroke-width: 0.5;  stroke: rgb(0,0,0); fill: rgb(179,177,178);" />
<path d="M 2015.751,1583.711 A 522.500,522.500 0.00 0,1 2003.6,1639.2 L 2003.6,1639.2 1980.4,1633.0 1956.9,1627.2 1933.1,1621.7 1909.0,1616.7 1884.7,1612.1 1860.2,1608.1 1835.5,1604.5 1810.6,1601.5 1785.5,1599.1 1760.4,1597.2 1735.2,1595.9 1709.9,1595.3 1684.5,1595.3 1659.2,1595.9 1633.8,1597.1 1608.5,1599.1 1583.2,1601.6 1558.0,1604.9 1532.8,1608.8 1507.8,1613.4 1482.9,1618.6 1458.2,1624.5 1433.6,1631.0 1409.2,1638.2 1385.1,1646.0 1361.1,1654.4 1337.4,1663.4 1314.0,1673.0 1290.9,1683.1 1268.0,1693.7 1245.5,1704.9 1223.3,1716.5 1201.4,1728.6 1179.9,1741.1 1158.8,1753.9 1138.0,1767.1 1117.7,1780.7 1097.7,1794.4 1078.3,1808.4  A 522.500,522.500 0.00 0,1 1047.3,1760.8 L 1047.3,1760.8 1068.7,1748.7 1090.5,1736.7 1112.7,1725.0 1135.1,1713.5 1157.9,1702.3 1181.0,1691.4 1204.4,1680.8 1228.0,1670.6 1251.9,1660.8 1276.1,1651.4 1300.5,1642.4 1325.1,1633.8 1350.0,1625.6 1375.0,1618.0 1400.2,1610.8 1425.6,1604.0 1451.1,1597.8 1476.7,1592.0 1502.5,1586.8 1528.4,1582.1 1554.3,1577.8 1580.4,1574.1 1606.4,1570.9 1632.6,1568.3 1658.7,1566.1 1684.8,1564.4 1710.9,1563.2 1737.0,1562.5 1763.0,1562.3 1788.9,1562.6 1814.8,1563.3 1840.5,1564.5 1866.1,1566.1 1891.5,1568.1 1916.8,1570.5 1941.9,1573.3 1966.8,1576.4 1991.4,1579.9 2015.8,1583.7  Z" style="stroke-width: 0.5;  stroke: rgb(0,0,0); fill: rgb(179,177,178);" />
<path d="M 1848.975,1888.874 A 522.500,522.500 0.00 0,1 1813.7,1917.9 L 1813.7,1917.9 1801.0,1901.4 1788.0,1885.1 1774.7,1869.3 1761.1,1854.0 1747.3,1839.3 1733.3,1825.3 1719.2,1812.1 1705.0,1799.9 1690.7,1788.5 1676.4,1778.2 1662.1,1769.1 1647.8,1761.0 1633.5,1754.2 1619.4,1748.6 1605.4,1744.3 1591.5,1741.3 1577.8,1739.6 1564.2,1739.3 1550.9,1740.3 1537.9,1742.7 1525.1,1746.5 1512.6,1751.6 1500.3,1758.0 1488.4,1765.8 1476.9,1774.8 1465.6,1785.1 1454.8,1796.5 1444.3,1809.1 1434.1,1822.8 1424.4,1837.5 1415.1,1853.2 1406.2,1869.7 1397.7,1887.0 1389.6,1905.1 1381.9,1923.7 1374.7,1942.8 1367.9,1962.4 1361.5,1982.2 1355.5,2002.1  A 522.500,522.500 0.00 0,1 1312.2,1987.6 L 1312.2,1987.6 1320.0,1967.9 1328.3,1948.5 1337.1,1929.3 1346.3,1910.5 1356.0,1892.2 1366.1,1874.5 1376.7,1857.4 1387.7,1841.2 1399.2,1825.7 1411.1,1811.2 1423.3,1797.6 1436.0,1785.1 1449.1,1773.7 1462.5,1763.4 1476.3,1754.3 1490.4,1746.5 1504.8,1739.8 1519.5,1734.4 1534.5,1730.3 1549.7,1727.5 1565.2,1726.0 1580.8,1725.8 1596.7,1726.9 1612.6,1729.3 1628.8,1732.9 1645.0,1737.7 1661.2,1743.7 1677.5,1750.9 1693.8,1759.2 1710.1,1768.5 1726.3,1778.9 1742.4,1790.2 1758.4,1802.3 1774.1,1815.3 1789.7,1829.0 1805.0,1843.2 1820.0,1858.1 1834.7,1873.3 1849.0,1888.9  Z" style="stroke-width: 0.5;  stroke: rgb(0,0,0); fill: rgb(179,177,178);" />
<path d="M 1813.079,1918.316 A 522.500,522.500 0.00 0,1 1777.1,1943.0 L 1777.1,1943.0 1766.0,1925.6 1754.7,1908.5 1743.1,1891.8 1731.2,1875.6 1719.2,1860.0 1707.1,1845.2 1694.9,1831.1 1682.6,1817.9 1670.3,1805.8 1657.9,1794.6 1645.7,1784.6 1633.4,1775.8 1621.3,1768.3 1609.3,1762.0 1597.4,1757.0 1585.7,1753.4 1574.1,1751.2 1562.8,1750.3 1551.8,1750.9 1540.9,1752.9 1530.4,1756.3 1520.1,1761.1 1510.1,1767.3 1500.5,1774.8 1491.1,1783.7 1482.1,1793.9 1473.5,1805.3 1465.2,1817.8 1457.3,1831.6 1449.7,1846.3 1442.5,1862.1 1435.7,1878.8 1429.3,1896.3 1423.3,1914.5 1417.6,1933.3 1412.3,1952.7 1407.4,1972.4 1402.9,1992.4 1398.7,2012.6  A 522.500,522.500 0.00 0,1 1356.3,2002.3 L 1356.3,2002.3 1362.2,1982.4 1368.6,1962.6 1375.4,1943.0 1382.6,1923.9 1390.2,1905.3 1398.2,1887.2 1406.7,1869.9 1415.6,1853.3 1424.9,1837.7 1434.6,1823.0 1444.6,1809.3 1455.1,1796.7 1465.9,1785.2 1477.1,1775.0 1488.7,1766.0 1500.5,1758.2 1512.7,1751.8 1525.2,1746.7 1538.0,1742.9 1551.0,1740.5 1564.2,1739.5 1577.7,1739.8 1591.4,1741.5 1605.2,1744.5 1619.2,1748.8 1633.3,1754.4 1647.5,1761.3 1661.8,1769.3 1676.1,1778.5 1690.4,1788.8 1704.6,1800.2 1718.8,1812.5 1732.9,1825.6 1746.9,1839.6 1760.6,1854.3 1774.2,1869.7 1787.4,1885.5 1800.4,1901.8 1813.1,1918.3  Z" style="stroke-width: 0.5;  stroke: rgb(0,0,0); fill: rgb(179,177,178);" />
<path d="M 1937.515,1214.365 A 522.500,522.500 0.00 0,1 1953.4,1240.2 L 1953.4,1240.2 1931.8,1252.4 1909.8,1264.5 1887.5,1276.3 1865.0,1287.8 1842.1,1299.1 1818.9,1310.2 1795.5,1320.9 1771.8,1331.2 1747.8,1341.3 1723.6,1351.0 1699.1,1360.2 1674.5,1369.1 1649.6,1377.6 1624.6,1385.7 1599.3,1393.3 1573.9,1400.5 1548.4,1407.2 1522.7,1413.5 1496.9,1419.3 1471.0,1424.6 1445.0,1429.5 1418.9,1433.8 1392.8,1437.7 1366.6,1441.2 1340.4,1444.1 1314.2,1446.6 1288.0,1448.6 1261.9,1450.2 1235.7,1451.3 1209.7,1452.0 1183.7,1452.2 1157.8,1452.0 1132.0,1451.4 1106.4,1450.4 1080.9,1449.1 1055.6,1447.4 1030.5,1445.3 1005.6,1442.9 980.9,1440.2  A 522.500,522.500 0.00 0,1 985.3,1410.1 L 985.3,1410.1 1009.4,1414.1 1033.8,1417.8 1058.4,1421.1 1083.3,1424.1 1108.4,1426.6 1133.6,1428.7 1159.0,1430.4 1184.5,1431.6 1210.2,1432.3 1235.9,1432.5 1261.7,1432.2 1287.6,1431.4 1313.5,1430.0 1339.4,1428.1 1365.2,1425.6 1391.1,1422.6 1416.9,1419.0 1442.6,1414.9 1468.2,1410.2 1493.8,1405.0 1519.2,1399.2 1544.5,1392.8 1569.6,1385.9 1594.5,1378.5 1619.3,1370.6 1643.8,1362.1 1668.1,1353.2 1692.2,1343.7 1716.1,1333.8 1739.6,1323.5 1762.9,1312.7 1785.9,1301.6 1808.6,1290.0 1830.9,1278.1 1853.0,1265.9 1874.7,1253.4 1896.0,1240.6 1916.9,1227.6 1937.5,1214.4  Z" style="stroke-width: 0.5;  stroke: rgb(0,0,0); fill: rgb(179,177,178);" />
<path d="M 1920.341,1189.646 A 522.500,522.500 0.00 0,1 1936.5,1212.9 L 1936.5,1212.9 1916.0,1226.2 1895.1,1239.2 1873.9,1252.1 1852.2,1264.6 1830.2,1276.9 1807.9,1288.9 1785.3,1300.5 1762.3,1311.7 1739.1,1322.5 1715.6,1332.9 1691.8,1342.8 1667.7,1352.3 1643.4,1361.3 1618.9,1369.8 1594.2,1377.7 1569.3,1385.2 1544.2,1392.1 1519.0,1398.5 1493.6,1404.3 1468.1,1409.5 1442.4,1414.2 1416.7,1418.4 1391.0,1421.9 1365.1,1425.0 1339.3,1427.4 1313.4,1429.3 1287.5,1430.7 1261.7,1431.5 1235.9,1431.7 1210.2,1431.5 1184.6,1430.8 1159.1,1429.5 1133.7,1427.8 1108.5,1425.7 1083.4,1423.1 1058.6,1420.1 1034.0,1416.7 1009.6,1413.0 985.5,1408.9  A 522.500,522.500 0.00 0,1 991.2,1381.2 L 991.2,1381.2 1014.7,1386.4 1038.5,1391.4 1062.6,1395.9 1087.0,1400.0 1111.6,1403.7 1136.4,1406.9 1161.3,1409.5 1186.4,1411.7 1211.6,1413.3 1237.0,1414.3 1262.4,1414.8 1287.8,1414.7 1313.3,1413.9 1338.8,1412.6 1364.3,1410.6 1389.7,1408.0 1415.1,1404.7 1440.4,1400.8 1465.6,1396.3 1490.6,1391.1 1515.6,1385.3 1540.3,1378.9 1564.9,1371.8 1589.3,1364.2 1613.5,1355.9 1637.4,1347.1 1661.1,1337.7 1684.6,1327.8 1707.7,1317.3 1730.6,1306.3 1753.1,1294.9 1775.3,1283.0 1797.2,1270.7 1818.7,1257.9 1839.8,1244.9 1860.5,1231.4 1880.9,1217.7 1900.8,1203.8 1920.3,1189.6  Z" style="stroke-width: 0.5;  stroke: rgb(0,0,0); fill: rgb(179,177,178);" />
<path d="M 2005.940,1369.497 A 522.500,522.500 0.00 0,1 2010.5,1388.6 L 2010.5,1388.6 1984.4,1394.3 1958.3,1400.0 1932.1,1405.6 1906.0,1411.3 1879.8,1417.0 1853.6,1422.6 1827.4,1428.2 1801.3,1433.8 1775.0,1439.4 1748.8,1445.0 1722.6,1450.6 1696.4,1456.1 1670.1,1461.7 1643.9,1467.2 1617.6,1472.7 1591.4,1478.2 1565.1,1483.6 1538.8,1489.1 1512.6,1494.5 1486.3,1500.0 1460.0,1505.4 1433.7,1510.7 1407.4,1516.1 1381.2,1521.5 1354.9,1526.8 1328.6,1532.1 1302.3,1537.4 1276.0,1542.7 1249.7,1547.9 1223.4,1553.2 1197.1,1558.4 1170.9,1563.6 1144.6,1568.8 1118.3,1574.0 1092.1,1579.2 1065.8,1584.3 1039.6,1589.4 1013.3,1594.6 987.1,1599.7  A 522.500,522.500 0.00 0,1 983.7,1580.3 L 983.7,1580.3 1009.9,1576.2 1036.1,1572.0 1062.3,1567.8 1088.6,1563.5 1114.9,1559.2 1141.2,1554.8 1167.6,1550.3 1193.9,1545.7 1220.3,1541.1 1246.7,1536.4 1273.1,1531.7 1299.5,1526.8 1325.9,1521.9 1352.4,1516.9 1378.8,1511.9 1405.2,1506.7 1431.6,1501.5 1458.0,1496.2 1484.4,1490.9 1510.7,1485.4 1537.1,1479.9 1563.4,1474.3 1589.7,1468.7 1616.0,1462.9 1642.3,1457.1 1668.5,1451.3 1694.7,1445.3 1720.9,1439.3 1747.0,1433.3 1773.1,1427.1 1799.2,1420.9 1825.2,1414.7 1851.2,1408.4 1877.1,1402.0 1903.0,1395.6 1928.8,1389.1 1954.6,1382.6 1980.3,1376.1 2005.9,1369.5  Z" style="stroke-width: 0.5;  stroke: rgb(0,0,0); fill: rgb(179,177,178);" />
<path d="M 2016.495,1421.009 A 522.500,522.500 0.00 0,1 2018.4,1434.8 L 2018.4,1434.8 1994.5,1437.6 1970.3,1440.0 1945.9,1442.0 1921.3,1443.5 1896.5,1444.6 1871.5,1445.2 1846.5,1445.2 1821.3,1444.7 1796.1,1443.6 1770.8,1442.0 1745.6,1439.7 1720.3,1436.9 1695.1,1433.4 1669.9,1429.4 1644.9,1424.6 1619.9,1419.3 1595.1,1413.3 1570.4,1406.8 1545.9,1399.5 1521.6,1391.7 1497.5,1383.2 1473.6,1374.1 1449.9,1364.4 1426.6,1354.1 1403.5,1343.3 1380.7,1331.9 1358.2,1319.9 1336.1,1307.5 1314.3,1294.5 1292.8,1281.1 1271.8,1267.2 1251.0,1252.9 1230.7,1238.2 1210.8,1223.1 1191.3,1207.8 1172.3,1192.1 1153.6,1176.2 1135.4,1160.1 1117.7,1143.9  A 522.500,522.500 0.00 0,0 1108.3,1154.2 L 1108.3,1154.2 1126.5,1170.0 1145.1,1185.6 1164.2,1201.0 1183.7,1216.1 1203.6,1230.9 1223.9,1245.4 1244.6,1259.6 1265.6,1273.3 1287.1,1286.7 1308.9,1299.5 1331.0,1311.9 1353.5,1323.8 1376.3,1335.1 1399.4,1345.9 1422.7,1356.1 1446.4,1365.8 1470.2,1374.9 1494.3,1383.3 1518.7,1391.1 1543.2,1398.3 1567.9,1404.9 1592.7,1410.8 1617.7,1416.1 1642.8,1420.8 1668.0,1424.8 1693.3,1428.3 1718.6,1431.0 1743.9,1433.2 1769.2,1434.8 1794.5,1435.7 1819.7,1436.1 1844.9,1436.0 1869.9,1435.3 1894.9,1434.1 1919.6,1432.3 1944.2,1430.1 1968.6,1427.5 1992.7,1424.4 2016.5,1421.0  Z" style="stroke-width: 0.5;  stroke: rgb(0,0,0); fill: rgb(179,177,178);" />
<path d="M 2002.496,1356.807 A 522.500,522.500 0.00 0,1 2006.0,1369.6 L 2006.0,1369.6 1980.3,1376.2 1954.6,1382.7 1928.8,1389.2 1903.0,1395.7 1877.1,1402.1 1851.2,1408.4 1825.2,1414.7 1799.2,1421.0 1773.2,1427.1 1747.1,1433.3 1720.9,1439.3 1694.8,1445.3 1668.5,1451.2 1642.3,1457.1 1616.0,1462.9 1589.7,1468.6 1563.4,1474.2 1537.1,1479.8 1510.7,1485.3 1484.3,1490.7 1458.0,1496.0 1431.6,1501.3 1405.1,1506.5 1378.7,1511.6 1352.3,1516.7 1325.9,1521.6 1299.5,1526.5 1273.0,1531.3 1246.6,1536.1 1220.2,1540.7 1193.9,1545.3 1167.5,1549.8 1141.1,1554.3 1114.8,1558.7 1088.5,1563.0 1062.2,1567.2 1036.0,1571.4 1009.8,1575.5 983.6,1579.6  A 522.500,522.500 0.00 0,1 981.8,1566.5 L 981.8,1566.5 1007.9,1563.1 1034.0,1559.6 1060.2,1556.1 1086.5,1552.4 1112.8,1548.6 1139.2,1544.8 1165.5,1540.8 1191.9,1536.7 1218.4,1532.5 1244.8,1528.3 1271.3,1523.9 1297.8,1519.3 1324.2,1514.7 1350.7,1510.0 1377.2,1505.1 1403.7,1500.1 1430.2,1495.1 1456.6,1489.9 1483.1,1484.5 1509.5,1479.1 1535.9,1473.6 1562.2,1467.9 1588.6,1462.2 1614.9,1456.3 1641.1,1450.3 1667.3,1444.2 1693.5,1438.0 1719.6,1431.7 1745.7,1425.4 1771.7,1418.9 1797.6,1412.3 1823.5,1405.6 1849.3,1398.9 1875.0,1392.1 1900.7,1385.1 1926.2,1378.2 1951.7,1371.1 1977.2,1364.0 2002.5,1356.8  Z" style="stroke-width: 0.5;  stroke: rgb(0,0,0); fill: rgb(179,177,178);" />
<path d="M 2013.993,1406.099 A 522.500,522.500 0.00 0,1 2015.3,1413.5 L 2015.3,1413.5 1989.0,1417.9 1962.7,1422.4 1936.4,1426.9 1910.1,1431.4 1883.8,1435.9 1857.4,1440.5 1831.1,1445.1 1804.7,1449.8 1778.3,1454.5 1751.9,1459.3 1725.6,1464.0 1699.2,1468.8 1672.8,1473.7 1646.4,1478.6 1620.0,1483.5 1593.6,1488.5 1567.2,1493.5 1540.8,1498.6 1514.4,1503.7 1488.0,1508.8 1461.7,1514.0 1435.3,1519.2 1408.9,1524.4 1382.6,1529.7 1356.3,1535.0 1330.0,1540.4 1303.7,1545.8 1277.4,1551.2 1251.1,1556.7 1224.9,1562.2 1198.7,1567.7 1172.5,1573.2 1146.3,1578.8 1120.2,1584.5 1094.1,1590.1 1068.0,1595.8 1041.9,1601.5 1015.9,1607.2 989.9,1612.9  A 522.500,522.500 0.00 0,1 988.3,1605.7 L 988.3,1605.7 1014.5,1600.3 1040.7,1594.9 1066.9,1589.5 1093.1,1584.1 1119.3,1578.8 1145.5,1573.4 1171.8,1568.1 1198.0,1562.8 1224.3,1557.5 1250.6,1552.2 1276.8,1546.9 1303.1,1541.7 1329.4,1536.4 1355.7,1531.2 1382.1,1526.0 1408.4,1520.8 1434.7,1515.6 1461.0,1510.5 1487.4,1505.3 1513.7,1500.2 1540.0,1495.1 1566.4,1490.0 1592.7,1484.9 1619.1,1479.9 1645.4,1474.8 1671.8,1469.8 1698.1,1464.8 1724.5,1459.8 1750.8,1454.9 1777.2,1449.9 1803.5,1445.0 1829.8,1440.1 1856.2,1435.2 1882.5,1430.3 1908.8,1425.4 1935.1,1420.6 1961.4,1415.7 1987.7,1410.9 2014.0,1406.1  Z" style="stroke-width: 0.5;  stroke: rgb(0,0,0); fill: rgb(179,177,178);" />
</g>
<g id="plot0">
<g id="plot0-axis">
</g>
<line x1='2243.4' y1='1599.2' x2='2243.4' y2='1599.2' style="stroke-width:14.0;stroke:rgb(0,0,0);stroke-linecap:round;fill:none;" />
<line x1='2243.4' y1='1599.2' x2='2283.1' y2='1604.5' style="stroke-width:14.0;stroke:rgb(0,0,0);stroke-linecap:round;fill:none;" />
<line x1='2283.1' y1='1604.5' x2='2283.1' y2='1604.5' style="stroke-width:14.0;stroke:rgb(0,0,0);stroke-linecap:round;fill:none;" />
<text x="2299.6" y="1629.4" font-size="46.8px" font-family="CMUBright-Roman" style="text-anchor:start;fill:rgb(255,38,78);" transform="rotate(7.6,2299.6,1629.4)" >HistomissSECH81<tspan baseline-shift="-40%" font-size="90%">s</tspan>02289</text>
</g>
<defs>
<pattern id="hline" width="10" height="10" patternTransform="rotate(0 0 0)" patternUnits="userSpaceOnUse"><line x1="0" y1="0" x2="10" y2="0" style="stroke:black;stroke-width:5" /></pattern>
<pattern id="checker" width="10" height="10" patternTransform="rotate(45 0 0)" patternUnits="userSpaceOnUse"><line x1="0" y1="0" x2="10" y2="0" style="stroke:black;stroke-width:2" /><line x1="0" y1="0" x2="0" y2="10" style="stroke:black;stroke-width:2" /></pattern>
<pattern id="hline-sparse" width="10" height="10" patternTransform="rotate(0 0 0)" patternUnits="userSpaceOnUse"><line x1="0" y1="0" x2="10" y2="0" style="stroke:black;stroke-width:2" /></pattern>
<pattern id="checker" width="10" height="10" patternTransform="rotate(45 0 0)" patternUnits="userSpaceOnUse"><line x1="0" y1="0" x2="10" y2="0" style="stroke:black;stroke-width:5" /><line x1="0" y1="0" x2="0" y2="10" style="stroke:black;stroke-width:4" /></pattern>
<pattern id="vline-sparse" width="10" height="10" patternTransform="rotate(0 0 0)" patternUnits="userSpaceOnUse"><line x1="0" y1="0" x2="0" y2="10" style="stroke:black;stroke-width:2" /></pattern>
<pattern id="vline" width="10" height="10" patternTransform="rotate(0 0 0)" patternUnits="userSpaceOnUse"><line x1="0" y1="0" x2="0" y2="10" style="stroke:black;stroke-width:5" /></pattern>
</defs>
</svg>
