<?xml version="1.0" encoding="utf-8" standalone="no"?>
<!DOCTYPE svg PUBLIC "-//W3C//DTD SVG 1.1//EN" "http://www.w3.org/Graphics/SVG/1.1/DTD/svg11.dtd">
<svg width="3000px" height="3000px" version="1.1" xmlns="http://www.w3.org/2000/svg" xmlns:xlink="http://www.w3.org/1999/xlink">
<g id="bg">
<rect x="0" y="0" width="3000px" height="3000px" style="fill:rgb(255,255,255);"/>
</g>
<g id="ideograms">
<path d="M1500.000,950.000 A550.000,550.000 40.000 0,1 1699.781,2012.433 L1772.429,2198.772 A750.000,750.000 0.000 0,0 1500.000,750.000 Z" style="stroke-width:2.0;stroke:rgb(0,0,0);stroke-linecap:round;fill:rgb(179,177,178);" />
<text x="2458.2" y="1319.8" font-size="46.8px" font-family="CMUBright-Roman" style="text-anchor:middle;fill:rgb(0,0,0);" transform="rotate(439.4,2458.2,1319.8)" >HistocapCB055<tspan baseline-shift="-40%" font-size="90%">6</tspan></text>
<line x1='1586.2' y1='755.0' x2='1587.6' y2='743.1' style="stroke-width:8.0;stroke:rgb(150,150,150);stroke-linecap:round;fill:none;" />
<text x="1602.9" y="732.9" font-size="41.6px" font-family="CMUBright-Roman" style="text-anchor:start;fill:rgb(150,150,150);" transform="rotate(276.6,1602.9,732.9)" >2950 kb</text>
<line x1='1685.3' y1='773.2' x2='1688.2' y2='761.6' style="stroke-width:8.0;stroke:rgb(150,150,150);stroke-linecap:round;fill:none;" />
<line x1='1781.0' y1='804.6' x2='1785.5' y2='793.5' style="stroke-width:8.0;stroke:rgb(150,150,150);stroke-linecap:round;fill:none;" />
<line x1='1871.7' y1='848.6' x2='1877.6' y2='838.1' style="stroke-width:8.0;stroke:rgb(150,150,150);stroke-linecap:round;fill:none;" />
<line x1='1955.6' y1='904.2' x2='1962.9' y2='894.7' style="stroke-width:8.0;stroke:rgb(150,150,150);stroke-linecap:round;fill:none;" />
<line x1='2031.3' y1='970.7' x2='2039.8' y2='962.2' style="stroke-width:8.0;stroke:rgb(150,150,150);stroke-linecap:round;fill:none;" />
<text x="2058.1" y="963.7" font-size="41.6px" font-family="CMUBright-Roman" style="text-anchor:start;fill:rgb(150,150,150);" transform="rotate(315.1,2058.1,963.7)" >3000 kb</text>
<line x1='2097.5' y1='1046.6' x2='2107.0' y2='1039.4' style="stroke-width:8.0;stroke:rgb(150,150,150);stroke-linecap:round;fill:none;" />
<line x1='2152.8' y1='1130.8' x2='2163.3' y2='1124.9' style="stroke-width:8.0;stroke:rgb(150,150,150);stroke-linecap:round;fill:none;" />
<line x1='2196.4' y1='1221.6' x2='2207.6' y2='1217.2' style="stroke-width:8.0;stroke:rgb(150,150,150);stroke-linecap:round;fill:none;" />
<line x1='2227.4' y1='1317.4' x2='2239.1' y2='1314.5' style="stroke-width:8.0;stroke:rgb(150,150,150);stroke-linecap:round;fill:none;" />
<line x1='2245.3' y1='1416.6' x2='2257.3' y2='1415.2' style="stroke-width:8.0;stroke:rgb(150,150,150);stroke-linecap:round;fill:none;" />
<text x="2270.6" y="1427.8" font-size="41.6px" font-family="CMUBright-Roman" style="text-anchor:start;fill:rgb(150,150,150);" transform="rotate(353.6,2270.6,1427.8)" >3050 kb</text>
<line x1='2249.8' y1='1517.2' x2='2261.8' y2='1517.5' style="stroke-width:8.0;stroke:rgb(150,150,150);stroke-linecap:round;fill:none;" />
<line x1='2240.7' y1='1617.5' x2='2252.6' y2='1619.4' style="stroke-width:8.0;stroke:rgb(150,150,150);stroke-linecap:round;fill:none;" />
<line x1='2218.3' y1='1715.7' x2='2229.8' y2='1719.2' style="stroke-width:8.0;stroke:rgb(150,150,150);stroke-linecap:round;fill:none;" />
<line x1='2182.9' y1='1810.0' x2='2193.8' y2='1815.0' style="stroke-width:8.0;stroke:rgb(150,150,150);stroke-linecap:round;fill:none;" />
<line x1='2135.2' y1='1898.8' x2='2145.4' y2='1905.1' style="stroke-width:8.0;stroke:rgb(150,150,150);stroke-linecap:round;fill:none;" />
<text x="2148.0" y="1923.3" font-size="41.6px" font-family="CMUBright-Roman" style="text-anchor:start;fill:rgb(150,150,150);" transform="rotate(32.1,2148.0,1923.3)" >3100 kb</text>
<line x1='2076.0' y1='1980.3' x2='2085.3' y2='1988.0' style="stroke-width:8.0;stroke:rgb(150,150,150);stroke-linecap:round;fill:none;" />
<line x1='2006.5' y1='2053.2' x2='2014.6' y2='2062.0' style="stroke-width:8.0;stroke:rgb(150,150,150);stroke-linecap:round;fill:none;" />
<line x1='1927.8' y1='2116.0' x2='1934.6' y2='2125.9' style="stroke-width:8.0;stroke:rgb(150,150,150);stroke-linecap:round;fill:none;" />
<line x1='1841.4' y1='2167.8' x2='1846.8' y2='2178.5' style="stroke-width:8.0;stroke:rgb(150,150,150);stroke-linecap:round;fill:none;" />
<g id="highlighttrack_0">
<path d="M2035.929,1376.389 A550.000,550.000 40.000 0,1 2044.224,1420.498 L2242.123,1391.589 A750.000,750.000 0.000 0,0 2230.813,1331.439 Z" style="stroke-width:14.0;stroke:rgb(0,0,0);stroke-linecap:round;fill:rgb(255,38,78);" />
</g>
<path d="M1500.000,950.000 A550.000,550.000 40.000 0,1 1699.781,2012.433 L1772.429,2198.772 A750.000,750.000 0.000 0,0 1500.000,750.000 Z" style="stroke-width:2.0;stroke:rgb(0,0,0);stroke-linecap:round;fill:none;" />
<path d="M1482.682,2049.727 A550.000,550.000 40.000 0,1 1284.183,994.112 L1205.704,810.152 A750.000,750.000 0.000 0,0 1476.384,2249.628 Z" style="stroke-width:2.0;stroke:rgb(0,0,0);stroke-linecap:round;fill:rgb(179,177,178);" />
<text x="498.6" y="1688.3" font-size="46.8px" font-family="CMUBright-Roman" style="text-anchor:middle;fill:rgb(0,0,0);" transform="rotate(79.4,498.6,1688.3)" >HistocapES289Z<tspan baseline-shift="-40%" font-size="90%">6</tspan></text>
<line x1='1148.3' y1='837.6' x2='1142.7' y2='827.0' style="stroke-width:8.0;stroke:rgb(150,150,150);stroke-linecap:round;fill:none;" />
<text x="1124.8" y="823.0" font-size="41.6px" font-family="CMUBright-Roman" style="text-anchor:end;fill:rgb(150,150,150);" transform="rotate(62.0,1124.8,823.0)" >2950 kb</text>
<line x1='1062.7' y1='890.7' x2='1055.7' y2='880.9' style="stroke-width:8.0;stroke:rgb(150,150,150);stroke-linecap:round;fill:none;" />
<line x1='985.0' y1='954.8' x2='976.8' y2='946.0' style="stroke-width:8.0;stroke:rgb(150,150,150);stroke-linecap:round;fill:none;" />
<line x1='916.6' y1='1028.7' x2='907.3' y2='1021.1' style="stroke-width:8.0;stroke:rgb(150,150,150);stroke-linecap:round;fill:none;" />
<line x1='858.7' y1='1111.1' x2='848.4' y2='1104.9' style="stroke-width:8.0;stroke:rgb(150,150,150);stroke-linecap:round;fill:none;" />
<line x1='812.4' y1='1200.6' x2='801.4' y2='1195.8' style="stroke-width:8.0;stroke:rgb(150,150,150);stroke-linecap:round;fill:none;" />
<text x="784.9" y="1203.9" font-size="41.6px" font-family="CMUBright-Roman" style="text-anchor:end;fill:rgb(150,150,150);" transform="rotate(23.5,784.9,1203.9)" >3000 kb</text>
<line x1='778.4' y1='1295.4' x2='766.9' y2='1292.1' style="stroke-width:8.0;stroke:rgb(150,150,150);stroke-linecap:round;fill:none;" />
<line x1='757.5' y1='1394.0' x2='745.7' y2='1392.3' style="stroke-width:8.0;stroke:rgb(150,150,150);stroke-linecap:round;fill:none;" />
<line x1='750.0' y1='1494.4' x2='738.0' y2='1494.3' style="stroke-width:8.0;stroke:rgb(150,150,150);stroke-linecap:round;fill:none;" />
<line x1='756.0' y1='1595.0' x2='744.1' y2='1596.5' style="stroke-width:8.0;stroke:rgb(150,150,150);stroke-linecap:round;fill:none;" />
<line x1='775.5' y1='1693.8' x2='763.9' y2='1696.9' style="stroke-width:8.0;stroke:rgb(150,150,150);stroke-linecap:round;fill:none;" />
<text x="756.0" y="1713.5" font-size="41.6px" font-family="CMUBright-Roman" style="text-anchor:end;fill:rgb(150,150,150);" transform="rotate(-15.0,756.0,1713.5)" >3050 kb</text>
<line x1='808.0' y1='1789.1' x2='796.9' y2='1793.8' style="stroke-width:8.0;stroke:rgb(150,150,150);stroke-linecap:round;fill:none;" />
<line x1='853.0' y1='1879.3' x2='842.6' y2='1885.3' style="stroke-width:8.0;stroke:rgb(150,150,150);stroke-linecap:round;fill:none;" />
<line x1='909.6' y1='1962.6' x2='900.2' y2='1970.0' style="stroke-width:8.0;stroke:rgb(150,150,150);stroke-linecap:round;fill:none;" />
<line x1='976.9' y1='2037.5' x2='968.6' y2='2046.1' style="stroke-width:8.0;stroke:rgb(150,150,150);stroke-linecap:round;fill:none;" />
<line x1='1053.7' y1='2102.7' x2='1046.5' y2='2112.4' style="stroke-width:8.0;stroke:rgb(150,150,150);stroke-linecap:round;fill:none;" />
<text x="1050.7" y="2130.3" font-size="41.6px" font-family="CMUBright-Roman" style="text-anchor:end;fill:rgb(150,150,150);" transform="rotate(-53.5,1050.7,2130.3)" >3100 kb</text>
<line x1='1138.5' y1='2157.1' x2='1132.7' y2='2167.6' style="stroke-width:8.0;stroke:rgb(150,150,150);stroke-linecap:round;fill:none;" />
<line x1='1229.8' y1='2199.6' x2='1225.5' y2='2210.8' style="stroke-width:8.0;stroke:rgb(150,150,150);stroke-linecap:round;fill:none;" />
<line x1='1326.0' y1='2229.5' x2='1323.2' y2='2241.2' style="stroke-width:8.0;stroke:rgb(150,150,150);stroke-linecap:round;fill:none;" />
<line x1='1425.3' y1='2246.3' x2='1424.1' y2='2258.2' style="stroke-width:8.0;stroke:rgb(150,150,150);stroke-linecap:round;fill:none;" />
<path d="M1482.682,2049.727 A550.000,550.000 40.000 0,1 1284.183,994.112 L1205.704,810.152 A750.000,750.000 0.000 0,0 1476.384,2249.628 Z" style="stroke-width:2.0;stroke:rgb(0,0,0);stroke-linecap:round;fill:none;" />
</g>
<g id="track_0">
<path d="M 1918.436,1187.082 A 522.500,522.500 0.00 0,1 1970.5,1272.8 L 1970.5,1272.8 1947.8,1283.7 1924.8,1294.3 1901.5,1304.8 1877.9,1315.1 1854.1,1325.2 1830.1,1335.0 1805.8,1344.6 1781.4,1353.9 1756.7,1362.9 1731.8,1371.6 1706.7,1380.0 1681.5,1388.0 1656.1,1395.8 1630.5,1403.1 1604.8,1410.2 1578.9,1416.8 1553.0,1423.1 1526.9,1429.1 1500.8,1434.6 1474.5,1439.8 1448.2,1444.5 1421.8,1448.9 1395.4,1452.9 1369.0,1456.6 1342.5,1459.8 1316.1,1462.7 1289.6,1465.1 1263.2,1467.3 1236.8,1469.0 1210.5,1470.4 1184.2,1471.4 1158.1,1472.1 1132.0,1472.4 1106.0,1472.4 1080.2,1472.1 1054.5,1471.5 1029.0,1470.7 1003.6,1469.5 978.5,1468.1  A 522.500,522.500 0.00 0,1 994.2,1369.1 L 994.2,1369.1 1017.5,1374.9 1041.1,1380.4 1065.0,1385.4 1089.2,1390.0 1113.6,1394.2 1138.2,1397.9 1163.0,1401.1 1187.9,1403.7 1213.0,1405.7 1238.2,1407.2 1263.5,1408.1 1288.8,1408.4 1314.2,1408.1 1339.6,1407.1 1364.9,1405.4 1390.3,1403.2 1415.5,1400.2 1440.7,1396.6 1465.8,1392.3 1490.8,1387.4 1515.6,1381.9 1540.3,1375.6 1564.8,1368.8 1589.1,1361.3 1613.2,1353.2 1637.1,1344.5 1660.7,1335.2 1684.0,1325.3 1707.1,1314.9 1729.8,1304.0 1752.3,1292.6 1774.3,1280.7 1796.1,1268.3 1817.5,1255.6 1838.5,1242.5 1859.1,1229.0 1879.3,1215.3 1899.1,1201.3 1918.4,1187.1  Z" style="stroke-width: 0.5;  stroke: rgb(0,0,0); fill: rgb(179,177,178);" />
<path d="M 1785.160,1062.176 A 522.500,522.500 0.00 0,1 1860.9,1122.2 L 1860.9,1122.2 1844.8,1138.7 1828.1,1155.0 1811.0,1171.0 1793.4,1186.7 1775.3,1202.0 1756.7,1216.8 1737.7,1231.1 1718.3,1244.9 1698.5,1258.1 1678.2,1270.7 1657.6,1282.5 1636.7,1293.7 1615.4,1304.2 1593.7,1313.8 1571.8,1322.7 1549.6,1330.8 1527.1,1338.1 1504.5,1344.5 1481.5,1350.0 1458.5,1354.7 1435.2,1358.5 1411.8,1361.5 1388.3,1363.6 1364.7,1364.8 1341.0,1365.2 1317.4,1364.7 1293.7,1363.4 1270.0,1361.3 1246.4,1358.4 1222.9,1354.8 1199.5,1350.4 1176.2,1345.2 1153.1,1339.5 1130.2,1333.0 1107.6,1326.0 1085.3,1318.5 1063.2,1310.4 1041.6,1301.9 1020.3,1293.0  A 522.500,522.500 0.00 0,1 1066.0,1209.1 L 1066.0,1209.1 1084.5,1221.2 1103.4,1232.9 1122.7,1244.1 1142.4,1254.8 1162.3,1264.9 1182.5,1274.3 1202.9,1283.0 1223.5,1290.9 1244.3,1298.0 1265.1,1304.1 1286.0,1309.4 1306.9,1313.7 1327.9,1317.0 1348.8,1319.3 1369.6,1320.5 1390.4,1320.7 1411.0,1319.9 1431.4,1317.9 1451.7,1314.9 1471.8,1310.8 1491.7,1305.6 1511.2,1299.4 1530.6,1292.1 1549.6,1283.8 1568.2,1274.5 1586.6,1264.1 1604.5,1252.9 1622.1,1240.7 1639.3,1227.7 1656.0,1213.8 1672.3,1199.2 1688.1,1183.9 1703.5,1167.9 1718.4,1151.3 1732.8,1134.2 1746.7,1116.7 1760.0,1098.8 1772.9,1080.6 1785.2,1062.2  Z" style="stroke-width: 0.5;  stroke: rgb(0,0,0); fill: rgb(179,177,178);" />
<path d="M 1970.527,1272.821 A 522.500,522.500 0.00 0,1 2002.4,1356.5 L 2002.4,1356.5 1977.1,1363.7 1951.8,1370.8 1926.3,1377.8 1900.8,1384.8 1875.1,1391.6 1849.4,1398.4 1823.6,1405.1 1797.7,1411.7 1771.8,1418.2 1745.8,1424.6 1719.7,1430.9 1693.5,1437.0 1667.3,1443.1 1641.1,1449.0 1614.8,1454.8 1588.5,1460.5 1562.1,1466.1 1535.7,1471.6 1509.2,1476.9 1482.7,1482.1 1456.2,1487.2 1429.7,1492.1 1403.2,1496.9 1376.6,1501.6 1350.1,1506.1 1323.6,1510.6 1297.0,1514.8 1270.5,1519.0 1244.0,1523.1 1217.5,1527.0 1191.0,1530.8 1164.5,1534.4 1138.1,1538.0 1111.7,1541.4 1085.4,1544.8 1059.1,1548.0 1032.9,1551.1 1006.7,1554.1 980.6,1557.0  A 522.500,522.500 0.00 0,1 978.4,1468.8 L 978.4,1468.8 1003.6,1470.1 1029.0,1471.3 1054.5,1472.1 1080.2,1472.7 1106.0,1472.9 1132.0,1472.9 1158.1,1472.5 1184.2,1471.8 1210.5,1470.8 1236.8,1469.4 1263.2,1467.6 1289.6,1465.5 1316.1,1463.0 1342.5,1460.1 1369.0,1456.8 1395.4,1453.2 1421.8,1449.2 1448.2,1444.7 1474.5,1439.9 1500.7,1434.8 1526.9,1429.2 1553.0,1423.3 1578.9,1416.9 1604.8,1410.3 1630.5,1403.2 1656.0,1395.8 1681.4,1388.1 1706.7,1380.0 1731.8,1371.6 1756.7,1362.9 1781.3,1353.9 1805.8,1344.6 1830.1,1335.0 1854.1,1325.2 1877.9,1315.1 1901.5,1304.8 1924.8,1294.3 1947.8,1283.7 1970.5,1272.8  Z" style="stroke-width: 0.5;  stroke: rgb(0,0,0); fill: rgb(179,177,178);" />
<path d="M 2022.499,1498.968 A 522.500,522.500 0.00 0,1 2015.4,1586.1 L 2015.4,1586.1 1991.0,1582.2 1966.3,1578.6 1941.4,1575.3 1916.4,1572.4 1891.1,1569.8 1865.6,1567.6 1840.0,1565.9 1814.2,1564.5 1788.3,1563.6 1762.4,1563.2 1736.3,1563.2 1710.2,1563.7 1684.1,1564.6 1657.9,1566.1 1631.7,1568.0 1605.5,1570.5 1579.4,1573.4 1553.3,1576.9 1527.2,1580.8 1501.3,1585.3 1475.4,1590.2 1449.7,1595.7 1424.0,1601.6 1398.5,1608.1 1373.2,1615.0 1348.0,1622.3 1323.1,1630.2 1298.3,1638.4 1273.7,1647.1 1249.4,1656.2 1225.3,1665.7 1201.5,1675.5 1177.9,1685.7 1154.6,1696.3 1131.7,1707.1 1109.0,1718.3 1086.6,1729.7 1064.6,1741.3 1042.9,1753.1  A 522.500,522.500 0.00 0,1 1007.3,1673.9 L 1007.3,1673.9 1031.6,1665.4 1056.1,1657.0 1080.7,1648.8 1105.6,1640.8 1130.6,1632.8 1155.7,1625.1 1181.1,1617.5 1206.5,1610.2 1232.1,1603.0 1257.8,1596.0 1283.7,1589.3 1309.6,1582.8 1335.7,1576.5 1361.9,1570.4 1388.1,1564.6 1414.4,1559.0 1440.9,1553.7 1467.3,1548.6 1493.9,1543.7 1520.4,1539.2 1547.0,1534.8 1573.7,1530.8 1600.4,1527.0 1627.0,1523.4 1653.7,1520.1 1680.4,1517.1 1707.1,1514.3 1733.7,1511.8 1760.3,1509.5 1786.9,1507.4 1813.4,1505.6 1839.9,1504.0 1866.3,1502.7 1892.6,1501.6 1918.8,1500.6 1944.9,1499.9 1970.9,1499.4 1996.8,1499.1 2022.5,1499.0  Z" style="stroke-width: 0.5;  stroke: rgb(0,0,0); fill: rgb(179,177,178);" />
<path d="M 1917.061,1814.748 A 522.500,522.500 0.00 0,1 1872.0,1866.9 L 1872.0,1866.9 1856.9,1852.3 1841.5,1838.1 1825.8,1824.3 1809.9,1811.1 1793.8,1798.5 1777.5,1786.7 1761.2,1775.6 1744.9,1765.5 1728.6,1756.3 1712.3,1748.1 1696.1,1741.0 1680.1,1735.0 1664.2,1730.2 1648.5,1726.6 1633.1,1724.2 1617.9,1723.1 1603.0,1723.3 1588.5,1724.8 1574.3,1727.5 1560.4,1731.6 1546.9,1737.0 1533.9,1743.6 1521.3,1751.5 1509.1,1760.6 1497.4,1770.9 1486.1,1782.4 1475.4,1795.1 1465.1,1808.8 1455.3,1823.5 1446.1,1839.2 1437.3,1855.7 1429.0,1873.1 1421.3,1891.2 1414.0,1909.9 1407.3,1929.2 1401.0,1948.9 1395.2,1969.0 1389.9,1989.3 1385.1,2009.7  A 522.500,522.500 0.00 0,1 1320.7,1990.8 L 1320.7,1990.8 1328.3,1970.7 1336.4,1950.7 1345.1,1931.0 1354.3,1911.6 1364.0,1892.6 1374.3,1874.2 1385.1,1856.3 1396.4,1839.2 1408.3,1822.7 1420.6,1807.1 1433.5,1792.4 1446.9,1778.6 1460.7,1765.7 1475.1,1754.0 1489.9,1743.2 1505.1,1733.6 1520.8,1725.1 1536.9,1717.8 1553.3,1711.7 1570.2,1706.7 1587.3,1702.9 1604.8,1700.3 1622.6,1699.0 1640.6,1698.8 1658.8,1699.7 1677.3,1701.8 1695.9,1705.1 1714.6,1709.4 1733.4,1714.8 1752.3,1721.2 1771.2,1728.5 1790.0,1736.8 1808.8,1746.0 1827.4,1755.9 1845.9,1766.5 1864.1,1777.8 1882.1,1789.7 1899.8,1802.0 1917.1,1814.7  Z" style="stroke-width: 0.5;  stroke: rgb(0,0,0); fill: rgb(179,177,178);" />
<path d="M 2016.873,1423.522 A 522.500,522.500 0.00 0,1 2021.9,1474.4 L 2021.9,1474.4 1995.9,1475.7 1969.8,1477.2 1943.6,1478.8 1917.3,1480.6 1891.0,1482.5 1864.5,1484.6 1838.1,1486.8 1811.6,1489.2 1785.0,1491.8 1758.4,1494.5 1731.8,1497.4 1705.1,1500.5 1678.4,1503.8 1651.7,1507.3 1625.0,1510.9 1598.4,1514.7 1571.7,1518.7 1545.0,1522.9 1518.4,1527.3 1491.8,1531.9 1465.2,1536.6 1438.7,1541.6 1412.2,1546.7 1385.7,1551.9 1359.4,1557.4 1333.0,1563.0 1306.8,1568.8 1280.6,1574.8 1254.5,1580.9 1228.6,1587.2 1202.7,1593.6 1176.8,1600.2 1151.1,1606.9 1125.6,1613.8 1100.1,1620.8 1074.7,1627.9 1049.5,1635.1 1024.4,1642.4 999.4,1649.8  A 522.500,522.500 0.00 0,1 987.4,1601.3 L 987.4,1601.3 1013.6,1596.2 1039.7,1591.1 1065.9,1585.9 1092.1,1580.9 1118.4,1575.8 1144.7,1570.8 1171.0,1565.7 1197.3,1560.8 1223.6,1555.8 1250.0,1550.9 1276.3,1546.0 1302.7,1541.2 1329.1,1536.3 1355.5,1531.5 1382.0,1526.8 1408.4,1522.1 1434.8,1517.4 1461.3,1512.7 1487.8,1508.1 1514.2,1503.6 1540.7,1499.0 1567.2,1494.5 1593.7,1490.1 1620.2,1485.6 1646.7,1481.3 1673.2,1476.9 1699.7,1472.6 1726.2,1468.3 1752.6,1464.1 1779.1,1459.9 1805.6,1455.7 1832.0,1451.6 1858.5,1447.5 1884.9,1443.4 1911.3,1439.4 1937.7,1435.3 1964.1,1431.4 1990.5,1427.4 2016.9,1423.5  Z" style="stroke-width: 0.5;  stroke: rgb(0,0,0); fill: rgb(179,177,178);" />
<path d="M 1886.687,1148.603 A 522.500,522.500 0.00 0,1 1918.0,1186.5 L 1918.0,1186.5 1898.7,1200.8 1878.9,1214.8 1858.7,1228.6 1838.1,1242.0 1817.2,1255.2 1795.8,1267.9 1774.1,1280.3 1752.0,1292.2 1729.6,1303.6 1706.8,1314.6 1683.8,1325.0 1660.5,1334.9 1636.9,1344.2 1613.1,1352.9 1589.0,1361.1 1564.7,1368.6 1540.2,1375.4 1515.5,1381.7 1490.7,1387.3 1465.7,1392.2 1440.6,1396.5 1415.4,1400.1 1390.2,1403.0 1364.9,1405.3 1339.5,1407.0 1314.1,1408.0 1288.8,1408.3 1263.4,1408.1 1238.2,1407.2 1213.0,1405.7 1187.9,1403.6 1163.0,1401.0 1138.2,1397.9 1113.6,1394.2 1089.2,1390.0 1065.0,1385.4 1041.1,1380.3 1017.5,1374.9 994.2,1369.1  A 522.500,522.500 0.00 0,1 1008.7,1322.2 L 1008.7,1322.2 1030.8,1329.9 1053.3,1337.3 1076.2,1344.2 1099.3,1350.7 1122.7,1356.6 1146.3,1362.0 1170.2,1366.8 1194.2,1371.0 1218.3,1374.5 1242.6,1377.4 1267.0,1379.6 1291.4,1381.0 1315.8,1381.7 1340.3,1381.6 1364.7,1380.8 1389.1,1379.2 1413.5,1376.8 1437.7,1373.6 1461.8,1369.7 1485.8,1365.0 1509.6,1359.4 1533.2,1353.1 1556.6,1346.1 1579.7,1338.3 1602.6,1329.8 1625.3,1320.5 1647.6,1310.6 1669.7,1299.9 1691.4,1288.7 1712.8,1276.8 1733.8,1264.4 1754.4,1251.4 1774.6,1237.8 1794.4,1223.9 1813.8,1209.5 1832.7,1194.7 1851.2,1179.6 1869.2,1164.2 1886.7,1148.6  Z" style="stroke-width: 0.5;  stroke: rgb(0,0,0); fill: rgb(179,177,178);" />
<path d="M 1736.975,1034.330 A 522.500,522.500 0.00 0,1 1775.7,1056.1 L 1775.7,1056.1 1763.8,1074.7 1751.5,1093.1 1738.5,1111.2 1725.1,1128.9 1711.2,1146.2 1696.7,1163.0 1681.8,1179.2 1666.4,1194.7 1650.5,1209.4 1634.2,1223.4 1617.4,1236.6 1600.3,1248.9 1582.7,1260.3 1564.8,1270.7 1546.5,1280.1 1527.9,1288.4 1509.0,1295.8 1489.8,1302.0 1470.3,1307.2 1450.6,1311.3 1430.7,1314.3 1410.6,1316.2 1390.3,1317.0 1369.9,1316.7 1349.4,1315.3 1328.8,1312.9 1308.2,1309.4 1287.6,1305.0 1267.0,1299.5 1246.4,1293.2 1226.0,1285.9 1205.7,1277.8 1185.6,1268.9 1165.6,1259.3 1146.0,1249.0 1126.6,1238.0 1107.6,1226.5 1088.9,1214.6 1070.6,1202.3  A 522.500,522.500 0.00 0,1 1097.1,1167.3 L 1097.1,1167.3 1113.9,1180.9 1131.2,1194.1 1148.8,1206.9 1166.8,1219.1 1185.0,1230.7 1203.5,1241.5 1222.1,1251.6 1240.9,1260.9 1259.9,1269.3 1278.9,1276.7 1297.9,1283.2 1317.0,1288.6 1336.1,1293.0 1355.0,1296.2 1373.9,1298.3 1392.7,1299.3 1411.3,1299.1 1429.8,1297.7 1448.0,1295.2 1466.0,1291.4 1483.8,1286.5 1501.2,1280.4 1518.4,1273.2 1535.2,1264.8 1551.7,1255.3 1567.9,1244.8 1583.6,1233.2 1598.9,1220.6 1613.8,1207.1 1628.3,1192.7 1642.3,1177.5 1655.9,1161.5 1669.0,1144.8 1681.6,1127.4 1693.7,1109.6 1705.3,1091.2 1716.4,1072.5 1726.9,1053.5 1737.0,1034.3  Z" style="stroke-width: 0.5;  stroke: rgb(0,0,0); fill: rgb(179,177,178);" />
<path d="M 1940.609,1780.838 A 522.500,522.500 0.00 0,1 1916.8,1815.2 L 1916.8,1815.2 1899.5,1802.4 1881.8,1790.0 1863.8,1778.2 1845.6,1766.9 1827.1,1756.2 1808.5,1746.2 1789.8,1737.1 1770.9,1728.8 1752.1,1721.4 1733.2,1715.0 1714.4,1709.6 1695.7,1705.3 1677.1,1702.0 1658.6,1699.9 1640.4,1698.9 1622.3,1699.1 1604.6,1700.4 1587.1,1703.0 1569.9,1706.7 1553.1,1711.7 1536.6,1717.8 1520.5,1725.1 1504.8,1733.6 1489.5,1743.2 1474.7,1753.9 1460.4,1765.7 1446.5,1778.5 1433.1,1792.3 1420.2,1807.0 1407.8,1822.6 1395.9,1839.0 1384.6,1856.2 1373.8,1874.0 1363.5,1892.4 1353.7,1911.4 1344.5,1930.8 1335.8,1950.5 1327.6,1970.4 1320.0,1990.5  A 522.500,522.500 0.00 0,1 1281.9,1974.8 L 1281.9,1974.8 1291.2,1955.1 1301.1,1935.5 1311.6,1916.1 1322.6,1897.1 1334.1,1878.5 1346.2,1860.4 1358.8,1842.8 1371.9,1825.9 1385.6,1809.7 1399.8,1794.3 1414.4,1779.7 1429.6,1766.0 1445.2,1753.2 1461.4,1741.3 1477.9,1730.5 1494.9,1720.7 1512.3,1712.0 1530.0,1704.3 1548.2,1697.8 1566.7,1692.3 1585.5,1688.0 1604.6,1684.8 1623.9,1682.7 1643.5,1681.8 1663.3,1681.9 1683.2,1683.1 1703.3,1685.4 1723.5,1688.7 1743.7,1693.0 1764.0,1698.3 1784.3,1704.5 1804.5,1711.6 1824.6,1719.5 1844.5,1728.2 1864.3,1737.6 1883.9,1747.6 1903.1,1758.2 1922.1,1769.3 1940.6,1780.8  Z" style="stroke-width: 0.5;  stroke: rgb(0,0,0); fill: rgb(179,177,178);" />
<path d="M 1867.419,1871.496 A 522.500,522.500 0.00 0,1 1836.8,1899.5 L 1836.8,1899.5 1823.3,1883.8 1809.5,1868.4 1795.5,1853.5 1781.4,1839.0 1767.1,1825.3 1752.7,1812.2 1738.3,1799.9 1723.9,1788.6 1709.5,1778.2 1695.3,1768.9 1681.1,1760.7 1667.2,1753.6 1653.4,1747.7 1639.9,1743.1 1626.7,1739.8 1613.7,1737.8 1601.1,1737.1 1588.8,1737.8 1576.9,1739.8 1565.4,1743.2 1554.3,1748.0 1543.6,1754.1 1533.4,1761.5 1523.6,1770.2 1514.3,1780.2 1505.4,1791.4 1497.1,1803.7 1489.2,1817.2 1481.8,1831.8 1474.8,1847.4 1468.4,1863.9 1462.5,1881.2 1457.0,1899.3 1452.0,1918.1 1447.5,1937.4 1443.4,1957.2 1439.7,1977.4 1436.5,1997.8 1433.7,2018.3  A 522.500,522.500 0.00 0,1 1392.9,2011.4 L 1392.9,2011.4 1397.4,1991.0 1402.4,1970.6 1407.8,1950.5 1413.7,1930.8 1420.1,1911.5 1427.0,1892.7 1434.4,1874.6 1442.3,1857.2 1450.7,1840.6 1459.6,1825.0 1469.1,1810.3 1479.0,1796.6 1489.4,1784.0 1500.2,1772.5 1511.6,1762.2 1523.4,1753.1 1535.7,1745.2 1548.4,1738.7 1561.5,1733.4 1575.0,1729.4 1588.9,1726.7 1603.1,1725.4 1617.7,1725.3 1632.5,1726.5 1647.6,1729.0 1663.0,1732.8 1678.6,1737.7 1694.3,1743.8 1710.2,1751.1 1726.2,1759.4 1742.3,1768.8 1758.3,1779.1 1774.4,1790.3 1790.3,1802.3 1806.2,1815.1 1821.9,1828.4 1837.3,1842.4 1852.5,1856.8 1867.4,1871.5  Z" style="stroke-width: 0.5;  stroke: rgb(0,0,0); fill: rgb(179,177,178);" />
<path d="M 2015.362,1586.073 A 522.500,522.500 0.00 0,1 2007.3,1625.2 L 2007.3,1625.2 1984.3,1619.8 1961.0,1614.7 1937.3,1610.1 1913.5,1606.0 1889.4,1602.4 1865.1,1599.4 1840.7,1597.0 1816.2,1595.1 1791.5,1593.9 1766.8,1593.3 1742.1,1593.4 1717.3,1594.2 1692.6,1595.7 1667.9,1597.9 1643.3,1600.9 1618.8,1604.5 1594.4,1608.9 1570.1,1614.1 1546.0,1620.0 1522.1,1626.6 1498.5,1633.9 1475.0,1642.0 1451.8,1650.7 1428.9,1660.2 1406.3,1670.3 1384.0,1681.1 1362.0,1692.5 1340.3,1704.5 1319.1,1717.2 1298.1,1730.3 1277.6,1744.1 1257.5,1758.3 1237.8,1772.9 1218.6,1788.0 1199.8,1803.4 1181.4,1819.2 1163.5,1835.3 1146.1,1851.6 1129.2,1868.1  A 522.500,522.500 0.00 0,0 1158.2,1895.2 L 1158.2,1895.2 1173.8,1877.5 1189.9,1859.9 1206.6,1842.5 1223.7,1825.4 1241.3,1808.5 1259.3,1792.0 1277.8,1775.9 1296.8,1760.2 1316.2,1745.0 1336.1,1730.3 1356.3,1716.0 1377.0,1702.4 1398.1,1689.3 1419.5,1676.9 1441.3,1665.1 1463.4,1653.9 1485.9,1643.4 1508.6,1633.6 1531.7,1624.5 1555.0,1616.0 1578.6,1608.3 1602.4,1601.4 1626.4,1595.1 1650.5,1589.6 1674.9,1584.8 1699.3,1580.7 1723.9,1577.3 1748.5,1574.6 1773.2,1572.6 1797.8,1571.3 1822.5,1570.6 1847.1,1570.6 1871.7,1571.2 1896.1,1572.4 1920.4,1574.1 1944.5,1576.4 1968.4,1579.2 1992.0,1582.4 2015.4,1586.1  Z" style="stroke-width: 0.5;  stroke: rgb(0,0,0); fill: rgb(179,177,178);" />
<path d="M 1991.342,1677.735 A 522.500,522.500 0.00 0,1 1977.4,1712.3 L 1977.4,1712.3 1956.6,1703.3 1935.4,1694.7 1913.9,1686.7 1892.0,1679.2 1869.9,1672.2 1847.6,1666.0 1825.1,1660.4 1802.5,1655.5 1779.8,1651.4 1757.0,1648.2 1734.2,1645.7 1711.4,1644.2 1688.6,1643.5 1665.9,1643.7 1643.3,1644.8 1620.8,1646.9 1598.5,1649.9 1576.4,1653.9 1554.5,1658.8 1532.9,1664.7 1511.5,1671.4 1490.4,1679.2 1469.6,1687.8 1449.1,1697.3 1429.0,1707.7 1409.3,1718.9 1390.0,1731.0 1371.1,1743.8 1352.6,1757.4 1334.5,1771.7 1317.0,1786.7 1299.9,1802.3 1283.3,1818.4 1267.1,1835.1 1251.5,1852.2 1236.4,1869.7 1221.9,1887.5 1207.9,1905.6 1194.4,1923.8  A 522.500,522.500 0.00 0,1 1165.5,1901.4 L 1165.5,1901.4 1180.5,1883.8 1195.9,1866.5 1211.9,1849.3 1228.4,1832.5 1245.5,1816.1 1263.0,1800.0 1280.9,1784.5 1299.4,1769.5 1318.2,1755.0 1337.6,1741.1 1357.3,1727.9 1377.5,1715.4 1398.0,1703.6 1418.9,1692.6 1440.1,1682.3 1461.7,1672.8 1483.6,1664.1 1505.8,1656.3 1528.3,1649.3 1550.9,1643.2 1573.9,1637.9 1597.0,1633.4 1620.3,1629.9 1643.7,1627.2 1667.2,1625.3 1690.8,1624.3 1714.5,1624.2 1738.2,1624.8 1761.9,1626.2 1785.6,1628.4 1809.2,1631.4 1832.7,1635.1 1856.1,1639.4 1879.3,1644.4 1902.2,1650.0 1925.0,1656.2 1947.4,1662.9 1969.6,1670.1 1991.3,1677.7  Z" style="stroke-width: 0.5;  stroke: rgb(0,0,0); fill: rgb(179,177,178);" />
<path d="M 2005.634,1631.685 A 522.500,522.500 0.00 0,1 1995.8,1664.9 L 1995.8,1664.9 1973.5,1657.7 1950.9,1650.9 1927.9,1644.6 1904.7,1638.8 1881.2,1633.5 1857.5,1628.8 1833.6,1624.7 1809.5,1621.2 1785.3,1618.4 1761.1,1616.2 1736.7,1614.8 1712.4,1614.1 1688.0,1614.2 1663.6,1615.0 1639.3,1616.6 1615.1,1619.0 1590.9,1622.1 1566.9,1626.1 1543.1,1630.8 1519.4,1636.4 1495.9,1642.7 1472.6,1649.8 1449.6,1657.7 1426.8,1666.3 1404.3,1675.6 1382.1,1685.7 1360.3,1696.4 1338.7,1707.9 1317.5,1719.9 1296.7,1732.6 1276.3,1745.9 1256.3,1759.6 1236.7,1773.9 1217.5,1788.7 1198.8,1803.8 1180.6,1819.4 1162.8,1835.2 1145.5,1851.3 1128.7,1867.6  A 522.500,522.500 0.00 0,1 1105.3,1842.4 L 1105.3,1842.4 1123.5,1827.0 1142.0,1811.8 1161.1,1796.8 1180.5,1782.1 1200.4,1767.8 1220.7,1753.8 1241.4,1740.3 1262.5,1727.2 1284.0,1714.6 1305.8,1702.5 1328.0,1690.9 1350.4,1680.0 1373.2,1669.6 1396.3,1659.8 1419.7,1650.7 1443.3,1642.3 1467.1,1634.5 1491.2,1627.4 1515.4,1621.0 1539.9,1615.2 1564.4,1610.2 1589.2,1605.9 1614.0,1602.3 1638.9,1599.4 1663.9,1597.2 1688.9,1595.7 1713.9,1594.9 1738.9,1594.7 1763.9,1595.2 1788.8,1596.4 1813.6,1598.2 1838.3,1600.5 1862.9,1603.5 1887.3,1607.0 1911.5,1611.0 1935.4,1615.5 1959.1,1620.5 1982.6,1625.9 2005.6,1631.7  Z" style="stroke-width: 0.5;  stroke: rgb(0,0,0); fill: rgb(179,177,178);" />
<path d="M 2002.744,1357.682 A 522.500,522.500 0.00 0,1 2010.5,1388.7 L 2010.5,1388.7 1984.4,1394.4 1958.4,1400.0 1932.2,1405.7 1906.1,1411.3 1880.0,1416.9 1853.8,1422.5 1827.6,1428.0 1801.4,1433.6 1775.2,1439.1 1748.9,1444.6 1722.7,1450.0 1696.4,1455.5 1670.1,1460.9 1643.9,1466.3 1617.6,1471.6 1591.2,1477.0 1564.9,1482.3 1538.6,1487.5 1512.3,1492.8 1485.9,1498.0 1459.6,1503.2 1433.2,1508.4 1406.9,1513.5 1380.5,1518.6 1354.2,1523.7 1327.8,1528.7 1301.4,1533.7 1275.1,1538.7 1248.7,1543.7 1222.4,1548.6 1196.0,1553.5 1169.7,1558.4 1143.4,1563.2 1117.1,1568.1 1090.7,1572.8 1064.4,1577.6 1038.2,1582.4 1011.9,1587.1 985.6,1591.8  A 522.500,522.500 0.00 0,1 981.0,1560.0 L 981.0,1560.0 1007.1,1556.9 1033.2,1553.8 1059.5,1550.5 1085.8,1547.2 1112.1,1543.7 1138.5,1540.1 1164.9,1536.5 1191.3,1532.7 1217.8,1528.8 1244.3,1524.7 1270.8,1520.6 1297.3,1516.3 1323.8,1512.0 1350.3,1507.5 1376.9,1502.8 1403.4,1498.1 1429.9,1493.2 1456.4,1488.2 1482.9,1483.1 1509.4,1477.9 1535.8,1472.5 1562.2,1467.0 1588.6,1461.4 1614.9,1455.7 1641.2,1449.9 1667.5,1443.9 1693.6,1437.9 1719.8,1431.7 1745.9,1425.4 1771.9,1419.1 1797.8,1412.6 1823.7,1406.0 1849.6,1399.3 1875.3,1392.6 1901.0,1385.8 1926.5,1378.8 1952.0,1371.9 1977.4,1364.8 2002.7,1357.7  Z" style="stroke-width: 0.5;  stroke: rgb(0,0,0); fill: rgb(179,177,178);" />
<path d="M 1969.071,1730.172 A 522.500,522.500 0.00 0,1 1954.5,1757.8 L 1954.5,1757.8 1935.2,1747.2 1915.6,1737.0 1895.7,1727.3 1875.5,1718.2 1855.1,1709.8 1834.5,1702.0 1813.8,1695.1 1792.9,1688.9 1772.1,1683.6 1751.2,1679.2 1730.4,1675.7 1709.7,1673.3 1689.1,1671.8 1668.6,1671.4 1648.3,1672.0 1628.2,1673.7 1608.4,1676.5 1588.9,1680.4 1569.6,1685.3 1550.7,1691.4 1532.2,1698.5 1514.0,1706.7 1496.2,1715.9 1478.9,1726.1 1462.0,1737.4 1445.6,1749.6 1429.6,1762.7 1414.2,1776.8 1399.2,1791.7 1384.8,1807.3 1370.8,1823.8 1357.5,1840.8 1344.6,1858.6 1332.3,1876.8 1320.6,1895.5 1309.4,1914.7 1298.8,1934.1 1288.7,1953.8 1279.2,1973.5  A 522.500,522.500 0.00 0,1 1251.3,1959.5 L 1251.3,1959.5 1262.2,1940.1 1273.5,1920.8 1285.5,1901.7 1298.0,1882.9 1311.0,1864.6 1324.6,1846.6 1338.7,1829.2 1353.4,1812.4 1368.6,1796.2 1384.3,1780.7 1400.5,1766.0 1417.2,1752.1 1434.4,1739.0 1452.0,1726.8 1470.1,1715.5 1488.6,1705.1 1507.5,1695.7 1526.8,1687.3 1546.5,1679.9 1566.5,1673.5 1586.8,1668.1 1607.4,1663.8 1628.2,1660.5 1649.3,1658.2 1670.6,1656.9 1692.0,1656.6 1713.6,1657.4 1735.3,1659.0 1757.1,1661.6 1778.8,1665.1 1800.6,1669.5 1822.3,1674.7 1843.9,1680.7 1865.4,1687.4 1886.7,1694.8 1907.7,1702.9 1928.5,1711.5 1949.0,1720.6 1969.1,1730.2  Z" style="stroke-width: 0.5;  stroke: rgb(0,0,0); fill: rgb(179,177,178);" />
<path d="M 1757.605,1954.584 A 522.500,522.500 0.00 0,1 1734.3,1967.0 L 1734.3,1967.0 1725.1,1948.9 1715.7,1931.1 1706.2,1913.6 1696.5,1896.5 1686.8,1880.1 1677.0,1864.4 1667.3,1849.5 1657.6,1835.5 1647.9,1822.5 1638.4,1810.6 1629.0,1799.8 1619.7,1790.3 1610.7,1782.0 1601.8,1775.0 1593.2,1769.4 1584.8,1765.2 1576.7,1762.4 1568.8,1761.1 1561.3,1761.2 1554.1,1762.8 1547.2,1765.8 1540.7,1770.3 1534.5,1776.3 1528.6,1783.6 1523.2,1792.3 1518.1,1802.4 1513.3,1813.7 1508.9,1826.3 1504.9,1840.0 1501.3,1854.8 1498.0,1870.7 1495.0,1887.4 1492.5,1905.1 1490.2,1923.4 1488.3,1942.4 1486.7,1961.9 1485.3,1981.8 1484.3,2002.0 1483.5,2022.2  A 522.500,522.500 0.00 0,1 1481.0,2022.2 L 1481.0,2022.2 1481.8,2001.8 1483.0,1981.6 1484.5,1961.7 1486.3,1942.1 1488.5,1923.0 1491.0,1904.6 1493.9,1886.8 1497.1,1869.9 1500.8,1853.9 1504.8,1838.9 1509.3,1825.0 1514.1,1812.3 1519.4,1800.7 1525.0,1790.4 1531.1,1781.5 1537.5,1773.9 1544.4,1767.6 1551.6,1762.8 1559.2,1759.4 1567.1,1757.5 1575.4,1757.0 1584.0,1757.9 1593.0,1760.3 1602.2,1764.1 1611.7,1769.3 1621.4,1775.8 1631.4,1783.6 1641.6,1792.7 1652.0,1803.0 1662.5,1814.4 1673.1,1826.9 1683.8,1840.4 1694.5,1854.8 1705.2,1870.1 1715.9,1886.0 1726.6,1902.5 1737.1,1919.6 1747.5,1937.0 1757.6,1954.6  Z" style="stroke-width: 0.5;  stroke: rgb(0,0,0); fill: rgb(179,177,178);" />
<path d="M 2021.885,1474.650 A 522.500,522.500 0.00 0,1 2022.5,1497.5 L 2022.5,1497.5 1996.7,1497.7 1970.8,1498.1 1944.8,1498.6 1918.7,1499.4 1892.5,1500.4 1866.2,1501.6 1839.8,1503.0 1813.3,1504.6 1786.8,1506.5 1760.2,1508.6 1733.6,1510.9 1707.0,1513.5 1680.3,1516.3 1653.6,1519.3 1626.9,1522.7 1600.3,1526.2 1573.6,1530.0 1546.9,1534.1 1520.3,1538.5 1493.7,1543.0 1467.2,1547.9 1440.7,1552.9 1414.3,1558.3 1388.0,1563.8 1361.7,1569.6 1335.5,1575.7 1309.5,1582.0 1283.5,1588.4 1257.6,1595.2 1231.9,1602.1 1206.3,1609.2 1180.8,1616.5 1155.5,1624.0 1130.3,1631.7 1105.2,1639.6 1080.4,1647.6 1055.7,1655.8 1031.1,1664.1 1006.8,1672.5  A 522.500,522.500 0.00 0,1 999.7,1650.7 L 999.7,1650.7 1024.6,1643.2 1049.7,1635.9 1074.9,1628.6 1100.3,1621.5 1125.7,1614.5 1151.3,1607.6 1177.0,1600.8 1202.8,1594.2 1228.7,1587.8 1254.7,1581.4 1280.7,1575.3 1306.9,1569.3 1333.1,1563.5 1359.4,1557.8 1385.8,1552.3 1412.2,1547.0 1438.7,1541.9 1465.3,1536.9 1491.8,1532.2 1518.4,1527.6 1545.1,1523.2 1571.7,1519.0 1598.4,1515.0 1625.1,1511.1 1651.8,1507.5 1678.5,1504.0 1705.2,1500.7 1731.8,1497.6 1758.4,1494.7 1785.0,1492.0 1811.6,1489.4 1838.1,1487.0 1864.6,1484.8 1891.0,1482.7 1917.3,1480.8 1943.6,1479.0 1969.8,1477.4 1995.9,1476.0 2021.9,1474.6  Z" style="stroke-width: 0.5;  stroke: rgb(0,0,0); fill: rgb(179,177,178);" />
<path d="M 1548.116,979.720 A 522.500,522.500 0.00 0,1 1570.8,982.3 L 1570.8,982.3 1567.7,1003.1 1564.2,1023.7 1560.1,1044.2 1555.6,1064.4 1550.5,1084.2 1544.9,1103.5 1538.7,1122.2 1532.0,1140.2 1524.6,1157.5 1516.8,1173.9 1508.3,1189.4 1499.2,1203.9 1489.6,1217.4 1479.3,1229.9 1468.6,1241.2 1457.2,1251.3 1445.3,1260.2 1432.9,1268.0 1419.9,1274.5 1406.5,1279.7 1392.5,1283.7 1378.2,1286.4 1363.3,1287.9 1348.1,1288.1 1332.5,1287.0 1316.6,1284.8 1300.4,1281.4 1283.9,1276.8 1267.1,1271.1 1250.2,1264.3 1233.2,1256.6 1216.0,1247.9 1198.8,1238.3 1181.6,1227.9 1164.5,1216.7 1147.5,1204.9 1130.7,1192.5 1114.1,1179.7 1097.8,1166.5  A 522.500,522.500 0.00 0,1 1112.6,1149.4 L 1112.6,1149.4 1128.2,1163.2 1144.0,1176.7 1160.1,1189.7 1176.4,1202.2 1192.7,1214.0 1209.1,1225.0 1225.5,1235.3 1241.8,1244.6 1258.0,1253.0 1274.0,1260.4 1289.9,1266.7 1305.5,1271.9 1320.8,1275.9 1335.7,1278.7 1350.4,1280.3 1364.6,1280.6 1378.4,1279.6 1391.8,1277.4 1404.7,1273.8 1417.1,1269.0 1429.0,1262.9 1440.4,1255.5 1451.2,1246.8 1461.5,1237.0 1471.2,1225.9 1480.4,1213.7 1488.9,1200.4 1496.9,1186.0 1504.3,1170.7 1511.1,1154.4 1517.4,1137.3 1523.1,1119.3 1528.2,1100.7 1532.8,1081.5 1536.8,1061.7 1540.4,1041.6 1543.4,1021.1 1546.0,1000.4 1548.1,979.7  Z" style="stroke-width: 0.5;  stroke: rgb(0,0,0); fill: rgb(179,177,178);" />
<path d="M 1836.765,1899.494 A 522.500,522.500 0.00 0,1 1820.1,1912.9 L 1820.1,1912.9 1807.4,1896.8 1794.4,1880.9 1781.2,1865.5 1767.8,1850.6 1754.4,1836.3 1740.8,1822.7 1727.3,1809.9 1713.8,1798.1 1700.4,1787.2 1687.1,1777.4 1673.9,1768.7 1660.9,1761.1 1648.2,1754.8 1635.7,1749.8 1623.5,1746.0 1611.6,1743.6 1600.0,1742.6 1588.8,1742.9 1578.0,1744.6 1567.5,1747.7 1557.5,1752.2 1547.9,1758.0 1538.8,1765.1 1530.1,1773.6 1521.9,1783.4 1514.1,1794.4 1506.9,1806.7 1500.1,1820.0 1493.8,1834.5 1487.9,1850.0 1482.6,1866.4 1477.7,1883.7 1473.3,1901.8 1469.3,1920.5 1465.8,1939.8 1462.6,1959.6 1460.0,1979.8 1457.7,2000.1 1455.7,2020.6  A 522.500,522.500 0.00 0,1 1434.5,2018.4 L 1434.5,2018.4 1437.3,1997.9 1440.5,1977.5 1444.1,1957.3 1448.1,1937.5 1452.6,1918.2 1457.6,1899.4 1463.0,1881.3 1469.0,1863.9 1475.3,1847.4 1482.2,1831.9 1489.6,1817.3 1497.5,1803.8 1505.8,1791.4 1514.6,1780.2 1523.9,1770.2 1533.7,1761.5 1543.9,1754.1 1554.6,1748.0 1565.6,1743.3 1577.1,1739.9 1589.0,1737.8 1601.3,1737.2 1613.9,1737.8 1626.8,1739.8 1640.0,1743.1 1653.5,1747.7 1667.3,1753.6 1681.2,1760.7 1695.3,1768.9 1709.6,1778.2 1723.9,1788.6 1738.3,1799.9 1752.7,1812.2 1767.1,1825.3 1781.4,1839.1 1795.5,1853.5 1809.5,1868.4 1823.3,1883.8 1836.8,1899.5  Z" style="stroke-width: 0.5;  stroke: rgb(0,0,0); fill: rgb(179,177,178);" />
<path d="M 1864.673,1125.808 A 522.500,522.500 0.00 0,1 1877.7,1139.0 L 1877.7,1139.0 1860.7,1154.9 1843.2,1170.6 1825.2,1186.1 1806.7,1201.2 1787.8,1215.9 1768.4,1230.2 1748.6,1244.0 1728.4,1257.3 1707.8,1270.0 1686.9,1282.1 1665.5,1293.6 1643.9,1304.4 1621.9,1314.5 1599.6,1323.9 1577.0,1332.5 1554.2,1340.4 1531.1,1347.5 1507.8,1353.8 1484.4,1359.4 1460.7,1364.1 1436.9,1367.9 1412.9,1371.0 1388.9,1373.3 1364.8,1374.7 1340.6,1375.3 1316.4,1375.2 1292.3,1374.2 1268.1,1372.5 1244.0,1370.1 1220.0,1366.9 1196.1,1363.0 1172.4,1358.5 1148.8,1353.3 1125.5,1347.5 1102.4,1341.1 1079.5,1334.2 1057.0,1326.8 1034.8,1319.0 1013.0,1310.8  A 522.500,522.500 0.00 0,1 1020.0,1293.6 L 1020.0,1293.6 1041.3,1302.5 1063.0,1311.0 1085.1,1319.1 1107.5,1326.6 1130.2,1333.7 1153.1,1340.1 1176.2,1345.9 1199.5,1351.0 1223.0,1355.4 1246.6,1359.1 1270.2,1362.0 1294.0,1364.1 1317.7,1365.5 1341.5,1366.0 1365.2,1365.7 1388.9,1364.5 1412.5,1362.5 1436.0,1359.6 1459.3,1355.8 1482.5,1351.2 1505.5,1345.8 1528.3,1339.5 1550.9,1332.3 1573.2,1324.4 1595.3,1315.6 1617.0,1306.0 1638.5,1295.7 1659.6,1284.7 1680.3,1272.9 1700.7,1260.5 1720.7,1247.4 1740.3,1233.8 1759.4,1219.6 1778.2,1204.9 1796.4,1189.8 1814.2,1174.2 1831.5,1158.4 1848.4,1142.2 1864.7,1125.8  Z" style="stroke-width: 0.5;  stroke: rgb(0,0,0); fill: rgb(179,177,178);" />
<path d="M 1977.433,1712.282 A 522.500,522.500 0.00 0,1 1972.3,1723.5 L 1972.3,1723.5 1952.0,1714.2 1931.3,1705.3 1910.3,1697.0 1889.1,1689.2 1867.6,1682.0 1845.9,1675.5 1824.1,1669.8 1802.2,1664.8 1780.3,1660.7 1758.3,1657.4 1736.3,1655.0 1714.4,1653.5 1692.6,1653.0 1671.0,1653.4 1649.4,1654.9 1628.1,1657.3 1607.0,1660.7 1586.2,1665.2 1565.7,1670.6 1545.4,1677.1 1525.5,1684.6 1505.9,1693.0 1486.8,1702.4 1468.0,1712.8 1449.6,1724.1 1431.7,1736.3 1414.3,1749.4 1397.3,1763.3 1380.8,1778.0 1364.8,1793.4 1349.3,1809.5 1334.3,1826.2 1319.9,1843.6 1306.0,1861.4 1292.6,1879.7 1279.8,1898.4 1267.6,1917.3 1255.9,1936.5 1244.7,1955.9  A 522.500,522.500 0.00 0,1 1234.0,1949.7 L 1234.0,1949.7 1245.7,1930.5 1257.9,1911.5 1270.6,1892.7 1283.9,1874.2 1297.8,1856.1 1312.2,1838.4 1327.1,1821.2 1342.6,1804.6 1358.6,1788.6 1375.1,1773.3 1392.0,1758.7 1409.5,1744.8 1427.4,1731.8 1445.8,1719.6 1464.6,1708.3 1483.8,1697.9 1503.4,1688.4 1523.3,1679.9 1543.7,1672.3 1564.3,1665.7 1585.3,1660.1 1606.5,1655.5 1627.9,1651.9 1649.6,1649.2 1671.5,1647.5 1693.5,1646.8 1715.7,1647.0 1737.9,1648.2 1760.2,1650.2 1782.5,1653.2 1804.8,1656.9 1827.0,1661.5 1849.2,1666.9 1871.2,1672.9 1893.0,1679.7 1914.5,1687.0 1935.8,1695.0 1956.8,1703.4 1977.4,1712.3  Z" style="stroke-width: 0.5;  stroke: rgb(0,0,0); fill: rgb(179,177,178);" />
<path d="M 1994.404,1669.030 A 522.500,522.500 0.00 0,1 1991.9,1676.3 L 1991.9,1676.3 1970.0,1668.7 1947.9,1661.6 1925.4,1654.9 1902.6,1648.8 1879.6,1643.3 1856.4,1638.3 1833.0,1634.0 1809.4,1630.4 1785.8,1627.5 1762.1,1625.3 1738.3,1623.9 1714.6,1623.3 1690.9,1623.5 1667.2,1624.5 1643.6,1626.4 1620.2,1629.1 1596.9,1632.7 1573.7,1637.2 1550.8,1642.5 1528.0,1648.6 1505.5,1655.6 1483.3,1663.5 1461.4,1672.1 1439.7,1681.6 1418.4,1691.9 1397.5,1702.9 1376.9,1714.7 1356.7,1727.2 1336.9,1740.4 1317.5,1754.2 1298.6,1768.6 1280.1,1783.6 1262.0,1799.1 1244.5,1815.1 1227.4,1831.6 1210.8,1848.3 1194.8,1865.4 1179.2,1882.8 1164.2,1900.3  A 522.500,522.500 0.00 0,1 1158.2,1895.2 L 1158.2,1895.2 1173.5,1877.8 1189.4,1860.6 1205.8,1843.7 1222.6,1827.1 1240.0,1810.8 1257.8,1795.0 1276.1,1779.6 1294.9,1764.8 1314.1,1750.4 1333.8,1736.7 1353.8,1723.7 1374.3,1711.2 1395.1,1699.5 1416.3,1688.5 1437.8,1678.3 1459.7,1668.9 1481.8,1660.2 1504.3,1652.3 1527.0,1645.3 1549.9,1639.1 1573.1,1633.7 1596.4,1629.2 1619.9,1625.5 1643.6,1622.7 1667.3,1620.7 1691.2,1619.5 1715.1,1619.1 1739.0,1619.5 1762.9,1620.7 1786.8,1622.6 1810.6,1625.3 1834.3,1628.7 1857.8,1632.7 1881.2,1637.4 1904.4,1642.7 1927.4,1648.6 1950.0,1654.9 1972.4,1661.8 1994.4,1669.0  Z" style="stroke-width: 0.5;  stroke: rgb(0,0,0); fill: rgb(179,177,178);" />
<path d="M 1880.334,1141.737 A 522.500,522.500 0.00 0,1 1885.2,1147.0 L 1885.2,1147.0 1867.8,1162.6 1849.8,1178.1 1831.4,1193.3 1812.6,1208.1 1793.3,1222.6 1773.5,1236.6 1753.4,1250.2 1732.8,1263.2 1711.9,1275.7 1690.6,1287.7 1669.0,1299.0 1647.0,1309.6 1624.7,1319.6 1602.1,1328.9 1579.2,1337.5 1556.1,1345.3 1532.7,1352.4 1509.2,1358.7 1485.4,1364.3 1461.5,1369.1 1437.4,1373.0 1413.2,1376.2 1389.0,1378.6 1364.6,1380.2 1340.2,1381.0 1315.8,1381.1 1291.3,1380.4 1267.0,1379.0 1242.6,1376.8 1218.4,1373.9 1194.2,1370.4 1170.3,1366.2 1146.5,1361.4 1122.8,1356.0 1099.5,1350.0 1076.4,1343.5 1053.6,1336.6 1031.1,1329.1 1009.0,1321.4  A 522.500,522.500 0.00 0,1 1011.5,1314.6 L 1011.5,1314.6 1033.4,1322.7 1055.7,1330.4 1078.3,1337.6 1101.3,1344.4 1124.5,1350.6 1147.9,1356.2 1171.6,1361.3 1195.4,1365.7 1219.4,1369.5 1243.5,1372.5 1267.7,1374.9 1291.9,1376.5 1316.2,1377.3 1340.4,1377.4 1364.7,1376.7 1388.9,1375.2 1413.0,1372.9 1437.1,1369.8 1461.0,1365.8 1484.7,1361.1 1508.3,1355.6 1531.7,1349.3 1554.9,1342.2 1577.8,1334.3 1600.5,1325.7 1622.9,1316.3 1645.0,1306.2 1666.7,1295.5 1688.2,1284.0 1709.3,1272.0 1730.0,1259.3 1750.3,1246.1 1770.2,1232.4 1789.7,1218.2 1808.8,1203.6 1827.4,1188.6 1845.5,1173.2 1863.2,1157.6 1880.3,1141.7  Z" style="stroke-width: 0.5;  stroke: rgb(0,0,0); fill: rgb(179,177,178);" />
</g>
<g id="plot0">
<g id="plot0-axis">
</g>
<line x1='2243.7' y1='1597.0' x2='2243.7' y2='1597.0' style="stroke-width:14.0;stroke:rgb(0,0,0);stroke-linecap:round;fill:none;" />
<line x1='2243.7' y1='1597.0' x2='2283.4' y2='1602.2' style="stroke-width:14.0;stroke:rgb(0,0,0);stroke-linecap:round;fill:none;" />
<line x1='2283.4' y1='1602.2' x2='2283.4' y2='1602.2' style="stroke-width:14.0;stroke:rgb(0,0,0);stroke-linecap:round;fill:none;" />
<text x="2300.0" y="1627.1" font-size="46.8px" font-family="CMUBright-Roman" style="text-anchor:start;fill:rgb(255,38,78);" transform="rotate(7.4,2300.0,1627.1)" >HistocapCB055<tspan baseline-shift="-40%" font-size="90%">s</tspan>00022</text>
</g>
<defs>
<pattern id="checker" width="10" height="10" patternTransform="rotate(45 0 0)" patternUnits="userSpaceOnUse"><line x1="0" y1="0" x2="10" y2="0" style="stroke:black;stroke-width:5" /><line x1="0" y1="0" x2="0" y2="10" style="stroke:black;stroke-width:4" /></pattern>
<pattern id="vline" width="10" height="10" patternTransform="rotate(0 0 0)" patternUnits="userSpaceOnUse"><line x1="0" y1="0" x2="0" y2="10" style="stroke:black;stroke-width:5" /></pattern>
<pattern id="hline-sparse" width="10" height="10" patternTransform="rotate(0 0 0)" patternUnits="userSpaceOnUse"><line x1="0" y1="0" x2="10" y2="0" style="stroke:black;stroke-width:2" /></pattern>
<pattern id="checker" width="10" height="10" patternTransform="rotate(45 0 0)" patternUnits="userSpaceOnUse"><line x1="0" y1="0" x2="10" y2="0" style="stroke:black;stroke-width:2" /><line x1="0" y1="0" x2="0" y2="10" style="stroke:black;stroke-width:2" /></pattern>
<pattern id="hline" width="10" height="10" patternTransform="rotate(0 0 0)" patternUnits="userSpaceOnUse"><line x1="0" y1="0" x2="10" y2="0" style="stroke:black;stroke-width:5" /></pattern>
<pattern id="vline-sparse" width="10" height="10" patternTransform="rotate(0 0 0)" patternUnits="userSpaceOnUse"><line x1="0" y1="0" x2="0" y2="10" style="stroke:black;stroke-width:2" /></pattern>
</defs>
</svg>
