<?xml version="1.0" encoding="utf-8" standalone="no"?>
<!DOCTYPE svg PUBLIC "-//W3C//DTD SVG 1.1//EN" "http://www.w3.org/Graphics/SVG/1.1/DTD/svg11.dtd">
<svg width="3000px" height="3000px" version="1.1" xmlns="http://www.w3.org/2000/svg" xmlns:xlink="http://www.w3.org/1999/xlink">
<g id="bg">
<rect x="0" y="0" width="3000px" height="3000px" style="fill:rgb(255,255,255);"/>
</g>
<g id="ideograms">
<path d="M1500.000,950.000 A550.000,550.000 40.000 0,1 1647.874,2029.748 L1701.646,2222.384 A750.000,750.000 0.000 0,0 1500.000,750.000 Z" style="stroke-width:2.0;stroke:rgb(0,0,0);stroke-linecap:round;fill:rgb(179,177,178);" />
<text x="2466.0" y="1367.7" font-size="46.8px" font-family="CMUBright-Roman" style="text-anchor:middle;fill:rgb(0,0,0);" transform="rotate(442.2,2466.0,1367.7)" >HistocapCB065<tspan baseline-shift="-40%" font-size="90%">5</tspan></text>
<line x1='1579.9' y1='754.3' x2='1581.2' y2='742.3' style="stroke-width:8.0;stroke:rgb(150,150,150);stroke-linecap:round;fill:none;" />
<text x="1596.3" y="732.0" font-size="41.6px" font-family="CMUBright-Roman" style="text-anchor:start;fill:rgb(150,150,150);" transform="rotate(276.1,1596.3,732.0)" >2900 kb</text>
<line x1='1676.8' y1='771.1' x2='1679.6' y2='759.5' style="stroke-width:8.0;stroke:rgb(150,150,150);stroke-linecap:round;fill:none;" />
<line x1='1770.7' y1='800.5' x2='1775.0' y2='789.4' style="stroke-width:8.0;stroke:rgb(150,150,150);stroke-linecap:round;fill:none;" />
<line x1='1859.9' y1='842.0' x2='1865.6' y2='831.5' style="stroke-width:8.0;stroke:rgb(150,150,150);stroke-linecap:round;fill:none;" />
<line x1='1942.9' y1='894.7' x2='1950.0' y2='885.1' style="stroke-width:8.0;stroke:rgb(150,150,150);stroke-linecap:round;fill:none;" />
<line x1='2018.3' y1='957.9' x2='2026.6' y2='949.2' style="stroke-width:8.0;stroke:rgb(150,150,150);stroke-linecap:round;fill:none;" />
<text x="2044.9" y="950.3" font-size="41.6px" font-family="CMUBright-Roman" style="text-anchor:start;fill:rgb(150,150,150);" transform="rotate(313.7,2044.9,950.3)" >2950 kb</text>
<line x1='2084.8' y1='1030.4' x2='2094.1' y2='1022.9' style="stroke-width:8.0;stroke:rgb(150,150,150);stroke-linecap:round;fill:none;" />
<line x1='2141.2' y1='1111.0' x2='2151.5' y2='1104.7' style="stroke-width:8.0;stroke:rgb(150,150,150);stroke-linecap:round;fill:none;" />
<line x1='2186.6' y1='1198.2' x2='2197.6' y2='1193.4' style="stroke-width:8.0;stroke:rgb(150,150,150);stroke-linecap:round;fill:none;" />
<line x1='2220.2' y1='1290.7' x2='2231.7' y2='1287.3' style="stroke-width:8.0;stroke:rgb(150,150,150);stroke-linecap:round;fill:none;" />
<line x1='2241.4' y1='1386.7' x2='2253.3' y2='1384.9' style="stroke-width:8.0;stroke:rgb(150,150,150);stroke-linecap:round;fill:none;" />
<text x="2267.1" y="1397.0" font-size="41.6px" font-family="CMUBright-Roman" style="text-anchor:start;fill:rgb(150,150,150);" transform="rotate(351.3,2267.1,1397.0)" >3000 kb</text>
<line x1='2249.8' y1='1484.7' x2='2261.8' y2='1484.5' style="stroke-width:8.0;stroke:rgb(150,150,150);stroke-linecap:round;fill:none;" />
<line x1='2245.4' y1='1583.0' x2='2257.3' y2='1584.3' style="stroke-width:8.0;stroke:rgb(150,150,150);stroke-linecap:round;fill:none;" />
<line x1='2228.1' y1='1679.9' x2='2239.8' y2='1682.7' style="stroke-width:8.0;stroke:rgb(150,150,150);stroke-linecap:round;fill:none;" />
<line x1='2198.3' y1='1773.6' x2='2209.5' y2='1778.0' style="stroke-width:8.0;stroke:rgb(150,150,150);stroke-linecap:round;fill:none;" />
<line x1='2156.5' y1='1862.6' x2='2167.0' y2='1868.4' style="stroke-width:8.0;stroke:rgb(150,150,150);stroke-linecap:round;fill:none;" />
<text x="2170.6" y="1886.4" font-size="41.6px" font-family="CMUBright-Roman" style="text-anchor:start;fill:rgb(150,150,150);" transform="rotate(28.9,2170.6,1886.4)" >3050 kb</text>
<line x1='2103.4' y1='1945.4' x2='2113.1' y2='1952.6' style="stroke-width:8.0;stroke:rgb(150,150,150);stroke-linecap:round;fill:none;" />
<line x1='2039.9' y1='2020.6' x2='2048.6' y2='2028.9' style="stroke-width:8.0;stroke:rgb(150,150,150);stroke-linecap:round;fill:none;" />
<line x1='1967.1' y1='2086.8' x2='1974.6' y2='2096.1' style="stroke-width:8.0;stroke:rgb(150,150,150);stroke-linecap:round;fill:none;" />
<line x1='1886.3' y1='2142.8' x2='1892.5' y2='2153.1' style="stroke-width:8.0;stroke:rgb(150,150,150);stroke-linecap:round;fill:none;" />
<line x1='1798.9' y1='2187.9' x2='1803.7' y2='2198.9' style="stroke-width:8.0;stroke:rgb(150,150,150);stroke-linecap:round;fill:none;" />
<text x="1795.6" y="2215.3" font-size="41.6px" font-family="CMUBright-Roman" style="text-anchor:start;fill:rgb(150,150,150);" transform="rotate(66.5,1795.6,2215.3)" >3100 kb</text>
<line x1='1706.3' y1='2221.1' x2='1709.6' y2='2232.6' style="stroke-width:8.0;stroke:rgb(150,150,150);stroke-linecap:round;fill:none;" />
<g id="highlighttrack_0">
<path d="M2031.753,1359.507 A550.000,550.000 40.000 0,1 2049.947,1492.352 L2249.927,1489.571 A750.000,750.000 0.000 0,0 2225.118,1308.418 Z" style="stroke-width:14.0;stroke:rgb(0,0,0);stroke-linecap:round;fill:rgb(255,38,78);" />
</g>
<path d="M1500.000,950.000 A550.000,550.000 40.000 0,1 1647.874,2029.748 L1701.646,2222.384 A750.000,750.000 0.000 0,0 1500.000,750.000 Z" style="stroke-width:2.0;stroke:rgb(0,0,0);stroke-linecap:round;fill:none;" />
<path d="M1433.319,2045.943 A550.000,550.000 40.000 0,1 1288.992,992.087 L1212.261,807.392 A750.000,750.000 0.000 0,0 1409.072,2244.468 Z" style="stroke-width:2.0;stroke:rgb(0,0,0);stroke-linecap:round;fill:rgb(179,177,178);" />
<text x="489.4" y="1638.4" font-size="46.8px" font-family="CMUBright-Roman" style="text-anchor:middle;fill:rgb(0,0,0);" transform="rotate(82.2,489.4,1638.4)" >HistomissSECH90<tspan baseline-shift="-40%" font-size="90%">5</tspan></text>
<line x1='1138.6' y1='842.8' x2='1132.8' y2='832.3' style="stroke-width:8.0;stroke:rgb(150,150,150);stroke-linecap:round;fill:none;" />
<line x1='1055.7' y1='895.8' x2='1048.6' y2='886.1' style="stroke-width:8.0;stroke:rgb(150,150,150);stroke-linecap:round;fill:none;" />
<line x1='980.4' y1='959.1' x2='972.1' y2='950.5' style="stroke-width:8.0;stroke:rgb(150,150,150);stroke-linecap:round;fill:none;" />
<line x1='914.1' y1='1031.8' x2='904.7' y2='1024.3' style="stroke-width:8.0;stroke:rgb(150,150,150);stroke-linecap:round;fill:none;" />
<line x1='857.9' y1='1112.5' x2='847.6' y2='1106.3' style="stroke-width:8.0;stroke:rgb(150,150,150);stroke-linecap:round;fill:none;" />
<text x="830.2" y="1112.1" font-size="41.6px" font-family="CMUBright-Roman" style="text-anchor:end;fill:rgb(150,150,150);" transform="rotate(31.1,830.2,1112.1)" >2600 kb</text>
<line x1='812.7' y1='1199.9' x2='801.7' y2='1195.1' style="stroke-width:8.0;stroke:rgb(150,150,150);stroke-linecap:round;fill:none;" />
<line x1='779.3' y1='1292.4' x2='767.8' y2='1289.1' style="stroke-width:8.0;stroke:rgb(150,150,150);stroke-linecap:round;fill:none;" />
<line x1='758.3' y1='1388.5' x2='746.5' y2='1386.7' style="stroke-width:8.0;stroke:rgb(150,150,150);stroke-linecap:round;fill:none;" />
<line x1='750.1' y1='1486.5' x2='738.1' y2='1486.3' style="stroke-width:8.0;stroke:rgb(150,150,150);stroke-linecap:round;fill:none;" />
<line x1='754.8' y1='1584.8' x2='742.9' y2='1586.1' style="stroke-width:8.0;stroke:rgb(150,150,150);stroke-linecap:round;fill:none;" />
<text x="732.7" y="1601.4" font-size="41.6px" font-family="CMUBright-Roman" style="text-anchor:end;fill:rgb(150,150,150);" transform="rotate(-6.5,732.7,1601.4)" >2650 kb</text>
<line x1='772.3' y1='1681.6' x2='760.7' y2='1684.5' style="stroke-width:8.0;stroke:rgb(150,150,150);stroke-linecap:round;fill:none;" />
<line x1='802.3' y1='1775.3' x2='791.2' y2='1779.7' style="stroke-width:8.0;stroke:rgb(150,150,150);stroke-linecap:round;fill:none;" />
<line x1='844.4' y1='1864.2' x2='833.9' y2='1870.0' style="stroke-width:8.0;stroke:rgb(150,150,150);stroke-linecap:round;fill:none;" />
<line x1='897.7' y1='1946.9' x2='888.0' y2='1954.0' style="stroke-width:8.0;stroke:rgb(150,150,150);stroke-linecap:round;fill:none;" />
<line x1='961.3' y1='2021.9' x2='952.7' y2='2030.2' style="stroke-width:8.0;stroke:rgb(150,150,150);stroke-linecap:round;fill:none;" />
<text x="953.9" y="2048.5" font-size="41.6px" font-family="CMUBright-Roman" style="text-anchor:end;fill:rgb(150,150,150);" transform="rotate(-44.1,953.9,2048.5)" >2700 kb</text>
<line x1='1034.3' y1='2087.9' x2='1026.8' y2='2097.3' style="stroke-width:8.0;stroke:rgb(150,150,150);stroke-linecap:round;fill:none;" />
<line x1='1115.2' y1='2143.8' x2='1109.0' y2='2154.1' style="stroke-width:8.0;stroke:rgb(150,150,150);stroke-linecap:round;fill:none;" />
<line x1='1202.8' y1='2188.6' x2='1198.0' y2='2199.6' style="stroke-width:8.0;stroke:rgb(150,150,150);stroke-linecap:round;fill:none;" />
<line x1='1295.4' y1='2221.6' x2='1292.2' y2='2233.1' style="stroke-width:8.0;stroke:rgb(150,150,150);stroke-linecap:round;fill:none;" />
<line x1='1391.6' y1='2242.1' x2='1389.9' y2='2254.0' style="stroke-width:8.0;stroke:rgb(150,150,150);stroke-linecap:round;fill:none;" />
<text x="1402.0" y="2267.8" font-size="41.6px" font-family="CMUBright-Roman" style="text-anchor:end;fill:rgb(150,150,150);" transform="rotate(-81.7,1402.0,2267.8)" >2750 kb</text>
<path d="M1433.319,2045.943 A550.000,550.000 40.000 0,1 1288.992,992.087 L1212.261,807.392 A750.000,750.000 0.000 0,0 1409.072,2244.468 Z" style="stroke-width:2.0;stroke:rgb(0,0,0);stroke-linecap:round;fill:none;" />
</g>
<g id="track_0">
<path d="M 1946.518,1771.345 A 522.500,522.500 0.00 0,1 1822.9,1910.8 L 1822.9,1910.8 1809.3,1894.0 1795.3,1877.4 1780.8,1861.2 1765.9,1845.5 1750.6,1830.4 1734.9,1815.8 1718.9,1802.0 1702.5,1789.0 1685.8,1776.8 1668.9,1765.6 1651.7,1755.3 1634.3,1746.0 1616.7,1737.7 1599.0,1730.6 1581.0,1724.6 1563.0,1719.8 1544.9,1716.1 1526.7,1713.6 1508.5,1712.4 1490.2,1712.3 1472.0,1713.5 1453.8,1715.8 1435.6,1719.4 1417.6,1724.1 1399.6,1730.0 1381.8,1737.0 1364.1,1745.1 1346.7,1754.3 1329.4,1764.5 1312.4,1775.7 1295.7,1787.7 1279.3,1800.7 1263.1,1814.4 1247.4,1828.8 1232.0,1843.9 1217.0,1859.5 1202.4,1875.6 1188.2,1892.0 1174.6,1908.8  A 522.500,522.500 0.00 0,1 1051.8,1768.6 L 1051.8,1768.6 1072.0,1756.7 1092.7,1745.2 1113.8,1734.0 1135.3,1723.2 1157.1,1712.9 1179.2,1703.1 1201.7,1693.8 1224.5,1685.1 1247.5,1677.1 1270.8,1669.6 1294.3,1662.9 1318.0,1656.8 1341.8,1651.4 1365.9,1646.8 1390.0,1643.0 1414.3,1639.9 1438.6,1637.6 1463.0,1636.0 1487.4,1635.3 1511.8,1635.4 1536.2,1636.3 1560.6,1637.9 1584.9,1640.4 1609.1,1643.6 1633.2,1647.6 1657.2,1652.4 1681.0,1657.9 1704.7,1664.1 1728.1,1671.0 1751.4,1678.6 1774.4,1686.9 1797.1,1695.7 1819.5,1705.1 1841.6,1715.0 1863.3,1725.5 1884.7,1736.4 1905.8,1747.7 1926.4,1759.4 1946.5,1771.3  Z" style="stroke-width: 0.5;  stroke: rgb(0,0,0); fill: rgb(179,177,178);" />
<path d="M 1997.053,1661.073 A 522.500,522.500 0.00 0,1 1959.0,1749.7 L 1959.0,1749.7 1938.0,1738.5 1916.7,1727.6 1894.9,1717.1 1872.8,1707.0 1850.3,1697.3 1827.5,1688.1 1804.4,1679.4 1781.0,1671.2 1757.4,1663.6 1733.6,1656.6 1709.5,1650.2 1685.2,1644.4 1660.8,1639.3 1636.2,1634.9 1611.5,1631.2 1586.7,1628.1 1561.8,1625.8 1536.8,1624.2 1511.9,1623.4 1486.9,1623.2 1461.9,1623.9 1436.9,1625.2 1412.0,1627.2 1387.2,1630.0 1362.4,1633.5 1337.8,1637.7 1313.3,1642.5 1289.0,1648.0 1264.8,1654.2 1240.9,1660.9 1217.2,1668.3 1193.7,1676.3 1170.6,1684.7 1147.7,1693.7 1125.1,1703.2 1102.9,1713.0 1081.0,1723.3 1059.5,1734.0 1038.4,1744.9  A 522.500,522.500 0.00 0,1 1001.3,1655.9 L 1001.3,1655.9 1025.1,1648.6 1049.1,1641.6 1073.5,1634.9 1098.1,1628.4 1122.9,1622.2 1147.9,1616.4 1173.1,1610.9 1198.6,1605.8 1224.2,1601.1 1249.9,1596.7 1275.8,1592.8 1301.9,1589.3 1328.0,1586.2 1354.2,1583.6 1380.6,1581.4 1406.9,1579.7 1433.4,1578.4 1459.9,1577.6 1486.4,1577.3 1512.8,1577.4 1539.3,1578.0 1565.8,1579.1 1592.2,1580.6 1618.6,1582.6 1644.9,1585.1 1671.1,1588.0 1697.2,1591.3 1723.2,1595.1 1749.1,1599.3 1774.8,1603.9 1800.3,1608.9 1825.7,1614.3 1850.9,1620.0 1875.8,1626.1 1900.6,1632.5 1925.1,1639.3 1949.4,1646.3 1973.3,1653.6 1997.1,1661.1  Z" style="stroke-width: 0.5;  stroke: rgb(0,0,0); fill: rgb(179,177,178);" />
<path d="M 1759.588,1953.454 A 522.500,522.500 0.00 0,1 1676.6,1991.7 L 1676.6,1991.7 1669.5,1972.5 1662.1,1953.4 1654.4,1934.7 1646.4,1916.4 1638.1,1898.7 1629.6,1881.7 1620.8,1865.5 1611.8,1850.1 1602.6,1835.7 1593.2,1822.3 1583.7,1810.1 1574.0,1799.0 1564.1,1789.2 1554.2,1780.7 1544.1,1773.5 1533.9,1767.7 1523.7,1763.3 1513.4,1760.3 1503.1,1758.8 1492.7,1758.7 1482.4,1760.1 1472.1,1762.9 1461.8,1767.1 1451.5,1772.8 1441.3,1779.8 1431.2,1788.1 1421.2,1797.8 1411.3,1808.7 1401.6,1820.8 1392.0,1834.0 1382.6,1848.2 1373.3,1863.5 1364.3,1879.6 1355.5,1896.5 1346.9,1914.0 1338.6,1932.2 1330.6,1950.8 1322.9,1969.7 1315.5,1988.8  A 522.500,522.500 0.00 0,1 1233.1,1949.2 L 1233.1,1949.2 1244.1,1931.2 1255.5,1913.5 1267.2,1896.1 1279.4,1879.2 1291.9,1862.9 1304.7,1847.2 1317.9,1832.3 1331.3,1818.2 1344.9,1805.1 1358.8,1792.9 1373.0,1781.8 1387.3,1771.8 1401.7,1762.9 1416.3,1755.2 1431.0,1748.8 1445.9,1743.6 1460.7,1739.8 1475.7,1737.3 1490.6,1736.0 1505.6,1736.2 1520.5,1737.6 1535.4,1740.4 1550.2,1744.5 1564.9,1749.9 1579.6,1756.5 1594.0,1764.4 1608.4,1773.5 1622.5,1783.8 1636.4,1795.1 1650.1,1807.5 1663.6,1820.9 1676.8,1835.2 1689.7,1850.3 1702.2,1866.2 1714.5,1882.7 1726.4,1899.8 1737.8,1917.4 1748.9,1935.3 1759.6,1953.5  Z" style="stroke-width: 0.5;  stroke: rgb(0,0,0); fill: rgb(179,177,178);" />
<path d="M 1822.338,1911.223 A 522.500,522.500 0.00 0,1 1764.1,1950.8 L 1764.1,1950.8 1753.3,1932.8 1742.0,1914.9 1730.3,1897.5 1718.2,1880.5 1705.8,1864.1 1693.0,1848.3 1679.9,1833.3 1666.6,1819.1 1652.9,1805.8 1639.0,1793.5 1624.9,1782.2 1610.6,1772.1 1596.1,1763.1 1581.4,1755.3 1566.7,1748.7 1551.8,1743.4 1536.8,1739.4 1521.8,1736.7 1506.7,1735.3 1491.6,1735.2 1476.5,1736.5 1461.4,1739.1 1446.4,1743.0 1431.5,1748.2 1416.7,1754.7 1402.0,1762.4 1387.4,1771.3 1373.0,1781.3 1358.8,1792.5 1344.8,1804.7 1331.1,1817.8 1317.6,1831.9 1304.4,1846.8 1291.5,1862.5 1279.0,1878.9 1266.8,1895.8 1255.0,1913.1 1243.5,1930.9 1232.6,1948.9  A 522.500,522.500 0.00 0,1 1174.5,1908.8 L 1174.5,1908.8 1188.2,1892.0 1202.3,1875.6 1216.9,1859.5 1231.9,1843.8 1247.3,1828.8 1263.1,1814.4 1279.2,1800.7 1295.7,1787.7 1312.4,1775.7 1329.4,1764.5 1346.6,1754.3 1364.1,1745.2 1381.7,1737.1 1399.5,1730.1 1417.5,1724.2 1435.5,1719.4 1453.6,1715.9 1471.8,1713.6 1490.1,1712.4 1508.3,1712.5 1526.5,1713.8 1544.7,1716.2 1562.8,1719.9 1580.8,1724.8 1598.7,1730.8 1616.5,1738.0 1634.1,1746.2 1651.4,1755.5 1668.6,1765.8 1685.5,1777.1 1702.1,1789.3 1718.5,1802.3 1734.5,1816.2 1750.2,1830.7 1765.4,1845.9 1780.3,1861.6 1794.8,1877.8 1808.8,1894.4 1822.3,1911.2  Z" style="stroke-width: 0.5;  stroke: rgb(0,0,0); fill: rgb(179,177,178);" />
<path d="M 1675.973,1991.976 A 522.500,522.500 0.00 0,1 1640.5,2003.3 L 1640.5,2003.3 1634.9,1983.7 1629.0,1964.3 1622.9,1945.3 1616.6,1926.6 1610.0,1908.6 1603.2,1891.2 1596.3,1874.7 1589.2,1859.0 1581.9,1844.3 1574.4,1830.7 1566.8,1818.2 1559.1,1806.9 1551.3,1796.9 1543.4,1788.2 1535.4,1780.9 1527.3,1775.0 1519.2,1770.5 1511.0,1767.5 1502.8,1766.0 1494.6,1766.0 1486.4,1767.4 1478.2,1770.3 1470.1,1774.7 1462.0,1780.6 1453.9,1787.8 1445.9,1796.4 1438.0,1806.3 1430.2,1817.5 1422.5,1830.0 1414.9,1843.5 1407.5,1858.1 1400.2,1873.8 1393.1,1890.3 1386.1,1907.6 1379.4,1925.5 1372.9,1944.1 1366.6,1963.1 1360.6,1982.4 1354.8,2001.9  A 522.500,522.500 0.00 0,1 1314.7,1988.5 L 1314.7,1988.5 1322.1,1969.4 1329.9,1950.5 1337.9,1931.9 1346.2,1913.8 1354.8,1896.2 1363.7,1879.3 1372.7,1863.3 1382.0,1848.0 1391.4,1833.8 1401.1,1820.6 1410.8,1808.5 1420.7,1797.7 1430.8,1788.0 1440.9,1779.7 1451.1,1772.7 1461.3,1767.1 1471.7,1762.8 1482.0,1760.0 1492.4,1758.7 1502.7,1758.8 1513.0,1760.3 1523.3,1763.3 1533.6,1767.7 1543.7,1773.6 1553.8,1780.8 1563.7,1789.3 1573.6,1799.1 1583.3,1810.2 1592.8,1822.4 1602.2,1835.8 1611.4,1850.2 1620.3,1865.6 1629.1,1881.9 1637.6,1898.9 1645.8,1916.6 1653.8,1934.9 1661.5,1953.7 1668.9,1972.7 1676.0,1992.0  Z" style="stroke-width: 0.5;  stroke: rgb(0,0,0); fill: rgb(179,177,178);" />
<path d="M 2022.449,1492.734 A 522.500,522.500 0.00 0,1 2022.0,1523.2 L 2022.0,1523.2 1996.0,1522.1 1969.8,1521.1 1943.6,1520.3 1917.3,1519.6 1890.9,1519.0 1864.4,1518.6 1837.8,1518.4 1811.2,1518.3 1784.5,1518.3 1757.7,1518.6 1730.9,1519.0 1704.1,1519.5 1677.2,1520.3 1650.4,1521.2 1623.4,1522.3 1596.5,1523.6 1569.6,1525.1 1542.6,1526.8 1515.7,1528.6 1488.8,1530.7 1461.9,1532.9 1435.0,1535.3 1408.1,1537.9 1381.3,1540.6 1354.5,1543.6 1327.8,1546.7 1301.1,1550.0 1274.5,1553.4 1248.0,1557.0 1221.5,1560.8 1195.1,1564.8 1168.8,1568.9 1142.6,1573.1 1116.4,1577.5 1090.4,1582.0 1064.5,1586.6 1038.7,1591.4 1013.0,1596.3 987.4,1601.3  A 522.500,522.500 0.00 0,1 982.4,1571.2 L 982.4,1571.2 1008.5,1567.7 1034.8,1564.2 1061.1,1560.7 1087.4,1557.3 1113.8,1554.0 1140.3,1550.8 1166.8,1547.6 1193.4,1544.5 1220.0,1541.5 1246.6,1538.6 1273.3,1535.7 1300.0,1532.9 1326.8,1530.3 1353.5,1527.7 1380.3,1525.2 1407.2,1522.8 1434.0,1520.5 1460.8,1518.3 1487.7,1516.1 1514.6,1514.1 1541.5,1512.2 1568.3,1510.3 1595.2,1508.6 1622.1,1506.9 1649.0,1505.4 1675.8,1503.9 1702.7,1502.6 1729.5,1501.3 1756.3,1500.1 1783.1,1499.0 1809.8,1498.0 1836.5,1497.0 1863.2,1496.2 1889.9,1495.4 1916.5,1494.7 1943.1,1494.1 1969.6,1493.6 1996.0,1493.1 2022.4,1492.7  Z" style="stroke-width: 0.5;  stroke: rgb(0,0,0); fill: rgb(179,177,178);" />
<path d="M 2019.048,1559.966 A 522.500,522.500 0.00 0,1 2015.2,1587.2 L 2015.2,1587.2 1990.1,1583.0 1964.8,1579.1 1939.3,1575.4 1913.6,1571.9 1887.8,1568.6 1861.8,1565.6 1835.7,1562.9 1809.5,1560.4 1783.2,1558.2 1756.7,1556.3 1730.2,1554.7 1703.6,1553.4 1676.9,1552.4 1650.2,1551.7 1623.4,1551.4 1596.6,1551.4 1569.7,1551.7 1542.9,1552.3 1516.0,1553.3 1489.2,1554.6 1462.4,1556.2 1435.6,1558.2 1408.8,1560.4 1382.1,1563.0 1355.5,1566.0 1329.0,1569.2 1302.5,1572.8 1276.1,1576.6 1249.9,1580.8 1223.7,1585.2 1197.7,1589.9 1171.9,1594.9 1146.2,1600.2 1120.6,1605.6 1095.2,1611.4 1070.0,1617.3 1045.0,1623.5 1020.2,1629.8 995.6,1636.4  A 522.500,522.500 0.00 0,1 989.1,1609.7 L 989.1,1609.7 1014.4,1604.4 1039.7,1599.2 1065.3,1594.1 1091.0,1589.3 1116.8,1584.6 1142.7,1580.1 1168.8,1575.8 1195.0,1571.6 1221.3,1567.7 1247.7,1564.0 1274.2,1560.6 1300.8,1557.3 1327.5,1554.3 1354.2,1551.5 1381.0,1549.0 1407.8,1546.7 1434.7,1544.7 1461.6,1542.9 1488.5,1541.3 1515.4,1540.0 1542.4,1539.0 1569.3,1538.2 1596.3,1537.6 1623.2,1537.3 1650.1,1537.3 1677.0,1537.4 1703.8,1537.9 1730.6,1538.5 1757.3,1539.5 1783.9,1540.6 1810.5,1541.9 1836.9,1543.5 1863.3,1545.3 1889.6,1547.3 1915.7,1549.5 1941.8,1551.8 1967.7,1554.4 1993.4,1557.1 2019.0,1560.0  Z" style="stroke-width: 0.5;  stroke: rgb(0,0,0); fill: rgb(179,177,178);" />
<path d="M 1604.025,987.960 A 522.500,522.500 0.00 0,1 1629.5,993.8 L 1629.5,993.8 1623.9,1014.7 1617.7,1035.5 1611.0,1056.2 1603.7,1076.6 1595.8,1096.6 1587.3,1116.3 1578.2,1135.4 1568.5,1153.9 1558.2,1171.8 1547.2,1189.0 1535.6,1205.4 1523.5,1220.9 1510.7,1235.6 1497.3,1249.3 1483.3,1262.1 1468.7,1273.8 1453.6,1284.6 1438.0,1294.2 1421.8,1302.8 1405.1,1310.3 1387.9,1316.6 1370.2,1321.9 1352.2,1326.0 1333.7,1329.0 1314.9,1331.0 1295.7,1331.8 1276.3,1331.6 1256.6,1330.3 1236.6,1328.0 1216.5,1324.7 1196.3,1320.5 1176.0,1315.4 1155.7,1309.4 1135.4,1302.7 1115.2,1295.2 1095.1,1287.1 1075.2,1278.3 1055.6,1269.0 1036.3,1259.3  A 522.500,522.500 0.00 0,1 1048.9,1236.4 L 1048.9,1236.4 1067.5,1247.0 1086.4,1257.2 1105.6,1266.8 1124.9,1275.8 1144.4,1284.2 1164.0,1291.8 1183.5,1298.6 1203.0,1304.6 1222.5,1309.7 1241.7,1313.7 1260.8,1316.8 1279.7,1318.9 1298.3,1319.8 1316.5,1319.7 1334.4,1318.4 1352.0,1316.0 1369.1,1312.4 1385.7,1307.7 1401.9,1301.9 1417.6,1294.9 1432.8,1286.7 1447.4,1277.4 1461.4,1267.0 1474.9,1255.6 1487.8,1243.0 1500.0,1229.5 1511.7,1215.0 1522.7,1199.6 1533.2,1183.3 1543.0,1166.2 1552.1,1148.4 1560.7,1129.8 1568.6,1110.7 1576.0,1091.0 1582.7,1070.9 1588.9,1050.5 1594.5,1029.8 1599.5,1008.9 1604.0,988.0  Z" style="stroke-width: 0.5;  stroke: rgb(0,0,0); fill: rgb(179,177,178);" />
<path d="M 1959.176,1749.326 A 522.500,522.500 0.00 0,1 1946.3,1771.7 L 1946.3,1771.7 1926.2,1759.7 1905.6,1748.0 1884.6,1736.7 1863.2,1725.7 1841.4,1715.3 1819.3,1705.3 1796.9,1695.9 1774.2,1687.0 1751.2,1678.8 1728.0,1671.2 1704.6,1664.3 1680.9,1658.0 1657.1,1652.5 1633.1,1647.7 1609.0,1643.7 1584.7,1640.4 1560.4,1637.9 1536.1,1636.2 1511.7,1635.3 1487.2,1635.2 1462.8,1635.9 1438.4,1637.4 1414.1,1639.7 1389.8,1642.8 1365.7,1646.6 1341.7,1651.2 1317.8,1656.5 1294.1,1662.6 1270.6,1669.3 1247.3,1676.7 1224.3,1684.8 1201.5,1693.4 1179.0,1702.7 1156.8,1712.5 1135.0,1722.7 1113.5,1733.5 1092.4,1744.6 1071.7,1756.1 1051.5,1768.0  A 522.500,522.500 0.00 0,1 1038.8,1745.5 L 1038.8,1745.5 1059.8,1734.5 1081.3,1723.9 1103.2,1713.6 1125.4,1703.7 1147.9,1694.2 1170.8,1685.2 1194.0,1676.7 1217.4,1668.7 1241.1,1661.3 1265.0,1654.5 1289.2,1648.3 1313.5,1642.8 1338.0,1637.9 1362.6,1633.7 1387.3,1630.2 1412.1,1627.4 1437.0,1625.3 1462.0,1624.0 1487.0,1623.3 1512.0,1623.4 1537.0,1624.3 1561.9,1625.8 1586.8,1628.1 1611.6,1631.1 1636.3,1634.8 1660.9,1639.2 1685.3,1644.3 1709.6,1650.1 1733.7,1656.5 1757.5,1663.5 1781.2,1671.1 1804.5,1679.2 1827.6,1687.9 1850.4,1697.1 1872.9,1706.8 1895.1,1716.9 1916.8,1727.4 1938.2,1738.2 1959.2,1749.3  Z" style="stroke-width: 0.5;  stroke: rgb(0,0,0); fill: rgb(179,177,178);" />
<path d="M 1999.607,1347.031 A 522.500,522.500 0.00 0,1 2005.2,1366.5 L 2005.2,1366.5 1979.6,1373.2 1954.0,1379.9 1928.3,1386.5 1902.6,1393.1 1876.8,1399.6 1850.9,1406.0 1825.0,1412.4 1799.0,1418.7 1772.9,1424.9 1746.8,1431.0 1720.7,1437.1 1694.5,1443.0 1668.3,1448.9 1642.0,1454.8 1615.7,1460.5 1589.4,1466.1 1563.0,1471.7 1536.7,1477.1 1510.2,1482.5 1483.8,1487.8 1457.4,1492.9 1430.9,1498.0 1404.4,1503.0 1378.0,1507.9 1351.5,1512.7 1325.0,1517.4 1298.5,1522.0 1272.1,1526.6 1245.6,1531.0 1219.1,1535.3 1192.7,1539.6 1166.3,1543.7 1139.9,1547.8 1113.5,1551.8 1087.2,1555.7 1060.9,1559.5 1034.7,1563.3 1008.5,1567.0 982.3,1570.6  A 522.500,522.500 0.00 0,1 979.9,1550.4 L 979.9,1550.4 1006.0,1547.8 1032.1,1545.1 1058.3,1542.3 1084.5,1539.4 1110.9,1536.3 1137.2,1533.1 1163.6,1529.8 1190.1,1526.3 1216.5,1522.7 1243.0,1518.9 1269.6,1515.0 1296.1,1510.9 1322.7,1506.7 1349.2,1502.4 1375.8,1497.9 1402.3,1493.2 1428.9,1488.4 1455.4,1483.4 1481.9,1478.3 1508.4,1473.0 1534.8,1467.6 1561.2,1462.0 1587.6,1456.2 1613.9,1450.4 1640.1,1444.3 1666.3,1438.2 1692.5,1431.9 1718.5,1425.5 1744.5,1418.9 1770.5,1412.2 1796.3,1405.4 1822.1,1398.4 1847.7,1391.4 1873.3,1384.2 1898.8,1377.0 1924.2,1369.6 1949.4,1362.2 1974.6,1354.6 1999.6,1347.0  Z" style="stroke-width: 0.5;  stroke: rgb(0,0,0); fill: rgb(179,177,178);" />
<path d="M 1689.132,1012.932 A 522.500,522.500 0.00 0,1 1705.4,1019.6 L 1705.4,1019.6 1696.4,1040.0 1686.8,1060.3 1676.7,1080.5 1665.9,1100.4 1654.6,1120.0 1642.6,1139.3 1630.1,1158.0 1617.0,1176.3 1603.3,1193.9 1589.0,1211.0 1574.2,1227.3 1558.8,1242.9 1542.8,1257.8 1526.3,1271.8 1509.2,1285.0 1491.7,1297.3 1473.6,1308.7 1455.0,1319.2 1436.0,1328.8 1416.6,1337.4 1396.7,1345.0 1376.5,1351.6 1355.9,1357.3 1334.9,1362.0 1313.7,1365.7 1292.2,1368.4 1270.5,1370.2 1248.5,1371.1 1226.4,1371.0 1204.2,1370.1 1182.0,1368.3 1159.6,1365.7 1137.3,1362.3 1115.1,1358.2 1093.0,1353.3 1071.0,1347.9 1049.3,1341.8 1027.8,1335.1 1006.6,1328.1  A 522.500,522.500 0.00 0,1 1012.8,1311.2 L 1012.8,1311.2 1033.6,1319.0 1054.6,1326.2 1076.0,1333.0 1097.5,1339.1 1119.3,1344.6 1141.1,1349.4 1163.0,1353.4 1184.8,1356.7 1206.7,1359.0 1228.4,1360.5 1250.1,1361.1 1271.5,1360.8 1292.8,1359.5 1313.8,1357.2 1334.6,1353.9 1355.0,1349.6 1375.1,1344.3 1394.8,1338.0 1414.1,1330.7 1432.9,1322.4 1451.4,1313.1 1469.3,1302.8 1486.8,1291.5 1503.7,1279.3 1520.1,1266.2 1536.0,1252.2 1551.3,1237.4 1566.0,1221.8 1580.1,1205.4 1593.7,1188.4 1606.7,1170.6 1619.1,1152.3 1630.8,1133.4 1642.0,1114.1 1652.6,1094.3 1662.6,1074.3 1672.0,1054.0 1680.9,1033.5 1689.1,1012.9  Z" style="stroke-width: 0.5;  stroke: rgb(0,0,0); fill: rgb(179,177,178);" />
<path d="M 1706.074,1019.855 A 522.500,522.500 0.00 0,1 1721.2,1026.6 L 1721.2,1026.6 1711.5,1046.8 1701.2,1067.0 1690.3,1086.9 1678.8,1106.6 1666.8,1126.0 1654.2,1144.9 1641.0,1163.5 1627.2,1181.5 1612.9,1198.9 1598.0,1215.7 1582.5,1231.8 1566.5,1247.3 1549.9,1261.9 1532.8,1275.8 1515.2,1288.8 1497.1,1300.9 1478.6,1312.2 1459.5,1322.6 1440.1,1332.0 1420.2,1340.5 1399.9,1348.0 1379.2,1354.6 1358.3,1360.2 1337.0,1364.9 1315.4,1368.6 1293.6,1371.3 1271.5,1373.1 1249.3,1374.0 1227.0,1374.0 1204.5,1373.2 1182.0,1371.5 1159.5,1369.0 1137.0,1365.7 1114.5,1361.6 1092.2,1356.9 1070.1,1351.6 1048.2,1345.6 1026.5,1339.1 1005.2,1332.2  A 522.500,522.500 0.00 0,1 1010.8,1316.5 L 1010.8,1316.5 1031.7,1324.1 1053.0,1331.2 1074.5,1337.8 1096.3,1343.7 1118.2,1349.1 1140.3,1353.7 1162.4,1357.6 1184.5,1360.6 1206.6,1362.9 1228.7,1364.3 1250.6,1364.8 1272.4,1364.3 1294.0,1363.0 1315.4,1360.6 1336.5,1357.3 1357.4,1353.0 1377.9,1347.7 1398.0,1341.4 1417.8,1334.2 1437.2,1325.9 1456.1,1316.7 1474.6,1306.5 1492.6,1295.3 1510.1,1283.3 1527.1,1270.3 1543.6,1256.5 1559.5,1241.8 1574.9,1226.4 1589.7,1210.2 1604.0,1193.3 1617.7,1175.8 1630.8,1157.7 1643.3,1139.1 1655.2,1119.9 1666.5,1100.4 1677.3,1080.6 1687.5,1060.5 1697.0,1040.2 1706.1,1019.9  Z" style="stroke-width: 0.5;  stroke: rgb(0,0,0); fill: rgb(179,177,178);" />
<path d="M 2009.028,1617.886 A 522.500,522.500 0.00 0,1 2005.1,1633.9 L 2005.1,1633.9 1980.8,1627.6 1956.3,1621.5 1931.6,1615.7 1906.6,1610.2 1881.4,1605.0 1856.1,1600.1 1830.5,1595.5 1804.8,1591.2 1778.9,1587.4 1752.9,1583.8 1726.8,1580.7 1700.5,1577.9 1674.2,1575.5 1647.7,1573.6 1621.2,1572.0 1594.7,1570.9 1568.1,1570.2 1541.4,1569.9 1514.8,1570.0 1488.2,1570.6 1461.6,1571.6 1435.0,1573.0 1408.4,1574.9 1382.0,1577.1 1355.5,1579.8 1329.2,1582.9 1303.0,1586.4 1276.9,1590.3 1250.9,1594.5 1225.1,1599.2 1199.4,1604.1 1173.8,1609.5 1148.5,1615.2 1123.4,1621.2 1098.4,1627.5 1073.7,1634.0 1049.3,1640.9 1025.1,1648.0 1001.1,1655.3  A 522.500,522.500 0.00 0,1 996.5,1639.5 L 996.5,1639.5 1020.8,1632.9 1045.4,1626.4 1070.2,1620.3 1095.3,1614.3 1120.5,1608.6 1145.9,1603.2 1171.5,1598.1 1197.3,1593.2 1223.2,1588.7 1249.2,1584.5 1275.4,1580.7 1301.7,1577.1 1328.1,1574.0 1354.6,1571.1 1381.2,1568.7 1407.8,1566.6 1434.5,1564.9 1461.2,1563.6 1487.9,1562.6 1514.7,1562.1 1541.5,1561.9 1568.2,1562.1 1595.0,1562.6 1621.7,1563.6 1648.3,1564.9 1674.9,1566.6 1701.4,1568.6 1727.8,1571.0 1754.1,1573.8 1780.3,1576.8 1806.4,1580.3 1832.4,1584.0 1858.2,1588.0 1883.8,1592.4 1909.2,1597.0 1934.5,1601.8 1959.6,1607.0 1984.4,1612.3 2009.0,1617.9  Z" style="stroke-width: 0.5;  stroke: rgb(0,0,0); fill: rgb(179,177,178);" />
<path d="M 1500.000,977.500 A 522.500,522.500 0.00 0,1 1506.2,977.5 L 1506.2,977.5 1505.7,998.4 1504.8,1019.3 1503.3,1040.0 1501.4,1060.5 1498.9,1080.6 1495.8,1100.2 1492.1,1119.4 1487.8,1137.8 1482.8,1155.6 1477.2,1172.6 1470.9,1188.7 1463.9,1203.9 1456.3,1218.1 1447.9,1231.3 1438.9,1243.4 1429.2,1254.3 1418.9,1264.2 1407.9,1272.8 1396.2,1280.3 1383.9,1286.5 1371.0,1291.5 1357.5,1295.3 1343.5,1297.8 1328.9,1299.2 1313.8,1299.3 1298.3,1298.3 1282.3,1296.0 1265.9,1292.7 1249.2,1288.3 1232.2,1282.8 1214.9,1276.3 1197.5,1268.9 1179.8,1260.6 1162.2,1251.5 1144.4,1241.6 1126.8,1231.1 1109.2,1220.0 1091.8,1208.5 1074.7,1196.5  A 522.500,522.500 0.00 0,1 1083.1,1185.0 L 1083.1,1185.0 1099.9,1197.4 1116.9,1209.4 1134.0,1220.9 1151.3,1231.9 1168.6,1242.2 1185.9,1251.8 1203.1,1260.6 1220.2,1268.4 1237.0,1275.4 1253.6,1281.3 1269.9,1286.2 1285.9,1290.0 1301.4,1292.6 1316.6,1294.1 1331.2,1294.3 1345.4,1293.4 1359.0,1291.2 1372.1,1287.8 1384.6,1283.1 1396.5,1277.2 1407.8,1270.0 1418.4,1261.7 1428.3,1252.1 1437.6,1241.4 1446.3,1229.5 1454.2,1216.5 1461.5,1202.5 1468.1,1187.5 1474.0,1171.6 1479.3,1154.8 1483.9,1137.1 1487.9,1118.8 1491.3,1099.8 1494.1,1080.2 1496.3,1060.2 1498.0,1039.8 1499.1,1019.1 1499.8,998.3 1500.0,977.5  Z" style="stroke-width: 0.5;  stroke: rgb(0,0,0); fill: rgb(179,177,178);" />
<path d="M 1950.444,1235.224 A 522.500,522.500 0.00 0,1 1955.5,1244.0 L 1955.5,1244.0 1933.5,1256.2 1911.3,1268.2 1888.7,1280.0 1865.9,1291.7 1842.8,1303.1 1819.5,1314.3 1795.9,1325.2 1772.0,1335.9 1748.0,1346.2 1723.7,1356.3 1699.1,1366.0 1674.4,1375.4 1649.5,1384.4 1624.4,1393.1 1599.2,1401.5 1573.8,1409.4 1548.2,1417.0 1522.5,1424.2 1496.7,1430.9 1470.8,1437.3 1444.8,1443.3 1418.7,1448.9 1392.6,1454.1 1366.4,1458.8 1340.2,1463.2 1313.9,1467.1 1287.7,1470.7 1261.4,1473.9 1235.2,1476.6 1209.0,1479.0 1182.8,1481.0 1156.8,1482.7 1130.8,1484.0 1104.9,1484.9 1079.2,1485.5 1053.6,1485.8 1028.1,1485.8 1002.8,1485.5 977.7,1484.9  A 522.500,522.500 0.00 0,1 978.1,1474.7 L 978.1,1474.7 1003.1,1475.8 1028.2,1476.6 1053.6,1477.0 1079.1,1477.2 1104.8,1477.0 1130.6,1476.4 1156.5,1475.5 1182.4,1474.2 1208.5,1472.5 1234.6,1470.4 1260.8,1467.9 1287.0,1465.0 1313.2,1461.6 1339.4,1457.9 1365.6,1453.7 1391.7,1449.0 1417.8,1444.0 1443.8,1438.5 1469.7,1432.6 1495.5,1426.2 1521.2,1419.4 1546.8,1412.2 1572.2,1404.6 1597.5,1396.5 1622.7,1388.1 1647.6,1379.3 1672.4,1370.1 1696.9,1360.5 1721.3,1350.5 1745.4,1340.3 1769.2,1329.7 1792.9,1318.7 1816.2,1307.5 1839.3,1296.0 1862.1,1284.3 1884.7,1272.3 1906.9,1260.1 1928.8,1247.8 1950.4,1235.2  Z" style="stroke-width: 0.5;  stroke: rgb(0,0,0); fill: rgb(179,177,178);" />
<path d="M 1912.735,1179.601 A 522.500,522.500 0.00 0,1 1918.2,1186.8 L 1918.2,1186.8 1898.5,1201.3 1878.5,1215.6 1858.0,1229.7 1837.2,1243.6 1816.0,1257.2 1794.5,1270.5 1772.6,1283.4 1750.4,1296.0 1727.8,1308.2 1705.0,1320.0 1681.8,1331.3 1658.4,1342.3 1634.7,1352.7 1610.8,1362.6 1586.6,1372.1 1562.2,1381.0 1537.6,1389.5 1512.7,1397.3 1487.8,1404.7 1462.6,1411.4 1437.3,1417.7 1411.9,1423.3 1386.4,1428.5 1360.8,1433.0 1335.2,1437.0 1309.5,1440.5 1283.7,1443.4 1258.0,1445.7 1232.3,1447.5 1206.6,1448.8 1181.0,1449.6 1155.4,1449.9 1130.0,1449.8 1104.7,1449.1 1079.6,1448.0 1054.6,1446.5 1029.8,1444.6 1005.3,1442.3 981.0,1439.7  A 522.500,522.500 0.00 0,1 982.1,1430.7 L 982.1,1430.7 1006.3,1433.7 1030.7,1436.4 1055.3,1438.7 1080.1,1440.6 1105.2,1442.0 1130.3,1443.0 1155.7,1443.5 1181.1,1443.5 1206.6,1443.0 1232.2,1442.0 1257.8,1440.4 1283.4,1438.2 1309.1,1435.6 1334.7,1432.3 1360.2,1428.4 1385.7,1424.0 1411.1,1419.0 1436.4,1413.4 1461.6,1407.3 1486.6,1400.5 1511.4,1393.2 1536.1,1385.3 1560.6,1376.8 1584.8,1367.9 1608.8,1358.3 1632.6,1348.3 1656.1,1337.7 1679.3,1326.7 1702.3,1315.1 1724.9,1303.2 1747.2,1290.8 1769.2,1278.0 1790.8,1264.8 1812.1,1251.3 1833.0,1237.4 1853.5,1223.3 1873.7,1209.0 1893.4,1194.4 1912.7,1179.6  Z" style="stroke-width: 0.5;  stroke: rgb(0,0,0); fill: rgb(179,177,178);" />
<path d="M 2020.264,1548.282 A 522.500,522.500 0.00 0,1 2019.5,1555.6 L 2019.5,1555.6 1993.9,1552.9 1968.1,1550.4 1942.1,1548.1 1916.0,1545.9 1889.8,1543.9 1863.5,1542.1 1837.1,1540.5 1810.6,1539.1 1784.1,1538.0 1757.4,1537.0 1730.7,1536.2 1703.9,1535.7 1677.1,1535.4 1650.2,1535.4 1623.3,1535.6 1596.4,1536.0 1569.4,1536.7 1542.5,1537.6 1515.5,1538.7 1488.6,1540.1 1461.6,1541.8 1434.7,1543.6 1407.9,1545.8 1381.0,1548.1 1354.3,1550.7 1327.5,1553.5 1300.9,1556.6 1274.3,1559.9 1247.8,1563.4 1221.4,1567.1 1195.1,1571.0 1168.9,1575.2 1142.8,1579.5 1116.8,1584.0 1090.9,1588.7 1065.2,1593.5 1039.7,1598.5 1014.3,1603.7 989.0,1609.0  A 522.500,522.500 0.00 0,1 987.5,1601.9 L 987.5,1601.9 1013.0,1597.0 1038.5,1592.1 1064.2,1587.4 1090.0,1582.8 1116.0,1578.4 1142.1,1574.2 1168.2,1570.1 1194.5,1566.2 1220.9,1562.5 1247.4,1559.0 1273.9,1555.7 1300.5,1552.5 1327.2,1549.6 1354.0,1546.9 1380.8,1544.4 1407.6,1542.1 1434.5,1540.1 1461.4,1538.2 1488.4,1536.6 1515.3,1535.2 1542.3,1534.0 1569.3,1533.1 1596.2,1532.3 1623.2,1531.8 1650.1,1531.5 1677.0,1531.5 1703.8,1531.6 1730.6,1531.9 1757.4,1532.5 1784.1,1533.2 1810.7,1534.2 1837.2,1535.4 1863.7,1536.7 1890.1,1538.2 1916.3,1539.9 1942.5,1541.8 1968.6,1543.8 1994.5,1546.0 2020.3,1548.3  Z" style="stroke-width: 0.5;  stroke: rgb(0,0,0); fill: rgb(179,177,178);" />
</g>
<g id="plot0">
<g id="plot0-axis">
</g>
<line x1='2243.6' y1='1597.9' x2='2243.6' y2='1597.9' style="stroke-width:14.0;stroke:rgb(0,0,0);stroke-linecap:round;fill:none;" />
<line x1='2243.6' y1='1597.9' x2='2283.2' y2='1603.1' style="stroke-width:14.0;stroke:rgb(0,0,0);stroke-linecap:round;fill:none;" />
<line x1='2283.2' y1='1603.1' x2='2283.2' y2='1603.1' style="stroke-width:14.0;stroke:rgb(0,0,0);stroke-linecap:round;fill:none;" />
<text x="2299.8" y="1628.0" font-size="46.8px" font-family="CMUBright-Roman" style="text-anchor:start;fill:rgb(255,38,78);" transform="rotate(7.5,2299.8,1628.0)" >HistocapCB065<tspan baseline-shift="-40%" font-size="90%">s</tspan>00238</text>
</g>
<defs>
<pattern id="hline-sparse" width="10" height="10" patternTransform="rotate(0 0 0)" patternUnits="userSpaceOnUse"><line x1="0" y1="0" x2="10" y2="0" style="stroke:black;stroke-width:2" /></pattern>
<pattern id="hline" width="10" height="10" patternTransform="rotate(0 0 0)" patternUnits="userSpaceOnUse"><line x1="0" y1="0" x2="10" y2="0" style="stroke:black;stroke-width:5" /></pattern>
<pattern id="checker" width="10" height="10" patternTransform="rotate(45 0 0)" patternUnits="userSpaceOnUse"><line x1="0" y1="0" x2="10" y2="0" style="stroke:black;stroke-width:5" /><line x1="0" y1="0" x2="0" y2="10" style="stroke:black;stroke-width:4" /></pattern>
<pattern id="checker" width="10" height="10" patternTransform="rotate(45 0 0)" patternUnits="userSpaceOnUse"><line x1="0" y1="0" x2="10" y2="0" style="stroke:black;stroke-width:2" /><line x1="0" y1="0" x2="0" y2="10" style="stroke:black;stroke-width:2" /></pattern>
<pattern id="vline" width="10" height="10" patternTransform="rotate(0 0 0)" patternUnits="userSpaceOnUse"><line x1="0" y1="0" x2="0" y2="10" style="stroke:black;stroke-width:5" /></pattern>
<pattern id="vline-sparse" width="10" height="10" patternTransform="rotate(0 0 0)" patternUnits="userSpaceOnUse"><line x1="0" y1="0" x2="0" y2="10" style="stroke:black;stroke-width:2" /></pattern>
</defs>
</svg>
