<?xml version="1.0" encoding="utf-8" standalone="no"?>
<!DOCTYPE svg PUBLIC "-//W3C//DTD SVG 1.1//EN" "http://www.w3.org/Graphics/SVG/1.1/DTD/svg11.dtd">
<svg width="3000px" height="3000px" version="1.1" xmlns="http://www.w3.org/2000/svg" xmlns:xlink="http://www.w3.org/1999/xlink">
<g id="bg">
<rect x="0" y="0" width="3000px" height="3000px" style="fill:rgb(255,255,255);"/>
</g>
<g id="ideograms">
<path d="M1500.000,950.000 A550.000,550.000 40.000 1,1 1185.460,1951.181 L1071.082,2115.247 A750.000,750.000 0.000 1,0 1500.000,750.000 Z" style="stroke-width:2.0;stroke:rgb(0,0,0);stroke-linecap:round;fill:rgb(179,177,178);" />
<text x="2472.2" y="1805.4" font-size="46.8px" font-family="CMUBright-Roman" style="text-anchor:middle;fill:rgb(0,0,0);" transform="rotate(-72.6,2472.2,1805.4)" >Histocap104p06<tspan baseline-shift="-40%" font-size="90%">6</tspan></text>
<line x1='1558.3' y1='752.3' x2='1559.2' y2='740.3' style="stroke-width:8.0;stroke:rgb(150,150,150);stroke-linecap:round;fill:none;" />
<line x1='1687.0' y1='773.7' x2='1689.9' y2='762.1' style="stroke-width:8.0;stroke:rgb(150,150,150);stroke-linecap:round;fill:none;" />
<line x1='1810.0' y1='817.0' x2='1814.9' y2='806.1' style="stroke-width:8.0;stroke:rgb(150,150,150);stroke-linecap:round;fill:none;" />
<line x1='1923.6' y1='881.1' x2='1930.4' y2='871.2' style="stroke-width:8.0;stroke:rgb(150,150,150);stroke-linecap:round;fill:none;" />
<text x="1948.6" y="869.3" font-size="41.6px" font-family="CMUBright-Roman" style="text-anchor:start;fill:rgb(150,150,150);" transform="rotate(304.4,1948.6,869.3)" >2250 kb</text>
<line x1='2024.4' y1='963.8' x2='2032.8' y2='955.2' style="stroke-width:8.0;stroke:rgb(150,150,150);stroke-linecap:round;fill:none;" />
<line x1='2109.4' y1='1062.8' x2='2119.1' y2='1055.8' style="stroke-width:8.0;stroke:rgb(150,150,150);stroke-linecap:round;fill:none;" />
<line x1='2175.9' y1='1175.0' x2='2186.7' y2='1169.8' style="stroke-width:8.0;stroke:rgb(150,150,150);stroke-linecap:round;fill:none;" />
<line x1='2222.0' y1='1297.0' x2='2233.6' y2='1293.7' style="stroke-width:8.0;stroke:rgb(150,150,150);stroke-linecap:round;fill:none;" />
<line x1='2246.3' y1='1425.1' x2='2258.2' y2='1423.9' style="stroke-width:8.0;stroke:rgb(150,150,150);stroke-linecap:round;fill:none;" />
<text x="2271.4" y="1436.7" font-size="41.6px" font-family="CMUBright-Roman" style="text-anchor:start;fill:rgb(150,150,150);" transform="rotate(354.3,2271.4,1436.7)" >2300 kb</text>
<line x1='2247.9' y1='1555.6' x2='2259.9' y2='1556.4' style="stroke-width:8.0;stroke:rgb(150,150,150);stroke-linecap:round;fill:none;" />
<line x1='2227.0' y1='1684.3' x2='2238.6' y2='1687.2' style="stroke-width:8.0;stroke:rgb(150,150,150);stroke-linecap:round;fill:none;" />
<line x1='2184.1' y1='1807.5' x2='2195.0' y2='1812.4' style="stroke-width:8.0;stroke:rgb(150,150,150);stroke-linecap:round;fill:none;" />
<line x1='2120.5' y1='1921.3' x2='2130.4' y2='1928.1' style="stroke-width:8.0;stroke:rgb(150,150,150);stroke-linecap:round;fill:none;" />
<line x1='2038.1' y1='2022.5' x2='2046.7' y2='2030.8' style="stroke-width:8.0;stroke:rgb(150,150,150);stroke-linecap:round;fill:none;" />
<text x="2045.5" y="2049.1" font-size="41.6px" font-family="CMUBright-Roman" style="text-anchor:start;fill:rgb(150,150,150);" transform="rotate(44.2,2045.5,2049.1)" >2350 kb</text>
<line x1='1939.4' y1='2107.8' x2='1946.5' y2='2117.5' style="stroke-width:8.0;stroke:rgb(150,150,150);stroke-linecap:round;fill:none;" />
<line x1='1827.5' y1='2174.7' x2='1832.7' y2='2185.5' style="stroke-width:8.0;stroke:rgb(150,150,150);stroke-linecap:round;fill:none;" />
<line x1='1705.7' y1='2221.3' x2='1708.9' y2='2232.8' style="stroke-width:8.0;stroke:rgb(150,150,150);stroke-linecap:round;fill:none;" />
<line x1='1577.6' y1='2246.0' x2='1578.8' y2='2257.9' style="stroke-width:8.0;stroke:rgb(150,150,150);stroke-linecap:round;fill:none;" />
<line x1='1447.2' y1='2248.1' x2='1446.3' y2='2260.1' style="stroke-width:8.0;stroke:rgb(150,150,150);stroke-linecap:round;fill:none;" />
<text x="1459.5" y="2272.9" font-size="41.6px" font-family="CMUBright-Roman" style="text-anchor:end;fill:rgb(150,150,150);" transform="rotate(-86.0,1459.5,2272.9)" >2400 kb</text>
<line x1='1318.4' y1='2227.7' x2='1315.5' y2='2239.3' style="stroke-width:8.0;stroke:rgb(150,150,150);stroke-linecap:round;fill:none;" />
<line x1='1195.0' y1='2185.2' x2='1190.2' y2='2196.2' style="stroke-width:8.0;stroke:rgb(150,150,150);stroke-linecap:round;fill:none;" />
<line x1='1080.9' y1='2122.0' x2='1074.2' y2='2132.0' style="stroke-width:8.0;stroke:rgb(150,150,150);stroke-linecap:round;fill:none;" />
<g id="highlighttrack_0">
<path d="M2042.027,1593.308 A550.000,550.000 40.000 0,1 1998.003,1733.438 L2179.095,1818.324 A750.000,750.000 0.000 0,0 2239.128,1627.238 Z" style="stroke-width:14.0;stroke:rgb(0,0,0);stroke-linecap:round;fill:rgb(255,38,78);" />
</g>
<path d="M1500.000,950.000 A550.000,550.000 40.000 1,1 1185.460,1951.181 L1071.082,2115.247 A750.000,750.000 0.000 1,0 1500.000,750.000 Z" style="stroke-width:2.0;stroke:rgb(0,0,0);stroke-linecap:round;fill:none;" />
<path d="M1002.294,1734.070 A550.000,550.000 40.000 0,1 1225.580,1023.352 L1125.791,850.025 A750.000,750.000 0.000 0,0 821.310,1819.187 Z" style="stroke-width:2.0;stroke:rgb(0,0,0);stroke-linecap:round;fill:rgb(179,177,178);" />
<text x="569.8" y="1207.8" font-size="46.8px" font-family="CMUBright-Roman" style="text-anchor:middle;fill:rgb(0,0,0);" transform="rotate(-72.6,569.8,1207.8)" >HistocapHISSPCM6015<tspan baseline-shift="-40%" font-size="90%">1</tspan>5</text>
<line x1='1018.9' y1='924.7' x2='1011.2' y2='915.5' style="stroke-width:8.0;stroke:rgb(150,150,150);stroke-linecap:round;fill:none;" />
<line x1='926.5' y1='1016.7' x2='917.3' y2='1009.0' style="stroke-width:8.0;stroke:rgb(150,150,150);stroke-linecap:round;fill:none;" />
<line x1='851.4' y1='1123.4' x2='841.0' y2='1117.4' style="stroke-width:8.0;stroke:rgb(150,150,150);stroke-linecap:round;fill:none;" />
<line x1='796.0' y1='1241.5' x2='784.7' y2='1237.3' style="stroke-width:8.0;stroke:rgb(150,150,150);stroke-linecap:round;fill:none;" />
<line x1='761.8' y1='1367.4' x2='750.0' y2='1365.2' style="stroke-width:8.0;stroke:rgb(150,150,150);stroke-linecap:round;fill:none;" />
<text x="735.9" y="1376.9" font-size="41.6px" font-family="CMUBright-Roman" style="text-anchor:end;fill:rgb(150,150,150);" transform="rotate(10.2,735.9,1376.9)" >50 kb</text>
<line x1='750.0' y1='1497.2' x2='738.0' y2='1497.2' style="stroke-width:8.0;stroke:rgb(150,150,150);stroke-linecap:round;fill:none;" />
<line x1='760.9' y1='1627.2' x2='749.0' y2='1629.3' style="stroke-width:8.0;stroke:rgb(150,150,150);stroke-linecap:round;fill:none;" />
<line x1='794.1' y1='1753.4' x2='782.8' y2='1757.4' style="stroke-width:8.0;stroke:rgb(150,150,150);stroke-linecap:round;fill:none;" />
<path d="M1002.294,1734.070 A550.000,550.000 40.000 0,1 1225.580,1023.352 L1125.791,850.025 A750.000,750.000 0.000 0,0 821.310,1819.187 Z" style="stroke-width:2.0;stroke:rgb(0,0,0);stroke-linecap:round;fill:none;" />
</g>
<g id="track_0">
<path d="M 1953.553,1759.415 A 522.500,522.500 0.00 0,1 1869.8,1869.2 L 1869.8,1869.2 1853.3,1853.0 1836.3,1837.1 1818.8,1821.5 1800.8,1806.3 1782.4,1791.5 1763.5,1777.1 1744.1,1763.3 1724.4,1750.0 1704.3,1737.3 1683.8,1725.3 1662.9,1713.9 1641.7,1703.3 1620.2,1693.4 1598.4,1684.3 1576.3,1676.1 1553.9,1668.6 1531.3,1661.9 1508.5,1656.2 1485.5,1651.2 1462.3,1647.2 1439.0,1644.0 1415.6,1641.7 1392.1,1640.3 1368.5,1639.7 1344.9,1640.0 1321.3,1641.2 1297.7,1643.2 1274.1,1646.0 1250.7,1649.6 1227.3,1653.9 1204.1,1659.0 1181.0,1664.8 1158.1,1671.3 1135.5,1678.4 1113.1,1686.1 1091.0,1694.3 1069.3,1703.0 1047.9,1712.2 1026.9,1721.8  A 522.500,522.500 0.00 0,1 985.4,1590.4 L 985.4,1590.4 1009.7,1586.3 1034.2,1582.5 1059.0,1579.1 1084.0,1576.0 1109.2,1573.3 1134.6,1571.0 1160.2,1569.1 1185.9,1567.6 1211.7,1566.6 1237.6,1566.0 1263.6,1566.0 1289.6,1566.4 1315.7,1567.3 1341.8,1568.7 1367.9,1570.6 1394.0,1573.1 1420.1,1576.0 1446.1,1579.5 1472.1,1583.5 1498.0,1588.0 1523.7,1593.1 1549.4,1598.6 1574.9,1604.7 1600.3,1611.2 1625.6,1618.2 1650.6,1625.8 1675.5,1633.7 1700.1,1642.2 1724.5,1651.0 1748.7,1660.3 1772.7,1670.0 1796.3,1680.1 1819.7,1690.5 1842.8,1701.3 1865.6,1712.4 1888.1,1723.8 1910.3,1735.5 1932.1,1747.3 1953.6,1759.4  Z" style="stroke-width: 0.5;  stroke: rgb(0,0,0); fill: rgb(179,177,178);" />
<path d="M 1957.089,1246.869 A 522.500,522.500 0.00 0,1 1996.8,1338.0 L 1996.8,1338.0 1973.4,1345.4 1949.7,1352.6 1925.7,1359.4 1901.5,1365.9 1877.0,1372.1 1852.2,1377.8 1827.3,1383.2 1802.1,1388.1 1776.8,1392.5 1751.3,1396.5 1725.6,1400.0 1699.9,1403.0 1674.0,1405.5 1648.0,1407.5 1622.0,1409.0 1595.9,1409.9 1569.8,1410.2 1543.7,1410.1 1517.5,1409.3 1491.4,1408.1 1465.3,1406.2 1439.3,1403.9 1413.3,1401.0 1387.4,1397.5 1361.7,1393.5 1336.0,1389.0 1310.5,1384.0 1285.2,1378.5 1260.0,1372.5 1235.0,1366.1 1210.2,1359.2 1185.7,1351.8 1161.3,1344.1 1137.3,1336.0 1113.5,1327.5 1090.0,1318.6 1066.8,1309.5 1043.9,1300.1 1021.4,1290.4  A 522.500,522.500 0.00 0,1 1069.8,1203.5 L 1069.8,1203.5 1089.2,1216.5 1109.0,1229.3 1129.3,1241.8 1150.0,1253.8 1171.1,1265.4 1192.5,1276.5 1214.3,1287.1 1236.4,1297.1 1258.8,1306.6 1281.5,1315.3 1304.5,1323.4 1327.6,1330.8 1351.0,1337.5 1374.6,1343.4 1398.4,1348.6 1422.3,1353.0 1446.3,1356.6 1470.4,1359.4 1494.6,1361.4 1518.9,1362.6 1543.1,1363.0 1567.4,1362.6 1591.7,1361.3 1615.9,1359.3 1640.1,1356.4 1664.1,1352.8 1688.0,1348.5 1711.8,1343.4 1735.5,1337.5 1758.9,1331.0 1782.1,1323.8 1805.1,1316.0 1827.8,1307.6 1850.3,1298.7 1872.4,1289.2 1894.1,1279.2 1915.5,1268.8 1936.5,1258.0 1957.1,1246.9  Z" style="stroke-width: 0.5;  stroke: rgb(0,0,0); fill: rgb(179,177,178);" />
<path d="M 2004.812,1365.200 A 522.500,522.500 0.00 0,1 2021.1,1461.2 L 2021.1,1461.2 1995.2,1463.1 1969.1,1464.8 1943.0,1466.4 1916.8,1467.8 1890.4,1469.1 1864.0,1470.2 1837.5,1471.2 1810.9,1471.9 1784.3,1472.5 1757.5,1472.9 1730.8,1473.1 1703.9,1473.1 1677.1,1473.0 1650.2,1472.6 1623.3,1472.0 1596.3,1471.3 1569.4,1470.3 1542.4,1469.1 1515.4,1467.7 1488.5,1466.1 1461.5,1464.3 1434.6,1462.3 1407.7,1460.1 1380.9,1457.7 1354.1,1455.1 1327.3,1452.3 1300.6,1449.3 1274.0,1446.1 1247.4,1442.8 1221.0,1439.2 1194.6,1435.5 1168.2,1431.6 1142.0,1427.5 1115.9,1423.3 1089.9,1419.0 1064.0,1414.4 1038.3,1409.8 1012.6,1405.0 987.1,1400.1  A 522.500,522.500 0.00 0,1 1014.4,1307.0 L 1014.4,1307.0 1037.5,1316.0 1060.9,1324.8 1084.6,1333.4 1108.6,1341.6 1132.9,1349.5 1157.4,1357.1 1182.1,1364.4 1207.0,1371.3 1232.2,1377.8 1257.5,1384.0 1283.0,1389.7 1308.7,1394.9 1334.5,1399.8 1360.4,1404.2 1386.5,1408.1 1412.6,1411.6 1438.9,1414.6 1465.2,1417.1 1491.5,1419.1 1517.9,1420.7 1544.3,1421.7 1570.7,1422.3 1597.1,1422.4 1623.5,1422.0 1649.8,1421.2 1676.1,1419.9 1702.3,1418.1 1728.4,1415.8 1754.4,1413.1 1780.3,1410.0 1806.0,1406.5 1831.6,1402.6 1857.0,1398.2 1882.2,1393.5 1907.2,1388.5 1932.0,1383.1 1956.5,1377.4 1980.8,1371.4 2004.8,1365.2  Z" style="stroke-width: 0.5;  stroke: rgb(0,0,0); fill: rgb(179,177,178);" />
<path d="M 1901.189,1165.256 A 522.500,522.500 0.00 0,1 1955.5,1244.1 L 1955.5,1244.1 1935.0,1255.3 1914.1,1266.2 1892.8,1276.7 1871.1,1286.8 1849.1,1296.4 1826.7,1305.5 1804.1,1314.0 1781.2,1322.0 1758.0,1329.3 1734.6,1335.9 1711.1,1341.8 1687.3,1347.0 1663.4,1351.5 1639.4,1355.2 1615.3,1358.1 1591.2,1360.3 1566.9,1361.6 1542.7,1362.1 1518.5,1361.8 1494.3,1360.7 1470.1,1358.8 1446.0,1356.1 1422.0,1352.5 1398.1,1348.2 1374.4,1343.1 1350.8,1337.2 1327.5,1330.5 1304.3,1323.2 1281.4,1315.1 1258.7,1306.4 1236.3,1297.0 1214.2,1287.0 1192.4,1276.4 1171.0,1265.4 1149.9,1253.8 1129.3,1241.7 1109.0,1229.3 1089.2,1216.5 1069.8,1203.5  A 522.500,522.500 0.00 0,1 1131.4,1129.6 L 1131.4,1129.6 1147.4,1145.3 1163.9,1160.7 1180.8,1175.7 1198.2,1190.3 1216.1,1204.4 1234.3,1217.9 1252.9,1230.8 1271.9,1242.9 1291.2,1254.4 1310.9,1265.0 1330.8,1274.8 1351.0,1283.7 1371.4,1291.8 1392.1,1298.8 1412.9,1304.9 1433.9,1310.0 1455.0,1314.1 1476.3,1317.2 1497.6,1319.2 1519.0,1320.2 1540.5,1320.2 1561.9,1319.1 1583.4,1317.0 1604.7,1313.8 1626.0,1309.7 1647.3,1304.5 1668.3,1298.4 1689.3,1291.4 1710.0,1283.5 1730.6,1274.7 1750.9,1265.1 1770.9,1254.7 1790.6,1243.6 1810.0,1231.9 1829.1,1219.5 1847.8,1206.6 1866.0,1193.2 1883.8,1179.4 1901.2,1165.3  Z" style="stroke-width: 0.5;  stroke: rgb(0,0,0); fill: rgb(179,177,178);" />
<path d="M 1842.904,1105.762 A 522.500,522.500 0.00 0,1 1881.0,1142.4 L 1881.0,1142.4 1864.7,1157.3 1847.9,1171.9 1830.7,1186.1 1813.1,1199.9 1795.1,1213.0 1776.7,1225.6 1758.0,1237.4 1739.0,1248.5 1719.8,1258.8 1700.3,1268.2 1680.6,1276.7 1660.7,1284.3 1640.6,1290.9 1620.5,1296.5 1600.2,1301.0 1579.9,1304.5 1559.5,1306.9 1539.1,1308.2 1518.7,1308.4 1498.3,1307.5 1478.0,1305.5 1457.8,1302.4 1437.7,1298.2 1417.7,1293.0 1398.0,1286.6 1378.4,1279.3 1359.0,1271.0 1339.8,1261.7 1321.0,1251.4 1302.4,1240.3 1284.1,1228.4 1266.2,1215.6 1248.6,1202.2 1231.4,1188.1 1214.6,1173.4 1198.3,1158.2 1182.4,1142.5 1167.0,1126.5 1152.1,1110.2  A 522.500,522.500 0.00 0,1 1192.9,1077.3 L 1192.9,1077.3 1205.8,1094.6 1219.2,1111.7 1233.1,1128.4 1247.4,1144.7 1262.2,1160.5 1277.3,1175.6 1292.8,1190.0 1308.7,1203.7 1324.9,1216.5 1341.4,1228.4 1358.2,1239.4 1375.3,1249.3 1392.6,1258.3 1410.1,1266.1 1427.9,1272.8 1445.7,1278.4 1463.8,1282.8 1481.9,1286.0 1500.1,1288.0 1518.4,1288.8 1536.8,1288.4 1555.1,1286.8 1573.4,1284.0 1591.7,1280.0 1610.0,1274.9 1628.1,1268.6 1646.1,1261.2 1664.0,1252.8 1681.7,1243.3 1699.2,1232.9 1716.5,1221.5 1733.5,1209.3 1750.2,1196.3 1766.6,1182.6 1782.7,1168.2 1798.4,1153.2 1813.7,1137.8 1828.5,1121.9 1842.9,1105.8  Z" style="stroke-width: 0.5;  stroke: rgb(0,0,0); fill: rgb(179,177,178);" />
<path d="M 2020.547,1545.136 A 522.500,522.500 0.00 0,1 2014.9,1588.7 L 2014.9,1588.7 1989.3,1584.4 1963.6,1580.1 1937.7,1576.1 1911.7,1572.1 1885.7,1568.3 1859.5,1564.7 1833.2,1561.2 1806.8,1557.8 1780.3,1554.7 1753.7,1551.7 1727.1,1548.9 1700.4,1546.3 1673.6,1543.9 1646.8,1541.7 1620.0,1539.7 1593.1,1537.8 1566.2,1536.2 1539.2,1534.8 1512.2,1533.6 1485.3,1532.6 1458.3,1531.7 1431.3,1531.1 1404.3,1530.7 1377.4,1530.5 1350.4,1530.6 1323.5,1530.8 1296.7,1531.2 1269.9,1531.8 1243.1,1532.5 1216.4,1533.5 1189.8,1534.7 1163.2,1536.0 1136.7,1537.5 1110.3,1539.2 1084.0,1541.0 1057.8,1543.0 1031.7,1545.1 1005.7,1547.4 979.9,1549.8  A 522.500,522.500 0.00 0,1 977.5,1505.8 L 977.5,1505.8 1004.0,1505.5 1030.6,1505.3 1057.1,1505.1 1083.8,1505.0 1110.4,1505.0 1137.1,1505.0 1163.8,1505.1 1190.6,1505.2 1217.4,1505.4 1244.2,1505.7 1271.0,1506.1 1297.8,1506.5 1324.7,1507.0 1351.6,1507.6 1378.5,1508.2 1405.4,1508.9 1432.3,1509.7 1459.2,1510.6 1486.1,1511.5 1513.0,1512.5 1539.9,1513.6 1566.8,1514.8 1593.7,1516.0 1620.6,1517.3 1647.4,1518.7 1674.3,1520.2 1701.1,1521.7 1727.9,1523.3 1754.7,1525.0 1781.4,1526.7 1808.1,1528.5 1834.8,1530.4 1861.5,1532.3 1888.1,1534.3 1914.7,1536.4 1941.2,1538.5 1967.7,1540.7 1994.2,1542.9 2020.5,1545.1  Z" style="stroke-width: 0.5;  stroke: rgb(0,0,0); fill: rgb(179,177,178);" />
<path d="M 2021.392,1465.990 A 522.500,522.500 0.00 0,1 2022.5,1501.8 L 2022.5,1501.8 1995.9,1501.7 1969.3,1501.6 1942.6,1501.4 1915.9,1501.2 1889.2,1500.9 1862.5,1500.6 1835.8,1500.3 1809.0,1499.9 1782.2,1499.5 1755.4,1499.0 1728.6,1498.5 1701.7,1497.9 1674.9,1497.3 1648.1,1496.6 1621.2,1495.9 1594.3,1495.1 1567.5,1494.3 1540.6,1493.5 1513.7,1492.6 1486.8,1491.6 1460.0,1490.6 1433.1,1489.5 1406.3,1488.4 1379.4,1487.3 1352.6,1486.1 1325.7,1484.8 1298.9,1483.5 1272.1,1482.2 1245.3,1480.8 1218.6,1479.3 1191.8,1477.8 1165.1,1476.3 1138.4,1474.7 1111.7,1473.1 1085.0,1471.5 1058.4,1469.8 1031.8,1468.1 1005.2,1466.3 978.7,1464.5  A 522.500,522.500 0.00 0,1 982.3,1429.7 L 982.3,1429.7 1008.2,1433.1 1034.2,1436.5 1060.4,1439.8 1086.6,1443.0 1112.9,1446.0 1139.3,1448.9 1165.8,1451.8 1192.3,1454.4 1218.9,1457.0 1245.6,1459.4 1272.3,1461.7 1299.1,1463.9 1325.9,1465.9 1352.7,1467.7 1379.6,1469.4 1406.5,1471.0 1433.5,1472.4 1460.4,1473.6 1487.4,1474.7 1514.4,1475.7 1541.3,1476.5 1568.3,1477.1 1595.3,1477.6 1622.2,1477.9 1649.2,1478.1 1676.1,1478.1 1703.0,1478.0 1729.8,1477.7 1756.6,1477.3 1783.4,1476.7 1810.1,1476.0 1836.8,1475.2 1863.4,1474.3 1889.9,1473.2 1916.4,1472.0 1942.8,1470.6 1969.1,1469.2 1995.3,1467.6 2021.4,1466.0  Z" style="stroke-width: 0.5;  stroke: rgb(0,0,0); fill: rgb(179,177,178);" />
<path d="M 1796.207,1069.572 A 522.500,522.500 0.00 0,1 1819.3,1086.4 L 1819.3,1086.4 1806.0,1103.2 1792.3,1119.7 1778.1,1135.8 1763.6,1151.4 1748.7,1166.5 1733.4,1180.8 1717.9,1194.5 1702.1,1207.3 1686.0,1219.3 1669.7,1230.3 1653.2,1240.3 1636.5,1249.2 1619.7,1257.0 1602.8,1263.7 1585.8,1269.2 1568.7,1273.5 1551.5,1276.6 1534.4,1278.4 1517.3,1279.0 1500.2,1278.3 1483.2,1276.4 1466.2,1273.2 1449.4,1268.8 1432.7,1263.2 1416.2,1256.3 1399.8,1248.3 1383.7,1239.2 1367.7,1229.0 1352.1,1217.7 1336.7,1205.5 1321.6,1192.3 1306.9,1178.3 1292.4,1163.4 1278.4,1147.9 1264.7,1131.7 1251.4,1115.0 1238.6,1097.8 1226.2,1080.3 1214.3,1062.5  A 522.500,522.500 0.00 0,1 1238.4,1047.7 L 1238.4,1047.7 1249.3,1065.9 1260.5,1083.9 1272.2,1101.5 1284.3,1118.7 1296.8,1135.3 1309.7,1151.3 1322.9,1166.6 1336.5,1181.0 1350.3,1194.6 1364.5,1207.2 1378.9,1218.8 1393.5,1229.3 1408.4,1238.7 1423.5,1246.9 1438.8,1253.9 1454.2,1259.7 1469.7,1264.2 1485.4,1267.4 1501.1,1269.3 1517.0,1269.9 1532.8,1269.2 1548.7,1267.3 1564.5,1264.0 1580.3,1259.4 1596.1,1253.7 1611.8,1246.6 1627.4,1238.5 1642.8,1229.1 1658.1,1218.7 1673.2,1207.3 1688.1,1194.8 1702.7,1181.5 1717.1,1167.3 1731.2,1152.4 1744.9,1136.8 1758.3,1120.6 1771.4,1103.9 1784.0,1086.9 1796.2,1069.6  Z" style="stroke-width: 0.5;  stroke: rgb(0,0,0); fill: rgb(179,177,178);" />
<path d="M 2022.481,1504.451 A 522.500,522.500 0.00 0,1 2021.5,1532.4 L 2021.5,1532.4 1994.9,1530.8 1968.3,1529.2 1941.7,1527.6 1915.1,1526.0 1888.4,1524.5 1861.7,1523.1 1835.0,1521.6 1808.2,1520.2 1781.5,1518.8 1754.7,1517.5 1727.9,1516.2 1701.1,1515.0 1674.3,1513.8 1647.5,1512.6 1620.6,1511.5 1593.8,1510.4 1566.9,1509.4 1540.1,1508.4 1513.2,1507.4 1486.3,1506.5 1459.5,1505.6 1432.6,1504.8 1405.7,1504.0 1378.9,1503.3 1352.0,1502.6 1325.2,1502.0 1298.4,1501.4 1271.5,1500.8 1244.7,1500.3 1217.9,1499.8 1191.1,1499.4 1164.3,1499.0 1137.6,1498.6 1110.9,1498.3 1084.1,1498.0 1057.4,1497.7 1030.8,1497.5 1004.1,1497.3 977.5,1497.1  A 522.500,522.500 0.00 0,1 978.4,1468.9 L 978.4,1468.9 1005.0,1470.5 1031.6,1472.0 1058.3,1473.6 1084.9,1475.0 1111.6,1476.5 1138.3,1477.9 1165.1,1479.3 1191.8,1480.7 1218.6,1482.0 1245.3,1483.3 1272.1,1484.6 1298.9,1485.8 1325.7,1487.0 1352.6,1488.1 1379.4,1489.2 1406.2,1490.3 1433.1,1491.3 1459.9,1492.3 1486.8,1493.3 1513.6,1494.2 1540.5,1495.1 1567.4,1495.9 1594.2,1496.7 1621.1,1497.5 1647.9,1498.2 1674.7,1498.8 1701.6,1499.5 1728.4,1500.1 1755.2,1500.7 1782.0,1501.2 1808.8,1501.7 1835.6,1502.1 1862.3,1502.6 1889.1,1503.0 1915.8,1503.3 1942.5,1503.6 1969.2,1503.9 1995.8,1504.2 2022.5,1504.5  Z" style="stroke-width: 0.5;  stroke: rgb(0,0,0); fill: rgb(179,177,178);" />
<path d="M 1883.250,1144.858 A 522.500,522.500 0.00 0,1 1900.3,1164.2 L 1900.3,1164.2 1883.0,1178.4 1865.2,1192.2 1847.0,1205.6 1828.4,1218.6 1809.4,1231.0 1790.0,1242.8 1770.3,1253.9 1750.3,1264.3 1730.1,1274.0 1709.6,1282.8 1688.9,1290.7 1668.0,1297.8 1646.9,1303.9 1625.8,1309.1 1604.5,1313.3 1583.2,1316.4 1561.8,1318.6 1540.4,1319.7 1519.0,1319.7 1497.6,1318.8 1476.3,1316.7 1455.1,1313.7 1434.0,1309.6 1413.0,1304.5 1392.2,1298.4 1371.6,1291.3 1351.2,1283.3 1331.0,1274.4 1311.2,1264.5 1291.6,1253.9 1272.3,1242.4 1253.3,1230.3 1234.7,1217.4 1216.5,1203.8 1198.7,1189.8 1181.3,1175.1 1164.4,1160.1 1148.0,1144.7 1132.1,1129.0  A 522.500,522.500 0.00 0,1 1151.3,1110.9 L 1151.3,1110.9 1166.2,1127.2 1181.7,1143.2 1197.6,1158.9 1214.0,1174.1 1230.8,1188.7 1248.1,1202.8 1265.7,1216.3 1283.7,1229.0 1302.0,1241.0 1320.7,1252.1 1339.6,1262.3 1358.8,1271.6 1378.3,1280.0 1397.9,1287.3 1417.8,1293.7 1437.8,1299.0 1458.0,1303.2 1478.3,1306.3 1498.6,1308.4 1519.1,1309.3 1539.6,1309.2 1560.1,1307.9 1580.5,1305.6 1601.0,1302.2 1621.3,1297.7 1641.6,1292.2 1661.7,1285.7 1681.7,1278.2 1701.5,1269.7 1721.1,1260.4 1740.5,1250.2 1759.6,1239.2 1778.3,1227.4 1796.8,1215.0 1814.9,1201.9 1832.7,1188.3 1850.0,1174.2 1866.9,1159.7 1883.3,1144.9  Z" style="stroke-width: 0.5;  stroke: rgb(0,0,0); fill: rgb(179,177,178);" />
<path d="M 1822.517,1088.917 A 522.500,522.500 0.00 0,1 1840.5,1103.7 L 1840.5,1103.7 1826.3,1119.9 1811.5,1135.9 1796.3,1151.4 1780.8,1166.4 1764.8,1180.9 1748.5,1194.7 1731.9,1207.8 1715.0,1220.1 1697.8,1231.6 1680.4,1242.1 1662.8,1251.6 1645.0,1260.1 1627.0,1267.6 1609.0,1273.9 1590.8,1279.1 1572.6,1283.2 1554.3,1286.0 1536.1,1287.7 1517.8,1288.2 1499.6,1287.4 1481.4,1285.5 1463.3,1282.3 1445.4,1278.0 1427.5,1272.4 1409.9,1265.8 1392.4,1258.0 1375.1,1249.1 1358.1,1239.1 1341.3,1228.2 1324.8,1216.3 1308.6,1203.5 1292.8,1189.9 1277.3,1175.4 1262.2,1160.3 1247.5,1144.6 1233.2,1128.3 1219.3,1111.6 1205.9,1094.5 1193.0,1077.2  A 522.500,522.500 0.00 0,1 1212.0,1064.0 L 1212.0,1064.0 1224.1,1081.7 1236.6,1099.2 1249.5,1116.4 1262.9,1133.1 1276.7,1149.2 1290.8,1164.7 1305.4,1179.5 1320.3,1193.5 1335.5,1206.6 1351.0,1218.9 1366.8,1230.1 1382.8,1240.3 1399.1,1249.4 1415.6,1257.4 1432.3,1264.3 1449.1,1269.9 1466.1,1274.3 1483.2,1277.5 1500.4,1279.5 1517.6,1280.2 1534.9,1279.6 1552.2,1277.8 1569.5,1274.8 1586.7,1270.6 1603.9,1265.1 1621.0,1258.5 1637.9,1250.7 1654.8,1241.9 1671.4,1231.9 1687.9,1221.0 1704.1,1209.2 1720.1,1196.4 1735.8,1182.9 1751.2,1168.6 1766.2,1153.6 1780.9,1138.1 1795.2,1122.0 1809.1,1105.6 1822.5,1088.9  Z" style="stroke-width: 0.5;  stroke: rgb(0,0,0); fill: rgb(179,177,178);" />
<path d="M 1965.065,1738.161 A 522.500,522.500 0.00 0,1 1954.6,1757.6 L 1954.6,1757.6 1933.1,1745.6 1911.2,1733.8 1889.0,1722.2 1866.5,1710.9 1843.6,1699.9 1820.5,1689.2 1797.0,1678.8 1773.3,1668.8 1749.3,1659.2 1725.1,1650.0 1700.6,1641.2 1675.9,1632.8 1651.0,1624.9 1626.0,1617.4 1600.7,1610.5 1575.3,1604.0 1549.7,1598.0 1524.0,1592.5 1498.2,1587.5 1472.3,1583.0 1446.4,1579.1 1420.3,1575.6 1394.2,1572.7 1368.1,1570.3 1342.0,1568.4 1315.8,1567.0 1289.7,1566.1 1263.7,1565.7 1237.7,1565.8 1211.8,1566.4 1185.9,1567.4 1160.2,1568.9 1134.7,1570.8 1109.3,1573.1 1084.1,1575.8 1059.0,1578.9 1034.2,1582.4 1009.7,1586.2 985.4,1590.3  A 522.500,522.500 0.00 0,1 982.0,1568.7 L 982.0,1568.7 1006.7,1565.5 1031.7,1562.7 1056.8,1560.2 1082.2,1558.0 1107.7,1556.1 1133.4,1554.6 1159.2,1553.4 1185.2,1552.7 1211.2,1552.3 1237.4,1552.4 1263.6,1552.8 1289.9,1553.7 1316.2,1555.1 1342.5,1556.9 1368.9,1559.1 1395.2,1561.8 1421.5,1564.9 1447.8,1568.5 1474.0,1572.6 1500.2,1577.1 1526.2,1582.0 1552.2,1587.4 1578.0,1593.3 1603.7,1599.6 1629.3,1606.3 1654.7,1613.4 1680.0,1621.0 1705.0,1628.9 1729.9,1637.3 1754.6,1646.0 1779.0,1655.1 1803.2,1664.5 1827.2,1674.2 1850.9,1684.2 1874.3,1694.5 1897.4,1705.1 1920.3,1715.9 1942.8,1726.9 1965.1,1738.2  Z" style="stroke-width: 0.5;  stroke: rgb(0,0,0); fill: rgb(179,177,178);" />
<path d="M 1973.049,1721.881 A 522.500,522.500 0.00 0,1 1965.5,1737.2 L 1965.5,1737.2 1943.3,1726.0 1920.7,1715.0 1897.8,1704.3 1874.6,1693.7 1851.2,1683.4 1827.4,1673.4 1803.5,1663.7 1779.2,1654.4 1754.8,1645.3 1730.1,1636.6 1705.2,1628.3 1680.1,1620.4 1654.9,1612.8 1629.5,1605.7 1603.9,1599.0 1578.1,1592.7 1552.3,1586.8 1526.3,1581.4 1500.2,1576.4 1474.1,1571.9 1447.9,1567.8 1421.6,1564.2 1395.3,1561.0 1368.9,1558.3 1342.6,1556.0 1316.2,1554.2 1289.9,1552.8 1263.6,1551.8 1237.4,1551.3 1211.2,1551.2 1185.1,1551.5 1159.1,1552.2 1133.3,1553.2 1107.6,1554.7 1082.0,1556.5 1056.7,1558.6 1031.5,1561.1 1006.5,1563.8 981.8,1566.9  A 522.500,522.500 0.00 0,1 979.9,1549.7 L 979.9,1549.7 1004.9,1547.5 1030.1,1545.5 1055.5,1543.8 1081.1,1542.3 1106.9,1541.2 1132.8,1540.4 1158.8,1540.0 1185.0,1539.8 1211.2,1540.1 1237.5,1540.7 1263.9,1541.7 1290.3,1543.0 1316.7,1544.8 1343.2,1546.9 1369.7,1549.5 1396.2,1552.4 1422.6,1555.8 1449.0,1559.5 1475.4,1563.7 1501.7,1568.2 1528.0,1573.2 1554.1,1578.5 1580.1,1584.3 1606.1,1590.4 1631.8,1597.0 1657.5,1603.8 1683.0,1611.1 1708.3,1618.7 1733.5,1626.7 1758.5,1634.9 1783.3,1643.5 1807.8,1652.4 1832.2,1661.6 1856.3,1671.1 1880.2,1680.8 1903.8,1690.8 1927.2,1701.0 1950.2,1711.3 1973.0,1721.9  Z" style="stroke-width: 0.5;  stroke: rgb(0,0,0); fill: rgb(179,177,178);" />
<path d="M 1999.177,1345.635 A 522.500,522.500 0.00 0,1 2002.6,1357.1 L 2002.6,1357.1 1978.7,1363.7 1954.6,1370.0 1930.2,1376.1 1905.5,1381.8 1880.7,1387.2 1855.6,1392.3 1830.3,1397.0 1804.8,1401.2 1779.1,1405.1 1753.4,1408.5 1727.4,1411.5 1701.4,1414.1 1675.3,1416.1 1649.0,1417.8 1622.8,1418.9 1596.4,1419.5 1570.1,1419.7 1543.7,1419.3 1517.3,1418.5 1491.0,1417.2 1464.7,1415.3 1438.4,1413.0 1412.2,1410.2 1386.1,1406.9 1360.0,1403.1 1334.1,1398.9 1308.3,1394.2 1282.7,1389.0 1257.2,1383.4 1231.9,1377.4 1206.7,1371.0 1181.8,1364.1 1157.1,1356.9 1132.7,1349.4 1108.5,1341.5 1084.5,1333.3 1060.9,1324.8 1037.5,1316.0 1014.4,1307.1  A 522.500,522.500 0.00 0,1 1019.1,1295.8 L 1019.1,1295.8 1041.8,1305.3 1064.8,1314.5 1088.2,1323.4 1111.8,1332.0 1135.8,1340.4 1160.0,1348.3 1184.4,1355.9 1209.1,1363.1 1234.0,1369.8 1259.1,1376.2 1284.4,1382.0 1309.8,1387.5 1335.4,1392.4 1361.2,1396.8 1387.1,1400.8 1413.0,1404.2 1439.1,1407.1 1465.2,1409.5 1491.4,1411.4 1517.6,1412.7 1543.8,1413.5 1570.0,1413.8 1596.2,1413.5 1622.4,1412.8 1648.6,1411.5 1674.6,1409.6 1700.6,1407.3 1726.5,1404.5 1752.2,1401.2 1777.8,1397.5 1803.3,1393.3 1828.6,1388.6 1853.7,1383.6 1878.6,1378.1 1903.2,1372.3 1927.6,1366.1 1951.8,1359.6 1975.6,1352.7 1999.2,1345.6  Z" style="stroke-width: 0.5;  stroke: rgb(0,0,0); fill: rgb(179,177,178);" />
</g>
<g id="plot0">
<g id="plot0-axis">
</g>
<line x1='2086.6' y1='1967.4' x2='2086.6' y2='1967.4' style="stroke-width:14.0;stroke:rgb(0,0,0);stroke-linecap:round;fill:none;" />
<line x1='2086.6' y1='1967.4' x2='2117.9' y2='1992.3' style="stroke-width:14.0;stroke:rgb(0,0,0);stroke-linecap:round;fill:none;" />
<line x1='2117.9' y1='1992.3' x2='2117.9' y2='1992.3' style="stroke-width:14.0;stroke:rgb(0,0,0);stroke-linecap:round;fill:none;" />
<text x="2119.6" y="2021.8" font-size="46.8px" font-family="CMUBright-Roman" style="text-anchor:start;fill:rgb(255,38,78);" transform="rotate(38.5,2119.6,2021.8)" >Histocap104p06<tspan baseline-shift="-40%" font-size="90%">s</tspan>01645</text>
</g>
<defs>
<pattern id="checker" width="10" height="10" patternTransform="rotate(45 0 0)" patternUnits="userSpaceOnUse"><line x1="0" y1="0" x2="10" y2="0" style="stroke:black;stroke-width:2" /><line x1="0" y1="0" x2="0" y2="10" style="stroke:black;stroke-width:2" /></pattern>
<pattern id="hline-sparse" width="10" height="10" patternTransform="rotate(0 0 0)" patternUnits="userSpaceOnUse"><line x1="0" y1="0" x2="10" y2="0" style="stroke:black;stroke-width:2" /></pattern>
<pattern id="vline-sparse" width="10" height="10" patternTransform="rotate(0 0 0)" patternUnits="userSpaceOnUse"><line x1="0" y1="0" x2="0" y2="10" style="stroke:black;stroke-width:2" /></pattern>
<pattern id="vline" width="10" height="10" patternTransform="rotate(0 0 0)" patternUnits="userSpaceOnUse"><line x1="0" y1="0" x2="0" y2="10" style="stroke:black;stroke-width:5" /></pattern>
<pattern id="hline" width="10" height="10" patternTransform="rotate(0 0 0)" patternUnits="userSpaceOnUse"><line x1="0" y1="0" x2="10" y2="0" style="stroke:black;stroke-width:5" /></pattern>
<pattern id="checker" width="10" height="10" patternTransform="rotate(45 0 0)" patternUnits="userSpaceOnUse"><line x1="0" y1="0" x2="10" y2="0" style="stroke:black;stroke-width:5" /><line x1="0" y1="0" x2="0" y2="10" style="stroke:black;stroke-width:4" /></pattern>
</defs>
</svg>
