<?xml version="1.0" encoding="utf-8" standalone="no"?>
<!DOCTYPE svg PUBLIC "-//W3C//DTD SVG 1.1//EN" "http://www.w3.org/Graphics/SVG/1.1/DTD/svg11.dtd">
<svg width="3000px" height="3000px" version="1.1" xmlns="http://www.w3.org/2000/svg" xmlns:xlink="http://www.w3.org/1999/xlink">
<g id="bg">
<rect x="0" y="0" width="3000px" height="3000px" style="fill:rgb(255,255,255);"/>
</g>
<g id="ideograms">
<path d="M1500.000,950.000 A550.000,550.000 40.000 0,1 1646.842,2030.035 L1700.239,2222.776 A750.000,750.000 0.000 0,0 1500.000,750.000 Z" style="stroke-width:2.0;stroke:rgb(0,0,0);stroke-linecap:round;fill:rgb(179,177,178);" />
<text x="2466.1" y="1368.6" font-size="46.8px" font-family="CMUBright-Roman" style="text-anchor:middle;fill:rgb(0,0,0);" transform="rotate(442.3,2466.1,1368.6)" >HistocapCB065<tspan baseline-shift="-40%" font-size="90%">5</tspan></text>
<line x1='1555.3' y1='752.0' x2='1556.2' y2='740.1' style="stroke-width:8.0;stroke:rgb(150,150,150);stroke-linecap:round;fill:none;" />
<text x="1571.1" y="729.3" font-size="41.6px" font-family="CMUBright-Roman" style="text-anchor:start;fill:rgb(150,150,150);" transform="rotate(274.2,1571.1,729.3)" >1550 kb</text>
<line x1='1652.7' y1='765.7' x2='1655.2' y2='754.0' style="stroke-width:8.0;stroke:rgb(150,150,150);stroke-linecap:round;fill:none;" />
<line x1='1747.5' y1='792.0' x2='1751.4' y2='780.7' style="stroke-width:8.0;stroke:rgb(150,150,150);stroke-linecap:round;fill:none;" />
<line x1='1838.0' y1='830.5' x2='1843.4' y2='819.8' style="stroke-width:8.0;stroke:rgb(150,150,150);stroke-linecap:round;fill:none;" />
<line x1='1922.7' y1='880.5' x2='1929.5' y2='870.5' style="stroke-width:8.0;stroke:rgb(150,150,150);stroke-linecap:round;fill:none;" />
<line x1='2000.1' y1='941.1' x2='2008.1' y2='932.1' style="stroke-width:8.0;stroke:rgb(150,150,150);stroke-linecap:round;fill:none;" />
<text x="2026.5" y="932.6" font-size="41.6px" font-family="CMUBright-Roman" style="text-anchor:start;fill:rgb(150,150,150);" transform="rotate(311.8,2026.5,932.6)" >1600 kb</text>
<line x1='2069.0' y1='1011.3' x2='2078.1' y2='1003.5' style="stroke-width:8.0;stroke:rgb(150,150,150);stroke-linecap:round;fill:none;" />
<line x1='2128.0' y1='1090.0' x2='2138.0' y2='1083.4' style="stroke-width:8.0;stroke:rgb(150,150,150);stroke-linecap:round;fill:none;" />
<line x1='2176.2' y1='1175.7' x2='2187.1' y2='1170.5' style="stroke-width:8.0;stroke:rgb(150,150,150);stroke-linecap:round;fill:none;" />
<line x1='2212.9' y1='1266.9' x2='2224.3' y2='1263.2' style="stroke-width:8.0;stroke:rgb(150,150,150);stroke-linecap:round;fill:none;" />
<line x1='2237.2' y1='1362.2' x2='2249.0' y2='1360.0' style="stroke-width:8.0;stroke:rgb(150,150,150);stroke-linecap:round;fill:none;" />
<text x="2263.3" y="1371.6" font-size="41.6px" font-family="CMUBright-Roman" style="text-anchor:start;fill:rgb(150,150,150);" transform="rotate(349.4,2263.3,1371.6)" >1650 kb</text>
<line x1='2248.9' y1='1459.9' x2='2260.9' y2='1459.2' style="stroke-width:8.0;stroke:rgb(150,150,150);stroke-linecap:round;fill:none;" />
<line x1='2247.7' y1='1558.2' x2='2259.7' y2='1559.1' style="stroke-width:8.0;stroke:rgb(150,150,150);stroke-linecap:round;fill:none;" />
<line x1='2233.7' y1='1655.6' x2='2245.4' y2='1658.0' style="stroke-width:8.0;stroke:rgb(150,150,150);stroke-linecap:round;fill:none;" />
<line x1='2207.0' y1='1750.2' x2='2218.3' y2='1754.2' style="stroke-width:8.0;stroke:rgb(150,150,150);stroke-linecap:round;fill:none;" />
<line x1='2168.2' y1='1840.6' x2='2178.9' y2='1846.0' style="stroke-width:8.0;stroke:rgb(150,150,150);stroke-linecap:round;fill:none;" />
<text x="2183.1" y="1863.9" font-size="41.6px" font-family="CMUBright-Roman" style="text-anchor:start;fill:rgb(150,150,150);" transform="rotate(27.0,2183.1,1863.9)" >1700 kb</text>
<line x1='2117.9' y1='1925.1' x2='2127.8' y2='1931.9' style="stroke-width:8.0;stroke:rgb(150,150,150);stroke-linecap:round;fill:none;" />
<line x1='2057.0' y1='2002.3' x2='2065.9' y2='2010.3' style="stroke-width:8.0;stroke:rgb(150,150,150);stroke-linecap:round;fill:none;" />
<line x1='1986.5' y1='2070.8' x2='1994.3' y2='2080.0' style="stroke-width:8.0;stroke:rgb(150,150,150);stroke-linecap:round;fill:none;" />
<line x1='1907.6' y1='2129.6' x2='1914.1' y2='2139.7' style="stroke-width:8.0;stroke:rgb(150,150,150);stroke-linecap:round;fill:none;" />
<line x1='1821.7' y1='2177.5' x2='1826.9' y2='2188.3' style="stroke-width:8.0;stroke:rgb(150,150,150);stroke-linecap:round;fill:none;" />
<text x="1819.3" y="2205.1" font-size="41.6px" font-family="CMUBright-Roman" style="text-anchor:start;fill:rgb(150,150,150);" transform="rotate(64.6,1819.3,2205.1)" >1750 kb</text>
<line x1='1730.3' y1='2213.8' x2='1734.0' y2='2225.2' style="stroke-width:8.0;stroke:rgb(150,150,150);stroke-linecap:round;fill:none;" />
<g id="highlighttrack_0">
<path d="M2031.714,1359.358 A550.000,550.000 40.000 0,1 2049.962,1493.577 L2249.949,1491.241 A750.000,750.000 0.000 0,0 2225.065,1308.216 Z" style="stroke-width:14.0;stroke:rgb(0,0,0);stroke-linecap:round;fill:rgb(255,38,78);" />
</g>
<path d="M1500.000,950.000 A550.000,550.000 40.000 0,1 1646.842,2030.035 L1700.239,2222.776 A750.000,750.000 0.000 0,0 1500.000,750.000 Z" style="stroke-width:2.0;stroke:rgb(0,0,0);stroke-linecap:round;fill:none;" />
<path d="M1432.302,2045.818 A550.000,550.000 40.000 0,1 1289.034,992.069 L1212.319,807.367 A750.000,750.000 0.000 0,0 1407.684,2244.297 Z" style="stroke-width:2.0;stroke:rgb(0,0,0);stroke-linecap:round;fill:rgb(179,177,178);" />
<text x="489.3" y="1637.4" font-size="46.8px" font-family="CMUBright-Roman" style="text-anchor:middle;fill:rgb(0,0,0);" transform="rotate(82.3,489.3,1637.4)" >HistoohiSECH91<tspan baseline-shift="-40%" font-size="90%">5</tspan></text>
<line x1='1167.7' y1='827.7' x2='1162.3' y2='816.9' style="stroke-width:8.0;stroke:rgb(150,150,150);stroke-linecap:round;fill:none;" />
<line x1='1082.5' y1='876.9' x2='1075.9' y2='867.0' style="stroke-width:8.0;stroke:rgb(150,150,150);stroke-linecap:round;fill:none;" />
<line x1='1004.6' y1='936.9' x2='996.7' y2='927.9' style="stroke-width:8.0;stroke:rgb(150,150,150);stroke-linecap:round;fill:none;" />
<line x1='935.2' y1='1006.6' x2='926.1' y2='998.7' style="stroke-width:8.0;stroke:rgb(150,150,150);stroke-linecap:round;fill:none;" />
<line x1='875.5' y1='1084.7' x2='865.5' y2='1078.1' style="stroke-width:8.0;stroke:rgb(150,150,150);stroke-linecap:round;fill:none;" />
<text x="847.8" y="1083.2" font-size="41.6px" font-family="CMUBright-Roman" style="text-anchor:end;fill:rgb(150,150,150);" transform="rotate(33.6,847.8,1083.2)" >1550 kb</text>
<line x1='826.5' y1='1170.0' x2='815.7' y2='1164.7' style="stroke-width:8.0;stroke:rgb(150,150,150);stroke-linecap:round;fill:none;" />
<line x1='789.1' y1='1261.0' x2='777.7' y2='1257.1' style="stroke-width:8.0;stroke:rgb(150,150,150);stroke-linecap:round;fill:none;" />
<line x1='763.9' y1='1356.0' x2='752.2' y2='1353.7' style="stroke-width:8.0;stroke:rgb(150,150,150);stroke-linecap:round;fill:none;" />
<line x1='751.4' y1='1453.6' x2='739.5' y2='1452.8' style="stroke-width:8.0;stroke:rgb(150,150,150);stroke-linecap:round;fill:none;" />
<line x1='751.8' y1='1551.9' x2='739.8' y2='1552.8' style="stroke-width:8.0;stroke:rgb(150,150,150);stroke-linecap:round;fill:none;" />
<text x="729.0" y="1567.5" font-size="41.6px" font-family="CMUBright-Roman" style="text-anchor:end;fill:rgb(150,150,150);" transform="rotate(-4.0,729.0,1567.5)" >1600 kb</text>
<line x1='765.0' y1='1649.4' x2='753.3' y2='1651.8' style="stroke-width:8.0;stroke:rgb(150,150,150);stroke-linecap:round;fill:none;" />
<line x1='790.9' y1='1744.3' x2='779.5' y2='1748.2' style="stroke-width:8.0;stroke:rgb(150,150,150);stroke-linecap:round;fill:none;" />
<line x1='828.9' y1='1834.9' x2='818.2' y2='1840.3' style="stroke-width:8.0;stroke:rgb(150,150,150);stroke-linecap:round;fill:none;" />
<line x1='878.5' y1='1919.9' x2='868.6' y2='1926.6' style="stroke-width:8.0;stroke:rgb(150,150,150);stroke-linecap:round;fill:none;" />
<line x1='938.8' y1='1997.6' x2='929.8' y2='2005.5' style="stroke-width:8.0;stroke:rgb(150,150,150);stroke-linecap:round;fill:none;" />
<text x="930.2" y="2023.9" font-size="41.6px" font-family="CMUBright-Roman" style="text-anchor:end;fill:rgb(150,150,150);" transform="rotate(-41.6,930.2,2023.9)" >1650 kb</text>
<line x1='1008.7' y1='2066.7' x2='1000.9' y2='2075.8' style="stroke-width:8.0;stroke:rgb(150,150,150);stroke-linecap:round;fill:none;" />
<line x1='1087.1' y1='2126.1' x2='1080.5' y2='2136.1' style="stroke-width:8.0;stroke:rgb(150,150,150);stroke-linecap:round;fill:none;" />
<line x1='1172.6' y1='2174.8' x2='1167.4' y2='2185.6' style="stroke-width:8.0;stroke:rgb(150,150,150);stroke-linecap:round;fill:none;" />
<line x1='1263.7' y1='2211.8' x2='1259.9' y2='2223.2' style="stroke-width:8.0;stroke:rgb(150,150,150);stroke-linecap:round;fill:none;" />
<line x1='1358.9' y1='2236.6' x2='1356.6' y2='2248.4' style="stroke-width:8.0;stroke:rgb(150,150,150);stroke-linecap:round;fill:none;" />
<text x="1368.1" y="2262.7" font-size="41.6px" font-family="CMUBright-Roman" style="text-anchor:end;fill:rgb(150,150,150);" transform="rotate(-79.2,1368.1,2262.7)" >1700 kb</text>
<path d="M1432.302,2045.818 A550.000,550.000 40.000 0,1 1289.034,992.069 L1212.319,807.367 A750.000,750.000 0.000 0,0 1407.684,2244.297 Z" style="stroke-width:2.0;stroke:rgb(0,0,0);stroke-linecap:round;fill:none;" />
</g>
<g id="track_0">
<path d="M 1901.084,1165.130 A 522.500,522.500 0.00 0,1 1938.0,1215.0 L 1938.0,1215.0 1917.6,1228.1 1896.8,1240.8 1875.7,1253.4 1854.1,1265.6 1832.2,1277.4 1810.0,1288.9 1787.4,1300.0 1764.5,1310.7 1741.3,1320.9 1717.8,1330.6 1694.1,1339.9 1670.1,1348.5 1645.8,1356.7 1621.4,1364.2 1596.7,1371.2 1571.9,1377.6 1546.9,1383.4 1521.7,1388.6 1496.4,1393.2 1471.0,1397.1 1445.6,1400.4 1420.0,1403.1 1394.4,1405.2 1368.8,1406.6 1343.2,1407.4 1317.6,1407.6 1292.0,1407.2 1266.5,1406.2 1241.1,1404.6 1215.8,1402.4 1190.6,1399.7 1165.5,1396.5 1140.6,1392.8 1116.0,1388.6 1091.5,1383.9 1067.3,1378.8 1043.3,1373.3 1019.6,1367.4 996.3,1361.1  A 522.500,522.500 0.00 0,1 1016.5,1301.8 L 1016.5,1301.8 1038.3,1310.5 1060.5,1318.8 1083.0,1326.7 1105.9,1334.1 1129.0,1341.0 1152.4,1347.4 1176.0,1353.2 1199.8,1358.4 1223.8,1362.9 1247.9,1366.8 1272.2,1369.9 1296.5,1372.4 1320.9,1374.1 1345.4,1375.1 1369.8,1375.3 1394.3,1374.7 1418.7,1373.3 1443.0,1371.2 1467.3,1368.2 1491.4,1364.5 1515.4,1360.0 1539.3,1354.7 1563.0,1348.6 1586.4,1341.8 1609.7,1334.2 1632.7,1325.9 1655.5,1316.9 1677.9,1307.2 1700.1,1296.9 1721.9,1285.9 1743.4,1274.4 1764.6,1262.2 1785.3,1249.6 1805.7,1236.5 1825.7,1222.9 1845.2,1208.9 1864.3,1194.6 1882.9,1180.0 1901.1,1165.1  Z" style="stroke-width: 0.5;  stroke: rgb(0,0,0); fill: rgb(179,177,178);" />
<path d="M 1663.910,1003.875 A 522.500,522.500 0.00 0,1 1718.3,1025.3 L 1718.3,1025.3 1709.1,1044.6 1699.4,1063.8 1689.3,1082.7 1678.6,1101.2 1667.4,1119.2 1655.8,1136.7 1643.7,1153.5 1631.1,1169.6 1618.1,1184.9 1604.6,1199.3 1590.8,1212.8 1576.5,1225.3 1561.8,1236.7 1546.8,1247.1 1531.4,1256.3 1515.6,1264.4 1499.6,1271.3 1483.2,1277.0 1466.6,1281.5 1449.7,1284.8 1432.6,1286.8 1415.3,1287.6 1397.8,1287.2 1380.2,1285.5 1362.5,1282.7 1344.6,1278.6 1326.8,1273.5 1308.9,1267.2 1291.0,1259.8 1273.1,1251.5 1255.3,1242.1 1237.7,1231.9 1220.2,1220.8 1202.9,1208.9 1185.8,1196.3 1169.0,1183.1 1152.6,1169.4 1136.4,1155.2 1120.7,1140.6  A 522.500,522.500 0.00 0,1 1163.2,1100.5 L 1163.2,1100.5 1176.9,1116.4 1191.0,1132.0 1205.3,1147.2 1220.0,1161.8 1234.9,1175.8 1250.0,1189.1 1265.2,1201.6 1280.6,1213.2 1296.0,1223.9 1311.5,1233.6 1327.0,1242.1 1342.5,1249.6 1357.9,1255.8 1373.2,1260.9 1388.4,1264.7 1403.5,1267.2 1418.4,1268.4 1433.1,1268.3 1447.6,1266.9 1461.8,1264.1 1475.8,1260.1 1489.5,1254.7 1502.9,1248.0 1515.9,1240.1 1528.6,1230.9 1541.0,1220.5 1553.0,1208.9 1564.6,1196.3 1575.8,1182.5 1586.5,1167.8 1596.9,1152.2 1606.8,1135.7 1616.3,1118.4 1625.4,1100.5 1634.0,1081.9 1642.2,1062.9 1649.9,1043.4 1657.1,1023.7 1663.9,1003.9  Z" style="stroke-width: 0.5;  stroke: rgb(0,0,0); fill: rgb(179,177,178);" />
<path d="M 1978.132,1710.704 A 522.500,522.500 0.00 0,1 1954.7,1757.5 L 1954.7,1757.5 1934.6,1746.4 1914.2,1735.7 1893.3,1725.5 1872.1,1715.7 1850.5,1706.5 1828.7,1697.8 1806.6,1689.9 1784.2,1682.6 1761.7,1676.0 1739.0,1670.1 1716.1,1665.1 1693.2,1660.9 1670.1,1657.5 1647.0,1655.0 1623.9,1653.4 1600.8,1652.6 1577.7,1652.8 1554.6,1653.9 1531.6,1655.9 1508.8,1658.9 1486.0,1662.7 1463.5,1667.5 1441.1,1673.1 1418.9,1679.7 1396.9,1687.1 1375.2,1695.4 1353.7,1704.5 1332.6,1714.3 1311.7,1725.0 1291.2,1736.4 1271.1,1748.4 1251.3,1761.1 1231.9,1774.4 1213.0,1788.3 1194.5,1802.7 1176.4,1817.5 1158.8,1832.7 1141.7,1848.2 1125.1,1863.9  A 522.500,522.500 0.00 0,1 1090.4,1824.4 L 1090.4,1824.4 1108.9,1810.0 1127.9,1795.9 1147.4,1782.0 1167.3,1768.6 1187.6,1755.5 1208.3,1742.9 1229.4,1730.8 1250.8,1719.3 1272.6,1708.2 1294.7,1697.9 1317.1,1688.1 1339.9,1679.0 1362.8,1670.6 1386.0,1662.9 1409.5,1655.9 1433.1,1649.7 1457.0,1644.3 1480.9,1639.6 1505.1,1635.7 1529.3,1632.6 1553.6,1630.3 1578.0,1628.8 1602.4,1628.0 1626.9,1628.1 1651.3,1628.9 1675.7,1630.5 1700.1,1632.9 1724.3,1636.0 1748.5,1639.7 1772.5,1644.2 1796.4,1649.4 1820.1,1655.2 1843.5,1661.6 1866.7,1668.6 1889.7,1676.1 1912.3,1684.1 1934.6,1692.6 1956.6,1701.5 1978.1,1710.7  Z" style="stroke-width: 0.5;  stroke: rgb(0,0,0); fill: rgb(179,177,178);" />
<path d="M 1831.267,1904.065 A 522.500,522.500 0.00 0,1 1793.4,1932.3 L 1793.4,1932.3 1781.6,1915.2 1769.3,1898.4 1756.7,1881.9 1743.9,1865.9 1730.8,1850.6 1717.5,1836.0 1704.0,1822.1 1690.3,1809.1 1676.5,1797.1 1662.6,1786.2 1648.7,1776.3 1634.7,1767.5 1620.8,1760.0 1606.8,1753.7 1592.9,1748.7 1579.1,1745.0 1565.4,1742.7 1551.8,1741.7 1538.3,1742.0 1525.0,1743.8 1511.9,1746.9 1499.0,1751.3 1486.4,1757.1 1474.0,1764.2 1461.8,1772.6 1450.0,1782.3 1438.4,1793.2 1427.1,1805.2 1416.2,1818.3 1405.6,1832.5 1395.4,1847.6 1385.5,1863.6 1376.0,1880.5 1366.8,1898.1 1358.1,1916.3 1349.8,1935.0 1341.9,1954.1 1334.4,1973.5 1327.3,1993.1  A 522.500,522.500 0.00 0,1 1283.6,1975.6 L 1283.6,1975.6 1292.6,1956.4 1302.0,1937.5 1311.9,1918.8 1322.3,1900.5 1333.1,1882.8 1344.3,1865.7 1355.9,1849.3 1367.9,1833.6 1380.4,1818.8 1393.2,1805.0 1406.3,1792.1 1419.8,1780.3 1433.6,1769.6 1447.7,1760.0 1462.1,1751.7 1476.8,1744.5 1491.7,1738.6 1506.9,1734.0 1522.2,1730.7 1537.8,1728.7 1553.4,1727.9 1569.3,1728.5 1585.2,1730.4 1601.2,1733.5 1617.3,1737.9 1633.4,1743.5 1649.5,1750.3 1665.6,1758.2 1681.6,1767.3 1697.5,1777.4 1713.3,1788.5 1728.9,1800.5 1744.4,1813.4 1759.6,1827.1 1774.6,1841.5 1789.3,1856.5 1803.7,1872.0 1817.7,1887.9 1831.3,1904.1  Z" style="stroke-width: 0.5;  stroke: rgb(0,0,0); fill: rgb(179,177,178);" />
<path d="M 1930.133,1796.635 A 522.500,522.500 0.00 0,1 1902.6,1833.1 L 1902.6,1833.1 1885.4,1819.2 1867.9,1805.8 1849.9,1792.7 1831.5,1780.2 1812.8,1768.3 1793.8,1757.0 1774.5,1746.4 1754.9,1736.6 1735.2,1727.7 1715.3,1719.6 1695.3,1712.5 1675.1,1706.3 1654.9,1701.1 1634.6,1697.0 1614.3,1693.9 1594.1,1691.9 1573.8,1691.0 1553.7,1691.2 1533.6,1692.5 1513.6,1694.9 1493.8,1698.5 1474.2,1703.1 1454.8,1708.9 1435.6,1715.7 1416.6,1723.5 1397.9,1732.4 1379.5,1742.3 1361.5,1753.1 1343.7,1764.9 1326.3,1777.5 1309.3,1790.9 1292.7,1805.1 1276.5,1820.0 1260.8,1835.5 1245.5,1851.6 1230.7,1868.2 1216.3,1885.2 1202.5,1902.5 1189.2,1920.0  A 522.500,522.500 0.00 0,1 1153.7,1891.3 L 1153.7,1891.3 1168.8,1874.6 1184.4,1858.2 1200.5,1842.2 1217.1,1826.5 1234.1,1811.3 1251.6,1796.6 1269.5,1782.6 1287.9,1769.1 1306.6,1756.4 1325.7,1744.5 1345.2,1733.3 1364.9,1723.0 1385.0,1713.6 1405.4,1705.1 1426.0,1697.5 1446.9,1690.9 1467.9,1685.2 1489.2,1680.6 1510.6,1676.9 1532.2,1674.3 1553.8,1672.7 1575.6,1672.1 1597.4,1672.5 1619.3,1673.9 1641.1,1676.3 1662.9,1679.7 1684.7,1684.1 1706.3,1689.3 1727.9,1695.5 1749.3,1702.5 1770.5,1710.3 1791.6,1718.9 1812.4,1728.3 1832.9,1738.3 1853.1,1749.0 1872.9,1760.2 1892.4,1771.9 1911.5,1784.1 1930.1,1796.6  Z" style="stroke-width: 0.5;  stroke: rgb(0,0,0); fill: rgb(179,177,178);" />
<path d="M 1993.608,1671.339 A 522.500,522.500 0.00 0,1 1978.4,1710.1 L 1978.4,1710.1 1956.7,1700.7 1934.5,1691.8 1912.0,1683.2 1889.2,1675.1 1866.0,1667.4 1842.6,1660.2 1819.0,1653.6 1795.1,1647.5 1771.0,1642.1 1746.7,1637.2 1722.3,1633.0 1697.7,1629.5 1673.0,1626.7 1648.3,1624.6 1623.5,1623.2 1598.6,1622.5 1573.8,1622.6 1549.0,1623.4 1524.2,1625.0 1499.4,1627.3 1474.8,1630.4 1450.2,1634.2 1425.8,1638.7 1401.5,1644.0 1377.4,1649.9 1353.5,1656.6 1329.8,1663.9 1306.3,1671.9 1283.0,1680.6 1260.1,1689.8 1237.4,1699.7 1215.0,1710.0 1193.0,1721.0 1171.3,1732.3 1150.0,1744.2 1129.1,1756.4 1108.6,1769.0 1088.5,1781.9 1068.8,1795.1  A 522.500,522.500 0.00 0,1 1046.6,1759.7 L 1046.6,1759.7 1067.7,1747.9 1089.1,1736.3 1110.9,1725.0 1133.1,1714.1 1155.6,1703.5 1178.5,1693.3 1201.6,1683.5 1225.1,1674.2 1248.8,1665.4 1272.8,1657.1 1297.0,1649.3 1321.4,1642.0 1346.1,1635.3 1370.9,1629.2 1395.9,1623.7 1421.1,1618.8 1446.3,1614.5 1471.7,1610.9 1497.2,1607.9 1522.7,1605.5 1548.3,1603.7 1573.9,1602.6 1599.6,1602.2 1625.2,1602.3 1650.8,1603.1 1676.3,1604.5 1701.7,1606.5 1727.1,1609.1 1752.4,1612.3 1777.5,1616.1 1802.4,1620.3 1827.2,1625.2 1851.8,1630.5 1876.1,1636.3 1900.2,1642.5 1924.0,1649.2 1947.5,1656.2 1970.7,1663.6 1993.6,1671.3  Z" style="stroke-width: 0.5;  stroke: rgb(0,0,0); fill: rgb(179,177,178);" />
<path d="M 2018.556,1564.075 A 522.500,522.500 0.00 0,1 2011.9,1604.9 L 2011.9,1604.9 1987.4,1600.0 1962.6,1595.4 1937.7,1591.1 1912.5,1587.0 1887.1,1583.3 1861.6,1579.9 1835.8,1576.9 1810.0,1574.2 1784.0,1572.0 1757.8,1570.1 1731.6,1568.6 1705.3,1567.5 1678.9,1566.8 1652.4,1566.6 1625.9,1566.8 1599.4,1567.4 1572.9,1568.5 1546.4,1570.0 1519.9,1571.9 1493.4,1574.3 1467.0,1577.2 1440.6,1580.5 1414.3,1584.2 1388.1,1588.4 1362.1,1593.0 1336.1,1598.0 1310.2,1603.4 1284.6,1609.2 1259.0,1615.4 1233.7,1622.0 1208.5,1628.9 1183.5,1636.2 1158.8,1643.8 1134.2,1651.7 1109.9,1660.0 1085.9,1668.5 1062.1,1677.2 1038.6,1686.2 1015.4,1695.4  A 522.500,522.500 0.00 0,1 1001.5,1656.7 L 1001.5,1656.7 1025.9,1649.2 1050.4,1641.8 1075.2,1634.6 1100.1,1627.6 1125.2,1620.9 1150.6,1614.3 1176.0,1608.0 1201.7,1602.0 1227.5,1596.2 1253.4,1590.7 1279.5,1585.4 1305.7,1580.5 1332.0,1575.8 1358.4,1571.5 1384.9,1567.5 1411.4,1563.7 1438.0,1560.3 1464.7,1557.2 1491.5,1554.5 1518.2,1552.0 1545.0,1549.9 1571.8,1548.1 1598.6,1546.7 1625.4,1545.5 1652.2,1544.7 1679.0,1544.2 1705.7,1544.1 1732.3,1544.2 1758.9,1544.6 1785.4,1545.4 1811.8,1546.4 1838.1,1547.7 1864.4,1549.3 1890.4,1551.2 1916.4,1553.3 1942.2,1555.7 1967.8,1558.3 1993.3,1561.1 2018.6,1564.1  Z" style="stroke-width: 0.5;  stroke: rgb(0,0,0); fill: rgb(179,177,178);" />
<path d="M 1770.053,1052.699 A 522.500,522.500 0.00 0,1 1803.2,1074.5 L 1803.2,1074.5 1790.1,1092.4 1776.4,1110.2 1762.3,1127.6 1747.6,1144.7 1732.4,1161.3 1716.7,1177.5 1700.5,1193.0 1683.9,1207.8 1666.9,1222.0 1649.4,1235.4 1631.5,1248.0 1613.3,1259.7 1594.6,1270.6 1575.7,1280.5 1556.4,1289.5 1536.7,1297.4 1516.9,1304.4 1496.7,1310.3 1476.3,1315.2 1455.7,1319.0 1434.9,1321.8 1414.0,1323.5 1393.0,1324.1 1371.8,1323.7 1350.6,1322.3 1329.3,1319.9 1308.0,1316.5 1286.7,1312.1 1265.5,1306.7 1244.4,1300.5 1223.4,1293.4 1202.6,1285.5 1181.9,1276.8 1161.5,1267.4 1141.4,1257.3 1121.5,1246.7 1102.0,1235.5 1082.9,1223.8 1064.2,1211.8  A 522.500,522.500 0.00 0,1 1087.2,1179.6 L 1087.2,1179.6 1104.7,1192.8 1122.5,1205.7 1140.8,1218.0 1159.4,1229.9 1178.3,1241.1 1197.4,1251.6 1216.8,1261.4 1236.3,1270.4 1256.0,1278.5 1275.8,1285.7 1295.7,1292.0 1315.6,1297.2 1335.6,1301.4 1355.5,1304.6 1375.3,1306.7 1395.1,1307.6 1414.8,1307.5 1434.3,1306.2 1453.6,1303.8 1472.8,1300.2 1491.7,1295.5 1510.4,1289.7 1528.8,1282.8 1546.9,1274.8 1564.6,1265.7 1582.1,1255.6 1599.2,1244.5 1615.9,1232.5 1632.2,1219.5 1648.1,1205.6 1663.5,1191.0 1678.6,1175.6 1693.1,1159.5 1707.2,1142.8 1720.8,1125.5 1733.9,1107.8 1746.5,1089.7 1758.5,1071.3 1770.1,1052.7  Z" style="stroke-width: 0.5;  stroke: rgb(0,0,0); fill: rgb(179,177,178);" />
<path d="M 2022.105,1520.324 A 522.500,522.500 0.00 0,1 2019.4,1556.7 L 2019.4,1556.7 1994.0,1554.0 1968.5,1551.5 1942.7,1549.3 1916.9,1547.2 1890.9,1545.4 1864.7,1543.9 1838.4,1542.6 1812.1,1541.5 1785.6,1540.8 1759.1,1540.3 1732.4,1540.1 1705.8,1540.2 1679.0,1540.6 1652.3,1541.2 1625.5,1542.2 1598.6,1543.5 1571.8,1545.1 1545.0,1547.1 1518.2,1549.3 1491.4,1551.8 1464.6,1554.7 1437.9,1557.8 1411.3,1561.3 1384.7,1565.0 1358.2,1569.1 1331.8,1573.5 1305.4,1578.1 1279.2,1583.0 1253.1,1588.2 1227.1,1593.7 1201.3,1599.4 1175.6,1605.4 1150.0,1611.6 1124.6,1618.0 1099.4,1624.7 1074.4,1631.6 1049.5,1638.6 1024.9,1645.8 1000.5,1653.2  A 522.500,522.500 0.00 0,1 991.0,1617.9 L 991.0,1617.9 1016.3,1612.1 1041.7,1606.4 1067.3,1600.8 1093.0,1595.4 1118.9,1590.2 1144.8,1585.0 1170.9,1580.0 1197.0,1575.2 1223.3,1570.6 1249.6,1566.1 1276.0,1561.8 1302.6,1557.7 1329.1,1553.7 1355.8,1550.0 1382.5,1546.5 1409.2,1543.1 1436.0,1540.0 1462.8,1537.0 1489.7,1534.3 1516.6,1531.7 1543.5,1529.4 1570.4,1527.2 1597.3,1525.3 1624.2,1523.6 1651.0,1522.1 1677.9,1520.7 1704.8,1519.6 1731.6,1518.7 1758.3,1518.0 1785.0,1517.4 1811.7,1517.1 1838.3,1516.9 1864.8,1516.9 1891.3,1517.1 1917.7,1517.4 1943.9,1517.9 1970.1,1518.6 1996.2,1519.4 2022.1,1520.3  Z" style="stroke-width: 0.5;  stroke: rgb(0,0,0); fill: rgb(179,177,178);" />
<path d="M 1884.522,1853.764 A 522.500,522.500 0.00 0,1 1860.8,1877.9 L 1860.8,1877.9 1845.8,1862.6 1830.3,1847.5 1814.5,1832.9 1798.3,1818.8 1781.8,1805.3 1765.0,1792.5 1748.0,1780.5 1730.7,1769.3 1713.2,1759.0 1695.7,1749.6 1678.0,1741.3 1660.2,1734.0 1642.3,1727.8 1624.4,1722.7 1606.6,1718.8 1588.8,1716.1 1571.0,1714.6 1553.3,1714.3 1535.7,1715.2 1518.3,1717.4 1501.1,1720.8 1484.0,1725.4 1467.1,1731.3 1450.5,1738.3 1434.2,1746.5 1418.1,1755.8 1402.3,1766.2 1386.9,1777.6 1371.8,1790.1 1357.0,1803.5 1342.7,1817.8 1328.7,1832.9 1315.1,1848.8 1302.0,1865.3 1289.3,1882.4 1277.1,1900.1 1265.3,1918.1 1254.1,1936.5 1243.3,1955.1  A 522.500,522.500 0.00 0,1 1214.5,1937.6 L 1214.5,1937.6 1226.6,1919.5 1239.2,1901.7 1252.4,1884.1 1266.0,1867.0 1280.0,1850.4 1294.6,1834.3 1309.5,1818.9 1324.9,1804.2 1340.7,1790.4 1356.9,1777.3 1373.4,1765.2 1390.3,1754.0 1407.5,1743.9 1425.0,1734.7 1442.7,1726.7 1460.8,1719.7 1479.0,1713.9 1497.5,1709.2 1516.2,1705.7 1535.0,1703.3 1553.9,1702.1 1573.0,1702.1 1592.1,1703.3 1611.3,1705.6 1630.5,1709.0 1649.8,1713.5 1668.9,1719.2 1688.0,1725.8 1707.0,1733.5 1725.9,1742.2 1744.6,1751.7 1763.2,1762.2 1781.5,1773.4 1799.5,1785.4 1817.2,1798.0 1834.7,1811.3 1851.7,1825.0 1868.3,1839.2 1884.5,1853.8  Z" style="stroke-width: 0.5;  stroke: rgb(0,0,0); fill: rgb(179,177,178);" />
<path d="M 1947.898,1769.060 A 522.500,522.500 0.00 0,1 1930.1,1796.7 L 1930.1,1796.7 1911.5,1784.1 1892.4,1772.0 1872.9,1760.2 1853.0,1749.0 1832.8,1738.3 1812.3,1728.3 1791.5,1719.0 1770.5,1710.3 1749.2,1702.5 1727.8,1695.5 1706.3,1689.3 1684.6,1684.0 1662.8,1679.7 1641.0,1676.3 1619.1,1673.9 1597.3,1672.4 1575.5,1672.0 1553.7,1672.6 1532.0,1674.2 1510.4,1676.8 1489.0,1680.4 1467.7,1685.0 1446.6,1690.6 1425.8,1697.3 1405.1,1704.8 1384.7,1713.3 1364.6,1722.7 1344.8,1733.0 1325.4,1744.2 1306.2,1756.1 1287.5,1768.8 1269.1,1782.2 1251.2,1796.2 1233.6,1810.8 1216.5,1826.0 1199.9,1841.7 1183.8,1857.7 1168.2,1874.1 1153.1,1890.7  A 522.500,522.500 0.00 0,1 1129.1,1868.0 L 1129.1,1868.0 1145.4,1852.1 1162.3,1836.5 1179.7,1821.2 1197.5,1806.3 1215.8,1791.9 1234.5,1777.9 1253.7,1764.6 1273.2,1751.8 1293.1,1739.7 1313.4,1728.3 1334.0,1717.7 1354.9,1707.8 1376.1,1698.8 1397.6,1690.6 1419.3,1683.3 1441.3,1676.8 1463.4,1671.3 1485.8,1666.7 1508.2,1663.0 1530.8,1660.3 1553.5,1658.5 1576.3,1657.7 1599.2,1657.7 1622.0,1658.8 1644.9,1660.7 1667.7,1663.6 1690.4,1667.3 1713.1,1671.9 1735.6,1677.3 1758.0,1683.5 1780.3,1690.5 1802.3,1698.3 1824.0,1706.7 1845.6,1715.8 1866.8,1725.5 1887.6,1735.7 1908.1,1746.4 1928.2,1757.5 1947.9,1769.1  Z" style="stroke-width: 0.5;  stroke: rgb(0,0,0); fill: rgb(179,177,178);" />
<path d="M 1719.041,1974.370 A 522.500,522.500 0.00 0,1 1693.5,1985.4 L 1693.5,1985.4 1685.8,1966.6 1678.0,1948.0 1669.9,1929.7 1661.8,1911.9 1653.5,1894.7 1645.1,1878.2 1636.6,1862.5 1628.1,1847.7 1619.6,1834.0 1611.0,1821.3 1602.5,1809.7 1594.1,1799.4 1585.7,1790.4 1577.4,1782.6 1569.2,1776.3 1561.1,1771.4 1553.2,1767.9 1545.5,1765.9 1537.9,1765.4 1530.4,1766.3 1523.2,1768.8 1516.2,1772.7 1509.4,1778.0 1502.9,1784.8 1496.5,1793.0 1490.5,1802.6 1484.6,1813.5 1479.1,1825.6 1473.8,1838.9 1468.7,1853.3 1463.9,1868.8 1459.4,1885.3 1455.2,1902.6 1451.3,1920.7 1447.6,1939.4 1444.2,1958.7 1441.0,1978.4 1438.1,1998.4 1435.5,2018.5  A 522.500,522.500 0.00 0,1 1408.0,2014.3 L 1408.0,2014.3 1411.8,1994.3 1415.8,1974.4 1420.2,1954.8 1424.8,1935.5 1429.8,1916.9 1435.0,1898.9 1440.6,1881.6 1446.5,1865.2 1452.6,1849.7 1459.1,1835.3 1465.8,1822.0 1472.9,1809.8 1480.1,1798.9 1487.7,1789.3 1495.5,1781.0 1503.6,1774.1 1511.9,1768.6 1520.4,1764.6 1529.1,1762.0 1538.1,1760.8 1547.2,1761.1 1556.4,1762.9 1565.9,1766.1 1575.4,1770.8 1585.1,1776.8 1594.8,1784.2 1604.6,1792.9 1614.5,1802.9 1624.4,1814.0 1634.3,1826.4 1644.1,1839.8 1654.0,1854.2 1663.7,1869.5 1673.4,1885.6 1682.9,1902.4 1692.2,1919.8 1701.4,1937.7 1710.3,1955.9 1719.0,1974.4  Z" style="stroke-width: 0.5;  stroke: rgb(0,0,0); fill: rgb(179,177,178);" />
<path d="M 1563.007,981.313 A 522.500,522.500 0.00 0,1 1589.6,985.2 L 1589.6,985.2 1585.9,1005.5 1581.8,1025.5 1577.4,1045.4 1572.6,1064.8 1567.4,1083.7 1561.8,1102.0 1555.9,1119.6 1549.5,1136.4 1542.8,1152.2 1535.7,1167.1 1528.2,1180.9 1520.3,1193.6 1512.1,1205.1 1503.4,1215.4 1494.5,1224.4 1485.2,1232.0 1475.5,1238.3 1465.6,1243.2 1455.3,1246.7 1444.8,1248.8 1433.9,1249.5 1422.8,1248.7 1411.5,1246.6 1400.0,1243.1 1388.3,1238.2 1376.4,1232.0 1364.4,1224.5 1352.3,1215.8 1340.1,1205.9 1327.9,1194.8 1315.6,1182.7 1303.3,1169.6 1291.1,1155.6 1279.0,1140.8 1267.0,1125.3 1255.1,1109.2 1243.5,1092.6 1232.1,1075.5 1220.9,1058.3  A 522.500,522.500 0.00 0,1 1244.0,1044.5 L 1244.0,1044.5 1254.1,1062.3 1264.5,1079.7 1275.1,1096.9 1285.9,1113.5 1296.8,1129.5 1307.8,1144.8 1318.8,1159.3 1329.9,1172.9 1340.9,1185.5 1351.9,1197.0 1362.8,1207.4 1373.6,1216.6 1384.3,1224.5 1394.9,1231.1 1405.2,1236.4 1415.4,1240.3 1425.3,1242.8 1435.0,1243.8 1444.4,1243.5 1453.6,1241.7 1462.4,1238.4 1471.0,1233.7 1479.2,1227.6 1487.1,1220.2 1494.7,1211.3 1501.9,1201.2 1508.8,1189.8 1515.3,1177.2 1521.4,1163.4 1527.2,1148.6 1532.6,1132.7 1537.6,1115.9 1542.3,1098.3 1546.6,1080.0 1550.6,1061.0 1554.2,1041.6 1557.4,1021.7 1560.4,1001.6 1563.0,981.3  Z" style="stroke-width: 0.5;  stroke: rgb(0,0,0); fill: rgb(179,177,178);" />
<path d="M 1938.542,1215.945 A 522.500,522.500 0.00 0,1 1952.2,1238.2 L 1952.2,1238.2 1930.8,1250.3 1909.1,1262.3 1887.0,1274.1 1864.6,1285.5 1841.8,1296.7 1818.8,1307.6 1795.5,1318.1 1771.9,1328.3 1748.0,1338.0 1723.9,1347.4 1699.5,1356.3 1674.9,1364.8 1650.1,1372.8 1625.1,1380.4 1599.9,1387.5 1574.6,1394.0 1549.1,1400.1 1523.5,1405.7 1497.7,1410.7 1471.9,1415.2 1445.9,1419.2 1419.9,1422.7 1393.9,1425.6 1367.8,1428.0 1341.7,1429.9 1315.7,1431.3 1289.6,1432.2 1263.6,1432.5 1237.6,1432.4 1211.8,1431.8 1186.0,1430.7 1160.3,1429.2 1134.8,1427.2 1109.5,1424.8 1084.3,1422.0 1059.3,1418.8 1034.6,1415.2 1010.1,1411.3 985.8,1407.1  A 522.500,522.500 0.00 0,1 991.1,1381.4 L 991.1,1381.4 1014.8,1386.7 1038.8,1391.7 1063.1,1396.3 1087.6,1400.6 1112.4,1404.4 1137.3,1407.7 1162.5,1410.6 1187.7,1413.0 1213.2,1414.9 1238.7,1416.3 1264.3,1417.1 1290.0,1417.3 1315.7,1417.0 1341.5,1416.1 1367.2,1414.7 1393.0,1412.6 1418.7,1410.0 1444.3,1406.7 1469.9,1402.9 1495.4,1398.4 1520.8,1393.4 1546.0,1387.7 1571.1,1381.5 1596.0,1374.7 1620.7,1367.4 1645.2,1359.5 1669.6,1351.1 1693.6,1342.1 1717.5,1332.7 1741.0,1322.7 1764.3,1312.3 1787.3,1301.5 1809.9,1290.3 1832.3,1278.7 1854.3,1266.7 1875.9,1254.4 1897.2,1241.8 1918.0,1229.0 1938.5,1215.9  Z" style="stroke-width: 0.5;  stroke: rgb(0,0,0); fill: rgb(179,177,178);" />
<path d="M 1792.762,1932.778 A 522.500,522.500 0.00 0,1 1771.0,1946.7 L 1771.0,1946.7 1760.1,1929.2 1748.8,1911.8 1737.3,1894.9 1725.5,1878.4 1713.5,1862.6 1701.3,1847.4 1688.9,1833.1 1676.4,1819.7 1663.8,1807.2 1651.2,1795.8 1638.5,1785.4 1625.7,1776.3 1613.0,1768.4 1600.3,1761.7 1587.7,1756.4 1575.2,1752.4 1562.7,1749.7 1550.4,1748.5 1538.3,1748.6 1526.3,1750.2 1514.5,1753.1 1502.9,1757.5 1491.6,1763.2 1480.5,1770.2 1469.6,1778.6 1459.1,1788.3 1448.8,1799.2 1438.8,1811.3 1429.1,1824.5 1419.8,1838.8 1410.8,1854.1 1402.1,1870.3 1393.8,1887.3 1385.9,1905.0 1378.3,1923.4 1371.1,1942.3 1364.3,1961.6 1357.8,1981.3 1351.8,2001.0  A 522.500,522.500 0.00 0,1 1327.3,1993.1 L 1327.3,1993.1 1334.4,1973.5 1341.9,1954.1 1349.8,1935.0 1358.1,1916.3 1366.8,1898.1 1376.0,1880.5 1385.5,1863.7 1395.3,1847.6 1405.6,1832.5 1416.2,1818.3 1427.1,1805.2 1438.3,1793.2 1449.9,1782.4 1461.7,1772.7 1473.9,1764.3 1486.3,1757.2 1498.9,1751.4 1511.8,1747.0 1524.9,1743.9 1538.1,1742.2 1551.6,1741.8 1565.2,1742.8 1578.9,1745.2 1592.7,1748.9 1606.5,1753.9 1620.5,1760.2 1634.4,1767.8 1648.3,1776.5 1662.2,1786.4 1676.1,1797.4 1689.9,1809.5 1703.5,1822.4 1717.0,1836.3 1730.3,1851.0 1743.3,1866.3 1756.2,1882.3 1768.7,1898.8 1780.9,1915.6 1792.8,1932.8  Z" style="stroke-width: 0.5;  stroke: rgb(0,0,0); fill: rgb(179,177,178);" />
<path d="M 1741.848,1963.158 A 522.500,522.500 0.00 0,1 1719.0,1974.4 L 1719.0,1974.4 1710.3,1955.9 1701.4,1937.7 1692.2,1919.8 1682.9,1902.4 1673.3,1885.6 1663.7,1869.5 1653.9,1854.2 1644.1,1839.8 1634.2,1826.4 1624.3,1814.0 1614.4,1802.8 1604.5,1792.9 1594.7,1784.1 1584.9,1776.8 1575.2,1770.7 1565.7,1766.1 1556.2,1762.9 1546.9,1761.1 1537.8,1760.8 1528.9,1761.9 1520.1,1764.5 1511.5,1768.6 1503.2,1774.0 1495.1,1780.9 1487.3,1789.2 1479.7,1798.8 1472.3,1809.7 1465.3,1821.9 1458.5,1835.2 1452.0,1849.6 1445.8,1865.1 1439.9,1881.5 1434.3,1898.7 1429.0,1916.7 1424.0,1935.4 1419.3,1954.6 1414.9,1974.2 1410.8,1994.1 1407.0,2014.2  A 522.500,522.500 0.00 0,1 1382.4,2009.1 L 1382.4,2009.1 1387.2,1989.1 1392.3,1969.3 1397.7,1949.8 1403.6,1930.7 1409.7,1912.2 1416.2,1894.3 1423.0,1877.1 1430.1,1860.8 1437.6,1845.4 1445.3,1831.0 1453.4,1817.7 1461.8,1805.6 1470.4,1794.7 1479.3,1785.0 1488.5,1776.7 1497.9,1769.7 1507.6,1764.1 1517.5,1760.0 1527.6,1757.2 1537.9,1755.9 1548.4,1756.0 1559.0,1757.6 1569.8,1760.5 1580.7,1764.9 1591.7,1770.7 1602.7,1777.8 1613.8,1786.1 1625.0,1795.8 1636.1,1806.6 1647.3,1818.6 1658.3,1831.6 1669.3,1845.6 1680.2,1860.5 1691.0,1876.2 1701.6,1892.7 1712.1,1909.7 1722.3,1927.2 1732.2,1945.0 1741.8,1963.2  Z" style="stroke-width: 0.5;  stroke: rgb(0,0,0); fill: rgb(179,177,178);" />
<path d="M 1719.819,1025.990 A 522.500,522.500 0.00 0,1 1741.1,1036.4 L 1741.1,1036.4 1730.8,1055.5 1720.1,1074.4 1708.9,1093.0 1697.1,1111.2 1684.9,1129.0 1672.1,1146.2 1658.9,1162.8 1645.2,1178.6 1631.1,1193.7 1616.5,1208.0 1601.5,1221.3 1586.1,1233.7 1570.3,1245.1 1554.1,1255.5 1537.6,1264.8 1520.7,1273.0 1503.5,1280.0 1486.0,1285.9 1468.3,1290.6 1450.3,1294.1 1432.1,1296.5 1413.7,1297.6 1395.1,1297.6 1376.4,1296.4 1357.5,1294.0 1338.6,1290.6 1319.7,1286.0 1300.7,1280.3 1281.8,1273.6 1262.9,1265.9 1244.1,1257.3 1225.5,1247.8 1207.0,1237.4 1188.7,1226.3 1170.6,1214.5 1152.9,1202.1 1135.4,1189.1 1118.3,1175.6 1101.7,1161.8  A 522.500,522.500 0.00 0,1 1117.3,1144.3 L 1117.3,1144.3 1133.2,1158.7 1149.4,1172.7 1166.1,1186.3 1183.0,1199.4 1200.3,1211.9 1217.7,1223.6 1235.4,1234.6 1253.2,1244.7 1271.1,1253.9 1289.1,1262.1 1307.2,1269.3 1325.2,1275.5 1343.2,1280.5 1361.2,1284.4 1379.1,1287.2 1396.9,1288.7 1414.5,1289.1 1431.9,1288.2 1449.2,1286.1 1466.2,1282.7 1482.9,1278.2 1499.4,1272.4 1515.6,1265.4 1531.5,1257.3 1547.0,1248.0 1562.1,1237.6 1576.9,1226.1 1591.3,1213.5 1605.3,1200.0 1618.9,1185.6 1632.0,1170.3 1644.6,1154.2 1656.8,1137.4 1668.6,1119.9 1679.8,1101.9 1690.6,1083.4 1700.8,1064.5 1710.6,1045.3 1719.8,1026.0  Z" style="stroke-width: 0.5;  stroke: rgb(0,0,0); fill: rgb(179,177,178);" />
<path d="M 1859.457,1879.206 A 522.500,522.500 0.00 0,1 1843.8,1893.4 L 1843.8,1893.4 1829.6,1877.6 1815.0,1862.0 1800.0,1846.8 1784.6,1832.2 1769.0,1818.2 1753.0,1804.8 1736.9,1792.2 1720.5,1780.5 1703.9,1769.7 1687.2,1759.9 1670.4,1751.1 1653.5,1743.3 1636.6,1736.7 1619.7,1731.3 1602.7,1727.1 1585.8,1724.0 1569.0,1722.3 1552.2,1721.7 1535.6,1722.5 1519.1,1724.5 1502.8,1727.8 1486.7,1732.3 1470.8,1738.1 1455.1,1745.1 1439.7,1753.3 1424.6,1762.7 1409.7,1773.2 1395.2,1784.8 1381.0,1797.4 1367.2,1811.0 1353.8,1825.4 1340.7,1840.8 1328.0,1856.9 1315.8,1873.7 1304.0,1891.1 1292.6,1909.0 1281.7,1927.3 1271.3,1946.0 1261.3,1964.8  A 522.500,522.500 0.00 0,1 1242.8,1954.8 L 1242.8,1954.8 1253.6,1936.2 1264.9,1917.9 1276.6,1899.8 1288.9,1882.2 1301.6,1865.1 1314.7,1848.6 1328.3,1832.7 1342.3,1817.7 1356.6,1803.4 1371.4,1790.0 1386.5,1777.6 1402.0,1766.2 1417.7,1755.8 1433.8,1746.5 1450.1,1738.4 1466.7,1731.4 1483.6,1725.6 1500.6,1721.0 1517.9,1717.6 1535.3,1715.5 1552.8,1714.6 1570.4,1714.9 1588.2,1716.5 1606.0,1719.3 1623.8,1723.2 1641.6,1728.3 1659.4,1734.6 1677.2,1742.0 1694.9,1750.4 1712.4,1759.8 1729.8,1770.1 1747.0,1781.4 1764.0,1793.5 1780.7,1806.4 1797.2,1819.9 1813.3,1834.1 1829.1,1848.7 1844.5,1863.8 1859.5,1879.2  Z" style="stroke-width: 0.5;  stroke: rgb(0,0,0); fill: rgb(179,177,178);" />
<path d="M 2022.464,1493.877 A 522.500,522.500 0.00 0,1 2022.3,1514.6 L 2022.3,1514.6 1996.1,1513.9 1969.9,1513.3 1943.6,1512.9 1917.2,1512.5 1890.7,1512.3 1864.1,1512.2 1837.5,1512.3 1810.8,1512.4 1784.1,1512.7 1757.3,1513.2 1730.5,1513.8 1703.7,1514.6 1676.8,1515.4 1649.9,1516.5 1623.0,1517.7 1596.1,1519.1 1569.2,1520.6 1542.2,1522.2 1515.3,1524.1 1488.4,1526.0 1461.5,1528.2 1434.6,1530.5 1407.7,1532.9 1380.9,1535.5 1354.1,1538.3 1327.3,1541.2 1300.6,1544.2 1274.0,1547.4 1247.4,1550.7 1220.8,1554.2 1194.3,1557.8 1167.9,1561.5 1141.6,1565.4 1115.3,1569.3 1089.2,1573.4 1063.1,1577.6 1037.1,1581.9 1011.2,1586.3 985.5,1590.8  A 522.500,522.500 0.00 0,1 982.3,1570.4 L 982.3,1570.4 1008.4,1566.9 1034.7,1563.4 1061.0,1560.0 1087.3,1556.7 1113.8,1553.4 1140.2,1550.2 1166.7,1547.1 1193.3,1544.0 1219.9,1541.1 1246.6,1538.2 1273.2,1535.4 1300.0,1532.7 1326.7,1530.0 1353.5,1527.5 1380.3,1525.0 1407.1,1522.7 1434.0,1520.4 1460.8,1518.3 1487.7,1516.2 1514.6,1514.2 1541.4,1512.3 1568.3,1510.5 1595.2,1508.9 1622.1,1507.3 1649.0,1505.8 1675.8,1504.3 1702.7,1503.0 1729.5,1501.8 1756.3,1500.7 1783.1,1499.6 1809.8,1498.7 1836.6,1497.8 1863.3,1497.0 1889.9,1496.3 1916.5,1495.7 1943.1,1495.1 1969.6,1494.6 1996.1,1494.2 2022.5,1493.9  Z" style="stroke-width: 0.5;  stroke: rgb(0,0,0); fill: rgb(179,177,178);" />
<path d="M 1898.750,1837.646 A 522.500,522.500 0.00 0,1 1885.7,1852.5 L 1885.7,1852.5 1869.4,1838.0 1852.7,1823.8 1835.6,1810.1 1818.2,1796.9 1800.4,1784.3 1782.3,1772.4 1763.9,1761.2 1745.3,1750.8 1726.6,1741.3 1707.6,1732.7 1688.5,1725.0 1669.4,1718.4 1650.1,1712.8 1630.9,1708.3 1611.6,1704.9 1592.3,1702.6 1573.1,1701.5 1554.0,1701.5 1535.0,1702.7 1516.1,1705.1 1497.4,1708.6 1478.9,1713.3 1460.5,1719.2 1442.4,1726.1 1424.6,1734.2 1407.0,1743.3 1389.8,1753.5 1372.9,1764.6 1356.3,1776.7 1340.0,1789.7 1324.2,1803.6 1308.7,1818.3 1293.7,1833.6 1279.1,1849.7 1265.0,1866.3 1251.3,1883.4 1238.1,1900.9 1225.4,1918.7 1213.3,1936.8  A 522.500,522.500 0.00 0,1 1196.8,1925.5 L 1196.8,1925.5 1209.7,1907.8 1223.2,1890.3 1237.2,1873.1 1251.7,1856.4 1266.6,1840.1 1282.0,1824.4 1297.8,1809.3 1314.1,1795.0 1330.7,1781.4 1347.8,1768.6 1365.2,1756.7 1382.9,1745.8 1401.0,1735.7 1419.3,1726.8 1438.0,1718.8 1456.8,1711.9 1476.0,1706.1 1495.3,1701.4 1514.8,1697.8 1534.4,1695.3 1554.2,1694.0 1574.1,1693.8 1594.1,1694.7 1614.1,1696.7 1634.1,1699.9 1654.1,1704.1 1674.1,1709.3 1694.0,1715.6 1713.7,1722.8 1733.4,1731.0 1752.9,1740.0 1772.2,1750.0 1791.2,1760.6 1810.0,1772.1 1828.5,1784.2 1846.7,1796.8 1864.5,1810.0 1881.8,1823.7 1898.7,1837.6  Z" style="stroke-width: 0.5;  stroke: rgb(0,0,0); fill: rgb(179,177,178);" />
<path d="M 2006.207,1370.537 A 522.500,522.500 0.00 0,1 2010.3,1387.6 L 2010.3,1387.6 1984.3,1393.3 1958.4,1398.9 1932.3,1404.5 1906.3,1410.1 1880.2,1415.6 1854.1,1421.1 1827.9,1426.6 1801.7,1432.0 1775.4,1437.3 1749.1,1442.6 1722.8,1447.9 1696.5,1453.0 1670.1,1458.2 1643.7,1463.2 1617.3,1468.3 1590.9,1473.2 1564.4,1478.1 1538.0,1482.9 1511.5,1487.7 1485.0,1492.4 1458.5,1497.1 1432.0,1501.7 1405.5,1506.2 1378.9,1510.7 1352.4,1515.0 1325.9,1519.4 1299.4,1523.7 1272.9,1527.9 1246.4,1532.0 1219.9,1536.1 1193.4,1540.1 1166.9,1544.1 1140.5,1548.0 1114.0,1551.9 1087.6,1555.7 1061.2,1559.4 1034.9,1563.1 1008.6,1566.8 982.3,1570.4  A 522.500,522.500 0.00 0,1 980.2,1552.9 L 980.2,1552.9 1006.4,1550.2 1032.6,1547.4 1058.9,1544.5 1085.3,1541.6 1111.7,1538.5 1138.1,1535.3 1164.6,1532.0 1191.1,1528.7 1217.6,1525.2 1244.2,1521.6 1270.8,1517.9 1297.3,1514.1 1323.9,1510.2 1350.5,1506.1 1377.1,1502.0 1403.7,1497.7 1430.3,1493.3 1456.9,1488.8 1483.5,1484.2 1510.1,1479.5 1536.6,1474.7 1563.1,1469.7 1589.6,1464.7 1616.0,1459.5 1642.4,1454.2 1668.8,1448.9 1695.1,1443.4 1721.4,1437.8 1747.6,1432.1 1773.8,1426.3 1799.9,1420.5 1825.9,1414.5 1851.9,1408.4 1877.8,1402.3 1903.6,1396.1 1929.4,1389.8 1955.1,1383.4 1980.7,1377.0 2006.2,1370.5  Z" style="stroke-width: 0.5;  stroke: rgb(0,0,0); fill: rgb(179,177,178);" />
<path d="M 1964.179,1260.117 A 522.500,522.500 0.00 0,1 1971.8,1275.5 L 1971.8,1275.5 1949.1,1286.2 1926.0,1296.7 1902.7,1307.0 1879.2,1317.1 1855.3,1327.0 1831.3,1336.6 1807.0,1345.9 1782.4,1355.0 1757.7,1363.7 1732.8,1372.2 1707.7,1380.3 1682.4,1388.0 1656.9,1395.4 1631.3,1402.5 1605.5,1409.2 1579.6,1415.5 1553.6,1421.4 1527.5,1426.9 1501.3,1432.1 1475.0,1436.8 1448.7,1441.1 1422.3,1445.1 1395.9,1448.6 1369.4,1451.7 1342.9,1454.4 1316.5,1456.8 1290.0,1458.7 1263.6,1460.3 1237.2,1461.4 1210.9,1462.2 1184.7,1462.7 1158.6,1462.8 1132.5,1462.5 1106.6,1461.9 1080.9,1461.0 1055.2,1459.7 1029.8,1458.2 1004.5,1456.4 979.5,1454.3  A 522.500,522.500 0.00 0,1 981.2,1437.5 L 981.2,1437.5 1006.0,1440.4 1031.0,1442.9 1056.2,1445.2 1081.6,1447.1 1107.2,1448.7 1132.9,1449.9 1158.8,1450.8 1184.7,1451.2 1210.8,1451.3 1237.0,1451.0 1263.2,1450.3 1289.5,1449.1 1315.8,1447.5 1342.2,1445.5 1368.5,1443.0 1394.9,1440.1 1421.2,1436.7 1447.4,1432.9 1473.6,1428.7 1499.8,1423.9 1525.8,1418.8 1551.7,1413.2 1577.6,1407.1 1603.3,1400.7 1628.8,1393.8 1654.2,1386.5 1679.4,1378.8 1704.4,1370.7 1729.3,1362.2 1753.9,1353.3 1778.3,1344.1 1802.5,1334.6 1826.4,1324.7 1850.1,1314.6 1873.5,1304.2 1896.6,1293.5 1919.4,1282.6 1942.0,1271.4 1964.2,1260.1  Z" style="stroke-width: 0.5;  stroke: rgb(0,0,0); fill: rgb(179,177,178);" />
<path d="M 1757.089,1954.875 A 522.500,522.500 0.00 0,1 1742.2,1963.0 L 1742.2,1963.0 1732.5,1944.9 1722.6,1927.0 1712.3,1909.5 1701.9,1892.5 1691.3,1876.1 1680.5,1860.4 1669.5,1845.5 1658.5,1831.5 1647.4,1818.4 1636.2,1806.5 1625.0,1795.6 1613.8,1786.0 1602.7,1777.6 1591.6,1770.5 1580.5,1764.8 1569.6,1760.4 1558.8,1757.4 1548.1,1755.8 1537.6,1755.7 1527.2,1757.0 1517.0,1759.8 1507.1,1763.9 1497.3,1769.5 1487.8,1776.5 1478.6,1784.8 1469.6,1794.4 1460.9,1805.3 1452.4,1817.4 1444.3,1830.7 1436.5,1845.1 1428.9,1860.5 1421.7,1876.8 1414.9,1893.9 1408.3,1911.8 1402.1,1930.4 1396.2,1949.5 1390.7,1968.9 1385.5,1988.7 1380.6,2008.7  A 522.500,522.500 0.00 0,1 1364.2,2004.5 L 1364.2,2004.5 1369.8,1984.7 1375.7,1965.0 1381.9,1945.6 1388.5,1926.6 1395.5,1908.2 1402.9,1890.4 1410.5,1873.3 1418.6,1857.0 1426.9,1841.7 1435.6,1827.4 1444.6,1814.2 1453.9,1802.1 1463.5,1791.2 1473.3,1781.6 1483.4,1773.2 1493.8,1766.2 1504.4,1760.6 1515.3,1756.3 1526.3,1753.5 1537.6,1752.1 1549.0,1752.1 1560.5,1753.5 1572.2,1756.3 1584.0,1760.5 1595.9,1766.1 1607.9,1772.9 1619.9,1781.1 1631.9,1790.5 1643.9,1801.1 1655.8,1812.8 1667.7,1825.5 1679.5,1839.3 1691.2,1853.9 1702.8,1869.3 1714.1,1885.5 1725.3,1902.2 1736.2,1919.4 1746.8,1937.0 1757.1,1954.9  Z" style="stroke-width: 0.5;  stroke: rgb(0,0,0); fill: rgb(179,177,178);" />
<path d="M 1864.638,1125.773 A 522.500,522.500 0.00 0,1 1875.7,1136.9 L 1875.7,1136.9 1858.9,1152.7 1841.7,1168.3 1823.9,1183.6 1805.7,1198.6 1787.0,1213.1 1767.9,1227.2 1748.4,1240.7 1728.4,1253.7 1708.1,1266.0 1687.4,1277.7 1666.3,1288.7 1644.9,1299.0 1623.3,1308.6 1601.3,1317.3 1579.1,1325.3 1556.6,1332.4 1533.9,1338.7 1511.0,1344.1 1487.9,1348.7 1464.7,1352.3 1441.3,1355.2 1417.8,1357.1 1394.3,1358.1 1370.7,1358.3 1347.1,1357.7 1323.5,1356.1 1299.9,1353.8 1276.4,1350.6 1253.0,1346.7 1229.7,1342.0 1206.5,1336.5 1183.6,1330.4 1160.8,1323.5 1138.3,1316.1 1116.0,1308.1 1094.0,1299.5 1072.4,1290.4 1051.2,1280.9 1030.3,1271.0  A 522.500,522.500 0.00 0,1 1037.4,1257.1 L 1037.4,1257.1 1057.8,1267.5 1078.6,1277.6 1099.8,1287.2 1121.3,1296.3 1143.1,1304.8 1165.3,1312.8 1187.6,1320.0 1210.2,1326.7 1233.0,1332.5 1255.9,1337.7 1278.9,1342.0 1302.0,1345.5 1325.1,1348.2 1348.3,1350.0 1371.5,1350.9 1394.7,1350.9 1417.8,1350.0 1440.9,1348.2 1463.8,1345.5 1486.6,1341.9 1509.2,1337.4 1531.7,1332.0 1553.9,1325.6 1576.0,1318.4 1597.7,1310.4 1619.2,1301.5 1640.4,1291.8 1661.3,1281.3 1681.9,1270.0 1702.0,1258.1 1721.9,1245.4 1741.3,1232.1 1760.3,1218.3 1778.8,1203.9 1797.0,1189.0 1814.6,1173.7 1831.8,1158.0 1848.5,1142.0 1864.6,1125.8  Z" style="stroke-width: 0.5;  stroke: rgb(0,0,0); fill: rgb(179,177,178);" />
<path d="M 1980.006,1293.602 A 522.500,522.500 0.00 0,1 1985.7,1307.5 L 1985.7,1307.5 1961.9,1316.8 1937.9,1326.0 1913.7,1335.0 1889.2,1343.9 1864.6,1352.6 1839.8,1361.1 1814.8,1369.4 1789.7,1377.5 1764.3,1385.3 1738.9,1392.9 1713.3,1400.3 1687.5,1407.4 1661.7,1414.3 1635.7,1420.9 1609.6,1427.2 1583.4,1433.2 1557.2,1439.0 1530.8,1444.5 1504.4,1449.6 1477.9,1454.5 1451.4,1459.1 1424.8,1463.4 1398.2,1467.4 1371.6,1471.1 1345.0,1474.5 1318.4,1477.6 1291.8,1480.4 1265.2,1483.0 1238.6,1485.2 1212.1,1487.2 1185.7,1488.9 1159.3,1490.3 1133.0,1491.5 1106.8,1492.4 1080.7,1493.0 1054.7,1493.5 1028.8,1493.7 1003.1,1493.6 977.5,1493.4  A 522.500,522.500 0.00 0,1 978.0,1478.1 L 978.0,1478.1 1003.3,1479.0 1028.9,1479.8 1054.6,1480.2 1080.4,1480.5 1106.4,1480.4 1132.5,1480.1 1158.7,1479.5 1185.0,1478.6 1211.4,1477.4 1237.8,1475.8 1264.3,1474.0 1290.9,1471.8 1317.4,1469.3 1344.0,1466.5 1370.6,1463.3 1397.1,1459.8 1423.7,1456.0 1450.2,1451.8 1476.6,1447.3 1503.1,1442.4 1529.4,1437.2 1555.7,1431.7 1581.8,1425.8 1607.9,1419.7 1633.8,1413.1 1659.7,1406.3 1685.4,1399.2 1711.0,1391.8 1736.4,1384.1 1761.6,1376.1 1786.7,1367.8 1811.6,1359.3 1836.3,1350.5 1860.8,1341.5 1885.1,1332.3 1909.2,1322.9 1933.0,1313.3 1956.6,1303.5 1980.0,1293.6  Z" style="stroke-width: 0.5;  stroke: rgb(0,0,0); fill: rgb(179,177,178);" />
<path d="M 1989.798,1318.053 A 522.500,522.500 0.00 0,1 1994.7,1331.9 L 1994.7,1331.9 1970.2,1340.1 1945.5,1348.3 1920.7,1356.3 1895.7,1364.2 1870.5,1371.9 1845.2,1379.5 1819.8,1386.9 1794.3,1394.2 1768.6,1401.3 1742.8,1408.2 1716.9,1414.9 1690.9,1421.4 1664.8,1427.7 1638.7,1433.9 1612.4,1439.8 1586.1,1445.5 1559.7,1450.9 1533.2,1456.2 1506.7,1461.2 1480.1,1466.0 1453.5,1470.6 1426.9,1475.0 1400.3,1479.1 1373.6,1483.0 1346.9,1486.7 1320.3,1490.2 1293.6,1493.4 1267.0,1496.4 1240.4,1499.2 1213.8,1501.8 1187.3,1504.1 1160.8,1506.3 1134.4,1508.2 1108.1,1510.0 1081.8,1511.6 1055.6,1513.0 1029.6,1514.2 1003.6,1515.2 977.7,1516.1  A 522.500,522.500 0.00 0,1 977.5,1500.8 L 977.5,1500.8 1003.2,1500.7 1029.0,1500.4 1055.0,1499.9 1081.0,1499.1 1107.2,1498.2 1133.5,1497.0 1159.8,1495.6 1186.3,1494.0 1212.7,1492.1 1239.3,1490.0 1265.9,1487.6 1292.5,1484.9 1319.1,1482.0 1345.8,1478.8 1372.4,1475.4 1399.1,1471.7 1425.7,1467.7 1452.3,1463.4 1478.9,1458.9 1505.4,1454.1 1531.9,1449.1 1558.3,1443.7 1584.6,1438.2 1610.9,1432.3 1637.1,1426.2 1663.2,1419.9 1689.1,1413.3 1715.0,1406.5 1740.7,1399.4 1766.3,1392.1 1791.8,1384.6 1817.2,1376.9 1842.3,1369.0 1867.4,1360.9 1892.2,1352.7 1916.9,1344.2 1941.4,1335.6 1965.7,1326.9 1989.8,1318.1  Z" style="stroke-width: 0.5;  stroke: rgb(0,0,0); fill: rgb(179,177,178);" />
<path d="M 2010.601,1610.874 A 522.500,522.500 0.00 0,1 2007.5,1624.3 L 2007.5,1624.3 1983.5,1618.6 1959.2,1613.1 1934.6,1608.0 1909.8,1603.2 1884.8,1598.8 1859.5,1594.7 1834.1,1591.0 1808.5,1587.8 1782.8,1584.9 1756.9,1582.6 1731.0,1580.6 1704.9,1579.2 1678.7,1578.2 1652.5,1577.7 1626.3,1577.6 1600.0,1578.1 1573.7,1579.1 1547.4,1580.6 1521.1,1582.6 1494.9,1585.1 1468.8,1588.1 1442.7,1591.7 1416.7,1595.7 1390.8,1600.2 1365.0,1605.2 1339.3,1610.6 1313.9,1616.6 1288.5,1623.0 1263.4,1629.8 1238.4,1637.0 1213.7,1644.7 1189.2,1652.8 1165.0,1661.2 1141.0,1670.0 1117.2,1679.1 1093.8,1688.5 1070.6,1698.2 1047.8,1708.1 1025.3,1718.3  A 522.500,522.500 0.00 0,1 1019.8,1706.0 L 1019.8,1706.0 1042.7,1696.3 1065.9,1686.9 1089.4,1677.7 1113.2,1668.7 1137.3,1660.1 1161.6,1651.7 1186.1,1643.7 1210.9,1636.0 1235.9,1628.7 1261.0,1621.8 1286.4,1615.3 1311.9,1609.2 1337.6,1603.5 1363.5,1598.2 1389.4,1593.4 1415.5,1589.0 1441.7,1585.1 1467.9,1581.6 1494.2,1578.6 1520.6,1576.1 1547.0,1574.0 1573.4,1572.4 1599.9,1571.3 1626.3,1570.6 1652.7,1570.4 1679.1,1570.7 1705.4,1571.4 1731.6,1572.6 1757.8,1574.1 1783.8,1576.1 1809.7,1578.6 1835.5,1581.4 1861.1,1584.6 1886.6,1588.2 1911.8,1592.1 1936.9,1596.3 1961.7,1600.9 1986.3,1605.7 2010.6,1610.9  Z" style="stroke-width: 0.5;  stroke: rgb(0,0,0); fill: rgb(179,177,178);" />
<path d="M 1628.552,993.561 A 522.500,522.500 0.00 0,1 1641.4,997.0 L 1641.4,997.0 1635.5,1017.0 1629.3,1036.9 1622.5,1056.5 1615.4,1075.7 1607.8,1094.5 1599.7,1112.6 1591.3,1130.0 1582.4,1146.7 1573.1,1162.5 1563.3,1177.4 1553.2,1191.2 1542.6,1204.0 1531.7,1215.6 1520.3,1226.1 1508.6,1235.3 1496.6,1243.3 1484.2,1249.9 1471.5,1255.3 1458.5,1259.3 1445.2,1262.0 1431.7,1263.3 1417.9,1263.3 1403.9,1261.9 1389.7,1259.2 1375.3,1255.2 1360.9,1250.0 1346.3,1243.5 1331.6,1235.8 1316.9,1226.9 1302.1,1217.0 1287.4,1206.0 1272.8,1194.1 1258.2,1181.3 1243.8,1167.7 1229.6,1153.3 1215.5,1138.4 1201.8,1122.9 1188.3,1107.0 1175.1,1090.8  A 522.500,522.500 0.00 0,1 1185.5,1082.8 L 1185.5,1082.8 1198.1,1099.3 1211.1,1115.4 1224.4,1131.2 1238.0,1146.4 1251.7,1161.1 1265.6,1175.0 1279.6,1188.1 1293.7,1200.3 1307.8,1211.5 1322.0,1221.7 1336.1,1230.8 1350.2,1238.8 1364.2,1245.5 1378.1,1251.0 1391.8,1255.2 1405.4,1258.0 1418.8,1259.6 1431.9,1259.8 1444.8,1258.6 1457.5,1256.1 1469.8,1252.1 1481.9,1246.9 1493.6,1240.3 1505.0,1232.4 1516.0,1223.2 1526.7,1212.8 1537.0,1201.1 1546.9,1188.4 1556.4,1174.5 1565.5,1159.6 1574.2,1143.8 1582.5,1127.1 1590.3,1109.6 1597.8,1091.4 1604.8,1072.6 1611.4,1053.3 1617.5,1033.6 1623.2,1013.7 1628.6,993.6  Z" style="stroke-width: 0.5;  stroke: rgb(0,0,0); fill: rgb(179,177,178);" />
<path d="M 2000.687,1649.396 A 522.500,522.500 0.00 0,1 1996.8,1661.8 L 1996.8,1661.8 1973.7,1654.5 1950.3,1647.5 1926.5,1640.8 1902.5,1634.5 1878.2,1628.7 1853.6,1623.2 1828.9,1618.3 1804.0,1613.8 1778.8,1609.8 1753.6,1606.3 1728.1,1603.4 1702.6,1601.1 1677.0,1599.3 1651.3,1598.1 1625.6,1597.5 1599.8,1597.5 1574.1,1598.1 1548.3,1599.3 1522.6,1601.1 1496.9,1603.6 1471.3,1606.6 1445.7,1610.3 1420.3,1614.5 1395.0,1619.4 1369.8,1624.8 1344.9,1630.8 1320.0,1637.4 1295.4,1644.5 1271.0,1652.2 1246.8,1660.3 1222.9,1669.0 1199.3,1678.1 1175.9,1687.6 1152.8,1697.6 1130.1,1707.9 1107.6,1718.6 1085.6,1729.6 1063.9,1740.9 1042.6,1752.5  A 522.500,522.500 0.00 0,1 1036.4,1741.1 L 1036.4,1741.1 1058.2,1730.0 1080.3,1719.1 1102.7,1708.5 1125.5,1698.3 1148.6,1688.3 1172.0,1678.8 1195.7,1669.6 1219.6,1660.8 1243.8,1652.5 1268.3,1644.7 1292.9,1637.3 1317.8,1630.4 1342.9,1624.1 1368.1,1618.2 1393.5,1613.0 1419.0,1608.2 1444.6,1604.0 1470.4,1600.4 1496.2,1597.4 1522.1,1594.9 1548.0,1593.1 1574.0,1591.7 1599.9,1591.0 1625.9,1590.9 1651.8,1591.3 1677.7,1592.2 1703.5,1593.8 1729.2,1595.8 1754.8,1598.4 1780.3,1601.5 1805.7,1605.1 1830.9,1609.2 1855.8,1613.8 1880.6,1618.8 1905.2,1624.2 1929.5,1629.9 1953.5,1636.1 1977.3,1642.6 2000.7,1649.4  Z" style="stroke-width: 0.5;  stroke: rgb(0,0,0); fill: rgb(179,177,178);" />
<path d="M 1597.976,986.768 A 522.500,522.500 0.00 0,1 1609.8,989.2 L 1609.8,989.2 1605.3,1009.3 1600.3,1029.4 1595.0,1049.1 1589.3,1068.5 1583.1,1087.4 1576.6,1105.7 1569.6,1123.2 1562.3,1140.0 1554.5,1155.9 1546.3,1170.8 1537.8,1184.7 1528.8,1197.4 1519.4,1209.0 1509.7,1219.4 1499.6,1228.5 1489.2,1236.3 1478.4,1242.8 1467.3,1247.9 1455.9,1251.7 1444.2,1254.0 1432.3,1255.0 1420.1,1254.6 1407.6,1252.8 1395.0,1249.6 1382.1,1245.2 1369.1,1239.4 1356.0,1232.3 1342.8,1224.0 1329.5,1214.6 1316.2,1204.0 1302.9,1192.4 1289.6,1179.8 1276.4,1166.3 1263.2,1152.0 1250.3,1137.0 1237.5,1121.4 1224.9,1105.2 1212.6,1088.7 1200.5,1071.8  A 522.500,522.500 0.00 0,1 1210.5,1065.0 L 1210.5,1065.0 1222.1,1082.1 1234.0,1098.8 1246.1,1115.2 1258.4,1131.1 1270.9,1146.4 1283.5,1160.9 1296.2,1174.7 1309.0,1187.5 1321.8,1199.4 1334.6,1210.2 1347.3,1219.8 1359.9,1228.3 1372.5,1235.6 1384.9,1241.6 1397.1,1246.3 1409.2,1249.6 1421.0,1251.5 1432.6,1252.1 1444.0,1251.3 1455.1,1249.0 1465.9,1245.4 1476.4,1240.4 1486.5,1234.0 1496.3,1226.2 1505.8,1217.2 1514.9,1206.8 1523.7,1195.3 1532.0,1182.5 1540.0,1168.7 1547.6,1153.8 1554.7,1137.9 1561.5,1121.1 1567.9,1103.5 1573.9,1085.2 1579.5,1066.3 1584.7,1046.9 1589.5,1027.0 1593.9,1007.0 1598.0,986.8  Z" style="stroke-width: 0.5;  stroke: rgb(0,0,0); fill: rgb(179,177,178);" />
<path d="M 1641.395,996.995 A 522.500,522.500 0.00 0,1 1652.1,1000.1 L 1652.1,1000.1 1645.8,1020.1 1639.0,1039.9 1631.8,1059.5 1624.2,1078.7 1616.1,1097.3 1607.5,1115.4 1598.5,1132.9 1589.0,1149.5 1579.2,1165.3 1568.9,1180.1 1558.1,1194.0 1547.0,1206.8 1535.4,1218.5 1523.5,1229.0 1511.2,1238.3 1498.6,1246.4 1485.6,1253.2 1472.3,1258.7 1458.7,1262.8 1444.8,1265.7 1430.6,1267.2 1416.2,1267.4 1401.6,1266.3 1386.8,1263.8 1371.8,1260.1 1356.7,1255.1 1341.5,1248.9 1326.2,1241.5 1310.9,1233.0 1295.6,1223.4 1280.3,1212.7 1265.1,1201.2 1249.9,1188.7 1235.0,1175.4 1220.2,1161.4 1205.6,1146.8 1191.3,1131.7 1177.2,1116.1 1163.6,1100.2  A 522.500,522.500 0.00 0,1 1172.2,1093.1 L 1172.2,1093.1 1185.5,1109.2 1199.1,1125.0 1213.0,1140.4 1227.2,1155.3 1241.5,1169.5 1256.1,1183.1 1270.8,1195.8 1285.5,1207.6 1300.4,1218.5 1315.2,1228.3 1330.0,1237.1 1344.8,1244.7 1359.5,1251.1 1374.1,1256.3 1388.6,1260.2 1402.8,1262.8 1416.9,1264.1 1430.8,1264.1 1444.4,1262.7 1457.8,1259.9 1470.9,1255.8 1483.6,1250.4 1496.1,1243.7 1508.2,1235.7 1520.0,1226.4 1531.3,1215.9 1542.3,1204.2 1552.9,1191.4 1563.1,1177.6 1572.9,1162.7 1582.3,1146.8 1591.2,1130.2 1599.7,1112.7 1607.7,1094.5 1615.3,1075.8 1622.5,1056.5 1629.2,1036.9 1635.5,1017.0 1641.4,997.0  Z" style="stroke-width: 0.5;  stroke: rgb(0,0,0); fill: rgb(179,177,178);" />
<path d="M 1892.462,1155.065 A 522.500,522.500 0.00 0,1 1899.6,1163.3 L 1899.6,1163.3 1881.5,1178.2 1862.9,1192.9 1843.9,1207.3 1824.4,1221.4 1804.5,1235.0 1784.2,1248.2 1763.5,1261.0 1742.5,1273.2 1721.0,1284.8 1699.2,1295.9 1677.1,1306.3 1654.7,1316.0 1632.0,1325.1 1609.0,1333.5 1585.8,1341.1 1562.4,1348.0 1538.8,1354.2 1515.0,1359.5 1491.0,1364.1 1466.9,1367.9 1442.6,1370.9 1418.3,1373.1 1394.0,1374.5 1369.5,1375.2 1345.1,1375.0 1320.7,1374.1 1296.3,1372.4 1272.0,1370.0 1247.7,1366.9 1223.6,1363.1 1199.6,1358.6 1175.8,1353.4 1152.2,1347.7 1128.8,1341.3 1105.7,1334.4 1082.9,1327.0 1060.3,1319.2 1038.2,1310.9 1016.4,1302.2  A 522.500,522.500 0.00 0,1 1020.6,1292.2 L 1020.6,1292.2 1042.1,1301.3 1064.0,1310.0 1086.2,1318.2 1108.8,1326.0 1131.6,1333.2 1154.8,1339.9 1178.1,1346.0 1201.7,1351.5 1225.4,1356.3 1249.3,1360.4 1273.3,1363.8 1297.4,1366.5 1321.5,1368.4 1345.7,1369.5 1369.9,1369.8 1394.1,1369.3 1418.2,1368.0 1442.3,1365.9 1466.2,1363.0 1490.1,1359.2 1513.8,1354.7 1537.3,1349.3 1560.7,1343.1 1583.8,1336.2 1606.8,1328.4 1629.4,1319.9 1651.8,1310.7 1673.9,1300.8 1695.7,1290.2 1717.2,1279.0 1738.3,1267.1 1759.1,1254.7 1779.4,1241.7 1799.4,1228.2 1818.9,1214.3 1838.0,1199.9 1856.6,1185.3 1874.8,1170.3 1892.5,1155.1  Z" style="stroke-width: 0.5;  stroke: rgb(0,0,0); fill: rgb(179,177,178);" />
<path d="M 1882.501,1144.052 A 522.500,522.500 0.00 0,1 1888.7,1150.8 L 1888.7,1150.8 1871.2,1166.2 1853.2,1181.3 1834.8,1196.1 1815.9,1210.6 1796.6,1224.7 1776.8,1238.3 1756.7,1251.4 1736.1,1263.9 1715.2,1275.9 1693.9,1287.2 1672.3,1297.9 1650.3,1307.9 1628.1,1317.2 1605.6,1325.7 1582.8,1333.5 1559.8,1340.5 1536.6,1346.7 1513.2,1352.1 1489.6,1356.6 1465.9,1360.3 1442.1,1363.2 1418.2,1365.3 1394.2,1366.5 1370.2,1366.9 1346.1,1366.5 1322.1,1365.2 1298.1,1363.2 1274.1,1360.4 1250.3,1356.9 1226.5,1352.6 1202.9,1347.6 1179.5,1341.9 1156.3,1335.6 1133.3,1328.7 1110.6,1321.3 1088.2,1313.3 1066.1,1304.8 1044.4,1295.9 1023.1,1286.6  A 522.500,522.500 0.00 0,1 1026.9,1278.3 L 1026.9,1278.3 1047.9,1287.9 1069.4,1297.2 1091.3,1305.9 1113.4,1314.2 1135.9,1322.0 1158.7,1329.2 1181.7,1335.8 1204.9,1341.7 1228.2,1347.0 1251.7,1351.5 1275.4,1355.3 1299.1,1358.3 1322.9,1360.5 1346.7,1361.9 1370.6,1362.4 1394.4,1362.2 1418.1,1361.1 1441.8,1359.1 1465.4,1356.3 1488.9,1352.6 1512.2,1348.0 1535.4,1342.7 1558.3,1336.4 1581.1,1329.4 1603.6,1321.6 1625.8,1312.9 1647.8,1303.5 1669.5,1293.4 1690.8,1282.6 1711.8,1271.1 1732.5,1258.9 1752.7,1246.2 1772.6,1232.9 1792.1,1219.1 1811.1,1204.8 1829.7,1190.1 1847.8,1175.0 1865.4,1159.7 1882.5,1144.1  Z" style="stroke-width: 0.5;  stroke: rgb(0,0,0); fill: rgb(179,177,178);" />
<path d="M 2005.177,1633.424 A 522.500,522.500 0.00 0,1 2002.8,1642.0 L 2002.8,1642.0 1979.2,1635.5 1955.3,1629.3 1931.1,1623.4 1906.7,1618.0 1882.0,1612.8 1857.1,1608.1 1831.9,1603.9 1806.6,1600.0 1781.2,1596.7 1755.6,1593.8 1729.9,1591.4 1704.0,1589.5 1678.1,1588.2 1652.1,1587.3 1626.1,1587.1 1600.1,1587.3 1574.0,1588.2 1547.9,1589.5 1521.9,1591.5 1495.9,1594.0 1470.0,1597.0 1444.2,1600.6 1418.4,1604.8 1392.8,1609.5 1367.3,1614.7 1341.9,1620.5 1316.8,1626.7 1291.8,1633.5 1267.0,1640.7 1242.4,1648.4 1218.0,1656.6 1193.9,1665.2 1170.1,1674.2 1146.5,1683.5 1123.2,1693.3 1100.3,1703.3 1077.6,1713.7 1055.3,1724.3 1033.4,1735.1  A 522.500,522.500 0.00 0,1 1029.5,1727.2 L 1029.5,1727.2 1051.7,1716.6 1074.2,1706.3 1097.1,1696.3 1120.3,1686.5 1143.8,1677.1 1167.6,1668.0 1191.6,1659.3 1215.9,1651.0 1240.5,1643.0 1265.2,1635.5 1290.2,1628.5 1315.4,1621.9 1340.7,1615.8 1366.2,1610.2 1391.8,1605.1 1417.6,1600.4 1443.4,1596.4 1469.4,1592.8 1495.5,1589.7 1521.6,1587.2 1547.7,1585.3 1573.9,1583.8 1600.0,1582.9 1626.2,1582.5 1652.4,1582.7 1678.4,1583.3 1704.5,1584.5 1730.4,1586.2 1756.3,1588.4 1782.0,1591.0 1807.6,1594.1 1833.1,1597.7 1858.3,1601.7 1883.4,1606.1 1908.3,1610.8 1932.9,1616.0 1957.3,1621.5 1981.4,1627.3 2005.2,1633.4  Z" style="stroke-width: 0.5;  stroke: rgb(0,0,0); fill: rgb(179,177,178);" />
<path d="M 2007.501,1624.295 A 522.500,522.500 0.00 0,1 2005.4,1632.6 L 2005.4,1632.6 1981.6,1626.5 1957.4,1620.8 1933.1,1615.3 1908.4,1610.2 1883.5,1605.4 1858.5,1601.1 1833.2,1597.1 1807.7,1593.6 1782.1,1590.5 1756.4,1587.9 1730.5,1585.8 1704.6,1584.1 1678.5,1583.0 1652.4,1582.3 1626.3,1582.2 1600.1,1582.6 1573.9,1583.6 1547.8,1585.0 1521.6,1587.0 1495.5,1589.5 1469.5,1592.6 1443.5,1596.2 1417.6,1600.3 1391.8,1604.9 1366.2,1610.1 1340.7,1615.7 1315.4,1621.8 1290.2,1628.4 1265.3,1635.5 1240.5,1643.0 1216.0,1650.9 1191.7,1659.3 1167.6,1668.0 1143.8,1677.1 1120.3,1686.5 1097.1,1696.3 1074.2,1706.3 1051.7,1716.6 1029.5,1727.2  A 522.500,522.500 0.00 0,1 1025.8,1719.3 L 1025.8,1719.3 1048.2,1709.1 1071.0,1699.1 1094.2,1689.4 1117.6,1679.9 1141.3,1670.8 1165.3,1662.0 1189.5,1653.5 1214.0,1645.4 1238.7,1637.7 1263.6,1630.4 1288.8,1623.5 1314.1,1617.1 1339.5,1611.1 1365.2,1605.6 1390.9,1600.6 1416.8,1596.1 1442.8,1592.0 1468.9,1588.5 1495.0,1585.4 1521.2,1582.9 1547.5,1580.8 1573.8,1579.3 1600.1,1578.3 1626.3,1577.8 1652.6,1577.8 1678.8,1578.3 1704.9,1579.3 1731.0,1580.7 1757.0,1582.6 1782.8,1585.0 1808.6,1587.8 1834.2,1591.1 1859.6,1594.8 1884.8,1598.8 1909.8,1603.2 1934.6,1608.0 1959.2,1613.2 1983.5,1618.6 2007.5,1624.3  Z" style="stroke-width: 0.5;  stroke: rgb(0,0,0); fill: rgb(179,177,178);" />
<path d="M 1810.004,1079.401 A 522.500,522.500 0.00 0,1 1816.7,1084.4 L 1816.7,1084.4 1802.9,1102.0 1788.6,1119.5 1773.8,1136.6 1758.5,1153.3 1742.7,1169.6 1726.4,1185.4 1709.6,1200.5 1692.4,1215.1 1674.8,1229.0 1656.7,1242.1 1638.2,1254.4 1619.4,1265.9 1600.2,1276.5 1580.7,1286.1 1560.9,1294.9 1540.7,1302.7 1520.3,1309.5 1499.7,1315.3 1478.8,1320.1 1457.8,1323.8 1436.5,1326.5 1415.2,1328.2 1393.7,1328.9 1372.1,1328.5 1350.5,1327.1 1328.8,1324.8 1307.1,1321.4 1285.5,1317.2 1263.9,1312.0 1242.5,1305.9 1221.1,1299.0 1199.9,1291.2 1179.0,1282.8 1158.2,1273.6 1137.8,1263.8 1117.6,1253.3 1097.8,1242.4 1078.4,1231.0 1059.4,1219.2  A 522.500,522.500 0.00 0,1 1064.2,1211.7 L 1064.2,1211.7 1082.9,1223.8 1102.1,1235.5 1121.6,1246.7 1141.5,1257.4 1161.7,1267.5 1182.2,1277.0 1202.9,1285.7 1223.8,1293.7 1244.9,1300.8 1266.1,1307.1 1287.4,1312.5 1308.7,1317.0 1330.1,1320.5 1351.5,1323.0 1372.9,1324.6 1394.2,1325.1 1415.4,1324.5 1436.5,1322.9 1457.4,1320.3 1478.2,1316.6 1498.7,1311.9 1519.1,1306.1 1539.2,1299.3 1559.0,1291.5 1578.5,1282.8 1597.8,1273.0 1616.6,1262.4 1635.1,1250.8 1653.3,1238.4 1671.0,1225.2 1688.3,1211.2 1705.2,1196.6 1721.7,1181.2 1737.6,1165.3 1753.1,1148.9 1768.1,1132.0 1782.6,1114.7 1796.6,1097.2 1810.0,1079.4  Z" style="stroke-width: 0.5;  stroke: rgb(0,0,0); fill: rgb(179,177,178);" />
<path d="M 1500.000,977.500 A 522.500,522.500 0.00 0,1 1501.3,977.5 L 1501.3,977.5 1501.1,997.7 1500.8,1017.8 1500.2,1037.6 1499.3,1057.0 1498.2,1075.9 1496.8,1094.2 1495.1,1111.6 1493.1,1128.3 1490.7,1143.9 1488.1,1158.6 1485.1,1172.1 1481.9,1184.4 1478.3,1195.5 1474.3,1205.3 1470.0,1213.7 1465.5,1220.7 1460.5,1226.3 1455.3,1230.4 1449.8,1233.0 1443.9,1234.2 1437.8,1233.9 1431.4,1232.1 1424.7,1228.8 1417.8,1224.1 1410.6,1218.0 1403.2,1210.5 1395.6,1201.6 1387.9,1191.5 1379.9,1180.2 1371.9,1167.7 1363.7,1154.1 1355.5,1139.5 1347.2,1124.0 1338.9,1107.7 1330.6,1090.7 1322.4,1073.1 1314.2,1055.0 1306.1,1036.6 1298.2,1018.0  A 522.500,522.500 0.00 0,1 1299.6,1017.5 L 1299.6,1017.5 1307.4,1036.1 1315.4,1054.5 1323.5,1072.6 1331.7,1090.2 1340.0,1107.2 1348.2,1123.6 1356.4,1139.1 1364.6,1153.7 1372.7,1167.3 1380.6,1179.8 1388.5,1191.2 1396.2,1201.3 1403.7,1210.2 1411.0,1217.7 1418.1,1223.9 1425.0,1228.6 1431.6,1231.9 1437.9,1233.7 1444.0,1234.0 1449.7,1232.9 1455.2,1230.2 1460.4,1226.1 1465.2,1220.6 1469.7,1213.6 1473.9,1205.2 1477.8,1195.4 1481.3,1184.4 1484.5,1172.0 1487.4,1158.5 1490.0,1143.9 1492.2,1128.2 1494.2,1111.6 1495.8,1094.1 1497.2,1075.9 1498.2,1057.0 1499.0,1037.6 1499.6,1017.8 1499.9,997.7 1500.0,977.5  Z" style="stroke-width: 0.5;  stroke: rgb(0,0,0); fill: rgb(179,177,178);" />
</g>
<g id="plot0">
<g id="plot0-axis">
</g>
<line x1='2243.6' y1='1598.1' x2='2243.6' y2='1598.1' style="stroke-width:14.0;stroke:rgb(0,0,0);stroke-linecap:round;fill:none;" />
<line x1='2243.6' y1='1598.1' x2='2283.2' y2='1603.3' style="stroke-width:14.0;stroke:rgb(0,0,0);stroke-linecap:round;fill:none;" />
<line x1='2283.2' y1='1603.3' x2='2283.2' y2='1603.3' style="stroke-width:14.0;stroke:rgb(0,0,0);stroke-linecap:round;fill:none;" />
<text x="2299.8" y="1628.2" font-size="46.8px" font-family="CMUBright-Roman" style="text-anchor:start;fill:rgb(255,38,78);" transform="rotate(7.5,2299.8,1628.2)" >HistocapCB065<tspan baseline-shift="-40%" font-size="90%">s</tspan>00237</text>
</g>
<defs>
<pattern id="hline-sparse" width="10" height="10" patternTransform="rotate(0 0 0)" patternUnits="userSpaceOnUse"><line x1="0" y1="0" x2="10" y2="0" style="stroke:black;stroke-width:2" /></pattern>
<pattern id="hline" width="10" height="10" patternTransform="rotate(0 0 0)" patternUnits="userSpaceOnUse"><line x1="0" y1="0" x2="10" y2="0" style="stroke:black;stroke-width:5" /></pattern>
<pattern id="vline" width="10" height="10" patternTransform="rotate(0 0 0)" patternUnits="userSpaceOnUse"><line x1="0" y1="0" x2="0" y2="10" style="stroke:black;stroke-width:5" /></pattern>
<pattern id="vline-sparse" width="10" height="10" patternTransform="rotate(0 0 0)" patternUnits="userSpaceOnUse"><line x1="0" y1="0" x2="0" y2="10" style="stroke:black;stroke-width:2" /></pattern>
<pattern id="checker" width="10" height="10" patternTransform="rotate(45 0 0)" patternUnits="userSpaceOnUse"><line x1="0" y1="0" x2="10" y2="0" style="stroke:black;stroke-width:5" /><line x1="0" y1="0" x2="0" y2="10" style="stroke:black;stroke-width:4" /></pattern>
<pattern id="checker" width="10" height="10" patternTransform="rotate(45 0 0)" patternUnits="userSpaceOnUse"><line x1="0" y1="0" x2="10" y2="0" style="stroke:black;stroke-width:2" /><line x1="0" y1="0" x2="0" y2="10" style="stroke:black;stroke-width:2" /></pattern>
</defs>
</svg>
