<?xml version="1.0" encoding="utf-8" standalone="no"?>
<!DOCTYPE svg PUBLIC "-//W3C//DTD SVG 1.1//EN" "http://www.w3.org/Graphics/SVG/1.1/DTD/svg11.dtd">
<svg width="3000px" height="3000px" version="1.1" xmlns="http://www.w3.org/2000/svg" xmlns:xlink="http://www.w3.org/1999/xlink">
<g id="bg">
<rect x="0" y="0" width="3000px" height="3000px" style="fill:rgb(255,255,255);"/>
</g>
<g id="ideograms">
<path d="M1500.000,950.000 A550.000,550.000 40.000 0,1 1707.845,2009.215 L1783.425,2194.385 A750.000,750.000 0.000 0,0 1500.000,750.000 Z" style="stroke-width:2.0;stroke:rgb(0,0,0);stroke-linecap:round;fill:rgb(179,177,178);" />
<text x="2456.8" y="1312.3" font-size="46.8px" font-family="CMUBright-Roman" style="text-anchor:middle;fill:rgb(0,0,0);" transform="rotate(438.9,2456.8,1312.3)" >HistomissSECH88<tspan baseline-shift="-40%" font-size="90%">1</tspan></text>
<line x1='1525.7' y1='750.4' x2='1526.1' y2='738.4' style="stroke-width:8.0;stroke:rgb(150,150,150);stroke-linecap:round;fill:none;" />
<text x="1540.5" y="727.1" font-size="41.6px" font-family="CMUBright-Roman" style="text-anchor:start;fill:rgb(150,150,150);" transform="rotate(272.0,1540.5,727.1)" >1450 kb</text>
<line x1='1626.9' y1='760.8' x2='1628.9' y2='749.0' style="stroke-width:8.0;stroke:rgb(150,150,150);stroke-linecap:round;fill:none;" />
<line x1='1725.8' y1='784.8' x2='1729.4' y2='773.3' style="stroke-width:8.0;stroke:rgb(150,150,150);stroke-linecap:round;fill:none;" />
<line x1='1820.5' y1='821.9' x2='1825.6' y2='811.1' style="stroke-width:8.0;stroke:rgb(150,150,150);stroke-linecap:round;fill:none;" />
<line x1='1909.3' y1='871.5' x2='1915.8' y2='861.5' style="stroke-width:8.0;stroke:rgb(150,150,150);stroke-linecap:round;fill:none;" />
<line x1='1990.5' y1='932.7' x2='1998.4' y2='923.6' style="stroke-width:8.0;stroke:rgb(150,150,150);stroke-linecap:round;fill:none;" />
<text x="2016.8" y="923.8" font-size="41.6px" font-family="CMUBright-Roman" style="text-anchor:start;fill:rgb(150,150,150);" transform="rotate(310.8,2016.8,923.8)" >1500 kb</text>
<line x1='2062.8' y1='1004.3' x2='2071.8' y2='996.3' style="stroke-width:8.0;stroke:rgb(150,150,150);stroke-linecap:round;fill:none;" />
<line x1='2124.7' y1='1085.0' x2='2134.7' y2='1078.3' style="stroke-width:8.0;stroke:rgb(150,150,150);stroke-linecap:round;fill:none;" />
<line x1='2175.1' y1='1173.3' x2='2185.9' y2='1168.1' style="stroke-width:8.0;stroke:rgb(150,150,150);stroke-linecap:round;fill:none;" />
<line x1='2213.1' y1='1267.7' x2='2224.5' y2='1264.0' style="stroke-width:8.0;stroke:rgb(150,150,150);stroke-linecap:round;fill:none;" />
<line x1='2238.0' y1='1366.3' x2='2249.8' y2='1364.2' style="stroke-width:8.0;stroke:rgb(150,150,150);stroke-linecap:round;fill:none;" />
<text x="2264.0" y="1375.8" font-size="41.6px" font-family="CMUBright-Roman" style="text-anchor:start;fill:rgb(150,150,150);" transform="rotate(349.7,2264.0,1375.8)" >1550 kb</text>
<line x1='2249.3' y1='1467.4' x2='2261.3' y2='1466.9' style="stroke-width:8.0;stroke:rgb(150,150,150);stroke-linecap:round;fill:none;" />
<line x1='2246.8' y1='1569.1' x2='2258.8' y2='1570.2' style="stroke-width:8.0;stroke:rgb(150,150,150);stroke-linecap:round;fill:none;" />
<line x1='2230.6' y1='1669.5' x2='2242.3' y2='1672.2' style="stroke-width:8.0;stroke:rgb(150,150,150);stroke-linecap:round;fill:none;" />
<line x1='2200.9' y1='1766.8' x2='2212.1' y2='1771.1' style="stroke-width:8.0;stroke:rgb(150,150,150);stroke-linecap:round;fill:none;" />
<line x1='2158.4' y1='1859.2' x2='2168.9' y2='1865.0' style="stroke-width:8.0;stroke:rgb(150,150,150);stroke-linecap:round;fill:none;" />
<text x="2172.6" y="1882.9" font-size="41.6px" font-family="CMUBright-Roman" style="text-anchor:start;fill:rgb(150,150,150);" transform="rotate(28.6,2172.6,1882.9)" >1600 kb</text>
<line x1='2103.7' y1='1945.0' x2='2113.4' y2='1952.1' style="stroke-width:8.0;stroke:rgb(150,150,150);stroke-linecap:round;fill:none;" />
<line x1='2037.9' y1='2022.6' x2='2046.6' y2='2031.0' style="stroke-width:8.0;stroke:rgb(150,150,150);stroke-linecap:round;fill:none;" />
<line x1='1962.3' y1='2090.6' x2='1969.7' y2='2100.0' style="stroke-width:8.0;stroke:rgb(150,150,150);stroke-linecap:round;fill:none;" />
<line x1='1878.1' y1='2147.7' x2='1884.2' y2='2158.1' style="stroke-width:8.0;stroke:rgb(150,150,150);stroke-linecap:round;fill:none;" />
<line x1='1787.0' y1='2192.9' x2='1791.6' y2='2204.0' style="stroke-width:8.0;stroke:rgb(150,150,150);stroke-linecap:round;fill:none;" />
<text x="1783.2" y="2220.3" font-size="41.6px" font-family="CMUBright-Roman" style="text-anchor:start;fill:rgb(150,150,150);" transform="rotate(67.5,1783.2,2220.3)" >1650 kb</text>
<g id="highlighttrack_0">
<path d="M2037.515,1383.476 A550.000,550.000 40.000 0,1 2041.690,1404.756 L2238.669,1370.121 A750.000,750.000 0.000 0,0 2232.975,1341.104 Z" style="stroke-width:14.0;stroke:rgb(0,0,0);stroke-linecap:round;fill:rgb(255,38,78);" />
</g>
<path d="M1500.000,950.000 A550.000,550.000 40.000 0,1 1707.845,2009.215 L1783.425,2194.385 A750.000,750.000 0.000 0,0 1500.000,750.000 Z" style="stroke-width:2.0;stroke:rgb(0,0,0);stroke-linecap:round;fill:none;" />
<path d="M1489.184,2049.894 A550.000,550.000 40.000 0,1 1282.180,994.971 L1202.973,811.324 A750.000,750.000 0.000 0,0 1485.250,2249.855 Z" style="stroke-width:2.0;stroke:rgb(0,0,0);stroke-linecap:round;fill:rgb(179,177,178);" />
<text x="500.1" y="1696.2" font-size="46.8px" font-family="CMUBright-Roman" style="text-anchor:middle;fill:rgb(0,0,0);" transform="rotate(78.9,500.1,1696.2)" >HistocapES290Z<tspan baseline-shift="-40%" font-size="90%">1</tspan></text>
<line x1='1176.4' y1='823.4' x2='1171.2' y2='812.6' style="stroke-width:8.0;stroke:rgb(150,150,150);stroke-linecap:round;fill:none;" />
<line x1='1087.8' y1='873.4' x2='1081.2' y2='863.4' style="stroke-width:8.0;stroke:rgb(150,150,150);stroke-linecap:round;fill:none;" />
<line x1='1006.8' y1='935.0' x2='998.9' y2='925.9' style="stroke-width:8.0;stroke:rgb(150,150,150);stroke-linecap:round;fill:none;" />
<line x1='934.9' y1='1006.9' x2='925.8' y2='999.0' style="stroke-width:8.0;stroke:rgb(150,150,150);stroke-linecap:round;fill:none;" />
<text x="907.7" y="1001.8" font-size="41.6px" font-family="CMUBright-Roman" style="text-anchor:end;fill:rgb(150,150,150);" transform="rotate(41.1,907.7,1001.8)" >1800 kb</text>
<line x1='873.3' y1='1087.9' x2='863.3' y2='1081.3' style="stroke-width:8.0;stroke:rgb(150,150,150);stroke-linecap:round;fill:none;" />
<line x1='823.4' y1='1176.5' x2='812.5' y2='1171.3' style="stroke-width:8.0;stroke:rgb(150,150,150);stroke-linecap:round;fill:none;" />
<line x1='785.8' y1='1271.0' x2='774.4' y2='1267.4' style="stroke-width:8.0;stroke:rgb(150,150,150);stroke-linecap:round;fill:none;" />
<line x1='761.4' y1='1369.8' x2='749.6' y2='1367.7' style="stroke-width:8.0;stroke:rgb(150,150,150);stroke-linecap:round;fill:none;" />
<line x1='750.6' y1='1470.9' x2='738.6' y2='1470.5' style="stroke-width:8.0;stroke:rgb(150,150,150);stroke-linecap:round;fill:none;" />
<text x="726.2" y="1484.0" font-size="41.6px" font-family="CMUBright-Roman" style="text-anchor:end;fill:rgb(150,150,150);" transform="rotate(2.2,726.2,1484.0)" >1850 kb</text>
<line x1='753.5' y1='1572.6' x2='741.6' y2='1573.8' style="stroke-width:8.0;stroke:rgb(150,150,150);stroke-linecap:round;fill:none;" />
<line x1='770.2' y1='1673.0' x2='758.5' y2='1675.7' style="stroke-width:8.0;stroke:rgb(150,150,150);stroke-linecap:round;fill:none;" />
<line x1='800.3' y1='1770.1' x2='789.1' y2='1774.4' style="stroke-width:8.0;stroke:rgb(150,150,150);stroke-linecap:round;fill:none;" />
<line x1='843.3' y1='1862.3' x2='832.8' y2='1868.1' style="stroke-width:8.0;stroke:rgb(150,150,150);stroke-linecap:round;fill:none;" />
<line x1='898.4' y1='1947.8' x2='888.8' y2='1955.0' style="stroke-width:8.0;stroke:rgb(150,150,150);stroke-linecap:round;fill:none;" />
<text x="887.6" y="1973.3" font-size="41.6px" font-family="CMUBright-Roman" style="text-anchor:end;fill:rgb(150,150,150);" transform="rotate(-36.7,887.6,1973.3)" >1900 kb</text>
<line x1='964.5' y1='2025.1' x2='955.9' y2='2033.5' style="stroke-width:8.0;stroke:rgb(150,150,150);stroke-linecap:round;fill:none;" />
<line x1='1040.5' y1='2092.8' x2='1033.1' y2='2102.2' style="stroke-width:8.0;stroke:rgb(150,150,150);stroke-linecap:round;fill:none;" />
<line x1='1124.9' y1='2149.5' x2='1118.9' y2='2159.9' style="stroke-width:8.0;stroke:rgb(150,150,150);stroke-linecap:round;fill:none;" />
<line x1='1216.3' y1='2194.3' x2='1211.7' y2='2205.4' style="stroke-width:8.0;stroke:rgb(150,150,150);stroke-linecap:round;fill:none;" />
<line x1='1312.8' y1='2226.3' x2='1309.8' y2='2237.9' style="stroke-width:8.0;stroke:rgb(150,150,150);stroke-linecap:round;fill:none;" />
<text x="1320.4" y="2252.9" font-size="41.6px" font-family="CMUBright-Roman" style="text-anchor:end;fill:rgb(150,150,150);" transform="rotate(-75.5,1320.4,2252.9)" >1950 kb</text>
<line x1='1412.8' y1='2244.9' x2='1411.4' y2='2256.8' style="stroke-width:8.0;stroke:rgb(150,150,150);stroke-linecap:round;fill:none;" />
<path d="M1489.184,2049.894 A550.000,550.000 40.000 0,1 1282.180,994.971 L1202.973,811.324 A750.000,750.000 0.000 0,0 1485.250,2249.855 Z" style="stroke-width:2.0;stroke:rgb(0,0,0);stroke-linecap:round;fill:none;" />
</g>
<g id="track_0">
<path d="M 2021.105,1538.149 A 522.500,522.500 0.00 0,1 2008.1,1621.8 L 2008.1,1621.8 1984.4,1616.4 1960.5,1611.2 1936.3,1606.5 1911.8,1602.1 1887.1,1598.2 1862.2,1594.7 1837.1,1591.6 1811.9,1589.1 1786.5,1587.1 1761.0,1585.6 1735.4,1584.7 1709.7,1584.3 1684.0,1584.5 1658.3,1585.3 1632.6,1586.6 1606.8,1588.6 1581.2,1591.2 1555.5,1594.3 1530.0,1598.1 1504.5,1602.5 1479.2,1607.5 1453.9,1613.0 1428.9,1619.2 1404.0,1625.9 1379.3,1633.2 1354.7,1641.1 1330.4,1649.5 1306.4,1658.4 1282.6,1667.8 1259.0,1677.7 1235.8,1688.1 1212.8,1698.9 1190.2,1710.1 1167.9,1721.7 1145.9,1733.7 1124.3,1746.0 1103.0,1758.6 1082.2,1771.4 1061.7,1784.5  A 522.500,522.500 0.00 0,1 1021.5,1709.9 L 1021.5,1709.9 1044.7,1699.9 1068.2,1690.0 1091.9,1680.3 1115.8,1670.8 1140.0,1661.6 1164.4,1652.5 1189.0,1643.8 1213.8,1635.2 1238.8,1627.0 1264.0,1619.1 1289.4,1611.4 1314.9,1604.1 1340.6,1597.1 1366.4,1590.4 1392.3,1584.1 1418.4,1578.1 1444.5,1572.5 1470.8,1567.2 1497.1,1562.3 1523.5,1557.8 1550.0,1553.6 1576.5,1549.8 1603.0,1546.4 1629.6,1543.3 1656.1,1540.6 1682.7,1538.3 1709.2,1536.3 1735.7,1534.7 1762.2,1533.4 1788.6,1532.5 1814.9,1531.9 1841.1,1531.7 1867.3,1531.7 1893.3,1532.1 1919.2,1532.8 1944.9,1533.7 1970.5,1534.9 1995.9,1536.4 2021.1,1538.1  Z" style="stroke-width: 0.5;  stroke: rgb(0,0,0); fill: rgb(179,177,178);" />
<path d="M 1760.445,1047.038 A 522.500,522.500 0.00 0,1 1820.6,1087.4 L 1820.6,1087.4 1807.2,1104.3 1793.3,1120.8 1779.0,1137.0 1764.2,1152.7 1749.1,1167.9 1733.6,1182.4 1717.8,1196.2 1701.6,1209.2 1685.2,1221.3 1668.5,1232.5 1651.6,1242.7 1634.5,1251.9 1617.2,1260.0 1599.8,1267.0 1582.2,1272.9 1564.5,1277.6 1546.7,1281.0 1528.9,1283.3 1511.1,1284.4 1493.3,1284.2 1475.4,1282.8 1457.7,1280.1 1440.0,1276.3 1422.4,1271.3 1404.9,1265.1 1387.6,1257.7 1370.5,1249.2 1353.6,1239.7 1336.9,1229.1 1320.4,1217.6 1304.2,1205.2 1288.4,1191.9 1272.8,1177.8 1257.6,1162.9 1242.8,1147.5 1228.4,1131.5 1214.4,1115.0 1200.8,1098.2 1187.8,1081.0  A 522.500,522.500 0.00 0,1 1247.5,1042.6 L 1247.5,1042.6 1257.8,1060.8 1268.6,1078.9 1279.7,1096.6 1291.3,1113.8 1303.2,1130.5 1315.4,1146.5 1328.0,1161.7 1340.8,1176.1 1353.9,1189.6 1367.2,1202.1 1380.8,1213.5 1394.6,1223.9 1408.5,1233.1 1422.7,1241.0 1436.9,1247.8 1451.3,1253.2 1465.7,1257.3 1480.2,1260.1 1494.8,1261.6 1509.4,1261.7 1523.9,1260.5 1538.5,1258.0 1553.0,1254.1 1567.5,1248.9 1581.8,1242.4 1596.1,1234.7 1610.2,1225.8 1624.1,1215.7 1637.9,1204.4 1651.5,1192.2 1664.8,1178.9 1677.9,1164.7 1690.7,1149.7 1703.2,1133.9 1715.4,1117.5 1727.2,1100.5 1738.7,1083.0 1749.8,1065.1 1760.4,1047.0  Z" style="stroke-width: 0.5;  stroke: rgb(0,0,0); fill: rgb(179,177,178);" />
<path d="M 1984.928,1305.446 A 522.500,522.500 0.00 0,1 2003.7,1361.2 L 2003.7,1361.2 1978.3,1368.2 1952.7,1375.1 1927.1,1382.0 1901.4,1388.8 1875.7,1395.5 1849.9,1402.2 1824.0,1408.9 1798.1,1415.4 1772.1,1421.9 1746.1,1428.3 1720.0,1434.6 1693.9,1440.8 1667.7,1447.0 1641.5,1453.0 1615.3,1459.0 1589.0,1464.9 1562.7,1470.7 1536.4,1476.4 1510.0,1482.0 1483.6,1487.5 1457.2,1492.9 1430.8,1498.2 1404.4,1503.5 1377.9,1508.6 1351.5,1513.6 1325.1,1518.5 1298.6,1523.4 1272.2,1528.1 1245.8,1532.8 1219.3,1537.3 1192.9,1541.8 1166.6,1546.2 1140.2,1550.4 1113.9,1554.6 1087.6,1558.7 1061.3,1562.8 1035.1,1566.7 1008.9,1570.6 982.8,1574.4  A 522.500,522.500 0.00 0,1 977.7,1515.5 L 977.7,1515.5 1003.4,1514.7 1029.2,1513.6 1055.2,1512.4 1081.2,1510.9 1107.3,1509.3 1133.6,1507.4 1159.9,1505.2 1186.3,1502.8 1212.7,1500.2 1239.2,1497.4 1265.7,1494.2 1292.2,1490.9 1318.8,1487.2 1345.3,1483.3 1371.9,1479.1 1398.4,1474.7 1424.9,1470.0 1451.4,1465.0 1477.8,1459.8 1504.2,1454.3 1530.6,1448.5 1556.8,1442.5 1583.0,1436.2 1609.1,1429.6 1635.1,1422.9 1661.0,1415.8 1686.8,1408.5 1712.5,1401.0 1738.0,1393.3 1763.4,1385.3 1788.7,1377.2 1813.8,1368.8 1838.8,1360.2 1863.6,1351.5 1888.2,1342.6 1912.7,1333.5 1937.0,1324.3 1961.0,1314.9 1984.9,1305.4  Z" style="stroke-width: 0.5;  stroke: rgb(0,0,0); fill: rgb(179,177,178);" />
<path d="M 1895.638,1158.713 A 522.500,522.500 0.00 0,1 1916.8,1184.9 L 1916.8,1184.9 1897.4,1199.4 1877.5,1213.6 1857.3,1227.7 1836.6,1241.4 1815.6,1254.9 1794.2,1268.0 1772.4,1280.7 1750.3,1293.1 1727.9,1305.0 1705.1,1316.5 1682.0,1327.5 1658.7,1337.9 1635.1,1347.9 1611.2,1357.4 1587.1,1366.3 1562.7,1374.6 1538.2,1382.3 1513.4,1389.5 1488.5,1396.1 1463.4,1402.1 1438.2,1407.4 1412.9,1412.2 1387.5,1416.3 1362.0,1419.9 1336.5,1422.8 1310.9,1425.1 1285.3,1426.9 1259.7,1428.0 1234.2,1428.6 1208.7,1428.6 1183.3,1428.1 1158.0,1427.0 1132.8,1425.5 1107.8,1423.4 1083.0,1420.9 1058.3,1417.9 1033.9,1414.5 1009.8,1410.8 985.9,1406.6  A 522.500,522.500 0.00 0,1 993.1,1373.2 L 993.1,1373.2 1016.3,1378.8 1039.8,1384.0 1063.6,1388.8 1087.6,1393.1 1111.9,1396.9 1136.3,1400.2 1161.0,1402.9 1185.7,1405.1 1210.6,1406.7 1235.6,1407.7 1260.6,1408.0 1285.7,1407.7 1310.8,1406.7 1335.8,1405.0 1360.9,1402.7 1385.8,1399.7 1410.7,1395.9 1435.4,1391.5 1460.1,1386.4 1484.5,1380.6 1508.8,1374.1 1532.9,1366.9 1556.8,1359.0 1580.5,1350.5 1603.9,1341.3 1627.0,1331.5 1649.8,1321.1 1672.4,1310.1 1694.6,1298.6 1716.5,1286.5 1738.0,1273.9 1759.1,1260.8 1779.9,1247.2 1800.2,1233.3 1820.2,1218.9 1839.7,1204.3 1858.8,1189.3 1877.5,1174.1 1895.6,1158.7  Z" style="stroke-width: 0.5;  stroke: rgb(0,0,0); fill: rgb(179,177,178);" />
<path d="M 1831.755,1903.664 A 522.500,522.500 0.00 0,1 1807.3,1922.6 L 1807.3,1922.6 1794.9,1905.9 1782.2,1889.5 1769.2,1873.5 1755.9,1858.0 1742.4,1843.1 1728.8,1829.0 1715.0,1815.7 1701.1,1803.2 1687.1,1791.7 1673.1,1781.3 1659.1,1771.9 1645.2,1763.7 1631.3,1756.8 1617.5,1751.0 1603.8,1746.6 1590.2,1743.5 1576.9,1741.7 1563.7,1741.3 1550.8,1742.2 1538.0,1744.6 1525.6,1748.2 1513.4,1753.3 1501.5,1759.7 1490.0,1767.4 1478.7,1776.3 1467.8,1786.6 1457.3,1798.0 1447.1,1810.6 1437.3,1824.3 1427.9,1839.0 1418.9,1854.7 1410.3,1871.2 1402.1,1888.6 1394.3,1906.6 1387.0,1925.3 1380.0,1944.5 1373.5,1964.0 1367.4,1983.9 1361.7,2003.9  A 522.500,522.500 0.00 0,1 1332.8,1995.0 L 1332.8,1995.0 1339.7,1975.2 1347.1,1955.6 1354.9,1936.2 1363.2,1917.2 1371.9,1898.8 1381.1,1880.9 1390.7,1863.7 1400.7,1847.3 1411.1,1831.7 1422.0,1817.1 1433.2,1803.5 1444.9,1790.9 1456.9,1779.5 1469.3,1769.2 1482.0,1760.2 1495.0,1752.4 1508.4,1745.8 1522.1,1740.6 1536.0,1736.7 1550.2,1734.1 1564.6,1732.8 1579.2,1732.8 1594.1,1734.2 1609.0,1736.9 1624.1,1740.9 1639.4,1746.1 1654.6,1752.5 1670.0,1760.1 1685.3,1768.9 1700.6,1778.7 1715.9,1789.6 1731.1,1801.4 1746.2,1814.0 1761.1,1827.5 1775.8,1841.7 1790.2,1856.5 1804.4,1871.8 1818.3,1887.6 1831.8,1903.7  Z" style="stroke-width: 0.5;  stroke: rgb(0,0,0); fill: rgb(179,177,178);" />
<path d="M 2014.597,1409.469 A 522.500,522.500 0.00 0,1 2018.5,1435.5 L 2018.5,1435.5 1992.3,1438.8 1966.0,1442.2 1939.7,1445.6 1913.4,1449.1 1887.0,1452.7 1860.6,1456.4 1834.2,1460.1 1807.7,1464.0 1781.2,1467.9 1754.7,1471.9 1728.2,1476.0 1701.7,1480.2 1675.1,1484.5 1648.6,1488.9 1622.1,1493.3 1595.5,1497.9 1569.0,1502.6 1542.5,1507.3 1516.0,1512.1 1489.5,1517.1 1463.0,1522.1 1436.5,1527.2 1410.1,1532.4 1383.7,1537.7 1357.3,1543.1 1331.0,1548.5 1304.7,1554.1 1278.5,1559.7 1252.2,1565.4 1226.1,1571.2 1199.9,1577.0 1173.9,1583.0 1147.8,1589.0 1121.9,1595.0 1096.0,1601.2 1070.1,1607.4 1044.3,1613.6 1018.6,1619.9 993.0,1626.3  A 522.500,522.500 0.00 0,1 987.3,1600.6 L 987.3,1600.6 1013.5,1595.4 1039.8,1590.3 1066.0,1585.2 1092.3,1580.1 1118.6,1575.0 1144.8,1569.9 1171.1,1564.8 1197.4,1559.7 1223.8,1554.7 1250.1,1549.6 1276.4,1544.6 1302.7,1539.6 1329.1,1534.6 1355.4,1529.6 1381.8,1524.6 1408.2,1519.6 1434.5,1514.7 1460.9,1509.7 1487.3,1504.8 1513.6,1499.9 1540.0,1495.0 1566.4,1490.1 1592.8,1485.3 1619.1,1480.4 1645.5,1475.6 1671.9,1470.8 1698.3,1466.0 1724.7,1461.2 1751.0,1456.4 1777.4,1451.7 1803.8,1446.9 1830.2,1442.2 1856.5,1437.5 1882.9,1432.8 1909.2,1428.1 1935.6,1423.4 1961.9,1418.8 1988.3,1414.1 2014.6,1409.5  Z" style="stroke-width: 0.5;  stroke: rgb(0,0,0); fill: rgb(179,177,178);" />
<path d="M 2005.083,1633.780 A 522.500,522.500 0.00 0,1 1997.7,1659.0 L 1997.7,1659.0 1975.0,1652.0 1951.9,1645.3 1928.4,1639.0 1904.7,1633.2 1880.8,1627.8 1856.6,1623.0 1832.2,1618.6 1807.6,1614.9 1782.9,1611.7 1758.0,1609.2 1733.1,1607.2 1708.0,1606.0 1682.9,1605.3 1657.8,1605.4 1632.7,1606.2 1607.6,1607.6 1582.6,1609.7 1557.6,1612.6 1532.7,1616.2 1507.9,1620.4 1483.3,1625.4 1458.8,1631.0 1434.5,1637.4 1410.3,1644.4 1386.4,1652.1 1362.7,1660.4 1339.3,1669.3 1316.1,1678.9 1293.3,1689.1 1270.7,1699.8 1248.4,1711.0 1226.5,1722.7 1205.0,1735.0 1183.8,1747.6 1163.0,1760.7 1142.6,1774.1 1122.6,1787.8 1103.1,1801.8 1083.9,1816.1  A 522.500,522.500 0.00 0,1 1068.8,1795.1 L 1068.8,1795.1 1088.8,1781.6 1109.2,1768.4 1130.1,1755.4 1151.3,1742.7 1172.9,1730.4 1194.9,1718.4 1217.2,1706.8 1239.8,1695.7 1262.7,1685.0 1286.0,1674.9 1309.5,1665.2 1333.3,1656.0 1357.3,1647.5 1381.5,1639.4 1406.0,1632.0 1430.7,1625.2 1455.5,1618.9 1480.5,1613.3 1505.7,1608.3 1530.9,1604.0 1556.3,1600.3 1581.7,1597.2 1607.2,1594.8 1632.7,1593.0 1658.3,1591.8 1683.8,1591.2 1709.3,1591.3 1734.8,1591.9 1760.2,1593.2 1785.5,1595.0 1810.7,1597.4 1835.8,1600.3 1860.6,1603.7 1885.3,1607.7 1909.8,1612.1 1934.0,1616.9 1958.0,1622.2 1981.7,1627.8 2005.1,1633.8  Z" style="stroke-width: 0.5;  stroke: rgb(0,0,0); fill: rgb(179,177,178);" />
<path d="M 2004.625,1364.500 A 522.500,522.500 0.00 0,1 2010.6,1389.1 L 2010.6,1389.1 1984.5,1394.7 1958.3,1400.4 1932.2,1406.1 1906.0,1411.7 1879.9,1417.3 1853.7,1422.9 1827.5,1428.6 1801.3,1434.2 1775.1,1439.7 1748.9,1445.3 1722.6,1450.9 1696.4,1456.4 1670.2,1462.0 1643.9,1467.5 1617.7,1473.0 1591.4,1478.5 1565.2,1484.0 1538.9,1489.4 1512.6,1494.9 1486.4,1500.3 1460.1,1505.7 1433.8,1511.1 1407.5,1516.5 1381.3,1521.9 1355.0,1527.2 1328.7,1532.6 1302.4,1537.9 1276.1,1543.2 1249.9,1548.5 1223.6,1553.8 1197.3,1559.0 1171.0,1564.3 1144.8,1569.5 1118.5,1574.7 1092.2,1579.9 1066.0,1585.1 1039.8,1590.3 1013.5,1595.5 987.3,1600.6  A 522.500,522.500 0.00 0,1 983.1,1576.1 L 983.1,1576.1 1009.2,1572.2 1035.4,1568.2 1061.6,1564.2 1087.9,1560.1 1114.2,1556.0 1140.5,1551.7 1166.9,1547.4 1193.3,1543.0 1219.7,1538.5 1246.1,1533.9 1272.5,1529.2 1298.9,1524.5 1325.4,1519.6 1351.8,1514.7 1378.2,1509.7 1404.7,1504.5 1431.1,1499.3 1457.5,1494.1 1483.9,1488.7 1510.3,1483.2 1536.6,1477.7 1563.0,1472.0 1589.3,1466.3 1615.6,1460.5 1641.8,1454.6 1668.1,1448.6 1694.3,1442.6 1720.4,1436.4 1746.5,1430.2 1772.6,1423.9 1798.6,1417.6 1824.5,1411.2 1850.4,1404.7 1876.3,1398.1 1902.1,1391.5 1927.8,1384.8 1953.5,1378.1 1979.1,1371.3 2004.6,1364.5  Z" style="stroke-width: 0.5;  stroke: rgb(0,0,0); fill: rgb(179,177,178);" />
<path d="M 1958.317,1249.098 A 522.500,522.500 0.00 0,1 1969.7,1271.1 L 1969.7,1271.1 1946.8,1282.1 1923.6,1293.0 1900.2,1303.8 1876.6,1314.3 1852.8,1324.7 1828.7,1334.9 1804.5,1344.9 1780.0,1354.6 1755.3,1364.1 1730.5,1373.3 1705.5,1382.3 1680.3,1391.0 1655.0,1399.4 1629.5,1407.5 1603.9,1415.3 1578.2,1422.8 1552.3,1430.0 1526.4,1436.9 1500.3,1443.5 1474.2,1449.7 1448.0,1455.6 1421.7,1461.1 1395.4,1466.4 1369.1,1471.3 1342.7,1475.9 1316.3,1480.1 1289.9,1484.0 1263.5,1487.6 1237.1,1490.9 1210.8,1493.9 1184.5,1496.5 1158.3,1498.9 1132.1,1500.9 1106.1,1502.7 1080.1,1504.2 1054.3,1505.4 1028.5,1506.3 1003.0,1507.1 977.6,1507.5  A 522.500,522.500 0.00 0,1 977.8,1482.4 L 977.8,1482.4 1002.9,1483.1 1028.2,1483.5 1053.7,1483.7 1079.3,1483.5 1105.1,1483.1 1131.0,1482.3 1157.0,1481.1 1183.1,1479.6 1209.2,1477.8 1235.5,1475.5 1261.7,1472.9 1288.0,1469.9 1314.3,1466.6 1340.6,1462.8 1366.9,1458.6 1393.1,1454.0 1419.3,1449.1 1445.4,1443.7 1471.5,1437.9 1497.5,1431.7 1523.3,1425.1 1549.1,1418.2 1574.7,1410.8 1600.2,1403.1 1625.6,1395.0 1650.7,1386.5 1675.7,1377.7 1700.6,1368.5 1725.2,1359.0 1749.6,1349.2 1773.8,1339.1 1797.8,1328.7 1821.5,1318.0 1845.0,1307.0 1868.2,1295.9 1891.1,1284.4 1913.8,1272.8 1936.2,1261.0 1958.3,1249.1  Z" style="stroke-width: 0.5;  stroke: rgb(0,0,0); fill: rgb(179,177,178);" />
<path d="M 1984.782,1694.916 A 522.500,522.500 0.00 0,1 1976.0,1715.4 L 1976.0,1715.4 1955.2,1706.2 1933.9,1697.5 1912.3,1689.2 1890.4,1681.5 1868.2,1674.3 1845.8,1667.8 1823.2,1661.9 1800.4,1656.8 1777.5,1652.4 1754.5,1648.8 1731.5,1646.0 1708.4,1644.1 1685.4,1643.0 1662.4,1642.8 1639.5,1643.5 1616.6,1645.1 1593.9,1647.6 1571.4,1651.1 1549.0,1655.5 1526.9,1660.8 1505.0,1667.1 1483.3,1674.2 1461.9,1682.2 1440.8,1691.2 1420.1,1700.9 1399.7,1711.5 1379.6,1723.0 1360.0,1735.2 1340.7,1748.1 1321.9,1761.7 1303.5,1776.0 1285.5,1790.9 1268.0,1806.4 1251.0,1822.4 1234.5,1838.9 1218.5,1855.7 1203.0,1872.9 1188.0,1890.3 1173.5,1908.0  A 522.500,522.500 0.00 0,1 1156.5,1893.8 L 1156.5,1893.8 1171.9,1876.6 1187.7,1859.6 1204.1,1842.8 1220.9,1826.4 1238.3,1810.4 1256.1,1794.8 1274.4,1779.8 1293.2,1765.2 1312.4,1751.2 1332.0,1737.9 1352.0,1725.2 1372.4,1713.3 1393.1,1702.1 1414.2,1691.6 1435.7,1681.9 1457.4,1673.0 1479.5,1665.0 1501.8,1657.8 1524.3,1651.5 1547.1,1646.0 1570.1,1641.4 1593.2,1637.7 1616.5,1634.8 1639.9,1632.9 1663.4,1631.8 1687.0,1631.5 1710.6,1632.1 1734.2,1633.5 1757.7,1635.7 1781.3,1638.7 1804.7,1642.4 1828.0,1646.9 1851.1,1652.0 1874.1,1657.8 1896.8,1664.2 1919.3,1671.1 1941.5,1678.6 1963.3,1686.6 1984.8,1694.9  Z" style="stroke-width: 0.5;  stroke: rgb(0,0,0); fill: rgb(179,177,178);" />
<path d="M 1843.419,1106.211 A 522.500,522.500 0.00 0,1 1859.7,1121.1 L 1859.7,1121.1 1843.5,1137.8 1826.7,1154.4 1809.5,1170.7 1791.7,1186.8 1773.5,1202.4 1754.9,1217.7 1735.8,1232.5 1716.2,1246.8 1696.2,1260.5 1675.9,1273.7 1655.1,1286.3 1634.0,1298.2 1612.5,1309.5 1590.6,1320.1 1568.5,1329.9 1546.0,1339.0 1523.3,1347.4 1500.3,1355.0 1477.1,1361.8 1453.7,1367.8 1430.0,1373.0 1406.2,1377.4 1382.3,1381.0 1358.2,1383.8 1334.0,1385.8 1309.8,1387.0 1285.6,1387.4 1261.3,1387.1 1237.0,1386.1 1212.8,1384.3 1188.7,1381.8 1164.7,1378.7 1140.8,1374.9 1117.1,1370.5 1093.6,1365.5 1070.4,1360.0 1047.4,1353.9 1024.7,1347.4 1002.4,1340.5  A 522.500,522.500 0.00 0,1 1009.6,1319.7 L 1009.6,1319.7 1031.4,1327.4 1053.5,1334.8 1076.0,1341.6 1098.7,1348.0 1121.7,1353.7 1145.0,1358.9 1168.4,1363.4 1191.9,1367.3 1215.6,1370.4 1239.3,1372.8 1263.1,1374.5 1286.9,1375.3 1310.7,1375.4 1334.4,1374.6 1358.1,1373.0 1381.7,1370.6 1405.1,1367.3 1428.4,1363.1 1451.5,1358.1 1474.4,1352.2 1497.0,1345.5 1519.4,1338.0 1541.6,1329.6 1563.4,1320.4 1585.0,1310.5 1606.1,1299.7 1627.0,1288.3 1647.4,1276.1 1667.5,1263.2 1687.2,1249.7 1706.4,1235.6 1725.2,1220.9 1743.5,1205.7 1761.4,1190.0 1778.8,1173.8 1795.7,1157.3 1812.1,1140.5 1828.0,1123.5 1843.4,1106.2  Z" style="stroke-width: 0.5;  stroke: rgb(0,0,0); fill: rgb(179,177,178);" />
<path d="M 2022.368,1488.271 A 522.500,522.500 0.00 0,1 2022.4,1510.2 L 2022.4,1510.2 1997.9,1509.9 1973.2,1510.0 1948.4,1510.5 1923.3,1511.3 1898.1,1512.6 1872.9,1514.4 1847.5,1516.6 1822.0,1519.3 1796.6,1522.5 1771.1,1526.2 1745.6,1530.4 1720.1,1535.1 1694.7,1540.4 1669.4,1546.2 1644.2,1552.5 1619.0,1559.4 1594.1,1566.8 1569.2,1574.8 1544.5,1583.2 1520.1,1592.3 1495.8,1601.8 1471.7,1611.8 1447.9,1622.4 1424.3,1633.5 1401.0,1645.0 1377.9,1657.0 1355.2,1669.5 1332.8,1682.4 1310.6,1695.7 1288.8,1709.4 1267.4,1723.5 1246.2,1738.0 1225.5,1752.7 1205.1,1767.8 1185.1,1783.1 1165.5,1798.7 1146.2,1814.5 1127.4,1830.4 1109.0,1846.5  A 522.500,522.500 0.00 0,0 1124.1,1862.9 L 1124.1,1862.9 1141.8,1846.0 1159.9,1829.3 1178.5,1812.7 1197.4,1796.3 1216.8,1780.1 1236.5,1764.2 1256.6,1748.6 1277.1,1733.2 1297.9,1718.2 1319.1,1703.6 1340.7,1689.4 1362.5,1675.5 1384.7,1662.1 1407.2,1649.1 1430.1,1636.6 1453.1,1624.6 1476.5,1613.0 1500.1,1601.9 1524.0,1591.4 1548.1,1581.3 1572.3,1571.8 1596.8,1562.8 1621.5,1554.4 1646.3,1546.4 1671.2,1539.0 1696.3,1532.2 1721.4,1525.9 1746.7,1520.1 1772.0,1514.8 1797.3,1510.0 1822.6,1505.8 1847.9,1502.0 1873.1,1498.7 1898.3,1495.9 1923.4,1493.5 1948.4,1491.6 1973.2,1490.1 1997.9,1489.0 2022.4,1488.3  Z" style="stroke-width: 0.5;  stroke: rgb(0,0,0); fill: rgb(179,177,178);" />
<path d="M 1825.875,1091.574 A 522.500,522.500 0.00 0,1 1841.6,1104.7 L 1841.6,1104.7 1827.2,1121.0 1812.2,1137.0 1796.8,1152.7 1781.0,1167.9 1764.8,1182.5 1748.2,1196.5 1731.2,1209.9 1713.9,1222.4 1696.3,1234.1 1678.4,1245.0 1660.3,1254.9 1642.0,1263.8 1623.4,1271.7 1604.7,1278.5 1585.9,1284.3 1566.9,1288.9 1547.8,1292.4 1528.7,1294.7 1509.5,1295.9 1490.4,1295.9 1471.2,1294.7 1452.1,1292.4 1433.0,1288.9 1414.0,1284.3 1395.2,1278.6 1376.5,1271.7 1357.9,1263.9 1339.6,1255.0 1321.4,1245.1 1303.6,1234.2 1286.0,1222.5 1268.7,1210.0 1251.7,1196.7 1235.1,1182.7 1218.8,1168.0 1203.0,1152.8 1187.6,1137.2 1172.6,1121.2 1158.2,1104.8  A 522.500,522.500 0.00 0,1 1174.1,1091.6 L 1174.1,1091.6 1187.8,1108.3 1202.0,1124.8 1216.6,1140.9 1231.6,1156.5 1247.1,1171.6 1262.9,1186.0 1279.1,1199.7 1295.5,1212.7 1312.3,1224.8 1329.4,1235.9 1346.7,1246.1 1364.2,1255.3 1381.9,1263.5 1399.8,1270.5 1417.8,1276.5 1436.0,1281.2 1454.2,1284.8 1472.5,1287.2 1490.8,1288.5 1509.2,1288.5 1527.5,1287.2 1545.8,1284.8 1564.0,1281.2 1582.2,1276.5 1600.2,1270.5 1618.1,1263.5 1635.8,1255.3 1653.3,1246.1 1670.6,1235.9 1687.6,1224.7 1704.4,1212.7 1720.9,1199.7 1737.1,1186.0 1752.9,1171.6 1768.3,1156.5 1783.4,1140.9 1798.0,1124.8 1812.2,1108.3 1825.9,1091.6  Z" style="stroke-width: 0.5;  stroke: rgb(0,0,0); fill: rgb(179,177,178);" />
<path d="M 1864.730,1125.863 A 522.500,522.500 0.00 0,1 1878.2,1139.5 L 1878.2,1139.5 1860.9,1155.6 1843.2,1171.5 1825.0,1187.2 1806.3,1202.6 1787.2,1217.6 1767.7,1232.3 1747.7,1246.5 1727.3,1260.3 1706.6,1273.5 1685.4,1286.2 1663.9,1298.4 1642.0,1309.9 1619.8,1320.8 1597.3,1331.1 1574.5,1340.7 1551.4,1349.6 1528.0,1357.8 1504.4,1365.3 1480.6,1372.1 1456.6,1378.1 1432.5,1383.4 1408.1,1388.0 1383.7,1391.8 1359.1,1394.8 1334.5,1397.1 1309.8,1398.7 1285.0,1399.6 1260.3,1399.7 1235.6,1399.2 1211.0,1398.0 1186.4,1396.1 1161.9,1393.6 1137.6,1390.5 1113.4,1386.9 1089.5,1382.6 1065.8,1377.9 1042.3,1372.6 1019.2,1367.0 996.4,1360.9  A 522.500,522.500 0.00 0,1 1001.9,1342.3 L 1001.9,1342.3 1024.3,1349.1 1047.0,1355.5 1070.0,1361.5 1093.3,1367.0 1116.9,1371.9 1140.7,1376.3 1164.6,1380.1 1188.7,1383.2 1212.9,1385.7 1237.2,1387.4 1261.5,1388.5 1285.9,1388.8 1310.2,1388.4 1334.6,1387.2 1358.8,1385.2 1383.0,1382.5 1407.1,1378.9 1431.0,1374.6 1454.7,1369.5 1478.3,1363.6 1501.7,1356.9 1524.8,1349.4 1547.7,1341.2 1570.3,1332.2 1592.6,1322.5 1614.6,1312.0 1636.3,1300.9 1657.6,1289.1 1678.6,1276.7 1699.2,1263.7 1719.3,1250.1 1739.1,1236.0 1758.4,1221.4 1777.3,1206.3 1795.8,1190.8 1813.7,1175.0 1831.2,1158.8 1848.2,1142.5 1864.7,1125.9  Z" style="stroke-width: 0.5;  stroke: rgb(0,0,0); fill: rgb(179,177,178);" />
<path d="M 1801.067,1927.042 A 522.500,522.500 0.00 0,1 1785.5,1937.6 L 1785.5,1937.6 1774.0,1920.4 1762.3,1903.5 1750.3,1887.0 1738.0,1870.9 1725.5,1855.5 1712.9,1840.8 1700.2,1826.9 1687.4,1813.9 1674.5,1801.9 1661.6,1790.9 1648.8,1781.1 1635.9,1772.4 1623.2,1765.0 1610.5,1758.8 1597.9,1753.9 1585.5,1750.4 1573.3,1748.3 1561.3,1747.5 1549.5,1748.1 1537.9,1750.2 1526.6,1753.6 1515.5,1758.4 1504.8,1764.6 1494.3,1772.1 1484.2,1780.9 1474.3,1791.1 1464.9,1802.4 1455.8,1814.9 1447.0,1828.6 1438.6,1843.3 1430.6,1859.0 1423.0,1875.5 1415.7,1892.9 1408.9,1911.0 1402.4,1929.8 1396.3,1949.0 1390.6,1968.7 1385.3,1988.6 1380.4,2008.6  A 522.500,522.500 0.00 0,1 1362.4,2004.0 L 1362.4,2004.0 1368.0,1984.1 1374.1,1964.3 1380.6,1944.7 1387.5,1925.6 1394.8,1906.9 1402.5,1888.9 1410.6,1871.6 1419.1,1855.1 1428.1,1839.4 1437.4,1824.8 1447.0,1811.1 1457.1,1798.6 1467.5,1787.3 1478.2,1777.1 1489.3,1768.2 1500.7,1760.6 1512.4,1754.3 1524.4,1749.4 1536.7,1745.8 1549.2,1743.6 1562.0,1742.8 1574.9,1743.4 1588.1,1745.3 1601.4,1748.5 1614.8,1753.1 1628.4,1759.0 1642.1,1766.2 1655.8,1774.5 1669.5,1784.0 1683.2,1794.6 1696.9,1806.3 1710.6,1818.9 1724.1,1832.4 1737.5,1846.8 1750.7,1861.8 1763.7,1877.5 1776.5,1893.6 1788.9,1910.2 1801.1,1927.0  Z" style="stroke-width: 0.5;  stroke: rgb(0,0,0); fill: rgb(179,177,178);" />
<path d="M 1773.901,1944.954 A 522.500,522.500 0.00 0,1 1759.8,1953.3 L 1759.8,1953.3 1749.4,1935.6 1738.8,1918.1 1727.9,1901.0 1716.8,1884.4 1705.5,1868.4 1694.1,1853.1 1682.6,1838.6 1671.0,1825.1 1659.3,1812.5 1647.7,1800.9 1636.0,1790.5 1624.4,1781.3 1612.9,1773.4 1601.5,1766.7 1590.2,1761.3 1579.0,1757.4 1568.0,1754.8 1557.2,1753.6 1546.5,1753.9 1536.1,1755.6 1526.0,1758.7 1516.1,1763.2 1506.5,1769.1 1497.1,1776.4 1488.1,1785.1 1479.4,1795.0 1470.9,1806.2 1462.9,1818.6 1455.1,1832.2 1447.7,1846.8 1440.6,1862.5 1433.9,1879.0 1427.6,1896.4 1421.6,1914.5 1415.9,1933.3 1410.7,1952.5 1405.7,1972.2 1401.2,1992.1 1396.9,2012.2  A 522.500,522.500 0.00 0,1 1381.1,2008.8 L 1381.1,2008.8 1386.0,1988.8 1391.2,1968.9 1396.9,1949.3 1402.9,1930.1 1409.2,1911.4 1416.0,1893.3 1423.1,1876.0 1430.6,1859.5 1438.5,1843.9 1446.7,1829.3 1455.2,1815.7 1464.1,1803.3 1473.4,1792.1 1483.0,1782.1 1492.8,1773.4 1503.0,1766.1 1513.5,1760.1 1524.2,1755.4 1535.2,1752.2 1546.5,1750.4 1557.9,1749.9 1569.6,1750.9 1581.4,1753.3 1593.4,1757.1 1605.5,1762.2 1617.8,1768.6 1630.1,1776.4 1642.5,1785.3 1654.9,1795.4 1667.3,1806.7 1679.7,1819.0 1692.0,1832.3 1704.3,1846.5 1716.4,1861.5 1728.4,1877.2 1740.1,1893.5 1751.7,1910.3 1762.9,1927.5 1773.9,1945.0  Z" style="stroke-width: 0.5;  stroke: rgb(0,0,0); fill: rgb(179,177,178);" />
<path d="M 1898.179,1838.318 A 522.500,522.500 0.00 0,1 1887.6,1850.4 L 1887.6,1850.4 1871.5,1836.2 1854.9,1822.3 1838.0,1808.9 1820.8,1796.0 1803.3,1783.7 1785.6,1772.2 1767.6,1761.4 1749.5,1751.4 1731.3,1742.4 1713.0,1734.3 1694.6,1727.2 1676.3,1721.2 1657.9,1716.3 1639.6,1712.5 1621.4,1709.8 1603.2,1708.3 1585.3,1708.1 1567.5,1709.0 1549.9,1711.2 1532.5,1714.5 1515.3,1719.1 1498.5,1724.9 1481.9,1731.8 1465.6,1739.9 1449.7,1749.2 1434.1,1759.5 1418.9,1771.0 1404.1,1783.4 1389.7,1796.8 1375.7,1811.1 1362.2,1826.3 1349.1,1842.3 1336.5,1859.0 1324.3,1876.3 1312.7,1894.2 1301.5,1912.6 1290.8,1931.4 1280.7,1950.4 1271.0,1969.6  A 522.500,522.500 0.00 0,1 1256.8,1962.4 L 1256.8,1962.4 1267.1,1943.4 1277.9,1924.6 1289.3,1906.0 1301.1,1887.8 1313.4,1870.1 1326.3,1852.9 1339.6,1836.4 1353.3,1820.6 1367.6,1805.5 1382.2,1791.3 1397.3,1778.0 1412.8,1765.7 1428.7,1754.3 1445.0,1744.0 1461.6,1734.8 1478.5,1726.6 1495.8,1719.6 1513.3,1713.8 1531.1,1709.1 1549.2,1705.6 1567.4,1703.3 1585.9,1702.2 1604.5,1702.2 1623.2,1703.5 1642.1,1705.8 1661.0,1709.4 1680.0,1714.0 1699.0,1719.7 1718.0,1726.4 1736.9,1734.1 1755.7,1742.7 1774.4,1752.3 1792.9,1762.6 1811.2,1773.8 1829.2,1785.6 1847.0,1798.1 1864.4,1811.1 1881.5,1824.5 1898.2,1838.3  Z" style="stroke-width: 0.5;  stroke: rgb(0,0,0); fill: rgb(179,177,178);" />
<path d="M 2021.448,1466.853 A 522.500,522.500 0.00 0,1 2022.2,1481.9 L 2022.2,1481.9 1997.8,1483.0 1973.2,1484.4 1948.4,1486.2 1923.5,1488.5 1898.5,1491.2 1873.4,1494.3 1848.3,1498.0 1823.1,1502.1 1797.9,1506.8 1772.7,1511.9 1747.6,1517.6 1722.6,1523.8 1697.6,1530.6 1672.7,1537.9 1648.0,1545.7 1623.4,1554.1 1599.0,1563.0 1574.7,1572.5 1550.7,1582.5 1526.9,1593.0 1503.4,1604.1 1480.1,1615.6 1457.1,1627.7 1434.3,1640.3 1411.9,1653.3 1389.8,1666.8 1368.0,1680.8 1346.5,1695.1 1325.4,1709.9 1304.7,1725.1 1284.3,1740.6 1264.3,1756.4 1244.7,1772.6 1225.5,1789.1 1206.7,1805.8 1188.3,1822.7 1170.3,1839.8 1152.7,1857.0 1135.5,1874.4  A 522.500,522.500 0.00 0,0 1146.4,1884.7 L 1146.4,1884.7 1163.0,1866.8 1180.1,1849.1 1197.6,1831.5 1215.5,1814.0 1233.9,1796.8 1252.6,1779.8 1271.8,1763.1 1291.3,1746.7 1311.2,1730.5 1331.5,1714.8 1352.2,1699.4 1373.2,1684.4 1394.6,1669.9 1416.3,1655.7 1438.4,1642.1 1460.7,1628.8 1483.4,1616.1 1506.4,1603.9 1529.6,1592.2 1553.1,1580.9 1576.8,1570.3 1600.7,1560.1 1624.9,1550.5 1649.2,1541.4 1673.7,1532.8 1698.4,1524.8 1723.1,1517.4 1748.0,1510.4 1773.0,1504.0 1798.0,1498.1 1823.0,1492.8 1848.1,1487.9 1873.1,1483.5 1898.1,1479.6 1923.0,1476.2 1947.9,1473.2 1972.6,1470.7 1997.1,1468.6 2021.4,1466.9  Z" style="stroke-width: 0.5;  stroke: rgb(0,0,0); fill: rgb(179,177,178);" />
<path d="M 2018.638,1436.591 A 522.500,522.500 0.00 0,1 2020.1,1450.4 L 2020.1,1450.4 1994.0,1452.9 1967.8,1455.6 1941.6,1458.3 1915.3,1461.2 1888.9,1464.1 1862.5,1467.2 1836.0,1470.4 1809.6,1473.8 1783.0,1477.2 1756.5,1480.8 1729.9,1484.5 1703.4,1488.4 1676.8,1492.4 1650.2,1496.5 1623.6,1500.7 1597.0,1505.1 1570.4,1509.6 1543.8,1514.3 1517.3,1519.1 1490.7,1524.0 1464.2,1529.1 1437.8,1534.2 1411.3,1539.6 1384.9,1545.0 1358.6,1550.6 1332.3,1556.3 1306.0,1562.1 1279.8,1568.1 1253.7,1574.1 1227.6,1580.3 1201.6,1586.6 1175.7,1593.0 1149.9,1599.5 1124.1,1606.1 1098.5,1612.8 1072.9,1619.6 1047.4,1626.4 1022.0,1633.4 996.7,1640.4  A 522.500,522.500 0.00 0,1 993.2,1627.0 L 993.2,1627.0 1018.8,1620.6 1044.5,1614.3 1070.3,1608.0 1096.1,1601.8 1122.0,1595.6 1147.9,1589.5 1173.9,1583.5 1200.0,1577.5 1226.1,1571.6 1252.3,1565.9 1278.5,1560.1 1304.8,1554.5 1331.1,1548.9 1357.4,1543.5 1383.8,1538.1 1410.2,1532.8 1436.6,1527.6 1463.1,1522.5 1489.5,1517.5 1516.0,1512.6 1542.6,1507.7 1569.1,1503.0 1595.6,1498.4 1622.2,1493.8 1648.7,1489.4 1675.2,1485.0 1701.8,1480.8 1728.3,1476.6 1754.8,1472.6 1781.3,1468.6 1807.8,1464.7 1834.3,1460.9 1860.7,1457.2 1887.1,1453.5 1913.5,1450.0 1939.9,1446.5 1966.2,1443.1 1992.4,1439.8 2018.6,1436.6  Z" style="stroke-width: 0.5;  stroke: rgb(0,0,0); fill: rgb(179,177,178);" />
<path d="M 1942.803,1222.635 A 522.500,522.500 0.00 0,1 1949.3,1233.4 L 1949.3,1233.4 1927.9,1245.9 1906.1,1258.3 1884.0,1270.5 1861.5,1282.5 1838.8,1294.2 1815.8,1305.6 1792.5,1316.8 1768.9,1327.7 1745.1,1338.2 1721.0,1348.3 1696.7,1358.1 1672.2,1367.6 1647.5,1376.6 1622.5,1385.2 1597.4,1393.4 1572.2,1401.2 1546.7,1408.6 1521.2,1415.5 1495.4,1421.9 1469.6,1427.9 1443.7,1433.5 1417.7,1438.6 1391.7,1443.2 1365.5,1447.4 1339.4,1451.1 1313.2,1454.4 1287.0,1457.2 1260.9,1459.5 1234.7,1461.5 1208.6,1463.0 1182.6,1464.0 1156.7,1464.7 1130.9,1465.0 1105.2,1464.9 1079.6,1464.4 1054.2,1463.5 1028.9,1462.4 1003.9,1460.9 979.1,1459.1  A 522.500,522.500 0.00 0,1 980.2,1446.5 L 980.2,1446.5 1004.9,1448.9 1029.7,1451.0 1054.8,1452.7 1080.0,1454.0 1105.4,1455.0 1131.0,1455.6 1156.7,1455.8 1182.5,1455.6 1208.4,1454.9 1234.4,1453.7 1260.4,1452.1 1286.5,1450.1 1312.6,1447.5 1338.7,1444.5 1364.7,1441.0 1390.7,1437.0 1416.7,1432.5 1442.5,1427.5 1468.3,1422.0 1494.0,1416.1 1519.6,1409.6 1545.0,1402.7 1570.3,1395.2 1595.4,1387.3 1620.3,1379.0 1645.0,1370.2 1669.5,1361.0 1693.8,1351.3 1717.9,1341.3 1741.7,1330.8 1765.2,1320.0 1788.5,1308.8 1811.5,1297.3 1834.2,1285.5 1856.6,1273.4 1878.6,1261.0 1900.4,1248.4 1921.8,1235.6 1942.8,1222.6  Z" style="stroke-width: 0.5;  stroke: rgb(0,0,0); fill: rgb(179,177,178);" />
<path d="M 1917.884,1186.346 A 522.500,522.500 0.00 0,1 1925.3,1196.4 L 1925.3,1196.4 1905.3,1210.4 1885.0,1224.3 1864.2,1237.9 1843.1,1251.2 1821.7,1264.3 1799.8,1277.0 1777.7,1289.4 1755.2,1301.4 1732.4,1312.9 1709.3,1324.1 1685.9,1334.8 1662.2,1345.1 1638.3,1354.8 1614.1,1364.1 1589.7,1372.8 1565.1,1381.1 1540.3,1388.7 1515.4,1395.8 1490.2,1402.4 1464.9,1408.4 1439.5,1413.8 1414.0,1418.6 1388.4,1422.9 1362.7,1426.6 1337.0,1429.8 1311.3,1432.3 1285.5,1434.3 1259.8,1435.8 1234.1,1436.7 1208.4,1437.1 1182.8,1437.0 1157.3,1436.3 1132.0,1435.2 1106.8,1433.6 1081.7,1431.6 1056.9,1429.2 1032.2,1426.3 1007.9,1423.1 983.7,1419.5  A 522.500,522.500 0.00 0,1 985.8,1407.3 L 985.8,1407.3 1009.7,1411.4 1033.8,1415.2 1058.3,1418.6 1082.9,1421.5 1107.8,1424.0 1132.8,1426.0 1158.0,1427.6 1183.3,1428.6 1208.7,1429.1 1234.2,1429.1 1259.8,1428.5 1285.4,1427.3 1311.0,1425.6 1336.6,1423.3 1362.1,1420.3 1387.7,1416.8 1413.1,1412.7 1438.4,1407.9 1463.7,1402.6 1488.7,1396.6 1513.7,1390.1 1538.5,1383.0 1563.0,1375.2 1587.4,1366.9 1611.6,1358.1 1635.5,1348.7 1659.1,1338.7 1682.5,1328.3 1705.6,1317.3 1728.4,1305.9 1750.9,1294.0 1773.1,1281.8 1794.9,1269.1 1816.4,1256.0 1837.4,1242.6 1858.2,1228.9 1878.5,1214.9 1898.4,1200.7 1917.9,1186.3  Z" style="stroke-width: 0.5;  stroke: rgb(0,0,0); fill: rgb(179,177,178);" />
<path d="M 1884.606,1853.673 A 522.500,522.500 0.00 0,1 1876.5,1862.3 L 1876.5,1862.3 1860.9,1847.7 1844.9,1833.4 1828.6,1819.5 1811.9,1806.2 1795.0,1793.5 1777.9,1781.5 1760.5,1770.3 1743.0,1760.0 1725.4,1750.5 1707.7,1742.1 1690.0,1734.6 1672.2,1728.3 1654.5,1723.0 1636.8,1718.9 1619.3,1716.0 1601.8,1714.3 1584.5,1713.8 1567.4,1714.5 1550.4,1716.5 1533.7,1719.7 1517.3,1724.2 1501.1,1729.9 1485.2,1736.8 1469.6,1744.9 1454.4,1754.1 1439.5,1764.5 1425.0,1776.0 1410.9,1788.5 1397.2,1802.0 1384.0,1816.4 1371.1,1831.7 1358.7,1847.8 1346.8,1864.7 1335.3,1882.2 1324.3,1900.2 1313.8,1918.8 1303.8,1937.7 1294.3,1957.0 1285.3,1976.3  A 522.500,522.500 0.00 0,1 1274.6,1971.4 L 1274.6,1971.4 1284.1,1952.1 1294.1,1933.0 1304.6,1914.2 1315.6,1895.8 1327.1,1877.9 1339.1,1860.5 1351.5,1843.7 1364.5,1827.7 1377.8,1812.5 1391.6,1798.2 1405.8,1784.7 1420.5,1772.3 1435.5,1760.8 1450.9,1750.5 1466.6,1741.2 1482.7,1733.1 1499.1,1726.2 1515.8,1720.5 1532.7,1715.9 1550.0,1712.6 1567.4,1710.5 1585.0,1709.6 1602.8,1710.0 1620.8,1711.5 1638.8,1714.2 1657.0,1718.1 1675.2,1723.1 1693.4,1729.2 1711.6,1736.4 1729.7,1744.6 1747.8,1753.8 1765.7,1763.8 1783.5,1774.7 1801.1,1786.4 1818.4,1798.8 1835.5,1811.8 1852.2,1825.3 1868.6,1839.3 1884.6,1853.7  Z" style="stroke-width: 0.5;  stroke: rgb(0,0,0); fill: rgb(179,177,178);" />
<path d="M 1932.765,1207.219 A 522.500,522.500 0.00 0,1 1939.2,1216.9 L 1939.2,1216.9 1918.4,1230.1 1897.2,1243.2 1875.6,1256.0 1853.8,1268.6 1831.6,1280.9 1809.1,1293.0 1786.2,1304.7 1763.1,1316.1 1739.7,1327.1 1716.1,1337.7 1692.1,1347.9 1668.0,1357.8 1643.6,1367.1 1619.0,1376.1 1594.1,1384.6 1569.1,1392.6 1544.0,1400.1 1518.6,1407.1 1493.2,1413.7 1467.5,1419.7 1441.8,1425.2 1416.0,1430.3 1390.1,1434.8 1364.2,1438.8 1338.2,1442.3 1312.2,1445.3 1286.2,1447.8 1260.2,1449.8 1234.2,1451.4 1208.3,1452.4 1182.4,1453.0 1156.7,1453.2 1131.0,1452.9 1105.5,1452.2 1080.1,1451.1 1054.9,1449.6 1029.9,1447.8 1005.2,1445.6 980.6,1443.0  A 522.500,522.500 0.00 0,1 982.0,1431.6 L 982.0,1431.6 1006.3,1434.6 1030.9,1437.3 1055.8,1439.7 1080.8,1441.6 1106.0,1443.2 1131.4,1444.3 1156.9,1445.0 1182.5,1445.2 1208.3,1445.0 1234.1,1444.3 1259.9,1443.0 1285.8,1441.3 1311.7,1439.0 1337.6,1436.2 1363.5,1432.9 1389.3,1429.1 1415.1,1424.7 1440.8,1419.7 1466.3,1414.3 1491.8,1408.3 1517.1,1401.7 1542.3,1394.7 1567.3,1387.1 1592.1,1379.0 1616.7,1370.4 1641.2,1361.3 1665.3,1351.7 1689.3,1341.7 1713.0,1331.3 1736.4,1320.4 1759.5,1309.1 1782.3,1297.4 1804.8,1285.4 1827.0,1273.0 1848.9,1260.4 1870.4,1247.4 1891.6,1234.2 1912.4,1220.8 1932.8,1207.2  Z" style="stroke-width: 0.5;  stroke: rgb(0,0,0); fill: rgb(179,177,178);" />
<path d="M 1957.699,1752.027 A 522.500,522.500 0.00 0,1 1952.1,1761.9 L 1952.1,1761.9 1932.6,1750.9 1912.6,1740.2 1892.3,1730.1 1871.6,1720.5 1850.7,1711.5 1829.5,1703.1 1808.0,1695.4 1786.4,1688.5 1764.7,1682.4 1742.8,1677.1 1720.9,1672.7 1698.9,1669.2 1676.9,1666.7 1655.0,1665.0 1633.1,1664.4 1611.2,1664.8 1589.5,1666.1 1568.0,1668.5 1546.6,1671.8 1525.4,1676.2 1504.4,1681.6 1483.6,1688.0 1463.2,1695.4 1443.0,1703.7 1423.1,1712.9 1403.6,1723.1 1384.4,1734.2 1365.7,1746.1 1347.3,1758.9 1329.3,1772.4 1311.7,1786.6 1294.6,1801.5 1278.0,1817.0 1261.8,1833.1 1246.2,1849.7 1231.0,1866.7 1216.4,1884.1 1202.3,1901.8 1188.7,1919.6  A 522.500,522.500 0.00 0,1 1179.7,1912.8 L 1179.7,1912.8 1193.7,1895.1 1208.3,1877.7 1223.4,1860.5 1239.0,1843.7 1255.1,1827.3 1271.7,1811.4 1288.7,1796.1 1306.3,1781.4 1324.2,1767.3 1342.6,1753.9 1361.4,1741.3 1380.6,1729.5 1400.2,1718.5 1420.1,1708.4 1440.4,1699.2 1460.9,1690.9 1481.8,1683.5 1502.9,1677.1 1524.2,1671.7 1545.8,1667.2 1567.6,1663.7 1589.5,1661.3 1611.5,1659.7 1633.7,1659.2 1655.9,1659.7 1678.2,1661.1 1700.6,1663.4 1722.9,1666.6 1745.1,1670.8 1767.3,1675.7 1789.4,1681.5 1811.3,1688.1 1833.1,1695.4 1854.6,1703.5 1875.9,1712.1 1896.9,1721.4 1917.5,1731.1 1937.8,1741.4 1957.7,1752.0  Z" style="stroke-width: 0.5;  stroke: rgb(0,0,0); fill: rgb(179,177,178);" />
<path d="M 1850.777,1887.249 A 522.500,522.500 0.00 0,1 1842.6,1894.5 L 1842.6,1894.5 1828.6,1878.8 1814.2,1863.3 1799.5,1848.3 1784.5,1833.8 1769.2,1819.9 1753.8,1806.8 1738.1,1794.4 1722.3,1782.9 1706.5,1772.4 1690.5,1762.8 1674.5,1754.3 1658.6,1747.0 1642.6,1740.8 1626.7,1735.8 1611.0,1732.0 1595.3,1729.5 1579.8,1728.3 1564.4,1728.4 1549.3,1729.8 1534.4,1732.5 1519.7,1736.5 1505.4,1741.8 1491.3,1748.4 1477.5,1756.2 1464.0,1765.3 1450.9,1775.5 1438.1,1786.9 1425.7,1799.4 1413.8,1812.9 1402.2,1827.5 1391.0,1842.9 1380.2,1859.2 1369.9,1876.3 1360.1,1894.0 1350.6,1912.4 1341.7,1931.2 1333.2,1950.4 1325.1,1969.9 1317.5,1989.6  A 522.500,522.500 0.00 0,1 1307.3,1985.7 L 1307.3,1985.7 1315.4,1966.1 1323.9,1946.7 1332.8,1927.6 1342.3,1908.8 1352.2,1890.6 1362.5,1872.9 1373.3,1855.9 1384.6,1839.7 1396.2,1824.3 1408.3,1809.9 1420.8,1796.4 1433.7,1783.9 1447.0,1772.5 1460.6,1762.3 1474.6,1753.2 1488.9,1745.4 1503.5,1738.7 1518.4,1733.4 1533.6,1729.3 1549.0,1726.5 1564.6,1725.0 1580.5,1724.8 1596.5,1725.9 1612.6,1728.2 1628.9,1731.8 1645.2,1736.6 1661.6,1742.6 1678.1,1749.8 1694.5,1758.0 1710.9,1767.3 1727.2,1777.7 1743.5,1788.9 1759.5,1801.0 1775.4,1813.9 1791.1,1827.5 1806.5,1841.8 1821.6,1856.5 1836.4,1871.7 1850.8,1887.2  Z" style="stroke-width: 0.5;  stroke: rgb(0,0,0); fill: rgb(179,177,178);" />
<path d="M 1937.383,1785.836 A 522.500,522.500 0.00 0,1 1931.4,1794.9 L 1931.4,1794.9 1912.9,1782.6 1894.1,1770.7 1874.9,1759.3 1855.4,1748.4 1835.5,1738.2 1815.4,1728.6 1795.1,1719.7 1774.5,1711.6 1753.9,1704.4 1733.1,1698.0 1712.3,1692.6 1691.4,1688.1 1670.5,1684.6 1649.6,1682.1 1628.8,1680.7 1608.0,1680.3 1587.4,1681.0 1566.9,1682.7 1546.6,1685.6 1526.5,1689.5 1506.6,1694.5 1487.0,1700.5 1467.6,1707.7 1448.6,1715.8 1429.8,1725.0 1411.4,1735.1 1393.3,1746.2 1375.7,1758.2 1358.4,1771.1 1341.5,1784.8 1325.1,1799.3 1309.1,1814.5 1293.6,1830.4 1278.6,1846.8 1264.1,1863.8 1250.0,1881.2 1236.5,1899.0 1223.5,1917.1 1211.1,1935.4  A 522.500,522.500 0.00 0,1 1202.2,1929.3 L 1202.2,1929.3 1215.1,1911.2 1228.5,1893.3 1242.4,1875.7 1256.9,1858.5 1271.9,1841.7 1287.3,1825.4 1303.3,1809.7 1319.7,1794.6 1336.5,1780.3 1353.8,1766.7 1371.5,1753.9 1389.6,1742.0 1408.0,1731.0 1426.8,1720.9 1446.0,1711.8 1465.5,1703.6 1485.2,1696.5 1505.3,1690.4 1525.5,1685.3 1546.0,1681.3 1566.7,1678.4 1587.6,1676.5 1608.6,1675.7 1629.7,1675.9 1650.8,1677.2 1672.1,1679.5 1693.3,1682.7 1714.6,1687.0 1735.8,1692.2 1756.9,1698.2 1777.9,1705.2 1798.7,1713.0 1819.4,1721.5 1839.9,1730.8 1860.0,1740.7 1879.9,1751.3 1899.5,1762.4 1918.6,1773.9 1937.4,1785.8  Z" style="stroke-width: 0.5;  stroke: rgb(0,0,0); fill: rgb(179,177,178);" />
<path d="M 1842.526,1894.566 A 522.500,522.500 0.00 0,1 1834.5,1901.4 L 1834.5,1901.4 1820.8,1885.4 1806.8,1869.8 1792.5,1854.5 1777.9,1839.8 1763.1,1825.6 1748.0,1812.2 1732.8,1799.6 1717.5,1787.9 1702.0,1777.1 1686.6,1767.4 1671.0,1758.7 1655.5,1751.1 1640.1,1744.7 1624.7,1739.6 1609.4,1735.7 1594.2,1733.0 1579.2,1731.7 1564.4,1731.6 1549.8,1732.9 1535.4,1735.5 1521.2,1739.5 1507.3,1744.7 1493.8,1751.3 1480.5,1759.1 1467.6,1768.1 1455.0,1778.4 1442.7,1789.8 1430.9,1802.3 1419.4,1815.9 1408.3,1830.5 1397.7,1846.0 1387.4,1862.4 1377.6,1879.5 1368.3,1897.4 1359.3,1915.8 1350.8,1934.7 1342.8,1954.1 1335.2,1973.7 1328.1,1993.4  A 522.500,522.500 0.00 0,1 1318.4,1989.9 L 1318.4,1989.9 1326.0,1970.3 1334.0,1950.7 1342.4,1931.5 1351.4,1912.7 1360.8,1894.3 1370.6,1876.5 1380.9,1859.5 1391.6,1843.1 1402.7,1827.7 1414.3,1813.1 1426.2,1799.6 1438.6,1787.1 1451.3,1775.7 1464.4,1765.4 1477.8,1756.3 1491.6,1748.5 1505.6,1741.9 1520.0,1736.6 1534.6,1732.6 1549.5,1729.9 1564.6,1728.5 1579.9,1728.4 1595.4,1729.6 1611.1,1732.1 1626.8,1735.9 1642.7,1740.8 1658.6,1747.0 1674.6,1754.4 1690.5,1762.9 1706.5,1772.4 1722.3,1783.0 1738.1,1794.5 1753.8,1806.8 1769.2,1820.0 1784.5,1833.8 1799.5,1848.3 1814.2,1863.4 1828.5,1878.8 1842.5,1894.6  Z" style="stroke-width: 0.5;  stroke: rgb(0,0,0); fill: rgb(179,177,178);" />
<path d="M 1745.185,1961.401 A 522.500,522.500 0.00 0,1 1735.9,1966.2 L 1735.9,1966.2 1726.6,1948.0 1716.9,1930.1 1707.1,1912.5 1697.1,1895.5 1686.9,1879.0 1676.5,1863.2 1666.1,1848.3 1655.7,1834.2 1645.2,1821.1 1634.7,1809.1 1624.2,1798.3 1613.8,1788.6 1603.4,1780.2 1593.1,1773.2 1583.0,1767.4 1573.0,1763.1 1563.1,1760.2 1553.4,1758.7 1544.0,1758.6 1534.7,1760.0 1525.6,1762.9 1516.9,1767.2 1508.3,1772.9 1500.0,1780.0 1492.0,1788.5 1484.3,1798.3 1476.9,1809.4 1469.8,1821.7 1463.0,1835.2 1456.5,1849.7 1450.4,1865.3 1444.6,1881.9 1439.1,1899.2 1433.9,1917.3 1429.0,1936.1 1424.5,1955.4 1420.3,1975.1 1416.4,1995.1 1412.9,2015.2  A 522.500,522.500 0.00 0,1 1402.7,2013.4 L 1402.7,2013.4 1406.7,1993.3 1411.0,1973.3 1415.6,1953.7 1420.6,1934.4 1425.9,1915.7 1431.6,1897.6 1437.6,1880.2 1443.9,1863.7 1450.6,1848.2 1457.6,1833.6 1464.9,1820.1 1472.6,1807.8 1480.5,1796.7 1488.8,1786.9 1497.3,1778.3 1506.1,1771.2 1515.2,1765.4 1524.6,1761.1 1534.1,1758.1 1544.0,1756.6 1554.0,1756.6 1564.2,1758.0 1574.6,1760.8 1585.1,1765.0 1595.8,1770.6 1606.6,1777.5 1617.5,1785.8 1628.5,1795.3 1639.4,1806.0 1650.4,1817.8 1661.4,1830.7 1672.4,1844.6 1683.3,1859.4 1694.0,1875.0 1704.7,1891.3 1715.1,1908.2 1725.4,1925.6 1735.4,1943.4 1745.2,1961.4  Z" style="stroke-width: 0.5;  stroke: rgb(0,0,0); fill: rgb(179,177,178);" />
<path d="M 1925.455,1196.694 A 522.500,522.500 0.00 0,1 1931.0,1204.6 L 1931.0,1204.6 1910.7,1218.3 1890.0,1231.8 1868.9,1245.1 1847.5,1258.2 1825.7,1270.9 1803.6,1283.4 1781.2,1295.5 1758.4,1307.3 1735.4,1318.7 1712.0,1329.6 1688.4,1340.2 1664.5,1350.3 1640.4,1359.9 1616.1,1369.1 1591.5,1377.7 1566.7,1385.9 1541.8,1393.5 1516.6,1400.7 1491.4,1407.3 1465.9,1413.3 1440.4,1418.8 1414.8,1423.8 1389.0,1428.2 1363.2,1432.1 1337.4,1435.4 1311.5,1438.2 1285.7,1440.5 1259.8,1442.2 1234.0,1443.4 1208.2,1444.1 1182.5,1444.4 1156.9,1444.1 1131.4,1443.4 1106.0,1442.2 1080.8,1440.6 1055.8,1438.6 1031.0,1436.2 1006.5,1433.5 982.2,1430.4  A 522.500,522.500 0.00 0,1 983.5,1420.9 L 983.5,1420.9 1007.7,1424.4 1032.1,1427.5 1056.7,1430.3 1081.6,1432.7 1106.6,1434.7 1131.9,1436.2 1157.2,1437.3 1182.7,1437.9 1208.3,1437.9 1234.0,1437.5 1259.7,1436.5 1285.5,1435.0 1311.2,1433.0 1337.0,1430.4 1362.7,1427.2 1388.4,1423.4 1414.0,1419.1 1439.5,1414.3 1464.9,1408.8 1490.2,1402.8 1515.4,1396.2 1540.4,1389.1 1565.2,1381.4 1589.8,1373.2 1614.2,1364.4 1638.3,1355.1 1662.3,1345.3 1685.9,1335.1 1709.3,1324.4 1732.4,1313.2 1755.3,1301.6 1777.8,1289.6 1799.9,1277.2 1821.8,1264.5 1843.3,1251.5 1864.4,1238.1 1885.1,1224.5 1905.5,1210.7 1925.5,1196.7  Z" style="stroke-width: 0.5;  stroke: rgb(0,0,0); fill: rgb(179,177,178);" />
<path d="M 1952.140,1761.870 A 522.500,522.500 0.00 0,1 1947.2,1770.1 L 1947.2,1770.1 1928.0,1758.8 1908.3,1747.9 1888.3,1737.4 1867.9,1727.5 1847.2,1718.2 1826.3,1709.6 1805.2,1701.6 1783.9,1694.4 1762.4,1688.1 1740.8,1682.6 1719.2,1677.9 1697.5,1674.2 1675.9,1671.5 1654.2,1669.7 1632.6,1668.9 1611.1,1669.1 1589.7,1670.3 1568.5,1672.6 1547.4,1675.9 1526.6,1680.2 1505.9,1685.6 1485.6,1692.0 1465.5,1699.4 1445.6,1707.7 1426.2,1717.1 1407.0,1727.3 1388.2,1738.5 1369.8,1750.5 1351.8,1763.4 1334.3,1777.0 1317.1,1791.4 1300.4,1806.5 1284.2,1822.2 1268.5,1838.5 1253.2,1855.3 1238.5,1872.5 1224.3,1890.1 1210.6,1907.9 1197.4,1926.0  A 522.500,522.500 0.00 0,1 1189.7,1920.4 L 1189.7,1920.4 1203.2,1902.5 1217.3,1884.8 1231.9,1867.4 1247.0,1850.3 1262.6,1833.7 1278.7,1817.6 1295.3,1802.1 1312.4,1787.1 1329.9,1772.9 1347.8,1759.3 1366.2,1746.6 1384.9,1734.6 1404.1,1723.5 1423.6,1713.3 1443.4,1704.0 1463.5,1695.6 1484.0,1688.3 1504.7,1681.9 1525.6,1676.4 1546.8,1672.0 1568.2,1668.6 1589.7,1666.3 1611.4,1664.9 1633.2,1664.5 1655.1,1665.2 1677.1,1666.8 1699.0,1669.3 1721.0,1672.8 1742.9,1677.2 1764.8,1682.5 1786.5,1688.6 1808.1,1695.5 1829.5,1703.1 1850.7,1711.5 1871.7,1720.5 1892.3,1730.1 1912.6,1740.2 1932.6,1750.9 1952.1,1761.9  Z" style="stroke-width: 0.5;  stroke: rgb(0,0,0); fill: rgb(179,177,178);" />
<path d="M 1857.994,1880.587 A 522.500,522.500 0.00 0,1 1851.0,1887.1 L 1851.0,1887.1 1836.6,1871.5 1821.8,1856.4 1806.7,1841.6 1791.3,1827.4 1775.6,1813.8 1759.7,1800.9 1743.6,1788.7 1727.4,1777.5 1711.0,1767.2 1694.6,1757.9 1678.1,1749.6 1661.7,1742.5 1645.2,1736.5 1628.9,1731.7 1612.6,1728.1 1596.4,1725.8 1580.4,1724.7 1564.5,1724.9 1548.9,1726.4 1533.4,1729.2 1518.2,1733.2 1503.3,1738.6 1488.7,1745.2 1474.4,1753.1 1460.4,1762.1 1446.7,1772.4 1433.4,1783.7 1420.5,1796.2 1408.0,1809.7 1395.8,1824.1 1384.1,1839.5 1372.9,1855.7 1362.0,1872.7 1351.6,1890.4 1341.7,1908.6 1332.2,1927.3 1323.2,1946.4 1314.7,1965.8 1306.7,1985.4  A 522.500,522.500 0.00 0,1 1298.0,1981.9 L 1298.0,1981.9 1306.4,1962.4 1315.4,1943.1 1324.7,1924.1 1334.6,1905.4 1345.0,1887.3 1355.8,1869.7 1367.0,1852.8 1378.7,1836.7 1390.8,1821.3 1403.4,1806.9 1416.3,1793.5 1429.7,1781.1 1443.4,1769.7 1457.5,1759.5 1471.9,1750.4 1486.7,1742.5 1501.8,1735.9 1517.1,1730.5 1532.7,1726.3 1548.6,1723.5 1564.7,1721.9 1581.0,1721.6 1597.4,1722.5 1614.0,1724.7 1630.7,1728.2 1647.5,1732.8 1664.3,1738.6 1681.2,1745.6 1698.0,1753.6 1714.8,1762.7 1731.5,1772.8 1748.1,1783.9 1764.6,1795.7 1780.9,1808.4 1796.9,1821.8 1812.7,1835.8 1828.2,1850.3 1843.3,1865.3 1858.0,1880.6  Z" style="stroke-width: 0.5;  stroke: rgb(0,0,0); fill: rgb(179,177,178);" />
<path d="M 2022.400,1510.247 A 522.500,522.500 0.00 0,1 2022.1,1519.6 L 2022.1,1519.6 1996.6,1518.7 1970.9,1518.1 1945.1,1517.7 1919.2,1517.5 1893.1,1517.5 1866.9,1517.8 1840.6,1518.4 1814.2,1519.2 1787.8,1520.4 1761.3,1521.7 1734.7,1523.4 1708.1,1525.4 1681.4,1527.7 1654.8,1530.3 1628.1,1533.2 1601.5,1536.3 1574.8,1539.8 1548.2,1543.7 1521.6,1547.8 1495.1,1552.2 1468.6,1556.9 1442.2,1562.0 1415.8,1567.3 1389.6,1572.9 1363.4,1578.8 1337.4,1585.1 1311.4,1591.5 1285.6,1598.3 1259.9,1605.3 1234.4,1612.6 1209.0,1620.1 1183.8,1627.9 1158.7,1635.9 1133.9,1644.1 1109.2,1652.5 1084.7,1661.1 1060.4,1669.9 1036.3,1678.8 1012.5,1687.9  A 522.500,522.500 0.00 0,1 1009.2,1679.2 L 1009.2,1679.2 1033.3,1670.5 1057.6,1661.9 1082.1,1653.5 1106.8,1645.2 1131.7,1637.1 1156.8,1629.2 1182.0,1621.6 1207.3,1614.1 1232.9,1606.8 1258.5,1599.8 1284.3,1593.0 1310.2,1586.4 1336.2,1580.1 1362.4,1574.0 1388.6,1568.2 1414.9,1562.7 1441.3,1557.4 1467.8,1552.4 1494.3,1547.7 1520.9,1543.3 1547.5,1539.1 1574.1,1535.3 1600.8,1531.7 1627.5,1528.4 1654.2,1525.4 1680.9,1522.6 1707.5,1520.2 1734.2,1518.0 1760.8,1516.0 1787.3,1514.4 1813.8,1513.0 1840.3,1511.8 1866.6,1510.9 1892.9,1510.3 1919.0,1509.8 1945.1,1509.6 1971.0,1509.6 1996.8,1509.8 2022.4,1510.2  Z" style="stroke-width: 0.5;  stroke: rgb(0,0,0); fill: rgb(179,177,178);" />
<path d="M 1987.872,1687.047 A 522.500,522.500 0.00 0,1 1984.9,1694.7 L 1984.9,1694.7 1963.4,1686.3 1941.6,1678.4 1919.4,1670.9 1896.9,1663.9 1874.2,1657.6 1851.2,1651.8 1828.0,1646.6 1804.7,1642.2 1781.3,1638.5 1757.7,1635.5 1734.1,1633.3 1710.5,1631.9 1686.9,1631.3 1663.3,1631.5 1639.8,1632.6 1616.4,1634.6 1593.1,1637.4 1569.9,1641.1 1546.9,1645.7 1524.1,1651.2 1501.5,1657.5 1479.2,1664.7 1457.1,1672.7 1435.3,1681.5 1413.9,1691.2 1392.7,1701.6 1371.9,1712.8 1351.5,1724.8 1331.5,1737.4 1311.8,1750.7 1292.6,1764.7 1273.8,1779.2 1255.5,1794.2 1237.6,1809.8 1220.2,1825.8 1203.3,1842.1 1186.9,1858.8 1171.0,1875.8 1155.6,1893.0  A 522.500,522.500 0.00 0,1 1149.5,1887.5 L 1149.5,1887.5 1165.2,1870.5 1181.4,1853.8 1198.2,1837.2 1215.4,1821.0 1233.1,1805.2 1251.2,1789.8 1269.9,1774.9 1288.9,1760.5 1308.4,1746.7 1328.3,1733.6 1348.6,1721.0 1369.3,1709.2 1390.4,1698.0 1411.8,1687.7 1433.5,1678.0 1455.5,1669.2 1477.8,1661.2 1500.4,1654.0 1523.2,1647.7 1546.2,1642.2 1569.4,1637.5 1592.7,1633.7 1616.3,1630.8 1639.9,1628.7 1663.6,1627.4 1687.4,1627.0 1711.2,1627.4 1735.0,1628.6 1758.8,1630.6 1782.5,1633.4 1806.1,1636.9 1829.6,1641.1 1853.0,1645.9 1876.1,1651.4 1899.1,1657.5 1921.8,1664.2 1944.1,1671.4 1966.2,1679.0 1987.9,1687.0  Z" style="stroke-width: 0.5;  stroke: rgb(0,0,0); fill: rgb(179,177,178);" />
<path d="M 1995.516,1665.741 A 522.500,522.500 0.00 0,1 1993.0,1673.1 L 1993.0,1673.1 1970.7,1665.5 1948.0,1658.3 1925.0,1651.5 1901.7,1645.2 1878.1,1639.4 1854.3,1634.1 1830.3,1629.4 1806.1,1625.3 1781.8,1621.8 1757.3,1619.0 1732.8,1616.9 1708.2,1615.4 1683.5,1614.7 1658.8,1614.7 1634.2,1615.5 1609.6,1617.0 1585.0,1619.2 1560.5,1622.2 1536.1,1626.0 1511.9,1630.6 1487.8,1635.8 1463.9,1641.9 1440.2,1648.7 1416.7,1656.2 1393.4,1664.4 1370.4,1673.3 1347.7,1682.9 1325.2,1693.2 1303.1,1704.0 1281.3,1715.5 1259.9,1727.5 1238.8,1740.1 1218.2,1753.2 1197.9,1766.7 1178.0,1780.6 1158.6,1795.0 1139.6,1809.6 1121.0,1824.5 1103.0,1839.7  A 522.500,522.500 0.00 0,1 1097.8,1833.6 L 1097.8,1833.6 1116.2,1818.6 1135.0,1803.9 1154.3,1789.5 1174.0,1775.4 1194.1,1761.6 1214.6,1748.3 1235.6,1735.4 1256.9,1723.0 1278.6,1711.2 1300.6,1699.8 1322.9,1689.1 1345.5,1679.0 1368.5,1669.5 1391.7,1660.7 1415.1,1652.5 1438.8,1645.1 1462.7,1638.3 1486.8,1632.3 1511.1,1627.0 1535.5,1622.4 1560.1,1618.6 1584.7,1615.5 1609.4,1613.2 1634.2,1611.6 1659.0,1610.7 1683.9,1610.5 1708.7,1611.1 1733.5,1612.4 1758.2,1614.3 1782.8,1616.9 1807.3,1620.1 1831.6,1624.0 1855.8,1628.5 1879.8,1633.5 1903.5,1639.0 1927.0,1645.0 1950.1,1651.5 1973.0,1658.4 1995.5,1665.7  Z" style="stroke-width: 0.5;  stroke: rgb(0,0,0); fill: rgb(179,177,178);" />
<path d="M 1949.226,1233.163 A 522.500,522.500 0.00 0,1 1953.1,1239.8 L 1953.1,1239.8 1931.4,1252.1 1909.4,1264.3 1887.0,1276.2 1864.4,1288.0 1841.4,1299.5 1818.2,1310.7 1794.7,1321.7 1771.0,1332.3 1747.0,1342.7 1722.8,1352.7 1698.4,1362.4 1673.7,1371.7 1648.9,1380.6 1623.8,1389.2 1598.6,1397.3 1573.2,1405.1 1547.7,1412.4 1522.1,1419.3 1496.3,1425.8 1470.4,1431.9 1444.4,1437.5 1418.4,1442.7 1392.2,1447.4 1366.1,1451.7 1339.8,1455.6 1313.6,1459.1 1287.4,1462.1 1261.2,1464.7 1235.0,1466.9 1208.8,1468.6 1182.7,1470.0 1156.7,1471.0 1130.8,1471.6 1105.1,1471.8 1079.4,1471.7 1053.9,1471.2 1028.6,1470.4 1003.4,1469.3 978.5,1468.0  A 522.500,522.500 0.00 0,1 979.0,1460.3 L 979.0,1460.3 1003.8,1462.0 1028.9,1463.5 1054.1,1464.6 1079.5,1465.4 1105.1,1465.8 1130.8,1465.9 1156.7,1465.5 1182.6,1464.8 1208.6,1463.7 1234.7,1462.1 1260.8,1460.2 1287.0,1457.8 1313.2,1454.9 1339.3,1451.6 1365.5,1447.8 1391.6,1443.6 1417.7,1438.9 1443.7,1433.8 1469.6,1428.2 1495.4,1422.2 1521.1,1415.7 1546.7,1408.7 1572.1,1401.4 1597.4,1393.6 1622.5,1385.3 1647.4,1376.7 1672.1,1367.6 1696.6,1358.1 1720.9,1348.3 1745.0,1338.1 1768.8,1327.6 1792.4,1316.7 1815.7,1305.5 1838.7,1294.1 1861.4,1282.3 1883.8,1270.4 1906.0,1258.1 1927.8,1245.7 1949.2,1233.2  Z" style="stroke-width: 0.5;  stroke: rgb(0,0,0); fill: rgb(179,177,178);" />
<path d="M 2007.642,1623.718 A 522.500,522.500 0.00 0,1 2005.8,1631.1 L 2005.8,1631.1 1982.4,1625.2 1958.6,1619.7 1934.6,1614.5 1910.2,1609.8 1885.7,1605.5 1861.0,1601.6 1836.0,1598.3 1810.9,1595.4 1785.7,1593.1 1760.3,1591.4 1734.9,1590.2 1709.3,1589.5 1683.8,1589.5 1658.2,1590.1 1632.5,1591.3 1607.0,1593.1 1581.4,1595.6 1555.9,1598.6 1530.5,1602.3 1505.1,1606.6 1479.9,1611.6 1454.9,1617.1 1429.9,1623.3 1405.2,1630.1 1380.6,1637.4 1356.3,1645.4 1332.2,1653.8 1308.3,1662.9 1284.7,1672.5 1261.3,1682.5 1238.3,1693.1 1215.5,1704.1 1193.1,1715.5 1171.0,1727.3 1149.3,1739.5 1127.9,1752.0 1107.0,1764.9 1086.4,1777.9 1066.2,1791.3  A 522.500,522.500 0.00 0,1 1062.1,1785.0 L 1062.1,1785.0 1082.5,1772.0 1103.4,1759.1 1124.6,1746.5 1146.2,1734.2 1168.1,1722.2 1190.4,1710.6 1213.0,1699.4 1236.0,1688.6 1259.2,1678.2 1282.7,1668.3 1306.5,1658.9 1330.5,1650.0 1354.8,1641.6 1379.3,1633.7 1404.0,1626.4 1428.9,1619.7 1454.0,1613.6 1479.2,1608.1 1504.5,1603.1 1529.9,1598.8 1555.5,1595.0 1581.1,1591.9 1606.8,1589.4 1632.5,1587.5 1658.2,1586.2 1683.9,1585.4 1709.6,1585.3 1735.2,1585.7 1760.8,1586.7 1786.3,1588.3 1811.6,1590.4 1836.9,1593.0 1861.9,1596.1 1886.8,1599.6 1911.5,1603.6 1935.9,1608.1 1960.1,1612.9 1984.0,1618.2 2007.6,1623.7  Z" style="stroke-width: 0.5;  stroke: rgb(0,0,0); fill: rgb(179,177,178);" />
</g>
<g id="plot0">
<g id="plot0-axis">
</g>
<line x1='2243.1' y1='1601.5' x2='2243.1' y2='1601.5' style="stroke-width:14.0;stroke:rgb(0,0,0);stroke-linecap:round;fill:none;" />
<line x1='2243.1' y1='1601.5' x2='2282.7' y2='1606.9' style="stroke-width:14.0;stroke:rgb(0,0,0);stroke-linecap:round;fill:none;" />
<line x1='2282.7' y1='1606.9' x2='2282.7' y2='1606.9' style="stroke-width:14.0;stroke:rgb(0,0,0);stroke-linecap:round;fill:none;" />
<text x="2299.2" y="1631.8" font-size="46.8px" font-family="CMUBright-Roman" style="text-anchor:start;fill:rgb(255,38,78);" transform="rotate(7.8,2299.2,1631.8)" >HistomissSECH88<tspan baseline-shift="-40%" font-size="90%">s</tspan>02538</text>
</g>
<defs>
<pattern id="hline-sparse" width="10" height="10" patternTransform="rotate(0 0 0)" patternUnits="userSpaceOnUse"><line x1="0" y1="0" x2="10" y2="0" style="stroke:black;stroke-width:2" /></pattern>
<pattern id="checker" width="10" height="10" patternTransform="rotate(45 0 0)" patternUnits="userSpaceOnUse"><line x1="0" y1="0" x2="10" y2="0" style="stroke:black;stroke-width:5" /><line x1="0" y1="0" x2="0" y2="10" style="stroke:black;stroke-width:4" /></pattern>
<pattern id="vline-sparse" width="10" height="10" patternTransform="rotate(0 0 0)" patternUnits="userSpaceOnUse"><line x1="0" y1="0" x2="0" y2="10" style="stroke:black;stroke-width:2" /></pattern>
<pattern id="hline" width="10" height="10" patternTransform="rotate(0 0 0)" patternUnits="userSpaceOnUse"><line x1="0" y1="0" x2="10" y2="0" style="stroke:black;stroke-width:5" /></pattern>
<pattern id="vline" width="10" height="10" patternTransform="rotate(0 0 0)" patternUnits="userSpaceOnUse"><line x1="0" y1="0" x2="0" y2="10" style="stroke:black;stroke-width:5" /></pattern>
<pattern id="checker" width="10" height="10" patternTransform="rotate(45 0 0)" patternUnits="userSpaceOnUse"><line x1="0" y1="0" x2="10" y2="0" style="stroke:black;stroke-width:2" /><line x1="0" y1="0" x2="0" y2="10" style="stroke:black;stroke-width:2" /></pattern>
</defs>
</svg>
