<?xml version="1.0" encoding="utf-8" standalone="no"?>
<!DOCTYPE svg PUBLIC "-//W3C//DTD SVG 1.1//EN" "http://www.w3.org/Graphics/SVG/1.1/DTD/svg11.dtd">
<svg width="3000px" height="3000px" version="1.1" xmlns="http://www.w3.org/2000/svg" xmlns:xlink="http://www.w3.org/1999/xlink">
<g id="bg">
<rect x="0" y="0" width="3000px" height="3000px" style="fill:rgb(255,255,255);"/>
</g>
<g id="ideograms">
<path d="M1500.000,950.000 A550.000,550.000 40.000 0,1 1621.825,2036.338 L1666.124,2231.370 A750.000,750.000 0.000 0,0 1500.000,750.000 Z" style="stroke-width:2.0;stroke:rgb(0,0,0);stroke-linecap:round;fill:rgb(179,177,178);" />
<text x="2468.9" y="1391.3" font-size="46.8px" font-family="CMUBright-Roman" style="text-anchor:middle;fill:rgb(0,0,0);" transform="rotate(443.6,2468.9,1391.3)" >Histocap316p10<tspan baseline-shift="-40%" font-size="90%">1</tspan></text>
<line x1='1561.6' y1='752.5' x2='1562.6' y2='740.6' style="stroke-width:8.0;stroke:rgb(150,150,150);stroke-linecap:round;fill:none;" />
<line x1='1657.5' y1='766.7' x2='1660.0' y2='755.0' style="stroke-width:8.0;stroke:rgb(150,150,150);stroke-linecap:round;fill:none;" />
<line x1='1750.7' y1='793.1' x2='1754.7' y2='781.8' style="stroke-width:8.0;stroke:rgb(150,150,150);stroke-linecap:round;fill:none;" />
<text x="1771.9" y="775.3" font-size="41.6px" font-family="CMUBright-Roman" style="text-anchor:start;fill:rgb(150,150,150);" transform="rotate(289.5,1771.9,775.3)" >550 kb</text>
<line x1='1839.8' y1='831.4' x2='1845.2' y2='820.7' style="stroke-width:8.0;stroke:rgb(150,150,150);stroke-linecap:round;fill:none;" />
<line x1='1923.2' y1='880.8' x2='1929.9' y2='870.9' style="stroke-width:8.0;stroke:rgb(150,150,150);stroke-linecap:round;fill:none;" />
<line x1='1999.5' y1='940.5' x2='2007.5' y2='931.6' style="stroke-width:8.0;stroke:rgb(150,150,150);stroke-linecap:round;fill:none;" />
<line x1='2067.5' y1='1009.6' x2='2076.6' y2='1001.8' style="stroke-width:8.0;stroke:rgb(150,150,150);stroke-linecap:round;fill:none;" />
<line x1='2126.0' y1='1086.9' x2='2136.0' y2='1080.3' style="stroke-width:8.0;stroke:rgb(150,150,150);stroke-linecap:round;fill:none;" />
<text x="2153.6" y="1085.4" font-size="41.6px" font-family="CMUBright-Roman" style="text-anchor:start;fill:rgb(150,150,150);" transform="rotate(326.6,2153.6,1085.4)" >600 kb</text>
<line x1='2174.0' y1='1171.1' x2='2184.8' y2='1165.8' style="stroke-width:8.0;stroke:rgb(150,150,150);stroke-linecap:round;fill:none;" />
<line x1='2210.8' y1='1260.8' x2='2222.2' y2='1256.9' style="stroke-width:8.0;stroke:rgb(150,150,150);stroke-linecap:round;fill:none;" />
<line x1='2235.7' y1='1354.4' x2='2247.5' y2='1352.1' style="stroke-width:8.0;stroke:rgb(150,150,150);stroke-linecap:round;fill:none;" />
<line x1='2248.4' y1='1450.5' x2='2260.3' y2='1449.7' style="stroke-width:8.0;stroke:rgb(150,150,150);stroke-linecap:round;fill:none;" />
<line x1='2248.5' y1='1547.4' x2='2260.5' y2='1548.2' style="stroke-width:8.0;stroke:rgb(150,150,150);stroke-linecap:round;fill:none;" />
<text x="2271.4" y="1562.9" font-size="41.6px" font-family="CMUBright-Roman" style="text-anchor:start;fill:rgb(150,150,150);" transform="rotate(3.6,2271.4,1562.9)" >650 kb</text>
<line x1='2236.1' y1='1643.6' x2='2247.9' y2='1645.9' style="stroke-width:8.0;stroke:rgb(150,150,150);stroke-linecap:round;fill:none;" />
<line x1='2211.5' y1='1737.3' x2='2222.8' y2='1741.1' style="stroke-width:8.0;stroke:rgb(150,150,150);stroke-linecap:round;fill:none;" />
<line x1='2174.9' y1='1827.1' x2='2185.7' y2='1832.3' style="stroke-width:8.0;stroke:rgb(150,150,150);stroke-linecap:round;fill:none;" />
<line x1='2127.1' y1='1911.4' x2='2137.1' y2='1918.0' style="stroke-width:8.0;stroke:rgb(150,150,150);stroke-linecap:round;fill:none;" />
<line x1='2068.8' y1='1988.8' x2='2077.9' y2='1996.7' style="stroke-width:8.0;stroke:rgb(150,150,150);stroke-linecap:round;fill:none;" />
<text x="2077.8" y="2015.0" font-size="41.6px" font-family="CMUBright-Roman" style="text-anchor:start;fill:rgb(150,150,150);" transform="rotate(40.7,2077.8,2015.0)" >700 kb</text>
<line x1='2001.0' y1='2058.1' x2='2009.0' y2='2067.0' style="stroke-width:8.0;stroke:rgb(150,150,150);stroke-linecap:round;fill:none;" />
<line x1='1924.8' y1='2118.1' x2='1931.6' y2='2128.0' style="stroke-width:8.0;stroke:rgb(150,150,150);stroke-linecap:round;fill:none;" />
<line x1='1841.6' y1='2167.7' x2='1847.1' y2='2178.4' style="stroke-width:8.0;stroke:rgb(150,150,150);stroke-linecap:round;fill:none;" />
<line x1='1752.6' y1='2206.2' x2='1756.7' y2='2217.5' style="stroke-width:8.0;stroke:rgb(150,150,150);stroke-linecap:round;fill:none;" />
<g id="highlighttrack_0">
<path d="M2028.952,1349.304 A550.000,550.000 40.000 0,1 2049.193,1529.790 L2248.899,1540.623 A750.000,750.000 0.000 0,0 2221.299,1294.506 Z" style="stroke-width:14.0;stroke:rgb(0,0,0);stroke-linecap:round;fill:rgb(255,38,78);" />
</g>
<path d="M1500.000,950.000 A550.000,550.000 40.000 0,1 1621.825,2036.338 L1666.124,2231.370 A750.000,750.000 0.000 0,0 1500.000,750.000 Z" style="stroke-width:2.0;stroke:rgb(0,0,0);stroke-linecap:round;fill:none;" />
<path d="M1409.865,2042.564 A550.000,550.000 40.000 0,1 1291.926,990.878 L1216.263,805.743 A750.000,750.000 0.000 0,0 1377.088,2239.860 Z" style="stroke-width:2.0;stroke:rgb(0,0,0);stroke-linecap:round;fill:rgb(179,177,178);" />
<text x="486.4" y="1613.7" font-size="46.8px" font-family="CMUBright-Roman" style="text-anchor:middle;fill:rgb(0,0,0);" transform="rotate(83.6,486.4,1613.7)" >HistoohiSECH82<tspan baseline-shift="-40%" font-size="90%">1</tspan></text>
<line x1='1201.7' y1='811.9' x2='1196.9' y2='800.9' style="stroke-width:8.0;stroke:rgb(150,150,150);stroke-linecap:round;fill:none;" />
<text x="1179.4" y="795.5" font-size="41.6px" font-family="CMUBright-Roman" style="text-anchor:end;fill:rgb(150,150,150);" transform="rotate(66.6,1179.4,795.5)" >500 kb</text>
<line x1='1115.5' y1='856.1' x2='1109.3' y2='845.8' style="stroke-width:8.0;stroke:rgb(150,150,150);stroke-linecap:round;fill:none;" />
<line x1='1035.6' y1='911.1' x2='1028.2' y2='901.6' style="stroke-width:8.0;stroke:rgb(150,150,150);stroke-linecap:round;fill:none;" />
<line x1='963.5' y1='975.9' x2='955.0' y2='967.5' style="stroke-width:8.0;stroke:rgb(150,150,150);stroke-linecap:round;fill:none;" />
<line x1='900.4' y1='1049.4' x2='890.8' y2='1042.2' style="stroke-width:8.0;stroke:rgb(150,150,150);stroke-linecap:round;fill:none;" />
<line x1='847.3' y1='1130.5' x2='836.9' y2='1124.6' style="stroke-width:8.0;stroke:rgb(150,150,150);stroke-linecap:round;fill:none;" />
<text x="819.7" y="1130.9" font-size="41.6px" font-family="CMUBright-Roman" style="text-anchor:end;fill:rgb(150,150,150);" transform="rotate(29.5,819.7,1130.9)" >550 kb</text>
<line x1='805.1' y1='1217.8' x2='794.0' y2='1213.2' style="stroke-width:8.0;stroke:rgb(150,150,150);stroke-linecap:round;fill:none;" />
<line x1='774.5' y1='1309.7' x2='762.9' y2='1306.7' style="stroke-width:8.0;stroke:rgb(150,150,150);stroke-linecap:round;fill:none;" />
<line x1='756.1' y1='1404.9' x2='744.2' y2='1403.4' style="stroke-width:8.0;stroke:rgb(150,150,150);stroke-linecap:round;fill:none;" />
<line x1='750.0' y1='1501.6' x2='738.0' y2='1501.6' style="stroke-width:8.0;stroke:rgb(150,150,150);stroke-linecap:round;fill:none;" />
<line x1='756.5' y1='1598.3' x2='744.6' y2='1599.9' style="stroke-width:8.0;stroke:rgb(150,150,150);stroke-linecap:round;fill:none;" />
<text x="734.6" y="1615.3" font-size="41.6px" font-family="CMUBright-Roman" style="text-anchor:end;fill:rgb(150,150,150);" transform="rotate(-7.5,734.6,1615.3)" >600 kb</text>
<line x1='775.4' y1='1693.4' x2='763.8' y2='1696.5' style="stroke-width:8.0;stroke:rgb(150,150,150);stroke-linecap:round;fill:none;" />
<line x1='806.4' y1='1785.2' x2='795.3' y2='1789.8' style="stroke-width:8.0;stroke:rgb(150,150,150);stroke-linecap:round;fill:none;" />
<line x1='848.9' y1='1872.3' x2='838.5' y2='1878.3' style="stroke-width:8.0;stroke:rgb(150,150,150);stroke-linecap:round;fill:none;" />
<line x1='902.4' y1='1953.2' x2='892.8' y2='1960.4' style="stroke-width:8.0;stroke:rgb(150,150,150);stroke-linecap:round;fill:none;" />
<line x1='965.8' y1='2026.5' x2='957.3' y2='2034.9' style="stroke-width:8.0;stroke:rgb(150,150,150);stroke-linecap:round;fill:none;" />
<text x="958.6" y="2053.2" font-size="41.6px" font-family="CMUBright-Roman" style="text-anchor:end;fill:rgb(150,150,150);" transform="rotate(-44.6,958.6,2053.2)" >650 kb</text>
<line x1='1038.2' y1='2090.9' x2='1030.8' y2='2100.4' style="stroke-width:8.0;stroke:rgb(150,150,150);stroke-linecap:round;fill:none;" />
<line x1='1118.2' y1='2145.6' x2='1112.1' y2='2155.9' style="stroke-width:8.0;stroke:rgb(150,150,150);stroke-linecap:round;fill:none;" />
<line x1='1204.7' y1='2189.4' x2='1200.0' y2='2200.4' style="stroke-width:8.0;stroke:rgb(150,150,150);stroke-linecap:round;fill:none;" />
<line x1='1296.1' y1='2221.7' x2='1292.8' y2='2233.3' style="stroke-width:8.0;stroke:rgb(150,150,150);stroke-linecap:round;fill:none;" />
<path d="M1409.865,2042.564 A550.000,550.000 40.000 0,1 1291.926,990.878 L1216.263,805.743 A750.000,750.000 0.000 0,0 1377.088,2239.860 Z" style="stroke-width:2.0;stroke:rgb(0,0,0);stroke-linecap:round;fill:none;" />
</g>
<g id="track_0">
<path d="M 1985.630,1692.795 A 522.500,522.500 0.00 0,1 1952.7,1760.9 L 1952.7,1760.9 1932.3,1749.4 1911.6,1738.3 1890.4,1727.5 1868.8,1717.2 1846.9,1707.4 1824.6,1698.1 1802.1,1689.3 1779.3,1681.1 1756.2,1673.6 1732.9,1666.7 1709.4,1660.5 1685.7,1655.1 1661.9,1650.4 1637.9,1646.4 1613.9,1643.2 1589.7,1640.9 1565.5,1639.3 1541.3,1638.5 1517.1,1638.6 1492.9,1639.4 1468.7,1641.1 1444.6,1643.6 1420.6,1646.9 1396.7,1651.0 1372.9,1655.9 1349.3,1661.6 1325.9,1668.0 1302.6,1675.1 1279.6,1683.0 1256.9,1691.5 1234.4,1700.6 1212.2,1710.4 1190.4,1720.8 1168.9,1731.7 1147.7,1743.1 1126.9,1754.9 1106.5,1767.1 1086.6,1779.7 1067.1,1792.6  A 522.500,522.500 0.00 0,1 1029.0,1726.2 L 1029.0,1726.2 1050.9,1715.9 1073.2,1705.9 1095.9,1696.1 1118.8,1686.8 1142.1,1677.7 1165.7,1669.1 1189.6,1660.9 1213.7,1653.2 1238.1,1646.0 1262.6,1639.2 1287.4,1633.0 1312.4,1627.3 1337.5,1622.2 1362.8,1617.7 1388.2,1613.7 1413.7,1610.4 1439.3,1607.6 1465.0,1605.5 1490.7,1604.0 1516.5,1603.1 1542.3,1602.8 1568.0,1603.1 1593.8,1604.1 1619.5,1605.7 1645.1,1607.8 1670.6,1610.6 1696.0,1613.9 1721.3,1617.8 1746.5,1622.3 1771.5,1627.3 1796.3,1632.8 1820.9,1638.9 1845.3,1645.4 1869.4,1652.3 1893.3,1659.7 1916.8,1667.4 1940.1,1675.6 1963.0,1684.0 1985.6,1692.8  Z" style="stroke-width: 0.5;  stroke: rgb(0,0,0); fill: rgb(179,177,178);" />
<path d="M 2008.325,1620.879 A 522.500,522.500 0.00 0,1 1986.5,1690.6 L 1986.5,1690.6 1963.8,1681.9 1940.8,1673.6 1917.5,1665.5 1893.9,1657.9 1870.0,1650.6 1845.8,1643.7 1821.4,1637.3 1796.8,1631.3 1771.9,1625.9 1746.9,1621.0 1721.7,1616.6 1696.3,1612.7 1670.9,1609.4 1645.3,1606.7 1619.6,1604.6 1593.9,1603.1 1568.2,1602.1 1542.4,1601.8 1516.6,1602.1 1490.8,1603.1 1465.0,1604.6 1439.3,1606.7 1413.7,1609.5 1388.1,1612.8 1362.7,1616.8 1337.4,1621.3 1312.2,1626.4 1287.2,1632.1 1262.4,1638.2 1237.8,1645.0 1213.4,1652.2 1189.2,1659.9 1165.3,1668.0 1141.7,1676.6 1118.4,1685.5 1095.3,1694.9 1072.6,1704.6 1050.3,1714.6 1028.3,1724.8  A 522.500,522.500 0.00 0,1 1001.6,1656.9 L 1001.6,1656.9 1025.6,1649.5 1049.8,1642.3 1074.3,1635.3 1099.1,1628.6 1124.0,1622.1 1149.2,1616.0 1174.5,1610.1 1200.1,1604.6 1225.8,1599.4 1251.6,1594.6 1277.6,1590.1 1303.7,1585.9 1330.0,1582.2 1356.3,1578.8 1382.7,1575.8 1409.2,1573.2 1435.8,1571.1 1462.4,1569.3 1489.1,1567.9 1515.7,1567.0 1542.4,1566.4 1569.1,1566.3 1595.8,1566.6 1622.4,1567.3 1648.9,1568.3 1675.5,1569.8 1701.9,1571.7 1728.3,1574.0 1754.5,1576.6 1780.6,1579.6 1806.6,1582.9 1832.5,1586.6 1858.2,1590.6 1883.7,1595.0 1909.1,1599.6 1934.2,1604.6 1959.2,1609.8 1983.9,1615.2 2008.3,1620.9  Z" style="stroke-width: 0.5;  stroke: rgb(0,0,0); fill: rgb(179,177,178);" />
<path d="M 1897.677,1838.909 A 522.500,522.500 0.00 0,1 1847.2,1890.4 L 1847.2,1890.4 1832.6,1874.4 1817.5,1858.6 1802.0,1843.3 1786.1,1828.4 1769.8,1814.2 1753.1,1800.5 1736.1,1787.6 1718.8,1775.4 1701.3,1764.2 1683.5,1753.8 1665.5,1744.4 1647.3,1736.0 1629.0,1728.6 1610.6,1722.4 1592.0,1717.2 1573.4,1713.2 1554.7,1710.4 1536.0,1708.7 1517.3,1708.2 1498.7,1708.9 1480.1,1710.8 1461.5,1713.9 1443.1,1718.2 1424.9,1723.6 1406.8,1730.2 1388.8,1737.8 1371.1,1746.5 1353.6,1756.3 1336.4,1767.1 1319.5,1778.8 1302.9,1791.4 1286.5,1804.8 1270.6,1819.0 1255.0,1833.9 1239.9,1849.4 1225.1,1865.4 1210.8,1881.9 1197.0,1898.7 1183.6,1915.8  A 522.500,522.500 0.00 0,1 1129.6,1868.5 L 1129.6,1868.5 1145.6,1852.9 1162.1,1837.6 1179.2,1822.7 1196.6,1808.2 1214.5,1794.2 1232.8,1780.8 1251.5,1768.1 1270.5,1756.0 1289.9,1744.7 1309.5,1734.2 1329.5,1724.5 1349.7,1715.7 1370.1,1707.9 1390.8,1700.9 1411.6,1695.0 1432.6,1690.0 1453.8,1686.1 1475.0,1683.2 1496.3,1681.3 1517.6,1680.5 1539.0,1680.7 1560.4,1682.0 1581.8,1684.3 1603.1,1687.6 1624.3,1691.9 1645.5,1697.3 1666.4,1703.5 1687.3,1710.7 1707.9,1718.9 1728.3,1727.8 1748.5,1737.6 1768.4,1748.2 1788.0,1759.5 1807.3,1771.4 1826.2,1784.0 1844.7,1797.1 1862.8,1810.6 1880.5,1824.6 1897.7,1838.9  Z" style="stroke-width: 0.5;  stroke: rgb(0,0,0); fill: rgb(179,177,178);" />
<path d="M 1976.974,1286.689 A 522.500,522.500 0.00 0,1 2000.3,1349.4 L 2000.3,1349.4 1975.3,1356.9 1950.1,1364.3 1924.8,1371.7 1899.4,1378.9 1873.9,1386.0 1848.2,1393.1 1822.5,1400.0 1796.8,1406.8 1770.9,1413.5 1744.9,1420.1 1718.9,1426.5 1692.8,1432.8 1666.6,1439.0 1640.4,1445.1 1614.1,1451.0 1587.8,1456.7 1561.4,1462.3 1535.0,1467.8 1508.5,1473.1 1482.0,1478.3 1455.5,1483.3 1428.9,1488.1 1402.4,1492.8 1375.8,1497.4 1349.2,1501.8 1322.7,1506.0 1296.1,1510.1 1269.5,1514.1 1243.0,1517.9 1216.5,1521.5 1190.0,1525.0 1163.5,1528.4 1137.1,1531.6 1110.7,1534.7 1084.4,1537.6 1058.1,1540.5 1031.9,1543.2 1005.8,1545.8 979.7,1548.2  A 522.500,522.500 0.00 0,1 977.8,1481.2 L 977.8,1481.2 1003.2,1482.0 1028.7,1482.6 1054.4,1482.9 1080.2,1482.9 1106.2,1482.7 1132.3,1482.2 1158.5,1481.4 1184.7,1480.3 1211.1,1478.9 1237.5,1477.2 1264.0,1475.1 1290.5,1472.7 1317.0,1470.0 1343.5,1466.9 1370.0,1463.5 1396.6,1459.8 1423.1,1455.7 1449.5,1451.3 1475.9,1446.5 1502.3,1441.4 1528.5,1435.9 1554.7,1430.1 1580.8,1423.9 1606.8,1417.5 1632.7,1410.7 1658.4,1403.5 1684.0,1396.1 1709.5,1388.4 1734.8,1380.4 1759.9,1372.1 1784.8,1363.5 1809.6,1354.6 1834.2,1345.6 1858.5,1336.2 1882.7,1326.7 1906.6,1317.0 1930.3,1307.0 1953.8,1296.9 1977.0,1286.7  Z" style="stroke-width: 0.5;  stroke: rgb(0,0,0); fill: rgb(179,177,178);" />
<path d="M 1878.493,1139.792 A 522.500,522.500 0.00 0,1 1917.5,1185.9 L 1917.5,1185.9 1898.3,1200.0 1878.7,1214.0 1858.7,1227.6 1838.2,1241.0 1817.3,1254.0 1796.1,1266.5 1774.4,1278.7 1752.4,1290.4 1730.1,1301.6 1707.5,1312.2 1684.6,1322.3 1661.3,1331.8 1637.8,1340.7 1614.1,1349.0 1590.1,1356.6 1565.9,1363.6 1541.6,1369.9 1517.0,1375.5 1492.3,1380.5 1467.5,1384.7 1442.6,1388.3 1417.6,1391.1 1392.5,1393.3 1367.4,1394.7 1342.2,1395.5 1317.1,1395.5 1292.0,1395.0 1266.9,1393.7 1241.9,1391.8 1217.0,1389.3 1192.3,1386.1 1167.6,1382.4 1143.2,1378.2 1119.0,1373.3 1095.0,1368.0 1071.2,1362.3 1047.8,1356.0 1024.6,1349.4 1001.8,1342.4  A 522.500,522.500 0.00 0,1 1023.3,1286.1 L 1023.3,1286.1 1044.6,1295.3 1066.2,1304.2 1088.2,1312.7 1110.5,1320.6 1133.1,1328.0 1156.0,1334.9 1179.1,1341.1 1202.4,1346.7 1225.9,1351.5 1249.5,1355.7 1273.2,1359.1 1297.0,1361.8 1320.9,1363.6 1344.8,1364.7 1368.6,1364.9 1392.5,1364.3 1416.2,1362.8 1439.9,1360.5 1463.5,1357.3 1487.0,1353.3 1510.3,1348.5 1533.4,1342.8 1556.3,1336.2 1579.0,1328.9 1601.4,1320.8 1623.6,1311.8 1645.5,1302.2 1667.0,1291.8 1688.3,1280.7 1709.2,1268.9 1729.7,1256.5 1749.8,1243.5 1769.5,1229.9 1788.9,1215.9 1807.7,1201.4 1826.1,1186.4 1844.1,1171.2 1861.5,1155.6 1878.5,1139.8  Z" style="stroke-width: 0.5;  stroke: rgb(0,0,0); fill: rgb(179,177,178);" />
<path d="M 2018.849,1561.660 A 522.500,522.500 0.00 0,1 2008.7,1619.4 L 2008.7,1619.4 1984.2,1613.8 1959.4,1608.4 1934.4,1603.2 1909.2,1598.4 1883.9,1593.8 1858.3,1589.5 1832.6,1585.5 1806.7,1581.8 1780.6,1578.4 1754.5,1575.5 1728.2,1572.8 1701.8,1570.6 1675.4,1568.7 1648.8,1567.2 1622.2,1566.0 1595.6,1565.3 1568.9,1565.0 1542.2,1565.1 1515.5,1565.5 1488.8,1566.4 1462.1,1567.7 1435.5,1569.3 1408.9,1571.4 1382.3,1573.9 1355.9,1576.7 1329.5,1580.0 1303.2,1583.6 1277.0,1587.6 1251.0,1591.9 1225.1,1596.6 1199.3,1601.7 1173.7,1607.0 1148.3,1612.7 1123.1,1618.6 1098.1,1624.9 1073.2,1631.4 1048.7,1638.2 1024.3,1645.2 1000.2,1652.4  A 522.500,522.500 0.00 0,1 986.1,1594.6 L 986.1,1594.6 1011.6,1590.0 1037.2,1585.5 1062.9,1581.2 1088.8,1577.0 1114.8,1573.0 1140.9,1569.2 1167.1,1565.5 1193.4,1562.1 1219.9,1558.8 1246.4,1555.7 1273.0,1552.9 1299.6,1550.2 1326.4,1547.8 1353.2,1545.5 1380.0,1543.5 1406.9,1541.8 1433.8,1540.2 1460.7,1538.9 1487.7,1537.8 1514.7,1536.9 1541.7,1536.3 1568.6,1535.9 1595.6,1535.8 1622.5,1535.8 1649.4,1536.1 1676.3,1536.6 1703.2,1537.3 1729.9,1538.3 1756.7,1539.5 1783.3,1540.8 1809.9,1542.4 1836.4,1544.2 1862.8,1546.2 1889.1,1548.3 1915.3,1550.7 1941.4,1553.2 1967.3,1555.9 1993.2,1558.7 2018.8,1561.7  Z" style="stroke-width: 0.5;  stroke: rgb(0,0,0); fill: rgb(179,177,178);" />
<path d="M 1917.531,1185.876 A 522.500,522.500 0.00 0,1 1950.0,1234.5 L 1950.0,1234.5 1928.8,1246.8 1907.2,1258.9 1885.3,1270.8 1863.0,1282.4 1840.4,1293.7 1817.5,1304.6 1794.3,1315.3 1770.8,1325.5 1747.0,1335.3 1722.9,1344.8 1698.7,1353.7 1674.1,1362.3 1649.4,1370.3 1624.5,1377.9 1599.4,1385.0 1574.1,1391.5 1548.7,1397.6 1523.1,1403.1 1497.4,1408.1 1471.7,1412.5 1445.8,1416.4 1419.9,1419.8 1393.9,1422.6 1367.9,1424.8 1341.8,1426.6 1315.8,1427.8 1289.8,1428.5 1263.9,1428.6 1238.0,1428.3 1212.2,1427.4 1186.5,1426.1 1160.9,1424.3 1135.5,1422.1 1110.2,1419.4 1085.1,1416.3 1060.2,1412.9 1035.6,1409.0 1011.2,1404.8 987.1,1400.3  A 522.500,522.500 0.00 0,1 1001.5,1343.4 L 1001.5,1343.4 1024.3,1350.4 1047.5,1356.9 1071.0,1363.1 1094.7,1368.9 1118.8,1374.1 1143.0,1378.9 1167.4,1383.1 1192.1,1386.8 1216.8,1389.9 1241.7,1392.4 1266.7,1394.2 1291.8,1395.5 1316.9,1396.0 1342.1,1395.9 1367.3,1395.1 1392.4,1393.6 1417.5,1391.5 1442.5,1388.6 1467.4,1385.0 1492.3,1380.7 1517.0,1375.8 1541.5,1370.1 1565.9,1363.8 1590.1,1356.8 1614.0,1349.1 1637.8,1340.8 1661.3,1331.9 1684.5,1322.4 1707.5,1312.3 1730.1,1301.6 1752.4,1290.4 1774.4,1278.7 1796.0,1266.6 1817.3,1254.0 1838.2,1241.0 1858.6,1227.7 1878.7,1214.0 1898.3,1200.0 1917.5,1185.9  Z" style="stroke-width: 0.5;  stroke: rgb(0,0,0); fill: rgb(179,177,178);" />
<path d="M 1813.952,1082.340 A 522.500,522.500 0.00 0,1 1851.6,1113.5 L 1851.6,1113.5 1836.1,1130.2 1820.1,1146.6 1803.5,1162.8 1786.5,1178.6 1769.0,1193.9 1751.0,1208.8 1732.6,1223.1 1713.7,1236.8 1694.5,1249.9 1674.8,1262.3 1654.8,1273.9 1634.4,1284.8 1613.7,1294.9 1592.7,1304.1 1571.4,1312.5 1549.8,1320.0 1528.0,1326.6 1506.0,1332.3 1483.7,1337.0 1461.3,1340.8 1438.8,1343.7 1416.1,1345.7 1393.3,1346.7 1370.5,1346.7 1347.6,1345.9 1324.7,1344.1 1301.9,1341.5 1279.0,1338.0 1256.3,1333.6 1233.6,1328.4 1211.1,1322.5 1188.8,1315.8 1166.7,1308.4 1144.8,1300.3 1123.2,1291.6 1101.9,1282.4 1080.9,1272.7 1060.4,1262.5 1040.2,1251.9  A 522.500,522.500 0.00 0,1 1065.3,1210.0 L 1065.3,1210.0 1084.0,1222.2 1103.1,1234.0 1122.7,1245.3 1142.5,1256.1 1162.7,1266.2 1183.2,1275.8 1203.8,1284.6 1224.7,1292.7 1245.8,1299.9 1267.0,1306.4 1288.3,1311.9 1309.7,1316.5 1331.1,1320.1 1352.5,1322.7 1373.9,1324.4 1395.3,1325.0 1416.5,1324.6 1437.7,1323.1 1458.7,1320.6 1479.5,1317.1 1500.2,1312.5 1520.6,1306.8 1540.8,1300.2 1560.7,1292.5 1580.4,1283.9 1599.7,1274.3 1618.7,1263.7 1637.3,1252.3 1655.6,1240.1 1673.5,1227.0 1691.0,1213.2 1708.0,1198.6 1724.6,1183.4 1740.7,1167.6 1756.4,1151.3 1771.6,1134.6 1786.2,1117.4 1800.3,1100.0 1814.0,1082.3  Z" style="stroke-width: 0.5;  stroke: rgb(0,0,0); fill: rgb(179,177,178);" />
<path d="M 1846.338,1891.224 A 522.500,522.500 0.00 0,1 1812.8,1918.5 L 1812.8,1918.5 1799.9,1901.6 1786.4,1884.9 1772.6,1868.6 1758.4,1852.8 1743.8,1837.6 1728.9,1823.1 1713.7,1809.3 1698.2,1796.3 1682.4,1784.2 1666.5,1773.1 1650.3,1763.0 1634.0,1753.9 1617.5,1746.0 1600.9,1739.2 1584.3,1733.6 1567.5,1729.2 1550.7,1726.1 1534.0,1724.2 1517.2,1723.6 1500.5,1724.3 1483.8,1726.2 1467.2,1729.4 1450.7,1733.8 1434.4,1739.5 1418.2,1746.4 1402.2,1754.5 1386.4,1763.7 1370.8,1774.0 1355.5,1785.3 1340.5,1797.7 1325.7,1811.0 1311.3,1825.1 1297.2,1840.1 1283.5,1855.8 1270.2,1872.1 1257.2,1888.9 1244.7,1906.2 1232.7,1923.9 1221.1,1941.8  A 522.500,522.500 0.00 0,1 1185.5,1917.3 L 1185.5,1917.3 1198.8,1900.1 1212.5,1883.2 1226.7,1866.7 1241.4,1850.6 1256.5,1835.0 1272.0,1820.1 1287.8,1805.9 1304.0,1792.4 1320.6,1779.8 1337.4,1768.0 1354.6,1757.2 1372.0,1747.4 1389.6,1738.6 1407.4,1730.9 1425.5,1724.3 1443.7,1718.9 1462.0,1714.6 1480.4,1711.5 1499.0,1709.6 1517.5,1708.8 1536.2,1709.3 1554.8,1711.0 1573.4,1713.8 1591.9,1717.8 1610.4,1722.9 1628.8,1729.2 1647.1,1736.6 1665.2,1745.0 1683.1,1754.4 1700.9,1764.8 1718.4,1776.1 1735.6,1788.2 1752.5,1801.2 1769.1,1814.8 1785.4,1829.1 1801.3,1844.0 1816.7,1859.4 1831.8,1875.2 1846.3,1891.2  Z" style="stroke-width: 0.5;  stroke: rgb(0,0,0); fill: rgb(179,177,178);" />
<path d="M 1641.316,996.973 A 522.500,522.500 0.00 0,1 1681.5,1010.0 L 1681.5,1010.0 1673.9,1029.8 1665.9,1049.3 1657.4,1068.6 1648.4,1087.5 1639.0,1105.9 1629.1,1123.8 1618.8,1140.9 1608.0,1157.3 1596.7,1172.9 1585.1,1187.5 1573.0,1201.2 1560.5,1213.8 1547.6,1225.4 1534.4,1235.8 1520.8,1245.0 1506.8,1253.1 1492.5,1259.8 1477.9,1265.4 1463.1,1269.6 1447.9,1272.5 1432.6,1274.2 1417.0,1274.5 1401.2,1273.6 1385.3,1271.4 1369.2,1267.9 1353.0,1263.2 1336.7,1257.3 1320.4,1250.3 1304.1,1242.1 1287.8,1232.9 1271.6,1222.7 1255.4,1211.5 1239.4,1199.5 1223.5,1186.7 1207.9,1173.1 1192.5,1159.0 1177.4,1144.3 1162.6,1129.1 1148.2,1113.7  A 522.500,522.500 0.00 0,1 1180.7,1086.4 L 1180.7,1086.4 1193.6,1102.8 1206.8,1118.9 1220.4,1134.5 1234.2,1149.7 1248.2,1164.2 1262.4,1178.0 1276.7,1191.0 1291.1,1203.1 1305.6,1214.2 1320.1,1224.3 1334.6,1233.3 1349.1,1241.2 1363.4,1247.8 1377.7,1253.2 1391.9,1257.4 1405.9,1260.2 1419.7,1261.7 1433.3,1261.9 1446.7,1260.7 1459.8,1258.1 1472.7,1254.2 1485.3,1249.0 1497.5,1242.4 1509.4,1234.6 1521.0,1225.4 1532.2,1215.0 1543.1,1203.5 1553.6,1190.8 1563.6,1177.0 1573.3,1162.2 1582.6,1146.4 1591.4,1129.8 1599.8,1112.4 1607.8,1094.3 1615.4,1075.6 1622.5,1056.4 1629.2,1036.8 1635.5,1017.0 1641.3,997.0  Z" style="stroke-width: 0.5;  stroke: rgb(0,0,0); fill: rgb(179,177,178);" />
<path d="M 1681.153,1009.908 A 522.500,522.500 0.00 0,1 1712.1,1022.5 L 1712.1,1022.5 1703.2,1041.9 1693.8,1061.2 1683.9,1080.2 1673.5,1098.8 1662.7,1116.9 1651.3,1134.4 1639.5,1151.3 1627.2,1167.5 1614.4,1182.8 1601.3,1197.3 1587.7,1210.8 1573.7,1223.4 1559.3,1234.9 1544.5,1245.3 1529.4,1254.6 1513.9,1262.7 1498.1,1269.6 1482.0,1275.3 1465.6,1279.8 1449.0,1283.1 1432.1,1285.1 1415.1,1285.8 1397.8,1285.4 1380.4,1283.7 1362.9,1280.8 1345.3,1276.7 1327.7,1271.4 1310.0,1265.1 1292.3,1257.6 1274.6,1249.2 1257.0,1239.8 1239.6,1229.4 1222.3,1218.2 1205.1,1206.2 1188.2,1193.5 1171.6,1180.2 1155.3,1166.4 1139.4,1152.1 1123.8,1137.4  A 522.500,522.500 0.00 0,1 1147.7,1114.1 L 1147.7,1114.1 1162.1,1129.6 1176.9,1144.7 1192.0,1159.4 1207.5,1173.5 1223.1,1187.0 1239.0,1199.8 1255.0,1211.8 1271.2,1223.0 1287.5,1233.2 1303.8,1242.4 1320.1,1250.5 1336.4,1257.6 1352.7,1263.4 1368.9,1268.1 1385.0,1271.5 1401.0,1273.7 1416.7,1274.7 1432.3,1274.3 1447.7,1272.6 1462.9,1269.7 1477.7,1265.4 1492.3,1259.9 1506.6,1253.1 1520.6,1245.1 1534.2,1235.8 1547.4,1225.4 1560.3,1213.8 1572.8,1201.2 1584.8,1187.5 1596.5,1172.8 1607.7,1157.2 1618.5,1140.8 1628.8,1123.7 1638.7,1105.8 1648.1,1087.4 1657.1,1068.5 1665.6,1049.2 1673.6,1029.6 1681.2,1009.9  Z" style="stroke-width: 0.5;  stroke: rgb(0,0,0); fill: rgb(179,177,178);" />
<path d="M 1526.234,978.159 A 522.500,522.500 0.00 0,1 1557.6,980.7 L 1557.6,980.7 1555.2,1001.0 1552.5,1021.1 1549.4,1041.0 1546.1,1060.5 1542.3,1079.4 1538.3,1097.8 1533.8,1115.4 1529.0,1132.2 1523.9,1148.0 1518.4,1162.9 1512.5,1176.6 1506.2,1189.2 1499.6,1200.6 1492.7,1210.8 1485.4,1219.6 1477.7,1227.0 1469.7,1233.1 1461.4,1237.8 1452.8,1241.0 1443.9,1242.8 1434.7,1243.1 1425.2,1242.0 1415.5,1239.5 1405.6,1235.5 1395.5,1230.2 1385.2,1223.5 1374.7,1215.6 1364.1,1206.3 1353.3,1195.9 1342.5,1184.3 1331.7,1171.6 1320.8,1158.0 1309.9,1143.4 1299.1,1128.1 1288.4,1112.0 1277.8,1095.3 1267.3,1078.1 1257.0,1060.6 1247.0,1042.8  A 522.500,522.500 0.00 0,1 1274.6,1028.6 L 1274.6,1028.6 1283.5,1046.9 1292.5,1064.9 1301.7,1082.6 1311.1,1099.8 1320.5,1116.4 1329.9,1132.3 1339.4,1147.4 1348.8,1161.5 1358.2,1174.7 1367.5,1186.8 1376.7,1197.8 1385.8,1207.5 1394.7,1216.0 1403.4,1223.1 1412.0,1228.9 1420.3,1233.2 1428.3,1236.2 1436.1,1237.6 1443.6,1237.7 1450.9,1236.2 1457.8,1233.3 1464.4,1228.9 1470.7,1223.1 1476.7,1215.9 1482.3,1207.3 1487.6,1197.3 1492.6,1186.1 1497.2,1173.6 1501.5,1160.0 1505.4,1145.2 1509.0,1129.4 1512.2,1112.7 1515.1,1095.1 1517.7,1076.8 1520.0,1057.9 1522.0,1038.4 1523.7,1018.6 1525.1,998.4 1526.2,978.2  Z" style="stroke-width: 0.5;  stroke: rgb(0,0,0); fill: rgb(179,177,178);" />
<path d="M 1733.115,1967.615 A 522.500,522.500 0.00 0,1 1706.1,1980.1 L 1706.1,1980.1 1697.9,1961.4 1689.4,1942.9 1680.7,1924.7 1671.7,1907.0 1662.6,1889.9 1653.2,1873.5 1643.7,1857.9 1634.1,1843.2 1624.4,1829.5 1614.6,1816.9 1604.7,1805.3 1594.8,1795.0 1584.9,1786.0 1575.0,1778.2 1565.1,1771.9 1555.2,1766.9 1545.5,1763.3 1535.7,1761.1 1526.1,1760.5 1516.6,1761.2 1507.3,1763.5 1498.0,1767.2 1489.0,1772.3 1480.0,1778.8 1471.3,1786.7 1462.8,1796.0 1454.5,1806.5 1446.4,1818.3 1438.6,1831.3 1430.9,1845.4 1423.6,1860.5 1416.5,1876.6 1409.7,1893.5 1403.1,1911.2 1396.9,1929.6 1390.9,1948.5 1385.2,1967.8 1379.9,1987.5 1374.8,2007.3  A 522.500,522.500 0.00 0,1 1346.2,1999.3 L 1346.2,1999.3 1352.4,1979.7 1359.0,1960.3 1365.9,1941.1 1373.2,1922.4 1380.8,1904.3 1388.7,1886.8 1397.0,1870.0 1405.5,1854.1 1414.3,1839.2 1423.4,1825.2 1432.7,1812.4 1442.3,1800.7 1452.2,1790.2 1462.2,1781.0 1472.5,1773.1 1483.0,1766.6 1493.6,1761.4 1504.4,1757.7 1515.4,1755.3 1526.4,1754.4 1537.6,1754.9 1548.9,1756.9 1560.2,1760.2 1571.6,1765.0 1583.0,1771.1 1594.5,1778.5 1605.9,1787.3 1617.3,1797.2 1628.6,1808.4 1639.8,1820.7 1650.9,1834.0 1661.9,1848.3 1672.8,1863.5 1683.5,1879.5 1693.9,1896.1 1704.1,1913.4 1714.1,1931.2 1723.8,1949.3 1733.1,1967.6  Z" style="stroke-width: 0.5;  stroke: rgb(0,0,0); fill: rgb(179,177,178);" />
<path d="M 1762.960,1951.507 A 522.500,522.500 0.00 0,1 1737.2,1965.6 L 1737.2,1965.6 1727.7,1947.3 1717.8,1929.2 1707.7,1911.5 1697.3,1894.3 1686.6,1877.7 1675.7,1861.8 1664.7,1846.7 1653.5,1832.5 1642.1,1819.2 1630.7,1807.0 1619.1,1795.9 1607.5,1786.0 1595.9,1777.3 1584.2,1769.9 1572.6,1763.8 1560.9,1759.1 1549.3,1755.8 1537.8,1753.9 1526.4,1753.4 1515.1,1754.3 1503.9,1756.7 1492.9,1760.4 1482.0,1765.6 1471.3,1772.1 1460.8,1780.0 1450.4,1789.2 1440.4,1799.6 1430.5,1811.3 1420.9,1824.1 1411.6,1838.0 1402.6,1853.0 1393.8,1868.8 1385.4,1885.6 1377.2,1903.0 1369.4,1921.1 1361.9,1939.8 1354.8,1958.9 1348.0,1978.3 1341.6,1997.9  A 522.500,522.500 0.00 0,1 1313.3,1988.0 L 1313.3,1988.0 1320.9,1968.7 1328.9,1949.5 1337.3,1930.7 1346.1,1912.3 1355.2,1894.4 1364.7,1877.2 1374.6,1860.8 1384.7,1845.1 1395.2,1830.4 1406.0,1816.7 1417.0,1804.1 1428.3,1792.6 1439.9,1782.2 1451.7,1773.1 1463.7,1765.3 1475.9,1758.8 1488.3,1753.6 1500.9,1749.8 1513.6,1747.4 1526.4,1746.3 1539.4,1746.7 1552.4,1748.4 1565.5,1751.5 1578.6,1756.0 1591.7,1761.8 1604.8,1768.8 1617.9,1777.2 1630.9,1786.7 1643.9,1797.4 1656.7,1809.2 1669.4,1822.0 1682.0,1835.8 1694.3,1850.5 1706.5,1865.9 1718.4,1882.1 1730.0,1898.8 1741.3,1916.1 1752.3,1933.7 1763.0,1951.5  Z" style="stroke-width: 0.5;  stroke: rgb(0,0,0); fill: rgb(179,177,178);" />
<path d="M 2021.733,1528.301 A 522.500,522.500 0.00 0,1 2019.4,1556.7 L 2019.4,1556.7 1993.6,1553.9 1967.7,1551.3 1941.7,1548.9 1915.5,1546.6 1889.3,1544.4 1862.9,1542.4 1836.4,1540.6 1809.9,1539.0 1783.3,1537.5 1756.6,1536.2 1729.9,1535.2 1703.1,1534.3 1676.2,1533.6 1649.3,1533.1 1622.4,1532.9 1595.4,1532.8 1568.5,1533.0 1541.5,1533.4 1514.5,1533.9 1487.5,1534.7 1460.5,1535.7 1433.6,1536.9 1406.6,1538.4 1379.7,1540.0 1352.9,1541.8 1326.1,1543.9 1299.3,1546.1 1272.6,1548.6 1246.0,1551.2 1219.4,1554.0 1192.9,1557.1 1166.5,1560.2 1140.2,1563.6 1114.0,1567.1 1087.9,1570.8 1062.0,1574.7 1036.1,1578.7 1010.4,1582.8 984.8,1587.0  A 522.500,522.500 0.00 0,1 980.8,1558.9 L 980.8,1558.9 1006.9,1556.0 1033.1,1553.1 1059.4,1550.4 1085.8,1547.7 1112.2,1545.1 1138.7,1542.7 1165.2,1540.3 1191.8,1538.1 1218.5,1535.9 1245.2,1533.9 1272.0,1532.0 1298.8,1530.2 1325.6,1528.5 1352.5,1527.0 1379.4,1525.5 1406.3,1524.2 1433.2,1523.0 1460.2,1522.0 1487.1,1521.1 1514.1,1520.3 1541.1,1519.6 1568.0,1519.1 1595.0,1518.7 1621.9,1518.4 1648.9,1518.2 1675.8,1518.2 1702.7,1518.3 1729.5,1518.5 1756.3,1518.9 1783.1,1519.3 1809.9,1519.9 1836.6,1520.6 1863.2,1521.4 1889.8,1522.3 1916.3,1523.3 1942.8,1524.4 1969.2,1525.6 1995.5,1526.9 2021.7,1528.3  Z" style="stroke-width: 0.5;  stroke: rgb(0,0,0); fill: rgb(179,177,178);" />
<path d="M 1712.146,1022.506 A 522.500,522.500 0.00 0,1 1736.9,1034.3 L 1736.9,1034.3 1726.9,1053.4 1716.4,1072.4 1705.3,1091.0 1693.8,1109.3 1681.7,1127.1 1669.2,1144.4 1656.2,1161.0 1642.7,1176.9 1628.7,1192.1 1614.4,1206.3 1599.6,1219.7 1584.3,1232.1 1568.7,1243.6 1552.8,1253.9 1536.4,1263.2 1519.8,1271.4 1502.8,1278.4 1485.5,1284.2 1467.9,1288.9 1450.1,1292.4 1432.1,1294.7 1413.9,1295.8 1395.5,1295.7 1377.0,1294.4 1358.4,1291.9 1339.7,1288.4 1320.9,1283.7 1302.2,1277.9 1283.4,1271.1 1264.7,1263.3 1246.1,1254.5 1227.6,1244.9 1209.3,1234.4 1191.2,1223.1 1173.3,1211.2 1155.7,1198.6 1138.4,1185.5 1121.5,1171.9 1105.0,1157.9  A 522.500,522.500 0.00 0,1 1123.1,1138.2 L 1123.1,1138.2 1138.6,1152.8 1154.6,1167.1 1171.0,1180.9 1187.6,1194.2 1204.6,1206.8 1221.7,1218.8 1239.1,1230.0 1256.6,1240.3 1274.2,1249.7 1291.8,1258.1 1309.6,1265.5 1327.3,1271.8 1345.0,1277.0 1362.6,1281.1 1380.2,1284.0 1397.6,1285.7 1414.8,1286.1 1431.9,1285.3 1448.8,1283.3 1465.5,1280.0 1481.8,1275.5 1498.0,1269.8 1513.8,1262.8 1529.3,1254.7 1544.4,1245.4 1559.2,1235.0 1573.6,1223.5 1587.6,1210.9 1601.2,1197.4 1614.4,1182.9 1627.2,1167.5 1639.5,1151.3 1651.3,1134.4 1662.6,1116.9 1673.5,1098.8 1683.9,1080.2 1693.8,1061.2 1703.2,1041.9 1712.1,1022.5  Z" style="stroke-width: 0.5;  stroke: rgb(0,0,0); fill: rgb(179,177,178);" />
<path d="M 1786.203,1937.143 A 522.500,522.500 0.00 0,1 1763.0,1951.5 L 1763.0,1951.5 1752.3,1933.6 1741.3,1916.0 1730.0,1898.8 1718.4,1882.1 1706.5,1865.9 1694.3,1850.5 1681.9,1835.8 1669.4,1822.0 1656.7,1809.2 1643.8,1797.4 1630.9,1786.7 1617.8,1777.1 1604.7,1768.8 1591.6,1761.7 1578.4,1755.9 1565.3,1751.4 1552.2,1748.3 1539.2,1746.6 1526.2,1746.2 1513.3,1747.3 1500.6,1749.7 1488.0,1753.5 1475.6,1758.6 1463.3,1765.1 1451.3,1772.9 1439.4,1782.0 1427.8,1792.3 1416.5,1803.9 1405.4,1816.5 1394.6,1830.2 1384.1,1844.9 1373.9,1860.5 1364.0,1876.9 1354.4,1894.1 1345.3,1912.0 1336.4,1930.4 1328.0,1949.2 1319.9,1968.3 1312.3,1987.6  A 522.500,522.500 0.00 0,1 1287.1,1977.1 L 1287.1,1977.1 1295.8,1958.1 1305.0,1939.3 1314.6,1920.7 1324.5,1902.7 1334.9,1885.1 1345.7,1868.2 1356.8,1852.0 1368.2,1836.7 1380.0,1822.2 1392.1,1808.7 1404.5,1796.3 1417.2,1784.9 1430.1,1774.8 1443.3,1765.8 1456.7,1758.0 1470.3,1751.6 1484.1,1746.4 1498.0,1742.6 1512.1,1740.1 1526.3,1739.0 1540.6,1739.2 1555.0,1740.7 1569.4,1743.6 1583.8,1747.9 1598.3,1753.4 1612.7,1760.1 1627.1,1768.1 1641.4,1777.3 1655.7,1787.6 1669.7,1799.0 1683.7,1811.4 1697.4,1824.7 1711.0,1838.9 1724.3,1853.9 1737.3,1869.6 1750.1,1885.8 1762.5,1902.6 1774.5,1919.7 1786.2,1937.1  Z" style="stroke-width: 0.5;  stroke: rgb(0,0,0); fill: rgb(179,177,178);" />
<path d="M 1952.605,1761.065 A 522.500,522.500 0.00 0,1 1938.4,1784.3 L 1938.4,1784.3 1918.9,1771.9 1899.0,1759.9 1878.7,1748.3 1857.9,1737.2 1836.8,1726.5 1815.4,1716.4 1793.6,1706.9 1771.5,1698.0 1749.2,1689.8 1726.7,1682.3 1703.9,1675.6 1681.0,1669.6 1657.9,1664.5 1634.7,1660.1 1611.4,1656.6 1588.0,1654.0 1564.5,1652.2 1541.0,1651.4 1517.5,1651.4 1494.1,1652.3 1470.6,1654.0 1447.3,1656.7 1424.0,1660.3 1400.9,1664.7 1377.9,1669.9 1355.1,1676.0 1332.5,1682.9 1310.0,1690.6 1287.9,1699.1 1266.0,1708.2 1244.3,1718.1 1223.0,1728.6 1202.1,1739.8 1181.4,1751.5 1161.2,1763.7 1141.4,1776.5 1122.0,1789.6 1103.0,1803.1 1084.5,1816.8  A 522.500,522.500 0.00 0,1 1068.6,1794.8 L 1068.6,1794.8 1088.0,1781.8 1107.9,1769.2 1128.2,1756.8 1148.9,1744.9 1170.0,1733.4 1191.4,1722.4 1213.2,1712.0 1235.3,1702.1 1257.8,1692.9 1280.4,1684.3 1303.4,1676.3 1326.6,1669.1 1349.9,1662.6 1373.5,1656.9 1397.2,1651.9 1421.1,1647.8 1445.1,1644.4 1469.1,1641.8 1493.2,1640.1 1517.4,1639.2 1541.6,1639.1 1565.8,1639.8 1590.0,1641.3 1614.1,1643.7 1638.1,1646.8 1662.0,1650.7 1685.8,1655.4 1709.5,1660.8 1733.0,1667.0 1756.2,1673.8 1779.3,1681.4 1802.1,1689.5 1824.6,1698.3 1846.9,1707.6 1868.8,1717.4 1890.3,1727.7 1911.5,1738.5 1932.3,1749.6 1952.6,1761.1  Z" style="stroke-width: 0.5;  stroke: rgb(0,0,0); fill: rgb(179,177,178);" />
<path d="M 1740.052,1035.908 A 522.500,522.500 0.00 0,1 1762.8,1048.4 L 1762.8,1048.4 1751.6,1067.1 1739.9,1085.7 1727.6,1103.9 1714.8,1121.8 1701.6,1139.2 1687.8,1156.1 1673.6,1172.3 1658.8,1187.9 1643.7,1202.7 1628.1,1216.7 1612.1,1229.8 1595.7,1242.0 1578.8,1253.3 1561.7,1263.5 1544.2,1272.7 1526.3,1280.8 1508.2,1287.9 1489.7,1293.8 1471.0,1298.6 1452.1,1302.2 1433.0,1304.7 1413.7,1306.0 1394.2,1306.3 1374.6,1305.3 1355.0,1303.3 1335.2,1300.2 1315.4,1296.0 1295.7,1290.7 1275.9,1284.5 1256.2,1277.3 1236.7,1269.2 1217.2,1260.2 1198.0,1250.4 1178.9,1239.8 1160.1,1228.6 1141.6,1216.7 1123.5,1204.3 1105.7,1191.4 1088.4,1178.2  A 522.500,522.500 0.00 0,1 1105.1,1157.9 L 1105.1,1157.9 1121.6,1171.9 1138.5,1185.4 1155.7,1198.6 1173.4,1211.2 1191.3,1223.1 1209.4,1234.4 1227.7,1244.9 1246.3,1254.6 1264.9,1263.4 1283.6,1271.2 1302.4,1278.1 1321.3,1283.9 1340.1,1288.6 1358.8,1292.2 1377.5,1294.7 1396.1,1296.0 1414.5,1296.1 1432.8,1295.1 1450.9,1292.8 1468.8,1289.4 1486.4,1284.8 1503.8,1279.0 1520.9,1272.0 1537.7,1263.9 1554.1,1254.7 1570.2,1244.4 1585.9,1233.0 1601.2,1220.6 1616.2,1207.3 1630.7,1193.1 1644.7,1178.0 1658.3,1162.2 1671.5,1145.6 1684.2,1128.4 1696.3,1110.7 1708.0,1092.5 1719.2,1073.9 1729.9,1055.0 1740.1,1035.9  Z" style="stroke-width: 0.5;  stroke: rgb(0,0,0); fill: rgb(179,177,178);" />
<path d="M 1860.263,1121.560 A 522.500,522.500 0.00 0,1 1878.3,1139.6 L 1878.3,1139.6 1861.3,1155.4 1843.9,1171.0 1826.0,1186.2 1807.6,1201.2 1788.7,1215.7 1769.4,1229.7 1749.7,1243.3 1729.6,1256.3 1709.1,1268.7 1688.2,1280.4 1667.0,1291.5 1645.5,1301.9 1623.6,1311.6 1601.4,1320.5 1579.0,1328.6 1556.3,1335.9 1533.4,1342.4 1510.3,1348.1 1487.1,1352.9 1463.6,1356.9 1440.1,1360.0 1416.4,1362.3 1392.6,1363.7 1368.8,1364.3 1345.0,1364.1 1321.1,1363.0 1297.3,1361.1 1273.5,1358.4 1249.8,1354.9 1226.2,1350.7 1202.8,1345.8 1179.5,1340.2 1156.4,1333.9 1133.6,1327.0 1111.0,1319.5 1088.7,1311.5 1066.7,1303.0 1045.1,1294.1 1023.9,1284.8  A 522.500,522.500 0.00 0,1 1034.9,1261.9 L 1034.9,1261.9 1055.4,1272.1 1076.3,1281.9 1097.6,1291.3 1119.2,1300.1 1141.2,1308.4 1163.4,1316.2 1185.8,1323.2 1208.4,1329.6 1231.2,1335.2 1254.2,1340.1 1277.2,1344.2 1300.4,1347.5 1323.5,1349.9 1346.7,1351.4 1369.9,1352.1 1393.1,1351.9 1416.2,1350.8 1439.2,1348.7 1462.1,1345.8 1484.8,1341.9 1507.4,1337.1 1529.8,1331.5 1552.0,1324.9 1573.9,1317.4 1595.6,1309.1 1616.9,1300.0 1638.0,1290.1 1658.8,1279.3 1679.2,1267.9 1699.2,1255.7 1718.9,1242.8 1738.2,1229.3 1757.0,1215.2 1775.4,1200.6 1793.3,1185.5 1810.8,1170.0 1827.8,1154.1 1844.3,1138.0 1860.3,1121.6  Z" style="stroke-width: 0.5;  stroke: rgb(0,0,0); fill: rgb(179,177,178);" />
<path d="M 1936.725,1786.841 A 522.500,522.500 0.00 0,1 1922.3,1807.8 L 1922.3,1807.8 1903.7,1794.6 1884.7,1781.7 1865.2,1769.2 1845.4,1757.2 1825.2,1745.7 1804.6,1734.8 1783.7,1724.5 1762.5,1714.9 1741.0,1706.0 1719.3,1697.8 1697.3,1690.5 1675.2,1684.0 1652.9,1678.3 1630.5,1673.5 1608.0,1669.6 1585.4,1666.7 1562.7,1664.7 1540.0,1663.6 1517.3,1663.5 1494.7,1664.3 1472.0,1666.1 1449.5,1668.8 1427.0,1672.5 1404.7,1677.1 1382.5,1682.6 1360.5,1689.0 1338.7,1696.3 1317.1,1704.4 1295.8,1713.3 1274.7,1723.0 1253.9,1733.5 1233.5,1744.6 1213.4,1756.4 1193.6,1768.8 1174.3,1781.7 1155.4,1795.2 1136.9,1809.0 1118.9,1823.2 1101.3,1837.8  A 522.500,522.500 0.00 0,1 1085.4,1818.0 L 1085.4,1818.0 1103.8,1804.2 1122.7,1790.7 1142.1,1777.5 1161.9,1764.8 1182.0,1752.5 1202.6,1740.8 1223.5,1729.6 1244.8,1719.0 1266.4,1709.1 1288.2,1699.9 1310.3,1691.5 1332.7,1683.8 1355.3,1676.9 1378.0,1670.8 1401.0,1665.6 1424.0,1661.2 1447.2,1657.6 1470.5,1655.0 1493.9,1653.2 1517.3,1652.4 1540.7,1652.4 1564.1,1653.4 1587.5,1655.2 1610.9,1657.9 1634.1,1661.4 1657.3,1665.8 1680.3,1671.1 1703.2,1677.1 1725.8,1683.9 1748.3,1691.5 1770.5,1699.8 1792.5,1708.8 1814.2,1718.4 1835.6,1728.6 1856.6,1739.3 1877.2,1750.6 1897.5,1762.3 1917.3,1774.4 1936.7,1786.8  Z" style="stroke-width: 0.5;  stroke: rgb(0,0,0); fill: rgb(179,177,178);" />
<path d="M 1966.995,1265.645 A 522.500,522.500 0.00 0,1 1977.1,1287.0 L 1977.1,1287.0 1953.9,1297.3 1930.5,1307.3 1906.8,1317.2 1882.8,1327.0 1858.7,1336.5 1834.3,1345.8 1809.7,1354.8 1784.9,1363.7 1760.0,1372.2 1734.9,1380.5 1709.5,1388.5 1684.1,1396.2 1658.5,1403.6 1632.7,1410.7 1606.9,1417.5 1580.9,1423.9 1554.8,1430.0 1528.6,1435.8 1502.3,1441.3 1475.9,1446.4 1449.5,1451.1 1423.1,1455.5 1396.6,1459.6 1370.1,1463.3 1343.5,1466.7 1317.0,1469.7 1290.5,1472.4 1264.0,1474.8 1237.5,1476.8 1211.1,1478.5 1184.8,1479.9 1158.5,1481.0 1132.3,1481.7 1106.2,1482.2 1080.3,1482.4 1054.4,1482.3 1028.7,1481.9 1003.2,1481.3 977.9,1480.5  A 522.500,522.500 0.00 0,1 979.3,1456.7 L 979.3,1456.7 1004.3,1458.7 1029.5,1460.3 1054.9,1461.7 1080.5,1462.8 1106.2,1463.6 1132.1,1464.0 1158.1,1464.1 1184.2,1463.8 1210.4,1463.2 1236.6,1462.2 1263.0,1460.8 1289.3,1459.0 1315.7,1456.8 1342.1,1454.2 1368.5,1451.2 1394.9,1447.8 1421.3,1444.0 1447.6,1439.7 1473.9,1435.1 1500.0,1430.0 1526.1,1424.5 1552.1,1418.6 1578.0,1412.4 1603.8,1405.7 1629.4,1398.6 1654.9,1391.2 1680.2,1383.4 1705.3,1375.2 1730.2,1366.7 1755.0,1357.8 1779.5,1348.6 1803.8,1339.2 1827.9,1329.4 1851.8,1319.3 1875.4,1309.0 1898.7,1298.5 1921.7,1287.7 1944.5,1276.8 1967.0,1265.6  Z" style="stroke-width: 0.5;  stroke: rgb(0,0,0); fill: rgb(179,177,178);" />
<path d="M 1587.005,984.795 A 522.500,522.500 0.00 0,1 1609.6,989.1 L 1609.6,989.1 1605.1,1009.3 1600.2,1029.3 1594.9,1049.1 1589.2,1068.5 1583.0,1087.3 1576.5,1105.6 1569.6,1123.2 1562.2,1139.9 1554.5,1155.8 1546.3,1170.7 1537.8,1184.6 1528.8,1197.3 1519.5,1208.9 1509.8,1219.3 1499.7,1228.4 1489.3,1236.2 1478.6,1242.6 1467.5,1247.7 1456.1,1251.5 1444.5,1253.8 1432.6,1254.7 1420.4,1254.3 1408.0,1252.5 1395.4,1249.3 1382.6,1244.8 1369.6,1239.0 1356.6,1231.9 1343.4,1223.6 1330.1,1214.1 1316.9,1203.5 1303.6,1191.9 1290.3,1179.3 1277.2,1165.7 1264.1,1151.4 1251.1,1136.4 1238.4,1120.7 1225.9,1104.5 1213.6,1087.9 1201.6,1071.1  A 522.500,522.500 0.00 0,1 1220.8,1058.4 L 1220.8,1058.4 1231.9,1075.6 1243.3,1092.6 1255.0,1109.3 1266.8,1125.4 1278.8,1140.9 1290.9,1155.7 1303.1,1169.7 1315.4,1182.7 1327.6,1194.8 1339.9,1205.9 1352.0,1215.8 1364.1,1224.5 1376.1,1232.0 1387.9,1238.2 1399.6,1243.0 1411.0,1246.5 1422.3,1248.7 1433.3,1249.4 1444.1,1248.7 1454.6,1246.6 1464.7,1243.1 1474.6,1238.1 1484.2,1231.8 1493.4,1224.2 1502.3,1215.2 1510.8,1204.9 1519.0,1193.4 1526.7,1180.7 1534.1,1166.8 1541.2,1151.9 1547.8,1136.1 1554.0,1119.3 1559.9,1101.7 1565.3,1083.3 1570.4,1064.4 1575.1,1045.0 1579.5,1025.1 1583.4,1005.0 1587.0,984.8  Z" style="stroke-width: 0.5;  stroke: rgb(0,0,0); fill: rgb(179,177,178);" />
<path d="M 1566.761,981.783 A 522.500,522.500 0.00 0,1 1585.8,984.6 L 1585.8,984.6 1582.2,1004.8 1578.3,1024.9 1574.0,1044.8 1569.4,1064.2 1564.4,1083.1 1559.0,1101.5 1553.2,1119.1 1547.0,1135.9 1540.4,1151.7 1533.5,1166.6 1526.2,1180.5 1518.4,1193.2 1510.4,1204.7 1501.9,1215.0 1493.1,1223.9 1483.9,1231.6 1474.4,1237.9 1464.6,1242.8 1454.5,1246.3 1444.1,1248.4 1433.4,1249.1 1422.5,1248.3 1411.3,1246.2 1399.9,1242.6 1388.3,1237.8 1376.5,1231.5 1364.6,1224.0 1352.6,1215.3 1340.5,1205.4 1328.3,1194.3 1316.2,1182.2 1304.0,1169.1 1291.9,1155.1 1279.8,1140.2 1267.9,1124.7 1256.1,1108.6 1244.5,1091.9 1233.1,1074.9 1222.1,1057.6  A 522.500,522.500 0.00 0,1 1238.4,1047.7 L 1238.4,1047.7 1248.8,1065.3 1259.4,1082.7 1270.2,1099.7 1281.3,1116.2 1292.4,1132.1 1303.6,1147.3 1314.9,1161.7 1326.3,1175.1 1337.6,1187.6 1348.8,1199.0 1360.0,1209.3 1371.1,1218.4 1382.1,1226.2 1392.9,1232.7 1403.5,1237.9 1414.0,1241.7 1424.2,1244.1 1434.1,1245.0 1443.8,1244.6 1453.2,1242.7 1462.4,1239.4 1471.2,1234.6 1479.7,1228.5 1487.8,1220.9 1495.6,1212.1 1503.1,1201.9 1510.2,1190.4 1516.9,1177.8 1523.3,1164.0 1529.3,1149.1 1534.9,1133.2 1540.1,1116.5 1545.0,1098.8 1549.5,1080.5 1553.7,1061.5 1557.4,1042.0 1560.9,1022.2 1564.0,1002.0 1566.8,981.8  Z" style="stroke-width: 0.5;  stroke: rgb(0,0,0); fill: rgb(179,177,178);" />
<path d="M 1919.080,1812.055 A 522.500,522.500 0.00 0,1 1908.7,1825.5 L 1908.7,1825.5 1890.9,1811.7 1872.7,1798.2 1854.0,1785.0 1834.9,1772.4 1815.4,1760.3 1795.5,1748.8 1775.3,1738.0 1754.8,1727.8 1734.1,1718.4 1713.1,1709.8 1691.8,1702.0 1670.4,1695.1 1648.8,1689.1 1627.1,1684.0 1605.3,1679.8 1583.4,1676.7 1561.5,1674.5 1539.5,1673.3 1517.5,1673.1 1495.5,1674.0 1473.6,1675.8 1451.8,1678.6 1430.1,1682.4 1408.5,1687.2 1387.0,1693.0 1365.8,1699.7 1344.7,1707.3 1323.9,1715.8 1303.3,1725.2 1283.0,1735.4 1263.0,1746.3 1243.3,1758.0 1224.0,1770.3 1205.1,1783.3 1186.5,1796.8 1168.4,1810.8 1150.8,1825.3 1133.6,1840.1 1116.9,1855.3  A 522.500,522.500 0.00 0,1 1105.5,1842.6 L 1105.5,1842.6 1122.9,1828.0 1140.7,1813.6 1158.9,1799.5 1177.6,1785.9 1196.7,1772.8 1216.3,1760.3 1236.2,1748.3 1256.4,1737.0 1277.0,1726.4 1297.8,1716.6 1319.0,1707.5 1340.4,1699.3 1362.0,1691.9 1383.8,1685.4 1405.8,1679.8 1427.9,1675.1 1450.2,1671.4 1472.6,1668.6 1495.0,1666.8 1517.5,1666.0 1540.0,1666.1 1562.5,1667.2 1585.0,1669.2 1607.5,1672.2 1629.8,1676.2 1652.0,1681.0 1674.2,1686.7 1696.1,1693.3 1717.9,1700.8 1739.4,1709.0 1760.7,1718.0 1781.7,1727.8 1802.5,1738.2 1822.9,1749.3 1842.9,1760.9 1862.6,1773.1 1881.9,1785.7 1900.7,1798.7 1919.1,1812.1  Z" style="stroke-width: 0.5;  stroke: rgb(0,0,0); fill: rgb(179,177,178);" />
<path d="M 1617.370,990.853 A 522.500,522.500 0.00 0,1 1633.4,994.8 L 1633.4,994.8 1627.9,1014.9 1621.9,1034.8 1615.6,1054.4 1608.8,1073.7 1601.6,1092.4 1594.0,1110.6 1585.9,1128.0 1577.5,1144.7 1568.6,1160.5 1559.3,1175.3 1549.6,1189.1 1539.5,1201.8 1529.0,1213.4 1518.2,1223.8 1507.0,1232.9 1495.4,1240.8 1483.6,1247.3 1471.4,1252.5 1458.9,1256.4 1446.1,1258.9 1433.1,1260.0 1419.8,1259.8 1406.4,1258.2 1392.7,1255.3 1378.9,1251.1 1364.9,1245.5 1350.9,1238.8 1336.7,1230.8 1322.5,1221.7 1308.3,1211.5 1294.2,1200.2 1280.0,1188.0 1266.0,1174.8 1252.1,1160.9 1238.3,1146.3 1224.8,1131.0 1211.5,1115.2 1198.5,1099.0 1185.8,1082.5  A 522.500,522.500 0.00 0,1 1199.0,1072.9 L 1199.0,1072.9 1211.1,1089.7 1223.5,1106.2 1236.2,1122.3 1249.1,1138.0 1262.2,1153.0 1275.4,1167.2 1288.8,1180.7 1302.2,1193.3 1315.7,1204.9 1329.2,1215.4 1342.6,1224.8 1356.0,1233.1 1369.3,1240.2 1382.5,1246.0 1395.5,1250.4 1408.4,1253.6 1421.1,1255.4 1433.5,1255.8 1445.7,1254.9 1457.7,1252.5 1469.3,1248.8 1480.7,1243.7 1491.8,1237.2 1502.5,1229.5 1512.9,1220.4 1522.9,1210.0 1532.5,1198.5 1541.8,1185.8 1550.7,1172.0 1559.2,1157.1 1567.3,1141.3 1575.0,1124.6 1582.3,1107.1 1589.1,1088.8 1595.6,1070.0 1601.6,1050.7 1607.3,1031.0 1612.5,1011.0 1617.4,990.9  Z" style="stroke-width: 0.5;  stroke: rgb(0,0,0); fill: rgb(179,177,178);" />
<path d="M 1801.204,1073.055 A 522.500,522.500 0.00 0,1 1813.9,1082.3 L 1813.9,1082.3 1800.3,1100.0 1786.2,1117.4 1771.6,1134.6 1756.4,1151.3 1740.7,1167.6 1724.6,1183.4 1708.0,1198.6 1691.0,1213.1 1673.5,1226.9 1655.6,1240.0 1637.4,1252.2 1618.7,1263.6 1599.8,1274.1 1580.4,1283.7 1560.8,1292.4 1540.9,1300.0 1520.7,1306.6 1500.3,1312.2 1479.7,1316.8 1458.8,1320.4 1437.8,1322.8 1416.7,1324.3 1395.5,1324.7 1374.1,1324.0 1352.8,1322.3 1331.4,1319.7 1310.0,1316.0 1288.6,1311.4 1267.3,1305.8 1246.2,1299.4 1225.1,1292.1 1204.2,1284.0 1183.6,1275.1 1163.1,1265.5 1143.0,1255.3 1123.2,1244.5 1103.7,1233.2 1084.6,1221.3 1065.9,1209.2  A 522.500,522.500 0.00 0,1 1074.8,1196.3 L 1074.8,1196.3 1093.0,1209.0 1111.6,1221.2 1130.6,1233.1 1149.9,1244.3 1169.6,1255.0 1189.5,1265.1 1209.7,1274.4 1230.1,1282.9 1250.6,1290.6 1271.3,1297.4 1292.1,1303.3 1312.9,1308.3 1333.8,1312.2 1354.7,1315.2 1375.5,1317.1 1396.3,1318.0 1417.0,1317.8 1437.6,1316.5 1458.0,1314.2 1478.3,1310.7 1498.4,1306.2 1518.2,1300.6 1537.9,1294.0 1557.2,1286.3 1576.2,1277.6 1595.0,1267.9 1613.4,1257.3 1631.4,1245.7 1649.1,1233.3 1666.4,1220.0 1683.2,1206.0 1699.6,1191.2 1715.6,1175.8 1731.1,1159.7 1746.1,1143.2 1760.7,1126.1 1774.7,1108.7 1788.2,1091.0 1801.2,1073.1  Z" style="stroke-width: 0.5;  stroke: rgb(0,0,0); fill: rgb(179,177,178);" />
<path d="M 1511.041,977.617 A 522.500,522.500 0.00 0,1 1526.6,978.2 L 1526.6,978.2 1525.4,998.4 1524.0,1018.6 1522.3,1038.4 1520.3,1057.9 1518.0,1076.8 1515.4,1095.2 1512.5,1112.7 1509.2,1129.4 1505.7,1145.2 1501.7,1160.0 1497.5,1173.6 1492.8,1186.1 1487.9,1197.3 1482.6,1207.2 1476.9,1215.8 1471.0,1223.1 1464.7,1228.9 1458.1,1233.2 1451.1,1236.1 1443.9,1237.6 1436.4,1237.6 1428.6,1236.1 1420.6,1233.1 1412.3,1228.7 1403.8,1223.0 1395.1,1215.8 1386.2,1207.4 1377.1,1197.6 1367.9,1186.6 1358.6,1174.5 1349.3,1161.3 1339.9,1147.2 1330.4,1132.1 1321.0,1116.2 1311.6,1099.5 1302.3,1082.3 1293.1,1064.6 1284.1,1046.6 1275.2,1028.3  A 522.500,522.500 0.00 0,1 1289.5,1021.8 L 1289.5,1021.8 1297.7,1040.3 1306.2,1058.5 1314.7,1076.5 1323.4,1093.9 1332.1,1110.8 1340.8,1126.9 1349.5,1142.3 1358.2,1156.7 1366.8,1170.2 1375.4,1182.5 1383.8,1193.7 1392.0,1203.7 1400.1,1212.4 1408.0,1219.8 1415.7,1225.8 1423.1,1230.4 1430.3,1233.5 1437.3,1235.2 1443.9,1235.4 1450.3,1234.1 1456.4,1231.4 1462.1,1227.2 1467.6,1221.5 1472.7,1214.4 1477.5,1205.9 1482.0,1196.1 1486.1,1185.0 1489.9,1172.6 1493.4,1159.0 1496.5,1144.3 1499.3,1128.6 1501.8,1111.9 1504.0,1094.4 1505.8,1076.1 1507.4,1057.2 1508.7,1037.8 1509.7,1018.0 1510.5,997.9 1511.0,977.6  Z" style="stroke-width: 0.5;  stroke: rgb(0,0,0); fill: rgb(179,177,178);" />
<path d="M 1959.950,1252.104 A 522.500,522.500 0.00 0,1 1966.6,1264.9 L 1966.6,1264.9 1944.2,1276.1 1921.4,1287.1 1898.4,1297.9 1875.1,1308.4 1851.5,1318.8 1827.7,1328.9 1803.6,1338.7 1779.3,1348.2 1754.8,1357.4 1730.1,1366.3 1705.1,1374.8 1680.0,1383.0 1654.7,1390.9 1629.3,1398.3 1603.6,1405.4 1577.9,1412.1 1552.0,1418.4 1526.0,1424.3 1499.9,1429.8 1473.8,1434.9 1447.5,1439.6 1421.2,1443.8 1394.9,1447.7 1368.5,1451.1 1342.1,1454.1 1315.7,1456.7 1289.3,1458.9 1262.9,1460.7 1236.6,1462.1 1210.3,1463.1 1184.2,1463.8 1158.1,1464.0 1132.1,1464.0 1106.2,1463.5 1080.5,1462.8 1054.9,1461.7 1029.5,1460.3 1004.3,1458.6 979.3,1456.7  A 522.500,522.500 0.00 0,1 980.7,1442.4 L 980.7,1442.4 1005.5,1445.0 1030.5,1447.3 1055.7,1449.3 1081.0,1451.0 1106.6,1452.3 1132.3,1453.3 1158.2,1453.9 1184.1,1454.1 1210.2,1453.9 1236.3,1453.3 1262.6,1452.2 1288.8,1450.8 1315.1,1448.9 1341.4,1446.5 1367.7,1443.7 1393.9,1440.5 1420.2,1436.8 1446.4,1432.6 1472.5,1428.0 1498.5,1423.0 1524.5,1417.5 1550.3,1411.5 1576.0,1405.1 1601.6,1398.3 1627.0,1391.0 1652.3,1383.3 1677.4,1375.3 1702.3,1366.8 1727.0,1357.9 1751.4,1348.7 1775.7,1339.1 1799.7,1329.2 1823.4,1319.0 1846.9,1308.4 1870.1,1297.6 1893.0,1286.6 1915.6,1275.3 1938.0,1263.8 1959.9,1252.1  Z" style="stroke-width: 0.5;  stroke: rgb(0,0,0); fill: rgb(179,177,178);" />
<path d="M 1764.054,1049.132 A 522.500,522.500 0.00 0,1 1775.3,1055.9 L 1775.3,1055.9 1763.5,1074.4 1751.2,1092.7 1738.4,1110.8 1725.0,1128.4 1711.1,1145.6 1696.8,1162.3 1681.9,1178.3 1666.6,1193.7 1650.9,1208.3 1634.7,1222.1 1618.1,1235.1 1601.1,1247.2 1583.8,1258.3 1566.0,1268.5 1547.9,1277.6 1529.5,1285.7 1510.8,1292.7 1491.9,1298.6 1472.7,1303.4 1453.2,1307.1 1433.6,1309.7 1413.7,1311.2 1393.8,1311.5 1373.7,1310.8 1353.5,1308.9 1333.3,1306.0 1313.0,1302.0 1292.8,1297.1 1272.6,1291.1 1252.5,1284.2 1232.5,1276.4 1212.6,1267.7 1192.9,1258.2 1173.4,1248.0 1154.2,1237.1 1135.3,1225.6 1116.7,1213.5 1098.5,1201.0 1080.8,1188.2  A 522.500,522.500 0.00 0,1 1088.8,1177.7 L 1088.8,1177.7 1106.1,1190.9 1123.9,1203.8 1142.0,1216.3 1160.5,1228.1 1179.3,1239.4 1198.3,1250.0 1217.6,1259.8 1237.0,1268.9 1256.6,1277.0 1276.2,1284.2 1296.0,1290.5 1315.8,1295.8 1335.5,1300.0 1355.3,1303.2 1375.0,1305.2 1394.6,1306.2 1414.1,1306.0 1433.4,1304.7 1452.5,1302.2 1471.5,1298.6 1490.2,1293.9 1508.7,1288.0 1526.8,1281.0 1544.7,1272.9 1562.3,1263.8 1579.5,1253.6 1596.3,1242.4 1612.8,1230.2 1628.8,1217.1 1644.5,1203.2 1659.7,1188.4 1674.4,1172.9 1688.7,1156.6 1702.6,1139.8 1715.9,1122.4 1728.7,1104.6 1741.0,1086.3 1752.8,1067.8 1764.1,1049.1  Z" style="stroke-width: 0.5;  stroke: rgb(0,0,0); fill: rgb(179,177,178);" />
<path d="M 1500.000,977.500 A 522.500,522.500 0.00 0,1 1508.4,977.6 L 1508.4,977.6 1508.0,997.8 1507.3,1017.9 1506.4,1037.7 1505.2,1057.2 1503.7,1076.1 1502.0,1094.3 1499.9,1111.9 1497.6,1128.5 1494.9,1144.2 1491.9,1158.9 1488.5,1172.5 1484.9,1184.8 1480.9,1196.0 1476.5,1205.8 1471.9,1214.3 1466.9,1221.3 1461.5,1227.0 1455.9,1231.2 1450.0,1233.9 1443.7,1235.2 1437.2,1234.9 1430.3,1233.2 1423.2,1230.1 1415.9,1225.5 1408.3,1219.5 1400.6,1212.1 1392.6,1203.3 1384.4,1193.3 1376.1,1182.1 1367.7,1169.7 1359.2,1156.2 1350.6,1141.8 1341.9,1126.4 1333.3,1110.2 1324.7,1093.3 1316.1,1075.9 1307.6,1057.9 1299.2,1039.6 1291.0,1021.1  A 522.500,522.500 0.00 0,1 1302.3,1016.3 L 1302.3,1016.3 1310.1,1035.0 1317.9,1053.5 1325.9,1071.6 1334.0,1089.3 1342.1,1106.3 1350.3,1122.7 1358.4,1138.3 1366.4,1152.9 1374.4,1166.6 1382.3,1179.1 1390.0,1190.5 1397.6,1200.7 1405.0,1209.6 1412.2,1217.2 1419.2,1223.4 1426.0,1228.2 1432.5,1231.5 1438.7,1233.3 1444.7,1233.7 1450.4,1232.6 1455.8,1230.0 1460.9,1225.9 1465.7,1220.4 1470.1,1213.4 1474.3,1205.0 1478.1,1195.3 1481.6,1184.2 1484.7,1171.9 1487.6,1158.4 1490.1,1143.8 1492.3,1128.2 1494.2,1111.6 1495.9,1094.1 1497.2,1075.9 1498.2,1057.0 1499.0,1037.6 1499.6,1017.8 1499.9,997.7 1500.0,977.5  Z" style="stroke-width: 0.5;  stroke: rgb(0,0,0); fill: rgb(179,177,178);" />
<path d="M 1688.846,1987.179 A 522.500,522.500 0.00 0,1 1677.7,1991.4 L 1677.7,1991.4 1670.7,1972.3 1663.4,1953.4 1656.0,1934.9 1648.4,1916.9 1640.6,1899.4 1632.7,1882.7 1624.7,1866.7 1616.6,1851.6 1608.5,1837.6 1600.3,1824.6 1592.1,1812.8 1584.0,1802.2 1575.8,1792.9 1567.7,1784.9 1559.6,1778.3 1551.6,1773.1 1543.7,1769.3 1535.9,1767.0 1528.2,1766.2 1520.6,1766.9 1513.2,1769.1 1505.9,1772.8 1498.8,1777.9 1491.9,1784.4 1485.1,1792.4 1478.6,1801.7 1472.2,1812.4 1466.1,1824.3 1460.2,1837.4 1454.5,1851.7 1449.1,1867.0 1443.9,1883.2 1438.9,1900.4 1434.2,1918.3 1429.7,1936.9 1425.5,1956.0 1421.5,1975.6 1417.8,1995.4 1414.4,2015.4  A 522.500,522.500 0.00 0,1 1411.5,2015.0 L 1411.5,2015.0 1415.1,1994.9 1418.9,1975.1 1423.1,1955.5 1427.4,1936.4 1432.1,1917.8 1437.0,1899.8 1442.2,1882.7 1447.6,1866.4 1453.3,1851.0 1459.2,1836.8 1465.4,1823.6 1471.8,1811.6 1478.5,1800.9 1485.3,1791.5 1492.4,1783.5 1499.7,1776.9 1507.1,1771.7 1514.8,1767.9 1522.6,1765.6 1530.5,1764.8 1538.7,1765.5 1546.9,1767.7 1555.2,1771.3 1563.7,1776.4 1572.2,1782.8 1580.8,1790.7 1589.4,1799.9 1598.1,1810.3 1606.7,1822.0 1615.4,1834.8 1624.0,1848.7 1632.6,1863.6 1641.0,1879.4 1649.4,1896.0 1657.7,1913.3 1665.7,1931.2 1673.7,1949.6 1681.4,1968.3 1688.8,1987.2  Z" style="stroke-width: 0.5;  stroke: rgb(0,0,0); fill: rgb(179,177,178);" />
<path d="M 1794.255,1931.764 A 522.500,522.500 0.00 0,1 1785.9,1937.3 L 1785.9,1937.3 1774.2,1919.9 1762.2,1902.8 1749.8,1886.0 1737.1,1869.7 1724.0,1854.1 1710.7,1839.1 1697.2,1824.9 1683.4,1811.5 1669.5,1799.1 1655.4,1787.7 1641.2,1777.4 1626.9,1768.2 1612.5,1760.2 1598.1,1753.4 1583.6,1747.9 1569.2,1743.7 1554.7,1740.7 1540.4,1739.2 1526.1,1738.9 1511.8,1740.1 1497.8,1742.5 1483.8,1746.4 1470.0,1751.5 1456.4,1758.0 1443.0,1765.7 1429.8,1774.6 1416.8,1784.8 1404.2,1796.1 1391.7,1808.6 1379.6,1822.0 1367.8,1836.5 1356.3,1851.8 1345.2,1868.0 1334.4,1884.9 1324.0,1902.4 1314.0,1920.5 1304.4,1939.0 1295.2,1957.8 1286.4,1976.9  A 522.500,522.500 0.00 0,1 1277.3,1972.7 L 1277.3,1972.7 1286.5,1953.8 1296.1,1935.0 1306.1,1916.7 1316.6,1898.7 1327.4,1881.3 1338.6,1864.5 1350.2,1848.5 1362.1,1833.2 1374.4,1818.9 1387.0,1805.5 1399.9,1793.2 1413.0,1781.9 1426.4,1771.8 1440.1,1762.9 1454.0,1755.2 1468.1,1748.7 1482.4,1743.6 1496.8,1739.8 1511.4,1737.3 1526.1,1736.1 1540.9,1736.3 1555.7,1737.8 1570.6,1740.6 1585.6,1744.7 1600.5,1750.2 1615.4,1756.8 1630.2,1764.7 1645.0,1773.8 1659.7,1783.9 1674.2,1795.2 1688.6,1807.4 1702.7,1820.6 1716.7,1834.6 1730.4,1849.4 1743.9,1864.9 1757.0,1881.0 1769.8,1897.6 1782.2,1914.5 1794.3,1931.8  Z" style="stroke-width: 0.5;  stroke: rgb(0,0,0); fill: rgb(179,177,178);" />
<path d="M 2000.231,1349.084 A 522.500,522.500 0.00 0,1 2002.7,1357.6 L 2002.7,1357.6 1977.4,1364.7 1952.0,1371.8 1926.5,1378.8 1901.0,1385.7 1875.3,1392.5 1849.6,1399.2 1823.8,1405.9 1797.9,1412.4 1771.9,1418.9 1745.9,1425.2 1719.8,1431.5 1693.7,1437.6 1667.5,1443.6 1641.2,1449.5 1614.9,1455.3 1588.6,1461.0 1562.2,1466.6 1535.8,1472.0 1509.3,1477.3 1482.8,1482.5 1456.3,1487.5 1429.8,1492.5 1403.3,1497.3 1376.7,1501.9 1350.2,1506.5 1323.6,1510.9 1297.1,1515.2 1270.6,1519.4 1244.1,1523.4 1217.6,1527.4 1191.1,1531.2 1164.6,1534.8 1138.2,1538.4 1111.8,1541.9 1085.5,1545.2 1059.2,1548.5 1033.0,1551.6 1006.8,1554.6 980.7,1557.6  A 522.500,522.500 0.00 0,1 979.8,1548.9 L 979.8,1548.9 1005.8,1546.4 1032.0,1543.8 1058.2,1541.0 1084.4,1538.2 1110.8,1535.2 1137.1,1532.1 1163.6,1528.8 1190.0,1525.4 1216.5,1521.9 1243.0,1518.2 1269.6,1514.4 1296.1,1510.4 1322.7,1506.3 1349.3,1502.0 1375.8,1497.6 1402.4,1493.0 1429.0,1488.3 1455.5,1483.4 1482.0,1478.3 1508.5,1473.2 1535.0,1467.8 1561.4,1462.3 1587.8,1456.7 1614.1,1450.9 1640.4,1445.0 1666.6,1438.9 1692.8,1432.7 1718.8,1426.4 1744.9,1419.9 1770.8,1413.3 1796.7,1406.6 1822.5,1399.8 1848.2,1392.8 1873.8,1385.8 1899.3,1378.6 1924.7,1371.4 1950.0,1364.0 1975.2,1356.6 2000.2,1349.1  Z" style="stroke-width: 0.5;  stroke: rgb(0,0,0); fill: rgb(179,177,178);" />
<path d="M 1955.025,1243.176 A 522.500,522.500 0.00 0,1 1959.3,1250.8 L 1959.3,1250.8 1937.4,1262.5 1915.2,1273.9 1892.8,1285.2 1869.9,1296.2 1846.8,1306.9 1823.4,1317.3 1799.8,1327.4 1775.8,1337.1 1751.7,1346.5 1727.2,1355.5 1702.6,1364.1 1677.7,1372.3 1652.7,1380.0 1627.5,1387.4 1602.1,1394.2 1576.5,1400.6 1550.8,1406.5 1525.0,1412.0 1499.1,1417.0 1473.1,1421.4 1447.0,1425.4 1420.8,1428.9 1394.6,1431.9 1368.4,1434.5 1342.2,1436.5 1316.0,1438.0 1289.8,1439.1 1263.6,1439.7 1237.5,1439.9 1211.5,1439.5 1185.6,1438.8 1159.7,1437.6 1134.1,1436.0 1108.5,1434.0 1083.2,1431.7 1058.0,1429.0 1033.1,1425.9 1008.3,1422.5 983.8,1418.8  A 522.500,522.500 0.00 0,1 985.3,1410.2 L 985.3,1410.2 1009.6,1414.3 1034.2,1418.0 1059.0,1421.5 1084.0,1424.6 1109.2,1427.3 1134.7,1429.6 1160.2,1431.4 1185.9,1432.9 1211.8,1433.9 1237.7,1434.5 1263.7,1434.6 1289.8,1434.2 1315.9,1433.3 1342.0,1431.9 1368.1,1430.0 1394.3,1427.6 1420.4,1424.7 1446.4,1421.2 1472.4,1417.3 1498.3,1412.8 1524.1,1407.8 1549.8,1402.4 1575.4,1396.4 1600.8,1389.9 1626.1,1382.9 1651.2,1375.5 1676.1,1367.6 1700.8,1359.3 1725.3,1350.5 1749.5,1341.3 1773.5,1331.7 1797.3,1321.7 1820.7,1311.4 1843.9,1300.7 1866.8,1289.7 1889.3,1278.5 1911.6,1266.9 1933.5,1255.1 1955.0,1243.2  Z" style="stroke-width: 0.5;  stroke: rgb(0,0,0); fill: rgb(179,177,178);" />
<path d="M 1949.816,1234.159 A 522.500,522.500 0.00 0,1 1954.1,1241.5 L 1954.1,1241.5 1932.6,1253.5 1910.7,1265.3 1888.5,1276.9 1866.0,1288.3 1843.2,1299.3 1820.1,1310.1 1796.7,1320.5 1773.0,1330.5 1749.0,1340.2 1724.8,1349.4 1700.4,1358.3 1675.7,1366.7 1650.8,1374.6 1625.8,1382.1 1600.5,1389.1 1575.1,1395.6 1549.6,1401.6 1523.9,1407.1 1498.1,1412.1 1472.2,1416.6 1446.3,1420.6 1420.2,1424.0 1394.1,1426.9 1368.0,1429.3 1341.9,1431.2 1315.8,1432.6 1289.7,1433.5 1263.6,1433.9 1237.7,1433.8 1211.7,1433.2 1185.9,1432.2 1160.3,1430.7 1134.7,1428.8 1109.3,1426.4 1084.1,1423.7 1059.1,1420.6 1034.3,1417.1 1009.7,1413.3 985.4,1409.2  A 522.500,522.500 0.00 0,1 987.0,1401.0 L 987.0,1401.0 1011.1,1405.5 1035.5,1409.6 1060.1,1413.4 1085.0,1416.9 1110.1,1419.9 1135.4,1422.6 1160.8,1424.8 1186.4,1426.5 1212.1,1427.8 1237.9,1428.6 1263.8,1429.0 1289.7,1428.8 1315.7,1428.1 1341.8,1426.8 1367.8,1425.1 1393.8,1422.8 1419.8,1419.9 1445.7,1416.5 1471.6,1412.6 1497.4,1408.1 1523.0,1403.1 1548.6,1397.6 1574.0,1391.5 1599.3,1385.0 1624.4,1377.9 1649.3,1370.3 1674.0,1362.2 1698.5,1353.6 1722.8,1344.6 1746.9,1335.2 1770.6,1325.3 1794.1,1315.1 1817.3,1304.4 1840.2,1293.4 1862.8,1282.1 1885.1,1270.5 1907.0,1258.6 1928.6,1246.5 1949.8,1234.2  Z" style="stroke-width: 0.5;  stroke: rgb(0,0,0); fill: rgb(179,177,178);" />
</g>
<g id="plot0">
<g id="plot0-axis">
</g>
<line x1='2243.8' y1='1596.3' x2='2243.8' y2='1596.3' style="stroke-width:14.0;stroke:rgb(0,0,0);stroke-linecap:round;fill:none;" />
<line x1='2243.8' y1='1596.3' x2='2283.5' y2='1601.4' style="stroke-width:14.0;stroke:rgb(0,0,0);stroke-linecap:round;fill:none;" />
<line x1='2283.5' y1='1601.4' x2='2283.5' y2='1601.4' style="stroke-width:14.0;stroke:rgb(0,0,0);stroke-linecap:round;fill:none;" />
<text x="2300.2" y="1625.7" font-size="46.8px" font-family="CMUBright-Roman" style="text-anchor:start;fill:rgb(255,38,78);" transform="rotate(7.4,2300.2,1625.7)" >Histocap316p10<tspan baseline-shift="-40%" font-size="90%">s</tspan>01954</text>
</g>
<defs>
<pattern id="checker" width="10" height="10" patternTransform="rotate(45 0 0)" patternUnits="userSpaceOnUse"><line x1="0" y1="0" x2="10" y2="0" style="stroke:black;stroke-width:2" /><line x1="0" y1="0" x2="0" y2="10" style="stroke:black;stroke-width:2" /></pattern>
<pattern id="hline-sparse" width="10" height="10" patternTransform="rotate(0 0 0)" patternUnits="userSpaceOnUse"><line x1="0" y1="0" x2="10" y2="0" style="stroke:black;stroke-width:2" /></pattern>
<pattern id="vline-sparse" width="10" height="10" patternTransform="rotate(0 0 0)" patternUnits="userSpaceOnUse"><line x1="0" y1="0" x2="0" y2="10" style="stroke:black;stroke-width:2" /></pattern>
<pattern id="vline" width="10" height="10" patternTransform="rotate(0 0 0)" patternUnits="userSpaceOnUse"><line x1="0" y1="0" x2="0" y2="10" style="stroke:black;stroke-width:5" /></pattern>
<pattern id="hline" width="10" height="10" patternTransform="rotate(0 0 0)" patternUnits="userSpaceOnUse"><line x1="0" y1="0" x2="10" y2="0" style="stroke:black;stroke-width:5" /></pattern>
<pattern id="checker" width="10" height="10" patternTransform="rotate(45 0 0)" patternUnits="userSpaceOnUse"><line x1="0" y1="0" x2="10" y2="0" style="stroke:black;stroke-width:5" /><line x1="0" y1="0" x2="0" y2="10" style="stroke:black;stroke-width:4" /></pattern>
</defs>
</svg>
