<?xml version="1.0" encoding="utf-8" standalone="no"?>
<!DOCTYPE svg PUBLIC "-//W3C//DTD SVG 1.1//EN" "http://www.w3.org/Graphics/SVG/1.1/DTD/svg11.dtd">
<svg width="3000px" height="3000px" version="1.1" xmlns="http://www.w3.org/2000/svg" xmlns:xlink="http://www.w3.org/1999/xlink">
<g id="bg">
<rect x="0" y="0" width="3000px" height="3000px" style="fill:rgb(255,255,255);"/>
</g>
<g id="ideograms">
<path d="M1500.000,950.000 A550.000,550.000 40.000 0,1 1664.689,2024.764 L1724.576,2215.588 A750.000,750.000 0.000 0,0 1500.000,750.000 Z" style="stroke-width:2.0;stroke:rgb(0,0,0);stroke-linecap:round;fill:rgb(179,177,178);" />
<text x="2463.8" y="1352.3" font-size="46.8px" font-family="CMUBright-Roman" style="text-anchor:middle;fill:rgb(0,0,0);" transform="rotate(441.3,2463.8,1352.3)" >Histocap256P18<tspan baseline-shift="-40%" font-size="90%">6</tspan></text>
<line x1='1510.9' y1='750.1' x2='1511.1' y2='738.1' style="stroke-width:8.0;stroke:rgb(150,150,150);stroke-linecap:round;fill:none;" />
<line x1='1609.6' y1='758.1' x2='1611.4' y2='746.2' style="stroke-width:8.0;stroke:rgb(150,150,150);stroke-linecap:round;fill:none;" />
<line x1='1706.4' y1='779.0' x2='1709.7' y2='767.4' style="stroke-width:8.0;stroke:rgb(150,150,150);stroke-linecap:round;fill:none;" />
<line x1='1799.6' y1='812.5' x2='1804.4' y2='801.5' style="stroke-width:8.0;stroke:rgb(150,150,150);stroke-linecap:round;fill:none;" />
<text x="1822.0" y="796.2" font-size="41.6px" font-family="CMUBright-Roman" style="text-anchor:start;fill:rgb(150,150,150);" transform="rotate(293.5,1822.0,796.2)" >5250 kb</text>
<line x1='1887.6' y1='857.9' x2='1893.8' y2='847.7' style="stroke-width:8.0;stroke:rgb(150,150,150);stroke-linecap:round;fill:none;" />
<line x1='1968.9' y1='914.6' x2='1976.4' y2='905.3' style="stroke-width:8.0;stroke:rgb(150,150,150);stroke-linecap:round;fill:none;" />
<line x1='2041.9' y1='981.5' x2='2050.6' y2='973.2' style="stroke-width:8.0;stroke:rgb(150,150,150);stroke-linecap:round;fill:none;" />
<line x1='2105.5' y1='1057.4' x2='2115.2' y2='1050.4' style="stroke-width:8.0;stroke:rgb(150,150,150);stroke-linecap:round;fill:none;" />
<line x1='2158.6' y1='1141.1' x2='2169.1' y2='1135.4' style="stroke-width:8.0;stroke:rgb(150,150,150);stroke-linecap:round;fill:none;" />
<text x="2186.2" y="1142.0" font-size="41.6px" font-family="CMUBright-Roman" style="text-anchor:start;fill:rgb(150,150,150);" transform="rotate(331.4,2186.2,1142.0)" >5300 kb</text>
<line x1='2200.1' y1='1231.0' x2='2211.3' y2='1226.7' style="stroke-width:8.0;stroke:rgb(150,150,150);stroke-linecap:round;fill:none;" />
<line x1='2229.4' y1='1325.6' x2='2241.1' y2='1322.8' style="stroke-width:8.0;stroke:rgb(150,150,150);stroke-linecap:round;fill:none;" />
<line x1='2246.1' y1='1423.3' x2='2258.0' y2='1422.0' style="stroke-width:8.0;stroke:rgb(150,150,150);stroke-linecap:round;fill:none;" />
<line x1='2249.7' y1='1522.2' x2='2261.7' y2='1522.6' style="stroke-width:8.0;stroke:rgb(150,150,150);stroke-linecap:round;fill:none;" />
<line x1='2240.2' y1='1620.8' x2='2252.0' y2='1622.8' style="stroke-width:8.0;stroke:rgb(150,150,150);stroke-linecap:round;fill:none;" />
<text x="2261.5" y="1638.5" font-size="41.6px" font-family="CMUBright-Roman" style="text-anchor:start;fill:rgb(150,150,150);" transform="rotate(9.3,2261.5,1638.5)" >5350 kb</text>
<line x1='2217.8' y1='1717.3' x2='2229.3' y2='1720.8' style="stroke-width:8.0;stroke:rgb(150,150,150);stroke-linecap:round;fill:none;" />
<line x1='2182.9' y1='1810.0' x2='2193.8' y2='1815.0' style="stroke-width:8.0;stroke:rgb(150,150,150);stroke-linecap:round;fill:none;" />
<line x1='2136.1' y1='1897.3' x2='2146.3' y2='1903.7' style="stroke-width:8.0;stroke:rgb(150,150,150);stroke-linecap:round;fill:none;" />
<line x1='2078.2' y1='1977.7' x2='2087.5' y2='1985.3' style="stroke-width:8.0;stroke:rgb(150,150,150);stroke-linecap:round;fill:none;" />
<line x1='2010.2' y1='2049.7' x2='2018.4' y2='2058.5' style="stroke-width:8.0;stroke:rgb(150,150,150);stroke-linecap:round;fill:none;" />
<text x="2016.2" y="2076.7" font-size="41.6px" font-family="CMUBright-Roman" style="text-anchor:start;fill:rgb(150,150,150);" transform="rotate(47.1,2016.2,2076.7)" >5400 kb</text>
<line x1='1933.3' y1='2112.2' x2='1940.3' y2='2121.9' style="stroke-width:8.0;stroke:rgb(150,150,150);stroke-linecap:round;fill:none;" />
<line x1='1848.9' y1='2163.9' x2='1854.5' y2='2174.5' style="stroke-width:8.0;stroke:rgb(150,150,150);stroke-linecap:round;fill:none;" />
<line x1='1758.3' y1='2204.1' x2='1762.5' y2='2215.4' style="stroke-width:8.0;stroke:rgb(150,150,150);stroke-linecap:round;fill:none;" />
<g id="highlighttrack_0">
<path d="M2033.015,1364.370 A550.000,550.000 40.000 0,1 2020.803,1676.817 L2210.186,1741.114 A750.000,750.000 0.000 0,0 2226.838,1315.051 Z" style="stroke-width:14.0;stroke:rgb(0,0,0);stroke-linecap:round;fill:rgb(255,38,78);" />
</g>
<path d="M1500.000,950.000 A550.000,550.000 40.000 0,1 1664.689,2024.764 L1724.576,2215.588 A750.000,750.000 0.000 0,0 1500.000,750.000 Z" style="stroke-width:2.0;stroke:rgb(0,0,0);stroke-linecap:round;fill:none;" />
<path d="M1449.259,2047.654 A550.000,550.000 40.000 0,1 1287.600,992.667 L1210.364,808.183 A750.000,750.000 0.000 0,0 1430.807,2246.801 Z" style="stroke-width:2.0;stroke:rgb(0,0,0);stroke-linecap:round;fill:rgb(179,177,178);" />
<text x="491.8" y="1654.5" font-size="46.8px" font-family="CMUBright-Roman" style="text-anchor:middle;fill:rgb(0,0,0);" transform="rotate(81.3,491.8,1654.5)" >HistoohiSECH96<tspan baseline-shift="-40%" font-size="90%">6</tspan></text>
<line x1='1131.2' y1='846.9' x2='1125.3' y2='836.5' style="stroke-width:8.0;stroke:rgb(150,150,150);stroke-linecap:round;fill:none;" />
<line x1='1048.4' y1='901.2' x2='1041.2' y2='891.6' style="stroke-width:8.0;stroke:rgb(150,150,150);stroke-linecap:round;fill:none;" />
<line x1='973.4' y1='965.9' x2='965.0' y2='957.4' style="stroke-width:8.0;stroke:rgb(150,150,150);stroke-linecap:round;fill:none;" />
<line x1='907.6' y1='1040.0' x2='898.2' y2='1032.6' style="stroke-width:8.0;stroke:rgb(150,150,150);stroke-linecap:round;fill:none;" />
<text x="880.2" y="1036.4" font-size="41.6px" font-family="CMUBright-Roman" style="text-anchor:end;fill:rgb(150,150,150);" transform="rotate(37.8,880.2,1036.4)" >4150 kb</text>
<line x1='852.2' y1='1122.1' x2='841.8' y2='1116.0' style="stroke-width:8.0;stroke:rgb(150,150,150);stroke-linecap:round;fill:none;" />
<line x1='808.0' y1='1210.7' x2='797.0' y2='1206.1' style="stroke-width:8.0;stroke:rgb(150,150,150);stroke-linecap:round;fill:none;" />
<line x1='775.9' y1='1304.4' x2='764.4' y2='1301.3' style="stroke-width:8.0;stroke:rgb(150,150,150);stroke-linecap:round;fill:none;" />
<line x1='756.5' y1='1401.6' x2='744.6' y2='1400.0' style="stroke-width:8.0;stroke:rgb(150,150,150);stroke-linecap:round;fill:none;" />
<line x1='750.0' y1='1500.4' x2='738.0' y2='1500.4' style="stroke-width:8.0;stroke:rgb(150,150,150);stroke-linecap:round;fill:none;" />
<text x="726.1" y="1514.4" font-size="41.6px" font-family="CMUBright-Roman" style="text-anchor:end;fill:rgb(150,150,150);" transform="rotate(-0.0,726.1,1514.4)" >4200 kb</text>
<line x1='756.6' y1='1599.2' x2='744.7' y2='1600.8' style="stroke-width:8.0;stroke:rgb(150,150,150);stroke-linecap:round;fill:none;" />
<line x1='776.2' y1='1696.3' x2='764.6' y2='1699.5' style="stroke-width:8.0;stroke:rgb(150,150,150);stroke-linecap:round;fill:none;" />
<line x1='808.3' y1='1790.0' x2='797.3' y2='1794.6' style="stroke-width:8.0;stroke:rgb(150,150,150);stroke-linecap:round;fill:none;" />
<line x1='852.6' y1='1878.6' x2='842.2' y2='1884.7' style="stroke-width:8.0;stroke:rgb(150,150,150);stroke-linecap:round;fill:none;" />
<line x1='908.1' y1='1960.6' x2='898.7' y2='1968.0' style="stroke-width:8.0;stroke:rgb(150,150,150);stroke-linecap:round;fill:none;" />
<text x="897.9" y="1986.3" font-size="41.6px" font-family="CMUBright-Roman" style="text-anchor:end;fill:rgb(150,150,150);" transform="rotate(-37.9,897.9,1986.3)" >4250 kb</text>
<line x1='974.0' y1='2034.6' x2='965.6' y2='2043.2' style="stroke-width:8.0;stroke:rgb(150,150,150);stroke-linecap:round;fill:none;" />
<line x1='1049.0' y1='2099.3' x2='1041.8' y2='2108.9' style="stroke-width:8.0;stroke:rgb(150,150,150);stroke-linecap:round;fill:none;" />
<line x1='1131.9' y1='2153.5' x2='1126.0' y2='2163.9' style="stroke-width:8.0;stroke:rgb(150,150,150);stroke-linecap:round;fill:none;" />
<line x1='1221.3' y1='2196.3' x2='1216.8' y2='2207.4' style="stroke-width:8.0;stroke:rgb(150,150,150);stroke-linecap:round;fill:none;" />
<line x1='1315.4' y1='2226.9' x2='1312.5' y2='2238.6' style="stroke-width:8.0;stroke:rgb(150,150,150);stroke-linecap:round;fill:none;" />
<text x="1323.1" y="2253.5" font-size="41.6px" font-family="CMUBright-Roman" style="text-anchor:end;fill:rgb(150,150,150);" transform="rotate(-75.8,1323.1,2253.5)" >4300 kb</text>
<line x1='1412.8' y1='2244.9' x2='1411.5' y2='2256.8' style="stroke-width:8.0;stroke:rgb(150,150,150);stroke-linecap:round;fill:none;" />
<path d="M1449.259,2047.654 A550.000,550.000 40.000 0,1 1287.600,992.667 L1210.364,808.183 A750.000,750.000 0.000 0,0 1430.807,2246.801 Z" style="stroke-width:2.0;stroke:rgb(0,0,0);stroke-linecap:round;fill:none;" />
</g>
<g id="track_0">
<path d="M 1793.790,1067.919 A 522.500,522.500 0.00 0,1 1870.8,1131.9 L 1870.8,1131.9 1854.1,1148.1 1837.0,1164.1 1819.3,1179.8 1801.2,1195.1 1782.6,1210.1 1763.5,1224.7 1744.1,1238.7 1724.2,1252.2 1703.9,1265.2 1683.2,1277.5 1662.2,1289.2 1640.8,1300.2 1619.0,1310.5 1597.0,1320.1 1574.7,1328.9 1552.1,1337.0 1529.2,1344.2 1506.2,1350.6 1482.9,1356.3 1459.4,1361.0 1435.8,1365.0 1412.1,1368.1 1388.2,1370.4 1364.3,1371.9 1340.3,1372.5 1316.3,1372.3 1292.2,1371.3 1268.2,1369.6 1244.3,1367.1 1220.4,1363.8 1196.7,1359.9 1173.1,1355.2 1149.7,1349.9 1126.4,1344.0 1103.5,1337.5 1080.8,1330.4 1058.4,1322.9 1036.3,1314.9 1014.6,1306.6  A 522.500,522.500 0.00 0,1 1060.2,1218.0 L 1060.2,1218.0 1079.0,1229.7 1098.3,1241.1 1117.9,1252.0 1137.9,1262.4 1158.2,1272.1 1178.7,1281.2 1199.4,1289.6 1220.3,1297.2 1241.4,1304.0 1262.6,1309.9 1283.8,1314.9 1305.1,1318.9 1326.3,1322.0 1347.6,1324.1 1368.8,1325.2 1389.9,1325.2 1410.9,1324.2 1431.7,1322.1 1452.3,1319.0 1472.8,1314.8 1493.0,1309.6 1513.0,1303.3 1532.7,1296.0 1552.1,1287.7 1571.1,1278.4 1589.8,1268.1 1608.2,1256.9 1626.2,1244.9 1643.7,1231.9 1660.9,1218.2 1677.6,1203.7 1693.8,1188.5 1709.6,1172.6 1724.9,1156.2 1739.7,1139.3 1754.0,1121.9 1767.8,1104.2 1781.1,1086.1 1793.8,1067.9  Z" style="stroke-width: 0.5;  stroke: rgb(0,0,0); fill: rgb(179,177,178);" />
<path d="M 1974.538,1281.322 A 522.500,522.500 0.00 0,1 2006.2,1370.5 L 2006.2,1370.5 1980.6,1377.1 1954.8,1383.5 1929.1,1390.0 1903.2,1396.4 1877.4,1402.7 1851.4,1409.0 1825.5,1415.2 1799.4,1421.4 1773.3,1427.5 1747.2,1433.6 1721.1,1439.5 1694.9,1445.4 1668.6,1451.3 1642.4,1457.0 1616.1,1462.7 1589.8,1468.3 1563.4,1473.9 1537.1,1479.3 1510.7,1484.7 1484.3,1490.0 1457.8,1495.2 1431.4,1500.3 1405.0,1505.4 1378.5,1510.4 1352.1,1515.3 1325.6,1520.1 1299.2,1524.8 1272.7,1529.5 1246.3,1534.1 1219.9,1538.6 1193.4,1543.0 1167.0,1547.4 1140.7,1551.6 1114.3,1555.9 1088.0,1560.0 1061.7,1564.1 1035.4,1568.1 1009.2,1572.0 983.0,1575.9  A 522.500,522.500 0.00 0,1 977.9,1480.7 L 977.9,1480.7 1003.2,1481.5 1028.7,1482.1 1054.3,1482.4 1080.1,1482.5 1106.1,1482.2 1132.1,1481.7 1158.3,1480.9 1184.5,1479.8 1210.8,1478.3 1237.2,1476.6 1263.7,1474.4 1290.1,1472.0 1316.6,1469.2 1343.1,1466.1 1369.6,1462.6 1396.1,1458.7 1422.6,1454.5 1449.0,1450.0 1475.3,1445.1 1501.6,1439.8 1527.9,1434.2 1554.0,1428.3 1580.0,1421.9 1605.9,1415.3 1631.8,1408.3 1657.4,1401.0 1683.0,1393.4 1708.3,1385.5 1733.5,1377.3 1758.6,1368.8 1783.4,1360.0 1808.1,1350.9 1832.6,1341.6 1856.8,1332.1 1880.8,1322.3 1904.6,1312.3 1928.2,1302.2 1951.5,1291.8 1974.5,1281.3  Z" style="stroke-width: 0.5;  stroke: rgb(0,0,0); fill: rgb(179,177,178);" />
<path d="M 1919.846,1811.023 A 522.500,522.500 0.00 0,1 1872.1,1866.8 L 1872.1,1866.8 1855.8,1851.1 1839.0,1835.7 1821.7,1820.6 1803.9,1805.9 1785.7,1791.7 1767.0,1778.0 1748.0,1764.9 1728.6,1752.5 1708.8,1740.7 1688.7,1729.7 1668.2,1719.5 1647.5,1710.1 1626.5,1701.5 1605.2,1693.8 1583.8,1687.1 1562.1,1681.2 1540.2,1676.3 1518.2,1672.4 1496.1,1669.4 1473.9,1667.4 1451.5,1666.4 1429.2,1666.4 1406.8,1667.4 1384.4,1669.3 1362.1,1672.1 1339.8,1675.9 1317.6,1680.6 1295.6,1686.2 1273.6,1692.7 1251.9,1699.9 1230.3,1708.0 1209.0,1716.8 1188.0,1726.3 1167.2,1736.5 1146.8,1747.3 1126.7,1758.6 1107.0,1770.4 1087.7,1782.6 1068.9,1795.2  A 522.500,522.500 0.00 0,1 1031.6,1731.5 L 1031.6,1731.5 1052.7,1721.4 1074.2,1711.5 1096.1,1702.1 1118.3,1693.1 1140.9,1684.7 1163.7,1676.7 1186.9,1669.3 1210.2,1662.5 1233.8,1656.4 1257.6,1650.9 1281.5,1646.1 1305.5,1642.1 1329.7,1638.7 1354.0,1636.1 1378.3,1634.3 1402.6,1633.3 1427.0,1633.1 1451.4,1633.6 1475.7,1635.0 1499.9,1637.2 1524.1,1640.2 1548.2,1643.9 1572.1,1648.5 1595.9,1653.8 1619.5,1659.9 1642.9,1666.8 1666.1,1674.3 1689.1,1682.6 1711.8,1691.6 1734.2,1701.2 1756.3,1711.4 1778.1,1722.2 1799.5,1733.6 1820.6,1745.5 1841.3,1757.8 1861.6,1770.6 1881.5,1783.8 1900.9,1797.3 1919.8,1811.0  Z" style="stroke-width: 0.5;  stroke: rgb(0,0,0); fill: rgb(179,177,178);" />
<path d="M 1554.475,980.347 A 522.500,522.500 0.00 0,1 1619.0,991.2 L 1619.0,991.2 1614.0,1011.5 1608.6,1031.7 1602.7,1051.6 1596.4,1071.1 1589.6,1090.2 1582.4,1108.7 1574.6,1126.5 1566.5,1143.6 1557.8,1159.9 1548.7,1175.2 1539.1,1189.5 1529.0,1202.8 1518.5,1215.0 1507.6,1226.0 1496.3,1235.8 1484.5,1244.4 1472.3,1251.7 1459.8,1257.7 1446.8,1262.4 1433.6,1265.7 1420.0,1267.8 1406.1,1268.5 1391.9,1267.8 1377.5,1265.9 1362.8,1262.7 1347.9,1258.2 1332.9,1252.5 1317.8,1245.6 1302.5,1237.6 1287.2,1228.4 1271.8,1218.3 1256.5,1207.2 1241.2,1195.2 1226.0,1182.3 1211.0,1168.8 1196.1,1154.6 1181.5,1139.9 1167.1,1124.8 1153.1,1109.3  A 522.500,522.500 0.00 0,1 1205.2,1068.6 L 1205.2,1068.6 1216.9,1085.5 1228.9,1102.0 1241.1,1118.2 1253.4,1133.9 1265.9,1148.9 1278.4,1163.2 1291.0,1176.8 1303.5,1189.4 1316.1,1201.0 1328.5,1211.6 1340.8,1221.0 1353.0,1229.2 1365.0,1236.3 1376.7,1242.0 1388.3,1246.4 1399.5,1249.5 1410.5,1251.1 1421.2,1251.4 1431.6,1250.3 1441.6,1247.8 1451.2,1243.8 1460.5,1238.5 1469.4,1231.8 1477.8,1223.8 1485.9,1214.4 1493.5,1203.8 1500.7,1191.9 1507.5,1178.9 1513.9,1164.7 1519.8,1149.5 1525.3,1133.3 1530.4,1116.3 1535.0,1098.4 1539.2,1079.8 1543.0,1060.7 1546.5,1041.0 1549.5,1021.0 1552.2,1000.7 1554.5,980.3  Z" style="stroke-width: 0.5;  stroke: rgb(0,0,0); fill: rgb(179,177,178);" />
<path d="M 1986.464,1690.681 A 522.500,522.500 0.00 0,1 1959.4,1749.0 L 1959.4,1749.0 1938.0,1737.6 1916.2,1726.4 1894.0,1715.6 1871.5,1705.1 1848.7,1694.9 1825.5,1685.1 1802.1,1675.8 1778.4,1666.8 1754.4,1658.4 1730.1,1650.4 1705.7,1642.9 1681.0,1636.0 1656.1,1629.6 1631.1,1623.8 1605.9,1618.5 1580.6,1613.9 1555.1,1609.8 1529.5,1606.3 1503.9,1603.5 1478.2,1601.2 1452.4,1599.6 1426.7,1598.6 1400.9,1598.2 1375.1,1598.4 1349.4,1599.1 1323.7,1600.5 1298.1,1602.5 1272.6,1605.1 1247.2,1608.2 1222.0,1611.8 1196.9,1616.0 1172.0,1620.6 1147.3,1625.8 1122.8,1631.4 1098.5,1637.4 1074.5,1643.9 1050.8,1650.7 1027.4,1657.9 1004.4,1665.4  A 522.500,522.500 0.00 0,1 987.8,1603.4 L 987.8,1603.4 1012.4,1598.6 1037.2,1594.1 1062.2,1589.8 1087.4,1585.8 1112.8,1582.1 1138.4,1578.8 1164.2,1575.8 1190.1,1573.1 1216.1,1570.8 1242.3,1568.9 1268.5,1567.4 1294.9,1566.3 1321.3,1565.6 1347.8,1565.4 1374.3,1565.5 1400.8,1566.1 1427.4,1567.1 1454.0,1568.5 1480.5,1570.4 1507.0,1572.7 1533.5,1575.5 1559.9,1578.7 1586.2,1582.3 1612.4,1586.3 1638.6,1590.8 1664.6,1595.6 1690.5,1600.9 1716.3,1606.5 1741.9,1612.6 1767.3,1619.0 1792.6,1625.7 1817.6,1632.9 1842.5,1640.3 1867.1,1648.0 1891.5,1656.0 1915.6,1664.4 1939.5,1672.9 1963.1,1681.7 1986.5,1690.7  Z" style="stroke-width: 0.5;  stroke: rgb(0,0,0); fill: rgb(179,177,178);" />
<path d="M 1639.771,996.542 A 522.500,522.500 0.00 0,1 1688.7,1012.8 L 1688.7,1012.8 1680.7,1032.6 1672.2,1052.3 1663.2,1071.8 1653.7,1090.9 1643.7,1109.6 1633.2,1127.7 1622.2,1145.3 1610.6,1162.1 1598.6,1178.1 1586.1,1193.3 1573.1,1207.6 1559.6,1220.9 1545.7,1233.2 1531.3,1244.4 1516.5,1254.6 1501.4,1263.6 1485.8,1271.4 1469.9,1278.1 1453.6,1283.5 1437.0,1287.8 1420.1,1290.8 1402.9,1292.6 1385.5,1293.2 1367.8,1292.5 1350.0,1290.7 1332.0,1287.7 1313.9,1283.6 1295.7,1278.4 1277.4,1272.1 1259.2,1264.8 1240.9,1256.5 1222.7,1247.2 1204.7,1237.2 1186.7,1226.3 1169.0,1214.7 1151.5,1202.5 1134.2,1189.7 1117.3,1176.5 1100.8,1162.9  A 522.500,522.500 0.00 0,1 1136.5,1124.7 L 1136.5,1124.7 1151.3,1139.6 1166.4,1154.2 1181.9,1168.4 1197.5,1182.0 1213.4,1195.0 1229.5,1207.2 1245.6,1218.7 1261.9,1229.2 1278.1,1238.9 1294.4,1247.5 1310.6,1255.0 1326.7,1261.4 1342.7,1266.6 1358.5,1270.7 1374.1,1273.5 1389.6,1275.0 1404.8,1275.2 1419.7,1274.2 1434.3,1271.9 1448.6,1268.2 1462.6,1263.3 1476.2,1257.1 1489.4,1249.6 1502.2,1240.8 1514.6,1230.9 1526.6,1219.8 1538.1,1207.5 1549.2,1194.2 1559.8,1179.9 1570.0,1164.5 1579.7,1148.3 1588.9,1131.3 1597.6,1113.5 1605.8,1095.1 1613.6,1076.1 1620.8,1056.6 1627.6,1036.8 1633.9,1016.7 1639.8,996.5  Z" style="stroke-width: 0.5;  stroke: rgb(0,0,0); fill: rgb(179,177,178);" />
<path d="M 1947.184,1770.245 A 522.500,522.500 0.00 0,1 1920.7,1809.9 L 1920.7,1809.9 1901.6,1796.2 1882.1,1782.7 1862.2,1769.5 1841.8,1756.8 1821.0,1744.4 1799.9,1732.5 1778.4,1721.1 1756.5,1710.2 1734.3,1699.9 1711.8,1690.3 1689.1,1681.2 1666.0,1672.8 1642.7,1665.2 1619.2,1658.2 1595.5,1652.0 1571.7,1646.5 1547.6,1641.8 1523.4,1637.8 1499.2,1634.7 1474.8,1632.3 1450.4,1630.7 1425.9,1629.9 1401.4,1629.9 1376.9,1630.6 1352.4,1632.2 1328.0,1634.5 1303.7,1637.5 1279.5,1641.3 1255.4,1645.7 1231.5,1650.9 1207.7,1656.7 1184.2,1663.1 1160.8,1670.1 1137.8,1677.7 1115.0,1685.9 1092.6,1694.5 1070.5,1703.5 1048.7,1713.0 1027.4,1722.8  A 522.500,522.500 0.00 0,1 1009.1,1679.1 L 1009.1,1679.1 1031.8,1671.0 1054.8,1663.3 1078.1,1656.0 1101.7,1649.0 1125.6,1642.5 1149.7,1636.5 1174.1,1630.9 1198.7,1625.9 1223.5,1621.4 1248.4,1617.5 1273.5,1614.2 1298.7,1611.4 1324.0,1609.3 1349.3,1607.9 1374.8,1607.0 1400.2,1606.8 1425.6,1607.3 1451.1,1608.4 1476.5,1610.2 1501.8,1612.7 1527.1,1615.8 1552.3,1619.6 1577.4,1624.0 1602.3,1629.1 1627.1,1634.8 1651.7,1641.2 1676.1,1648.1 1700.3,1655.7 1724.2,1663.8 1748.0,1672.4 1771.4,1681.6 1794.6,1691.2 1817.4,1701.4 1840.0,1712.0 1862.1,1723.0 1884.0,1734.3 1905.4,1746.0 1926.5,1758.0 1947.2,1770.2  Z" style="stroke-width: 0.5;  stroke: rgb(0,0,0); fill: rgb(179,177,178);" />
<path d="M 1500.000,977.500 A 522.500,522.500 0.00 0,1 1536.3,978.8 L 1536.3,978.8 1534.7,999.1 1532.8,1019.4 1530.6,1039.4 1528.0,1059.0 1525.0,1078.1 1521.6,1096.7 1517.9,1114.5 1513.7,1131.5 1509.1,1147.6 1504.1,1162.7 1498.7,1176.8 1492.9,1189.7 1486.7,1201.4 1480.0,1211.9 1472.9,1221.1 1465.4,1228.9 1457.5,1235.4 1449.3,1240.5 1440.6,1244.2 1431.6,1246.5 1422.2,1247.3 1412.5,1246.7 1402.5,1244.7 1392.2,1241.3 1381.6,1236.6 1370.8,1230.5 1359.8,1223.1 1348.5,1214.4 1337.1,1204.6 1325.6,1193.6 1314.0,1181.6 1302.3,1168.6 1290.6,1154.6 1278.9,1139.9 1267.2,1124.4 1255.6,1108.4 1244.2,1091.8 1233.0,1074.8 1222.0,1057.6  A 522.500,522.500 0.00 0,1 1253.5,1039.3 L 1253.5,1039.3 1263.2,1057.1 1273.0,1074.7 1283.0,1092.0 1293.1,1108.7 1303.3,1124.9 1313.4,1140.3 1323.5,1155.0 1333.6,1168.7 1343.5,1181.5 1353.3,1193.1 1363.0,1203.6 1372.4,1213.0 1381.7,1221.0 1390.7,1227.7 1399.4,1233.1 1407.8,1237.1 1415.9,1239.7 1423.7,1240.8 1431.2,1240.5 1438.3,1238.7 1445.0,1235.5 1451.3,1230.8 1457.3,1224.7 1462.8,1217.2 1468.0,1208.4 1472.7,1198.2 1477.0,1186.7 1481.0,1174.1 1484.5,1160.2 1487.7,1145.3 1490.4,1129.4 1492.8,1112.5 1494.8,1094.9 1496.5,1076.4 1497.8,1057.4 1498.8,1037.9 1499.5,1018.0 1499.9,997.8 1500.0,977.5  Z" style="stroke-width: 0.5;  stroke: rgb(0,0,0); fill: rgb(179,177,178);" />
<path d="M 1959.940,1252.085 A 522.500,522.500 0.00 0,1 1974.4,1281.1 L 1974.4,1281.1 1951.4,1291.6 1928.1,1301.9 1904.6,1312.1 1880.8,1322.1 1856.8,1331.9 1832.5,1341.4 1808.1,1350.7 1783.4,1359.8 1758.6,1368.5 1733.5,1377.0 1708.3,1385.3 1682.9,1393.2 1657.4,1400.8 1631.7,1408.0 1605.9,1415.0 1580.0,1421.6 1554.0,1427.9 1527.8,1433.8 1501.6,1439.4 1475.3,1444.6 1449.0,1449.5 1422.5,1454.0 1396.1,1458.2 1369.6,1462.0 1343.1,1465.4 1316.6,1468.5 1290.1,1471.2 1263.6,1473.6 1237.2,1475.7 1210.8,1477.4 1184.5,1478.8 1158.3,1479.8 1132.1,1480.6 1106.1,1481.0 1080.1,1481.2 1054.3,1481.1 1028.7,1480.7 1003.2,1480.0 977.9,1479.1  A 522.500,522.500 0.00 0,1 980.2,1446.8 L 980.2,1446.8 1005.0,1449.2 1030.1,1451.3 1055.3,1453.1 1080.7,1454.6 1106.3,1455.7 1132.1,1456.5 1157.9,1456.9 1183.9,1456.9 1210.0,1456.5 1236.2,1455.8 1262.4,1454.6 1288.7,1452.9 1315.0,1450.9 1341.3,1448.4 1367.6,1445.4 1393.8,1442.0 1420.1,1438.2 1446.3,1433.9 1472.4,1429.2 1498.4,1424.0 1524.4,1418.4 1550.2,1412.3 1575.9,1405.9 1601.5,1398.9 1626.9,1391.6 1652.2,1383.8 1677.3,1375.7 1702.2,1367.1 1726.8,1358.2 1751.3,1348.9 1775.6,1339.3 1799.6,1329.4 1823.3,1319.1 1846.8,1308.5 1870.0,1297.7 1893.0,1286.6 1915.6,1275.3 1937.9,1263.8 1959.9,1252.1  Z" style="stroke-width: 0.5;  stroke: rgb(0,0,0); fill: rgb(179,177,178);" />
<path d="M 1716.011,1975.758 A 522.500,522.500 0.00 0,1 1690.4,1986.6 L 1690.4,1986.6 1682.6,1967.3 1674.4,1948.1 1665.8,1929.3 1656.8,1910.9 1647.5,1893.1 1637.7,1875.9 1627.7,1859.4 1617.2,1843.7 1606.5,1829.0 1595.4,1815.3 1584.1,1802.6 1572.4,1791.0 1560.5,1780.6 1548.4,1771.4 1536.0,1763.5 1523.4,1756.9 1510.6,1751.6 1497.7,1747.6 1484.6,1745.1 1471.3,1743.9 1457.9,1744.0 1444.5,1745.6 1431.0,1748.5 1417.4,1752.8 1403.8,1758.3 1390.2,1765.2 1376.6,1773.3 1363.1,1782.6 1349.7,1793.1 1336.3,1804.6 1323.1,1817.2 1310.1,1830.7 1297.2,1845.1 1284.5,1860.3 1272.1,1876.2 1260.0,1892.7 1248.2,1909.7 1236.7,1927.0 1225.6,1944.6  A 522.500,522.500 0.00 0,1 1202.3,1929.4 L 1202.3,1929.4 1214.4,1912.3 1227.0,1895.4 1239.9,1878.9 1253.2,1863.0 1266.7,1847.6 1280.5,1832.9 1294.6,1819.0 1308.8,1806.0 1323.3,1793.8 1337.9,1782.7 1352.6,1772.7 1367.4,1763.8 1382.2,1756.1 1397.1,1749.6 1412.0,1744.3 1426.9,1740.3 1441.8,1737.6 1456.6,1736.3 1471.3,1736.3 1485.9,1737.6 1500.4,1740.2 1514.7,1744.2 1528.8,1749.5 1542.8,1756.1 1556.5,1763.9 1570.0,1773.0 1583.3,1783.3 1596.2,1794.7 1608.9,1807.2 1621.2,1820.7 1633.3,1835.2 1645.0,1850.6 1656.3,1866.8 1667.3,1883.7 1677.9,1901.3 1688.0,1919.4 1697.8,1937.9 1707.1,1956.7 1716.0,1975.8  Z" style="stroke-width: 0.5;  stroke: rgb(0,0,0); fill: rgb(179,177,178);" />
<path d="M 1932.828,1207.312 A 522.500,522.500 0.00 0,1 1947.6,1230.5 L 1947.6,1230.5 1926.5,1243.1 1904.9,1255.5 1883.0,1267.6 1860.8,1279.5 1838.2,1291.1 1815.4,1302.4 1792.2,1313.4 1768.8,1324.0 1745.0,1334.2 1721.1,1344.1 1696.8,1353.5 1672.4,1362.5 1647.7,1371.1 1622.8,1379.2 1597.8,1386.8 1572.5,1393.9 1547.2,1400.6 1521.6,1406.7 1496.0,1412.4 1470.2,1417.5 1444.3,1422.1 1418.4,1426.2 1392.4,1429.8 1366.3,1432.9 1340.3,1435.4 1314.2,1437.5 1288.1,1439.0 1262.1,1440.0 1236.1,1440.6 1210.2,1440.7 1184.3,1440.3 1158.6,1439.5 1133.0,1438.2 1107.6,1436.5 1082.3,1434.4 1057.2,1431.9 1032.3,1429.1 1007.7,1425.9 983.3,1422.4  A 522.500,522.500 0.00 0,1 988.1,1395.1 L 988.1,1395.1 1012.0,1399.8 1036.1,1404.2 1060.5,1408.2 1085.2,1411.7 1110.1,1414.9 1135.1,1417.6 1160.3,1419.8 1185.7,1421.6 1211.2,1422.8 1236.7,1423.5 1262.4,1423.7 1288.1,1423.3 1313.8,1422.4 1339.6,1420.8 1365.3,1418.7 1391.0,1416.1 1416.7,1412.8 1442.3,1408.9 1467.8,1404.5 1493.2,1399.4 1518.5,1393.8 1543.6,1387.6 1568.6,1380.8 1593.3,1373.4 1617.9,1365.5 1642.3,1357.1 1666.5,1348.1 1690.4,1338.6 1714.0,1328.6 1737.4,1318.2 1760.4,1307.3 1783.2,1296.0 1805.6,1284.3 1827.7,1272.2 1849.5,1259.8 1870.9,1247.0 1891.9,1234.0 1912.6,1220.8 1932.8,1207.3  Z" style="stroke-width: 0.5;  stroke: rgb(0,0,0); fill: rgb(179,177,178);" />
<path d="M 1773.016,1945.498 A 522.500,522.500 0.00 0,1 1749.4,1959.1 L 1749.4,1959.1 1739.0,1940.5 1728.1,1922.1 1716.8,1904.0 1705.0,1886.3 1692.8,1869.2 1680.1,1852.6 1667.0,1836.8 1653.6,1821.7 1639.7,1807.5 1625.5,1794.2 1611.0,1781.9 1596.2,1770.6 1581.0,1760.4 1565.6,1751.3 1549.9,1743.4 1534.0,1736.7 1517.9,1731.2 1501.5,1726.9 1485.0,1723.9 1468.4,1722.2 1451.6,1721.7 1434.8,1722.5 1417.9,1724.6 1400.9,1727.8 1383.9,1732.4 1367.0,1738.1 1350.0,1744.9 1333.2,1752.9 1316.4,1762.0 1299.8,1772.0 1283.3,1783.1 1267.0,1795.1 1251.0,1807.8 1235.2,1821.4 1219.6,1835.7 1204.4,1850.5 1189.6,1865.9 1175.1,1881.6 1161.1,1897.7  A 522.500,522.500 0.00 0,1 1140.9,1879.5 L 1140.9,1879.5 1155.9,1864.1 1171.3,1848.9 1187.2,1834.2 1203.4,1820.0 1219.9,1806.3 1236.8,1793.4 1253.9,1781.2 1271.2,1769.8 1288.8,1759.3 1306.5,1749.7 1324.4,1741.2 1342.3,1733.7 1360.4,1727.2 1378.5,1721.9 1396.6,1717.8 1414.7,1714.8 1432.8,1713.0 1450.8,1712.4 1468.8,1713.1 1486.6,1714.9 1504.3,1718.0 1521.8,1722.3 1539.1,1727.8 1556.2,1734.4 1573.1,1742.2 1589.7,1751.2 1606.0,1761.2 1622.1,1772.3 1637.8,1784.3 1653.1,1797.3 1668.1,1811.2 1682.8,1825.9 1697.0,1841.4 1710.8,1857.5 1724.2,1874.3 1737.1,1891.6 1749.6,1909.2 1761.5,1927.3 1773.0,1945.5  Z" style="stroke-width: 0.5;  stroke: rgb(0,0,0); fill: rgb(179,177,178);" />
<path d="M 1843.001,1894.153 A 522.500,522.500 0.00 0,1 1822.7,1911.0 L 1822.7,1911.0 1808.8,1893.8 1794.5,1876.8 1779.6,1860.2 1764.3,1844.0 1748.5,1828.4 1732.3,1813.2 1715.6,1798.8 1698.6,1785.0 1681.2,1772.0 1663.4,1759.8 1645.2,1748.5 1626.8,1738.0 1608.0,1728.6 1589.0,1720.1 1569.7,1712.7 1550.2,1706.3 1530.5,1700.9 1510.6,1696.7 1490.6,1693.6 1470.4,1691.5 1450.2,1690.6 1429.9,1690.8 1409.5,1692.0 1389.1,1694.4 1368.7,1697.8 1348.4,1702.3 1328.1,1707.8 1308.0,1714.3 1287.9,1721.8 1268.0,1730.2 1248.3,1739.4 1228.9,1749.5 1209.7,1760.3 1190.7,1771.9 1172.1,1784.1 1153.9,1796.9 1136.0,1810.2 1118.5,1823.9 1101.5,1838.0  A 522.500,522.500 0.00 0,1 1085.0,1817.5 L 1085.0,1817.5 1102.9,1804.1 1121.2,1791.1 1140.0,1778.6 1159.1,1766.5 1178.6,1755.0 1198.4,1744.2 1218.5,1734.0 1238.9,1724.6 1259.5,1715.9 1280.2,1708.1 1301.2,1701.2 1322.3,1695.2 1343.4,1690.2 1364.7,1686.1 1386.0,1683.0 1407.3,1681.0 1428.6,1680.0 1449.8,1680.0 1471.0,1681.1 1492.1,1683.2 1513.1,1686.4 1533.9,1690.6 1554.6,1695.9 1575.1,1702.2 1595.3,1709.4 1615.3,1717.7 1635.0,1726.9 1654.5,1737.0 1673.6,1747.9 1692.4,1759.7 1710.9,1772.3 1728.9,1785.6 1746.6,1799.6 1763.8,1814.2 1780.6,1829.4 1796.9,1845.0 1812.8,1861.1 1828.2,1877.5 1843.0,1894.2  Z" style="stroke-width: 0.5;  stroke: rgb(0,0,0); fill: rgb(179,177,178);" />
<path d="M 1713.017,1022.894 A 522.500,522.500 0.00 0,1 1736.3,1034.0 L 1736.3,1034.0 1726.2,1053.3 1715.6,1072.4 1704.4,1091.3 1692.8,1109.9 1680.6,1128.0 1667.8,1145.5 1654.6,1162.5 1640.9,1178.8 1626.6,1194.4 1611.9,1209.1 1596.8,1223.1 1581.2,1236.1 1565.1,1248.1 1548.7,1259.2 1531.8,1269.2 1514.6,1278.2 1497.0,1286.1 1479.1,1292.8 1460.8,1298.5 1442.3,1303.0 1423.5,1306.4 1404.4,1308.6 1385.2,1309.7 1365.8,1309.6 1346.2,1308.4 1326.5,1306.2 1306.7,1302.8 1286.8,1298.4 1267.0,1293.0 1247.1,1286.7 1227.4,1279.4 1207.7,1271.2 1188.1,1262.2 1168.8,1252.4 1149.6,1242.0 1130.7,1230.9 1112.1,1219.2 1093.9,1207.1 1076.1,1194.6  A 522.500,522.500 0.00 0,1 1091.6,1174.0 L 1091.6,1174.0 1108.7,1187.3 1126.1,1200.2 1143.8,1212.6 1161.9,1224.4 1180.2,1235.6 1198.7,1246.1 1217.4,1255.9 1236.2,1264.7 1255.1,1272.7 1274.0,1279.7 1293.0,1285.8 1311.9,1290.7 1330.7,1294.6 1349.5,1297.4 1368.1,1299.1 1386.5,1299.6 1404.8,1298.9 1422.8,1297.0 1440.6,1293.9 1458.1,1289.7 1475.3,1284.2 1492.2,1277.6 1508.7,1269.8 1524.9,1260.9 1540.7,1250.9 1556.0,1239.8 1571.0,1227.7 1585.5,1214.6 1599.6,1200.6 1613.2,1185.6 1626.3,1169.9 1638.9,1153.3 1651.0,1136.1 1662.7,1118.3 1673.8,1099.9 1684.4,1081.1 1694.4,1061.9 1704.0,1042.5 1713.0,1022.9  Z" style="stroke-width: 0.5;  stroke: rgb(0,0,0); fill: rgb(179,177,178);" />
<path d="M 1743.568,1037.744 A 522.500,522.500 0.00 0,1 1762.3,1048.1 L 1762.3,1048.1 1751.0,1067.1 1739.2,1085.8 1726.8,1104.3 1713.9,1122.5 1700.5,1140.2 1686.5,1157.4 1672.1,1174.0 1657.1,1190.0 1641.7,1205.3 1625.8,1219.8 1609.4,1233.5 1592.6,1246.3 1575.4,1258.2 1557.7,1269.2 1539.7,1279.2 1521.3,1288.2 1502.6,1296.2 1483.5,1303.1 1464.2,1308.9 1444.6,1313.6 1424.7,1317.3 1404.6,1319.9 1384.3,1321.3 1363.8,1321.8 1343.2,1321.1 1322.5,1319.4 1301.7,1316.6 1280.9,1312.9 1260.1,1308.2 1239.3,1302.5 1218.6,1296.0 1198.0,1288.6 1177.6,1280.4 1157.3,1271.5 1137.2,1261.9 1117.5,1251.6 1098.0,1240.8 1078.9,1229.6 1060.2,1217.9  A 522.500,522.500 0.00 0,1 1072.4,1199.7 L 1072.4,1199.7 1090.4,1212.1 1108.9,1224.0 1127.7,1235.5 1146.8,1246.4 1166.1,1256.7 1185.7,1266.3 1205.5,1275.1 1225.4,1283.1 1245.4,1290.2 1265.5,1296.5 1285.6,1301.7 1305.7,1306.0 1325.7,1309.2 1345.7,1311.3 1365.5,1312.4 1385.2,1312.4 1404.7,1311.2 1424.0,1308.9 1443.1,1305.5 1461.9,1301.0 1480.5,1295.3 1498.7,1288.5 1516.6,1280.7 1534.1,1271.7 1551.3,1261.7 1568.1,1250.7 1584.4,1238.7 1600.4,1225.7 1615.9,1211.9 1630.9,1197.2 1645.4,1181.7 1659.5,1165.5 1673.1,1148.6 1686.1,1131.2 1698.7,1113.2 1710.7,1094.8 1722.2,1076.0 1733.2,1057.0 1743.6,1037.7  Z" style="stroke-width: 0.5;  stroke: rgb(0,0,0); fill: rgb(179,177,178);" />
<path d="M 1791.281,1933.776 A 522.500,522.500 0.00 0,1 1774.5,1944.6 L 1774.5,1944.6 1763.0,1926.3 1751.0,1908.4 1738.4,1890.7 1725.4,1873.5 1712.0,1856.7 1698.1,1840.6 1683.8,1825.2 1669.1,1810.5 1654.0,1796.6 1638.6,1783.6 1622.8,1771.6 1606.7,1760.5 1590.2,1750.5 1573.6,1741.6 1556.6,1733.8 1539.4,1727.2 1522.0,1721.7 1504.4,1717.4 1486.7,1714.3 1468.8,1712.4 1450.8,1711.8 1432.7,1712.4 1414.5,1714.1 1396.4,1717.1 1378.2,1721.2 1360.0,1726.5 1341.9,1732.9 1323.8,1740.4 1305.9,1748.9 1288.1,1758.5 1270.5,1768.9 1253.1,1780.3 1235.9,1792.4 1219.0,1805.3 1202.4,1818.9 1186.1,1833.1 1170.2,1847.8 1154.7,1862.9 1139.6,1878.3  A 522.500,522.500 0.00 0,1 1125.4,1864.2 L 1125.4,1864.2 1141.1,1849.3 1157.3,1834.6 1174.0,1820.4 1191.0,1806.7 1208.3,1793.6 1226.0,1781.2 1243.9,1769.5 1262.1,1758.6 1280.4,1748.6 1299.0,1739.5 1317.7,1731.3 1336.5,1724.2 1355.4,1718.1 1374.4,1713.2 1393.4,1709.3 1412.4,1706.6 1431.4,1705.0 1450.3,1704.6 1469.1,1705.3 1487.8,1707.3 1506.4,1710.4 1524.8,1714.7 1543.0,1720.2 1561.0,1726.8 1578.8,1734.5 1596.4,1743.3 1613.6,1753.2 1630.5,1764.0 1647.2,1775.8 1663.4,1788.6 1679.4,1802.2 1694.9,1816.6 1710.0,1831.8 1724.7,1847.6 1739.0,1864.0 1752.8,1880.9 1766.1,1898.2 1779.0,1915.9 1791.3,1933.8  Z" style="stroke-width: 0.5;  stroke: rgb(0,0,0); fill: rgb(179,177,178);" />
<path d="M 1951.060,1236.275 A 522.500,522.500 0.00 0,1 1959.9,1252.1 L 1959.9,1252.1 1937.9,1263.8 1915.6,1275.3 1893.0,1286.6 1870.0,1297.7 1846.8,1308.5 1823.3,1319.1 1799.6,1329.3 1775.6,1339.3 1751.3,1348.9 1726.9,1358.1 1702.2,1367.0 1677.3,1375.6 1652.2,1383.7 1627.0,1391.4 1601.5,1398.8 1576.0,1405.7 1550.2,1412.1 1524.4,1418.2 1498.5,1423.8 1472.4,1428.9 1446.3,1433.6 1420.1,1437.9 1393.9,1441.7 1367.6,1445.0 1341.3,1447.9 1315.0,1450.4 1288.7,1452.4 1262.4,1454.0 1236.2,1455.2 1210.1,1455.9 1184.0,1456.2 1158.0,1456.2 1132.1,1455.7 1106.4,1454.9 1080.8,1453.7 1055.4,1452.2 1030.2,1450.3 1005.1,1448.2 980.3,1445.8  A 522.500,522.500 0.00 0,1 982.6,1427.4 L 982.6,1427.4 1007.1,1430.6 1031.8,1433.6 1056.8,1436.2 1081.9,1438.5 1107.3,1440.4 1132.8,1441.9 1158.5,1443.0 1184.3,1443.7 1210.2,1444.0 1236.1,1443.8 1262.2,1443.1 1288.3,1441.9 1314.4,1440.3 1340.6,1438.2 1366.7,1435.6 1392.8,1432.5 1418.9,1428.9 1444.9,1424.8 1470.8,1420.2 1496.7,1415.1 1522.4,1409.5 1548.0,1403.4 1573.5,1396.8 1598.9,1389.8 1624.0,1382.3 1649.0,1374.3 1673.8,1365.9 1698.4,1357.0 1722.7,1347.8 1746.8,1338.1 1770.7,1328.0 1794.3,1317.6 1817.6,1306.8 1840.6,1295.7 1863.4,1284.3 1885.8,1272.7 1907.9,1260.7 1929.6,1248.6 1951.1,1236.3  Z" style="stroke-width: 0.5;  stroke: rgb(0,0,0); fill: rgb(179,177,178);" />
<path d="M 1536.604,978.784 A 522.500,522.500 0.00 0,1 1554.5,980.3 L 1554.5,980.3 1552.2,1000.7 1549.5,1021.0 1546.5,1041.0 1543.0,1060.7 1539.2,1079.8 1535.0,1098.4 1530.4,1116.2 1525.3,1133.3 1519.8,1149.5 1513.9,1164.7 1507.6,1178.8 1500.8,1191.9 1493.6,1203.7 1486.0,1214.3 1477.9,1223.7 1469.5,1231.7 1460.6,1238.4 1451.4,1243.7 1441.7,1247.7 1431.7,1250.2 1421.4,1251.3 1410.7,1251.0 1399.8,1249.3 1388.5,1246.2 1377.0,1241.8 1365.2,1236.1 1353.3,1229.0 1341.1,1220.8 1328.8,1211.3 1316.4,1200.7 1303.9,1189.1 1291.4,1176.5 1278.9,1162.9 1266.4,1148.6 1253.9,1133.5 1241.6,1117.8 1229.4,1101.6 1217.5,1085.1 1205.8,1068.2  A 522.500,522.500 0.00 0,1 1220.9,1058.3 L 1220.9,1058.3 1232.0,1075.5 1243.3,1092.4 1254.7,1108.9 1266.3,1125.0 1278.0,1140.4 1289.8,1155.1 1301.6,1169.1 1313.3,1182.1 1325.0,1194.1 1336.5,1205.0 1348.0,1214.8 1359.3,1223.4 1370.4,1230.8 1381.2,1236.9 1391.9,1241.6 1402.2,1245.0 1412.3,1247.0 1422.0,1247.5 1431.4,1246.7 1440.5,1244.4 1449.1,1240.7 1457.5,1235.6 1465.4,1229.1 1472.9,1221.2 1480.0,1212.0 1486.7,1201.5 1493.0,1189.8 1498.8,1176.8 1504.3,1162.8 1509.3,1147.7 1513.9,1131.5 1518.1,1114.5 1521.8,1096.7 1525.2,1078.2 1528.2,1059.0 1530.8,1039.4 1533.1,1019.4 1535.0,999.2 1536.6,978.8  Z" style="stroke-width: 0.5;  stroke: rgb(0,0,0); fill: rgb(179,177,178);" />
<path d="M 1859.133,1879.513 A 522.500,522.500 0.00 0,1 1849.2,1888.7 L 1849.2,1888.7 1834.0,1872.2 1818.3,1856.0 1802.2,1840.1 1785.5,1824.7 1768.4,1809.7 1750.9,1795.2 1732.9,1781.4 1714.6,1768.2 1695.8,1755.8 1676.8,1744.2 1657.3,1733.3 1637.6,1723.3 1617.6,1714.2 1597.3,1706.1 1576.8,1698.9 1556.0,1692.7 1535.1,1687.4 1514.0,1683.2 1492.7,1680.1 1471.3,1677.9 1449.9,1676.8 1428.4,1676.7 1406.8,1677.7 1385.2,1679.7 1363.7,1682.6 1342.2,1686.6 1320.8,1691.5 1299.4,1697.4 1278.2,1704.1 1257.2,1711.8 1236.4,1720.2 1215.8,1729.5 1195.4,1739.5 1175.4,1750.1 1155.6,1761.4 1136.2,1773.3 1117.2,1785.6 1098.7,1798.4 1080.5,1811.5  A 522.500,522.500 0.00 0,1 1072.8,1800.8 L 1072.8,1800.8 1091.3,1788.0 1110.3,1775.6 1129.8,1763.7 1149.6,1752.2 1169.7,1741.3 1190.2,1731.0 1211.0,1721.4 1232.0,1712.5 1253.3,1704.3 1274.7,1697.0 1296.4,1690.5 1318.1,1684.9 1340.0,1680.2 1361.9,1676.5 1383.9,1673.7 1405.9,1671.9 1427.9,1671.0 1449.8,1671.2 1471.7,1672.4 1493.5,1674.6 1515.2,1677.8 1536.8,1681.9 1558.2,1687.1 1579.4,1693.3 1600.4,1700.4 1621.1,1708.4 1641.6,1717.3 1661.8,1727.1 1681.7,1737.8 1701.3,1749.2 1720.5,1761.4 1739.4,1774.3 1757.8,1787.8 1775.9,1802.0 1793.5,1816.7 1810.6,1831.8 1827.3,1847.4 1843.5,1863.3 1859.1,1879.5  Z" style="stroke-width: 0.5;  stroke: rgb(0,0,0); fill: rgb(179,177,178);" />
<path d="M 1871.277,1132.359 A 522.500,522.500 0.00 0,1 1879.6,1141.0 L 1879.6,1141.0 1862.5,1156.9 1844.8,1172.5 1826.7,1187.9 1808.1,1203.0 1789.1,1217.7 1769.6,1231.9 1749.7,1245.7 1729.4,1259.0 1708.7,1271.7 1687.7,1283.8 1666.2,1295.3 1644.5,1306.1 1622.4,1316.3 1600.0,1325.7 1577.3,1334.5 1554.4,1342.4 1531.2,1349.6 1507.8,1356.0 1484.2,1361.7 1460.5,1366.5 1436.6,1370.5 1412.5,1373.8 1388.4,1376.2 1364.2,1377.8 1339.9,1378.6 1315.6,1378.7 1291.3,1378.0 1267.0,1376.5 1242.8,1374.3 1218.7,1371.3 1194.7,1367.7 1170.8,1363.4 1147.1,1358.5 1123.6,1353.0 1100.3,1346.9 1077.3,1340.3 1054.7,1333.2 1032.3,1325.7 1010.3,1317.8  A 522.500,522.500 0.00 0,1 1014.7,1306.5 L 1014.7,1306.5 1036.3,1314.8 1058.4,1322.8 1080.8,1330.4 1103.5,1337.4 1126.5,1343.9 1149.7,1349.8 1173.1,1355.2 1196.7,1359.8 1220.5,1363.8 1244.4,1367.1 1268.3,1369.6 1292.3,1371.3 1316.3,1372.3 1340.4,1372.5 1364.4,1371.9 1388.3,1370.5 1412.2,1368.2 1435.9,1365.1 1459.6,1361.1 1483.0,1356.4 1506.3,1350.8 1529.4,1344.4 1552.3,1337.1 1574.9,1329.1 1597.2,1320.3 1619.3,1310.8 1641.0,1300.5 1662.4,1289.5 1683.5,1277.8 1704.2,1265.5 1724.5,1252.6 1744.4,1239.1 1763.9,1225.0 1783.0,1210.5 1801.6,1195.5 1819.7,1180.2 1837.4,1164.5 1854.6,1148.5 1871.3,1132.4  Z" style="stroke-width: 0.5;  stroke: rgb(0,0,0); fill: rgb(179,177,178);" />
<path d="M 1700.881,1017.659 A 522.500,522.500 0.00 0,1 1709.6,1021.4 L 1709.6,1021.4 1700.7,1041.0 1691.3,1060.5 1681.4,1079.7 1671.0,1098.5 1660.0,1116.9 1648.6,1134.8 1636.6,1152.1 1624.2,1168.6 1611.2,1184.4 1597.8,1199.4 1583.9,1213.4 1569.5,1226.5 1554.7,1238.7 1539.5,1249.7 1523.9,1259.7 1507.9,1268.6 1491.5,1276.4 1474.8,1283.0 1457.8,1288.4 1440.4,1292.6 1422.8,1295.6 1404.9,1297.4 1386.8,1298.0 1368.5,1297.5 1350.1,1295.8 1331.5,1292.9 1312.8,1288.9 1294.0,1283.8 1275.2,1277.7 1256.4,1270.6 1237.7,1262.5 1219.0,1253.5 1200.4,1243.7 1182.1,1233.1 1163.9,1221.7 1146.0,1209.8 1128.3,1197.3 1111.1,1184.3 1094.2,1170.9  A 522.500,522.500 0.00 0,1 1100.2,1163.6 L 1100.2,1163.6 1116.8,1177.2 1133.8,1190.5 1151.1,1203.2 1168.7,1215.5 1186.5,1227.1 1204.6,1237.9 1222.8,1248.0 1241.1,1257.3 1259.5,1265.6 1278.0,1273.0 1296.4,1279.3 1314.8,1284.6 1333.2,1288.8 1351.4,1291.9 1369.5,1293.8 1387.4,1294.5 1405.1,1294.0 1422.6,1292.3 1439.9,1289.4 1456.8,1285.3 1473.5,1279.9 1489.8,1273.4 1505.7,1265.7 1521.3,1256.9 1536.5,1246.9 1551.3,1235.8 1565.7,1223.7 1579.6,1210.5 1593.1,1196.4 1606.1,1181.4 1618.7,1165.6 1630.7,1148.9 1642.3,1131.6 1653.3,1113.7 1663.9,1095.2 1673.9,1076.2 1683.4,1056.9 1692.4,1037.4 1700.9,1017.7  Z" style="stroke-width: 0.5;  stroke: rgb(0,0,0); fill: rgb(179,177,178);" />
<path d="M 1994.763,1667.976 A 522.500,522.500 0.00 0,1 1991.9,1676.3 L 1991.9,1676.3 1968.1,1667.9 1944.1,1659.8 1919.9,1651.8 1895.4,1644.1 1870.7,1636.6 1845.7,1629.4 1820.6,1622.5 1795.3,1615.8 1769.8,1609.5 1744.1,1603.5 1718.3,1597.9 1692.4,1592.6 1666.3,1587.6 1640.1,1583.0 1613.8,1578.8 1587.4,1575.0 1560.9,1571.5 1534.4,1568.5 1507.8,1565.8 1481.2,1563.5 1454.5,1561.6 1427.8,1560.1 1401.1,1559.0 1374.5,1558.3 1347.8,1558.0 1321.2,1558.1 1294.7,1558.6 1268.2,1559.4 1241.8,1560.6 1215.5,1562.1 1189.3,1564.0 1163.3,1566.2 1137.3,1568.8 1111.5,1571.7 1085.9,1574.8 1060.5,1578.3 1035.2,1582.0 1010.2,1586.0 985.4,1590.2  A 522.500,522.500 0.00 0,1 983.9,1581.6 L 983.9,1581.6 1008.9,1577.8 1034.1,1574.2 1059.5,1570.8 1085.1,1567.7 1110.8,1564.9 1136.7,1562.3 1162.7,1560.0 1188.9,1558.1 1215.2,1556.5 1241.6,1555.2 1268.1,1554.2 1294.6,1553.6 1321.2,1553.3 1347.9,1553.4 1374.6,1553.8 1401.3,1554.6 1428.0,1555.8 1454.8,1557.4 1481.5,1559.3 1508.2,1561.5 1534.8,1564.2 1561.5,1567.2 1588.0,1570.6 1614.5,1574.3 1640.9,1578.4 1667.1,1582.9 1693.3,1587.7 1719.4,1592.8 1745.3,1598.2 1771.1,1604.0 1796.7,1610.0 1822.2,1616.4 1847.4,1623.0 1872.5,1630.0 1897.4,1637.1 1922.1,1644.5 1946.6,1652.1 1970.8,1660.0 1994.8,1668.0  Z" style="stroke-width: 0.5;  stroke: rgb(0,0,0); fill: rgb(179,177,178);" />
<path d="M 1951.612,1762.779 A 522.500,522.500 0.00 0,1 1947.2,1770.3 L 1947.2,1770.3 1926.8,1758.2 1905.9,1746.4 1884.7,1735.0 1863.1,1723.9 1841.1,1713.3 1818.8,1703.1 1796.2,1693.4 1773.2,1684.2 1750.0,1675.6 1726.5,1667.6 1702.8,1660.2 1678.9,1653.4 1654.7,1647.4 1630.4,1641.9 1606.0,1637.2 1581.4,1633.2 1556.7,1629.9 1531.9,1627.4 1507.1,1625.6 1482.2,1624.5 1457.2,1624.2 1432.3,1624.6 1407.4,1625.7 1382.6,1627.6 1357.8,1630.2 1333.1,1633.5 1308.6,1637.5 1284.2,1642.1 1259.9,1647.5 1235.8,1653.4 1211.9,1660.0 1188.3,1667.2 1164.9,1674.9 1141.8,1683.1 1119.0,1691.8 1096.5,1701.0 1074.3,1710.6 1052.6,1720.5 1031.2,1730.8  A 522.500,522.500 0.00 0,1 1027.5,1723.0 L 1027.5,1723.0 1049.1,1713.0 1071.1,1703.4 1093.5,1694.1 1116.2,1685.2 1139.2,1676.8 1162.5,1668.8 1186.1,1661.4 1210.0,1654.5 1234.1,1648.1 1258.3,1642.4 1282.8,1637.3 1307.4,1632.8 1332.2,1628.9 1357.0,1625.8 1382.0,1623.3 1407.0,1621.5 1432.1,1620.5 1457.2,1620.1 1482.3,1620.5 1507.3,1621.5 1532.4,1623.3 1557.3,1625.8 1582.2,1629.1 1607.0,1633.0 1631.6,1637.6 1656.1,1642.9 1680.5,1648.8 1704.6,1655.4 1728.5,1662.6 1752.2,1670.4 1775.7,1678.8 1798.8,1687.8 1821.7,1697.2 1844.3,1707.2 1866.5,1717.5 1888.3,1728.3 1909.8,1739.5 1930.9,1751.0 1951.6,1762.8  Z" style="stroke-width: 0.5;  stroke: rgb(0,0,0); fill: rgb(179,177,178);" />
</g>
<g id="plot0">
<g id="plot0-axis">
</g>
<line x1='2231.0' y1='1667.6' x2='2231.0' y2='1667.6' style="stroke-width:14.0;stroke:rgb(0,0,0);stroke-linecap:round;fill:none;" />
<line x1='2231.0' y1='1667.6' x2='2270.0' y2='1676.5' style="stroke-width:14.0;stroke:rgb(0,0,0);stroke-linecap:round;fill:none;" />
<line x1='2270.0' y1='1676.5' x2='2270.0' y2='1676.5' style="stroke-width:14.0;stroke:rgb(0,0,0);stroke-linecap:round;fill:none;" />
<text x="2284.3" y="1702.4" font-size="46.8px" font-family="CMUBright-Roman" style="text-anchor:start;fill:rgb(255,38,78);" transform="rotate(12.9,2284.3,1702.4)" >Histocap256P18<tspan baseline-shift="-40%" font-size="90%">s</tspan>01921</text>
</g>
<defs>
<pattern id="hline-sparse" width="10" height="10" patternTransform="rotate(0 0 0)" patternUnits="userSpaceOnUse"><line x1="0" y1="0" x2="10" y2="0" style="stroke:black;stroke-width:2" /></pattern>
<pattern id="vline" width="10" height="10" patternTransform="rotate(0 0 0)" patternUnits="userSpaceOnUse"><line x1="0" y1="0" x2="0" y2="10" style="stroke:black;stroke-width:5" /></pattern>
<pattern id="checker" width="10" height="10" patternTransform="rotate(45 0 0)" patternUnits="userSpaceOnUse"><line x1="0" y1="0" x2="10" y2="0" style="stroke:black;stroke-width:5" /><line x1="0" y1="0" x2="0" y2="10" style="stroke:black;stroke-width:4" /></pattern>
<pattern id="checker" width="10" height="10" patternTransform="rotate(45 0 0)" patternUnits="userSpaceOnUse"><line x1="0" y1="0" x2="10" y2="0" style="stroke:black;stroke-width:2" /><line x1="0" y1="0" x2="0" y2="10" style="stroke:black;stroke-width:2" /></pattern>
<pattern id="hline" width="10" height="10" patternTransform="rotate(0 0 0)" patternUnits="userSpaceOnUse"><line x1="0" y1="0" x2="10" y2="0" style="stroke:black;stroke-width:5" /></pattern>
<pattern id="vline-sparse" width="10" height="10" patternTransform="rotate(0 0 0)" patternUnits="userSpaceOnUse"><line x1="0" y1="0" x2="0" y2="10" style="stroke:black;stroke-width:2" /></pattern>
</defs>
</svg>
