<?xml version="1.0" encoding="utf-8" standalone="no"?>
<!DOCTYPE svg PUBLIC "-//W3C//DTD SVG 1.1//EN" "http://www.w3.org/Graphics/SVG/1.1/DTD/svg11.dtd">
<svg width="3000px" height="3000px" version="1.1" xmlns="http://www.w3.org/2000/svg" xmlns:xlink="http://www.w3.org/1999/xlink">
<g id="bg">
<rect x="0" y="0" width="3000px" height="3000px" style="fill:rgb(255,255,255);"/>
</g>
<g id="ideograms">
<path d="M1500.000,950.000 A550.000,550.000 40.000 0,1 1656.736,2027.194 L1713.731,2218.901 A750.000,750.000 0.000 0,0 1500.000,750.000 Z" style="stroke-width:2.0;stroke:rgb(0,0,0);stroke-linecap:round;fill:rgb(179,177,178);" />
<text x="2464.8" y="1359.6" font-size="46.8px" font-family="CMUBright-Roman" style="text-anchor:middle;fill:rgb(0,0,0);" transform="rotate(441.7,2464.8,1359.6)" >HistocapES285Z<tspan baseline-shift="-40%" font-size="90%">2</tspan></text>
<line x1='1546.7' y1='751.5' x2='1547.5' y2='739.5' style="stroke-width:8.0;stroke:rgb(150,150,150);stroke-linecap:round;fill:none;" />
<line x1='1644.5' y1='764.1' x2='1646.8' y2='752.3' style="stroke-width:8.0;stroke:rgb(150,150,150);stroke-linecap:round;fill:none;" />
<line x1='1739.8' y1='789.4' x2='1743.6' y2='778.0' style="stroke-width:8.0;stroke:rgb(150,150,150);stroke-linecap:round;fill:none;" />
<line x1='1830.9' y1='826.9' x2='1836.2' y2='816.2' style="stroke-width:8.0;stroke:rgb(150,150,150);stroke-linecap:round;fill:none;" />
<line x1='1916.3' y1='876.1' x2='1923.0' y2='866.2' style="stroke-width:8.0;stroke:rgb(150,150,150);stroke-linecap:round;fill:none;" />
<text x="1941.2" y="864.1" font-size="41.6px" font-family="CMUBright-Roman" style="text-anchor:start;fill:rgb(150,150,150);" transform="rotate(303.7,1941.2,864.1)" >300 kb</text>
<line x1='1994.5' y1='936.1' x2='2002.4' y2='927.1' style="stroke-width:8.0;stroke:rgb(150,150,150);stroke-linecap:round;fill:none;" />
<line x1='2064.2' y1='1005.8' x2='2073.2' y2='997.9' style="stroke-width:8.0;stroke:rgb(150,150,150);stroke-linecap:round;fill:none;" />
<line x1='2124.1' y1='1084.1' x2='2134.1' y2='1077.5' style="stroke-width:8.0;stroke:rgb(150,150,150);stroke-linecap:round;fill:none;" />
<line x1='2173.3' y1='1169.5' x2='2184.0' y2='1164.3' style="stroke-width:8.0;stroke:rgb(150,150,150);stroke-linecap:round;fill:none;" />
<line x1='2210.8' y1='1260.7' x2='2222.2' y2='1256.9' style="stroke-width:8.0;stroke:rgb(150,150,150);stroke-linecap:round;fill:none;" />
<text x="2237.9" y="1266.3" font-size="41.6px" font-family="CMUBright-Roman" style="text-anchor:start;fill:rgb(150,150,150);" transform="rotate(341.4,2237.9,1266.3)" >350 kb</text>
<line x1='2236.0' y1='1356.0' x2='2247.8' y2='1353.7' style="stroke-width:8.0;stroke:rgb(150,150,150);stroke-linecap:round;fill:none;" />
<line x1='2248.6' y1='1453.8' x2='2260.5' y2='1453.0' style="stroke-width:8.0;stroke:rgb(150,150,150);stroke-linecap:round;fill:none;" />
<line x1='2248.2' y1='1552.3' x2='2260.1' y2='1553.2' style="stroke-width:8.0;stroke:rgb(150,150,150);stroke-linecap:round;fill:none;" />
<line x1='2234.8' y1='1650.0' x2='2246.6' y2='1652.4' style="stroke-width:8.0;stroke:rgb(150,150,150);stroke-linecap:round;fill:none;" />
<line x1='2208.8' y1='1745.1' x2='2220.2' y2='1749.0' style="stroke-width:8.0;stroke:rgb(150,150,150);stroke-linecap:round;fill:none;" />
<text x="2226.8" y="1766.1" font-size="41.6px" font-family="CMUBright-Roman" style="text-anchor:start;fill:rgb(150,150,150);" transform="rotate(19.1,2226.8,1766.1)" >400 kb</text>
<line x1='2170.6' y1='1835.9' x2='2181.3' y2='1841.3' style="stroke-width:8.0;stroke:rgb(150,150,150);stroke-linecap:round;fill:none;" />
<line x1='2120.7' y1='1920.9' x2='2130.7' y2='1927.7' style="stroke-width:8.0;stroke:rgb(150,150,150);stroke-linecap:round;fill:none;" />
<line x1='2060.2' y1='1998.7' x2='2069.1' y2='2006.7' style="stroke-width:8.0;stroke:rgb(150,150,150);stroke-linecap:round;fill:none;" />
<line x1='1989.9' y1='2067.9' x2='1997.8' y2='2077.0' style="stroke-width:8.0;stroke:rgb(150,150,150);stroke-linecap:round;fill:none;" />
<line x1='1911.2' y1='2127.2' x2='1917.8' y2='2137.2' style="stroke-width:8.0;stroke:rgb(150,150,150);stroke-linecap:round;fill:none;" />
<text x="1912.6" y="2154.9" font-size="41.6px" font-family="CMUBright-Roman" style="text-anchor:start;fill:rgb(150,150,150);" transform="rotate(56.7,1912.6,2154.9)" >450 kb</text>
<line x1='1825.4' y1='2175.7' x2='1830.6' y2='2186.5' style="stroke-width:8.0;stroke:rgb(150,150,150);stroke-linecap:round;fill:none;" />
<line x1='1734.0' y1='2212.6' x2='1737.7' y2='2224.0' style="stroke-width:8.0;stroke:rgb(150,150,150);stroke-linecap:round;fill:none;" />
<g id="highlighttrack_0">
<path d="M2032.134,1360.957 A550.000,550.000 40.000 0,1 2049.693,1481.633 L2249.582,1474.955 A750.000,750.000 0.000 0,0 2225.638,1310.395 Z" style="stroke-width:14.0;stroke:rgb(0,0,0);stroke-linecap:round;fill:rgb(255,38,78);" />
</g>
<path d="M1500.000,950.000 A550.000,550.000 40.000 0,1 1656.736,2027.194 L1713.731,2218.901 A750.000,750.000 0.000 0,0 1500.000,750.000 Z" style="stroke-width:2.0;stroke:rgb(0,0,0);stroke-linecap:round;fill:none;" />
<path d="M1442.036,2046.937 A550.000,550.000 40.000 0,1 1288.576,992.260 L1211.695,807.627 A750.000,750.000 0.000 0,0 1420.958,2245.823 Z" style="stroke-width:2.0;stroke:rgb(0,0,0);stroke-linecap:round;fill:rgb(179,177,178);" />
<text x="490.6" y="1646.9" font-size="46.8px" font-family="CMUBright-Roman" style="text-anchor:middle;fill:rgb(0,0,0);" transform="rotate(81.7,490.6,1646.9)" >HistoohiSECH98<tspan baseline-shift="-40%" font-size="90%">2</tspan></text>
<line x1='1157.2' y1='832.9' x2='1151.7' y2='822.3' style="stroke-width:8.0;stroke:rgb(150,150,150);stroke-linecap:round;fill:none;" />
<text x="1133.8" y="818.1" font-size="41.6px" font-family="CMUBright-Roman" style="text-anchor:end;fill:rgb(150,150,150);" transform="rotate(62.8,1133.8,818.1)" >450 kb</text>
<line x1='1072.7' y1='883.6' x2='1065.8' y2='873.8' style="stroke-width:8.0;stroke:rgb(150,150,150);stroke-linecap:round;fill:none;" />
<line x1='995.5' y1='945.0' x2='987.5' y2='936.1' style="stroke-width:8.0;stroke:rgb(150,150,150);stroke-linecap:round;fill:none;" />
<line x1='927.1' y1='1016.0' x2='917.9' y2='1008.2' style="stroke-width:8.0;stroke:rgb(150,150,150);stroke-linecap:round;fill:none;" />
<line x1='868.6' y1='1095.3' x2='858.5' y2='1088.8' style="stroke-width:8.0;stroke:rgb(150,150,150);stroke-linecap:round;fill:none;" />
<line x1='821.0' y1='1181.6' x2='810.1' y2='1176.5' style="stroke-width:8.0;stroke:rgb(150,150,150);stroke-linecap:round;fill:none;" />
<text x="793.4" y="1184.1" font-size="41.6px" font-family="CMUBright-Roman" style="text-anchor:end;fill:rgb(150,150,150);" transform="rotate(25.1,793.4,1184.1)" >500 kb</text>
<line x1='785.1' y1='1273.4' x2='773.6' y2='1269.7' style="stroke-width:8.0;stroke:rgb(150,150,150);stroke-linecap:round;fill:none;" />
<line x1='761.5' y1='1369.1' x2='749.7' y2='1367.0' style="stroke-width:8.0;stroke:rgb(150,150,150);stroke-linecap:round;fill:none;" />
<line x1='750.7' y1='1467.1' x2='738.7' y2='1466.5' style="stroke-width:8.0;stroke:rgb(150,150,150);stroke-linecap:round;fill:none;" />
<line x1='752.9' y1='1565.6' x2='740.9' y2='1566.7' style="stroke-width:8.0;stroke:rgb(150,150,150);stroke-linecap:round;fill:none;" />
<line x1='767.9' y1='1663.0' x2='756.2' y2='1665.6' style="stroke-width:8.0;stroke:rgb(150,150,150);stroke-linecap:round;fill:none;" />
<text x="747.7" y="1681.9" font-size="41.6px" font-family="CMUBright-Roman" style="text-anchor:end;fill:rgb(150,150,150);" transform="rotate(-12.6,747.7,1681.9)" >550 kb</text>
<line x1='795.6' y1='1757.6' x2='784.4' y2='1761.7' style="stroke-width:8.0;stroke:rgb(150,150,150);stroke-linecap:round;fill:none;" />
<line x1='835.5' y1='1847.8' x2='824.9' y2='1853.3' style="stroke-width:8.0;stroke:rgb(150,150,150);stroke-linecap:round;fill:none;" />
<line x1='886.8' y1='1931.9' x2='877.0' y2='1938.8' style="stroke-width:8.0;stroke:rgb(150,150,150);stroke-linecap:round;fill:none;" />
<line x1='948.8' y1='2008.6' x2='940.0' y2='2016.7' style="stroke-width:8.0;stroke:rgb(150,150,150);stroke-linecap:round;fill:none;" />
<line x1='1020.2' y1='2076.5' x2='1012.6' y2='2085.7' style="stroke-width:8.0;stroke:rgb(150,150,150);stroke-linecap:round;fill:none;" />
<text x="1015.7" y="2103.8" font-size="41.6px" font-family="CMUBright-Roman" style="text-anchor:end;fill:rgb(150,150,150);" transform="rotate(-50.2,1015.7,2103.8)" >600 kb</text>
<line x1='1100.0' y1='2134.4' x2='1093.6' y2='2144.6' style="stroke-width:8.0;stroke:rgb(150,150,150);stroke-linecap:round;fill:none;" />
<line x1='1186.6' y1='2181.4' x2='1181.6' y2='2192.3' style="stroke-width:8.0;stroke:rgb(150,150,150);stroke-linecap:round;fill:none;" />
<line x1='1278.7' y1='2216.6' x2='1275.2' y2='2228.1' style="stroke-width:8.0;stroke:rgb(150,150,150);stroke-linecap:round;fill:none;" />
<line x1='1374.6' y1='2239.4' x2='1372.6' y2='2251.3' style="stroke-width:8.0;stroke:rgb(150,150,150);stroke-linecap:round;fill:none;" />
<path d="M1442.036,2046.937 A550.000,550.000 40.000 0,1 1288.576,992.260 L1211.695,807.627 A750.000,750.000 0.000 0,0 1420.958,2245.823 Z" style="stroke-width:2.0;stroke:rgb(0,0,0);stroke-linecap:round;fill:none;" />
</g>
<g id="track_0">
<path d="M 1726.193,1028.998 A 522.500,522.500 0.00 0,1 1819.9,1086.9 L 1819.9,1086.9 1806.5,1103.8 1792.6,1120.4 1778.2,1136.7 1763.4,1152.5 1748.2,1167.8 1732.7,1182.4 1716.7,1196.3 1700.5,1209.4 1684.0,1221.7 1667.1,1233.1 1650.1,1243.5 1632.7,1252.9 1615.2,1261.2 1597.6,1268.4 1579.7,1274.5 1561.8,1279.5 1543.7,1283.2 1525.6,1285.8 1507.4,1287.1 1489.2,1287.3 1471.0,1286.2 1452.9,1283.9 1434.8,1280.5 1416.7,1275.8 1398.8,1270.0 1381.0,1263.0 1363.4,1255.0 1345.9,1245.9 1328.7,1235.7 1311.7,1224.6 1295.0,1212.6 1278.5,1199.8 1262.4,1186.1 1246.6,1171.7 1231.2,1156.7 1216.1,1141.1 1201.5,1125.1 1187.4,1108.7 1173.7,1091.9  A 522.500,522.500 0.00 0,1 1267.0,1032.3 L 1267.0,1032.3 1276.5,1050.8 1286.3,1069.1 1296.6,1087.1 1307.1,1104.6 1318.0,1121.5 1329.1,1137.7 1340.6,1153.2 1352.3,1167.8 1364.2,1181.5 1376.4,1194.2 1388.7,1205.8 1401.2,1216.2 1413.8,1225.4 1426.6,1233.4 1439.5,1240.1 1452.5,1245.5 1465.5,1249.6 1478.6,1252.2 1491.7,1253.5 1504.8,1253.4 1517.8,1251.9 1530.9,1249.1 1543.8,1244.9 1556.7,1239.3 1569.5,1232.4 1582.2,1224.2 1594.7,1214.8 1607.0,1204.2 1619.2,1192.4 1631.2,1179.6 1642.9,1165.7 1654.4,1151.0 1665.6,1135.3 1676.5,1118.9 1687.2,1101.8 1697.5,1084.2 1707.4,1066.1 1717.0,1047.7 1726.2,1029.0  Z" style="stroke-width: 0.5;  stroke: rgb(0,0,0); fill: rgb(179,177,178);" />
<path d="M 1712.698,1977.248 A 522.500,522.500 0.00 0,1 1648.9,2000.8 L 1648.9,2000.8 1642.9,1981.2 1636.6,1961.8 1630.0,1942.7 1623.1,1924.1 1615.9,1906.0 1608.4,1888.6 1600.6,1871.9 1592.6,1856.1 1584.4,1841.3 1576.0,1827.5 1567.3,1814.8 1558.4,1803.3 1549.4,1793.1 1540.1,1784.1 1530.7,1776.5 1521.2,1770.3 1511.5,1765.5 1501.8,1762.1 1491.9,1760.1 1481.9,1759.6 1471.9,1760.5 1461.8,1762.9 1451.7,1766.8 1441.6,1772.0 1431.5,1778.7 1421.4,1786.6 1411.4,1795.9 1401.4,1806.5 1391.5,1818.2 1381.7,1831.1 1372.0,1845.0 1362.5,1859.9 1353.1,1875.7 1343.9,1892.3 1334.9,1909.6 1326.2,1927.4 1317.6,1945.8 1309.4,1964.4 1301.5,1983.3  A 522.500,522.500 0.00 0,1 1208.4,1933.6 L 1208.4,1933.6 1220.3,1916.3 1232.6,1899.3 1245.3,1882.7 1258.2,1866.6 1271.5,1851.0 1285.0,1836.2 1298.8,1822.1 1312.8,1809.0 1326.9,1796.7 1341.2,1785.5 1355.6,1775.3 1370.1,1766.2 1384.7,1758.4 1399.3,1751.7 1414.0,1746.4 1428.6,1742.3 1443.2,1739.5 1457.7,1738.0 1472.2,1737.9 1486.5,1739.2 1500.7,1741.8 1514.8,1745.7 1528.7,1750.9 1542.4,1757.5 1555.9,1765.3 1569.2,1774.3 1582.2,1784.6 1594.9,1796.0 1607.4,1808.5 1619.5,1822.0 1631.4,1836.5 1642.9,1851.9 1654.0,1868.1 1664.8,1885.1 1675.2,1902.7 1685.2,1920.8 1694.8,1939.3 1704.0,1958.2 1712.7,1977.2  Z" style="stroke-width: 0.5;  stroke: rgb(0,0,0); fill: rgb(179,177,178);" />
<path d="M 2020.816,1458.081 A 522.500,522.500 0.00 0,1 2020.6,1544.6 L 2020.6,1544.6 1995.1,1542.6 1969.5,1540.7 1943.7,1539.0 1917.8,1537.6 1891.7,1536.4 1865.6,1535.4 1839.3,1534.7 1812.9,1534.2 1786.4,1534.0 1759.8,1534.1 1733.2,1534.5 1706.5,1535.2 1679.8,1536.1 1653.0,1537.4 1626.3,1539.0 1599.5,1540.8 1572.7,1543.0 1545.9,1545.5 1519.1,1548.3 1492.4,1551.3 1465.7,1554.7 1439.1,1558.4 1412.5,1562.4 1386.0,1566.7 1359.5,1571.3 1333.2,1576.2 1307.0,1581.4 1280.8,1586.8 1254.8,1592.5 1228.9,1598.5 1203.2,1604.7 1177.6,1611.1 1152.1,1617.8 1126.9,1624.7 1101.8,1631.9 1076.9,1639.2 1052.1,1646.7 1027.6,1654.4 1003.3,1662.2  A 522.500,522.500 0.00 0,1 983.4,1578.1 L 983.4,1578.1 1009.6,1574.1 1036.0,1570.2 1062.3,1566.3 1088.7,1562.5 1115.1,1558.6 1141.6,1554.9 1168.1,1551.1 1194.6,1547.5 1221.1,1543.8 1247.7,1540.2 1274.3,1536.7 1300.9,1533.2 1327.5,1529.7 1354.2,1526.3 1380.8,1523.0 1407.5,1519.7 1434.2,1516.4 1460.9,1513.2 1487.6,1510.1 1514.3,1507.0 1541.1,1503.9 1567.8,1501.0 1594.5,1498.0 1621.2,1495.2 1648.0,1492.3 1674.7,1489.6 1701.4,1486.8 1728.1,1484.2 1754.8,1481.6 1781.5,1479.0 1808.2,1476.5 1834.8,1474.0 1861.5,1471.6 1888.1,1469.3 1914.7,1466.9 1941.3,1464.7 1967.8,1462.4 1994.3,1460.2 2020.8,1458.1  Z" style="stroke-width: 0.5;  stroke: rgb(0,0,0); fill: rgb(179,177,178);" />
<path d="M 1778.798,1941.902 A 522.500,522.500 0.00 0,1 1713.6,1976.8 L 1713.6,1976.8 1704.8,1957.8 1695.6,1938.9 1686.0,1920.4 1675.9,1902.3 1665.5,1884.8 1654.7,1867.8 1643.5,1851.6 1631.9,1836.2 1620.1,1821.8 1607.9,1808.2 1595.4,1795.8 1582.6,1784.4 1569.6,1774.1 1556.3,1765.1 1542.7,1757.3 1529.0,1750.7 1515.1,1745.5 1501.0,1741.6 1486.7,1739.0 1472.4,1737.8 1457.9,1737.9 1443.3,1739.4 1428.7,1742.1 1414.1,1746.2 1399.4,1751.6 1384.8,1758.3 1370.2,1766.1 1355.6,1775.2 1341.2,1785.4 1326.9,1796.6 1312.7,1808.9 1298.7,1822.0 1284.9,1836.1 1271.4,1850.9 1258.1,1866.5 1245.1,1882.6 1232.5,1899.2 1220.2,1916.2 1208.3,1933.5  A 522.500,522.500 0.00 0,1 1149.6,1887.6 L 1149.6,1887.6 1164.3,1871.8 1179.3,1856.3 1194.8,1841.3 1210.7,1826.7 1226.9,1812.7 1243.4,1799.4 1260.2,1786.8 1277.2,1775.1 1294.5,1764.2 1311.9,1754.3 1329.5,1745.4 1347.3,1737.5 1365.1,1730.7 1383.0,1725.1 1400.9,1720.5 1418.9,1717.2 1436.8,1715.1 1454.7,1714.2 1472.6,1714.5 1490.3,1716.0 1507.9,1718.7 1525.4,1722.7 1542.7,1727.9 1559.8,1734.3 1576.7,1741.8 1593.4,1750.4 1609.8,1760.2 1625.9,1771.0 1641.7,1782.8 1657.2,1795.5 1672.4,1809.2 1687.1,1823.7 1701.5,1838.9 1715.5,1854.9 1729.1,1871.4 1742.2,1888.5 1754.9,1906.0 1767.1,1923.8 1778.8,1941.9  Z" style="stroke-width: 0.5;  stroke: rgb(0,0,0); fill: rgb(179,177,178);" />
<path d="M 1984.168,1303.562 A 522.500,522.500 0.00 0,1 2006.4,1371.2 L 2006.4,1371.2 1980.7,1377.7 1955.0,1384.1 1929.3,1390.5 1903.4,1396.9 1877.5,1403.2 1851.6,1409.4 1825.6,1415.6 1799.6,1421.7 1773.5,1427.7 1747.4,1433.7 1721.2,1439.6 1695.0,1445.4 1668.7,1451.2 1642.4,1456.9 1616.1,1462.5 1589.8,1468.0 1563.4,1473.4 1537.0,1478.8 1510.6,1484.1 1484.2,1489.3 1457.7,1494.4 1431.3,1499.4 1404.8,1504.3 1378.3,1509.2 1351.8,1514.0 1325.4,1518.7 1298.9,1523.3 1272.4,1527.8 1245.9,1532.2 1219.5,1536.6 1193.1,1540.9 1166.6,1545.1 1140.3,1549.2 1113.9,1553.2 1087.5,1557.2 1061.2,1561.1 1035.0,1564.9 1008.7,1568.7 982.5,1572.4  A 522.500,522.500 0.00 0,1 977.5,1499.9 L 977.5,1499.9 1003.1,1499.8 1028.8,1499.5 1054.7,1499.0 1080.7,1498.3 1106.8,1497.3 1133.0,1496.1 1159.3,1494.6 1185.7,1492.8 1212.1,1490.8 1238.6,1488.6 1265.1,1486.0 1291.7,1483.2 1318.2,1480.1 1344.8,1476.7 1371.4,1473.0 1398.0,1469.0 1424.6,1464.7 1451.1,1460.2 1477.6,1455.3 1504.0,1450.1 1530.4,1444.7 1556.7,1439.0 1582.9,1433.0 1609.0,1426.7 1635.0,1420.1 1660.9,1413.3 1686.8,1406.1 1712.4,1398.8 1738.0,1391.2 1763.4,1383.3 1788.6,1375.2 1813.7,1366.9 1838.6,1358.4 1863.4,1349.7 1887.9,1340.8 1912.3,1331.7 1936.5,1322.5 1960.4,1313.1 1984.2,1303.6  Z" style="stroke-width: 0.5;  stroke: rgb(0,0,0); fill: rgb(179,177,178);" />
<path d="M 1930.290,1796.406 A 522.500,522.500 0.00 0,1 1890.8,1846.8 L 1890.8,1846.8 1873.5,1831.7 1855.6,1816.9 1837.3,1802.4 1818.5,1788.3 1799.2,1774.7 1779.6,1761.6 1759.6,1749.0 1739.1,1737.0 1718.4,1725.6 1697.3,1715.0 1675.8,1705.0 1654.1,1695.9 1632.1,1687.4 1609.9,1679.8 1587.5,1673.1 1564.8,1667.2 1542.0,1662.1 1519.0,1658.0 1495.9,1654.7 1472.7,1652.3 1449.4,1650.8 1426.0,1650.3 1402.7,1650.6 1379.3,1651.8 1355.9,1653.8 1332.6,1656.8 1309.4,1660.6 1286.3,1665.2 1263.3,1670.5 1240.4,1676.7 1217.8,1683.6 1195.4,1691.2 1173.2,1699.5 1151.3,1708.4 1129.7,1717.8 1108.5,1727.8 1087.6,1738.3 1067.1,1749.1 1047.0,1760.4  A 522.500,522.500 0.00 0,1 1018.5,1702.9 L 1018.5,1702.9 1040.4,1693.9 1062.7,1685.3 1085.4,1677.0 1108.4,1669.2 1131.7,1661.8 1155.2,1654.9 1179.0,1648.6 1203.0,1642.9 1227.2,1637.7 1251.6,1633.2 1276.2,1629.3 1300.8,1626.1 1325.6,1623.5 1350.4,1621.7 1375.3,1620.6 1400.2,1620.2 1425.1,1620.5 1450.0,1621.5 1474.8,1623.3 1499.6,1625.9 1524.3,1629.2 1548.9,1633.2 1573.4,1637.9 1597.7,1643.4 1621.8,1649.5 1645.7,1656.4 1669.4,1663.9 1692.9,1672.0 1716.2,1680.8 1739.1,1690.2 1761.8,1700.2 1784.2,1710.7 1806.2,1721.7 1827.8,1733.2 1849.1,1745.1 1870.1,1757.5 1890.6,1770.1 1910.6,1783.1 1930.3,1796.4  Z" style="stroke-width: 0.5;  stroke: rgb(0,0,0); fill: rgb(179,177,178);" />
<path d="M 1889.526,1848.247 A 522.500,522.500 0.00 0,1 1849.2,1888.7 L 1849.2,1888.7 1834.0,1872.2 1818.3,1856.0 1802.1,1840.1 1785.5,1824.6 1768.4,1809.6 1750.8,1795.1 1732.8,1781.3 1714.4,1768.1 1695.7,1755.6 1676.6,1743.9 1657.1,1733.0 1637.4,1723.0 1617.3,1713.9 1597.0,1705.6 1576.4,1698.4 1555.6,1692.1 1534.6,1686.8 1513.5,1682.5 1492.2,1679.3 1470.8,1677.0 1449.2,1675.8 1427.7,1675.7 1406.0,1676.5 1384.4,1678.4 1362.8,1681.3 1341.2,1685.1 1319.7,1689.9 1298.3,1695.7 1277.0,1702.3 1255.9,1709.8 1235.0,1718.2 1214.3,1727.3 1193.8,1737.2 1173.7,1747.7 1153.8,1758.9 1134.3,1770.6 1115.2,1782.8 1096.5,1795.5 1078.3,1808.5  A 522.500,522.500 0.00 0,1 1047.1,1760.6 L 1047.1,1760.6 1067.2,1749.3 1087.6,1738.5 1108.5,1728.0 1129.8,1718.0 1151.3,1708.6 1173.2,1699.7 1195.4,1691.4 1217.8,1683.8 1240.4,1676.9 1263.2,1670.8 1286.2,1665.4 1309.3,1660.8 1332.5,1657.1 1355.8,1654.1 1379.1,1652.1 1402.5,1650.9 1425.8,1650.6 1449.1,1651.2 1472.4,1652.7 1495.6,1655.2 1518.6,1658.5 1541.6,1662.7 1564.4,1667.8 1587.0,1673.7 1609.4,1680.5 1631.6,1688.2 1653.5,1696.6 1675.2,1705.9 1696.5,1715.9 1717.6,1726.6 1738.3,1738.0 1758.7,1750.0 1778.7,1762.7 1798.3,1775.9 1817.4,1789.6 1836.2,1803.7 1854.4,1818.2 1872.2,1833.1 1889.5,1848.2  Z" style="stroke-width: 0.5;  stroke: rgb(0,0,0); fill: rgb(179,177,178);" />
<path d="M 1820.685,1912.513 A 522.500,522.500 0.00 0,1 1778.8,1941.9 L 1778.8,1941.9 1767.1,1923.8 1754.9,1906.0 1742.2,1888.5 1729.1,1871.4 1715.5,1854.9 1701.5,1838.9 1687.1,1823.6 1672.3,1809.2 1657.2,1795.5 1641.6,1782.7 1625.8,1770.9 1609.7,1760.1 1593.3,1750.3 1576.6,1741.6 1559.7,1734.1 1542.5,1727.7 1525.2,1722.5 1507.7,1718.5 1490.1,1715.8 1472.3,1714.2 1454.4,1713.9 1436.5,1714.8 1418.5,1716.9 1400.5,1720.2 1382.6,1724.7 1364.6,1730.3 1346.8,1737.1 1329.0,1744.9 1311.4,1753.8 1293.9,1763.7 1276.6,1774.5 1259.5,1786.2 1242.7,1798.7 1226.1,1812.0 1209.8,1825.9 1193.9,1840.5 1178.4,1855.5 1163.3,1871.0 1148.6,1886.7  A 522.500,522.500 0.00 0,1 1113.1,1851.1 L 1113.1,1851.1 1129.5,1836.5 1146.4,1822.3 1163.7,1808.5 1181.5,1795.2 1199.5,1782.5 1218.0,1770.4 1236.7,1759.0 1255.6,1748.4 1274.8,1738.7 1294.2,1729.8 1313.8,1721.8 1333.5,1714.9 1353.4,1708.9 1373.3,1704.0 1393.2,1700.1 1413.2,1697.4 1433.2,1695.7 1453.1,1695.2 1473.0,1695.8 1492.8,1697.5 1512.5,1700.3 1532.1,1704.3 1551.5,1709.4 1570.7,1715.5 1589.7,1722.8 1608.5,1731.0 1627.0,1740.3 1645.2,1750.6 1663.1,1761.8 1680.7,1773.9 1697.9,1786.8 1714.8,1800.5 1731.2,1814.9 1747.3,1830.0 1762.9,1845.7 1778.1,1861.8 1792.8,1878.4 1807.0,1895.3 1820.7,1912.5  Z" style="stroke-width: 0.5;  stroke: rgb(0,0,0); fill: rgb(179,177,178);" />
<path d="M 1963.348,1258.515 A 522.500,522.500 0.00 0,1 1983.4,1301.7 L 1983.4,1301.7 1959.7,1311.3 1935.8,1320.8 1911.7,1330.1 1887.4,1339.3 1862.8,1348.3 1838.1,1357.1 1813.3,1365.7 1788.2,1374.0 1763.0,1382.2 1737.6,1390.1 1712.1,1397.8 1686.4,1405.2 1660.7,1412.3 1634.8,1419.2 1608.8,1425.9 1582.6,1432.2 1556.4,1438.2 1530.2,1444.0 1503.8,1449.5 1477.4,1454.7 1450.9,1459.6 1424.4,1464.2 1397.9,1468.5 1371.3,1472.5 1344.7,1476.2 1318.1,1479.6 1291.5,1482.7 1265.0,1485.5 1238.5,1488.1 1212.0,1490.3 1185.6,1492.3 1159.2,1494.0 1132.9,1495.5 1106.7,1496.7 1080.6,1497.6 1054.7,1498.4 1028.8,1498.8 1003.1,1499.1 977.5,1499.2  A 522.500,522.500 0.00 0,1 979.8,1451.2 L 979.8,1451.2 1004.7,1453.4 1029.8,1455.3 1055.1,1456.9 1080.6,1458.2 1106.3,1459.2 1132.1,1459.8 1158.0,1460.1 1184.1,1460.0 1210.2,1459.5 1236.4,1458.6 1262.7,1457.4 1289.0,1455.7 1315.3,1453.5 1341.7,1451.0 1368.0,1448.1 1394.4,1444.7 1420.7,1440.8 1446.9,1436.6 1473.1,1431.9 1499.2,1426.8 1525.2,1421.2 1551.1,1415.3 1576.9,1408.9 1602.6,1402.1 1628.1,1394.9 1653.5,1387.3 1678.7,1379.3 1703.7,1370.9 1728.5,1362.2 1753.1,1353.1 1777.5,1343.7 1801.6,1334.0 1825.6,1324.0 1849.2,1313.7 1872.6,1303.1 1895.7,1292.2 1918.6,1281.2 1941.1,1269.9 1963.3,1258.5  Z" style="stroke-width: 0.5;  stroke: rgb(0,0,0); fill: rgb(179,177,178);" />
<path d="M 1952.499,1761.248 A 522.500,522.500 0.00 0,1 1930.5,1796.2 L 1930.5,1796.2 1910.8,1782.9 1890.7,1769.9 1870.2,1757.2 1849.3,1744.9 1827.9,1733.0 1806.3,1721.5 1784.2,1710.5 1761.9,1699.9 1739.2,1690.0 1716.2,1680.6 1693.0,1671.8 1669.5,1663.6 1645.7,1656.1 1621.8,1649.3 1597.6,1643.1 1573.3,1637.6 1548.9,1632.9 1524.3,1628.9 1499.6,1625.6 1474.8,1623.0 1449.9,1621.2 1425.0,1620.1 1400.1,1619.7 1375.2,1620.1 1350.3,1621.2 1325.4,1623.0 1300.7,1625.5 1276.0,1628.7 1251.4,1632.6 1227.0,1637.1 1202.8,1642.2 1178.7,1647.9 1154.9,1654.2 1131.3,1661.0 1108.0,1668.3 1085.0,1676.1 1062.4,1684.3 1040.0,1692.9 1018.1,1701.9  A 522.500,522.500 0.00 0,1 1003.6,1663.1 L 1003.6,1663.1 1026.6,1655.7 1050.0,1648.7 1073.7,1642.0 1097.6,1635.7 1121.9,1629.9 1146.3,1624.4 1171.0,1619.5 1195.9,1615.0 1220.9,1611.1 1246.2,1607.7 1271.5,1604.8 1296.9,1602.6 1322.5,1600.9 1348.1,1599.8 1373.7,1599.3 1399.4,1599.5 1425.1,1600.2 1450.7,1601.6 1476.4,1603.6 1501.9,1606.3 1527.4,1609.5 1552.8,1613.4 1578.1,1617.9 1603.3,1623.1 1628.3,1628.8 1653.1,1635.1 1677.8,1642.0 1702.2,1649.4 1726.4,1657.4 1750.4,1665.8 1774.1,1674.8 1797.6,1684.3 1820.7,1694.2 1843.5,1704.5 1866.1,1715.2 1888.2,1726.3 1910.0,1737.7 1931.5,1749.3 1952.5,1761.2  Z" style="stroke-width: 0.5;  stroke: rgb(0,0,0); fill: rgb(179,177,178);" />
<path d="M 1848.490,1889.309 A 522.500,522.500 0.00 0,1 1820.9,1912.4 L 1820.9,1912.4 1807.1,1895.1 1792.8,1878.1 1778.1,1861.5 1762.8,1845.2 1747.1,1829.5 1731.0,1814.3 1714.4,1799.8 1697.4,1785.9 1680.0,1772.8 1662.3,1760.6 1644.2,1749.2 1625.8,1738.7 1607.1,1729.2 1588.1,1720.7 1568.9,1713.2 1549.5,1706.7 1529.8,1701.3 1510.0,1697.0 1490.0,1693.8 1469.8,1691.7 1449.6,1690.7 1429.3,1690.8 1409.0,1692.0 1388.6,1694.4 1368.2,1697.7 1347.9,1702.2 1327.7,1707.6 1307.5,1714.1 1287.5,1721.5 1267.6,1729.8 1247.9,1739.0 1228.4,1749.1 1209.2,1759.9 1190.2,1771.4 1171.6,1783.6 1153.3,1796.3 1135.4,1809.6 1118.0,1823.3 1101.0,1837.3  A 522.500,522.500 0.00 0,1 1078.6,1809.0 L 1078.6,1809.0 1096.9,1795.9 1115.5,1783.3 1134.6,1771.0 1154.1,1759.3 1173.9,1748.1 1194.0,1737.5 1214.5,1727.7 1235.1,1718.5 1256.0,1710.2 1277.1,1702.7 1298.4,1696.0 1319.8,1690.3 1341.3,1685.4 1362.8,1681.6 1384.4,1678.7 1406.0,1676.8 1427.6,1676.0 1449.2,1676.1 1470.7,1677.3 1492.1,1679.6 1513.4,1682.8 1534.5,1687.1 1555.4,1692.4 1576.2,1698.7 1596.7,1706.0 1617.0,1714.2 1637.1,1723.4 1656.8,1733.4 1676.2,1744.3 1695.3,1756.0 1714.0,1768.5 1732.4,1781.7 1750.3,1795.6 1767.8,1810.1 1784.9,1825.1 1801.6,1840.6 1817.7,1856.5 1833.4,1872.8 1848.5,1889.3  Z" style="stroke-width: 0.5;  stroke: rgb(0,0,0); fill: rgb(179,177,178);" />
<path d="M 1694.300,1014.970 A 522.500,522.500 0.00 0,1 1726.2,1029.0 L 1726.2,1029.0 1717.0,1047.7 1707.4,1066.1 1697.5,1084.2 1687.2,1101.8 1676.6,1118.9 1665.6,1135.3 1654.4,1150.9 1642.9,1165.7 1631.2,1179.5 1619.3,1192.4 1607.1,1204.1 1594.8,1214.7 1582.3,1224.1 1569.6,1232.3 1556.9,1239.2 1544.0,1244.8 1531.1,1249.0 1518.1,1251.8 1505.0,1253.3 1491.9,1253.4 1478.9,1252.1 1465.8,1249.4 1452.8,1245.3 1439.9,1239.9 1427.0,1233.2 1414.3,1225.2 1401.7,1215.9 1389.2,1205.5 1376.9,1193.9 1364.8,1181.2 1352.9,1167.5 1341.3,1152.9 1329.9,1137.4 1318.7,1121.1 1307.9,1104.2 1297.4,1086.7 1287.2,1068.7 1277.4,1050.4 1268.0,1031.8  A 522.500,522.500 0.00 0,1 1299.1,1017.6 L 1299.1,1017.6 1307.2,1036.6 1315.7,1055.3 1324.4,1073.7 1333.5,1091.7 1342.8,1109.1 1352.4,1125.8 1362.3,1141.7 1372.4,1156.7 1382.6,1170.8 1393.1,1183.8 1403.7,1195.8 1414.5,1206.5 1425.4,1216.1 1436.5,1224.3 1447.6,1231.3 1458.8,1236.8 1470.0,1241.0 1481.3,1243.8 1492.6,1245.1 1503.9,1245.1 1515.2,1243.6 1526.5,1240.6 1537.6,1236.3 1548.8,1230.6 1559.8,1223.5 1570.7,1215.1 1581.5,1205.4 1592.1,1194.5 1602.6,1182.4 1612.9,1169.2 1623.0,1155.0 1632.9,1139.8 1642.5,1123.8 1651.9,1107.0 1661.0,1089.5 1669.8,1071.4 1678.3,1052.9 1686.5,1034.0 1694.3,1015.0  Z" style="stroke-width: 0.5;  stroke: rgb(0,0,0); fill: rgb(179,177,178);" />
<path d="M 1840.476,1103.664 A 522.500,522.500 0.00 0,1 1865.2,1126.4 L 1865.2,1126.4 1849.6,1142.0 1833.5,1157.3 1816.9,1172.2 1799.9,1186.7 1782.5,1200.6 1764.7,1213.9 1746.5,1226.5 1728.0,1238.4 1709.3,1249.5 1690.2,1259.7 1670.9,1269.1 1651.3,1277.5 1631.6,1284.9 1611.7,1291.4 1591.7,1296.8 1571.5,1301.1 1551.3,1304.4 1530.9,1306.5 1510.6,1307.6 1490.2,1307.6 1469.9,1306.4 1449.6,1304.2 1429.4,1300.8 1409.2,1296.4 1389.2,1290.9 1369.3,1284.4 1349.6,1276.9 1330.1,1268.4 1310.9,1258.9 1291.8,1248.6 1273.1,1237.4 1254.7,1225.4 1236.6,1212.7 1218.8,1199.4 1201.5,1185.4 1184.5,1170.8 1168.0,1155.8 1151.9,1140.5 1136.4,1124.8  A 522.500,522.500 0.00 0,1 1161.2,1102.3 L 1161.2,1102.3 1175.5,1118.7 1190.3,1134.8 1205.6,1150.5 1221.3,1165.8 1237.4,1180.6 1253.9,1194.7 1270.7,1208.1 1287.9,1220.7 1305.3,1232.5 1323.1,1243.4 1341.1,1253.4 1359.3,1262.4 1377.7,1270.3 1396.3,1277.2 1415.0,1283.0 1433.9,1287.7 1452.8,1291.3 1471.8,1293.7 1490.9,1294.9 1510.0,1294.9 1529.0,1293.8 1548.0,1291.5 1567.0,1288.0 1585.9,1283.4 1604.6,1277.7 1623.3,1270.9 1641.7,1263.0 1660.0,1254.1 1678.0,1244.2 1695.8,1233.3 1713.3,1221.6 1730.5,1209.0 1747.4,1195.7 1763.9,1181.6 1780.1,1167.0 1795.9,1151.8 1811.2,1136.1 1826.1,1120.0 1840.5,1103.7  Z" style="stroke-width: 0.5;  stroke: rgb(0,0,0); fill: rgb(179,177,178);" />
<path d="M 1819.931,1086.901 A 522.500,522.500 0.00 0,1 1826.9,1092.4 L 1826.9,1092.4 1813.1,1109.1 1798.9,1125.6 1784.2,1141.7 1769.1,1157.3 1753.5,1172.4 1737.6,1186.9 1721.3,1200.6 1704.7,1213.6 1687.8,1225.7 1670.6,1236.9 1653.2,1247.2 1635.5,1256.5 1617.6,1264.7 1599.6,1271.8 1581.4,1277.9 1563.1,1282.7 1544.6,1286.5 1526.1,1289.0 1507.6,1290.3 1489.0,1290.5 1470.5,1289.5 1451.9,1287.2 1433.4,1283.8 1415.0,1279.2 1396.7,1273.5 1378.6,1266.6 1360.6,1258.7 1342.7,1249.7 1325.1,1239.7 1307.8,1228.8 1290.7,1216.9 1273.9,1204.2 1257.4,1190.8 1241.2,1176.6 1225.4,1161.7 1210.1,1146.4 1195.1,1130.5 1180.6,1114.3 1166.5,1097.7  A 522.500,522.500 0.00 0,1 1173.1,1092.4 L 1173.1,1092.4 1186.8,1109.1 1201.0,1125.5 1215.6,1141.5 1230.7,1157.1 1246.1,1172.1 1262.0,1186.5 1278.1,1200.1 1294.6,1212.9 1311.4,1224.9 1328.4,1236.0 1345.6,1246.1 1363.1,1255.2 1380.8,1263.3 1398.6,1270.2 1416.5,1276.0 1434.6,1280.6 1452.7,1284.1 1470.9,1286.4 1489.1,1287.4 1507.3,1287.3 1525.5,1285.9 1543.6,1283.3 1561.7,1279.6 1579.7,1274.6 1597.5,1268.5 1615.2,1261.3 1632.7,1252.9 1650.0,1243.5 1667.1,1233.1 1683.9,1221.8 1700.5,1209.5 1716.7,1196.4 1732.7,1182.4 1748.2,1167.8 1763.4,1152.6 1778.2,1136.8 1792.6,1120.5 1806.5,1103.8 1819.9,1086.9  Z" style="stroke-width: 0.5;  stroke: rgb(0,0,0); fill: rgb(179,177,178);" />
</g>
<g id="plot0">
<g id="plot0-axis">
</g>
<line x1='2243.8' y1='1596.3' x2='2243.8' y2='1596.3' style="stroke-width:14.0;stroke:rgb(0,0,0);stroke-linecap:round;fill:none;" />
<line x1='2243.8' y1='1596.3' x2='2283.5' y2='1601.4' style="stroke-width:14.0;stroke:rgb(0,0,0);stroke-linecap:round;fill:none;" />
<line x1='2283.5' y1='1601.4' x2='2283.5' y2='1601.4' style="stroke-width:14.0;stroke:rgb(0,0,0);stroke-linecap:round;fill:none;" />
<text x="2300.2" y="1625.8" font-size="46.8px" font-family="CMUBright-Roman" style="text-anchor:start;fill:rgb(255,38,78);" transform="rotate(7.4,2300.2,1625.8)" >HistocapES285Z<tspan baseline-shift="-40%" font-size="90%">s</tspan>00673</text>
</g>
<defs>
<pattern id="checker" width="10" height="10" patternTransform="rotate(45 0 0)" patternUnits="userSpaceOnUse"><line x1="0" y1="0" x2="10" y2="0" style="stroke:black;stroke-width:2" /><line x1="0" y1="0" x2="0" y2="10" style="stroke:black;stroke-width:2" /></pattern>
<pattern id="hline-sparse" width="10" height="10" patternTransform="rotate(0 0 0)" patternUnits="userSpaceOnUse"><line x1="0" y1="0" x2="10" y2="0" style="stroke:black;stroke-width:2" /></pattern>
<pattern id="hline" width="10" height="10" patternTransform="rotate(0 0 0)" patternUnits="userSpaceOnUse"><line x1="0" y1="0" x2="10" y2="0" style="stroke:black;stroke-width:5" /></pattern>
<pattern id="vline-sparse" width="10" height="10" patternTransform="rotate(0 0 0)" patternUnits="userSpaceOnUse"><line x1="0" y1="0" x2="0" y2="10" style="stroke:black;stroke-width:2" /></pattern>
<pattern id="vline" width="10" height="10" patternTransform="rotate(0 0 0)" patternUnits="userSpaceOnUse"><line x1="0" y1="0" x2="0" y2="10" style="stroke:black;stroke-width:5" /></pattern>
<pattern id="checker" width="10" height="10" patternTransform="rotate(45 0 0)" patternUnits="userSpaceOnUse"><line x1="0" y1="0" x2="10" y2="0" style="stroke:black;stroke-width:5" /><line x1="0" y1="0" x2="0" y2="10" style="stroke:black;stroke-width:4" /></pattern>
</defs>
</svg>
