<?xml version="1.0" encoding="utf-8" standalone="no"?>
<!DOCTYPE svg PUBLIC "-//W3C//DTD SVG 1.1//EN" "http://www.w3.org/Graphics/SVG/1.1/DTD/svg11.dtd">
<svg width="3000px" height="3000px" version="1.1" xmlns="http://www.w3.org/2000/svg" xmlns:xlink="http://www.w3.org/1999/xlink">
<g id="bg">
<rect x="0" y="0" width="3000px" height="3000px" style="fill:rgb(255,255,255);"/>
</g>
<g id="ideograms">
<path d="M1500.000,950.000 A550.000,550.000 40.000 0,1 1702.259,2011.460 L1775.807,2197.446 A750.000,750.000 0.000 0,0 1500.000,750.000 Z" style="stroke-width:2.0;stroke:rgb(0,0,0);stroke-linecap:round;fill:rgb(179,177,178);" />
<text x="2457.8" y="1317.5" font-size="46.8px" font-family="CMUBright-Roman" style="text-anchor:middle;fill:rgb(0,0,0);" transform="rotate(439.2,2457.8,1317.5)" >HistomissSECH87<tspan baseline-shift="-40%" font-size="90%">4</tspan></text>
<line x1='1517.9' y1='750.2' x2='1518.2' y2='738.2' style="stroke-width:8.0;stroke:rgb(150,150,150);stroke-linecap:round;fill:none;" />
<line x1='1618.8' y1='759.5' x2='1620.7' y2='747.6' style="stroke-width:8.0;stroke:rgb(150,150,150);stroke-linecap:round;fill:none;" />
<line x1='1717.6' y1='782.3' x2='1721.1' y2='770.8' style="stroke-width:8.0;stroke:rgb(150,150,150);stroke-linecap:round;fill:none;" />
<line x1='1812.4' y1='818.1' x2='1817.4' y2='807.2' style="stroke-width:8.0;stroke:rgb(150,150,150);stroke-linecap:round;fill:none;" />
<text x="1835.0" y="802.3" font-size="41.6px" font-family="CMUBright-Roman" style="text-anchor:start;fill:rgb(150,150,150);" transform="rotate(294.6,1835.0,802.3)" >2700 kb</text>
<line x1='1901.4' y1='866.5' x2='1907.9' y2='856.3' style="stroke-width:8.0;stroke:rgb(150,150,150);stroke-linecap:round;fill:none;" />
<line x1='1983.2' y1='926.4' x2='1990.9' y2='917.2' style="stroke-width:8.0;stroke:rgb(150,150,150);stroke-linecap:round;fill:none;" />
<line x1='2056.1' y1='996.8' x2='2065.0' y2='988.7' style="stroke-width:8.0;stroke:rgb(150,150,150);stroke-linecap:round;fill:none;" />
<line x1='2118.9' y1='1076.3' x2='2128.8' y2='1069.5' style="stroke-width:8.0;stroke:rgb(150,150,150);stroke-linecap:round;fill:none;" />
<line x1='2170.3' y1='1163.6' x2='2181.1' y2='1158.2' style="stroke-width:8.0;stroke:rgb(150,150,150);stroke-linecap:round;fill:none;" />
<text x="2197.9" y="1165.4" font-size="41.6px" font-family="CMUBright-Roman" style="text-anchor:start;fill:rgb(150,150,150);" transform="rotate(333.4,2197.9,1165.4)" >2750 kb</text>
<line x1='2209.6' y1='1257.1' x2='2220.9' y2='1253.2' style="stroke-width:8.0;stroke:rgb(150,150,150);stroke-linecap:round;fill:none;" />
<line x1='2235.8' y1='1354.9' x2='2247.6' y2='1352.6' style="stroke-width:8.0;stroke:rgb(150,150,150);stroke-linecap:round;fill:none;" />
<line x1='2248.7' y1='1455.5' x2='2260.7' y2='1454.7' style="stroke-width:8.0;stroke:rgb(150,150,150);stroke-linecap:round;fill:none;" />
<line x1='2247.8' y1='1556.8' x2='2259.8' y2='1557.7' style="stroke-width:8.0;stroke:rgb(150,150,150);stroke-linecap:round;fill:none;" />
<line x1='2233.4' y1='1657.1' x2='2245.1' y2='1659.6' style="stroke-width:8.0;stroke:rgb(150,150,150);stroke-linecap:round;fill:none;" />
<text x="2253.8" y="1675.8" font-size="41.6px" font-family="CMUBright-Roman" style="text-anchor:start;fill:rgb(150,150,150);" transform="rotate(12.1,2253.8,1675.8)" >2800 kb</text>
<line x1='2205.5' y1='1754.5' x2='2216.8' y2='1758.6' style="stroke-width:8.0;stroke:rgb(150,150,150);stroke-linecap:round;fill:none;" />
<line x1='2164.7' y1='1847.3' x2='2175.4' y2='1852.9' style="stroke-width:8.0;stroke:rgb(150,150,150);stroke-linecap:round;fill:none;" />
<line x1='2111.8' y1='1933.8' x2='2121.6' y2='1940.7' style="stroke-width:8.0;stroke:rgb(150,150,150);stroke-linecap:round;fill:none;" />
<line x1='2047.8' y1='2012.3' x2='2056.5' y2='2020.5' style="stroke-width:8.0;stroke:rgb(150,150,150);stroke-linecap:round;fill:none;" />
<line x1='1973.7' y1='2081.5' x2='1981.3' y2='2090.8' style="stroke-width:8.0;stroke:rgb(150,150,150);stroke-linecap:round;fill:none;" />
<text x="1977.9" y="2108.8" font-size="41.6px" font-family="CMUBright-Roman" style="text-anchor:start;fill:rgb(150,150,150);" transform="rotate(50.8,1977.9,2108.8)" >2850 kb</text>
<line x1='1891.0' y1='2140.0' x2='1897.3' y2='2150.3' style="stroke-width:8.0;stroke:rgb(150,150,150);stroke-linecap:round;fill:none;" />
<line x1='1801.2' y1='2186.9' x2='1806.0' y2='2197.9' style="stroke-width:8.0;stroke:rgb(150,150,150);stroke-linecap:round;fill:none;" />
<g id="highlighttrack_0">
<path d="M2036.917,1380.754 A550.000,550.000 40.000 0,1 2043.146,1413.443 L2240.654,1381.967 A750.000,750.000 0.000 0,0 2232.160,1337.391 Z" style="stroke-width:14.0;stroke:rgb(0,0,0);stroke-linecap:round;fill:rgb(255,38,78);" />
</g>
<path d="M1500.000,950.000 A550.000,550.000 40.000 0,1 1702.259,2011.460 L1775.807,2197.446 A750.000,750.000 0.000 0,0 1500.000,750.000 Z" style="stroke-width:2.0;stroke:rgb(0,0,0);stroke-linecap:round;fill:none;" />
<path d="M1484.001,2049.767 A550.000,550.000 40.000 0,1 1282.949,994.640 L1204.021,810.873 A750.000,750.000 0.000 0,0 1478.183,2249.683 Z" style="stroke-width:2.0;stroke:rgb(0,0,0);stroke-linecap:round;fill:rgb(179,177,178);" />
<text x="498.0" y="1690.9" font-size="46.8px" font-family="CMUBright-Roman" style="text-anchor:middle;fill:rgb(0,0,0);" transform="rotate(79.2,498.0,1690.9)" >HistocapCB065<tspan baseline-shift="-40%" font-size="90%">4</tspan></text>
<line x1='1162.5' y1='830.2' x2='1157.1' y2='819.5' style="stroke-width:8.0;stroke:rgb(150,150,150);stroke-linecap:round;fill:none;" />
<line x1='1075.3' y1='881.8' x2='1068.5' y2='872.0' style="stroke-width:8.0;stroke:rgb(150,150,150);stroke-linecap:round;fill:none;" />
<line x1='995.8' y1='944.7' x2='987.8' y2='935.9' style="stroke-width:8.0;stroke:rgb(150,150,150);stroke-linecap:round;fill:none;" />
<line x1='925.6' y1='1017.8' x2='916.4' y2='1010.1' style="stroke-width:8.0;stroke:rgb(150,150,150);stroke-linecap:round;fill:none;" />
<text x="898.3" y="1013.2" font-size="41.6px" font-family="CMUBright-Roman" style="text-anchor:end;fill:rgb(150,150,150);" transform="rotate(40.0,898.3,1013.2)" >2850 kb</text>
<line x1='865.8' y1='1099.6' x2='855.7' y2='1093.2' style="stroke-width:8.0;stroke:rgb(150,150,150);stroke-linecap:round;fill:none;" />
<line x1='817.6' y1='1188.8' x2='806.7' y2='1183.8' style="stroke-width:8.0;stroke:rgb(150,150,150);stroke-linecap:round;fill:none;" />
<line x1='781.9' y1='1283.6' x2='770.4' y2='1280.2' style="stroke-width:8.0;stroke:rgb(150,150,150);stroke-linecap:round;fill:none;" />
<line x1='759.3' y1='1382.4' x2='747.4' y2='1380.5' style="stroke-width:8.0;stroke:rgb(150,150,150);stroke-linecap:round;fill:none;" />
<line x1='750.2' y1='1483.3' x2='738.2' y2='1483.1' style="stroke-width:8.0;stroke:rgb(150,150,150);stroke-linecap:round;fill:none;" />
<text x="726.0" y="1496.8" font-size="41.6px" font-family="CMUBright-Roman" style="text-anchor:end;fill:rgb(150,150,150);" transform="rotate(1.3,726.0,1496.8)" >2900 kb</text>
<line x1='754.8' y1='1584.6' x2='742.9' y2='1585.9' style="stroke-width:8.0;stroke:rgb(150,150,150);stroke-linecap:round;fill:none;" />
<line x1='773.0' y1='1684.3' x2='761.4' y2='1687.2' style="stroke-width:8.0;stroke:rgb(150,150,150);stroke-linecap:round;fill:none;" />
<line x1='804.5' y1='1780.6' x2='793.3' y2='1785.1' style="stroke-width:8.0;stroke:rgb(150,150,150);stroke-linecap:round;fill:none;" />
<line x1='848.6' y1='1871.8' x2='838.2' y2='1877.7' style="stroke-width:8.0;stroke:rgb(150,150,150);stroke-linecap:round;fill:none;" />
<line x1='904.7' y1='1956.2' x2='895.2' y2='1963.5' style="stroke-width:8.0;stroke:rgb(150,150,150);stroke-linecap:round;fill:none;" />
<text x="894.3" y="1981.8" font-size="41.6px" font-family="CMUBright-Roman" style="text-anchor:end;fill:rgb(150,150,150);" transform="rotate(-37.5,894.3,1981.8)" >2950 kb</text>
<line x1='971.6' y1='2032.3' x2='963.2' y2='2040.8' style="stroke-width:8.0;stroke:rgb(150,150,150);stroke-linecap:round;fill:none;" />
<line x1='1048.2' y1='2098.7' x2='1041.0' y2='2108.2' style="stroke-width:8.0;stroke:rgb(150,150,150);stroke-linecap:round;fill:none;" />
<line x1='1133.1' y1='2154.1' x2='1127.2' y2='2164.6' style="stroke-width:8.0;stroke:rgb(150,150,150);stroke-linecap:round;fill:none;" />
<line x1='1224.6' y1='2197.6' x2='1220.2' y2='2208.8' style="stroke-width:8.0;stroke:rgb(150,150,150);stroke-linecap:round;fill:none;" />
<line x1='1321.2' y1='2228.4' x2='1318.3' y2='2240.0' style="stroke-width:8.0;stroke:rgb(150,150,150);stroke-linecap:round;fill:none;" />
<text x="1329.1" y="2254.9" font-size="41.6px" font-family="CMUBright-Roman" style="text-anchor:end;fill:rgb(150,150,150);" transform="rotate(-76.2,1329.1,2254.9)" >3000 kb</text>
<line x1='1421.0' y1='2245.8' x2='1419.7' y2='2257.8' style="stroke-width:8.0;stroke:rgb(150,150,150);stroke-linecap:round;fill:none;" />
<path d="M1484.001,2049.767 A550.000,550.000 40.000 0,1 1282.949,994.640 L1204.021,810.873 A750.000,750.000 0.000 0,0 1478.183,2249.683 Z" style="stroke-width:2.0;stroke:rgb(0,0,0);stroke-linecap:round;fill:none;" />
</g>
<g id="track_0">
<path d="M 1671.758,1006.537 A 522.500,522.500 0.00 0,1 1798.3,1071.1 L 1798.3,1071.1 1785.3,1089.4 1771.7,1107.5 1757.6,1125.3 1742.9,1142.9 1727.7,1160.0 1712.0,1176.6 1695.8,1192.7 1679.2,1208.2 1662.0,1223.1 1644.4,1237.2 1626.4,1250.7 1607.9,1263.3 1589.0,1275.1 1569.7,1286.0 1550.1,1296.0 1530.1,1305.1 1509.8,1313.3 1489.2,1320.5 1468.2,1326.8 1447.1,1332.0 1425.7,1336.3 1404.1,1339.5 1382.3,1341.8 1360.4,1343.1 1338.3,1343.4 1316.2,1342.8 1294.0,1341.2 1271.7,1338.6 1249.5,1335.2 1227.3,1330.9 1205.2,1325.8 1183.2,1319.9 1161.4,1313.3 1139.7,1305.9 1118.3,1297.9 1097.2,1289.2 1076.3,1280.0 1055.8,1270.4 1035.7,1260.3  A 522.500,522.500 0.00 0,1 1117.5,1144.1 L 1117.5,1144.1 1133.2,1158.4 1149.3,1172.3 1165.7,1185.8 1182.4,1198.7 1199.3,1211.0 1216.4,1222.6 1233.6,1233.3 1250.9,1243.2 1268.3,1252.2 1285.7,1260.2 1303.1,1267.1 1320.4,1272.9 1337.6,1277.6 1354.7,1281.2 1371.7,1283.5 1388.4,1284.6 1404.9,1284.5 1421.2,1283.1 1437.2,1280.5 1452.9,1276.6 1468.3,1271.4 1483.3,1265.1 1498.0,1257.4 1512.2,1248.6 1526.1,1238.6 1539.6,1227.5 1552.6,1215.3 1565.2,1202.1 1577.3,1187.8 1589.0,1172.6 1600.1,1156.6 1610.8,1139.7 1621.0,1122.1 1630.7,1103.9 1639.9,1085.2 1648.6,1065.9 1656.8,1046.4 1664.5,1026.5 1671.8,1006.5  Z" style="stroke-width: 0.5;  stroke: rgb(0,0,0); fill: rgb(179,177,178);" />
<path d="M 1554.608,980.361 A 522.500,522.500 0.00 0,1 1658.8,1002.2 L 1658.8,1002.2 1652.2,1022.3 1645.0,1042.2 1637.4,1061.9 1629.3,1081.2 1620.7,1100.1 1611.6,1118.4 1602.0,1136.1 1591.9,1153.0 1581.3,1169.1 1570.3,1184.4 1558.8,1198.6 1546.8,1211.9 1534.4,1224.1 1521.6,1235.2 1508.3,1245.2 1494.6,1254.0 1480.6,1261.5 1466.1,1267.8 1451.3,1272.9 1436.2,1276.6 1420.8,1279.1 1405.1,1280.3 1389.1,1280.3 1373.0,1279.0 1356.6,1276.4 1340.0,1272.6 1323.3,1267.7 1306.5,1261.6 1289.6,1254.4 1272.7,1246.1 1255.9,1236.8 1239.0,1226.6 1222.2,1215.6 1205.6,1203.7 1189.1,1191.1 1172.9,1177.8 1156.9,1164.0 1141.3,1149.8 1125.9,1135.2  A 522.500,522.500 0.00 0,1 1207.6,1067.0 L 1207.6,1067.0 1219.2,1083.9 1231.1,1100.5 1243.2,1116.7 1255.4,1132.5 1267.8,1147.6 1280.2,1162.0 1292.7,1175.6 1305.2,1188.2 1317.6,1199.9 1329.9,1210.5 1342.1,1220.1 1354.2,1228.4 1366.1,1235.4 1377.8,1241.2 1389.3,1245.7 1400.5,1248.8 1411.4,1250.5 1422.0,1250.9 1432.3,1249.8 1442.2,1247.3 1451.8,1243.4 1461.0,1238.2 1469.8,1231.5 1478.2,1223.5 1486.3,1214.2 1493.9,1203.6 1501.0,1191.7 1507.8,1178.7 1514.1,1164.6 1520.0,1149.4 1525.5,1133.2 1530.5,1116.2 1535.2,1098.4 1539.4,1079.8 1543.2,1060.7 1546.6,1041.0 1549.6,1021.0 1552.3,1000.7 1554.6,980.4  Z" style="stroke-width: 0.5;  stroke: rgb(0,0,0); fill: rgb(179,177,178);" />
<path d="M 1500.000,977.500 A 522.500,522.500 0.00 0,1 1506.7,977.5 L 1506.7,977.5 1506.3,997.9 1505.6,1018.0 1504.6,1038.0 1503.4,1057.5 1501.7,1076.6 1499.8,1095.0 1497.4,1112.8 1494.7,1129.6 1491.6,1145.6 1488.1,1160.6 1484.2,1174.4 1479.9,1187.2 1475.2,1198.7 1470.1,1208.9 1464.6,1217.8 1458.7,1225.4 1452.4,1231.6 1445.7,1236.3 1438.6,1239.6 1431.2,1241.5 1423.3,1241.9 1415.2,1240.9 1406.7,1238.4 1397.9,1234.6 1388.9,1229.3 1379.5,1222.7 1369.9,1214.8 1360.2,1205.6 1350.2,1195.2 1340.0,1183.6 1329.8,1171.0 1319.4,1157.4 1309.0,1142.9 1298.5,1127.6 1288.1,1111.6 1277.7,1094.9 1267.5,1077.8 1257.3,1060.3 1247.4,1042.6  A 522.500,522.500 0.00 0,1 1293.8,1019.9 L 1293.8,1019.9 1301.9,1038.4 1310.1,1056.8 1318.5,1074.8 1326.9,1092.3 1335.3,1109.2 1343.8,1125.4 1352.3,1140.9 1360.7,1155.4 1369.0,1168.9 1377.2,1181.3 1385.3,1192.6 1393.2,1202.6 1400.9,1211.4 1408.5,1218.8 1415.7,1224.9 1422.8,1229.5 1429.6,1232.8 1436.1,1234.5 1442.4,1234.8 1448.3,1233.5 1453.9,1230.8 1459.2,1226.7 1464.2,1221.0 1468.8,1214.0 1473.2,1205.5 1477.1,1195.7 1480.8,1184.6 1484.1,1172.3 1487.1,1158.7 1489.7,1144.1 1492.0,1128.4 1494.0,1111.7 1495.7,1094.2 1497.1,1076.0 1498.2,1057.1 1499.0,1037.6 1499.6,1017.8 1499.9,997.7 1500.0,977.5  Z" style="stroke-width: 0.5;  stroke: rgb(0,0,0); fill: rgb(179,177,178);" />
<path d="M 2012.773,1600.348 A 522.500,522.500 0.00 0,1 1991.0,1678.8 L 1991.0,1678.8 1968.9,1671.0 1946.5,1663.6 1923.8,1656.7 1900.7,1650.3 1877.4,1644.4 1853.9,1639.0 1830.2,1634.3 1806.3,1630.1 1782.3,1626.7 1758.1,1624.0 1733.9,1621.9 1709.6,1620.6 1685.3,1620.1 1661.0,1620.3 1636.8,1621.3 1612.6,1623.1 1588.5,1625.7 1564.5,1629.1 1540.6,1633.3 1516.9,1638.4 1493.3,1644.2 1470.0,1650.8 1446.9,1658.1 1424.0,1666.3 1401.4,1675.2 1379.1,1684.8 1357.1,1695.1 1335.5,1706.1 1314.1,1717.8 1293.2,1730.1 1272.6,1743.0 1252.4,1756.4 1232.6,1770.4 1213.3,1784.8 1194.4,1799.6 1175.9,1814.8 1157.9,1830.4 1140.4,1846.2 1123.4,1862.2  A 522.500,522.500 0.00 0,1 1071.8,1799.4 L 1071.8,1799.4 1091.8,1785.6 1112.2,1772.1 1133.0,1758.7 1154.2,1745.7 1175.8,1732.9 1197.7,1720.5 1219.9,1708.5 1242.5,1696.9 1265.4,1685.7 1288.6,1674.9 1312.1,1664.6 1335.8,1654.8 1359.8,1645.5 1384.0,1636.8 1408.5,1628.6 1433.2,1620.9 1458.0,1613.8 1483.0,1607.3 1508.2,1601.3 1533.5,1596.0 1558.9,1591.2 1584.5,1587.0 1610.1,1583.5 1635.7,1580.5 1661.4,1578.1 1687.1,1576.3 1712.8,1575.1 1738.5,1574.4 1764.1,1574.3 1789.7,1574.8 1815.2,1575.8 1840.5,1577.3 1865.7,1579.2 1890.8,1581.7 1915.6,1584.6 1940.3,1588.0 1964.7,1591.7 1988.9,1595.9 2012.8,1600.3  Z" style="stroke-width: 0.5;  stroke: rgb(0,0,0); fill: rgb(179,177,178);" />
<path d="M 2021.920,1524.602 A 522.500,522.500 0.00 0,1 2012.9,1599.6 L 2012.9,1599.6 1988.8,1595.1 1964.4,1591.0 1939.8,1587.1 1915.0,1583.7 1889.9,1580.6 1864.6,1577.9 1839.2,1575.7 1813.7,1574.0 1788.0,1572.7 1762.2,1571.9 1736.3,1571.6 1710.4,1571.8 1684.4,1572.5 1658.4,1573.7 1632.4,1575.5 1606.4,1577.9 1580.5,1580.7 1554.6,1584.2 1528.7,1588.1 1503.0,1592.6 1477.3,1597.7 1451.8,1603.3 1426.4,1609.4 1401.2,1616.1 1376.1,1623.2 1351.2,1630.9 1326.6,1639.1 1302.1,1647.7 1277.9,1656.8 1253.9,1666.3 1230.2,1676.3 1206.8,1686.6 1183.6,1697.3 1160.8,1708.4 1138.3,1719.8 1116.1,1731.6 1094.2,1743.5 1072.7,1755.8 1051.6,1768.2  A 522.500,522.500 0.00 0,1 1017.6,1700.7 L 1017.6,1700.7 1041.1,1691.0 1064.8,1681.5 1088.8,1672.2 1113.0,1663.0 1137.4,1654.1 1162.0,1645.4 1186.8,1636.9 1211.8,1628.6 1237.0,1620.6 1262.4,1612.9 1287.9,1605.4 1313.5,1598.3 1339.3,1591.4 1365.2,1584.8 1391.2,1578.5 1417.4,1572.6 1443.6,1567.0 1469.9,1561.7 1496.3,1556.7 1522.8,1552.1 1549.3,1547.8 1575.8,1543.8 1602.4,1540.2 1629.0,1536.9 1655.6,1533.9 1682.2,1531.3 1708.8,1529.0 1735.4,1527.0 1761.9,1525.3 1788.3,1524.0 1814.7,1522.9 1841.0,1522.2 1867.3,1521.7 1893.4,1521.6 1919.4,1521.7 1945.2,1522.0 1971.0,1522.7 1996.5,1523.5 2021.9,1524.6  Z" style="stroke-width: 0.5;  stroke: rgb(0,0,0); fill: rgb(179,177,178);" />
<path d="M 1838.932,1897.657 A 522.500,522.500 0.00 0,1 1778.2,1942.3 L 1778.2,1942.3 1767.2,1925.0 1756.0,1908.1 1744.5,1891.5 1732.9,1875.4 1721.2,1860.0 1709.5,1845.2 1697.7,1831.3 1685.9,1818.3 1674.2,1806.2 1662.6,1795.2 1651.1,1785.4 1639.8,1776.8 1628.6,1769.4 1617.7,1763.3 1607.0,1758.5 1596.6,1755.1 1586.4,1753.1 1576.6,1752.5 1567.0,1753.3 1557.9,1755.6 1549.0,1759.3 1540.6,1764.3 1532.5,1770.8 1524.8,1778.7 1517.5,1787.8 1510.7,1798.3 1504.2,1810.0 1498.2,1822.9 1492.5,1837.0 1487.3,1852.1 1482.5,1868.2 1478.1,1885.2 1474.1,1903.0 1470.5,1921.5 1467.3,1940.6 1464.5,1960.2 1462.0,1980.2 1459.9,2000.5 1458.1,2020.8  A 522.500,522.500 0.00 0,1 1383.7,2009.4 L 1383.7,2009.4 1388.5,1989.1 1393.8,1969.0 1399.5,1949.1 1405.7,1929.6 1412.3,1910.5 1419.4,1892.0 1426.9,1874.2 1435.0,1857.2 1443.4,1841.0 1452.3,1825.8 1461.7,1811.5 1471.5,1798.3 1481.8,1786.2 1492.5,1775.3 1503.6,1765.6 1515.1,1757.2 1527.0,1750.1 1539.3,1744.2 1551.9,1739.7 1564.9,1736.5 1578.2,1734.7 1591.8,1734.2 1605.7,1735.0 1619.8,1737.1 1634.1,1740.6 1648.6,1745.3 1663.3,1751.3 1678.1,1758.4 1693.0,1766.7 1708.0,1776.1 1723.0,1786.5 1738.0,1797.9 1752.9,1810.2 1767.8,1823.3 1782.5,1837.1 1797.0,1851.5 1811.2,1866.5 1825.3,1881.9 1838.9,1897.7  Z" style="stroke-width: 0.5;  stroke: rgb(0,0,0); fill: rgb(179,177,178);" />
<path d="M 1989.144,1316.304 A 522.500,522.500 0.00 0,1 2010.1,1386.7 L 2010.1,1386.7 1984.0,1392.5 1957.9,1398.3 1931.8,1404.0 1905.7,1409.8 1879.6,1415.5 1853.4,1421.2 1827.3,1426.9 1801.1,1432.5 1774.9,1438.2 1748.7,1443.8 1722.5,1449.4 1696.2,1455.0 1670.0,1460.6 1643.7,1466.1 1617.5,1471.7 1591.2,1477.2 1564.9,1482.6 1538.7,1488.1 1512.4,1493.5 1486.1,1498.9 1459.8,1504.3 1433.5,1509.7 1407.2,1515.0 1380.9,1520.3 1354.6,1525.6 1328.2,1530.9 1301.9,1536.1 1275.6,1541.3 1249.3,1546.5 1223.0,1551.7 1196.7,1556.8 1170.4,1562.0 1144.2,1567.1 1117.9,1572.1 1091.6,1577.2 1065.3,1582.2 1039.1,1587.2 1012.9,1592.2 986.6,1597.2  A 522.500,522.500 0.00 0,1 978.1,1524.2 L 978.1,1524.2 1003.8,1522.9 1029.8,1521.5 1055.8,1519.9 1081.9,1518.0 1108.1,1516.0 1134.3,1513.8 1160.7,1511.4 1187.1,1508.7 1213.6,1505.9 1240.1,1502.8 1266.6,1499.5 1293.1,1495.9 1319.7,1492.2 1346.3,1488.1 1372.9,1483.9 1399.4,1479.4 1425.9,1474.7 1452.5,1469.7 1478.9,1464.5 1505.4,1459.1 1531.7,1453.4 1558.1,1447.5 1584.3,1441.4 1610.5,1435.0 1636.6,1428.5 1662.6,1421.7 1688.5,1414.6 1714.3,1407.4 1740.0,1400.0 1765.5,1392.4 1791.0,1384.6 1816.3,1376.6 1841.4,1368.4 1866.4,1360.1 1891.3,1351.6 1916.0,1343.0 1940.6,1334.2 1964.9,1325.3 1989.1,1316.3  Z" style="stroke-width: 0.5;  stroke: rgb(0,0,0); fill: rgb(179,177,178);" />
<path d="M 1945.681,1227.283 A 522.500,522.500 0.00 0,1 1978.7,1290.6 L 1978.7,1290.6 1955.4,1300.7 1931.9,1310.6 1908.1,1320.3 1884.1,1329.9 1859.8,1339.2 1835.4,1348.4 1810.7,1357.3 1785.9,1365.9 1760.9,1374.3 1735.7,1382.4 1710.3,1390.3 1684.8,1397.8 1659.1,1405.1 1633.3,1412.1 1607.4,1418.7 1581.4,1425.0 1555.2,1431.0 1529.0,1436.6 1502.7,1441.9 1476.3,1446.9 1449.9,1451.6 1423.4,1455.8 1396.9,1459.8 1370.3,1463.4 1343.8,1466.7 1317.2,1469.6 1290.7,1472.2 1264.2,1474.4 1237.7,1476.4 1211.3,1478.0 1184.9,1479.3 1158.6,1480.3 1132.4,1480.9 1106.3,1481.3 1080.4,1481.5 1054.5,1481.3 1028.8,1480.9 1003.3,1480.2 977.9,1479.4  A 522.500,522.500 0.00 0,1 985.6,1408.2 L 985.6,1408.2 1009.8,1412.4 1034.3,1416.2 1058.9,1419.7 1083.9,1422.7 1109.0,1425.4 1134.3,1427.7 1159.8,1429.6 1185.4,1431.0 1211.1,1431.9 1236.9,1432.3 1262.8,1432.3 1288.7,1431.7 1314.7,1430.6 1340.7,1429.0 1366.7,1426.9 1392.7,1424.2 1418.6,1421.0 1444.5,1417.2 1470.3,1412.9 1496.0,1408.0 1521.6,1402.7 1547.0,1396.7 1572.4,1390.3 1597.5,1383.3 1622.5,1375.9 1647.3,1367.9 1671.9,1359.5 1696.3,1350.6 1720.4,1341.2 1744.3,1331.4 1767.9,1321.2 1791.3,1310.5 1814.3,1299.6 1837.0,1288.2 1859.5,1276.6 1881.5,1264.6 1903.3,1252.4 1924.7,1239.9 1945.7,1227.3  Z" style="stroke-width: 0.5;  stroke: rgb(0,0,0); fill: rgb(179,177,178);" />
<path d="M 2015.989,1417.771 A 522.500,522.500 0.00 0,1 2022.3,1486.1 L 2022.3,1486.1 1996.4,1486.8 1970.5,1487.8 1944.4,1488.9 1918.2,1490.1 1891.9,1491.6 1865.6,1493.2 1839.1,1495.1 1812.7,1497.1 1786.1,1499.3 1759.5,1501.8 1732.9,1504.5 1706.3,1507.3 1679.6,1510.4 1652.9,1513.8 1626.2,1517.3 1599.6,1521.1 1572.9,1525.1 1546.2,1529.3 1519.6,1533.7 1493.0,1538.4 1466.5,1543.3 1440.0,1548.4 1413.6,1553.7 1387.2,1559.3 1360.9,1565.0 1334.7,1571.0 1308.6,1577.2 1282.5,1583.5 1256.6,1590.1 1230.8,1596.8 1205.0,1603.7 1179.4,1610.9 1154.0,1618.1 1128.6,1625.5 1103.4,1633.1 1078.4,1640.8 1053.5,1648.7 1028.7,1656.7 1004.2,1664.8  A 522.500,522.500 0.00 0,1 986.8,1598.4 L 986.8,1598.4 1013.1,1593.4 1039.3,1588.4 1065.6,1583.4 1091.8,1578.4 1118.1,1573.4 1144.4,1568.5 1170.8,1563.6 1197.1,1558.7 1223.4,1553.8 1249.8,1548.9 1276.2,1544.1 1302.5,1539.3 1328.9,1534.5 1355.3,1529.7 1381.7,1524.9 1408.2,1520.2 1434.6,1515.5 1461.0,1510.8 1487.4,1506.1 1513.9,1501.5 1540.3,1496.9 1566.8,1492.3 1593.2,1487.7 1619.7,1483.2 1646.1,1478.6 1672.6,1474.1 1699.0,1469.7 1725.5,1465.2 1751.9,1460.8 1778.4,1456.4 1804.8,1452.0 1831.2,1447.7 1857.6,1443.3 1884.1,1439.0 1910.5,1434.7 1936.9,1430.5 1963.2,1426.2 1989.6,1422.0 2016.0,1417.8  Z" style="stroke-width: 0.5;  stroke: rgb(0,0,0); fill: rgb(179,177,178);" />
<path d="M 1971.141,1725.903 A 522.500,522.500 0.00 0,1 1945.4,1773.2 L 1945.4,1773.2 1926.3,1761.8 1906.7,1750.7 1886.8,1740.2 1866.5,1730.2 1846.0,1720.8 1825.2,1712.0 1804.2,1704.0 1783.1,1696.7 1761.7,1690.3 1740.3,1684.7 1718.9,1680.1 1697.3,1676.3 1675.8,1673.5 1654.4,1671.7 1632.9,1670.9 1611.6,1671.1 1590.4,1672.4 1569.4,1674.7 1548.6,1678.0 1527.9,1682.4 1507.5,1687.8 1487.3,1694.3 1467.5,1701.7 1447.9,1710.2 1428.7,1719.6 1409.8,1730.0 1391.2,1741.2 1373.1,1753.4 1355.4,1766.4 1338.1,1780.2 1321.2,1794.7 1304.8,1810.0 1288.9,1825.8 1273.4,1842.2 1258.5,1859.2 1244.1,1876.6 1230.1,1894.3 1216.8,1912.3 1203.9,1930.5  A 522.500,522.500 0.00 0,1 1161.2,1897.8 L 1161.2,1897.8 1176.2,1880.6 1191.7,1863.6 1207.7,1846.8 1224.3,1830.5 1241.3,1814.5 1258.8,1799.0 1276.8,1784.0 1295.2,1769.6 1314.1,1755.9 1333.3,1742.8 1353.0,1730.4 1373.1,1718.7 1393.5,1707.9 1414.2,1697.8 1435.3,1688.6 1456.7,1680.3 1478.3,1672.8 1500.2,1666.2 1522.4,1660.5 1544.7,1655.8 1567.3,1652.0 1590.0,1649.1 1612.8,1647.1 1635.7,1646.1 1658.7,1645.9 1681.8,1646.7 1704.8,1648.3 1727.9,1650.8 1750.9,1654.2 1773.8,1658.3 1796.6,1663.3 1819.3,1668.9 1841.8,1675.3 1864.1,1682.4 1886.2,1690.0 1907.9,1698.3 1929.4,1707.0 1950.5,1716.3 1971.1,1725.9  Z" style="stroke-width: 0.5;  stroke: rgb(0,0,0); fill: rgb(179,177,178);" />
<path d="M 1941.479,1779.468 A 522.500,522.500 0.00 0,1 1914.5,1818.2 L 1914.5,1818.2 1897.0,1805.1 1879.2,1792.4 1861.0,1780.2 1842.4,1768.6 1823.6,1757.5 1804.5,1747.2 1785.3,1737.6 1765.9,1728.8 1746.3,1720.9 1726.7,1714.0 1707.0,1708.0 1687.4,1703.0 1667.7,1699.1 1648.1,1696.2 1628.6,1694.5 1609.2,1693.9 1589.9,1694.4 1570.8,1696.0 1552.0,1698.8 1533.3,1702.8 1515.0,1707.9 1496.9,1714.1 1479.1,1721.5 1461.6,1730.0 1444.5,1739.5 1427.7,1750.1 1411.4,1761.6 1395.4,1774.2 1379.9,1787.7 1364.8,1802.0 1350.1,1817.2 1335.9,1833.1 1322.2,1849.6 1309.0,1866.8 1296.3,1884.6 1284.1,1902.8 1272.4,1921.3 1261.3,1940.2 1250.7,1959.2  A 522.500,522.500 0.00 0,1 1210.3,1934.8 L 1210.3,1934.8 1222.8,1916.5 1235.9,1898.3 1249.5,1880.5 1263.6,1863.0 1278.3,1845.9 1293.4,1829.4 1309.0,1813.4 1325.1,1798.1 1341.7,1783.4 1358.7,1769.5 1376.1,1756.5 1394.0,1744.2 1412.2,1732.9 1430.8,1722.5 1449.8,1713.0 1469.1,1704.6 1488.7,1697.1 1508.6,1690.7 1528.7,1685.3 1549.1,1681.0 1569.7,1677.7 1590.5,1675.5 1611.4,1674.3 1632.5,1674.2 1653.6,1675.2 1674.9,1677.1 1696.2,1680.0 1717.4,1684.0 1738.7,1688.8 1759.9,1694.6 1780.9,1701.2 1801.9,1708.7 1822.7,1716.9 1843.2,1725.9 1863.5,1735.5 1883.6,1745.8 1903.2,1756.6 1922.6,1767.8 1941.5,1779.5  Z" style="stroke-width: 0.5;  stroke: rgb(0,0,0); fill: rgb(179,177,178);" />
<path d="M 1886.147,1851.990 A 522.500,522.500 0.00 0,1 1853.5,1884.8 L 1853.5,1884.8 1839.0,1869.4 1824.2,1854.4 1809.1,1839.8 1793.7,1825.7 1778.1,1812.3 1762.2,1799.6 1746.2,1787.6 1730.2,1776.6 1714.0,1766.5 1697.8,1757.4 1681.6,1749.4 1665.4,1742.5 1649.3,1736.7 1633.3,1732.2 1617.4,1728.8 1601.7,1726.8 1586.1,1726.0 1570.8,1726.5 1555.7,1728.3 1540.9,1731.5 1526.4,1735.9 1512.1,1741.6 1498.2,1748.5 1484.7,1756.7 1471.5,1766.2 1458.7,1776.8 1446.2,1788.5 1434.2,1801.4 1422.6,1815.2 1411.4,1830.1 1400.7,1845.9 1390.4,1862.4 1380.6,1879.8 1371.2,1897.8 1362.3,1916.4 1353.9,1935.5 1345.9,1955.0 1338.4,1974.7 1331.4,1994.6  A 522.500,522.500 0.00 0,1 1288.2,1977.6 L 1288.2,1977.6 1297.1,1958.2 1306.5,1938.8 1316.5,1919.8 1326.9,1901.1 1337.8,1882.9 1349.2,1865.3 1361.1,1848.3 1373.5,1832.0 1386.3,1816.5 1399.6,1801.9 1413.3,1788.2 1427.4,1775.5 1442.0,1763.8 1456.9,1753.2 1472.3,1743.7 1487.9,1735.3 1503.9,1728.2 1520.3,1722.2 1536.9,1717.4 1553.8,1713.9 1570.9,1711.5 1588.2,1710.4 1605.8,1710.6 1623.5,1711.9 1641.3,1714.5 1659.3,1718.2 1677.3,1723.0 1695.4,1728.9 1713.4,1736.0 1731.5,1744.0 1749.5,1753.0 1767.3,1762.9 1785.1,1773.7 1802.6,1785.3 1819.9,1797.5 1837.0,1810.4 1853.7,1823.9 1870.1,1837.7 1886.1,1852.0  Z" style="stroke-width: 0.5;  stroke: rgb(0,0,0); fill: rgb(179,177,178);" />
<path d="M 1798.431,1071.111 A 522.500,522.500 0.00 0,1 1834.0,1098.2 L 1834.0,1098.2 1819.0,1115.8 1803.5,1133.2 1787.5,1150.4 1771.0,1167.4 1753.9,1183.9 1736.4,1200.0 1718.4,1215.7 1700.0,1230.9 1681.1,1245.5 1661.7,1259.5 1642.0,1272.9 1621.8,1285.6 1601.2,1297.6 1580.3,1308.9 1559.0,1319.4 1537.4,1329.1 1515.4,1338.1 1493.2,1346.2 1470.7,1353.5 1447.9,1360.0 1424.9,1365.6 1401.7,1370.4 1378.3,1374.4 1354.8,1377.4 1331.2,1379.7 1307.4,1381.1 1283.6,1381.7 1259.8,1381.5 1235.9,1380.6 1212.1,1378.8 1188.3,1376.3 1164.7,1373.1 1141.1,1369.3 1117.8,1364.8 1094.6,1359.6 1071.6,1354.0 1049.0,1347.7 1026.6,1341.1 1004.6,1333.9  A 522.500,522.500 0.00 0,1 1020.6,1292.2 L 1020.6,1292.2 1041.5,1301.0 1062.7,1309.4 1084.3,1317.2 1106.2,1324.5 1128.4,1331.2 1150.7,1337.2 1173.2,1342.6 1195.9,1347.2 1218.6,1351.0 1241.4,1354.1 1264.2,1356.3 1286.9,1357.6 1309.7,1358.0 1332.3,1357.5 1354.8,1356.1 1377.2,1353.8 1399.4,1350.5 1421.4,1346.3 1443.2,1341.1 1464.7,1335.0 1486.0,1328.0 1506.9,1320.0 1527.5,1311.1 1547.8,1301.3 1567.7,1290.6 1587.2,1279.1 1606.3,1266.8 1625.0,1253.7 1643.2,1239.8 1661.0,1225.3 1678.3,1210.1 1695.1,1194.2 1711.4,1177.8 1727.2,1160.9 1742.6,1143.6 1757.3,1125.9 1771.6,1107.8 1785.3,1089.6 1798.4,1071.1  Z" style="stroke-width: 0.5;  stroke: rgb(0,0,0); fill: rgb(179,177,178);" />
<path d="M 1913.767,1819.066 A 522.500,522.500 0.00 0,1 1889.0,1848.9 L 1889.0,1848.9 1872.8,1834.7 1856.3,1821.0 1839.4,1807.6 1822.2,1794.9 1804.8,1782.7 1787.1,1771.3 1769.2,1760.6 1751.2,1750.8 1733.1,1741.9 1714.9,1734.0 1696.7,1727.1 1678.6,1721.3 1660.4,1716.5 1642.3,1712.9 1624.4,1710.5 1606.5,1709.2 1588.9,1709.2 1571.4,1710.4 1554.2,1712.8 1537.2,1716.4 1520.4,1721.2 1504.0,1727.3 1487.9,1734.5 1472.1,1742.9 1456.7,1752.4 1441.6,1763.1 1427.0,1774.8 1412.8,1787.5 1398.9,1801.3 1385.6,1815.9 1372.7,1831.4 1360.2,1847.7 1348.2,1864.7 1336.7,1882.3 1325.7,1900.5 1315.2,1919.2 1305.2,1938.2 1295.7,1957.5 1286.7,1977.0  A 522.500,522.500 0.00 0,1 1252.1,1959.9 L 1252.1,1959.9 1262.6,1940.9 1273.7,1922.0 1285.3,1903.5 1297.5,1885.2 1310.1,1867.5 1323.3,1850.3 1336.9,1833.7 1351.0,1817.7 1365.6,1802.6 1380.6,1788.2 1396.1,1774.7 1412.0,1762.2 1428.3,1750.6 1445.0,1740.0 1462.0,1730.4 1479.5,1722.0 1497.2,1714.6 1515.2,1708.4 1533.6,1703.3 1552.1,1699.3 1571.0,1696.5 1590.0,1694.8 1609.2,1694.3 1628.5,1695.0 1648.0,1696.8 1667.5,1699.6 1687.2,1703.6 1706.8,1708.6 1726.4,1714.6 1746.0,1721.6 1765.5,1729.5 1784.9,1738.3 1804.1,1747.9 1823.1,1758.3 1841.9,1769.3 1860.4,1781.0 1878.6,1793.3 1896.4,1806.0 1913.8,1819.1  Z" style="stroke-width: 0.5;  stroke: rgb(0,0,0); fill: rgb(179,177,178);" />
<path d="M 1985.398,1693.379 A 522.500,522.500 0.00 0,1 1971.8,1724.6 L 1971.8,1724.6 1951.0,1715.0 1929.9,1705.8 1908.4,1697.1 1886.6,1688.9 1864.5,1681.3 1842.2,1674.3 1819.6,1668.0 1796.9,1662.3 1774.1,1657.4 1751.1,1653.3 1728.0,1650.0 1704.9,1647.5 1681.8,1645.9 1658.7,1645.2 1635.7,1645.3 1612.7,1646.4 1589.8,1648.4 1567.1,1651.3 1544.5,1655.1 1522.1,1659.8 1499.9,1665.5 1477.9,1672.0 1456.2,1679.5 1434.8,1687.8 1413.6,1697.0 1392.8,1707.0 1372.3,1717.9 1352.2,1729.5 1332.5,1741.8 1313.1,1754.9 1294.2,1768.6 1275.7,1783.0 1257.7,1797.9 1240.1,1813.4 1223.0,1829.3 1206.4,1845.6 1190.2,1862.3 1174.6,1879.2 1159.6,1896.4  A 522.500,522.500 0.00 0,1 1134.4,1873.3 L 1134.4,1873.3 1150.8,1856.9 1167.7,1840.7 1185.2,1824.8 1203.0,1809.2 1221.4,1794.0 1240.2,1779.3 1259.5,1765.0 1279.1,1751.3 1299.2,1738.1 1319.7,1725.6 1340.5,1713.7 1361.8,1702.5 1383.3,1692.0 1405.2,1682.2 1427.3,1673.2 1449.8,1665.0 1472.4,1657.6 1495.4,1651.0 1518.5,1645.2 1541.8,1640.3 1565.3,1636.2 1589.0,1632.9 1612.7,1630.5 1636.6,1628.9 1660.5,1628.2 1684.4,1628.3 1708.4,1629.2 1732.3,1630.8 1756.2,1633.3 1780.0,1636.4 1803.7,1640.4 1827.2,1644.9 1850.6,1650.2 1873.8,1656.1 1896.7,1662.5 1919.4,1669.6 1941.7,1677.1 1963.8,1685.0 1985.4,1693.4  Z" style="stroke-width: 0.5;  stroke: rgb(0,0,0); fill: rgb(179,177,178);" />
<path d="M 1507.722,977.557 A 522.500,522.500 0.00 0,1 1538.9,979.0 L 1538.9,979.0 1537.2,999.3 1535.2,1019.6 1532.9,1039.6 1530.1,1059.2 1527.0,1078.4 1523.6,1096.9 1519.7,1114.7 1515.4,1131.7 1510.7,1147.9 1505.5,1163.0 1500.0,1177.1 1494.0,1190.0 1487.6,1201.8 1480.8,1212.3 1473.6,1221.5 1465.9,1229.4 1457.9,1235.9 1449.5,1241.0 1440.7,1244.8 1431.5,1247.1 1422.0,1247.9 1412.1,1247.4 1402.0,1245.5 1391.5,1242.1 1380.8,1237.4 1369.8,1231.4 1358.6,1224.1 1347.2,1215.5 1335.7,1205.7 1324.0,1194.8 1312.2,1182.8 1300.4,1169.9 1288.5,1156.0 1276.7,1141.3 1264.9,1125.9 1253.2,1109.9 1241.7,1093.4 1230.3,1076.5 1219.2,1059.4  A 522.500,522.500 0.00 0,1 1246.0,1043.4 L 1246.0,1043.4 1256.0,1061.1 1266.2,1078.5 1276.5,1095.6 1286.9,1112.2 1297.4,1128.2 1307.9,1143.5 1318.4,1158.0 1328.9,1171.6 1339.2,1184.2 1349.4,1195.7 1359.5,1206.0 1369.3,1215.2 1379.0,1223.1 1388.4,1229.7 1397.5,1234.9 1406.4,1238.8 1414.9,1241.2 1423.2,1242.2 1431.0,1241.7 1438.6,1239.9 1445.7,1236.5 1452.5,1231.7 1458.9,1225.6 1464.8,1218.0 1470.4,1209.0 1475.6,1198.8 1480.4,1187.3 1484.7,1174.5 1488.7,1160.6 1492.2,1145.7 1495.4,1129.7 1498.1,1112.8 1500.5,1095.1 1502.6,1076.6 1504.2,1057.6 1505.6,1038.0 1506.6,1018.1 1507.3,997.9 1507.7,977.6  Z" style="stroke-width: 0.5;  stroke: rgb(0,0,0); fill: rgb(179,177,178);" />
<path d="M 1777.635,1942.634 A 522.500,522.500 0.00 0,1 1750.8,1958.4 L 1750.8,1958.4 1740.9,1940.6 1730.9,1923.1 1720.6,1905.9 1710.3,1889.2 1699.9,1873.1 1689.5,1857.8 1679.1,1843.2 1668.7,1829.6 1658.4,1816.9 1648.2,1805.3 1638.2,1794.9 1628.3,1785.7 1618.6,1777.7 1609.2,1771.1 1600.0,1765.8 1591.1,1761.8 1582.5,1759.4 1574.2,1758.3 1566.2,1758.7 1558.6,1760.5 1551.3,1763.8 1544.3,1768.5 1537.8,1774.7 1531.6,1782.2 1525.9,1791.1 1520.5,1801.3 1515.5,1812.8 1510.9,1825.5 1506.7,1839.3 1502.9,1854.3 1499.5,1870.2 1496.4,1887.1 1493.7,1904.8 1491.4,1923.2 1489.5,1942.3 1487.8,1961.8 1486.5,1981.8 1485.5,2002.0 1484.8,2022.3  A 522.500,522.500 0.00 0,1 1459.8,2021.0 L 1459.8,2021.0 1461.6,2000.6 1463.6,1980.3 1466.0,1960.3 1468.8,1940.7 1471.9,1921.6 1475.4,1903.1 1479.3,1885.3 1483.7,1868.3 1488.4,1852.2 1493.5,1837.1 1499.1,1823.1 1505.1,1810.2 1511.4,1798.4 1518.2,1788.0 1525.4,1778.8 1533.0,1771.0 1541.0,1764.5 1549.4,1759.4 1558.2,1755.7 1567.3,1753.5 1576.8,1752.7 1586.5,1753.3 1596.6,1755.3 1607.0,1758.7 1617.7,1763.5 1628.5,1769.6 1639.6,1777.0 1650.9,1785.6 1662.4,1795.5 1673.9,1806.5 1685.6,1818.5 1697.3,1831.6 1709.1,1845.5 1720.8,1860.3 1732.4,1875.8 1744.0,1891.8 1755.4,1908.4 1766.6,1925.4 1777.6,1942.6  Z" style="stroke-width: 0.5;  stroke: rgb(0,0,0); fill: rgb(179,177,178);" />
<path d="M 1911.741,1178.324 A 522.500,522.500 0.00 0,1 1930.1,1203.4 L 1930.1,1203.4 1910.1,1216.9 1889.7,1230.3 1868.9,1243.4 1847.7,1256.2 1826.1,1268.7 1804.1,1280.8 1781.9,1292.5 1759.2,1303.8 1736.3,1314.7 1713.1,1325.0 1689.6,1334.9 1665.8,1344.3 1641.8,1353.1 1617.6,1361.4 1593.1,1369.1 1568.4,1376.2 1543.6,1382.7 1518.6,1388.7 1493.4,1394.0 1468.1,1398.6 1442.7,1402.7 1417.3,1406.2 1391.7,1409.0 1366.2,1411.2 1340.6,1412.8 1315.0,1413.7 1289.4,1414.1 1263.8,1413.9 1238.3,1413.1 1212.9,1411.7 1187.6,1409.8 1162.5,1407.4 1137.5,1404.4 1112.7,1401.0 1088.0,1397.0 1063.6,1392.7 1039.5,1387.9 1015.7,1382.8 992.1,1377.3  A 522.500,522.500 0.00 0,1 1000.3,1347.3 L 1000.3,1347.3 1023.1,1354.1 1046.3,1360.5 1069.8,1366.5 1093.6,1372.0 1117.6,1377.0 1141.9,1381.6 1166.3,1385.6 1191.0,1389.0 1215.7,1391.9 1240.6,1394.1 1265.6,1395.7 1290.6,1396.7 1315.7,1397.0 1340.8,1396.6 1365.9,1395.5 1391.0,1393.7 1416.0,1391.2 1440.9,1388.1 1465.7,1384.2 1490.5,1379.6 1515.0,1374.3 1539.5,1368.3 1563.7,1361.7 1587.7,1354.4 1611.5,1346.4 1635.1,1337.7 1658.4,1328.5 1681.4,1318.6 1704.2,1308.1 1726.6,1297.1 1748.7,1285.6 1770.5,1273.6 1791.8,1261.1 1812.9,1248.1 1833.5,1234.8 1853.7,1221.1 1873.5,1207.1 1892.8,1192.8 1911.7,1178.3  Z" style="stroke-width: 0.5;  stroke: rgb(0,0,0); fill: rgb(179,177,178);" />
<path d="M 1930.942,1204.542 A 522.500,522.500 0.00 0,1 1945.7,1227.3 L 1945.7,1227.3 1924.7,1239.9 1903.3,1252.4 1881.6,1264.6 1859.5,1276.6 1837.1,1288.2 1814.3,1299.5 1791.3,1310.5 1768.0,1321.1 1744.3,1331.3 1720.5,1341.1 1696.3,1350.5 1672.0,1359.4 1647.4,1367.8 1622.6,1375.8 1597.6,1383.2 1572.4,1390.1 1547.1,1396.6 1521.6,1402.5 1496.0,1407.8 1470.3,1412.6 1444.5,1416.9 1418.6,1420.7 1392.7,1423.8 1366.7,1426.5 1340.7,1428.6 1314.8,1430.2 1288.8,1431.2 1262.8,1431.8 1237.0,1431.8 1211.1,1431.3 1185.4,1430.4 1159.8,1428.9 1134.4,1427.0 1109.1,1424.7 1084.0,1422.0 1059.1,1418.8 1034.4,1415.3 1010.0,1411.5 985.8,1407.3  A 522.500,522.500 0.00 0,1 991.3,1380.8 L 991.3,1380.8 1014.9,1386.1 1038.8,1391.1 1063.0,1395.7 1087.5,1399.9 1112.1,1403.7 1137.0,1407.0 1162.1,1409.8 1187.3,1412.1 1212.6,1413.9 1238.0,1415.1 1263.5,1415.8 1289.1,1415.9 1314.8,1415.4 1340.4,1414.4 1366.0,1412.7 1391.6,1410.4 1417.2,1407.5 1442.7,1404.0 1468.1,1399.9 1493.4,1395.1 1518.6,1389.8 1543.7,1383.8 1568.5,1377.2 1593.2,1370.1 1617.7,1362.4 1642.0,1354.1 1666.1,1345.2 1689.9,1335.9 1713.4,1326.0 1736.7,1315.6 1759.6,1304.8 1782.3,1293.5 1804.6,1281.8 1826.6,1269.7 1848.2,1257.2 1869.5,1244.4 1890.4,1231.4 1910.9,1218.1 1930.9,1204.5  Z" style="stroke-width: 0.5;  stroke: rgb(0,0,0); fill: rgb(179,177,178);" />
<path d="M 1979.134,1291.585 A 522.500,522.500 0.00 0,1 1989.0,1315.8 L 1989.0,1315.8 1964.8,1324.8 1940.4,1333.7 1915.9,1342.5 1891.2,1351.1 1866.3,1359.6 1841.3,1368.0 1816.2,1376.2 1790.9,1384.2 1765.4,1392.0 1739.9,1399.6 1714.2,1407.0 1688.4,1414.2 1662.5,1421.3 1636.5,1428.0 1610.4,1434.6 1584.2,1441.0 1558.0,1447.1 1531.7,1453.0 1505.3,1458.6 1478.9,1464.0 1452.4,1469.2 1425.9,1474.1 1399.3,1478.8 1372.8,1483.3 1346.2,1487.5 1319.6,1491.4 1293.0,1495.1 1266.5,1498.6 1240.0,1501.9 1213.5,1504.9 1187.0,1507.7 1160.6,1510.3 1134.2,1512.7 1108.0,1514.8 1081.8,1516.8 1055.7,1518.5 1029.7,1520.1 1003.8,1521.5 978.0,1522.7  A 522.500,522.500 0.00 0,1 977.5,1496.6 L 977.5,1496.6 1003.0,1496.6 1028.7,1496.5 1054.4,1496.1 1080.4,1495.4 1106.4,1494.6 1132.5,1493.4 1158.8,1492.0 1185.1,1490.3 1211.5,1488.3 1237.9,1486.0 1264.4,1483.4 1290.9,1480.6 1317.4,1477.4 1344.0,1473.9 1370.5,1470.0 1397.0,1465.9 1423.5,1461.5 1450.0,1456.7 1476.4,1451.6 1502.7,1446.2 1529.0,1440.5 1555.2,1434.5 1581.3,1428.2 1607.3,1421.6 1633.2,1414.7 1659.0,1407.5 1684.6,1400.0 1710.2,1392.2 1735.5,1384.2 1760.7,1375.9 1785.8,1367.4 1810.6,1358.6 1835.3,1349.6 1859.8,1340.4 1884.1,1331.0 1908.2,1321.4 1932.1,1311.6 1955.7,1301.7 1979.1,1291.6  Z" style="stroke-width: 0.5;  stroke: rgb(0,0,0); fill: rgb(179,177,178);" />
<path d="M 2022.497,1498.285 A 522.500,522.500 0.00 0,1 2022.2,1518.0 L 2022.2,1518.0 1996.7,1517.2 1971.1,1516.7 1945.3,1516.3 1919.4,1516.3 1893.3,1516.4 1867.1,1516.8 1840.9,1517.5 1814.5,1518.5 1788.1,1519.8 1761.6,1521.3 1735.1,1523.1 1708.5,1525.3 1681.9,1527.7 1655.3,1530.5 1628.6,1533.6 1602.0,1537.0 1575.4,1540.7 1548.8,1544.7 1522.3,1549.1 1495.8,1553.7 1469.4,1558.7 1443.0,1564.0 1416.8,1569.6 1390.6,1575.5 1364.5,1581.7 1338.5,1588.2 1312.7,1595.0 1287.0,1602.1 1261.4,1609.4 1236.0,1617.0 1210.7,1624.8 1185.6,1632.9 1160.7,1641.2 1136.0,1649.8 1111.4,1658.5 1087.1,1667.5 1063.0,1676.6 1039.1,1685.9 1015.4,1695.3  A 522.500,522.500 0.00 0,1 1008.4,1676.9 L 1008.4,1676.9 1032.6,1668.3 1057.0,1659.8 1081.6,1651.4 1106.4,1643.2 1131.4,1635.1 1156.5,1627.3 1181.7,1619.6 1207.1,1612.1 1232.7,1604.8 1258.4,1597.7 1284.2,1590.8 1310.1,1584.2 1336.1,1577.7 1362.3,1571.6 1388.5,1565.6 1414.8,1559.9 1441.2,1554.5 1467.6,1549.3 1494.1,1544.4 1520.7,1539.7 1547.3,1535.3 1573.9,1531.1 1600.6,1527.2 1627.2,1523.6 1653.9,1520.2 1680.6,1517.1 1707.2,1514.2 1733.9,1511.6 1760.5,1509.3 1787.0,1507.2 1813.5,1505.3 1840.0,1503.7 1866.3,1502.2 1892.6,1501.1 1918.8,1500.1 1944.9,1499.4 1970.9,1498.8 1996.8,1498.5 2022.5,1498.3  Z" style="stroke-width: 0.5;  stroke: rgb(0,0,0); fill: rgb(179,177,178);" />
<path d="M 1852.899,1885.316 A 522.500,522.500 0.00 0,1 1839.8,1896.9 L 1839.8,1896.9 1826.1,1881.2 1812.0,1865.9 1797.7,1850.9 1783.1,1836.5 1768.4,1822.7 1753.5,1809.6 1738.6,1797.4 1723.5,1786.0 1708.5,1775.6 1693.5,1766.3 1678.5,1758.0 1663.7,1750.9 1648.9,1744.9 1634.4,1740.2 1620.0,1736.8 1605.8,1734.7 1591.9,1733.8 1578.3,1734.4 1564.9,1736.2 1551.9,1739.4 1539.2,1744.0 1526.9,1749.8 1514.9,1757.0 1503.4,1765.4 1492.2,1775.1 1481.5,1786.0 1471.2,1798.1 1461.3,1811.3 1451.9,1825.6 1442.9,1840.8 1434.4,1857.0 1426.4,1874.1 1418.8,1891.9 1411.6,1910.3 1405.0,1929.4 1398.8,1948.9 1393.0,1968.8 1387.7,1988.9 1382.8,2009.2  A 522.500,522.500 0.00 0,1 1365.8,2005.0 L 1365.8,2005.0 1371.4,1984.8 1377.4,1964.7 1383.9,1944.9 1390.9,1925.4 1398.4,1906.5 1406.3,1888.1 1414.7,1870.3 1423.6,1853.3 1432.9,1837.2 1442.7,1821.9 1453.0,1807.7 1463.7,1794.4 1474.9,1782.3 1486.4,1771.3 1498.5,1761.5 1510.9,1753.0 1523.7,1745.7 1536.8,1739.7 1550.4,1734.9 1564.2,1731.5 1578.4,1729.4 1592.8,1728.7 1607.6,1729.2 1622.5,1731.1 1637.7,1734.2 1653.1,1738.5 1668.6,1744.1 1684.2,1750.9 1699.9,1758.8 1715.6,1767.7 1731.4,1777.7 1747.1,1788.7 1762.8,1800.5 1778.4,1813.1 1793.8,1826.5 1809.0,1840.5 1823.9,1855.0 1838.6,1870.0 1852.9,1885.3  Z" style="stroke-width: 0.5;  stroke: rgb(0,0,0); fill: rgb(179,177,178);" />
<path d="M 1990.432,1680.229 A 522.500,522.500 0.00 0,1 1985.4,1693.5 L 1985.4,1693.5 1963.7,1685.1 1941.7,1677.1 1919.3,1669.6 1896.7,1662.6 1873.7,1656.1 1850.5,1650.3 1827.2,1645.0 1803.6,1640.4 1779.9,1636.5 1756.1,1633.3 1732.2,1630.8 1708.3,1629.2 1684.3,1628.3 1660.4,1628.2 1636.5,1628.9 1612.6,1630.5 1588.9,1632.9 1565.2,1636.1 1541.7,1640.2 1518.4,1645.1 1495.2,1650.8 1472.3,1657.4 1449.6,1664.8 1427.1,1673.0 1404.9,1682.0 1383.1,1691.7 1361.5,1702.2 1340.3,1713.4 1319.4,1725.3 1298.9,1737.8 1278.8,1750.9 1259.1,1764.6 1239.8,1778.9 1221.0,1793.6 1202.6,1808.8 1184.7,1824.4 1167.3,1840.3 1150.4,1856.4 1133.9,1872.8  A 522.500,522.500 0.00 0,1 1123.9,1862.7 L 1123.9,1862.7 1140.9,1846.7 1158.4,1830.9 1176.3,1815.3 1194.8,1800.1 1213.6,1785.2 1233.0,1770.8 1252.7,1756.8 1272.9,1743.4 1293.4,1730.5 1314.4,1718.2 1335.7,1706.6 1357.3,1695.6 1379.3,1685.2 1401.6,1675.6 1424.1,1666.7 1447.0,1658.6 1470.1,1651.2 1493.4,1644.7 1516.9,1638.9 1540.6,1633.9 1564.4,1629.7 1588.4,1626.3 1612.5,1623.7 1636.7,1622.0 1660.9,1621.0 1685.2,1620.8 1709.4,1621.4 1733.7,1622.7 1757.9,1624.8 1782.0,1627.6 1806.0,1631.1 1829.9,1635.3 1853.6,1640.1 1877.1,1645.5 1900.3,1651.5 1923.3,1658.0 1946.1,1665.0 1968.4,1672.4 1990.4,1680.2  Z" style="stroke-width: 0.5;  stroke: rgb(0,0,0); fill: rgb(179,177,178);" />
<path d="M 1540.142,979.044 A 522.500,522.500 0.00 0,1 1553.6,980.3 L 1553.6,980.3 1551.3,1000.6 1548.7,1020.9 1545.7,1040.9 1542.3,1060.6 1538.6,1079.7 1534.4,1098.3 1529.8,1116.1 1524.8,1133.2 1519.4,1149.3 1513.5,1164.5 1507.2,1178.6 1500.5,1191.7 1493.4,1203.5 1485.8,1214.1 1477.8,1223.4 1469.5,1231.4 1460.7,1238.1 1451.5,1243.4 1442.0,1247.3 1432.0,1249.8 1421.8,1250.8 1411.2,1250.5 1400.3,1248.8 1389.2,1245.6 1377.7,1241.2 1366.1,1235.4 1354.2,1228.3 1342.1,1220.0 1329.9,1210.5 1317.6,1199.9 1305.2,1188.2 1292.7,1175.5 1280.3,1161.9 1267.9,1147.5 1255.5,1132.4 1243.3,1116.7 1231.2,1100.4 1219.3,1083.8 1207.7,1066.9  A 522.500,522.500 0.00 0,1 1219.0,1059.5 L 1219.0,1059.5 1230.1,1076.6 1241.5,1093.5 1253.1,1110.0 1264.8,1126.0 1276.6,1141.4 1288.4,1156.1 1300.3,1170.0 1312.2,1182.9 1323.9,1194.9 1335.6,1205.8 1347.2,1215.6 1358.6,1224.1 1369.9,1231.5 1380.9,1237.5 1391.6,1242.2 1402.1,1245.5 1412.3,1247.5 1422.2,1248.0 1431.8,1247.1 1441.0,1244.8 1449.8,1241.1 1458.3,1236.0 1466.4,1229.4 1474.0,1221.6 1481.3,1212.3 1488.2,1201.8 1494.6,1190.1 1500.6,1177.1 1506.2,1163.1 1511.4,1147.9 1516.2,1131.8 1520.5,1114.8 1524.5,1097.0 1528.0,1078.5 1531.2,1059.3 1533.9,1039.7 1536.4,1019.7 1538.4,999.4 1540.1,979.0  Z" style="stroke-width: 0.5;  stroke: rgb(0,0,0); fill: rgb(179,177,178);" />
<path d="M 2022.320,1486.289 A 522.500,522.500 0.00 0,1 2022.5,1495.6 L 2022.5,1495.6 1996.7,1495.9 1970.9,1496.3 1944.8,1497.0 1918.7,1497.9 1892.5,1499.0 1866.2,1500.3 1839.8,1501.8 1813.4,1503.5 1786.9,1505.5 1760.3,1507.7 1733.7,1510.1 1707.1,1512.8 1680.4,1515.7 1653.8,1518.9 1627.1,1522.3 1600.4,1526.0 1573.8,1530.0 1547.1,1534.2 1520.5,1538.6 1494.0,1543.3 1467.5,1548.3 1441.0,1553.5 1414.6,1559.0 1388.3,1564.7 1362.1,1570.6 1336.0,1576.8 1309.9,1583.2 1284.0,1589.8 1258.2,1596.7 1232.5,1603.7 1206.9,1611.0 1181.5,1618.4 1156.2,1626.1 1131.0,1633.9 1106.0,1641.9 1081.2,1650.1 1056.6,1658.4 1032.1,1666.8 1007.8,1675.4  A 522.500,522.500 0.00 0,1 1004.8,1666.6 L 1004.8,1666.6 1029.3,1658.5 1054.0,1650.4 1078.9,1642.5 1103.9,1634.6 1129.1,1627.0 1154.4,1619.5 1179.8,1612.1 1205.4,1605.0 1231.1,1598.0 1256.9,1591.1 1282.8,1584.5 1308.8,1578.1 1334.9,1571.8 1361.1,1565.8 1387.4,1560.0 1413.8,1554.4 1440.2,1549.0 1466.7,1543.9 1493.2,1538.9 1519.8,1534.2 1546.4,1529.7 1573.0,1525.5 1599.7,1521.5 1626.4,1517.7 1653.0,1514.1 1679.7,1510.7 1706.4,1507.6 1733.0,1504.7 1759.6,1502.0 1786.2,1499.6 1812.7,1497.3 1839.2,1495.3 1865.6,1493.4 1892.0,1491.8 1918.2,1490.3 1944.4,1489.1 1970.5,1488.0 1996.5,1487.0 2022.3,1486.3  Z" style="stroke-width: 0.5;  stroke: rgb(0,0,0); fill: rgb(179,177,178);" />
<path d="M 1905.065,1169.957 A 522.500,522.500 0.00 0,1 1910.8,1177.2 L 1910.8,1177.2 1892.0,1191.7 1872.7,1206.0 1853.0,1220.0 1832.8,1233.8 1812.2,1247.1 1791.3,1260.1 1769.9,1272.6 1748.2,1284.7 1726.2,1296.2 1703.8,1307.2 1681.1,1317.7 1658.1,1327.5 1634.8,1336.8 1611.3,1345.4 1587.5,1353.4 1563.6,1360.7 1539.4,1367.3 1515.0,1373.3 1490.4,1378.5 1465.8,1383.0 1441.0,1386.9 1416.1,1390.0 1391.1,1392.4 1366.1,1394.1 1341.0,1395.1 1316.0,1395.4 1290.9,1395.0 1265.9,1393.9 1241.0,1392.2 1216.2,1389.9 1191.4,1386.9 1166.9,1383.4 1142.5,1379.3 1118.3,1374.6 1094.3,1369.4 1070.6,1363.8 1047.2,1357.6 1024.0,1351.1 1001.3,1344.2  A 522.500,522.500 0.00 0,1 1004.1,1335.4 L 1004.1,1335.4 1026.6,1342.7 1049.6,1349.6 1072.8,1356.0 1096.3,1362.0 1120.1,1367.5 1144.1,1372.5 1168.3,1377.0 1192.7,1380.8 1217.2,1384.0 1241.9,1386.6 1266.7,1388.6 1291.5,1389.9 1316.3,1390.4 1341.2,1390.3 1366.1,1389.5 1391.0,1387.9 1415.8,1385.6 1440.5,1382.6 1465.1,1378.8 1489.6,1374.3 1513.9,1369.1 1538.1,1363.1 1562.1,1356.5 1585.9,1349.1 1609.4,1341.0 1632.7,1332.3 1655.8,1322.9 1678.5,1312.9 1701.0,1302.3 1723.1,1291.1 1744.9,1279.4 1766.3,1267.1 1787.4,1254.4 1808.1,1241.2 1828.3,1227.6 1848.2,1213.6 1867.6,1199.3 1886.6,1184.8 1905.1,1170.0  Z" style="stroke-width: 0.5;  stroke: rgb(0,0,0); fill: rgb(179,177,178);" />
</g>
<g id="plot0">
<g id="plot0-axis">
</g>
<line x1='2243.2' y1='1600.7' x2='2243.2' y2='1600.7' style="stroke-width:14.0;stroke:rgb(0,0,0);stroke-linecap:round;fill:none;" />
<line x1='2243.2' y1='1600.7' x2='2282.9' y2='1606.0' style="stroke-width:14.0;stroke:rgb(0,0,0);stroke-linecap:round;fill:none;" />
<line x1='2282.9' y1='1606.0' x2='2282.9' y2='1606.0' style="stroke-width:14.0;stroke:rgb(0,0,0);stroke-linecap:round;fill:none;" />
<text x="2299.3" y="1631.0" font-size="46.8px" font-family="CMUBright-Roman" style="text-anchor:start;fill:rgb(255,38,78);" transform="rotate(7.7,2299.3,1631.0)" >HistomissSECH87<tspan baseline-shift="-40%" font-size="90%">s</tspan>02513</text>
</g>
<defs>
<pattern id="hline" width="10" height="10" patternTransform="rotate(0 0 0)" patternUnits="userSpaceOnUse"><line x1="0" y1="0" x2="10" y2="0" style="stroke:black;stroke-width:5" /></pattern>
<pattern id="checker" width="10" height="10" patternTransform="rotate(45 0 0)" patternUnits="userSpaceOnUse"><line x1="0" y1="0" x2="10" y2="0" style="stroke:black;stroke-width:2" /><line x1="0" y1="0" x2="0" y2="10" style="stroke:black;stroke-width:2" /></pattern>
<pattern id="checker" width="10" height="10" patternTransform="rotate(45 0 0)" patternUnits="userSpaceOnUse"><line x1="0" y1="0" x2="10" y2="0" style="stroke:black;stroke-width:5" /><line x1="0" y1="0" x2="0" y2="10" style="stroke:black;stroke-width:4" /></pattern>
<pattern id="hline-sparse" width="10" height="10" patternTransform="rotate(0 0 0)" patternUnits="userSpaceOnUse"><line x1="0" y1="0" x2="10" y2="0" style="stroke:black;stroke-width:2" /></pattern>
<pattern id="vline" width="10" height="10" patternTransform="rotate(0 0 0)" patternUnits="userSpaceOnUse"><line x1="0" y1="0" x2="0" y2="10" style="stroke:black;stroke-width:5" /></pattern>
<pattern id="vline-sparse" width="10" height="10" patternTransform="rotate(0 0 0)" patternUnits="userSpaceOnUse"><line x1="0" y1="0" x2="0" y2="10" style="stroke:black;stroke-width:2" /></pattern>
</defs>
</svg>
