<?xml version="1.0" encoding="utf-8" standalone="no"?>
<!DOCTYPE svg PUBLIC "-//W3C//DTD SVG 1.1//EN" "http://www.w3.org/Graphics/SVG/1.1/DTD/svg11.dtd">
<svg width="3000px" height="3000px" version="1.1" xmlns="http://www.w3.org/2000/svg" xmlns:xlink="http://www.w3.org/1999/xlink">
<g id="bg">
<rect x="0" y="0" width="3000px" height="3000px" style="fill:rgb(255,255,255);"/>
</g>
<g id="ideograms">
<path d="M1500.000,950.000 A550.000,550.000 40.000 1,1 990.861,1708.033 L805.720,1783.681 A750.000,750.000 0.000 1,0 1500.000,750.000 Z" style="stroke-width:2.0;stroke:rgb(0,0,0);stroke-linecap:round;fill:rgb(179,177,178);" />
<text x="2346.7" y="2068.7" font-size="46.8px" font-family="CMUBright-Roman" style="text-anchor:middle;fill:rgb(0,0,0);" transform="rotate(-56.1,2346.7,2068.7)" >HistomissSECH81<tspan baseline-shift="-40%" font-size="90%">1</tspan></text>
<line x1='1600.2' y1='756.7' x2='1601.8' y2='744.8' style="stroke-width:8.0;stroke:rgb(150,150,150);stroke-linecap:round;fill:none;" />
<line x1='1744.0' y1='790.8' x2='1747.9' y2='779.5' style="stroke-width:8.0;stroke:rgb(150,150,150);stroke-linecap:round;fill:none;" />
<text x="1765.0" y="772.8" font-size="41.6px" font-family="CMUBright-Roman" style="text-anchor:start;fill:rgb(150,150,150);" transform="rotate(289.0,1765.0,772.8)" >100 kb</text>
<line x1='1878.4' y1='852.4' x2='1884.4' y2='842.1' style="stroke-width:8.0;stroke:rgb(150,150,150);stroke-linecap:round;fill:none;" />
<line x1='1998.0' y1='939.2' x2='2006.0' y2='930.2' style="stroke-width:8.0;stroke:rgb(150,150,150);stroke-linecap:round;fill:none;" />
<line x1='2098.3' y1='1047.8' x2='2107.9' y2='1040.5' style="stroke-width:8.0;stroke:rgb(150,150,150);stroke-linecap:round;fill:none;" />
<line x1='2175.4' y1='1173.9' x2='2186.2' y2='1168.6' style="stroke-width:8.0;stroke:rgb(150,150,150);stroke-linecap:round;fill:none;" />
<line x1='2226.2' y1='1312.6' x2='2237.8' y2='1309.6' style="stroke-width:8.0;stroke:rgb(150,150,150);stroke-linecap:round;fill:none;" />
<text x="2252.8" y="1320.2" font-size="41.6px" font-family="CMUBright-Roman" style="text-anchor:start;fill:rgb(150,150,150);" transform="rotate(345.5,2252.8,1320.2)" >150 kb</text>
<line x1='2248.9' y1='1458.7' x2='2260.8' y2='1458.0' style="stroke-width:8.0;stroke:rgb(150,150,150);stroke-linecap:round;fill:none;" />
<line x1='2242.4' y1='1606.4' x2='2254.3' y2='1608.1' style="stroke-width:8.0;stroke:rgb(150,150,150);stroke-linecap:round;fill:none;" />
<line x1='2207.1' y1='1749.9' x2='2218.5' y2='1753.9' style="stroke-width:8.0;stroke:rgb(150,150,150);stroke-linecap:round;fill:none;" />
<line x1='2144.4' y1='1883.7' x2='2154.7' y2='1889.8' style="stroke-width:8.0;stroke:rgb(150,150,150);stroke-linecap:round;fill:none;" />
<line x1='2056.7' y1='2002.6' x2='2065.6' y2='2010.7' style="stroke-width:8.0;stroke:rgb(150,150,150);stroke-linecap:round;fill:none;" />
<text x="2065.0" y="2029.0" font-size="41.6px" font-family="CMUBright-Roman" style="text-anchor:start;fill:rgb(150,150,150);" transform="rotate(42.1,2065.0,2029.0)" >200 kb</text>
<line x1='1947.3' y1='2102.0' x2='1954.4' y2='2111.7' style="stroke-width:8.0;stroke:rgb(150,150,150);stroke-linecap:round;fill:none;" />
<line x1='1820.5' y1='2178.1' x2='1825.7' y2='2188.9' style="stroke-width:8.0;stroke:rgb(150,150,150);stroke-linecap:round;fill:none;" />
<line x1='1681.3' y1='2227.7' x2='1684.2' y2='2239.4' style="stroke-width:8.0;stroke:rgb(150,150,150);stroke-linecap:round;fill:none;" />
<line x1='1535.1' y1='2249.2' x2='1535.7' y2='2261.2' style="stroke-width:8.0;stroke:rgb(150,150,150);stroke-linecap:round;fill:none;" />
<line x1='1387.5' y1='2241.5' x2='1385.7' y2='2253.4' style="stroke-width:8.0;stroke:rgb(150,150,150);stroke-linecap:round;fill:none;" />
<text x="1397.8" y="2267.2" font-size="41.6px" font-family="CMUBright-Roman" style="text-anchor:end;fill:rgb(150,150,150);" transform="rotate(-81.4,1397.8,2267.2)" >250 kb</text>
<line x1='1244.3' y1='2205.1' x2='1240.2' y2='2216.3' style="stroke-width:8.0;stroke:rgb(150,150,150);stroke-linecap:round;fill:none;" />
<line x1='1111.0' y1='2141.2' x2='1104.7' y2='2151.5' style="stroke-width:8.0;stroke:rgb(150,150,150);stroke-linecap:round;fill:none;" />
<line x1='992.8' y1='2052.5' x2='984.7' y2='2061.3' style="stroke-width:8.0;stroke:rgb(150,150,150);stroke-linecap:round;fill:none;" />
<line x1='894.3' y1='1942.3' x2='884.6' y2='1949.3' style="stroke-width:8.0;stroke:rgb(150,150,150);stroke-linecap:round;fill:none;" />
<line x1='819.3' y1='1814.9' x2='808.4' y2='1819.9' style="stroke-width:8.0;stroke:rgb(150,150,150);stroke-linecap:round;fill:none;" />
<text x="803.5" y="1837.6" font-size="41.6px" font-family="CMUBright-Roman" style="text-anchor:end;fill:rgb(150,150,150);" transform="rotate(-24.8,803.5,1837.6)" >300 kb</text>
<g id="highlighttrack_0">
<path d="M2005.927,1715.727 A550.000,550.000 40.000 0,1 1891.063,1886.743 L2033.267,2027.377 A750.000,750.000 0.000 0,0 2189.900,1794.173 Z" style="stroke-width:14.0;stroke:rgb(0,0,0);stroke-linecap:round;fill:rgb(255,38,78);" />
</g>
<path d="M1500.000,950.000 A550.000,550.000 40.000 1,1 990.861,1708.033 L805.720,1783.681 A750.000,750.000 0.000 1,0 1500.000,750.000 Z" style="stroke-width:2.0;stroke:rgb(0,0,0);stroke-linecap:round;fill:none;" />
<path d="M961.434,1388.437 A550.000,550.000 40.000 0,1 1193.017,1043.643 L1081.387,877.695 A750.000,750.000 0.000 0,0 765.591,1347.869 Z" style="stroke-width:2.0;stroke:rgb(0,0,0);stroke-linecap:round;fill:rgb(179,177,178);" />
<text x="690.6" y="956.4" font-size="46.8px" font-family="CMUBright-Roman" style="text-anchor:middle;fill:rgb(0,0,0);" transform="rotate(-56.1,690.6,956.4)" >HistocapHISSPFGJOS2044<tspan baseline-shift="-40%" font-size="90%">1</tspan>85</text>
<line x1='967.5' y1='971.9' x2='959.0' y2='963.4' style="stroke-width:8.0;stroke:rgb(150,150,150);stroke-linecap:round;fill:none;" />
<line x1='874.3' y1='1086.5' x2='864.2' y2='1079.9' style="stroke-width:8.0;stroke:rgb(150,150,150);stroke-linecap:round;fill:none;" />
<line x1='805.3' y1='1217.3' x2='794.2' y2='1212.8' style="stroke-width:8.0;stroke:rgb(150,150,150);stroke-linecap:round;fill:none;" />
<path d="M961.434,1388.437 A550.000,550.000 40.000 0,1 1193.017,1043.643 L1081.387,877.695 A750.000,750.000 0.000 0,0 765.591,1347.869 Z" style="stroke-width:2.0;stroke:rgb(0,0,0);stroke-linecap:round;fill:none;" />
</g>
<g id="track_0">
<path d="M 2020.765,1457.461 A 522.500,522.500 0.00 0,1 2015.1,1587.4 L 2015.1,1587.4 1990.5,1583.0 1965.7,1578.4 1940.8,1573.4 1915.8,1568.1 1890.7,1562.4 1865.5,1556.4 1840.4,1550.0 1815.2,1543.2 1790.0,1536.0 1764.9,1528.5 1739.8,1520.5 1714.8,1512.2 1689.8,1503.4 1664.9,1494.2 1640.2,1484.7 1615.5,1474.7 1591.0,1464.3 1566.7,1453.6 1542.5,1442.4 1518.5,1430.9 1494.6,1419.0 1471.0,1406.7 1447.6,1394.0 1424.5,1381.0 1401.5,1367.6 1378.8,1353.9 1356.4,1339.8 1334.2,1325.5 1312.4,1310.9 1290.8,1295.9 1269.4,1280.8 1248.4,1265.3 1227.7,1249.7 1207.3,1233.8 1187.2,1217.8 1167.4,1201.6 1148.0,1185.2 1128.9,1168.7 1110.1,1152.2  A 522.500,522.500 0.00 0,1 1208.1,1066.7 L 1208.1,1066.7 1221.4,1086.1 1235.3,1105.3 1249.6,1124.5 1264.5,1143.4 1279.9,1162.1 1295.9,1180.5 1312.3,1198.6 1329.2,1216.2 1346.7,1233.5 1364.6,1250.3 1383.0,1266.5 1401.9,1282.3 1421.2,1297.5 1441.0,1312.1 1461.3,1326.1 1481.9,1339.4 1503.0,1352.2 1524.4,1364.2 1546.2,1375.5 1568.4,1386.2 1590.8,1396.1 1613.6,1405.4 1636.7,1413.9 1660.0,1421.7 1683.6,1428.7 1707.4,1435.1 1731.3,1440.7 1755.4,1445.6 1779.6,1449.8 1803.9,1453.3 1828.3,1456.2 1852.6,1458.4 1877.0,1460.0 1901.3,1460.9 1925.5,1461.3 1949.6,1461.1 1973.6,1460.4 1997.3,1459.1 2020.8,1457.5  Z" style="stroke-width: 0.5;  stroke: rgb(0,0,0); fill: rgb(179,177,178);" />
<path d="M 1882.448,1856.005 A 522.500,522.500 0.00 0,1 1844.8,1892.6 L 1844.8,1892.6 1827.8,1873.4 1810.6,1854.3 1793.2,1835.2 1775.5,1816.2 1757.5,1797.3 1739.3,1778.4 1720.8,1759.6 1702.1,1741.0 1683.1,1722.5 1663.9,1704.1 1644.5,1685.9 1624.8,1667.8 1604.9,1649.9 1584.8,1632.2 1564.5,1614.7 1543.9,1597.4 1523.1,1580.3 1502.2,1563.4 1481.0,1546.8 1459.7,1530.4 1438.1,1514.2 1416.4,1498.3 1394.6,1482.6 1372.6,1467.2 1350.4,1452.1 1328.1,1437.2 1305.7,1422.5 1283.2,1408.2 1260.6,1394.1 1237.9,1380.3 1215.1,1366.7 1192.3,1353.4 1169.4,1340.4 1146.5,1327.6 1123.6,1315.2 1100.6,1302.9 1077.7,1291.0 1054.8,1279.3 1031.9,1267.8  A 522.500,522.500 0.00 0,1 1057.9,1221.6 L 1057.9,1221.6 1080.0,1235.6 1102.2,1249.7 1124.4,1264.0 1146.5,1278.4 1168.7,1292.9 1190.9,1307.6 1213.0,1322.4 1235.1,1337.3 1257.2,1352.4 1279.3,1367.6 1301.3,1382.9 1323.2,1398.4 1345.1,1414.0 1367.0,1429.7 1388.7,1445.6 1410.5,1461.5 1432.1,1477.6 1453.6,1493.9 1475.1,1510.2 1496.5,1526.7 1517.8,1543.2 1539.0,1559.9 1560.1,1576.7 1581.1,1593.6 1602.0,1610.6 1622.8,1627.7 1643.5,1644.8 1664.1,1662.1 1684.6,1679.4 1704.9,1696.8 1725.1,1714.3 1745.2,1731.9 1765.2,1749.5 1785.1,1767.1 1804.8,1784.9 1824.4,1802.6 1843.9,1820.4 1863.2,1838.2 1882.4,1856.0  Z" style="stroke-width: 0.5;  stroke: rgb(0,0,0); fill: rgb(179,177,178);" />
<path d="M 2004.168,1637.188 A 522.500,522.500 0.00 0,1 1990.6,1679.8 L 1990.6,1679.8 1966.3,1670.8 1942.0,1661.6 1917.6,1652.3 1893.2,1642.7 1868.7,1633.0 1844.3,1623.0 1819.8,1612.9 1795.3,1602.5 1770.9,1591.9 1746.5,1581.1 1722.1,1570.1 1697.7,1558.9 1673.4,1547.5 1649.2,1535.9 1625.0,1524.0 1600.9,1512.0 1576.9,1499.7 1553.0,1487.2 1529.1,1474.6 1505.4,1461.7 1481.8,1448.6 1458.3,1435.4 1434.9,1421.9 1411.7,1408.3 1388.6,1394.5 1365.6,1380.6 1342.8,1366.4 1320.1,1352.1 1297.6,1337.7 1275.2,1323.1 1253.0,1308.4 1230.9,1293.5 1209.1,1278.6 1187.4,1263.5 1165.9,1248.3 1144.6,1233.1 1123.4,1217.8 1102.5,1202.4 1081.7,1186.9  A 522.500,522.500 0.00 0,1 1110.1,1152.2 L 1110.1,1152.2 1129.1,1169.0 1148.4,1185.7 1167.9,1202.3 1187.8,1218.8 1207.9,1235.2 1228.3,1251.4 1249.0,1267.5 1269.9,1283.4 1291.1,1299.1 1312.5,1314.6 1334.2,1329.9 1356.2,1344.9 1378.3,1359.7 1400.7,1374.2 1423.3,1388.5 1446.2,1402.5 1469.2,1416.2 1492.4,1429.6 1515.8,1442.7 1539.4,1455.5 1563.2,1468.0 1587.1,1480.1 1611.1,1492.0 1635.3,1503.5 1659.6,1514.6 1683.9,1525.5 1708.4,1536.0 1733.0,1546.2 1757.6,1556.1 1782.3,1565.6 1807.0,1574.8 1831.8,1583.7 1856.5,1592.2 1881.2,1600.5 1906.0,1608.4 1930.6,1616.0 1955.2,1623.4 1979.7,1630.4 2004.2,1637.2  Z" style="stroke-width: 0.5;  stroke: rgb(0,0,0); fill: rgb(179,177,178);" />
<path d="M 1843.400,1893.806 A 522.500,522.500 0.00 0,1 1823.4,1910.4 L 1823.4,1910.4 1807.7,1890.6 1791.6,1870.9 1775.3,1851.2 1758.6,1831.6 1741.7,1812.1 1724.4,1792.7 1706.8,1773.4 1688.9,1754.2 1670.7,1735.2 1652.1,1716.4 1633.3,1697.8 1614.2,1679.4 1594.8,1661.2 1575.2,1643.2 1555.2,1625.5 1535.0,1608.0 1514.5,1590.8 1493.8,1573.9 1472.8,1557.3 1451.6,1540.9 1430.1,1524.9 1408.5,1509.2 1386.6,1493.8 1364.6,1478.7 1342.3,1464.0 1319.9,1449.5 1297.4,1435.4 1274.7,1421.7 1251.9,1408.3 1229.0,1395.2 1205.9,1382.5 1182.8,1370.0 1159.7,1358.0 1136.5,1346.2 1113.3,1334.8 1090.0,1323.7 1066.8,1313.0 1043.7,1302.5 1020.5,1292.4  A 522.500,522.500 0.00 0,1 1031.9,1267.8 L 1031.9,1267.8 1054.8,1279.3 1077.7,1291.0 1100.6,1302.9 1123.5,1315.2 1146.5,1327.6 1169.4,1340.4 1192.2,1353.4 1215.1,1366.7 1237.8,1380.3 1260.5,1394.1 1283.1,1408.2 1305.6,1422.6 1328.0,1437.3 1350.2,1452.2 1372.4,1467.4 1394.3,1482.8 1416.2,1498.5 1437.8,1514.5 1459.3,1530.7 1480.7,1547.1 1501.8,1563.8 1522.7,1580.7 1543.4,1597.8 1564.0,1615.2 1584.3,1632.7 1604.3,1650.5 1624.2,1668.4 1643.8,1686.5 1663.2,1704.8 1682.3,1723.2 1701.2,1741.8 1719.9,1760.5 1738.3,1779.3 1756.5,1798.2 1774.4,1817.2 1792.0,1836.3 1809.4,1855.4 1826.5,1874.6 1843.4,1893.8  Z" style="stroke-width: 0.5;  stroke: rgb(0,0,0); fill: rgb(179,177,178);" />
<path d="M 1986.780,1689.873 A 522.500,522.500 0.00 0,1 1980.6,1705.0 L 1980.6,1705.0 1956.5,1694.7 1932.4,1684.2 1908.3,1673.6 1884.1,1662.9 1859.9,1652.1 1835.7,1641.1 1811.5,1630.0 1787.3,1618.7 1763.1,1607.3 1739.0,1595.8 1714.8,1584.1 1690.7,1572.3 1666.6,1560.3 1642.6,1548.2 1618.6,1536.0 1594.6,1523.7 1570.7,1511.1 1546.9,1498.5 1523.1,1485.7 1499.4,1472.8 1475.8,1459.8 1452.2,1446.7 1428.7,1433.4 1405.3,1420.0 1382.0,1406.5 1358.8,1392.9 1335.7,1379.1 1312.7,1365.3 1289.8,1351.4 1267.0,1337.3 1244.3,1323.2 1221.7,1309.0 1199.2,1294.8 1176.8,1280.4 1154.6,1266.0 1132.5,1251.5 1110.5,1237.0 1088.6,1222.4 1066.8,1207.8  A 522.500,522.500 0.00 0,0 1057.9,1221.5 L 1057.9,1221.5 1080.1,1235.5 1102.4,1249.3 1124.9,1263.2 1147.4,1276.9 1170.1,1290.7 1192.9,1304.3 1215.8,1317.9 1238.8,1331.3 1262.0,1344.7 1285.2,1358.0 1308.6,1371.2 1332.0,1384.3 1355.5,1397.3 1379.2,1410.2 1402.9,1423.0 1426.7,1435.7 1450.6,1448.2 1474.5,1460.6 1498.6,1472.9 1522.7,1485.0 1546.8,1497.1 1571.0,1508.9 1595.3,1520.7 1619.7,1532.3 1644.0,1543.8 1668.4,1555.1 1692.9,1566.3 1717.4,1577.4 1741.9,1588.3 1766.4,1599.0 1790.9,1609.7 1815.4,1620.2 1840.0,1630.5 1864.5,1640.7 1889.0,1650.8 1913.5,1660.8 1938.0,1670.6 1962.4,1680.3 1986.8,1689.9  Z" style="stroke-width: 0.5;  stroke: rgb(0,0,0); fill: rgb(179,177,178);" />
</g>
<g id="plot0">
<g id="plot0-axis">
</g>
<line x1='1911.1' y1='2127.3' x2='1911.1' y2='2127.3' style="stroke-width:14.0;stroke:rgb(0,0,0);stroke-linecap:round;fill:none;" />
<line x1='1911.1' y1='2127.3' x2='1933.0' y2='2160.8' style="stroke-width:14.0;stroke:rgb(0,0,0);stroke-linecap:round;fill:none;" />
<line x1='1933.0' y1='2160.8' x2='1933.0' y2='2160.8' style="stroke-width:14.0;stroke:rgb(0,0,0);stroke-linecap:round;fill:none;" />
<text x="1925.0" y="2189.6" font-size="46.8px" font-family="CMUBright-Roman" style="text-anchor:start;fill:rgb(255,38,78);" transform="rotate(56.8,1925.0,2189.6)" >HistomissSECH81<tspan baseline-shift="-40%" font-size="90%">s</tspan>02275</text>
</g>
<defs>
<pattern id="hline-sparse" width="10" height="10" patternTransform="rotate(0 0 0)" patternUnits="userSpaceOnUse"><line x1="0" y1="0" x2="10" y2="0" style="stroke:black;stroke-width:2" /></pattern>
<pattern id="checker" width="10" height="10" patternTransform="rotate(45 0 0)" patternUnits="userSpaceOnUse"><line x1="0" y1="0" x2="10" y2="0" style="stroke:black;stroke-width:2" /><line x1="0" y1="0" x2="0" y2="10" style="stroke:black;stroke-width:2" /></pattern>
<pattern id="checker" width="10" height="10" patternTransform="rotate(45 0 0)" patternUnits="userSpaceOnUse"><line x1="0" y1="0" x2="10" y2="0" style="stroke:black;stroke-width:5" /><line x1="0" y1="0" x2="0" y2="10" style="stroke:black;stroke-width:4" /></pattern>
<pattern id="hline" width="10" height="10" patternTransform="rotate(0 0 0)" patternUnits="userSpaceOnUse"><line x1="0" y1="0" x2="10" y2="0" style="stroke:black;stroke-width:5" /></pattern>
<pattern id="vline" width="10" height="10" patternTransform="rotate(0 0 0)" patternUnits="userSpaceOnUse"><line x1="0" y1="0" x2="0" y2="10" style="stroke:black;stroke-width:5" /></pattern>
<pattern id="vline-sparse" width="10" height="10" patternTransform="rotate(0 0 0)" patternUnits="userSpaceOnUse"><line x1="0" y1="0" x2="0" y2="10" style="stroke:black;stroke-width:2" /></pattern>
</defs>
</svg>
