<?xml version="1.0" encoding="utf-8" standalone="no"?>
<!DOCTYPE svg PUBLIC "-//W3C//DTD SVG 1.1//EN" "http://www.w3.org/Graphics/SVG/1.1/DTD/svg11.dtd">
<svg width="3000px" height="3000px" version="1.1" xmlns="http://www.w3.org/2000/svg" xmlns:xlink="http://www.w3.org/1999/xlink">
<g id="bg">
<rect x="0" y="0" width="3000px" height="3000px" style="fill:rgb(255,255,255);"/>
</g>
<g id="ideograms">
<path d="M1500.000,950.000 A550.000,550.000 40.000 0,1 1707.986,2009.158 L1783.618,2194.306 A750.000,750.000 0.000 0,0 1500.000,750.000 Z" style="stroke-width:2.0;stroke:rgb(0,0,0);stroke-linecap:round;fill:rgb(179,177,178);" />
<text x="2456.7" y="1312.1" font-size="46.8px" font-family="CMUBright-Roman" style="text-anchor:middle;fill:rgb(0,0,0);" transform="rotate(438.9,2456.7,1312.1)" >Histocap136P07<tspan baseline-shift="-40%" font-size="90%">2</tspan></text>
<line x1='1516.7' y1='750.2' x2='1516.9' y2='738.2' style="stroke-width:8.0;stroke:rgb(150,150,150);stroke-linecap:round;fill:none;" />
<line x1='1617.9' y1='759.3' x2='1619.8' y2='747.5' style="stroke-width:8.0;stroke:rgb(150,150,150);stroke-linecap:round;fill:none;" />
<line x1='1717.0' y1='782.1' x2='1720.5' y2='770.6' style="stroke-width:8.0;stroke:rgb(150,150,150);stroke-linecap:round;fill:none;" />
<line x1='1812.2' y1='818.1' x2='1817.2' y2='807.1' style="stroke-width:8.0;stroke:rgb(150,150,150);stroke-linecap:round;fill:none;" />
<line x1='1901.6' y1='866.6' x2='1908.0' y2='856.4' style="stroke-width:8.0;stroke:rgb(150,150,150);stroke-linecap:round;fill:none;" />
<text x="1926.2" y="853.9" font-size="41.6px" font-family="CMUBright-Roman" style="text-anchor:start;fill:rgb(150,150,150);" transform="rotate(302.4,1926.2,853.9)" >600 kb</text>
<line x1='1983.6' y1='926.7' x2='1991.3' y2='917.5' style="stroke-width:8.0;stroke:rgb(150,150,150);stroke-linecap:round;fill:none;" />
<line x1='2056.7' y1='997.4' x2='2065.6' y2='989.3' style="stroke-width:8.0;stroke:rgb(150,150,150);stroke-linecap:round;fill:none;" />
<line x1='2119.5' y1='1077.3' x2='2129.5' y2='1070.5' style="stroke-width:8.0;stroke:rgb(150,150,150);stroke-linecap:round;fill:none;" />
<line x1='2171.0' y1='1165.0' x2='2181.8' y2='1159.6' style="stroke-width:8.0;stroke:rgb(150,150,150);stroke-linecap:round;fill:none;" />
<line x1='2210.2' y1='1258.9' x2='2221.5' y2='1255.0' style="stroke-width:8.0;stroke:rgb(150,150,150);stroke-linecap:round;fill:none;" />
<text x="2237.3" y="1264.4" font-size="41.6px" font-family="CMUBright-Roman" style="text-anchor:start;fill:rgb(150,150,150);" transform="rotate(341.2,2237.3,1264.4)" >650 kb</text>
<line x1='2236.3' y1='1357.1' x2='2248.0' y2='1354.9' style="stroke-width:8.0;stroke:rgb(150,150,150);stroke-linecap:round;fill:none;" />
<line x1='2248.8' y1='1458.1' x2='2260.8' y2='1457.4' style="stroke-width:8.0;stroke:rgb(150,150,150);stroke-linecap:round;fill:none;" />
<line x1='2247.6' y1='1559.7' x2='2259.6' y2='1560.7' style="stroke-width:8.0;stroke:rgb(150,150,150);stroke-linecap:round;fill:none;" />
<line x1='2232.7' y1='1660.3' x2='2244.4' y2='1662.9' style="stroke-width:8.0;stroke:rgb(150,150,150);stroke-linecap:round;fill:none;" />
<line x1='2204.2' y1='1758.0' x2='2215.5' y2='1762.1' style="stroke-width:8.0;stroke:rgb(150,150,150);stroke-linecap:round;fill:none;" />
<text x="2221.8" y="1779.3" font-size="41.6px" font-family="CMUBright-Roman" style="text-anchor:start;fill:rgb(150,150,150);" transform="rotate(20.1,2221.8,1779.3)" >700 kb</text>
<line x1='2162.9' y1='1850.9' x2='2173.5' y2='1856.5' style="stroke-width:8.0;stroke:rgb(150,150,150);stroke-linecap:round;fill:none;" />
<line x1='2109.3' y1='1937.3' x2='2119.1' y2='1944.3' style="stroke-width:8.0;stroke:rgb(150,150,150);stroke-linecap:round;fill:none;" />
<line x1='2044.6' y1='2015.7' x2='2053.3' y2='2024.0' style="stroke-width:8.0;stroke:rgb(150,150,150);stroke-linecap:round;fill:none;" />
<line x1='1969.8' y1='2084.6' x2='1977.3' y2='2094.0' style="stroke-width:8.0;stroke:rgb(150,150,150);stroke-linecap:round;fill:none;" />
<line x1='1886.4' y1='2142.8' x2='1892.6' y2='2153.1' style="stroke-width:8.0;stroke:rgb(150,150,150);stroke-linecap:round;fill:none;" />
<text x="1886.7" y="2170.5" font-size="41.6px" font-family="CMUBright-Roman" style="text-anchor:start;fill:rgb(150,150,150);" transform="rotate(59.0,1886.7,2170.5)" >750 kb</text>
<line x1='1795.9' y1='2189.2' x2='1800.6' y2='2200.2' style="stroke-width:8.0;stroke:rgb(150,150,150);stroke-linecap:round;fill:none;" />
<g id="highlighttrack_0">
<path d="M2037.470,1383.270 A550.000,550.000 40.000 0,1 2041.701,1404.814 L2238.683,1370.200 A750.000,750.000 0.000 0,0 2232.914,1340.823 Z" style="stroke-width:14.0;stroke:rgb(0,0,0);stroke-linecap:round;fill:rgb(255,38,78);" />
</g>
<path d="M1500.000,950.000 A550.000,550.000 40.000 0,1 1707.986,2009.158 L1783.618,2194.306 A750.000,750.000 0.000 0,0 1500.000,750.000 Z" style="stroke-width:2.0;stroke:rgb(0,0,0);stroke-linecap:round;fill:none;" />
<path d="M1489.399,2049.898 A550.000,550.000 40.000 0,1 1282.239,994.946 L1203.053,811.289 A750.000,750.000 0.000 0,0 1485.544,2249.861 Z" style="stroke-width:2.0;stroke:rgb(0,0,0);stroke-linecap:round;fill:rgb(179,177,178);" />
<text x="500.1" y="1696.4" font-size="46.8px" font-family="CMUBright-Roman" style="text-anchor:middle;fill:rgb(0,0,0);" transform="rotate(78.9,500.1,1696.4)" >Histocap388p11<tspan baseline-shift="-40%" font-size="90%">2</tspan></text>
<line x1='1200.9' y1='812.2' x2='1196.1' y2='801.2' style="stroke-width:8.0;stroke:rgb(150,150,150);stroke-linecap:round;fill:none;" />
<line x1='1110.6' y1='859.0' x2='1104.4' y2='848.7' style="stroke-width:8.0;stroke:rgb(150,150,150);stroke-linecap:round;fill:none;" />
<line x1='1027.5' y1='917.6' x2='1019.9' y2='908.2' style="stroke-width:8.0;stroke:rgb(150,150,150);stroke-linecap:round;fill:none;" />
<line x1='953.1' y1='986.8' x2='944.3' y2='978.6' style="stroke-width:8.0;stroke:rgb(150,150,150);stroke-linecap:round;fill:none;" />
<line x1='888.7' y1='1065.5' x2='878.9' y2='1058.6' style="stroke-width:8.0;stroke:rgb(150,150,150);stroke-linecap:round;fill:none;" />
<text x="861.1" y="1063.1" font-size="41.6px" font-family="CMUBright-Roman" style="text-anchor:end;fill:rgb(150,150,150);" transform="rotate(35.4,861.1,1063.1)" >600 kb</text>
<line x1='835.5' y1='1152.2' x2='824.9' y2='1146.7' style="stroke-width:8.0;stroke:rgb(150,150,150);stroke-linecap:round;fill:none;" />
<line x1='794.6' y1='1245.3' x2='783.3' y2='1241.2' style="stroke-width:8.0;stroke:rgb(150,150,150);stroke-linecap:round;fill:none;" />
<line x1='766.6' y1='1343.1' x2='754.9' y2='1340.6' style="stroke-width:8.0;stroke:rgb(150,150,150);stroke-linecap:round;fill:none;" />
<line x1='752.1' y1='1443.7' x2='740.1' y2='1442.8' style="stroke-width:8.0;stroke:rgb(150,150,150);stroke-linecap:round;fill:none;" />
<line x1='751.4' y1='1545.4' x2='739.4' y2='1546.2' style="stroke-width:8.0;stroke:rgb(150,150,150);stroke-linecap:round;fill:none;" />
<text x="728.4" y="1560.8" font-size="41.6px" font-family="CMUBright-Roman" style="text-anchor:end;fill:rgb(150,150,150);" transform="rotate(-3.5,728.4,1560.8)" >650 kb</text>
<line x1='764.4' y1='1646.3' x2='752.6' y2='1648.6' style="stroke-width:8.0;stroke:rgb(150,150,150);stroke-linecap:round;fill:none;" />
<line x1='791.0' y1='1744.4' x2='779.6' y2='1748.4' style="stroke-width:8.0;stroke:rgb(150,150,150);stroke-linecap:round;fill:none;" />
<line x1='830.5' y1='1838.1' x2='819.8' y2='1843.5' style="stroke-width:8.0;stroke:rgb(150,150,150);stroke-linecap:round;fill:none;" />
<line x1='882.4' y1='1925.6' x2='872.6' y2='1932.4' style="stroke-width:8.0;stroke:rgb(150,150,150);stroke-linecap:round;fill:none;" />
<line x1='945.7' y1='2005.2' x2='936.8' y2='2013.3' style="stroke-width:8.0;stroke:rgb(150,150,150);stroke-linecap:round;fill:none;" />
<text x="937.5" y="2031.6" font-size="41.6px" font-family="CMUBright-Roman" style="text-anchor:end;fill:rgb(150,150,150);" transform="rotate(-42.3,937.5,2031.6)" >700 kb</text>
<line x1='1019.1' y1='2075.5' x2='1011.4' y2='2084.8' style="stroke-width:8.0;stroke:rgb(150,150,150);stroke-linecap:round;fill:none;" />
<line x1='1101.4' y1='2135.3' x2='1095.0' y2='2145.5' style="stroke-width:8.0;stroke:rgb(150,150,150);stroke-linecap:round;fill:none;" />
<line x1='1191.0' y1='2183.4' x2='1186.1' y2='2194.3' style="stroke-width:8.0;stroke:rgb(150,150,150);stroke-linecap:round;fill:none;" />
<line x1='1286.3' y1='2218.9' x2='1282.9' y2='2230.4' style="stroke-width:8.0;stroke:rgb(150,150,150);stroke-linecap:round;fill:none;" />
<line x1='1385.5' y1='2241.2' x2='1383.7' y2='2253.1' style="stroke-width:8.0;stroke:rgb(150,150,150);stroke-linecap:round;fill:none;" />
<text x="1395.7" y="2266.9" font-size="41.6px" font-family="CMUBright-Roman" style="text-anchor:end;fill:rgb(150,150,150);" transform="rotate(-81.2,1395.7,2266.9)" >750 kb</text>
<path d="M1489.399,2049.898 A550.000,550.000 40.000 0,1 1282.239,994.946 L1203.053,811.289 A750.000,750.000 0.000 0,0 1485.544,2249.861 Z" style="stroke-width:2.0;stroke:rgb(0,0,0);stroke-linecap:round;fill:none;" />
</g>
<g id="track_0">
<path d="M 1771.533,1053.597 A 522.500,522.500 0.00 0,1 1918.3,1186.9 L 1918.3,1186.9 1898.9,1201.1 1879.1,1215.2 1858.8,1229.0 1838.2,1242.5 1817.2,1255.7 1795.8,1268.5 1774.0,1280.9 1751.9,1292.9 1729.5,1304.4 1706.7,1315.4 1683.6,1326.0 1660.3,1336.0 1636.7,1345.4 1612.8,1354.3 1588.7,1362.6 1564.4,1370.3 1539.8,1377.3 1515.1,1383.8 1490.3,1389.6 1465.2,1394.7 1440.1,1399.2 1414.9,1403.1 1389.5,1406.3 1364.2,1408.9 1338.7,1410.8 1313.3,1412.1 1287.9,1412.8 1262.5,1412.9 1237.1,1412.3 1211.9,1411.2 1186.7,1409.5 1161.6,1407.2 1136.7,1404.4 1112.0,1401.1 1087.5,1397.3 1063.2,1393.1 1039.2,1388.4 1015.4,1383.4 992.0,1377.9  A 522.500,522.500 0.00 0,1 1074.0,1197.5 L 1074.0,1197.5 1092.1,1210.0 1110.6,1222.1 1129.4,1233.8 1148.6,1244.9 1168.1,1255.4 1187.8,1265.2 1207.8,1274.3 1227.9,1282.5 1248.2,1290.0 1268.5,1296.5 1288.9,1302.0 1309.4,1306.6 1329.8,1310.2 1350.2,1312.8 1370.5,1314.2 1390.7,1314.6 1410.8,1313.9 1430.7,1312.1 1450.5,1309.2 1470.0,1305.2 1489.3,1300.1 1508.3,1293.8 1527.0,1286.5 1545.4,1278.2 1563.5,1268.8 1581.2,1258.4 1598.6,1247.0 1615.5,1234.7 1632.1,1221.5 1648.2,1207.4 1663.8,1192.6 1679.0,1177.1 1693.8,1160.8 1708.0,1144.0 1721.8,1126.7 1735.0,1108.9 1747.7,1090.7 1759.9,1072.2 1771.5,1053.6  Z" style="stroke-width: 0.5;  stroke: rgb(0,0,0); fill: rgb(179,177,178);" />
<path d="M 1615.844,990.504 A 522.500,522.500 0.00 0,1 1770.5,1053.0 L 1770.5,1053.0 1758.9,1071.6 1746.8,1090.1 1734.1,1108.3 1720.9,1126.1 1707.2,1143.5 1693.1,1160.3 1678.4,1176.5 1663.2,1192.1 1647.6,1206.9 1631.6,1221.0 1615.1,1234.2 1598.2,1246.5 1580.9,1257.8 1563.2,1268.2 1545.2,1277.6 1526.8,1286.0 1508.2,1293.3 1489.2,1299.5 1470.0,1304.6 1450.5,1308.6 1430.9,1311.4 1411.0,1313.2 1391.0,1313.9 1370.8,1313.4 1350.5,1311.9 1330.2,1309.3 1309.8,1305.7 1289.5,1301.0 1269.1,1295.4 1248.8,1288.8 1228.6,1281.4 1208.6,1273.0 1188.7,1263.9 1169.0,1254.0 1149.6,1243.5 1130.4,1232.3 1111.6,1220.6 1093.2,1208.4 1075.2,1195.8  A 522.500,522.500 0.00 0,1 1192.7,1077.4 L 1192.7,1077.4 1205.0,1094.1 1217.7,1110.4 1230.6,1126.4 1243.8,1141.8 1257.2,1156.6 1270.7,1170.7 1284.3,1184.0 1297.9,1196.4 1311.6,1207.8 1325.4,1218.1 1339.0,1227.4 1352.6,1235.5 1366.1,1242.4 1379.5,1248.0 1392.7,1252.3 1405.8,1255.3 1418.6,1256.9 1431.2,1257.2 1443.6,1256.1 1455.7,1253.6 1467.5,1249.8 1479.0,1244.5 1490.1,1238.0 1500.9,1230.1 1511.4,1220.9 1521.5,1210.5 1531.2,1198.8 1540.5,1186.0 1549.4,1172.1 1557.9,1157.2 1566.0,1141.3 1573.7,1124.5 1581.0,1106.9 1587.8,1088.7 1594.2,1069.8 1600.3,1050.4 1605.9,1030.7 1611.1,1010.7 1615.8,990.5  Z" style="stroke-width: 0.5;  stroke: rgb(0,0,0); fill: rgb(179,177,178);" />
<path d="M 1957.318,1247.282 A 522.500,522.500 0.00 0,1 2010.6,1389.1 L 2010.6,1389.1 1984.5,1394.8 1958.3,1400.4 1932.2,1406.1 1906.0,1411.7 1879.9,1417.4 1853.7,1423.0 1827.5,1428.6 1801.3,1434.2 1775.1,1439.8 1748.9,1445.3 1722.6,1450.9 1696.4,1456.4 1670.2,1461.9 1643.9,1467.5 1617.7,1473.0 1591.4,1478.4 1565.2,1483.9 1538.9,1489.4 1512.6,1494.8 1486.4,1500.2 1460.1,1505.6 1433.8,1511.0 1407.5,1516.4 1381.2,1521.8 1354.9,1527.1 1328.7,1532.4 1302.4,1537.7 1276.1,1543.0 1249.8,1548.3 1223.5,1553.6 1197.3,1558.8 1171.0,1564.1 1144.7,1569.3 1118.5,1574.5 1092.2,1579.7 1065.9,1584.9 1039.7,1590.0 1013.5,1595.2 987.2,1600.3  A 522.500,522.500 0.00 0,1 980.0,1448.8 L 980.0,1448.8 1004.8,1451.1 1029.8,1453.1 1055.1,1454.8 1080.5,1456.2 1106.1,1457.2 1131.8,1457.8 1157.7,1458.1 1183.6,1458.0 1209.7,1457.5 1235.8,1456.6 1262.0,1455.2 1288.3,1453.5 1314.5,1451.3 1340.8,1448.6 1367.1,1445.5 1393.3,1441.9 1419.5,1437.9 1445.7,1433.5 1471.7,1428.6 1497.7,1423.2 1523.6,1417.4 1549.4,1411.2 1575.0,1404.5 1600.5,1397.4 1625.9,1389.8 1651.0,1381.9 1676.0,1373.5 1700.8,1364.7 1725.4,1355.6 1749.8,1346.1 1773.9,1336.3 1797.8,1326.1 1821.5,1315.6 1844.8,1304.8 1867.9,1293.8 1890.7,1282.5 1913.2,1270.9 1935.4,1259.2 1957.3,1247.3  Z" style="stroke-width: 0.5;  stroke: rgb(0,0,0); fill: rgb(179,177,178);" />
<path d="M 1789.986,1934.643 A 522.500,522.500 0.00 0,1 1697.6,1983.7 L 1697.6,1983.7 1689.8,1965.0 1681.9,1946.5 1673.9,1928.4 1665.8,1910.7 1657.6,1893.7 1649.4,1877.3 1641.3,1861.7 1633.1,1847.1 1625.0,1833.4 1617.0,1820.8 1609.1,1809.4 1601.4,1799.2 1593.8,1790.3 1586.4,1782.7 1579.2,1776.6 1572.2,1771.8 1565.5,1768.5 1559.0,1766.6 1552.7,1766.2 1546.7,1767.3 1541.0,1769.9 1535.6,1774.0 1530.5,1779.5 1525.7,1786.5 1521.2,1794.9 1517.1,1804.6 1513.2,1815.7 1509.6,1828.0 1506.4,1841.4 1503.5,1856.1 1500.9,1871.7 1498.5,1888.3 1496.5,1905.8 1494.8,1924.0 1493.3,1942.9 1492.1,1962.3 1491.1,1982.1 1490.4,2002.2 1489.9,2022.4  A 522.500,522.500 0.00 0,1 1380.1,2008.6 L 1380.1,2008.6 1385.0,1988.5 1390.3,1968.6 1396.0,1948.9 1402.2,1929.6 1408.7,1910.9 1415.6,1892.8 1422.9,1875.3 1430.5,1858.7 1438.6,1843.0 1447.1,1828.3 1455.9,1814.6 1465.1,1802.0 1474.7,1790.6 1484.6,1780.5 1494.8,1771.6 1505.4,1764.0 1516.3,1757.7 1527.5,1752.8 1538.9,1749.3 1550.6,1747.2 1562.6,1746.5 1574.8,1747.2 1587.1,1749.2 1599.7,1752.6 1612.4,1757.4 1625.2,1763.5 1638.2,1770.8 1651.2,1779.4 1664.2,1789.1 1677.3,1800.0 1690.4,1811.9 1703.4,1824.8 1716.3,1838.5 1729.1,1853.1 1741.7,1868.4 1754.2,1884.3 1766.4,1900.7 1778.4,1917.6 1790.0,1934.6  Z" style="stroke-width: 0.5;  stroke: rgb(0,0,0); fill: rgb(179,177,178);" />
<path d="M 1500.000,977.500 A 522.500,522.500 0.00 0,1 1615.1,990.3 L 1615.1,990.3 1610.4,1010.5 1605.2,1030.5 1599.6,1050.3 1593.7,1069.7 1587.3,1088.5 1580.4,1106.8 1573.2,1124.4 1565.6,1141.1 1557.5,1157.0 1549.0,1172.0 1540.1,1185.9 1530.9,1198.7 1521.2,1210.3 1511.1,1220.7 1500.7,1229.9 1489.9,1237.8 1478.8,1244.4 1467.4,1249.6 1455.6,1253.4 1443.6,1255.9 1431.3,1257.0 1418.7,1256.7 1405.9,1255.1 1392.9,1252.1 1379.7,1247.7 1366.3,1242.1 1352.9,1235.2 1339.3,1227.1 1325.6,1217.9 1312.0,1207.5 1298.3,1196.1 1284.6,1183.7 1271.1,1170.4 1257.6,1156.3 1244.3,1141.4 1231.1,1126.0 1218.2,1110.0 1205.6,1093.7 1193.3,1077.0  A 522.500,522.500 0.00 0,1 1293.1,1020.2 L 1293.1,1020.2 1301.2,1038.7 1309.5,1057.0 1317.9,1075.0 1326.3,1092.5 1334.8,1109.5 1343.3,1125.7 1351.8,1141.1 1360.2,1155.6 1368.6,1169.1 1376.8,1181.5 1384.9,1192.7 1392.9,1202.8 1400.6,1211.6 1408.2,1219.0 1415.5,1225.0 1422.6,1229.7 1429.4,1232.9 1435.9,1234.6 1442.2,1234.8 1448.1,1233.6 1453.8,1230.9 1459.1,1226.7 1464.1,1221.1 1468.7,1214.0 1473.1,1205.6 1477.1,1195.8 1480.7,1184.7 1484.0,1172.3 1487.0,1158.7 1489.7,1144.1 1492.0,1128.4 1494.0,1111.7 1495.7,1094.2 1497.1,1076.0 1498.2,1057.1 1499.0,1037.6 1499.6,1017.8 1499.9,997.7 1500.0,977.5  Z" style="stroke-width: 0.5;  stroke: rgb(0,0,0); fill: rgb(179,177,178);" />
<path d="M 2014.616,1409.573 A 522.500,522.500 0.00 0,1 2020.3,1547.7 L 2020.3,1547.7 1995.3,1545.6 1970.1,1543.7 1944.8,1542.1 1919.2,1540.8 1893.5,1539.8 1867.6,1539.2 1841.7,1538.9 1815.6,1539.0 1789.4,1539.4 1763.1,1540.2 1736.8,1541.4 1710.4,1543.0 1684.0,1545.0 1657.6,1547.4 1631.2,1550.2 1604.8,1553.4 1578.4,1557.0 1552.1,1561.1 1525.8,1565.5 1499.6,1570.4 1473.4,1575.7 1447.4,1581.4 1421.5,1587.5 1395.7,1594.1 1370.1,1601.0 1344.5,1608.2 1319.2,1615.9 1294.0,1623.9 1269.0,1632.3 1244.2,1641.0 1219.7,1650.0 1195.3,1659.4 1171.2,1669.0 1147.3,1678.9 1123.6,1689.1 1100.3,1699.5 1077.2,1710.1 1054.3,1721.0 1031.8,1732.0  A 522.500,522.500 0.00 0,1 987.4,1601.0 L 987.4,1601.0 1013.6,1595.9 1039.8,1590.7 1066.1,1585.6 1092.3,1580.4 1118.6,1575.3 1144.9,1570.2 1171.2,1565.1 1197.5,1560.0 1223.8,1554.9 1250.1,1549.9 1276.4,1544.8 1302.8,1539.8 1329.1,1534.8 1355.5,1529.8 1381.8,1524.8 1408.2,1519.8 1434.5,1514.8 1460.9,1509.9 1487.3,1504.9 1513.7,1500.0 1540.0,1495.1 1566.4,1490.2 1592.8,1485.4 1619.2,1480.5 1645.5,1475.7 1671.9,1470.9 1698.3,1466.1 1724.7,1461.3 1751.1,1456.5 1777.4,1451.7 1803.8,1447.0 1830.2,1442.3 1856.6,1437.6 1882.9,1432.9 1909.3,1428.2 1935.6,1423.5 1962.0,1418.8 1988.3,1414.2 2014.6,1409.6  Z" style="stroke-width: 0.5;  stroke: rgb(0,0,0); fill: rgb(179,177,178);" />
<path d="M 2000.807,1648.992 A 522.500,522.500 0.00 0,1 1955.9,1755.2 L 1955.9,1755.2 1936.1,1744.4 1915.8,1733.9 1895.1,1724.0 1874.1,1714.5 1852.8,1705.6 1831.2,1697.4 1809.3,1689.8 1787.3,1682.9 1765.1,1676.9 1742.8,1671.6 1720.4,1667.1 1697.9,1663.6 1675.4,1660.9 1652.9,1659.1 1630.4,1658.3 1608.0,1658.4 1585.6,1659.5 1563.4,1661.6 1541.3,1664.6 1519.3,1668.6 1497.6,1673.5 1476.0,1679.5 1454.7,1686.3 1433.7,1694.1 1412.9,1702.8 1392.5,1712.4 1372.4,1722.8 1352.6,1734.1 1333.2,1746.1 1314.2,1758.9 1295.5,1772.4 1277.3,1786.6 1259.6,1801.4 1242.3,1816.7 1225.5,1832.5 1209.1,1848.8 1193.3,1865.4 1178.0,1882.3 1163.2,1899.5  A 522.500,522.500 0.00 0,1 1083.8,1815.9 L 1083.8,1815.9 1102.9,1801.6 1122.5,1787.5 1142.6,1773.8 1163.0,1760.3 1183.8,1747.2 1205.1,1734.5 1226.7,1722.2 1248.6,1710.3 1270.9,1699.0 1293.5,1688.2 1316.4,1677.9 1339.6,1668.2 1363.1,1659.1 1386.8,1650.6 1410.8,1642.7 1435.0,1635.5 1459.4,1629.0 1483.9,1623.1 1508.6,1617.9 1533.5,1613.3 1558.4,1609.5 1583.5,1606.4 1608.6,1603.9 1633.8,1602.2 1658.9,1601.1 1684.1,1600.7 1709.3,1600.9 1734.5,1601.8 1759.5,1603.4 1784.5,1605.5 1809.4,1608.3 1834.1,1611.6 1858.6,1615.5 1883.0,1620.0 1907.1,1624.9 1931.0,1630.3 1954.6,1636.1 1977.9,1642.4 2000.8,1649.0  Z" style="stroke-width: 0.5;  stroke: rgb(0,0,0); fill: rgb(179,177,178);" />
<path d="M 1917.267,1814.475 A 522.500,522.500 0.00 0,1 1850.7,1887.4 L 1850.7,1887.4 1836.3,1871.8 1821.5,1856.6 1806.4,1841.9 1791.0,1827.6 1775.3,1814.0 1759.4,1801.1 1743.3,1788.9 1727.1,1777.7 1710.8,1767.4 1694.3,1758.0 1677.9,1749.8 1661.4,1742.6 1645.0,1736.6 1628.6,1731.8 1612.3,1728.2 1596.1,1725.8 1580.1,1724.7 1564.3,1724.9 1548.6,1726.4 1533.1,1729.2 1517.9,1733.2 1503.0,1738.5 1488.3,1745.1 1474.0,1753.0 1460.0,1762.0 1446.3,1772.2 1433.0,1783.6 1420.0,1796.0 1407.5,1809.5 1395.3,1824.0 1383.6,1839.3 1372.3,1855.5 1361.4,1872.5 1351.0,1890.1 1341.0,1908.3 1331.5,1927.0 1322.5,1946.1 1313.9,1965.5 1305.8,1985.1  A 522.500,522.500 0.00 0,1 1218.1,1939.9 L 1218.1,1939.9 1230.1,1921.5 1242.7,1903.4 1255.9,1885.5 1269.5,1868.1 1283.6,1851.1 1298.3,1834.6 1313.4,1818.7 1328.9,1803.6 1344.9,1789.1 1361.3,1775.5 1378.2,1762.7 1395.4,1750.9 1412.9,1739.9 1430.9,1730.0 1449.1,1721.0 1467.7,1713.2 1486.6,1706.3 1505.7,1700.6 1525.1,1696.0 1544.6,1692.5 1564.4,1690.1 1584.3,1688.8 1604.4,1688.6 1624.5,1689.6 1644.7,1691.6 1665.0,1694.7 1685.3,1698.8 1705.6,1704.0 1725.8,1710.1 1745.9,1717.2 1765.9,1725.2 1785.8,1734.0 1805.4,1743.6 1824.9,1754.0 1844.1,1765.0 1862.9,1776.7 1881.4,1788.8 1899.6,1801.5 1917.3,1814.5  Z" style="stroke-width: 0.5;  stroke: rgb(0,0,0); fill: rgb(179,177,178);" />
<path d="M 1919.410,1188.389 A 522.500,522.500 0.00 0,1 1957.0,1246.7 L 1957.0,1246.7 1935.1,1258.6 1913.0,1270.4 1890.5,1281.9 1867.7,1293.2 1844.6,1304.3 1821.3,1315.1 1797.6,1325.6 1773.8,1335.8 1749.6,1345.7 1725.3,1355.2 1700.7,1364.3 1675.9,1373.0 1650.9,1381.4 1625.8,1389.4 1600.4,1396.9 1574.9,1404.0 1549.3,1410.7 1523.5,1416.9 1497.7,1422.7 1471.7,1428.1 1445.6,1433.0 1419.5,1437.4 1393.3,1441.4 1367.0,1444.9 1340.8,1447.9 1314.5,1450.6 1288.3,1452.7 1262.0,1454.5 1235.8,1455.8 1209.7,1456.6 1183.7,1457.1 1157.7,1457.2 1131.9,1456.8 1106.1,1456.1 1080.6,1455.0 1055.2,1453.6 1029.9,1451.9 1004.9,1449.8 980.1,1447.5  A 522.500,522.500 0.00 0,1 991.7,1379.0 L 991.7,1379.0 1015.2,1384.4 1039.0,1389.4 1063.0,1394.1 1087.3,1398.3 1111.9,1402.0 1136.6,1405.3 1161.6,1408.0 1186.6,1410.2 1211.8,1411.9 1237.1,1413.0 1262.5,1413.6 1287.9,1413.5 1313.4,1412.8 1338.8,1411.5 1364.3,1409.6 1389.7,1407.0 1415.0,1403.8 1440.3,1399.9 1465.5,1395.4 1490.5,1390.2 1515.4,1384.5 1540.1,1378.0 1564.7,1371.0 1589.1,1363.4 1613.2,1355.1 1637.1,1346.3 1660.8,1336.9 1684.2,1326.9 1707.3,1316.4 1730.1,1305.4 1752.6,1293.9 1774.7,1282.0 1796.6,1269.6 1818.0,1256.9 1839.1,1243.8 1859.8,1230.3 1880.1,1216.6 1900.0,1202.6 1919.4,1188.4  Z" style="stroke-width: 0.5;  stroke: rgb(0,0,0); fill: rgb(179,177,178);" />
<path d="M 2015.524,1585.098 A 522.500,522.500 0.00 0,1 2001.6,1646.2 L 2001.6,1646.2 1978.6,1639.7 1955.3,1633.6 1931.6,1627.9 1907.7,1622.6 1883.5,1617.8 1859.1,1613.4 1834.5,1609.7 1809.8,1606.4 1784.8,1603.7 1759.8,1601.7 1734.7,1600.2 1709.5,1599.4 1684.3,1599.2 1659.1,1599.7 1633.8,1600.8 1608.6,1602.6 1583.5,1605.2 1558.4,1608.3 1533.4,1612.2 1508.5,1616.8 1483.8,1622.0 1459.2,1627.9 1434.7,1634.5 1410.5,1641.7 1386.5,1649.6 1362.7,1658.0 1339.2,1667.1 1316.0,1676.8 1293.0,1687.1 1270.3,1697.9 1248.0,1709.2 1226.0,1721.0 1204.3,1733.3 1183.0,1745.9 1162.1,1759.0 1141.6,1772.4 1121.5,1786.1 1101.9,1800.1 1082.6,1814.4  A 522.500,522.500 0.00 0,1 1048.0,1762.1 L 1048.0,1762.1 1069.4,1749.9 1091.2,1737.9 1113.3,1726.1 1135.7,1714.6 1158.4,1703.3 1181.5,1692.4 1204.8,1681.8 1228.4,1671.5 1252.3,1661.7 1276.4,1652.2 1300.8,1643.2 1325.4,1634.6 1350.2,1626.4 1375.2,1618.7 1400.4,1611.5 1425.8,1604.7 1451.3,1598.5 1476.9,1592.7 1502.6,1587.5 1528.5,1582.7 1554.4,1578.5 1580.4,1574.8 1606.5,1571.6 1632.6,1569.0 1658.7,1566.8 1684.8,1565.2 1710.9,1564.0 1737.0,1563.4 1763.0,1563.2 1788.9,1563.5 1814.7,1564.3 1840.4,1565.5 1866.0,1567.1 1891.4,1569.2 1916.7,1571.7 1941.7,1574.5 1966.6,1577.7 1991.2,1581.2 2015.5,1585.1  Z" style="stroke-width: 0.5;  stroke: rgb(0,0,0); fill: rgb(179,177,178);" />
<path d="M 1954.857,1757.121 A 522.500,522.500 0.00 0,1 1927.3,1800.8 L 1927.3,1800.8 1909.0,1788.3 1890.3,1776.1 1871.3,1764.4 1851.9,1753.3 1832.2,1742.8 1812.2,1732.9 1792.0,1723.8 1771.6,1715.4 1751.0,1707.9 1730.4,1701.2 1709.6,1695.5 1688.8,1690.7 1667.9,1686.9 1647.1,1684.1 1626.3,1682.4 1605.5,1681.7 1584.9,1682.1 1564.4,1683.6 1544.1,1686.2 1523.9,1689.8 1503.9,1694.5 1484.2,1700.3 1464.7,1707.2 1445.6,1715.1 1426.7,1724.0 1408.1,1733.9 1389.9,1744.7 1372.1,1756.5 1354.6,1769.1 1337.6,1782.6 1321.0,1796.8 1304.8,1811.8 1289.0,1827.4 1273.8,1843.7 1259.0,1860.4 1244.7,1877.7 1231.0,1895.3 1217.7,1913.2 1205.0,1931.3  A 522.500,522.500 0.00 0,1 1163.9,1900.1 L 1163.9,1900.1 1178.6,1882.9 1193.9,1866.0 1209.7,1849.3 1226.0,1833.1 1242.8,1817.2 1260.1,1801.9 1277.8,1787.1 1295.9,1772.9 1314.5,1759.4 1333.5,1746.6 1352.9,1734.6 1372.6,1723.3 1392.7,1712.9 1413.1,1703.3 1433.8,1694.7 1454.8,1686.9 1476.1,1680.1 1497.6,1674.2 1519.3,1669.2 1541.2,1665.3 1563.2,1662.3 1585.4,1660.3 1607.7,1659.3 1630.1,1659.2 1652.6,1660.1 1675.1,1661.9 1697.5,1664.6 1719.9,1668.3 1742.3,1672.8 1764.6,1678.1 1786.7,1684.3 1808.7,1691.2 1830.4,1698.8 1852.0,1707.2 1873.2,1716.1 1894.2,1725.6 1914.8,1735.7 1935.0,1746.2 1954.9,1757.1  Z" style="stroke-width: 0.5;  stroke: rgb(0,0,0); fill: rgb(179,177,178);" />
<path d="M 1824.195,1909.760 A 522.500,522.500 0.00 0,1 1790.6,1934.2 L 1790.6,1934.2 1778.9,1917.2 1767.0,1900.4 1754.7,1884.0 1742.2,1868.1 1729.6,1852.8 1716.7,1838.2 1703.8,1824.4 1690.7,1811.6 1677.6,1799.7 1664.5,1788.8 1651.4,1779.1 1638.4,1770.6 1625.4,1763.2 1612.5,1757.2 1599.8,1752.4 1587.2,1749.0 1574.8,1747.0 1562.5,1746.3 1550.5,1747.0 1538.8,1749.1 1527.3,1752.6 1516.1,1757.5 1505.1,1763.8 1494.5,1771.4 1484.2,1780.3 1474.3,1790.4 1464.7,1801.8 1455.4,1814.4 1446.5,1828.1 1438.0,1842.8 1429.9,1858.5 1422.2,1875.1 1414.8,1892.5 1407.9,1910.7 1401.3,1929.4 1395.2,1948.7 1389.4,1968.3 1384.1,1988.2 1379.1,2008.3  A 522.500,522.500 0.00 0,1 1339.1,1997.1 L 1339.1,1997.1 1345.7,1977.3 1352.8,1957.6 1360.3,1938.2 1368.3,1919.2 1376.7,1900.7 1385.6,1882.7 1394.9,1865.5 1404.5,1849.1 1414.6,1833.5 1425.2,1818.9 1436.1,1805.3 1447.3,1792.8 1459.0,1781.4 1471.0,1771.1 1483.4,1762.1 1496.1,1754.4 1509.0,1747.9 1522.3,1742.8 1535.9,1738.9 1549.7,1736.5 1563.7,1735.3 1578.0,1735.5 1592.4,1737.0 1607.0,1739.9 1621.7,1744.0 1636.6,1749.4 1651.5,1756.0 1666.4,1763.8 1681.4,1772.8 1696.3,1782.8 1711.2,1793.9 1726.0,1805.9 1740.7,1818.8 1755.3,1832.5 1769.6,1846.9 1783.7,1862.0 1797.5,1877.5 1811.0,1893.5 1824.2,1909.8  Z" style="stroke-width: 0.5;  stroke: rgb(0,0,0); fill: rgb(179,177,178);" />
<path d="M 1850.362,1887.624 A 522.500,522.500 0.00 0,1 1824.8,1909.3 L 1824.8,1909.3 1811.6,1893.1 1798.0,1877.1 1784.2,1861.6 1770.0,1846.5 1755.7,1832.1 1741.1,1818.5 1726.4,1805.6 1711.6,1793.6 1696.6,1782.5 1681.6,1772.5 1666.7,1763.6 1651.7,1755.8 1636.7,1749.2 1621.9,1743.8 1607.1,1739.6 1592.5,1736.8 1578.0,1735.3 1563.8,1735.1 1549.7,1736.3 1535.8,1738.8 1522.2,1742.6 1508.9,1747.7 1495.9,1754.2 1483.2,1762.0 1470.8,1771.0 1458.7,1781.2 1447.0,1792.6 1435.7,1805.1 1424.8,1818.7 1414.3,1833.4 1404.1,1848.9 1394.4,1865.3 1385.1,1882.6 1376.2,1900.5 1367.8,1919.0 1359.8,1938.0 1352.2,1957.4 1345.1,1977.0 1338.4,1996.9  A 522.500,522.500 0.00 0,1 1306.8,1985.5 L 1306.8,1985.5 1314.9,1965.9 1323.4,1946.5 1332.4,1927.4 1341.8,1908.7 1351.8,1890.4 1362.1,1872.8 1373.0,1855.8 1384.2,1839.6 1395.9,1824.2 1408.0,1809.8 1420.5,1796.3 1433.4,1783.8 1446.7,1772.5 1460.3,1762.2 1474.3,1753.2 1488.6,1745.4 1503.3,1738.7 1518.2,1733.4 1533.3,1729.3 1548.7,1726.6 1564.4,1725.1 1580.2,1724.9 1596.2,1726.0 1612.4,1728.3 1628.6,1732.0 1645.0,1736.8 1661.4,1742.8 1677.8,1750.0 1694.2,1758.2 1710.6,1767.6 1727.0,1777.9 1743.2,1789.2 1759.2,1801.3 1775.1,1814.2 1790.8,1827.8 1806.2,1842.1 1821.2,1856.9 1836.0,1872.1 1850.4,1887.6  Z" style="stroke-width: 0.5;  stroke: rgb(0,0,0); fill: rgb(179,177,178);" />
<path d="M 2018.768,1562.337 A 522.500,522.500 0.00 0,1 2016.6,1578.4 L 2016.6,1578.4 1992.1,1574.8 1967.4,1571.6 1942.4,1568.6 1917.2,1566.1 1891.9,1563.8 1866.3,1562.0 1840.7,1560.6 1814.8,1559.6 1788.9,1559.0 1762.9,1558.8 1736.8,1559.1 1710.7,1559.9 1684.5,1561.1 1658.3,1562.9 1632.1,1565.1 1605.9,1567.8 1579.7,1571.0 1553.6,1574.6 1527.6,1578.8 1501.6,1583.5 1475.7,1588.6 1450.0,1594.3 1424.3,1600.4 1398.8,1607.0 1373.5,1614.1 1348.3,1621.6 1323.4,1629.5 1298.6,1637.9 1274.0,1646.7 1249.7,1655.9 1225.6,1665.5 1201.8,1675.4 1178.2,1685.7 1154.9,1696.3 1131.9,1707.2 1109.2,1718.4 1086.8,1729.8 1064.8,1741.5 1043.0,1753.4  A 522.500,522.500 0.00 0,1 1035.4,1739.1 L 1035.4,1739.1 1057.7,1727.8 1080.2,1716.7 1103.1,1705.8 1126.2,1695.2 1149.6,1684.8 1173.3,1674.7 1197.3,1664.9 1221.4,1655.4 1245.9,1646.2 1270.5,1637.4 1295.4,1628.9 1320.4,1620.8 1345.6,1613.2 1371.0,1605.9 1396.6,1599.0 1422.3,1592.6 1448.1,1586.5 1474.1,1581.0 1500.1,1575.8 1526.3,1571.1 1552.5,1566.9 1578.8,1563.1 1605.1,1559.7 1631.4,1556.8 1657.8,1554.3 1684.1,1552.3 1710.4,1550.7 1736.7,1549.6 1763.0,1548.9 1789.1,1548.5 1815.2,1548.6 1841.2,1549.1 1867.1,1550.0 1892.8,1551.2 1918.4,1552.8 1943.8,1554.7 1969.0,1557.0 1994.0,1559.5 2018.8,1562.3  Z" style="stroke-width: 0.5;  stroke: rgb(0,0,0); fill: rgb(179,177,178);" />
<path d="M 1926.390,1801.990 A 522.500,522.500 0.00 0,1 1918.4,1813.0 L 1918.4,1813.0 1900.6,1800.1 1882.4,1787.5 1863.9,1775.4 1844.9,1763.8 1825.7,1752.8 1806.2,1742.5 1786.5,1732.9 1766.6,1724.2 1746.5,1716.2 1726.4,1709.2 1706.1,1703.1 1685.8,1698.0 1665.4,1693.9 1645.1,1690.9 1624.8,1688.9 1604.6,1688.0 1584.5,1688.2 1564.6,1689.5 1544.8,1692.0 1525.2,1695.5 1505.8,1700.1 1486.6,1705.9 1467.7,1712.7 1449.1,1720.6 1430.8,1729.6 1412.8,1739.5 1395.2,1750.5 1377.9,1762.4 1361.1,1775.1 1344.6,1788.8 1328.6,1803.2 1313.0,1818.4 1297.9,1834.2 1283.2,1850.7 1269.0,1867.7 1255.4,1885.2 1242.2,1903.0 1229.6,1921.2 1217.5,1939.5  A 522.500,522.500 0.00 0,1 1206.1,1932.0 L 1206.1,1932.0 1218.7,1913.9 1231.9,1895.9 1245.6,1878.3 1259.9,1861.1 1274.6,1844.3 1289.8,1828.0 1305.5,1812.4 1321.6,1797.4 1338.2,1783.1 1355.2,1769.6 1372.6,1757.0 1390.4,1745.2 1408.5,1734.4 1427.0,1724.5 1445.8,1715.6 1465.0,1707.7 1484.4,1700.8 1504.1,1695.1 1524.0,1690.3 1544.1,1686.7 1564.4,1684.2 1584.8,1682.7 1605.4,1682.3 1626.1,1683.0 1646.9,1684.8 1667.7,1687.6 1688.5,1691.4 1709.2,1696.2 1730.0,1702.0 1750.6,1708.7 1771.1,1716.3 1791.5,1724.7 1811.6,1733.9 1831.6,1743.8 1851.2,1754.3 1870.6,1765.5 1889.6,1777.3 1908.2,1789.4 1926.4,1802.0  Z" style="stroke-width: 0.5;  stroke: rgb(0,0,0); fill: rgb(179,177,178);" />
</g>
<g id="plot0">
<g id="plot0-axis">
</g>
<line x1='2243.1' y1='1601.2' x2='2243.1' y2='1601.2' style="stroke-width:14.0;stroke:rgb(0,0,0);stroke-linecap:round;fill:none;" />
<line x1='2243.1' y1='1601.2' x2='2282.8' y2='1606.6' style="stroke-width:14.0;stroke:rgb(0,0,0);stroke-linecap:round;fill:none;" />
<line x1='2282.8' y1='1606.6' x2='2282.8' y2='1606.6' style="stroke-width:14.0;stroke:rgb(0,0,0);stroke-linecap:round;fill:none;" />
<text x="2299.3" y="1631.1" font-size="46.8px" font-family="CMUBright-Roman" style="text-anchor:start;fill:rgb(255,38,78);" transform="rotate(7.8,2299.3,1631.1)" >Histocap136P07<tspan baseline-shift="-40%" font-size="90%">s</tspan>01792</text>
</g>
<defs>
<pattern id="hline-sparse" width="10" height="10" patternTransform="rotate(0 0 0)" patternUnits="userSpaceOnUse"><line x1="0" y1="0" x2="10" y2="0" style="stroke:black;stroke-width:2" /></pattern>
<pattern id="checker" width="10" height="10" patternTransform="rotate(45 0 0)" patternUnits="userSpaceOnUse"><line x1="0" y1="0" x2="10" y2="0" style="stroke:black;stroke-width:2" /><line x1="0" y1="0" x2="0" y2="10" style="stroke:black;stroke-width:2" /></pattern>
<pattern id="checker" width="10" height="10" patternTransform="rotate(45 0 0)" patternUnits="userSpaceOnUse"><line x1="0" y1="0" x2="10" y2="0" style="stroke:black;stroke-width:5" /><line x1="0" y1="0" x2="0" y2="10" style="stroke:black;stroke-width:4" /></pattern>
<pattern id="vline-sparse" width="10" height="10" patternTransform="rotate(0 0 0)" patternUnits="userSpaceOnUse"><line x1="0" y1="0" x2="0" y2="10" style="stroke:black;stroke-width:2" /></pattern>
<pattern id="vline" width="10" height="10" patternTransform="rotate(0 0 0)" patternUnits="userSpaceOnUse"><line x1="0" y1="0" x2="0" y2="10" style="stroke:black;stroke-width:5" /></pattern>
<pattern id="hline" width="10" height="10" patternTransform="rotate(0 0 0)" patternUnits="userSpaceOnUse"><line x1="0" y1="0" x2="10" y2="0" style="stroke:black;stroke-width:5" /></pattern>
</defs>
</svg>
