<?xml version="1.0" encoding="utf-8" standalone="no"?>
<!DOCTYPE svg PUBLIC "-//W3C//DTD SVG 1.1//EN" "http://www.w3.org/Graphics/SVG/1.1/DTD/svg11.dtd">
<svg width="3000px" height="3000px" version="1.1" xmlns="http://www.w3.org/2000/svg" xmlns:xlink="http://www.w3.org/1999/xlink">
<g id="bg">
<rect x="0" y="0" width="3000px" height="3000px" style="fill:rgb(255,255,255);"/>
</g>
<g id="ideograms">
<path d="M1500.000,950.000 A550.000,550.000 40.000 1,1 984.883,1692.754 L797.567,1762.847 A750.000,750.000 0.000 1,0 1500.000,750.000 Z" style="stroke-width:2.0;stroke:rgb(0,0,0);stroke-linecap:round;fill:rgb(179,177,178);" />
<text x="2337.3" y="2080.7" font-size="46.8px" font-family="CMUBright-Roman" style="text-anchor:middle;fill:rgb(0,0,0);" transform="rotate(-55.3,2337.3,2080.7)" >Histocap144p08<tspan baseline-shift="-40%" font-size="90%">6</tspan></text>
<line x1='1587.1' y1='755.1' x2='1588.5' y2='743.2' style="stroke-width:8.0;stroke:rgb(150,150,150);stroke-linecap:round;fill:none;" />
<line x1='1738.2' y1='788.8' x2='1742.0' y2='777.5' style="stroke-width:8.0;stroke:rgb(150,150,150);stroke-linecap:round;fill:none;" />
<line x1='1879.1' y1='852.9' x2='1885.2' y2='842.5' style="stroke-width:8.0;stroke:rgb(150,150,150);stroke-linecap:round;fill:none;" />
<text x="1903.3" y="839.4" font-size="41.6px" font-family="CMUBright-Roman" style="text-anchor:start;fill:rgb(150,150,150);" transform="rotate(300.4,1903.3,839.4)" >5250 kb</text>
<line x1='2003.9' y1='944.5' x2='2012.0' y2='935.6' style="stroke-width:8.0;stroke:rgb(150,150,150);stroke-linecap:round;fill:none;" />
<line x1='2107.2' y1='1059.8' x2='2117.0' y2='1052.8' style="stroke-width:8.0;stroke:rgb(150,150,150);stroke-linecap:round;fill:none;" />
<line x1='2184.7' y1='1193.9' x2='2195.6' y2='1189.0' style="stroke-width:8.0;stroke:rgb(150,150,150);stroke-linecap:round;fill:none;" />
<line x1='2232.9' y1='1341.0' x2='2244.7' y2='1338.4' style="stroke-width:8.0;stroke:rgb(150,150,150);stroke-linecap:round;fill:none;" />
<line x1='2250.0' y1='1494.8' x2='2262.0' y2='1494.7' style="stroke-width:8.0;stroke:rgb(150,150,150);stroke-linecap:round;fill:none;" />
<text x="2274.0" y="1508.7" font-size="41.6px" font-family="CMUBright-Roman" style="text-anchor:start;fill:rgb(150,150,150);" transform="rotate(359.6,2274.0,1508.7)" >5300 kb</text>
<line x1='2235.1' y1='1648.9' x2='2246.8' y2='1651.3' style="stroke-width:8.0;stroke:rgb(150,150,150);stroke-linecap:round;fill:none;" />
<line x1='2188.8' y1='1796.7' x2='2199.9' y2='1801.4' style="stroke-width:8.0;stroke:rgb(150,150,150);stroke-linecap:round;fill:none;" />
<line x1='2113.3' y1='1931.8' x2='2123.1' y2='1938.7' style="stroke-width:8.0;stroke:rgb(150,150,150);stroke-linecap:round;fill:none;" />
<line x1='2011.5' y1='2048.5' x2='2019.7' y2='2057.2' style="stroke-width:8.0;stroke:rgb(150,150,150);stroke-linecap:round;fill:none;" />
<line x1='1888.0' y1='2141.8' x2='1894.3' y2='2152.1' style="stroke-width:8.0;stroke:rgb(150,150,150);stroke-linecap:round;fill:none;" />
<text x="1888.4" y="2169.5" font-size="41.6px" font-family="CMUBright-Roman" style="text-anchor:start;fill:rgb(150,150,150);" transform="rotate(58.8,1888.4,2169.5)" >5350 kb</text>
<line x1='1748.0' y1='2207.8' x2='1752.0' y2='2219.1' style="stroke-width:8.0;stroke:rgb(150,150,150);stroke-linecap:round;fill:none;" />
<line x1='1597.4' y1='2243.6' x2='1599.0' y2='2255.5' style="stroke-width:8.0;stroke:rgb(150,150,150);stroke-linecap:round;fill:none;" />
<line x1='1442.7' y1='2247.8' x2='1441.7' y2='2259.8' style="stroke-width:8.0;stroke:rgb(150,150,150);stroke-linecap:round;fill:none;" />
<line x1='1290.3' y1='2220.1' x2='1287.0' y2='2231.6' style="stroke-width:8.0;stroke:rgb(150,150,150);stroke-linecap:round;fill:none;" />
<line x1='1147.0' y1='2161.7' x2='1141.3' y2='2172.3' style="stroke-width:8.0;stroke:rgb(150,150,150);stroke-linecap:round;fill:none;" />
<text x="1148.1" y="2189.4" font-size="41.6px" font-family="CMUBright-Roman" style="text-anchor:end;fill:rgb(150,150,150);" transform="rotate(-61.9,1148.1,2189.4)" >5400 kb</text>
<line x1='1018.6' y1='2075.1' x2='1010.9' y2='2084.3' style="stroke-width:8.0;stroke:rgb(150,150,150);stroke-linecap:round;fill:none;" />
<line x1='910.8' y1='1964.1' x2='901.4' y2='1971.5' style="stroke-width:8.0;stroke:rgb(150,150,150);stroke-linecap:round;fill:none;" />
<line x1='828.1' y1='1833.2' x2='817.3' y2='1838.5' style="stroke-width:8.0;stroke:rgb(150,150,150);stroke-linecap:round;fill:none;" />
<g id="highlighttrack_0">
<path d="M1983.459,1762.235 A550.000,550.000 40.000 0,1 1594.386,2041.841 L1628.708,2238.874 A750.000,750.000 0.000 0,0 2159.263,1857.593 Z" style="stroke-width:14.0;stroke:rgb(0,0,0);stroke-linecap:round;fill:rgb(255,38,78);" />
</g>
<path d="M1500.000,950.000 A550.000,550.000 40.000 1,1 984.883,1692.754 L797.567,1762.847 A750.000,750.000 0.000 1,0 1500.000,750.000 Z" style="stroke-width:2.0;stroke:rgb(0,0,0);stroke-linecap:round;fill:none;" />
<path d="M968.808,1357.397 A550.000,550.000 40.000 0,1 1180.279,1052.475 L1064.017,889.739 A750.000,750.000 0.000 0,0 775.648,1305.542 Z" style="stroke-width:2.0;stroke:rgb(0,0,0);stroke-linecap:round;fill:rgb(179,177,178);" />
<text x="698.8" y="944.4" font-size="46.8px" font-family="CMUBright-Roman" style="text-anchor:middle;fill:rgb(0,0,0);" transform="rotate(-55.3,698.8,944.4)" >HistocapHISSPFGFER2036<tspan baseline-shift="-40%" font-size="90%">2</tspan>14</text>
<line x1='831.0' y1='1161.0' x2='820.3' y2='1155.6' style="stroke-width:8.0;stroke:rgb(150,150,150);stroke-linecap:round;fill:none;" />
<line x1='914.9' y1='1030.9' x2='905.5' y2='1023.3' style="stroke-width:8.0;stroke:rgb(150,150,150);stroke-linecap:round;fill:none;" />
<line x1='1023.6' y1='920.7' x2='1016.0' y2='911.4' style="stroke-width:8.0;stroke:rgb(150,150,150);stroke-linecap:round;fill:none;" />
<path d="M968.808,1357.397 A550.000,550.000 40.000 0,1 1180.279,1052.475 L1064.017,889.739 A750.000,750.000 0.000 0,0 775.648,1305.542 Z" style="stroke-width:2.0;stroke:rgb(0,0,0);stroke-linecap:round;fill:none;" />
</g>
<g id="track_0">
<path d="M 1552.662,2019.839 A 522.500,522.500 0.00 0,1 1447.6,2019.9 L 1447.6,2019.9 1449.7,1996.8 1451.3,1973.6 1452.3,1950.1 1452.8,1926.4 1452.6,1902.7 1451.9,1878.9 1450.4,1855.1 1448.3,1831.3 1445.5,1807.6 1441.9,1784.0 1437.6,1760.5 1432.5,1737.2 1426.6,1714.1 1420.0,1691.3 1412.6,1668.7 1404.3,1646.5 1395.3,1624.6 1385.5,1603.0 1374.9,1581.9 1363.6,1561.1 1351.5,1540.8 1338.6,1520.9 1325.0,1501.5 1310.7,1482.5 1295.8,1464.1 1280.1,1446.2 1263.9,1428.8 1247.0,1411.9 1229.6,1395.6 1211.6,1379.9 1193.2,1364.7 1174.3,1350.1 1155.1,1336.0 1135.4,1322.5 1115.5,1309.6 1095.4,1297.2 1075.0,1285.4 1054.6,1274.2 1034.1,1263.5  A 522.500,522.500 0.00 0,1 1091.5,1174.3 L 1091.5,1174.3 1110.4,1189.6 1129.2,1205.3 1147.9,1221.5 1166.4,1238.1 1184.8,1255.2 1202.9,1272.7 1220.8,1290.6 1238.4,1309.0 1255.6,1327.7 1272.6,1346.9 1289.2,1366.5 1305.3,1386.5 1321.1,1406.8 1336.4,1427.6 1351.3,1448.7 1365.7,1470.2 1379.7,1492.0 1393.1,1514.1 1406.0,1536.5 1418.4,1559.2 1430.3,1582.3 1441.6,1605.5 1452.4,1629.0 1462.6,1652.8 1472.3,1676.7 1481.5,1700.8 1490.0,1725.1 1498.1,1749.6 1505.6,1774.1 1512.5,1798.7 1519.0,1823.4 1524.9,1848.1 1530.3,1872.9 1535.1,1897.6 1539.6,1922.2 1543.5,1946.8 1547.0,1971.3 1550.0,1995.7 1552.7,2019.8  Z" style="stroke-width: 0.5;  stroke: rgb(0,0,0); fill: rgb(179,177,178);" />
<path d="M 1427.399,2017.431 A 522.500,522.500 0.00 0,1 1341.6,1997.9 L 1341.6,1997.9 1348.0,1976.8 1353.9,1955.4 1359.3,1933.9 1364.1,1912.1 1368.2,1890.3 1371.5,1868.4 1374.1,1846.5 1375.9,1824.7 1376.9,1803.0 1376.9,1781.5 1376.1,1760.1 1374.3,1739.1 1371.5,1718.3 1367.8,1697.9 1363.1,1677.8 1357.4,1658.2 1350.7,1639.0 1343.0,1620.2 1334.3,1602.0 1324.7,1584.3 1314.0,1567.1 1302.4,1550.5 1289.9,1534.5 1276.4,1519.1 1262.1,1504.3 1246.9,1490.2 1230.9,1476.6 1214.1,1463.8 1196.7,1451.5 1178.5,1439.9 1159.7,1429.0 1140.4,1418.7 1120.6,1409.1 1100.4,1400.1 1079.8,1391.8 1058.9,1384.0 1037.8,1376.9 1016.6,1370.3 995.4,1364.4  A 522.500,522.500 0.00 0,1 1025.1,1282.0 L 1025.1,1282.0 1045.8,1291.8 1066.5,1302.2 1087.1,1313.1 1107.4,1324.6 1127.5,1336.7 1147.3,1349.3 1166.8,1362.6 1185.8,1376.4 1204.4,1390.9 1222.4,1405.9 1239.9,1421.4 1256.8,1437.6 1273.1,1454.3 1288.7,1471.6 1303.6,1489.4 1317.8,1507.7 1331.3,1526.6 1343.9,1545.9 1355.8,1565.7 1366.9,1586.0 1377.2,1606.7 1386.6,1627.8 1395.2,1649.2 1403.0,1671.1 1410.0,1693.2 1416.1,1715.7 1421.4,1738.4 1425.9,1761.4 1429.5,1784.5 1432.4,1807.8 1434.6,1831.2 1436.0,1854.7 1436.6,1878.2 1436.6,1901.7 1435.9,1925.2 1434.6,1948.5 1432.8,1971.7 1430.3,1994.7 1427.4,2017.4  Z" style="stroke-width: 0.5;  stroke: rgb(0,0,0); fill: rgb(179,177,178);" />
<path d="M 1983.521,1698.025 A 522.500,522.500 0.00 0,1 1959.8,1748.2 L 1959.8,1748.2 1937.1,1735.9 1914.4,1723.3 1891.6,1710.6 1868.9,1697.6 1846.2,1684.4 1823.4,1671.0 1800.8,1657.4 1778.1,1643.6 1755.5,1629.6 1733.0,1615.3 1710.5,1600.8 1688.1,1586.1 1665.8,1571.2 1643.6,1556.1 1621.5,1540.7 1599.5,1525.2 1577.6,1509.4 1555.8,1493.5 1534.2,1477.3 1512.8,1461.0 1491.4,1444.4 1470.3,1427.7 1449.3,1410.8 1428.4,1393.8 1407.7,1376.5 1387.2,1359.2 1366.9,1341.6 1346.8,1324.0 1326.9,1306.1 1307.1,1288.2 1287.5,1270.2 1268.2,1252.0 1249.0,1233.8 1230.1,1215.4 1211.3,1197.0 1192.8,1178.6 1174.4,1160.0 1156.3,1141.5 1138.3,1122.9  A 522.500,522.500 0.00 0,1 1180.5,1086.5 L 1180.5,1086.5 1196.0,1106.4 1211.8,1126.2 1228.0,1145.9 1244.4,1165.6 1261.2,1185.2 1278.3,1204.7 1295.8,1224.0 1313.6,1243.2 1331.7,1262.2 1350.1,1281.0 1368.8,1299.7 1387.8,1318.1 1407.2,1336.2 1426.8,1354.2 1446.7,1371.8 1466.9,1389.2 1487.4,1406.3 1508.2,1423.1 1529.2,1439.6 1550.4,1455.8 1571.9,1471.7 1593.6,1487.2 1615.6,1502.4 1637.7,1517.3 1660.0,1531.8 1682.5,1545.9 1705.2,1559.8 1728.0,1573.2 1750.9,1586.3 1774.0,1599.0 1797.1,1611.4 1820.4,1623.5 1843.6,1635.1 1867.0,1646.5 1890.3,1657.4 1913.7,1668.1 1937.0,1678.4 1960.3,1688.4 1983.5,1698.0  Z" style="stroke-width: 0.5;  stroke: rgb(0,0,0); fill: rgb(179,177,178);" />
<path d="M 1589.667,2014.749 A 522.500,522.500 0.00 0,1 1572.7,2017.4 L 1572.7,2017.4 1569.1,1993.0 1565.1,1968.4 1560.8,1943.7 1556.0,1918.9 1550.9,1894.0 1545.3,1869.1 1539.2,1844.2 1532.8,1819.2 1525.8,1794.3 1518.5,1769.4 1510.6,1744.5 1502.3,1719.8 1493.5,1695.2 1484.2,1670.7 1474.5,1646.3 1464.2,1622.1 1453.5,1598.1 1442.4,1574.2 1430.7,1550.6 1418.6,1527.2 1406.1,1504.1 1393.1,1481.2 1379.7,1458.6 1365.9,1436.3 1351.6,1414.2 1337.0,1392.5 1322.0,1371.1 1306.6,1350.0 1290.9,1329.2 1274.8,1308.8 1258.5,1288.7 1241.9,1269.0 1225.0,1249.7 1207.9,1230.7 1190.6,1212.1 1173.1,1193.9 1155.4,1176.1 1137.7,1158.6 1119.8,1141.6  A 522.500,522.500 0.00 0,1 1131.9,1129.2 L 1131.9,1129.2 1149.3,1147.0 1166.7,1165.1 1183.9,1183.6 1201.0,1202.4 1217.9,1221.6 1234.6,1241.1 1251.2,1261.0 1267.4,1281.2 1283.5,1301.8 1299.2,1322.6 1314.7,1343.8 1329.8,1365.3 1344.7,1387.0 1359.2,1409.1 1373.3,1431.4 1387.0,1454.0 1400.4,1476.9 1413.4,1500.0 1426.0,1523.3 1438.2,1546.9 1449.9,1570.7 1461.3,1594.6 1472.2,1618.7 1482.7,1643.0 1492.7,1667.5 1502.4,1692.1 1511.5,1716.7 1520.3,1741.5 1528.6,1766.4 1536.5,1791.3 1544.0,1816.2 1551.1,1841.2 1557.7,1866.2 1564.0,1891.1 1569.9,1916.0 1575.4,1940.9 1580.5,1965.6 1585.2,1990.3 1589.7,2014.7  Z" style="stroke-width: 0.5;  stroke: rgb(0,0,0); fill: rgb(179,177,178);" />
</g>
<g id="plot0">
<g id="plot0-axis">
</g>
<line x1='1744.1' y1='2209.2' x2='1744.1' y2='2209.2' style="stroke-width:14.0;stroke:rgb(0,0,0);stroke-linecap:round;fill:none;" />
<line x1='1744.1' y1='2209.2' x2='1757.1' y2='2247.0' style="stroke-width:14.0;stroke:rgb(0,0,0);stroke-linecap:round;fill:none;" />
<line x1='1757.1' y1='2247.0' x2='1757.1' y2='2247.0' style="stroke-width:14.0;stroke:rgb(0,0,0);stroke-linecap:round;fill:none;" />
<text x="1742.7" y="2272.8" font-size="46.8px" font-family="CMUBright-Roman" style="text-anchor:start;fill:rgb(255,38,78);" transform="rotate(71.0,1742.7,2272.8)" >Histocap144p08<tspan baseline-shift="-40%" font-size="90%">s</tspan>01870</text>
</g>
<defs>
<pattern id="vline" width="10" height="10" patternTransform="rotate(0 0 0)" patternUnits="userSpaceOnUse"><line x1="0" y1="0" x2="0" y2="10" style="stroke:black;stroke-width:5" /></pattern>
<pattern id="hline" width="10" height="10" patternTransform="rotate(0 0 0)" patternUnits="userSpaceOnUse"><line x1="0" y1="0" x2="10" y2="0" style="stroke:black;stroke-width:5" /></pattern>
<pattern id="checker" width="10" height="10" patternTransform="rotate(45 0 0)" patternUnits="userSpaceOnUse"><line x1="0" y1="0" x2="10" y2="0" style="stroke:black;stroke-width:5" /><line x1="0" y1="0" x2="0" y2="10" style="stroke:black;stroke-width:4" /></pattern>
<pattern id="vline-sparse" width="10" height="10" patternTransform="rotate(0 0 0)" patternUnits="userSpaceOnUse"><line x1="0" y1="0" x2="0" y2="10" style="stroke:black;stroke-width:2" /></pattern>
<pattern id="hline-sparse" width="10" height="10" patternTransform="rotate(0 0 0)" patternUnits="userSpaceOnUse"><line x1="0" y1="0" x2="10" y2="0" style="stroke:black;stroke-width:2" /></pattern>
<pattern id="checker" width="10" height="10" patternTransform="rotate(45 0 0)" patternUnits="userSpaceOnUse"><line x1="0" y1="0" x2="10" y2="0" style="stroke:black;stroke-width:2" /><line x1="0" y1="0" x2="0" y2="10" style="stroke:black;stroke-width:2" /></pattern>
</defs>
</svg>
