<?xml version="1.0" encoding="utf-8" standalone="no"?>
<!DOCTYPE svg PUBLIC "-//W3C//DTD SVG 1.1//EN" "http://www.w3.org/Graphics/SVG/1.1/DTD/svg11.dtd">
<svg width="3000px" height="3000px" version="1.1" xmlns="http://www.w3.org/2000/svg" xmlns:xlink="http://www.w3.org/1999/xlink">
<g id="bg">
<rect x="0" y="0" width="3000px" height="3000px" style="fill:rgb(255,255,255);"/>
</g>
<g id="ideograms">
<path d="M1500.000,950.000 A550.000,550.000 40.000 0,1 1646.113,2030.237 L1699.245,2223.050 A750.000,750.000 0.000 0,0 1500.000,750.000 Z" style="stroke-width:2.0;stroke:rgb(0,0,0);stroke-linecap:round;fill:rgb(179,177,178);" />
<text x="2466.2" y="1369.3" font-size="46.8px" font-family="CMUBright-Roman" style="text-anchor:middle;fill:rgb(0,0,0);" transform="rotate(442.3,2466.2,1369.3)" >HistomissSECH83<tspan baseline-shift="-40%" font-size="90%">5</tspan></text>
<line x1='1565.4' y1='752.9' x2='1566.4' y2='740.9' style="stroke-width:8.0;stroke:rgb(150,150,150);stroke-linecap:round;fill:none;" />
<text x="1581.4" y="730.3" font-size="41.6px" font-family="CMUBright-Roman" style="text-anchor:start;fill:rgb(150,150,150);" transform="rotate(275.0,1581.4,730.3)" >1500 kb</text>
<line x1='1662.5' y1='767.8' x2='1665.1' y2='756.1' style="stroke-width:8.0;stroke:rgb(150,150,150);stroke-linecap:round;fill:none;" />
<line x1='1756.9' y1='795.4' x2='1761.0' y2='784.1' style="stroke-width:8.0;stroke:rgb(150,150,150);stroke-linecap:round;fill:none;" />
<line x1='1846.8' y1='835.0' x2='1852.4' y2='824.4' style="stroke-width:8.0;stroke:rgb(150,150,150);stroke-linecap:round;fill:none;" />
<line x1='1930.8' y1='886.1' x2='1937.7' y2='876.3' style="stroke-width:8.0;stroke:rgb(150,150,150);stroke-linecap:round;fill:none;" />
<line x1='2007.4' y1='947.7' x2='2015.5' y2='938.9' style="stroke-width:8.0;stroke:rgb(150,150,150);stroke-linecap:round;fill:none;" />
<text x="2033.9" y="939.6" font-size="41.6px" font-family="CMUBright-Roman" style="text-anchor:start;fill:rgb(150,150,150);" transform="rotate(312.6,2033.9,939.6)" >1550 kb</text>
<line x1='2075.3' y1='1018.8' x2='2084.5' y2='1011.1' style="stroke-width:8.0;stroke:rgb(150,150,150);stroke-linecap:round;fill:none;" />
<line x1='2133.3' y1='1098.2' x2='2143.4' y2='1091.8' style="stroke-width:8.0;stroke:rgb(150,150,150);stroke-linecap:round;fill:none;" />
<line x1='2180.4' y1='1184.5' x2='2191.3' y2='1179.4' style="stroke-width:8.0;stroke:rgb(150,150,150);stroke-linecap:round;fill:none;" />
<line x1='2215.8' y1='1276.2' x2='2227.3' y2='1272.6' style="stroke-width:8.0;stroke:rgb(150,150,150);stroke-linecap:round;fill:none;" />
<line x1='2239.0' y1='1371.7' x2='2250.8' y2='1369.7' style="stroke-width:8.0;stroke:rgb(150,150,150);stroke-linecap:round;fill:none;" />
<text x="2264.9" y="1381.4" font-size="41.6px" font-family="CMUBright-Roman" style="text-anchor:start;fill:rgb(150,150,150);" transform="rotate(350.2,2264.9,1381.4)" >1600 kb</text>
<line x1='2249.4' y1='1469.5' x2='2261.4' y2='1469.0' style="stroke-width:8.0;stroke:rgb(150,150,150);stroke-linecap:round;fill:none;" />
<line x1='2246.9' y1='1567.8' x2='2258.9' y2='1568.8' style="stroke-width:8.0;stroke:rgb(150,150,150);stroke-linecap:round;fill:none;" />
<line x1='2231.7' y1='1664.9' x2='2243.4' y2='1667.5' style="stroke-width:8.0;stroke:rgb(150,150,150);stroke-linecap:round;fill:none;" />
<line x1='2203.8' y1='1759.2' x2='2215.1' y2='1763.3' style="stroke-width:8.0;stroke:rgb(150,150,150);stroke-linecap:round;fill:none;" />
<line x1='2163.9' y1='1849.0' x2='2174.5' y2='1854.6' style="stroke-width:8.0;stroke:rgb(150,150,150);stroke-linecap:round;fill:none;" />
<text x="2178.5" y="1872.5" font-size="41.6px" font-family="CMUBright-Roman" style="text-anchor:start;fill:rgb(150,150,150);" transform="rotate(27.7,2178.5,1872.5)" >1650 kb</text>
<line x1='2112.5' y1='1932.8' x2='2122.3' y2='1939.7' style="stroke-width:8.0;stroke:rgb(150,150,150);stroke-linecap:round;fill:none;" />
<line x1='2050.6' y1='2009.2' x2='2059.5' y2='2017.4' style="stroke-width:8.0;stroke:rgb(150,150,150);stroke-linecap:round;fill:none;" />
<line x1='1979.3' y1='2076.9' x2='1987.0' y2='2086.1' style="stroke-width:8.0;stroke:rgb(150,150,150);stroke-linecap:round;fill:none;" />
<line x1='1899.7' y1='2134.6' x2='1906.1' y2='2144.7' style="stroke-width:8.0;stroke:rgb(150,150,150);stroke-linecap:round;fill:none;" />
<line x1='1813.3' y1='2181.4' x2='1818.3' y2='2192.3' style="stroke-width:8.0;stroke:rgb(150,150,150);stroke-linecap:round;fill:none;" />
<text x="1810.6" y="2209.0" font-size="41.6px" font-family="CMUBright-Roman" style="text-anchor:start;fill:rgb(150,150,150);" transform="rotate(65.3,1810.6,2209.0)" >1700 kb</text>
<line x1='1721.5' y1='2216.5' x2='1725.0' y2='2228.0' style="stroke-width:8.0;stroke:rgb(150,150,150);stroke-linecap:round;fill:none;" />
<g id="highlighttrack_0">
<path d="M2031.640,1359.077 A550.000,550.000 40.000 0,1 2049.974,1494.624 L2249.964,1492.669 A750.000,750.000 0.000 0,0 2224.963,1307.832 Z" style="stroke-width:14.0;stroke:rgb(0,0,0);stroke-linecap:round;fill:rgb(255,38,78);" />
</g>
<path d="M1500.000,950.000 A550.000,550.000 40.000 0,1 1646.113,2030.237 L1699.245,2223.050 A750.000,750.000 0.000 0,0 1500.000,750.000 Z" style="stroke-width:2.0;stroke:rgb(0,0,0);stroke-linecap:round;fill:none;" />
<path d="M1431.638,2045.735 A550.000,550.000 40.000 0,1 1289.115,992.036 L1212.429,807.322 A750.000,750.000 0.000 0,0 1406.779,2244.184 Z" style="stroke-width:2.0;stroke:rgb(0,0,0);stroke-linecap:round;fill:rgb(179,177,178);" />
<text x="489.2" y="1636.7" font-size="46.8px" font-family="CMUBright-Roman" style="text-anchor:middle;fill:rgb(0,0,0);" transform="rotate(82.3,489.2,1636.7)" >HistoohiG217B<tspan baseline-shift="-40%" font-size="90%">J</tspan>AEVHH010000006</text>
<line x1='1368.6' y1='2238.4' x2='1366.5' y2='2250.2' style="stroke-width:8.0;stroke:rgb(150,150,150);stroke-linecap:round;fill:none;" />
<line x1='1273.1' y1='2214.9' x2='1269.5' y2='2226.3' style="stroke-width:8.0;stroke:rgb(150,150,150);stroke-linecap:round;fill:none;" />
<line x1='1181.6' y1='2179.0' x2='1176.5' y2='2189.9' style="stroke-width:8.0;stroke:rgb(150,150,150);stroke-linecap:round;fill:none;" />
<line x1='1095.5' y1='2131.6' x2='1089.0' y2='2141.7' style="stroke-width:8.0;stroke:rgb(150,150,150);stroke-linecap:round;fill:none;" />
<line x1='1016.4' y1='2073.2' x2='1008.6' y2='2082.4' style="stroke-width:8.0;stroke:rgb(150,150,150);stroke-linecap:round;fill:none;" />
<text x="1011.7" y="2100.5" font-size="41.6px" font-family="CMUBright-Roman" style="text-anchor:end;fill:rgb(150,150,150);" transform="rotate(-49.8,1011.7,2100.5)" >900 kb</text>
<line x1='945.5' y1='2005.0' x2='936.7' y2='2013.1' style="stroke-width:8.0;stroke:rgb(150,150,150);stroke-linecap:round;fill:none;" />
<line x1='884.2' y1='1928.2' x2='874.4' y2='1935.0' style="stroke-width:8.0;stroke:rgb(150,150,150);stroke-linecap:round;fill:none;" />
<line x1='833.5' y1='1844.0' x2='822.9' y2='1849.5' style="stroke-width:8.0;stroke:rgb(150,150,150);stroke-linecap:round;fill:none;" />
<line x1='794.3' y1='1753.8' x2='783.0' y2='1757.9' style="stroke-width:8.0;stroke:rgb(150,150,150);stroke-linecap:round;fill:none;" />
<line x1='767.1' y1='1659.4' x2='755.4' y2='1661.9' style="stroke-width:8.0;stroke:rgb(150,150,150);stroke-linecap:round;fill:none;" />
<text x="746.8" y="1678.1" font-size="41.6px" font-family="CMUBright-Roman" style="text-anchor:end;fill:rgb(150,150,150);" transform="rotate(-12.3,746.8,1678.1)" >950 kb</text>
<line x1='752.6' y1='1562.1' x2='740.6' y2='1563.1' style="stroke-width:8.0;stroke:rgb(150,150,150);stroke-linecap:round;fill:none;" />
<line x1='750.9' y1='1463.8' x2='738.9' y2='1463.3' style="stroke-width:8.0;stroke:rgb(150,150,150);stroke-linecap:round;fill:none;" />
<line x1='762.0' y1='1366.2' x2='750.2' y2='1364.0' style="stroke-width:8.0;stroke:rgb(150,150,150);stroke-linecap:round;fill:none;" />
<line x1='785.9' y1='1270.8' x2='774.5' y2='1267.1' style="stroke-width:8.0;stroke:rgb(150,150,150);stroke-linecap:round;fill:none;" />
<line x1='822.0' y1='1179.4' x2='811.1' y2='1174.2' style="stroke-width:8.0;stroke:rgb(150,150,150);stroke-linecap:round;fill:none;" />
<text x="794.4" y="1181.8" font-size="41.6px" font-family="CMUBright-Roman" style="text-anchor:end;fill:rgb(150,150,150);" transform="rotate(25.3,794.4,1181.8)" >1000 kb</text>
<line x1='869.7' y1='1093.5' x2='859.7' y2='1086.9' style="stroke-width:8.0;stroke:rgb(150,150,150);stroke-linecap:round;fill:none;" />
<line x1='928.3' y1='1014.5' x2='919.2' y2='1006.7' style="stroke-width:8.0;stroke:rgb(150,150,150);stroke-linecap:round;fill:none;" />
<line x1='996.7' y1='943.9' x2='988.7' y2='935.0' style="stroke-width:8.0;stroke:rgb(150,150,150);stroke-linecap:round;fill:none;" />
<line x1='1073.8' y1='882.9' x2='1067.0' y2='873.0' style="stroke-width:8.0;stroke:rgb(150,150,150);stroke-linecap:round;fill:none;" />
<line x1='1158.2' y1='832.4' x2='1152.7' y2='821.7' style="stroke-width:8.0;stroke:rgb(150,150,150);stroke-linecap:round;fill:none;" />
<text x="1134.8" y="817.6" font-size="41.6px" font-family="CMUBright-Roman" style="text-anchor:end;fill:rgb(150,150,150);" transform="rotate(62.9,1134.8,817.6)" >1050 kb</text>
<path d="M1431.638,2045.735 A550.000,550.000 40.000 0,1 1289.115,992.036 L1212.429,807.322 A750.000,750.000 0.000 0,0 1406.779,2244.184 Z" style="stroke-width:2.0;stroke:rgb(0,0,0);stroke-linecap:round;fill:none;" />
</g>
<g id="track_0">
<path d="M 1877.737,1139.000 A 522.500,522.500 0.00 0,1 1961.8,1255.6 L 1961.8,1255.6 1939.9,1267.0 1917.6,1278.2 1895.1,1289.1 1872.2,1299.9 1849.0,1310.3 1825.5,1320.4 1801.8,1330.2 1777.7,1339.6 1753.5,1348.6 1729.0,1357.3 1704.2,1365.5 1679.3,1373.3 1654.2,1380.7 1628.9,1387.6 1603.4,1394.0 1577.8,1400.0 1552.1,1405.4 1526.2,1410.4 1500.3,1414.9 1474.2,1418.9 1448.1,1422.4 1422.0,1425.4 1395.8,1427.9 1369.6,1429.8 1343.3,1431.3 1317.1,1432.3 1291.0,1432.8 1264.8,1432.8 1238.8,1432.4 1212.8,1431.5 1187.0,1430.1 1161.2,1428.3 1135.6,1426.1 1110.2,1423.5 1085.0,1420.5 1059.9,1417.1 1035.1,1413.4 1010.5,1409.4 986.2,1405.1  A 522.500,522.500 0.00 0,1 1032.0,1267.7 L 1032.0,1267.7 1052.8,1277.7 1073.9,1287.3 1095.5,1296.6 1117.4,1305.3 1139.6,1313.5 1162.1,1321.1 1184.8,1328.1 1207.7,1334.4 1230.8,1340.0 1254.1,1344.9 1277.5,1349.0 1300.9,1352.3 1324.5,1354.8 1348.1,1356.5 1371.7,1357.3 1395.2,1357.3 1418.8,1356.4 1442.2,1354.6 1465.6,1351.9 1488.8,1348.4 1511.9,1344.0 1534.8,1338.7 1557.6,1332.6 1580.1,1325.6 1602.4,1317.8 1624.4,1309.2 1646.1,1299.8 1667.6,1289.6 1688.7,1278.7 1709.4,1267.2 1729.8,1254.9 1749.8,1242.1 1769.5,1228.7 1788.6,1214.7 1807.4,1200.3 1825.7,1185.5 1843.5,1170.3 1860.9,1154.8 1877.7,1139.0  Z" style="stroke-width: 0.5;  stroke: rgb(0,0,0); fill: rgb(179,177,178);" />
<path d="M 1979.808,1706.859 A 522.500,522.500 0.00 0,1 1937.1,1786.3 L 1937.1,1786.3 1918.0,1774.1 1898.5,1762.3 1878.5,1750.9 1858.2,1740.0 1837.5,1729.6 1816.6,1719.9 1795.3,1710.8 1773.8,1702.4 1752.1,1694.8 1730.2,1688.0 1708.1,1681.9 1685.9,1676.8 1663.6,1672.5 1641.3,1669.2 1618.9,1666.8 1596.5,1665.3 1574.1,1664.8 1551.7,1665.3 1529.4,1666.7 1507.2,1669.1 1485.1,1672.5 1463.2,1676.9 1441.4,1682.2 1419.8,1688.5 1398.5,1695.6 1377.3,1703.7 1356.5,1712.7 1335.9,1722.5 1315.7,1733.1 1295.8,1744.5 1276.2,1756.6 1257.0,1769.4 1238.2,1782.9 1219.8,1796.9 1201.9,1811.5 1184.4,1826.5 1167.4,1841.9 1150.8,1857.7 1134.8,1873.7  A 522.500,522.500 0.00 0,1 1076.0,1805.4 L 1076.0,1805.4 1095.3,1791.8 1115.1,1778.4 1135.2,1765.4 1155.8,1752.7 1176.8,1740.4 1198.2,1728.5 1219.9,1717.2 1242.0,1706.3 1264.4,1696.1 1287.1,1686.4 1310.1,1677.3 1333.3,1668.9 1356.8,1661.1 1380.5,1654.0 1404.4,1647.6 1428.5,1641.9 1452.8,1637.0 1477.1,1632.8 1501.7,1629.4 1526.3,1626.7 1550.9,1624.8 1575.7,1623.6 1600.4,1623.2 1625.1,1623.5 1649.9,1624.6 1674.6,1626.4 1699.2,1629.0 1723.7,1632.2 1748.1,1636.1 1772.3,1640.7 1796.4,1645.9 1820.3,1651.7 1844.0,1658.1 1867.4,1665.1 1890.5,1672.6 1913.4,1680.5 1935.9,1688.9 1958.0,1697.7 1979.8,1706.9  Z" style="stroke-width: 0.5;  stroke: rgb(0,0,0); fill: rgb(179,177,178);" />
<path d="M 1661.632,1003.128 A 522.500,522.500 0.00 0,1 1741.4,1036.6 L 1741.4,1036.6 1731.2,1055.7 1720.4,1074.5 1709.2,1093.1 1697.4,1111.3 1685.1,1129.1 1672.4,1146.3 1659.2,1162.8 1645.5,1178.7 1631.3,1193.7 1616.8,1208.0 1601.8,1221.3 1586.4,1233.7 1570.5,1245.1 1554.4,1255.4 1537.8,1264.6 1521.0,1272.8 1503.8,1279.8 1486.3,1285.6 1468.6,1290.3 1450.6,1293.8 1432.4,1296.1 1414.1,1297.2 1395.5,1297.2 1376.8,1295.9 1358.0,1293.5 1339.2,1290.0 1320.2,1285.4 1301.3,1279.6 1282.4,1272.9 1263.6,1265.2 1244.8,1256.5 1226.2,1246.9 1207.7,1236.5 1189.5,1225.3 1171.5,1213.5 1153.8,1201.0 1136.4,1187.9 1119.3,1174.5 1102.7,1160.6  A 522.500,522.500 0.00 0,1 1163.7,1100.1 L 1163.7,1100.1 1177.4,1116.0 1191.4,1131.6 1205.8,1146.8 1220.4,1161.4 1235.2,1175.5 1250.3,1188.8 1265.5,1201.3 1280.8,1212.9 1296.2,1223.6 1311.7,1233.2 1327.1,1241.8 1342.5,1249.2 1357.9,1255.5 1373.1,1260.6 1388.3,1264.3 1403.3,1266.9 1418.1,1268.1 1432.8,1268.0 1447.2,1266.5 1461.3,1263.8 1475.2,1259.7 1488.8,1254.3 1502.1,1247.6 1515.1,1239.7 1527.7,1230.4 1540.0,1220.0 1551.9,1208.5 1563.4,1195.8 1574.5,1182.0 1585.1,1167.3 1595.4,1151.6 1605.2,1135.1 1614.6,1117.8 1623.6,1099.8 1632.1,1081.2 1640.2,1062.2 1647.8,1042.7 1654.9,1023.0 1661.6,1003.1  Z" style="stroke-width: 0.5;  stroke: rgb(0,0,0); fill: rgb(179,177,178);" />
<path d="M 1681.256,1990.053 A 522.500,522.500 0.00 0,1 1638.8,2003.7 L 1638.8,2003.7 1633.2,1984.1 1627.4,1964.6 1621.3,1945.5 1614.9,1926.8 1608.2,1908.7 1601.3,1891.2 1594.2,1874.5 1586.8,1858.7 1579.3,1843.9 1571.5,1830.1 1563.6,1817.5 1555.4,1806.0 1547.2,1795.8 1538.8,1786.9 1530.2,1779.4 1521.5,1773.3 1512.8,1768.5 1503.9,1765.3 1494.9,1763.5 1485.9,1763.2 1476.9,1764.3 1467.8,1766.9 1458.7,1771.0 1449.6,1776.5 1440.5,1783.4 1431.5,1791.6 1422.5,1801.2 1413.6,1812.0 1404.7,1824.1 1396.0,1837.2 1387.4,1851.5 1378.9,1866.7 1370.6,1882.8 1362.4,1899.7 1354.5,1917.3 1346.8,1935.5 1339.3,1954.2 1332.0,1973.2 1325.0,1992.3  A 522.500,522.500 0.00 0,1 1256.3,1962.2 L 1256.3,1962.2 1266.1,1944.0 1276.3,1926.0 1286.8,1908.4 1297.6,1891.2 1308.6,1874.7 1319.9,1858.8 1331.5,1843.8 1343.2,1829.6 1355.0,1816.4 1367.0,1804.2 1379.2,1793.1 1391.4,1783.2 1403.6,1774.5 1416.0,1767.0 1428.3,1760.9 1440.7,1756.2 1453.0,1752.8 1465.3,1750.7 1477.5,1750.1 1489.6,1750.9 1501.7,1753.1 1513.6,1756.7 1525.4,1761.7 1537.0,1768.1 1548.4,1775.7 1559.7,1784.7 1570.7,1794.9 1581.5,1806.4 1592.1,1818.9 1602.4,1832.6 1612.4,1847.2 1622.2,1862.8 1631.6,1879.3 1640.8,1896.5 1649.6,1914.3 1658.0,1932.7 1666.1,1951.6 1673.9,1970.7 1681.3,1990.1  Z" style="stroke-width: 0.5;  stroke: rgb(0,0,0); fill: rgb(179,177,178);" />
<path d="M 1749.134,1040.719 A 522.500,522.500 0.00 0,1 1800.4,1072.5 L 1800.4,1072.5 1787.4,1090.6 1773.9,1108.4 1759.8,1126.0 1745.2,1143.1 1730.1,1159.9 1714.6,1176.1 1698.5,1191.7 1682.0,1206.7 1665.0,1221.0 1647.6,1234.5 1629.8,1247.3 1611.6,1259.1 1593.1,1270.1 1574.1,1280.2 1554.9,1289.3 1535.3,1297.4 1515.4,1304.5 1495.3,1310.6 1475.0,1315.6 1454.4,1319.6 1433.6,1322.5 1412.7,1324.4 1391.6,1325.2 1370.4,1325.0 1349.1,1323.8 1327.8,1321.5 1306.5,1318.3 1285.2,1314.0 1263.9,1308.9 1242.7,1302.8 1221.6,1295.9 1200.7,1288.2 1180.0,1279.7 1159.5,1270.4 1139.2,1260.5 1119.3,1250.1 1099.7,1239.0 1080.4,1227.5 1061.6,1215.7  A 522.500,522.500 0.00 0,1 1097.7,1166.6 L 1097.7,1166.6 1114.6,1180.2 1131.9,1193.5 1149.5,1206.3 1167.5,1218.6 1185.8,1230.2 1204.3,1241.2 1223.1,1251.4 1242.0,1260.8 1261.0,1269.3 1280.2,1276.8 1299.4,1283.4 1318.6,1289.0 1337.8,1293.5 1357.0,1296.9 1376.1,1299.1 1395.1,1300.3 1414.0,1300.2 1432.7,1299.1 1451.2,1296.7 1469.5,1293.1 1487.6,1288.4 1505.4,1282.6 1523.0,1275.6 1540.2,1267.4 1557.1,1258.2 1573.6,1247.9 1589.8,1236.6 1605.5,1224.3 1620.9,1211.0 1635.8,1196.9 1650.3,1181.9 1664.4,1166.1 1678.0,1149.7 1691.1,1132.6 1703.7,1115.0 1715.8,1096.9 1727.5,1078.4 1738.6,1059.7 1749.1,1040.7  Z" style="stroke-width: 0.5;  stroke: rgb(0,0,0); fill: rgb(179,177,178);" />
<path d="M 1937.105,1786.261 A 522.500,522.500 0.00 0,1 1905.5,1829.5 L 1905.5,1829.5 1888.2,1815.8 1870.4,1802.4 1852.2,1789.4 1833.6,1777.0 1814.6,1765.1 1795.4,1753.9 1775.9,1743.3 1756.1,1733.6 1736.1,1724.7 1715.9,1716.6 1695.6,1709.4 1675.1,1703.2 1654.6,1698.0 1633.9,1693.8 1613.3,1690.6 1592.7,1688.5 1572.0,1687.5 1551.5,1687.5 1531.0,1688.7 1510.6,1690.9 1490.3,1694.2 1470.3,1698.6 1450.3,1704.1 1430.6,1710.6 1411.2,1718.2 1392.0,1726.8 1373.0,1736.3 1354.4,1746.8 1336.1,1758.2 1318.2,1770.4 1300.6,1783.5 1283.4,1797.3 1266.6,1811.8 1250.2,1826.9 1234.3,1842.6 1218.8,1858.8 1203.9,1875.4 1189.4,1892.3 1175.5,1909.5  A 522.500,522.500 0.00 0,1 1135.4,1874.3 L 1135.4,1874.3 1151.4,1858.2 1167.9,1842.5 1184.9,1827.0 1202.4,1812.0 1220.3,1797.4 1238.6,1783.3 1257.4,1769.9 1276.6,1757.0 1296.1,1744.9 1316.0,1733.5 1336.2,1722.8 1356.8,1713.0 1377.6,1704.0 1398.7,1695.9 1420.1,1688.7 1441.6,1682.4 1463.4,1677.1 1485.3,1672.7 1507.4,1669.3 1529.5,1666.8 1551.8,1665.4 1574.2,1664.9 1596.6,1665.4 1619.0,1666.8 1641.4,1669.3 1663.7,1672.6 1686.0,1676.8 1708.2,1682.0 1730.3,1688.0 1752.2,1694.8 1773.9,1702.4 1795.4,1710.8 1816.6,1719.9 1837.6,1729.6 1858.2,1740.0 1878.6,1750.9 1898.5,1762.2 1918.0,1774.1 1937.1,1786.3  Z" style="stroke-width: 0.5;  stroke: rgb(0,0,0); fill: rgb(179,177,178);" />
<path d="M 1788.052,1935.927 A 522.500,522.500 0.00 0,1 1742.0,1963.1 L 1742.0,1963.1 1732.1,1944.6 1721.8,1926.4 1711.1,1908.5 1700.0,1891.0 1688.5,1874.1 1676.7,1857.9 1664.6,1842.4 1652.2,1827.8 1639.5,1814.1 1626.6,1801.4 1613.4,1789.7 1600.0,1779.1 1586.4,1769.7 1572.7,1761.5 1558.8,1754.6 1544.8,1749.0 1530.6,1744.6 1516.4,1741.6 1502.1,1740.0 1487.8,1739.7 1473.5,1740.7 1459.2,1743.1 1444.9,1746.9 1430.6,1751.9 1416.4,1758.3 1402.3,1765.9 1388.4,1774.7 1374.6,1784.7 1360.9,1795.8 1347.5,1808.0 1334.2,1821.1 1321.2,1835.2 1308.4,1850.2 1296.0,1865.9 1283.8,1882.3 1272.0,1899.2 1260.5,1916.7 1249.5,1934.5 1238.8,1952.5  A 522.500,522.500 0.00 0,1 1194.2,1923.6 L 1194.2,1923.6 1206.9,1906.5 1220.0,1889.6 1233.6,1873.1 1247.5,1857.1 1261.9,1841.6 1276.6,1826.8 1291.6,1812.7 1306.9,1799.5 1322.4,1787.1 1338.2,1775.7 1354.2,1765.3 1370.4,1756.0 1386.8,1747.8 1403.3,1740.7 1419.9,1734.8 1436.6,1730.1 1453.4,1726.7 1470.2,1724.5 1487.0,1723.5 1503.8,1723.9 1520.5,1725.5 1537.2,1728.4 1553.8,1732.5 1570.3,1737.9 1586.7,1744.5 1602.9,1752.2 1618.9,1761.1 1634.7,1771.1 1650.2,1782.2 1665.6,1794.2 1680.6,1807.2 1695.3,1821.1 1709.7,1835.7 1723.8,1851.1 1737.5,1867.2 1750.8,1883.8 1763.6,1900.8 1776.1,1918.3 1788.1,1935.9  Z" style="stroke-width: 0.5;  stroke: rgb(0,0,0); fill: rgb(179,177,178);" />
<path d="M 2019.211,1558.535 A 522.500,522.500 0.00 0,1 2010.9,1609.6 L 2010.9,1609.6 1986.4,1604.5 1961.6,1599.6 1936.7,1595.1 1911.5,1590.7 1886.1,1586.7 1860.5,1583.1 1834.8,1579.7 1808.9,1576.7 1782.9,1574.1 1756.8,1571.9 1730.5,1570.0 1704.2,1568.6 1677.8,1567.5 1651.3,1566.9 1624.7,1566.6 1598.2,1566.9 1571.6,1567.5 1545.0,1568.5 1518.4,1570.0 1491.9,1572.0 1465.4,1574.3 1438.9,1577.1 1412.5,1580.3 1386.2,1584.0 1360.0,1588.0 1333.9,1592.5 1307.9,1597.3 1282.0,1602.6 1256.3,1608.2 1230.8,1614.2 1205.4,1620.5 1180.2,1627.2 1155.2,1634.2 1130.5,1641.6 1105.9,1649.2 1081.6,1657.1 1057.6,1665.2 1033.8,1673.6 1010.3,1682.2  A 522.500,522.500 0.00 0,1 994.7,1633.1 L 994.7,1633.1 1019.5,1626.6 1044.5,1620.3 1069.7,1614.2 1095.1,1608.3 1120.6,1602.5 1146.3,1597.0 1172.1,1591.7 1198.1,1586.6 1224.1,1581.7 1250.3,1577.0 1276.6,1572.6 1303.0,1568.5 1329.5,1564.6 1356.1,1561.0 1382.8,1557.6 1409.5,1554.6 1436.3,1551.8 1463.1,1549.3 1489.9,1547.0 1516.8,1545.1 1543.7,1543.4 1570.6,1542.0 1597.5,1540.9 1624.3,1540.1 1651.2,1539.5 1678.0,1539.3 1704.8,1539.3 1731.5,1539.6 1758.2,1540.1 1784.8,1540.9 1811.3,1541.9 1837.7,1543.2 1864.0,1544.8 1890.2,1546.6 1916.3,1548.5 1942.3,1550.8 1968.1,1553.2 1993.7,1555.8 2019.2,1558.5  Z" style="stroke-width: 0.5;  stroke: rgb(0,0,0); fill: rgb(179,177,178);" />
<path d="M 1996.664,1662.269 A 522.500,522.500 0.00 0,1 1980.1,1706.2 L 1980.1,1706.2 1958.1,1697.0 1935.8,1688.1 1913.1,1679.6 1890.0,1671.5 1866.7,1663.9 1843.1,1656.7 1819.2,1650.1 1795.1,1644.0 1770.8,1638.5 1746.3,1633.5 1721.7,1629.2 1696.9,1625.6 1672.0,1622.6 1647.0,1620.2 1621.9,1618.5 1596.8,1617.6 1571.7,1617.3 1546.6,1617.8 1521.5,1618.9 1496.4,1620.8 1471.4,1623.4 1446.5,1626.7 1421.7,1630.7 1397.0,1635.3 1372.5,1640.7 1348.1,1646.7 1323.9,1653.4 1300.0,1660.7 1276.2,1668.6 1252.7,1677.1 1229.5,1686.2 1206.6,1695.8 1184.0,1705.9 1161.7,1716.5 1139.7,1727.5 1118.2,1738.9 1097.0,1750.7 1076.2,1762.8 1055.8,1775.2  A 522.500,522.500 0.00 0,1 1032.7,1733.8 L 1032.7,1733.8 1054.6,1723.0 1076.8,1712.5 1099.4,1702.3 1122.3,1692.5 1145.5,1682.9 1169.1,1673.8 1192.9,1665.0 1217.0,1656.7 1241.3,1648.8 1265.8,1641.4 1290.6,1634.5 1315.6,1628.1 1340.7,1622.2 1366.0,1616.8 1391.4,1612.0 1417.0,1607.8 1442.7,1604.1 1468.5,1601.1 1494.3,1598.6 1520.2,1596.6 1546.1,1595.3 1572.0,1594.6 1598.0,1594.4 1623.9,1594.8 1649.8,1595.8 1675.6,1597.3 1701.3,1599.5 1726.9,1602.1 1752.5,1605.3 1777.8,1609.0 1803.1,1613.2 1828.1,1617.9 1852.9,1623.0 1877.6,1628.6 1901.9,1634.6 1926.1,1641.0 1949.9,1647.8 1973.4,1654.9 1996.7,1662.3  Z" style="stroke-width: 0.5;  stroke: rgb(0,0,0); fill: rgb(179,177,178);" />
<path d="M 2022.238,1516.547 A 522.500,522.500 0.00 0,1 2019.5,1556.1 L 2019.5,1556.1 1994.0,1553.4 1968.3,1550.9 1942.4,1548.6 1916.5,1546.6 1890.4,1544.7 1864.1,1543.0 1837.8,1541.6 1811.4,1540.4 1784.9,1539.4 1758.2,1538.7 1731.6,1538.2 1704.8,1538.0 1678.0,1538.1 1651.2,1538.4 1624.4,1539.0 1597.5,1539.9 1570.6,1541.1 1543.7,1542.5 1516.8,1544.2 1489.9,1546.2 1463.1,1548.5 1436.3,1551.0 1409.5,1553.9 1382.8,1557.0 1356.1,1560.3 1329.5,1563.9 1303.0,1567.8 1276.6,1572.0 1250.3,1576.4 1224.1,1581.0 1198.0,1585.9 1172.0,1591.0 1146.2,1596.3 1120.5,1601.8 1095.0,1607.5 1069.6,1613.4 1044.4,1619.5 1019.3,1625.8 994.5,1632.2  A 522.500,522.500 0.00 0,1 985.9,1593.2 L 985.9,1593.2 1011.6,1588.6 1037.4,1584.1 1063.4,1579.7 1089.4,1575.4 1115.6,1571.2 1141.8,1567.1 1168.1,1563.2 1194.5,1559.4 1221.0,1555.7 1247.5,1552.2 1274.1,1548.8 1300.7,1545.5 1327.4,1542.4 1354.2,1539.5 1381.0,1536.7 1407.8,1534.0 1434.7,1531.6 1461.6,1529.3 1488.5,1527.1 1515.4,1525.1 1542.3,1523.3 1569.3,1521.6 1596.2,1520.1 1623.1,1518.8 1650.0,1517.6 1676.9,1516.6 1703.8,1515.7 1730.6,1515.0 1757.4,1514.4 1784.2,1514.0 1810.9,1513.8 1837.6,1513.7 1864.2,1513.7 1890.7,1513.8 1917.2,1514.1 1943.6,1514.6 1969.9,1515.1 1996.1,1515.8 2022.2,1516.5  Z" style="stroke-width: 0.5;  stroke: rgb(0,0,0); fill: rgb(179,177,178);" />
<path d="M 1968.731,1269.138 A 522.500,522.500 0.00 0,1 1978.6,1290.4 L 1978.6,1290.4 1955.5,1300.4 1932.1,1310.3 1908.4,1319.9 1884.5,1329.3 1860.3,1338.5 1835.9,1347.5 1811.3,1356.2 1786.5,1364.6 1761.5,1372.7 1736.3,1380.5 1710.9,1388.0 1685.4,1395.2 1659.7,1402.1 1633.9,1408.5 1607.9,1414.7 1581.9,1420.5 1555.7,1425.9 1529.4,1430.9 1503.1,1435.6 1476.7,1439.9 1450.2,1443.8 1423.7,1447.3 1397.2,1450.5 1370.6,1453.2 1344.0,1455.6 1317.5,1457.6 1291.0,1459.3 1264.5,1460.5 1238.0,1461.5 1211.7,1462.0 1185.4,1462.2 1159.2,1462.1 1133.1,1461.6 1107.1,1460.9 1081.3,1459.8 1055.6,1458.4 1030.1,1456.8 1004.8,1454.9 979.6,1452.7  A 522.500,522.500 0.00 0,1 982.2,1430.1 L 982.2,1430.1 1006.9,1433.3 1031.9,1436.2 1057.1,1438.8 1082.5,1441.1 1108.0,1443.1 1133.7,1444.7 1159.6,1446.0 1185.6,1446.8 1211.7,1447.3 1237.9,1447.4 1264.1,1447.1 1290.4,1446.3 1316.8,1445.2 1343.2,1443.5 1369.6,1441.5 1396.0,1439.0 1422.3,1436.1 1448.7,1432.7 1474.9,1428.8 1501.2,1424.6 1527.3,1419.9 1553.3,1414.7 1579.3,1409.1 1605.1,1403.1 1630.8,1396.6 1656.3,1389.8 1681.6,1382.5 1706.8,1374.8 1731.8,1366.8 1756.6,1358.4 1781.2,1349.7 1805.6,1340.6 1829.7,1331.2 1853.6,1321.5 1877.2,1311.5 1900.5,1301.2 1923.5,1290.7 1946.3,1280.0 1968.7,1269.1  Z" style="stroke-width: 0.5;  stroke: rgb(0,0,0); fill: rgb(179,177,178);" />
<path d="M 1806.862,1922.897 A 522.500,522.500 0.00 0,1 1788.6,1935.5 L 1788.6,1935.5 1776.6,1917.9 1764.2,1900.5 1751.3,1883.4 1738.0,1866.8 1724.2,1850.8 1710.2,1835.4 1695.7,1820.8 1681.0,1806.9 1665.9,1793.9 1650.5,1781.9 1634.9,1770.8 1619.1,1760.9 1603.1,1752.0 1586.8,1744.2 1570.4,1737.6 1553.9,1732.3 1537.3,1728.1 1520.6,1725.3 1503.8,1723.6 1486.9,1723.3 1470.1,1724.2 1453.3,1726.4 1436.5,1729.8 1419.7,1734.5 1403.1,1740.4 1386.6,1747.5 1370.2,1755.7 1353.9,1765.0 1337.9,1775.4 1322.1,1786.8 1306.5,1799.1 1291.1,1812.4 1276.1,1826.4 1261.4,1841.2 1247.0,1856.6 1233.0,1872.7 1219.4,1889.2 1206.2,1906.0 1193.5,1923.2  A 522.500,522.500 0.00 0,1 1175.7,1909.7 L 1175.7,1909.7 1189.3,1893.0 1203.3,1876.6 1217.8,1860.5 1232.7,1844.9 1247.9,1829.9 1263.5,1815.6 1279.5,1801.9 1295.7,1789.1 1312.2,1777.1 1329.0,1766.1 1345.9,1756.1 1363.1,1747.0 1380.5,1739.1 1397.9,1732.3 1415.5,1726.6 1433.2,1722.1 1451.0,1718.8 1468.8,1716.7 1486.6,1715.8 1504.4,1716.2 1522.1,1717.8 1539.8,1720.6 1557.4,1724.7 1574.9,1729.9 1592.3,1736.3 1609.5,1743.9 1626.5,1752.5 1643.2,1762.3 1659.8,1773.0 1676.1,1784.7 1692.1,1797.4 1707.8,1810.9 1723.1,1825.2 1738.1,1840.2 1752.7,1855.8 1766.9,1872.0 1780.7,1888.6 1794.0,1905.6 1806.9,1922.9  Z" style="stroke-width: 0.5;  stroke: rgb(0,0,0); fill: rgb(179,177,178);" />
<path d="M 2007.742,1623.305 A 522.500,522.500 0.00 0,1 2002.1,1644.5 L 2002.1,1644.5 1978.5,1637.9 1954.5,1631.6 1930.3,1625.5 1905.8,1619.9 1881.0,1614.5 1856.1,1609.6 1830.9,1605.1 1805.6,1601.0 1780.0,1597.3 1754.4,1594.1 1728.6,1591.4 1702.7,1589.2 1676.7,1587.5 1650.7,1586.3 1624.5,1585.6 1598.4,1585.5 1572.2,1585.9 1546.0,1586.8 1519.9,1588.2 1493.7,1590.2 1467.7,1592.8 1441.6,1595.8 1415.7,1599.4 1389.9,1603.5 1364.2,1608.1 1338.6,1613.3 1313.2,1618.9 1287.9,1625.0 1262.8,1631.6 1237.9,1638.6 1213.3,1646.1 1188.8,1654.0 1164.7,1662.3 1140.7,1670.9 1117.1,1680.0 1093.7,1689.3 1070.7,1698.9 1048.0,1708.8 1025.6,1719.0  A 522.500,522.500 0.00 0,1 1016.7,1698.5 L 1016.7,1698.5 1039.7,1689.2 1063.0,1680.1 1086.7,1671.3 1110.6,1662.8 1134.7,1654.5 1159.1,1646.6 1183.8,1639.0 1208.7,1631.7 1233.8,1624.9 1259.0,1618.4 1284.5,1612.3 1310.1,1606.7 1335.9,1601.4 1361.8,1596.6 1387.8,1592.3 1413.9,1588.4 1440.1,1585.0 1466.4,1582.1 1492.8,1579.6 1519.2,1577.6 1545.6,1576.1 1572.0,1575.0 1598.4,1574.4 1624.9,1574.3 1651.2,1574.7 1677.6,1575.5 1703.8,1576.8 1730.0,1578.5 1756.1,1580.7 1782.0,1583.3 1807.9,1586.3 1833.5,1589.7 1859.1,1593.5 1884.4,1597.6 1909.5,1602.2 1934.5,1607.0 1959.1,1612.2 1983.6,1617.6 2007.7,1623.3  Z" style="stroke-width: 0.5;  stroke: rgb(0,0,0); fill: rgb(179,177,178);" />
<path d="M 2005.058,1366.123 A 522.500,522.500 0.00 0,1 2010.2,1387.3 L 2010.2,1387.3 1984.3,1393.0 1958.3,1398.7 1932.3,1404.3 1906.3,1409.9 1880.2,1415.4 1854.0,1420.9 1827.8,1426.4 1801.6,1431.8 1775.4,1437.1 1749.1,1442.4 1722.8,1447.7 1696.5,1452.9 1670.1,1458.0 1643.7,1463.1 1617.3,1468.1 1590.9,1473.1 1564.4,1478.0 1537.9,1482.8 1511.5,1487.6 1485.0,1492.3 1458.5,1496.9 1431.9,1501.5 1405.4,1506.0 1378.9,1510.5 1352.4,1514.9 1325.9,1519.2 1299.3,1523.5 1272.8,1527.7 1246.3,1531.8 1219.8,1535.9 1193.3,1539.9 1166.9,1543.9 1140.4,1547.8 1114.0,1551.6 1087.6,1555.4 1061.2,1559.1 1034.8,1562.8 1008.5,1566.4 982.2,1570.0  A 522.500,522.500 0.00 0,1 979.7,1548.4 L 979.7,1548.4 1005.9,1545.9 1032.1,1543.4 1058.4,1540.7 1084.8,1537.9 1111.1,1535.0 1137.6,1532.0 1164.1,1528.9 1190.6,1525.7 1217.1,1522.3 1243.7,1518.9 1270.3,1515.3 1296.9,1511.6 1323.5,1507.8 1350.1,1503.8 1376.7,1499.7 1403.3,1495.5 1429.9,1491.2 1456.5,1486.7 1483.1,1482.1 1509.7,1477.4 1536.2,1472.5 1562.7,1467.5 1589.2,1462.4 1615.6,1457.2 1642.0,1451.9 1668.4,1446.4 1694.7,1440.9 1720.9,1435.2 1747.1,1429.4 1773.3,1423.5 1799.3,1417.5 1825.3,1411.3 1851.2,1405.1 1877.1,1398.8 1902.9,1392.5 1928.5,1386.0 1954.1,1379.4 1979.6,1372.8 2005.1,1366.1  Z" style="stroke-width: 0.5;  stroke: rgb(0,0,0); fill: rgb(179,177,178);" />
<path d="M 1573.622,982.713 A 522.500,522.500 0.00 0,1 1594.4,986.1 L 1594.4,986.1 1590.5,1006.3 1586.2,1026.4 1581.6,1046.2 1576.5,1065.6 1571.1,1084.5 1565.3,1102.8 1559.1,1120.4 1552.5,1137.2 1545.6,1153.1 1538.2,1167.9 1530.4,1181.8 1522.3,1194.5 1513.8,1206.0 1504.9,1216.3 1495.7,1225.3 1486.1,1233.0 1476.2,1239.3 1466.0,1244.3 1455.4,1247.8 1444.6,1250.0 1433.5,1250.8 1422.1,1250.1 1410.6,1248.0 1398.8,1244.6 1386.8,1239.8 1374.6,1233.7 1362.4,1226.3 1350.0,1217.7 1337.5,1207.9 1325.0,1197.0 1312.5,1185.0 1300.0,1172.0 1287.5,1158.1 1275.1,1143.5 1262.9,1128.1 1250.8,1112.0 1238.9,1095.5 1227.3,1078.6 1216.0,1061.4  A 522.500,522.500 0.00 0,1 1233.9,1050.3 L 1233.9,1050.3 1244.5,1067.9 1255.3,1085.2 1266.4,1102.1 1277.6,1118.5 1289.0,1134.3 1300.4,1149.4 1312.0,1163.7 1323.5,1177.0 1335.1,1189.4 1346.7,1200.7 1358.1,1210.9 1369.5,1219.9 1380.7,1227.6 1391.8,1234.1 1402.8,1239.2 1413.5,1242.9 1424.0,1245.2 1434.3,1246.2 1444.3,1245.7 1454.0,1243.7 1463.5,1240.4 1472.6,1235.6 1481.4,1229.4 1489.9,1221.8 1498.1,1212.9 1505.9,1202.7 1513.3,1191.3 1520.4,1178.6 1527.0,1164.8 1533.4,1149.9 1539.3,1134.1 1544.9,1117.3 1550.1,1099.7 1554.9,1081.4 1559.4,1062.4 1563.4,1042.9 1567.2,1023.1 1570.6,1003.0 1573.6,982.7  Z" style="stroke-width: 0.5;  stroke: rgb(0,0,0); fill: rgb(179,177,178);" />
<path d="M 2022.475,1494.872 A 522.500,522.500 0.00 0,1 2022.3,1515.5 L 2022.3,1515.5 1996.1,1514.8 1969.9,1514.2 1943.6,1513.7 1917.1,1513.3 1890.7,1513.0 1864.1,1512.9 1837.5,1512.9 1810.8,1513.0 1784.1,1513.3 1757.3,1513.7 1730.5,1514.3 1703.7,1515.0 1676.8,1515.8 1649.9,1516.9 1623.0,1518.0 1596.1,1519.3 1569.2,1520.8 1542.2,1522.4 1515.3,1524.2 1488.4,1526.2 1461.4,1528.3 1434.6,1530.5 1407.7,1533.0 1380.9,1535.5 1354.1,1538.2 1327.3,1541.1 1300.6,1544.1 1273.9,1547.3 1247.3,1550.6 1220.8,1554.0 1194.3,1557.6 1167.9,1561.3 1141.5,1565.1 1115.3,1569.1 1089.1,1573.1 1063.0,1577.3 1037.0,1581.6 1011.2,1586.0 985.4,1590.5  A 522.500,522.500 0.00 0,1 982.2,1570.1 L 982.2,1570.1 1008.4,1566.6 1034.6,1563.1 1060.9,1559.7 1087.3,1556.4 1113.7,1553.1 1140.2,1550.0 1166.7,1546.9 1193.3,1543.8 1219.9,1540.9 1246.5,1538.0 1273.2,1535.3 1299.9,1532.6 1326.7,1530.0 1353.5,1527.5 1380.3,1525.1 1407.1,1522.7 1433.9,1520.5 1460.8,1518.4 1487.7,1516.3 1514.6,1514.4 1541.4,1512.5 1568.3,1510.8 1595.2,1509.1 1622.1,1507.6 1649.0,1506.1 1675.8,1504.7 1702.7,1503.5 1729.5,1502.3 1756.3,1501.2 1783.1,1500.2 1809.9,1499.3 1836.6,1498.4 1863.3,1497.7 1889.9,1497.0 1916.5,1496.5 1943.1,1496.0 1969.6,1495.5 1996.1,1495.2 2022.5,1494.9  Z" style="stroke-width: 0.5;  stroke: rgb(0,0,0); fill: rgb(179,177,178);" />
<path d="M 1600.938,987.342 A 522.500,522.500 0.00 0,1 1620.2,991.5 L 1620.2,991.5 1615.2,1011.6 1609.9,1031.6 1604.1,1051.3 1597.9,1070.7 1591.3,1089.5 1584.3,1107.7 1576.8,1125.2 1569.0,1142.0 1560.7,1157.8 1552.0,1172.7 1543.0,1186.5 1533.5,1199.3 1523.7,1210.9 1513.5,1221.2 1502.9,1230.4 1492.0,1238.2 1480.7,1244.7 1469.1,1249.9 1457.2,1253.7 1445.1,1256.1 1432.6,1257.1 1420.0,1256.8 1407.1,1255.1 1394.0,1252.1 1380.7,1247.7 1367.3,1242.0 1353.8,1235.1 1340.1,1226.9 1326.5,1217.6 1312.8,1207.2 1299.1,1195.7 1285.4,1183.3 1271.8,1170.0 1258.3,1155.8 1245.0,1141.0 1231.9,1125.5 1219.0,1109.5 1206.4,1093.1 1194.1,1076.4  A 522.500,522.500 0.00 0,1 1210.0,1065.4 L 1210.0,1065.4 1221.6,1082.4 1233.5,1099.2 1245.6,1115.6 1258.0,1131.5 1270.5,1146.7 1283.2,1161.3 1295.9,1175.0 1308.8,1187.8 1321.6,1199.7 1334.4,1210.4 1347.2,1220.1 1359.9,1228.6 1372.6,1235.9 1385.0,1241.9 1397.4,1246.5 1409.5,1249.9 1421.4,1251.8 1433.1,1252.4 1444.6,1251.6 1455.8,1249.3 1466.7,1245.7 1477.3,1240.7 1487.5,1234.3 1497.5,1226.6 1507.0,1217.5 1516.3,1207.2 1525.1,1195.6 1533.6,1182.9 1541.7,1169.1 1549.4,1154.2 1556.7,1138.3 1563.6,1121.5 1570.1,1104.0 1576.3,1085.7 1582.0,1066.8 1587.3,1047.4 1592.2,1027.6 1596.8,1007.5 1600.9,987.3  Z" style="stroke-width: 0.5;  stroke: rgb(0,0,0); fill: rgb(179,177,178);" />
<path d="M 1998.952,1344.911 A 522.500,522.500 0.00 0,1 2003.5,1360.4 L 2003.5,1360.4 1978.2,1367.4 1952.8,1374.3 1927.3,1381.1 1901.8,1387.8 1876.1,1394.4 1850.3,1401.0 1824.5,1407.4 1798.5,1413.7 1772.5,1419.9 1746.5,1426.0 1720.3,1432.0 1694.1,1437.9 1667.8,1443.6 1641.5,1449.3 1615.1,1454.7 1588.7,1460.1 1562.3,1465.3 1535.8,1470.4 1509.2,1475.4 1482.7,1480.2 1456.1,1484.8 1429.5,1489.4 1402.9,1493.8 1376.3,1498.0 1349.7,1502.1 1323.1,1506.1 1296.4,1509.9 1269.8,1513.6 1243.3,1517.2 1216.7,1520.6 1190.2,1523.9 1163.7,1527.1 1137.2,1530.1 1110.8,1533.0 1084.4,1535.8 1058.1,1538.5 1031.8,1541.1 1005.6,1543.5 979.5,1545.9  A 522.500,522.500 0.00 0,1 978.4,1529.8 L 978.4,1529.8 1004.3,1528.3 1030.4,1526.6 1056.6,1524.8 1082.8,1522.8 1109.2,1520.7 1135.6,1518.4 1162.0,1515.9 1188.5,1513.3 1215.0,1510.5 1241.6,1507.5 1268.2,1504.4 1294.8,1501.0 1321.5,1497.5 1348.1,1493.8 1374.8,1489.9 1401.4,1485.9 1428.1,1481.6 1454.7,1477.2 1481.3,1472.5 1507.9,1467.7 1534.4,1462.7 1560.9,1457.6 1587.3,1452.2 1613.7,1446.7 1640.0,1440.9 1666.3,1435.0 1692.5,1429.0 1718.6,1422.8 1744.6,1416.4 1770.5,1409.8 1796.4,1403.1 1822.1,1396.3 1847.7,1389.3 1873.2,1382.2 1898.6,1375.0 1923.9,1367.6 1949.1,1360.1 1974.1,1352.6 1999.0,1344.9  Z" style="stroke-width: 0.5;  stroke: rgb(0,0,0); fill: rgb(179,177,178);" />
<path d="M 1866.060,1127.164 A 522.500,522.500 0.00 0,1 1877.1,1138.3 L 1877.1,1138.3 1860.3,1154.1 1843.0,1169.6 1825.2,1184.8 1806.9,1199.7 1788.2,1214.1 1769.0,1228.1 1749.4,1241.5 1729.4,1254.4 1709.1,1266.6 1688.4,1278.2 1667.3,1289.1 1645.9,1299.3 1624.2,1308.7 1602.2,1317.3 1579.9,1325.1 1557.5,1332.1 1534.8,1338.2 1511.9,1343.5 1488.8,1347.9 1465.6,1351.4 1442.3,1354.1 1418.8,1355.8 1395.3,1356.7 1371.8,1356.7 1348.2,1355.8 1324.7,1354.1 1301.2,1351.6 1277.7,1348.2 1254.4,1344.1 1231.1,1339.2 1208.0,1333.5 1185.1,1327.1 1162.5,1320.1 1140.0,1312.5 1117.9,1304.2 1096.0,1295.5 1074.5,1286.2 1053.4,1276.5 1032.6,1266.4  A 522.500,522.500 0.00 0,1 1039.8,1252.6 L 1039.8,1252.6 1060.1,1263.2 1080.8,1273.4 1101.9,1283.2 1123.3,1292.5 1145.0,1301.2 1167.0,1309.4 1189.3,1316.9 1211.8,1323.7 1234.5,1329.8 1257.3,1335.1 1280.2,1339.6 1303.3,1343.3 1326.4,1346.2 1349.5,1348.1 1372.7,1349.2 1395.8,1349.5 1418.9,1348.8 1441.9,1347.1 1464.8,1344.6 1487.5,1341.1 1510.2,1336.8 1532.6,1331.5 1554.9,1325.3 1576.9,1318.3 1598.7,1310.3 1620.2,1301.6 1641.4,1292.0 1662.3,1281.6 1682.9,1270.5 1703.1,1258.6 1722.9,1246.1 1742.4,1232.9 1761.4,1219.2 1780.0,1204.9 1798.2,1190.1 1815.9,1174.8 1833.1,1159.2 1849.8,1143.3 1866.1,1127.2  Z" style="stroke-width: 0.5;  stroke: rgb(0,0,0); fill: rgb(179,177,178);" />
<path d="M 1989.771,1317.981 A 522.500,522.500 0.00 0,1 1994.7,1331.8 L 1994.7,1331.8 1970.2,1340.0 1945.6,1348.1 1920.7,1356.1 1895.8,1364.0 1870.6,1371.7 1845.4,1379.2 1820.0,1386.6 1794.4,1393.8 1768.7,1400.8 1743.0,1407.7 1717.0,1414.3 1691.0,1420.7 1664.9,1426.9 1638.7,1432.9 1612.5,1438.7 1586.1,1444.3 1559.7,1449.6 1533.2,1454.7 1506.7,1459.6 1480.1,1464.2 1453.4,1468.6 1426.8,1472.8 1400.1,1476.7 1373.4,1480.4 1346.8,1483.9 1320.1,1487.1 1293.4,1490.1 1266.8,1492.8 1240.1,1495.3 1213.6,1497.6 1187.0,1499.7 1160.6,1501.6 1134.1,1503.2 1107.8,1504.7 1081.6,1505.9 1055.4,1507.0 1029.3,1507.9 1003.4,1508.6 977.6,1509.1  A 522.500,522.500 0.00 0,1 977.5,1493.9 L 977.5,1493.9 1003.2,1494.1 1029.0,1494.1 1054.9,1493.9 1080.9,1493.5 1107.1,1492.9 1133.3,1492.0 1159.7,1490.9 1186.1,1489.5 1212.6,1487.9 1239.1,1486.1 1265.7,1484.0 1292.4,1481.6 1319.0,1478.9 1345.7,1476.0 1372.3,1472.8 1399.0,1469.3 1425.7,1465.5 1452.3,1461.4 1478.9,1457.1 1505.4,1452.5 1531.9,1447.6 1558.3,1442.4 1584.7,1437.0 1611.0,1431.3 1637.2,1425.3 1663.3,1419.1 1689.3,1412.6 1715.1,1405.9 1740.9,1398.9 1766.5,1391.7 1792.0,1384.3 1817.3,1376.6 1842.5,1368.8 1867.5,1360.7 1892.3,1352.5 1917.0,1344.1 1941.4,1335.5 1965.7,1326.8 1989.8,1318.0  Z" style="stroke-width: 0.5;  stroke: rgb(0,0,0); fill: rgb(179,177,178);" />
<path d="M 2010.815,1609.884 A 522.500,522.500 0.00 0,1 2007.7,1623.3 L 2007.7,1623.3 1983.6,1617.6 1959.1,1612.1 1934.4,1607.0 1909.5,1602.1 1884.4,1597.6 1859.0,1593.4 1833.5,1589.6 1807.8,1586.2 1782.0,1583.2 1756.0,1580.6 1729.9,1578.4 1703.8,1576.7 1677.5,1575.4 1651.2,1574.5 1624.8,1574.2 1598.4,1574.2 1571.9,1574.8 1545.5,1575.8 1519.1,1577.3 1492.7,1579.3 1466.3,1581.7 1440.0,1584.7 1413.8,1588.0 1387.6,1591.9 1361.6,1596.2 1335.7,1600.9 1309.9,1606.1 1284.3,1611.8 1258.8,1617.8 1233.5,1624.2 1208.4,1631.0 1183.5,1638.2 1158.8,1645.8 1134.4,1653.7 1110.2,1661.9 1086.3,1670.4 1062.6,1679.2 1039.3,1688.2 1016.2,1697.4  A 522.500,522.500 0.00 0,1 1011.3,1684.9 L 1011.3,1684.9 1034.7,1676.2 1058.5,1667.7 1082.4,1659.4 1106.7,1651.4 1131.2,1643.6 1155.9,1636.2 1180.8,1629.1 1206.0,1622.3 1231.3,1615.8 1256.8,1609.7 1282.5,1604.0 1308.3,1598.7 1334.2,1593.7 1360.3,1589.2 1386.5,1585.0 1412.8,1581.3 1439.2,1578.0 1465.6,1575.2 1492.1,1572.7 1518.7,1570.7 1545.2,1569.2 1571.8,1568.1 1598.3,1567.4 1624.9,1567.1 1651.4,1567.3 1677.9,1567.9 1704.3,1568.9 1730.6,1570.4 1756.9,1572.2 1783.0,1574.4 1809.0,1577.0 1834.9,1580.0 1860.6,1583.3 1886.1,1587.0 1911.5,1591.0 1936.7,1595.3 1961.6,1599.9 1986.3,1604.8 2010.8,1609.9  Z" style="stroke-width: 0.5;  stroke: rgb(0,0,0); fill: rgb(179,177,178);" />
<path d="M 2001.445,1646.832 A 522.500,522.500 0.00 0,1 1997.7,1659.1 L 1997.7,1659.1 1974.4,1651.8 1950.8,1644.9 1926.9,1638.2 1902.7,1632.0 1878.2,1626.1 1853.5,1620.6 1828.7,1615.6 1803.6,1611.0 1778.3,1606.9 1752.9,1603.3 1727.3,1600.2 1701.6,1597.6 1675.8,1595.6 1650.0,1594.1 1624.1,1593.2 1598.1,1592.8 1572.1,1593.0 1546.1,1593.8 1520.2,1595.2 1494.2,1597.1 1468.4,1599.7 1442.5,1602.7 1416.8,1606.4 1391.2,1610.6 1365.7,1615.4 1340.4,1620.7 1315.2,1626.6 1290.2,1632.9 1265.4,1639.8 1240.7,1647.2 1216.4,1655.0 1192.2,1663.3 1168.4,1671.9 1144.8,1681.0 1121.5,1690.5 1098.5,1700.3 1075.8,1710.4 1053.5,1720.8 1031.5,1731.4  A 522.500,522.500 0.00 0,1 1026.0,1719.9 L 1026.0,1719.9 1048.4,1709.7 1071.1,1699.8 1094.1,1690.1 1117.4,1680.8 1141.0,1671.7 1164.9,1663.1 1189.1,1654.8 1213.5,1646.8 1238.1,1639.4 1263.0,1632.3 1288.0,1625.7 1313.3,1619.6 1338.7,1614.0 1364.2,1608.9 1389.9,1604.2 1415.7,1600.1 1441.6,1596.6 1467.6,1593.5 1493.7,1591.0 1519.8,1589.1 1545.9,1587.7 1572.1,1586.8 1598.3,1586.5 1624.4,1586.7 1650.5,1587.4 1676.5,1588.7 1702.5,1590.5 1728.3,1592.7 1754.1,1595.5 1779.7,1598.8 1805.2,1602.5 1830.5,1606.7 1855.7,1611.3 1880.6,1616.3 1905.3,1621.7 1929.7,1627.5 1953.9,1633.7 1977.8,1640.1 2001.4,1646.8  Z" style="stroke-width: 0.5;  stroke: rgb(0,0,0); fill: rgb(179,177,178);" />
<path d="M 1640.442,996.728 A 522.500,522.500 0.00 0,1 1651.2,999.8 L 1651.2,999.8 1644.9,1019.8 1638.2,1039.7 1631.0,1059.2 1623.4,1078.4 1615.3,1097.1 1606.8,1115.2 1597.8,1132.6 1588.4,1149.3 1578.6,1165.1 1568.3,1179.9 1557.6,1193.8 1546.6,1206.6 1535.1,1218.3 1523.2,1228.8 1510.9,1238.1 1498.3,1246.2 1485.4,1253.0 1472.1,1258.5 1458.5,1262.6 1444.7,1265.5 1430.5,1267.0 1416.2,1267.2 1401.6,1266.0 1386.8,1263.6 1371.9,1259.8 1356.8,1254.8 1341.7,1248.6 1326.4,1241.2 1311.2,1232.7 1295.9,1223.1 1280.6,1212.4 1265.4,1200.8 1250.3,1188.3 1235.3,1175.1 1220.6,1161.0 1206.0,1146.4 1191.7,1131.3 1177.7,1115.7 1164.1,1099.8  A 522.500,522.500 0.00 0,1 1172.8,1092.7 L 1172.8,1092.7 1186.0,1108.8 1199.6,1124.6 1213.5,1140.0 1227.6,1154.9 1241.9,1169.2 1256.5,1182.7 1271.1,1195.5 1285.8,1207.3 1300.6,1218.2 1315.4,1228.1 1330.2,1236.8 1345.0,1244.4 1359.6,1250.9 1374.2,1256.1 1388.6,1260.0 1402.9,1262.6 1416.9,1263.9 1430.7,1263.8 1444.3,1262.5 1457.7,1259.7 1470.7,1255.7 1483.4,1250.2 1495.8,1243.5 1507.9,1235.5 1519.6,1226.2 1530.9,1215.7 1541.9,1204.0 1552.4,1191.2 1562.6,1177.4 1572.3,1162.5 1581.6,1146.6 1590.5,1129.9 1599.0,1112.5 1607.0,1094.3 1614.6,1075.5 1621.7,1056.3 1628.4,1036.7 1634.6,1016.8 1640.4,996.7  Z" style="stroke-width: 0.5;  stroke: rgb(0,0,0); fill: rgb(179,177,178);" />
<path d="M 1741.026,1963.587 A 522.500,522.500 0.00 0,1 1732.3,1968.0 L 1732.3,1968.0 1722.8,1949.4 1712.9,1931.0 1702.6,1913.0 1692.0,1895.4 1681.0,1878.3 1669.7,1861.9 1658.0,1846.3 1646.1,1831.5 1633.9,1817.7 1621.5,1804.8 1608.8,1793.0 1595.9,1782.4 1582.8,1772.9 1569.6,1764.6 1556.2,1757.6 1542.7,1751.9 1529.0,1747.5 1515.3,1744.5 1501.6,1742.8 1487.8,1742.5 1473.9,1743.6 1460.1,1746.0 1446.3,1749.8 1432.5,1754.9 1418.9,1761.3 1405.3,1769.0 1391.8,1777.9 1378.4,1788.0 1365.2,1799.2 1352.2,1811.5 1339.5,1824.8 1326.9,1839.0 1314.6,1854.1 1302.5,1870.0 1290.8,1886.5 1279.4,1903.6 1268.3,1921.2 1257.6,1939.2 1247.3,1957.4  A 522.500,522.500 0.00 0,1 1238.8,1952.5 L 1238.8,1952.5 1249.5,1934.5 1260.6,1916.7 1272.0,1899.3 1283.8,1882.3 1296.0,1865.9 1308.4,1850.2 1321.2,1835.3 1334.2,1821.2 1347.4,1808.0 1360.9,1795.8 1374.5,1784.7 1388.3,1774.7 1402.2,1765.9 1416.3,1758.4 1430.5,1752.0 1444.7,1747.0 1459.0,1743.3 1473.3,1740.9 1487.6,1739.8 1501.9,1740.1 1516.1,1741.8 1530.3,1744.8 1544.4,1749.2 1558.4,1754.8 1572.2,1761.8 1586.0,1770.0 1599.5,1779.4 1612.9,1790.0 1626.0,1801.7 1638.9,1814.4 1651.5,1828.2 1663.9,1842.8 1676.0,1858.3 1687.7,1874.5 1699.1,1891.4 1710.2,1908.9 1720.9,1926.8 1731.2,1945.1 1741.0,1963.6  Z" style="stroke-width: 0.5;  stroke: rgb(0,0,0); fill: rgb(179,177,178);" />
<path d="M 1731.066,1968.631 A 522.500,522.500 0.00 0,1 1722.5,1972.8 L 1722.5,1972.8 1713.5,1954.0 1704.0,1935.5 1694.2,1917.3 1684.0,1899.5 1673.4,1882.3 1662.6,1865.8 1651.4,1850.0 1640.0,1835.1 1628.2,1821.1 1616.3,1808.1 1604.1,1796.2 1591.7,1785.5 1579.1,1775.9 1566.4,1767.5 1553.5,1760.4 1540.5,1754.7 1527.4,1750.2 1514.2,1747.2 1500.9,1745.5 1487.6,1745.2 1474.3,1746.2 1460.9,1748.7 1447.6,1752.5 1434.3,1757.6 1421.1,1764.1 1408.0,1771.8 1395.0,1780.8 1382.1,1791.0 1369.4,1802.3 1356.8,1814.8 1344.5,1828.2 1332.3,1842.5 1320.5,1857.8 1308.8,1873.8 1297.5,1890.4 1286.5,1907.7 1275.8,1925.4 1265.5,1943.5 1255.5,1961.8  A 522.500,522.500 0.00 0,1 1247.6,1957.5 L 1247.6,1957.5 1257.9,1939.3 1268.5,1921.3 1279.6,1903.8 1291.0,1886.6 1302.7,1870.1 1314.7,1854.2 1327.0,1839.2 1339.5,1824.9 1352.3,1811.6 1365.3,1799.3 1378.5,1788.1 1391.8,1778.0 1405.2,1769.1 1418.8,1761.4 1432.4,1755.0 1446.2,1750.0 1459.9,1746.2 1473.7,1743.8 1487.5,1742.7 1501.3,1743.0 1515.0,1744.7 1528.7,1747.8 1542.3,1752.2 1555.7,1757.9 1569.1,1764.9 1582.3,1773.2 1595.3,1782.7 1608.1,1793.4 1620.8,1805.2 1633.2,1818.1 1645.3,1832.0 1657.2,1846.8 1668.8,1862.4 1680.0,1878.8 1691.0,1895.9 1701.6,1913.5 1711.8,1931.6 1721.6,1950.0 1731.1,1968.6  Z" style="stroke-width: 0.5;  stroke: rgb(0,0,0); fill: rgb(179,177,178);" />
</g>
<g id="plot0">
<g id="plot0-axis">
</g>
<line x1='2243.6' y1='1598.1' x2='2243.6' y2='1598.1' style="stroke-width:14.0;stroke:rgb(0,0,0);stroke-linecap:round;fill:none;" />
<line x1='2243.6' y1='1598.1' x2='2283.2' y2='1603.3' style="stroke-width:14.0;stroke:rgb(0,0,0);stroke-linecap:round;fill:none;" />
<line x1='2283.2' y1='1603.3' x2='2283.2' y2='1603.3' style="stroke-width:14.0;stroke:rgb(0,0,0);stroke-linecap:round;fill:none;" />
<text x="2299.8" y="1628.2" font-size="46.8px" font-family="CMUBright-Roman" style="text-anchor:start;fill:rgb(255,38,78);" transform="rotate(7.5,2299.8,1628.2)" >HistomissSECH83<tspan baseline-shift="-40%" font-size="90%">s</tspan>02340</text>
</g>
<defs>
<pattern id="checker" width="10" height="10" patternTransform="rotate(45 0 0)" patternUnits="userSpaceOnUse"><line x1="0" y1="0" x2="10" y2="0" style="stroke:black;stroke-width:5" /><line x1="0" y1="0" x2="0" y2="10" style="stroke:black;stroke-width:4" /></pattern>
<pattern id="vline-sparse" width="10" height="10" patternTransform="rotate(0 0 0)" patternUnits="userSpaceOnUse"><line x1="0" y1="0" x2="0" y2="10" style="stroke:black;stroke-width:2" /></pattern>
<pattern id="vline" width="10" height="10" patternTransform="rotate(0 0 0)" patternUnits="userSpaceOnUse"><line x1="0" y1="0" x2="0" y2="10" style="stroke:black;stroke-width:5" /></pattern>
<pattern id="hline" width="10" height="10" patternTransform="rotate(0 0 0)" patternUnits="userSpaceOnUse"><line x1="0" y1="0" x2="10" y2="0" style="stroke:black;stroke-width:5" /></pattern>
<pattern id="hline-sparse" width="10" height="10" patternTransform="rotate(0 0 0)" patternUnits="userSpaceOnUse"><line x1="0" y1="0" x2="10" y2="0" style="stroke:black;stroke-width:2" /></pattern>
<pattern id="checker" width="10" height="10" patternTransform="rotate(45 0 0)" patternUnits="userSpaceOnUse"><line x1="0" y1="0" x2="10" y2="0" style="stroke:black;stroke-width:2" /><line x1="0" y1="0" x2="0" y2="10" style="stroke:black;stroke-width:2" /></pattern>
</defs>
</svg>
