<?xml version="1.0" encoding="utf-8" standalone="no"?>
<!DOCTYPE svg PUBLIC "-//W3C//DTD SVG 1.1//EN" "http://www.w3.org/Graphics/SVG/1.1/DTD/svg11.dtd">
<svg width="3000px" height="3000px" version="1.1" xmlns="http://www.w3.org/2000/svg" xmlns:xlink="http://www.w3.org/1999/xlink">
<g id="bg">
<rect x="0" y="0" width="3000px" height="3000px" style="fill:rgb(255,255,255);"/>
</g>
<g id="ideograms">
<path d="M1500.000,950.000 A550.000,550.000 40.000 0,1 1693.292,2014.916 L1763.579,2202.158 A750.000,750.000 0.000 0,0 1500.000,750.000 Z" style="stroke-width:2.0;stroke:rgb(0,0,0);stroke-linecap:round;fill:rgb(179,177,178);" />
<text x="2459.3" y="1325.9" font-size="46.8px" font-family="CMUBright-Roman" style="text-anchor:middle;fill:rgb(0,0,0);" transform="rotate(439.7,2459.3,1325.9)" >HistomissSECH87<tspan baseline-shift="-40%" font-size="90%">5</tspan></text>
<line x1='1561.9' y1='752.6' x2='1562.9' y2='740.6' style="stroke-width:8.0;stroke:rgb(150,150,150);stroke-linecap:round;fill:none;" />
<line x1='1661.0' y1='767.5' x2='1663.6' y2='755.8' style="stroke-width:8.0;stroke:rgb(150,150,150);stroke-linecap:round;fill:none;" />
<line x1='1757.3' y1='795.5' x2='1761.4' y2='784.2' style="stroke-width:8.0;stroke:rgb(150,150,150);stroke-linecap:round;fill:none;" />
<line x1='1848.9' y1='836.1' x2='1854.5' y2='825.5' style="stroke-width:8.0;stroke:rgb(150,150,150);stroke-linecap:round;fill:none;" />
<text x="1872.4" y="821.5" font-size="41.6px" font-family="CMUBright-Roman" style="text-anchor:start;fill:rgb(150,150,150);" transform="rotate(297.7,1872.4,821.5)" >350 kb</text>
<line x1='1934.3' y1='888.5' x2='1941.3' y2='878.8' style="stroke-width:8.0;stroke:rgb(150,150,150);stroke-linecap:round;fill:none;" />
<line x1='2012.0' y1='951.9' x2='2020.2' y2='943.2' style="stroke-width:8.0;stroke:rgb(150,150,150);stroke-linecap:round;fill:none;" />
<line x1='2080.5' y1='1025.1' x2='2089.8' y2='1017.5' style="stroke-width:8.0;stroke:rgb(150,150,150);stroke-linecap:round;fill:none;" />
<line x1='2138.6' y1='1106.7' x2='2148.8' y2='1100.4' style="stroke-width:8.0;stroke:rgb(150,150,150);stroke-linecap:round;fill:none;" />
<line x1='2185.4' y1='1195.4' x2='2196.3' y2='1190.5' style="stroke-width:8.0;stroke:rgb(150,150,150);stroke-linecap:round;fill:none;" />
<text x="2212.9" y="1198.5" font-size="41.6px" font-family="CMUBright-Roman" style="text-anchor:start;fill:rgb(150,150,150);" transform="rotate(336.0,2212.9,1198.5)" >400 kb</text>
<line x1='2219.8' y1='1289.5' x2='2231.4' y2='1286.1' style="stroke-width:8.0;stroke:rgb(150,150,150);stroke-linecap:round;fill:none;" />
<line x1='2241.5' y1='1387.3' x2='2253.4' y2='1385.5' style="stroke-width:8.0;stroke:rgb(150,150,150);stroke-linecap:round;fill:none;" />
<line x1='2249.9' y1='1487.2' x2='2261.9' y2='1487.0' style="stroke-width:8.0;stroke:rgb(150,150,150);stroke-linecap:round;fill:none;" />
<line x1='2244.9' y1='1587.3' x2='2256.8' y2='1588.7' style="stroke-width:8.0;stroke:rgb(150,150,150);stroke-linecap:round;fill:none;" />
<line x1='2226.6' y1='1685.9' x2='2238.2' y2='1688.8' style="stroke-width:8.0;stroke:rgb(150,150,150);stroke-linecap:round;fill:none;" />
<text x="2246.3" y="1705.3" font-size="41.6px" font-family="CMUBright-Roman" style="text-anchor:start;fill:rgb(150,150,150);" transform="rotate(14.3,2246.3,1705.3)" >450 kb</text>
<line x1='2195.3' y1='1781.1' x2='2206.5' y2='1785.6' style="stroke-width:8.0;stroke:rgb(150,150,150);stroke-linecap:round;fill:none;" />
<line x1='2151.6' y1='1871.3' x2='2162.1' y2='1877.2' style="stroke-width:8.0;stroke:rgb(150,150,150);stroke-linecap:round;fill:none;" />
<line x1='2096.3' y1='1954.9' x2='2105.9' y2='1962.1' style="stroke-width:8.0;stroke:rgb(150,150,150);stroke-linecap:round;fill:none;" />
<line x1='2030.3' y1='2030.3' x2='2038.8' y2='2038.8' style="stroke-width:8.0;stroke:rgb(150,150,150);stroke-linecap:round;fill:none;" />
<line x1='1954.9' y1='2096.3' x2='1962.2' y2='2105.8' style="stroke-width:8.0;stroke:rgb(150,150,150);stroke-linecap:round;fill:none;" />
<text x="1958.2" y="2123.8" font-size="41.6px" font-family="CMUBright-Roman" style="text-anchor:start;fill:rgb(150,150,150);" transform="rotate(52.7,1958.2,2123.8)" >500 kb</text>
<line x1='1871.3' y1='2151.6' x2='1877.3' y2='2162.1' style="stroke-width:8.0;stroke:rgb(150,150,150);stroke-linecap:round;fill:none;" />
<line x1='1781.1' y1='2195.3' x2='1785.6' y2='2206.4' style="stroke-width:8.0;stroke:rgb(150,150,150);stroke-linecap:round;fill:none;" />
<g id="highlighttrack_0">
<path d="M2035.082,1372.773 A550.000,550.000 40.000 0,1 2045.663,1431.062 L2244.085,1405.994 A750.000,750.000 0.000 0,0 2229.658,1326.509 Z" style="stroke-width:14.0;stroke:rgb(0,0,0);stroke-linecap:round;fill:rgb(255,38,78);" />
</g>
<path d="M1500.000,950.000 A550.000,550.000 40.000 0,1 1693.292,2014.916 L1763.579,2202.158 A750.000,750.000 0.000 0,0 1500.000,750.000 Z" style="stroke-width:2.0;stroke:rgb(0,0,0);stroke-linecap:round;fill:none;" />
<path d="M1476.852,2049.513 A550.000,550.000 40.000 0,1 1285.208,993.676 L1207.102,809.558 A750.000,750.000 0.000 0,0 1468.434,2249.335 Z" style="stroke-width:2.0;stroke:rgb(0,0,0);stroke-linecap:round;fill:rgb(179,177,178);" />
<text x="496.4" y="1682.2" font-size="46.8px" font-family="CMUBright-Roman" style="text-anchor:middle;fill:rgb(0,0,0);" transform="rotate(79.7,496.4,1682.2)" >HistocapCB186<tspan baseline-shift="-40%" font-size="90%">5</tspan></text>
<line x1='1200.3' y1='812.5' x2='1195.5' y2='801.5' style="stroke-width:8.0;stroke:rgb(150,150,150);stroke-linecap:round;fill:none;" />
<line x1='1111.3' y1='858.6' x2='1105.1' y2='848.3' style="stroke-width:8.0;stroke:rgb(150,150,150);stroke-linecap:round;fill:none;" />
<line x1='1029.3' y1='916.1' x2='1021.8' y2='906.8' style="stroke-width:8.0;stroke:rgb(150,150,150);stroke-linecap:round;fill:none;" />
<line x1='955.6' y1='984.1' x2='946.9' y2='975.8' style="stroke-width:8.0;stroke:rgb(150,150,150);stroke-linecap:round;fill:none;" />
<text x="928.7" y="977.8" font-size="41.6px" font-family="CMUBright-Roman" style="text-anchor:end;fill:rgb(150,150,150);" transform="rotate(43.5,928.7,977.8)" >400 kb</text>
<line x1='891.7' y1='1061.3' x2='882.0' y2='1054.3' style="stroke-width:8.0;stroke:rgb(150,150,150);stroke-linecap:round;fill:none;" />
<line x1='838.6' y1='1146.3' x2='828.1' y2='1140.6' style="stroke-width:8.0;stroke:rgb(150,150,150);stroke-linecap:round;fill:none;" />
<line x1='797.4' y1='1237.7' x2='786.1' y2='1233.5' style="stroke-width:8.0;stroke:rgb(150,150,150);stroke-linecap:round;fill:none;" />
<line x1='768.7' y1='1333.7' x2='757.0' y2='1331.0' style="stroke-width:8.0;stroke:rgb(150,150,150);stroke-linecap:round;fill:none;" />
<line x1='753.0' y1='1432.7' x2='741.1' y2='1431.6' style="stroke-width:8.0;stroke:rgb(150,150,150);stroke-linecap:round;fill:none;" />
<text x="728.0" y="1444.5" font-size="41.6px" font-family="CMUBright-Roman" style="text-anchor:end;fill:rgb(150,150,150);" transform="rotate(5.1,728.0,1444.5)" >450 kb</text>
<line x1='750.7' y1='1532.9' x2='738.7' y2='1533.4' style="stroke-width:8.0;stroke:rgb(150,150,150);stroke-linecap:round;fill:none;" />
<line x1='761.8' y1='1632.5' x2='750.0' y2='1634.6' style="stroke-width:8.0;stroke:rgb(150,150,150);stroke-linecap:round;fill:none;" />
<line x1='786.1' y1='1729.7' x2='774.6' y2='1733.4' style="stroke-width:8.0;stroke:rgb(150,150,150);stroke-linecap:round;fill:none;" />
<line x1='823.1' y1='1822.9' x2='812.2' y2='1828.1' style="stroke-width:8.0;stroke:rgb(150,150,150);stroke-linecap:round;fill:none;" />
<line x1='872.2' y1='1910.3' x2='862.1' y2='1916.8' style="stroke-width:8.0;stroke:rgb(150,150,150);stroke-linecap:round;fill:none;" />
<text x="859.8" y="1935.0" font-size="41.6px" font-family="CMUBright-Roman" style="text-anchor:end;fill:rgb(150,150,150);" transform="rotate(-33.2,859.8,1935.0)" >500 kb</text>
<line x1='932.5' y1='1990.3' x2='923.4' y2='1998.2' style="stroke-width:8.0;stroke:rgb(150,150,150);stroke-linecap:round;fill:none;" />
<line x1='1002.9' y1='2061.6' x2='995.0' y2='2070.6' style="stroke-width:8.0;stroke:rgb(150,150,150);stroke-linecap:round;fill:none;" />
<line x1='1082.2' y1='2122.9' x2='1075.6' y2='2132.8' style="stroke-width:8.0;stroke:rgb(150,150,150);stroke-linecap:round;fill:none;" />
<line x1='1169.0' y1='2173.0' x2='1163.7' y2='2183.8' style="stroke-width:8.0;stroke:rgb(150,150,150);stroke-linecap:round;fill:none;" />
<line x1='1261.7' y1='2211.1' x2='1257.9' y2='2222.5' style="stroke-width:8.0;stroke:rgb(150,150,150);stroke-linecap:round;fill:none;" />
<text x="1267.4" y="2238.2" font-size="41.6px" font-family="CMUBright-Roman" style="text-anchor:end;fill:rgb(150,150,150);" transform="rotate(-71.5,1267.4,2238.2)" >550 kb</text>
<line x1='1358.7' y1='2236.6' x2='1356.4' y2='2248.3' style="stroke-width:8.0;stroke:rgb(150,150,150);stroke-linecap:round;fill:none;" />
<line x1='1458.1' y1='2248.8' x2='1457.5' y2='2260.8' style="stroke-width:8.0;stroke:rgb(150,150,150);stroke-linecap:round;fill:none;" />
<path d="M1476.852,2049.513 A550.000,550.000 40.000 0,1 1285.208,993.676 L1207.102,809.558 A750.000,750.000 0.000 0,0 1468.434,2249.335 Z" style="stroke-width:2.0;stroke:rgb(0,0,0);stroke-linecap:round;fill:none;" />
</g>
<g id="track_0">
<path d="M 2018.794,1562.120 A 522.500,522.500 0.00 0,1 1994.6,1668.5 L 1994.6,1668.5 1972.3,1661.2 1949.6,1654.2 1926.7,1647.7 1903.4,1641.7 1879.9,1636.2 1856.2,1631.2 1832.2,1626.9 1808.1,1623.1 1783.9,1620.1 1759.6,1617.7 1735.2,1615.9 1710.7,1615.0 1686.2,1614.7 1661.8,1615.2 1637.3,1616.5 1613.0,1618.5 1588.7,1621.3 1564.5,1624.9 1540.4,1629.3 1516.5,1634.5 1492.8,1640.4 1469.3,1647.1 1446.0,1654.6 1423.0,1662.8 1400.2,1671.7 1377.7,1681.4 1355.5,1691.7 1333.6,1702.7 1312.1,1714.3 1290.9,1726.5 1270.2,1739.4 1249.7,1752.7 1229.7,1766.5 1210.2,1780.9 1191.0,1795.6 1172.3,1810.7 1154.1,1826.1 1136.4,1841.8 1119.1,1857.6  A 522.500,522.500 0.00 0,1 1053.1,1770.7 L 1053.1,1770.7 1074.3,1758.0 1095.9,1745.6 1117.8,1733.3 1140.1,1721.3 1162.6,1709.5 1185.5,1698.0 1208.6,1686.9 1232.1,1676.1 1255.8,1665.6 1279.7,1655.5 1303.9,1645.8 1328.4,1636.6 1353.0,1627.7 1377.9,1619.3 1402.9,1611.4 1428.1,1603.9 1453.5,1596.8 1479.1,1590.3 1504.7,1584.2 1530.5,1578.7 1556.3,1573.6 1582.3,1569.0 1608.3,1564.9 1634.4,1561.4 1660.5,1558.3 1686.6,1555.7 1712.7,1553.5 1738.8,1551.9 1764.8,1550.7 1790.8,1550.0 1816.7,1549.8 1842.5,1550.0 1868.2,1550.6 1893.8,1551.6 1919.2,1553.0 1944.4,1554.7 1969.4,1556.9 1994.2,1559.3 2018.8,1562.1  Z" style="stroke-width: 0.5;  stroke: rgb(0,0,0); fill: rgb(179,177,178);" />
<path d="M 1900.789,1164.777 A 522.500,522.500 0.00 0,1 1952.2,1238.2 L 1952.2,1238.2 1930.9,1250.3 1909.2,1262.2 1887.2,1273.9 1864.9,1285.2 1842.2,1296.3 1819.2,1307.0 1795.9,1317.4 1772.3,1327.4 1748.5,1337.0 1724.4,1346.2 1700.0,1354.9 1675.5,1363.1 1650.7,1370.9 1625.7,1378.1 1600.6,1384.9 1575.2,1391.1 1549.8,1396.8 1524.2,1402.0 1498.5,1406.6 1472.7,1410.7 1446.8,1414.2 1420.9,1417.2 1394.9,1419.6 1368.9,1421.5 1342.9,1422.8 1316.9,1423.6 1290.9,1423.8 1265.0,1423.5 1239.1,1422.8 1213.4,1421.5 1187.8,1419.7 1162.2,1417.4 1136.9,1414.7 1111.7,1411.6 1086.7,1408.1 1062.0,1404.1 1037.4,1399.8 1013.2,1395.1 989.2,1390.2  A 522.500,522.500 0.00 0,1 1015.4,1304.5 L 1015.4,1304.5 1037.3,1313.1 1059.5,1321.3 1082.1,1329.0 1105.0,1336.3 1128.2,1343.1 1151.6,1349.4 1175.3,1355.1 1199.1,1360.1 1223.2,1364.6 1247.3,1368.3 1271.6,1371.4 1296.0,1373.7 1320.5,1375.3 1344.9,1376.2 1369.4,1376.3 1393.9,1375.6 1418.3,1374.2 1442.7,1371.9 1466.9,1368.9 1491.1,1365.1 1515.1,1360.5 1539.0,1355.1 1562.7,1349.0 1586.1,1342.1 1609.4,1334.4 1632.4,1326.1 1655.2,1317.0 1677.6,1307.3 1699.8,1296.9 1721.7,1285.9 1743.2,1274.3 1764.3,1262.1 1785.1,1249.4 1805.4,1236.3 1825.4,1222.6 1844.9,1208.6 1864.0,1194.3 1882.6,1179.7 1900.8,1164.8  Z" style="stroke-width: 0.5;  stroke: rgb(0,0,0); fill: rgb(179,177,178);" />
<path d="M 1791.854,1066.610 A 522.500,522.500 0.00 0,1 1848.1,1110.3 L 1848.1,1110.3 1832.8,1127.1 1817.0,1143.5 1800.7,1159.7 1783.9,1175.5 1766.6,1190.9 1748.9,1205.7 1730.7,1220.0 1712.1,1233.7 1693.1,1246.7 1673.7,1259.0 1653.9,1270.5 1633.8,1281.2 1613.3,1291.1 1592.6,1300.2 1571.6,1308.3 1550.3,1315.6 1528.8,1321.9 1507.0,1327.2 1485.1,1331.6 1463.0,1335.1 1440.8,1337.5 1418.5,1339.0 1396.0,1339.6 1373.6,1339.1 1351.0,1337.8 1328.5,1335.4 1306.1,1332.2 1283.6,1328.1 1261.3,1323.1 1239.1,1317.3 1217.0,1310.7 1195.1,1303.4 1173.5,1295.3 1152.1,1286.5 1130.9,1277.1 1110.1,1267.2 1089.7,1256.7 1069.6,1245.8 1050.0,1234.6  A 522.500,522.500 0.00 0,1 1090.2,1175.8 L 1090.2,1175.8 1107.6,1189.2 1125.4,1202.3 1143.7,1214.9 1162.3,1227.0 1181.2,1238.5 1200.3,1249.3 1219.8,1259.4 1239.4,1268.6 1259.2,1277.1 1279.2,1284.6 1299.2,1291.2 1319.4,1296.8 1339.6,1301.4 1359.7,1305.0 1379.9,1307.5 1400.0,1308.9 1420.1,1309.2 1440.0,1308.4 1459.8,1306.5 1479.5,1303.4 1498.9,1299.2 1518.1,1293.9 1537.2,1287.6 1555.9,1280.1 1574.3,1271.6 1592.5,1262.1 1610.3,1251.6 1627.8,1240.1 1644.9,1227.7 1661.6,1214.4 1677.9,1200.4 1693.8,1185.6 1709.3,1170.1 1724.3,1153.9 1738.8,1137.2 1752.8,1120.1 1766.3,1102.5 1779.4,1084.7 1791.9,1066.6  Z" style="stroke-width: 0.5;  stroke: rgb(0,0,0); fill: rgb(179,177,178);" />
<path d="M 1569.530,982.147 A 522.500,522.500 0.00 0,1 1637.7,996.0 L 1637.7,996.0 1632.0,1015.9 1626.0,1035.6 1619.6,1055.0 1612.8,1074.1 1605.6,1092.6 1598.1,1110.5 1590.2,1127.7 1581.9,1144.0 1573.2,1159.5 1564.2,1173.9 1554.9,1187.3 1545.2,1199.6 1535.2,1210.7 1524.9,1220.5 1514.3,1229.1 1503.4,1236.3 1492.2,1242.2 1480.8,1246.8 1469.2,1249.9 1457.4,1251.7 1445.3,1252.0 1433.1,1250.9 1420.7,1248.5 1408.2,1244.7 1395.6,1239.6 1382.8,1233.1 1370.1,1225.4 1357.3,1216.4 1344.5,1206.3 1331.7,1195.0 1318.9,1182.8 1306.3,1169.5 1293.8,1155.3 1281.4,1140.4 1269.2,1124.7 1257.2,1108.4 1245.4,1091.7 1233.9,1074.5 1222.8,1057.1  A 522.500,522.500 0.00 0,1 1284.0,1024.2 L 1284.0,1024.2 1292.6,1042.7 1301.3,1061.0 1310.3,1078.9 1319.4,1096.3 1328.7,1113.1 1338.1,1129.2 1347.5,1144.5 1357.0,1158.9 1366.5,1172.4 1376.0,1184.7 1385.4,1195.9 1394.8,1205.8 1404.1,1214.5 1413.3,1221.9 1422.4,1227.9 1431.4,1232.5 1440.1,1235.7 1448.7,1237.4 1457.2,1237.7 1465.4,1236.5 1473.3,1233.8 1481.1,1229.7 1488.6,1224.1 1495.8,1217.1 1502.8,1208.7 1509.5,1199.0 1515.9,1188.0 1522.0,1175.8 1527.8,1162.3 1533.3,1147.8 1538.5,1132.2 1543.5,1115.7 1548.1,1098.3 1552.4,1080.1 1556.4,1061.4 1560.1,1042.0 1563.6,1022.3 1566.7,1002.3 1569.5,982.1  Z" style="stroke-width: 0.5;  stroke: rgb(0,0,0); fill: rgb(179,177,178);" />
<path d="M 1973.918,1720.017 A 522.500,522.500 0.00 0,1 1950.7,1764.4 L 1950.7,1764.4 1931.4,1753.3 1911.7,1742.7 1891.6,1732.6 1871.2,1723.1 1850.6,1714.1 1829.7,1705.8 1808.7,1698.3 1787.4,1691.5 1766.1,1685.6 1744.7,1680.5 1723.3,1676.3 1701.9,1673.1 1680.5,1670.9 1659.1,1669.6 1637.9,1669.4 1616.8,1670.2 1595.9,1672.0 1575.1,1674.9 1554.6,1678.8 1534.3,1683.8 1514.3,1689.8 1494.5,1696.8 1475.1,1704.9 1456.0,1713.9 1437.3,1724.0 1419.0,1735.0 1401.1,1746.8 1383.6,1759.6 1366.5,1773.2 1349.9,1787.6 1333.7,1802.7 1318.0,1818.5 1302.8,1835.0 1288.1,1852.0 1274.0,1869.4 1260.3,1887.3 1247.2,1905.6 1234.7,1924.1 1222.6,1942.8  A 522.500,522.500 0.00 0,1 1181.5,1914.2 L 1181.5,1914.2 1195.6,1896.4 1210.2,1878.7 1225.3,1861.3 1240.9,1844.3 1257.1,1827.6 1273.7,1811.4 1290.9,1795.7 1308.5,1780.6 1326.5,1766.1 1345.0,1752.2 1364.0,1739.1 1383.3,1726.8 1403.0,1715.2 1423.1,1704.4 1443.6,1694.5 1464.4,1685.5 1485.5,1677.4 1506.9,1670.1 1528.5,1663.8 1550.5,1658.5 1572.6,1654.0 1594.9,1650.6 1617.4,1648.0 1640.0,1646.4 1662.7,1645.7 1685.5,1646.0 1708.3,1647.1 1731.2,1649.1 1754.1,1652.0 1776.9,1655.7 1799.6,1660.2 1822.2,1665.5 1844.6,1671.5 1866.9,1678.1 1888.9,1685.4 1910.6,1693.3 1932.1,1701.8 1953.2,1710.7 1973.9,1720.0  Z" style="stroke-width: 0.5;  stroke: rgb(0,0,0); fill: rgb(179,177,178);" />
<path d="M 1985.546,1306.994 A 522.500,522.500 0.00 0,1 2001.6,1353.8 L 2001.6,1353.8 1976.5,1361.0 1951.2,1368.2 1925.9,1375.3 1900.4,1382.4 1874.8,1389.3 1849.2,1396.1 1823.4,1402.8 1797.5,1409.4 1771.6,1415.9 1745.6,1422.2 1719.5,1428.4 1693.4,1434.5 1667.2,1440.5 1640.9,1446.3 1614.5,1452.0 1588.2,1457.5 1561.7,1462.9 1535.3,1468.1 1508.7,1473.2 1482.2,1478.2 1455.6,1482.9 1429.1,1487.6 1402.5,1492.1 1375.9,1496.4 1349.2,1500.6 1322.6,1504.6 1296.0,1508.5 1269.4,1512.2 1242.9,1515.8 1216.3,1519.2 1189.8,1522.5 1163.3,1525.6 1136.8,1528.6 1110.4,1531.5 1084.1,1534.2 1057.8,1536.9 1031.6,1539.3 1005.4,1541.7 979.4,1544.0  A 522.500,522.500 0.00 0,1 977.5,1494.5 L 977.5,1494.5 1003.1,1494.7 1028.8,1494.6 1054.7,1494.4 1080.7,1493.9 1106.8,1493.2 1133.0,1492.2 1159.3,1491.0 1185.7,1489.5 1212.1,1487.8 1238.6,1485.8 1265.2,1483.5 1291.8,1480.9 1318.4,1478.0 1345.0,1474.9 1371.6,1471.4 1398.2,1467.7 1424.8,1463.7 1451.4,1459.3 1477.9,1454.7 1504.4,1449.8 1530.8,1444.6 1557.1,1439.1 1583.4,1433.3 1609.5,1427.2 1635.6,1420.8 1661.6,1414.2 1687.4,1407.3 1713.2,1400.2 1738.8,1392.8 1764.2,1385.1 1789.5,1377.2 1814.7,1369.1 1839.6,1360.8 1864.4,1352.3 1889.1,1343.5 1913.5,1334.6 1937.7,1325.6 1961.7,1316.3 1985.5,1307.0  Z" style="stroke-width: 0.5;  stroke: rgb(0,0,0); fill: rgb(179,177,178);" />
<path d="M 1950.351,1764.935 A 522.500,522.500 0.00 0,1 1924.3,1804.9 L 1924.3,1804.9 1906.5,1792.4 1888.3,1780.3 1869.7,1768.7 1850.9,1757.7 1831.7,1747.3 1812.4,1737.6 1792.9,1728.6 1773.3,1720.5 1753.6,1713.3 1733.8,1707.0 1714.0,1701.7 1694.3,1697.4 1674.6,1694.1 1655.1,1691.9 1635.6,1690.9 1616.3,1690.9 1597.2,1692.1 1578.4,1694.4 1559.8,1697.9 1541.4,1702.6 1523.4,1708.3 1505.7,1715.2 1488.3,1723.3 1471.3,1732.4 1454.7,1742.5 1438.5,1753.8 1422.7,1766.0 1407.4,1779.1 1392.5,1793.2 1378.2,1808.1 1364.2,1823.8 1350.8,1840.3 1337.9,1857.4 1325.5,1875.2 1313.6,1893.4 1302.3,1912.1 1291.5,1931.1 1281.2,1950.4 1271.4,1969.8  A 522.500,522.500 0.00 0,1 1229.6,1947.1 L 1229.6,1947.1 1241.3,1928.3 1253.6,1909.6 1266.4,1891.2 1279.7,1873.1 1293.6,1855.5 1307.9,1838.3 1322.8,1821.7 1338.2,1805.7 1354.1,1790.4 1370.4,1775.9 1387.2,1762.1 1404.5,1749.2 1422.2,1737.2 1440.3,1726.1 1458.7,1715.9 1477.6,1706.7 1496.8,1698.5 1516.3,1691.3 1536.1,1685.2 1556.2,1680.1 1576.6,1676.1 1597.2,1673.1 1617.9,1671.2 1638.9,1670.3 1660.0,1670.5 1681.2,1671.7 1702.5,1673.9 1723.8,1677.1 1745.1,1681.2 1766.4,1686.2 1787.6,1692.1 1808.7,1698.9 1829.7,1706.4 1850.5,1714.7 1871.1,1723.6 1891.4,1733.2 1911.4,1743.3 1931.1,1753.9 1950.4,1764.9  Z" style="stroke-width: 0.5;  stroke: rgb(0,0,0); fill: rgb(179,177,178);" />
<path d="M 1725.170,1028.508 A 522.500,522.500 0.00 0,1 1762.6,1048.3 L 1762.6,1048.3 1751.6,1066.8 1740.0,1085.1 1728.0,1103.0 1715.5,1120.6 1702.5,1137.7 1689.1,1154.1 1675.2,1169.9 1660.9,1185.0 1646.2,1199.2 1631.2,1212.5 1615.8,1225.0 1600.0,1236.4 1583.9,1246.8 1567.5,1256.1 1550.8,1264.3 1533.9,1271.3 1516.7,1277.2 1499.3,1281.9 1481.7,1285.3 1464.0,1287.6 1446.1,1288.6 1428.1,1288.4 1410.0,1287.1 1391.8,1284.5 1373.6,1280.7 1355.4,1275.8 1337.2,1269.8 1319.1,1262.7 1301.1,1254.5 1283.1,1245.4 1265.4,1235.2 1247.8,1224.3 1230.4,1212.4 1213.3,1199.9 1196.4,1186.6 1179.9,1172.7 1163.8,1158.3 1148.0,1143.5 1132.7,1128.4  A 522.500,522.500 0.00 0,1 1164.0,1099.9 L 1164.0,1099.9 1177.8,1115.9 1192.1,1131.7 1206.7,1147.1 1221.6,1161.9 1236.9,1176.2 1252.4,1189.7 1268.1,1202.5 1284.0,1214.4 1300.1,1225.4 1316.3,1235.5 1332.6,1244.4 1349.0,1252.3 1365.4,1259.0 1381.9,1264.6 1398.3,1268.9 1414.6,1272.0 1430.9,1273.8 1447.1,1274.4 1463.1,1273.7 1479.0,1271.6 1494.8,1268.3 1510.3,1263.7 1525.6,1257.9 1540.7,1250.8 1555.5,1242.5 1570.0,1233.0 1584.2,1222.4 1598.1,1210.7 1611.6,1197.9 1624.8,1184.2 1637.6,1169.5 1650.1,1154.0 1662.1,1137.7 1673.7,1120.7 1684.9,1103.0 1695.7,1084.9 1706.0,1066.4 1715.8,1047.5 1725.2,1028.5  Z" style="stroke-width: 0.5;  stroke: rgb(0,0,0); fill: rgb(179,177,178);" />
<path d="M 1873.842,1134.968 A 522.500,522.500 0.00 0,1 1900.6,1164.6 L 1900.6,1164.6 1882.5,1179.4 1863.9,1194.1 1844.8,1208.4 1825.3,1222.4 1805.3,1236.0 1785.0,1249.2 1764.2,1261.9 1743.1,1274.0 1721.6,1285.6 1699.8,1296.6 1677.6,1307.0 1655.2,1316.7 1632.5,1325.7 1609.5,1334.1 1586.2,1341.7 1562.7,1348.5 1539.1,1354.6 1515.2,1360.0 1491.2,1364.5 1467.1,1368.3 1442.8,1371.2 1418.5,1373.4 1394.1,1374.8 1369.7,1375.4 1345.2,1375.3 1320.8,1374.3 1296.4,1372.7 1272.0,1370.2 1247.8,1367.1 1223.6,1363.3 1199.6,1358.8 1175.8,1353.6 1152.2,1347.9 1128.8,1341.5 1105.7,1334.6 1082.8,1327.2 1060.3,1319.4 1038.1,1311.1 1016.3,1302.5  A 522.500,522.500 0.00 0,1 1032.8,1266.1 L 1032.8,1266.1 1053.5,1276.2 1074.6,1285.9 1096.1,1295.2 1117.9,1303.9 1140.0,1312.2 1162.4,1319.8 1185.1,1326.8 1207.9,1333.1 1231.0,1338.8 1254.2,1343.6 1277.5,1347.8 1300.9,1351.1 1324.3,1353.6 1347.8,1355.2 1371.3,1356.0 1394.8,1356.0 1418.2,1355.0 1441.6,1353.2 1464.8,1350.5 1488.0,1346.9 1510.9,1342.4 1533.7,1337.0 1556.4,1330.8 1578.7,1323.7 1600.9,1315.8 1622.8,1307.0 1644.3,1297.5 1665.6,1287.2 1686.6,1276.2 1707.2,1264.5 1727.4,1252.1 1747.2,1239.1 1766.7,1225.6 1785.7,1211.5 1804.3,1196.9 1822.4,1181.9 1840.0,1166.5 1857.2,1150.9 1873.8,1135.0  Z" style="stroke-width: 0.5;  stroke: rgb(0,0,0); fill: rgb(179,177,178);" />
<path d="M 1923.388,1806.184 A 522.500,522.500 0.00 0,1 1907.5,1827.0 L 1907.5,1827.0 1890.9,1813.9 1873.9,1801.3 1856.7,1789.1 1839.2,1777.5 1821.6,1766.5 1803.9,1756.3 1786.2,1746.9 1768.4,1738.3 1750.7,1730.7 1733.0,1724.1 1715.5,1718.6 1698.2,1714.1 1681.1,1710.8 1664.3,1708.7 1647.7,1707.7 1631.4,1708.0 1615.5,1709.4 1600.0,1712.2 1584.9,1716.1 1570.2,1721.3 1555.9,1727.8 1542.1,1735.4 1528.9,1744.3 1516.1,1754.4 1503.8,1765.5 1492.1,1777.8 1480.9,1791.2 1470.2,1805.5 1460.1,1820.9 1450.6,1837.1 1441.6,1854.2 1433.2,1872.0 1425.3,1890.5 1418.0,1909.6 1411.2,1929.2 1405.0,1949.2 1399.3,1969.5 1394.0,1990.0 1389.3,2010.6  A 522.500,522.500 0.00 0,1 1364.0,2004.5 L 1364.0,2004.5 1369.8,1983.9 1376.1,1963.5 1382.9,1943.3 1390.3,1923.3 1398.3,1903.8 1406.7,1884.8 1415.8,1866.3 1425.4,1848.5 1435.6,1831.4 1446.3,1815.2 1457.6,1799.8 1469.4,1785.3 1481.8,1771.8 1494.7,1759.4 1508.2,1748.0 1522.1,1737.7 1536.6,1728.6 1551.5,1720.6 1566.9,1713.8 1582.7,1708.2 1598.9,1703.8 1615.6,1700.6 1632.5,1698.6 1649.8,1697.8 1667.5,1698.2 1685.3,1699.7 1703.4,1702.4 1721.8,1706.1 1740.2,1711.0 1758.8,1716.9 1777.4,1723.7 1796.1,1731.5 1814.8,1740.1 1833.4,1749.6 1851.8,1759.7 1870.1,1770.6 1888.2,1782.0 1906.0,1793.9 1923.4,1806.2  Z" style="stroke-width: 0.5;  stroke: rgb(0,0,0); fill: rgb(179,177,178);" />
<path d="M 1990.078,1681.191 A 522.500,522.500 0.00 0,1 1980.6,1705.0 L 1980.6,1705.0 1959.4,1696.2 1937.9,1687.9 1916.0,1680.0 1893.7,1672.7 1871.3,1665.9 1848.6,1659.7 1825.7,1654.2 1802.6,1649.4 1779.4,1645.4 1756.1,1642.1 1732.8,1639.6 1709.5,1637.9 1686.1,1637.0 1662.8,1637.1 1639.6,1638.0 1616.4,1639.7 1593.4,1642.4 1570.5,1646.0 1547.8,1650.5 1525.3,1655.8 1503.0,1662.1 1481.0,1669.2 1459.2,1677.2 1437.8,1686.1 1416.6,1695.8 1395.8,1706.3 1375.4,1717.6 1355.3,1729.7 1335.6,1742.4 1316.3,1755.9 1297.5,1770.0 1279.1,1784.7 1261.1,1799.9 1243.7,1815.7 1226.7,1831.9 1210.2,1848.4 1194.2,1865.4 1178.7,1882.5 1163.8,1899.9  A 522.500,522.500 0.00 0,1 1144.6,1883.0 L 1144.6,1883.0 1160.5,1866.1 1177.0,1849.5 1194.0,1833.1 1211.4,1817.1 1229.4,1801.4 1247.8,1786.2 1266.6,1771.4 1285.9,1757.1 1305.6,1743.5 1325.8,1730.4 1346.3,1717.9 1367.2,1706.2 1388.4,1695.1 1410.0,1684.8 1431.9,1675.2 1454.1,1666.4 1476.6,1658.4 1499.4,1651.2 1522.3,1644.9 1545.5,1639.3 1568.9,1634.7 1592.4,1630.8 1616.1,1627.8 1639.9,1625.6 1663.7,1624.2 1687.7,1623.7 1711.6,1624.0 1735.6,1625.0 1759.5,1626.9 1783.4,1629.5 1807.1,1632.8 1830.8,1636.8 1854.3,1641.4 1877.6,1646.7 1900.7,1652.6 1923.5,1659.0 1946.0,1666.0 1968.2,1673.4 1990.1,1681.2  Z" style="stroke-width: 0.5;  stroke: rgb(0,0,0); fill: rgb(179,177,178);" />
<path d="M 1902.768,1832.843 A 522.500,522.500 0.00 0,1 1886.1,1852.1 L 1886.1,1852.1 1870.4,1838.1 1854.5,1824.6 1838.3,1811.4 1822.0,1798.9 1805.5,1786.9 1788.9,1775.7 1772.2,1765.4 1755.6,1755.9 1739.1,1747.4 1722.7,1739.9 1706.4,1733.4 1690.3,1728.1 1674.4,1724.0 1658.9,1721.0 1643.6,1719.3 1628.6,1718.8 1614.0,1719.6 1599.8,1721.7 1586.0,1725.1 1572.6,1729.8 1559.7,1735.7 1547.3,1742.9 1535.4,1751.3 1524.0,1761.0 1513.1,1771.9 1502.7,1783.9 1492.8,1797.0 1483.5,1811.2 1474.8,1826.3 1466.6,1842.4 1459.0,1859.4 1451.8,1877.1 1445.3,1895.6 1439.2,1914.7 1433.7,1934.3 1428.7,1954.3 1424.2,1974.6 1420.2,1995.2 1416.6,2015.8  A 522.500,522.500 0.00 0,1 1391.6,2011.1 L 1391.6,2011.1 1396.2,1990.5 1401.3,1970.0 1406.9,1949.7 1413.0,1929.7 1419.7,1910.1 1426.9,1891.1 1434.6,1872.6 1442.9,1854.8 1451.7,1837.8 1461.1,1821.7 1471.1,1806.4 1481.6,1792.1 1492.6,1778.8 1504.2,1766.6 1516.3,1755.6 1528.9,1745.6 1542.0,1736.9 1555.6,1729.4 1569.7,1723.1 1584.2,1718.0 1599.1,1714.2 1614.4,1711.6 1630.1,1710.3 1646.2,1710.3 1662.5,1711.4 1679.2,1713.8 1696.1,1717.3 1713.2,1722.0 1730.5,1727.7 1747.9,1734.5 1765.4,1742.4 1782.9,1751.1 1800.5,1760.8 1818.0,1771.2 1835.3,1782.4 1852.6,1794.3 1869.6,1806.7 1886.3,1819.6 1902.8,1832.8  Z" style="stroke-width: 0.5;  stroke: rgb(0,0,0); fill: rgb(179,177,178);" />
<path d="M 2022.133,1480.411 A 522.500,522.500 0.00 0,1 2022.5,1505.7 L 2022.5,1505.7 1996.8,1505.5 1971.0,1505.5 1945.0,1505.7 1919.0,1506.1 1892.8,1506.8 1866.5,1507.6 1840.1,1508.7 1813.7,1510.0 1787.2,1511.6 1760.6,1513.4 1734.0,1515.5 1707.4,1517.8 1680.7,1520.4 1654.0,1523.3 1627.4,1526.4 1600.7,1529.9 1574.0,1533.5 1547.4,1537.5 1520.7,1541.7 1494.2,1546.2 1467.6,1551.0 1441.2,1556.0 1414.8,1561.3 1388.5,1566.9 1362.2,1572.7 1336.1,1578.8 1310.0,1585.1 1284.1,1591.7 1258.3,1598.5 1232.6,1605.5 1207.1,1612.8 1181.7,1620.2 1156.4,1627.9 1131.3,1635.7 1106.4,1643.7 1081.7,1651.9 1057.1,1660.3 1032.7,1668.8 1008.5,1677.4  A 522.500,522.500 0.00 0,1 1000.5,1653.4 L 1000.5,1653.4 1025.4,1645.8 1050.4,1638.4 1075.5,1631.0 1100.8,1623.8 1126.2,1616.7 1151.7,1609.7 1177.4,1602.9 1203.1,1596.2 1229.0,1589.7 1255.0,1583.4 1281.0,1577.2 1307.2,1571.1 1333.4,1565.3 1359.7,1559.6 1386.1,1554.2 1412.5,1548.9 1439.0,1543.8 1465.5,1538.9 1492.1,1534.2 1518.7,1529.7 1545.4,1525.4 1572.0,1521.3 1598.7,1517.3 1625.4,1513.6 1652.1,1510.1 1678.8,1506.8 1705.5,1503.7 1732.2,1500.8 1758.8,1498.0 1785.4,1495.5 1812.0,1493.1 1838.5,1490.9 1865.0,1489.0 1891.4,1487.1 1917.7,1485.5 1943.9,1484.0 1970.1,1482.6 1996.2,1481.5 2022.1,1480.4  Z" style="stroke-width: 0.5;  stroke: rgb(0,0,0); fill: rgb(179,177,178);" />
<path d="M 1878.820,1859.863 A 522.500,522.500 0.00 0,1 1861.1,1877.6 L 1861.1,1877.6 1846.7,1862.8 1832.0,1848.3 1817.0,1834.2 1801.9,1820.7 1786.7,1807.8 1771.4,1795.6 1756.2,1784.3 1741.0,1773.9 1725.9,1764.4 1711.0,1756.0 1696.2,1748.6 1681.7,1742.4 1667.4,1737.4 1653.4,1733.7 1639.8,1731.2 1626.5,1729.9 1613.6,1730.0 1601.1,1731.5 1589.0,1734.2 1577.5,1738.3 1566.3,1743.7 1555.7,1750.4 1545.6,1758.4 1536.0,1767.7 1527.0,1778.2 1518.4,1789.9 1510.4,1802.8 1503.0,1816.7 1496.1,1831.7 1489.7,1847.6 1483.9,1864.5 1478.6,1882.1 1473.9,1900.5 1469.6,1919.5 1465.8,1939.1 1462.5,1959.1 1459.7,1979.4 1457.3,2000.0 1455.4,2020.6  A 522.500,522.500 0.00 0,1 1430.5,2017.9 L 1430.5,2017.9 1433.5,1997.2 1436.9,1976.6 1440.8,1956.3 1445.2,1936.2 1450.1,1916.6 1455.5,1897.6 1461.4,1879.1 1467.9,1861.4 1474.9,1844.4 1482.5,1828.3 1490.6,1813.2 1499.3,1799.1 1508.5,1786.0 1518.2,1774.1 1528.5,1763.3 1539.3,1753.8 1550.6,1745.4 1562.5,1738.3 1574.8,1732.6 1587.5,1728.1 1600.8,1724.9 1614.4,1723.0 1628.5,1722.3 1642.9,1723.0 1657.6,1725.0 1672.7,1728.2 1688.1,1732.6 1703.7,1738.1 1719.5,1744.8 1735.4,1752.6 1751.5,1761.4 1767.7,1771.2 1783.9,1781.8 1800.1,1793.3 1816.2,1805.5 1832.2,1818.4 1848.0,1831.8 1863.5,1845.7 1878.8,1859.9  Z" style="stroke-width: 0.5;  stroke: rgb(0,0,0); fill: rgb(179,177,178);" />
<path d="M 2020.108,1450.058 A 522.500,522.500 0.00 0,1 2021.8,1473.1 L 2021.8,1473.1 1995.7,1474.5 1969.6,1476.0 1943.3,1477.7 1917.0,1479.5 1890.7,1481.4 1864.2,1483.5 1837.7,1485.7 1811.2,1488.1 1784.6,1490.6 1758.0,1493.3 1731.3,1496.1 1704.6,1499.1 1677.9,1502.3 1651.2,1505.7 1624.5,1509.2 1597.8,1512.8 1571.1,1516.7 1544.4,1520.7 1517.7,1524.9 1491.1,1529.3 1464.5,1533.8 1437.9,1538.5 1411.4,1543.3 1384.9,1548.3 1358.4,1553.5 1332.1,1558.8 1305.8,1564.3 1279.5,1570.0 1253.3,1575.8 1227.2,1581.7 1201.2,1587.8 1175.3,1594.0 1149.5,1600.3 1123.8,1606.7 1098.1,1613.3 1072.6,1620.0 1047.2,1626.8 1021.9,1633.7 996.8,1640.6  A 522.500,522.500 0.00 0,1 991.1,1618.2 L 991.1,1618.2 1016.8,1612.3 1042.5,1606.4 1068.4,1600.6 1094.3,1594.9 1120.3,1589.2 1146.4,1583.6 1172.5,1578.0 1198.6,1572.5 1224.9,1567.2 1251.1,1561.9 1277.4,1556.7 1303.8,1551.5 1330.2,1546.5 1356.7,1541.6 1383.1,1536.7 1409.6,1532.0 1436.2,1527.3 1462.8,1522.8 1489.3,1518.3 1515.9,1514.0 1542.6,1509.7 1569.2,1505.6 1595.8,1501.6 1622.5,1497.6 1649.1,1493.8 1675.8,1490.0 1702.4,1486.4 1729.0,1482.9 1755.6,1479.4 1782.2,1476.1 1808.8,1472.8 1835.3,1469.7 1861.8,1466.6 1888.3,1463.6 1914.8,1460.8 1941.2,1458.0 1967.5,1455.2 1993.8,1452.6 2020.1,1450.1  Z" style="stroke-width: 0.5;  stroke: rgb(0,0,0); fill: rgb(179,177,178);" />
<path d="M 1546.066,979.535 A 522.500,522.500 0.00 0,1 1568.8,982.1 L 1568.8,982.1 1566.0,1002.2 1562.9,1022.2 1559.5,1042.0 1555.8,1061.3 1551.8,1080.1 1547.6,1098.2 1543.0,1115.6 1538.1,1132.1 1532.9,1147.7 1527.4,1162.3 1521.6,1175.7 1515.5,1188.0 1509.1,1199.0 1502.4,1208.7 1495.5,1217.1 1488.2,1224.1 1480.8,1229.7 1473.0,1233.8 1465.1,1236.5 1456.9,1237.7 1448.5,1237.5 1439.9,1235.7 1431.1,1232.6 1422.2,1228.0 1413.1,1222.0 1403.9,1214.6 1394.6,1205.9 1385.2,1196.0 1375.7,1184.8 1366.2,1172.5 1356.7,1159.1 1347.2,1144.7 1337.8,1129.4 1328.4,1113.2 1319.1,1096.4 1310.0,1079.0 1301.0,1061.1 1292.2,1042.9 1283.7,1024.4  A 522.500,522.500 0.00 0,1 1295.9,1019.0 L 1295.9,1019.0 1304.0,1037.6 1312.2,1056.0 1320.6,1074.1 1329.2,1091.7 1337.8,1108.7 1346.5,1125.0 1355.3,1140.5 1364.0,1155.1 1372.8,1168.7 1381.5,1181.2 1390.1,1192.5 1398.7,1202.6 1407.2,1211.5 1415.5,1219.0 1423.7,1225.1 1431.7,1229.8 1439.5,1233.1 1447.1,1235.0 1454.6,1235.3 1461.7,1234.2 1468.7,1231.6 1475.4,1227.5 1481.8,1221.9 1488.0,1215.0 1493.9,1206.6 1499.5,1196.9 1504.8,1185.9 1509.9,1173.6 1514.6,1160.2 1519.0,1145.6 1523.2,1130.0 1527.0,1113.4 1530.6,1096.0 1533.9,1077.8 1536.8,1058.9 1539.6,1039.6 1542.0,1019.8 1544.2,999.7 1546.1,979.5  Z" style="stroke-width: 0.5;  stroke: rgb(0,0,0); fill: rgb(179,177,178);" />
<path d="M 1860.633,1878.088 A 522.500,522.500 0.00 0,1 1844.0,1893.3 L 1844.0,1893.3 1830.3,1877.9 1816.3,1862.9 1802.2,1848.2 1787.9,1834.1 1773.6,1820.6 1759.2,1807.8 1744.9,1795.9 1730.6,1784.9 1716.5,1774.8 1702.5,1765.8 1688.7,1757.8 1675.2,1751.1 1661.9,1745.5 1649.0,1741.2 1636.4,1738.2 1624.1,1736.5 1612.3,1736.1 1600.9,1737.1 1590.0,1739.4 1579.5,1743.1 1569.5,1748.1 1560.0,1754.5 1551.0,1762.2 1542.5,1771.2 1534.6,1781.4 1527.2,1792.8 1520.3,1805.5 1514.0,1819.2 1508.2,1834.0 1502.9,1849.8 1498.1,1866.5 1493.9,1884.0 1490.2,1902.3 1487.0,1921.3 1484.2,1940.8 1481.9,1960.7 1480.0,1981.0 1478.6,2001.5 1477.5,2022.0  A 522.500,522.500 0.00 0,1 1455.0,2020.6 L 1455.0,2020.6 1457.0,1999.9 1459.4,1979.4 1462.2,1959.1 1465.5,1939.1 1469.3,1919.5 1473.6,1900.5 1478.3,1882.1 1483.6,1864.5 1489.5,1847.6 1495.8,1831.7 1502.8,1816.7 1510.2,1802.8 1518.2,1790.0 1526.7,1778.3 1535.8,1767.8 1545.4,1758.5 1555.5,1750.5 1566.1,1743.8 1577.2,1738.4 1588.8,1734.3 1600.9,1731.6 1613.3,1730.2 1626.2,1730.1 1639.5,1731.4 1653.1,1733.9 1667.1,1737.7 1681.4,1742.7 1695.9,1748.9 1710.6,1756.3 1725.6,1764.7 1740.7,1774.2 1755.8,1784.7 1771.1,1796.0 1786.3,1808.2 1801.5,1821.1 1816.6,1834.6 1831.5,1848.7 1846.2,1863.2 1860.6,1878.1  Z" style="stroke-width: 0.5;  stroke: rgb(0,0,0); fill: rgb(179,177,178);" />
<path d="M 1687.390,1012.259 A 522.500,522.500 0.00 0,1 1707.7,1020.5 L 1707.7,1020.5 1699.0,1039.8 1690.0,1059.0 1680.4,1077.8 1670.4,1096.2 1660.0,1114.1 1649.1,1131.4 1637.8,1148.0 1626.1,1163.9 1614.0,1178.9 1601.5,1192.9 1588.6,1206.0 1575.4,1218.0 1561.8,1228.9 1547.9,1238.7 1533.7,1247.2 1519.3,1254.6 1504.5,1260.7 1489.5,1265.5 1474.3,1269.1 1458.9,1271.3 1443.3,1272.2 1427.6,1271.9 1411.7,1270.2 1395.8,1267.3 1379.7,1263.1 1363.6,1257.7 1347.5,1251.1 1331.4,1243.3 1315.4,1234.4 1299.4,1224.5 1283.5,1213.6 1267.8,1201.8 1252.3,1189.0 1236.9,1175.5 1221.8,1161.3 1207.0,1146.5 1192.5,1131.2 1178.3,1115.5 1164.6,1099.4  A 522.500,522.500 0.00 0,1 1181.1,1086.1 L 1181.1,1086.1 1194.1,1102.6 1207.5,1118.8 1221.2,1134.5 1235.2,1149.8 1249.5,1164.5 1264.0,1178.4 1278.7,1191.6 1293.5,1203.9 1308.5,1215.2 1323.6,1225.6 1338.7,1234.8 1353.9,1242.9 1369.0,1249.9 1384.1,1255.6 1399.2,1260.1 1414.2,1263.3 1429.1,1265.2 1443.8,1265.7 1458.4,1265.0 1472.8,1262.9 1487.0,1259.5 1500.9,1254.7 1514.6,1248.6 1528.1,1241.3 1541.3,1232.7 1554.1,1222.9 1566.7,1211.9 1578.9,1199.8 1590.7,1186.6 1602.2,1172.4 1613.3,1157.3 1624.0,1141.2 1634.4,1124.4 1644.3,1106.9 1653.8,1088.8 1662.8,1070.2 1671.5,1051.1 1679.6,1031.8 1687.4,1012.3  Z" style="stroke-width: 0.5;  stroke: rgb(0,0,0); fill: rgb(179,177,178);" />
<path d="M 1952.822,1239.311 A 522.500,522.500 0.00 0,1 1963.1,1258.0 L 1963.1,1258.0 1941.0,1269.3 1918.7,1280.5 1896.0,1291.4 1873.0,1302.0 1849.7,1312.4 1826.2,1322.5 1802.3,1332.3 1778.2,1341.7 1753.9,1350.7 1729.3,1359.4 1704.5,1367.7 1679.6,1375.5 1654.4,1383.0 1629.0,1390.0 1603.5,1396.5 1577.9,1402.6 1552.1,1408.2 1526.2,1413.4 1500.2,1418.1 1474.1,1422.2 1448.0,1426.0 1421.8,1429.2 1395.5,1431.9 1369.2,1434.2 1343.0,1436.0 1316.7,1437.3 1290.5,1438.1 1264.3,1438.5 1238.1,1438.4 1212.1,1437.8 1186.2,1436.9 1160.3,1435.5 1134.6,1433.7 1109.1,1431.5 1083.7,1428.9 1058.6,1426.0 1033.6,1422.8 1008.9,1419.2 984.4,1415.4  A 522.500,522.500 0.00 0,1 988.3,1394.4 L 988.3,1394.4 1012.3,1399.2 1036.7,1403.7 1061.3,1407.8 1086.1,1411.6 1111.1,1414.9 1136.4,1417.9 1161.8,1420.4 1187.3,1422.5 1213.0,1424.1 1238.8,1425.2 1264.7,1425.9 1290.6,1426.0 1316.6,1425.6 1342.7,1424.7 1368.7,1423.3 1394.7,1421.3 1420.7,1418.8 1446.7,1415.7 1472.6,1412.1 1498.4,1407.9 1524.2,1403.3 1549.8,1398.0 1575.3,1392.3 1600.6,1386.0 1625.8,1379.2 1650.8,1371.9 1675.6,1364.1 1700.2,1355.9 1724.6,1347.1 1748.7,1338.0 1772.6,1328.4 1796.2,1318.4 1819.6,1308.0 1842.6,1297.3 1865.3,1286.3 1887.7,1274.9 1909.8,1263.3 1931.5,1251.4 1952.8,1239.3  Z" style="stroke-width: 0.5;  stroke: rgb(0,0,0); fill: rgb(179,177,178);" />
<path d="M 2021.567,1531.216 A 522.500,522.500 0.00 0,1 2019.9,1552.0 L 2019.9,1552.0 1995.1,1549.7 1970.1,1547.7 1944.9,1546.0 1919.5,1544.6 1894.0,1543.5 1868.3,1542.9 1842.4,1542.6 1816.5,1542.7 1790.5,1543.2 1764.3,1544.1 1738.2,1545.5 1711.9,1547.3 1685.7,1549.5 1659.5,1552.2 1633.2,1555.3 1607.0,1558.9 1580.9,1563.0 1554.7,1567.5 1528.7,1572.5 1502.8,1577.9 1476.9,1583.8 1451.2,1590.1 1425.6,1596.9 1400.1,1604.1 1374.8,1611.8 1349.7,1619.8 1324.8,1628.3 1300.1,1637.2 1275.5,1646.4 1251.2,1656.0 1227.2,1666.0 1203.4,1676.3 1179.8,1686.9 1156.5,1697.8 1133.5,1709.0 1110.8,1720.5 1088.4,1732.2 1066.3,1744.1 1044.6,1756.1  A 522.500,522.500 0.00 0,1 1034.7,1737.7 L 1034.7,1737.7 1057.1,1726.4 1079.9,1715.2 1102.9,1704.3 1126.2,1693.5 1149.7,1683.0 1173.5,1672.7 1197.5,1662.7 1221.8,1653.0 1246.2,1643.5 1270.9,1634.4 1295.8,1625.6 1320.9,1617.1 1346.1,1609.0 1371.5,1601.2 1397.1,1593.8 1422.8,1586.8 1448.6,1580.1 1474.5,1573.9 1500.6,1568.0 1526.7,1562.6 1552.9,1557.5 1579.2,1552.8 1605.5,1548.5 1631.9,1544.7 1658.3,1541.2 1684.7,1538.1 1711.1,1535.5 1737.4,1533.2 1763.7,1531.3 1790.0,1529.7 1816.2,1528.6 1842.4,1527.8 1868.4,1527.3 1894.3,1527.2 1920.1,1527.4 1945.7,1527.9 1971.2,1528.7 1996.5,1529.8 2021.6,1531.2  Z" style="stroke-width: 0.5;  stroke: rgb(0,0,0); fill: rgb(179,177,178);" />
<path d="M 1855.989,1117.537 A 522.500,522.500 0.00 0,1 1869.4,1130.5 L 1869.4,1130.5 1853.0,1146.5 1836.0,1162.4 1818.6,1177.9 1800.7,1193.1 1782.3,1207.8 1763.5,1222.1 1744.3,1235.8 1724.6,1248.9 1704.6,1261.5 1684.2,1273.3 1663.4,1284.5 1642.3,1294.9 1620.9,1304.6 1599.2,1313.4 1577.2,1321.4 1555.0,1328.6 1532.5,1335.0 1509.9,1340.4 1487.0,1345.0 1464.1,1348.6 1440.9,1351.4 1417.7,1353.3 1394.4,1354.3 1371.0,1354.4 1347.6,1353.6 1324.3,1351.9 1300.9,1349.4 1277.6,1346.1 1254.4,1341.9 1231.3,1337.0 1208.4,1331.3 1185.6,1325.0 1163.0,1317.9 1140.7,1310.2 1118.7,1301.9 1097.0,1293.1 1075.6,1283.7 1054.6,1274.0 1033.9,1263.8  A 522.500,522.500 0.00 0,1 1042.6,1247.4 L 1042.6,1247.4 1062.7,1258.1 1083.2,1268.5 1104.1,1278.5 1125.3,1288.0 1146.8,1296.9 1168.6,1305.1 1190.7,1312.8 1212.9,1319.7 1235.4,1325.9 1258.0,1331.3 1280.7,1335.8 1303.5,1339.6 1326.3,1342.5 1349.2,1344.5 1372.1,1345.6 1395.0,1345.7 1417.7,1345.0 1440.4,1343.2 1463.0,1340.6 1485.5,1337.0 1507.8,1332.5 1529.9,1327.0 1551.8,1320.7 1573.5,1313.4 1594.9,1305.3 1616.0,1296.2 1636.8,1286.4 1657.3,1275.7 1677.5,1264.3 1697.3,1252.1 1716.7,1239.3 1735.7,1225.8 1754.3,1211.7 1772.4,1197.0 1790.1,1181.9 1807.3,1166.3 1824.1,1150.3 1840.3,1134.0 1856.0,1117.5  Z" style="stroke-width: 0.5;  stroke: rgb(0,0,0); fill: rgb(179,177,178);" />
<path d="M 1654.174,1000.764 A 522.500,522.500 0.00 0,1 1671.8,1006.5 L 1671.8,1006.5 1664.7,1026.2 1657.2,1045.7 1649.3,1064.9 1640.9,1083.7 1632.1,1102.0 1623.0,1119.6 1613.4,1136.6 1603.4,1152.8 1593.0,1168.0 1582.3,1182.3 1571.2,1195.6 1559.7,1207.8 1548.0,1218.9 1535.9,1228.7 1523.5,1237.4 1510.8,1244.7 1497.8,1250.8 1484.6,1255.5 1471.1,1258.9 1457.5,1260.9 1443.6,1261.6 1429.6,1260.9 1415.4,1258.9 1401.2,1255.6 1386.8,1250.9 1372.3,1245.0 1357.8,1237.8 1343.3,1229.5 1328.9,1220.0 1314.4,1209.4 1300.1,1197.8 1285.8,1185.3 1271.7,1171.9 1257.8,1157.6 1244.1,1142.7 1230.6,1127.1 1217.4,1111.1 1204.6,1094.6 1192.1,1077.9  A 522.500,522.500 0.00 0,1 1207.3,1067.2 L 1207.3,1067.2 1219.1,1084.3 1231.2,1101.1 1243.7,1117.5 1256.4,1133.5 1269.4,1148.8 1282.6,1163.4 1295.9,1177.2 1309.3,1190.1 1322.9,1202.0 1336.5,1213.0 1350.1,1222.8 1363.8,1231.4 1377.4,1238.9 1391.0,1245.0 1404.5,1249.9 1417.9,1253.5 1431.2,1255.7 1444.3,1256.6 1457.2,1256.1 1470.0,1254.2 1482.5,1250.9 1494.8,1246.3 1506.9,1240.3 1518.6,1233.0 1530.1,1224.4 1541.3,1214.5 1552.2,1203.4 1562.7,1191.2 1572.9,1177.8 1582.8,1163.4 1592.3,1148.0 1601.4,1131.8 1610.1,1114.7 1618.5,1096.9 1626.4,1078.5 1634.0,1059.5 1641.1,1040.2 1647.8,1020.6 1654.2,1000.8  Z" style="stroke-width: 0.5;  stroke: rgb(0,0,0); fill: rgb(179,177,178);" />
<path d="M 2003.893,1361.805 A 522.500,522.500 0.00 0,1 2008.3,1379.1 L 2008.3,1379.1 1982.5,1385.3 1956.5,1391.4 1930.6,1397.5 1904.6,1403.5 1878.6,1409.5 1852.5,1415.5 1826.5,1421.4 1800.3,1427.3 1774.2,1433.2 1748.0,1439.0 1721.8,1444.8 1695.6,1450.5 1669.4,1456.2 1643.1,1461.9 1616.8,1467.5 1590.5,1473.0 1564.2,1478.5 1537.9,1484.0 1511.6,1489.4 1485.2,1494.8 1458.9,1500.1 1432.5,1505.3 1406.1,1510.5 1379.7,1515.7 1353.4,1520.8 1327.0,1525.9 1300.6,1530.9 1274.2,1535.8 1247.8,1540.7 1221.5,1545.6 1195.1,1550.4 1168.8,1555.2 1142.5,1559.9 1116.1,1564.5 1089.8,1569.2 1063.6,1573.8 1037.3,1578.3 1011.1,1582.8 984.8,1587.3  A 522.500,522.500 0.00 0,1 982.2,1569.6 L 982.2,1569.6 1008.3,1566.0 1034.5,1562.4 1060.7,1558.7 1087.0,1554.9 1113.3,1551.0 1139.7,1547.0 1166.0,1543.0 1192.4,1538.8 1218.9,1534.5 1245.3,1530.2 1271.8,1525.7 1298.2,1521.2 1324.7,1516.5 1351.2,1511.8 1377.7,1506.9 1404.1,1501.9 1430.6,1496.9 1457.1,1491.7 1483.5,1486.4 1509.9,1481.1 1536.3,1475.6 1562.7,1470.0 1589.0,1464.4 1615.3,1458.6 1641.6,1452.7 1667.8,1446.8 1694.0,1440.7 1720.2,1434.6 1746.3,1428.3 1772.3,1422.0 1798.3,1415.6 1824.2,1409.1 1850.1,1402.6 1875.9,1395.9 1901.6,1389.2 1927.3,1382.5 1952.9,1375.6 1978.4,1368.7 2003.9,1361.8  Z" style="stroke-width: 0.5;  stroke: rgb(0,0,0); fill: rgb(179,177,178);" />
<path d="M 1638.309,996.138 A 522.500,522.500 0.00 0,1 1654.1,1000.7 L 1654.1,1000.7 1647.8,1020.5 1641.1,1040.2 1633.9,1059.5 1626.4,1078.4 1618.4,1096.8 1610.1,1114.6 1601.4,1131.7 1592.3,1147.9 1582.9,1163.3 1573.0,1177.7 1562.9,1191.0 1552.3,1203.2 1541.5,1214.3 1530.4,1224.1 1518.9,1232.7 1507.2,1240.0 1495.2,1246.0 1482.9,1250.6 1470.5,1253.8 1457.8,1255.6 1444.9,1256.1 1431.8,1255.2 1418.6,1253.0 1405.3,1249.3 1391.9,1244.4 1378.4,1238.2 1364.8,1230.7 1351.3,1222.0 1337.7,1212.1 1324.2,1201.1 1310.7,1189.1 1297.3,1176.2 1284.1,1162.3 1271.0,1147.6 1258.2,1132.3 1245.5,1116.3 1233.1,1099.8 1221.1,1083.0 1209.3,1065.8  A 522.500,522.500 0.00 0,1 1223.2,1056.9 L 1223.2,1056.9 1234.3,1074.3 1245.7,1091.5 1257.5,1108.3 1269.4,1124.5 1281.7,1140.2 1294.0,1155.2 1306.6,1169.4 1319.2,1182.6 1331.9,1194.9 1344.7,1206.2 1357.5,1216.3 1370.3,1225.3 1383.1,1233.0 1395.8,1239.5 1408.4,1244.6 1420.9,1248.5 1433.3,1250.9 1445.6,1252.0 1457.6,1251.6 1469.5,1249.9 1481.1,1246.8 1492.5,1242.2 1503.7,1236.4 1514.6,1229.1 1525.2,1220.6 1535.5,1210.7 1545.6,1199.6 1555.3,1187.4 1564.6,1174.0 1573.6,1159.6 1582.3,1144.1 1590.6,1127.8 1598.6,1110.6 1606.1,1092.8 1613.3,1074.2 1620.2,1055.2 1626.6,1035.8 1632.6,1016.0 1638.3,996.1  Z" style="stroke-width: 0.5;  stroke: rgb(0,0,0); fill: rgb(179,177,178);" />
<path d="M 1763.240,1048.657 A 522.500,522.500 0.00 0,1 1777.3,1057.1 L 1777.3,1057.1 1765.5,1075.5 1753.2,1093.6 1740.4,1111.4 1727.1,1128.8 1713.3,1145.7 1699.0,1162.1 1684.3,1177.8 1669.2,1192.8 1653.6,1207.0 1637.6,1220.4 1621.3,1232.9 1604.5,1244.5 1587.5,1255.0 1570.1,1264.6 1552.4,1273.1 1534.4,1280.5 1516.2,1286.7 1497.7,1291.9 1479.0,1295.9 1460.1,1298.7 1441.1,1300.4 1421.9,1300.9 1402.7,1300.2 1383.3,1298.4 1363.9,1295.5 1344.5,1291.5 1325.1,1286.4 1305.7,1280.3 1286.4,1273.1 1267.2,1265.0 1248.1,1256.0 1229.3,1246.1 1210.6,1235.4 1192.2,1223.9 1174.0,1211.8 1156.2,1199.0 1138.7,1185.8 1121.6,1172.1 1105.0,1158.0  A 522.500,522.500 0.00 0,1 1115.9,1145.8 L 1115.9,1145.8 1132.0,1160.3 1148.5,1174.4 1165.4,1188.1 1182.7,1201.3 1200.2,1213.8 1218.1,1225.7 1236.2,1236.8 1254.5,1247.1 1272.9,1256.5 1291.5,1265.0 1310.2,1272.5 1329.0,1279.0 1347.8,1284.4 1366.6,1288.7 1385.3,1291.8 1404.1,1293.8 1422.7,1294.7 1441.2,1294.3 1459.6,1292.8 1477.8,1290.1 1495.8,1286.1 1513.6,1281.0 1531.2,1274.8 1548.5,1267.4 1565.5,1258.8 1582.2,1249.2 1598.6,1238.5 1614.7,1226.8 1630.3,1214.2 1645.6,1200.6 1660.5,1186.2 1675.0,1171.0 1689.0,1155.1 1702.6,1138.5 1715.7,1121.3 1728.3,1103.6 1740.5,1085.6 1752.1,1067.2 1763.2,1048.7  Z" style="stroke-width: 0.5;  stroke: rgb(0,0,0); fill: rgb(179,177,178);" />
<path d="M 1777.849,1057.500 A 522.500,522.500 0.00 0,1 1791.0,1066.0 L 1791.0,1066.0 1778.5,1084.1 1765.5,1102.0 1752.1,1119.6 1738.1,1136.7 1723.6,1153.4 1708.6,1169.6 1693.2,1185.1 1677.4,1200.0 1661.1,1214.0 1644.4,1227.3 1627.3,1239.7 1609.9,1251.2 1592.1,1261.8 1574.0,1271.3 1555.6,1279.8 1536.9,1287.3 1517.9,1293.7 1498.7,1299.0 1479.2,1303.2 1459.6,1306.3 1439.9,1308.2 1419.9,1309.0 1399.9,1308.7 1379.8,1307.3 1359.7,1304.9 1339.5,1301.3 1319.3,1296.7 1299.2,1291.1 1279.2,1284.5 1259.2,1276.9 1239.4,1268.5 1219.8,1259.2 1200.4,1249.1 1181.2,1238.3 1162.3,1226.9 1143.7,1214.8 1125.5,1202.2 1107.7,1189.1 1090.3,1175.7  A 522.500,522.500 0.00 0,1 1100.2,1163.6 L 1100.2,1163.6 1117.1,1177.4 1134.4,1190.9 1152.1,1203.9 1170.1,1216.5 1188.5,1228.4 1207.1,1239.6 1226.0,1250.1 1245.1,1259.8 1264.4,1268.6 1283.8,1276.5 1303.2,1283.4 1322.8,1289.4 1342.4,1294.3 1362.0,1298.1 1381.6,1300.8 1401.1,1302.4 1420.5,1302.9 1439.8,1302.2 1459.0,1300.4 1478.0,1297.4 1496.9,1293.3 1515.5,1288.0 1533.8,1281.7 1551.9,1274.2 1569.7,1265.6 1587.2,1255.9 1604.4,1245.3 1621.2,1233.7 1637.6,1221.1 1653.7,1207.7 1669.3,1193.4 1684.5,1178.3 1699.3,1162.6 1713.6,1146.2 1727.5,1129.2 1740.8,1111.8 1753.7,1094.0 1766.0,1075.8 1777.8,1057.5  Z" style="stroke-width: 0.5;  stroke: rgb(0,0,0); fill: rgb(179,177,178);" />
<path d="M 1966.768,1265.193 A 522.500,522.500 0.00 0,1 1973.5,1279.2 L 1973.5,1279.2 1950.8,1289.7 1927.7,1300.0 1904.3,1310.1 1880.7,1319.9 1856.8,1329.5 1832.7,1338.9 1808.3,1348.0 1783.8,1356.8 1759.0,1365.2 1734.0,1373.4 1708.8,1381.2 1683.4,1388.6 1657.9,1395.7 1632.3,1402.4 1606.4,1408.7 1580.5,1414.7 1554.4,1420.2 1528.3,1425.3 1502.0,1430.1 1475.7,1434.4 1449.4,1438.3 1422.9,1441.8 1396.5,1444.8 1370.0,1447.5 1343.5,1449.7 1317.0,1451.6 1290.6,1453.0 1264.2,1454.1 1237.8,1454.7 1211.6,1455.0 1185.4,1454.9 1159.3,1454.4 1133.3,1453.6 1107.4,1452.4 1081.7,1450.9 1056.2,1449.1 1030.8,1447.0 1005.7,1444.6 980.7,1441.9  A 522.500,522.500 0.00 0,1 982.7,1426.5 L 982.7,1426.5 1007.4,1429.9 1032.3,1432.9 1057.4,1435.7 1082.7,1438.1 1108.2,1440.2 1133.9,1442.0 1159.7,1443.4 1185.6,1444.4 1211.7,1444.9 1237.8,1445.1 1264.1,1444.9 1290.3,1444.2 1316.7,1443.1 1343.0,1441.5 1369.4,1439.5 1395.7,1437.1 1422.0,1434.2 1448.3,1430.8 1474.6,1426.9 1500.8,1422.7 1526.9,1417.9 1552.9,1412.7 1578.7,1407.1 1604.5,1401.0 1630.1,1394.5 1655.6,1387.5 1680.9,1380.2 1706.0,1372.4 1730.9,1364.3 1755.6,1355.8 1780.1,1346.9 1804.4,1337.7 1828.4,1328.1 1852.2,1318.3 1875.7,1308.2 1898.9,1297.8 1921.8,1287.1 1944.5,1276.2 1966.8,1265.2  Z" style="stroke-width: 0.5;  stroke: rgb(0,0,0); fill: rgb(179,177,178);" />
<path d="M 1973.848,1279.831 A 522.500,522.500 0.00 0,1 1979.9,1293.4 L 1979.9,1293.4 1956.6,1303.3 1933.1,1313.0 1909.4,1322.5 1885.3,1331.8 1861.1,1340.9 1836.6,1349.8 1812.0,1358.4 1787.1,1366.8 1762.0,1374.8 1736.8,1382.6 1711.4,1390.1 1685.8,1397.2 1660.1,1404.0 1634.2,1410.5 1608.2,1416.7 1582.2,1422.5 1556.0,1427.9 1529.7,1433.0 1503.3,1437.7 1476.9,1442.1 1450.4,1446.1 1423.9,1449.7 1397.3,1453.0 1370.7,1455.8 1344.1,1458.4 1317.6,1460.5 1291.0,1462.3 1264.5,1463.8 1238.1,1464.8 1211.6,1465.6 1185.3,1466.0 1159.1,1466.1 1133.0,1465.9 1106.9,1465.3 1081.1,1464.5 1055.3,1463.4 1029.8,1462.0 1004.4,1460.3 979.2,1458.4  A 522.500,522.500 0.00 0,1 980.5,1443.7 L 980.5,1443.7 1005.5,1446.2 1030.7,1448.5 1056.1,1450.6 1081.6,1452.3 1107.3,1453.7 1133.2,1454.8 1159.2,1455.6 1185.3,1456.0 1211.5,1456.0 1237.8,1455.7 1264.2,1455.0 1290.6,1453.9 1317.0,1452.4 1343.5,1450.5 1370.0,1448.3 1396.5,1445.6 1422.9,1442.4 1449.4,1438.9 1475.8,1435.0 1502.1,1430.7 1528.3,1425.9 1554.5,1420.8 1580.6,1415.2 1606.5,1409.2 1632.3,1402.9 1658.0,1396.2 1683.5,1389.1 1708.9,1381.7 1734.1,1373.9 1759.1,1365.7 1783.9,1357.3 1808.5,1348.5 1832.9,1339.4 1857.0,1330.1 1880.9,1320.5 1904.6,1310.6 1927.9,1300.6 1951.0,1290.3 1973.8,1279.8  Z" style="stroke-width: 0.5;  stroke: rgb(0,0,0); fill: rgb(179,177,178);" />
<path d="M 1980.332,1705.640 A 522.500,522.500 0.00 0,1 1974.5,1718.8 L 1974.5,1718.8 1953.7,1709.5 1932.6,1700.7 1911.1,1692.3 1889.3,1684.4 1867.3,1677.2 1845.0,1670.5 1822.5,1664.6 1799.9,1659.4 1777.1,1654.9 1754.3,1651.3 1731.4,1648.4 1708.5,1646.4 1685.7,1645.3 1662.8,1645.1 1640.1,1645.9 1617.4,1647.5 1594.9,1650.1 1572.6,1653.6 1550.5,1658.0 1528.5,1663.4 1506.8,1669.7 1485.4,1677.0 1464.3,1685.1 1443.5,1694.2 1423.0,1704.1 1402.8,1714.8 1383.1,1726.4 1363.7,1738.8 1344.8,1751.9 1326.2,1765.7 1308.1,1780.2 1290.5,1795.3 1273.3,1811.0 1256.7,1827.2 1240.5,1843.9 1224.8,1860.9 1209.7,1878.3 1195.0,1895.9 1181.0,1913.8  A 522.500,522.500 0.00 0,1 1169.7,1904.8 L 1169.7,1904.8 1184.3,1887.3 1199.5,1869.9 1215.2,1852.8 1231.5,1836.0 1248.2,1819.6 1265.4,1803.7 1283.1,1788.2 1301.3,1773.3 1319.9,1759.1 1338.9,1745.4 1358.4,1732.5 1378.2,1720.3 1398.5,1708.8 1419.1,1698.1 1440.0,1688.3 1461.3,1679.2 1482.9,1671.1 1504.7,1663.8 1526.8,1657.4 1549.2,1651.9 1571.7,1647.3 1594.5,1643.7 1617.4,1640.9 1640.4,1639.0 1663.5,1638.0 1686.7,1638.0 1710.0,1638.7 1733.2,1640.4 1756.5,1642.8 1779.7,1646.1 1802.8,1650.1 1825.8,1654.9 1848.6,1660.4 1871.3,1666.5 1893.7,1673.3 1915.8,1680.6 1937.7,1688.5 1959.2,1696.9 1980.3,1705.6  Z" style="stroke-width: 0.5;  stroke: rgb(0,0,0); fill: rgb(179,177,178);" />
<path d="M 1980.326,1294.347 A 522.500,522.500 0.00 0,1 1985.3,1306.3 L 1985.3,1306.3 1961.5,1315.7 1937.5,1324.9 1913.3,1334.0 1888.9,1343.0 1864.3,1351.7 1839.5,1360.3 1814.5,1368.6 1789.4,1376.7 1764.1,1384.6 1738.6,1392.3 1713.1,1399.7 1687.3,1406.9 1661.5,1413.8 1635.5,1420.5 1609.5,1426.8 1583.3,1432.9 1557.0,1438.7 1530.7,1444.2 1504.3,1449.4 1477.8,1454.4 1451.3,1459.0 1424.7,1463.3 1398.2,1467.3 1371.5,1471.1 1344.9,1474.5 1318.3,1477.7 1291.7,1480.5 1265.1,1483.1 1238.6,1485.3 1212.1,1487.3 1185.7,1489.1 1159.3,1490.5 1133.0,1491.7 1106.8,1492.6 1080.7,1493.3 1054.7,1493.8 1028.8,1494.0 1003.1,1494.0 977.5,1493.8  A 522.500,522.500 0.00 0,1 977.9,1480.8 L 977.9,1480.8 1003.3,1481.7 1028.8,1482.2 1054.6,1482.6 1080.4,1482.7 1106.4,1482.5 1132.5,1482.1 1158.8,1481.4 1185.1,1480.4 1211.4,1479.0 1237.9,1477.4 1264.4,1475.5 1290.9,1473.2 1317.5,1470.6 1344.0,1467.7 1370.6,1464.5 1397.2,1460.9 1423.7,1457.0 1450.2,1452.8 1476.7,1448.2 1503.1,1443.3 1529.4,1438.0 1555.7,1432.5 1581.9,1426.6 1608.0,1420.3 1633.9,1413.8 1659.8,1407.0 1685.5,1399.8 1711.0,1392.4 1736.5,1384.7 1761.7,1376.7 1786.8,1368.4 1811.7,1359.9 1836.4,1351.2 1861.0,1342.2 1885.3,1333.0 1909.4,1323.6 1933.3,1314.0 1956.9,1304.2 1980.3,1294.3  Z" style="stroke-width: 0.5;  stroke: rgb(0,0,0); fill: rgb(179,177,178);" />
<path d="M 1843.306,1893.887 A 522.500,522.500 0.00 0,1 1833.7,1902.1 L 1833.7,1902.1 1820.4,1886.4 1806.9,1871.0 1793.2,1856.0 1779.4,1841.5 1765.5,1827.7 1751.5,1814.6 1737.6,1802.3 1723.8,1790.9 1710.1,1780.5 1696.5,1771.1 1683.1,1762.8 1670.0,1755.7 1657.1,1749.9 1644.6,1745.2 1632.3,1741.9 1620.5,1739.9 1609.0,1739.2 1597.9,1739.9 1587.3,1742.0 1577.1,1745.4 1567.4,1750.2 1558.2,1756.4 1549.4,1763.9 1541.2,1772.6 1533.5,1782.7 1526.3,1794.0 1519.6,1806.4 1513.4,1820.0 1507.8,1834.7 1502.7,1850.4 1498.1,1867.0 1494.0,1884.4 1490.4,1902.7 1487.2,1921.5 1484.5,1941.0 1482.3,1960.8 1480.5,1981.1 1479.1,2001.5 1478.0,2022.0  A 522.500,522.500 0.00 0,1 1477.5,2022.0 L 1477.5,2022.0 1478.6,2001.5 1480.0,1981.0 1481.9,1960.7 1484.2,1940.8 1487.0,1921.3 1490.2,1902.3 1493.9,1884.1 1498.1,1866.5 1502.9,1849.8 1508.1,1834.1 1513.9,1819.3 1520.2,1805.5 1527.1,1792.9 1534.5,1781.5 1542.4,1771.3 1550.9,1762.3 1559.9,1754.6 1569.3,1748.3 1579.3,1743.2 1589.8,1739.6 1600.7,1737.3 1612.1,1736.3 1623.9,1736.7 1636.1,1738.4 1648.7,1741.5 1661.6,1745.8 1674.8,1751.4 1688.4,1758.2 1702.1,1766.1 1716.1,1775.2 1730.2,1785.2 1744.4,1796.3 1758.7,1808.3 1773.1,1821.1 1787.4,1834.6 1801.6,1848.7 1815.7,1863.4 1829.6,1878.5 1843.3,1893.9  Z" style="stroke-width: 0.5;  stroke: rgb(0,0,0); fill: rgb(179,177,178);" />
<path d="M 1847.088,1109.441 A 522.500,522.500 0.00 0,1 1855.6,1117.2 L 1855.6,1117.2 1839.9,1133.7 1823.7,1150.0 1807.0,1165.9 1789.8,1181.5 1772.1,1196.7 1754.0,1211.4 1735.5,1225.5 1716.5,1239.0 1697.1,1251.8 1677.3,1264.0 1657.2,1275.4 1636.7,1286.1 1615.9,1295.9 1594.8,1304.9 1573.4,1313.0 1551.8,1320.3 1529.9,1326.6 1507.8,1332.1 1485.6,1336.6 1463.1,1340.1 1440.6,1342.7 1417.9,1344.4 1395.1,1345.1 1372.3,1344.9 1349.5,1343.8 1326.6,1341.8 1303.8,1338.9 1281.0,1335.1 1258.4,1330.4 1235.8,1325.0 1213.4,1318.8 1191.2,1311.8 1169.1,1304.1 1147.4,1295.8 1125.9,1286.8 1104.7,1277.3 1083.9,1267.3 1063.4,1256.8 1043.4,1246.0  A 522.500,522.500 0.00 0,1 1049.1,1236.0 L 1049.1,1236.0 1068.8,1247.3 1088.9,1258.1 1109.4,1268.5 1130.2,1278.4 1151.4,1287.7 1172.8,1296.3 1194.5,1304.4 1216.4,1311.7 1238.5,1318.2 1260.7,1323.9 1283.1,1328.8 1305.5,1332.9 1328.0,1336.0 1350.6,1338.3 1373.1,1339.6 1395.6,1339.9 1418.0,1339.4 1440.3,1337.8 1462.5,1335.3 1484.6,1331.8 1506.5,1327.3 1528.3,1321.9 1549.8,1315.5 1571.1,1308.2 1592.1,1300.0 1612.8,1290.9 1633.2,1280.9 1653.3,1270.1 1673.0,1258.5 1692.4,1246.2 1711.4,1233.1 1729.9,1219.4 1748.1,1205.1 1765.8,1190.2 1783.0,1174.8 1799.8,1159.0 1816.1,1142.7 1831.8,1126.2 1847.1,1109.4  Z" style="stroke-width: 0.5;  stroke: rgb(0,0,0); fill: rgb(179,177,178);" />
<path d="M 1994.163,1669.732 A 522.500,522.500 0.00 0,1 1990.5,1680.2 L 1990.5,1680.2 1968.5,1672.3 1946.1,1664.9 1923.5,1658.0 1900.5,1651.5 1877.3,1645.5 1853.8,1640.2 1830.1,1635.4 1806.3,1631.3 1782.3,1627.8 1758.2,1625.1 1734.1,1623.1 1709.9,1621.8 1685.7,1621.3 1661.5,1621.5 1637.3,1622.6 1613.2,1624.5 1589.2,1627.1 1565.3,1630.6 1541.6,1634.9 1518.0,1640.0 1494.6,1645.9 1471.4,1652.7 1448.4,1660.2 1425.7,1668.4 1403.2,1677.5 1381.1,1687.2 1359.3,1697.7 1337.8,1708.9 1316.6,1720.7 1295.8,1733.2 1275.4,1746.2 1255.4,1759.8 1235.9,1773.9 1216.7,1788.5 1198.0,1803.6 1179.8,1819.0 1162.0,1834.7 1144.8,1850.7 1128.0,1866.9  A 522.500,522.500 0.00 0,1 1120.3,1858.9 L 1120.3,1858.9 1137.5,1843.0 1155.2,1827.3 1173.3,1811.8 1192.0,1796.7 1211.1,1781.9 1230.6,1767.5 1250.5,1753.7 1270.9,1740.3 1291.6,1727.4 1312.7,1715.2 1334.2,1703.5 1356.0,1692.5 1378.2,1682.1 1400.6,1672.4 1423.4,1663.5 1446.4,1655.3 1469.6,1647.8 1493.1,1641.1 1516.8,1635.1 1540.6,1630.0 1564.6,1625.6 1588.8,1622.0 1613.0,1619.2 1637.4,1617.2 1661.8,1615.9 1686.2,1615.4 1710.7,1615.7 1735.1,1616.7 1759.5,1618.4 1783.8,1620.9 1808.0,1624.0 1832.1,1627.8 1856.0,1632.2 1879.7,1637.2 1903.1,1642.7 1926.4,1648.8 1949.3,1655.3 1971.9,1662.3 1994.2,1669.7  Z" style="stroke-width: 0.5;  stroke: rgb(0,0,0); fill: rgb(179,177,178);" />
<path d="M 1962.667,1257.213 A 522.500,522.500 0.00 0,1 1967.2,1266.0 L 1967.2,1266.0 1944.8,1277.0 1922.2,1287.8 1899.2,1298.4 1876.0,1308.8 1852.5,1318.9 1828.7,1328.7 1804.7,1338.2 1780.4,1347.4 1755.9,1356.2 1731.1,1364.7 1706.2,1372.8 1681.1,1380.5 1655.8,1387.8 1630.3,1394.7 1604.7,1401.2 1578.9,1407.2 1553.0,1412.8 1527.0,1418.0 1500.9,1422.7 1474.7,1427.0 1448.5,1430.7 1422.2,1434.1 1395.8,1437.0 1369.5,1439.4 1343.1,1441.3 1316.7,1442.9 1290.4,1443.9 1264.1,1444.6 1237.9,1444.8 1211.8,1444.6 1185.7,1443.9 1159.8,1442.9 1134.0,1441.5 1108.3,1439.7 1082.8,1437.6 1057.5,1435.1 1032.4,1432.3 1007.5,1429.2 982.8,1425.8  A 522.500,522.500 0.00 0,1 984.3,1416.1 L 984.3,1416.1 1008.8,1419.9 1033.5,1423.4 1058.5,1426.6 1083.6,1429.5 1109.0,1432.0 1134.6,1434.2 1160.2,1435.9 1186.1,1437.3 1212.0,1438.2 1238.1,1438.7 1264.2,1438.8 1290.4,1438.4 1316.6,1437.5 1342.9,1436.1 1369.1,1434.3 1395.4,1432.0 1421.6,1429.3 1447.8,1426.0 1474.0,1422.2 1500.1,1418.0 1526.1,1413.3 1552.0,1408.1 1577.7,1402.4 1603.4,1396.3 1628.9,1389.7 1654.2,1382.7 1679.4,1375.2 1704.3,1367.3 1729.1,1359.0 1753.6,1350.3 1778.0,1341.2 1802.0,1331.7 1825.9,1321.9 1849.4,1311.8 1872.7,1301.4 1895.6,1290.7 1918.3,1279.8 1940.7,1268.6 1962.7,1257.2  Z" style="stroke-width: 0.5;  stroke: rgb(0,0,0); fill: rgb(179,177,178);" />
<path d="M 1885.585,1852.605 A 522.500,522.500 0.00 0,1 1878.9,1859.8 L 1878.9,1859.8 1863.6,1845.6 1848.0,1831.7 1832.2,1818.3 1816.2,1805.4 1800.0,1793.2 1783.8,1781.7 1767.6,1771.1 1751.4,1761.3 1735.2,1752.5 1719.2,1744.7 1703.3,1738.0 1687.7,1732.4 1672.2,1728.0 1657.1,1724.8 1642.2,1722.9 1627.7,1722.2 1613.5,1722.8 1599.8,1724.6 1586.4,1727.8 1573.5,1732.3 1561.1,1738.1 1549.1,1745.1 1537.7,1753.5 1526.7,1763.0 1516.3,1773.8 1506.3,1785.7 1497.0,1798.7 1488.1,1812.8 1479.9,1827.9 1472.1,1844.0 1464.9,1860.9 1458.3,1878.6 1452.1,1897.0 1446.5,1916.1 1441.4,1935.7 1436.9,1955.7 1432.8,1976.1 1429.1,1996.6 1426.0,2017.2  A 522.500,522.500 0.00 0,1 1416.3,2015.7 L 1416.3,2015.7 1419.8,1995.1 1423.9,1974.6 1428.4,1954.2 1433.4,1934.2 1438.9,1914.6 1445.0,1895.6 1451.6,1877.1 1458.7,1859.4 1466.3,1842.4 1474.6,1826.3 1483.3,1811.2 1492.6,1797.0 1502.5,1783.9 1512.8,1771.9 1523.7,1761.1 1535.2,1751.4 1547.1,1743.0 1559.5,1735.8 1572.4,1729.9 1585.8,1725.2 1599.6,1721.9 1613.8,1719.8 1628.4,1719.0 1643.3,1719.5 1658.6,1721.2 1674.2,1724.2 1690.0,1728.4 1706.1,1733.7 1722.4,1740.2 1738.8,1747.7 1755.3,1756.2 1771.9,1765.7 1788.5,1776.1 1805.1,1787.3 1821.6,1799.3 1837.9,1811.9 1854.1,1825.0 1870.0,1838.6 1885.6,1852.6  Z" style="stroke-width: 0.5;  stroke: rgb(0,0,0); fill: rgb(179,177,178);" />
<path d="M 2018.379,1434.509 A 522.500,522.500 0.00 0,1 2019.4,1443.6 L 2019.4,1443.6 1993.1,1446.5 1966.8,1449.4 1940.4,1452.4 1913.9,1455.5 1887.5,1458.6 1861.0,1461.8 1834.4,1465.1 1807.9,1468.5 1781.3,1471.9 1754.8,1475.4 1728.2,1478.9 1701.6,1482.5 1674.9,1486.3 1648.3,1490.0 1621.7,1493.9 1595.1,1497.9 1568.5,1501.9 1541.9,1506.0 1515.3,1510.1 1488.7,1514.4 1462.1,1518.7 1435.5,1523.1 1409.0,1527.6 1382.5,1532.2 1356.0,1536.8 1329.5,1541.5 1303.0,1546.3 1276.6,1551.1 1250.3,1556.0 1223.9,1561.0 1197.6,1566.0 1171.4,1571.1 1145.1,1576.3 1119.0,1581.5 1092.8,1586.8 1066.8,1592.1 1040.7,1597.5 1014.8,1602.9 988.9,1608.4  A 522.500,522.500 0.00 0,1 987.0,1599.4 L 987.0,1599.4 1013.1,1594.3 1039.3,1589.3 1065.5,1584.3 1091.7,1579.4 1117.9,1574.5 1144.2,1569.6 1170.5,1564.8 1196.9,1560.0 1223.2,1555.2 1249.6,1550.5 1276.0,1545.8 1302.5,1541.2 1328.9,1536.6 1355.4,1532.1 1381.9,1527.6 1408.4,1523.1 1434.9,1518.7 1461.5,1514.4 1488.0,1510.1 1514.6,1505.9 1541.1,1501.7 1567.7,1497.5 1594.2,1493.4 1620.8,1489.4 1647.4,1485.4 1674.0,1481.4 1700.5,1477.6 1727.1,1473.7 1753.6,1469.9 1780.2,1466.2 1806.7,1462.5 1833.2,1458.8 1859.8,1455.2 1886.2,1451.7 1912.7,1448.1 1939.2,1444.7 1965.6,1441.2 1992.0,1437.9 2018.4,1434.5  Z" style="stroke-width: 0.5;  stroke: rgb(0,0,0); fill: rgb(179,177,178);" />
<path d="M 2022.337,1513.059 A 522.500,522.500 0.00 0,1 2022.0,1521.8 L 2022.0,1521.8 1996.6,1520.9 1971.0,1520.1 1945.2,1519.6 1919.3,1519.4 1893.3,1519.3 1867.1,1519.6 1840.8,1520.1 1814.5,1520.9 1788.1,1522.0 1761.6,1523.4 1735.1,1525.1 1708.5,1527.1 1681.9,1529.4 1655.2,1532.0 1628.6,1535.0 1602.0,1538.3 1575.4,1541.9 1548.8,1545.8 1522.2,1550.0 1495.7,1554.6 1469.3,1559.4 1443.0,1564.6 1416.7,1570.1 1390.5,1576.0 1364.4,1582.1 1338.4,1588.5 1312.6,1595.2 1286.8,1602.2 1261.3,1609.5 1235.8,1617.0 1210.6,1624.8 1185.5,1632.9 1160.5,1641.1 1135.8,1649.6 1111.3,1658.3 1086.9,1667.3 1062.8,1676.3 1038.9,1685.6 1015.3,1695.0  A 522.500,522.500 0.00 0,1 1012.0,1686.8 L 1012.0,1686.8 1036.0,1677.8 1060.1,1668.9 1084.4,1660.1 1109.0,1651.5 1133.7,1643.1 1158.6,1634.9 1183.7,1626.9 1208.9,1619.1 1234.3,1611.6 1259.9,1604.3 1285.6,1597.2 1311.4,1590.4 1337.3,1583.8 1363.4,1577.6 1389.5,1571.6 1415.8,1565.8 1442.1,1560.4 1468.5,1555.2 1495.0,1550.4 1521.5,1545.8 1548.1,1541.6 1574.7,1537.6 1601.4,1533.9 1628.0,1530.5 1654.7,1527.5 1681.3,1524.7 1708.0,1522.2 1734.6,1520.0 1761.2,1518.0 1787.7,1516.4 1814.2,1515.0 1840.6,1513.9 1866.9,1513.1 1893.1,1512.5 1919.2,1512.2 1945.2,1512.1 1971.0,1512.2 1996.8,1512.5 2022.3,1513.1  Z" style="stroke-width: 0.5;  stroke: rgb(0,0,0); fill: rgb(179,177,178);" />
<path d="M 2019.799,1553.057 A 522.500,522.500 0.00 0,1 2018.9,1560.9 L 2018.9,1560.9 1994.3,1558.1 1969.4,1555.7 1944.4,1553.6 1919.1,1551.9 1893.6,1550.5 1868.0,1549.5 1842.3,1548.8 1816.4,1548.7 1790.4,1548.9 1764.4,1549.5 1738.3,1550.7 1712.2,1552.2 1686.0,1554.3 1659.8,1556.8 1633.6,1559.7 1607.5,1563.2 1581.4,1567.1 1555.4,1571.6 1529.4,1576.5 1503.6,1581.9 1477.8,1587.7 1452.2,1594.1 1426.7,1600.9 1401.3,1608.1 1376.1,1615.8 1351.1,1624.0 1326.3,1632.6 1301.7,1641.6 1277.4,1651.0 1253.2,1660.8 1229.3,1670.9 1205.7,1681.4 1182.3,1692.3 1159.2,1703.4 1136.5,1714.8 1114.0,1726.5 1091.8,1738.5 1070.0,1750.6 1048.5,1763.0  A 522.500,522.500 0.00 0,1 1044.6,1756.1 L 1044.6,1756.1 1066.3,1744.1 1088.4,1732.2 1110.8,1720.5 1133.5,1709.1 1156.5,1697.9 1179.8,1687.0 1203.3,1676.4 1227.2,1666.1 1251.2,1656.1 1275.5,1646.5 1300.0,1637.3 1324.8,1628.4 1349.7,1619.9 1374.8,1611.9 1400.1,1604.3 1425.6,1597.1 1451.2,1590.3 1476.9,1584.0 1502.7,1578.1 1528.7,1572.7 1554.7,1567.8 1580.8,1563.3 1607.0,1559.3 1633.2,1555.7 1659.4,1552.6 1685.7,1550.0 1711.9,1547.8 1738.1,1546.0 1764.3,1544.7 1790.4,1543.8 1816.4,1543.3 1842.4,1543.3 1868.2,1543.6 1893.9,1544.3 1919.5,1545.4 1944.9,1546.8 1970.0,1548.6 1995.0,1550.7 2019.8,1553.1  Z" style="stroke-width: 0.5;  stroke: rgb(0,0,0); fill: rgb(179,177,178);" />
<path d="M 2002.023,1355.159 A 522.500,522.500 0.00 0,1 2004.1,1362.7 L 2004.1,1362.7 1978.7,1369.6 1953.1,1376.4 1927.5,1383.2 1901.8,1389.9 1876.1,1396.6 1850.3,1403.2 1824.4,1409.7 1798.4,1416.1 1772.4,1422.5 1746.4,1428.8 1720.3,1434.9 1694.1,1441.0 1667.9,1447.1 1641.7,1453.0 1615.4,1458.8 1589.1,1464.5 1562.7,1470.2 1536.3,1475.7 1509.9,1481.1 1483.5,1486.5 1457.1,1491.7 1430.6,1496.8 1404.1,1501.8 1377.7,1506.8 1351.2,1511.6 1324.7,1516.3 1298.2,1520.9 1271.7,1525.4 1245.3,1529.9 1218.8,1534.2 1192.4,1538.4 1166.0,1542.5 1139.6,1546.5 1113.2,1550.5 1086.9,1554.3 1060.6,1558.1 1034.4,1561.8 1008.2,1565.4 982.1,1568.9  A 522.500,522.500 0.00 0,1 981.1,1561.1 L 981.1,1561.1 1007.2,1558.0 1033.4,1554.8 1059.6,1551.5 1085.8,1548.1 1112.2,1544.6 1138.5,1540.9 1164.9,1537.2 1191.3,1533.3 1217.8,1529.3 1244.3,1525.2 1270.8,1521.0 1297.3,1516.7 1323.8,1512.2 1350.3,1507.6 1376.8,1502.9 1403.3,1498.1 1429.8,1493.1 1456.3,1488.0 1482.8,1482.8 1509.2,1477.5 1535.6,1472.0 1562.0,1466.4 1588.4,1460.7 1614.7,1454.9 1641.0,1449.0 1667.2,1442.9 1693.3,1436.8 1719.5,1430.5 1745.5,1424.1 1771.5,1417.6 1797.4,1411.0 1823.3,1404.3 1849.1,1397.6 1874.8,1390.7 1900.4,1383.7 1925.9,1376.7 1951.4,1369.6 1976.8,1362.4 2002.0,1355.2  Z" style="stroke-width: 0.5;  stroke: rgb(0,0,0); fill: rgb(179,177,178);" />
<path d="M 2022.478,1504.842 A 522.500,522.500 0.00 0,1 2022.3,1512.6 L 2022.3,1512.6 1996.8,1512.1 1971.0,1511.8 1945.2,1511.7 1919.2,1511.8 1893.0,1512.2 1866.8,1512.8 1840.5,1513.6 1814.1,1514.7 1787.6,1516.1 1761.1,1517.7 1734.5,1519.6 1707.9,1521.8 1681.3,1524.3 1654.6,1527.1 1627.9,1530.2 1601.3,1533.5 1574.6,1537.2 1548.0,1541.1 1521.4,1545.4 1494.9,1549.9 1468.4,1554.7 1442.0,1559.8 1415.6,1565.3 1389.3,1570.9 1363.2,1576.9 1337.1,1583.1 1311.2,1589.6 1285.3,1596.4 1259.6,1603.4 1234.0,1610.7 1208.6,1618.2 1183.3,1625.9 1158.2,1633.9 1133.3,1642.0 1108.6,1650.3 1084.0,1658.9 1059.6,1667.6 1035.4,1676.4 1011.5,1685.4  A 522.500,522.500 0.00 0,1 1008.8,1678.1 L 1008.8,1678.1 1033.0,1669.4 1057.3,1660.9 1081.9,1652.5 1106.6,1644.3 1131.5,1636.2 1156.6,1628.3 1181.9,1620.6 1207.2,1613.1 1232.8,1605.9 1258.4,1598.8 1284.2,1592.0 1310.2,1585.4 1336.2,1579.0 1362.3,1572.9 1388.5,1567.0 1414.9,1561.4 1441.2,1556.1 1467.7,1551.0 1494.2,1546.2 1520.8,1541.7 1547.4,1537.4 1574.0,1533.4 1600.7,1529.7 1627.4,1526.2 1654.1,1523.0 1680.8,1520.1 1707.4,1517.5 1734.1,1515.1 1760.7,1513.0 1787.2,1511.1 1813.7,1509.5 1840.2,1508.1 1866.5,1507.0 1892.8,1506.1 1919.0,1505.4 1945.0,1505.0 1971.0,1504.7 1996.8,1504.7 2022.5,1504.8  Z" style="stroke-width: 0.5;  stroke: rgb(0,0,0); fill: rgb(179,177,178);" />
</g>
<g id="plot0">
<g id="plot0-axis">
</g>
<line x1='2243.9' y1='1595.6' x2='2243.9' y2='1595.6' style="stroke-width:14.0;stroke:rgb(0,0,0);stroke-linecap:round;fill:none;" />
<line x1='2243.9' y1='1595.6' x2='2283.6' y2='1600.7' style="stroke-width:14.0;stroke:rgb(0,0,0);stroke-linecap:round;fill:none;" />
<line x1='2283.6' y1='1600.7' x2='2283.6' y2='1600.7' style="stroke-width:14.0;stroke:rgb(0,0,0);stroke-linecap:round;fill:none;" />
<text x="2300.2" y="1625.5" font-size="46.8px" font-family="CMUBright-Roman" style="text-anchor:start;fill:rgb(255,38,78);" transform="rotate(7.3,2300.2,1625.5)" >HistomissSECH87<tspan baseline-shift="-40%" font-size="90%">s</tspan>02514</text>
</g>
<defs>
<pattern id="checker" width="10" height="10" patternTransform="rotate(45 0 0)" patternUnits="userSpaceOnUse"><line x1="0" y1="0" x2="10" y2="0" style="stroke:black;stroke-width:5" /><line x1="0" y1="0" x2="0" y2="10" style="stroke:black;stroke-width:4" /></pattern>
<pattern id="vline" width="10" height="10" patternTransform="rotate(0 0 0)" patternUnits="userSpaceOnUse"><line x1="0" y1="0" x2="0" y2="10" style="stroke:black;stroke-width:5" /></pattern>
<pattern id="hline-sparse" width="10" height="10" patternTransform="rotate(0 0 0)" patternUnits="userSpaceOnUse"><line x1="0" y1="0" x2="10" y2="0" style="stroke:black;stroke-width:2" /></pattern>
<pattern id="checker" width="10" height="10" patternTransform="rotate(45 0 0)" patternUnits="userSpaceOnUse"><line x1="0" y1="0" x2="10" y2="0" style="stroke:black;stroke-width:2" /><line x1="0" y1="0" x2="0" y2="10" style="stroke:black;stroke-width:2" /></pattern>
<pattern id="vline-sparse" width="10" height="10" patternTransform="rotate(0 0 0)" patternUnits="userSpaceOnUse"><line x1="0" y1="0" x2="0" y2="10" style="stroke:black;stroke-width:2" /></pattern>
<pattern id="hline" width="10" height="10" patternTransform="rotate(0 0 0)" patternUnits="userSpaceOnUse"><line x1="0" y1="0" x2="10" y2="0" style="stroke:black;stroke-width:5" /></pattern>
</defs>
</svg>
