<?xml version="1.0" encoding="utf-8" standalone="no"?>
<!DOCTYPE svg PUBLIC "-//W3C//DTD SVG 1.1//EN" "http://www.w3.org/Graphics/SVG/1.1/DTD/svg11.dtd">
<svg width="3000px" height="3000px" version="1.1" xmlns="http://www.w3.org/2000/svg" xmlns:xlink="http://www.w3.org/1999/xlink">
<g id="bg">
<rect x="0" y="0" width="3000px" height="3000px" style="fill:rgb(255,255,255);"/>
</g>
<g id="ideograms">
<path d="M1500.000,950.000 A550.000,550.000 40.000 1,1 958.835,1401.817 L762.047,1366.114 A750.000,750.000 0.000 1,0 1500.000,750.000 Z" style="stroke-width:2.0;stroke:rgb(0,0,0);stroke-linecap:round;fill:rgb(179,177,178);" />
<text x="2153.1" y="2282.2" font-size="46.8px" font-family="CMUBright-Roman" style="text-anchor:middle;fill:rgb(0,0,0);" transform="rotate(-39.9,2153.1,2282.2)" >Histocap122p10B<tspan baseline-shift="-40%" font-size="90%">5</tspan></text>
<line x1='1604.5' y1='757.3' x2='1606.1' y2='745.4' style="stroke-width:8.0;stroke:rgb(150,150,150);stroke-linecap:round;fill:none;" />
<line x1='1714.8' y1='781.4' x2='1718.2' y2='769.9' style="stroke-width:8.0;stroke:rgb(150,150,150);stroke-linecap:round;fill:none;" />
<line x1='1820.2' y1='821.8' x2='1825.3' y2='810.9' style="stroke-width:8.0;stroke:rgb(150,150,150);stroke-linecap:round;fill:none;" />
<line x1='1918.4' y1='877.5' x2='1925.1' y2='867.6' style="stroke-width:8.0;stroke:rgb(150,150,150);stroke-linecap:round;fill:none;" />
<line x1='2007.1' y1='947.4' x2='2015.2' y2='938.5' style="stroke-width:8.0;stroke:rgb(150,150,150);stroke-linecap:round;fill:none;" />
<text x="2033.5" y="939.2" font-size="41.6px" font-family="CMUBright-Roman" style="text-anchor:start;fill:rgb(150,150,150);" transform="rotate(312.5,2033.5,939.2)" >2700 kb</text>
<line x1='2084.3' y1='1029.7' x2='2093.6' y2='1022.2' style="stroke-width:8.0;stroke:rgb(150,150,150);stroke-linecap:round;fill:none;" />
<line x1='2148.2' y1='1122.8' x2='2158.6' y2='1116.7' style="stroke-width:8.0;stroke:rgb(150,150,150);stroke-linecap:round;fill:none;" />
<line x1='2197.5' y1='1224.3' x2='2208.7' y2='1219.9' style="stroke-width:8.0;stroke:rgb(150,150,150);stroke-linecap:round;fill:none;" />
<line x1='2231.0' y1='1332.2' x2='2242.7' y2='1329.5' style="stroke-width:8.0;stroke:rgb(150,150,150);stroke-linecap:round;fill:none;" />
<line x1='2247.9' y1='1443.8' x2='2259.9' y2='1442.9' style="stroke-width:8.0;stroke:rgb(150,150,150);stroke-linecap:round;fill:none;" />
<text x="2272.7" y="1456.0" font-size="41.6px" font-family="CMUBright-Roman" style="text-anchor:start;fill:rgb(150,150,150);" transform="rotate(355.7,2272.7,1456.0)" >2750 kb</text>
<line x1='2247.9' y1='1556.7' x2='2259.8' y2='1557.6' style="stroke-width:8.0;stroke:rgb(150,150,150);stroke-linecap:round;fill:none;" />
<line x1='2230.9' y1='1668.3' x2='2242.6' y2='1671.0' style="stroke-width:8.0;stroke:rgb(150,150,150);stroke-linecap:round;fill:none;" />
<line x1='2197.3' y1='1776.1' x2='2208.5' y2='1780.5' style="stroke-width:8.0;stroke:rgb(150,150,150);stroke-linecap:round;fill:none;" />
<line x1='2148.0' y1='1877.6' x2='2158.4' y2='1883.7' style="stroke-width:8.0;stroke:rgb(150,150,150);stroke-linecap:round;fill:none;" />
<line x1='2084.0' y1='1970.6' x2='2093.3' y2='1978.2' style="stroke-width:8.0;stroke:rgb(150,150,150);stroke-linecap:round;fill:none;" />
<text x="2093.8" y="1996.5" font-size="41.6px" font-family="CMUBright-Roman" style="text-anchor:start;fill:rgb(150,150,150);" transform="rotate(38.9,2093.8,1996.5)" >2800 kb</text>
<line x1='2006.7' y1='2053.0' x2='2014.8' y2='2061.8' style="stroke-width:8.0;stroke:rgb(150,150,150);stroke-linecap:round;fill:none;" />
<line x1='1918.0' y1='2122.7' x2='1924.6' y2='2132.7' style="stroke-width:8.0;stroke:rgb(150,150,150);stroke-linecap:round;fill:none;" />
<line x1='1819.8' y1='2178.4' x2='1824.9' y2='2189.3' style="stroke-width:8.0;stroke:rgb(150,150,150);stroke-linecap:round;fill:none;" />
<line x1='1714.3' y1='2218.7' x2='1717.7' y2='2230.2' style="stroke-width:8.0;stroke:rgb(150,150,150);stroke-linecap:round;fill:none;" />
<line x1='1604.0' y1='2242.8' x2='1605.6' y2='2254.6' style="stroke-width:8.0;stroke:rgb(150,150,150);stroke-linecap:round;fill:none;" />
<text x="1593.4" y="2268.3" font-size="41.6px" font-family="CMUBright-Roman" style="text-anchor:start;fill:rgb(150,150,150);" transform="rotate(82.0,1593.4,2268.3)" >2850 kb</text>
<line x1='1491.3' y1='2249.9' x2='1491.2' y2='2261.9' style="stroke-width:8.0;stroke:rgb(150,150,150);stroke-linecap:round;fill:none;" />
<line x1='1378.8' y1='2240.1' x2='1376.9' y2='2252.0' style="stroke-width:8.0;stroke:rgb(150,150,150);stroke-linecap:round;fill:none;" />
<line x1='1269.1' y1='2213.6' x2='1265.4' y2='2225.0' style="stroke-width:8.0;stroke:rgb(150,150,150);stroke-linecap:round;fill:none;" />
<line x1='1164.6' y1='2170.8' x2='1159.3' y2='2181.6' style="stroke-width:8.0;stroke:rgb(150,150,150);stroke-linecap:round;fill:none;" />
<line x1='1067.7' y1='2112.9' x2='1060.8' y2='2122.7' style="stroke-width:8.0;stroke:rgb(150,150,150);stroke-linecap:round;fill:none;" />
<text x="1065.4" y="2140.5" font-size="41.6px" font-family="CMUBright-Roman" style="text-anchor:end;fill:rgb(150,150,150);" transform="rotate(-54.8,1065.4,2140.5)" >2900 kb</text>
<line x1='980.6' y1='2041.1' x2='972.3' y2='2049.7' style="stroke-width:8.0;stroke:rgb(150,150,150);stroke-linecap:round;fill:none;" />
<line x1='905.3' y1='1957.0' x2='895.8' y2='1964.3' style="stroke-width:8.0;stroke:rgb(150,150,150);stroke-linecap:round;fill:none;" />
<line x1='843.4' y1='1862.5' x2='832.9' y2='1868.3' style="stroke-width:8.0;stroke:rgb(150,150,150);stroke-linecap:round;fill:none;" />
<line x1='796.5' y1='1759.9' x2='785.2' y2='1764.0' style="stroke-width:8.0;stroke:rgb(150,150,150);stroke-linecap:round;fill:none;" />
<line x1='765.4' y1='1651.3' x2='753.7' y2='1653.8' style="stroke-width:8.0;stroke:rgb(150,150,150);stroke-linecap:round;fill:none;" />
<text x="744.9" y="1669.9" font-size="41.6px" font-family="CMUBright-Roman" style="text-anchor:end;fill:rgb(150,150,150);" transform="rotate(-11.6,744.9,1669.9)" >2950 kb</text>
<line x1='751.0' y1='1539.4' x2='739.0' y2='1540.0' style="stroke-width:8.0;stroke:rgb(150,150,150);stroke-linecap:round;fill:none;" />
<line x1='753.6' y1='1426.5' x2='741.7' y2='1425.3' style="stroke-width:8.0;stroke:rgb(150,150,150);stroke-linecap:round;fill:none;" />
<g id="highlighttrack_0">
<path d="M2048.871,1464.782 A550.000,550.000 40.000 0,1 1367.366,2033.768 L1319.135,2227.865 A750.000,750.000 0.000 0,0 2248.461,1451.975 Z" style="stroke-width:14.0;stroke:rgb(0,0,0);stroke-linecap:round;fill:rgb(255,38,78);" />
</g>
<path d="M1500.000,950.000 A550.000,550.000 40.000 1,1 958.835,1401.817 L762.047,1366.114 A750.000,750.000 0.000 1,0 1500.000,750.000 Z" style="stroke-width:2.0;stroke:rgb(0,0,0);stroke-linecap:round;fill:none;" />
<path d="M1056.069,1175.307 A550.000,550.000 40.000 0,1 1259.771,1005.237 L1172.415,825.324 A750.000,750.000 0.000 0,0 894.639,1057.237 Z" style="stroke-width:2.0;stroke:rgb(0,0,0);stroke-linecap:round;fill:rgb(179,177,178);" />
<text x="875.1" y="751.6" font-size="46.8px" font-family="CMUBright-Roman" style="text-anchor:middle;fill:rgb(0,0,0);" transform="rotate(-39.9,875.1,751.6)" >HistocapHISSPFGBIK2051<tspan baseline-shift="-40%" font-size="90%">2</tspan>67</text>
<line x1='1074.9' y1='882.1' x2='1068.1' y2='872.2' style="stroke-width:8.0;stroke:rgb(150,150,150);stroke-linecap:round;fill:none;" />
<line x1='986.9' y1='952.9' x2='978.7' y2='944.2' style="stroke-width:8.0;stroke:rgb(150,150,150);stroke-linecap:round;fill:none;" />
<line x1='910.6' y1='1036.2' x2='901.2' y2='1028.7' style="stroke-width:8.0;stroke:rgb(150,150,150);stroke-linecap:round;fill:none;" />
<path d="M1056.069,1175.307 A550.000,550.000 40.000 0,1 1259.771,1005.237 L1172.415,825.324 A750.000,750.000 0.000 0,0 894.639,1057.237 Z" style="stroke-width:2.0;stroke:rgb(0,0,0);stroke-linecap:round;fill:none;" />
</g>
<g id="track_0">
<path d="M 1993.568,1328.545 A 522.500,522.500 0.00 0,1 2013.6,1404.1 L 2013.6,1404.1 1990.3,1408.2 1966.6,1411.9 1942.7,1415.2 1918.6,1417.9 1894.3,1420.2 1869.8,1421.9 1845.2,1423.0 1820.5,1423.5 1795.7,1423.4 1770.9,1422.7 1746.1,1421.3 1721.4,1419.2 1696.6,1416.4 1672.0,1413.0 1647.4,1408.8 1623.0,1403.9 1598.7,1398.3 1574.6,1392.0 1550.7,1385.0 1527.0,1377.2 1503.5,1368.8 1480.3,1359.7 1457.4,1349.9 1434.8,1339.4 1412.5,1328.3 1390.6,1316.5 1369.0,1304.2 1347.7,1291.2 1326.9,1277.7 1306.4,1263.7 1286.3,1249.1 1266.7,1234.1 1247.5,1218.7 1228.8,1202.9 1210.5,1186.7 1192.6,1170.3 1175.2,1153.5 1158.3,1136.6 1141.9,1119.5  A 522.500,522.500 0.00 0,1 1204.6,1069.0 L 1204.6,1069.0 1217.8,1087.7 1231.4,1106.2 1245.6,1124.6 1260.4,1142.6 1275.7,1160.3 1291.5,1177.6 1307.8,1194.4 1324.6,1210.6 1341.9,1226.4 1359.8,1241.5 1378.0,1255.9 1396.8,1269.6 1416.0,1282.6 1435.6,1294.9 1455.6,1306.3 1476.0,1316.9 1496.8,1326.7 1517.9,1335.6 1539.4,1343.7 1561.1,1350.8 1583.2,1357.1 1605.5,1362.5 1628.0,1366.9 1650.7,1370.5 1673.6,1373.2 1696.7,1375.0 1719.8,1375.9 1743.1,1376.0 1766.4,1375.2 1789.6,1373.6 1812.9,1371.3 1836.1,1368.2 1859.2,1364.3 1882.2,1359.8 1905.0,1354.7 1927.6,1348.9 1949.9,1342.6 1971.9,1335.8 1993.6,1328.5  Z" style="stroke-width: 0.5;  stroke: rgb(0,0,0); fill: rgb(179,177,178);" />
<path d="M 1962.837,1257.538 A 522.500,522.500 0.00 0,1 1988.7,1315.0 L 1988.7,1315.0 1967.3,1322.8 1945.7,1330.2 1923.7,1337.0 1901.4,1343.3 1878.9,1349.0 1856.3,1354.0 1833.5,1358.3 1810.6,1361.9 1787.7,1364.7 1764.7,1366.7 1741.7,1367.9 1718.8,1368.2 1696.0,1367.6 1673.3,1366.2 1650.8,1363.8 1628.4,1360.5 1606.2,1356.3 1584.3,1351.1 1562.7,1345.0 1541.3,1338.0 1520.2,1330.1 1499.5,1321.3 1479.1,1311.6 1459.2,1301.0 1439.6,1289.5 1420.4,1277.2 1401.7,1264.2 1383.4,1250.4 1365.6,1235.8 1348.3,1220.6 1331.5,1204.8 1315.2,1188.3 1299.4,1171.3 1284.1,1153.9 1269.3,1136.0 1255.1,1117.8 1241.5,1099.2 1228.4,1080.5 1215.8,1061.6  A 522.500,522.500 0.00 0,1 1270.1,1030.8 L 1270.1,1030.8 1280.1,1050.5 1290.6,1070.1 1301.7,1089.4 1313.3,1108.5 1325.5,1127.2 1338.2,1145.4 1351.5,1163.1 1365.3,1180.2 1379.7,1196.6 1394.6,1212.3 1410.0,1227.2 1425.9,1241.3 1442.3,1254.6 1459.2,1266.9 1476.6,1278.3 1494.4,1288.7 1512.6,1298.2 1531.2,1306.6 1550.2,1314.0 1569.5,1320.3 1589.2,1325.6 1609.2,1329.8 1629.5,1333.0 1650.0,1335.1 1670.7,1336.1 1691.6,1336.2 1712.7,1335.2 1733.9,1333.2 1755.1,1330.3 1776.4,1326.4 1797.7,1321.7 1819.0,1316.1 1840.2,1309.7 1861.2,1302.5 1882.1,1294.7 1902.7,1286.2 1923.1,1277.1 1943.2,1267.6 1962.8,1257.5  Z" style="stroke-width: 0.5;  stroke: rgb(0,0,0); fill: rgb(179,177,178);" />
<path d="M 2014.051,1406.416 A 522.500,522.500 0.00 0,1 2021.4,1466.5 L 2021.4,1466.5 1997.1,1467.9 1972.4,1468.9 1947.6,1469.6 1922.6,1469.8 1897.5,1469.6 1872.2,1468.9 1846.8,1467.7 1821.3,1466.1 1795.8,1464.0 1770.2,1461.3 1744.6,1458.1 1719.1,1454.4 1693.6,1450.2 1668.1,1445.4 1642.7,1440.0 1617.4,1434.1 1592.2,1427.6 1567.2,1420.6 1542.3,1413.0 1517.5,1404.9 1493.0,1396.3 1468.7,1387.0 1444.6,1377.3 1420.7,1367.1 1397.1,1356.3 1373.7,1345.1 1350.7,1333.4 1327.9,1321.2 1305.4,1308.6 1283.3,1295.5 1261.4,1282.1 1240.0,1268.3 1218.8,1254.2 1198.1,1239.7 1177.7,1225.0 1157.7,1210.0 1138.1,1194.8 1118.9,1179.3 1100.1,1163.8  A 522.500,522.500 0.00 0,1 1142.0,1119.5 L 1142.0,1119.5 1158.4,1136.6 1175.3,1153.5 1192.6,1170.3 1210.5,1186.8 1228.8,1203.0 1247.6,1218.8 1266.8,1234.2 1286.4,1249.3 1306.5,1263.8 1326.9,1277.9 1347.8,1291.4 1369.0,1304.4 1390.6,1316.8 1412.6,1328.6 1434.9,1339.8 1457.5,1350.3 1480.4,1360.1 1503.6,1369.3 1527.1,1377.8 1550.8,1385.6 1574.7,1392.7 1598.8,1399.1 1623.1,1404.8 1647.5,1409.7 1672.1,1414.0 1696.8,1417.5 1721.5,1420.4 1746.3,1422.6 1771.1,1424.0 1796.0,1424.9 1820.7,1425.1 1845.5,1424.7 1870.1,1423.6 1894.6,1422.0 1918.9,1419.9 1943.1,1417.2 1967.0,1414.1 1990.7,1410.4 2014.1,1406.4  Z" style="stroke-width: 0.5;  stroke: rgb(0,0,0); fill: rgb(179,177,178);" />
<path d="M 1373.975,2007.074 A 522.500,522.500 0.00 0,1 1352.1,2001.1 L 1352.1,2001.1 1358.4,1978.9 1364.2,1956.4 1369.5,1933.6 1374.4,1910.5 1378.6,1887.3 1382.2,1863.8 1385.1,1840.3 1387.4,1816.6 1388.9,1792.9 1389.6,1769.1 1389.6,1745.4 1388.8,1721.7 1387.2,1698.1 1384.8,1674.6 1381.5,1651.3 1377.4,1628.1 1372.4,1605.1 1366.6,1582.3 1359.9,1559.8 1352.4,1537.5 1344.0,1515.6 1334.8,1493.9 1324.8,1472.6 1314.0,1451.7 1302.4,1431.2 1290.1,1411.0 1277.1,1391.3 1263.3,1372.0 1248.9,1353.1 1233.9,1334.7 1218.3,1316.8 1202.2,1299.3 1185.5,1282.4 1168.4,1265.9 1151.0,1250.0 1133.1,1234.6 1115.0,1219.7 1096.7,1205.4 1078.3,1191.5  A 522.500,522.500 0.00 0,1 1092.2,1173.3 L 1092.2,1173.3 1110.2,1188.1 1128.1,1203.4 1145.8,1219.2 1163.2,1235.5 1180.3,1252.3 1196.9,1269.6 1213.2,1287.4 1229.0,1305.6 1244.3,1324.3 1259.1,1343.5 1273.2,1363.1 1286.8,1383.2 1299.6,1403.6 1311.9,1424.5 1323.4,1445.7 1334.1,1467.3 1344.2,1489.2 1353.4,1511.4 1361.9,1534.0 1369.6,1556.8 1376.6,1579.8 1382.7,1603.1 1388.0,1626.7 1392.5,1650.4 1396.3,1674.2 1399.2,1698.2 1401.4,1722.2 1402.8,1746.4 1403.4,1770.6 1403.3,1794.8 1402.5,1818.9 1401.0,1843.0 1398.9,1867.0 1396.1,1890.9 1392.7,1914.6 1388.8,1938.1 1384.3,1961.4 1379.4,1984.4 1374.0,2007.1  Z" style="stroke-width: 0.5;  stroke: rgb(0,0,0); fill: rgb(179,177,178);" />
<path d="M 1989.815,1318.099 A 522.500,522.500 0.00 0,1 1993.1,1327.1 L 1993.1,1327.1 1971.4,1334.4 1949.5,1341.3 1927.2,1347.6 1904.6,1353.5 1881.9,1358.7 1858.9,1363.2 1835.8,1367.1 1812.7,1370.3 1789.4,1372.7 1766.2,1374.3 1742.9,1375.1 1719.7,1375.1 1696.6,1374.2 1673.6,1372.5 1650.7,1369.8 1628.0,1366.3 1605.5,1361.9 1583.2,1356.5 1561.2,1350.3 1539.5,1343.2 1518.0,1335.1 1496.9,1326.2 1476.2,1316.5 1455.8,1305.8 1435.8,1294.4 1416.3,1282.2 1397.1,1269.2 1378.4,1255.4 1360.2,1241.0 1342.4,1225.9 1325.1,1210.2 1308.3,1193.9 1292.0,1177.1 1276.3,1159.8 1261.0,1142.1 1246.3,1124.1 1232.1,1105.7 1218.5,1087.2 1205.4,1068.4  A 522.500,522.500 0.00 0,1 1213.4,1063.1 L 1213.4,1063.1 1226.0,1082.0 1239.3,1100.7 1253.1,1119.2 1267.4,1137.4 1282.3,1155.3 1297.6,1172.7 1313.6,1189.6 1330.0,1206.0 1346.9,1221.9 1364.4,1237.1 1382.3,1251.6 1400.6,1265.4 1419.5,1278.4 1438.7,1290.7 1458.4,1302.1 1478.5,1312.7 1498.9,1322.5 1519.7,1331.3 1540.9,1339.3 1562.3,1346.3 1584.1,1352.5 1606.1,1357.7 1628.3,1362.0 1650.8,1365.3 1673.4,1367.8 1696.2,1369.3 1719.1,1369.9 1742.1,1369.7 1765.1,1368.6 1788.2,1366.7 1811.2,1364.0 1834.1,1360.6 1857.0,1356.3 1879.7,1351.4 1902.3,1345.9 1924.6,1339.7 1946.7,1333.0 1968.4,1325.8 1989.8,1318.1  Z" style="stroke-width: 0.5;  stroke: rgb(0,0,0); fill: rgb(179,177,178);" />
</g>
<g id="plot0">
<g id="plot0-axis">
</g>
<line x1='2032.0' y1='2028.6' x2='2032.0' y2='2028.6' style="stroke-width:14.0;stroke:rgb(0,0,0);stroke-linecap:round;fill:none;" />
<line x1='2032.0' y1='2028.6' x2='2060.4' y2='2056.8' style="stroke-width:14.0;stroke:rgb(0,0,0);stroke-linecap:round;fill:none;" />
<line x1='2060.4' y1='2056.8' x2='2060.4' y2='2056.8' style="stroke-width:14.0;stroke:rgb(0,0,0);stroke-linecap:round;fill:none;" />
<text x="2058.9" y="2086.3" font-size="46.8px" font-family="CMUBright-Roman" style="text-anchor:start;fill:rgb(255,38,78);" transform="rotate(44.8,2058.9,2086.3)" >Histocap122p10B<tspan baseline-shift="-40%" font-size="90%">s</tspan>01751</text>
</g>
<defs>
<pattern id="checker" width="10" height="10" patternTransform="rotate(45 0 0)" patternUnits="userSpaceOnUse"><line x1="0" y1="0" x2="10" y2="0" style="stroke:black;stroke-width:2" /><line x1="0" y1="0" x2="0" y2="10" style="stroke:black;stroke-width:2" /></pattern>
<pattern id="vline-sparse" width="10" height="10" patternTransform="rotate(0 0 0)" patternUnits="userSpaceOnUse"><line x1="0" y1="0" x2="0" y2="10" style="stroke:black;stroke-width:2" /></pattern>
<pattern id="hline-sparse" width="10" height="10" patternTransform="rotate(0 0 0)" patternUnits="userSpaceOnUse"><line x1="0" y1="0" x2="10" y2="0" style="stroke:black;stroke-width:2" /></pattern>
<pattern id="vline" width="10" height="10" patternTransform="rotate(0 0 0)" patternUnits="userSpaceOnUse"><line x1="0" y1="0" x2="0" y2="10" style="stroke:black;stroke-width:5" /></pattern>
<pattern id="hline" width="10" height="10" patternTransform="rotate(0 0 0)" patternUnits="userSpaceOnUse"><line x1="0" y1="0" x2="10" y2="0" style="stroke:black;stroke-width:5" /></pattern>
<pattern id="checker" width="10" height="10" patternTransform="rotate(45 0 0)" patternUnits="userSpaceOnUse"><line x1="0" y1="0" x2="10" y2="0" style="stroke:black;stroke-width:5" /><line x1="0" y1="0" x2="0" y2="10" style="stroke:black;stroke-width:4" /></pattern>
</defs>
</svg>
