<?xml version="1.0" encoding="utf-8" standalone="no"?>
<!DOCTYPE svg PUBLIC "-//W3C//DTD SVG 1.1//EN" "http://www.w3.org/Graphics/SVG/1.1/DTD/svg11.dtd">
<svg width="3000px" height="3000px" version="1.1" xmlns="http://www.w3.org/2000/svg" xmlns:xlink="http://www.w3.org/1999/xlink">
<g id="bg">
<rect x="0" y="0" width="3000px" height="3000px" style="fill:rgb(255,255,255);"/>
</g>
<g id="ideograms">
<path d="M1500.000,950.000 A550.000,550.000 40.000 0,1 1621.828,2036.337 L1666.129,2231.369 A750.000,750.000 0.000 0,0 1500.000,750.000 Z" style="stroke-width:2.0;stroke:rgb(0,0,0);stroke-linecap:round;fill:rgb(179,177,178);" />
<text x="2468.9" y="1391.3" font-size="46.8px" font-family="CMUBright-Roman" style="text-anchor:middle;fill:rgb(0,0,0);" transform="rotate(443.6,2468.9,1391.3)" >Histocap136P07<tspan baseline-shift="-40%" font-size="90%">1</tspan></text>
<line x1='1553.5' y1='751.9' x2='1554.4' y2='739.9' style="stroke-width:8.0;stroke:rgb(150,150,150);stroke-linecap:round;fill:none;" />
<line x1='1649.6' y1='765.1' x2='1651.9' y2='753.3' style="stroke-width:8.0;stroke:rgb(150,150,150);stroke-linecap:round;fill:none;" />
<line x1='1743.1' y1='790.5' x2='1747.0' y2='779.1' style="stroke-width:8.0;stroke:rgb(150,150,150);stroke-linecap:round;fill:none;" />
<text x="1764.1" y="772.4" font-size="41.6px" font-family="CMUBright-Roman" style="text-anchor:start;fill:rgb(150,150,150);" transform="rotate(288.9,1764.1,772.4)" >550 kb</text>
<line x1='1832.6' y1='827.8' x2='1837.9' y2='817.0' style="stroke-width:8.0;stroke:rgb(150,150,150);stroke-linecap:round;fill:none;" />
<line x1='1916.5' y1='876.3' x2='1923.1' y2='866.3' style="stroke-width:8.0;stroke:rgb(150,150,150);stroke-linecap:round;fill:none;" />
<line x1='1993.4' y1='935.2' x2='2001.3' y2='926.1' style="stroke-width:8.0;stroke:rgb(150,150,150);stroke-linecap:round;fill:none;" />
<line x1='2062.2' y1='1003.5' x2='2071.2' y2='995.6' style="stroke-width:8.0;stroke:rgb(150,150,150);stroke-linecap:round;fill:none;" />
<line x1='2121.5' y1='1080.2' x2='2131.4' y2='1073.5' style="stroke-width:8.0;stroke:rgb(150,150,150);stroke-linecap:round;fill:none;" />
<text x="2149.1" y="1078.4" font-size="41.6px" font-family="CMUBright-Roman" style="text-anchor:start;fill:rgb(150,150,150);" transform="rotate(326.0,2149.1,1078.4)" >600 kb</text>
<line x1='2170.4' y1='1163.8' x2='2181.2' y2='1158.5' style="stroke-width:8.0;stroke:rgb(150,150,150);stroke-linecap:round;fill:none;" />
<line x1='2208.2' y1='1253.1' x2='2219.5' y2='1249.2' style="stroke-width:8.0;stroke:rgb(150,150,150);stroke-linecap:round;fill:none;" />
<line x1='2234.1' y1='1346.5' x2='2245.9' y2='1344.1' style="stroke-width:8.0;stroke:rgb(150,150,150);stroke-linecap:round;fill:none;" />
<line x1='2247.8' y1='1442.5' x2='2259.8' y2='1441.5' style="stroke-width:8.0;stroke:rgb(150,150,150);stroke-linecap:round;fill:none;" />
<line x1='2249.0' y1='1539.4' x2='2260.9' y2='1540.0' style="stroke-width:8.0;stroke:rgb(150,150,150);stroke-linecap:round;fill:none;" />
<text x="2272.1" y="1554.6" font-size="41.6px" font-family="CMUBright-Roman" style="text-anchor:start;fill:rgb(150,150,150);" transform="rotate(3.0,2272.1,1554.6)" >650 kb</text>
<line x1='2237.6' y1='1635.6' x2='2249.4' y2='1637.8' style="stroke-width:8.0;stroke:rgb(150,150,150);stroke-linecap:round;fill:none;" />
<line x1='2214.0' y1='1729.6' x2='2225.4' y2='1733.3' style="stroke-width:8.0;stroke:rgb(150,150,150);stroke-linecap:round;fill:none;" />
<line x1='2178.4' y1='1819.8' x2='2189.3' y2='1824.9' style="stroke-width:8.0;stroke:rgb(150,150,150);stroke-linecap:round;fill:none;" />
<line x1='2131.5' y1='1904.6' x2='2141.6' y2='1911.1' style="stroke-width:8.0;stroke:rgb(150,150,150);stroke-linecap:round;fill:none;" />
<line x1='2074.0' y1='1982.7' x2='2083.2' y2='1990.4' style="stroke-width:8.0;stroke:rgb(150,150,150);stroke-linecap:round;fill:none;" />
<text x="2083.3" y="2008.8" font-size="41.6px" font-family="CMUBright-Roman" style="text-anchor:start;fill:rgb(150,150,150);" transform="rotate(40.1,2083.3,2008.8)" >700 kb</text>
<line x1='2007.0' y1='2052.7' x2='2015.1' y2='2061.5' style="stroke-width:8.0;stroke:rgb(150,150,150);stroke-linecap:round;fill:none;" />
<line x1='1931.5' y1='2113.5' x2='1938.4' y2='2123.3' style="stroke-width:8.0;stroke:rgb(150,150,150);stroke-linecap:round;fill:none;" />
<line x1='1848.8' y1='2164.0' x2='1854.3' y2='2174.6' style="stroke-width:8.0;stroke:rgb(150,150,150);stroke-linecap:round;fill:none;" />
<line x1='1760.2' y1='2203.4' x2='1764.4' y2='2214.7' style="stroke-width:8.0;stroke:rgb(150,150,150);stroke-linecap:round;fill:none;" />
<line x1='1667.3' y1='2231.1' x2='1670.0' y2='2242.8' style="stroke-width:8.0;stroke:rgb(150,150,150);stroke-linecap:round;fill:none;" />
<text x="1659.0" y="2257.5" font-size="41.6px" font-family="CMUBright-Roman" style="text-anchor:start;fill:rgb(150,150,150);" transform="rotate(77.1,1659.0,2257.5)" >750 kb</text>
<g id="highlighttrack_0">
<path d="M2028.953,1349.305 A550.000,550.000 40.000 0,1 2049.193,1529.785 L2248.899,1540.616 A750.000,750.000 0.000 0,0 2221.299,1294.507 Z" style="stroke-width:14.0;stroke:rgb(0,0,0);stroke-linecap:round;fill:rgb(255,38,78);" />
</g>
<path d="M1500.000,950.000 A550.000,550.000 40.000 0,1 1621.828,2036.337 L1666.129,2231.369 A750.000,750.000 0.000 0,0 1500.000,750.000 Z" style="stroke-width:2.0;stroke:rgb(0,0,0);stroke-linecap:round;fill:none;" />
<path d="M1409.868,2042.565 A550.000,550.000 40.000 0,1 1291.926,990.878 L1216.263,805.743 A750.000,750.000 0.000 0,0 1377.093,2239.861 Z" style="stroke-width:2.0;stroke:rgb(0,0,0);stroke-linecap:round;fill:rgb(179,177,178);" />
<text x="486.4" y="1613.7" font-size="46.8px" font-family="CMUBright-Roman" style="text-anchor:middle;fill:rgb(0,0,0);" transform="rotate(83.6,486.4,1613.7)" >HistoohiSECH82<tspan baseline-shift="-40%" font-size="90%">1</tspan></text>
<line x1='1201.7' y1='811.9' x2='1196.9' y2='800.9' style="stroke-width:8.0;stroke:rgb(150,150,150);stroke-linecap:round;fill:none;" />
<text x="1179.4" y="795.5" font-size="41.6px" font-family="CMUBright-Roman" style="text-anchor:end;fill:rgb(150,150,150);" transform="rotate(66.6,1179.4,795.5)" >500 kb</text>
<line x1='1115.5' y1='856.1' x2='1109.3' y2='845.8' style="stroke-width:8.0;stroke:rgb(150,150,150);stroke-linecap:round;fill:none;" />
<line x1='1035.6' y1='911.1' x2='1028.2' y2='901.6' style="stroke-width:8.0;stroke:rgb(150,150,150);stroke-linecap:round;fill:none;" />
<line x1='963.5' y1='975.9' x2='955.0' y2='967.5' style="stroke-width:8.0;stroke:rgb(150,150,150);stroke-linecap:round;fill:none;" />
<line x1='900.4' y1='1049.4' x2='890.8' y2='1042.2' style="stroke-width:8.0;stroke:rgb(150,150,150);stroke-linecap:round;fill:none;" />
<line x1='847.3' y1='1130.5' x2='836.9' y2='1124.6' style="stroke-width:8.0;stroke:rgb(150,150,150);stroke-linecap:round;fill:none;" />
<text x="819.7" y="1130.9" font-size="41.6px" font-family="CMUBright-Roman" style="text-anchor:end;fill:rgb(150,150,150);" transform="rotate(29.5,819.7,1130.9)" >550 kb</text>
<line x1='805.1' y1='1217.8' x2='794.0' y2='1213.3' style="stroke-width:8.0;stroke:rgb(150,150,150);stroke-linecap:round;fill:none;" />
<line x1='774.5' y1='1309.7' x2='762.9' y2='1306.7' style="stroke-width:8.0;stroke:rgb(150,150,150);stroke-linecap:round;fill:none;" />
<line x1='756.1' y1='1404.9' x2='744.2' y2='1403.4' style="stroke-width:8.0;stroke:rgb(150,150,150);stroke-linecap:round;fill:none;" />
<line x1='750.0' y1='1501.6' x2='738.0' y2='1501.7' style="stroke-width:8.0;stroke:rgb(150,150,150);stroke-linecap:round;fill:none;" />
<line x1='756.5' y1='1598.3' x2='744.6' y2='1599.9' style="stroke-width:8.0;stroke:rgb(150,150,150);stroke-linecap:round;fill:none;" />
<text x="734.6" y="1615.3" font-size="41.6px" font-family="CMUBright-Roman" style="text-anchor:end;fill:rgb(150,150,150);" transform="rotate(-7.5,734.6,1615.3)" >600 kb</text>
<line x1='775.4' y1='1693.4' x2='763.8' y2='1696.5' style="stroke-width:8.0;stroke:rgb(150,150,150);stroke-linecap:round;fill:none;" />
<line x1='806.4' y1='1785.2' x2='795.3' y2='1789.8' style="stroke-width:8.0;stroke:rgb(150,150,150);stroke-linecap:round;fill:none;" />
<line x1='848.9' y1='1872.3' x2='838.5' y2='1878.3' style="stroke-width:8.0;stroke:rgb(150,150,150);stroke-linecap:round;fill:none;" />
<line x1='902.4' y1='1953.2' x2='892.8' y2='1960.4' style="stroke-width:8.0;stroke:rgb(150,150,150);stroke-linecap:round;fill:none;" />
<line x1='965.8' y1='2026.5' x2='957.3' y2='2034.9' style="stroke-width:8.0;stroke:rgb(150,150,150);stroke-linecap:round;fill:none;" />
<text x="958.6" y="2053.2" font-size="41.6px" font-family="CMUBright-Roman" style="text-anchor:end;fill:rgb(150,150,150);" transform="rotate(-44.6,958.6,2053.2)" >650 kb</text>
<line x1='1038.2' y1='2091.0' x2='1030.8' y2='2100.4' style="stroke-width:8.0;stroke:rgb(150,150,150);stroke-linecap:round;fill:none;" />
<line x1='1118.2' y1='2145.6' x2='1112.1' y2='2155.9' style="stroke-width:8.0;stroke:rgb(150,150,150);stroke-linecap:round;fill:none;" />
<line x1='1204.7' y1='2189.4' x2='1200.0' y2='2200.4' style="stroke-width:8.0;stroke:rgb(150,150,150);stroke-linecap:round;fill:none;" />
<line x1='1296.1' y1='2221.7' x2='1292.8' y2='2233.3' style="stroke-width:8.0;stroke:rgb(150,150,150);stroke-linecap:round;fill:none;" />
<path d="M1409.868,2042.565 A550.000,550.000 40.000 0,1 1291.926,990.878 L1216.263,805.743 A750.000,750.000 0.000 0,0 1377.093,2239.861 Z" style="stroke-width:2.0;stroke:rgb(0,0,0);stroke-linecap:round;fill:none;" />
</g>
<g id="track_0">
<path d="M 1985.634,1692.785 A 522.500,522.500 0.00 0,1 1952.7,1760.9 L 1952.7,1760.9 1932.3,1749.4 1911.6,1738.3 1890.4,1727.5 1868.8,1717.2 1846.9,1707.4 1824.6,1698.0 1802.1,1689.3 1779.3,1681.1 1756.2,1673.6 1732.9,1666.7 1709.4,1660.5 1685.7,1655.1 1661.9,1650.4 1637.9,1646.4 1613.9,1643.2 1589.7,1640.9 1565.5,1639.3 1541.3,1638.5 1517.1,1638.6 1492.9,1639.4 1468.7,1641.1 1444.6,1643.6 1420.6,1646.9 1396.7,1651.0 1372.9,1655.9 1349.3,1661.6 1325.9,1668.0 1302.6,1675.1 1279.6,1683.0 1256.9,1691.5 1234.4,1700.6 1212.2,1710.4 1190.4,1720.8 1168.9,1731.7 1147.7,1743.1 1126.9,1754.9 1106.6,1767.1 1086.6,1779.7 1067.1,1792.6  A 522.500,522.500 0.00 0,1 1029.0,1726.2 L 1029.0,1726.2 1050.9,1715.9 1073.2,1705.9 1095.9,1696.1 1118.8,1686.8 1142.1,1677.7 1165.7,1669.1 1189.6,1660.9 1213.7,1653.2 1238.1,1646.0 1262.6,1639.2 1287.4,1633.0 1312.4,1627.3 1337.5,1622.2 1362.8,1617.7 1388.2,1613.7 1413.7,1610.4 1439.3,1607.6 1465.0,1605.5 1490.7,1604.0 1516.5,1603.1 1542.3,1602.8 1568.0,1603.1 1593.8,1604.1 1619.5,1605.7 1645.1,1607.8 1670.6,1610.6 1696.0,1613.9 1721.3,1617.8 1746.5,1622.3 1771.5,1627.3 1796.3,1632.8 1820.9,1638.9 1845.3,1645.4 1869.4,1652.3 1893.3,1659.7 1916.8,1667.4 1940.1,1675.6 1963.0,1684.0 1985.6,1692.8  Z" style="stroke-width: 0.5;  stroke: rgb(0,0,0); fill: rgb(179,177,178);" />
<path d="M 2008.326,1620.874 A 522.500,522.500 0.00 0,1 1986.5,1690.6 L 1986.5,1690.6 1963.8,1681.9 1940.9,1673.6 1917.5,1665.5 1893.9,1657.8 1870.0,1650.6 1845.8,1643.7 1821.4,1637.3 1796.8,1631.3 1771.9,1625.9 1746.9,1621.0 1721.7,1616.5 1696.3,1612.7 1670.9,1609.4 1645.3,1606.7 1619.6,1604.6 1593.9,1603.1 1568.2,1602.1 1542.4,1601.8 1516.6,1602.1 1490.8,1603.1 1465.0,1604.6 1439.3,1606.7 1413.7,1609.5 1388.1,1612.8 1362.7,1616.8 1337.4,1621.3 1312.2,1626.4 1287.2,1632.1 1262.4,1638.2 1237.8,1645.0 1213.4,1652.2 1189.2,1659.9 1165.3,1668.0 1141.7,1676.6 1118.4,1685.5 1095.3,1694.9 1072.6,1704.6 1050.3,1714.6 1028.3,1724.8  A 522.500,522.500 0.00 0,1 1001.6,1656.9 L 1001.6,1656.9 1025.6,1649.5 1049.8,1642.3 1074.3,1635.3 1099.1,1628.6 1124.0,1622.1 1149.2,1616.0 1174.5,1610.1 1200.1,1604.6 1225.8,1599.4 1251.6,1594.6 1277.6,1590.1 1303.7,1585.9 1330.0,1582.2 1356.3,1578.8 1382.7,1575.8 1409.2,1573.2 1435.8,1571.1 1462.4,1569.3 1489.1,1567.9 1515.7,1567.0 1542.4,1566.4 1569.1,1566.3 1595.8,1566.6 1622.4,1567.3 1648.9,1568.3 1675.5,1569.8 1701.9,1571.7 1728.3,1573.9 1754.5,1576.6 1780.6,1579.6 1806.6,1582.9 1832.5,1586.6 1858.2,1590.6 1883.7,1595.0 1909.1,1599.6 1934.2,1604.6 1959.2,1609.7 1983.9,1615.2 2008.3,1620.9  Z" style="stroke-width: 0.5;  stroke: rgb(0,0,0); fill: rgb(179,177,178);" />
<path d="M 1897.973,1838.561 A 522.500,522.500 0.00 0,1 1847.6,1890.1 L 1847.6,1890.1 1832.9,1874.1 1817.8,1858.4 1802.3,1843.0 1786.4,1828.2 1770.0,1813.9 1753.4,1800.3 1736.4,1787.4 1719.1,1775.2 1701.5,1764.0 1683.7,1753.6 1665.7,1744.2 1647.5,1735.8 1629.2,1728.5 1610.7,1722.2 1592.1,1717.1 1573.5,1713.1 1554.8,1710.2 1536.1,1708.6 1517.4,1708.1 1498.7,1708.8 1480.1,1710.8 1461.6,1713.9 1443.2,1718.1 1424.9,1723.6 1406.8,1730.1 1388.9,1737.8 1371.2,1746.5 1353.7,1756.3 1336.4,1767.1 1319.5,1778.8 1302.9,1791.4 1286.6,1804.8 1270.6,1819.0 1255.0,1833.8 1239.9,1849.3 1225.1,1865.4 1210.8,1881.9 1197.0,1898.7 1183.6,1915.8  A 522.500,522.500 0.00 0,1 1129.6,1868.5 L 1129.6,1868.5 1145.6,1852.9 1162.1,1837.6 1179.2,1822.7 1196.6,1808.2 1214.5,1794.2 1232.8,1780.8 1251.5,1768.1 1270.5,1756.0 1289.9,1744.7 1309.6,1734.2 1329.5,1724.5 1349.7,1715.7 1370.2,1707.8 1390.8,1700.9 1411.7,1694.9 1432.7,1690.0 1453.8,1686.0 1475.0,1683.1 1496.4,1681.2 1517.7,1680.4 1539.1,1680.6 1560.5,1681.9 1581.9,1684.2 1603.2,1687.5 1624.5,1691.8 1645.6,1697.1 1666.6,1703.4 1687.4,1710.6 1708.1,1718.6 1728.5,1727.6 1748.7,1737.4 1768.6,1747.9 1788.2,1759.2 1807.5,1771.1 1826.4,1783.7 1845.0,1796.8 1863.1,1810.3 1880.8,1824.3 1898.0,1838.6  Z" style="stroke-width: 0.5;  stroke: rgb(0,0,0); fill: rgb(179,177,178);" />
<path d="M 1976.972,1286.684 A 522.500,522.500 0.00 0,1 2000.3,1349.4 L 2000.3,1349.4 1975.3,1356.9 1950.1,1364.3 1924.8,1371.7 1899.4,1378.9 1873.9,1386.0 1848.2,1393.1 1822.5,1400.0 1796.8,1406.8 1770.9,1413.5 1744.9,1420.1 1718.9,1426.5 1692.8,1432.8 1666.6,1439.0 1640.4,1445.1 1614.1,1451.0 1587.8,1456.7 1561.4,1462.3 1535.0,1467.8 1508.5,1473.1 1482.0,1478.3 1455.5,1483.3 1428.9,1488.1 1402.4,1492.8 1375.8,1497.4 1349.2,1501.8 1322.7,1506.0 1296.1,1510.1 1269.5,1514.1 1243.0,1517.9 1216.5,1521.5 1190.0,1525.0 1163.5,1528.4 1137.1,1531.6 1110.7,1534.7 1084.4,1537.6 1058.1,1540.5 1031.9,1543.2 1005.8,1545.8 979.7,1548.2  A 522.500,522.500 0.00 0,1 977.8,1481.2 L 977.8,1481.2 1003.2,1482.0 1028.7,1482.6 1054.4,1482.9 1080.2,1482.9 1106.2,1482.7 1132.3,1482.2 1158.5,1481.4 1184.7,1480.3 1211.1,1478.9 1237.5,1477.2 1264.0,1475.1 1290.5,1472.7 1317.0,1470.0 1343.5,1466.9 1370.0,1463.5 1396.6,1459.8 1423.1,1455.7 1449.5,1451.3 1475.9,1446.5 1502.3,1441.3 1528.5,1435.9 1554.7,1430.1 1580.8,1423.9 1606.8,1417.4 1632.7,1410.7 1658.4,1403.5 1684.0,1396.1 1709.5,1388.4 1734.8,1380.4 1759.9,1372.0 1784.8,1363.5 1809.6,1354.6 1834.2,1345.6 1858.5,1336.2 1882.7,1326.7 1906.6,1317.0 1930.3,1307.0 1953.8,1296.9 1977.0,1286.7  Z" style="stroke-width: 0.5;  stroke: rgb(0,0,0); fill: rgb(179,177,178);" />
<path d="M 1814.628,1082.848 A 522.500,522.500 0.00 0,1 1860.9,1122.1 L 1860.9,1122.1 1844.9,1138.5 1828.4,1154.7 1811.3,1170.5 1793.8,1186.0 1775.9,1201.1 1757.4,1215.7 1738.6,1229.7 1719.3,1243.2 1699.6,1256.0 1679.6,1268.2 1659.1,1279.6 1638.4,1290.3 1617.3,1300.2 1595.9,1309.3 1574.2,1317.6 1552.2,1325.0 1530.0,1331.5 1507.6,1337.2 1485.1,1341.9 1462.3,1345.8 1439.4,1348.7 1416.4,1350.7 1393.3,1351.8 1370.1,1352.0 1347.0,1351.3 1323.8,1349.7 1300.6,1347.2 1277.4,1343.9 1254.4,1339.8 1231.4,1334.9 1208.6,1329.2 1186.0,1322.8 1163.6,1315.7 1141.4,1308.0 1119.5,1299.6 1097.9,1290.7 1076.6,1281.3 1055.7,1271.5 1035.2,1261.2  A 522.500,522.500 0.00 0,1 1065.3,1210.0 L 1065.3,1210.0 1084.0,1222.2 1103.2,1234.0 1122.7,1245.3 1142.5,1256.1 1162.7,1266.3 1183.2,1275.8 1203.9,1284.6 1224.8,1292.7 1245.9,1300.0 1267.1,1306.4 1288.4,1311.9 1309.8,1316.5 1331.2,1320.1 1352.6,1322.8 1374.0,1324.5 1395.4,1325.1 1416.7,1324.7 1437.8,1323.2 1458.8,1320.7 1479.7,1317.2 1500.4,1312.6 1520.8,1307.0 1541.0,1300.4 1561.0,1292.7 1580.6,1284.1 1600.0,1274.5 1619.0,1264.0 1637.7,1252.6 1656.0,1240.4 1673.9,1227.3 1691.4,1213.5 1708.5,1199.0 1725.1,1183.8 1741.3,1168.1 1756.9,1151.8 1772.1,1135.0 1786.8,1117.9 1801.0,1100.5 1814.6,1082.8  Z" style="stroke-width: 0.5;  stroke: rgb(0,0,0); fill: rgb(179,177,178);" />
<path d="M 1878.815,1140.131 A 522.500,522.500 0.00 0,1 1917.8,1186.2 L 1917.8,1186.2 1898.6,1200.4 1879.0,1214.3 1858.9,1228.0 1838.4,1241.3 1817.5,1254.3 1796.3,1266.8 1774.6,1279.0 1752.6,1290.6 1730.3,1301.8 1707.6,1312.4 1684.7,1322.5 1661.5,1332.0 1638.0,1340.9 1614.2,1349.2 1590.2,1356.8 1566.0,1363.7 1541.7,1370.0 1517.1,1375.7 1492.4,1380.6 1467.6,1384.8 1442.6,1388.4 1417.6,1391.2 1392.5,1393.3 1367.4,1394.8 1342.3,1395.5 1317.1,1395.6 1292.0,1395.0 1266.9,1393.7 1241.9,1391.8 1217.0,1389.3 1192.3,1386.2 1167.7,1382.4 1143.2,1378.2 1119.0,1373.4 1095.0,1368.0 1071.2,1362.3 1047.8,1356.0 1024.6,1349.4 1001.8,1342.4  A 522.500,522.500 0.00 0,1 1023.3,1286.1 L 1023.3,1286.1 1044.6,1295.3 1066.2,1304.2 1088.2,1312.7 1110.5,1320.6 1133.1,1328.0 1156.0,1334.9 1179.1,1341.1 1202.5,1346.7 1225.9,1351.6 1249.5,1355.7 1273.3,1359.1 1297.1,1361.8 1320.9,1363.7 1344.8,1364.7 1368.7,1364.9 1392.5,1364.3 1416.3,1362.9 1440.0,1360.6 1463.6,1357.4 1487.1,1353.4 1510.4,1348.6 1533.5,1342.9 1556.4,1336.4 1579.1,1329.0 1601.6,1320.9 1623.7,1312.0 1645.6,1302.3 1667.2,1291.9 1688.5,1280.9 1709.4,1269.1 1729.9,1256.7 1750.0,1243.7 1769.8,1230.2 1789.1,1216.1 1808.0,1201.6 1826.4,1186.7 1844.4,1171.5 1861.8,1155.9 1878.8,1140.1  Z" style="stroke-width: 0.5;  stroke: rgb(0,0,0); fill: rgb(179,177,178);" />
<path d="M 2018.850,1561.655 A 522.500,522.500 0.00 0,1 2008.7,1619.4 L 2008.7,1619.4 1984.2,1613.8 1959.4,1608.4 1934.4,1603.2 1909.3,1598.4 1883.9,1593.8 1858.3,1589.4 1832.6,1585.5 1806.7,1581.8 1780.6,1578.4 1754.5,1575.5 1728.2,1572.8 1701.8,1570.6 1675.4,1568.7 1648.8,1567.2 1622.2,1566.0 1595.6,1565.3 1568.9,1565.0 1542.2,1565.1 1515.5,1565.5 1488.8,1566.4 1462.1,1567.7 1435.5,1569.3 1408.9,1571.4 1382.3,1573.9 1355.9,1576.7 1329.5,1580.0 1303.2,1583.6 1277.0,1587.6 1251.0,1591.9 1225.1,1596.6 1199.3,1601.7 1173.7,1607.0 1148.3,1612.7 1123.1,1618.7 1098.1,1624.9 1073.2,1631.4 1048.7,1638.2 1024.3,1645.2 1000.2,1652.4  A 522.500,522.500 0.00 0,1 986.1,1594.6 L 986.1,1594.6 1011.6,1590.0 1037.2,1585.5 1062.9,1581.2 1088.8,1577.0 1114.8,1573.0 1140.9,1569.2 1167.1,1565.5 1193.4,1562.1 1219.9,1558.8 1246.4,1555.7 1273.0,1552.9 1299.6,1550.2 1326.4,1547.8 1353.2,1545.5 1380.0,1543.5 1406.9,1541.8 1433.8,1540.2 1460.7,1538.9 1487.7,1537.8 1514.7,1536.9 1541.7,1536.3 1568.6,1535.9 1595.6,1535.8 1622.5,1535.8 1649.4,1536.1 1676.3,1536.6 1703.2,1537.3 1729.9,1538.3 1756.7,1539.5 1783.3,1540.8 1809.9,1542.4 1836.4,1544.2 1862.8,1546.2 1889.1,1548.3 1915.3,1550.7 1941.4,1553.2 1967.3,1555.9 1993.2,1558.7 2018.8,1561.7  Z" style="stroke-width: 0.5;  stroke: rgb(0,0,0); fill: rgb(179,177,178);" />
<path d="M 1917.812,1186.250 A 522.500,522.500 0.00 0,1 1950.2,1234.9 L 1950.2,1234.9 1929.0,1247.2 1907.4,1259.3 1885.5,1271.1 1863.2,1282.7 1840.6,1294.0 1817.6,1304.9 1794.4,1315.5 1770.9,1325.8 1747.1,1335.6 1723.1,1345.0 1698.8,1354.0 1674.3,1362.5 1649.5,1370.5 1624.6,1378.1 1599.5,1385.1 1574.2,1391.7 1548.8,1397.7 1523.2,1403.2 1497.5,1408.2 1471.7,1412.6 1445.8,1416.5 1419.9,1419.8 1393.9,1422.6 1367.9,1424.9 1341.9,1426.6 1315.8,1427.8 1289.8,1428.5 1263.9,1428.7 1238.0,1428.3 1212.2,1427.5 1186.5,1426.1 1160.9,1424.3 1135.5,1422.1 1110.2,1419.4 1085.1,1416.3 1060.3,1412.9 1035.6,1409.0 1011.2,1404.8 987.1,1400.3  A 522.500,522.500 0.00 0,1 1001.5,1343.4 L 1001.5,1343.4 1024.3,1350.4 1047.5,1356.9 1071.0,1363.1 1094.7,1368.9 1118.8,1374.1 1143.0,1378.9 1167.5,1383.1 1192.1,1386.8 1216.9,1389.9 1241.8,1392.4 1266.8,1394.3 1291.9,1395.5 1317.0,1396.1 1342.1,1396.0 1367.3,1395.2 1392.4,1393.7 1417.5,1391.5 1442.6,1388.7 1467.5,1385.1 1492.3,1380.8 1517.0,1375.9 1541.6,1370.2 1566.0,1363.9 1590.2,1356.9 1614.2,1349.3 1637.9,1341.0 1661.4,1332.1 1684.7,1322.6 1707.6,1312.5 1730.3,1301.9 1752.6,1290.7 1774.6,1279.0 1796.2,1266.9 1817.5,1254.3 1838.4,1241.3 1858.9,1228.0 1879.0,1214.3 1898.6,1200.4 1917.8,1186.2  Z" style="stroke-width: 0.5;  stroke: rgb(0,0,0); fill: rgb(179,177,178);" />
<path d="M 1846.685,1890.916 A 522.500,522.500 0.00 0,1 1813.2,1918.2 L 1813.2,1918.2 1800.2,1901.3 1786.8,1884.6 1772.9,1868.4 1758.7,1852.6 1744.1,1837.4 1729.2,1822.9 1713.9,1809.1 1698.4,1796.1 1682.7,1784.0 1666.7,1772.9 1650.5,1762.8 1634.2,1753.8 1617.7,1745.9 1601.1,1739.1 1584.4,1733.5 1567.7,1729.1 1550.9,1726.0 1534.1,1724.1 1517.3,1723.5 1500.5,1724.2 1483.9,1726.1 1467.3,1729.3 1450.8,1733.8 1434.4,1739.5 1418.2,1746.4 1402.2,1754.4 1386.4,1763.6 1370.9,1774.0 1355.6,1785.3 1340.5,1797.7 1325.8,1811.0 1311.3,1825.1 1297.2,1840.1 1283.5,1855.7 1270.2,1872.1 1257.2,1888.9 1244.7,1906.2 1232.7,1923.9 1221.1,1941.8  A 522.500,522.500 0.00 0,1 1185.5,1917.3 L 1185.5,1917.3 1198.8,1900.1 1212.5,1883.2 1226.7,1866.7 1241.4,1850.6 1256.5,1835.0 1272.0,1820.1 1287.8,1805.9 1304.1,1792.4 1320.6,1779.7 1337.5,1768.0 1354.6,1757.2 1372.0,1747.4 1389.6,1738.6 1407.5,1730.9 1425.5,1724.3 1443.7,1718.8 1462.1,1714.5 1480.5,1711.4 1499.0,1709.5 1517.6,1708.7 1536.3,1709.2 1554.9,1710.8 1573.5,1713.7 1592.1,1717.7 1610.6,1722.8 1629.0,1729.1 1647.3,1736.4 1665.4,1744.8 1683.3,1754.2 1701.1,1764.6 1718.6,1775.9 1735.8,1788.0 1752.8,1800.9 1769.4,1814.6 1785.7,1828.9 1801.6,1843.8 1817.1,1859.1 1832.1,1874.9 1846.7,1890.9  Z" style="stroke-width: 0.5;  stroke: rgb(0,0,0); fill: rgb(179,177,178);" />
<path d="M 1642.286,997.246 A 522.500,522.500 0.00 0,1 1682.4,1010.4 L 1682.4,1010.4 1674.8,1030.1 1666.8,1049.6 1658.2,1068.9 1649.2,1087.8 1639.7,1106.2 1629.8,1124.0 1619.4,1141.2 1608.6,1157.6 1597.3,1173.1 1585.6,1187.7 1573.5,1201.4 1561.0,1214.0 1548.1,1225.6 1534.8,1236.0 1521.1,1245.2 1507.2,1253.2 1492.8,1260.0 1478.2,1265.5 1463.3,1269.7 1448.2,1272.6 1432.8,1274.3 1417.2,1274.6 1401.4,1273.7 1385.4,1271.4 1369.3,1268.0 1353.1,1263.3 1336.8,1257.4 1320.5,1250.3 1304.2,1242.2 1287.9,1232.9 1271.6,1222.7 1255.4,1211.5 1239.4,1199.5 1223.5,1186.7 1207.9,1173.1 1192.5,1159.0 1177.4,1144.3 1162.6,1129.1 1148.2,1113.7  A 522.500,522.500 0.00 0,1 1180.7,1086.4 L 1180.7,1086.4 1193.6,1102.8 1206.8,1118.9 1220.4,1134.5 1234.2,1149.7 1248.2,1164.2 1262.4,1178.0 1276.7,1191.0 1291.1,1203.1 1305.6,1214.2 1320.2,1224.3 1334.7,1233.3 1349.1,1241.2 1363.6,1247.9 1377.9,1253.3 1392.0,1257.4 1406.1,1260.3 1419.9,1261.8 1433.5,1262.0 1447.0,1260.8 1460.1,1258.2 1473.0,1254.3 1485.6,1249.1 1497.9,1242.5 1509.8,1234.7 1521.4,1225.5 1532.7,1215.2 1543.6,1203.6 1554.1,1190.9 1564.2,1177.2 1573.9,1162.4 1583.2,1146.6 1592.1,1130.0 1600.5,1112.6 1608.6,1094.5 1616.2,1075.9 1623.4,1056.7 1630.1,1037.1 1636.4,1017.2 1642.3,997.2  Z" style="stroke-width: 0.5;  stroke: rgb(0,0,0); fill: rgb(179,177,178);" />
<path d="M 1682.097,1010.258 A 522.500,522.500 0.00 0,1 1713.1,1022.9 L 1713.1,1022.9 1704.1,1042.3 1694.7,1061.6 1684.7,1080.5 1674.3,1099.1 1663.4,1117.2 1652.0,1134.7 1640.1,1151.6 1627.8,1167.8 1615.0,1183.1 1601.8,1197.6 1588.2,1211.1 1574.1,1223.6 1559.7,1235.1 1544.9,1245.5 1529.7,1254.8 1514.2,1262.9 1498.4,1269.8 1482.3,1275.5 1465.9,1279.9 1449.2,1283.2 1432.3,1285.2 1415.3,1285.9 1398.0,1285.4 1380.6,1283.7 1363.1,1280.8 1345.4,1276.7 1327.7,1271.5 1310.0,1265.1 1292.3,1257.7 1274.7,1249.2 1257.1,1239.8 1239.6,1229.4 1222.3,1218.2 1205.2,1206.2 1188.3,1193.5 1171.6,1180.2 1155.3,1166.4 1139.4,1152.1 1123.8,1137.4  A 522.500,522.500 0.00 0,1 1147.7,1114.1 L 1147.7,1114.1 1162.1,1129.6 1176.9,1144.7 1192.0,1159.4 1207.5,1173.5 1223.1,1187.0 1239.0,1199.9 1255.1,1211.9 1271.2,1223.0 1287.5,1233.2 1303.8,1242.4 1320.2,1250.6 1336.5,1257.6 1352.8,1263.5 1369.0,1268.2 1385.2,1271.6 1401.1,1273.8 1416.9,1274.7 1432.6,1274.4 1448.0,1272.7 1463.1,1269.8 1478.0,1265.5 1492.6,1260.0 1506.9,1253.2 1520.9,1245.2 1534.6,1236.0 1547.9,1225.6 1560.8,1214.0 1573.3,1201.4 1585.4,1187.7 1597.1,1173.0 1608.3,1157.5 1619.2,1141.1 1629.5,1123.9 1639.5,1106.1 1648.9,1087.7 1657.9,1068.8 1666.5,1049.5 1674.5,1030.0 1682.1,1010.3  Z" style="stroke-width: 0.5;  stroke: rgb(0,0,0); fill: rgb(179,177,178);" />
<path d="M 1527.921,978.247 A 522.500,522.500 0.00 0,1 1559.3,980.9 L 1559.3,980.9 1556.8,1001.1 1554.0,1021.3 1550.9,1041.1 1547.5,1060.6 1543.7,1079.6 1539.5,1097.9 1535.0,1115.5 1530.2,1132.3 1525.0,1148.1 1519.4,1163.0 1513.4,1176.7 1507.1,1189.3 1500.4,1200.7 1493.4,1210.9 1486.0,1219.7 1478.3,1227.1 1470.3,1233.2 1461.9,1237.8 1453.3,1241.0 1444.3,1242.8 1435.1,1243.2 1425.6,1242.1 1415.8,1239.5 1405.9,1235.6 1395.7,1230.2 1385.3,1223.6 1374.8,1215.6 1364.2,1206.3 1353.4,1195.9 1342.6,1184.3 1331.7,1171.7 1320.8,1158.0 1310.0,1143.5 1299.1,1128.1 1288.4,1112.0 1277.8,1095.3 1267.3,1078.2 1257.1,1060.6 1247.0,1042.8  A 522.500,522.500 0.00 0,1 1274.6,1028.6 L 1274.6,1028.6 1283.5,1046.9 1292.5,1064.9 1301.8,1082.6 1311.1,1099.8 1320.5,1116.4 1330.0,1132.3 1339.5,1147.4 1348.9,1161.6 1358.3,1174.7 1367.7,1186.8 1376.9,1197.8 1386.0,1207.5 1394.9,1216.0 1403.7,1223.1 1412.2,1228.9 1420.6,1233.3 1428.7,1236.2 1436.5,1237.7 1444.1,1237.7 1451.3,1236.3 1458.3,1233.3 1465.0,1229.0 1471.4,1223.2 1477.4,1215.9 1483.1,1207.3 1488.4,1197.4 1493.5,1186.2 1498.1,1173.7 1502.5,1160.0 1506.5,1145.3 1510.1,1129.5 1513.4,1112.8 1516.4,1095.2 1519.1,1076.9 1521.4,1058.0 1523.5,1038.5 1525.2,1018.6 1526.7,998.5 1527.9,978.2  Z" style="stroke-width: 0.5;  stroke: rgb(0,0,0); fill: rgb(179,177,178);" />
<path d="M 1728.146,1970.059 A 522.500,522.500 0.00 0,1 1701.0,1982.3 L 1701.0,1982.3 1693.0,1963.5 1684.7,1944.9 1676.2,1926.6 1667.5,1908.9 1658.5,1891.7 1649.4,1875.2 1640.1,1859.5 1630.7,1844.7 1621.2,1830.9 1611.6,1818.2 1601.9,1806.6 1592.2,1796.2 1582.5,1787.1 1572.7,1779.2 1563.0,1772.8 1553.4,1767.7 1543.7,1764.1 1534.2,1761.9 1524.7,1761.1 1515.4,1761.8 1506.1,1764.0 1497.0,1767.6 1488.1,1772.7 1479.3,1779.2 1470.7,1787.1 1462.2,1796.3 1454.0,1806.8 1446.0,1818.5 1438.2,1831.5 1430.7,1845.5 1423.4,1860.6 1416.3,1876.7 1409.6,1893.6 1403.0,1911.3 1396.8,1929.6 1390.9,1948.5 1385.2,1967.8 1379.9,1987.5 1374.8,2007.3  A 522.500,522.500 0.00 0,1 1346.2,1999.3 L 1346.2,1999.3 1352.4,1979.7 1359.0,1960.3 1365.9,1941.2 1373.2,1922.5 1380.7,1904.4 1388.6,1886.9 1396.8,1870.1 1405.3,1854.3 1414.0,1839.3 1423.1,1825.4 1432.3,1812.6 1441.9,1801.0 1451.6,1790.5 1461.6,1781.4 1471.8,1773.5 1482.1,1767.1 1492.6,1762.0 1503.3,1758.3 1514.1,1756.0 1525.1,1755.2 1536.1,1755.7 1547.2,1757.8 1558.4,1761.2 1569.6,1766.0 1580.9,1772.2 1592.1,1779.8 1603.3,1788.6 1614.5,1798.6 1625.7,1809.9 1636.7,1822.3 1647.6,1835.7 1658.4,1850.1 1669.1,1865.4 1679.5,1881.4 1689.8,1898.2 1699.8,1915.6 1709.5,1933.4 1719.0,1951.6 1728.1,1970.1  Z" style="stroke-width: 0.5;  stroke: rgb(0,0,0); fill: rgb(179,177,178);" />
<path d="M 1758.161,1954.268 A 522.500,522.500 0.00 0,1 1732.2,1968.0 L 1732.2,1968.0 1722.9,1949.7 1713.3,1931.5 1703.3,1913.8 1693.1,1896.5 1682.7,1879.8 1672.0,1863.7 1661.2,1848.5 1650.2,1834.2 1639.0,1820.8 1627.8,1808.5 1616.4,1797.3 1605.0,1787.3 1593.5,1778.5 1582.0,1771.1 1570.6,1764.9 1559.1,1760.1 1547.7,1756.7 1536.3,1754.7 1525.0,1754.1 1513.9,1755.0 1502.8,1757.3 1491.9,1761.0 1481.1,1766.1 1470.5,1772.5 1460.1,1780.4 1449.9,1789.5 1439.9,1799.9 1430.1,1811.6 1420.6,1824.4 1411.4,1838.2 1402.4,1853.1 1393.7,1869.0 1385.3,1885.7 1377.1,1903.1 1369.4,1921.2 1361.9,1939.9 1354.8,1958.9 1348.0,1978.3 1341.6,1997.9  A 522.500,522.500 0.00 0,1 1313.3,1988.0 L 1313.3,1988.0 1320.9,1968.7 1328.9,1949.6 1337.3,1930.7 1346.0,1912.4 1355.1,1894.5 1364.6,1877.4 1374.4,1860.9 1384.5,1845.3 1394.9,1830.6 1405.6,1817.0 1416.6,1804.4 1427.9,1792.9 1439.4,1782.6 1451.1,1773.5 1463.0,1765.8 1475.1,1759.3 1487.4,1754.2 1499.8,1750.5 1512.4,1748.1 1525.1,1747.2 1537.9,1747.6 1550.8,1749.4 1563.7,1752.6 1576.6,1757.2 1589.6,1763.0 1602.6,1770.2 1615.5,1778.7 1628.3,1788.3 1641.1,1799.1 1653.7,1811.0 1666.2,1824.0 1678.6,1837.9 1690.7,1852.6 1702.7,1868.2 1714.4,1884.4 1725.8,1901.3 1736.9,1918.6 1747.7,1936.3 1758.2,1954.3  Z" style="stroke-width: 0.5;  stroke: rgb(0,0,0); fill: rgb(179,177,178);" />
<path d="M 2021.733,1528.296 A 522.500,522.500 0.00 0,1 2019.4,1556.7 L 2019.4,1556.7 1993.6,1553.9 1967.7,1551.3 1941.7,1548.9 1915.5,1546.5 1889.3,1544.4 1862.9,1542.4 1836.4,1540.6 1809.9,1539.0 1783.3,1537.5 1756.6,1536.2 1729.9,1535.2 1703.1,1534.3 1676.2,1533.6 1649.3,1533.1 1622.4,1532.9 1595.4,1532.8 1568.5,1533.0 1541.5,1533.3 1514.5,1533.9 1487.5,1534.7 1460.5,1535.7 1433.6,1536.9 1406.6,1538.4 1379.7,1540.0 1352.9,1541.8 1326.1,1543.9 1299.3,1546.1 1272.6,1548.6 1246.0,1551.2 1219.4,1554.0 1192.9,1557.1 1166.5,1560.2 1140.2,1563.6 1114.0,1567.1 1087.9,1570.8 1062.0,1574.7 1036.1,1578.7 1010.4,1582.8 984.8,1587.0  A 522.500,522.500 0.00 0,1 980.8,1558.9 L 980.8,1558.9 1006.9,1556.0 1033.1,1553.1 1059.4,1550.4 1085.8,1547.7 1112.2,1545.2 1138.7,1542.7 1165.2,1540.3 1191.8,1538.1 1218.5,1535.9 1245.2,1533.9 1272.0,1532.0 1298.8,1530.2 1325.6,1528.5 1352.5,1527.0 1379.4,1525.5 1406.3,1524.2 1433.2,1523.0 1460.2,1522.0 1487.1,1521.1 1514.1,1520.3 1541.1,1519.6 1568.0,1519.1 1595.0,1518.7 1621.9,1518.4 1648.9,1518.2 1675.8,1518.2 1702.7,1518.3 1729.5,1518.5 1756.3,1518.9 1783.1,1519.3 1809.9,1519.9 1836.6,1520.6 1863.2,1521.4 1889.8,1522.3 1916.3,1523.3 1942.8,1524.4 1969.2,1525.6 1995.5,1526.9 2021.7,1528.3  Z" style="stroke-width: 0.5;  stroke: rgb(0,0,0); fill: rgb(179,177,178);" />
<path d="M 1713.066,1022.916 A 522.500,522.500 0.00 0,1 1737.8,1034.8 L 1737.8,1034.8 1727.8,1053.9 1717.2,1072.8 1706.1,1091.4 1694.5,1109.7 1682.4,1127.5 1669.8,1144.7 1656.8,1161.4 1643.3,1177.2 1629.3,1192.4 1614.9,1206.6 1600.0,1220.0 1584.8,1232.4 1569.2,1243.8 1553.2,1254.1 1536.8,1263.4 1520.1,1271.5 1503.1,1278.6 1485.8,1284.4 1468.2,1289.1 1450.4,1292.5 1432.3,1294.8 1414.1,1295.9 1395.7,1295.8 1377.2,1294.5 1358.5,1292.0 1339.8,1288.4 1321.0,1283.7 1302.2,1277.9 1283.5,1271.1 1264.8,1263.3 1246.1,1254.5 1227.6,1244.9 1209.3,1234.4 1191.2,1223.1 1173.3,1211.2 1155.7,1198.6 1138.4,1185.5 1121.5,1171.9 1105.0,1157.9  A 522.500,522.500 0.00 0,1 1123.1,1138.2 L 1123.1,1138.2 1138.6,1152.8 1154.6,1167.1 1171.0,1180.9 1187.7,1194.2 1204.6,1206.9 1221.8,1218.8 1239.1,1230.0 1256.6,1240.3 1274.2,1249.7 1291.9,1258.1 1309.6,1265.6 1327.4,1271.9 1345.1,1277.1 1362.7,1281.2 1380.3,1284.1 1397.7,1285.7 1415.0,1286.2 1432.1,1285.4 1449.0,1283.4 1465.7,1280.2 1482.1,1275.7 1498.3,1269.9 1514.1,1263.0 1529.6,1254.9 1544.8,1245.6 1559.6,1235.2 1574.1,1223.7 1588.1,1211.2 1601.8,1197.6 1615.0,1183.1 1627.8,1167.8 1640.1,1151.7 1652.0,1134.8 1663.4,1117.2 1674.3,1099.1 1684.7,1080.5 1694.7,1061.6 1704.1,1042.3 1713.1,1022.9  Z" style="stroke-width: 0.5;  stroke: rgb(0,0,0); fill: rgb(179,177,178);" />
<path d="M 1781.555,1940.151 A 522.500,522.500 0.00 0,1 1758.2,1954.3 L 1758.2,1954.3 1747.7,1936.3 1736.9,1918.6 1725.8,1901.3 1714.4,1884.4 1702.7,1868.2 1690.7,1852.6 1678.5,1837.8 1666.2,1823.9 1653.7,1811.0 1641.0,1799.1 1628.2,1788.3 1615.4,1778.6 1602.4,1770.2 1589.5,1763.0 1576.5,1757.1 1563.5,1752.5 1550.6,1749.3 1537.7,1747.5 1524.9,1747.1 1512.2,1748.0 1499.5,1750.3 1487.1,1754.1 1474.7,1759.2 1462.6,1765.6 1450.6,1773.4 1438.9,1782.4 1427.4,1792.7 1416.1,1804.1 1405.1,1816.7 1394.3,1830.4 1383.9,1845.1 1373.7,1860.6 1363.9,1877.1 1354.4,1894.2 1345.2,1912.0 1336.4,1930.4 1328.0,1949.2 1319.9,1968.3 1312.3,1987.6  A 522.500,522.500 0.00 0,1 1287.1,1977.1 L 1287.1,1977.1 1295.8,1958.1 1304.9,1939.3 1314.5,1920.8 1324.5,1902.7 1334.8,1885.2 1345.6,1868.3 1356.6,1852.2 1368.0,1836.9 1379.8,1822.4 1391.8,1809.0 1404.1,1796.6 1416.7,1785.3 1429.6,1775.2 1442.7,1766.2 1456.0,1758.6 1469.5,1752.2 1483.2,1747.1 1497.0,1743.3 1510.9,1740.9 1525.0,1739.9 1539.2,1740.2 1553.4,1741.8 1567.7,1744.8 1582.0,1749.1 1596.3,1754.8 1610.6,1761.6 1624.8,1769.7 1638.9,1779.0 1652.9,1789.5 1666.9,1801.0 1680.6,1813.5 1694.2,1826.9 1707.5,1841.2 1720.6,1856.3 1733.5,1872.1 1746.0,1888.5 1758.2,1905.4 1770.1,1922.6 1781.6,1940.2  Z" style="stroke-width: 0.5;  stroke: rgb(0,0,0); fill: rgb(179,177,178);" />
<path d="M 1952.611,1761.055 A 522.500,522.500 0.00 0,1 1938.4,1784.3 L 1938.4,1784.3 1918.9,1771.9 1899.0,1759.9 1878.7,1748.3 1857.9,1737.1 1836.8,1726.5 1815.4,1716.4 1793.6,1706.9 1771.5,1698.0 1749.2,1689.8 1726.7,1682.3 1703.9,1675.6 1681.0,1669.6 1657.9,1664.4 1634.7,1660.1 1611.4,1656.6 1588.0,1654.0 1564.5,1652.2 1541.0,1651.4 1517.5,1651.4 1494.1,1652.3 1470.6,1654.0 1447.3,1656.7 1424.0,1660.3 1400.9,1664.7 1377.9,1669.9 1355.1,1676.0 1332.5,1682.9 1310.0,1690.6 1287.9,1699.1 1266.0,1708.2 1244.3,1718.1 1223.0,1728.6 1202.1,1739.8 1181.4,1751.5 1161.2,1763.7 1141.4,1776.5 1122.0,1789.6 1103.0,1803.1 1084.5,1816.8  A 522.500,522.500 0.00 0,1 1068.6,1794.8 L 1068.6,1794.8 1088.0,1781.8 1107.9,1769.2 1128.2,1756.8 1148.9,1744.9 1170.0,1733.4 1191.4,1722.4 1213.2,1712.0 1235.3,1702.1 1257.8,1692.9 1280.4,1684.3 1303.4,1676.3 1326.6,1669.1 1349.9,1662.6 1373.5,1656.9 1397.2,1651.9 1421.1,1647.8 1445.1,1644.4 1469.1,1641.8 1493.2,1640.1 1517.4,1639.2 1541.6,1639.1 1565.8,1639.8 1590.0,1641.3 1614.1,1643.7 1638.1,1646.8 1662.0,1650.7 1685.8,1655.4 1709.5,1660.8 1733.0,1667.0 1756.2,1673.8 1779.3,1681.3 1802.1,1689.5 1824.6,1698.2 1846.9,1707.6 1868.8,1717.4 1890.3,1727.7 1911.5,1738.5 1932.3,1749.6 1952.6,1761.1  Z" style="stroke-width: 0.5;  stroke: rgb(0,0,0); fill: rgb(179,177,178);" />
<path d="M 1860.601,1121.882 A 522.500,522.500 0.00 0,1 1878.6,1139.9 L 1878.6,1139.9 1861.7,1155.7 1844.2,1171.3 1826.3,1186.5 1807.8,1201.4 1789.0,1215.9 1769.7,1230.0 1749.9,1243.5 1729.8,1256.5 1709.3,1268.9 1688.4,1280.6 1667.2,1291.7 1645.6,1302.1 1623.7,1311.7 1601.6,1320.6 1579.1,1328.7 1556.5,1336.0 1533.6,1342.5 1510.4,1348.2 1487.2,1353.0 1463.7,1357.0 1440.1,1360.1 1416.4,1362.4 1392.7,1363.8 1368.9,1364.4 1345.0,1364.1 1321.2,1363.0 1297.3,1361.1 1273.5,1358.4 1249.8,1354.9 1226.2,1350.7 1202.8,1345.8 1179.5,1340.2 1156.4,1333.9 1133.6,1327.0 1111.0,1319.5 1088.7,1311.5 1066.7,1303.0 1045.1,1294.1 1023.9,1284.8  A 522.500,522.500 0.00 0,1 1034.9,1261.9 L 1034.9,1261.9 1055.4,1272.1 1076.3,1281.9 1097.6,1291.3 1119.2,1300.1 1141.2,1308.5 1163.4,1316.2 1185.8,1323.2 1208.4,1329.6 1231.2,1335.3 1254.2,1340.1 1277.3,1344.2 1300.4,1347.5 1323.6,1349.9 1346.8,1351.5 1370.0,1352.2 1393.2,1352.0 1416.3,1350.8 1439.3,1348.8 1462.2,1345.9 1484.9,1342.0 1507.5,1337.2 1529.9,1331.6 1552.1,1325.0 1574.0,1317.6 1595.7,1309.3 1617.1,1300.2 1638.2,1290.2 1659.0,1279.5 1679.4,1268.1 1699.4,1255.9 1719.1,1243.0 1738.4,1229.6 1757.2,1215.5 1775.7,1200.9 1793.6,1185.8 1811.1,1170.3 1828.1,1154.4 1844.6,1138.3 1860.6,1121.9  Z" style="stroke-width: 0.5;  stroke: rgb(0,0,0); fill: rgb(179,177,178);" />
<path d="M 1936.868,1786.622 A 522.500,522.500 0.00 0,1 1922.4,1807.5 L 1922.4,1807.5 1903.8,1794.3 1884.8,1781.5 1865.4,1769.0 1845.5,1757.0 1825.3,1745.5 1804.7,1734.6 1783.8,1724.3 1762.6,1714.7 1741.1,1705.8 1719.3,1697.7 1697.4,1690.4 1675.3,1683.9 1653.0,1678.2 1630.6,1673.4 1608.0,1669.6 1585.4,1666.6 1562.8,1664.6 1540.1,1663.5 1517.4,1663.4 1494.7,1664.2 1472.1,1666.0 1449.5,1668.8 1427.0,1672.4 1404.7,1677.0 1382.5,1682.6 1360.5,1689.0 1338.7,1696.2 1317.1,1704.4 1295.8,1713.3 1274.7,1723.0 1253.9,1733.5 1233.5,1744.6 1213.4,1756.4 1193.7,1768.8 1174.3,1781.7 1155.4,1795.1 1136.9,1809.0 1118.9,1823.2 1101.3,1837.8  A 522.500,522.500 0.00 0,1 1085.4,1818.0 L 1085.4,1818.0 1103.8,1804.2 1122.7,1790.7 1142.1,1777.5 1161.9,1764.8 1182.1,1752.5 1202.6,1740.7 1223.5,1729.6 1244.8,1719.0 1266.4,1709.1 1288.2,1699.9 1310.3,1691.5 1332.7,1683.8 1355.3,1676.9 1378.0,1670.8 1401.0,1665.5 1424.1,1661.1 1447.3,1657.6 1470.6,1654.9 1493.9,1653.2 1517.3,1652.3 1540.8,1652.4 1564.2,1653.3 1587.6,1655.1 1610.9,1657.8 1634.2,1661.3 1657.4,1665.7 1680.4,1671.0 1703.2,1677.0 1725.9,1683.8 1748.4,1691.4 1770.6,1699.6 1792.6,1708.6 1814.3,1718.2 1835.7,1728.4 1856.7,1739.1 1877.4,1750.4 1897.6,1762.1 1917.5,1774.2 1936.9,1786.6  Z" style="stroke-width: 0.5;  stroke: rgb(0,0,0); fill: rgb(179,177,178);" />
<path d="M 1740.946,1036.372 A 522.500,522.500 0.00 0,1 1763.1,1048.5 L 1763.1,1048.5 1751.8,1067.3 1740.1,1085.8 1727.8,1104.1 1715.0,1121.9 1701.8,1139.3 1688.0,1156.2 1673.7,1172.4 1659.0,1188.0 1643.9,1202.8 1628.3,1216.8 1612.2,1229.9 1595.8,1242.1 1579.0,1253.3 1561.8,1263.5 1544.3,1272.7 1526.5,1280.8 1508.3,1287.8 1489.9,1293.7 1471.2,1298.5 1452.3,1302.1 1433.2,1304.6 1413.9,1305.9 1394.4,1306.1 1374.8,1305.1 1355.2,1303.1 1335.4,1299.9 1315.7,1295.7 1295.9,1290.5 1276.2,1284.2 1256.5,1277.0 1236.9,1268.8 1217.5,1259.8 1198.3,1250.0 1179.3,1239.4 1160.5,1228.1 1142.0,1216.2 1123.9,1203.8 1106.1,1190.9 1088.8,1177.7  A 522.500,522.500 0.00 0,1 1105.1,1157.9 L 1105.1,1157.9 1121.6,1171.9 1138.5,1185.5 1155.8,1198.6 1173.4,1211.2 1191.3,1223.2 1209.4,1234.4 1227.8,1244.9 1246.3,1254.6 1265.0,1263.4 1283.7,1271.3 1302.5,1278.1 1321.3,1283.9 1340.2,1288.6 1358.9,1292.3 1377.7,1294.7 1396.3,1296.1 1414.7,1296.2 1433.0,1295.2 1451.1,1293.0 1469.1,1289.5 1486.7,1284.9 1504.1,1279.1 1521.2,1272.2 1538.0,1264.1 1554.5,1254.9 1570.6,1244.6 1586.4,1233.3 1601.7,1220.9 1616.7,1207.6 1631.2,1193.4 1645.3,1178.4 1659.0,1162.5 1672.2,1146.0 1684.9,1128.8 1697.1,1111.1 1708.8,1092.9 1720.0,1074.3 1730.8,1055.4 1740.9,1036.4  Z" style="stroke-width: 0.5;  stroke: rgb(0,0,0); fill: rgb(179,177,178);" />
<path d="M 1966.992,1265.640 A 522.500,522.500 0.00 0,1 1977.1,1287.0 L 1977.1,1287.0 1953.9,1297.3 1930.5,1307.3 1906.8,1317.2 1882.8,1327.0 1858.7,1336.5 1834.3,1345.8 1809.7,1354.8 1784.9,1363.7 1760.0,1372.2 1734.9,1380.5 1709.5,1388.5 1684.1,1396.2 1658.5,1403.6 1632.7,1410.7 1606.9,1417.5 1580.9,1423.9 1554.8,1430.0 1528.6,1435.8 1502.3,1441.3 1475.9,1446.4 1449.5,1451.1 1423.1,1455.5 1396.6,1459.6 1370.1,1463.3 1343.5,1466.7 1317.0,1469.7 1290.5,1472.4 1264.0,1474.8 1237.5,1476.8 1211.1,1478.5 1184.8,1479.9 1158.5,1481.0 1132.3,1481.7 1106.2,1482.2 1080.3,1482.4 1054.4,1482.3 1028.7,1481.9 1003.2,1481.3 977.9,1480.5  A 522.500,522.500 0.00 0,1 979.3,1456.7 L 979.3,1456.7 1004.3,1458.7 1029.5,1460.3 1054.9,1461.7 1080.5,1462.8 1106.2,1463.6 1132.1,1464.0 1158.1,1464.1 1184.2,1463.8 1210.4,1463.2 1236.6,1462.2 1263.0,1460.8 1289.3,1459.0 1315.7,1456.8 1342.1,1454.2 1368.5,1451.2 1394.9,1447.8 1421.3,1444.0 1447.6,1439.7 1473.9,1435.1 1500.0,1430.0 1526.1,1424.5 1552.1,1418.6 1578.0,1412.4 1603.8,1405.7 1629.4,1398.6 1654.9,1391.2 1680.2,1383.4 1705.3,1375.2 1730.2,1366.7 1755.0,1357.8 1779.5,1348.6 1803.8,1339.2 1827.9,1329.4 1851.8,1319.3 1875.4,1309.0 1898.7,1298.5 1921.7,1287.7 1944.5,1276.8 1967.0,1265.6  Z" style="stroke-width: 0.5;  stroke: rgb(0,0,0); fill: rgb(179,177,178);" />
<path d="M 1587.997,984.963 A 522.500,522.500 0.00 0,1 1610.6,989.3 L 1610.6,989.3 1606.1,1009.5 1601.1,1029.5 1595.7,1049.3 1590.0,1068.7 1583.8,1087.5 1577.2,1105.8 1570.3,1123.3 1562.9,1140.1 1555.1,1155.9 1546.9,1170.8 1538.3,1184.7 1529.3,1197.4 1520.0,1209.0 1510.2,1219.4 1500.1,1228.5 1489.7,1236.2 1478.9,1242.7 1467.8,1247.8 1456.4,1251.5 1444.7,1253.9 1432.8,1254.8 1420.6,1254.4 1408.1,1252.5 1395.5,1249.4 1382.7,1244.8 1369.7,1239.0 1356.6,1231.9 1343.5,1223.6 1330.2,1214.1 1316.9,1203.5 1303.6,1191.9 1290.4,1179.3 1277.2,1165.7 1264.1,1151.4 1251.2,1136.4 1238.4,1120.7 1225.9,1104.5 1213.6,1087.9 1201.6,1071.1  A 522.500,522.500 0.00 0,1 1220.8,1058.4 L 1220.8,1058.4 1231.9,1075.6 1243.3,1092.6 1255.0,1109.3 1266.8,1125.4 1278.8,1140.9 1291.0,1155.7 1303.2,1169.7 1315.4,1182.8 1327.7,1194.9 1339.9,1205.9 1352.1,1215.8 1364.2,1224.5 1376.2,1232.0 1388.0,1238.2 1399.7,1243.1 1411.2,1246.6 1422.5,1248.7 1433.5,1249.4 1444.3,1248.7 1454.8,1246.6 1465.1,1243.1 1475.0,1238.2 1484.6,1231.9 1493.8,1224.3 1502.7,1215.3 1511.3,1205.0 1519.5,1193.5 1527.3,1180.8 1534.7,1167.0 1541.8,1152.1 1548.5,1136.2 1554.7,1119.4 1560.6,1101.8 1566.1,1083.5 1571.3,1064.6 1576.0,1045.1 1580.4,1025.3 1584.4,1005.2 1588.0,985.0  Z" style="stroke-width: 0.5;  stroke: rgb(0,0,0); fill: rgb(179,177,178);" />
<path d="M 1568.075,981.954 A 522.500,522.500 0.00 0,1 1587.0,984.8 L 1587.0,984.8 1583.4,1005.0 1579.4,1025.1 1575.1,1044.9 1570.4,1064.4 1565.4,1083.3 1559.9,1101.6 1554.1,1119.2 1547.8,1136.0 1541.2,1151.9 1534.2,1166.8 1526.8,1180.6 1519.1,1193.3 1510.9,1204.8 1502.4,1215.1 1493.6,1224.0 1484.4,1231.7 1474.9,1238.0 1465.0,1242.9 1454.9,1246.4 1444.4,1248.5 1433.7,1249.1 1422.7,1248.4 1411.5,1246.2 1400.1,1242.7 1388.4,1237.8 1376.7,1231.6 1364.7,1224.1 1352.7,1215.3 1340.6,1205.4 1328.4,1194.3 1316.2,1182.2 1304.0,1169.1 1291.9,1155.1 1279.8,1140.3 1267.9,1124.7 1256.1,1108.6 1244.5,1091.9 1233.1,1074.9 1222.1,1057.6  A 522.500,522.500 0.00 0,1 1238.3,1047.8 L 1238.3,1047.8 1248.7,1065.4 1259.3,1082.8 1270.2,1099.8 1281.2,1116.3 1292.4,1132.2 1303.6,1147.3 1314.9,1161.7 1326.3,1175.2 1337.6,1187.6 1348.9,1199.1 1360.1,1209.3 1371.2,1218.4 1382.2,1226.2 1393.0,1232.7 1403.7,1237.9 1414.2,1241.7 1424.4,1244.1 1434.4,1245.1 1444.1,1244.6 1453.6,1242.8 1462.7,1239.4 1471.6,1234.7 1480.1,1228.6 1488.3,1221.0 1496.2,1212.2 1503.7,1202.0 1510.8,1190.5 1517.6,1177.9 1524.0,1164.1 1530.1,1149.2 1535.8,1133.4 1541.1,1116.6 1546.0,1099.0 1550.6,1080.6 1554.8,1061.7 1558.6,1042.2 1562.1,1022.3 1565.2,1002.2 1568.1,982.0  Z" style="stroke-width: 0.5;  stroke: rgb(0,0,0); fill: rgb(179,177,178);" />
<path d="M 1919.236,1811.845 A 522.500,522.500 0.00 0,1 1908.9,1825.3 L 1908.9,1825.3 1891.1,1811.5 1872.8,1798.0 1854.1,1784.9 1835.0,1772.2 1815.5,1760.2 1795.6,1748.7 1775.4,1737.8 1754.9,1727.7 1734.2,1718.3 1713.1,1709.7 1691.9,1701.9 1670.5,1695.0 1648.9,1689.0 1627.2,1683.9 1605.4,1679.8 1583.5,1676.6 1561.5,1674.4 1539.5,1673.2 1517.6,1673.1 1495.6,1673.9 1473.7,1675.7 1451.8,1678.6 1430.1,1682.4 1408.5,1687.2 1387.1,1693.0 1365.8,1699.7 1344.7,1707.3 1323.9,1715.8 1303.3,1725.2 1283.0,1735.3 1263.0,1746.3 1243.3,1758.0 1224.0,1770.3 1205.1,1783.3 1186.6,1796.8 1168.4,1810.8 1150.8,1825.3 1133.6,1840.1 1116.9,1855.3  A 522.500,522.500 0.00 0,1 1105.5,1842.7 L 1105.5,1842.7 1122.9,1828.0 1140.7,1813.6 1158.9,1799.5 1177.6,1785.9 1196.8,1772.8 1216.3,1760.2 1236.2,1748.3 1256.4,1737.0 1277.0,1726.4 1297.8,1716.6 1319.0,1707.5 1340.4,1699.3 1362.0,1691.9 1383.8,1685.4 1405.8,1679.8 1428.0,1675.1 1450.2,1671.4 1472.6,1668.6 1495.0,1666.8 1517.5,1665.9 1540.1,1666.0 1562.6,1667.1 1585.1,1669.1 1607.5,1672.1 1629.9,1676.1 1652.1,1680.9 1674.2,1686.6 1696.2,1693.2 1717.9,1700.7 1739.5,1708.9 1760.8,1717.9 1781.8,1727.6 1802.6,1738.1 1823.0,1749.1 1843.1,1760.7 1862.8,1772.9 1882.0,1785.5 1900.9,1798.5 1919.2,1811.8  Z" style="stroke-width: 0.5;  stroke: rgb(0,0,0); fill: rgb(179,177,178);" />
<path d="M 1618.351,991.080 A 522.500,522.500 0.00 0,1 1634.3,995.1 L 1634.3,995.1 1628.8,1015.1 1622.8,1035.0 1616.4,1054.6 1609.6,1073.9 1602.4,1092.6 1594.7,1110.8 1586.6,1128.2 1578.1,1144.9 1569.2,1160.6 1559.9,1175.5 1550.1,1189.3 1540.0,1202.0 1529.5,1213.5 1518.6,1223.9 1507.4,1233.0 1495.8,1240.9 1483.9,1247.4 1471.7,1252.6 1459.2,1256.5 1446.4,1259.0 1433.3,1260.1 1420.0,1259.9 1406.5,1258.3 1392.9,1255.3 1379.0,1251.1 1365.0,1245.6 1351.0,1238.8 1336.8,1230.8 1322.6,1221.7 1308.4,1211.5 1294.2,1200.2 1280.1,1188.0 1266.0,1174.9 1252.1,1160.9 1238.3,1146.3 1224.8,1131.0 1211.5,1115.2 1198.5,1099.0 1185.8,1082.5  A 522.500,522.500 0.00 0,1 1199.0,1072.9 L 1199.0,1072.9 1211.1,1089.7 1223.5,1106.2 1236.2,1122.4 1249.1,1138.0 1262.2,1153.0 1275.5,1167.2 1288.8,1180.7 1302.3,1193.3 1315.7,1204.9 1329.2,1215.4 1342.7,1224.9 1356.1,1233.1 1369.4,1240.2 1382.6,1246.0 1395.7,1250.5 1408.6,1253.6 1421.3,1255.4 1433.7,1255.9 1446.0,1254.9 1457.9,1252.6 1469.6,1248.9 1481.0,1243.8 1492.1,1237.3 1502.9,1229.6 1513.3,1220.5 1523.4,1210.2 1533.0,1198.6 1542.4,1185.9 1551.3,1172.1 1559.8,1157.3 1567.9,1141.4 1575.7,1124.7 1583.0,1107.2 1589.9,1089.0 1596.4,1070.2 1602.5,1050.9 1608.2,1031.2 1613.5,1011.2 1618.4,991.1  Z" style="stroke-width: 0.5;  stroke: rgb(0,0,0); fill: rgb(179,177,178);" />
<path d="M 1801.895,1073.543 A 522.500,522.500 0.00 0,1 1814.6,1082.8 L 1814.6,1082.8 1801.0,1100.5 1786.8,1117.9 1772.1,1135.0 1756.9,1151.7 1741.3,1168.0 1725.1,1183.8 1708.5,1198.9 1691.4,1213.4 1673.9,1227.3 1656.0,1240.3 1637.7,1252.5 1619.1,1263.9 1600.1,1274.4 1580.7,1284.0 1561.1,1292.6 1541.1,1300.2 1520.9,1306.8 1500.5,1312.4 1479.8,1317.0 1459.0,1320.5 1438.0,1323.0 1416.8,1324.4 1395.6,1324.8 1374.2,1324.1 1352.9,1322.4 1331.5,1319.7 1310.0,1316.1 1288.7,1311.4 1267.4,1305.9 1246.2,1299.4 1225.2,1292.1 1204.3,1284.0 1183.6,1275.1 1163.2,1265.6 1143.0,1255.3 1123.2,1244.5 1103.7,1233.2 1084.6,1221.4 1065.9,1209.2  A 522.500,522.500 0.00 0,1 1074.8,1196.3 L 1074.8,1196.3 1093.0,1209.0 1111.6,1221.3 1130.6,1233.1 1149.9,1244.4 1169.6,1255.1 1189.5,1265.1 1209.7,1274.4 1230.1,1282.9 1250.6,1290.6 1271.3,1297.5 1292.1,1303.4 1313.0,1308.3 1333.9,1312.3 1354.7,1315.3 1375.6,1317.2 1396.4,1318.1 1417.1,1317.9 1437.7,1316.6 1458.2,1314.3 1478.5,1310.9 1498.6,1306.4 1518.5,1300.8 1538.1,1294.2 1557.5,1286.5 1576.5,1277.8 1595.3,1268.2 1613.7,1257.5 1631.8,1246.0 1649.5,1233.6 1666.8,1220.4 1683.7,1206.3 1700.1,1191.6 1716.1,1176.2 1731.7,1160.1 1746.7,1143.6 1761.3,1126.6 1775.3,1109.2 1788.9,1091.5 1801.9,1073.5  Z" style="stroke-width: 0.5;  stroke: rgb(0,0,0); fill: rgb(179,177,178);" />
<path d="M 1512.729,977.655 A 522.500,522.500 0.00 0,1 1528.3,978.3 L 1528.3,978.3 1527.1,998.5 1525.6,1018.7 1523.8,1038.5 1521.7,1058.0 1519.4,1076.9 1516.7,1095.2 1513.7,1112.8 1510.4,1129.5 1506.7,1145.3 1502.7,1160.0 1498.4,1173.7 1493.7,1186.1 1488.7,1197.4 1483.3,1207.3 1477.6,1215.9 1471.6,1223.1 1465.2,1228.9 1458.6,1233.3 1451.6,1236.2 1444.3,1237.6 1436.8,1237.6 1428.9,1236.1 1420.9,1233.2 1412.5,1228.8 1404.0,1223.0 1395.2,1215.8 1386.3,1207.4 1377.3,1197.6 1368.0,1186.7 1358.7,1174.5 1349.3,1161.4 1339.9,1147.2 1330.5,1132.1 1321.0,1116.2 1311.6,1099.5 1302.3,1082.3 1293.1,1064.6 1284.1,1046.6 1275.2,1028.3  A 522.500,522.500 0.00 0,1 1289.5,1021.8 L 1289.5,1021.8 1297.7,1040.3 1306.2,1058.5 1314.7,1076.5 1323.4,1093.9 1332.1,1110.8 1340.9,1127.0 1349.6,1142.3 1358.3,1156.7 1366.9,1170.2 1375.5,1182.5 1383.9,1193.7 1392.2,1203.7 1400.3,1212.4 1408.2,1219.8 1415.9,1225.8 1423.4,1230.4 1430.7,1233.5 1437.7,1235.2 1444.4,1235.4 1450.8,1234.2 1456.9,1231.4 1462.7,1227.2 1468.2,1221.5 1473.4,1214.4 1478.3,1206.0 1482.8,1196.1 1487.0,1185.0 1490.8,1172.6 1494.4,1159.0 1497.6,1144.4 1500.4,1128.6 1503.0,1112.0 1505.2,1094.5 1507.2,1076.2 1508.8,1057.3 1510.2,1037.8 1511.3,1018.0 1512.1,997.9 1512.7,977.7  Z" style="stroke-width: 0.5;  stroke: rgb(0,0,0); fill: rgb(179,177,178);" />
<path d="M 1959.947,1252.099 A 522.500,522.500 0.00 0,1 1966.6,1264.9 L 1966.6,1264.9 1944.2,1276.1 1921.4,1287.1 1898.4,1297.9 1875.1,1308.4 1851.5,1318.8 1827.7,1328.9 1803.6,1338.7 1779.3,1348.2 1754.8,1357.4 1730.1,1366.3 1705.1,1374.8 1680.0,1383.0 1654.7,1390.9 1629.3,1398.3 1603.6,1405.4 1577.9,1412.1 1552.0,1418.4 1526.0,1424.3 1499.9,1429.8 1473.8,1434.9 1447.5,1439.6 1421.2,1443.8 1394.9,1447.7 1368.5,1451.1 1342.1,1454.1 1315.7,1456.7 1289.3,1458.9 1262.9,1460.7 1236.6,1462.1 1210.3,1463.1 1184.2,1463.8 1158.1,1464.1 1132.1,1464.0 1106.2,1463.5 1080.5,1462.8 1054.9,1461.7 1029.5,1460.3 1004.3,1458.6 979.3,1456.7  A 522.500,522.500 0.00 0,1 980.7,1442.4 L 980.7,1442.4 1005.5,1445.0 1030.5,1447.3 1055.7,1449.3 1081.0,1451.0 1106.6,1452.3 1132.3,1453.3 1158.2,1453.9 1184.1,1454.1 1210.2,1453.9 1236.3,1453.3 1262.5,1452.2 1288.8,1450.8 1315.1,1448.9 1341.4,1446.5 1367.7,1443.7 1393.9,1440.5 1420.2,1436.8 1446.4,1432.6 1472.5,1428.0 1498.5,1423.0 1524.5,1417.5 1550.3,1411.5 1576.0,1405.1 1601.6,1398.3 1627.0,1391.0 1652.3,1383.3 1677.4,1375.3 1702.3,1366.8 1727.0,1357.9 1751.4,1348.7 1775.7,1339.1 1799.7,1329.2 1823.4,1319.0 1846.9,1308.4 1870.1,1297.6 1893.0,1286.6 1915.6,1275.3 1938.0,1263.8 1959.9,1252.1  Z" style="stroke-width: 0.5;  stroke: rgb(0,0,0); fill: rgb(179,177,178);" />
<path d="M 1764.591,1049.447 A 522.500,522.500 0.00 0,1 1775.8,1056.2 L 1775.8,1056.2 1764.0,1074.7 1751.7,1093.0 1738.8,1111.1 1725.4,1128.7 1711.5,1145.9 1697.2,1162.5 1682.3,1178.6 1667.0,1193.9 1651.2,1208.5 1635.0,1222.3 1618.4,1235.3 1601.4,1247.4 1584.0,1258.5 1566.2,1268.6 1548.1,1277.7 1529.7,1285.8 1511.0,1292.8 1492.0,1298.7 1472.8,1303.5 1453.3,1307.2 1433.7,1309.8 1413.8,1311.3 1393.9,1311.6 1373.8,1310.8 1353.6,1309.0 1333.4,1306.0 1313.1,1302.1 1292.9,1297.1 1272.6,1291.1 1252.5,1284.2 1232.5,1276.4 1212.6,1267.7 1192.9,1258.2 1173.4,1248.0 1154.2,1237.1 1135.3,1225.6 1116.7,1213.5 1098.5,1201.0 1080.8,1188.1  A 522.500,522.500 0.00 0,1 1088.8,1177.7 L 1088.8,1177.7 1106.1,1190.9 1123.9,1203.8 1142.0,1216.3 1160.5,1228.2 1179.3,1239.4 1198.3,1250.0 1217.6,1259.8 1237.0,1268.9 1256.6,1277.0 1276.3,1284.3 1296.0,1290.5 1315.8,1295.8 1335.6,1300.1 1355.4,1303.2 1375.1,1305.3 1394.7,1306.3 1414.2,1306.1 1433.5,1304.8 1452.7,1302.3 1471.6,1298.7 1490.4,1294.0 1508.8,1288.1 1527.0,1281.2 1544.9,1273.1 1562.5,1263.9 1579.7,1253.7 1596.6,1242.5 1613.1,1230.4 1629.2,1217.3 1644.8,1203.4 1660.0,1188.6 1674.8,1173.1 1689.1,1156.9 1703.0,1140.1 1716.3,1122.7 1729.2,1104.9 1741.5,1086.6 1753.3,1068.1 1764.6,1049.4  Z" style="stroke-width: 0.5;  stroke: rgb(0,0,0); fill: rgb(179,177,178);" />
<path d="M 1500.000,977.500 A 522.500,522.500 0.00 0,1 1510.1,977.6 L 1510.1,977.6 1509.6,997.8 1508.8,1017.9 1507.9,1037.8 1506.6,1057.2 1505.1,1076.1 1503.3,1094.4 1501.1,1111.9 1498.7,1128.5 1496.0,1144.3 1492.9,1158.9 1489.5,1172.5 1485.7,1184.9 1481.7,1196.0 1477.3,1205.8 1472.6,1214.3 1467.5,1221.4 1462.1,1227.0 1456.4,1231.2 1450.4,1233.9 1444.1,1235.2 1437.5,1235.0 1430.7,1233.3 1423.5,1230.1 1416.2,1225.5 1408.6,1219.5 1400.7,1212.1 1392.7,1203.3 1384.6,1193.3 1376.2,1182.1 1367.8,1169.7 1359.2,1156.2 1350.6,1141.8 1342.0,1126.4 1333.3,1110.2 1324.7,1093.3 1316.1,1075.9 1307.6,1057.9 1299.2,1039.6 1291.0,1021.1  A 522.500,522.500 0.00 0,1 1302.3,1016.3 L 1302.3,1016.3 1310.1,1035.0 1317.9,1053.5 1325.9,1071.6 1334.0,1089.3 1342.1,1106.3 1350.3,1122.7 1358.4,1138.3 1366.4,1152.9 1374.4,1166.6 1382.3,1179.1 1390.0,1190.5 1397.6,1200.7 1405.0,1209.6 1412.2,1217.2 1419.2,1223.4 1426.0,1228.2 1432.5,1231.5 1438.7,1233.3 1444.7,1233.7 1450.4,1232.6 1455.8,1230.0 1460.9,1225.9 1465.7,1220.4 1470.1,1213.4 1474.3,1205.0 1478.1,1195.3 1481.6,1184.2 1484.7,1171.9 1487.6,1158.4 1490.1,1143.8 1492.3,1128.2 1494.2,1111.6 1495.9,1094.1 1497.2,1075.9 1498.2,1057.0 1499.0,1037.6 1499.6,1017.8 1499.9,997.7 1500.0,977.5  Z" style="stroke-width: 0.5;  stroke: rgb(0,0,0); fill: rgb(179,177,178);" />
<path d="M 1683.673,1989.153 A 522.500,522.500 0.00 0,1 1672.5,1993.2 L 1672.5,1993.2 1665.7,1974.1 1658.6,1955.2 1651.4,1936.6 1644.0,1918.5 1636.4,1900.9 1628.8,1884.1 1621.0,1868.1 1613.1,1852.9 1605.2,1838.8 1597.2,1825.7 1589.3,1813.8 1581.3,1803.2 1573.3,1793.8 1565.4,1785.7 1557.5,1779.1 1549.7,1773.8 1541.9,1770.0 1534.3,1767.7 1526.7,1766.8 1519.3,1767.4 1512.0,1769.6 1504.9,1773.2 1497.9,1778.3 1491.1,1784.8 1484.4,1792.7 1478.0,1802.0 1471.8,1812.6 1465.7,1824.5 1459.9,1837.6 1454.3,1851.8 1448.9,1867.1 1443.7,1883.3 1438.8,1900.4 1434.1,1918.3 1429.7,1936.9 1425.5,1956.0 1421.5,1975.6 1417.8,1995.4 1414.4,2015.4  A 522.500,522.500 0.00 0,1 1411.5,2015.0 L 1411.5,2015.0 1415.1,1994.9 1418.9,1975.1 1423.0,1955.5 1427.4,1936.4 1432.0,1917.8 1436.9,1899.9 1442.0,1882.8 1447.4,1866.5 1453.0,1851.2 1458.9,1836.9 1465.0,1823.8 1471.3,1811.9 1477.9,1801.2 1484.6,1791.8 1491.6,1783.8 1498.8,1777.3 1506.1,1772.1 1513.6,1768.4 1521.3,1766.2 1529.1,1765.4 1537.1,1766.2 1545.1,1768.4 1553.3,1772.1 1561.6,1777.2 1569.9,1783.8 1578.3,1791.7 1586.8,1800.9 1595.2,1811.4 1603.7,1823.2 1612.1,1836.1 1620.5,1850.1 1628.9,1865.0 1637.1,1880.9 1645.3,1897.6 1653.3,1915.0 1661.2,1933.0 1668.9,1951.4 1676.4,1970.2 1683.7,1989.2  Z" style="stroke-width: 0.5;  stroke: rgb(0,0,0); fill: rgb(179,177,178);" />
<path d="M 1789.663,1934.858 A 522.500,522.500 0.00 0,1 1781.2,1940.3 L 1781.2,1940.3 1769.8,1922.8 1757.9,1905.6 1745.7,1888.7 1733.2,1872.3 1720.4,1856.5 1707.3,1841.4 1693.9,1827.1 1680.4,1813.6 1666.6,1801.1 1652.7,1789.6 1638.7,1779.1 1624.6,1769.8 1610.3,1761.7 1596.1,1754.8 1581.8,1749.2 1567.5,1744.8 1553.2,1741.8 1538.9,1740.2 1524.8,1739.8 1510.7,1740.9 1496.7,1743.3 1482.9,1747.0 1469.2,1752.1 1455.7,1758.5 1442.4,1766.1 1429.3,1775.1 1416.4,1785.2 1403.8,1796.5 1391.4,1808.8 1379.4,1822.3 1367.6,1836.7 1356.2,1852.0 1345.1,1868.1 1334.3,1885.0 1324.0,1902.5 1314.0,1920.5 1304.4,1939.0 1295.2,1957.8 1286.4,1976.9  A 522.500,522.500 0.00 0,1 1277.3,1972.7 L 1277.3,1972.7 1286.5,1953.8 1296.1,1935.1 1306.1,1916.7 1316.5,1898.8 1327.3,1881.4 1338.5,1864.6 1350.0,1848.6 1361.9,1833.4 1374.1,1819.1 1386.7,1805.8 1399.5,1793.5 1412.6,1782.3 1425.9,1772.2 1439.5,1763.3 1453.3,1755.7 1467.3,1749.3 1481.5,1744.3 1495.8,1740.5 1510.3,1738.1 1524.8,1737.0 1539.5,1737.3 1554.2,1738.9 1568.9,1741.8 1583.7,1746.1 1598.5,1751.6 1613.2,1758.4 1627.9,1766.4 1642.5,1775.5 1657.0,1785.8 1671.3,1797.2 1685.5,1809.5 1699.5,1822.8 1713.3,1837.0 1726.8,1851.9 1740.1,1867.5 1753.0,1883.7 1765.6,1900.4 1777.8,1917.5 1789.7,1934.9  Z" style="stroke-width: 0.5;  stroke: rgb(0,0,0); fill: rgb(179,177,178);" />
<path d="M 2000.229,1349.079 A 522.500,522.500 0.00 0,1 2002.7,1357.6 L 2002.7,1357.6 1977.4,1364.7 1952.0,1371.8 1926.5,1378.7 1901.0,1385.7 1875.3,1392.5 1849.6,1399.2 1823.8,1405.9 1797.9,1412.4 1771.9,1418.9 1745.9,1425.2 1719.8,1431.5 1693.7,1437.6 1667.5,1443.6 1641.2,1449.5 1614.9,1455.3 1588.6,1461.0 1562.2,1466.6 1535.8,1472.0 1509.3,1477.3 1482.8,1482.5 1456.3,1487.5 1429.8,1492.5 1403.3,1497.3 1376.7,1501.9 1350.2,1506.5 1323.6,1510.9 1297.1,1515.2 1270.6,1519.4 1244.1,1523.4 1217.6,1527.4 1191.1,1531.2 1164.6,1534.8 1138.2,1538.4 1111.8,1541.9 1085.5,1545.2 1059.2,1548.5 1033.0,1551.6 1006.8,1554.6 980.7,1557.6  A 522.500,522.500 0.00 0,1 979.8,1548.9 L 979.8,1548.9 1005.8,1546.4 1032.0,1543.8 1058.2,1541.0 1084.4,1538.2 1110.8,1535.2 1137.1,1532.1 1163.6,1528.8 1190.0,1525.4 1216.5,1521.9 1243.0,1518.2 1269.6,1514.4 1296.1,1510.4 1322.7,1506.3 1349.3,1502.0 1375.8,1497.6 1402.4,1493.0 1429.0,1488.3 1455.5,1483.4 1482.0,1478.3 1508.5,1473.2 1535.0,1467.8 1561.4,1462.3 1587.8,1456.7 1614.1,1450.9 1640.4,1445.0 1666.6,1438.9 1692.7,1432.7 1718.8,1426.4 1744.9,1419.9 1770.8,1413.3 1796.7,1406.6 1822.5,1399.8 1848.2,1392.8 1873.8,1385.8 1899.3,1378.6 1924.7,1371.4 1950.0,1364.0 1975.2,1356.6 2000.2,1349.1  Z" style="stroke-width: 0.5;  stroke: rgb(0,0,0); fill: rgb(179,177,178);" />
<path d="M 1954.995,1243.124 A 522.500,522.500 0.00 0,1 1959.3,1250.8 L 1959.3,1250.8 1937.4,1262.5 1915.2,1273.9 1892.8,1285.2 1869.9,1296.2 1846.8,1306.9 1823.4,1317.3 1799.8,1327.4 1775.8,1337.1 1751.7,1346.5 1727.2,1355.5 1702.6,1364.1 1677.7,1372.3 1652.7,1380.0 1627.5,1387.4 1602.1,1394.2 1576.5,1400.6 1550.8,1406.5 1525.0,1412.0 1499.1,1417.0 1473.1,1421.4 1447.0,1425.4 1420.8,1428.9 1394.6,1431.9 1368.4,1434.5 1342.2,1436.5 1316.0,1438.0 1289.8,1439.1 1263.6,1439.7 1237.5,1439.9 1211.5,1439.5 1185.6,1438.8 1159.7,1437.6 1134.1,1436.0 1108.5,1434.0 1083.2,1431.7 1058.0,1429.0 1033.1,1425.9 1008.3,1422.5 983.8,1418.8  A 522.500,522.500 0.00 0,1 985.3,1410.2 L 985.3,1410.2 1009.6,1414.2 1034.2,1418.0 1059.0,1421.4 1084.0,1424.5 1109.2,1427.2 1134.7,1429.5 1160.2,1431.4 1185.9,1432.9 1211.8,1433.9 1237.7,1434.5 1263.7,1434.5 1289.8,1434.1 1315.9,1433.2 1342.0,1431.9 1368.1,1430.0 1394.3,1427.6 1420.4,1424.6 1446.4,1421.2 1472.4,1417.3 1498.3,1412.8 1524.1,1407.8 1549.8,1402.3 1575.4,1396.4 1600.8,1389.9 1626.1,1382.9 1651.2,1375.5 1676.1,1367.6 1700.8,1359.2 1725.3,1350.5 1749.5,1341.3 1773.5,1331.7 1797.2,1321.7 1820.7,1311.3 1843.9,1300.7 1866.8,1289.7 1889.3,1278.4 1911.6,1266.9 1933.4,1255.1 1955.0,1243.1  Z" style="stroke-width: 0.5;  stroke: rgb(0,0,0); fill: rgb(179,177,178);" />
<path d="M 1950.054,1234.562 A 522.500,522.500 0.00 0,1 1954.3,1241.9 L 1954.3,1241.9 1932.8,1253.9 1910.9,1265.7 1888.7,1277.3 1866.2,1288.6 1843.4,1299.7 1820.2,1310.4 1796.8,1320.8 1773.1,1330.8 1749.1,1340.4 1724.9,1349.7 1700.5,1358.5 1675.8,1366.9 1650.9,1374.8 1625.9,1382.3 1600.6,1389.2 1575.2,1395.7 1549.7,1401.7 1524.0,1407.2 1498.2,1412.2 1472.3,1416.7 1446.3,1420.7 1420.3,1424.1 1394.2,1427.0 1368.1,1429.4 1341.9,1431.3 1315.8,1432.7 1289.7,1433.5 1263.7,1433.9 1237.7,1433.8 1211.8,1433.2 1186.0,1432.2 1160.3,1430.7 1134.7,1428.8 1109.3,1426.5 1084.1,1423.7 1059.1,1420.6 1034.3,1417.1 1009.7,1413.3 985.4,1409.2  A 522.500,522.500 0.00 0,1 987.0,1401.0 L 987.0,1401.0 1011.1,1405.5 1035.5,1409.6 1060.1,1413.4 1085.0,1416.9 1110.1,1419.9 1135.4,1422.6 1160.8,1424.8 1186.4,1426.6 1212.1,1427.9 1237.9,1428.7 1263.8,1429.0 1289.8,1428.8 1315.8,1428.1 1341.8,1426.9 1367.8,1425.1 1393.8,1422.8 1419.8,1420.0 1445.8,1416.6 1471.6,1412.7 1497.4,1408.3 1523.1,1403.3 1548.7,1397.7 1574.1,1391.7 1599.4,1385.1 1624.5,1378.0 1649.4,1370.5 1674.2,1362.4 1698.7,1353.9 1722.9,1344.9 1747.0,1335.4 1770.8,1325.6 1794.3,1315.3 1817.5,1304.7 1840.4,1293.7 1863.0,1282.4 1885.3,1270.9 1907.2,1259.0 1928.8,1246.9 1950.1,1234.6  Z" style="stroke-width: 0.5;  stroke: rgb(0,0,0); fill: rgb(179,177,178);" />
</g>
<g id="plot0">
<g id="plot0-axis">
</g>
<line x1='2243.8' y1='1596.3' x2='2243.8' y2='1596.3' style="stroke-width:14.0;stroke:rgb(0,0,0);stroke-linecap:round;fill:none;" />
<line x1='2243.8' y1='1596.3' x2='2283.5' y2='1601.4' style="stroke-width:14.0;stroke:rgb(0,0,0);stroke-linecap:round;fill:none;" />
<line x1='2283.5' y1='1601.4' x2='2283.5' y2='1601.4' style="stroke-width:14.0;stroke:rgb(0,0,0);stroke-linecap:round;fill:none;" />
<text x="2300.2" y="1625.7" font-size="46.8px" font-family="CMUBright-Roman" style="text-anchor:start;fill:rgb(255,38,78);" transform="rotate(7.4,2300.2,1625.7)" >Histocap136P07<tspan baseline-shift="-40%" font-size="90%">s</tspan>01787</text>
</g>
<defs>
<pattern id="hline" width="10" height="10" patternTransform="rotate(0 0 0)" patternUnits="userSpaceOnUse"><line x1="0" y1="0" x2="10" y2="0" style="stroke:black;stroke-width:5" /></pattern>
<pattern id="checker" width="10" height="10" patternTransform="rotate(45 0 0)" patternUnits="userSpaceOnUse"><line x1="0" y1="0" x2="10" y2="0" style="stroke:black;stroke-width:5" /><line x1="0" y1="0" x2="0" y2="10" style="stroke:black;stroke-width:4" /></pattern>
<pattern id="vline-sparse" width="10" height="10" patternTransform="rotate(0 0 0)" patternUnits="userSpaceOnUse"><line x1="0" y1="0" x2="0" y2="10" style="stroke:black;stroke-width:2" /></pattern>
<pattern id="checker" width="10" height="10" patternTransform="rotate(45 0 0)" patternUnits="userSpaceOnUse"><line x1="0" y1="0" x2="10" y2="0" style="stroke:black;stroke-width:2" /><line x1="0" y1="0" x2="0" y2="10" style="stroke:black;stroke-width:2" /></pattern>
<pattern id="hline-sparse" width="10" height="10" patternTransform="rotate(0 0 0)" patternUnits="userSpaceOnUse"><line x1="0" y1="0" x2="10" y2="0" style="stroke:black;stroke-width:2" /></pattern>
<pattern id="vline" width="10" height="10" patternTransform="rotate(0 0 0)" patternUnits="userSpaceOnUse"><line x1="0" y1="0" x2="0" y2="10" style="stroke:black;stroke-width:5" /></pattern>
</defs>
</svg>
