<?xml version="1.0" encoding="utf-8" standalone="no"?>
<!DOCTYPE svg PUBLIC "-//W3C//DTD SVG 1.1//EN" "http://www.w3.org/Graphics/SVG/1.1/DTD/svg11.dtd">
<svg width="3000px" height="3000px" version="1.1" xmlns="http://www.w3.org/2000/svg" xmlns:xlink="http://www.w3.org/1999/xlink">
<g id="bg">
<rect x="0" y="0" width="3000px" height="3000px" style="fill:rgb(255,255,255);"/>
</g>
<g id="ideograms">
<path d="M1500.000,950.000 A550.000,550.000 40.000 0,1 1708.111,2009.107 L1783.787,2194.237 A750.000,750.000 0.000 0,0 1500.000,750.000 Z" style="stroke-width:2.0;stroke:rgb(0,0,0);stroke-linecap:round;fill:rgb(179,177,178);" />
<text x="2456.7" y="1312.0" font-size="46.8px" font-family="CMUBright-Roman" style="text-anchor:middle;fill:rgb(0,0,0);" transform="rotate(438.9,2456.7,1312.0)" >HistocapCB065<tspan baseline-shift="-40%" font-size="90%">5</tspan></text>
<line x1='1574.8' y1='753.7' x2='1576.0' y2='741.8' style="stroke-width:8.0;stroke:rgb(150,150,150);stroke-linecap:round;fill:none;" />
<text x="1591.1" y="731.4" font-size="41.6px" font-family="CMUBright-Roman" style="text-anchor:start;fill:rgb(150,150,150);" transform="rotate(275.7,1591.1,731.4)" >1100 kb</text>
<line x1='1675.1' y1='770.7' x2='1677.9' y2='759.1' style="stroke-width:8.0;stroke:rgb(150,150,150);stroke-linecap:round;fill:none;" />
<line x1='1772.2' y1='801.1' x2='1776.5' y2='789.9' style="stroke-width:8.0;stroke:rgb(150,150,150);stroke-linecap:round;fill:none;" />
<line x1='1864.2' y1='844.4' x2='1870.0' y2='833.9' style="stroke-width:8.0;stroke:rgb(150,150,150);stroke-linecap:round;fill:none;" />
<line x1='1949.6' y1='899.7' x2='1956.7' y2='890.1' style="stroke-width:8.0;stroke:rgb(150,150,150);stroke-linecap:round;fill:none;" />
<line x1='2026.6' y1='966.0' x2='2035.1' y2='957.5' style="stroke-width:8.0;stroke:rgb(150,150,150);stroke-linecap:round;fill:none;" />
<text x="2053.4" y="958.8" font-size="41.6px" font-family="CMUBright-Roman" style="text-anchor:start;fill:rgb(150,150,150);" transform="rotate(314.6,2053.4,958.8)" >1150 kb</text>
<line x1='2094.0' y1='1042.2' x2='2103.5' y2='1034.8' style="stroke-width:8.0;stroke:rgb(150,150,150);stroke-linecap:round;fill:none;" />
<line x1='2150.5' y1='1126.7' x2='2160.9' y2='1120.8' style="stroke-width:8.0;stroke:rgb(150,150,150);stroke-linecap:round;fill:none;" />
<line x1='2195.0' y1='1218.2' x2='2206.2' y2='1213.7' style="stroke-width:8.0;stroke:rgb(150,150,150);stroke-linecap:round;fill:none;" />
<line x1='2226.8' y1='1314.8' x2='2238.4' y2='1311.8' style="stroke-width:8.0;stroke:rgb(150,150,150);stroke-linecap:round;fill:none;" />
<line x1='2245.1' y1='1414.8' x2='2257.1' y2='1413.5' style="stroke-width:8.0;stroke:rgb(150,150,150);stroke-linecap:round;fill:none;" />
<text x="2270.5" y="1426.0" font-size="41.6px" font-family="CMUBright-Roman" style="text-anchor:start;fill:rgb(150,150,150);" transform="rotate(353.5,2270.5,1426.0)" >1200 kb</text>
<line x1='2249.8' y1='1516.4' x2='2261.8' y2='1516.7' style="stroke-width:8.0;stroke:rgb(150,150,150);stroke-linecap:round;fill:none;" />
<line x1='2240.7' y1='1617.7' x2='2252.6' y2='1619.6' style="stroke-width:8.0;stroke:rgb(150,150,150);stroke-linecap:round;fill:none;" />
<line x1='2218.0' y1='1716.8' x2='2229.5' y2='1720.3' style="stroke-width:8.0;stroke:rgb(150,150,150);stroke-linecap:round;fill:none;" />
<line x1='2182.0' y1='1812.0' x2='2193.0' y2='1817.0' style="stroke-width:8.0;stroke:rgb(150,150,150);stroke-linecap:round;fill:none;" />
<line x1='2133.6' y1='1901.4' x2='2143.7' y2='1907.8' style="stroke-width:8.0;stroke:rgb(150,150,150);stroke-linecap:round;fill:none;" />
<text x="2146.2" y="1926.0" font-size="41.6px" font-family="CMUBright-Roman" style="text-anchor:start;fill:rgb(150,150,150);" transform="rotate(32.4,2146.2,1926.0)" >1250 kb</text>
<line x1='2073.4' y1='1983.4' x2='2082.6' y2='1991.1' style="stroke-width:8.0;stroke:rgb(150,150,150);stroke-linecap:round;fill:none;" />
<line x1='2002.8' y1='2056.5' x2='2010.8' y2='2065.4' style="stroke-width:8.0;stroke:rgb(150,150,150);stroke-linecap:round;fill:none;" />
<line x1='1922.9' y1='2119.4' x2='1929.6' y2='2129.3' style="stroke-width:8.0;stroke:rgb(150,150,150);stroke-linecap:round;fill:none;" />
<line x1='1835.2' y1='2170.9' x2='1840.5' y2='2181.7' style="stroke-width:8.0;stroke:rgb(150,150,150);stroke-linecap:round;fill:none;" />
<g id="highlighttrack_0">
<path d="M2037.481,1383.320 A550.000,550.000 40.000 0,1 2041.668,1404.631 L2238.639,1369.951 A750.000,750.000 0.000 0,0 2232.929,1340.891 Z" style="stroke-width:14.0;stroke:rgb(0,0,0);stroke-linecap:round;fill:rgb(255,38,78);" />
</g>
<path d="M1500.000,950.000 A550.000,550.000 40.000 0,1 1708.111,2009.107 L1783.787,2194.237 A750.000,750.000 0.000 0,0 1500.000,750.000 Z" style="stroke-width:2.0;stroke:rgb(0,0,0);stroke-linecap:round;fill:none;" />
<path d="M1489.518,2049.900 A550.000,550.000 40.000 0,1 1282.224,994.952 L1203.033,811.298 A750.000,750.000 0.000 0,0 1485.706,2249.864 Z" style="stroke-width:2.0;stroke:rgb(0,0,0);stroke-linecap:round;fill:rgb(179,177,178);" />
<text x="499.1" y="1696.7" font-size="46.8px" font-family="CMUBright-Roman" style="text-anchor:middle;fill:rgb(0,0,0);" transform="rotate(78.9,499.1,1696.7)" >HistocapCB168<tspan baseline-shift="-40%" font-size="90%">5</tspan></text>
<line x1='1182.3' y1='820.6' x2='1177.2' y2='809.8' style="stroke-width:8.0;stroke:rgb(150,150,150);stroke-linecap:round;fill:none;" />
<line x1='1093.3' y1='869.9' x2='1086.8' y2='859.8' style="stroke-width:8.0;stroke:rgb(150,150,150);stroke-linecap:round;fill:none;" />
<line x1='1011.8' y1='930.7' x2='1004.0' y2='921.6' style="stroke-width:8.0;stroke:rgb(150,150,150);stroke-linecap:round;fill:none;" />
<line x1='939.2' y1='1002.0' x2='930.3' y2='994.0' style="stroke-width:8.0;stroke:rgb(150,150,150);stroke-linecap:round;fill:none;" />
<line x1='877.0' y1='1082.4' x2='867.0' y2='1075.7' style="stroke-width:8.0;stroke:rgb(150,150,150);stroke-linecap:round;fill:none;" />
<text x="849.4" y="1080.7" font-size="41.6px" font-family="CMUBright-Roman" style="text-anchor:end;fill:rgb(150,150,150);" transform="rotate(33.8,849.4,1080.7)" >1100 kb</text>
<line x1='826.2' y1='1170.5' x2='815.5' y2='1165.2' style="stroke-width:8.0;stroke:rgb(150,150,150);stroke-linecap:round;fill:none;" />
<line x1='787.9' y1='1264.7' x2='776.5' y2='1260.9' style="stroke-width:8.0;stroke:rgb(150,150,150);stroke-linecap:round;fill:none;" />
<line x1='762.6' y1='1363.2' x2='750.8' y2='1361.0' style="stroke-width:8.0;stroke:rgb(150,150,150);stroke-linecap:round;fill:none;" />
<line x1='750.9' y1='1464.2' x2='738.9' y2='1463.6' style="stroke-width:8.0;stroke:rgb(150,150,150);stroke-linecap:round;fill:none;" />
<line x1='752.9' y1='1565.9' x2='740.9' y2='1567.0' style="stroke-width:8.0;stroke:rgb(150,150,150);stroke-linecap:round;fill:none;" />
<text x="730.3" y="1581.9" font-size="41.6px" font-family="CMUBright-Roman" style="text-anchor:end;fill:rgb(150,150,150);" transform="rotate(-5.0,730.3,1581.9)" >1150 kb</text>
<line x1='768.7' y1='1666.4' x2='757.0' y2='1669.0' style="stroke-width:8.0;stroke:rgb(150,150,150);stroke-linecap:round;fill:none;" />
<line x1='797.9' y1='1763.8' x2='786.7' y2='1768.0' style="stroke-width:8.0;stroke:rgb(150,150,150);stroke-linecap:round;fill:none;" />
<line x1='840.1' y1='1856.3' x2='829.5' y2='1862.0' style="stroke-width:8.0;stroke:rgb(150,150,150);stroke-linecap:round;fill:none;" />
<line x1='894.3' y1='1942.3' x2='884.6' y2='1949.4' style="stroke-width:8.0;stroke:rgb(150,150,150);stroke-linecap:round;fill:none;" />
<line x1='959.7' y1='2020.2' x2='951.1' y2='2028.5' style="stroke-width:8.0;stroke:rgb(150,150,150);stroke-linecap:round;fill:none;" />
<text x="952.3" y="2046.9" font-size="41.6px" font-family="CMUBright-Roman" style="text-anchor:end;fill:rgb(150,150,150);" transform="rotate(-43.9,952.3,2046.9)" >1200 kb</text>
<line x1='1035.1' y1='2088.5' x2='1027.6' y2='2097.9' style="stroke-width:8.0;stroke:rgb(150,150,150);stroke-linecap:round;fill:none;" />
<line x1='1119.0' y1='2146.0' x2='1112.9' y2='2156.3' style="stroke-width:8.0;stroke:rgb(150,150,150);stroke-linecap:round;fill:none;" />
<line x1='1209.9' y1='2191.6' x2='1205.2' y2='2202.7' style="stroke-width:8.0;stroke:rgb(150,150,150);stroke-linecap:round;fill:none;" />
<line x1='1306.1' y1='2224.5' x2='1303.0' y2='2236.1' style="stroke-width:8.0;stroke:rgb(150,150,150);stroke-linecap:round;fill:none;" />
<line x1='1405.9' y1='2244.1' x2='1404.4' y2='2256.0' style="stroke-width:8.0;stroke:rgb(150,150,150);stroke-linecap:round;fill:none;" />
<text x="1416.8" y="2269.5" font-size="41.6px" font-family="CMUBright-Roman" style="text-anchor:end;fill:rgb(150,150,150);" transform="rotate(-82.8,1416.8,2269.5)" >1250 kb</text>
<path d="M1489.518,2049.900 A550.000,550.000 40.000 0,1 1282.224,994.952 L1203.033,811.298 A750.000,750.000 0.000 0,0 1485.706,2249.864 Z" style="stroke-width:2.0;stroke:rgb(0,0,0);stroke-linecap:round;fill:none;" />
</g>
<g id="track_0">
<path d="M 2014.585,1409.399 A 522.500,522.500 0.00 0,1 2003.6,1639.2 L 2003.6,1639.2 1980.4,1633.0 1957.0,1627.2 1933.2,1621.8 1909.1,1616.8 1884.8,1612.2 1860.3,1608.2 1835.6,1604.7 1810.7,1601.7 1785.7,1599.3 1760.6,1597.4 1735.4,1596.2 1710.1,1595.6 1684.8,1595.6 1659.5,1596.3 1634.2,1597.6 1608.9,1599.6 1583.6,1602.3 1558.4,1605.6 1533.4,1609.6 1508.4,1614.2 1483.6,1619.5 1458.9,1625.5 1434.4,1632.2 1410.1,1639.4 1386.0,1647.3 1362.1,1655.8 1338.5,1664.9 1315.1,1674.6 1292.1,1684.9 1269.3,1695.6 1246.9,1706.9 1224.7,1718.7 1203.0,1730.9 1181.6,1743.5 1160.5,1756.5 1139.9,1769.8 1119.7,1783.4 1099.9,1797.4 1080.5,1811.5  A 522.500,522.500 0.00 0,1 987.4,1601.1 L 987.4,1601.1 1013.6,1595.9 1039.8,1590.8 1066.1,1585.6 1092.4,1580.5 1118.6,1575.4 1144.9,1570.2 1171.2,1565.1 1197.5,1560.0 1223.8,1555.0 1250.1,1549.9 1276.5,1544.8 1302.8,1539.8 1329.1,1534.8 1355.5,1529.8 1381.8,1524.8 1408.2,1519.8 1434.5,1514.8 1460.9,1509.9 1487.3,1504.9 1513.6,1500.0 1540.0,1495.1 1566.4,1490.2 1592.8,1485.3 1619.2,1480.5 1645.5,1475.6 1671.9,1470.8 1698.3,1466.0 1724.7,1461.2 1751.1,1456.4 1777.4,1451.6 1803.8,1446.9 1830.2,1442.2 1856.5,1437.4 1882.9,1432.7 1909.2,1428.0 1935.6,1423.4 1961.9,1418.7 1988.3,1414.0 2014.6,1409.4  Z" style="stroke-width: 0.5;  stroke: rgb(0,0,0); fill: rgb(179,177,178);" />
<path d="M 1528.801,978.294 A 522.500,522.500 0.00 0,1 1690.5,1013.4 L 1690.5,1013.4 1682.4,1033.3 1673.8,1053.1 1664.7,1072.6 1655.1,1091.7 1645.0,1110.5 1634.3,1128.6 1623.1,1146.2 1611.4,1163.1 1599.3,1179.2 1586.6,1194.5 1573.4,1208.9 1559.8,1222.3 1545.7,1234.7 1531.1,1246.1 1516.1,1256.4 1500.7,1265.6 1484.9,1273.6 1468.8,1280.5 1452.2,1286.2 1435.4,1290.6 1418.2,1293.9 1400.8,1296.0 1383.1,1296.8 1365.2,1296.5 1347.0,1295.0 1328.8,1292.3 1310.3,1288.5 1291.8,1283.6 1273.3,1277.7 1254.7,1270.7 1236.1,1262.7 1217.6,1253.9 1199.2,1244.2 1180.9,1233.7 1162.8,1222.4 1144.9,1210.6 1127.4,1198.2 1110.1,1185.3 1093.3,1172.0  A 522.500,522.500 0.00 0,1 1216.2,1061.3 L 1216.2,1061.3 1227.4,1078.4 1238.9,1095.2 1250.5,1111.6 1262.3,1127.5 1274.1,1142.8 1286.0,1157.4 1297.9,1171.2 1309.8,1184.1 1321.6,1195.9 1333.2,1206.8 1344.8,1216.4 1356.1,1224.9 1367.2,1232.2 1378.1,1238.1 1388.7,1242.8 1399.1,1246.0 1409.1,1247.9 1418.8,1248.3 1428.1,1247.4 1437.1,1245.0 1445.7,1241.2 1453.9,1236.0 1461.6,1229.4 1469.0,1221.4 1475.9,1212.2 1482.4,1201.6 1488.5,1189.8 1494.1,1176.8 1499.3,1162.7 1504.1,1147.5 1508.4,1131.3 1512.3,1114.3 1515.8,1096.4 1518.9,1077.8 1521.6,1058.7 1524.0,1039.0 1525.9,1019.0 1527.5,998.7 1528.8,978.3  Z" style="stroke-width: 0.5;  stroke: rgb(0,0,0); fill: rgb(179,177,178);" />
<path d="M 1947.845,1769.149 A 522.500,522.500 0.00 0,1 1866.4,1872.5 L 1866.4,1872.5 1851.3,1857.5 1835.7,1842.8 1819.9,1828.6 1803.7,1814.9 1787.2,1801.8 1770.5,1789.4 1753.6,1777.8 1736.6,1767.1 1719.4,1757.2 1702.2,1748.4 1684.9,1740.6 1667.6,1733.9 1650.3,1728.3 1633.1,1723.9 1615.9,1720.6 1598.9,1718.6 1581.9,1717.8 1565.2,1718.3 1548.7,1720.0 1532.3,1723.0 1516.2,1727.2 1500.4,1732.7 1484.9,1739.4 1469.6,1747.4 1454.7,1756.4 1440.2,1766.7 1426.0,1778.0 1412.2,1790.4 1398.8,1803.9 1385.8,1818.2 1373.2,1833.5 1361.0,1849.6 1349.3,1866.4 1338.1,1883.9 1327.3,1901.9 1317.0,1920.5 1307.2,1939.4 1297.9,1958.6 1289.1,1978.0  A 522.500,522.500 0.00 0,1 1176.3,1910.2 L 1176.3,1910.2 1190.4,1892.7 1205.1,1875.4 1220.3,1858.5 1236.0,1841.9 1252.1,1825.7 1268.8,1810.1 1285.9,1795.0 1303.5,1780.5 1321.5,1766.8 1339.9,1753.7 1358.7,1741.4 1377.9,1730.0 1397.5,1719.4 1417.3,1709.7 1437.5,1700.9 1458.0,1693.0 1478.8,1686.1 1499.8,1680.2 1521.0,1675.3 1542.4,1671.4 1564.0,1668.5 1585.7,1666.6 1607.6,1665.7 1629.5,1665.8 1651.5,1666.9 1673.5,1668.9 1695.5,1671.9 1717.5,1675.9 1739.5,1680.7 1761.3,1686.4 1783.0,1692.9 1804.6,1700.2 1825.9,1708.2 1847.0,1717.0 1867.9,1726.4 1888.4,1736.3 1908.6,1746.8 1928.4,1757.8 1947.8,1769.1  Z" style="stroke-width: 0.5;  stroke: rgb(0,0,0); fill: rgb(179,177,178);" />
<path d="M 1955.515,1244.045 A 522.500,522.500 0.00 0,1 1997.7,1341.0 L 1997.7,1341.0 1972.8,1348.9 1947.8,1356.8 1922.6,1364.5 1897.3,1372.1 1872.0,1379.7 1846.5,1387.1 1820.9,1394.4 1795.2,1401.7 1769.5,1408.7 1743.6,1415.7 1717.7,1422.5 1691.7,1429.2 1665.6,1435.8 1639.5,1442.2 1613.3,1448.4 1587.0,1454.5 1560.7,1460.5 1534.4,1466.3 1508.0,1472.0 1481.5,1477.4 1455.1,1482.8 1428.6,1488.0 1402.1,1493.0 1375.6,1497.8 1349.0,1502.5 1322.5,1507.1 1296.0,1511.5 1269.5,1515.7 1243.0,1519.8 1216.5,1523.7 1190.0,1527.5 1163.6,1531.1 1137.2,1534.6 1110.9,1537.9 1084.6,1541.1 1058.4,1544.1 1032.2,1547.1 1006.2,1549.9 980.2,1552.6  A 522.500,522.500 0.00 0,1 980.2,1446.8 L 980.2,1446.8 1005.0,1449.2 1030.0,1451.3 1055.2,1453.0 1080.5,1454.5 1106.1,1455.6 1131.8,1456.3 1157.6,1456.6 1183.6,1456.6 1209.6,1456.1 1235.7,1455.2 1261.9,1453.9 1288.1,1452.2 1314.3,1450.0 1340.6,1447.3 1366.8,1444.2 1393.0,1440.7 1419.2,1436.7 1445.3,1432.2 1471.3,1427.3 1497.3,1421.9 1523.1,1416.0 1548.9,1409.7 1574.5,1403.0 1599.9,1395.8 1625.2,1388.2 1650.3,1380.1 1675.3,1371.7 1700.0,1362.8 1724.5,1353.6 1748.8,1344.0 1772.9,1334.1 1796.7,1323.8 1820.3,1313.2 1843.6,1302.3 1866.6,1291.1 1889.3,1279.6 1911.7,1268.0 1933.8,1256.1 1955.5,1244.0  Z" style="stroke-width: 0.5;  stroke: rgb(0,0,0); fill: rgb(179,177,178);" />
<path d="M 1986.797,1689.828 A 522.500,522.500 0.00 0,1 1948.7,1767.8 L 1948.7,1767.8 1929.2,1756.5 1909.4,1745.6 1889.1,1735.1 1868.5,1725.2 1847.6,1715.9 1826.5,1707.2 1805.1,1699.2 1783.5,1691.9 1761.8,1685.5 1739.9,1679.8 1717.9,1675.1 1695.9,1671.2 1673.8,1668.2 1651.7,1666.2 1629.7,1665.2 1607.7,1665.1 1585.9,1666.0 1564.1,1668.0 1542.5,1670.9 1521.0,1674.8 1499.8,1679.8 1478.7,1685.7 1457.9,1692.6 1437.4,1700.5 1417.2,1709.3 1397.3,1719.0 1377.7,1729.6 1358.5,1741.1 1339.7,1753.3 1321.2,1766.4 1303.2,1780.1 1285.6,1794.6 1268.4,1809.7 1251.7,1825.3 1235.5,1841.4 1219.8,1858.0 1204.6,1875.0 1189.9,1892.2 1175.7,1909.7  A 522.500,522.500 0.00 0,1 1112.4,1850.4 L 1112.4,1850.4 1129.9,1834.9 1147.9,1819.6 1166.4,1804.6 1185.3,1789.9 1204.7,1775.6 1224.5,1761.8 1244.7,1748.4 1265.3,1735.6 1286.3,1723.3 1307.7,1711.6 1329.3,1700.6 1351.4,1690.2 1373.7,1680.5 1396.3,1671.5 1419.2,1663.2 1442.3,1655.7 1465.7,1648.9 1489.2,1643.0 1512.9,1637.8 1536.8,1633.4 1560.9,1629.8 1585.0,1627.0 1609.2,1625.0 1633.5,1623.8 1657.8,1623.5 1682.2,1623.8 1706.5,1625.0 1730.8,1626.9 1755.0,1629.5 1779.1,1632.8 1803.1,1636.9 1826.9,1641.5 1850.6,1646.9 1874.0,1652.8 1897.2,1659.2 1920.1,1666.2 1942.7,1673.7 1964.9,1681.5 1986.8,1689.8  Z" style="stroke-width: 0.5;  stroke: rgb(0,0,0); fill: rgb(179,177,178);" />
<path d="M 1850.037,1112.082 A 522.500,522.500 0.00 0,1 1902.8,1167.2 L 1902.8,1167.2 1884.2,1182.2 1865.2,1197.1 1845.8,1211.7 1825.9,1226.0 1805.7,1239.9 1785.0,1253.5 1763.9,1266.7 1742.5,1279.4 1720.7,1291.7 1698.5,1303.4 1676.1,1314.6 1653.3,1325.3 1630.2,1335.4 1606.8,1344.8 1583.2,1353.7 1559.4,1361.9 1535.3,1369.4 1511.0,1376.3 1486.5,1382.5 1461.9,1388.1 1437.1,1392.9 1412.2,1397.1 1387.2,1400.6 1362.2,1403.4 1337.0,1405.5 1311.9,1406.9 1286.7,1407.7 1261.6,1407.8 1236.4,1407.3 1211.4,1406.2 1186.5,1404.4 1161.6,1402.1 1136.9,1399.2 1112.4,1395.8 1088.1,1391.9 1064.1,1387.4 1040.2,1382.6 1016.7,1377.3 993.5,1371.6  A 522.500,522.500 0.00 0,1 1017.6,1299.2 L 1017.6,1299.2 1039.0,1307.8 1060.7,1316.1 1082.8,1323.8 1105.2,1331.1 1127.9,1337.7 1150.8,1343.8 1173.9,1349.2 1197.2,1354.0 1220.6,1358.0 1244.1,1361.3 1267.6,1363.8 1291.3,1365.5 1314.9,1366.4 1338.5,1366.5 1362.0,1365.7 1385.5,1364.1 1408.8,1361.5 1432.1,1358.1 1455.1,1353.9 1478.0,1348.7 1500.7,1342.7 1523.1,1335.8 1545.3,1328.1 1567.2,1319.6 1588.9,1310.2 1610.1,1300.1 1631.1,1289.1 1651.7,1277.5 1671.9,1265.1 1691.8,1252.1 1711.2,1238.4 1730.2,1224.2 1748.8,1209.4 1766.9,1194.1 1784.5,1178.4 1801.6,1162.2 1818.3,1145.8 1834.4,1129.0 1850.0,1112.1  Z" style="stroke-width: 0.5;  stroke: rgb(0,0,0); fill: rgb(179,177,178);" />
<path d="M 1902.229,1166.506 A 522.500,522.500 0.00 0,1 1945.7,1227.3 L 1945.7,1227.3 1924.5,1240.1 1902.9,1252.7 1881.1,1265.1 1858.9,1277.2 1836.3,1289.1 1813.5,1300.7 1790.4,1312.1 1767.0,1323.0 1743.3,1333.7 1719.4,1343.9 1695.3,1353.8 1670.9,1363.2 1646.3,1372.3 1621.4,1380.9 1596.4,1389.1 1571.2,1396.8 1545.9,1404.1 1520.4,1410.8 1494.8,1417.1 1469.0,1423.0 1443.2,1428.3 1417.2,1433.2 1391.2,1437.6 1365.2,1441.4 1339.1,1444.8 1313.0,1447.7 1286.9,1450.2 1260.8,1452.2 1234.7,1453.7 1208.7,1454.7 1182.8,1455.3 1157.0,1455.5 1131.2,1455.2 1105.6,1454.6 1080.2,1453.6 1054.9,1452.1 1029.8,1450.4 1004.9,1448.3 980.3,1445.9  A 522.500,522.500 0.00 0,1 993.3,1372.3 L 993.3,1372.3 1016.6,1377.9 1040.1,1383.2 1063.9,1388.0 1088.0,1392.4 1112.3,1396.3 1136.8,1399.7 1161.5,1402.6 1186.3,1404.9 1211.3,1406.6 1236.3,1407.7 1261.4,1408.1 1286.6,1408.0 1311.7,1407.2 1336.9,1405.7 1362.0,1403.5 1387.1,1400.7 1412.1,1397.2 1437.0,1393.0 1461.7,1388.1 1486.3,1382.5 1510.8,1376.3 1535.1,1369.3 1559.1,1361.7 1583.0,1353.5 1606.6,1344.6 1629.9,1335.1 1653.0,1325.0 1675.7,1314.3 1698.2,1303.1 1720.3,1291.3 1742.1,1279.0 1763.5,1266.2 1784.6,1253.0 1805.2,1239.4 1825.5,1225.4 1845.3,1211.1 1864.7,1196.5 1883.7,1181.6 1902.2,1166.5  Z" style="stroke-width: 0.5;  stroke: rgb(0,0,0); fill: rgb(179,177,178);" />
<path d="M 1696.178,1015.727 A 522.500,522.500 0.00 0,1 1753.5,1043.1 L 1753.5,1043.1 1742.6,1062.2 1731.1,1081.2 1719.1,1100.0 1706.5,1118.3 1693.4,1136.3 1679.8,1153.8 1665.7,1170.7 1651.1,1186.9 1635.9,1202.5 1620.3,1217.3 1604.2,1231.3 1587.7,1244.5 1570.7,1256.7 1553.3,1268.0 1535.5,1278.3 1517.3,1287.7 1498.7,1296.0 1479.8,1303.2 1460.6,1309.4 1441.1,1314.5 1421.3,1318.5 1401.3,1321.4 1381.0,1323.3 1360.6,1324.0 1340.0,1323.7 1319.3,1322.4 1298.5,1320.0 1277.6,1316.7 1256.8,1312.3 1235.9,1307.0 1215.1,1300.9 1194.4,1293.8 1173.8,1286.0 1153.4,1277.4 1133.1,1268.2 1113.2,1258.3 1093.6,1247.8 1074.3,1236.9 1055.4,1225.5  A 522.500,522.500 0.00 0,1 1092.0,1173.6 L 1092.0,1173.6 1108.9,1186.9 1126.2,1199.7 1143.9,1212.1 1161.8,1223.9 1180.0,1235.1 1198.4,1245.5 1216.9,1255.2 1235.5,1264.0 1254.2,1271.9 1273.0,1278.8 1291.7,1284.8 1310.3,1289.6 1328.9,1293.4 1347.3,1296.1 1365.6,1297.6 1383.6,1297.9 1401.5,1297.1 1419.1,1295.0 1436.5,1291.8 1453.5,1287.3 1470.2,1281.7 1486.6,1274.8 1502.6,1266.8 1518.2,1257.7 1533.4,1247.4 1548.2,1236.1 1562.5,1223.7 1576.4,1210.4 1589.8,1196.0 1602.7,1180.8 1615.2,1164.8 1627.1,1148.0 1638.5,1130.5 1649.4,1112.4 1659.8,1093.7 1669.7,1074.7 1679.0,1055.2 1687.9,1035.5 1696.2,1015.7  Z" style="stroke-width: 0.5;  stroke: rgb(0,0,0); fill: rgb(179,177,178);" />
<path d="M 1998.393,1343.123 A 522.500,522.500 0.00 0,1 2010.6,1389.2 L 2010.6,1389.2 1984.5,1394.8 1958.3,1400.5 1932.2,1406.1 1906.0,1411.8 1879.9,1417.4 1853.7,1423.0 1827.5,1428.6 1801.3,1434.2 1775.1,1439.8 1748.9,1445.4 1722.7,1450.9 1696.4,1456.4 1670.2,1462.0 1643.9,1467.5 1617.7,1473.0 1591.4,1478.5 1565.2,1483.9 1538.9,1489.4 1512.6,1494.8 1486.4,1500.3 1460.1,1505.7 1433.8,1511.1 1407.5,1516.4 1381.2,1521.8 1355.0,1527.1 1328.7,1532.5 1302.4,1537.8 1276.1,1543.1 1249.8,1548.4 1223.5,1553.6 1197.3,1558.9 1171.0,1564.1 1144.7,1569.3 1118.5,1574.6 1092.2,1579.7 1066.0,1584.9 1039.7,1590.1 1013.5,1595.3 987.2,1600.4  A 522.500,522.500 0.00 0,1 980.2,1553.3 L 980.2,1553.3 1006.2,1550.6 1032.3,1547.7 1058.5,1544.8 1084.7,1541.7 1111.0,1538.5 1137.4,1535.1 1163.7,1531.6 1190.2,1528.0 1216.6,1524.2 1243.1,1520.3 1269.6,1516.2 1296.1,1512.0 1322.7,1507.6 1349.2,1503.1 1375.7,1498.4 1402.2,1493.5 1428.7,1488.6 1455.2,1483.4 1481.7,1478.1 1508.1,1472.6 1534.5,1467.0 1560.9,1461.3 1587.2,1455.4 1613.5,1449.3 1639.7,1443.1 1665.9,1436.8 1692.0,1430.3 1718.0,1423.7 1743.9,1416.9 1769.8,1410.0 1795.6,1403.0 1821.3,1395.9 1846.9,1388.6 1872.4,1381.3 1897.8,1373.8 1923.1,1366.3 1948.3,1358.7 1973.4,1350.9 1998.4,1343.1  Z" style="stroke-width: 0.5;  stroke: rgb(0,0,0); fill: rgb(179,177,178);" />
<path d="M 2003.423,1639.899 A 522.500,522.500 0.00 0,1 1989.9,1681.7 L 1989.9,1681.7 1967.8,1673.8 1945.3,1666.2 1922.5,1659.1 1899.4,1652.4 1876.1,1646.3 1852.4,1640.7 1828.6,1635.6 1804.6,1631.2 1780.4,1627.5 1756.2,1624.4 1731.8,1622.0 1707.3,1620.3 1682.8,1619.4 1658.3,1619.2 1633.8,1619.8 1609.4,1621.1 1585.0,1623.2 1560.7,1626.1 1536.5,1629.8 1512.4,1634.2 1488.5,1639.5 1464.8,1645.5 1441.2,1652.2 1417.9,1659.8 1394.8,1668.0 1372.0,1677.0 1349.5,1686.6 1327.3,1696.9 1305.4,1707.9 1283.8,1719.5 1262.6,1731.6 1241.7,1744.3 1221.3,1757.5 1201.3,1771.2 1181.6,1785.3 1162.5,1799.8 1143.7,1814.7 1125.5,1829.8 1107.7,1845.1  A 522.500,522.500 0.00 0,1 1080.1,1810.9 L 1080.1,1810.9 1099.4,1796.8 1119.3,1782.9 1139.5,1769.3 1160.2,1756.0 1181.2,1743.0 1202.6,1730.4 1224.4,1718.3 1246.6,1706.6 1269.0,1695.3 1291.8,1684.6 1314.9,1674.4 1338.3,1664.7 1361.9,1655.6 1385.8,1647.2 1409.9,1639.3 1434.2,1632.1 1458.7,1625.5 1483.4,1619.5 1508.2,1614.2 1533.2,1609.6 1558.3,1605.6 1583.5,1602.4 1608.7,1599.7 1634.0,1597.8 1659.4,1596.5 1684.7,1595.9 1710.0,1595.9 1735.3,1596.5 1760.5,1597.8 1785.6,1599.7 1810.6,1602.1 1835.5,1605.1 1860.2,1608.7 1884.7,1612.8 1909.0,1617.3 1933.0,1622.4 1956.8,1627.8 1980.3,1633.7 2003.4,1639.9  Z" style="stroke-width: 0.5;  stroke: rgb(0,0,0); fill: rgb(179,177,178);" />
<path d="M 1500.000,977.500 A 522.500,522.500 0.00 0,1 1528.1,978.3 L 1528.1,978.3 1526.8,998.6 1525.3,1018.9 1523.3,1038.9 1521.0,1058.6 1518.4,1077.8 1515.3,1096.3 1511.9,1114.2 1508.0,1131.3 1503.7,1147.4 1499.0,1162.6 1493.8,1176.7 1488.2,1189.7 1482.2,1201.5 1475.7,1212.1 1468.8,1221.4 1461.5,1229.3 1453.7,1235.9 1445.6,1241.1 1437.1,1244.9 1428.1,1247.2 1418.8,1248.2 1409.2,1247.7 1399.2,1245.8 1388.9,1242.6 1378.3,1237.9 1367.5,1232.0 1356.4,1224.7 1345.1,1216.2 1333.6,1206.5 1321.9,1195.7 1310.2,1183.8 1298.4,1170.9 1286.5,1157.1 1274.6,1142.5 1262.8,1127.1 1251.1,1111.2 1239.5,1094.8 1228.1,1077.9 1216.9,1060.9  A 522.500,522.500 0.00 0,1 1251.4,1040.4 L 1251.4,1040.4 1261.2,1058.2 1271.1,1075.8 1281.2,1093.0 1291.4,1109.7 1301.6,1125.8 1311.8,1141.2 1322.0,1155.8 1332.2,1169.5 1342.2,1182.2 1352.1,1193.8 1361.8,1204.3 1371.4,1213.6 1380.7,1221.6 1389.7,1228.3 1398.5,1233.6 1407.0,1237.5 1415.2,1240.1 1423.1,1241.2 1430.6,1240.8 1437.7,1239.0 1444.5,1235.7 1450.9,1231.0 1456.9,1224.9 1462.5,1217.4 1467.7,1208.5 1472.5,1198.3 1476.9,1186.9 1480.8,1174.2 1484.4,1160.3 1487.6,1145.4 1490.4,1129.4 1492.8,1112.6 1494.8,1094.9 1496.5,1076.5 1497.8,1057.4 1498.8,1037.9 1499.5,1018.0 1499.9,997.8 1500.0,977.5  Z" style="stroke-width: 0.5;  stroke: rgb(0,0,0); fill: rgb(179,177,178);" />
<path d="M 1770.538,1052.993 A 522.500,522.500 0.00 0,1 1797.0,1070.1 L 1797.0,1070.1 1784.0,1088.5 1770.4,1106.7 1756.3,1124.6 1741.7,1142.2 1726.5,1159.4 1710.9,1176.1 1694.7,1192.3 1678.1,1207.9 1661.0,1222.9 1643.4,1237.1 1625.3,1250.7 1606.9,1263.4 1588.0,1275.3 1568.7,1286.4 1549.1,1296.6 1529.1,1305.9 1508.7,1314.2 1488.1,1321.6 1467.2,1328.0 1446.0,1333.4 1424.5,1337.9 1402.9,1341.4 1381.0,1343.9 1359.0,1345.4 1336.9,1345.9 1314.7,1345.5 1292.4,1344.1 1270.1,1341.8 1247.8,1338.7 1225.5,1334.6 1203.3,1329.7 1181.2,1324.1 1159.2,1317.7 1137.4,1310.5 1115.9,1302.8 1094.6,1294.4 1073.6,1285.5 1053.0,1276.0 1032.7,1266.2  A 522.500,522.500 0.00 0,1 1047.7,1238.5 L 1047.7,1238.5 1067.0,1249.4 1086.8,1259.8 1106.9,1269.8 1127.3,1279.2 1147.9,1288.0 1168.8,1296.2 1189.9,1303.6 1211.1,1310.2 1232.4,1315.9 1253.8,1320.8 1275.2,1324.8 1296.6,1327.9 1318.0,1330.0 1339.2,1331.0 1360.4,1331.1 1381.4,1330.1 1402.2,1328.1 1422.9,1325.0 1443.3,1320.9 1463.5,1315.7 1483.3,1309.5 1502.9,1302.3 1522.1,1294.0 1541.0,1284.7 1559.5,1274.5 1577.7,1263.3 1595.4,1251.2 1612.7,1238.2 1629.5,1224.4 1645.9,1209.9 1661.8,1194.5 1677.2,1178.5 1692.1,1161.9 1706.5,1144.7 1720.4,1127.0 1733.7,1109.0 1746.5,1090.5 1758.8,1071.8 1770.5,1053.0  Z" style="stroke-width: 0.5;  stroke: rgb(0,0,0); fill: rgb(179,177,178);" />
<path d="M 1828.144,1093.395 A 522.500,522.500 0.00 0,1 1850.7,1112.7 L 1850.7,1112.7 1835.0,1129.6 1818.9,1146.3 1802.2,1162.7 1785.0,1178.8 1767.4,1194.6 1749.2,1209.8 1730.7,1224.6 1711.6,1238.8 1692.2,1252.4 1672.3,1265.4 1652.1,1277.8 1631.5,1289.4 1610.5,1300.3 1589.2,1310.4 1567.5,1319.7 1545.6,1328.2 1523.4,1335.9 1500.9,1342.7 1478.3,1348.7 1455.4,1353.8 1432.3,1358.1 1409.0,1361.4 1385.7,1363.9 1362.2,1365.5 1338.7,1366.3 1315.1,1366.2 1291.5,1365.3 1267.8,1363.5 1244.3,1361.0 1220.8,1357.7 1197.4,1353.6 1174.1,1348.8 1151.0,1343.3 1128.1,1337.2 1105.5,1330.5 1083.1,1323.2 1061.0,1315.5 1039.2,1307.2 1017.9,1298.6  A 522.500,522.500 0.00 0,1 1030.1,1271.5 L 1030.1,1271.5 1050.7,1281.2 1071.6,1290.5 1092.9,1299.4 1114.6,1307.7 1136.5,1315.4 1158.6,1322.5 1181.0,1328.9 1203.5,1334.6 1226.1,1339.5 1248.9,1343.6 1271.7,1346.9 1294.6,1349.4 1317.4,1351.0 1340.3,1351.6 1363.0,1351.4 1385.7,1350.3 1408.3,1348.2 1430.7,1345.1 1453.0,1341.1 1475.0,1336.2 1496.9,1330.4 1518.4,1323.6 1539.8,1315.9 1560.8,1307.3 1581.5,1297.8 1601.9,1287.5 1621.9,1276.3 1641.5,1264.4 1660.8,1251.7 1679.6,1238.3 1698.0,1224.2 1716.0,1209.5 1733.5,1194.1 1750.5,1178.3 1767.1,1162.0 1783.1,1145.3 1798.7,1128.3 1813.7,1110.9 1828.1,1093.4  Z" style="stroke-width: 0.5;  stroke: rgb(0,0,0); fill: rgb(179,177,178);" />
<path d="M 1754.112,1043.455 A 522.500,522.500 0.00 0,1 1763.8,1049.0 L 1763.8,1049.0 1752.4,1068.0 1740.5,1086.8 1728.0,1105.4 1714.9,1123.6 1701.3,1141.4 1687.2,1158.7 1672.6,1175.5 1657.5,1191.6 1641.9,1207.0 1625.8,1221.8 1609.2,1235.7 1592.2,1248.7 1574.8,1260.9 1556.9,1272.2 1538.7,1282.5 1520.0,1291.9 1501.0,1300.2 1481.7,1307.5 1462.0,1313.8 1442.1,1319.0 1421.9,1323.1 1401.5,1326.2 1380.8,1328.2 1360.0,1329.2 1339.0,1329.1 1317.9,1328.0 1296.7,1325.9 1275.5,1322.8 1254.3,1318.7 1233.0,1313.8 1211.9,1307.9 1190.8,1301.2 1169.8,1293.8 1149.1,1285.6 1128.5,1276.7 1108.2,1267.1 1088.3,1257.1 1068.6,1246.5 1049.4,1235.5  A 522.500,522.500 0.00 0,1 1054.8,1226.5 L 1054.8,1226.5 1073.7,1237.8 1093.1,1248.7 1112.7,1259.1 1132.7,1269.0 1152.9,1278.2 1173.4,1286.7 1194.0,1294.5 1214.8,1301.5 1235.6,1307.7 1256.5,1312.9 1277.4,1317.2 1298.3,1320.6 1319.1,1322.9 1339.9,1324.2 1360.5,1324.5 1380.9,1323.7 1401.2,1321.8 1421.3,1318.9 1441.1,1314.8 1460.6,1309.7 1479.9,1303.5 1498.8,1296.3 1517.4,1288.0 1535.6,1278.6 1553.5,1268.3 1570.9,1257.0 1587.9,1244.7 1604.5,1231.6 1620.6,1217.6 1636.3,1202.8 1651.4,1187.2 1666.1,1171.0 1680.3,1154.1 1693.9,1136.6 1707.0,1118.7 1719.6,1100.3 1731.7,1081.6 1743.2,1062.6 1754.1,1043.5  Z" style="stroke-width: 0.5;  stroke: rgb(0,0,0); fill: rgb(179,177,178);" />
</g>
<g id="plot0">
<g id="plot0-axis">
</g>
<line x1='2243.1' y1='1601.2' x2='2243.1' y2='1601.2' style="stroke-width:14.0;stroke:rgb(0,0,0);stroke-linecap:round;fill:none;" />
<line x1='2243.1' y1='1601.2' x2='2282.8' y2='1606.6' style="stroke-width:14.0;stroke:rgb(0,0,0);stroke-linecap:round;fill:none;" />
<line x1='2282.8' y1='1606.6' x2='2282.8' y2='1606.6' style="stroke-width:14.0;stroke:rgb(0,0,0);stroke-linecap:round;fill:none;" />
<text x="2299.2" y="1631.6" font-size="46.8px" font-family="CMUBright-Roman" style="text-anchor:start;fill:rgb(255,38,78);" transform="rotate(7.8,2299.2,1631.6)" >HistocapCB065<tspan baseline-shift="-40%" font-size="90%">s</tspan>00236</text>
</g>
<defs>
<pattern id="vline" width="10" height="10" patternTransform="rotate(0 0 0)" patternUnits="userSpaceOnUse"><line x1="0" y1="0" x2="0" y2="10" style="stroke:black;stroke-width:5" /></pattern>
<pattern id="checker" width="10" height="10" patternTransform="rotate(45 0 0)" patternUnits="userSpaceOnUse"><line x1="0" y1="0" x2="10" y2="0" style="stroke:black;stroke-width:5" /><line x1="0" y1="0" x2="0" y2="10" style="stroke:black;stroke-width:4" /></pattern>
<pattern id="vline-sparse" width="10" height="10" patternTransform="rotate(0 0 0)" patternUnits="userSpaceOnUse"><line x1="0" y1="0" x2="0" y2="10" style="stroke:black;stroke-width:2" /></pattern>
<pattern id="hline" width="10" height="10" patternTransform="rotate(0 0 0)" patternUnits="userSpaceOnUse"><line x1="0" y1="0" x2="10" y2="0" style="stroke:black;stroke-width:5" /></pattern>
<pattern id="hline-sparse" width="10" height="10" patternTransform="rotate(0 0 0)" patternUnits="userSpaceOnUse"><line x1="0" y1="0" x2="10" y2="0" style="stroke:black;stroke-width:2" /></pattern>
<pattern id="checker" width="10" height="10" patternTransform="rotate(45 0 0)" patternUnits="userSpaceOnUse"><line x1="0" y1="0" x2="10" y2="0" style="stroke:black;stroke-width:2" /><line x1="0" y1="0" x2="0" y2="10" style="stroke:black;stroke-width:2" /></pattern>
</defs>
</svg>
