<?xml version="1.0" encoding="utf-8" standalone="no"?>
<!DOCTYPE svg PUBLIC "-//W3C//DTD SVG 1.1//EN" "http://www.w3.org/Graphics/SVG/1.1/DTD/svg11.dtd">
<svg width="3000px" height="3000px" version="1.1" xmlns="http://www.w3.org/2000/svg" xmlns:xlink="http://www.w3.org/1999/xlink">
<g id="bg">
<rect x="0" y="0" width="3000px" height="3000px" style="fill:rgb(255,255,255);"/>
</g>
<g id="ideograms">
<path d="M1500.000,950.000 A550.000,550.000 40.000 0,1 1682.148,2018.962 L1748.384,2207.676 A750.000,750.000 0.000 0,0 1500.000,750.000 Z" style="stroke-width:2.0;stroke:rgb(0,0,0);stroke-linecap:round;fill:rgb(179,177,178);" />
<text x="2461.1" y="1336.2" font-size="46.8px" font-family="CMUBright-Roman" style="text-anchor:middle;fill:rgb(0,0,0);" transform="rotate(440.3,2461.1,1336.2)" >HistocapCB062<tspan baseline-shift="-40%" font-size="90%">4</tspan></text>
<line x1='1512.2' y1='750.1' x2='1512.4' y2='738.1' style="stroke-width:8.0;stroke:rgb(150,150,150);stroke-linecap:round;fill:none;" />
<line x1='1611.9' y1='758.4' x2='1613.7' y2='746.5' style="stroke-width:8.0;stroke:rgb(150,150,150);stroke-linecap:round;fill:none;" />
<line x1='1709.7' y1='779.9' x2='1713.1' y2='768.4' style="stroke-width:8.0;stroke:rgb(150,150,150);stroke-linecap:round;fill:none;" />
<line x1='1803.8' y1='814.3' x2='1808.6' y2='803.3' style="stroke-width:8.0;stroke:rgb(150,150,150);stroke-linecap:round;fill:none;" />
<text x="1826.3" y="798.1" font-size="41.6px" font-family="CMUBright-Roman" style="text-anchor:start;fill:rgb(150,150,150);" transform="rotate(293.9,1826.3,798.1)" >1350 kb</text>
<line x1='1892.4' y1='860.9' x2='1898.7' y2='850.6' style="stroke-width:8.0;stroke:rgb(150,150,150);stroke-linecap:round;fill:none;" />
<line x1='1974.1' y1='918.8' x2='1981.6' y2='909.5' style="stroke-width:8.0;stroke:rgb(150,150,150);stroke-linecap:round;fill:none;" />
<line x1='2047.2' y1='987.1' x2='2056.0' y2='978.9' style="stroke-width:8.0;stroke:rgb(150,150,150);stroke-linecap:round;fill:none;" />
<line x1='2110.7' y1='1064.6' x2='2120.5' y2='1057.6' style="stroke-width:8.0;stroke:rgb(150,150,150);stroke-linecap:round;fill:none;" />
<line x1='2163.2' y1='1149.8' x2='2173.9' y2='1144.2' style="stroke-width:8.0;stroke:rgb(150,150,150);stroke-linecap:round;fill:none;" />
<text x="2190.9" y="1151.1" font-size="41.6px" font-family="CMUBright-Roman" style="text-anchor:start;fill:rgb(150,150,150);" transform="rotate(332.2,2190.9,1151.1)" >1400 kb</text>
<line x1='2204.0' y1='1241.3' x2='2215.2' y2='1237.2' style="stroke-width:8.0;stroke:rgb(150,150,150);stroke-linecap:round;fill:none;" />
<line x1='2232.2' y1='1337.4' x2='2243.9' y2='1334.8' style="stroke-width:8.0;stroke:rgb(150,150,150);stroke-linecap:round;fill:none;" />
<line x1='2247.3' y1='1436.4' x2='2259.3' y2='1435.3' style="stroke-width:8.0;stroke:rgb(150,150,150);stroke-linecap:round;fill:none;" />
<line x1='2249.1' y1='1536.5' x2='2261.1' y2='1537.1' style="stroke-width:8.0;stroke:rgb(150,150,150);stroke-linecap:round;fill:none;" />
<line x1='2237.6' y1='1635.9' x2='2249.4' y2='1638.1' style="stroke-width:8.0;stroke:rgb(150,150,150);stroke-linecap:round;fill:none;" />
<text x="2258.5" y="1654.0" font-size="41.6px" font-family="CMUBright-Roman" style="text-anchor:start;fill:rgb(150,150,150);" transform="rotate(10.4,2258.5,1654.0)" >1450 kb</text>
<line x1='2212.9' y1='1733.0' x2='2224.3' y2='1736.7' style="stroke-width:8.0;stroke:rgb(150,150,150);stroke-linecap:round;fill:none;" />
<line x1='2175.5' y1='1825.9' x2='2186.3' y2='1831.1' style="stroke-width:8.0;stroke:rgb(150,150,150);stroke-linecap:round;fill:none;" />
<line x1='2126.1' y1='1912.9' x2='2136.1' y2='1919.5' style="stroke-width:8.0;stroke:rgb(150,150,150);stroke-linecap:round;fill:none;" />
<line x1='2065.5' y1='1992.7' x2='2074.6' y2='2000.5' style="stroke-width:8.0;stroke:rgb(150,150,150);stroke-linecap:round;fill:none;" />
<line x1='1994.8' y1='2063.6' x2='2002.8' y2='2072.6' style="stroke-width:8.0;stroke:rgb(150,150,150);stroke-linecap:round;fill:none;" />
<text x="2000.1" y="2090.8" font-size="41.6px" font-family="CMUBright-Roman" style="text-anchor:start;fill:rgb(150,150,150);" transform="rotate(48.7,2000.1,2090.8)" >1500 kb</text>
<line x1='1915.4' y1='2124.5' x2='1922.0' y2='2134.5' style="stroke-width:8.0;stroke:rgb(150,150,150);stroke-linecap:round;fill:none;" />
<line x1='1828.5' y1='2174.2' x2='1833.7' y2='2185.0' style="stroke-width:8.0;stroke:rgb(150,150,150);stroke-linecap:round;fill:none;" />
<g id="highlighttrack_0">
<path d="M2034.912,1372.056 A550.000,550.000 40.000 0,1 2047.098,1443.572 L2246.042,1423.053 A750.000,750.000 0.000 0,0 2229.425,1325.531 Z" style="stroke-width:14.0;stroke:rgb(0,0,0);stroke-linecap:round;fill:rgb(255,38,78);" />
</g>
<path d="M1500.000,950.000 A550.000,550.000 40.000 0,1 1682.148,2018.962 L1748.384,2207.676 A750.000,750.000 0.000 0,0 1500.000,750.000 Z" style="stroke-width:2.0;stroke:rgb(0,0,0);stroke-linecap:round;fill:none;" />
<path d="M1465.234,2048.900 A550.000,550.000 40.000 0,1 1285.412,993.589 L1207.379,809.440 A750.000,750.000 0.000 0,0 1452.591,2248.500 Z" style="stroke-width:2.0;stroke:rgb(0,0,0);stroke-linecap:round;fill:rgb(179,177,178);" />
<text x="494.5" y="1671.3" font-size="46.8px" font-family="CMUBright-Roman" style="text-anchor:middle;fill:rgb(0,0,0);" transform="rotate(80.3,494.5,1671.3)" >HistosurSECH104<tspan baseline-shift="-40%" font-size="90%">4</tspan></text>
<line x1='1157.5' y1='832.8' x2='1152.0' y2='822.1' style="stroke-width:8.0;stroke:rgb(150,150,150);stroke-linecap:round;fill:none;" />
<text x="1134.1" y="817.9" font-size="41.6px" font-family="CMUBright-Roman" style="text-anchor:end;fill:rgb(150,150,150);" transform="rotate(62.8,1134.1,817.9)" >1150 kb</text>
<line x1='1071.6' y1='884.4' x2='1064.8' y2='874.5' style="stroke-width:8.0;stroke:rgb(150,150,150);stroke-linecap:round;fill:none;" />
<line x1='993.5' y1='946.9' x2='985.3' y2='938.1' style="stroke-width:8.0;stroke:rgb(150,150,150);stroke-linecap:round;fill:none;" />
<line x1='924.3' y1='1019.3' x2='915.1' y2='1011.6' style="stroke-width:8.0;stroke:rgb(150,150,150);stroke-linecap:round;fill:none;" />
<line x1='865.4' y1='1100.3' x2='855.2' y2='1093.9' style="stroke-width:8.0;stroke:rgb(150,150,150);stroke-linecap:round;fill:none;" />
<line x1='817.8' y1='1188.4' x2='806.9' y2='1183.4' style="stroke-width:8.0;stroke:rgb(150,150,150);stroke-linecap:round;fill:none;" />
<text x="790.3" y="1191.2" font-size="41.6px" font-family="CMUBright-Roman" style="text-anchor:end;fill:rgb(150,150,150);" transform="rotate(24.6,790.3,1191.2)" >1200 kb</text>
<line x1='782.4' y1='1282.0' x2='770.9' y2='1278.5' style="stroke-width:8.0;stroke:rgb(150,150,150);stroke-linecap:round;fill:none;" />
<line x1='759.7' y1='1379.6' x2='747.9' y2='1377.6' style="stroke-width:8.0;stroke:rgb(150,150,150);stroke-linecap:round;fill:none;" />
<line x1='750.3' y1='1479.2' x2='738.3' y2='1478.9' style="stroke-width:8.0;stroke:rgb(150,150,150);stroke-linecap:round;fill:none;" />
<line x1='754.2' y1='1579.3' x2='742.3' y2='1580.6' style="stroke-width:8.0;stroke:rgb(150,150,150);stroke-linecap:round;fill:none;" />
<line x1='771.4' y1='1677.9' x2='759.8' y2='1680.8' style="stroke-width:8.0;stroke:rgb(150,150,150);stroke-linecap:round;fill:none;" />
<text x="751.5" y="1697.2" font-size="41.6px" font-family="CMUBright-Roman" style="text-anchor:end;fill:rgb(150,150,150);" transform="rotate(-13.7,751.5,1697.2)" >1250 kb</text>
<line x1='801.6' y1='1773.4' x2='790.4' y2='1777.8' style="stroke-width:8.0;stroke:rgb(150,150,150);stroke-linecap:round;fill:none;" />
<line x1='844.2' y1='1864.0' x2='833.8' y2='1869.8' style="stroke-width:8.0;stroke:rgb(150,150,150);stroke-linecap:round;fill:none;" />
<line x1='898.6' y1='1948.1' x2='889.0' y2='1955.3' style="stroke-width:8.0;stroke:rgb(150,150,150);stroke-linecap:round;fill:none;" />
<line x1='963.6' y1='2024.2' x2='955.0' y2='2032.6' style="stroke-width:8.0;stroke:rgb(150,150,150);stroke-linecap:round;fill:none;" />
<line x1='1038.2' y1='2091.0' x2='1030.8' y2='2100.4' style="stroke-width:8.0;stroke:rgb(150,150,150);stroke-linecap:round;fill:none;" />
<text x="1034.6" y="2118.4" font-size="41.6px" font-family="CMUBright-Roman" style="text-anchor:end;fill:rgb(150,150,150);" transform="rotate(-52.0,1034.6,2118.4)" >1300 kb</text>
<line x1='1121.1' y1='2147.2' x2='1115.0' y2='2157.6' style="stroke-width:8.0;stroke:rgb(150,150,150);stroke-linecap:round;fill:none;" />
<line x1='1210.7' y1='2191.9' x2='1206.0' y2='2203.0' style="stroke-width:8.0;stroke:rgb(150,150,150);stroke-linecap:round;fill:none;" />
<line x1='1305.4' y1='2224.3' x2='1302.3' y2='2235.9' style="stroke-width:8.0;stroke:rgb(150,150,150);stroke-linecap:round;fill:none;" />
<line x1='1403.6' y1='2243.8' x2='1402.1' y2='2255.7' style="stroke-width:8.0;stroke:rgb(150,150,150);stroke-linecap:round;fill:none;" />
<path d="M1465.234,2048.900 A550.000,550.000 40.000 0,1 1285.412,993.589 L1207.379,809.440 A750.000,750.000 0.000 0,0 1452.591,2248.500 Z" style="stroke-width:2.0;stroke:rgb(0,0,0);stroke-linecap:round;fill:none;" />
</g>
<g id="track_0">
<path d="M 2019.743,1446.394 A 522.500,522.500 0.00 0,1 2017.4,1573.1 L 2017.4,1573.1 1992.5,1569.7 1967.5,1566.6 1942.2,1563.8 1916.8,1561.2 1891.1,1559.0 1865.3,1557.1 1839.4,1555.6 1813.4,1554.4 1787.2,1553.5 1760.9,1553.1 1734.6,1553.0 1708.2,1553.3 1681.7,1554.1 1655.2,1555.2 1628.7,1556.7 1602.2,1558.7 1575.7,1561.1 1549.2,1563.9 1522.7,1567.1 1496.3,1570.8 1470.0,1574.8 1443.7,1579.3 1417.6,1584.2 1391.5,1589.5 1365.6,1595.2 1339.7,1601.3 1314.1,1607.7 1288.6,1614.6 1263.2,1621.8 1238.1,1629.3 1213.1,1637.2 1188.3,1645.4 1163.8,1654.0 1139.5,1662.8 1115.4,1671.8 1091.6,1681.2 1068.0,1690.7 1044.8,1700.5 1021.8,1710.5  A 522.500,522.500 0.00 0,1 985.2,1589.2 L 985.2,1589.2 1011.4,1584.7 1037.6,1580.2 1063.9,1575.7 1090.2,1571.3 1116.5,1566.9 1142.9,1562.6 1169.3,1558.3 1195.7,1554.0 1222.2,1549.8 1248.6,1545.6 1275.1,1541.5 1301.7,1537.4 1328.2,1533.4 1354.8,1529.4 1381.4,1525.4 1408.0,1521.6 1434.6,1517.7 1461.2,1514.0 1487.8,1510.2 1514.5,1506.5 1541.1,1502.9 1567.8,1499.3 1594.4,1495.8 1621.1,1492.4 1647.7,1489.0 1674.4,1485.6 1701.0,1482.3 1727.7,1479.0 1754.3,1475.8 1780.9,1472.7 1807.5,1469.6 1834.1,1466.5 1860.7,1463.5 1887.3,1460.5 1913.8,1457.6 1940.3,1454.8 1966.8,1451.9 1993.3,1449.1 2019.7,1446.4  Z" style="stroke-width: 0.5;  stroke: rgb(0,0,0); fill: rgb(179,177,178);" />
<path d="M 1546.201,979.547 A 522.500,522.500 0.00 0,1 1651.8,1000.0 L 1651.8,1000.0 1645.7,1019.6 1639.2,1039.0 1632.5,1058.1 1625.4,1076.7 1618.0,1094.8 1610.4,1112.3 1602.5,1128.9 1594.3,1144.7 1585.8,1159.5 1577.2,1173.3 1568.3,1186.0 1559.2,1197.5 1549.9,1207.8 1540.4,1216.8 1530.7,1224.4 1520.9,1230.7 1511.0,1235.6 1500.9,1239.1 1490.7,1241.1 1480.5,1241.7 1470.1,1240.8 1459.7,1238.5 1449.3,1234.7 1438.9,1229.6 1428.4,1223.0 1418.0,1215.2 1407.6,1206.0 1397.3,1195.5 1387.0,1183.9 1376.9,1171.2 1366.8,1157.4 1357.0,1142.6 1347.2,1126.9 1337.7,1110.4 1328.4,1093.3 1319.3,1075.5 1310.4,1057.3 1301.9,1038.8 1293.6,1020.0  A 522.500,522.500 0.00 0,1 1296.1,1018.9 L 1296.1,1018.9 1304.2,1037.5 1312.4,1056.0 1320.8,1074.0 1329.3,1091.6 1338.0,1108.6 1346.7,1124.9 1355.4,1140.4 1364.2,1155.0 1372.9,1168.6 1381.6,1181.1 1390.3,1192.5 1398.8,1202.6 1407.3,1211.4 1415.6,1219.0 1423.8,1225.1 1431.8,1229.8 1439.6,1233.1 1447.2,1234.9 1454.6,1235.3 1461.8,1234.1 1468.8,1231.5 1475.5,1227.5 1481.9,1221.9 1488.1,1215.0 1494.0,1206.6 1499.6,1196.9 1504.9,1185.9 1510.0,1173.6 1514.7,1160.2 1519.1,1145.6 1523.3,1130.0 1527.1,1113.4 1530.7,1096.0 1534.0,1077.8 1537.0,1058.9 1539.7,1039.6 1542.1,1019.8 1544.3,999.7 1546.2,979.5  Z" style="stroke-width: 0.5;  stroke: rgb(0,0,0); fill: rgb(179,177,178);" />
<path d="M 1840.234,1103.456 A 522.500,522.500 0.00 0,1 1906.2,1171.3 L 1906.2,1171.3 1887.3,1186.3 1868.0,1201.2 1848.2,1215.8 1828.1,1230.1 1807.6,1244.2 1786.6,1257.9 1765.3,1271.2 1743.7,1284.1 1721.6,1296.6 1699.3,1308.6 1676.6,1320.2 1653.7,1331.2 1630.4,1341.7 1606.9,1351.7 1583.1,1361.1 1559.0,1369.9 1534.8,1378.1 1510.3,1385.7 1485.6,1392.8 1460.8,1399.2 1435.8,1404.9 1410.7,1410.1 1385.5,1414.6 1360.2,1418.5 1334.8,1421.7 1309.4,1424.4 1283.9,1426.4 1258.5,1427.8 1233.1,1428.7 1207.7,1428.9 1182.4,1428.6 1157.2,1427.8 1132.1,1426.4 1107.1,1424.5 1082.4,1422.2 1057.8,1419.3 1033.5,1416.1 1009.4,1412.4 985.6,1408.4  A 522.500,522.500 0.00 0,1 1010.6,1317.0 L 1010.6,1317.0 1032.3,1324.9 1054.4,1332.3 1076.7,1339.3 1099.4,1345.7 1122.4,1351.6 1145.5,1356.8 1168.8,1361.4 1192.3,1365.4 1215.9,1368.6 1239.6,1371.1 1263.3,1372.8 1287.0,1373.7 1310.7,1373.8 1334.3,1373.1 1357.9,1371.5 1381.4,1369.1 1404.8,1365.8 1427.9,1361.6 1450.9,1356.6 1473.7,1350.8 1496.3,1344.0 1518.6,1336.5 1540.6,1328.1 1562.4,1318.9 1583.8,1308.9 1604.8,1298.1 1625.5,1286.5 1645.9,1274.3 1665.8,1261.4 1685.3,1247.8 1704.4,1233.6 1723.1,1218.8 1741.3,1203.5 1759.0,1187.7 1776.3,1171.5 1793.0,1154.9 1809.3,1138.0 1825.0,1120.8 1840.2,1103.5  Z" style="stroke-width: 0.5;  stroke: rgb(0,0,0); fill: rgb(179,177,178);" />
<path d="M 1718.899,1025.564 A 522.500,522.500 0.00 0,1 1794.9,1068.6 L 1794.9,1068.6 1781.9,1087.1 1768.5,1105.3 1754.5,1123.3 1739.9,1141.0 1724.9,1158.2 1709.3,1175.0 1693.2,1191.3 1676.7,1207.0 1659.6,1222.0 1642.1,1236.4 1624.2,1250.0 1605.8,1262.8 1587.0,1274.8 1567.7,1285.9 1548.2,1296.2 1528.2,1305.5 1507.9,1314.0 1487.3,1321.4 1466.4,1327.9 1445.3,1333.4 1423.9,1338.0 1402.2,1341.5 1380.4,1344.1 1358.5,1345.7 1336.3,1346.3 1314.1,1345.9 1291.9,1344.6 1269.6,1342.4 1247.2,1339.3 1225.0,1335.4 1202.7,1330.6 1180.6,1325.0 1158.7,1318.6 1136.9,1311.6 1115.3,1303.9 1094.0,1295.6 1073.0,1286.7 1052.3,1277.3 1032.0,1267.6  A 522.500,522.500 0.00 0,1 1077.1,1193.2 L 1077.1,1193.2 1094.8,1205.7 1112.9,1217.8 1131.3,1229.5 1150.1,1240.6 1169.1,1251.0 1188.3,1260.8 1207.6,1269.8 1227.1,1277.9 1246.6,1285.2 1266.2,1291.5 1285.8,1296.8 1305.4,1301.1 1324.8,1304.3 1344.2,1306.5 1363.4,1307.5 1382.4,1307.4 1401.3,1306.2 1419.9,1303.8 1438.2,1300.2 1456.2,1295.5 1474.0,1289.7 1491.4,1282.7 1508.4,1274.5 1525.0,1265.3 1541.3,1255.0 1557.1,1243.7 1572.5,1231.3 1587.5,1218.0 1602.0,1203.8 1615.9,1188.7 1629.5,1172.8 1642.5,1156.2 1655.0,1138.9 1666.9,1121.0 1678.4,1102.6 1689.3,1083.8 1699.7,1064.6 1709.6,1045.2 1718.9,1025.6  Z" style="stroke-width: 0.5;  stroke: rgb(0,0,0); fill: rgb(179,177,178);" />
<path d="M 1951.901,1237.718 A 522.500,522.500 0.00 0,1 1982.2,1298.8 L 1982.2,1298.8 1958.6,1308.5 1934.7,1318.1 1910.7,1327.6 1886.4,1336.9 1862.0,1346.0 1837.3,1354.9 1812.5,1363.6 1787.5,1372.1 1762.3,1380.4 1737.0,1388.4 1711.5,1396.2 1685.9,1403.8 1660.2,1411.0 1634.3,1418.0 1608.3,1424.7 1582.3,1431.2 1556.1,1437.3 1529.8,1443.2 1503.5,1448.8 1477.1,1454.0 1450.6,1459.0 1424.2,1463.7 1397.6,1468.1 1371.1,1472.1 1344.5,1475.9 1317.9,1479.4 1291.4,1482.5 1264.8,1485.4 1238.3,1488.0 1211.9,1490.3 1185.5,1492.3 1159.1,1494.1 1132.8,1495.6 1106.7,1496.8 1080.6,1497.8 1054.6,1498.5 1028.8,1499.0 1003.1,1499.3 977.5,1499.4  A 522.500,522.500 0.00 0,1 982.1,1431.1 L 982.1,1431.1 1006.6,1434.2 1031.4,1437.0 1056.4,1439.5 1081.6,1441.6 1107.0,1443.3 1132.6,1444.7 1158.3,1445.6 1184.1,1446.2 1210.0,1446.3 1236.0,1446.0 1262.1,1445.2 1288.2,1443.9 1314.4,1442.2 1340.5,1440.0 1366.7,1437.3 1392.8,1434.1 1418.9,1430.4 1444.9,1426.2 1470.9,1421.5 1496.8,1416.4 1522.5,1410.7 1548.2,1404.6 1573.7,1398.0 1599.1,1390.9 1624.2,1383.4 1649.3,1375.4 1674.1,1367.0 1698.7,1358.1 1723.1,1348.8 1747.2,1339.2 1771.1,1329.1 1794.8,1318.7 1818.1,1308.0 1841.2,1296.9 1864.0,1285.6 1886.5,1274.0 1908.6,1262.1 1930.4,1250.0 1951.9,1237.7  Z" style="stroke-width: 0.5;  stroke: rgb(0,0,0); fill: rgb(179,177,178);" />
<path d="M 1795.415,1069.028 A 522.500,522.500 0.00 0,1 1833.6,1097.9 L 1833.6,1097.9 1818.7,1115.4 1803.3,1132.7 1787.4,1149.8 1771.0,1166.6 1754.0,1183.0 1736.6,1199.0 1718.7,1214.5 1700.4,1229.4 1681.6,1243.8 1662.3,1257.5 1642.7,1270.6 1622.6,1283.0 1602.1,1294.6 1581.3,1305.5 1560.2,1315.6 1538.7,1324.9 1516.9,1333.3 1494.8,1340.9 1472.5,1347.6 1449.9,1353.5 1427.1,1358.5 1404.1,1362.6 1381.0,1365.8 1357.7,1368.2 1334.3,1369.7 1310.8,1370.3 1287.3,1370.1 1263.7,1369.1 1240.2,1367.2 1216.7,1364.6 1193.3,1361.2 1169.9,1357.1 1146.8,1352.2 1123.8,1346.8 1101.0,1340.7 1078.5,1334.0 1056.3,1326.9 1034.4,1319.2 1012.8,1311.1  A 522.500,522.500 0.00 0,1 1032.0,1267.6 L 1032.0,1267.6 1052.3,1277.3 1073.0,1286.7 1094.0,1295.6 1115.3,1303.9 1136.9,1311.6 1158.7,1318.7 1180.6,1325.0 1202.8,1330.6 1225.0,1335.4 1247.3,1339.4 1269.6,1342.5 1291.9,1344.7 1314.2,1346.0 1336.4,1346.3 1358.5,1345.7 1380.5,1344.2 1402.3,1341.6 1424.0,1338.1 1445.4,1333.5 1466.6,1328.0 1487.5,1321.6 1508.1,1314.1 1528.4,1305.7 1548.4,1296.4 1568.0,1286.1 1587.2,1275.0 1606.0,1263.0 1624.5,1250.2 1642.4,1236.6 1660.0,1222.3 1677.0,1207.2 1693.6,1191.6 1709.7,1175.3 1725.3,1158.6 1740.4,1141.3 1755.0,1123.7 1769.0,1105.7 1782.5,1087.4 1795.4,1069.0  Z" style="stroke-width: 0.5;  stroke: rgb(0,0,0); fill: rgb(179,177,178);" />
<path d="M 1990.668,1320.413 A 522.500,522.500 0.00 0,1 2002.2,1355.8 L 2002.2,1355.8 1976.9,1363.1 1951.5,1370.2 1926.0,1377.3 1900.5,1384.3 1874.8,1391.3 1849.1,1398.1 1823.3,1404.9 1797.5,1411.6 1771.5,1418.2 1745.5,1424.7 1719.5,1431.1 1693.4,1437.4 1667.2,1443.6 1641.0,1449.7 1614.8,1455.7 1588.5,1461.6 1562.1,1467.4 1535.8,1473.0 1509.4,1478.6 1482.9,1484.0 1456.5,1489.3 1430.0,1494.5 1403.6,1499.5 1377.1,1504.5 1350.6,1509.3 1324.1,1514.0 1297.6,1518.6 1271.1,1523.1 1244.6,1527.4 1218.2,1531.7 1191.8,1535.8 1165.3,1539.8 1139.0,1543.7 1112.6,1547.5 1086.3,1551.3 1060.0,1554.9 1033.8,1558.4 1007.7,1561.8 981.6,1565.1  A 522.500,522.500 0.00 0,1 978.2,1527.3 L 978.2,1527.3 1004.0,1525.9 1030.0,1524.3 1056.0,1522.5 1082.1,1520.6 1108.4,1518.5 1134.7,1516.1 1161.0,1513.6 1187.4,1510.8 1213.9,1507.9 1240.4,1504.7 1266.9,1501.4 1293.5,1497.8 1320.1,1493.9 1346.6,1489.9 1373.2,1485.6 1399.8,1481.1 1426.3,1476.4 1452.9,1471.5 1479.3,1466.3 1505.8,1460.9 1532.2,1455.3 1558.5,1449.4 1584.8,1443.3 1611.0,1437.0 1637.1,1430.5 1663.1,1423.8 1689.1,1416.9 1714.9,1409.8 1740.6,1402.5 1766.3,1395.0 1791.8,1387.3 1817.1,1379.5 1842.4,1371.5 1867.5,1363.3 1892.4,1355.0 1917.2,1346.5 1941.9,1337.9 1966.4,1329.2 1990.7,1320.4  Z" style="stroke-width: 0.5;  stroke: rgb(0,0,0); fill: rgb(179,177,178);" />
<path d="M 2016.086,1581.620 A 522.500,522.500 0.00 0,1 2009.8,1614.3 L 2009.8,1614.3 1986.6,1609.3 1963.0,1604.8 1939.2,1600.6 1915.1,1596.9 1890.8,1593.7 1866.3,1591.1 1841.7,1589.0 1816.9,1587.5 1792.0,1586.6 1767.1,1586.3 1742.1,1586.6 1717.2,1587.7 1692.2,1589.4 1667.3,1591.8 1642.4,1594.8 1617.7,1598.6 1593.0,1603.1 1568.5,1608.3 1544.1,1614.2 1519.9,1620.8 1495.9,1628.1 1472.2,1636.0 1448.6,1644.7 1425.4,1654.0 1402.4,1663.9 1379.7,1674.5 1357.3,1685.7 1335.3,1697.5 1313.6,1709.8 1292.2,1722.7 1271.3,1736.1 1250.7,1750.0 1230.5,1764.3 1210.8,1779.0 1191.4,1794.1 1172.6,1809.5 1154.1,1825.1 1136.1,1841.1 1118.6,1857.2  A 522.500,522.500 0.00 0,1 1096.6,1832.1 L 1096.6,1832.1 1115.4,1816.9 1134.6,1801.8 1154.2,1787.0 1174.3,1772.5 1194.7,1758.2 1215.5,1744.3 1236.7,1730.8 1258.3,1717.6 1280.2,1704.9 1302.5,1692.6 1325.0,1680.8 1347.9,1669.5 1371.1,1658.7 1394.6,1648.4 1418.3,1638.7 1442.3,1629.6 1466.5,1621.0 1490.9,1613.1 1515.5,1605.7 1540.3,1599.0 1565.2,1592.8 1590.3,1587.3 1615.5,1582.4 1640.8,1578.1 1666.1,1574.5 1691.6,1571.4 1717.0,1568.9 1742.5,1567.1 1767.9,1565.8 1793.3,1565.1 1818.7,1565.0 1843.9,1565.4 1869.1,1566.3 1894.1,1567.7 1918.9,1569.7 1943.6,1572.0 1968.0,1574.8 1992.2,1578.0 2016.1,1581.6  Z" style="stroke-width: 0.5;  stroke: rgb(0,0,0); fill: rgb(179,177,178);" />
<path d="M 1672.128,1006.666 A 522.500,522.500 0.00 0,1 1696.8,1016.0 L 1696.8,1016.0 1688.8,1035.1 1680.4,1054.1 1671.6,1072.7 1662.4,1090.9 1653.0,1108.6 1643.1,1125.5 1633.0,1141.8 1622.6,1157.2 1611.8,1171.6 1600.8,1185.1 1589.6,1197.5 1578.1,1208.7 1566.4,1218.8 1554.5,1227.6 1542.4,1235.1 1530.1,1241.3 1517.7,1246.2 1505.2,1249.7 1492.5,1251.8 1479.8,1252.5 1467.0,1251.8 1454.2,1249.7 1441.3,1246.3 1428.4,1241.5 1415.6,1235.3 1402.7,1227.9 1390.0,1219.2 1377.3,1209.3 1364.8,1198.3 1352.3,1186.1 1340.1,1172.9 1328.0,1158.8 1316.1,1143.8 1304.5,1128.0 1293.1,1111.5 1282.0,1094.5 1271.2,1076.9 1260.7,1059.0 1250.6,1040.9  A 522.500,522.500 0.00 0,1 1274.2,1028.8 L 1274.2,1028.8 1283.2,1047.3 1292.6,1065.6 1302.4,1083.6 1312.4,1101.0 1322.6,1117.9 1333.1,1134.1 1343.8,1149.5 1354.7,1164.0 1365.7,1177.5 1376.9,1190.0 1388.2,1201.4 1399.6,1211.6 1411.1,1220.5 1422.6,1228.2 1434.1,1234.6 1445.7,1239.6 1457.2,1243.2 1468.7,1245.4 1480.2,1246.2 1491.5,1245.6 1502.8,1243.5 1514.0,1240.1 1525.1,1235.2 1536.0,1228.9 1546.8,1221.3 1557.4,1212.4 1567.7,1202.2 1577.9,1190.8 1587.9,1178.2 1597.6,1164.6 1607.1,1149.9 1616.3,1134.3 1625.2,1117.8 1633.8,1100.6 1642.2,1082.6 1650.2,1064.2 1657.8,1045.3 1665.2,1026.1 1672.1,1006.7  Z" style="stroke-width: 0.5;  stroke: rgb(0,0,0); fill: rgb(179,177,178);" />
<path d="M 1652.516,1000.255 A 522.500,522.500 0.00 0,1 1671.6,1006.5 L 1671.6,1006.5 1664.6,1025.9 1657.3,1045.1 1649.7,1064.0 1641.7,1082.5 1633.4,1100.4 1624.8,1117.6 1616.0,1134.1 1606.8,1149.7 1597.3,1164.4 1587.7,1178.1 1577.7,1190.6 1567.6,1202.0 1557.2,1212.2 1546.7,1221.1 1536.0,1228.7 1525.1,1235.0 1514.1,1239.8 1503.0,1243.3 1491.7,1245.4 1480.4,1246.0 1469.0,1245.2 1457.5,1242.9 1446.1,1239.3 1434.6,1234.3 1423.1,1227.9 1411.6,1220.2 1400.2,1211.2 1388.9,1201.0 1377.6,1189.6 1366.5,1177.1 1355.5,1163.5 1344.7,1149.0 1334.1,1133.6 1323.6,1117.4 1313.4,1100.5 1303.5,1083.0 1293.8,1065.0 1284.5,1046.7 1275.5,1028.2  A 522.500,522.500 0.00 0,1 1293.5,1020.0 L 1293.5,1020.0 1301.8,1038.8 1310.3,1057.4 1319.2,1075.6 1328.3,1093.3 1337.6,1110.5 1347.2,1127.0 1356.9,1142.6 1366.8,1157.4 1376.9,1171.2 1387.0,1184.0 1397.3,1195.6 1407.6,1206.0 1418.0,1215.2 1428.5,1223.1 1438.9,1229.6 1449.4,1234.8 1459.8,1238.5 1470.3,1240.9 1480.6,1241.7 1490.9,1241.2 1501.1,1239.2 1511.2,1235.7 1521.2,1230.8 1531.0,1224.5 1540.7,1216.9 1550.2,1207.9 1559.5,1197.7 1568.7,1186.1 1577.6,1173.5 1586.3,1159.7 1594.7,1144.9 1603.0,1129.1 1610.9,1112.4 1618.6,1095.0 1626.0,1076.9 1633.1,1058.3 1639.9,1039.2 1646.4,1019.8 1652.5,1000.3  Z" style="stroke-width: 0.5;  stroke: rgb(0,0,0); fill: rgb(179,177,178);" />
</g>
<g id="plot0">
<g id="plot0-axis">
</g>
<line x1='2243.5' y1='1598.9' x2='2243.5' y2='1598.9' style="stroke-width:14.0;stroke:rgb(0,0,0);stroke-linecap:round;fill:none;" />
<line x1='2243.5' y1='1598.9' x2='2283.1' y2='1604.2' style="stroke-width:14.0;stroke:rgb(0,0,0);stroke-linecap:round;fill:none;" />
<line x1='2283.1' y1='1604.2' x2='2283.1' y2='1604.2' style="stroke-width:14.0;stroke:rgb(0,0,0);stroke-linecap:round;fill:none;" />
<text x="2299.7" y="1629.1" font-size="46.8px" font-family="CMUBright-Roman" style="text-anchor:start;fill:rgb(255,38,78);" transform="rotate(7.6,2299.7,1629.1)" >HistocapCB062<tspan baseline-shift="-40%" font-size="90%">s</tspan>00039</text>
</g>
<defs>
<pattern id="vline" width="10" height="10" patternTransform="rotate(0 0 0)" patternUnits="userSpaceOnUse"><line x1="0" y1="0" x2="0" y2="10" style="stroke:black;stroke-width:5" /></pattern>
<pattern id="checker" width="10" height="10" patternTransform="rotate(45 0 0)" patternUnits="userSpaceOnUse"><line x1="0" y1="0" x2="10" y2="0" style="stroke:black;stroke-width:2" /><line x1="0" y1="0" x2="0" y2="10" style="stroke:black;stroke-width:2" /></pattern>
<pattern id="vline-sparse" width="10" height="10" patternTransform="rotate(0 0 0)" patternUnits="userSpaceOnUse"><line x1="0" y1="0" x2="0" y2="10" style="stroke:black;stroke-width:2" /></pattern>
<pattern id="hline-sparse" width="10" height="10" patternTransform="rotate(0 0 0)" patternUnits="userSpaceOnUse"><line x1="0" y1="0" x2="10" y2="0" style="stroke:black;stroke-width:2" /></pattern>
<pattern id="checker" width="10" height="10" patternTransform="rotate(45 0 0)" patternUnits="userSpaceOnUse"><line x1="0" y1="0" x2="10" y2="0" style="stroke:black;stroke-width:5" /><line x1="0" y1="0" x2="0" y2="10" style="stroke:black;stroke-width:4" /></pattern>
<pattern id="hline" width="10" height="10" patternTransform="rotate(0 0 0)" patternUnits="userSpaceOnUse"><line x1="0" y1="0" x2="10" y2="0" style="stroke:black;stroke-width:5" /></pattern>
</defs>
</svg>
