<?xml version="1.0" encoding="utf-8" standalone="no"?>
<!DOCTYPE svg PUBLIC "-//W3C//DTD SVG 1.1//EN" "http://www.w3.org/Graphics/SVG/1.1/DTD/svg11.dtd">
<svg width="3000px" height="3000px" version="1.1" xmlns="http://www.w3.org/2000/svg" xmlns:xlink="http://www.w3.org/1999/xlink">
<g id="bg">
<rect x="0" y="0" width="3000px" height="3000px" style="fill:rgb(255,255,255);"/>
</g>
<g id="ideograms">
<path d="M1500.000,950.000 A550.000,550.000 40.000 0,1 1716.558,2005.571 L1795.307,2189.416 A750.000,750.000 0.000 0,0 1500.000,750.000 Z" style="stroke-width:2.0;stroke:rgb(0,0,0);stroke-linecap:round;fill:rgb(179,177,178);" />
<text x="2455.1" y="1304.1" font-size="46.8px" font-family="CMUBright-Roman" style="text-anchor:middle;fill:rgb(0,0,0);" transform="rotate(438.4,2455.1,1304.1)" >HistomissSECH84<tspan baseline-shift="-40%" font-size="90%">6</tspan></text>
<line x1='1566.4' y1='752.9' x2='1567.5' y2='741.0' style="stroke-width:8.0;stroke:rgb(150,150,150);stroke-linecap:round;fill:none;" />
<line x1='1666.6' y1='768.7' x2='1669.3' y2='757.0' style="stroke-width:8.0;stroke:rgb(150,150,150);stroke-linecap:round;fill:none;" />
<line x1='1763.8' y1='797.9' x2='1768.0' y2='786.7' style="stroke-width:8.0;stroke:rgb(150,150,150);stroke-linecap:round;fill:none;" />
<line x1='1856.1' y1='840.0' x2='1861.8' y2='829.4' style="stroke-width:8.0;stroke:rgb(150,150,150);stroke-linecap:round;fill:none;" />
<text x="1879.8" y="825.6" font-size="41.6px" font-family="CMUBright-Roman" style="text-anchor:start;fill:rgb(150,150,150);" transform="rotate(298.3,1879.8,825.6)" >3050 kb</text>
<line x1='1942.0' y1='894.1' x2='1949.0' y2='884.4' style="stroke-width:8.0;stroke:rgb(150,150,150);stroke-linecap:round;fill:none;" />
<line x1='2019.7' y1='959.2' x2='2028.0' y2='950.6' style="stroke-width:8.0;stroke:rgb(150,150,150);stroke-linecap:round;fill:none;" />
<line x1='2087.9' y1='1034.3' x2='2097.3' y2='1026.9' style="stroke-width:8.0;stroke:rgb(150,150,150);stroke-linecap:round;fill:none;" />
<line x1='2145.4' y1='1117.9' x2='2155.7' y2='1111.8' style="stroke-width:8.0;stroke:rgb(150,150,150);stroke-linecap:round;fill:none;" />
<line x1='2191.0' y1='1208.5' x2='2202.1' y2='1203.8' style="stroke-width:8.0;stroke:rgb(150,150,150);stroke-linecap:round;fill:none;" />
<text x="2218.5" y="1212.1" font-size="41.6px" font-family="CMUBright-Roman" style="text-anchor:start;fill:rgb(150,150,150);" transform="rotate(337.1,2218.5,1212.1)" >3100 kb</text>
<line x1='2224.1' y1='1304.4' x2='2235.6' y2='1301.3' style="stroke-width:8.0;stroke:rgb(150,150,150);stroke-linecap:round;fill:none;" />
<line x1='2243.8' y1='1403.9' x2='2255.7' y2='1402.4' style="stroke-width:8.0;stroke:rgb(150,150,150);stroke-linecap:round;fill:none;" />
<line x1='2250.0' y1='1505.2' x2='2262.0' y2='1505.3' style="stroke-width:8.0;stroke:rgb(150,150,150);stroke-linecap:round;fill:none;" />
<line x1='2242.4' y1='1606.4' x2='2254.3' y2='1608.1' style="stroke-width:8.0;stroke:rgb(150,150,150);stroke-linecap:round;fill:none;" />
<line x1='2221.3' y1='1705.6' x2='2232.8' y2='1708.9' style="stroke-width:8.0;stroke:rgb(150,150,150);stroke-linecap:round;fill:none;" />
<text x="2240.4" y="1725.6" font-size="41.6px" font-family="CMUBright-Roman" style="text-anchor:start;fill:rgb(150,150,150);" transform="rotate(15.9,2240.4,1725.6)" >3150 kb</text>
<line x1='2186.9' y1='1801.0' x2='2197.9' y2='1805.8' style="stroke-width:8.0;stroke:rgb(150,150,150);stroke-linecap:round;fill:none;" />
<line x1='2140.0' y1='1891.0' x2='2150.3' y2='1897.2' style="stroke-width:8.0;stroke:rgb(150,150,150);stroke-linecap:round;fill:none;" />
<line x1='2081.4' y1='1973.8' x2='2090.7' y2='1981.4' style="stroke-width:8.0;stroke:rgb(150,150,150);stroke-linecap:round;fill:none;" />
<line x1='2012.2' y1='2047.9' x2='2020.4' y2='2056.7' style="stroke-width:8.0;stroke:rgb(150,150,150);stroke-linecap:round;fill:none;" />
<line x1='1933.5' y1='2112.0' x2='1940.5' y2='2121.8' style="stroke-width:8.0;stroke:rgb(150,150,150);stroke-linecap:round;fill:none;" />
<text x="1935.9" y="2139.6" font-size="41.6px" font-family="CMUBright-Roman" style="text-anchor:start;fill:rgb(150,150,150);" transform="rotate(54.7,1935.9,2139.6)" >3200 kb</text>
<line x1='1847.0' y1='2164.9' x2='1852.5' y2='2175.6' style="stroke-width:8.0;stroke:rgb(150,150,150);stroke-linecap:round;fill:none;" />
<g id="highlighttrack_0">
<path d="M2037.083,1381.503 A550.000,550.000 40.000 0,1 2040.355,1397.453 L2236.848,1360.163 A750.000,750.000 0.000 0,0 2232.386,1338.413 Z" style="stroke-width:14.0;stroke:rgb(0,0,0);stroke-linecap:round;fill:rgb(255,38,78);" />
</g>
<path d="M1500.000,950.000 A550.000,550.000 40.000 0,1 1716.558,2005.571 L1795.307,2189.416 A750.000,750.000 0.000 0,0 1500.000,750.000 Z" style="stroke-width:2.0;stroke:rgb(0,0,0);stroke-linecap:round;fill:none;" />
<path d="M1499.233,2049.999 A550.000,550.000 40.000 0,1 1282.737,994.731 L1203.732,810.997 A750.000,750.000 0.000 0,0 1498.954,2249.999 Z" style="stroke-width:2.0;stroke:rgb(0,0,0);stroke-linecap:round;fill:rgb(179,177,178);" />
<text x="500.8" y="1705.0" font-size="46.8px" font-family="CMUBright-Roman" style="text-anchor:middle;fill:rgb(0,0,0);" transform="rotate(78.4,500.8,1705.0)" >HistocapCB063<tspan baseline-shift="-40%" font-size="90%">6</tspan></text>
<line x1='1196.7' y1='814.1' x2='1191.9' y2='803.1' style="stroke-width:8.0;stroke:rgb(150,150,150);stroke-linecap:round;fill:none;" />
<line x1='1106.9' y1='861.3' x2='1100.6' y2='851.0' style="stroke-width:8.0;stroke:rgb(150,150,150);stroke-linecap:round;fill:none;" />
<line x1='1024.3' y1='920.1' x2='1016.7' y2='910.9' style="stroke-width:8.0;stroke:rgb(150,150,150);stroke-linecap:round;fill:none;" />
<text x="998.4" y="910.6" font-size="41.6px" font-family="CMUBright-Roman" style="text-anchor:end;fill:rgb(150,150,150);" transform="rotate(50.6,998.4,910.6)" >3300 kb</text>
<line x1='950.4' y1='989.6' x2='941.6' y2='981.5' style="stroke-width:8.0;stroke:rgb(150,150,150);stroke-linecap:round;fill:none;" />
<line x1='886.6' y1='1068.5' x2='876.8' y2='1061.6' style="stroke-width:8.0;stroke:rgb(150,150,150);stroke-linecap:round;fill:none;" />
<line x1='834.0' y1='1155.2' x2='823.3' y2='1149.7' style="stroke-width:8.0;stroke:rgb(150,150,150);stroke-linecap:round;fill:none;" />
<line x1='793.5' y1='1248.2' x2='782.2' y2='1244.2' style="stroke-width:8.0;stroke:rgb(150,150,150);stroke-linecap:round;fill:none;" />
<line x1='766.0' y1='1345.9' x2='754.3' y2='1343.4' style="stroke-width:8.0;stroke:rgb(150,150,150);stroke-linecap:round;fill:none;" />
<text x="739.8" y="1354.7" font-size="41.6px" font-family="CMUBright-Roman" style="text-anchor:end;fill:rgb(150,150,150);" transform="rotate(11.9,739.8,1354.7)" >3350 kb</text>
<line x1='751.9' y1='1446.4' x2='740.0' y2='1445.5' style="stroke-width:8.0;stroke:rgb(150,150,150);stroke-linecap:round;fill:none;" />
<line x1='751.5' y1='1547.8' x2='739.5' y2='1548.6' style="stroke-width:8.0;stroke:rgb(150,150,150);stroke-linecap:round;fill:none;" />
<line x1='764.8' y1='1648.4' x2='753.1' y2='1650.7' style="stroke-width:8.0;stroke:rgb(150,150,150);stroke-linecap:round;fill:none;" />
<line x1='791.6' y1='1746.2' x2='780.2' y2='1750.2' style="stroke-width:8.0;stroke:rgb(150,150,150);stroke-linecap:round;fill:none;" />
<line x1='831.3' y1='1839.6' x2='820.6' y2='1845.0' style="stroke-width:8.0;stroke:rgb(150,150,150);stroke-linecap:round;fill:none;" />
<text x="816.3" y="1862.9" font-size="41.6px" font-family="CMUBright-Roman" style="text-anchor:end;fill:rgb(150,150,150);" transform="rotate(-26.9,816.3,1862.9)" >3400 kb</text>
<line x1='883.2' y1='1926.7' x2='873.4' y2='1933.5' style="stroke-width:8.0;stroke:rgb(150,150,150);stroke-linecap:round;fill:none;" />
<line x1='946.4' y1='2006.0' x2='937.6' y2='2014.1' style="stroke-width:8.0;stroke:rgb(150,150,150);stroke-linecap:round;fill:none;" />
<line x1='1019.8' y1='2076.1' x2='1012.1' y2='2085.3' style="stroke-width:8.0;stroke:rgb(150,150,150);stroke-linecap:round;fill:none;" />
<line x1='1101.9' y1='2135.7' x2='1095.6' y2='2145.8' style="stroke-width:8.0;stroke:rgb(150,150,150);stroke-linecap:round;fill:none;" />
<line x1='1191.4' y1='2183.6' x2='1186.4' y2='2194.5' style="stroke-width:8.0;stroke:rgb(150,150,150);stroke-linecap:round;fill:none;" />
<text x="1194.3" y="2211.1" font-size="41.6px" font-family="CMUBright-Roman" style="text-anchor:end;fill:rgb(150,150,150);" transform="rotate(-65.7,1194.3,2211.1)" >3450 kb</text>
<line x1='1286.4' y1='2219.0' x2='1283.0' y2='2230.5' style="stroke-width:8.0;stroke:rgb(150,150,150);stroke-linecap:round;fill:none;" />
<line x1='1385.4' y1='2241.2' x2='1383.6' y2='2253.1' style="stroke-width:8.0;stroke:rgb(150,150,150);stroke-linecap:round;fill:none;" />
<line x1='1486.5' y1='2249.9' x2='1486.3' y2='2261.9' style="stroke-width:8.0;stroke:rgb(150,150,150);stroke-linecap:round;fill:none;" />
<path d="M1499.233,2049.999 A550.000,550.000 40.000 0,1 1282.737,994.731 L1203.732,810.997 A750.000,750.000 0.000 0,0 1498.954,2249.999 Z" style="stroke-width:2.0;stroke:rgb(0,0,0);stroke-linecap:round;fill:none;" />
</g>
<g id="track_0">
<path d="M 1895.210,1841.783 A 522.500,522.500 0.00 0,1 1779.3,1941.6 L 1779.3,1941.6 1768.3,1924.5 1757.1,1907.6 1745.7,1891.1 1734.3,1875.1 1722.8,1859.7 1711.2,1845.0 1699.8,1831.1 1688.4,1818.2 1677.1,1806.2 1666.0,1795.3 1655.0,1785.5 1644.3,1776.9 1633.8,1769.6 1623.6,1763.5 1613.8,1758.8 1604.2,1755.5 1595.0,1753.5 1586.2,1753.0 1577.7,1753.9 1569.7,1756.2 1562.0,1760.0 1554.9,1765.1 1548.1,1771.7 1541.8,1779.6 1535.9,1788.9 1530.5,1799.4 1525.6,1811.2 1521.1,1824.2 1517.1,1838.3 1513.5,1853.5 1510.3,1869.6 1507.6,1886.6 1505.3,1904.5 1503.4,1923.1 1501.9,1942.2 1500.7,1961.9 1499.9,1981.9 1499.4,2002.1 1499.3,2022.5  A 522.500,522.500 0.00 0,1 1451.7,2020.3 L 1451.7,2020.3 1453.9,1999.5 1456.5,1978.8 1459.5,1958.3 1463.1,1938.1 1467.2,1918.3 1471.9,1899.0 1477.0,1880.3 1482.8,1862.2 1489.1,1845.0 1496.1,1828.6 1503.6,1813.1 1511.7,1798.6 1520.4,1785.2 1529.7,1772.8 1539.5,1761.6 1550.0,1751.5 1561.0,1742.7 1572.6,1735.1 1584.7,1728.7 1597.3,1723.6 1610.5,1719.8 1624.1,1717.3 1638.2,1716.0 1652.7,1716.0 1667.6,1717.3 1682.8,1719.8 1698.4,1723.5 1714.3,1728.3 1730.4,1734.3 1746.8,1741.3 1763.3,1749.3 1780.0,1758.4 1796.7,1768.2 1813.4,1779.0 1830.1,1790.4 1846.6,1802.5 1863.1,1815.2 1879.3,1828.3 1895.2,1841.8  Z" style="stroke-width: 0.5;  stroke: rgb(0,0,0); fill: rgb(179,177,178);" />
<path d="M 1768.810,1051.952 A 522.500,522.500 0.00 0,1 1878.4,1139.7 L 1878.4,1139.7 1860.9,1156.0 1843.0,1172.1 1824.7,1188.0 1805.8,1203.7 1786.6,1219.0 1766.9,1234.0 1746.8,1248.7 1726.4,1262.9 1705.5,1276.6 1684.2,1289.9 1662.6,1302.6 1640.6,1314.8 1618.3,1326.5 1595.7,1337.6 1572.7,1348.0 1549.5,1357.9 1526.0,1367.1 1502.3,1375.7 1478.3,1383.6 1454.1,1390.8 1429.8,1397.4 1405.2,1403.2 1380.6,1408.4 1355.7,1413.0 1330.8,1416.8 1305.8,1420.0 1280.8,1422.5 1255.7,1424.4 1230.6,1425.6 1205.6,1426.2 1180.6,1426.2 1155.7,1425.6 1130.9,1424.4 1106.2,1422.7 1081.7,1420.4 1057.3,1417.6 1033.3,1414.4 1009.4,1410.8 985.9,1406.7  A 522.500,522.500 0.00 0,1 1029.3,1273.3 L 1029.3,1273.3 1049.5,1282.7 1070.2,1291.8 1091.2,1300.3 1112.5,1308.3 1134.0,1315.6 1155.7,1322.3 1177.5,1328.3 1199.5,1333.5 1221.6,1337.8 1243.6,1341.4 1265.7,1344.0 1287.8,1345.7 1309.7,1346.5 1331.6,1346.3 1353.3,1345.2 1374.8,1343.0 1396.2,1339.9 1417.3,1335.7 1438.1,1330.6 1458.7,1324.4 1478.9,1317.3 1498.8,1309.2 1518.4,1300.1 1537.6,1290.0 1556.3,1279.1 1574.7,1267.2 1592.6,1254.5 1610.1,1240.9 1627.1,1226.6 1643.6,1211.5 1659.6,1195.8 1675.1,1179.4 1690.1,1162.4 1704.6,1144.9 1718.5,1126.9 1731.9,1108.6 1744.8,1089.9 1757.1,1071.0 1768.8,1052.0  Z" style="stroke-width: 0.5;  stroke: rgb(0,0,0); fill: rgb(179,177,178);" />
<path d="M 1638.371,996.155 A 522.500,522.500 0.00 0,1 1767.5,1051.1 L 1767.5,1051.1 1755.8,1070.2 1743.6,1089.2 1730.8,1107.8 1717.4,1126.2 1703.6,1144.2 1689.2,1161.7 1674.2,1178.8 1658.8,1195.2 1642.8,1211.0 1626.3,1226.1 1609.4,1240.4 1592.0,1254.0 1574.1,1266.7 1555.8,1278.6 1537.1,1289.6 1517.9,1299.6 1498.4,1308.7 1478.6,1316.9 1458.4,1324.0 1437.9,1330.2 1417.0,1335.3 1396.0,1339.5 1374.7,1342.6 1353.2,1344.8 1331.5,1345.9 1309.7,1346.1 1287.8,1345.3 1265.7,1343.6 1243.7,1340.9 1221.6,1337.4 1199.6,1333.0 1177.7,1327.8 1155.8,1321.8 1134.2,1315.1 1112.7,1307.7 1091.4,1299.7 1070.5,1291.2 1049.8,1282.1 1029.6,1272.6  A 522.500,522.500 0.00 0,1 1107.1,1155.5 L 1107.1,1155.5 1123.2,1169.3 1139.6,1182.7 1156.3,1195.7 1173.3,1208.0 1190.4,1219.8 1207.7,1230.8 1225.1,1241.0 1242.5,1250.3 1260.0,1258.7 1277.4,1266.1 1294.7,1272.4 1311.9,1277.6 1328.9,1281.7 1345.8,1284.6 1362.4,1286.3 1378.8,1286.8 1394.8,1286.1 1410.6,1284.1 1426.0,1280.8 1441.1,1276.3 1455.8,1270.5 1470.0,1263.5 1483.9,1255.3 1497.3,1245.9 1510.2,1235.3 1522.7,1223.6 1534.6,1210.8 1546.1,1196.9 1557.1,1182.1 1567.5,1166.4 1577.5,1149.8 1586.9,1132.4 1595.8,1114.3 1604.2,1095.6 1612.0,1076.4 1619.4,1056.7 1626.2,1036.7 1632.5,1016.5 1638.4,996.2  Z" style="stroke-width: 0.5;  stroke: rgb(0,0,0); fill: rgb(179,177,178);" />
<path d="M 2022.482,1504.279 A 522.500,522.500 0.00 0,1 2017.5,1571.9 L 2017.5,1571.9 1992.7,1568.6 1967.6,1565.6 1942.3,1562.8 1916.8,1560.3 1891.2,1558.1 1865.3,1556.2 1839.4,1554.7 1813.3,1553.5 1787.1,1552.7 1760.8,1552.3 1734.5,1552.2 1708.1,1552.5 1681.6,1553.3 1655.1,1554.4 1628.5,1555.9 1602.0,1557.8 1575.5,1560.2 1548.9,1563.0 1522.5,1566.2 1496.0,1569.8 1469.7,1573.8 1443.4,1578.2 1417.2,1583.0 1391.1,1588.2 1365.1,1593.9 1339.3,1599.9 1313.6,1606.3 1288.0,1613.0 1262.6,1620.1 1237.4,1627.6 1212.4,1635.4 1187.6,1643.5 1163.0,1651.9 1138.6,1660.6 1114.5,1669.5 1090.6,1678.8 1067.0,1688.2 1043.6,1697.9 1020.6,1707.7  A 522.500,522.500 0.00 0,1 997.7,1643.8 L 997.7,1643.8 1022.6,1636.8 1047.7,1629.8 1072.9,1623.0 1098.3,1616.3 1123.8,1609.8 1149.4,1603.4 1175.2,1597.2 1201.0,1591.1 1227.0,1585.3 1253.1,1579.6 1279.3,1574.0 1305.6,1568.7 1331.9,1563.6 1358.4,1558.7 1384.9,1554.0 1411.4,1549.5 1438.1,1545.2 1464.7,1541.1 1491.4,1537.2 1518.2,1533.6 1545.0,1530.2 1571.8,1527.0 1598.6,1524.0 1625.4,1521.2 1652.2,1518.7 1679.0,1516.3 1705.7,1514.2 1732.5,1512.3 1759.2,1510.6 1785.8,1509.2 1812.4,1507.9 1839.0,1506.8 1865.5,1505.9 1891.9,1505.2 1918.2,1504.7 1944.4,1504.3 1970.6,1504.2 1996.6,1504.1 2022.5,1504.3  Z" style="stroke-width: 0.5;  stroke: rgb(0,0,0); fill: rgb(179,177,178);" />
<path d="M 2017.327,1573.342 A 522.500,522.500 0.00 0,1 2005.4,1632.7 L 2005.4,1632.7 1981.8,1626.7 1957.9,1621.0 1933.7,1615.7 1909.2,1610.7 1884.5,1606.2 1859.6,1602.0 1834.5,1598.4 1809.2,1595.2 1783.8,1592.5 1758.3,1590.3 1732.6,1588.6 1706.9,1587.5 1681.1,1586.9 1655.2,1586.9 1629.4,1587.5 1603.5,1588.6 1577.6,1590.3 1551.8,1592.6 1526.0,1595.5 1500.2,1599.0 1474.6,1603.0 1449.1,1607.6 1423.7,1612.8 1398.4,1618.6 1373.3,1624.9 1348.4,1631.8 1323.7,1639.1 1299.1,1647.0 1274.8,1655.4 1250.8,1664.3 1227.0,1673.7 1203.5,1683.4 1180.2,1693.6 1157.3,1704.2 1134.7,1715.1 1112.4,1726.4 1090.5,1737.9 1069.0,1749.7 1047.8,1761.8  A 522.500,522.500 0.00 0,1 1020.6,1707.7 L 1020.6,1707.7 1043.6,1697.9 1067.0,1688.2 1090.6,1678.8 1114.5,1669.6 1138.6,1660.6 1163.0,1651.9 1187.6,1643.5 1212.4,1635.4 1237.4,1627.6 1262.6,1620.2 1288.0,1613.1 1313.5,1606.4 1339.2,1600.0 1365.1,1594.0 1391.1,1588.4 1417.2,1583.2 1443.3,1578.5 1469.6,1574.1 1496.0,1570.1 1522.4,1566.5 1548.9,1563.4 1575.4,1560.7 1601.9,1558.3 1628.5,1556.4 1655.0,1555.0 1681.5,1553.9 1708.0,1553.2 1734.4,1552.9 1760.8,1553.1 1787.0,1553.6 1813.2,1554.4 1839.3,1555.7 1865.2,1557.3 1891.0,1559.2 1916.7,1561.4 1942.1,1564.0 1967.4,1566.8 1992.5,1570.0 2017.3,1573.3  Z" style="stroke-width: 0.5;  stroke: rgb(0,0,0); fill: rgb(179,177,178);" />
<path d="M 1995.078,1332.955 A 522.500,522.500 0.00 0,1 2010.2,1387.4 L 2010.2,1387.4 1984.1,1393.2 1958.0,1398.9 1931.9,1404.6 1905.8,1410.3 1879.7,1416.0 1853.5,1421.7 1827.3,1427.4 1801.1,1433.0 1774.9,1438.7 1748.7,1444.3 1722.5,1449.9 1696.3,1455.4 1670.0,1461.0 1643.8,1466.5 1617.5,1472.0 1591.3,1477.5 1565.0,1483.0 1538.7,1488.5 1512.4,1493.9 1486.2,1499.3 1459.9,1504.7 1433.6,1510.1 1407.3,1515.4 1381.0,1520.7 1354.7,1526.1 1328.4,1531.3 1302.1,1536.6 1275.8,1541.8 1249.5,1547.1 1223.2,1552.3 1196.9,1557.4 1170.6,1562.6 1144.3,1567.7 1118.0,1572.8 1091.8,1577.9 1065.5,1583.0 1039.3,1588.1 1013.0,1593.1 986.8,1598.1  A 522.500,522.500 0.00 0,1 979.2,1542.1 L 979.2,1542.1 1005.1,1539.9 1031.2,1537.6 1057.3,1535.2 1083.5,1532.6 1109.8,1529.8 1136.1,1526.9 1162.5,1523.9 1188.9,1520.6 1215.3,1517.2 1241.8,1513.6 1268.4,1509.8 1294.9,1505.8 1321.5,1501.7 1348.0,1497.4 1374.6,1492.9 1401.1,1488.2 1427.7,1483.3 1454.2,1478.2 1480.6,1472.9 1507.1,1467.5 1533.5,1461.9 1559.9,1456.1 1586.2,1450.1 1612.4,1443.9 1638.6,1437.6 1664.7,1431.0 1690.7,1424.4 1716.7,1417.5 1742.5,1410.5 1768.3,1403.3 1794.0,1396.0 1819.5,1388.6 1845.0,1381.0 1870.3,1373.3 1895.5,1365.4 1920.6,1357.5 1945.6,1349.4 1970.4,1341.2 1995.1,1333.0  Z" style="stroke-width: 0.5;  stroke: rgb(0,0,0); fill: rgb(179,177,178);" />
<path d="M 1968.439,1268.546 A 522.500,522.500 0.00 0,1 1987.0,1310.7 L 1987.0,1310.7 1963.0,1319.9 1938.7,1329.1 1914.3,1338.1 1889.8,1346.9 1865.0,1355.6 1840.1,1364.2 1815.0,1372.5 1789.8,1380.7 1764.5,1388.7 1739.0,1396.5 1713.4,1404.0 1687.6,1411.4 1661.8,1418.5 1635.8,1425.5 1609.8,1432.1 1583.6,1438.6 1557.4,1444.8 1531.1,1450.7 1504.8,1456.4 1478.4,1461.9 1451.9,1467.1 1425.4,1472.0 1398.9,1476.7 1372.3,1481.1 1345.8,1485.3 1319.2,1489.2 1292.6,1492.9 1266.1,1496.4 1239.5,1499.5 1213.1,1502.5 1186.6,1505.2 1160.2,1507.7 1133.9,1509.9 1107.6,1511.9 1081.5,1513.7 1055.4,1515.3 1029.4,1516.7 1003.6,1517.9 977.8,1518.9  A 522.500,522.500 0.00 0,1 978.2,1473.5 L 978.2,1473.5 1003.3,1474.7 1028.7,1475.5 1054.3,1476.2 1079.9,1476.5 1105.8,1476.5 1131.7,1476.2 1157.8,1475.6 1184.0,1474.7 1210.2,1473.4 1236.6,1471.8 1262.9,1469.8 1289.3,1467.4 1315.7,1464.6 1342.2,1461.5 1368.6,1458.0 1395.0,1454.1 1421.4,1449.9 1447.7,1445.2 1474.0,1440.2 1500.2,1434.8 1526.3,1429.0 1552.3,1422.8 1578.2,1416.2 1603.9,1409.3 1629.6,1402.0 1655.1,1394.4 1680.4,1386.4 1705.6,1378.1 1730.6,1369.5 1755.4,1360.6 1780.0,1351.3 1804.4,1341.8 1828.6,1332.0 1852.5,1322.0 1876.2,1311.7 1899.7,1301.2 1922.9,1290.5 1945.8,1279.6 1968.4,1268.5  Z" style="stroke-width: 0.5;  stroke: rgb(0,0,0); fill: rgb(179,177,178);" />
<path d="M 1926.167,1802.304 A 522.500,522.500 0.00 0,1 1898.9,1837.5 L 1898.9,1837.5 1882.8,1824.2 1866.4,1811.2 1849.8,1798.7 1833.1,1786.8 1816.2,1775.5 1799.3,1764.9 1782.4,1755.2 1765.6,1746.4 1748.9,1738.5 1732.4,1731.6 1716.1,1725.8 1700.0,1721.2 1684.3,1717.6 1668.8,1715.3 1653.7,1714.2 1639.1,1714.3 1624.8,1715.7 1611.0,1718.4 1597.7,1722.3 1584.9,1727.5 1572.7,1733.9 1560.9,1741.7 1549.8,1750.6 1539.2,1760.7 1529.1,1772.0 1519.7,1784.5 1510.8,1798.0 1502.6,1812.6 1494.9,1828.1 1487.9,1844.5 1481.4,1861.8 1475.5,1879.9 1470.2,1898.6 1465.5,1918.0 1461.2,1937.8 1457.5,1958.0 1454.4,1978.6 1451.7,1999.3 1449.4,2020.0  A 522.500,522.500 0.00 0,1 1405.3,2013.8 L 1405.3,2013.8 1409.4,1993.0 1414.0,1972.3 1419.1,1951.7 1424.7,1931.5 1430.9,1911.6 1437.7,1892.2 1445.1,1873.3 1453.0,1855.1 1461.5,1837.7 1470.7,1821.0 1480.4,1805.2 1490.7,1790.3 1501.7,1776.4 1513.2,1763.6 1525.2,1751.8 1537.9,1741.1 1551.1,1731.5 1564.8,1723.1 1579.1,1715.9 1593.9,1709.9 1609.1,1705.2 1624.8,1701.6 1640.9,1699.2 1657.4,1698.1 1674.3,1698.1 1691.5,1699.3 1709.1,1701.7 1726.8,1705.1 1744.8,1709.7 1763.0,1715.2 1781.3,1721.8 1799.7,1729.3 1818.1,1737.7 1836.5,1746.9 1854.8,1756.8 1873.0,1767.4 1891.0,1778.6 1908.7,1790.2 1926.2,1802.3  Z" style="stroke-width: 0.5;  stroke: rgb(0,0,0); fill: rgb(179,177,178);" />
<path d="M 1962.161,1743.749 A 522.500,522.500 0.00 0,1 1944.7,1774.3 L 1944.7,1774.3 1926.3,1763.3 1907.6,1752.6 1888.6,1742.5 1869.4,1733.0 1850.1,1724.2 1830.7,1716.0 1811.2,1708.7 1791.7,1702.3 1772.3,1696.7 1753.0,1692.1 1733.9,1688.6 1714.9,1686.1 1696.2,1684.6 1677.8,1684.3 1659.6,1685.0 1641.8,1687.0 1624.4,1690.1 1607.4,1694.3 1590.9,1699.7 1574.8,1706.3 1559.1,1714.0 1544.0,1722.9 1529.4,1732.8 1515.4,1743.9 1501.9,1756.0 1488.9,1769.2 1476.6,1783.3 1464.8,1798.4 1453.6,1814.3 1443.0,1831.1 1433.0,1848.6 1423.6,1866.8 1414.8,1885.7 1406.6,1905.1 1399.0,1924.9 1391.9,1945.2 1385.4,1965.7 1379.5,1986.3 1374.1,2007.1  A 522.500,522.500 0.00 0,1 1340.2,1997.5 L 1340.2,1997.5 1347.1,1976.9 1354.6,1956.3 1362.6,1936.0 1371.2,1915.9 1380.4,1896.1 1390.1,1876.9 1400.5,1858.1 1411.4,1839.9 1422.9,1822.4 1435.1,1805.6 1447.8,1789.6 1461.1,1774.4 1474.9,1760.2 1489.4,1746.8 1504.3,1734.4 1519.9,1723.0 1535.9,1712.7 1552.4,1703.4 1569.4,1695.2 1586.9,1688.0 1604.8,1682.0 1623.1,1677.1 1641.8,1673.3 1660.9,1670.6 1680.2,1668.9 1699.9,1668.4 1719.8,1668.9 1739.9,1670.4 1760.2,1673.0 1780.6,1676.5 1801.1,1680.9 1821.6,1686.3 1842.1,1692.4 1862.6,1699.4 1883.0,1707.1 1903.2,1715.4 1923.1,1724.4 1942.8,1733.8 1962.2,1743.7  Z" style="stroke-width: 0.5;  stroke: rgb(0,0,0); fill: rgb(179,177,178);" />
<path d="M 1500.000,977.500 A 522.500,522.500 0.00 0,1 1523.2,978.0 L 1523.2,978.0 1522.1,998.5 1520.7,1018.9 1518.9,1039.0 1516.7,1058.8 1514.0,1078.2 1510.9,1096.9 1507.4,1115.0 1503.4,1132.3 1498.9,1148.8 1494.0,1164.3 1488.5,1178.7 1482.6,1192.1 1476.2,1204.3 1469.2,1215.4 1461.8,1225.1 1453.9,1233.6 1445.6,1240.8 1436.7,1246.6 1427.4,1251.0 1417.7,1254.0 1407.5,1255.7 1397.0,1256.0 1386.0,1254.9 1374.7,1252.4 1363.0,1248.6 1351.1,1243.5 1338.8,1237.1 1326.3,1229.5 1313.6,1220.7 1300.7,1210.8 1287.7,1199.8 1274.5,1187.9 1261.3,1175.0 1248.1,1161.4 1234.9,1147.0 1221.8,1132.0 1208.8,1116.5 1196.0,1100.5 1183.4,1084.3  A 522.500,522.500 0.00 0,1 1209.1,1066.0 L 1209.1,1066.0 1220.6,1082.8 1232.3,1099.4 1244.1,1115.6 1256.0,1131.3 1268.0,1146.4 1280.0,1160.8 1292.0,1174.4 1303.8,1187.0 1315.6,1198.7 1327.1,1209.3 1338.5,1218.8 1349.7,1227.1 1360.6,1234.2 1371.2,1239.9 1381.4,1244.4 1391.4,1247.4 1400.9,1249.1 1410.1,1249.4 1418.9,1248.3 1427.3,1245.8 1435.2,1241.8 1442.6,1236.5 1449.6,1229.7 1456.2,1221.6 1462.2,1212.2 1467.8,1201.5 1473.0,1189.6 1477.6,1176.5 1481.8,1162.3 1485.5,1147.0 1488.7,1130.8 1491.5,1113.7 1493.9,1095.7 1495.9,1077.1 1497.4,1057.9 1498.6,1038.2 1499.4,1018.2 1499.9,997.9 1500.0,977.5  Z" style="stroke-width: 0.5;  stroke: rgb(0,0,0); fill: rgb(179,177,178);" />
<path d="M 1936.700,1213.121 A 522.500,522.500 0.00 0,1 1952.1,1238.0 L 1952.1,1238.0 1930.6,1250.3 1908.7,1262.4 1886.5,1274.3 1864.0,1285.9 1841.2,1297.3 1818.1,1308.4 1794.7,1319.1 1771.1,1329.6 1747.2,1339.7 1723.0,1349.4 1698.6,1358.7 1674.0,1367.6 1649.2,1376.1 1624.2,1384.2 1599.0,1391.8 1573.6,1399.0 1548.1,1405.7 1522.4,1412.0 1496.7,1417.7 1470.8,1423.0 1444.8,1427.8 1418.8,1432.2 1392.7,1436.0 1366.5,1439.3 1340.4,1442.2 1314.2,1444.6 1288.0,1446.5 1261.9,1448.0 1235.8,1449.0 1209.7,1449.5 1183.8,1449.6 1157.9,1449.3 1132.2,1448.6 1106.6,1447.4 1081.2,1445.9 1055.9,1444.0 1030.8,1441.8 1006.0,1439.2 981.4,1436.4  A 522.500,522.500 0.00 0,1 985.8,1407.5 L 985.8,1407.5 1009.8,1411.6 1034.2,1415.4 1058.8,1418.9 1083.6,1421.9 1108.6,1424.6 1133.8,1426.8 1159.2,1428.6 1184.7,1429.9 1210.3,1430.7 1236.0,1431.0 1261.8,1430.7 1287.7,1430.0 1313.5,1428.7 1339.4,1426.8 1365.2,1424.4 1391.1,1421.5 1416.8,1418.0 1442.5,1413.9 1468.2,1409.2 1493.7,1404.0 1519.1,1398.2 1544.3,1391.9 1569.4,1385.0 1594.3,1377.6 1619.0,1369.7 1643.5,1361.2 1667.8,1352.3 1691.9,1342.8 1715.7,1332.9 1739.2,1322.6 1762.5,1311.8 1785.4,1300.6 1808.1,1289.0 1830.4,1277.1 1852.4,1264.8 1874.0,1252.3 1895.3,1239.4 1916.2,1226.4 1936.7,1213.1  Z" style="stroke-width: 0.5;  stroke: rgb(0,0,0); fill: rgb(179,177,178);" />
<path d="M 1992.342,1674.944 A 522.500,522.500 0.00 0,1 1981.9,1702.0 L 1981.9,1702.0 1960.9,1693.5 1939.6,1685.4 1918.0,1677.9 1896.1,1670.9 1874.0,1664.5 1851.6,1658.8 1829.1,1653.8 1806.6,1649.5 1783.9,1646.0 1761.2,1643.4 1738.5,1641.5 1715.9,1640.6 1693.3,1640.6 1670.9,1641.4 1648.6,1643.3 1626.4,1646.0 1604.5,1649.7 1582.7,1654.4 1561.3,1660.0 1540.1,1666.6 1519.2,1674.1 1498.7,1682.6 1478.5,1691.9 1458.7,1702.2 1439.2,1713.3 1420.2,1725.3 1401.6,1738.1 1383.5,1751.7 1365.8,1766.1 1348.6,1781.1 1331.9,1796.8 1315.7,1813.1 1300.0,1830.0 1284.9,1847.3 1270.2,1865.1 1256.2,1883.3 1242.6,1901.8 1229.6,1920.5 1217.1,1939.3  A 522.500,522.500 0.00 0,1 1193.2,1922.9 L 1193.2,1922.9 1206.8,1904.6 1221.0,1886.3 1235.8,1868.3 1251.0,1850.6 1266.8,1833.3 1283.1,1816.4 1299.9,1799.9 1317.2,1784.0 1335.0,1768.7 1353.2,1753.9 1371.9,1739.9 1391.0,1726.5 1410.6,1713.8 1430.6,1702.0 1451.0,1690.9 1471.7,1680.6 1492.8,1671.1 1514.2,1662.6 1536.0,1654.8 1558.0,1648.0 1580.3,1642.1 1602.8,1637.0 1625.5,1632.8 1648.5,1629.6 1671.5,1627.2 1694.7,1625.7 1718.0,1625.0 1741.4,1625.2 1764.8,1626.2 1788.1,1628.0 1811.5,1630.6 1834.8,1634.0 1857.9,1638.0 1880.9,1642.7 1903.8,1648.1 1926.3,1654.0 1948.7,1660.5 1970.7,1667.5 1992.3,1674.9  Z" style="stroke-width: 0.5;  stroke: rgb(0,0,0); fill: rgb(179,177,178);" />
<path d="M 1956.230,1245.323 A 522.500,522.500 0.00 0,1 1968.4,1268.5 L 1968.4,1268.5 1945.8,1279.5 1922.8,1290.4 1899.6,1301.1 1876.2,1311.6 1852.5,1321.9 1828.6,1331.9 1804.4,1341.7 1780.0,1351.2 1755.4,1360.5 1730.6,1369.4 1705.6,1378.0 1680.4,1386.3 1655.1,1394.3 1629.6,1401.9 1603.9,1409.2 1578.2,1416.1 1552.3,1422.6 1526.3,1428.8 1500.1,1434.6 1474.0,1440.0 1447.7,1445.0 1421.4,1449.6 1395.0,1453.9 1368.6,1457.7 1342.2,1461.2 1315.7,1464.3 1289.3,1467.0 1262.9,1469.4 1236.6,1471.4 1210.2,1473.0 1184.0,1474.2 1157.8,1475.1 1131.8,1475.7 1105.8,1476.0 1080.0,1475.9 1054.3,1475.6 1028.7,1474.9 1003.4,1474.0 978.2,1472.8  A 522.500,522.500 0.00 0,1 980.2,1446.7 L 980.2,1446.7 1005.0,1449.1 1030.0,1451.2 1055.2,1453.0 1080.6,1454.4 1106.1,1455.5 1131.8,1456.3 1157.7,1456.6 1183.6,1456.6 1209.7,1456.1 1235.8,1455.3 1262.0,1454.0 1288.2,1452.3 1314.4,1450.1 1340.7,1447.5 1366.9,1444.4 1393.2,1440.9 1419.3,1436.9 1445.5,1432.4 1471.5,1427.5 1497.5,1422.2 1523.3,1416.4 1549.1,1410.1 1574.7,1403.4 1600.2,1396.3 1625.5,1388.7 1650.6,1380.7 1675.6,1372.3 1700.4,1363.5 1724.9,1354.3 1749.2,1344.8 1773.3,1334.9 1797.2,1324.7 1820.8,1314.1 1844.1,1303.3 1867.1,1292.1 1889.9,1280.7 1912.3,1269.1 1934.4,1257.3 1956.2,1245.3  Z" style="stroke-width: 0.5;  stroke: rgb(0,0,0); fill: rgb(179,177,178);" />
<path d="M 1944.030,1775.397 A 522.500,522.500 0.00 0,1 1929.9,1796.9 L 1929.9,1796.9 1912.3,1785.1 1894.4,1773.6 1876.2,1762.6 1857.8,1752.2 1839.3,1742.5 1820.7,1733.5 1802.1,1725.4 1783.5,1718.1 1765.0,1711.7 1746.6,1706.3 1728.4,1702.0 1710.4,1698.7 1692.6,1696.5 1675.2,1695.5 1658.0,1695.6 1641.3,1696.9 1624.9,1699.4 1609.0,1703.1 1593.5,1708.0 1578.5,1714.2 1564.0,1721.5 1550.0,1730.0 1536.5,1739.6 1523.6,1750.4 1511.3,1762.2 1499.5,1775.2 1488.3,1789.1 1477.7,1804.0 1467.7,1819.9 1458.3,1836.6 1449.5,1854.1 1441.3,1872.3 1433.7,1891.1 1426.7,1910.6 1420.2,1930.4 1414.3,1950.7 1409.0,1971.3 1404.2,1992.0 1399.9,2012.8  A 522.500,522.500 0.00 0,1 1374.8,2007.3 L 1374.8,2007.3 1380.2,1986.5 1386.1,1965.8 1392.5,1945.3 1399.6,1925.1 1407.2,1905.3 1415.3,1885.9 1424.1,1867.0 1433.5,1848.8 1443.4,1831.3 1454.0,1814.5 1465.1,1798.6 1476.9,1783.5 1489.2,1769.4 1502.1,1756.3 1515.5,1744.2 1529.6,1733.1 1544.1,1723.2 1559.2,1714.3 1574.8,1706.6 1590.9,1700.1 1607.4,1694.7 1624.4,1690.5 1641.7,1687.4 1659.5,1685.5 1677.6,1684.8 1696.0,1685.2 1714.7,1686.6 1733.6,1689.2 1752.7,1692.8 1771.9,1697.4 1791.3,1703.0 1810.7,1709.5 1830.2,1716.9 1849.6,1725.0 1868.9,1733.9 1888.0,1743.5 1907.0,1753.6 1925.7,1764.3 1944.0,1775.4  Z" style="stroke-width: 0.5;  stroke: rgb(0,0,0); fill: rgb(179,177,178);" />
<path d="M 1525.890,978.142 A 522.500,522.500 0.00 0,1 1550.4,979.9 L 1550.4,979.9 1548.2,1000.5 1545.7,1020.9 1542.7,1041.1 1539.2,1060.9 1535.4,1080.3 1531.0,1099.2 1526.2,1117.3 1520.9,1134.7 1515.1,1151.3 1508.9,1166.9 1502.1,1181.6 1494.8,1195.1 1487.0,1207.6 1478.8,1218.8 1470.0,1228.8 1460.8,1237.6 1451.0,1245.1 1440.9,1251.2 1430.2,1256.0 1419.2,1259.4 1407.7,1261.5 1395.9,1262.2 1383.6,1261.6 1371.0,1259.6 1358.1,1256.3 1344.9,1251.7 1331.5,1245.9 1317.8,1238.8 1303.9,1230.6 1289.9,1221.3 1275.8,1210.9 1261.5,1199.6 1247.3,1187.3 1233.0,1174.3 1218.8,1160.5 1204.8,1146.1 1190.9,1131.1 1177.2,1115.8 1163.7,1100.1  A 522.500,522.500 0.00 0,1 1182.9,1084.8 L 1182.9,1084.8 1195.4,1101.0 1208.3,1116.9 1221.3,1132.4 1234.4,1147.4 1247.7,1161.7 1260.9,1175.4 1274.2,1188.2 1287.4,1200.1 1300.5,1211.1 1313.4,1221.0 1326.2,1229.8 1338.8,1237.4 1351.1,1243.7 1363.2,1248.8 1374.9,1252.6 1386.3,1255.1 1397.3,1256.2 1408.0,1255.9 1418.2,1254.2 1428.0,1251.2 1437.4,1246.7 1446.4,1240.9 1454.8,1233.8 1462.8,1225.3 1470.4,1215.5 1477.4,1204.5 1483.9,1192.2 1490.0,1178.9 1495.5,1164.4 1500.6,1148.9 1505.2,1132.5 1509.3,1115.1 1512.9,1097.1 1516.1,1078.3 1518.9,1059.0 1521.2,1039.2 1523.2,1019.0 1524.7,998.6 1525.9,978.1  Z" style="stroke-width: 0.5;  stroke: rgb(0,0,0); fill: rgb(179,177,178);" />
<path d="M 1987.541,1312.089 A 522.500,522.500 0.00 0,1 1994.9,1332.5 L 1994.9,1332.5 1970.2,1340.7 1945.4,1348.9 1920.5,1357.0 1895.4,1365.0 1870.2,1372.9 1844.9,1380.6 1819.4,1388.2 1793.9,1395.7 1768.2,1403.0 1742.5,1410.2 1716.6,1417.2 1690.7,1424.0 1664.6,1430.7 1638.5,1437.3 1612.3,1443.6 1586.1,1449.8 1559.8,1455.8 1533.4,1461.6 1507.0,1467.2 1480.6,1472.6 1454.1,1477.9 1427.6,1483.0 1401.1,1487.8 1374.5,1492.5 1348.0,1497.0 1321.4,1501.3 1294.8,1505.5 1268.3,1509.4 1241.8,1513.2 1215.3,1516.7 1188.8,1520.1 1162.4,1523.4 1136.0,1526.4 1109.7,1529.3 1083.4,1532.0 1057.2,1534.6 1031.1,1537.0 1005.1,1539.3 979.1,1541.4  A 522.500,522.500 0.00 0,1 977.9,1519.8 L 977.9,1519.8 1003.6,1518.7 1029.5,1517.5 1055.5,1516.0 1081.5,1514.4 1107.7,1512.6 1134.0,1510.5 1160.3,1508.3 1186.7,1505.8 1213.2,1503.0 1239.7,1500.1 1266.2,1496.9 1292.7,1493.5 1319.3,1489.8 1345.9,1485.8 1372.4,1481.7 1399.0,1477.2 1425.5,1472.5 1452.0,1467.6 1478.5,1462.4 1504.9,1457.0 1531.3,1451.3 1557.6,1445.4 1583.8,1439.2 1610.0,1432.8 1636.0,1426.1 1662.0,1419.3 1687.9,1412.2 1713.6,1404.9 1739.2,1397.3 1764.8,1389.6 1790.1,1381.6 1815.4,1373.5 1840.5,1365.2 1865.4,1356.7 1890.2,1348.1 1914.8,1339.3 1939.2,1330.3 1963.5,1321.3 1987.5,1312.1  Z" style="stroke-width: 0.5;  stroke: rgb(0,0,0); fill: rgb(179,177,178);" />
<path d="M 2013.338,1402.580 A 522.500,522.500 0.00 0,1 2016.1,1418.6 L 2016.1,1418.6 1989.9,1422.8 1963.7,1427.0 1937.5,1431.2 1911.2,1435.6 1884.9,1439.9 1858.6,1444.4 1832.2,1448.9 1805.8,1453.5 1779.5,1458.1 1753.1,1462.8 1726.7,1467.6 1700.3,1472.4 1673.8,1477.3 1647.4,1482.3 1621.0,1487.4 1594.6,1492.5 1568.2,1497.7 1541.8,1502.9 1515.4,1508.2 1489.0,1513.6 1462.7,1519.1 1436.3,1524.6 1410.0,1530.2 1383.7,1535.9 1357.5,1541.6 1331.2,1547.4 1305.0,1553.2 1278.8,1559.1 1252.6,1565.1 1226.5,1571.1 1200.4,1577.2 1174.4,1583.4 1148.4,1589.6 1122.4,1595.8 1096.5,1602.1 1070.6,1608.4 1044.8,1614.8 1019.1,1621.2 993.3,1627.7  A 522.500,522.500 0.00 0,1 989.6,1611.9 L 989.6,1611.9 1015.7,1606.2 1041.8,1600.5 1067.9,1594.8 1094.1,1589.1 1120.2,1583.4 1146.4,1577.8 1172.6,1572.2 1198.8,1566.6 1225.0,1561.0 1251.2,1555.4 1277.4,1549.8 1303.6,1544.3 1329.9,1538.8 1356.2,1533.3 1382.4,1527.8 1408.7,1522.3 1435.0,1516.9 1461.3,1511.5 1487.5,1506.1 1513.8,1500.7 1540.1,1495.4 1566.4,1490.0 1592.7,1484.7 1619.1,1479.4 1645.4,1474.2 1671.7,1468.9 1698.0,1463.7 1724.3,1458.5 1750.6,1453.3 1776.9,1448.1 1803.2,1443.0 1829.5,1437.9 1855.8,1432.8 1882.1,1427.7 1908.3,1422.6 1934.6,1417.6 1960.9,1412.6 1987.1,1407.6 2013.3,1402.6  Z" style="stroke-width: 0.5;  stroke: rgb(0,0,0); fill: rgb(179,177,178);" />
<path d="M 1971.819,1724.485 A 522.500,522.500 0.00 0,1 1964.8,1738.6 L 1964.8,1738.6 1945.3,1728.9 1925.4,1719.6 1905.2,1710.8 1884.8,1702.6 1864.2,1695.1 1843.5,1688.3 1822.7,1682.3 1801.9,1677.1 1781.2,1672.8 1760.5,1669.4 1739.9,1667.0 1719.4,1665.6 1699.2,1665.1 1679.1,1665.8 1659.4,1667.5 1639.9,1670.2 1620.8,1674.1 1602.0,1679.0 1583.7,1685.0 1565.7,1692.1 1548.2,1700.3 1531.1,1709.6 1514.5,1719.9 1498.5,1731.2 1482.9,1743.5 1467.9,1756.7 1453.4,1770.9 1439.5,1785.9 1426.1,1801.8 1413.4,1818.5 1401.2,1835.8 1389.6,1853.8 1378.5,1872.5 1368.1,1891.6 1358.2,1911.1 1349.0,1931.1 1340.3,1951.3 1332.1,1971.7 1324.5,1992.2  A 522.500,522.500 0.00 0,0 1339.5,1997.2 L 1339.5,1997.2 1346.4,1976.5 1353.9,1955.9 1362.0,1935.4 1370.7,1915.2 1380.0,1895.4 1389.8,1875.9 1400.3,1857.0 1411.4,1838.6 1423.0,1820.9 1435.3,1803.9 1448.2,1787.6 1461.6,1772.2 1475.6,1757.6 1490.3,1743.9 1505.4,1731.1 1521.2,1719.3 1537.4,1708.5 1554.2,1698.8 1571.5,1690.1 1589.2,1682.4 1607.4,1675.8 1626.0,1670.3 1645.0,1665.9 1664.4,1662.6 1684.1,1660.3 1704.1,1659.1 1724.3,1658.9 1744.8,1659.7 1765.4,1661.5 1786.2,1664.3 1807.1,1667.9 1828.1,1672.5 1849.0,1677.9 1869.9,1684.0 1890.7,1690.9 1911.4,1698.5 1931.8,1706.7 1952.0,1715.3 1971.8,1724.5  Z" style="stroke-width: 0.5;  stroke: rgb(0,0,0); fill: rgb(179,177,178);" />
<path d="M 2005.106,1633.693 A 522.500,522.500 0.00 0,1 2000.9,1648.8 L 2000.9,1648.8 1977.6,1642.1 1954.1,1635.7 1930.2,1629.7 1906.1,1624.1 1881.7,1619.0 1857.1,1614.3 1832.3,1610.0 1807.3,1606.3 1782.2,1603.1 1756.9,1600.4 1731.5,1598.3 1706.0,1596.8 1680.4,1595.8 1654.8,1595.5 1629.2,1595.8 1603.5,1596.7 1577.9,1598.2 1552.3,1600.3 1526.7,1603.1 1501.3,1606.5 1475.9,1610.5 1450.6,1615.2 1425.5,1620.4 1400.5,1626.3 1375.7,1632.8 1351.0,1639.8 1326.6,1647.4 1302.4,1655.6 1278.4,1664.3 1254.7,1673.5 1231.3,1683.2 1208.2,1693.3 1185.3,1703.9 1162.8,1714.9 1140.7,1726.3 1118.9,1738.0 1097.4,1750.1 1076.4,1762.4 1055.7,1774.9  A 522.500,522.500 0.00 0,1 1047.6,1761.5 L 1047.6,1761.5 1068.8,1749.5 1090.4,1737.7 1112.3,1726.1 1134.6,1714.9 1157.2,1704.0 1180.1,1693.4 1203.3,1683.3 1226.9,1673.5 1250.7,1664.2 1274.7,1655.4 1299.0,1647.0 1323.5,1639.1 1348.3,1631.7 1373.2,1624.9 1398.3,1618.6 1423.6,1612.9 1449.0,1607.7 1474.5,1603.1 1500.1,1599.1 1525.9,1595.7 1551.6,1592.8 1577.5,1590.6 1603.4,1588.9 1629.2,1587.8 1655.1,1587.3 1681.0,1587.3 1706.8,1588.0 1732.5,1589.1 1758.1,1590.8 1783.7,1593.1 1809.1,1595.8 1834.3,1599.1 1859.4,1602.8 1884.3,1606.9 1909.0,1611.5 1933.4,1616.5 1957.6,1621.9 1981.5,1627.6 2005.1,1633.7  Z" style="stroke-width: 0.5;  stroke: rgb(0,0,0); fill: rgb(179,177,178);" />
<path d="M 1981.521,1702.840 A 522.500,522.500 0.00 0,1 1976.0,1715.5 L 1976.0,1715.5 1955.4,1706.5 1934.5,1697.9 1913.2,1689.8 1891.7,1682.3 1869.9,1675.4 1848.0,1669.2 1825.9,1663.7 1803.7,1658.9 1781.4,1655.0 1759.1,1651.9 1736.8,1649.7 1714.5,1648.4 1692.3,1648.0 1670.3,1648.5 1648.4,1650.1 1626.6,1652.5 1605.1,1656.0 1583.8,1660.5 1562.8,1665.9 1542.1,1672.3 1521.7,1679.8 1501.6,1688.1 1481.9,1697.4 1462.6,1707.7 1443.6,1718.8 1425.1,1730.8 1407.1,1743.7 1389.5,1757.4 1372.3,1771.8 1355.7,1787.0 1339.6,1802.9 1323.9,1819.3 1308.8,1836.4 1294.2,1853.9 1280.2,1871.9 1266.7,1890.3 1253.7,1909.0 1241.3,1927.9 1229.5,1947.0  A 522.500,522.500 0.00 0,1 1217.7,1939.7 L 1217.7,1939.7 1230.2,1920.8 1243.1,1902.1 1256.7,1883.6 1270.7,1865.5 1285.3,1847.7 1300.5,1830.3 1316.1,1813.4 1332.3,1797.1 1349.0,1781.4 1366.1,1766.4 1383.8,1752.0 1401.9,1738.4 1420.4,1725.6 1439.4,1713.6 1458.8,1702.5 1478.6,1692.2 1498.8,1682.9 1519.3,1674.4 1540.2,1666.9 1561.3,1660.4 1582.8,1654.8 1604.5,1650.1 1626.4,1646.4 1648.5,1643.7 1670.8,1641.9 1693.3,1641.0 1715.8,1641.1 1738.4,1642.0 1761.1,1643.9 1783.7,1646.6 1806.4,1650.1 1828.9,1654.4 1851.4,1659.4 1873.7,1665.2 1895.8,1671.6 1917.7,1678.6 1939.3,1686.2 1960.6,1694.3 1981.5,1702.8  Z" style="stroke-width: 0.5;  stroke: rgb(0,0,0); fill: rgb(179,177,178);" />
<path d="M 1561.335,981.112 A 522.500,522.500 0.00 0,1 1573.8,982.7 L 1573.8,982.7 1570.7,1003.3 1567.1,1023.7 1563.1,1043.9 1558.7,1063.8 1553.7,1083.2 1548.3,1102.0 1542.4,1120.2 1536.0,1137.7 1529.1,1154.3 1521.7,1170.0 1513.8,1184.8 1505.3,1198.5 1496.4,1211.0 1487.0,1222.5 1477.1,1232.7 1466.7,1241.7 1455.8,1249.4 1444.5,1255.8 1432.7,1260.9 1420.6,1264.7 1408.0,1267.1 1395.0,1268.2 1381.7,1268.0 1368.0,1266.4 1354.1,1263.6 1339.9,1259.5 1325.4,1254.1 1310.7,1247.6 1295.8,1239.9 1280.9,1231.1 1265.8,1221.3 1250.6,1210.5 1235.5,1198.8 1220.4,1186.3 1205.3,1173.0 1190.4,1159.2 1175.7,1144.7 1161.2,1129.9 1147.1,1114.7  A 522.500,522.500 0.00 0,1 1156.5,1106.3 L 1156.5,1106.3 1170.2,1121.8 1184.3,1136.9 1198.5,1151.6 1213.0,1165.8 1227.5,1179.4 1242.1,1192.2 1256.8,1204.2 1271.4,1215.3 1286.0,1225.5 1300.4,1234.6 1314.8,1242.5 1328.9,1249.4 1342.8,1255.0 1356.5,1259.4 1369.8,1262.5 1382.9,1264.3 1395.6,1264.8 1408.0,1263.9 1420.0,1261.7 1431.5,1258.1 1442.7,1253.2 1453.4,1246.9 1463.6,1239.3 1473.4,1230.5 1482.7,1220.4 1491.5,1209.0 1499.8,1196.5 1507.6,1182.9 1514.9,1168.2 1521.7,1152.6 1528.0,1136.0 1533.8,1118.6 1539.1,1100.4 1543.9,1081.5 1548.3,1062.1 1552.2,1042.3 1555.7,1022.1 1558.7,1001.6 1561.3,981.1  Z" style="stroke-width: 0.5;  stroke: rgb(0,0,0); fill: rgb(179,177,178);" />
<path d="M 2022.420,1490.877 A 522.500,522.500 0.00 0,1 2022.5,1503.2 L 2022.5,1503.2 1996.6,1503.1 1970.6,1503.2 1944.4,1503.4 1918.2,1503.8 1891.9,1504.4 1865.5,1505.1 1839.0,1506.1 1812.4,1507.2 1785.8,1508.5 1759.1,1510.0 1732.4,1511.8 1705.7,1513.7 1678.9,1515.8 1652.1,1518.2 1625.3,1520.8 1598.5,1523.6 1571.7,1526.6 1545.0,1529.8 1518.2,1533.3 1491.4,1536.9 1464.7,1540.8 1438.1,1544.9 1411.4,1549.2 1384.9,1553.7 1358.4,1558.5 1331.9,1563.4 1305.6,1568.5 1279.3,1573.9 1253.1,1579.4 1227.0,1585.1 1201.0,1591.0 1175.2,1597.0 1149.4,1603.3 1123.8,1609.6 1098.3,1616.2 1072.9,1622.9 1047.6,1629.7 1022.6,1636.6 997.6,1643.7  A 522.500,522.500 0.00 0,1 994.4,1631.7 L 994.4,1631.7 1019.6,1625.2 1045.0,1618.8 1070.4,1612.5 1096.0,1606.3 1121.8,1600.3 1147.6,1594.3 1173.5,1588.5 1199.5,1582.8 1225.7,1577.3 1251.9,1571.9 1278.1,1566.7 1304.5,1561.7 1330.9,1556.8 1357.4,1552.1 1384.0,1547.5 1410.6,1543.1 1437.2,1538.9 1463.9,1534.9 1490.6,1531.0 1517.4,1527.4 1544.1,1523.9 1570.9,1520.6 1597.7,1517.5 1624.5,1514.5 1651.3,1511.8 1678.1,1509.2 1704.9,1506.8 1731.6,1504.6 1758.4,1502.5 1785.0,1500.7 1811.7,1499.0 1838.3,1497.4 1864.8,1496.0 1891.3,1494.8 1917.7,1493.7 1944.0,1492.8 1970.2,1492.0 1996.4,1491.4 2022.4,1490.9  Z" style="stroke-width: 0.5;  stroke: rgb(0,0,0); fill: rgb(179,177,178);" />
<path d="M 1619.757,991.409 A 522.500,522.500 0.00 0,1 1631.0,994.2 L 1631.0,994.2 1625.4,1014.6 1619.4,1034.8 1612.9,1054.9 1605.9,1074.6 1598.4,1093.8 1590.4,1112.6 1581.8,1130.7 1572.8,1148.1 1563.2,1164.7 1553.1,1180.4 1542.5,1195.2 1531.3,1209.0 1519.7,1221.8 1507.6,1233.5 1495.0,1244.0 1482.0,1253.4 1468.5,1261.6 1454.5,1268.5 1440.2,1274.2 1425.5,1278.6 1410.4,1281.8 1394.9,1283.7 1379.2,1284.3 1363.1,1283.6 1346.8,1281.8 1330.3,1278.7 1313.6,1274.4 1296.7,1269.0 1279.6,1262.5 1262.5,1255.0 1245.4,1246.4 1228.2,1236.9 1211.1,1226.5 1194.1,1215.3 1177.2,1203.3 1160.5,1190.7 1144.0,1177.6 1127.9,1164.0 1112.0,1150.0  A 522.500,522.500 0.00 0,1 1119.8,1141.6 L 1119.8,1141.6 1135.3,1155.8 1151.1,1169.7 1167.2,1183.2 1183.5,1196.1 1200.0,1208.3 1216.6,1219.8 1233.2,1230.6 1250.0,1240.4 1266.7,1249.3 1283.3,1257.1 1299.9,1263.9 1316.3,1269.6 1332.6,1274.1 1348.6,1277.4 1364.5,1279.5 1380.0,1280.4 1395.3,1280.0 1410.2,1278.3 1424.8,1275.3 1439.0,1271.0 1452.8,1265.5 1466.2,1258.7 1479.1,1250.6 1491.6,1241.3 1503.7,1230.9 1515.3,1219.2 1526.3,1206.5 1536.9,1192.7 1547.0,1177.9 1556.6,1162.2 1565.6,1145.6 1574.2,1128.2 1582.2,1110.0 1589.7,1091.3 1596.7,1072.0 1603.2,1052.2 1609.2,1032.1 1614.7,1011.8 1619.8,991.4  Z" style="stroke-width: 0.5;  stroke: rgb(0,0,0); fill: rgb(179,177,178);" />
<path d="M 1575.072,982.921 A 522.500,522.500 0.00 0,1 1584.6,984.4 L 1584.6,984.4 1581.0,1004.9 1577.0,1025.3 1572.5,1045.5 1567.5,1065.4 1562.1,1084.8 1556.2,1103.7 1549.8,1121.9 1542.9,1139.3 1535.4,1156.0 1527.5,1171.7 1519.1,1186.5 1510.1,1200.3 1500.6,1212.9 1490.7,1224.4 1480.2,1234.8 1469.3,1243.9 1457.9,1251.7 1446.1,1258.3 1433.8,1263.5 1421.1,1267.4 1408.0,1270.0 1394.5,1271.3 1380.7,1271.3 1366.5,1270.0 1352.1,1267.3 1337.4,1263.5 1322.4,1258.4 1307.2,1252.1 1291.9,1244.6 1276.5,1236.1 1260.9,1226.6 1245.4,1216.1 1229.8,1204.7 1214.2,1192.4 1198.8,1179.5 1183.5,1165.9 1168.4,1151.7 1153.6,1137.2 1139.0,1122.3  A 522.500,522.500 0.00 0,1 1146.0,1115.7 L 1146.0,1115.7 1160.2,1130.8 1174.8,1145.6 1189.5,1160.0 1204.5,1173.9 1219.6,1187.1 1234.7,1199.5 1249.9,1211.2 1265.1,1221.9 1280.3,1231.7 1295.3,1240.5 1310.2,1248.1 1325.0,1254.6 1339.5,1260.0 1353.8,1264.0 1367.8,1266.9 1381.5,1268.4 1394.9,1268.6 1407.9,1267.5 1420.6,1265.0 1432.8,1261.2 1444.7,1256.1 1456.0,1249.7 1467.0,1242.0 1477.4,1233.0 1487.4,1222.7 1496.9,1211.3 1505.9,1198.7 1514.4,1185.0 1522.3,1170.2 1529.8,1154.5 1536.8,1137.9 1543.3,1120.4 1549.2,1102.2 1554.7,1083.4 1559.7,1063.9 1564.2,1044.1 1568.3,1023.9 1571.9,1003.4 1575.1,982.9  Z" style="stroke-width: 0.5;  stroke: rgb(0,0,0); fill: rgb(179,177,178);" />
<path d="M 1587.138,984.817 A 522.500,522.500 0.00 0,1 1596.3,986.4 L 1596.3,986.4 1592.2,1006.9 1587.7,1027.3 1582.7,1047.5 1577.3,1067.4 1571.3,1086.7 1564.9,1105.6 1557.9,1123.8 1550.4,1141.3 1542.5,1157.9 1534.0,1173.7 1525.0,1188.5 1515.4,1202.3 1505.4,1215.0 1494.9,1226.5 1483.9,1236.9 1472.5,1246.1 1460.5,1254.0 1448.1,1260.7 1435.3,1266.1 1422.1,1270.1 1408.5,1272.9 1394.5,1274.3 1380.2,1274.5 1365.5,1273.3 1350.6,1270.9 1335.4,1267.3 1320.0,1262.4 1304.4,1256.3 1288.6,1249.1 1272.7,1240.8 1256.8,1231.5 1240.8,1221.3 1224.8,1210.1 1208.9,1198.2 1193.0,1185.5 1177.4,1172.1 1161.9,1158.2 1146.7,1143.9 1131.8,1129.2  A 522.500,522.500 0.00 0,1 1138.5,1122.7 L 1138.5,1122.7 1153.1,1137.6 1167.9,1152.2 1183.1,1166.3 1198.4,1179.9 1213.9,1192.9 1229.5,1205.1 1245.1,1216.5 1260.7,1227.0 1276.3,1236.5 1291.8,1245.0 1307.2,1252.4 1322.4,1258.7 1337.4,1263.8 1352.2,1267.6 1366.7,1270.3 1380.9,1271.6 1394.9,1271.6 1408.4,1270.3 1421.6,1267.7 1434.4,1263.8 1446.8,1258.5 1458.7,1252.0 1470.2,1244.2 1481.2,1235.1 1491.7,1224.7 1501.8,1213.2 1511.4,1200.6 1520.4,1186.8 1529.0,1172.1 1537.0,1156.3 1544.6,1139.7 1551.6,1122.2 1558.1,1104.0 1564.2,1085.2 1569.7,1065.8 1574.7,1045.9 1579.3,1025.7 1583.5,1005.3 1587.1,984.8  Z" style="stroke-width: 0.5;  stroke: rgb(0,0,0); fill: rgb(179,177,178);" />
<path d="M 1551.118,980.007 A 522.500,522.500 0.00 0,1 1560.2,981.0 L 1560.2,981.0 1557.6,1001.5 1554.6,1021.9 1551.2,1042.1 1547.4,1062.0 1543.0,1081.4 1538.3,1100.2 1533.0,1118.4 1527.2,1135.9 1521.0,1152.4 1514.2,1168.1 1507.0,1182.8 1499.2,1196.4 1491.0,1208.9 1482.2,1220.2 1473.0,1230.3 1463.3,1239.2 1453.1,1246.7 1442.5,1253.0 1431.4,1257.9 1419.8,1261.5 1407.9,1263.7 1395.6,1264.5 1382.9,1264.0 1369.9,1262.2 1356.6,1259.1 1343.0,1254.7 1329.1,1249.1 1315.0,1242.2 1300.7,1234.2 1286.3,1225.1 1271.8,1214.9 1257.2,1203.8 1242.6,1191.8 1228.0,1178.9 1213.5,1165.4 1199.1,1151.1 1184.8,1136.4 1170.8,1121.2 1157.1,1105.8  A 522.500,522.500 0.00 0,1 1164.0,1099.8 L 1164.0,1099.8 1177.4,1115.5 1191.1,1130.9 1205.0,1145.9 1219.1,1160.3 1233.3,1174.1 1247.5,1187.2 1261.8,1199.4 1276.0,1210.8 1290.1,1221.1 1304.2,1230.5 1318.0,1238.7 1331.7,1245.8 1345.2,1251.6 1358.4,1256.2 1371.3,1259.5 1383.9,1261.5 1396.1,1262.1 1408.0,1261.4 1419.4,1259.4 1430.5,1255.9 1441.2,1251.2 1451.3,1245.0 1461.1,1237.6 1470.3,1228.8 1479.1,1218.8 1487.4,1207.6 1495.2,1195.1 1502.5,1181.6 1509.3,1167.0 1515.6,1151.3 1521.4,1134.8 1526.7,1117.4 1531.6,1099.2 1535.9,1080.4 1539.8,1061.0 1543.3,1041.1 1546.3,1020.9 1548.9,1000.5 1551.1,980.0  Z" style="stroke-width: 0.5;  stroke: rgb(0,0,0); fill: rgb(179,177,178);" />
<path d="M 1600.288,987.215 A 522.500,522.500 0.00 0,1 1608.5,988.9 L 1608.5,988.9 1603.9,1009.4 1598.9,1029.7 1593.4,1049.8 1587.4,1069.6 1580.9,1089.0 1573.9,1107.8 1566.3,1126.0 1558.3,1143.4 1549.8,1160.1 1540.7,1175.8 1531.1,1190.6 1521.1,1204.4 1510.5,1217.2 1499.4,1228.8 1487.9,1239.2 1475.9,1248.5 1463.4,1256.5 1450.5,1263.2 1437.1,1268.7 1423.4,1272.9 1409.2,1275.8 1394.7,1277.4 1379.9,1277.7 1364.8,1276.7 1349.4,1274.5 1333.7,1271.0 1317.8,1266.3 1301.8,1260.5 1285.6,1253.5 1269.3,1245.5 1252.9,1236.4 1236.5,1226.4 1220.1,1215.5 1203.8,1203.8 1187.7,1191.3 1171.6,1178.2 1155.8,1164.6 1140.3,1150.5 1125.1,1136.0  A 522.500,522.500 0.00 0,1 1131.0,1130.1 L 1131.0,1130.1 1145.9,1144.7 1161.2,1159.0 1176.7,1172.9 1192.4,1186.2 1208.3,1198.9 1224.3,1210.8 1240.3,1221.9 1256.4,1232.2 1272.4,1241.5 1288.4,1249.7 1304.2,1256.9 1320.0,1262.9 1335.5,1267.8 1350.8,1271.4 1365.8,1273.8 1380.6,1275.0 1395.0,1274.8 1409.1,1273.4 1422.9,1270.6 1436.2,1266.6 1449.2,1261.2 1461.7,1254.5 1473.8,1246.6 1485.4,1237.4 1496.6,1227.1 1507.2,1215.5 1517.4,1202.8 1527.1,1189.0 1536.3,1174.3 1544.9,1158.5 1553.1,1141.9 1560.7,1124.4 1567.8,1106.2 1574.5,1087.4 1580.6,1068.0 1586.2,1048.2 1591.4,1028.1 1596.1,1007.7 1600.3,987.2  Z" style="stroke-width: 0.5;  stroke: rgb(0,0,0); fill: rgb(179,177,178);" />
</g>
<g id="plot0">
<g id="plot0-axis">
</g>
<line x1='2243.8' y1='1596.2' x2='2243.8' y2='1596.2' style="stroke-width:14.0;stroke:rgb(0,0,0);stroke-linecap:round;fill:none;" />
<line x1='2243.8' y1='1596.2' x2='2283.5' y2='1601.4' style="stroke-width:14.0;stroke:rgb(0,0,0);stroke-linecap:round;fill:none;" />
<line x1='2283.5' y1='1601.4' x2='2283.5' y2='1601.4' style="stroke-width:14.0;stroke:rgb(0,0,0);stroke-linecap:round;fill:none;" />
<text x="2300.1" y="1626.2" font-size="46.8px" font-family="CMUBright-Roman" style="text-anchor:start;fill:rgb(255,38,78);" transform="rotate(7.4,2300.1,1626.2)" >HistomissSECH84<tspan baseline-shift="-40%" font-size="90%">s</tspan>02386</text>
</g>
<defs>
<pattern id="checker" width="10" height="10" patternTransform="rotate(45 0 0)" patternUnits="userSpaceOnUse"><line x1="0" y1="0" x2="10" y2="0" style="stroke:black;stroke-width:5" /><line x1="0" y1="0" x2="0" y2="10" style="stroke:black;stroke-width:4" /></pattern>
<pattern id="hline" width="10" height="10" patternTransform="rotate(0 0 0)" patternUnits="userSpaceOnUse"><line x1="0" y1="0" x2="10" y2="0" style="stroke:black;stroke-width:5" /></pattern>
<pattern id="hline-sparse" width="10" height="10" patternTransform="rotate(0 0 0)" patternUnits="userSpaceOnUse"><line x1="0" y1="0" x2="10" y2="0" style="stroke:black;stroke-width:2" /></pattern>
<pattern id="checker" width="10" height="10" patternTransform="rotate(45 0 0)" patternUnits="userSpaceOnUse"><line x1="0" y1="0" x2="10" y2="0" style="stroke:black;stroke-width:2" /><line x1="0" y1="0" x2="0" y2="10" style="stroke:black;stroke-width:2" /></pattern>
<pattern id="vline" width="10" height="10" patternTransform="rotate(0 0 0)" patternUnits="userSpaceOnUse"><line x1="0" y1="0" x2="0" y2="10" style="stroke:black;stroke-width:5" /></pattern>
<pattern id="vline-sparse" width="10" height="10" patternTransform="rotate(0 0 0)" patternUnits="userSpaceOnUse"><line x1="0" y1="0" x2="0" y2="10" style="stroke:black;stroke-width:2" /></pattern>
</defs>
</svg>
