<?xml version="1.0" encoding="utf-8" standalone="no"?>
<!DOCTYPE svg PUBLIC "-//W3C//DTD SVG 1.1//EN" "http://www.w3.org/Graphics/SVG/1.1/DTD/svg11.dtd">
<svg width="3000px" height="3000px" version="1.1" xmlns="http://www.w3.org/2000/svg" xmlns:xlink="http://www.w3.org/1999/xlink">
<g id="bg">
<rect x="0" y="0" width="3000px" height="3000px" style="fill:rgb(255,255,255);"/>
</g>
<g id="ideograms">
<path d="M1500.000,950.000 A550.000,550.000 40.000 1,1 1040.482,1802.230 L873.384,1912.131 A750.000,750.000 0.000 1,0 1500.000,750.000 Z" style="stroke-width:2.0;stroke:rgb(0,0,0);stroke-linecap:round;fill:rgb(179,177,178);" />
<text x="2396.9" y="1983.6" font-size="46.8px" font-family="CMUBright-Roman" style="text-anchor:middle;fill:rgb(0,0,0);" transform="rotate(-61.7,2396.9,1983.6)" >Histocap117p12<tspan baseline-shift="-40%" font-size="90%">1</tspan></text>
<line x1='1538.5' y1='751.0' x2='1539.1' y2='739.0' style="stroke-width:8.0;stroke:rgb(150,150,150);stroke-linecap:round;fill:none;" />
<text x="1553.7" y="727.9" font-size="41.6px" font-family="CMUBright-Roman" style="text-anchor:start;fill:rgb(150,150,150);" transform="rotate(272.9,1553.7,727.9)" >3050 kb</text>
<line x1='1687.7' y1='773.9' x2='1690.7' y2='762.3' style="stroke-width:8.0;stroke:rgb(150,150,150);stroke-linecap:round;fill:none;" />
<line x1='1829.3' y1='826.2' x2='1834.6' y2='815.4' style="stroke-width:8.0;stroke:rgb(150,150,150);stroke-linecap:round;fill:none;" />
<line x1='1957.5' y1='905.7' x2='1964.9' y2='896.2' style="stroke-width:8.0;stroke:rgb(150,150,150);stroke-linecap:round;fill:none;" />
<line x1='2067.3' y1='1009.4' x2='2076.3' y2='1001.5' style="stroke-width:8.0;stroke:rgb(150,150,150);stroke-linecap:round;fill:none;" />
<line x1='2154.0' y1='1132.9' x2='2164.5' y2='1127.0' style="stroke-width:8.0;stroke:rgb(150,150,150);stroke-linecap:round;fill:none;" />
<text x="2181.7" y="1133.4" font-size="41.6px" font-family="CMUBright-Roman" style="text-anchor:start;fill:rgb(150,150,150);" transform="rotate(330.7,2181.7,1133.4)" >3100 kb</text>
<line x1='2214.3' y1='1271.3' x2='2225.7' y2='1267.6' style="stroke-width:8.0;stroke:rgb(150,150,150);stroke-linecap:round;fill:none;" />
<line x1='2245.6' y1='1418.9' x2='2257.5' y2='1417.6' style="stroke-width:8.0;stroke:rgb(150,150,150);stroke-linecap:round;fill:none;" />
<line x1='2246.7' y1='1569.8' x2='2258.7' y2='1571.0' style="stroke-width:8.0;stroke:rgb(150,150,150);stroke-linecap:round;fill:none;" />
<line x1='2217.6' y1='1717.9' x2='2229.1' y2='1721.4' style="stroke-width:8.0;stroke:rgb(150,150,150);stroke-linecap:round;fill:none;" />
<line x1='2159.5' y1='1857.2' x2='2170.0' y2='1862.9' style="stroke-width:8.0;stroke:rgb(150,150,150);stroke-linecap:round;fill:none;" />
<text x="2173.8" y="1880.9" font-size="41.6px" font-family="CMUBright-Roman" style="text-anchor:start;fill:rgb(150,150,150);" transform="rotate(28.4,2173.8,1880.9)" >3150 kb</text>
<line x1='2074.6' y1='1982.0' x2='2083.8' y2='1989.7' style="stroke-width:8.0;stroke:rgb(150,150,150);stroke-linecap:round;fill:none;" />
<line x1='1966.4' y1='2087.3' x2='1973.9' y2='2096.7' style="stroke-width:8.0;stroke:rgb(150,150,150);stroke-linecap:round;fill:none;" />
<line x1='1839.4' y1='2168.8' x2='1844.8' y2='2179.5' style="stroke-width:8.0;stroke:rgb(150,150,150);stroke-linecap:round;fill:none;" />
<line x1='1698.6' y1='2223.2' x2='1701.8' y2='2234.8' style="stroke-width:8.0;stroke:rgb(150,150,150);stroke-linecap:round;fill:none;" />
<line x1='1549.8' y1='2248.3' x2='1550.6' y2='2260.3' style="stroke-width:8.0;stroke:rgb(150,150,150);stroke-linecap:round;fill:none;" />
<text x="1537.4" y="2273.1" font-size="41.6px" font-family="CMUBright-Roman" style="text-anchor:start;fill:rgb(150,150,150);" transform="rotate(86.2,1537.4,2273.1)" >3200 kb</text>
<line x1='1399.0' y1='2243.2' x2='1397.3' y2='2255.1' style="stroke-width:8.0;stroke:rgb(150,150,150);stroke-linecap:round;fill:none;" />
<line x1='1252.2' y1='2207.9' x2='1248.2' y2='2219.2' style="stroke-width:8.0;stroke:rgb(150,150,150);stroke-linecap:round;fill:none;" />
<line x1='1115.5' y1='2143.9' x2='1109.3' y2='2154.2' style="stroke-width:8.0;stroke:rgb(150,150,150);stroke-linecap:round;fill:none;" />
<line x1='994.3' y1='2053.9' x2='986.3' y2='2062.8' style="stroke-width:8.0;stroke:rgb(150,150,150);stroke-linecap:round;fill:none;" />
<line x1='893.7' y1='1941.5' x2='884.0' y2='1948.5' style="stroke-width:8.0;stroke:rgb(150,150,150);stroke-linecap:round;fill:none;" />
<text x="882.6" y="1966.8" font-size="41.6px" font-family="CMUBright-Roman" style="text-anchor:end;fill:rgb(150,150,150);" transform="rotate(-36.1,882.6,1966.8)" >3250 kb</text>
<g id="highlighttrack_0">
<path d="M1996.426,1736.772 A550.000,550.000 40.000 0,1 1970.611,1784.650 L2141.742,1888.158 A750.000,750.000 0.000 0,0 2176.945,1822.872 Z" style="stroke-width:14.0;stroke:rgb(0,0,0);stroke-linecap:round;fill:rgb(255,38,78);" />
</g>
<path d="M1500.000,950.000 A550.000,550.000 40.000 1,1 1040.482,1802.230 L873.384,1912.131 A750.000,750.000 0.000 1,0 1500.000,750.000 Z" style="stroke-width:2.0;stroke:rgb(0,0,0);stroke-linecap:round;fill:none;" />
<path d="M950.145,1487.365 A550.000,550.000 40.000 0,1 1187.293,1047.546 L1073.582,883.017 A750.000,750.000 0.000 0,0 750.198,1482.770 Z" style="stroke-width:2.0;stroke:rgb(0,0,0);stroke-linecap:round;fill:rgb(179,177,178);" />
<text x="641.8" y="1037.3" font-size="46.8px" font-family="CMUBright-Roman" style="text-anchor:middle;fill:rgb(0,0,0);" transform="rotate(-61.7,641.8,1037.3)" >HistocapNACVFRHC10700582<tspan baseline-shift="-40%" font-size="90%">1</tspan>03</text>
<line x1='768.8' y1='1333.0' x2='757.1' y2='1330.3' style="stroke-width:8.0;stroke:rgb(150,150,150);stroke-linecap:round;fill:none;" />
<line x1='817.1' y1='1190.0' x2='806.1' y2='1185.0' style="stroke-width:8.0;stroke:rgb(150,150,150);stroke-linecap:round;fill:none;" />
<line x1='893.0' y1='1059.5' x2='883.3' y2='1052.5' style="stroke-width:8.0;stroke:rgb(150,150,150);stroke-linecap:round;fill:none;" />
<line x1='993.5' y1='946.9' x2='985.3' y2='938.1' style="stroke-width:8.0;stroke:rgb(150,150,150);stroke-linecap:round;fill:none;" />
<path d="M950.145,1487.365 A550.000,550.000 40.000 0,1 1187.293,1047.546 L1073.582,883.017 A750.000,750.000 0.000 0,0 750.198,1482.770 Z" style="stroke-width:2.0;stroke:rgb(0,0,0);stroke-linecap:round;fill:none;" />
</g>
<g id="track_0">
<path d="M 2009.246,1616.939 A 522.500,522.500 0.00 0,1 1984.6,1695.2 L 1984.6,1695.2 1960.7,1685.5 1936.7,1675.6 1912.6,1665.5 1888.5,1655.1 1864.4,1644.6 1840.3,1633.9 1816.1,1622.9 1792.0,1611.8 1768.0,1600.4 1743.9,1588.8 1719.9,1577.0 1695.9,1565.0 1672.0,1552.8 1648.2,1540.4 1624.4,1527.8 1600.7,1514.9 1577.1,1501.9 1553.6,1488.6 1530.2,1475.1 1507.0,1461.5 1483.8,1447.6 1460.8,1433.6 1437.8,1419.4 1415.1,1405.0 1392.4,1390.4 1370.0,1375.6 1347.6,1360.7 1325.5,1345.7 1303.5,1330.4 1281.6,1315.1 1259.9,1299.6 1238.5,1284.0 1217.1,1268.3 1196.0,1252.5 1175.0,1236.6 1154.3,1220.6 1133.7,1204.5 1113.3,1188.4 1093.1,1172.2  A 522.500,522.500 0.00 0,1 1150.2,1111.9 L 1150.2,1111.9 1167.0,1130.3 1184.1,1148.6 1201.6,1166.8 1219.5,1184.9 1237.7,1202.9 1256.2,1220.6 1275.2,1238.2 1294.4,1255.6 1314.1,1272.7 1334.0,1289.6 1354.3,1306.2 1374.9,1322.5 1395.8,1338.5 1417.1,1354.2 1438.6,1369.5 1460.4,1384.5 1482.5,1399.1 1504.9,1413.3 1527.5,1427.1 1550.3,1440.6 1573.4,1453.6 1596.7,1466.2 1620.2,1478.4 1643.9,1490.2 1667.8,1501.6 1691.8,1512.5 1715.9,1523.0 1740.2,1533.1 1764.5,1542.7 1789.0,1552.0 1813.5,1560.8 1838.1,1569.2 1862.6,1577.1 1887.2,1584.7 1911.8,1591.9 1936.3,1598.7 1960.7,1605.2 1985.0,1611.2 2009.2,1616.9  Z" style="stroke-width: 0.5;  stroke: rgb(0,0,0); fill: rgb(179,177,178);" />
<path d="M 1869.136,1869.790 A 522.500,522.500 0.00 0,1 1810.5,1920.2 L 1810.5,1920.2 1795.8,1900.5 1780.6,1880.9 1765.0,1861.3 1749.0,1841.8 1732.6,1822.5 1715.8,1803.3 1698.6,1784.3 1681.0,1765.6 1663.0,1747.1 1644.6,1728.9 1625.8,1710.9 1606.7,1693.3 1587.1,1676.0 1567.2,1659.1 1547.0,1642.5 1526.3,1626.3 1505.4,1610.5 1484.1,1595.2 1462.5,1580.2 1440.7,1565.7 1418.5,1551.6 1396.1,1538.0 1373.4,1524.8 1350.4,1512.1 1327.3,1499.9 1304.0,1488.2 1280.4,1476.9 1256.7,1466.1 1232.9,1455.7 1209.0,1445.9 1184.9,1436.5 1160.8,1427.6 1136.6,1419.1 1112.4,1411.0 1088.3,1403.5 1064.1,1396.3 1040.0,1389.5 1016.0,1383.2 992.1,1377.3  A 522.500,522.500 0.00 0,1 1015.9,1303.4 L 1015.9,1303.4 1039.5,1313.1 1063.2,1323.1 1086.9,1333.3 1110.7,1343.8 1134.5,1354.5 1158.2,1365.6 1182.0,1376.9 1205.7,1388.4 1229.4,1400.3 1253.0,1412.4 1276.6,1424.9 1300.0,1437.6 1323.4,1450.6 1346.7,1463.8 1369.9,1477.4 1392.9,1491.2 1415.8,1505.3 1438.5,1519.6 1461.1,1534.3 1483.5,1549.1 1505.8,1564.3 1527.8,1579.7 1549.7,1595.3 1571.4,1611.1 1592.9,1627.2 1614.1,1643.5 1635.2,1660.0 1656.0,1676.7 1676.6,1693.6 1697.0,1710.7 1717.1,1727.9 1737.0,1745.2 1756.6,1762.7 1776.0,1780.4 1795.1,1798.1 1814.0,1815.9 1832.6,1833.8 1851.0,1851.8 1869.1,1869.8  Z" style="stroke-width: 0.5;  stroke: rgb(0,0,0); fill: rgb(179,177,178);" />
<path d="M 1803.103,1925.600 A 522.500,522.500 0.00 0,1 1750.8,1958.4 L 1750.8,1958.4 1739.1,1937.6 1727.0,1916.9 1714.4,1896.2 1701.3,1875.7 1687.6,1855.3 1673.4,1835.2 1658.8,1815.3 1643.5,1795.7 1627.8,1776.4 1611.6,1757.5 1594.8,1738.9 1577.5,1720.8 1559.8,1703.2 1541.5,1686.0 1522.8,1669.4 1503.6,1653.2 1484.0,1637.6 1463.9,1622.6 1443.4,1608.2 1422.5,1594.3 1401.2,1581.1 1379.5,1568.4 1357.5,1556.4 1335.2,1545.1 1312.5,1534.3 1289.6,1524.2 1266.4,1514.7 1243.0,1505.9 1219.4,1497.7 1195.7,1490.1 1171.8,1483.2 1147.8,1476.8 1123.7,1471.0 1099.6,1465.8 1075.6,1461.2 1051.5,1457.1 1027.6,1453.6 1003.8,1450.5 980.1,1447.9  A 522.500,522.500 0.00 0,1 990.0,1386.2 L 990.0,1386.2 1013.9,1391.7 1037.9,1397.6 1062.0,1403.9 1086.2,1410.7 1110.4,1417.9 1134.6,1425.6 1158.8,1433.7 1182.9,1442.4 1206.9,1451.4 1230.9,1461.0 1254.7,1471.1 1278.4,1481.7 1301.9,1492.7 1325.2,1504.3 1348.3,1516.3 1371.2,1528.9 1393.8,1541.9 1416.2,1555.4 1438.3,1569.4 1460.1,1583.8 1481.5,1598.8 1502.7,1614.1 1523.5,1629.9 1543.9,1646.1 1564.0,1662.7 1583.7,1679.7 1603.0,1697.0 1622.0,1714.7 1640.5,1732.8 1658.7,1751.1 1676.4,1769.8 1693.7,1788.6 1710.6,1807.7 1727.1,1827.1 1743.1,1846.5 1758.8,1866.2 1774.0,1885.9 1788.7,1905.7 1803.1,1925.6  Z" style="stroke-width: 0.5;  stroke: rgb(0,0,0); fill: rgb(179,177,178);" />
<path d="M 1917.241,1814.510 A 522.500,522.500 0.00 0,1 1880.0,1858.7 L 1880.0,1858.7 1861.2,1841.1 1842.2,1823.5 1823.0,1806.0 1803.6,1788.6 1783.9,1771.3 1764.1,1754.1 1744.0,1736.9 1723.7,1719.9 1703.1,1703.0 1682.4,1686.3 1661.5,1669.7 1640.4,1653.3 1619.1,1637.0 1597.6,1621.0 1575.9,1605.1 1554.0,1589.4 1532.0,1573.9 1509.8,1558.6 1487.4,1543.6 1464.9,1528.7 1442.3,1514.1 1419.5,1499.7 1396.6,1485.6 1373.5,1471.7 1350.4,1458.0 1327.1,1444.5 1303.8,1431.3 1280.4,1418.4 1256.9,1405.7 1233.4,1393.2 1209.8,1381.0 1186.1,1369.1 1162.5,1357.4 1138.8,1345.9 1115.1,1334.6 1091.5,1323.6 1067.8,1312.9 1044.2,1302.3 1020.7,1292.0  A 522.500,522.500 0.00 0,1 1046.6,1240.4 L 1046.6,1240.4 1069.5,1253.5 1092.4,1266.8 1115.3,1280.1 1138.2,1293.5 1161.2,1307.0 1184.1,1320.6 1207.0,1334.3 1229.9,1348.1 1252.8,1361.9 1275.7,1375.9 1298.6,1389.9 1321.4,1404.1 1344.2,1418.3 1367.0,1432.6 1389.7,1447.0 1412.4,1461.5 1435.0,1476.1 1457.6,1490.8 1480.2,1505.6 1502.7,1520.4 1525.1,1535.3 1547.5,1550.3 1569.9,1565.4 1592.1,1580.5 1614.3,1595.7 1636.4,1611.0 1658.5,1626.4 1680.5,1641.8 1702.4,1657.3 1724.3,1672.8 1746.0,1688.4 1767.7,1704.0 1789.3,1719.7 1810.9,1735.4 1832.3,1751.2 1853.7,1767.0 1874.9,1782.8 1896.1,1798.6 1917.2,1814.5  Z" style="stroke-width: 0.5;  stroke: rgb(0,0,0); fill: rgb(179,177,178);" />
<path d="M 2020.213,1548.835 A 522.500,522.500 0.00 0,1 2014.3,1592.3 L 2014.3,1592.3 1990.1,1587.8 1965.7,1582.9 1941.3,1577.6 1916.7,1571.9 1892.1,1565.7 1867.5,1559.2 1842.9,1552.2 1818.3,1544.7 1793.7,1536.7 1769.2,1528.3 1744.8,1519.4 1720.5,1510.1 1696.3,1500.2 1672.3,1489.9 1648.4,1479.1 1624.8,1467.8 1601.3,1456.0 1578.1,1443.8 1555.1,1431.1 1532.4,1417.9 1510.0,1404.3 1487.8,1390.2 1465.9,1375.7 1444.4,1360.8 1423.1,1345.5 1402.2,1329.8 1381.7,1313.7 1361.5,1297.3 1341.6,1280.5 1322.1,1263.4 1303.0,1246.1 1284.3,1228.4 1266.0,1210.6 1248.0,1192.5 1230.5,1174.2 1213.3,1155.7 1196.5,1137.1 1180.2,1118.4 1164.2,1099.7  A 522.500,522.500 0.00 0,1 1198.7,1073.1 L 1198.7,1073.1 1212.8,1092.7 1227.3,1112.2 1242.3,1131.6 1257.8,1150.9 1273.7,1170.0 1290.1,1188.8 1307.0,1207.4 1324.3,1225.7 1342.1,1243.7 1360.3,1261.3 1379.0,1278.6 1398.1,1295.4 1417.7,1311.8 1437.6,1327.8 1458.0,1343.2 1478.7,1358.2 1499.8,1372.6 1521.3,1386.6 1543.1,1400.0 1565.3,1412.8 1587.8,1425.1 1610.5,1436.8 1633.6,1447.9 1656.9,1458.4 1680.5,1468.4 1704.2,1477.7 1728.2,1486.5 1752.3,1494.7 1776.5,1502.3 1800.9,1509.4 1825.3,1515.8 1849.8,1521.8 1874.3,1527.1 1898.9,1532.0 1923.3,1536.3 1947.8,1540.1 1972.1,1543.5 1996.2,1546.4 2020.2,1548.8  Z" style="stroke-width: 0.5;  stroke: rgb(0,0,0); fill: rgb(179,177,178);" />
<path d="M 1740.916,1963.644 A 522.500,522.500 0.00 0,1 1707.0,1979.7 L 1707.0,1979.7 1697.6,1958.4 1687.6,1937.1 1677.0,1915.9 1665.9,1894.8 1654.2,1873.9 1642.0,1853.2 1629.1,1832.8 1615.7,1812.8 1601.7,1793.0 1587.1,1773.8 1571.9,1754.9 1556.2,1736.5 1539.9,1718.7 1523.0,1701.4 1505.6,1684.7 1487.7,1668.6 1469.2,1653.1 1450.2,1638.3 1430.7,1624.1 1410.7,1610.6 1390.3,1597.8 1369.5,1585.8 1348.2,1574.4 1326.6,1563.8 1304.6,1553.8 1282.2,1544.6 1259.6,1536.2 1236.7,1528.4 1213.5,1521.4 1190.2,1515.1 1166.7,1509.4 1143.0,1504.5 1119.3,1500.2 1095.5,1496.5 1071.8,1493.5 1048.1,1491.1 1024.4,1489.2 1000.9,1487.9 977.7,1487.1  A 522.500,522.500 0.00 0,1 980.0,1449.3 L 980.0,1449.3 1003.6,1451.8 1027.3,1454.8 1051.2,1458.3 1075.2,1462.4 1099.2,1467.0 1123.2,1472.1 1147.1,1477.9 1171.0,1484.2 1194.8,1491.2 1218.5,1498.8 1242.0,1507.0 1265.2,1515.9 1288.3,1525.4 1311.0,1535.6 1333.5,1546.4 1355.7,1557.8 1377.5,1569.9 1399.0,1582.7 1420.0,1596.0 1440.7,1610.0 1461.0,1624.6 1480.8,1639.7 1500.1,1655.5 1519.0,1671.8 1537.4,1688.6 1555.4,1706.0 1572.8,1723.8 1589.7,1742.1 1606.1,1760.8 1621.9,1779.9 1637.3,1799.4 1652.1,1819.2 1666.3,1839.3 1680.1,1859.6 1693.3,1880.2 1706.0,1900.9 1718.1,1921.8 1729.8,1942.7 1740.9,1963.6  Z" style="stroke-width: 0.5;  stroke: rgb(0,0,0); fill: rgb(179,177,178);" />
<path d="M 1946.889,1770.732 A 522.500,522.500 0.00 0,1 1929.2,1798.0 L 1929.2,1798.0 1907.4,1782.9 1885.5,1767.8 1863.6,1752.7 1841.6,1737.6 1819.6,1722.6 1797.5,1707.6 1775.4,1692.6 1753.2,1677.7 1730.9,1662.8 1708.6,1647.9 1686.2,1633.1 1663.8,1618.3 1641.4,1603.5 1618.9,1588.8 1596.3,1574.2 1573.7,1559.6 1551.1,1545.0 1528.4,1530.5 1505.7,1516.1 1483.0,1501.7 1460.2,1487.4 1437.4,1473.1 1414.6,1458.9 1391.7,1444.7 1368.8,1430.6 1345.9,1416.6 1322.9,1402.6 1300.0,1388.7 1277.0,1374.9 1254.0,1361.1 1231.0,1347.3 1208.0,1333.7 1185.0,1320.1 1162.0,1306.5 1138.9,1293.1 1115.9,1279.7 1092.9,1266.3 1069.9,1253.0 1046.9,1239.8  A 522.500,522.500 0.00 0,1 1064.6,1211.1 L 1064.6,1211.1 1086.8,1225.9 1109.1,1240.6 1131.4,1255.3 1153.7,1270.0 1176.0,1284.7 1198.4,1299.4 1220.8,1314.1 1243.2,1328.7 1265.7,1343.3 1288.1,1358.0 1310.6,1372.6 1333.1,1387.1 1355.7,1401.7 1378.2,1416.2 1400.8,1430.7 1423.4,1445.2 1446.1,1459.7 1468.7,1474.1 1491.4,1488.5 1514.0,1502.9 1536.7,1517.3 1559.5,1531.6 1582.2,1545.9 1604.9,1560.2 1627.7,1574.4 1650.4,1588.7 1673.2,1602.8 1696.0,1617.0 1718.8,1631.1 1741.6,1645.2 1764.4,1659.3 1787.2,1673.3 1810.0,1687.3 1832.8,1701.3 1855.7,1715.2 1878.5,1729.2 1901.3,1743.0 1924.1,1756.9 1946.9,1770.7  Z" style="stroke-width: 0.5;  stroke: rgb(0,0,0); fill: rgb(179,177,178);" />
<path d="M 2014.021,1593.750 A 522.500,522.500 0.00 0,1 2010.4,1611.6 L 2010.4,1611.6 1986.2,1606.1 1961.8,1600.3 1937.4,1594.1 1912.8,1587.6 1888.3,1580.6 1863.6,1573.3 1839.0,1565.5 1814.4,1557.4 1789.9,1548.8 1765.4,1539.7 1741.0,1530.3 1716.7,1520.4 1692.5,1510.1 1668.4,1499.3 1644.5,1488.1 1620.8,1476.5 1597.2,1464.4 1573.9,1452.0 1550.8,1439.1 1527.9,1425.7 1505.2,1412.0 1482.8,1397.9 1460.7,1383.4 1438.9,1368.5 1417.3,1353.3 1396.1,1337.7 1375.2,1321.8 1354.5,1305.5 1334.3,1289.0 1314.3,1272.1 1294.7,1255.0 1275.4,1237.7 1256.5,1220.2 1237.9,1202.4 1219.7,1184.5 1201.9,1166.4 1184.4,1148.2 1167.4,1129.9 1150.6,1111.5  A 522.500,522.500 0.00 0,1 1164.3,1099.6 L 1164.3,1099.6 1180.3,1118.4 1196.6,1137.1 1213.4,1155.7 1230.5,1174.1 1248.1,1192.4 1266.0,1210.5 1284.4,1228.4 1303.1,1246.1 1322.2,1263.5 1341.7,1280.6 1361.5,1297.4 1381.7,1313.8 1402.2,1329.9 1423.1,1345.7 1444.4,1361.0 1465.9,1375.9 1487.8,1390.5 1509.9,1404.6 1532.4,1418.2 1555.1,1431.4 1578.0,1444.2 1601.3,1456.5 1624.7,1468.3 1648.3,1479.6 1672.2,1490.5 1696.2,1500.9 1720.3,1510.8 1744.6,1520.2 1769.0,1529.1 1793.5,1537.6 1818.1,1545.6 1842.7,1553.1 1867.3,1560.2 1891.9,1566.9 1916.5,1573.1 1941.0,1578.8 1965.5,1584.2 1989.8,1589.2 2014.0,1593.7  Z" style="stroke-width: 0.5;  stroke: rgb(0,0,0); fill: rgb(179,177,178);" />
<path d="M 1978.858,1709.049 A 522.500,522.500 0.00 0,1 1971.6,1725.0 L 1971.6,1725.0 1947.8,1713.6 1924.0,1702.1 1900.2,1690.5 1876.4,1678.9 1852.5,1667.1 1828.7,1655.2 1804.9,1643.2 1781.0,1631.1 1757.2,1619.0 1733.4,1606.7 1709.6,1594.3 1685.8,1581.8 1662.1,1569.2 1638.4,1556.5 1614.7,1543.7 1591.0,1530.7 1567.4,1517.7 1543.9,1504.6 1520.4,1491.4 1496.9,1478.1 1473.5,1464.7 1450.2,1451.2 1426.9,1437.6 1403.7,1424.0 1380.5,1410.2 1357.5,1396.4 1334.5,1382.5 1311.5,1368.5 1288.7,1354.4 1265.9,1340.3 1243.2,1326.1 1220.6,1311.8 1198.1,1297.5 1175.7,1283.1 1153.4,1268.7 1131.1,1254.3 1108.9,1239.8 1086.9,1225.2 1064.9,1210.7  A 522.500,522.500 0.00 0,1 1075.1,1196.0 L 1075.1,1196.0 1096.3,1211.1 1117.8,1226.3 1139.4,1241.4 1161.1,1256.4 1182.9,1271.3 1204.9,1286.2 1227.0,1301.0 1249.2,1315.8 1271.5,1330.4 1294.0,1345.0 1316.6,1359.4 1339.3,1373.8 1362.1,1388.0 1385.0,1402.1 1408.0,1416.1 1431.2,1429.9 1454.4,1443.7 1477.7,1457.3 1501.1,1470.7 1524.6,1484.1 1548.1,1497.3 1571.7,1510.3 1595.4,1523.2 1619.2,1535.9 1643.0,1548.5 1666.9,1561.0 1690.8,1573.3 1714.7,1585.4 1738.7,1597.4 1762.7,1609.3 1786.7,1620.9 1810.8,1632.5 1834.8,1643.8 1858.9,1655.1 1882.9,1666.2 1906.9,1677.1 1930.9,1687.9 1954.9,1698.5 1978.9,1709.0  Z" style="stroke-width: 0.5;  stroke: rgb(0,0,0); fill: rgb(179,177,178);" />
<path d="M 1878.133,1860.586 A 522.500,522.500 0.00 0,1 1870.0,1868.9 L 1870.0,1868.9 1851.9,1850.9 1833.4,1833.0 1814.8,1815.1 1795.8,1797.4 1776.6,1779.7 1757.2,1762.1 1737.5,1744.6 1717.6,1727.3 1697.5,1710.1 1677.1,1693.1 1656.4,1676.2 1635.6,1659.6 1614.5,1643.1 1593.2,1626.8 1571.7,1610.8 1550.0,1595.0 1528.1,1579.4 1506.0,1564.0 1483.8,1548.9 1461.3,1534.1 1438.7,1519.5 1415.9,1505.1 1393.0,1491.0 1370.0,1477.2 1346.8,1463.7 1323.5,1450.5 1300.2,1437.5 1276.7,1424.8 1253.1,1412.4 1229.5,1400.3 1205.8,1388.4 1182.0,1376.8 1158.3,1365.5 1134.5,1354.5 1110.7,1343.8 1087.0,1333.3 1063.2,1323.1 1039.5,1313.1 1015.9,1303.4  A 522.500,522.500 0.00 0,1 1020.4,1292.7 L 1020.4,1292.7 1043.9,1303.0 1067.5,1313.5 1091.2,1324.2 1114.8,1335.2 1138.5,1346.4 1162.2,1357.9 1185.8,1369.6 1209.4,1381.5 1233.0,1393.7 1256.6,1406.2 1280.0,1418.9 1303.4,1431.8 1326.8,1445.0 1350.0,1458.5 1373.1,1472.2 1396.1,1486.1 1419.0,1500.3 1441.8,1514.7 1464.4,1529.4 1486.9,1544.2 1509.2,1559.3 1531.4,1574.7 1553.4,1590.2 1575.2,1605.9 1596.8,1621.9 1618.3,1638.0 1639.5,1654.3 1660.6,1670.8 1681.4,1687.5 1702.1,1704.3 1722.5,1721.2 1742.8,1738.3 1762.8,1755.5 1782.6,1772.8 1802.1,1790.2 1821.5,1807.7 1840.6,1825.3 1859.5,1842.9 1878.1,1860.6  Z" style="stroke-width: 0.5;  stroke: rgb(0,0,0); fill: rgb(179,177,178);" />
<path d="M 1983.063,1699.140 A 522.500,522.500 0.00 0,1 1978.9,1709.0 L 1978.9,1709.0 1955.0,1698.6 1931.1,1687.9 1907.1,1677.1 1883.2,1666.2 1859.2,1655.1 1835.2,1643.8 1811.2,1632.3 1787.2,1620.7 1763.3,1608.9 1739.3,1597.0 1715.4,1584.9 1691.5,1572.6 1667.7,1560.2 1644.0,1547.5 1620.2,1534.8 1596.6,1521.8 1573.0,1508.7 1549.5,1495.4 1526.1,1482.0 1502.7,1468.4 1479.5,1454.7 1456.4,1440.8 1433.3,1426.8 1410.4,1412.6 1387.5,1398.3 1364.8,1383.9 1342.2,1369.3 1319.8,1354.7 1297.4,1339.9 1275.2,1324.9 1253.1,1309.9 1231.2,1294.8 1209.4,1279.6 1187.7,1264.3 1166.2,1249.0 1144.9,1233.6 1123.6,1218.1 1102.6,1202.5 1081.7,1187.0  A 522.500,522.500 0.00 0,1 1088.3,1178.2 L 1088.3,1178.2 1108.8,1194.2 1129.5,1210.0 1150.3,1225.8 1171.3,1241.6 1192.5,1257.3 1213.9,1272.9 1235.4,1288.4 1257.1,1303.7 1278.9,1319.0 1301.0,1334.2 1323.1,1349.2 1345.4,1364.1 1367.9,1378.8 1390.5,1393.4 1413.2,1407.8 1436.1,1422.1 1459.1,1436.2 1482.2,1450.2 1505.4,1463.9 1528.7,1477.5 1552.1,1490.9 1575.7,1504.1 1599.3,1517.1 1623.0,1530.0 1646.8,1542.6 1670.6,1555.1 1694.5,1567.3 1718.5,1579.4 1742.5,1591.2 1766.5,1602.9 1790.6,1614.3 1814.7,1625.6 1838.8,1636.7 1862.9,1647.6 1887.0,1658.2 1911.1,1668.7 1935.1,1679.1 1959.1,1689.2 1983.1,1699.1  Z" style="stroke-width: 0.5;  stroke: rgb(0,0,0); fill: rgb(179,177,178);" />
</g>
<g id="plot0">
<g id="plot0-axis">
</g>
<line x1='1921.7' y1='2120.2' x2='1921.7' y2='2120.2' style="stroke-width:14.0;stroke:rgb(0,0,0);stroke-linecap:round;fill:none;" />
<line x1='1921.7' y1='2120.2' x2='1944.1' y2='2153.3' style="stroke-width:14.0;stroke:rgb(0,0,0);stroke-linecap:round;fill:none;" />
<line x1='1944.1' y1='2153.3' x2='1944.1' y2='2153.3' style="stroke-width:14.0;stroke:rgb(0,0,0);stroke-linecap:round;fill:none;" />
<text x="1937.0" y="2182.0" font-size="46.8px" font-family="CMUBright-Roman" style="text-anchor:start;fill:rgb(255,38,78);" transform="rotate(55.8,1937.0,2182.0)" >Histocap117p12<tspan baseline-shift="-40%" font-size="90%">s</tspan>01685</text>
</g>
<defs>
<pattern id="hline-sparse" width="10" height="10" patternTransform="rotate(0 0 0)" patternUnits="userSpaceOnUse"><line x1="0" y1="0" x2="10" y2="0" style="stroke:black;stroke-width:2" /></pattern>
<pattern id="vline" width="10" height="10" patternTransform="rotate(0 0 0)" patternUnits="userSpaceOnUse"><line x1="0" y1="0" x2="0" y2="10" style="stroke:black;stroke-width:5" /></pattern>
<pattern id="checker" width="10" height="10" patternTransform="rotate(45 0 0)" patternUnits="userSpaceOnUse"><line x1="0" y1="0" x2="10" y2="0" style="stroke:black;stroke-width:5" /><line x1="0" y1="0" x2="0" y2="10" style="stroke:black;stroke-width:4" /></pattern>
<pattern id="hline" width="10" height="10" patternTransform="rotate(0 0 0)" patternUnits="userSpaceOnUse"><line x1="0" y1="0" x2="10" y2="0" style="stroke:black;stroke-width:5" /></pattern>
<pattern id="checker" width="10" height="10" patternTransform="rotate(45 0 0)" patternUnits="userSpaceOnUse"><line x1="0" y1="0" x2="10" y2="0" style="stroke:black;stroke-width:2" /><line x1="0" y1="0" x2="0" y2="10" style="stroke:black;stroke-width:2" /></pattern>
<pattern id="vline-sparse" width="10" height="10" patternTransform="rotate(0 0 0)" patternUnits="userSpaceOnUse"><line x1="0" y1="0" x2="0" y2="10" style="stroke:black;stroke-width:2" /></pattern>
</defs>
</svg>
