<?xml version="1.0" encoding="utf-8" standalone="no"?>
<!DOCTYPE svg PUBLIC "-//W3C//DTD SVG 1.1//EN" "http://www.w3.org/Graphics/SVG/1.1/DTD/svg11.dtd">
<svg width="3000px" height="3000px" version="1.1" xmlns="http://www.w3.org/2000/svg" xmlns:xlink="http://www.w3.org/1999/xlink">
<g id="bg">
<rect x="0" y="0" width="3000px" height="3000px" style="fill:rgb(255,255,255);"/>
</g>
<g id="ideograms">
<path d="M1500.000,950.000 A550.000,550.000 40.000 0,1 1700.143,2012.292 L1772.923,2198.579 A750.000,750.000 0.000 0,0 1500.000,750.000 Z" style="stroke-width:2.0;stroke:rgb(0,0,0);stroke-linecap:round;fill:rgb(179,177,178);" />
<text x="2458.1" y="1319.5" font-size="46.8px" font-family="CMUBright-Roman" style="text-anchor:middle;fill:rgb(0,0,0);" transform="rotate(439.3,2458.1,1319.5)" >HistomissSECH90<tspan baseline-shift="-40%" font-size="90%">1</tspan></text>
<line x1='1548.8' y1='751.6' x2='1549.6' y2='739.6' style="stroke-width:8.0;stroke:rgb(150,150,150);stroke-linecap:round;fill:none;" />
<line x1='1649.2' y1='765.0' x2='1651.6' y2='753.2' style="stroke-width:8.0;stroke:rgb(150,150,150);stroke-linecap:round;fill:none;" />
<text x="1667.7" y="744.4" font-size="41.6px" font-family="CMUBright-Roman" style="text-anchor:start;fill:rgb(150,150,150);" transform="rotate(281.5,1667.7,744.4)" >1750 kb</text>
<line x1='1746.9' y1='791.8' x2='1750.9' y2='780.5' style="stroke-width:8.0;stroke:rgb(150,150,150);stroke-linecap:round;fill:none;" />
<line x1='1840.1' y1='831.5' x2='1845.5' y2='820.8' style="stroke-width:8.0;stroke:rgb(150,150,150);stroke-linecap:round;fill:none;" />
<line x1='1927.0' y1='883.4' x2='1933.9' y2='873.6' style="stroke-width:8.0;stroke:rgb(150,150,150);stroke-linecap:round;fill:none;" />
<line x1='2006.2' y1='946.6' x2='2014.3' y2='937.7' style="stroke-width:8.0;stroke:rgb(150,150,150);stroke-linecap:round;fill:none;" />
<line x1='2076.1' y1='1019.8' x2='2085.4' y2='1012.2' style="stroke-width:8.0;stroke:rgb(150,150,150);stroke-linecap:round;fill:none;" />
<text x="2103.5" y="1015.3" font-size="41.6px" font-family="CMUBright-Roman" style="text-anchor:start;fill:rgb(150,150,150);" transform="rotate(320.2,2103.5,1015.3)" >1800 kb</text>
<line x1='2135.6' y1='1101.8' x2='2145.8' y2='1095.5' style="stroke-width:8.0;stroke:rgb(150,150,150);stroke-linecap:round;fill:none;" />
<line x1='2183.4' y1='1191.1' x2='2194.4' y2='1186.2' style="stroke-width:8.0;stroke:rgb(150,150,150);stroke-linecap:round;fill:none;" />
<line x1='2218.8' y1='1286.0' x2='2230.3' y2='1282.6' style="stroke-width:8.0;stroke:rgb(150,150,150);stroke-linecap:round;fill:none;" />
<line x1='2241.1' y1='1384.8' x2='2253.0' y2='1383.0' style="stroke-width:8.0;stroke:rgb(150,150,150);stroke-linecap:round;fill:none;" />
<line x1='2249.9' y1='1485.7' x2='2261.9' y2='1485.5' style="stroke-width:8.0;stroke:rgb(150,150,150);stroke-linecap:round;fill:none;" />
<text x="2274.0" y="1499.2" font-size="41.6px" font-family="CMUBright-Roman" style="text-anchor:start;fill:rgb(150,150,150);" transform="rotate(358.9,2274.0,1499.2)" >1850 kb</text>
<line x1='2245.0' y1='1586.9' x2='2256.9' y2='1588.2' style="stroke-width:8.0;stroke:rgb(150,150,150);stroke-linecap:round;fill:none;" />
<line x1='2226.5' y1='1686.4' x2='2238.1' y2='1689.4' style="stroke-width:8.0;stroke:rgb(150,150,150);stroke-linecap:round;fill:none;" />
<line x1='2194.7' y1='1782.6' x2='2205.8' y2='1787.1' style="stroke-width:8.0;stroke:rgb(150,150,150);stroke-linecap:round;fill:none;" />
<line x1='2150.3' y1='1873.6' x2='2160.7' y2='1879.6' style="stroke-width:8.0;stroke:rgb(150,150,150);stroke-linecap:round;fill:none;" />
<line x1='2094.0' y1='1957.8' x2='2103.5' y2='1965.2' style="stroke-width:8.0;stroke:rgb(150,150,150);stroke-linecap:round;fill:none;" />
<text x="2104.4" y="1983.5" font-size="41.6px" font-family="CMUBright-Roman" style="text-anchor:start;fill:rgb(150,150,150);" transform="rotate(37.6,2104.4,1983.5)" >1900 kb</text>
<line x1='2026.9' y1='2033.7' x2='2035.4' y2='2042.2' style="stroke-width:8.0;stroke:rgb(150,150,150);stroke-linecap:round;fill:none;" />
<line x1='1950.2' y1='2099.8' x2='1957.4' y2='2109.4' style="stroke-width:8.0;stroke:rgb(150,150,150);stroke-linecap:round;fill:none;" />
<line x1='1865.3' y1='2155.0' x2='1871.2' y2='2165.5' style="stroke-width:8.0;stroke:rgb(150,150,150);stroke-linecap:round;fill:none;" />
<line x1='1773.7' y1='2198.3' x2='1778.1' y2='2209.4' style="stroke-width:8.0;stroke:rgb(150,150,150);stroke-linecap:round;fill:none;" />
<g id="highlighttrack_0">
<path d="M2036.817,1380.302 A550.000,550.000 40.000 0,1 2043.570,1416.145 L2241.232,1385.652 A750.000,750.000 0.000 0,0 2232.023,1336.776 Z" style="stroke-width:14.0;stroke:rgb(0,0,0);stroke-linecap:round;fill:rgb(255,38,78);" />
</g>
<path d="M1500.000,950.000 A550.000,550.000 40.000 0,1 1700.143,2012.292 L1772.923,2198.579 A750.000,750.000 0.000 0,0 1500.000,750.000 Z" style="stroke-width:2.0;stroke:rgb(0,0,0);stroke-linecap:round;fill:none;" />
<path d="M1481.867,2049.701 A550.000,550.000 40.000 0,1 1283.076,994.585 L1204.195,810.798 A750.000,750.000 0.000 0,0 1475.274,2249.592 Z" style="stroke-width:2.0;stroke:rgb(0,0,0);stroke-linecap:round;fill:rgb(179,177,178);" />
<text x="497.6" y="1688.9" font-size="46.8px" font-family="CMUBright-Roman" style="text-anchor:middle;fill:rgb(0,0,0);" transform="rotate(79.3,497.6,1688.9)" >HistosurSECH103<tspan baseline-shift="-40%" font-size="90%">1</tspan></text>
<line x1='1168.6' y1='827.2' x2='1163.3' y2='816.4' style="stroke-width:8.0;stroke:rgb(150,150,150);stroke-linecap:round;fill:none;" />
<line x1='1081.0' y1='877.9' x2='1074.3' y2='868.0' style="stroke-width:8.0;stroke:rgb(150,150,150);stroke-linecap:round;fill:none;" />
<text x="1056.1" y="866.0" font-size="41.6px" font-family="CMUBright-Roman" style="text-anchor:end;fill:rgb(150,150,150);" transform="rotate(56.0,1056.1,866.0)" >1850 kb</text>
<line x1='1001.0' y1='940.1' x2='993.0' y2='931.1' style="stroke-width:8.0;stroke:rgb(150,150,150);stroke-linecap:round;fill:none;" />
<line x1='930.1' y1='1012.4' x2='921.0' y2='1004.6' style="stroke-width:8.0;stroke:rgb(150,150,150);stroke-linecap:round;fill:none;" />
<line x1='869.6' y1='1093.6' x2='859.6' y2='1087.1' style="stroke-width:8.0;stroke:rgb(150,150,150);stroke-linecap:round;fill:none;" />
<line x1='820.6' y1='1182.3' x2='809.8' y2='1177.2' style="stroke-width:8.0;stroke:rgb(150,150,150);stroke-linecap:round;fill:none;" />
<line x1='784.0' y1='1276.7' x2='772.6' y2='1273.1' style="stroke-width:8.0;stroke:rgb(150,150,150);stroke-linecap:round;fill:none;" />
<text x="757.1" y="1282.9" font-size="41.6px" font-family="CMUBright-Roman" style="text-anchor:end;fill:rgb(150,150,150);" transform="rotate(17.3,757.1,1282.9)" >1900 kb</text>
<line x1='760.5' y1='1375.2' x2='748.6' y2='1373.2' style="stroke-width:8.0;stroke:rgb(150,150,150);stroke-linecap:round;fill:none;" />
<line x1='750.4' y1='1476.0' x2='738.4' y2='1475.6' style="stroke-width:8.0;stroke:rgb(150,150,150);stroke-linecap:round;fill:none;" />
<line x1='754.0' y1='1577.2' x2='742.0' y2='1578.4' style="stroke-width:8.0;stroke:rgb(150,150,150);stroke-linecap:round;fill:none;" />
<line x1='771.2' y1='1677.0' x2='759.5' y2='1679.8' style="stroke-width:8.0;stroke:rgb(150,150,150);stroke-linecap:round;fill:none;" />
<line x1='801.7' y1='1773.6' x2='790.5' y2='1777.9' style="stroke-width:8.0;stroke:rgb(150,150,150);stroke-linecap:round;fill:none;" />
<text x="784.5" y="1795.3" font-size="41.6px" font-family="CMUBright-Roman" style="text-anchor:end;fill:rgb(150,150,150);" transform="rotate(-21.4,784.5,1795.3)" >1950 kb</text>
<line x1='844.9' y1='1865.2' x2='834.4' y2='1871.0' style="stroke-width:8.0;stroke:rgb(150,150,150);stroke-linecap:round;fill:none;" />
<line x1='900.1' y1='1950.1' x2='890.5' y2='1957.3' style="stroke-width:8.0;stroke:rgb(150,150,150);stroke-linecap:round;fill:none;" />
<line x1='966.2' y1='2026.8' x2='957.6' y2='2035.2' style="stroke-width:8.0;stroke:rgb(150,150,150);stroke-linecap:round;fill:none;" />
<line x1='1042.0' y1='2093.9' x2='1034.7' y2='2103.4' style="stroke-width:8.0;stroke:rgb(150,150,150);stroke-linecap:round;fill:none;" />
<line x1='1126.2' y1='2150.2' x2='1120.2' y2='2160.6' style="stroke-width:8.0;stroke:rgb(150,150,150);stroke-linecap:round;fill:none;" />
<text x="1126.5" y="2177.9" font-size="41.6px" font-family="CMUBright-Roman" style="text-anchor:end;fill:rgb(150,150,150);" transform="rotate(-60.1,1126.5,2177.9)" >2000 kb</text>
<line x1='1217.2' y1='2194.7' x2='1212.7' y2='2205.8' style="stroke-width:8.0;stroke:rgb(150,150,150);stroke-linecap:round;fill:none;" />
<line x1='1313.4' y1='2226.4' x2='1310.4' y2='2238.0' style="stroke-width:8.0;stroke:rgb(150,150,150);stroke-linecap:round;fill:none;" />
<line x1='1413.0' y1='2244.9' x2='1411.6' y2='2256.9' style="stroke-width:8.0;stroke:rgb(150,150,150);stroke-linecap:round;fill:none;" />
<path d="M1481.867,2049.701 A550.000,550.000 40.000 0,1 1283.076,994.585 L1204.195,810.798 A750.000,750.000 0.000 0,0 1475.274,2249.592 Z" style="stroke-width:2.0;stroke:rgb(0,0,0);stroke-linecap:round;fill:none;" />
</g>
<g id="track_0">
<path d="M 2014.949,1411.494 A 522.500,522.500 0.00 0,1 2015.6,1584.5 L 2015.6,1584.5 1991.3,1580.7 1966.6,1577.1 1941.8,1574.0 1916.7,1571.1 1891.4,1568.7 1866.0,1566.6 1840.4,1565.0 1814.6,1563.8 1788.8,1563.0 1762.8,1562.7 1736.8,1562.8 1710.7,1563.4 1684.6,1564.6 1658.5,1566.2 1632.4,1568.3 1606.2,1570.9 1580.1,1574.1 1554.1,1577.7 1528.1,1581.9 1502.2,1586.5 1476.4,1591.7 1450.8,1597.4 1425.2,1603.6 1399.8,1610.2 1374.6,1617.4 1349.5,1625.0 1324.7,1633.1 1300.0,1641.6 1275.6,1650.5 1251.4,1659.9 1227.4,1669.6 1203.7,1679.7 1180.3,1690.2 1157.2,1701.0 1134.4,1712.2 1111.9,1723.6 1089.7,1735.2 1067.8,1747.1 1046.3,1759.2  A 522.500,522.500 0.00 0,1 986.6,1596.8 L 986.6,1596.8 1012.8,1591.9 1039.1,1586.9 1065.4,1582.0 1091.7,1577.1 1118.1,1572.2 1144.4,1567.2 1170.7,1562.3 1197.1,1557.4 1223.4,1552.6 1249.8,1547.7 1276.1,1542.8 1302.5,1538.0 1328.8,1533.1 1355.2,1528.3 1381.6,1523.5 1408.0,1518.7 1434.4,1513.9 1460.8,1509.1 1487.2,1504.3 1513.6,1499.6 1539.9,1494.8 1566.3,1490.1 1592.7,1485.4 1619.1,1480.7 1645.6,1476.0 1672.0,1471.3 1698.4,1466.6 1724.8,1462.0 1751.2,1457.3 1777.5,1452.7 1803.9,1448.1 1830.3,1443.5 1856.7,1438.9 1883.1,1434.3 1909.5,1429.7 1935.9,1425.1 1962.2,1420.6 1988.6,1416.0 2014.9,1411.5  Z" style="stroke-width: 0.5;  stroke: rgb(0,0,0); fill: rgb(179,177,178);" />
<path d="M 1843.791,1893.464 A 522.500,522.500 0.00 0,1 1743.8,1962.2 L 1743.8,1962.2 1733.9,1943.9 1723.7,1925.9 1713.1,1908.2 1702.3,1891.0 1691.1,1874.4 1679.7,1858.5 1668.0,1843.4 1656.2,1829.2 1644.1,1815.9 1631.9,1803.6 1619.6,1792.4 1607.1,1782.4 1594.6,1773.6 1581.9,1766.0 1569.3,1759.8 1556.6,1754.9 1543.9,1751.3 1531.2,1749.2 1518.5,1748.4 1506.0,1749.0 1493.4,1751.0 1481.0,1754.4 1468.8,1759.2 1456.6,1765.3 1444.6,1772.8 1432.8,1781.6 1421.2,1791.5 1409.7,1802.7 1398.5,1815.1 1387.6,1828.5 1376.9,1842.9 1366.5,1858.3 1356.4,1874.5 1346.6,1891.4 1337.2,1909.0 1328.0,1927.2 1319.3,1945.8 1310.9,1964.7 1302.8,1983.9  A 522.500,522.500 0.00 0,1 1196.5,1925.3 L 1196.5,1925.3 1209.3,1907.9 1222.5,1890.7 1236.3,1873.9 1250.4,1857.5 1265.0,1841.6 1280.0,1826.4 1295.4,1811.9 1311.1,1798.1 1327.2,1785.2 1343.6,1773.1 1360.3,1762.0 1377.2,1752.0 1394.4,1742.9 1411.8,1735.0 1429.4,1728.2 1447.2,1722.5 1465.1,1718.0 1483.2,1714.7 1501.3,1712.6 1519.6,1711.7 1537.8,1712.0 1556.1,1713.5 1574.4,1716.2 1592.7,1720.1 1610.9,1725.2 1629.0,1731.4 1647.0,1738.7 1664.8,1747.1 1682.5,1756.4 1700.0,1766.8 1717.3,1778.1 1734.3,1790.3 1751.0,1803.2 1767.4,1816.9 1783.5,1831.2 1799.2,1846.2 1814.5,1861.6 1829.4,1877.4 1843.8,1893.5  Z" style="stroke-width: 0.5;  stroke: rgb(0,0,0); fill: rgb(179,177,178);" />
<path d="M 1913.605,1180.724 A 522.500,522.500 0.00 0,1 1974.0,1280.1 L 1974.0,1280.1 1950.9,1290.6 1927.6,1301.0 1904.1,1311.3 1880.3,1321.3 1856.3,1331.2 1832.1,1340.8 1807.6,1350.2 1783.0,1359.3 1758.2,1368.2 1733.2,1376.8 1708.0,1385.1 1682.6,1393.1 1657.1,1400.9 1631.5,1408.3 1605.7,1415.3 1579.8,1422.1 1553.8,1428.5 1527.7,1434.6 1501.5,1440.3 1475.2,1445.7 1448.8,1450.7 1422.4,1455.4 1396.0,1459.7 1369.5,1463.7 1343.0,1467.3 1316.6,1470.6 1290.1,1473.6 1263.6,1476.1 1237.2,1478.4 1210.8,1480.3 1184.5,1481.9 1158.2,1483.2 1132.1,1484.2 1106.0,1484.9 1080.1,1485.2 1054.2,1485.4 1028.6,1485.2 1003.1,1484.8 977.7,1484.1  A 522.500,522.500 0.00 0,1 994.1,1369.4 L 994.1,1369.4 1017.4,1375.2 1040.9,1380.6 1064.8,1385.6 1088.9,1390.2 1113.3,1394.3 1137.9,1397.9 1162.6,1401.0 1187.5,1403.6 1212.6,1405.6 1237.7,1407.0 1262.9,1407.8 1288.2,1407.9 1313.5,1407.5 1338.8,1406.3 1364.1,1404.6 1389.4,1402.1 1414.5,1399.0 1439.6,1395.3 1464.6,1390.8 1489.5,1385.7 1514.2,1380.0 1538.8,1373.6 1563.2,1366.5 1587.3,1358.8 1611.3,1350.4 1635.0,1341.5 1658.4,1332.0 1681.6,1321.9 1704.5,1311.2 1727.0,1300.0 1749.3,1288.3 1771.1,1276.2 1792.7,1263.6 1813.8,1250.6 1834.6,1237.2 1855.0,1223.5 1875.0,1209.5 1894.5,1195.2 1913.6,1180.7  Z" style="stroke-width: 0.5;  stroke: rgb(0,0,0); fill: rgb(179,177,178);" />
<path d="M 1917.644,1813.974 A 522.500,522.500 0.00 0,1 1844.1,1893.2 L 1844.1,1893.2 1829.7,1877.1 1814.8,1861.3 1799.4,1845.9 1783.7,1831.0 1767.6,1816.7 1751.2,1803.0 1734.4,1790.0 1717.4,1777.9 1700.1,1766.6 1682.6,1756.2 1664.9,1746.8 1647.0,1738.4 1629.0,1731.1 1610.8,1724.9 1592.6,1719.9 1574.3,1716.0 1556.0,1713.2 1537.7,1711.7 1519.3,1711.4 1501.1,1712.3 1482.9,1714.3 1464.8,1717.6 1446.8,1722.1 1429.0,1727.8 1411.3,1734.6 1393.9,1742.5 1376.6,1751.5 1359.6,1761.5 1342.9,1772.6 1326.5,1784.6 1310.4,1797.5 1294.6,1811.2 1279.1,1825.7 1264.1,1840.9 1249.4,1856.8 1235.2,1873.1 1221.5,1889.9 1208.2,1907.1 1195.3,1924.5  A 522.500,522.500 0.00 0,1 1114.6,1852.8 L 1114.6,1852.8 1131.5,1837.8 1148.9,1823.0 1166.7,1808.5 1185.0,1794.5 1203.7,1781.0 1222.8,1768.1 1242.3,1755.7 1262.1,1744.0 1282.3,1733.0 1302.8,1722.8 1323.6,1713.4 1344.6,1704.8 1365.9,1697.1 1387.4,1690.3 1409.0,1684.3 1430.9,1679.4 1452.8,1675.4 1474.9,1672.3 1497.1,1670.3 1519.3,1669.2 1541.6,1669.1 1563.9,1670.0 1586.1,1671.9 1608.4,1674.7 1630.5,1678.5 1652.5,1683.2 1674.5,1688.8 1696.2,1695.4 1717.8,1702.7 1739.2,1710.9 1760.3,1719.9 1781.2,1729.6 1801.8,1740.0 1822.1,1751.1 1842.0,1762.7 1861.6,1774.9 1880.7,1787.5 1899.4,1800.6 1917.6,1814.0  Z" style="stroke-width: 0.5;  stroke: rgb(0,0,0); fill: rgb(179,177,178);" />
<path d="M 1804.768,1075.591 A 522.500,522.500 0.00 0,1 1882.8,1144.4 L 1882.8,1144.4 1865.5,1160.2 1847.6,1175.7 1829.3,1191.0 1810.6,1206.0 1791.4,1220.6 1771.7,1234.7 1751.7,1248.5 1731.2,1261.7 1710.4,1274.3 1689.2,1286.4 1667.6,1297.8 1645.7,1308.7 1623.4,1318.8 1600.9,1328.3 1578.1,1337.0 1555.0,1345.0 1531.7,1352.3 1508.2,1358.7 1484.5,1364.4 1460.6,1369.4 1436.6,1373.5 1412.4,1376.9 1388.1,1379.4 1363.8,1381.2 1339.4,1382.2 1314.9,1382.5 1290.5,1381.9 1266.1,1380.7 1241.8,1378.7 1217.5,1376.0 1193.3,1372.6 1169.3,1368.6 1145.5,1364.0 1121.8,1358.7 1098.4,1352.9 1075.3,1346.6 1052.4,1339.8 1029.9,1332.5 1007.7,1324.9  A 522.500,522.500 0.00 0,1 1052.3,1230.6 L 1052.3,1230.6 1071.6,1241.9 1091.3,1252.8 1111.4,1263.2 1131.8,1273.1 1152.5,1282.4 1173.5,1291.1 1194.6,1299.0 1216.0,1306.1 1237.5,1312.5 1259.1,1318.0 1280.8,1322.6 1302.5,1326.3 1324.2,1329.1 1345.9,1330.9 1367.6,1331.7 1389.1,1331.5 1410.6,1330.3 1431.9,1328.0 1453.0,1324.7 1473.9,1320.4 1494.6,1315.1 1515.1,1308.7 1535.3,1301.4 1555.1,1293.1 1574.7,1283.8 1593.9,1273.5 1612.8,1262.4 1631.3,1250.4 1649.4,1237.6 1667.0,1224.0 1684.3,1209.7 1701.1,1194.7 1717.4,1179.0 1733.2,1162.8 1748.6,1146.1 1763.4,1128.9 1777.7,1111.4 1791.5,1093.6 1804.8,1075.6  Z" style="stroke-width: 0.5;  stroke: rgb(0,0,0); fill: rgb(179,177,178);" />
<path d="M 1500.000,977.500 A 522.500,522.500 0.00 0,1 1587.3,984.8 L 1587.3,984.8 1583.7,1005.1 1579.7,1025.3 1575.3,1045.1 1570.5,1064.6 1565.4,1083.7 1559.8,1102.1 1553.8,1119.7 1547.4,1136.6 1540.6,1152.6 1533.4,1167.6 1525.8,1181.6 1517.8,1194.5 1509.4,1206.2 1500.6,1216.6 1491.4,1225.8 1481.8,1233.7 1471.9,1240.2 1461.7,1245.4 1451.1,1249.1 1440.2,1251.5 1429.0,1252.5 1417.5,1252.1 1405.8,1250.2 1393.8,1247.1 1381.6,1242.5 1369.3,1236.7 1356.8,1229.6 1344.1,1221.2 1331.4,1211.6 1318.6,1201.0 1305.8,1189.3 1292.9,1176.6 1280.1,1163.0 1267.4,1148.6 1254.8,1133.4 1242.3,1117.7 1230.1,1101.4 1218.1,1084.8 1206.3,1067.8  A 522.500,522.500 0.00 0,1 1292.1,1020.6 L 1292.1,1020.6 1300.3,1039.1 1308.6,1057.5 1317.0,1075.4 1325.5,1092.9 1334.0,1109.8 1342.6,1126.0 1351.1,1141.4 1359.5,1155.9 1367.9,1169.4 1376.2,1181.8 1384.4,1193.0 1392.3,1203.0 1400.1,1211.8 1407.7,1219.2 1415.1,1225.2 1422.2,1229.8 1429.0,1233.0 1435.6,1234.7 1441.9,1235.0 1447.9,1233.7 1453.5,1231.0 1458.9,1226.8 1463.9,1221.2 1468.6,1214.1 1472.9,1205.6 1477.0,1195.8 1480.6,1184.7 1484.0,1172.3 1486.9,1158.8 1489.6,1144.1 1491.9,1128.4 1493.9,1111.7 1495.6,1094.2 1497.0,1076.0 1498.2,1057.1 1499.0,1037.6 1499.6,1017.8 1499.9,997.7 1500.0,977.5  Z" style="stroke-width: 0.5;  stroke: rgb(0,0,0); fill: rgb(179,177,178);" />
<path d="M 1752.014,1042.294 A 522.500,522.500 0.00 0,1 1800.8,1072.7 L 1800.8,1072.7 1787.7,1090.9 1774.1,1108.8 1759.9,1126.4 1745.3,1143.7 1730.1,1160.5 1714.4,1176.8 1698.3,1192.6 1681.7,1207.7 1664.6,1222.2 1647.1,1235.9 1629.2,1248.8 1610.8,1260.9 1592.1,1272.1 1573.0,1282.5 1553.6,1291.8 1533.8,1300.3 1513.8,1307.7 1493.4,1314.1 1472.8,1319.6 1452.0,1324.0 1431.0,1327.3 1409.8,1329.6 1388.4,1330.9 1366.9,1331.2 1345.4,1330.5 1323.7,1328.7 1302.1,1326.0 1280.4,1322.4 1258.8,1317.8 1237.2,1312.3 1215.8,1306.0 1194.4,1298.9 1173.3,1291.0 1152.4,1282.4 1131.7,1273.1 1111.3,1263.2 1091.3,1252.8 1071.6,1241.9 1052.3,1230.6  A 522.500,522.500 0.00 0,1 1084.7,1182.9 L 1084.7,1182.9 1102.2,1195.9 1120.1,1208.5 1138.4,1220.7 1157.0,1232.4 1175.9,1243.4 1195.0,1253.7 1214.3,1263.2 1233.8,1272.0 1253.4,1279.8 1273.1,1286.8 1292.8,1292.7 1312.5,1297.7 1332.3,1301.6 1352.0,1304.5 1371.5,1306.2 1391.0,1306.8 1410.4,1306.3 1429.5,1304.7 1448.5,1301.9 1467.2,1297.9 1485.7,1292.8 1503.9,1286.6 1521.8,1279.3 1539.3,1270.9 1556.6,1261.4 1573.4,1250.8 1589.9,1239.3 1606.0,1226.8 1621.6,1213.3 1636.8,1199.0 1651.6,1183.9 1665.9,1168.1 1679.7,1151.5 1693.0,1134.4 1705.9,1116.7 1718.2,1098.6 1730.0,1080.0 1741.3,1061.3 1752.0,1042.3  Z" style="stroke-width: 0.5;  stroke: rgb(0,0,0); fill: rgb(179,177,178);" />
<path d="M 1646.389,998.426 A 522.500,522.500 0.00 0,1 1698.5,1016.7 L 1698.5,1016.7 1690.2,1036.3 1681.3,1055.8 1672.0,1075.0 1662.2,1093.9 1651.8,1112.3 1641.0,1130.1 1629.7,1147.3 1617.9,1163.8 1605.6,1179.4 1592.9,1194.2 1579.8,1208.1 1566.2,1220.9 1552.2,1232.8 1537.8,1243.5 1523.0,1253.1 1507.8,1261.6 1492.3,1268.8 1476.5,1274.9 1460.4,1279.7 1443.9,1283.3 1427.3,1285.7 1410.3,1286.8 1393.2,1286.7 1375.9,1285.3 1358.4,1282.8 1340.9,1279.0 1323.2,1274.1 1305.5,1268.1 1287.7,1261.0 1270.0,1252.9 1252.3,1243.8 1234.8,1233.8 1217.3,1222.9 1200.0,1211.3 1182.9,1198.9 1166.1,1185.9 1149.6,1172.3 1133.4,1158.3 1117.6,1143.9  A 522.500,522.500 0.00 0,1 1157.6,1105.3 L 1157.6,1105.3 1171.5,1121.0 1185.8,1136.3 1200.3,1151.3 1215.1,1165.7 1230.2,1179.4 1245.4,1192.5 1260.7,1204.7 1276.1,1216.1 1291.6,1226.5 1307.1,1235.9 1322.5,1244.2 1337.9,1251.4 1353.3,1257.4 1368.5,1262.1 1383.5,1265.6 1398.4,1267.9 1413.1,1268.8 1427.5,1268.4 1441.7,1266.7 1455.6,1263.7 1469.2,1259.3 1482.5,1253.6 1495.4,1246.7 1508.0,1238.4 1520.3,1228.9 1532.1,1218.3 1543.5,1206.4 1554.5,1193.5 1565.1,1179.5 1575.3,1164.5 1585.0,1148.6 1594.2,1131.8 1603.1,1114.3 1611.4,1096.1 1619.3,1077.3 1626.8,1058.0 1633.8,1038.4 1640.3,1018.5 1646.4,998.4  Z" style="stroke-width: 0.5;  stroke: rgb(0,0,0); fill: rgb(179,177,178);" />
<path d="M 1982.311,1299.047 A 522.500,522.500 0.00 0,1 2000.5,1350.0 L 2000.5,1350.0 1975.4,1357.5 1950.1,1364.9 1924.8,1372.3 1899.3,1379.5 1873.8,1386.7 1848.2,1393.8 1822.5,1400.8 1796.7,1407.6 1770.8,1414.4 1744.9,1421.1 1718.8,1427.6 1692.8,1434.1 1666.6,1440.4 1640.4,1446.6 1614.2,1452.6 1587.9,1458.5 1561.6,1464.4 1535.2,1470.0 1508.8,1475.6 1482.3,1481.0 1455.9,1486.2 1429.4,1491.4 1402.9,1496.3 1376.4,1501.2 1349.9,1505.9 1323.3,1510.5 1296.8,1514.9 1270.3,1519.3 1243.8,1523.4 1217.3,1527.5 1190.9,1531.4 1164.5,1535.2 1138.1,1538.8 1111.7,1542.4 1085.4,1545.8 1059.2,1549.1 1033.0,1552.3 1006.8,1555.4 980.8,1558.4  A 522.500,522.500 0.00 0,1 977.5,1504.3 L 977.5,1504.3 1003.1,1504.0 1028.8,1503.4 1054.7,1502.7 1080.7,1501.7 1106.8,1500.6 1133.0,1499.1 1159.2,1497.4 1185.6,1495.5 1212.0,1493.2 1238.5,1490.7 1265.0,1488.0 1291.5,1484.9 1318.1,1481.6 1344.6,1477.9 1371.2,1474.0 1397.7,1469.8 1424.2,1465.3 1450.7,1460.5 1477.1,1455.4 1503.5,1450.0 1529.8,1444.3 1556.1,1438.3 1582.2,1432.1 1608.3,1425.6 1634.3,1418.8 1660.1,1411.7 1685.9,1404.4 1711.5,1396.8 1737.0,1388.9 1762.3,1380.8 1787.4,1372.5 1812.5,1364.0 1837.3,1355.3 1862.0,1346.3 1886.4,1337.2 1910.7,1327.9 1934.8,1318.4 1958.7,1308.8 1982.3,1299.0  Z" style="stroke-width: 0.5;  stroke: rgb(0,0,0); fill: rgb(179,177,178);" />
<path d="M 1735.237,1966.551 A 522.500,522.500 0.00 0,1 1690.1,1986.7 L 1690.1,1986.7 1682.5,1967.7 1674.7,1948.9 1666.5,1930.5 1658.1,1912.5 1649.5,1895.1 1640.7,1878.4 1631.8,1862.5 1622.6,1847.5 1613.3,1833.4 1604.0,1820.4 1594.5,1808.6 1584.9,1798.0 1575.3,1788.6 1565.6,1780.5 1555.9,1773.8 1546.2,1768.5 1536.5,1764.6 1526.9,1762.1 1517.3,1761.1 1507.7,1761.6 1498.2,1763.5 1488.8,1766.9 1479.6,1771.7 1470.4,1777.9 1461.4,1785.5 1452.6,1794.4 1443.9,1804.7 1435.4,1816.2 1427.0,1828.9 1418.9,1842.7 1411.0,1857.6 1403.4,1873.4 1395.9,1890.1 1388.8,1907.5 1381.9,1925.7 1375.2,1944.4 1368.9,1963.5 1362.8,1983.0 1357.1,2002.6  A 522.500,522.500 0.00 0,1 1310.6,1987.0 L 1310.6,1987.0 1318.3,1967.7 1326.3,1948.7 1334.7,1930.0 1343.5,1911.8 1352.6,1894.1 1362.0,1877.0 1371.7,1860.8 1381.7,1845.3 1392.0,1830.9 1402.5,1817.4 1413.3,1805.0 1424.3,1793.8 1435.5,1783.7 1446.9,1774.9 1458.4,1767.5 1470.1,1761.3 1482.0,1756.5 1493.9,1753.2 1506.0,1751.2 1518.1,1750.6 1530.3,1751.4 1542.5,1753.6 1554.8,1757.3 1567.0,1762.3 1579.2,1768.6 1591.4,1776.2 1603.5,1785.1 1615.5,1795.3 1627.4,1806.6 1639.2,1819.0 1650.8,1832.4 1662.3,1846.8 1673.5,1862.1 1684.5,1878.1 1695.2,1894.9 1705.7,1912.2 1715.9,1930.0 1725.7,1948.2 1735.2,1966.6  Z" style="stroke-width: 0.5;  stroke: rgb(0,0,0); fill: rgb(179,177,178);" />
<path d="M 2006.388,1628.754 A 522.500,522.500 0.00 0,1 1992.1,1675.7 L 1992.1,1675.7 1969.8,1668.0 1947.1,1660.7 1924.1,1653.7 1900.9,1647.3 1877.3,1641.3 1853.5,1635.9 1829.5,1631.0 1805.3,1626.8 1781.0,1623.2 1756.5,1620.2 1732.0,1617.9 1707.3,1616.3 1682.6,1615.4 1657.9,1615.2 1633.2,1615.8 1608.6,1617.1 1583.9,1619.2 1559.4,1622.0 1535.0,1625.6 1510.6,1629.9 1486.5,1635.0 1462.5,1640.8 1438.7,1647.4 1415.0,1654.7 1391.7,1662.7 1368.6,1671.4 1345.7,1680.8 1323.1,1690.8 1300.9,1701.5 1279.0,1712.8 1257.4,1724.6 1236.2,1736.9 1215.3,1749.8 1194.9,1763.1 1174.8,1776.8 1155.2,1791.0 1136.1,1805.4 1117.3,1820.1 1099.1,1835.1  A 522.500,522.500 0.00 0,1 1069.3,1795.8 L 1069.3,1795.8 1089.3,1782.3 1109.8,1769.0 1130.6,1756.0 1151.8,1743.3 1173.4,1730.9 1195.3,1718.8 1217.6,1707.2 1240.3,1696.0 1263.2,1685.2 1286.4,1674.9 1309.9,1665.2 1333.7,1655.9 1357.7,1647.2 1382.0,1639.1 1406.4,1631.5 1431.1,1624.6 1456.0,1618.2 1481.0,1612.5 1506.1,1607.3 1531.4,1602.8 1556.7,1598.9 1582.2,1595.7 1607.7,1593.1 1633.3,1591.1 1658.8,1589.7 1684.4,1589.0 1709.9,1588.8 1735.5,1589.3 1760.9,1590.3 1786.2,1592.0 1811.5,1594.1 1836.6,1596.8 1861.5,1600.1 1886.3,1603.8 1910.8,1607.9 1935.1,1612.6 1959.2,1617.6 1982.9,1623.0 2006.4,1628.8  Z" style="stroke-width: 0.5;  stroke: rgb(0,0,0); fill: rgb(179,177,178);" />
<path d="M 1705.941,1019.798 A 522.500,522.500 0.00 0,1 1741.5,1036.7 L 1741.5,1036.7 1731.2,1055.8 1720.4,1074.8 1709.1,1093.5 1697.3,1111.8 1684.9,1129.7 1672.1,1147.0 1658.7,1163.7 1644.9,1179.8 1630.6,1195.0 1615.8,1209.5 1600.6,1223.1 1585.0,1235.7 1568.9,1247.4 1552.5,1258.1 1535.7,1267.7 1518.5,1276.2 1501.1,1283.6 1483.2,1289.9 1465.1,1295.0 1446.8,1299.0 1428.2,1301.8 1409.4,1303.5 1390.4,1304.0 1371.2,1303.4 1351.9,1301.6 1332.6,1298.7 1313.1,1294.7 1293.7,1289.7 1274.2,1283.6 1254.8,1276.6 1235.4,1268.6 1216.2,1259.7 1197.1,1250.0 1178.2,1239.6 1159.6,1228.4 1141.2,1216.7 1123.2,1204.4 1105.5,1191.6 1088.2,1178.4  A 522.500,522.500 0.00 0,1 1113.6,1148.3 L 1113.6,1148.3 1129.6,1162.5 1146.0,1176.4 1162.7,1189.8 1179.7,1202.7 1197.0,1214.9 1214.6,1226.4 1232.2,1237.1 1250.1,1247.0 1268.0,1256.0 1286.0,1264.0 1304.0,1271.0 1322.0,1276.8 1339.9,1281.6 1357.7,1285.3 1375.5,1287.7 1393.1,1289.0 1410.5,1289.1 1427.7,1287.9 1444.7,1285.5 1461.4,1281.9 1477.9,1277.0 1494.0,1271.0 1509.9,1263.7 1525.4,1255.2 1540.5,1245.6 1555.2,1234.9 1569.6,1223.1 1583.5,1210.3 1597.0,1196.5 1610.0,1181.8 1622.6,1166.2 1634.7,1149.8 1646.4,1132.7 1657.6,1115.0 1668.2,1096.7 1678.4,1077.9 1688.1,1058.8 1697.3,1039.4 1705.9,1019.8  Z" style="stroke-width: 0.5;  stroke: rgb(0,0,0); fill: rgb(179,177,178);" />
<path d="M 2000.523,1350.056 A 522.500,522.500 0.00 0,1 2010.0,1386.2 L 2010.0,1386.2 1983.9,1392.0 1957.8,1397.8 1931.7,1403.6 1905.6,1409.3 1879.5,1415.1 1853.4,1420.8 1827.2,1426.5 1801.0,1432.2 1774.8,1437.8 1748.6,1443.5 1722.4,1449.1 1696.2,1454.7 1670.0,1460.3 1643.7,1465.8 1617.4,1471.4 1591.2,1476.9 1564.9,1482.4 1538.6,1487.8 1512.3,1493.3 1486.0,1498.7 1459.7,1504.0 1433.4,1509.4 1407.1,1514.7 1380.8,1520.0 1354.5,1525.3 1328.2,1530.6 1301.9,1535.8 1275.5,1541.0 1249.2,1546.2 1222.9,1551.3 1196.6,1556.5 1170.3,1561.6 1144.1,1566.6 1117.8,1571.7 1091.5,1576.7 1065.2,1581.7 1039.0,1586.7 1012.7,1591.7 986.5,1596.6  A 522.500,522.500 0.00 0,1 980.9,1559.5 L 980.9,1559.5 1007.0,1556.4 1033.1,1553.3 1059.3,1550.0 1085.5,1546.7 1111.8,1543.2 1138.2,1539.6 1164.6,1535.9 1191.0,1532.1 1217.4,1528.1 1243.9,1524.0 1270.4,1519.8 1296.9,1515.5 1323.4,1511.0 1349.9,1506.4 1376.4,1501.6 1402.9,1496.7 1429.4,1491.7 1455.9,1486.5 1482.4,1481.2 1508.8,1475.8 1535.2,1470.2 1561.6,1464.6 1587.9,1458.7 1614.2,1452.8 1640.4,1446.7 1666.6,1440.5 1692.8,1434.2 1718.8,1427.7 1744.8,1421.2 1770.8,1414.5 1796.6,1407.7 1822.4,1400.8 1848.1,1393.8 1873.8,1386.7 1899.3,1379.6 1924.8,1372.3 1950.1,1365.0 1975.4,1357.5 2000.5,1350.1  Z" style="stroke-width: 0.5;  stroke: rgb(0,0,0); fill: rgb(179,177,178);" />
<path d="M 1588.054,984.973 A 522.500,522.500 0.00 0,1 1617.7,990.9 L 1617.7,990.9 1612.8,1011.1 1607.5,1031.2 1601.8,1050.9 1595.7,1070.4 1589.1,1089.3 1582.1,1107.6 1574.7,1125.2 1566.8,1142.1 1558.5,1158.0 1549.8,1173.1 1540.6,1187.1 1531.1,1200.0 1521.1,1211.8 1510.8,1222.3 1500.0,1231.7 1488.9,1239.7 1477.4,1246.5 1465.6,1251.9 1453.5,1256.0 1441.0,1258.7 1428.3,1260.0 1415.3,1260.0 1402.1,1258.6 1388.6,1255.9 1375.0,1251.8 1361.2,1246.5 1347.2,1239.9 1333.2,1232.1 1319.0,1223.2 1304.9,1213.1 1290.7,1202.1 1276.5,1190.0 1262.5,1177.0 1248.5,1163.3 1234.7,1148.8 1221.0,1133.7 1207.6,1118.1 1194.5,1102.0 1181.7,1085.7  A 522.500,522.500 0.00 0,1 1206.2,1067.9 L 1206.2,1067.9 1218.0,1084.8 1230.0,1101.5 1242.2,1117.8 1254.7,1133.5 1267.3,1148.6 1280.0,1163.0 1292.9,1176.6 1305.7,1189.3 1318.6,1201.1 1331.4,1211.7 1344.1,1221.3 1356.8,1229.6 1369.3,1236.7 1381.7,1242.6 1393.9,1247.1 1405.9,1250.3 1417.6,1252.1 1429.1,1252.6 1440.3,1251.6 1451.2,1249.2 1461.9,1245.4 1472.1,1240.3 1482.1,1233.8 1491.7,1225.9 1500.9,1216.7 1509.7,1206.2 1518.1,1194.6 1526.2,1181.7 1533.8,1167.7 1541.1,1152.7 1547.9,1136.7 1554.3,1119.8 1560.3,1102.2 1566.0,1083.8 1571.2,1064.8 1576.0,1045.3 1580.4,1025.4 1584.4,1005.2 1588.1,985.0  Z" style="stroke-width: 0.5;  stroke: rgb(0,0,0); fill: rgb(179,177,178);" />
<path d="M 1620.044,991.477 A 522.500,522.500 0.00 0,1 1645.3,998.1 L 1645.3,998.1 1639.3,1018.2 1632.8,1038.1 1625.9,1057.7 1618.5,1077.0 1610.6,1095.8 1602.3,1114.0 1593.5,1131.5 1584.3,1148.3 1574.7,1164.2 1564.6,1179.2 1554.0,1193.2 1543.1,1206.1 1531.7,1217.9 1520.0,1228.6 1507.8,1238.1 1495.3,1246.3 1482.4,1253.3 1469.2,1258.9 1455.6,1263.2 1441.8,1266.3 1427.7,1268.0 1413.3,1268.3 1398.7,1267.4 1383.9,1265.1 1368.9,1261.5 1353.8,1256.7 1338.5,1250.7 1323.2,1243.5 1307.8,1235.2 1292.4,1225.7 1277.0,1215.3 1261.6,1203.9 1246.3,1191.6 1231.2,1178.5 1216.2,1164.7 1201.5,1150.2 1187.0,1135.2 1172.8,1119.8 1159.0,1104.1  A 522.500,522.500 0.00 0,1 1179.7,1087.2 L 1179.7,1087.2 1192.6,1103.5 1205.8,1119.5 1219.3,1135.1 1233.0,1150.1 1247.0,1164.6 1261.0,1178.3 1275.2,1191.2 1289.5,1203.2 1303.8,1214.2 1318.0,1224.2 1332.3,1233.1 1346.4,1240.8 1360.5,1247.4 1374.4,1252.6 1388.2,1256.6 1401.8,1259.3 1415.1,1260.7 1428.2,1260.7 1441.1,1259.3 1453.7,1256.6 1465.9,1252.5 1477.8,1247.0 1489.4,1240.3 1500.7,1232.2 1511.5,1222.8 1522.0,1212.2 1532.1,1200.5 1541.8,1187.5 1551.0,1173.5 1559.9,1158.5 1568.3,1142.5 1576.3,1125.7 1583.8,1108.1 1590.9,1089.8 1597.6,1070.9 1603.9,1051.5 1609.7,1031.7 1615.1,1011.6 1620.0,991.5  Z" style="stroke-width: 0.5;  stroke: rgb(0,0,0); fill: rgb(179,177,178);" />
<path d="M 2015.173,1587.197 A 522.500,522.500 0.00 0,1 2010.9,1609.5 L 2010.9,1609.5 1987.0,1604.6 1962.9,1600.0 1938.4,1595.8 1913.8,1591.9 1888.9,1588.5 1863.8,1585.5 1838.5,1582.9 1813.1,1580.9 1787.6,1579.3 1762.0,1578.3 1736.2,1577.7 1710.5,1577.7 1684.6,1578.3 1658.8,1579.4 1632.9,1581.1 1607.1,1583.3 1581.3,1586.2 1555.6,1589.6 1529.9,1593.6 1504.3,1598.1 1478.9,1603.3 1453.5,1609.0 1428.3,1615.2 1403.3,1622.1 1378.5,1629.4 1353.8,1637.3 1329.4,1645.7 1305.2,1654.6 1281.3,1664.0 1257.6,1673.9 1234.2,1684.2 1211.0,1694.9 1188.2,1706.0 1165.7,1717.5 1143.6,1729.3 1121.8,1741.5 1100.3,1753.9 1079.2,1766.6 1058.5,1779.5  A 522.500,522.500 0.00 0,1 1046.6,1759.7 L 1046.6,1759.7 1068.1,1747.6 1089.9,1735.7 1112.1,1724.0 1134.5,1712.6 1157.3,1701.5 1180.5,1690.6 1203.8,1680.2 1227.5,1670.0 1251.5,1660.3 1275.6,1651.0 1300.1,1642.0 1324.7,1633.6 1349.6,1625.5 1374.6,1617.9 1399.8,1610.8 1425.2,1604.2 1450.8,1598.1 1476.4,1592.4 1502.2,1587.3 1528.1,1582.7 1554.0,1578.6 1580.1,1575.0 1606.2,1572.0 1632.3,1569.4 1658.4,1567.4 1684.5,1565.9 1710.6,1564.8 1736.7,1564.3 1762.7,1564.2 1788.6,1564.7 1814.4,1565.5 1840.1,1566.9 1865.7,1568.6 1891.1,1570.8 1916.4,1573.4 1941.4,1576.3 1966.3,1579.6 1990.8,1583.2 2015.2,1587.2  Z" style="stroke-width: 0.5;  stroke: rgb(0,0,0); fill: rgb(179,177,178);" />
<path d="M 1989.098,1683.820 A 522.500,522.500 0.00 0,1 1980.9,1704.3 L 1980.9,1704.3 1959.4,1695.4 1937.4,1686.9 1915.2,1678.9 1892.6,1671.3 1869.7,1664.2 1846.5,1657.7 1823.2,1651.8 1799.6,1646.5 1775.9,1641.9 1752.0,1638.1 1728.0,1634.9 1704.0,1632.5 1679.9,1630.8 1655.7,1629.9 1631.6,1629.9 1607.5,1630.6 1583.5,1632.2 1559.5,1634.6 1535.6,1637.8 1511.9,1641.8 1488.3,1646.7 1464.9,1652.3 1441.7,1658.8 1418.7,1666.1 1395.9,1674.1 1373.4,1682.9 1351.2,1692.4 1329.3,1702.6 1307.7,1713.5 1286.5,1725.1 1265.6,1737.3 1245.1,1750.0 1225.0,1763.3 1205.3,1777.1 1186.0,1791.3 1167.2,1805.9 1148.9,1820.9 1131.0,1836.2 1113.6,1851.7  A 522.500,522.500 0.00 0,1 1099.1,1835.1 L 1099.1,1835.1 1117.3,1820.2 1136.0,1805.5 1155.1,1791.1 1174.7,1777.0 1194.7,1763.3 1215.1,1750.1 1235.9,1737.3 1257.1,1725.0 1278.7,1713.3 1300.6,1702.1 1322.8,1691.6 1345.3,1681.7 1368.1,1672.4 1391.2,1663.9 1414.6,1656.0 1438.1,1648.9 1461.9,1642.5 1485.8,1636.8 1509.9,1631.9 1534.2,1627.8 1558.6,1624.5 1583.1,1621.9 1607.6,1620.1 1632.2,1619.0 1656.8,1618.7 1681.4,1619.2 1706.0,1620.4 1730.5,1622.3 1755.0,1624.9 1779.3,1628.2 1803.6,1632.1 1827.6,1636.7 1851.5,1641.9 1875.1,1647.7 1898.5,1654.0 1921.7,1660.8 1944.5,1668.1 1967.0,1675.8 1989.1,1683.8  Z" style="stroke-width: 0.5;  stroke: rgb(0,0,0); fill: rgb(179,177,178);" />
<path d="M 1891.305,1153.753 A 522.500,522.500 0.00 0,1 1904.9,1169.7 L 1904.9,1169.7 1886.2,1184.7 1867.1,1199.4 1847.6,1213.9 1827.7,1228.0 1807.3,1241.9 1786.5,1255.3 1765.4,1268.4 1743.8,1281.0 1722.0,1293.1 1699.8,1304.7 1677.2,1315.8 1654.4,1326.3 1631.2,1336.2 1607.8,1345.5 1584.1,1354.2 1560.2,1362.3 1536.1,1369.7 1511.8,1376.4 1487.3,1382.5 1462.6,1387.9 1437.8,1392.6 1412.9,1396.6 1387.8,1400.0 1362.7,1402.6 1337.6,1404.6 1312.4,1405.9 1287.3,1406.5 1262.1,1406.5 1237.0,1405.8 1212.0,1404.5 1187.0,1402.6 1162.2,1400.1 1137.5,1397.1 1113.1,1393.5 1088.8,1389.5 1064.7,1384.9 1040.9,1379.9 1017.4,1374.5 994.3,1368.7  A 522.500,522.500 0.00 0,1 999.8,1348.9 L 999.8,1348.9 1022.5,1355.5 1045.6,1361.7 1068.9,1367.5 1092.6,1372.9 1116.5,1377.7 1140.6,1382.0 1164.8,1385.7 1189.3,1388.9 1213.8,1391.4 1238.5,1393.2 1263.3,1394.4 1288.0,1395.0 1312.8,1394.8 1337.6,1393.9 1362.4,1392.3 1387.1,1389.9 1411.8,1386.8 1436.3,1383.0 1460.7,1378.4 1484.9,1373.1 1509.0,1367.1 1532.9,1360.3 1556.6,1352.8 1580.0,1344.6 1603.2,1335.8 1626.1,1326.2 1648.7,1316.0 1671.0,1305.2 1693.0,1293.8 1714.6,1281.8 1735.9,1269.2 1756.8,1256.2 1777.3,1242.6 1797.4,1228.7 1817.1,1214.3 1836.3,1199.6 1855.1,1184.6 1873.4,1169.3 1891.3,1153.8  Z" style="stroke-width: 0.5;  stroke: rgb(0,0,0); fill: rgb(179,177,178);" />
<path d="M 1973.794,1279.715 A 522.500,522.500 0.00 0,1 1981.4,1297.0 L 1981.4,1297.0 1957.8,1306.8 1934.0,1316.5 1910.0,1326.1 1885.8,1335.5 1861.3,1344.7 1836.7,1353.8 1811.9,1362.6 1786.9,1371.2 1761.8,1379.6 1736.5,1387.8 1711.1,1395.7 1685.5,1403.4 1659.8,1410.8 1634.0,1417.9 1608.0,1424.8 1582.0,1431.4 1555.8,1437.7 1529.6,1443.7 1503.3,1449.5 1476.9,1454.9 1450.5,1460.0 1424.1,1464.9 1397.5,1469.5 1371.0,1473.7 1344.5,1477.7 1317.9,1481.3 1291.4,1484.7 1264.9,1487.8 1238.4,1490.6 1211.9,1493.1 1185.5,1495.4 1159.2,1497.4 1132.9,1499.1 1106.7,1500.5 1080.6,1501.7 1054.7,1502.7 1028.8,1503.4 1003.1,1504.0 977.5,1504.3  A 522.500,522.500 0.00 0,1 977.7,1484.8 L 977.7,1484.8 1003.1,1485.5 1028.6,1485.8 1054.2,1486.0 1080.0,1485.8 1106.0,1485.4 1132.0,1484.7 1158.2,1483.7 1184.5,1482.4 1210.8,1480.7 1237.2,1478.8 1263.6,1476.5 1290.0,1473.9 1316.5,1470.9 1343.0,1467.6 1369.5,1463.9 1396.0,1459.9 1422.4,1455.6 1448.8,1450.9 1475.1,1445.8 1501.4,1440.4 1527.6,1434.6 1553.7,1428.5 1579.7,1422.1 1605.6,1415.3 1631.4,1408.2 1657.0,1400.8 1682.5,1393.0 1707.9,1385.0 1733.1,1376.6 1758.1,1368.0 1782.9,1359.1 1807.5,1350.0 1832.0,1340.6 1856.2,1330.9 1880.2,1321.0 1903.9,1311.0 1927.5,1300.7 1950.8,1290.3 1973.8,1279.7  Z" style="stroke-width: 0.5;  stroke: rgb(0,0,0); fill: rgb(179,177,178);" />
<path d="M 1882.825,1144.400 A 522.500,522.500 0.00 0,1 1891.3,1153.8 L 1891.3,1153.8 1873.5,1169.3 1855.1,1184.5 1836.3,1199.6 1817.1,1214.3 1797.4,1228.6 1777.3,1242.6 1756.8,1256.1 1735.9,1269.2 1714.7,1281.7 1693.0,1293.7 1671.1,1305.1 1648.8,1315.9 1626.2,1326.0 1603.3,1335.6 1580.1,1344.4 1556.6,1352.6 1533.0,1360.0 1509.1,1366.7 1485.0,1372.7 1460.8,1378.0 1436.4,1382.5 1411.9,1386.3 1387.3,1389.4 1362.6,1391.7 1337.8,1393.2 1313.0,1394.1 1288.2,1394.2 1263.5,1393.7 1238.7,1392.4 1214.1,1390.5 1189.5,1387.9 1165.1,1384.7 1140.9,1380.9 1116.8,1376.6 1092.9,1371.7 1069.3,1366.3 1046.0,1360.4 1023.0,1354.1 1000.3,1347.4  A 522.500,522.500 0.00 0,1 1004.2,1335.0 L 1004.2,1335.0 1026.6,1342.2 1049.3,1349.0 1072.4,1355.3 1095.7,1361.2 1119.3,1366.6 1143.1,1371.4 1167.1,1375.7 1191.3,1379.3 1215.6,1382.2 1240.0,1384.5 1264.5,1386.1 1289.0,1387.0 1313.5,1387.2 1338.1,1386.6 1362.6,1385.2 1387.0,1383.1 1411.4,1380.3 1435.6,1376.6 1459.7,1372.2 1483.7,1367.0 1507.5,1361.0 1531.1,1354.3 1554.4,1346.8 1577.5,1338.6 1600.4,1329.7 1623.0,1320.1 1645.2,1309.7 1667.2,1298.8 1688.8,1287.2 1710.1,1275.0 1731.0,1262.2 1751.5,1248.9 1771.5,1235.1 1791.2,1220.9 1810.5,1206.2 1829.3,1191.2 1847.6,1175.8 1865.4,1160.2 1882.8,1144.4  Z" style="stroke-width: 0.5;  stroke: rgb(0,0,0); fill: rgb(179,177,178);" />
</g>
<g id="plot0">
<g id="plot0-axis">
</g>
<line x1='2243.2' y1='1601.0' x2='2243.2' y2='1601.0' style="stroke-width:14.0;stroke:rgb(0,0,0);stroke-linecap:round;fill:none;" />
<line x1='2243.2' y1='1601.0' x2='2282.8' y2='1606.4' style="stroke-width:14.0;stroke:rgb(0,0,0);stroke-linecap:round;fill:none;" />
<line x1='2282.8' y1='1606.4' x2='2282.8' y2='1606.4' style="stroke-width:14.0;stroke:rgb(0,0,0);stroke-linecap:round;fill:none;" />
<text x="2299.3" y="1631.3" font-size="46.8px" font-family="CMUBright-Roman" style="text-anchor:start;fill:rgb(255,38,78);" transform="rotate(7.7,2299.3,1631.3)" >HistomissSECH90<tspan baseline-shift="-40%" font-size="90%">s</tspan>02626</text>
</g>
<defs>
<pattern id="hline-sparse" width="10" height="10" patternTransform="rotate(0 0 0)" patternUnits="userSpaceOnUse"><line x1="0" y1="0" x2="10" y2="0" style="stroke:black;stroke-width:2" /></pattern>
<pattern id="checker" width="10" height="10" patternTransform="rotate(45 0 0)" patternUnits="userSpaceOnUse"><line x1="0" y1="0" x2="10" y2="0" style="stroke:black;stroke-width:5" /><line x1="0" y1="0" x2="0" y2="10" style="stroke:black;stroke-width:4" /></pattern>
<pattern id="vline-sparse" width="10" height="10" patternTransform="rotate(0 0 0)" patternUnits="userSpaceOnUse"><line x1="0" y1="0" x2="0" y2="10" style="stroke:black;stroke-width:2" /></pattern>
<pattern id="vline" width="10" height="10" patternTransform="rotate(0 0 0)" patternUnits="userSpaceOnUse"><line x1="0" y1="0" x2="0" y2="10" style="stroke:black;stroke-width:5" /></pattern>
<pattern id="hline" width="10" height="10" patternTransform="rotate(0 0 0)" patternUnits="userSpaceOnUse"><line x1="0" y1="0" x2="10" y2="0" style="stroke:black;stroke-width:5" /></pattern>
<pattern id="checker" width="10" height="10" patternTransform="rotate(45 0 0)" patternUnits="userSpaceOnUse"><line x1="0" y1="0" x2="10" y2="0" style="stroke:black;stroke-width:2" /><line x1="0" y1="0" x2="0" y2="10" style="stroke:black;stroke-width:2" /></pattern>
</defs>
</svg>
