<?xml version="1.0" encoding="utf-8" standalone="no"?>
<!DOCTYPE svg PUBLIC "-//W3C//DTD SVG 1.1//EN" "http://www.w3.org/Graphics/SVG/1.1/DTD/svg11.dtd">
<svg width="3000px" height="3000px" version="1.1" xmlns="http://www.w3.org/2000/svg" xmlns:xlink="http://www.w3.org/1999/xlink">
<g id="bg">
<rect x="0" y="0" width="3000px" height="3000px" style="fill:rgb(255,255,255);"/>
</g>
<g id="ideograms">
<path d="M1500.000,950.000 A550.000,550.000 40.000 1,1 1297.208,2011.249 L1223.465,2197.157 A750.000,750.000 0.000 1,0 1500.000,750.000 Z" style="stroke-width:2.0;stroke:rgb(0,0,0);stroke-linecap:round;fill:rgb(179,177,178);" />
<text x="2500.9" y="1691.3" font-size="46.8px" font-family="CMUBright-Roman" style="text-anchor:middle;fill:rgb(0,0,0);" transform="rotate(-79.2,2500.9,1691.3)" >Histocap136P07<tspan baseline-shift="-40%" font-size="90%">5</tspan></text>
<line x1='1531.0' y1='750.6' x2='1531.5' y2='738.7' style="stroke-width:8.0;stroke:rgb(150,150,150);stroke-linecap:round;fill:none;" />
<text x="1546.0" y="727.4" font-size="41.6px" font-family="CMUBright-Roman" style="text-anchor:start;fill:rgb(150,150,150);" transform="rotate(272.4,1546.0,727.4)" >2700 kb</text>
<line x1='1609.9' y1='758.1' x2='1611.7' y2='746.2' style="stroke-width:8.0;stroke:rgb(150,150,150);stroke-linecap:round;fill:none;" />
<line x1='1687.6' y1='773.8' x2='1690.6' y2='762.2' style="stroke-width:8.0;stroke:rgb(150,150,150);stroke-linecap:round;fill:none;" />
<line x1='1763.2' y1='797.7' x2='1767.5' y2='786.5' style="stroke-width:8.0;stroke:rgb(150,150,150);stroke-linecap:round;fill:none;" />
<line x1='1835.9' y1='829.4' x2='1841.3' y2='818.7' style="stroke-width:8.0;stroke:rgb(150,150,150);stroke-linecap:round;fill:none;" />
<line x1='1904.8' y1='868.6' x2='1911.3' y2='858.5' style="stroke-width:8.0;stroke:rgb(150,150,150);stroke-linecap:round;fill:none;" />
<text x="1929.5" y="856.1" font-size="41.6px" font-family="CMUBright-Roman" style="text-anchor:start;fill:rgb(150,150,150);" transform="rotate(302.7,1929.5,856.1)" >2750 kb</text>
<line x1='1969.2' y1='914.9' x2='1976.7' y2='905.5' style="stroke-width:8.0;stroke:rgb(150,150,150);stroke-linecap:round;fill:none;" />
<line x1='2028.4' y1='967.7' x2='2036.8' y2='959.2' style="stroke-width:8.0;stroke:rgb(150,150,150);stroke-linecap:round;fill:none;" />
<line x1='2081.6' y1='1026.5' x2='2090.9' y2='1018.9' style="stroke-width:8.0;stroke:rgb(150,150,150);stroke-linecap:round;fill:none;" />
<line x1='2128.4' y1='1090.5' x2='2138.4' y2='1084.0' style="stroke-width:8.0;stroke:rgb(150,150,150);stroke-linecap:round;fill:none;" />
<line x1='2168.1' y1='1159.2' x2='2178.8' y2='1153.7' style="stroke-width:8.0;stroke:rgb(150,150,150);stroke-linecap:round;fill:none;" />
<text x="2195.7" y="1160.8" font-size="41.6px" font-family="CMUBright-Roman" style="text-anchor:start;fill:rgb(150,150,150);" transform="rotate(333.0,2195.7,1160.8)" >2800 kb</text>
<line x1='2200.3' y1='1231.6' x2='2211.5' y2='1227.3' style="stroke-width:8.0;stroke:rgb(150,150,150);stroke-linecap:round;fill:none;" />
<line x1='2224.7' y1='1307.0' x2='2236.3' y2='1303.9' style="stroke-width:8.0;stroke:rgb(150,150,150);stroke-linecap:round;fill:none;" />
<line x1='2241.1' y1='1384.6' x2='2252.9' y2='1382.8' style="stroke-width:8.0;stroke:rgb(150,150,150);stroke-linecap:round;fill:none;" />
<line x1='2249.1' y1='1463.5' x2='2261.1' y2='1462.9' style="stroke-width:8.0;stroke:rgb(150,150,150);stroke-linecap:round;fill:none;" />
<line x1='2248.8' y1='1542.8' x2='2260.8' y2='1543.5' style="stroke-width:8.0;stroke:rgb(150,150,150);stroke-linecap:round;fill:none;" />
<text x="2271.8" y="1558.1" font-size="41.6px" font-family="CMUBright-Roman" style="text-anchor:start;fill:rgb(150,150,150);" transform="rotate(3.3,2271.8,1558.1)" >2850 kb</text>
<line x1='2240.1' y1='1621.6' x2='2251.9' y2='1623.5' style="stroke-width:8.0;stroke:rgb(150,150,150);stroke-linecap:round;fill:none;" />
<line x1='2223.1' y1='1699.1' x2='2234.7' y2='1702.2' style="stroke-width:8.0;stroke:rgb(150,150,150);stroke-linecap:round;fill:none;" />
<line x1='2198.0' y1='1774.3' x2='2209.2' y2='1778.7' style="stroke-width:8.0;stroke:rgb(150,150,150);stroke-linecap:round;fill:none;" />
<line x1='2165.2' y1='1846.4' x2='2175.8' y2='1852.0' style="stroke-width:8.0;stroke:rgb(150,150,150);stroke-linecap:round;fill:none;" />
<line x1='2124.9' y1='1914.7' x2='2134.9' y2='1921.4' style="stroke-width:8.0;stroke:rgb(150,150,150);stroke-linecap:round;fill:none;" />
<text x="2137.0" y="1939.6" font-size="41.6px" font-family="CMUBright-Roman" style="text-anchor:start;fill:rgb(150,150,150);" transform="rotate(33.6,2137.0,1939.6)" >2900 kb</text>
<line x1='2077.6' y1='1978.4' x2='2086.9' y2='1986.0' style="stroke-width:8.0;stroke:rgb(150,150,150);stroke-linecap:round;fill:none;" />
<line x1='2023.9' y1='2036.7' x2='2032.3' y2='2045.3' style="stroke-width:8.0;stroke:rgb(150,150,150);stroke-linecap:round;fill:none;" />
<line x1='1964.3' y1='2089.0' x2='1971.7' y2='2098.4' style="stroke-width:8.0;stroke:rgb(150,150,150);stroke-linecap:round;fill:none;" />
<line x1='1899.5' y1='2134.7' x2='1905.9' y2='2144.9' style="stroke-width:8.0;stroke:rgb(150,150,150);stroke-linecap:round;fill:none;" />
<line x1='1830.3' y1='2173.4' x2='1835.6' y2='2184.1' style="stroke-width:8.0;stroke:rgb(150,150,150);stroke-linecap:round;fill:none;" />
<text x="1828.2" y="2201.0" font-size="41.6px" font-family="CMUBright-Roman" style="text-anchor:start;fill:rgb(150,150,150);" transform="rotate(63.9,1828.2,2201.0)" >2950 kb</text>
<line x1='1757.3' y1='2204.5' x2='1761.5' y2='2215.7' style="stroke-width:8.0;stroke:rgb(150,150,150);stroke-linecap:round;fill:none;" />
<line x1='1681.5' y1='2227.7' x2='1684.4' y2='2239.3' style="stroke-width:8.0;stroke:rgb(150,150,150);stroke-linecap:round;fill:none;" />
<line x1='1603.7' y1='2242.8' x2='1605.3' y2='2254.7' style="stroke-width:8.0;stroke:rgb(150,150,150);stroke-linecap:round;fill:none;" />
<line x1='1524.7' y1='2249.6' x2='1525.1' y2='2261.6' style="stroke-width:8.0;stroke:rgb(150,150,150);stroke-linecap:round;fill:none;" />
<line x1='1445.4' y1='2248.0' x2='1444.5' y2='2260.0' style="stroke-width:8.0;stroke:rgb(150,150,150);stroke-linecap:round;fill:none;" />
<text x="1457.6" y="2272.8" font-size="41.6px" font-family="CMUBright-Roman" style="text-anchor:end;fill:rgb(150,150,150);" transform="rotate(-85.8,1457.6,2272.8)" >3000 kb</text>
<line x1='1366.7' y1='2238.1' x2='1364.6' y2='2249.9' style="stroke-width:8.0;stroke:rgb(150,150,150);stroke-linecap:round;fill:none;" />
<line x1='1289.6' y1='2219.9' x2='1286.2' y2='2231.4' style="stroke-width:8.0;stroke:rgb(150,150,150);stroke-linecap:round;fill:none;" />
<g id="highlighttrack_0">
<path d="M1979.179,1230.023 A550.000,550.000 40.000 0,1 1845.873,1927.635 L1971.646,2083.138 A750.000,750.000 0.000 0,0 2153.426,1131.849 Z" style="stroke-width:14.0;stroke:rgb(0,0,0);stroke-linecap:round;fill:rgb(255,38,78);" />
</g>
<path d="M1500.000,950.000 A550.000,550.000 40.000 1,1 1297.208,2011.249 L1223.465,2197.157 A750.000,750.000 0.000 1,0 1500.000,750.000 Z" style="stroke-width:2.0;stroke:rgb(0,0,0);stroke-linecap:round;fill:none;" />
<path d="M1147.814,1922.452 A550.000,550.000 40.000 0,1 1328.392,977.458 L1265.989,787.442 A750.000,750.000 0.000 0,0 1019.747,2076.070 Z" style="stroke-width:2.0;stroke:rgb(0,0,0);stroke-linecap:round;fill:rgb(179,177,178);" />
<text x="542.3" y="1317.0" font-size="46.8px" font-family="CMUBright-Roman" style="text-anchor:middle;fill:rgb(0,0,0);" transform="rotate(-79.2,542.3,1317.0)" >HistosurSECH104<tspan baseline-shift="-40%" font-size="90%">5</tspan></text>
<line x1='1255.6' y1='790.9' x2='1251.7' y2='779.6' style="stroke-width:8.0;stroke:rgb(150,150,150);stroke-linecap:round;fill:none;" />
<line x1='1182.1' y1='820.7' x2='1177.0' y2='809.8' style="stroke-width:8.0;stroke:rgb(150,150,150);stroke-linecap:round;fill:none;" />
<line x1='1112.2' y1='858.1' x2='1106.0' y2='847.8' style="stroke-width:8.0;stroke:rgb(150,150,150);stroke-linecap:round;fill:none;" />
<text x="1087.8" y="844.9" font-size="41.6px" font-family="CMUBright-Roman" style="text-anchor:end;fill:rgb(150,150,150);" transform="rotate(58.9,1087.8,844.9)" >2800 kb</text>
<line x1='1046.6' y1='902.6' x2='1039.3' y2='893.0' style="stroke-width:8.0;stroke:rgb(150,150,150);stroke-linecap:round;fill:none;" />
<line x1='986.0' y1='953.8' x2='977.8' y2='945.1' style="stroke-width:8.0;stroke:rgb(150,150,150);stroke-linecap:round;fill:none;" />
<line x1='931.2' y1='1011.1' x2='922.1' y2='1003.3' style="stroke-width:8.0;stroke:rgb(150,150,150);stroke-linecap:round;fill:none;" />
<line x1='882.8' y1='1073.9' x2='872.9' y2='1067.1' style="stroke-width:8.0;stroke:rgb(150,150,150);stroke-linecap:round;fill:none;" />
<line x1='841.3' y1='1141.4' x2='830.7' y2='1135.7' style="stroke-width:8.0;stroke:rgb(150,150,150);stroke-linecap:round;fill:none;" />
<text x="813.6" y="1142.3" font-size="41.6px" font-family="CMUBright-Roman" style="text-anchor:end;fill:rgb(150,150,150);" transform="rotate(28.6,813.6,1142.3)" >2850 kb</text>
<line x1='807.1' y1='1213.0' x2='796.0' y2='1208.4' style="stroke-width:8.0;stroke:rgb(150,150,150);stroke-linecap:round;fill:none;" />
<line x1='780.7' y1='1287.8' x2='769.1' y2='1284.4' style="stroke-width:8.0;stroke:rgb(150,150,150);stroke-linecap:round;fill:none;" />
<line x1='762.3' y1='1364.9' x2='750.5' y2='1362.7' style="stroke-width:8.0;stroke:rgb(150,150,150);stroke-linecap:round;fill:none;" />
<line x1='752.1' y1='1443.5' x2='740.2' y2='1442.6' style="stroke-width:8.0;stroke:rgb(150,150,150);stroke-linecap:round;fill:none;" />
<line x1='750.3' y1='1522.8' x2='738.4' y2='1523.2' style="stroke-width:8.0;stroke:rgb(150,150,150);stroke-linecap:round;fill:none;" />
<text x="726.9" y="1537.5" font-size="41.6px" font-family="CMUBright-Roman" style="text-anchor:end;fill:rgb(150,150,150);" transform="rotate(-1.7,726.9,1537.5)" >2900 kb</text>
<line x1='756.9' y1='1601.8' x2='745.1' y2='1603.4' style="stroke-width:8.0;stroke:rgb(150,150,150);stroke-linecap:round;fill:none;" />
<line x1='771.8' y1='1679.7' x2='760.2' y2='1682.6' style="stroke-width:8.0;stroke:rgb(150,150,150);stroke-linecap:round;fill:none;" />
<line x1='794.9' y1='1755.6' x2='783.6' y2='1759.6' style="stroke-width:8.0;stroke:rgb(150,150,150);stroke-linecap:round;fill:none;" />
<line x1='825.8' y1='1828.6' x2='815.0' y2='1833.8' style="stroke-width:8.0;stroke:rgb(150,150,150);stroke-linecap:round;fill:none;" />
<line x1='864.3' y1='1897.9' x2='854.1' y2='1904.3' style="stroke-width:8.0;stroke:rgb(150,150,150);stroke-linecap:round;fill:none;" />
<text x="851.5" y="1922.4" font-size="41.6px" font-family="CMUBright-Roman" style="text-anchor:end;fill:rgb(150,150,150);" transform="rotate(-32.0,851.5,1922.4)" >2950 kb</text>
<line x1='909.8' y1='1962.8' x2='900.4' y2='1970.2' style="stroke-width:8.0;stroke:rgb(150,150,150);stroke-linecap:round;fill:none;" />
<line x1='962.0' y1='2022.5' x2='953.4' y2='2030.9' style="stroke-width:8.0;stroke:rgb(150,150,150);stroke-linecap:round;fill:none;" />
<path d="M1147.814,1922.452 A550.000,550.000 40.000 0,1 1328.392,977.458 L1265.989,787.442 A750.000,750.000 0.000 0,0 1019.747,2076.070 Z" style="stroke-width:2.0;stroke:rgb(0,0,0);stroke-linecap:round;fill:none;" />
</g>
<g id="track_0">
<path d="M 1783.520,1938.888 A 522.500,522.500 0.00 0,1 1711.3,1977.9 L 1711.3,1977.9 1701.8,1957.0 1691.8,1936.2 1681.1,1915.5 1669.9,1894.9 1658.1,1874.6 1645.7,1854.6 1632.7,1835.0 1619.2,1815.7 1605.0,1796.9 1590.2,1778.6 1574.9,1760.8 1559.0,1743.7 1542.5,1727.1 1525.4,1711.2 1507.8,1696.0 1489.7,1681.4 1471.0,1667.7 1451.9,1654.6 1432.2,1642.4 1412.1,1630.9 1391.6,1620.3 1370.6,1610.4 1349.2,1601.4 1327.5,1593.2 1305.4,1585.9 1283.0,1579.3 1260.4,1573.6 1237.5,1568.7 1214.4,1564.5 1191.1,1561.2 1167.7,1558.6 1144.2,1556.7 1120.7,1555.6 1097.1,1555.1 1073.7,1555.3 1050.3,1556.2 1027.0,1557.6 1004.0,1559.5 981.2,1562.0  A 522.500,522.500 0.00 0,1 977.9,1479.4 L 977.9,1479.4 1001.7,1480.6 1025.7,1482.2 1049.9,1484.3 1074.1,1486.9 1098.5,1490.0 1122.9,1493.7 1147.3,1498.0 1171.7,1502.9 1196.0,1508.4 1220.3,1514.4 1244.4,1521.1 1268.3,1528.5 1292.1,1536.5 1315.7,1545.1 1339.1,1554.4 1362.2,1564.3 1385.0,1574.9 1407.5,1586.1 1429.7,1597.9 1451.5,1610.4 1473.0,1623.4 1494.1,1637.1 1514.8,1651.4 1535.1,1666.2 1555.0,1681.6 1574.4,1697.5 1593.4,1713.9 1611.9,1730.8 1630.0,1748.1 1647.6,1765.9 1664.7,1784.0 1681.3,1802.6 1697.4,1821.4 1713.0,1840.5 1728.1,1859.9 1742.7,1879.4 1756.8,1899.2 1770.4,1919.0 1783.5,1938.9  Z" style="stroke-width: 0.5;  stroke: rgb(0,0,0); fill: rgb(179,177,178);" />
<path d="M 1647.658,2001.202 A 522.500,522.500 0.00 0,1 1576.2,2016.9 L 1576.2,2016.9 1572.7,1995.6 1568.8,1974.2 1564.3,1953.0 1559.1,1932.0 1553.4,1911.2 1547.0,1890.8 1539.9,1870.9 1532.2,1851.4 1523.8,1832.6 1514.7,1814.4 1504.9,1797.0 1494.4,1780.3 1483.2,1764.4 1471.3,1749.4 1458.8,1735.3 1445.6,1722.1 1431.6,1709.9 1417.1,1698.8 1401.9,1688.6 1386.1,1679.5 1369.7,1671.5 1352.7,1664.5 1335.2,1658.6 1317.2,1653.7 1298.7,1649.9 1279.7,1647.2 1260.4,1645.5 1240.7,1644.8 1220.7,1645.1 1200.4,1646.4 1179.9,1648.5 1159.2,1651.6 1138.4,1655.5 1117.6,1660.2 1096.7,1665.7 1075.9,1671.8 1055.3,1678.5 1034.8,1685.8 1014.7,1693.6  A 522.500,522.500 0.00 0,1 992.4,1623.7 L 992.4,1623.7 1014.1,1618.7 1036.0,1614.2 1058.2,1610.2 1080.5,1606.9 1102.9,1604.3 1125.4,1602.3 1147.8,1601.1 1170.2,1600.7 1192.4,1601.1 1214.5,1602.3 1236.3,1604.5 1257.9,1607.5 1279.2,1611.4 1300.1,1616.3 1320.7,1622.1 1340.9,1628.9 1360.6,1636.6 1379.9,1645.2 1398.7,1654.8 1416.9,1665.3 1434.6,1676.7 1451.8,1689.1 1468.3,1702.3 1484.3,1716.3 1499.6,1731.2 1514.4,1746.9 1528.5,1763.4 1541.9,1780.5 1554.7,1798.3 1566.9,1816.8 1578.4,1835.8 1589.2,1855.4 1599.4,1875.4 1609.0,1895.8 1618.0,1916.5 1626.3,1937.5 1634.0,1958.6 1641.1,1979.9 1647.7,2001.2  Z" style="stroke-width: 0.5;  stroke: rgb(0,0,0); fill: rgb(179,177,178);" />
<path d="M 1709.322,1978.738 A 522.500,522.500 0.00 0,1 1654.5,1999.1 L 1654.5,1999.1 1647.6,1977.9 1640.2,1956.7 1632.2,1935.6 1623.6,1914.6 1614.3,1894.0 1604.4,1873.6 1593.9,1853.6 1582.8,1834.1 1571.0,1815.2 1558.6,1796.7 1545.5,1778.9 1531.8,1761.8 1517.5,1745.4 1502.5,1729.7 1486.9,1714.8 1470.7,1700.8 1453.9,1687.6 1436.6,1675.2 1418.6,1663.8 1400.2,1653.2 1381.2,1643.6 1361.8,1634.9 1341.9,1627.2 1321.5,1620.3 1300.8,1614.5 1279.7,1609.5 1258.3,1605.5 1236.6,1602.4 1214.6,1600.1 1192.4,1598.8 1170.1,1598.3 1147.6,1598.6 1125.1,1599.6 1102.5,1601.5 1080.0,1604.0 1057.6,1607.2 1035.4,1611.0 1013.3,1615.4 991.5,1620.3  A 522.500,522.500 0.00 0,1 981.2,1562.0 L 981.2,1562.0 1004.0,1559.5 1027.0,1557.6 1050.2,1556.2 1073.6,1555.3 1097.1,1555.1 1120.6,1555.6 1144.1,1556.7 1167.6,1558.6 1190.9,1561.2 1214.2,1564.6 1237.3,1568.7 1260.1,1573.7 1282.8,1579.4 1305.1,1586.0 1327.1,1593.4 1348.8,1601.6 1370.2,1610.6 1391.1,1620.5 1411.6,1631.2 1431.7,1642.7 1451.3,1654.9 1470.4,1668.0 1489.0,1681.8 1507.0,1696.3 1524.6,1711.6 1541.6,1727.5 1558.0,1744.1 1573.8,1761.3 1589.1,1779.1 1603.8,1797.5 1617.8,1816.3 1631.3,1835.6 1644.2,1855.3 1656.5,1875.3 1668.3,1895.7 1679.4,1916.2 1689.9,1937.0 1699.9,1957.8 1709.3,1978.7  Z" style="stroke-width: 0.5;  stroke: rgb(0,0,0); fill: rgb(179,177,178);" />
<path d="M 1391.540,2011.119 A 522.500,522.500 0.00 0,1 1346.7,1999.5 L 1346.7,1999.5 1352.5,1980.1 1358.1,1960.7 1363.3,1941.5 1368.1,1922.6 1372.5,1904.2 1376.4,1886.2 1379.8,1868.8 1382.6,1852.1 1384.8,1836.2 1386.3,1821.2 1387.2,1807.1 1387.3,1794.1 1386.8,1782.1 1385.5,1771.2 1383.4,1761.5 1380.6,1753.0 1377.0,1745.7 1372.7,1739.8 1367.6,1735.1 1361.7,1731.6 1355.1,1729.5 1347.7,1728.7 1339.6,1729.2 1330.9,1731.0 1321.4,1734.1 1311.3,1738.3 1300.7,1743.8 1289.4,1750.4 1277.6,1758.2 1265.3,1766.9 1252.6,1776.7 1239.5,1787.4 1226.1,1799.0 1212.5,1811.3 1198.6,1824.3 1184.6,1837.9 1170.5,1851.9 1156.5,1866.4 1142.5,1881.1  A 522.500,522.500 0.00 0,1 1110.4,1848.1 L 1110.4,1848.1 1125.7,1834.6 1141.2,1821.4 1156.8,1808.7 1172.3,1796.4 1187.8,1784.8 1203.2,1773.9 1218.3,1763.7 1233.1,1754.5 1247.7,1746.1 1261.8,1738.8 1275.5,1732.5 1288.7,1727.3 1301.4,1723.2 1313.5,1720.4 1325.0,1718.7 1335.8,1718.3 1346.0,1719.2 1355.5,1721.3 1364.3,1724.7 1372.4,1729.4 1379.7,1735.3 1386.3,1742.5 1392.1,1751.0 1397.2,1760.6 1401.5,1771.4 1405.0,1783.3 1407.8,1796.3 1409.8,1810.4 1411.2,1825.4 1411.8,1841.3 1411.8,1858.0 1411.1,1875.5 1409.9,1893.7 1408.0,1912.4 1405.6,1931.7 1402.7,1951.3 1399.4,1971.1 1395.6,1991.1 1391.5,2011.1  Z" style="stroke-width: 0.5;  stroke: rgb(0,0,0); fill: rgb(179,177,178);" />
<path d="M 1346.568,1999.465 A 522.500,522.500 0.00 0,1 1307.3,1985.7 L 1307.3,1985.7 1314.7,1966.9 1321.8,1948.2 1328.7,1929.7 1335.2,1911.5 1341.3,1893.7 1347.0,1876.4 1352.2,1859.8 1356.8,1843.9 1360.8,1828.8 1364.2,1814.6 1366.9,1801.4 1368.9,1789.2 1370.2,1778.1 1370.8,1768.1 1370.6,1759.3 1369.7,1751.7 1367.9,1745.4 1365.4,1740.4 1362.1,1736.6 1358.0,1734.2 1353.2,1733.1 1347.5,1733.3 1341.2,1734.8 1334.0,1737.6 1326.2,1741.6 1317.7,1746.9 1308.6,1753.3 1298.8,1761.0 1288.5,1769.7 1277.7,1779.4 1266.3,1790.2 1254.6,1801.8 1242.4,1814.3 1230.0,1827.5 1217.3,1841.4 1204.4,1855.8 1191.4,1870.7 1178.4,1885.9 1165.4,1901.3  A 522.500,522.500 0.00 0,1 1143.6,1882.0 L 1143.6,1882.0 1157.5,1867.3 1171.5,1852.8 1185.5,1838.7 1199.4,1825.1 1213.3,1812.1 1226.9,1799.7 1240.3,1788.1 1253.3,1777.4 1266.0,1767.6 1278.2,1758.7 1290.0,1751.0 1301.2,1744.3 1311.8,1738.8 1321.9,1734.5 1331.3,1731.4 1340.0,1729.6 1348.0,1729.1 1355.4,1729.8 1362.0,1731.9 1367.8,1735.3 1372.9,1740.0 1377.2,1745.9 1380.7,1753.2 1383.5,1761.6 1385.6,1771.3 1386.8,1782.2 1387.4,1794.2 1387.2,1807.2 1386.3,1821.3 1384.8,1836.3 1382.6,1852.1 1379.7,1868.8 1376.4,1886.2 1372.5,1904.1 1368.0,1922.6 1363.2,1941.5 1358.0,1960.7 1352.4,1980.1 1346.6,1999.5  Z" style="stroke-width: 0.5;  stroke: rgb(0,0,0); fill: rgb(179,177,178);" />
<path d="M 1934.089,1209.186 A 522.500,522.500 0.00 0,1 1955.2,1243.5 L 1955.2,1243.5 1933.7,1255.4 1911.9,1267.1 1889.7,1278.6 1867.1,1289.8 1844.3,1300.7 1821.1,1311.3 1797.7,1321.5 1774.0,1331.3 1750.0,1340.8 1725.7,1349.8 1701.3,1358.4 1676.6,1366.6 1651.7,1374.3 1626.6,1381.5 1601.3,1388.2 1575.9,1394.5 1550.4,1400.2 1524.7,1405.4 1498.9,1410.0 1473.0,1414.2 1447.0,1417.8 1421.0,1420.9 1394.9,1423.4 1368.8,1425.4 1342.8,1426.9 1316.7,1427.9 1290.6,1428.4 1264.6,1428.3 1238.7,1427.8 1212.8,1426.7 1187.1,1425.2 1161.5,1423.3 1136.0,1420.9 1110.7,1418.1 1085.6,1414.8 1060.7,1411.2 1036.0,1407.3 1011.6,1403.0 987.5,1398.3  A 522.500,522.500 0.00 0,1 996.9,1358.9 L 996.9,1358.9 1020.2,1365.2 1043.8,1371.2 1067.7,1376.8 1091.8,1382.0 1116.2,1386.7 1140.8,1391.0 1165.6,1394.8 1190.6,1398.0 1215.8,1400.8 1241.0,1402.9 1266.4,1404.5 1291.8,1405.5 1317.3,1405.9 1342.9,1405.7 1368.4,1404.8 1393.9,1403.3 1419.4,1401.2 1444.9,1398.5 1470.3,1395.1 1495.6,1391.0 1520.7,1386.3 1545.8,1381.0 1570.7,1375.1 1595.4,1368.6 1619.9,1361.4 1644.3,1353.7 1668.4,1345.3 1692.2,1336.5 1715.8,1327.1 1739.2,1317.1 1762.2,1306.7 1784.9,1295.8 1807.3,1284.5 1829.4,1272.8 1851.1,1260.7 1872.4,1248.2 1893.4,1235.5 1913.9,1222.4 1934.1,1209.2  Z" style="stroke-width: 0.5;  stroke: rgb(0,0,0); fill: rgb(179,177,178);" />
<path d="M 1491.064,2022.424 A 522.500,522.500 0.00 0,1 1454.7,2020.5 L 1454.7,2020.5 1456.2,1999.8 1457.4,1979.2 1458.1,1958.6 1458.3,1938.2 1457.9,1918.2 1456.9,1898.7 1455.3,1879.6 1453.0,1861.2 1450.1,1843.5 1446.5,1826.6 1442.1,1810.5 1437.1,1795.3 1431.3,1781.1 1424.7,1767.9 1417.4,1755.7 1409.4,1744.7 1400.6,1734.8 1391.1,1726.1 1380.9,1718.6 1370.0,1712.2 1358.3,1707.1 1346.0,1703.2 1333.1,1700.6 1319.5,1699.1 1305.4,1698.8 1290.7,1699.8 1275.4,1701.8 1259.8,1705.0 1243.6,1709.3 1227.2,1714.6 1210.3,1720.9 1193.2,1728.1 1175.9,1736.2 1158.5,1745.1 1141.0,1754.7 1123.4,1765.0 1105.9,1775.9 1088.6,1787.2 1071.4,1798.9  A 522.500,522.500 0.00 0,1 1051.9,1768.7 L 1051.9,1768.7 1070.0,1758.1 1088.3,1747.9 1106.8,1738.2 1125.4,1729.2 1144.1,1720.7 1162.6,1713.0 1181.1,1706.2 1199.3,1700.2 1217.4,1695.1 1235.1,1691.0 1252.5,1687.9 1269.5,1685.9 1286.0,1684.9 1302.1,1685.1 1317.7,1686.5 1332.7,1689.0 1347.1,1692.7 1360.9,1697.5 1374.1,1703.6 1386.6,1710.8 1398.4,1719.2 1409.5,1728.7 1419.9,1739.3 1429.5,1751.1 1438.5,1763.9 1446.7,1777.7 1454.1,1792.5 1460.9,1808.3 1466.9,1824.9 1472.2,1842.3 1476.8,1860.5 1480.7,1879.3 1484.0,1898.7 1486.6,1918.6 1488.6,1939.0 1490.0,1959.6 1490.9,1980.5 1491.2,2001.4 1491.1,2022.4  Z" style="stroke-width: 0.5;  stroke: rgb(0,0,0); fill: rgb(179,177,178);" />
<path d="M 1566.694,2018.226 A 522.500,522.500 0.00 0,1 1541.5,2020.8 L 1541.5,2020.8 1539.6,1999.6 1537.1,1978.4 1534.1,1957.2 1530.5,1936.3 1526.3,1915.7 1521.4,1895.4 1515.9,1875.6 1509.7,1856.4 1502.8,1837.8 1495.3,1819.9 1487.0,1802.7 1478.0,1786.4 1468.3,1770.9 1457.9,1756.3 1446.8,1742.7 1435.0,1730.1 1422.5,1718.6 1409.3,1708.1 1395.4,1698.6 1380.9,1690.3 1365.8,1683.1 1350.1,1676.9 1333.8,1672.0 1317.0,1668.1 1299.6,1665.3 1281.8,1663.6 1263.6,1663.1 1244.9,1663.5 1225.9,1665.0 1206.6,1667.5 1187.1,1670.9 1167.4,1675.2 1147.5,1680.4 1127.6,1686.4 1107.6,1693.1 1087.7,1700.5 1067.9,1708.5 1048.3,1717.1 1029.0,1726.1  A 522.500,522.500 0.00 0,1 1018.5,1702.9 L 1018.5,1702.9 1038.4,1694.7 1058.6,1687.1 1079.1,1680.0 1099.6,1673.5 1120.2,1667.7 1140.8,1662.6 1161.3,1658.3 1181.8,1654.9 1202.0,1652.4 1222.0,1650.8 1241.8,1650.2 1261.2,1650.5 1280.3,1651.9 1298.9,1654.3 1317.1,1657.8 1334.8,1662.4 1352.0,1668.1 1368.6,1674.8 1384.7,1682.6 1400.1,1691.5 1414.9,1701.5 1429.1,1712.5 1442.7,1724.5 1455.5,1737.5 1467.7,1751.4 1479.2,1766.3 1489.9,1782.1 1500.0,1798.7 1509.4,1816.1 1518.1,1834.2 1526.1,1853.0 1533.4,1872.4 1540.0,1892.3 1546.0,1912.6 1551.3,1933.4 1556.0,1954.4 1560.1,1975.6 1563.7,1996.9 1566.7,2018.2  Z" style="stroke-width: 0.5;  stroke: rgb(0,0,0); fill: rgb(179,177,178);" />
<path d="M 1540.700,2020.912 A 522.500,522.500 0.00 0,1 1515.7,2022.3 L 1515.7,2022.3 1514.8,2001.1 1513.5,1980.0 1511.6,1959.0 1509.1,1938.2 1506.0,1917.7 1502.3,1897.6 1497.9,1878.0 1492.9,1858.9 1487.2,1840.5 1480.8,1822.9 1473.6,1806.0 1465.8,1789.9 1457.2,1774.8 1447.9,1760.6 1437.9,1747.3 1427.2,1735.2 1415.7,1724.1 1403.6,1714.0 1390.8,1705.1 1377.3,1697.4 1363.2,1690.7 1348.4,1685.3 1333.1,1680.9 1317.2,1677.8 1300.7,1675.7 1283.8,1674.8 1266.4,1675.0 1248.5,1676.3 1230.3,1678.6 1211.8,1681.9 1193.0,1686.2 1174.1,1691.4 1154.9,1697.4 1135.6,1704.3 1116.4,1711.9 1097.1,1720.2 1078.0,1729.1 1059.0,1738.5 1040.3,1748.3  A 522.500,522.500 0.00 0,1 1029.0,1726.2 L 1029.0,1726.2 1048.3,1717.1 1067.9,1708.6 1087.7,1700.6 1107.6,1693.2 1127.5,1686.4 1147.5,1680.4 1167.3,1675.3 1187.1,1670.9 1206.6,1667.5 1225.9,1665.0 1244.9,1663.5 1263.5,1663.1 1281.7,1663.7 1299.5,1665.4 1316.8,1668.1 1333.7,1672.0 1349.9,1677.0 1365.6,1683.1 1380.7,1690.3 1395.2,1698.7 1409.0,1708.1 1422.2,1718.6 1434.7,1730.2 1446.5,1742.8 1457.5,1756.4 1467.9,1770.9 1477.6,1786.4 1486.5,1802.8 1494.8,1819.9 1502.3,1837.8 1509.2,1856.5 1515.3,1875.7 1520.8,1895.5 1525.6,1915.7 1529.8,1936.4 1533.4,1957.3 1536.4,1978.4 1538.8,1999.7 1540.7,2020.9  Z" style="stroke-width: 0.5;  stroke: rgb(0,0,0); fill: rgb(179,177,178);" />
<path d="M 1446.514,2019.755 A 522.500,522.500 0.00 0,1 1422.9,2016.8 L 1422.9,2016.8 1425.8,1996.4 1428.3,1976.1 1430.3,1955.8 1431.8,1935.9 1432.9,1916.2 1433.3,1897.1 1433.2,1878.5 1432.4,1860.5 1431.0,1843.3 1428.9,1826.9 1426.1,1811.3 1422.5,1796.8 1418.3,1783.2 1413.3,1770.7 1407.5,1759.2 1401.0,1749.0 1393.8,1739.9 1385.8,1732.0 1377.1,1725.3 1367.6,1719.9 1357.4,1715.7 1346.6,1712.8 1335.1,1711.1 1322.9,1710.7 1310.2,1711.5 1296.8,1713.5 1283.0,1716.7 1268.6,1721.0 1253.8,1726.5 1238.5,1732.9 1222.9,1740.4 1207.1,1748.8 1190.9,1758.1 1174.6,1768.1 1158.2,1778.9 1141.7,1790.3 1125.3,1802.3 1109.0,1814.7 1092.8,1827.5  A 522.500,522.500 0.00 0,1 1078.3,1808.6 L 1078.3,1808.6 1095.2,1796.5 1112.2,1784.8 1129.3,1773.6 1146.5,1762.9 1163.7,1752.9 1180.8,1743.6 1197.8,1735.1 1214.5,1727.5 1230.9,1720.8 1247.0,1715.1 1262.8,1710.4 1278.1,1706.9 1292.9,1704.5 1307.2,1703.2 1320.9,1703.1 1334.1,1704.2 1346.6,1706.6 1358.5,1710.1 1369.7,1714.9 1380.2,1721.0 1390.0,1728.2 1399.1,1736.7 1407.5,1746.3 1415.1,1757.1 1422.0,1769.0 1428.1,1782.0 1433.5,1796.0 1438.1,1811.0 1442.0,1826.9 1445.3,1843.7 1447.8,1861.3 1449.6,1879.6 1450.9,1898.5 1451.5,1917.9 1451.5,1937.8 1451.0,1958.1 1449.9,1978.6 1448.4,1999.2 1446.5,2019.8  Z" style="stroke-width: 0.5;  stroke: rgb(0,0,0); fill: rgb(179,177,178);" />
<path d="M 1514.793,2022.291 A 522.500,522.500 0.00 0,1 1492.7,2022.4 L 1492.7,2022.4 1492.8,2001.5 1492.4,1980.5 1491.4,1959.6 1490.0,1939.0 1487.9,1918.6 1485.2,1898.7 1481.9,1879.3 1477.9,1860.5 1473.2,1842.3 1467.9,1824.9 1461.8,1808.3 1455.0,1792.5 1447.4,1777.7 1439.2,1763.9 1430.2,1751.1 1420.5,1739.3 1410.0,1728.7 1398.9,1719.2 1387.0,1710.8 1374.5,1703.6 1361.3,1697.5 1347.4,1692.7 1333.0,1689.0 1317.9,1686.5 1302.4,1685.1 1286.2,1684.9 1269.7,1685.9 1252.6,1687.9 1235.2,1691.0 1217.5,1695.1 1199.4,1700.1 1181.1,1706.2 1162.7,1713.0 1144.1,1720.7 1125.5,1729.1 1106.9,1738.2 1088.3,1747.9 1070.0,1758.1 1051.9,1768.7  A 522.500,522.500 0.00 0,1 1040.8,1749.2 L 1040.8,1749.2 1059.5,1739.3 1078.4,1729.9 1097.5,1721.0 1116.7,1712.7 1136.0,1705.0 1155.2,1698.1 1174.3,1692.0 1193.3,1686.8 1212.1,1682.5 1230.5,1679.1 1248.7,1676.8 1266.5,1675.5 1283.9,1675.3 1300.8,1676.1 1317.2,1678.1 1333.1,1681.3 1348.4,1685.6 1363.1,1691.0 1377.2,1697.6 1390.6,1705.4 1403.4,1714.3 1415.5,1724.3 1426.9,1735.4 1437.6,1747.5 1447.6,1760.7 1456.8,1774.9 1465.4,1790.0 1473.2,1806.1 1480.2,1822.9 1486.6,1840.6 1492.3,1859.0 1497.3,1878.0 1501.6,1897.6 1505.3,1917.7 1508.3,1938.2 1510.7,1959.0 1512.6,1980.1 1514.0,2001.2 1514.8,2022.3  Z" style="stroke-width: 0.5;  stroke: rgb(0,0,0); fill: rgb(179,177,178);" />
<path d="M 1814.573,1917.193 A 522.500,522.500 0.00 0,1 1798.3,1929.0 L 1798.3,1929.0 1784.4,1909.4 1770.0,1889.8 1755.1,1870.4 1739.8,1851.1 1724.0,1832.0 1707.8,1813.1 1691.0,1794.5 1673.8,1776.2 1656.1,1758.2 1638.0,1740.6 1619.4,1723.4 1600.4,1706.6 1581.0,1690.2 1561.1,1674.3 1540.8,1658.9 1520.1,1644.0 1499.1,1629.7 1477.6,1615.9 1455.9,1602.6 1433.7,1589.9 1411.3,1577.8 1388.5,1566.3 1365.5,1555.4 1342.2,1545.0 1318.7,1535.3 1294.9,1526.2 1271.0,1517.6 1246.9,1509.7 1222.6,1502.4 1198.3,1495.6 1173.9,1489.5 1149.4,1483.9 1124.8,1478.8 1100.3,1474.3 1075.9,1470.3 1051.5,1466.8 1027.2,1463.9 1003.0,1461.3 979.1,1459.3  A 522.500,522.500 0.00 0,1 981.1,1439.1 L 981.1,1439.1 1005.2,1442.1 1029.4,1445.5 1053.8,1449.4 1078.3,1453.7 1102.9,1458.6 1127.5,1463.9 1152.1,1469.7 1176.6,1476.0 1201.2,1482.9 1225.6,1490.3 1250.0,1498.2 1274.2,1506.7 1298.3,1515.7 1322.2,1525.3 1345.9,1535.4 1369.4,1546.1 1392.6,1557.4 1415.6,1569.2 1438.3,1581.5 1460.8,1594.4 1482.9,1607.8 1504.7,1621.6 1526.1,1636.0 1547.2,1650.9 1567.9,1666.3 1588.3,1682.1 1608.2,1698.3 1627.8,1714.9 1646.9,1731.9 1665.6,1749.3 1683.9,1767.0 1701.8,1785.0 1719.3,1803.4 1736.3,1821.9 1752.8,1840.7 1768.9,1859.6 1784.6,1878.7 1799.8,1897.9 1814.6,1917.2  Z" style="stroke-width: 0.5;  stroke: rgb(0,0,0); fill: rgb(179,177,178);" />
<path d="M 1413.822,2015.344 A 522.500,522.500 0.00 0,1 1397.7,2012.4 L 1397.7,2012.4 1401.6,1992.3 1405.1,1972.2 1408.1,1952.3 1410.8,1932.6 1412.9,1913.3 1414.5,1894.5 1415.5,1876.2 1415.9,1858.6 1415.6,1841.8 1414.6,1825.7 1413.0,1810.6 1410.6,1796.4 1407.6,1783.3 1403.7,1771.3 1399.1,1760.3 1393.8,1750.5 1387.7,1742.0 1380.8,1734.6 1373.2,1728.5 1364.8,1723.7 1355.8,1720.1 1346.0,1717.8 1335.5,1716.8 1324.4,1717.0 1312.6,1718.5 1300.2,1721.1 1287.3,1725.0 1273.8,1730.0 1259.9,1736.1 1245.5,1743.2 1230.8,1751.4 1215.7,1760.5 1200.3,1770.4 1184.8,1781.2 1169.1,1792.6 1153.3,1804.7 1137.6,1817.3 1121.9,1830.3 1106.4,1843.6  A 522.500,522.500 0.00 0,1 1095.6,1830.9 L 1095.6,1830.9 1111.6,1818.0 1127.8,1805.5 1144.1,1793.4 1160.4,1781.8 1176.6,1770.9 1192.7,1760.7 1208.7,1751.3 1224.4,1742.7 1239.7,1735.1 1254.7,1728.5 1269.3,1722.9 1283.5,1718.5 1297.1,1715.1 1310.1,1713.0 1322.6,1712.0 1334.5,1712.3 1345.7,1713.8 1356.2,1716.6 1366.0,1720.6 1375.1,1725.9 1383.5,1732.4 1391.2,1740.2 1398.0,1749.1 1404.2,1759.3 1409.5,1770.6 1414.2,1783.0 1418.0,1796.5 1421.2,1811.0 1423.6,1826.4 1425.3,1842.7 1426.3,1859.8 1426.7,1877.7 1426.5,1896.2 1425.6,1915.2 1424.2,1934.8 1422.3,1954.7 1419.9,1974.8 1417.0,1995.1 1413.8,2015.3  Z" style="stroke-width: 0.5;  stroke: rgb(0,0,0); fill: rgb(179,177,178);" />
<path d="M 1828.550,1906.277 A 522.500,522.500 0.00 0,1 1816.6,1915.7 L 1816.6,1915.7 1801.7,1896.4 1786.3,1877.1 1770.5,1858.0 1754.3,1839.0 1737.6,1820.1 1720.5,1801.5 1703.0,1783.1 1685.1,1765.0 1666.7,1747.1 1648.0,1729.6 1628.8,1712.4 1609.2,1695.5 1589.3,1679.1 1568.9,1663.0 1548.2,1647.4 1527.2,1632.2 1505.8,1617.5 1484.0,1603.3 1462.0,1589.5 1439.6,1576.2 1417.0,1563.4 1394.0,1551.1 1370.9,1539.4 1347.5,1528.1 1323.8,1517.4 1300.0,1507.3 1276.0,1497.6 1251.9,1488.5 1227.6,1479.8 1203.2,1471.8 1178.8,1464.2 1154.3,1457.1 1129.7,1450.5 1105.2,1444.4 1080.7,1438.8 1056.2,1433.6 1031.9,1428.9 1007.6,1424.6 983.5,1420.7  A 522.500,522.500 0.00 0,1 986.1,1405.5 L 986.1,1405.5 1010.3,1410.1 1034.5,1415.1 1058.9,1420.6 1083.4,1426.4 1107.9,1432.6 1132.5,1439.3 1157.0,1446.5 1181.6,1454.1 1206.1,1462.2 1230.5,1470.8 1254.8,1479.9 1279.0,1489.4 1303.0,1499.4 1326.9,1509.9 1350.6,1521.0 1374.1,1532.5 1397.4,1544.4 1420.4,1556.9 1443.2,1569.8 1465.8,1583.2 1488.0,1597.1 1510.0,1611.4 1531.7,1626.1 1553.0,1641.3 1574.0,1656.8 1594.6,1672.8 1614.9,1689.1 1634.9,1705.8 1654.5,1722.8 1673.6,1740.2 1692.5,1757.8 1710.9,1775.7 1728.9,1793.8 1746.5,1812.2 1763.7,1830.8 1780.6,1849.5 1797.0,1868.3 1813.0,1887.3 1828.5,1906.3  Z" style="stroke-width: 0.5;  stroke: rgb(0,0,0); fill: rgb(179,177,178);" />
<path d="M 1575.422,2017.028 A 522.500,522.500 0.00 0,1 1566.8,2018.2 L 1566.8,2018.2 1563.8,1996.9 1560.2,1975.6 1556.1,1954.3 1551.4,1933.3 1546.0,1912.6 1540.1,1892.2 1533.4,1872.3 1526.1,1852.9 1518.1,1834.1 1509.4,1816.0 1500.0,1798.6 1489.9,1782.0 1479.1,1766.2 1467.7,1751.3 1455.5,1737.3 1442.6,1724.2 1429.1,1712.2 1414.9,1701.2 1400.0,1691.2 1384.5,1682.3 1368.5,1674.4 1351.8,1667.6 1334.6,1662.0 1316.9,1657.3 1298.7,1653.8 1280.0,1651.3 1261.0,1649.9 1241.5,1649.5 1221.8,1650.1 1201.7,1651.6 1181.5,1654.1 1161.0,1657.5 1140.4,1661.7 1119.8,1666.7 1099.2,1672.5 1078.6,1678.9 1058.2,1686.0 1037.9,1693.6 1018.0,1701.6  A 522.500,522.500 0.00 0,1 1014.7,1693.6 L 1014.7,1693.6 1034.9,1685.9 1055.3,1678.6 1075.9,1671.9 1096.7,1665.7 1117.6,1660.3 1138.4,1655.6 1159.2,1651.7 1179.9,1648.6 1200.4,1646.4 1220.6,1645.2 1240.7,1644.9 1260.3,1645.6 1279.7,1647.3 1298.6,1650.0 1317.1,1653.8 1335.1,1658.6 1352.6,1664.5 1369.5,1671.5 1385.9,1679.6 1401.7,1688.7 1416.9,1698.8 1431.4,1710.0 1445.3,1722.2 1458.5,1735.3 1471.0,1749.4 1482.9,1764.5 1494.0,1780.3 1504.5,1797.0 1514.3,1814.5 1523.3,1832.7 1531.7,1851.5 1539.4,1871.0 1546.4,1890.9 1552.8,1911.3 1558.5,1932.1 1563.6,1953.1 1568.1,1974.3 1572.0,1995.7 1575.4,2017.0  Z" style="stroke-width: 0.5;  stroke: rgb(0,0,0); fill: rgb(179,177,178);" />
<path d="M 1794.431,1931.644 A 522.500,522.500 0.00 0,1 1788.6,1935.6 L 1788.6,1935.6 1775.2,1915.8 1761.3,1896.0 1747.0,1876.4 1732.1,1856.9 1716.8,1837.6 1700.9,1818.6 1684.6,1799.8 1667.8,1781.3 1650.5,1763.2 1632.7,1745.5 1614.5,1728.2 1595.8,1711.3 1576.7,1694.9 1557.1,1679.0 1537.1,1663.6 1516.6,1648.8 1495.8,1634.4 1474.6,1620.7 1453.0,1607.5 1431.1,1595.0 1408.8,1583.0 1386.2,1571.7 1363.3,1561.0 1340.1,1550.9 1316.7,1541.4 1293.1,1532.6 1269.2,1524.4 1245.2,1516.8 1221.1,1509.9 1196.8,1503.5 1172.4,1497.8 1148.0,1492.6 1123.5,1488.1 1099.1,1484.1 1074.7,1480.6 1050.4,1477.7 1026.2,1475.2 1002.1,1473.3 978.3,1471.8  A 522.500,522.500 0.00 0,1 978.7,1464.6 L 978.7,1464.6 1002.6,1466.5 1026.7,1468.7 1051.0,1471.5 1075.3,1474.7 1099.8,1478.5 1124.3,1482.8 1148.8,1487.6 1173.2,1493.0 1197.6,1499.0 1222.0,1505.6 1246.2,1512.8 1270.3,1520.5 1294.2,1528.9 1317.9,1537.9 1341.4,1547.5 1364.6,1557.7 1387.6,1568.6 1410.3,1580.0 1432.7,1592.0 1454.7,1604.7 1476.4,1617.9 1497.8,1631.7 1518.8,1646.0 1539.3,1660.9 1559.5,1676.3 1579.3,1692.1 1598.6,1708.5 1617.5,1725.3 1635.9,1742.6 1653.9,1760.2 1671.4,1778.3 1688.5,1796.6 1705.1,1815.3 1721.2,1834.2 1736.8,1853.4 1751.9,1872.8 1766.6,1892.3 1780.7,1911.9 1794.4,1931.6  Z" style="stroke-width: 0.5;  stroke: rgb(0,0,0); fill: rgb(179,177,178);" />
<path d="M 1788.602,1935.563 A 522.500,522.500 0.00 0,1 1783.5,1938.9 L 1783.5,1938.9 1770.4,1919.0 1756.8,1899.1 1742.7,1879.4 1728.1,1859.8 1713.0,1840.5 1697.4,1821.4 1681.3,1802.5 1664.7,1784.0 1647.6,1765.8 1630.0,1748.1 1611.9,1730.7 1593.4,1713.8 1574.4,1697.4 1555.0,1681.5 1535.1,1666.1 1514.8,1651.3 1494.1,1637.0 1473.0,1623.3 1451.5,1610.2 1429.7,1597.8 1407.5,1585.9 1385.0,1574.7 1362.2,1564.1 1339.1,1554.2 1315.7,1544.9 1292.2,1536.2 1268.4,1528.2 1244.4,1520.9 1220.3,1514.1 1196.1,1508.0 1171.7,1502.5 1147.3,1497.6 1122.9,1493.3 1098.5,1489.6 1074.2,1486.4 1049.9,1483.8 1025.7,1481.7 1001.7,1480.0 977.9,1478.9  A 522.500,522.500 0.00 0,1 978.2,1472.8 L 978.2,1472.8 1002.1,1474.3 1026.1,1476.2 1050.3,1478.6 1074.6,1481.5 1099.0,1484.9 1123.5,1488.9 1147.9,1493.4 1172.4,1498.5 1196.7,1504.2 1221.0,1510.5 1245.2,1517.4 1269.2,1524.9 1293.0,1533.1 1316.7,1541.9 1340.1,1551.3 1363.3,1561.4 1386.2,1572.0 1408.8,1583.3 1431.0,1595.3 1453.0,1607.8 1474.6,1620.9 1495.8,1634.7 1516.6,1648.9 1537.1,1663.8 1557.1,1679.2 1576.7,1695.1 1595.8,1711.4 1614.5,1728.3 1632.8,1745.6 1650.5,1763.3 1667.8,1781.4 1684.6,1799.8 1701.0,1818.6 1716.8,1837.6 1732.1,1856.9 1747.0,1876.4 1761.4,1896.0 1775.2,1915.8 1788.6,1935.6  Z" style="stroke-width: 0.5;  stroke: rgb(0,0,0); fill: rgb(179,177,178);" />
</g>
<g id="plot0">
<g id="plot0-axis">
</g>
<line x1='2246.1' y1='1576.6' x2='2246.1' y2='1576.6' style="stroke-width:14.0;stroke:rgb(0,0,0);stroke-linecap:round;fill:none;" />
<line x1='2246.1' y1='1576.6' x2='2285.9' y2='1580.7' style="stroke-width:14.0;stroke:rgb(0,0,0);stroke-linecap:round;fill:none;" />
<line x1='2285.9' y1='1580.7' x2='2285.9' y2='1580.7' style="stroke-width:14.0;stroke:rgb(0,0,0);stroke-linecap:round;fill:none;" />
<text x="2303.2" y="1604.6" font-size="46.8px" font-family="CMUBright-Roman" style="text-anchor:start;fill:rgb(255,38,78);" transform="rotate(5.9,2303.2,1604.6)" >Histocap136P07<tspan baseline-shift="-40%" font-size="90%">s</tspan>01803</text>
</g>
<defs>
<pattern id="hline-sparse" width="10" height="10" patternTransform="rotate(0 0 0)" patternUnits="userSpaceOnUse"><line x1="0" y1="0" x2="10" y2="0" style="stroke:black;stroke-width:2" /></pattern>
<pattern id="vline-sparse" width="10" height="10" patternTransform="rotate(0 0 0)" patternUnits="userSpaceOnUse"><line x1="0" y1="0" x2="0" y2="10" style="stroke:black;stroke-width:2" /></pattern>
<pattern id="checker" width="10" height="10" patternTransform="rotate(45 0 0)" patternUnits="userSpaceOnUse"><line x1="0" y1="0" x2="10" y2="0" style="stroke:black;stroke-width:2" /><line x1="0" y1="0" x2="0" y2="10" style="stroke:black;stroke-width:2" /></pattern>
<pattern id="checker" width="10" height="10" patternTransform="rotate(45 0 0)" patternUnits="userSpaceOnUse"><line x1="0" y1="0" x2="10" y2="0" style="stroke:black;stroke-width:5" /><line x1="0" y1="0" x2="0" y2="10" style="stroke:black;stroke-width:4" /></pattern>
<pattern id="hline" width="10" height="10" patternTransform="rotate(0 0 0)" patternUnits="userSpaceOnUse"><line x1="0" y1="0" x2="10" y2="0" style="stroke:black;stroke-width:5" /></pattern>
<pattern id="vline" width="10" height="10" patternTransform="rotate(0 0 0)" patternUnits="userSpaceOnUse"><line x1="0" y1="0" x2="0" y2="10" style="stroke:black;stroke-width:5" /></pattern>
</defs>
</svg>
