<?xml version="1.0" encoding="utf-8" standalone="no"?>
<!DOCTYPE svg PUBLIC "-//W3C//DTD SVG 1.1//EN" "http://www.w3.org/Graphics/SVG/1.1/DTD/svg11.dtd">
<svg width="3000px" height="3000px" version="1.1" xmlns="http://www.w3.org/2000/svg" xmlns:xlink="http://www.w3.org/1999/xlink">
<g id="bg">
<rect x="0" y="0" width="3000px" height="3000px" style="fill:rgb(255,255,255);"/>
</g>
<g id="ideograms">
<path d="M1500.000,950.000 A550.000,550.000 40.000 0,1 1612.228,2038.428 L1653.038,2234.220 A750.000,750.000 0.000 0,0 1500.000,750.000 Z" style="stroke-width:2.0;stroke:rgb(0,0,0);stroke-linecap:round;fill:rgb(179,177,178);" />
<text x="2469.9" y="1400.0" font-size="46.8px" font-family="CMUBright-Roman" style="text-anchor:middle;fill:rgb(0,0,0);" transform="rotate(444.1,2469.9,1400.0)" >HistocapCB055<tspan baseline-shift="-40%" font-size="90%">5</tspan></text>
<line x1='1510.3' y1='750.1' x2='1510.4' y2='738.1' style="stroke-width:8.0;stroke:rgb(150,150,150);stroke-linecap:round;fill:none;" />
<line x1='1606.4' y1='757.6' x2='1608.1' y2='745.7' style="stroke-width:8.0;stroke:rgb(150,150,150);stroke-linecap:round;fill:none;" />
<line x1='1700.8' y1='777.4' x2='1704.0' y2='765.8' style="stroke-width:8.0;stroke:rgb(150,150,150);stroke-linecap:round;fill:none;" />
<line x1='1791.9' y1='809.1' x2='1796.5' y2='798.1' style="stroke-width:8.0;stroke:rgb(150,150,150);stroke-linecap:round;fill:none;" />
<line x1='1878.1' y1='852.3' x2='1884.1' y2='841.9' style="stroke-width:8.0;stroke:rgb(150,150,150);stroke-linecap:round;fill:none;" />
<text x="1902.2" y="838.7" font-size="41.6px" font-family="CMUBright-Roman" style="text-anchor:start;fill:rgb(150,150,150);" transform="rotate(300.3,1902.2,838.7)" >750 kb</text>
<line x1='1958.1' y1='906.1' x2='1965.4' y2='896.6' style="stroke-width:8.0;stroke:rgb(150,150,150);stroke-linecap:round;fill:none;" />
<line x1='2030.5' y1='969.8' x2='2039.0' y2='961.4' style="stroke-width:8.0;stroke:rgb(150,150,150);stroke-linecap:round;fill:none;" />
<line x1='2094.1' y1='1042.3' x2='2103.6' y2='1035.0' style="stroke-width:8.0;stroke:rgb(150,150,150);stroke-linecap:round;fill:none;" />
<line x1='2148.0' y1='1122.3' x2='2158.3' y2='1116.3' style="stroke-width:8.0;stroke:rgb(150,150,150);stroke-linecap:round;fill:none;" />
<line x1='2191.1' y1='1208.6' x2='2202.1' y2='1203.9' style="stroke-width:8.0;stroke:rgb(150,150,150);stroke-linecap:round;fill:none;" />
<text x="2218.5" y="1212.2" font-size="41.6px" font-family="CMUBright-Roman" style="text-anchor:start;fill:rgb(150,150,150);" transform="rotate(337.1,2218.5,1212.2)" >800 kb</text>
<line x1='2222.7' y1='1299.7' x2='2234.3' y2='1296.5' style="stroke-width:8.0;stroke:rgb(150,150,150);stroke-linecap:round;fill:none;" />
<line x1='2242.5' y1='1394.1' x2='2254.4' y2='1392.4' style="stroke-width:8.0;stroke:rgb(150,150,150);stroke-linecap:round;fill:none;" />
<line x1='2249.9' y1='1490.2' x2='2261.9' y2='1490.0' style="stroke-width:8.0;stroke:rgb(150,150,150);stroke-linecap:round;fill:none;" />
<line x1='2245.0' y1='1586.5' x2='2256.9' y2='1587.9' style="stroke-width:8.0;stroke:rgb(150,150,150);stroke-linecap:round;fill:none;" />
<line x1='2227.7' y1='1681.4' x2='2239.4' y2='1684.3' style="stroke-width:8.0;stroke:rgb(150,150,150);stroke-linecap:round;fill:none;" />
<text x="2247.5" y="1700.8" font-size="41.6px" font-family="CMUBright-Roman" style="text-anchor:start;fill:rgb(150,150,150);" transform="rotate(14.0,2247.5,1700.8)" >850 kb</text>
<line x1='2198.4' y1='1773.3' x2='2209.6' y2='1777.6' style="stroke-width:8.0;stroke:rgb(150,150,150);stroke-linecap:round;fill:none;" />
<line x1='2157.6' y1='1860.6' x2='2168.1' y2='1866.4' style="stroke-width:8.0;stroke:rgb(150,150,150);stroke-linecap:round;fill:none;" />
<line x1='2105.9' y1='1942.0' x2='2115.6' y2='1949.1' style="stroke-width:8.0;stroke:rgb(150,150,150);stroke-linecap:round;fill:none;" />
<line x1='2044.2' y1='2016.1' x2='2052.9' y2='2024.4' style="stroke-width:8.0;stroke:rgb(150,150,150);stroke-linecap:round;fill:none;" />
<line x1='1973.4' y1='2081.7' x2='1981.0' y2='2091.0' style="stroke-width:8.0;stroke:rgb(150,150,150);stroke-linecap:round;fill:none;" />
<text x="1977.6" y="2109.0" font-size="41.6px" font-family="CMUBright-Roman" style="text-anchor:start;fill:rgb(150,150,150);" transform="rotate(50.9,1977.6,2109.0)" >900 kb</text>
<line x1='1894.9' y1='2137.6' x2='1901.2' y2='2147.8' style="stroke-width:8.0;stroke:rgb(150,150,150);stroke-linecap:round;fill:none;" />
<line x1='1809.8' y1='2183.0' x2='1814.8' y2='2194.0' style="stroke-width:8.0;stroke:rgb(150,150,150);stroke-linecap:round;fill:none;" />
<line x1='1719.6' y1='2217.1' x2='1723.1' y2='2228.6' style="stroke-width:8.0;stroke:rgb(150,150,150);stroke-linecap:round;fill:none;" />
<g id="highlighttrack_0">
<path d="M2027.955,1345.847 A550.000,550.000 40.000 0,1 2048.302,1543.180 L2247.685,1558.881 A750.000,750.000 0.000 0,0 2219.939,1289.792 Z" style="stroke-width:14.0;stroke:rgb(0,0,0);stroke-linecap:round;fill:rgb(255,38,78);" />
</g>
<path d="M1500.000,950.000 A550.000,550.000 40.000 0,1 1612.228,2038.428 L1653.038,2234.220 A750.000,750.000 0.000 0,0 1500.000,750.000 Z" style="stroke-width:2.0;stroke:rgb(0,0,0);stroke-linecap:round;fill:none;" />
<path d="M1401.253,2041.063 A550.000,550.000 40.000 0,1 1292.926,990.471 L1217.626,805.187 A750.000,750.000 0.000 0,0 1365.345,2237.813 Z" style="stroke-width:2.0;stroke:rgb(0,0,0);stroke-linecap:round;fill:rgb(179,177,178);" />
<text x="485.4" y="1604.6" font-size="46.8px" font-family="CMUBright-Roman" style="text-anchor:middle;fill:rgb(0,0,0);" transform="rotate(84.1,485.4,1604.6)" >HistocapSECH100<tspan baseline-shift="-40%" font-size="90%">5</tspan></text>
<line x1='1168.6' y1='827.2' x2='1163.3' y2='816.4' style="stroke-width:8.0;stroke:rgb(150,150,150);stroke-linecap:round;fill:none;" />
<line x1='1085.0' y1='875.3' x2='1078.3' y2='865.3' style="stroke-width:8.0;stroke:rgb(150,150,150);stroke-linecap:round;fill:none;" />
<line x1='1008.3' y1='933.7' x2='1000.4' y2='924.6' style="stroke-width:8.0;stroke:rgb(150,150,150);stroke-linecap:round;fill:none;" />
<text x="982.0" y="924.9" font-size="41.6px" font-family="CMUBright-Roman" style="text-anchor:end;fill:rgb(150,150,150);" transform="rotate(49.0,982.0,924.9)" >500 kb</text>
<line x1='939.7' y1='1001.5' x2='930.7' y2='993.5' style="stroke-width:8.0;stroke:rgb(150,150,150);stroke-linecap:round;fill:none;" />
<line x1='880.3' y1='1077.5' x2='870.4' y2='1070.7' style="stroke-width:8.0;stroke:rgb(150,150,150);stroke-linecap:round;fill:none;" />
<line x1='831.2' y1='1160.5' x2='820.5' y2='1155.1' style="stroke-width:8.0;stroke:rgb(150,150,150);stroke-linecap:round;fill:none;" />
<line x1='793.2' y1='1249.1' x2='781.9' y2='1245.1' style="stroke-width:8.0;stroke:rgb(150,150,150);stroke-linecap:round;fill:none;" />
<line x1='766.9' y1='1341.9' x2='755.1' y2='1339.4' style="stroke-width:8.0;stroke:rgb(150,150,150);stroke-linecap:round;fill:none;" />
<text x="740.6" y="1350.6" font-size="41.6px" font-family="CMUBright-Roman" style="text-anchor:end;fill:rgb(150,150,150);" transform="rotate(12.2,740.6,1350.6)" >550 kb</text>
<line x1='752.6' y1='1437.3' x2='740.7' y2='1436.3' style="stroke-width:8.0;stroke:rgb(150,150,150);stroke-linecap:round;fill:none;" />
<line x1='750.8' y1='1533.7' x2='738.8' y2='1534.2' style="stroke-width:8.0;stroke:rgb(150,150,150);stroke-linecap:round;fill:none;" />
<line x1='761.3' y1='1629.6' x2='749.5' y2='1631.6' style="stroke-width:8.0;stroke:rgb(150,150,150);stroke-linecap:round;fill:none;" />
<line x1='784.0' y1='1723.3' x2='772.6' y2='1726.9' style="stroke-width:8.0;stroke:rgb(150,150,150);stroke-linecap:round;fill:none;" />
<line x1='818.6' y1='1813.3' x2='807.7' y2='1818.3' style="stroke-width:8.0;stroke:rgb(150,150,150);stroke-linecap:round;fill:none;" />
<text x="802.7" y="1836.0" font-size="41.6px" font-family="CMUBright-Roman" style="text-anchor:end;fill:rgb(150,150,150);" transform="rotate(-24.7,802.7,1836.0)" >600 kb</text>
<line x1='864.4' y1='1898.2' x2='854.2' y2='1904.5' style="stroke-width:8.0;stroke:rgb(150,150,150);stroke-linecap:round;fill:none;" />
<line x1='920.8' y1='1976.4' x2='911.5' y2='1984.0' style="stroke-width:8.0;stroke:rgb(150,150,150);stroke-linecap:round;fill:none;" />
<line x1='986.7' y1='2046.8' x2='978.5' y2='2055.6' style="stroke-width:8.0;stroke:rgb(150,150,150);stroke-linecap:round;fill:none;" />
<line x1='1061.1' y1='2108.2' x2='1054.1' y2='2117.9' style="stroke-width:8.0;stroke:rgb(150,150,150);stroke-linecap:round;fill:none;" />
<line x1='1142.8' y1='2159.5' x2='1137.0' y2='2170.0' style="stroke-width:8.0;stroke:rgb(150,150,150);stroke-linecap:round;fill:none;" />
<text x="1143.7" y="2187.1" font-size="41.6px" font-family="CMUBright-Roman" style="text-anchor:end;fill:rgb(150,150,150);" transform="rotate(-61.6,1143.7,2187.1)" >650 kb</text>
<line x1='1230.3' y1='2199.8' x2='1226.0' y2='2211.0' style="stroke-width:8.0;stroke:rgb(150,150,150);stroke-linecap:round;fill:none;" />
<line x1='1322.4' y1='2228.7' x2='1319.5' y2='2240.3' style="stroke-width:8.0;stroke:rgb(150,150,150);stroke-linecap:round;fill:none;" />
<path d="M1401.253,2041.063 A550.000,550.000 40.000 0,1 1292.926,990.471 L1217.626,805.187 A750.000,750.000 0.000 0,0 1365.345,2237.813 Z" style="stroke-width:2.0;stroke:rgb(0,0,0);stroke-linecap:round;fill:none;" />
</g>
<g id="track_0">
<path d="M 1845.200,1892.229 A 522.500,522.500 0.00 0,1 1628.1,2006.6 L 1628.1,2006.6 1623.0,1986.9 1617.7,1967.5 1612.1,1948.3 1606.4,1929.7 1600.5,1911.5 1594.4,1894.1 1588.2,1877.5 1581.8,1861.7 1575.3,1847.0 1568.7,1833.3 1561.9,1820.8 1555.1,1809.5 1548.2,1799.5 1541.2,1790.8 1534.2,1783.5 1527.1,1777.7 1520.0,1773.3 1512.9,1770.3 1505.7,1768.9 1498.6,1768.9 1491.5,1770.5 1484.4,1773.6 1477.4,1778.1 1470.4,1784.1 1463.5,1791.5 1456.6,1800.2 1449.9,1810.4 1443.2,1821.8 1436.7,1834.4 1430.3,1848.2 1424.0,1863.0 1417.9,1878.9 1411.9,1895.6 1406.1,1913.1 1400.5,1931.3 1395.1,1950.1 1389.9,1969.3 1384.9,1988.8 1380.1,2008.6  A 522.500,522.500 0.00 0,1 1161.7,1898.2 L 1161.7,1898.2 1176.0,1881.7 1190.8,1865.6 1206.1,1849.8 1221.8,1834.4 1237.9,1819.7 1254.4,1805.5 1271.2,1792.0 1288.4,1779.4 1305.9,1767.5 1323.7,1756.5 1341.7,1746.4 1360.0,1737.4 1378.5,1729.3 1397.1,1722.3 1415.9,1716.4 1434.9,1711.6 1453.9,1708.0 1473.0,1705.5 1492.2,1704.2 1511.4,1704.0 1530.5,1705.0 1549.7,1707.2 1568.8,1710.5 1587.8,1714.9 1606.7,1720.5 1625.5,1727.2 1644.1,1734.9 1662.5,1743.7 1680.7,1753.4 1698.7,1764.1 1716.4,1775.6 1733.8,1788.0 1750.9,1801.2 1767.6,1815.1 1784.0,1829.6 1800.0,1844.6 1815.5,1860.1 1830.6,1876.0 1845.2,1892.2  Z" style="stroke-width: 0.5;  stroke: rgb(0,0,0); fill: rgb(179,177,178);" />
<path d="M 2020.887,1541.021 A 522.500,522.500 0.00 0,1 1947.2,1770.2 L 1947.2,1770.2 1927.1,1758.3 1906.5,1746.7 1885.5,1735.5 1864.2,1724.7 1842.5,1714.4 1820.4,1704.6 1798.0,1695.4 1775.4,1686.7 1752.4,1678.7 1729.3,1671.3 1705.9,1664.6 1682.3,1658.6 1658.5,1653.4 1634.6,1648.9 1610.6,1645.2 1586.5,1642.3 1562.3,1640.1 1538.1,1638.8 1513.9,1638.3 1489.6,1638.6 1465.4,1639.7 1441.2,1641.6 1417.0,1644.4 1393.0,1647.9 1369.1,1652.2 1345.3,1657.3 1321.7,1663.1 1298.3,1669.7 1275.1,1677.0 1252.1,1684.9 1229.4,1693.5 1207.0,1702.8 1184.8,1712.6 1163.0,1722.9 1141.5,1733.8 1120.5,1745.1 1099.8,1756.8 1079.5,1768.9 1059.7,1781.3  A 522.500,522.500 0.00 0,1 980.3,1554.0 L 980.3,1554.0 1006.4,1551.4 1032.6,1548.8 1058.8,1546.3 1085.2,1543.9 1111.6,1541.6 1138.1,1539.5 1164.7,1537.4 1191.3,1535.5 1218.0,1533.7 1244.7,1532.0 1271.5,1530.4 1298.3,1529.0 1325.1,1527.7 1352.0,1526.5 1378.9,1525.5 1405.9,1524.6 1432.8,1523.8 1459.8,1523.2 1486.8,1522.7 1513.8,1522.4 1540.8,1522.2 1567.7,1522.1 1594.7,1522.2 1621.7,1522.4 1648.6,1522.8 1675.5,1523.3 1702.4,1523.9 1729.2,1524.7 1756.0,1525.6 1782.8,1526.6 1809.5,1527.8 1836.2,1529.0 1862.8,1530.4 1889.3,1531.9 1915.8,1533.5 1942.2,1535.3 1968.5,1537.1 1994.7,1539.0 2020.9,1541.0  Z" style="stroke-width: 0.5;  stroke: rgb(0,0,0); fill: rgb(179,177,178);" />
<path d="M 1627.236,2006.771 A 522.500,522.500 0.00 0,1 1606.6,2011.5 L 1606.6,2011.5 1602.4,1991.7 1598.0,1972.2 1593.4,1952.9 1588.7,1934.0 1583.8,1915.8 1578.8,1898.2 1573.7,1881.4 1568.4,1865.6 1563.1,1850.7 1557.6,1836.9 1552.1,1824.3 1546.5,1812.9 1540.8,1802.8 1535.1,1794.1 1529.4,1786.7 1523.6,1780.8 1517.9,1776.4 1512.1,1773.4 1506.3,1772.0 1500.5,1772.0 1494.8,1773.6 1489.1,1776.7 1483.4,1781.3 1477.8,1787.4 1472.2,1794.8 1466.7,1803.7 1461.3,1814.0 1456.0,1825.5 1450.8,1838.3 1445.7,1852.2 1440.7,1867.2 1435.9,1883.2 1431.2,1900.1 1426.6,1917.8 1422.2,1936.1 1417.9,1955.1 1413.8,1974.5 1409.9,1994.2 1406.2,2014.0  A 522.500,522.500 0.00 0,1 1380.7,2008.7 L 1380.7,2008.7 1385.5,1989.0 1390.5,1969.5 1395.6,1950.2 1401.0,1931.5 1406.6,1913.2 1412.4,1895.7 1418.3,1879.0 1424.4,1863.1 1430.6,1848.3 1437.0,1834.5 1443.5,1821.9 1450.1,1810.5 1456.8,1800.4 1463.6,1791.6 1470.5,1784.2 1477.5,1778.2 1484.5,1773.7 1491.5,1770.6 1498.6,1769.1 1505.7,1769.0 1512.8,1770.4 1519.8,1773.4 1526.9,1777.8 1533.9,1783.7 1540.9,1791.0 1547.9,1799.6 1554.7,1809.7 1561.5,1821.0 1568.2,1833.5 1574.8,1847.2 1581.3,1861.9 1587.6,1877.6 1593.8,1894.3 1599.9,1911.7 1605.7,1929.8 1611.4,1948.5 1616.9,1967.7 1622.2,1987.1 1627.2,2006.8  Z" style="stroke-width: 0.5;  stroke: rgb(0,0,0); fill: rgb(179,177,178);" />
<path d="M 1641.079,996.907 A 522.500,522.500 0.00 0,1 1802.6,1074.0 L 1802.6,1074.0 1789.5,1091.9 1775.9,1109.6 1761.8,1127.0 1747.2,1144.1 1732.1,1160.6 1716.5,1176.7 1700.5,1192.1 1684.0,1206.8 1667.0,1220.9 1649.7,1234.2 1631.9,1246.6 1613.8,1258.2 1595.3,1268.8 1576.5,1278.5 1557.4,1287.3 1537.9,1295.0 1518.2,1301.7 1498.3,1307.3 1478.1,1311.9 1457.7,1315.4 1437.2,1317.8 1416.5,1319.2 1395.7,1319.4 1374.8,1318.7 1353.9,1316.8 1332.9,1314.0 1311.9,1310.1 1291.0,1305.3 1270.1,1299.5 1249.3,1292.8 1228.6,1285.2 1208.1,1276.8 1187.9,1267.6 1167.8,1257.7 1148.0,1247.2 1128.6,1236.0 1109.5,1224.3 1090.7,1212.2 1072.5,1199.6  A 522.500,522.500 0.00 0,1 1198.9,1073.0 L 1198.9,1073.0 1211.0,1089.8 1223.5,1106.4 1236.3,1122.6 1249.3,1138.3 1262.5,1153.3 1276.0,1167.6 1289.5,1181.2 1303.2,1193.8 1316.9,1205.5 1330.7,1216.1 1344.5,1225.6 1358.3,1234.0 1372.0,1241.1 1385.6,1247.0 1399.1,1251.7 1412.5,1254.9 1425.7,1256.9 1438.8,1257.5 1451.6,1256.7 1464.3,1254.5 1476.6,1251.0 1488.7,1246.0 1500.6,1239.8 1512.1,1232.2 1523.3,1223.4 1534.2,1213.2 1544.7,1201.9 1554.9,1189.4 1564.7,1175.8 1574.1,1161.2 1583.2,1145.6 1591.8,1129.1 1600.1,1111.9 1607.9,1093.9 1615.4,1075.3 1622.4,1056.1 1629.1,1036.6 1635.3,1016.8 1641.1,996.9  Z" style="stroke-width: 0.5;  stroke: rgb(0,0,0); fill: rgb(179,177,178);" />
<path d="M 1946.665,1771.102 A 522.500,522.500 0.00 0,1 1910.4,1823.4 L 1910.4,1823.4 1892.4,1809.6 1873.9,1796.1 1855.0,1782.9 1835.7,1770.2 1816.0,1758.1 1795.9,1746.5 1775.4,1735.5 1754.7,1725.2 1733.6,1715.6 1712.3,1706.8 1690.8,1698.7 1669.1,1691.6 1647.1,1685.2 1625.0,1679.8 1602.8,1675.3 1580.5,1671.7 1558.1,1669.1 1535.6,1667.4 1513.2,1666.7 1490.7,1666.9 1468.2,1668.2 1445.8,1670.4 1423.5,1673.5 1401.2,1677.6 1379.1,1682.6 1357.2,1688.6 1335.4,1695.4 1313.8,1703.1 1292.5,1711.6 1271.4,1720.9 1250.6,1731.0 1230.1,1741.8 1209.9,1753.2 1190.1,1765.3 1170.6,1777.9 1151.6,1791.0 1133.0,1804.6 1114.9,1818.5 1097.2,1832.8  A 522.500,522.500 0.00 0,1 1059.7,1781.3 L 1059.7,1781.3 1079.5,1768.9 1099.8,1756.9 1120.5,1745.1 1141.6,1733.8 1163.0,1723.0 1184.8,1712.6 1206.9,1702.8 1229.4,1693.6 1252.1,1685.0 1275.1,1677.1 1298.3,1669.8 1321.7,1663.3 1345.3,1657.4 1369.0,1652.4 1392.9,1648.1 1417.0,1644.6 1441.1,1641.8 1465.3,1639.9 1489.5,1638.8 1513.7,1638.6 1538.0,1639.1 1562.2,1640.5 1586.3,1642.6 1610.4,1645.6 1634.4,1649.3 1658.3,1653.8 1682.0,1659.1 1705.6,1665.1 1729.0,1671.9 1752.1,1679.3 1775.0,1687.3 1797.6,1696.0 1820.0,1705.3 1842.0,1715.2 1863.7,1725.5 1885.1,1736.3 1906.0,1747.6 1926.6,1759.2 1946.7,1771.1  Z" style="stroke-width: 0.5;  stroke: rgb(0,0,0); fill: rgb(179,177,178);" />
<path d="M 1884.761,1853.505 A 522.500,522.500 0.00 0,1 1846.6,1891.0 L 1846.6,1891.0 1831.9,1874.9 1816.7,1859.0 1801.1,1843.5 1785.1,1828.5 1768.7,1814.1 1751.9,1800.3 1734.7,1787.1 1717.2,1774.8 1699.5,1763.3 1681.4,1752.6 1663.2,1742.9 1644.7,1734.2 1626.0,1726.5 1607.2,1719.9 1588.2,1714.3 1569.1,1709.9 1550.0,1706.6 1530.8,1704.4 1511.5,1703.5 1492.3,1703.6 1473.1,1705.0 1453.9,1707.5 1434.8,1711.1 1415.8,1715.9 1397.0,1721.8 1378.3,1728.8 1359.7,1736.9 1341.4,1745.9 1323.3,1756.0 1305.5,1766.9 1288.0,1778.8 1270.7,1791.5 1253.8,1804.9 1237.3,1819.1 1221.1,1833.8 1205.4,1849.1 1190.0,1864.9 1175.2,1881.0 1160.8,1897.5  A 522.500,522.500 0.00 0,1 1121.9,1860.7 L 1121.9,1860.7 1138.3,1845.4 1155.1,1830.5 1172.4,1816.0 1190.1,1801.9 1208.2,1788.4 1226.8,1775.4 1245.6,1763.1 1264.9,1751.5 1284.4,1740.7 1304.2,1730.7 1324.3,1721.5 1344.6,1713.2 1365.1,1705.9 1385.8,1699.5 1406.7,1694.1 1427.7,1689.8 1448.7,1686.4 1469.9,1684.1 1491.1,1682.9 1512.3,1682.7 1533.6,1683.5 1554.7,1685.4 1575.9,1688.4 1596.9,1692.4 1617.9,1697.4 1638.7,1703.3 1659.4,1710.3 1679.8,1718.2 1700.1,1727.0 1720.1,1736.6 1739.8,1747.1 1759.2,1758.3 1778.4,1770.3 1797.1,1782.9 1815.5,1796.1 1833.5,1809.8 1851.1,1824.0 1868.1,1838.6 1884.8,1853.5  Z" style="stroke-width: 0.5;  stroke: rgb(0,0,0); fill: rgb(179,177,178);" />
<path d="M 1989.285,1316.680 A 522.500,522.500 0.00 0,1 2001.6,1353.6 L 2001.6,1353.6 1976.4,1360.9 1951.1,1368.1 1925.7,1375.2 1900.2,1382.3 1874.6,1389.3 1848.9,1396.2 1823.2,1403.0 1797.3,1409.7 1771.4,1416.2 1745.4,1422.7 1719.4,1429.0 1693.2,1435.3 1667.1,1441.4 1640.8,1447.4 1614.5,1453.2 1588.2,1458.9 1561.8,1464.5 1535.4,1470.0 1508.9,1475.3 1482.4,1480.4 1455.9,1485.5 1429.4,1490.4 1402.8,1495.1 1376.3,1499.8 1349.7,1504.2 1323.2,1508.6 1296.6,1512.8 1270.1,1516.9 1243.5,1520.8 1217.0,1524.6 1190.5,1528.3 1164.1,1531.8 1137.7,1535.2 1111.3,1538.5 1085.0,1541.6 1058.7,1544.7 1032.5,1547.6 1006.3,1550.5 980.2,1553.2  A 522.500,522.500 0.00 0,1 977.7,1514.5 L 977.7,1514.5 1003.5,1513.7 1029.3,1512.7 1055.3,1511.6 1081.4,1510.2 1107.6,1508.6 1133.9,1506.8 1160.2,1504.8 1186.7,1502.6 1213.1,1500.1 1239.6,1497.4 1266.2,1494.5 1292.8,1491.3 1319.4,1487.9 1346.0,1484.2 1372.6,1480.3 1399.2,1476.1 1425.8,1471.7 1452.3,1467.1 1478.9,1462.1 1505.3,1456.9 1531.7,1451.5 1558.1,1445.8 1584.4,1439.9 1610.6,1433.8 1636.7,1427.4 1662.8,1420.8 1688.7,1413.9 1714.5,1406.8 1740.2,1399.6 1765.8,1392.1 1791.2,1384.4 1816.5,1376.5 1841.7,1368.4 1866.7,1360.2 1891.6,1351.7 1916.3,1343.2 1940.8,1334.5 1965.1,1325.6 1989.3,1316.7  Z" style="stroke-width: 0.5;  stroke: rgb(0,0,0); fill: rgb(179,177,178);" />
<path d="M 1909.041,1825.103 A 522.500,522.500 0.00 0,1 1885.2,1853.0 L 1885.2,1853.0 1868.6,1838.1 1851.5,1823.5 1833.9,1809.4 1815.9,1795.6 1797.5,1782.5 1778.7,1769.9 1759.6,1757.9 1740.1,1746.7 1720.3,1736.3 1700.3,1726.7 1680.1,1717.9 1659.6,1710.0 1638.9,1703.1 1618.1,1697.1 1597.1,1692.2 1576.1,1688.2 1554.9,1685.3 1533.7,1683.4 1512.5,1682.5 1491.2,1682.7 1470.0,1684.0 1448.8,1686.3 1427.7,1689.7 1406.8,1694.1 1385.9,1699.5 1365.2,1705.9 1344.7,1713.2 1324.4,1721.5 1304.3,1730.6 1284.4,1740.7 1264.9,1751.5 1245.7,1763.1 1226.8,1775.4 1208.3,1788.4 1190.1,1801.9 1172.4,1816.0 1155.1,1830.5 1138.3,1845.5 1122.0,1860.7  A 522.500,522.500 0.00 0,1 1097.6,1833.3 L 1097.6,1833.3 1115.2,1819.0 1133.3,1805.0 1151.9,1791.4 1170.9,1778.3 1190.3,1765.7 1210.1,1753.6 1230.3,1742.2 1250.7,1731.4 1271.5,1721.3 1292.6,1712.0 1313.9,1703.5 1335.4,1695.8 1357.2,1689.0 1379.1,1683.1 1401.2,1678.1 1423.4,1674.0 1445.7,1670.9 1468.0,1668.7 1490.5,1667.5 1512.9,1667.3 1535.3,1668.0 1557.8,1669.7 1580.1,1672.4 1602.4,1676.0 1624.6,1680.6 1646.6,1686.1 1668.5,1692.5 1690.2,1699.7 1711.6,1707.8 1732.9,1716.7 1753.9,1726.3 1774.6,1736.7 1794.9,1747.7 1815.0,1759.4 1834.6,1771.6 1853.9,1784.4 1872.7,1797.6 1891.1,1811.2 1909.0,1825.1  Z" style="stroke-width: 0.5;  stroke: rgb(0,0,0); fill: rgb(179,177,178);" />
<path d="M 1510.971,977.615 A 522.500,522.500 0.00 0,1 1539.1,979.0 L 1539.1,979.0 1537.4,999.4 1535.3,1019.7 1532.9,1039.8 1530.1,1059.5 1526.9,1078.7 1523.3,1097.4 1519.2,1115.3 1514.7,1132.4 1509.8,1148.7 1504.4,1164.0 1498.6,1178.3 1492.3,1191.4 1485.6,1203.4 1478.4,1214.2 1470.8,1223.6 1462.7,1231.8 1454.2,1238.6 1445.3,1244.1 1436.0,1248.2 1426.3,1250.8 1416.2,1252.1 1405.7,1252.0 1394.9,1250.4 1383.8,1247.5 1372.4,1243.3 1360.8,1237.7 1348.9,1230.9 1336.7,1222.8 1324.4,1213.5 1312.0,1203.1 1299.4,1191.6 1286.8,1179.2 1274.2,1165.8 1261.5,1151.7 1248.9,1136.8 1236.5,1121.3 1224.1,1105.3 1212.0,1088.8 1200.1,1072.2  A 522.500,522.500 0.00 0,1 1223.5,1056.6 L 1223.5,1056.6 1234.4,1073.8 1245.5,1090.8 1256.8,1107.4 1268.2,1123.5 1279.6,1139.0 1291.1,1153.7 1302.6,1167.7 1313.9,1180.7 1325.2,1192.8 1336.4,1203.7 1347.3,1213.6 1358.1,1222.3 1368.7,1229.7 1379.0,1235.8 1389.0,1240.5 1398.6,1243.9 1408.0,1245.9 1417.0,1246.5 1425.6,1245.7 1433.9,1243.4 1441.8,1239.7 1449.2,1234.6 1456.2,1228.1 1462.8,1220.2 1469.0,1211.0 1474.7,1200.5 1480.0,1188.8 1484.8,1175.8 1489.2,1161.7 1493.2,1146.6 1496.7,1130.5 1499.8,1113.4 1502.5,1095.6 1504.8,1077.0 1506.8,1057.9 1508.3,1038.2 1509.5,1018.2 1510.4,998.0 1511.0,977.6  Z" style="stroke-width: 0.5;  stroke: rgb(0,0,0); fill: rgb(179,177,178);" />
<path d="M 1500.000,977.500 A 522.500,522.500 0.00 0,1 1510.6,977.6 L 1510.6,977.6 1510.1,998.0 1509.2,1018.2 1508.0,1038.2 1506.5,1057.9 1504.6,1077.0 1502.3,1095.6 1499.6,1113.4 1496.5,1130.4 1493.0,1146.6 1489.0,1161.7 1484.7,1175.8 1479.8,1188.7 1474.6,1200.5 1468.9,1211.0 1462.8,1220.2 1456.2,1228.0 1449.2,1234.5 1441.8,1239.6 1433.9,1243.3 1425.7,1245.6 1417.1,1246.4 1408.1,1245.8 1398.8,1243.8 1389.1,1240.4 1379.2,1235.6 1368.9,1229.5 1358.4,1222.1 1347.6,1213.4 1336.7,1203.5 1325.6,1192.5 1314.3,1180.5 1303.0,1167.4 1291.5,1153.4 1280.1,1138.7 1268.7,1123.2 1257.3,1107.1 1246.1,1090.5 1235.0,1073.5 1224.1,1056.3  A 522.500,522.500 0.00 0,1 1243.0,1045.1 L 1243.0,1045.1 1253.1,1062.7 1263.4,1080.1 1273.8,1097.1 1284.4,1113.6 1294.9,1129.5 1305.5,1144.8 1316.1,1159.2 1326.5,1172.7 1336.9,1185.2 1347.1,1196.6 1357.2,1206.9 1367.1,1216.0 1376.7,1223.9 1386.1,1230.4 1395.1,1235.5 1403.9,1239.3 1412.4,1241.7 1420.5,1242.7 1428.3,1242.2 1435.6,1240.2 1442.6,1236.8 1449.3,1232.0 1455.4,1225.8 1461.2,1218.2 1466.6,1209.2 1471.6,1198.9 1476.1,1187.4 1480.2,1174.6 1483.9,1160.7 1487.2,1145.7 1490.0,1129.7 1492.5,1112.8 1494.6,1095.0 1496.4,1076.6 1497.7,1057.5 1498.8,1038.0 1499.5,1018.0 1499.9,997.8 1500.0,977.5  Z" style="stroke-width: 0.5;  stroke: rgb(0,0,0); fill: rgb(179,177,178);" />
<path d="M 1888.242,1150.322 A 522.500,522.500 0.00 0,1 1899.6,1163.4 L 1899.6,1163.4 1881.6,1178.3 1863.1,1192.9 1844.2,1207.2 1824.8,1221.1 1805.0,1234.6 1784.7,1247.7 1764.1,1260.3 1743.1,1272.3 1721.7,1283.8 1700.0,1294.6 1678.0,1304.8 1655.6,1314.3 1633.0,1323.1 1610.2,1331.1 1587.1,1338.4 1563.8,1344.9 1540.2,1350.7 1516.6,1355.6 1492.7,1359.8 1468.8,1363.1 1444.7,1365.6 1420.6,1367.3 1396.4,1368.2 1372.2,1368.3 1348.0,1367.5 1323.8,1366.0 1299.6,1363.7 1275.6,1360.6 1251.6,1356.9 1227.8,1352.4 1204.1,1347.2 1180.6,1341.3 1157.3,1334.8 1134.3,1327.8 1111.5,1320.2 1089.0,1312.0 1066.9,1303.4 1045.1,1294.4 1023.8,1285.0  A 522.500,522.500 0.00 0,1 1031.2,1269.3 L 1031.2,1269.3 1052.1,1279.3 1073.3,1289.0 1095.0,1298.2 1117.0,1306.9 1139.3,1315.1 1161.9,1322.7 1184.8,1329.7 1207.9,1336.1 1231.1,1341.7 1254.5,1346.7 1278.1,1350.9 1301.7,1354.3 1325.5,1357.0 1349.2,1358.8 1373.0,1359.8 1396.8,1360.0 1420.6,1359.3 1444.3,1357.7 1467.9,1355.3 1491.4,1352.1 1514.8,1348.0 1538.1,1343.0 1561.1,1337.2 1584.0,1330.5 1606.6,1323.1 1629.0,1314.8 1651.1,1305.8 1672.9,1296.1 1694.4,1285.6 1715.6,1274.5 1736.4,1262.7 1756.9,1250.3 1777.0,1237.3 1796.6,1223.8 1815.9,1209.8 1834.7,1195.5 1853.0,1180.7 1870.9,1165.6 1888.2,1150.3  Z" style="stroke-width: 0.5;  stroke: rgb(0,0,0); fill: rgb(179,177,178);" />
<path d="M 1864.447,1125.588 A 522.500,522.500 0.00 0,1 1876.4,1137.6 L 1876.4,1137.6 1859.7,1153.4 1842.5,1168.8 1824.8,1184.0 1806.7,1198.8 1788.1,1213.1 1769.0,1226.9 1749.5,1240.2 1729.7,1252.9 1709.4,1265.0 1688.8,1276.4 1667.9,1287.0 1646.7,1296.9 1625.1,1306.1 1603.3,1314.4 1581.2,1321.8 1558.9,1328.4 1536.4,1334.2 1513.8,1339.0 1490.9,1343.0 1468.0,1346.0 1444.9,1348.1 1421.7,1349.3 1398.5,1349.7 1375.2,1349.1 1352.0,1347.6 1328.8,1345.2 1305.6,1342.0 1282.5,1338.0 1259.5,1333.1 1236.7,1327.5 1214.0,1321.1 1191.5,1314.0 1169.3,1306.2 1147.3,1297.8 1125.6,1288.8 1104.2,1279.3 1083.2,1269.2 1062.5,1258.8 1042.3,1247.9  A 522.500,522.500 0.00 0,1 1050.7,1233.3 L 1050.7,1233.3 1070.4,1244.7 1090.5,1255.7 1111.1,1266.3 1132.0,1276.4 1153.2,1285.9 1174.7,1294.8 1196.5,1303.1 1218.5,1310.7 1240.7,1317.5 1263.1,1323.6 1285.6,1328.8 1308.2,1333.2 1330.9,1336.8 1353.7,1339.4 1376.4,1341.1 1399.2,1341.9 1421.9,1341.8 1444.6,1340.7 1467.2,1338.7 1489.7,1335.7 1512.0,1331.8 1534.2,1326.9 1556.2,1321.2 1578.0,1314.5 1599.5,1306.9 1620.8,1298.4 1641.8,1289.1 1662.5,1278.9 1682.9,1268.0 1702.9,1256.4 1722.6,1244.0 1741.9,1230.9 1760.7,1217.3 1779.2,1203.1 1797.2,1188.3 1814.7,1173.2 1831.8,1157.6 1848.4,1141.7 1864.4,1125.6  Z" style="stroke-width: 0.5;  stroke: rgb(0,0,0); fill: rgb(179,177,178);" />
<path d="M 1900.503,1164.436 A 522.500,522.500 0.00 0,1 1909.5,1175.4 L 1909.5,1175.4 1890.9,1189.8 1871.9,1204.0 1852.4,1217.8 1832.5,1231.3 1812.2,1244.4 1791.5,1257.1 1770.4,1269.3 1748.9,1280.9 1727.1,1292.0 1705.0,1302.4 1682.5,1312.3 1659.8,1321.5 1636.8,1330.0 1613.6,1337.8 1590.1,1344.8 1566.4,1351.2 1542.5,1356.7 1518.5,1361.5 1494.4,1365.6 1470.1,1368.8 1445.7,1371.3 1421.3,1373.0 1396.8,1373.8 1372.3,1374.0 1347.8,1373.3 1323.3,1371.9 1298.9,1369.7 1274.5,1366.9 1250.3,1363.3 1226.2,1359.0 1202.2,1354.0 1178.5,1348.5 1154.9,1342.3 1131.6,1335.5 1108.5,1328.2 1085.8,1320.4 1063.4,1312.2 1041.3,1303.5 1019.6,1294.5  A 522.500,522.500 0.00 0,1 1025.4,1281.5 L 1025.4,1281.5 1046.7,1291.1 1068.3,1300.2 1090.4,1309.0 1112.8,1317.3 1135.5,1325.0 1158.5,1332.3 1181.7,1338.9 1205.1,1344.9 1228.7,1350.2 1252.5,1354.9 1276.4,1358.8 1300.5,1362.0 1324.6,1364.5 1348.7,1366.1 1372.9,1367.0 1397.1,1367.1 1421.3,1366.3 1445.4,1364.8 1469.4,1362.4 1493.3,1359.2 1517.2,1355.2 1540.8,1350.3 1564.3,1344.7 1587.7,1338.3 1610.8,1331.1 1633.6,1323.1 1656.2,1314.4 1678.6,1305.0 1700.6,1294.9 1722.3,1284.2 1743.7,1272.8 1764.8,1260.9 1785.4,1248.4 1805.7,1235.4 1825.5,1221.9 1845.0,1208.0 1863.9,1193.8 1882.5,1179.2 1900.5,1164.4  Z" style="stroke-width: 0.5;  stroke: rgb(0,0,0); fill: rgb(179,177,178);" />
<path d="M 1931.045,1204.693 A 522.500,522.500 0.00 0,1 1938.6,1216.0 L 1938.6,1216.0 1918.3,1228.9 1897.7,1241.5 1876.6,1253.9 1855.1,1265.9 1833.3,1277.5 1811.1,1288.8 1788.6,1299.6 1765.8,1309.9 1742.6,1319.8 1719.2,1329.1 1695.5,1337.9 1671.6,1346.1 1647.4,1353.8 1623.0,1360.8 1598.5,1367.2 1573.7,1373.0 1548.8,1378.1 1523.8,1382.6 1498.6,1386.4 1473.4,1389.6 1448.1,1392.0 1422.7,1393.9 1397.3,1395.0 1371.9,1395.5 1346.5,1395.3 1321.2,1394.5 1295.9,1393.0 1270.6,1390.9 1245.5,1388.2 1220.5,1385.0 1195.7,1381.1 1171.0,1376.7 1146.5,1371.7 1122.2,1366.3 1098.2,1360.4 1074.5,1354.0 1051.0,1347.2 1027.8,1340.1 1005.0,1332.6  A 522.500,522.500 0.00 0,1 1009.6,1319.7 L 1009.6,1319.7 1032.0,1327.8 1054.8,1335.4 1078.0,1342.7 1101.4,1349.6 1125.2,1356.0 1149.1,1361.9 1173.4,1367.3 1197.8,1372.1 1222.4,1376.4 1247.1,1380.0 1272.0,1383.1 1296.9,1385.5 1322.0,1387.2 1347.1,1388.3 1372.3,1388.6 1397.4,1388.3 1422.6,1387.3 1447.7,1385.6 1472.7,1383.2 1497.7,1380.1 1522.6,1376.3 1547.4,1371.7 1572.0,1366.5 1596.4,1360.6 1620.7,1354.1 1644.8,1346.9 1668.7,1339.0 1692.3,1330.6 1715.6,1321.5 1738.7,1311.9 1761.5,1301.7 1784.0,1291.0 1806.1,1279.9 1827.9,1268.3 1849.3,1256.2 1870.4,1243.8 1891.0,1231.0 1911.3,1218.0 1931.0,1204.7  Z" style="stroke-width: 0.5;  stroke: rgb(0,0,0); fill: rgb(179,177,178);" />
<path d="M 1948.805,1232.456 A 522.500,522.500 0.00 0,1 1955.1,1243.4 L 1955.1,1243.4 1933.7,1255.2 1912.0,1266.9 1889.8,1278.2 1867.4,1289.3 1844.6,1300.1 1821.5,1310.6 1798.1,1320.6 1774.4,1330.3 1750.5,1339.5 1726.3,1348.4 1701.9,1356.7 1677.2,1364.6 1652.4,1372.0 1627.3,1378.9 1602.1,1385.2 1576.7,1391.1 1551.2,1396.4 1525.6,1401.1 1499.8,1405.3 1474.0,1408.9 1448.1,1412.0 1422.2,1414.5 1396.2,1416.5 1370.2,1417.9 1344.2,1418.7 1318.2,1419.0 1292.3,1418.8 1266.4,1418.0 1240.6,1416.7 1214.9,1414.9 1189.4,1412.7 1163.9,1409.9 1138.7,1406.7 1113.6,1403.0 1088.7,1399.0 1064.1,1394.5 1039.7,1389.7 1015.5,1384.5 991.7,1379.0  A 522.500,522.500 0.00 0,1 994.8,1366.8 L 994.8,1366.8 1018.3,1372.8 1042.2,1378.5 1066.4,1383.8 1090.8,1388.8 1115.4,1393.3 1140.3,1397.4 1165.3,1401.0 1190.6,1404.2 1215.9,1406.9 1241.4,1409.0 1267.1,1410.6 1292.7,1411.7 1318.5,1412.2 1344.3,1412.1 1370.1,1411.4 1396.0,1410.2 1421.8,1408.4 1447.5,1406.0 1473.3,1402.9 1498.9,1399.3 1524.5,1395.1 1549.9,1390.3 1575.2,1385.0 1600.4,1379.0 1625.4,1372.5 1650.2,1365.5 1674.8,1357.9 1699.2,1349.8 1723.4,1341.2 1747.3,1332.1 1771.0,1322.5 1794.3,1312.5 1817.4,1302.1 1840.2,1291.3 1862.6,1280.1 1884.7,1268.6 1906.5,1256.8 1927.8,1244.7 1948.8,1232.5  Z" style="stroke-width: 0.5;  stroke: rgb(0,0,0); fill: rgb(179,177,178);" />
<path d="M 1909.887,1175.964 A 522.500,522.500 0.00 0,1 1917.0,1185.2 L 1917.0,1185.2 1898.0,1199.2 1878.5,1213.0 1858.7,1226.5 1838.3,1239.7 1817.6,1252.5 1796.5,1264.8 1775.0,1276.7 1753.2,1288.1 1731.0,1298.9 1708.5,1309.1 1685.8,1318.8 1662.7,1327.8 1639.4,1336.1 1615.8,1343.8 1592.0,1350.8 1568.0,1357.1 1543.9,1362.6 1519.6,1367.4 1495.1,1371.5 1470.6,1374.8 1445.9,1377.4 1421.2,1379.2 1396.4,1380.3 1371.6,1380.6 1346.9,1380.2 1322.1,1379.1 1297.4,1377.2 1272.8,1374.6 1248.2,1371.4 1223.8,1367.5 1199.6,1363.0 1175.5,1357.8 1151.7,1352.1 1128.0,1345.8 1104.7,1339.0 1081.6,1331.7 1058.8,1323.9 1036.4,1315.8 1014.3,1307.3  A 522.500,522.500 0.00 0,1 1018.8,1296.5 L 1018.8,1296.5 1040.5,1305.4 1062.6,1314.0 1085.1,1322.2 1107.9,1329.9 1131.0,1337.1 1154.3,1343.8 1177.9,1349.9 1201.7,1355.4 1225.7,1360.3 1249.9,1364.5 1274.2,1368.0 1298.5,1370.8 1323.0,1372.9 1347.5,1374.3 1372.1,1374.9 1396.6,1374.7 1421.1,1373.7 1445.6,1372.0 1470.0,1369.5 1494.3,1366.2 1518.5,1362.2 1542.5,1357.3 1566.4,1351.7 1590.1,1345.4 1613.6,1338.3 1636.9,1330.5 1659.9,1321.9 1682.6,1312.7 1705.1,1302.9 1727.3,1292.4 1749.1,1281.4 1770.6,1269.7 1791.7,1257.6 1812.5,1244.9 1832.8,1231.8 1852.8,1218.3 1872.3,1204.5 1891.3,1190.4 1909.9,1176.0  Z" style="stroke-width: 0.5;  stroke: rgb(0,0,0); fill: rgb(179,177,178);" />
<path d="M 1955.850,1244.644 A 522.500,522.500 0.00 0,1 1961.4,1254.8 L 1961.4,1254.8 1939.6,1266.2 1917.4,1277.4 1894.9,1288.3 1872.1,1299.0 1849.0,1309.3 1825.6,1319.3 1801.9,1329.0 1777.9,1338.3 1753.7,1347.2 1729.2,1355.7 1704.6,1363.8 1679.7,1371.4 1654.6,1378.5 1629.3,1385.1 1603.9,1391.3 1578.3,1397.0 1552.6,1402.1 1526.8,1406.8 1500.9,1410.9 1474.9,1414.5 1448.9,1417.6 1422.8,1420.1 1396.6,1422.1 1370.5,1423.6 1344.3,1424.6 1318.2,1425.1 1292.1,1425.0 1266.1,1424.5 1240.2,1423.4 1214.3,1421.9 1188.6,1419.9 1163.0,1417.5 1137.6,1414.6 1112.3,1411.3 1087.2,1407.6 1062.4,1403.6 1037.8,1399.2 1013.4,1394.4 989.3,1389.4  A 522.500,522.500 0.00 0,1 991.9,1378.1 L 991.9,1378.1 1015.8,1383.6 1039.9,1388.9 1064.3,1393.7 1088.9,1398.3 1113.8,1402.4 1138.9,1406.1 1164.1,1409.3 1189.5,1412.1 1215.1,1414.5 1240.8,1416.3 1266.6,1417.7 1292.5,1418.5 1318.4,1418.8 1344.4,1418.5 1370.4,1417.7 1396.4,1416.4 1422.4,1414.5 1448.3,1412.0 1474.2,1409.0 1500.1,1405.4 1525.8,1401.3 1551.5,1396.6 1577.0,1391.4 1602.4,1385.6 1627.6,1379.3 1652.7,1372.5 1677.6,1365.2 1702.3,1357.3 1726.7,1349.0 1750.9,1340.3 1774.9,1331.1 1798.6,1321.5 1822.0,1311.5 1845.2,1301.1 1868.0,1290.4 1890.5,1279.3 1912.6,1268.0 1934.4,1256.4 1955.9,1244.6  Z" style="stroke-width: 0.5;  stroke: rgb(0,0,0); fill: rgb(179,177,178);" />
<path d="M 1855.279,1116.878 A 522.500,522.500 0.00 0,1 1863.5,1124.7 L 1863.5,1124.7 1847.6,1140.8 1831.2,1156.6 1814.3,1172.1 1796.9,1187.1 1779.0,1201.7 1760.7,1215.8 1742.0,1229.3 1722.9,1242.1 1703.4,1254.3 1683.6,1265.7 1663.4,1276.3 1642.9,1286.2 1622.2,1295.1 1601.1,1303.2 1579.9,1310.4 1558.4,1316.7 1536.7,1322.0 1514.8,1326.3 1492.8,1329.7 1470.7,1332.0 1448.5,1333.4 1426.2,1333.9 1403.9,1333.3 1381.6,1331.8 1359.3,1329.3 1337.0,1325.9 1314.8,1321.5 1292.7,1316.3 1270.7,1310.2 1248.9,1303.3 1227.3,1295.5 1205.9,1287.1 1184.7,1277.9 1163.9,1268.0 1143.3,1257.6 1123.1,1246.5 1103.3,1235.0 1083.8,1223.1 1064.8,1210.8  A 522.500,522.500 0.00 0,1 1071.3,1201.4 L 1071.3,1201.4 1089.9,1214.0 1108.9,1226.3 1128.4,1238.2 1148.3,1249.5 1168.5,1260.3 1189.0,1270.5 1209.8,1280.0 1230.9,1288.8 1252.1,1296.8 1273.6,1304.0 1295.2,1310.3 1317.0,1315.8 1338.8,1320.3 1360.7,1323.9 1382.7,1326.6 1404.7,1328.3 1426.6,1328.9 1448.5,1328.6 1470.4,1327.3 1492.1,1324.9 1513.8,1321.6 1535.2,1317.2 1556.6,1311.9 1577.7,1305.6 1598.6,1298.3 1619.2,1290.1 1639.6,1281.0 1659.7,1271.1 1679.4,1260.2 1698.9,1248.6 1718.0,1236.3 1736.7,1223.2 1755.0,1209.5 1772.8,1195.2 1790.3,1180.3 1807.3,1165.0 1823.8,1149.3 1839.8,1133.2 1855.3,1116.9  Z" style="stroke-width: 0.5;  stroke: rgb(0,0,0); fill: rgb(179,177,178);" />
<path d="M 1962.088,1256.113 A 522.500,522.500 0.00 0,1 1966.9,1265.4 L 1966.9,1265.4 1944.7,1276.3 1922.1,1287.1 1899.3,1297.6 1876.2,1307.9 1852.7,1317.9 1829.0,1327.5 1805.1,1336.9 1780.8,1345.9 1756.4,1354.5 1731.7,1362.7 1706.8,1370.5 1681.7,1377.9 1656.4,1384.9 1630.9,1391.4 1605.3,1397.4 1579.6,1403.0 1553.7,1408.1 1527.8,1412.8 1501.7,1416.9 1475.6,1420.6 1449.4,1423.7 1423.1,1426.4 1396.8,1428.6 1370.6,1430.3 1344.3,1431.5 1318.0,1432.2 1291.8,1432.4 1265.6,1432.2 1239.5,1431.5 1213.5,1430.4 1187.7,1428.8 1161.9,1426.8 1136.3,1424.4 1110.8,1421.6 1085.6,1418.5 1060.5,1414.9 1035.6,1411.1 1011.0,1406.9 986.7,1402.4  A 522.500,522.500 0.00 0,1 988.7,1392.2 L 988.7,1392.2 1012.9,1397.1 1037.3,1401.8 1061.9,1406.1 1086.8,1410.0 1111.9,1413.6 1137.2,1416.7 1162.7,1419.5 1188.3,1421.8 1214.1,1423.7 1240.0,1425.1 1265.9,1426.1 1292.0,1426.5 1318.1,1426.5 1344.2,1426.0 1370.4,1424.9 1396.6,1423.4 1422.7,1421.3 1448.9,1418.7 1474.9,1415.6 1501.0,1412.0 1526.9,1407.8 1552.7,1403.1 1578.5,1398.0 1604.0,1392.3 1629.5,1386.1 1654.8,1379.4 1679.9,1372.3 1704.8,1364.7 1729.5,1356.7 1754.0,1348.2 1778.3,1339.3 1802.3,1330.0 1826.0,1320.4 1849.5,1310.4 1872.6,1300.1 1895.5,1289.5 1918.0,1278.6 1940.2,1267.5 1962.1,1256.1  Z" style="stroke-width: 0.5;  stroke: rgb(0,0,0); fill: rgb(179,177,178);" />
<path d="M 1977.992,1288.979 A 522.500,522.500 0.00 0,1 1981.8,1297.8 L 1981.8,1297.8 1958.3,1307.5 1934.7,1317.1 1910.7,1326.5 1886.6,1335.6 1862.2,1344.6 1837.6,1353.4 1812.8,1361.9 1787.9,1370.2 1762.7,1378.2 1737.4,1386.0 1711.9,1393.4 1686.3,1400.6 1660.5,1407.5 1634.6,1414.0 1608.6,1420.2 1582.5,1426.2 1556.3,1431.7 1530.0,1437.0 1503.6,1441.9 1477.1,1446.5 1450.6,1450.7 1424.1,1454.6 1397.5,1458.1 1370.9,1461.3 1344.3,1464.2 1317.7,1466.7 1291.1,1468.9 1264.6,1470.7 1238.1,1472.2 1211.6,1473.4 1185.3,1474.3 1159.0,1474.9 1132.8,1475.2 1106.7,1475.2 1080.7,1474.9 1054.9,1474.3 1029.2,1473.5 1003.6,1472.5 978.3,1471.2  A 522.500,522.500 0.00 0,1 978.9,1461.6 L 978.9,1461.6 1004.1,1463.3 1029.5,1464.8 1055.1,1466.1 1080.8,1467.0 1106.7,1467.7 1132.7,1468.1 1158.8,1468.1 1185.1,1467.9 1211.4,1467.3 1237.8,1466.3 1264.2,1465.1 1290.7,1463.5 1317.2,1461.5 1343.8,1459.1 1370.3,1456.4 1396.9,1453.3 1423.4,1449.9 1449.9,1446.1 1476.4,1441.9 1502.8,1437.3 1529.1,1432.4 1555.3,1427.1 1581.5,1421.5 1607.5,1415.4 1633.4,1409.1 1659.2,1402.4 1684.9,1395.4 1710.4,1388.0 1735.7,1380.3 1760.9,1372.3 1785.9,1364.0 1810.7,1355.5 1835.3,1346.7 1859.7,1337.6 1883.8,1328.3 1907.7,1318.7 1931.4,1309.0 1954.8,1299.1 1978.0,1289.0  Z" style="stroke-width: 0.5;  stroke: rgb(0,0,0); fill: rgb(179,177,178);" />
<path d="M 1938.961,1216.593 A 522.500,522.500 0.00 0,1 1943.6,1223.9 L 1943.6,1223.9 1923.0,1236.5 1902.0,1248.8 1880.6,1260.9 1858.8,1272.6 1836.7,1284.0 1814.3,1295.1 1791.5,1305.7 1768.4,1315.8 1745.0,1325.5 1721.3,1334.7 1697.4,1343.4 1673.3,1351.5 1648.9,1359.1 1624.3,1366.1 1599.5,1372.5 1574.6,1378.3 1549.5,1383.5 1524.2,1388.0 1498.9,1392.0 1473.5,1395.3 1448.0,1397.9 1422.4,1400.0 1396.8,1401.3 1371.2,1402.1 1345.6,1402.2 1320.1,1401.7 1294.6,1400.7 1269.1,1399.0 1243.8,1396.7 1218.6,1393.8 1193.5,1390.4 1168.6,1386.5 1143.8,1382.1 1119.3,1377.2 1095.0,1371.8 1071.0,1366.0 1047.2,1359.8 1023.7,1353.2 1000.6,1346.3  A 522.500,522.500 0.00 0,1 1003.2,1338.1 L 1003.2,1338.1 1026.1,1345.3 1049.4,1352.2 1073.0,1358.8 1096.8,1364.9 1120.9,1370.6 1145.3,1375.8 1169.9,1380.5 1194.6,1384.7 1219.6,1388.4 1244.6,1391.4 1269.8,1393.9 1295.1,1395.8 1320.5,1397.1 1345.9,1397.7 1371.4,1397.7 1396.8,1397.1 1422.3,1395.8 1447.7,1393.8 1473.0,1391.2 1498.3,1387.9 1523.5,1384.0 1548.6,1379.4 1573.5,1374.2 1598.3,1368.3 1622.9,1361.8 1647.3,1354.7 1671.5,1347.0 1695.5,1338.7 1719.2,1329.8 1742.6,1320.5 1765.8,1310.6 1788.7,1300.2 1811.2,1289.4 1833.5,1278.1 1855.3,1266.4 1876.8,1254.4 1897.9,1242.1 1918.7,1229.5 1939.0,1216.6  Z" style="stroke-width: 0.5;  stroke: rgb(0,0,0); fill: rgb(179,177,178);" />
<path d="M 1983.748,1302.531 A 522.500,522.500 0.00 0,1 1986.3,1309.0 L 1986.3,1309.0 1962.4,1318.3 1938.3,1327.5 1914.0,1336.5 1889.5,1345.3 1864.8,1354.1 1839.9,1362.6 1814.9,1370.9 1789.7,1379.0 1764.4,1387.0 1738.9,1394.7 1713.3,1402.1 1687.6,1409.4 1661.7,1416.4 1635.7,1423.1 1609.7,1429.7 1583.5,1435.9 1557.3,1441.9 1530.9,1447.6 1504.5,1453.0 1478.1,1458.2 1451.6,1463.1 1425.1,1467.7 1398.5,1472.1 1371.9,1476.1 1345.3,1479.9 1318.7,1483.4 1292.1,1486.7 1265.5,1489.7 1239.0,1492.4 1212.5,1494.9 1186.1,1497.1 1159.7,1499.0 1133.3,1500.7 1107.1,1502.2 1081.0,1503.4 1054.9,1504.4 1029.0,1505.2 1003.2,1505.8 977.5,1506.2  A 522.500,522.500 0.00 0,1 977.5,1499.2 L 977.5,1499.2 1003.1,1499.2 1028.8,1498.9 1054.7,1498.4 1080.7,1497.7 1106.8,1496.8 1133.0,1495.6 1159.2,1494.1 1185.6,1492.4 1212.0,1490.4 1238.5,1488.2 1265.0,1485.6 1291.6,1482.8 1318.2,1479.7 1344.8,1476.3 1371.3,1472.6 1397.9,1468.6 1424.5,1464.3 1451.0,1459.8 1477.5,1454.9 1503.9,1449.7 1530.3,1444.3 1556.5,1438.5 1582.7,1432.5 1608.9,1426.2 1634.9,1419.6 1660.8,1412.7 1686.6,1405.6 1712.2,1398.2 1737.8,1390.6 1763.2,1382.7 1788.4,1374.6 1813.5,1366.2 1838.4,1357.7 1863.1,1348.9 1887.6,1340.0 1912.0,1330.8 1936.1,1321.5 1960.0,1312.1 1983.7,1302.5  Z" style="stroke-width: 0.5;  stroke: rgb(0,0,0); fill: rgb(179,177,178);" />
</g>
<g id="plot0">
<g id="plot0-axis">
</g>
<line x1='2243.8' y1='1595.9' x2='2243.8' y2='1595.9' style="stroke-width:14.0;stroke:rgb(0,0,0);stroke-linecap:round;fill:none;" />
<line x1='2243.8' y1='1595.9' x2='2283.5' y2='1601.0' style="stroke-width:14.0;stroke:rgb(0,0,0);stroke-linecap:round;fill:none;" />
<line x1='2283.5' y1='1601.0' x2='2283.5' y2='1601.0' style="stroke-width:14.0;stroke:rgb(0,0,0);stroke-linecap:round;fill:none;" />
<text x="2300.2" y="1625.9" font-size="46.8px" font-family="CMUBright-Roman" style="text-anchor:start;fill:rgb(255,38,78);" transform="rotate(7.3,2300.2,1625.9)" >HistocapCB055<tspan baseline-shift="-40%" font-size="90%">s</tspan>00019</text>
</g>
<defs>
<pattern id="checker" width="10" height="10" patternTransform="rotate(45 0 0)" patternUnits="userSpaceOnUse"><line x1="0" y1="0" x2="10" y2="0" style="stroke:black;stroke-width:5" /><line x1="0" y1="0" x2="0" y2="10" style="stroke:black;stroke-width:4" /></pattern>
<pattern id="checker" width="10" height="10" patternTransform="rotate(45 0 0)" patternUnits="userSpaceOnUse"><line x1="0" y1="0" x2="10" y2="0" style="stroke:black;stroke-width:2" /><line x1="0" y1="0" x2="0" y2="10" style="stroke:black;stroke-width:2" /></pattern>
<pattern id="vline" width="10" height="10" patternTransform="rotate(0 0 0)" patternUnits="userSpaceOnUse"><line x1="0" y1="0" x2="0" y2="10" style="stroke:black;stroke-width:5" /></pattern>
<pattern id="hline-sparse" width="10" height="10" patternTransform="rotate(0 0 0)" patternUnits="userSpaceOnUse"><line x1="0" y1="0" x2="10" y2="0" style="stroke:black;stroke-width:2" /></pattern>
<pattern id="hline" width="10" height="10" patternTransform="rotate(0 0 0)" patternUnits="userSpaceOnUse"><line x1="0" y1="0" x2="10" y2="0" style="stroke:black;stroke-width:5" /></pattern>
<pattern id="vline-sparse" width="10" height="10" patternTransform="rotate(0 0 0)" patternUnits="userSpaceOnUse"><line x1="0" y1="0" x2="0" y2="10" style="stroke:black;stroke-width:2" /></pattern>
</defs>
</svg>
