<?xml version="1.0" encoding="utf-8" standalone="no"?>
<!DOCTYPE svg PUBLIC "-//W3C//DTD SVG 1.1//EN" "http://www.w3.org/Graphics/SVG/1.1/DTD/svg11.dtd">
<svg width="3000px" height="3000px" version="1.1" xmlns="http://www.w3.org/2000/svg" xmlns:xlink="http://www.w3.org/1999/xlink">
<g id="bg">
<rect x="0" y="0" width="3000px" height="3000px" style="fill:rgb(255,255,255);"/>
</g>
<g id="ideograms">
<path d="M1500.000,950.000 A550.000,550.000 40.000 1,1 953.908,1565.447 L755.329,1589.245 A750.000,750.000 0.000 1,0 1500.000,750.000 Z" style="stroke-width:2.0;stroke:rgb(0,0,0);stroke-linecap:round;fill:rgb(179,177,178);" />
<text x="2263.0" y="2177.0" font-size="46.8px" font-family="CMUBright-Roman" style="text-anchor:middle;fill:rgb(0,0,0);" transform="rotate(-48.4,2263.0,2177.0)" >HistocapWGSS11<tspan baseline-shift="-40%" font-size="90%">1</tspan></text>
<line x1='1609.1' y1='758.0' x2='1610.9' y2='746.1' style="stroke-width:8.0;stroke:rgb(150,150,150);stroke-linecap:round;fill:none;" />
<text x="1626.5" y="736.4" font-size="41.6px" font-family="CMUBright-Roman" style="text-anchor:start;fill:rgb(150,150,150);" transform="rotate(278.4,1626.5,736.4)" >2700 kb</text>
<line x1='1769.6' y1='800.1' x2='1773.9' y2='788.9' style="stroke-width:8.0;stroke:rgb(150,150,150);stroke-linecap:round;fill:none;" />
<line x1='1916.9' y1='876.5' x2='1923.5' y2='866.5' style="stroke-width:8.0;stroke:rgb(150,150,150);stroke-linecap:round;fill:none;" />
<line x1='2043.7' y1='983.4' x2='2052.4' y2='975.2' style="stroke-width:8.0;stroke:rgb(150,150,150);stroke-linecap:round;fill:none;" />
<line x1='2144.0' y1='1115.6' x2='2154.3' y2='1109.4' style="stroke-width:8.0;stroke:rgb(150,150,150);stroke-linecap:round;fill:none;" />
<line x1='2212.8' y1='1266.6' x2='2224.2' y2='1262.8' style="stroke-width:8.0;stroke:rgb(150,150,150);stroke-linecap:round;fill:none;" />
<text x="2239.8" y="1272.4" font-size="41.6px" font-family="CMUBright-Roman" style="text-anchor:start;fill:rgb(150,150,150);" transform="rotate(341.9,2239.8,1272.4)" >2750 kb</text>
<line x1='2246.6' y1='1429.0' x2='2258.6' y2='1427.8' style="stroke-width:8.0;stroke:rgb(150,150,150);stroke-linecap:round;fill:none;" />
<line x1='2244.0' y1='1594.9' x2='2255.9' y2='1596.4' style="stroke-width:8.0;stroke:rgb(150,150,150);stroke-linecap:round;fill:none;" />
<line x1='2204.9' y1='1756.1' x2='2216.2' y2='1760.2' style="stroke-width:8.0;stroke:rgb(150,150,150);stroke-linecap:round;fill:none;" />
<line x1='2131.4' y1='1904.8' x2='2141.5' y2='1911.3' style="stroke-width:8.0;stroke:rgb(150,150,150);stroke-linecap:round;fill:none;" />
<line x1='2026.9' y1='2033.7' x2='2035.4' y2='2042.2' style="stroke-width:8.0;stroke:rgb(150,150,150);stroke-linecap:round;fill:none;" />
<text x="2033.8" y="2060.5" font-size="41.6px" font-family="CMUBright-Roman" style="text-anchor:start;fill:rgb(150,150,150);" transform="rotate(45.4,2033.8,2060.5)" >2800 kb</text>
<line x1='1896.7' y1='2136.5' x2='1903.1' y2='2146.7' style="stroke-width:8.0;stroke:rgb(150,150,150);stroke-linecap:round;fill:none;" />
<line x1='1747.1' y1='2208.1' x2='1751.0' y2='2219.5' style="stroke-width:8.0;stroke:rgb(150,150,150);stroke-linecap:round;fill:none;" />
<line x1='1585.4' y1='2245.1' x2='1586.7' y2='2257.0' style="stroke-width:8.0;stroke:rgb(150,150,150);stroke-linecap:round;fill:none;" />
<line x1='1419.5' y1='2245.7' x2='1418.2' y2='2257.6' style="stroke-width:8.0;stroke:rgb(150,150,150);stroke-linecap:round;fill:none;" />
<line x1='1257.5' y1='2209.7' x2='1253.6' y2='2221.1' style="stroke-width:8.0;stroke:rgb(150,150,150);stroke-linecap:round;fill:none;" />
<text x="1263.0" y="2236.8" font-size="41.6px" font-family="CMUBright-Roman" style="text-anchor:end;fill:rgb(150,150,150);" transform="rotate(-71.1,1263.0,2236.8)" >2850 kb</text>
<line x1='1107.4' y1='2139.0' x2='1101.1' y2='2149.3' style="stroke-width:8.0;stroke:rgb(150,150,150);stroke-linecap:round;fill:none;" />
<line x1='976.5' y1='2037.1' x2='968.2' y2='2045.7' style="stroke-width:8.0;stroke:rgb(150,150,150);stroke-linecap:round;fill:none;" />
<line x1='871.3' y1='1908.9' x2='861.2' y2='1915.4' style="stroke-width:8.0;stroke:rgb(150,150,150);stroke-linecap:round;fill:none;" />
<line x1='796.8' y1='1760.7' x2='785.5' y2='1764.8' style="stroke-width:8.0;stroke:rgb(150,150,150);stroke-linecap:round;fill:none;" />
<line x1='756.7' y1='1599.7' x2='744.8' y2='1601.3' style="stroke-width:8.0;stroke:rgb(150,150,150);stroke-linecap:round;fill:none;" />
<text x="734.9" y="1616.7" font-size="41.6px" font-family="CMUBright-Roman" style="text-anchor:end;fill:rgb(150,150,150);" transform="rotate(-7.6,734.9,1616.7)" >2900 kb</text>
<g id="highlighttrack_0">
<path d="M1939.266,1830.976 A550.000,550.000 40.000 0,1 1880.895,1896.761 L2019.402,2041.038 A750.000,750.000 0.000 0,0 2098.999,1951.331 Z" style="stroke-width:14.0;stroke:rgb(0,0,0);stroke-linecap:round;fill:rgb(255,38,78);" />
</g>
<path d="M1500.000,950.000 A550.000,550.000 40.000 1,1 953.908,1565.447 L755.329,1589.245 A750.000,750.000 0.000 1,0 1500.000,750.000 Z" style="stroke-width:2.0;stroke:rgb(0,0,0);stroke-linecap:round;fill:none;" />
<path d="M1029.874,1214.551 A550.000,550.000 40.000 0,1 1160.637,1067.181 L1037.232,909.792 A750.000,750.000 0.000 0,0 858.919,1110.751 Z" style="stroke-width:2.0;stroke:rgb(0,0,0);stroke-linecap:round;fill:rgb(179,177,178);" />
<text x="770.7" y="852.9" font-size="46.8px" font-family="CMUBright-Roman" style="text-anchor:middle;fill:rgb(0,0,0);" transform="rotate(-48.4,770.7,852.9)" >HistocapHISSPFGJOS2044<tspan baseline-shift="-40%" font-size="90%">4</tspan>89</text>
<line x1='960.2' y1='979.3' x2='951.5' y2='971.0' style="stroke-width:8.0;stroke:rgb(150,150,150);stroke-linecap:round;fill:none;" />
<path d="M1029.874,1214.551 A550.000,550.000 40.000 0,1 1160.637,1067.181 L1037.232,909.792 A750.000,750.000 0.000 0,0 858.919,1110.751 Z" style="stroke-width:2.0;stroke:rgb(0,0,0);stroke-linecap:round;fill:none;" />
</g>
<g id="track_0">
<path d="M 1979.201,1708.260 A 522.500,522.500 0.00 0,1 1917.5,1814.2 L 1917.5,1814.2 1896.1,1798.1 1874.8,1782.0 1853.4,1765.9 1832.1,1749.8 1810.7,1733.7 1789.4,1717.5 1768.0,1701.3 1746.7,1685.1 1725.3,1668.9 1704.0,1652.7 1682.7,1636.5 1661.3,1620.2 1640.0,1604.0 1618.7,1587.7 1597.4,1571.4 1576.1,1555.1 1554.8,1538.8 1533.5,1522.4 1512.2,1506.1 1491.0,1489.7 1469.7,1473.3 1448.5,1456.9 1427.3,1440.5 1406.1,1424.1 1384.8,1407.7 1363.7,1391.3 1342.5,1374.8 1321.3,1358.4 1300.2,1341.9 1279.0,1325.4 1257.9,1308.9 1236.8,1292.4 1215.7,1275.9 1194.6,1259.4 1173.5,1242.9 1152.5,1226.4 1131.4,1209.9 1110.4,1193.4 1089.4,1176.8  A 522.500,522.500 0.00 0,1 1176.9,1089.4 L 1176.9,1089.4 1192.6,1109.2 1208.6,1128.9 1224.9,1148.6 1241.6,1168.2 1258.6,1187.8 1275.8,1207.2 1293.4,1226.5 1311.3,1245.7 1329.5,1264.7 1348.0,1283.5 1366.8,1302.2 1385.9,1320.6 1405.2,1338.8 1424.9,1356.8 1444.8,1374.5 1465.0,1392.0 1485.5,1409.2 1506.2,1426.2 1527.2,1442.8 1548.4,1459.2 1569.8,1475.2 1591.5,1491.0 1613.3,1506.4 1635.4,1521.5 1657.6,1536.3 1680.0,1550.7 1702.5,1564.8 1725.2,1578.6 1748.0,1592.1 1770.9,1605.2 1793.9,1617.9 1817.0,1630.4 1840.1,1642.5 1863.3,1654.2 1886.5,1665.7 1909.7,1676.8 1932.9,1687.6 1956.1,1698.1 1979.2,1708.3  Z" style="stroke-width: 0.5;  stroke: rgb(0,0,0); fill: rgb(179,177,178);" />
<path d="M 1861.658,1877.107 A 522.500,522.500 0.00 0,1 1840.0,1896.7 L 1840.0,1896.7 1823.1,1877.0 1805.9,1857.3 1788.6,1837.6 1771.1,1818.0 1753.4,1798.4 1735.6,1778.8 1717.6,1759.3 1699.4,1739.8 1681.1,1720.5 1662.6,1701.2 1643.9,1682.0 1625.1,1662.8 1606.1,1643.8 1586.9,1624.9 1567.6,1606.1 1548.2,1587.5 1528.6,1568.9 1508.9,1550.5 1489.0,1532.2 1469.0,1514.1 1448.9,1496.1 1428.6,1478.3 1408.2,1460.6 1387.8,1443.1 1367.2,1425.7 1346.5,1408.5 1325.7,1391.5 1304.8,1374.6 1283.9,1357.9 1262.9,1341.4 1241.8,1325.0 1220.7,1308.8 1199.5,1292.8 1178.3,1277.0 1157.0,1261.3 1135.7,1245.8 1114.5,1230.5 1093.2,1215.4 1071.9,1200.4  A 522.500,522.500 0.00 0,1 1089.5,1176.8 L 1089.5,1176.8 1110.2,1193.1 1130.9,1209.5 1151.5,1226.1 1172.2,1242.7 1192.9,1259.4 1213.6,1276.3 1234.2,1293.2 1254.8,1310.2 1275.4,1327.3 1295.9,1344.6 1316.4,1361.9 1336.8,1379.3 1357.2,1396.8 1377.6,1414.4 1397.9,1432.1 1418.1,1449.9 1438.3,1467.7 1458.4,1485.7 1478.4,1503.7 1498.4,1521.8 1518.3,1540.0 1538.1,1558.3 1557.9,1576.6 1577.5,1595.0 1597.1,1613.5 1616.6,1632.0 1636.0,1650.6 1655.3,1669.3 1674.6,1688.0 1693.7,1706.8 1712.8,1725.6 1731.7,1744.4 1750.6,1763.3 1769.3,1782.2 1788.0,1801.2 1806.5,1820.1 1825.0,1839.1 1843.4,1858.1 1861.7,1877.1  Z" style="stroke-width: 0.5;  stroke: rgb(0,0,0); fill: rgb(179,177,178);" />
</g>
<g id="plot0">
<g id="plot0-axis">
</g>
<line x1='1743.7' y1='2209.3' x2='1743.7' y2='2209.3' style="stroke-width:14.0;stroke:rgb(0,0,0);stroke-linecap:round;fill:none;" />
<line x1='1743.7' y1='2209.3' x2='1756.7' y2='2247.1' style="stroke-width:14.0;stroke:rgb(0,0,0);stroke-linecap:round;fill:none;" />
<line x1='1756.7' y1='2247.1' x2='1756.7' y2='2247.1' style="stroke-width:14.0;stroke:rgb(0,0,0);stroke-linecap:round;fill:none;" />
<text x="1741.8" y="2273.1" font-size="46.8px" font-family="CMUBright-Roman" style="text-anchor:start;fill:rgb(255,38,78);" transform="rotate(71.0,1741.8,2273.1)" >HistocapWGSS11<tspan baseline-shift="-40%" font-size="90%">s</tspan>01441</text>
</g>
<defs>
<pattern id="hline-sparse" width="10" height="10" patternTransform="rotate(0 0 0)" patternUnits="userSpaceOnUse"><line x1="0" y1="0" x2="10" y2="0" style="stroke:black;stroke-width:2" /></pattern>
<pattern id="vline" width="10" height="10" patternTransform="rotate(0 0 0)" patternUnits="userSpaceOnUse"><line x1="0" y1="0" x2="0" y2="10" style="stroke:black;stroke-width:5" /></pattern>
<pattern id="vline-sparse" width="10" height="10" patternTransform="rotate(0 0 0)" patternUnits="userSpaceOnUse"><line x1="0" y1="0" x2="0" y2="10" style="stroke:black;stroke-width:2" /></pattern>
<pattern id="checker" width="10" height="10" patternTransform="rotate(45 0 0)" patternUnits="userSpaceOnUse"><line x1="0" y1="0" x2="10" y2="0" style="stroke:black;stroke-width:5" /><line x1="0" y1="0" x2="0" y2="10" style="stroke:black;stroke-width:4" /></pattern>
<pattern id="checker" width="10" height="10" patternTransform="rotate(45 0 0)" patternUnits="userSpaceOnUse"><line x1="0" y1="0" x2="10" y2="0" style="stroke:black;stroke-width:2" /><line x1="0" y1="0" x2="0" y2="10" style="stroke:black;stroke-width:2" /></pattern>
<pattern id="hline" width="10" height="10" patternTransform="rotate(0 0 0)" patternUnits="userSpaceOnUse"><line x1="0" y1="0" x2="10" y2="0" style="stroke:black;stroke-width:5" /></pattern>
</defs>
</svg>
