<?xml version="1.0" encoding="utf-8" standalone="no"?>
<!DOCTYPE svg PUBLIC "-//W3C//DTD SVG 1.1//EN" "http://www.w3.org/Graphics/SVG/1.1/DTD/svg11.dtd">
<svg width="3000px" height="3000px" version="1.1" xmlns="http://www.w3.org/2000/svg" xmlns:xlink="http://www.w3.org/1999/xlink">
<g id="bg">
<rect x="0" y="0" width="3000px" height="3000px" style="fill:rgb(255,255,255);"/>
</g>
<g id="ideograms">
<path d="M1500.000,950.000 A550.000,550.000 40.000 1,1 1056.182,1824.846 L894.793,1942.972 A750.000,750.000 0.000 1,0 1500.000,750.000 Z" style="stroke-width:2.0;stroke:rgb(0,0,0);stroke-linecap:round;fill:rgb(179,177,178);" />
<text x="2409.6" y="1961.5" font-size="46.8px" font-family="CMUBright-Roman" style="text-anchor:middle;fill:rgb(0,0,0);" transform="rotate(-63.1,2409.6,1961.5)" >HistocapCB168<tspan baseline-shift="-40%" font-size="90%">3</tspan></text>
<line x1='1607.7' y1='757.8' x2='1609.4' y2='745.9' style="stroke-width:8.0;stroke:rgb(150,150,150);stroke-linecap:round;fill:none;" />
<line x1='1749.0' y1='792.5' x2='1753.0' y2='781.2' style="stroke-width:8.0;stroke:rgb(150,150,150);stroke-linecap:round;fill:none;" />
<line x1='1880.9' y1='853.9' x2='1887.0' y2='843.6' style="stroke-width:8.0;stroke:rgb(150,150,150);stroke-linecap:round;fill:none;" />
<text x="1905.1" y="840.5" font-size="41.6px" font-family="CMUBright-Roman" style="text-anchor:start;fill:rgb(150,150,150);" transform="rotate(300.5,1905.1,840.5)" >1550 kb</text>
<line x1='1998.5' y1='939.7' x2='2006.5' y2='930.7' style="stroke-width:8.0;stroke:rgb(150,150,150);stroke-linecap:round;fill:none;" />
<line x1='2097.4' y1='1046.5' x2='2106.9' y2='1039.2' style="stroke-width:8.0;stroke:rgb(150,150,150);stroke-linecap:round;fill:none;" />
<line x1='2173.7' y1='1170.4' x2='2184.5' y2='1165.1' style="stroke-width:8.0;stroke:rgb(150,150,150);stroke-linecap:round;fill:none;" />
<line x1='2224.7' y1='1306.7' x2='2236.3' y2='1303.6' style="stroke-width:8.0;stroke:rgb(150,150,150);stroke-linecap:round;fill:none;" />
<line x1='2248.4' y1='1450.3' x2='2260.3' y2='1449.5' style="stroke-width:8.0;stroke:rgb(150,150,150);stroke-linecap:round;fill:none;" />
<text x="2273.1" y="1462.7" font-size="41.6px" font-family="CMUBright-Roman" style="text-anchor:start;fill:rgb(150,150,150);" transform="rotate(356.2,2273.1,1462.7)" >1600 kb</text>
<line x1='2243.9' y1='1595.7' x2='2255.8' y2='1597.3' style="stroke-width:8.0;stroke:rgb(150,150,150);stroke-linecap:round;fill:none;" />
<line x1='2211.4' y1='1737.6' x2='2222.8' y2='1741.4' style="stroke-width:8.0;stroke:rgb(150,150,150);stroke-linecap:round;fill:none;" />
<line x1='2152.1' y1='1870.5' x2='2162.5' y2='1876.4' style="stroke-width:8.0;stroke:rgb(150,150,150);stroke-linecap:round;fill:none;" />
<line x1='2068.3' y1='1989.5' x2='2077.4' y2='1997.3' style="stroke-width:8.0;stroke:rgb(150,150,150);stroke-linecap:round;fill:none;" />
<line x1='1963.1' y1='2090.0' x2='1970.5' y2='2099.4' style="stroke-width:8.0;stroke:rgb(150,150,150);stroke-linecap:round;fill:none;" />
<text x="1966.8" y="2117.4" font-size="41.6px" font-family="CMUBright-Roman" style="text-anchor:start;fill:rgb(150,150,150);" transform="rotate(51.9,1966.8,2117.4)" >1650 kb</text>
<line x1='1840.4' y1='2168.3' x2='1845.9' y2='2179.0' style="stroke-width:8.0;stroke:rgb(150,150,150);stroke-linecap:round;fill:none;" />
<line x1='1704.9' y1='2221.5' x2='1708.2' y2='2233.0' style="stroke-width:8.0;stroke:rgb(150,150,150);stroke-linecap:round;fill:none;" />
<line x1='1561.8' y1='2247.5' x2='1562.7' y2='2259.4' style="stroke-width:8.0;stroke:rgb(150,150,150);stroke-linecap:round;fill:none;" />
<line x1='1416.2' y1='2245.3' x2='1414.9' y2='2257.2' style="stroke-width:8.0;stroke:rgb(150,150,150);stroke-linecap:round;fill:none;" />
<line x1='1273.9' y1='2215.1' x2='1270.3' y2='2226.5' style="stroke-width:8.0;stroke:rgb(150,150,150);stroke-linecap:round;fill:none;" />
<text x="1280.0" y="2242.1" font-size="41.6px" font-family="CMUBright-Roman" style="text-anchor:end;fill:rgb(150,150,150);" transform="rotate(-72.5,1280.0,2242.1)" >1700 kb</text>
<line x1='1140.0' y1='2158.0' x2='1134.3' y2='2168.5' style="stroke-width:8.0;stroke:rgb(150,150,150);stroke-linecap:round;fill:none;" />
<line x1='1019.8' y1='2076.1' x2='1012.1' y2='2085.3' style="stroke-width:8.0;stroke:rgb(150,150,150);stroke-linecap:round;fill:none;" />
<line x1='917.5' y1='1972.5' x2='908.2' y2='1980.0' style="stroke-width:8.0;stroke:rgb(150,150,150);stroke-linecap:round;fill:none;" />
<g id="highlighttrack_0">
<path d="M2012.263,1700.216 A550.000,550.000 40.000 0,1 1964.121,1795.113 L2132.892,1902.427 A750.000,750.000 0.000 0,0 2198.540,1773.022 Z" style="stroke-width:14.0;stroke:rgb(0,0,0);stroke-linecap:round;fill:rgb(255,38,78);" />
</g>
<path d="M1500.000,950.000 A550.000,550.000 40.000 1,1 1056.182,1824.846 L894.793,1942.972 A750.000,750.000 0.000 1,0 1500.000,750.000 Z" style="stroke-width:2.0;stroke:rgb(0,0,0);stroke-linecap:round;fill:none;" />
<path d="M950.655,1526.842 A550.000,550.000 40.000 0,1 1197.201,1040.857 L1087.092,873.896 A750.000,750.000 0.000 0,0 750.894,1536.603 Z" style="stroke-width:2.0;stroke:rgb(0,0,0);stroke-linecap:round;fill:rgb(179,177,178);" />
<text x="630.5" y="1058.9" font-size="46.8px" font-family="CMUBright-Roman" style="text-anchor:middle;fill:rgb(0,0,0);" transform="rotate(-63.1,630.5,1058.9)" >HistocapHISSPFGBON2001<tspan baseline-shift="-40%" font-size="90%">6</tspan>0</text>
<line x1='974.0' y1='965.4' x2='965.5' y2='956.9' style="stroke-width:8.0;stroke:rgb(150,150,150);stroke-linecap:round;fill:none;" />
<line x1='880.6' y1='1077.1' x2='870.7' y2='1070.3' style="stroke-width:8.0;stroke:rgb(150,150,150);stroke-linecap:round;fill:none;" />
<line x1='810.6' y1='1204.6' x2='799.6' y2='1199.9' style="stroke-width:8.0;stroke:rgb(150,150,150);stroke-linecap:round;fill:none;" />
<line x1='766.5' y1='1343.3' x2='754.8' y2='1340.8' style="stroke-width:8.0;stroke:rgb(150,150,150);stroke-linecap:round;fill:none;" />
<line x1='750.1' y1='1487.9' x2='738.1' y2='1487.7' style="stroke-width:8.0;stroke:rgb(150,150,150);stroke-linecap:round;fill:none;" />
<text x="726.0" y="1501.5" font-size="41.6px" font-family="CMUBright-Roman" style="text-anchor:end;fill:rgb(150,150,150);" transform="rotate(0.9,726.0,1501.5)" >50 kb</text>
<path d="M950.655,1526.842 A550.000,550.000 40.000 0,1 1197.201,1040.857 L1087.092,873.896 A750.000,750.000 0.000 0,0 750.894,1536.603 Z" style="stroke-width:2.0;stroke:rgb(0,0,0);stroke-linecap:round;fill:none;" />
</g>
<g id="track_0">
<path d="M 2000.140,1651.217 A 522.500,522.500 0.00 0,1 1978.1,1710.7 L 1978.1,1710.7 1953.9,1700.0 1929.7,1689.2 1905.5,1678.4 1881.3,1667.5 1857.0,1656.5 1832.7,1645.4 1808.5,1634.2 1784.2,1623.0 1759.9,1611.6 1735.7,1600.2 1711.4,1588.7 1687.2,1577.2 1663.0,1565.5 1638.8,1553.8 1614.6,1541.9 1590.5,1530.0 1566.4,1518.0 1542.3,1506.0 1518.3,1493.8 1494.2,1481.6 1470.3,1469.3 1446.4,1456.9 1422.5,1444.5 1398.6,1432.0 1374.9,1419.4 1351.1,1406.7 1327.5,1394.0 1303.8,1381.2 1280.3,1368.4 1256.8,1355.5 1233.4,1342.5 1210.0,1329.5 1186.7,1316.5 1163.4,1303.4 1140.3,1290.2 1117.2,1277.1 1094.2,1263.8 1071.2,1250.6 1048.3,1237.3  A 522.500,522.500 0.00 0,1 1083.5,1184.5 L 1083.5,1184.5 1104.0,1200.0 1124.8,1215.3 1145.7,1230.6 1166.9,1245.8 1188.4,1260.9 1210.0,1275.9 1231.8,1290.7 1253.8,1305.4 1276.1,1319.9 1298.5,1334.2 1321.1,1348.4 1343.9,1362.4 1366.9,1376.2 1390.0,1389.8 1413.3,1403.2 1436.8,1416.3 1460.4,1429.3 1484.2,1442.0 1508.1,1454.5 1532.1,1466.7 1556.2,1478.7 1580.5,1490.4 1604.8,1501.9 1629.3,1513.1 1653.8,1524.1 1678.4,1534.8 1703.1,1545.3 1727.8,1555.5 1752.6,1565.4 1777.4,1575.1 1802.2,1584.5 1827.0,1593.7 1851.9,1602.7 1876.7,1611.3 1901.5,1619.8 1926.2,1628.0 1950.9,1636.0 1975.6,1643.7 2000.1,1651.2  Z" style="stroke-width: 0.5;  stroke: rgb(0,0,0); fill: rgb(179,177,178);" />
<path d="M 2022.410,1509.709 A 522.500,522.500 0.00 0,1 2017.4,1572.5 L 2017.4,1572.5 1992.9,1568.9 1968.2,1564.9 1943.4,1560.6 1918.5,1555.9 1893.5,1550.8 1868.4,1545.4 1843.3,1539.4 1818.2,1533.1 1793.1,1526.4 1768.1,1519.2 1743.1,1511.5 1718.2,1503.4 1693.3,1494.9 1668.6,1485.9 1644.0,1476.4 1619.5,1466.5 1595.2,1456.2 1571.1,1445.4 1547.2,1434.1 1523.4,1422.4 1499.9,1410.3 1476.7,1397.8 1453.7,1384.9 1430.9,1371.5 1408.4,1357.8 1386.2,1343.7 1364.3,1329.2 1342.7,1314.3 1321.4,1299.2 1300.4,1283.7 1279.7,1268.0 1259.4,1251.9 1239.4,1235.6 1219.8,1219.1 1200.5,1202.4 1181.6,1185.5 1163.1,1168.5 1144.9,1151.3 1127.1,1134.0  A 522.500,522.500 0.00 0,1 1173.5,1092.1 L 1173.5,1092.1 1188.7,1110.7 1204.4,1129.3 1220.5,1147.7 1237.1,1166.0 1254.2,1184.0 1271.7,1201.8 1289.6,1219.2 1308.0,1236.4 1326.9,1253.2 1346.1,1269.6 1365.8,1285.6 1385.9,1301.1 1406.4,1316.2 1427.3,1330.8 1448.6,1344.8 1470.2,1358.4 1492.2,1371.4 1514.5,1383.8 1537.1,1395.7 1560.0,1406.9 1583.2,1417.6 1606.7,1427.7 1630.4,1437.2 1654.3,1446.1 1678.4,1454.3 1702.7,1462.0 1727.2,1469.0 1751.8,1475.5 1776.4,1481.3 1801.2,1486.6 1826.0,1491.2 1850.8,1495.3 1875.6,1498.9 1900.4,1501.9 1925.1,1504.4 1949.6,1506.4 1974.1,1508.0 1998.3,1509.1 2022.4,1509.7  Z" style="stroke-width: 0.5;  stroke: rgb(0,0,0); fill: rgb(179,177,178);" />
<path d="M 1940.915,1780.357 A 522.500,522.500 0.00 0,1 1905.3,1829.8 L 1905.3,1829.8 1885.2,1813.5 1864.9,1797.3 1844.4,1781.2 1823.8,1765.2 1802.9,1749.2 1781.8,1733.3 1760.6,1717.6 1739.1,1702.0 1717.5,1686.5 1695.7,1671.1 1673.7,1655.9 1651.5,1640.8 1629.2,1625.9 1606.7,1611.2 1584.1,1596.6 1561.3,1582.2 1538.4,1568.1 1515.3,1554.1 1492.1,1540.3 1468.8,1526.7 1445.4,1513.3 1421.9,1500.2 1398.2,1487.2 1374.5,1474.5 1350.6,1462.0 1326.7,1449.7 1302.8,1437.7 1278.7,1425.8 1254.6,1414.2 1230.5,1402.8 1206.4,1391.7 1182.2,1380.7 1158.0,1370.0 1133.8,1359.5 1109.6,1349.2 1085.5,1339.1 1061.3,1329.3 1037.2,1319.6 1013.2,1310.2  A 522.500,522.500 0.00 0,1 1038.7,1254.7 L 1038.7,1254.7 1062.1,1267.1 1085.6,1279.7 1109.0,1292.3 1132.5,1304.9 1156.0,1317.6 1179.4,1330.4 1202.9,1343.2 1226.4,1356.1 1249.8,1369.0 1273.3,1382.0 1296.7,1395.1 1320.1,1408.2 1343.5,1421.3 1366.9,1434.6 1390.3,1447.8 1413.7,1461.2 1437.0,1474.6 1460.3,1488.0 1483.6,1501.5 1506.8,1515.0 1530.0,1528.6 1553.2,1542.3 1576.4,1556.0 1599.5,1569.7 1622.5,1583.5 1645.6,1597.3 1668.6,1611.2 1691.5,1625.1 1714.4,1639.1 1737.3,1653.1 1760.1,1667.1 1782.9,1681.2 1805.6,1695.3 1828.3,1709.4 1850.9,1723.5 1873.5,1737.7 1896.0,1751.9 1918.5,1766.1 1940.9,1780.4  Z" style="stroke-width: 0.5;  stroke: rgb(0,0,0); fill: rgb(179,177,178);" />
<path d="M 1892.393,1845.013 A 522.500,522.500 0.00 0,1 1855.0,1883.4 L 1855.0,1883.4 1837.9,1865.1 1820.4,1846.9 1802.6,1828.7 1784.5,1810.7 1766.0,1792.8 1747.2,1775.1 1728.1,1757.5 1708.6,1740.1 1688.9,1723.0 1668.8,1706.1 1648.4,1689.4 1627.7,1673.0 1606.7,1656.9 1585.4,1641.1 1563.9,1625.6 1542.1,1610.4 1520.0,1595.5 1497.7,1581.0 1475.1,1566.9 1452.3,1553.1 1429.3,1539.7 1406.1,1526.6 1382.7,1513.9 1359.1,1501.7 1335.4,1489.8 1311.5,1478.2 1287.5,1467.1 1263.4,1456.4 1239.1,1446.1 1214.8,1436.1 1190.5,1426.5 1166.1,1417.4 1141.6,1408.6 1117.2,1400.1 1092.8,1392.1 1068.4,1384.4 1044.1,1377.0 1019.8,1370.0 995.7,1363.3  A 522.500,522.500 0.00 0,1 1012.4,1312.1 L 1012.4,1312.1 1036.4,1321.4 1060.4,1331.0 1084.4,1340.8 1108.5,1350.8 1132.6,1361.0 1156.7,1371.5 1180.8,1382.3 1204.9,1393.3 1229.0,1404.5 1253.0,1416.0 1277.0,1427.8 1300.9,1439.8 1324.7,1452.0 1348.5,1464.5 1372.1,1477.3 1395.7,1490.3 1419.1,1503.5 1442.4,1517.0 1465.6,1530.7 1488.7,1544.7 1511.6,1558.9 1534.4,1573.3 1557.0,1588.0 1579.4,1602.8 1601.7,1617.9 1623.7,1633.1 1645.6,1648.6 1667.4,1664.2 1688.9,1680.0 1710.2,1695.9 1731.3,1712.0 1752.2,1728.3 1772.9,1744.7 1793.4,1761.2 1813.6,1777.8 1833.7,1794.5 1853.5,1811.3 1873.0,1828.1 1892.4,1845.0  Z" style="stroke-width: 0.5;  stroke: rgb(0,0,0); fill: rgb(179,177,178);" />
<path d="M 2011.839,1605.008 A 522.500,522.500 0.00 0,1 2000.5,1649.9 L 2000.5,1649.9 1976.0,1642.5 1951.3,1634.8 1926.6,1626.9 1901.8,1618.7 1877.0,1610.4 1852.2,1601.7 1827.4,1592.8 1802.5,1583.7 1777.7,1574.3 1752.9,1564.7 1728.1,1554.8 1703.4,1544.6 1678.7,1534.2 1654.1,1523.5 1629.6,1512.5 1605.1,1501.3 1580.8,1489.8 1556.5,1478.1 1532.4,1466.1 1508.3,1453.9 1484.5,1441.4 1460.7,1428.7 1437.1,1415.8 1413.6,1402.6 1390.3,1389.2 1367.2,1375.6 1344.3,1361.8 1321.5,1347.8 1298.9,1333.6 1276.5,1319.2 1254.3,1304.7 1232.3,1289.9 1210.5,1275.1 1188.9,1260.1 1167.5,1245.0 1146.4,1229.8 1125.4,1214.4 1104.7,1199.0 1084.2,1183.5  A 522.500,522.500 0.00 0,1 1114.1,1147.8 L 1114.1,1147.8 1132.7,1164.6 1151.7,1181.3 1171.0,1198.0 1190.6,1214.5 1210.5,1230.8 1230.7,1247.0 1251.2,1263.0 1272.1,1278.8 1293.2,1294.3 1314.6,1309.6 1336.3,1324.7 1358.2,1339.4 1380.4,1353.9 1402.9,1368.1 1425.6,1381.9 1448.5,1395.4 1471.7,1408.6 1495.1,1421.4 1518.7,1433.9 1542.5,1446.0 1566.4,1457.8 1590.6,1469.1 1614.9,1480.1 1639.3,1490.7 1663.8,1501.0 1688.5,1510.8 1713.3,1520.3 1738.1,1529.3 1763.0,1538.0 1788.0,1546.3 1813.0,1554.3 1838.0,1561.8 1863.0,1569.0 1888.0,1575.9 1912.9,1582.4 1937.8,1588.5 1962.6,1594.3 1987.3,1599.8 2011.8,1605.0  Z" style="stroke-width: 0.5;  stroke: rgb(0,0,0); fill: rgb(179,177,178);" />
<path d="M 1824.876,1909.221 A 522.500,522.500 0.00 0,1 1790.9,1934.1 L 1790.9,1934.1 1777.3,1914.1 1763.2,1894.3 1748.7,1874.5 1733.7,1854.9 1718.2,1835.5 1702.3,1816.2 1685.9,1797.2 1669.0,1778.5 1651.6,1760.2 1633.8,1742.1 1615.6,1724.5 1596.9,1707.2 1577.8,1690.3 1558.2,1674.0 1538.2,1658.0 1517.8,1642.6 1497.1,1627.7 1475.9,1613.3 1454.4,1599.4 1432.5,1586.1 1410.4,1573.3 1387.9,1561.1 1365.1,1549.5 1342.0,1538.4 1318.7,1528.0 1295.2,1518.1 1271.4,1508.8 1247.5,1500.1 1223.5,1492.0 1199.3,1484.4 1175.0,1477.4 1150.6,1471.0 1126.2,1465.1 1101.8,1459.7 1077.5,1454.9 1053.2,1450.5 1028.9,1446.7 1004.8,1443.3 980.9,1440.3  A 522.500,522.500 0.00 0,1 987.4,1398.7 L 987.4,1398.7 1011.5,1403.6 1035.7,1408.9 1060.1,1414.7 1084.5,1420.8 1108.9,1427.4 1133.4,1434.4 1157.9,1441.9 1182.3,1449.8 1206.7,1458.2 1231.0,1467.1 1255.2,1476.5 1279.3,1486.3 1303.3,1496.6 1327.0,1507.5 1350.6,1518.8 1374.0,1530.5 1397.2,1542.8 1420.1,1555.5 1442.7,1568.7 1465.1,1582.4 1487.3,1596.5 1509.1,1611.0 1530.6,1626.0 1551.8,1641.4 1572.6,1657.2 1593.1,1673.4 1613.2,1689.9 1633.0,1706.8 1652.4,1724.0 1671.5,1741.6 1690.1,1759.4 1708.4,1777.5 1726.2,1795.8 1743.7,1814.4 1760.7,1833.1 1777.4,1852.0 1793.6,1871.0 1809.4,1890.1 1824.9,1909.2  Z" style="stroke-width: 0.5;  stroke: rgb(0,0,0); fill: rgb(179,177,178);" />
<path d="M 1786.663,1936.842 A 522.500,522.500 0.00 0,1 1757.3,1954.8 L 1757.3,1954.8 1745.4,1934.3 1733.0,1913.8 1720.2,1893.5 1706.8,1873.2 1692.8,1853.2 1678.4,1833.4 1663.4,1813.9 1647.9,1794.7 1631.9,1775.9 1615.3,1757.4 1598.3,1739.4 1580.7,1721.8 1562.6,1704.8 1544.1,1688.2 1525.1,1672.2 1505.6,1656.7 1485.7,1641.8 1465.3,1627.5 1444.5,1613.8 1423.3,1600.8 1401.8,1588.4 1379.8,1576.7 1357.6,1565.6 1335.0,1555.1 1312.1,1545.4 1289.0,1536.3 1265.6,1527.9 1242.0,1520.1 1218.2,1513.0 1194.3,1506.5 1170.3,1500.7 1146.1,1495.5 1122.0,1490.9 1097.8,1486.9 1073.6,1483.5 1049.6,1480.6 1025.6,1478.3 1001.7,1476.5 978.1,1475.1  A 522.500,522.500 0.00 0,1 980.9,1440.4 L 980.9,1440.4 1004.8,1443.4 1028.9,1446.8 1053.1,1450.6 1077.3,1455.0 1101.7,1459.8 1126.0,1465.2 1150.4,1471.1 1174.7,1477.6 1199.0,1484.6 1223.1,1492.2 1247.1,1500.3 1271.0,1509.1 1294.6,1518.4 1318.1,1528.4 1341.3,1538.9 1364.3,1550.0 1387.0,1561.7 1409.4,1573.9 1431.5,1586.8 1453.3,1600.2 1474.7,1614.1 1495.7,1628.6 1516.4,1643.7 1536.6,1659.2 1556.5,1675.2 1575.9,1691.7 1594.9,1708.7 1613.4,1726.0 1631.5,1743.8 1649.2,1762.0 1666.3,1780.4 1683.0,1799.3 1699.3,1818.4 1715.0,1837.7 1730.3,1857.3 1745.1,1877.0 1759.4,1896.9 1773.3,1916.8 1786.7,1936.8  Z" style="stroke-width: 0.5;  stroke: rgb(0,0,0); fill: rgb(179,177,178);" />
<path d="M 1854.198,1884.122 A 522.500,522.500 0.00 0,1 1833.5,1902.3 L 1833.5,1902.3 1817.6,1883.3 1801.3,1864.5 1784.6,1845.7 1767.5,1827.1 1750.1,1808.6 1732.2,1790.2 1714.0,1772.1 1695.4,1754.2 1676.4,1736.6 1657.1,1719.2 1637.4,1702.2 1617.4,1685.4 1597.0,1669.0 1576.2,1652.9 1555.2,1637.2 1533.8,1621.9 1512.1,1607.0 1490.1,1592.4 1467.9,1578.3 1445.3,1564.7 1422.5,1551.4 1399.5,1538.6 1376.3,1526.3 1352.8,1514.4 1329.2,1503.0 1305.3,1492.0 1281.4,1481.5 1257.2,1471.4 1233.0,1461.8 1208.7,1452.7 1184.3,1444.0 1159.8,1435.8 1135.3,1428.0 1110.8,1420.6 1086.4,1413.7 1062.0,1407.1 1037.6,1401.0 1013.4,1395.2 989.2,1389.9  A 522.500,522.500 0.00 0,1 995.7,1363.3 L 995.7,1363.3 1019.8,1370.0 1044.1,1377.0 1068.4,1384.4 1092.8,1392.1 1117.2,1400.2 1141.6,1408.6 1166.0,1417.4 1190.4,1426.6 1214.8,1436.1 1239.1,1446.1 1263.3,1456.5 1287.4,1467.2 1311.4,1478.3 1335.3,1489.8 1359.0,1501.8 1382.5,1514.1 1405.9,1526.8 1429.1,1539.8 1452.1,1553.3 1474.9,1567.1 1497.4,1581.3 1519.7,1595.8 1541.8,1610.7 1563.6,1625.9 1585.1,1641.4 1606.4,1657.3 1627.3,1673.4 1648.0,1689.8 1668.3,1706.5 1688.4,1723.5 1708.1,1740.7 1727.6,1758.0 1746.7,1775.6 1765.4,1793.4 1783.8,1811.3 1801.9,1829.4 1819.7,1847.6 1837.1,1865.8 1854.2,1884.1  Z" style="stroke-width: 0.5;  stroke: rgb(0,0,0); fill: rgb(179,177,178);" />
<path d="M 2021.044,1461.016 A 522.500,522.500 0.00 0,1 2022.1,1478.8 L 2022.1,1478.8 1998.4,1479.5 1974.4,1479.8 1950.3,1479.6 1926.0,1478.9 1901.6,1477.6 1877.1,1475.8 1852.6,1473.4 1828.0,1470.4 1803.5,1466.8 1779.0,1462.5 1754.6,1457.6 1730.4,1452.0 1706.3,1445.7 1682.3,1438.8 1658.6,1431.2 1635.0,1422.9 1611.8,1413.9 1588.8,1404.2 1566.0,1393.9 1543.6,1382.9 1521.6,1371.2 1499.9,1358.9 1478.5,1346.0 1457.6,1332.4 1437.1,1318.3 1416.9,1303.6 1397.2,1288.3 1378.0,1272.5 1359.2,1256.2 1340.8,1239.5 1323.0,1222.3 1305.6,1204.7 1288.7,1186.7 1272.3,1168.5 1256.4,1149.9 1241.0,1131.1 1226.1,1112.1 1211.7,1093.0 1197.8,1073.8  A 522.500,522.500 0.00 0,1 1212.3,1063.8 L 1212.3,1063.8 1225.5,1083.3 1239.1,1102.7 1253.3,1122.0 1268.0,1141.1 1283.3,1159.9 1299.0,1178.5 1315.3,1196.7 1332.0,1214.5 1349.3,1231.9 1367.0,1248.8 1385.3,1265.2 1404.0,1281.2 1423.2,1296.5 1442.9,1311.3 1463.0,1325.5 1483.5,1339.0 1504.4,1351.9 1525.7,1364.1 1547.4,1375.6 1569.5,1386.4 1591.8,1396.6 1614.5,1406.0 1637.5,1414.7 1660.8,1422.6 1684.3,1429.9 1708.0,1436.4 1731.9,1442.2 1755.9,1447.3 1780.1,1451.7 1804.3,1455.4 1828.6,1458.4 1853.0,1460.8 1877.3,1462.5 1901.6,1463.6 1925.8,1464.2 1949.9,1464.2 1973.8,1463.6 1997.6,1462.5 2021.0,1461.0  Z" style="stroke-width: 0.5;  stroke: rgb(0,0,0); fill: rgb(179,177,178);" />
<path d="M 2015.425,1585.691 A 522.500,522.500 0.00 0,1 2012.2,1603.0 L 2012.2,1603.0 1987.7,1597.9 1963.0,1592.5 1938.2,1586.8 1913.3,1580.7 1888.3,1574.3 1863.4,1567.6 1838.3,1560.5 1813.3,1553.0 1788.3,1545.1 1763.4,1536.9 1738.4,1528.2 1713.6,1519.2 1688.8,1509.8 1664.1,1500.0 1639.6,1489.9 1615.2,1479.3 1590.9,1468.3 1566.7,1457.0 1542.8,1445.3 1519.0,1433.2 1495.4,1420.7 1472.0,1407.9 1448.9,1394.8 1425.9,1381.2 1403.2,1367.4 1380.8,1353.2 1358.6,1338.8 1336.7,1324.0 1315.0,1309.0 1293.6,1293.7 1272.5,1278.1 1251.7,1262.3 1231.2,1246.3 1211.1,1230.1 1191.2,1213.7 1171.6,1197.2 1152.4,1180.5 1133.5,1163.7 1114.9,1146.9  A 522.500,522.500 0.00 0,1 1127.1,1134.1 L 1127.1,1134.1 1144.9,1151.4 1163.2,1168.6 1181.7,1185.7 1200.7,1202.7 1220.0,1219.5 1239.6,1236.1 1259.6,1252.5 1279.9,1268.7 1300.5,1284.6 1321.4,1300.2 1342.7,1315.5 1364.3,1330.5 1386.1,1345.2 1408.3,1359.6 1430.7,1373.5 1453.4,1387.1 1476.3,1400.4 1499.5,1413.2 1522.9,1425.6 1546.6,1437.6 1570.4,1449.2 1594.4,1460.4 1618.6,1471.2 1643.0,1481.5 1667.5,1491.4 1692.2,1500.8 1716.9,1509.8 1741.7,1518.4 1766.6,1526.5 1791.6,1534.3 1816.6,1541.6 1841.6,1548.4 1866.7,1554.9 1891.6,1561.0 1916.6,1566.7 1941.5,1572.0 1966.2,1576.9 1990.9,1581.5 2015.4,1585.7  Z" style="stroke-width: 0.5;  stroke: rgb(0,0,0); fill: rgb(179,177,178);" />
<path d="M 2022.126,1480.237 A 522.500,522.500 0.00 0,1 2022.5,1496.6 L 2022.5,1496.6 1998.6,1496.5 1974.4,1496.0 1950.1,1495.1 1925.7,1493.6 1901.1,1491.6 1876.4,1489.1 1851.7,1486.0 1827.0,1482.4 1802.4,1478.1 1777.7,1473.3 1753.2,1467.8 1728.7,1461.7 1704.4,1455.0 1680.3,1447.6 1656.3,1439.6 1632.6,1431.0 1609.0,1421.7 1585.8,1411.8 1562.8,1401.2 1540.1,1390.0 1517.7,1378.2 1495.7,1365.8 1474.0,1352.8 1452.7,1339.3 1431.7,1325.1 1411.2,1310.5 1391.0,1295.3 1371.3,1279.6 1352.0,1263.5 1333.2,1246.9 1314.8,1229.9 1296.8,1212.5 1279.3,1194.8 1262.3,1176.8 1245.8,1158.5 1229.7,1140.0 1214.2,1121.3 1199.1,1102.5 1184.5,1083.5  A 522.500,522.500 0.00 0,1 1197.4,1074.1 L 1197.4,1074.1 1211.3,1093.3 1225.7,1112.4 1240.6,1131.4 1256.1,1150.2 1272.0,1168.7 1288.4,1187.0 1305.3,1205.0 1322.7,1222.6 1340.6,1239.8 1359.0,1256.5 1377.8,1272.8 1397.0,1288.6 1416.8,1303.9 1436.9,1318.6 1457.4,1332.8 1478.4,1346.4 1499.8,1359.3 1521.5,1371.6 1543.5,1383.3 1565.9,1394.4 1588.7,1404.7 1611.7,1414.4 1635.0,1423.4 1658.5,1431.8 1682.2,1439.4 1706.2,1446.4 1730.3,1452.7 1754.6,1458.4 1779.0,1463.4 1803.5,1467.7 1828.0,1471.4 1852.5,1474.4 1877.1,1476.9 1901.6,1478.8 1926.0,1480.1 1950.3,1480.9 1974.4,1481.1 1998.4,1480.9 2022.1,1480.2  Z" style="stroke-width: 0.5;  stroke: rgb(0,0,0); fill: rgb(179,177,178);" />
<path d="M 2022.495,1497.789 A 522.500,522.500 0.00 0,1 2022.4,1509.7 L 2022.4,1509.7 1998.4,1509.1 1974.1,1508.0 1949.7,1506.4 1925.1,1504.4 1900.4,1501.9 1875.7,1498.9 1850.9,1495.3 1826.1,1491.2 1801.3,1486.5 1776.6,1481.2 1751.9,1475.4 1727.3,1468.9 1702.9,1461.8 1678.6,1454.2 1654.5,1445.9 1630.6,1437.0 1607.0,1427.5 1583.5,1417.4 1560.4,1406.7 1537.5,1395.4 1514.9,1383.5 1492.6,1371.0 1470.7,1358.0 1449.1,1344.4 1427.9,1330.3 1407.0,1315.6 1386.6,1300.5 1366.5,1284.9 1346.9,1268.9 1327.7,1252.5 1308.9,1235.6 1290.6,1218.4 1272.7,1200.9 1255.2,1183.1 1238.2,1165.0 1221.7,1146.7 1205.7,1128.3 1190.1,1109.6 1174.9,1090.9  A 522.500,522.500 0.00 0,1 1184.4,1083.6 L 1184.4,1083.6 1199.0,1102.5 1214.1,1121.4 1229.7,1140.1 1245.7,1158.6 1262.3,1176.9 1279.3,1194.9 1296.8,1212.6 1314.7,1230.0 1333.1,1247.0 1352.0,1263.6 1371.3,1279.8 1391.0,1295.5 1411.1,1310.7 1431.7,1325.3 1452.6,1339.5 1474.0,1353.1 1495.6,1366.1 1517.7,1378.5 1540.1,1390.4 1562.8,1401.6 1585.7,1412.2 1609.0,1422.1 1632.5,1431.4 1656.3,1440.1 1680.2,1448.2 1704.4,1455.6 1728.7,1462.3 1753.1,1468.5 1777.7,1474.0 1802.3,1478.9 1827.0,1483.2 1851.7,1486.9 1876.4,1490.0 1901.1,1492.6 1925.6,1494.6 1950.1,1496.1 1974.4,1497.1 1998.6,1497.7 2022.5,1497.8  Z" style="stroke-width: 0.5;  stroke: rgb(0,0,0); fill: rgb(179,177,178);" />
</g>
<g id="plot0">
<g id="plot0-axis">
</g>
<line x1='1962.2' y1='2090.7' x2='1962.2' y2='2090.7' style="stroke-width:14.0;stroke:rgb(0,0,0);stroke-linecap:round;fill:none;" />
<line x1='1962.2' y1='2090.7' x2='1986.8' y2='2122.2' style="stroke-width:14.0;stroke:rgb(0,0,0);stroke-linecap:round;fill:none;" />
<line x1='1986.8' y1='2122.2' x2='1986.8' y2='2122.2' style="stroke-width:14.0;stroke:rgb(0,0,0);stroke-linecap:round;fill:none;" />
<text x="1981.2" y="2151.6" font-size="46.8px" font-family="CMUBright-Roman" style="text-anchor:start;fill:rgb(255,38,78);" transform="rotate(52.0,1981.2,2151.6)" >HistocapCB168<tspan baseline-shift="-40%" font-size="90%">s</tspan>00350</text>
</g>
<defs>
<pattern id="vline" width="10" height="10" patternTransform="rotate(0 0 0)" patternUnits="userSpaceOnUse"><line x1="0" y1="0" x2="0" y2="10" style="stroke:black;stroke-width:5" /></pattern>
<pattern id="vline-sparse" width="10" height="10" patternTransform="rotate(0 0 0)" patternUnits="userSpaceOnUse"><line x1="0" y1="0" x2="0" y2="10" style="stroke:black;stroke-width:2" /></pattern>
<pattern id="checker" width="10" height="10" patternTransform="rotate(45 0 0)" patternUnits="userSpaceOnUse"><line x1="0" y1="0" x2="10" y2="0" style="stroke:black;stroke-width:2" /><line x1="0" y1="0" x2="0" y2="10" style="stroke:black;stroke-width:2" /></pattern>
<pattern id="hline-sparse" width="10" height="10" patternTransform="rotate(0 0 0)" patternUnits="userSpaceOnUse"><line x1="0" y1="0" x2="10" y2="0" style="stroke:black;stroke-width:2" /></pattern>
<pattern id="hline" width="10" height="10" patternTransform="rotate(0 0 0)" patternUnits="userSpaceOnUse"><line x1="0" y1="0" x2="10" y2="0" style="stroke:black;stroke-width:5" /></pattern>
<pattern id="checker" width="10" height="10" patternTransform="rotate(45 0 0)" patternUnits="userSpaceOnUse"><line x1="0" y1="0" x2="10" y2="0" style="stroke:black;stroke-width:5" /><line x1="0" y1="0" x2="0" y2="10" style="stroke:black;stroke-width:4" /></pattern>
</defs>
</svg>
