<?xml version="1.0" encoding="utf-8" standalone="no"?>
<!DOCTYPE svg PUBLIC "-//W3C//DTD SVG 1.1//EN" "http://www.w3.org/Graphics/SVG/1.1/DTD/svg11.dtd">
<svg width="3000px" height="3000px" version="1.1" xmlns="http://www.w3.org/2000/svg" xmlns:xlink="http://www.w3.org/1999/xlink">
<g id="bg">
<rect x="0" y="0" width="3000px" height="3000px" style="fill:rgb(255,255,255);"/>
</g>
<g id="ideograms">
<path d="M1500.000,950.000 A550.000,550.000 40.000 0,1 1659.409,2026.392 L1717.376,2217.808 A750.000,750.000 0.000 0,0 1500.000,750.000 Z" style="stroke-width:2.0;stroke:rgb(0,0,0);stroke-linecap:round;fill:rgb(179,177,178);" />
<text x="2464.5" y="1357.2" font-size="46.8px" font-family="CMUBright-Roman" style="text-anchor:middle;fill:rgb(0,0,0);" transform="rotate(441.6,2464.5,1357.2)" >HistoohiSECH95<tspan baseline-shift="-40%" font-size="90%">6</tspan></text>
<line x1='1560.2' y1='752.4' x2='1561.2' y2='740.5' style="stroke-width:8.0;stroke:rgb(150,150,150);stroke-linecap:round;fill:none;" />
<line x1='1658.2' y1='766.9' x2='1660.7' y2='755.1' style="stroke-width:8.0;stroke:rgb(150,150,150);stroke-linecap:round;fill:none;" />
<line x1='1753.3' y1='794.1' x2='1757.4' y2='782.8' style="stroke-width:8.0;stroke:rgb(150,150,150);stroke-linecap:round;fill:none;" />
<text x="1774.6" y="776.3" font-size="41.6px" font-family="CMUBright-Roman" style="text-anchor:start;fill:rgb(150,150,150);" transform="rotate(289.7,1774.6,776.3)" >1350 kb</text>
<line x1='1844.1' y1='833.6' x2='1849.6' y2='822.9' style="stroke-width:8.0;stroke:rgb(150,150,150);stroke-linecap:round;fill:none;" />
<line x1='1928.9' y1='884.7' x2='1935.7' y2='874.9' style="stroke-width:8.0;stroke:rgb(150,150,150);stroke-linecap:round;fill:none;" />
<line x1='2006.2' y1='946.6' x2='2014.3' y2='937.7' style="stroke-width:8.0;stroke:rgb(150,150,150);stroke-linecap:round;fill:none;" />
<line x1='2074.6' y1='1018.0' x2='2083.8' y2='1010.3' style="stroke-width:8.0;stroke:rgb(150,150,150);stroke-linecap:round;fill:none;" />
<line x1='2133.1' y1='1097.9' x2='2143.2' y2='1091.5' style="stroke-width:8.0;stroke:rgb(150,150,150);stroke-linecap:round;fill:none;" />
<text x="2160.8" y="1096.9" font-size="41.6px" font-family="CMUBright-Roman" style="text-anchor:start;fill:rgb(150,150,150);" transform="rotate(327.6,2160.8,1096.9)" >1400 kb</text>
<line x1='2180.6' y1='1184.8' x2='2191.4' y2='1179.8' style="stroke-width:8.0;stroke:rgb(150,150,150);stroke-linecap:round;fill:none;" />
<line x1='2216.1' y1='1277.2' x2='2227.6' y2='1273.6' style="stroke-width:8.0;stroke:rgb(150,150,150);stroke-linecap:round;fill:none;" />
<line x1='2239.2' y1='1373.4' x2='2251.1' y2='1371.4' style="stroke-width:8.0;stroke:rgb(150,150,150);stroke-linecap:round;fill:none;" />
<line x1='2249.5' y1='1471.9' x2='2261.5' y2='1471.5' style="stroke-width:8.0;stroke:rgb(150,150,150);stroke-linecap:round;fill:none;" />
<line x1='2246.6' y1='1570.9' x2='2258.6' y2='1572.0' style="stroke-width:8.0;stroke:rgb(150,150,150);stroke-linecap:round;fill:none;" />
<text x="2269.1" y="1587.0" font-size="41.6px" font-family="CMUBright-Roman" style="text-anchor:start;fill:rgb(150,150,150);" transform="rotate(5.4,2269.1,1587.0)" >1450 kb</text>
<line x1='2230.8' y1='1668.6' x2='2242.5' y2='1671.3' style="stroke-width:8.0;stroke:rgb(150,150,150);stroke-linecap:round;fill:none;" />
<line x1='2202.2' y1='1763.3' x2='2213.5' y2='1767.6' style="stroke-width:8.0;stroke:rgb(150,150,150);stroke-linecap:round;fill:none;" />
<line x1='2161.4' y1='1853.5' x2='2172.0' y2='1859.2' style="stroke-width:8.0;stroke:rgb(150,150,150);stroke-linecap:round;fill:none;" />
<line x1='2109.1' y1='1937.6' x2='2118.9' y2='1944.6' style="stroke-width:8.0;stroke:rgb(150,150,150);stroke-linecap:round;fill:none;" />
<line x1='2046.2' y1='2014.0' x2='2054.9' y2='2022.2' style="stroke-width:8.0;stroke:rgb(150,150,150);stroke-linecap:round;fill:none;" />
<text x="2054.0" y="2040.5" font-size="41.6px" font-family="CMUBright-Roman" style="text-anchor:start;fill:rgb(150,150,150);" transform="rotate(43.3,2054.0,2040.5)" >1500 kb</text>
<line x1='1973.7' y1='2081.4' x2='1981.3' y2='2090.7' style="stroke-width:8.0;stroke:rgb(150,150,150);stroke-linecap:round;fill:none;" />
<line x1='1893.0' y1='2138.8' x2='1899.3' y2='2149.0' style="stroke-width:8.0;stroke:rgb(150,150,150);stroke-linecap:round;fill:none;" />
<line x1='1805.5' y1='2185.0' x2='1810.4' y2='2195.9' style="stroke-width:8.0;stroke:rgb(150,150,150);stroke-linecap:round;fill:none;" />
<g id="highlighttrack_0">
<path d="M2032.909,1363.956 A550.000,550.000 40.000 0,1 2049.465,1475.749 L2249.271,1466.931 A750.000,750.000 0.000 0,0 2226.694,1314.485 Z" style="stroke-width:14.0;stroke:rgb(0,0,0);stroke-linecap:round;fill:rgb(255,38,78);" />
</g>
<path d="M1500.000,950.000 A550.000,550.000 40.000 0,1 1659.409,2026.392 L1717.376,2217.808 A750.000,750.000 0.000 0,0 1500.000,750.000 Z" style="stroke-width:2.0;stroke:rgb(0,0,0);stroke-linecap:round;fill:none;" />
<path d="M1443.887,2047.130 A550.000,550.000 40.000 0,1 1287.719,992.618 L1210.526,808.115 A750.000,750.000 0.000 0,0 1423.483,2246.087 Z" style="stroke-width:2.0;stroke:rgb(0,0,0);stroke-linecap:round;fill:rgb(179,177,178);" />
<text x="491.0" y="1649.4" font-size="46.8px" font-family="CMUBright-Roman" style="text-anchor:middle;fill:rgb(0,0,0);" transform="rotate(81.6,491.0,1649.4)" >HistomissSECH102<tspan baseline-shift="-40%" font-size="90%">6</tspan></text>
<line x1='1204.2' y1='810.8' x2='1199.5' y2='799.8' style="stroke-width:8.0;stroke:rgb(150,150,150);stroke-linecap:round;fill:none;" />
<line x1='1116.0' y1='855.7' x2='1109.9' y2='845.4' style="stroke-width:8.0;stroke:rgb(150,150,150);stroke-linecap:round;fill:none;" />
<line x1='1034.5' y1='911.9' x2='1027.1' y2='902.5' style="stroke-width:8.0;stroke:rgb(150,150,150);stroke-linecap:round;fill:none;" />
<line x1='961.1' y1='978.4' x2='952.5' y2='970.0' style="stroke-width:8.0;stroke:rgb(150,150,150);stroke-linecap:round;fill:none;" />
<text x="934.2" y="971.8" font-size="41.6px" font-family="CMUBright-Roman" style="text-anchor:end;fill:rgb(150,150,150);" transform="rotate(44.1,934.2,971.8)" >1500 kb</text>
<line x1='897.1' y1='1053.9' x2='887.5' y2='1046.7' style="stroke-width:8.0;stroke:rgb(150,150,150);stroke-linecap:round;fill:none;" />
<line x1='843.6' y1='1137.2' x2='833.1' y2='1131.3' style="stroke-width:8.0;stroke:rgb(150,150,150);stroke-linecap:round;fill:none;" />
<line x1='801.5' y1='1226.8' x2='790.4' y2='1222.4' style="stroke-width:8.0;stroke:rgb(150,150,150);stroke-linecap:round;fill:none;" />
<line x1='771.6' y1='1321.1' x2='760.0' y2='1318.3' style="stroke-width:8.0;stroke:rgb(150,150,150);stroke-linecap:round;fill:none;" />
<line x1='754.4' y1='1418.6' x2='742.5' y2='1417.3' style="stroke-width:8.0;stroke:rgb(150,150,150);stroke-linecap:round;fill:none;" />
<text x="729.2" y="1429.9" font-size="41.6px" font-family="CMUBright-Roman" style="text-anchor:end;fill:rgb(150,150,150);" transform="rotate(6.2,729.2,1429.9)" >1550 kb</text>
<line x1='750.2' y1='1517.5' x2='738.2' y2='1517.8' style="stroke-width:8.0;stroke:rgb(150,150,150);stroke-linecap:round;fill:none;" />
<line x1='759.0' y1='1616.1' x2='747.2' y2='1618.0' style="stroke-width:8.0;stroke:rgb(150,150,150);stroke-linecap:round;fill:none;" />
<line x1='780.8' y1='1712.7' x2='769.3' y2='1716.1' style="stroke-width:8.0;stroke:rgb(150,150,150);stroke-linecap:round;fill:none;" />
<line x1='815.1' y1='1805.5' x2='804.1' y2='1810.4' style="stroke-width:8.0;stroke:rgb(150,150,150);stroke-linecap:round;fill:none;" />
<line x1='861.3' y1='1893.1' x2='851.0' y2='1899.4' style="stroke-width:8.0;stroke:rgb(150,150,150);stroke-linecap:round;fill:none;" />
<text x="848.3" y="1917.5" font-size="41.6px" font-family="CMUBright-Roman" style="text-anchor:end;fill:rgb(150,150,150);" transform="rotate(-31.6,848.3,1917.5)" >1600 kb</text>
<line x1='918.6' y1='1973.8' x2='909.3' y2='1981.4' style="stroke-width:8.0;stroke:rgb(150,150,150);stroke-linecap:round;fill:none;" />
<line x1='986.1' y1='2046.2' x2='977.8' y2='2055.0' style="stroke-width:8.0;stroke:rgb(150,150,150);stroke-linecap:round;fill:none;" />
<line x1='1062.5' y1='2109.2' x2='1055.5' y2='2118.9' style="stroke-width:8.0;stroke:rgb(150,150,150);stroke-linecap:round;fill:none;" />
<line x1='1146.5' y1='2161.5' x2='1140.9' y2='2172.1' style="stroke-width:8.0;stroke:rgb(150,150,150);stroke-linecap:round;fill:none;" />
<line x1='1236.7' y1='2202.3' x2='1232.5' y2='2213.5' style="stroke-width:8.0;stroke:rgb(150,150,150);stroke-linecap:round;fill:none;" />
<text x="1241.4" y="2229.5" font-size="41.6px" font-family="CMUBright-Roman" style="text-anchor:end;fill:rgb(150,150,150);" transform="rotate(-69.4,1241.4,2229.5)" >1650 kb</text>
<line x1='1331.5' y1='2230.8' x2='1328.8' y2='2242.5' style="stroke-width:8.0;stroke:rgb(150,150,150);stroke-linecap:round;fill:none;" />
<path d="M1443.887,2047.130 A550.000,550.000 40.000 0,1 1287.719,992.618 L1210.526,808.115 A750.000,750.000 0.000 0,0 1423.483,2246.087 Z" style="stroke-width:2.0;stroke:rgb(0,0,0);stroke-linecap:round;fill:none;" />
</g>
<g id="track_0">
<path d="M 2005.159,1633.494 A 522.500,522.500 0.00 0,1 1983.4,1698.4 L 1983.4,1698.4 1963.2,1690.4 1942.7,1682.9 1922.1,1675.9 1901.2,1669.5 1880.3,1663.8 1859.4,1658.9 1838.4,1654.7 1817.6,1651.4 1796.9,1649.0 1776.3,1647.5 1756.0,1646.9 1736.0,1647.4 1716.3,1648.8 1697.0,1651.3 1678.1,1654.8 1659.6,1659.4 1641.6,1665.0 1624.1,1671.7 1607.1,1679.5 1590.6,1688.3 1574.8,1698.2 1559.5,1709.1 1544.9,1721.0 1530.9,1733.9 1517.5,1747.8 1504.8,1762.5 1492.7,1778.2 1481.3,1794.6 1470.6,1811.8 1460.5,1829.8 1451.1,1848.4 1442.4,1867.6 1434.3,1887.4 1426.8,1907.6 1420.0,1928.2 1413.8,1949.1 1408.2,1970.2 1403.2,1991.4 1398.8,2012.6  A 522.500,522.500 0.00 0,1 1332.8,1995.0 L 1332.8,1995.0 1340.2,1974.0 1348.1,1952.9 1356.7,1932.0 1365.9,1911.3 1375.6,1890.9 1386.0,1870.8 1397.0,1851.1 1408.7,1831.9 1420.9,1813.3 1433.8,1795.2 1447.3,1777.7 1461.5,1760.9 1476.3,1744.9 1491.6,1729.6 1507.6,1715.2 1524.1,1701.5 1541.3,1688.7 1558.9,1676.8 1577.1,1665.9 1595.8,1655.8 1615.0,1646.7 1634.7,1638.5 1654.8,1631.3 1675.3,1625.0 1696.2,1619.6 1717.4,1615.2 1738.9,1611.8 1760.7,1609.2 1782.7,1607.6 1804.9,1606.8 1827.3,1606.9 1849.7,1607.7 1872.2,1609.4 1894.7,1611.8 1917.1,1614.9 1939.4,1618.7 1961.6,1623.1 1983.5,1628.0 2005.2,1633.5  Z" style="stroke-width: 0.5;  stroke: rgb(0,0,0); fill: rgb(179,177,178);" />
<path d="M 1500.000,977.500 A 522.500,522.500 0.00 0,1 1541.3,979.1 L 1541.3,979.1 1539.5,999.6 1537.4,1019.9 1534.8,1040.0 1531.9,1059.8 1528.5,1079.1 1524.8,1097.7 1520.5,1115.7 1515.9,1132.9 1510.8,1149.3 1505.2,1164.7 1499.1,1179.0 1492.6,1192.3 1485.6,1204.4 1478.2,1215.2 1470.3,1224.9 1462.0,1233.2 1453.2,1240.2 1444.0,1245.8 1434.3,1250.0 1424.3,1252.9 1413.9,1254.3 1403.1,1254.4 1391.9,1253.1 1380.4,1250.4 1368.7,1246.4 1356.6,1241.1 1344.3,1234.4 1331.8,1226.6 1319.1,1217.6 1306.3,1207.4 1293.3,1196.2 1280.3,1184.1 1267.2,1171.0 1254.2,1157.1 1241.2,1142.5 1228.3,1127.2 1215.6,1111.4 1203.0,1095.3 1190.7,1078.8  A 522.500,522.500 0.00 0,1 1225.7,1055.3 L 1225.7,1055.3 1236.5,1072.5 1247.5,1089.5 1258.6,1106.2 1269.9,1122.3 1281.2,1137.8 1292.5,1152.6 1303.7,1166.6 1314.9,1179.7 1326.0,1191.8 1336.9,1202.8 1347.7,1212.7 1358.2,1221.4 1368.4,1228.9 1378.4,1235.1 1388.1,1239.9 1397.5,1243.3 1406.5,1245.3 1415.2,1246.0 1423.5,1245.2 1431.4,1242.9 1438.8,1239.3 1445.9,1234.2 1452.5,1227.7 1458.6,1219.9 1464.4,1210.7 1469.7,1200.2 1474.5,1188.5 1478.9,1175.5 1482.8,1161.5 1486.3,1146.3 1489.4,1130.2 1492.0,1113.2 1494.3,1095.4 1496.1,1076.9 1497.6,1057.7 1498.7,1038.1 1499.4,1018.1 1499.9,997.8 1500.0,977.5  Z" style="stroke-width: 0.5;  stroke: rgb(0,0,0); fill: rgb(179,177,178);" />
<path d="M 2000.442,1349.786 A 522.500,522.500 0.00 0,1 2008.9,1381.4 L 2008.9,1381.4 1983.1,1387.4 1957.3,1393.3 1931.5,1399.2 1905.5,1405.0 1879.5,1410.7 1853.5,1416.4 1827.4,1422.0 1801.2,1427.5 1775.0,1432.9 1748.7,1438.3 1722.4,1443.6 1696.1,1448.8 1669.7,1454.0 1643.3,1459.0 1616.8,1464.0 1590.4,1468.8 1563.9,1473.6 1537.3,1478.3 1510.8,1482.9 1484.2,1487.4 1457.6,1491.8 1431.0,1496.1 1404.4,1500.4 1377.8,1504.5 1351.2,1508.5 1324.6,1512.5 1298.0,1516.3 1271.4,1520.1 1244.8,1523.8 1218.3,1527.3 1191.7,1530.8 1165.2,1534.2 1138.7,1537.6 1112.2,1540.8 1085.8,1544.0 1059.4,1547.0 1033.1,1550.0 1006.8,1553.0 980.5,1555.8  A 522.500,522.500 0.00 0,1 978.0,1523.5 L 978.0,1523.5 1004.0,1522.3 1030.1,1520.9 1056.3,1519.4 1082.6,1517.7 1108.9,1515.9 1135.3,1513.9 1161.8,1511.8 1188.3,1509.5 1214.9,1507.0 1241.5,1504.3 1268.1,1501.5 1294.8,1498.5 1321.5,1495.3 1348.2,1491.9 1374.9,1488.3 1401.6,1484.5 1428.2,1480.5 1454.9,1476.4 1481.6,1472.1 1508.2,1467.5 1534.8,1462.8 1561.3,1457.9 1587.8,1452.9 1614.2,1447.6 1640.6,1442.2 1666.9,1436.5 1693.2,1430.8 1719.3,1424.8 1745.4,1418.7 1771.4,1412.4 1797.3,1406.0 1823.1,1399.4 1848.8,1392.7 1874.4,1385.8 1899.9,1378.9 1925.2,1371.7 1950.4,1364.5 1975.5,1357.2 2000.4,1349.8  Z" style="stroke-width: 0.5;  stroke: rgb(0,0,0); fill: rgb(179,177,178);" />
<path d="M 1975.814,1715.887 A 522.500,522.500 0.00 0,1 1962.4,1743.3 L 1962.4,1743.3 1943.4,1733.6 1924.2,1724.4 1904.7,1715.6 1885.1,1707.5 1865.5,1700.1 1845.8,1693.4 1826.2,1687.4 1806.8,1682.4 1787.4,1678.3 1768.4,1675.1 1749.5,1672.9 1731.0,1671.8 1712.9,1671.8 1695.2,1672.8 1677.9,1674.9 1661.1,1678.2 1644.8,1682.6 1629.0,1688.2 1613.8,1694.8 1599.2,1702.7 1585.3,1711.6 1571.9,1721.7 1559.2,1732.8 1547.2,1745.0 1535.9,1758.2 1525.2,1772.4 1515.2,1787.5 1505.9,1803.6 1497.3,1820.4 1489.3,1838.1 1482.1,1856.4 1475.5,1875.5 1469.6,1895.1 1464.3,1915.1 1459.6,1935.6 1455.5,1956.4 1452.1,1977.5 1449.1,1998.6 1446.7,2019.8  A 522.500,522.500 0.00 0,1 1417.0,2015.9 L 1417.0,2015.9 1420.7,1994.6 1424.9,1973.4 1429.7,1952.3 1435.1,1931.5 1441.1,1910.9 1447.7,1890.7 1454.9,1871.0 1462.9,1851.9 1471.5,1833.3 1480.7,1815.5 1490.6,1798.4 1501.3,1782.0 1512.5,1766.6 1524.5,1752.0 1537.1,1738.4 1550.4,1725.8 1564.3,1714.2 1578.9,1703.6 1594.0,1694.0 1609.8,1685.6 1626.1,1678.2 1643.0,1671.9 1660.3,1666.8 1678.2,1662.7 1696.5,1659.7 1715.3,1657.8 1734.4,1656.9 1753.8,1657.1 1773.6,1658.2 1793.6,1660.4 1813.8,1663.5 1834.1,1667.5 1854.6,1672.3 1875.0,1677.9 1895.5,1684.3 1915.9,1691.4 1936.1,1699.0 1956.1,1707.2 1975.8,1715.9  Z" style="stroke-width: 0.5;  stroke: rgb(0,0,0); fill: rgb(179,177,178);" />
<path d="M 1954.285,1241.869 A 522.500,522.500 0.00 0,1 1963.3,1258.5 L 1963.3,1258.5 1941.2,1269.8 1918.7,1281.0 1895.9,1292.0 1872.9,1302.7 1849.5,1313.2 1825.9,1323.4 1802.0,1333.3 1777.9,1342.9 1753.5,1352.1 1728.9,1360.9 1704.1,1369.4 1679.1,1377.6 1653.9,1385.3 1628.6,1392.6 1603.1,1399.4 1577.4,1405.9 1551.6,1411.9 1525.7,1417.5 1499.7,1422.6 1473.5,1427.2 1447.4,1431.4 1421.1,1435.2 1394.8,1438.5 1368.5,1441.3 1342.2,1443.7 1315.9,1445.6 1289.6,1447.1 1263.3,1448.1 1237.1,1448.7 1210.9,1448.9 1184.9,1448.7 1158.9,1448.1 1133.1,1447.1 1107.4,1445.7 1081.9,1443.9 1056.5,1441.8 1031.4,1439.4 1006.4,1436.7 981.7,1433.7  A 522.500,522.500 0.00 0,1 984.5,1415.0 L 984.5,1415.0 1008.8,1418.8 1033.5,1422.4 1058.3,1425.6 1083.4,1428.4 1108.7,1430.9 1134.1,1433.0 1159.7,1434.7 1185.5,1435.9 1211.3,1436.8 1237.3,1437.1 1263.3,1437.0 1289.4,1436.4 1315.5,1435.3 1341.6,1433.7 1367.8,1431.6 1393.9,1429.1 1420.0,1426.0 1446.1,1422.4 1472.0,1418.2 1497.9,1413.6 1523.8,1408.5 1549.4,1402.9 1575.0,1396.7 1600.4,1390.1 1625.7,1383.0 1650.7,1375.5 1675.6,1367.4 1700.3,1359.0 1724.8,1350.1 1749.0,1340.8 1773.0,1331.1 1796.7,1321.0 1820.1,1310.6 1843.3,1299.8 1866.1,1288.7 1888.7,1277.4 1910.9,1265.8 1932.8,1253.9 1954.3,1241.9  Z" style="stroke-width: 0.5;  stroke: rgb(0,0,0); fill: rgb(179,177,178);" />
<path d="M 1777.095,1057.027 A 522.500,522.500 0.00 0,1 1791.3,1066.2 L 1791.3,1066.2 1778.6,1084.7 1765.3,1103.0 1751.5,1121.0 1737.1,1138.7 1722.3,1156.0 1706.9,1172.8 1691.0,1189.1 1674.6,1204.8 1657.8,1219.8 1640.5,1234.2 1622.7,1247.7 1604.5,1260.5 1585.9,1272.4 1566.9,1283.5 1547.5,1293.7 1527.7,1302.9 1507.6,1311.2 1487.2,1318.5 1466.5,1324.9 1445.6,1330.2 1424.4,1334.6 1402.9,1337.9 1381.3,1340.2 1359.6,1341.6 1337.7,1341.9 1315.7,1341.3 1293.6,1339.7 1271.5,1337.2 1249.4,1333.8 1227.4,1329.5 1205.4,1324.4 1183.5,1318.5 1161.8,1311.8 1140.2,1304.4 1118.9,1296.3 1097.8,1287.6 1077.1,1278.4 1056.7,1268.7 1036.6,1258.5  A 522.500,522.500 0.00 0,1 1044.7,1243.7 L 1044.7,1243.7 1064.2,1254.4 1084.1,1264.7 1104.4,1274.5 1125.0,1283.7 1145.9,1292.3 1166.9,1300.3 1188.2,1307.5 1209.6,1313.9 1231.1,1319.5 1252.7,1324.3 1274.3,1328.1 1295.9,1331.0 1317.5,1333.0 1338.9,1334.0 1360.3,1333.9 1381.6,1332.9 1402.6,1330.8 1423.5,1327.7 1444.1,1323.5 1464.5,1318.3 1484.7,1312.1 1504.5,1304.8 1524.0,1296.6 1543.1,1287.3 1561.9,1277.1 1580.3,1266.0 1598.3,1254.0 1615.9,1241.1 1633.0,1227.3 1649.7,1212.8 1665.9,1197.6 1681.6,1181.7 1696.8,1165.2 1711.5,1148.1 1725.7,1130.6 1739.4,1112.6 1752.5,1094.3 1765.1,1075.8 1777.1,1057.0  Z" style="stroke-width: 0.5;  stroke: rgb(0,0,0); fill: rgb(179,177,178);" />
<path d="M 1982.426,1700.678 A 522.500,522.500 0.00 0,1 1975.8,1715.9 L 1975.8,1715.9 1956.1,1707.2 1936.1,1699.0 1915.9,1691.3 1895.5,1684.3 1875.0,1677.9 1854.5,1672.3 1834.1,1667.5 1813.7,1663.5 1793.5,1660.4 1773.5,1658.2 1753.7,1657.0 1734.3,1656.9 1715.1,1657.7 1696.4,1659.7 1678.0,1662.6 1660.1,1666.7 1642.7,1671.9 1625.8,1678.2 1609.5,1685.5 1593.7,1694.0 1578.5,1703.5 1564.0,1714.1 1550.0,1725.7 1536.7,1738.3 1524.0,1751.9 1512.0,1766.5 1500.7,1781.9 1490.1,1798.2 1480.1,1815.3 1470.8,1833.2 1462.2,1851.7 1454.2,1870.9 1446.9,1890.6 1440.2,1910.8 1434.2,1931.3 1428.7,1952.2 1423.9,1973.3 1419.7,1994.5 1415.9,2015.7  A 522.500,522.500 0.00 0,1 1399.5,2012.7 L 1399.5,2012.7 1403.9,1991.5 1408.9,1970.3 1414.4,1949.2 1420.6,1928.3 1427.4,1907.8 1434.8,1887.6 1442.8,1867.8 1451.5,1848.6 1460.9,1830.0 1470.9,1812.1 1481.6,1794.9 1492.9,1778.5 1505.0,1762.9 1517.7,1748.2 1531.0,1734.4 1545.0,1721.5 1559.6,1709.7 1574.8,1698.8 1590.6,1689.0 1607.0,1680.2 1624.0,1672.5 1641.4,1665.9 1659.4,1660.3 1677.9,1655.8 1696.7,1652.3 1716.0,1649.9 1735.7,1648.6 1755.6,1648.2 1775.9,1648.9 1796.3,1650.5 1817.0,1653.0 1837.8,1656.4 1858.7,1660.6 1879.6,1665.7 1900.5,1671.5 1921.3,1677.9 1941.9,1685.0 1962.3,1692.6 1982.4,1700.7  Z" style="stroke-width: 0.5;  stroke: rgb(0,0,0); fill: rgb(179,177,178);" />
<path d="M 1691.449,1013.838 A 522.500,522.500 0.00 0,1 1706.7,1020.1 L 1706.7,1020.1 1697.9,1039.8 1688.6,1059.4 1678.8,1078.7 1668.4,1097.7 1657.5,1116.2 1646.1,1134.2 1634.2,1151.6 1621.8,1168.3 1608.9,1184.3 1595.5,1199.4 1581.6,1213.7 1567.2,1227.0 1552.4,1239.3 1537.2,1250.7 1521.5,1260.9 1505.4,1270.1 1489.0,1278.1 1472.2,1285.0 1455.0,1290.7 1437.5,1295.2 1419.7,1298.6 1401.7,1300.8 1383.4,1301.8 1364.9,1301.6 1346.2,1300.2 1327.4,1297.8 1308.4,1294.2 1289.4,1289.5 1270.3,1283.8 1251.3,1277.1 1232.2,1269.5 1213.2,1260.9 1194.4,1251.5 1175.7,1241.3 1157.1,1230.4 1138.9,1218.9 1120.9,1206.8 1103.2,1194.2 1086.0,1181.2  A 522.500,522.500 0.00 0,1 1096.2,1168.4 L 1096.2,1168.4 1113.0,1181.8 1130.1,1194.8 1147.5,1207.4 1165.2,1219.4 1183.2,1230.8 1201.4,1241.4 1219.7,1251.3 1238.1,1260.3 1256.5,1268.4 1275.0,1275.5 1293.5,1281.6 1311.9,1286.7 1330.2,1290.6 1348.4,1293.4 1366.5,1295.1 1384.3,1295.5 1401.9,1294.8 1419.3,1292.8 1436.4,1289.7 1453.2,1285.3 1469.7,1279.8 1485.8,1273.0 1501.6,1265.1 1517.0,1256.0 1531.9,1245.8 1546.5,1234.5 1560.6,1222.1 1574.2,1208.7 1587.4,1194.4 1600.0,1179.2 1612.2,1163.1 1623.9,1146.3 1635.1,1128.8 1645.8,1110.7 1656.0,1092.0 1665.6,1072.9 1674.7,1053.4 1683.4,1033.7 1691.4,1013.8  Z" style="stroke-width: 0.5;  stroke: rgb(0,0,0); fill: rgb(179,177,178);" />
<path d="M 1763.231,1048.651 A 522.500,522.500 0.00 0,1 1777.1,1057.0 L 1777.1,1057.0 1765.1,1075.8 1752.5,1094.3 1739.4,1112.6 1725.7,1130.6 1711.5,1148.1 1696.8,1165.2 1681.6,1181.7 1665.9,1197.6 1649.7,1212.8 1633.0,1227.3 1615.9,1241.0 1598.4,1253.9 1580.4,1265.9 1562.0,1277.0 1543.2,1287.2 1524.1,1296.4 1504.6,1304.6 1484.8,1311.8 1464.7,1318.1 1444.3,1323.2 1423.6,1327.4 1402.8,1330.5 1381.7,1332.5 1360.5,1333.5 1339.1,1333.6 1317.7,1332.6 1296.1,1330.6 1274.6,1327.6 1253.0,1323.7 1231.4,1319.0 1209.9,1313.3 1188.6,1306.8 1167.3,1299.6 1146.3,1291.6 1125.4,1282.9 1104.9,1273.7 1084.6,1263.8 1064.7,1253.5 1045.2,1242.8  A 522.500,522.500 0.00 0,1 1053.4,1228.9 L 1053.4,1228.9 1072.4,1240.1 1091.8,1250.9 1111.6,1261.3 1131.7,1271.1 1152.1,1280.3 1172.7,1288.7 1193.4,1296.5 1214.3,1303.4 1235.3,1309.5 1256.4,1314.8 1277.5,1319.1 1298.6,1322.4 1319.6,1324.7 1340.5,1326.1 1361.4,1326.4 1382.1,1325.6 1402.6,1323.8 1422.9,1320.9 1443.0,1316.9 1462.8,1311.9 1482.3,1305.8 1501.6,1298.7 1520.5,1290.5 1539.0,1281.3 1557.2,1271.1 1575.0,1259.9 1592.3,1247.8 1609.3,1234.8 1625.7,1221.0 1641.8,1206.4 1657.3,1191.0 1672.4,1174.9 1686.9,1158.2 1701.0,1140.9 1714.5,1123.1 1727.5,1104.9 1740.0,1086.4 1751.9,1067.6 1763.2,1048.7  Z" style="stroke-width: 0.5;  stroke: rgb(0,0,0); fill: rgb(179,177,178);" />
<path d="M 1744.138,1038.045 A 522.500,522.500 0.00 0,1 1757.1,1045.2 L 1757.1,1045.2 1746.1,1064.2 1734.5,1083.1 1722.3,1101.7 1709.6,1120.0 1696.4,1137.8 1682.6,1155.2 1668.4,1171.9 1653.6,1188.1 1638.4,1203.5 1622.7,1218.1 1606.5,1232.0 1589.8,1245.0 1572.8,1257.1 1555.3,1268.2 1537.4,1278.3 1519.2,1287.5 1500.6,1295.6 1481.6,1302.6 1462.4,1308.6 1442.9,1313.5 1423.1,1317.3 1403.0,1320.0 1382.8,1321.7 1362.4,1322.2 1341.9,1321.7 1321.2,1320.1 1300.5,1317.5 1279.7,1313.9 1258.9,1309.4 1238.1,1303.9 1217.4,1297.4 1196.7,1290.2 1176.3,1282.1 1156.0,1273.3 1135.9,1263.8 1116.1,1253.7 1096.6,1243.0 1077.4,1231.9 1058.7,1220.3  A 522.500,522.500 0.00 0,1 1066.8,1207.9 L 1066.8,1207.9 1085.1,1219.9 1103.8,1231.5 1122.8,1242.7 1142.2,1253.3 1161.8,1263.2 1181.7,1272.5 1201.7,1281.0 1221.8,1288.6 1242.1,1295.5 1262.4,1301.4 1282.7,1306.3 1303.0,1310.3 1323.2,1313.2 1343.4,1315.1 1363.4,1315.8 1383.3,1315.5 1403.0,1314.1 1422.5,1311.6 1441.8,1308.0 1460.7,1303.2 1479.4,1297.3 1497.8,1290.4 1515.8,1282.3 1533.5,1273.2 1550.8,1263.0 1567.7,1251.9 1584.2,1239.8 1600.2,1226.7 1615.8,1212.7 1630.9,1198.0 1645.5,1182.4 1659.7,1166.1 1673.3,1149.2 1686.4,1131.7 1699.0,1113.6 1711.1,1095.2 1722.7,1076.3 1733.7,1057.3 1744.1,1038.0  Z" style="stroke-width: 0.5;  stroke: rgb(0,0,0); fill: rgb(179,177,178);" />
<path d="M 1913.618,1180.741 A 522.500,522.500 0.00 0,1 1922.2,1192.2 L 1922.2,1192.2 1902.6,1206.3 1882.6,1220.1 1862.2,1233.6 1841.4,1246.9 1820.2,1259.9 1798.6,1272.4 1776.7,1284.6 1754.4,1296.4 1731.8,1307.7 1708.9,1318.5 1685.7,1328.8 1662.2,1338.5 1638.4,1347.8 1614.4,1356.4 1590.2,1364.5 1565.8,1372.0 1541.2,1378.8 1516.3,1385.1 1491.4,1390.7 1466.3,1395.6 1441.1,1400.0 1415.8,1403.7 1390.4,1406.7 1364.9,1409.1 1339.5,1410.9 1314.0,1412.0 1288.5,1412.6 1263.1,1412.5 1237.7,1411.8 1212.4,1410.6 1187.2,1408.7 1162.1,1406.4 1137.2,1403.5 1112.4,1400.0 1087.9,1396.2 1063.6,1391.8 1039.6,1387.1 1015.8,1381.9 992.3,1376.4  A 522.500,522.500 0.00 0,1 995.9,1362.5 L 995.9,1362.5 1019.1,1368.6 1042.5,1374.3 1066.3,1379.7 1090.3,1384.5 1114.6,1389.0 1139.1,1392.9 1163.7,1396.3 1188.6,1399.1 1213.5,1401.4 1238.6,1403.0 1263.8,1404.1 1289.0,1404.5 1314.2,1404.3 1339.5,1403.4 1364.7,1401.9 1389.9,1399.7 1415.1,1396.8 1440.1,1393.2 1465.1,1389.0 1489.9,1384.0 1514.6,1378.5 1539.2,1372.2 1563.5,1365.3 1587.7,1357.7 1611.6,1349.5 1635.3,1340.7 1658.7,1331.3 1681.8,1321.3 1704.7,1310.7 1727.2,1299.6 1749.4,1288.0 1771.3,1275.9 1792.8,1263.4 1814.0,1250.4 1834.7,1237.1 1855.1,1223.4 1875.0,1209.4 1894.5,1195.2 1913.6,1180.7  Z" style="stroke-width: 0.5;  stroke: rgb(0,0,0); fill: rgb(179,177,178);" />
<path d="M 2021.992,1476.955 A 522.500,522.500 0.00 0,1 2022.4,1491.2 L 2022.4,1491.2 1996.1,1491.7 1969.8,1492.3 1943.3,1493.0 1916.8,1493.7 1890.3,1494.6 1863.7,1495.5 1837.1,1496.6 1810.4,1497.7 1783.6,1499.0 1756.9,1500.4 1730.1,1501.9 1703.3,1503.5 1676.5,1505.3 1649.6,1507.1 1622.8,1509.1 1595.9,1511.2 1569.0,1513.4 1542.2,1515.8 1515.3,1518.2 1488.5,1520.8 1461.6,1523.5 1434.8,1526.4 1408.0,1529.3 1381.2,1532.4 1354.5,1535.6 1327.8,1538.9 1301.1,1542.3 1274.5,1545.8 1247.9,1549.5 1221.4,1553.2 1194.9,1557.0 1168.5,1561.0 1142.1,1565.0 1115.8,1569.2 1089.6,1573.4 1063.5,1577.7 1037.4,1582.1 1011.4,1586.6 985.5,1591.2  A 522.500,522.500 0.00 0,1 983.2,1576.9 L 983.2,1576.9 1009.4,1573.0 1035.6,1569.2 1061.9,1565.5 1088.3,1561.7 1114.7,1558.1 1141.1,1554.5 1167.6,1550.9 1194.1,1547.5 1220.7,1544.1 1247.3,1540.7 1273.9,1537.5 1300.6,1534.3 1327.3,1531.1 1354.0,1528.1 1380.7,1525.1 1407.5,1522.2 1434.2,1519.4 1461.0,1516.7 1487.8,1514.0 1514.6,1511.4 1541.4,1508.9 1568.3,1506.5 1595.1,1504.2 1621.9,1501.9 1648.7,1499.7 1675.5,1497.6 1702.3,1495.6 1729.1,1493.7 1755.9,1491.8 1782.6,1490.0 1809.3,1488.3 1836.0,1486.6 1862.7,1485.0 1889.3,1483.5 1915.9,1482.1 1942.5,1480.7 1969.1,1479.4 1995.5,1478.1 2022.0,1477.0  Z" style="stroke-width: 0.5;  stroke: rgb(0,0,0); fill: rgb(179,177,178);" />
<path d="M 2022.436,1508.197 A 522.500,522.500 0.00 0,1 2022.0,1522.3 L 2022.0,1522.3 1996.1,1521.3 1970.1,1520.4 1944.0,1519.7 1917.7,1519.1 1891.4,1518.7 1864.9,1518.4 1838.4,1518.4 1811.8,1518.5 1785.2,1518.8 1758.5,1519.3 1731.7,1520.0 1704.9,1520.9 1678.1,1522.1 1651.2,1523.4 1624.3,1524.9 1597.5,1526.7 1570.6,1528.6 1543.7,1530.8 1516.8,1533.2 1489.9,1535.8 1463.1,1538.6 1436.2,1541.6 1409.5,1544.8 1382.7,1548.3 1356.1,1551.9 1329.4,1555.8 1302.9,1559.8 1276.4,1564.1 1250.0,1568.5 1223.7,1573.1 1197.5,1577.9 1171.4,1582.9 1145.4,1588.0 1119.5,1593.3 1093.7,1598.8 1068.0,1604.4 1042.5,1610.1 1017.2,1616.0 991.9,1622.0  A 522.500,522.500 0.00 0,1 988.8,1608.1 L 988.8,1608.1 1014.3,1602.8 1040.0,1597.5 1065.8,1592.4 1091.7,1587.3 1117.7,1582.4 1143.7,1577.7 1169.9,1573.0 1196.2,1568.5 1222.5,1564.1 1248.9,1559.9 1275.4,1555.8 1302.0,1551.9 1328.6,1548.1 1355.3,1544.5 1382.0,1541.1 1408.8,1537.8 1435.6,1534.7 1462.4,1531.8 1489.2,1529.0 1516.1,1526.4 1543.0,1524.0 1569.9,1521.7 1596.8,1519.6 1623.7,1517.7 1650.6,1516.0 1677.4,1514.4 1704.3,1513.0 1731.1,1511.8 1757.9,1510.7 1784.6,1509.8 1811.3,1509.0 1838.0,1508.4 1864.5,1508.0 1891.1,1507.7 1917.5,1507.5 1943.9,1507.5 1970.2,1507.6 1996.3,1507.8 2022.4,1508.2  Z" style="stroke-width: 0.5;  stroke: rgb(0,0,0); fill: rgb(179,177,178);" />
<path d="M 1893.378,1156.111 A 522.500,522.500 0.00 0,1 1902.0,1166.3 L 1902.0,1166.3 1883.7,1181.2 1864.8,1196.0 1845.5,1210.5 1825.8,1224.6 1805.6,1238.4 1785.1,1251.8 1764.1,1264.8 1742.8,1277.3 1721.1,1289.2 1699.1,1300.7 1676.7,1311.5 1654.1,1321.8 1631.1,1331.4 1607.9,1340.4 1584.4,1348.7 1560.6,1356.3 1536.7,1363.2 1512.6,1369.5 1488.3,1375.0 1463.8,1379.8 1439.2,1383.8 1414.5,1387.1 1389.7,1389.7 1364.9,1391.6 1340.0,1392.8 1315.1,1393.2 1290.2,1392.9 1265.3,1392.0 1240.5,1390.3 1215.8,1388.1 1191.2,1385.1 1166.7,1381.6 1142.4,1377.5 1118.4,1372.8 1094.5,1367.6 1070.9,1361.9 1047.6,1355.8 1024.5,1349.2 1001.9,1342.3  A 522.500,522.500 0.00 0,1 1006.1,1329.6 L 1006.1,1329.6 1028.4,1337.0 1051.1,1344.1 1074.1,1350.8 1097.5,1357.0 1121.0,1362.6 1144.9,1367.8 1168.9,1372.3 1193.1,1376.3 1217.4,1379.6 1241.9,1382.2 1266.4,1384.2 1291.0,1385.5 1315.6,1386.0 1340.3,1385.9 1364.9,1384.9 1389.5,1383.3 1414.0,1380.8 1438.4,1377.6 1462.8,1373.7 1486.9,1368.9 1510.9,1363.5 1534.8,1357.2 1558.4,1350.2 1581.8,1342.5 1605.0,1334.1 1627.9,1325.0 1650.5,1315.2 1672.8,1304.8 1694.8,1293.7 1716.4,1282.0 1737.7,1269.8 1758.7,1257.0 1779.2,1243.8 1799.3,1230.0 1819.0,1215.9 1838.3,1201.4 1857.1,1186.6 1875.5,1171.4 1893.4,1156.1  Z" style="stroke-width: 0.5;  stroke: rgb(0,0,0); fill: rgb(179,177,178);" />
<path d="M 2017.081,1575.060 A 522.500,522.500 0.00 0,1 2015.0,1587.9 L 2015.0,1587.9 1992.6,1584.4 1969.8,1581.3 1946.9,1578.8 1923.8,1576.8 1900.6,1575.5 1877.3,1574.9 1854.0,1575.0 1830.8,1575.8 1807.6,1577.4 1784.5,1579.8 1761.7,1583.0 1739.0,1587.0 1716.5,1591.9 1694.4,1597.6 1672.5,1604.1 1651.0,1611.5 1629.9,1619.8 1609.1,1629.0 1588.8,1639.0 1568.9,1649.8 1549.5,1661.5 1530.6,1674.0 1512.1,1687.3 1494.3,1701.4 1476.9,1716.3 1460.1,1731.8 1443.9,1748.1 1428.3,1765.0 1413.2,1782.5 1398.8,1800.6 1384.9,1819.2 1371.6,1838.3 1359.0,1857.9 1346.9,1877.8 1335.4,1898.0 1324.5,1918.5 1314.2,1939.1 1304.5,1959.9 1295.4,1980.8  A 522.500,522.500 0.00 0,1 1283.7,1975.6 L 1283.7,1975.6 1293.4,1954.9 1303.7,1934.2 1314.5,1913.7 1325.9,1893.3 1337.9,1873.2 1350.5,1853.4 1363.7,1833.9 1377.5,1814.9 1391.8,1796.3 1406.8,1778.2 1422.3,1760.7 1438.4,1743.8 1455.0,1727.6 1472.2,1712.0 1490.0,1697.1 1508.2,1682.9 1527.0,1669.5 1546.3,1656.9 1566.1,1645.0 1586.3,1634.0 1606.9,1623.8 1628.0,1614.4 1649.4,1605.8 1671.2,1598.1 1693.4,1591.2 1715.8,1585.2 1738.5,1579.9 1761.4,1575.5 1784.5,1571.9 1807.8,1569.1 1831.1,1567.1 1854.6,1565.8 1878.1,1565.2 1901.6,1565.3 1925.0,1566.1 1948.3,1567.5 1971.4,1569.5 1994.4,1572.0 2017.1,1575.1  Z" style="stroke-width: 0.5;  stroke: rgb(0,0,0); fill: rgb(179,177,178);" />
<path d="M 1995.477,1334.143 A 522.500,522.500 0.00 0,1 1999.1,1345.5 L 1999.1,1345.5 1974.4,1353.0 1949.5,1360.5 1924.5,1367.8 1899.3,1375.0 1874.0,1382.0 1848.5,1388.9 1822.9,1395.6 1797.2,1402.1 1771.3,1408.4 1745.3,1414.6 1719.3,1420.5 1693.1,1426.3 1666.8,1431.8 1640.5,1437.1 1614.1,1442.2 1587.6,1447.1 1561.0,1451.8 1534.4,1456.2 1507.8,1460.4 1481.1,1464.4 1454.3,1468.1 1427.6,1471.6 1400.8,1474.9 1374.1,1477.9 1347.3,1480.7 1320.5,1483.3 1293.8,1485.6 1267.1,1487.7 1240.4,1489.6 1213.8,1491.3 1187.2,1492.7 1160.7,1494.0 1134.2,1495.0 1107.9,1495.9 1081.6,1496.5 1055.4,1497.0 1029.3,1497.3 1003.3,1497.4 977.5,1497.3  A 522.500,522.500 0.00 0,1 977.7,1485.7 L 977.7,1485.7 1003.4,1486.3 1029.2,1486.7 1055.2,1487.0 1081.3,1487.0 1107.5,1486.8 1133.8,1486.4 1160.2,1485.8 1186.6,1484.9 1213.2,1483.8 1239.8,1482.5 1266.4,1480.9 1293.1,1479.1 1319.8,1476.9 1346.6,1474.6 1373.3,1471.9 1400.1,1469.0 1426.8,1465.9 1453.5,1462.4 1480.2,1458.7 1506.9,1454.8 1533.5,1450.5 1560.1,1446.0 1586.6,1441.3 1613.0,1436.3 1639.4,1431.0 1665.7,1425.5 1691.8,1419.7 1717.9,1413.7 1743.8,1407.4 1769.7,1401.0 1795.4,1394.3 1821.0,1387.4 1846.4,1380.3 1871.7,1373.0 1896.8,1365.6 1921.7,1357.9 1946.5,1350.2 1971.1,1342.2 1995.5,1334.1  Z" style="stroke-width: 0.5;  stroke: rgb(0,0,0); fill: rgb(179,177,178);" />
<path d="M 2011.552,1606.401 A 522.500,522.500 0.00 0,1 2009.2,1617.0 L 2009.2,1617.0 1987.3,1612.2 1965.0,1607.9 1942.6,1604.2 1920.0,1601.1 1897.2,1598.7 1874.4,1596.9 1851.7,1595.9 1828.9,1595.6 1806.3,1596.1 1783.7,1597.5 1761.4,1599.7 1739.3,1602.8 1717.4,1606.8 1695.8,1611.7 1674.6,1617.5 1653.7,1624.2 1633.2,1631.8 1613.2,1640.4 1593.5,1649.8 1574.4,1660.2 1555.8,1671.5 1537.6,1683.6 1520.1,1696.6 1503.0,1710.4 1486.6,1725.0 1470.7,1740.4 1455.4,1756.6 1440.8,1773.4 1426.7,1790.9 1413.2,1809.0 1400.4,1827.7 1388.2,1846.9 1376.6,1866.6 1365.6,1886.6 1355.3,1907.0 1345.5,1927.6 1336.4,1948.5 1327.8,1969.4 1319.8,1990.4  A 522.500,522.500 0.00 0,1 1309.8,1986.6 L 1309.8,1986.6 1318.2,1965.7 1327.3,1944.8 1336.9,1924.1 1347.1,1903.5 1357.9,1883.2 1369.3,1863.2 1381.4,1843.6 1394.0,1824.4 1407.3,1805.8 1421.1,1787.7 1435.6,1770.2 1450.7,1753.3 1466.3,1737.1 1482.6,1721.7 1499.4,1707.0 1516.8,1693.1 1534.7,1680.0 1553.2,1667.7 1572.1,1656.3 1591.6,1645.8 1611.5,1636.1 1631.8,1627.4 1652.6,1619.5 1673.7,1612.6 1695.2,1606.5 1717.0,1601.3 1739.1,1597.0 1761.5,1593.6 1784.1,1591.0 1806.8,1589.3 1829.7,1588.4 1852.6,1588.2 1875.6,1588.9 1898.6,1590.2 1921.5,1592.3 1944.3,1594.9 1967.0,1598.2 1989.4,1602.1 2011.6,1606.4  Z" style="stroke-width: 0.5;  stroke: rgb(0,0,0); fill: rgb(179,177,178);" />
<path d="M 2010.582,1389.040 A 522.500,522.500 0.00 0,1 2012.8,1399.6 L 2012.8,1399.6 1986.6,1404.7 1960.4,1409.8 1934.2,1414.8 1908.0,1419.9 1881.7,1424.9 1855.5,1429.9 1829.2,1434.9 1802.8,1439.8 1776.5,1444.7 1750.1,1449.6 1723.8,1454.4 1697.4,1459.3 1671.0,1464.0 1644.5,1468.8 1618.1,1473.5 1591.7,1478.2 1565.2,1482.8 1538.7,1487.4 1512.3,1492.0 1485.8,1496.6 1459.3,1501.1 1432.8,1505.5 1406.3,1510.0 1379.8,1514.4 1353.3,1518.7 1326.8,1523.1 1300.3,1527.3 1273.9,1531.6 1247.4,1535.8 1220.9,1540.0 1194.4,1544.1 1168.0,1548.3 1141.5,1552.3 1115.1,1556.4 1088.6,1560.4 1062.2,1564.4 1035.8,1568.4 1009.4,1572.3 983.1,1576.2  A 522.500,522.500 0.00 0,1 981.6,1565.7 L 981.6,1565.7 1008.0,1562.3 1034.3,1558.9 1060.7,1555.5 1087.1,1551.9 1113.5,1548.4 1140.0,1544.7 1166.4,1541.0 1192.9,1537.3 1219.4,1533.4 1246.0,1529.6 1272.5,1525.6 1299.0,1521.6 1325.6,1517.5 1352.2,1513.4 1378.7,1509.1 1405.3,1504.9 1431.8,1500.5 1458.4,1496.1 1484.9,1491.6 1511.4,1487.0 1537.9,1482.4 1564.4,1477.7 1590.9,1473.0 1617.4,1468.2 1643.8,1463.3 1670.3,1458.3 1696.6,1453.3 1723.0,1448.3 1749.3,1443.1 1775.6,1438.0 1801.9,1432.7 1828.1,1427.4 1854.3,1422.1 1880.5,1416.7 1906.6,1411.2 1932.7,1405.8 1958.7,1400.2 1984.7,1394.6 2010.6,1389.0  Z" style="stroke-width: 0.5;  stroke: rgb(0,0,0); fill: rgb(179,177,178);" />
<path d="M 1707.915,1020.649 A 522.500,522.500 0.00 0,1 1717.6,1025.0 L 1717.6,1025.0 1708.3,1044.5 1698.5,1064.0 1688.2,1083.2 1677.3,1102.0 1665.9,1120.5 1654.0,1138.3 1641.6,1155.6 1628.7,1172.3 1615.2,1188.1 1601.3,1203.2 1586.9,1217.4 1572.0,1230.7 1556.7,1243.0 1541.0,1254.4 1524.8,1264.6 1508.2,1273.8 1491.3,1281.9 1473.9,1288.9 1456.3,1294.7 1438.3,1299.4 1420.1,1302.9 1401.6,1305.2 1382.8,1306.4 1363.9,1306.4 1344.7,1305.3 1325.5,1303.1 1306.1,1299.8 1286.6,1295.4 1267.1,1290.0 1247.6,1283.6 1228.2,1276.2 1208.8,1268.0 1189.5,1258.9 1170.4,1249.1 1151.5,1238.5 1132.8,1227.4 1114.5,1215.6 1096.5,1203.4 1078.8,1190.8  A 522.500,522.500 0.00 0,1 1085.2,1182.3 L 1085.2,1182.3 1102.5,1195.2 1120.2,1207.8 1138.2,1219.8 1156.5,1231.3 1175.1,1242.2 1193.8,1252.3 1212.7,1261.7 1231.8,1270.2 1250.9,1277.8 1270.0,1284.5 1289.1,1290.2 1308.2,1294.8 1327.2,1298.4 1346.1,1300.8 1364.8,1302.1 1383.3,1302.3 1401.7,1301.3 1419.8,1299.1 1437.6,1295.7 1455.1,1291.1 1472.4,1285.4 1489.2,1278.5 1505.8,1270.5 1521.9,1261.3 1537.6,1251.1 1552.9,1239.8 1567.8,1227.4 1582.2,1214.1 1596.2,1199.8 1609.6,1184.7 1622.6,1168.7 1635.1,1152.0 1647.1,1134.7 1658.5,1116.7 1669.4,1098.2 1679.9,1079.2 1689.7,1059.9 1699.1,1040.3 1707.9,1020.6  Z" style="stroke-width: 0.5;  stroke: rgb(0,0,0); fill: rgb(179,177,178);" />
<path d="M 1682.065,1010.246 A 522.500,522.500 0.00 0,1 1691.8,1014.0 L 1691.8,1014.0 1683.7,1033.8 1675.0,1053.5 1665.9,1073.0 1656.2,1092.1 1646.1,1110.8 1635.4,1128.9 1624.2,1146.4 1612.5,1163.2 1600.3,1179.2 1587.6,1194.4 1574.4,1208.8 1560.8,1222.1 1546.7,1234.4 1532.1,1245.7 1517.2,1255.9 1501.8,1265.0 1486.0,1272.9 1469.9,1279.7 1453.4,1285.2 1436.6,1289.6 1419.5,1292.7 1402.2,1294.6 1384.5,1295.3 1366.7,1294.8 1348.7,1293.2 1330.5,1290.3 1312.2,1286.4 1293.8,1281.3 1275.3,1275.2 1256.8,1268.0 1238.4,1259.9 1220.0,1250.9 1201.7,1241.0 1183.6,1230.3 1165.6,1218.9 1147.9,1206.9 1130.5,1194.3 1113.4,1181.3 1096.7,1167.8  A 522.500,522.500 0.00 0,1 1103.3,1160.0 L 1103.3,1160.0 1119.7,1173.7 1136.4,1187.0 1153.5,1199.9 1170.9,1212.2 1188.5,1223.9 1206.2,1234.9 1224.2,1245.0 1242.2,1254.3 1260.3,1262.7 1278.3,1270.1 1296.4,1276.5 1314.4,1281.8 1332.3,1286.0 1350.1,1289.0 1367.7,1290.9 1385.2,1291.5 1402.4,1291.0 1419.3,1289.2 1436.0,1286.2 1452.3,1282.0 1468.4,1276.5 1484.0,1269.9 1499.3,1262.0 1514.3,1253.0 1528.8,1242.8 1542.8,1231.5 1556.5,1219.2 1569.7,1205.8 1582.4,1191.5 1594.6,1176.2 1606.3,1160.1 1617.6,1143.2 1628.3,1125.7 1638.6,1107.5 1648.3,1088.7 1657.5,1069.5 1666.2,1050.0 1674.4,1030.2 1682.1,1010.2  Z" style="stroke-width: 0.5;  stroke: rgb(0,0,0); fill: rgb(179,177,178);" />
<path d="M 1793.923,1068.010 A 522.500,522.500 0.00 0,1 1802.4,1073.9 L 1802.4,1073.9 1789.1,1092.1 1775.3,1110.2 1760.9,1128.0 1746.0,1145.5 1730.6,1162.5 1714.7,1179.2 1698.3,1195.2 1681.4,1210.7 1664.1,1225.6 1646.3,1239.8 1628.0,1253.2 1609.3,1265.9 1590.2,1277.7 1570.7,1288.7 1550.9,1298.9 1530.7,1308.1 1510.1,1316.4 1489.3,1323.8 1468.2,1330.2 1446.8,1335.6 1425.2,1340.1 1403.3,1343.6 1381.3,1346.1 1359.2,1347.7 1336.9,1348.2 1314.5,1347.9 1292.1,1346.6 1269.6,1344.4 1247.1,1341.4 1224.7,1337.4 1202.3,1332.7 1180.1,1327.1 1158.0,1320.9 1136.1,1313.9 1114.4,1306.2 1093.0,1298.0 1071.9,1289.2 1051.1,1280.0 1030.7,1270.3  A 522.500,522.500 0.00 0,1 1035.3,1261.0 L 1035.3,1261.0 1055.4,1271.1 1075.9,1280.7 1096.8,1289.8 1117.9,1298.4 1139.3,1306.4 1161.0,1313.7 1182.8,1320.3 1204.7,1326.2 1226.8,1331.2 1248.9,1335.4 1271.1,1338.8 1293.3,1341.2 1315.5,1342.7 1337.5,1343.3 1359.5,1342.9 1381.4,1341.5 1403.1,1339.1 1424.6,1335.8 1445.9,1331.4 1466.9,1326.1 1487.7,1319.7 1508.2,1312.4 1528.4,1304.1 1548.3,1294.9 1567.8,1284.7 1586.9,1273.6 1605.7,1261.7 1624.0,1249.0 1641.9,1235.5 1659.3,1221.2 1676.3,1206.2 1692.8,1190.5 1708.8,1174.3 1724.3,1157.5 1739.3,1140.3 1753.7,1122.7 1767.7,1104.7 1781.1,1086.4 1793.9,1068.0  Z" style="stroke-width: 0.5;  stroke: rgb(0,0,0); fill: rgb(179,177,178);" />
<path d="M 1940.071,1218.320 A 522.500,522.500 0.00 0,1 1945.5,1227.0 L 1945.5,1227.0 1924.5,1239.7 1903.1,1252.2 1881.3,1264.4 1859.2,1276.4 1836.8,1288.1 1814.0,1299.5 1791.0,1310.6 1767.7,1321.3 1744.0,1331.6 1720.2,1341.4 1696.0,1350.9 1671.7,1359.9 1647.1,1368.5 1622.3,1376.6 1597.3,1384.1 1572.1,1391.2 1546.8,1397.8 1521.3,1403.9 1495.7,1409.4 1470.0,1414.4 1444.2,1418.9 1418.3,1422.9 1392.3,1426.3 1366.3,1429.2 1340.3,1431.5 1314.3,1433.3 1288.3,1434.6 1262.3,1435.4 1236.4,1435.7 1210.6,1435.5 1184.8,1434.9 1159.2,1433.7 1133.6,1432.1 1108.3,1430.1 1083.1,1427.7 1058.1,1424.9 1033.4,1421.7 1008.8,1418.2 984.6,1414.3  A 522.500,522.500 0.00 0,1 986.4,1404.2 L 986.4,1404.2 1010.4,1408.5 1034.8,1412.5 1059.3,1416.1 1084.2,1419.4 1109.2,1422.2 1134.4,1424.6 1159.8,1426.5 1185.3,1428.0 1210.9,1429.0 1236.6,1429.5 1262.4,1429.4 1288.3,1428.9 1314.2,1427.8 1340.1,1426.1 1366.0,1424.0 1391.8,1421.2 1417.7,1417.9 1443.4,1414.0 1469.1,1409.6 1494.7,1404.6 1520.1,1399.1 1545.5,1393.0 1570.6,1386.4 1595.6,1379.2 1620.5,1371.5 1645.1,1363.3 1669.5,1354.6 1693.7,1345.4 1717.6,1335.7 1741.2,1325.6 1764.6,1315.0 1787.7,1304.1 1810.5,1292.8 1833.0,1281.1 1855.1,1269.1 1876.9,1256.8 1898.3,1244.2 1919.4,1231.3 1940.1,1218.3  Z" style="stroke-width: 0.5;  stroke: rgb(0,0,0); fill: rgb(179,177,178);" />
<path d="M 1719.164,1025.686 A 522.500,522.500 0.00 0,1 1727.2,1029.5 L 1727.2,1029.5 1717.5,1049.0 1707.3,1068.3 1696.5,1087.4 1685.2,1106.1 1673.4,1124.4 1661.0,1142.2 1648.1,1159.4 1634.7,1175.9 1620.9,1191.7 1606.5,1206.7 1591.6,1220.8 1576.3,1234.1 1560.6,1246.3 1544.4,1257.6 1527.8,1267.9 1510.8,1277.1 1493.4,1285.2 1475.7,1292.2 1457.6,1298.1 1439.3,1302.9 1420.6,1306.5 1401.7,1308.9 1382.6,1310.2 1363.3,1310.4 1343.8,1309.5 1324.1,1307.4 1304.4,1304.3 1284.6,1300.2 1264.7,1295.0 1244.9,1288.8 1225.1,1281.7 1205.4,1273.8 1185.8,1265.0 1166.4,1255.4 1147.2,1245.1 1128.2,1234.2 1109.5,1222.8 1091.2,1210.8 1073.3,1198.5  A 522.500,522.500 0.00 0,1 1078.4,1191.3 L 1078.4,1191.3 1096.1,1203.9 1114.1,1216.1 1132.5,1227.9 1151.2,1239.0 1170.1,1249.6 1189.3,1259.4 1208.6,1268.4 1228.0,1276.7 1247.5,1284.0 1267.0,1290.4 1286.5,1295.8 1306.0,1300.1 1325.5,1303.4 1344.8,1305.7 1364.0,1306.8 1383.0,1306.7 1401.8,1305.6 1420.3,1303.2 1438.6,1299.7 1456.6,1295.1 1474.3,1289.3 1491.7,1282.3 1508.7,1274.2 1525.4,1265.0 1541.6,1254.8 1557.4,1243.5 1572.8,1231.2 1587.7,1217.9 1602.2,1203.7 1616.2,1188.7 1629.7,1172.8 1642.7,1156.2 1655.2,1138.9 1667.2,1121.1 1678.6,1102.7 1689.6,1083.9 1700.0,1064.7 1709.8,1045.3 1719.2,1025.7  Z" style="stroke-width: 0.5;  stroke: rgb(0,0,0); fill: rgb(179,177,178);" />
<path d="M 1908.364,1174.048 A 522.500,522.500 0.00 0,1 1913.8,1181.0 L 1913.8,1181.0 1894.8,1195.5 1875.2,1209.7 1855.3,1223.7 1834.9,1237.3 1814.2,1250.6 1793.0,1263.6 1771.5,1276.1 1749.6,1288.2 1727.4,1299.7 1704.8,1310.8 1682.0,1321.4 1658.8,1331.3 1635.4,1340.7 1611.7,1349.5 1587.8,1357.7 1563.6,1365.3 1539.3,1372.2 1514.7,1378.4 1490.0,1384.0 1465.2,1388.9 1440.2,1393.1 1415.2,1396.6 1390.0,1399.5 1364.8,1401.6 1339.6,1403.2 1314.3,1404.0 1289.1,1404.2 1263.9,1403.7 1238.7,1402.7 1213.7,1401.0 1188.7,1398.7 1163.9,1395.8 1139.2,1392.4 1114.7,1388.4 1090.5,1384.0 1066.4,1379.1 1042.7,1373.7 1019.2,1368.0 996.1,1361.8  A 522.500,522.500 0.00 0,1 998.5,1353.2 L 998.5,1353.2 1021.5,1359.7 1044.7,1365.8 1068.3,1371.5 1092.1,1376.8 1116.2,1381.5 1140.5,1385.8 1165.0,1389.5 1189.7,1392.7 1214.5,1395.2 1239.4,1397.2 1264.4,1398.5 1289.5,1399.2 1314.6,1399.2 1339.7,1398.5 1364.7,1397.2 1389.8,1395.1 1414.8,1392.3 1439.7,1388.9 1464.5,1384.7 1489.2,1379.9 1513.7,1374.3 1538.0,1368.1 1562.2,1361.1 1586.2,1353.6 1609.9,1345.3 1633.4,1336.4 1656.6,1326.9 1679.5,1316.8 1702.1,1306.1 1724.5,1294.8 1746.4,1283.0 1768.1,1270.8 1789.3,1258.0 1810.2,1244.9 1830.7,1231.3 1850.8,1217.4 1870.4,1203.2 1889.6,1188.7 1908.4,1174.0  Z" style="stroke-width: 0.5;  stroke: rgb(0,0,0); fill: rgb(179,177,178);" />
<path d="M 1578.673,983.457 A 522.500,522.500 0.00 0,1 1587.1,984.8 L 1587.1,984.8 1583.4,1005.3 1579.3,1025.7 1574.7,1045.9 1569.7,1065.7 1564.1,1085.1 1558.1,1103.9 1551.6,1122.1 1544.6,1139.5 1537.1,1156.2 1529.1,1171.9 1520.6,1186.6 1511.6,1200.3 1502.0,1212.9 1492.0,1224.4 1481.5,1234.7 1470.6,1243.7 1459.1,1251.5 1447.3,1258.0 1435.0,1263.2 1422.2,1267.0 1409.1,1269.6 1395.6,1270.8 1381.8,1270.7 1367.7,1269.3 1353.2,1266.6 1338.5,1262.6 1323.6,1257.5 1308.5,1251.1 1293.2,1243.6 1277.8,1235.0 1262.3,1225.4 1246.8,1214.8 1231.3,1203.3 1215.8,1191.0 1200.4,1177.9 1185.2,1164.3 1170.2,1150.1 1155.4,1135.4 1140.9,1120.4  A 522.500,522.500 0.00 0,1 1147.1,1114.7 L 1147.1,1114.7 1161.2,1129.9 1175.7,1144.8 1190.5,1159.2 1205.4,1173.1 1220.4,1186.3 1235.6,1198.8 1250.8,1210.5 1266.0,1221.3 1281.1,1231.2 1296.2,1240.0 1311.1,1247.7 1325.9,1254.2 1340.4,1259.6 1354.7,1263.7 1368.8,1266.6 1382.6,1268.2 1396.0,1268.4 1409.1,1267.3 1421.8,1264.9 1434.1,1261.2 1446.0,1256.1 1457.5,1249.7 1468.5,1242.0 1479.0,1233.1 1489.1,1222.9 1498.7,1211.5 1507.8,1198.9 1516.4,1185.2 1524.5,1170.5 1532.1,1154.8 1539.2,1138.2 1545.8,1120.8 1552.0,1102.6 1557.6,1083.8 1562.7,1064.4 1567.4,1044.6 1571.6,1024.4 1575.3,1004.0 1578.7,983.5  Z" style="stroke-width: 0.5;  stroke: rgb(0,0,0); fill: rgb(179,177,178);" />
<path d="M 1983.155,1301.085 A 522.500,522.500 0.00 0,1 1986.3,1308.9 L 1986.3,1308.9 1962.6,1318.0 1938.7,1327.0 1914.6,1335.9 1890.2,1344.5 1865.6,1353.0 1840.9,1361.2 1815.9,1369.1 1790.8,1376.8 1765.4,1384.3 1740.0,1391.5 1714.3,1398.3 1688.5,1404.9 1662.6,1411.2 1636.6,1417.2 1610.4,1422.8 1584.2,1428.1 1557.8,1433.1 1531.4,1437.8 1504.9,1442.1 1478.4,1446.1 1451.8,1449.7 1425.1,1453.0 1398.5,1456.0 1371.8,1458.6 1345.2,1460.8 1318.5,1462.7 1291.9,1464.3 1265.3,1465.6 1238.8,1466.5 1212.3,1467.1 1185.9,1467.4 1159.6,1467.4 1133.4,1467.1 1107.3,1466.6 1081.4,1465.7 1055.5,1464.6 1029.9,1463.2 1004.4,1461.6 979.1,1459.7  A 522.500,522.500 0.00 0,1 979.8,1451.4 L 979.8,1451.4 1004.9,1453.6 1030.3,1455.6 1055.9,1457.4 1081.6,1458.8 1107.5,1460.0 1133.5,1460.9 1159.6,1461.5 1185.9,1461.8 1212.2,1461.8 1238.6,1461.4 1265.1,1460.7 1291.6,1459.6 1318.2,1458.2 1344.8,1456.4 1371.4,1454.3 1398.0,1451.8 1424.6,1448.9 1451.2,1445.7 1477.8,1442.1 1504.3,1438.1 1530.7,1433.8 1557.1,1429.1 1583.4,1424.0 1609.5,1418.6 1635.6,1412.9 1661.6,1406.8 1687.4,1400.3 1713.1,1393.6 1738.6,1386.5 1764.0,1379.1 1789.2,1371.4 1814.2,1363.5 1839.0,1355.2 1863.6,1346.8 1888.0,1338.0 1912.1,1329.1 1936.1,1319.9 1959.7,1310.6 1983.2,1301.1  Z" style="stroke-width: 0.5;  stroke: rgb(0,0,0); fill: rgb(179,177,178);" />
<path d="M 1802.373,1073.882 A 522.500,522.500 0.00 0,1 1808.8,1078.5 L 1808.8,1078.5 1795.2,1096.6 1781.0,1114.5 1766.4,1132.2 1751.2,1149.6 1735.5,1166.5 1719.2,1183.0 1702.5,1199.0 1685.3,1214.4 1667.7,1229.1 1649.6,1243.2 1631.0,1256.6 1612.0,1269.2 1592.7,1281.0 1572.9,1292.0 1552.8,1302.1 1532.3,1311.4 1511.5,1319.7 1490.4,1327.1 1469.0,1333.6 1447.4,1339.1 1425.5,1343.7 1403.4,1347.3 1381.2,1350.0 1358.8,1351.7 1336.2,1352.5 1313.6,1352.3 1290.9,1351.3 1268.2,1349.3 1245.6,1346.5 1222.9,1342.8 1200.3,1338.3 1177.8,1333.1 1155.5,1327.1 1133.4,1320.4 1111.5,1313.1 1089.8,1305.2 1068.5,1296.7 1047.5,1287.7 1026.8,1278.4  A 522.500,522.500 0.00 0,1 1030.2,1271.3 L 1030.2,1271.3 1050.6,1280.9 1071.4,1290.1 1092.6,1298.9 1114.0,1307.1 1135.7,1314.6 1157.7,1321.6 1179.8,1327.8 1202.0,1333.3 1224.4,1338.0 1246.9,1341.9 1269.3,1345.0 1291.8,1347.1 1314.3,1348.4 1336.7,1348.7 1359.0,1348.1 1381.2,1346.5 1403.2,1343.9 1425.0,1340.4 1446.7,1335.9 1468.1,1330.4 1489.2,1324.0 1510.0,1316.6 1530.6,1308.3 1550.8,1299.0 1570.7,1288.9 1590.2,1277.8 1609.3,1266.0 1628.0,1253.3 1646.2,1239.8 1664.1,1225.7 1681.4,1210.8 1698.3,1195.3 1714.7,1179.2 1730.6,1162.6 1746.0,1145.5 1760.9,1128.0 1775.3,1110.2 1789.1,1092.1 1802.4,1073.9  Z" style="stroke-width: 0.5;  stroke: rgb(0,0,0); fill: rgb(179,177,178);" />
<path d="M 2008.871,1381.438 A 522.500,522.500 0.00 0,1 2010.6,1389.0 L 2010.6,1389.0 1984.7,1394.6 1958.7,1400.2 1932.7,1405.7 1906.6,1411.2 1880.5,1416.7 1854.4,1422.1 1828.2,1427.4 1801.9,1432.7 1775.7,1437.9 1749.4,1443.1 1723.0,1448.2 1696.7,1453.2 1670.3,1458.2 1643.8,1463.2 1617.4,1468.0 1590.9,1472.8 1564.4,1477.5 1537.9,1482.2 1511.4,1486.8 1484.9,1491.3 1458.3,1495.8 1431.8,1500.2 1405.2,1504.5 1378.6,1508.8 1352.1,1512.9 1325.5,1517.0 1299.0,1521.1 1272.4,1525.1 1245.9,1529.0 1219.3,1532.8 1192.8,1536.6 1166.3,1540.3 1139.8,1544.0 1113.4,1547.6 1086.9,1551.1 1060.5,1554.6 1034.2,1558.0 1007.8,1561.3 981.5,1564.6  A 522.500,522.500 0.00 0,1 980.6,1556.9 L 980.6,1556.9 1006.9,1554.0 1033.2,1551.0 1059.5,1547.9 1085.9,1544.8 1112.4,1541.6 1138.8,1538.3 1165.3,1535.0 1191.8,1531.5 1218.4,1528.0 1244.9,1524.4 1271.5,1520.6 1298.1,1516.8 1324.7,1513.0 1351.3,1509.0 1377.9,1504.9 1404.5,1500.7 1431.1,1496.5 1457.7,1492.1 1484.2,1487.7 1510.8,1483.2 1537.3,1478.5 1563.9,1473.8 1590.4,1469.0 1616.8,1464.1 1643.3,1459.1 1669.7,1454.1 1696.1,1448.9 1722.4,1443.7 1748.7,1438.4 1775.0,1433.0 1801.2,1427.5 1827.4,1422.0 1853.5,1416.4 1879.5,1410.7 1905.5,1405.0 1931.4,1399.2 1957.3,1393.3 1983.1,1387.4 2008.9,1381.4  Z" style="stroke-width: 0.5;  stroke: rgb(0,0,0); fill: rgb(179,177,178);" />
<path d="M 1661.503,1003.087 A 522.500,522.500 0.00 0,1 1668.4,1005.4 L 1668.4,1005.4 1661.3,1025.4 1653.7,1045.3 1645.6,1065.0 1637.1,1084.3 1628.0,1103.1 1618.4,1121.4 1608.3,1139.1 1597.7,1156.0 1586.6,1172.2 1575.0,1187.5 1563.0,1201.8 1550.5,1215.2 1537.5,1227.6 1524.1,1238.8 1510.2,1248.9 1496.0,1257.9 1481.3,1265.7 1466.3,1272.2 1450.9,1277.5 1435.1,1281.6 1419.1,1284.4 1402.8,1286.0 1386.2,1286.3 1369.4,1285.3 1352.4,1283.2 1335.2,1279.9 1317.8,1275.4 1300.4,1269.7 1282.9,1263.0 1265.4,1255.2 1247.8,1246.5 1230.4,1236.8 1213.0,1226.2 1195.7,1214.9 1178.6,1202.8 1161.8,1190.1 1145.2,1176.8 1128.9,1163.1 1113.0,1149.0  A 522.500,522.500 0.00 0,1 1117.9,1143.6 L 1117.9,1143.6 1133.6,1157.9 1149.6,1171.8 1165.9,1185.3 1182.5,1198.2 1199.4,1210.5 1216.4,1222.0 1233.5,1232.8 1250.7,1242.7 1268.0,1251.6 1285.2,1259.6 1302.4,1266.5 1319.6,1272.3 1336.6,1276.9 1353.5,1280.4 1370.2,1282.7 1386.7,1283.7 1403.0,1283.5 1419.0,1282.1 1434.7,1279.4 1450.1,1275.4 1465.2,1270.1 1479.9,1263.6 1494.3,1255.9 1508.2,1247.0 1521.7,1236.9 1534.8,1225.7 1547.4,1213.4 1559.6,1200.0 1571.3,1185.6 1582.6,1170.3 1593.3,1154.1 1603.6,1137.1 1613.4,1119.4 1622.6,1101.1 1631.4,1082.2 1639.7,1062.8 1647.5,1043.1 1654.7,1023.2 1661.5,1003.1  Z" style="stroke-width: 0.5;  stroke: rgb(0,0,0); fill: rgb(179,177,178);" />
</g>
<g id="plot0">
<g id="plot0-axis">
</g>
<line x1='2243.5' y1='1598.5' x2='2243.5' y2='1598.5' style="stroke-width:14.0;stroke:rgb(0,0,0);stroke-linecap:round;fill:none;" />
<line x1='2243.5' y1='1598.5' x2='2283.2' y2='1603.8' style="stroke-width:14.0;stroke:rgb(0,0,0);stroke-linecap:round;fill:none;" />
<line x1='2283.2' y1='1603.8' x2='2283.2' y2='1603.8' style="stroke-width:14.0;stroke:rgb(0,0,0);stroke-linecap:round;fill:none;" />
<text x="2299.7" y="1628.7" font-size="46.8px" font-family="CMUBright-Roman" style="text-anchor:start;fill:rgb(255,38,78);" transform="rotate(7.5,2299.7,1628.7)" >HistoohiSECH95<tspan baseline-shift="-40%" font-size="90%">s</tspan>02825</text>
</g>
<defs>
<pattern id="checker" width="10" height="10" patternTransform="rotate(45 0 0)" patternUnits="userSpaceOnUse"><line x1="0" y1="0" x2="10" y2="0" style="stroke:black;stroke-width:2" /><line x1="0" y1="0" x2="0" y2="10" style="stroke:black;stroke-width:2" /></pattern>
<pattern id="vline-sparse" width="10" height="10" patternTransform="rotate(0 0 0)" patternUnits="userSpaceOnUse"><line x1="0" y1="0" x2="0" y2="10" style="stroke:black;stroke-width:2" /></pattern>
<pattern id="checker" width="10" height="10" patternTransform="rotate(45 0 0)" patternUnits="userSpaceOnUse"><line x1="0" y1="0" x2="10" y2="0" style="stroke:black;stroke-width:5" /><line x1="0" y1="0" x2="0" y2="10" style="stroke:black;stroke-width:4" /></pattern>
<pattern id="hline-sparse" width="10" height="10" patternTransform="rotate(0 0 0)" patternUnits="userSpaceOnUse"><line x1="0" y1="0" x2="10" y2="0" style="stroke:black;stroke-width:2" /></pattern>
<pattern id="hline" width="10" height="10" patternTransform="rotate(0 0 0)" patternUnits="userSpaceOnUse"><line x1="0" y1="0" x2="10" y2="0" style="stroke:black;stroke-width:5" /></pattern>
<pattern id="vline" width="10" height="10" patternTransform="rotate(0 0 0)" patternUnits="userSpaceOnUse"><line x1="0" y1="0" x2="0" y2="10" style="stroke:black;stroke-width:5" /></pattern>
</defs>
</svg>
