<?xml version="1.0" encoding="utf-8" standalone="no"?>
<!DOCTYPE svg PUBLIC "-//W3C//DTD SVG 1.1//EN" "http://www.w3.org/Graphics/SVG/1.1/DTD/svg11.dtd">
<svg width="3000px" height="3000px" version="1.1" xmlns="http://www.w3.org/2000/svg" xmlns:xlink="http://www.w3.org/1999/xlink">
<g id="bg">
<rect x="0" y="0" width="3000px" height="3000px" style="fill:rgb(255,255,255);"/>
</g>
<g id="ideograms">
<path d="M1500.000,950.000 A550.000,550.000 40.000 0,1 1707.403,2009.396 L1782.822,2194.631 A750.000,750.000 0.000 0,0 1500.000,750.000 Z" style="stroke-width:2.0;stroke:rgb(0,0,0);stroke-linecap:round;fill:rgb(179,177,178);" />
<text x="2456.8" y="1312.7" font-size="46.8px" font-family="CMUBright-Roman" style="text-anchor:middle;fill:rgb(0,0,0);" transform="rotate(438.9,2456.8,1312.7)" >HistomissSECH87<tspan baseline-shift="-40%" font-size="90%">1</tspan></text>
<line x1='1541.1' y1='751.1' x2='1541.8' y2='739.1' style="stroke-width:8.0;stroke:rgb(150,150,150);stroke-linecap:round;fill:none;" />
<text x="1556.4" y="728.1" font-size="41.6px" font-family="CMUBright-Roman" style="text-anchor:start;fill:rgb(150,150,150);" transform="rotate(273.1,1556.4,728.1)" >1450 kb</text>
<line x1='1642.1' y1='763.6' x2='1644.3' y2='751.8' style="stroke-width:8.0;stroke:rgb(150,150,150);stroke-linecap:round;fill:none;" />
<line x1='1740.4' y1='789.6' x2='1744.2' y2='778.2' style="stroke-width:8.0;stroke:rgb(150,150,150);stroke-linecap:round;fill:none;" />
<line x1='1834.3' y1='828.6' x2='1839.6' y2='817.9' style="stroke-width:8.0;stroke:rgb(150,150,150);stroke-linecap:round;fill:none;" />
<line x1='1922.0' y1='880.0' x2='1928.8' y2='870.1' style="stroke-width:8.0;stroke:rgb(150,150,150);stroke-linecap:round;fill:none;" />
<line x1='2002.0' y1='942.8' x2='2010.1' y2='933.9' style="stroke-width:8.0;stroke:rgb(150,150,150);stroke-linecap:round;fill:none;" />
<text x="2028.4" y="934.4" font-size="41.6px" font-family="CMUBright-Roman" style="text-anchor:start;fill:rgb(150,150,150);" transform="rotate(312.0,2028.4,934.4)" >1500 kb</text>
<line x1='2072.8' y1='1015.8' x2='2082.0' y2='1008.1' style="stroke-width:8.0;stroke:rgb(150,150,150);stroke-linecap:round;fill:none;" />
<line x1='2133.0' y1='1097.8' x2='2143.2' y2='1091.3' style="stroke-width:8.0;stroke:rgb(150,150,150);stroke-linecap:round;fill:none;" />
<line x1='2181.6' y1='1187.1' x2='2192.5' y2='1182.1' style="stroke-width:8.0;stroke:rgb(150,150,150);stroke-linecap:round;fill:none;" />
<line x1='2217.7' y1='1282.2' x2='2229.2' y2='1278.7' style="stroke-width:8.0;stroke:rgb(150,150,150);stroke-linecap:round;fill:none;" />
<line x1='2240.5' y1='1381.3' x2='2252.4' y2='1379.4' style="stroke-width:8.0;stroke:rgb(150,150,150);stroke-linecap:round;fill:none;" />
<text x="2266.3" y="1391.3" font-size="41.6px" font-family="CMUBright-Roman" style="text-anchor:start;fill:rgb(150,150,150);" transform="rotate(350.9,2266.3,1391.3)" >1550 kb</text>
<line x1='2249.8' y1='1482.6' x2='2261.8' y2='1482.3' style="stroke-width:8.0;stroke:rgb(150,150,150);stroke-linecap:round;fill:none;" />
<line x1='2245.3' y1='1584.2' x2='2257.2' y2='1585.5' style="stroke-width:8.0;stroke:rgb(150,150,150);stroke-linecap:round;fill:none;" />
<line x1='2227.0' y1='1684.2' x2='2238.7' y2='1687.2' style="stroke-width:8.0;stroke:rgb(150,150,150);stroke-linecap:round;fill:none;" />
<line x1='2195.4' y1='1780.9' x2='2206.5' y2='1785.4' style="stroke-width:8.0;stroke:rgb(150,150,150);stroke-linecap:round;fill:none;" />
<line x1='2151.0' y1='1872.4' x2='2161.4' y2='1878.3' style="stroke-width:8.0;stroke:rgb(150,150,150);stroke-linecap:round;fill:none;" />
<text x="2164.8" y="1896.4" font-size="41.6px" font-family="CMUBright-Roman" style="text-anchor:start;fill:rgb(150,150,150);" transform="rotate(29.8,2164.8,1896.4)" >1600 kb</text>
<line x1='2094.7' y1='1957.0' x2='2104.2' y2='1964.3' style="stroke-width:8.0;stroke:rgb(150,150,150);stroke-linecap:round;fill:none;" />
<line x1='2027.4' y1='2033.3' x2='2035.8' y2='2041.8' style="stroke-width:8.0;stroke:rgb(150,150,150);stroke-linecap:round;fill:none;" />
<line x1='1950.4' y1='2099.7' x2='1957.6' y2='2109.3' style="stroke-width:8.0;stroke:rgb(150,150,150);stroke-linecap:round;fill:none;" />
<line x1='1865.1' y1='2155.1' x2='1871.0' y2='2165.6' style="stroke-width:8.0;stroke:rgb(150,150,150);stroke-linecap:round;fill:none;" />
<g id="highlighttrack_0">
<path d="M2037.476,1383.297 A550.000,550.000 40.000 0,1 2041.805,1405.407 L2238.824,1371.010 A750.000,750.000 0.000 0,0 2232.922,1340.859 Z" style="stroke-width:14.0;stroke:rgb(0,0,0);stroke-linecap:round;fill:rgb(255,38,78);" />
</g>
<path d="M1500.000,950.000 A550.000,550.000 40.000 0,1 1707.403,2009.396 L1782.822,2194.631 A750.000,750.000 0.000 0,0 1500.000,750.000 Z" style="stroke-width:2.0;stroke:rgb(0,0,0);stroke-linecap:round;fill:none;" />
<path d="M1488.761,2049.885 A550.000,550.000 40.000 0,1 1282.231,994.949 L1203.042,811.294 A750.000,750.000 0.000 0,0 1484.674,2249.843 Z" style="stroke-width:2.0;stroke:rgb(0,0,0);stroke-linecap:round;fill:rgb(179,177,178);" />
<text x="499.0" y="1696.0" font-size="46.8px" font-family="CMUBright-Roman" style="text-anchor:middle;fill:rgb(0,0,0);" transform="rotate(78.9,499.0,1696.0)" >HistocapSECH100<tspan baseline-shift="-40%" font-size="90%">1</tspan></text>
<line x1='1122.5' y1='852.0' x2='1116.4' y2='841.6' style="stroke-width:8.0;stroke:rgb(150,150,150);stroke-linecap:round;fill:none;" />
<text x="1098.3" y="838.4" font-size="41.6px" font-family="CMUBright-Roman" style="text-anchor:end;fill:rgb(150,150,150);" transform="rotate(59.8,1098.3,838.4)" >950 kb</text>
<line x1='1038.3' y1='909.0' x2='1030.9' y2='899.5' style="stroke-width:8.0;stroke:rgb(150,150,150);stroke-linecap:round;fill:none;" />
<line x1='962.6' y1='976.9' x2='954.0' y2='968.5' style="stroke-width:8.0;stroke:rgb(150,150,150);stroke-linecap:round;fill:none;" />
<line x1='896.7' y1='1054.4' x2='887.1' y2='1047.3' style="stroke-width:8.0;stroke:rgb(150,150,150);stroke-linecap:round;fill:none;" />
<line x1='842.0' y1='1140.1' x2='831.5' y2='1134.4' style="stroke-width:8.0;stroke:rgb(150,150,150);stroke-linecap:round;fill:none;" />
<line x1='799.4' y1='1232.4' x2='788.1' y2='1228.2' style="stroke-width:8.0;stroke:rgb(150,150,150);stroke-linecap:round;fill:none;" />
<text x="772.1" y="1237.0" font-size="41.6px" font-family="CMUBright-Roman" style="text-anchor:end;fill:rgb(150,150,150);" transform="rotate(20.9,772.1,1237.0)" >1000 kb</text>
<line x1='769.6' y1='1329.7' x2='757.9' y2='1327.0' style="stroke-width:8.0;stroke:rgb(150,150,150);stroke-linecap:round;fill:none;" />
<line x1='753.3' y1='1430.1' x2='741.3' y2='1428.9' style="stroke-width:8.0;stroke:rgb(150,150,150);stroke-linecap:round;fill:none;" />
<line x1='750.7' y1='1531.7' x2='738.7' y2='1532.2' style="stroke-width:8.0;stroke:rgb(150,150,150);stroke-linecap:round;fill:none;" />
<line x1='761.9' y1='1632.8' x2='750.0' y2='1634.9' style="stroke-width:8.0;stroke:rgb(150,150,150);stroke-linecap:round;fill:none;" />
<line x1='786.6' y1='1731.4' x2='775.2' y2='1735.1' style="stroke-width:8.0;stroke:rgb(150,150,150);stroke-linecap:round;fill:none;" />
<text x="768.2" y="1752.1" font-size="41.6px" font-family="CMUBright-Roman" style="text-anchor:end;fill:rgb(150,150,150);" transform="rotate(-18.0,768.2,1752.1)" >1050 kb</text>
<line x1='824.5' y1='1825.8' x2='813.7' y2='1831.0' style="stroke-width:8.0;stroke:rgb(150,150,150);stroke-linecap:round;fill:none;" />
<line x1='874.8' y1='1914.2' x2='864.8' y2='1920.8' style="stroke-width:8.0;stroke:rgb(150,150,150);stroke-linecap:round;fill:none;" />
<line x1='936.5' y1='1995.0' x2='927.5' y2='2002.9' style="stroke-width:8.0;stroke:rgb(150,150,150);stroke-linecap:round;fill:none;" />
<line x1='1008.7' y1='2066.7' x2='1000.8' y2='2075.7' style="stroke-width:8.0;stroke:rgb(150,150,150);stroke-linecap:round;fill:none;" />
<line x1='1089.9' y1='2127.9' x2='1083.3' y2='2138.0' style="stroke-width:8.0;stroke:rgb(150,150,150);stroke-linecap:round;fill:none;" />
<text x="1088.5" y="2155.6" font-size="41.6px" font-family="CMUBright-Roman" style="text-anchor:end;fill:rgb(150,150,150);" transform="rotate(-56.8,1088.5,2155.6)" >1100 kb</text>
<line x1='1178.6' y1='2177.6' x2='1173.4' y2='2188.5' style="stroke-width:8.0;stroke:rgb(150,150,150);stroke-linecap:round;fill:none;" />
<line x1='1273.2' y1='2214.9' x2='1269.6' y2='2226.3' style="stroke-width:8.0;stroke:rgb(150,150,150);stroke-linecap:round;fill:none;" />
<line x1='1372.0' y1='2239.0' x2='1369.9' y2='2250.8' style="stroke-width:8.0;stroke:rgb(150,150,150);stroke-linecap:round;fill:none;" />
<line x1='1473.1' y1='2249.5' x2='1472.7' y2='2261.5' style="stroke-width:8.0;stroke:rgb(150,150,150);stroke-linecap:round;fill:none;" />
<path d="M1488.761,2049.885 A550.000,550.000 40.000 0,1 1282.231,994.949 L1203.042,811.294 A750.000,750.000 0.000 0,0 1484.674,2249.843 Z" style="stroke-width:2.0;stroke:rgb(0,0,0);stroke-linecap:round;fill:none;" />
</g>
<g id="track_0">
<path d="M 1652.716,1000.316 A 522.500,522.500 0.00 0,1 1734.2,1032.9 L 1734.2,1032.9 1723.4,1054.0 1712.1,1075.1 1700.2,1096.1 1687.8,1117.0 1674.9,1137.8 1661.5,1158.3 1647.5,1178.6 1632.9,1198.6 1617.9,1218.3 1602.3,1237.6 1586.2,1256.5 1569.5,1275.0 1552.4,1293.1 1534.7,1310.6 1516.5,1327.7 1497.9,1344.2 1478.7,1360.2 1459.1,1375.6 1439.1,1390.4 1418.6,1404.7 1397.7,1418.3 1376.4,1431.3 1354.8,1443.6 1332.8,1455.4 1310.4,1466.4 1287.8,1476.9 1264.9,1486.6 1241.7,1495.8 1218.4,1504.3 1194.8,1512.2 1171.1,1519.4 1147.3,1526.0 1123.4,1532.1 1099.5,1537.5 1075.6,1542.4 1051.7,1546.7 1027.8,1550.5 1004.1,1553.7 980.6,1556.5  A 522.500,522.500 0.00 0,1 978.4,1468.7 L 978.4,1468.7 1001.2,1469.8 1024.1,1470.4 1047.2,1470.4 1070.4,1469.8 1093.6,1468.6 1116.9,1466.7 1140.0,1464.0 1163.0,1460.7 1185.9,1456.6 1208.6,1451.7 1231.0,1446.1 1253.1,1439.6 1274.9,1432.4 1296.4,1424.3 1317.4,1415.4 1338.1,1405.7 1358.2,1395.2 1377.9,1383.8 1397.0,1371.7 1415.7,1358.7 1433.7,1345.0 1451.2,1330.5 1468.1,1315.3 1484.4,1299.4 1500.1,1282.8 1515.2,1265.5 1529.6,1247.6 1543.3,1229.1 1556.5,1210.1 1568.9,1190.5 1580.8,1170.5 1591.9,1150.1 1602.5,1129.3 1612.4,1108.2 1621.6,1086.9 1630.3,1065.4 1638.3,1043.7 1645.8,1022.0 1652.7,1000.3  Z" style="stroke-width: 0.5;  stroke: rgb(0,0,0); fill: rgb(179,177,178);" />
<path d="M 1843.184,1893.994 A 522.500,522.500 0.00 0,1 1786.1,1937.2 L 1786.1,1937.2 1773.9,1919.1 1761.2,1901.2 1748.0,1883.5 1734.3,1866.3 1720.1,1849.6 1705.4,1833.4 1690.3,1817.9 1674.8,1803.1 1658.8,1789.0 1642.4,1775.8 1625.7,1763.5 1608.6,1752.1 1591.2,1741.6 1573.4,1732.2 1555.4,1723.8 1537.0,1716.6 1518.4,1710.4 1499.6,1705.3 1480.6,1701.4 1461.4,1698.6 1442.1,1697.0 1422.6,1696.5 1403.0,1697.1 1383.4,1698.9 1363.7,1701.8 1344.0,1705.8 1324.3,1710.9 1304.7,1716.9 1285.1,1724.0 1265.7,1732.1 1246.4,1741.0 1227.3,1750.8 1208.4,1761.4 1189.8,1772.7 1171.4,1784.8 1153.4,1797.4 1135.7,1810.5 1118.4,1824.1 1101.6,1838.0  A 522.500,522.500 0.00 0,1 1059.3,1780.6 L 1059.3,1780.6 1078.4,1768.7 1098.0,1757.2 1118.0,1746.2 1138.3,1735.6 1159.0,1725.7 1179.9,1716.3 1201.1,1707.6 1222.6,1699.7 1244.2,1692.5 1266.0,1686.2 1287.9,1680.7 1309.9,1676.1 1332.0,1672.4 1354.1,1669.6 1376.3,1667.8 1398.4,1667.0 1420.4,1667.1 1442.4,1668.3 1464.3,1670.4 1486.0,1673.6 1507.6,1677.7 1529.0,1682.8 1550.2,1688.9 1571.1,1696.0 1591.8,1704.0 1612.3,1712.9 1632.4,1722.7 1652.2,1733.4 1671.7,1744.9 1690.8,1757.1 1709.5,1770.1 1727.8,1783.8 1745.7,1798.1 1763.1,1813.0 1780.1,1828.5 1796.6,1844.3 1812.7,1860.6 1828.2,1877.2 1843.2,1894.0  Z" style="stroke-width: 0.5;  stroke: rgb(0,0,0); fill: rgb(179,177,178);" />
<path d="M 1500.000,977.500 A 522.500,522.500 0.00 0,1 1540.6,979.1 L 1540.6,979.1 1538.7,1000.7 1536.2,1022.3 1533.1,1043.8 1529.4,1065.3 1525.0,1086.4 1520.0,1107.3 1514.3,1127.8 1507.9,1147.9 1500.8,1167.4 1492.9,1186.3 1484.3,1204.5 1474.9,1222.1 1464.8,1238.9 1453.9,1254.9 1442.3,1270.1 1429.9,1284.4 1416.8,1297.7 1403.0,1310.2 1388.4,1321.6 1373.2,1332.1 1357.3,1341.6 1340.7,1350.1 1323.5,1357.6 1305.8,1364.1 1287.5,1369.5 1268.6,1374.0 1249.3,1377.5 1229.6,1379.9 1209.4,1381.5 1189.0,1382.1 1168.2,1381.8 1147.2,1380.6 1126.0,1378.7 1104.7,1375.9 1083.4,1372.4 1062.0,1368.2 1040.8,1363.4 1019.7,1358.0 998.9,1352.1  A 522.500,522.500 0.00 0,1 1020.8,1291.8 L 1020.8,1291.8 1040.3,1300.1 1060.2,1307.8 1080.1,1315.1 1100.2,1321.7 1120.2,1327.7 1140.2,1332.9 1160.1,1337.3 1179.8,1340.9 1199.2,1343.5 1218.2,1345.3 1237.0,1346.0 1255.3,1345.8 1273.1,1344.5 1290.5,1342.1 1307.3,1338.7 1323.5,1334.1 1339.1,1328.5 1354.0,1321.8 1368.3,1314.0 1381.9,1305.1 1394.7,1295.1 1406.8,1284.1 1418.2,1272.0 1428.8,1258.9 1438.6,1244.9 1447.7,1229.9 1456.0,1214.1 1463.6,1197.4 1470.3,1179.9 1476.4,1161.7 1481.6,1142.9 1486.2,1123.4 1490.1,1103.4 1493.3,1083.0 1495.8,1062.3 1497.7,1041.2 1499.0,1020.0 1499.8,998.7 1500.0,977.5  Z" style="stroke-width: 0.5;  stroke: rgb(0,0,0); fill: rgb(179,177,178);" />
<path d="M 1884.634,1853.642 A 522.500,522.500 0.00 0,1 1843.2,1894.0 L 1843.2,1894.0 1828.2,1877.2 1812.7,1860.6 1796.6,1844.3 1780.1,1828.4 1763.1,1813.0 1745.7,1798.1 1727.8,1783.8 1709.4,1770.1 1690.7,1757.1 1671.6,1744.8 1652.1,1733.3 1632.3,1722.6 1612.2,1712.8 1591.8,1703.9 1571.0,1695.8 1550.1,1688.8 1528.9,1682.6 1507.5,1677.5 1485.9,1673.3 1464.1,1670.1 1442.2,1668.0 1420.2,1666.8 1398.2,1666.6 1376.0,1667.4 1353.9,1669.2 1331.8,1671.9 1309.7,1675.6 1287.6,1680.2 1265.7,1685.6 1243.9,1691.9 1222.2,1699.1 1200.7,1707.0 1179.5,1715.6 1158.5,1724.9 1137.8,1734.8 1117.4,1745.4 1097.4,1756.4 1077.8,1767.8 1058.7,1779.7  A 522.500,522.500 0.00 0,1 1030.4,1729.0 L 1030.4,1729.0 1051.3,1719.1 1072.6,1709.5 1094.3,1700.4 1116.3,1691.8 1138.6,1683.7 1161.2,1676.2 1184.1,1669.3 1207.1,1663.0 1230.4,1657.5 1253.8,1652.6 1277.3,1648.5 1301.0,1645.2 1324.7,1642.7 1348.4,1641.0 1372.2,1640.1 1395.9,1640.1 1419.6,1641.0 1443.3,1642.7 1466.8,1645.2 1490.3,1648.6 1513.6,1652.9 1536.7,1658.0 1559.7,1664.0 1582.5,1670.8 1605.0,1678.4 1627.3,1686.9 1649.2,1696.0 1670.9,1706.0 1692.3,1716.6 1713.4,1727.9 1734.1,1739.9 1754.4,1752.5 1774.3,1765.6 1793.8,1779.3 1812.9,1793.4 1831.6,1808.0 1849.7,1822.9 1867.4,1838.2 1884.6,1853.6  Z" style="stroke-width: 0.5;  stroke: rgb(0,0,0); fill: rgb(179,177,178);" />
<path d="M 1999.704,1347.348 A 522.500,522.500 0.00 0,1 2010.6,1388.9 L 2010.6,1388.9 1984.4,1394.6 1958.3,1400.2 1932.2,1405.9 1906.0,1411.6 1879.8,1417.2 1853.7,1422.8 1827.5,1428.4 1801.3,1434.0 1775.1,1439.6 1748.9,1445.2 1722.6,1450.8 1696.4,1456.3 1670.2,1461.9 1643.9,1467.4 1617.7,1472.9 1591.4,1478.4 1565.2,1483.9 1538.9,1489.3 1512.6,1494.8 1486.3,1500.2 1460.1,1505.6 1433.8,1511.0 1407.5,1516.4 1381.2,1521.8 1354.9,1527.1 1328.7,1532.5 1302.4,1537.8 1276.1,1543.1 1249.8,1548.4 1223.5,1553.6 1197.3,1558.9 1171.0,1564.1 1144.7,1569.4 1118.5,1574.6 1092.2,1579.8 1066.0,1584.9 1039.7,1590.1 1013.5,1595.3 987.2,1600.4  A 522.500,522.500 0.00 0,1 980.7,1557.6 L 980.7,1557.6 1006.7,1554.7 1032.9,1551.6 1059.0,1548.5 1085.3,1545.2 1111.6,1541.8 1137.9,1538.3 1164.3,1534.6 1190.7,1530.8 1217.2,1526.9 1243.6,1522.9 1270.1,1518.7 1296.6,1514.4 1323.1,1509.9 1349.7,1505.3 1376.2,1500.6 1402.7,1495.7 1429.2,1490.6 1455.7,1485.5 1482.1,1480.2 1508.6,1474.7 1535.0,1469.1 1561.3,1463.4 1587.6,1457.5 1613.9,1451.5 1640.2,1445.4 1666.3,1439.1 1692.4,1432.7 1718.5,1426.2 1744.5,1419.5 1770.4,1412.8 1796.2,1405.9 1822.0,1398.9 1847.7,1391.8 1873.2,1384.6 1898.7,1377.3 1924.1,1370.0 1949.4,1362.5 1974.6,1355.0 1999.7,1347.3  Z" style="stroke-width: 0.5;  stroke: rgb(0,0,0); fill: rgb(179,177,178);" />
<path d="M 2014.706,1410.088 A 522.500,522.500 0.00 0,1 2020.2,1451.2 L 2020.2,1451.2 1994.1,1453.7 1967.9,1456.3 1941.7,1459.0 1915.3,1461.8 1889.0,1464.7 1862.6,1467.8 1836.1,1471.0 1809.6,1474.3 1783.1,1477.7 1756.6,1481.3 1730.0,1484.9 1703.4,1488.8 1676.8,1492.7 1650.2,1496.8 1623.6,1501.0 1597.0,1505.4 1570.4,1509.9 1543.9,1514.6 1517.3,1519.3 1490.8,1524.2 1464.3,1529.3 1437.8,1534.5 1411.3,1539.8 1384.9,1545.2 1358.6,1550.8 1332.3,1556.5 1306.0,1562.3 1279.9,1568.3 1253.7,1574.3 1227.7,1580.5 1201.7,1586.8 1175.8,1593.2 1149.9,1599.7 1124.2,1606.3 1098.5,1613.0 1072.9,1619.8 1047.4,1626.7 1022.1,1633.6 996.8,1640.6  A 522.500,522.500 0.00 0,1 987.2,1600.4 L 987.2,1600.4 1013.5,1595.2 1039.7,1590.1 1066.0,1585.0 1092.2,1579.9 1118.5,1574.8 1144.8,1569.7 1171.1,1564.7 1197.4,1559.6 1223.7,1554.6 1250.1,1549.5 1276.4,1544.5 1302.7,1539.5 1329.1,1534.5 1355.4,1529.6 1381.8,1524.6 1408.1,1519.6 1434.5,1514.7 1460.9,1509.8 1487.3,1504.9 1513.6,1500.0 1540.0,1495.1 1566.4,1490.3 1592.8,1485.5 1619.2,1480.6 1645.6,1475.8 1672.0,1471.0 1698.3,1466.3 1724.7,1461.5 1751.1,1456.7 1777.5,1452.0 1803.9,1447.3 1830.2,1442.6 1856.6,1437.9 1883.0,1433.2 1909.3,1428.6 1935.7,1423.9 1962.0,1419.3 1988.4,1414.7 2014.7,1410.1  Z" style="stroke-width: 0.5;  stroke: rgb(0,0,0); fill: rgb(179,177,178);" />
<path d="M 1784.871,1938.012 A 522.500,522.500 0.00 0,1 1754.0,1956.6 L 1754.0,1956.6 1743.3,1937.9 1732.1,1919.4 1720.5,1901.2 1708.3,1883.4 1695.6,1866.1 1682.5,1849.4 1669.0,1833.4 1655.0,1818.1 1640.6,1803.6 1625.8,1790.0 1610.6,1777.3 1595.1,1765.6 1579.2,1754.9 1563.0,1745.3 1546.5,1736.8 1529.7,1729.5 1512.7,1723.3 1495.4,1718.3 1477.9,1714.6 1460.2,1712.0 1442.4,1710.7 1424.4,1710.5 1406.3,1711.6 1388.1,1713.9 1369.9,1717.3 1351.6,1721.9 1333.4,1727.6 1315.2,1734.4 1297.0,1742.3 1279.0,1751.2 1261.1,1761.0 1243.3,1771.7 1225.7,1783.2 1208.4,1795.5 1191.4,1808.5 1174.7,1822.1 1158.3,1836.2 1142.3,1850.7 1126.7,1865.6  A 522.500,522.500 0.00 0,1 1102.3,1838.9 L 1102.3,1838.9 1119.1,1824.9 1136.3,1811.3 1154.0,1798.1 1172.0,1785.5 1190.3,1773.4 1208.9,1762.1 1227.7,1751.4 1246.8,1741.6 1266.0,1732.6 1285.4,1724.6 1304.9,1717.5 1324.5,1711.4 1344.2,1706.3 1363.8,1702.3 1383.5,1699.4 1403.1,1697.6 1422.6,1697.0 1442.0,1697.4 1461.3,1699.1 1480.5,1701.9 1499.4,1705.8 1518.2,1710.8 1536.7,1717.0 1555.0,1724.3 1573.0,1732.7 1590.7,1742.1 1608.1,1752.6 1625.1,1764.0 1641.8,1776.3 1658.1,1789.6 1674.0,1803.7 1689.5,1818.5 1704.5,1834.1 1719.1,1850.3 1733.3,1867.0 1746.9,1884.3 1760.1,1901.9 1772.7,1919.8 1784.9,1938.0  Z" style="stroke-width: 0.5;  stroke: rgb(0,0,0); fill: rgb(179,177,178);" />
<path d="M 1565.842,981.665 A 522.500,522.500 0.00 0,1 1598.5,986.9 L 1598.5,986.9 1594.1,1008.6 1589.1,1030.4 1583.5,1052.1 1577.2,1073.7 1570.3,1095.1 1562.8,1116.3 1554.6,1137.0 1545.7,1157.4 1536.1,1177.3 1525.8,1196.6 1514.8,1215.4 1503.1,1233.6 1490.7,1251.1 1477.6,1267.9 1463.7,1283.9 1449.2,1299.2 1434.1,1313.6 1418.2,1327.2 1401.8,1339.9 1384.6,1351.8 1366.9,1362.7 1348.6,1372.8 1329.8,1381.9 1310.4,1390.1 1290.6,1397.4 1270.2,1403.8 1249.5,1409.3 1228.4,1413.9 1206.9,1417.6 1185.2,1420.4 1163.2,1422.4 1141.0,1423.6 1118.7,1424.0 1096.2,1423.6 1073.8,1422.5 1051.4,1420.8 1029.1,1418.4 1006.9,1415.5 985.0,1412.0  A 522.500,522.500 0.00 0,1 991.7,1379.0 L 991.7,1379.0 1013.1,1383.8 1034.7,1388.1 1056.4,1391.9 1078.3,1394.9 1100.1,1397.4 1122.0,1399.0 1143.7,1399.9 1165.2,1400.0 1186.6,1399.3 1207.7,1397.7 1228.4,1395.2 1248.8,1391.7 1268.8,1387.3 1288.3,1382.0 1307.4,1375.7 1325.9,1368.4 1343.8,1360.2 1361.2,1350.9 1377.9,1340.7 1394.0,1329.6 1409.4,1317.5 1424.1,1304.5 1438.2,1290.7 1451.5,1275.9 1464.1,1260.3 1476.0,1243.9 1487.1,1226.8 1497.5,1208.9 1507.2,1190.4 1516.2,1171.2 1524.4,1151.5 1531.9,1131.3 1538.7,1110.6 1544.8,1089.6 1550.3,1068.3 1555.1,1046.7 1559.2,1025.1 1562.8,1003.4 1565.8,981.7  Z" style="stroke-width: 0.5;  stroke: rgb(0,0,0); fill: rgb(179,177,178);" />
<path d="M 1619.723,991.401 A 522.500,522.500 0.00 0,1 1651.6,1000.0 L 1651.6,1000.0 1644.8,1021.7 1637.4,1043.4 1629.4,1065.1 1620.7,1086.6 1611.5,1107.9 1601.7,1129.0 1591.2,1149.8 1580.0,1170.3 1568.3,1190.3 1555.8,1209.9 1542.8,1228.9 1529.0,1247.4 1514.7,1265.3 1499.6,1282.6 1484.0,1299.2 1467.7,1315.2 1450.9,1330.4 1433.4,1344.9 1415.4,1358.6 1396.8,1371.6 1377.6,1383.7 1358.0,1395.1 1337.9,1405.6 1317.3,1415.3 1296.2,1424.2 1274.8,1432.3 1253.0,1439.6 1230.9,1446.0 1208.5,1451.7 1185.8,1456.6 1163.0,1460.7 1140.0,1464.0 1116.8,1466.6 1093.6,1468.6 1070.4,1469.8 1047.2,1470.4 1024.1,1470.4 1001.2,1469.8 978.4,1468.7  A 522.500,522.500 0.00 0,1 981.4,1435.9 L 981.4,1435.9 1003.7,1438.4 1026.2,1440.3 1048.9,1441.7 1071.7,1442.5 1094.5,1442.6 1117.2,1442.0 1139.9,1440.6 1162.5,1438.5 1184.9,1435.6 1207.0,1431.9 1228.9,1427.4 1250.5,1422.0 1271.6,1415.8 1292.4,1408.6 1312.8,1400.6 1332.7,1391.8 1352.1,1382.0 1371.0,1371.4 1389.3,1359.9 1407.0,1347.5 1424.1,1334.3 1440.6,1320.3 1456.5,1305.5 1471.7,1290.0 1486.3,1273.6 1500.2,1256.6 1513.4,1238.9 1525.9,1220.5 1537.8,1201.6 1548.9,1182.1 1559.4,1162.1 1569.2,1141.7 1578.3,1120.9 1586.8,1099.7 1594.6,1078.3 1601.8,1056.7 1608.4,1035.0 1614.3,1013.2 1619.7,991.4  Z" style="stroke-width: 0.5;  stroke: rgb(0,0,0); fill: rgb(179,177,178);" />
<path d="M 1726.383,1970.911 A 522.500,522.500 0.00 0,1 1697.0,1983.9 L 1697.0,1983.9 1688.9,1964.5 1680.2,1945.2 1671.2,1926.3 1661.6,1907.7 1651.7,1889.7 1641.3,1872.2 1630.4,1855.5 1619.2,1839.5 1607.6,1824.4 1595.6,1810.2 1583.2,1797.0 1570.4,1784.9 1557.3,1773.9 1543.9,1764.1 1530.2,1755.4 1516.2,1748.0 1501.9,1741.8 1487.3,1737.0 1472.6,1733.4 1457.6,1731.2 1442.4,1730.2 1427.1,1730.6 1411.6,1732.3 1396.0,1735.2 1380.4,1739.5 1364.7,1744.9 1348.9,1751.6 1333.2,1759.5 1317.4,1768.4 1301.8,1778.4 1286.2,1789.4 1270.8,1801.4 1255.5,1814.2 1240.5,1827.8 1225.6,1842.2 1211.1,1857.1 1196.8,1872.6 1182.9,1888.4 1169.4,1904.6  A 522.500,522.500 0.00 0,1 1145.2,1883.6 L 1145.2,1883.6 1159.8,1868.1 1174.9,1852.9 1190.3,1838.2 1206.1,1824.0 1222.2,1810.4 1238.5,1797.5 1255.0,1785.4 1271.7,1774.1 1288.6,1763.8 1305.6,1754.4 1322.6,1746.1 1339.7,1738.8 1356.9,1732.7 1374.0,1727.7 1391.0,1724.0 1408.0,1721.4 1424.9,1720.1 1441.7,1720.1 1458.3,1721.3 1474.8,1723.7 1491.0,1727.5 1507.0,1732.5 1522.8,1738.7 1538.3,1746.1 1553.5,1754.7 1568.4,1764.5 1583.0,1775.4 1597.2,1787.4 1611.0,1800.3 1624.5,1814.3 1637.6,1829.1 1650.3,1844.8 1662.5,1861.3 1674.3,1878.4 1685.7,1896.1 1696.6,1914.3 1707.0,1932.9 1716.9,1951.8 1726.4,1970.9  Z" style="stroke-width: 0.5;  stroke: rgb(0,0,0); fill: rgb(179,177,178);" />
<path d="M 1748.254,1959.757 A 522.500,522.500 0.00 0,1 1726.4,1970.9 L 1726.4,1970.9 1716.9,1951.8 1707.0,1932.9 1696.6,1914.3 1685.7,1896.1 1674.3,1878.3 1662.5,1861.2 1650.2,1844.8 1637.6,1829.1 1624.5,1814.2 1611.0,1800.3 1597.1,1787.3 1582.9,1775.3 1568.3,1764.4 1553.4,1754.6 1538.2,1746.0 1522.7,1738.5 1506.9,1732.3 1490.8,1727.3 1474.6,1723.5 1458.1,1721.0 1441.5,1719.8 1424.7,1719.8 1407.8,1721.1 1390.7,1723.7 1373.6,1727.4 1356.5,1732.3 1339.3,1738.4 1322.2,1745.7 1305.1,1754.0 1288.1,1763.3 1271.2,1773.6 1254.4,1784.9 1237.9,1796.9 1221.5,1809.8 1205.4,1823.4 1189.6,1837.5 1174.2,1852.2 1159.1,1867.3 1144.4,1882.8  A 522.500,522.500 0.00 0,1 1127.1,1866.0 L 1127.1,1866.0 1142.6,1851.1 1158.5,1836.5 1174.9,1822.4 1191.6,1808.8 1208.5,1795.9 1225.8,1783.6 1243.3,1772.1 1261.0,1761.4 1278.8,1751.6 1296.8,1742.8 1314.8,1735.0 1333.0,1728.2 1351.1,1722.5 1369.2,1718.0 1387.4,1714.6 1405.4,1712.4 1423.4,1711.3 1441.2,1711.6 1458.9,1713.0 1476.4,1715.6 1493.7,1719.5 1510.8,1724.6 1527.7,1730.8 1544.3,1738.3 1560.6,1746.9 1576.6,1756.6 1592.2,1767.3 1607.5,1779.2 1622.5,1792.0 1637.0,1805.7 1651.2,1820.3 1664.9,1835.7 1678.2,1851.9 1691.1,1868.7 1703.5,1886.1 1715.4,1904.0 1726.9,1922.3 1737.8,1941.0 1748.3,1959.8  Z" style="stroke-width: 0.5;  stroke: rgb(0,0,0); fill: rgb(179,177,178);" />
<path d="M 1542.777,979.254 A 522.500,522.500 0.00 0,1 1560.6,981.0 L 1560.6,981.0 1557.8,1002.7 1554.5,1024.4 1550.5,1046.1 1545.9,1067.6 1540.7,1088.9 1534.8,1109.9 1528.2,1130.5 1521.0,1150.7 1513.0,1170.4 1504.3,1189.5 1494.8,1208.0 1484.6,1225.8 1473.7,1242.9 1462.0,1259.2 1449.6,1274.7 1436.4,1289.4 1422.6,1303.2 1408.0,1316.1 1392.8,1328.1 1376.8,1339.1 1360.3,1349.1 1343.1,1358.2 1325.3,1366.3 1306.9,1373.5 1288.0,1379.6 1268.7,1384.8 1248.8,1389.0 1228.5,1392.3 1207.9,1394.6 1186.9,1396.0 1165.7,1396.6 1144.2,1396.3 1122.6,1395.2 1100.9,1393.3 1079.1,1390.7 1057.4,1387.4 1035.7,1383.5 1014.2,1378.9 992.9,1373.9  A 522.500,522.500 0.00 0,1 997.6,1356.6 L 997.6,1356.6 1018.5,1362.3 1039.7,1367.5 1061.0,1372.1 1082.4,1376.1 1103.8,1379.4 1125.2,1382.0 1146.4,1383.8 1167.5,1384.8 1188.4,1384.9 1208.9,1384.1 1229.1,1382.4 1249.0,1379.8 1268.4,1376.2 1287.3,1371.5 1305.7,1365.9 1323.5,1359.3 1340.8,1351.7 1357.4,1343.1 1373.4,1333.5 1388.7,1322.9 1403.4,1311.3 1417.3,1298.7 1430.5,1285.3 1443.0,1270.9 1454.7,1255.7 1465.7,1239.6 1475.9,1222.7 1485.4,1205.1 1494.1,1186.8 1502.1,1167.8 1509.3,1148.2 1515.8,1128.2 1521.6,1107.6 1526.7,1086.7 1531.2,1065.5 1535.0,1044.1 1538.2,1022.5 1540.7,1000.9 1542.8,979.3  Z" style="stroke-width: 0.5;  stroke: rgb(0,0,0); fill: rgb(179,177,178);" />
<path d="M 1895.265,1841.719 A 522.500,522.500 0.00 0,1 1890.3,1847.4 L 1890.3,1847.4 1872.8,1832.1 1854.8,1817.1 1836.3,1802.4 1817.4,1788.1 1798.0,1774.1 1778.2,1760.7 1758.0,1747.7 1737.4,1735.3 1716.5,1723.5 1695.1,1712.3 1673.5,1701.8 1651.6,1692.0 1629.3,1683.0 1606.8,1674.6 1584.1,1667.1 1561.1,1660.4 1537.9,1654.4 1514.5,1649.3 1491.0,1645.0 1467.3,1641.6 1443.6,1639.0 1419.7,1637.2 1395.8,1636.3 1371.8,1636.2 1347.9,1637.0 1323.9,1638.6 1300.0,1640.9 1276.2,1644.1 1252.5,1648.0 1228.9,1652.6 1205.4,1657.9 1182.1,1664.0 1159.1,1670.6 1136.3,1677.9 1113.7,1685.7 1091.5,1694.1 1069.6,1702.9 1048.1,1712.2 1026.9,1721.8  A 522.500,522.500 0.00 0,1 1023.9,1715.2 L 1023.9,1715.2 1045.2,1705.8 1066.9,1696.8 1089.0,1688.2 1111.5,1680.1 1134.2,1672.5 1157.2,1665.5 1180.4,1659.0 1203.9,1653.2 1227.5,1648.1 1251.3,1643.6 1275.2,1639.9 1299.2,1636.9 1323.3,1634.7 1347.4,1633.3 1371.5,1632.7 1395.7,1632.8 1419.8,1633.8 1443.8,1635.6 1467.7,1638.3 1491.6,1641.7 1515.3,1646.0 1538.9,1651.1 1562.3,1657.0 1585.4,1663.7 1608.4,1671.2 1631.1,1679.4 1653.6,1688.4 1675.7,1698.1 1697.6,1708.5 1719.1,1719.5 1740.3,1731.1 1761.2,1743.4 1781.6,1756.2 1801.6,1769.4 1821.3,1783.2 1840.5,1797.3 1859.2,1811.8 1877.5,1826.7 1895.3,1841.7  Z" style="stroke-width: 0.5;  stroke: rgb(0,0,0); fill: rgb(179,177,178);" />
</g>
<g id="plot0">
<g id="plot0-axis">
</g>
<line x1='2243.1' y1='1601.4' x2='2243.1' y2='1601.4' style="stroke-width:14.0;stroke:rgb(0,0,0);stroke-linecap:round;fill:none;" />
<line x1='2243.1' y1='1601.4' x2='2282.7' y2='1606.8' style="stroke-width:14.0;stroke:rgb(0,0,0);stroke-linecap:round;fill:none;" />
<line x1='2282.7' y1='1606.8' x2='2282.7' y2='1606.8' style="stroke-width:14.0;stroke:rgb(0,0,0);stroke-linecap:round;fill:none;" />
<text x="2299.2" y="1631.8" font-size="46.8px" font-family="CMUBright-Roman" style="text-anchor:start;fill:rgb(255,38,78);" transform="rotate(7.8,2299.2,1631.8)" >HistomissSECH87<tspan baseline-shift="-40%" font-size="90%">s</tspan>02498</text>
</g>
<defs>
<pattern id="checker" width="10" height="10" patternTransform="rotate(45 0 0)" patternUnits="userSpaceOnUse"><line x1="0" y1="0" x2="10" y2="0" style="stroke:black;stroke-width:5" /><line x1="0" y1="0" x2="0" y2="10" style="stroke:black;stroke-width:4" /></pattern>
<pattern id="vline" width="10" height="10" patternTransform="rotate(0 0 0)" patternUnits="userSpaceOnUse"><line x1="0" y1="0" x2="0" y2="10" style="stroke:black;stroke-width:5" /></pattern>
<pattern id="vline-sparse" width="10" height="10" patternTransform="rotate(0 0 0)" patternUnits="userSpaceOnUse"><line x1="0" y1="0" x2="0" y2="10" style="stroke:black;stroke-width:2" /></pattern>
<pattern id="hline-sparse" width="10" height="10" patternTransform="rotate(0 0 0)" patternUnits="userSpaceOnUse"><line x1="0" y1="0" x2="10" y2="0" style="stroke:black;stroke-width:2" /></pattern>
<pattern id="checker" width="10" height="10" patternTransform="rotate(45 0 0)" patternUnits="userSpaceOnUse"><line x1="0" y1="0" x2="10" y2="0" style="stroke:black;stroke-width:2" /><line x1="0" y1="0" x2="0" y2="10" style="stroke:black;stroke-width:2" /></pattern>
<pattern id="hline" width="10" height="10" patternTransform="rotate(0 0 0)" patternUnits="userSpaceOnUse"><line x1="0" y1="0" x2="10" y2="0" style="stroke:black;stroke-width:5" /></pattern>
</defs>
</svg>
