<?xml version="1.0" encoding="utf-8" standalone="no"?>
<!DOCTYPE svg PUBLIC "-//W3C//DTD SVG 1.1//EN" "http://www.w3.org/Graphics/SVG/1.1/DTD/svg11.dtd">
<svg width="3000px" height="3000px" version="1.1" xmlns="http://www.w3.org/2000/svg" xmlns:xlink="http://www.w3.org/1999/xlink">
<g id="bg">
<rect x="0" y="0" width="3000px" height="3000px" style="fill:rgb(255,255,255);"/>
</g>
<g id="ideograms">
<path d="M1500.000,950.000 A550.000,550.000 40.000 1,1 952.102,1451.966 L752.866,1434.499 A750.000,750.000 0.000 1,0 1500.000,750.000 Z" style="stroke-width:2.0;stroke:rgb(0,0,0);stroke-linecap:round;fill:rgb(179,177,178);" />
<text x="2189.0" y="2252.1" font-size="46.8px" font-family="CMUBright-Roman" style="text-anchor:middle;fill:rgb(0,0,0);" transform="rotate(-42.5,2189.0,2252.1)" >HistomissWU24<tspan baseline-shift="-40%" font-size="90%">C</tspan>P069114</text>
<line x1='1526.1' y1='750.5' x2='1526.6' y2='738.5' style="stroke-width:8.0;stroke:rgb(150,150,150);stroke-linecap:round;fill:none;" />
<line x1='1568.5' y1='753.1' x2='1569.6' y2='741.2' style="stroke-width:8.0;stroke:rgb(150,150,150);stroke-linecap:round;fill:none;" />
<line x1='1610.7' y1='758.2' x2='1612.5' y2='746.3' style="stroke-width:8.0;stroke:rgb(150,150,150);stroke-linecap:round;fill:none;" />
<text x="1628.1" y="736.7" font-size="41.6px" font-family="CMUBright-Roman" style="text-anchor:start;fill:rgb(150,150,150);" transform="rotate(278.5,1628.1,736.7)" >2650 kb</text>
<line x1='1652.5' y1='765.7' x2='1654.9' y2='753.9' style="stroke-width:8.0;stroke:rgb(150,150,150);stroke-linecap:round;fill:none;" />
<line x1='1693.8' y1='775.5' x2='1696.9' y2='763.9' style="stroke-width:8.0;stroke:rgb(150,150,150);stroke-linecap:round;fill:none;" />
<line x1='1734.5' y1='787.6' x2='1738.3' y2='776.2' style="stroke-width:8.0;stroke:rgb(150,150,150);stroke-linecap:round;fill:none;" />
<line x1='1774.4' y1='802.0' x2='1778.8' y2='790.9' style="stroke-width:8.0;stroke:rgb(150,150,150);stroke-linecap:round;fill:none;" />
<line x1='1813.5' y1='818.7' x2='1818.5' y2='807.8' style="stroke-width:8.0;stroke:rgb(150,150,150);stroke-linecap:round;fill:none;" />
<text x="1836.2" y="802.8" font-size="41.6px" font-family="CMUBright-Roman" style="text-anchor:start;fill:rgb(150,150,150);" transform="rotate(294.7,1836.2,802.8)" >2700 kb</text>
<line x1='1851.6' y1='837.5' x2='1857.2' y2='826.9' style="stroke-width:8.0;stroke:rgb(150,150,150);stroke-linecap:round;fill:none;" />
<line x1='1888.5' y1='858.5' x2='1894.7' y2='848.2' style="stroke-width:8.0;stroke:rgb(150,150,150);stroke-linecap:round;fill:none;" />
<line x1='1924.2' y1='881.5' x2='1931.0' y2='871.6' style="stroke-width:8.0;stroke:rgb(150,150,150);stroke-linecap:round;fill:none;" />
<line x1='1958.5' y1='906.5' x2='1965.9' y2='897.0' style="stroke-width:8.0;stroke:rgb(150,150,150);stroke-linecap:round;fill:none;" />
<line x1='1991.4' y1='933.4' x2='1999.2' y2='924.3' style="stroke-width:8.0;stroke:rgb(150,150,150);stroke-linecap:round;fill:none;" />
<text x="2017.6" y="924.5" font-size="41.6px" font-family="CMUBright-Roman" style="text-anchor:start;fill:rgb(150,150,150);" transform="rotate(310.9,2017.6,924.5)" >2750 kb</text>
<line x1='2022.7' y1='962.1' x2='2031.0' y2='953.5' style="stroke-width:8.0;stroke:rgb(150,150,150);stroke-linecap:round;fill:none;" />
<line x1='2052.3' y1='992.5' x2='2061.1' y2='984.4' style="stroke-width:8.0;stroke:rgb(150,150,150);stroke-linecap:round;fill:none;" />
<line x1='2080.1' y1='1024.6' x2='2089.4' y2='1017.0' style="stroke-width:8.0;stroke:rgb(150,150,150);stroke-linecap:round;fill:none;" />
<line x1='2106.1' y1='1058.2' x2='2115.8' y2='1051.1' style="stroke-width:8.0;stroke:rgb(150,150,150);stroke-linecap:round;fill:none;" />
<line x1='2130.1' y1='1093.2' x2='2140.2' y2='1086.7' style="stroke-width:8.0;stroke:rgb(150,150,150);stroke-linecap:round;fill:none;" />
<text x="2157.8" y="1092.0" font-size="41.6px" font-family="CMUBright-Roman" style="text-anchor:start;fill:rgb(150,150,150);" transform="rotate(327.2,2157.8,1092.0)" >2800 kb</text>
<line x1='2152.1' y1='1129.5' x2='2162.6' y2='1123.6' style="stroke-width:8.0;stroke:rgb(150,150,150);stroke-linecap:round;fill:none;" />
<line x1='2172.0' y1='1167.0' x2='2182.8' y2='1161.7' style="stroke-width:8.0;stroke:rgb(150,150,150);stroke-linecap:round;fill:none;" />
<line x1='2189.8' y1='1205.6' x2='2200.8' y2='1200.9' style="stroke-width:8.0;stroke:rgb(150,150,150);stroke-linecap:round;fill:none;" />
<line x1='2205.4' y1='1245.1' x2='2216.7' y2='1241.0' style="stroke-width:8.0;stroke:rgb(150,150,150);stroke-linecap:round;fill:none;" />
<line x1='2218.7' y1='1285.5' x2='2230.2' y2='1282.0' style="stroke-width:8.0;stroke:rgb(150,150,150);stroke-linecap:round;fill:none;" />
<text x="2245.5" y="1292.0" font-size="41.6px" font-family="CMUBright-Roman" style="text-anchor:start;fill:rgb(150,150,150);" transform="rotate(343.4,2245.5,1292.0)" >2850 kb</text>
<line x1='2229.7' y1='1326.5' x2='2241.3' y2='1323.7' style="stroke-width:8.0;stroke:rgb(150,150,150);stroke-linecap:round;fill:none;" />
<line x1='2238.3' y1='1368.1' x2='2250.1' y2='1365.9' style="stroke-width:8.0;stroke:rgb(150,150,150);stroke-linecap:round;fill:none;" />
<line x1='2244.6' y1='1410.1' x2='2256.5' y2='1408.6' style="stroke-width:8.0;stroke:rgb(150,150,150);stroke-linecap:round;fill:none;" />
<line x1='2248.5' y1='1452.3' x2='2260.5' y2='1451.6' style="stroke-width:8.0;stroke:rgb(150,150,150);stroke-linecap:round;fill:none;" />
<line x1='2250.0' y1='1494.8' x2='2262.0' y2='1494.7' style="stroke-width:8.0;stroke:rgb(150,150,150);stroke-linecap:round;fill:none;" />
<text x="2274.0" y="1508.6" font-size="41.6px" font-family="CMUBright-Roman" style="text-anchor:start;fill:rgb(150,150,150);" transform="rotate(359.6,2274.0,1508.6)" >2900 kb</text>
<line x1='2249.1' y1='1537.2' x2='2261.1' y2='1537.8' style="stroke-width:8.0;stroke:rgb(150,150,150);stroke-linecap:round;fill:none;" />
<line x1='2245.8' y1='1579.6' x2='2257.7' y2='1580.8' style="stroke-width:8.0;stroke:rgb(150,150,150);stroke-linecap:round;fill:none;" />
<line x1='2240.1' y1='1621.7' x2='2251.9' y2='1623.6' style="stroke-width:8.0;stroke:rgb(150,150,150);stroke-linecap:round;fill:none;" />
<line x1='2232.0' y1='1663.3' x2='2243.7' y2='1666.0' style="stroke-width:8.0;stroke:rgb(150,150,150);stroke-linecap:round;fill:none;" />
<line x1='2221.6' y1='1704.5' x2='2233.1' y2='1707.8' style="stroke-width:8.0;stroke:rgb(150,150,150);stroke-linecap:round;fill:none;" />
<text x="2240.7" y="1724.5" font-size="41.6px" font-family="CMUBright-Roman" style="text-anchor:start;fill:rgb(150,150,150);" transform="rotate(15.8,2240.7,1724.5)" >2950 kb</text>
<line x1='2208.8' y1='1745.0' x2='2220.2' y2='1748.9' style="stroke-width:8.0;stroke:rgb(150,150,150);stroke-linecap:round;fill:none;" />
<line x1='2193.8' y1='1784.7' x2='2204.9' y2='1789.3' style="stroke-width:8.0;stroke:rgb(150,150,150);stroke-linecap:round;fill:none;" />
<line x1='2176.6' y1='1823.6' x2='2187.4' y2='1828.7' style="stroke-width:8.0;stroke:rgb(150,150,150);stroke-linecap:round;fill:none;" />
<line x1='2157.2' y1='1861.3' x2='2167.7' y2='1867.1' style="stroke-width:8.0;stroke:rgb(150,150,150);stroke-linecap:round;fill:none;" />
<line x1='2135.7' y1='1898.0' x2='2145.9' y2='1904.3' style="stroke-width:8.0;stroke:rgb(150,150,150);stroke-linecap:round;fill:none;" />
<text x="2148.5" y="1922.5" font-size="41.6px" font-family="CMUBright-Roman" style="text-anchor:start;fill:rgb(150,150,150);" transform="rotate(32.0,2148.5,1922.5)" >3000 kb</text>
<line x1='2112.2' y1='1933.3' x2='2122.0' y2='1940.2' style="stroke-width:8.0;stroke:rgb(150,150,150);stroke-linecap:round;fill:none;" />
<line x1='2086.7' y1='1967.3' x2='2096.1' y2='1974.7' style="stroke-width:8.0;stroke:rgb(150,150,150);stroke-linecap:round;fill:none;" />
<line x1='2059.3' y1='1999.7' x2='2068.2' y2='2007.7' style="stroke-width:8.0;stroke:rgb(150,150,150);stroke-linecap:round;fill:none;" />
<line x1='2030.1' y1='2030.6' x2='2038.6' y2='2039.1' style="stroke-width:8.0;stroke:rgb(150,150,150);stroke-linecap:round;fill:none;" />
<line x1='1999.2' y1='2059.7' x2='2007.2' y2='2068.7' style="stroke-width:8.0;stroke:rgb(150,150,150);stroke-linecap:round;fill:none;" />
<text x="2004.7" y="2086.8" font-size="41.6px" font-family="CMUBright-Roman" style="text-anchor:start;fill:rgb(150,150,150);" transform="rotate(48.3,2004.7,2086.8)" >3050 kb</text>
<line x1='1966.7' y1='2087.1' x2='1974.2' y2='2096.5' style="stroke-width:8.0;stroke:rgb(150,150,150);stroke-linecap:round;fill:none;" />
<line x1='1932.8' y1='2112.5' x2='1939.7' y2='2122.3' style="stroke-width:8.0;stroke:rgb(150,150,150);stroke-linecap:round;fill:none;" />
<line x1='1897.4' y1='2136.1' x2='1903.8' y2='2146.2' style="stroke-width:8.0;stroke:rgb(150,150,150);stroke-linecap:round;fill:none;" />
<line x1='1860.8' y1='2157.5' x2='1866.5' y2='2168.1' style="stroke-width:8.0;stroke:rgb(150,150,150);stroke-linecap:round;fill:none;" />
<line x1='1823.0' y1='2176.9' x2='1828.1' y2='2187.7' style="stroke-width:8.0;stroke:rgb(150,150,150);stroke-linecap:round;fill:none;" />
<text x="1820.6" y="2204.5" font-size="41.6px" font-family="CMUBright-Roman" style="text-anchor:start;fill:rgb(150,150,150);" transform="rotate(64.5,1820.6,2204.5)" >3100 kb</text>
<line x1='1784.1' y1='2194.1' x2='1788.7' y2='2205.2' style="stroke-width:8.0;stroke:rgb(150,150,150);stroke-linecap:round;fill:none;" />
<line x1='1744.4' y1='2209.1' x2='1748.3' y2='2220.4' style="stroke-width:8.0;stroke:rgb(150,150,150);stroke-linecap:round;fill:none;" />
<line x1='1703.9' y1='2221.8' x2='1707.1' y2='2233.3' style="stroke-width:8.0;stroke:rgb(150,150,150);stroke-linecap:round;fill:none;" />
<line x1='1662.7' y1='2232.1' x2='1665.3' y2='2243.9' style="stroke-width:8.0;stroke:rgb(150,150,150);stroke-linecap:round;fill:none;" />
<line x1='1621.0' y1='2240.2' x2='1622.9' y2='2252.0' style="stroke-width:8.0;stroke:rgb(150,150,150);stroke-linecap:round;fill:none;" />
<text x="1611.0" y="2266.0" font-size="41.6px" font-family="CMUBright-Roman" style="text-anchor:start;fill:rgb(150,150,150);" transform="rotate(80.7,1611.0,2266.0)" >3150 kb</text>
<line x1='1578.9' y1='2245.8' x2='1580.2' y2='2257.8' style="stroke-width:8.0;stroke:rgb(150,150,150);stroke-linecap:round;fill:none;" />
<line x1='1536.6' y1='2249.1' x2='1537.2' y2='2261.1' style="stroke-width:8.0;stroke:rgb(150,150,150);stroke-linecap:round;fill:none;" />
<line x1='1494.1' y1='2250.0' x2='1494.0' y2='2262.0' style="stroke-width:8.0;stroke:rgb(150,150,150);stroke-linecap:round;fill:none;" />
<line x1='1451.7' y1='2248.4' x2='1450.9' y2='2260.4' style="stroke-width:8.0;stroke:rgb(150,150,150);stroke-linecap:round;fill:none;" />
<line x1='1409.4' y1='2244.5' x2='1408.0' y2='2256.4' style="stroke-width:8.0;stroke:rgb(150,150,150);stroke-linecap:round;fill:none;" />
<text x="1420.4" y="2269.9" font-size="41.6px" font-family="CMUBright-Roman" style="text-anchor:end;fill:rgb(150,150,150);" transform="rotate(-83.1,1420.4,2269.9)" >3200 kb</text>
<line x1='1367.4' y1='2238.2' x2='1365.3' y2='2250.0' style="stroke-width:8.0;stroke:rgb(150,150,150);stroke-linecap:round;fill:none;" />
<line x1='1325.8' y1='2229.5' x2='1323.1' y2='2241.2' style="stroke-width:8.0;stroke:rgb(150,150,150);stroke-linecap:round;fill:none;" />
<line x1='1284.8' y1='2218.5' x2='1281.4' y2='2230.0' style="stroke-width:8.0;stroke:rgb(150,150,150);stroke-linecap:round;fill:none;" />
<line x1='1244.5' y1='2205.1' x2='1240.4' y2='2216.4' style="stroke-width:8.0;stroke:rgb(150,150,150);stroke-linecap:round;fill:none;" />
<line x1='1205.0' y1='2189.6' x2='1200.3' y2='2200.6' style="stroke-width:8.0;stroke:rgb(150,150,150);stroke-linecap:round;fill:none;" />
<text x="1208.5" y="2217.0" font-size="41.6px" font-family="CMUBright-Roman" style="text-anchor:end;fill:rgb(150,150,150);" transform="rotate(-66.8,1208.5,2217.0)" >3250 kb</text>
<line x1='1166.5' y1='2171.8' x2='1161.1' y2='2182.5' style="stroke-width:8.0;stroke:rgb(150,150,150);stroke-linecap:round;fill:none;" />
<line x1='1129.0' y1='2151.8' x2='1123.0' y2='2162.2' style="stroke-width:8.0;stroke:rgb(150,150,150);stroke-linecap:round;fill:none;" />
<line x1='1092.7' y1='2129.8' x2='1086.2' y2='2139.8' style="stroke-width:8.0;stroke:rgb(150,150,150);stroke-linecap:round;fill:none;" />
<line x1='1057.7' y1='2105.7' x2='1050.6' y2='2115.4' style="stroke-width:8.0;stroke:rgb(150,150,150);stroke-linecap:round;fill:none;" />
<line x1='1024.1' y1='2079.7' x2='1016.5' y2='2089.0' style="stroke-width:8.0;stroke:rgb(150,150,150);stroke-linecap:round;fill:none;" />
<text x="1019.8" y="2107.0" font-size="41.6px" font-family="CMUBright-Roman" style="text-anchor:end;fill:rgb(150,150,150);" transform="rotate(-50.6,1019.8,2107.0)" >3300 kb</text>
<line x1='992.1' y1='2051.8' x2='983.9' y2='2060.6' style="stroke-width:8.0;stroke:rgb(150,150,150);stroke-linecap:round;fill:none;" />
<line x1='961.7' y1='2022.2' x2='953.0' y2='2030.5' style="stroke-width:8.0;stroke:rgb(150,150,150);stroke-linecap:round;fill:none;" />
<line x1='933.0' y1='1990.9' x2='923.9' y2='1998.7' style="stroke-width:8.0;stroke:rgb(150,150,150);stroke-linecap:round;fill:none;" />
<line x1='906.1' y1='1958.0' x2='896.6' y2='1965.3' style="stroke-width:8.0;stroke:rgb(150,150,150);stroke-linecap:round;fill:none;" />
<line x1='881.1' y1='1923.7' x2='871.2' y2='1930.4' style="stroke-width:8.0;stroke:rgb(150,150,150);stroke-linecap:round;fill:none;" />
<text x="869.3" y="1948.7" font-size="41.6px" font-family="CMUBright-Roman" style="text-anchor:end;fill:rgb(150,150,150);" transform="rotate(-34.4,869.3,1948.7)" >3350 kb</text>
<line x1='858.1' y1='1887.9' x2='847.9' y2='1894.2' style="stroke-width:8.0;stroke:rgb(150,150,150);stroke-linecap:round;fill:none;" />
<line x1='837.2' y1='1851.0' x2='826.6' y2='1856.6' style="stroke-width:8.0;stroke:rgb(150,150,150);stroke-linecap:round;fill:none;" />
<line x1='818.4' y1='1812.9' x2='807.5' y2='1817.9' style="stroke-width:8.0;stroke:rgb(150,150,150);stroke-linecap:round;fill:none;" />
<line x1='801.8' y1='1773.8' x2='790.6' y2='1778.2' style="stroke-width:8.0;stroke:rgb(150,150,150);stroke-linecap:round;fill:none;" />
<line x1='787.4' y1='1733.9' x2='776.0' y2='1737.6' style="stroke-width:8.0;stroke:rgb(150,150,150);stroke-linecap:round;fill:none;" />
<text x="769.1" y="1754.6" font-size="41.6px" font-family="CMUBright-Roman" style="text-anchor:end;fill:rgb(150,150,150);" transform="rotate(-18.2,769.1,1754.6)" >3400 kb</text>
<line x1='775.3' y1='1693.2' x2='763.7' y2='1696.3' style="stroke-width:8.0;stroke:rgb(150,150,150);stroke-linecap:round;fill:none;" />
<line x1='765.5' y1='1651.8' x2='753.8' y2='1654.3' style="stroke-width:8.0;stroke:rgb(150,150,150);stroke-linecap:round;fill:none;" />
<line x1='758.1' y1='1610.0' x2='746.2' y2='1611.8' style="stroke-width:8.0;stroke:rgb(150,150,150);stroke-linecap:round;fill:none;" />
<line x1='753.1' y1='1567.9' x2='741.1' y2='1569.0' style="stroke-width:8.0;stroke:rgb(150,150,150);stroke-linecap:round;fill:none;" />
<line x1='750.4' y1='1525.5' x2='738.4' y2='1525.9' style="stroke-width:8.0;stroke:rgb(150,150,150);stroke-linecap:round;fill:none;" />
<text x="727.0" y="1540.3" font-size="41.6px" font-family="CMUBright-Roman" style="text-anchor:end;fill:rgb(150,150,150);" transform="rotate(-1.9,727.0,1540.3)" >3450 kb</text>
<line x1='750.2' y1='1483.0' x2='738.2' y2='1482.7' style="stroke-width:8.0;stroke:rgb(150,150,150);stroke-linecap:round;fill:none;" />
<line x1='752.4' y1='1440.6' x2='740.4' y2='1439.7' style="stroke-width:8.0;stroke:rgb(150,150,150);stroke-linecap:round;fill:none;" />
<g id="highlighttrack_0">
<path d="M1795.076,1035.855 A550.000,550.000 40.000 1,1 1011.858,1753.412 L834.352,1845.562 A750.000,750.000 0.000 1,0 1902.376,867.075 Z" style="stroke-width:14.0;stroke:rgb(0,0,0);stroke-linecap:round;fill:rgb(255,38,78);" />
</g>
<path d="M1500.000,950.000 A550.000,550.000 40.000 1,1 952.102,1451.966 L752.866,1434.499 A750.000,750.000 0.000 1,0 1500.000,750.000 Z" style="stroke-width:2.0;stroke:rgb(0,0,0);stroke-linecap:round;fill:none;" />
<path d="M968.110,1360.025 A550.000,550.000 40.000 0,1 1407.012,957.918 L1373.198,760.797 A750.000,750.000 0.000 0,0 774.696,1309.124 Z" style="stroke-width:2.0;stroke:rgb(0,0,0);stroke-linecap:round;fill:rgb(179,177,178);" />
<text x="841.4" y="781.1" font-size="46.8px" font-family="CMUBright-Roman" style="text-anchor:middle;fill:rgb(0,0,0);" transform="rotate(-42.5,841.4,781.1)" >HistoohiSECH96<tspan baseline-shift="-40%" font-size="90%">6</tspan></text>
<line x1='1340.4' y1='767.2' x2='1337.8' y2='755.5' style="stroke-width:8.0;stroke:rgb(150,150,150);stroke-linecap:round;fill:none;" />
<line x1='1299.1' y1='777.4' x2='1295.9' y2='765.8' style="stroke-width:8.0;stroke:rgb(150,150,150);stroke-linecap:round;fill:none;" />
<line x1='1258.6' y1='789.9' x2='1254.7' y2='778.6' style="stroke-width:8.0;stroke:rgb(150,150,150);stroke-linecap:round;fill:none;" />
<line x1='1218.8' y1='804.7' x2='1214.3' y2='793.6' style="stroke-width:8.0;stroke:rgb(150,150,150);stroke-linecap:round;fill:none;" />
<text x="1196.8" y="787.8" font-size="41.6px" font-family="CMUBright-Roman" style="text-anchor:end;fill:rgb(150,150,150);" transform="rotate(68.0,1196.8,787.8)" >2150 kb</text>
<line x1='1179.9' y1='821.8' x2='1174.7' y2='810.9' style="stroke-width:8.0;stroke:rgb(150,150,150);stroke-linecap:round;fill:none;" />
<line x1='1142.0' y1='841.0' x2='1136.3' y2='830.4' style="stroke-width:8.0;stroke:rgb(150,150,150);stroke-linecap:round;fill:none;" />
<line x1='1105.3' y1='862.3' x2='1098.9' y2='852.1' style="stroke-width:8.0;stroke:rgb(150,150,150);stroke-linecap:round;fill:none;" />
<line x1='1069.8' y1='885.7' x2='1062.9' y2='875.8' style="stroke-width:8.0;stroke:rgb(150,150,150);stroke-linecap:round;fill:none;" />
<line x1='1035.7' y1='911.0' x2='1028.3' y2='901.6' style="stroke-width:8.0;stroke:rgb(150,150,150);stroke-linecap:round;fill:none;" />
<text x="1009.9" y="900.9" font-size="41.6px" font-family="CMUBright-Roman" style="text-anchor:end;fill:rgb(150,150,150);" transform="rotate(51.8,1009.9,900.9)" >2200 kb</text>
<line x1='1003.1' y1='938.2' x2='995.2' y2='929.2' style="stroke-width:8.0;stroke:rgb(150,150,150);stroke-linecap:round;fill:none;" />
<line x1='972.1' y1='967.2' x2='963.7' y2='958.7' style="stroke-width:8.0;stroke:rgb(150,150,150);stroke-linecap:round;fill:none;" />
<line x1='942.8' y1='998.0' x2='933.9' y2='989.9' style="stroke-width:8.0;stroke:rgb(150,150,150);stroke-linecap:round;fill:none;" />
<line x1='915.3' y1='1030.3' x2='905.9' y2='1022.8' style="stroke-width:8.0;stroke:rgb(150,150,150);stroke-linecap:round;fill:none;" />
<line x1='889.6' y1='1064.1' x2='879.9' y2='1057.2' style="stroke-width:8.0;stroke:rgb(150,150,150);stroke-linecap:round;fill:none;" />
<text x="862.1" y="1061.7" font-size="41.6px" font-family="CMUBright-Roman" style="text-anchor:end;fill:rgb(150,150,150);" transform="rotate(35.5,862.1,1061.7)" >2250 kb</text>
<line x1='866.0' y1='1099.4' x2='855.8' y2='1093.0' style="stroke-width:8.0;stroke:rgb(150,150,150);stroke-linecap:round;fill:none;" />
<line x1='844.3' y1='1135.9' x2='833.8' y2='1130.1' style="stroke-width:8.0;stroke:rgb(150,150,150);stroke-linecap:round;fill:none;" />
<line x1='824.7' y1='1173.6' x2='813.9' y2='1168.4' style="stroke-width:8.0;stroke:rgb(150,150,150);stroke-linecap:round;fill:none;" />
<line x1='807.4' y1='1212.4' x2='796.3' y2='1207.8' style="stroke-width:8.0;stroke:rgb(150,150,150);stroke-linecap:round;fill:none;" />
<line x1='792.2' y1='1252.0' x2='780.9' y2='1248.1' style="stroke-width:8.0;stroke:rgb(150,150,150);stroke-linecap:round;fill:none;" />
<text x="765.0" y="1257.3" font-size="41.6px" font-family="CMUBright-Roman" style="text-anchor:end;fill:rgb(150,150,150);" transform="rotate(19.3,765.0,1257.3)" >2300 kb</text>
<line x1='779.3' y1='1292.5' x2='767.7' y2='1289.2' style="stroke-width:8.0;stroke:rgb(150,150,150);stroke-linecap:round;fill:none;" />
<path d="M968.110,1360.025 A550.000,550.000 40.000 0,1 1407.012,957.918 L1373.198,760.797 A750.000,750.000 0.000 0,0 774.696,1309.124 Z" style="stroke-width:2.0;stroke:rgb(0,0,0);stroke-linecap:round;fill:none;" />
</g>
<g id="track_0">
<path d="M 1952.281,1238.373 A 522.500,522.500 0.00 0,1 1958.5,1249.4 L 1958.5,1249.4 1938.6,1259.9 1918.3,1270.1 1897.6,1279.8 1876.6,1289.0 1855.3,1297.6 1833.8,1305.5 1812.0,1312.7 1790.1,1319.2 1768.0,1324.9 1745.8,1329.8 1723.6,1333.9 1701.3,1337.0 1679.0,1339.2 1656.8,1340.5 1634.6,1340.9 1612.5,1340.2 1590.5,1338.6 1568.6,1336.0 1546.9,1332.4 1525.4,1327.8 1504.2,1322.3 1483.1,1315.8 1462.4,1308.3 1441.9,1299.8 1421.8,1290.5 1402.0,1280.2 1382.5,1269.1 1363.5,1257.2 1344.8,1244.4 1326.5,1230.9 1308.7,1216.7 1291.3,1201.9 1274.4,1186.4 1258.0,1170.4 1242.0,1153.9 1226.6,1137.0 1211.7,1119.7 1197.3,1102.1 1183.4,1084.3  A 522.500,522.500 0.00 0,0 1173.3,1092.2 L 1173.3,1092.2 1187.6,1109.6 1202.5,1126.8 1217.8,1143.7 1233.7,1160.3 1250.0,1176.4 1266.8,1192.0 1284.1,1207.1 1301.8,1221.5 1320.0,1235.3 1338.6,1248.3 1357.6,1260.6 1376.9,1272.1 1396.6,1282.7 1416.7,1292.5 1437.1,1301.3 1457.7,1309.3 1478.6,1316.3 1499.8,1322.3 1521.2,1327.3 1542.8,1331.4 1564.6,1334.4 1586.5,1336.5 1608.6,1337.6 1630.7,1337.7 1652.9,1336.8 1675.1,1335.0 1697.3,1332.2 1719.5,1328.5 1741.7,1324.0 1763.7,1318.5 1785.6,1312.3 1807.4,1305.3 1829.0,1297.5 1850.3,1289.1 1871.4,1280.0 1892.2,1270.3 1912.6,1260.1 1932.6,1249.4 1952.3,1238.4  Z" style="stroke-width: 0.5;  stroke: rgb(0,0,0); fill: rgb(179,177,178);" />
<path d="M 1773.805,1054.986 A 522.500,522.500 0.00 0,1 1780.3,1059.1 L 1780.3,1059.1 1768.5,1077.1 1756.3,1095.0 1743.5,1112.5 1730.3,1129.5 1716.6,1146.1 1702.5,1162.0 1688.0,1177.3 1673.1,1191.8 1657.8,1205.5 1642.2,1218.3 1626.2,1230.1 1610.0,1241.0 1593.4,1250.8 1576.6,1259.5 1559.5,1267.1 1542.2,1273.5 1524.7,1278.8 1507.1,1282.9 1489.3,1285.7 1471.3,1287.4 1453.3,1287.8 1435.2,1287.1 1417.0,1285.1 1398.9,1281.9 1380.7,1277.6 1362.6,1272.1 1344.5,1265.5 1326.5,1257.8 1308.7,1249.0 1291.0,1239.3 1273.5,1228.7 1256.1,1217.1 1239.1,1204.8 1222.3,1191.7 1205.8,1177.9 1189.7,1163.5 1174.0,1148.7 1158.6,1133.4 1143.7,1117.8  A 522.500,522.500 0.00 0,1 1149.4,1112.6 L 1149.4,1112.6 1164.0,1128.4 1179.1,1143.8 1194.5,1158.9 1210.4,1173.4 1226.6,1187.4 1243.0,1200.6 1259.8,1213.2 1276.8,1224.9 1294.0,1235.7 1311.4,1245.5 1329.0,1254.4 1346.6,1262.2 1364.4,1269.0 1382.2,1274.6 1400.1,1279.0 1417.9,1282.3 1435.8,1284.3 1453.5,1285.1 1471.3,1284.8 1488.9,1283.1 1506.4,1280.3 1523.7,1276.2 1540.8,1270.9 1557.8,1264.4 1574.5,1256.8 1591.0,1248.0 1607.3,1238.2 1623.2,1227.3 1638.8,1215.3 1654.1,1202.4 1669.1,1188.7 1683.7,1174.0 1697.8,1158.7 1711.6,1142.6 1725.0,1125.9 1737.9,1108.7 1750.3,1091.1 1762.3,1073.2 1773.8,1055.0  Z" style="stroke-width: 0.5;  stroke: rgb(0,0,0); fill: rgb(179,177,178);" />
<path d="M 1033.594,1735.524 A 522.500,522.500 0.00 0,1 1030.4,1729.1 L 1030.4,1729.1 1049.6,1719.5 1068.5,1709.3 1087.2,1698.7 1105.5,1687.6 1123.4,1676.0 1140.6,1663.9 1157.2,1651.3 1173.1,1638.4 1188.1,1624.9 1202.3,1611.1 1215.5,1596.8 1227.8,1582.2 1239.0,1567.1 1249.2,1551.7 1258.2,1536.0 1266.1,1520.0 1272.7,1503.6 1278.2,1487.0 1282.5,1470.1 1285.6,1453.0 1287.4,1435.7 1288.0,1418.2 1287.3,1400.5 1285.5,1382.7 1282.4,1364.9 1278.2,1346.9 1272.9,1328.9 1266.4,1311.0 1258.9,1293.0 1250.4,1275.1 1240.9,1257.3 1230.5,1239.6 1219.3,1222.1 1207.2,1204.9 1194.5,1187.8 1181.2,1171.0 1167.3,1154.6 1153.0,1138.6 1138.3,1122.9  A 522.500,522.500 0.00 0,1 1143.7,1117.8 L 1143.7,1117.8 1158.2,1133.7 1172.3,1150.1 1186.0,1166.7 1199.1,1183.8 1211.6,1201.1 1223.5,1218.6 1234.5,1236.4 1244.8,1254.3 1254.1,1272.4 1262.4,1290.6 1269.8,1308.8 1276.1,1327.1 1281.3,1345.4 1285.4,1363.6 1288.3,1381.8 1290.0,1399.8 1290.6,1417.8 1289.9,1435.6 1288.0,1453.2 1284.9,1470.7 1280.6,1487.8 1275.1,1504.8 1268.4,1521.4 1260.5,1537.8 1251.5,1553.8 1241.3,1569.6 1230.1,1584.9 1217.9,1599.9 1204.7,1614.4 1190.6,1628.6 1175.6,1642.4 1159.8,1655.7 1143.3,1668.5 1126.1,1680.9 1108.4,1692.8 1090.2,1704.2 1071.6,1715.2 1052.7,1725.6 1033.6,1735.5  Z" style="stroke-width: 0.5;  stroke: rgb(0,0,0); fill: rgb(179,177,178);" />
<path d="M 1036.265,1740.742 A 522.500,522.500 0.00 0,1 1033.7,1735.7 L 1033.7,1735.7 1052.7,1725.7 1071.6,1715.3 1090.3,1704.3 1108.5,1692.9 1126.2,1681.0 1143.4,1668.6 1159.9,1655.7 1175.7,1642.4 1190.7,1628.6 1204.9,1614.4 1218.1,1599.8 1230.3,1584.9 1241.5,1569.5 1251.7,1553.8 1260.7,1537.7 1268.6,1521.3 1275.4,1504.6 1280.9,1487.6 1285.3,1470.4 1288.4,1453.0 1290.3,1435.3 1291.0,1417.5 1290.5,1399.5 1288.8,1381.3 1285.9,1363.1 1281.9,1344.9 1276.8,1326.5 1270.5,1308.2 1263.2,1289.9 1254.9,1271.7 1245.6,1253.6 1235.4,1235.6 1224.4,1217.8 1212.6,1200.2 1200.2,1182.8 1187.1,1165.8 1173.4,1149.0 1159.4,1132.6 1144.9,1116.7  A 522.500,522.500 0.00 0,1 1149.2,1112.8 L 1149.2,1112.8 1163.4,1129.0 1177.4,1145.5 1190.9,1162.5 1203.8,1179.7 1216.1,1197.3 1227.8,1215.1 1238.6,1233.1 1248.7,1251.3 1257.8,1269.7 1266.0,1288.1 1273.2,1306.6 1279.3,1325.1 1284.3,1343.7 1288.3,1362.2 1291.1,1380.6 1292.7,1399.0 1293.1,1417.2 1292.3,1435.3 1290.4,1453.2 1287.2,1470.9 1282.8,1488.3 1277.2,1505.5 1270.5,1522.5 1262.6,1539.1 1253.5,1555.4 1243.4,1571.4 1232.2,1587.0 1220.0,1602.3 1206.8,1617.1 1192.7,1631.5 1177.8,1645.6 1162.0,1659.1 1145.6,1672.2 1128.5,1684.9 1110.8,1697.0 1092.6,1708.7 1074.1,1719.9 1055.3,1730.6 1036.3,1740.7  Z" style="stroke-width: 0.5;  stroke: rgb(0,0,0); fill: rgb(179,177,178);" />
<path d="M 1822.134,1088.617 A 522.500,522.500 0.00 0,1 1825.8,1091.5 L 1825.8,1091.5 1812.0,1108.4 1797.8,1124.9 1783.0,1141.2 1767.9,1156.9 1752.3,1172.1 1736.3,1186.7 1719.9,1200.6 1703.2,1213.8 1686.2,1226.1 1668.8,1237.5 1651.2,1248.0 1633.4,1257.6 1615.3,1266.0 1597.0,1273.5 1578.5,1279.8 1559.9,1285.0 1541.2,1289.1 1522.3,1292.0 1503.4,1293.7 1484.5,1294.3 1465.5,1293.7 1446.5,1291.9 1427.6,1288.9 1408.7,1284.8 1389.9,1279.5 1371.2,1273.2 1352.7,1265.8 1334.3,1257.3 1316.1,1247.9 1298.1,1237.5 1280.4,1226.2 1262.9,1214.0 1245.8,1201.1 1229.0,1187.5 1212.5,1173.2 1196.4,1158.4 1180.8,1143.0 1165.6,1127.3 1150.8,1111.3  A 522.500,522.500 0.00 0,1 1154.4,1108.2 L 1154.4,1108.2 1168.9,1124.3 1184.0,1140.1 1199.4,1155.5 1215.3,1170.5 1231.6,1184.8 1248.3,1198.6 1265.2,1211.6 1282.5,1223.8 1300.0,1235.2 1317.8,1245.7 1335.8,1255.3 1354.0,1263.8 1372.4,1271.3 1390.9,1277.7 1409.5,1283.0 1428.2,1287.1 1447.0,1290.1 1465.7,1291.9 1484.5,1292.6 1503.3,1292.0 1522.0,1290.3 1540.7,1287.4 1559.2,1283.3 1577.6,1278.0 1595.9,1271.7 1614.0,1264.2 1631.9,1255.7 1649.6,1246.1 1667.0,1235.5 1684.1,1224.0 1701.0,1211.6 1717.5,1198.4 1733.7,1184.4 1749.5,1169.7 1764.9,1154.4 1779.9,1138.5 1794.5,1122.2 1808.5,1105.6 1822.1,1088.6  Z" style="stroke-width: 0.5;  stroke: rgb(0,0,0); fill: rgb(179,177,178);" />
</g>
<g id="plot0">
<g id="plot0-axis">
</g>
<line x1='2248.9' y1='1540.4' x2='2248.9' y2='1540.4' style="stroke-width:14.0;stroke:rgb(0,0,0);stroke-linecap:round;fill:none;" />
<line x1='2248.9' y1='1540.4' x2='2288.9' y2='1542.5' style="stroke-width:14.0;stroke:rgb(0,0,0);stroke-linecap:round;fill:none;" />
<line x1='2288.9' y1='1542.5' x2='2288.9' y2='1542.5' style="stroke-width:14.0;stroke:rgb(0,0,0);stroke-linecap:round;fill:none;" />
<text x="2307.3" y="1565.6" font-size="46.8px" font-family="CMUBright-Roman" style="text-anchor:start;fill:rgb(255,38,78);" transform="rotate(3.1,2307.3,1565.6)" >HistomissWU24<tspan baseline-shift="-40%" font-size="90%">s</tspan>02748</text>
</g>
<defs>
<pattern id="checker" width="10" height="10" patternTransform="rotate(45 0 0)" patternUnits="userSpaceOnUse"><line x1="0" y1="0" x2="10" y2="0" style="stroke:black;stroke-width:5" /><line x1="0" y1="0" x2="0" y2="10" style="stroke:black;stroke-width:4" /></pattern>
<pattern id="vline" width="10" height="10" patternTransform="rotate(0 0 0)" patternUnits="userSpaceOnUse"><line x1="0" y1="0" x2="0" y2="10" style="stroke:black;stroke-width:5" /></pattern>
<pattern id="hline" width="10" height="10" patternTransform="rotate(0 0 0)" patternUnits="userSpaceOnUse"><line x1="0" y1="0" x2="10" y2="0" style="stroke:black;stroke-width:5" /></pattern>
<pattern id="checker" width="10" height="10" patternTransform="rotate(45 0 0)" patternUnits="userSpaceOnUse"><line x1="0" y1="0" x2="10" y2="0" style="stroke:black;stroke-width:2" /><line x1="0" y1="0" x2="0" y2="10" style="stroke:black;stroke-width:2" /></pattern>
<pattern id="vline-sparse" width="10" height="10" patternTransform="rotate(0 0 0)" patternUnits="userSpaceOnUse"><line x1="0" y1="0" x2="0" y2="10" style="stroke:black;stroke-width:2" /></pattern>
<pattern id="hline-sparse" width="10" height="10" patternTransform="rotate(0 0 0)" patternUnits="userSpaceOnUse"><line x1="0" y1="0" x2="10" y2="0" style="stroke:black;stroke-width:2" /></pattern>
</defs>
</svg>
