<?xml version="1.0" encoding="utf-8" standalone="no"?>
<!DOCTYPE svg PUBLIC "-//W3C//DTD SVG 1.1//EN" "http://www.w3.org/Graphics/SVG/1.1/DTD/svg11.dtd">
<svg width="3000px" height="3000px" version="1.1" xmlns="http://www.w3.org/2000/svg" xmlns:xlink="http://www.w3.org/1999/xlink">
<g id="bg">
<rect x="0" y="0" width="3000px" height="3000px" style="fill:rgb(255,255,255);"/>
</g>
<g id="ideograms">
<path d="M1500.000,950.000 A550.000,550.000 40.000 0,1 1624.120,2035.812 L1669.254,2230.652 A750.000,750.000 0.000 0,0 1500.000,750.000 Z" style="stroke-width:2.0;stroke:rgb(0,0,0);stroke-linecap:round;fill:rgb(179,177,178);" />
<text x="2468.7" y="1389.3" font-size="46.8px" font-family="CMUBright-Roman" style="text-anchor:middle;fill:rgb(0,0,0);" transform="rotate(443.5,2468.7,1389.3)" >HistocapWGSS11<tspan baseline-shift="-40%" font-size="90%">6</tspan></text>
<line x1='1523.9' y1='750.4' x2='1524.3' y2='738.4' style="stroke-width:8.0;stroke:rgb(150,150,150);stroke-linecap:round;fill:none;" />
<line x1='1624.1' y1='760.3' x2='1626.1' y2='748.5' style="stroke-width:8.0;stroke:rgb(150,150,150);stroke-linecap:round;fill:none;" />
<line x1='1722.0' y1='783.6' x2='1725.6' y2='772.2' style="stroke-width:8.0;stroke:rgb(150,150,150);stroke-linecap:round;fill:none;" />
<line x1='1816.0' y1='819.8' x2='1821.0' y2='808.9' style="stroke-width:8.0;stroke:rgb(150,150,150);stroke-linecap:round;fill:none;" />
<text x="1838.7" y="804.1" font-size="41.6px" font-family="CMUBright-Roman" style="text-anchor:start;fill:rgb(150,150,150);" transform="rotate(294.9,1838.7,804.1)" >5200 kb</text>
<line x1='1904.2' y1='868.2' x2='1910.7' y2='858.1' style="stroke-width:8.0;stroke:rgb(150,150,150);stroke-linecap:round;fill:none;" />
<line x1='1985.2' y1='928.1' x2='1992.9' y2='918.9' style="stroke-width:8.0;stroke:rgb(150,150,150);stroke-linecap:round;fill:none;" />
<line x1='2057.4' y1='998.2' x2='2066.3' y2='990.2' style="stroke-width:8.0;stroke:rgb(150,150,150);stroke-linecap:round;fill:none;" />
<line x1='2119.6' y1='1077.4' x2='2129.5' y2='1070.6' style="stroke-width:8.0;stroke:rgb(150,150,150);stroke-linecap:round;fill:none;" />
<line x1='2170.6' y1='1164.1' x2='2181.3' y2='1158.8' style="stroke-width:8.0;stroke:rgb(150,150,150);stroke-linecap:round;fill:none;" />
<text x="2198.2" y="1166.0" font-size="41.6px" font-family="CMUBright-Roman" style="text-anchor:start;fill:rgb(150,150,150);" transform="rotate(333.4,2198.2,1166.0)" >5250 kb</text>
<line x1='2209.5' y1='1257.0' x2='2220.9' y2='1253.1' style="stroke-width:8.0;stroke:rgb(150,150,150);stroke-linecap:round;fill:none;" />
<line x1='2235.7' y1='1354.2' x2='2247.5' y2='1351.9' style="stroke-width:8.0;stroke:rgb(150,150,150);stroke-linecap:round;fill:none;" />
<line x1='2248.6' y1='1454.0' x2='2260.6' y2='1453.3' style="stroke-width:8.0;stroke:rgb(150,150,150);stroke-linecap:round;fill:none;" />
<line x1='2248.0' y1='1554.7' x2='2260.0' y2='1555.6' style="stroke-width:8.0;stroke:rgb(150,150,150);stroke-linecap:round;fill:none;" />
<line x1='2233.9' y1='1654.4' x2='2245.7' y2='1656.8' style="stroke-width:8.0;stroke:rgb(150,150,150);stroke-linecap:round;fill:none;" />
<text x="2254.4" y="1673.0" font-size="41.6px" font-family="CMUBright-Roman" style="text-anchor:start;fill:rgb(150,150,150);" transform="rotate(11.9,2254.4,1673.0)" >5300 kb</text>
<line x1='2206.7' y1='1751.3' x2='2218.0' y2='1755.3' style="stroke-width:8.0;stroke:rgb(150,150,150);stroke-linecap:round;fill:none;" />
<line x1='2166.6' y1='1843.6' x2='2177.3' y2='1849.1' style="stroke-width:8.0;stroke:rgb(150,150,150);stroke-linecap:round;fill:none;" />
<line x1='2114.6' y1='1929.8' x2='2124.4' y2='1936.7' style="stroke-width:8.0;stroke:rgb(150,150,150);stroke-linecap:round;fill:none;" />
<line x1='2051.5' y1='2008.3' x2='2060.3' y2='2016.4' style="stroke-width:8.0;stroke:rgb(150,150,150);stroke-linecap:round;fill:none;" />
<line x1='1978.5' y1='2077.5' x2='1986.1' y2='2086.8' style="stroke-width:8.0;stroke:rgb(150,150,150);stroke-linecap:round;fill:none;" />
<text x="1982.9" y="2104.9" font-size="41.6px" font-family="CMUBright-Roman" style="text-anchor:start;fill:rgb(150,150,150);" transform="rotate(50.4,1982.9,2104.9)" >5350 kb</text>
<line x1='1896.8' y1='2136.4' x2='1903.2' y2='2146.6' style="stroke-width:8.0;stroke:rgb(150,150,150);stroke-linecap:round;fill:none;" />
<line x1='1808.0' y1='2183.8' x2='1812.9' y2='2194.8' style="stroke-width:8.0;stroke:rgb(150,150,150);stroke-linecap:round;fill:none;" />
<line x1='1713.7' y1='2218.9' x2='1717.1' y2='2230.4' style="stroke-width:8.0;stroke:rgb(150,150,150);stroke-linecap:round;fill:none;" />
<g id="highlighttrack_0">
<path d="M2035.822,1375.925 A550.000,550.000 40.000 0,1 2011.627,1701.837 L2197.673,1775.232 A750.000,750.000 0.000 0,0 2230.667,1330.807 Z" style="stroke-width:14.0;stroke:rgb(0,0,0);stroke-linecap:round;fill:rgb(255,38,78);" />
</g>
<path d="M1500.000,950.000 A550.000,550.000 40.000 0,1 1624.120,2035.812 L1669.254,2230.652 A750.000,750.000 0.000 0,0 1500.000,750.000 Z" style="stroke-width:2.0;stroke:rgb(0,0,0);stroke-linecap:round;fill:none;" />
<path d="M1404.056,2041.567 A550.000,550.000 40.000 0,1 1284.314,994.056 L1205.883,810.076 A750.000,750.000 0.000 0,0 1369.167,2238.500 Z" style="stroke-width:2.0;stroke:rgb(0,0,0);stroke-linecap:round;fill:rgb(179,177,178);" />
<text x="486.6" y="1615.8" font-size="46.8px" font-family="CMUBright-Roman" style="text-anchor:middle;fill:rgb(0,0,0);" transform="rotate(83.5,486.6,1615.8)" >HistoohiSECH99<tspan baseline-shift="-40%" font-size="90%">6</tspan></text>
<line x1='1144.0' y1='839.9' x2='1138.3' y2='829.3' style="stroke-width:8.0;stroke:rgb(150,150,150);stroke-linecap:round;fill:none;" />
<line x1='1058.8' y1='893.5' x2='1051.7' y2='883.8' style="stroke-width:8.0;stroke:rgb(150,150,150);stroke-linecap:round;fill:none;" />
<line x1='981.5' y1='958.1' x2='973.3' y2='949.4' style="stroke-width:8.0;stroke:rgb(150,150,150);stroke-linecap:round;fill:none;" />
<line x1='913.6' y1='1032.4' x2='904.3' y2='1024.9' style="stroke-width:8.0;stroke:rgb(150,150,150);stroke-linecap:round;fill:none;" />
<text x="886.2" y="1028.4" font-size="41.6px" font-family="CMUBright-Roman" style="text-anchor:end;fill:rgb(150,150,150);" transform="rotate(38.6,886.2,1028.4)" >5050 kb</text>
<line x1='856.3' y1='1115.1' x2='846.0' y2='1108.9' style="stroke-width:8.0;stroke:rgb(150,150,150);stroke-linecap:round;fill:none;" />
<line x1='810.5' y1='1204.8' x2='799.5' y2='1200.1' style="stroke-width:8.0;stroke:rgb(150,150,150);stroke-linecap:round;fill:none;" />
<line x1='777.2' y1='1299.8' x2='765.7' y2='1296.6' style="stroke-width:8.0;stroke:rgb(150,150,150);stroke-linecap:round;fill:none;" />
<line x1='756.9' y1='1398.4' x2='745.0' y2='1396.7' style="stroke-width:8.0;stroke:rgb(150,150,150);stroke-linecap:round;fill:none;" />
<line x1='750.0' y1='1498.8' x2='738.0' y2='1498.8' style="stroke-width:8.0;stroke:rgb(150,150,150);stroke-linecap:round;fill:none;" />
<text x="726.1" y="1512.8" font-size="41.6px" font-family="CMUBright-Roman" style="text-anchor:end;fill:rgb(150,150,150);" transform="rotate(0.1,726.1,1512.8)" >5100 kb</text>
<line x1='756.6' y1='1599.3' x2='744.7' y2='1600.8' style="stroke-width:8.0;stroke:rgb(150,150,150);stroke-linecap:round;fill:none;" />
<line x1='776.6' y1='1697.9' x2='765.0' y2='1701.1' style="stroke-width:8.0;stroke:rgb(150,150,150);stroke-linecap:round;fill:none;" />
<line x1='809.6' y1='1793.0' x2='798.6' y2='1797.7' style="stroke-width:8.0;stroke:rgb(150,150,150);stroke-linecap:round;fill:none;" />
<line x1='855.1' y1='1882.8' x2='844.7' y2='1889.0' style="stroke-width:8.0;stroke:rgb(150,150,150);stroke-linecap:round;fill:none;" />
<line x1='912.1' y1='1965.8' x2='902.7' y2='1973.2' style="stroke-width:8.0;stroke:rgb(150,150,150);stroke-linecap:round;fill:none;" />
<text x="902.1" y="1991.6" font-size="41.6px" font-family="CMUBright-Roman" style="text-anchor:end;fill:rgb(150,150,150);" transform="rotate(-38.4,902.1,1991.6)" >5150 kb</text>
<line x1='979.8' y1='2040.3' x2='971.5' y2='2048.9' style="stroke-width:8.0;stroke:rgb(150,150,150);stroke-linecap:round;fill:none;" />
<line x1='1056.9' y1='2105.1' x2='1049.8' y2='2114.8' style="stroke-width:8.0;stroke:rgb(150,150,150);stroke-linecap:round;fill:none;" />
<line x1='1141.9' y1='2159.0' x2='1136.1' y2='2169.5' style="stroke-width:8.0;stroke:rgb(150,150,150);stroke-linecap:round;fill:none;" />
<line x1='1233.4' y1='2201.0' x2='1229.1' y2='2212.2' style="stroke-width:8.0;stroke:rgb(150,150,150);stroke-linecap:round;fill:none;" />
<line x1='1329.6' y1='2230.4' x2='1326.9' y2='2242.1' style="stroke-width:8.0;stroke:rgb(150,150,150);stroke-linecap:round;fill:none;" />
<text x="1337.8" y="2256.8" font-size="41.6px" font-family="CMUBright-Roman" style="text-anchor:end;fill:rgb(150,150,150);" transform="rotate(-76.9,1337.8,2256.8)" >5200 kb</text>
<path d="M1404.056,2041.567 A550.000,550.000 40.000 0,1 1284.314,994.056 L1205.883,810.076 A750.000,750.000 0.000 0,0 1369.167,2238.500 Z" style="stroke-width:2.0;stroke:rgb(0,0,0);stroke-linecap:round;fill:none;" />
</g>
<g id="track_0">
<path d="M 1959.813,1251.850 A 522.500,522.500 0.00 0,1 2002.0,1355.0 L 2002.0,1355.0 1976.8,1362.3 1951.4,1369.4 1926.0,1376.5 1900.5,1383.5 1874.9,1390.5 1849.2,1397.3 1823.4,1404.0 1797.5,1410.7 1771.6,1417.2 1745.6,1423.6 1719.5,1429.9 1693.4,1436.1 1667.2,1442.2 1641.0,1448.2 1614.7,1454.0 1588.3,1459.7 1561.9,1465.3 1535.5,1470.7 1509.1,1476.0 1482.6,1481.2 1456.1,1486.3 1429.5,1491.2 1403.0,1496.0 1376.5,1500.6 1349.9,1505.1 1323.3,1509.5 1296.8,1513.7 1270.3,1517.8 1243.7,1521.8 1217.2,1525.7 1190.7,1529.4 1164.3,1533.0 1137.9,1536.5 1111.5,1539.8 1085.2,1543.1 1058.9,1546.2 1032.7,1549.2 1006.5,1552.1 980.4,1554.9  A 522.500,522.500 0.00 0,1 980.7,1442.6 L 980.7,1442.6 1005.4,1445.2 1030.4,1447.5 1055.6,1449.5 1081.0,1451.1 1106.6,1452.4 1132.3,1453.4 1158.2,1454.0 1184.1,1454.2 1210.2,1454.0 1236.3,1453.4 1262.5,1452.3 1288.8,1450.8 1315.1,1448.9 1341.4,1446.6 1367.6,1443.8 1393.9,1440.5 1420.2,1436.8 1446.3,1432.6 1472.5,1428.0 1498.5,1422.9 1524.4,1417.4 1550.3,1411.5 1576.0,1405.0 1601.6,1398.2 1627.0,1390.9 1652.2,1383.2 1677.3,1375.1 1702.2,1366.7 1726.9,1357.8 1751.4,1348.6 1775.6,1339.0 1799.6,1329.0 1823.3,1318.8 1846.8,1308.3 1870.0,1297.4 1892.9,1286.4 1915.5,1275.1 1937.8,1263.5 1959.8,1251.9  Z" style="stroke-width: 0.5;  stroke: rgb(0,0,0); fill: rgb(179,177,178);" />
<path d="M 1902.150,1833.589 A 522.500,522.500 0.00 0,1 1850.5,1887.5 L 1850.5,1887.5 1835.2,1871.1 1819.5,1855.0 1803.3,1839.1 1786.6,1823.7 1769.5,1808.8 1751.9,1794.5 1733.9,1780.7 1715.5,1767.6 1696.8,1755.3 1677.7,1743.7 1658.2,1733.0 1638.5,1723.1 1618.4,1714.1 1598.1,1706.0 1577.6,1698.9 1556.9,1692.8 1535.9,1687.7 1514.8,1683.6 1493.6,1680.5 1472.3,1678.5 1450.8,1677.5 1429.4,1677.6 1407.8,1678.6 1386.3,1680.7 1364.8,1683.8 1343.4,1687.9 1322.0,1693.0 1300.7,1699.0 1279.6,1705.9 1258.7,1713.7 1237.9,1722.3 1217.4,1731.6 1197.1,1741.8 1177.2,1752.6 1157.5,1764.0 1138.2,1776.0 1119.3,1788.4 1100.9,1801.4 1082.8,1814.6  A 522.500,522.500 0.00 0,1 1042.1,1751.6 L 1042.1,1751.6 1062.5,1740.7 1083.3,1730.1 1104.5,1720.0 1126.1,1710.3 1148.0,1701.1 1170.2,1692.5 1192.7,1684.4 1215.5,1677.1 1238.4,1670.4 1261.6,1664.4 1284.9,1659.1 1308.4,1654.7 1331.9,1651.0 1355.6,1648.1 1379.3,1646.1 1403.0,1644.9 1426.7,1644.5 1450.5,1645.0 1474.1,1646.4 1497.7,1648.7 1521.2,1651.8 1544.6,1655.8 1567.9,1660.6 1591.0,1666.2 1613.9,1672.7 1636.5,1680.0 1659.0,1688.1 1681.2,1696.9 1703.1,1706.5 1724.7,1716.7 1746.0,1727.6 1766.9,1739.2 1787.5,1751.3 1807.7,1763.9 1827.4,1777.1 1846.8,1790.7 1865.7,1804.7 1884.2,1819.0 1902.1,1833.6  Z" style="stroke-width: 0.5;  stroke: rgb(0,0,0); fill: rgb(179,177,178);" />
<path d="M 1976.494,1714.382 A 522.500,522.500 0.00 0,1 1946.0,1772.2 L 1946.0,1772.2 1925.4,1759.8 1904.5,1747.8 1883.1,1736.0 1861.3,1724.6 1839.2,1713.6 1816.7,1703.0 1793.9,1692.8 1770.9,1683.1 1747.5,1673.9 1723.8,1665.2 1699.9,1657.1 1675.8,1649.6 1651.4,1642.7 1626.9,1636.3 1602.2,1630.7 1577.3,1625.6 1552.3,1621.2 1527.2,1617.5 1502.0,1614.4 1476.7,1612.1 1451.3,1610.3 1426.0,1609.3 1400.6,1608.9 1375.2,1609.3 1349.9,1610.2 1324.6,1611.8 1299.4,1614.1 1274.2,1617.0 1249.2,1620.5 1224.4,1624.6 1199.7,1629.2 1175.2,1634.5 1150.9,1640.2 1126.9,1646.4 1103.1,1653.1 1079.6,1660.3 1056.4,1667.8 1033.5,1675.7 1011.0,1684.0  A 522.500,522.500 0.00 0,1 991.9,1621.7 L 991.9,1621.7 1016.0,1616.1 1040.3,1610.7 1065.0,1605.7 1089.8,1601.0 1114.9,1596.7 1140.2,1592.7 1165.7,1589.1 1191.3,1585.9 1217.1,1583.2 1243.0,1580.8 1269.0,1578.9 1295.1,1577.5 1321.3,1576.5 1347.5,1576.1 1373.8,1576.1 1400.2,1576.5 1426.5,1577.5 1452.8,1579.0 1479.1,1581.0 1505.4,1583.5 1531.6,1586.4 1557.7,1589.9 1583.8,1593.8 1609.7,1598.3 1635.6,1603.2 1661.3,1608.6 1686.8,1614.4 1712.2,1620.7 1737.4,1627.4 1762.4,1634.5 1787.3,1642.0 1811.8,1650.0 1836.2,1658.2 1860.3,1666.9 1884.1,1675.8 1907.7,1685.1 1930.9,1694.6 1953.9,1704.4 1976.5,1714.4  Z" style="stroke-width: 0.5;  stroke: rgb(0,0,0); fill: rgb(179,177,178);" />
<path d="M 1808.461,1078.268 A 522.500,522.500 0.00 0,1 1856.9,1118.4 L 1856.9,1118.4 1841.1,1135.0 1824.7,1151.4 1807.7,1167.5 1790.3,1183.3 1772.5,1198.7 1754.1,1213.6 1735.4,1227.9 1716.2,1241.7 1696.5,1254.9 1676.5,1267.5 1656.1,1279.4 1635.4,1290.5 1614.3,1300.9 1592.9,1310.5 1571.1,1319.3 1549.2,1327.2 1526.9,1334.3 1504.4,1340.5 1481.7,1345.9 1458.9,1350.4 1435.8,1354.0 1412.7,1356.7 1389.4,1358.5 1366.0,1359.4 1342.6,1359.4 1319.1,1358.6 1295.7,1356.9 1272.3,1354.4 1248.9,1351.1 1225.6,1347.0 1202.5,1342.2 1179.5,1336.6 1156.7,1330.4 1134.1,1323.5 1111.7,1316.0 1089.7,1308.0 1068.0,1299.4 1046.6,1290.4 1025.6,1281.0  A 522.500,522.500 0.00 0,1 1055.1,1226.0 L 1055.1,1226.0 1074.3,1237.5 1093.8,1248.6 1113.8,1259.3 1134.1,1269.4 1154.7,1278.9 1175.6,1287.7 1196.7,1295.8 1218.0,1303.2 1239.4,1309.8 1260.9,1315.5 1282.5,1320.4 1304.2,1324.3 1325.9,1327.3 1347.6,1329.3 1369.2,1330.3 1390.7,1330.3 1412.2,1329.2 1433.5,1327.2 1454.6,1324.1 1475.6,1320.0 1496.3,1314.9 1516.8,1308.7 1537.1,1301.6 1557.0,1293.4 1576.6,1284.3 1596.0,1274.3 1614.9,1263.3 1633.5,1251.5 1651.7,1238.9 1669.5,1225.4 1686.8,1211.3 1703.7,1196.4 1720.2,1180.9 1736.2,1164.8 1751.7,1148.2 1766.6,1131.2 1781.1,1113.8 1795.1,1096.2 1808.5,1078.3  Z" style="stroke-width: 0.5;  stroke: rgb(0,0,0); fill: rgb(179,177,178);" />
<path d="M 1937.145,1786.200 A 522.500,522.500 0.00 0,1 1903.3,1832.3 L 1903.3,1832.3 1885.2,1817.7 1866.7,1803.4 1847.7,1789.5 1828.3,1776.0 1808.5,1762.8 1788.2,1750.2 1767.6,1738.2 1746.6,1726.7 1725.3,1715.8 1703.6,1705.6 1681.7,1696.0 1659.4,1687.3 1636.9,1679.2 1614.2,1672.0 1591.3,1665.5 1568.1,1659.9 1544.9,1655.0 1521.4,1651.1 1497.9,1648.0 1474.2,1645.7 1450.5,1644.3 1426.7,1643.8 1403.0,1644.2 1379.2,1645.3 1355.5,1647.4 1331.8,1650.2 1308.2,1653.9 1284.7,1658.3 1261.3,1663.5 1238.1,1669.5 1215.1,1676.2 1192.3,1683.5 1169.8,1691.5 1147.5,1700.0 1125.6,1709.2 1104.0,1718.8 1082.7,1729.0 1061.8,1739.5 1041.4,1750.4  A 522.500,522.500 0.00 0,1 1016.8,1698.9 L 1016.8,1698.9 1038.9,1690.0 1061.4,1681.5 1084.2,1673.4 1107.3,1665.7 1130.7,1658.4 1154.4,1651.6 1178.4,1645.4 1202.5,1639.7 1226.9,1634.6 1251.4,1630.1 1276.1,1626.2 1300.9,1623.0 1325.8,1620.4 1350.8,1618.5 1375.8,1617.4 1400.9,1616.9 1426.0,1617.1 1451.0,1618.0 1476.0,1619.7 1501.0,1622.0 1525.9,1625.1 1550.7,1628.9 1575.4,1633.4 1599.9,1638.6 1624.3,1644.5 1648.5,1651.0 1672.4,1658.2 1696.2,1666.1 1719.7,1674.5 1742.9,1683.6 1765.9,1693.2 1788.6,1703.3 1810.9,1713.9 1832.9,1725.0 1854.5,1736.6 1875.8,1748.5 1896.7,1760.8 1917.1,1773.4 1937.1,1786.2  Z" style="stroke-width: 0.5;  stroke: rgb(0,0,0); fill: rgb(179,177,178);" />
<path d="M 1500.000,977.500 A 522.500,522.500 0.00 0,1 1500.6,977.5 L 1500.6,977.5 1500.4,997.9 1500.0,1018.1 1499.2,1038.2 1498.0,1057.8 1496.4,1077.0 1494.5,1095.6 1492.2,1113.5 1489.4,1130.6 1486.2,1146.8 1482.5,1162.0 1478.4,1176.1 1473.9,1189.2 1468.8,1201.0 1463.3,1211.6 1457.4,1220.9 1451.0,1228.9 1444.1,1235.6 1436.8,1240.8 1429.0,1244.6 1420.8,1247.1 1412.2,1248.1 1403.2,1247.6 1393.9,1245.8 1384.1,1242.6 1374.1,1238.0 1363.7,1232.1 1353.0,1224.9 1342.1,1216.4 1331.0,1206.8 1319.6,1196.0 1308.1,1184.1 1296.5,1171.3 1284.8,1157.6 1273.1,1143.0 1261.4,1127.7 1249.7,1111.9 1238.2,1095.5 1226.7,1078.7 1215.5,1061.7  A 522.500,522.500 0.00 0,1 1256.2,1037.9 L 1256.2,1037.9 1265.8,1055.7 1275.5,1073.4 1285.4,1090.7 1295.4,1107.5 1305.4,1123.7 1315.5,1139.2 1325.5,1153.9 1335.4,1167.7 1345.2,1180.5 1354.9,1192.2 1364.5,1202.8 1373.8,1212.2 1383.0,1220.3 1391.9,1227.1 1400.5,1232.5 1408.8,1236.5 1416.8,1239.1 1424.6,1240.3 1431.9,1240.0 1438.9,1238.3 1445.6,1235.1 1451.8,1230.5 1457.7,1224.4 1463.2,1217.0 1468.3,1208.2 1473.0,1198.0 1477.3,1186.6 1481.2,1173.9 1484.7,1160.1 1487.8,1145.2 1490.6,1129.3 1492.9,1112.5 1494.9,1094.8 1496.5,1076.4 1497.8,1057.4 1498.8,1037.9 1499.5,1017.9 1499.9,997.8 1500.0,977.5  Z" style="stroke-width: 0.5;  stroke: rgb(0,0,0); fill: rgb(179,177,178);" />
<path d="M 1512.316,977.645 A 522.500,522.500 0.00 0,1 1549.5,979.9 L 1549.5,979.9 1547.4,1000.3 1544.9,1020.7 1542.0,1040.8 1538.6,1060.6 1534.9,1079.9 1530.7,1098.7 1526.0,1116.7 1520.9,1134.0 1515.3,1150.4 1509.3,1165.9 1502.7,1180.4 1495.7,1193.7 1488.2,1206.0 1480.3,1217.0 1471.8,1226.8 1463.0,1235.3 1453.6,1242.4 1443.8,1248.3 1433.6,1252.8 1423.0,1255.8 1412.0,1257.6 1400.6,1257.9 1388.9,1256.9 1376.8,1254.5 1364.5,1250.8 1351.8,1245.8 1338.9,1239.5 1325.8,1232.0 1312.6,1223.3 1299.1,1213.5 1285.6,1202.6 1272.0,1190.8 1258.4,1178.1 1244.8,1164.6 1231.2,1150.3 1217.8,1135.4 1204.5,1120.0 1191.4,1104.2 1178.6,1088.0  A 522.500,522.500 0.00 0,1 1208.8,1066.2 L 1208.8,1066.2 1220.3,1083.1 1232.0,1099.7 1243.9,1115.9 1255.9,1131.6 1267.9,1146.7 1280.0,1161.1 1292.1,1174.6 1304.1,1187.3 1316.0,1199.0 1327.7,1209.6 1339.3,1219.1 1350.7,1227.3 1361.8,1234.4 1372.7,1240.2 1383.2,1244.6 1393.4,1247.7 1403.3,1249.4 1412.8,1249.6 1421.9,1248.5 1430.6,1246.0 1438.9,1242.0 1446.8,1236.7 1454.2,1229.9 1461.2,1221.9 1467.7,1212.4 1473.7,1201.8 1479.3,1189.8 1484.4,1176.7 1489.1,1162.5 1493.3,1147.2 1497.0,1131.0 1500.3,1113.9 1503.2,1096.0 1505.7,1077.3 1507.7,1058.1 1509.4,1038.4 1510.7,1018.3 1511.7,998.0 1512.3,977.6  Z" style="stroke-width: 0.5;  stroke: rgb(0,0,0); fill: rgb(179,177,178);" />
<path d="M 1856.988,1118.469 A 522.500,522.500 0.00 0,1 1881.8,1143.3 L 1881.8,1143.3 1864.5,1159.0 1846.8,1174.6 1828.6,1189.9 1809.9,1204.8 1790.8,1219.4 1771.2,1233.5 1751.3,1247.2 1730.9,1260.3 1710.1,1272.9 1689.0,1284.9 1667.5,1296.3 1645.6,1307.0 1623.5,1317.0 1601.0,1326.3 1578.3,1334.9 1555.4,1342.7 1532.1,1349.8 1508.7,1356.0 1485.1,1361.5 1461.3,1366.2 1437.4,1370.1 1413.3,1373.2 1389.2,1375.4 1364.9,1376.9 1340.7,1377.6 1316.4,1377.5 1292.1,1376.6 1267.8,1375.0 1243.6,1372.6 1219.5,1369.5 1195.5,1365.7 1171.7,1361.3 1148.0,1356.2 1124.6,1350.6 1101.3,1344.3 1078.4,1337.6 1055.8,1330.3 1033.4,1322.6 1011.5,1314.6  A 522.500,522.500 0.00 0,1 1025.0,1282.3 L 1025.0,1282.3 1046.0,1291.7 1067.4,1300.6 1089.2,1309.1 1111.3,1317.1 1133.6,1324.5 1156.2,1331.4 1179.1,1337.6 1202.1,1343.1 1225.3,1347.9 1248.6,1351.9 1272.0,1355.2 1295.4,1357.6 1318.9,1359.2 1342.4,1360.0 1365.8,1359.9 1389.2,1359.0 1412.5,1357.1 1435.7,1354.4 1458.7,1350.8 1481.6,1346.3 1504.3,1340.9 1526.8,1334.6 1549.1,1327.5 1571.1,1319.5 1592.8,1310.7 1614.2,1301.1 1635.3,1290.7 1656.1,1279.5 1676.5,1267.6 1696.5,1255.1 1716.1,1241.8 1735.4,1228.0 1754.1,1213.6 1772.5,1198.7 1790.4,1183.4 1807.8,1167.6 1824.7,1151.5 1841.1,1135.1 1857.0,1118.5  Z" style="stroke-width: 0.5;  stroke: rgb(0,0,0); fill: rgb(179,177,178);" />
<path d="M 2001.988,1355.036 A 522.500,522.500 0.00 0,1 2010.5,1388.9 L 2010.5,1388.9 1984.5,1394.5 1958.4,1400.2 1932.3,1405.8 1906.2,1411.4 1880.0,1417.0 1853.8,1422.6 1827.6,1428.1 1801.4,1433.6 1775.2,1439.1 1749.0,1444.6 1722.7,1450.1 1696.4,1455.5 1670.2,1460.9 1643.9,1466.3 1617.6,1471.6 1591.2,1476.9 1564.9,1482.2 1538.6,1487.5 1512.2,1492.7 1485.9,1497.9 1459.5,1503.1 1433.2,1508.2 1406.8,1513.3 1380.5,1518.4 1354.1,1523.4 1327.7,1528.4 1301.4,1533.4 1275.0,1538.4 1248.7,1543.3 1222.3,1548.2 1196.0,1553.1 1169.6,1557.9 1143.3,1562.7 1117.0,1567.5 1090.6,1572.3 1064.3,1577.0 1038.0,1581.7 1011.8,1586.4 985.5,1591.1  A 522.500,522.500 0.00 0,1 980.6,1556.5 L 980.6,1556.5 1006.7,1553.6 1032.8,1550.6 1059.0,1547.5 1085.3,1544.3 1111.7,1541.0 1138.0,1537.6 1164.4,1534.0 1190.9,1530.4 1217.4,1526.6 1243.9,1522.7 1270.4,1518.6 1296.9,1514.5 1323.5,1510.2 1350.0,1505.7 1376.5,1501.2 1403.1,1496.5 1429.6,1491.7 1456.1,1486.7 1482.6,1481.6 1509.1,1476.4 1535.5,1471.0 1562.0,1465.6 1588.3,1460.0 1614.7,1454.2 1641.0,1448.4 1667.2,1442.4 1693.4,1436.3 1719.5,1430.1 1745.6,1423.7 1771.6,1417.3 1797.5,1410.7 1823.4,1404.1 1849.1,1397.3 1874.8,1390.5 1900.5,1383.6 1926.0,1376.5 1951.4,1369.5 1976.7,1362.3 2002.0,1355.0  Z" style="stroke-width: 0.5;  stroke: rgb(0,0,0); fill: rgb(179,177,178);" />
<path d="M 1727.731,1029.740 A 522.500,522.500 0.00 0,1 1752.9,1042.8 L 1752.9,1042.8 1742.1,1061.8 1730.7,1080.7 1718.8,1099.3 1706.3,1117.6 1693.3,1135.4 1679.9,1152.7 1665.9,1169.5 1651.4,1185.5 1636.4,1200.9 1621.0,1215.4 1605.1,1229.1 1588.8,1242.0 1572.0,1253.9 1554.9,1264.8 1537.3,1274.7 1519.4,1283.6 1501.1,1291.4 1482.6,1298.2 1463.7,1303.8 1444.5,1308.3 1425.1,1311.8 1405.5,1314.1 1385.7,1315.3 1365.7,1315.3 1345.5,1314.3 1325.3,1312.3 1305.0,1309.1 1284.6,1305.0 1264.3,1299.8 1244.0,1293.7 1223.7,1286.7 1203.6,1278.9 1183.6,1270.2 1163.8,1260.8 1144.2,1250.6 1124.9,1239.9 1105.9,1228.6 1087.2,1216.8 1069.0,1204.7  A 522.500,522.500 0.00 0,1 1086.0,1181.3 L 1086.0,1181.3 1103.3,1194.3 1121.0,1206.9 1139.1,1219.1 1157.5,1230.7 1176.2,1241.7 1195.1,1251.9 1214.1,1261.4 1233.3,1270.1 1252.6,1277.9 1271.9,1284.7 1291.3,1290.5 1310.6,1295.4 1329.9,1299.1 1349.1,1301.8 1368.2,1303.3 1387.1,1303.7 1405.9,1303.0 1424.4,1301.0 1442.8,1297.9 1460.8,1293.7 1478.6,1288.3 1496.0,1281.7 1513.1,1274.0 1529.9,1265.1 1546.3,1255.2 1562.3,1244.3 1577.8,1232.3 1593.0,1219.3 1607.7,1205.4 1621.9,1190.7 1635.7,1175.1 1649.0,1158.7 1661.8,1141.7 1674.1,1124.1 1685.8,1105.9 1697.1,1087.3 1707.8,1068.4 1718.1,1049.1 1727.7,1029.7  Z" style="stroke-width: 0.5;  stroke: rgb(0,0,0); fill: rgb(179,177,178);" />
<path d="M 1679.245,1990.793 A 522.500,522.500 0.00 0,1 1652.4,1999.8 L 1652.4,1999.8 1646.3,1980.1 1639.7,1960.7 1632.8,1941.5 1625.6,1922.8 1618.0,1904.6 1610.2,1887.0 1602.0,1870.3 1593.5,1854.3 1584.7,1839.3 1575.6,1825.4 1566.3,1812.5 1556.7,1800.8 1546.9,1790.2 1536.8,1781.0 1526.5,1773.1 1516.0,1766.5 1505.4,1761.3 1494.6,1757.5 1483.6,1755.1 1472.5,1754.1 1461.2,1754.6 1449.9,1756.5 1438.5,1759.8 1427.1,1764.5 1415.6,1770.5 1404.1,1777.9 1392.6,1786.6 1381.2,1796.5 1369.7,1807.6 1358.4,1819.8 1347.2,1833.1 1336.1,1847.3 1325.1,1862.4 1314.4,1878.4 1303.8,1895.0 1293.5,1912.2 1283.4,1929.9 1273.6,1948.0 1264.2,1966.3  A 522.500,522.500 0.00 0,1 1239.3,1952.8 L 1239.3,1952.8 1249.8,1934.9 1260.7,1917.3 1271.9,1900.1 1283.4,1883.3 1295.2,1867.1 1307.2,1851.6 1319.4,1837.0 1331.8,1823.1 1344.3,1810.3 1356.9,1798.5 1369.7,1787.8 1382.5,1778.2 1395.4,1769.9 1408.3,1762.8 1421.2,1757.1 1434.1,1752.6 1446.9,1749.5 1459.6,1747.8 1472.3,1747.5 1484.9,1748.6 1497.3,1751.1 1509.6,1754.9 1521.7,1760.2 1533.6,1766.8 1545.3,1774.6 1556.8,1783.8 1568.1,1794.2 1579.1,1805.8 1589.8,1818.6 1600.2,1832.4 1610.4,1847.2 1620.2,1862.9 1629.7,1879.5 1638.9,1896.8 1647.7,1914.7 1656.2,1933.2 1664.2,1952.1 1671.9,1971.4 1679.2,1990.8  Z" style="stroke-width: 0.5;  stroke: rgb(0,0,0); fill: rgb(179,177,178);" />
<path d="M 1739.324,1964.468 A 522.500,522.500 0.00 0,1 1714.4,1976.5 L 1714.4,1976.5 1705.6,1957.4 1696.3,1938.5 1686.6,1919.9 1676.4,1901.7 1665.8,1884.1 1654.8,1867.0 1643.5,1850.7 1631.7,1835.2 1619.6,1820.6 1607.2,1807.0 1594.4,1794.3 1581.4,1782.7 1568.0,1772.3 1554.3,1763.0 1540.4,1755.0 1526.3,1748.2 1511.9,1742.7 1497.4,1738.5 1482.7,1735.6 1467.8,1734.0 1452.8,1733.8 1437.7,1734.9 1422.5,1737.3 1407.3,1741.0 1392.0,1745.9 1376.7,1752.1 1361.5,1759.6 1346.3,1768.1 1331.1,1777.9 1316.1,1788.6 1301.2,1800.4 1286.5,1813.1 1272.0,1826.7 1257.7,1841.0 1243.7,1856.1 1230.0,1871.7 1216.6,1887.9 1203.5,1904.4 1190.9,1921.3  A 522.500,522.500 0.00 0,1 1169.1,1904.4 L 1169.1,1904.4 1182.7,1888.1 1196.8,1872.1 1211.3,1856.5 1226.1,1841.4 1241.2,1827.0 1256.6,1813.2 1272.2,1800.2 1288.0,1788.0 1304.1,1776.8 1320.3,1766.5 1336.6,1757.2 1353.0,1749.1 1369.5,1742.1 1386.0,1736.3 1402.5,1731.6 1419.0,1728.2 1435.4,1726.1 1451.8,1725.2 1468.1,1725.6 1484.2,1727.3 1500.2,1730.3 1516.0,1734.6 1531.7,1740.1 1547.1,1746.9 1562.3,1754.8 1577.2,1764.0 1591.8,1774.3 1606.2,1785.7 1620.2,1798.1 1633.9,1811.5 1647.3,1825.9 1660.2,1841.1 1672.8,1857.1 1685.0,1873.7 1696.7,1891.0 1708.1,1908.9 1719.0,1927.1 1729.4,1945.7 1739.3,1964.5  Z" style="stroke-width: 0.5;  stroke: rgb(0,0,0); fill: rgb(179,177,178);" />
<path d="M 1678.081,1008.784 A 522.500,522.500 0.00 0,1 1703.3,1018.7 L 1703.3,1018.7 1694.7,1038.4 1685.6,1057.9 1676.0,1077.2 1665.8,1096.2 1655.1,1114.7 1643.9,1132.6 1632.2,1150.0 1620.0,1166.6 1607.4,1182.5 1594.2,1197.6 1580.5,1211.7 1566.5,1224.9 1551.9,1237.1 1536.9,1248.3 1521.6,1258.3 1505.8,1267.3 1489.6,1275.1 1473.1,1281.7 1456.3,1287.2 1439.1,1291.4 1421.7,1294.5 1404.0,1296.3 1386.1,1297.0 1367.9,1296.5 1349.6,1294.8 1331.2,1291.9 1312.6,1287.9 1294.0,1282.8 1275.3,1276.7 1256.6,1269.6 1238.0,1261.5 1219.4,1252.5 1201.0,1242.6 1182.7,1231.9 1164.6,1220.6 1146.8,1208.6 1129.2,1196.0 1112.0,1183.0 1095.2,1169.6  A 522.500,522.500 0.00 0,1 1113.3,1148.6 L 1113.3,1148.6 1129.2,1162.7 1145.5,1176.5 1162.2,1189.8 1179.1,1202.6 1196.2,1214.7 1213.5,1226.1 1231.0,1236.7 1248.5,1246.5 1266.2,1255.3 1283.8,1263.1 1301.4,1269.9 1319.0,1275.6 1336.5,1280.2 1353.8,1283.6 1371.0,1285.8 1388.0,1286.8 1404.8,1286.6 1421.4,1285.2 1437.7,1282.5 1453.6,1278.5 1469.3,1273.3 1484.6,1266.9 1499.6,1259.2 1514.2,1250.4 1528.3,1240.4 1542.1,1229.3 1555.4,1217.1 1568.3,1203.8 1580.7,1189.6 1592.7,1174.5 1604.1,1158.4 1615.1,1141.6 1625.6,1124.1 1635.6,1105.9 1645.1,1087.2 1654.1,1068.0 1662.6,1048.5 1670.6,1028.7 1678.1,1008.8  Z" style="stroke-width: 0.5;  stroke: rgb(0,0,0); fill: rgb(179,177,178);" />
<path d="M 1804.462,1924.628 A 522.500,522.500 0.00 0,1 1782.3,1939.7 L 1782.3,1939.7 1770.3,1921.6 1757.9,1903.7 1745.0,1886.2 1731.6,1869.0 1717.7,1852.4 1703.4,1836.3 1688.6,1821.0 1673.5,1806.3 1657.9,1792.5 1642.0,1779.5 1625.7,1767.4 1609.1,1756.4 1592.2,1746.3 1575.0,1737.3 1557.5,1729.4 1539.8,1722.6 1521.9,1716.9 1503.7,1712.5 1485.4,1709.2 1466.9,1707.0 1448.3,1706.1 1429.7,1706.4 1410.9,1707.8 1392.1,1710.4 1373.3,1714.2 1354.5,1719.1 1335.7,1725.1 1317.1,1732.1 1298.5,1740.2 1280.0,1749.2 1261.8,1759.2 1243.7,1770.0 1225.9,1781.7 1208.3,1794.1 1191.0,1807.1 1174.1,1820.8 1157.5,1835.0 1141.4,1849.6 1125.6,1864.5  A 522.500,522.500 0.00 0,1 1107.5,1844.8 L 1107.5,1844.8 1124.1,1830.6 1141.2,1816.7 1158.7,1803.2 1176.6,1790.2 1194.8,1777.8 1213.3,1766.1 1232.1,1755.1 1251.2,1744.9 1270.4,1735.5 1289.8,1727.0 1309.4,1719.5 1329.1,1713.0 1348.9,1707.5 1368.7,1703.0 1388.5,1699.6 1408.4,1697.3 1428.2,1696.1 1447.9,1696.1 1467.5,1697.2 1487.1,1699.4 1506.4,1702.8 1525.7,1707.3 1544.7,1712.9 1563.5,1719.6 1582.0,1727.4 1600.3,1736.2 1618.3,1746.1 1636.0,1756.9 1653.4,1768.7 1670.4,1781.3 1687.1,1794.8 1703.3,1809.0 1719.1,1824.0 1734.5,1839.6 1749.5,1855.8 1764.0,1872.5 1778.0,1889.6 1791.5,1907.0 1804.5,1924.6  Z" style="stroke-width: 0.5;  stroke: rgb(0,0,0); fill: rgb(179,177,178);" />
<path d="M 1942.470,1222.103 A 522.500,522.500 0.00 0,1 1954.6,1242.4 L 1954.6,1242.4 1932.9,1254.5 1911.0,1266.4 1888.7,1278.0 1866.0,1289.5 1843.1,1300.6 1819.9,1311.5 1796.4,1322.1 1772.7,1332.3 1748.7,1342.2 1724.4,1351.7 1699.9,1360.8 1675.2,1369.5 1650.3,1377.8 1625.2,1385.7 1600.0,1393.1 1574.5,1400.0 1548.9,1406.6 1523.2,1412.6 1497.4,1418.2 1471.5,1423.2 1445.5,1427.8 1419.4,1432.0 1393.2,1435.6 1367.1,1438.8 1340.9,1441.4 1314.7,1443.6 1288.5,1445.4 1262.3,1446.6 1236.2,1447.4 1210.1,1447.8 1184.2,1447.7 1158.3,1447.2 1132.6,1446.3 1107.0,1445.0 1081.5,1443.3 1056.3,1441.3 1031.2,1438.9 1006.4,1436.2 981.8,1433.2  A 522.500,522.500 0.00 0,1 985.3,1409.8 L 985.3,1409.8 1009.5,1413.8 1033.9,1417.6 1058.6,1421.0 1083.5,1424.0 1108.6,1426.6 1133.9,1428.7 1159.4,1430.5 1185.0,1431.7 1210.7,1432.5 1236.4,1432.9 1262.3,1432.7 1288.2,1432.0 1314.2,1430.7 1340.1,1429.0 1366.1,1426.7 1392.0,1423.8 1417.9,1420.5 1443.7,1416.5 1469.4,1412.0 1495.1,1407.0 1520.6,1401.4 1546.0,1395.3 1571.2,1388.7 1596.3,1381.5 1621.2,1373.9 1645.9,1365.7 1670.4,1357.0 1694.7,1347.9 1718.7,1338.3 1742.4,1328.3 1765.9,1317.8 1789.1,1307.0 1812.0,1295.8 1834.6,1284.2 1856.9,1272.3 1878.8,1260.1 1900.4,1247.7 1921.6,1235.0 1942.5,1222.1  Z" style="stroke-width: 0.5;  stroke: rgb(0,0,0); fill: rgb(179,177,178);" />
<path d="M 1758.272,1045.795 A 522.500,522.500 0.00 0,1 1777.0,1057.0 L 1777.0,1057.0 1765.0,1075.6 1752.5,1094.1 1739.4,1112.3 1725.9,1130.2 1711.7,1147.6 1697.1,1164.5 1682.0,1180.9 1666.4,1196.6 1650.3,1211.6 1633.8,1225.9 1616.8,1239.3 1599.4,1252.0 1581.5,1263.7 1563.3,1274.5 1544.7,1284.4 1525.8,1293.2 1506.5,1301.1 1486.9,1307.9 1467.0,1313.7 1446.9,1318.4 1426.5,1322.0 1405.9,1324.6 1385.1,1326.1 1364.2,1326.6 1343.2,1326.0 1322.1,1324.4 1300.9,1321.8 1279.7,1318.3 1258.5,1313.7 1237.3,1308.3 1216.2,1302.0 1195.3,1294.8 1174.4,1286.9 1153.8,1278.2 1133.5,1268.8 1113.3,1258.9 1093.6,1248.4 1074.1,1237.4 1055.1,1226.0  A 522.500,522.500 0.00 0,1 1067.1,1207.4 L 1067.1,1207.4 1085.5,1219.5 1104.2,1231.2 1123.3,1242.4 1142.8,1253.0 1162.5,1263.0 1182.4,1272.4 1202.5,1281.0 1222.8,1288.8 1243.2,1295.7 1263.7,1301.7 1284.2,1306.8 1304.7,1310.9 1325.1,1314.0 1345.5,1316.0 1365.8,1317.0 1386.0,1316.9 1406.0,1315.7 1425.8,1313.4 1445.4,1310.0 1464.7,1305.4 1483.8,1299.8 1502.6,1293.1 1521.0,1285.3 1539.2,1276.5 1556.9,1266.6 1574.3,1255.7 1591.3,1243.9 1607.8,1231.1 1623.9,1217.5 1639.6,1203.0 1654.8,1187.8 1669.5,1171.8 1683.8,1155.2 1697.5,1138.0 1710.7,1120.2 1723.4,1102.1 1735.6,1083.5 1747.2,1064.8 1758.3,1045.8  Z" style="stroke-width: 0.5;  stroke: rgb(0,0,0); fill: rgb(179,177,178);" />
<path d="M 1758.714,1953.953 A 522.500,522.500 0.00 0,1 1741.0,1963.6 L 1741.0,1963.6 1730.9,1944.9 1720.4,1926.3 1709.5,1908.1 1698.1,1890.3 1686.2,1873.0 1674.0,1856.3 1661.3,1840.4 1648.2,1825.2 1634.8,1810.8 1621.0,1797.4 1606.9,1785.0 1592.5,1773.6 1577.7,1763.3 1562.7,1754.2 1547.4,1746.2 1531.9,1739.4 1516.2,1733.9 1500.3,1729.6 1484.2,1726.6 1467.9,1724.9 1451.5,1724.5 1435.1,1725.3 1418.5,1727.4 1401.9,1730.8 1385.3,1735.4 1368.7,1741.1 1352.1,1748.1 1335.6,1756.2 1319.2,1765.4 1302.9,1775.6 1286.8,1786.8 1270.8,1798.9 1255.1,1811.9 1239.6,1825.6 1224.4,1840.0 1209.5,1855.0 1195.0,1870.5 1180.8,1886.5 1167.1,1902.7  A 522.500,522.500 0.00 0,1 1151.6,1889.4 L 1151.6,1889.4 1166.1,1873.6 1181.0,1858.2 1196.3,1843.1 1212.0,1828.5 1228.0,1814.6 1244.2,1801.3 1260.8,1788.8 1277.5,1777.1 1294.5,1766.3 1311.6,1756.5 1328.9,1747.7 1346.2,1739.9 1363.7,1733.3 1381.1,1727.8 1398.6,1723.4 1416.1,1720.3 1433.5,1718.4 1450.9,1717.7 1468.1,1718.3 1485.3,1720.1 1502.3,1723.2 1519.1,1727.5 1535.7,1733.0 1552.2,1739.8 1568.3,1747.7 1584.3,1756.7 1599.9,1766.9 1615.2,1778.1 1630.3,1790.3 1644.9,1803.5 1659.2,1817.7 1673.2,1832.6 1686.7,1848.3 1699.8,1864.7 1712.5,1881.7 1724.8,1899.3 1736.6,1917.2 1747.9,1935.5 1758.7,1954.0  Z" style="stroke-width: 0.5;  stroke: rgb(0,0,0); fill: rgb(179,177,178);" />
<path d="M 1698.690,1983.248 A 522.500,522.500 0.00 0,1 1681.7,1989.9 L 1681.7,1989.9 1674.2,1970.5 1666.4,1951.2 1658.1,1932.2 1649.5,1913.7 1640.5,1895.7 1631.1,1878.3 1621.3,1861.7 1611.2,1845.9 1600.8,1831.0 1590.0,1817.1 1578.9,1804.2 1567.5,1792.5 1555.9,1781.9 1544.0,1772.5 1531.8,1764.4 1519.4,1757.6 1506.8,1752.2 1494.0,1748.1 1481.0,1745.3 1467.8,1743.9 1454.6,1743.9 1441.2,1745.3 1427.7,1748.0 1414.2,1752.1 1400.6,1757.5 1387.0,1764.2 1373.4,1772.2 1359.8,1781.3 1346.3,1791.6 1332.9,1803.0 1319.6,1815.4 1306.5,1828.8 1293.5,1843.0 1280.7,1858.1 1268.1,1873.8 1255.8,1890.2 1243.9,1907.0 1232.2,1924.2 1220.9,1941.7  A 522.500,522.500 0.00 0,1 1205.7,1931.7 L 1205.7,1931.7 1217.6,1914.5 1230.0,1897.6 1242.7,1881.1 1255.7,1865.1 1269.0,1849.7 1282.6,1835.0 1296.3,1821.1 1310.3,1808.1 1324.4,1796.0 1338.6,1784.9 1353.0,1774.9 1367.4,1766.0 1381.8,1758.3 1396.3,1751.8 1410.7,1746.6 1425.1,1742.7 1439.5,1740.2 1453.8,1738.9 1467.9,1739.1 1482.0,1740.5 1495.8,1743.3 1509.5,1747.5 1523.0,1753.0 1536.3,1759.8 1549.4,1767.8 1562.2,1777.1 1574.8,1787.7 1587.0,1799.3 1599.0,1812.1 1610.6,1825.9 1621.9,1840.6 1632.9,1856.3 1643.4,1872.7 1653.7,1889.9 1663.5,1907.8 1672.9,1926.1 1681.9,1944.9 1690.5,1964.0 1698.7,1983.2  Z" style="stroke-width: 0.5;  stroke: rgb(0,0,0); fill: rgb(179,177,178);" />
<path d="M 1608.833,988.960 A 522.500,522.500 0.00 0,1 1625.7,992.8 L 1625.7,992.8 1620.5,1013.1 1614.8,1033.2 1608.7,1053.0 1602.1,1072.5 1595.0,1091.5 1587.5,1109.9 1579.6,1127.6 1571.1,1144.6 1562.2,1160.8 1552.9,1176.0 1543.1,1190.2 1532.8,1203.4 1522.1,1215.5 1511.0,1226.4 1499.5,1236.0 1487.6,1244.5 1475.3,1251.7 1462.6,1257.5 1449.6,1262.1 1436.2,1265.3 1422.5,1267.2 1408.6,1267.8 1394.3,1267.0 1379.9,1265.0 1365.2,1261.6 1350.3,1257.0 1335.3,1251.1 1320.2,1244.1 1305.0,1235.9 1289.7,1226.7 1274.4,1216.4 1259.1,1205.1 1243.9,1193.0 1228.8,1180.0 1213.9,1166.3 1199.1,1152.0 1184.6,1137.1 1170.4,1121.9 1156.5,1106.3  A 522.500,522.500 0.00 0,1 1169.8,1095.1 L 1169.8,1095.1 1183.1,1111.0 1196.7,1126.7 1210.6,1141.9 1224.7,1156.7 1239.0,1170.8 1253.4,1184.1 1267.9,1196.7 1282.4,1208.3 1297.0,1219.0 1311.5,1228.7 1326.0,1237.2 1340.3,1244.6 1354.6,1250.8 1368.7,1255.8 1382.5,1259.4 1396.2,1261.8 1409.6,1262.8 1422.7,1262.5 1435.6,1260.8 1448.1,1257.8 1460.3,1253.4 1472.1,1247.7 1483.6,1240.7 1494.7,1232.3 1505.3,1222.7 1515.6,1211.9 1525.4,1199.9 1534.8,1186.8 1543.8,1172.6 1552.3,1157.3 1560.4,1141.2 1568.0,1124.2 1575.2,1106.4 1581.9,1087.9 1588.1,1068.8 1594.0,1049.3 1599.3,1029.4 1604.3,1009.2 1608.8,989.0  Z" style="stroke-width: 0.5;  stroke: rgb(0,0,0); fill: rgb(179,177,178);" />
<path d="M 1714.425,1976.475 A 522.500,522.500 0.00 0,1 1700.4,1982.5 L 1700.4,1982.5 1692.2,1963.3 1683.5,1944.2 1674.4,1925.4 1664.9,1907.1 1655.0,1889.3 1644.7,1872.1 1634.0,1855.7 1623.0,1840.1 1611.6,1825.3 1599.9,1811.5 1587.9,1798.8 1575.5,1787.1 1562.9,1776.6 1550.0,1767.3 1536.8,1759.3 1523.4,1752.5 1509.8,1747.0 1496.0,1742.8 1482.1,1740.0 1467.9,1738.5 1453.7,1738.4 1439.3,1739.6 1424.9,1742.2 1410.4,1746.1 1395.8,1751.2 1381.3,1757.7 1366.8,1765.3 1352.3,1774.2 1337.8,1784.1 1323.5,1795.2 1309.3,1807.3 1295.3,1820.3 1281.5,1834.2 1267.8,1848.8 1254.5,1864.2 1241.4,1880.2 1228.6,1896.7 1216.2,1913.5 1204.1,1930.7  A 522.500,522.500 0.00 0,1 1192.1,1922.1 L 1192.1,1922.1 1204.7,1905.3 1217.6,1888.7 1231.0,1872.5 1244.7,1856.8 1258.6,1841.7 1272.9,1827.3 1287.3,1813.7 1302.0,1801.0 1316.8,1789.2 1331.8,1778.4 1346.9,1768.6 1362.1,1760.0 1377.3,1752.6 1392.5,1746.3 1407.7,1741.3 1422.9,1737.6 1438.1,1735.2 1453.2,1734.1 1468.1,1734.3 1483.0,1735.8 1497.7,1738.7 1512.2,1742.9 1526.5,1748.4 1540.6,1755.1 1554.5,1763.2 1568.1,1772.4 1581.5,1782.8 1594.5,1794.4 1607.3,1807.0 1619.7,1820.7 1631.8,1835.3 1643.5,1850.8 1654.9,1867.1 1665.8,1884.1 1676.4,1901.7 1686.6,1919.9 1696.3,1938.5 1705.6,1957.4 1714.4,1976.5  Z" style="stroke-width: 0.5;  stroke: rgb(0,0,0); fill: rgb(179,177,178);" />
<path d="M 1833.031,1902.612 A 522.500,522.500 0.00 0,1 1822.1,1911.4 L 1822.1,1911.4 1808.3,1894.1 1793.9,1877.1 1779.1,1860.4 1763.7,1844.2 1747.9,1828.4 1731.6,1813.2 1714.9,1798.6 1697.8,1784.7 1680.3,1771.6 1662.5,1759.3 1644.2,1747.8 1625.7,1737.2 1606.8,1727.6 1587.7,1718.9 1568.3,1711.3 1548.7,1704.7 1528.8,1699.1 1508.8,1694.6 1488.6,1691.2 1468.2,1688.9 1447.8,1687.7 1427.2,1687.5 1406.7,1688.5 1386.0,1690.5 1365.4,1693.6 1344.8,1697.8 1324.3,1702.9 1303.8,1709.1 1283.5,1716.2 1263.3,1724.2 1243.3,1733.1 1223.5,1742.8 1204.0,1753.2 1184.7,1764.4 1165.8,1776.2 1147.1,1788.6 1128.9,1801.5 1111.1,1814.9 1093.7,1828.6  A 522.500,522.500 0.00 0,0 1102.5,1839.1 L 1102.5,1839.1 1119.5,1825.0 1136.9,1811.1 1154.8,1797.8 1173.1,1784.9 1191.8,1772.6 1210.7,1760.9 1230.0,1749.9 1249.5,1739.7 1269.3,1730.3 1289.2,1721.8 1309.4,1714.1 1329.7,1707.5 1350.1,1701.8 1370.6,1697.1 1391.1,1693.4 1411.7,1690.9 1432.2,1689.3 1452.8,1688.9 1473.2,1689.6 1493.6,1691.4 1513.9,1694.2 1534.1,1698.2 1554.1,1703.2 1573.9,1709.3 1593.5,1716.5 1612.9,1724.6 1632.0,1733.7 1650.8,1743.8 1669.3,1754.8 1687.5,1766.7 1705.4,1779.3 1722.8,1792.8 1739.9,1806.9 1756.6,1821.7 1772.8,1837.0 1788.6,1852.9 1803.9,1869.1 1818.7,1885.7 1833.0,1902.6  Z" style="stroke-width: 0.5;  stroke: rgb(0,0,0); fill: rgb(179,177,178);" />
<path d="M 1822.339,1911.222 A 522.500,522.500 0.00 0,1 1811.2,1919.7 L 1811.2,1919.7 1797.9,1902.2 1784.1,1884.9 1769.8,1868.0 1755.0,1851.5 1739.7,1835.4 1723.9,1820.0 1707.8,1805.2 1691.2,1791.0 1674.2,1777.7 1656.9,1765.2 1639.2,1753.5 1621.2,1742.8 1602.9,1733.0 1584.3,1724.3 1565.4,1716.6 1546.3,1709.9 1526.9,1704.3 1507.4,1699.8 1487.7,1696.4 1467.9,1694.2 1447.9,1693.1 1427.9,1693.0 1407.8,1694.1 1387.7,1696.4 1367.5,1699.6 1347.4,1704.0 1327.4,1709.4 1307.4,1715.8 1287.6,1723.2 1267.9,1731.5 1248.3,1740.7 1229.0,1750.7 1209.9,1761.5 1191.1,1773.1 1172.7,1785.3 1154.5,1798.0 1136.7,1811.3 1119.4,1825.0 1102.5,1839.1  A 522.500,522.500 0.00 0,1 1093.7,1828.6 L 1093.7,1828.6 1111.1,1814.9 1128.9,1801.5 1147.1,1788.6 1165.8,1776.2 1184.7,1764.4 1204.0,1753.2 1223.5,1742.7 1243.3,1733.1 1263.3,1724.2 1283.5,1716.2 1303.8,1709.1 1324.3,1702.9 1344.8,1697.8 1365.4,1693.6 1386.1,1690.5 1406.7,1688.5 1427.3,1687.5 1447.8,1687.6 1468.3,1688.8 1488.6,1691.2 1508.8,1694.6 1528.9,1699.0 1548.7,1704.6 1568.4,1711.2 1587.8,1718.8 1606.9,1727.5 1625.8,1737.1 1644.3,1747.7 1662.6,1759.2 1680.5,1771.5 1698.0,1784.6 1715.1,1798.5 1731.8,1813.1 1748.1,1828.3 1763.9,1844.1 1779.2,1860.3 1794.1,1877.0 1808.5,1894.0 1822.3,1911.2  Z" style="stroke-width: 0.5;  stroke: rgb(0,0,0); fill: rgb(179,177,178);" />
<path d="M 1885.035,1146.795 A 522.500,522.500 0.00 0,1 1893.1,1155.7 L 1893.1,1155.7 1875.2,1171.1 1856.8,1186.2 1838.0,1201.1 1818.8,1215.6 1799.1,1229.8 1778.9,1243.5 1758.4,1256.8 1737.5,1269.6 1716.2,1281.9 1694.6,1293.6 1672.6,1304.7 1650.3,1315.2 1627.7,1325.0 1604.8,1334.1 1581.6,1342.6 1558.2,1350.3 1534.6,1357.4 1510.8,1363.6 1486.7,1369.2 1462.6,1373.9 1438.2,1377.9 1413.8,1381.2 1389.3,1383.7 1364.7,1385.4 1340.1,1386.4 1315.4,1386.6 1290.8,1386.1 1266.2,1384.9 1241.6,1383.0 1217.1,1380.4 1192.8,1377.1 1168.6,1373.2 1144.5,1368.7 1120.7,1363.6 1097.1,1358.0 1073.8,1351.9 1050.7,1345.3 1028.0,1338.3 1005.6,1330.9  A 522.500,522.500 0.00 0,1 1009.7,1319.4 L 1009.7,1319.4 1031.8,1327.3 1054.2,1334.8 1077.0,1341.8 1100.0,1348.4 1123.4,1354.4 1146.9,1359.9 1170.7,1364.8 1194.7,1369.1 1218.8,1372.7 1243.0,1375.7 1267.3,1377.9 1291.6,1379.4 1316.0,1380.2 1340.4,1380.2 1364.8,1379.4 1389.2,1377.9 1413.4,1375.5 1437.6,1372.4 1461.6,1368.5 1485.5,1363.8 1509.3,1358.3 1532.8,1352.0 1556.2,1344.9 1579.3,1337.1 1602.1,1328.6 1624.7,1319.3 1647.0,1309.3 1668.9,1298.7 1690.6,1287.4 1711.9,1275.5 1732.8,1263.0 1753.3,1249.9 1773.5,1236.4 1793.2,1222.4 1812.5,1207.9 1831.3,1193.1 1849.7,1177.9 1867.6,1162.5 1885.0,1146.8  Z" style="stroke-width: 0.5;  stroke: rgb(0,0,0); fill: rgb(179,177,178);" />
<path d="M 1715.567,1024.041 A 522.500,522.500 0.00 0,1 1724.3,1028.1 L 1724.3,1028.1 1714.8,1047.5 1704.8,1066.8 1694.2,1085.8 1683.1,1104.5 1671.5,1122.7 1659.3,1140.3 1646.7,1157.4 1633.6,1173.7 1620.0,1189.3 1605.9,1204.1 1591.4,1218.0 1576.4,1231.0 1561.0,1243.0 1545.2,1254.0 1528.9,1263.9 1512.3,1272.7 1495.4,1280.4 1478.1,1286.9 1460.5,1292.3 1442.6,1296.5 1424.4,1299.5 1406.1,1301.4 1387.5,1302.1 1368.7,1301.6 1349.7,1300.0 1330.7,1297.3 1311.5,1293.4 1292.3,1288.5 1273.1,1282.5 1253.9,1275.6 1234.8,1267.7 1215.7,1258.9 1196.8,1249.3 1178.1,1238.9 1159.6,1227.8 1141.3,1216.1 1123.4,1203.8 1105.8,1191.1 1088.6,1177.9  A 522.500,522.500 0.00 0,1 1094.6,1170.4 L 1094.6,1170.4 1111.5,1183.8 1128.8,1196.8 1146.4,1209.4 1164.3,1221.4 1182.5,1232.7 1200.9,1243.4 1219.5,1253.3 1238.2,1262.3 1257.0,1270.5 1275.9,1277.7 1294.7,1283.8 1313.6,1289.0 1332.4,1293.0 1351.1,1296.0 1369.6,1297.8 1388.0,1298.4 1406.2,1297.8 1424.3,1296.1 1442.0,1293.2 1459.5,1289.0 1476.7,1283.7 1493.6,1277.2 1510.2,1269.6 1526.4,1260.8 1542.2,1250.9 1557.6,1239.9 1572.6,1227.9 1587.1,1214.9 1601.3,1201.0 1614.9,1186.1 1628.1,1170.5 1640.8,1154.0 1653.0,1136.9 1664.7,1119.1 1675.9,1100.8 1686.6,1082.1 1696.8,1062.9 1706.4,1043.6 1715.6,1024.0  Z" style="stroke-width: 0.5;  stroke: rgb(0,0,0); fill: rgb(179,177,178);" />
<path d="M 1668.586,1005.445 A 522.500,522.500 0.00 0,1 1677.4,1008.6 L 1677.4,1008.6 1670.0,1028.5 1662.0,1048.3 1653.6,1067.8 1644.6,1087.0 1635.2,1105.7 1625.2,1123.9 1614.7,1141.4 1603.8,1158.2 1592.3,1174.2 1580.4,1189.4 1568.0,1203.6 1555.2,1216.8 1541.9,1229.0 1528.2,1240.1 1514.1,1250.1 1499.5,1258.9 1484.6,1266.6 1469.3,1273.0 1453.7,1278.1 1437.8,1282.1 1421.5,1284.8 1405.0,1286.2 1388.3,1286.4 1371.3,1285.3 1354.2,1283.1 1336.9,1279.6 1319.4,1275.0 1301.9,1269.3 1284.3,1262.4 1266.7,1254.6 1249.2,1245.7 1231.6,1235.9 1214.2,1225.3 1196.9,1213.8 1179.9,1201.7 1163.0,1188.8 1146.4,1175.5 1130.2,1161.7 1114.3,1147.5  A 522.500,522.500 0.00 0,1 1120.8,1140.6 L 1120.8,1140.6 1136.3,1155.0 1152.2,1169.1 1168.5,1182.7 1185.0,1195.7 1201.8,1208.1 1218.7,1219.8 1235.8,1230.7 1252.9,1240.8 1270.1,1249.9 1287.4,1258.0 1304.6,1265.0 1321.7,1271.0 1338.8,1275.8 1355.7,1279.4 1372.5,1281.8 1389.0,1283.0 1405.4,1283.0 1421.5,1281.7 1437.3,1279.1 1452.8,1275.3 1468.0,1270.2 1482.9,1263.9 1497.4,1256.3 1511.5,1247.6 1525.2,1237.6 1538.5,1226.5 1551.3,1214.3 1563.7,1201.1 1575.7,1186.8 1587.2,1171.7 1598.2,1155.6 1608.7,1138.7 1618.7,1121.2 1628.3,1102.9 1637.3,1084.1 1645.9,1064.9 1654.0,1045.3 1661.5,1025.4 1668.6,1005.4  Z" style="stroke-width: 0.5;  stroke: rgb(0,0,0); fill: rgb(179,177,178);" />
<path d="M 1549.588,979.858 A 522.500,522.500 0.00 0,1 1558.4,980.8 L 1558.4,980.8 1555.9,1001.3 1553.1,1021.6 1549.8,1041.8 1546.0,1061.6 1541.9,1080.9 1537.2,1099.7 1532.2,1117.8 1526.6,1135.1 1520.6,1151.5 1514.1,1167.1 1507.1,1181.6 1499.6,1195.0 1491.6,1207.3 1483.2,1218.4 1474.3,1228.3 1464.9,1236.9 1455.1,1244.2 1444.9,1250.2 1434.2,1254.8 1423.1,1258.0 1411.6,1259.9 1399.8,1260.4 1387.6,1259.6 1375.0,1257.4 1362.2,1253.9 1349.1,1249.1 1335.8,1243.0 1322.2,1235.7 1308.5,1227.3 1294.7,1217.7 1280.7,1207.1 1266.7,1195.5 1252.7,1183.0 1238.6,1169.7 1224.7,1155.7 1210.9,1141.1 1197.2,1125.9 1183.8,1110.3 1170.6,1094.4  A 522.500,522.500 0.00 0,1 1177.6,1088.8 L 1177.6,1088.8 1190.4,1104.9 1203.6,1120.7 1216.9,1136.1 1230.4,1151.0 1244.0,1165.2 1257.6,1178.7 1271.3,1191.4 1284.9,1203.2 1298.5,1214.0 1312.0,1223.8 1325.3,1232.4 1338.4,1239.9 1351.4,1246.1 1364.0,1251.1 1376.4,1254.8 1388.5,1257.2 1400.3,1258.2 1411.7,1257.8 1422.8,1256.1 1433.4,1253.0 1443.6,1248.5 1453.5,1242.6 1462.8,1235.4 1471.7,1226.9 1480.2,1217.1 1488.2,1206.1 1495.7,1193.8 1502.7,1180.4 1509.3,1166.0 1515.3,1150.5 1520.9,1134.1 1526.0,1116.8 1530.7,1098.7 1534.9,1080.0 1538.7,1060.6 1542.0,1040.9 1544.9,1020.7 1547.5,1000.3 1549.6,979.9  Z" style="stroke-width: 0.5;  stroke: rgb(0,0,0); fill: rgb(179,177,178);" />
<path d="M 1654.121,1000.748 A 522.500,522.500 0.00 0,1 1662.0,1003.3 L 1662.0,1003.3 1655.2,1023.3 1648.0,1043.2 1640.2,1062.8 1632.0,1082.1 1623.2,1100.9 1614.0,1119.2 1604.3,1136.8 1594.1,1153.7 1583.4,1169.7 1572.2,1184.9 1560.6,1199.1 1548.6,1212.4 1536.1,1224.5 1523.1,1235.6 1509.8,1245.5 1496.0,1254.2 1481.9,1261.7 1467.4,1267.9 1452.5,1272.9 1437.3,1276.6 1421.9,1279.0 1406.1,1280.2 1390.1,1280.1 1373.9,1278.7 1357.5,1276.1 1340.9,1272.3 1324.2,1267.2 1307.4,1261.1 1290.5,1253.8 1273.6,1245.5 1256.7,1236.2 1239.9,1225.9 1223.1,1214.8 1206.5,1202.8 1190.1,1190.2 1173.9,1176.9 1157.9,1163.0 1142.3,1148.7 1127.0,1134.1  A 522.500,522.500 0.00 0,1 1132.9,1128.1 L 1132.9,1128.1 1147.9,1143.0 1163.3,1157.5 1178.9,1171.6 1194.8,1185.1 1211.0,1197.9 1227.3,1210.1 1243.7,1221.5 1260.2,1231.9 1276.8,1241.5 1293.3,1250.0 1309.9,1257.4 1326.3,1263.8 1342.7,1269.0 1358.9,1273.0 1375.0,1275.7 1390.8,1277.2 1406.5,1277.5 1421.8,1276.4 1436.9,1274.1 1451.7,1270.5 1466.2,1265.6 1480.3,1259.4 1494.1,1252.0 1507.5,1243.3 1520.4,1233.5 1533.0,1222.5 1545.1,1210.3 1556.8,1197.1 1568.0,1182.8 1578.8,1167.6 1589.1,1151.5 1598.9,1134.6 1608.2,1117.0 1617.1,1098.7 1625.5,1079.8 1633.4,1060.5 1640.8,1040.8 1647.7,1020.8 1654.1,1000.7  Z" style="stroke-width: 0.5;  stroke: rgb(0,0,0); fill: rgb(179,177,178);" />
<path d="M 1625.711,992.848 A 522.500,522.500 0.00 0,1 1633.2,994.8 L 1633.2,994.8 1627.6,1014.9 1621.6,1035.0 1615.1,1054.8 1608.2,1074.3 1600.8,1093.2 1593.0,1111.6 1584.6,1129.4 1575.8,1146.3 1566.5,1162.5 1556.8,1177.7 1546.6,1191.9 1536.0,1205.1 1524.9,1217.2 1513.4,1228.2 1501.5,1237.9 1489.2,1246.4 1476.5,1253.7 1463.4,1259.7 1450.0,1264.3 1436.2,1267.7 1422.2,1269.7 1407.8,1270.4 1393.2,1269.8 1378.4,1267.9 1363.3,1264.7 1348.1,1260.2 1332.7,1254.6 1317.2,1247.7 1301.6,1239.7 1286.0,1230.7 1270.3,1220.6 1254.7,1209.6 1239.2,1197.6 1223.7,1184.9 1208.4,1171.4 1193.4,1157.3 1178.5,1142.7 1164.0,1127.6 1149.8,1112.2  A 522.500,522.500 0.00 0,1 1155.7,1107.0 L 1155.7,1107.0 1169.6,1122.6 1183.9,1137.8 1198.4,1152.6 1213.2,1166.9 1228.2,1180.6 1243.3,1193.5 1258.5,1205.6 1273.8,1216.9 1289.2,1227.1 1304.5,1236.4 1319.7,1244.5 1334.9,1251.5 1349.9,1257.3 1364.8,1261.9 1379.5,1265.3 1394.0,1267.3 1408.3,1268.1 1422.3,1267.5 1436.0,1265.6 1449.4,1262.3 1462.4,1257.7 1475.1,1251.8 1487.4,1244.6 1499.4,1236.2 1510.9,1226.5 1522.0,1215.5 1532.7,1203.5 1543.0,1190.3 1552.8,1176.0 1562.2,1160.8 1571.1,1144.7 1579.5,1127.7 1587.5,1109.9 1595.0,1091.5 1602.1,1072.5 1608.7,1053.0 1614.8,1033.2 1620.5,1013.1 1625.7,992.8  Z" style="stroke-width: 0.5;  stroke: rgb(0,0,0); fill: rgb(179,177,178);" />
</g>
<g id="plot0">
<g id="plot0-axis">
</g>
<line x1='2225.0' y1='1692.1' x2='2225.0' y2='1692.1' style="stroke-width:14.0;stroke:rgb(0,0,0);stroke-linecap:round;fill:none;" />
<line x1='2225.0' y1='1692.1' x2='2263.6' y2='1702.4' style="stroke-width:14.0;stroke:rgb(0,0,0);stroke-linecap:round;fill:none;" />
<line x1='2263.6' y1='1702.4' x2='2263.6' y2='1702.4' style="stroke-width:14.0;stroke:rgb(0,0,0);stroke-linecap:round;fill:none;" />
<text x="2276.9" y="1729.2" font-size="46.8px" font-family="CMUBright-Roman" style="text-anchor:start;fill:rgb(255,38,78);" transform="rotate(14.8,2276.9,1729.2)" >HistocapWGSS11<tspan baseline-shift="-40%" font-size="90%">s</tspan>01460</text>
</g>
<defs>
<pattern id="checker" width="10" height="10" patternTransform="rotate(45 0 0)" patternUnits="userSpaceOnUse"><line x1="0" y1="0" x2="10" y2="0" style="stroke:black;stroke-width:2" /><line x1="0" y1="0" x2="0" y2="10" style="stroke:black;stroke-width:2" /></pattern>
<pattern id="hline" width="10" height="10" patternTransform="rotate(0 0 0)" patternUnits="userSpaceOnUse"><line x1="0" y1="0" x2="10" y2="0" style="stroke:black;stroke-width:5" /></pattern>
<pattern id="vline" width="10" height="10" patternTransform="rotate(0 0 0)" patternUnits="userSpaceOnUse"><line x1="0" y1="0" x2="0" y2="10" style="stroke:black;stroke-width:5" /></pattern>
<pattern id="hline-sparse" width="10" height="10" patternTransform="rotate(0 0 0)" patternUnits="userSpaceOnUse"><line x1="0" y1="0" x2="10" y2="0" style="stroke:black;stroke-width:2" /></pattern>
<pattern id="vline-sparse" width="10" height="10" patternTransform="rotate(0 0 0)" patternUnits="userSpaceOnUse"><line x1="0" y1="0" x2="0" y2="10" style="stroke:black;stroke-width:2" /></pattern>
<pattern id="checker" width="10" height="10" patternTransform="rotate(45 0 0)" patternUnits="userSpaceOnUse"><line x1="0" y1="0" x2="10" y2="0" style="stroke:black;stroke-width:5" /><line x1="0" y1="0" x2="0" y2="10" style="stroke:black;stroke-width:4" /></pattern>
</defs>
</svg>
