<?xml version="1.0" encoding="utf-8" standalone="no"?>
<!DOCTYPE svg PUBLIC "-//W3C//DTD SVG 1.1//EN" "http://www.w3.org/Graphics/SVG/1.1/DTD/svg11.dtd">
<svg width="3000px" height="3000px" version="1.1" xmlns="http://www.w3.org/2000/svg" xmlns:xlink="http://www.w3.org/1999/xlink">
<g id="bg">
<rect x="0" y="0" width="3000px" height="3000px" style="fill:rgb(255,255,255);"/>
</g>
<g id="ideograms">
<path d="M1500.000,950.000 A550.000,550.000 40.000 0,1 1711.211,2007.828 L1788.016,2192.493 A750.000,750.000 0.000 0,0 1500.000,750.000 Z" style="stroke-width:2.0;stroke:rgb(0,0,0);stroke-linecap:round;fill:rgb(179,177,178);" />
<text x="2456.1" y="1309.1" font-size="46.8px" font-family="CMUBright-Roman" style="text-anchor:middle;fill:rgb(0,0,0);" transform="rotate(438.7,2456.1,1309.1)" >Histocap485P20<tspan baseline-shift="-40%" font-size="90%">3</tspan></text>
<line x1='1555.8' y1='752.1' x2='1556.7' y2='740.1' style="stroke-width:8.0;stroke:rgb(150,150,150);stroke-linecap:round;fill:none;" />
<line x1='1656.4' y1='766.5' x2='1658.9' y2='754.8' style="stroke-width:8.0;stroke:rgb(150,150,150);stroke-linecap:round;fill:none;" />
<text x="1675.1" y="746.1" font-size="41.6px" font-family="CMUBright-Roman" style="text-anchor:start;fill:rgb(150,150,150);" transform="rotate(282.0,1675.1,746.1)" >3050 kb</text>
<line x1='1754.1' y1='794.4' x2='1758.2' y2='783.1' style="stroke-width:8.0;stroke:rgb(150,150,150);stroke-linecap:round;fill:none;" />
<line x1='1847.2' y1='835.2' x2='1852.8' y2='824.6' style="stroke-width:8.0;stroke:rgb(150,150,150);stroke-linecap:round;fill:none;" />
<line x1='1933.9' y1='888.3' x2='1940.9' y2='878.5' style="stroke-width:8.0;stroke:rgb(150,150,150);stroke-linecap:round;fill:none;" />
<line x1='2012.7' y1='952.6' x2='2020.9' y2='943.8' style="stroke-width:8.0;stroke:rgb(150,150,150);stroke-linecap:round;fill:none;" />
<line x1='2082.0' y1='1026.9' x2='2091.3' y2='1019.3' style="stroke-width:8.0;stroke:rgb(150,150,150);stroke-linecap:round;fill:none;" />
<text x="2109.3" y="1022.7" font-size="41.6px" font-family="CMUBright-Roman" style="text-anchor:start;fill:rgb(150,150,150);" transform="rotate(320.9,2109.3,1022.7)" >3100 kb</text>
<line x1='2140.6' y1='1110.0' x2='2150.8' y2='1103.7' style="stroke-width:8.0;stroke:rgb(150,150,150);stroke-linecap:round;fill:none;" />
<line x1='2187.5' y1='1200.2' x2='2198.5' y2='1195.4' style="stroke-width:8.0;stroke:rgb(150,150,150);stroke-linecap:round;fill:none;" />
<line x1='2221.7' y1='1295.9' x2='2233.2' y2='1292.6' style="stroke-width:8.0;stroke:rgb(150,150,150);stroke-linecap:round;fill:none;" />
<line x1='2242.7' y1='1395.3' x2='2254.5' y2='1393.7' style="stroke-width:8.0;stroke:rgb(150,150,150);stroke-linecap:round;fill:none;" />
<line x1='2250.0' y1='1496.7' x2='2262.0' y2='1496.7' style="stroke-width:8.0;stroke:rgb(150,150,150);stroke-linecap:round;fill:none;" />
<text x="2273.9" y="1510.6" font-size="41.6px" font-family="CMUBright-Roman" style="text-anchor:start;fill:rgb(150,150,150);" transform="rotate(359.7,2273.9,1510.6)" >3150 kb</text>
<line x1='2243.5' y1='1598.2' x2='2255.4' y2='1599.7' style="stroke-width:8.0;stroke:rgb(150,150,150);stroke-linecap:round;fill:none;" />
<line x1='2223.4' y1='1697.8' x2='2235.0' y2='1701.0' style="stroke-width:8.0;stroke:rgb(150,150,150);stroke-linecap:round;fill:none;" />
<line x1='2190.1' y1='1793.8' x2='2201.1' y2='1798.5' style="stroke-width:8.0;stroke:rgb(150,150,150);stroke-linecap:round;fill:none;" />
<line x1='2144.0' y1='1884.4' x2='2154.3' y2='1890.6' style="stroke-width:8.0;stroke:rgb(150,150,150);stroke-linecap:round;fill:none;" />
<line x1='2086.1' y1='1968.0' x2='2095.5' y2='1975.5' style="stroke-width:8.0;stroke:rgb(150,150,150);stroke-linecap:round;fill:none;" />
<text x="2096.0" y="1993.8" font-size="41.6px" font-family="CMUBright-Roman" style="text-anchor:start;fill:rgb(150,150,150);" transform="rotate(38.6,2096.0,1993.8)" >3200 kb</text>
<line x1='2017.4' y1='2042.9' x2='2025.7' y2='2051.6' style="stroke-width:8.0;stroke:rgb(150,150,150);stroke-linecap:round;fill:none;" />
<line x1='1939.3' y1='2107.9' x2='1946.3' y2='2117.6' style="stroke-width:8.0;stroke:rgb(150,150,150);stroke-linecap:round;fill:none;" />
<line x1='1853.0' y1='2161.7' x2='1858.7' y2='2172.3' style="stroke-width:8.0;stroke:rgb(150,150,150);stroke-linecap:round;fill:none;" />
<g id="highlighttrack_0">
<path d="M2037.404,1382.966 A550.000,550.000 40.000 0,1 2041.142,1401.686 L2237.921,1365.935 A750.000,750.000 0.000 0,0 2232.824,1340.408 Z" style="stroke-width:14.0;stroke:rgb(0,0,0);stroke-linecap:round;fill:rgb(255,38,78);" />
</g>
<path d="M1500.000,950.000 A550.000,550.000 40.000 0,1 1711.211,2007.828 L1788.016,2192.493 A750.000,750.000 0.000 0,0 1500.000,750.000 Z" style="stroke-width:2.0;stroke:rgb(0,0,0);stroke-linecap:round;fill:none;" />
<path d="M1492.980,2049.955 A550.000,550.000 40.000 0,1 1282.324,994.909 L1203.170,811.239 A750.000,750.000 0.000 0,0 1490.428,2249.939 Z" style="stroke-width:2.0;stroke:rgb(0,0,0);stroke-linecap:round;fill:rgb(179,177,178);" />
<text x="499.7" y="1699.7" font-size="46.8px" font-family="CMUBright-Roman" style="text-anchor:middle;fill:rgb(0,0,0);" transform="rotate(78.7,499.7,1699.7)" >HistoohiSECH96<tspan baseline-shift="-40%" font-size="90%">3</tspan></text>
<line x1='1158.8' y1='832.1' x2='1153.3' y2='821.4' style="stroke-width:8.0;stroke:rgb(150,150,150);stroke-linecap:round;fill:none;" />
<line x1='1071.6' y1='884.4' x2='1064.7' y2='874.5' style="stroke-width:8.0;stroke:rgb(150,150,150);stroke-linecap:round;fill:none;" />
<line x1='992.3' y1='948.0' x2='984.2' y2='939.1' style="stroke-width:8.0;stroke:rgb(150,150,150);stroke-linecap:round;fill:none;" />
<line x1='922.3' y1='1021.7' x2='913.1' y2='1014.0' style="stroke-width:8.0;stroke:rgb(150,150,150);stroke-linecap:round;fill:none;" />
<text x="895.0" y="1017.3" font-size="41.6px" font-family="CMUBright-Roman" style="text-anchor:end;fill:rgb(150,150,150);" transform="rotate(39.6,895.0,1017.3)" >2400 kb</text>
<line x1='862.9' y1='1104.2' x2='852.7' y2='1097.9' style="stroke-width:8.0;stroke:rgb(150,150,150);stroke-linecap:round;fill:none;" />
<line x1='815.3' y1='1194.0' x2='804.3' y2='1189.1' style="stroke-width:8.0;stroke:rgb(150,150,150);stroke-linecap:round;fill:none;" />
<line x1='780.2' y1='1289.4' x2='768.7' y2='1286.0' style="stroke-width:8.0;stroke:rgb(150,150,150);stroke-linecap:round;fill:none;" />
<line x1='758.3' y1='1388.7' x2='746.4' y2='1386.9' style="stroke-width:8.0;stroke:rgb(150,150,150);stroke-linecap:round;fill:none;" />
<line x1='750.1' y1='1490.0' x2='738.1' y2='1489.8' style="stroke-width:8.0;stroke:rgb(150,150,150);stroke-linecap:round;fill:none;" />
<text x="726.0" y="1503.6" font-size="41.6px" font-family="CMUBright-Roman" style="text-anchor:end;fill:rgb(150,150,150);" transform="rotate(0.8,726.0,1503.6)" >2450 kb</text>
<line x1='755.6' y1='1591.5' x2='743.7' y2='1592.9' style="stroke-width:8.0;stroke:rgb(150,150,150);stroke-linecap:round;fill:none;" />
<line x1='774.8' y1='1691.3' x2='763.2' y2='1694.3' style="stroke-width:8.0;stroke:rgb(150,150,150);stroke-linecap:round;fill:none;" />
<line x1='807.3' y1='1787.6' x2='796.2' y2='1792.2' style="stroke-width:8.0;stroke:rgb(150,150,150);stroke-linecap:round;fill:none;" />
<line x1='852.6' y1='1878.6' x2='842.2' y2='1884.7' style="stroke-width:8.0;stroke:rgb(150,150,150);stroke-linecap:round;fill:none;" />
<line x1='909.7' y1='1962.7' x2='900.3' y2='1970.1' style="stroke-width:8.0;stroke:rgb(150,150,150);stroke-linecap:round;fill:none;" />
<text x="899.6" y="1988.4" font-size="41.6px" font-family="CMUBright-Roman" style="text-anchor:end;fill:rgb(150,150,150);" transform="rotate(-38.1,899.6,1988.4)" >2500 kb</text>
<line x1='977.7' y1='2038.3' x2='969.4' y2='2046.9' style="stroke-width:8.0;stroke:rgb(150,150,150);stroke-linecap:round;fill:none;" />
<line x1='1055.3' y1='2103.9' x2='1048.2' y2='2113.6' style="stroke-width:8.0;stroke:rgb(150,150,150);stroke-linecap:round;fill:none;" />
<line x1='1141.0' y1='2158.5' x2='1135.3' y2='2169.1' style="stroke-width:8.0;stroke:rgb(150,150,150);stroke-linecap:round;fill:none;" />
<line x1='1233.4' y1='2201.0' x2='1229.1' y2='2212.2' style="stroke-width:8.0;stroke:rgb(150,150,150);stroke-linecap:round;fill:none;" />
<line x1='1330.6' y1='2230.6' x2='1327.9' y2='2242.3' style="stroke-width:8.0;stroke:rgb(150,150,150);stroke-linecap:round;fill:none;" />
<text x="1338.9" y="2257.0" font-size="41.6px" font-family="CMUBright-Roman" style="text-anchor:end;fill:rgb(150,150,150);" transform="rotate(-76.9,1338.9,2257.0)" >2550 kb</text>
<line x1='1431.0' y1='2246.8' x2='1429.9' y2='2258.8' style="stroke-width:8.0;stroke:rgb(150,150,150);stroke-linecap:round;fill:none;" />
<path d="M1492.980,2049.955 A550.000,550.000 40.000 0,1 1282.324,994.909 L1203.170,811.239 A750.000,750.000 0.000 0,0 1490.428,2249.939 Z" style="stroke-width:2.0;stroke:rgb(0,0,0);stroke-linecap:round;fill:none;" />
</g>
<g id="track_0">
<path d="M 1998.053,1657.954 A 522.500,522.500 0.00 0,1 1915.6,1816.6 L 1915.6,1816.6 1898.1,1803.6 1880.1,1790.9 1861.7,1778.7 1843.0,1767.0 1824.0,1755.9 1804.7,1745.6 1785.2,1735.9 1765.6,1727.1 1745.8,1719.1 1725.9,1712.1 1705.9,1706.0 1685.9,1700.9 1665.8,1696.8 1645.9,1693.8 1625.9,1691.9 1606.1,1691.0 1586.4,1691.3 1566.8,1692.7 1547.4,1695.3 1528.2,1699.0 1509.3,1703.8 1490.6,1709.7 1472.1,1716.7 1454.0,1724.8 1436.2,1734.0 1418.7,1744.2 1401.7,1755.4 1384.9,1767.6 1368.6,1780.6 1352.8,1794.5 1337.3,1809.3 1322.3,1824.7 1307.8,1840.9 1293.7,1857.7 1280.1,1875.0 1267.1,1892.7 1254.5,1910.9 1242.5,1929.3 1231.0,1947.9  A 522.500,522.500 0.00 0,1 1095.5,1830.8 L 1095.5,1830.8 1114.1,1815.9 1133.0,1801.3 1152.4,1787.0 1172.3,1772.9 1192.5,1759.2 1213.2,1746.0 1234.3,1733.1 1255.7,1720.8 1277.5,1708.9 1299.6,1697.6 1322.0,1686.9 1344.8,1676.8 1367.8,1667.2 1391.2,1658.4 1414.7,1650.2 1438.5,1642.6 1462.5,1635.8 1486.7,1629.7 1511.1,1624.3 1535.6,1619.6 1560.3,1615.6 1585.0,1612.4 1609.8,1609.8 1634.7,1608.0 1659.7,1607.0 1684.6,1606.6 1709.5,1606.9 1734.4,1607.9 1759.2,1609.6 1784.0,1611.9 1808.6,1614.9 1833.1,1618.5 1857.4,1622.6 1881.5,1627.3 1905.4,1632.5 1929.0,1638.2 1952.3,1644.4 1975.4,1651.0 1998.1,1658.0  Z" style="stroke-width: 0.5;  stroke: rgb(0,0,0); fill: rgb(179,177,178);" />
<path d="M 1658.292,1002.054 A 522.500,522.500 0.00 0,1 1801.2,1073.1 L 1801.2,1073.1 1787.5,1092.1 1773.2,1111.1 1758.5,1129.9 1743.2,1148.5 1727.4,1166.8 1711.1,1184.8 1694.3,1202.4 1676.9,1219.7 1659.1,1236.5 1640.9,1252.8 1622.1,1268.6 1602.9,1283.8 1583.2,1298.5 1563.1,1312.6 1542.6,1326.0 1521.7,1338.8 1500.3,1351.0 1478.7,1362.4 1456.6,1373.1 1434.2,1383.2 1411.6,1392.5 1388.6,1401.0 1365.3,1408.9 1341.9,1416.0 1318.2,1422.3 1294.3,1427.9 1270.2,1432.8 1246.0,1437.0 1221.8,1440.5 1197.4,1443.3 1173.0,1445.4 1148.6,1446.8 1124.3,1447.6 1100.0,1447.8 1075.8,1447.4 1051.8,1446.4 1027.9,1444.9 1004.3,1443.0 980.9,1440.5  A 522.500,522.500 0.00 0,1 1023.4,1285.8 L 1023.4,1285.8 1043.5,1294.5 1063.9,1302.8 1084.5,1310.5 1105.4,1317.7 1126.4,1324.1 1147.5,1329.9 1168.6,1334.8 1189.7,1338.9 1210.8,1342.2 1231.8,1344.5 1252.6,1345.9 1273.2,1346.4 1293.6,1345.8 1313.7,1344.2 1333.5,1341.5 1353.0,1337.8 1372.1,1333.1 1390.8,1327.2 1409.0,1320.3 1426.8,1312.4 1444.1,1303.4 1460.9,1293.3 1477.2,1282.3 1493.0,1270.3 1508.2,1257.3 1522.8,1243.4 1536.8,1228.6 1550.2,1212.9 1563.1,1196.5 1575.3,1179.3 1586.9,1161.4 1598.0,1142.9 1608.4,1123.9 1618.2,1104.3 1627.4,1084.4 1636.0,1064.1 1644.0,1043.5 1651.4,1022.8 1658.3,1002.1  Z" style="stroke-width: 0.5;  stroke: rgb(0,0,0); fill: rgb(179,177,178);" />
<path d="M 2022.223,1517.013 A 522.500,522.500 0.00 0,1 2002.7,1642.3 L 2002.7,1642.3 1979.7,1636.0 1956.3,1630.1 1932.6,1624.5 1908.6,1619.4 1884.4,1614.8 1860.0,1610.7 1835.4,1607.1 1810.6,1604.0 1785.7,1601.6 1760.7,1599.7 1735.6,1598.5 1710.4,1597.8 1685.2,1597.9 1659.9,1598.6 1634.7,1599.9 1609.5,1601.9 1584.4,1604.7 1559.4,1608.1 1534.4,1612.1 1509.6,1616.9 1484.9,1622.4 1460.4,1628.5 1436.0,1635.3 1411.9,1642.7 1387.9,1650.8 1364.2,1659.5 1340.8,1668.8 1317.7,1678.7 1294.8,1689.2 1272.2,1700.2 1250.0,1711.7 1228.1,1723.7 1206.6,1736.1 1185.4,1749.0 1164.7,1762.3 1144.3,1775.9 1124.3,1789.8 1104.8,1804.0 1085.7,1818.4  A 522.500,522.500 0.00 0,1 1021.0,1708.7 L 1021.0,1708.7 1044.3,1698.7 1067.9,1688.8 1091.7,1679.0 1115.8,1669.5 1140.0,1660.2 1164.5,1651.0 1189.2,1642.1 1214.0,1633.5 1239.0,1625.1 1264.3,1616.9 1289.6,1609.0 1315.2,1601.5 1340.8,1594.2 1366.6,1587.2 1392.5,1580.5 1418.6,1574.2 1444.7,1568.1 1470.9,1562.4 1497.2,1557.0 1523.6,1552.0 1550.1,1547.3 1576.5,1542.9 1603.1,1538.8 1629.6,1535.1 1656.2,1531.8 1682.7,1528.7 1709.3,1526.0 1735.8,1523.6 1762.3,1521.6 1788.7,1519.8 1815.1,1518.4 1841.4,1517.2 1867.6,1516.4 1893.7,1515.9 1919.7,1515.6 1945.5,1515.6 1971.3,1515.8 1996.8,1516.3 2022.2,1517.0  Z" style="stroke-width: 0.5;  stroke: rgb(0,0,0); fill: rgb(179,177,178);" />
<path d="M 1904.264,1831.024 A 522.500,522.500 0.00 0,1 1847.9,1889.8 L 1847.9,1889.8 1833.7,1874.2 1819.1,1859.0 1804.2,1844.1 1789.0,1829.9 1773.6,1816.2 1757.9,1803.2 1742.1,1791.1 1726.1,1779.8 1710.1,1769.5 1694.0,1760.1 1677.9,1751.9 1661.8,1744.7 1645.8,1738.7 1629.8,1733.9 1613.9,1730.4 1598.2,1728.1 1582.7,1727.1 1567.3,1727.4 1552.1,1729.0 1537.2,1731.9 1522.6,1736.0 1508.2,1741.5 1494.2,1748.3 1480.5,1756.3 1467.1,1765.5 1454.1,1775.9 1441.4,1787.5 1429.2,1800.1 1417.3,1813.8 1405.9,1828.5 1394.9,1844.1 1384.3,1860.5 1374.2,1877.7 1364.5,1895.5 1355.3,1914.0 1346.5,1932.9 1338.2,1952.3 1330.4,1971.9 1323.0,1991.6  A 522.500,522.500 0.00 0,1 1248.3,1957.9 L 1248.3,1957.9 1259.0,1939.0 1270.2,1920.2 1281.9,1901.8 1294.2,1883.7 1306.9,1866.2 1320.2,1849.1 1333.9,1832.7 1348.0,1817.0 1362.7,1802.0 1377.8,1787.9 1393.2,1774.7 1409.1,1762.4 1425.4,1751.1 1442.1,1740.8 1459.1,1731.5 1476.4,1723.4 1494.1,1716.4 1512.0,1710.5 1530.2,1705.8 1548.7,1702.2 1567.3,1699.8 1586.1,1698.6 1605.1,1698.5 1624.3,1699.6 1643.5,1701.8 1662.8,1705.2 1682.1,1709.6 1701.5,1715.1 1720.8,1721.6 1740.0,1729.1 1759.2,1737.5 1778.2,1746.8 1797.0,1756.9 1815.7,1767.8 1834.0,1779.4 1852.1,1791.5 1869.9,1804.3 1887.3,1817.5 1904.3,1831.0  Z" style="stroke-width: 0.5;  stroke: rgb(0,0,0); fill: rgb(179,177,178);" />
<path d="M 1500.000,977.500 A 522.500,522.500 0.00 0,1 1553.3,980.2 L 1553.3,980.2 1550.9,1001.1 1548.0,1022.0 1544.7,1042.7 1540.8,1063.1 1536.3,1083.1 1531.3,1102.7 1525.7,1121.7 1519.4,1140.0 1512.6,1157.7 1505.2,1174.5 1497.1,1190.5 1488.4,1205.5 1479.0,1219.5 1469.1,1232.5 1458.5,1244.4 1447.3,1255.2 1435.5,1264.9 1423.1,1273.3 1410.1,1280.6 1396.6,1286.6 1382.5,1291.4 1368.0,1295.0 1352.9,1297.4 1337.4,1298.5 1321.5,1298.4 1305.1,1297.2 1288.4,1294.8 1271.4,1291.2 1254.2,1286.6 1236.7,1280.9 1219.0,1274.2 1201.1,1266.6 1183.2,1258.1 1165.3,1248.8 1147.4,1238.7 1129.6,1228.0 1112.0,1216.7 1094.5,1204.9 1077.4,1192.7  A 522.500,522.500 0.00 0,1 1117.7,1143.8 L 1117.7,1143.8 1133.0,1157.7 1148.5,1171.4 1164.2,1184.5 1179.9,1197.1 1195.8,1209.1 1211.6,1220.4 1227.3,1230.8 1243.0,1240.3 1258.4,1248.9 1273.6,1256.5 1288.6,1262.9 1303.2,1268.3 1317.5,1272.4 1331.4,1275.4 1344.9,1277.1 1357.9,1277.5 1370.4,1276.7 1382.4,1274.5 1393.9,1271.1 1404.8,1266.3 1415.2,1260.3 1425.0,1253.0 1434.1,1244.4 1442.7,1234.6 1450.6,1223.5 1457.9,1211.4 1464.6,1198.1 1470.7,1183.7 1476.1,1168.4 1481.0,1152.1 1485.3,1134.9 1488.9,1117.0 1492.0,1098.4 1494.6,1079.1 1496.6,1059.4 1498.1,1039.2 1499.2,1018.8 1499.8,998.2 1500.0,977.5  Z" style="stroke-width: 0.5;  stroke: rgb(0,0,0); fill: rgb(179,177,178);" />
<path d="M 1846.681,1890.920 A 522.500,522.500 0.00 0,1 1810.4,1920.3 L 1810.4,1920.3 1797.9,1903.7 1785.1,1887.4 1772.0,1871.5 1758.6,1856.1 1745.0,1841.4 1731.2,1827.3 1717.4,1814.1 1703.4,1801.7 1689.4,1790.4 1675.3,1780.0 1661.3,1770.8 1647.3,1762.7 1633.4,1755.9 1619.6,1750.2 1605.9,1745.9 1592.4,1742.9 1579.0,1741.2 1565.9,1740.9 1553.0,1742.0 1540.4,1744.4 1528.0,1748.2 1515.9,1753.4 1504.1,1759.8 1492.7,1767.6 1481.6,1776.7 1470.8,1787.1 1460.4,1798.6 1450.4,1811.3 1440.8,1825.0 1431.6,1839.8 1422.8,1855.6 1414.4,1872.2 1406.4,1889.7 1398.8,1907.8 1391.6,1926.5 1384.9,1945.8 1378.6,1965.4 1372.7,1985.3 1367.2,2005.3  A 522.500,522.500 0.00 0,1 1323.0,1991.6 L 1323.0,1991.6 1330.4,1971.9 1338.2,1952.3 1346.5,1933.0 1355.3,1914.0 1364.5,1895.6 1374.1,1877.7 1384.3,1860.5 1394.8,1844.1 1405.8,1828.6 1417.2,1813.9 1429.1,1800.2 1441.3,1787.6 1453.9,1776.1 1466.9,1765.7 1480.3,1756.5 1494.0,1748.5 1508.0,1741.8 1522.3,1736.3 1536.9,1732.2 1551.8,1729.3 1566.9,1727.7 1582.2,1727.5 1597.7,1728.5 1613.4,1730.9 1629.2,1734.5 1645.2,1739.3 1661.2,1745.3 1677.2,1752.5 1693.3,1760.8 1709.3,1770.2 1725.3,1780.6 1741.2,1791.9 1757.0,1804.1 1772.6,1817.1 1788.0,1830.8 1803.1,1845.1 1818.0,1860.0 1832.5,1875.3 1846.7,1890.9  Z" style="stroke-width: 0.5;  stroke: rgb(0,0,0); fill: rgb(179,177,178);" />
<path d="M 1999.006,1345.082 A 522.500,522.500 0.00 0,1 2010.5,1388.8 L 2010.5,1388.8 1984.4,1394.5 1958.3,1400.2 1932.1,1405.8 1906.0,1411.5 1879.8,1417.1 1853.7,1422.8 1827.5,1428.4 1801.3,1434.0 1775.1,1439.6 1748.9,1445.1 1722.6,1450.7 1696.4,1456.3 1670.2,1461.8 1643.9,1467.3 1617.7,1472.8 1591.4,1478.3 1565.1,1483.8 1538.9,1489.2 1512.6,1494.7 1486.3,1500.1 1460.0,1505.5 1433.8,1510.9 1407.5,1516.2 1381.2,1521.6 1354.9,1526.9 1328.6,1532.2 1302.3,1537.6 1276.0,1542.8 1249.8,1548.1 1223.5,1553.4 1197.2,1558.6 1170.9,1563.8 1144.7,1569.0 1118.4,1574.2 1092.1,1579.4 1065.9,1584.6 1039.6,1589.7 1013.4,1594.8 987.1,1600.0  A 522.500,522.500 0.00 0,1 980.4,1554.6 L 980.4,1554.6 1006.4,1551.8 1032.5,1548.9 1058.7,1545.9 1084.9,1542.8 1111.2,1539.5 1137.6,1536.1 1163.9,1532.6 1190.4,1528.9 1216.8,1525.1 1243.3,1521.1 1269.8,1517.0 1296.3,1512.8 1322.8,1508.4 1349.4,1503.8 1375.9,1499.2 1402.4,1494.3 1428.9,1489.3 1455.4,1484.2 1481.9,1478.9 1508.3,1473.5 1534.7,1467.9 1561.1,1462.1 1587.4,1456.3 1613.7,1450.2 1639.9,1444.1 1666.1,1437.8 1692.2,1431.3 1718.2,1424.8 1744.2,1418.1 1770.1,1411.3 1795.9,1404.3 1821.6,1397.3 1847.3,1390.1 1872.8,1382.8 1898.3,1375.5 1923.6,1368.0 1948.9,1360.4 1974.0,1352.8 1999.0,1345.1  Z" style="stroke-width: 0.5;  stroke: rgb(0,0,0); fill: rgb(179,177,178);" />
<path d="M 1795.056,1931.217 A 522.500,522.500 0.00 0,1 1757.8,1954.5 L 1757.8,1954.5 1747.5,1936.8 1737.0,1919.3 1726.3,1902.2 1715.5,1885.6 1704.4,1869.6 1693.3,1854.3 1682.1,1839.9 1670.9,1826.3 1659.6,1813.7 1648.4,1802.2 1637.3,1791.9 1626.3,1782.7 1615.3,1774.8 1604.5,1768.1 1593.9,1762.9 1583.4,1759.0 1573.2,1756.5 1563.2,1755.4 1553.4,1755.8 1543.9,1757.6 1534.7,1760.8 1525.8,1765.5 1517.2,1771.5 1508.9,1779.0 1500.9,1787.8 1493.3,1797.9 1486.0,1809.3 1479.1,1821.9 1472.5,1835.6 1466.3,1850.4 1460.4,1866.2 1454.9,1882.9 1449.8,1900.5 1445.0,1918.8 1440.6,1937.7 1436.6,1957.1 1432.9,1977.0 1429.5,1997.1 1426.5,2017.3  A 522.500,522.500 0.00 0,1 1383.6,2009.4 L 1383.6,2009.4 1388.4,1989.3 1393.6,1969.3 1399.1,1949.6 1405.1,1930.3 1411.5,1911.5 1418.3,1893.3 1425.5,1875.8 1433.1,1859.1 1441.1,1843.3 1449.5,1828.5 1458.2,1814.7 1467.4,1802.1 1476.9,1790.6 1486.8,1780.3 1497.0,1771.3 1507.6,1763.6 1518.5,1757.3 1529.6,1752.3 1541.1,1748.7 1552.9,1746.4 1564.9,1745.6 1577.2,1746.1 1589.6,1748.1 1602.3,1751.4 1615.1,1756.0 1628.0,1761.9 1641.1,1769.1 1654.2,1777.5 1667.4,1787.1 1680.7,1797.8 1693.9,1809.6 1707.1,1822.3 1720.2,1835.9 1733.2,1850.4 1746.0,1865.5 1758.6,1881.3 1771.1,1897.6 1783.2,1914.3 1795.1,1931.2  Z" style="stroke-width: 0.5;  stroke: rgb(0,0,0); fill: rgb(179,177,178);" />
<path d="M 1572.991,982.623 A 522.500,522.500 0.00 0,1 1609.0,989.0 L 1609.0,989.0 1604.2,1009.9 1599.0,1030.8 1593.2,1051.5 1586.8,1072.0 1579.8,1092.1 1572.2,1111.8 1564.1,1130.9 1555.3,1149.5 1545.9,1167.3 1535.8,1184.5 1525.2,1200.8 1513.9,1216.3 1502.0,1230.8 1489.5,1244.4 1476.4,1257.0 1462.7,1268.6 1448.4,1279.1 1433.5,1288.5 1418.2,1296.8 1402.3,1303.9 1385.8,1310.0 1369.0,1314.8 1351.6,1318.5 1333.9,1321.1 1315.8,1322.6 1297.3,1322.9 1278.5,1322.2 1259.4,1320.3 1240.2,1317.5 1220.7,1313.6 1201.1,1308.8 1181.3,1303.1 1161.6,1296.5 1141.8,1289.1 1122.2,1280.9 1102.6,1272.1 1083.3,1262.8 1064.2,1252.8 1045.4,1242.5  A 522.500,522.500 0.00 0,1 1064.6,1211.2 L 1064.6,1211.2 1082.4,1222.7 1100.5,1233.8 1118.8,1244.4 1137.2,1254.4 1155.8,1263.7 1174.5,1272.3 1193.1,1280.1 1211.6,1287.0 1230.1,1293.0 1248.3,1298.0 1266.4,1301.9 1284.2,1304.8 1301.6,1306.6 1318.8,1307.3 1335.6,1306.8 1351.9,1305.1 1367.8,1302.2 1383.3,1298.1 1398.2,1292.8 1412.6,1286.3 1426.5,1278.7 1439.8,1269.8 1452.5,1259.9 1464.6,1248.7 1476.1,1236.5 1487.0,1223.3 1497.3,1209.0 1507.0,1193.8 1516.0,1177.7 1524.4,1160.7 1532.1,1142.9 1539.3,1124.5 1545.8,1105.4 1551.7,1085.7 1557.1,1065.6 1561.9,1045.2 1566.1,1024.4 1569.8,1003.6 1573.0,982.6  Z" style="stroke-width: 0.5;  stroke: rgb(0,0,0); fill: rgb(179,177,178);" />
<path d="M 2019.058,1440.126 A 522.500,522.500 0.00 0,1 2021.8,1473.8 L 2021.8,1473.8 1996.0,1475.2 1970.0,1476.7 1943.9,1478.4 1917.7,1480.3 1891.4,1482.3 1865.1,1484.5 1838.7,1486.9 1812.2,1489.5 1785.7,1492.3 1759.2,1495.3 1732.6,1498.5 1706.0,1501.9 1679.4,1505.5 1652.8,1509.4 1626.2,1513.4 1599.6,1517.6 1573.0,1522.1 1546.4,1526.8 1519.8,1531.7 1493.3,1536.8 1466.9,1542.1 1440.5,1547.6 1414.1,1553.3 1387.8,1559.3 1361.6,1565.4 1335.5,1571.7 1309.4,1578.3 1283.4,1585.0 1257.6,1591.9 1231.8,1598.9 1206.2,1606.2 1180.6,1613.6 1155.2,1621.2 1130.0,1628.9 1104.8,1636.7 1079.8,1644.7 1055.0,1652.8 1030.3,1661.1 1005.7,1669.4  A 522.500,522.500 0.00 0,1 995.9,1637.3 L 995.9,1637.3 1021.3,1630.4 1046.8,1623.6 1072.3,1616.8 1098.0,1610.1 1123.7,1603.5 1149.6,1597.0 1175.4,1590.6 1201.4,1584.2 1227.4,1577.9 1253.5,1571.8 1279.6,1565.7 1305.8,1559.7 1332.0,1553.9 1358.3,1548.1 1384.6,1542.4 1411.0,1536.9 1437.4,1531.4 1463.8,1526.1 1490.3,1520.9 1516.8,1515.8 1543.3,1510.8 1569.8,1505.9 1596.3,1501.2 1622.9,1496.5 1649.4,1492.0 1676.0,1487.6 1702.5,1483.3 1729.0,1479.1 1755.5,1475.0 1782.0,1471.1 1808.5,1467.2 1835.0,1463.5 1861.4,1459.9 1887.8,1456.3 1914.1,1452.9 1940.4,1449.6 1966.7,1446.3 1992.9,1443.2 2019.1,1440.1  Z" style="stroke-width: 0.5;  stroke: rgb(0,0,0); fill: rgb(179,177,178);" />
<path d="M 1818.939,1086.135 A 522.500,522.500 0.00 0,1 1843.5,1106.2 L 1843.5,1106.2 1827.5,1124.3 1811.0,1142.2 1794.1,1160.0 1776.7,1177.5 1758.9,1194.9 1740.7,1211.9 1722.0,1228.7 1702.9,1245.1 1683.3,1261.1 1663.4,1276.8 1643.1,1292.0 1622.3,1306.7 1601.2,1321.0 1579.7,1334.8 1557.9,1348.1 1535.7,1360.8 1513.2,1373.0 1490.4,1384.6 1467.3,1395.7 1444.0,1406.1 1420.4,1416.0 1396.5,1425.2 1372.4,1433.9 1348.2,1441.9 1323.7,1449.3 1299.1,1456.1 1274.4,1462.4 1249.6,1468.0 1224.7,1473.0 1199.7,1477.4 1174.7,1481.3 1149.8,1484.6 1124.8,1487.4 1099.9,1489.6 1075.2,1491.3 1050.5,1492.6 1026.0,1493.3 1001.6,1493.6 977.5,1493.5  A 522.500,522.500 0.00 0,1 978.9,1461.3 L 978.9,1461.3 1002.6,1462.8 1026.6,1463.9 1050.7,1464.5 1075.0,1464.7 1099.5,1464.2 1124.1,1463.3 1148.7,1461.7 1173.3,1459.5 1198.0,1456.7 1222.6,1453.3 1247.2,1449.2 1271.7,1444.5 1296.0,1439.1 1320.2,1433.0 1344.3,1426.2 1368.1,1418.7 1391.7,1410.6 1415.1,1401.7 1438.2,1392.2 1461.0,1382.0 1483.5,1371.2 1505.7,1359.7 1527.5,1347.5 1549.0,1334.8 1570.1,1321.4 1590.8,1307.4 1611.1,1292.9 1630.9,1277.8 1650.4,1262.3 1669.3,1246.2 1687.9,1229.7 1705.9,1212.8 1723.5,1195.5 1740.7,1177.9 1757.3,1159.9 1773.5,1141.8 1789.1,1123.4 1804.3,1104.8 1818.9,1086.1  Z" style="stroke-width: 0.5;  stroke: rgb(0,0,0); fill: rgb(179,177,178);" />
<path d="M 1609.041,989.005 A 522.500,522.500 0.00 0,1 1634.7,995.1 L 1634.7,995.1 1628.8,1016.0 1622.4,1036.9 1615.5,1057.5 1607.9,1077.9 1599.8,1098.0 1591.1,1117.7 1581.7,1136.8 1571.7,1155.4 1561.2,1173.3 1550.0,1190.5 1538.1,1207.0 1525.7,1222.6 1512.7,1237.3 1499.0,1251.2 1484.8,1264.0 1470.0,1275.9 1454.6,1286.8 1438.7,1296.6 1422.3,1305.3 1405.3,1313.0 1387.9,1319.5 1370.0,1325.0 1351.7,1329.3 1333.0,1332.6 1314.0,1334.7 1294.6,1335.8 1274.9,1335.9 1254.9,1334.9 1234.8,1332.8 1214.5,1329.9 1194.0,1326.0 1173.5,1321.2 1153.0,1315.5 1132.4,1309.1 1112.0,1301.9 1091.7,1294.1 1071.6,1285.6 1051.7,1276.6 1032.2,1267.2  A 522.500,522.500 0.00 0,1 1044.8,1243.6 L 1044.8,1243.6 1063.6,1253.9 1082.7,1263.7 1102.1,1273.1 1121.7,1281.9 1141.4,1289.9 1161.1,1297.3 1180.9,1303.8 1200.7,1309.5 1220.3,1314.3 1239.8,1318.1 1259.1,1320.9 1278.2,1322.7 1297.0,1323.4 1315.5,1323.1 1333.7,1321.6 1351.4,1319.0 1368.8,1315.2 1385.7,1310.3 1402.1,1304.3 1418.0,1297.1 1433.4,1288.8 1448.3,1279.3 1462.6,1268.8 1476.3,1257.2 1489.4,1244.6 1502.0,1231.0 1513.9,1216.4 1525.2,1200.9 1535.8,1184.6 1545.9,1167.4 1555.3,1149.5 1564.1,1131.0 1572.3,1111.8 1579.9,1092.1 1586.8,1072.0 1593.2,1051.5 1599.1,1030.8 1604.3,1009.9 1609.0,989.0  Z" style="stroke-width: 0.5;  stroke: rgb(0,0,0); fill: rgb(179,177,178);" />
<path d="M 1752.828,1957.257 A 522.500,522.500 0.00 0,1 1733.5,1967.4 L 1733.5,1967.4 1724.3,1949.3 1714.8,1931.4 1705.2,1913.8 1695.4,1896.7 1685.5,1880.3 1675.6,1864.5 1665.6,1849.5 1655.5,1835.5 1645.5,1822.4 1635.6,1810.5 1625.7,1799.6 1615.9,1790.0 1606.3,1781.7 1596.8,1774.6 1587.5,1769.0 1578.3,1764.7 1569.4,1761.9 1560.7,1760.4 1552.3,1760.5 1544.1,1762.0 1536.2,1765.0 1528.6,1769.4 1521.3,1775.2 1514.3,1782.5 1507.6,1791.1 1501.2,1801.1 1495.2,1812.3 1489.5,1824.8 1484.1,1838.4 1479.1,1853.2 1474.4,1868.9 1470.1,1885.6 1466.1,1903.1 1462.4,1921.4 1459.0,1940.3 1456.0,1959.8 1453.2,1979.6 1450.8,1999.7 1448.7,2020.0  A 522.500,522.500 0.00 0,1 1427.0,2017.4 L 1427.0,2017.4 1430.0,1997.2 1433.4,1977.1 1437.0,1957.3 1441.1,1937.8 1445.4,1918.9 1450.1,1900.7 1455.2,1883.1 1460.6,1866.4 1466.4,1850.6 1472.5,1835.9 1479.0,1822.2 1485.8,1809.6 1493.0,1798.3 1500.5,1788.2 1508.3,1779.5 1516.5,1772.1 1525.0,1766.1 1533.8,1761.5 1542.8,1758.4 1552.2,1756.6 1561.8,1756.4 1571.6,1757.5 1581.7,1760.1 1592.0,1764.1 1602.4,1769.4 1613.0,1776.2 1623.8,1784.2 1634.6,1793.4 1645.6,1803.9 1656.6,1815.5 1667.6,1828.2 1678.6,1841.9 1689.6,1856.5 1700.5,1871.9 1711.3,1888.0 1722.0,1904.7 1732.5,1921.9 1742.8,1939.4 1752.8,1957.3  Z" style="stroke-width: 0.5;  stroke: rgb(0,0,0); fill: rgb(179,177,178);" />
<path d="M 1553.294,980.225 A 522.500,522.500 0.00 0,1 1572.9,982.6 L 1572.9,982.6 1569.8,1003.5 1566.1,1024.4 1561.8,1045.1 1557.1,1065.6 1551.7,1085.7 1545.8,1105.3 1539.3,1124.4 1532.1,1142.9 1524.4,1160.6 1516.0,1177.5 1507.0,1193.7 1497.4,1208.9 1487.1,1223.1 1476.2,1236.3 1464.8,1248.5 1452.7,1259.6 1440.0,1269.5 1426.7,1278.3 1412.8,1286.0 1398.5,1292.4 1383.5,1297.6 1368.1,1301.7 1352.3,1304.5 1335.9,1306.2 1319.2,1306.6 1302.1,1305.9 1284.6,1304.1 1266.9,1301.1 1248.9,1297.1 1230.6,1292.1 1212.2,1286.0 1193.7,1279.0 1175.2,1271.2 1156.6,1262.5 1138.0,1253.1 1119.6,1243.1 1101.3,1232.4 1083.3,1221.3 1065.6,1209.7  A 522.500,522.500 0.00 0,1 1077.0,1193.3 L 1077.0,1193.3 1094.1,1205.5 1111.6,1217.3 1129.2,1228.5 1147.1,1239.2 1165.0,1249.3 1182.9,1258.6 1200.8,1267.0 1218.7,1274.6 1236.4,1281.3 1253.9,1287.0 1271.2,1291.6 1288.2,1295.1 1304.9,1297.5 1321.3,1298.7 1337.2,1298.8 1352.8,1297.6 1367.8,1295.2 1382.4,1291.6 1396.5,1286.8 1410.0,1280.7 1423.0,1273.5 1435.4,1265.0 1447.2,1255.3 1458.4,1244.5 1469.0,1232.6 1479.0,1219.6 1488.3,1205.6 1497.1,1190.5 1505.2,1174.5 1512.6,1157.7 1519.4,1140.1 1525.7,1121.7 1531.3,1102.7 1536.3,1083.1 1540.8,1063.1 1544.7,1042.7 1548.1,1022.0 1550.9,1001.1 1553.3,980.2  Z" style="stroke-width: 0.5;  stroke: rgb(0,0,0); fill: rgb(179,177,178);" />
<path d="M 1843.521,1106.300 A 522.500,522.500 0.00 0,1 1855.5,1117.1 L 1855.5,1117.1 1838.8,1134.8 1821.7,1152.4 1804.2,1169.8 1786.2,1187.0 1767.8,1204.0 1749.0,1220.8 1729.8,1237.2 1710.2,1253.4 1690.2,1269.2 1669.8,1284.6 1649.0,1299.7 1627.8,1314.3 1606.4,1328.5 1584.5,1342.2 1562.3,1355.4 1539.9,1368.1 1517.1,1380.3 1494.0,1392.1 1470.6,1403.2 1447.0,1413.8 1423.2,1423.9 1399.1,1433.4 1374.9,1442.4 1350.4,1450.7 1325.8,1458.6 1301.1,1465.8 1276.2,1472.5 1251.3,1478.6 1226.2,1484.2 1201.1,1489.3 1176.0,1493.8 1150.9,1497.7 1125.9,1501.2 1100.9,1504.1 1075.9,1506.6 1051.1,1508.7 1026.4,1510.2 1001.9,1511.4 977.6,1512.1  A 522.500,522.500 0.00 0,1 977.5,1496.1 L 977.5,1496.1 1001.6,1496.1 1026.0,1495.7 1050.5,1494.8 1075.2,1493.5 1100.0,1491.6 1124.9,1489.3 1149.8,1486.4 1174.8,1483.0 1199.8,1479.0 1224.7,1474.5 1249.6,1469.4 1274.4,1463.6 1299.2,1457.3 1323.8,1450.4 1348.2,1442.9 1372.5,1434.8 1396.5,1426.1 1420.4,1416.7 1444.0,1406.8 1467.4,1396.3 1490.5,1385.2 1513.3,1373.5 1535.7,1361.3 1557.9,1348.5 1579.7,1335.2 1601.2,1321.4 1622.3,1307.0 1643.1,1292.3 1663.4,1277.0 1683.3,1261.3 1702.9,1245.3 1722.0,1228.8 1740.7,1212.1 1758.9,1195.0 1776.8,1177.6 1794.1,1160.0 1811.0,1142.3 1827.5,1124.3 1843.5,1106.3  Z" style="stroke-width: 0.5;  stroke: rgb(0,0,0); fill: rgb(179,177,178);" />
<path d="M 2014.085,1406.602 A 522.500,522.500 0.00 0,1 2016.7,1422.1 L 2016.7,1422.1 1990.4,1426.1 1964.2,1430.1 1937.9,1434.2 1911.5,1438.3 1885.2,1442.5 1858.8,1446.8 1832.4,1451.1 1806.0,1455.4 1779.6,1459.8 1753.2,1464.3 1726.7,1468.8 1700.3,1473.4 1673.8,1478.1 1647.4,1482.8 1620.9,1487.6 1594.4,1492.4 1568.0,1497.4 1541.6,1502.3 1515.1,1507.4 1488.7,1512.5 1462.3,1517.6 1435.9,1522.8 1409.5,1528.1 1383.2,1533.5 1356.8,1538.9 1330.5,1544.3 1304.2,1549.8 1278.0,1555.4 1251.7,1561.0 1225.5,1566.7 1199.4,1572.4 1173.2,1578.2 1147.1,1584.1 1121.1,1589.9 1095.1,1595.8 1069.1,1601.8 1043.2,1607.8 1017.3,1613.8 991.4,1619.9  A 522.500,522.500 0.00 0,1 988.1,1604.7 L 988.1,1604.7 1014.3,1599.3 1040.5,1594.0 1066.7,1588.6 1092.9,1583.3 1119.1,1578.0 1145.4,1572.7 1171.6,1567.4 1197.9,1562.2 1224.2,1556.9 1250.5,1551.7 1276.8,1546.5 1303.1,1541.2 1329.4,1536.0 1355.7,1530.9 1382.0,1525.7 1408.3,1520.5 1434.7,1515.4 1461.0,1510.3 1487.3,1505.2 1513.7,1500.1 1540.0,1495.0 1566.4,1490.0 1592.7,1484.9 1619.1,1479.9 1645.4,1474.9 1671.8,1469.9 1698.1,1465.0 1724.5,1460.0 1750.8,1455.1 1777.2,1450.2 1803.5,1445.3 1829.9,1440.4 1856.2,1435.5 1882.5,1430.7 1908.9,1425.8 1935.2,1421.0 1961.5,1416.2 1987.8,1411.4 2014.1,1406.6  Z" style="stroke-width: 0.5;  stroke: rgb(0,0,0); fill: rgb(179,177,178);" />
<path d="M 1807.567,1922.385 A 522.500,522.500 0.00 0,1 1795.2,1931.1 L 1795.2,1931.1 1783.3,1914.2 1771.2,1897.5 1758.7,1881.2 1746.1,1865.5 1733.2,1850.3 1720.2,1835.9 1707.1,1822.2 1693.9,1809.5 1680.7,1797.7 1667.4,1787.0 1654.2,1777.4 1641.0,1769.0 1627.9,1761.8 1615.0,1755.9 1602.1,1751.3 1589.4,1748.0 1576.9,1746.0 1564.7,1745.5 1552.6,1746.3 1540.8,1748.6 1529.3,1752.2 1518.1,1757.2 1507.1,1763.5 1496.5,1771.2 1486.2,1780.2 1476.3,1790.4 1466.7,1801.9 1457.6,1814.6 1448.7,1828.3 1440.3,1843.1 1432.3,1858.9 1424.6,1875.6 1417.4,1893.0 1410.5,1911.2 1404.1,1930.0 1398.0,1949.3 1392.4,1969.0 1387.2,1989.0 1382.3,2009.1  A 522.500,522.500 0.00 0,1 1367.5,2005.4 L 1367.5,2005.4 1373.0,1985.4 1378.9,1965.5 1385.2,1945.9 1391.9,1926.7 1399.0,1907.9 1406.5,1889.8 1414.5,1872.4 1422.9,1855.8 1431.6,1840.0 1440.8,1825.3 1450.4,1811.5 1460.3,1798.9 1470.7,1787.4 1481.3,1777.1 1492.4,1768.0 1503.7,1760.3 1515.4,1753.8 1527.4,1748.7 1539.7,1745.0 1552.3,1742.6 1565.1,1741.6 1578.1,1742.0 1591.4,1743.7 1604.8,1746.8 1618.4,1751.2 1632.1,1756.9 1645.9,1763.9 1659.7,1772.0 1673.7,1781.3 1687.6,1791.7 1701.5,1803.2 1715.3,1815.6 1729.1,1828.9 1742.7,1843.1 1756.2,1857.9 1769.4,1873.4 1782.5,1889.3 1795.2,1905.7 1807.6,1922.4  Z" style="stroke-width: 0.5;  stroke: rgb(0,0,0); fill: rgb(179,177,178);" />
<path d="M 2002.536,1643.051 A 522.500,522.500 0.00 0,1 1998.4,1656.7 L 1998.4,1656.7 1975.7,1649.8 1952.7,1643.3 1929.3,1637.2 1905.7,1631.5 1881.8,1626.3 1857.6,1621.7 1833.3,1617.6 1808.8,1614.1 1784.2,1611.2 1759.4,1608.9 1734.6,1607.3 1709.7,1606.3 1684.8,1606.0 1659.8,1606.4 1634.9,1607.5 1610.0,1609.4 1585.1,1611.9 1560.4,1615.2 1535.7,1619.2 1511.2,1624.0 1486.8,1629.4 1462.6,1635.6 1438.6,1642.4 1414.8,1650.0 1391.2,1658.2 1367.9,1667.1 1344.8,1676.6 1322.1,1686.8 1299.6,1697.5 1277.5,1708.8 1255.7,1720.7 1234.3,1733.1 1213.2,1745.9 1192.6,1759.2 1172.3,1772.9 1152.4,1786.9 1133.0,1801.3 1114.1,1815.9 1095.5,1830.8  A 522.500,522.500 0.00 0,1 1086.6,1819.6 L 1086.6,1819.6 1105.7,1805.1 1125.1,1790.9 1145.1,1776.9 1165.4,1763.3 1186.1,1750.0 1207.2,1737.1 1228.7,1724.6 1250.6,1712.5 1272.7,1701.0 1295.3,1689.9 1318.1,1679.4 1341.2,1669.5 1364.6,1660.1 1388.3,1651.4 1412.2,1643.3 1436.3,1635.8 1460.6,1629.0 1485.1,1622.9 1509.8,1617.4 1534.6,1612.6 1559.5,1608.5 1584.5,1605.1 1609.6,1602.4 1634.8,1600.4 1660.0,1599.0 1685.2,1598.3 1710.4,1598.3 1735.6,1598.9 1760.7,1600.2 1785.7,1602.1 1810.6,1604.6 1835.3,1607.6 1859.9,1611.3 1884.3,1615.4 1908.5,1620.1 1932.5,1625.2 1956.1,1630.7 1979.5,1636.7 2002.5,1643.1  Z" style="stroke-width: 0.5;  stroke: rgb(0,0,0); fill: rgb(179,177,178);" />
<path d="M 2022.473,1494.699 A 522.500,522.500 0.00 0,1 2022.4,1508.7 L 2022.4,1508.7 1996.9,1508.3 1971.3,1508.2 1945.5,1508.4 1919.5,1508.7 1893.5,1509.4 1867.3,1510.2 1841.0,1511.4 1814.7,1512.8 1788.3,1514.5 1761.8,1516.5 1735.3,1518.8 1708.8,1521.4 1682.2,1524.3 1655.6,1527.5 1629.0,1531.0 1602.5,1534.8 1575.9,1538.9 1549.4,1543.4 1523.0,1548.2 1496.5,1553.2 1470.2,1558.6 1443.9,1564.3 1417.7,1570.3 1391.6,1576.6 1365.7,1583.2 1339.8,1590.1 1314.0,1597.3 1288.4,1604.7 1262.9,1612.4 1237.6,1620.4 1212.5,1628.6 1187.5,1637.0 1162.7,1645.7 1138.0,1654.6 1113.6,1663.7 1089.4,1672.9 1065.4,1682.4 1041.6,1692.0 1018.0,1701.7  A 522.500,522.500 0.00 0,1 1012.7,1688.6 L 1012.7,1688.6 1036.7,1679.5 1060.9,1670.4 1085.3,1661.5 1109.8,1652.7 1134.5,1644.1 1159.4,1635.7 1184.5,1627.5 1209.7,1619.5 1235.1,1611.7 1260.6,1604.1 1286.3,1596.7 1312.0,1589.5 1337.9,1582.6 1363.9,1576.0 1390.0,1569.6 1416.2,1563.4 1442.5,1557.5 1468.8,1551.9 1495.2,1546.6 1521.7,1541.5 1548.2,1536.7 1574.8,1532.1 1601.3,1527.9 1627.9,1523.9 1654.6,1520.2 1681.2,1516.7 1707.8,1513.5 1734.4,1510.6 1760.9,1508.0 1787.4,1505.6 1813.9,1503.4 1840.3,1501.5 1866.6,1499.9 1892.9,1498.5 1919.0,1497.3 1945.1,1496.3 1971.0,1495.6 1996.8,1495.1 2022.5,1494.7  Z" style="stroke-width: 0.5;  stroke: rgb(0,0,0); fill: rgb(179,177,178);" />
<path d="M 1912.755,1820.374 A 522.500,522.500 0.00 0,1 1904.4,1830.9 L 1904.4,1830.9 1887.4,1817.3 1870.0,1804.1 1852.2,1791.4 1834.1,1779.2 1815.7,1767.6 1797.1,1756.8 1778.2,1746.6 1759.2,1737.4 1740.0,1728.9 1720.8,1721.4 1701.4,1714.9 1682.1,1709.5 1662.7,1705.0 1643.4,1701.7 1624.2,1699.5 1605.0,1698.4 1586.0,1698.4 1567.1,1699.6 1548.4,1702.0 1530.0,1705.6 1511.8,1710.3 1493.8,1716.2 1476.1,1723.2 1458.7,1731.3 1441.7,1740.5 1425.0,1750.8 1408.7,1762.1 1392.7,1774.3 1377.2,1787.6 1362.1,1801.7 1347.4,1816.6 1333.2,1832.3 1319.4,1848.7 1306.1,1865.7 1293.4,1883.3 1281.1,1901.3 1269.3,1919.7 1258.0,1938.4 1247.3,1957.3  A 522.500,522.500 0.00 0,1 1235.6,1950.7 L 1235.6,1950.7 1246.9,1931.9 1258.7,1913.4 1271.0,1895.2 1283.9,1877.4 1297.2,1860.0 1311.0,1843.1 1325.4,1826.9 1340.1,1811.4 1355.4,1796.6 1371.1,1782.6 1387.1,1769.5 1403.6,1757.3 1420.5,1746.1 1437.8,1735.8 1455.4,1726.6 1473.3,1718.5 1491.5,1711.5 1510.0,1705.6 1528.8,1700.8 1547.8,1697.1 1567.0,1694.6 1586.4,1693.2 1605.9,1693.0 1625.5,1693.9 1645.3,1695.9 1665.1,1699.0 1684.9,1703.2 1704.8,1708.4 1724.6,1714.6 1744.3,1721.7 1764.0,1729.8 1783.5,1738.8 1802.8,1748.5 1821.9,1759.0 1840.7,1770.2 1859.3,1782.0 1877.5,1794.4 1895.3,1807.2 1912.8,1820.4  Z" style="stroke-width: 0.5;  stroke: rgb(0,0,0); fill: rgb(179,177,178);" />
<path d="M 1644.169,997.783 A 522.500,522.500 0.00 0,1 1655.3,1001.1 L 1655.3,1001.1 1648.5,1021.9 1641.2,1042.6 1633.3,1063.2 1624.8,1083.5 1615.8,1103.5 1606.1,1123.1 1595.8,1142.2 1584.9,1160.7 1573.4,1178.6 1561.3,1195.9 1548.6,1212.3 1535.3,1228.0 1521.4,1242.9 1506.8,1256.8 1491.8,1269.8 1476.1,1281.9 1459.9,1293.0 1443.2,1303.0 1426.0,1312.1 1408.3,1320.0 1390.1,1327.0 1371.5,1332.8 1352.4,1337.6 1333.0,1341.3 1313.3,1344.0 1293.2,1345.6 1272.9,1346.2 1252.3,1345.8 1231.5,1344.4 1210.6,1342.1 1189.6,1338.9 1168.5,1334.7 1147.4,1329.8 1126.3,1324.1 1105.3,1317.6 1084.5,1310.5 1063.8,1302.8 1043.5,1294.5 1023.4,1285.8  A 522.500,522.500 0.00 0,1 1028.2,1275.5 L 1028.2,1275.5 1048.0,1284.6 1068.0,1293.3 1088.4,1301.4 1108.9,1308.9 1129.6,1315.8 1150.4,1321.9 1171.2,1327.2 1192.0,1331.7 1212.7,1335.3 1233.3,1338.0 1253.7,1339.8 1274.0,1340.5 1294.0,1340.2 1313.7,1338.9 1333.0,1336.5 1352.1,1333.0 1370.7,1328.5 1388.9,1322.8 1406.7,1316.1 1424.0,1308.3 1440.8,1299.5 1457.1,1289.5 1472.8,1278.6 1488.0,1266.6 1502.6,1253.7 1516.7,1239.8 1530.1,1225.0 1543.0,1209.3 1555.2,1192.9 1566.8,1175.7 1577.8,1157.8 1588.2,1139.2 1598.0,1120.1 1607.2,1100.5 1615.7,1080.4 1623.7,1060.0 1631.1,1039.4 1637.9,1018.6 1644.2,997.8  Z" style="stroke-width: 0.5;  stroke: rgb(0,0,0); fill: rgb(179,177,178);" />
<path d="M 1993.806,1329.231 A 522.500,522.500 0.00 0,1 1997.2,1339.3 L 1997.2,1339.3 1972.3,1347.2 1947.4,1355.1 1922.3,1362.9 1897.0,1370.6 1871.7,1378.2 1846.3,1385.6 1820.7,1393.0 1795.1,1400.2 1769.3,1407.3 1743.5,1414.2 1717.5,1421.0 1691.5,1427.7 1665.5,1434.2 1639.3,1440.5 1613.1,1446.7 1586.8,1452.7 1560.5,1458.6 1534.1,1464.2 1507.7,1469.8 1481.2,1475.1 1454.7,1480.3 1428.2,1485.3 1401.6,1490.1 1375.1,1494.8 1348.5,1499.3 1322.0,1503.6 1295.4,1507.7 1268.8,1511.7 1242.3,1515.5 1215.8,1519.1 1189.3,1522.6 1162.9,1525.9 1136.5,1529.1 1110.2,1532.1 1083.9,1534.9 1057.6,1537.6 1031.5,1540.2 1005.4,1542.6 979.4,1544.9  A 522.500,522.500 0.00 0,1 978.6,1534.3 L 978.6,1534.3 1004.5,1532.6 1030.5,1530.6 1056.6,1528.6 1082.8,1526.3 1109.1,1523.9 1135.4,1521.3 1161.8,1518.5 1188.2,1515.6 1214.7,1512.4 1241.2,1509.1 1267.7,1505.6 1294.3,1501.8 1320.9,1497.9 1347.5,1493.8 1374.0,1489.5 1400.6,1484.9 1427.2,1480.2 1453.7,1475.2 1480.2,1470.1 1506.7,1464.8 1533.1,1459.2 1559.4,1453.5 1585.7,1447.5 1612.0,1441.4 1638.2,1435.1 1664.3,1428.5 1690.3,1421.8 1716.2,1415.0 1742.0,1407.9 1767.8,1400.7 1793.4,1393.3 1818.9,1385.8 1844.3,1378.1 1869.6,1370.2 1894.7,1362.3 1919.7,1354.2 1944.5,1346.0 1969.2,1337.7 1993.8,1329.2  Z" style="stroke-width: 0.5;  stroke: rgb(0,0,0); fill: rgb(179,177,178);" />
<path d="M 1636.345,995.603 A 522.500,522.500 0.00 0,1 1644.2,997.8 L 1644.2,997.8 1637.9,1018.6 1631.1,1039.4 1623.7,1060.0 1615.8,1080.4 1607.2,1100.4 1598.0,1120.0 1588.2,1139.2 1577.9,1157.7 1566.9,1175.6 1555.2,1192.8 1543.0,1209.3 1530.2,1224.9 1516.7,1239.7 1502.7,1253.6 1488.1,1266.5 1472.9,1278.5 1457.1,1289.4 1440.9,1299.3 1424.1,1308.1 1406.8,1315.9 1389.0,1322.6 1370.8,1328.2 1352.2,1332.8 1333.2,1336.2 1313.8,1338.6 1294.1,1339.9 1274.1,1340.2 1253.9,1339.4 1233.5,1337.6 1212.9,1334.9 1192.2,1331.3 1171.4,1326.8 1150.6,1321.4 1129.9,1315.2 1109.2,1308.4 1088.6,1300.8 1068.3,1292.7 1048.2,1284.0 1028.5,1274.9  A 522.500,522.500 0.00 0,1 1032.0,1267.6 L 1032.0,1267.6 1051.6,1277.0 1071.4,1286.0 1091.6,1294.4 1111.9,1302.2 1132.3,1309.4 1152.9,1315.8 1173.4,1321.5 1194.0,1326.2 1214.5,1330.2 1234.8,1333.1 1255.0,1335.1 1275.0,1336.1 1294.7,1336.1 1314.1,1335.0 1333.2,1332.8 1352.0,1329.6 1370.3,1325.2 1388.2,1319.8 1405.7,1313.2 1422.7,1305.6 1439.2,1296.8 1455.2,1287.0 1470.6,1276.2 1485.4,1264.3 1499.7,1251.4 1513.4,1237.6 1526.5,1222.9 1539.0,1207.3 1550.9,1190.8 1562.2,1173.6 1572.8,1155.7 1582.9,1137.2 1592.3,1118.0 1601.1,1098.4 1609.3,1078.3 1616.9,1057.9 1624.0,1037.3 1630.4,1016.5 1636.3,995.6  Z" style="stroke-width: 0.5;  stroke: rgb(0,0,0); fill: rgb(179,177,178);" />
<path d="M 1989.952,1318.469 A 522.500,522.500 0.00 0,1 1992.6,1325.8 L 1992.6,1325.8 1968.2,1334.4 1943.6,1342.8 1918.8,1351.2 1893.9,1359.4 1868.8,1367.5 1843.7,1375.4 1818.3,1383.2 1792.9,1390.8 1767.3,1398.2 1741.6,1405.5 1715.8,1412.6 1689.9,1419.5 1663.9,1426.2 1637.8,1432.7 1611.6,1439.0 1585.4,1445.1 1559.1,1451.0 1532.7,1456.7 1506.3,1462.2 1479.8,1467.4 1453.3,1472.5 1426.7,1477.3 1400.1,1481.9 1373.6,1486.2 1347.0,1490.4 1320.4,1494.3 1293.8,1498.1 1267.2,1501.6 1240.6,1504.8 1214.1,1507.9 1187.6,1510.8 1161.2,1513.5 1134.8,1516.0 1108.5,1518.2 1082.2,1520.3 1056.1,1522.2 1030.0,1524.0 1004.1,1525.6 978.2,1527.0  A 522.500,522.500 0.00 0,1 977.9,1519.1 L 977.9,1519.1 1003.6,1518.1 1029.5,1516.9 1055.5,1515.5 1081.7,1513.9 1107.9,1512.2 1134.2,1510.2 1160.5,1508.0 1186.9,1505.6 1213.4,1503.0 1239.9,1500.1 1266.5,1497.0 1293.0,1493.7 1319.6,1490.1 1346.2,1486.3 1372.8,1482.3 1399.4,1478.0 1426.0,1473.5 1452.5,1468.7 1479.1,1463.7 1505.5,1458.5 1531.9,1453.0 1558.3,1447.3 1584.6,1441.3 1610.8,1435.1 1636.9,1428.7 1662.9,1422.1 1688.9,1415.2 1714.7,1408.1 1740.4,1400.9 1766.0,1393.4 1791.5,1385.7 1816.9,1377.9 1842.1,1369.8 1867.1,1361.6 1892.0,1353.3 1916.8,1344.8 1941.3,1336.1 1965.7,1327.4 1990.0,1318.5  Z" style="stroke-width: 0.5;  stroke: rgb(0,0,0); fill: rgb(179,177,178);" />
</g>
<g id="plot0">
<g id="plot0-axis">
</g>
<line x1='2243.3' y1='1599.7' x2='2243.3' y2='1599.7' style="stroke-width:14.0;stroke:rgb(0,0,0);stroke-linecap:round;fill:none;" />
<line x1='2243.3' y1='1599.7' x2='2283.0' y2='1605.0' style="stroke-width:14.0;stroke:rgb(0,0,0);stroke-linecap:round;fill:none;" />
<line x1='2283.0' y1='1605.0' x2='2283.0' y2='1605.0' style="stroke-width:14.0;stroke:rgb(0,0,0);stroke-linecap:round;fill:none;" />
<text x="2299.6" y="1629.4" font-size="46.8px" font-family="CMUBright-Roman" style="text-anchor:start;fill:rgb(255,38,78);" transform="rotate(7.6,2299.6,1629.4)" >Histocap485P20<tspan baseline-shift="-40%" font-size="90%">s</tspan>02170</text>
</g>
<defs>
<pattern id="hline-sparse" width="10" height="10" patternTransform="rotate(0 0 0)" patternUnits="userSpaceOnUse"><line x1="0" y1="0" x2="10" y2="0" style="stroke:black;stroke-width:2" /></pattern>
<pattern id="hline" width="10" height="10" patternTransform="rotate(0 0 0)" patternUnits="userSpaceOnUse"><line x1="0" y1="0" x2="10" y2="0" style="stroke:black;stroke-width:5" /></pattern>
<pattern id="checker" width="10" height="10" patternTransform="rotate(45 0 0)" patternUnits="userSpaceOnUse"><line x1="0" y1="0" x2="10" y2="0" style="stroke:black;stroke-width:2" /><line x1="0" y1="0" x2="0" y2="10" style="stroke:black;stroke-width:2" /></pattern>
<pattern id="checker" width="10" height="10" patternTransform="rotate(45 0 0)" patternUnits="userSpaceOnUse"><line x1="0" y1="0" x2="10" y2="0" style="stroke:black;stroke-width:5" /><line x1="0" y1="0" x2="0" y2="10" style="stroke:black;stroke-width:4" /></pattern>
<pattern id="vline-sparse" width="10" height="10" patternTransform="rotate(0 0 0)" patternUnits="userSpaceOnUse"><line x1="0" y1="0" x2="0" y2="10" style="stroke:black;stroke-width:2" /></pattern>
<pattern id="vline" width="10" height="10" patternTransform="rotate(0 0 0)" patternUnits="userSpaceOnUse"><line x1="0" y1="0" x2="0" y2="10" style="stroke:black;stroke-width:5" /></pattern>
</defs>
</svg>
