<?xml version="1.0" encoding="utf-8" standalone="no"?>
<!DOCTYPE svg PUBLIC "-//W3C//DTD SVG 1.1//EN" "http://www.w3.org/Graphics/SVG/1.1/DTD/svg11.dtd">
<svg width="3000px" height="3000px" version="1.1" xmlns="http://www.w3.org/2000/svg" xmlns:xlink="http://www.w3.org/1999/xlink">
<g id="bg">
<rect x="0" y="0" width="3000px" height="3000px" style="fill:rgb(255,255,255);"/>
</g>
<g id="ideograms">
<path d="M1500.000,950.000 A550.000,550.000 40.000 0,1 1684.423,2018.159 L1751.485,2206.580 A750.000,750.000 0.000 0,0 1500.000,750.000 Z" style="stroke-width:2.0;stroke:rgb(0,0,0);stroke-linecap:round;fill:rgb(179,177,178);" />
<text x="2460.8" y="1334.1" font-size="46.8px" font-family="CMUBright-Roman" style="text-anchor:middle;fill:rgb(0,0,0);" transform="rotate(440.2,2460.8,1334.1)" >HistocapWGSS14<tspan baseline-shift="-40%" font-size="90%">6</tspan></text>
<line x1='1547.7' y1='751.5' x2='1548.4' y2='739.5' style="stroke-width:8.0;stroke:rgb(150,150,150);stroke-linecap:round;fill:none;" />
<line x1='1647.0' y1='764.5' x2='1649.3' y2='752.8' style="stroke-width:8.0;stroke:rgb(150,150,150);stroke-linecap:round;fill:none;" />
<line x1='1743.6' y1='790.7' x2='1747.5' y2='779.3' style="stroke-width:8.0;stroke:rgb(150,150,150);stroke-linecap:round;fill:none;" />
<text x="1764.6" y="772.6" font-size="41.6px" font-family="CMUBright-Roman" style="text-anchor:start;fill:rgb(150,150,150);" transform="rotate(289.0,1764.6,772.6)" >5200 kb</text>
<line x1='1836.0' y1='829.5' x2='1841.3' y2='818.7' style="stroke-width:8.0;stroke:rgb(150,150,150);stroke-linecap:round;fill:none;" />
<line x1='1922.3' y1='880.2' x2='1929.0' y2='870.3' style="stroke-width:8.0;stroke:rgb(150,150,150);stroke-linecap:round;fill:none;" />
<line x1='2001.1' y1='942.0' x2='2009.1' y2='933.0' style="stroke-width:8.0;stroke:rgb(150,150,150);stroke-linecap:round;fill:none;" />
<line x1='2071.0' y1='1013.7' x2='2080.1' y2='1005.9' style="stroke-width:8.0;stroke:rgb(150,150,150);stroke-linecap:round;fill:none;" />
<line x1='2130.7' y1='1094.1' x2='2140.8' y2='1087.6' style="stroke-width:8.0;stroke:rgb(150,150,150);stroke-linecap:round;fill:none;" />
<text x="2158.3" y="1092.9" font-size="41.6px" font-family="CMUBright-Roman" style="text-anchor:start;fill:rgb(150,150,150);" transform="rotate(327.2,2158.3,1092.9)" >5250 kb</text>
<line x1='2179.1' y1='1181.7' x2='2190.0' y2='1176.6' style="stroke-width:8.0;stroke:rgb(150,150,150);stroke-linecap:round;fill:none;" />
<line x1='2215.5' y1='1275.0' x2='2226.9' y2='1271.4' style="stroke-width:8.0;stroke:rgb(150,150,150);stroke-linecap:round;fill:none;" />
<line x1='2239.1' y1='1372.3' x2='2250.9' y2='1370.3' style="stroke-width:8.0;stroke:rgb(150,150,150);stroke-linecap:round;fill:none;" />
<line x1='2249.5' y1='1471.9' x2='2261.5' y2='1471.5' style="stroke-width:8.0;stroke:rgb(150,150,150);stroke-linecap:round;fill:none;" />
<line x1='2246.5' y1='1572.0' x2='2258.5' y2='1573.2' style="stroke-width:8.0;stroke:rgb(150,150,150);stroke-linecap:round;fill:none;" />
<text x="2269.0" y="1588.3" font-size="41.6px" font-family="CMUBright-Roman" style="text-anchor:start;fill:rgb(150,150,150);" transform="rotate(5.5,2269.0,1588.3)" >5300 kb</text>
<line x1='2230.3' y1='1670.8' x2='2242.0' y2='1673.6' style="stroke-width:8.0;stroke:rgb(150,150,150);stroke-linecap:round;fill:none;" />
<line x1='2201.0' y1='1766.6' x2='2212.2' y2='1770.9' style="stroke-width:8.0;stroke:rgb(150,150,150);stroke-linecap:round;fill:none;" />
<line x1='2159.3' y1='1857.6' x2='2169.8' y2='1863.3' style="stroke-width:8.0;stroke:rgb(150,150,150);stroke-linecap:round;fill:none;" />
<line x1='2105.7' y1='1942.2' x2='2115.4' y2='1949.3' style="stroke-width:8.0;stroke:rgb(150,150,150);stroke-linecap:round;fill:none;" />
<line x1='2041.4' y1='2019.0' x2='2050.1' y2='2027.3' style="stroke-width:8.0;stroke:rgb(150,150,150);stroke-linecap:round;fill:none;" />
<text x="2049.0" y="2045.6" font-size="41.6px" font-family="CMUBright-Roman" style="text-anchor:start;fill:rgb(150,150,150);" transform="rotate(43.8,2049.0,2045.6)" >5350 kb</text>
<line x1='1967.5' y1='2086.5' x2='1974.9' y2='2095.9' style="stroke-width:8.0;stroke:rgb(150,150,150);stroke-linecap:round;fill:none;" />
<line x1='1885.2' y1='2143.5' x2='1891.3' y2='2153.8' style="stroke-width:8.0;stroke:rgb(150,150,150);stroke-linecap:round;fill:none;" />
<line x1='1796.0' y1='2189.1' x2='1800.7' y2='2200.1' style="stroke-width:8.0;stroke:rgb(150,150,150);stroke-linecap:round;fill:none;" />
<g id="highlighttrack_0">
<path d="M2034.927,1372.120 A550.000,550.000 40.000 0,1 2013.836,1696.145 L2200.685,1767.471 A750.000,750.000 0.000 0,0 2229.446,1325.618 Z" style="stroke-width:14.0;stroke:rgb(0,0,0);stroke-linecap:round;fill:rgb(255,38,78);" />
</g>
<path d="M1500.000,950.000 A550.000,550.000 40.000 0,1 1684.423,2018.159 L1751.485,2206.580 A750.000,750.000 0.000 0,0 1500.000,750.000 Z" style="stroke-width:2.0;stroke:rgb(0,0,0);stroke-linecap:round;fill:none;" />
<path d="M1467.622,2049.046 A550.000,550.000 40.000 0,1 1285.393,993.597 L1207.355,809.450 A750.000,750.000 0.000 0,0 1455.848,2248.699 Z" style="stroke-width:2.0;stroke:rgb(0,0,0);stroke-linecap:round;fill:rgb(179,177,178);" />
<text x="494.9" y="1673.5" font-size="46.8px" font-family="CMUBright-Roman" style="text-anchor:middle;fill:rgb(0,0,0);" transform="rotate(80.2,494.9,1673.5)" >HistoohiSECH95<tspan baseline-shift="-40%" font-size="90%">6</tspan></text>
<line x1='1158.4' y1='832.3' x2='1152.9' y2='821.6' style="stroke-width:8.0;stroke:rgb(150,150,150);stroke-linecap:round;fill:none;" />
<line x1='1072.5' y1='883.8' x2='1065.7' y2='873.9' style="stroke-width:8.0;stroke:rgb(150,150,150);stroke-linecap:round;fill:none;" />
<line x1='994.2' y1='946.2' x2='986.1' y2='937.3' style="stroke-width:8.0;stroke:rgb(150,150,150);stroke-linecap:round;fill:none;" />
<text x="967.8" y="938.0" font-size="41.6px" font-family="CMUBright-Roman" style="text-anchor:end;fill:rgb(150,150,150);" transform="rotate(47.6,967.8,938.0)" >4100 kb</text>
<line x1='925.0' y1='1018.5' x2='915.8' y2='1010.8' style="stroke-width:8.0;stroke:rgb(150,150,150);stroke-linecap:round;fill:none;" />
<line x1='865.9' y1='1099.4' x2='855.8' y2='1093.0' style="stroke-width:8.0;stroke:rgb(150,150,150);stroke-linecap:round;fill:none;" />
<line x1='818.2' y1='1187.5' x2='807.3' y2='1182.5' style="stroke-width:8.0;stroke:rgb(150,150,150);stroke-linecap:round;fill:none;" />
<line x1='782.7' y1='1281.1' x2='771.2' y2='1277.6' style="stroke-width:8.0;stroke:rgb(150,150,150);stroke-linecap:round;fill:none;" />
<line x1='759.9' y1='1378.6' x2='748.1' y2='1376.6' style="stroke-width:8.0;stroke:rgb(150,150,150);stroke-linecap:round;fill:none;" />
<text x="734.1" y="1388.5" font-size="41.6px" font-family="CMUBright-Roman" style="text-anchor:end;fill:rgb(150,150,150);" transform="rotate(9.3,734.1,1388.5)" >4150 kb</text>
<line x1='750.3' y1='1478.3' x2='738.3' y2='1477.9' style="stroke-width:8.0;stroke:rgb(150,150,150);stroke-linecap:round;fill:none;" />
<line x1='754.1' y1='1578.3' x2='742.2' y2='1579.6' style="stroke-width:8.0;stroke:rgb(150,150,150);stroke-linecap:round;fill:none;" />
<line x1='771.2' y1='1677.0' x2='759.5' y2='1679.8' style="stroke-width:8.0;stroke:rgb(150,150,150);stroke-linecap:round;fill:none;" />
<line x1='801.3' y1='1772.5' x2='790.1' y2='1776.9' style="stroke-width:8.0;stroke:rgb(150,150,150);stroke-linecap:round;fill:none;" />
<line x1='843.8' y1='1863.2' x2='833.3' y2='1869.0' style="stroke-width:8.0;stroke:rgb(150,150,150);stroke-linecap:round;fill:none;" />
<text x="829.7" y="1887.0" font-size="41.6px" font-family="CMUBright-Roman" style="text-anchor:end;fill:rgb(150,150,150);" transform="rotate(-29.0,829.7,1887.0)" >4200 kb</text>
<line x1='898.0' y1='1947.3' x2='888.4' y2='1954.5' style="stroke-width:8.0;stroke:rgb(150,150,150);stroke-linecap:round;fill:none;" />
<line x1='963.0' y1='2023.5' x2='954.4' y2='2031.9' style="stroke-width:8.0;stroke:rgb(150,150,150);stroke-linecap:round;fill:none;" />
<line x1='1037.5' y1='2090.4' x2='1030.1' y2='2099.9' style="stroke-width:8.0;stroke:rgb(150,150,150);stroke-linecap:round;fill:none;" />
<line x1='1120.3' y1='2146.8' x2='1114.2' y2='2157.1' style="stroke-width:8.0;stroke:rgb(150,150,150);stroke-linecap:round;fill:none;" />
<line x1='1209.8' y1='2191.6' x2='1205.2' y2='2202.7' style="stroke-width:8.0;stroke:rgb(150,150,150);stroke-linecap:round;fill:none;" />
<text x="1213.5" y="2219.0" font-size="41.6px" font-family="CMUBright-Roman" style="text-anchor:end;fill:rgb(150,150,150);" transform="rotate(-67.2,1213.5,2219.0)" >4250 kb</text>
<line x1='1304.5' y1='2224.1' x2='1301.4' y2='2235.7' style="stroke-width:8.0;stroke:rgb(150,150,150);stroke-linecap:round;fill:none;" />
<line x1='1402.7' y1='2243.7' x2='1401.2' y2='2255.6' style="stroke-width:8.0;stroke:rgb(150,150,150);stroke-linecap:round;fill:none;" />
<path d="M1467.622,2049.046 A550.000,550.000 40.000 0,1 1285.393,993.597 L1207.355,809.450 A750.000,750.000 0.000 0,0 1455.848,2248.699 Z" style="stroke-width:2.0;stroke:rgb(0,0,0);stroke-linecap:round;fill:none;" />
</g>
<g id="track_0">
<path d="M 1960.662,1253.430 A 522.500,522.500 0.00 0,1 2008.0,1377.9 L 2008.0,1377.9 1982.2,1384.1 1956.3,1390.2 1930.4,1396.4 1904.4,1402.5 1878.4,1408.5 1852.4,1414.5 1826.3,1420.5 1800.2,1426.5 1774.1,1432.4 1747.9,1438.2 1721.7,1444.0 1695.5,1449.8 1669.3,1455.5 1643.0,1461.2 1616.7,1466.8 1590.4,1472.3 1564.1,1477.9 1537.8,1483.3 1511.4,1488.7 1485.1,1494.1 1458.7,1499.4 1432.3,1504.6 1405.9,1509.8 1379.6,1514.9 1353.2,1520.0 1326.8,1525.0 1300.4,1530.0 1274.0,1534.9 1247.6,1539.8 1221.2,1544.6 1194.9,1549.3 1168.5,1554.0 1142.2,1558.7 1115.9,1563.3 1089.6,1567.8 1063.3,1572.3 1037.0,1576.8 1010.8,1581.2 984.6,1585.6  A 522.500,522.500 0.00 0,1 979.8,1451.3 L 979.8,1451.3 1004.6,1453.5 1029.7,1455.4 1055.0,1457.0 1080.5,1458.2 1106.1,1459.2 1131.9,1459.8 1157.8,1460.0 1183.8,1459.8 1209.9,1459.3 1236.1,1458.4 1262.4,1457.0 1288.6,1455.2 1314.9,1453.0 1341.3,1450.4 1367.6,1447.3 1393.9,1443.8 1420.1,1439.9 1446.3,1435.5 1472.5,1430.7 1498.5,1425.5 1524.5,1419.8 1550.3,1413.6 1576.1,1407.1 1601.7,1400.1 1627.1,1392.7 1652.4,1385.0 1677.5,1376.8 1702.4,1368.2 1727.1,1359.3 1751.6,1350.0 1775.9,1340.4 1799.9,1330.5 1823.7,1320.2 1847.3,1309.7 1870.5,1298.9 1893.5,1287.8 1916.2,1276.6 1938.6,1265.1 1960.7,1253.4  Z" style="stroke-width: 0.5;  stroke: rgb(0,0,0); fill: rgb(179,177,178);" />
<path d="M 1795.230,1068.902 A 522.500,522.500 0.00 0,1 1872.8,1134.0 L 1872.8,1134.0 1856.1,1150.1 1838.8,1166.0 1821.0,1181.7 1802.7,1197.0 1784.0,1211.9 1764.9,1226.4 1745.3,1240.5 1725.3,1254.0 1704.9,1266.9 1684.1,1279.2 1663.0,1290.9 1641.5,1302.0 1619.6,1312.3 1597.5,1321.9 1575.1,1330.8 1552.4,1338.8 1529.4,1346.2 1506.3,1352.7 1482.9,1358.4 1459.3,1363.3 1435.6,1367.3 1411.8,1370.6 1387.8,1373.0 1363.8,1374.6 1339.7,1375.4 1315.5,1375.4 1291.4,1374.6 1267.3,1373.0 1243.2,1370.7 1219.3,1367.7 1195.4,1363.9 1171.7,1359.5 1148.1,1354.4 1124.8,1348.8 1101.7,1342.5 1078.8,1335.7 1056.3,1328.4 1034.1,1320.7 1012.3,1312.6  A 522.500,522.500 0.00 0,1 1057.2,1222.6 L 1057.2,1222.6 1076.2,1234.2 1095.6,1245.4 1115.4,1256.1 1135.5,1266.3 1156.0,1275.9 1176.6,1284.8 1197.5,1293.0 1218.6,1300.4 1239.7,1307.0 1261.0,1312.7 1282.4,1317.5 1303.8,1321.4 1325.2,1324.4 1346.6,1326.3 1367.9,1327.3 1389.1,1327.2 1410.2,1326.0 1431.2,1323.9 1451.9,1320.6 1472.5,1316.3 1492.8,1311.0 1512.9,1304.7 1532.7,1297.3 1552.2,1288.9 1571.3,1279.5 1590.1,1269.2 1608.6,1258.0 1626.7,1245.9 1644.3,1232.9 1661.6,1219.1 1678.4,1204.6 1694.7,1189.4 1710.6,1173.6 1726.0,1157.2 1740.9,1140.2 1755.2,1122.9 1769.1,1105.1 1782.4,1087.1 1795.2,1068.9  Z" style="stroke-width: 0.5;  stroke: rgb(0,0,0); fill: rgb(179,177,178);" />
<path d="M 1500.000,977.500 A 522.500,522.500 0.00 0,1 1515.6,977.7 L 1515.6,977.7 1514.8,998.3 1513.6,1018.8 1512.0,1039.0 1510.0,1059.0 1507.5,1078.5 1504.6,1097.4 1501.1,1115.7 1497.2,1133.3 1492.7,1150.0 1487.7,1165.8 1482.2,1180.6 1476.2,1194.3 1469.5,1206.9 1462.4,1218.4 1454.7,1228.6 1446.4,1237.6 1437.7,1245.3 1428.4,1251.7 1418.6,1256.7 1408.3,1260.4 1397.6,1262.7 1386.3,1263.7 1374.7,1263.3 1362.6,1261.6 1350.2,1258.6 1337.4,1254.3 1324.2,1248.8 1310.8,1242.0 1297.1,1234.1 1283.2,1225.1 1269.2,1215.0 1255.0,1203.9 1240.7,1192.0 1226.4,1179.2 1212.1,1165.8 1197.9,1151.6 1183.8,1137.0 1169.9,1121.9 1156.2,1106.6  A 522.500,522.500 0.00 0,1 1218.0,1060.1 L 1218.0,1060.1 1229.1,1077.2 1240.4,1094.0 1251.9,1110.4 1263.5,1126.4 1275.1,1141.7 1286.7,1156.3 1298.3,1170.1 1309.8,1183.0 1321.2,1194.9 1332.4,1205.8 1343.4,1215.5 1354.2,1224.0 1364.8,1231.3 1375.1,1237.3 1385.0,1241.9 1394.7,1245.2 1403.9,1247.1 1412.8,1247.5 1421.4,1246.6 1429.4,1244.2 1437.1,1240.4 1444.4,1235.2 1451.2,1228.6 1457.5,1220.7 1463.4,1211.4 1468.8,1200.8 1473.8,1189.0 1478.3,1176.0 1482.3,1161.8 1485.9,1146.7 1489.1,1130.5 1491.8,1113.4 1494.1,1095.6 1496.0,1077.0 1497.5,1057.8 1498.6,1038.1 1499.4,1018.1 1499.9,997.9 1500.0,977.5  Z" style="stroke-width: 0.5;  stroke: rgb(0,0,0); fill: rgb(179,177,178);" />
<path d="M 1907.827,1826.624 A 522.500,522.500 0.00 0,1 1857.3,1881.2 L 1857.3,1881.2 1841.8,1865.0 1825.7,1849.1 1809.1,1833.4 1792.1,1818.2 1774.6,1803.5 1756.7,1789.3 1738.3,1775.8 1719.6,1762.9 1700.5,1750.7 1681.0,1739.2 1661.3,1728.6 1641.2,1718.8 1620.8,1710.0 1600.2,1702.0 1579.3,1694.9 1558.3,1688.8 1537.0,1683.8 1515.6,1679.7 1494.0,1676.6 1472.4,1674.5 1450.6,1673.4 1428.8,1673.4 1407.0,1674.4 1385.1,1676.3 1363.3,1679.3 1341.6,1683.2 1319.9,1688.1 1298.3,1693.9 1276.9,1700.6 1255.6,1708.1 1234.5,1716.5 1213.7,1725.6 1193.1,1735.4 1172.8,1745.9 1152.9,1757.1 1133.2,1768.8 1114.0,1781.0 1095.2,1793.6 1076.9,1806.5  A 522.500,522.500 0.00 0,1 1037.5,1743.1 L 1037.5,1743.1 1058.2,1732.5 1079.3,1722.2 1100.8,1712.4 1122.6,1703.0 1144.8,1694.1 1167.3,1685.8 1190.0,1678.1 1213.0,1671.0 1236.2,1664.6 1259.6,1658.8 1283.2,1653.8 1306.9,1649.6 1330.7,1646.1 1354.6,1643.4 1378.5,1641.5 1402.5,1640.4 1426.4,1640.2 1450.4,1640.8 1474.3,1642.2 1498.2,1644.5 1521.9,1647.6 1545.5,1651.6 1569.0,1656.4 1592.4,1662.0 1615.5,1668.4 1638.4,1675.6 1661.1,1683.6 1683.6,1692.3 1705.8,1701.7 1727.6,1711.7 1749.2,1722.5 1770.4,1733.8 1791.3,1745.7 1811.8,1758.2 1831.9,1771.1 1851.5,1784.5 1870.8,1798.2 1889.5,1812.3 1907.8,1826.6  Z" style="stroke-width: 0.5;  stroke: rgb(0,0,0); fill: rgb(179,177,178);" />
<path d="M 1947.250,1770.136 A 522.500,522.500 0.00 0,1 1908.3,1826.1 L 1908.3,1826.1 1890.0,1811.7 1871.2,1797.7 1851.9,1784.0 1832.2,1770.6 1812.1,1757.7 1791.6,1745.3 1770.7,1733.4 1749.5,1722.0 1727.9,1711.3 1706.0,1701.3 1683.8,1691.9 1661.3,1683.2 1638.6,1675.2 1615.6,1668.0 1592.4,1661.6 1569.1,1656.0 1545.6,1651.2 1521.9,1647.2 1498.2,1644.1 1474.3,1641.8 1450.4,1640.3 1426.4,1639.7 1402.4,1639.9 1378.4,1641.0 1354.4,1642.9 1330.5,1645.5 1306.7,1649.0 1283.0,1653.2 1259.4,1658.2 1236.0,1663.9 1212.7,1670.3 1189.7,1677.4 1166.9,1685.1 1144.4,1693.3 1122.2,1702.2 1100.3,1711.5 1078.8,1721.3 1057.7,1731.5 1036.9,1742.1  A 522.500,522.500 0.00 0,1 1009.3,1679.4 L 1009.3,1679.4 1031.9,1671.4 1054.9,1663.6 1078.2,1656.3 1101.8,1649.3 1125.7,1642.8 1149.8,1636.7 1174.2,1631.2 1198.8,1626.1 1223.6,1621.6 1248.5,1617.7 1273.6,1614.4 1298.8,1611.6 1324.0,1609.5 1349.4,1608.0 1374.8,1607.1 1400.3,1606.9 1425.7,1607.4 1451.1,1608.5 1476.5,1610.3 1501.9,1612.7 1527.2,1615.9 1552.3,1619.6 1577.4,1624.1 1602.3,1629.1 1627.1,1634.8 1651.7,1641.2 1676.1,1648.1 1700.3,1655.6 1724.3,1663.7 1748.0,1672.4 1771.5,1681.5 1794.6,1691.2 1817.5,1701.3 1840.0,1711.9 1862.2,1722.9 1884.0,1734.2 1905.5,1745.9 1926.6,1757.9 1947.2,1770.1  Z" style="stroke-width: 0.5;  stroke: rgb(0,0,0); fill: rgb(179,177,178);" />
<path d="M 1978.896,1708.960 A 522.500,522.500 0.00 0,1 1949.3,1766.8 L 1949.3,1766.8 1928.5,1754.7 1907.3,1742.8 1885.7,1731.2 1863.7,1720.0 1841.4,1709.2 1818.8,1698.7 1795.8,1688.7 1772.6,1679.1 1749.0,1670.0 1725.2,1661.5 1701.2,1653.5 1676.9,1646.0 1652.4,1639.2 1627.7,1632.9 1602.8,1627.2 1577.8,1622.2 1552.7,1617.8 1527.4,1614.0 1502.1,1610.9 1476.7,1608.4 1451.2,1606.6 1425.7,1605.5 1400.2,1605.0 1374.7,1605.1 1349.2,1605.9 1323.8,1607.3 1298.4,1609.4 1273.2,1612.1 1248.0,1615.3 1223.0,1619.1 1198.2,1623.5 1173.5,1628.4 1149.0,1633.9 1124.8,1639.8 1100.8,1646.2 1077.1,1653.0 1053.7,1660.2 1030.7,1667.8 1007.9,1675.7  A 522.500,522.500 0.00 0,1 989.9,1613.4 L 989.9,1613.4 1014.2,1608.1 1038.7,1603.2 1063.5,1598.5 1088.5,1594.2 1113.7,1590.1 1139.1,1586.5 1164.7,1583.2 1190.5,1580.3 1216.3,1577.8 1242.3,1575.8 1268.5,1574.1 1294.7,1572.9 1320.9,1572.2 1347.3,1571.9 1373.6,1572.0 1400.0,1572.7 1426.4,1573.8 1452.8,1575.4 1479.2,1577.5 1505.6,1580.0 1531.8,1583.0 1558.1,1586.5 1584.2,1590.5 1610.2,1594.9 1636.1,1599.8 1661.9,1605.1 1687.6,1610.9 1713.1,1617.1 1738.4,1623.7 1763.5,1630.7 1788.4,1638.1 1813.1,1645.9 1837.6,1654.0 1861.8,1662.5 1885.8,1671.2 1909.5,1680.3 1933.0,1689.6 1956.1,1699.2 1978.9,1709.0  Z" style="stroke-width: 0.5;  stroke: rgb(0,0,0); fill: rgb(179,177,178);" />
<path d="M 1530.693,978.402 A 522.500,522.500 0.00 0,1 1582.5,984.0 L 1582.5,984.0 1578.9,1004.8 1574.9,1025.4 1570.4,1045.8 1565.4,1066.0 1559.8,1085.7 1553.7,1105.0 1547.0,1123.6 1539.8,1141.5 1532.0,1158.7 1523.7,1175.0 1514.7,1190.5 1505.2,1204.9 1495.2,1218.4 1484.5,1230.7 1473.3,1242.0 1461.6,1252.0 1449.3,1260.9 1436.6,1268.6 1423.3,1275.0 1409.5,1280.2 1395.3,1284.1 1380.6,1286.8 1365.5,1288.2 1350.1,1288.3 1334.3,1287.2 1318.1,1284.9 1301.7,1281.5 1285.0,1276.8 1268.1,1271.1 1251.1,1264.3 1233.9,1256.5 1216.7,1247.8 1199.4,1238.1 1182.1,1227.7 1164.9,1216.5 1147.9,1204.7 1131.0,1192.3 1114.4,1179.4 1098.1,1166.1  A 522.500,522.500 0.00 0,1 1133.7,1127.4 L 1133.7,1127.4 1148.4,1142.0 1163.3,1156.3 1178.4,1170.2 1193.6,1183.5 1209.0,1196.1 1224.3,1208.1 1239.7,1219.2 1254.9,1229.4 1270.1,1238.7 1285.1,1246.9 1299.8,1254.0 1314.3,1260.0 1328.6,1264.8 1342.5,1268.3 1356.0,1270.7 1369.2,1271.7 1381.9,1271.4 1394.2,1269.8 1406.0,1266.8 1417.4,1262.6 1428.2,1257.0 1438.5,1250.1 1448.3,1242.0 1457.5,1232.5 1466.2,1221.9 1474.3,1210.1 1481.9,1197.1 1488.9,1183.0 1495.3,1168.0 1501.2,1151.9 1506.5,1135.0 1511.3,1117.2 1515.5,1098.8 1519.2,1079.7 1522.5,1060.0 1525.2,1040.0 1527.5,1019.6 1529.3,999.0 1530.7,978.4  Z" style="stroke-width: 0.5;  stroke: rgb(0,0,0); fill: rgb(179,177,178);" />
<path d="M 1764.888,1950.378 A 522.500,522.500 0.00 0,1 1727.3,1970.5 L 1727.3,1970.5 1717.9,1951.6 1708.1,1932.9 1697.8,1914.5 1687.1,1896.6 1676.0,1879.2 1664.4,1862.4 1652.6,1846.4 1640.3,1831.1 1627.7,1816.7 1614.8,1803.3 1601.5,1790.9 1588.0,1779.6 1574.1,1769.4 1560.0,1760.3 1545.7,1752.5 1531.2,1745.9 1516.4,1740.6 1501.5,1736.6 1486.4,1733.9 1471.2,1732.5 1455.9,1732.5 1440.5,1733.7 1425.1,1736.3 1409.6,1740.1 1394.1,1745.3 1378.6,1751.6 1363.2,1759.2 1347.8,1767.9 1332.5,1777.7 1317.4,1788.6 1302.4,1800.4 1287.6,1813.2 1273.0,1826.9 1258.7,1841.3 1244.6,1856.5 1230.9,1872.2 1217.4,1888.4 1204.4,1905.0 1191.8,1921.9  A 522.500,522.500 0.00 0,1 1158.7,1895.6 L 1158.7,1895.6 1172.8,1879.5 1187.5,1863.8 1202.5,1848.5 1217.9,1833.7 1233.6,1819.4 1249.6,1805.9 1265.9,1793.1 1282.4,1781.1 1299.2,1770.0 1316.1,1759.9 1333.2,1750.8 1350.4,1742.8 1367.6,1735.8 1385.0,1730.0 1402.3,1725.4 1419.7,1722.0 1437.0,1719.8 1454.3,1718.9 1471.6,1719.1 1488.7,1720.7 1505.7,1723.5 1522.5,1727.5 1539.2,1732.8 1555.7,1739.3 1571.9,1746.9 1588.0,1755.7 1603.7,1765.6 1619.2,1776.6 1634.3,1788.7 1649.2,1801.6 1663.6,1815.5 1677.8,1830.3 1691.5,1845.8 1704.8,1862.0 1717.8,1878.8 1730.2,1896.2 1742.3,1913.9 1753.8,1932.1 1764.9,1950.4  Z" style="stroke-width: 0.5;  stroke: rgb(0,0,0); fill: rgb(179,177,178);" />
<path d="M 1608.682,988.928 A 522.500,522.500 0.00 0,1 1636.1,995.5 L 1636.1,995.5 1630.3,1016.1 1624.0,1036.6 1617.1,1056.9 1609.7,1076.9 1601.7,1096.4 1593.2,1115.5 1584.1,1134.1 1574.4,1151.9 1564.2,1169.1 1553.4,1185.4 1542.0,1200.9 1530.1,1215.5 1517.6,1229.1 1504.6,1241.7 1491.1,1253.3 1477.0,1263.7 1462.4,1273.0 1447.4,1281.2 1431.9,1288.2 1415.9,1294.0 1399.5,1298.6 1382.7,1302.0 1365.6,1304.3 1348.1,1305.3 1330.3,1305.2 1312.3,1304.0 1293.9,1301.6 1275.4,1298.1 1256.8,1293.5 1238.0,1287.9 1219.1,1281.4 1200.2,1273.9 1181.3,1265.6 1162.5,1256.5 1143.8,1246.6 1125.3,1236.0 1107.0,1224.9 1089.0,1213.3 1071.3,1201.3  A 522.500,522.500 0.00 0,1 1088.3,1178.2 L 1088.3,1178.2 1105.1,1191.1 1122.3,1203.5 1139.7,1215.5 1157.3,1226.9 1175.1,1237.7 1193.0,1247.7 1210.9,1256.9 1228.8,1265.2 1246.7,1272.6 1264.4,1279.0 1282.1,1284.3 1299.5,1288.5 1316.7,1291.7 1333.7,1293.6 1350.4,1294.4 1366.7,1294.0 1382.7,1292.3 1398.3,1289.4 1413.5,1285.3 1428.3,1279.9 1442.6,1273.3 1456.4,1265.5 1469.7,1256.5 1482.5,1246.3 1494.8,1235.0 1506.5,1222.6 1517.7,1209.2 1528.4,1194.7 1538.5,1179.3 1548.0,1163.0 1556.9,1145.8 1565.3,1127.9 1573.1,1109.4 1580.4,1090.2 1587.1,1070.6 1593.3,1050.5 1598.9,1030.1 1604.0,1009.6 1608.7,988.9  Z" style="stroke-width: 0.5;  stroke: rgb(0,0,0); fill: rgb(179,177,178);" />
<path d="M 1706.691,1979.880 A 522.500,522.500 0.00 0,1 1680.6,1990.3 L 1680.6,1990.3 1673.2,1970.9 1665.5,1951.7 1657.3,1932.8 1648.8,1914.3 1640.0,1896.4 1630.7,1879.1 1621.2,1862.6 1611.3,1846.9 1601.1,1832.1 1590.7,1818.3 1579.9,1805.6 1568.9,1794.1 1557.6,1783.7 1546.1,1774.5 1534.3,1766.7 1522.4,1760.1 1510.3,1754.9 1498.0,1751.1 1485.6,1748.7 1473.0,1747.6 1460.3,1748.0 1447.6,1749.7 1434.8,1752.8 1421.9,1757.3 1409.0,1763.1 1396.2,1770.2 1383.3,1778.6 1370.5,1788.2 1357.8,1798.9 1345.2,1810.8 1332.7,1823.6 1320.4,1837.5 1308.2,1852.2 1296.2,1867.7 1284.5,1883.9 1273.1,1900.7 1261.9,1918.0 1251.1,1935.7 1240.6,1953.6  A 522.500,522.500 0.00 0,1 1216.6,1939.0 L 1216.6,1939.0 1228.1,1921.5 1240.0,1904.3 1252.3,1887.5 1264.9,1871.2 1277.8,1855.5 1290.9,1840.5 1304.3,1826.2 1317.9,1812.8 1331.6,1800.4 1345.5,1789.0 1359.6,1778.6 1373.7,1769.4 1387.9,1761.4 1402.1,1754.6 1416.3,1749.1 1430.5,1744.9 1444.7,1742.0 1458.9,1740.5 1472.9,1740.3 1486.9,1741.4 1500.7,1744.0 1514.4,1747.8 1527.9,1753.0 1541.2,1759.6 1554.3,1767.4 1567.2,1776.4 1579.9,1786.7 1592.3,1798.1 1604.4,1810.6 1616.2,1824.2 1627.7,1838.7 1638.9,1854.1 1649.7,1870.4 1660.2,1887.4 1670.3,1905.0 1680.0,1923.2 1689.3,1941.8 1698.2,1960.8 1706.7,1979.9  Z" style="stroke-width: 0.5;  stroke: rgb(0,0,0); fill: rgb(179,177,178);" />
<path d="M 1828.293,1906.485 A 522.500,522.500 0.00 0,1 1807.1,1922.7 L 1807.1,1922.7 1794.1,1905.2 1780.5,1887.9 1766.4,1870.9 1751.9,1854.4 1736.9,1838.4 1721.4,1822.9 1705.6,1808.2 1689.3,1794.1 1672.7,1780.8 1655.7,1768.4 1638.3,1756.9 1620.7,1746.3 1602.8,1736.7 1584.5,1728.2 1566.1,1720.7 1547.4,1714.3 1528.5,1709.0 1509.4,1704.8 1490.2,1701.8 1470.9,1699.9 1451.5,1699.2 1432.0,1699.7 1412.4,1701.2 1392.9,1703.9 1373.3,1707.7 1353.8,1712.7 1334.3,1718.6 1315.0,1725.6 1295.8,1733.6 1276.7,1742.5 1257.8,1752.4 1239.2,1763.0 1220.8,1774.5 1202.7,1786.7 1184.9,1799.6 1167.4,1813.0 1150.4,1826.9 1133.7,1841.3 1117.6,1856.0  A 522.500,522.500 0.00 0,1 1099.9,1836.1 L 1099.9,1836.1 1117.0,1822.0 1134.6,1808.4 1152.5,1795.1 1170.9,1782.4 1189.6,1770.2 1208.7,1758.7 1228.0,1747.9 1247.6,1737.9 1267.4,1728.6 1287.4,1720.3 1307.6,1712.8 1327.9,1706.3 1348.3,1700.8 1368.8,1696.3 1389.4,1692.8 1409.9,1690.4 1430.5,1689.1 1451.0,1688.9 1471.4,1689.8 1491.7,1691.7 1512.0,1694.8 1532.0,1698.9 1551.9,1704.2 1571.6,1710.5 1591.1,1717.8 1610.4,1726.1 1629.4,1735.4 1648.1,1745.7 1666.4,1756.9 1684.5,1768.9 1702.2,1781.8 1719.5,1795.4 1736.4,1809.7 1752.9,1824.7 1768.9,1840.2 1784.5,1856.2 1799.6,1872.7 1814.2,1889.5 1828.3,1906.5  Z" style="stroke-width: 0.5;  stroke: rgb(0,0,0); fill: rgb(179,177,178);" />
<path d="M 1641.872,997.130 A 522.500,522.500 0.00 0,1 1662.6,1003.5 L 1662.6,1003.5 1655.7,1023.9 1648.2,1044.2 1640.1,1064.4 1631.5,1084.2 1622.3,1103.7 1612.6,1122.6 1602.3,1141.1 1591.4,1158.8 1579.9,1175.9 1567.9,1192.3 1555.4,1207.7 1542.2,1222.3 1528.6,1236.0 1514.4,1248.7 1499.7,1260.4 1484.4,1271.0 1468.7,1280.6 1452.6,1289.0 1435.9,1296.3 1418.9,1302.5 1401.4,1307.5 1383.6,1311.4 1365.4,1314.1 1346.9,1315.7 1328.2,1316.1 1309.1,1315.4 1289.9,1313.7 1270.4,1310.8 1250.9,1307.0 1231.2,1302.1 1211.5,1296.3 1191.7,1289.6 1172.0,1282.1 1152.4,1273.7 1132.9,1264.6 1113.6,1254.9 1094.5,1244.6 1075.7,1233.8 1057.3,1222.5  A 522.500,522.500 0.00 0,1 1069.4,1204.0 L 1069.4,1204.0 1087.2,1215.9 1105.3,1227.5 1123.8,1238.5 1142.4,1248.9 1161.2,1258.7 1180.2,1267.7 1199.2,1276.0 1218.2,1283.3 1237.2,1289.8 1256.1,1295.3 1275.0,1299.8 1293.6,1303.2 1312.1,1305.5 1330.3,1306.7 1348.3,1306.8 1366.0,1305.7 1383.3,1303.4 1400.3,1299.9 1416.9,1295.3 1433.0,1289.4 1448.8,1282.4 1464.0,1274.2 1478.8,1264.9 1493.1,1254.4 1506.9,1242.9 1520.1,1230.3 1532.9,1216.7 1545.0,1202.2 1556.6,1186.7 1567.7,1170.4 1578.2,1153.3 1588.1,1135.4 1597.4,1116.9 1606.2,1097.9 1614.4,1078.3 1622.1,1058.4 1629.2,1038.1 1635.8,1017.7 1641.9,997.1  Z" style="stroke-width: 0.5;  stroke: rgb(0,0,0); fill: rgb(179,177,178);" />
<path d="M 1934.887,1210.380 A 522.500,522.500 0.00 0,1 1945.8,1227.5 L 1945.8,1227.5 1924.7,1240.2 1903.3,1252.7 1881.5,1265.0 1859.3,1277.0 1836.9,1288.8 1814.1,1300.2 1791.0,1311.3 1767.7,1322.0 1744.0,1332.4 1720.1,1342.4 1695.9,1351.9 1671.6,1361.0 1646.9,1369.7 1622.1,1377.9 1597.1,1385.6 1571.9,1392.9 1546.6,1399.6 1521.1,1405.9 1495.5,1411.6 1469.7,1416.8 1443.9,1421.5 1418.0,1425.7 1392.0,1429.3 1366.0,1432.5 1340.0,1435.1 1313.9,1437.2 1287.9,1438.8 1261.9,1439.9 1235.9,1440.5 1210.0,1440.6 1184.2,1440.3 1158.5,1439.5 1132.9,1438.2 1107.5,1436.6 1082.2,1434.5 1057.1,1432.0 1032.3,1429.2 1007.6,1426.1 983.3,1422.6  A 522.500,522.500 0.00 0,1 986.7,1402.5 L 986.7,1402.5 1010.7,1406.9 1034.9,1410.9 1059.4,1414.6 1084.2,1417.8 1109.2,1420.7 1134.3,1423.1 1159.6,1425.1 1185.1,1426.5 1210.6,1427.5 1236.3,1427.9 1262.0,1427.9 1287.8,1427.3 1313.6,1426.1 1339.4,1424.4 1365.2,1422.1 1391.0,1419.2 1416.7,1415.8 1442.4,1411.8 1467.9,1407.2 1493.4,1402.0 1518.7,1396.3 1543.9,1390.0 1569.0,1383.2 1593.8,1375.8 1618.5,1367.8 1642.9,1359.4 1667.2,1350.4 1691.1,1340.9 1714.9,1331.0 1738.3,1320.6 1761.5,1309.7 1784.4,1298.5 1806.9,1286.8 1829.1,1274.8 1851.0,1262.5 1872.5,1249.8 1893.7,1236.9 1914.5,1223.7 1934.9,1210.4  Z" style="stroke-width: 0.5;  stroke: rgb(0,0,0); fill: rgb(179,177,178);" />
<path d="M 1783.562,1938.861 A 522.500,522.500 0.00 0,1 1766.5,1949.4 L 1766.5,1949.4 1755.3,1931.1 1743.7,1913.1 1731.6,1895.3 1719.0,1878.0 1706.0,1861.2 1692.6,1845.0 1678.8,1829.5 1664.6,1814.8 1650.0,1800.9 1635.1,1787.9 1619.9,1775.9 1604.3,1765.0 1588.5,1755.0 1572.4,1746.2 1556.0,1738.6 1539.4,1732.1 1522.7,1726.8 1505.7,1722.8 1488.7,1720.0 1471.4,1718.4 1454.1,1718.1 1436.7,1719.0 1419.3,1721.2 1401.8,1724.5 1384.4,1729.1 1366.9,1734.9 1349.6,1741.8 1332.3,1749.8 1315.1,1758.8 1298.1,1768.9 1281.3,1779.9 1264.6,1791.8 1248.2,1804.5 1232.1,1818.0 1216.3,1832.2 1200.8,1847.0 1185.7,1862.3 1171.0,1877.9 1156.7,1893.9  A 522.500,522.500 0.00 0,1 1141.7,1880.3 L 1141.7,1880.3 1156.7,1864.8 1172.2,1849.6 1188.0,1834.8 1204.3,1820.5 1220.8,1806.8 1237.7,1793.7 1254.9,1781.4 1272.3,1769.9 1289.9,1759.3 1307.8,1749.7 1325.7,1741.0 1343.8,1733.3 1362.0,1726.7 1380.3,1721.3 1398.6,1716.9 1416.9,1713.8 1435.2,1711.8 1453.4,1711.0 1471.6,1711.5 1489.7,1713.1 1507.6,1716.0 1525.4,1720.0 1543.1,1725.3 1560.5,1731.7 1577.7,1739.3 1594.7,1748.0 1611.4,1757.7 1627.8,1768.5 1643.9,1780.3 1659.7,1793.0 1675.1,1806.7 1690.2,1821.1 1704.8,1836.3 1719.1,1852.2 1732.9,1868.7 1746.3,1885.7 1759.2,1903.1 1771.6,1920.9 1783.6,1938.9  Z" style="stroke-width: 0.5;  stroke: rgb(0,0,0); fill: rgb(179,177,178);" />
<path d="M 1725.580,1971.296 A 522.500,522.500 0.00 0,1 1709.0,1978.9 L 1709.0,1978.9 1700.5,1959.7 1691.4,1940.8 1682.0,1922.2 1672.1,1904.0 1661.9,1886.4 1651.3,1869.4 1640.3,1853.1 1628.9,1837.6 1617.2,1823.1 1605.2,1809.5 1592.9,1796.9 1580.3,1785.5 1567.4,1775.1 1554.3,1766.0 1540.9,1758.1 1527.3,1751.5 1513.5,1746.2 1499.5,1742.2 1485.4,1739.6 1471.2,1738.3 1456.8,1738.4 1442.4,1739.8 1427.9,1742.5 1413.3,1746.6 1398.7,1751.9 1384.2,1758.5 1369.6,1766.3 1355.2,1775.3 1340.8,1785.5 1326.5,1796.7 1312.4,1808.9 1298.4,1822.1 1284.7,1836.1 1271.2,1850.9 1257.9,1866.4 1244.9,1882.5 1232.3,1899.1 1220.0,1916.1 1208.1,1933.4  A 522.500,522.500 0.00 0,1 1193.3,1923.0 L 1193.3,1923.0 1205.8,1906.1 1218.8,1889.4 1232.2,1873.2 1245.8,1857.4 1259.8,1842.3 1274.1,1827.8 1288.6,1814.1 1303.3,1801.3 1318.2,1789.4 1333.3,1778.4 1348.5,1768.6 1363.8,1759.9 1379.1,1752.3 1394.5,1745.9 1409.9,1740.8 1425.3,1736.9 1440.7,1734.3 1456.0,1733.0 1471.2,1733.1 1486.3,1734.5 1501.3,1737.2 1516.2,1741.2 1530.8,1746.5 1545.3,1753.0 1559.5,1760.9 1573.5,1769.9 1587.2,1780.1 1600.7,1791.5 1613.9,1803.9 1626.7,1817.3 1639.2,1831.7 1651.4,1847.0 1663.2,1863.1 1674.6,1879.9 1685.7,1897.3 1696.3,1915.3 1706.5,1933.7 1716.3,1952.4 1725.6,1971.3  Z" style="stroke-width: 0.5;  stroke: rgb(0,0,0); fill: rgb(179,177,178);" />
<path d="M 1845.236,1892.197 A 522.500,522.500 0.00 0,1 1834.7,1901.2 L 1834.7,1901.2 1820.3,1884.3 1805.4,1867.7 1790.0,1851.5 1774.1,1835.6 1757.7,1820.3 1740.9,1805.5 1723.7,1791.3 1706.1,1777.8 1688.1,1765.1 1669.7,1753.2 1651.0,1742.2 1632.0,1732.0 1612.8,1722.8 1593.2,1714.5 1573.4,1707.3 1553.4,1701.0 1533.2,1695.8 1512.8,1691.7 1492.3,1688.6 1471.7,1686.7 1451.0,1685.8 1430.2,1685.9 1409.4,1687.2 1388.5,1689.5 1367.7,1692.9 1347.0,1697.3 1326.3,1702.7 1305.7,1709.0 1285.2,1716.3 1265.0,1724.5 1244.9,1733.6 1225.0,1743.5 1205.4,1754.1 1186.1,1765.4 1167.1,1777.4 1148.5,1789.9 1130.3,1803.0 1112.5,1816.4 1095.1,1830.3  A 522.500,522.500 0.00 0,1 1086.7,1819.6 L 1086.7,1819.6 1104.5,1806.2 1122.7,1793.1 1141.4,1780.4 1160.5,1768.3 1180.0,1756.7 1199.7,1745.7 1219.8,1735.4 1240.1,1725.9 1260.6,1717.2 1281.3,1709.3 1302.3,1702.2 1323.3,1696.1 1344.4,1691.0 1365.7,1686.8 1387.0,1683.6 1408.3,1681.4 1429.6,1680.3 1450.8,1680.2 1472.0,1681.2 1493.1,1683.2 1514.1,1686.3 1535.0,1690.4 1555.7,1695.5 1576.2,1701.7 1596.5,1708.9 1616.5,1717.0 1636.3,1726.1 1655.8,1736.1 1675.0,1746.9 1693.9,1758.6 1712.4,1771.1 1730.5,1784.3 1748.3,1798.2 1765.6,1812.7 1782.5,1827.8 1798.9,1843.3 1814.8,1859.3 1830.3,1875.6 1845.2,1892.2  Z" style="stroke-width: 0.5;  stroke: rgb(0,0,0); fill: rgb(179,177,178);" />
<path d="M 1873.396,1134.511 A 522.500,522.500 0.00 0,1 1881.8,1143.2 L 1881.8,1143.2 1864.5,1159.1 1846.7,1174.7 1828.5,1190.0 1809.8,1205.0 1790.6,1219.7 1771.0,1233.9 1751.0,1247.6 1730.6,1260.8 1709.8,1273.5 1688.6,1285.6 1667.1,1297.1 1645.2,1308.0 1623.0,1318.1 1600.5,1327.6 1577.8,1336.4 1554.7,1344.4 1531.5,1351.7 1508.0,1358.2 1484.3,1363.9 1460.4,1368.8 1436.4,1372.9 1412.3,1376.3 1388.0,1378.9 1363.7,1380.6 1339.4,1381.6 1314.9,1381.8 1290.5,1381.3 1266.2,1380.0 1241.8,1378.0 1217.6,1375.3 1193.5,1371.9 1169.5,1367.8 1145.7,1363.2 1122.0,1357.9 1098.7,1352.0 1075.5,1345.7 1052.7,1338.8 1030.2,1331.6 1008.1,1323.9  A 522.500,522.500 0.00 0,1 1012.3,1312.4 L 1012.3,1312.4 1034.2,1320.6 1056.4,1328.3 1078.9,1335.6 1101.7,1342.4 1124.8,1348.7 1148.2,1354.4 1171.7,1359.4 1195.5,1363.9 1219.3,1367.6 1243.3,1370.7 1267.4,1373.0 1291.5,1374.6 1315.6,1375.4 1339.8,1375.4 1363.9,1374.6 1387.9,1373.0 1411.9,1370.6 1435.8,1367.4 1459.5,1363.4 1483.1,1358.5 1506.4,1352.8 1529.6,1346.3 1552.6,1339.0 1575.3,1331.0 1597.7,1322.1 1619.9,1312.5 1641.7,1302.2 1663.3,1291.2 1684.4,1279.6 1705.2,1267.2 1725.6,1254.3 1745.7,1240.9 1765.3,1226.9 1784.5,1212.4 1803.2,1197.5 1821.5,1182.2 1839.3,1166.5 1856.6,1150.6 1873.4,1134.5  Z" style="stroke-width: 0.5;  stroke: rgb(0,0,0); fill: rgb(179,177,178);" />
<path d="M 1595.578,986.316 A 522.500,522.500 0.00 0,1 1605.0,988.2 L 1605.0,988.2 1600.5,1008.8 1595.6,1029.4 1590.1,1049.7 1584.1,1069.8 1577.5,1089.5 1570.4,1108.6 1562.8,1127.2 1554.6,1145.0 1545.8,1162.2 1536.5,1178.5 1526.6,1193.8 1516.1,1208.3 1505.1,1221.7 1493.6,1234.1 1481.5,1245.3 1468.9,1255.4 1455.7,1264.4 1442.1,1272.1 1428.0,1278.6 1413.4,1283.9 1398.4,1287.9 1383.0,1290.7 1367.2,1292.3 1351.0,1292.6 1334.5,1291.7 1317.7,1289.6 1300.7,1286.4 1283.4,1282.0 1265.9,1276.5 1248.3,1270.0 1230.6,1262.5 1212.9,1254.0 1195.1,1244.7 1177.4,1234.5 1159.8,1223.6 1142.3,1212.1 1125.1,1199.9 1108.1,1187.3 1091.4,1174.3  A 522.500,522.500 0.00 0,1 1097.5,1166.9 L 1097.5,1166.9 1113.8,1180.1 1130.5,1193.0 1147.5,1205.4 1164.6,1217.3 1181.9,1228.4 1199.3,1238.9 1216.7,1248.5 1234.1,1257.2 1251.5,1265.0 1268.7,1271.8 1285.8,1277.6 1302.7,1282.2 1319.4,1285.7 1335.8,1288.0 1351.9,1289.1 1367.7,1289.0 1383.1,1287.6 1398.1,1285.0 1412.7,1281.1 1426.8,1276.0 1440.5,1269.6 1453.7,1262.0 1466.4,1253.2 1478.6,1243.2 1490.2,1232.0 1501.3,1219.7 1511.9,1206.4 1521.9,1192.0 1531.3,1176.6 1540.2,1160.4 1548.5,1143.3 1556.3,1125.4 1563.5,1106.8 1570.2,1087.7 1576.3,1068.0 1581.9,1047.9 1586.9,1027.6 1591.5,1007.0 1595.6,986.3  Z" style="stroke-width: 0.5;  stroke: rgb(0,0,0); fill: rgb(179,177,178);" />
<path d="M 1956.269,1245.393 A 522.500,522.500 0.00 0,1 1960.7,1253.4 L 1960.7,1253.4 1938.6,1265.1 1916.2,1276.5 1893.5,1287.8 1870.5,1298.9 1847.3,1309.7 1823.7,1320.2 1799.9,1330.4 1775.9,1340.4 1751.6,1350.0 1727.1,1359.2 1702.4,1368.1 1677.5,1376.7 1652.4,1384.8 1627.1,1392.6 1601.7,1400.0 1576.1,1406.9 1550.4,1413.4 1524.5,1419.5 1498.5,1425.2 1472.5,1430.4 1446.3,1435.2 1420.1,1439.5 1393.9,1443.5 1367.6,1446.9 1341.3,1449.9 1315.0,1452.5 1288.7,1454.7 1262.4,1456.4 1236.1,1457.7 1210.0,1458.6 1183.9,1459.1 1157.9,1459.2 1132.0,1459.0 1106.2,1458.3 1080.6,1457.4 1055.1,1456.0 1029.8,1454.4 1004.7,1452.4 979.9,1450.2  A 522.500,522.500 0.00 0,1 980.9,1440.9 L 980.9,1440.9 1005.6,1443.6 1030.5,1445.9 1055.6,1448.0 1081.0,1449.7 1106.5,1451.0 1132.2,1452.0 1158.0,1452.6 1183.9,1452.8 1209.9,1452.6 1236.0,1452.0 1262.2,1450.9 1288.4,1449.4 1314.6,1447.5 1340.9,1445.1 1367.1,1442.2 1393.3,1438.8 1419.5,1435.0 1445.6,1430.8 1471.7,1426.0 1497.6,1420.8 1523.5,1415.1 1549.3,1409.0 1574.9,1402.4 1600.3,1395.4 1625.7,1388.0 1650.8,1380.1 1675.8,1371.8 1700.5,1363.1 1725.1,1354.0 1749.4,1344.5 1773.5,1334.7 1797.3,1324.5 1820.9,1314.0 1844.2,1303.2 1867.2,1292.1 1890.0,1280.7 1912.4,1269.2 1934.5,1257.4 1956.3,1245.4  Z" style="stroke-width: 0.5;  stroke: rgb(0,0,0); fill: rgb(179,177,178);" />
<path d="M 1988.144,1686.338 A 522.500,522.500 0.00 0,1 1984.9,1694.7 L 1984.9,1694.7 1961.6,1685.5 1938.1,1676.5 1914.3,1667.8 1890.2,1659.3 1865.9,1651.0 1841.3,1643.1 1816.5,1635.5 1791.5,1628.2 1766.4,1621.2 1741.0,1614.6 1715.4,1608.4 1689.7,1602.5 1663.9,1597.1 1637.9,1592.0 1611.8,1587.4 1585.6,1583.1 1559.3,1579.3 1532.9,1575.9 1506.4,1573.0 1480.0,1570.5 1453.4,1568.4 1426.9,1566.8 1400.3,1565.6 1373.8,1564.8 1347.3,1564.5 1320.8,1564.5 1294.4,1565.1 1268.0,1566.0 1241.8,1567.3 1215.6,1569.0 1189.6,1571.1 1163.6,1573.6 1137.9,1576.4 1112.3,1579.6 1086.8,1583.1 1061.6,1586.9 1036.5,1591.0 1011.7,1595.4 987.2,1600.1  A 522.500,522.500 0.00 0,1 985.5,1591.4 L 985.5,1591.4 1010.3,1587.1 1035.3,1583.1 1060.4,1579.3 1085.8,1575.9 1111.4,1572.7 1137.1,1569.9 1163.0,1567.3 1189.0,1565.1 1215.2,1563.3 1241.5,1561.8 1267.8,1560.7 1294.2,1560.0 1320.7,1559.7 1347.3,1559.8 1373.9,1560.2 1400.5,1561.1 1427.1,1562.4 1453.7,1564.1 1480.3,1566.2 1506.9,1568.7 1533.4,1571.6 1559.9,1575.0 1586.3,1578.7 1612.6,1582.8 1638.8,1587.4 1664.9,1592.3 1690.8,1597.6 1716.7,1603.3 1742.3,1609.3 1767.8,1615.7 1793.2,1622.4 1818.3,1629.4 1843.3,1636.8 1868.0,1644.4 1892.6,1652.3 1916.8,1660.5 1940.9,1668.9 1964.6,1677.5 1988.1,1686.3  Z" style="stroke-width: 0.5;  stroke: rgb(0,0,0); fill: rgb(179,177,178);" />
<path d="M 1515.629,977.734 A 522.500,522.500 0.00 0,1 1523.3,978.0 L 1523.3,978.0 1522.2,998.6 1520.7,1019.1 1518.8,1039.4 1516.4,1059.4 1513.6,1078.9 1510.3,1097.9 1506.5,1116.2 1502.2,1133.8 1497.3,1150.6 1491.9,1166.5 1486.0,1181.3 1479.5,1195.2 1472.5,1207.9 1465.0,1219.4 1456.9,1229.8 1448.3,1238.9 1439.1,1246.7 1429.4,1253.2 1419.2,1258.4 1408.5,1262.2 1397.4,1264.7 1385.8,1265.9 1373.7,1265.7 1361.3,1264.1 1348.4,1261.3 1335.2,1257.2 1321.7,1251.9 1308.0,1245.3 1293.9,1237.6 1279.7,1228.8 1265.3,1218.9 1250.7,1208.1 1236.1,1196.4 1221.5,1183.9 1206.9,1170.6 1192.4,1156.7 1178.0,1142.3 1163.8,1127.4 1149.8,1112.2  A 522.500,522.500 0.00 0,1 1155.7,1107.0 L 1155.7,1107.0 1169.4,1122.4 1183.3,1137.4 1197.4,1152.0 1211.7,1166.1 1226.0,1179.6 1240.3,1192.4 1254.6,1204.3 1268.8,1215.3 1282.9,1225.4 1296.8,1234.4 1310.5,1242.3 1324.0,1249.0 1337.1,1254.6 1349.9,1258.8 1362.4,1261.8 1374.5,1263.5 1386.2,1263.9 1397.4,1262.9 1408.2,1260.6 1418.5,1256.9 1428.3,1251.8 1437.6,1245.4 1446.4,1237.7 1454.6,1228.7 1462.3,1218.5 1469.5,1207.0 1476.1,1194.4 1482.2,1180.6 1487.7,1165.8 1492.7,1150.0 1497.2,1133.3 1501.2,1115.7 1504.6,1097.4 1507.6,1078.5 1510.0,1059.0 1512.1,1039.0 1513.7,1018.8 1514.8,998.3 1515.6,977.7  Z" style="stroke-width: 0.5;  stroke: rgb(0,0,0); fill: rgb(179,177,178);" />
<path d="M 1945.834,1227.534 A 522.500,522.500 0.00 0,1 1949.7,1234.0 L 1949.7,1234.0 1928.3,1246.4 1906.6,1258.7 1884.6,1270.7 1862.2,1282.5 1839.6,1294.0 1816.6,1305.2 1793.3,1316.1 1769.8,1326.7 1746.0,1336.9 1721.9,1346.7 1697.6,1356.1 1673.1,1365.1 1648.3,1373.7 1623.4,1381.8 1598.3,1389.5 1573.0,1396.7 1547.5,1403.4 1521.9,1409.7 1496.2,1415.4 1470.4,1420.7 1444.5,1425.5 1418.5,1429.7 1392.4,1433.5 1366.3,1436.8 1340.2,1439.6 1314.1,1441.9 1287.9,1443.7 1261.8,1445.0 1235.8,1445.9 1209.8,1446.2 1183.9,1446.2 1158.1,1445.7 1132.4,1444.8 1106.9,1443.5 1081.5,1441.7 1056.3,1439.6 1031.3,1437.2 1006.6,1434.4 982.0,1431.3  A 522.500,522.500 0.00 0,1 983.1,1423.7 L 983.1,1423.7 1007.5,1427.1 1032.1,1430.2 1057.0,1433.0 1082.1,1435.4 1107.4,1437.4 1132.8,1439.0 1158.4,1440.2 1184.1,1441.0 1209.9,1441.3 1235.8,1441.1 1261.8,1440.4 1287.8,1439.3 1313.9,1437.7 1339.9,1435.5 1366.0,1432.9 1392.0,1429.7 1418.0,1426.0 1443.9,1421.8 1469.7,1417.1 1495.4,1411.8 1521.1,1406.1 1546.6,1399.8 1571.9,1393.1 1597.1,1385.8 1622.1,1378.0 1646.9,1369.8 1671.5,1361.1 1695.9,1352.0 1720.1,1342.4 1744.0,1332.5 1767.6,1322.1 1791.0,1311.3 1814.1,1300.2 1836.9,1288.8 1859.3,1277.0 1881.5,1265.0 1903.3,1252.7 1924.7,1240.2 1945.8,1227.5  Z" style="stroke-width: 0.5;  stroke: rgb(0,0,0); fill: rgb(179,177,178);" />
</g>
<g id="plot0">
<g id="plot0-axis">
</g>
<line x1='2226.8' y1='1685.0' x2='2226.8' y2='1685.0' style="stroke-width:14.0;stroke:rgb(0,0,0);stroke-linecap:round;fill:none;" />
<line x1='2226.8' y1='1685.0' x2='2265.6' y2='1694.8' style="stroke-width:14.0;stroke:rgb(0,0,0);stroke-linecap:round;fill:none;" />
<line x1='2265.6' y1='1694.8' x2='2265.6' y2='1694.8' style="stroke-width:14.0;stroke:rgb(0,0,0);stroke-linecap:round;fill:none;" />
<text x="2279.1" y="1721.5" font-size="46.8px" font-family="CMUBright-Roman" style="text-anchor:start;fill:rgb(255,38,78);" transform="rotate(14.3,2279.1,1721.5)" >HistocapWGSS14<tspan baseline-shift="-40%" font-size="90%">s</tspan>01520</text>
</g>
<defs>
<pattern id="hline" width="10" height="10" patternTransform="rotate(0 0 0)" patternUnits="userSpaceOnUse"><line x1="0" y1="0" x2="10" y2="0" style="stroke:black;stroke-width:5" /></pattern>
<pattern id="hline-sparse" width="10" height="10" patternTransform="rotate(0 0 0)" patternUnits="userSpaceOnUse"><line x1="0" y1="0" x2="10" y2="0" style="stroke:black;stroke-width:2" /></pattern>
<pattern id="checker" width="10" height="10" patternTransform="rotate(45 0 0)" patternUnits="userSpaceOnUse"><line x1="0" y1="0" x2="10" y2="0" style="stroke:black;stroke-width:5" /><line x1="0" y1="0" x2="0" y2="10" style="stroke:black;stroke-width:4" /></pattern>
<pattern id="vline" width="10" height="10" patternTransform="rotate(0 0 0)" patternUnits="userSpaceOnUse"><line x1="0" y1="0" x2="0" y2="10" style="stroke:black;stroke-width:5" /></pattern>
<pattern id="vline-sparse" width="10" height="10" patternTransform="rotate(0 0 0)" patternUnits="userSpaceOnUse"><line x1="0" y1="0" x2="0" y2="10" style="stroke:black;stroke-width:2" /></pattern>
<pattern id="checker" width="10" height="10" patternTransform="rotate(45 0 0)" patternUnits="userSpaceOnUse"><line x1="0" y1="0" x2="10" y2="0" style="stroke:black;stroke-width:2" /><line x1="0" y1="0" x2="0" y2="10" style="stroke:black;stroke-width:2" /></pattern>
</defs>
</svg>
