<?xml version="1.0" encoding="utf-8" standalone="no"?>
<!DOCTYPE svg PUBLIC "-//W3C//DTD SVG 1.1//EN" "http://www.w3.org/Graphics/SVG/1.1/DTD/svg11.dtd">
<svg width="3000px" height="3000px" version="1.1" xmlns="http://www.w3.org/2000/svg" xmlns:xlink="http://www.w3.org/1999/xlink">
<g id="bg">
<rect x="0" y="0" width="3000px" height="3000px" style="fill:rgb(255,255,255);"/>
</g>
<g id="ideograms">
<path d="M1500.000,950.000 A550.000,550.000 40.000 0,1 1667.703,2023.809 L1728.685,2214.285 A750.000,750.000 0.000 0,0 1500.000,750.000 Z" style="stroke-width:2.0;stroke:rgb(0,0,0);stroke-linecap:round;fill:rgb(179,177,178);" />
<text x="2463.3" y="1349.6" font-size="46.8px" font-family="CMUBright-Roman" style="text-anchor:middle;fill:rgb(0,0,0);" transform="rotate(441.1,2463.3,1349.6)" >HistocapES283Z<tspan baseline-shift="-40%" font-size="90%">3</tspan></text>
<line x1='1505.7' y1='750.0' x2='1505.8' y2='738.0' style="stroke-width:8.0;stroke:rgb(150,150,150);stroke-linecap:round;fill:none;" />
<line x1='1604.8' y1='757.4' x2='1606.5' y2='745.5' style="stroke-width:8.0;stroke:rgb(150,150,150);stroke-linecap:round;fill:none;" />
<line x1='1702.1' y1='777.7' x2='1705.3' y2='766.2' style="stroke-width:8.0;stroke:rgb(150,150,150);stroke-linecap:round;fill:none;" />
<line x1='1795.9' y1='810.8' x2='1800.6' y2='799.8' style="stroke-width:8.0;stroke:rgb(150,150,150);stroke-linecap:round;fill:none;" />
<line x1='1884.4' y1='856.0' x2='1890.6' y2='845.7' style="stroke-width:8.0;stroke:rgb(150,150,150);stroke-linecap:round;fill:none;" />
<text x="1908.7" y="842.7" font-size="41.6px" font-family="CMUBright-Roman" style="text-anchor:start;fill:rgb(150,150,150);" transform="rotate(300.8,1908.7,842.7)" >1750 kb</text>
<line x1='1966.2' y1='912.5' x2='1973.7' y2='903.1' style="stroke-width:8.0;stroke:rgb(150,150,150);stroke-linecap:round;fill:none;" />
<line x1='2039.8' y1='979.3' x2='2048.5' y2='971.0' style="stroke-width:8.0;stroke:rgb(150,150,150);stroke-linecap:round;fill:none;" />
<line x1='2103.9' y1='1055.3' x2='2113.6' y2='1048.2' style="stroke-width:8.0;stroke:rgb(150,150,150);stroke-linecap:round;fill:none;" />
<line x1='2157.5' y1='1139.1' x2='2168.0' y2='1133.3' style="stroke-width:8.0;stroke:rgb(150,150,150);stroke-linecap:round;fill:none;" />
<line x1='2199.4' y1='1229.2' x2='2210.6' y2='1224.9' style="stroke-width:8.0;stroke:rgb(150,150,150);stroke-linecap:round;fill:none;" />
<text x="2226.7" y="1233.7" font-size="41.6px" font-family="CMUBright-Roman" style="text-anchor:start;fill:rgb(150,150,150);" transform="rotate(338.8,2226.7,1233.7)" >1800 kb</text>
<line x1='2229.1' y1='1324.1' x2='2240.7' y2='1321.3' style="stroke-width:8.0;stroke:rgb(150,150,150);stroke-linecap:round;fill:none;" />
<line x1='2245.9' y1='1422.1' x2='2257.9' y2='1420.8' style="stroke-width:8.0;stroke:rgb(150,150,150);stroke-linecap:round;fill:none;" />
<line x1='2249.7' y1='1521.4' x2='2261.7' y2='1521.8' style="stroke-width:8.0;stroke:rgb(150,150,150);stroke-linecap:round;fill:none;" />
<line x1='2240.3' y1='1620.4' x2='2252.1' y2='1622.3' style="stroke-width:8.0;stroke:rgb(150,150,150);stroke-linecap:round;fill:none;" />
<line x1='2217.8' y1='1717.2' x2='2229.3' y2='1720.7' style="stroke-width:8.0;stroke:rgb(150,150,150);stroke-linecap:round;fill:none;" />
<text x="2236.6" y="1737.6" font-size="41.6px" font-family="CMUBright-Roman" style="text-anchor:start;fill:rgb(150,150,150);" transform="rotate(16.8,2236.6,1737.6)" >1850 kb</text>
<line x1='2182.8' y1='1810.3' x2='2193.7' y2='1815.2' style="stroke-width:8.0;stroke:rgb(150,150,150);stroke-linecap:round;fill:none;" />
<line x1='2135.8' y1='1897.9' x2='2145.9' y2='1904.2' style="stroke-width:8.0;stroke:rgb(150,150,150);stroke-linecap:round;fill:none;" />
<line x1='2077.6' y1='1978.5' x2='2086.8' y2='1986.1' style="stroke-width:8.0;stroke:rgb(150,150,150);stroke-linecap:round;fill:none;" />
<line x1='2009.2' y1='2050.6' x2='2017.3' y2='2059.5' style="stroke-width:8.0;stroke:rgb(150,150,150);stroke-linecap:round;fill:none;" />
<line x1='1931.9' y1='2113.2' x2='1938.8' y2='2123.0' style="stroke-width:8.0;stroke:rgb(150,150,150);stroke-linecap:round;fill:none;" />
<text x="1934.2" y="2140.7" font-size="41.6px" font-family="CMUBright-Roman" style="text-anchor:start;fill:rgb(150,150,150);" transform="rotate(54.8,1934.2,2140.7)" >1900 kb</text>
<line x1='1847.0' y1='2164.9' x2='1852.6' y2='2175.5' style="stroke-width:8.0;stroke:rgb(150,150,150);stroke-linecap:round;fill:none;" />
<line x1='1756.0' y1='2205.0' x2='1760.1' y2='2216.2' style="stroke-width:8.0;stroke:rgb(150,150,150);stroke-linecap:round;fill:none;" />
<g id="highlighttrack_0">
<path d="M2033.672,1366.979 A550.000,550.000 40.000 0,1 2048.818,1463.962 L2248.388,1450.858 A750.000,750.000 0.000 0,0 2227.734,1318.608 Z" style="stroke-width:14.0;stroke:rgb(0,0,0);stroke-linecap:round;fill:rgb(255,38,78);" />
</g>
<path d="M1500.000,950.000 A550.000,550.000 40.000 0,1 1667.703,2023.809 L1728.685,2214.285 A750.000,750.000 0.000 0,0 1500.000,750.000 Z" style="stroke-width:2.0;stroke:rgb(0,0,0);stroke-linecap:round;fill:none;" />
<path d="M1451.604,2047.867 A550.000,550.000 40.000 0,1 1286.856,992.980 L1209.349,808.609 A750.000,750.000 0.000 0,0 1434.005,2247.091 Z" style="stroke-width:2.0;stroke:rgb(0,0,0);stroke-linecap:round;fill:rgb(179,177,178);" />
<text x="492.2" y="1657.4" font-size="46.8px" font-family="CMUBright-Roman" style="text-anchor:middle;fill:rgb(0,0,0);" transform="rotate(81.1,492.2,1657.4)" >Histocap19VMG15<tspan baseline-shift="-40%" font-size="90%">3</tspan></text>
<line x1='1385.5' y1='2241.2' x2='1383.6' y2='2253.1' style="stroke-width:8.0;stroke:rgb(150,150,150);stroke-linecap:round;fill:none;" />
<line x1='1288.5' y1='2219.5' x2='1285.1' y2='2231.1' style="stroke-width:8.0;stroke:rgb(150,150,150);stroke-linecap:round;fill:none;" />
<text x="1295.1" y="2246.4" font-size="41.6px" font-family="CMUBright-Roman" style="text-anchor:end;fill:rgb(150,150,150);" transform="rotate(-73.6,1295.1,2246.4)" >1350 kb</text>
<line x1='1195.1' y1='2185.2' x2='1190.3' y2='2196.2' style="stroke-width:8.0;stroke:rgb(150,150,150);stroke-linecap:round;fill:none;" />
<line x1='1107.2' y1='2138.9' x2='1100.9' y2='2149.1' style="stroke-width:8.0;stroke:rgb(150,150,150);stroke-linecap:round;fill:none;" />
<line x1='1026.1' y1='2081.3' x2='1018.6' y2='2090.6' style="stroke-width:8.0;stroke:rgb(150,150,150);stroke-linecap:round;fill:none;" />
<line x1='953.4' y1='2013.6' x2='944.7' y2='2021.8' style="stroke-width:8.0;stroke:rgb(150,150,150);stroke-linecap:round;fill:none;" />
<line x1='890.3' y1='1936.7' x2='880.5' y2='1943.7' style="stroke-width:8.0;stroke:rgb(150,150,150);stroke-linecap:round;fill:none;" />
<text x="879.0" y="1962.0" font-size="41.6px" font-family="CMUBright-Roman" style="text-anchor:end;fill:rgb(150,150,150);" transform="rotate(-35.6,879.0,1962.0)" >1400 kb</text>
<line x1='837.9' y1='1852.3' x2='827.3' y2='1857.9' style="stroke-width:8.0;stroke:rgb(150,150,150);stroke-linecap:round;fill:none;" />
<line x1='797.1' y1='1761.6' x2='785.9' y2='1765.8' style="stroke-width:8.0;stroke:rgb(150,150,150);stroke-linecap:round;fill:none;" />
<line x1='768.7' y1='1666.3' x2='757.0' y2='1669.0' style="stroke-width:8.0;stroke:rgb(150,150,150);stroke-linecap:round;fill:none;" />
<line x1='753.1' y1='1568.1' x2='741.2' y2='1569.2' style="stroke-width:8.0;stroke:rgb(150,150,150);stroke-linecap:round;fill:none;" />
<line x1='750.7' y1='1468.8' x2='738.7' y2='1468.3' style="stroke-width:8.0;stroke:rgb(150,150,150);stroke-linecap:round;fill:none;" />
<text x="726.2" y="1481.8" font-size="41.6px" font-family="CMUBright-Roman" style="text-anchor:end;fill:rgb(150,150,150);" transform="rotate(2.4,726.2,1481.8)" >1450 kb</text>
<line x1='761.4' y1='1369.9' x2='749.5' y2='1367.8' style="stroke-width:8.0;stroke:rgb(150,150,150);stroke-linecap:round;fill:none;" />
<line x1='785.1' y1='1273.4' x2='773.6' y2='1269.7' style="stroke-width:8.0;stroke:rgb(150,150,150);stroke-linecap:round;fill:none;" />
<line x1='821.3' y1='1180.8' x2='810.5' y2='1175.7' style="stroke-width:8.0;stroke:rgb(150,150,150);stroke-linecap:round;fill:none;" />
<line x1='869.5' y1='1093.8' x2='859.4' y2='1087.3' style="stroke-width:8.0;stroke:rgb(150,150,150);stroke-linecap:round;fill:none;" />
<line x1='928.8' y1='1014.0' x2='919.6' y2='1006.2' style="stroke-width:8.0;stroke:rgb(150,150,150);stroke-linecap:round;fill:none;" />
<text x="901.5" y="1009.2" font-size="41.6px" font-family="CMUBright-Roman" style="text-anchor:end;fill:rgb(150,150,150);" transform="rotate(40.4,901.5,1009.2)" >1500 kb</text>
<line x1='998.1' y1='942.7' x2='990.0' y2='933.8' style="stroke-width:8.0;stroke:rgb(150,150,150);stroke-linecap:round;fill:none;" />
<line x1='1076.2' y1='881.2' x2='1069.4' y2='871.3' style="stroke-width:8.0;stroke:rgb(150,150,150);stroke-linecap:round;fill:none;" />
<line x1='1161.7' y1='830.6' x2='1156.3' y2='819.9' style="stroke-width:8.0;stroke:rgb(150,150,150);stroke-linecap:round;fill:none;" />
<path d="M1451.604,2047.867 A550.000,550.000 40.000 0,1 1286.856,992.980 L1209.349,808.609 A750.000,750.000 0.000 0,0 1434.005,2247.091 Z" style="stroke-width:2.0;stroke:rgb(0,0,0);stroke-linecap:round;fill:none;" />
</g>
<g id="track_0">
<path d="M 1787.782,1063.895 A 522.500,522.500 0.00 0,1 1916.1,1184.0 L 1916.1,1184.0 1895.3,1199.9 1874.5,1215.9 1853.6,1232.1 1832.8,1248.3 1812.0,1264.8 1791.2,1281.3 1770.5,1298.0 1749.8,1314.8 1729.1,1331.8 1708.5,1348.9 1687.9,1366.1 1667.4,1383.4 1647.0,1400.9 1626.6,1418.5 1606.3,1436.2 1586.1,1454.1 1566.0,1472.1 1546.0,1490.1 1526.1,1508.3 1506.2,1526.6 1486.5,1545.1 1466.9,1563.6 1447.4,1582.2 1428.0,1600.9 1408.7,1619.7 1389.5,1638.6 1370.5,1657.6 1351.5,1676.6 1332.7,1695.8 1314.0,1714.9 1295.5,1734.2 1277.1,1753.5 1258.8,1772.9 1240.6,1792.2 1222.6,1811.7 1204.7,1831.1 1187.0,1850.6 1169.3,1870.1 1151.8,1889.6  A 522.500,522.500 0.00 0,0 1300.9,1983.1 L 1300.9,1983.1 1310.9,1958.9 1321.0,1934.6 1331.3,1910.4 1341.8,1886.1 1352.3,1861.8 1363.0,1837.4 1373.8,1813.1 1384.8,1788.8 1395.9,1764.5 1407.2,1740.2 1418.6,1715.9 1430.1,1691.7 1441.8,1667.4 1453.6,1643.2 1465.5,1619.1 1477.6,1595.0 1489.9,1571.0 1502.2,1547.0 1514.7,1523.1 1527.4,1499.2 1540.1,1475.5 1553.0,1451.7 1566.0,1428.1 1579.2,1404.6 1592.4,1381.1 1605.8,1357.8 1619.3,1334.5 1632.9,1311.3 1646.6,1288.3 1660.3,1265.3 1674.2,1242.5 1688.2,1219.7 1702.2,1197.1 1716.3,1174.6 1730.5,1152.2 1744.8,1129.9 1759.0,1107.8 1773.4,1085.8 1787.8,1063.9  Z" style="stroke-width: 0.5;  stroke: rgb(0,0,0); fill: rgb(179,177,178);" />
<path d="M 1554.352,980.335 A 522.500,522.500 0.00 0,1 1709.0,1021.1 L 1709.0,1021.1 1698.6,1045.1 1688.2,1069.3 1677.9,1093.6 1667.6,1117.9 1657.5,1142.4 1647.4,1167.0 1637.5,1191.7 1627.6,1216.5 1617.8,1241.4 1608.2,1266.3 1598.6,1291.4 1589.2,1316.6 1579.9,1341.8 1570.7,1367.1 1561.6,1392.4 1552.7,1417.9 1543.9,1443.4 1535.2,1468.9 1526.7,1494.5 1518.3,1520.2 1510.1,1545.9 1502.0,1571.6 1494.0,1597.4 1486.2,1623.2 1478.5,1649.0 1471.0,1674.9 1463.6,1700.7 1456.4,1726.6 1449.3,1752.4 1442.4,1778.3 1435.5,1804.1 1428.9,1830.0 1422.3,1855.8 1415.9,1881.6 1409.7,1907.3 1403.5,1933.0 1397.5,1958.7 1391.6,1984.3 1385.8,2009.9  A 522.500,522.500 0.00 0,0 1454.0,2020.5 L 1454.0,2020.5 1456.4,1993.8 1458.7,1967.2 1461.1,1940.5 1463.5,1913.9 1465.9,1887.2 1468.3,1860.5 1470.7,1833.9 1473.2,1807.2 1475.6,1780.5 1478.1,1753.8 1480.5,1727.1 1483.0,1700.4 1485.5,1673.7 1488.0,1647.0 1490.5,1620.3 1493.0,1593.6 1495.6,1566.9 1498.1,1540.2 1500.7,1513.5 1503.3,1486.8 1505.8,1460.1 1508.4,1433.5 1511.1,1406.8 1513.7,1380.1 1516.3,1353.4 1519.0,1326.7 1521.6,1300.0 1524.3,1273.4 1527.0,1246.7 1529.7,1220.0 1532.4,1193.4 1535.1,1166.7 1537.8,1140.1 1540.5,1113.4 1543.3,1086.8 1546.0,1060.2 1548.8,1033.5 1551.6,1006.9 1554.4,980.3  Z" style="stroke-width: 0.5;  stroke: rgb(0,0,0); fill: rgb(179,177,178);" />
<path d="M 2004.700,1635.221 A 522.500,522.500 0.00 0,1 1955.0,1756.8 L 1955.0,1756.8 1931.9,1743.8 1908.7,1730.8 1885.5,1717.8 1862.2,1704.9 1838.9,1691.9 1815.5,1679.0 1792.0,1666.2 1768.5,1653.3 1745.0,1640.5 1721.4,1627.8 1697.8,1615.1 1674.1,1602.4 1650.4,1589.8 1626.7,1577.2 1602.9,1564.7 1579.1,1552.2 1555.2,1539.8 1531.3,1527.4 1507.4,1515.1 1483.4,1502.8 1459.5,1490.6 1435.5,1478.5 1411.4,1466.4 1387.4,1454.3 1363.3,1442.4 1339.2,1430.5 1315.1,1418.6 1291.0,1406.8 1266.9,1395.1 1242.7,1383.4 1218.6,1371.8 1194.4,1360.3 1170.3,1348.8 1146.2,1337.4 1122.0,1326.0 1097.9,1314.7 1073.8,1303.4 1049.7,1292.2 1025.6,1281.1  A 522.500,522.500 0.00 0,0 985.8,1407.2 L 985.8,1407.2 1011.9,1411.9 1038.1,1416.7 1064.2,1421.6 1090.4,1426.4 1116.6,1431.4 1142.9,1436.4 1169.1,1441.5 1195.4,1446.6 1221.7,1451.8 1248.0,1457.0 1274.3,1462.3 1300.6,1467.7 1326.9,1473.1 1353.2,1478.6 1379.5,1484.2 1405.8,1489.8 1432.1,1495.5 1458.4,1501.3 1484.6,1507.1 1510.9,1512.9 1537.1,1518.9 1563.4,1524.9 1589.6,1530.9 1615.8,1537.1 1641.9,1543.3 1668.1,1549.5 1694.2,1555.8 1720.3,1562.1 1746.3,1568.6 1772.3,1575.0 1798.3,1581.5 1824.3,1588.1 1850.2,1594.7 1876.0,1601.3 1901.9,1608.0 1927.6,1614.8 1953.4,1621.6 1979.1,1628.4 2004.7,1635.2  Z" style="stroke-width: 0.5;  stroke: rgb(0,0,0); fill: rgb(179,177,178);" />
<path d="M 1889.378,1848.412 A 522.500,522.500 0.00 0,1 1809.7,1920.8 L 1809.7,1920.8 1794.0,1899.6 1778.3,1878.4 1762.5,1857.2 1746.5,1836.0 1730.4,1814.9 1714.3,1793.7 1698.0,1772.6 1681.7,1751.4 1665.2,1730.3 1648.6,1709.3 1631.9,1688.3 1615.2,1667.3 1598.3,1646.4 1581.3,1625.5 1564.2,1604.7 1547.1,1583.9 1529.8,1563.2 1512.5,1542.6 1495.0,1522.0 1477.5,1501.5 1459.9,1481.1 1442.2,1460.7 1424.4,1440.5 1406.6,1420.3 1388.6,1400.2 1370.6,1380.2 1352.6,1360.3 1334.5,1340.5 1316.3,1320.7 1298.1,1301.1 1279.8,1281.6 1261.4,1262.1 1243.1,1242.8 1224.7,1223.5 1206.2,1204.4 1187.8,1185.3 1169.3,1166.4 1150.8,1147.5 1132.3,1128.8  A 522.500,522.500 0.00 0,0 1063.9,1212.2 L 1063.9,1212.2 1085.9,1226.7 1107.9,1241.4 1129.8,1256.1 1151.8,1270.9 1173.8,1285.9 1195.8,1301.0 1217.7,1316.1 1239.6,1331.4 1261.5,1346.8 1283.4,1362.3 1305.2,1377.8 1327.0,1393.5 1348.8,1409.3 1370.5,1425.2 1392.2,1441.2 1413.8,1457.3 1435.3,1473.5 1456.8,1489.7 1478.3,1506.1 1499.6,1522.6 1520.9,1539.1 1542.1,1555.8 1563.3,1572.5 1584.3,1589.3 1605.3,1606.2 1626.2,1623.1 1647.0,1640.1 1667.7,1657.2 1688.4,1674.4 1708.9,1691.6 1729.3,1708.9 1749.7,1726.2 1769.9,1743.5 1790.1,1760.9 1810.2,1778.4 1830.1,1795.9 1850.0,1813.4 1869.7,1830.9 1889.4,1848.4  Z" style="stroke-width: 0.5;  stroke: rgb(0,0,0); fill: rgb(179,177,178);" />
<path d="M 1710.236,1021.662 A 522.500,522.500 0.00 0,1 1786.7,1063.2 L 1786.7,1063.2 1772.4,1085.1 1758.1,1107.2 1743.9,1129.4 1729.7,1151.7 1715.5,1174.1 1701.5,1196.6 1687.5,1219.3 1673.5,1242.1 1659.7,1264.9 1646.0,1287.9 1632.3,1311.0 1618.8,1334.2 1605.3,1357.5 1592.0,1380.9 1578.8,1404.3 1565.7,1427.9 1552.7,1451.5 1539.8,1475.3 1527.1,1499.1 1514.5,1522.9 1502.0,1546.9 1489.7,1570.9 1477.5,1594.9 1465.4,1619.0 1453.5,1643.2 1441.7,1667.3 1430.0,1691.6 1418.5,1715.8 1407.1,1740.1 1395.9,1764.4 1384.8,1788.7 1373.8,1813.1 1363.0,1837.4 1352.3,1861.7 1341.8,1886.0 1331.4,1910.3 1321.1,1934.6 1310.9,1958.9 1300.9,1983.1  A 522.500,522.500 0.00 0,0 1383.7,2009.4 L 1383.7,2009.4 1389.6,1983.9 1395.6,1958.3 1401.7,1932.6 1408.0,1906.9 1414.4,1881.2 1420.9,1855.4 1427.5,1829.7 1434.3,1803.8 1441.2,1778.0 1448.2,1752.2 1455.4,1726.4 1462.8,1700.5 1470.2,1674.7 1477.9,1648.9 1485.6,1623.1 1493.5,1597.3 1501.6,1571.6 1509.8,1545.9 1518.1,1520.2 1526.6,1494.6 1535.2,1469.0 1543.9,1443.5 1552.8,1418.0 1561.8,1392.6 1570.9,1367.2 1580.2,1342.0 1589.6,1316.8 1599.1,1291.7 1608.7,1266.6 1618.5,1241.7 1628.3,1216.8 1638.2,1192.1 1648.3,1167.4 1658.4,1142.8 1668.6,1118.4 1678.9,1094.0 1689.3,1069.8 1699.7,1045.7 1710.2,1021.7  Z" style="stroke-width: 0.5;  stroke: rgb(0,0,0); fill: rgb(179,177,178);" />
<path d="M 1807.622,1922.344 A 522.500,522.500 0.00 0,1 1748.1,1959.8 L 1748.1,1959.8 1735.6,1936.7 1722.9,1913.5 1710.2,1890.3 1697.3,1867.1 1684.4,1843.9 1671.3,1820.7 1658.1,1797.6 1644.8,1774.4 1631.5,1751.2 1617.9,1728.1 1604.3,1705.0 1590.6,1681.9 1576.8,1658.8 1562.8,1635.8 1548.8,1612.8 1534.6,1589.9 1520.4,1567.0 1506.0,1544.2 1491.5,1521.5 1477.0,1498.8 1462.3,1476.1 1447.6,1453.5 1432.7,1431.1 1417.8,1408.6 1402.7,1386.3 1387.6,1364.0 1372.5,1341.8 1357.2,1319.7 1341.8,1297.7 1326.4,1275.8 1311.0,1254.0 1295.4,1232.2 1279.9,1210.6 1264.2,1189.0 1248.5,1167.6 1232.8,1146.2 1217.0,1125.0 1201.3,1103.8 1185.4,1082.8  A 522.500,522.500 0.00 0,0 1132.3,1128.8 L 1132.3,1128.8 1150.8,1147.5 1169.3,1166.4 1187.7,1185.3 1206.2,1204.4 1224.6,1223.5 1243.0,1242.8 1261.3,1262.1 1279.6,1281.6 1297.9,1301.1 1316.1,1320.8 1334.3,1340.5 1352.4,1360.4 1370.4,1380.3 1388.4,1400.4 1406.2,1420.5 1424.1,1440.7 1441.8,1461.0 1459.4,1481.4 1477.0,1501.9 1494.5,1522.4 1511.9,1543.0 1529.2,1563.7 1546.4,1584.4 1563.5,1605.3 1580.5,1626.1 1597.4,1647.1 1614.2,1668.0 1630.9,1689.1 1647.5,1710.2 1664.0,1731.3 1680.4,1752.4 1696.7,1773.6 1712.8,1794.8 1728.9,1816.1 1744.9,1837.3 1760.7,1858.6 1776.5,1879.8 1792.1,1901.1 1807.6,1922.3  Z" style="stroke-width: 0.5;  stroke: rgb(0,0,0); fill: rgb(179,177,178);" />
<path d="M 1916.756,1184.848 A 522.500,522.500 0.00 0,1 1943.3,1223.4 L 1943.3,1223.4 1921.1,1237.3 1898.9,1251.3 1876.7,1265.5 1854.4,1279.8 1832.2,1294.3 1810.0,1308.9 1787.9,1323.6 1765.7,1338.5 1743.6,1353.5 1721.5,1368.6 1699.4,1383.9 1677.5,1399.3 1655.5,1414.8 1633.7,1430.5 1611.8,1446.3 1590.1,1462.3 1568.4,1478.4 1546.9,1494.6 1525.4,1510.9 1504.0,1527.3 1482.7,1543.9 1461.4,1560.6 1440.3,1577.3 1419.3,1594.2 1398.4,1611.2 1377.6,1628.3 1357.0,1645.5 1336.4,1662.8 1315.9,1680.1 1295.6,1697.6 1275.4,1715.1 1255.4,1732.7 1235.4,1750.3 1215.6,1768.0 1195.9,1785.7 1176.4,1803.5 1156.9,1821.3 1137.6,1839.1 1118.5,1857.0  A 522.500,522.500 0.00 0,0 1151.4,1889.2 L 1151.4,1889.2 1168.9,1869.7 1186.5,1850.2 1204.3,1830.8 1222.2,1811.4 1240.3,1791.9 1258.5,1772.6 1276.8,1753.3 1295.2,1734.0 1313.8,1714.7 1332.5,1695.6 1351.3,1676.5 1370.3,1657.5 1389.4,1638.5 1408.6,1619.7 1427.9,1600.9 1447.3,1582.2 1466.8,1563.6 1486.5,1545.1 1506.3,1526.7 1526.1,1508.5 1546.1,1490.3 1566.1,1472.2 1586.3,1454.3 1606.5,1436.5 1626.8,1418.8 1647.2,1401.2 1667.7,1383.8 1688.2,1366.5 1708.8,1349.3 1729.4,1332.2 1750.1,1315.3 1770.9,1298.5 1791.7,1281.9 1812.5,1265.4 1833.3,1249.0 1854.2,1232.8 1875.0,1216.7 1895.9,1200.7 1916.8,1184.8  Z" style="stroke-width: 0.5;  stroke: rgb(0,0,0); fill: rgb(179,177,178);" />
<path d="M 1953.475,1240.449 A 522.500,522.500 0.00 0,1 1973.3,1278.7 L 1973.3,1278.7 1949.6,1289.9 1925.8,1301.2 1902.1,1312.6 1878.2,1324.1 1854.4,1335.7 1830.6,1347.5 1806.8,1359.4 1783.0,1371.5 1759.2,1383.7 1735.4,1396.0 1711.7,1408.5 1687.9,1421.1 1664.3,1433.8 1640.6,1446.6 1617.0,1459.6 1593.5,1472.8 1570.0,1486.0 1546.6,1499.4 1523.2,1512.9 1499.9,1526.5 1476.7,1540.3 1453.5,1554.2 1430.5,1568.2 1407.5,1582.3 1384.6,1596.5 1361.8,1610.8 1339.1,1625.2 1316.5,1639.7 1294.0,1654.3 1271.7,1669.0 1249.4,1683.8 1227.2,1698.7 1205.1,1713.6 1183.2,1728.6 1161.4,1743.6 1139.7,1758.7 1118.1,1773.9 1096.6,1789.1 1075.3,1804.3  A 522.500,522.500 0.00 0,0 1101.9,1838.4 L 1101.9,1838.4 1121.9,1821.5 1142.1,1804.6 1162.3,1787.7 1182.7,1770.8 1203.2,1754.0 1223.8,1737.2 1244.6,1720.5 1265.4,1703.9 1286.4,1687.3 1307.5,1670.8 1328.7,1654.4 1350.1,1638.1 1371.5,1621.8 1393.0,1605.7 1414.6,1589.6 1436.4,1573.7 1458.2,1557.8 1480.1,1542.1 1502.1,1526.5 1524.2,1511.0 1546.4,1495.6 1568.6,1480.3 1590.9,1465.2 1613.3,1450.1 1635.7,1435.2 1658.2,1420.5 1680.8,1405.8 1703.4,1391.3 1726.0,1377.0 1748.7,1362.7 1771.4,1348.6 1794.2,1334.6 1816.9,1320.8 1839.7,1307.1 1862.5,1293.5 1885.2,1280.0 1908.0,1266.7 1930.7,1253.5 1953.5,1240.4  Z" style="stroke-width: 0.5;  stroke: rgb(0,0,0); fill: rgb(179,177,178);" />
<path d="M 1995.459,1334.089 A 522.500,522.500 0.00 0,1 2007.0,1373.6 L 2007.0,1373.6 1981.2,1380.0 1955.5,1386.4 1929.6,1392.7 1903.7,1399.0 1877.8,1405.2 1851.8,1411.4 1825.8,1417.5 1799.7,1423.6 1773.6,1429.6 1747.5,1435.6 1721.3,1441.5 1695.1,1447.4 1668.9,1453.2 1642.7,1458.9 1616.4,1464.6 1590.1,1470.2 1563.7,1475.8 1537.4,1481.3 1511.0,1486.7 1484.7,1492.0 1458.3,1497.3 1431.9,1502.5 1405.5,1507.7 1379.0,1512.8 1352.6,1517.8 1326.2,1522.7 1299.8,1527.6 1273.4,1532.4 1247.0,1537.2 1220.6,1541.9 1194.2,1546.5 1167.8,1551.1 1141.5,1555.5 1115.1,1560.0 1088.8,1564.3 1062.5,1568.7 1036.3,1572.9 1010.1,1577.1 983.9,1581.3  A 522.500,522.500 0.00 0,0 991.9,1621.8 L 991.9,1621.8 1017.7,1615.6 1043.5,1609.3 1069.3,1603.0 1095.2,1596.6 1121.1,1590.2 1147.0,1583.7 1172.9,1577.1 1198.8,1570.5 1224.8,1563.8 1250.7,1557.1 1276.6,1550.2 1302.6,1543.4 1328.5,1536.4 1354.5,1529.4 1380.4,1522.3 1406.4,1515.1 1432.3,1507.9 1458.2,1500.6 1484.1,1493.3 1510.0,1485.9 1535.8,1478.4 1561.6,1470.8 1587.4,1463.2 1613.2,1455.6 1639.0,1447.8 1664.7,1440.0 1690.4,1432.2 1716.0,1424.3 1741.7,1416.3 1767.2,1408.3 1792.8,1400.2 1818.3,1392.1 1843.7,1383.9 1869.2,1375.7 1894.5,1367.5 1919.8,1359.2 1945.1,1350.9 1970.3,1342.5 1995.5,1334.1  Z" style="stroke-width: 0.5;  stroke: rgb(0,0,0); fill: rgb(179,177,178);" />
<path d="M 2021.963,1523.675 A 522.500,522.500 0.00 0,1 2019.1,1559.7 L 2019.1,1559.7 1992.7,1556.7 1966.3,1553.7 1939.9,1550.8 1913.4,1547.9 1886.8,1545.1 1860.3,1542.3 1833.7,1539.5 1807.0,1536.9 1780.4,1534.2 1753.7,1531.7 1727.0,1529.1 1700.3,1526.7 1673.5,1524.3 1646.7,1522.0 1620.0,1519.7 1593.1,1517.5 1566.3,1515.3 1539.5,1513.2 1512.7,1511.2 1485.8,1509.2 1459.0,1507.3 1432.1,1505.5 1405.3,1503.7 1378.5,1502.0 1351.6,1500.4 1324.8,1498.8 1298.0,1497.3 1271.2,1495.9 1244.4,1494.5 1217.6,1493.1 1190.9,1491.9 1164.1,1490.6 1137.4,1489.5 1110.7,1488.4 1084.1,1487.3 1057.4,1486.3 1030.8,1485.4 1004.3,1484.5 977.8,1483.6  A 522.500,522.500 0.00 0,0 977.9,1519.6 L 977.9,1519.6 1004.4,1518.6 1030.9,1517.7 1057.5,1516.8 1084.2,1515.9 1110.8,1515.2 1137.5,1514.4 1164.3,1513.7 1191.0,1513.1 1217.8,1512.5 1244.6,1512.0 1271.4,1511.6 1298.3,1511.2 1325.1,1510.8 1352.0,1510.6 1378.9,1510.4 1405.8,1510.2 1432.7,1510.1 1459.6,1510.1 1486.5,1510.1 1513.4,1510.3 1540.3,1510.4 1567.2,1510.7 1594.1,1511.0 1621.0,1511.3 1647.9,1511.7 1674.8,1512.2 1701.6,1512.8 1728.5,1513.4 1755.3,1514.0 1782.1,1514.8 1808.9,1515.5 1835.6,1516.4 1862.3,1517.3 1889.0,1518.2 1915.7,1519.2 1942.3,1520.3 1968.9,1521.4 1995.5,1522.5 2022.0,1523.7  Z" style="stroke-width: 0.5;  stroke: rgb(0,0,0); fill: rgb(179,177,178);" />
<path d="M 2010.983,1609.097 A 522.500,522.500 0.00 0,1 2005.0,1634.1 L 2005.0,1634.1 1979.4,1627.3 1953.6,1620.5 1927.9,1613.8 1902.1,1607.1 1876.3,1600.5 1850.4,1593.9 1824.4,1587.3 1798.5,1580.8 1772.5,1574.3 1746.5,1567.9 1720.4,1561.6 1694.3,1555.3 1668.2,1549.0 1642.0,1542.8 1615.9,1536.7 1589.7,1530.6 1563.4,1524.6 1537.2,1518.6 1511.0,1512.7 1484.7,1506.9 1458.4,1501.1 1432.1,1495.4 1405.8,1489.8 1379.5,1484.2 1353.2,1478.7 1326.9,1473.2 1300.6,1467.8 1274.3,1462.5 1248.0,1457.2 1221.7,1452.0 1195.4,1446.8 1169.1,1441.7 1142.8,1436.7 1116.6,1431.7 1090.4,1426.8 1064.2,1421.9 1038.0,1417.1 1011.9,1412.3 985.7,1407.6  A 522.500,522.500 0.00 0,0 981.8,1433.0 L 981.8,1433.0 1008.1,1436.5 1034.5,1439.9 1060.9,1443.5 1087.3,1447.0 1113.7,1450.7 1140.2,1454.3 1166.6,1458.1 1193.1,1461.9 1219.6,1465.7 1246.2,1469.6 1272.7,1473.6 1299.2,1477.7 1325.8,1481.8 1352.3,1485.9 1378.9,1490.1 1405.4,1494.4 1432.0,1498.8 1458.5,1503.2 1485.0,1507.7 1511.6,1512.2 1538.1,1516.8 1564.6,1521.5 1591.1,1526.2 1617.5,1531.0 1644.0,1535.8 1670.4,1540.7 1696.8,1545.7 1723.2,1550.7 1749.5,1555.8 1775.8,1560.9 1802.1,1566.1 1828.3,1571.3 1854.6,1576.6 1880.7,1581.9 1906.9,1587.2 1933.0,1592.6 1959.0,1598.1 1985.0,1603.6 2011.0,1609.1  Z" style="stroke-width: 0.5;  stroke: rgb(0,0,0); fill: rgb(179,177,178);" />
<path d="M 2022.498,1501.428 A 522.500,522.500 0.00 0,1 2022.0,1523.7 L 2022.0,1523.7 1995.5,1522.5 1968.9,1521.4 1942.3,1520.3 1915.7,1519.2 1889.0,1518.2 1862.4,1517.3 1835.6,1516.4 1808.9,1515.6 1782.1,1514.8 1755.3,1514.1 1728.5,1513.4 1701.6,1512.8 1674.8,1512.3 1647.9,1511.8 1621.0,1511.4 1594.1,1511.1 1567.2,1510.8 1540.3,1510.6 1513.4,1510.5 1486.5,1510.4 1459.6,1510.4 1432.7,1510.4 1405.8,1510.5 1378.9,1510.7 1352.0,1510.9 1325.1,1511.3 1298.3,1511.6 1271.4,1512.1 1244.6,1512.5 1217.8,1513.1 1191.0,1513.7 1164.3,1514.4 1137.6,1515.1 1110.9,1515.9 1084.2,1516.7 1057.6,1517.6 1031.0,1518.5 1004.4,1519.5 977.9,1520.5  A 522.500,522.500 0.00 0,0 979.3,1542.9 L 979.3,1542.9 1005.7,1540.7 1032.2,1538.6 1058.7,1536.6 1085.3,1534.5 1111.9,1532.6 1138.5,1530.6 1165.2,1528.8 1191.9,1527.0 1218.6,1525.2 1245.4,1523.5 1272.2,1521.9 1299.0,1520.3 1325.8,1518.8 1352.6,1517.3 1379.5,1515.9 1406.3,1514.6 1433.2,1513.3 1460.1,1512.1 1487.0,1511.0 1513.9,1509.9 1540.8,1508.9 1567.6,1508.0 1594.5,1507.1 1621.4,1506.3 1648.3,1505.6 1675.2,1504.9 1702.0,1504.3 1728.9,1503.7 1755.7,1503.2 1782.5,1502.8 1809.3,1502.4 1836.0,1502.1 1862.8,1501.9 1889.5,1501.7 1916.1,1501.5 1942.8,1501.4 1969.4,1501.4 1996.0,1501.4 2022.5,1501.4  Z" style="stroke-width: 0.5;  stroke: rgb(0,0,0); fill: rgb(179,177,178);" />
<path d="M 1953.230,1759.978 A 522.500,522.500 0.00 0,1 1941.9,1778.8 L 1941.9,1778.8 1919.4,1764.7 1896.9,1750.5 1874.3,1736.4 1851.7,1722.3 1829.0,1708.3 1806.3,1694.2 1783.5,1680.2 1760.7,1666.2 1737.8,1652.3 1714.9,1638.4 1692.0,1624.5 1668.9,1610.7 1645.9,1596.9 1622.8,1583.1 1599.7,1569.4 1576.5,1555.8 1553.3,1542.2 1530.1,1528.6 1506.8,1515.1 1483.5,1501.7 1460.2,1488.3 1436.8,1475.0 1413.4,1461.7 1390.0,1448.4 1366.6,1435.3 1343.1,1422.1 1319.6,1409.1 1296.2,1396.1 1272.7,1383.1 1249.2,1370.2 1225.6,1357.4 1202.1,1344.7 1178.6,1331.9 1155.1,1319.3 1131.5,1306.7 1108.0,1294.1 1084.5,1281.7 1061.0,1269.2 1037.5,1256.9  A 522.500,522.500 0.00 0,0 1027.8,1276.3 L 1027.8,1276.3 1051.8,1287.7 1075.8,1299.1 1099.8,1310.6 1123.8,1322.2 1147.9,1333.8 1171.9,1345.4 1195.9,1357.2 1220.0,1368.9 1244.0,1380.8 1268.0,1392.7 1292.0,1404.6 1316.0,1416.6 1340.0,1428.7 1364.0,1440.8 1388.0,1453.0 1411.9,1465.3 1435.8,1477.6 1459.7,1489.9 1483.6,1502.3 1507.5,1514.8 1531.3,1527.3 1555.1,1539.9 1578.8,1552.5 1602.5,1565.2 1626.2,1577.9 1649.9,1590.6 1673.5,1603.4 1697.0,1616.3 1720.5,1629.2 1744.0,1642.1 1767.5,1655.1 1790.9,1668.1 1814.2,1681.2 1837.5,1694.2 1860.7,1707.3 1883.9,1720.5 1907.1,1733.6 1930.2,1746.8 1953.2,1760.0  Z" style="stroke-width: 0.5;  stroke: rgb(0,0,0); fill: rgb(179,177,178);" />
<path d="M 2014.598,1590.525 A 522.500,522.500 0.00 0,1 2011.4,1607.2 L 2011.4,1607.2 1985.4,1601.7 1959.4,1596.3 1933.3,1591.0 1907.2,1585.7 1881.0,1580.4 1854.8,1575.2 1828.6,1570.0 1802.3,1564.9 1776.0,1559.8 1749.7,1554.8 1723.3,1549.8 1697.0,1544.9 1670.5,1540.0 1644.1,1535.2 1617.6,1530.5 1591.2,1525.8 1564.7,1521.2 1538.1,1516.6 1511.6,1512.1 1485.1,1507.7 1458.5,1503.3 1432.0,1499.0 1405.4,1494.7 1378.8,1490.5 1352.3,1486.4 1325.7,1482.3 1299.2,1478.3 1272.6,1474.4 1246.1,1470.5 1219.5,1466.7 1193.0,1462.9 1166.5,1459.2 1140.0,1455.5 1113.5,1451.9 1087.1,1448.4 1060.7,1444.9 1034.3,1441.5 1007.9,1438.1 981.6,1434.8  A 522.500,522.500 0.00 0,0 979.7,1451.7 L 979.7,1451.7 1006.2,1454.2 1032.6,1456.7 1059.1,1459.3 1085.6,1461.9 1112.2,1464.6 1138.8,1467.3 1165.3,1470.1 1192.0,1472.9 1218.6,1475.8 1245.2,1478.8 1271.9,1481.8 1298.6,1484.9 1325.2,1488.0 1351.9,1491.2 1378.6,1494.5 1405.3,1497.8 1432.0,1501.2 1458.7,1504.6 1485.3,1508.2 1512.0,1511.7 1538.7,1515.4 1565.3,1519.1 1591.9,1522.8 1618.6,1526.7 1645.2,1530.6 1671.7,1534.5 1698.3,1538.5 1724.8,1542.6 1751.4,1546.7 1777.8,1550.8 1804.3,1555.1 1830.7,1559.3 1857.1,1563.7 1883.4,1568.0 1909.8,1572.4 1936.0,1576.9 1962.3,1581.4 1988.5,1585.9 2014.6,1590.5  Z" style="stroke-width: 0.5;  stroke: rgb(0,0,0); fill: rgb(179,177,178);" />
<path d="M 2021.377,1465.764 A 522.500,522.500 0.00 0,1 2022.1,1479.8 L 2022.1,1479.8 1995.6,1480.9 1969.1,1482.0 1942.5,1483.1 1915.9,1484.3 1889.2,1485.6 1862.6,1486.9 1835.9,1488.3 1809.2,1489.7 1782.4,1491.2 1755.6,1492.7 1728.9,1494.4 1702.1,1496.0 1675.3,1497.8 1648.4,1499.6 1621.6,1501.5 1594.8,1503.4 1568.0,1505.5 1541.1,1507.5 1514.3,1509.7 1487.5,1511.9 1460.7,1514.2 1433.9,1516.6 1407.1,1519.0 1380.3,1521.5 1353.5,1524.0 1326.8,1526.7 1300.0,1529.3 1273.3,1532.1 1246.6,1534.9 1220.0,1537.8 1193.4,1540.7 1166.8,1543.7 1140.2,1546.7 1113.7,1549.8 1087.2,1552.9 1060.8,1556.1 1034.4,1559.4 1008.0,1562.7 981.7,1566.0  A 522.500,522.500 0.00 0,0 983.7,1580.0 L 983.7,1580.0 1009.9,1575.9 1036.1,1571.9 1062.4,1568.0 1088.8,1564.1 1115.2,1560.2 1141.6,1556.4 1168.1,1552.7 1194.6,1549.0 1221.1,1545.3 1247.7,1541.7 1274.3,1538.2 1300.9,1534.7 1327.5,1531.3 1354.2,1528.0 1380.9,1524.7 1407.6,1521.5 1434.3,1518.4 1461.1,1515.3 1487.8,1512.3 1514.6,1509.3 1541.3,1506.4 1568.1,1503.6 1594.9,1500.9 1621.6,1498.2 1648.4,1495.6 1675.1,1493.1 1701.9,1490.6 1728.6,1488.2 1755.4,1485.9 1782.1,1483.6 1808.8,1481.4 1835.4,1479.2 1862.1,1477.1 1888.7,1475.1 1915.3,1473.1 1941.9,1471.2 1968.4,1469.3 1994.9,1467.5 2021.4,1465.8  Z" style="stroke-width: 0.5;  stroke: rgb(0,0,0); fill: rgb(179,177,178);" />
<path d="M 1979.240,1291.828 A 522.500,522.500 0.00 0,1 1984.4,1304.1 L 1984.4,1304.1 1960.2,1314.0 1935.9,1323.9 1911.6,1334.1 1887.3,1344.4 1863.0,1354.8 1838.7,1365.4 1814.3,1376.1 1790.0,1387.0 1765.6,1398.0 1741.3,1409.2 1717.0,1420.5 1692.8,1432.0 1668.5,1443.6 1644.3,1455.4 1620.2,1467.4 1596.1,1479.5 1572.1,1491.8 1548.1,1504.2 1524.2,1516.7 1500.4,1529.4 1476.6,1542.2 1453.0,1555.2 1429.4,1568.3 1405.9,1581.6 1382.5,1595.0 1359.2,1608.5 1336.1,1622.1 1313.0,1635.8 1290.0,1649.7 1267.2,1663.6 1244.5,1677.7 1221.9,1691.8 1199.4,1706.0 1177.0,1720.3 1154.8,1734.7 1132.7,1749.2 1110.8,1763.7 1089.0,1778.3 1067.3,1792.9  A 522.500,522.500 0.00 0,0 1074.8,1803.7 L 1074.8,1803.7 1096.1,1788.6 1117.6,1773.5 1139.2,1758.4 1160.9,1743.4 1182.7,1728.5 1204.7,1713.6 1226.8,1698.8 1249.1,1684.1 1271.4,1669.5 1293.9,1654.9 1316.5,1640.5 1339.2,1626.2 1362.0,1612.0 1385.0,1597.9 1408.0,1583.9 1431.1,1570.1 1454.4,1556.4 1477.7,1542.8 1501.1,1529.4 1524.6,1516.1 1548.2,1502.9 1571.8,1489.9 1595.5,1477.0 1619.3,1464.3 1643.1,1451.8 1667.0,1439.4 1690.9,1427.1 1714.9,1415.0 1738.9,1403.0 1762.9,1391.2 1787.0,1379.6 1811.0,1368.1 1835.1,1356.8 1859.2,1345.6 1883.2,1334.5 1907.3,1323.6 1931.3,1312.9 1955.3,1302.3 1979.2,1291.8  Z" style="stroke-width: 0.5;  stroke: rgb(0,0,0); fill: rgb(179,177,178);" />
<path d="M 2022.364,1488.100 A 522.500,522.500 0.00 0,1 2022.5,1500.7 L 2022.5,1500.7 1996.0,1500.7 1969.4,1500.7 1942.8,1500.8 1916.1,1500.9 1889.4,1501.1 1862.7,1501.4 1836.0,1501.6 1809.2,1502.0 1782.5,1502.4 1755.7,1502.8 1728.8,1503.3 1702.0,1503.9 1675.1,1504.5 1648.3,1505.2 1621.4,1506.0 1594.5,1506.8 1567.6,1507.7 1540.7,1508.6 1513.9,1509.6 1487.0,1510.7 1460.1,1511.8 1433.2,1513.0 1406.3,1514.3 1379.5,1515.6 1352.6,1517.0 1325.8,1518.5 1299.0,1520.0 1272.2,1521.5 1245.4,1523.2 1218.6,1524.9 1191.9,1526.6 1165.2,1528.4 1138.5,1530.3 1111.9,1532.2 1085.3,1534.1 1058.7,1536.1 1032.2,1538.2 1005.7,1540.2 979.2,1542.4  A 522.500,522.500 0.00 0,0 980.4,1555.1 L 980.4,1555.1 1006.8,1552.3 1033.2,1549.6 1059.7,1546.9 1086.2,1544.2 1112.8,1541.6 1139.4,1539.1 1166.0,1536.6 1192.6,1534.1 1219.3,1531.7 1246.0,1529.4 1272.8,1527.1 1299.5,1524.9 1326.3,1522.7 1353.1,1520.6 1379.9,1518.6 1406.7,1516.6 1433.5,1514.7 1460.4,1512.8 1487.2,1511.0 1514.1,1509.3 1540.9,1507.7 1567.8,1506.1 1594.7,1504.5 1621.5,1503.1 1648.4,1501.6 1675.2,1500.3 1702.0,1499.0 1728.8,1497.8 1755.6,1496.6 1782.4,1495.5 1809.2,1494.5 1835.9,1493.5 1862.7,1492.6 1889.4,1491.7 1916.0,1490.9 1942.7,1490.1 1969.3,1489.4 1995.8,1488.7 2022.4,1488.1  Z" style="stroke-width: 0.5;  stroke: rgb(0,0,0); fill: rgb(179,177,178);" />
<path d="M 1991.319,1322.203 A 522.500,522.500 0.00 0,1 1995.1,1333.0 L 1995.1,1333.0 1969.9,1341.4 1944.8,1349.8 1919.5,1358.2 1894.2,1366.6 1868.9,1374.9 1843.5,1383.2 1818.0,1391.4 1792.6,1399.6 1767.0,1407.7 1741.5,1415.8 1715.9,1423.8 1690.2,1431.7 1664.6,1439.6 1638.9,1447.5 1613.1,1455.3 1587.4,1463.0 1561.6,1470.7 1535.7,1478.3 1509.9,1485.8 1484.0,1493.3 1458.2,1500.7 1432.3,1508.0 1406.4,1515.3 1380.5,1522.5 1354.5,1529.6 1328.6,1536.7 1302.7,1543.7 1276.7,1550.6 1250.8,1557.5 1224.9,1564.3 1198.9,1571.0 1173.0,1577.7 1147.1,1584.3 1121.2,1590.9 1095.4,1597.3 1069.5,1603.8 1043.7,1610.1 1017.9,1616.4 992.1,1622.7  A 522.500,522.500 0.00 0,0 994.9,1633.8 L 994.9,1633.8 1020.6,1627.0 1046.2,1620.2 1071.9,1613.2 1097.6,1606.2 1123.3,1599.2 1149.1,1592.1 1174.8,1584.9 1200.6,1577.7 1226.4,1570.3 1252.1,1563.0 1277.9,1555.5 1303.7,1548.0 1329.5,1540.5 1355.2,1532.8 1381.0,1525.1 1406.7,1517.4 1432.5,1509.5 1458.2,1501.6 1483.9,1493.6 1509.6,1485.6 1535.3,1477.5 1560.9,1469.3 1586.5,1461.1 1612.1,1452.8 1637.7,1444.5 1663.2,1436.1 1688.7,1427.6 1714.2,1419.1 1739.6,1410.5 1765.0,1401.9 1790.3,1393.2 1815.6,1384.5 1840.9,1375.7 1866.1,1366.9 1891.2,1358.0 1916.3,1349.1 1941.4,1340.2 1966.4,1331.2 1991.3,1322.2  Z" style="stroke-width: 0.5;  stroke: rgb(0,0,0); fill: rgb(179,177,178);" />
<path d="M 1944.896,1226.004 A 522.500,522.500 0.00 0,1 1950.6,1235.4 L 1950.6,1235.4 1928.0,1248.8 1905.4,1262.2 1882.8,1275.8 1860.2,1289.5 1837.5,1303.3 1814.9,1317.3 1792.3,1331.4 1769.8,1345.6 1747.2,1360.0 1724.7,1374.5 1702.2,1389.1 1679.8,1403.9 1657.4,1418.8 1635.1,1433.8 1612.8,1448.9 1590.6,1464.2 1568.4,1479.6 1546.4,1495.1 1524.4,1510.8 1502.5,1526.6 1480.7,1542.4 1458.9,1558.4 1437.3,1574.5 1415.8,1590.7 1394.3,1607.0 1373.0,1623.4 1351.7,1639.9 1330.6,1656.5 1309.6,1673.2 1288.7,1689.9 1267.9,1706.7 1247.2,1723.6 1226.7,1740.6 1206.3,1757.6 1186.0,1774.6 1165.8,1791.7 1145.7,1808.8 1125.8,1826.0 1106.0,1843.2  A 522.500,522.500 0.00 0,0 1113.5,1851.6 L 1113.5,1851.6 1132.9,1834.0 1152.5,1816.4 1172.2,1798.9 1192.0,1781.4 1211.9,1763.9 1232.0,1746.4 1252.1,1729.0 1272.4,1711.7 1292.9,1694.5 1313.4,1677.3 1334.0,1660.2 1354.8,1643.1 1375.7,1626.2 1396.7,1609.3 1417.8,1592.6 1438.9,1575.9 1460.2,1559.3 1481.6,1542.9 1503.1,1526.5 1524.7,1510.3 1546.3,1494.2 1568.0,1478.2 1589.8,1462.3 1611.7,1446.6 1633.7,1431.0 1655.7,1415.5 1677.7,1400.1 1699.8,1384.9 1722.0,1369.8 1744.2,1354.8 1766.5,1340.0 1788.7,1325.3 1811.0,1310.7 1833.3,1296.2 1855.6,1281.9 1878.0,1267.8 1900.3,1253.7 1922.6,1239.8 1944.9,1226.0  Z" style="stroke-width: 0.5;  stroke: rgb(0,0,0); fill: rgb(179,177,178);" />
<path d="M 2016.075,1581.686 A 522.500,522.500 0.00 0,1 2014.7,1589.8 L 2014.7,1589.8 1988.6,1585.3 1962.4,1580.8 1936.1,1576.3 1909.8,1571.9 1883.5,1567.5 1857.2,1563.2 1830.8,1558.9 1804.3,1554.6 1777.9,1550.4 1751.4,1546.3 1724.9,1542.2 1698.4,1538.2 1671.8,1534.2 1645.2,1530.3 1618.6,1526.4 1592.0,1522.6 1565.3,1518.9 1538.7,1515.2 1512.0,1511.6 1485.4,1508.0 1458.7,1504.5 1432.0,1501.1 1405.3,1497.7 1378.6,1494.4 1351.9,1491.1 1325.3,1487.9 1298.6,1484.8 1271.9,1481.7 1245.3,1478.7 1218.6,1475.8 1192.0,1472.9 1165.4,1470.1 1138.8,1467.3 1112.2,1464.6 1085.6,1461.9 1059.1,1459.3 1032.6,1456.7 1006.2,1454.2 979.7,1451.7  A 522.500,522.500 0.00 0,0 979.0,1459.9 L 979.0,1459.9 1005.5,1462.0 1032.0,1464.1 1058.5,1466.2 1085.1,1468.4 1111.7,1470.7 1138.3,1473.0 1164.9,1475.4 1191.6,1477.8 1218.3,1480.2 1245.0,1482.8 1271.7,1485.4 1298.4,1488.0 1325.1,1490.7 1351.8,1493.5 1378.6,1496.3 1405.3,1499.2 1432.0,1502.2 1458.8,1505.2 1485.5,1508.2 1512.2,1511.4 1538.9,1514.6 1565.6,1517.8 1592.3,1521.2 1619.0,1524.5 1645.7,1528.0 1672.3,1531.5 1698.9,1535.0 1725.5,1538.6 1752.1,1542.3 1778.7,1546.0 1805.2,1549.8 1831.7,1553.6 1858.1,1557.5 1884.5,1561.4 1910.9,1565.4 1937.3,1569.4 1963.6,1573.5 1989.9,1577.6 2016.1,1581.7  Z" style="stroke-width: 0.5;  stroke: rgb(0,0,0); fill: rgb(179,177,178);" />
<path d="M 1984.648,1304.749 A 522.500,522.500 0.00 0,1 1987.4,1311.6 L 1987.4,1311.6 1963.0,1321.1 1938.6,1330.7 1914.2,1340.5 1889.7,1350.4 1865.2,1360.4 1840.7,1370.6 1816.2,1381.0 1791.7,1391.5 1767.2,1402.1 1742.7,1413.0 1718.3,1423.9 1693.9,1435.1 1669.5,1446.3 1645.1,1457.8 1620.8,1469.4 1596.5,1481.1 1572.3,1493.0 1548.2,1505.1 1524.1,1517.3 1500.1,1529.6 1476.1,1542.1 1452.3,1554.8 1428.5,1567.6 1404.9,1580.5 1381.3,1593.5 1357.8,1606.7 1334.5,1620.0 1311.2,1633.4 1288.1,1646.9 1265.0,1660.5 1242.1,1674.3 1219.3,1688.1 1196.6,1702.0 1174.1,1716.0 1151.7,1730.1 1129.4,1744.3 1107.3,1758.5 1085.3,1772.7 1063.4,1787.0  A 522.500,522.500 0.00 0,0 1067.6,1793.3 L 1067.6,1793.3 1089.2,1778.7 1111.0,1764.1 1133.0,1749.6 1155.0,1735.1 1177.3,1720.7 1199.6,1706.4 1222.1,1692.1 1244.6,1678.0 1267.4,1663.9 1290.2,1650.0 1313.1,1636.1 1336.2,1622.4 1359.4,1608.7 1382.7,1595.2 1406.0,1581.8 1429.5,1568.6 1453.1,1555.5 1476.8,1542.5 1500.5,1529.7 1524.3,1517.0 1548.2,1504.4 1572.2,1492.0 1596.2,1479.8 1620.3,1467.7 1644.5,1455.7 1668.7,1444.0 1692.9,1432.3 1717.2,1420.9 1741.5,1409.5 1765.8,1398.4 1790.2,1387.4 1814.5,1376.5 1838.9,1365.8 1863.2,1355.3 1887.6,1344.9 1911.9,1334.6 1936.2,1324.5 1960.4,1314.6 1984.6,1304.7  Z" style="stroke-width: 0.5;  stroke: rgb(0,0,0); fill: rgb(179,177,178);" />
</g>
<g id="plot0">
<g id="plot0-axis">
</g>
<line x1='2243.5' y1='1598.7' x2='2243.5' y2='1598.7' style="stroke-width:14.0;stroke:rgb(0,0,0);stroke-linecap:round;fill:none;" />
<line x1='2243.5' y1='1598.7' x2='2283.1' y2='1604.0' style="stroke-width:14.0;stroke:rgb(0,0,0);stroke-linecap:round;fill:none;" />
<line x1='2283.1' y1='1604.0' x2='2283.1' y2='1604.0' style="stroke-width:14.0;stroke:rgb(0,0,0);stroke-linecap:round;fill:none;" />
<text x="2299.8" y="1628.4" font-size="46.8px" font-family="CMUBright-Roman" style="text-anchor:start;fill:rgb(255,38,78);" transform="rotate(7.6,2299.8,1628.4)" >HistocapES283Z<tspan baseline-shift="-40%" font-size="90%">s</tspan>00654</text>
</g>
<defs>
<pattern id="vline-sparse" width="10" height="10" patternTransform="rotate(0 0 0)" patternUnits="userSpaceOnUse"><line x1="0" y1="0" x2="0" y2="10" style="stroke:black;stroke-width:2" /></pattern>
<pattern id="hline-sparse" width="10" height="10" patternTransform="rotate(0 0 0)" patternUnits="userSpaceOnUse"><line x1="0" y1="0" x2="10" y2="0" style="stroke:black;stroke-width:2" /></pattern>
<pattern id="checker" width="10" height="10" patternTransform="rotate(45 0 0)" patternUnits="userSpaceOnUse"><line x1="0" y1="0" x2="10" y2="0" style="stroke:black;stroke-width:5" /><line x1="0" y1="0" x2="0" y2="10" style="stroke:black;stroke-width:4" /></pattern>
<pattern id="hline" width="10" height="10" patternTransform="rotate(0 0 0)" patternUnits="userSpaceOnUse"><line x1="0" y1="0" x2="10" y2="0" style="stroke:black;stroke-width:5" /></pattern>
<pattern id="vline" width="10" height="10" patternTransform="rotate(0 0 0)" patternUnits="userSpaceOnUse"><line x1="0" y1="0" x2="0" y2="10" style="stroke:black;stroke-width:5" /></pattern>
<pattern id="checker" width="10" height="10" patternTransform="rotate(45 0 0)" patternUnits="userSpaceOnUse"><line x1="0" y1="0" x2="10" y2="0" style="stroke:black;stroke-width:2" /><line x1="0" y1="0" x2="0" y2="10" style="stroke:black;stroke-width:2" /></pattern>
</defs>
</svg>
