<?xml version="1.0" encoding="utf-8" standalone="no"?>
<!DOCTYPE svg PUBLIC "-//W3C//DTD SVG 1.1//EN" "http://www.w3.org/Graphics/SVG/1.1/DTD/svg11.dtd">
<svg width="3000px" height="3000px" version="1.1" xmlns="http://www.w3.org/2000/svg" xmlns:xlink="http://www.w3.org/1999/xlink">
<g id="bg">
<rect x="0" y="0" width="3000px" height="3000px" style="fill:rgb(255,255,255);"/>
</g>
<g id="ideograms">
<path d="M1500.000,950.000 A550.000,550.000 40.000 0,1 1711.892,2007.545 L1788.943,2192.107 A750.000,750.000 0.000 0,0 1500.000,750.000 Z" style="stroke-width:2.0;stroke:rgb(0,0,0);stroke-linecap:round;fill:rgb(179,177,178);" />
<text x="2456.0" y="1308.5" font-size="46.8px" font-family="CMUBright-Roman" style="text-anchor:middle;fill:rgb(0,0,0);" transform="rotate(438.7,2456.0,1308.5)" >HistocapES288Z<tspan baseline-shift="-40%" font-size="90%">4</tspan></text>
<line x1='1529.4' y1='750.6' x2='1529.8' y2='738.6' style="stroke-width:8.0;stroke:rgb(150,150,150);stroke-linecap:round;fill:none;" />
<text x="1544.3" y="727.3" font-size="41.6px" font-family="CMUBright-Roman" style="text-anchor:start;fill:rgb(150,150,150);" transform="rotate(272.2,1544.3,727.3)" >100 kb</text>
<line x1='1630.3' y1='761.4' x2='1632.4' y2='749.6' style="stroke-width:8.0;stroke:rgb(150,150,150);stroke-linecap:round;fill:none;" />
<line x1='1728.8' y1='785.8' x2='1732.5' y2='774.3' style="stroke-width:8.0;stroke:rgb(150,150,150);stroke-linecap:round;fill:none;" />
<line x1='1823.1' y1='823.2' x2='1828.3' y2='812.4' style="stroke-width:8.0;stroke:rgb(150,150,150);stroke-linecap:round;fill:none;" />
<line x1='1911.6' y1='873.0' x2='1918.1' y2='863.0' style="stroke-width:8.0;stroke:rgb(150,150,150);stroke-linecap:round;fill:none;" />
<line x1='1992.4' y1='934.3' x2='2000.3' y2='925.3' style="stroke-width:8.0;stroke:rgb(150,150,150);stroke-linecap:round;fill:none;" />
<text x="2018.7" y="925.5" font-size="41.6px" font-family="CMUBright-Roman" style="text-anchor:start;fill:rgb(150,150,150);" transform="rotate(311.0,2018.7,925.5)" >150 kb</text>
<line x1='2064.3' y1='1006.0' x2='2073.3' y2='998.1' style="stroke-width:8.0;stroke:rgb(150,150,150);stroke-linecap:round;fill:none;" />
<line x1='2125.8' y1='1086.7' x2='2135.8' y2='1080.1' style="stroke-width:8.0;stroke:rgb(150,150,150);stroke-linecap:round;fill:none;" />
<line x1='2175.9' y1='1175.0' x2='2186.7' y2='1169.8' style="stroke-width:8.0;stroke:rgb(150,150,150);stroke-linecap:round;fill:none;" />
<line x1='2213.6' y1='1269.2' x2='2225.0' y2='1265.5' style="stroke-width:8.0;stroke:rgb(150,150,150);stroke-linecap:round;fill:none;" />
<line x1='2238.2' y1='1367.6' x2='2250.0' y2='1365.5' style="stroke-width:8.0;stroke:rgb(150,150,150);stroke-linecap:round;fill:none;" />
<text x="2264.2" y="1377.2" font-size="41.6px" font-family="CMUBright-Roman" style="text-anchor:start;fill:rgb(150,150,150);" transform="rotate(349.8,2264.2,1377.2)" >200 kb</text>
<line x1='2249.3' y1='1468.5' x2='2261.3' y2='1468.0' style="stroke-width:8.0;stroke:rgb(150,150,150);stroke-linecap:round;fill:none;" />
<line x1='2246.7' y1='1570.0' x2='2258.7' y2='1571.1' style="stroke-width:8.0;stroke:rgb(150,150,150);stroke-linecap:round;fill:none;" />
<line x1='2230.4' y1='1670.1' x2='2242.1' y2='1672.9' style="stroke-width:8.0;stroke:rgb(150,150,150);stroke-linecap:round;fill:none;" />
<line x1='2200.8' y1='1767.2' x2='2212.0' y2='1771.5' style="stroke-width:8.0;stroke:rgb(150,150,150);stroke-linecap:round;fill:none;" />
<line x1='2158.3' y1='1859.4' x2='2168.8' y2='1865.1' style="stroke-width:8.0;stroke:rgb(150,150,150);stroke-linecap:round;fill:none;" />
<text x="2172.5" y="1883.1" font-size="41.6px" font-family="CMUBright-Roman" style="text-anchor:start;fill:rgb(150,150,150);" transform="rotate(28.6,2172.5,1883.1)" >250 kb</text>
<line x1='2103.7' y1='1945.0' x2='2113.4' y2='1952.1' style="stroke-width:8.0;stroke:rgb(150,150,150);stroke-linecap:round;fill:none;" />
<line x1='2038.1' y1='2022.4' x2='2046.8' y2='2030.8' style="stroke-width:8.0;stroke:rgb(150,150,150);stroke-linecap:round;fill:none;" />
<line x1='1962.7' y1='2090.3' x2='1970.1' y2='2099.7' style="stroke-width:8.0;stroke:rgb(150,150,150);stroke-linecap:round;fill:none;" />
<line x1='1878.8' y1='2147.3' x2='1884.8' y2='2157.7' style="stroke-width:8.0;stroke:rgb(150,150,150);stroke-linecap:round;fill:none;" />
<g id="highlighttrack_0">
<path d="M2037.152,1381.813 A550.000,550.000 40.000 0,1 2041.221,1402.122 L2238.028,1366.530 A750.000,750.000 0.000 0,0 2232.480,1338.836 Z" style="stroke-width:14.0;stroke:rgb(0,0,0);stroke-linecap:round;fill:rgb(255,38,78);" />
</g>
<path d="M1500.000,950.000 A550.000,550.000 40.000 0,1 1711.892,2007.545 L1788.943,2192.107 A750.000,750.000 0.000 0,0 1500.000,750.000 Z" style="stroke-width:2.0;stroke:rgb(0,0,0);stroke-linecap:round;fill:none;" />
<path d="M1494.071,2049.968 A550.000,550.000 40.000 0,1 1282.650,994.769 L1203.613,811.048 A750.000,750.000 0.000 0,0 1491.915,2249.956 Z" style="stroke-width:2.0;stroke:rgb(0,0,0);stroke-linecap:round;fill:rgb(179,177,178);" />
<text x="500.9" y="1700.2" font-size="46.8px" font-family="CMUBright-Roman" style="text-anchor:middle;fill:rgb(0,0,0);" transform="rotate(78.7,500.9,1700.2)" >Histocap104p06<tspan baseline-shift="-40%" font-size="90%">4</tspan></text>
<line x1='1133.2' y1='845.8' x2='1127.3' y2='835.4' style="stroke-width:8.0;stroke:rgb(150,150,150);stroke-linecap:round;fill:none;" />
<line x1='1048.2' y1='901.3' x2='1041.0' y2='891.8' style="stroke-width:8.0;stroke:rgb(150,150,150);stroke-linecap:round;fill:none;" />
<line x1='971.5' y1='967.8' x2='963.1' y2='959.3' style="stroke-width:8.0;stroke:rgb(150,150,150);stroke-linecap:round;fill:none;" />
<line x1='904.5' y1='1044.0' x2='895.0' y2='1036.7' style="stroke-width:8.0;stroke:rgb(150,150,150);stroke-linecap:round;fill:none;" />
<text x="877.1" y="1040.6" font-size="41.6px" font-family="CMUBright-Roman" style="text-anchor:end;fill:rgb(150,150,150);" transform="rotate(37.4,877.1,1040.6)" >50 kb</text>
<line x1='848.4' y1='1128.6' x2='838.0' y2='1122.7' style="stroke-width:8.0;stroke:rgb(150,150,150);stroke-linecap:round;fill:none;" />
<line x1='804.2' y1='1220.0' x2='793.1' y2='1215.5' style="stroke-width:8.0;stroke:rgb(150,150,150);stroke-linecap:round;fill:none;" />
<line x1='772.8' y1='1316.5' x2='761.2' y2='1313.5' style="stroke-width:8.0;stroke:rgb(150,150,150);stroke-linecap:round;fill:none;" />
<line x1='754.7' y1='1416.3' x2='742.8' y2='1415.0' style="stroke-width:8.0;stroke:rgb(150,150,150);stroke-linecap:round;fill:none;" />
<line x1='750.2' y1='1517.7' x2='738.2' y2='1518.0' style="stroke-width:8.0;stroke:rgb(150,150,150);stroke-linecap:round;fill:none;" />
<text x="726.7" y="1532.3" font-size="41.6px" font-family="CMUBright-Roman" style="text-anchor:end;fill:rgb(150,150,150);" transform="rotate(-1.4,726.7,1532.3)" >100 kb</text>
<line x1='759.5' y1='1618.8' x2='747.6' y2='1620.7' style="stroke-width:8.0;stroke:rgb(150,150,150);stroke-linecap:round;fill:none;" />
<line x1='782.3' y1='1717.7' x2='770.8' y2='1721.2' style="stroke-width:8.0;stroke:rgb(150,150,150);stroke-linecap:round;fill:none;" />
<line x1='818.2' y1='1812.6' x2='807.3' y2='1817.6' style="stroke-width:8.0;stroke:rgb(150,150,150);stroke-linecap:round;fill:none;" />
<line x1='866.7' y1='1901.8' x2='856.6' y2='1908.2' style="stroke-width:8.0;stroke:rgb(150,150,150);stroke-linecap:round;fill:none;" />
<line x1='926.7' y1='1983.6' x2='917.6' y2='1991.3' style="stroke-width:8.0;stroke:rgb(150,150,150);stroke-linecap:round;fill:none;" />
<text x="917.5" y="2009.7" font-size="41.6px" font-family="CMUBright-Roman" style="text-anchor:end;fill:rgb(150,150,150);" transform="rotate(-40.1,917.5,2009.7)" >150 kb</text>
<line x1='997.3' y1='2056.6' x2='989.2' y2='2065.5' style="stroke-width:8.0;stroke:rgb(150,150,150);stroke-linecap:round;fill:none;" />
<line x1='1077.0' y1='2119.3' x2='1070.2' y2='2129.2' style="stroke-width:8.0;stroke:rgb(150,150,150);stroke-linecap:round;fill:none;" />
<line x1='1164.5' y1='2170.8' x2='1159.1' y2='2181.5' style="stroke-width:8.0;stroke:rgb(150,150,150);stroke-linecap:round;fill:none;" />
<line x1='1258.1' y1='2209.9' x2='1254.3' y2='2221.3' style="stroke-width:8.0;stroke:rgb(150,150,150);stroke-linecap:round;fill:none;" />
<line x1='1356.2' y1='2236.1' x2='1353.9' y2='2247.9' style="stroke-width:8.0;stroke:rgb(150,150,150);stroke-linecap:round;fill:none;" />
<text x="1365.4" y="2262.2" font-size="41.6px" font-family="CMUBright-Roman" style="text-anchor:end;fill:rgb(150,150,150);" transform="rotate(-78.9,1365.4,2262.2)" >200 kb</text>
<line x1='1456.9' y1='2248.8' x2='1456.2' y2='2260.7' style="stroke-width:8.0;stroke:rgb(150,150,150);stroke-linecap:round;fill:none;" />
<path d="M1494.071,2049.968 A550.000,550.000 40.000 0,1 1282.650,994.769 L1203.613,811.048 A750.000,750.000 0.000 0,0 1491.915,2249.956 Z" style="stroke-width:2.0;stroke:rgb(0,0,0);stroke-linecap:round;fill:none;" />
</g>
<g id="track_0">
<path d="M 1845.644,1108.163 A 522.500,522.500 0.00 0,1 1939.2,1216.9 L 1939.2,1216.9 1918.4,1230.1 1897.3,1243.2 1875.8,1255.9 1853.9,1268.5 1831.7,1280.8 1809.2,1292.7 1786.4,1304.4 1763.3,1315.7 1739.9,1326.6 1716.3,1337.1 1692.4,1347.3 1668.2,1357.0 1643.8,1366.2 1619.2,1375.0 1594.4,1383.3 1569.4,1391.2 1544.2,1398.5 1518.8,1405.4 1493.4,1411.7 1467.8,1417.5 1442.1,1422.9 1416.3,1427.7 1390.4,1431.9 1364.4,1435.7 1338.5,1438.9 1312.5,1441.6 1286.5,1443.9 1260.5,1445.6 1234.5,1446.8 1208.7,1447.6 1182.8,1447.8 1157.1,1447.6 1131.5,1447.0 1106.1,1446.0 1080.8,1444.5 1055.6,1442.6 1030.7,1440.4 1006.0,1437.8 981.6,1434.9  A 522.500,522.500 0.00 0,1 1018.9,1296.2 L 1018.9,1296.2 1040.1,1305.0 1061.8,1313.3 1083.8,1321.2 1106.1,1328.5 1128.7,1335.3 1151.5,1341.5 1174.5,1347.0 1197.7,1351.8 1221.0,1355.9 1244.4,1359.3 1267.8,1361.8 1291.3,1363.6 1314.8,1364.5 1338.3,1364.6 1361.8,1363.9 1385.1,1362.2 1408.3,1359.7 1431.4,1356.3 1454.4,1352.0 1477.1,1346.8 1499.7,1340.8 1522.0,1333.9 1544.0,1326.1 1565.7,1317.5 1587.2,1308.0 1608.3,1297.8 1629.1,1286.8 1649.6,1275.0 1669.6,1262.5 1689.2,1249.4 1708.5,1235.6 1727.3,1221.2 1745.6,1206.3 1763.5,1190.9 1781.0,1175.0 1797.9,1158.7 1814.3,1142.1 1830.2,1125.2 1845.6,1108.2  Z" style="stroke-width: 0.5;  stroke: rgb(0,0,0); fill: rgb(179,177,178);" />
<path d="M 1941.149,1220.011 A 522.500,522.500 0.00 0,1 1987.5,1312.0 L 1987.5,1312.0 1963.3,1321.2 1939.0,1330.3 1914.5,1339.4 1889.8,1348.2 1865.0,1357.0 1840.1,1365.6 1815.0,1374.1 1789.8,1382.3 1764.4,1390.5 1738.9,1398.4 1713.3,1406.2 1687.6,1413.7 1661.8,1421.1 1635.9,1428.3 1609.9,1435.2 1583.8,1442.0 1557.6,1448.5 1531.4,1454.8 1505.1,1461.0 1478.8,1466.8 1452.4,1472.5 1426.0,1477.9 1399.5,1483.1 1373.0,1488.1 1346.5,1492.8 1320.0,1497.4 1293.5,1501.7 1267.0,1505.8 1240.6,1509.6 1214.1,1513.3 1187.7,1516.7 1161.4,1519.9 1135.0,1522.9 1108.8,1525.8 1082.6,1528.4 1056.5,1530.8 1030.5,1533.1 1004.6,1535.1 978.8,1537.1  A 522.500,522.500 0.00 0,1 981.5,1435.3 L 981.5,1435.3 1006.0,1438.2 1030.7,1440.7 1055.7,1442.9 1080.8,1444.8 1106.1,1446.3 1131.6,1447.3 1157.2,1448.0 1183.0,1448.2 1208.8,1447.9 1234.7,1447.2 1260.7,1446.0 1286.7,1444.3 1312.7,1442.1 1338.7,1439.5 1364.8,1436.3 1390.7,1432.6 1416.6,1428.3 1442.5,1423.6 1468.2,1418.4 1493.9,1412.6 1519.4,1406.4 1544.8,1399.6 1570.0,1392.3 1595.1,1384.6 1619.9,1376.4 1644.6,1367.7 1669.1,1358.5 1693.3,1348.9 1717.3,1338.9 1741.0,1328.5 1764.5,1317.7 1787.7,1306.5 1810.6,1295.0 1833.2,1283.2 1855.5,1271.0 1877.4,1258.6 1899.0,1246.0 1920.3,1233.1 1941.1,1220.0  Z" style="stroke-width: 0.5;  stroke: rgb(0,0,0); fill: rgb(179,177,178);" />
<path d="M 1500.000,977.500 A 522.500,522.500 0.00 0,1 1508.0,977.6 L 1508.0,977.6 1507.5,997.9 1506.8,1018.2 1505.7,1038.2 1504.2,1057.8 1502.4,1077.0 1500.3,1095.5 1497.7,1113.3 1494.7,1130.4 1491.3,1146.5 1487.5,1161.6 1483.2,1175.7 1478.5,1188.6 1473.3,1200.4 1467.8,1210.9 1461.7,1220.1 1455.3,1228.0 1448.4,1234.4 1441.0,1239.5 1433.3,1243.2 1425.1,1245.5 1416.6,1246.3 1407.7,1245.7 1398.5,1243.7 1388.9,1240.3 1379.0,1235.5 1368.8,1229.3 1358.3,1221.9 1347.6,1213.2 1336.7,1203.4 1325.6,1192.4 1314.4,1180.3 1303.1,1167.2 1291.7,1153.2 1280.3,1138.5 1268.9,1123.0 1257.6,1106.9 1246.4,1090.3 1235.3,1073.3 1224.5,1056.1  A 522.500,522.500 0.00 0,1 1293.5,1020.0 L 1293.5,1020.0 1301.6,1038.6 1309.8,1056.9 1318.2,1074.9 1326.6,1092.4 1335.1,1109.3 1343.6,1125.5 1352.1,1140.9 1360.5,1155.5 1368.8,1169.0 1377.0,1181.4 1385.1,1192.7 1393.1,1202.7 1400.8,1211.5 1408.3,1218.9 1415.6,1225.0 1422.7,1229.6 1429.5,1232.8 1436.0,1234.5 1442.3,1234.8 1448.2,1233.6 1453.9,1230.9 1459.2,1226.7 1464.2,1221.1 1468.8,1214.0 1473.1,1205.6 1477.1,1195.7 1480.8,1184.6 1484.1,1172.3 1487.0,1158.7 1489.7,1144.1 1492.0,1128.4 1494.0,1111.7 1495.7,1094.2 1497.1,1076.0 1498.2,1057.1 1499.0,1037.6 1499.6,1017.8 1499.9,997.7 1500.0,977.5  Z" style="stroke-width: 0.5;  stroke: rgb(0,0,0); fill: rgb(179,177,178);" />
<path d="M 1813.205,1918.221 A 522.500,522.500 0.00 0,1 1745.5,1961.2 L 1745.5,1961.2 1735.7,1943.1 1725.5,1925.2 1715.0,1907.7 1704.2,1890.6 1693.2,1874.2 1681.9,1858.4 1670.5,1843.5 1659.0,1829.4 1647.3,1816.3 1635.4,1804.3 1623.5,1793.3 1611.6,1783.6 1599.6,1775.0 1587.6,1767.8 1575.6,1761.9 1563.7,1757.3 1551.8,1754.1 1540.0,1752.3 1528.2,1751.9 1516.6,1752.9 1505.2,1755.4 1493.9,1759.2 1482.7,1764.5 1471.8,1771.1 1461.0,1779.0 1450.5,1788.3 1440.2,1798.8 1430.2,1810.5 1420.4,1823.4 1410.9,1837.3 1401.7,1852.3 1392.8,1868.2 1384.2,1884.9 1375.9,1902.4 1367.9,1920.5 1360.3,1939.2 1353.1,1958.3 1346.2,1977.7 1339.7,1997.3  A 522.500,522.500 0.00 0,1 1266.4,1967.4 L 1266.4,1967.4 1276.1,1948.6 1286.2,1930.0 1296.8,1911.7 1307.8,1893.9 1319.2,1876.5 1331.0,1859.9 1343.2,1843.9 1355.7,1828.7 1368.7,1814.4 1381.9,1801.1 1395.5,1788.7 1409.3,1777.4 1423.5,1767.3 1437.9,1758.3 1452.5,1750.5 1467.4,1744.0 1482.4,1738.7 1497.7,1734.7 1513.0,1732.0 1528.5,1730.6 1544.2,1730.5 1559.9,1731.7 1575.6,1734.2 1591.4,1738.0 1607.2,1743.1 1623.0,1749.4 1638.7,1756.8 1654.3,1765.4 1669.9,1775.2 1685.3,1786.0 1700.6,1797.7 1715.6,1810.4 1730.5,1823.9 1745.1,1838.3 1759.4,1853.3 1773.4,1868.9 1787.1,1884.9 1800.3,1901.4 1813.2,1918.2  Z" style="stroke-width: 0.5;  stroke: rgb(0,0,0); fill: rgb(179,177,178);" />
<path d="M 1695.425,1015.423 A 522.500,522.500 0.00 0,1 1758.8,1046.1 L 1758.8,1046.1 1747.7,1064.9 1736.1,1083.6 1724.0,1101.9 1711.4,1119.9 1698.3,1137.5 1684.7,1154.5 1670.6,1170.9 1656.0,1186.6 1640.9,1201.6 1625.4,1215.7 1609.5,1229.0 1593.2,1241.4 1576.5,1252.8 1559.4,1263.3 1541.9,1272.6 1524.1,1281.0 1506.0,1288.2 1487.6,1294.3 1468.9,1299.3 1450.0,1303.2 1430.8,1305.9 1411.5,1307.5 1392.0,1308.0 1372.3,1307.3 1352.6,1305.5 1332.8,1302.6 1312.9,1298.6 1293.0,1293.7 1273.2,1287.7 1253.4,1280.7 1233.7,1272.8 1214.1,1264.1 1194.7,1254.5 1175.5,1244.2 1156.5,1233.2 1137.9,1221.6 1119.5,1209.5 1101.6,1196.8 1084.0,1183.8  A 522.500,522.500 0.00 0,1 1129.9,1131.2 L 1129.9,1131.2 1145.2,1146.0 1160.8,1160.5 1176.7,1174.5 1193.0,1188.1 1209.5,1200.9 1226.3,1213.1 1243.2,1224.5 1260.2,1235.0 1277.4,1244.6 1294.6,1253.2 1311.8,1260.8 1329.0,1267.2 1346.2,1272.6 1363.3,1276.8 1380.2,1279.7 1397.1,1281.5 1413.7,1282.0 1430.2,1281.2 1446.5,1279.2 1462.5,1276.0 1478.2,1271.4 1493.7,1265.6 1508.8,1258.6 1523.6,1250.4 1538.1,1241.0 1552.1,1230.4 1565.8,1218.8 1579.1,1206.1 1592.0,1192.4 1604.4,1177.7 1616.4,1162.1 1627.9,1145.8 1639.0,1128.6 1649.6,1110.9 1659.8,1092.5 1669.4,1073.7 1678.6,1054.5 1687.2,1035.1 1695.4,1015.4  Z" style="stroke-width: 0.5;  stroke: rgb(0,0,0); fill: rgb(179,177,178);" />
<path d="M 1993.577,1328.572 A 522.500,522.500 0.00 0,1 2010.3,1387.7 L 2010.3,1387.7 1984.2,1393.5 1958.1,1399.2 1932.0,1404.9 1905.8,1410.6 1879.7,1416.3 1853.5,1421.9 1827.4,1427.6 1801.2,1433.2 1775.0,1438.8 1748.8,1444.5 1722.5,1450.0 1696.3,1455.6 1670.1,1461.2 1643.8,1466.7 1617.6,1472.2 1591.3,1477.7 1565.0,1483.2 1538.8,1488.6 1512.5,1494.1 1486.2,1499.5 1459.9,1504.9 1433.6,1510.2 1407.3,1515.6 1381.0,1520.9 1354.7,1526.2 1328.4,1531.5 1302.1,1536.8 1275.8,1542.0 1249.5,1547.3 1223.2,1552.5 1197.0,1557.7 1170.7,1562.8 1144.4,1568.0 1118.1,1573.1 1091.9,1578.2 1065.6,1583.3 1039.3,1588.4 1013.1,1593.5 986.9,1598.5  A 522.500,522.500 0.00 0,1 978.9,1537.6 L 978.9,1537.6 1004.8,1535.7 1030.8,1533.6 1056.9,1531.4 1083.0,1529.0 1109.3,1526.4 1135.6,1523.7 1162.0,1520.7 1188.4,1517.6 1214.9,1514.4 1241.4,1510.9 1267.9,1507.2 1294.4,1503.4 1321.0,1499.3 1347.6,1495.1 1374.1,1490.6 1400.7,1485.9 1427.2,1481.1 1453.7,1476.0 1480.2,1470.8 1506.6,1465.4 1533.0,1459.7 1559.4,1453.9 1585.7,1447.8 1611.9,1441.6 1638.1,1435.2 1664.1,1428.6 1690.1,1421.8 1716.1,1414.9 1741.9,1407.8 1767.6,1400.5 1793.2,1393.0 1818.7,1385.4 1844.1,1377.7 1869.3,1369.8 1894.5,1361.8 1919.5,1353.6 1944.3,1345.4 1969.0,1337.0 1993.6,1328.6  Z" style="stroke-width: 0.5;  stroke: rgb(0,0,0); fill: rgb(179,177,178);" />
<path d="M 2019.206,1558.581 A 522.500,522.500 0.00 0,1 2009.9,1614.3 L 2009.9,1614.3 1986.2,1609.2 1962.2,1604.4 1938.0,1600.0 1913.5,1596.1 1888.7,1592.5 1863.8,1589.5 1838.7,1586.9 1813.5,1584.8 1788.1,1583.2 1762.7,1582.2 1737.1,1581.7 1711.5,1581.9 1685.9,1582.6 1660.3,1583.9 1634.6,1585.7 1609.0,1588.2 1583.5,1591.4 1558.0,1595.1 1532.6,1599.4 1507.3,1604.4 1482.1,1609.9 1457.1,1616.1 1432.3,1622.8 1407.6,1630.2 1383.2,1638.1 1358.9,1646.6 1334.9,1655.6 1311.2,1665.1 1287.7,1675.2 1264.5,1685.7 1241.6,1696.7 1219.0,1708.2 1196.7,1720.0 1174.8,1732.2 1153.3,1744.8 1132.1,1757.7 1111.3,1770.9 1090.8,1784.4 1070.8,1798.0  A 522.500,522.500 0.00 0,1 1041.2,1750.0 L 1041.2,1750.0 1063.1,1738.3 1085.4,1726.7 1107.9,1715.3 1130.8,1704.1 1153.9,1693.3 1177.4,1682.6 1201.1,1672.3 1225.0,1662.3 1249.2,1652.7 1273.6,1643.4 1298.3,1634.5 1323.1,1625.9 1348.2,1617.8 1373.4,1610.0 1398.8,1602.7 1424.3,1595.8 1450.0,1589.4 1475.8,1583.4 1501.7,1577.8 1527.8,1572.7 1553.9,1568.1 1580.0,1563.9 1606.2,1560.2 1632.5,1557.0 1658.8,1554.2 1685.0,1551.8 1711.3,1549.9 1737.6,1548.4 1763.7,1547.4 1789.9,1546.8 1815.9,1546.6 1841.9,1546.9 1867.7,1547.5 1893.4,1548.5 1918.9,1549.8 1944.3,1551.6 1969.5,1553.6 1994.5,1555.9 2019.2,1558.6  Z" style="stroke-width: 0.5;  stroke: rgb(0,0,0); fill: rgb(179,177,178);" />
<path d="M 1803.074,1074.380 A 522.500,522.500 0.00 0,1 1845.7,1108.2 L 1845.7,1108.2 1830.4,1125.2 1814.6,1141.9 1798.2,1158.4 1781.4,1174.5 1764.1,1190.2 1746.3,1205.4 1728.0,1220.1 1709.3,1234.2 1690.2,1247.7 1670.7,1260.5 1650.8,1272.6 1630.5,1284.0 1609.9,1294.6 1588.9,1304.3 1567.7,1313.3 1546.1,1321.3 1524.3,1328.5 1502.2,1334.8 1479.9,1340.2 1457.4,1344.7 1434.8,1348.2 1412.0,1350.8 1389.1,1352.5 1366.1,1353.3 1343.0,1353.2 1319.9,1352.2 1296.8,1350.3 1273.7,1347.6 1250.7,1344.0 1227.8,1339.6 1204.9,1334.5 1182.3,1328.6 1159.8,1322.0 1137.5,1314.7 1115.5,1306.8 1093.8,1298.4 1072.4,1289.4 1051.4,1280.0 1030.8,1270.2  A 522.500,522.500 0.00 0,1 1057.2,1222.6 L 1057.2,1222.6 1076.3,1234.2 1095.7,1245.4 1115.5,1256.2 1135.7,1266.4 1156.2,1276.0 1176.9,1285.0 1197.9,1293.2 1219.0,1300.7 1240.3,1307.4 1261.7,1313.2 1283.1,1318.1 1304.6,1322.1 1326.2,1325.1 1347.7,1327.1 1369.1,1328.2 1390.5,1328.2 1411.8,1327.2 1432.9,1325.2 1453.9,1322.1 1474.6,1318.0 1495.2,1312.8 1515.5,1306.6 1535.5,1299.4 1555.2,1291.2 1574.7,1282.0 1593.7,1271.9 1612.5,1260.9 1630.8,1249.0 1648.8,1236.2 1666.3,1222.7 1683.5,1208.4 1700.1,1193.4 1716.3,1177.8 1732.1,1161.6 1747.3,1144.9 1762.0,1127.7 1776.2,1110.2 1789.9,1092.4 1803.1,1074.4  Z" style="stroke-width: 0.5;  stroke: rgb(0,0,0); fill: rgb(179,177,178);" />
<path d="M 1889.306,1848.492 A 522.500,522.500 0.00 0,1 1851.3,1886.8 L 1851.3,1886.8 1836.7,1871.1 1821.6,1855.6 1806.1,1840.6 1790.3,1826.1 1774.1,1812.2 1757.6,1799.0 1740.8,1786.5 1723.8,1774.9 1706.6,1764.1 1689.3,1754.3 1671.8,1745.5 1654.1,1737.8 1636.4,1731.1 1618.7,1725.6 1600.9,1721.2 1583.1,1718.0 1565.3,1716.1 1547.6,1715.3 1530.0,1715.8 1512.5,1717.5 1495.1,1720.5 1477.9,1724.6 1460.9,1730.0 1444.0,1736.6 1427.4,1744.3 1411.1,1753.2 1395.0,1763.2 1379.2,1774.2 1363.8,1786.3 1348.6,1799.3 1333.8,1813.2 1319.4,1827.9 1305.4,1843.4 1291.8,1859.5 1278.7,1876.3 1265.9,1893.6 1253.7,1911.4 1241.9,1929.4 1230.6,1947.7  A 522.500,522.500 0.00 0,1 1186.1,1917.7 L 1186.1,1917.7 1199.5,1900.3 1213.4,1883.2 1227.8,1866.4 1242.7,1850.0 1258.1,1834.1 1273.8,1818.8 1290.0,1804.2 1306.6,1790.2 1323.6,1777.1 1341.0,1764.8 1358.7,1753.3 1376.7,1742.8 1395.0,1733.3 1413.5,1724.8 1432.3,1717.3 1451.4,1710.9 1470.6,1705.6 1490.0,1701.4 1509.6,1698.3 1529.3,1696.4 1549.1,1695.6 1568.9,1695.9 1588.8,1697.4 1608.8,1699.9 1628.7,1703.6 1648.5,1708.3 1668.3,1714.1 1688.0,1720.9 1707.6,1728.7 1727.0,1737.4 1746.2,1747.0 1765.2,1757.4 1784.0,1768.6 1802.5,1780.5 1820.6,1793.1 1838.4,1806.3 1855.8,1820.0 1872.8,1834.1 1889.3,1848.5  Z" style="stroke-width: 0.5;  stroke: rgb(0,0,0); fill: rgb(179,177,178);" />
<path d="M 2014.160,1407.016 A 522.500,522.500 0.00 0,1 2020.6,1455.7 L 2020.6,1455.7 1994.6,1458.0 1968.5,1460.4 1942.3,1462.9 1916.0,1465.5 1889.7,1468.3 1863.4,1471.3 1836.9,1474.3 1810.5,1477.6 1784.0,1481.0 1757.4,1484.5 1730.9,1488.2 1704.3,1492.0 1677.7,1496.0 1651.1,1500.2 1624.6,1504.5 1598.0,1509.0 1571.4,1513.7 1544.8,1518.5 1518.3,1523.5 1491.8,1528.6 1465.3,1534.0 1438.9,1539.4 1412.5,1545.1 1386.2,1550.8 1359.9,1556.8 1333.7,1562.9 1307.6,1569.1 1281.5,1575.5 1255.5,1582.0 1229.6,1588.7 1203.7,1595.5 1178.0,1602.4 1152.3,1609.4 1126.8,1616.6 1101.3,1623.8 1076.0,1631.2 1050.8,1638.7 1025.7,1646.2 1000.7,1653.9  A 522.500,522.500 0.00 0,1 988.5,1606.8 L 988.5,1606.8 1014.7,1601.3 1040.8,1595.9 1067.0,1590.5 1093.2,1585.0 1119.4,1579.6 1145.6,1574.3 1171.9,1568.9 1198.1,1563.5 1224.4,1558.2 1250.7,1552.9 1276.9,1547.6 1303.2,1542.3 1329.5,1537.0 1355.8,1531.8 1382.1,1526.5 1408.5,1521.3 1434.8,1516.1 1461.1,1511.0 1487.5,1505.8 1513.8,1500.7 1540.1,1495.6 1566.5,1490.5 1592.8,1485.4 1619.2,1480.4 1645.6,1475.3 1671.9,1470.3 1698.3,1465.3 1724.6,1460.4 1751.0,1455.4 1777.3,1450.5 1803.6,1445.6 1830.0,1440.7 1856.3,1435.8 1882.6,1431.0 1909.0,1426.2 1935.3,1421.3 1961.6,1416.6 1987.9,1411.8 2014.2,1407.0  Z" style="stroke-width: 0.5;  stroke: rgb(0,0,0); fill: rgb(179,177,178);" />
<path d="M 2004.858,1634.627 A 522.500,522.500 0.00 0,1 1990.0,1681.3 L 1990.0,1681.3 1968.2,1673.5 1945.9,1666.1 1923.4,1659.1 1900.5,1652.6 1877.4,1646.7 1854.0,1641.4 1830.5,1636.7 1806.8,1632.6 1783.0,1629.3 1759.0,1626.6 1735.1,1624.7 1711.0,1623.6 1687.0,1623.2 1663.0,1623.7 1639.1,1624.9 1615.2,1627.0 1591.4,1629.9 1567.8,1633.6 1544.3,1638.2 1521.0,1643.6 1497.9,1649.8 1475.0,1656.9 1452.4,1664.7 1430.1,1673.3 1408.0,1682.8 1386.2,1692.9 1364.8,1703.8 1343.8,1715.4 1323.1,1727.6 1302.7,1740.5 1282.8,1754.0 1263.3,1768.1 1244.3,1782.7 1225.6,1797.7 1207.5,1813.2 1189.8,1829.1 1172.6,1845.3 1155.9,1861.7 1139.7,1878.4  A 522.500,522.500 0.00 0,1 1105.8,1842.9 L 1105.8,1842.9 1123.8,1827.5 1142.4,1812.2 1161.4,1797.3 1180.8,1782.6 1200.7,1768.2 1221.0,1754.3 1241.6,1740.7 1262.7,1727.6 1284.1,1715.1 1305.9,1703.0 1328.1,1691.5 1350.5,1680.5 1373.3,1670.2 1396.4,1660.5 1419.7,1651.4 1443.3,1643.0 1467.1,1635.2 1491.1,1628.2 1515.4,1621.8 1539.8,1616.2 1564.3,1611.2 1589.0,1607.0 1613.8,1603.5 1638.7,1600.7 1663.6,1598.6 1688.6,1597.1 1713.6,1596.4 1738.6,1596.4 1763.5,1597.0 1788.4,1598.2 1813.2,1600.1 1837.9,1602.6 1862.4,1605.7 1886.8,1609.3 1910.9,1613.4 1934.8,1618.1 1958.5,1623.2 1981.8,1628.7 2004.9,1634.6  Z" style="stroke-width: 0.5;  stroke: rgb(0,0,0); fill: rgb(179,177,178);" />
<path d="M 1773.480,1054.786 A 522.500,522.500 0.00 0,1 1803.1,1074.4 L 1803.1,1074.4 1790.0,1092.4 1776.3,1110.2 1762.1,1127.7 1747.3,1144.9 1732.1,1161.6 1716.4,1177.7 1700.2,1193.4 1683.5,1208.3 1666.4,1222.6 1648.9,1236.1 1630.9,1248.9 1612.6,1260.7 1593.9,1271.7 1574.8,1281.8 1555.4,1291.0 1535.7,1299.1 1515.7,1306.3 1495.4,1312.5 1474.9,1317.6 1454.1,1321.7 1433.2,1324.7 1412.1,1326.7 1390.8,1327.7 1369.5,1327.6 1348.1,1326.5 1326.6,1324.4 1305.1,1321.3 1283.6,1317.2 1262.2,1312.3 1240.8,1306.4 1219.6,1299.7 1198.5,1292.1 1177.6,1283.8 1156.9,1274.8 1136.5,1265.1 1116.4,1254.9 1096.6,1244.0 1077.2,1232.8 1058.2,1221.1  A 522.500,522.500 0.00 0,1 1078.3,1191.5 L 1078.3,1191.5 1096.2,1204.3 1114.5,1216.6 1133.1,1228.5 1152.2,1239.9 1171.5,1250.6 1191.0,1260.7 1210.8,1270.0 1230.8,1278.6 1250.9,1286.2 1271.1,1293.0 1291.3,1298.8 1311.7,1303.7 1332.0,1307.5 1352.2,1310.3 1372.5,1312.0 1392.6,1312.6 1412.6,1312.1 1432.4,1310.5 1452.1,1307.8 1471.6,1304.0 1490.8,1299.0 1509.8,1293.0 1528.5,1285.9 1546.8,1277.7 1564.9,1268.4 1582.6,1258.2 1600.0,1247.0 1616.9,1234.8 1633.5,1221.7 1649.6,1207.8 1665.3,1193.1 1680.6,1177.7 1695.3,1161.5 1709.6,1144.8 1723.4,1127.5 1736.7,1109.8 1749.5,1091.7 1761.8,1073.4 1773.5,1054.8  Z" style="stroke-width: 0.5;  stroke: rgb(0,0,0); fill: rgb(179,177,178);" />
<path d="M 2007.620,1623.809 A 522.500,522.500 0.00 0,1 1998.6,1656.2 L 1998.6,1656.2 1975.9,1649.3 1952.8,1642.8 1929.5,1636.7 1905.8,1631.1 1881.9,1625.9 1857.8,1621.3 1833.5,1617.2 1809.0,1613.7 1784.3,1610.9 1759.6,1608.6 1734.7,1607.0 1709.8,1606.1 1684.9,1605.8 1660.0,1606.3 1635.0,1607.4 1610.1,1609.3 1585.3,1611.9 1560.5,1615.2 1535.9,1619.3 1511.4,1624.0 1487.0,1629.5 1462.8,1635.7 1438.8,1642.6 1415.1,1650.2 1391.5,1658.5 1368.2,1667.4 1345.2,1677.0 1322.4,1687.2 1300.0,1697.9 1277.9,1709.3 1256.1,1721.2 1234.7,1733.6 1213.7,1746.5 1193.1,1759.8 1172.8,1773.5 1153.0,1787.6 1133.6,1802.0 1114.7,1816.7 1096.2,1831.6  A 522.500,522.500 0.00 0,1 1075.7,1804.9 L 1075.7,1804.9 1095.4,1791.0 1115.5,1777.3 1136.0,1763.9 1157.0,1750.7 1178.3,1737.9 1199.9,1725.4 1222.0,1713.4 1244.3,1701.8 1267.0,1690.6 1290.0,1679.9 1313.3,1669.7 1336.8,1660.0 1360.7,1650.9 1384.7,1642.4 1409.0,1634.4 1433.5,1627.0 1458.2,1620.3 1483.0,1614.1 1508.1,1608.6 1533.2,1603.7 1558.5,1599.5 1583.8,1595.9 1609.2,1592.9 1634.7,1590.5 1660.2,1588.8 1685.7,1587.7 1711.2,1587.3 1736.7,1587.4 1762.1,1588.1 1787.4,1589.4 1812.6,1591.3 1837.7,1593.7 1862.7,1596.7 1887.4,1600.1 1912.0,1604.0 1936.3,1608.3 1960.4,1613.1 1984.1,1618.3 2007.6,1623.8  Z" style="stroke-width: 0.5;  stroke: rgb(0,0,0); fill: rgb(179,177,178);" />
<path d="M 2020.619,1455.706 A 522.500,522.500 0.00 0,1 2022.3,1485.9 L 2022.3,1485.9 1996.6,1486.7 1970.7,1487.7 1944.7,1488.8 1918.6,1490.1 1892.4,1491.7 1866.1,1493.5 1839.8,1495.4 1813.3,1497.7 1786.9,1500.1 1760.3,1502.8 1733.8,1505.7 1707.2,1508.8 1680.6,1512.2 1654.0,1515.9 1627.4,1519.8 1600.8,1523.9 1574.2,1528.3 1547.6,1533.0 1521.1,1537.9 1494.6,1543.1 1468.2,1548.5 1441.9,1554.1 1415.6,1560.0 1389.4,1566.1 1363.2,1572.5 1337.2,1579.1 1311.3,1586.0 1285.4,1593.0 1259.7,1600.3 1234.1,1607.7 1208.7,1615.4 1183.4,1623.3 1158.2,1631.3 1133.2,1639.6 1108.3,1648.0 1083.6,1656.5 1059.1,1665.2 1034.7,1674.0 1010.6,1683.0  A 522.500,522.500 0.00 0,1 1000.9,1654.7 L 1000.9,1654.7 1025.9,1647.1 1051.0,1639.5 1076.2,1631.9 1101.5,1624.5 1127.0,1617.2 1152.5,1610.0 1178.1,1603.0 1203.9,1596.0 1229.7,1589.2 1255.6,1582.5 1281.6,1575.9 1307.7,1569.5 1333.8,1563.3 1360.0,1557.1 1386.3,1551.2 1412.6,1545.3 1439.0,1539.7 1465.4,1534.2 1491.9,1528.9 1518.4,1523.7 1544.9,1518.7 1571.5,1513.8 1598.0,1509.2 1624.6,1504.6 1651.2,1500.3 1677.8,1496.1 1704.4,1492.1 1730.9,1488.2 1757.5,1484.5 1784.0,1481.0 1810.5,1477.6 1837.0,1474.4 1863.4,1471.3 1889.7,1468.3 1916.1,1465.6 1942.3,1462.9 1968.5,1460.4 1994.6,1458.0 2020.6,1455.7  Z" style="stroke-width: 0.5;  stroke: rgb(0,0,0); fill: rgb(179,177,178);" />
<path d="M 2021.682,1529.226 A 522.500,522.500 0.00 0,1 2019.3,1557.5 L 2019.3,1557.5 1994.6,1554.9 1969.6,1552.6 1944.4,1550.6 1919.0,1549.0 1893.4,1547.6 1867.7,1546.7 1841.9,1546.1 1815.9,1545.9 1789.9,1546.2 1763.8,1546.8 1737.6,1547.8 1711.3,1549.3 1685.0,1551.3 1658.8,1553.6 1632.5,1556.5 1606.2,1559.8 1580.0,1563.5 1553.8,1567.7 1527.7,1572.3 1501.7,1577.4 1475.8,1583.0 1449.9,1589.0 1424.2,1595.5 1398.7,1602.4 1373.3,1609.7 1348.1,1617.4 1323.0,1625.5 1298.1,1634.1 1273.5,1643.0 1249.1,1652.3 1224.9,1661.9 1200.9,1671.9 1177.2,1682.2 1153.8,1692.8 1130.6,1703.7 1107.7,1714.8 1085.1,1726.2 1062.9,1737.8 1040.9,1749.5  A 522.500,522.500 0.00 0,1 1028.1,1724.3 L 1028.1,1724.3 1050.9,1713.6 1074.0,1703.0 1097.4,1692.6 1121.0,1682.5 1144.9,1672.5 1169.0,1662.8 1193.3,1653.3 1217.9,1644.1 1242.6,1635.2 1267.6,1626.6 1292.7,1618.3 1318.0,1610.3 1343.4,1602.6 1369.0,1595.3 1394.8,1588.3 1420.7,1581.7 1446.6,1575.4 1472.7,1569.5 1498.9,1564.0 1525.2,1558.8 1551.5,1554.1 1577.9,1549.7 1604.3,1545.6 1630.8,1542.0 1657.3,1538.7 1683.7,1535.8 1710.2,1533.3 1736.6,1531.1 1763.0,1529.3 1789.4,1527.9 1815.7,1526.8 1841.9,1526.0 1868.0,1525.6 1894.0,1525.5 1919.8,1525.7 1945.5,1526.1 1971.1,1526.9 1996.5,1527.9 2021.7,1529.2  Z" style="stroke-width: 0.5;  stroke: rgb(0,0,0); fill: rgb(179,177,178);" />
<path d="M 1668.306,1005.349 A 522.500,522.500 0.00 0,1 1694.5,1015.1 L 1694.5,1015.1 1686.4,1034.7 1677.8,1054.1 1668.7,1073.3 1659.1,1092.1 1649.0,1110.5 1638.5,1128.2 1627.5,1145.3 1616.0,1161.6 1604.1,1177.2 1591.7,1191.8 1578.9,1205.5 1565.7,1218.2 1552.2,1229.8 1538.2,1240.2 1523.8,1249.6 1509.2,1257.7 1494.1,1264.7 1478.8,1270.4 1463.2,1274.8 1447.3,1278.0 1431.2,1279.9 1414.9,1280.5 1398.3,1279.9 1381.6,1278.0 1364.8,1274.9 1347.9,1270.6 1330.9,1265.2 1313.8,1258.5 1296.8,1250.8 1279.7,1242.1 1262.7,1232.3 1245.9,1221.7 1229.1,1210.1 1212.6,1197.8 1196.2,1184.8 1180.1,1171.1 1164.3,1156.9 1148.9,1142.2 1133.8,1127.3  A 522.500,522.500 0.00 0,1 1154.3,1108.2 L 1154.3,1108.2 1168.4,1123.8 1182.9,1139.1 1197.7,1154.0 1212.7,1168.3 1228.0,1182.1 1243.5,1195.1 1259.2,1207.3 1275.0,1218.6 1290.8,1229.0 1306.7,1238.3 1322.6,1246.6 1338.5,1253.8 1354.3,1259.8 1370.0,1264.6 1385.6,1268.2 1401.1,1270.5 1416.4,1271.5 1431.4,1271.2 1446.3,1269.6 1460.9,1266.6 1475.2,1262.4 1489.3,1256.9 1503.0,1250.1 1516.4,1242.0 1529.4,1232.7 1542.1,1222.2 1554.4,1210.6 1566.3,1197.9 1577.7,1184.1 1588.8,1169.3 1599.4,1153.7 1609.6,1137.1 1619.4,1119.9 1628.7,1101.9 1637.5,1083.3 1645.9,1064.3 1653.9,1044.9 1661.3,1025.2 1668.3,1005.3  Z" style="stroke-width: 0.5;  stroke: rgb(0,0,0); fill: rgb(179,177,178);" />
<path d="M 1847.957,1889.785 A 522.500,522.500 0.00 0,1 1829.6,1905.4 L 1829.6,1905.4 1816.0,1889.1 1801.9,1873.1 1787.5,1857.4 1772.8,1842.3 1757.7,1827.8 1742.3,1813.9 1726.7,1800.8 1710.8,1788.6 1694.8,1777.3 1678.6,1766.9 1662.3,1757.6 1645.8,1749.4 1629.3,1742.3 1612.8,1736.3 1596.2,1731.6 1579.7,1728.1 1563.2,1725.9 1546.7,1724.9 1530.3,1725.2 1514.1,1726.8 1498.0,1729.7 1482.0,1733.9 1466.3,1739.3 1450.7,1745.9 1435.4,1753.8 1420.3,1762.8 1405.5,1773.0 1391.0,1784.3 1376.8,1796.6 1362.9,1809.9 1349.4,1824.1 1336.2,1839.2 1323.4,1855.1 1311.0,1871.6 1299.1,1888.8 1287.5,1906.6 1276.5,1924.7 1265.8,1943.2 1255.7,1961.9  A 522.500,522.500 0.00 0,1 1234.5,1950.0 L 1234.5,1950.0 1245.6,1931.7 1257.2,1913.5 1269.3,1895.7 1281.8,1878.4 1294.8,1861.5 1308.2,1845.3 1322.0,1829.7 1336.2,1814.9 1350.8,1801.0 1365.8,1787.9 1381.0,1775.9 1396.6,1764.8 1412.5,1754.8 1428.7,1745.9 1445.1,1738.1 1461.7,1731.5 1478.5,1726.1 1495.6,1722.0 1512.8,1719.0 1530.1,1717.3 1547.5,1716.9 1565.0,1717.6 1582.6,1719.7 1600.2,1722.9 1617.8,1727.3 1635.4,1732.9 1652.9,1739.6 1670.3,1747.5 1687.7,1756.3 1704.8,1766.2 1721.9,1777.1 1738.7,1788.8 1755.3,1801.4 1771.6,1814.7 1787.6,1828.7 1803.3,1843.3 1818.6,1858.4 1833.5,1874.0 1848.0,1889.8  Z" style="stroke-width: 0.5;  stroke: rgb(0,0,0); fill: rgb(179,177,178);" />
<path d="M 2022.328,1486.610 A 522.500,522.500 0.00 0,1 2022.4,1510.7 L 2022.4,1510.7 1996.9,1510.2 1971.3,1510.1 1945.6,1510.1 1919.6,1510.4 1893.6,1511.0 1867.5,1511.8 1841.3,1512.9 1814.9,1514.3 1788.6,1515.9 1762.1,1517.9 1735.6,1520.2 1709.1,1522.8 1682.5,1525.7 1656.0,1528.9 1629.4,1532.5 1602.9,1536.3 1576.4,1540.5 1549.9,1545.0 1523.5,1549.9 1497.1,1555.0 1470.8,1560.5 1444.5,1566.3 1418.4,1572.4 1392.4,1578.9 1366.4,1585.6 1340.6,1592.6 1314.9,1599.9 1289.4,1607.5 1264.0,1615.4 1238.7,1623.6 1213.7,1632.0 1188.8,1640.6 1164.1,1649.5 1139.6,1658.6 1115.2,1667.9 1091.1,1677.4 1067.3,1687.0 1043.6,1696.9 1020.2,1706.8  A 522.500,522.500 0.00 0,1 1011.2,1684.6 L 1011.2,1684.6 1035.3,1675.6 1059.6,1666.7 1084.1,1658.0 1108.8,1649.3 1133.6,1640.9 1158.6,1632.6 1183.7,1624.5 1209.0,1616.5 1234.5,1608.8 1260.0,1601.3 1285.7,1593.9 1311.5,1586.8 1337.4,1580.0 1363.4,1573.3 1389.6,1566.9 1415.8,1560.7 1442.0,1554.8 1468.4,1549.1 1494.8,1543.7 1521.3,1538.5 1547.8,1533.5 1574.3,1528.9 1600.9,1524.4 1627.5,1520.3 1654.1,1516.4 1680.7,1512.7 1707.3,1509.3 1733.9,1506.2 1760.5,1503.3 1787.0,1500.6 1813.4,1498.2 1839.9,1496.0 1866.2,1494.0 1892.5,1492.3 1918.7,1490.7 1944.7,1489.4 1970.7,1488.3 1996.6,1487.4 2022.3,1486.6  Z" style="stroke-width: 0.5;  stroke: rgb(0,0,0); fill: rgb(179,177,178);" />
<path d="M 1745.527,1961.219 A 522.500,522.500 0.00 0,1 1725.0,1971.6 L 1725.0,1971.6 1716.0,1953.1 1706.7,1934.9 1697.2,1917.0 1687.4,1899.6 1677.3,1882.8 1667.1,1866.7 1656.8,1851.5 1646.2,1837.1 1635.6,1823.6 1624.9,1811.3 1614.1,1800.0 1603.3,1790.0 1592.5,1781.2 1581.7,1773.7 1570.9,1767.6 1560.1,1762.8 1549.4,1759.4 1538.8,1757.5 1528.3,1757.0 1517.9,1757.9 1507.7,1760.3 1497.6,1764.1 1487.6,1769.3 1477.9,1775.9 1468.4,1783.9 1459.0,1793.2 1449.9,1803.8 1441.1,1815.6 1432.5,1828.5 1424.1,1842.6 1416.1,1857.7 1408.3,1873.7 1400.8,1890.6 1393.6,1908.3 1386.7,1926.6 1380.2,1945.5 1374.0,1964.7 1368.0,1984.3 1362.5,2004.1  A 522.500,522.500 0.00 0,1 1340.4,1997.5 L 1340.4,1997.5 1346.9,1977.9 1353.7,1958.5 1360.9,1939.4 1368.5,1920.7 1376.4,1902.6 1384.7,1885.1 1393.2,1868.3 1402.1,1852.4 1411.3,1837.5 1420.8,1823.5 1430.5,1810.7 1440.5,1798.9 1450.8,1788.4 1461.3,1779.1 1472.0,1771.2 1483.0,1764.6 1494.1,1759.3 1505.4,1755.5 1516.8,1753.0 1528.4,1752.0 1540.1,1752.3 1551.9,1754.1 1563.8,1757.3 1575.7,1761.9 1587.7,1767.8 1599.7,1775.1 1611.7,1783.6 1623.6,1793.4 1635.5,1804.3 1647.3,1816.3 1659.0,1829.4 1670.6,1843.5 1682.0,1858.4 1693.2,1874.2 1704.2,1890.6 1715.0,1907.7 1725.5,1925.2 1735.7,1943.1 1745.5,1961.2  Z" style="stroke-width: 0.5;  stroke: rgb(0,0,0); fill: rgb(179,177,178);" />
<path d="M 1603.398,987.833 A 522.500,522.500 0.00 0,1 1622.6,992.1 L 1622.6,992.1 1617.5,1012.3 1612.0,1032.4 1606.0,1052.3 1599.5,1071.8 1592.6,1090.8 1585.2,1109.2 1577.4,1127.0 1569.1,1144.0 1560.4,1160.2 1551.2,1175.4 1541.5,1189.6 1531.4,1202.8 1520.8,1214.9 1509.9,1225.8 1498.5,1235.5 1486.7,1243.9 1474.5,1251.1 1462.0,1256.9 1449.1,1261.5 1435.9,1264.7 1422.3,1266.6 1408.5,1267.1 1394.4,1266.3 1380.0,1264.2 1365.4,1260.9 1350.7,1256.2 1335.8,1250.3 1320.8,1243.2 1305.7,1235.0 1290.5,1225.7 1275.3,1215.4 1260.1,1204.1 1245.0,1191.9 1230.0,1178.9 1215.2,1165.1 1200.5,1150.8 1186.0,1135.9 1171.9,1120.6 1158.1,1104.9  A 522.500,522.500 0.00 0,1 1173.1,1092.4 L 1173.1,1092.4 1186.3,1108.4 1199.7,1124.2 1213.4,1139.5 1227.4,1154.4 1241.5,1168.5 1255.7,1182.0 1270.0,1194.7 1284.4,1206.4 1298.7,1217.2 1313.1,1226.9 1327.3,1235.6 1341.5,1243.0 1355.5,1249.3 1369.4,1254.3 1383.0,1258.1 1396.4,1260.5 1409.6,1261.6 1422.5,1261.3 1435.1,1259.7 1447.4,1256.7 1459.3,1252.4 1470.9,1246.7 1482.1,1239.7 1492.9,1231.4 1503.4,1221.8 1513.4,1211.0 1522.9,1199.0 1532.1,1185.8 1540.8,1171.6 1549.1,1156.4 1556.9,1140.2 1564.2,1123.2 1571.1,1105.4 1577.6,1086.9 1583.6,1067.8 1589.2,1048.2 1594.4,1028.3 1599.1,1008.1 1603.4,987.8  Z" style="stroke-width: 0.5;  stroke: rgb(0,0,0); fill: rgb(179,177,178);" />
<path d="M 2022.328,1513.411 A 522.500,522.500 0.00 0,1 2021.8,1527.6 L 2021.8,1527.6 1996.5,1526.4 1971.1,1525.5 1945.5,1524.8 1919.8,1524.3 1893.9,1524.2 1867.9,1524.4 1841.8,1524.9 1815.6,1525.7 1789.3,1526.8 1762.9,1528.3 1736.5,1530.2 1710.1,1532.3 1683.6,1534.9 1657.1,1537.8 1630.6,1541.1 1604.2,1544.8 1577.7,1548.8 1551.3,1553.2 1525.0,1558.0 1498.7,1563.1 1472.5,1568.6 1446.4,1574.5 1420.4,1580.7 1394.5,1587.3 1368.7,1594.3 1343.1,1601.6 1317.6,1609.2 1292.3,1617.1 1267.1,1625.4 1242.2,1633.9 1217.4,1642.8 1192.8,1651.9 1168.4,1661.3 1144.3,1671.0 1120.4,1680.8 1096.7,1690.9 1073.2,1701.2 1050.1,1711.7 1027.2,1722.3  A 522.500,522.500 0.00 0,1 1021.1,1708.9 L 1021.1,1708.9 1044.4,1698.8 1068.0,1688.9 1091.8,1679.2 1115.9,1669.6 1140.1,1660.2 1164.6,1651.0 1189.3,1642.1 1214.1,1633.4 1239.2,1625.0 1264.4,1616.8 1289.7,1608.8 1315.3,1601.2 1340.9,1593.9 1366.7,1586.8 1392.6,1580.1 1418.6,1573.6 1444.8,1567.5 1471.0,1561.7 1497.3,1556.2 1523.7,1551.1 1550.1,1546.3 1576.6,1541.8 1603.1,1537.6 1629.6,1533.8 1656.2,1530.3 1682.7,1527.1 1709.2,1524.3 1735.8,1521.8 1762.2,1519.6 1788.7,1517.7 1815.1,1516.1 1841.4,1514.8 1867.6,1513.8 1893.7,1513.1 1919.7,1512.7 1945.6,1512.5 1971.3,1512.6 1996.9,1512.9 2022.3,1513.4  Z" style="stroke-width: 0.5;  stroke: rgb(0,0,0); fill: rgb(179,177,178);" />
<path d="M 1710.752,1978.111 A 522.500,522.500 0.00 0,1 1701.3,1982.2 L 1701.3,1982.2 1693.3,1963.4 1685.0,1944.8 1676.5,1926.6 1667.8,1908.9 1659.0,1891.7 1649.9,1875.3 1640.7,1859.6 1631.5,1844.9 1622.1,1831.1 1612.7,1818.5 1603.2,1806.9 1593.8,1796.6 1584.3,1787.5 1574.8,1779.8 1565.4,1773.4 1556.1,1768.4 1546.8,1764.9 1537.6,1762.7 1528.6,1762.1 1519.6,1762.9 1510.8,1765.2 1502.2,1768.9 1493.7,1774.1 1485.4,1780.7 1477.3,1788.7 1469.4,1798.1 1461.8,1808.7 1454.3,1820.6 1447.1,1833.7 1440.2,1847.8 1433.5,1863.1 1427.0,1879.3 1420.9,1896.3 1415.0,1914.1 1409.4,1932.6 1404.0,1951.6 1399.0,1971.1 1394.2,1990.8 1389.8,2010.7  A 522.500,522.500 0.00 0,1 1379.0,2008.3 L 1379.0,2008.3 1383.9,1988.4 1389.1,1968.8 1394.6,1949.4 1400.4,1930.4 1406.5,1912.0 1412.9,1894.2 1419.6,1877.2 1426.6,1861.1 1433.8,1845.9 1441.3,1831.8 1449.1,1818.7 1457.1,1806.9 1465.3,1796.2 1473.8,1786.9 1482.5,1778.9 1491.3,1772.3 1500.4,1767.1 1509.6,1763.3 1519.0,1761.0 1528.5,1760.2 1538.1,1760.7 1547.9,1762.8 1557.7,1766.3 1567.6,1771.2 1577.6,1777.5 1587.6,1785.1 1597.6,1794.1 1607.6,1804.3 1617.6,1815.7 1627.5,1828.3 1637.4,1841.9 1647.1,1856.5 1656.8,1872.0 1666.3,1888.3 1675.6,1905.4 1684.8,1923.0 1693.7,1941.0 1702.4,1959.5 1710.8,1978.1  Z" style="stroke-width: 0.5;  stroke: rgb(0,0,0); fill: rgb(179,177,178);" />
<path d="M 1963.687,1740.833 A 522.500,522.500 0.00 0,1 1959.1,1749.4 L 1959.1,1749.4 1939.1,1738.8 1918.6,1728.6 1897.8,1718.8 1876.6,1709.6 1855.1,1701.0 1833.3,1692.9 1811.4,1685.6 1789.2,1678.9 1766.8,1673.1 1744.4,1668.0 1721.8,1663.8 1699.2,1660.4 1676.5,1657.9 1653.9,1656.3 1631.2,1655.6 1608.7,1655.9 1586.2,1657.1 1563.8,1659.3 1541.5,1662.4 1519.5,1666.5 1497.6,1671.6 1475.9,1677.6 1454.5,1684.5 1433.3,1692.3 1412.4,1701.1 1391.8,1710.7 1371.6,1721.1 1351.7,1732.4 1332.1,1744.5 1313.0,1757.3 1294.2,1770.8 1275.9,1784.9 1258.0,1799.7 1240.6,1814.9 1223.7,1830.7 1207.2,1846.9 1191.2,1863.5 1175.8,1880.4 1160.9,1897.5  A 522.500,522.500 0.00 0,1 1153.5,1891.1 L 1153.5,1891.1 1168.8,1874.2 1184.7,1857.6 1201.0,1841.2 1217.8,1825.2 1235.1,1809.6 1252.9,1794.5 1271.2,1779.9 1289.8,1765.9 1308.9,1752.6 1328.4,1739.9 1348.3,1728.0 1368.5,1716.9 1389.1,1706.5 1410.0,1696.9 1431.2,1688.3 1452.7,1680.4 1474.4,1673.5 1496.4,1667.5 1518.6,1662.4 1540.9,1658.3 1563.5,1655.1 1586.1,1652.8 1608.9,1651.5 1631.8,1651.1 1654.7,1651.6 1677.6,1653.0 1700.5,1655.3 1723.4,1658.4 1746.2,1662.4 1769.0,1667.3 1791.6,1672.9 1814.0,1679.2 1836.3,1686.3 1858.3,1694.0 1880.0,1702.3 1901.5,1711.3 1922.6,1720.7 1943.3,1730.6 1963.7,1740.8  Z" style="stroke-width: 0.5;  stroke: rgb(0,0,0); fill: rgb(179,177,178);" />
<path d="M 1536.037,978.744 A 522.500,522.500 0.00 0,1 1545.6,979.5 L 1545.6,979.5 1543.7,1000.0 1541.3,1020.3 1538.6,1040.4 1535.5,1060.2 1531.9,1079.5 1527.9,1098.2 1523.5,1116.2 1518.6,1133.4 1513.2,1149.8 1507.4,1165.2 1501.1,1179.6 1494.4,1192.9 1487.2,1205.1 1479.5,1216.0 1471.3,1225.7 1462.7,1234.1 1453.7,1241.1 1444.2,1246.8 1434.3,1251.2 1424.0,1254.1 1413.3,1255.7 1402.3,1255.8 1390.8,1254.6 1379.1,1252.1 1367.1,1248.2 1354.8,1243.0 1342.2,1236.5 1329.4,1228.8 1316.5,1219.9 1303.4,1209.9 1290.2,1198.8 1276.9,1186.8 1263.6,1173.9 1250.3,1160.1 1237.1,1145.6 1224.0,1130.5 1211.0,1114.9 1198.3,1098.9 1185.8,1082.5  A 522.500,522.500 0.00 0,1 1193.5,1076.8 L 1193.5,1076.8 1205.7,1093.4 1218.1,1109.6 1230.7,1125.4 1243.4,1140.7 1256.3,1155.4 1269.2,1169.4 1282.1,1182.6 1294.9,1194.8 1307.7,1206.1 1320.4,1216.3 1332.9,1225.4 1345.2,1233.3 1357.3,1240.0 1369.2,1245.4 1380.7,1249.5 1392.0,1252.2 1402.9,1253.6 1413.5,1253.6 1423.7,1252.1 1433.5,1249.3 1442.9,1245.1 1451.9,1239.5 1460.5,1232.6 1468.6,1224.3 1476.2,1214.7 1483.4,1203.9 1490.1,1191.8 1496.4,1178.6 1502.2,1164.2 1507.5,1148.9 1512.4,1132.5 1516.8,1115.3 1520.8,1097.3 1524.4,1078.6 1527.5,1059.4 1530.2,1039.6 1532.5,1019.5 1534.5,999.2 1536.0,978.7  Z" style="stroke-width: 0.5;  stroke: rgb(0,0,0); fill: rgb(179,177,178);" />
</g>
<g id="plot0">
<g id="plot0-axis">
</g>
<line x1='2243.5' y1='1598.3' x2='2243.5' y2='1598.3' style="stroke-width:14.0;stroke:rgb(0,0,0);stroke-linecap:round;fill:none;" />
<line x1='2243.5' y1='1598.3' x2='2283.2' y2='1603.5' style="stroke-width:14.0;stroke:rgb(0,0,0);stroke-linecap:round;fill:none;" />
<line x1='2283.2' y1='1603.5' x2='2283.2' y2='1603.5' style="stroke-width:14.0;stroke:rgb(0,0,0);stroke-linecap:round;fill:none;" />
<text x="2299.8" y="1627.9" font-size="46.8px" font-family="CMUBright-Roman" style="text-anchor:start;fill:rgb(255,38,78);" transform="rotate(7.5,2299.8,1627.9)" >HistocapES288Z<tspan baseline-shift="-40%" font-size="90%">s</tspan>00774</text>
</g>
<defs>
<pattern id="vline-sparse" width="10" height="10" patternTransform="rotate(0 0 0)" patternUnits="userSpaceOnUse"><line x1="0" y1="0" x2="0" y2="10" style="stroke:black;stroke-width:2" /></pattern>
<pattern id="checker" width="10" height="10" patternTransform="rotate(45 0 0)" patternUnits="userSpaceOnUse"><line x1="0" y1="0" x2="10" y2="0" style="stroke:black;stroke-width:2" /><line x1="0" y1="0" x2="0" y2="10" style="stroke:black;stroke-width:2" /></pattern>
<pattern id="hline-sparse" width="10" height="10" patternTransform="rotate(0 0 0)" patternUnits="userSpaceOnUse"><line x1="0" y1="0" x2="10" y2="0" style="stroke:black;stroke-width:2" /></pattern>
<pattern id="vline" width="10" height="10" patternTransform="rotate(0 0 0)" patternUnits="userSpaceOnUse"><line x1="0" y1="0" x2="0" y2="10" style="stroke:black;stroke-width:5" /></pattern>
<pattern id="hline" width="10" height="10" patternTransform="rotate(0 0 0)" patternUnits="userSpaceOnUse"><line x1="0" y1="0" x2="10" y2="0" style="stroke:black;stroke-width:5" /></pattern>
<pattern id="checker" width="10" height="10" patternTransform="rotate(45 0 0)" patternUnits="userSpaceOnUse"><line x1="0" y1="0" x2="10" y2="0" style="stroke:black;stroke-width:5" /><line x1="0" y1="0" x2="0" y2="10" style="stroke:black;stroke-width:4" /></pattern>
</defs>
</svg>
