<?xml version="1.0" encoding="utf-8" standalone="no"?>
<!DOCTYPE svg PUBLIC "-//W3C//DTD SVG 1.1//EN" "http://www.w3.org/Graphics/SVG/1.1/DTD/svg11.dtd">
<svg width="3000px" height="3000px" version="1.1" xmlns="http://www.w3.org/2000/svg" xmlns:xlink="http://www.w3.org/1999/xlink">
<g id="bg">
<rect x="0" y="0" width="3000px" height="3000px" style="fill:rgb(255,255,255);"/>
</g>
<g id="ideograms">
<path d="M1500.000,950.000 A550.000,550.000 40.000 0,1 1702.305,2011.442 L1775.871,2197.420 A750.000,750.000 0.000 0,0 1500.000,750.000 Z" style="stroke-width:2.0;stroke:rgb(0,0,0);stroke-linecap:round;fill:rgb(179,177,178);" />
<text x="2457.8" y="1317.5" font-size="46.8px" font-family="CMUBright-Roman" style="text-anchor:middle;fill:rgb(0,0,0);" transform="rotate(439.2,2457.8,1317.5)" >HistomissSECH90<tspan baseline-shift="-40%" font-size="90%">4</tspan></text>
<line x1='1524.9' y1='750.4' x2='1525.3' y2='738.4' style="stroke-width:8.0;stroke:rgb(150,150,150);stroke-linecap:round;fill:none;" />
<text x="1539.7" y="727.0" font-size="41.6px" font-family="CMUBright-Roman" style="text-anchor:start;fill:rgb(150,150,150);" transform="rotate(271.9,1539.7,727.0)" >2300 kb</text>
<line x1='1625.7' y1='760.6' x2='1627.7' y2='748.8' style="stroke-width:8.0;stroke:rgb(150,150,150);stroke-linecap:round;fill:none;" />
<line x1='1724.3' y1='784.3' x2='1727.8' y2='772.9' style="stroke-width:8.0;stroke:rgb(150,150,150);stroke-linecap:round;fill:none;" />
<line x1='1818.7' y1='821.1' x2='1823.8' y2='810.2' style="stroke-width:8.0;stroke:rgb(150,150,150);stroke-linecap:round;fill:none;" />
<line x1='1907.3' y1='870.2' x2='1913.8' y2='860.2' style="stroke-width:8.0;stroke:rgb(150,150,150);stroke-linecap:round;fill:none;" />
<line x1='1988.5' y1='930.9' x2='1996.3' y2='921.8' style="stroke-width:8.0;stroke:rgb(150,150,150);stroke-linecap:round;fill:none;" />
<text x="2014.7" y="921.9" font-size="41.6px" font-family="CMUBright-Roman" style="text-anchor:start;fill:rgb(150,150,150);" transform="rotate(310.6,2014.7,921.9)" >2350 kb</text>
<line x1='2060.8' y1='1002.0' x2='2069.7' y2='994.0' style="stroke-width:8.0;stroke:rgb(150,150,150);stroke-linecap:round;fill:none;" />
<line x1='2122.8' y1='1082.1' x2='2132.8' y2='1075.4' style="stroke-width:8.0;stroke:rgb(150,150,150);stroke-linecap:round;fill:none;" />
<line x1='2173.4' y1='1169.9' x2='2184.2' y2='1164.6' style="stroke-width:8.0;stroke:rgb(150,150,150);stroke-linecap:round;fill:none;" />
<line x1='2211.8' y1='1263.7' x2='2223.2' y2='1259.9' style="stroke-width:8.0;stroke:rgb(150,150,150);stroke-linecap:round;fill:none;" />
<line x1='2237.2' y1='1361.8' x2='2249.0' y2='1359.6' style="stroke-width:8.0;stroke:rgb(150,150,150);stroke-linecap:round;fill:none;" />
<text x="2263.2" y="1371.2" font-size="41.6px" font-family="CMUBright-Roman" style="text-anchor:start;fill:rgb(150,150,150);" transform="rotate(349.4,2263.2,1371.2)" >2400 kb</text>
<line x1='2249.1' y1='1462.5' x2='2261.0' y2='1461.9' style="stroke-width:8.0;stroke:rgb(150,150,150);stroke-linecap:round;fill:none;" />
<line x1='2247.3' y1='1563.8' x2='2259.2' y2='1564.8' style="stroke-width:8.0;stroke:rgb(150,150,150);stroke-linecap:round;fill:none;" />
<line x1='2231.9' y1='1663.9' x2='2243.6' y2='1666.6' style="stroke-width:8.0;stroke:rgb(150,150,150);stroke-linecap:round;fill:none;" />
<line x1='2203.1' y1='1761.1' x2='2214.3' y2='1765.3' style="stroke-width:8.0;stroke:rgb(150,150,150);stroke-linecap:round;fill:none;" />
<line x1='2161.5' y1='1853.5' x2='2172.0' y2='1859.2' style="stroke-width:8.0;stroke:rgb(150,150,150);stroke-linecap:round;fill:none;" />
<text x="2175.9" y="1877.1" font-size="41.6px" font-family="CMUBright-Roman" style="text-anchor:start;fill:rgb(150,150,150);" transform="rotate(28.1,2175.9,1877.1)" >2450 kb</text>
<line x1='2107.8' y1='1939.5' x2='2117.5' y2='1946.5' style="stroke-width:8.0;stroke:rgb(150,150,150);stroke-linecap:round;fill:none;" />
<line x1='2043.0' y1='2017.4' x2='2051.6' y2='2025.7' style="stroke-width:8.0;stroke:rgb(150,150,150);stroke-linecap:round;fill:none;" />
<line x1='1968.3' y1='2085.9' x2='1975.7' y2='2095.2' style="stroke-width:8.0;stroke:rgb(150,150,150);stroke-linecap:round;fill:none;" />
<line x1='1885.0' y1='2143.6' x2='1891.2' y2='2153.9' style="stroke-width:8.0;stroke:rgb(150,150,150);stroke-linecap:round;fill:none;" />
<line x1='1794.7' y1='2189.7' x2='1799.4' y2='2200.7' style="stroke-width:8.0;stroke:rgb(150,150,150);stroke-linecap:round;fill:none;" />
<text x="1791.2" y="2217.1" font-size="41.6px" font-family="CMUBright-Roman" style="text-anchor:start;fill:rgb(150,150,150);" transform="rotate(66.9,1791.2,2217.1)" >2500 kb</text>
<g id="highlighttrack_0">
<path d="M2036.922,1380.772 A550.000,550.000 40.000 0,1 2043.135,1413.374 L2240.639,1381.874 A750.000,750.000 0.000 0,0 2232.166,1337.417 Z" style="stroke-width:14.0;stroke:rgb(0,0,0);stroke-linecap:round;fill:rgb(255,38,78);" />
</g>
<path d="M1500.000,950.000 A550.000,550.000 40.000 0,1 1702.305,2011.442 L1775.871,2197.420 A750.000,750.000 0.000 0,0 1500.000,750.000 Z" style="stroke-width:2.0;stroke:rgb(0,0,0);stroke-linecap:round;fill:none;" />
<path d="M1484.045,2049.769 A550.000,550.000 40.000 0,1 1282.943,994.642 L1204.014,810.876 A750.000,750.000 0.000 0,0 1478.243,2249.684 Z" style="stroke-width:2.0;stroke:rgb(0,0,0);stroke-linecap:round;fill:rgb(179,177,178);" />
<text x="498.0" y="1691.0" font-size="46.8px" font-family="CMUBright-Roman" style="text-anchor:middle;fill:rgb(0,0,0);" transform="rotate(79.2,498.0,1691.0)" >HistocapCB065<tspan baseline-shift="-40%" font-size="90%">4</tspan></text>
<line x1='1162.5' y1='830.2' x2='1157.1' y2='819.5' style="stroke-width:8.0;stroke:rgb(150,150,150);stroke-linecap:round;fill:none;" />
<line x1='1075.3' y1='881.9' x2='1068.5' y2='872.0' style="stroke-width:8.0;stroke:rgb(150,150,150);stroke-linecap:round;fill:none;" />
<line x1='995.8' y1='944.8' x2='987.7' y2='935.9' style="stroke-width:8.0;stroke:rgb(150,150,150);stroke-linecap:round;fill:none;" />
<line x1='925.6' y1='1017.8' x2='916.4' y2='1010.1' style="stroke-width:8.0;stroke:rgb(150,150,150);stroke-linecap:round;fill:none;" />
<text x="898.3" y="1013.2" font-size="41.6px" font-family="CMUBright-Roman" style="text-anchor:end;fill:rgb(150,150,150);" transform="rotate(40.0,898.3,1013.2)" >2850 kb</text>
<line x1='865.8' y1='1099.6' x2='855.6' y2='1093.2' style="stroke-width:8.0;stroke:rgb(150,150,150);stroke-linecap:round;fill:none;" />
<line x1='817.6' y1='1188.8' x2='806.7' y2='1183.8' style="stroke-width:8.0;stroke:rgb(150,150,150);stroke-linecap:round;fill:none;" />
<line x1='781.9' y1='1283.6' x2='770.4' y2='1280.2' style="stroke-width:8.0;stroke:rgb(150,150,150);stroke-linecap:round;fill:none;" />
<line x1='759.3' y1='1382.4' x2='747.4' y2='1380.5' style="stroke-width:8.0;stroke:rgb(150,150,150);stroke-linecap:round;fill:none;" />
<line x1='750.2' y1='1483.4' x2='738.2' y2='1483.1' style="stroke-width:8.0;stroke:rgb(150,150,150);stroke-linecap:round;fill:none;" />
<text x="726.0" y="1496.8" font-size="41.6px" font-family="CMUBright-Roman" style="text-anchor:end;fill:rgb(150,150,150);" transform="rotate(1.3,726.0,1496.8)" >2900 kb</text>
<line x1='754.8' y1='1584.6' x2='742.9' y2='1586.0' style="stroke-width:8.0;stroke:rgb(150,150,150);stroke-linecap:round;fill:none;" />
<line x1='773.0' y1='1684.3' x2='761.4' y2='1687.2' style="stroke-width:8.0;stroke:rgb(150,150,150);stroke-linecap:round;fill:none;" />
<line x1='804.5' y1='1780.6' x2='793.4' y2='1785.1' style="stroke-width:8.0;stroke:rgb(150,150,150);stroke-linecap:round;fill:none;" />
<line x1='848.7' y1='1871.8' x2='838.2' y2='1877.8' style="stroke-width:8.0;stroke:rgb(150,150,150);stroke-linecap:round;fill:none;" />
<line x1='904.7' y1='1956.2' x2='895.2' y2='1963.5' style="stroke-width:8.0;stroke:rgb(150,150,150);stroke-linecap:round;fill:none;" />
<text x="894.3" y="1981.9" font-size="41.6px" font-family="CMUBright-Roman" style="text-anchor:end;fill:rgb(150,150,150);" transform="rotate(-37.5,894.3,1981.9)" >2950 kb</text>
<line x1='971.7' y1='2032.3' x2='963.2' y2='2040.9' style="stroke-width:8.0;stroke:rgb(150,150,150);stroke-linecap:round;fill:none;" />
<line x1='1048.3' y1='2098.7' x2='1041.0' y2='2108.3' style="stroke-width:8.0;stroke:rgb(150,150,150);stroke-linecap:round;fill:none;" />
<line x1='1133.1' y1='2154.1' x2='1127.2' y2='2164.6' style="stroke-width:8.0;stroke:rgb(150,150,150);stroke-linecap:round;fill:none;" />
<line x1='1224.6' y1='2197.6' x2='1220.2' y2='2208.8' style="stroke-width:8.0;stroke:rgb(150,150,150);stroke-linecap:round;fill:none;" />
<line x1='1321.2' y1='2228.4' x2='1318.4' y2='2240.0' style="stroke-width:8.0;stroke:rgb(150,150,150);stroke-linecap:round;fill:none;" />
<text x="1329.1" y="2254.9" font-size="41.6px" font-family="CMUBright-Roman" style="text-anchor:end;fill:rgb(150,150,150);" transform="rotate(-76.2,1329.1,2254.9)" >3000 kb</text>
<line x1='1421.0' y1='2245.8' x2='1419.8' y2='2257.8' style="stroke-width:8.0;stroke:rgb(150,150,150);stroke-linecap:round;fill:none;" />
<path d="M1484.045,2049.769 A550.000,550.000 40.000 0,1 1282.943,994.642 L1204.014,810.876 A750.000,750.000 0.000 0,0 1478.243,2249.684 Z" style="stroke-width:2.0;stroke:rgb(0,0,0);stroke-linecap:round;fill:none;" />
</g>
<g id="track_0">
<path d="M 2012.881,1599.795 A 522.500,522.500 0.00 0,1 1991.2,1678.2 L 1991.2,1678.2 1969.1,1670.5 1946.7,1663.1 1923.9,1656.2 1900.9,1649.8 1877.6,1643.9 1854.1,1638.6 1830.3,1633.9 1806.4,1629.8 1782.4,1626.3 1758.2,1623.6 1734.0,1621.6 1709.7,1620.3 1685.4,1619.8 1661.1,1620.1 1636.8,1621.1 1612.6,1622.9 1588.5,1625.5 1564.5,1629.0 1540.6,1633.2 1516.9,1638.2 1493.4,1644.0 1470.0,1650.7 1446.9,1658.0 1424.1,1666.2 1401.5,1675.1 1379.2,1684.7 1357.2,1695.1 1335.5,1706.1 1314.2,1717.8 1293.2,1730.1 1272.6,1743.0 1252.4,1756.4 1232.7,1770.4 1213.3,1784.8 1194.4,1799.6 1175.9,1814.8 1158.0,1830.4 1140.5,1846.2 1123.5,1862.2  A 522.500,522.500 0.00 0,1 1071.8,1799.4 L 1071.8,1799.4 1091.8,1785.6 1112.2,1772.1 1133.0,1758.7 1154.2,1745.7 1175.8,1732.9 1197.7,1720.5 1220.0,1708.5 1242.5,1696.9 1265.4,1685.7 1288.6,1674.9 1312.1,1664.6 1335.8,1654.8 1359.8,1645.5 1384.1,1636.7 1408.5,1628.5 1433.2,1620.8 1458.0,1613.7 1483.1,1607.1 1508.2,1601.2 1533.5,1595.8 1559.0,1591.0 1584.5,1586.9 1610.1,1583.3 1635.7,1580.3 1661.4,1577.9 1687.1,1576.1 1712.9,1574.8 1738.5,1574.1 1764.2,1574.0 1789.7,1574.4 1815.2,1575.4 1840.6,1576.9 1865.8,1578.8 1890.9,1581.3 1915.7,1584.2 1940.4,1587.5 1964.8,1591.2 1989.0,1595.3 2012.9,1599.8  Z" style="stroke-width: 0.5;  stroke: rgb(0,0,0); fill: rgb(179,177,178);" />
<path d="M 2021.947,1524.038 A 522.500,522.500 0.00 0,1 2013.0,1599.1 L 2013.0,1599.1 1988.9,1594.6 1964.5,1590.5 1939.9,1586.6 1915.0,1583.2 1890.0,1580.2 1864.7,1577.5 1839.3,1575.3 1813.7,1573.6 1788.0,1572.3 1762.2,1571.6 1736.4,1571.3 1710.4,1571.5 1684.5,1572.2 1658.5,1573.5 1632.4,1575.3 1606.5,1577.7 1580.5,1580.6 1554.6,1584.0 1528.8,1588.0 1503.0,1592.5 1477.4,1597.6 1451.8,1603.2 1426.4,1609.3 1401.2,1616.0 1376.1,1623.2 1351.3,1630.8 1326.6,1639.0 1302.1,1647.7 1277.9,1656.8 1253.9,1666.3 1230.2,1676.2 1206.8,1686.6 1183.6,1697.3 1160.8,1708.4 1138.3,1719.9 1116.1,1731.6 1094.2,1743.6 1072.7,1755.8 1051.6,1768.2  A 522.500,522.500 0.00 0,1 1017.6,1700.7 L 1017.6,1700.7 1041.1,1691.0 1064.8,1681.5 1088.8,1672.2 1113.0,1663.1 1137.4,1654.1 1162.1,1645.4 1186.9,1636.9 1211.9,1628.6 1237.0,1620.6 1262.4,1612.9 1287.9,1605.4 1313.5,1598.2 1339.3,1591.3 1365.2,1584.7 1391.2,1578.5 1417.4,1572.5 1443.6,1566.9 1469.9,1561.6 1496.3,1556.6 1522.8,1551.9 1549.3,1547.6 1575.8,1543.6 1602.4,1540.0 1629.0,1536.6 1655.6,1533.7 1682.2,1531.0 1708.8,1528.7 1735.4,1526.7 1761.9,1525.0 1788.3,1523.6 1814.7,1522.6 1841.0,1521.8 1867.3,1521.3 1893.4,1521.1 1919.4,1521.2 1945.3,1521.6 1971.0,1522.1 1996.6,1523.0 2021.9,1524.0  Z" style="stroke-width: 0.5;  stroke: rgb(0,0,0); fill: rgb(179,177,178);" />
<path d="M 1989.242,1316.564 A 522.500,522.500 0.00 0,1 2010.1,1386.7 L 2010.1,1386.7 1984.0,1392.5 1957.9,1398.3 1931.8,1404.0 1905.7,1409.8 1879.6,1415.5 1853.4,1421.2 1827.3,1426.9 1801.1,1432.5 1774.9,1438.2 1748.7,1443.8 1722.5,1449.4 1696.2,1455.0 1670.0,1460.6 1643.7,1466.1 1617.5,1471.7 1591.2,1477.2 1564.9,1482.6 1538.7,1488.1 1512.4,1493.5 1486.1,1498.9 1459.8,1504.3 1433.5,1509.7 1407.2,1515.0 1380.9,1520.3 1354.6,1525.6 1328.3,1530.9 1301.9,1536.1 1275.6,1541.3 1249.3,1546.5 1223.0,1551.7 1196.7,1556.8 1170.4,1562.0 1144.2,1567.1 1117.9,1572.1 1091.6,1577.2 1065.3,1582.2 1039.1,1587.3 1012.9,1592.3 986.6,1597.2  A 522.500,522.500 0.00 0,1 978.1,1524.5 L 978.1,1524.5 1003.9,1523.2 1029.8,1521.8 1055.8,1520.1 1081.9,1518.3 1108.1,1516.2 1134.4,1514.0 1160.7,1511.6 1187.1,1508.9 1213.6,1506.1 1240.1,1503.0 1266.6,1499.6 1293.2,1496.1 1319.7,1492.3 1346.3,1488.3 1372.9,1484.0 1399.4,1479.6 1426.0,1474.8 1452.5,1469.9 1479.0,1464.7 1505.4,1459.2 1531.8,1453.6 1558.1,1447.7 1584.3,1441.5 1610.5,1435.2 1636.6,1428.6 1662.6,1421.8 1688.5,1414.8 1714.3,1407.6 1740.0,1400.2 1765.6,1392.5 1791.0,1384.7 1816.3,1376.8 1841.5,1368.6 1866.5,1360.3 1891.4,1351.8 1916.1,1343.2 1940.7,1334.4 1965.0,1325.6 1989.2,1316.6  Z" style="stroke-width: 0.5;  stroke: rgb(0,0,0); fill: rgb(179,177,178);" />
<path d="M 2015.979,1417.706 A 522.500,522.500 0.00 0,1 2022.3,1486.0 L 2022.3,1486.0 1996.4,1486.8 1970.5,1487.7 1944.4,1488.8 1918.2,1490.1 1891.9,1491.5 1865.6,1493.2 1839.1,1495.0 1812.7,1497.1 1786.1,1499.3 1759.5,1501.8 1732.9,1504.4 1706.3,1507.3 1679.6,1510.4 1652.9,1513.7 1626.2,1517.3 1599.6,1521.1 1572.9,1525.1 1546.2,1529.3 1519.6,1533.7 1493.0,1538.4 1466.5,1543.3 1440.0,1548.4 1413.6,1553.7 1387.2,1559.3 1360.9,1565.0 1334.7,1571.0 1308.6,1577.2 1282.5,1583.5 1256.6,1590.1 1230.8,1596.8 1205.0,1603.8 1179.4,1610.9 1154.0,1618.1 1128.6,1625.6 1103.4,1633.1 1078.4,1640.9 1053.5,1648.7 1028.7,1656.7 1004.2,1664.8  A 522.500,522.500 0.00 0,1 986.9,1598.4 L 986.9,1598.4 1013.1,1593.4 1039.3,1588.4 1065.6,1583.4 1091.8,1578.4 1118.1,1573.5 1144.4,1568.5 1170.8,1563.6 1197.1,1558.7 1223.4,1553.8 1249.8,1548.9 1276.2,1544.1 1302.5,1539.3 1328.9,1534.5 1355.3,1529.7 1381.7,1524.9 1408.2,1520.2 1434.6,1515.5 1461.0,1510.8 1487.4,1506.1 1513.9,1501.5 1540.3,1496.9 1566.8,1492.3 1593.2,1487.7 1619.7,1483.1 1646.1,1478.6 1672.6,1474.1 1699.0,1469.6 1725.5,1465.2 1751.9,1460.8 1778.3,1456.4 1804.8,1452.0 1831.2,1447.6 1857.6,1443.3 1884.1,1439.0 1910.5,1434.7 1936.9,1430.4 1963.2,1426.2 1989.6,1421.9 2016.0,1417.7  Z" style="stroke-width: 0.5;  stroke: rgb(0,0,0); fill: rgb(179,177,178);" />
<path d="M 1954.065,1241.483 A 522.500,522.500 0.00 0,1 1983.2,1301.3 L 1983.2,1301.3 1959.7,1310.8 1935.9,1320.3 1911.9,1329.5 1887.6,1338.5 1863.2,1347.4 1838.5,1356.0 1813.7,1364.4 1788.6,1372.6 1763.4,1380.5 1738.1,1388.2 1712.5,1395.5 1686.9,1402.6 1661.1,1409.4 1635.1,1415.9 1609.1,1422.1 1582.9,1427.9 1556.7,1433.5 1530.3,1438.7 1503.9,1443.6 1477.4,1448.1 1450.9,1452.4 1424.3,1456.3 1397.8,1459.8 1371.1,1463.0 1344.5,1465.9 1317.9,1468.5 1291.3,1470.7 1264.8,1472.6 1238.2,1474.2 1211.8,1475.5 1185.4,1476.5 1159.0,1477.2 1132.8,1477.6 1106.7,1477.7 1080.7,1477.5 1054.8,1477.1 1029.1,1476.4 1003.5,1475.5 978.1,1474.4  A 522.500,522.500 0.00 0,1 985.6,1408.3 L 985.6,1408.3 1009.9,1412.4 1034.4,1416.3 1059.2,1419.8 1084.2,1422.9 1109.4,1425.7 1134.8,1428.1 1160.3,1430.1 1186.0,1431.6 1211.8,1432.7 1237.7,1433.3 1263.7,1433.4 1289.8,1433.1 1315.8,1432.2 1342.0,1430.9 1368.1,1429.0 1394.2,1426.6 1420.3,1423.7 1446.3,1420.3 1472.3,1416.4 1498.2,1411.9 1523.9,1406.9 1549.6,1401.4 1575.2,1395.4 1600.6,1388.9 1625.8,1382.0 1650.9,1374.5 1675.7,1366.6 1700.4,1358.2 1724.8,1349.4 1749.0,1340.1 1773.0,1330.5 1796.7,1320.5 1820.1,1310.1 1843.2,1299.3 1866.1,1288.3 1888.6,1277.0 1910.7,1265.4 1932.6,1253.5 1954.1,1241.5  Z" style="stroke-width: 0.5;  stroke: rgb(0,0,0); fill: rgb(179,177,178);" />
<path d="M 1839.659,1897.036 A 522.500,522.500 0.00 0,1 1786.9,1936.7 L 1786.9,1936.7 1775.5,1919.7 1763.9,1902.9 1752.0,1886.5 1740.0,1870.7 1727.9,1855.4 1715.7,1840.9 1703.5,1827.1 1691.3,1814.3 1679.1,1802.5 1667.1,1791.7 1655.1,1782.1 1643.3,1773.6 1631.7,1766.4 1620.2,1760.5 1609.0,1755.9 1598.1,1752.7 1587.5,1750.9 1577.1,1750.4 1567.1,1751.4 1557.4,1753.8 1548.0,1757.6 1539.1,1762.8 1530.5,1769.4 1522.3,1777.3 1514.5,1786.6 1507.2,1797.1 1500.2,1808.9 1493.7,1821.9 1487.6,1836.0 1481.9,1851.1 1476.6,1867.2 1471.7,1884.2 1467.3,1902.1 1463.3,1920.6 1459.6,1939.7 1456.4,1959.4 1453.5,1979.4 1451.0,1999.6 1448.8,2020.0  A 522.500,522.500 0.00 0,1 1383.7,2009.4 L 1383.7,2009.4 1388.6,1989.1 1393.9,1969.0 1399.6,1949.1 1405.8,1929.6 1412.4,1910.5 1419.5,1892.0 1427.0,1874.2 1435.0,1857.2 1443.5,1841.0 1452.4,1825.7 1461.8,1811.5 1471.7,1798.3 1481.9,1786.2 1492.6,1775.3 1503.7,1765.6 1515.3,1757.1 1527.2,1749.9 1539.5,1744.1 1552.1,1739.5 1565.1,1736.3 1578.5,1734.5 1592.1,1733.9 1605.9,1734.8 1620.1,1736.9 1634.4,1740.3 1649.0,1745.0 1663.7,1750.9 1678.5,1758.1 1693.5,1766.3 1708.5,1775.7 1723.5,1786.1 1738.5,1797.5 1753.5,1809.7 1768.3,1822.8 1783.1,1836.6 1797.6,1851.0 1811.9,1866.0 1826.0,1881.3 1839.7,1897.0  Z" style="stroke-width: 0.5;  stroke: rgb(0,0,0); fill: rgb(179,177,178);" />
<path d="M 1941.066,1780.119 A 522.500,522.500 0.00 0,1 1914.0,1818.8 L 1914.0,1818.8 1896.6,1805.7 1878.8,1793.0 1860.6,1780.8 1842.0,1769.1 1823.2,1758.0 1804.2,1747.6 1785.0,1738.0 1765.6,1729.3 1746.0,1721.3 1726.4,1714.4 1706.8,1708.3 1687.1,1703.3 1667.5,1699.4 1647.9,1696.5 1628.4,1694.7 1609.0,1694.1 1589.8,1694.6 1570.7,1696.2 1551.9,1699.0 1533.2,1703.0 1514.9,1708.0 1496.8,1714.3 1479.0,1721.6 1461.5,1730.1 1444.4,1739.6 1427.7,1750.2 1411.3,1761.7 1395.4,1774.3 1379.9,1787.7 1364.8,1802.1 1350.1,1817.2 1336.0,1833.1 1322.3,1849.7 1309.1,1866.9 1296.4,1884.6 1284.2,1902.8 1272.5,1921.4 1261.3,1940.2 1250.7,1959.2  A 522.500,522.500 0.00 0,1 1210.3,1934.8 L 1210.3,1934.8 1222.8,1916.5 1235.9,1898.4 1249.5,1880.5 1263.6,1863.0 1278.3,1846.0 1293.4,1829.4 1309.0,1813.4 1325.1,1798.1 1341.7,1783.5 1358.7,1769.6 1376.1,1756.5 1394.0,1744.3 1412.2,1733.0 1430.8,1722.6 1449.7,1713.2 1469.0,1704.7 1488.6,1697.3 1508.5,1690.8 1528.6,1685.5 1549.0,1681.2 1569.6,1677.9 1590.4,1675.7 1611.3,1674.6 1632.3,1674.5 1653.5,1675.4 1674.7,1677.4 1696.0,1680.4 1717.2,1684.3 1738.4,1689.2 1759.6,1695.0 1780.7,1701.7 1801.6,1709.2 1822.4,1717.4 1842.9,1726.4 1863.2,1736.1 1883.2,1746.3 1902.9,1757.2 1922.2,1768.4 1941.1,1780.1  Z" style="stroke-width: 0.5;  stroke: rgb(0,0,0); fill: rgb(179,177,178);" />
<path d="M 1887.129,1850.910 A 522.500,522.500 0.00 0,1 1854.5,1883.9 L 1854.5,1883.9 1840.0,1868.5 1825.2,1853.5 1810.0,1839.0 1794.6,1824.9 1778.9,1811.5 1763.0,1798.8 1747.0,1787.0 1730.8,1775.9 1714.6,1765.9 1698.4,1756.8 1682.1,1748.8 1665.9,1742.0 1649.8,1736.2 1633.7,1731.7 1617.8,1728.4 1602.1,1726.4 1586.5,1725.7 1571.1,1726.2 1556.0,1728.1 1541.2,1731.2 1526.6,1735.6 1512.4,1741.4 1498.4,1748.4 1484.8,1756.6 1471.6,1766.0 1458.8,1776.7 1446.3,1788.4 1434.3,1801.3 1422.7,1815.2 1411.5,1830.0 1400.8,1845.8 1390.5,1862.4 1380.6,1879.8 1371.3,1897.8 1362.4,1916.4 1353.9,1935.5 1346.0,1955.0 1338.5,1974.7 1331.4,1994.6  A 522.500,522.500 0.00 0,1 1288.2,1977.7 L 1288.2,1977.7 1297.1,1958.2 1306.6,1938.9 1316.5,1919.8 1326.9,1901.1 1337.9,1882.9 1349.3,1865.3 1361.2,1848.3 1373.6,1832.0 1386.4,1816.5 1399.7,1801.8 1413.4,1788.1 1427.6,1775.4 1442.1,1763.7 1457.1,1753.0 1472.4,1743.5 1488.1,1735.1 1504.1,1727.9 1520.5,1721.9 1537.1,1717.1 1554.0,1713.5 1571.2,1711.2 1588.6,1710.1 1606.1,1710.2 1623.9,1711.5 1641.8,1714.0 1659.7,1717.6 1677.8,1722.4 1695.9,1728.3 1714.0,1735.3 1732.1,1743.3 1750.1,1752.3 1768.0,1762.2 1785.8,1772.9 1803.4,1784.4 1820.7,1796.6 1837.8,1809.5 1854.6,1822.9 1871.1,1836.7 1887.1,1850.9  Z" style="stroke-width: 0.5;  stroke: rgb(0,0,0); fill: rgb(179,177,178);" />
<path d="M 1913.981,1818.788 A 522.500,522.500 0.00 0,1 1889.2,1848.6 L 1889.2,1848.6 1873.1,1834.5 1856.5,1820.7 1839.6,1807.4 1822.4,1794.7 1805.0,1782.5 1787.3,1771.1 1769.4,1760.5 1751.4,1750.7 1733.3,1741.8 1715.1,1733.9 1696.9,1727.0 1678.7,1721.1 1660.5,1716.4 1642.4,1712.8 1624.5,1710.4 1606.6,1709.1 1589.0,1709.1 1571.5,1710.3 1554.2,1712.7 1537.2,1716.3 1520.5,1721.2 1504.0,1727.2 1487.9,1734.4 1472.1,1742.8 1456.7,1752.4 1441.7,1763.1 1427.0,1774.8 1412.8,1787.5 1399.0,1801.2 1385.6,1815.9 1372.7,1831.4 1360.2,1847.7 1348.3,1864.7 1336.8,1882.3 1325.8,1900.5 1315.3,1919.2 1305.2,1938.2 1295.8,1957.5 1286.8,1977.0  A 522.500,522.500 0.00 0,1 1252.1,1959.9 L 1252.1,1959.9 1262.7,1940.9 1273.7,1922.0 1285.4,1903.5 1297.5,1885.2 1310.1,1867.5 1323.3,1850.3 1336.9,1833.7 1351.0,1817.7 1365.6,1802.6 1380.7,1788.2 1396.1,1774.7 1412.0,1762.1 1428.3,1750.5 1445.0,1739.9 1462.1,1730.4 1479.5,1721.9 1497.2,1714.5 1515.3,1708.3 1533.6,1703.2 1552.2,1699.2 1571.0,1696.4 1590.0,1694.8 1609.3,1694.2 1628.6,1694.9 1648.1,1696.6 1667.6,1699.5 1687.3,1703.4 1706.9,1708.4 1726.5,1714.4 1746.1,1721.4 1765.6,1729.3 1785.0,1738.1 1804.2,1747.7 1823.3,1758.1 1842.1,1769.1 1860.6,1780.8 1878.8,1793.0 1896.6,1805.7 1914.0,1818.8  Z" style="stroke-width: 0.5;  stroke: rgb(0,0,0); fill: rgb(179,177,178);" />
<path d="M 1970.375,1727.494 A 522.500,522.500 0.00 0,1 1952.3,1761.6 L 1952.3,1761.6 1932.7,1750.6 1912.8,1740.0 1892.5,1729.9 1871.8,1720.3 1850.9,1711.3 1829.7,1703.0 1808.3,1695.4 1786.7,1688.5 1765.0,1682.4 1743.2,1677.2 1721.3,1672.8 1699.3,1669.4 1677.4,1666.9 1655.5,1665.3 1633.6,1664.7 1611.9,1665.1 1590.2,1666.6 1568.7,1669.0 1547.4,1672.4 1526.3,1676.9 1505.4,1682.4 1484.8,1688.8 1464.4,1696.3 1444.3,1704.7 1424.6,1714.0 1405.1,1724.3 1386.1,1735.5 1367.4,1747.5 1349.2,1760.3 1331.3,1773.9 1313.9,1788.3 1296.9,1803.3 1280.4,1818.9 1264.4,1835.1 1248.9,1851.8 1233.9,1868.9 1219.4,1886.4 1205.4,1904.1 1192.0,1922.1  A 522.500,522.500 0.00 0,1 1161.6,1898.1 L 1161.6,1898.1 1176.6,1880.9 1192.1,1863.9 1208.1,1847.2 1224.6,1830.8 1241.6,1814.8 1259.1,1799.3 1277.0,1784.4 1295.4,1770.0 1314.3,1756.2 1333.5,1743.1 1353.1,1730.7 1373.2,1719.1 1393.6,1708.2 1414.3,1698.2 1435.3,1689.0 1456.7,1680.7 1478.3,1673.2 1500.2,1666.7 1522.3,1661.1 1544.6,1656.3 1567.1,1652.6 1589.8,1649.7 1612.6,1647.8 1635.5,1646.8 1658.5,1646.7 1681.5,1647.5 1704.5,1649.2 1727.5,1651.7 1750.5,1655.1 1773.4,1659.3 1796.2,1664.3 1818.8,1670.1 1841.3,1676.5 1863.6,1683.6 1885.6,1691.4 1907.3,1699.7 1928.7,1708.5 1949.7,1717.8 1970.4,1727.5  Z" style="stroke-width: 0.5;  stroke: rgb(0,0,0); fill: rgb(179,177,178);" />
<path d="M 1984.642,1695.266 A 522.500,522.500 0.00 0,1 1970.7,1726.8 L 1970.7,1726.8 1950.0,1717.2 1929.0,1707.9 1907.5,1699.1 1885.8,1690.8 1863.7,1683.1 1841.5,1676.0 1819.0,1669.5 1796.3,1663.8 1773.5,1658.8 1750.5,1654.6 1727.5,1651.3 1704.5,1648.7 1681.4,1647.0 1658.4,1646.2 1635.4,1646.3 1612.4,1647.3 1589.6,1649.2 1566.9,1652.0 1544.3,1655.8 1522.0,1660.5 1499.8,1666.1 1477.9,1672.6 1456.2,1680.0 1434.8,1688.3 1413.7,1697.5 1392.9,1707.5 1372.5,1718.3 1352.4,1729.9 1332.7,1742.3 1313.3,1755.3 1294.4,1769.0 1276.0,1783.4 1258.0,1798.3 1240.4,1813.7 1223.3,1829.7 1206.7,1846.0 1190.6,1862.7 1175.1,1879.6 1160.0,1896.8  A 522.500,522.500 0.00 0,1 1134.5,1873.3 L 1134.5,1873.3 1150.9,1856.9 1167.8,1840.8 1185.2,1824.9 1203.0,1809.3 1221.4,1794.1 1240.2,1779.4 1259.4,1765.1 1279.1,1751.4 1299.2,1738.2 1319.6,1725.7 1340.5,1713.8 1361.7,1702.7 1383.2,1692.2 1405.1,1682.5 1427.2,1673.5 1449.6,1665.3 1472.3,1658.0 1495.2,1651.4 1518.3,1645.7 1541.7,1640.8 1565.1,1636.8 1588.8,1633.6 1612.5,1631.2 1636.3,1629.7 1660.2,1629.0 1684.1,1629.2 1708.0,1630.1 1731.9,1631.9 1755.8,1634.4 1779.6,1637.6 1803.2,1641.6 1826.7,1646.3 1850.1,1651.6 1873.2,1657.6 1896.1,1664.1 1918.7,1671.2 1941.1,1678.8 1963.0,1686.8 1984.6,1695.3  Z" style="stroke-width: 0.5;  stroke: rgb(0,0,0); fill: rgb(179,177,178);" />
<path d="M 1921.231,1190.855 A 522.500,522.500 0.00 0,1 1939.9,1218.1 L 1939.9,1218.1 1919.4,1231.0 1898.4,1243.7 1877.1,1256.2 1855.4,1268.4 1833.4,1280.2 1811.0,1291.7 1788.3,1302.9 1765.2,1313.6 1741.9,1323.8 1718.3,1333.6 1694.4,1343.0 1670.3,1351.8 1646.0,1360.1 1621.4,1367.8 1596.6,1375.0 1571.7,1381.7 1546.6,1387.8 1521.3,1393.2 1495.9,1398.1 1470.4,1402.4 1444.8,1406.1 1419.2,1409.2 1393.5,1411.7 1367.7,1413.6 1342.0,1415.0 1316.2,1415.7 1290.5,1415.8 1264.8,1415.4 1239.2,1414.4 1213.7,1412.9 1188.3,1410.9 1163.0,1408.3 1137.9,1405.2 1113.0,1401.7 1088.3,1397.7 1063.8,1393.4 1039.6,1388.6 1015.6,1383.4 992.0,1377.9  A 522.500,522.500 0.00 0,1 1000.7,1346.1 L 1000.7,1346.1 1023.6,1352.9 1046.8,1359.4 1070.4,1365.5 1094.2,1371.1 1118.3,1376.3 1142.6,1381.0 1167.2,1385.2 1191.9,1388.8 1216.7,1391.8 1241.7,1394.3 1266.8,1396.1 1291.9,1397.3 1317.1,1397.8 1342.3,1397.7 1367.6,1396.9 1392.8,1395.5 1418.0,1393.3 1443.1,1390.5 1468.1,1387.0 1493.1,1382.8 1517.9,1377.9 1542.5,1372.3 1567.0,1366.1 1591.3,1359.2 1615.4,1351.7 1639.3,1343.5 1662.9,1334.7 1686.3,1325.3 1709.4,1315.4 1732.2,1304.9 1754.6,1293.9 1776.8,1282.4 1798.6,1270.4 1820.0,1258.0 1841.1,1245.2 1861.7,1232.0 1882.0,1218.6 1901.8,1204.8 1921.2,1190.9  Z" style="stroke-width: 0.5;  stroke: rgb(0,0,0); fill: rgb(179,177,178);" />
<path d="M 1940.031,1218.257 A 522.500,522.500 0.00 0,1 1954.1,1241.5 L 1954.1,1241.5 1932.6,1253.5 1910.8,1265.4 1888.6,1277.0 1866.1,1288.3 1843.3,1299.3 1820.1,1310.1 1796.7,1320.4 1773.0,1330.5 1749.1,1340.1 1724.9,1349.3 1700.4,1358.1 1675.8,1366.5 1650.9,1374.4 1625.8,1381.8 1600.6,1388.8 1575.2,1395.3 1549.7,1401.3 1524.0,1406.7 1498.2,1411.7 1472.3,1416.1 1446.3,1420.0 1420.3,1423.4 1394.2,1426.3 1368.1,1428.6 1342.0,1430.5 1315.9,1431.8 1289.8,1432.6 1263.8,1432.9 1237.8,1432.7 1211.9,1432.1 1186.1,1431.0 1160.4,1429.4 1134.9,1427.4 1109.5,1425.0 1084.3,1422.2 1059.3,1419.0 1034.6,1415.4 1010.0,1411.5 985.8,1407.3  A 522.500,522.500 0.00 0,1 991.3,1380.8 L 991.3,1380.8 1015.0,1386.1 1039.0,1391.2 1063.3,1395.8 1087.8,1400.1 1112.6,1403.9 1137.5,1407.3 1162.6,1410.3 1187.9,1412.7 1213.4,1414.6 1238.9,1416.1 1264.5,1416.9 1290.2,1417.3 1316.0,1417.0 1341.8,1416.2 1367.5,1414.8 1393.3,1412.8 1419.0,1410.2 1444.7,1407.0 1470.3,1403.3 1495.8,1398.9 1521.2,1393.9 1546.5,1388.4 1571.6,1382.3 1596.6,1375.6 1621.3,1368.3 1645.9,1360.5 1670.3,1352.2 1694.4,1343.3 1718.3,1333.9 1741.9,1324.1 1765.2,1313.8 1788.3,1303.1 1811.0,1292.0 1833.4,1280.5 1855.4,1268.6 1877.2,1256.4 1898.5,1243.9 1919.5,1231.2 1940.0,1218.3  Z" style="stroke-width: 0.5;  stroke: rgb(0,0,0); fill: rgb(179,177,178);" />
<path d="M 2022.496,1498.052 A 522.500,522.500 0.00 0,1 2022.2,1517.8 L 2022.2,1517.8 1996.7,1517.0 1971.1,1516.5 1945.3,1516.1 1919.4,1516.1 1893.3,1516.2 1867.1,1516.7 1840.9,1517.4 1814.5,1518.4 1788.1,1519.6 1761.6,1521.2 1735.1,1523.0 1708.5,1525.2 1681.9,1527.6 1655.3,1530.4 1628.6,1533.5 1602.0,1536.9 1575.4,1540.6 1548.8,1544.7 1522.3,1549.0 1495.8,1553.7 1469.4,1558.7 1443.0,1564.0 1416.8,1569.6 1390.6,1575.5 1364.5,1581.7 1338.6,1588.2 1312.7,1595.0 1287.0,1602.0 1261.4,1609.4 1236.0,1617.0 1210.7,1624.8 1185.6,1632.9 1160.7,1641.3 1136.0,1649.8 1111.4,1658.5 1087.1,1667.5 1063.0,1676.6 1039.1,1685.9 1015.4,1695.3  A 522.500,522.500 0.00 0,1 1008.4,1676.9 L 1008.4,1676.9 1032.6,1668.3 1057.0,1659.8 1081.6,1651.4 1106.4,1643.2 1131.4,1635.2 1156.5,1627.3 1181.7,1619.6 1207.2,1612.1 1232.7,1604.8 1258.4,1597.7 1284.2,1590.8 1310.1,1584.2 1336.1,1577.7 1362.3,1571.5 1388.5,1565.6 1414.8,1559.9 1441.2,1554.4 1467.6,1549.3 1494.1,1544.3 1520.7,1539.6 1547.3,1535.2 1573.9,1531.0 1600.6,1527.1 1627.2,1523.5 1653.9,1520.1 1680.6,1517.0 1707.2,1514.1 1733.9,1511.5 1760.5,1509.1 1787.0,1507.0 1813.5,1505.1 1840.0,1503.5 1866.3,1502.1 1892.6,1500.9 1918.8,1499.9 1944.9,1499.2 1970.9,1498.6 1996.8,1498.2 2022.5,1498.1  Z" style="stroke-width: 0.5;  stroke: rgb(0,0,0); fill: rgb(179,177,178);" />
<path d="M 1853.645,1884.631 A 522.500,522.500 0.00 0,1 1840.5,1896.3 L 1840.5,1896.3 1826.8,1880.6 1812.7,1865.3 1798.3,1850.4 1783.7,1836.0 1769.0,1822.2 1754.1,1809.2 1739.1,1796.9 1724.0,1785.6 1709.0,1775.2 1693.9,1765.9 1678.9,1757.6 1664.1,1750.5 1649.3,1744.6 1634.7,1740.0 1620.3,1736.5 1606.1,1734.4 1592.2,1733.6 1578.6,1734.2 1565.2,1736.1 1552.2,1739.3 1539.5,1743.8 1527.1,1749.7 1515.2,1756.9 1503.6,1765.4 1492.5,1775.1 1481.7,1786.0 1471.4,1798.1 1461.5,1811.3 1452.1,1825.6 1443.2,1840.9 1434.7,1857.0 1426.6,1874.1 1419.0,1891.9 1411.9,1910.4 1405.2,1929.4 1399.0,1949.0 1393.3,1968.8 1388.0,1989.0 1383.1,2009.3  A 522.500,522.500 0.00 0,1 1366.0,2005.0 L 1366.0,2005.0 1371.6,1984.8 1377.7,1964.8 1384.2,1944.9 1391.2,1925.5 1398.6,1906.5 1406.5,1888.1 1414.9,1870.3 1423.8,1853.3 1433.1,1837.2 1442.9,1821.9 1453.2,1807.6 1463.9,1794.4 1475.1,1782.2 1486.7,1771.3 1498.7,1761.4 1511.1,1752.9 1523.9,1745.5 1537.1,1739.5 1550.6,1734.8 1564.5,1731.3 1578.7,1729.2 1593.1,1728.4 1607.9,1729.0 1622.9,1730.8 1638.1,1733.9 1653.4,1738.2 1669.0,1743.8 1684.6,1750.5 1700.3,1758.3 1716.1,1767.3 1731.9,1777.2 1747.7,1788.2 1763.4,1800.0 1779.0,1812.6 1794.4,1825.9 1809.6,1839.9 1824.6,1854.4 1839.3,1869.4 1853.6,1884.6  Z" style="stroke-width: 0.5;  stroke: rgb(0,0,0); fill: rgb(179,177,178);" />
<path d="M 1983.505,1301.936 A 522.500,522.500 0.00 0,1 1988.8,1315.3 L 1988.8,1315.3 1964.6,1324.4 1940.3,1333.3 1915.7,1342.1 1891.1,1350.8 1866.2,1359.3 1841.2,1367.6 1816.1,1375.8 1790.8,1383.9 1765.3,1391.7 1739.8,1399.3 1714.1,1406.8 1688.3,1414.0 1662.4,1421.0 1636.4,1427.9 1610.4,1434.4 1584.2,1440.8 1557.9,1446.9 1531.6,1452.8 1505.3,1458.5 1478.8,1463.9 1452.4,1469.1 1425.8,1474.0 1399.3,1478.7 1372.7,1483.2 1346.2,1487.4 1319.6,1491.4 1293.0,1495.1 1266.5,1498.6 1239.9,1501.9 1213.4,1504.9 1187.0,1507.7 1160.6,1510.3 1134.2,1512.7 1108.0,1514.8 1081.8,1516.8 1055.7,1518.6 1029.7,1520.1 1003.8,1521.5 978.0,1522.7  A 522.500,522.500 0.00 0,1 977.6,1508.3 L 977.6,1508.3 1003.2,1507.8 1029.0,1507.1 1054.8,1506.2 1080.9,1505.1 1107.0,1503.7 1133.2,1502.1 1159.5,1500.2 1185.8,1498.1 1212.3,1495.8 1238.7,1493.2 1265.2,1490.3 1291.8,1487.1 1318.3,1483.7 1344.9,1479.9 1371.5,1475.9 1398.0,1471.7 1424.5,1467.1 1451.0,1462.2 1477.4,1457.1 1503.8,1451.7 1530.2,1446.0 1556.4,1440.0 1582.6,1433.8 1608.7,1427.3 1634.7,1420.5 1660.6,1413.4 1686.3,1406.2 1712.0,1398.6 1737.5,1390.8 1762.8,1382.8 1788.0,1374.6 1813.1,1366.1 1838.0,1357.5 1862.7,1348.6 1887.3,1339.6 1911.6,1330.4 1935.8,1321.1 1959.8,1311.6 1983.5,1301.9  Z" style="stroke-width: 0.5;  stroke: rgb(0,0,0); fill: rgb(179,177,178);" />
<path d="M 1951.731,1762.575 A 522.500,522.500 0.00 0,1 1944.4,1774.8 L 1944.4,1774.8 1925.3,1763.3 1905.8,1752.2 1886.0,1741.6 1865.8,1731.5 1845.3,1722.0 1824.5,1713.2 1803.6,1705.1 1782.4,1697.8 1761.2,1691.3 1739.8,1685.7 1718.3,1680.9 1696.9,1677.1 1675.4,1674.3 1654.0,1672.4 1632.6,1671.6 1611.3,1671.7 1590.1,1672.9 1569.1,1675.2 1548.3,1678.5 1527.7,1682.8 1507.3,1688.2 1487.2,1694.6 1467.3,1702.0 1447.8,1710.4 1428.5,1719.8 1409.7,1730.2 1391.2,1741.4 1373.0,1753.6 1355.3,1766.5 1338.0,1780.3 1321.2,1794.8 1304.8,1810.0 1288.9,1825.9 1273.4,1842.3 1258.5,1859.2 1244.1,1876.6 1230.1,1894.3 1216.8,1912.3 1203.9,1930.5  A 522.500,522.500 0.00 0,1 1192.3,1922.3 L 1192.3,1922.3 1205.7,1904.3 1219.7,1886.6 1234.2,1869.1 1249.2,1852.0 1264.7,1835.3 1280.7,1819.1 1297.1,1803.5 1314.1,1788.5 1331.5,1774.2 1349.3,1760.6 1367.5,1747.7 1386.2,1735.7 1405.2,1724.5 1424.6,1714.3 1444.4,1704.9 1464.4,1696.5 1484.8,1689.1 1505.4,1682.6 1526.3,1677.2 1547.4,1672.8 1568.7,1669.3 1590.1,1666.9 1611.8,1665.5 1633.5,1665.1 1655.3,1665.8 1677.2,1667.3 1699.1,1669.9 1721.0,1673.4 1742.9,1677.8 1764.7,1683.0 1786.4,1689.1 1807.9,1696.1 1829.3,1703.7 1850.5,1712.1 1871.4,1721.1 1892.0,1730.7 1912.3,1740.9 1932.2,1751.5 1951.7,1762.6  Z" style="stroke-width: 0.5;  stroke: rgb(0,0,0); fill: rgb(179,177,178);" />
<path d="M 1989.728,1682.135 A 522.500,522.500 0.00 0,1 1984.6,1695.4 L 1984.6,1695.4 1963.0,1686.9 1941.0,1678.9 1918.7,1671.3 1896.1,1664.2 1873.2,1657.6 1850.0,1651.7 1826.7,1646.3 1803.2,1641.6 1779.5,1637.7 1755.7,1634.4 1731.9,1631.9 1708.0,1630.1 1684.0,1629.2 1660.1,1629.0 1636.2,1629.7 1612.4,1631.2 1588.6,1633.5 1565.0,1636.7 1541.5,1640.7 1518.2,1645.6 1495.1,1651.3 1472.1,1657.8 1449.4,1665.2 1427.0,1673.3 1404.8,1682.3 1383.0,1692.0 1361.4,1702.4 1340.2,1713.6 1319.4,1725.4 1298.9,1737.9 1278.8,1751.1 1259.1,1764.7 1239.8,1779.0 1221.0,1793.7 1202.6,1808.9 1184.7,1824.4 1167.3,1840.3 1150.4,1856.5 1133.9,1872.8  A 522.500,522.500 0.00 0,1 1123.9,1862.8 L 1123.9,1862.8 1140.9,1846.7 1158.4,1830.9 1176.3,1815.3 1194.7,1800.1 1213.6,1785.3 1232.9,1770.9 1252.7,1756.9 1272.8,1743.5 1293.4,1730.7 1314.3,1718.4 1335.6,1706.8 1357.2,1695.8 1379.2,1685.5 1401.5,1675.9 1424.0,1667.0 1446.9,1659.0 1469.9,1651.6 1493.2,1645.1 1516.7,1639.3 1540.4,1634.4 1564.2,1630.3 1588.2,1627.0 1612.3,1624.4 1636.4,1622.7 1660.6,1621.8 1684.9,1621.7 1709.1,1622.4 1733.3,1623.8 1757.5,1625.9 1781.6,1628.8 1805.6,1632.4 1829.4,1636.6 1853.1,1641.5 1876.6,1647.0 1899.8,1653.0 1922.8,1659.6 1945.4,1666.7 1967.8,1674.2 1989.7,1682.1  Z" style="stroke-width: 0.5;  stroke: rgb(0,0,0); fill: rgb(179,177,178);" />
<path d="M 1915.385,1183.043 A 522.500,522.500 0.00 0,1 1921.1,1190.7 L 1921.1,1190.7 1901.7,1204.7 1881.9,1218.4 1861.7,1231.9 1841.0,1245.0 1820.0,1257.8 1798.5,1270.2 1776.7,1282.2 1754.6,1293.7 1732.1,1304.7 1709.4,1315.2 1686.3,1325.1 1662.9,1334.5 1639.3,1343.2 1615.4,1351.4 1591.3,1358.9 1567.0,1365.8 1542.6,1372.0 1517.9,1377.5 1493.1,1382.4 1468.2,1386.5 1443.2,1390.0 1418.1,1392.8 1392.9,1394.9 1367.7,1396.3 1342.5,1397.0 1317.3,1397.1 1292.1,1396.5 1267.0,1395.3 1241.9,1393.4 1216.9,1390.9 1192.1,1387.8 1167.4,1384.1 1142.9,1379.9 1118.7,1375.1 1094.6,1369.9 1070.8,1364.2 1047.2,1358.0 1024.0,1351.5 1001.2,1344.6  A 522.500,522.500 0.00 0,1 1004.1,1335.5 L 1004.1,1335.5 1026.7,1342.7 1049.7,1349.7 1073.0,1356.2 1096.6,1362.2 1120.5,1367.8 1144.6,1372.9 1168.9,1377.5 1193.4,1381.4 1218.1,1384.8 1242.8,1387.6 1267.7,1389.7 1292.7,1391.2 1317.7,1392.0 1342.7,1392.1 1367.8,1391.5 1392.8,1390.2 1417.8,1388.2 1442.7,1385.5 1467.6,1382.1 1492.3,1378.0 1516.9,1373.1 1541.3,1367.6 1565.6,1361.3 1589.7,1354.4 1613.6,1346.8 1637.2,1338.5 1660.6,1329.6 1683.7,1320.1 1706.6,1310.0 1729.1,1299.3 1751.3,1288.1 1773.2,1276.4 1794.7,1264.2 1815.8,1251.5 1836.6,1238.5 1856.9,1225.1 1876.9,1211.3 1896.3,1197.3 1915.4,1183.0  Z" style="stroke-width: 0.5;  stroke: rgb(0,0,0); fill: rgb(179,177,178);" />
<path d="M 2022.318,1486.225 A 522.500,522.500 0.00 0,1 2022.5,1495.5 L 2022.5,1495.5 1996.7,1495.8 1970.8,1496.3 1944.8,1497.0 1918.7,1497.8 1892.5,1498.9 1866.2,1500.2 1839.8,1501.7 1813.4,1503.5 1786.9,1505.4 1760.3,1507.6 1733.7,1510.1 1707.1,1512.8 1680.4,1515.7 1653.8,1518.9 1627.1,1522.3 1600.4,1526.0 1573.8,1530.0 1547.1,1534.2 1520.5,1538.6 1494.0,1543.3 1467.5,1548.3 1441.0,1553.5 1414.6,1559.0 1388.3,1564.7 1362.1,1570.6 1336.0,1576.8 1309.9,1583.2 1284.0,1589.8 1258.2,1596.7 1232.5,1603.7 1206.9,1611.0 1181.5,1618.5 1156.2,1626.1 1131.0,1633.9 1106.0,1641.9 1081.2,1650.1 1056.6,1658.4 1032.1,1666.8 1007.8,1675.4  A 522.500,522.500 0.00 0,1 1004.8,1666.7 L 1004.8,1666.7 1029.3,1658.5 1054.0,1650.4 1078.9,1642.5 1103.9,1634.7 1129.1,1627.0 1154.4,1619.5 1179.8,1612.1 1205.4,1605.0 1231.1,1598.0 1256.9,1591.1 1282.8,1584.5 1308.8,1578.1 1334.9,1571.8 1361.1,1565.8 1387.4,1560.0 1413.8,1554.4 1440.2,1549.0 1466.7,1543.9 1493.2,1538.9 1519.8,1534.2 1546.4,1529.7 1573.0,1525.5 1599.7,1521.4 1626.4,1517.6 1653.0,1514.1 1679.7,1510.7 1706.4,1507.6 1733.0,1504.7 1759.6,1502.0 1786.2,1499.5 1812.7,1497.3 1839.2,1495.2 1865.6,1493.4 1892.0,1491.7 1918.2,1490.3 1944.4,1489.0 1970.5,1487.9 1996.5,1487.0 2022.3,1486.2  Z" style="stroke-width: 0.5;  stroke: rgb(0,0,0); fill: rgb(179,177,178);" />
</g>
<g id="plot0">
<g id="plot0-axis">
</g>
<line x1='2243.2' y1='1600.7' x2='2243.2' y2='1600.7' style="stroke-width:14.0;stroke:rgb(0,0,0);stroke-linecap:round;fill:none;" />
<line x1='2243.2' y1='1600.7' x2='2282.9' y2='1606.0' style="stroke-width:14.0;stroke:rgb(0,0,0);stroke-linecap:round;fill:none;" />
<line x1='2282.9' y1='1606.0' x2='2282.9' y2='1606.0' style="stroke-width:14.0;stroke:rgb(0,0,0);stroke-linecap:round;fill:none;" />
<text x="2299.3" y="1631.0" font-size="46.8px" font-family="CMUBright-Roman" style="text-anchor:start;fill:rgb(255,38,78);" transform="rotate(7.7,2299.3,1631.0)" >HistomissSECH90<tspan baseline-shift="-40%" font-size="90%">s</tspan>02640</text>
</g>
<defs>
<pattern id="hline" width="10" height="10" patternTransform="rotate(0 0 0)" patternUnits="userSpaceOnUse"><line x1="0" y1="0" x2="10" y2="0" style="stroke:black;stroke-width:5" /></pattern>
<pattern id="checker" width="10" height="10" patternTransform="rotate(45 0 0)" patternUnits="userSpaceOnUse"><line x1="0" y1="0" x2="10" y2="0" style="stroke:black;stroke-width:5" /><line x1="0" y1="0" x2="0" y2="10" style="stroke:black;stroke-width:4" /></pattern>
<pattern id="vline" width="10" height="10" patternTransform="rotate(0 0 0)" patternUnits="userSpaceOnUse"><line x1="0" y1="0" x2="0" y2="10" style="stroke:black;stroke-width:5" /></pattern>
<pattern id="checker" width="10" height="10" patternTransform="rotate(45 0 0)" patternUnits="userSpaceOnUse"><line x1="0" y1="0" x2="10" y2="0" style="stroke:black;stroke-width:2" /><line x1="0" y1="0" x2="0" y2="10" style="stroke:black;stroke-width:2" /></pattern>
<pattern id="vline-sparse" width="10" height="10" patternTransform="rotate(0 0 0)" patternUnits="userSpaceOnUse"><line x1="0" y1="0" x2="0" y2="10" style="stroke:black;stroke-width:2" /></pattern>
<pattern id="hline-sparse" width="10" height="10" patternTransform="rotate(0 0 0)" patternUnits="userSpaceOnUse"><line x1="0" y1="0" x2="10" y2="0" style="stroke:black;stroke-width:2" /></pattern>
</defs>
</svg>
