<?xml version="1.0" encoding="utf-8" standalone="no"?>
<!DOCTYPE svg PUBLIC "-//W3C//DTD SVG 1.1//EN" "http://www.w3.org/Graphics/SVG/1.1/DTD/svg11.dtd">
<svg width="3000px" height="3000px" version="1.1" xmlns="http://www.w3.org/2000/svg" xmlns:xlink="http://www.w3.org/1999/xlink">
<g id="bg">
<rect x="0" y="0" width="3000px" height="3000px" style="fill:rgb(255,255,255);"/>
</g>
<g id="ideograms">
<path d="M1500.000,950.000 A550.000,550.000 40.000 0,1 1707.955,2009.170 L1783.576,2194.323 A750.000,750.000 0.000 0,0 1500.000,750.000 Z" style="stroke-width:2.0;stroke:rgb(0,0,0);stroke-linecap:round;fill:rgb(179,177,178);" />
<text x="2456.7" y="1312.2" font-size="46.8px" font-family="CMUBright-Roman" style="text-anchor:middle;fill:rgb(0,0,0);" transform="rotate(438.9,2456.7,1312.2)" >HistocapWGSS11<tspan baseline-shift="-40%" font-size="90%">2</tspan></text>
<line x1='1541.4' y1='751.1' x2='1542.1' y2='739.2' style="stroke-width:8.0;stroke:rgb(150,150,150);stroke-linecap:round;fill:none;" />
<line x1='1642.3' y1='763.6' x2='1644.6' y2='751.8' style="stroke-width:8.0;stroke:rgb(150,150,150);stroke-linecap:round;fill:none;" />
<line x1='1740.6' y1='789.7' x2='1744.5' y2='778.3' style="stroke-width:8.0;stroke:rgb(150,150,150);stroke-linecap:round;fill:none;" />
<line x1='1834.5' y1='828.7' x2='1839.9' y2='818.0' style="stroke-width:8.0;stroke:rgb(150,150,150);stroke-linecap:round;fill:none;" />
<line x1='1922.3' y1='880.2' x2='1929.0' y2='870.2' style="stroke-width:8.0;stroke:rgb(150,150,150);stroke-linecap:round;fill:none;" />
<text x="1947.3" y="868.3" font-size="41.6px" font-family="CMUBright-Roman" style="text-anchor:start;fill:rgb(150,150,150);" transform="rotate(304.3,1947.3,868.3)" >600 kb</text>
<line x1='2002.2' y1='943.0' x2='2010.3' y2='934.1' style="stroke-width:8.0;stroke:rgb(150,150,150);stroke-linecap:round;fill:none;" />
<line x1='2073.0' y1='1016.0' x2='2082.1' y2='1008.3' style="stroke-width:8.0;stroke:rgb(150,150,150);stroke-linecap:round;fill:none;" />
<line x1='2133.2' y1='1098.0' x2='2143.3' y2='1091.6' style="stroke-width:8.0;stroke:rgb(150,150,150);stroke-linecap:round;fill:none;" />
<line x1='2181.7' y1='1187.3' x2='2192.6' y2='1182.3' style="stroke-width:8.0;stroke:rgb(150,150,150);stroke-linecap:round;fill:none;" />
<line x1='2217.7' y1='1282.4' x2='2229.2' y2='1278.9' style="stroke-width:8.0;stroke:rgb(150,150,150);stroke-linecap:round;fill:none;" />
<text x="2244.7" y="1288.9" font-size="41.6px" font-family="CMUBright-Roman" style="text-anchor:start;fill:rgb(150,150,150);" transform="rotate(343.1,2244.7,1288.9)" >650 kb</text>
<line x1='2240.6' y1='1381.5' x2='2252.4' y2='1379.6' style="stroke-width:8.0;stroke:rgb(150,150,150);stroke-linecap:round;fill:none;" />
<line x1='2249.8' y1='1482.8' x2='2261.8' y2='1482.5' style="stroke-width:8.0;stroke:rgb(150,150,150);stroke-linecap:round;fill:none;" />
<line x1='2245.2' y1='1584.4' x2='2257.2' y2='1585.7' style="stroke-width:8.0;stroke:rgb(150,150,150);stroke-linecap:round;fill:none;" />
<line x1='2227.0' y1='1684.4' x2='2238.6' y2='1687.4' style="stroke-width:8.0;stroke:rgb(150,150,150);stroke-linecap:round;fill:none;" />
<line x1='2195.3' y1='1781.1' x2='2206.5' y2='1785.6' style="stroke-width:8.0;stroke:rgb(150,150,150);stroke-linecap:round;fill:none;" />
<text x="2212.2" y="1803.0" font-size="41.6px" font-family="CMUBright-Roman" style="text-anchor:start;fill:rgb(150,150,150);" transform="rotate(22.0,2212.2,1803.0)" >700 kb</text>
<line x1='2150.9' y1='1872.5' x2='2161.3' y2='1878.5' style="stroke-width:8.0;stroke:rgb(150,150,150);stroke-linecap:round;fill:none;" />
<line x1='2094.6' y1='1957.2' x2='2104.1' y2='1964.5' style="stroke-width:8.0;stroke:rgb(150,150,150);stroke-linecap:round;fill:none;" />
<line x1='2027.2' y1='2033.4' x2='2035.7' y2='2041.9' style="stroke-width:8.0;stroke:rgb(150,150,150);stroke-linecap:round;fill:none;" />
<line x1='1950.2' y1='2099.8' x2='1957.4' y2='2109.4' style="stroke-width:8.0;stroke:rgb(150,150,150);stroke-linecap:round;fill:none;" />
<line x1='1865.0' y1='2155.2' x2='1870.8' y2='2165.7' style="stroke-width:8.0;stroke:rgb(150,150,150);stroke-linecap:round;fill:none;" />
<text x="1864.3" y="2182.9" font-size="41.6px" font-family="CMUBright-Roman" style="text-anchor:start;fill:rgb(150,150,150);" transform="rotate(60.9,1864.3,2182.9)" >750 kb</text>
<g id="highlighttrack_0">
<path d="M2037.467,1383.257 A550.000,550.000 40.000 0,1 2041.709,1404.859 L2238.694,1370.263 A750.000,750.000 0.000 0,0 2232.910,1340.806 Z" style="stroke-width:14.0;stroke:rgb(0,0,0);stroke-linecap:round;fill:rgb(255,38,78);" />
</g>
<path d="M1500.000,950.000 A550.000,550.000 40.000 0,1 1707.955,2009.170 L1783.576,2194.323 A750.000,750.000 0.000 0,0 1500.000,750.000 Z" style="stroke-width:2.0;stroke:rgb(0,0,0);stroke-linecap:round;fill:none;" />
<path d="M1489.370,2049.897 A550.000,550.000 40.000 0,1 1282.242,994.944 L1203.058,811.287 A750.000,750.000 0.000 0,0 1485.504,2249.860 Z" style="stroke-width:2.0;stroke:rgb(0,0,0);stroke-linecap:round;fill:rgb(179,177,178);" />
<text x="500.1" y="1696.3" font-size="46.8px" font-family="CMUBright-Roman" style="text-anchor:middle;fill:rgb(0,0,0);" transform="rotate(78.9,500.1,1696.3)" >Histocap388p11<tspan baseline-shift="-40%" font-size="90%">2</tspan></text>
<line x1='1200.9' y1='812.2' x2='1196.2' y2='801.2' style="stroke-width:8.0;stroke:rgb(150,150,150);stroke-linecap:round;fill:none;" />
<line x1='1110.6' y1='859.0' x2='1104.4' y2='848.7' style="stroke-width:8.0;stroke:rgb(150,150,150);stroke-linecap:round;fill:none;" />
<line x1='1027.5' y1='917.5' x2='1020.0' y2='908.2' style="stroke-width:8.0;stroke:rgb(150,150,150);stroke-linecap:round;fill:none;" />
<line x1='953.1' y1='986.8' x2='944.3' y2='978.6' style="stroke-width:8.0;stroke:rgb(150,150,150);stroke-linecap:round;fill:none;" />
<line x1='888.7' y1='1065.5' x2='878.9' y2='1058.6' style="stroke-width:8.0;stroke:rgb(150,150,150);stroke-linecap:round;fill:none;" />
<text x="861.1" y="1063.1" font-size="41.6px" font-family="CMUBright-Roman" style="text-anchor:end;fill:rgb(150,150,150);" transform="rotate(35.4,861.1,1063.1)" >600 kb</text>
<line x1='835.5' y1='1152.2' x2='824.9' y2='1146.6' style="stroke-width:8.0;stroke:rgb(150,150,150);stroke-linecap:round;fill:none;" />
<line x1='794.6' y1='1245.3' x2='783.3' y2='1241.2' style="stroke-width:8.0;stroke:rgb(150,150,150);stroke-linecap:round;fill:none;" />
<line x1='766.6' y1='1343.1' x2='754.9' y2='1340.6' style="stroke-width:8.0;stroke:rgb(150,150,150);stroke-linecap:round;fill:none;" />
<line x1='752.1' y1='1443.7' x2='740.1' y2='1442.8' style="stroke-width:8.0;stroke:rgb(150,150,150);stroke-linecap:round;fill:none;" />
<line x1='751.4' y1='1545.4' x2='739.4' y2='1546.1' style="stroke-width:8.0;stroke:rgb(150,150,150);stroke-linecap:round;fill:none;" />
<text x="728.4" y="1560.8" font-size="41.6px" font-family="CMUBright-Roman" style="text-anchor:end;fill:rgb(150,150,150);" transform="rotate(-3.5,728.4,1560.8)" >650 kb</text>
<line x1='764.4' y1='1646.3' x2='752.6' y2='1648.6' style="stroke-width:8.0;stroke:rgb(150,150,150);stroke-linecap:round;fill:none;" />
<line x1='790.9' y1='1744.4' x2='779.6' y2='1748.3' style="stroke-width:8.0;stroke:rgb(150,150,150);stroke-linecap:round;fill:none;" />
<line x1='830.5' y1='1838.1' x2='819.8' y2='1843.5' style="stroke-width:8.0;stroke:rgb(150,150,150);stroke-linecap:round;fill:none;" />
<line x1='882.4' y1='1925.5' x2='872.5' y2='1932.4' style="stroke-width:8.0;stroke:rgb(150,150,150);stroke-linecap:round;fill:none;" />
<line x1='945.7' y1='2005.2' x2='936.8' y2='2013.3' style="stroke-width:8.0;stroke:rgb(150,150,150);stroke-linecap:round;fill:none;" />
<text x="937.4" y="2031.6" font-size="41.6px" font-family="CMUBright-Roman" style="text-anchor:end;fill:rgb(150,150,150);" transform="rotate(-42.3,937.4,2031.6)" >700 kb</text>
<line x1='1019.1' y1='2075.5' x2='1011.4' y2='2084.7' style="stroke-width:8.0;stroke:rgb(150,150,150);stroke-linecap:round;fill:none;" />
<line x1='1101.4' y1='2135.3' x2='1095.0' y2='2145.5' style="stroke-width:8.0;stroke:rgb(150,150,150);stroke-linecap:round;fill:none;" />
<line x1='1191.0' y1='2183.4' x2='1186.0' y2='2194.3' style="stroke-width:8.0;stroke:rgb(150,150,150);stroke-linecap:round;fill:none;" />
<line x1='1286.3' y1='2218.9' x2='1282.8' y2='2230.4' style="stroke-width:8.0;stroke:rgb(150,150,150);stroke-linecap:round;fill:none;" />
<line x1='1385.5' y1='2241.2' x2='1383.6' y2='2253.1' style="stroke-width:8.0;stroke:rgb(150,150,150);stroke-linecap:round;fill:none;" />
<text x="1395.7" y="2266.9" font-size="41.6px" font-family="CMUBright-Roman" style="text-anchor:end;fill:rgb(150,150,150);" transform="rotate(-81.2,1395.7,2266.9)" >750 kb</text>
<path d="M1489.370,2049.897 A550.000,550.000 40.000 0,1 1282.242,994.944 L1203.058,811.287 A750.000,750.000 0.000 0,0 1485.504,2249.860 Z" style="stroke-width:2.0;stroke:rgb(0,0,0);stroke-linecap:round;fill:none;" />
</g>
<g id="track_0">
<path d="M 1770.796,1053.149 A 522.500,522.500 0.00 0,1 1917.7,1186.2 L 1917.7,1186.2 1898.4,1200.5 1878.6,1214.5 1858.4,1228.4 1837.8,1241.9 1816.8,1255.1 1795.4,1268.0 1773.7,1280.4 1751.6,1292.4 1729.2,1304.0 1706.4,1315.0 1683.4,1325.6 1660.1,1335.6 1636.4,1345.1 1612.6,1354.0 1588.5,1362.3 1564.2,1370.0 1539.7,1377.1 1515.0,1383.5 1490.1,1389.4 1465.1,1394.5 1440.0,1399.1 1414.8,1403.0 1389.5,1406.2 1364.1,1408.8 1338.7,1410.7 1313.2,1412.0 1287.8,1412.7 1262.4,1412.8 1237.1,1412.3 1211.8,1411.1 1186.7,1409.4 1161.6,1407.2 1136.7,1404.4 1112.0,1401.1 1087.5,1397.3 1063.2,1393.1 1039.2,1388.4 1015.4,1383.3 992.0,1377.9  A 522.500,522.500 0.00 0,1 1074.0,1197.5 L 1074.0,1197.5 1092.1,1210.0 1110.5,1222.1 1129.4,1233.8 1148.6,1244.9 1168.1,1255.4 1187.8,1265.2 1207.8,1274.2 1227.9,1282.5 1248.1,1289.9 1268.5,1296.4 1288.9,1302.0 1309.3,1306.6 1329.7,1310.2 1350.1,1312.7 1370.4,1314.2 1390.6,1314.6 1410.7,1313.8 1430.6,1312.0 1450.3,1309.1 1469.8,1305.1 1489.1,1299.9 1508.0,1293.7 1526.7,1286.4 1545.1,1278.0 1563.2,1268.6 1580.9,1258.1 1598.2,1246.7 1615.1,1234.4 1631.6,1221.2 1647.7,1207.2 1663.3,1192.3 1678.5,1176.7 1693.2,1160.5 1707.4,1143.6 1721.1,1126.3 1734.3,1108.5 1747.0,1090.3 1759.2,1071.8 1770.8,1053.1  Z" style="stroke-width: 0.5;  stroke: rgb(0,0,0); fill: rgb(179,177,178);" />
<path d="M 1613.462,989.968 A 522.500,522.500 0.00 0,1 1769.1,1052.1 L 1769.1,1052.1 1757.6,1070.8 1745.5,1089.3 1732.9,1107.5 1719.8,1125.4 1706.1,1142.8 1692.0,1159.7 1677.4,1175.9 1662.3,1191.5 1646.7,1206.4 1630.7,1220.5 1614.3,1233.7 1597.4,1246.1 1580.2,1257.5 1562.5,1267.9 1544.6,1277.4 1526.2,1285.8 1507.6,1293.1 1488.7,1299.3 1469.5,1304.5 1450.1,1308.5 1430.4,1311.5 1410.5,1313.3 1390.5,1314.0 1370.4,1313.6 1350.1,1312.1 1329.8,1309.6 1309.4,1306.0 1289.1,1301.4 1268.7,1295.8 1248.4,1289.2 1228.2,1281.8 1208.2,1273.5 1188.3,1264.4 1168.6,1254.6 1149.1,1244.0 1130.0,1232.9 1111.2,1221.2 1092.7,1209.0 1074.7,1196.5  A 522.500,522.500 0.00 0,1 1192.6,1077.5 L 1192.6,1077.5 1205.0,1094.1 1217.6,1110.5 1230.6,1126.4 1243.7,1141.8 1257.0,1156.6 1270.5,1170.7 1284.1,1184.0 1297.8,1196.3 1311.5,1207.7 1325.1,1218.1 1338.8,1227.4 1352.4,1235.4 1365.8,1242.3 1379.2,1247.9 1392.3,1252.2 1405.3,1255.2 1418.1,1256.8 1430.7,1257.1 1443.0,1255.9 1455.0,1253.4 1466.7,1249.6 1478.1,1244.3 1489.2,1237.7 1499.9,1229.8 1510.3,1220.6 1520.3,1210.2 1529.9,1198.5 1539.2,1185.7 1548.0,1171.8 1556.4,1156.8 1564.4,1140.9 1572.0,1124.1 1579.2,1106.5 1585.9,1088.2 1592.3,1069.3 1598.2,1049.9 1603.7,1030.2 1608.8,1010.1 1613.5,990.0  Z" style="stroke-width: 0.5;  stroke: rgb(0,0,0); fill: rgb(179,177,178);" />
<path d="M 1956.991,1246.691 A 522.500,522.500 0.00 0,1 2010.6,1389.1 L 2010.6,1389.1 1984.5,1394.8 1958.3,1400.4 1932.2,1406.1 1906.0,1411.7 1879.9,1417.3 1853.7,1423.0 1827.5,1428.6 1801.3,1434.2 1775.1,1439.7 1748.9,1445.3 1722.6,1450.9 1696.4,1456.4 1670.2,1461.9 1643.9,1467.5 1617.7,1473.0 1591.4,1478.4 1565.2,1483.9 1538.9,1489.4 1512.6,1494.8 1486.3,1500.2 1460.1,1505.6 1433.8,1511.0 1407.5,1516.4 1381.2,1521.8 1354.9,1527.1 1328.7,1532.4 1302.4,1537.7 1276.1,1543.0 1249.8,1548.3 1223.5,1553.6 1197.3,1558.8 1171.0,1564.1 1144.7,1569.3 1118.5,1574.5 1092.2,1579.7 1065.9,1584.9 1039.7,1590.0 1013.5,1595.2 987.2,1600.3  A 522.500,522.500 0.00 0,1 980.1,1448.2 L 980.1,1448.2 1004.9,1450.5 1029.9,1452.5 1055.1,1454.2 1080.5,1455.6 1106.1,1456.7 1131.8,1457.3 1157.7,1457.6 1183.6,1457.6 1209.7,1457.1 1235.8,1456.2 1262.0,1454.8 1288.2,1453.1 1314.5,1450.9 1340.8,1448.2 1367.0,1445.2 1393.3,1441.6 1419.5,1437.6 1445.6,1433.2 1471.7,1428.3 1497.6,1422.9 1523.5,1417.1 1549.3,1410.8 1574.9,1404.1 1600.4,1397.0 1625.8,1389.5 1650.9,1381.5 1675.9,1373.1 1700.7,1364.4 1725.3,1355.2 1749.6,1345.7 1773.8,1335.9 1797.6,1325.7 1821.3,1315.2 1844.6,1304.4 1867.7,1293.3 1890.5,1282.0 1913.0,1270.4 1935.1,1258.6 1957.0,1246.7  Z" style="stroke-width: 0.5;  stroke: rgb(0,0,0); fill: rgb(179,177,178);" />
<path d="M 1746.134,1960.895 A 522.500,522.500 0.00 0,1 1697.6,1983.7 L 1697.6,1983.7 1689.8,1965.0 1681.9,1946.6 1673.9,1928.4 1665.8,1910.7 1657.6,1893.7 1649.4,1877.3 1641.2,1861.7 1633.1,1847.1 1625.0,1833.4 1617.0,1820.8 1609.1,1809.4 1601.4,1799.2 1593.8,1790.3 1586.4,1782.7 1579.2,1776.6 1572.2,1771.8 1565.5,1768.5 1558.9,1766.6 1552.7,1766.2 1546.7,1767.3 1541.0,1769.9 1535.6,1774.0 1530.5,1779.6 1525.7,1786.5 1521.2,1794.9 1517.0,1804.6 1513.2,1815.7 1509.6,1828.0 1506.4,1841.4 1503.5,1856.1 1500.8,1871.7 1498.5,1888.3 1496.5,1905.8 1494.7,1924.0 1493.3,1942.9 1492.1,1962.3 1491.1,1982.1 1490.4,2002.2 1489.9,2022.4  A 522.500,522.500 0.00 0,1 1380.1,2008.5 L 1380.1,2008.5 1384.9,1988.6 1390.2,1968.8 1395.7,1949.3 1401.7,1930.2 1407.9,1911.7 1414.5,1893.7 1421.5,1876.6 1428.7,1860.2 1436.3,1844.8 1444.2,1830.5 1452.5,1817.2 1461.0,1805.0 1469.8,1794.1 1478.9,1784.4 1488.2,1776.1 1497.8,1769.1 1507.7,1763.4 1517.8,1759.2 1528.0,1756.4 1538.5,1755.1 1549.2,1755.1 1560.0,1756.6 1571.0,1759.5 1582.1,1763.8 1593.2,1769.5 1604.5,1776.5 1615.8,1784.9 1627.1,1794.4 1638.5,1805.2 1649.8,1817.1 1661.1,1830.0 1672.3,1843.9 1683.4,1858.7 1694.4,1874.4 1705.2,1890.7 1715.8,1907.6 1726.2,1925.1 1736.3,1942.9 1746.1,1960.9  Z" style="stroke-width: 0.5;  stroke: rgb(0,0,0); fill: rgb(179,177,178);" />
<path d="M 1500.000,977.500 A 522.500,522.500 0.00 0,1 1612.8,989.8 L 1612.8,989.8 1608.1,1010.0 1603.0,1030.0 1597.6,1049.8 1591.7,1069.2 1585.4,1088.1 1578.7,1106.4 1571.5,1124.0 1564.0,1140.8 1556.0,1156.7 1547.6,1171.6 1538.8,1185.5 1529.6,1198.4 1520.1,1210.0 1510.1,1220.5 1499.8,1229.7 1489.1,1237.6 1478.0,1244.2 1466.7,1249.4 1455.0,1253.3 1443.0,1255.8 1430.7,1256.9 1418.2,1256.6 1405.5,1255.0 1392.5,1252.0 1379.4,1247.7 1366.1,1242.0 1352.6,1235.2 1339.1,1227.1 1325.5,1217.8 1311.8,1207.4 1298.2,1196.0 1284.6,1183.6 1271.0,1170.3 1257.6,1156.2 1244.2,1141.4 1231.1,1126.0 1218.2,1110.0 1205.6,1093.6 1193.3,1077.0  A 522.500,522.500 0.00 0,1 1293.1,1020.2 L 1293.1,1020.2 1301.2,1038.7 1309.5,1057.0 1317.9,1075.0 1326.3,1092.5 1334.8,1109.5 1343.3,1125.7 1351.8,1141.1 1360.2,1155.6 1368.6,1169.1 1376.8,1181.5 1384.9,1192.7 1392.9,1202.8 1400.6,1211.6 1408.2,1219.0 1415.5,1225.0 1422.6,1229.7 1429.4,1232.9 1435.9,1234.6 1442.2,1234.8 1448.1,1233.6 1453.8,1230.9 1459.1,1226.7 1464.1,1221.1 1468.7,1214.0 1473.1,1205.6 1477.1,1195.8 1480.7,1184.7 1484.0,1172.3 1487.0,1158.7 1489.7,1144.1 1492.0,1128.4 1494.0,1111.7 1495.7,1094.2 1497.1,1076.0 1498.2,1057.1 1499.0,1037.6 1499.6,1017.8 1499.9,997.7 1500.0,977.5  Z" style="stroke-width: 0.5;  stroke: rgb(0,0,0); fill: rgb(179,177,178);" />
<path d="M 2002.261,1644.015 A 522.500,522.500 0.00 0,1 1958.4,1750.7 L 1958.4,1750.7 1938.4,1740.0 1918.0,1729.8 1897.2,1720.0 1876.1,1710.7 1854.6,1702.0 1832.9,1693.9 1811.0,1686.6 1788.9,1679.9 1766.6,1674.0 1744.2,1668.9 1721.7,1664.6 1699.1,1661.2 1676.5,1658.7 1653.9,1657.1 1631.4,1656.4 1608.8,1656.7 1586.4,1657.9 1564.1,1660.1 1541.9,1663.3 1519.9,1667.4 1498.1,1672.5 1476.5,1678.5 1455.2,1685.5 1434.1,1693.4 1413.3,1702.1 1392.8,1711.8 1372.6,1722.3 1352.8,1733.6 1333.4,1745.8 1314.3,1758.6 1295.7,1772.2 1277.5,1786.4 1259.7,1801.2 1242.4,1816.6 1225.5,1832.4 1209.2,1848.7 1193.3,1865.3 1178.0,1882.3 1163.2,1899.4  A 522.500,522.500 0.00 0,1 1083.8,1815.9 L 1083.8,1815.9 1103.0,1801.6 1122.6,1787.5 1142.6,1773.7 1163.1,1760.2 1183.9,1747.1 1205.2,1734.3 1226.8,1722.0 1248.8,1710.1 1271.1,1698.7 1293.7,1687.8 1316.6,1677.4 1339.8,1667.7 1363.3,1658.5 1387.1,1649.9 1411.1,1641.9 1435.3,1634.6 1459.6,1628.0 1484.2,1622.0 1508.9,1616.6 1533.8,1612.0 1558.8,1608.0 1583.9,1604.7 1609.0,1602.1 1634.2,1600.2 1659.5,1598.9 1684.7,1598.4 1709.9,1598.4 1735.1,1599.1 1760.3,1600.5 1785.3,1602.5 1810.2,1605.0 1835.0,1608.2 1859.6,1611.9 1884.0,1616.1 1908.2,1620.8 1932.2,1626.0 1955.8,1631.6 1979.2,1637.6 2002.3,1644.0  Z" style="stroke-width: 0.5;  stroke: rgb(0,0,0); fill: rgb(179,177,178);" />
<path d="M 2014.623,1409.616 A 522.500,522.500 0.00 0,1 2022.1,1520.9 L 2022.1,1520.9 1996.7,1520.0 1971.2,1519.3 1945.4,1518.9 1919.6,1518.7 1893.6,1518.8 1867.5,1519.2 1841.3,1519.8 1815.0,1520.8 1788.6,1522.1 1762.2,1523.6 1735.7,1525.5 1709.2,1527.8 1682.6,1530.3 1656.1,1533.2 1629.5,1536.4 1603.0,1540.0 1576.4,1543.9 1549.9,1548.1 1523.5,1552.7 1497.1,1557.6 1470.8,1562.9 1444.5,1568.5 1418.3,1574.4 1392.3,1580.6 1366.3,1587.2 1340.5,1594.1 1314.8,1601.2 1289.3,1608.7 1263.9,1616.5 1238.7,1624.5 1213.6,1632.9 1188.7,1641.4 1164.1,1650.2 1139.6,1659.3 1115.3,1668.6 1091.2,1678.0 1067.4,1687.7 1043.8,1697.5 1020.5,1707.5  A 522.500,522.500 0.00 0,1 987.4,1601.0 L 987.4,1601.0 1013.6,1595.9 1039.8,1590.7 1066.1,1585.6 1092.3,1580.4 1118.6,1575.3 1144.9,1570.2 1171.2,1565.1 1197.5,1560.0 1223.8,1554.9 1250.1,1549.9 1276.4,1544.8 1302.8,1539.8 1329.1,1534.8 1355.5,1529.8 1381.8,1524.8 1408.2,1519.8 1434.5,1514.8 1460.9,1509.9 1487.3,1505.0 1513.7,1500.0 1540.0,1495.1 1566.4,1490.3 1592.8,1485.4 1619.2,1480.5 1645.6,1475.7 1671.9,1470.9 1698.3,1466.1 1724.7,1461.3 1751.1,1456.5 1777.4,1451.8 1803.8,1447.0 1830.2,1442.3 1856.6,1437.6 1882.9,1432.9 1909.3,1428.2 1935.6,1423.5 1962.0,1418.9 1988.3,1414.2 2014.6,1409.6  Z" style="stroke-width: 0.5;  stroke: rgb(0,0,0); fill: rgb(179,177,178);" />
<path d="M 1920.184,1810.567 A 522.500,522.500 0.00 0,1 1854.5,1883.9 L 1854.5,1883.9 1839.9,1868.5 1825.0,1853.4 1809.7,1838.8 1794.1,1824.7 1778.3,1811.2 1762.2,1798.4 1746.0,1786.4 1729.6,1775.3 1713.1,1765.1 1696.5,1755.9 1679.9,1747.8 1663.3,1740.8 1646.7,1734.9 1630.2,1730.2 1613.8,1726.7 1597.5,1724.4 1581.3,1723.4 1565.3,1723.7 1549.5,1725.3 1534.0,1728.2 1518.7,1732.3 1503.6,1737.8 1488.9,1744.4 1474.4,1752.3 1460.3,1761.4 1446.6,1771.7 1433.2,1783.1 1420.2,1795.6 1407.6,1809.1 1395.4,1823.6 1383.6,1839.0 1372.2,1855.3 1361.3,1872.2 1350.8,1889.9 1340.9,1908.1 1331.3,1926.9 1322.3,1946.0 1313.7,1965.4 1305.6,1985.0  A 522.500,522.500 0.00 0,1 1218.0,1939.9 L 1218.0,1939.9 1230.1,1921.5 1242.7,1903.3 1255.9,1885.5 1269.6,1868.0 1283.7,1850.9 1298.4,1834.4 1313.5,1818.5 1329.1,1803.3 1345.1,1788.9 1361.5,1775.2 1378.4,1762.3 1395.7,1750.4 1413.3,1739.4 1431.3,1729.4 1449.6,1720.4 1468.2,1712.4 1487.1,1705.5 1506.3,1699.7 1525.8,1695.0 1545.4,1691.3 1565.2,1688.8 1585.2,1687.4 1605.4,1687.2 1625.6,1688.0 1645.9,1689.9 1666.3,1692.8 1686.7,1696.8 1707.1,1701.8 1727.4,1707.8 1747.7,1714.7 1767.8,1722.5 1787.8,1731.2 1807.6,1740.7 1827.1,1750.9 1846.4,1761.7 1865.4,1773.2 1884.1,1785.2 1902.3,1797.7 1920.2,1810.6  Z" style="stroke-width: 0.5;  stroke: rgb(0,0,0); fill: rgb(179,177,178);" />
<path d="M 1919.007,1187.847 A 522.500,522.500 0.00 0,1 1956.6,1246.1 L 1956.6,1246.1 1934.8,1258.0 1912.7,1269.8 1890.2,1281.4 1867.4,1292.8 1844.4,1303.9 1821.0,1314.7 1797.4,1325.2 1773.6,1335.4 1749.5,1345.3 1725.1,1354.8 1700.6,1364.0 1675.8,1372.8 1650.8,1381.1 1625.6,1389.1 1600.3,1396.7 1574.8,1403.8 1549.2,1410.5 1523.4,1416.8 1497.6,1422.6 1471.6,1427.9 1445.5,1432.8 1419.4,1437.3 1393.2,1441.3 1367.0,1444.8 1340.7,1447.9 1314.5,1450.5 1288.2,1452.7 1262.0,1454.4 1235.8,1455.7 1209.7,1456.6 1183.6,1457.1 1157.7,1457.1 1131.8,1456.8 1106.1,1456.1 1080.6,1455.0 1055.2,1453.6 1029.9,1451.9 1004.9,1449.8 980.2,1447.4  A 522.500,522.500 0.00 0,1 991.7,1379.0 L 991.7,1379.0 1015.2,1384.4 1039.0,1389.4 1063.0,1394.0 1087.3,1398.2 1111.9,1402.0 1136.6,1405.2 1161.5,1408.0 1186.6,1410.2 1211.8,1411.9 1237.1,1413.0 1262.4,1413.5 1287.9,1413.4 1313.3,1412.7 1338.8,1411.4 1364.2,1409.5 1389.6,1406.9 1414.9,1403.7 1440.2,1399.8 1465.4,1395.3 1490.4,1390.1 1515.3,1384.3 1540.0,1377.9 1564.6,1370.8 1588.9,1363.1 1613.1,1354.9 1637.0,1346.0 1660.6,1336.6 1684.0,1326.6 1707.1,1316.1 1729.9,1305.1 1752.3,1293.6 1774.5,1281.6 1796.3,1269.2 1817.7,1256.5 1838.8,1243.3 1859.4,1229.8 1879.7,1216.1 1899.6,1202.1 1919.0,1187.8  Z" style="stroke-width: 0.5;  stroke: rgb(0,0,0); fill: rgb(179,177,178);" />
<path d="M 2016.260,1580.511 A 522.500,522.500 0.00 0,1 2002.9,1641.8 L 2002.9,1641.8 1979.8,1635.5 1956.4,1629.6 1932.6,1624.0 1908.6,1618.9 1884.4,1614.3 1859.9,1610.2 1835.3,1606.6 1810.5,1603.5 1785.5,1601.0 1760.5,1599.1 1735.3,1597.8 1710.1,1597.2 1684.8,1597.2 1659.5,1597.8 1634.3,1599.1 1609.0,1601.0 1583.8,1603.7 1558.7,1607.0 1533.7,1611.0 1508.8,1615.7 1484.0,1621.0 1459.4,1627.0 1435.0,1633.7 1410.8,1641.0 1386.7,1649.0 1362.9,1657.5 1339.4,1666.7 1316.1,1676.4 1293.2,1686.8 1270.5,1697.6 1248.1,1709.0 1226.1,1720.8 1204.4,1733.1 1183.1,1745.8 1162.2,1758.9 1141.7,1772.4 1121.6,1786.1 1101.9,1800.1 1082.7,1814.4  A 522.500,522.500 0.00 0,1 1048.0,1762.1 L 1048.0,1762.1 1069.4,1749.9 1091.2,1737.8 1113.3,1726.0 1135.8,1714.5 1158.5,1703.2 1181.6,1692.2 1204.9,1681.6 1228.5,1671.3 1252.4,1661.4 1276.6,1651.9 1300.9,1642.8 1325.5,1634.1 1350.4,1625.9 1375.4,1618.1 1400.6,1610.8 1425.9,1603.9 1451.4,1597.6 1477.1,1591.7 1502.8,1586.4 1528.7,1581.5 1554.6,1577.2 1580.6,1573.3 1606.7,1570.0 1632.8,1567.2 1658.9,1564.9 1685.1,1563.1 1711.2,1561.8 1737.3,1560.9 1763.3,1560.6 1789.2,1560.7 1815.1,1561.3 1840.8,1562.3 1866.5,1563.8 1891.9,1565.6 1917.2,1567.9 1942.3,1570.6 1967.2,1573.5 1991.9,1576.9 2016.3,1580.5  Z" style="stroke-width: 0.5;  stroke: rgb(0,0,0); fill: rgb(179,177,178);" />
<path d="M 1957.511,1752.369 A 522.500,522.500 0.00 0,1 1930.6,1795.9 L 1930.6,1795.9 1912.2,1783.6 1893.4,1771.7 1874.2,1760.2 1854.6,1749.2 1834.8,1738.9 1814.6,1729.2 1794.3,1720.3 1773.7,1712.1 1753.0,1704.8 1732.2,1698.3 1711.3,1692.8 1690.3,1688.2 1669.4,1684.5 1648.4,1681.9 1627.5,1680.4 1606.6,1679.8 1585.9,1680.4 1565.3,1682.0 1544.8,1684.7 1524.6,1688.5 1504.5,1693.3 1484.7,1699.2 1465.2,1706.2 1445.9,1714.2 1427.0,1723.1 1408.3,1733.1 1390.1,1744.0 1372.2,1755.9 1354.7,1768.6 1337.6,1782.1 1320.9,1796.4 1304.7,1811.4 1288.9,1827.1 1273.6,1843.3 1258.8,1860.1 1244.5,1877.4 1230.7,1895.0 1217.4,1912.9 1204.6,1931.0  A 522.500,522.500 0.00 0,1 1163.9,1900.0 L 1163.9,1900.0 1178.6,1882.9 1193.9,1865.9 1209.8,1849.2 1226.1,1833.0 1242.9,1817.1 1260.2,1801.7 1277.9,1786.9 1296.1,1772.7 1314.7,1759.1 1333.7,1746.2 1353.1,1734.1 1372.9,1722.8 1393.0,1712.3 1413.4,1702.7 1434.2,1693.9 1455.3,1686.0 1476.6,1679.1 1498.1,1673.1 1519.9,1668.0 1541.9,1663.9 1564.0,1660.8 1586.3,1658.7 1608.7,1657.5 1631.1,1657.2 1653.6,1658.0 1676.2,1659.6 1698.8,1662.2 1721.3,1665.6 1743.7,1670.0 1766.1,1675.1 1788.3,1681.1 1810.4,1687.8 1832.3,1695.3 1854.0,1703.4 1875.3,1712.1 1896.4,1721.5 1917.2,1731.3 1937.6,1741.7 1957.5,1752.4  Z" style="stroke-width: 0.5;  stroke: rgb(0,0,0); fill: rgb(179,177,178);" />
<path d="M 1782.598,1939.482 A 522.500,522.500 0.00 0,1 1746.8,1960.6 L 1746.8,1960.6 1736.9,1942.5 1726.8,1924.8 1716.3,1907.3 1705.7,1890.4 1694.9,1874.1 1683.9,1858.5 1672.7,1843.7 1661.5,1829.7 1650.2,1816.8 1638.8,1804.9 1627.4,1794.2 1616.0,1784.6 1604.7,1776.3 1593.4,1769.3 1582.2,1763.7 1571.0,1759.3 1560.0,1756.4 1549.2,1754.9 1538.5,1754.9 1527.9,1756.2 1517.6,1759.0 1507.5,1763.3 1497.6,1768.9 1487.9,1775.9 1478.5,1784.2 1469.4,1793.9 1460.5,1804.8 1452.0,1817.0 1443.7,1830.3 1435.7,1844.7 1428.1,1860.1 1420.8,1876.4 1413.8,1893.5 1407.2,1911.5 1400.8,1930.0 1394.9,1949.1 1389.3,1968.6 1384.0,1988.4 1379.1,2008.3  A 522.500,522.500 0.00 0,1 1339.0,1997.1 L 1339.0,1997.1 1345.6,1977.4 1352.6,1957.9 1360.0,1938.6 1367.8,1919.8 1376.0,1901.5 1384.5,1883.9 1393.5,1867.0 1402.8,1850.8 1412.4,1835.6 1422.4,1821.4 1432.7,1808.2 1443.4,1796.2 1454.3,1785.3 1465.6,1775.6 1477.1,1767.2 1488.9,1760.1 1500.9,1754.4 1513.2,1750.0 1525.6,1747.0 1538.3,1745.3 1551.1,1745.1 1564.1,1746.2 1577.2,1748.7 1590.4,1752.5 1603.7,1757.7 1617.0,1764.2 1630.4,1771.9 1643.8,1780.8 1657.1,1790.9 1670.4,1802.1 1683.6,1814.4 1696.7,1827.6 1709.7,1841.7 1722.5,1856.5 1735.0,1872.1 1747.4,1888.3 1759.4,1905.0 1771.2,1922.1 1782.6,1939.5  Z" style="stroke-width: 0.5;  stroke: rgb(0,0,0); fill: rgb(179,177,178);" />
<path d="M 1807.223,1922.635 A 522.500,522.500 0.00 0,1 1783.2,1939.1 L 1783.2,1939.1 1771.8,1921.8 1760.0,1904.7 1747.9,1888.0 1735.5,1871.8 1722.9,1856.2 1710.1,1841.3 1697.1,1827.3 1684.0,1814.1 1670.8,1801.9 1657.4,1790.7 1644.0,1780.6 1630.6,1771.6 1617.2,1763.9 1603.9,1757.5 1590.5,1752.3 1577.3,1748.5 1564.2,1746.0 1551.2,1744.9 1538.3,1745.1 1525.6,1746.8 1513.1,1749.8 1500.8,1754.2 1488.7,1760.0 1476.9,1767.1 1465.4,1775.5 1454.1,1785.1 1443.1,1796.0 1432.4,1808.1 1422.0,1821.2 1412.0,1835.5 1402.3,1850.7 1393.0,1866.8 1384.0,1883.7 1375.5,1901.4 1367.2,1919.6 1359.4,1938.4 1352.0,1957.7 1345.0,1977.2 1338.4,1996.9  A 522.500,522.500 0.00 0,1 1310.9,1987.1 L 1310.9,1987.1 1318.7,1967.6 1326.9,1948.4 1335.6,1929.4 1344.7,1910.8 1354.2,1892.8 1364.1,1875.4 1374.4,1858.7 1385.1,1842.8 1396.1,1827.8 1407.5,1813.7 1419.3,1800.7 1431.4,1788.7 1443.8,1777.9 1456.5,1768.3 1469.5,1759.9 1482.7,1752.8 1496.2,1746.9 1510.0,1742.4 1523.9,1739.3 1538.0,1737.4 1552.3,1736.9 1566.7,1737.8 1581.3,1740.0 1595.9,1743.5 1610.6,1748.3 1625.3,1754.3 1640.1,1761.6 1654.8,1770.1 1669.5,1779.7 1684.2,1790.4 1698.7,1802.1 1713.1,1814.7 1727.3,1828.2 1741.3,1842.5 1755.1,1857.5 1768.6,1873.2 1781.8,1889.3 1794.7,1905.8 1807.2,1922.6  Z" style="stroke-width: 0.5;  stroke: rgb(0,0,0); fill: rgb(179,177,178);" />
<path d="M 2022.054,1521.591 A 522.500,522.500 0.00 0,1 2021.1,1538.4 L 2021.1,1538.4 1996.0,1536.7 1970.6,1535.2 1945.1,1534.0 1919.4,1533.1 1893.6,1532.5 1867.7,1532.2 1841.6,1532.2 1815.4,1532.6 1789.2,1533.3 1762.8,1534.3 1736.4,1535.8 1710.0,1537.6 1683.5,1539.7 1657.0,1542.3 1630.5,1545.2 1604.1,1548.5 1577.6,1552.2 1551.2,1556.3 1524.8,1560.8 1498.6,1565.7 1472.3,1570.9 1446.2,1576.5 1420.2,1582.5 1394.3,1588.9 1368.5,1595.7 1342.9,1602.8 1317.4,1610.2 1292.0,1618.0 1266.9,1626.1 1241.9,1634.6 1217.1,1643.3 1192.6,1652.3 1168.2,1661.6 1144.1,1671.2 1120.2,1681.0 1096.5,1691.1 1073.1,1701.3 1050.0,1711.7 1027.2,1722.3  A 522.500,522.500 0.00 0,1 1020.3,1707.0 L 1020.3,1707.0 1043.6,1697.0 1067.2,1687.2 1091.1,1677.6 1115.1,1668.2 1139.4,1658.9 1163.9,1649.9 1188.6,1641.1 1213.5,1632.6 1238.5,1624.3 1263.8,1616.3 1289.2,1608.5 1314.7,1601.1 1340.4,1593.9 1366.3,1587.1 1392.2,1580.5 1418.3,1574.3 1444.4,1568.4 1470.7,1562.9 1497.0,1557.7 1523.4,1552.8 1549.9,1548.2 1576.4,1544.0 1602.9,1540.1 1629.5,1536.6 1656.0,1533.4 1682.6,1530.6 1709.2,1528.1 1735.7,1525.9 1762.2,1524.0 1788.6,1522.5 1815.0,1521.2 1841.3,1520.3 1867.5,1519.7 1893.6,1519.3 1919.6,1519.3 1945.4,1519.5 1971.1,1520.0 1996.7,1520.7 2022.1,1521.6  Z" style="stroke-width: 0.5;  stroke: rgb(0,0,0); fill: rgb(179,177,178);" />
<path d="M 2019.247,1558.216 A 522.500,522.500 0.00 0,1 2017.2,1574.3 L 2017.2,1574.3 1992.7,1570.9 1967.9,1567.8 1942.9,1565.1 1917.6,1562.7 1892.3,1560.7 1866.7,1559.0 1841.0,1557.8 1815.1,1556.9 1789.2,1556.5 1763.2,1556.5 1737.0,1557.0 1710.9,1557.9 1684.7,1559.3 1658.5,1561.1 1632.3,1563.5 1606.1,1566.3 1579.9,1569.6 1553.8,1573.4 1527.7,1577.7 1501.7,1582.5 1475.9,1587.8 1450.1,1593.5 1424.5,1599.7 1399.0,1606.4 1373.6,1613.5 1348.5,1621.1 1323.5,1629.1 1298.7,1637.5 1274.1,1646.4 1249.8,1655.6 1225.7,1665.3 1201.9,1675.2 1178.3,1685.6 1155.0,1696.2 1132.0,1707.1 1109.2,1718.4 1086.8,1729.8 1064.8,1741.5 1043.0,1753.4  A 522.500,522.500 0.00 0,1 1035.4,1739.1 L 1035.4,1739.1 1057.7,1727.8 1080.2,1716.7 1103.1,1705.8 1126.3,1695.1 1149.7,1684.7 1173.4,1674.5 1197.3,1664.7 1221.5,1655.1 1246.0,1645.9 1270.6,1637.1 1295.5,1628.6 1320.5,1620.4 1345.8,1612.7 1371.2,1605.3 1396.7,1598.4 1422.4,1591.9 1448.2,1585.7 1474.2,1580.1 1500.2,1574.8 1526.4,1570.0 1552.6,1565.7 1578.9,1561.7 1605.2,1558.3 1631.5,1555.2 1657.9,1552.6 1684.2,1550.5 1710.6,1548.7 1736.9,1547.4 1763.1,1546.5 1789.3,1546.0 1815.4,1546.0 1841.4,1546.3 1867.3,1547.0 1893.1,1548.0 1918.7,1549.4 1944.1,1551.2 1969.4,1553.2 1994.4,1555.6 2019.2,1558.2  Z" style="stroke-width: 0.5;  stroke: rgb(0,0,0); fill: rgb(179,177,178);" />
<path d="M 1929.771,1797.159 A 522.500,522.500 0.00 0,1 1921.9,1808.2 L 1921.9,1808.2 1904.0,1795.4 1885.6,1783.1 1866.9,1771.1 1847.8,1759.7 1828.4,1749.0 1808.8,1738.9 1788.9,1729.5 1768.9,1720.9 1748.7,1713.2 1728.3,1706.3 1707.9,1700.5 1687.5,1695.5 1667.0,1691.6 1646.6,1688.7 1626.2,1686.9 1605.9,1686.2 1585.7,1686.5 1565.6,1688.0 1545.7,1690.6 1526.0,1694.2 1506.5,1699.0 1487.3,1704.9 1468.3,1711.8 1449.6,1719.8 1431.2,1728.9 1413.2,1738.9 1395.5,1749.9 1378.2,1761.9 1361.3,1774.7 1344.8,1788.4 1328.8,1802.9 1313.1,1818.2 1298.0,1834.1 1283.3,1850.6 1269.1,1867.6 1255.4,1885.1 1242.2,1903.0 1229.6,1921.1 1217.4,1939.5  A 522.500,522.500 0.00 0,1 1206.1,1932.0 L 1206.1,1932.0 1218.8,1913.9 1232.0,1895.9 1245.7,1878.3 1260.0,1861.0 1274.7,1844.2 1289.9,1827.9 1305.6,1812.2 1321.8,1797.1 1338.4,1782.8 1355.4,1769.3 1372.9,1756.6 1390.7,1744.7 1408.9,1733.8 1427.5,1723.8 1446.4,1714.8 1465.6,1706.8 1485.1,1699.8 1504.8,1693.9 1524.8,1689.1 1545.0,1685.3 1565.4,1682.6 1585.9,1681.0 1606.6,1680.5 1627.4,1681.1 1648.3,1682.6 1669.2,1685.3 1690.1,1688.9 1711.0,1693.5 1731.8,1699.1 1752.6,1705.6 1773.3,1713.0 1793.8,1721.2 1814.1,1730.2 1834.1,1739.9 1854.0,1750.3 1873.5,1761.3 1892.6,1772.8 1911.4,1784.8 1929.8,1797.2  Z" style="stroke-width: 0.5;  stroke: rgb(0,0,0); fill: rgb(179,177,178);" />
<path d="M 2021.035,1539.094 A 522.500,522.500 0.00 0,1 2020.1,1550.3 L 2020.1,1550.3 1995.1,1548.0 1970.0,1546.0 1944.6,1544.3 1919.1,1542.9 1893.4,1541.8 1867.5,1541.0 1841.5,1540.6 1815.5,1540.6 1789.3,1540.9 1763.0,1541.6 1736.7,1542.7 1710.3,1544.2 1683.9,1546.1 1657.5,1548.4 1631.1,1551.1 1604.7,1554.3 1578.3,1557.8 1552.0,1561.8 1525.7,1566.2 1499.5,1571.0 1473.4,1576.3 1447.4,1581.9 1421.4,1588.0 1395.6,1594.4 1370.0,1601.3 1344.5,1608.5 1319.1,1616.1 1294.0,1624.1 1269.0,1632.4 1244.2,1641.1 1219.6,1650.1 1195.2,1659.4 1171.1,1669.1 1147.2,1679.0 1123.6,1689.1 1100.2,1699.5 1077.1,1710.1 1054.3,1721.0 1031.8,1732.0  A 522.500,522.500 0.00 0,1 1026.9,1721.8 L 1026.9,1721.8 1049.8,1711.3 1072.9,1700.9 1096.3,1690.6 1120.0,1680.6 1143.9,1670.8 1168.0,1661.3 1192.4,1652.0 1217.0,1643.0 1241.8,1634.3 1266.7,1625.9 1291.9,1617.8 1317.3,1610.0 1342.8,1602.6 1368.4,1595.6 1394.2,1588.8 1420.1,1582.5 1446.1,1576.5 1472.3,1570.9 1498.5,1565.7 1524.8,1560.9 1551.1,1556.4 1577.6,1552.4 1604.0,1548.7 1630.5,1545.4 1657.0,1542.5 1683.5,1540.0 1709.9,1537.9 1736.4,1536.1 1762.8,1534.7 1789.1,1533.7 1815.4,1533.0 1841.6,1532.7 1867.6,1532.7 1893.6,1533.0 1919.4,1533.7 1945.1,1534.6 1970.6,1535.8 1995.9,1537.3 2021.0,1539.1  Z" style="stroke-width: 0.5;  stroke: rgb(0,0,0); fill: rgb(179,177,178);" />
</g>
<g id="plot0">
<g id="plot0-axis">
</g>
<line x1='2243.1' y1='1601.2' x2='2243.1' y2='1601.2' style="stroke-width:14.0;stroke:rgb(0,0,0);stroke-linecap:round;fill:none;" />
<line x1='2243.1' y1='1601.2' x2='2282.8' y2='1606.6' style="stroke-width:14.0;stroke:rgb(0,0,0);stroke-linecap:round;fill:none;" />
<line x1='2282.8' y1='1606.6' x2='2282.8' y2='1606.6' style="stroke-width:14.0;stroke:rgb(0,0,0);stroke-linecap:round;fill:none;" />
<text x="2299.2" y="1631.5" font-size="46.8px" font-family="CMUBright-Roman" style="text-anchor:start;fill:rgb(255,38,78);" transform="rotate(7.8,2299.2,1631.5)" >HistocapWGSS11<tspan baseline-shift="-40%" font-size="90%">s</tspan>01445</text>
</g>
<defs>
<pattern id="vline-sparse" width="10" height="10" patternTransform="rotate(0 0 0)" patternUnits="userSpaceOnUse"><line x1="0" y1="0" x2="0" y2="10" style="stroke:black;stroke-width:2" /></pattern>
<pattern id="checker" width="10" height="10" patternTransform="rotate(45 0 0)" patternUnits="userSpaceOnUse"><line x1="0" y1="0" x2="10" y2="0" style="stroke:black;stroke-width:2" /><line x1="0" y1="0" x2="0" y2="10" style="stroke:black;stroke-width:2" /></pattern>
<pattern id="hline" width="10" height="10" patternTransform="rotate(0 0 0)" patternUnits="userSpaceOnUse"><line x1="0" y1="0" x2="10" y2="0" style="stroke:black;stroke-width:5" /></pattern>
<pattern id="checker" width="10" height="10" patternTransform="rotate(45 0 0)" patternUnits="userSpaceOnUse"><line x1="0" y1="0" x2="10" y2="0" style="stroke:black;stroke-width:5" /><line x1="0" y1="0" x2="0" y2="10" style="stroke:black;stroke-width:4" /></pattern>
<pattern id="hline-sparse" width="10" height="10" patternTransform="rotate(0 0 0)" patternUnits="userSpaceOnUse"><line x1="0" y1="0" x2="10" y2="0" style="stroke:black;stroke-width:2" /></pattern>
<pattern id="vline" width="10" height="10" patternTransform="rotate(0 0 0)" patternUnits="userSpaceOnUse"><line x1="0" y1="0" x2="0" y2="10" style="stroke:black;stroke-width:5" /></pattern>
</defs>
</svg>
