<?xml version="1.0" encoding="utf-8" standalone="no"?>
<!DOCTYPE svg PUBLIC "-//W3C//DTD SVG 1.1//EN" "http://www.w3.org/Graphics/SVG/1.1/DTD/svg11.dtd">
<svg width="3000px" height="3000px" version="1.1" xmlns="http://www.w3.org/2000/svg" xmlns:xlink="http://www.w3.org/1999/xlink">
<g id="bg">
<rect x="0" y="0" width="3000px" height="3000px" style="fill:rgb(255,255,255);"/>
</g>
<g id="ideograms">
<path d="M1500.000,950.000 A550.000,550.000 40.000 0,1 1644.676,2030.631 L1697.285,2223.587 A750.000,750.000 0.000 0,0 1500.000,750.000 Z" style="stroke-width:2.0;stroke:rgb(0,0,0);stroke-linecap:round;fill:rgb(179,177,178);" />
<text x="2466.4" y="1370.6" font-size="46.8px" font-family="CMUBright-Roman" style="text-anchor:middle;fill:rgb(0,0,0);" transform="rotate(442.4,2466.4,1370.6)" >Histocap144p08<tspan baseline-shift="-40%" font-size="90%">2</tspan></text>
<line x1='1519.6' y1='750.3' x2='1519.9' y2='738.3' style="stroke-width:8.0;stroke:rgb(150,150,150);stroke-linecap:round;fill:none;" />
<text x="1534.2" y="726.8" font-size="41.6px" font-family="CMUBright-Roman" style="text-anchor:start;fill:rgb(150,150,150);" transform="rotate(271.5,1534.2,726.8)" >550 kb</text>
<line x1='1617.1' y1='759.2' x2='1618.9' y2='747.3' style="stroke-width:8.0;stroke:rgb(150,150,150);stroke-linecap:round;fill:none;" />
<line x1='1712.6' y1='780.8' x2='1716.0' y2='769.2' style="stroke-width:8.0;stroke:rgb(150,150,150);stroke-linecap:round;fill:none;" />
<line x1='1804.5' y1='814.6' x2='1809.3' y2='803.6' style="stroke-width:8.0;stroke:rgb(150,150,150);stroke-linecap:round;fill:none;" />
<line x1='1891.2' y1='860.1' x2='1897.4' y2='849.8' style="stroke-width:8.0;stroke:rgb(150,150,150);stroke-linecap:round;fill:none;" />
<line x1='1971.2' y1='916.5' x2='1978.7' y2='907.2' style="stroke-width:8.0;stroke:rgb(150,150,150);stroke-linecap:round;fill:none;" />
<text x="1997.1" y="906.7" font-size="41.6px" font-family="CMUBright-Roman" style="text-anchor:start;fill:rgb(150,150,150);" transform="rotate(308.9,1997.1,906.7)" >600 kb</text>
<line x1='2043.2' y1='982.9' x2='2051.9' y2='974.6' style="stroke-width:8.0;stroke:rgb(150,150,150);stroke-linecap:round;fill:none;" />
<line x1='2105.9' y1='1058.0' x2='2115.6' y2='1051.0' style="stroke-width:8.0;stroke:rgb(150,150,150);stroke-linecap:round;fill:none;" />
<line x1='2158.3' y1='1140.7' x2='2168.9' y2='1135.0' style="stroke-width:8.0;stroke:rgb(150,150,150);stroke-linecap:round;fill:none;" />
<line x1='2199.5' y1='1229.6' x2='2210.7' y2='1225.2' style="stroke-width:8.0;stroke:rgb(150,150,150);stroke-linecap:round;fill:none;" />
<line x1='2228.8' y1='1323.0' x2='2240.5' y2='1320.2' style="stroke-width:8.0;stroke:rgb(150,150,150);stroke-linecap:round;fill:none;" />
<text x="2255.3" y="1331.0" font-size="41.6px" font-family="CMUBright-Roman" style="text-anchor:start;fill:rgb(150,150,150);" transform="rotate(346.3,2255.3,1331.0)" >650 kb</text>
<line x1='2245.7' y1='1419.5' x2='2257.6' y2='1418.2' style="stroke-width:8.0;stroke:rgb(150,150,150);stroke-linecap:round;fill:none;" />
<line x1='2249.8' y1='1517.3' x2='2261.8' y2='1517.6' style="stroke-width:8.0;stroke:rgb(150,150,150);stroke-linecap:round;fill:none;" />
<line x1='2241.2' y1='1614.8' x2='2253.0' y2='1616.6' style="stroke-width:8.0;stroke:rgb(150,150,150);stroke-linecap:round;fill:none;" />
<line x1='2219.9' y1='1710.4' x2='2231.4' y2='1713.8' style="stroke-width:8.0;stroke:rgb(150,150,150);stroke-linecap:round;fill:none;" />
<line x1='2186.3' y1='1802.4' x2='2197.3' y2='1807.2' style="stroke-width:8.0;stroke:rgb(150,150,150);stroke-linecap:round;fill:none;" />
<text x="2202.5" y="1824.8" font-size="41.6px" font-family="CMUBright-Roman" style="text-anchor:start;fill:rgb(150,150,150);" transform="rotate(23.8,2202.5,1824.8)" >700 kb</text>
<line x1='2141.1' y1='1889.2' x2='2151.4' y2='1895.4' style="stroke-width:8.0;stroke:rgb(150,150,150);stroke-linecap:round;fill:none;" />
<line x1='2084.9' y1='1969.4' x2='2094.3' y2='1976.9' style="stroke-width:8.0;stroke:rgb(150,150,150);stroke-linecap:round;fill:none;" />
<line x1='2018.8' y1='2041.6' x2='2027.1' y2='2050.3' style="stroke-width:8.0;stroke:rgb(150,150,150);stroke-linecap:round;fill:none;" />
<line x1='1943.8' y1='2104.6' x2='1950.9' y2='2114.3' style="stroke-width:8.0;stroke:rgb(150,150,150);stroke-linecap:round;fill:none;" />
<line x1='1861.3' y1='2157.3' x2='1867.0' y2='2167.8' style="stroke-width:8.0;stroke:rgb(150,150,150);stroke-linecap:round;fill:none;" />
<text x="1860.5" y="2184.9" font-size="41.6px" font-family="CMUBright-Roman" style="text-anchor:start;fill:rgb(150,150,150);" transform="rotate(61.2,1860.5,2184.9)" >750 kb</text>
<line x1='1772.6' y1='2198.7' x2='1776.9' y2='2209.9' style="stroke-width:8.0;stroke:rgb(150,150,150);stroke-linecap:round;fill:none;" />
<g id="highlighttrack_0">
<path d="M2030.897,1356.305 A550.000,550.000 40.000 0,1 2049.999,1498.983 L2249.999,1498.614 A750.000,750.000 0.000 0,0 2223.951,1304.053 Z" style="stroke-width:14.0;stroke:rgb(0,0,0);stroke-linecap:round;fill:rgb(255,38,78);" />
</g>
<path d="M1500.000,950.000 A550.000,550.000 40.000 0,1 1644.676,2030.631 L1697.285,2223.587 A750.000,750.000 0.000 0,0 1500.000,750.000 Z" style="stroke-width:2.0;stroke:rgb(0,0,0);stroke-linecap:round;fill:none;" />
<path d="M1431.014,2045.656 A550.000,550.000 40.000 0,1 1289.910,991.707 L1213.514,806.873 A750.000,750.000 0.000 0,0 1405.928,2244.077 Z" style="stroke-width:2.0;stroke:rgb(0,0,0);stroke-linecap:round;fill:rgb(179,177,178);" />
<text x="489.0" y="1635.4" font-size="46.8px" font-family="CMUBright-Roman" style="text-anchor:middle;fill:rgb(0,0,0);" transform="rotate(82.4,489.0,1635.4)" >HistoohiSECH98<tspan baseline-shift="-40%" font-size="90%">2</tspan></text>
<line x1='1159.3' y1='831.9' x2='1153.8' y2='821.2' style="stroke-width:8.0;stroke:rgb(150,150,150);stroke-linecap:round;fill:none;" />
<text x="1136.0" y="816.9" font-size="41.6px" font-family="CMUBright-Roman" style="text-anchor:end;fill:rgb(150,150,150);" transform="rotate(63.0,1136.0,816.9)" >450 kb</text>
<line x1='1075.1' y1='881.9' x2='1068.4' y2='872.0' style="stroke-width:8.0;stroke:rgb(150,150,150);stroke-linecap:round;fill:none;" />
<line x1='998.3' y1='942.6' x2='990.2' y2='933.6' style="stroke-width:8.0;stroke:rgb(150,150,150);stroke-linecap:round;fill:none;" />
<line x1='929.9' y1='1012.7' x2='920.8' y2='1004.9' style="stroke-width:8.0;stroke:rgb(150,150,150);stroke-linecap:round;fill:none;" />
<line x1='871.3' y1='1091.1' x2='861.2' y2='1084.5' style="stroke-width:8.0;stroke:rgb(150,150,150);stroke-linecap:round;fill:none;" />
<line x1='823.4' y1='1176.5' x2='812.5' y2='1171.3' style="stroke-width:8.0;stroke:rgb(150,150,150);stroke-linecap:round;fill:none;" />
<text x="795.8" y="1178.8" font-size="41.6px" font-family="CMUBright-Roman" style="text-anchor:end;fill:rgb(150,150,150);" transform="rotate(25.6,795.8,1178.8)" >500 kb</text>
<line x1='787.0' y1='1267.4' x2='775.6' y2='1263.7' style="stroke-width:8.0;stroke:rgb(150,150,150);stroke-linecap:round;fill:none;" />
<line x1='762.8' y1='1362.3' x2='751.0' y2='1360.1' style="stroke-width:8.0;stroke:rgb(150,150,150);stroke-linecap:round;fill:none;" />
<line x1='751.1' y1='1459.5' x2='739.1' y2='1458.8' style="stroke-width:8.0;stroke:rgb(150,150,150);stroke-linecap:round;fill:none;" />
<line x1='752.2' y1='1557.4' x2='740.2' y2='1558.3' style="stroke-width:8.0;stroke:rgb(150,150,150);stroke-linecap:round;fill:none;" />
<line x1='766.0' y1='1654.3' x2='754.3' y2='1656.8' style="stroke-width:8.0;stroke:rgb(150,150,150);stroke-linecap:round;fill:none;" />
<text x="745.6" y="1672.9" font-size="41.6px" font-family="CMUBright-Roman" style="text-anchor:end;fill:rgb(150,150,150);" transform="rotate(-11.9,745.6,1672.9)" >550 kb</text>
<line x1='792.4' y1='1748.6' x2='781.1' y2='1752.6' style="stroke-width:8.0;stroke:rgb(150,150,150);stroke-linecap:round;fill:none;" />
<line x1='830.8' y1='1838.7' x2='820.1' y2='1844.1' style="stroke-width:8.0;stroke:rgb(150,150,150);stroke-linecap:round;fill:none;" />
<line x1='880.7' y1='1923.0' x2='870.7' y2='1929.7' style="stroke-width:8.0;stroke:rgb(150,150,150);stroke-linecap:round;fill:none;" />
<line x1='941.0' y1='2000.1' x2='932.1' y2='2008.1' style="stroke-width:8.0;stroke:rgb(150,150,150);stroke-linecap:round;fill:none;" />
<line x1='1010.9' y1='2068.6' x2='1003.1' y2='2077.7' style="stroke-width:8.0;stroke:rgb(150,150,150);stroke-linecap:round;fill:none;" />
<text x="1006.0" y="2095.8" font-size="41.6px" font-family="CMUBright-Roman" style="text-anchor:end;fill:rgb(150,150,150);" transform="rotate(-49.3,1006.0,2095.8)" >600 kb</text>
<line x1='1089.2' y1='2127.5' x2='1082.6' y2='2137.5' style="stroke-width:8.0;stroke:rgb(150,150,150);stroke-linecap:round;fill:none;" />
<line x1='1174.4' y1='2175.7' x2='1169.2' y2='2186.5' style="stroke-width:8.0;stroke:rgb(150,150,150);stroke-linecap:round;fill:none;" />
<line x1='1265.2' y1='2212.3' x2='1261.5' y2='2223.7' style="stroke-width:8.0;stroke:rgb(150,150,150);stroke-linecap:round;fill:none;" />
<line x1='1360.0' y1='2236.8' x2='1357.8' y2='2248.6' style="stroke-width:8.0;stroke:rgb(150,150,150);stroke-linecap:round;fill:none;" />
<path d="M1431.014,2045.656 A550.000,550.000 40.000 0,1 1289.910,991.707 L1213.514,806.873 A750.000,750.000 0.000 0,0 1405.928,2244.077 Z" style="stroke-width:2.0;stroke:rgb(0,0,0);stroke-linecap:round;fill:none;" />
</g>
<g id="track_0">
<path d="M 1524.859,978.092 A 522.500,522.500 0.00 0,1 1675.1,1007.7 L 1675.1,1007.7 1667.5,1028.3 1659.3,1048.9 1650.5,1069.3 1641.2,1089.4 1631.3,1109.2 1620.7,1128.5 1609.6,1147.4 1597.9,1165.8 1585.5,1183.5 1572.6,1200.5 1559.1,1216.8 1545.0,1232.3 1530.3,1247.0 1515.1,1260.8 1499.3,1273.7 1483.0,1285.6 1466.1,1296.6 1448.8,1306.6 1430.9,1315.6 1412.6,1323.5 1393.9,1330.4 1374.7,1336.2 1355.2,1341.0 1335.3,1344.8 1315.1,1347.5 1294.6,1349.2 1273.9,1349.9 1252.9,1349.5 1231.8,1348.3 1210.5,1346.0 1189.2,1342.9 1167.8,1339.0 1146.4,1334.2 1125.0,1328.6 1103.8,1322.3 1082.7,1315.4 1061.9,1307.8 1041.3,1299.8 1021.0,1291.2  A 522.500,522.500 0.00 0,1 1102.2,1161.2 L 1102.2,1161.2 1118.2,1174.5 1134.5,1187.5 1150.9,1200.0 1167.5,1212.0 1184.1,1223.3 1200.8,1233.8 1217.4,1243.6 1233.9,1252.4 1250.2,1260.3 1266.4,1267.2 1282.3,1273.0 1297.9,1277.7 1313.2,1281.3 1328.1,1283.6 1342.7,1284.7 1356.7,1284.6 1370.3,1283.2 1383.5,1280.5 1396.0,1276.6 1408.1,1271.4 1419.6,1264.9 1430.5,1257.1 1440.8,1248.2 1450.5,1238.0 1459.7,1226.6 1468.1,1214.1 1476.0,1200.6 1483.3,1186.0 1489.9,1170.4 1495.9,1153.9 1501.4,1136.5 1506.2,1118.4 1510.5,1099.7 1514.1,1080.3 1517.3,1060.4 1519.9,1040.1 1522.0,1019.6 1523.7,998.9 1524.9,978.1  Z" style="stroke-width: 0.5;  stroke: rgb(0,0,0); fill: rgb(179,177,178);" />
<path d="M 1687.424,1987.728 A 522.500,522.500 0.00 0,1 1637.4,2004.1 L 1637.4,2004.1 1631.9,1984.4 1626.0,1964.9 1619.9,1945.6 1613.4,1926.8 1606.6,1908.6 1599.6,1891.0 1592.3,1874.2 1584.7,1858.3 1576.8,1843.3 1568.8,1829.3 1560.5,1816.5 1551.9,1804.8 1543.2,1794.4 1534.2,1785.3 1525.1,1777.5 1515.8,1771.1 1506.4,1766.1 1496.8,1762.5 1487.1,1760.4 1477.3,1759.7 1467.4,1760.5 1457.4,1762.7 1447.3,1766.4 1437.3,1771.5 1427.2,1777.9 1417.1,1785.8 1407.0,1794.9 1396.9,1805.3 1387.0,1816.9 1377.0,1829.6 1367.2,1843.4 1357.5,1858.1 1348.0,1873.8 1338.6,1890.2 1329.4,1907.4 1320.5,1925.1 1311.7,1943.3 1303.3,1961.9 1295.1,1980.6  A 522.500,522.500 0.00 0,1 1201.5,1928.8 L 1201.5,1928.8 1213.6,1911.8 1226.1,1895.0 1238.9,1878.7 1252.1,1862.8 1265.5,1847.6 1279.1,1833.0 1293.0,1819.2 1307.0,1806.4 1321.1,1794.4 1335.4,1783.5 1349.7,1773.7 1364.1,1765.0 1378.5,1757.5 1392.9,1751.2 1407.3,1746.2 1421.6,1742.5 1435.8,1740.2 1450.0,1739.1 1464.0,1739.5 1477.8,1741.1 1491.4,1744.2 1504.9,1748.5 1518.2,1754.2 1531.2,1761.2 1543.9,1769.5 1556.4,1779.1 1568.6,1789.8 1580.5,1801.7 1592.1,1814.6 1603.3,1828.6 1614.2,1843.6 1624.8,1859.5 1634.9,1876.1 1644.7,1893.5 1654.1,1911.5 1663.0,1930.1 1671.6,1949.0 1679.7,1968.3 1687.4,1987.7  Z" style="stroke-width: 0.5;  stroke: rgb(0,0,0); fill: rgb(179,177,178);" />
<path d="M 1695.547,1015.472 A 522.500,522.500 0.00 0,1 1765.1,1049.7 L 1765.1,1049.7 1753.2,1069.4 1740.8,1088.9 1727.8,1108.3 1714.3,1127.4 1700.2,1146.2 1685.6,1164.7 1670.4,1182.8 1654.7,1200.4 1638.5,1217.5 1621.7,1234.0 1604.4,1249.9 1586.6,1265.2 1568.3,1279.8 1549.5,1293.7 1530.3,1306.9 1510.6,1319.3 1490.4,1330.9 1469.9,1341.7 1448.9,1351.7 1427.6,1360.8 1405.9,1369.1 1384.0,1376.6 1361.7,1383.2 1339.1,1388.9 1316.3,1393.8 1293.3,1397.9 1270.1,1401.1 1246.7,1403.5 1223.3,1405.1 1199.8,1405.9 1176.2,1405.9 1152.6,1405.2 1129.1,1403.7 1105.6,1401.6 1082.2,1398.9 1059.1,1395.5 1036.1,1391.6 1013.4,1387.1 991.0,1382.2  A 522.500,522.500 0.00 0,1 1013.6,1309.1 L 1013.6,1309.1 1034.4,1317.0 1055.4,1324.4 1076.8,1331.2 1098.3,1337.5 1120.0,1343.1 1141.9,1347.9 1163.8,1352.1 1185.7,1355.4 1207.6,1357.9 1229.4,1359.5 1251.1,1360.2 1272.6,1360.0 1293.9,1358.8 1315.0,1356.7 1335.9,1353.5 1356.4,1349.4 1376.6,1344.2 1396.4,1338.0 1415.9,1330.8 1434.9,1322.6 1453.5,1313.4 1471.6,1303.3 1489.2,1292.2 1506.4,1280.1 1523.0,1267.1 1539.0,1253.3 1554.5,1238.6 1569.5,1223.1 1583.9,1206.9 1597.7,1189.9 1610.9,1172.3 1623.6,1154.1 1635.6,1135.3 1647.1,1116.1 1657.9,1096.5 1668.2,1076.5 1677.9,1056.3 1687.0,1035.9 1695.5,1015.5  Z" style="stroke-width: 0.5;  stroke: rgb(0,0,0); fill: rgb(179,177,178);" />
<path d="M 1755.819,1955.591 A 522.500,522.500 0.00 0,1 1688.9,1987.2 L 1688.9,1987.2 1681.1,1967.8 1672.9,1948.5 1664.3,1929.6 1655.2,1911.1 1645.8,1893.1 1636.0,1875.7 1625.7,1859.0 1615.2,1843.2 1604.2,1828.2 1592.9,1814.3 1581.3,1801.3 1569.3,1789.4 1557.0,1778.7 1544.5,1769.2 1531.7,1760.9 1518.6,1753.9 1505.3,1748.3 1491.8,1743.9 1478.1,1740.9 1464.2,1739.2 1450.1,1738.9 1436.0,1739.9 1421.7,1742.3 1407.3,1746.0 1392.9,1751.0 1378.5,1757.3 1364.0,1764.7 1349.6,1773.4 1335.2,1783.3 1320.9,1794.2 1306.7,1806.1 1292.7,1819.0 1278.8,1832.7 1265.1,1847.3 1251.7,1862.5 1238.5,1878.4 1225.7,1894.7 1213.2,1911.5 1201.0,1928.5  A 522.500,522.500 0.00 0,1 1143.7,1882.1 L 1143.7,1882.1 1158.5,1866.6 1173.7,1851.4 1189.4,1836.7 1205.3,1822.4 1221.7,1808.8 1238.3,1795.8 1255.1,1783.6 1272.2,1772.2 1289.4,1761.7 1306.8,1752.2 1324.4,1743.7 1342.0,1736.2 1359.6,1729.9 1377.3,1724.7 1395.0,1720.6 1412.7,1717.8 1430.3,1716.2 1447.8,1715.8 1465.2,1716.6 1482.5,1718.7 1499.6,1722.0 1516.6,1726.5 1533.3,1732.3 1549.8,1739.2 1566.0,1747.3 1582.0,1756.6 1597.7,1766.9 1613.0,1778.3 1628.0,1790.7 1642.7,1804.1 1657.0,1818.4 1670.9,1833.5 1684.3,1849.3 1697.4,1865.8 1710.0,1883.0 1722.2,1900.6 1733.9,1918.6 1745.1,1937.0 1755.8,1955.6  Z" style="stroke-width: 0.5;  stroke: rgb(0,0,0); fill: rgb(179,177,178);" />
<path d="M 1767.987,1051.459 A 522.500,522.500 0.00 0,1 1818.6,1085.9 L 1818.6,1085.9 1804.0,1104.5 1788.9,1123.0 1773.3,1141.3 1757.2,1159.4 1740.6,1177.2 1723.6,1194.7 1706.0,1211.9 1687.9,1228.7 1669.4,1245.0 1650.5,1260.9 1631.0,1276.2 1611.2,1291.1 1590.9,1305.3 1570.2,1319.0 1549.2,1332.1 1527.7,1344.5 1505.9,1356.3 1483.7,1367.5 1461.2,1377.9 1438.4,1387.7 1415.3,1396.8 1391.9,1405.2 1368.3,1412.8 1344.5,1419.8 1320.5,1426.0 1296.3,1431.5 1272.0,1436.4 1247.6,1440.5 1223.1,1444.0 1198.5,1446.8 1173.9,1448.9 1149.3,1450.4 1124.8,1451.3 1100.3,1451.6 1076.0,1451.3 1051.8,1450.5 1027.7,1449.1 1003.9,1447.3 980.4,1445.1  A 522.500,522.500 0.00 0,1 990.3,1385.2 L 990.3,1385.2 1012.7,1390.0 1035.5,1394.3 1058.5,1398.1 1081.8,1401.4 1105.2,1404.0 1128.7,1406.0 1152.3,1407.4 1176.0,1408.0 1199.6,1407.8 1223.2,1407.0 1246.7,1405.3 1270.1,1402.8 1293.4,1399.5 1316.5,1395.4 1339.3,1390.4 1362.0,1384.6 1384.3,1378.0 1406.4,1370.5 1428.2,1362.1 1449.6,1352.9 1470.6,1342.9 1491.2,1332.1 1511.5,1320.5 1531.3,1308.1 1550.6,1294.9 1569.5,1281.0 1587.9,1266.4 1605.9,1251.2 1623.3,1235.3 1640.2,1218.8 1656.5,1201.7 1672.4,1184.2 1687.7,1166.2 1702.5,1147.7 1716.7,1128.9 1730.3,1109.9 1743.4,1090.5 1756.0,1071.1 1768.0,1051.5  Z" style="stroke-width: 0.5;  stroke: rgb(0,0,0); fill: rgb(179,177,178);" />
<path d="M 1889.142,1848.676 A 522.500,522.500 0.00 0,1 1848.6,1889.2 L 1848.6,1889.2 1833.4,1872.7 1817.8,1856.4 1801.6,1840.4 1784.9,1824.9 1767.8,1809.8 1750.2,1795.3 1732.2,1781.3 1713.8,1768.1 1695.0,1755.5 1675.9,1743.7 1656.4,1732.7 1636.6,1722.6 1616.5,1713.3 1596.1,1705.0 1575.5,1697.6 1554.6,1691.1 1533.6,1685.7 1512.3,1681.2 1491.0,1677.8 1469.4,1675.4 1447.8,1674.0 1426.1,1673.6 1404.4,1674.3 1382.6,1675.9 1360.9,1678.6 1339.1,1682.2 1317.5,1686.8 1295.9,1692.3 1274.5,1698.7 1253.2,1705.9 1232.1,1714.0 1211.2,1722.9 1190.6,1732.5 1170.2,1742.8 1150.2,1753.7 1130.5,1765.1 1111.2,1777.1 1092.3,1789.5 1073.8,1802.3  A 522.500,522.500 0.00 0,1 1043.1,1753.5 L 1043.1,1753.5 1063.4,1742.6 1084.1,1732.0 1105.1,1721.8 1126.6,1712.1 1148.3,1703.0 1170.4,1694.4 1192.7,1686.4 1215.3,1679.1 1238.1,1672.5 1261.0,1666.7 1284.2,1661.6 1307.4,1657.2 1330.7,1653.7 1354.1,1651.1 1377.6,1649.3 1401.0,1648.4 1424.5,1648.3 1447.9,1649.1 1471.3,1650.9 1494.5,1653.5 1517.7,1657.0 1540.7,1661.4 1563.5,1666.6 1586.2,1672.7 1608.7,1679.7 1630.9,1687.5 1652.9,1696.1 1674.6,1705.5 1696.0,1715.6 1717.1,1726.4 1737.8,1737.9 1758.2,1750.0 1778.2,1762.7 1797.8,1776.0 1817.0,1789.8 1835.7,1804.0 1854.0,1818.6 1871.8,1833.5 1889.1,1848.7  Z" style="stroke-width: 0.5;  stroke: rgb(0,0,0); fill: rgb(179,177,178);" />
<path d="M 2021.938,1475.765 A 522.500,522.500 0.00 0,1 2021.8,1527.0 L 2021.8,1527.0 1995.9,1525.7 1970.0,1524.6 1943.8,1523.7 1917.6,1522.9 1891.3,1522.2 1864.9,1521.8 1838.4,1521.5 1811.8,1521.5 1785.2,1521.6 1758.5,1521.9 1731.7,1522.5 1704.9,1523.2 1678.1,1524.2 1651.2,1525.4 1624.4,1526.8 1597.5,1528.4 1570.6,1530.2 1543.7,1532.2 1516.8,1534.5 1489.9,1537.0 1463.0,1539.7 1436.2,1542.7 1409.4,1545.8 1382.7,1549.2 1356.0,1552.8 1329.4,1556.6 1302.8,1560.6 1276.4,1564.8 1250.0,1569.2 1223.7,1573.8 1197.5,1578.5 1171.3,1583.5 1145.4,1588.6 1119.5,1593.9 1093.7,1599.4 1068.1,1605.0 1042.6,1610.7 1017.3,1616.6 992.1,1622.6  A 522.500,522.500 0.00 0,1 982.5,1572.2 L 982.5,1572.2 1008.8,1568.6 1035.1,1565.0 1061.4,1561.4 1087.8,1557.9 1114.3,1554.5 1140.8,1551.1 1167.3,1547.7 1193.8,1544.5 1220.4,1541.2 1247.0,1538.1 1273.7,1535.0 1300.4,1531.9 1327.1,1529.0 1353.8,1526.1 1380.5,1523.2 1407.3,1520.5 1434.1,1517.8 1460.9,1515.1 1487.6,1512.6 1514.5,1510.1 1541.3,1507.7 1568.1,1505.3 1594.9,1503.0 1621.7,1500.8 1648.5,1498.7 1675.3,1496.6 1702.1,1494.7 1728.9,1492.7 1755.6,1490.9 1782.4,1489.1 1809.1,1487.4 1835.8,1485.7 1862.5,1484.1 1889.2,1482.6 1915.8,1481.1 1942.4,1479.7 1968.9,1478.3 1995.5,1477.0 2021.9,1475.8  Z" style="stroke-width: 0.5;  stroke: rgb(0,0,0); fill: rgb(179,177,178);" />
<path d="M 1957.557,1247.715 A 522.500,522.500 0.00 0,1 1978.3,1289.7 L 1978.3,1289.7 1955.0,1299.9 1931.4,1309.9 1907.6,1319.7 1883.5,1329.4 1859.3,1338.9 1834.8,1348.2 1810.2,1357.2 1785.4,1366.0 1760.4,1374.6 1735.2,1382.9 1709.8,1391.0 1684.3,1398.8 1658.7,1406.3 1633.0,1413.5 1607.1,1420.5 1581.1,1427.1 1555.0,1433.4 1528.8,1439.4 1502.5,1445.1 1476.2,1450.5 1449.8,1455.5 1423.3,1460.2 1396.9,1464.6 1370.3,1468.7 1343.8,1472.5 1317.3,1475.9 1290.8,1479.0 1264.2,1481.8 1237.8,1484.3 1211.3,1486.5 1185.0,1488.4 1158.7,1490.0 1132.4,1491.3 1106.3,1492.3 1080.3,1493.1 1054.4,1493.6 1028.6,1493.9 1003.0,1493.9 977.5,1493.7  A 522.500,522.500 0.00 0,1 980.3,1446.1 L 980.3,1446.1 1005.1,1448.5 1030.1,1450.7 1055.3,1452.5 1080.7,1454.0 1106.2,1455.1 1132.0,1455.9 1157.8,1456.3 1183.8,1456.3 1209.8,1455.9 1236.0,1455.1 1262.1,1453.9 1288.4,1452.2 1314.6,1450.1 1340.9,1447.5 1367.2,1444.5 1393.4,1441.1 1419.6,1437.2 1445.8,1432.8 1471.8,1428.0 1497.8,1422.7 1523.7,1417.0 1549.5,1410.8 1575.2,1404.2 1600.7,1397.1 1626.0,1389.6 1651.2,1381.7 1676.2,1373.4 1701.0,1364.7 1725.6,1355.7 1750.0,1346.2 1774.2,1336.4 1798.1,1326.3 1821.7,1315.9 1845.1,1305.1 1868.2,1294.1 1891.0,1282.8 1913.5,1271.3 1935.7,1259.6 1957.6,1247.7  Z" style="stroke-width: 0.5;  stroke: rgb(0,0,0); fill: rgb(179,177,178);" />
<path d="M 1952.659,1760.972 A 522.500,522.500 0.00 0,1 1931.7,1794.4 L 1931.7,1794.4 1911.9,1781.2 1891.7,1768.2 1871.1,1755.6 1850.1,1743.3 1828.7,1731.4 1806.9,1719.9 1784.8,1708.9 1762.3,1698.4 1739.6,1688.4 1716.5,1679.0 1693.2,1670.2 1669.6,1661.9 1645.8,1654.4 1621.8,1647.4 1597.6,1641.2 1573.2,1635.6 1548.6,1630.7 1523.9,1626.6 1499.1,1623.1 1474.2,1620.4 1449.3,1618.4 1424.3,1617.1 1399.3,1616.6 1374.2,1616.8 1349.2,1617.6 1324.3,1619.2 1299.4,1621.4 1274.6,1624.4 1249.9,1627.9 1225.4,1632.2 1201.0,1637.0 1176.8,1642.4 1152.8,1648.4 1129.1,1654.9 1105.6,1661.9 1082.4,1669.3 1059.6,1677.2 1037.1,1685.5 1014.9,1694.2  A 522.500,522.500 0.00 0,1 1001.6,1656.9 L 1001.6,1656.9 1024.8,1649.8 1048.2,1643.0 1072.0,1636.6 1096.1,1630.6 1120.4,1625.0 1145.0,1619.8 1169.8,1615.1 1194.8,1610.9 1219.9,1607.2 1245.2,1604.1 1270.6,1601.5 1296.1,1599.4 1321.7,1598.0 1347.4,1597.1 1373.1,1596.8 1398.8,1597.2 1424.5,1598.1 1450.2,1599.7 1475.9,1601.9 1501.5,1604.7 1527.0,1608.1 1552.5,1612.1 1577.8,1616.8 1603.0,1622.0 1628.0,1627.8 1652.9,1634.2 1677.6,1641.2 1702.0,1648.7 1726.3,1656.7 1750.3,1665.3 1774.0,1674.3 1797.5,1683.8 1820.7,1693.8 1843.5,1704.1 1866.1,1714.9 1888.3,1726.0 1910.1,1737.4 1931.6,1749.0 1952.7,1761.0  Z" style="stroke-width: 0.5;  stroke: rgb(0,0,0); fill: rgb(179,177,178);" />
<path d="M 1987.942,1313.134 A 522.500,522.500 0.00 0,1 2000.2,1349.0 L 2000.2,1349.0 1975.1,1356.5 1949.9,1363.9 1924.6,1371.3 1899.2,1378.6 1873.7,1385.8 1848.1,1392.8 1822.4,1399.8 1796.6,1406.7 1770.8,1413.4 1744.8,1420.0 1718.8,1426.5 1692.7,1432.9 1666.6,1439.1 1640.3,1445.2 1614.1,1451.2 1587.8,1457.0 1561.4,1462.7 1535.0,1468.2 1508.5,1473.6 1482.1,1478.9 1455.6,1484.0 1429.0,1488.9 1402.5,1493.7 1375.9,1498.4 1349.4,1502.8 1322.8,1507.2 1296.3,1511.4 1269.7,1515.5 1243.2,1519.4 1216.7,1523.1 1190.2,1526.8 1163.7,1530.2 1137.3,1533.6 1111.0,1536.8 1084.6,1539.9 1058.4,1542.9 1032.2,1545.7 1006.1,1548.4 980.0,1551.0  A 522.500,522.500 0.00 0,1 977.7,1512.9 L 977.7,1512.9 1003.4,1512.2 1029.2,1511.3 1055.2,1510.2 1081.3,1508.9 1107.4,1507.3 1133.7,1505.6 1160.0,1503.6 1186.5,1501.4 1212.9,1499.0 1239.4,1496.3 1266.0,1493.4 1292.5,1490.3 1319.1,1486.8 1345.7,1483.2 1372.3,1479.2 1398.9,1475.0 1425.5,1470.6 1452.0,1465.9 1478.5,1460.9 1505.0,1455.7 1531.4,1450.2 1557.7,1444.4 1584.0,1438.4 1610.2,1432.2 1636.2,1425.7 1662.2,1419.0 1688.1,1412.0 1713.9,1404.9 1739.6,1397.4 1765.1,1389.8 1790.5,1382.0 1815.8,1374.0 1840.9,1365.8 1865.8,1357.4 1890.6,1348.8 1915.2,1340.1 1939.6,1331.3 1963.9,1322.3 1987.9,1313.1  Z" style="stroke-width: 0.5;  stroke: rgb(0,0,0); fill: rgb(179,177,178);" />
<path d="M 1847.783,1889.940 A 522.500,522.500 0.00 0,1 1820.1,1913.0 L 1820.1,1913.0 1806.3,1895.7 1792.1,1878.6 1777.3,1861.9 1762.1,1845.6 1746.4,1829.8 1730.2,1814.5 1713.6,1799.9 1696.6,1786.0 1679.2,1772.8 1661.5,1760.4 1643.3,1748.9 1624.9,1738.4 1606.1,1728.7 1587.1,1720.0 1567.8,1712.4 1548.3,1705.8 1528.5,1700.2 1508.6,1695.7 1488.5,1692.4 1468.3,1690.1 1447.9,1688.9 1427.5,1688.8 1407.0,1689.8 1386.5,1691.9 1366.0,1695.1 1345.5,1699.3 1325.1,1704.5 1304.8,1710.7 1284.5,1717.9 1264.5,1726.0 1244.6,1734.9 1224.9,1744.7 1205.4,1755.3 1186.3,1766.5 1167.4,1778.5 1148.9,1790.9 1130.8,1804.0 1113.1,1817.4 1095.9,1831.2  A 522.500,522.500 0.00 0,1 1074.1,1802.7 L 1074.1,1802.7 1092.5,1789.9 1111.4,1777.5 1130.7,1765.5 1150.4,1754.0 1170.4,1743.1 1190.7,1732.8 1211.4,1723.2 1232.2,1714.3 1253.3,1706.2 1274.6,1699.0 1296.0,1692.6 1317.5,1687.1 1339.2,1682.5 1360.8,1678.9 1382.6,1676.2 1404.3,1674.6 1426.0,1673.9 1447.7,1674.3 1469.3,1675.7 1490.8,1678.1 1512.2,1681.6 1533.4,1686.0 1554.4,1691.5 1575.2,1697.9 1595.8,1705.4 1616.2,1713.7 1636.2,1723.0 1656.0,1733.2 1675.5,1744.2 1694.6,1756.0 1713.3,1768.6 1731.7,1781.9 1749.6,1795.8 1767.2,1810.4 1784.2,1825.5 1800.9,1841.1 1817.0,1857.1 1832.7,1873.4 1847.8,1889.9  Z" style="stroke-width: 0.5;  stroke: rgb(0,0,0); fill: rgb(179,177,178);" />
<path d="M 2021.721,1528.523 A 522.500,522.500 0.00 0,1 2018.8,1561.9 L 2018.8,1561.9 1993.5,1559.0 1968.0,1556.3 1942.4,1553.8 1916.5,1551.5 1890.6,1549.5 1864.5,1547.7 1838.3,1546.2 1811.9,1545.0 1785.5,1544.0 1759.0,1543.4 1732.4,1543.0 1705.7,1542.9 1679.0,1543.2 1652.2,1543.7 1625.5,1544.6 1598.7,1545.8 1571.8,1547.3 1545.0,1549.1 1518.2,1551.3 1491.5,1553.7 1464.7,1556.5 1438.0,1559.7 1411.4,1563.1 1384.8,1566.8 1358.3,1570.9 1331.9,1575.2 1305.6,1579.9 1279.4,1584.9 1253.4,1590.1 1227.4,1595.6 1201.6,1601.4 1175.9,1607.4 1150.4,1613.7 1125.1,1620.2 1099.9,1627.0 1075.0,1633.9 1050.2,1641.1 1025.6,1648.4 1001.3,1655.9  A 522.500,522.500 0.00 0,1 992.2,1623.2 L 992.2,1623.2 1017.4,1617.2 1042.7,1611.2 1068.2,1605.5 1093.8,1599.9 1119.5,1594.4 1145.4,1589.1 1171.4,1583.9 1197.5,1579.0 1223.7,1574.2 1250.0,1569.6 1276.4,1565.2 1302.9,1561.0 1329.4,1557.0 1356.0,1553.2 1382.7,1549.6 1409.4,1546.3 1436.2,1543.1 1463.0,1540.2 1489.9,1537.5 1516.8,1535.0 1543.7,1532.8 1570.6,1530.8 1597.5,1529.0 1624.4,1527.4 1651.3,1526.0 1678.1,1524.9 1705.0,1524.0 1731.8,1523.3 1758.5,1522.8 1785.2,1522.5 1811.8,1522.5 1838.4,1522.6 1864.9,1522.9 1891.3,1523.4 1917.6,1524.1 1943.8,1525.0 1969.9,1526.0 1995.9,1527.2 2021.7,1528.5  Z" style="stroke-width: 0.5;  stroke: rgb(0,0,0); fill: rgb(179,177,178);" />
<path d="M 1918.158,1813.289 A 522.500,522.500 0.00 0,1 1900.7,1835.3 L 1900.7,1835.3 1882.7,1820.7 1864.3,1806.2 1845.4,1792.1 1826.1,1778.4 1806.3,1765.1 1786.2,1752.3 1765.6,1740.0 1744.7,1728.3 1723.4,1717.2 1701.8,1706.8 1679.9,1697.0 1657.7,1688.0 1635.2,1679.7 1612.5,1672.2 1589.6,1665.4 1566.5,1659.5 1543.2,1654.4 1519.7,1650.2 1496.2,1646.8 1472.5,1644.2 1448.7,1642.5 1424.9,1641.7 1401.0,1641.7 1377.2,1642.5 1353.4,1644.2 1329.6,1646.7 1305.9,1650.0 1282.2,1654.1 1258.8,1659.0 1235.4,1664.6 1212.3,1670.9 1189.3,1677.9 1166.6,1685.5 1144.2,1693.7 1122.0,1702.5 1100.2,1711.8 1078.8,1721.5 1057.7,1731.7 1037.0,1742.2  A 522.500,522.500 0.00 0,1 1024.6,1716.8 L 1024.6,1716.8 1046.1,1707.2 1067.9,1698.1 1090.2,1689.3 1112.7,1680.9 1135.6,1673.1 1158.8,1665.8 1182.2,1659.0 1205.8,1652.9 1229.7,1647.3 1253.7,1642.5 1277.9,1638.3 1302.1,1634.8 1326.5,1632.0 1351.0,1630.0 1375.5,1628.8 1400.0,1628.3 1424.5,1628.6 1449.0,1629.6 1473.5,1631.5 1497.8,1634.1 1522.1,1637.5 1546.3,1641.7 1570.3,1646.7 1594.1,1652.4 1617.8,1658.8 1641.3,1666.0 1664.5,1673.9 1687.5,1682.5 1710.2,1691.8 1732.6,1701.7 1754.7,1712.2 1776.5,1723.2 1798.0,1734.8 1819.0,1746.9 1839.7,1759.5 1860.0,1772.4 1879.8,1785.7 1899.2,1799.4 1918.2,1813.3  Z" style="stroke-width: 0.5;  stroke: rgb(0,0,0); fill: rgb(179,177,178);" />
<path d="M 1930.616,1795.932 A 522.500,522.500 0.00 0,1 1918.7,1812.6 L 1918.7,1812.6 1899.7,1798.7 1880.2,1785.1 1860.4,1771.8 1840.1,1758.9 1819.4,1746.3 1798.3,1734.3 1776.8,1722.7 1755.0,1711.6 1732.9,1701.2 1710.4,1691.3 1687.7,1682.1 1664.7,1673.5 1641.4,1665.6 1617.9,1658.4 1594.2,1651.9 1570.4,1646.2 1546.3,1641.2 1522.2,1637.0 1497.9,1633.6 1473.5,1631.0 1449.0,1629.1 1424.5,1628.0 1399.9,1627.7 1375.4,1628.2 1350.9,1629.4 1326.4,1631.4 1302.0,1634.1 1277.7,1637.6 1253.5,1641.7 1229.4,1646.6 1205.6,1652.1 1181.9,1658.2 1158.4,1664.9 1135.3,1672.2 1112.3,1680.0 1089.7,1688.3 1067.5,1697.0 1045.6,1706.1 1024.1,1715.6  A 522.500,522.500 0.00 0,1 1015.9,1696.7 L 1015.9,1696.7 1038.0,1688.0 1060.5,1679.6 1083.3,1671.6 1106.4,1664.0 1129.8,1656.9 1153.5,1650.3 1177.4,1644.3 1201.5,1638.8 1225.8,1633.8 1250.3,1629.5 1275.0,1625.9 1299.7,1622.9 1324.6,1620.6 1349.5,1618.9 1374.4,1618.0 1399.4,1617.8 1424.4,1618.3 1449.3,1619.5 1474.3,1621.5 1499.1,1624.2 1523.8,1627.6 1548.5,1631.8 1573.0,1636.6 1597.3,1642.2 1621.5,1648.4 1645.5,1655.4 1669.3,1663.0 1692.8,1671.2 1716.1,1680.1 1739.1,1689.5 1761.8,1699.5 1784.2,1710.1 1806.2,1721.1 1828.0,1732.7 1849.3,1744.6 1870.2,1757.0 1890.8,1769.7 1910.9,1782.7 1930.6,1795.9  Z" style="stroke-width: 0.5;  stroke: rgb(0,0,0); fill: rgb(179,177,178);" />
<path d="M 1775.293,1944.095 A 522.500,522.500 0.00 0,1 1758.6,1954.0 L 1758.6,1954.0 1747.7,1935.5 1736.4,1917.2 1724.6,1899.2 1712.3,1881.6 1699.5,1864.5 1686.3,1848.0 1672.7,1832.2 1658.7,1817.2 1644.3,1803.0 1629.5,1789.6 1614.3,1777.3 1598.8,1765.9 1583.1,1755.6 1567.0,1746.3 1550.6,1738.2 1534.0,1731.3 1517.1,1725.6 1500.1,1721.0 1482.8,1717.7 1465.4,1715.6 1447.9,1714.8 1430.2,1715.2 1412.5,1716.8 1394.7,1719.6 1376.9,1723.6 1359.1,1728.8 1341.3,1735.1 1323.5,1742.5 1305.9,1751.0 1288.4,1760.4 1271.0,1770.8 1253.9,1782.2 1236.9,1794.3 1220.2,1807.2 1203.8,1820.8 1187.7,1835.0 1172.0,1849.7 1156.6,1864.8 1141.7,1880.3  A 522.500,522.500 0.00 0,1 1127.8,1866.7 L 1127.8,1866.7 1143.4,1851.7 1159.4,1837.0 1175.9,1822.8 1192.7,1809.1 1209.8,1796.0 1227.2,1783.5 1244.9,1771.8 1262.8,1760.9 1280.9,1750.9 1299.2,1741.9 1317.6,1733.8 1336.1,1726.7 1354.7,1720.7 1373.3,1715.9 1391.9,1712.1 1410.4,1709.5 1429.0,1708.1 1447.4,1707.9 1465.8,1708.9 1484.0,1711.1 1502.1,1714.4 1520.0,1719.0 1537.6,1724.7 1555.1,1731.6 1572.3,1739.7 1589.2,1748.8 1605.9,1759.0 1622.2,1770.2 1638.1,1782.4 1653.8,1795.5 1669.0,1809.5 1683.8,1824.3 1698.3,1839.8 1712.3,1856.0 1725.8,1872.8 1738.9,1890.1 1751.6,1907.8 1763.7,1925.8 1775.3,1944.1  Z" style="stroke-width: 0.5;  stroke: rgb(0,0,0); fill: rgb(179,177,178);" />
<path d="M 2000.418,1349.706 A 522.500,522.500 0.00 0,1 2004.4,1363.5 L 2004.4,1363.5 1978.9,1370.3 1953.3,1377.1 1927.7,1383.9 1902.0,1390.6 1876.3,1397.2 1850.4,1403.7 1824.6,1410.2 1798.6,1416.5 1772.6,1422.8 1746.5,1429.1 1720.4,1435.2 1694.2,1441.2 1668.0,1447.2 1641.8,1453.0 1615.5,1458.8 1589.1,1464.4 1562.8,1470.0 1536.4,1475.5 1509.9,1480.8 1483.5,1486.1 1457.0,1491.2 1430.5,1496.2 1404.1,1501.2 1377.6,1506.0 1351.1,1510.7 1324.6,1515.4 1298.1,1519.9 1271.6,1524.3 1245.1,1528.6 1218.6,1532.8 1192.2,1536.9 1165.7,1541.0 1139.3,1544.9 1113.0,1548.7 1086.6,1552.4 1060.4,1556.1 1034.1,1559.6 1007.9,1563.1 981.7,1566.5  A 522.500,522.500 0.00 0,1 980.1,1552.2 L 980.1,1552.2 1006.2,1549.5 1032.3,1546.7 1058.5,1543.8 1084.8,1540.8 1111.1,1537.7 1137.5,1534.4 1163.9,1531.0 1190.3,1527.5 1216.8,1523.8 1243.3,1520.0 1269.8,1516.1 1296.4,1512.0 1322.9,1507.8 1349.5,1503.4 1376.0,1498.9 1402.6,1494.2 1429.1,1489.4 1455.6,1484.4 1482.1,1479.3 1508.6,1474.1 1535.1,1468.7 1561.5,1463.1 1587.8,1457.4 1614.1,1451.6 1640.4,1445.7 1666.6,1439.6 1692.8,1433.3 1718.9,1427.0 1744.9,1420.5 1770.9,1413.9 1796.7,1407.2 1822.5,1400.3 1848.2,1393.4 1873.8,1386.3 1899.4,1379.2 1924.8,1371.9 1950.1,1364.6 1975.3,1357.2 2000.4,1349.7  Z" style="stroke-width: 0.5;  stroke: rgb(0,0,0); fill: rgb(179,177,178);" />
<path d="M 1899.301,1836.994 A 522.500,522.500 0.00 0,1 1891.1,1846.4 L 1891.1,1846.4 1873.7,1831.3 1855.8,1816.5 1837.4,1802.0 1818.6,1787.9 1799.3,1774.2 1779.6,1761.1 1759.5,1748.4 1739.1,1736.4 1718.2,1725.0 1697.1,1714.2 1675.6,1704.2 1653.8,1694.9 1631.8,1686.4 1609.5,1678.7 1587.0,1671.8 1564.2,1665.8 1541.3,1660.6 1518.3,1656.3 1495.1,1652.9 1471.8,1650.3 1448.4,1648.6 1424.9,1647.9 1401.4,1648.0 1377.9,1649.0 1354.4,1650.8 1331.0,1653.5 1307.6,1657.0 1284.4,1661.4 1261.2,1666.5 1238.2,1672.4 1215.4,1679.1 1192.9,1686.4 1170.5,1694.4 1148.4,1703.0 1126.7,1712.2 1105.2,1721.9 1084.1,1732.0 1063.4,1742.6 1043.2,1753.6  A 522.500,522.500 0.00 0,1 1037.0,1742.2 L 1037.0,1742.2 1057.7,1731.7 1078.7,1721.5 1100.2,1711.8 1122.0,1702.5 1144.1,1693.7 1166.6,1685.5 1189.3,1677.9 1212.2,1671.0 1235.3,1664.7 1258.6,1659.1 1282.1,1654.3 1305.7,1650.2 1329.4,1646.9 1353.2,1644.5 1377.0,1642.8 1400.8,1642.0 1424.6,1642.0 1448.4,1642.9 1472.1,1644.7 1495.8,1647.3 1519.3,1650.7 1542.7,1655.0 1566.0,1660.2 1589.1,1666.1 1612.0,1672.9 1634.6,1680.5 1657.0,1688.8 1679.2,1697.9 1701.0,1707.7 1722.6,1718.2 1743.8,1729.4 1764.7,1741.2 1785.2,1753.5 1805.3,1766.4 1825.0,1779.8 1844.3,1793.6 1863.1,1807.7 1881.4,1822.2 1899.3,1837.0  Z" style="stroke-width: 0.5;  stroke: rgb(0,0,0); fill: rgb(179,177,178);" />
<path d="M 1508.184,977.564 A 522.500,522.500 0.00 0,1 1519.4,977.9 L 1519.4,977.9 1518.4,998.6 1517.0,1019.3 1515.1,1039.8 1512.7,1060.1 1509.9,1079.9 1506.4,1099.2 1502.4,1118.0 1497.9,1136.0 1492.7,1153.3 1487.0,1169.7 1480.6,1185.2 1473.7,1199.7 1466.1,1213.2 1457.9,1225.6 1449.0,1236.8 1439.6,1246.9 1429.6,1255.8 1419.0,1263.4 1407.8,1269.7 1396.0,1274.8 1383.7,1278.5 1370.9,1281.0 1357.6,1282.2 1343.8,1282.2 1329.6,1280.9 1314.9,1278.3 1299.9,1274.6 1284.6,1269.7 1268.9,1263.6 1253.0,1256.5 1237.0,1248.4 1220.7,1239.3 1204.4,1229.3 1187.9,1218.5 1171.6,1207.0 1155.2,1194.8 1139.0,1182.1 1123.0,1168.9 1107.3,1155.4  A 522.500,522.500 0.00 0,1 1114.6,1147.1 L 1114.6,1147.1 1130.0,1161.0 1145.7,1174.5 1161.5,1187.5 1177.5,1200.0 1193.5,1211.9 1209.5,1223.0 1225.5,1233.3 1241.3,1242.7 1257.0,1251.1 1272.4,1258.6 1287.6,1264.9 1302.5,1270.1 1317.0,1274.2 1331.2,1277.0 1344.9,1278.6 1358.2,1278.9 1371.1,1278.0 1383.4,1275.7 1395.2,1272.2 1406.4,1267.3 1417.1,1261.2 1427.2,1253.8 1436.7,1245.1 1445.6,1235.2 1453.8,1224.1 1461.5,1211.9 1468.6,1198.6 1475.0,1184.2 1480.8,1168.8 1486.0,1152.4 1490.6,1135.2 1494.7,1117.3 1498.1,1098.6 1501.1,1079.3 1503.4,1059.6 1505.3,1039.4 1506.7,1018.9 1507.7,998.3 1508.2,977.6  Z" style="stroke-width: 0.5;  stroke: rgb(0,0,0); fill: rgb(179,177,178);" />
</g>
<g id="plot0">
<g id="plot0-axis">
</g>
<line x1='2243.9' y1='1595.7' x2='2243.9' y2='1595.7' style="stroke-width:14.0;stroke:rgb(0,0,0);stroke-linecap:round;fill:none;" />
<line x1='2243.9' y1='1595.7' x2='2283.5' y2='1600.8' style="stroke-width:14.0;stroke:rgb(0,0,0);stroke-linecap:round;fill:none;" />
<line x1='2283.5' y1='1600.8' x2='2283.5' y2='1600.8' style="stroke-width:14.0;stroke:rgb(0,0,0);stroke-linecap:round;fill:none;" />
<text x="2300.3" y="1625.1" font-size="46.8px" font-family="CMUBright-Roman" style="text-anchor:start;fill:rgb(255,38,78);" transform="rotate(7.3,2300.3,1625.1)" >Histocap144p08<tspan baseline-shift="-40%" font-size="90%">s</tspan>01850</text>
</g>
<defs>
<pattern id="hline" width="10" height="10" patternTransform="rotate(0 0 0)" patternUnits="userSpaceOnUse"><line x1="0" y1="0" x2="10" y2="0" style="stroke:black;stroke-width:5" /></pattern>
<pattern id="hline-sparse" width="10" height="10" patternTransform="rotate(0 0 0)" patternUnits="userSpaceOnUse"><line x1="0" y1="0" x2="10" y2="0" style="stroke:black;stroke-width:2" /></pattern>
<pattern id="vline-sparse" width="10" height="10" patternTransform="rotate(0 0 0)" patternUnits="userSpaceOnUse"><line x1="0" y1="0" x2="0" y2="10" style="stroke:black;stroke-width:2" /></pattern>
<pattern id="vline" width="10" height="10" patternTransform="rotate(0 0 0)" patternUnits="userSpaceOnUse"><line x1="0" y1="0" x2="0" y2="10" style="stroke:black;stroke-width:5" /></pattern>
<pattern id="checker" width="10" height="10" patternTransform="rotate(45 0 0)" patternUnits="userSpaceOnUse"><line x1="0" y1="0" x2="10" y2="0" style="stroke:black;stroke-width:2" /><line x1="0" y1="0" x2="0" y2="10" style="stroke:black;stroke-width:2" /></pattern>
<pattern id="checker" width="10" height="10" patternTransform="rotate(45 0 0)" patternUnits="userSpaceOnUse"><line x1="0" y1="0" x2="10" y2="0" style="stroke:black;stroke-width:5" /><line x1="0" y1="0" x2="0" y2="10" style="stroke:black;stroke-width:4" /></pattern>
</defs>
</svg>
